<?xml version="1.0" encoding="utf-8" standalone="no"?>
<!DOCTYPE svg PUBLIC "-//W3C//DTD SVG 1.1//EN"
  "http://www.w3.org/Graphics/SVG/1.1/DTD/svg11.dtd">
<svg xmlns:xlink="http://www.w3.org/1999/xlink" width="216pt" height="122.4pt" viewBox="0 0 216 122.4" xmlns="http://www.w3.org/2000/svg" version="1.1">
  <style>
    :root {
      --fg-color: #212529;
      --grid-color: rgba(33, 37, 41, 0.1);
    }
    @media (prefers-color-scheme: dark) {
      :root {
        --fg-color: #dee2e6;
        --grid-color: rgba(248, 249, 250, 0.15);
      }
    }
  </style>

 <metadata>
  <rdf:RDF xmlns:dc="http://purl.org/dc/elements/1.1/" xmlns:cc="http://creativecommons.org/ns#" xmlns:rdf="http://www.w3.org/1999/02/22-rdf-syntax-ns#">
   <cc:Work>
    <dc:type rdf:resource="http://purl.org/dc/dcmitype/StillImage"/>
    <dc:date>2026-06-30T04:49:08.868603</dc:date>
    <dc:format>image/svg+xml</dc:format>
    <dc:creator>
     <cc:Agent>
      <dc:title>Matplotlib v3.11.0, https://matplotlib.org/</dc:title>
     </cc:Agent>
    </dc:creator>
   </cc:Work>
  </rdf:RDF>
 </metadata>
 <defs>
  <style type="text/css">*{stroke-linejoin: round; stroke-linecap: butt}</style>
 </defs>
 <g id="figure_1">
  <g id="patch_1">
   <path d="M 0 122.4 
L 216 122.4 
L 216 0 
L 0 0 
L 0 122.4 
z
" style="fill: none; opacity: 0"/>
  </g>
  <g id="axes_1">
   <g id="patch_2">
    <path d="M 35.96 103.4 
L 211 103.4 
L 211 5 
L 35.96 5 
L 35.96 103.4 
z
" style="fill: none; opacity: 0"/>
   </g>
   <g id="matplotlib.axis_1">
    <g id="xtick_1">
     <g id="line2d_1">
      <path d="M 70.996911 103.4 
L 70.996911 5 
" clip-path="url(#p12c876cbaa)" style="fill: none; stroke-dasharray: 2.96,1.28; stroke-dashoffset: 0; stroke: var(--grid-color); stroke-width: 0.8"/>
     </g>
     <g id="line2d_2">
      <defs>
       <path id="m59dec029d2" d="M 0 0 
L 0 3.5 
" style="stroke: var(--fg-color); stroke-width: 0.8"/>
      </defs>
      <g>
       <use xlink:href="#m59dec029d2" x="70.996911" y="103.4" style="fill: var(--fg-color); stroke: var(--fg-color); stroke-width: 0.8"/>
      </g>
     </g>
     <g id="text_1">
      <text style="font-size: 7px; font-family: 'DejaVu Sans', 'Bitstream Vera Sans', 'Computer Modern Sans Serif', 'Lucida Grande', 'Verdana', 'Geneva', 'Lucid', 'Arial', 'Helvetica', 'Avant Garde', sans-serif; text-anchor: middle; fill: var(--fg-color)" x="70.996911" y="115.718359" transform="rotate(-0 70.996911 115.718359)">02/2026</text>
     </g>
    </g>
    <g id="xtick_2">
     <g id="line2d_3">
      <path d="M 126.022656 103.4 
L 126.022656 5 
" clip-path="url(#p12c876cbaa)" style="fill: none; stroke-dasharray: 2.96,1.28; stroke-dashoffset: 0; stroke: var(--grid-color); stroke-width: 0.8"/>
     </g>
     <g id="line2d_4">
      <g>
       <use xlink:href="#m59dec029d2" x="126.022656" y="103.4" style="fill: var(--fg-color); stroke: var(--fg-color); stroke-width: 0.8"/>
      </g>
     </g>
     <g id="text_2">
      <text style="font-size: 7px; font-family: 'DejaVu Sans', 'Bitstream Vera Sans', 'Computer Modern Sans Serif', 'Lucida Grande', 'Verdana', 'Geneva', 'Lucid', 'Arial', 'Helvetica', 'Avant Garde', sans-serif; text-anchor: middle; fill: var(--fg-color)" x="126.022656" y="115.718359" transform="rotate(-0 126.022656 115.718359)">04/2026</text>
     </g>
    </g>
    <g id="xtick_3">
     <g id="line2d_5">
      <path d="M 182.913681 103.4 
L 182.913681 5 
" clip-path="url(#p12c876cbaa)" style="fill: none; stroke-dasharray: 2.96,1.28; stroke-dashoffset: 0; stroke: var(--grid-color); stroke-width: 0.8"/>
     </g>
     <g id="line2d_6">
      <g>
       <use xlink:href="#m59dec029d2" x="182.913681" y="103.4" style="fill: var(--fg-color); stroke: var(--fg-color); stroke-width: 0.8"/>
      </g>
     </g>
     <g id="text_3">
      <text style="font-size: 7px; font-family: 'DejaVu Sans', 'Bitstream Vera Sans', 'Computer Modern Sans Serif', 'Lucida Grande', 'Verdana', 'Geneva', 'Lucid', 'Arial', 'Helvetica', 'Avant Garde', sans-serif; text-anchor: middle; fill: var(--fg-color)" x="182.913681" y="115.718359" transform="rotate(-0 182.913681 115.718359)">06/2026</text>
     </g>
    </g>
   </g>
   <g id="matplotlib.axis_2">
    <g id="ytick_1">
     <g id="line2d_7">
      <path d="M 35.96 99.425124 
L 211 99.425124 
" clip-path="url(#p12c876cbaa)" style="fill: none; stroke-dasharray: 2.96,1.28; stroke-dashoffset: 0; stroke: var(--grid-color); stroke-width: 0.8"/>
     </g>
     <g id="line2d_8">
      <defs>
       <path id="m7307e777fd" d="M 0 0 
L -3.5 0 
" style="stroke: var(--fg-color); stroke-width: 0.8"/>
      </defs>
      <g>
       <use xlink:href="#m7307e777fd" x="35.96" y="99.425124" style="fill: var(--fg-color); stroke: var(--fg-color); stroke-width: 0.8"/>
      </g>
     </g>
     <g id="text_4">
      <text style="font-size: 7px; font-family: 'DejaVu Sans', 'Bitstream Vera Sans', 'Computer Modern Sans Serif', 'Lucida Grande', 'Verdana', 'Geneva', 'Lucid', 'Arial', 'Helvetica', 'Avant Garde', sans-serif; text-anchor: end; fill: var(--fg-color)" x="28.96" y="102.084303" transform="rotate(-0 28.96 102.084303)">0</text>
     </g>
    </g>
    <g id="ytick_2">
     <g id="line2d_9">
      <path d="M 35.96 85.184534 
L 211 85.184534 
" clip-path="url(#p12c876cbaa)" style="fill: none; stroke-dasharray: 2.96,1.28; stroke-dashoffset: 0; stroke: var(--grid-color); stroke-width: 0.8"/>
     </g>
     <g id="line2d_10">
      <g>
       <use xlink:href="#m7307e777fd" x="35.96" y="85.184534" style="fill: var(--fg-color); stroke: var(--fg-color); stroke-width: 0.8"/>
      </g>
     </g>
     <g id="text_5">
      <text style="font-size: 7px; font-family: 'DejaVu Sans', 'Bitstream Vera Sans', 'Computer Modern Sans Serif', 'Lucida Grande', 'Verdana', 'Geneva', 'Lucid', 'Arial', 'Helvetica', 'Avant Garde', sans-serif; text-anchor: end; fill: var(--fg-color)" x="28.96" y="87.843713" transform="rotate(-0 28.96 87.843713)">50</text>
     </g>
    </g>
    <g id="ytick_3">
     <g id="line2d_11">
      <path d="M 35.96 70.943943 
L 211 70.943943 
" clip-path="url(#p12c876cbaa)" style="fill: none; stroke-dasharray: 2.96,1.28; stroke-dashoffset: 0; stroke: var(--grid-color); stroke-width: 0.8"/>
     </g>
     <g id="line2d_12">
      <g>
       <use xlink:href="#m7307e777fd" x="35.96" y="70.943943" style="fill: var(--fg-color); stroke: var(--fg-color); stroke-width: 0.8"/>
      </g>
     </g>
     <g id="text_6">
      <text style="font-size: 7px; font-family: 'DejaVu Sans', 'Bitstream Vera Sans', 'Computer Modern Sans Serif', 'Lucida Grande', 'Verdana', 'Geneva', 'Lucid', 'Arial', 'Helvetica', 'Avant Garde', sans-serif; text-anchor: end; fill: var(--fg-color)" x="28.96" y="73.603123" transform="rotate(-0 28.96 73.603123)">100</text>
     </g>
    </g>
    <g id="ytick_4">
     <g id="line2d_13">
      <path d="M 35.96 56.703353 
L 211 56.703353 
" clip-path="url(#p12c876cbaa)" style="fill: none; stroke-dasharray: 2.96,1.28; stroke-dashoffset: 0; stroke: var(--grid-color); stroke-width: 0.8"/>
     </g>
     <g id="line2d_14">
      <g>
       <use xlink:href="#m7307e777fd" x="35.96" y="56.703353" style="fill: var(--fg-color); stroke: var(--fg-color); stroke-width: 0.8"/>
      </g>
     </g>
     <g id="text_7">
      <text style="font-size: 7px; font-family: 'DejaVu Sans', 'Bitstream Vera Sans', 'Computer Modern Sans Serif', 'Lucida Grande', 'Verdana', 'Geneva', 'Lucid', 'Arial', 'Helvetica', 'Avant Garde', sans-serif; text-anchor: end; fill: var(--fg-color)" x="28.96" y="59.362533" transform="rotate(-0 28.96 59.362533)">150</text>
     </g>
    </g>
    <g id="ytick_5">
     <g id="line2d_15">
      <path d="M 35.96 42.462763 
L 211 42.462763 
" clip-path="url(#p12c876cbaa)" style="fill: none; stroke-dasharray: 2.96,1.28; stroke-dashoffset: 0; stroke: var(--grid-color); stroke-width: 0.8"/>
     </g>
     <g id="line2d_16">
      <g>
       <use xlink:href="#m7307e777fd" x="35.96" y="42.462763" style="fill: var(--fg-color); stroke: var(--fg-color); stroke-width: 0.8"/>
      </g>
     </g>
     <g id="text_8">
      <text style="font-size: 7px; font-family: 'DejaVu Sans', 'Bitstream Vera Sans', 'Computer Modern Sans Serif', 'Lucida Grande', 'Verdana', 'Geneva', 'Lucid', 'Arial', 'Helvetica', 'Avant Garde', sans-serif; text-anchor: end; fill: var(--fg-color)" x="28.96" y="45.121943" transform="rotate(-0 28.96 45.121943)">200</text>
     </g>
    </g>
    <g id="ytick_6">
     <g id="line2d_17">
      <path d="M 35.96 28.222173 
L 211 28.222173 
" clip-path="url(#p12c876cbaa)" style="fill: none; stroke-dasharray: 2.96,1.28; stroke-dashoffset: 0; stroke: var(--grid-color); stroke-width: 0.8"/>
     </g>
     <g id="line2d_18">
      <g>
       <use xlink:href="#m7307e777fd" x="35.96" y="28.222173" style="fill: var(--fg-color); stroke: var(--fg-color); stroke-width: 0.8"/>
      </g>
     </g>
     <g id="text_9">
      <text style="font-size: 7px; font-family: 'DejaVu Sans', 'Bitstream Vera Sans', 'Computer Modern Sans Serif', 'Lucida Grande', 'Verdana', 'Geneva', 'Lucid', 'Arial', 'Helvetica', 'Avant Garde', sans-serif; text-anchor: end; fill: var(--fg-color)" x="28.96" y="30.881353" transform="rotate(-0 28.96 30.881353)">250</text>
     </g>
    </g>
    <g id="ytick_7">
     <g id="line2d_19">
      <path d="M 35.96 13.981583 
L 211 13.981583 
" clip-path="url(#p12c876cbaa)" style="fill: none; stroke-dasharray: 2.96,1.28; stroke-dashoffset: 0; stroke: var(--grid-color); stroke-width: 0.8"/>
     </g>
     <g id="line2d_20">
      <g>
       <use xlink:href="#m7307e777fd" x="35.96" y="13.981583" style="fill: var(--fg-color); stroke: var(--fg-color); stroke-width: 0.8"/>
      </g>
     </g>
     <g id="text_10">
      <text style="font-size: 7px; font-family: 'DejaVu Sans', 'Bitstream Vera Sans', 'Computer Modern Sans Serif', 'Lucida Grande', 'Verdana', 'Geneva', 'Lucid', 'Arial', 'Helvetica', 'Avant Garde', sans-serif; text-anchor: end; fill: var(--fg-color)" x="28.96" y="16.640763" transform="rotate(-0 28.96 16.640763)">300</text>
     </g>
    </g>
    <g id="text_11">
     <text style="font-size: 7px; font-family: 'DejaVu Sans', 'Bitstream Vera Sans', 'Computer Modern Sans Serif', 'Lucida Grande', 'Verdana', 'Geneva', 'Lucid', 'Arial', 'Helvetica', 'Avant Garde', sans-serif; text-anchor: middle; fill: var(--fg-color)" x="9.917109" y="54.2" transform="rotate(-90 9.917109 54.2)">ms</text>
    </g>
   </g>
   <g id="line2d_21">
    <path d="M 43.916364 37.109156 
L 44.494523 36.1032 
L 45.427166 44.864866 
L 46.359808 38.049604 
L 47.292453 30.719688 
L 48.22509 37.595045 
L 49.157727 41.046394 
L 50.090359 23.321701 
L 51.023007 36.411652 
L 51.95565 37.413904 
L 52.88829 42.296433 
L 53.82093 31.609725 
L 54.753566 43.527959 
L 55.686208 38.139605 
L 56.618849 40.554524 
L 57.551483 26.601594 
L 58.484126 41.297883 
L 59.416765 39.218757 
L 60.349406 34.372114 
L 61.282045 41.57472 
L 62.214684 32.906758 
L 63.147327 32.474128 
L 64.07996 39.088028 
L 65.012598 44.646985 
L 65.945245 30.535699 
L 66.877884 37.761944 
L 67.810526 35.643229 
L 68.743162 43.756663 
L 69.675784 41.440289 
L 70.608443 23.160213 
L 71.541078 39.169769 
L 72.473724 35.991554 
L 73.406361 36.84542 
L 74.339003 43.819037 
L 75.271637 39.942748 
L 76.204286 40.181705 
L 77.136912 42.640771 
L 78.069558 35.069334 
L 79.002199 40.80345 
L 79.934841 32.261659 
L 80.867465 28.176318 
L 81.800118 36.029719 
L 82.732742 35.272689 
L 83.665398 40.239807 
L 84.598038 34.061954 
L 85.53068 39.870976 
L 86.463316 32.893941 
L 87.395962 40.578733 
L 96.913595 39.845343 
L 97.655282 42.510327 
L 98.587939 42.948652 
L 99.520578 26.815488 
L 100.453222 31.173963 
L 101.385859 32.647579 
L 102.318497 28.656226 
L 103.251135 37.150453 
L 104.183773 38.027389 
L 105.116412 18.688098 
L 106.049054 33.026663 
L 106.981691 32.809637 
L 107.914333 34.408285 
L 108.846974 27.3572 
L 109.779613 37.473145 
L 110.71225 28.722872 
L 111.644893 30.551649 
L 112.57753 32.341976 
L 113.510173 35.020916 
L 114.442814 34.048283 
L 115.37545 37.130517 
L 116.308095 45.605661 
L 117.240726 39.5161 
L 118.173367 29.771834 
L 119.106014 39.78952 
L 120.038653 44.799929 
L 120.971293 29.201641 
L 121.903926 33.457299 
L 122.836569 37.457481 
L 123.769209 29.643099 
L 124.701847 30.688643 
L 125.634489 27.519827 
L 129.365046 28.720309 
L 130.297692 26.353523 
L 131.230328 28.644834 
L 132.162968 18.646231 
L 133.095609 39.738253 
L 134.028248 34.237968 
L 134.960891 39.604392 
L 135.893512 29.968354 
L 136.826165 29.214173 
L 137.75881 33.001885 
L 138.691446 41.267693 
L 139.624089 26.540644 
L 140.556726 35.421646 
L 141.489366 38.568247 
L 142.422003 34.507115 
L 143.354646 39.498442 
L 144.287298 24.878198 
L 145.219926 35.889876 
L 146.152567 32.723339 
L 147.085204 11.635588 
L 148.017844 31.055196 
L 148.950485 26.246434 
L 149.883123 34.576609 
L 150.815765 26.551467 
L 151.7484 28.546859 
L 179.727656 28.546859 
L 188.43171 34.320279 
L 189.054038 37.60245 
L 189.986678 33.582616 
L 190.919315 25.949375 
L 191.851955 19.309842 
L 192.7846 18.213886 
L 193.717237 37.470582 
L 194.649875 31.256843 
L 195.582513 31.959474 
L 196.515156 9.472727 
L 197.447798 22.950591 
L 198.380437 24.434746 
L 199.313081 35.585413 
L 200.245713 30.839309 
L 201.178356 32.85065 
L 202.110995 23.36129 
L 203.043636 23.605659 
" clip-path="url(#p12c876cbaa)" style="fill: none; stroke: #339af0; stroke-width: 1.2; stroke-linecap: square"/>
   </g>
   <g id="line2d_22">
    <path d="M 43.916364 98.568979 
L 44.494523 98.834424 
L 45.427166 98.848095 
L 46.359808 98.845817 
L 47.292453 98.70398 
L 48.22509 98.834994 
L 49.157727 98.811639 
L 50.090359 98.826165 
L 51.023007 98.667809 
L 51.95565 98.809076 
L 52.88829 98.837842 
L 53.82093 98.844392 
L 54.753566 98.847241 
L 55.686208 98.84012 
L 56.618849 98.859203 
L 57.551483 98.852082 
L 58.484126 98.855785 
L 59.416765 98.82531 
L 60.349406 98.857494 
L 61.282045 98.857494 
L 62.214684 98.788285 
L 63.147327 98.73531 
L 64.07996 98.882557 
L 65.012598 98.853506 
L 65.945245 98.80224 
L 66.877884 98.857779 
L 67.810526 98.829582 
L 68.743162 98.880848 
L 69.675784 98.819329 
L 70.608443 98.831291 
L 71.541078 98.878 
L 72.473724 98.758095 
L 73.406361 98.813063 
L 74.339003 98.87145 
L 75.271637 98.786291 
L 76.204286 98.829297 
L 77.136912 98.859203 
L 78.069558 98.871165 
L 79.002199 98.83357 
L 79.934841 98.817051 
L 80.867465 98.850089 
L 81.800118 98.831861 
L 82.732742 98.848949 
L 83.665398 98.856924 
L 84.598038 98.832146 
L 85.53068 98.873158 
L 86.463316 98.780025 
L 87.395962 98.883697 
L 96.913595 98.868886 
L 97.655282 98.877715 
L 98.587939 98.790848 
L 99.520578 98.839836 
L 100.453222 98.664391 
L 101.385859 98.888538 
L 102.318497 98.874298 
L 103.251135 98.927273 
L 104.183773 98.851798 
L 105.116412 98.833285 
L 106.049054 98.870595 
L 106.981691 98.469865 
L 107.914333 98.856355 
L 108.846974 98.72648 
L 109.779613 98.767493 
L 110.71225 98.881133 
L 111.644893 98.846101 
L 112.57753 98.83243 
L 113.510173 98.811924 
L 114.442814 98.869456 
L 115.37545 98.801671 
L 116.308095 98.892241 
L 117.240726 98.861766 
L 118.173367 98.823032 
L 119.106014 98.862905 
L 120.038653 98.896798 
L 120.971293 98.827873 
L 121.903926 98.787145 
L 122.836569 98.867177 
L 123.769209 98.755531 
L 124.701847 98.791702 
L 125.634489 98.87145 
L 129.365046 98.738443 
L 130.297692 98.853222 
L 131.230328 98.673505 
L 132.162968 98.851513 
L 133.095609 98.8555 
L 134.028248 98.834424 
L 134.960891 98.850943 
L 135.893512 98.849234 
L 136.826165 98.289864 
L 137.75881 98.827019 
L 138.691446 98.833285 
L 139.624089 98.804519 
L 140.556726 98.847525 
L 141.489366 98.852937 
L 142.422003 98.837842 
L 143.354646 98.82531 
L 144.287298 98.789139 
L 145.219926 98.811924 
L 146.152567 98.831861 
L 147.085204 98.675784 
L 148.017844 98.737303 
L 148.950485 98.812778 
L 149.883123 98.832715 
L 150.815765 98.840975 
L 151.7484 98.76493 
L 179.727656 98.76493 
L 188.43171 98.843823 
L 189.054038 98.867747 
L 189.986678 98.813918 
L 190.919315 98.836703 
L 191.851955 98.84126 
L 192.7846 98.752398 
L 193.717237 98.760088 
L 194.649875 98.863475 
L 195.582513 98.858633 
L 196.515156 98.852082 
L 197.447798 98.770626 
L 198.380437 98.806513 
L 199.313081 98.736449 
L 200.245713 98.613125 
L 201.178356 98.795405 
L 202.110995 98.758949 
L 203.043636 98.693157 
" clip-path="url(#p12c876cbaa)" style="fill: none; stroke: #ff6b6b; stroke-width: 1.2; stroke-linecap: square"/>
   </g>
   <g id="patch_3">
    <path d="M 35.96 103.4 
L 35.96 5 
" style="fill: none; stroke: var(--fg-color); stroke-width: 0.8; stroke-linejoin: miter; stroke-linecap: square"/>
   </g>
   <g id="patch_4">
    <path d="M 35.96 103.4 
L 211 103.4 
" style="fill: none; stroke: var(--fg-color); stroke-width: 0.8; stroke-linejoin: miter; stroke-linecap: square"/>
   </g>
  </g>
 </g>
 <defs>
  <clipPath id="p12c876cbaa">
   <rect x="35.96" y="5" width="175.04" height="98.4"/>
  </clipPath>
 </defs>
</svg>
