<?xml version="1.0" encoding="utf-8" standalone="no"?>
<!DOCTYPE svg PUBLIC "-//W3C//DTD SVG 1.1//EN"
  "http://www.w3.org/Graphics/SVG/1.1/DTD/svg11.dtd">
<svg xmlns:xlink="http://www.w3.org/1999/xlink" width="216pt" height="122.4pt" viewBox="0 0 216 122.4" xmlns="http://www.w3.org/2000/svg" version="1.1">
  <style>
    :root {
      --fg-color: #212529;
      --grid-color: rgba(33, 37, 41, 0.1);
    }
    @media (prefers-color-scheme: dark) {
      :root {
        --fg-color: #dee2e6;
        --grid-color: rgba(248, 249, 250, 0.15);
      }
    }
  </style>

 <metadata>
  <rdf:RDF xmlns:dc="http://purl.org/dc/elements/1.1/" xmlns:cc="http://creativecommons.org/ns#" xmlns:rdf="http://www.w3.org/1999/02/22-rdf-syntax-ns#">
   <cc:Work>
    <dc:type rdf:resource="http://purl.org/dc/dcmitype/StillImage"/>
    <dc:date>2026-06-30T15:37:02.229761</dc:date>
    <dc:format>image/svg+xml</dc:format>
    <dc:creator>
     <cc:Agent>
      <dc:title>Matplotlib v3.11.0, https://matplotlib.org/</dc:title>
     </cc:Agent>
    </dc:creator>
   </cc:Work>
  </rdf:RDF>
 </metadata>
 <defs>
  <style type="text/css">*{stroke-linejoin: round; stroke-linecap: butt}</style>
 </defs>
 <g id="figure_1">
  <g id="patch_1">
   <path d="M 0 122.4 
L 216 122.4 
L 216 0 
L 0 0 
L 0 122.4 
z
" style="fill: none; opacity: 0"/>
  </g>
  <g id="axes_1">
   <g id="patch_2">
    <path d="M 35.96 103.4 
L 211 103.4 
L 211 5.255674 
L 35.96 5.255674 
L 35.96 103.4 
z
" style="fill: none; opacity: 0"/>
   </g>
   <g id="matplotlib.axis_1">
    <g id="xtick_1">
     <g id="line2d_1">
      <path d="M 69.784035 103.4 
L 69.784035 5.255674 
" clip-path="url(#pe64b1ace43)" style="fill: none; stroke-dasharray: 2.96,1.28; stroke-dashoffset: 0; stroke: var(--grid-color); stroke-width: 0.8"/>
     </g>
     <g id="line2d_2">
      <defs>
       <path id="m7448acedf2" d="M 0 0 
L 0 3.5 
" style="stroke: var(--fg-color); stroke-width: 0.8"/>
      </defs>
      <g>
       <use xlink:href="#m7448acedf2" x="69.784035" y="103.4" style="fill: var(--fg-color); stroke: var(--fg-color); stroke-width: 0.8"/>
      </g>
     </g>
     <g id="text_1">
      <text style="font-size: 7px; font-family: 'DejaVu Sans', 'Bitstream Vera Sans', 'Computer Modern Sans Serif', 'Lucida Grande', 'Verdana', 'Geneva', 'Lucid', 'Arial', 'Helvetica', 'Avant Garde', sans-serif; text-anchor: middle; fill: var(--fg-color)" x="69.784035" y="115.718359" transform="rotate(-0 69.784035 115.718359)">02/2026</text>
     </g>
    </g>
    <g id="xtick_2">
     <g id="line2d_3">
      <path d="M 122.345302 103.4 
L 122.345302 5.255674 
" clip-path="url(#pe64b1ace43)" style="fill: none; stroke-dasharray: 2.96,1.28; stroke-dashoffset: 0; stroke: var(--grid-color); stroke-width: 0.8"/>
     </g>
     <g id="line2d_4">
      <g>
       <use xlink:href="#m7448acedf2" x="122.345302" y="103.4" style="fill: var(--fg-color); stroke: var(--fg-color); stroke-width: 0.8"/>
      </g>
     </g>
     <g id="text_2">
      <text style="font-size: 7px; font-family: 'DejaVu Sans', 'Bitstream Vera Sans', 'Computer Modern Sans Serif', 'Lucida Grande', 'Verdana', 'Geneva', 'Lucid', 'Arial', 'Helvetica', 'Avant Garde', sans-serif; text-anchor: middle; fill: var(--fg-color)" x="122.345302" y="115.718359" transform="rotate(-0 122.345302 115.718359)">04/2026</text>
     </g>
    </g>
    <g id="xtick_3">
     <g id="line2d_5">
      <path d="M 176.688307 103.4 
L 176.688307 5.255674 
" clip-path="url(#pe64b1ace43)" style="fill: none; stroke-dasharray: 2.96,1.28; stroke-dashoffset: 0; stroke: var(--grid-color); stroke-width: 0.8"/>
     </g>
     <g id="line2d_6">
      <g>
       <use xlink:href="#m7448acedf2" x="176.688307" y="103.4" style="fill: var(--fg-color); stroke: var(--fg-color); stroke-width: 0.8"/>
      </g>
     </g>
     <g id="text_3">
      <text style="font-size: 7px; font-family: 'DejaVu Sans', 'Bitstream Vera Sans', 'Computer Modern Sans Serif', 'Lucida Grande', 'Verdana', 'Geneva', 'Lucid', 'Arial', 'Helvetica', 'Avant Garde', sans-serif; text-anchor: middle; fill: var(--fg-color)" x="176.688307" y="115.718359" transform="rotate(-0 176.688307 115.718359)">06/2026</text>
     </g>
    </g>
   </g>
   <g id="matplotlib.axis_2">
    <g id="ytick_1">
     <g id="line2d_7">
      <path d="M 35.96 100.724586 
L 211 100.724586 
" clip-path="url(#pe64b1ace43)" style="fill: none; stroke-dasharray: 2.96,1.28; stroke-dashoffset: 0; stroke: var(--grid-color); stroke-width: 0.8"/>
     </g>
     <g id="line2d_8">
      <defs>
       <path id="m2e51685a2b" d="M 0 0 
L -3.5 0 
" style="stroke: var(--fg-color); stroke-width: 0.8"/>
      </defs>
      <g>
       <use xlink:href="#m2e51685a2b" x="35.96" y="100.724586" style="fill: var(--fg-color); stroke: var(--fg-color); stroke-width: 0.8"/>
      </g>
     </g>
     <g id="text_4">
      <text style="font-size: 7px; font-family: 'DejaVu Sans', 'Bitstream Vera Sans', 'Computer Modern Sans Serif', 'Lucida Grande', 'Verdana', 'Geneva', 'Lucid', 'Arial', 'Helvetica', 'Avant Garde', sans-serif; text-anchor: end; fill: var(--fg-color)" x="28.96" y="103.383766" transform="rotate(-0 28.96 103.383766)">0</text>
     </g>
    </g>
    <g id="ytick_2">
     <g id="line2d_9">
      <path d="M 35.96 85.850019 
L 211 85.850019 
" clip-path="url(#pe64b1ace43)" style="fill: none; stroke-dasharray: 2.96,1.28; stroke-dashoffset: 0; stroke: var(--grid-color); stroke-width: 0.8"/>
     </g>
     <g id="line2d_10">
      <g>
       <use xlink:href="#m2e51685a2b" x="35.96" y="85.850019" style="fill: var(--fg-color); stroke: var(--fg-color); stroke-width: 0.8"/>
      </g>
     </g>
     <g id="text_5">
      <text style="font-size: 7px; font-family: 'DejaVu Sans', 'Bitstream Vera Sans', 'Computer Modern Sans Serif', 'Lucida Grande', 'Verdana', 'Geneva', 'Lucid', 'Arial', 'Helvetica', 'Avant Garde', sans-serif; text-anchor: end; fill: var(--fg-color)" x="28.96" y="88.509199" transform="rotate(-0 28.96 88.509199)">20</text>
     </g>
    </g>
    <g id="ytick_3">
     <g id="line2d_11">
      <path d="M 35.96 70.975452 
L 211 70.975452 
" clip-path="url(#pe64b1ace43)" style="fill: none; stroke-dasharray: 2.96,1.28; stroke-dashoffset: 0; stroke: var(--grid-color); stroke-width: 0.8"/>
     </g>
     <g id="line2d_12">
      <g>
       <use xlink:href="#m2e51685a2b" x="35.96" y="70.975452" style="fill: var(--fg-color); stroke: var(--fg-color); stroke-width: 0.8"/>
      </g>
     </g>
     <g id="text_6">
      <text style="font-size: 7px; font-family: 'DejaVu Sans', 'Bitstream Vera Sans', 'Computer Modern Sans Serif', 'Lucida Grande', 'Verdana', 'Geneva', 'Lucid', 'Arial', 'Helvetica', 'Avant Garde', sans-serif; text-anchor: end; fill: var(--fg-color)" x="28.96" y="73.634632" transform="rotate(-0 28.96 73.634632)">40</text>
     </g>
    </g>
    <g id="ytick_4">
     <g id="line2d_13">
      <path d="M 35.96 56.100886 
L 211 56.100886 
" clip-path="url(#pe64b1ace43)" style="fill: none; stroke-dasharray: 2.96,1.28; stroke-dashoffset: 0; stroke: var(--grid-color); stroke-width: 0.8"/>
     </g>
     <g id="line2d_14">
      <g>
       <use xlink:href="#m2e51685a2b" x="35.96" y="56.100886" style="fill: var(--fg-color); stroke: var(--fg-color); stroke-width: 0.8"/>
      </g>
     </g>
     <g id="text_7">
      <text style="font-size: 7px; font-family: 'DejaVu Sans', 'Bitstream Vera Sans', 'Computer Modern Sans Serif', 'Lucida Grande', 'Verdana', 'Geneva', 'Lucid', 'Arial', 'Helvetica', 'Avant Garde', sans-serif; text-anchor: end; fill: var(--fg-color)" x="28.96" y="58.760065" transform="rotate(-0 28.96 58.760065)">60</text>
     </g>
    </g>
    <g id="ytick_5">
     <g id="line2d_15">
      <path d="M 35.96 41.226319 
L 211 41.226319 
" clip-path="url(#pe64b1ace43)" style="fill: none; stroke-dasharray: 2.96,1.28; stroke-dashoffset: 0; stroke: var(--grid-color); stroke-width: 0.8"/>
     </g>
     <g id="line2d_16">
      <g>
       <use xlink:href="#m2e51685a2b" x="35.96" y="41.226319" style="fill: var(--fg-color); stroke: var(--fg-color); stroke-width: 0.8"/>
      </g>
     </g>
     <g id="text_8">
      <text style="font-size: 7px; font-family: 'DejaVu Sans', 'Bitstream Vera Sans', 'Computer Modern Sans Serif', 'Lucida Grande', 'Verdana', 'Geneva', 'Lucid', 'Arial', 'Helvetica', 'Avant Garde', sans-serif; text-anchor: end; fill: var(--fg-color)" x="28.96" y="43.885498" transform="rotate(-0 28.96 43.885498)">80</text>
     </g>
    </g>
    <g id="ytick_6">
     <g id="line2d_17">
      <path d="M 35.96 26.351752 
L 211 26.351752 
" clip-path="url(#pe64b1ace43)" style="fill: none; stroke-dasharray: 2.96,1.28; stroke-dashoffset: 0; stroke: var(--grid-color); stroke-width: 0.8"/>
     </g>
     <g id="line2d_18">
      <g>
       <use xlink:href="#m2e51685a2b" x="35.96" y="26.351752" style="fill: var(--fg-color); stroke: var(--fg-color); stroke-width: 0.8"/>
      </g>
     </g>
     <g id="text_9">
      <text style="font-size: 7px; font-family: 'DejaVu Sans', 'Bitstream Vera Sans', 'Computer Modern Sans Serif', 'Lucida Grande', 'Verdana', 'Geneva', 'Lucid', 'Arial', 'Helvetica', 'Avant Garde', sans-serif; text-anchor: end; fill: var(--fg-color)" x="28.96" y="29.010932" transform="rotate(-0 28.96 29.010932)">100</text>
     </g>
    </g>
    <g id="ytick_7">
     <g id="line2d_19">
      <path d="M 35.96 11.477185 
L 211 11.477185 
" clip-path="url(#pe64b1ace43)" style="fill: none; stroke-dasharray: 2.96,1.28; stroke-dashoffset: 0; stroke: var(--grid-color); stroke-width: 0.8"/>
     </g>
     <g id="line2d_20">
      <g>
       <use xlink:href="#m2e51685a2b" x="35.96" y="11.477185" style="fill: var(--fg-color); stroke: var(--fg-color); stroke-width: 0.8"/>
      </g>
     </g>
     <g id="text_10">
      <text style="font-size: 7px; font-family: 'DejaVu Sans', 'Bitstream Vera Sans', 'Computer Modern Sans Serif', 'Lucida Grande', 'Verdana', 'Geneva', 'Lucid', 'Arial', 'Helvetica', 'Avant Garde', sans-serif; text-anchor: end; fill: var(--fg-color)" x="28.96" y="14.136365" transform="rotate(-0 28.96 14.136365)">120</text>
     </g>
    </g>
    <g id="text_11">
     <text style="font-size: 7px; font-family: 'DejaVu Sans', 'Bitstream Vera Sans', 'Computer Modern Sans Serif', 'Lucida Grande', 'Verdana', 'Geneva', 'Lucid', 'Arial', 'Helvetica', 'Avant Garde', sans-serif; text-anchor: middle; fill: var(--fg-color)" x="9.917109" y="54.327837" transform="rotate(-90 9.917109 54.327837)">ms</text>
    </g>
   </g>
   <g id="line2d_21">
    <path d="M 43.916364 67.279123 
L 44.468628 66.479615 
L 46.250371 69.363793 
L 47.141245 66.374005 
L 48.032112 69.528901 
L 48.922979 69.036553 
L 49.81384 66.937008 
L 50.704717 66.861147 
L 51.595589 68.496606 
L 52.486458 69.261159 
L 54.268192 65.787947 
L 55.159063 65.050912 
L 56.940797 65.811003 
L 57.831669 68.063012 
L 58.722538 65.268825 
L 59.613407 69.453784 
L 60.504275 69.128031 
L 61.395144 65.531361 
L 62.286016 68.998622 
L 63.176879 71.269225 
L 64.067746 70.14322 
L 64.958622 63.910033 
L 65.84949 63.17523 
L 66.740361 68.814922 
L 67.631226 61.112871 
L 68.522078 66.915439 
L 69.412965 66.786774 
L 70.30383 67.932116 
L 71.194705 66.933289 
L 72.085571 67.110296 
L 72.976442 41.381758 
L 73.867306 60.389223 
L 75.649039 71.137585 
L 76.539914 32.237618 
L 77.430784 66.115931 
L 78.321655 63.197541 
L 79.212509 65.723243 
L 80.103391 67.830969 
L 80.994245 66.836604 
L 81.885129 69.26934 
L 82.775998 65.417571 
L 83.666869 66.827679 
L 84.557735 62.703706 
L 85.44861 66.892384 
L 94.53997 60.477727 
L 95.248438 66.626873 
L 96.139324 63.564943 
L 97.030192 60.996106 
L 97.921065 64.377838 
L 98.811931 68.399921 
L 99.702798 61.551671 
L 100.593666 61.033292 
L 101.484533 63.302407 
L 102.375401 61.775533 
L 103.266272 60.781168 
L 104.157138 61.454986 
L 105.048009 58.541802 
L 105.93888 64.069191 
L 106.829748 62.962523 
L 107.720614 59.976454 
L 108.611487 62.131035 
L 109.502352 62.011295 
L 110.393224 54.313706 
L 111.284094 62.495462 
L 112.17496 38.232069 
L 113.065834 60.220397 
L 113.956695 59.372547 
L 114.847564 59.752592 
L 115.738441 56.399864 
L 116.629309 62.173428 
L 117.520178 62.825677 
L 118.41104 63.193079 
L 119.301913 61.041473 
L 120.192782 60.505989 
L 121.083649 59.628389 
L 121.97452 59.906544 
L 125.537994 64.04911 
L 126.428869 52.467029 
L 127.319734 60.688202 
L 128.210603 60.606392 
L 129.992342 64.603188 
L 130.883214 58.847474 
L 131.774065 62.362335 
L 132.664946 57.958719 
L 133.55582 62.016501 
L 134.446686 58.921847 
L 135.337558 61.66918 
L 136.228424 60.230809 
L 137.119294 56.791809 
L 138.010159 57.06922 
L 138.901032 60.341625 
L 139.791912 57.356299 
L 140.68277 60.479958 
L 141.57364 58.979114 
L 142.464507 61.291366 
L 143.355376 57.354812 
L 144.246246 58.631049 
L 145.137113 57.345887 
L 146.027984 57.040215 
L 146.918849 59.657395 
L 173.644977 59.657395 
L 181.959197 61.451267 
L 182.553652 59.73028 
L 183.444521 60.909089 
L 184.335387 60.801249 
L 185.226256 61.037754 
L 186.117131 9.71678 
L 187.007996 61.827594 
L 187.898864 58.779051 
L 188.789731 60.497808 
L 189.680603 49.719696 
L 190.571474 37.175974 
L 191.462343 53.373634 
L 192.353215 60.826535 
L 193.244077 52.973508 
L 194.134949 41.006919 
L 195.025817 58.163244 
L 195.916688 47.101029 
L 196.807557 61.775533 
L 197.698426 56.689175 
L 198.589295 58.23613 
L 199.480162 57.345887 
L 200.371032 60.006203 
L 201.261898 59.188846 
L 202.152766 61.253436 
L 203.043636 60.196598 
L 203.043636 60.196598 
" clip-path="url(#pe64b1ace43)" style="fill: none; stroke: #339af0; stroke-width: 1.2; stroke-linecap: square"/>
   </g>
   <g id="line2d_22">
    <path d="M 43.916364 98.735113 
L 44.468628 98.705364 
L 45.3595 98.858572 
L 47.141245 98.696439 
L 48.032112 98.876421 
L 48.922979 98.86229 
L 49.81384 98.729163 
L 52.486458 98.888321 
L 53.377327 98.71057 
L 54.268192 98.689002 
L 55.159063 98.854853 
L 56.940797 98.732882 
L 57.831669 98.840722 
L 58.722538 98.703132 
L 59.613407 98.926251 
L 67.631226 98.65479 
L 69.412965 98.784943 
L 71.194705 98.717263 
L 72.976442 98.819154 
L 74.758184 98.738831 
L 75.649039 98.938894 
L 76.539914 98.733625 
L 77.430784 98.863778 
L 78.321655 98.569261 
L 79.212509 98.784943 
L 80.103391 98.829566 
L 80.994245 98.71057 
L 81.885129 98.764862 
L 82.775998 98.510507 
L 83.666869 98.876421 
L 84.557735 98.764862 
L 85.44861 98.778249 
L 95.248438 98.596036 
L 96.139324 98.764118 
L 98.811931 98.796098 
L 99.702798 98.795355 
L 100.593666 98.679333 
L 103.266272 98.785686 
L 104.157138 98.690489 
L 105.93888 98.841466 
L 106.829748 98.66074 
L 107.720614 98.62876 
L 108.611487 98.778249 
L 110.393224 98.845928 
L 111.284094 98.671896 
L 112.17496 98.655534 
L 113.065834 98.761887 
L 116.629309 98.807998 
L 117.520178 98.106662 
L 118.41104 98.77453 
L 119.301913 98.59901 
L 121.083649 98.661484 
L 125.537994 98.746269 
L 126.428869 98.575955 
L 127.319734 98.5291 
L 128.210603 98.680077 
L 129.101474 98.585623 
L 129.992342 98.777505 
L 130.883214 98.593804 
L 131.774065 98.651071 
L 132.664946 98.542487 
L 133.55582 98.761143 
L 134.446686 98.538025 
L 135.337558 98.724701 
L 136.228424 98.444315 
L 138.010159 98.442084 
L 138.901032 98.449521 
L 139.791912 98.569261 
L 140.68277 98.358042 
L 141.57364 98.618347 
L 143.355376 98.466627 
L 144.246246 98.568518 
L 146.027984 98.504557 
L 146.918849 98.596779 
L 181.959197 98.605704 
L 182.553652 97.742235 
L 183.444521 98.227146 
L 184.335387 98.377379 
L 185.226256 98.333499 
L 186.117131 98.558849 
L 187.007996 98.298544 
L 189.680603 98.566286 
L 190.571474 98.369198 
L 191.462343 98.3216 
L 192.353215 98.550668 
L 195.916688 98.393741 
L 196.807557 98.593061 
L 197.698426 98.218965 
L 201.261898 98.506788 
L 202.152766 98.519432 
L 203.043636 98.363249 
L 203.043636 98.363249 
" clip-path="url(#pe64b1ace43)" style="fill: none; stroke: #ff6b6b; stroke-width: 1.2; stroke-linecap: square"/>
   </g>
   <g id="patch_3">
    <path d="M 35.96 103.4 
L 35.96 5.255674 
" style="fill: none; stroke: var(--fg-color); stroke-width: 0.8; stroke-linejoin: miter; stroke-linecap: square"/>
   </g>
   <g id="patch_4">
    <path d="M 35.96 103.4 
L 211 103.4 
" style="fill: none; stroke: var(--fg-color); stroke-width: 0.8; stroke-linejoin: miter; stroke-linecap: square"/>
   </g>
  </g>
 </g>
 <defs>
  <clipPath id="pe64b1ace43">
   <rect x="35.96" y="5.255674" width="175.04" height="98.144326"/>
  </clipPath>
 </defs>
</svg>
