<?xml version="1.0" encoding="utf-8" standalone="no"?>
<!DOCTYPE svg PUBLIC "-//W3C//DTD SVG 1.1//EN"
  "http://www.w3.org/Graphics/SVG/1.1/DTD/svg11.dtd">
<svg xmlns:xlink="http://www.w3.org/1999/xlink" width="216pt" height="122.4pt" viewBox="0 0 216 122.4" xmlns="http://www.w3.org/2000/svg" version="1.1">
  <style>
    :root {
      --fg-color: #212529;
      --grid-color: rgba(33, 37, 41, 0.1);
    }
    @media (prefers-color-scheme: dark) {
      :root {
        --fg-color: #dee2e6;
        --grid-color: rgba(248, 249, 250, 0.15);
      }
    }
  </style>

 <metadata>
  <rdf:RDF xmlns:dc="http://purl.org/dc/elements/1.1/" xmlns:cc="http://creativecommons.org/ns#" xmlns:rdf="http://www.w3.org/1999/02/22-rdf-syntax-ns#">
   <cc:Work>
    <dc:type rdf:resource="http://purl.org/dc/dcmitype/StillImage"/>
    <dc:date>2026-06-30T04:48:34.496626</dc:date>
    <dc:format>image/svg+xml</dc:format>
    <dc:creator>
     <cc:Agent>
      <dc:title>Matplotlib v3.11.0, https://matplotlib.org/</dc:title>
     </cc:Agent>
    </dc:creator>
   </cc:Work>
  </rdf:RDF>
 </metadata>
 <defs>
  <style type="text/css">*{stroke-linejoin: round; stroke-linecap: butt}</style>
 </defs>
 <g id="figure_1">
  <g id="patch_1">
   <path d="M 0 122.4 
L 216 122.4 
L 216 0 
L 0 0 
L 0 122.4 
z
" style="fill: none; opacity: 0"/>
  </g>
  <g id="axes_1">
   <g id="patch_2">
    <path d="M 35.96 103.4 
L 211 103.4 
L 211 5 
L 35.96 5 
L 35.96 103.4 
z
" style="fill: none; opacity: 0"/>
   </g>
   <g id="matplotlib.axis_1">
    <g id="xtick_1">
     <g id="line2d_1">
      <path d="M 70.996911 103.4 
L 70.996911 5 
" clip-path="url(#p8586a03ab0)" style="fill: none; stroke-dasharray: 2.96,1.28; stroke-dashoffset: 0; stroke: var(--grid-color); stroke-width: 0.8"/>
     </g>
     <g id="line2d_2">
      <defs>
       <path id="m78461305be" d="M 0 0 
L 0 3.5 
" style="stroke: var(--fg-color); stroke-width: 0.8"/>
      </defs>
      <g>
       <use xlink:href="#m78461305be" x="70.996911" y="103.4" style="fill: var(--fg-color); stroke: var(--fg-color); stroke-width: 0.8"/>
      </g>
     </g>
     <g id="text_1">
      <text style="font-size: 7px; font-family: 'DejaVu Sans', 'Bitstream Vera Sans', 'Computer Modern Sans Serif', 'Lucida Grande', 'Verdana', 'Geneva', 'Lucid', 'Arial', 'Helvetica', 'Avant Garde', sans-serif; text-anchor: middle; fill: var(--fg-color)" x="70.996911" y="115.718359" transform="rotate(-0 70.996911 115.718359)">02/2026</text>
     </g>
    </g>
    <g id="xtick_2">
     <g id="line2d_3">
      <path d="M 126.022656 103.4 
L 126.022656 5 
" clip-path="url(#p8586a03ab0)" style="fill: none; stroke-dasharray: 2.96,1.28; stroke-dashoffset: 0; stroke: var(--grid-color); stroke-width: 0.8"/>
     </g>
     <g id="line2d_4">
      <g>
       <use xlink:href="#m78461305be" x="126.022656" y="103.4" style="fill: var(--fg-color); stroke: var(--fg-color); stroke-width: 0.8"/>
      </g>
     </g>
     <g id="text_2">
      <text style="font-size: 7px; font-family: 'DejaVu Sans', 'Bitstream Vera Sans', 'Computer Modern Sans Serif', 'Lucida Grande', 'Verdana', 'Geneva', 'Lucid', 'Arial', 'Helvetica', 'Avant Garde', sans-serif; text-anchor: middle; fill: var(--fg-color)" x="126.022656" y="115.718359" transform="rotate(-0 126.022656 115.718359)">04/2026</text>
     </g>
    </g>
    <g id="xtick_3">
     <g id="line2d_5">
      <path d="M 182.913681 103.4 
L 182.913681 5 
" clip-path="url(#p8586a03ab0)" style="fill: none; stroke-dasharray: 2.96,1.28; stroke-dashoffset: 0; stroke: var(--grid-color); stroke-width: 0.8"/>
     </g>
     <g id="line2d_6">
      <g>
       <use xlink:href="#m78461305be" x="182.913681" y="103.4" style="fill: var(--fg-color); stroke: var(--fg-color); stroke-width: 0.8"/>
      </g>
     </g>
     <g id="text_3">
      <text style="font-size: 7px; font-family: 'DejaVu Sans', 'Bitstream Vera Sans', 'Computer Modern Sans Serif', 'Lucida Grande', 'Verdana', 'Geneva', 'Lucid', 'Arial', 'Helvetica', 'Avant Garde', sans-serif; text-anchor: middle; fill: var(--fg-color)" x="182.913681" y="115.718359" transform="rotate(-0 182.913681 115.718359)">06/2026</text>
     </g>
    </g>
   </g>
   <g id="matplotlib.axis_2">
    <g id="ytick_1">
     <g id="line2d_7">
      <path d="M 35.96 99.896977 
L 211 99.896977 
" clip-path="url(#p8586a03ab0)" style="fill: none; stroke-dasharray: 2.96,1.28; stroke-dashoffset: 0; stroke: var(--grid-color); stroke-width: 0.8"/>
     </g>
     <g id="line2d_8">
      <defs>
       <path id="m4ba5a440d2" d="M 0 0 
L -3.5 0 
" style="stroke: var(--fg-color); stroke-width: 0.8"/>
      </defs>
      <g>
       <use xlink:href="#m4ba5a440d2" x="35.96" y="99.896977" style="fill: var(--fg-color); stroke: var(--fg-color); stroke-width: 0.8"/>
      </g>
     </g>
     <g id="text_4">
      <text style="font-size: 7px; font-family: 'DejaVu Sans', 'Bitstream Vera Sans', 'Computer Modern Sans Serif', 'Lucida Grande', 'Verdana', 'Geneva', 'Lucid', 'Arial', 'Helvetica', 'Avant Garde', sans-serif; text-anchor: end; fill: var(--fg-color)" x="28.96" y="102.556157" transform="rotate(-0 28.96 102.556157)">0</text>
     </g>
    </g>
    <g id="ytick_2">
     <g id="line2d_9">
      <path d="M 35.96 74.072619 
L 211 74.072619 
" clip-path="url(#p8586a03ab0)" style="fill: none; stroke-dasharray: 2.96,1.28; stroke-dashoffset: 0; stroke: var(--grid-color); stroke-width: 0.8"/>
     </g>
     <g id="line2d_10">
      <g>
       <use xlink:href="#m4ba5a440d2" x="35.96" y="74.072619" style="fill: var(--fg-color); stroke: var(--fg-color); stroke-width: 0.8"/>
      </g>
     </g>
     <g id="text_5">
      <text style="font-size: 7px; font-family: 'DejaVu Sans', 'Bitstream Vera Sans', 'Computer Modern Sans Serif', 'Lucida Grande', 'Verdana', 'Geneva', 'Lucid', 'Arial', 'Helvetica', 'Avant Garde', sans-serif; text-anchor: end; fill: var(--fg-color)" x="28.96" y="76.731798" transform="rotate(-0 28.96 76.731798)">200</text>
     </g>
    </g>
    <g id="ytick_3">
     <g id="line2d_11">
      <path d="M 35.96 48.24826 
L 211 48.24826 
" clip-path="url(#p8586a03ab0)" style="fill: none; stroke-dasharray: 2.96,1.28; stroke-dashoffset: 0; stroke: var(--grid-color); stroke-width: 0.8"/>
     </g>
     <g id="line2d_12">
      <g>
       <use xlink:href="#m4ba5a440d2" x="35.96" y="48.24826" style="fill: var(--fg-color); stroke: var(--fg-color); stroke-width: 0.8"/>
      </g>
     </g>
     <g id="text_6">
      <text style="font-size: 7px; font-family: 'DejaVu Sans', 'Bitstream Vera Sans', 'Computer Modern Sans Serif', 'Lucida Grande', 'Verdana', 'Geneva', 'Lucid', 'Arial', 'Helvetica', 'Avant Garde', sans-serif; text-anchor: end; fill: var(--fg-color)" x="28.96" y="50.90744" transform="rotate(-0 28.96 50.90744)">400</text>
     </g>
    </g>
    <g id="ytick_4">
     <g id="line2d_13">
      <path d="M 35.96 22.423901 
L 211 22.423901 
" clip-path="url(#p8586a03ab0)" style="fill: none; stroke-dasharray: 2.96,1.28; stroke-dashoffset: 0; stroke: var(--grid-color); stroke-width: 0.8"/>
     </g>
     <g id="line2d_14">
      <g>
       <use xlink:href="#m4ba5a440d2" x="35.96" y="22.423901" style="fill: var(--fg-color); stroke: var(--fg-color); stroke-width: 0.8"/>
      </g>
     </g>
     <g id="text_7">
      <text style="font-size: 7px; font-family: 'DejaVu Sans', 'Bitstream Vera Sans', 'Computer Modern Sans Serif', 'Lucida Grande', 'Verdana', 'Geneva', 'Lucid', 'Arial', 'Helvetica', 'Avant Garde', sans-serif; text-anchor: end; fill: var(--fg-color)" x="28.96" y="25.083081" transform="rotate(-0 28.96 25.083081)">600</text>
     </g>
    </g>
    <g id="text_8">
     <text style="font-size: 7px; font-family: 'DejaVu Sans', 'Bitstream Vera Sans', 'Computer Modern Sans Serif', 'Lucida Grande', 'Verdana', 'Geneva', 'Lucid', 'Arial', 'Helvetica', 'Avant Garde', sans-serif; text-anchor: middle; fill: var(--fg-color)" x="9.917109" y="54.2" transform="rotate(-90 9.917109 54.2)">ms</text>
    </g>
   </g>
   <g id="line2d_15">
    <path d="M 43.916364 83.160469 
L 44.494523 87.940558 
L 45.427166 87.550481 
L 46.359808 85.071084 
L 47.292453 88.20629 
L 48.22509 86.494006 
L 49.157727 86.629842 
L 50.090359 87.788969 
L 51.023007 88.695791 
L 51.95565 86.811646 
L 52.88829 87.822282 
L 53.82093 86.142795 
L 54.753566 86.410852 
L 55.686208 85.379039 
L 56.618849 85.184711 
L 57.551483 86.534292 
L 58.484126 88.37389 
L 59.416765 86.694661 
L 60.349406 86.454753 
L 61.282045 86.961944 
L 62.214684 87.423812 
L 63.147327 83.991238 
L 64.07996 89.542701 
L 65.012598 88.340835 
L 65.945245 87.201852 
L 66.877884 87.240717 
L 67.810526 87.209728 
L 68.743162 85.804754 
L 69.675784 86.528998 
L 70.608443 86.974727 
L 71.541078 88.660541 
L 72.473724 84.775137 
L 73.406361 85.701715 
L 74.339003 89.160113 
L 75.271637 88.398682 
L 76.204286 89.051263 
L 77.136912 87.755268 
L 78.069558 86.995773 
L 79.002199 87.332007 
L 79.934841 83.979488 
L 80.867465 86.802091 
L 81.800118 85.626049 
L 82.732742 86.264944 
L 83.665398 88.636137 
L 84.598038 87.285523 
L 85.53068 87.282036 
L 86.463316 88.265041 
L 87.395962 87.558874 
L 96.913595 36.610125 
L 97.655282 86.936507 
L 98.587939 88.009896 
L 99.520578 85.269932 
L 100.453222 86.969303 
L 101.385859 84.83053 
L 102.318497 86.822492 
L 103.251135 87.246657 
L 104.183773 88.252128 
L 105.116412 85.831611 
L 106.049054 84.47919 
L 106.981691 88.193507 
L 107.914333 86.074231 
L 108.846974 86.652568 
L 109.779613 87.238522 
L 110.71225 85.722245 
L 111.644893 87.625759 
L 112.57753 86.094632 
L 113.510173 86.769681 
L 114.442814 85.440889 
L 115.37545 86.252936 
L 116.308095 85.774281 
L 117.240726 87.445634 
L 118.173367 87.749457 
L 119.106014 85.850463 
L 120.038653 88.009896 
L 120.971293 85.42888 
L 121.903926 87.03451 
L 122.836569 87.535373 
L 123.769209 86.980795 
L 124.701847 86.542169 
L 125.634489 87.211019 
L 129.365046 81.680991 
L 130.297692 87.804334 
L 131.230328 87.249498 
L 132.162968 86.507306 
L 133.095609 86.675293 
L 134.028248 84.512503 
L 134.960891 79.045615 
L 135.893512 88.153609 
L 136.826165 87.622918 
L 137.75881 86.175463 
L 138.691446 86.977567 
L 139.624089 84.952808 
L 140.556726 87.223673 
L 141.489366 84.173687 
L 142.422003 87.041353 
L 143.354646 84.94222 
L 144.287298 86.539715 
L 145.219926 87.006491 
L 146.152567 86.974856 
L 147.085204 84.558341 
L 148.017844 87.605874 
L 148.950485 86.008121 
L 149.883123 86.958328 
L 150.815765 86.353651 
L 151.7484 87.064466 
L 179.727656 87.064466 
L 188.43171 86.682911 
L 189.054038 30.600926 
L 189.986678 83.915315 
L 190.919315 85.359542 
L 191.851955 17.766866 
L 192.7846 86.128979 
L 193.717237 88.247609 
L 194.649875 26.721462 
L 195.582513 87.112241 
L 196.515156 87.295594 
L 197.447798 45.46788 
L 198.380437 86.965301 
L 199.313081 9.472727 
L 200.245713 86.949935 
L 201.178356 86.2244 
L 202.110995 85.312283 
L 203.043636 82.649534 
" clip-path="url(#p8586a03ab0)" style="fill: none; stroke: #339af0; stroke-width: 1.2; stroke-linecap: square"/>
   </g>
   <g id="line2d_16">
    <path d="M 43.916364 98.130591 
L 44.494523 98.673678 
L 45.427166 98.786013 
L 46.359808 98.559146 
L 47.292453 98.692529 
L 48.22509 98.562633 
L 49.157727 98.838566 
L 50.090359 98.718095 
L 51.023007 98.808222 
L 51.95565 98.690205 
L 52.88829 98.813516 
L 53.82093 98.7292 
L 54.753566 98.653405 
L 55.686208 98.642817 
L 56.618849 98.661798 
L 57.551483 98.489808 
L 58.484126 98.79531 
L 59.416765 98.674452 
L 60.349406 98.767162 
L 61.282045 98.638169 
L 62.214684 98.827591 
L 63.147327 98.539649 
L 64.07996 98.872654 
L 65.012598 98.871363 
L 65.945245 98.786401 
L 66.877884 98.728813 
L 67.810526 98.470956 
L 68.743162 98.683103 
L 69.675784 98.773489 
L 70.608443 98.64837 
L 71.541078 98.719387 
L 72.473724 98.572317 
L 73.406361 98.491358 
L 74.339003 98.893314 
L 75.271637 98.831206 
L 76.204286 98.927273 
L 77.136912 98.858063 
L 78.069558 98.678455 
L 79.002199 98.564053 
L 79.934841 98.294318 
L 80.867465 98.581097 
L 81.800118 98.622287 
L 82.732742 98.323887 
L 83.665398 98.848379 
L 84.598038 98.488259 
L 85.53068 98.836629 
L 86.463316 98.668384 
L 87.395962 98.690851 
L 96.913595 96.355425 
L 97.655282 98.778783 
L 98.587939 98.855094 
L 99.520578 98.509564 
L 100.453222 98.771294 
L 101.385859 98.575803 
L 102.318497 98.746631 
L 103.251135 98.755282 
L 104.183773 98.792728 
L 105.116412 98.48077 
L 106.049054 98.548559 
L 106.981691 98.647853 
L 107.914333 98.407299 
L 108.846974 98.314332 
L 109.779613 98.782011 
L 110.71225 98.781107 
L 111.644893 98.726747 
L 112.57753 98.546493 
L 113.510173 98.707637 
L 114.442814 98.512146 
L 115.37545 98.48219 
L 116.308095 98.600336 
L 117.240726 98.60718 
L 118.173367 98.788338 
L 119.106014 98.633908 
L 120.038653 98.739013 
L 120.971293 98.649274 
L 121.903926 98.602919 
L 122.836569 98.700535 
L 123.769209 98.744824 
L 124.701847 98.532677 
L 125.634489 98.459852 
L 129.365046 98.349969 
L 130.297692 98.553078 
L 131.230328 98.562762 
L 132.162968 98.504915 
L 133.095609 98.577482 
L 134.028248 98.137564 
L 134.960891 96.959973 
L 135.893512 98.779299 
L 136.826165 98.530094 
L 137.75881 98.673936 
L 138.691446 98.575932 
L 139.624089 98.410011 
L 140.556726 98.594139 
L 141.489366 98.090434 
L 142.422003 98.648111 
L 143.354646 98.590265 
L 144.287298 98.59388 
L 145.219926 98.545847 
L 146.152567 98.362752 
L 147.085204 98.365722 
L 148.017844 98.741983 
L 148.950485 98.333571 
L 149.883123 98.575287 
L 150.815765 98.406008 
L 151.7484 98.619446 
L 179.727656 98.619446 
L 188.43171 98.120649 
L 189.054038 94.415499 
L 189.986678 98.624482 
L 190.919315 98.653922 
L 191.851955 94.352617 
L 192.7846 98.481286 
L 193.717237 98.815324 
L 194.649875 94.939863 
L 195.582513 98.839986 
L 196.515156 98.659732 
L 197.447798 95.521298 
L 198.380437 98.763675 
L 199.313081 94.267784 
L 200.245713 98.747148 
L 201.178356 98.63507 
L 202.110995 98.444745 
L 203.043636 98.581614 
" clip-path="url(#p8586a03ab0)" style="fill: none; stroke: #ff6b6b; stroke-width: 1.2; stroke-linecap: square"/>
   </g>
   <g id="patch_3">
    <path d="M 35.96 103.4 
L 35.96 5 
" style="fill: none; stroke: var(--fg-color); stroke-width: 0.8; stroke-linejoin: miter; stroke-linecap: square"/>
   </g>
   <g id="patch_4">
    <path d="M 35.96 103.4 
L 211 103.4 
" style="fill: none; stroke: var(--fg-color); stroke-width: 0.8; stroke-linejoin: miter; stroke-linecap: square"/>
   </g>
  </g>
 </g>
 <defs>
  <clipPath id="p8586a03ab0">
   <rect x="35.96" y="5" width="175.04" height="98.4"/>
  </clipPath>
 </defs>
</svg>
