<?xml version="1.0" encoding="utf-8" standalone="no"?>
<!DOCTYPE svg PUBLIC "-//W3C//DTD SVG 1.1//EN"
  "http://www.w3.org/Graphics/SVG/1.1/DTD/svg11.dtd">
<svg xmlns:xlink="http://www.w3.org/1999/xlink" width="216pt" height="122.4pt" viewBox="0 0 216 122.4" xmlns="http://www.w3.org/2000/svg" version="1.1">
  <style>
    :root {
      --fg-color: #212529;
      --grid-color: rgba(33, 37, 41, 0.1);
    }
    @media (prefers-color-scheme: dark) {
      :root {
        --fg-color: #dee2e6;
        --grid-color: rgba(248, 249, 250, 0.15);
      }
    }
  </style>

 <metadata>
  <rdf:RDF xmlns:dc="http://purl.org/dc/elements/1.1/" xmlns:cc="http://creativecommons.org/ns#" xmlns:rdf="http://www.w3.org/1999/02/22-rdf-syntax-ns#">
   <cc:Work>
    <dc:type rdf:resource="http://purl.org/dc/dcmitype/StillImage"/>
    <dc:date>2026-06-30T04:48:57.441062</dc:date>
    <dc:format>image/svg+xml</dc:format>
    <dc:creator>
     <cc:Agent>
      <dc:title>Matplotlib v3.11.0, https://matplotlib.org/</dc:title>
     </cc:Agent>
    </dc:creator>
   </cc:Work>
  </rdf:RDF>
 </metadata>
 <defs>
  <style type="text/css">*{stroke-linejoin: round; stroke-linecap: butt}</style>
 </defs>
 <g id="figure_1">
  <g id="patch_1">
   <path d="M 0 122.4 
L 216 122.4 
L 216 0 
L 0 0 
L 0 122.4 
z
" style="fill: none; opacity: 0"/>
  </g>
  <g id="axes_1">
   <g id="patch_2">
    <path d="M 35.96 103.4 
L 211 103.4 
L 211 6.174538 
L 35.96 6.174538 
L 35.96 103.4 
z
" style="fill: none; opacity: 0"/>
   </g>
   <g id="matplotlib.axis_1">
    <g id="xtick_1">
     <g id="line2d_1">
      <path d="M 70.996911 103.4 
L 70.996911 6.174538 
" clip-path="url(#p7273ab095a)" style="fill: none; stroke-dasharray: 2.96,1.28; stroke-dashoffset: 0; stroke: var(--grid-color); stroke-width: 0.8"/>
     </g>
     <g id="line2d_2">
      <defs>
       <path id="m1d5e6ea8db" d="M 0 0 
L 0 3.5 
" style="stroke: var(--fg-color); stroke-width: 0.8"/>
      </defs>
      <g>
       <use xlink:href="#m1d5e6ea8db" x="70.996911" y="103.4" style="fill: var(--fg-color); stroke: var(--fg-color); stroke-width: 0.8"/>
      </g>
     </g>
     <g id="text_1">
      <text style="font-size: 7px; font-family: 'DejaVu Sans', 'Bitstream Vera Sans', 'Computer Modern Sans Serif', 'Lucida Grande', 'Verdana', 'Geneva', 'Lucid', 'Arial', 'Helvetica', 'Avant Garde', sans-serif; text-anchor: middle; fill: var(--fg-color)" x="70.996911" y="115.718359" transform="rotate(-0 70.996911 115.718359)">02/2026</text>
     </g>
    </g>
    <g id="xtick_2">
     <g id="line2d_3">
      <path d="M 126.022656 103.4 
L 126.022656 6.174538 
" clip-path="url(#p7273ab095a)" style="fill: none; stroke-dasharray: 2.96,1.28; stroke-dashoffset: 0; stroke: var(--grid-color); stroke-width: 0.8"/>
     </g>
     <g id="line2d_4">
      <g>
       <use xlink:href="#m1d5e6ea8db" x="126.022656" y="103.4" style="fill: var(--fg-color); stroke: var(--fg-color); stroke-width: 0.8"/>
      </g>
     </g>
     <g id="text_2">
      <text style="font-size: 7px; font-family: 'DejaVu Sans', 'Bitstream Vera Sans', 'Computer Modern Sans Serif', 'Lucida Grande', 'Verdana', 'Geneva', 'Lucid', 'Arial', 'Helvetica', 'Avant Garde', sans-serif; text-anchor: middle; fill: var(--fg-color)" x="126.022656" y="115.718359" transform="rotate(-0 126.022656 115.718359)">04/2026</text>
     </g>
    </g>
    <g id="xtick_3">
     <g id="line2d_5">
      <path d="M 182.913681 103.4 
L 182.913681 6.174538 
" clip-path="url(#p7273ab095a)" style="fill: none; stroke-dasharray: 2.96,1.28; stroke-dashoffset: 0; stroke: var(--grid-color); stroke-width: 0.8"/>
     </g>
     <g id="line2d_6">
      <g>
       <use xlink:href="#m1d5e6ea8db" x="182.913681" y="103.4" style="fill: var(--fg-color); stroke: var(--fg-color); stroke-width: 0.8"/>
      </g>
     </g>
     <g id="text_3">
      <text style="font-size: 7px; font-family: 'DejaVu Sans', 'Bitstream Vera Sans', 'Computer Modern Sans Serif', 'Lucida Grande', 'Verdana', 'Geneva', 'Lucid', 'Arial', 'Helvetica', 'Avant Garde', sans-serif; text-anchor: middle; fill: var(--fg-color)" x="182.913681" y="115.718359" transform="rotate(-0 182.913681 115.718359)">06/2026</text>
     </g>
    </g>
   </g>
   <g id="matplotlib.axis_2">
    <g id="ytick_1">
     <g id="line2d_7">
      <path d="M 35.96 100.62098 
L 211 100.62098 
" clip-path="url(#p7273ab095a)" style="fill: none; stroke-dasharray: 2.96,1.28; stroke-dashoffset: 0; stroke: var(--grid-color); stroke-width: 0.8"/>
     </g>
     <g id="line2d_8">
      <defs>
       <path id="m86cc7b0dba" d="M 0 0 
L -3.5 0 
" style="stroke: var(--fg-color); stroke-width: 0.8"/>
      </defs>
      <g>
       <use xlink:href="#m86cc7b0dba" x="35.96" y="100.62098" style="fill: var(--fg-color); stroke: var(--fg-color); stroke-width: 0.8"/>
      </g>
     </g>
     <g id="text_4">
      <text style="font-size: 7px; font-family: 'DejaVu Sans', 'Bitstream Vera Sans', 'Computer Modern Sans Serif', 'Lucida Grande', 'Verdana', 'Geneva', 'Lucid', 'Arial', 'Helvetica', 'Avant Garde', sans-serif; text-anchor: end; fill: var(--fg-color)" x="28.96" y="103.28016" transform="rotate(-0 28.96 103.28016)">0</text>
     </g>
    </g>
    <g id="ytick_2">
     <g id="line2d_9">
      <path d="M 35.96 82.038001 
L 211 82.038001 
" clip-path="url(#p7273ab095a)" style="fill: none; stroke-dasharray: 2.96,1.28; stroke-dashoffset: 0; stroke: var(--grid-color); stroke-width: 0.8"/>
     </g>
     <g id="line2d_10">
      <g>
       <use xlink:href="#m86cc7b0dba" x="35.96" y="82.038001" style="fill: var(--fg-color); stroke: var(--fg-color); stroke-width: 0.8"/>
      </g>
     </g>
     <g id="text_5">
      <text style="font-size: 7px; font-family: 'DejaVu Sans', 'Bitstream Vera Sans', 'Computer Modern Sans Serif', 'Lucida Grande', 'Verdana', 'Geneva', 'Lucid', 'Arial', 'Helvetica', 'Avant Garde', sans-serif; text-anchor: end; fill: var(--fg-color)" x="28.96" y="84.69718" transform="rotate(-0 28.96 84.69718)">100</text>
     </g>
    </g>
    <g id="ytick_3">
     <g id="line2d_11">
      <path d="M 35.96 63.455021 
L 211 63.455021 
" clip-path="url(#p7273ab095a)" style="fill: none; stroke-dasharray: 2.96,1.28; stroke-dashoffset: 0; stroke: var(--grid-color); stroke-width: 0.8"/>
     </g>
     <g id="line2d_12">
      <g>
       <use xlink:href="#m86cc7b0dba" x="35.96" y="63.455021" style="fill: var(--fg-color); stroke: var(--fg-color); stroke-width: 0.8"/>
      </g>
     </g>
     <g id="text_6">
      <text style="font-size: 7px; font-family: 'DejaVu Sans', 'Bitstream Vera Sans', 'Computer Modern Sans Serif', 'Lucida Grande', 'Verdana', 'Geneva', 'Lucid', 'Arial', 'Helvetica', 'Avant Garde', sans-serif; text-anchor: end; fill: var(--fg-color)" x="28.96" y="66.114201" transform="rotate(-0 28.96 66.114201)">200</text>
     </g>
    </g>
    <g id="ytick_4">
     <g id="line2d_13">
      <path d="M 35.96 44.872041 
L 211 44.872041 
" clip-path="url(#p7273ab095a)" style="fill: none; stroke-dasharray: 2.96,1.28; stroke-dashoffset: 0; stroke: var(--grid-color); stroke-width: 0.8"/>
     </g>
     <g id="line2d_14">
      <g>
       <use xlink:href="#m86cc7b0dba" x="35.96" y="44.872041" style="fill: var(--fg-color); stroke: var(--fg-color); stroke-width: 0.8"/>
      </g>
     </g>
     <g id="text_7">
      <text style="font-size: 7px; font-family: 'DejaVu Sans', 'Bitstream Vera Sans', 'Computer Modern Sans Serif', 'Lucida Grande', 'Verdana', 'Geneva', 'Lucid', 'Arial', 'Helvetica', 'Avant Garde', sans-serif; text-anchor: end; fill: var(--fg-color)" x="28.96" y="47.531221" transform="rotate(-0 28.96 47.531221)">300</text>
     </g>
    </g>
    <g id="ytick_5">
     <g id="line2d_15">
      <path d="M 35.96 26.289062 
L 211 26.289062 
" clip-path="url(#p7273ab095a)" style="fill: none; stroke-dasharray: 2.96,1.28; stroke-dashoffset: 0; stroke: var(--grid-color); stroke-width: 0.8"/>
     </g>
     <g id="line2d_16">
      <g>
       <use xlink:href="#m86cc7b0dba" x="35.96" y="26.289062" style="fill: var(--fg-color); stroke: var(--fg-color); stroke-width: 0.8"/>
      </g>
     </g>
     <g id="text_8">
      <text style="font-size: 7px; font-family: 'DejaVu Sans', 'Bitstream Vera Sans', 'Computer Modern Sans Serif', 'Lucida Grande', 'Verdana', 'Geneva', 'Lucid', 'Arial', 'Helvetica', 'Avant Garde', sans-serif; text-anchor: end; fill: var(--fg-color)" x="28.96" y="28.948242" transform="rotate(-0 28.96 28.948242)">400</text>
     </g>
    </g>
    <g id="ytick_6">
     <g id="line2d_17">
      <path d="M 35.96 7.706082 
L 211 7.706082 
" clip-path="url(#p7273ab095a)" style="fill: none; stroke-dasharray: 2.96,1.28; stroke-dashoffset: 0; stroke: var(--grid-color); stroke-width: 0.8"/>
     </g>
     <g id="line2d_18">
      <g>
       <use xlink:href="#m86cc7b0dba" x="35.96" y="7.706082" style="fill: var(--fg-color); stroke: var(--fg-color); stroke-width: 0.8"/>
      </g>
     </g>
     <g id="text_9">
      <text style="font-size: 7px; font-family: 'DejaVu Sans', 'Bitstream Vera Sans', 'Computer Modern Sans Serif', 'Lucida Grande', 'Verdana', 'Geneva', 'Lucid', 'Arial', 'Helvetica', 'Avant Garde', sans-serif; text-anchor: end; fill: var(--fg-color)" x="28.96" y="10.365262" transform="rotate(-0 28.96 10.365262)">500</text>
     </g>
    </g>
    <g id="text_10">
     <text style="font-size: 7px; font-family: 'DejaVu Sans', 'Bitstream Vera Sans', 'Computer Modern Sans Serif', 'Lucida Grande', 'Verdana', 'Geneva', 'Lucid', 'Arial', 'Helvetica', 'Avant Garde', sans-serif; text-anchor: middle; fill: var(--fg-color)" x="9.917109" y="54.787269" transform="rotate(-90 9.917109 54.787269)">ms</text>
    </g>
   </g>
   <g id="line2d_19">
    <path d="M 43.916364 42.789819 
L 44.494523 50.911324 
L 45.427166 41.460764 
L 46.359808 41.46764 
L 47.292453 32.152178 
L 48.22509 44.258617 
L 49.157727 40.247295 
L 50.090359 44.319755 
L 51.023007 46.773266 
L 51.95565 37.410232 
L 52.88829 28.240832 
L 53.82093 41.846547 
L 54.753566 49.063618 
L 55.686208 33.675425 
L 56.618849 45.089648 
L 57.551483 39.283025 
L 58.484126 38.718659 
L 59.416765 44.041568 
L 60.349406 34.034819 
L 61.282045 46.482628 
L 62.214684 42.338066 
L 63.147327 39.541328 
L 64.07996 50.383753 
L 65.012598 48.292611 
L 65.945245 44.392229 
L 66.877884 24.380404 
L 67.810526 41.952841 
L 68.743162 41.204876 
L 69.675784 44.004588 
L 70.608443 36.338551 
L 71.541078 43.44078 
L 72.473724 35.518484 
L 73.406361 38.480611 
L 74.339003 51.47253 
L 75.271637 43.082501 
L 76.204286 41.672052 
L 77.136912 43.526448 
L 78.069558 52.748995 
L 79.002199 38.114155 
L 79.934841 31.495827 
L 80.867465 43.576808 
L 81.800118 36.980407 
L 82.732742 47.888988 
L 83.665398 31.723283 
L 84.598038 30.193346 
L 85.53068 44.24022 
L 86.463316 40.099746 
L 87.395962 28.830098 
L 96.913595 39.115964 
L 97.655282 38.59341 
L 98.587939 28.555628 
L 99.520578 47.035658 
L 100.453222 28.051843 
L 101.385859 34.06734 
L 102.318497 40.185971 
L 103.251135 49.698041 
L 104.183773 51.125214 
L 105.116412 45.344607 
L 106.049054 51.401171 
L 106.981691 40.682509 
L 107.914333 50.894042 
L 108.846974 19.00602 
L 109.779613 33.659072 
L 110.71225 49.492142 
L 111.644893 47.707247 
L 112.57753 48.24987 
L 113.510173 38.175293 
L 114.442814 44.524726 
L 115.37545 36.414927 
L 116.308095 49.313931 
L 117.240726 51.703331 
L 118.173367 34.338651 
L 119.106014 43.296205 
L 120.038653 25.534407 
L 120.971293 30.863448 
L 121.903926 43.12041 
L 122.836569 37.533065 
L 123.769209 44.547768 
L 124.701847 33.685645 
L 125.634489 37.361544 
L 129.365046 30.720173 
L 130.297692 36.943799 
L 131.230328 28.686638 
L 132.162968 29.835809 
L 133.095609 33.286297 
L 134.028248 28.957206 
L 134.960891 29.445009 
L 135.893512 27.200371 
L 136.826165 45.735593 
L 137.75881 51.003681 
L 138.691446 38.210415 
L 139.624089 41.22253 
L 140.556726 28.022482 
L 141.489366 31.072878 
L 142.422003 37.427886 
L 143.354646 49.327311 
L 144.287298 33.106042 
L 145.219926 36.225567 
L 146.152567 14.826522 
L 147.085204 25.582723 
L 148.017844 29.786007 
L 148.950485 40.447434 
L 149.883123 35.068776 
L 150.815765 31.865442 
L 151.7484 43.710791 
L 179.727656 43.710791 
L 188.43171 38.054504 
L 189.054038 41.00641 
L 189.986678 11.853617 
L 190.919315 36.216647 
L 191.851955 37.143938 
L 192.7846 29.281479 
L 193.717237 21.67528 
L 194.649875 18.431806 
L 195.582513 35.213538 
L 196.515156 28.265362 
L 197.447798 10.853667 
L 198.380437 42.735928 
L 199.313081 10.593877 
L 200.245713 31.366304 
L 201.178356 13.760789 
L 202.110995 24.260544 
L 203.043636 47.496702 
" clip-path="url(#p7273ab095a)" style="fill: none; stroke: #339af0; stroke-width: 1.2; stroke-linecap: square"/>
   </g>
   <g id="line2d_20">
    <path d="M 43.916364 98.591719 
L 44.494523 98.129375 
L 45.427166 98.006727 
L 46.359808 97.355208 
L 47.292453 98.550465 
L 48.22509 98.744099 
L 49.157727 98.258155 
L 50.090359 98.068794 
L 51.023007 98.090908 
L 51.95565 98.172859 
L 52.88829 96.961992 
L 53.82093 98.254438 
L 54.753566 98.577782 
L 55.686208 98.385262 
L 56.618849 98.260942 
L 57.551483 97.78912 
L 58.484126 97.468006 
L 59.416765 98.268004 
L 60.349406 98.07121 
L 61.282045 98.770301 
L 62.214684 98.1238 
L 63.147327 97.930537 
L 64.07996 98.170815 
L 65.012598 98.60417 
L 65.945245 98.108747 
L 66.877884 98.220989 
L 67.810526 98.328956 
L 68.743162 98.116181 
L 69.675784 98.670325 
L 70.608443 98.333416 
L 71.541078 98.072882 
L 72.473724 97.84171 
L 73.406361 98.643008 
L 74.339003 97.322873 
L 75.271637 98.409792 
L 76.204286 98.576853 
L 77.136912 97.647332 
L 78.069558 98.385448 
L 79.002199 98.38489 
L 79.934841 98.411092 
L 80.867465 98.690395 
L 81.800118 97.77221 
L 82.732742 98.567933 
L 83.665398 97.771095 
L 84.598038 98.669582 
L 85.53068 97.949491 
L 86.463316 98.980661 
L 87.395962 97.866425 
L 96.913595 98.786283 
L 97.655282 97.991117 
L 98.587939 98.617735 
L 99.520578 98.025496 
L 100.453222 98.562544 
L 101.385859 98.906329 
L 102.318497 98.054857 
L 103.251135 97.997993 
L 104.183773 98.459966 
L 105.116412 98.172673 
L 106.049054 98.628885 
L 106.981691 98.314275 
L 107.914333 97.798226 
L 108.846974 97.336996 
L 109.779613 98.298851 
L 110.71225 98.011373 
L 111.644893 98.271906 
L 112.57753 98.43302 
L 113.510173 98.039619 
L 114.442814 98.006727 
L 115.37545 98.588188 
L 116.308095 98.061918 
L 117.240726 98.259641 
L 118.173367 98.473345 
L 119.106014 97.589539 
L 120.038653 97.751954 
L 120.971293 97.85063 
L 121.903926 98.02754 
L 122.836569 98.678316 
L 123.769209 98.497318 
L 124.701847 98.612532 
L 125.634489 98.2628 
L 129.365046 97.573372 
L 130.297692 98.05783 
L 131.230328 98.33992 
L 132.162968 97.756414 
L 133.095609 98.919709 
L 134.028248 97.563523 
L 134.960891 98.037575 
L 135.893512 97.94819 
L 136.826165 98.572393 
L 137.75881 98.853367 
L 138.691446 97.663313 
L 139.624089 97.980153 
L 140.556726 97.872744 
L 141.489366 97.790049 
L 142.422003 97.464661 
L 143.354646 98.751347 
L 144.287298 98.493601 
L 145.219926 97.914741 
L 146.152567 98.268561 
L 147.085204 97.483802 
L 148.017844 98.51014 
L 148.950485 98.535598 
L 149.883123 98.404588 
L 150.815765 98.1474 
L 151.7484 98.490999 
L 179.727656 98.490999 
L 188.43171 98.008213 
L 189.054038 98.628328 
L 189.986678 97.70401 
L 190.919315 96.630657 
L 191.851955 97.76552 
L 192.7846 97.399807 
L 193.717237 97.848586 
L 194.649875 98.918222 
L 195.582513 97.878876 
L 196.515156 98.30071 
L 197.447798 98.495831 
L 198.380437 97.510375 
L 199.313081 98.076041 
L 200.245713 97.997807 
L 201.178356 97.771838 
L 202.110995 98.189212 
L 203.043636 97.563709 
" clip-path="url(#p7273ab095a)" style="fill: none; stroke: #ff6b6b; stroke-width: 1.2; stroke-linecap: square"/>
   </g>
   <g id="patch_3">
    <path d="M 35.96 103.4 
L 35.96 6.174538 
" style="fill: none; stroke: var(--fg-color); stroke-width: 0.8; stroke-linejoin: miter; stroke-linecap: square"/>
   </g>
   <g id="patch_4">
    <path d="M 35.96 103.4 
L 211 103.4 
" style="fill: none; stroke: var(--fg-color); stroke-width: 0.8; stroke-linejoin: miter; stroke-linecap: square"/>
   </g>
  </g>
 </g>
 <defs>
  <clipPath id="p7273ab095a">
   <rect x="35.96" y="6.174538" width="175.04" height="97.225462"/>
  </clipPath>
 </defs>
</svg>
