<?xml version="1.0" encoding="utf-8" standalone="no"?>
<!DOCTYPE svg PUBLIC "-//W3C//DTD SVG 1.1//EN"
  "http://www.w3.org/Graphics/SVG/1.1/DTD/svg11.dtd">
<svg xmlns:xlink="http://www.w3.org/1999/xlink" width="216pt" height="122.4pt" viewBox="0 0 216 122.4" xmlns="http://www.w3.org/2000/svg" version="1.1">
  <style>
    :root {
      --fg-color: #212529;
      --grid-color: rgba(33, 37, 41, 0.1);
    }
    @media (prefers-color-scheme: dark) {
      :root {
        --fg-color: #dee2e6;
        --grid-color: rgba(248, 249, 250, 0.15);
      }
    }
  </style>

 <metadata>
  <rdf:RDF xmlns:dc="http://purl.org/dc/elements/1.1/" xmlns:cc="http://creativecommons.org/ns#" xmlns:rdf="http://www.w3.org/1999/02/22-rdf-syntax-ns#">
   <cc:Work>
    <dc:type rdf:resource="http://purl.org/dc/dcmitype/StillImage"/>
    <dc:date>2026-06-30T15:37:39.472867</dc:date>
    <dc:format>image/svg+xml</dc:format>
    <dc:creator>
     <cc:Agent>
      <dc:title>Matplotlib v3.11.0, https://matplotlib.org/</dc:title>
     </cc:Agent>
    </dc:creator>
   </cc:Work>
  </rdf:RDF>
 </metadata>
 <defs>
  <style type="text/css">*{stroke-linejoin: round; stroke-linecap: butt}</style>
 </defs>
 <g id="figure_1">
  <g id="patch_1">
   <path d="M 0 122.4 
L 216 122.4 
L 216 0 
L 0 0 
L 0 122.4 
z
" style="fill: none; opacity: 0"/>
  </g>
  <g id="axes_1">
   <g id="patch_2">
    <path d="M 35.96 103.4 
L 211 103.4 
L 211 5 
L 35.96 5 
L 35.96 103.4 
z
" style="fill: none; opacity: 0"/>
   </g>
   <g id="matplotlib.axis_1">
    <g id="xtick_1">
     <g id="line2d_1">
      <path d="M 69.784035 103.4 
L 69.784035 5 
" clip-path="url(#p06776f4b58)" style="fill: none; stroke-dasharray: 2.96,1.28; stroke-dashoffset: 0; stroke: var(--grid-color); stroke-width: 0.8"/>
     </g>
     <g id="line2d_2">
      <defs>
       <path id="m2ec8644a7d" d="M 0 0 
L 0 3.5 
" style="stroke: var(--fg-color); stroke-width: 0.8"/>
      </defs>
      <g>
       <use xlink:href="#m2ec8644a7d" x="69.784035" y="103.4" style="fill: var(--fg-color); stroke: var(--fg-color); stroke-width: 0.8"/>
      </g>
     </g>
     <g id="text_1">
      <text style="font-size: 7px; font-family: 'DejaVu Sans', 'Bitstream Vera Sans', 'Computer Modern Sans Serif', 'Lucida Grande', 'Verdana', 'Geneva', 'Lucid', 'Arial', 'Helvetica', 'Avant Garde', sans-serif; text-anchor: middle; fill: var(--fg-color)" x="69.784035" y="115.718359" transform="rotate(-0 69.784035 115.718359)">02/2026</text>
     </g>
    </g>
    <g id="xtick_2">
     <g id="line2d_3">
      <path d="M 122.345302 103.4 
L 122.345302 5 
" clip-path="url(#p06776f4b58)" style="fill: none; stroke-dasharray: 2.96,1.28; stroke-dashoffset: 0; stroke: var(--grid-color); stroke-width: 0.8"/>
     </g>
     <g id="line2d_4">
      <g>
       <use xlink:href="#m2ec8644a7d" x="122.345302" y="103.4" style="fill: var(--fg-color); stroke: var(--fg-color); stroke-width: 0.8"/>
      </g>
     </g>
     <g id="text_2">
      <text style="font-size: 7px; font-family: 'DejaVu Sans', 'Bitstream Vera Sans', 'Computer Modern Sans Serif', 'Lucida Grande', 'Verdana', 'Geneva', 'Lucid', 'Arial', 'Helvetica', 'Avant Garde', sans-serif; text-anchor: middle; fill: var(--fg-color)" x="122.345302" y="115.718359" transform="rotate(-0 122.345302 115.718359)">04/2026</text>
     </g>
    </g>
    <g id="xtick_3">
     <g id="line2d_5">
      <path d="M 176.688307 103.4 
L 176.688307 5 
" clip-path="url(#p06776f4b58)" style="fill: none; stroke-dasharray: 2.96,1.28; stroke-dashoffset: 0; stroke: var(--grid-color); stroke-width: 0.8"/>
     </g>
     <g id="line2d_6">
      <g>
       <use xlink:href="#m2ec8644a7d" x="176.688307" y="103.4" style="fill: var(--fg-color); stroke: var(--fg-color); stroke-width: 0.8"/>
      </g>
     </g>
     <g id="text_3">
      <text style="font-size: 7px; font-family: 'DejaVu Sans', 'Bitstream Vera Sans', 'Computer Modern Sans Serif', 'Lucida Grande', 'Verdana', 'Geneva', 'Lucid', 'Arial', 'Helvetica', 'Avant Garde', sans-serif; text-anchor: middle; fill: var(--fg-color)" x="176.688307" y="115.718359" transform="rotate(-0 176.688307 115.718359)">06/2026</text>
     </g>
    </g>
   </g>
   <g id="matplotlib.axis_2">
    <g id="ytick_1">
     <g id="line2d_7">
      <path d="M 35.96 100.036926 
L 211 100.036926 
" clip-path="url(#p06776f4b58)" style="fill: none; stroke-dasharray: 2.96,1.28; stroke-dashoffset: 0; stroke: var(--grid-color); stroke-width: 0.8"/>
     </g>
     <g id="line2d_8">
      <defs>
       <path id="mc1f40fed1e" d="M 0 0 
L -3.5 0 
" style="stroke: var(--fg-color); stroke-width: 0.8"/>
      </defs>
      <g>
       <use xlink:href="#mc1f40fed1e" x="35.96" y="100.036926" style="fill: var(--fg-color); stroke: var(--fg-color); stroke-width: 0.8"/>
      </g>
     </g>
     <g id="text_4">
      <text style="font-size: 7px; font-family: 'DejaVu Sans', 'Bitstream Vera Sans', 'Computer Modern Sans Serif', 'Lucida Grande', 'Verdana', 'Geneva', 'Lucid', 'Arial', 'Helvetica', 'Avant Garde', sans-serif; text-anchor: end; fill: var(--fg-color)" x="28.96" y="102.696105" transform="rotate(-0 28.96 102.696105)">0</text>
     </g>
    </g>
    <g id="ytick_2">
     <g id="line2d_9">
      <path d="M 35.96 84.001478 
L 211 84.001478 
" clip-path="url(#p06776f4b58)" style="fill: none; stroke-dasharray: 2.96,1.28; stroke-dashoffset: 0; stroke: var(--grid-color); stroke-width: 0.8"/>
     </g>
     <g id="line2d_10">
      <g>
       <use xlink:href="#mc1f40fed1e" x="35.96" y="84.001478" style="fill: var(--fg-color); stroke: var(--fg-color); stroke-width: 0.8"/>
      </g>
     </g>
     <g id="text_5">
      <text style="font-size: 7px; font-family: 'DejaVu Sans', 'Bitstream Vera Sans', 'Computer Modern Sans Serif', 'Lucida Grande', 'Verdana', 'Geneva', 'Lucid', 'Arial', 'Helvetica', 'Avant Garde', sans-serif; text-anchor: end; fill: var(--fg-color)" x="28.96" y="86.660658" transform="rotate(-0 28.96 86.660658)">20</text>
     </g>
    </g>
    <g id="ytick_3">
     <g id="line2d_11">
      <path d="M 35.96 67.966031 
L 211 67.966031 
" clip-path="url(#p06776f4b58)" style="fill: none; stroke-dasharray: 2.96,1.28; stroke-dashoffset: 0; stroke: var(--grid-color); stroke-width: 0.8"/>
     </g>
     <g id="line2d_12">
      <g>
       <use xlink:href="#mc1f40fed1e" x="35.96" y="67.966031" style="fill: var(--fg-color); stroke: var(--fg-color); stroke-width: 0.8"/>
      </g>
     </g>
     <g id="text_6">
      <text style="font-size: 7px; font-family: 'DejaVu Sans', 'Bitstream Vera Sans', 'Computer Modern Sans Serif', 'Lucida Grande', 'Verdana', 'Geneva', 'Lucid', 'Arial', 'Helvetica', 'Avant Garde', sans-serif; text-anchor: end; fill: var(--fg-color)" x="28.96" y="70.62521" transform="rotate(-0 28.96 70.62521)">40</text>
     </g>
    </g>
    <g id="ytick_4">
     <g id="line2d_13">
      <path d="M 35.96 51.930583 
L 211 51.930583 
" clip-path="url(#p06776f4b58)" style="fill: none; stroke-dasharray: 2.96,1.28; stroke-dashoffset: 0; stroke: var(--grid-color); stroke-width: 0.8"/>
     </g>
     <g id="line2d_14">
      <g>
       <use xlink:href="#mc1f40fed1e" x="35.96" y="51.930583" style="fill: var(--fg-color); stroke: var(--fg-color); stroke-width: 0.8"/>
      </g>
     </g>
     <g id="text_7">
      <text style="font-size: 7px; font-family: 'DejaVu Sans', 'Bitstream Vera Sans', 'Computer Modern Sans Serif', 'Lucida Grande', 'Verdana', 'Geneva', 'Lucid', 'Arial', 'Helvetica', 'Avant Garde', sans-serif; text-anchor: end; fill: var(--fg-color)" x="28.96" y="54.589763" transform="rotate(-0 28.96 54.589763)">60</text>
     </g>
    </g>
    <g id="ytick_5">
     <g id="line2d_15">
      <path d="M 35.96 35.895136 
L 211 35.895136 
" clip-path="url(#p06776f4b58)" style="fill: none; stroke-dasharray: 2.96,1.28; stroke-dashoffset: 0; stroke: var(--grid-color); stroke-width: 0.8"/>
     </g>
     <g id="line2d_16">
      <g>
       <use xlink:href="#mc1f40fed1e" x="35.96" y="35.895136" style="fill: var(--fg-color); stroke: var(--fg-color); stroke-width: 0.8"/>
      </g>
     </g>
     <g id="text_8">
      <text style="font-size: 7px; font-family: 'DejaVu Sans', 'Bitstream Vera Sans', 'Computer Modern Sans Serif', 'Lucida Grande', 'Verdana', 'Geneva', 'Lucid', 'Arial', 'Helvetica', 'Avant Garde', sans-serif; text-anchor: end; fill: var(--fg-color)" x="28.96" y="38.554316" transform="rotate(-0 28.96 38.554316)">80</text>
     </g>
    </g>
    <g id="ytick_6">
     <g id="line2d_17">
      <path d="M 35.96 19.859688 
L 211 19.859688 
" clip-path="url(#p06776f4b58)" style="fill: none; stroke-dasharray: 2.96,1.28; stroke-dashoffset: 0; stroke: var(--grid-color); stroke-width: 0.8"/>
     </g>
     <g id="line2d_18">
      <g>
       <use xlink:href="#mc1f40fed1e" x="35.96" y="19.859688" style="fill: var(--fg-color); stroke: var(--fg-color); stroke-width: 0.8"/>
      </g>
     </g>
     <g id="text_9">
      <text style="font-size: 7px; font-family: 'DejaVu Sans', 'Bitstream Vera Sans', 'Computer Modern Sans Serif', 'Lucida Grande', 'Verdana', 'Geneva', 'Lucid', 'Arial', 'Helvetica', 'Avant Garde', sans-serif; text-anchor: end; fill: var(--fg-color)" x="28.96" y="22.518868" transform="rotate(-0 28.96 22.518868)">100</text>
     </g>
    </g>
    <g id="text_10">
     <text style="font-size: 7px; font-family: 'DejaVu Sans', 'Bitstream Vera Sans', 'Computer Modern Sans Serif', 'Lucida Grande', 'Verdana', 'Geneva', 'Lucid', 'Arial', 'Helvetica', 'Avant Garde', sans-serif; text-anchor: middle; fill: var(--fg-color)" x="9.917109" y="54.2" transform="rotate(-90 9.917109 54.2)">ms</text>
    </g>
   </g>
   <g id="line2d_19">
    <path d="M 43.916364 45.384914 
L 44.468628 45.323979 
L 45.3595 41.024074 
L 46.250371 44.978415 
L 47.141245 43.458255 
L 48.032112 42.5739 
L 48.922979 46.035151 
L 49.81384 45.438632 
L 50.704717 42.787171 
L 51.595589 41.893195 
L 52.486458 40.089207 
L 53.377327 40.104441 
L 54.268192 46.045574 
L 55.159063 46.390336 
L 56.049934 46.063213 
L 56.940797 45.463487 
L 57.831669 46.399156 
L 58.722538 45.627049 
L 59.613407 45.820276 
L 60.504275 45.556493 
L 61.395144 44.400337 
L 62.286016 45.614221 
L 63.176879 40.055533 
L 64.067746 47.964215 
L 65.84949 43.766937 
L 66.740361 44.49655 
L 67.631226 45.886021 
L 68.522078 43.504757 
L 69.412965 43.825466 
L 70.30383 43.872771 
L 71.194705 42.567486 
L 72.085571 44.128536 
L 72.976442 45.117122 
L 73.867306 40.90942 
L 75.649039 47.170461 
L 76.539914 40.506129 
L 77.430784 42.201877 
L 78.321655 32.493216 
L 79.212509 44.86296 
L 80.103391 33.611688 
L 80.994245 46.416795 
L 81.885129 43.475092 
L 82.775998 42.452832 
L 83.666869 46.34704 
L 84.557735 40.046713 
L 85.44861 44.70902 
L 94.53997 11.684817 
L 95.248438 18.941659 
L 97.030192 9.472727 
L 97.921065 44.676147 
L 98.811931 44.381896 
L 99.702798 42.934697 
L 100.593666 42.021479 
L 101.484533 43.176031 
L 102.375401 45.069817 
L 103.266272 45.655913 
L 104.157138 44.336997 
L 105.048009 34.799915 
L 105.93888 44.453254 
L 106.829748 47.02534 
L 107.720614 42.291676 
L 108.611487 40.385863 
L 109.502352 42.52419 
L 110.393224 46.272476 
L 111.284094 45.975018 
L 112.17496 40.682519 
L 113.065834 41.903618 
L 113.956695 48.47735 
L 114.847564 46.17947 
L 115.738441 49.157253 
L 116.629309 46.177065 
L 117.520178 36.123641 
L 118.41104 42.118493 
L 119.301913 38.066335 
L 120.192782 39.164764 
L 121.083649 38.322903 
L 121.97452 38.473636 
L 125.537994 37.262158 
L 126.428869 39.641016 
L 127.319734 46.154615 
L 128.210603 43.772549 
L 129.101474 43.673931 
L 129.992342 40.956725 
L 130.883214 40.603143 
L 131.774065 43.977001 
L 132.664946 41.939698 
L 133.55582 39.368414 
L 134.446686 38.171368 
L 135.337558 33.720729 
L 136.228424 38.875324 
L 137.119294 37.363983 
L 138.010159 39.431754 
L 138.901032 41.856313 
L 139.791912 41.72803 
L 140.68277 25.543453 
L 141.57364 37.159531 
L 142.464507 39.745247 
L 143.355376 38.413503 
L 144.246246 41.330351 
L 145.137113 36.906171 
L 146.027984 39.898385 
L 146.918849 39.068551 
L 173.644977 39.068551 
L 181.959197 36.236691 
L 182.553652 41.750479 
L 183.444521 35.92881 
L 184.335387 43.026099 
L 185.226256 39.022048 
L 186.117131 41.444202 
L 187.007996 41.453824 
L 187.898864 42.387087 
L 188.789731 47.60903 
L 189.680603 38.596307 
L 190.571474 43.322755 
L 191.462343 39.684312 
L 192.353215 42.38869 
L 193.244077 44.705011 
L 194.134949 43.766135 
L 195.025817 40.626395 
L 195.916688 40.596729 
L 196.807557 40.074775 
L 197.698426 44.208714 
L 198.589295 46.387931 
L 199.480162 39.57046 
L 200.371032 45.167633 
L 201.261898 48.430847 
L 202.152766 42.330963 
L 203.043636 45.259035 
L 203.043636 45.259035 
" clip-path="url(#p06776f4b58)" style="fill: none; stroke: #339af0; stroke-width: 1.2; stroke-linecap: square"/>
   </g>
   <g id="line2d_20">
    <path d="M 43.916364 98.832664 
L 45.3595 98.812619 
L 47.141245 98.845492 
L 51.595589 98.834267 
L 52.486458 98.77654 
L 54.268192 98.876761 
L 57.831669 98.823042 
L 58.722538 98.583312 
L 59.613407 98.876761 
L 60.504275 98.92166 
L 61.395144 98.834267 
L 62.286016 98.92166 
L 63.176879 98.828655 
L 65.84949 98.881572 
L 67.631226 98.866338 
L 72.085571 98.824646 
L 74.758184 98.847897 
L 75.649039 98.90322 
L 76.539914 98.733244 
L 77.430784 98.775738 
L 78.321655 98.551241 
L 79.212509 98.872752 
L 80.994245 98.916048 
L 81.885129 98.753288 
L 84.557735 98.870347 
L 85.44861 98.188039 
L 95.248438 98.904823 
L 96.139324 98.058151 
L 97.030192 98.761306 
L 98.811931 98.838276 
L 99.702798 98.026081 
L 100.593666 98.798187 
L 107.720614 98.782954 
L 108.611487 98.608969 
L 109.502352 98.91685 
L 111.284094 98.80861 
L 112.17496 98.581709 
L 113.065834 98.846294 
L 113.956695 98.927273 
L 115.738441 98.864734 
L 116.629309 98.022873 
L 117.520178 98.821439 
L 118.41104 98.811016 
L 119.301913 98.620194 
L 121.083649 98.688345 
L 121.97452 98.567277 
L 125.537994 98.688345 
L 126.428869 97.963542 
L 127.319734 98.712398 
L 128.210603 98.631419 
L 129.101474 98.74046 
L 133.55582 98.709191 
L 134.446686 98.497523 
L 135.337558 98.606564 
L 139.791912 98.544827 
L 140.68277 97.946705 
L 141.57364 98.678723 
L 145.137113 98.658679 
L 146.027984 98.490307 
L 146.918849 98.645851 
L 173.644977 98.645851 
L 182.553652 98.601753 
L 185.226256 98.861527 
L 187.007996 98.572088 
L 187.898864 98.783755 
L 189.680603 98.657877 
L 190.571474 98.837474 
L 197.698426 98.661886 
L 198.589295 98.864734 
L 199.480162 98.578502 
L 200.371032 98.855915 
L 201.261898 98.887986 
L 202.152766 98.770125 
L 203.043636 98.863131 
L 203.043636 98.863131 
" clip-path="url(#p06776f4b58)" style="fill: none; stroke: #ff6b6b; stroke-width: 1.2; stroke-linecap: square"/>
   </g>
   <g id="patch_3">
    <path d="M 35.96 103.4 
L 35.96 5 
" style="fill: none; stroke: var(--fg-color); stroke-width: 0.8; stroke-linejoin: miter; stroke-linecap: square"/>
   </g>
   <g id="patch_4">
    <path d="M 35.96 103.4 
L 211 103.4 
" style="fill: none; stroke: var(--fg-color); stroke-width: 0.8; stroke-linejoin: miter; stroke-linecap: square"/>
   </g>
  </g>
 </g>
 <defs>
  <clipPath id="p06776f4b58">
   <rect x="35.96" y="5" width="175.04" height="98.4"/>
  </clipPath>
 </defs>
</svg>
