<?xml version="1.0" encoding="utf-8" standalone="no"?>
<!DOCTYPE svg PUBLIC "-//W3C//DTD SVG 1.1//EN"
  "http://www.w3.org/Graphics/SVG/1.1/DTD/svg11.dtd">
<svg xmlns:xlink="http://www.w3.org/1999/xlink" width="216pt" height="122.4pt" viewBox="0 0 216 122.4" xmlns="http://www.w3.org/2000/svg" version="1.1">
  <style>
    :root {
      --fg-color: #212529;
      --grid-color: rgba(33, 37, 41, 0.1);
    }
    @media (prefers-color-scheme: dark) {
      :root {
        --fg-color: #dee2e6;
        --grid-color: rgba(248, 249, 250, 0.15);
      }
    }
  </style>

 <metadata>
  <rdf:RDF xmlns:dc="http://purl.org/dc/elements/1.1/" xmlns:cc="http://creativecommons.org/ns#" xmlns:rdf="http://www.w3.org/1999/02/22-rdf-syntax-ns#">
   <cc:Work>
    <dc:type rdf:resource="http://purl.org/dc/dcmitype/StillImage"/>
    <dc:date>2026-06-30T04:48:28.223361</dc:date>
    <dc:format>image/svg+xml</dc:format>
    <dc:creator>
     <cc:Agent>
      <dc:title>Matplotlib v3.11.0, https://matplotlib.org/</dc:title>
     </cc:Agent>
    </dc:creator>
   </cc:Work>
  </rdf:RDF>
 </metadata>
 <defs>
  <style type="text/css">*{stroke-linejoin: round; stroke-linecap: butt}</style>
 </defs>
 <g id="figure_1">
  <g id="patch_1">
   <path d="M 0 122.4 
L 216 122.4 
L 216 0 
L 0 0 
L 0 122.4 
z
" style="fill: none; opacity: 0"/>
  </g>
  <g id="axes_1">
   <g id="patch_2">
    <path d="M 35.96 103.4 
L 211 103.4 
L 211 5 
L 35.96 5 
L 35.96 103.4 
z
" style="fill: none; opacity: 0"/>
   </g>
   <g id="matplotlib.axis_1">
    <g id="xtick_1">
     <g id="line2d_1">
      <path d="M 70.996911 103.4 
L 70.996911 5 
" clip-path="url(#p6630ff4e05)" style="fill: none; stroke-dasharray: 2.96,1.28; stroke-dashoffset: 0; stroke: var(--grid-color); stroke-width: 0.8"/>
     </g>
     <g id="line2d_2">
      <defs>
       <path id="mda34a85e25" d="M 0 0 
L 0 3.5 
" style="stroke: var(--fg-color); stroke-width: 0.8"/>
      </defs>
      <g>
       <use xlink:href="#mda34a85e25" x="70.996911" y="103.4" style="fill: var(--fg-color); stroke: var(--fg-color); stroke-width: 0.8"/>
      </g>
     </g>
     <g id="text_1">
      <text style="font-size: 7px; font-family: 'DejaVu Sans', 'Bitstream Vera Sans', 'Computer Modern Sans Serif', 'Lucida Grande', 'Verdana', 'Geneva', 'Lucid', 'Arial', 'Helvetica', 'Avant Garde', sans-serif; text-anchor: middle; fill: var(--fg-color)" x="70.996911" y="115.718359" transform="rotate(-0 70.996911 115.718359)">02/2026</text>
     </g>
    </g>
    <g id="xtick_2">
     <g id="line2d_3">
      <path d="M 126.022656 103.4 
L 126.022656 5 
" clip-path="url(#p6630ff4e05)" style="fill: none; stroke-dasharray: 2.96,1.28; stroke-dashoffset: 0; stroke: var(--grid-color); stroke-width: 0.8"/>
     </g>
     <g id="line2d_4">
      <g>
       <use xlink:href="#mda34a85e25" x="126.022656" y="103.4" style="fill: var(--fg-color); stroke: var(--fg-color); stroke-width: 0.8"/>
      </g>
     </g>
     <g id="text_2">
      <text style="font-size: 7px; font-family: 'DejaVu Sans', 'Bitstream Vera Sans', 'Computer Modern Sans Serif', 'Lucida Grande', 'Verdana', 'Geneva', 'Lucid', 'Arial', 'Helvetica', 'Avant Garde', sans-serif; text-anchor: middle; fill: var(--fg-color)" x="126.022656" y="115.718359" transform="rotate(-0 126.022656 115.718359)">04/2026</text>
     </g>
    </g>
    <g id="xtick_3">
     <g id="line2d_5">
      <path d="M 182.913681 103.4 
L 182.913681 5 
" clip-path="url(#p6630ff4e05)" style="fill: none; stroke-dasharray: 2.96,1.28; stroke-dashoffset: 0; stroke: var(--grid-color); stroke-width: 0.8"/>
     </g>
     <g id="line2d_6">
      <g>
       <use xlink:href="#mda34a85e25" x="182.913681" y="103.4" style="fill: var(--fg-color); stroke: var(--fg-color); stroke-width: 0.8"/>
      </g>
     </g>
     <g id="text_3">
      <text style="font-size: 7px; font-family: 'DejaVu Sans', 'Bitstream Vera Sans', 'Computer Modern Sans Serif', 'Lucida Grande', 'Verdana', 'Geneva', 'Lucid', 'Arial', 'Helvetica', 'Avant Garde', sans-serif; text-anchor: middle; fill: var(--fg-color)" x="182.913681" y="115.718359" transform="rotate(-0 182.913681 115.718359)">06/2026</text>
     </g>
    </g>
   </g>
   <g id="matplotlib.axis_2">
    <g id="ytick_1">
     <g id="line2d_7">
      <path d="M 35.96 99.66083 
L 211 99.66083 
" clip-path="url(#p6630ff4e05)" style="fill: none; stroke-dasharray: 2.96,1.28; stroke-dashoffset: 0; stroke: var(--grid-color); stroke-width: 0.8"/>
     </g>
     <g id="line2d_8">
      <defs>
       <path id="m9a243cf7d4" d="M 0 0 
L -3.5 0 
" style="stroke: var(--fg-color); stroke-width: 0.8"/>
      </defs>
      <g>
       <use xlink:href="#m9a243cf7d4" x="35.96" y="99.66083" style="fill: var(--fg-color); stroke: var(--fg-color); stroke-width: 0.8"/>
      </g>
     </g>
     <g id="text_4">
      <text style="font-size: 7px; font-family: 'DejaVu Sans', 'Bitstream Vera Sans', 'Computer Modern Sans Serif', 'Lucida Grande', 'Verdana', 'Geneva', 'Lucid', 'Arial', 'Helvetica', 'Avant Garde', sans-serif; text-anchor: end; fill: var(--fg-color)" x="28.96" y="102.32001" transform="rotate(-0 28.96 102.32001)">0</text>
     </g>
    </g>
    <g id="ytick_2">
     <g id="line2d_9">
      <path d="M 35.96 81.548296 
L 211 81.548296 
" clip-path="url(#p6630ff4e05)" style="fill: none; stroke-dasharray: 2.96,1.28; stroke-dashoffset: 0; stroke: var(--grid-color); stroke-width: 0.8"/>
     </g>
     <g id="line2d_10">
      <g>
       <use xlink:href="#m9a243cf7d4" x="35.96" y="81.548296" style="fill: var(--fg-color); stroke: var(--fg-color); stroke-width: 0.8"/>
      </g>
     </g>
     <g id="text_5">
      <text style="font-size: 7px; font-family: 'DejaVu Sans', 'Bitstream Vera Sans', 'Computer Modern Sans Serif', 'Lucida Grande', 'Verdana', 'Geneva', 'Lucid', 'Arial', 'Helvetica', 'Avant Garde', sans-serif; text-anchor: end; fill: var(--fg-color)" x="28.96" y="84.207476" transform="rotate(-0 28.96 84.207476)">50</text>
     </g>
    </g>
    <g id="ytick_3">
     <g id="line2d_11">
      <path d="M 35.96 63.435762 
L 211 63.435762 
" clip-path="url(#p6630ff4e05)" style="fill: none; stroke-dasharray: 2.96,1.28; stroke-dashoffset: 0; stroke: var(--grid-color); stroke-width: 0.8"/>
     </g>
     <g id="line2d_12">
      <g>
       <use xlink:href="#m9a243cf7d4" x="35.96" y="63.435762" style="fill: var(--fg-color); stroke: var(--fg-color); stroke-width: 0.8"/>
      </g>
     </g>
     <g id="text_6">
      <text style="font-size: 7px; font-family: 'DejaVu Sans', 'Bitstream Vera Sans', 'Computer Modern Sans Serif', 'Lucida Grande', 'Verdana', 'Geneva', 'Lucid', 'Arial', 'Helvetica', 'Avant Garde', sans-serif; text-anchor: end; fill: var(--fg-color)" x="28.96" y="66.094942" transform="rotate(-0 28.96 66.094942)">100</text>
     </g>
    </g>
    <g id="ytick_4">
     <g id="line2d_13">
      <path d="M 35.96 45.323228 
L 211 45.323228 
" clip-path="url(#p6630ff4e05)" style="fill: none; stroke-dasharray: 2.96,1.28; stroke-dashoffset: 0; stroke: var(--grid-color); stroke-width: 0.8"/>
     </g>
     <g id="line2d_14">
      <g>
       <use xlink:href="#m9a243cf7d4" x="35.96" y="45.323228" style="fill: var(--fg-color); stroke: var(--fg-color); stroke-width: 0.8"/>
      </g>
     </g>
     <g id="text_7">
      <text style="font-size: 7px; font-family: 'DejaVu Sans', 'Bitstream Vera Sans', 'Computer Modern Sans Serif', 'Lucida Grande', 'Verdana', 'Geneva', 'Lucid', 'Arial', 'Helvetica', 'Avant Garde', sans-serif; text-anchor: end; fill: var(--fg-color)" x="28.96" y="47.982408" transform="rotate(-0 28.96 47.982408)">150</text>
     </g>
    </g>
    <g id="ytick_5">
     <g id="line2d_15">
      <path d="M 35.96 27.210694 
L 211 27.210694 
" clip-path="url(#p6630ff4e05)" style="fill: none; stroke-dasharray: 2.96,1.28; stroke-dashoffset: 0; stroke: var(--grid-color); stroke-width: 0.8"/>
     </g>
     <g id="line2d_16">
      <g>
       <use xlink:href="#m9a243cf7d4" x="35.96" y="27.210694" style="fill: var(--fg-color); stroke: var(--fg-color); stroke-width: 0.8"/>
      </g>
     </g>
     <g id="text_8">
      <text style="font-size: 7px; font-family: 'DejaVu Sans', 'Bitstream Vera Sans', 'Computer Modern Sans Serif', 'Lucida Grande', 'Verdana', 'Geneva', 'Lucid', 'Arial', 'Helvetica', 'Avant Garde', sans-serif; text-anchor: end; fill: var(--fg-color)" x="28.96" y="29.869874" transform="rotate(-0 28.96 29.869874)">200</text>
     </g>
    </g>
    <g id="ytick_6">
     <g id="line2d_17">
      <path d="M 35.96 9.09816 
L 211 9.09816 
" clip-path="url(#p6630ff4e05)" style="fill: none; stroke-dasharray: 2.96,1.28; stroke-dashoffset: 0; stroke: var(--grid-color); stroke-width: 0.8"/>
     </g>
     <g id="line2d_18">
      <g>
       <use xlink:href="#m9a243cf7d4" x="35.96" y="9.09816" style="fill: var(--fg-color); stroke: var(--fg-color); stroke-width: 0.8"/>
      </g>
     </g>
     <g id="text_9">
      <text style="font-size: 7px; font-family: 'DejaVu Sans', 'Bitstream Vera Sans', 'Computer Modern Sans Serif', 'Lucida Grande', 'Verdana', 'Geneva', 'Lucid', 'Arial', 'Helvetica', 'Avant Garde', sans-serif; text-anchor: end; fill: var(--fg-color)" x="28.96" y="11.75734" transform="rotate(-0 28.96 11.75734)">250</text>
     </g>
    </g>
    <g id="text_10">
     <text style="font-size: 7px; font-family: 'DejaVu Sans', 'Bitstream Vera Sans', 'Computer Modern Sans Serif', 'Lucida Grande', 'Verdana', 'Geneva', 'Lucid', 'Arial', 'Helvetica', 'Avant Garde', sans-serif; text-anchor: middle; fill: var(--fg-color)" x="9.917109" y="54.2" transform="rotate(-90 9.917109 54.2)">ms</text>
    </g>
   </g>
   <g id="line2d_19">
    <path d="M 43.916364 75.716423 
L 44.494523 79.922515 
L 45.427166 77.497609 
L 46.359808 76.690152 
L 47.292453 78.150023 
L 48.22509 77.070878 
L 49.157727 80.651001 
L 50.090359 78.661521 
L 51.023007 80.728885 
L 51.95565 78.156543 
L 52.88829 76.948799 
L 53.82093 77.22085 
L 54.753566 76.420638 
L 55.686208 78.835763 
L 56.618849 75.246946 
L 57.551483 76.321743 
L 58.484126 81.781586 
L 59.416765 76.631106 
L 60.349406 80.600649 
L 61.282045 68.341723 
L 62.214684 77.431317 
L 63.147327 75.64687 
L 64.07996 80.979925 
L 65.012598 79.148386 
L 65.945245 79.959465 
L 66.877884 78.258698 
L 67.810526 64.799636 
L 68.743162 80.422421 
L 69.675784 79.733058 
L 70.608443 77.730899 
L 71.541078 76.856788 
L 72.473724 75.685269 
L 73.406361 75.083571 
L 74.339003 78.33151 
L 75.271637 69.426664 
L 76.204286 74.953523 
L 77.136912 81.51352 
L 78.069558 78.871988 
L 79.002199 80.021047 
L 79.934841 75.86567 
L 80.867465 79.74465 
L 81.800118 78.765849 
L 82.732742 74.723131 
L 83.665398 70.370689 
L 84.598038 81.280231 
L 85.53068 78.060909 
L 86.463316 79.522953 
L 87.395962 74.894476 
L 96.913595 77.297647 
L 97.655282 78.678909 
L 98.587939 74.841225 
L 99.520578 77.726552 
L 100.453222 75.820389 
L 101.385859 81.265016 
L 102.318497 75.279911 
L 103.251135 77.624035 
L 104.183773 76.969448 
L 105.116412 73.86351 
L 106.049054 72.620991 
L 106.981691 73.065834 
L 107.914333 76.658637 
L 108.846974 75.823287 
L 109.779613 75.588548 
L 110.71225 75.713162 
L 111.644893 76.131924 
L 112.57753 74.740519 
L 113.510173 74.670243 
L 114.442814 72.690543 
L 115.37545 75.667519 
L 116.308095 67.111158 
L 117.240726 77.810594 
L 118.173367 69.852309 
L 119.106014 72.843775 
L 120.038653 73.720059 
L 120.971293 74.141357 
L 121.903926 75.755908 
L 122.836569 73.434606 
L 123.769209 74.324293 
L 124.701847 74.736897 
L 125.634489 75.193695 
L 129.365046 74.216343 
L 130.297692 77.325178 
L 131.230328 72.571724 
L 132.162968 73.654854 
L 133.095609 75.571885 
L 134.028248 68.738025 
L 134.960891 72.90572 
L 135.893512 72.050446 
L 136.826165 72.317062 
L 137.75881 77.161441 
L 138.691446 72.961868 
L 139.624089 72.561581 
L 140.556726 75.366488 
L 141.489366 70.701424 
L 142.422003 77.308877 
L 143.354646 72.986864 
L 144.287298 64.905413 
L 145.219926 75.756995 
L 146.152567 78.020337 
L 147.085204 73.941394 
L 148.017844 75.799016 
L 148.950485 75.653029 
L 149.883123 74.848832 
L 150.815765 76.334422 
L 151.7484 73.760993 
L 179.727656 73.760993 
L 188.43171 75.412857 
L 189.054038 9.472727 
L 189.986678 69.980908 
L 190.919315 68.870247 
L 191.851955 56.241101 
L 192.7846 63.741502 
L 193.717237 71.164743 
L 194.649875 67.580635 
L 195.582513 73.540745 
L 196.515156 62.083843 
L 197.447798 63.798375 
L 198.380437 72.440227 
L 199.313081 69.618657 
L 200.245713 74.55396 
L 201.178356 70.643102 
L 202.110995 73.287532 
L 203.043636 63.974067 
" clip-path="url(#p6630ff4e05)" style="fill: none; stroke: #339af0; stroke-width: 1.2; stroke-linecap: square"/>
   </g>
   <g id="line2d_20">
    <path d="M 43.916364 98.559951 
L 44.494523 98.888874 
L 45.427166 98.736367 
L 46.359808 98.32811 
L 47.292453 98.761362 
L 48.22509 98.002809 
L 49.157727 98.424831 
L 50.090359 97.626793 
L 51.023007 98.141189 
L 51.95565 98.135755 
L 52.88829 97.777851 
L 53.82093 98.349483 
L 54.753566 96.663206 
L 55.686208 97.363799 
L 56.618849 98.454173 
L 57.551483 98.853011 
L 58.484126 98.910609 
L 59.416765 97.953905 
L 60.349406 98.568282 
L 61.282045 97.528985 
L 62.214684 98.009692 
L 63.147327 98.563211 
L 64.07996 98.657396 
L 65.012598 98.400198 
L 65.945245 97.769882 
L 66.877884 98.915318 
L 67.810526 97.386621 
L 68.743162 98.616099 
L 69.675784 98.856634 
L 70.608443 97.069651 
L 71.541078 98.348396 
L 72.473724 98.482067 
L 73.406361 98.329921 
L 74.339003 98.129597 
L 75.271637 98.526986 
L 76.204286 98.768969 
L 77.136912 98.374478 
L 78.069558 98.882716 
L 79.002199 98.624069 
L 79.934841 97.7438 
L 80.867465 96.37413 
L 81.800118 98.85446 
L 82.732742 97.606144 
L 83.665398 98.476271 
L 84.598038 98.22994 
L 85.53068 98.820047 
L 86.463316 98.006794 
L 87.395962 98.681305 
L 96.913595 98.259282 
L 97.655282 98.054973 
L 98.587939 98.5969 
L 99.520578 97.905364 
L 100.453222 97.280843 
L 101.385859 98.286814 
L 102.318497 98.898293 
L 103.251135 98.91713 
L 104.183773 98.877282 
L 105.116412 98.872935 
L 106.049054 98.868588 
L 106.981691 98.862068 
L 107.914333 98.908436 
L 108.846974 98.882716 
L 109.779613 98.913869 
L 110.71225 98.918216 
L 111.644893 98.90916 
L 112.57753 98.881991 
L 113.510173 98.900466 
L 114.442814 98.770056 
L 115.37545 98.900466 
L 116.308095 98.817149 
L 117.240726 98.927273 
L 118.173367 98.842144 
L 119.106014 98.846853 
L 120.038653 98.693259 
L 120.971293 98.858445 
L 121.903926 98.833088 
L 122.836569 98.807368 
L 123.769209 98.813888 
L 124.701847 98.341876 
L 125.634489 98.837072 
L 129.365046 98.849751 
L 130.297692 98.854823 
L 131.230328 98.787806 
L 132.162968 98.832363 
L 133.095609 98.838521 
L 134.028248 98.845042 
L 134.960891 98.787082 
L 135.893512 98.862792 
L 136.826165 98.855909 
L 137.75881 98.716805 
L 138.691446 98.748683 
L 139.624089 98.824031 
L 140.556726 98.733469 
L 141.489366 98.801209 
L 142.422003 98.870037 
L 143.354646 98.76752 
L 144.287298 98.571905 
L 145.219926 98.835986 
L 146.152567 98.900828 
L 147.085204 98.794327 
L 148.017844 98.835261 
L 148.950485 98.849027 
L 149.883123 98.838159 
L 150.815765 98.855909 
L 151.7484 98.82548 
L 179.727656 98.82548 
L 188.43171 98.836348 
L 189.054038 98.673335 
L 189.986678 98.125974 
L 190.919315 98.319054 
L 191.851955 98.348034 
L 192.7846 98.630952 
L 193.717237 98.544012 
L 194.649875 98.657758 
L 195.582513 98.644355 
L 196.515156 98.634574 
L 197.447798 98.602334 
L 198.380437 98.626605 
L 199.313081 98.680942 
L 200.245713 98.652324 
L 201.178356 97.969482 
L 202.110995 98.592553 
L 203.043636 98.639646 
" clip-path="url(#p6630ff4e05)" style="fill: none; stroke: #ff6b6b; stroke-width: 1.2; stroke-linecap: square"/>
   </g>
   <g id="patch_3">
    <path d="M 35.96 103.4 
L 35.96 5 
" style="fill: none; stroke: var(--fg-color); stroke-width: 0.8; stroke-linejoin: miter; stroke-linecap: square"/>
   </g>
   <g id="patch_4">
    <path d="M 35.96 103.4 
L 211 103.4 
" style="fill: none; stroke: var(--fg-color); stroke-width: 0.8; stroke-linejoin: miter; stroke-linecap: square"/>
   </g>
  </g>
 </g>
 <defs>
  <clipPath id="p6630ff4e05">
   <rect x="35.96" y="5" width="175.04" height="98.4"/>
  </clipPath>
 </defs>
</svg>
