<?xml version="1.0" encoding="utf-8" standalone="no"?>
<!DOCTYPE svg PUBLIC "-//W3C//DTD SVG 1.1//EN"
  "http://www.w3.org/Graphics/SVG/1.1/DTD/svg11.dtd">
<svg xmlns:xlink="http://www.w3.org/1999/xlink" width="216pt" height="122.4pt" viewBox="0 0 216 122.4" xmlns="http://www.w3.org/2000/svg" version="1.1">
  <style>
    :root {
      --fg-color: #212529;
      --grid-color: rgba(33, 37, 41, 0.1);
    }
    @media (prefers-color-scheme: dark) {
      :root {
        --fg-color: #dee2e6;
        --grid-color: rgba(248, 249, 250, 0.15);
      }
    }
  </style>

 <metadata>
  <rdf:RDF xmlns:dc="http://purl.org/dc/elements/1.1/" xmlns:cc="http://creativecommons.org/ns#" xmlns:rdf="http://www.w3.org/1999/02/22-rdf-syntax-ns#">
   <cc:Work>
    <dc:type rdf:resource="http://purl.org/dc/dcmitype/StillImage"/>
    <dc:date>2026-06-30T15:37:17.541996</dc:date>
    <dc:format>image/svg+xml</dc:format>
    <dc:creator>
     <cc:Agent>
      <dc:title>Matplotlib v3.11.0, https://matplotlib.org/</dc:title>
     </cc:Agent>
    </dc:creator>
   </cc:Work>
  </rdf:RDF>
 </metadata>
 <defs>
  <style type="text/css">*{stroke-linejoin: round; stroke-linecap: butt}</style>
 </defs>
 <g id="figure_1">
  <g id="patch_1">
   <path d="M 0 122.4 
L 216 122.4 
L 216 0 
L 0 0 
L 0 122.4 
z
" style="fill: none; opacity: 0"/>
  </g>
  <g id="axes_1">
   <g id="patch_2">
    <path d="M 35.96 103.4 
L 211 103.4 
L 211 5 
L 35.96 5 
L 35.96 103.4 
z
" style="fill: none; opacity: 0"/>
   </g>
   <g id="matplotlib.axis_1">
    <g id="xtick_1">
     <g id="line2d_1">
      <path d="M 69.784035 103.4 
L 69.784035 5 
" clip-path="url(#pc98f00991e)" style="fill: none; stroke-dasharray: 2.96,1.28; stroke-dashoffset: 0; stroke: var(--grid-color); stroke-width: 0.8"/>
     </g>
     <g id="line2d_2">
      <defs>
       <path id="m8d411d8f79" d="M 0 0 
L 0 3.5 
" style="stroke: var(--fg-color); stroke-width: 0.8"/>
      </defs>
      <g>
       <use xlink:href="#m8d411d8f79" x="69.784035" y="103.4" style="fill: var(--fg-color); stroke: var(--fg-color); stroke-width: 0.8"/>
      </g>
     </g>
     <g id="text_1">
      <text style="font-size: 7px; font-family: 'DejaVu Sans', 'Bitstream Vera Sans', 'Computer Modern Sans Serif', 'Lucida Grande', 'Verdana', 'Geneva', 'Lucid', 'Arial', 'Helvetica', 'Avant Garde', sans-serif; text-anchor: middle; fill: var(--fg-color)" x="69.784035" y="115.718359" transform="rotate(-0 69.784035 115.718359)">02/2026</text>
     </g>
    </g>
    <g id="xtick_2">
     <g id="line2d_3">
      <path d="M 122.345302 103.4 
L 122.345302 5 
" clip-path="url(#pc98f00991e)" style="fill: none; stroke-dasharray: 2.96,1.28; stroke-dashoffset: 0; stroke: var(--grid-color); stroke-width: 0.8"/>
     </g>
     <g id="line2d_4">
      <g>
       <use xlink:href="#m8d411d8f79" x="122.345302" y="103.4" style="fill: var(--fg-color); stroke: var(--fg-color); stroke-width: 0.8"/>
      </g>
     </g>
     <g id="text_2">
      <text style="font-size: 7px; font-family: 'DejaVu Sans', 'Bitstream Vera Sans', 'Computer Modern Sans Serif', 'Lucida Grande', 'Verdana', 'Geneva', 'Lucid', 'Arial', 'Helvetica', 'Avant Garde', sans-serif; text-anchor: middle; fill: var(--fg-color)" x="122.345302" y="115.718359" transform="rotate(-0 122.345302 115.718359)">04/2026</text>
     </g>
    </g>
    <g id="xtick_3">
     <g id="line2d_5">
      <path d="M 176.688307 103.4 
L 176.688307 5 
" clip-path="url(#pc98f00991e)" style="fill: none; stroke-dasharray: 2.96,1.28; stroke-dashoffset: 0; stroke: var(--grid-color); stroke-width: 0.8"/>
     </g>
     <g id="line2d_6">
      <g>
       <use xlink:href="#m8d411d8f79" x="176.688307" y="103.4" style="fill: var(--fg-color); stroke: var(--fg-color); stroke-width: 0.8"/>
      </g>
     </g>
     <g id="text_3">
      <text style="font-size: 7px; font-family: 'DejaVu Sans', 'Bitstream Vera Sans', 'Computer Modern Sans Serif', 'Lucida Grande', 'Verdana', 'Geneva', 'Lucid', 'Arial', 'Helvetica', 'Avant Garde', sans-serif; text-anchor: middle; fill: var(--fg-color)" x="176.688307" y="115.718359" transform="rotate(-0 176.688307 115.718359)">06/2026</text>
     </g>
    </g>
   </g>
   <g id="matplotlib.axis_2">
    <g id="ytick_1">
     <g id="line2d_7">
      <path d="M 35.96 99.434929 
L 211 99.434929 
" clip-path="url(#pc98f00991e)" style="fill: none; stroke-dasharray: 2.96,1.28; stroke-dashoffset: 0; stroke: var(--grid-color); stroke-width: 0.8"/>
     </g>
     <g id="line2d_8">
      <defs>
       <path id="ma0233bb8fd" d="M 0 0 
L -3.5 0 
" style="stroke: var(--fg-color); stroke-width: 0.8"/>
      </defs>
      <g>
       <use xlink:href="#ma0233bb8fd" x="35.96" y="99.434929" style="fill: var(--fg-color); stroke: var(--fg-color); stroke-width: 0.8"/>
      </g>
     </g>
     <g id="text_4">
      <text style="font-size: 7px; font-family: 'DejaVu Sans', 'Bitstream Vera Sans', 'Computer Modern Sans Serif', 'Lucida Grande', 'Verdana', 'Geneva', 'Lucid', 'Arial', 'Helvetica', 'Avant Garde', sans-serif; text-anchor: end; fill: var(--fg-color)" x="28.96" y="102.094108" transform="rotate(-0 28.96 102.094108)">0</text>
     </g>
    </g>
    <g id="ytick_2">
     <g id="line2d_9">
      <path d="M 35.96 72.185546 
L 211 72.185546 
" clip-path="url(#pc98f00991e)" style="fill: none; stroke-dasharray: 2.96,1.28; stroke-dashoffset: 0; stroke: var(--grid-color); stroke-width: 0.8"/>
     </g>
     <g id="line2d_10">
      <g>
       <use xlink:href="#ma0233bb8fd" x="35.96" y="72.185546" style="fill: var(--fg-color); stroke: var(--fg-color); stroke-width: 0.8"/>
      </g>
     </g>
     <g id="text_5">
      <text style="font-size: 7px; font-family: 'DejaVu Sans', 'Bitstream Vera Sans', 'Computer Modern Sans Serif', 'Lucida Grande', 'Verdana', 'Geneva', 'Lucid', 'Arial', 'Helvetica', 'Avant Garde', sans-serif; text-anchor: end; fill: var(--fg-color)" x="28.96" y="74.844726" transform="rotate(-0 28.96 74.844726)">100</text>
     </g>
    </g>
    <g id="ytick_3">
     <g id="line2d_11">
      <path d="M 35.96 44.936164 
L 211 44.936164 
" clip-path="url(#pc98f00991e)" style="fill: none; stroke-dasharray: 2.96,1.28; stroke-dashoffset: 0; stroke: var(--grid-color); stroke-width: 0.8"/>
     </g>
     <g id="line2d_12">
      <g>
       <use xlink:href="#ma0233bb8fd" x="35.96" y="44.936164" style="fill: var(--fg-color); stroke: var(--fg-color); stroke-width: 0.8"/>
      </g>
     </g>
     <g id="text_6">
      <text style="font-size: 7px; font-family: 'DejaVu Sans', 'Bitstream Vera Sans', 'Computer Modern Sans Serif', 'Lucida Grande', 'Verdana', 'Geneva', 'Lucid', 'Arial', 'Helvetica', 'Avant Garde', sans-serif; text-anchor: end; fill: var(--fg-color)" x="28.96" y="47.595343" transform="rotate(-0 28.96 47.595343)">200</text>
     </g>
    </g>
    <g id="ytick_4">
     <g id="line2d_13">
      <path d="M 35.96 17.686781 
L 211 17.686781 
" clip-path="url(#pc98f00991e)" style="fill: none; stroke-dasharray: 2.96,1.28; stroke-dashoffset: 0; stroke: var(--grid-color); stroke-width: 0.8"/>
     </g>
     <g id="line2d_14">
      <g>
       <use xlink:href="#ma0233bb8fd" x="35.96" y="17.686781" style="fill: var(--fg-color); stroke: var(--fg-color); stroke-width: 0.8"/>
      </g>
     </g>
     <g id="text_7">
      <text style="font-size: 7px; font-family: 'DejaVu Sans', 'Bitstream Vera Sans', 'Computer Modern Sans Serif', 'Lucida Grande', 'Verdana', 'Geneva', 'Lucid', 'Arial', 'Helvetica', 'Avant Garde', sans-serif; text-anchor: end; fill: var(--fg-color)" x="28.96" y="20.345961" transform="rotate(-0 28.96 20.345961)">300</text>
     </g>
    </g>
    <g id="text_8">
     <text style="font-size: 7px; font-family: 'DejaVu Sans', 'Bitstream Vera Sans', 'Computer Modern Sans Serif', 'Lucida Grande', 'Verdana', 'Geneva', 'Lucid', 'Arial', 'Helvetica', 'Avant Garde', sans-serif; text-anchor: middle; fill: var(--fg-color)" x="9.917109" y="54.2" transform="rotate(-90 9.917109 54.2)">ms</text>
    </g>
   </g>
   <g id="line2d_15">
    <path d="M 43.916364 44.521156 
L 44.468628 46.862423 
L 45.3595 48.441524 
L 46.250371 45.601866 
L 47.141245 47.979375 
L 48.032112 47.896809 
L 48.922979 46.494828 
L 49.81384 47.39542 
L 50.704717 44.324415 
L 51.595589 50.411382 
L 52.486458 45.510853 
L 53.377327 49.034743 
L 54.268192 47.495426 
L 55.159063 43.09247 
L 56.049934 45.511671 
L 56.940797 46.930818 
L 57.831669 44.774847 
L 58.722538 45.657455 
L 59.613407 44.65277 
L 60.504275 46.40327 
L 61.395144 46.707646 
L 62.286016 45.839208 
L 63.176879 44.42224 
L 64.067746 48.921386 
L 64.958622 47.400598 
L 65.84949 46.474119 
L 66.740361 46.885584 
L 67.631226 44.051376 
L 68.522078 33.076142 
L 69.412965 46.52126 
L 70.30383 44.99584 
L 71.194705 47.328659 
L 72.085571 45.928859 
L 72.976442 46.323975 
L 73.867306 48.272033 
L 74.758184 49.003679 
L 76.539914 46.662412 
L 77.430784 47.973925 
L 78.321655 44.086255 
L 79.212509 41.200546 
L 80.103391 9.472727 
L 80.994245 46.941991 
L 81.885129 48.115077 
L 82.775998 45.468072 
L 83.666869 46.947713 
L 84.557735 47.962208 
L 94.53997 32.675576 
L 95.248438 41.496474 
L 96.139324 36.140608 
L 97.030192 34.828278 
L 97.921065 42.961946 
L 98.811931 44.129037 
L 99.702798 44.651953 
L 100.593666 43.261962 
L 101.484533 46.387466 
L 102.375401 43.319458 
L 103.266272 49.025206 
L 104.157138 45.543007 
L 105.048009 49.981387 
L 105.93888 46.643337 
L 106.829748 47.141456 
L 107.720614 48.002809 
L 108.611487 48.179113 
L 109.502352 43.65953 
L 110.393224 44.420333 
L 111.284094 42.491349 
L 112.17496 44.811089 
L 113.065834 44.436137 
L 113.956695 43.048054 
L 114.847564 44.54786 
L 115.738441 43.880795 
L 116.629309 46.386103 
L 117.520178 45.081948 
L 118.41104 48.474496 
L 119.301913 43.836651 
L 120.192782 46.31144 
L 121.083649 42.930337 
L 121.97452 45.072683 
L 125.537994 42.711797 
L 126.428869 47.76138 
L 127.319734 42.34066 
L 128.210603 42.428948 
L 129.101474 45.277053 
L 129.992342 44.274549 
L 130.883214 44.727978 
L 131.774065 42.919982 
L 132.664946 39.271562 
L 133.55582 42.507971 
L 134.446686 43.006635 
L 135.337558 42.406876 
L 136.228424 42.620784 
L 137.119294 47.414495 
L 138.010159 41.755071 
L 138.901032 41.748258 
L 139.791912 41.346875 
L 140.68277 13.804289 
L 141.57364 44.532055 
L 142.464507 35.435121 
L 143.355376 41.54743 
L 144.246246 41.983693 
L 145.137113 38.040707 
L 146.027984 36.864897 
L 146.918849 39.873501 
L 173.644977 39.873501 
L 181.959197 42.913987 
L 182.553652 44.138847 
L 183.444521 43.954368 
L 184.335387 46.62399 
L 185.226256 44.908642 
L 186.117131 45.719583 
L 187.007996 49.607525 
L 187.898864 41.761883 
L 188.789731 47.411225 
L 189.680603 43.025709 
L 190.571474 45.87763 
L 191.462343 43.648358 
L 192.353215 45.388776 
L 193.244077 42.902542 
L 194.134949 42.826244 
L 195.025817 45.862915 
L 195.916688 41.366767 
L 196.807557 43.169586 
L 197.698426 45.604046 
L 198.589295 40.776 
L 200.371032 45.360437 
L 201.261898 48.509375 
L 202.152766 48.089735 
L 203.043636 43.755175 
L 203.043636 43.755175 
" clip-path="url(#pc98f00991e)" style="fill: none; stroke: #339af0; stroke-width: 1.2; stroke-linecap: square"/>
   </g>
   <g id="line2d_16">
    <path d="M 43.916364 98.882311 
L 44.468628 98.902203 
L 45.3595 98.658866 
L 46.250371 98.881221 
L 51.595589 98.913376 
L 70.30383 98.877679 
L 71.194705 98.647694 
L 72.085571 98.894846 
L 103.266272 98.869777 
L 105.048009 98.880949 
L 105.93888 98.889124 
L 106.829748 98.656686 
L 107.720614 98.890759 
L 112.17496 98.871956 
L 115.738441 98.892394 
L 120.192782 98.847977 
L 121.97452 98.69647 
L 146.918849 98.607637 
L 183.444521 98.674398 
L 185.226256 98.715545 
L 186.117131 98.571941 
L 187.007996 98.728897 
L 196.807557 98.712275 
L 197.698426 98.434604 
L 198.589295 98.721267 
L 199.480162 98.632979 
L 201.261898 98.717725 
L 202.152766 98.649329 
L 203.043636 98.705735 
L 203.043636 98.705735 
" clip-path="url(#pc98f00991e)" style="fill: none; stroke: #ff6b6b; stroke-width: 1.2; stroke-linecap: square"/>
   </g>
   <g id="patch_3">
    <path d="M 35.96 103.4 
L 35.96 5 
" style="fill: none; stroke: var(--fg-color); stroke-width: 0.8; stroke-linejoin: miter; stroke-linecap: square"/>
   </g>
   <g id="patch_4">
    <path d="M 35.96 103.4 
L 211 103.4 
" style="fill: none; stroke: var(--fg-color); stroke-width: 0.8; stroke-linejoin: miter; stroke-linecap: square"/>
   </g>
  </g>
 </g>
 <defs>
  <clipPath id="pc98f00991e">
   <rect x="35.96" y="5" width="175.04" height="98.4"/>
  </clipPath>
 </defs>
</svg>
