<?xml version="1.0" encoding="utf-8" standalone="no"?>
<!DOCTYPE svg PUBLIC "-//W3C//DTD SVG 1.1//EN"
  "http://www.w3.org/Graphics/SVG/1.1/DTD/svg11.dtd">
<svg xmlns:xlink="http://www.w3.org/1999/xlink" width="216pt" height="122.4pt" viewBox="0 0 216 122.4" xmlns="http://www.w3.org/2000/svg" version="1.1">
  <style>
    :root {
      --fg-color: #212529;
      --grid-color: rgba(33, 37, 41, 0.1);
    }
    @media (prefers-color-scheme: dark) {
      :root {
        --fg-color: #dee2e6;
        --grid-color: rgba(248, 249, 250, 0.15);
      }
    }
  </style>

 <metadata>
  <rdf:RDF xmlns:dc="http://purl.org/dc/elements/1.1/" xmlns:cc="http://creativecommons.org/ns#" xmlns:rdf="http://www.w3.org/1999/02/22-rdf-syntax-ns#">
   <cc:Work>
    <dc:type rdf:resource="http://purl.org/dc/dcmitype/StillImage"/>
    <dc:date>2026-06-30T04:48:46.808328</dc:date>
    <dc:format>image/svg+xml</dc:format>
    <dc:creator>
     <cc:Agent>
      <dc:title>Matplotlib v3.11.0, https://matplotlib.org/</dc:title>
     </cc:Agent>
    </dc:creator>
   </cc:Work>
  </rdf:RDF>
 </metadata>
 <defs>
  <style type="text/css">*{stroke-linejoin: round; stroke-linecap: butt}</style>
 </defs>
 <g id="figure_1">
  <g id="patch_1">
   <path d="M 0 122.4 
L 216 122.4 
L 216 0 
L 0 0 
L 0 122.4 
z
" style="fill: none; opacity: 0"/>
  </g>
  <g id="axes_1">
   <g id="patch_2">
    <path d="M 35.96 103.4 
L 211 103.4 
L 211 5 
L 35.96 5 
L 35.96 103.4 
z
" style="fill: none; opacity: 0"/>
   </g>
   <g id="matplotlib.axis_1">
    <g id="xtick_1">
     <g id="line2d_1">
      <path d="M 70.996911 103.4 
L 70.996911 5 
" clip-path="url(#p873e9c7193)" style="fill: none; stroke-dasharray: 2.96,1.28; stroke-dashoffset: 0; stroke: var(--grid-color); stroke-width: 0.8"/>
     </g>
     <g id="line2d_2">
      <defs>
       <path id="m797682efc7" d="M 0 0 
L 0 3.5 
" style="stroke: var(--fg-color); stroke-width: 0.8"/>
      </defs>
      <g>
       <use xlink:href="#m797682efc7" x="70.996911" y="103.4" style="fill: var(--fg-color); stroke: var(--fg-color); stroke-width: 0.8"/>
      </g>
     </g>
     <g id="text_1">
      <text style="font-size: 7px; font-family: 'DejaVu Sans', 'Bitstream Vera Sans', 'Computer Modern Sans Serif', 'Lucida Grande', 'Verdana', 'Geneva', 'Lucid', 'Arial', 'Helvetica', 'Avant Garde', sans-serif; text-anchor: middle; fill: var(--fg-color)" x="70.996911" y="115.718359" transform="rotate(-0 70.996911 115.718359)">02/2026</text>
     </g>
    </g>
    <g id="xtick_2">
     <g id="line2d_3">
      <path d="M 126.022656 103.4 
L 126.022656 5 
" clip-path="url(#p873e9c7193)" style="fill: none; stroke-dasharray: 2.96,1.28; stroke-dashoffset: 0; stroke: var(--grid-color); stroke-width: 0.8"/>
     </g>
     <g id="line2d_4">
      <g>
       <use xlink:href="#m797682efc7" x="126.022656" y="103.4" style="fill: var(--fg-color); stroke: var(--fg-color); stroke-width: 0.8"/>
      </g>
     </g>
     <g id="text_2">
      <text style="font-size: 7px; font-family: 'DejaVu Sans', 'Bitstream Vera Sans', 'Computer Modern Sans Serif', 'Lucida Grande', 'Verdana', 'Geneva', 'Lucid', 'Arial', 'Helvetica', 'Avant Garde', sans-serif; text-anchor: middle; fill: var(--fg-color)" x="126.022656" y="115.718359" transform="rotate(-0 126.022656 115.718359)">04/2026</text>
     </g>
    </g>
    <g id="xtick_3">
     <g id="line2d_5">
      <path d="M 182.913681 103.4 
L 182.913681 5 
" clip-path="url(#p873e9c7193)" style="fill: none; stroke-dasharray: 2.96,1.28; stroke-dashoffset: 0; stroke: var(--grid-color); stroke-width: 0.8"/>
     </g>
     <g id="line2d_6">
      <g>
       <use xlink:href="#m797682efc7" x="182.913681" y="103.4" style="fill: var(--fg-color); stroke: var(--fg-color); stroke-width: 0.8"/>
      </g>
     </g>
     <g id="text_3">
      <text style="font-size: 7px; font-family: 'DejaVu Sans', 'Bitstream Vera Sans', 'Computer Modern Sans Serif', 'Lucida Grande', 'Verdana', 'Geneva', 'Lucid', 'Arial', 'Helvetica', 'Avant Garde', sans-serif; text-anchor: middle; fill: var(--fg-color)" x="182.913681" y="115.718359" transform="rotate(-0 182.913681 115.718359)">06/2026</text>
     </g>
    </g>
   </g>
   <g id="matplotlib.axis_2">
    <g id="ytick_1">
     <g id="line2d_7">
      <path d="M 35.96 101.381549 
L 211 101.381549 
" clip-path="url(#p873e9c7193)" style="fill: none; stroke-dasharray: 2.96,1.28; stroke-dashoffset: 0; stroke: var(--grid-color); stroke-width: 0.8"/>
     </g>
     <g id="line2d_8">
      <defs>
       <path id="m34f3763188" d="M 0 0 
L -3.5 0 
" style="stroke: var(--fg-color); stroke-width: 0.8"/>
      </defs>
      <g>
       <use xlink:href="#m34f3763188" x="35.96" y="101.381549" style="fill: var(--fg-color); stroke: var(--fg-color); stroke-width: 0.8"/>
      </g>
     </g>
     <g id="text_4">
      <text style="font-size: 7px; font-family: 'DejaVu Sans', 'Bitstream Vera Sans', 'Computer Modern Sans Serif', 'Lucida Grande', 'Verdana', 'Geneva', 'Lucid', 'Arial', 'Helvetica', 'Avant Garde', sans-serif; text-anchor: end; fill: var(--fg-color)" x="28.96" y="104.040729" transform="rotate(-0 28.96 104.040729)">200</text>
     </g>
    </g>
    <g id="ytick_2">
     <g id="line2d_9">
      <path d="M 35.96 77.139388 
L 211 77.139388 
" clip-path="url(#p873e9c7193)" style="fill: none; stroke-dasharray: 2.96,1.28; stroke-dashoffset: 0; stroke: var(--grid-color); stroke-width: 0.8"/>
     </g>
     <g id="line2d_10">
      <g>
       <use xlink:href="#m34f3763188" x="35.96" y="77.139388" style="fill: var(--fg-color); stroke: var(--fg-color); stroke-width: 0.8"/>
      </g>
     </g>
     <g id="text_5">
      <text style="font-size: 7px; font-family: 'DejaVu Sans', 'Bitstream Vera Sans', 'Computer Modern Sans Serif', 'Lucida Grande', 'Verdana', 'Geneva', 'Lucid', 'Arial', 'Helvetica', 'Avant Garde', sans-serif; text-anchor: end; fill: var(--fg-color)" x="28.96" y="79.798567" transform="rotate(-0 28.96 79.798567)">250</text>
     </g>
    </g>
    <g id="ytick_3">
     <g id="line2d_11">
      <path d="M 35.96 52.897226 
L 211 52.897226 
" clip-path="url(#p873e9c7193)" style="fill: none; stroke-dasharray: 2.96,1.28; stroke-dashoffset: 0; stroke: var(--grid-color); stroke-width: 0.8"/>
     </g>
     <g id="line2d_12">
      <g>
       <use xlink:href="#m34f3763188" x="35.96" y="52.897226" style="fill: var(--fg-color); stroke: var(--fg-color); stroke-width: 0.8"/>
      </g>
     </g>
     <g id="text_6">
      <text style="font-size: 7px; font-family: 'DejaVu Sans', 'Bitstream Vera Sans', 'Computer Modern Sans Serif', 'Lucida Grande', 'Verdana', 'Geneva', 'Lucid', 'Arial', 'Helvetica', 'Avant Garde', sans-serif; text-anchor: end; fill: var(--fg-color)" x="28.96" y="55.556406" transform="rotate(-0 28.96 55.556406)">300</text>
     </g>
    </g>
    <g id="ytick_4">
     <g id="line2d_13">
      <path d="M 35.96 28.655065 
L 211 28.655065 
" clip-path="url(#p873e9c7193)" style="fill: none; stroke-dasharray: 2.96,1.28; stroke-dashoffset: 0; stroke: var(--grid-color); stroke-width: 0.8"/>
     </g>
     <g id="line2d_14">
      <g>
       <use xlink:href="#m34f3763188" x="35.96" y="28.655065" style="fill: var(--fg-color); stroke: var(--fg-color); stroke-width: 0.8"/>
      </g>
     </g>
     <g id="text_7">
      <text style="font-size: 7px; font-family: 'DejaVu Sans', 'Bitstream Vera Sans', 'Computer Modern Sans Serif', 'Lucida Grande', 'Verdana', 'Geneva', 'Lucid', 'Arial', 'Helvetica', 'Avant Garde', sans-serif; text-anchor: end; fill: var(--fg-color)" x="28.96" y="31.314244" transform="rotate(-0 28.96 31.314244)">350</text>
     </g>
    </g>
    <g id="text_8">
     <text style="font-size: 7px; font-family: 'DejaVu Sans', 'Bitstream Vera Sans', 'Computer Modern Sans Serif', 'Lucida Grande', 'Verdana', 'Geneva', 'Lucid', 'Arial', 'Helvetica', 'Avant Garde', sans-serif; text-anchor: middle; fill: var(--fg-color)" x="9.917109" y="54.2" transform="rotate(-90 9.917109 54.2)">ms</text>
    </g>
   </g>
   <g id="line2d_15">
    <path d="M 43.916364 52.888499 
L 44.494523 64.045227 
L 45.427166 68.017547 
L 46.359808 50.301376 
L 47.292453 84.656397 
L 48.22509 64.403041 
L 49.157727 71.879324 
L 50.090359 67.811974 
L 51.023007 50.38186 
L 51.95565 47.31959 
L 52.88829 74.888745 
L 53.82093 63.27675 
L 54.753566 66.57126 
L 55.686208 56.242645 
L 56.618849 50.572888 
L 57.551483 53.987154 
L 58.484126 68.510633 
L 59.416765 49.273993 
L 60.349406 65.453696 
L 61.282045 62.879663 
L 62.214684 71.671811 
L 63.147327 45.922756 
L 64.07996 40.707783 
L 65.012598 59.425155 
L 65.945245 53.390797 
L 66.877884 61.729131 
L 67.810526 77.113691 
L 68.743162 44.551135 
L 69.675784 58.781769 
L 70.608443 55.393199 
L 71.541078 68.347241 
L 72.473724 58.555832 
L 73.406361 55.212838 
L 74.339003 81.70855 
L 75.271637 63.511899 
L 76.204286 50.968035 
L 77.136912 67.525431 
L 78.069558 44.336834 
L 79.002199 38.2249 
L 79.934841 10.99659 
L 80.867465 26.025275 
L 81.800118 32.166784 
L 82.732742 59.386853 
L 83.665398 51.702573 
L 84.598038 58.279956 
L 85.53068 64.538312 
L 86.463316 51.430575 
L 87.395962 64.377344 
L 96.913595 69.359108 
L 97.655282 68.846629 
L 98.587939 67.07986 
L 99.520578 55.80677 
L 100.453222 54.676116 
L 101.385859 60.824898 
L 102.318497 59.497882 
L 103.251135 70.802487 
L 104.183773 81.311464 
L 105.116412 57.711235 
L 106.049054 44.513317 
L 106.981691 60.756535 
L 107.914333 58.055473 
L 108.846974 49.589626 
L 109.779613 68.608571 
L 110.71225 75.05941 
L 111.644893 33.733313 
L 112.57753 49.123691 
L 113.510173 44.152594 
L 114.442814 44.011504 
L 115.37545 49.705503 
L 116.308095 32.065452 
L 117.240726 71.331451 
L 118.173367 65.493938 
L 119.106014 70.434006 
L 120.038653 45.065069 
L 120.971293 58.121897 
L 121.903926 29.697478 
L 122.836569 51.478575 
L 123.769209 69.106505 
L 124.701847 55.77768 
L 125.634489 60.943684 
L 129.365046 44.612225 
L 130.297692 53.958063 
L 131.230328 59.614244 
L 132.162968 43.258058 
L 133.095609 55.611379 
L 134.028248 56.82979 
L 134.960891 65.496847 
L 135.893512 58.232926 
L 136.826165 47.610496 
L 137.75881 58.724072 
L 138.691446 62.727908 
L 139.624089 47.972189 
L 140.556726 60.116542 
L 141.489366 53.014073 
L 142.422003 45.558154 
L 143.354646 65.712118 
L 144.287298 37.39097 
L 145.219926 63.850804 
L 146.152567 52.034205 
L 147.085204 28.530945 
L 148.017844 63.221478 
L 148.950485 64.96255 
L 149.883123 57.139604 
L 150.815765 45.16931 
L 151.7484 53.739884 
L 179.727656 53.739884 
L 188.43171 67.795489 
L 189.054038 37.112185 
L 189.986678 49.604656 
L 190.919315 64.058802 
L 191.851955 52.807045 
L 192.7846 42.54146 
L 193.717237 29.863294 
L 194.649875 65.427999 
L 195.582513 62.841361 
L 196.515156 27.627682 
L 197.447798 26.93678 
L 198.380437 25.334374 
L 199.313081 45.378762 
L 200.245713 35.50493 
L 201.178356 50.222346 
L 202.110995 54.356604 
L 203.043636 9.472727 
" clip-path="url(#p873e9c7193)" style="fill: none; stroke: #339af0; stroke-width: 1.2; stroke-linecap: square"/>
   </g>
   <g id="line2d_16">
    <path d="M 43.916364 86.62583 
L 44.494523 92.823096 
L 45.427166 69.742135 
L 46.359808 78.271981 
L 47.292453 77.214538 
L 48.22509 91.385051 
L 49.157727 84.985121 
L 50.090359 54.935992 
L 51.023007 78.547857 
L 51.95565 58.348804 
L 52.88829 72.126594 
L 53.82093 83.30223 
L 54.753566 94.755197 
L 55.686208 77.762896 
L 56.618849 71.163695 
L 57.551483 83.498107 
L 58.484126 86.141957 
L 59.416765 77.985439 
L 60.349406 80.208445 
L 61.282045 64.17468 
L 62.214684 87.410792 
L 63.147327 82.625389 
L 64.07996 86.599164 
L 65.012598 98.927273 
L 65.945245 88.927381 
L 66.877884 94.577259 
L 67.810526 74.975048 
L 68.743162 96.974809 
L 69.675784 82.434845 
L 70.608443 78.964822 
L 71.541078 93.672057 
L 72.473724 83.142232 
L 73.406361 68.211969 
L 74.339003 68.190636 
L 75.271637 97.86886 
L 76.204286 91.958136 
L 77.136912 93.358363 
L 78.069558 85.103907 
L 79.002199 69.66262 
L 79.934841 90.992328 
L 80.867465 86.578801 
L 81.800118 84.830941 
L 82.732742 71.021636 
L 83.665398 87.081098 
L 84.598038 82.755812 
L 85.53068 76.090187 
L 86.463316 70.130009 
L 87.395962 98.453096 
L 96.913595 85.649356 
L 97.655282 96.612146 
L 98.587939 76.934784 
L 99.520578 86.534195 
L 100.453222 74.105724 
L 101.385859 76.409214 
L 102.318497 82.257878 
L 103.251135 96.445845 
L 104.183773 77.219872 
L 105.116412 96.306695 
L 106.049054 80.886741 
L 106.981691 88.492962 
L 107.914333 90.781422 
L 108.846974 66.046659 
L 109.779613 80.774742 
L 110.71225 94.65241 
L 111.644893 76.300609 
L 112.57753 97.704013 
L 113.510173 75.506436 
L 114.442814 82.402846 
L 115.37545 83.676529 
L 116.308095 75.096258 
L 117.240726 75.827887 
L 118.173367 93.480059 
L 119.106014 90.527364 
L 120.038653 72.289986 
L 120.971293 62.600394 
L 121.903926 82.727691 
L 122.836569 91.902864 
L 123.769209 76.001461 
L 124.701847 51.991539 
L 125.634489 57.254028 
L 129.365046 82.879932 
L 130.297692 89.297801 
L 131.230328 91.148933 
L 132.162968 77.050661 
L 133.095609 90.067248 
L 134.028248 78.827127 
L 134.960891 88.832837 
L 135.893512 85.851051 
L 136.826165 83.360896 
L 137.75881 71.749386 
L 138.691446 86.485711 
L 139.624089 78.253557 
L 140.556726 88.9012 
L 141.489366 72.174108 
L 142.422003 78.02859 
L 143.354646 80.939104 
L 144.287298 82.943446 
L 145.219926 75.968006 
L 146.152567 96.3993 
L 147.085204 90.176337 
L 148.017844 69.096323 
L 148.950485 76.584727 
L 149.883123 75.672252 
L 150.815765 70.495096 
L 151.7484 67.348948 
L 179.727656 67.348948 
L 188.43171 93.390848 
L 189.054038 94.344535 
L 189.986678 70.65267 
L 190.919315 72.305016 
L 191.851955 89.652707 
L 192.7846 88.576355 
L 193.717237 87.552366 
L 194.649875 87.537336 
L 195.582513 89.820462 
L 196.515156 81.927215 
L 197.447798 75.784251 
L 198.380437 95.612884 
L 199.313081 97.202685 
L 200.245713 83.538349 
L 201.178356 96.716872 
L 202.110995 67.697066 
L 203.043636 98.327522 
" clip-path="url(#p873e9c7193)" style="fill: none; stroke: #ff6b6b; stroke-width: 1.2; stroke-linecap: square"/>
   </g>
   <g id="patch_3">
    <path d="M 35.96 103.4 
L 35.96 5 
" style="fill: none; stroke: var(--fg-color); stroke-width: 0.8; stroke-linejoin: miter; stroke-linecap: square"/>
   </g>
   <g id="patch_4">
    <path d="M 35.96 103.4 
L 211 103.4 
" style="fill: none; stroke: var(--fg-color); stroke-width: 0.8; stroke-linejoin: miter; stroke-linecap: square"/>
   </g>
  </g>
 </g>
 <defs>
  <clipPath id="p873e9c7193">
   <rect x="35.96" y="5" width="175.04" height="98.4"/>
  </clipPath>
 </defs>
</svg>
