<?xml version="1.0" encoding="utf-8" standalone="no"?>
<!DOCTYPE svg PUBLIC "-//W3C//DTD SVG 1.1//EN"
  "http://www.w3.org/Graphics/SVG/1.1/DTD/svg11.dtd">
<svg xmlns:xlink="http://www.w3.org/1999/xlink" width="216pt" height="122.4pt" viewBox="0 0 216 122.4" xmlns="http://www.w3.org/2000/svg" version="1.1">
  <style>
    :root {
      --fg-color: #212529;
      --grid-color: rgba(33, 37, 41, 0.1);
    }
    @media (prefers-color-scheme: dark) {
      :root {
        --fg-color: #dee2e6;
        --grid-color: rgba(248, 249, 250, 0.15);
      }
    }
  </style>

 <metadata>
  <rdf:RDF xmlns:dc="http://purl.org/dc/elements/1.1/" xmlns:cc="http://creativecommons.org/ns#" xmlns:rdf="http://www.w3.org/1999/02/22-rdf-syntax-ns#">
   <cc:Work>
    <dc:type rdf:resource="http://purl.org/dc/dcmitype/StillImage"/>
    <dc:date>2026-06-30T15:36:55.257271</dc:date>
    <dc:format>image/svg+xml</dc:format>
    <dc:creator>
     <cc:Agent>
      <dc:title>Matplotlib v3.11.0, https://matplotlib.org/</dc:title>
     </cc:Agent>
    </dc:creator>
   </cc:Work>
  </rdf:RDF>
 </metadata>
 <defs>
  <style type="text/css">*{stroke-linejoin: round; stroke-linecap: butt}</style>
 </defs>
 <g id="figure_1">
  <g id="patch_1">
   <path d="M 0 122.4 
L 216 122.4 
L 216 0 
L 0 0 
L 0 122.4 
z
" style="fill: none; opacity: 0"/>
  </g>
  <g id="axes_1">
   <g id="patch_2">
    <path d="M 35.96 103.4 
L 211 103.4 
L 211 5 
L 35.96 5 
L 35.96 103.4 
z
" style="fill: none; opacity: 0"/>
   </g>
   <g id="matplotlib.axis_1">
    <g id="xtick_1">
     <g id="line2d_1">
      <path d="M 69.784035 103.4 
L 69.784035 5 
" clip-path="url(#pd19654a9f7)" style="fill: none; stroke-dasharray: 2.96,1.28; stroke-dashoffset: 0; stroke: var(--grid-color); stroke-width: 0.8"/>
     </g>
     <g id="line2d_2">
      <defs>
       <path id="m9e1d9b4f92" d="M 0 0 
L 0 3.5 
" style="stroke: var(--fg-color); stroke-width: 0.8"/>
      </defs>
      <g>
       <use xlink:href="#m9e1d9b4f92" x="69.784035" y="103.4" style="fill: var(--fg-color); stroke: var(--fg-color); stroke-width: 0.8"/>
      </g>
     </g>
     <g id="text_1">
      <text style="font-size: 7px; font-family: 'DejaVu Sans', 'Bitstream Vera Sans', 'Computer Modern Sans Serif', 'Lucida Grande', 'Verdana', 'Geneva', 'Lucid', 'Arial', 'Helvetica', 'Avant Garde', sans-serif; text-anchor: middle; fill: var(--fg-color)" x="69.784035" y="115.718359" transform="rotate(-0 69.784035 115.718359)">02/2026</text>
     </g>
    </g>
    <g id="xtick_2">
     <g id="line2d_3">
      <path d="M 122.345302 103.4 
L 122.345302 5 
" clip-path="url(#pd19654a9f7)" style="fill: none; stroke-dasharray: 2.96,1.28; stroke-dashoffset: 0; stroke: var(--grid-color); stroke-width: 0.8"/>
     </g>
     <g id="line2d_4">
      <g>
       <use xlink:href="#m9e1d9b4f92" x="122.345302" y="103.4" style="fill: var(--fg-color); stroke: var(--fg-color); stroke-width: 0.8"/>
      </g>
     </g>
     <g id="text_2">
      <text style="font-size: 7px; font-family: 'DejaVu Sans', 'Bitstream Vera Sans', 'Computer Modern Sans Serif', 'Lucida Grande', 'Verdana', 'Geneva', 'Lucid', 'Arial', 'Helvetica', 'Avant Garde', sans-serif; text-anchor: middle; fill: var(--fg-color)" x="122.345302" y="115.718359" transform="rotate(-0 122.345302 115.718359)">04/2026</text>
     </g>
    </g>
    <g id="xtick_3">
     <g id="line2d_5">
      <path d="M 176.688307 103.4 
L 176.688307 5 
" clip-path="url(#pd19654a9f7)" style="fill: none; stroke-dasharray: 2.96,1.28; stroke-dashoffset: 0; stroke: var(--grid-color); stroke-width: 0.8"/>
     </g>
     <g id="line2d_6">
      <g>
       <use xlink:href="#m9e1d9b4f92" x="176.688307" y="103.4" style="fill: var(--fg-color); stroke: var(--fg-color); stroke-width: 0.8"/>
      </g>
     </g>
     <g id="text_3">
      <text style="font-size: 7px; font-family: 'DejaVu Sans', 'Bitstream Vera Sans', 'Computer Modern Sans Serif', 'Lucida Grande', 'Verdana', 'Geneva', 'Lucid', 'Arial', 'Helvetica', 'Avant Garde', sans-serif; text-anchor: middle; fill: var(--fg-color)" x="176.688307" y="115.718359" transform="rotate(-0 176.688307 115.718359)">06/2026</text>
     </g>
    </g>
   </g>
   <g id="matplotlib.axis_2">
    <g id="ytick_1">
     <g id="line2d_7">
      <path d="M 35.96 100.974618 
L 211 100.974618 
" clip-path="url(#pd19654a9f7)" style="fill: none; stroke-dasharray: 2.96,1.28; stroke-dashoffset: 0; stroke: var(--grid-color); stroke-width: 0.8"/>
     </g>
     <g id="line2d_8">
      <defs>
       <path id="mb6a1808493" d="M 0 0 
L -3.5 0 
" style="stroke: var(--fg-color); stroke-width: 0.8"/>
      </defs>
      <g>
       <use xlink:href="#mb6a1808493" x="35.96" y="100.974618" style="fill: var(--fg-color); stroke: var(--fg-color); stroke-width: 0.8"/>
      </g>
     </g>
     <g id="text_4">
      <text style="font-size: 7px; font-family: 'DejaVu Sans', 'Bitstream Vera Sans', 'Computer Modern Sans Serif', 'Lucida Grande', 'Verdana', 'Geneva', 'Lucid', 'Arial', 'Helvetica', 'Avant Garde', sans-serif; text-anchor: end; fill: var(--fg-color)" x="28.96" y="103.633798" transform="rotate(-0 28.96 103.633798)">0</text>
     </g>
    </g>
    <g id="ytick_2">
     <g id="line2d_9">
      <path d="M 35.96 80.953637 
L 211 80.953637 
" clip-path="url(#pd19654a9f7)" style="fill: none; stroke-dasharray: 2.96,1.28; stroke-dashoffset: 0; stroke: var(--grid-color); stroke-width: 0.8"/>
     </g>
     <g id="line2d_10">
      <g>
       <use xlink:href="#mb6a1808493" x="35.96" y="80.953637" style="fill: var(--fg-color); stroke: var(--fg-color); stroke-width: 0.8"/>
      </g>
     </g>
     <g id="text_5">
      <text style="font-size: 7px; font-family: 'DejaVu Sans', 'Bitstream Vera Sans', 'Computer Modern Sans Serif', 'Lucida Grande', 'Verdana', 'Geneva', 'Lucid', 'Arial', 'Helvetica', 'Avant Garde', sans-serif; text-anchor: end; fill: var(--fg-color)" x="28.96" y="83.612817" transform="rotate(-0 28.96 83.612817)">100</text>
     </g>
    </g>
    <g id="ytick_3">
     <g id="line2d_11">
      <path d="M 35.96 60.932656 
L 211 60.932656 
" clip-path="url(#pd19654a9f7)" style="fill: none; stroke-dasharray: 2.96,1.28; stroke-dashoffset: 0; stroke: var(--grid-color); stroke-width: 0.8"/>
     </g>
     <g id="line2d_12">
      <g>
       <use xlink:href="#mb6a1808493" x="35.96" y="60.932656" style="fill: var(--fg-color); stroke: var(--fg-color); stroke-width: 0.8"/>
      </g>
     </g>
     <g id="text_6">
      <text style="font-size: 7px; font-family: 'DejaVu Sans', 'Bitstream Vera Sans', 'Computer Modern Sans Serif', 'Lucida Grande', 'Verdana', 'Geneva', 'Lucid', 'Arial', 'Helvetica', 'Avant Garde', sans-serif; text-anchor: end; fill: var(--fg-color)" x="28.96" y="63.591835" transform="rotate(-0 28.96 63.591835)">200</text>
     </g>
    </g>
    <g id="ytick_4">
     <g id="line2d_13">
      <path d="M 35.96 40.911674 
L 211 40.911674 
" clip-path="url(#pd19654a9f7)" style="fill: none; stroke-dasharray: 2.96,1.28; stroke-dashoffset: 0; stroke: var(--grid-color); stroke-width: 0.8"/>
     </g>
     <g id="line2d_14">
      <g>
       <use xlink:href="#mb6a1808493" x="35.96" y="40.911674" style="fill: var(--fg-color); stroke: var(--fg-color); stroke-width: 0.8"/>
      </g>
     </g>
     <g id="text_7">
      <text style="font-size: 7px; font-family: 'DejaVu Sans', 'Bitstream Vera Sans', 'Computer Modern Sans Serif', 'Lucida Grande', 'Verdana', 'Geneva', 'Lucid', 'Arial', 'Helvetica', 'Avant Garde', sans-serif; text-anchor: end; fill: var(--fg-color)" x="28.96" y="43.570854" transform="rotate(-0 28.96 43.570854)">300</text>
     </g>
    </g>
    <g id="ytick_5">
     <g id="line2d_15">
      <path d="M 35.96 20.890693 
L 211 20.890693 
" clip-path="url(#pd19654a9f7)" style="fill: none; stroke-dasharray: 2.96,1.28; stroke-dashoffset: 0; stroke: var(--grid-color); stroke-width: 0.8"/>
     </g>
     <g id="line2d_16">
      <g>
       <use xlink:href="#mb6a1808493" x="35.96" y="20.890693" style="fill: var(--fg-color); stroke: var(--fg-color); stroke-width: 0.8"/>
      </g>
     </g>
     <g id="text_8">
      <text style="font-size: 7px; font-family: 'DejaVu Sans', 'Bitstream Vera Sans', 'Computer Modern Sans Serif', 'Lucida Grande', 'Verdana', 'Geneva', 'Lucid', 'Arial', 'Helvetica', 'Avant Garde', sans-serif; text-anchor: end; fill: var(--fg-color)" x="28.96" y="23.549873" transform="rotate(-0 28.96 23.549873)">400</text>
     </g>
    </g>
    <g id="text_9">
     <text style="font-size: 7px; font-family: 'DejaVu Sans', 'Bitstream Vera Sans', 'Computer Modern Sans Serif', 'Lucida Grande', 'Verdana', 'Geneva', 'Lucid', 'Arial', 'Helvetica', 'Avant Garde', sans-serif; text-anchor: middle; fill: var(--fg-color)" x="9.917109" y="54.2" transform="rotate(-90 9.917109 54.2)">ms</text>
    </g>
   </g>
   <g id="line2d_17">
    <path d="M 43.916364 31.376281 
L 44.468628 80.270921 
L 45.3595 80.28814 
L 46.250371 81.470579 
L 47.141245 79.509123 
L 48.032112 78.88627 
L 48.922979 78.50407 
L 49.81384 75.378594 
L 50.704717 81.682601 
L 51.595589 79.968204 
L 52.486458 78.641013 
L 53.377327 80.741214 
L 54.268192 78.924711 
L 55.159063 79.825855 
L 56.049934 76.68156 
L 56.940797 72.679966 
L 57.831669 78.791171 
L 58.722538 78.735913 
L 59.613407 81.57649 
L 60.504275 79.018609 
L 61.395144 80.722194 
L 62.286016 74.247609 
L 63.176879 80.376232 
L 64.067746 81.369273 
L 64.958622 77.025721 
L 65.84949 81.540252 
L 66.740361 80.936219 
L 67.631226 80.805882 
L 68.522078 76.317579 
L 69.412965 77.519838 
L 70.30383 78.312069 
L 71.194705 78.694269 
L 72.085571 80.334588 
L 72.976442 79.247649 
L 73.867306 79.502917 
L 74.758184 80.033473 
L 75.649039 79.375383 
L 76.539914 81.539451 
L 77.430784 81.499409 
L 78.321655 77.832166 
L 79.212509 77.979921 
L 80.103391 72.180843 
L 80.994245 80.377834 
L 81.885129 77.872208 
L 82.775998 79.68751 
L 83.666869 80.217666 
L 84.557735 79.847278 
L 85.44861 80.152998 
L 94.53997 78.496061 
L 95.248438 81.213709 
L 96.139324 79.395404 
L 97.030192 78.840823 
L 97.921065 78.576746 
L 99.702798 79.842272 
L 100.593666 77.339049 
L 101.484533 81.420126 
L 102.375401 76.867154 
L 103.266272 75.392409 
L 105.048009 78.682257 
L 105.93888 80.763037 
L 106.829748 80.437696 
L 107.720614 78.678052 
L 108.611487 78.376736 
L 109.502352 80.614081 
L 110.393224 80.732205 
L 111.284094 78.476841 
L 112.17496 79.247048 
L 113.065834 78.42739 
L 113.956695 81.482591 
L 114.847564 77.36828 
L 115.738441 81.035523 
L 116.629309 76.799283 
L 117.520178 78.488053 
L 118.41104 78.925111 
L 119.301913 80.414272 
L 120.192782 80.303556 
L 121.083649 78.543111 
L 121.97452 78.642815 
L 126.428869 77.343654 
L 127.319734 79.215415 
L 128.210603 79.27728 
L 129.101474 77.064762 
L 129.992342 78.336294 
L 130.883214 76.149002 
L 131.774065 79.62044 
L 132.664946 79.159957 
L 133.55582 75.251862 
L 134.446686 79.530946 
L 135.337558 80.909791 
L 136.228424 76.865152 
L 137.119294 77.876012 
L 138.010159 80.616484 
L 138.901032 73.325643 
L 139.791912 76.427494 
L 140.68277 77.250756 
L 141.57364 79.139336 
L 142.464507 75.204812 
L 143.355376 79.22983 
L 144.246246 77.134835 
L 145.137113 73.050555 
L 146.027984 79.46788 
L 146.918849 78.187138 
L 173.644977 78.187138 
L 181.959197 77.230936 
L 182.553652 82.563324 
L 183.444521 78.25581 
L 184.335387 78.258012 
L 186.117131 73.495421 
L 187.007996 77.711439 
L 187.898864 64.697201 
L 188.789731 78.239593 
L 189.680603 76.553426 
L 190.571474 73.425348 
L 191.462343 68.854557 
L 192.353215 74.533509 
L 193.244077 78.255409 
L 194.134949 9.472727 
L 195.025817 78.522489 
L 195.916688 65.868028 
L 196.807557 77.982123 
L 197.698426 78.768747 
L 198.589295 76.274333 
L 199.480162 67.237263 
L 200.371032 77.98853 
L 201.261898 76.970463 
L 202.152766 81.082972 
L 203.043636 80.580246 
L 203.043636 80.580246 
" clip-path="url(#pd19654a9f7)" style="fill: none; stroke: #339af0; stroke-width: 1.2; stroke-linecap: square"/>
   </g>
   <g id="line2d_18">
    <path d="M 43.916364 98.273387 
L 44.468628 98.278793 
L 45.3595 98.122629 
L 46.250371 98.884428 
L 47.141245 98.041344 
L 48.922979 98.282197 
L 49.81384 97.858353 
L 50.704717 98.06557 
L 51.595589 98.403724 
L 52.486458 97.891587 
L 53.377327 97.882778 
L 54.268192 98.025528 
L 55.159063 98.498423 
L 56.049934 97.800292 
L 57.831669 98.080185 
L 58.722538 97.831124 
L 59.613407 98.584914 
L 60.504275 98.057561 
L 61.395144 98.14265 
L 62.286016 97.994896 
L 63.176879 98.207518 
L 64.067746 97.826519 
L 64.958622 97.777868 
L 65.84949 98.200311 
L 66.740361 98.405126 
L 68.522078 97.934432 
L 69.412965 97.939237 
L 70.30383 98.140048 
L 71.194705 98.06617 
L 72.976442 98.438561 
L 73.867306 97.787078 
L 74.758184 98.210121 
L 75.649039 98.364483 
L 76.539914 97.984685 
L 77.430784 98.641173 
L 78.321655 98.32344 
L 79.212509 98.430752 
L 80.103391 98.413134 
L 80.994245 97.915012 
L 81.885129 98.58071 
L 82.775998 98.255369 
L 83.666869 96.102312 
L 84.557735 98.360879 
L 85.44861 98.181091 
L 95.248438 98.30442 
L 97.030192 97.889185 
L 97.921065 98.124231 
L 98.811931 98.53346 
L 99.702798 98.549277 
L 101.484533 98.821162 
L 102.375401 97.733021 
L 104.157138 98.45678 
L 105.048009 98.315231 
L 105.93888 98.844386 
L 106.829748 98.721457 
L 107.720614 98.735872 
L 108.611487 98.108815 
L 109.502352 98.749286 
L 111.284094 98.292007 
L 112.17496 98.709244 
L 113.065834 98.679413 
L 113.956695 98.859402 
L 114.847564 98.586516 
L 115.738441 98.627559 
L 116.629309 98.338656 
L 117.520178 98.551279 
L 118.41104 98.152261 
L 119.301913 98.56209 
L 121.083649 98.561089 
L 121.97452 98.611342 
L 125.537994 98.392913 
L 126.428869 98.587917 
L 127.319734 98.388909 
L 128.210603 98.728665 
L 129.101474 98.03694 
L 129.992342 98.550878 
L 130.883214 97.852546 
L 131.774065 98.653185 
L 133.55582 98.134442 
L 134.446686 98.726662 
L 136.228424 98.163472 
L 137.119294 98.347465 
L 138.010159 98.771109 
L 138.901032 98.086992 
L 139.791912 98.458782 
L 140.68277 98.413134 
L 141.57364 98.573702 
L 142.464507 98.245959 
L 144.246246 98.439361 
L 145.137113 98.276591 
L 146.027984 98.509435 
L 146.918849 98.065369 
L 173.644977 98.065369 
L 181.959197 98.370089 
L 182.553652 98.927273 
L 183.444521 98.238351 
L 184.335387 98.654987 
L 185.226256 98.396517 
L 186.117131 97.888384 
L 187.898864 98.35167 
L 188.789731 98.640772 
L 189.680603 98.259973 
L 190.571474 98.327044 
L 191.462343 98.038141 
L 192.353215 98.232144 
L 193.244077 98.680014 
L 194.134949 98.219331 
L 195.025817 98.382702 
L 195.916688 94.798746 
L 196.807557 98.879423 
L 198.589295 98.383903 
L 199.480162 98.330647 
L 200.371032 98.711046 
L 202.152766 98.839381 
L 203.043636 98.725661 
L 203.043636 98.725661 
" clip-path="url(#pd19654a9f7)" style="fill: none; stroke: #ff6b6b; stroke-width: 1.2; stroke-linecap: square"/>
   </g>
   <g id="patch_3">
    <path d="M 35.96 103.4 
L 35.96 5 
" style="fill: none; stroke: var(--fg-color); stroke-width: 0.8; stroke-linejoin: miter; stroke-linecap: square"/>
   </g>
   <g id="patch_4">
    <path d="M 35.96 103.4 
L 211 103.4 
" style="fill: none; stroke: var(--fg-color); stroke-width: 0.8; stroke-linejoin: miter; stroke-linecap: square"/>
   </g>
  </g>
 </g>
 <defs>
  <clipPath id="pd19654a9f7">
   <rect x="35.96" y="5" width="175.04" height="98.4"/>
  </clipPath>
 </defs>
</svg>
