<?xml version="1.0" encoding="utf-8" standalone="no"?>
<!DOCTYPE svg PUBLIC "-//W3C//DTD SVG 1.1//EN"
  "http://www.w3.org/Graphics/SVG/1.1/DTD/svg11.dtd">
<svg xmlns:xlink="http://www.w3.org/1999/xlink" width="216pt" height="122.4pt" viewBox="0 0 216 122.4" xmlns="http://www.w3.org/2000/svg" version="1.1">
  <style>
    :root {
      --fg-color: #212529;
      --grid-color: rgba(33, 37, 41, 0.1);
    }
    @media (prefers-color-scheme: dark) {
      :root {
        --fg-color: #dee2e6;
        --grid-color: rgba(248, 249, 250, 0.15);
      }
    }
  </style>

 <metadata>
  <rdf:RDF xmlns:dc="http://purl.org/dc/elements/1.1/" xmlns:cc="http://creativecommons.org/ns#" xmlns:rdf="http://www.w3.org/1999/02/22-rdf-syntax-ns#">
   <cc:Work>
    <dc:type rdf:resource="http://purl.org/dc/dcmitype/StillImage"/>
    <dc:date>2026-06-30T04:48:58.391753</dc:date>
    <dc:format>image/svg+xml</dc:format>
    <dc:creator>
     <cc:Agent>
      <dc:title>Matplotlib v3.11.0, https://matplotlib.org/</dc:title>
     </cc:Agent>
    </dc:creator>
   </cc:Work>
  </rdf:RDF>
 </metadata>
 <defs>
  <style type="text/css">*{stroke-linejoin: round; stroke-linecap: butt}</style>
 </defs>
 <g id="figure_1">
  <g id="patch_1">
   <path d="M 0 122.4 
L 216 122.4 
L 216 0 
L 0 0 
L 0 122.4 
z
" style="fill: none; opacity: 0"/>
  </g>
  <g id="axes_1">
   <g id="patch_2">
    <path d="M 35.96 103.4 
L 211 103.4 
L 211 5 
L 35.96 5 
L 35.96 103.4 
z
" style="fill: none; opacity: 0"/>
   </g>
   <g id="matplotlib.axis_1">
    <g id="xtick_1">
     <g id="line2d_1">
      <path d="M 70.996911 103.4 
L 70.996911 5 
" clip-path="url(#p187ee5b0a8)" style="fill: none; stroke-dasharray: 2.96,1.28; stroke-dashoffset: 0; stroke: var(--grid-color); stroke-width: 0.8"/>
     </g>
     <g id="line2d_2">
      <defs>
       <path id="ma118a0fc8a" d="M 0 0 
L 0 3.5 
" style="stroke: var(--fg-color); stroke-width: 0.8"/>
      </defs>
      <g>
       <use xlink:href="#ma118a0fc8a" x="70.996911" y="103.4" style="fill: var(--fg-color); stroke: var(--fg-color); stroke-width: 0.8"/>
      </g>
     </g>
     <g id="text_1">
      <text style="font-size: 7px; font-family: 'DejaVu Sans', 'Bitstream Vera Sans', 'Computer Modern Sans Serif', 'Lucida Grande', 'Verdana', 'Geneva', 'Lucid', 'Arial', 'Helvetica', 'Avant Garde', sans-serif; text-anchor: middle; fill: var(--fg-color)" x="70.996911" y="115.718359" transform="rotate(-0 70.996911 115.718359)">02/2026</text>
     </g>
    </g>
    <g id="xtick_2">
     <g id="line2d_3">
      <path d="M 126.022656 103.4 
L 126.022656 5 
" clip-path="url(#p187ee5b0a8)" style="fill: none; stroke-dasharray: 2.96,1.28; stroke-dashoffset: 0; stroke: var(--grid-color); stroke-width: 0.8"/>
     </g>
     <g id="line2d_4">
      <g>
       <use xlink:href="#ma118a0fc8a" x="126.022656" y="103.4" style="fill: var(--fg-color); stroke: var(--fg-color); stroke-width: 0.8"/>
      </g>
     </g>
     <g id="text_2">
      <text style="font-size: 7px; font-family: 'DejaVu Sans', 'Bitstream Vera Sans', 'Computer Modern Sans Serif', 'Lucida Grande', 'Verdana', 'Geneva', 'Lucid', 'Arial', 'Helvetica', 'Avant Garde', sans-serif; text-anchor: middle; fill: var(--fg-color)" x="126.022656" y="115.718359" transform="rotate(-0 126.022656 115.718359)">04/2026</text>
     </g>
    </g>
    <g id="xtick_3">
     <g id="line2d_5">
      <path d="M 182.913681 103.4 
L 182.913681 5 
" clip-path="url(#p187ee5b0a8)" style="fill: none; stroke-dasharray: 2.96,1.28; stroke-dashoffset: 0; stroke: var(--grid-color); stroke-width: 0.8"/>
     </g>
     <g id="line2d_6">
      <g>
       <use xlink:href="#ma118a0fc8a" x="182.913681" y="103.4" style="fill: var(--fg-color); stroke: var(--fg-color); stroke-width: 0.8"/>
      </g>
     </g>
     <g id="text_3">
      <text style="font-size: 7px; font-family: 'DejaVu Sans', 'Bitstream Vera Sans', 'Computer Modern Sans Serif', 'Lucida Grande', 'Verdana', 'Geneva', 'Lucid', 'Arial', 'Helvetica', 'Avant Garde', sans-serif; text-anchor: middle; fill: var(--fg-color)" x="182.913681" y="115.718359" transform="rotate(-0 182.913681 115.718359)">06/2026</text>
     </g>
    </g>
   </g>
   <g id="matplotlib.axis_2">
    <g id="ytick_1">
     <g id="line2d_7">
      <path d="M 35.96 99.623384 
L 211 99.623384 
" clip-path="url(#p187ee5b0a8)" style="fill: none; stroke-dasharray: 2.96,1.28; stroke-dashoffset: 0; stroke: var(--grid-color); stroke-width: 0.8"/>
     </g>
     <g id="line2d_8">
      <defs>
       <path id="mfa56ff0d69" d="M 0 0 
L -3.5 0 
" style="stroke: var(--fg-color); stroke-width: 0.8"/>
      </defs>
      <g>
       <use xlink:href="#mfa56ff0d69" x="35.96" y="99.623384" style="fill: var(--fg-color); stroke: var(--fg-color); stroke-width: 0.8"/>
      </g>
     </g>
     <g id="text_4">
      <text style="font-size: 7px; font-family: 'DejaVu Sans', 'Bitstream Vera Sans', 'Computer Modern Sans Serif', 'Lucida Grande', 'Verdana', 'Geneva', 'Lucid', 'Arial', 'Helvetica', 'Avant Garde', sans-serif; text-anchor: end; fill: var(--fg-color)" x="28.96" y="102.282564" transform="rotate(-0 28.96 102.282564)">0</text>
     </g>
    </g>
    <g id="ytick_2">
     <g id="line2d_9">
      <path d="M 35.96 76.687262 
L 211 76.687262 
" clip-path="url(#p187ee5b0a8)" style="fill: none; stroke-dasharray: 2.96,1.28; stroke-dashoffset: 0; stroke: var(--grid-color); stroke-width: 0.8"/>
     </g>
     <g id="line2d_10">
      <g>
       <use xlink:href="#mfa56ff0d69" x="35.96" y="76.687262" style="fill: var(--fg-color); stroke: var(--fg-color); stroke-width: 0.8"/>
      </g>
     </g>
     <g id="text_5">
      <text style="font-size: 7px; font-family: 'DejaVu Sans', 'Bitstream Vera Sans', 'Computer Modern Sans Serif', 'Lucida Grande', 'Verdana', 'Geneva', 'Lucid', 'Arial', 'Helvetica', 'Avant Garde', sans-serif; text-anchor: end; fill: var(--fg-color)" x="28.96" y="79.346442" transform="rotate(-0 28.96 79.346442)">100</text>
     </g>
    </g>
    <g id="ytick_3">
     <g id="line2d_11">
      <path d="M 35.96 53.75114 
L 211 53.75114 
" clip-path="url(#p187ee5b0a8)" style="fill: none; stroke-dasharray: 2.96,1.28; stroke-dashoffset: 0; stroke: var(--grid-color); stroke-width: 0.8"/>
     </g>
     <g id="line2d_12">
      <g>
       <use xlink:href="#mfa56ff0d69" x="35.96" y="53.75114" style="fill: var(--fg-color); stroke: var(--fg-color); stroke-width: 0.8"/>
      </g>
     </g>
     <g id="text_6">
      <text style="font-size: 7px; font-family: 'DejaVu Sans', 'Bitstream Vera Sans', 'Computer Modern Sans Serif', 'Lucida Grande', 'Verdana', 'Geneva', 'Lucid', 'Arial', 'Helvetica', 'Avant Garde', sans-serif; text-anchor: end; fill: var(--fg-color)" x="28.96" y="56.41032" transform="rotate(-0 28.96 56.41032)">200</text>
     </g>
    </g>
    <g id="ytick_4">
     <g id="line2d_13">
      <path d="M 35.96 30.815018 
L 211 30.815018 
" clip-path="url(#p187ee5b0a8)" style="fill: none; stroke-dasharray: 2.96,1.28; stroke-dashoffset: 0; stroke: var(--grid-color); stroke-width: 0.8"/>
     </g>
     <g id="line2d_14">
      <g>
       <use xlink:href="#mfa56ff0d69" x="35.96" y="30.815018" style="fill: var(--fg-color); stroke: var(--fg-color); stroke-width: 0.8"/>
      </g>
     </g>
     <g id="text_7">
      <text style="font-size: 7px; font-family: 'DejaVu Sans', 'Bitstream Vera Sans', 'Computer Modern Sans Serif', 'Lucida Grande', 'Verdana', 'Geneva', 'Lucid', 'Arial', 'Helvetica', 'Avant Garde', sans-serif; text-anchor: end; fill: var(--fg-color)" x="28.96" y="33.474198" transform="rotate(-0 28.96 33.474198)">300</text>
     </g>
    </g>
    <g id="ytick_5">
     <g id="line2d_15">
      <path d="M 35.96 7.878896 
L 211 7.878896 
" clip-path="url(#p187ee5b0a8)" style="fill: none; stroke-dasharray: 2.96,1.28; stroke-dashoffset: 0; stroke: var(--grid-color); stroke-width: 0.8"/>
     </g>
     <g id="line2d_16">
      <g>
       <use xlink:href="#mfa56ff0d69" x="35.96" y="7.878896" style="fill: var(--fg-color); stroke: var(--fg-color); stroke-width: 0.8"/>
      </g>
     </g>
     <g id="text_8">
      <text style="font-size: 7px; font-family: 'DejaVu Sans', 'Bitstream Vera Sans', 'Computer Modern Sans Serif', 'Lucida Grande', 'Verdana', 'Geneva', 'Lucid', 'Arial', 'Helvetica', 'Avant Garde', sans-serif; text-anchor: end; fill: var(--fg-color)" x="28.96" y="10.538076" transform="rotate(-0 28.96 10.538076)">400</text>
     </g>
    </g>
    <g id="text_9">
     <text style="font-size: 7px; font-family: 'DejaVu Sans', 'Bitstream Vera Sans', 'Computer Modern Sans Serif', 'Lucida Grande', 'Verdana', 'Geneva', 'Lucid', 'Arial', 'Helvetica', 'Avant Garde', sans-serif; text-anchor: middle; fill: var(--fg-color)" x="9.917109" y="54.2" transform="rotate(-90 9.917109 54.2)">ms</text>
    </g>
   </g>
   <g id="line2d_17">
    <path d="M 43.916364 14.989553 
L 44.494523 48.753818 
L 45.427166 43.947553 
L 46.359808 39.4929 
L 47.292453 27.326663 
L 48.22509 9.472727 
L 49.157727 44.974174 
L 50.090359 41.574812 
L 51.023007 38.334396 
L 51.95565 39.702077 
L 52.88829 36.795612 
L 53.82093 48.335004 
L 54.753566 37.812829 
L 55.686208 43.95971 
L 56.618849 34.602689 
L 57.551483 41.519306 
L 58.484126 47.30609 
L 59.416765 45.056744 
L 60.349406 42.430788 
L 61.282045 44.534489 
L 62.214684 50.167142 
L 63.147327 31.443697 
L 64.07996 44.109712 
L 65.012598 55.126619 
L 65.945245 45.516155 
L 66.877884 44.22164 
L 67.810526 28.189979 
L 68.743162 45.678543 
L 69.675784 35.178615 
L 70.608443 48.793039 
L 71.541078 36.224502 
L 72.473724 38.468114 
L 73.406361 46.132907 
L 74.339003 29.191599 
L 75.271637 48.063899 
L 76.204286 44.297559 
L 77.136912 42.361521 
L 78.069558 44.358798 
L 79.002199 50.3543 
L 79.934841 46.241854 
L 80.867465 41.549811 
L 81.800118 19.778156 
L 82.732742 34.619662 
L 83.665398 48.430419 
L 84.598038 38.790596 
L 85.53068 32.389583 
L 86.463316 41.760136 
L 87.395962 37.337134 
L 96.913595 45.086332 
L 97.655282 47.863667 
L 98.587939 41.425727 
L 99.520578 42.273675 
L 100.453222 27.708091 
L 101.385859 46.048044 
L 102.318497 43.228506 
L 103.251135 31.743702 
L 104.183773 46.794156 
L 105.116412 22.535307 
L 106.049054 45.720286 
L 106.981691 44.457194 
L 107.914333 45.108351 
L 108.846974 32.601742 
L 109.779613 22.754347 
L 110.71225 31.890034 
L 111.644893 34.715764 
L 112.57753 26.202335 
L 113.510173 44.613389 
L 114.442814 42.746847 
L 115.37545 40.978014 
L 116.308095 23.211694 
L 117.240726 52.075656 
L 118.173367 38.908946 
L 119.106014 40.994069 
L 120.038653 48.816892 
L 120.971293 40.618375 
L 121.903926 31.835217 
L 122.836569 45.605835 
L 123.769209 47.11205 
L 124.701847 46.154926 
L 125.634489 27.375288 
L 129.365046 40.360115 
L 130.297692 28.487002 
L 131.230328 19.414619 
L 132.162968 36.296293 
L 133.095609 48.226058 
L 134.028248 31.09094 
L 134.960891 29.995052 
L 135.893512 43.357866 
L 136.826165 48.53753 
L 137.75881 31.52168 
L 138.691446 49.138686 
L 139.624089 38.173385 
L 140.556726 24.697266 
L 141.489366 37.534843 
L 142.422003 40.672275 
L 143.354646 32.944866 
L 144.287298 34.379062 
L 145.219926 32.190039 
L 146.152567 22.123833 
L 147.085204 45.096424 
L 148.017844 34.941456 
L 148.950485 40.439015 
L 149.883123 30.633593 
L 150.815765 40.658055 
L 151.7484 31.908612 
L 179.727656 31.908612 
L 188.43171 43.507639 
L 189.054038 32.213433 
L 189.986678 29.649404 
L 190.919315 50.466229 
L 191.851955 38.799541 
L 192.7846 48.660468 
L 193.717237 36.066931 
L 194.649875 33.307716 
L 195.582513 50.797885 
L 196.515156 43.14823 
L 197.447798 42.106471 
L 198.380437 36.726574 
L 199.313081 30.251019 
L 200.245713 46.204009 
L 201.178356 38.726145 
L 202.110995 40.671817 
L 203.043636 52.056849 
" clip-path="url(#p187ee5b0a8)" style="fill: none; stroke: #339af0; stroke-width: 1.2; stroke-linecap: square"/>
   </g>
   <g id="line2d_18">
    <path d="M 43.916364 96.460952 
L 44.494523 96.959124 
L 45.427166 97.203394 
L 46.359808 96.373794 
L 47.292453 96.501319 
L 48.22509 95.820575 
L 49.157727 96.500402 
L 50.090359 96.361638 
L 51.023007 95.745115 
L 51.95565 96.340308 
L 52.88829 96.940775 
L 53.82093 95.779749 
L 54.753566 97.023116 
L 55.686208 96.841921 
L 56.618849 96.455218 
L 57.551483 96.250857 
L 58.484126 97.425186 
L 59.416765 96.454529 
L 60.349406 96.47219 
L 61.282045 96.631367 
L 62.214684 96.07723 
L 63.147327 97.229541 
L 64.07996 97.311882 
L 65.012598 96.937564 
L 65.945245 96.749029 
L 66.877884 96.44696 
L 67.810526 95.607498 
L 68.743162 95.865071 
L 69.675784 96.302922 
L 70.608443 96.979537 
L 71.541078 96.478612 
L 72.473724 97.10775 
L 73.406361 96.899949 
L 74.339003 96.602467 
L 75.271637 97.103851 
L 76.204286 97.618538 
L 77.136912 96.380904 
L 78.069558 96.963253 
L 79.002199 96.724488 
L 79.934841 96.273105 
L 80.867465 96.189847 
L 81.800118 96.255215 
L 82.732742 96.715772 
L 83.665398 97.47771 
L 84.598038 96.402694 
L 85.53068 96.593064 
L 86.463316 96.290536 
L 87.395962 96.268517 
L 96.913595 96.938252 
L 97.655282 96.839856 
L 98.587939 96.027459 
L 99.520578 96.40407 
L 100.453222 96.546962 
L 101.385859 96.569669 
L 102.318497 97.823128 
L 103.251135 96.523108 
L 104.183773 96.528384 
L 105.116412 96.157507 
L 106.049054 97.180228 
L 106.981691 97.105686 
L 107.914333 96.768525 
L 108.846974 96.507282 
L 109.779613 96.935041 
L 110.71225 96.736414 
L 111.644893 97.601794 
L 112.57753 96.46508 
L 113.510173 97.42037 
L 114.442814 96.136405 
L 115.37545 96.75958 
L 116.308095 97.343075 
L 117.240726 97.114402 
L 118.173367 96.832058 
L 119.106014 96.258884 
L 120.038653 96.990547 
L 120.971293 96.755681 
L 121.903926 97.090319 
L 122.836569 97.606152 
L 123.769209 97.484591 
L 124.701847 97.130916 
L 125.634489 97.224036 
L 129.365046 97.735741 
L 130.297692 97.428397 
L 131.230328 96.766231 
L 132.162968 96.33595 
L 133.095609 96.912793 
L 134.028248 96.307509 
L 134.960891 96.868526 
L 135.893512 96.738479 
L 136.826165 96.555219 
L 137.75881 96.161176 
L 138.691446 96.035257 
L 139.624089 97.392846 
L 140.556726 97.517848 
L 141.489366 96.73068 
L 142.422003 96.868985 
L 143.354646 95.956357 
L 144.287298 96.847196 
L 145.219926 96.995593 
L 146.152567 96.731827 
L 147.085204 96.811645 
L 148.017844 96.824489 
L 148.950485 96.834581 
L 149.883123 96.838939 
L 150.815765 97.346286 
L 151.7484 96.016908 
L 179.727656 96.016908 
L 188.43171 96.354069 
L 189.054038 95.789382 
L 189.986678 96.63733 
L 190.919315 96.616688 
L 191.851955 95.946265 
L 192.7846 96.23526 
L 193.717237 96.4832 
L 194.649875 96.621504 
L 195.582513 96.720359 
L 196.515156 97.047428 
L 197.447798 96.146268 
L 198.380437 96.133424 
L 199.313081 97.169678 
L 200.245713 96.272187 
L 201.178356 98.8814 
L 202.110995 98.927273 
L 203.043636 98.85273 
" clip-path="url(#p187ee5b0a8)" style="fill: none; stroke: #ff6b6b; stroke-width: 1.2; stroke-linecap: square"/>
   </g>
   <g id="patch_3">
    <path d="M 35.96 103.4 
L 35.96 5 
" style="fill: none; stroke: var(--fg-color); stroke-width: 0.8; stroke-linejoin: miter; stroke-linecap: square"/>
   </g>
   <g id="patch_4">
    <path d="M 35.96 103.4 
L 211 103.4 
" style="fill: none; stroke: var(--fg-color); stroke-width: 0.8; stroke-linejoin: miter; stroke-linecap: square"/>
   </g>
  </g>
 </g>
 <defs>
  <clipPath id="p187ee5b0a8">
   <rect x="35.96" y="5" width="175.04" height="98.4"/>
  </clipPath>
 </defs>
</svg>
