<?xml version="1.0" encoding="utf-8" standalone="no"?>
<!DOCTYPE svg PUBLIC "-//W3C//DTD SVG 1.1//EN"
  "http://www.w3.org/Graphics/SVG/1.1/DTD/svg11.dtd">
<svg xmlns:xlink="http://www.w3.org/1999/xlink" width="216pt" height="122.4pt" viewBox="0 0 216 122.4" xmlns="http://www.w3.org/2000/svg" version="1.1">
  <style>
    :root {
      --fg-color: #212529;
      --grid-color: rgba(33, 37, 41, 0.1);
    }
    @media (prefers-color-scheme: dark) {
      :root {
        --fg-color: #dee2e6;
        --grid-color: rgba(248, 249, 250, 0.15);
      }
    }
  </style>

 <metadata>
  <rdf:RDF xmlns:dc="http://purl.org/dc/elements/1.1/" xmlns:cc="http://creativecommons.org/ns#" xmlns:rdf="http://www.w3.org/1999/02/22-rdf-syntax-ns#">
   <cc:Work>
    <dc:type rdf:resource="http://purl.org/dc/dcmitype/StillImage"/>
    <dc:date>2026-06-30T15:36:44.953891</dc:date>
    <dc:format>image/svg+xml</dc:format>
    <dc:creator>
     <cc:Agent>
      <dc:title>Matplotlib v3.11.0, https://matplotlib.org/</dc:title>
     </cc:Agent>
    </dc:creator>
   </cc:Work>
  </rdf:RDF>
 </metadata>
 <defs>
  <style type="text/css">*{stroke-linejoin: round; stroke-linecap: butt}</style>
 </defs>
 <g id="figure_1">
  <g id="patch_1">
   <path d="M 0 122.4 
L 216 122.4 
L 216 0 
L 0 0 
L 0 122.4 
z
" style="fill: none; opacity: 0"/>
  </g>
  <g id="axes_1">
   <g id="patch_2">
    <path d="M 31.64 103.4 
L 211 103.4 
L 211 5 
L 31.64 5 
L 31.64 103.4 
z
" style="fill: none; opacity: 0"/>
   </g>
   <g id="matplotlib.axis_1">
    <g id="xtick_1">
     <g id="line2d_1">
      <path d="M 66.298815 103.4 
L 66.298815 5 
" clip-path="url(#p1061dac9fa)" style="fill: none; stroke-dasharray: 2.96,1.28; stroke-dashoffset: 0; stroke: var(--grid-color); stroke-width: 0.8"/>
     </g>
     <g id="line2d_2">
      <defs>
       <path id="m032287df61" d="M 0 0 
L 0 3.5 
" style="stroke: var(--fg-color); stroke-width: 0.8"/>
      </defs>
      <g>
       <use xlink:href="#m032287df61" x="66.298815" y="103.4" style="fill: var(--fg-color); stroke: var(--fg-color); stroke-width: 0.8"/>
      </g>
     </g>
     <g id="text_1">
      <text style="font-size: 7px; font-family: 'DejaVu Sans', 'Bitstream Vera Sans', 'Computer Modern Sans Serif', 'Lucida Grande', 'Verdana', 'Geneva', 'Lucid', 'Arial', 'Helvetica', 'Avant Garde', sans-serif; text-anchor: middle; fill: var(--fg-color)" x="66.298815" y="115.718359" transform="rotate(-0 66.298815 115.718359)">02/2026</text>
     </g>
    </g>
    <g id="xtick_2">
     <g id="line2d_3">
      <path d="M 120.157298 103.4 
L 120.157298 5 
" clip-path="url(#p1061dac9fa)" style="fill: none; stroke-dasharray: 2.96,1.28; stroke-dashoffset: 0; stroke: var(--grid-color); stroke-width: 0.8"/>
     </g>
     <g id="line2d_4">
      <g>
       <use xlink:href="#m032287df61" x="120.157298" y="103.4" style="fill: var(--fg-color); stroke: var(--fg-color); stroke-width: 0.8"/>
      </g>
     </g>
     <g id="text_2">
      <text style="font-size: 7px; font-family: 'DejaVu Sans', 'Bitstream Vera Sans', 'Computer Modern Sans Serif', 'Lucida Grande', 'Verdana', 'Geneva', 'Lucid', 'Arial', 'Helvetica', 'Avant Garde', sans-serif; text-anchor: middle; fill: var(--fg-color)" x="120.157298" y="115.718359" transform="rotate(-0 120.157298 115.718359)">04/2026</text>
     </g>
    </g>
    <g id="xtick_3">
     <g id="line2d_5">
      <path d="M 175.841492 103.4 
L 175.841492 5 
" clip-path="url(#p1061dac9fa)" style="fill: none; stroke-dasharray: 2.96,1.28; stroke-dashoffset: 0; stroke: var(--grid-color); stroke-width: 0.8"/>
     </g>
     <g id="line2d_6">
      <g>
       <use xlink:href="#m032287df61" x="175.841492" y="103.4" style="fill: var(--fg-color); stroke: var(--fg-color); stroke-width: 0.8"/>
      </g>
     </g>
     <g id="text_3">
      <text style="font-size: 7px; font-family: 'DejaVu Sans', 'Bitstream Vera Sans', 'Computer Modern Sans Serif', 'Lucida Grande', 'Verdana', 'Geneva', 'Lucid', 'Arial', 'Helvetica', 'Avant Garde', sans-serif; text-anchor: middle; fill: var(--fg-color)" x="175.841492" y="115.718359" transform="rotate(-0 175.841492 115.718359)">06/2026</text>
     </g>
    </g>
   </g>
   <g id="matplotlib.axis_2">
    <g id="ytick_1">
     <g id="line2d_7">
      <path d="M 31.64 100.964004 
L 211 100.964004 
" clip-path="url(#p1061dac9fa)" style="fill: none; stroke-dasharray: 2.96,1.28; stroke-dashoffset: 0; stroke: var(--grid-color); stroke-width: 0.8"/>
     </g>
     <g id="line2d_8">
      <defs>
       <path id="m42f10eac8a" d="M 0 0 
L -3.5 0 
" style="stroke: var(--fg-color); stroke-width: 0.8"/>
      </defs>
      <g>
       <use xlink:href="#m42f10eac8a" x="31.64" y="100.964004" style="fill: var(--fg-color); stroke: var(--fg-color); stroke-width: 0.8"/>
      </g>
     </g>
     <g id="text_4">
      <text style="font-size: 7px; font-family: 'DejaVu Sans', 'Bitstream Vera Sans', 'Computer Modern Sans Serif', 'Lucida Grande', 'Verdana', 'Geneva', 'Lucid', 'Arial', 'Helvetica', 'Avant Garde', sans-serif; text-anchor: end; fill: var(--fg-color)" x="24.64" y="103.623184" transform="rotate(-0 24.64 103.623184)">0</text>
     </g>
    </g>
    <g id="ytick_2">
     <g id="line2d_9">
      <path d="M 31.64 85.569208 
L 211 85.569208 
" clip-path="url(#p1061dac9fa)" style="fill: none; stroke-dasharray: 2.96,1.28; stroke-dashoffset: 0; stroke: var(--grid-color); stroke-width: 0.8"/>
     </g>
     <g id="line2d_10">
      <g>
       <use xlink:href="#m42f10eac8a" x="31.64" y="85.569208" style="fill: var(--fg-color); stroke: var(--fg-color); stroke-width: 0.8"/>
      </g>
     </g>
     <g id="text_5">
      <text style="font-size: 7px; font-family: 'DejaVu Sans', 'Bitstream Vera Sans', 'Computer Modern Sans Serif', 'Lucida Grande', 'Verdana', 'Geneva', 'Lucid', 'Arial', 'Helvetica', 'Avant Garde', sans-serif; text-anchor: end; fill: var(--fg-color)" x="24.64" y="88.228387" transform="rotate(-0 24.64 88.228387)">10</text>
     </g>
    </g>
    <g id="ytick_3">
     <g id="line2d_11">
      <path d="M 31.64 70.174411 
L 211 70.174411 
" clip-path="url(#p1061dac9fa)" style="fill: none; stroke-dasharray: 2.96,1.28; stroke-dashoffset: 0; stroke: var(--grid-color); stroke-width: 0.8"/>
     </g>
     <g id="line2d_12">
      <g>
       <use xlink:href="#m42f10eac8a" x="31.64" y="70.174411" style="fill: var(--fg-color); stroke: var(--fg-color); stroke-width: 0.8"/>
      </g>
     </g>
     <g id="text_6">
      <text style="font-size: 7px; font-family: 'DejaVu Sans', 'Bitstream Vera Sans', 'Computer Modern Sans Serif', 'Lucida Grande', 'Verdana', 'Geneva', 'Lucid', 'Arial', 'Helvetica', 'Avant Garde', sans-serif; text-anchor: end; fill: var(--fg-color)" x="24.64" y="72.833591" transform="rotate(-0 24.64 72.833591)">20</text>
     </g>
    </g>
    <g id="ytick_4">
     <g id="line2d_13">
      <path d="M 31.64 54.779614 
L 211 54.779614 
" clip-path="url(#p1061dac9fa)" style="fill: none; stroke-dasharray: 2.96,1.28; stroke-dashoffset: 0; stroke: var(--grid-color); stroke-width: 0.8"/>
     </g>
     <g id="line2d_14">
      <g>
       <use xlink:href="#m42f10eac8a" x="31.64" y="54.779614" style="fill: var(--fg-color); stroke: var(--fg-color); stroke-width: 0.8"/>
      </g>
     </g>
     <g id="text_7">
      <text style="font-size: 7px; font-family: 'DejaVu Sans', 'Bitstream Vera Sans', 'Computer Modern Sans Serif', 'Lucida Grande', 'Verdana', 'Geneva', 'Lucid', 'Arial', 'Helvetica', 'Avant Garde', sans-serif; text-anchor: end; fill: var(--fg-color)" x="24.64" y="57.438794" transform="rotate(-0 24.64 57.438794)">30</text>
     </g>
    </g>
    <g id="ytick_5">
     <g id="line2d_15">
      <path d="M 31.64 39.384817 
L 211 39.384817 
" clip-path="url(#p1061dac9fa)" style="fill: none; stroke-dasharray: 2.96,1.28; stroke-dashoffset: 0; stroke: var(--grid-color); stroke-width: 0.8"/>
     </g>
     <g id="line2d_16">
      <g>
       <use xlink:href="#m42f10eac8a" x="31.64" y="39.384817" style="fill: var(--fg-color); stroke: var(--fg-color); stroke-width: 0.8"/>
      </g>
     </g>
     <g id="text_8">
      <text style="font-size: 7px; font-family: 'DejaVu Sans', 'Bitstream Vera Sans', 'Computer Modern Sans Serif', 'Lucida Grande', 'Verdana', 'Geneva', 'Lucid', 'Arial', 'Helvetica', 'Avant Garde', sans-serif; text-anchor: end; fill: var(--fg-color)" x="24.64" y="42.043997" transform="rotate(-0 24.64 42.043997)">40</text>
     </g>
    </g>
    <g id="ytick_6">
     <g id="line2d_17">
      <path d="M 31.64 23.990021 
L 211 23.990021 
" clip-path="url(#p1061dac9fa)" style="fill: none; stroke-dasharray: 2.96,1.28; stroke-dashoffset: 0; stroke: var(--grid-color); stroke-width: 0.8"/>
     </g>
     <g id="line2d_18">
      <g>
       <use xlink:href="#m42f10eac8a" x="31.64" y="23.990021" style="fill: var(--fg-color); stroke: var(--fg-color); stroke-width: 0.8"/>
      </g>
     </g>
     <g id="text_9">
      <text style="font-size: 7px; font-family: 'DejaVu Sans', 'Bitstream Vera Sans', 'Computer Modern Sans Serif', 'Lucida Grande', 'Verdana', 'Geneva', 'Lucid', 'Arial', 'Helvetica', 'Avant Garde', sans-serif; text-anchor: end; fill: var(--fg-color)" x="24.64" y="26.6492" transform="rotate(-0 24.64 26.6492)">50</text>
     </g>
    </g>
    <g id="ytick_7">
     <g id="line2d_19">
      <path d="M 31.64 8.595224 
L 211 8.595224 
" clip-path="url(#p1061dac9fa)" style="fill: none; stroke-dasharray: 2.96,1.28; stroke-dashoffset: 0; stroke: var(--grid-color); stroke-width: 0.8"/>
     </g>
     <g id="line2d_20">
      <g>
       <use xlink:href="#m42f10eac8a" x="31.64" y="8.595224" style="fill: var(--fg-color); stroke: var(--fg-color); stroke-width: 0.8"/>
      </g>
     </g>
     <g id="text_10">
      <text style="font-size: 7px; font-family: 'DejaVu Sans', 'Bitstream Vera Sans', 'Computer Modern Sans Serif', 'Lucida Grande', 'Verdana', 'Geneva', 'Lucid', 'Arial', 'Helvetica', 'Avant Garde', sans-serif; text-anchor: end; fill: var(--fg-color)" x="24.64" y="11.254404" transform="rotate(-0 24.64 11.254404)">60</text>
     </g>
    </g>
    <g id="text_11">
     <text style="font-size: 7px; font-family: 'DejaVu Sans', 'Bitstream Vera Sans', 'Computer Modern Sans Serif', 'Lucida Grande', 'Verdana', 'Geneva', 'Lucid', 'Arial', 'Helvetica', 'Avant Garde', sans-serif; text-anchor: middle; fill: var(--fg-color)" x="10.050859" y="54.2" transform="rotate(-90 10.050859 54.2)">ms</text>
    </g>
   </g>
   <g id="line2d_21">
    <path d="M 39.792727 54.322389 
L 40.358622 58.0156 
L 41.271481 59.159434 
L 42.184338 54.708798 
L 43.097199 56.519226 
L 44.010052 54.842733 
L 44.922906 59.248724 
L 45.835753 52.722869 
L 46.748617 54.22848 
L 47.661476 53.063094 
L 48.574332 52.145564 
L 49.487188 56.394528 
L 50.40004 55.53088 
L 51.312897 54.828877 
L 52.225755 56.651621 
L 53.138604 53.169318 
L 54.051463 55.960395 
L 54.964319 51.147982 
L 55.877175 35.180498 
L 56.79003 42.21592 
L 57.702885 47.788837 
L 58.615744 52.282578 
L 59.528593 46.822044 
L 60.441447 50.376702 
L 61.35431 41.144443 
L 62.267165 55.971171 
L 63.180022 48.436958 
L 64.092874 46.640385 
L 65.005713 48.570893 
L 65.918587 45.989185 
L 66.831438 35.245157 
L 67.7443 49.328317 
L 68.657153 35.897896 
L 69.57001 52.411894 
L 70.482861 53.754321 
L 71.395726 49.040434 
L 72.308567 52.969186 
L 73.221429 49.454554 
L 74.134286 53.846689 
L 75.047144 50.786204 
L 75.959984 44.100244 
L 76.872853 38.571972 
L 77.785693 46.968294 
L 78.698564 41.888011 
L 79.61142 50.800059 
L 80.524278 54.403981 
L 82.349993 44.808404 
L 91.665728 50.830849 
L 92.391681 50.396715 
L 93.304554 34.877221 
L 94.217409 30.231071 
L 95.130269 40.063728 
L 96.043122 29.458252 
L 96.955975 55.363077 
L 97.868829 56.582345 
L 98.781684 55.463143 
L 99.694538 53.979085 
L 100.607396 52.103998 
L 101.520248 53.672728 
L 102.433106 51.457417 
L 103.345963 52.137867 
L 104.258819 53.809742 
L 105.171671 47.568691 
L 106.084531 54.139191 
L 106.997383 56.953359 
L 107.910242 51.502062 
L 108.823098 52.18867 
L 109.735951 53.968308 
L 110.648812 53.043081 
L 111.561659 41.529313 
L 112.474515 49.328317 
L 113.387379 55.041326 
L 115.213089 49.513054 
L 116.125938 52.853725 
L 117.038797 54.223862 
L 117.951653 12.383883 
L 118.864507 53.63886 
L 119.777364 51.976222 
L 123.428785 46.170844 
L 124.341647 51.204942 
L 125.254499 50.853941 
L 126.167355 53.089265 
L 127.080212 53.261687 
L 127.993067 31.782867 
L 128.905926 51.381982 
L 129.818763 45.884501 
L 130.731631 52.547369 
L 131.644492 52.590474 
L 132.557344 44.594417 
L 133.470203 54.537916 
L 134.383056 51.415851 
L 137.121624 44.211086 
L 138.034491 46.971373 
L 138.947335 47.360862 
L 139.860192 50.253544 
L 140.773046 38.231747 
L 141.685902 46.172383 
L 142.598758 46.678872 
L 143.511612 56.192856 
L 144.42447 49.145118 
L 145.337321 32.915924 
L 172.723053 32.915924 
L 181.242468 48.689433 
L 181.851594 15.316592 
L 182.764449 54.136112 
L 183.677303 54.440929 
L 184.590158 53.626544 
L 185.503019 41.613984 
L 186.415872 55.992724 
L 187.328726 55.557051 
L 188.24158 50.883191 
L 189.154439 58.514392 
L 190.067296 52.676685 
L 190.980152 52.923002 
L 191.893011 9.472727 
L 192.80586 57.333611 
L 193.718718 56.74553 
L 194.631573 49.708568 
L 195.544431 54.750364 
L 196.457286 53.290937 
L 197.370142 53.797426 
L 198.282997 56.060461 
L 199.195852 48.420024 
L 200.108708 55.989645 
L 201.021561 52.921462 
L 201.934415 54.277744 
L 202.847273 52.907607 
L 202.847273 52.907607 
" clip-path="url(#p1061dac9fa)" style="fill: none; stroke: #339af0; stroke-width: 1.2; stroke-linecap: square"/>
   </g>
   <g id="line2d_22">
    <path d="M 39.792727 98.685574 
L 41.271481 98.894944 
L 42.184338 98.72714 
L 43.097199 98.708667 
L 44.010052 98.202178 
L 44.922906 98.84722 
L 45.835753 98.554719 
L 46.748617 98.650166 
L 47.661476 98.865694 
L 48.574332 98.733298 
L 50.40004 98.859536 
L 51.312897 98.677877 
L 53.138604 98.864154 
L 54.964319 98.61014 
L 55.877175 98.922654 
L 58.615744 98.784101 
L 59.528593 98.751772 
L 60.441447 98.842601 
L 61.35431 98.667101 
L 62.267165 98.841062 
L 63.180022 98.700969 
L 65.918587 98.811812 
L 67.7443 98.708667 
L 68.657153 98.713285 
L 69.57001 98.585508 
L 70.482861 98.821049 
L 73.221429 98.680956 
L 74.134286 98.81797 
L 75.047144 98.711746 
L 76.872853 98.733298 
L 77.785693 98.680956 
L 78.698564 98.871851 
L 79.61142 98.918036 
L 80.524278 98.805654 
L 81.43713 98.916496 
L 82.349993 98.704048 
L 93.304554 98.831825 
L 94.217409 98.688653 
L 96.955975 98.853378 
L 97.868829 98.918036 
L 98.781684 98.796417 
L 100.607396 98.859536 
L 102.433106 98.617837 
L 103.345963 98.841062 
L 105.171671 98.63939 
L 106.084531 98.850299 
L 106.997383 98.851838 
L 107.910242 98.633232 
L 110.648812 98.765627 
L 111.561659 98.680956 
L 114.300233 98.781022 
L 115.213089 98.651706 
L 116.125938 98.753312 
L 117.038797 98.528547 
L 117.951653 98.477745 
L 118.864507 98.691732 
L 119.777364 98.585508 
L 125.254499 98.457731 
L 126.167355 98.690193 
L 128.905926 98.34227 
L 131.644492 98.824128 
L 132.557344 98.485442 
L 135.295912 98.536245 
L 136.208765 98.333034 
L 137.121624 98.5501 
L 138.034491 98.4331 
L 139.860192 98.451574 
L 140.773046 98.31456 
L 141.685902 98.463889 
L 142.598758 98.34227 
L 143.511612 98.571653 
L 145.337321 98.354586 
L 172.723053 98.354586 
L 182.764449 98.502376 
L 183.677303 98.761009 
L 187.328726 98.688653 
L 188.24158 98.590127 
L 189.154439 98.764088 
L 190.067296 96.792014 
L 190.980152 98.600903 
L 191.893011 98.547021 
L 192.80586 98.830286 
L 193.718718 98.745614 
L 194.631573 98.925733 
L 195.544431 98.659403 
L 196.457286 98.861075 
L 197.370142 98.716364 
L 198.282997 98.736377 
L 199.195852 98.451574 
L 200.108708 98.744075 
L 201.021561 98.893404 
L 201.934415 98.630153 
L 202.847273 98.927273 
L 202.847273 98.927273 
" clip-path="url(#p1061dac9fa)" style="fill: none; stroke: #ff6b6b; stroke-width: 1.2; stroke-linecap: square"/>
   </g>
   <g id="patch_3">
    <path d="M 31.64 103.4 
L 31.64 5 
" style="fill: none; stroke: var(--fg-color); stroke-width: 0.8; stroke-linejoin: miter; stroke-linecap: square"/>
   </g>
   <g id="patch_4">
    <path d="M 31.64 103.4 
L 211 103.4 
" style="fill: none; stroke: var(--fg-color); stroke-width: 0.8; stroke-linejoin: miter; stroke-linecap: square"/>
   </g>
  </g>
 </g>
 <defs>
  <clipPath id="p1061dac9fa">
   <rect x="31.64" y="5" width="179.36" height="98.4"/>
  </clipPath>
 </defs>
</svg>
