<?xml version="1.0" encoding="utf-8" standalone="no"?>
<!DOCTYPE svg PUBLIC "-//W3C//DTD SVG 1.1//EN"
  "http://www.w3.org/Graphics/SVG/1.1/DTD/svg11.dtd">
<svg xmlns:xlink="http://www.w3.org/1999/xlink" width="216pt" height="122.4pt" viewBox="0 0 216 122.4" xmlns="http://www.w3.org/2000/svg" version="1.1">
  <style>
    :root {
      --fg-color: #212529;
      --grid-color: rgba(33, 37, 41, 0.1);
    }
    @media (prefers-color-scheme: dark) {
      :root {
        --fg-color: #dee2e6;
        --grid-color: rgba(248, 249, 250, 0.15);
      }
    }
  </style>

 <metadata>
  <rdf:RDF xmlns:dc="http://purl.org/dc/elements/1.1/" xmlns:cc="http://creativecommons.org/ns#" xmlns:rdf="http://www.w3.org/1999/02/22-rdf-syntax-ns#">
   <cc:Work>
    <dc:type rdf:resource="http://purl.org/dc/dcmitype/StillImage"/>
    <dc:date>2026-06-30T04:49:05.553560</dc:date>
    <dc:format>image/svg+xml</dc:format>
    <dc:creator>
     <cc:Agent>
      <dc:title>Matplotlib v3.11.0, https://matplotlib.org/</dc:title>
     </cc:Agent>
    </dc:creator>
   </cc:Work>
  </rdf:RDF>
 </metadata>
 <defs>
  <style type="text/css">*{stroke-linejoin: round; stroke-linecap: butt}</style>
 </defs>
 <g id="figure_1">
  <g id="patch_1">
   <path d="M 0 122.4 
L 216 122.4 
L 216 0 
L 0 0 
L 0 122.4 
z
" style="fill: none; opacity: 0"/>
  </g>
  <g id="axes_1">
   <g id="patch_2">
    <path d="M 35.96 103.4 
L 211 103.4 
L 211 5 
L 35.96 5 
L 35.96 103.4 
z
" style="fill: none; opacity: 0"/>
   </g>
   <g id="matplotlib.axis_1">
    <g id="xtick_1">
     <g id="line2d_1">
      <path d="M 72.056377 103.4 
L 72.056377 5 
" clip-path="url(#pf5e1fa6608)" style="fill: none; stroke-dasharray: 2.96,1.28; stroke-dashoffset: 0; stroke: var(--grid-color); stroke-width: 0.8"/>
     </g>
     <g id="line2d_2">
      <defs>
       <path id="mc6e64052d4" d="M 0 0 
L 0 3.5 
" style="stroke: var(--fg-color); stroke-width: 0.8"/>
      </defs>
      <g>
       <use xlink:href="#mc6e64052d4" x="72.056377" y="103.4" style="fill: var(--fg-color); stroke: var(--fg-color); stroke-width: 0.8"/>
      </g>
     </g>
     <g id="text_1">
      <text style="font-size: 7px; font-family: 'DejaVu Sans', 'Bitstream Vera Sans', 'Computer Modern Sans Serif', 'Lucida Grande', 'Verdana', 'Geneva', 'Lucid', 'Arial', 'Helvetica', 'Avant Garde', sans-serif; text-anchor: middle; fill: var(--fg-color)" x="72.056377" y="115.718359" transform="rotate(-0 72.056377 115.718359)">02/2026</text>
     </g>
    </g>
    <g id="xtick_2">
     <g id="line2d_3">
      <path d="M 126.640628 103.4 
L 126.640628 5 
" clip-path="url(#pf5e1fa6608)" style="fill: none; stroke-dasharray: 2.96,1.28; stroke-dashoffset: 0; stroke: var(--grid-color); stroke-width: 0.8"/>
     </g>
     <g id="line2d_4">
      <g>
       <use xlink:href="#mc6e64052d4" x="126.640628" y="103.4" style="fill: var(--fg-color); stroke: var(--fg-color); stroke-width: 0.8"/>
      </g>
     </g>
     <g id="text_2">
      <text style="font-size: 7px; font-family: 'DejaVu Sans', 'Bitstream Vera Sans', 'Computer Modern Sans Serif', 'Lucida Grande', 'Verdana', 'Geneva', 'Lucid', 'Arial', 'Helvetica', 'Avant Garde', sans-serif; text-anchor: middle; fill: var(--fg-color)" x="126.640628" y="115.718359" transform="rotate(-0 126.640628 115.718359)">04/2026</text>
     </g>
    </g>
    <g id="xtick_3">
     <g id="line2d_5">
      <path d="M 183.075192 103.4 
L 183.075192 5 
" clip-path="url(#pf5e1fa6608)" style="fill: none; stroke-dasharray: 2.96,1.28; stroke-dashoffset: 0; stroke: var(--grid-color); stroke-width: 0.8"/>
     </g>
     <g id="line2d_6">
      <g>
       <use xlink:href="#mc6e64052d4" x="183.075192" y="103.4" style="fill: var(--fg-color); stroke: var(--fg-color); stroke-width: 0.8"/>
      </g>
     </g>
     <g id="text_3">
      <text style="font-size: 7px; font-family: 'DejaVu Sans', 'Bitstream Vera Sans', 'Computer Modern Sans Serif', 'Lucida Grande', 'Verdana', 'Geneva', 'Lucid', 'Arial', 'Helvetica', 'Avant Garde', sans-serif; text-anchor: middle; fill: var(--fg-color)" x="183.075192" y="115.718359" transform="rotate(-0 183.075192 115.718359)">06/2026</text>
     </g>
    </g>
   </g>
   <g id="matplotlib.axis_2">
    <g id="ytick_1">
     <g id="line2d_7">
      <path d="M 35.96 100.336928 
L 211 100.336928 
" clip-path="url(#pf5e1fa6608)" style="fill: none; stroke-dasharray: 2.96,1.28; stroke-dashoffset: 0; stroke: var(--grid-color); stroke-width: 0.8"/>
     </g>
     <g id="line2d_8">
      <defs>
       <path id="m8fafed7af9" d="M 0 0 
L -3.5 0 
" style="stroke: var(--fg-color); stroke-width: 0.8"/>
      </defs>
      <g>
       <use xlink:href="#m8fafed7af9" x="35.96" y="100.336928" style="fill: var(--fg-color); stroke: var(--fg-color); stroke-width: 0.8"/>
      </g>
     </g>
     <g id="text_4">
      <text style="font-size: 7px; font-family: 'DejaVu Sans', 'Bitstream Vera Sans', 'Computer Modern Sans Serif', 'Lucida Grande', 'Verdana', 'Geneva', 'Lucid', 'Arial', 'Helvetica', 'Avant Garde', sans-serif; text-anchor: end; fill: var(--fg-color)" x="28.96" y="102.996108" transform="rotate(-0 28.96 102.996108)">0</text>
     </g>
    </g>
    <g id="ytick_2">
     <g id="line2d_9">
      <path d="M 35.96 84.18042 
L 211 84.18042 
" clip-path="url(#pf5e1fa6608)" style="fill: none; stroke-dasharray: 2.96,1.28; stroke-dashoffset: 0; stroke: var(--grid-color); stroke-width: 0.8"/>
     </g>
     <g id="line2d_10">
      <g>
       <use xlink:href="#m8fafed7af9" x="35.96" y="84.18042" style="fill: var(--fg-color); stroke: var(--fg-color); stroke-width: 0.8"/>
      </g>
     </g>
     <g id="text_5">
      <text style="font-size: 7px; font-family: 'DejaVu Sans', 'Bitstream Vera Sans', 'Computer Modern Sans Serif', 'Lucida Grande', 'Verdana', 'Geneva', 'Lucid', 'Arial', 'Helvetica', 'Avant Garde', sans-serif; text-anchor: end; fill: var(--fg-color)" x="28.96" y="86.8396" transform="rotate(-0 28.96 86.8396)">20</text>
     </g>
    </g>
    <g id="ytick_3">
     <g id="line2d_11">
      <path d="M 35.96 68.023912 
L 211 68.023912 
" clip-path="url(#pf5e1fa6608)" style="fill: none; stroke-dasharray: 2.96,1.28; stroke-dashoffset: 0; stroke: var(--grid-color); stroke-width: 0.8"/>
     </g>
     <g id="line2d_12">
      <g>
       <use xlink:href="#m8fafed7af9" x="35.96" y="68.023912" style="fill: var(--fg-color); stroke: var(--fg-color); stroke-width: 0.8"/>
      </g>
     </g>
     <g id="text_6">
      <text style="font-size: 7px; font-family: 'DejaVu Sans', 'Bitstream Vera Sans', 'Computer Modern Sans Serif', 'Lucida Grande', 'Verdana', 'Geneva', 'Lucid', 'Arial', 'Helvetica', 'Avant Garde', sans-serif; text-anchor: end; fill: var(--fg-color)" x="28.96" y="70.683092" transform="rotate(-0 28.96 70.683092)">40</text>
     </g>
    </g>
    <g id="ytick_4">
     <g id="line2d_13">
      <path d="M 35.96 51.867404 
L 211 51.867404 
" clip-path="url(#pf5e1fa6608)" style="fill: none; stroke-dasharray: 2.96,1.28; stroke-dashoffset: 0; stroke: var(--grid-color); stroke-width: 0.8"/>
     </g>
     <g id="line2d_14">
      <g>
       <use xlink:href="#m8fafed7af9" x="35.96" y="51.867404" style="fill: var(--fg-color); stroke: var(--fg-color); stroke-width: 0.8"/>
      </g>
     </g>
     <g id="text_7">
      <text style="font-size: 7px; font-family: 'DejaVu Sans', 'Bitstream Vera Sans', 'Computer Modern Sans Serif', 'Lucida Grande', 'Verdana', 'Geneva', 'Lucid', 'Arial', 'Helvetica', 'Avant Garde', sans-serif; text-anchor: end; fill: var(--fg-color)" x="28.96" y="54.526584" transform="rotate(-0 28.96 54.526584)">60</text>
     </g>
    </g>
    <g id="ytick_5">
     <g id="line2d_15">
      <path d="M 35.96 35.710896 
L 211 35.710896 
" clip-path="url(#pf5e1fa6608)" style="fill: none; stroke-dasharray: 2.96,1.28; stroke-dashoffset: 0; stroke: var(--grid-color); stroke-width: 0.8"/>
     </g>
     <g id="line2d_16">
      <g>
       <use xlink:href="#m8fafed7af9" x="35.96" y="35.710896" style="fill: var(--fg-color); stroke: var(--fg-color); stroke-width: 0.8"/>
      </g>
     </g>
     <g id="text_8">
      <text style="font-size: 7px; font-family: 'DejaVu Sans', 'Bitstream Vera Sans', 'Computer Modern Sans Serif', 'Lucida Grande', 'Verdana', 'Geneva', 'Lucid', 'Arial', 'Helvetica', 'Avant Garde', sans-serif; text-anchor: end; fill: var(--fg-color)" x="28.96" y="38.370076" transform="rotate(-0 28.96 38.370076)">80</text>
     </g>
    </g>
    <g id="ytick_6">
     <g id="line2d_17">
      <path d="M 35.96 19.554388 
L 211 19.554388 
" clip-path="url(#pf5e1fa6608)" style="fill: none; stroke-dasharray: 2.96,1.28; stroke-dashoffset: 0; stroke: var(--grid-color); stroke-width: 0.8"/>
     </g>
     <g id="line2d_18">
      <g>
       <use xlink:href="#m8fafed7af9" x="35.96" y="19.554388" style="fill: var(--fg-color); stroke: var(--fg-color); stroke-width: 0.8"/>
      </g>
     </g>
     <g id="text_9">
      <text style="font-size: 7px; font-family: 'DejaVu Sans', 'Bitstream Vera Sans', 'Computer Modern Sans Serif', 'Lucida Grande', 'Verdana', 'Geneva', 'Lucid', 'Arial', 'Helvetica', 'Avant Garde', sans-serif; text-anchor: end; fill: var(--fg-color)" x="28.96" y="22.213568" transform="rotate(-0 28.96 22.213568)">100</text>
     </g>
    </g>
    <g id="text_10">
     <text style="font-size: 7px; font-family: 'DejaVu Sans', 'Bitstream Vera Sans', 'Computer Modern Sans Serif', 'Lucida Grande', 'Verdana', 'Geneva', 'Lucid', 'Arial', 'Helvetica', 'Avant Garde', sans-serif; text-anchor: middle; fill: var(--fg-color)" x="9.917109" y="54.2" transform="rotate(-90 9.917109 54.2)">ms</text>
    </g>
   </g>
   <g id="line2d_19">
    <path d="M 43.916364 27.259427 
L 45.193108 21.014129 
L 45.766628 21.534368 
L 46.691788 27.073627 
L 47.616947 23.345513 
L 48.542109 24.617838 
L 49.467263 27.316782 
L 50.392418 23.383481 
L 51.317566 24.65419 
L 52.242732 31.557866 
L 53.167891 21.999676 
L 54.093049 27.457344 
L 55.018206 23.880293 
L 55.943359 20.628796 
L 56.868517 28.020398 
L 57.793676 20.107749 
L 58.718827 26.975072 
L 59.643987 32.456168 
L 60.569143 29.006753 
L 61.494301 20.942232 
L 62.419457 25.878853 
L 63.344613 25.671242 
L 64.269773 29.461559 
L 65.194924 30.397021 
L 66.120079 26.325581 
L 67.045243 28.064829 
L 67.970398 27.173797 
L 68.895557 26.04365 
L 69.82071 29.761262 
L 70.74585 27.304665 
L 71.671025 28.17227 
L 72.596178 29.904247 
L 73.521341 28.626267 
L 74.446495 14.618575 
L 75.371653 30.687838 
L 76.296805 28.304753 
L 77.221971 31.213732 
L 78.147114 30.254036 
L 79.072277 28.416233 
L 79.997435 24.165456 
L 80.922594 17.587333 
L 81.847735 27.606792 
L 82.772905 9.472727 
L 83.698046 23.352783 
L 84.623219 30.20395 
L 85.548376 28.580221 
L 86.473535 27.543781 
L 87.398688 29.11581 
L 88.323852 28.43966 
L 97.76512 17.109101 
L 98.500856 16.836056 
L 99.426031 21.871231 
L 100.351186 17.230275 
L 101.276348 28.404115 
L 102.201502 25.454745 
L 103.126656 33.040225 
L 104.051812 33.950645 
L 104.976967 29.972912 
L 105.902123 31.875341 
L 106.827282 29.582733 
L 107.752435 27.747353 
L 108.677594 21.69351 
L 109.602753 27.084129 
L 110.527909 32.315606 
L 111.453063 31.351063 
L 112.378223 31.168494 
L 113.303377 31.178996 
L 114.228537 31.677424 
L 115.153695 21.476205 
L 116.078848 27.17299 
L 117.004011 30.678952 
L 117.929158 31.477083 
L 118.854316 28.219931 
L 119.779481 23.670259 
L 120.704637 33.273687 
L 121.629794 16.062159 
L 122.554943 21.804182 
L 123.480104 25.840078 
L 124.405261 23.616942 
L 125.330416 15.450635 
L 126.255574 16.050849 
L 129.9562 20.170759 
L 130.881363 24.850492 
L 131.806516 22.81154 
L 132.731673 26.121201 
L 133.656831 18.540567 
L 134.581987 26.214101 
L 135.507147 17.448387 
L 136.432285 24.654998 
L 137.357455 26.992845 
L 138.282617 23.402061 
L 139.20777 21.401077 
L 140.13293 18.20532 
L 141.058084 19.035764 
L 141.983242 19.703836 
L 142.908395 27.961427 
L 143.833556 26.61559 
L 144.758724 25.028213 
L 145.683869 13.666149 
L 146.609028 27.604368 
L 147.534182 18.118075 
L 148.459339 26.803006 
L 149.384497 27.557514 
L 150.309651 26.853091 
L 151.234811 24.734973 
L 152.159963 21.198313 
L 179.91473 21.198313 
L 188.548948 22.154778 
L 189.166282 28.192465 
L 190.091439 15.308458 
L 191.016594 23.826977 
L 191.94175 25.469286 
L 192.866913 17.591373 
L 193.792066 22.868896 
L 194.717222 20.865489 
L 195.642377 28.080985 
L 196.567536 20.509238 
L 197.492695 17.954894 
L 198.417852 19.123009 
L 199.343013 26.462103 
L 200.268162 25.386888 
L 201.193322 22.553844 
L 202.118478 21.959284 
L 203.043636 23.942496 
" clip-path="url(#pf5e1fa6608)" style="fill: none; stroke: #339af0; stroke-width: 1.2; stroke-linecap: square"/>
   </g>
   <g id="line2d_20">
    <path d="M 43.916364 98.596872 
L 45.193108 98.645342 
L 45.766628 98.56779 
L 46.691788 98.826295 
L 47.616947 98.583139 
L 48.542109 98.394108 
L 49.467263 98.761669 
L 50.392418 98.734202 
L 51.317566 98.529015 
L 52.242732 98.795597 
L 53.167891 98.650996 
L 54.093049 98.739857 
L 55.018206 98.449848 
L 55.943359 98.603335 
L 56.868517 98.831949 
L 57.793676 98.744704 
L 58.718827 98.689772 
L 59.643987 98.818216 
L 60.569143 98.779441 
L 61.494301 98.750359 
L 62.419457 98.808522 
L 63.344613 98.69058 
L 64.269773 98.754398 
L 65.194924 98.806099 
L 66.120079 98.585563 
L 67.045243 98.739857 
L 67.970398 98.726932 
L 68.895557 98.718046 
L 69.82071 98.749551 
L 70.74585 98.701889 
L 71.671025 98.79075 
L 72.596178 98.792366 
L 73.521341 98.743896 
L 74.446495 98.591217 
L 75.371653 98.825487 
L 76.296805 98.744704 
L 77.221971 98.921618 
L 78.147114 98.907077 
L 79.072277 98.814177 
L 79.997435 98.626762 
L 80.922594 98.718046 
L 81.847735 98.723701 
L 82.772905 98.687349 
L 83.698046 98.182458 
L 84.623219 98.740665 
L 85.548376 98.849721 
L 86.473535 98.677655 
L 87.398688 98.848914 
L 88.323852 98.657459 
L 97.76512 98.421574 
L 98.500856 98.861839 
L 99.426031 98.927273 
L 100.351186 98.823063 
L 101.276348 98.797213 
L 102.201502 98.722893 
L 103.126656 98.852145 
L 104.051812 98.80206 
L 104.976967 98.760053 
L 105.902123 98.747935 
L 106.827282 98.817408 
L 107.752435 98.869109 
L 108.677594 97.472379 
L 109.602753 98.813369 
L 110.527909 98.80206 
L 111.453063 98.792366 
L 112.378223 98.823063 
L 113.303377 98.792366 
L 114.228537 98.699466 
L 115.153695 98.648573 
L 116.078848 98.588794 
L 117.004011 98.774594 
L 117.929158 98.894152 
L 118.854316 98.801252 
L 119.779481 98.781056 
L 120.704637 98.875572 
L 121.629794 98.630801 
L 122.554943 98.710776 
L 123.480104 96.687173 
L 124.405261 98.768939 
L 125.330416 98.67927 
L 126.255574 98.691388 
L 129.9562 98.718046 
L 130.881363 98.751167 
L 131.806516 98.681694 
L 132.731673 98.360179 
L 133.656831 98.587986 
L 134.581987 98.615452 
L 135.507147 98.604143 
L 136.432285 98.747935 
L 137.357455 98.739049 
L 138.282617 98.644534 
L 139.20777 98.691388 
L 140.13293 98.664729 
L 141.058084 97.175099 
L 141.983242 98.568598 
L 142.908395 98.765708 
L 143.833556 98.558904 
L 144.758724 98.739857 
L 145.683869 98.774594 
L 146.609028 98.710776 
L 147.534182 98.60495 
L 148.459339 98.784288 
L 149.384497 98.763284 
L 150.309651 98.697042 
L 151.234811 98.69058 
L 152.159963 98.677655 
L 179.91473 98.677655 
L 188.548948 98.631609 
L 189.166282 98.675231 
L 190.091439 98.487008 
L 191.016594 98.054821 
L 191.94175 98.636456 
L 192.866913 98.59768 
L 193.792066 98.710776 
L 194.717222 98.676847 
L 195.642377 98.756822 
L 196.567536 98.587178 
L 197.492695 98.545979 
L 198.417852 98.498317 
L 199.343013 98.649381 
L 200.268162 98.747128 
L 201.193322 98.667961 
L 202.118478 98.718854 
L 203.043636 98.75359 
" clip-path="url(#pf5e1fa6608)" style="fill: none; stroke: #ff6b6b; stroke-width: 1.2; stroke-linecap: square"/>
   </g>
   <g id="patch_3">
    <path d="M 35.96 103.4 
L 35.96 5 
" style="fill: none; stroke: var(--fg-color); stroke-width: 0.8; stroke-linejoin: miter; stroke-linecap: square"/>
   </g>
   <g id="patch_4">
    <path d="M 35.96 103.4 
L 211 103.4 
" style="fill: none; stroke: var(--fg-color); stroke-width: 0.8; stroke-linejoin: miter; stroke-linecap: square"/>
   </g>
  </g>
 </g>
 <defs>
  <clipPath id="pf5e1fa6608">
   <rect x="35.96" y="5" width="175.04" height="98.4"/>
  </clipPath>
 </defs>
</svg>
