<?xml version="1.0" encoding="utf-8" standalone="no"?>
<!DOCTYPE svg PUBLIC "-//W3C//DTD SVG 1.1//EN"
  "http://www.w3.org/Graphics/SVG/1.1/DTD/svg11.dtd">
<svg xmlns:xlink="http://www.w3.org/1999/xlink" width="216pt" height="122.4pt" viewBox="0 0 216 122.4" xmlns="http://www.w3.org/2000/svg" version="1.1">
  <style>
    :root {
      --fg-color: #212529;
      --grid-color: rgba(33, 37, 41, 0.1);
    }
    @media (prefers-color-scheme: dark) {
      :root {
        --fg-color: #dee2e6;
        --grid-color: rgba(248, 249, 250, 0.15);
      }
    }
  </style>

 <metadata>
  <rdf:RDF xmlns:dc="http://purl.org/dc/elements/1.1/" xmlns:cc="http://creativecommons.org/ns#" xmlns:rdf="http://www.w3.org/1999/02/22-rdf-syntax-ns#">
   <cc:Work>
    <dc:type rdf:resource="http://purl.org/dc/dcmitype/StillImage"/>
    <dc:date>2026-06-30T04:49:22.709676</dc:date>
    <dc:format>image/svg+xml</dc:format>
    <dc:creator>
     <cc:Agent>
      <dc:title>Matplotlib v3.11.0, https://matplotlib.org/</dc:title>
     </cc:Agent>
    </dc:creator>
   </cc:Work>
  </rdf:RDF>
 </metadata>
 <defs>
  <style type="text/css">*{stroke-linejoin: round; stroke-linecap: butt}</style>
 </defs>
 <g id="figure_1">
  <g id="patch_1">
   <path d="M 0 122.4 
L 216 122.4 
L 216 0 
L 0 0 
L 0 122.4 
z
" style="fill: none; opacity: 0"/>
  </g>
  <g id="axes_1">
   <g id="patch_2">
    <path d="M 31.64 103.4 
L 211 103.4 
L 211 5 
L 31.64 5 
L 31.64 103.4 
z
" style="fill: none; opacity: 0"/>
   </g>
   <g id="matplotlib.axis_1">
    <g id="xtick_1">
     <g id="line2d_1">
      <path d="M 67.541625 103.4 
L 67.541625 5 
" clip-path="url(#p6d4d2e4ccb)" style="fill: none; stroke-dasharray: 2.96,1.28; stroke-dashoffset: 0; stroke: var(--grid-color); stroke-width: 0.8"/>
     </g>
     <g id="line2d_2">
      <defs>
       <path id="mf16d5dcc90" d="M 0 0 
L 0 3.5 
" style="stroke: var(--fg-color); stroke-width: 0.8"/>
      </defs>
      <g>
       <use xlink:href="#mf16d5dcc90" x="67.541625" y="103.4" style="fill: var(--fg-color); stroke: var(--fg-color); stroke-width: 0.8"/>
      </g>
     </g>
     <g id="text_1">
      <text style="font-size: 7px; font-family: 'DejaVu Sans', 'Bitstream Vera Sans', 'Computer Modern Sans Serif', 'Lucida Grande', 'Verdana', 'Geneva', 'Lucid', 'Arial', 'Helvetica', 'Avant Garde', sans-serif; text-anchor: middle; fill: var(--fg-color)" x="67.541625" y="115.718359" transform="rotate(-0 67.541625 115.718359)">02/2026</text>
     </g>
    </g>
    <g id="xtick_2">
     <g id="line2d_3">
      <path d="M 123.925409 103.4 
L 123.925409 5 
" clip-path="url(#p6d4d2e4ccb)" style="fill: none; stroke-dasharray: 2.96,1.28; stroke-dashoffset: 0; stroke: var(--grid-color); stroke-width: 0.8"/>
     </g>
     <g id="line2d_4">
      <g>
       <use xlink:href="#mf16d5dcc90" x="123.925409" y="103.4" style="fill: var(--fg-color); stroke: var(--fg-color); stroke-width: 0.8"/>
      </g>
     </g>
     <g id="text_2">
      <text style="font-size: 7px; font-family: 'DejaVu Sans', 'Bitstream Vera Sans', 'Computer Modern Sans Serif', 'Lucida Grande', 'Verdana', 'Geneva', 'Lucid', 'Arial', 'Helvetica', 'Avant Garde', sans-serif; text-anchor: middle; fill: var(--fg-color)" x="123.925409" y="115.718359" transform="rotate(-0 123.925409 115.718359)">04/2026</text>
     </g>
    </g>
    <g id="xtick_3">
     <g id="line2d_5">
      <path d="M 182.220509 103.4 
L 182.220509 5 
" clip-path="url(#p6d4d2e4ccb)" style="fill: none; stroke-dasharray: 2.96,1.28; stroke-dashoffset: 0; stroke: var(--grid-color); stroke-width: 0.8"/>
     </g>
     <g id="line2d_6">
      <g>
       <use xlink:href="#mf16d5dcc90" x="182.220509" y="103.4" style="fill: var(--fg-color); stroke: var(--fg-color); stroke-width: 0.8"/>
      </g>
     </g>
     <g id="text_3">
      <text style="font-size: 7px; font-family: 'DejaVu Sans', 'Bitstream Vera Sans', 'Computer Modern Sans Serif', 'Lucida Grande', 'Verdana', 'Geneva', 'Lucid', 'Arial', 'Helvetica', 'Avant Garde', sans-serif; text-anchor: middle; fill: var(--fg-color)" x="182.220509" y="115.718359" transform="rotate(-0 182.220509 115.718359)">06/2026</text>
     </g>
    </g>
   </g>
   <g id="matplotlib.axis_2">
    <g id="ytick_1">
     <g id="line2d_7">
      <path d="M 31.64 100.639799 
L 211 100.639799 
" clip-path="url(#p6d4d2e4ccb)" style="fill: none; stroke-dasharray: 2.96,1.28; stroke-dashoffset: 0; stroke: var(--grid-color); stroke-width: 0.8"/>
     </g>
     <g id="line2d_8">
      <defs>
       <path id="m269e64aa87" d="M 0 0 
L -3.5 0 
" style="stroke: var(--fg-color); stroke-width: 0.8"/>
      </defs>
      <g>
       <use xlink:href="#m269e64aa87" x="31.64" y="100.639799" style="fill: var(--fg-color); stroke: var(--fg-color); stroke-width: 0.8"/>
      </g>
     </g>
     <g id="text_4">
      <text style="font-size: 7px; font-family: 'DejaVu Sans', 'Bitstream Vera Sans', 'Computer Modern Sans Serif', 'Lucida Grande', 'Verdana', 'Geneva', 'Lucid', 'Arial', 'Helvetica', 'Avant Garde', sans-serif; text-anchor: end; fill: var(--fg-color)" x="24.64" y="103.298978" transform="rotate(-0 24.64 103.298978)">0</text>
     </g>
    </g>
    <g id="ytick_2">
     <g id="line2d_9">
      <path d="M 31.64 86.392495 
L 211 86.392495 
" clip-path="url(#p6d4d2e4ccb)" style="fill: none; stroke-dasharray: 2.96,1.28; stroke-dashoffset: 0; stroke: var(--grid-color); stroke-width: 0.8"/>
     </g>
     <g id="line2d_10">
      <g>
       <use xlink:href="#m269e64aa87" x="31.64" y="86.392495" style="fill: var(--fg-color); stroke: var(--fg-color); stroke-width: 0.8"/>
      </g>
     </g>
     <g id="text_5">
      <text style="font-size: 7px; font-family: 'DejaVu Sans', 'Bitstream Vera Sans', 'Computer Modern Sans Serif', 'Lucida Grande', 'Verdana', 'Geneva', 'Lucid', 'Arial', 'Helvetica', 'Avant Garde', sans-serif; text-anchor: end; fill: var(--fg-color)" x="24.64" y="89.051675" transform="rotate(-0 24.64 89.051675)">10</text>
     </g>
    </g>
    <g id="ytick_3">
     <g id="line2d_11">
      <path d="M 31.64 72.145191 
L 211 72.145191 
" clip-path="url(#p6d4d2e4ccb)" style="fill: none; stroke-dasharray: 2.96,1.28; stroke-dashoffset: 0; stroke: var(--grid-color); stroke-width: 0.8"/>
     </g>
     <g id="line2d_12">
      <g>
       <use xlink:href="#m269e64aa87" x="31.64" y="72.145191" style="fill: var(--fg-color); stroke: var(--fg-color); stroke-width: 0.8"/>
      </g>
     </g>
     <g id="text_6">
      <text style="font-size: 7px; font-family: 'DejaVu Sans', 'Bitstream Vera Sans', 'Computer Modern Sans Serif', 'Lucida Grande', 'Verdana', 'Geneva', 'Lucid', 'Arial', 'Helvetica', 'Avant Garde', sans-serif; text-anchor: end; fill: var(--fg-color)" x="24.64" y="74.804371" transform="rotate(-0 24.64 74.804371)">20</text>
     </g>
    </g>
    <g id="ytick_4">
     <g id="line2d_13">
      <path d="M 31.64 57.897888 
L 211 57.897888 
" clip-path="url(#p6d4d2e4ccb)" style="fill: none; stroke-dasharray: 2.96,1.28; stroke-dashoffset: 0; stroke: var(--grid-color); stroke-width: 0.8"/>
     </g>
     <g id="line2d_14">
      <g>
       <use xlink:href="#m269e64aa87" x="31.64" y="57.897888" style="fill: var(--fg-color); stroke: var(--fg-color); stroke-width: 0.8"/>
      </g>
     </g>
     <g id="text_7">
      <text style="font-size: 7px; font-family: 'DejaVu Sans', 'Bitstream Vera Sans', 'Computer Modern Sans Serif', 'Lucida Grande', 'Verdana', 'Geneva', 'Lucid', 'Arial', 'Helvetica', 'Avant Garde', sans-serif; text-anchor: end; fill: var(--fg-color)" x="24.64" y="60.557067" transform="rotate(-0 24.64 60.557067)">30</text>
     </g>
    </g>
    <g id="ytick_5">
     <g id="line2d_15">
      <path d="M 31.64 43.650584 
L 211 43.650584 
" clip-path="url(#p6d4d2e4ccb)" style="fill: none; stroke-dasharray: 2.96,1.28; stroke-dashoffset: 0; stroke: var(--grid-color); stroke-width: 0.8"/>
     </g>
     <g id="line2d_16">
      <g>
       <use xlink:href="#m269e64aa87" x="31.64" y="43.650584" style="fill: var(--fg-color); stroke: var(--fg-color); stroke-width: 0.8"/>
      </g>
     </g>
     <g id="text_8">
      <text style="font-size: 7px; font-family: 'DejaVu Sans', 'Bitstream Vera Sans', 'Computer Modern Sans Serif', 'Lucida Grande', 'Verdana', 'Geneva', 'Lucid', 'Arial', 'Helvetica', 'Avant Garde', sans-serif; text-anchor: end; fill: var(--fg-color)" x="24.64" y="46.309764" transform="rotate(-0 24.64 46.309764)">40</text>
     </g>
    </g>
    <g id="ytick_6">
     <g id="line2d_17">
      <path d="M 31.64 29.40328 
L 211 29.40328 
" clip-path="url(#p6d4d2e4ccb)" style="fill: none; stroke-dasharray: 2.96,1.28; stroke-dashoffset: 0; stroke: var(--grid-color); stroke-width: 0.8"/>
     </g>
     <g id="line2d_18">
      <g>
       <use xlink:href="#m269e64aa87" x="31.64" y="29.40328" style="fill: var(--fg-color); stroke: var(--fg-color); stroke-width: 0.8"/>
      </g>
     </g>
     <g id="text_9">
      <text style="font-size: 7px; font-family: 'DejaVu Sans', 'Bitstream Vera Sans', 'Computer Modern Sans Serif', 'Lucida Grande', 'Verdana', 'Geneva', 'Lucid', 'Arial', 'Helvetica', 'Avant Garde', sans-serif; text-anchor: end; fill: var(--fg-color)" x="24.64" y="32.06246" transform="rotate(-0 24.64 32.06246)">50</text>
     </g>
    </g>
    <g id="ytick_7">
     <g id="line2d_19">
      <path d="M 31.64 15.155977 
L 211 15.155977 
" clip-path="url(#p6d4d2e4ccb)" style="fill: none; stroke-dasharray: 2.96,1.28; stroke-dashoffset: 0; stroke: var(--grid-color); stroke-width: 0.8"/>
     </g>
     <g id="line2d_20">
      <g>
       <use xlink:href="#m269e64aa87" x="31.64" y="15.155977" style="fill: var(--fg-color); stroke: var(--fg-color); stroke-width: 0.8"/>
      </g>
     </g>
     <g id="text_10">
      <text style="font-size: 7px; font-family: 'DejaVu Sans', 'Bitstream Vera Sans', 'Computer Modern Sans Serif', 'Lucida Grande', 'Verdana', 'Geneva', 'Lucid', 'Arial', 'Helvetica', 'Avant Garde', sans-serif; text-anchor: end; fill: var(--fg-color)" x="24.64" y="17.815156" transform="rotate(-0 24.64 17.815156)">60</text>
     </g>
    </g>
    <g id="text_11">
     <text style="font-size: 7px; font-family: 'DejaVu Sans', 'Bitstream Vera Sans', 'Computer Modern Sans Serif', 'Lucida Grande', 'Verdana', 'Geneva', 'Lucid', 'Arial', 'Helvetica', 'Avant Garde', sans-serif; text-anchor: middle; fill: var(--fg-color)" x="10.050859" y="54.2" transform="rotate(-90 10.050859 54.2)">ms</text>
    </g>
   </g>
   <g id="line2d_21">
    <path d="M 39.792727 51.851332 
L 40.385155 56.363453 
L 41.340816 58.439285 
L 42.296476 52.285875 
L 43.252138 51.838509 
L 44.207793 59.9438 
L 45.163448 53.549611 
L 46.119097 51.289988 
L 47.074763 62.135036 
L 48.030424 49.865258 
L 48.986082 45.20354 
L 49.941739 41.617494 
L 50.897393 53.058079 
L 51.853052 54.881733 
L 52.808711 50.133107 
L 53.764362 59.200091 
L 54.720023 58.765548 
L 55.67568 51.822837 
L 56.631338 52.610713 
L 57.586995 56.857834 
L 58.542651 53.853078 
L 59.498312 48.732597 
L 60.453963 57.979097 
L 61.409619 58.450683 
L 62.365283 50.147354 
L 63.32094 54.860363 
L 64.276599 55.726599 
L 65.232253 38.1497 
L 66.187892 52.968321 
L 67.143569 49.118699 
L 68.099222 54.677997 
L 69.054886 57.553103 
L 70.01054 49.87808 
L 70.966199 60.332752 
L 71.921851 55.103991 
L 72.877518 54.829018 
L 73.833161 57.212592 
L 74.788825 44.105073 
L 75.744484 60.100521 
L 76.700143 54.418696 
L 77.655784 48.662785 
L 78.611456 39.449054 
L 79.567097 49.084506 
L 80.52277 53.099396 
L 81.478428 53.761895 
L 82.434088 47.695394 
L 83.389742 57.689877 
L 84.345406 49.668645 
L 94.097934 50.775661 
L 94.857926 54.602486 
L 95.813602 58.560387 
L 96.769258 59.638908 
L 97.72492 52.898509 
L 98.680574 45.140852 
L 99.636229 54.236331 
L 100.591885 45.36311 
L 101.547541 48.463323 
L 102.503197 45.024024 
L 103.458857 41.530585 
L 104.414511 43.30295 
L 105.370171 35.305938 
L 106.32583 40.355183 
L 107.281487 45.613862 
L 108.237141 51.017865 
L 109.192802 46.931738 
L 110.148456 47.614184 
L 111.104116 45.794803 
L 112.059775 44.152089 
L 113.015429 44.951363 
L 113.971092 47.571442 
L 114.92674 44.764723 
L 115.882398 48.424855 
L 116.838064 49.474882 
L 117.79372 49.32386 
L 118.749378 44.639347 
L 119.705028 36.856045 
L 120.660689 45.455717 
L 121.616347 44.531067 
L 122.572003 36.056771 
L 123.527662 48.390662 
L 127.350289 44.298836 
L 128.305953 53.153536 
L 129.261607 36.93583 
L 130.217264 53.375793 
L 131.172923 46.916066 
L 132.12858 35.964164 
L 133.084241 43.931256 
L 134.039879 45.172196 
L 134.995549 47.416146 
L 135.951212 36.806179 
L 136.906866 45.384481 
L 137.862526 34.280132 
L 138.818181 46.898969 
L 139.773839 41.158731 
L 140.729493 51.315633 
L 141.685154 43.255934 
L 142.640823 47.332087 
L 143.596469 46.799238 
L 144.552128 44.777546 
L 145.507782 32.571881 
L 146.46344 50.416629 
L 147.419098 53.774718 
L 148.374754 42.781498 
L 149.330413 42.999482 
L 150.286066 42.762977 
L 178.955853 42.762977 
L 187.874723 12.376328 
L 188.51241 49.581737 
L 189.468067 33.188789 
L 190.423722 31.295322 
L 191.37938 28.32191 
L 192.335043 45.992841 
L 193.290697 41.728623 
L 194.246353 44.075154 
L 195.202008 47.379103 
L 196.157669 34.841476 
L 197.113328 28.643899 
L 198.068986 9.472727 
L 199.024647 41.963703 
L 199.980297 39.279511 
L 200.935957 46.601201 
L 201.891613 40.964967 
L 202.847273 43.358514 
" clip-path="url(#p6d4d2e4ccb)" style="fill: none; stroke: #339af0; stroke-width: 1.2; stroke-linecap: square"/>
   </g>
   <g id="line2d_22">
    <path d="M 39.792727 98.57394 
L 40.385155 98.650875 
L 41.340816 98.716413 
L 42.296476 98.660848 
L 43.252138 98.695042 
L 44.207793 98.707864 
L 45.163448 98.643751 
L 46.119097 98.824692 
L 47.074763 98.383026 
L 48.030424 98.615257 
L 48.986082 98.518375 
L 49.941739 96.600688 
L 50.897393 98.6523 
L 51.853052 98.623805 
L 52.808711 98.357381 
L 53.764362 98.853187 
L 54.720023 98.838939 
L 55.67568 98.562542 
L 56.631338 98.561117 
L 57.586995 98.591036 
L 58.542651 98.743483 
L 59.498312 97.964155 
L 60.453963 98.786224 
L 61.409619 98.807595 
L 62.365283 98.558268 
L 63.32094 98.828966 
L 64.276599 98.726386 
L 65.232253 98.771977 
L 66.187892 98.657999 
L 67.143569 97.09222 
L 68.099222 98.903052 
L 69.054886 98.789074 
L 70.01054 98.620956 
L 70.966199 98.927273 
L 71.921851 98.80902 
L 72.877518 98.707864 
L 73.833161 97.046629 
L 74.788825 98.791923 
L 75.744484 98.72781 
L 76.700143 98.639477 
L 77.655784 98.776251 
L 78.611456 98.64945 
L 79.567097 98.693617 
L 80.52277 98.83609 
L 81.478428 98.786224 
L 82.434088 95.862678 
L 83.389742 98.683644 
L 84.345406 98.648026 
L 94.097934 97.895768 
L 94.857926 98.878832 
L 95.813602 98.885956 
L 96.769258 98.840364 
L 97.72492 98.780525 
L 98.680574 98.582488 
L 99.636229 98.814719 
L 100.591885 98.840364 
L 101.547541 98.425768 
L 102.503197 98.449988 
L 103.458857 98.682219 
L 104.414511 97.985526 
L 105.370171 98.685069 
L 106.32583 98.799047 
L 107.281487 98.767703 
L 108.237141 98.847488 
L 109.192802 98.913025 
L 110.148456 94.76706 
L 111.104116 98.700741 
L 112.059775 97.811709 
L 113.015429 98.72781 
L 113.971092 96.072113 
L 114.92674 97.667811 
L 115.882398 98.877407 
L 116.838064 98.756305 
L 117.79372 98.910176 
L 118.749378 98.717837 
L 119.705028 98.552569 
L 120.660689 98.72781 
L 121.616347 98.605284 
L 122.572003 98.663698 
L 123.527662 98.713563 
L 127.350289 98.5198 
L 128.305953 98.719262 
L 129.261607 90.262063 
L 130.217264 98.732085 
L 131.172923 98.133698 
L 132.12858 96.019398 
L 133.084241 98.628079 
L 134.039879 98.572515 
L 134.995549 98.752031 
L 135.951212 96.502382 
L 136.906866 98.696466 
L 137.862526 98.026843 
L 138.818181 98.596735 
L 139.773839 98.482757 
L 140.729493 98.744907 
L 141.685154 98.673671 
L 142.640823 98.689343 
L 143.596469 98.619531 
L 144.552128 98.618106 
L 145.507782 98.472784 
L 146.46344 98.64945 
L 147.419098 98.660848 
L 148.374754 98.569665 
L 149.330413 98.236279 
L 150.286066 98.660848 
L 178.955853 98.660848 
L 187.874723 98.495579 
L 188.51241 98.820418 
L 189.468067 98.311789 
L 190.423722 98.462811 
L 191.37938 98.686493 
L 192.335043 98.373053 
L 193.290697 98.602434 
L 194.246353 98.685069 
L 195.202008 98.585337 
L 196.157669 97.531037 
L 197.113328 98.454262 
L 198.068986 98.722112 
L 199.024647 96.015124 
L 199.980297 98.733509 
L 200.935957 97.016709 
L 201.891613 98.636628 
L 202.847273 98.656574 
" clip-path="url(#p6d4d2e4ccb)" style="fill: none; stroke: #ff6b6b; stroke-width: 1.2; stroke-linecap: square"/>
   </g>
   <g id="patch_3">
    <path d="M 31.64 103.4 
L 31.64 5 
" style="fill: none; stroke: var(--fg-color); stroke-width: 0.8; stroke-linejoin: miter; stroke-linecap: square"/>
   </g>
   <g id="patch_4">
    <path d="M 31.64 103.4 
L 211 103.4 
" style="fill: none; stroke: var(--fg-color); stroke-width: 0.8; stroke-linejoin: miter; stroke-linecap: square"/>
   </g>
  </g>
 </g>
 <defs>
  <clipPath id="p6d4d2e4ccb">
   <rect x="31.64" y="5" width="179.36" height="98.4"/>
  </clipPath>
 </defs>
</svg>
