<?xml version="1.0" encoding="utf-8" standalone="no"?>
<!DOCTYPE svg PUBLIC "-//W3C//DTD SVG 1.1//EN"
  "http://www.w3.org/Graphics/SVG/1.1/DTD/svg11.dtd">
<svg xmlns:xlink="http://www.w3.org/1999/xlink" width="737.28pt" height="552.96pt" viewBox="0 0 737.28 552.96" xmlns="http://www.w3.org/2000/svg" version="1.1">
 <metadata>
  <rdf:RDF xmlns:dc="http://purl.org/dc/elements/1.1/" xmlns:cc="http://creativecommons.org/ns#" xmlns:rdf="http://www.w3.org/1999/02/22-rdf-syntax-ns#">
   <cc:Work>
    <dc:type rdf:resource="http://purl.org/dc/dcmitype/StillImage"/>
    <dc:date>2026-06-30T04:48:16.241739</dc:date>
    <dc:format>image/svg+xml</dc:format>
    <dc:creator>
     <cc:Agent>
      <dc:title>Matplotlib v3.11.0, https://matplotlib.org/</dc:title>
     </cc:Agent>
    </dc:creator>
   </cc:Work>
  </rdf:RDF>
 </metadata>
 <defs>
  <style type="text/css">*{stroke-linejoin: round; stroke-linecap: butt}</style>
 </defs>
 <g id="figure_1">
  <g id="patch_1">
   <path d="M 0 552.96 
L 737.28 552.96 
L 737.28 0 
L 0 0 
z
" style="fill: #ffffff"/>
  </g>
  <g id="axes_1">
   <g id="patch_2">
    <path d="M 51.562344 510.837656 
L 682.837656 510.837656 
L 682.837656 26.16 
L 51.562344 26.16 
z
" style="fill: #ffffff"/>
   </g>
   <g id="matplotlib.axis_1">
    <g id="xtick_1">
     <g id="line2d_1">
      <path d="M 374.725224 510.837656 
L 374.725224 26.16 
" clip-path="url(#pbe7d96f291)" style="fill: none; stroke-dasharray: 2.96,1.28; stroke-dashoffset: 0; stroke: #dee2e6; stroke-width: 0.8"/>
     </g>
     <g id="line2d_2">
      <defs>
       <path id="m21b82d9ed2" d="M 0 0 
L 0 3.5 
" style="stroke: #212529; stroke-width: 0.8"/>
      </defs>
      <g>
       <use xlink:href="#m21b82d9ed2" x="374.725224" y="510.837656" style="fill: #212529; stroke: #212529; stroke-width: 0.8"/>
      </g>
     </g>
     <g id="text_1">
      <text style="font-size: 10px; font-family: 'DejaVu Sans', 'Bitstream Vera Sans', 'Computer Modern Sans Serif', 'Lucida Grande', 'Verdana', 'Geneva', 'Lucid', 'Arial', 'Helvetica', 'Avant Garde', sans-serif; text-anchor: middle; fill: #212529" x="374.725224" y="525.435313" transform="rotate(-0 374.725224 525.435313)">05/2026</text>
     </g>
    </g>
    <g id="text_2">
     <text style="font-size: 10px; font-family: 'DejaVu Sans', 'Bitstream Vera Sans', 'Computer Modern Sans Serif', 'Lucida Grande', 'Verdana', 'Geneva', 'Lucid', 'Arial', 'Helvetica', 'Avant Garde', sans-serif; text-anchor: middle; fill: #212529" x="367.2" y="539.436094" transform="rotate(-0 367.2 539.436094)">Time</text>
    </g>
   </g>
   <g id="matplotlib.axis_2">
    <g id="ytick_1">
     <g id="line2d_3">
      <path d="M 51.562344 472.055058 
L 682.837656 472.055058 
" clip-path="url(#pbe7d96f291)" style="fill: none; stroke-dasharray: 2.96,1.28; stroke-dashoffset: 0; stroke: #dee2e6; stroke-width: 0.8"/>
     </g>
     <g id="line2d_4">
      <defs>
       <path id="m2829125115" d="M 0 0 
L -3.5 0 
" style="stroke: #212529; stroke-width: 0.8"/>
      </defs>
      <g>
       <use xlink:href="#m2829125115" x="51.562344" y="472.055058" style="fill: #212529; stroke: #212529; stroke-width: 0.8"/>
      </g>
     </g>
     <g id="text_3">
      <text style="font-size: 10px; font-family: 'DejaVu Sans', 'Bitstream Vera Sans', 'Computer Modern Sans Serif', 'Lucida Grande', 'Verdana', 'Geneva', 'Lucid', 'Arial', 'Helvetica', 'Avant Garde', sans-serif; text-anchor: end; fill: #212529" x="44.562344" y="475.853886" transform="rotate(-0 44.562344 475.853886)">100</text>
     </g>
    </g>
    <g id="ytick_2">
     <g id="line2d_5">
      <path d="M 51.562344 415.590867 
L 682.837656 415.590867 
" clip-path="url(#pbe7d96f291)" style="fill: none; stroke-dasharray: 2.96,1.28; stroke-dashoffset: 0; stroke: #dee2e6; stroke-width: 0.8"/>
     </g>
     <g id="line2d_6">
      <g>
       <use xlink:href="#m2829125115" x="51.562344" y="415.590867" style="fill: #212529; stroke: #212529; stroke-width: 0.8"/>
      </g>
     </g>
     <g id="text_4">
      <text style="font-size: 10px; font-family: 'DejaVu Sans', 'Bitstream Vera Sans', 'Computer Modern Sans Serif', 'Lucida Grande', 'Verdana', 'Geneva', 'Lucid', 'Arial', 'Helvetica', 'Avant Garde', sans-serif; text-anchor: end; fill: #212529" x="44.562344" y="419.389695" transform="rotate(-0 44.562344 419.389695)">150</text>
     </g>
    </g>
    <g id="ytick_3">
     <g id="line2d_7">
      <path d="M 51.562344 359.126677 
L 682.837656 359.126677 
" clip-path="url(#pbe7d96f291)" style="fill: none; stroke-dasharray: 2.96,1.28; stroke-dashoffset: 0; stroke: #dee2e6; stroke-width: 0.8"/>
     </g>
     <g id="line2d_8">
      <g>
       <use xlink:href="#m2829125115" x="51.562344" y="359.126677" style="fill: #212529; stroke: #212529; stroke-width: 0.8"/>
      </g>
     </g>
     <g id="text_5">
      <text style="font-size: 10px; font-family: 'DejaVu Sans', 'Bitstream Vera Sans', 'Computer Modern Sans Serif', 'Lucida Grande', 'Verdana', 'Geneva', 'Lucid', 'Arial', 'Helvetica', 'Avant Garde', sans-serif; text-anchor: end; fill: #212529" x="44.562344" y="362.925505" transform="rotate(-0 44.562344 362.925505)">200</text>
     </g>
    </g>
    <g id="ytick_4">
     <g id="line2d_9">
      <path d="M 51.562344 302.662487 
L 682.837656 302.662487 
" clip-path="url(#pbe7d96f291)" style="fill: none; stroke-dasharray: 2.96,1.28; stroke-dashoffset: 0; stroke: #dee2e6; stroke-width: 0.8"/>
     </g>
     <g id="line2d_10">
      <g>
       <use xlink:href="#m2829125115" x="51.562344" y="302.662487" style="fill: #212529; stroke: #212529; stroke-width: 0.8"/>
      </g>
     </g>
     <g id="text_6">
      <text style="font-size: 10px; font-family: 'DejaVu Sans', 'Bitstream Vera Sans', 'Computer Modern Sans Serif', 'Lucida Grande', 'Verdana', 'Geneva', 'Lucid', 'Arial', 'Helvetica', 'Avant Garde', sans-serif; text-anchor: end; fill: #212529" x="44.562344" y="306.461315" transform="rotate(-0 44.562344 306.461315)">250</text>
     </g>
    </g>
    <g id="ytick_5">
     <g id="line2d_11">
      <path d="M 51.562344 246.198296 
L 682.837656 246.198296 
" clip-path="url(#pbe7d96f291)" style="fill: none; stroke-dasharray: 2.96,1.28; stroke-dashoffset: 0; stroke: #dee2e6; stroke-width: 0.8"/>
     </g>
     <g id="line2d_12">
      <g>
       <use xlink:href="#m2829125115" x="51.562344" y="246.198296" style="fill: #212529; stroke: #212529; stroke-width: 0.8"/>
      </g>
     </g>
     <g id="text_7">
      <text style="font-size: 10px; font-family: 'DejaVu Sans', 'Bitstream Vera Sans', 'Computer Modern Sans Serif', 'Lucida Grande', 'Verdana', 'Geneva', 'Lucid', 'Arial', 'Helvetica', 'Avant Garde', sans-serif; text-anchor: end; fill: #212529" x="44.562344" y="249.997124" transform="rotate(-0 44.562344 249.997124)">300</text>
     </g>
    </g>
    <g id="ytick_6">
     <g id="line2d_13">
      <path d="M 51.562344 189.734106 
L 682.837656 189.734106 
" clip-path="url(#pbe7d96f291)" style="fill: none; stroke-dasharray: 2.96,1.28; stroke-dashoffset: 0; stroke: #dee2e6; stroke-width: 0.8"/>
     </g>
     <g id="line2d_14">
      <g>
       <use xlink:href="#m2829125115" x="51.562344" y="189.734106" style="fill: #212529; stroke: #212529; stroke-width: 0.8"/>
      </g>
     </g>
     <g id="text_8">
      <text style="font-size: 10px; font-family: 'DejaVu Sans', 'Bitstream Vera Sans', 'Computer Modern Sans Serif', 'Lucida Grande', 'Verdana', 'Geneva', 'Lucid', 'Arial', 'Helvetica', 'Avant Garde', sans-serif; text-anchor: end; fill: #212529" x="44.562344" y="193.532934" transform="rotate(-0 44.562344 193.532934)">350</text>
     </g>
    </g>
    <g id="ytick_7">
     <g id="line2d_15">
      <path d="M 51.562344 133.269915 
L 682.837656 133.269915 
" clip-path="url(#pbe7d96f291)" style="fill: none; stroke-dasharray: 2.96,1.28; stroke-dashoffset: 0; stroke: #dee2e6; stroke-width: 0.8"/>
     </g>
     <g id="line2d_16">
      <g>
       <use xlink:href="#m2829125115" x="51.562344" y="133.269915" style="fill: #212529; stroke: #212529; stroke-width: 0.8"/>
      </g>
     </g>
     <g id="text_9">
      <text style="font-size: 10px; font-family: 'DejaVu Sans', 'Bitstream Vera Sans', 'Computer Modern Sans Serif', 'Lucida Grande', 'Verdana', 'Geneva', 'Lucid', 'Arial', 'Helvetica', 'Avant Garde', sans-serif; text-anchor: end; fill: #212529" x="44.562344" y="137.068743" transform="rotate(-0 44.562344 137.068743)">400</text>
     </g>
    </g>
    <g id="ytick_8">
     <g id="line2d_17">
      <path d="M 51.562344 76.805725 
L 682.837656 76.805725 
" clip-path="url(#pbe7d96f291)" style="fill: none; stroke-dasharray: 2.96,1.28; stroke-dashoffset: 0; stroke: #dee2e6; stroke-width: 0.8"/>
     </g>
     <g id="line2d_18">
      <g>
       <use xlink:href="#m2829125115" x="51.562344" y="76.805725" style="fill: #212529; stroke: #212529; stroke-width: 0.8"/>
      </g>
     </g>
     <g id="text_10">
      <text style="font-size: 10px; font-family: 'DejaVu Sans', 'Bitstream Vera Sans', 'Computer Modern Sans Serif', 'Lucida Grande', 'Verdana', 'Geneva', 'Lucid', 'Arial', 'Helvetica', 'Avant Garde', sans-serif; text-anchor: end; fill: #212529" x="44.562344" y="80.604553" transform="rotate(-0 44.562344 80.604553)">450</text>
     </g>
    </g>
    <g id="text_11">
     <text style="font-size: 10px; font-family: 'DejaVu Sans', 'Bitstream Vera Sans', 'Computer Modern Sans Serif', 'Lucida Grande', 'Verdana', 'Geneva', 'Lucid', 'Arial', 'Helvetica', 'Avant Garde', sans-serif; text-anchor: middle; fill: #212529" x="19.0725" y="268.498828" transform="rotate(-90 19.0725 268.498828)">Duration [ms]</text>
    </g>
   </g>
   <g id="line2d_19">
    <path d="M 80.256676 137.94515 
L 85.57043 263.341954 
L 90.884185 234.516984 
L 96.197942 156.130007 
L 101.511718 138.726615 
L 106.825461 186.212999 
L 112.139237 210.439524 
L 117.453009 169.263578 
L 122.766768 203.345363 
L 128.080513 143.49671 
L 133.394298 222.709193 
L 138.708042 209.934734 
L 144.021822 220.227027 
L 149.335592 175.302988 
L 154.649338 173.728766 
L 159.963131 271.165632 
L 165.276841 149.007614 
L 170.590609 169.483788 
L 175.904417 304.081996 
L 181.218175 302.02557 
L 186.531939 50.761053 
L 191.845661 277.581093 
L 197.159444 301.378491 
L 202.47321 261.588176 
L 207.786964 298.420897 
L 213.100735 261.066447 
L 234.355776 163.669106 
L 239.669577 96.480107 
L 244.983317 185.314089 
L 250.297081 236.276409 
L 255.610853 229.589919 
L 260.924612 239.009275 
L 266.238393 311.665137 
L 271.552048 241.561457 
L 276.865883 223.751522 
L 282.179676 232.312622 
L 287.493419 239.074774 
L 292.807201 264.175365 
L 298.120947 279.579925 
L 303.434714 294.431137 
L 308.748458 191.674215 
L 314.062241 283.962676 
L 319.376071 270.03296 
L 324.689767 48.190803 
L 330.003539 198.894856 
L 335.317287 238.385911 
L 340.631052 267.420927 
L 345.94482 234.31936 
L 351.25857 208.60218 
L 356.572347 168.087994 
L 361.886085 305.102869 
L 521.299331 305.102869 
L 570.891126 309.747613 
L 574.43687 318.574095 
L 579.750632 313.682038 
L 585.064382 320.721993 
L 590.378143 334.515066 
L 595.691939 321.699953 
L 601.005684 321.718021 
L 606.319438 311.8334 
L 611.63319 299.381917 
L 616.94697 303.373935 
L 622.260745 332.839208 
L 627.574508 69.70253 
L 632.888292 228.342061 
L 638.202013 244.896232 
L 643.515793 200.484888 
L 648.82955 177.16066 
L 654.143324 198.831616 
" clip-path="url(#pbe7d96f291)" style="fill: none; stroke: #007bff; stroke-width: 1.5; stroke-linecap: square"/>
    <defs>
     <path id="m9c189c862b" d="M 0 2 
C 0.530406 2 1.03916 1.789267 1.414214 1.414214 
C 1.789267 1.03916 2 0.530406 2 0 
C 2 -0.530406 1.789267 -1.03916 1.414214 -1.414214 
C 1.03916 -1.789267 0.530406 -2 0 -2 
C -0.530406 -2 -1.03916 -1.789267 -1.414214 -1.414214 
C -1.789267 -1.03916 -2 -0.530406 -2 0 
C -2 0.530406 -1.789267 1.03916 -1.414214 1.414214 
C -1.03916 1.789267 -0.530406 2 0 2 
z
" style="stroke: #007bff"/>
    </defs>
    <g clip-path="url(#pbe7d96f291)">
     <use xlink:href="#m9c189c862b" x="80.256676" y="137.94515" style="fill: #007bff; stroke: #007bff"/>
     <use xlink:href="#m9c189c862b" x="85.57043" y="263.341954" style="fill: #007bff; stroke: #007bff"/>
     <use xlink:href="#m9c189c862b" x="90.884185" y="234.516984" style="fill: #007bff; stroke: #007bff"/>
     <use xlink:href="#m9c189c862b" x="96.197942" y="156.130007" style="fill: #007bff; stroke: #007bff"/>
     <use xlink:href="#m9c189c862b" x="101.511718" y="138.726615" style="fill: #007bff; stroke: #007bff"/>
     <use xlink:href="#m9c189c862b" x="106.825461" y="186.212999" style="fill: #007bff; stroke: #007bff"/>
     <use xlink:href="#m9c189c862b" x="112.139237" y="210.439524" style="fill: #007bff; stroke: #007bff"/>
     <use xlink:href="#m9c189c862b" x="117.453009" y="169.263578" style="fill: #007bff; stroke: #007bff"/>
     <use xlink:href="#m9c189c862b" x="122.766768" y="203.345363" style="fill: #007bff; stroke: #007bff"/>
     <use xlink:href="#m9c189c862b" x="128.080513" y="143.49671" style="fill: #007bff; stroke: #007bff"/>
     <use xlink:href="#m9c189c862b" x="133.394298" y="222.709193" style="fill: #007bff; stroke: #007bff"/>
     <use xlink:href="#m9c189c862b" x="138.708042" y="209.934734" style="fill: #007bff; stroke: #007bff"/>
     <use xlink:href="#m9c189c862b" x="144.021822" y="220.227027" style="fill: #007bff; stroke: #007bff"/>
     <use xlink:href="#m9c189c862b" x="149.335592" y="175.302988" style="fill: #007bff; stroke: #007bff"/>
     <use xlink:href="#m9c189c862b" x="154.649338" y="173.728766" style="fill: #007bff; stroke: #007bff"/>
     <use xlink:href="#m9c189c862b" x="159.963131" y="271.165632" style="fill: #007bff; stroke: #007bff"/>
     <use xlink:href="#m9c189c862b" x="165.276841" y="149.007614" style="fill: #007bff; stroke: #007bff"/>
     <use xlink:href="#m9c189c862b" x="170.590609" y="169.483788" style="fill: #007bff; stroke: #007bff"/>
     <use xlink:href="#m9c189c862b" x="175.904417" y="304.081996" style="fill: #007bff; stroke: #007bff"/>
     <use xlink:href="#m9c189c862b" x="181.218175" y="302.02557" style="fill: #007bff; stroke: #007bff"/>
     <use xlink:href="#m9c189c862b" x="186.531939" y="50.761053" style="fill: #007bff; stroke: #007bff"/>
     <use xlink:href="#m9c189c862b" x="191.845661" y="277.581093" style="fill: #007bff; stroke: #007bff"/>
     <use xlink:href="#m9c189c862b" x="197.159444" y="301.378491" style="fill: #007bff; stroke: #007bff"/>
     <use xlink:href="#m9c189c862b" x="202.47321" y="261.588176" style="fill: #007bff; stroke: #007bff"/>
     <use xlink:href="#m9c189c862b" x="207.786964" y="298.420897" style="fill: #007bff; stroke: #007bff"/>
     <use xlink:href="#m9c189c862b" x="213.100735" y="261.066447" style="fill: #007bff; stroke: #007bff"/>
     <use xlink:href="#m9c189c862b" x="234.355776" y="163.669106" style="fill: #007bff; stroke: #007bff"/>
     <use xlink:href="#m9c189c862b" x="239.669577" y="96.480107" style="fill: #007bff; stroke: #007bff"/>
     <use xlink:href="#m9c189c862b" x="244.983317" y="185.314089" style="fill: #007bff; stroke: #007bff"/>
     <use xlink:href="#m9c189c862b" x="250.297081" y="236.276409" style="fill: #007bff; stroke: #007bff"/>
     <use xlink:href="#m9c189c862b" x="255.610853" y="229.589919" style="fill: #007bff; stroke: #007bff"/>
     <use xlink:href="#m9c189c862b" x="260.924612" y="239.009275" style="fill: #007bff; stroke: #007bff"/>
     <use xlink:href="#m9c189c862b" x="266.238393" y="311.665137" style="fill: #007bff; stroke: #007bff"/>
     <use xlink:href="#m9c189c862b" x="271.552048" y="241.561457" style="fill: #007bff; stroke: #007bff"/>
     <use xlink:href="#m9c189c862b" x="276.865883" y="223.751522" style="fill: #007bff; stroke: #007bff"/>
     <use xlink:href="#m9c189c862b" x="282.179676" y="232.312622" style="fill: #007bff; stroke: #007bff"/>
     <use xlink:href="#m9c189c862b" x="287.493419" y="239.074774" style="fill: #007bff; stroke: #007bff"/>
     <use xlink:href="#m9c189c862b" x="292.807201" y="264.175365" style="fill: #007bff; stroke: #007bff"/>
     <use xlink:href="#m9c189c862b" x="298.120947" y="279.579925" style="fill: #007bff; stroke: #007bff"/>
     <use xlink:href="#m9c189c862b" x="303.434714" y="294.431137" style="fill: #007bff; stroke: #007bff"/>
     <use xlink:href="#m9c189c862b" x="308.748458" y="191.674215" style="fill: #007bff; stroke: #007bff"/>
     <use xlink:href="#m9c189c862b" x="314.062241" y="283.962676" style="fill: #007bff; stroke: #007bff"/>
     <use xlink:href="#m9c189c862b" x="319.376071" y="270.03296" style="fill: #007bff; stroke: #007bff"/>
     <use xlink:href="#m9c189c862b" x="324.689767" y="48.190803" style="fill: #007bff; stroke: #007bff"/>
     <use xlink:href="#m9c189c862b" x="330.003539" y="198.894856" style="fill: #007bff; stroke: #007bff"/>
     <use xlink:href="#m9c189c862b" x="335.317287" y="238.385911" style="fill: #007bff; stroke: #007bff"/>
     <use xlink:href="#m9c189c862b" x="340.631052" y="267.420927" style="fill: #007bff; stroke: #007bff"/>
     <use xlink:href="#m9c189c862b" x="345.94482" y="234.31936" style="fill: #007bff; stroke: #007bff"/>
     <use xlink:href="#m9c189c862b" x="351.25857" y="208.60218" style="fill: #007bff; stroke: #007bff"/>
     <use xlink:href="#m9c189c862b" x="356.572347" y="168.087994" style="fill: #007bff; stroke: #007bff"/>
     <use xlink:href="#m9c189c862b" x="361.886085" y="305.102869" style="fill: #007bff; stroke: #007bff"/>
     <use xlink:href="#m9c189c862b" x="521.299331" y="305.102869" style="fill: #007bff; stroke: #007bff"/>
     <use xlink:href="#m9c189c862b" x="570.891126" y="309.747613" style="fill: #007bff; stroke: #007bff"/>
     <use xlink:href="#m9c189c862b" x="574.43687" y="318.574095" style="fill: #007bff; stroke: #007bff"/>
     <use xlink:href="#m9c189c862b" x="579.750632" y="313.682038" style="fill: #007bff; stroke: #007bff"/>
     <use xlink:href="#m9c189c862b" x="585.064382" y="320.721993" style="fill: #007bff; stroke: #007bff"/>
     <use xlink:href="#m9c189c862b" x="590.378143" y="334.515066" style="fill: #007bff; stroke: #007bff"/>
     <use xlink:href="#m9c189c862b" x="595.691939" y="321.699953" style="fill: #007bff; stroke: #007bff"/>
     <use xlink:href="#m9c189c862b" x="601.005684" y="321.718021" style="fill: #007bff; stroke: #007bff"/>
     <use xlink:href="#m9c189c862b" x="606.319438" y="311.8334" style="fill: #007bff; stroke: #007bff"/>
     <use xlink:href="#m9c189c862b" x="611.63319" y="299.381917" style="fill: #007bff; stroke: #007bff"/>
     <use xlink:href="#m9c189c862b" x="616.94697" y="303.373935" style="fill: #007bff; stroke: #007bff"/>
     <use xlink:href="#m9c189c862b" x="622.260745" y="332.839208" style="fill: #007bff; stroke: #007bff"/>
     <use xlink:href="#m9c189c862b" x="627.574508" y="69.70253" style="fill: #007bff; stroke: #007bff"/>
     <use xlink:href="#m9c189c862b" x="632.888292" y="228.342061" style="fill: #007bff; stroke: #007bff"/>
     <use xlink:href="#m9c189c862b" x="638.202013" y="244.896232" style="fill: #007bff; stroke: #007bff"/>
     <use xlink:href="#m9c189c862b" x="643.515793" y="200.484888" style="fill: #007bff; stroke: #007bff"/>
     <use xlink:href="#m9c189c862b" x="648.82955" y="177.16066" style="fill: #007bff; stroke: #007bff"/>
     <use xlink:href="#m9c189c862b" x="654.143324" y="198.831616" style="fill: #007bff; stroke: #007bff"/>
    </g>
   </g>
   <g id="line2d_20">
    <path d="M 80.256676 467.807821 
L 85.57043 474.939249 
L 90.884185 479.62013 
L 96.197942 479.25763 
L 101.511718 470.562144 
L 106.825461 475.439521 
L 112.139237 474.199568 
L 117.453009 461.312181 
L 122.766768 475.902528 
L 128.080513 473.834809 
L 133.394298 476.685121 
L 138.708042 478.133992 
L 144.021822 474.169077 
L 149.335592 468.229044 
L 154.649338 473.875463 
L 159.963131 477.117637 
L 165.276841 475.409031 
L 170.590609 471.597698 
L 175.904417 481.415691 
L 181.218175 476.722388 
L 186.531939 476.885005 
L 191.845661 477.413509 
L 197.159444 470.788001 
L 202.47321 481.640419 
L 207.786964 479.074686 
L 213.100735 470.815104 
L 234.355776 474.908758 
L 239.669577 475.208018 
L 244.983317 476.599296 
L 250.297081 481.580567 
L 255.610853 481.896766 
L 260.924612 480.066197 
L 266.238393 478.625231 
L 271.552048 480.886057 
L 276.865883 484.38119 
L 282.179676 472.347542 
L 287.493419 478.495363 
L 292.807201 477.895714 
L 298.120947 483.947545 
L 303.434714 478.634265 
L 308.748458 470.242557 
L 314.062241 475.038626 
L 319.376071 475.486951 
L 324.689767 482.34848 
L 330.003539 482.732436 
L 335.317287 477.519662 
L 340.631052 480.292054 
L 345.94482 479.952139 
L 351.25857 487.190849 
L 356.572347 480.974141 
L 361.886085 481.413433 
L 521.299331 481.413433 
L 570.891126 486.561837 
L 574.43687 488.080724 
L 579.750632 488.095405 
L 585.064382 487.382827 
L 590.378143 485.128776 
L 595.691939 481.253074 
L 601.005684 486.869003 
L 606.319438 479.551244 
L 611.63319 482.3801 
L 616.94697 488.605841 
L 622.260745 485.859423 
L 627.574508 483.448402 
L 632.888292 484.639796 
L 638.202013 483.54665 
L 643.515793 487.308294 
L 648.82955 488.806854 
L 654.143324 480.257046 
" clip-path="url(#pbe7d96f291)" style="fill: none; stroke: #dc3545; stroke-width: 1.5; stroke-linecap: square"/>
    <defs>
     <path id="m21396a249a" d="M 0 2 
C 0.530406 2 1.03916 1.789267 1.414214 1.414214 
C 1.789267 1.03916 2 0.530406 2 0 
C 2 -0.530406 1.789267 -1.03916 1.414214 -1.414214 
C 1.03916 -1.789267 0.530406 -2 0 -2 
C -0.530406 -2 -1.03916 -1.789267 -1.414214 -1.414214 
C -1.789267 -1.03916 -2 -0.530406 -2 0 
C -2 0.530406 -1.789267 1.03916 -1.414214 1.414214 
C -1.03916 1.789267 -0.530406 2 0 2 
z
" style="stroke: #dc3545"/>
    </defs>
    <g clip-path="url(#pbe7d96f291)">
     <use xlink:href="#m21396a249a" x="80.256676" y="467.807821" style="fill: #dc3545; stroke: #dc3545"/>
     <use xlink:href="#m21396a249a" x="85.57043" y="474.939249" style="fill: #dc3545; stroke: #dc3545"/>
     <use xlink:href="#m21396a249a" x="90.884185" y="479.62013" style="fill: #dc3545; stroke: #dc3545"/>
     <use xlink:href="#m21396a249a" x="96.197942" y="479.25763" style="fill: #dc3545; stroke: #dc3545"/>
     <use xlink:href="#m21396a249a" x="101.511718" y="470.562144" style="fill: #dc3545; stroke: #dc3545"/>
     <use xlink:href="#m21396a249a" x="106.825461" y="475.439521" style="fill: #dc3545; stroke: #dc3545"/>
     <use xlink:href="#m21396a249a" x="112.139237" y="474.199568" style="fill: #dc3545; stroke: #dc3545"/>
     <use xlink:href="#m21396a249a" x="117.453009" y="461.312181" style="fill: #dc3545; stroke: #dc3545"/>
     <use xlink:href="#m21396a249a" x="122.766768" y="475.902528" style="fill: #dc3545; stroke: #dc3545"/>
     <use xlink:href="#m21396a249a" x="128.080513" y="473.834809" style="fill: #dc3545; stroke: #dc3545"/>
     <use xlink:href="#m21396a249a" x="133.394298" y="476.685121" style="fill: #dc3545; stroke: #dc3545"/>
     <use xlink:href="#m21396a249a" x="138.708042" y="478.133992" style="fill: #dc3545; stroke: #dc3545"/>
     <use xlink:href="#m21396a249a" x="144.021822" y="474.169077" style="fill: #dc3545; stroke: #dc3545"/>
     <use xlink:href="#m21396a249a" x="149.335592" y="468.229044" style="fill: #dc3545; stroke: #dc3545"/>
     <use xlink:href="#m21396a249a" x="154.649338" y="473.875463" style="fill: #dc3545; stroke: #dc3545"/>
     <use xlink:href="#m21396a249a" x="159.963131" y="477.117637" style="fill: #dc3545; stroke: #dc3545"/>
     <use xlink:href="#m21396a249a" x="165.276841" y="475.409031" style="fill: #dc3545; stroke: #dc3545"/>
     <use xlink:href="#m21396a249a" x="170.590609" y="471.597698" style="fill: #dc3545; stroke: #dc3545"/>
     <use xlink:href="#m21396a249a" x="175.904417" y="481.415691" style="fill: #dc3545; stroke: #dc3545"/>
     <use xlink:href="#m21396a249a" x="181.218175" y="476.722388" style="fill: #dc3545; stroke: #dc3545"/>
     <use xlink:href="#m21396a249a" x="186.531939" y="476.885005" style="fill: #dc3545; stroke: #dc3545"/>
     <use xlink:href="#m21396a249a" x="191.845661" y="477.413509" style="fill: #dc3545; stroke: #dc3545"/>
     <use xlink:href="#m21396a249a" x="197.159444" y="470.788001" style="fill: #dc3545; stroke: #dc3545"/>
     <use xlink:href="#m21396a249a" x="202.47321" y="481.640419" style="fill: #dc3545; stroke: #dc3545"/>
     <use xlink:href="#m21396a249a" x="207.786964" y="479.074686" style="fill: #dc3545; stroke: #dc3545"/>
     <use xlink:href="#m21396a249a" x="213.100735" y="470.815104" style="fill: #dc3545; stroke: #dc3545"/>
     <use xlink:href="#m21396a249a" x="234.355776" y="474.908758" style="fill: #dc3545; stroke: #dc3545"/>
     <use xlink:href="#m21396a249a" x="239.669577" y="475.208018" style="fill: #dc3545; stroke: #dc3545"/>
     <use xlink:href="#m21396a249a" x="244.983317" y="476.599296" style="fill: #dc3545; stroke: #dc3545"/>
     <use xlink:href="#m21396a249a" x="250.297081" y="481.580567" style="fill: #dc3545; stroke: #dc3545"/>
     <use xlink:href="#m21396a249a" x="255.610853" y="481.896766" style="fill: #dc3545; stroke: #dc3545"/>
     <use xlink:href="#m21396a249a" x="260.924612" y="480.066197" style="fill: #dc3545; stroke: #dc3545"/>
     <use xlink:href="#m21396a249a" x="266.238393" y="478.625231" style="fill: #dc3545; stroke: #dc3545"/>
     <use xlink:href="#m21396a249a" x="271.552048" y="480.886057" style="fill: #dc3545; stroke: #dc3545"/>
     <use xlink:href="#m21396a249a" x="276.865883" y="484.38119" style="fill: #dc3545; stroke: #dc3545"/>
     <use xlink:href="#m21396a249a" x="282.179676" y="472.347542" style="fill: #dc3545; stroke: #dc3545"/>
     <use xlink:href="#m21396a249a" x="287.493419" y="478.495363" style="fill: #dc3545; stroke: #dc3545"/>
     <use xlink:href="#m21396a249a" x="292.807201" y="477.895714" style="fill: #dc3545; stroke: #dc3545"/>
     <use xlink:href="#m21396a249a" x="298.120947" y="483.947545" style="fill: #dc3545; stroke: #dc3545"/>
     <use xlink:href="#m21396a249a" x="303.434714" y="478.634265" style="fill: #dc3545; stroke: #dc3545"/>
     <use xlink:href="#m21396a249a" x="308.748458" y="470.242557" style="fill: #dc3545; stroke: #dc3545"/>
     <use xlink:href="#m21396a249a" x="314.062241" y="475.038626" style="fill: #dc3545; stroke: #dc3545"/>
     <use xlink:href="#m21396a249a" x="319.376071" y="475.486951" style="fill: #dc3545; stroke: #dc3545"/>
     <use xlink:href="#m21396a249a" x="324.689767" y="482.34848" style="fill: #dc3545; stroke: #dc3545"/>
     <use xlink:href="#m21396a249a" x="330.003539" y="482.732436" style="fill: #dc3545; stroke: #dc3545"/>
     <use xlink:href="#m21396a249a" x="335.317287" y="477.519662" style="fill: #dc3545; stroke: #dc3545"/>
     <use xlink:href="#m21396a249a" x="340.631052" y="480.292054" style="fill: #dc3545; stroke: #dc3545"/>
     <use xlink:href="#m21396a249a" x="345.94482" y="479.952139" style="fill: #dc3545; stroke: #dc3545"/>
     <use xlink:href="#m21396a249a" x="351.25857" y="487.190849" style="fill: #dc3545; stroke: #dc3545"/>
     <use xlink:href="#m21396a249a" x="356.572347" y="480.974141" style="fill: #dc3545; stroke: #dc3545"/>
     <use xlink:href="#m21396a249a" x="361.886085" y="481.413433" style="fill: #dc3545; stroke: #dc3545"/>
     <use xlink:href="#m21396a249a" x="521.299331" y="481.413433" style="fill: #dc3545; stroke: #dc3545"/>
     <use xlink:href="#m21396a249a" x="570.891126" y="486.561837" style="fill: #dc3545; stroke: #dc3545"/>
     <use xlink:href="#m21396a249a" x="574.43687" y="488.080724" style="fill: #dc3545; stroke: #dc3545"/>
     <use xlink:href="#m21396a249a" x="579.750632" y="488.095405" style="fill: #dc3545; stroke: #dc3545"/>
     <use xlink:href="#m21396a249a" x="585.064382" y="487.382827" style="fill: #dc3545; stroke: #dc3545"/>
     <use xlink:href="#m21396a249a" x="590.378143" y="485.128776" style="fill: #dc3545; stroke: #dc3545"/>
     <use xlink:href="#m21396a249a" x="595.691939" y="481.253074" style="fill: #dc3545; stroke: #dc3545"/>
     <use xlink:href="#m21396a249a" x="601.005684" y="486.869003" style="fill: #dc3545; stroke: #dc3545"/>
     <use xlink:href="#m21396a249a" x="606.319438" y="479.551244" style="fill: #dc3545; stroke: #dc3545"/>
     <use xlink:href="#m21396a249a" x="611.63319" y="482.3801" style="fill: #dc3545; stroke: #dc3545"/>
     <use xlink:href="#m21396a249a" x="616.94697" y="488.605841" style="fill: #dc3545; stroke: #dc3545"/>
     <use xlink:href="#m21396a249a" x="622.260745" y="485.859423" style="fill: #dc3545; stroke: #dc3545"/>
     <use xlink:href="#m21396a249a" x="627.574508" y="483.448402" style="fill: #dc3545; stroke: #dc3545"/>
     <use xlink:href="#m21396a249a" x="632.888292" y="484.639796" style="fill: #dc3545; stroke: #dc3545"/>
     <use xlink:href="#m21396a249a" x="638.202013" y="483.54665" style="fill: #dc3545; stroke: #dc3545"/>
     <use xlink:href="#m21396a249a" x="643.515793" y="487.308294" style="fill: #dc3545; stroke: #dc3545"/>
     <use xlink:href="#m21396a249a" x="648.82955" y="488.806854" style="fill: #dc3545; stroke: #dc3545"/>
     <use xlink:href="#m21396a249a" x="654.143324" y="480.257046" style="fill: #dc3545; stroke: #dc3545"/>
    </g>
   </g>
   <g id="patch_3">
    <path d="M 51.562344 510.837656 
L 51.562344 26.16 
" style="fill: none; stroke: #212529; stroke-width: 0.8; stroke-linejoin: miter; stroke-linecap: square"/>
   </g>
   <g id="patch_4">
    <path d="M 51.562344 510.837656 
L 682.837656 510.837656 
" style="fill: none; stroke: #212529; stroke-width: 0.8; stroke-linejoin: miter; stroke-linecap: square"/>
   </g>
   <g id="patch_5">
    <path d="M 51.562344 26.16 
L 682.837656 26.16 
" style="fill: none; stroke: #212529; stroke-width: 0.8; stroke-linejoin: miter; stroke-linecap: square"/>
   </g>
   <g id="legend_1">
    <g id="patch_6">
     <path d="M 57.393344 70.310952 
L 131.246603 70.310952 
Q 132.912603 70.310952 132.912603 68.644952 
L 132.912603 31.991 
Q 132.912603 30.325 131.246603 30.325 
L 57.393344 30.325 
Q 55.727344 30.325 55.727344 31.991 
L 55.727344 68.644952 
Q 55.727344 70.310952 57.393344 70.310952 
L 57.393344 70.310952 
z
" style="fill: none; opacity: 0.8; stroke: #212529; stroke-linejoin: miter"/>
    </g>
    <g id="line2d_21">
     <path d="M 59.059344 37.070998 
L 67.389344 37.070998 
L 75.719344 37.070998 
" style="fill: none; stroke: #007bff; stroke-width: 1.5; stroke-linecap: square"/>
     <g>
      <use xlink:href="#m9c189c862b" x="67.389344" y="37.070998" style="fill: #007bff; stroke: #007bff"/>
     </g>
    </g>
    <g id="text_12">
     <text style="font-size: 8.33px; font-family: 'DejaVu Sans', 'Bitstream Vera Sans', 'Computer Modern Sans Serif', 'Lucida Grande', 'Verdana', 'Geneva', 'Lucid', 'Arial', 'Helvetica', 'Avant Garde', sans-serif; text-anchor: start; fill: #212529" x="82.383344" y="39.986498" transform="rotate(-0 82.383344 39.986498)">Cold Start</text>
    </g>
    <g id="line2d_22">
     <path d="M 59.059344 49.566649 
L 67.389344 49.566649 
L 75.719344 49.566649 
" style="fill: none; stroke: #dc3545; stroke-width: 1.5; stroke-linecap: square"/>
     <g>
      <use xlink:href="#m21396a249a" x="67.389344" y="49.566649" style="fill: #dc3545; stroke: #dc3545"/>
     </g>
    </g>
    <g id="text_13">
     <text style="font-size: 8.33px; font-family: 'DejaVu Sans', 'Bitstream Vera Sans', 'Computer Modern Sans Serif', 'Lucida Grande', 'Verdana', 'Geneva', 'Lucid', 'Arial', 'Helvetica', 'Avant Garde', sans-serif; text-anchor: start; fill: #212529" x="82.383344" y="52.482149" transform="rotate(-0 82.383344 52.482149)">Warm Start</text>
    </g>
    <g id="line2d_23">
     <path d="M 59.059344 62.0623 
L 67.389344 62.0623 
L 75.719344 62.0623 
" style="fill: none; stroke-dasharray: 5.55,2.4; stroke-dashoffset: 0; stroke: #ff7f0e; stroke-width: 1.5"/>
    </g>
    <g id="text_14">
     <text style="font-size: 8.33px; font-family: 'DejaVu Sans', 'Bitstream Vera Sans', 'Computer Modern Sans Serif', 'Lucida Grande', 'Verdana', 'Geneva', 'Lucid', 'Arial', 'Helvetica', 'Avant Garde', sans-serif; text-anchor: start; fill: #212529" x="82.383344" y="64.9778" transform="rotate(-0 82.383344 64.9778)">Memory</text>
    </g>
   </g>
  </g>
  <g id="axes_2">
   <g id="matplotlib.axis_3">
    <g id="ytick_9">
     <g id="line2d_24">
      <defs>
       <path id="m6208f6080f" d="M 0 0 
L 3.5 0 
" style="stroke: #212529; stroke-width: 0.8"/>
      </defs>
      <g>
       <use xlink:href="#m6208f6080f" x="682.837656" y="501.046188" style="fill: #212529; stroke: #212529; stroke-width: 0.8"/>
      </g>
     </g>
     <g id="text_15">
      <text style="font-size: 10px; font-family: 'DejaVu Sans', 'Bitstream Vera Sans', 'Computer Modern Sans Serif', 'Lucida Grande', 'Verdana', 'Geneva', 'Lucid', 'Arial', 'Helvetica', 'Avant Garde', sans-serif; text-anchor: start; fill: #ff7f0e" x="689.837656" y="504.845017" transform="rotate(-0 689.837656 504.845017)">74.5</text>
     </g>
    </g>
    <g id="ytick_10">
     <g id="line2d_25">
      <g>
       <use xlink:href="#m6208f6080f" x="682.837656" y="439.849515" style="fill: #212529; stroke: #212529; stroke-width: 0.8"/>
      </g>
     </g>
     <g id="text_16">
      <text style="font-size: 10px; font-family: 'DejaVu Sans', 'Bitstream Vera Sans', 'Computer Modern Sans Serif', 'Lucida Grande', 'Verdana', 'Geneva', 'Lucid', 'Arial', 'Helvetica', 'Avant Garde', sans-serif; text-anchor: start; fill: #ff7f0e" x="689.837656" y="443.648343" transform="rotate(-0 689.837656 443.648343)">75.0</text>
     </g>
    </g>
    <g id="ytick_11">
     <g id="line2d_26">
      <g>
       <use xlink:href="#m6208f6080f" x="682.837656" y="378.652841" style="fill: #212529; stroke: #212529; stroke-width: 0.8"/>
      </g>
     </g>
     <g id="text_17">
      <text style="font-size: 10px; font-family: 'DejaVu Sans', 'Bitstream Vera Sans', 'Computer Modern Sans Serif', 'Lucida Grande', 'Verdana', 'Geneva', 'Lucid', 'Arial', 'Helvetica', 'Avant Garde', sans-serif; text-anchor: start; fill: #ff7f0e" x="689.837656" y="382.451669" transform="rotate(-0 689.837656 382.451669)">75.5</text>
     </g>
    </g>
    <g id="ytick_12">
     <g id="line2d_27">
      <g>
       <use xlink:href="#m6208f6080f" x="682.837656" y="317.456167" style="fill: #212529; stroke: #212529; stroke-width: 0.8"/>
      </g>
     </g>
     <g id="text_18">
      <text style="font-size: 10px; font-family: 'DejaVu Sans', 'Bitstream Vera Sans', 'Computer Modern Sans Serif', 'Lucida Grande', 'Verdana', 'Geneva', 'Lucid', 'Arial', 'Helvetica', 'Avant Garde', sans-serif; text-anchor: start; fill: #ff7f0e" x="689.837656" y="321.254995" transform="rotate(-0 689.837656 321.254995)">76.0</text>
     </g>
    </g>
    <g id="ytick_13">
     <g id="line2d_28">
      <g>
       <use xlink:href="#m6208f6080f" x="682.837656" y="256.259493" style="fill: #212529; stroke: #212529; stroke-width: 0.8"/>
      </g>
     </g>
     <g id="text_19">
      <text style="font-size: 10px; font-family: 'DejaVu Sans', 'Bitstream Vera Sans', 'Computer Modern Sans Serif', 'Lucida Grande', 'Verdana', 'Geneva', 'Lucid', 'Arial', 'Helvetica', 'Avant Garde', sans-serif; text-anchor: start; fill: #ff7f0e" x="689.837656" y="260.058321" transform="rotate(-0 689.837656 260.058321)">76.5</text>
     </g>
    </g>
    <g id="ytick_14">
     <g id="line2d_29">
      <g>
       <use xlink:href="#m6208f6080f" x="682.837656" y="195.06282" style="fill: #212529; stroke: #212529; stroke-width: 0.8"/>
      </g>
     </g>
     <g id="text_20">
      <text style="font-size: 10px; font-family: 'DejaVu Sans', 'Bitstream Vera Sans', 'Computer Modern Sans Serif', 'Lucida Grande', 'Verdana', 'Geneva', 'Lucid', 'Arial', 'Helvetica', 'Avant Garde', sans-serif; text-anchor: start; fill: #ff7f0e" x="689.837656" y="198.861648" transform="rotate(-0 689.837656 198.861648)">77.0</text>
     </g>
    </g>
    <g id="ytick_15">
     <g id="line2d_30">
      <g>
       <use xlink:href="#m6208f6080f" x="682.837656" y="133.866146" style="fill: #212529; stroke: #212529; stroke-width: 0.8"/>
      </g>
     </g>
     <g id="text_21">
      <text style="font-size: 10px; font-family: 'DejaVu Sans', 'Bitstream Vera Sans', 'Computer Modern Sans Serif', 'Lucida Grande', 'Verdana', 'Geneva', 'Lucid', 'Arial', 'Helvetica', 'Avant Garde', sans-serif; text-anchor: start; fill: #ff7f0e" x="689.837656" y="137.664974" transform="rotate(-0 689.837656 137.664974)">77.5</text>
     </g>
    </g>
    <g id="ytick_16">
     <g id="line2d_31">
      <g>
       <use xlink:href="#m6208f6080f" x="682.837656" y="72.669472" style="fill: #212529; stroke: #212529; stroke-width: 0.8"/>
      </g>
     </g>
     <g id="text_22">
      <text style="font-size: 10px; font-family: 'DejaVu Sans', 'Bitstream Vera Sans', 'Computer Modern Sans Serif', 'Lucida Grande', 'Verdana', 'Geneva', 'Lucid', 'Arial', 'Helvetica', 'Avant Garde', sans-serif; text-anchor: start; fill: #ff7f0e" x="689.837656" y="76.4683" transform="rotate(-0 689.837656 76.4683)">78.0</text>
     </g>
    </g>
    <g id="text_23">
     <text style="font-size: 10px; font-family: 'DejaVu Sans', 'Bitstream Vera Sans', 'Computer Modern Sans Serif', 'Lucida Grande', 'Verdana', 'Geneva', 'Lucid', 'Arial', 'Helvetica', 'Avant Garde', sans-serif; text-anchor: middle; fill: #ff7f0e" x="723.701719" y="268.498828" transform="rotate(-90 723.701719 268.498828)">Memory Usage [MB]</text>
    </g>
   </g>
   <g id="line2d_32">
    <path d="M 80.256676 390.892176 
L 85.57043 378.652841 
L 90.884185 439.849515 
L 96.197942 341.934837 
L 101.511718 268.498828 
L 106.825461 341.934837 
L 112.139237 256.259493 
L 117.453009 207.302154 
L 122.766768 378.652841 
L 128.080513 280.738163 
L 133.394298 403.13151 
L 138.708042 341.934837 
L 144.021822 268.498828 
L 149.335592 390.892176 
L 154.649338 341.934837 
L 159.963131 378.652841 
L 165.276841 292.977498 
L 170.590609 292.977498 
L 175.904417 378.652841 
L 181.218175 378.652841 
L 186.531939 415.370845 
L 191.845661 415.370845 
L 197.159444 488.806854 
L 202.47321 415.370845 
L 207.786964 464.328184 
L 213.100735 341.934837 
L 234.355776 415.370845 
L 239.669577 390.892176 
L 244.983317 415.370845 
L 250.297081 341.934837 
L 255.610853 439.849515 
L 260.924612 390.892176 
L 266.238393 415.370845 
L 271.552048 415.370845 
L 276.865883 341.934837 
L 282.179676 439.849515 
L 287.493419 390.892176 
L 292.807201 415.370845 
L 298.120947 366.413506 
L 303.434714 464.328184 
L 308.748458 390.892176 
L 314.062241 439.849515 
L 319.376071 464.328184 
L 324.689767 219.541489 
L 330.003539 231.780824 
L 335.317287 97.148142 
L 340.631052 48.190803 
L 345.94482 170.58415 
L 351.25857 182.823485 
L 356.572347 170.58415 
L 361.886085 133.866146 
L 521.299331 133.866146 
L 570.891126 439.849515 
L 574.43687 317.456167 
L 579.750632 341.934837 
L 585.064382 329.695502 
L 590.378143 390.892176 
L 595.691939 244.020159 
L 601.005684 390.892176 
L 606.319438 366.413506 
L 611.63319 317.456167 
L 616.94697 390.892176 
L 622.260745 390.892176 
L 627.574508 378.652841 
L 632.888292 231.780824 
L 638.202013 292.977498 
L 643.515793 341.934837 
L 648.82955 244.020159 
L 654.143324 219.541489 
" clip-path="url(#pbe7d96f291)" style="fill: none; stroke-dasharray: 5.55,2.4; stroke-dashoffset: 0; stroke: #ff7f0e; stroke-width: 1.5"/>
   </g>
   <g id="patch_7">
    <path d="M 682.837656 510.837656 
L 682.837656 26.16 
" style="fill: none; stroke: #ff7f0e; stroke-width: 0.8; stroke-linejoin: miter; stroke-linecap: square"/>
   </g>
   <g id="text_24">
    <text style="font-size: 12px; font-family: 'DejaVu Sans', 'Bitstream Vera Sans', 'Computer Modern Sans Serif', 'Lucida Grande', 'Verdana', 'Geneva', 'Lucid', 'Arial', 'Helvetica', 'Avant Garde', sans-serif; text-anchor: middle; fill: #212529" x="367.2" y="20.16" transform="rotate(-0 367.2 20.16)">dotnet10 (arm64, zip, 1024MB, us-east-1)</text>
   </g>
  </g>
 </g>
 <defs>
  <clipPath id="pbe7d96f291">
   <rect x="51.562344" y="26.16" width="631.275313" height="484.677656"/>
  </clipPath>
 </defs>
</svg>
