<?xml version="1.0" encoding="utf-8" standalone="no"?>
<!DOCTYPE svg PUBLIC "-//W3C//DTD SVG 1.1//EN"
  "http://www.w3.org/Graphics/SVG/1.1/DTD/svg11.dtd">
<svg xmlns:xlink="http://www.w3.org/1999/xlink" width="216pt" height="122.4pt" viewBox="0 0 216 122.4" xmlns="http://www.w3.org/2000/svg" version="1.1">
  <style>
    :root {
      --fg-color: #212529;
      --grid-color: rgba(33, 37, 41, 0.1);
    }
    @media (prefers-color-scheme: dark) {
      :root {
        --fg-color: #dee2e6;
        --grid-color: rgba(248, 249, 250, 0.15);
      }
    }
  </style>

 <metadata>
  <rdf:RDF xmlns:dc="http://purl.org/dc/elements/1.1/" xmlns:cc="http://creativecommons.org/ns#" xmlns:rdf="http://www.w3.org/1999/02/22-rdf-syntax-ns#">
   <cc:Work>
    <dc:type rdf:resource="http://purl.org/dc/dcmitype/StillImage"/>
    <dc:date>2026-06-30T04:48:35.940938</dc:date>
    <dc:format>image/svg+xml</dc:format>
    <dc:creator>
     <cc:Agent>
      <dc:title>Matplotlib v3.11.0, https://matplotlib.org/</dc:title>
     </cc:Agent>
    </dc:creator>
   </cc:Work>
  </rdf:RDF>
 </metadata>
 <defs>
  <style type="text/css">*{stroke-linejoin: round; stroke-linecap: butt}</style>
 </defs>
 <g id="figure_1">
  <g id="patch_1">
   <path d="M 0 122.4 
L 216 122.4 
L 216 0 
L 0 0 
L 0 122.4 
z
" style="fill: none; opacity: 0"/>
  </g>
  <g id="axes_1">
   <g id="patch_2">
    <path d="M 35.96 103.4 
L 211 103.4 
L 211 5 
L 35.96 5 
L 35.96 103.4 
z
" style="fill: none; opacity: 0"/>
   </g>
   <g id="matplotlib.axis_1">
    <g id="xtick_1">
     <g id="line2d_1">
      <path d="M 72.056377 103.4 
L 72.056377 5 
" clip-path="url(#p30e8606937)" style="fill: none; stroke-dasharray: 2.96,1.28; stroke-dashoffset: 0; stroke: var(--grid-color); stroke-width: 0.8"/>
     </g>
     <g id="line2d_2">
      <defs>
       <path id="m75a5de7d2f" d="M 0 0 
L 0 3.5 
" style="stroke: var(--fg-color); stroke-width: 0.8"/>
      </defs>
      <g>
       <use xlink:href="#m75a5de7d2f" x="72.056377" y="103.4" style="fill: var(--fg-color); stroke: var(--fg-color); stroke-width: 0.8"/>
      </g>
     </g>
     <g id="text_1">
      <text style="font-size: 7px; font-family: 'DejaVu Sans', 'Bitstream Vera Sans', 'Computer Modern Sans Serif', 'Lucida Grande', 'Verdana', 'Geneva', 'Lucid', 'Arial', 'Helvetica', 'Avant Garde', sans-serif; text-anchor: middle; fill: var(--fg-color)" x="72.056377" y="115.718359" transform="rotate(-0 72.056377 115.718359)">02/2026</text>
     </g>
    </g>
    <g id="xtick_2">
     <g id="line2d_3">
      <path d="M 126.640628 103.4 
L 126.640628 5 
" clip-path="url(#p30e8606937)" style="fill: none; stroke-dasharray: 2.96,1.28; stroke-dashoffset: 0; stroke: var(--grid-color); stroke-width: 0.8"/>
     </g>
     <g id="line2d_4">
      <g>
       <use xlink:href="#m75a5de7d2f" x="126.640628" y="103.4" style="fill: var(--fg-color); stroke: var(--fg-color); stroke-width: 0.8"/>
      </g>
     </g>
     <g id="text_2">
      <text style="font-size: 7px; font-family: 'DejaVu Sans', 'Bitstream Vera Sans', 'Computer Modern Sans Serif', 'Lucida Grande', 'Verdana', 'Geneva', 'Lucid', 'Arial', 'Helvetica', 'Avant Garde', sans-serif; text-anchor: middle; fill: var(--fg-color)" x="126.640628" y="115.718359" transform="rotate(-0 126.640628 115.718359)">04/2026</text>
     </g>
    </g>
    <g id="xtick_3">
     <g id="line2d_5">
      <path d="M 183.075192 103.4 
L 183.075192 5 
" clip-path="url(#p30e8606937)" style="fill: none; stroke-dasharray: 2.96,1.28; stroke-dashoffset: 0; stroke: var(--grid-color); stroke-width: 0.8"/>
     </g>
     <g id="line2d_6">
      <g>
       <use xlink:href="#m75a5de7d2f" x="183.075192" y="103.4" style="fill: var(--fg-color); stroke: var(--fg-color); stroke-width: 0.8"/>
      </g>
     </g>
     <g id="text_3">
      <text style="font-size: 7px; font-family: 'DejaVu Sans', 'Bitstream Vera Sans', 'Computer Modern Sans Serif', 'Lucida Grande', 'Verdana', 'Geneva', 'Lucid', 'Arial', 'Helvetica', 'Avant Garde', sans-serif; text-anchor: middle; fill: var(--fg-color)" x="183.075192" y="115.718359" transform="rotate(-0 183.075192 115.718359)">06/2026</text>
     </g>
    </g>
   </g>
   <g id="matplotlib.axis_2">
    <g id="ytick_1">
     <g id="line2d_7">
      <path d="M 35.96 96.070778 
L 211 96.070778 
" clip-path="url(#p30e8606937)" style="fill: none; stroke-dasharray: 2.96,1.28; stroke-dashoffset: 0; stroke: var(--grid-color); stroke-width: 0.8"/>
     </g>
     <g id="line2d_8">
      <defs>
       <path id="m67591f3933" d="M 0 0 
L -3.5 0 
" style="stroke: var(--fg-color); stroke-width: 0.8"/>
      </defs>
      <g>
       <use xlink:href="#m67591f3933" x="35.96" y="96.070778" style="fill: var(--fg-color); stroke: var(--fg-color); stroke-width: 0.8"/>
      </g>
     </g>
     <g id="text_4">
      <text style="font-size: 7px; font-family: 'DejaVu Sans', 'Bitstream Vera Sans', 'Computer Modern Sans Serif', 'Lucida Grande', 'Verdana', 'Geneva', 'Lucid', 'Arial', 'Helvetica', 'Avant Garde', sans-serif; text-anchor: end; fill: var(--fg-color)" x="28.96" y="98.729958" transform="rotate(-0 28.96 98.729958)">20</text>
     </g>
    </g>
    <g id="ytick_2">
     <g id="line2d_9">
      <path d="M 35.96 80.852373 
L 211 80.852373 
" clip-path="url(#p30e8606937)" style="fill: none; stroke-dasharray: 2.96,1.28; stroke-dashoffset: 0; stroke: var(--grid-color); stroke-width: 0.8"/>
     </g>
     <g id="line2d_10">
      <g>
       <use xlink:href="#m67591f3933" x="35.96" y="80.852373" style="fill: var(--fg-color); stroke: var(--fg-color); stroke-width: 0.8"/>
      </g>
     </g>
     <g id="text_5">
      <text style="font-size: 7px; font-family: 'DejaVu Sans', 'Bitstream Vera Sans', 'Computer Modern Sans Serif', 'Lucida Grande', 'Verdana', 'Geneva', 'Lucid', 'Arial', 'Helvetica', 'Avant Garde', sans-serif; text-anchor: end; fill: var(--fg-color)" x="28.96" y="83.511553" transform="rotate(-0 28.96 83.511553)">40</text>
     </g>
    </g>
    <g id="ytick_3">
     <g id="line2d_11">
      <path d="M 35.96 65.633968 
L 211 65.633968 
" clip-path="url(#p30e8606937)" style="fill: none; stroke-dasharray: 2.96,1.28; stroke-dashoffset: 0; stroke: var(--grid-color); stroke-width: 0.8"/>
     </g>
     <g id="line2d_12">
      <g>
       <use xlink:href="#m67591f3933" x="35.96" y="65.633968" style="fill: var(--fg-color); stroke: var(--fg-color); stroke-width: 0.8"/>
      </g>
     </g>
     <g id="text_6">
      <text style="font-size: 7px; font-family: 'DejaVu Sans', 'Bitstream Vera Sans', 'Computer Modern Sans Serif', 'Lucida Grande', 'Verdana', 'Geneva', 'Lucid', 'Arial', 'Helvetica', 'Avant Garde', sans-serif; text-anchor: end; fill: var(--fg-color)" x="28.96" y="68.293148" transform="rotate(-0 28.96 68.293148)">60</text>
     </g>
    </g>
    <g id="ytick_4">
     <g id="line2d_13">
      <path d="M 35.96 50.415563 
L 211 50.415563 
" clip-path="url(#p30e8606937)" style="fill: none; stroke-dasharray: 2.96,1.28; stroke-dashoffset: 0; stroke: var(--grid-color); stroke-width: 0.8"/>
     </g>
     <g id="line2d_14">
      <g>
       <use xlink:href="#m67591f3933" x="35.96" y="50.415563" style="fill: var(--fg-color); stroke: var(--fg-color); stroke-width: 0.8"/>
      </g>
     </g>
     <g id="text_7">
      <text style="font-size: 7px; font-family: 'DejaVu Sans', 'Bitstream Vera Sans', 'Computer Modern Sans Serif', 'Lucida Grande', 'Verdana', 'Geneva', 'Lucid', 'Arial', 'Helvetica', 'Avant Garde', sans-serif; text-anchor: end; fill: var(--fg-color)" x="28.96" y="53.074743" transform="rotate(-0 28.96 53.074743)">80</text>
     </g>
    </g>
    <g id="ytick_5">
     <g id="line2d_15">
      <path d="M 35.96 35.197158 
L 211 35.197158 
" clip-path="url(#p30e8606937)" style="fill: none; stroke-dasharray: 2.96,1.28; stroke-dashoffset: 0; stroke: var(--grid-color); stroke-width: 0.8"/>
     </g>
     <g id="line2d_16">
      <g>
       <use xlink:href="#m67591f3933" x="35.96" y="35.197158" style="fill: var(--fg-color); stroke: var(--fg-color); stroke-width: 0.8"/>
      </g>
     </g>
     <g id="text_8">
      <text style="font-size: 7px; font-family: 'DejaVu Sans', 'Bitstream Vera Sans', 'Computer Modern Sans Serif', 'Lucida Grande', 'Verdana', 'Geneva', 'Lucid', 'Arial', 'Helvetica', 'Avant Garde', sans-serif; text-anchor: end; fill: var(--fg-color)" x="28.96" y="37.856338" transform="rotate(-0 28.96 37.856338)">100</text>
     </g>
    </g>
    <g id="ytick_6">
     <g id="line2d_17">
      <path d="M 35.96 19.978753 
L 211 19.978753 
" clip-path="url(#p30e8606937)" style="fill: none; stroke-dasharray: 2.96,1.28; stroke-dashoffset: 0; stroke: var(--grid-color); stroke-width: 0.8"/>
     </g>
     <g id="line2d_18">
      <g>
       <use xlink:href="#m67591f3933" x="35.96" y="19.978753" style="fill: var(--fg-color); stroke: var(--fg-color); stroke-width: 0.8"/>
      </g>
     </g>
     <g id="text_9">
      <text style="font-size: 7px; font-family: 'DejaVu Sans', 'Bitstream Vera Sans', 'Computer Modern Sans Serif', 'Lucida Grande', 'Verdana', 'Geneva', 'Lucid', 'Arial', 'Helvetica', 'Avant Garde', sans-serif; text-anchor: end; fill: var(--fg-color)" x="28.96" y="22.637933" transform="rotate(-0 28.96 22.637933)">120</text>
     </g>
    </g>
    <g id="text_10">
     <text style="font-size: 7px; font-family: 'DejaVu Sans', 'Bitstream Vera Sans', 'Computer Modern Sans Serif', 'Lucida Grande', 'Verdana', 'Geneva', 'Lucid', 'Arial', 'Helvetica', 'Avant Garde', sans-serif; text-anchor: middle; fill: var(--fg-color)" x="9.917109" y="54.2" transform="rotate(-90 9.917109 54.2)">ms</text>
    </g>
   </g>
   <g id="line2d_19">
    <path d="M 43.916364 22.060631 
L 45.193108 25.589779 
L 45.766628 21.817136 
L 46.691788 25.023654 
L 47.616947 25.611085 
L 48.542109 21.804201 
L 49.467263 23.506379 
L 50.392418 21.64669 
L 51.317566 21.661909 
L 52.242732 21.860509 
L 53.167891 23.207338 
L 54.093049 25.207797 
L 55.018206 19.187396 
L 55.943359 17.162587 
L 56.868517 26.102639 
L 57.793676 21.939645 
L 58.718827 20.294535 
L 59.643987 19.710148 
L 60.569143 19.719279 
L 61.494301 15.874349 
L 62.419457 21.22438 
L 63.344613 9.621868 
L 64.269773 20.432262 
L 65.194924 23.003411 
L 66.120079 17.530873 
L 67.045243 20.465742 
L 67.970398 16.126975 
L 68.895557 26.833123 
L 69.82071 19.070214 
L 70.74585 22.620668 
L 71.671025 22.358151 
L 72.596178 23.727046 
L 73.521341 22.049978 
L 74.446495 20.515963 
L 75.371653 20.032778 
L 76.296805 21.009039 
L 77.221971 23.794007 
L 78.147114 25.108117 
L 79.072277 11.601782 
L 79.997435 21.750936 
L 80.922594 11.862017 
L 81.847735 15.108103 
L 82.772905 18.190591 
L 83.698046 24.954411 
L 84.623219 22.413698 
L 85.548376 16.924419 
L 86.473535 22.262275 
L 87.398688 13.015572 
L 88.323852 19.996254 
L 97.76512 19.956686 
L 98.500856 25.026698 
L 99.426031 16.113278 
L 100.351186 23.031565 
L 101.276348 21.231989 
L 102.201502 19.156198 
L 103.126656 19.741346 
L 104.051812 23.307018 
L 104.976967 18.284184 
L 105.902123 22.036282 
L 106.827282 16.61929 
L 107.752435 26.718224 
L 108.677594 17.708167 
L 109.602753 18.57029 
L 110.527909 18.235485 
L 111.453063 16.108713 
L 112.378223 21.294384 
L 113.303377 18.452347 
L 114.228537 17.443367 
L 115.153695 17.135194 
L 116.078848 20.663581 
L 117.004011 18.75215 
L 117.929158 20.536508 
L 118.854316 18.625837 
L 119.779481 20.592816 
L 120.704637 12.515647 
L 121.629794 19.636339 
L 122.554943 18.729322 
L 123.480104 19.029125 
L 124.405261 19.834939 
L 125.330416 18.023188 
L 126.255574 25.440639 
L 129.9562 17.618379 
L 130.881363 17.967641 
L 131.806516 18.685189 
L 132.731673 18.532244 
L 133.656831 13.691269 
L 134.581987 21.757785 
L 135.507147 18.046777 
L 136.432285 17.85122 
L 137.357455 18.641816 
L 138.282617 20.78685 
L 139.20777 18.04145 
L 140.13293 18.736931 
L 141.058084 21.553097 
L 141.983242 16.606355 
L 142.908395 19.341863 
L 143.833556 17.901441 
L 144.758724 18.642577 
L 145.683869 11.447315 
L 146.609028 17.76828 
L 147.534182 13.618982 
L 148.459339 16.799628 
L 149.384497 13.106121 
L 150.309651 17.116932 
L 151.234811 11.257846 
L 152.159963 13.27048 
L 179.91473 13.27048 
L 188.548948 15.382795 
L 189.166282 18.898246 
L 190.091439 22.415981 
L 191.016594 14.917873 
L 191.94175 16.879525 
L 192.866913 19.24827 
L 193.792066 16.483086 
L 194.717222 15.972508 
L 195.642377 16.130019 
L 196.567536 26.297435 
L 197.492695 9.472727 
L 198.417852 14.616548 
L 199.343013 18.293315 
L 200.268162 17.985903 
L 201.193322 18.109933 
L 202.118478 23.100048 
L 203.043636 21.022736 
" clip-path="url(#p30e8606937)" style="fill: none; stroke: #339af0; stroke-width: 1.2; stroke-linecap: square"/>
   </g>
   <g id="line2d_20">
    <path d="M 43.916364 94.343489 
L 45.193108 92.460972 
L 45.766628 93.565829 
L 46.691788 94.73308 
L 47.616947 95.814348 
L 48.542109 93.471475 
L 49.467263 97.483046 
L 50.392418 95.914029 
L 51.317566 94.908853 
L 52.242732 94.459149 
L 53.167891 94.484259 
L 54.093049 98.851181 
L 55.018206 94.229351 
L 55.943359 92.699901 
L 56.868517 95.40269 
L 57.793676 96.995296 
L 58.718827 96.324925 
L 59.643987 91.385792 
L 60.569143 93.444081 
L 61.494301 93.37712 
L 62.419457 94.656227 
L 63.344613 90.536605 
L 64.269773 95.465847 
L 65.194924 93.383969 
L 66.120079 91.299808 
L 67.045243 96.413953 
L 67.970398 91.164364 
L 68.895557 94.458388 
L 69.82071 93.025575 
L 70.74585 96.081431 
L 71.671025 95.418669 
L 72.596178 95.778585 
L 73.521341 94.679816 
L 74.446495 92.565219 
L 75.371653 93.549849 
L 76.296805 97.207593 
L 77.221971 93.464626 
L 78.147114 95.993925 
L 79.072277 91.421555 
L 79.997435 95.15463 
L 80.922594 90.246695 
L 81.847735 92.690009 
L 82.772905 91.824082 
L 83.698046 93.233307 
L 84.623219 96.613314 
L 85.548376 91.057075 
L 86.473535 92.842193 
L 87.398688 97.209115 
L 88.323852 93.555176 
L 97.76512 93.689098 
L 98.500856 95.293879 
L 99.426031 93.551371 
L 100.351186 95.437692 
L 101.276348 93.388534 
L 102.201502 93.036989 
L 103.126656 90.849343 
L 104.051812 92.034096 
L 104.976967 94.09619 
L 105.902123 92.613917 
L 106.827282 95.546504 
L 107.752435 97.846005 
L 108.677594 94.130431 
L 109.602753 95.500849 
L 110.527909 93.653334 
L 111.453063 93.817693 
L 112.378223 93.800192 
L 113.303377 92.489887 
L 114.228537 95.263442 
L 115.153695 97.203027 
L 116.078848 92.031053 
L 117.004011 94.809172 
L 117.929158 93.221132 
L 118.854316 96.124803 
L 119.779481 94.921028 
L 120.704637 95.578463 
L 121.629794 94.580896 
L 122.554943 91.912349 
L 123.480104 92.728055 
L 124.405261 92.862738 
L 125.330416 91.350029 
L 126.255574 93.135909 
L 129.9562 92.049315 
L 130.881363 94.380774 
L 131.806516 94.663837 
L 132.731673 94.349577 
L 133.656831 93.759102 
L 134.581987 96.652121 
L 135.507147 93.960746 
L 136.432285 94.986467 
L 137.357455 95.808261 
L 138.282617 95.709341 
L 139.20777 91.45047 
L 140.13293 92.714359 
L 141.058084 95.897288 
L 141.983242 94.005641 
L 142.908395 95.510741 
L 143.833556 94.45991 
L 144.758724 94.608289 
L 145.683869 92.176388 
L 146.609028 95.583789 
L 147.534182 91.693204 
L 148.459339 94.183696 
L 149.384497 91.095882 
L 150.309651 97.185526 
L 151.234811 95.404212 
L 152.159963 92.570545 
L 179.91473 92.570545 
L 188.548948 91.413185 
L 189.166282 92.804908 
L 190.091439 98.372562 
L 191.016594 86.884188 
L 191.94175 94.648618 
L 192.866913 93.899112 
L 193.792066 92.497497 
L 194.717222 98.927273 
L 195.642377 96.463413 
L 196.567536 96.426128 
L 197.492695 95.224635 
L 198.417852 96.60114 
L 199.343013 95.215504 
L 200.268162 97.114 
L 201.193322 92.982964 
L 202.118478 95.265724 
L 203.043636 95.267246 
" clip-path="url(#p30e8606937)" style="fill: none; stroke: #ff6b6b; stroke-width: 1.2; stroke-linecap: square"/>
   </g>
   <g id="patch_3">
    <path d="M 35.96 103.4 
L 35.96 5 
" style="fill: none; stroke: var(--fg-color); stroke-width: 0.8; stroke-linejoin: miter; stroke-linecap: square"/>
   </g>
   <g id="patch_4">
    <path d="M 35.96 103.4 
L 211 103.4 
" style="fill: none; stroke: var(--fg-color); stroke-width: 0.8; stroke-linejoin: miter; stroke-linecap: square"/>
   </g>
  </g>
 </g>
 <defs>
  <clipPath id="p30e8606937">
   <rect x="35.96" y="5" width="175.04" height="98.4"/>
  </clipPath>
 </defs>
</svg>
