<?xml version="1.0" encoding="utf-8" standalone="no"?>
<!DOCTYPE svg PUBLIC "-//W3C//DTD SVG 1.1//EN"
  "http://www.w3.org/Graphics/SVG/1.1/DTD/svg11.dtd">
<svg xmlns:xlink="http://www.w3.org/1999/xlink" width="216pt" height="122.4pt" viewBox="0 0 216 122.4" xmlns="http://www.w3.org/2000/svg" version="1.1">
  <style>
    :root {
      --fg-color: #212529;
      --grid-color: rgba(33, 37, 41, 0.1);
    }
    @media (prefers-color-scheme: dark) {
      :root {
        --fg-color: #dee2e6;
        --grid-color: rgba(248, 249, 250, 0.15);
      }
    }
  </style>

 <metadata>
  <rdf:RDF xmlns:dc="http://purl.org/dc/elements/1.1/" xmlns:cc="http://creativecommons.org/ns#" xmlns:rdf="http://www.w3.org/1999/02/22-rdf-syntax-ns#">
   <cc:Work>
    <dc:type rdf:resource="http://purl.org/dc/dcmitype/StillImage"/>
    <dc:date>2026-06-30T04:48:38.954678</dc:date>
    <dc:format>image/svg+xml</dc:format>
    <dc:creator>
     <cc:Agent>
      <dc:title>Matplotlib v3.11.0, https://matplotlib.org/</dc:title>
     </cc:Agent>
    </dc:creator>
   </cc:Work>
  </rdf:RDF>
 </metadata>
 <defs>
  <style type="text/css">*{stroke-linejoin: round; stroke-linecap: butt}</style>
 </defs>
 <g id="figure_1">
  <g id="patch_1">
   <path d="M 0 122.4 
L 216 122.4 
L 216 0 
L 0 0 
L 0 122.4 
z
" style="fill: none; opacity: 0"/>
  </g>
  <g id="axes_1">
   <g id="patch_2">
    <path d="M 35.96 103.4 
L 211 103.4 
L 211 5 
L 35.96 5 
L 35.96 103.4 
z
" style="fill: none; opacity: 0"/>
   </g>
   <g id="matplotlib.axis_1">
    <g id="xtick_1">
     <g id="line2d_1">
      <path d="M 70.996911 103.4 
L 70.996911 5 
" clip-path="url(#pf64fcdbc54)" style="fill: none; stroke-dasharray: 2.96,1.28; stroke-dashoffset: 0; stroke: var(--grid-color); stroke-width: 0.8"/>
     </g>
     <g id="line2d_2">
      <defs>
       <path id="mdffb5b9f9a" d="M 0 0 
L 0 3.5 
" style="stroke: var(--fg-color); stroke-width: 0.8"/>
      </defs>
      <g>
       <use xlink:href="#mdffb5b9f9a" x="70.996911" y="103.4" style="fill: var(--fg-color); stroke: var(--fg-color); stroke-width: 0.8"/>
      </g>
     </g>
     <g id="text_1">
      <text style="font-size: 7px; font-family: 'DejaVu Sans', 'Bitstream Vera Sans', 'Computer Modern Sans Serif', 'Lucida Grande', 'Verdana', 'Geneva', 'Lucid', 'Arial', 'Helvetica', 'Avant Garde', sans-serif; text-anchor: middle; fill: var(--fg-color)" x="70.996911" y="115.718359" transform="rotate(-0 70.996911 115.718359)">02/2026</text>
     </g>
    </g>
    <g id="xtick_2">
     <g id="line2d_3">
      <path d="M 126.022656 103.4 
L 126.022656 5 
" clip-path="url(#pf64fcdbc54)" style="fill: none; stroke-dasharray: 2.96,1.28; stroke-dashoffset: 0; stroke: var(--grid-color); stroke-width: 0.8"/>
     </g>
     <g id="line2d_4">
      <g>
       <use xlink:href="#mdffb5b9f9a" x="126.022656" y="103.4" style="fill: var(--fg-color); stroke: var(--fg-color); stroke-width: 0.8"/>
      </g>
     </g>
     <g id="text_2">
      <text style="font-size: 7px; font-family: 'DejaVu Sans', 'Bitstream Vera Sans', 'Computer Modern Sans Serif', 'Lucida Grande', 'Verdana', 'Geneva', 'Lucid', 'Arial', 'Helvetica', 'Avant Garde', sans-serif; text-anchor: middle; fill: var(--fg-color)" x="126.022656" y="115.718359" transform="rotate(-0 126.022656 115.718359)">04/2026</text>
     </g>
    </g>
    <g id="xtick_3">
     <g id="line2d_5">
      <path d="M 182.913681 103.4 
L 182.913681 5 
" clip-path="url(#pf64fcdbc54)" style="fill: none; stroke-dasharray: 2.96,1.28; stroke-dashoffset: 0; stroke: var(--grid-color); stroke-width: 0.8"/>
     </g>
     <g id="line2d_6">
      <g>
       <use xlink:href="#mdffb5b9f9a" x="182.913681" y="103.4" style="fill: var(--fg-color); stroke: var(--fg-color); stroke-width: 0.8"/>
      </g>
     </g>
     <g id="text_3">
      <text style="font-size: 7px; font-family: 'DejaVu Sans', 'Bitstream Vera Sans', 'Computer Modern Sans Serif', 'Lucida Grande', 'Verdana', 'Geneva', 'Lucid', 'Arial', 'Helvetica', 'Avant Garde', sans-serif; text-anchor: middle; fill: var(--fg-color)" x="182.913681" y="115.718359" transform="rotate(-0 182.913681 115.718359)">06/2026</text>
     </g>
    </g>
   </g>
   <g id="matplotlib.axis_2">
    <g id="ytick_1">
     <g id="line2d_7">
      <path d="M 35.96 100.624719 
L 211 100.624719 
" clip-path="url(#pf64fcdbc54)" style="fill: none; stroke-dasharray: 2.96,1.28; stroke-dashoffset: 0; stroke: var(--grid-color); stroke-width: 0.8"/>
     </g>
     <g id="line2d_8">
      <defs>
       <path id="m33d39e1228" d="M 0 0 
L -3.5 0 
" style="stroke: var(--fg-color); stroke-width: 0.8"/>
      </defs>
      <g>
       <use xlink:href="#m33d39e1228" x="35.96" y="100.624719" style="fill: var(--fg-color); stroke: var(--fg-color); stroke-width: 0.8"/>
      </g>
     </g>
     <g id="text_4">
      <text style="font-size: 7px; font-family: 'DejaVu Sans', 'Bitstream Vera Sans', 'Computer Modern Sans Serif', 'Lucida Grande', 'Verdana', 'Geneva', 'Lucid', 'Arial', 'Helvetica', 'Avant Garde', sans-serif; text-anchor: end; fill: var(--fg-color)" x="28.96" y="103.283899" transform="rotate(-0 28.96 103.283899)">0</text>
     </g>
    </g>
    <g id="ytick_2">
     <g id="line2d_9">
      <path d="M 35.96 78.368967 
L 211 78.368967 
" clip-path="url(#pf64fcdbc54)" style="fill: none; stroke-dasharray: 2.96,1.28; stroke-dashoffset: 0; stroke: var(--grid-color); stroke-width: 0.8"/>
     </g>
     <g id="line2d_10">
      <g>
       <use xlink:href="#m33d39e1228" x="35.96" y="78.368967" style="fill: var(--fg-color); stroke: var(--fg-color); stroke-width: 0.8"/>
      </g>
     </g>
     <g id="text_5">
      <text style="font-size: 7px; font-family: 'DejaVu Sans', 'Bitstream Vera Sans', 'Computer Modern Sans Serif', 'Lucida Grande', 'Verdana', 'Geneva', 'Lucid', 'Arial', 'Helvetica', 'Avant Garde', sans-serif; text-anchor: end; fill: var(--fg-color)" x="28.96" y="81.028147" transform="rotate(-0 28.96 81.028147)">100</text>
     </g>
    </g>
    <g id="ytick_3">
     <g id="line2d_11">
      <path d="M 35.96 56.113216 
L 211 56.113216 
" clip-path="url(#pf64fcdbc54)" style="fill: none; stroke-dasharray: 2.96,1.28; stroke-dashoffset: 0; stroke: var(--grid-color); stroke-width: 0.8"/>
     </g>
     <g id="line2d_12">
      <g>
       <use xlink:href="#m33d39e1228" x="35.96" y="56.113216" style="fill: var(--fg-color); stroke: var(--fg-color); stroke-width: 0.8"/>
      </g>
     </g>
     <g id="text_6">
      <text style="font-size: 7px; font-family: 'DejaVu Sans', 'Bitstream Vera Sans', 'Computer Modern Sans Serif', 'Lucida Grande', 'Verdana', 'Geneva', 'Lucid', 'Arial', 'Helvetica', 'Avant Garde', sans-serif; text-anchor: end; fill: var(--fg-color)" x="28.96" y="58.772395" transform="rotate(-0 28.96 58.772395)">200</text>
     </g>
    </g>
    <g id="ytick_4">
     <g id="line2d_13">
      <path d="M 35.96 33.857464 
L 211 33.857464 
" clip-path="url(#pf64fcdbc54)" style="fill: none; stroke-dasharray: 2.96,1.28; stroke-dashoffset: 0; stroke: var(--grid-color); stroke-width: 0.8"/>
     </g>
     <g id="line2d_14">
      <g>
       <use xlink:href="#m33d39e1228" x="35.96" y="33.857464" style="fill: var(--fg-color); stroke: var(--fg-color); stroke-width: 0.8"/>
      </g>
     </g>
     <g id="text_7">
      <text style="font-size: 7px; font-family: 'DejaVu Sans', 'Bitstream Vera Sans', 'Computer Modern Sans Serif', 'Lucida Grande', 'Verdana', 'Geneva', 'Lucid', 'Arial', 'Helvetica', 'Avant Garde', sans-serif; text-anchor: end; fill: var(--fg-color)" x="28.96" y="36.516644" transform="rotate(-0 28.96 36.516644)">300</text>
     </g>
    </g>
    <g id="ytick_5">
     <g id="line2d_15">
      <path d="M 35.96 11.601712 
L 211 11.601712 
" clip-path="url(#pf64fcdbc54)" style="fill: none; stroke-dasharray: 2.96,1.28; stroke-dashoffset: 0; stroke: var(--grid-color); stroke-width: 0.8"/>
     </g>
     <g id="line2d_16">
      <g>
       <use xlink:href="#m33d39e1228" x="35.96" y="11.601712" style="fill: var(--fg-color); stroke: var(--fg-color); stroke-width: 0.8"/>
      </g>
     </g>
     <g id="text_8">
      <text style="font-size: 7px; font-family: 'DejaVu Sans', 'Bitstream Vera Sans', 'Computer Modern Sans Serif', 'Lucida Grande', 'Verdana', 'Geneva', 'Lucid', 'Arial', 'Helvetica', 'Avant Garde', sans-serif; text-anchor: end; fill: var(--fg-color)" x="28.96" y="14.260892" transform="rotate(-0 28.96 14.260892)">400</text>
     </g>
    </g>
    <g id="text_9">
     <text style="font-size: 7px; font-family: 'DejaVu Sans', 'Bitstream Vera Sans', 'Computer Modern Sans Serif', 'Lucida Grande', 'Verdana', 'Geneva', 'Lucid', 'Arial', 'Helvetica', 'Avant Garde', sans-serif; text-anchor: middle; fill: var(--fg-color)" x="9.917109" y="54.2" transform="rotate(-90 9.917109 54.2)">ms</text>
    </g>
   </g>
   <g id="line2d_17">
    <path d="M 43.916364 21.60545 
L 44.494523 25.109173 
L 45.427166 33.498034 
L 46.359808 22.013398 
L 47.292453 27.405299 
L 48.22509 30.010112 
L 49.157727 31.93657 
L 50.090359 28.641606 
L 51.023007 31.589603 
L 51.95565 12.43519 
L 52.88829 35.682881 
L 53.82093 30.283858 
L 54.753566 28.550135 
L 55.686208 16.818683 
L 56.618849 16.152123 
L 57.551483 31.596725 
L 58.484126 27.639652 
L 59.416765 14.469589 
L 60.349406 32.587328 
L 61.282045 23.453568 
L 62.214684 29.635771 
L 63.147327 23.210758 
L 64.07996 19.944058 
L 65.012598 33.984544 
L 65.945245 33.138158 
L 66.877884 24.840101 
L 67.810526 29.402975 
L 68.743162 24.852342 
L 69.675784 15.954047 
L 70.608443 20.848977 
L 71.541078 24.964511 
L 72.473724 28.721282 
L 73.406361 24.079845 
L 74.339003 29.446152 
L 75.271637 26.985333 
L 76.204286 16.873655 
L 77.136912 13.796797 
L 78.069558 28.393009 
L 79.002199 24.553002 
L 79.934841 29.811368 
L 80.867465 22.087732 
L 81.800118 16.106054 
L 82.732742 27.762504 
L 83.665398 28.540342 
L 84.598038 25.769947 
L 85.53068 20.035975 
L 86.463316 24.935133 
L 87.395962 11.916409 
L 96.913595 23.362097 
L 97.655282 21.162561 
L 98.587939 22.071041 
L 99.520578 26.943937 
L 100.453222 17.168766 
L 101.385859 21.075318 
L 102.318497 28.464895 
L 103.251135 20.990301 
L 104.183773 33.877272 
L 105.116412 24.473104 
L 106.049054 23.277302 
L 106.981691 24.658272 
L 107.914333 18.294462 
L 108.846974 27.165382 
L 109.779613 26.601644 
L 110.71225 27.047649 
L 111.644893 18.691727 
L 112.57753 33.06961 
L 113.510173 31.083285 
L 114.442814 21.161893 
L 115.37545 32.095254 
L 116.308095 23.62783 
L 117.240726 26.764111 
L 118.173367 28.133285 
L 119.106014 22.017404 
L 120.038653 17.731169 
L 120.971293 26.449415 
L 121.903926 28.513636 
L 122.836569 27.964586 
L 123.769209 24.648257 
L 124.701847 27.280667 
L 125.634489 27.393726 
L 129.365046 28.030686 
L 130.297692 27.343206 
L 131.230328 17.09688 
L 132.162968 22.847544 
L 133.095609 27.258411 
L 134.028248 17.86003 
L 134.960891 21.994481 
L 135.893512 31.369939 
L 136.826165 31.805706 
L 137.75881 21.107367 
L 138.691446 22.890942 
L 139.624089 18.963025 
L 140.556726 19.271267 
L 141.489366 23.615145 
L 142.422003 22.064364 
L 143.354646 21.679562 
L 144.287298 15.989656 
L 145.219926 22.331655 
L 146.152567 12.620136 
L 147.085204 23.778724 
L 148.017844 21.247578 
L 148.950485 20.769524 
L 149.883123 9.472727 
L 150.815765 18.465609 
L 151.7484 14.604236 
L 179.727656 14.604236 
L 188.43171 23.482723 
L 189.054038 26.822866 
L 189.986678 30.776378 
L 190.919315 28.364299 
L 191.851955 21.618359 
L 192.7846 25.169931 
L 193.717237 25.000343 
L 194.649875 20.78221 
L 195.582513 20.331531 
L 196.515156 24.163971 
L 197.447798 24.896186 
L 198.380437 17.405567 
L 199.313081 25.633519 
L 200.245713 21.195722 
L 201.178356 23.295107 
L 202.110995 28.69502 
L 203.043636 14.301113 
" clip-path="url(#pf64fcdbc54)" style="fill: none; stroke: #339af0; stroke-width: 1.2; stroke-linecap: square"/>
   </g>
   <g id="line2d_18">
    <path d="M 43.916364 98.062637 
L 44.494523 98.193946 
L 45.427166 98.326145 
L 46.359808 97.762407 
L 47.292453 98.243799 
L 48.22509 98.569845 
L 49.157727 97.243625 
L 50.090359 97.985854 
L 51.023007 97.70877 
L 51.95565 97.740596 
L 52.88829 98.927273 
L 53.82093 97.651796 
L 54.753566 98.388238 
L 55.686208 98.540023 
L 56.618849 98.521105 
L 57.551483 97.953138 
L 58.484126 97.80269 
L 59.416765 97.200672 
L 60.349406 97.597714 
L 61.282045 97.475085 
L 62.214684 97.567669 
L 63.147327 97.956032 
L 64.07996 96.696579 
L 65.012598 97.138578 
L 65.945245 96.423723 
L 66.877884 98.183931 
L 67.810526 97.205123 
L 68.743162 97.212022 
L 69.675784 97.509136 
L 70.608443 97.672048 
L 71.541078 97.210464 
L 72.473724 97.722124 
L 73.406361 98.236009 
L 74.339003 97.076484 
L 75.271637 98.408936 
L 76.204286 97.346224 
L 77.136912 97.816043 
L 78.069558 98.188604 
L 79.002199 97.504463 
L 79.934841 98.1412 
L 80.867465 98.061747 
L 81.800118 96.696801 
L 82.732742 98.112935 
L 83.665398 97.282795 
L 84.598038 98.507752 
L 85.53068 97.459283 
L 86.463316 97.124334 
L 87.395962 97.975394 
L 96.913595 97.127895 
L 97.655282 98.120057 
L 98.587939 97.453052 
L 99.520578 98.233784 
L 100.453222 97.625979 
L 101.385859 97.177303 
L 102.318497 98.066198 
L 103.251135 98.042607 
L 104.183773 97.865451 
L 105.116412 97.601498 
L 106.049054 97.56077 
L 106.981691 98.584534 
L 107.914333 98.032146 
L 108.846974 98.428521 
L 109.779613 98.255149 
L 110.71225 97.266326 
L 111.644893 98.699596 
L 112.57753 97.507356 
L 113.510173 97.84186 
L 114.442814 98.011671 
L 115.37545 97.651796 
L 116.308095 98.331041 
L 117.240726 98.462795 
L 118.173367 97.91931 
L 119.106014 97.812705 
L 120.038653 96.800291 
L 120.971293 98.020128 
L 121.903926 97.292143 
L 122.836569 97.640223 
L 123.769209 97.886149 
L 124.701847 97.898612 
L 125.634489 97.723904 
L 129.365046 97.759736 
L 130.297692 97.731694 
L 131.230328 97.465292 
L 132.162968 97.811147 
L 133.095609 97.467073 
L 134.028248 98.398921 
L 134.960891 97.774202 
L 135.893512 98.163233 
L 136.826165 98.395583 
L 137.75881 98.556269 
L 138.691446 96.261034 
L 139.624089 97.443482 
L 140.556726 97.916194 
L 141.489366 97.623086 
L 142.422003 97.800241 
L 143.354646 98.138529 
L 144.287298 96.972773 
L 145.219926 97.562327 
L 146.152567 98.408491 
L 147.085204 97.554761 
L 148.017844 97.984964 
L 148.950485 97.784217 
L 149.883123 98.789065 
L 150.815765 97.629985 
L 151.7484 98.291203 
L 179.727656 98.291203 
L 188.43171 97.364919 
L 189.054038 98.053957 
L 189.986678 98.062859 
L 190.919315 97.617967 
L 191.851955 97.179306 
L 192.7846 97.545191 
L 193.717237 97.888152 
L 194.649875 97.748163 
L 195.582513 96.733746 
L 196.515156 98.25003 
L 197.447798 97.451494 
L 198.380437 98.105368 
L 199.313081 97.808031 
L 200.245713 97.964934 
L 201.178356 98.693587 
L 202.110995 97.412991 
L 203.043636 97.580355 
" clip-path="url(#pf64fcdbc54)" style="fill: none; stroke: #ff6b6b; stroke-width: 1.2; stroke-linecap: square"/>
   </g>
   <g id="patch_3">
    <path d="M 35.96 103.4 
L 35.96 5 
" style="fill: none; stroke: var(--fg-color); stroke-width: 0.8; stroke-linejoin: miter; stroke-linecap: square"/>
   </g>
   <g id="patch_4">
    <path d="M 35.96 103.4 
L 211 103.4 
" style="fill: none; stroke: var(--fg-color); stroke-width: 0.8; stroke-linejoin: miter; stroke-linecap: square"/>
   </g>
  </g>
 </g>
 <defs>
  <clipPath id="pf64fcdbc54">
   <rect x="35.96" y="5" width="175.04" height="98.4"/>
  </clipPath>
 </defs>
</svg>
