<?xml version="1.0" encoding="utf-8" standalone="no"?>
<!DOCTYPE svg PUBLIC "-//W3C//DTD SVG 1.1//EN"
  "http://www.w3.org/Graphics/SVG/1.1/DTD/svg11.dtd">
<svg xmlns:xlink="http://www.w3.org/1999/xlink" width="216pt" height="122.4pt" viewBox="0 0 216 122.4" xmlns="http://www.w3.org/2000/svg" version="1.1">
  <style>
    :root {
      --fg-color: #212529;
      --grid-color: rgba(33, 37, 41, 0.1);
    }
    @media (prefers-color-scheme: dark) {
      :root {
        --fg-color: #dee2e6;
        --grid-color: rgba(248, 249, 250, 0.15);
      }
    }
  </style>

 <metadata>
  <rdf:RDF xmlns:dc="http://purl.org/dc/elements/1.1/" xmlns:cc="http://creativecommons.org/ns#" xmlns:rdf="http://www.w3.org/1999/02/22-rdf-syntax-ns#">
   <cc:Work>
    <dc:type rdf:resource="http://purl.org/dc/dcmitype/StillImage"/>
    <dc:date>2026-06-30T04:48:29.914083</dc:date>
    <dc:format>image/svg+xml</dc:format>
    <dc:creator>
     <cc:Agent>
      <dc:title>Matplotlib v3.11.0, https://matplotlib.org/</dc:title>
     </cc:Agent>
    </dc:creator>
   </cc:Work>
  </rdf:RDF>
 </metadata>
 <defs>
  <style type="text/css">*{stroke-linejoin: round; stroke-linecap: butt}</style>
 </defs>
 <g id="figure_1">
  <g id="patch_1">
   <path d="M 0 122.4 
L 216 122.4 
L 216 0 
L 0 0 
L 0 122.4 
z
" style="fill: none; opacity: 0"/>
  </g>
  <g id="axes_1">
   <g id="patch_2">
    <path d="M 31.64 103.4 
L 211 103.4 
L 211 5 
L 31.64 5 
L 31.64 103.4 
z
" style="fill: none; opacity: 0"/>
   </g>
   <g id="matplotlib.axis_1">
    <g id="xtick_1">
     <g id="line2d_1">
      <path d="M 68.627238 103.4 
L 68.627238 5 
" clip-path="url(#p2848dfcd16)" style="fill: none; stroke-dasharray: 2.96,1.28; stroke-dashoffset: 0; stroke: var(--grid-color); stroke-width: 0.8"/>
     </g>
     <g id="line2d_2">
      <defs>
       <path id="mc626883e4a" d="M 0 0 
L 0 3.5 
" style="stroke: var(--fg-color); stroke-width: 0.8"/>
      </defs>
      <g>
       <use xlink:href="#mc626883e4a" x="68.627238" y="103.4" style="fill: var(--fg-color); stroke: var(--fg-color); stroke-width: 0.8"/>
      </g>
     </g>
     <g id="text_1">
      <text style="font-size: 7px; font-family: 'DejaVu Sans', 'Bitstream Vera Sans', 'Computer Modern Sans Serif', 'Lucida Grande', 'Verdana', 'Geneva', 'Lucid', 'Arial', 'Helvetica', 'Avant Garde', sans-serif; text-anchor: middle; fill: var(--fg-color)" x="68.627238" y="115.718359" transform="rotate(-0 68.627238 115.718359)">02/2026</text>
     </g>
    </g>
    <g id="xtick_2">
     <g id="line2d_3">
      <path d="M 124.558632 103.4 
L 124.558632 5 
" clip-path="url(#p2848dfcd16)" style="fill: none; stroke-dasharray: 2.96,1.28; stroke-dashoffset: 0; stroke: var(--grid-color); stroke-width: 0.8"/>
     </g>
     <g id="line2d_4">
      <g>
       <use xlink:href="#mc626883e4a" x="124.558632" y="103.4" style="fill: var(--fg-color); stroke: var(--fg-color); stroke-width: 0.8"/>
      </g>
     </g>
     <g id="text_2">
      <text style="font-size: 7px; font-family: 'DejaVu Sans', 'Bitstream Vera Sans', 'Computer Modern Sans Serif', 'Lucida Grande', 'Verdana', 'Geneva', 'Lucid', 'Arial', 'Helvetica', 'Avant Garde', sans-serif; text-anchor: middle; fill: var(--fg-color)" x="124.558632" y="115.718359" transform="rotate(-0 124.558632 115.718359)">04/2026</text>
     </g>
    </g>
    <g id="xtick_3">
     <g id="line2d_5">
      <path d="M 182.386006 103.4 
L 182.386006 5 
" clip-path="url(#p2848dfcd16)" style="fill: none; stroke-dasharray: 2.96,1.28; stroke-dashoffset: 0; stroke: var(--grid-color); stroke-width: 0.8"/>
     </g>
     <g id="line2d_6">
      <g>
       <use xlink:href="#mc626883e4a" x="182.386006" y="103.4" style="fill: var(--fg-color); stroke: var(--fg-color); stroke-width: 0.8"/>
      </g>
     </g>
     <g id="text_3">
      <text style="font-size: 7px; font-family: 'DejaVu Sans', 'Bitstream Vera Sans', 'Computer Modern Sans Serif', 'Lucida Grande', 'Verdana', 'Geneva', 'Lucid', 'Arial', 'Helvetica', 'Avant Garde', sans-serif; text-anchor: middle; fill: var(--fg-color)" x="182.386006" y="115.718359" transform="rotate(-0 182.386006 115.718359)">06/2026</text>
     </g>
    </g>
   </g>
   <g id="matplotlib.axis_2">
    <g id="ytick_1">
     <g id="line2d_7">
      <path d="M 31.64 101.902475 
L 211 101.902475 
" clip-path="url(#p2848dfcd16)" style="fill: none; stroke-dasharray: 2.96,1.28; stroke-dashoffset: 0; stroke: var(--grid-color); stroke-width: 0.8"/>
     </g>
     <g id="line2d_8">
      <defs>
       <path id="ma32ab79643" d="M 0 0 
L -3.5 0 
" style="stroke: var(--fg-color); stroke-width: 0.8"/>
      </defs>
      <g>
       <use xlink:href="#ma32ab79643" x="31.64" y="101.902475" style="fill: var(--fg-color); stroke: var(--fg-color); stroke-width: 0.8"/>
      </g>
     </g>
     <g id="text_4">
      <text style="font-size: 7px; font-family: 'DejaVu Sans', 'Bitstream Vera Sans', 'Computer Modern Sans Serif', 'Lucida Grande', 'Verdana', 'Geneva', 'Lucid', 'Arial', 'Helvetica', 'Avant Garde', sans-serif; text-anchor: end; fill: var(--fg-color)" x="24.64" y="104.561654" transform="rotate(-0 24.64 104.561654)">0</text>
     </g>
    </g>
    <g id="ytick_2">
     <g id="line2d_9">
      <path d="M 31.64 81.440287 
L 211 81.440287 
" clip-path="url(#p2848dfcd16)" style="fill: none; stroke-dasharray: 2.96,1.28; stroke-dashoffset: 0; stroke: var(--grid-color); stroke-width: 0.8"/>
     </g>
     <g id="line2d_10">
      <g>
       <use xlink:href="#ma32ab79643" x="31.64" y="81.440287" style="fill: var(--fg-color); stroke: var(--fg-color); stroke-width: 0.8"/>
      </g>
     </g>
     <g id="text_5">
      <text style="font-size: 7px; font-family: 'DejaVu Sans', 'Bitstream Vera Sans', 'Computer Modern Sans Serif', 'Lucida Grande', 'Verdana', 'Geneva', 'Lucid', 'Arial', 'Helvetica', 'Avant Garde', sans-serif; text-anchor: end; fill: var(--fg-color)" x="24.64" y="84.099467" transform="rotate(-0 24.64 84.099467)">10</text>
     </g>
    </g>
    <g id="ytick_3">
     <g id="line2d_11">
      <path d="M 31.64 60.9781 
L 211 60.9781 
" clip-path="url(#p2848dfcd16)" style="fill: none; stroke-dasharray: 2.96,1.28; stroke-dashoffset: 0; stroke: var(--grid-color); stroke-width: 0.8"/>
     </g>
     <g id="line2d_12">
      <g>
       <use xlink:href="#ma32ab79643" x="31.64" y="60.9781" style="fill: var(--fg-color); stroke: var(--fg-color); stroke-width: 0.8"/>
      </g>
     </g>
     <g id="text_6">
      <text style="font-size: 7px; font-family: 'DejaVu Sans', 'Bitstream Vera Sans', 'Computer Modern Sans Serif', 'Lucida Grande', 'Verdana', 'Geneva', 'Lucid', 'Arial', 'Helvetica', 'Avant Garde', sans-serif; text-anchor: end; fill: var(--fg-color)" x="24.64" y="63.637279" transform="rotate(-0 24.64 63.637279)">20</text>
     </g>
    </g>
    <g id="ytick_4">
     <g id="line2d_13">
      <path d="M 31.64 40.515912 
L 211 40.515912 
" clip-path="url(#p2848dfcd16)" style="fill: none; stroke-dasharray: 2.96,1.28; stroke-dashoffset: 0; stroke: var(--grid-color); stroke-width: 0.8"/>
     </g>
     <g id="line2d_14">
      <g>
       <use xlink:href="#ma32ab79643" x="31.64" y="40.515912" style="fill: var(--fg-color); stroke: var(--fg-color); stroke-width: 0.8"/>
      </g>
     </g>
     <g id="text_7">
      <text style="font-size: 7px; font-family: 'DejaVu Sans', 'Bitstream Vera Sans', 'Computer Modern Sans Serif', 'Lucida Grande', 'Verdana', 'Geneva', 'Lucid', 'Arial', 'Helvetica', 'Avant Garde', sans-serif; text-anchor: end; fill: var(--fg-color)" x="24.64" y="43.175092" transform="rotate(-0 24.64 43.175092)">30</text>
     </g>
    </g>
    <g id="ytick_5">
     <g id="line2d_15">
      <path d="M 31.64 20.053724 
L 211 20.053724 
" clip-path="url(#p2848dfcd16)" style="fill: none; stroke-dasharray: 2.96,1.28; stroke-dashoffset: 0; stroke: var(--grid-color); stroke-width: 0.8"/>
     </g>
     <g id="line2d_16">
      <g>
       <use xlink:href="#ma32ab79643" x="31.64" y="20.053724" style="fill: var(--fg-color); stroke: var(--fg-color); stroke-width: 0.8"/>
      </g>
     </g>
     <g id="text_8">
      <text style="font-size: 7px; font-family: 'DejaVu Sans', 'Bitstream Vera Sans', 'Computer Modern Sans Serif', 'Lucida Grande', 'Verdana', 'Geneva', 'Lucid', 'Arial', 'Helvetica', 'Avant Garde', sans-serif; text-anchor: end; fill: var(--fg-color)" x="24.64" y="22.712904" transform="rotate(-0 24.64 22.712904)">40</text>
     </g>
    </g>
    <g id="text_9">
     <text style="font-size: 7px; font-family: 'DejaVu Sans', 'Bitstream Vera Sans', 'Computer Modern Sans Serif', 'Lucida Grande', 'Verdana', 'Geneva', 'Lucid', 'Arial', 'Helvetica', 'Avant Garde', sans-serif; text-anchor: middle; fill: var(--fg-color)" x="10.050859" y="54.2" transform="rotate(-90 10.050859 54.2)">ms</text>
    </g>
   </g>
   <g id="line2d_17">
    <path d="M 39.792727 28.220184 
L 41.100981 27.317801 
L 41.688656 27.759784 
L 42.636649 29.752801 
L 43.584641 25.742213 
L 44.532636 26.247629 
L 45.480623 24.575868 
L 46.428611 29.206461 
L 47.376592 24.91554 
L 48.324591 27.195028 
L 49.272583 27.350541 
L 50.220574 22.83249 
L 51.168564 26.961759 
L 52.116549 26.360171 
L 53.064541 26.855356 
L 54.012533 27.864141 
L 54.960516 26.859448 
L 55.908509 25.891587 
L 56.856499 27.450805 
L 57.804489 28.682629 
L 58.752478 28.377742 
L 59.700467 29.537948 
L 60.64846 26.491129 
L 61.596444 26.540238 
L 62.544432 28.416621 
L 63.492429 26.978129 
L 64.440417 25.322738 
L 65.388409 29.670953 
L 66.336395 22.560342 
L 67.284367 27.911205 
L 68.232376 27.430343 
L 69.180361 26.845125 
L 70.128357 26.038914 
L 71.076344 27.614503 
L 72.024336 29.542041 
L 72.97232 25.210196 
L 73.920319 27.589948 
L 74.868295 27.487637 
L 75.816291 26.599578 
L 76.764282 29.421314 
L 77.712274 24.009065 
L 78.660247 27.952129 
L 79.608251 22.638099 
L 80.556225 31.735587 
L 81.504231 28.269293 
L 82.452221 29.560457 
L 83.400212 25.711519 
L 84.348199 23.966095 
L 85.296195 26.482944 
L 94.970475 26.14941 
L 95.724369 22.286149 
L 96.672377 23.718502 
L 97.620366 24.238242 
L 98.56836 25.819969 
L 99.516347 21.293733 
L 100.464334 24.686364 
L 101.412323 25.253166 
L 102.360311 30.818881 
L 103.308299 23.137376 
L 104.256292 24.559498 
L 105.204278 23.106683 
L 106.15227 22.29638 
L 107.100261 25.269536 
L 108.04825 27.868234 
L 108.996237 27.109087 
L 109.944231 24.068406 
L 110.892217 22.541926 
L 111.84021 28.279524 
L 112.788201 25.429141 
L 113.736187 22.605359 
L 114.684183 25.128347 
L 115.632163 25.993898 
L 116.580154 15.378115 
L 117.528151 25.222473 
L 118.47614 20.553002 
L 119.42413 27.782293 
L 120.372113 22.304565 
L 121.320106 20.374981 
L 122.268096 20.037355 
L 123.216085 26.978129 
L 124.164076 23.560943 
L 127.956033 21.7173 
L 128.904029 26.793969 
L 129.852015 22.106082 
L 130.800005 20.342241 
L 131.747996 21.619082 
L 132.695985 23.968141 
L 133.643978 26.251721 
L 134.591949 23.614145 
L 135.539952 22.016048 
L 136.487947 19.615834 
L 137.435933 19.883888 
L 138.383926 23.078036 
L 139.331913 16.135216 
L 140.279903 20.990893 
L 141.22789 22.879553 
L 142.175883 20.600065 
L 143.123885 19.198405 
L 144.071862 17.146048 
L 145.019854 9.472727 
L 145.967841 16.409409 
L 146.915831 12.840803 
L 147.863822 17.557338 
L 148.811809 16.303005 
L 149.759801 11.823833 
L 150.707787 17.006905 
L 179.147543 17.006905 
L 187.994854 17.056014 
L 188.627425 17.514367 
L 189.575414 17.260636 
L 190.523402 20.274716 
L 191.471391 23.937448 
L 192.419387 16.955749 
L 193.367373 21.903506 
L 194.315361 22.642191 
L 195.263349 15.022073 
L 196.211342 17.000766 
L 197.159334 15.374022 
L 198.107324 18.144602 
L 199.055317 20.129435 
L 200.0033 16.968027 
L 200.951292 17.678064 
L 201.899281 16.069737 
L 202.847273 19.398934 
" clip-path="url(#p2848dfcd16)" style="fill: none; stroke: #339af0; stroke-width: 1.2; stroke-linecap: square"/>
   </g>
   <g id="line2d_18">
    <path d="M 39.792727 96.844222 
L 41.100981 96.782835 
L 41.688656 96.79102 
L 42.636649 96.905609 
L 43.584641 96.477949 
L 44.532636 98.280668 
L 45.480623 96.400193 
L 46.428611 96.907655 
L 47.376592 95.970487 
L 48.324591 96.570029 
L 49.272583 96.739865 
L 50.220574 97.081583 
L 51.168564 95.890684 
L 52.116549 96.688709 
L 53.064541 94.63226 
L 54.012533 97.237096 
L 54.960516 97.005873 
L 55.908509 97.044751 
L 56.856499 97.505151 
L 57.804489 97.249373 
L 58.752478 96.676432 
L 59.700467 97.603369 
L 60.64846 96.696894 
L 61.596444 95.667646 
L 62.544432 97.286205 
L 63.492429 97.226865 
L 64.440417 95.937747 
L 65.388409 96.985411 
L 66.336395 97.081583 
L 67.284367 97.140924 
L 68.232376 97.679079 
L 69.180361 97.484689 
L 70.128357 97.269836 
L 71.076344 96.482041 
L 72.024336 97.200264 
L 72.97232 96.465672 
L 73.920319 95.121306 
L 74.868295 95.827251 
L 75.816291 96.346991 
L 76.764282 96.901516 
L 77.712274 93.68486 
L 78.660247 98.22542 
L 79.608251 97.016104 
L 80.556225 97.505151 
L 81.504231 97.458088 
L 82.452221 94.180045 
L 83.400212 96.651877 
L 84.348199 97.198218 
L 85.296195 96.308113 
L 94.970475 93.099642 
L 95.724369 94.300772 
L 96.672377 95.626722 
L 97.620366 93.916083 
L 98.56836 96.549567 
L 99.516347 96.539335 
L 100.464334 96.59663 
L 101.412323 96.895378 
L 102.360311 96.930163 
L 103.308299 95.327974 
L 104.256292 97.179802 
L 105.204278 95.409823 
L 106.15227 95.851806 
L 107.100261 97.208449 
L 108.04825 95.575566 
L 108.996237 95.499856 
L 109.944231 93.206045 
L 110.892217 96.027781 
L 111.84021 96.123953 
L 112.788201 96.703033 
L 113.736187 95.733125 
L 114.684183 96.025735 
L 115.632163 96.856499 
L 116.580154 93.70123 
L 117.528151 97.341453 
L 118.47614 95.182692 
L 119.42413 95.188831 
L 120.372113 96.195571 
L 121.320106 97.81413 
L 122.268096 95.765865 
L 123.216085 95.268634 
L 124.164076 98.274529 
L 127.956033 98.522121 
L 128.904029 98.501659 
L 129.852015 96.997688 
L 130.800005 95.491671 
L 131.747996 98.796315 
L 132.695985 97.726142 
L 133.643978 97.298483 
L 134.591949 96.764419 
L 135.539952 98.129247 
L 136.487947 96.187386 
L 137.435933 97.660663 
L 138.383926 97.552214 
L 139.331913 96.498411 
L 140.279903 97.437625 
L 141.22789 97.155247 
L 142.175883 98.008521 
L 143.123885 97.636109 
L 144.071862 98.305222 
L 145.019854 98.362516 
L 145.967841 98.458689 
L 146.915831 98.423903 
L 147.863822 98.618294 
L 148.811809 98.315453 
L 149.759801 98.125155 
L 150.707787 98.632617 
L 179.147543 98.632617 
L 187.994854 98.546676 
L 188.627425 98.561 
L 189.575414 98.536445 
L 190.523402 98.927273 
L 191.471391 98.554861 
L 192.419387 98.872025 
L 193.367373 96.766466 
L 194.315361 98.739021 
L 195.263349 98.694004 
L 196.211342 98.5876 
L 197.159334 98.405487 
L 198.107324 96.815575 
L 199.055317 98.681726 
L 200.0033 98.833147 
L 200.951292 98.659218 
L 201.899281 98.364563 
L 202.847273 98.657172 
" clip-path="url(#p2848dfcd16)" style="fill: none; stroke: #ff6b6b; stroke-width: 1.2; stroke-linecap: square"/>
   </g>
   <g id="patch_3">
    <path d="M 31.64 103.4 
L 31.64 5 
" style="fill: none; stroke: var(--fg-color); stroke-width: 0.8; stroke-linejoin: miter; stroke-linecap: square"/>
   </g>
   <g id="patch_4">
    <path d="M 31.64 103.4 
L 211 103.4 
" style="fill: none; stroke: var(--fg-color); stroke-width: 0.8; stroke-linejoin: miter; stroke-linecap: square"/>
   </g>
  </g>
 </g>
 <defs>
  <clipPath id="p2848dfcd16">
   <rect x="31.64" y="5" width="179.36" height="98.4"/>
  </clipPath>
 </defs>
</svg>
