<?xml version="1.0" encoding="utf-8" standalone="no"?>
<!DOCTYPE svg PUBLIC "-//W3C//DTD SVG 1.1//EN"
  "http://www.w3.org/Graphics/SVG/1.1/DTD/svg11.dtd">
<svg xmlns:xlink="http://www.w3.org/1999/xlink" width="216pt" height="122.4pt" viewBox="0 0 216 122.4" xmlns="http://www.w3.org/2000/svg" version="1.1">
  <style>
    :root {
      --fg-color: #212529;
      --grid-color: rgba(33, 37, 41, 0.1);
    }
    @media (prefers-color-scheme: dark) {
      :root {
        --fg-color: #dee2e6;
        --grid-color: rgba(248, 249, 250, 0.15);
      }
    }
  </style>

 <metadata>
  <rdf:RDF xmlns:dc="http://purl.org/dc/elements/1.1/" xmlns:cc="http://creativecommons.org/ns#" xmlns:rdf="http://www.w3.org/1999/02/22-rdf-syntax-ns#">
   <cc:Work>
    <dc:type rdf:resource="http://purl.org/dc/dcmitype/StillImage"/>
    <dc:date>2026-06-30T15:37:43.331185</dc:date>
    <dc:format>image/svg+xml</dc:format>
    <dc:creator>
     <cc:Agent>
      <dc:title>Matplotlib v3.11.0, https://matplotlib.org/</dc:title>
     </cc:Agent>
    </dc:creator>
   </cc:Work>
  </rdf:RDF>
 </metadata>
 <defs>
  <style type="text/css">*{stroke-linejoin: round; stroke-linecap: butt}</style>
 </defs>
 <g id="figure_1">
  <g id="patch_1">
   <path d="M 0 122.4 
L 216 122.4 
L 216 0 
L 0 0 
L 0 122.4 
z
" style="fill: none; opacity: 0"/>
  </g>
  <g id="axes_1">
   <g id="patch_2">
    <path d="M 35.96 103.4 
L 211 103.4 
L 211 5 
L 35.96 5 
L 35.96 103.4 
z
" style="fill: none; opacity: 0"/>
   </g>
   <g id="matplotlib.axis_1">
    <g id="xtick_1">
     <g id="line2d_1">
      <path d="M 69.784035 103.4 
L 69.784035 5 
" clip-path="url(#p8afd7433ee)" style="fill: none; stroke-dasharray: 2.96,1.28; stroke-dashoffset: 0; stroke: var(--grid-color); stroke-width: 0.8"/>
     </g>
     <g id="line2d_2">
      <defs>
       <path id="mdfb0352ec0" d="M 0 0 
L 0 3.5 
" style="stroke: var(--fg-color); stroke-width: 0.8"/>
      </defs>
      <g>
       <use xlink:href="#mdfb0352ec0" x="69.784035" y="103.4" style="fill: var(--fg-color); stroke: var(--fg-color); stroke-width: 0.8"/>
      </g>
     </g>
     <g id="text_1">
      <text style="font-size: 7px; font-family: 'DejaVu Sans', 'Bitstream Vera Sans', 'Computer Modern Sans Serif', 'Lucida Grande', 'Verdana', 'Geneva', 'Lucid', 'Arial', 'Helvetica', 'Avant Garde', sans-serif; text-anchor: middle; fill: var(--fg-color)" x="69.784035" y="115.718359" transform="rotate(-0 69.784035 115.718359)">02/2026</text>
     </g>
    </g>
    <g id="xtick_2">
     <g id="line2d_3">
      <path d="M 122.345302 103.4 
L 122.345302 5 
" clip-path="url(#p8afd7433ee)" style="fill: none; stroke-dasharray: 2.96,1.28; stroke-dashoffset: 0; stroke: var(--grid-color); stroke-width: 0.8"/>
     </g>
     <g id="line2d_4">
      <g>
       <use xlink:href="#mdfb0352ec0" x="122.345302" y="103.4" style="fill: var(--fg-color); stroke: var(--fg-color); stroke-width: 0.8"/>
      </g>
     </g>
     <g id="text_2">
      <text style="font-size: 7px; font-family: 'DejaVu Sans', 'Bitstream Vera Sans', 'Computer Modern Sans Serif', 'Lucida Grande', 'Verdana', 'Geneva', 'Lucid', 'Arial', 'Helvetica', 'Avant Garde', sans-serif; text-anchor: middle; fill: var(--fg-color)" x="122.345302" y="115.718359" transform="rotate(-0 122.345302 115.718359)">04/2026</text>
     </g>
    </g>
    <g id="xtick_3">
     <g id="line2d_5">
      <path d="M 176.688307 103.4 
L 176.688307 5 
" clip-path="url(#p8afd7433ee)" style="fill: none; stroke-dasharray: 2.96,1.28; stroke-dashoffset: 0; stroke: var(--grid-color); stroke-width: 0.8"/>
     </g>
     <g id="line2d_6">
      <g>
       <use xlink:href="#mdfb0352ec0" x="176.688307" y="103.4" style="fill: var(--fg-color); stroke: var(--fg-color); stroke-width: 0.8"/>
      </g>
     </g>
     <g id="text_3">
      <text style="font-size: 7px; font-family: 'DejaVu Sans', 'Bitstream Vera Sans', 'Computer Modern Sans Serif', 'Lucida Grande', 'Verdana', 'Geneva', 'Lucid', 'Arial', 'Helvetica', 'Avant Garde', sans-serif; text-anchor: middle; fill: var(--fg-color)" x="176.688307" y="115.718359" transform="rotate(-0 176.688307 115.718359)">06/2026</text>
     </g>
    </g>
   </g>
   <g id="matplotlib.axis_2">
    <g id="ytick_1">
     <g id="line2d_7">
      <path d="M 35.96 99.705879 
L 211 99.705879 
" clip-path="url(#p8afd7433ee)" style="fill: none; stroke-dasharray: 2.96,1.28; stroke-dashoffset: 0; stroke: var(--grid-color); stroke-width: 0.8"/>
     </g>
     <g id="line2d_8">
      <defs>
       <path id="m88784262b0" d="M 0 0 
L -3.5 0 
" style="stroke: var(--fg-color); stroke-width: 0.8"/>
      </defs>
      <g>
       <use xlink:href="#m88784262b0" x="35.96" y="99.705879" style="fill: var(--fg-color); stroke: var(--fg-color); stroke-width: 0.8"/>
      </g>
     </g>
     <g id="text_4">
      <text style="font-size: 7px; font-family: 'DejaVu Sans', 'Bitstream Vera Sans', 'Computer Modern Sans Serif', 'Lucida Grande', 'Verdana', 'Geneva', 'Lucid', 'Arial', 'Helvetica', 'Avant Garde', sans-serif; text-anchor: end; fill: var(--fg-color)" x="28.96" y="102.365058" transform="rotate(-0 28.96 102.365058)">0</text>
     </g>
    </g>
    <g id="ytick_2">
     <g id="line2d_9">
      <path d="M 35.96 79.237792 
L 211 79.237792 
" clip-path="url(#p8afd7433ee)" style="fill: none; stroke-dasharray: 2.96,1.28; stroke-dashoffset: 0; stroke: var(--grid-color); stroke-width: 0.8"/>
     </g>
     <g id="line2d_10">
      <g>
       <use xlink:href="#m88784262b0" x="35.96" y="79.237792" style="fill: var(--fg-color); stroke: var(--fg-color); stroke-width: 0.8"/>
      </g>
     </g>
     <g id="text_5">
      <text style="font-size: 7px; font-family: 'DejaVu Sans', 'Bitstream Vera Sans', 'Computer Modern Sans Serif', 'Lucida Grande', 'Verdana', 'Geneva', 'Lucid', 'Arial', 'Helvetica', 'Avant Garde', sans-serif; text-anchor: end; fill: var(--fg-color)" x="28.96" y="81.896972" transform="rotate(-0 28.96 81.896972)">50</text>
     </g>
    </g>
    <g id="ytick_3">
     <g id="line2d_11">
      <path d="M 35.96 58.769705 
L 211 58.769705 
" clip-path="url(#p8afd7433ee)" style="fill: none; stroke-dasharray: 2.96,1.28; stroke-dashoffset: 0; stroke: var(--grid-color); stroke-width: 0.8"/>
     </g>
     <g id="line2d_12">
      <g>
       <use xlink:href="#m88784262b0" x="35.96" y="58.769705" style="fill: var(--fg-color); stroke: var(--fg-color); stroke-width: 0.8"/>
      </g>
     </g>
     <g id="text_6">
      <text style="font-size: 7px; font-family: 'DejaVu Sans', 'Bitstream Vera Sans', 'Computer Modern Sans Serif', 'Lucida Grande', 'Verdana', 'Geneva', 'Lucid', 'Arial', 'Helvetica', 'Avant Garde', sans-serif; text-anchor: end; fill: var(--fg-color)" x="28.96" y="61.428885" transform="rotate(-0 28.96 61.428885)">100</text>
     </g>
    </g>
    <g id="ytick_4">
     <g id="line2d_13">
      <path d="M 35.96 38.301618 
L 211 38.301618 
" clip-path="url(#p8afd7433ee)" style="fill: none; stroke-dasharray: 2.96,1.28; stroke-dashoffset: 0; stroke: var(--grid-color); stroke-width: 0.8"/>
     </g>
     <g id="line2d_14">
      <g>
       <use xlink:href="#m88784262b0" x="35.96" y="38.301618" style="fill: var(--fg-color); stroke: var(--fg-color); stroke-width: 0.8"/>
      </g>
     </g>
     <g id="text_7">
      <text style="font-size: 7px; font-family: 'DejaVu Sans', 'Bitstream Vera Sans', 'Computer Modern Sans Serif', 'Lucida Grande', 'Verdana', 'Geneva', 'Lucid', 'Arial', 'Helvetica', 'Avant Garde', sans-serif; text-anchor: end; fill: var(--fg-color)" x="28.96" y="40.960798" transform="rotate(-0 28.96 40.960798)">150</text>
     </g>
    </g>
    <g id="ytick_5">
     <g id="line2d_15">
      <path d="M 35.96 17.833531 
L 211 17.833531 
" clip-path="url(#p8afd7433ee)" style="fill: none; stroke-dasharray: 2.96,1.28; stroke-dashoffset: 0; stroke: var(--grid-color); stroke-width: 0.8"/>
     </g>
     <g id="line2d_16">
      <g>
       <use xlink:href="#m88784262b0" x="35.96" y="17.833531" style="fill: var(--fg-color); stroke: var(--fg-color); stroke-width: 0.8"/>
      </g>
     </g>
     <g id="text_8">
      <text style="font-size: 7px; font-family: 'DejaVu Sans', 'Bitstream Vera Sans', 'Computer Modern Sans Serif', 'Lucida Grande', 'Verdana', 'Geneva', 'Lucid', 'Arial', 'Helvetica', 'Avant Garde', sans-serif; text-anchor: end; fill: var(--fg-color)" x="28.96" y="20.492711" transform="rotate(-0 28.96 20.492711)">200</text>
     </g>
    </g>
    <g id="text_9">
     <text style="font-size: 7px; font-family: 'DejaVu Sans', 'Bitstream Vera Sans', 'Computer Modern Sans Serif', 'Lucida Grande', 'Verdana', 'Geneva', 'Lucid', 'Arial', 'Helvetica', 'Avant Garde', sans-serif; text-anchor: middle; fill: var(--fg-color)" x="9.917109" y="54.2" transform="rotate(-90 9.917109 54.2)">ms</text>
    </g>
   </g>
   <g id="line2d_17">
    <path d="M 43.916364 42.576992 
L 44.468628 29.441802 
L 45.3595 31.473055 
L 46.250371 31.710076 
L 47.141245 33.661094 
L 48.032112 44.601695 
L 48.922979 27.466632 
L 49.81384 41.890902 
L 50.704717 45.930074 
L 51.595589 40.537552 
L 52.486458 39.201805 
L 53.377327 46.08645 
L 54.268192 40.199829 
L 55.159063 11.92071 
L 56.049934 41.208087 
L 56.940797 46.389378 
L 57.831669 31.27083 
L 58.722538 43.28396 
L 59.613407 43.481272 
L 60.504275 42.164765 
L 61.395144 33.014302 
L 62.286016 41.741894 
L 63.176879 38.399046 
L 64.067746 39.997604 
L 64.958622 22.296802 
L 65.84949 37.856233 
L 66.740361 35.619889 
L 67.631226 36.744406 
L 68.522078 35.089357 
L 69.412965 45.384395 
L 70.30383 39.842456 
L 71.194705 32.684766 
L 72.085571 39.373327 
L 72.976442 39.736022 
L 73.867306 30.009587 
L 74.758184 28.670565 
L 75.649039 41.389434 
L 76.539914 39.675846 
L 77.430784 35.508134 
L 78.321655 36.971193 
L 79.212509 41.73207 
L 80.103391 40.470417 
L 80.994245 36.544228 
L 81.885129 38.180447 
L 82.775998 37.936468 
L 83.666869 41.91137 
L 84.557735 42.265468 
L 85.44861 32.017916 
L 94.53997 40.714396 
L 95.248438 43.514021 
L 96.139324 34.130222 
L 97.030192 27.405637 
L 97.921065 32.977869 
L 98.811931 37.486988 
L 99.702798 32.541489 
L 100.593666 37.343712 
L 101.484533 48.414491 
L 102.375401 43.41864 
L 103.266272 41.23142 
L 104.157138 32.901318 
L 105.048009 29.634202 
L 105.93888 41.024283 
L 106.829748 37.958573 
L 107.720614 41.012412 
L 108.611487 39.97468 
L 109.502352 18.489329 
L 110.393224 34.496192 
L 111.284094 38.959053 
L 112.17496 33.117871 
L 113.065834 42.192192 
L 113.956695 36.246213 
L 114.847564 38.645891 
L 115.738441 39.317245 
L 116.629309 25.960181 
L 117.520178 34.18958 
L 118.41104 34.983332 
L 119.301913 26.291354 
L 120.192782 29.892509 
L 121.083649 12.879436 
L 121.97452 35.512227 
L 125.537994 31.718672 
L 126.428869 48.808297 
L 127.319734 32.064992 
L 128.210603 18.637927 
L 129.101474 9.472727 
L 130.883214 40.097079 
L 131.774065 10.340984 
L 132.664946 39.857602 
L 133.55582 27.579206 
L 134.446686 38.944726 
L 135.337558 38.246764 
L 136.228424 27.763828 
L 137.119294 34.943215 
L 138.010159 33.125239 
L 138.901032 30.234326 
L 139.791912 18.997347 
L 140.68277 22.751603 
L 141.57364 30.625267 
L 142.464507 29.569523 
L 143.355376 30.328889 
L 144.246246 28.496586 
L 145.137113 32.739211 
L 146.027984 22.641076 
L 146.918849 28.2567 
L 173.644977 28.2567 
L 181.959197 43.281094 
L 182.553652 39.508417 
L 183.444521 41.829088 
L 184.335387 31.44399 
L 185.226256 24.900343 
L 186.117131 40.834339 
L 187.007996 32.548039 
L 187.898864 42.586408 
L 188.789731 41.02019 
L 189.680603 46.566222 
L 190.571474 40.113044 
L 191.462343 42.381727 
L 192.353215 26.272524 
L 193.244077 43.113256 
L 194.134949 43.077642 
L 195.025817 43.748995 
L 195.916688 41.876984 
L 196.807557 45.492466 
L 197.698426 36.644522 
L 198.589295 41.012002 
L 199.480162 43.748176 
L 201.261898 12.136444 
L 202.152766 39.789648 
L 203.043636 45.30416 
L 203.043636 45.30416 
" clip-path="url(#p8afd7433ee)" style="fill: none; stroke: #339af0; stroke-width: 1.2; stroke-linecap: square"/>
   </g>
   <g id="line2d_18">
    <path d="M 43.916364 98.811014 
L 46.250371 98.844172 
L 51.595589 98.866687 
L 53.377327 98.867915 
L 59.613407 98.907623 
L 62.286016 98.852769 
L 63.176879 98.795049 
L 64.067746 98.900664 
L 66.740361 98.804464 
L 70.30383 98.857272 
L 78.321655 98.82616 
L 79.212509 98.901483 
L 80.103391 98.715223 
L 80.994245 98.860137 
L 96.139324 98.856863 
L 99.702798 98.824523 
L 102.375401 98.878149 
L 105.93888 98.860956 
L 110.393224 98.83312 
L 113.065834 98.872828 
L 121.97452 98.727504 
L 128.210603 98.799552 
L 129.101474 98.702942 
L 129.992342 98.803645 
L 135.337558 98.787271 
L 139.791912 98.79464 
L 140.68277 98.60224 
L 142.464507 98.700896 
L 143.355376 98.655457 
L 145.137113 98.764347 
L 146.918849 98.795868 
L 203.043636 98.786043 
L 203.043636 98.786043 
" clip-path="url(#p8afd7433ee)" style="fill: none; stroke: #ff6b6b; stroke-width: 1.2; stroke-linecap: square"/>
   </g>
   <g id="patch_3">
    <path d="M 35.96 103.4 
L 35.96 5 
" style="fill: none; stroke: var(--fg-color); stroke-width: 0.8; stroke-linejoin: miter; stroke-linecap: square"/>
   </g>
   <g id="patch_4">
    <path d="M 35.96 103.4 
L 211 103.4 
" style="fill: none; stroke: var(--fg-color); stroke-width: 0.8; stroke-linejoin: miter; stroke-linecap: square"/>
   </g>
  </g>
 </g>
 <defs>
  <clipPath id="p8afd7433ee">
   <rect x="35.96" y="5" width="175.04" height="98.4"/>
  </clipPath>
 </defs>
</svg>
