<?xml version="1.0" encoding="utf-8" standalone="no"?>
<!DOCTYPE svg PUBLIC "-//W3C//DTD SVG 1.1//EN"
  "http://www.w3.org/Graphics/SVG/1.1/DTD/svg11.dtd">
<svg xmlns:xlink="http://www.w3.org/1999/xlink" width="216pt" height="122.4pt" viewBox="0 0 216 122.4" xmlns="http://www.w3.org/2000/svg" version="1.1">
  <style>
    :root {
      --fg-color: #212529;
      --grid-color: rgba(33, 37, 41, 0.1);
    }
    @media (prefers-color-scheme: dark) {
      :root {
        --fg-color: #dee2e6;
        --grid-color: rgba(248, 249, 250, 0.15);
      }
    }
  </style>

 <metadata>
  <rdf:RDF xmlns:dc="http://purl.org/dc/elements/1.1/" xmlns:cc="http://creativecommons.org/ns#" xmlns:rdf="http://www.w3.org/1999/02/22-rdf-syntax-ns#">
   <cc:Work>
    <dc:type rdf:resource="http://purl.org/dc/dcmitype/StillImage"/>
    <dc:date>2026-06-30T15:37:01.835450</dc:date>
    <dc:format>image/svg+xml</dc:format>
    <dc:creator>
     <cc:Agent>
      <dc:title>Matplotlib v3.11.0, https://matplotlib.org/</dc:title>
     </cc:Agent>
    </dc:creator>
   </cc:Work>
  </rdf:RDF>
 </metadata>
 <defs>
  <style type="text/css">*{stroke-linejoin: round; stroke-linecap: butt}</style>
 </defs>
 <g id="figure_1">
  <g id="patch_1">
   <path d="M 0 122.4 
L 216 122.4 
L 216 0 
L 0 0 
L 0 122.4 
z
" style="fill: none; opacity: 0"/>
  </g>
  <g id="axes_1">
   <g id="patch_2">
    <path d="M 35.96 103.4 
L 211 103.4 
L 211 5 
L 35.96 5 
L 35.96 103.4 
z
" style="fill: none; opacity: 0"/>
   </g>
   <g id="matplotlib.axis_1">
    <g id="xtick_1">
     <g id="line2d_1">
      <path d="M 69.784035 103.4 
L 69.784035 5 
" clip-path="url(#p3b5fc83d92)" style="fill: none; stroke-dasharray: 2.96,1.28; stroke-dashoffset: 0; stroke: var(--grid-color); stroke-width: 0.8"/>
     </g>
     <g id="line2d_2">
      <defs>
       <path id="md2e0a8bb2b" d="M 0 0 
L 0 3.5 
" style="stroke: var(--fg-color); stroke-width: 0.8"/>
      </defs>
      <g>
       <use xlink:href="#md2e0a8bb2b" x="69.784035" y="103.4" style="fill: var(--fg-color); stroke: var(--fg-color); stroke-width: 0.8"/>
      </g>
     </g>
     <g id="text_1">
      <text style="font-size: 7px; font-family: 'DejaVu Sans', 'Bitstream Vera Sans', 'Computer Modern Sans Serif', 'Lucida Grande', 'Verdana', 'Geneva', 'Lucid', 'Arial', 'Helvetica', 'Avant Garde', sans-serif; text-anchor: middle; fill: var(--fg-color)" x="69.784035" y="115.718359" transform="rotate(-0 69.784035 115.718359)">02/2026</text>
     </g>
    </g>
    <g id="xtick_2">
     <g id="line2d_3">
      <path d="M 122.345302 103.4 
L 122.345302 5 
" clip-path="url(#p3b5fc83d92)" style="fill: none; stroke-dasharray: 2.96,1.28; stroke-dashoffset: 0; stroke: var(--grid-color); stroke-width: 0.8"/>
     </g>
     <g id="line2d_4">
      <g>
       <use xlink:href="#md2e0a8bb2b" x="122.345302" y="103.4" style="fill: var(--fg-color); stroke: var(--fg-color); stroke-width: 0.8"/>
      </g>
     </g>
     <g id="text_2">
      <text style="font-size: 7px; font-family: 'DejaVu Sans', 'Bitstream Vera Sans', 'Computer Modern Sans Serif', 'Lucida Grande', 'Verdana', 'Geneva', 'Lucid', 'Arial', 'Helvetica', 'Avant Garde', sans-serif; text-anchor: middle; fill: var(--fg-color)" x="122.345302" y="115.718359" transform="rotate(-0 122.345302 115.718359)">04/2026</text>
     </g>
    </g>
    <g id="xtick_3">
     <g id="line2d_5">
      <path d="M 176.688307 103.4 
L 176.688307 5 
" clip-path="url(#p3b5fc83d92)" style="fill: none; stroke-dasharray: 2.96,1.28; stroke-dashoffset: 0; stroke: var(--grid-color); stroke-width: 0.8"/>
     </g>
     <g id="line2d_6">
      <g>
       <use xlink:href="#md2e0a8bb2b" x="176.688307" y="103.4" style="fill: var(--fg-color); stroke: var(--fg-color); stroke-width: 0.8"/>
      </g>
     </g>
     <g id="text_3">
      <text style="font-size: 7px; font-family: 'DejaVu Sans', 'Bitstream Vera Sans', 'Computer Modern Sans Serif', 'Lucida Grande', 'Verdana', 'Geneva', 'Lucid', 'Arial', 'Helvetica', 'Avant Garde', sans-serif; text-anchor: middle; fill: var(--fg-color)" x="176.688307" y="115.718359" transform="rotate(-0 176.688307 115.718359)">06/2026</text>
     </g>
    </g>
   </g>
   <g id="matplotlib.axis_2">
    <g id="ytick_1">
     <g id="line2d_7">
      <path d="M 35.96 101.257994 
L 211 101.257994 
" clip-path="url(#p3b5fc83d92)" style="fill: none; stroke-dasharray: 2.96,1.28; stroke-dashoffset: 0; stroke: var(--grid-color); stroke-width: 0.8"/>
     </g>
     <g id="line2d_8">
      <defs>
       <path id="m3c0e54a26f" d="M 0 0 
L -3.5 0 
" style="stroke: var(--fg-color); stroke-width: 0.8"/>
      </defs>
      <g>
       <use xlink:href="#m3c0e54a26f" x="35.96" y="101.257994" style="fill: var(--fg-color); stroke: var(--fg-color); stroke-width: 0.8"/>
      </g>
     </g>
     <g id="text_4">
      <text style="font-size: 7px; font-family: 'DejaVu Sans', 'Bitstream Vera Sans', 'Computer Modern Sans Serif', 'Lucida Grande', 'Verdana', 'Geneva', 'Lucid', 'Arial', 'Helvetica', 'Avant Garde', sans-serif; text-anchor: end; fill: var(--fg-color)" x="28.96" y="103.917174" transform="rotate(-0 28.96 103.917174)">0</text>
     </g>
    </g>
    <g id="ytick_2">
     <g id="line2d_9">
      <path d="M 35.96 83.536573 
L 211 83.536573 
" clip-path="url(#p3b5fc83d92)" style="fill: none; stroke-dasharray: 2.96,1.28; stroke-dashoffset: 0; stroke: var(--grid-color); stroke-width: 0.8"/>
     </g>
     <g id="line2d_10">
      <g>
       <use xlink:href="#m3c0e54a26f" x="35.96" y="83.536573" style="fill: var(--fg-color); stroke: var(--fg-color); stroke-width: 0.8"/>
      </g>
     </g>
     <g id="text_5">
      <text style="font-size: 7px; font-family: 'DejaVu Sans', 'Bitstream Vera Sans', 'Computer Modern Sans Serif', 'Lucida Grande', 'Verdana', 'Geneva', 'Lucid', 'Arial', 'Helvetica', 'Avant Garde', sans-serif; text-anchor: end; fill: var(--fg-color)" x="28.96" y="86.195752" transform="rotate(-0 28.96 86.195752)">50</text>
     </g>
    </g>
    <g id="ytick_3">
     <g id="line2d_11">
      <path d="M 35.96 65.815151 
L 211 65.815151 
" clip-path="url(#p3b5fc83d92)" style="fill: none; stroke-dasharray: 2.96,1.28; stroke-dashoffset: 0; stroke: var(--grid-color); stroke-width: 0.8"/>
     </g>
     <g id="line2d_12">
      <g>
       <use xlink:href="#m3c0e54a26f" x="35.96" y="65.815151" style="fill: var(--fg-color); stroke: var(--fg-color); stroke-width: 0.8"/>
      </g>
     </g>
     <g id="text_6">
      <text style="font-size: 7px; font-family: 'DejaVu Sans', 'Bitstream Vera Sans', 'Computer Modern Sans Serif', 'Lucida Grande', 'Verdana', 'Geneva', 'Lucid', 'Arial', 'Helvetica', 'Avant Garde', sans-serif; text-anchor: end; fill: var(--fg-color)" x="28.96" y="68.474331" transform="rotate(-0 28.96 68.474331)">100</text>
     </g>
    </g>
    <g id="ytick_4">
     <g id="line2d_13">
      <path d="M 35.96 48.09373 
L 211 48.09373 
" clip-path="url(#p3b5fc83d92)" style="fill: none; stroke-dasharray: 2.96,1.28; stroke-dashoffset: 0; stroke: var(--grid-color); stroke-width: 0.8"/>
     </g>
     <g id="line2d_14">
      <g>
       <use xlink:href="#m3c0e54a26f" x="35.96" y="48.09373" style="fill: var(--fg-color); stroke: var(--fg-color); stroke-width: 0.8"/>
      </g>
     </g>
     <g id="text_7">
      <text style="font-size: 7px; font-family: 'DejaVu Sans', 'Bitstream Vera Sans', 'Computer Modern Sans Serif', 'Lucida Grande', 'Verdana', 'Geneva', 'Lucid', 'Arial', 'Helvetica', 'Avant Garde', sans-serif; text-anchor: end; fill: var(--fg-color)" x="28.96" y="50.75291" transform="rotate(-0 28.96 50.75291)">150</text>
     </g>
    </g>
    <g id="ytick_5">
     <g id="line2d_15">
      <path d="M 35.96 30.372308 
L 211 30.372308 
" clip-path="url(#p3b5fc83d92)" style="fill: none; stroke-dasharray: 2.96,1.28; stroke-dashoffset: 0; stroke: var(--grid-color); stroke-width: 0.8"/>
     </g>
     <g id="line2d_16">
      <g>
       <use xlink:href="#m3c0e54a26f" x="35.96" y="30.372308" style="fill: var(--fg-color); stroke: var(--fg-color); stroke-width: 0.8"/>
      </g>
     </g>
     <g id="text_8">
      <text style="font-size: 7px; font-family: 'DejaVu Sans', 'Bitstream Vera Sans', 'Computer Modern Sans Serif', 'Lucida Grande', 'Verdana', 'Geneva', 'Lucid', 'Arial', 'Helvetica', 'Avant Garde', sans-serif; text-anchor: end; fill: var(--fg-color)" x="28.96" y="33.031488" transform="rotate(-0 28.96 33.031488)">200</text>
     </g>
    </g>
    <g id="ytick_6">
     <g id="line2d_17">
      <path d="M 35.96 12.650887 
L 211 12.650887 
" clip-path="url(#p3b5fc83d92)" style="fill: none; stroke-dasharray: 2.96,1.28; stroke-dashoffset: 0; stroke: var(--grid-color); stroke-width: 0.8"/>
     </g>
     <g id="line2d_18">
      <g>
       <use xlink:href="#m3c0e54a26f" x="35.96" y="12.650887" style="fill: var(--fg-color); stroke: var(--fg-color); stroke-width: 0.8"/>
      </g>
     </g>
     <g id="text_9">
      <text style="font-size: 7px; font-family: 'DejaVu Sans', 'Bitstream Vera Sans', 'Computer Modern Sans Serif', 'Lucida Grande', 'Verdana', 'Geneva', 'Lucid', 'Arial', 'Helvetica', 'Avant Garde', sans-serif; text-anchor: end; fill: var(--fg-color)" x="28.96" y="15.310067" transform="rotate(-0 28.96 15.310067)">250</text>
     </g>
    </g>
    <g id="text_10">
     <text style="font-size: 7px; font-family: 'DejaVu Sans', 'Bitstream Vera Sans', 'Computer Modern Sans Serif', 'Lucida Grande', 'Verdana', 'Geneva', 'Lucid', 'Arial', 'Helvetica', 'Avant Garde', sans-serif; text-anchor: middle; fill: var(--fg-color)" x="9.917109" y="54.2" transform="rotate(-90 9.917109 54.2)">ms</text>
    </g>
   </g>
   <g id="line2d_19">
    <path d="M 43.916364 85.515347 
L 44.468628 83.552876 
L 45.3595 85.704611 
L 46.250371 85.985319 
L 47.141245 84.600212 
L 48.032112 85.015957 
L 48.922979 85.227196 
L 49.81384 84.954641 
L 50.704717 83.912621 
L 51.595589 86.623999 
L 52.486458 84.447454 
L 53.377327 86.577569 
L 54.268192 83.952317 
L 55.159063 86.855086 
L 56.049934 87.182223 
L 56.940797 84.747655 
L 57.831669 80.320489 
L 58.722538 87.117009 
L 59.613407 84.925578 
L 60.504275 86.133115 
L 61.395144 86.023597 
L 62.286016 86.994376 
L 63.176879 83.373536 
L 64.067746 85.241728 
L 64.958622 85.089324 
L 65.84949 84.812869 
L 66.740361 84.940464 
L 67.631226 87.686221 
L 68.522078 84.690592 
L 69.412965 84.303556 
L 70.30383 85.488764 
L 71.194705 87.225818 
L 72.085571 85.22826 
L 72.976442 84.152924 
L 73.867306 86.03742 
L 74.758184 79.198014 
L 75.649039 83.869027 
L 77.430784 86.97063 
L 78.321655 85.255551 
L 79.212509 81.817595 
L 80.103391 85.544764 
L 80.994245 84.658339 
L 81.885129 81.867569 
L 82.775998 79.834568 
L 83.666869 85.769826 
L 84.557735 83.197739 
L 94.53997 21.887292 
L 95.248438 81.987366 
L 96.139324 86.01261 
L 97.030192 85.876509 
L 97.921065 81.91329 
L 98.811931 84.033127 
L 99.702798 79.449304 
L 100.593666 83.264017 
L 101.484533 81.270712 
L 102.375401 83.017335 
L 103.266272 84.036317 
L 104.157138 80.639475 
L 105.048009 84.258543 
L 105.93888 82.656172 
L 106.829748 83.916166 
L 107.720614 82.501287 
L 108.611487 83.65318 
L 109.502352 83.272523 
L 110.393224 84.056519 
L 111.284094 82.533895 
L 113.065834 82.207466 
L 113.956695 81.81724 
L 114.847564 81.856582 
L 115.738441 80.27335 
L 116.629309 82.420832 
L 117.520178 84.971299 
L 118.41104 79.228495 
L 119.301913 79.702011 
L 120.192782 84.347505 
L 121.083649 81.973543 
L 121.97452 81.720836 
L 125.537994 84.045532 
L 126.428869 82.44706 
L 127.319734 83.753128 
L 128.210603 82.778096 
L 129.101474 80.508691 
L 129.992342 72.901593 
L 130.883214 83.489079 
L 131.774065 84.463049 
L 132.664946 80.388185 
L 133.55582 81.458204 
L 134.446686 81.217547 
L 135.337558 82.913487 
L 136.228424 83.546142 
L 137.119294 80.526766 
L 138.010159 80.270515 
L 138.901032 73.484982 
L 139.791912 82.472933 
L 140.68277 82.602654 
L 141.57364 81.515622 
L 142.464507 77.49215 
L 143.355376 83.099562 
L 144.246246 80.600133 
L 145.137113 82.712172 
L 146.027984 80.418666 
L 146.918849 82.004379 
L 173.644977 82.004379 
L 181.959197 83.966849 
L 182.553652 29.722641 
L 183.444521 82.091922 
L 184.335387 79.190571 
L 185.226256 82.712172 
L 186.117131 9.472727 
L 187.007996 80.891119 
L 187.898864 66.053682 
L 188.789731 83.221131 
L 189.680603 79.483684 
L 190.571474 77.303594 
L 191.462343 82.06534 
L 192.353215 82.378301 
L 193.244077 81.418154 
L 194.134949 81.365699 
L 195.025817 79.248343 
L 195.916688 82.357744 
L 196.807557 82.357389 
L 197.698426 81.841341 
L 198.589295 83.510345 
L 199.480162 81.883518 
L 200.371032 79.816846 
L 201.261898 81.367116 
L 202.152766 74.715912 
L 203.043636 82.374402 
L 203.043636 82.374402 
" clip-path="url(#p3b5fc83d92)" style="fill: none; stroke: #339af0; stroke-width: 1.2; stroke-linecap: square"/>
   </g>
   <g id="line2d_20">
    <path d="M 43.916364 97.99867 
L 44.468628 96.729108 
L 45.3595 97.09984 
L 46.250371 96.821613 
L 47.141245 97.526572 
L 48.032112 96.237161 
L 48.922979 98.27158 
L 49.81384 98.699021 
L 50.704717 98.198568 
L 51.595589 97.250826 
L 52.486458 98.0451 
L 53.377327 97.450369 
L 54.268192 97.362117 
L 55.159063 96.964448 
L 56.049934 94.899194 
L 56.940797 95.610177 
L 57.831669 98.366567 
L 58.722538 96.891436 
L 59.613407 96.266933 
L 60.504275 98.104644 
L 61.395144 98.58454 
L 62.286016 95.995795 
L 63.176879 97.949759 
L 64.067746 97.407838 
L 64.958622 98.371529 
L 65.84949 97.830671 
L 66.740361 97.492192 
L 67.631226 96.896043 
L 68.522078 97.350066 
L 69.412965 97.604546 
L 70.30383 98.34282 
L 71.194705 96.308755 
L 72.085571 97.460293 
L 72.976442 98.216644 
L 73.867306 96.162731 
L 74.758184 97.92105 
L 75.649039 97.754115 
L 76.539914 96.605767 
L 77.430784 96.379287 
L 78.321655 97.293003 
L 79.212509 97.149814 
L 80.103391 97.909709 
L 80.994245 96.827639 
L 81.885129 97.016195 
L 82.775998 97.99867 
L 83.666869 97.551027 
L 84.557735 98.317301 
L 85.44861 96.883284 
L 94.53997 97.537204 
L 95.248438 97.067941 
L 96.139324 98.630262 
L 97.030192 96.658931 
L 98.811931 97.389053 
L 99.702798 97.009815 
L 100.593666 97.218219 
L 101.484533 97.687837 
L 102.375401 95.41276 
L 103.266272 98.927273 
L 104.157138 97.157257 
L 105.048009 98.589502 
L 105.93888 96.190376 
L 106.829748 95.685316 
L 107.720614 96.768804 
L 108.611487 97.422015 
L 109.502352 97.334117 
L 110.393224 97.01903 
L 111.284094 96.583438 
L 112.17496 96.773411 
L 113.065834 97.666925 
L 113.956695 97.548901 
L 114.847564 96.251693 
L 115.738441 97.58328 
L 117.520178 98.710008 
L 118.41104 97.372395 
L 119.301913 97.553154 
L 120.192782 95.386178 
L 121.083649 97.130675 
L 121.97452 96.193921 
L 125.537994 97.491129 
L 126.428869 97.559179 
L 127.319734 96.043643 
L 128.210603 96.866626 
L 129.101474 98.176948 
L 129.992342 97.548901 
L 130.883214 97.869658 
L 131.774065 96.118782 
L 132.664946 96.985005 
L 133.55582 96.072706 
L 134.446686 97.495736 
L 135.337558 97.461711 
L 136.228424 96.804601 
L 137.119294 97.329155 
L 138.010159 97.423787 
L 138.901032 98.099682 
L 139.791912 96.867335 
L 140.68277 97.898721 
L 141.57364 97.553508 
L 142.464507 96.742576 
L 143.355376 96.640501 
L 144.246246 96.666374 
L 145.137113 95.811492 
L 146.027984 96.775892 
L 146.918849 96.815943 
L 173.644977 96.815943 
L 181.959197 97.658065 
L 182.553652 97.586824 
L 183.444521 97.844494 
L 184.335387 96.255946 
L 185.226256 96.198528 
L 186.117131 95.740607 
L 187.007996 97.729305 
L 187.898864 96.24106 
L 188.789731 97.398623 
L 189.680603 96.311591 
L 190.571474 96.650425 
L 191.462343 97.922114 
L 192.353215 97.618369 
L 193.244077 83.165486 
L 194.134949 96.756399 
L 195.025817 96.634121 
L 195.916688 97.946215 
L 196.807557 97.739937 
L 197.698426 96.706779 
L 198.589295 96.871588 
L 199.480162 97.629356 
L 200.371032 97.244092 
L 201.261898 98.161353 
L 202.152766 96.007846 
L 203.043636 96.486679 
L 203.043636 96.486679 
" clip-path="url(#p3b5fc83d92)" style="fill: none; stroke: #ff6b6b; stroke-width: 1.2; stroke-linecap: square"/>
   </g>
   <g id="patch_3">
    <path d="M 35.96 103.4 
L 35.96 5 
" style="fill: none; stroke: var(--fg-color); stroke-width: 0.8; stroke-linejoin: miter; stroke-linecap: square"/>
   </g>
   <g id="patch_4">
    <path d="M 35.96 103.4 
L 211 103.4 
" style="fill: none; stroke: var(--fg-color); stroke-width: 0.8; stroke-linejoin: miter; stroke-linecap: square"/>
   </g>
  </g>
 </g>
 <defs>
  <clipPath id="p3b5fc83d92">
   <rect x="35.96" y="5" width="175.04" height="98.4"/>
  </clipPath>
 </defs>
</svg>
