<?xml version="1.0" encoding="utf-8" standalone="no"?>
<!DOCTYPE svg PUBLIC "-//W3C//DTD SVG 1.1//EN"
  "http://www.w3.org/Graphics/SVG/1.1/DTD/svg11.dtd">
<svg xmlns:xlink="http://www.w3.org/1999/xlink" width="216pt" height="122.4pt" viewBox="0 0 216 122.4" xmlns="http://www.w3.org/2000/svg" version="1.1">
  <style>
    :root {
      --fg-color: #212529;
      --grid-color: rgba(33, 37, 41, 0.1);
    }
    @media (prefers-color-scheme: dark) {
      :root {
        --fg-color: #dee2e6;
        --grid-color: rgba(248, 249, 250, 0.15);
      }
    }
  </style>

 <metadata>
  <rdf:RDF xmlns:dc="http://purl.org/dc/elements/1.1/" xmlns:cc="http://creativecommons.org/ns#" xmlns:rdf="http://www.w3.org/1999/02/22-rdf-syntax-ns#">
   <cc:Work>
    <dc:type rdf:resource="http://purl.org/dc/dcmitype/StillImage"/>
    <dc:date>2026-06-30T04:49:27.242956</dc:date>
    <dc:format>image/svg+xml</dc:format>
    <dc:creator>
     <cc:Agent>
      <dc:title>Matplotlib v3.11.0, https://matplotlib.org/</dc:title>
     </cc:Agent>
    </dc:creator>
   </cc:Work>
  </rdf:RDF>
 </metadata>
 <defs>
  <style type="text/css">*{stroke-linejoin: round; stroke-linecap: butt}</style>
 </defs>
 <g id="figure_1">
  <g id="patch_1">
   <path d="M 0 122.4 
L 216 122.4 
L 216 0 
L 0 0 
L 0 122.4 
z
" style="fill: none; opacity: 0"/>
  </g>
  <g id="axes_1">
   <g id="patch_2">
    <path d="M 35.96 103.4 
L 211 103.4 
L 211 5 
L 35.96 5 
L 35.96 103.4 
z
" style="fill: none; opacity: 0"/>
   </g>
   <g id="matplotlib.axis_1">
    <g id="xtick_1">
     <g id="line2d_1">
      <path d="M 70.996911 103.4 
L 70.996911 5 
" clip-path="url(#p1b158455e2)" style="fill: none; stroke-dasharray: 2.96,1.28; stroke-dashoffset: 0; stroke: var(--grid-color); stroke-width: 0.8"/>
     </g>
     <g id="line2d_2">
      <defs>
       <path id="m7b426aba82" d="M 0 0 
L 0 3.5 
" style="stroke: var(--fg-color); stroke-width: 0.8"/>
      </defs>
      <g>
       <use xlink:href="#m7b426aba82" x="70.996911" y="103.4" style="fill: var(--fg-color); stroke: var(--fg-color); stroke-width: 0.8"/>
      </g>
     </g>
     <g id="text_1">
      <text style="font-size: 7px; font-family: 'DejaVu Sans', 'Bitstream Vera Sans', 'Computer Modern Sans Serif', 'Lucida Grande', 'Verdana', 'Geneva', 'Lucid', 'Arial', 'Helvetica', 'Avant Garde', sans-serif; text-anchor: middle; fill: var(--fg-color)" x="70.996911" y="115.718359" transform="rotate(-0 70.996911 115.718359)">02/2026</text>
     </g>
    </g>
    <g id="xtick_2">
     <g id="line2d_3">
      <path d="M 126.022656 103.4 
L 126.022656 5 
" clip-path="url(#p1b158455e2)" style="fill: none; stroke-dasharray: 2.96,1.28; stroke-dashoffset: 0; stroke: var(--grid-color); stroke-width: 0.8"/>
     </g>
     <g id="line2d_4">
      <g>
       <use xlink:href="#m7b426aba82" x="126.022656" y="103.4" style="fill: var(--fg-color); stroke: var(--fg-color); stroke-width: 0.8"/>
      </g>
     </g>
     <g id="text_2">
      <text style="font-size: 7px; font-family: 'DejaVu Sans', 'Bitstream Vera Sans', 'Computer Modern Sans Serif', 'Lucida Grande', 'Verdana', 'Geneva', 'Lucid', 'Arial', 'Helvetica', 'Avant Garde', sans-serif; text-anchor: middle; fill: var(--fg-color)" x="126.022656" y="115.718359" transform="rotate(-0 126.022656 115.718359)">04/2026</text>
     </g>
    </g>
    <g id="xtick_3">
     <g id="line2d_5">
      <path d="M 182.913681 103.4 
L 182.913681 5 
" clip-path="url(#p1b158455e2)" style="fill: none; stroke-dasharray: 2.96,1.28; stroke-dashoffset: 0; stroke: var(--grid-color); stroke-width: 0.8"/>
     </g>
     <g id="line2d_6">
      <g>
       <use xlink:href="#m7b426aba82" x="182.913681" y="103.4" style="fill: var(--fg-color); stroke: var(--fg-color); stroke-width: 0.8"/>
      </g>
     </g>
     <g id="text_3">
      <text style="font-size: 7px; font-family: 'DejaVu Sans', 'Bitstream Vera Sans', 'Computer Modern Sans Serif', 'Lucida Grande', 'Verdana', 'Geneva', 'Lucid', 'Arial', 'Helvetica', 'Avant Garde', sans-serif; text-anchor: middle; fill: var(--fg-color)" x="182.913681" y="115.718359" transform="rotate(-0 182.913681 115.718359)">06/2026</text>
     </g>
    </g>
   </g>
   <g id="matplotlib.axis_2">
    <g id="ytick_1">
     <g id="line2d_7">
      <path d="M 35.96 99.939101 
L 211 99.939101 
" clip-path="url(#p1b158455e2)" style="fill: none; stroke-dasharray: 2.96,1.28; stroke-dashoffset: 0; stroke: var(--grid-color); stroke-width: 0.8"/>
     </g>
     <g id="line2d_8">
      <defs>
       <path id="m7cac9250c2" d="M 0 0 
L -3.5 0 
" style="stroke: var(--fg-color); stroke-width: 0.8"/>
      </defs>
      <g>
       <use xlink:href="#m7cac9250c2" x="35.96" y="99.939101" style="fill: var(--fg-color); stroke: var(--fg-color); stroke-width: 0.8"/>
      </g>
     </g>
     <g id="text_4">
      <text style="font-size: 7px; font-family: 'DejaVu Sans', 'Bitstream Vera Sans', 'Computer Modern Sans Serif', 'Lucida Grande', 'Verdana', 'Geneva', 'Lucid', 'Arial', 'Helvetica', 'Avant Garde', sans-serif; text-anchor: end; fill: var(--fg-color)" x="28.96" y="102.598281" transform="rotate(-0 28.96 102.598281)">0</text>
     </g>
    </g>
    <g id="ytick_2">
     <g id="line2d_9">
      <path d="M 35.96 83.577061 
L 211 83.577061 
" clip-path="url(#p1b158455e2)" style="fill: none; stroke-dasharray: 2.96,1.28; stroke-dashoffset: 0; stroke: var(--grid-color); stroke-width: 0.8"/>
     </g>
     <g id="line2d_10">
      <g>
       <use xlink:href="#m7cac9250c2" x="35.96" y="83.577061" style="fill: var(--fg-color); stroke: var(--fg-color); stroke-width: 0.8"/>
      </g>
     </g>
     <g id="text_5">
      <text style="font-size: 7px; font-family: 'DejaVu Sans', 'Bitstream Vera Sans', 'Computer Modern Sans Serif', 'Lucida Grande', 'Verdana', 'Geneva', 'Lucid', 'Arial', 'Helvetica', 'Avant Garde', sans-serif; text-anchor: end; fill: var(--fg-color)" x="28.96" y="86.236241" transform="rotate(-0 28.96 86.236241)">25</text>
     </g>
    </g>
    <g id="ytick_3">
     <g id="line2d_11">
      <path d="M 35.96 67.215021 
L 211 67.215021 
" clip-path="url(#p1b158455e2)" style="fill: none; stroke-dasharray: 2.96,1.28; stroke-dashoffset: 0; stroke: var(--grid-color); stroke-width: 0.8"/>
     </g>
     <g id="line2d_12">
      <g>
       <use xlink:href="#m7cac9250c2" x="35.96" y="67.215021" style="fill: var(--fg-color); stroke: var(--fg-color); stroke-width: 0.8"/>
      </g>
     </g>
     <g id="text_6">
      <text style="font-size: 7px; font-family: 'DejaVu Sans', 'Bitstream Vera Sans', 'Computer Modern Sans Serif', 'Lucida Grande', 'Verdana', 'Geneva', 'Lucid', 'Arial', 'Helvetica', 'Avant Garde', sans-serif; text-anchor: end; fill: var(--fg-color)" x="28.96" y="69.874201" transform="rotate(-0 28.96 69.874201)">50</text>
     </g>
    </g>
    <g id="ytick_4">
     <g id="line2d_13">
      <path d="M 35.96 50.852981 
L 211 50.852981 
" clip-path="url(#p1b158455e2)" style="fill: none; stroke-dasharray: 2.96,1.28; stroke-dashoffset: 0; stroke: var(--grid-color); stroke-width: 0.8"/>
     </g>
     <g id="line2d_14">
      <g>
       <use xlink:href="#m7cac9250c2" x="35.96" y="50.852981" style="fill: var(--fg-color); stroke: var(--fg-color); stroke-width: 0.8"/>
      </g>
     </g>
     <g id="text_7">
      <text style="font-size: 7px; font-family: 'DejaVu Sans', 'Bitstream Vera Sans', 'Computer Modern Sans Serif', 'Lucida Grande', 'Verdana', 'Geneva', 'Lucid', 'Arial', 'Helvetica', 'Avant Garde', sans-serif; text-anchor: end; fill: var(--fg-color)" x="28.96" y="53.512161" transform="rotate(-0 28.96 53.512161)">75</text>
     </g>
    </g>
    <g id="ytick_5">
     <g id="line2d_15">
      <path d="M 35.96 34.490941 
L 211 34.490941 
" clip-path="url(#p1b158455e2)" style="fill: none; stroke-dasharray: 2.96,1.28; stroke-dashoffset: 0; stroke: var(--grid-color); stroke-width: 0.8"/>
     </g>
     <g id="line2d_16">
      <g>
       <use xlink:href="#m7cac9250c2" x="35.96" y="34.490941" style="fill: var(--fg-color); stroke: var(--fg-color); stroke-width: 0.8"/>
      </g>
     </g>
     <g id="text_8">
      <text style="font-size: 7px; font-family: 'DejaVu Sans', 'Bitstream Vera Sans', 'Computer Modern Sans Serif', 'Lucida Grande', 'Verdana', 'Geneva', 'Lucid', 'Arial', 'Helvetica', 'Avant Garde', sans-serif; text-anchor: end; fill: var(--fg-color)" x="28.96" y="37.150121" transform="rotate(-0 28.96 37.150121)">100</text>
     </g>
    </g>
    <g id="ytick_6">
     <g id="line2d_17">
      <path d="M 35.96 18.128901 
L 211 18.128901 
" clip-path="url(#p1b158455e2)" style="fill: none; stroke-dasharray: 2.96,1.28; stroke-dashoffset: 0; stroke: var(--grid-color); stroke-width: 0.8"/>
     </g>
     <g id="line2d_18">
      <g>
       <use xlink:href="#m7cac9250c2" x="35.96" y="18.128901" style="fill: var(--fg-color); stroke: var(--fg-color); stroke-width: 0.8"/>
      </g>
     </g>
     <g id="text_9">
      <text style="font-size: 7px; font-family: 'DejaVu Sans', 'Bitstream Vera Sans', 'Computer Modern Sans Serif', 'Lucida Grande', 'Verdana', 'Geneva', 'Lucid', 'Arial', 'Helvetica', 'Avant Garde', sans-serif; text-anchor: end; fill: var(--fg-color)" x="28.96" y="20.788081" transform="rotate(-0 28.96 20.788081)">125</text>
     </g>
    </g>
    <g id="text_10">
     <text style="font-size: 7px; font-family: 'DejaVu Sans', 'Bitstream Vera Sans', 'Computer Modern Sans Serif', 'Lucida Grande', 'Verdana', 'Geneva', 'Lucid', 'Arial', 'Helvetica', 'Avant Garde', sans-serif; text-anchor: middle; fill: var(--fg-color)" x="9.917109" y="54.2" transform="rotate(-90 9.917109 54.2)">ms</text>
    </g>
   </g>
   <g id="line2d_19">
    <path d="M 43.916364 53.660053 
L 44.494523 54.829611 
L 45.427166 53.948025 
L 46.359808 52.885146 
L 47.292453 54.536404 
L 48.22509 56.227584 
L 49.157727 56.753787 
L 50.090359 52.868784 
L 51.023007 48.276287 
L 51.95565 57.642573 
L 52.88829 52.14231 
L 53.82093 53.438838 
L 54.753566 56.110432 
L 55.686208 43.086902 
L 56.618849 44.739468 
L 57.551483 51.228654 
L 58.484126 50.956389 
L 59.416765 52.841296 
L 60.349406 51.330098 
L 61.282045 21.081267 
L 62.214684 48.182696 
L 63.147327 48.975273 
L 64.07996 54.209817 
L 65.012598 54.171203 
L 65.945245 55.626115 
L 66.877884 47.409753 
L 67.810526 49.598994 
L 68.743162 51.476048 
L 69.675784 38.662607 
L 70.608443 51.614143 
L 71.541078 45.494086 
L 72.473724 51.88968 
L 73.406361 53.257546 
L 74.339003 47.958863 
L 75.271637 33.098204 
L 76.204286 52.565759 
L 77.136912 39.862272 
L 78.069558 50.483853 
L 79.002199 51.614143 
L 79.934841 46.586416 
L 80.867465 45.197606 
L 81.800118 46.295171 
L 82.732742 52.833442 
L 83.665398 35.009945 
L 84.598038 39.837401 
L 85.53068 53.624056 
L 86.463316 51.004821 
L 87.395962 51.710352 
L 96.913595 35.132987 
L 97.655282 50.31827 
L 98.587939 34.68794 
L 99.520578 36.585282 
L 100.453222 50.080693 
L 101.385859 44.328454 
L 102.318497 53.095235 
L 103.251135 49.746907 
L 104.183773 54.548839 
L 105.116412 52.569686 
L 106.049054 50.826147 
L 106.981691 56.293687 
L 107.914333 49.797957 
L 108.846974 39.984005 
L 109.779613 52.253572 
L 110.71225 54.728167 
L 111.644893 47.773645 
L 112.57753 53.961114 
L 113.510173 47.683327 
L 114.442814 40.728805 
L 115.37545 49.782249 
L 116.308095 53.820401 
L 117.240726 46.519004 
L 118.173367 48.776311 
L 119.106014 54.701987 
L 120.038653 52.650188 
L 120.971293 9.472727 
L 121.903926 33.827297 
L 122.836569 54.874116 
L 123.769209 51.663884 
L 124.701847 50.276383 
L 125.634489 50.440003 
L 129.365046 47.25006 
L 130.297692 55.904925 
L 131.230328 51.25876 
L 132.162968 52.995754 
L 133.095609 51.65603 
L 134.028248 55.294293 
L 134.960891 51.696608 
L 135.893512 53.771969 
L 136.826165 39.555974 
L 137.75881 51.233235 
L 138.691446 46.486934 
L 139.624089 45.664251 
L 140.556726 39.492489 
L 141.489366 53.671833 
L 142.422003 44.754522 
L 143.354646 39.300726 
L 144.287298 50.850363 
L 145.219926 44.242717 
L 146.152567 46.257211 
L 147.085204 46.106026 
L 148.017844 47.900615 
L 148.950485 51.014638 
L 149.883123 49.119914 
L 150.815765 42.480198 
L 151.7484 38.967595 
L 179.727656 38.967595 
L 188.43171 43.534568 
L 189.054038 53.308596 
L 189.986678 52.773885 
L 190.919315 53.321031 
L 191.851955 50.486471 
L 192.7846 46.904494 
L 193.717237 57.455391 
L 194.649875 53.542246 
L 195.582513 46.537984 
L 196.515156 50.872616 
L 197.447798 56.116977 
L 198.380437 53.187517 
L 199.313081 52.376614 
L 200.245713 58.162232 
L 201.178356 56.724336 
L 202.110995 50.712922 
L 203.043636 57.080374 
" clip-path="url(#p1b158455e2)" style="fill: none; stroke: #339af0; stroke-width: 1.2; stroke-linecap: square"/>
   </g>
   <g id="line2d_20">
    <path d="M 43.916364 98.64061 
L 44.494523 98.844808 
L 45.427166 98.812084 
L 46.359808 98.826483 
L 47.292453 98.759725 
L 48.22509 98.889967 
L 49.157727 98.796376 
L 50.090359 98.815356 
L 51.023007 98.785905 
L 51.95565 98.927273 
L 52.88829 98.864442 
L 53.82093 98.820592 
L 54.753566 98.8291 
L 55.686208 98.814047 
L 56.618849 98.772161 
L 57.551483 98.804885 
L 58.484126 98.857243 
L 59.416765 98.844808 
L 60.349406 98.783287 
L 61.282045 98.842845 
L 62.214684 97.966494 
L 63.147327 98.804885 
L 64.07996 98.868369 
L 65.012598 98.853316 
L 65.945245 98.872951 
L 66.877884 98.830409 
L 67.810526 98.821901 
L 68.743162 98.816011 
L 69.675784 98.523458 
L 70.608443 98.789832 
L 71.541078 98.778051 
L 72.473724 98.820592 
L 73.406361 98.778051 
L 74.339003 98.776742 
L 75.271637 98.786559 
L 76.204286 98.762343 
L 77.136912 98.727656 
L 78.069558 98.826483 
L 79.002199 98.772161 
L 79.934841 98.822556 
L 80.867465 98.781978 
L 81.800118 98.837609 
L 82.732742 98.838918 
L 83.665398 98.143204 
L 84.598038 98.859207 
L 85.53068 98.875569 
L 86.463316 98.85528 
L 87.395962 98.855934 
L 96.913595 98.814047 
L 97.655282 98.670716 
L 98.587939 98.805539 
L 99.520578 98.788523 
L 100.453222 98.86706 
L 101.385859 98.888658 
L 102.318497 98.8291 
L 103.251135 98.857243 
L 104.183773 98.848735 
L 105.116412 98.805539 
L 106.049054 98.795067 
L 106.981691 98.838263 
L 107.914333 98.827137 
L 108.846974 97.9017 
L 109.779613 98.848735 
L 110.71225 98.810775 
L 111.644893 98.835645 
L 112.57753 98.819283 
L 113.510173 98.811429 
L 114.442814 98.803576 
L 115.37545 98.144513 
L 116.308095 98.829755 
L 117.240726 98.758416 
L 118.173367 98.79834 
L 119.106014 98.8363 
L 120.038653 98.819283 
L 120.971293 98.744672 
L 121.903926 98.774124 
L 122.836569 98.719802 
L 123.769209 98.630138 
L 124.701847 98.704095 
L 125.634489 98.637992 
L 129.365046 98.632102 
L 130.297692 98.679879 
L 131.230328 98.739437 
L 132.162968 98.782632 
L 133.095609 98.601341 
L 134.028248 98.778705 
L 134.960891 98.708021 
L 135.893512 98.759725 
L 136.826165 98.620321 
L 137.75881 98.745327 
L 138.691446 98.706058 
L 139.624089 98.471754 
L 140.556726 98.522149 
L 141.489366 98.723074 
L 142.422003 98.52084 
L 143.354646 98.664826 
L 144.287298 98.670716 
L 145.219926 98.620321 
L 146.152567 98.743363 
L 147.085204 98.711948 
L 148.017844 98.675952 
L 148.950485 98.679879 
L 149.883123 98.638646 
L 150.815765 98.614431 
L 151.7484 98.553564 
L 179.727656 98.553564 
L 188.43171 98.744018 
L 189.054038 98.746636 
L 189.986678 98.683151 
L 190.919315 98.759725 
L 191.851955 98.643882 
L 192.7846 98.794413 
L 193.717237 98.190981 
L 194.649875 98.717839 
L 195.582513 98.698859 
L 196.515156 98.844154 
L 197.447798 98.846117 
L 198.380437 98.562726 
L 199.313081 98.841536 
L 200.245713 98.855934 
L 201.178356 98.816665 
L 202.110995 98.662208 
L 203.043636 98.789177 
" clip-path="url(#p1b158455e2)" style="fill: none; stroke: #ff6b6b; stroke-width: 1.2; stroke-linecap: square"/>
   </g>
   <g id="patch_3">
    <path d="M 35.96 103.4 
L 35.96 5 
" style="fill: none; stroke: var(--fg-color); stroke-width: 0.8; stroke-linejoin: miter; stroke-linecap: square"/>
   </g>
   <g id="patch_4">
    <path d="M 35.96 103.4 
L 211 103.4 
" style="fill: none; stroke: var(--fg-color); stroke-width: 0.8; stroke-linejoin: miter; stroke-linecap: square"/>
   </g>
  </g>
 </g>
 <defs>
  <clipPath id="p1b158455e2">
   <rect x="35.96" y="5" width="175.04" height="98.4"/>
  </clipPath>
 </defs>
</svg>
