<?xml version="1.0" encoding="utf-8" standalone="no"?>
<!DOCTYPE svg PUBLIC "-//W3C//DTD SVG 1.1//EN"
  "http://www.w3.org/Graphics/SVG/1.1/DTD/svg11.dtd">
<svg xmlns:xlink="http://www.w3.org/1999/xlink" width="216pt" height="122.4pt" viewBox="0 0 216 122.4" xmlns="http://www.w3.org/2000/svg" version="1.1">
  <style>
    :root {
      --fg-color: #212529;
      --grid-color: rgba(33, 37, 41, 0.1);
    }
    @media (prefers-color-scheme: dark) {
      :root {
        --fg-color: #dee2e6;
        --grid-color: rgba(248, 249, 250, 0.15);
      }
    }
  </style>

 <metadata>
  <rdf:RDF xmlns:dc="http://purl.org/dc/elements/1.1/" xmlns:cc="http://creativecommons.org/ns#" xmlns:rdf="http://www.w3.org/1999/02/22-rdf-syntax-ns#">
   <cc:Work>
    <dc:type rdf:resource="http://purl.org/dc/dcmitype/StillImage"/>
    <dc:date>2026-06-30T15:36:48.540735</dc:date>
    <dc:format>image/svg+xml</dc:format>
    <dc:creator>
     <cc:Agent>
      <dc:title>Matplotlib v3.11.0, https://matplotlib.org/</dc:title>
     </cc:Agent>
    </dc:creator>
   </cc:Work>
  </rdf:RDF>
 </metadata>
 <defs>
  <style type="text/css">*{stroke-linejoin: round; stroke-linecap: butt}</style>
 </defs>
 <g id="figure_1">
  <g id="patch_1">
   <path d="M 0 122.4 
L 216 122.4 
L 216 0 
L 0 0 
L 0 122.4 
z
" style="fill: none; opacity: 0"/>
  </g>
  <g id="axes_1">
   <g id="patch_2">
    <path d="M 35.96 103.4 
L 211 103.4 
L 211 5 
L 35.96 5 
L 35.96 103.4 
z
" style="fill: none; opacity: 0"/>
   </g>
   <g id="matplotlib.axis_1">
    <g id="xtick_1">
     <g id="line2d_1">
      <path d="M 69.784035 103.4 
L 69.784035 5 
" clip-path="url(#p747d892fcb)" style="fill: none; stroke-dasharray: 2.96,1.28; stroke-dashoffset: 0; stroke: var(--grid-color); stroke-width: 0.8"/>
     </g>
     <g id="line2d_2">
      <defs>
       <path id="md8bc12029b" d="M 0 0 
L 0 3.5 
" style="stroke: var(--fg-color); stroke-width: 0.8"/>
      </defs>
      <g>
       <use xlink:href="#md8bc12029b" x="69.784035" y="103.4" style="fill: var(--fg-color); stroke: var(--fg-color); stroke-width: 0.8"/>
      </g>
     </g>
     <g id="text_1">
      <text style="font-size: 7px; font-family: 'DejaVu Sans', 'Bitstream Vera Sans', 'Computer Modern Sans Serif', 'Lucida Grande', 'Verdana', 'Geneva', 'Lucid', 'Arial', 'Helvetica', 'Avant Garde', sans-serif; text-anchor: middle; fill: var(--fg-color)" x="69.784035" y="115.718359" transform="rotate(-0 69.784035 115.718359)">02/2026</text>
     </g>
    </g>
    <g id="xtick_2">
     <g id="line2d_3">
      <path d="M 122.345302 103.4 
L 122.345302 5 
" clip-path="url(#p747d892fcb)" style="fill: none; stroke-dasharray: 2.96,1.28; stroke-dashoffset: 0; stroke: var(--grid-color); stroke-width: 0.8"/>
     </g>
     <g id="line2d_4">
      <g>
       <use xlink:href="#md8bc12029b" x="122.345302" y="103.4" style="fill: var(--fg-color); stroke: var(--fg-color); stroke-width: 0.8"/>
      </g>
     </g>
     <g id="text_2">
      <text style="font-size: 7px; font-family: 'DejaVu Sans', 'Bitstream Vera Sans', 'Computer Modern Sans Serif', 'Lucida Grande', 'Verdana', 'Geneva', 'Lucid', 'Arial', 'Helvetica', 'Avant Garde', sans-serif; text-anchor: middle; fill: var(--fg-color)" x="122.345302" y="115.718359" transform="rotate(-0 122.345302 115.718359)">04/2026</text>
     </g>
    </g>
    <g id="xtick_3">
     <g id="line2d_5">
      <path d="M 176.688307 103.4 
L 176.688307 5 
" clip-path="url(#p747d892fcb)" style="fill: none; stroke-dasharray: 2.96,1.28; stroke-dashoffset: 0; stroke: var(--grid-color); stroke-width: 0.8"/>
     </g>
     <g id="line2d_6">
      <g>
       <use xlink:href="#md8bc12029b" x="176.688307" y="103.4" style="fill: var(--fg-color); stroke: var(--fg-color); stroke-width: 0.8"/>
      </g>
     </g>
     <g id="text_3">
      <text style="font-size: 7px; font-family: 'DejaVu Sans', 'Bitstream Vera Sans', 'Computer Modern Sans Serif', 'Lucida Grande', 'Verdana', 'Geneva', 'Lucid', 'Arial', 'Helvetica', 'Avant Garde', sans-serif; text-anchor: middle; fill: var(--fg-color)" x="176.688307" y="115.718359" transform="rotate(-0 176.688307 115.718359)">06/2026</text>
     </g>
    </g>
   </g>
   <g id="matplotlib.axis_2">
    <g id="ytick_1">
     <g id="line2d_7">
      <path d="M 35.96 99.485051 
L 211 99.485051 
" clip-path="url(#p747d892fcb)" style="fill: none; stroke-dasharray: 2.96,1.28; stroke-dashoffset: 0; stroke: var(--grid-color); stroke-width: 0.8"/>
     </g>
     <g id="line2d_8">
      <defs>
       <path id="mb06bd5a726" d="M 0 0 
L -3.5 0 
" style="stroke: var(--fg-color); stroke-width: 0.8"/>
      </defs>
      <g>
       <use xlink:href="#mb06bd5a726" x="35.96" y="99.485051" style="fill: var(--fg-color); stroke: var(--fg-color); stroke-width: 0.8"/>
      </g>
     </g>
     <g id="text_4">
      <text style="font-size: 7px; font-family: 'DejaVu Sans', 'Bitstream Vera Sans', 'Computer Modern Sans Serif', 'Lucida Grande', 'Verdana', 'Geneva', 'Lucid', 'Arial', 'Helvetica', 'Avant Garde', sans-serif; text-anchor: end; fill: var(--fg-color)" x="28.96" y="102.144231" transform="rotate(-0 28.96 102.144231)">0</text>
     </g>
    </g>
    <g id="ytick_2">
     <g id="line2d_9">
      <path d="M 35.96 74.35991 
L 211 74.35991 
" clip-path="url(#p747d892fcb)" style="fill: none; stroke-dasharray: 2.96,1.28; stroke-dashoffset: 0; stroke: var(--grid-color); stroke-width: 0.8"/>
     </g>
     <g id="line2d_10">
      <g>
       <use xlink:href="#mb06bd5a726" x="35.96" y="74.35991" style="fill: var(--fg-color); stroke: var(--fg-color); stroke-width: 0.8"/>
      </g>
     </g>
     <g id="text_5">
      <text style="font-size: 7px; font-family: 'DejaVu Sans', 'Bitstream Vera Sans', 'Computer Modern Sans Serif', 'Lucida Grande', 'Verdana', 'Geneva', 'Lucid', 'Arial', 'Helvetica', 'Avant Garde', sans-serif; text-anchor: end; fill: var(--fg-color)" x="28.96" y="77.01909" transform="rotate(-0 28.96 77.01909)">50</text>
     </g>
    </g>
    <g id="ytick_3">
     <g id="line2d_11">
      <path d="M 35.96 49.23477 
L 211 49.23477 
" clip-path="url(#p747d892fcb)" style="fill: none; stroke-dasharray: 2.96,1.28; stroke-dashoffset: 0; stroke: var(--grid-color); stroke-width: 0.8"/>
     </g>
     <g id="line2d_12">
      <g>
       <use xlink:href="#mb06bd5a726" x="35.96" y="49.23477" style="fill: var(--fg-color); stroke: var(--fg-color); stroke-width: 0.8"/>
      </g>
     </g>
     <g id="text_6">
      <text style="font-size: 7px; font-family: 'DejaVu Sans', 'Bitstream Vera Sans', 'Computer Modern Sans Serif', 'Lucida Grande', 'Verdana', 'Geneva', 'Lucid', 'Arial', 'Helvetica', 'Avant Garde', sans-serif; text-anchor: end; fill: var(--fg-color)" x="28.96" y="51.893949" transform="rotate(-0 28.96 51.893949)">100</text>
     </g>
    </g>
    <g id="ytick_4">
     <g id="line2d_13">
      <path d="M 35.96 24.109629 
L 211 24.109629 
" clip-path="url(#p747d892fcb)" style="fill: none; stroke-dasharray: 2.96,1.28; stroke-dashoffset: 0; stroke: var(--grid-color); stroke-width: 0.8"/>
     </g>
     <g id="line2d_14">
      <g>
       <use xlink:href="#mb06bd5a726" x="35.96" y="24.109629" style="fill: var(--fg-color); stroke: var(--fg-color); stroke-width: 0.8"/>
      </g>
     </g>
     <g id="text_7">
      <text style="font-size: 7px; font-family: 'DejaVu Sans', 'Bitstream Vera Sans', 'Computer Modern Sans Serif', 'Lucida Grande', 'Verdana', 'Geneva', 'Lucid', 'Arial', 'Helvetica', 'Avant Garde', sans-serif; text-anchor: end; fill: var(--fg-color)" x="28.96" y="26.768809" transform="rotate(-0 28.96 26.768809)">150</text>
     </g>
    </g>
    <g id="text_8">
     <text style="font-size: 7px; font-family: 'DejaVu Sans', 'Bitstream Vera Sans', 'Computer Modern Sans Serif', 'Lucida Grande', 'Verdana', 'Geneva', 'Lucid', 'Arial', 'Helvetica', 'Avant Garde', sans-serif; text-anchor: middle; fill: var(--fg-color)" x="9.917109" y="54.2" transform="rotate(-90 9.917109 54.2)">ms</text>
    </g>
   </g>
   <g id="line2d_15">
    <path d="M 43.916364 9.472727 
L 44.468628 75.508129 
L 45.3595 74.123734 
L 46.250371 76.796044 
L 47.141245 73.221239 
L 48.032112 75.15688 
L 48.922979 71.71373 
L 49.81384 73.866955 
L 50.704717 70.728322 
L 51.595589 72.787076 
L 52.486458 73.105161 
L 53.377327 72.827779 
L 54.268192 71.463484 
L 55.159063 75.333761 
L 56.049934 72.836824 
L 56.940797 71.673028 
L 57.831669 78.111596 
L 58.722538 70.503704 
L 59.613407 76.401579 
L 60.504275 72.207188 
L 61.395144 75.366423 
L 62.286016 71.236855 
L 63.176879 78.059336 
L 64.067746 75.59657 
L 64.958622 71.440871 
L 65.84949 74.475486 
L 66.740361 68.979613 
L 67.631226 77.085486 
L 68.522078 76.503587 
L 69.412965 72.89612 
L 70.30383 73.547866 
L 71.194705 71.807196 
L 72.085571 74.34584 
L 72.976442 75.394061 
L 73.867306 78.290487 
L 74.758184 76.59655 
L 75.649039 68.763536 
L 76.539914 74.853368 
L 77.430784 72.818734 
L 78.321655 69.309255 
L 79.212509 74.819198 
L 80.103391 73.769469 
L 80.994245 75.119192 
L 81.885129 74.79357 
L 82.775998 71.702675 
L 83.666869 71.892621 
L 84.557735 75.282003 
L 85.44861 70.067531 
L 94.53997 75.14281 
L 95.248438 75.930232 
L 96.139324 75.61667 
L 97.030192 73.362945 
L 97.921065 74.455386 
L 98.811931 73.640829 
L 99.702798 71.478559 
L 100.593666 72.784061 
L 101.484533 66.596242 
L 102.375401 69.164031 
L 103.266272 65.592241 
L 104.157138 74.038308 
L 105.048009 66.955531 
L 105.93888 68.761526 
L 106.829748 72.443365 
L 108.611487 74.197602 
L 109.502352 67.706271 
L 110.393224 73.938813 
L 111.284094 70.66149 
L 112.17496 71.745388 
L 113.956695 71.56298 
L 114.847564 67.948979 
L 115.738441 70.402198 
L 116.629309 73.977506 
L 117.520178 70.016276 
L 118.41104 71.383084 
L 119.301913 69.42282 
L 120.192782 62.26316 
L 121.083649 69.770552 
L 121.97452 70.922289 
L 125.537994 50.19254 
L 126.428869 73.149381 
L 127.319734 72.108195 
L 128.210603 70.644907 
L 129.101474 61.731512 
L 129.992342 72.48658 
L 130.883214 65.706812 
L 131.774065 69.015793 
L 132.664946 71.291628 
L 133.55582 70.357475 
L 134.446686 71.637853 
L 135.337558 70.542396 
L 136.228424 64.573166 
L 137.119294 67.071107 
L 138.010159 71.584587 
L 138.901032 70.753448 
L 139.791912 65.484706 
L 140.68277 71.784081 
L 141.57364 66.802268 
L 142.464507 70.464508 
L 143.355376 72.810694 
L 144.246246 69.269557 
L 145.137113 71.826794 
L 146.027984 66.438958 
L 146.918849 65.467118 
L 173.644977 65.467118 
L 181.959197 70.119289 
L 182.553652 72.545875 
L 183.444521 68.385654 
L 185.226256 73.164959 
L 186.117131 69.165539 
L 187.007996 67.467079 
L 187.898864 66.33896 
L 188.789731 73.122246 
L 189.680603 48.099616 
L 190.571474 69.000718 
L 191.462343 42.012297 
L 192.353215 68.221336 
L 193.244077 67.730893 
L 194.134949 66.479159 
L 195.025817 71.756946 
L 195.916688 63.680218 
L 196.807557 69.787135 
L 197.698426 68.525853 
L 198.589295 69.011773 
L 199.480162 68.707759 
L 200.371032 72.665973 
L 201.261898 69.688142 
L 202.152766 67.703758 
L 203.043636 64.693264 
L 203.043636 64.693264 
" clip-path="url(#p747d892fcb)" style="fill: none; stroke: #339af0; stroke-width: 1.2; stroke-linecap: square"/>
   </g>
   <g id="line2d_16">
    <path d="M 43.916364 98.748382 
L 46.250371 98.809185 
L 48.032112 98.831295 
L 48.922979 98.173016 
L 49.81384 98.798632 
L 51.595589 98.807175 
L 52.486458 98.717729 
L 54.268192 98.776019 
L 56.049934 98.814712 
L 59.613407 98.780542 
L 61.395144 98.797124 
L 62.286016 98.752402 
L 64.067746 98.841847 
L 64.958622 98.720242 
L 65.84949 98.840842 
L 72.085571 98.787074 
L 74.758184 98.85642 
L 75.649039 98.566476 
L 76.539914 98.85843 
L 80.103391 98.778532 
L 81.885129 98.827777 
L 84.557735 98.759437 
L 85.44861 98.744362 
L 96.139324 98.889083 
L 97.030192 98.695619 
L 97.921065 98.829285 
L 105.048009 98.803657 
L 105.93888 98.642856 
L 106.829748 98.927273 
L 110.393224 98.864962 
L 112.17496 98.811697 
L 113.065834 98.901143 
L 114.847564 98.836822 
L 115.738441 98.880037 
L 116.629309 98.745869 
L 119.301913 98.859937 
L 120.192782 98.848882 
L 121.083649 98.530296 
L 121.97452 98.827275 
L 128.210603 98.760442 
L 130.883214 98.545371 
L 131.774065 98.809185 
L 132.664946 98.845365 
L 133.55582 98.396127 
L 134.446686 98.837827 
L 142.464507 98.790089 
L 146.918849 98.665469 
L 173.644977 98.665469 
L 182.553652 98.844862 
L 183.444521 98.674011 
L 184.335387 98.647379 
L 185.226256 98.842852 
L 187.007996 98.804662 
L 189.680603 98.784059 
L 190.571474 98.323767 
L 191.462343 98.781044 
L 193.244077 98.797627 
L 195.025817 98.811195 
L 195.916688 98.670494 
L 196.807557 98.765467 
L 198.589295 98.789587 
L 202.152766 98.8323 
L 203.043636 98.840842 
L 203.043636 98.840842 
" clip-path="url(#p747d892fcb)" style="fill: none; stroke: #ff6b6b; stroke-width: 1.2; stroke-linecap: square"/>
   </g>
   <g id="patch_3">
    <path d="M 35.96 103.4 
L 35.96 5 
" style="fill: none; stroke: var(--fg-color); stroke-width: 0.8; stroke-linejoin: miter; stroke-linecap: square"/>
   </g>
   <g id="patch_4">
    <path d="M 35.96 103.4 
L 211 103.4 
" style="fill: none; stroke: var(--fg-color); stroke-width: 0.8; stroke-linejoin: miter; stroke-linecap: square"/>
   </g>
  </g>
 </g>
 <defs>
  <clipPath id="p747d892fcb">
   <rect x="35.96" y="5" width="175.04" height="98.4"/>
  </clipPath>
 </defs>
</svg>
