<?xml version="1.0" encoding="utf-8" standalone="no"?>
<!DOCTYPE svg PUBLIC "-//W3C//DTD SVG 1.1//EN"
  "http://www.w3.org/Graphics/SVG/1.1/DTD/svg11.dtd">
<svg xmlns:xlink="http://www.w3.org/1999/xlink" width="216pt" height="122.4pt" viewBox="0 0 216 122.4" xmlns="http://www.w3.org/2000/svg" version="1.1">
  <style>
    :root {
      --fg-color: #212529;
      --grid-color: rgba(33, 37, 41, 0.1);
    }
    @media (prefers-color-scheme: dark) {
      :root {
        --fg-color: #dee2e6;
        --grid-color: rgba(248, 249, 250, 0.15);
      }
    }
  </style>

 <metadata>
  <rdf:RDF xmlns:dc="http://purl.org/dc/elements/1.1/" xmlns:cc="http://creativecommons.org/ns#" xmlns:rdf="http://www.w3.org/1999/02/22-rdf-syntax-ns#">
   <cc:Work>
    <dc:type rdf:resource="http://purl.org/dc/dcmitype/StillImage"/>
    <dc:date>2026-06-30T15:37:10.377124</dc:date>
    <dc:format>image/svg+xml</dc:format>
    <dc:creator>
     <cc:Agent>
      <dc:title>Matplotlib v3.11.0, https://matplotlib.org/</dc:title>
     </cc:Agent>
    </dc:creator>
   </cc:Work>
  </rdf:RDF>
 </metadata>
 <defs>
  <style type="text/css">*{stroke-linejoin: round; stroke-linecap: butt}</style>
 </defs>
 <g id="figure_1">
  <g id="patch_1">
   <path d="M 0 122.4 
L 216 122.4 
L 216 0 
L 0 0 
L 0 122.4 
z
" style="fill: none; opacity: 0"/>
  </g>
  <g id="axes_1">
   <g id="patch_2">
    <path d="M 35.96 103.4 
L 211 103.4 
L 211 5 
L 35.96 5 
L 35.96 103.4 
z
" style="fill: none; opacity: 0"/>
   </g>
   <g id="matplotlib.axis_1">
    <g id="xtick_1">
     <g id="line2d_1">
      <path d="M 69.784035 103.4 
L 69.784035 5 
" clip-path="url(#p3893adfe0d)" style="fill: none; stroke-dasharray: 2.96,1.28; stroke-dashoffset: 0; stroke: var(--grid-color); stroke-width: 0.8"/>
     </g>
     <g id="line2d_2">
      <defs>
       <path id="med8d65e223" d="M 0 0 
L 0 3.5 
" style="stroke: var(--fg-color); stroke-width: 0.8"/>
      </defs>
      <g>
       <use xlink:href="#med8d65e223" x="69.784035" y="103.4" style="fill: var(--fg-color); stroke: var(--fg-color); stroke-width: 0.8"/>
      </g>
     </g>
     <g id="text_1">
      <text style="font-size: 7px; font-family: 'DejaVu Sans', 'Bitstream Vera Sans', 'Computer Modern Sans Serif', 'Lucida Grande', 'Verdana', 'Geneva', 'Lucid', 'Arial', 'Helvetica', 'Avant Garde', sans-serif; text-anchor: middle; fill: var(--fg-color)" x="69.784035" y="115.718359" transform="rotate(-0 69.784035 115.718359)">02/2026</text>
     </g>
    </g>
    <g id="xtick_2">
     <g id="line2d_3">
      <path d="M 122.345302 103.4 
L 122.345302 5 
" clip-path="url(#p3893adfe0d)" style="fill: none; stroke-dasharray: 2.96,1.28; stroke-dashoffset: 0; stroke: var(--grid-color); stroke-width: 0.8"/>
     </g>
     <g id="line2d_4">
      <g>
       <use xlink:href="#med8d65e223" x="122.345302" y="103.4" style="fill: var(--fg-color); stroke: var(--fg-color); stroke-width: 0.8"/>
      </g>
     </g>
     <g id="text_2">
      <text style="font-size: 7px; font-family: 'DejaVu Sans', 'Bitstream Vera Sans', 'Computer Modern Sans Serif', 'Lucida Grande', 'Verdana', 'Geneva', 'Lucid', 'Arial', 'Helvetica', 'Avant Garde', sans-serif; text-anchor: middle; fill: var(--fg-color)" x="122.345302" y="115.718359" transform="rotate(-0 122.345302 115.718359)">04/2026</text>
     </g>
    </g>
    <g id="xtick_3">
     <g id="line2d_5">
      <path d="M 176.688307 103.4 
L 176.688307 5 
" clip-path="url(#p3893adfe0d)" style="fill: none; stroke-dasharray: 2.96,1.28; stroke-dashoffset: 0; stroke: var(--grid-color); stroke-width: 0.8"/>
     </g>
     <g id="line2d_6">
      <g>
       <use xlink:href="#med8d65e223" x="176.688307" y="103.4" style="fill: var(--fg-color); stroke: var(--fg-color); stroke-width: 0.8"/>
      </g>
     </g>
     <g id="text_3">
      <text style="font-size: 7px; font-family: 'DejaVu Sans', 'Bitstream Vera Sans', 'Computer Modern Sans Serif', 'Lucida Grande', 'Verdana', 'Geneva', 'Lucid', 'Arial', 'Helvetica', 'Avant Garde', sans-serif; text-anchor: middle; fill: var(--fg-color)" x="176.688307" y="115.718359" transform="rotate(-0 176.688307 115.718359)">06/2026</text>
     </g>
    </g>
   </g>
   <g id="matplotlib.axis_2">
    <g id="ytick_1">
     <g id="line2d_7">
      <path d="M 35.96 99.567625 
L 211 99.567625 
" clip-path="url(#p3893adfe0d)" style="fill: none; stroke-dasharray: 2.96,1.28; stroke-dashoffset: 0; stroke: var(--grid-color); stroke-width: 0.8"/>
     </g>
     <g id="line2d_8">
      <defs>
       <path id="md443d068e3" d="M 0 0 
L -3.5 0 
" style="stroke: var(--fg-color); stroke-width: 0.8"/>
      </defs>
      <g>
       <use xlink:href="#md443d068e3" x="35.96" y="99.567625" style="fill: var(--fg-color); stroke: var(--fg-color); stroke-width: 0.8"/>
      </g>
     </g>
     <g id="text_4">
      <text style="font-size: 7px; font-family: 'DejaVu Sans', 'Bitstream Vera Sans', 'Computer Modern Sans Serif', 'Lucida Grande', 'Verdana', 'Geneva', 'Lucid', 'Arial', 'Helvetica', 'Avant Garde', sans-serif; text-anchor: end; fill: var(--fg-color)" x="28.96" y="102.226805" transform="rotate(-0 28.96 102.226805)">0</text>
     </g>
    </g>
    <g id="ytick_2">
     <g id="line2d_9">
      <path d="M 35.96 73.798911 
L 211 73.798911 
" clip-path="url(#p3893adfe0d)" style="fill: none; stroke-dasharray: 2.96,1.28; stroke-dashoffset: 0; stroke: var(--grid-color); stroke-width: 0.8"/>
     </g>
     <g id="line2d_10">
      <g>
       <use xlink:href="#md443d068e3" x="35.96" y="73.798911" style="fill: var(--fg-color); stroke: var(--fg-color); stroke-width: 0.8"/>
      </g>
     </g>
     <g id="text_5">
      <text style="font-size: 7px; font-family: 'DejaVu Sans', 'Bitstream Vera Sans', 'Computer Modern Sans Serif', 'Lucida Grande', 'Verdana', 'Geneva', 'Lucid', 'Arial', 'Helvetica', 'Avant Garde', sans-serif; text-anchor: end; fill: var(--fg-color)" x="28.96" y="76.458091" transform="rotate(-0 28.96 76.458091)">200</text>
     </g>
    </g>
    <g id="ytick_3">
     <g id="line2d_11">
      <path d="M 35.96 48.030197 
L 211 48.030197 
" clip-path="url(#p3893adfe0d)" style="fill: none; stroke-dasharray: 2.96,1.28; stroke-dashoffset: 0; stroke: var(--grid-color); stroke-width: 0.8"/>
     </g>
     <g id="line2d_12">
      <g>
       <use xlink:href="#md443d068e3" x="35.96" y="48.030197" style="fill: var(--fg-color); stroke: var(--fg-color); stroke-width: 0.8"/>
      </g>
     </g>
     <g id="text_6">
      <text style="font-size: 7px; font-family: 'DejaVu Sans', 'Bitstream Vera Sans', 'Computer Modern Sans Serif', 'Lucida Grande', 'Verdana', 'Geneva', 'Lucid', 'Arial', 'Helvetica', 'Avant Garde', sans-serif; text-anchor: end; fill: var(--fg-color)" x="28.96" y="50.689376" transform="rotate(-0 28.96 50.689376)">400</text>
     </g>
    </g>
    <g id="ytick_4">
     <g id="line2d_13">
      <path d="M 35.96 22.261482 
L 211 22.261482 
" clip-path="url(#p3893adfe0d)" style="fill: none; stroke-dasharray: 2.96,1.28; stroke-dashoffset: 0; stroke: var(--grid-color); stroke-width: 0.8"/>
     </g>
     <g id="line2d_14">
      <g>
       <use xlink:href="#md443d068e3" x="35.96" y="22.261482" style="fill: var(--fg-color); stroke: var(--fg-color); stroke-width: 0.8"/>
      </g>
     </g>
     <g id="text_7">
      <text style="font-size: 7px; font-family: 'DejaVu Sans', 'Bitstream Vera Sans', 'Computer Modern Sans Serif', 'Lucida Grande', 'Verdana', 'Geneva', 'Lucid', 'Arial', 'Helvetica', 'Avant Garde', sans-serif; text-anchor: end; fill: var(--fg-color)" x="28.96" y="24.920662" transform="rotate(-0 28.96 24.920662)">600</text>
     </g>
    </g>
    <g id="text_8">
     <text style="font-size: 7px; font-family: 'DejaVu Sans', 'Bitstream Vera Sans', 'Computer Modern Sans Serif', 'Lucida Grande', 'Verdana', 'Geneva', 'Lucid', 'Arial', 'Helvetica', 'Avant Garde', sans-serif; text-anchor: middle; fill: var(--fg-color)" x="9.917109" y="54.2" transform="rotate(-90 9.917109 54.2)">ms</text>
    </g>
   </g>
   <g id="line2d_15">
    <path d="M 43.916364 89.936955 
L 44.468628 89.922911 
L 45.3595 91.186609 
L 46.250371 90.124293 
L 47.141245 90.239737 
L 48.032112 90.094273 
L 48.922979 85.81628 
L 49.81384 90.522807 
L 50.704717 83.815983 
L 51.595589 90.120686 
L 52.486458 89.788269 
L 53.377327 89.241586 
L 54.268192 91.192922 
L 55.159063 89.694471 
L 56.049934 89.478014 
L 56.940797 88.854282 
L 57.831669 90.779849 
L 58.722538 90.576019 
L 59.613407 89.517182 
L 60.504275 90.353893 
L 61.395144 90.940131 
L 62.286016 90.96023 
L 63.176879 89.325979 
L 64.067746 89.985271 
L 64.958622 90.267696 
L 65.84949 89.70246 
L 66.740361 89.651309 
L 67.631226 90.761038 
L 68.522078 90.014261 
L 69.412965 88.28299 
L 70.30383 89.431373 
L 71.194705 88.180688 
L 72.085571 87.248376 
L 72.976442 89.685323 
L 73.867306 86.601195 
L 74.758184 90.138466 
L 75.649039 89.692925 
L 76.539914 90.765161 
L 77.430784 89.469382 
L 79.212509 90.806134 
L 80.103391 90.240381 
L 80.994245 87.219257 
L 81.885129 89.595648 
L 82.775998 90.474104 
L 83.666869 91.074257 
L 84.557735 90.464054 
L 85.44861 86.479051 
L 94.53997 89.63662 
L 95.248438 88.033806 
L 96.139324 89.037627 
L 97.030192 88.967665 
L 97.921065 90.018642 
L 98.811931 89.190049 
L 99.702798 87.581952 
L 100.593666 89.953833 
L 101.484533 89.122148 
L 102.375401 89.527748 
L 103.266272 87.841443 
L 104.157138 87.165143 
L 105.048009 89.151009 
L 105.93888 89.785306 
L 106.829748 90.279679 
L 107.720614 89.488064 
L 108.611487 90.214355 
L 109.502352 89.544111 
L 110.393224 90.649202 
L 111.284094 88.636279 
L 112.17496 88.607289 
L 113.065834 89.801798 
L 113.956695 88.641304 
L 114.847564 89.150623 
L 115.738441 89.151267 
L 116.629309 88.324478 
L 117.520178 88.653673 
L 118.41104 88.681632 
L 120.192782 89.527619 
L 121.083649 88.252325 
L 121.97452 89.1063 
L 125.537994 89.460234 
L 126.428869 89.150365 
L 127.319734 86.323666 
L 128.210603 88.707014 
L 129.101474 89.216075 
L 129.992342 86.144702 
L 130.883214 89.696275 
L 131.774065 86.159261 
L 132.664946 89.655303 
L 133.55582 88.890487 
L 134.446686 89.671279 
L 136.228424 88.0914 
L 137.119294 88.97707 
L 138.010159 88.213801 
L 140.68277 87.261905 
L 141.57364 87.481454 
L 142.464507 84.611206 
L 143.355376 88.819752 
L 144.246246 87.052405 
L 145.137113 86.763924 
L 146.027984 86.267103 
L 146.918849 89.404058 
L 173.644977 89.404058 
L 181.959197 90.234712 
L 182.553652 87.335603 
L 183.444521 89.367209 
L 184.335387 82.231336 
L 185.226256 89.15758 
L 186.117131 89.690864 
L 187.007996 89.89186 
L 187.898864 89.439361 
L 188.789731 27.024314 
L 189.680603 89.836843 
L 190.571474 18.680791 
L 191.462343 87.924161 
L 192.353215 17.374832 
L 193.244077 82.847466 
L 194.134949 89.796902 
L 195.025817 89.229604 
L 195.916688 9.472727 
L 196.807557 86.648352 
L 197.698426 20.178726 
L 198.589295 24.380186 
L 199.480162 90.171192 
L 200.371032 22.588101 
L 201.261898 84.034631 
L 202.152766 86.530589 
L 203.043636 15.695872 
L 203.043636 15.695872 
" clip-path="url(#p3893adfe0d)" style="fill: none; stroke: #339af0; stroke-width: 1.2; stroke-linecap: square"/>
   </g>
   <g id="line2d_16">
    <path d="M 43.916364 98.748696 
L 44.468628 98.710816 
L 45.3595 98.81621 
L 46.250371 98.646136 
L 47.141245 98.752045 
L 48.032112 98.581972 
L 49.81384 98.65683 
L 50.704717 98.65464 
L 51.595589 98.776655 
L 52.486458 98.639179 
L 54.268192 98.794306 
L 55.159063 98.693679 
L 56.049934 98.739419 
L 56.940797 98.629258 
L 57.831669 98.651805 
L 58.722538 98.791858 
L 59.613407 98.513298 
L 60.504275 98.815823 
L 61.395144 98.527213 
L 62.286016 98.824971 
L 64.067746 98.725504 
L 66.740361 98.824327 
L 68.522078 98.769439 
L 69.412965 98.55878 
L 70.30383 98.728596 
L 71.194705 98.773434 
L 72.085571 98.690845 
L 72.976442 98.735682 
L 73.867306 98.511752 
L 75.649039 98.396824 
L 76.539914 98.673064 
L 77.430784 98.694581 
L 78.321655 98.598979 
L 79.212509 98.827161 
L 80.103391 98.709785 
L 81.885129 98.76712 
L 83.666869 98.723056 
L 84.557735 98.719835 
L 85.44861 98.526569 
L 96.139324 98.77498 
L 97.030192 98.620883 
L 97.921065 98.770857 
L 98.811931 98.714681 
L 102.375401 98.890939 
L 103.266272 98.802037 
L 106.829748 98.901504 
L 109.502352 98.834763 
L 110.393224 98.916063 
L 111.284094 98.814277 
L 112.17496 98.867232 
L 113.065834 98.718288 
L 113.956695 98.884883 
L 116.629309 98.826388 
L 118.41104 98.785416 
L 120.192782 98.318487 
L 121.083649 98.744573 
L 121.97452 98.824584 
L 132.664946 98.850095 
L 133.55582 98.648842 
L 134.446686 98.659278 
L 135.337558 98.784256 
L 136.228424 98.627196 
L 138.010159 98.797012 
L 138.901032 98.622815 
L 139.791912 98.830125 
L 141.57364 98.537263 
L 142.464507 98.808737 
L 145.137113 98.781293 
L 146.027984 98.321193 
L 146.918849 98.837598 
L 189.680603 98.80616 
L 190.571474 96.563122 
L 191.462343 98.877153 
L 192.353215 96.545728 
L 193.244077 98.873545 
L 195.025817 98.675126 
L 196.807557 98.927273 
L 197.698426 96.804446 
L 198.589295 97.414649 
L 199.480162 98.884239 
L 200.371032 97.572869 
L 201.261898 98.898412 
L 202.152766 98.886816 
L 203.043636 97.863669 
L 203.043636 97.863669 
" clip-path="url(#p3893adfe0d)" style="fill: none; stroke: #ff6b6b; stroke-width: 1.2; stroke-linecap: square"/>
   </g>
   <g id="patch_3">
    <path d="M 35.96 103.4 
L 35.96 5 
" style="fill: none; stroke: var(--fg-color); stroke-width: 0.8; stroke-linejoin: miter; stroke-linecap: square"/>
   </g>
   <g id="patch_4">
    <path d="M 35.96 103.4 
L 211 103.4 
" style="fill: none; stroke: var(--fg-color); stroke-width: 0.8; stroke-linejoin: miter; stroke-linecap: square"/>
   </g>
  </g>
 </g>
 <defs>
  <clipPath id="p3893adfe0d">
   <rect x="35.96" y="5" width="175.04" height="98.4"/>
  </clipPath>
 </defs>
</svg>
