<?xml version="1.0" encoding="utf-8" standalone="no"?>
<!DOCTYPE svg PUBLIC "-//W3C//DTD SVG 1.1//EN"
  "http://www.w3.org/Graphics/SVG/1.1/DTD/svg11.dtd">
<svg xmlns:xlink="http://www.w3.org/1999/xlink" width="216pt" height="122.4pt" viewBox="0 0 216 122.4" xmlns="http://www.w3.org/2000/svg" version="1.1">
  <style>
    :root {
      --fg-color: #212529;
      --grid-color: rgba(33, 37, 41, 0.1);
    }
    @media (prefers-color-scheme: dark) {
      :root {
        --fg-color: #dee2e6;
        --grid-color: rgba(248, 249, 250, 0.15);
      }
    }
  </style>

 <metadata>
  <rdf:RDF xmlns:dc="http://purl.org/dc/elements/1.1/" xmlns:cc="http://creativecommons.org/ns#" xmlns:rdf="http://www.w3.org/1999/02/22-rdf-syntax-ns#">
   <cc:Work>
    <dc:type rdf:resource="http://purl.org/dc/dcmitype/StillImage"/>
    <dc:date>2026-06-30T15:37:49.582469</dc:date>
    <dc:format>image/svg+xml</dc:format>
    <dc:creator>
     <cc:Agent>
      <dc:title>Matplotlib v3.11.0, https://matplotlib.org/</dc:title>
     </cc:Agent>
    </dc:creator>
   </cc:Work>
  </rdf:RDF>
 </metadata>
 <defs>
  <style type="text/css">*{stroke-linejoin: round; stroke-linecap: butt}</style>
 </defs>
 <g id="figure_1">
  <g id="patch_1">
   <path d="M 0 122.4 
L 216 122.4 
L 216 0 
L 0 0 
L 0 122.4 
z
" style="fill: none; opacity: 0"/>
  </g>
  <g id="axes_1">
   <g id="patch_2">
    <path d="M 35.96 103.4 
L 211 103.4 
L 211 5 
L 35.96 5 
L 35.96 103.4 
z
" style="fill: none; opacity: 0"/>
   </g>
   <g id="matplotlib.axis_1">
    <g id="xtick_1">
     <g id="line2d_1">
      <path d="M 69.784035 103.4 
L 69.784035 5 
" clip-path="url(#p5864a1aa41)" style="fill: none; stroke-dasharray: 2.96,1.28; stroke-dashoffset: 0; stroke: var(--grid-color); stroke-width: 0.8"/>
     </g>
     <g id="line2d_2">
      <defs>
       <path id="m74c88e735a" d="M 0 0 
L 0 3.5 
" style="stroke: var(--fg-color); stroke-width: 0.8"/>
      </defs>
      <g>
       <use xlink:href="#m74c88e735a" x="69.784035" y="103.4" style="fill: var(--fg-color); stroke: var(--fg-color); stroke-width: 0.8"/>
      </g>
     </g>
     <g id="text_1">
      <text style="font-size: 7px; font-family: 'DejaVu Sans', 'Bitstream Vera Sans', 'Computer Modern Sans Serif', 'Lucida Grande', 'Verdana', 'Geneva', 'Lucid', 'Arial', 'Helvetica', 'Avant Garde', sans-serif; text-anchor: middle; fill: var(--fg-color)" x="69.784035" y="115.718359" transform="rotate(-0 69.784035 115.718359)">02/2026</text>
     </g>
    </g>
    <g id="xtick_2">
     <g id="line2d_3">
      <path d="M 122.345302 103.4 
L 122.345302 5 
" clip-path="url(#p5864a1aa41)" style="fill: none; stroke-dasharray: 2.96,1.28; stroke-dashoffset: 0; stroke: var(--grid-color); stroke-width: 0.8"/>
     </g>
     <g id="line2d_4">
      <g>
       <use xlink:href="#m74c88e735a" x="122.345302" y="103.4" style="fill: var(--fg-color); stroke: var(--fg-color); stroke-width: 0.8"/>
      </g>
     </g>
     <g id="text_2">
      <text style="font-size: 7px; font-family: 'DejaVu Sans', 'Bitstream Vera Sans', 'Computer Modern Sans Serif', 'Lucida Grande', 'Verdana', 'Geneva', 'Lucid', 'Arial', 'Helvetica', 'Avant Garde', sans-serif; text-anchor: middle; fill: var(--fg-color)" x="122.345302" y="115.718359" transform="rotate(-0 122.345302 115.718359)">04/2026</text>
     </g>
    </g>
    <g id="xtick_3">
     <g id="line2d_5">
      <path d="M 176.688307 103.4 
L 176.688307 5 
" clip-path="url(#p5864a1aa41)" style="fill: none; stroke-dasharray: 2.96,1.28; stroke-dashoffset: 0; stroke: var(--grid-color); stroke-width: 0.8"/>
     </g>
     <g id="line2d_6">
      <g>
       <use xlink:href="#m74c88e735a" x="176.688307" y="103.4" style="fill: var(--fg-color); stroke: var(--fg-color); stroke-width: 0.8"/>
      </g>
     </g>
     <g id="text_3">
      <text style="font-size: 7px; font-family: 'DejaVu Sans', 'Bitstream Vera Sans', 'Computer Modern Sans Serif', 'Lucida Grande', 'Verdana', 'Geneva', 'Lucid', 'Arial', 'Helvetica', 'Avant Garde', sans-serif; text-anchor: middle; fill: var(--fg-color)" x="176.688307" y="115.718359" transform="rotate(-0 176.688307 115.718359)">06/2026</text>
     </g>
    </g>
   </g>
   <g id="matplotlib.axis_2">
    <g id="ytick_1">
     <g id="line2d_7">
      <path d="M 35.96 99.401665 
L 211 99.401665 
" clip-path="url(#p5864a1aa41)" style="fill: none; stroke-dasharray: 2.96,1.28; stroke-dashoffset: 0; stroke: var(--grid-color); stroke-width: 0.8"/>
     </g>
     <g id="line2d_8">
      <defs>
       <path id="meb5c8620c1" d="M 0 0 
L -3.5 0 
" style="stroke: var(--fg-color); stroke-width: 0.8"/>
      </defs>
      <g>
       <use xlink:href="#meb5c8620c1" x="35.96" y="99.401665" style="fill: var(--fg-color); stroke: var(--fg-color); stroke-width: 0.8"/>
      </g>
     </g>
     <g id="text_4">
      <text style="font-size: 7px; font-family: 'DejaVu Sans', 'Bitstream Vera Sans', 'Computer Modern Sans Serif', 'Lucida Grande', 'Verdana', 'Geneva', 'Lucid', 'Arial', 'Helvetica', 'Avant Garde', sans-serif; text-anchor: end; fill: var(--fg-color)" x="28.96" y="102.060845" transform="rotate(-0 28.96 102.060845)">0</text>
     </g>
    </g>
    <g id="ytick_2">
     <g id="line2d_9">
      <path d="M 35.96 81.553947 
L 211 81.553947 
" clip-path="url(#p5864a1aa41)" style="fill: none; stroke-dasharray: 2.96,1.28; stroke-dashoffset: 0; stroke: var(--grid-color); stroke-width: 0.8"/>
     </g>
     <g id="line2d_10">
      <g>
       <use xlink:href="#meb5c8620c1" x="35.96" y="81.553947" style="fill: var(--fg-color); stroke: var(--fg-color); stroke-width: 0.8"/>
      </g>
     </g>
     <g id="text_5">
      <text style="font-size: 7px; font-family: 'DejaVu Sans', 'Bitstream Vera Sans', 'Computer Modern Sans Serif', 'Lucida Grande', 'Verdana', 'Geneva', 'Lucid', 'Arial', 'Helvetica', 'Avant Garde', sans-serif; text-anchor: end; fill: var(--fg-color)" x="28.96" y="84.213127" transform="rotate(-0 28.96 84.213127)">50</text>
     </g>
    </g>
    <g id="ytick_3">
     <g id="line2d_11">
      <path d="M 35.96 63.70623 
L 211 63.70623 
" clip-path="url(#p5864a1aa41)" style="fill: none; stroke-dasharray: 2.96,1.28; stroke-dashoffset: 0; stroke: var(--grid-color); stroke-width: 0.8"/>
     </g>
     <g id="line2d_12">
      <g>
       <use xlink:href="#meb5c8620c1" x="35.96" y="63.70623" style="fill: var(--fg-color); stroke: var(--fg-color); stroke-width: 0.8"/>
      </g>
     </g>
     <g id="text_6">
      <text style="font-size: 7px; font-family: 'DejaVu Sans', 'Bitstream Vera Sans', 'Computer Modern Sans Serif', 'Lucida Grande', 'Verdana', 'Geneva', 'Lucid', 'Arial', 'Helvetica', 'Avant Garde', sans-serif; text-anchor: end; fill: var(--fg-color)" x="28.96" y="66.36541" transform="rotate(-0 28.96 66.36541)">100</text>
     </g>
    </g>
    <g id="ytick_4">
     <g id="line2d_13">
      <path d="M 35.96 45.858512 
L 211 45.858512 
" clip-path="url(#p5864a1aa41)" style="fill: none; stroke-dasharray: 2.96,1.28; stroke-dashoffset: 0; stroke: var(--grid-color); stroke-width: 0.8"/>
     </g>
     <g id="line2d_14">
      <g>
       <use xlink:href="#meb5c8620c1" x="35.96" y="45.858512" style="fill: var(--fg-color); stroke: var(--fg-color); stroke-width: 0.8"/>
      </g>
     </g>
     <g id="text_7">
      <text style="font-size: 7px; font-family: 'DejaVu Sans', 'Bitstream Vera Sans', 'Computer Modern Sans Serif', 'Lucida Grande', 'Verdana', 'Geneva', 'Lucid', 'Arial', 'Helvetica', 'Avant Garde', sans-serif; text-anchor: end; fill: var(--fg-color)" x="28.96" y="48.517692" transform="rotate(-0 28.96 48.517692)">150</text>
     </g>
    </g>
    <g id="ytick_5">
     <g id="line2d_15">
      <path d="M 35.96 28.010795 
L 211 28.010795 
" clip-path="url(#p5864a1aa41)" style="fill: none; stroke-dasharray: 2.96,1.28; stroke-dashoffset: 0; stroke: var(--grid-color); stroke-width: 0.8"/>
     </g>
     <g id="line2d_16">
      <g>
       <use xlink:href="#meb5c8620c1" x="35.96" y="28.010795" style="fill: var(--fg-color); stroke: var(--fg-color); stroke-width: 0.8"/>
      </g>
     </g>
     <g id="text_8">
      <text style="font-size: 7px; font-family: 'DejaVu Sans', 'Bitstream Vera Sans', 'Computer Modern Sans Serif', 'Lucida Grande', 'Verdana', 'Geneva', 'Lucid', 'Arial', 'Helvetica', 'Avant Garde', sans-serif; text-anchor: end; fill: var(--fg-color)" x="28.96" y="30.669974" transform="rotate(-0 28.96 30.669974)">200</text>
     </g>
    </g>
    <g id="ytick_6">
     <g id="line2d_17">
      <path d="M 35.96 10.163077 
L 211 10.163077 
" clip-path="url(#p5864a1aa41)" style="fill: none; stroke-dasharray: 2.96,1.28; stroke-dashoffset: 0; stroke: var(--grid-color); stroke-width: 0.8"/>
     </g>
     <g id="line2d_18">
      <g>
       <use xlink:href="#meb5c8620c1" x="35.96" y="10.163077" style="fill: var(--fg-color); stroke: var(--fg-color); stroke-width: 0.8"/>
      </g>
     </g>
     <g id="text_9">
      <text style="font-size: 7px; font-family: 'DejaVu Sans', 'Bitstream Vera Sans', 'Computer Modern Sans Serif', 'Lucida Grande', 'Verdana', 'Geneva', 'Lucid', 'Arial', 'Helvetica', 'Avant Garde', sans-serif; text-anchor: end; fill: var(--fg-color)" x="28.96" y="12.822257" transform="rotate(-0 28.96 12.822257)">250</text>
     </g>
    </g>
    <g id="text_10">
     <text style="font-size: 7px; font-family: 'DejaVu Sans', 'Bitstream Vera Sans', 'Computer Modern Sans Serif', 'Lucida Grande', 'Verdana', 'Geneva', 'Lucid', 'Arial', 'Helvetica', 'Avant Garde', sans-serif; text-anchor: middle; fill: var(--fg-color)" x="9.917109" y="54.2" transform="rotate(-90 9.917109 54.2)">ms</text>
    </g>
   </g>
   <g id="line2d_19">
    <path d="M 43.916364 36.325332 
L 44.468628 48.473203 
L 45.3595 48.888341 
L 46.250371 38.862921 
L 47.141245 39.974834 
L 48.032112 48.225833 
L 48.922979 49.177831 
L 49.81384 36.089386 
L 50.704717 48.89191 
L 51.595589 49.091448 
L 52.486458 48.02344 
L 54.268192 47.894937 
L 55.159063 43.121386 
L 56.049934 46.730552 
L 56.940797 42.093715 
L 57.831669 48.431439 
L 58.722538 45.178871 
L 59.613407 48.846577 
L 60.504275 45.29274 
L 61.395144 38.698722 
L 63.176879 54.501805 
L 64.067746 50.127686 
L 64.958622 42.363929 
L 65.84949 44.124785 
L 66.740361 41.768886 
L 67.631226 46.31113 
L 68.522078 36.749037 
L 69.412965 40.448155 
L 70.30383 41.087103 
L 71.194705 43.72214 
L 72.085571 22.676112 
L 72.976442 47.033606 
L 73.867306 35.849155 
L 74.758184 37.596447 
L 75.649039 50.139466 
L 76.539914 48.932246 
L 77.430784 46.169063 
L 78.321655 42.730521 
L 79.212509 45.949179 
L 80.103391 38.637683 
L 80.994245 40.576302 
L 81.885129 49.234586 
L 82.775998 44.944709 
L 83.666869 37.736373 
L 84.557735 44.515293 
L 85.44861 31.198397 
L 94.53997 46.325409 
L 95.248438 35.825953 
L 96.139324 50.429313 
L 97.030192 27.762711 
L 97.921065 27.129474 
L 99.702798 47.461951 
L 100.593666 45.683605 
L 101.484533 45.71573 
L 102.375401 29.426833 
L 103.266272 46.03342 
L 104.157138 38.77975 
L 105.048009 33.891261 
L 105.93888 27.883005 
L 106.829748 42.500643 
L 107.720614 44.63166 
L 108.611487 47.637216 
L 109.502352 40.658401 
L 110.393224 28.706142 
L 111.284094 36.703347 
L 112.17496 25.492482 
L 113.065834 34.02262 
L 113.956695 47.847462 
L 114.847564 43.219906 
L 115.738441 45.016457 
L 116.629309 37.351219 
L 117.520178 44.732678 
L 118.41104 33.941591 
L 119.301913 42.756579 
L 120.192782 42.377493 
L 121.083649 39.741742 
L 121.97452 40.104051 
L 125.537994 39.712115 
L 126.428869 37.830252 
L 127.319734 38.458135 
L 128.210603 37.457235 
L 129.101474 23.412509 
L 129.992342 40.455294 
L 130.883214 36.893961 
L 131.774065 24.968116 
L 132.664946 45.49192 
L 133.55582 34.549484 
L 134.446686 40.084419 
L 135.337558 36.704061 
L 136.228424 21.442121 
L 137.119294 47.675767 
L 138.010159 42.969681 
L 138.901032 38.956443 
L 139.791912 29.637079 
L 140.68277 40.915408 
L 141.57364 36.328545 
L 142.464507 37.513633 
L 143.355376 46.944724 
L 144.246246 49.242439 
L 145.137113 38.716213 
L 146.918849 45.478713 
L 173.644977 45.478713 
L 181.959197 46.081252 
L 182.553652 39.699979 
L 183.444521 33.047421 
L 184.335387 41.906671 
L 185.226256 9.472727 
L 186.117131 40.915765 
L 187.007996 30.770766 
L 187.898864 47.379852 
L 188.789731 30.22998 
L 189.680603 29.689194 
L 190.571474 38.013369 
L 191.462343 28.625827 
L 192.353215 48.543166 
L 193.244077 38.241106 
L 194.134949 30.272814 
L 195.025817 43.558655 
L 195.916688 27.035595 
L 196.807557 35.600358 
L 197.698426 32.450593 
L 198.589295 37.565035 
L 199.480162 36.699064 
L 200.371032 40.818317 
L 201.261898 51.072544 
L 202.152766 45.263826 
L 203.043636 46.06626 
L 203.043636 46.06626 
" clip-path="url(#p5864a1aa41)" style="fill: none; stroke: #339af0; stroke-width: 1.2; stroke-linecap: square"/>
   </g>
   <g id="line2d_20">
    <path d="M 43.916364 98.867661 
L 47.141245 98.789488 
L 48.922979 98.877656 
L 51.595589 98.856953 
L 56.940797 98.879084 
L 64.958622 98.850528 
L 65.84949 98.687399 
L 66.740361 98.890506 
L 72.085571 98.885509 
L 74.758184 98.89122 
L 80.994245 98.813047 
L 81.885129 98.906926 
L 85.44861 98.80448 
L 97.921065 98.919777 
L 98.811931 98.743084 
L 99.702798 98.921561 
L 103.266272 98.827326 
L 105.048009 98.821257 
L 105.93888 98.395054 
L 106.829748 98.871588 
L 108.611487 98.902286 
L 109.502352 98.663483 
L 110.393224 98.876228 
L 111.284094 98.834822 
L 112.17496 98.588523 
L 113.065834 98.833751 
L 117.520178 98.883367 
L 125.537994 98.830181 
L 127.319734 98.870874 
L 128.210603 98.508208 
L 129.101474 98.758076 
L 130.883214 98.881583 
L 131.774065 98.811976 
L 133.55582 98.821257 
L 137.119294 98.878013 
L 138.010159 98.57246 
L 138.901032 98.880512 
L 140.68277 98.863021 
L 141.57364 98.868375 
L 142.464507 98.499284 
L 143.355376 98.818402 
L 145.137113 98.84553 
L 146.027984 98.703105 
L 146.918849 98.868732 
L 183.444521 98.801625 
L 185.226256 98.684187 
L 186.117131 98.835892 
L 189.680603 98.817331 
L 190.571474 98.410403 
L 191.462343 98.820543 
L 193.244077 98.83732 
L 195.025817 98.864092 
L 195.916688 98.549258 
L 196.807557 98.824113 
L 198.589295 98.7131 
L 200.371032 98.848029 
L 201.261898 98.789845 
L 202.152766 98.88301 
L 203.043636 98.854454 
L 203.043636 98.854454 
" clip-path="url(#p5864a1aa41)" style="fill: none; stroke: #ff6b6b; stroke-width: 1.2; stroke-linecap: square"/>
   </g>
   <g id="patch_3">
    <path d="M 35.96 103.4 
L 35.96 5 
" style="fill: none; stroke: var(--fg-color); stroke-width: 0.8; stroke-linejoin: miter; stroke-linecap: square"/>
   </g>
   <g id="patch_4">
    <path d="M 35.96 103.4 
L 211 103.4 
" style="fill: none; stroke: var(--fg-color); stroke-width: 0.8; stroke-linejoin: miter; stroke-linecap: square"/>
   </g>
  </g>
 </g>
 <defs>
  <clipPath id="p5864a1aa41">
   <rect x="35.96" y="5" width="175.04" height="98.4"/>
  </clipPath>
 </defs>
</svg>
