<?xml version="1.0" encoding="utf-8" standalone="no"?>
<!DOCTYPE svg PUBLIC "-//W3C//DTD SVG 1.1//EN"
  "http://www.w3.org/Graphics/SVG/1.1/DTD/svg11.dtd">
<svg xmlns:xlink="http://www.w3.org/1999/xlink" width="216pt" height="122.4pt" viewBox="0 0 216 122.4" xmlns="http://www.w3.org/2000/svg" version="1.1">
  <style>
    :root {
      --fg-color: #212529;
      --grid-color: rgba(33, 37, 41, 0.1);
    }
    @media (prefers-color-scheme: dark) {
      :root {
        --fg-color: #dee2e6;
        --grid-color: rgba(248, 249, 250, 0.15);
      }
    }
  </style>

 <metadata>
  <rdf:RDF xmlns:dc="http://purl.org/dc/elements/1.1/" xmlns:cc="http://creativecommons.org/ns#" xmlns:rdf="http://www.w3.org/1999/02/22-rdf-syntax-ns#">
   <cc:Work>
    <dc:type rdf:resource="http://purl.org/dc/dcmitype/StillImage"/>
    <dc:date>2026-06-30T15:36:51.501068</dc:date>
    <dc:format>image/svg+xml</dc:format>
    <dc:creator>
     <cc:Agent>
      <dc:title>Matplotlib v3.11.0, https://matplotlib.org/</dc:title>
     </cc:Agent>
    </dc:creator>
   </cc:Work>
  </rdf:RDF>
 </metadata>
 <defs>
  <style type="text/css">*{stroke-linejoin: round; stroke-linecap: butt}</style>
 </defs>
 <g id="figure_1">
  <g id="patch_1">
   <path d="M 0 122.4 
L 216 122.4 
L 216 0 
L 0 0 
L 0 122.4 
z
" style="fill: none; opacity: 0"/>
  </g>
  <g id="axes_1">
   <g id="patch_2">
    <path d="M 31.64 103.4 
L 211 103.4 
L 211 5 
L 31.64 5 
L 31.64 103.4 
z
" style="fill: none; opacity: 0"/>
   </g>
   <g id="matplotlib.axis_1">
    <g id="xtick_1">
     <g id="line2d_1">
      <path d="M 75.518809 103.4 
L 75.518809 5 
" clip-path="url(#p5411a8b416)" style="fill: none; stroke-dasharray: 2.96,1.28; stroke-dashoffset: 0; stroke: var(--grid-color); stroke-width: 0.8"/>
     </g>
     <g id="line2d_2">
      <defs>
       <path id="m1454221b20" d="M 0 0 
L 0 3.5 
" style="stroke: var(--fg-color); stroke-width: 0.8"/>
      </defs>
      <g>
       <use xlink:href="#m1454221b20" x="75.518809" y="103.4" style="fill: var(--fg-color); stroke: var(--fg-color); stroke-width: 0.8"/>
      </g>
     </g>
     <g id="text_1">
      <text style="font-size: 7px; font-family: 'DejaVu Sans', 'Bitstream Vera Sans', 'Computer Modern Sans Serif', 'Lucida Grande', 'Verdana', 'Geneva', 'Lucid', 'Arial', 'Helvetica', 'Avant Garde', sans-serif; text-anchor: middle; fill: var(--fg-color)" x="75.518809" y="115.718359" transform="rotate(-0 75.518809 115.718359)">04/2026</text>
     </g>
    </g>
    <g id="xtick_2">
     <g id="line2d_3">
      <path d="M 161.262975 103.4 
L 161.262975 5 
" clip-path="url(#p5411a8b416)" style="fill: none; stroke-dasharray: 2.96,1.28; stroke-dashoffset: 0; stroke: var(--grid-color); stroke-width: 0.8"/>
     </g>
     <g id="line2d_4">
      <g>
       <use xlink:href="#m1454221b20" x="161.262975" y="103.4" style="fill: var(--fg-color); stroke: var(--fg-color); stroke-width: 0.8"/>
      </g>
     </g>
     <g id="text_2">
      <text style="font-size: 7px; font-family: 'DejaVu Sans', 'Bitstream Vera Sans', 'Computer Modern Sans Serif', 'Lucida Grande', 'Verdana', 'Geneva', 'Lucid', 'Arial', 'Helvetica', 'Avant Garde', sans-serif; text-anchor: middle; fill: var(--fg-color)" x="161.262975" y="115.718359" transform="rotate(-0 161.262975 115.718359)">06/2026</text>
     </g>
    </g>
   </g>
   <g id="matplotlib.axis_2">
    <g id="ytick_1">
     <g id="line2d_5">
      <path d="M 31.64 101.226538 
L 211 101.226538 
" clip-path="url(#p5411a8b416)" style="fill: none; stroke-dasharray: 2.96,1.28; stroke-dashoffset: 0; stroke: var(--grid-color); stroke-width: 0.8"/>
     </g>
     <g id="line2d_6">
      <defs>
       <path id="m6cd88b79da" d="M 0 0 
L -3.5 0 
" style="stroke: var(--fg-color); stroke-width: 0.8"/>
      </defs>
      <g>
       <use xlink:href="#m6cd88b79da" x="31.64" y="101.226538" style="fill: var(--fg-color); stroke: var(--fg-color); stroke-width: 0.8"/>
      </g>
     </g>
     <g id="text_3">
      <text style="font-size: 7px; font-family: 'DejaVu Sans', 'Bitstream Vera Sans', 'Computer Modern Sans Serif', 'Lucida Grande', 'Verdana', 'Geneva', 'Lucid', 'Arial', 'Helvetica', 'Avant Garde', sans-serif; text-anchor: end; fill: var(--fg-color)" x="24.64" y="103.885718" transform="rotate(-0 24.64 103.885718)">0</text>
     </g>
    </g>
    <g id="ytick_2">
     <g id="line2d_7">
      <path d="M 31.64 77.13785 
L 211 77.13785 
" clip-path="url(#p5411a8b416)" style="fill: none; stroke-dasharray: 2.96,1.28; stroke-dashoffset: 0; stroke: var(--grid-color); stroke-width: 0.8"/>
     </g>
     <g id="line2d_8">
      <g>
       <use xlink:href="#m6cd88b79da" x="31.64" y="77.13785" style="fill: var(--fg-color); stroke: var(--fg-color); stroke-width: 0.8"/>
      </g>
     </g>
     <g id="text_4">
      <text style="font-size: 7px; font-family: 'DejaVu Sans', 'Bitstream Vera Sans', 'Computer Modern Sans Serif', 'Lucida Grande', 'Verdana', 'Geneva', 'Lucid', 'Arial', 'Helvetica', 'Avant Garde', sans-serif; text-anchor: end; fill: var(--fg-color)" x="24.64" y="79.79703" transform="rotate(-0 24.64 79.79703)">20</text>
     </g>
    </g>
    <g id="ytick_3">
     <g id="line2d_9">
      <path d="M 31.64 53.049163 
L 211 53.049163 
" clip-path="url(#p5411a8b416)" style="fill: none; stroke-dasharray: 2.96,1.28; stroke-dashoffset: 0; stroke: var(--grid-color); stroke-width: 0.8"/>
     </g>
     <g id="line2d_10">
      <g>
       <use xlink:href="#m6cd88b79da" x="31.64" y="53.049163" style="fill: var(--fg-color); stroke: var(--fg-color); stroke-width: 0.8"/>
      </g>
     </g>
     <g id="text_5">
      <text style="font-size: 7px; font-family: 'DejaVu Sans', 'Bitstream Vera Sans', 'Computer Modern Sans Serif', 'Lucida Grande', 'Verdana', 'Geneva', 'Lucid', 'Arial', 'Helvetica', 'Avant Garde', sans-serif; text-anchor: end; fill: var(--fg-color)" x="24.64" y="55.708343" transform="rotate(-0 24.64 55.708343)">40</text>
     </g>
    </g>
    <g id="ytick_4">
     <g id="line2d_11">
      <path d="M 31.64 28.960475 
L 211 28.960475 
" clip-path="url(#p5411a8b416)" style="fill: none; stroke-dasharray: 2.96,1.28; stroke-dashoffset: 0; stroke: var(--grid-color); stroke-width: 0.8"/>
     </g>
     <g id="line2d_12">
      <g>
       <use xlink:href="#m6cd88b79da" x="31.64" y="28.960475" style="fill: var(--fg-color); stroke: var(--fg-color); stroke-width: 0.8"/>
      </g>
     </g>
     <g id="text_6">
      <text style="font-size: 7px; font-family: 'DejaVu Sans', 'Bitstream Vera Sans', 'Computer Modern Sans Serif', 'Lucida Grande', 'Verdana', 'Geneva', 'Lucid', 'Arial', 'Helvetica', 'Avant Garde', sans-serif; text-anchor: end; fill: var(--fg-color)" x="24.64" y="31.619655" transform="rotate(-0 24.64 31.619655)">60</text>
     </g>
    </g>
    <g id="text_7">
     <text style="font-size: 7px; font-family: 'DejaVu Sans', 'Bitstream Vera Sans', 'Computer Modern Sans Serif', 'Lucida Grande', 'Verdana', 'Geneva', 'Lucid', 'Arial', 'Helvetica', 'Avant Garde', sans-serif; text-anchor: middle; fill: var(--fg-color)" x="10.050859" y="54.2" transform="rotate(-90 10.050859 54.2)">ms</text>
    </g>
   </g>
   <g id="line2d_13">
    <path d="M 39.792727 23.609174 
L 41.198367 29.569919 
L 42.604007 27.0659 
L 44.009647 19.583954 
L 45.415293 25.231547 
L 46.82093 30.78158 
L 48.226575 26.136077 
L 49.63222 29.422978 
L 51.037861 32.170293 
L 52.443498 31.539169 
L 53.849146 24.844923 
L 55.254783 24.272817 
L 56.66043 30.023991 
L 58.066074 31.008014 
L 59.471712 30.682817 
L 60.877362 28.281174 
L 62.28299 26.987612 
L 63.688633 28.564217 
L 65.094287 22.161443 
L 66.499928 29.768651 
L 67.90557 26.351671 
L 69.311202 33.967309 
L 70.716849 29.979427 
L 72.122492 28.246246 
L 73.528132 29.952929 
L 74.933776 27.138166 
L 80.556342 28.90748 
L 81.961994 28.741268 
L 83.36763 28.614803 
L 84.773272 26.479341 
L 86.178917 28.129416 
L 87.584558 33.039895 
L 88.990205 29.22786 
L 90.395818 28.213726 
L 91.801479 26.085491 
L 93.207129 27.041811 
L 94.612766 28.935182 
L 96.018413 22.838336 
L 97.424051 24.712435 
L 98.829694 29.555466 
L 100.235331 22.852789 
L 101.640979 27.658482 
L 103.046638 22.587813 
L 104.452263 16.353661 
L 105.857907 25.388123 
L 107.263546 24.109014 
L 108.669188 25.156872 
L 110.074832 26.692526 
L 111.48047 26.05538 
L 112.886116 24.288475 
L 114.291752 24.259568 
L 156.46111 24.259568 
L 169.579556 23.527272 
L 170.517507 24.829266 
L 171.923149 29.374801 
L 173.328787 26.746725 
L 174.734429 27.24777 
L 176.14008 23.564609 
L 177.545717 28.412458 
L 178.951357 23.829585 
L 180.356996 25.985523 
L 181.762642 28.606372 
L 183.168288 9.472727 
L 184.57393 28.44016 
L 185.979578 30.829758 
L 187.385209 27.010496 
L 188.790855 31.908931 
L 190.196496 27.295947 
L 191.602141 24.501659 
L 193.007783 27.695819 
L 194.413425 30.596097 
L 195.819067 29.751789 
L 197.224707 28.677433 
L 198.63035 27.497088 
L 200.035988 32.823096 
L 201.441628 29.779491 
L 202.847273 28.747291 
" clip-path="url(#p5411a8b416)" style="fill: none; stroke: #339af0; stroke-width: 1.2; stroke-linecap: square"/>
   </g>
   <g id="line2d_14">
    <path d="M 39.792727 98.786354 
L 41.198367 98.793581 
L 42.604007 98.839349 
L 44.009647 98.851393 
L 45.415293 98.745403 
L 46.82093 98.838145 
L 48.226575 98.67675 
L 49.63222 98.781536 
L 51.037861 98.927273 
L 52.443498 98.751425 
L 53.849146 98.6358 
L 55.254783 98.853802 
L 56.66043 98.733359 
L 58.066074 98.811647 
L 59.471712 98.757447 
L 60.877362 98.681568 
L 62.28299 98.886322 
L 63.688633 98.812851 
L 65.094287 98.600871 
L 66.499928 98.762265 
L 67.90557 98.785149 
L 69.311202 98.911615 
L 70.716849 98.628573 
L 72.122492 98.712883 
L 73.528132 98.567147 
L 74.933776 98.622551 
L 80.556342 98.397322 
L 81.961994 96.908641 
L 83.36763 98.499699 
L 84.773272 98.617733 
L 86.178917 98.503312 
L 87.584558 98.833327 
L 88.990205 98.567147 
L 90.395818 98.379255 
L 91.801479 98.444295 
L 93.207129 98.54908 
L 94.612766 98.425024 
L 96.018413 98.564738 
L 97.424051 98.567147 
L 98.829694 98.408162 
L 100.235331 98.364802 
L 101.640979 98.72011 
L 103.046638 98.573169 
L 104.452263 98.029969 
L 105.857907 98.167275 
L 107.263546 98.576782 
L 108.669188 98.540649 
L 110.074832 98.435864 
L 111.48047 98.420206 
L 112.886116 98.276878 
L 114.291752 98.484041 
L 156.46111 98.484041 
L 169.579556 98.576782 
L 170.517507 98.677955 
L 171.923149 98.551489 
L 173.328787 98.704452 
L 174.734429 98.628573 
L 176.14008 98.590031 
L 177.545717 98.616529 
L 178.951357 98.514152 
L 180.356996 98.478019 
L 181.762642 98.691204 
L 183.168288 98.487654 
L 184.57393 98.53824 
L 185.979578 98.749016 
L 187.385209 98.800807 
L 188.790855 98.751425 
L 190.196496 98.5816 
L 191.602141 98.600871 
L 193.007783 98.729745 
L 194.413425 98.8261 
L 195.819067 98.633391 
L 197.224707 98.857416 
L 198.63035 98.728541 
L 200.035988 98.879095 
L 201.441628 98.361189 
L 202.847273 98.685181 
" clip-path="url(#p5411a8b416)" style="fill: none; stroke: #ff6b6b; stroke-width: 1.2; stroke-linecap: square"/>
   </g>
   <g id="patch_3">
    <path d="M 31.64 103.4 
L 31.64 5 
" style="fill: none; stroke: var(--fg-color); stroke-width: 0.8; stroke-linejoin: miter; stroke-linecap: square"/>
   </g>
   <g id="patch_4">
    <path d="M 31.64 103.4 
L 211 103.4 
" style="fill: none; stroke: var(--fg-color); stroke-width: 0.8; stroke-linejoin: miter; stroke-linecap: square"/>
   </g>
  </g>
 </g>
 <defs>
  <clipPath id="p5411a8b416">
   <rect x="31.64" y="5" width="179.36" height="98.4"/>
  </clipPath>
 </defs>
</svg>
