<?xml version="1.0" encoding="utf-8" standalone="no"?>
<!DOCTYPE svg PUBLIC "-//W3C//DTD SVG 1.1//EN"
  "http://www.w3.org/Graphics/SVG/1.1/DTD/svg11.dtd">
<svg xmlns:xlink="http://www.w3.org/1999/xlink" width="216pt" height="122.4pt" viewBox="0 0 216 122.4" xmlns="http://www.w3.org/2000/svg" version="1.1">
  <style>
    :root {
      --fg-color: #212529;
      --grid-color: rgba(33, 37, 41, 0.1);
    }
    @media (prefers-color-scheme: dark) {
      :root {
        --fg-color: #dee2e6;
        --grid-color: rgba(248, 249, 250, 0.15);
      }
    }
  </style>

 <metadata>
  <rdf:RDF xmlns:dc="http://purl.org/dc/elements/1.1/" xmlns:cc="http://creativecommons.org/ns#" xmlns:rdf="http://www.w3.org/1999/02/22-rdf-syntax-ns#">
   <cc:Work>
    <dc:type rdf:resource="http://purl.org/dc/dcmitype/StillImage"/>
    <dc:date>2026-06-30T04:49:03.140208</dc:date>
    <dc:format>image/svg+xml</dc:format>
    <dc:creator>
     <cc:Agent>
      <dc:title>Matplotlib v3.11.0, https://matplotlib.org/</dc:title>
     </cc:Agent>
    </dc:creator>
   </cc:Work>
  </rdf:RDF>
 </metadata>
 <defs>
  <style type="text/css">*{stroke-linejoin: round; stroke-linecap: butt}</style>
 </defs>
 <g id="figure_1">
  <g id="patch_1">
   <path d="M 0 122.4 
L 216 122.4 
L 216 0 
L 0 0 
L 0 122.4 
z
" style="fill: none; opacity: 0"/>
  </g>
  <g id="axes_1">
   <g id="patch_2">
    <path d="M 35.96 103.4 
L 211 103.4 
L 211 5 
L 35.96 5 
L 35.96 103.4 
z
" style="fill: none; opacity: 0"/>
   </g>
   <g id="matplotlib.axis_1">
    <g id="xtick_1">
     <g id="line2d_1">
      <path d="M 70.996911 103.4 
L 70.996911 5 
" clip-path="url(#pb8b57b4097)" style="fill: none; stroke-dasharray: 2.96,1.28; stroke-dashoffset: 0; stroke: var(--grid-color); stroke-width: 0.8"/>
     </g>
     <g id="line2d_2">
      <defs>
       <path id="m31074ba096" d="M 0 0 
L 0 3.5 
" style="stroke: var(--fg-color); stroke-width: 0.8"/>
      </defs>
      <g>
       <use xlink:href="#m31074ba096" x="70.996911" y="103.4" style="fill: var(--fg-color); stroke: var(--fg-color); stroke-width: 0.8"/>
      </g>
     </g>
     <g id="text_1">
      <text style="font-size: 7px; font-family: 'DejaVu Sans', 'Bitstream Vera Sans', 'Computer Modern Sans Serif', 'Lucida Grande', 'Verdana', 'Geneva', 'Lucid', 'Arial', 'Helvetica', 'Avant Garde', sans-serif; text-anchor: middle; fill: var(--fg-color)" x="70.996911" y="115.718359" transform="rotate(-0 70.996911 115.718359)">02/2026</text>
     </g>
    </g>
    <g id="xtick_2">
     <g id="line2d_3">
      <path d="M 126.022656 103.4 
L 126.022656 5 
" clip-path="url(#pb8b57b4097)" style="fill: none; stroke-dasharray: 2.96,1.28; stroke-dashoffset: 0; stroke: var(--grid-color); stroke-width: 0.8"/>
     </g>
     <g id="line2d_4">
      <g>
       <use xlink:href="#m31074ba096" x="126.022656" y="103.4" style="fill: var(--fg-color); stroke: var(--fg-color); stroke-width: 0.8"/>
      </g>
     </g>
     <g id="text_2">
      <text style="font-size: 7px; font-family: 'DejaVu Sans', 'Bitstream Vera Sans', 'Computer Modern Sans Serif', 'Lucida Grande', 'Verdana', 'Geneva', 'Lucid', 'Arial', 'Helvetica', 'Avant Garde', sans-serif; text-anchor: middle; fill: var(--fg-color)" x="126.022656" y="115.718359" transform="rotate(-0 126.022656 115.718359)">04/2026</text>
     </g>
    </g>
    <g id="xtick_3">
     <g id="line2d_5">
      <path d="M 182.913681 103.4 
L 182.913681 5 
" clip-path="url(#pb8b57b4097)" style="fill: none; stroke-dasharray: 2.96,1.28; stroke-dashoffset: 0; stroke: var(--grid-color); stroke-width: 0.8"/>
     </g>
     <g id="line2d_6">
      <g>
       <use xlink:href="#m31074ba096" x="182.913681" y="103.4" style="fill: var(--fg-color); stroke: var(--fg-color); stroke-width: 0.8"/>
      </g>
     </g>
     <g id="text_3">
      <text style="font-size: 7px; font-family: 'DejaVu Sans', 'Bitstream Vera Sans', 'Computer Modern Sans Serif', 'Lucida Grande', 'Verdana', 'Geneva', 'Lucid', 'Arial', 'Helvetica', 'Avant Garde', sans-serif; text-anchor: middle; fill: var(--fg-color)" x="182.913681" y="115.718359" transform="rotate(-0 182.913681 115.718359)">06/2026</text>
     </g>
    </g>
   </g>
   <g id="matplotlib.axis_2">
    <g id="ytick_1">
     <g id="line2d_7">
      <path d="M 35.96 99.427685 
L 211 99.427685 
" clip-path="url(#pb8b57b4097)" style="fill: none; stroke-dasharray: 2.96,1.28; stroke-dashoffset: 0; stroke: var(--grid-color); stroke-width: 0.8"/>
     </g>
     <g id="line2d_8">
      <defs>
       <path id="ma3d2dc8355" d="M 0 0 
L -3.5 0 
" style="stroke: var(--fg-color); stroke-width: 0.8"/>
      </defs>
      <g>
       <use xlink:href="#ma3d2dc8355" x="35.96" y="99.427685" style="fill: var(--fg-color); stroke: var(--fg-color); stroke-width: 0.8"/>
      </g>
     </g>
     <g id="text_4">
      <text style="font-size: 7px; font-family: 'DejaVu Sans', 'Bitstream Vera Sans', 'Computer Modern Sans Serif', 'Lucida Grande', 'Verdana', 'Geneva', 'Lucid', 'Arial', 'Helvetica', 'Avant Garde', sans-serif; text-anchor: end; fill: var(--fg-color)" x="28.96" y="102.086865" transform="rotate(-0 28.96 102.086865)">0</text>
     </g>
    </g>
    <g id="ytick_2">
     <g id="line2d_9">
      <path d="M 35.96 79.803661 
L 211 79.803661 
" clip-path="url(#pb8b57b4097)" style="fill: none; stroke-dasharray: 2.96,1.28; stroke-dashoffset: 0; stroke: var(--grid-color); stroke-width: 0.8"/>
     </g>
     <g id="line2d_10">
      <g>
       <use xlink:href="#ma3d2dc8355" x="35.96" y="79.803661" style="fill: var(--fg-color); stroke: var(--fg-color); stroke-width: 0.8"/>
      </g>
     </g>
     <g id="text_5">
      <text style="font-size: 7px; font-family: 'DejaVu Sans', 'Bitstream Vera Sans', 'Computer Modern Sans Serif', 'Lucida Grande', 'Verdana', 'Geneva', 'Lucid', 'Arial', 'Helvetica', 'Avant Garde', sans-serif; text-anchor: end; fill: var(--fg-color)" x="28.96" y="82.462841" transform="rotate(-0 28.96 82.462841)">50</text>
     </g>
    </g>
    <g id="ytick_3">
     <g id="line2d_11">
      <path d="M 35.96 60.179636 
L 211 60.179636 
" clip-path="url(#pb8b57b4097)" style="fill: none; stroke-dasharray: 2.96,1.28; stroke-dashoffset: 0; stroke: var(--grid-color); stroke-width: 0.8"/>
     </g>
     <g id="line2d_12">
      <g>
       <use xlink:href="#ma3d2dc8355" x="35.96" y="60.179636" style="fill: var(--fg-color); stroke: var(--fg-color); stroke-width: 0.8"/>
      </g>
     </g>
     <g id="text_6">
      <text style="font-size: 7px; font-family: 'DejaVu Sans', 'Bitstream Vera Sans', 'Computer Modern Sans Serif', 'Lucida Grande', 'Verdana', 'Geneva', 'Lucid', 'Arial', 'Helvetica', 'Avant Garde', sans-serif; text-anchor: end; fill: var(--fg-color)" x="28.96" y="62.838816" transform="rotate(-0 28.96 62.838816)">100</text>
     </g>
    </g>
    <g id="ytick_4">
     <g id="line2d_13">
      <path d="M 35.96 40.555612 
L 211 40.555612 
" clip-path="url(#pb8b57b4097)" style="fill: none; stroke-dasharray: 2.96,1.28; stroke-dashoffset: 0; stroke: var(--grid-color); stroke-width: 0.8"/>
     </g>
     <g id="line2d_14">
      <g>
       <use xlink:href="#ma3d2dc8355" x="35.96" y="40.555612" style="fill: var(--fg-color); stroke: var(--fg-color); stroke-width: 0.8"/>
      </g>
     </g>
     <g id="text_7">
      <text style="font-size: 7px; font-family: 'DejaVu Sans', 'Bitstream Vera Sans', 'Computer Modern Sans Serif', 'Lucida Grande', 'Verdana', 'Geneva', 'Lucid', 'Arial', 'Helvetica', 'Avant Garde', sans-serif; text-anchor: end; fill: var(--fg-color)" x="28.96" y="43.214792" transform="rotate(-0 28.96 43.214792)">150</text>
     </g>
    </g>
    <g id="ytick_5">
     <g id="line2d_15">
      <path d="M 35.96 20.931588 
L 211 20.931588 
" clip-path="url(#pb8b57b4097)" style="fill: none; stroke-dasharray: 2.96,1.28; stroke-dashoffset: 0; stroke: var(--grid-color); stroke-width: 0.8"/>
     </g>
     <g id="line2d_16">
      <g>
       <use xlink:href="#ma3d2dc8355" x="35.96" y="20.931588" style="fill: var(--fg-color); stroke: var(--fg-color); stroke-width: 0.8"/>
      </g>
     </g>
     <g id="text_8">
      <text style="font-size: 7px; font-family: 'DejaVu Sans', 'Bitstream Vera Sans', 'Computer Modern Sans Serif', 'Lucida Grande', 'Verdana', 'Geneva', 'Lucid', 'Arial', 'Helvetica', 'Avant Garde', sans-serif; text-anchor: end; fill: var(--fg-color)" x="28.96" y="23.590767" transform="rotate(-0 28.96 23.590767)">200</text>
     </g>
    </g>
    <g id="text_9">
     <text style="font-size: 7px; font-family: 'DejaVu Sans', 'Bitstream Vera Sans', 'Computer Modern Sans Serif', 'Lucida Grande', 'Verdana', 'Geneva', 'Lucid', 'Arial', 'Helvetica', 'Avant Garde', sans-serif; text-anchor: middle; fill: var(--fg-color)" x="9.917109" y="54.2" transform="rotate(-90 9.917109 54.2)">ms</text>
    </g>
   </g>
   <g id="line2d_17">
    <path d="M 43.916364 41.261684 
L 44.494523 39.685875 
L 45.427166 37.430682 
L 46.359808 38.539832 
L 47.292453 33.384601 
L 48.22509 38.431508 
L 49.157727 42.854763 
L 50.090359 34.023559 
L 51.023007 47.559034 
L 51.95565 38.736465 
L 52.88829 45.540114 
L 53.82093 42.990169 
L 54.753566 44.078124 
L 55.686208 36.125292 
L 56.618849 11.172953 
L 57.551483 25.895288 
L 58.484126 45.765791 
L 59.416765 40.320909 
L 60.349406 47.73879 
L 61.282045 30.507327 
L 62.214684 32.517612 
L 63.147327 36.372163 
L 64.07996 40.532063 
L 65.012598 45.593099 
L 65.945245 41.156892 
L 66.877884 25.655875 
L 67.810526 44.249638 
L 68.743162 36.318785 
L 69.675784 36.293274 
L 70.608443 30.860952 
L 71.541078 25.814437 
L 72.473724 38.660716 
L 73.406361 21.176888 
L 74.339003 35.393709 
L 75.271637 30.0442 
L 76.204286 38.495874 
L 77.136912 32.365722 
L 78.069558 47.507226 
L 79.002199 42.884984 
L 79.934841 32.043495 
L 80.867465 39.752597 
L 81.800118 26.722245 
L 82.732742 34.432131 
L 83.665398 46.026398 
L 84.598038 36.617463 
L 85.53068 29.472356 
L 86.463316 39.440183 
L 87.395962 29.619536 
L 96.913595 37.391042 
L 97.655282 32.014844 
L 98.587939 40.0395 
L 99.520578 35.873712 
L 100.453222 25.797953 
L 101.385859 39.428408 
L 102.318497 47.968784 
L 103.251135 48.924866 
L 104.183773 46.812928 
L 105.116412 40.84801 
L 106.049054 35.603293 
L 106.981691 43.143628 
L 107.914333 32.259752 
L 108.846974 41.088601 
L 109.779613 45.981262 
L 110.71225 44.200578 
L 111.644893 44.650753 
L 112.57753 38.398932 
L 113.510173 38.431508 
L 114.442814 40.775401 
L 115.37545 23.697005 
L 116.308095 45.949471 
L 117.240726 38.664641 
L 118.173367 33.151075 
L 119.106014 44.129932 
L 120.038653 39.199199 
L 120.971293 38.026075 
L 121.903926 38.898167 
L 122.836569 42.814337 
L 123.769209 42.40341 
L 124.701847 42.656953 
L 125.634489 36.239112 
L 129.365046 41.14237 
L 130.297692 41.733054 
L 131.230328 38.699964 
L 132.162968 32.79588 
L 133.095609 34.60757 
L 134.028248 17.837664 
L 134.960891 41.95402 
L 135.893512 33.237421 
L 136.826165 40.84958 
L 137.75881 41.642783 
L 138.691446 35.665305 
L 139.624089 42.668727 
L 140.556726 39.358939 
L 141.489366 35.585632 
L 142.422003 43.903471 
L 143.354646 40.69612 
L 144.287298 30.287538 
L 145.219926 38.733325 
L 146.152567 25.326584 
L 147.085204 31.554465 
L 148.017844 41.623944 
L 148.950485 41.341358 
L 149.883123 34.557333 
L 150.815765 37.369848 
L 151.7484 21.44299 
L 179.727656 21.44299 
L 188.43171 22.708739 
L 189.054038 29.521023 
L 189.986678 22.715804 
L 190.919315 18.091206 
L 191.851955 20.62506 
L 192.7846 17.456173 
L 193.717237 29.027283 
L 194.649875 14.638948 
L 195.582513 26.834102 
L 196.515156 26.420035 
L 197.447798 20.942185 
L 198.380437 30.515176 
L 199.313081 14.948223 
L 200.245713 23.215432 
L 201.178356 9.472727 
L 202.110995 34.138556 
L 203.043636 26.382749 
" clip-path="url(#pb8b57b4097)" style="fill: none; stroke: #339af0; stroke-width: 1.2; stroke-linecap: square"/>
   </g>
   <g id="line2d_18">
    <path d="M 43.916364 98.852309 
L 44.494523 98.801679 
L 45.427166 98.882137 
L 46.359808 98.844067 
L 47.292453 98.699242 
L 48.22509 98.771065 
L 49.157727 98.816593 
L 50.090359 98.261626 
L 51.023007 98.875465 
L 51.95565 98.826798 
L 52.88829 98.881353 
L 53.82093 98.843674 
L 54.753566 98.861336 
L 55.686208 98.804034 
L 56.618849 98.842104 
L 57.551483 98.745947 
L 58.484126 98.893519 
L 59.416765 98.856626 
L 60.349406 98.862121 
L 61.282045 98.566583 
L 62.214684 98.873503 
L 63.147327 98.839357 
L 64.07996 98.826013 
L 65.012598 97.882882 
L 65.945245 98.889595 
L 66.877884 98.860944 
L 67.810526 98.880568 
L 68.743162 98.858981 
L 69.675784 98.822088 
L 70.608443 98.827583 
L 71.541078 98.870363 
L 72.473724 98.909219 
L 73.406361 98.857804 
L 74.339003 98.855056 
L 75.271637 98.829153 
L 76.204286 98.864868 
L 77.136912 98.92217 
L 78.069558 98.903724 
L 79.002199 98.857804 
L 79.934841 98.834255 
L 80.867465 98.871148 
L 81.800118 98.834647 
L 82.732742 98.821303 
L 83.665398 98.881353 
L 84.598038 98.840535 
L 85.53068 98.875858 
L 86.463316 98.868008 
L 87.395962 98.897837 
L 96.913595 98.883707 
L 97.655282 98.910396 
L 98.587939 98.58032 
L 99.520578 98.823265 
L 100.453222 98.876643 
L 101.385859 98.87625 
L 102.318497 98.899799 
L 103.251135 98.904509 
L 104.183773 98.927273 
L 105.116412 98.768318 
L 106.049054 98.795007 
L 106.981691 98.764786 
L 107.914333 98.518308 
L 108.846974 98.908826 
L 109.779613 98.913928 
L 110.71225 98.856234 
L 111.644893 98.806389 
L 112.57753 98.863298 
L 113.510173 98.833077 
L 114.442814 98.886847 
L 115.37545 98.816201 
L 116.308095 98.789905 
L 117.240726 98.786372 
L 118.173367 98.844459 
L 119.106014 98.904901 
L 120.038653 98.824835 
L 120.971293 98.87939 
L 121.903926 98.840927 
L 122.836569 98.802856 
L 123.769209 98.851524 
L 124.701847 98.827583 
L 125.634489 98.594057 
L 129.365046 98.819341 
L 130.297692 98.860551 
L 131.230328 98.845244 
L 132.162968 98.756151 
L 133.095609 98.820518 
L 134.028248 98.795792 
L 134.960891 98.861728 
L 135.893512 98.860944 
L 136.826165 98.891557 
L 137.75881 98.791082 
L 138.691446 98.84132 
L 139.624089 98.830723 
L 140.556726 98.8319 
L 141.489366 98.834255 
L 142.422003 98.82876 
L 143.354646 98.645864 
L 144.287298 98.703166 
L 145.219926 98.863691 
L 146.152567 98.814631 
L 147.085204 98.670983 
L 148.017844 98.821303 
L 148.950485 98.764786 
L 149.883123 98.832292 
L 150.815765 98.847599 
L 151.7484 95.238741 
L 179.727656 95.238741 
L 188.43171 98.837395 
L 189.054038 98.83661 
L 189.986678 98.801679 
L 190.919315 98.842889 
L 191.851955 98.831507 
L 192.7846 98.768318 
L 193.717237 98.739275 
L 194.649875 98.847207 
L 195.582513 98.850347 
L 196.515156 98.674515 
L 197.447798 98.786372 
L 198.380437 98.832685 
L 199.313081 98.820518 
L 200.245713 98.736135 
L 201.178356 98.78598 
L 202.110995 98.716118 
L 203.043636 98.820518 
" clip-path="url(#pb8b57b4097)" style="fill: none; stroke: #ff6b6b; stroke-width: 1.2; stroke-linecap: square"/>
   </g>
   <g id="patch_3">
    <path d="M 35.96 103.4 
L 35.96 5 
" style="fill: none; stroke: var(--fg-color); stroke-width: 0.8; stroke-linejoin: miter; stroke-linecap: square"/>
   </g>
   <g id="patch_4">
    <path d="M 35.96 103.4 
L 211 103.4 
" style="fill: none; stroke: var(--fg-color); stroke-width: 0.8; stroke-linejoin: miter; stroke-linecap: square"/>
   </g>
  </g>
 </g>
 <defs>
  <clipPath id="pb8b57b4097">
   <rect x="35.96" y="5" width="175.04" height="98.4"/>
  </clipPath>
 </defs>
</svg>
