<?xml version="1.0" encoding="utf-8" standalone="no"?>
<!DOCTYPE svg PUBLIC "-//W3C//DTD SVG 1.1//EN"
  "http://www.w3.org/Graphics/SVG/1.1/DTD/svg11.dtd">
<svg xmlns:xlink="http://www.w3.org/1999/xlink" width="216pt" height="122.4pt" viewBox="0 0 216 122.4" xmlns="http://www.w3.org/2000/svg" version="1.1">
  <style>
    :root {
      --fg-color: #212529;
      --grid-color: rgba(33, 37, 41, 0.1);
    }
    @media (prefers-color-scheme: dark) {
      :root {
        --fg-color: #dee2e6;
        --grid-color: rgba(248, 249, 250, 0.15);
      }
    }
  </style>

 <metadata>
  <rdf:RDF xmlns:dc="http://purl.org/dc/elements/1.1/" xmlns:cc="http://creativecommons.org/ns#" xmlns:rdf="http://www.w3.org/1999/02/22-rdf-syntax-ns#">
   <cc:Work>
    <dc:type rdf:resource="http://purl.org/dc/dcmitype/StillImage"/>
    <dc:date>2026-06-30T15:36:56.867735</dc:date>
    <dc:format>image/svg+xml</dc:format>
    <dc:creator>
     <cc:Agent>
      <dc:title>Matplotlib v3.11.0, https://matplotlib.org/</dc:title>
     </cc:Agent>
    </dc:creator>
   </cc:Work>
  </rdf:RDF>
 </metadata>
 <defs>
  <style type="text/css">*{stroke-linejoin: round; stroke-linecap: butt}</style>
 </defs>
 <g id="figure_1">
  <g id="patch_1">
   <path d="M 0 122.4 
L 216 122.4 
L 216 0 
L 0 0 
L 0 122.4 
z
" style="fill: none; opacity: 0"/>
  </g>
  <g id="axes_1">
   <g id="patch_2">
    <path d="M 35.96 103.4 
L 211 103.4 
L 211 5 
L 35.96 5 
L 35.96 103.4 
z
" style="fill: none; opacity: 0"/>
   </g>
   <g id="matplotlib.axis_1">
    <g id="xtick_1">
     <g id="line2d_1">
      <path d="M 69.784035 103.4 
L 69.784035 5 
" clip-path="url(#p4163c50da2)" style="fill: none; stroke-dasharray: 2.96,1.28; stroke-dashoffset: 0; stroke: var(--grid-color); stroke-width: 0.8"/>
     </g>
     <g id="line2d_2">
      <defs>
       <path id="m8d47b5f7f3" d="M 0 0 
L 0 3.5 
" style="stroke: var(--fg-color); stroke-width: 0.8"/>
      </defs>
      <g>
       <use xlink:href="#m8d47b5f7f3" x="69.784035" y="103.4" style="fill: var(--fg-color); stroke: var(--fg-color); stroke-width: 0.8"/>
      </g>
     </g>
     <g id="text_1">
      <text style="font-size: 7px; font-family: 'DejaVu Sans', 'Bitstream Vera Sans', 'Computer Modern Sans Serif', 'Lucida Grande', 'Verdana', 'Geneva', 'Lucid', 'Arial', 'Helvetica', 'Avant Garde', sans-serif; text-anchor: middle; fill: var(--fg-color)" x="69.784035" y="115.718359" transform="rotate(-0 69.784035 115.718359)">02/2026</text>
     </g>
    </g>
    <g id="xtick_2">
     <g id="line2d_3">
      <path d="M 122.345302 103.4 
L 122.345302 5 
" clip-path="url(#p4163c50da2)" style="fill: none; stroke-dasharray: 2.96,1.28; stroke-dashoffset: 0; stroke: var(--grid-color); stroke-width: 0.8"/>
     </g>
     <g id="line2d_4">
      <g>
       <use xlink:href="#m8d47b5f7f3" x="122.345302" y="103.4" style="fill: var(--fg-color); stroke: var(--fg-color); stroke-width: 0.8"/>
      </g>
     </g>
     <g id="text_2">
      <text style="font-size: 7px; font-family: 'DejaVu Sans', 'Bitstream Vera Sans', 'Computer Modern Sans Serif', 'Lucida Grande', 'Verdana', 'Geneva', 'Lucid', 'Arial', 'Helvetica', 'Avant Garde', sans-serif; text-anchor: middle; fill: var(--fg-color)" x="122.345302" y="115.718359" transform="rotate(-0 122.345302 115.718359)">04/2026</text>
     </g>
    </g>
    <g id="xtick_3">
     <g id="line2d_5">
      <path d="M 176.688307 103.4 
L 176.688307 5 
" clip-path="url(#p4163c50da2)" style="fill: none; stroke-dasharray: 2.96,1.28; stroke-dashoffset: 0; stroke: var(--grid-color); stroke-width: 0.8"/>
     </g>
     <g id="line2d_6">
      <g>
       <use xlink:href="#m8d47b5f7f3" x="176.688307" y="103.4" style="fill: var(--fg-color); stroke: var(--fg-color); stroke-width: 0.8"/>
      </g>
     </g>
     <g id="text_3">
      <text style="font-size: 7px; font-family: 'DejaVu Sans', 'Bitstream Vera Sans', 'Computer Modern Sans Serif', 'Lucida Grande', 'Verdana', 'Geneva', 'Lucid', 'Arial', 'Helvetica', 'Avant Garde', sans-serif; text-anchor: middle; fill: var(--fg-color)" x="176.688307" y="115.718359" transform="rotate(-0 176.688307 115.718359)">06/2026</text>
     </g>
    </g>
   </g>
   <g id="matplotlib.axis_2">
    <g id="ytick_1">
     <g id="line2d_7">
      <path d="M 35.96 91.131353 
L 211 91.131353 
" clip-path="url(#p4163c50da2)" style="fill: none; stroke-dasharray: 2.96,1.28; stroke-dashoffset: 0; stroke: var(--grid-color); stroke-width: 0.8"/>
     </g>
     <g id="line2d_8">
      <defs>
       <path id="m53fee3885f" d="M 0 0 
L -3.5 0 
" style="stroke: var(--fg-color); stroke-width: 0.8"/>
      </defs>
      <g>
       <use xlink:href="#m53fee3885f" x="35.96" y="91.131353" style="fill: var(--fg-color); stroke: var(--fg-color); stroke-width: 0.8"/>
      </g>
     </g>
     <g id="text_4">
      <text style="font-size: 7px; font-family: 'DejaVu Sans', 'Bitstream Vera Sans', 'Computer Modern Sans Serif', 'Lucida Grande', 'Verdana', 'Geneva', 'Lucid', 'Arial', 'Helvetica', 'Avant Garde', sans-serif; text-anchor: end; fill: var(--fg-color)" x="28.96" y="93.790533" transform="rotate(-0 28.96 93.790533)">200</text>
     </g>
    </g>
    <g id="ytick_2">
     <g id="line2d_9">
      <path d="M 35.96 63.519539 
L 211 63.519539 
" clip-path="url(#p4163c50da2)" style="fill: none; stroke-dasharray: 2.96,1.28; stroke-dashoffset: 0; stroke: var(--grid-color); stroke-width: 0.8"/>
     </g>
     <g id="line2d_10">
      <g>
       <use xlink:href="#m53fee3885f" x="35.96" y="63.519539" style="fill: var(--fg-color); stroke: var(--fg-color); stroke-width: 0.8"/>
      </g>
     </g>
     <g id="text_5">
      <text style="font-size: 7px; font-family: 'DejaVu Sans', 'Bitstream Vera Sans', 'Computer Modern Sans Serif', 'Lucida Grande', 'Verdana', 'Geneva', 'Lucid', 'Arial', 'Helvetica', 'Avant Garde', sans-serif; text-anchor: end; fill: var(--fg-color)" x="28.96" y="66.178719" transform="rotate(-0 28.96 66.178719)">300</text>
     </g>
    </g>
    <g id="ytick_3">
     <g id="line2d_11">
      <path d="M 35.96 35.907726 
L 211 35.907726 
" clip-path="url(#p4163c50da2)" style="fill: none; stroke-dasharray: 2.96,1.28; stroke-dashoffset: 0; stroke: var(--grid-color); stroke-width: 0.8"/>
     </g>
     <g id="line2d_12">
      <g>
       <use xlink:href="#m53fee3885f" x="35.96" y="35.907726" style="fill: var(--fg-color); stroke: var(--fg-color); stroke-width: 0.8"/>
      </g>
     </g>
     <g id="text_6">
      <text style="font-size: 7px; font-family: 'DejaVu Sans', 'Bitstream Vera Sans', 'Computer Modern Sans Serif', 'Lucida Grande', 'Verdana', 'Geneva', 'Lucid', 'Arial', 'Helvetica', 'Avant Garde', sans-serif; text-anchor: end; fill: var(--fg-color)" x="28.96" y="38.566905" transform="rotate(-0 28.96 38.566905)">400</text>
     </g>
    </g>
    <g id="ytick_4">
     <g id="line2d_13">
      <path d="M 35.96 8.295912 
L 211 8.295912 
" clip-path="url(#p4163c50da2)" style="fill: none; stroke-dasharray: 2.96,1.28; stroke-dashoffset: 0; stroke: var(--grid-color); stroke-width: 0.8"/>
     </g>
     <g id="line2d_14">
      <g>
       <use xlink:href="#m53fee3885f" x="35.96" y="8.295912" style="fill: var(--fg-color); stroke: var(--fg-color); stroke-width: 0.8"/>
      </g>
     </g>
     <g id="text_7">
      <text style="font-size: 7px; font-family: 'DejaVu Sans', 'Bitstream Vera Sans', 'Computer Modern Sans Serif', 'Lucida Grande', 'Verdana', 'Geneva', 'Lucid', 'Arial', 'Helvetica', 'Avant Garde', sans-serif; text-anchor: end; fill: var(--fg-color)" x="28.96" y="10.955091" transform="rotate(-0 28.96 10.955091)">500</text>
     </g>
    </g>
    <g id="text_8">
     <text style="font-size: 7px; font-family: 'DejaVu Sans', 'Bitstream Vera Sans', 'Computer Modern Sans Serif', 'Lucida Grande', 'Verdana', 'Geneva', 'Lucid', 'Arial', 'Helvetica', 'Avant Garde', sans-serif; text-anchor: middle; fill: var(--fg-color)" x="9.917109" y="54.2" transform="rotate(-90 9.917109 54.2)">ms</text>
    </g>
   </g>
   <g id="line2d_15">
    <path d="M 43.916364 69.165327 
L 44.468628 74.957457 
L 45.3595 76.17431 
L 46.250371 74.799518 
L 47.141245 74.23955 
L 48.032112 68.756672 
L 48.922979 77.263596 
L 50.704717 69.073656 
L 51.595589 70.696954 
L 52.486458 68.710008 
L 53.377327 72.269447 
L 54.268192 72.417723 
L 55.159063 68.589621 
L 56.049934 55.578658 
L 56.940797 72.266686 
L 57.831669 71.887852 
L 59.613407 69.753459 
L 60.504275 78.57212 
L 61.395144 75.867543 
L 62.286016 66.849524 
L 63.176879 76.688718 
L 64.067746 77.446662 
L 65.84949 73.871761 
L 66.740361 70.02792 
L 67.631226 69.905876 
L 68.522078 72.32826 
L 69.412965 67.887452 
L 70.30383 75.514387 
L 71.194705 60.625821 
L 72.085571 71.126042 
L 72.976442 75.726722 
L 73.867306 69.916092 
L 74.758184 68.797814 
L 75.649039 74.601817 
L 76.539914 67.265634 
L 77.430784 75.868371 
L 78.321655 74.495512 
L 79.212509 69.665101 
L 80.103391 72.045791 
L 80.994245 65.222636 
L 81.885129 75.694969 
L 82.775998 78.54506 
L 83.666869 68.743142 
L 84.557735 78.106308 
L 85.44861 73.605583 
L 94.53997 58.149594 
L 95.248438 59.424984 
L 96.139324 67.101896 
L 97.030192 59.303215 
L 97.921065 72.44064 
L 98.811931 67.672356 
L 99.702798 70.126218 
L 100.593666 68.814381 
L 101.484533 73.509218 
L 102.375401 73.869828 
L 103.266272 67.755192 
L 104.157138 73.285562 
L 105.048009 67.491223 
L 105.93888 68.785665 
L 106.829748 79.253303 
L 107.720614 71.311593 
L 108.611487 72.694669 
L 109.502352 55.318555 
L 110.393224 65.816842 
L 111.284094 68.617785 
L 112.17496 73.960947 
L 113.065834 70.309008 
L 113.956695 71.684905 
L 114.847564 75.532335 
L 115.738441 71.241735 
L 116.629309 75.494507 
L 117.520178 31.619887 
L 118.41104 68.991096 
L 119.301913 74.424825 
L 120.192782 50.450592 
L 121.083649 67.227806 
L 121.97452 74.479497 
L 125.537994 71.788173 
L 126.428869 66.32987 
L 127.319734 69.419908 
L 128.210603 75.959766 
L 129.101474 70.629305 
L 130.883214 71.134049 
L 131.774065 69.34508 
L 132.664946 70.747484 
L 133.55582 71.200318 
L 134.446686 69.146275 
L 135.337558 68.648986 
L 137.119294 69.298692 
L 138.010159 70.913983 
L 138.901032 66.251728 
L 139.791912 72.085829 
L 140.68277 9.472727 
L 141.57364 55.900612 
L 142.464507 66.207826 
L 143.355376 64.809011 
L 144.246246 55.022832 
L 145.137113 64.932988 
L 146.027984 65.24224 
L 146.918849 63.786822 
L 173.644977 63.786822 
L 181.959197 69.502467 
L 182.553652 70.072099 
L 183.444521 72.78137 
L 184.335387 62.801356 
L 185.226256 71.826554 
L 186.117131 62.528275 
L 187.007996 59.975563 
L 188.789731 69.535601 
L 189.680603 69.420184 
L 190.571474 68.624135 
L 191.462343 30.337594 
L 192.353215 66.17193 
L 193.244077 68.991373 
L 194.134949 70.540671 
L 195.025817 72.447267 
L 195.916688 72.512707 
L 196.807557 68.160533 
L 197.698426 70.745275 
L 198.589295 75.390687 
L 199.480162 72.754587 
L 200.371032 62.952669 
L 201.261898 66.618413 
L 202.152766 65.018309 
L 203.043636 73.458688 
L 203.043636 73.458688 
" clip-path="url(#p4163c50da2)" style="fill: none; stroke: #339af0; stroke-width: 1.2; stroke-linecap: square"/>
   </g>
   <g id="line2d_16">
    <path d="M 43.916364 94.501099 
L 44.468628 96.152838 
L 45.3595 96.646813 
L 46.250371 95.363968 
L 47.141245 96.639358 
L 48.032112 95.438796 
L 48.922979 95.637325 
L 49.81384 95.620758 
L 50.704717 94.887112 
L 51.595589 93.618073 
L 52.486458 94.155123 
L 53.377327 95.185596 
L 54.268192 95.135342 
L 55.159063 92.604443 
L 56.049934 82.979241 
L 56.940797 95.474692 
L 57.831669 95.301289 
L 58.722538 89.593927 
L 59.613407 93.371224 
L 60.504275 96.116942 
L 61.395144 93.848632 
L 62.286016 93.265746 
L 63.176879 96.431993 
L 64.067746 98.301865 
L 64.958622 96.702313 
L 65.84949 93.091516 
L 66.740361 94.596636 
L 67.631226 96.596283 
L 68.522078 94.141869 
L 69.412965 93.658939 
L 70.30383 97.376317 
L 71.194705 94.646889 
L 72.085571 92.69363 
L 72.976442 92.320594 
L 73.867306 92.786405 
L 74.758184 95.97198 
L 75.649039 96.461814 
L 76.539914 94.099623 
L 77.430784 95.946301 
L 78.321655 98.115485 
L 79.212509 94.657658 
L 80.103391 94.993141 
L 80.994245 94.469345 
L 81.885129 97.279676 
L 82.775998 94.211727 
L 83.666869 94.802344 
L 84.557735 95.869817 
L 85.44861 95.461438 
L 94.53997 94.321898 
L 95.248438 96.484732 
L 96.139324 95.910406 
L 97.030192 95.195812 
L 97.921065 94.688031 
L 98.811931 94.694934 
L 99.702798 93.082956 
L 100.593666 95.490154 
L 101.484533 94.813941 
L 102.375401 95.383296 
L 103.266272 94.052683 
L 104.157138 95.519147 
L 105.048009 91.360531 
L 105.93888 93.742326 
L 106.829748 97.007147 
L 107.720614 95.465856 
L 108.611487 95.015231 
L 109.502352 94.249831 
L 110.393224 92.870621 
L 111.284094 92.756585 
L 112.17496 96.059234 
L 113.065834 93.725483 
L 113.956695 89.719009 
L 114.847564 96.727163 
L 115.738441 95.029313 
L 116.629309 96.544373 
L 118.41104 93.666394 
L 120.192782 95.687026 
L 121.083649 95.385229 
L 121.97452 98.222343 
L 125.537994 97.100199 
L 126.428869 92.990733 
L 127.319734 96.57806 
L 128.210603 97.816449 
L 129.101474 95.248275 
L 129.992342 92.23693 
L 130.883214 94.76562 
L 131.774065 94.537823 
L 134.446686 97.789666 
L 135.337558 89.046937 
L 136.228424 95.759093 
L 137.119294 93.673849 
L 138.010159 93.530268 
L 138.901032 95.726787 
L 139.791912 96.832088 
L 140.68277 93.769662 
L 141.57364 94.777493 
L 142.464507 95.434931 
L 143.355376 95.633459 
L 144.246246 91.771119 
L 145.137113 95.696414 
L 146.027984 91.741022 
L 146.918849 88.323508 
L 173.644977 88.323508 
L 181.959197 95.640639 
L 182.553652 96.758641 
L 183.444521 95.626004 
L 184.335387 97.055192 
L 185.226256 94.943164 
L 186.117131 96.148696 
L 187.007996 98.026851 
L 187.898864 94.387891 
L 188.789731 96.850036 
L 189.680603 98.810751 
L 190.571474 95.077081 
L 191.462343 96.589657 
L 192.353215 92.402601 
L 193.244077 97.793808 
L 194.134949 97.481518 
L 195.025817 97.474063 
L 195.916688 98.927273 
L 196.807557 95.183663 
L 197.698426 97.339041 
L 198.589295 97.609913 
L 199.480162 95.894391 
L 200.371032 93.917661 
L 201.261898 91.238211 
L 202.152766 95.068522 
L 203.043636 96.898633 
L 203.043636 96.898633 
" clip-path="url(#p4163c50da2)" style="fill: none; stroke: #ff6b6b; stroke-width: 1.2; stroke-linecap: square"/>
   </g>
   <g id="patch_3">
    <path d="M 35.96 103.4 
L 35.96 5 
" style="fill: none; stroke: var(--fg-color); stroke-width: 0.8; stroke-linejoin: miter; stroke-linecap: square"/>
   </g>
   <g id="patch_4">
    <path d="M 35.96 103.4 
L 211 103.4 
" style="fill: none; stroke: var(--fg-color); stroke-width: 0.8; stroke-linejoin: miter; stroke-linecap: square"/>
   </g>
  </g>
 </g>
 <defs>
  <clipPath id="p4163c50da2">
   <rect x="35.96" y="5" width="175.04" height="98.4"/>
  </clipPath>
 </defs>
</svg>
