<?xml version="1.0" encoding="utf-8" standalone="no"?>
<!DOCTYPE svg PUBLIC "-//W3C//DTD SVG 1.1//EN"
  "http://www.w3.org/Graphics/SVG/1.1/DTD/svg11.dtd">
<svg xmlns:xlink="http://www.w3.org/1999/xlink" width="216pt" height="122.4pt" viewBox="0 0 216 122.4" xmlns="http://www.w3.org/2000/svg" version="1.1">
  <style>
    :root {
      --fg-color: #212529;
      --grid-color: rgba(33, 37, 41, 0.1);
    }
    @media (prefers-color-scheme: dark) {
      :root {
        --fg-color: #dee2e6;
        --grid-color: rgba(248, 249, 250, 0.15);
      }
    }
  </style>

 <metadata>
  <rdf:RDF xmlns:dc="http://purl.org/dc/elements/1.1/" xmlns:cc="http://creativecommons.org/ns#" xmlns:rdf="http://www.w3.org/1999/02/22-rdf-syntax-ns#">
   <cc:Work>
    <dc:type rdf:resource="http://purl.org/dc/dcmitype/StillImage"/>
    <dc:date>2026-06-30T15:37:34.905206</dc:date>
    <dc:format>image/svg+xml</dc:format>
    <dc:creator>
     <cc:Agent>
      <dc:title>Matplotlib v3.11.0, https://matplotlib.org/</dc:title>
     </cc:Agent>
    </dc:creator>
   </cc:Work>
  </rdf:RDF>
 </metadata>
 <defs>
  <style type="text/css">*{stroke-linejoin: round; stroke-linecap: butt}</style>
 </defs>
 <g id="figure_1">
  <g id="patch_1">
   <path d="M 0 122.4 
L 216 122.4 
L 216 0 
L 0 0 
L 0 122.4 
z
" style="fill: none; opacity: 0"/>
  </g>
  <g id="axes_1">
   <g id="patch_2">
    <path d="M 35.96 103.4 
L 211 103.4 
L 211 5 
L 35.96 5 
L 35.96 103.4 
z
" style="fill: none; opacity: 0"/>
   </g>
   <g id="matplotlib.axis_1">
    <g id="xtick_1">
     <g id="line2d_1">
      <path d="M 69.784035 103.4 
L 69.784035 5 
" clip-path="url(#p3cc6fc8f6c)" style="fill: none; stroke-dasharray: 2.96,1.28; stroke-dashoffset: 0; stroke: var(--grid-color); stroke-width: 0.8"/>
     </g>
     <g id="line2d_2">
      <defs>
       <path id="mdf833a286e" d="M 0 0 
L 0 3.5 
" style="stroke: var(--fg-color); stroke-width: 0.8"/>
      </defs>
      <g>
       <use xlink:href="#mdf833a286e" x="69.784035" y="103.4" style="fill: var(--fg-color); stroke: var(--fg-color); stroke-width: 0.8"/>
      </g>
     </g>
     <g id="text_1">
      <text style="font-size: 7px; font-family: 'DejaVu Sans', 'Bitstream Vera Sans', 'Computer Modern Sans Serif', 'Lucida Grande', 'Verdana', 'Geneva', 'Lucid', 'Arial', 'Helvetica', 'Avant Garde', sans-serif; text-anchor: middle; fill: var(--fg-color)" x="69.784035" y="115.718359" transform="rotate(-0 69.784035 115.718359)">02/2026</text>
     </g>
    </g>
    <g id="xtick_2">
     <g id="line2d_3">
      <path d="M 122.345302 103.4 
L 122.345302 5 
" clip-path="url(#p3cc6fc8f6c)" style="fill: none; stroke-dasharray: 2.96,1.28; stroke-dashoffset: 0; stroke: var(--grid-color); stroke-width: 0.8"/>
     </g>
     <g id="line2d_4">
      <g>
       <use xlink:href="#mdf833a286e" x="122.345302" y="103.4" style="fill: var(--fg-color); stroke: var(--fg-color); stroke-width: 0.8"/>
      </g>
     </g>
     <g id="text_2">
      <text style="font-size: 7px; font-family: 'DejaVu Sans', 'Bitstream Vera Sans', 'Computer Modern Sans Serif', 'Lucida Grande', 'Verdana', 'Geneva', 'Lucid', 'Arial', 'Helvetica', 'Avant Garde', sans-serif; text-anchor: middle; fill: var(--fg-color)" x="122.345302" y="115.718359" transform="rotate(-0 122.345302 115.718359)">04/2026</text>
     </g>
    </g>
    <g id="xtick_3">
     <g id="line2d_5">
      <path d="M 176.688307 103.4 
L 176.688307 5 
" clip-path="url(#p3cc6fc8f6c)" style="fill: none; stroke-dasharray: 2.96,1.28; stroke-dashoffset: 0; stroke: var(--grid-color); stroke-width: 0.8"/>
     </g>
     <g id="line2d_6">
      <g>
       <use xlink:href="#mdf833a286e" x="176.688307" y="103.4" style="fill: var(--fg-color); stroke: var(--fg-color); stroke-width: 0.8"/>
      </g>
     </g>
     <g id="text_3">
      <text style="font-size: 7px; font-family: 'DejaVu Sans', 'Bitstream Vera Sans', 'Computer Modern Sans Serif', 'Lucida Grande', 'Verdana', 'Geneva', 'Lucid', 'Arial', 'Helvetica', 'Avant Garde', sans-serif; text-anchor: middle; fill: var(--fg-color)" x="176.688307" y="115.718359" transform="rotate(-0 176.688307 115.718359)">06/2026</text>
     </g>
    </g>
   </g>
   <g id="matplotlib.axis_2">
    <g id="ytick_1">
     <g id="line2d_7">
      <path d="M 35.96 99.623384 
L 211 99.623384 
" clip-path="url(#p3cc6fc8f6c)" style="fill: none; stroke-dasharray: 2.96,1.28; stroke-dashoffset: 0; stroke: var(--grid-color); stroke-width: 0.8"/>
     </g>
     <g id="line2d_8">
      <defs>
       <path id="mc4bffadea4" d="M 0 0 
L -3.5 0 
" style="stroke: var(--fg-color); stroke-width: 0.8"/>
      </defs>
      <g>
       <use xlink:href="#mc4bffadea4" x="35.96" y="99.623384" style="fill: var(--fg-color); stroke: var(--fg-color); stroke-width: 0.8"/>
      </g>
     </g>
     <g id="text_4">
      <text style="font-size: 7px; font-family: 'DejaVu Sans', 'Bitstream Vera Sans', 'Computer Modern Sans Serif', 'Lucida Grande', 'Verdana', 'Geneva', 'Lucid', 'Arial', 'Helvetica', 'Avant Garde', sans-serif; text-anchor: end; fill: var(--fg-color)" x="28.96" y="102.282564" transform="rotate(-0 28.96 102.282564)">0</text>
     </g>
    </g>
    <g id="ytick_2">
     <g id="line2d_9">
      <path d="M 35.96 76.687262 
L 211 76.687262 
" clip-path="url(#p3cc6fc8f6c)" style="fill: none; stroke-dasharray: 2.96,1.28; stroke-dashoffset: 0; stroke: var(--grid-color); stroke-width: 0.8"/>
     </g>
     <g id="line2d_10">
      <g>
       <use xlink:href="#mc4bffadea4" x="35.96" y="76.687262" style="fill: var(--fg-color); stroke: var(--fg-color); stroke-width: 0.8"/>
      </g>
     </g>
     <g id="text_5">
      <text style="font-size: 7px; font-family: 'DejaVu Sans', 'Bitstream Vera Sans', 'Computer Modern Sans Serif', 'Lucida Grande', 'Verdana', 'Geneva', 'Lucid', 'Arial', 'Helvetica', 'Avant Garde', sans-serif; text-anchor: end; fill: var(--fg-color)" x="28.96" y="79.346442" transform="rotate(-0 28.96 79.346442)">100</text>
     </g>
    </g>
    <g id="ytick_3">
     <g id="line2d_11">
      <path d="M 35.96 53.75114 
L 211 53.75114 
" clip-path="url(#p3cc6fc8f6c)" style="fill: none; stroke-dasharray: 2.96,1.28; stroke-dashoffset: 0; stroke: var(--grid-color); stroke-width: 0.8"/>
     </g>
     <g id="line2d_12">
      <g>
       <use xlink:href="#mc4bffadea4" x="35.96" y="53.75114" style="fill: var(--fg-color); stroke: var(--fg-color); stroke-width: 0.8"/>
      </g>
     </g>
     <g id="text_6">
      <text style="font-size: 7px; font-family: 'DejaVu Sans', 'Bitstream Vera Sans', 'Computer Modern Sans Serif', 'Lucida Grande', 'Verdana', 'Geneva', 'Lucid', 'Arial', 'Helvetica', 'Avant Garde', sans-serif; text-anchor: end; fill: var(--fg-color)" x="28.96" y="56.41032" transform="rotate(-0 28.96 56.41032)">200</text>
     </g>
    </g>
    <g id="ytick_4">
     <g id="line2d_13">
      <path d="M 35.96 30.815018 
L 211 30.815018 
" clip-path="url(#p3cc6fc8f6c)" style="fill: none; stroke-dasharray: 2.96,1.28; stroke-dashoffset: 0; stroke: var(--grid-color); stroke-width: 0.8"/>
     </g>
     <g id="line2d_14">
      <g>
       <use xlink:href="#mc4bffadea4" x="35.96" y="30.815018" style="fill: var(--fg-color); stroke: var(--fg-color); stroke-width: 0.8"/>
      </g>
     </g>
     <g id="text_7">
      <text style="font-size: 7px; font-family: 'DejaVu Sans', 'Bitstream Vera Sans', 'Computer Modern Sans Serif', 'Lucida Grande', 'Verdana', 'Geneva', 'Lucid', 'Arial', 'Helvetica', 'Avant Garde', sans-serif; text-anchor: end; fill: var(--fg-color)" x="28.96" y="33.474198" transform="rotate(-0 28.96 33.474198)">300</text>
     </g>
    </g>
    <g id="ytick_5">
     <g id="line2d_15">
      <path d="M 35.96 7.878896 
L 211 7.878896 
" clip-path="url(#p3cc6fc8f6c)" style="fill: none; stroke-dasharray: 2.96,1.28; stroke-dashoffset: 0; stroke: var(--grid-color); stroke-width: 0.8"/>
     </g>
     <g id="line2d_16">
      <g>
       <use xlink:href="#mc4bffadea4" x="35.96" y="7.878896" style="fill: var(--fg-color); stroke: var(--fg-color); stroke-width: 0.8"/>
      </g>
     </g>
     <g id="text_8">
      <text style="font-size: 7px; font-family: 'DejaVu Sans', 'Bitstream Vera Sans', 'Computer Modern Sans Serif', 'Lucida Grande', 'Verdana', 'Geneva', 'Lucid', 'Arial', 'Helvetica', 'Avant Garde', sans-serif; text-anchor: end; fill: var(--fg-color)" x="28.96" y="10.538076" transform="rotate(-0 28.96 10.538076)">400</text>
     </g>
    </g>
    <g id="text_9">
     <text style="font-size: 7px; font-family: 'DejaVu Sans', 'Bitstream Vera Sans', 'Computer Modern Sans Serif', 'Lucida Grande', 'Verdana', 'Geneva', 'Lucid', 'Arial', 'Helvetica', 'Avant Garde', sans-serif; text-anchor: middle; fill: var(--fg-color)" x="9.917109" y="54.2" transform="rotate(-90 9.917109 54.2)">ms</text>
    </g>
   </g>
   <g id="line2d_17">
    <path d="M 43.916364 14.989553 
L 44.468628 48.753818 
L 46.250371 39.4929 
L 47.141245 27.326663 
L 48.032112 9.472727 
L 48.922979 44.974174 
L 50.704717 38.334396 
L 51.595589 39.702077 
L 52.486458 36.795612 
L 53.377327 48.335004 
L 54.268192 37.812829 
L 55.159063 43.95971 
L 56.049934 34.602689 
L 56.940797 41.519306 
L 57.831669 47.30609 
L 58.722538 45.056744 
L 59.613407 42.430788 
L 60.504275 44.534489 
L 61.395144 50.167142 
L 62.286016 31.443697 
L 63.176879 44.109712 
L 64.067746 55.126619 
L 64.958622 45.516155 
L 65.84949 44.22164 
L 66.740361 28.189979 
L 67.631226 45.678543 
L 68.522078 35.178615 
L 69.412965 48.793039 
L 70.30383 36.224502 
L 71.194705 38.468114 
L 72.085571 46.132907 
L 72.976442 29.191599 
L 73.867306 48.063899 
L 74.758184 44.297559 
L 75.649039 42.361521 
L 76.539914 44.358798 
L 77.430784 50.3543 
L 78.321655 46.241854 
L 79.212509 41.549811 
L 80.103391 19.778156 
L 81.885129 48.430419 
L 82.775998 38.790596 
L 83.666869 32.389583 
L 84.557735 41.760136 
L 85.44861 37.337134 
L 94.53997 45.086332 
L 95.248438 47.863667 
L 96.139324 41.425727 
L 97.030192 42.273675 
L 97.921065 27.708091 
L 98.811931 46.048044 
L 99.702798 43.228506 
L 100.593666 31.743702 
L 101.484533 46.794156 
L 102.375401 22.535307 
L 103.266272 45.720286 
L 104.157138 44.457194 
L 105.048009 45.108351 
L 105.93888 32.601742 
L 106.829748 22.754347 
L 107.720614 31.890034 
L 108.611487 34.715764 
L 109.502352 26.202335 
L 110.393224 44.613389 
L 112.17496 40.978014 
L 113.065834 23.211694 
L 113.956695 52.075656 
L 114.847564 38.908946 
L 115.738441 40.994069 
L 116.629309 48.816892 
L 118.41104 31.835217 
L 119.301913 45.605835 
L 120.192782 47.11205 
L 121.083649 46.154926 
L 121.97452 27.375288 
L 125.537994 40.360115 
L 126.428869 28.487002 
L 127.319734 19.414619 
L 128.210603 36.296293 
L 129.101474 48.226058 
L 129.992342 31.09094 
L 130.883214 29.995052 
L 131.774065 43.357866 
L 132.664946 48.53753 
L 133.55582 31.52168 
L 134.446686 49.138686 
L 135.337558 38.173385 
L 136.228424 24.697266 
L 137.119294 37.534843 
L 138.010159 40.672275 
L 138.901032 32.944866 
L 139.791912 34.379062 
L 140.68277 32.190039 
L 141.57364 22.123833 
L 142.464507 45.096424 
L 143.355376 34.941456 
L 144.246246 40.439015 
L 145.137113 30.633593 
L 146.027984 40.658055 
L 146.918849 31.908612 
L 173.644977 31.908612 
L 181.959197 43.507639 
L 182.553652 32.213433 
L 183.444521 29.649404 
L 184.335387 50.466229 
L 185.226256 38.799541 
L 186.117131 48.660468 
L 187.007996 36.066931 
L 187.898864 33.307716 
L 188.789731 50.797885 
L 189.680603 43.14823 
L 190.571474 42.106471 
L 191.462343 36.726574 
L 192.353215 30.251019 
L 193.244077 46.204009 
L 194.134949 38.726145 
L 195.025817 40.671817 
L 195.916688 52.056849 
L 196.807557 47.977659 
L 197.698426 18.405888 
L 198.589295 50.288015 
L 199.480162 17.391194 
L 201.261898 56.361959 
L 202.152766 47.722151 
L 203.043636 54.552528 
L 203.043636 54.552528 
" clip-path="url(#p3cc6fc8f6c)" style="fill: none; stroke: #339af0; stroke-width: 1.2; stroke-linecap: square"/>
   </g>
   <g id="line2d_18">
    <path d="M 43.916364 96.460952 
L 44.468628 96.959124 
L 45.3595 97.203394 
L 46.250371 96.373794 
L 47.141245 96.501319 
L 48.032112 95.820575 
L 48.922979 96.500402 
L 49.81384 96.361638 
L 50.704717 95.745115 
L 52.486458 96.940775 
L 53.377327 95.779749 
L 54.268192 97.023116 
L 55.159063 96.841921 
L 56.049934 96.455218 
L 56.940797 96.250857 
L 57.831669 97.425186 
L 58.722538 96.454529 
L 59.613407 96.47219 
L 60.504275 96.631367 
L 61.395144 96.07723 
L 62.286016 97.229541 
L 63.176879 97.311882 
L 64.067746 96.937564 
L 65.84949 96.44696 
L 66.740361 95.607498 
L 67.631226 95.865071 
L 68.522078 96.302922 
L 69.412965 96.979537 
L 70.30383 96.478612 
L 71.194705 97.10775 
L 72.976442 96.602467 
L 74.758184 97.618538 
L 75.649039 96.380904 
L 76.539914 96.963253 
L 77.430784 96.724488 
L 78.321655 96.273105 
L 79.212509 96.189847 
L 80.103391 96.255215 
L 80.994245 96.715772 
L 81.885129 97.47771 
L 82.775998 96.402694 
L 83.666869 96.593064 
L 84.557735 96.290536 
L 85.44861 96.268517 
L 94.53997 96.938252 
L 95.248438 96.839856 
L 96.139324 96.027459 
L 97.030192 96.40407 
L 97.921065 96.546962 
L 98.811931 96.569669 
L 99.702798 97.823128 
L 100.593666 96.523108 
L 101.484533 96.528384 
L 102.375401 96.157507 
L 103.266272 97.180228 
L 104.157138 97.105686 
L 105.93888 96.507282 
L 106.829748 96.935041 
L 107.720614 96.736414 
L 108.611487 97.601794 
L 109.502352 96.46508 
L 110.393224 97.42037 
L 111.284094 96.136405 
L 113.065834 97.343075 
L 114.847564 96.832058 
L 115.738441 96.258884 
L 116.629309 96.990547 
L 117.520178 96.755681 
L 118.41104 97.090319 
L 119.301913 97.606152 
L 120.192782 97.484591 
L 121.083649 97.130916 
L 121.97452 97.224036 
L 125.537994 97.735741 
L 126.428869 97.428397 
L 127.319734 96.766231 
L 128.210603 96.33595 
L 129.101474 96.912793 
L 129.992342 96.307509 
L 130.883214 96.868526 
L 132.664946 96.555219 
L 133.55582 96.161176 
L 134.446686 96.035257 
L 135.337558 97.392846 
L 136.228424 97.517848 
L 137.119294 96.73068 
L 138.010159 96.868985 
L 138.901032 95.956357 
L 139.791912 96.847196 
L 140.68277 96.995593 
L 141.57364 96.731827 
L 143.355376 96.824489 
L 145.137113 96.838939 
L 146.027984 97.346286 
L 146.918849 96.016908 
L 173.644977 96.016908 
L 181.959197 96.354069 
L 182.553652 95.789382 
L 183.444521 96.63733 
L 184.335387 96.616688 
L 185.226256 95.946265 
L 187.007996 96.4832 
L 188.789731 96.720359 
L 189.680603 97.047428 
L 190.571474 96.146268 
L 191.462343 96.133424 
L 192.353215 97.169678 
L 193.244077 96.272187 
L 194.134949 98.8814 
L 195.025817 98.927273 
L 195.916688 98.85273 
L 196.807557 98.513505 
L 197.698426 98.860758 
L 203.043636 98.882547 
L 203.043636 98.882547 
" clip-path="url(#p3cc6fc8f6c)" style="fill: none; stroke: #ff6b6b; stroke-width: 1.2; stroke-linecap: square"/>
   </g>
   <g id="patch_3">
    <path d="M 35.96 103.4 
L 35.96 5 
" style="fill: none; stroke: var(--fg-color); stroke-width: 0.8; stroke-linejoin: miter; stroke-linecap: square"/>
   </g>
   <g id="patch_4">
    <path d="M 35.96 103.4 
L 211 103.4 
" style="fill: none; stroke: var(--fg-color); stroke-width: 0.8; stroke-linejoin: miter; stroke-linecap: square"/>
   </g>
  </g>
 </g>
 <defs>
  <clipPath id="p3cc6fc8f6c">
   <rect x="35.96" y="5" width="175.04" height="98.4"/>
  </clipPath>
 </defs>
</svg>
