<?xml version="1.0" encoding="utf-8" standalone="no"?>
<!DOCTYPE svg PUBLIC "-//W3C//DTD SVG 1.1//EN"
  "http://www.w3.org/Graphics/SVG/1.1/DTD/svg11.dtd">
<svg xmlns:xlink="http://www.w3.org/1999/xlink" width="216pt" height="122.4pt" viewBox="0 0 216 122.4" xmlns="http://www.w3.org/2000/svg" version="1.1">
  <style>
    :root {
      --fg-color: #212529;
      --grid-color: rgba(33, 37, 41, 0.1);
    }
    @media (prefers-color-scheme: dark) {
      :root {
        --fg-color: #dee2e6;
        --grid-color: rgba(248, 249, 250, 0.15);
      }
    }
  </style>

 <metadata>
  <rdf:RDF xmlns:dc="http://purl.org/dc/elements/1.1/" xmlns:cc="http://creativecommons.org/ns#" xmlns:rdf="http://www.w3.org/1999/02/22-rdf-syntax-ns#">
   <cc:Work>
    <dc:type rdf:resource="http://purl.org/dc/dcmitype/StillImage"/>
    <dc:date>2026-06-30T15:37:46.487437</dc:date>
    <dc:format>image/svg+xml</dc:format>
    <dc:creator>
     <cc:Agent>
      <dc:title>Matplotlib v3.11.0, https://matplotlib.org/</dc:title>
     </cc:Agent>
    </dc:creator>
   </cc:Work>
  </rdf:RDF>
 </metadata>
 <defs>
  <style type="text/css">*{stroke-linejoin: round; stroke-linecap: butt}</style>
 </defs>
 <g id="figure_1">
  <g id="patch_1">
   <path d="M 0 122.4 
L 216 122.4 
L 216 0 
L 0 0 
L 0 122.4 
z
" style="fill: none; opacity: 0"/>
  </g>
  <g id="axes_1">
   <g id="patch_2">
    <path d="M 35.96 103.4 
L 211 103.4 
L 211 6.693433 
L 35.96 6.693433 
L 35.96 103.4 
z
" style="fill: none; opacity: 0"/>
   </g>
   <g id="matplotlib.axis_1">
    <g id="xtick_1">
     <g id="line2d_1">
      <path d="M 69.784035 103.4 
L 69.784035 6.693433 
" clip-path="url(#pc17eb0c648)" style="fill: none; stroke-dasharray: 2.96,1.28; stroke-dashoffset: 0; stroke: var(--grid-color); stroke-width: 0.8"/>
     </g>
     <g id="line2d_2">
      <defs>
       <path id="mbea23a3125" d="M 0 0 
L 0 3.5 
" style="stroke: var(--fg-color); stroke-width: 0.8"/>
      </defs>
      <g>
       <use xlink:href="#mbea23a3125" x="69.784035" y="103.4" style="fill: var(--fg-color); stroke: var(--fg-color); stroke-width: 0.8"/>
      </g>
     </g>
     <g id="text_1">
      <text style="font-size: 7px; font-family: 'DejaVu Sans', 'Bitstream Vera Sans', 'Computer Modern Sans Serif', 'Lucida Grande', 'Verdana', 'Geneva', 'Lucid', 'Arial', 'Helvetica', 'Avant Garde', sans-serif; text-anchor: middle; fill: var(--fg-color)" x="69.784035" y="115.718359" transform="rotate(-0 69.784035 115.718359)">02/2026</text>
     </g>
    </g>
    <g id="xtick_2">
     <g id="line2d_3">
      <path d="M 122.345302 103.4 
L 122.345302 6.693433 
" clip-path="url(#pc17eb0c648)" style="fill: none; stroke-dasharray: 2.96,1.28; stroke-dashoffset: 0; stroke: var(--grid-color); stroke-width: 0.8"/>
     </g>
     <g id="line2d_4">
      <g>
       <use xlink:href="#mbea23a3125" x="122.345302" y="103.4" style="fill: var(--fg-color); stroke: var(--fg-color); stroke-width: 0.8"/>
      </g>
     </g>
     <g id="text_2">
      <text style="font-size: 7px; font-family: 'DejaVu Sans', 'Bitstream Vera Sans', 'Computer Modern Sans Serif', 'Lucida Grande', 'Verdana', 'Geneva', 'Lucid', 'Arial', 'Helvetica', 'Avant Garde', sans-serif; text-anchor: middle; fill: var(--fg-color)" x="122.345302" y="115.718359" transform="rotate(-0 122.345302 115.718359)">04/2026</text>
     </g>
    </g>
    <g id="xtick_3">
     <g id="line2d_5">
      <path d="M 176.688307 103.4 
L 176.688307 6.693433 
" clip-path="url(#pc17eb0c648)" style="fill: none; stroke-dasharray: 2.96,1.28; stroke-dashoffset: 0; stroke: var(--grid-color); stroke-width: 0.8"/>
     </g>
     <g id="line2d_6">
      <g>
       <use xlink:href="#mbea23a3125" x="176.688307" y="103.4" style="fill: var(--fg-color); stroke: var(--fg-color); stroke-width: 0.8"/>
      </g>
     </g>
     <g id="text_3">
      <text style="font-size: 7px; font-family: 'DejaVu Sans', 'Bitstream Vera Sans', 'Computer Modern Sans Serif', 'Lucida Grande', 'Verdana', 'Geneva', 'Lucid', 'Arial', 'Helvetica', 'Avant Garde', sans-serif; text-anchor: middle; fill: var(--fg-color)" x="176.688307" y="115.718359" transform="rotate(-0 176.688307 115.718359)">06/2026</text>
     </g>
    </g>
   </g>
   <g id="matplotlib.axis_2">
    <g id="ytick_1">
     <g id="line2d_7">
      <path d="M 35.96 99.843354 
L 211 99.843354 
" clip-path="url(#pc17eb0c648)" style="fill: none; stroke-dasharray: 2.96,1.28; stroke-dashoffset: 0; stroke: var(--grid-color); stroke-width: 0.8"/>
     </g>
     <g id="line2d_8">
      <defs>
       <path id="m94f252669d" d="M 0 0 
L -3.5 0 
" style="stroke: var(--fg-color); stroke-width: 0.8"/>
      </defs>
      <g>
       <use xlink:href="#m94f252669d" x="35.96" y="99.843354" style="fill: var(--fg-color); stroke: var(--fg-color); stroke-width: 0.8"/>
      </g>
     </g>
     <g id="text_4">
      <text style="font-size: 7px; font-family: 'DejaVu Sans', 'Bitstream Vera Sans', 'Computer Modern Sans Serif', 'Lucida Grande', 'Verdana', 'Geneva', 'Lucid', 'Arial', 'Helvetica', 'Avant Garde', sans-serif; text-anchor: end; fill: var(--fg-color)" x="28.96" y="102.502534" transform="rotate(-0 28.96 102.502534)">0</text>
     </g>
    </g>
    <g id="ytick_2">
     <g id="line2d_9">
      <path d="M 35.96 76.803609 
L 211 76.803609 
" clip-path="url(#pc17eb0c648)" style="fill: none; stroke-dasharray: 2.96,1.28; stroke-dashoffset: 0; stroke: var(--grid-color); stroke-width: 0.8"/>
     </g>
     <g id="line2d_10">
      <g>
       <use xlink:href="#m94f252669d" x="35.96" y="76.803609" style="fill: var(--fg-color); stroke: var(--fg-color); stroke-width: 0.8"/>
      </g>
     </g>
     <g id="text_5">
      <text style="font-size: 7px; font-family: 'DejaVu Sans', 'Bitstream Vera Sans', 'Computer Modern Sans Serif', 'Lucida Grande', 'Verdana', 'Geneva', 'Lucid', 'Arial', 'Helvetica', 'Avant Garde', sans-serif; text-anchor: end; fill: var(--fg-color)" x="28.96" y="79.462789" transform="rotate(-0 28.96 79.462789)">50</text>
     </g>
    </g>
    <g id="ytick_3">
     <g id="line2d_11">
      <path d="M 35.96 53.763863 
L 211 53.763863 
" clip-path="url(#pc17eb0c648)" style="fill: none; stroke-dasharray: 2.96,1.28; stroke-dashoffset: 0; stroke: var(--grid-color); stroke-width: 0.8"/>
     </g>
     <g id="line2d_12">
      <g>
       <use xlink:href="#m94f252669d" x="35.96" y="53.763863" style="fill: var(--fg-color); stroke: var(--fg-color); stroke-width: 0.8"/>
      </g>
     </g>
     <g id="text_6">
      <text style="font-size: 7px; font-family: 'DejaVu Sans', 'Bitstream Vera Sans', 'Computer Modern Sans Serif', 'Lucida Grande', 'Verdana', 'Geneva', 'Lucid', 'Arial', 'Helvetica', 'Avant Garde', sans-serif; text-anchor: end; fill: var(--fg-color)" x="28.96" y="56.423043" transform="rotate(-0 28.96 56.423043)">100</text>
     </g>
    </g>
    <g id="ytick_4">
     <g id="line2d_13">
      <path d="M 35.96 30.724118 
L 211 30.724118 
" clip-path="url(#pc17eb0c648)" style="fill: none; stroke-dasharray: 2.96,1.28; stroke-dashoffset: 0; stroke: var(--grid-color); stroke-width: 0.8"/>
     </g>
     <g id="line2d_14">
      <g>
       <use xlink:href="#m94f252669d" x="35.96" y="30.724118" style="fill: var(--fg-color); stroke: var(--fg-color); stroke-width: 0.8"/>
      </g>
     </g>
     <g id="text_7">
      <text style="font-size: 7px; font-family: 'DejaVu Sans', 'Bitstream Vera Sans', 'Computer Modern Sans Serif', 'Lucida Grande', 'Verdana', 'Geneva', 'Lucid', 'Arial', 'Helvetica', 'Avant Garde', sans-serif; text-anchor: end; fill: var(--fg-color)" x="28.96" y="33.383298" transform="rotate(-0 28.96 33.383298)">150</text>
     </g>
    </g>
    <g id="ytick_5">
     <g id="line2d_15">
      <path d="M 35.96 7.684372 
L 211 7.684372 
" clip-path="url(#pc17eb0c648)" style="fill: none; stroke-dasharray: 2.96,1.28; stroke-dashoffset: 0; stroke: var(--grid-color); stroke-width: 0.8"/>
     </g>
     <g id="line2d_16">
      <g>
       <use xlink:href="#m94f252669d" x="35.96" y="7.684372" style="fill: var(--fg-color); stroke: var(--fg-color); stroke-width: 0.8"/>
      </g>
     </g>
     <g id="text_8">
      <text style="font-size: 7px; font-family: 'DejaVu Sans', 'Bitstream Vera Sans', 'Computer Modern Sans Serif', 'Lucida Grande', 'Verdana', 'Geneva', 'Lucid', 'Arial', 'Helvetica', 'Avant Garde', sans-serif; text-anchor: end; fill: var(--fg-color)" x="28.96" y="10.343552" transform="rotate(-0 28.96 10.343552)">200</text>
     </g>
    </g>
    <g id="text_9">
     <text style="font-size: 7px; font-family: 'DejaVu Sans', 'Bitstream Vera Sans', 'Computer Modern Sans Serif', 'Lucida Grande', 'Verdana', 'Geneva', 'Lucid', 'Arial', 'Helvetica', 'Avant Garde', sans-serif; text-anchor: middle; fill: var(--fg-color)" x="9.917109" y="55.046716" transform="rotate(-90 9.917109 55.046716)">ms</text>
    </g>
   </g>
   <g id="line2d_17">
    <path d="M 43.916364 41.289684 
L 44.468628 41.44359 
L 45.3595 34.718749 
L 46.250371 29.027932 
L 47.141245 39.052525 
L 48.032112 39.218872 
L 48.922979 36.588194 
L 50.704717 43.591816 
L 51.595589 41.187849 
L 52.486458 40.957451 
L 53.377327 41.676291 
L 54.268192 42.584057 
L 55.159063 42.385455 
L 56.049934 38.815676 
L 56.940797 40.047842 
L 57.831669 43.995933 
L 58.722538 43.97105 
L 59.613407 43.284005 
L 60.504275 39.242373 
L 61.395144 43.49551 
L 62.286016 30.862356 
L 63.176879 47.409041 
L 64.067746 43.830968 
L 64.958622 35.120562 
L 65.84949 44.568701 
L 66.740361 40.743182 
L 67.631226 39.57737 
L 68.522078 30.002513 
L 69.412965 25.350788 
L 70.30383 44.212046 
L 71.194705 35.042688 
L 72.085571 32.675123 
L 72.976442 43.915294 
L 73.867306 33.07325 
L 74.758184 41.401197 
L 75.649039 43.224101 
L 76.539914 41.379539 
L 77.430784 41.893786 
L 78.321655 35.878109 
L 79.212509 38.497267 
L 80.103391 25.544322 
L 80.994245 22.919174 
L 81.885129 37.827732 
L 82.775998 39.204587 
L 83.666869 27.81512 
L 84.557735 37.113961 
L 85.44861 43.839263 
L 94.53997 39.873662 
L 95.248438 37.676591 
L 96.139324 40.66669 
L 97.030192 36.281304 
L 97.921065 45.031339 
L 98.811931 46.447362 
L 99.702798 46.217425 
L 100.593666 50.693587 
L 101.484533 42.867446 
L 102.375401 47.638517 
L 103.266272 43.913911 
L 104.157138 38.695409 
L 105.048009 44.6028 
L 105.93888 45.058065 
L 106.829748 44.4641 
L 107.720614 47.396599 
L 108.611487 45.434074 
L 109.502352 49.048088 
L 110.393224 45.040094 
L 111.284094 43.442518 
L 112.17496 38.090846 
L 113.065834 44.122191 
L 113.956695 47.667547 
L 114.847564 43.469244 
L 115.738441 44.520778 
L 116.629309 48.814926 
L 117.520178 25.441565 
L 118.41104 33.126242 
L 119.301913 28.614599 
L 120.192782 43.630983 
L 121.083649 21.019316 
L 121.97452 37.836487 
L 125.537994 31.638796 
L 126.428869 32.577896 
L 127.319734 41.949543 
L 128.210603 36.541193 
L 129.101474 39.239147 
L 129.992342 39.277854 
L 131.774065 44.153986 
L 132.664946 39.965821 
L 133.55582 34.24966 
L 134.446686 36.5799 
L 135.337558 37.372006 
L 136.228424 39.330845 
L 137.119294 37.792712 
L 138.010159 33.298579 
L 138.901032 34.363476 
L 139.791912 38.196368 
L 140.68277 11.089186 
L 141.57364 37.077558 
L 142.464507 19.619421 
L 144.246246 35.354646 
L 145.137113 33.894848 
L 146.027984 37.325466 
L 146.918849 38.705546 
L 173.644977 38.705546 
L 181.959197 29.263859 
L 182.553652 41.072189 
L 183.444521 40.906303 
L 184.335387 32.641025 
L 185.226256 26.456696 
L 186.117131 24.803825 
L 187.007996 32.542415 
L 187.898864 37.787182 
L 188.789731 40.095765 
L 189.680603 37.885792 
L 190.571474 34.060734 
L 191.462343 36.332914 
L 192.353215 34.162569 
L 193.244077 43.595502 
L 194.134949 38.862678 
L 195.025817 38.647947 
L 195.916688 35.133464 
L 196.807557 41.09016 
L 197.698426 45.659402 
L 198.589295 41.508562 
L 199.480162 32.083463 
L 200.371032 44.519857 
L 201.261898 48.310356 
L 202.152766 39.663539 
L 203.043636 44.008835 
L 203.043636 44.008835 
" clip-path="url(#pc17eb0c648)" style="fill: none; stroke: #339af0; stroke-width: 1.2; stroke-linecap: square"/>
   </g>
   <g id="line2d_18">
    <path d="M 43.916364 98.794585 
L 47.141245 98.916235 
L 49.81384 98.853106 
L 50.704717 98.94803 
L 56.049934 98.905637 
L 56.940797 98.656347 
L 57.831669 98.928677 
L 58.722538 98.80334 
L 60.504275 98.875224 
L 61.395144 98.823155 
L 63.176879 98.936049 
L 64.958622 98.846194 
L 65.84949 98.946187 
L 68.522078 98.840665 
L 70.30383 98.917618 
L 71.194705 98.806566 
L 75.649039 98.969227 
L 76.539914 98.898264 
L 77.430784 98.947108 
L 78.321655 98.766477 
L 79.212509 98.924069 
L 80.103391 98.860479 
L 82.775998 98.969227 
L 83.666869 98.88997 
L 85.44861 98.924069 
L 97.030192 98.941579 
L 97.921065 98.887666 
L 98.811931 98.990423 
L 99.702798 98.934206 
L 100.593666 99.001943 
L 101.484533 98.738829 
L 102.375401 98.954942 
L 103.266272 98.946648 
L 104.157138 98.798732 
L 105.048009 98.948952 
L 109.502352 98.978903 
L 110.393224 98.569717 
L 111.284094 98.891813 
L 112.17496 98.72178 
L 113.065834 98.900568 
L 113.956695 98.960471 
L 114.847564 98.83191 
L 116.629309 98.973834 
L 117.520178 98.818547 
L 118.41104 98.925912 
L 119.301913 98.844351 
L 121.97452 98.919 
L 139.791912 98.901029 
L 140.68277 98.66372 
L 141.57364 98.696897 
L 142.464507 97.813092 
L 143.355376 98.779379 
L 144.246246 98.579855 
L 145.137113 98.928677 
L 146.918849 98.61165 
L 173.644977 98.61165 
L 183.444521 98.908402 
L 186.117131 98.790899 
L 189.680603 98.91301 
L 190.571474 98.801036 
L 191.462343 98.930059 
L 192.353215 98.876146 
L 193.244077 98.643905 
L 194.134949 98.903333 
L 195.916688 98.769242 
L 197.698426 98.924529 
L 200.371032 98.918539 
L 201.261898 99.004247 
L 203.043636 98.903333 
L 203.043636 98.903333 
" clip-path="url(#pc17eb0c648)" style="fill: none; stroke: #ff6b6b; stroke-width: 1.2; stroke-linecap: square"/>
   </g>
   <g id="patch_3">
    <path d="M 35.96 103.4 
L 35.96 6.693433 
" style="fill: none; stroke: var(--fg-color); stroke-width: 0.8; stroke-linejoin: miter; stroke-linecap: square"/>
   </g>
   <g id="patch_4">
    <path d="M 35.96 103.4 
L 211 103.4 
" style="fill: none; stroke: var(--fg-color); stroke-width: 0.8; stroke-linejoin: miter; stroke-linecap: square"/>
   </g>
  </g>
 </g>
 <defs>
  <clipPath id="pc17eb0c648">
   <rect x="35.96" y="6.693433" width="175.04" height="96.706567"/>
  </clipPath>
 </defs>
</svg>
