<?xml version="1.0" encoding="utf-8" standalone="no"?>
<!DOCTYPE svg PUBLIC "-//W3C//DTD SVG 1.1//EN"
  "http://www.w3.org/Graphics/SVG/1.1/DTD/svg11.dtd">
<svg xmlns:xlink="http://www.w3.org/1999/xlink" width="216pt" height="122.4pt" viewBox="0 0 216 122.4" xmlns="http://www.w3.org/2000/svg" version="1.1">
  <style>
    :root {
      --fg-color: #212529;
      --grid-color: rgba(33, 37, 41, 0.1);
    }
    @media (prefers-color-scheme: dark) {
      :root {
        --fg-color: #dee2e6;
        --grid-color: rgba(248, 249, 250, 0.15);
      }
    }
  </style>

 <metadata>
  <rdf:RDF xmlns:dc="http://purl.org/dc/elements/1.1/" xmlns:cc="http://creativecommons.org/ns#" xmlns:rdf="http://www.w3.org/1999/02/22-rdf-syntax-ns#">
   <cc:Work>
    <dc:type rdf:resource="http://purl.org/dc/dcmitype/StillImage"/>
    <dc:date>2026-06-30T04:48:55.180622</dc:date>
    <dc:format>image/svg+xml</dc:format>
    <dc:creator>
     <cc:Agent>
      <dc:title>Matplotlib v3.11.0, https://matplotlib.org/</dc:title>
     </cc:Agent>
    </dc:creator>
   </cc:Work>
  </rdf:RDF>
 </metadata>
 <defs>
  <style type="text/css">*{stroke-linejoin: round; stroke-linecap: butt}</style>
 </defs>
 <g id="figure_1">
  <g id="patch_1">
   <path d="M 0 122.4 
L 216 122.4 
L 216 0 
L 0 0 
L 0 122.4 
z
" style="fill: none; opacity: 0"/>
  </g>
  <g id="axes_1">
   <g id="patch_2">
    <path d="M 35.96 103.4 
L 211 103.4 
L 211 5 
L 35.96 5 
L 35.96 103.4 
z
" style="fill: none; opacity: 0"/>
   </g>
   <g id="matplotlib.axis_1">
    <g id="xtick_1">
     <g id="line2d_1">
      <path d="M 72.056377 103.4 
L 72.056377 5 
" clip-path="url(#p29d47a08a3)" style="fill: none; stroke-dasharray: 2.96,1.28; stroke-dashoffset: 0; stroke: var(--grid-color); stroke-width: 0.8"/>
     </g>
     <g id="line2d_2">
      <defs>
       <path id="m0d72d470ab" d="M 0 0 
L 0 3.5 
" style="stroke: var(--fg-color); stroke-width: 0.8"/>
      </defs>
      <g>
       <use xlink:href="#m0d72d470ab" x="72.056377" y="103.4" style="fill: var(--fg-color); stroke: var(--fg-color); stroke-width: 0.8"/>
      </g>
     </g>
     <g id="text_1">
      <text style="font-size: 7px; font-family: 'DejaVu Sans', 'Bitstream Vera Sans', 'Computer Modern Sans Serif', 'Lucida Grande', 'Verdana', 'Geneva', 'Lucid', 'Arial', 'Helvetica', 'Avant Garde', sans-serif; text-anchor: middle; fill: var(--fg-color)" x="72.056377" y="115.718359" transform="rotate(-0 72.056377 115.718359)">02/2026</text>
     </g>
    </g>
    <g id="xtick_2">
     <g id="line2d_3">
      <path d="M 126.640628 103.4 
L 126.640628 5 
" clip-path="url(#p29d47a08a3)" style="fill: none; stroke-dasharray: 2.96,1.28; stroke-dashoffset: 0; stroke: var(--grid-color); stroke-width: 0.8"/>
     </g>
     <g id="line2d_4">
      <g>
       <use xlink:href="#m0d72d470ab" x="126.640628" y="103.4" style="fill: var(--fg-color); stroke: var(--fg-color); stroke-width: 0.8"/>
      </g>
     </g>
     <g id="text_2">
      <text style="font-size: 7px; font-family: 'DejaVu Sans', 'Bitstream Vera Sans', 'Computer Modern Sans Serif', 'Lucida Grande', 'Verdana', 'Geneva', 'Lucid', 'Arial', 'Helvetica', 'Avant Garde', sans-serif; text-anchor: middle; fill: var(--fg-color)" x="126.640628" y="115.718359" transform="rotate(-0 126.640628 115.718359)">04/2026</text>
     </g>
    </g>
    <g id="xtick_3">
     <g id="line2d_5">
      <path d="M 183.075192 103.4 
L 183.075192 5 
" clip-path="url(#p29d47a08a3)" style="fill: none; stroke-dasharray: 2.96,1.28; stroke-dashoffset: 0; stroke: var(--grid-color); stroke-width: 0.8"/>
     </g>
     <g id="line2d_6">
      <g>
       <use xlink:href="#m0d72d470ab" x="183.075192" y="103.4" style="fill: var(--fg-color); stroke: var(--fg-color); stroke-width: 0.8"/>
      </g>
     </g>
     <g id="text_3">
      <text style="font-size: 7px; font-family: 'DejaVu Sans', 'Bitstream Vera Sans', 'Computer Modern Sans Serif', 'Lucida Grande', 'Verdana', 'Geneva', 'Lucid', 'Arial', 'Helvetica', 'Avant Garde', sans-serif; text-anchor: middle; fill: var(--fg-color)" x="183.075192" y="115.718359" transform="rotate(-0 183.075192 115.718359)">06/2026</text>
     </g>
    </g>
   </g>
   <g id="matplotlib.axis_2">
    <g id="ytick_1">
     <g id="line2d_7">
      <path d="M 35.96 100.588688 
L 211 100.588688 
" clip-path="url(#p29d47a08a3)" style="fill: none; stroke-dasharray: 2.96,1.28; stroke-dashoffset: 0; stroke: var(--grid-color); stroke-width: 0.8"/>
     </g>
     <g id="line2d_8">
      <defs>
       <path id="mf76ad928c1" d="M 0 0 
L -3.5 0 
" style="stroke: var(--fg-color); stroke-width: 0.8"/>
      </defs>
      <g>
       <use xlink:href="#mf76ad928c1" x="35.96" y="100.588688" style="fill: var(--fg-color); stroke: var(--fg-color); stroke-width: 0.8"/>
      </g>
     </g>
     <g id="text_4">
      <text style="font-size: 7px; font-family: 'DejaVu Sans', 'Bitstream Vera Sans', 'Computer Modern Sans Serif', 'Lucida Grande', 'Verdana', 'Geneva', 'Lucid', 'Arial', 'Helvetica', 'Avant Garde', sans-serif; text-anchor: end; fill: var(--fg-color)" x="28.96" y="103.247867" transform="rotate(-0 28.96 103.247867)">0</text>
     </g>
    </g>
    <g id="ytick_2">
     <g id="line2d_9">
      <path d="M 35.96 74.814331 
L 211 74.814331 
" clip-path="url(#p29d47a08a3)" style="fill: none; stroke-dasharray: 2.96,1.28; stroke-dashoffset: 0; stroke: var(--grid-color); stroke-width: 0.8"/>
     </g>
     <g id="line2d_10">
      <g>
       <use xlink:href="#mf76ad928c1" x="35.96" y="74.814331" style="fill: var(--fg-color); stroke: var(--fg-color); stroke-width: 0.8"/>
      </g>
     </g>
     <g id="text_5">
      <text style="font-size: 7px; font-family: 'DejaVu Sans', 'Bitstream Vera Sans', 'Computer Modern Sans Serif', 'Lucida Grande', 'Verdana', 'Geneva', 'Lucid', 'Arial', 'Helvetica', 'Avant Garde', sans-serif; text-anchor: end; fill: var(--fg-color)" x="28.96" y="77.47351" transform="rotate(-0 28.96 77.47351)">50</text>
     </g>
    </g>
    <g id="ytick_3">
     <g id="line2d_11">
      <path d="M 35.96 49.039974 
L 211 49.039974 
" clip-path="url(#p29d47a08a3)" style="fill: none; stroke-dasharray: 2.96,1.28; stroke-dashoffset: 0; stroke: var(--grid-color); stroke-width: 0.8"/>
     </g>
     <g id="line2d_12">
      <g>
       <use xlink:href="#mf76ad928c1" x="35.96" y="49.039974" style="fill: var(--fg-color); stroke: var(--fg-color); stroke-width: 0.8"/>
      </g>
     </g>
     <g id="text_6">
      <text style="font-size: 7px; font-family: 'DejaVu Sans', 'Bitstream Vera Sans', 'Computer Modern Sans Serif', 'Lucida Grande', 'Verdana', 'Geneva', 'Lucid', 'Arial', 'Helvetica', 'Avant Garde', sans-serif; text-anchor: end; fill: var(--fg-color)" x="28.96" y="51.699153" transform="rotate(-0 28.96 51.699153)">100</text>
     </g>
    </g>
    <g id="ytick_4">
     <g id="line2d_13">
      <path d="M 35.96 23.265617 
L 211 23.265617 
" clip-path="url(#p29d47a08a3)" style="fill: none; stroke-dasharray: 2.96,1.28; stroke-dashoffset: 0; stroke: var(--grid-color); stroke-width: 0.8"/>
     </g>
     <g id="line2d_14">
      <g>
       <use xlink:href="#mf76ad928c1" x="35.96" y="23.265617" style="fill: var(--fg-color); stroke: var(--fg-color); stroke-width: 0.8"/>
      </g>
     </g>
     <g id="text_7">
      <text style="font-size: 7px; font-family: 'DejaVu Sans', 'Bitstream Vera Sans', 'Computer Modern Sans Serif', 'Lucida Grande', 'Verdana', 'Geneva', 'Lucid', 'Arial', 'Helvetica', 'Avant Garde', sans-serif; text-anchor: end; fill: var(--fg-color)" x="28.96" y="25.924796" transform="rotate(-0 28.96 25.924796)">150</text>
     </g>
    </g>
    <g id="text_8">
     <text style="font-size: 7px; font-family: 'DejaVu Sans', 'Bitstream Vera Sans', 'Computer Modern Sans Serif', 'Lucida Grande', 'Verdana', 'Geneva', 'Lucid', 'Arial', 'Helvetica', 'Avant Garde', sans-serif; text-anchor: middle; fill: var(--fg-color)" x="9.917109" y="54.2" transform="rotate(-90 9.917109 54.2)">ms</text>
    </g>
   </g>
   <g id="line2d_15">
    <path d="M 43.916364 39.092618 
L 45.193108 37.354396 
L 45.766628 36.436829 
L 46.691788 41.183434 
L 47.616947 36.508997 
L 48.542109 34.303743 
L 49.467263 37.554405 
L 50.392418 40.032867 
L 51.317566 33.972285 
L 52.242732 33.300089 
L 53.167891 36.243005 
L 54.093049 38.840545 
L 55.018206 39.121486 
L 55.943359 34.721287 
L 56.868517 32.941826 
L 57.793676 35.794016 
L 58.718827 34.058886 
L 59.643987 37.335838 
L 60.569143 37.384809 
L 61.494301 38.364235 
L 62.419457 39.19984 
L 63.344613 35.395029 
L 64.269773 37.159542 
L 65.194924 38.740025 
L 66.120079 37.648223 
L 67.045243 32.323757 
L 67.970398 36.302802 
L 68.895557 37.653894 
L 69.82071 39.035399 
L 70.74585 36.584773 
L 71.671025 37.724 
L 72.596178 37.795137 
L 73.521341 33.878981 
L 74.446495 33.516078 
L 75.371653 33.656806 
L 76.296805 39.766876 
L 77.221971 28.929274 
L 78.147114 39.26376 
L 79.072277 38.3797 
L 79.997435 32.176843 
L 80.922594 35.278014 
L 81.847735 36.614672 
L 82.772905 39.090556 
L 83.698046 37.452338 
L 84.623219 37.491515 
L 85.548376 36.424972 
L 86.473535 34.561486 
L 87.398688 30.987099 
L 88.323852 38.133812 
L 97.76512 15.481245 
L 98.500856 9.472727 
L 99.426031 10.564529 
L 100.351186 17.988575 
L 101.276348 39.067875 
L 102.201502 37.900297 
L 103.126656 37.361613 
L 104.051812 41.414372 
L 104.976967 39.70244 
L 105.902123 33.894446 
L 106.827282 40.912803 
L 107.752435 35.582151 
L 108.677594 37.537909 
L 109.602753 36.305379 
L 110.527909 33.515563 
L 111.453063 34.444471 
L 112.378223 29.089075 
L 113.303377 42.089145 
L 114.228537 35.197598 
L 115.153695 32.120655 
L 116.078848 38.83539 
L 117.004011 35.532149 
L 117.929158 43.055684 
L 118.854316 37.451307 
L 119.779481 33.403702 
L 120.704637 36.212592 
L 121.629794 40.27463 
L 122.554943 32.77687 
L 123.480104 33.435662 
L 124.405261 32.550056 
L 125.330416 34.606849 
L 126.255574 28.875663 
L 129.9562 35.905361 
L 130.881363 33.2372 
L 131.806516 33.322771 
L 132.731673 39.346754 
L 133.656831 37.559044 
L 134.581987 32.902133 
L 135.507147 33.081523 
L 136.432285 37.031701 
L 137.357455 36.192488 
L 138.282617 34.562002 
L 139.20777 30.794822 
L 140.13293 34.707369 
L 141.058084 33.058841 
L 141.983242 34.8249 
L 142.908395 36.066709 
L 143.833556 32.155192 
L 144.758724 31.090711 
L 145.683869 27.836957 
L 146.609028 32.395409 
L 147.534182 28.293163 
L 148.459339 29.998394 
L 149.384497 28.846796 
L 150.309651 28.481831 
L 151.234811 25.410559 
L 152.159963 29.695803 
L 179.91473 29.695803 
L 188.548948 32.654699 
L 189.166282 32.048487 
L 190.091439 32.230969 
L 191.016594 34.952741 
L 191.94175 34.504783 
L 192.866913 34.674894 
L 193.792066 29.938082 
L 194.717222 34.726958 
L 195.642377 36.04145 
L 196.567536 34.619221 
L 197.492695 26.834334 
L 198.417852 34.250132 
L 199.343013 33.059872 
L 200.268162 40.484949 
L 201.193322 34.5919 
L 202.118478 35.061509 
L 203.043636 26.736907 
" clip-path="url(#p29d47a08a3)" style="fill: none; stroke: #339af0; stroke-width: 1.2; stroke-linecap: square"/>
   </g>
   <g id="line2d_16">
    <path d="M 43.916364 98.823144 
L 45.193108 98.725202 
L 45.766628 98.821598 
L 46.691788 98.927273 
L 47.616947 98.700974 
L 48.542109 98.71283 
L 49.467263 98.841702 
L 50.392418 98.863868 
L 51.317566 98.721078 
L 52.242732 98.732934 
L 53.167891 98.772111 
L 54.093049 98.852012 
L 55.018206 98.844279 
L 55.943359 98.761286 
L 56.868517 98.744275 
L 57.793676 98.686025 
L 58.718827 98.725202 
L 59.643987 98.806133 
L 60.569143 98.830361 
L 61.494301 98.862321 
L 62.419457 98.904591 
L 63.344613 98.741182 
L 64.269773 98.805102 
L 65.194924 98.80304 
L 66.120079 98.876755 
L 67.045243 98.739635 
L 67.970398 98.8716 
L 68.895557 98.801494 
L 69.82071 98.82366 
L 70.74585 98.777266 
L 71.671025 98.834485 
L 72.596178 98.845826 
L 73.521341 98.756131 
L 74.446495 98.816958 
L 75.371653 98.757162 
L 76.296805 98.806649 
L 77.221971 98.704067 
L 78.147114 98.801494 
L 79.072277 98.345803 
L 79.997435 98.767472 
L 80.922594 98.706644 
L 81.847735 98.836032 
L 82.772905 98.84995 
L 83.698046 98.846857 
L 84.623219 98.80304 
L 85.548376 98.16796 
L 86.473535 98.796854 
L 87.398688 98.693757 
L 88.323852 98.359206 
L 97.76512 98.827784 
L 98.500856 98.723655 
L 99.426031 98.819536 
L 100.351186 98.882425 
L 101.276348 98.856136 
L 102.201502 98.844279 
L 103.126656 98.806133 
L 104.051812 98.838093 
L 104.976967 98.843764 
L 105.902123 98.841186 
L 106.827282 98.866961 
L 107.752435 98.831392 
L 108.677594 98.720047 
L 109.602753 98.789122 
L 110.527909 98.708706 
L 111.453063 97.961765 
L 112.378223 98.72314 
L 113.303377 98.911293 
L 114.228537 98.655611 
L 115.153695 98.774173 
L 116.078848 98.853558 
L 117.004011 98.778297 
L 117.929158 98.925726 
L 118.854316 98.858197 
L 119.779481 98.780359 
L 120.704637 98.839124 
L 121.629794 98.799947 
L 122.554943 98.817989 
L 123.480104 98.650456 
L 124.405261 98.671591 
L 125.330416 98.736027 
L 126.255574 98.58035 
L 129.9562 98.769018 
L 130.881363 98.542719 
L 131.806516 98.678292 
L 132.731673 98.741182 
L 133.656831 98.778812 
L 134.581987 98.729841 
L 135.507147 98.682932 
L 136.432285 98.836032 
L 137.357455 98.479314 
L 138.282617 98.716954 
L 139.20777 98.496325 
L 140.13293 98.724171 
L 141.058084 98.16796 
L 141.983242 98.687571 
L 142.908395 98.649941 
L 143.833556 98.744275 
L 144.758724 98.630352 
L 145.683869 98.665405 
L 146.609028 98.705613 
L 147.534182 98.617465 
L 148.459339 98.626228 
L 149.384497 98.604578 
L 150.309651 98.606124 
L 151.234811 98.614372 
L 152.159963 98.537564 
L 179.91473 98.537564 
L 188.548948 98.678292 
L 189.166282 98.655611 
L 190.091439 98.692726 
L 191.016594 98.683447 
L 191.94175 98.736542 
L 192.866913 98.698396 
L 193.792066 98.756646 
L 194.717222 98.827268 
L 195.642377 98.742728 
L 196.567536 98.875724 
L 197.492695 98.703036 
L 198.417852 98.920571 
L 199.343013 98.722624 
L 200.268162 98.844795 
L 201.193322 98.834485 
L 202.118478 98.428797 
L 203.043636 98.745306 
" clip-path="url(#p29d47a08a3)" style="fill: none; stroke: #ff6b6b; stroke-width: 1.2; stroke-linecap: square"/>
   </g>
   <g id="patch_3">
    <path d="M 35.96 103.4 
L 35.96 5 
" style="fill: none; stroke: var(--fg-color); stroke-width: 0.8; stroke-linejoin: miter; stroke-linecap: square"/>
   </g>
   <g id="patch_4">
    <path d="M 35.96 103.4 
L 211 103.4 
" style="fill: none; stroke: var(--fg-color); stroke-width: 0.8; stroke-linejoin: miter; stroke-linecap: square"/>
   </g>
  </g>
 </g>
 <defs>
  <clipPath id="p29d47a08a3">
   <rect x="35.96" y="5" width="175.04" height="98.4"/>
  </clipPath>
 </defs>
</svg>
