<?xml version="1.0" encoding="utf-8" standalone="no"?>
<!DOCTYPE svg PUBLIC "-//W3C//DTD SVG 1.1//EN"
  "http://www.w3.org/Graphics/SVG/1.1/DTD/svg11.dtd">
<svg xmlns:xlink="http://www.w3.org/1999/xlink" width="216pt" height="122.4pt" viewBox="0 0 216 122.4" xmlns="http://www.w3.org/2000/svg" version="1.1">
  <style>
    :root {
      --fg-color: #212529;
      --grid-color: rgba(33, 37, 41, 0.1);
    }
    @media (prefers-color-scheme: dark) {
      :root {
        --fg-color: #dee2e6;
        --grid-color: rgba(248, 249, 250, 0.15);
      }
    }
  </style>

 <metadata>
  <rdf:RDF xmlns:dc="http://purl.org/dc/elements/1.1/" xmlns:cc="http://creativecommons.org/ns#" xmlns:rdf="http://www.w3.org/1999/02/22-rdf-syntax-ns#">
   <cc:Work>
    <dc:type rdf:resource="http://purl.org/dc/dcmitype/StillImage"/>
    <dc:date>2026-06-30T15:37:42.379085</dc:date>
    <dc:format>image/svg+xml</dc:format>
    <dc:creator>
     <cc:Agent>
      <dc:title>Matplotlib v3.11.0, https://matplotlib.org/</dc:title>
     </cc:Agent>
    </dc:creator>
   </cc:Work>
  </rdf:RDF>
 </metadata>
 <defs>
  <style type="text/css">*{stroke-linejoin: round; stroke-linecap: butt}</style>
 </defs>
 <g id="figure_1">
  <g id="patch_1">
   <path d="M 0 122.4 
L 216 122.4 
L 216 0 
L 0 0 
L 0 122.4 
z
" style="fill: none; opacity: 0"/>
  </g>
  <g id="axes_1">
   <g id="patch_2">
    <path d="M 35.96 103.4 
L 211 103.4 
L 211 5 
L 35.96 5 
L 35.96 103.4 
z
" style="fill: none; opacity: 0"/>
   </g>
   <g id="matplotlib.axis_1">
    <g id="xtick_1">
     <g id="line2d_1">
      <path d="M 69.784035 103.4 
L 69.784035 5 
" clip-path="url(#p29a0fda6c0)" style="fill: none; stroke-dasharray: 2.96,1.28; stroke-dashoffset: 0; stroke: var(--grid-color); stroke-width: 0.8"/>
     </g>
     <g id="line2d_2">
      <defs>
       <path id="me96fa0ed29" d="M 0 0 
L 0 3.5 
" style="stroke: var(--fg-color); stroke-width: 0.8"/>
      </defs>
      <g>
       <use xlink:href="#me96fa0ed29" x="69.784035" y="103.4" style="fill: var(--fg-color); stroke: var(--fg-color); stroke-width: 0.8"/>
      </g>
     </g>
     <g id="text_1">
      <text style="font-size: 7px; font-family: 'DejaVu Sans', 'Bitstream Vera Sans', 'Computer Modern Sans Serif', 'Lucida Grande', 'Verdana', 'Geneva', 'Lucid', 'Arial', 'Helvetica', 'Avant Garde', sans-serif; text-anchor: middle; fill: var(--fg-color)" x="69.784035" y="115.718359" transform="rotate(-0 69.784035 115.718359)">02/2026</text>
     </g>
    </g>
    <g id="xtick_2">
     <g id="line2d_3">
      <path d="M 122.345302 103.4 
L 122.345302 5 
" clip-path="url(#p29a0fda6c0)" style="fill: none; stroke-dasharray: 2.96,1.28; stroke-dashoffset: 0; stroke: var(--grid-color); stroke-width: 0.8"/>
     </g>
     <g id="line2d_4">
      <g>
       <use xlink:href="#me96fa0ed29" x="122.345302" y="103.4" style="fill: var(--fg-color); stroke: var(--fg-color); stroke-width: 0.8"/>
      </g>
     </g>
     <g id="text_2">
      <text style="font-size: 7px; font-family: 'DejaVu Sans', 'Bitstream Vera Sans', 'Computer Modern Sans Serif', 'Lucida Grande', 'Verdana', 'Geneva', 'Lucid', 'Arial', 'Helvetica', 'Avant Garde', sans-serif; text-anchor: middle; fill: var(--fg-color)" x="122.345302" y="115.718359" transform="rotate(-0 122.345302 115.718359)">04/2026</text>
     </g>
    </g>
    <g id="xtick_3">
     <g id="line2d_5">
      <path d="M 176.688307 103.4 
L 176.688307 5 
" clip-path="url(#p29a0fda6c0)" style="fill: none; stroke-dasharray: 2.96,1.28; stroke-dashoffset: 0; stroke: var(--grid-color); stroke-width: 0.8"/>
     </g>
     <g id="line2d_6">
      <g>
       <use xlink:href="#me96fa0ed29" x="176.688307" y="103.4" style="fill: var(--fg-color); stroke: var(--fg-color); stroke-width: 0.8"/>
      </g>
     </g>
     <g id="text_3">
      <text style="font-size: 7px; font-family: 'DejaVu Sans', 'Bitstream Vera Sans', 'Computer Modern Sans Serif', 'Lucida Grande', 'Verdana', 'Geneva', 'Lucid', 'Arial', 'Helvetica', 'Avant Garde', sans-serif; text-anchor: middle; fill: var(--fg-color)" x="176.688307" y="115.718359" transform="rotate(-0 176.688307 115.718359)">06/2026</text>
     </g>
    </g>
   </g>
   <g id="matplotlib.axis_2">
    <g id="ytick_1">
     <g id="line2d_7">
      <path d="M 35.96 100.336262 
L 211 100.336262 
" clip-path="url(#p29a0fda6c0)" style="fill: none; stroke-dasharray: 2.96,1.28; stroke-dashoffset: 0; stroke: var(--grid-color); stroke-width: 0.8"/>
     </g>
     <g id="line2d_8">
      <defs>
       <path id="m458051d9bd" d="M 0 0 
L -3.5 0 
" style="stroke: var(--fg-color); stroke-width: 0.8"/>
      </defs>
      <g>
       <use xlink:href="#m458051d9bd" x="35.96" y="100.336262" style="fill: var(--fg-color); stroke: var(--fg-color); stroke-width: 0.8"/>
      </g>
     </g>
     <g id="text_4">
      <text style="font-size: 7px; font-family: 'DejaVu Sans', 'Bitstream Vera Sans', 'Computer Modern Sans Serif', 'Lucida Grande', 'Verdana', 'Geneva', 'Lucid', 'Arial', 'Helvetica', 'Avant Garde', sans-serif; text-anchor: end; fill: var(--fg-color)" x="28.96" y="102.995441" transform="rotate(-0 28.96 102.995441)">0</text>
     </g>
    </g>
    <g id="ytick_2">
     <g id="line2d_9">
      <path d="M 35.96 84.478198 
L 211 84.478198 
" clip-path="url(#p29a0fda6c0)" style="fill: none; stroke-dasharray: 2.96,1.28; stroke-dashoffset: 0; stroke: var(--grid-color); stroke-width: 0.8"/>
     </g>
     <g id="line2d_10">
      <g>
       <use xlink:href="#m458051d9bd" x="35.96" y="84.478198" style="fill: var(--fg-color); stroke: var(--fg-color); stroke-width: 0.8"/>
      </g>
     </g>
     <g id="text_5">
      <text style="font-size: 7px; font-family: 'DejaVu Sans', 'Bitstream Vera Sans', 'Computer Modern Sans Serif', 'Lucida Grande', 'Verdana', 'Geneva', 'Lucid', 'Arial', 'Helvetica', 'Avant Garde', sans-serif; text-anchor: end; fill: var(--fg-color)" x="28.96" y="87.137378" transform="rotate(-0 28.96 87.137378)">20</text>
     </g>
    </g>
    <g id="ytick_3">
     <g id="line2d_11">
      <path d="M 35.96 68.620134 
L 211 68.620134 
" clip-path="url(#p29a0fda6c0)" style="fill: none; stroke-dasharray: 2.96,1.28; stroke-dashoffset: 0; stroke: var(--grid-color); stroke-width: 0.8"/>
     </g>
     <g id="line2d_12">
      <g>
       <use xlink:href="#m458051d9bd" x="35.96" y="68.620134" style="fill: var(--fg-color); stroke: var(--fg-color); stroke-width: 0.8"/>
      </g>
     </g>
     <g id="text_6">
      <text style="font-size: 7px; font-family: 'DejaVu Sans', 'Bitstream Vera Sans', 'Computer Modern Sans Serif', 'Lucida Grande', 'Verdana', 'Geneva', 'Lucid', 'Arial', 'Helvetica', 'Avant Garde', sans-serif; text-anchor: end; fill: var(--fg-color)" x="28.96" y="71.279314" transform="rotate(-0 28.96 71.279314)">40</text>
     </g>
    </g>
    <g id="ytick_4">
     <g id="line2d_13">
      <path d="M 35.96 52.76207 
L 211 52.76207 
" clip-path="url(#p29a0fda6c0)" style="fill: none; stroke-dasharray: 2.96,1.28; stroke-dashoffset: 0; stroke: var(--grid-color); stroke-width: 0.8"/>
     </g>
     <g id="line2d_14">
      <g>
       <use xlink:href="#m458051d9bd" x="35.96" y="52.76207" style="fill: var(--fg-color); stroke: var(--fg-color); stroke-width: 0.8"/>
      </g>
     </g>
     <g id="text_7">
      <text style="font-size: 7px; font-family: 'DejaVu Sans', 'Bitstream Vera Sans', 'Computer Modern Sans Serif', 'Lucida Grande', 'Verdana', 'Geneva', 'Lucid', 'Arial', 'Helvetica', 'Avant Garde', sans-serif; text-anchor: end; fill: var(--fg-color)" x="28.96" y="55.42125" transform="rotate(-0 28.96 55.42125)">60</text>
     </g>
    </g>
    <g id="ytick_5">
     <g id="line2d_15">
      <path d="M 35.96 36.904006 
L 211 36.904006 
" clip-path="url(#p29a0fda6c0)" style="fill: none; stroke-dasharray: 2.96,1.28; stroke-dashoffset: 0; stroke: var(--grid-color); stroke-width: 0.8"/>
     </g>
     <g id="line2d_16">
      <g>
       <use xlink:href="#m458051d9bd" x="35.96" y="36.904006" style="fill: var(--fg-color); stroke: var(--fg-color); stroke-width: 0.8"/>
      </g>
     </g>
     <g id="text_8">
      <text style="font-size: 7px; font-family: 'DejaVu Sans', 'Bitstream Vera Sans', 'Computer Modern Sans Serif', 'Lucida Grande', 'Verdana', 'Geneva', 'Lucid', 'Arial', 'Helvetica', 'Avant Garde', sans-serif; text-anchor: end; fill: var(--fg-color)" x="28.96" y="39.563186" transform="rotate(-0 28.96 39.563186)">80</text>
     </g>
    </g>
    <g id="ytick_6">
     <g id="line2d_17">
      <path d="M 35.96 21.045942 
L 211 21.045942 
" clip-path="url(#p29a0fda6c0)" style="fill: none; stroke-dasharray: 2.96,1.28; stroke-dashoffset: 0; stroke: var(--grid-color); stroke-width: 0.8"/>
     </g>
     <g id="line2d_18">
      <g>
       <use xlink:href="#m458051d9bd" x="35.96" y="21.045942" style="fill: var(--fg-color); stroke: var(--fg-color); stroke-width: 0.8"/>
      </g>
     </g>
     <g id="text_9">
      <text style="font-size: 7px; font-family: 'DejaVu Sans', 'Bitstream Vera Sans', 'Computer Modern Sans Serif', 'Lucida Grande', 'Verdana', 'Geneva', 'Lucid', 'Arial', 'Helvetica', 'Avant Garde', sans-serif; text-anchor: end; fill: var(--fg-color)" x="28.96" y="23.705122" transform="rotate(-0 28.96 23.705122)">100</text>
     </g>
    </g>
    <g id="ytick_7">
     <g id="line2d_19">
      <path d="M 35.96 5.187878 
L 211 5.187878 
" clip-path="url(#p29a0fda6c0)" style="fill: none; stroke-dasharray: 2.96,1.28; stroke-dashoffset: 0; stroke: var(--grid-color); stroke-width: 0.8"/>
     </g>
     <g id="line2d_20">
      <g>
       <use xlink:href="#m458051d9bd" x="35.96" y="5.187878" style="fill: var(--fg-color); stroke: var(--fg-color); stroke-width: 0.8"/>
      </g>
     </g>
     <g id="text_10">
      <text style="font-size: 7px; font-family: 'DejaVu Sans', 'Bitstream Vera Sans', 'Computer Modern Sans Serif', 'Lucida Grande', 'Verdana', 'Geneva', 'Lucid', 'Arial', 'Helvetica', 'Avant Garde', sans-serif; text-anchor: end; fill: var(--fg-color)" x="28.96" y="7.847058" transform="rotate(-0 28.96 7.847058)">120</text>
     </g>
    </g>
    <g id="text_11">
     <text style="font-size: 7px; font-family: 'DejaVu Sans', 'Bitstream Vera Sans', 'Computer Modern Sans Serif', 'Lucida Grande', 'Verdana', 'Geneva', 'Lucid', 'Arial', 'Helvetica', 'Avant Garde', sans-serif; text-anchor: middle; fill: var(--fg-color)" x="9.917109" y="54.2" transform="rotate(-90 9.917109 54.2)">ms</text>
    </g>
   </g>
   <g id="line2d_21">
    <path d="M 43.916364 20.960309 
L 44.468628 27.615145 
L 45.3595 22.942567 
L 46.250371 24.42371 
L 47.141245 23.61257 
L 48.032112 27.733288 
L 48.922979 27.899005 
L 49.81384 25.689183 
L 50.704717 29.399177 
L 51.595589 25.004908 
L 52.486458 31.965805 
L 53.377327 23.71089 
L 54.268192 30.104068 
L 55.159063 14.041435 
L 56.049934 29.266763 
L 56.940797 21.244168 
L 57.831669 29.989097 
L 58.722538 27.859359 
L 59.613407 22.407357 
L 60.504275 27.769761 
L 61.395144 27.519204 
L 62.286016 19.064477 
L 63.176879 29.778185 
L 64.067746 31.753307 
L 64.958622 23.438131 
L 65.84949 27.84588 
L 66.740361 25.388673 
L 67.631226 30.322117 
L 68.522078 27.087865 
L 69.412965 17.619015 
L 70.30383 31.030972 
L 71.194705 22.111604 
L 72.085571 28.096437 
L 72.976442 32.532731 
L 73.867306 18.77031 
L 74.758184 24.566432 
L 75.649039 27.535855 
L 76.539914 32.549382 
L 77.430784 29.598989 
L 78.321655 18.650582 
L 79.212509 25.502058 
L 80.103391 12.116267 
L 80.994245 25.506023 
L 81.885129 29.657664 
L 82.775998 25.995244 
L 83.666869 26.716786 
L 84.557735 22.935431 
L 85.44861 22.077509 
L 94.53997 9.472727 
L 95.248438 24.1343 
L 96.139324 20.163441 
L 97.030192 14.461674 
L 97.921065 31.323553 
L 98.811931 20.923042 
L 99.702798 33.141681 
L 100.593666 32.697655 
L 101.484533 32.987857 
L 102.375401 23.491256 
L 103.266272 29.22236 
L 104.157138 14.912043 
L 105.048009 28.299421 
L 105.93888 26.948314 
L 106.829748 32.830862 
L 107.720614 31.172902 
L 108.611487 31.506714 
L 109.502352 21.583531 
L 110.393224 24.119235 
L 111.284094 29.476089 
L 112.17496 30.802616 
L 113.065834 28.812429 
L 113.956695 33.611079 
L 114.847564 28.723624 
L 115.738441 32.356706 
L 116.629309 31.134843 
L 117.520178 14.547308 
L 119.301913 24.279402 
L 120.192782 30.395857 
L 121.083649 28.727588 
L 121.97452 22.379605 
L 125.537994 20.70658 
L 126.428869 27.336043 
L 127.319734 29.334952 
L 128.210603 30.826403 
L 129.101474 28.279598 
L 129.992342 25.022352 
L 130.883214 20.226873 
L 131.774065 28.461966 
L 132.664946 26.636703 
L 133.55582 22.236883 
L 134.446686 19.805049 
L 135.337558 16.926017 
L 136.228424 21.300464 
L 137.119294 17.663417 
L 138.010159 27.638139 
L 138.901032 26.664454 
L 139.791912 23.128899 
L 140.68277 26.447199 
L 141.57364 26.620845 
L 142.464507 22.310623 
L 143.355376 25.017594 
L 144.246246 25.40136 
L 145.137113 24.665545 
L 146.027984 26.823035 
L 146.918849 19.338822 
L 173.644977 19.338822 
L 181.959197 23.657765 
L 182.553652 29.190644 
L 183.444521 25.545668 
L 184.335387 16.349577 
L 185.226256 19.230194 
L 186.117131 21.492347 
L 187.007996 20.126967 
L 187.898864 25.694734 
L 188.789731 23.921802 
L 189.680603 22.514399 
L 190.571474 18.599043 
L 191.462343 26.197434 
L 192.353215 25.659846 
L 193.244077 23.921009 
L 194.134949 21.731804 
L 195.025817 27.082314 
L 195.916688 15.19511 
L 196.807557 14.154821 
L 197.698426 27.887904 
L 198.589295 22.819667 
L 199.480162 21.329802 
L 200.371032 26.938799 
L 201.261898 29.262005 
L 202.152766 33.841814 
L 203.043636 27.858567 
L 203.043636 27.858567 
" clip-path="url(#p29a0fda6c0)" style="fill: none; stroke: #339af0; stroke-width: 1.2; stroke-linecap: square"/>
   </g>
   <g id="line2d_22">
    <path d="M 43.916364 98.798822 
L 45.3595 98.771071 
L 48.922979 98.771864 
L 49.81384 98.666408 
L 50.704717 98.840846 
L 53.377327 98.758384 
L 56.049934 98.775828 
L 56.940797 98.690195 
L 57.831669 97.975789 
L 58.722538 97.513526 
L 59.613407 98.758384 
L 61.395144 98.801994 
L 62.286016 97.956759 
L 63.176879 98.832917 
L 64.958622 98.755213 
L 65.84949 97.251075 
L 66.740361 97.565065 
L 67.631226 98.82816 
L 68.522078 98.719532 
L 69.412965 98.370655 
L 70.30383 98.844018 
L 71.194705 98.419022 
L 72.085571 98.817852 
L 73.867306 98.726668 
L 74.758184 98.703674 
L 75.649039 98.917758 
L 78.321655 98.658479 
L 79.212509 98.070937 
L 80.103391 98.789308 
L 80.994245 97.830688 
L 81.885129 98.816266 
L 85.44861 98.715568 
L 94.53997 98.585531 
L 95.248438 98.9019 
L 96.139324 98.373826 
L 97.030192 98.893178 
L 97.921065 97.809279 
L 98.811931 98.590289 
L 100.593666 98.375412 
L 101.484533 98.819438 
L 102.375401 98.739355 
L 103.266272 97.908392 
L 104.157138 98.756006 
L 108.611487 98.802787 
L 110.393224 98.685437 
L 111.284094 98.835296 
L 113.065834 98.757591 
L 113.956695 98.9019 
L 114.847564 97.109146 
L 115.738441 98.887628 
L 118.41104 98.828953 
L 119.301913 98.695745 
L 121.083649 98.854326 
L 121.97452 98.779793 
L 125.537994 98.648964 
L 126.428869 98.804373 
L 127.319734 98.623591 
L 129.101474 98.848775 
L 129.992342 98.71081 
L 130.883214 97.936144 
L 131.774065 98.826574 
L 132.664946 98.721911 
L 133.55582 98.787722 
L 134.446686 98.220003 
L 135.337558 98.668786 
L 136.228424 97.484189 
L 137.119294 98.712396 
L 138.010159 98.762349 
L 138.901032 98.663236 
L 139.791912 96.973559 
L 140.68277 98.717946 
L 141.57364 98.751248 
L 143.355376 98.143884 
L 144.246246 98.727461 
L 145.137113 98.690195 
L 146.918849 98.140713 
L 173.644977 98.140713 
L 181.959197 97.956759 
L 182.553652 98.782964 
L 183.444521 98.687816 
L 184.335387 97.553171 
L 185.226256 97.446922 
L 186.117131 98.706053 
L 187.007996 98.682266 
L 187.898864 96.982281 
L 189.680603 98.433294 
L 190.571474 98.766313 
L 191.462343 98.77345 
L 192.353215 98.656893 
L 193.244077 98.725875 
L 194.134949 98.579188 
L 195.025817 98.726668 
L 195.916688 97.676071 
L 196.807557 97.685586 
L 197.698426 98.584739 
L 198.589295 98.614076 
L 199.480162 96.355095 
L 200.371032 98.64262 
L 201.261898 98.760763 
L 202.152766 98.746491 
L 203.043636 97.944866 
L 203.043636 97.944866 
" clip-path="url(#p29a0fda6c0)" style="fill: none; stroke: #ff6b6b; stroke-width: 1.2; stroke-linecap: square"/>
   </g>
   <g id="patch_3">
    <path d="M 35.96 103.4 
L 35.96 5 
" style="fill: none; stroke: var(--fg-color); stroke-width: 0.8; stroke-linejoin: miter; stroke-linecap: square"/>
   </g>
   <g id="patch_4">
    <path d="M 35.96 103.4 
L 211 103.4 
" style="fill: none; stroke: var(--fg-color); stroke-width: 0.8; stroke-linejoin: miter; stroke-linecap: square"/>
   </g>
  </g>
 </g>
 <defs>
  <clipPath id="p29a0fda6c0">
   <rect x="35.96" y="5" width="175.04" height="98.4"/>
  </clipPath>
 </defs>
</svg>
