<?xml version="1.0" encoding="utf-8" standalone="no"?>
<!DOCTYPE svg PUBLIC "-//W3C//DTD SVG 1.1//EN"
  "http://www.w3.org/Graphics/SVG/1.1/DTD/svg11.dtd">
<svg xmlns:xlink="http://www.w3.org/1999/xlink" width="216pt" height="122.4pt" viewBox="0 0 216 122.4" xmlns="http://www.w3.org/2000/svg" version="1.1">
  <style>
    :root {
      --fg-color: #212529;
      --grid-color: rgba(33, 37, 41, 0.1);
    }
    @media (prefers-color-scheme: dark) {
      :root {
        --fg-color: #dee2e6;
        --grid-color: rgba(248, 249, 250, 0.15);
      }
    }
  </style>

 <metadata>
  <rdf:RDF xmlns:dc="http://purl.org/dc/elements/1.1/" xmlns:cc="http://creativecommons.org/ns#" xmlns:rdf="http://www.w3.org/1999/02/22-rdf-syntax-ns#">
   <cc:Work>
    <dc:type rdf:resource="http://purl.org/dc/dcmitype/StillImage"/>
    <dc:date>2026-06-30T04:49:24.166916</dc:date>
    <dc:format>image/svg+xml</dc:format>
    <dc:creator>
     <cc:Agent>
      <dc:title>Matplotlib v3.11.0, https://matplotlib.org/</dc:title>
     </cc:Agent>
    </dc:creator>
   </cc:Work>
  </rdf:RDF>
 </metadata>
 <defs>
  <style type="text/css">*{stroke-linejoin: round; stroke-linecap: butt}</style>
 </defs>
 <g id="figure_1">
  <g id="patch_1">
   <path d="M 0 122.4 
L 216 122.4 
L 216 0 
L 0 0 
L 0 122.4 
z
" style="fill: none; opacity: 0"/>
  </g>
  <g id="axes_1">
   <g id="patch_2">
    <path d="M 35.96 103.4 
L 211 103.4 
L 211 5 
L 35.96 5 
L 35.96 103.4 
z
" style="fill: none; opacity: 0"/>
   </g>
   <g id="matplotlib.axis_1">
    <g id="xtick_1">
     <g id="line2d_1">
      <path d="M 72.056377 103.4 
L 72.056377 5 
" clip-path="url(#pb93128ff2d)" style="fill: none; stroke-dasharray: 2.96,1.28; stroke-dashoffset: 0; stroke: var(--grid-color); stroke-width: 0.8"/>
     </g>
     <g id="line2d_2">
      <defs>
       <path id="m925d5e203b" d="M 0 0 
L 0 3.5 
" style="stroke: var(--fg-color); stroke-width: 0.8"/>
      </defs>
      <g>
       <use xlink:href="#m925d5e203b" x="72.056377" y="103.4" style="fill: var(--fg-color); stroke: var(--fg-color); stroke-width: 0.8"/>
      </g>
     </g>
     <g id="text_1">
      <text style="font-size: 7px; font-family: 'DejaVu Sans', 'Bitstream Vera Sans', 'Computer Modern Sans Serif', 'Lucida Grande', 'Verdana', 'Geneva', 'Lucid', 'Arial', 'Helvetica', 'Avant Garde', sans-serif; text-anchor: middle; fill: var(--fg-color)" x="72.056377" y="115.718359" transform="rotate(-0 72.056377 115.718359)">02/2026</text>
     </g>
    </g>
    <g id="xtick_2">
     <g id="line2d_3">
      <path d="M 126.640628 103.4 
L 126.640628 5 
" clip-path="url(#pb93128ff2d)" style="fill: none; stroke-dasharray: 2.96,1.28; stroke-dashoffset: 0; stroke: var(--grid-color); stroke-width: 0.8"/>
     </g>
     <g id="line2d_4">
      <g>
       <use xlink:href="#m925d5e203b" x="126.640628" y="103.4" style="fill: var(--fg-color); stroke: var(--fg-color); stroke-width: 0.8"/>
      </g>
     </g>
     <g id="text_2">
      <text style="font-size: 7px; font-family: 'DejaVu Sans', 'Bitstream Vera Sans', 'Computer Modern Sans Serif', 'Lucida Grande', 'Verdana', 'Geneva', 'Lucid', 'Arial', 'Helvetica', 'Avant Garde', sans-serif; text-anchor: middle; fill: var(--fg-color)" x="126.640628" y="115.718359" transform="rotate(-0 126.640628 115.718359)">04/2026</text>
     </g>
    </g>
    <g id="xtick_3">
     <g id="line2d_5">
      <path d="M 183.075192 103.4 
L 183.075192 5 
" clip-path="url(#pb93128ff2d)" style="fill: none; stroke-dasharray: 2.96,1.28; stroke-dashoffset: 0; stroke: var(--grid-color); stroke-width: 0.8"/>
     </g>
     <g id="line2d_6">
      <g>
       <use xlink:href="#m925d5e203b" x="183.075192" y="103.4" style="fill: var(--fg-color); stroke: var(--fg-color); stroke-width: 0.8"/>
      </g>
     </g>
     <g id="text_3">
      <text style="font-size: 7px; font-family: 'DejaVu Sans', 'Bitstream Vera Sans', 'Computer Modern Sans Serif', 'Lucida Grande', 'Verdana', 'Geneva', 'Lucid', 'Arial', 'Helvetica', 'Avant Garde', sans-serif; text-anchor: middle; fill: var(--fg-color)" x="183.075192" y="115.718359" transform="rotate(-0 183.075192 115.718359)">06/2026</text>
     </g>
    </g>
   </g>
   <g id="matplotlib.axis_2">
    <g id="ytick_1">
     <g id="line2d_7">
      <path d="M 35.96 92.270564 
L 211 92.270564 
" clip-path="url(#pb93128ff2d)" style="fill: none; stroke-dasharray: 2.96,1.28; stroke-dashoffset: 0; stroke: var(--grid-color); stroke-width: 0.8"/>
     </g>
     <g id="line2d_8">
      <defs>
       <path id="m07e89090ce" d="M 0 0 
L -3.5 0 
" style="stroke: var(--fg-color); stroke-width: 0.8"/>
      </defs>
      <g>
       <use xlink:href="#m07e89090ce" x="35.96" y="92.270564" style="fill: var(--fg-color); stroke: var(--fg-color); stroke-width: 0.8"/>
      </g>
     </g>
     <g id="text_4">
      <text style="font-size: 7px; font-family: 'DejaVu Sans', 'Bitstream Vera Sans', 'Computer Modern Sans Serif', 'Lucida Grande', 'Verdana', 'Geneva', 'Lucid', 'Arial', 'Helvetica', 'Avant Garde', sans-serif; text-anchor: end; fill: var(--fg-color)" x="28.96" y="94.929744" transform="rotate(-0 28.96 94.929744)">50</text>
     </g>
    </g>
    <g id="ytick_2">
     <g id="line2d_9">
      <path d="M 35.96 75.5216 
L 211 75.5216 
" clip-path="url(#pb93128ff2d)" style="fill: none; stroke-dasharray: 2.96,1.28; stroke-dashoffset: 0; stroke: var(--grid-color); stroke-width: 0.8"/>
     </g>
     <g id="line2d_10">
      <g>
       <use xlink:href="#m07e89090ce" x="35.96" y="75.5216" style="fill: var(--fg-color); stroke: var(--fg-color); stroke-width: 0.8"/>
      </g>
     </g>
     <g id="text_5">
      <text style="font-size: 7px; font-family: 'DejaVu Sans', 'Bitstream Vera Sans', 'Computer Modern Sans Serif', 'Lucida Grande', 'Verdana', 'Geneva', 'Lucid', 'Arial', 'Helvetica', 'Avant Garde', sans-serif; text-anchor: end; fill: var(--fg-color)" x="28.96" y="78.180779" transform="rotate(-0 28.96 78.180779)">100</text>
     </g>
    </g>
    <g id="ytick_3">
     <g id="line2d_11">
      <path d="M 35.96 58.772635 
L 211 58.772635 
" clip-path="url(#pb93128ff2d)" style="fill: none; stroke-dasharray: 2.96,1.28; stroke-dashoffset: 0; stroke: var(--grid-color); stroke-width: 0.8"/>
     </g>
     <g id="line2d_12">
      <g>
       <use xlink:href="#m07e89090ce" x="35.96" y="58.772635" style="fill: var(--fg-color); stroke: var(--fg-color); stroke-width: 0.8"/>
      </g>
     </g>
     <g id="text_6">
      <text style="font-size: 7px; font-family: 'DejaVu Sans', 'Bitstream Vera Sans', 'Computer Modern Sans Serif', 'Lucida Grande', 'Verdana', 'Geneva', 'Lucid', 'Arial', 'Helvetica', 'Avant Garde', sans-serif; text-anchor: end; fill: var(--fg-color)" x="28.96" y="61.431815" transform="rotate(-0 28.96 61.431815)">150</text>
     </g>
    </g>
    <g id="ytick_4">
     <g id="line2d_13">
      <path d="M 35.96 42.02367 
L 211 42.02367 
" clip-path="url(#pb93128ff2d)" style="fill: none; stroke-dasharray: 2.96,1.28; stroke-dashoffset: 0; stroke: var(--grid-color); stroke-width: 0.8"/>
     </g>
     <g id="line2d_14">
      <g>
       <use xlink:href="#m07e89090ce" x="35.96" y="42.02367" style="fill: var(--fg-color); stroke: var(--fg-color); stroke-width: 0.8"/>
      </g>
     </g>
     <g id="text_7">
      <text style="font-size: 7px; font-family: 'DejaVu Sans', 'Bitstream Vera Sans', 'Computer Modern Sans Serif', 'Lucida Grande', 'Verdana', 'Geneva', 'Lucid', 'Arial', 'Helvetica', 'Avant Garde', sans-serif; text-anchor: end; fill: var(--fg-color)" x="28.96" y="44.68285" transform="rotate(-0 28.96 44.68285)">200</text>
     </g>
    </g>
    <g id="ytick_5">
     <g id="line2d_15">
      <path d="M 35.96 25.274705 
L 211 25.274705 
" clip-path="url(#pb93128ff2d)" style="fill: none; stroke-dasharray: 2.96,1.28; stroke-dashoffset: 0; stroke: var(--grid-color); stroke-width: 0.8"/>
     </g>
     <g id="line2d_16">
      <g>
       <use xlink:href="#m07e89090ce" x="35.96" y="25.274705" style="fill: var(--fg-color); stroke: var(--fg-color); stroke-width: 0.8"/>
      </g>
     </g>
     <g id="text_8">
      <text style="font-size: 7px; font-family: 'DejaVu Sans', 'Bitstream Vera Sans', 'Computer Modern Sans Serif', 'Lucida Grande', 'Verdana', 'Geneva', 'Lucid', 'Arial', 'Helvetica', 'Avant Garde', sans-serif; text-anchor: end; fill: var(--fg-color)" x="28.96" y="27.933885" transform="rotate(-0 28.96 27.933885)">250</text>
     </g>
    </g>
    <g id="ytick_6">
     <g id="line2d_17">
      <path d="M 35.96 8.525741 
L 211 8.525741 
" clip-path="url(#pb93128ff2d)" style="fill: none; stroke-dasharray: 2.96,1.28; stroke-dashoffset: 0; stroke: var(--grid-color); stroke-width: 0.8"/>
     </g>
     <g id="line2d_18">
      <g>
       <use xlink:href="#m07e89090ce" x="35.96" y="8.525741" style="fill: var(--fg-color); stroke: var(--fg-color); stroke-width: 0.8"/>
      </g>
     </g>
     <g id="text_9">
      <text style="font-size: 7px; font-family: 'DejaVu Sans', 'Bitstream Vera Sans', 'Computer Modern Sans Serif', 'Lucida Grande', 'Verdana', 'Geneva', 'Lucid', 'Arial', 'Helvetica', 'Avant Garde', sans-serif; text-anchor: end; fill: var(--fg-color)" x="28.96" y="11.18492" transform="rotate(-0 28.96 11.18492)">300</text>
     </g>
    </g>
    <g id="text_10">
     <text style="font-size: 7px; font-family: 'DejaVu Sans', 'Bitstream Vera Sans', 'Computer Modern Sans Serif', 'Lucida Grande', 'Verdana', 'Geneva', 'Lucid', 'Arial', 'Helvetica', 'Avant Garde', sans-serif; text-anchor: middle; fill: var(--fg-color)" x="9.917109" y="54.2" transform="rotate(-90 9.917109 54.2)">ms</text>
    </g>
   </g>
   <g id="line2d_19">
    <path d="M 43.916364 89.085246 
L 45.193108 91.907447 
L 45.766628 98.796296 
L 46.691788 97.11403 
L 47.616947 88.389494 
L 48.542109 84.128223 
L 49.467263 90.211781 
L 50.392418 96.481924 
L 51.317566 88.53789 
L 52.242732 91.384544 
L 53.167891 92.045458 
L 54.093049 90.63955 
L 55.018206 91.247202 
L 55.943359 92.149302 
L 56.868517 89.895896 
L 57.793676 96.952905 
L 58.718827 92.620283 
L 59.643987 94.661646 
L 60.569143 93.035992 
L 61.494301 94.310588 
L 62.419457 94.451614 
L 63.344613 85.142875 
L 64.269773 89.273504 
L 65.194924 92.302722 
L 66.120079 95.195938 
L 67.045243 92.850413 
L 67.970398 90.63821 
L 68.895557 93.065805 
L 69.82071 94.023176 
L 70.74585 92.527158 
L 71.671025 91.915486 
L 72.596178 91.20801 
L 73.521341 94.376579 
L 74.446495 88.747922 
L 75.371653 91.258592 
L 76.296805 96.05181 
L 77.221971 89.684859 
L 78.147114 88.045805 
L 79.072277 88.179797 
L 79.997435 88.319483 
L 80.922594 96.62764 
L 81.847735 91.250217 
L 82.772905 80.023386 
L 83.698046 89.965907 
L 84.623219 93.057431 
L 85.548376 88.433376 
L 86.473535 84.952607 
L 87.398688 86.756805 
L 88.323852 95.329595 
L 97.76512 93.356567 
L 98.500856 91.380189 
L 99.426031 95.415685 
L 100.351186 95.940932 
L 101.276348 84.837709 
L 102.201502 94.977532 
L 103.126656 88.650778 
L 104.051812 93.934741 
L 104.976967 96.038746 
L 105.902123 95.41535 
L 106.827282 97.59305 
L 107.752435 95.98515 
L 108.677594 93.894209 
L 109.602753 95.430089 
L 110.527909 91.698755 
L 111.453063 93.877125 
L 112.378223 92.481601 
L 113.303377 91.112876 
L 114.228537 93.22291 
L 115.153695 98.927273 
L 116.078848 93.281197 
L 117.004011 97.068138 
L 117.929158 97.229263 
L 118.854316 91.93458 
L 119.779481 94.430511 
L 120.704637 92.360004 
L 121.629794 91.776805 
L 122.554943 93.38437 
L 123.480104 92.686274 
L 124.405261 90.892794 
L 125.330416 90.846232 
L 126.255574 90.022183 
L 129.9562 82.998337 
L 130.881363 86.67976 
L 131.806516 78.762859 
L 132.731673 94.154488 
L 133.656831 86.18332 
L 134.581987 90.813404 
L 135.507147 96.180443 
L 136.432285 79.360797 
L 137.357455 83.392608 
L 138.282617 79.468326 
L 139.20777 87.73327 
L 140.13293 92.998474 
L 141.058084 92.895971 
L 141.983242 88.073274 
L 142.908395 91.093112 
L 143.833556 95.044193 
L 144.758724 80.485993 
L 145.683869 75.282759 
L 146.609028 83.085097 
L 147.534182 83.984181 
L 148.459339 89.414196 
L 149.384497 95.33931 
L 150.309651 90.933327 
L 151.234811 87.828404 
L 152.159963 84.088695 
L 179.91473 84.088695 
L 188.548948 93.159264 
L 189.166282 87.406665 
L 190.091439 87.659574 
L 191.016594 79.723245 
L 191.94175 90.753778 
L 192.866913 75.808342 
L 193.792066 80.298069 
L 194.717222 87.31756 
L 195.642377 84.965001 
L 196.567536 89.167986 
L 197.492695 71.607701 
L 198.417852 75.18528 
L 199.343013 77.586412 
L 200.268162 80.710429 
L 201.193322 85.106362 
L 202.118478 86.34612 
L 203.043636 87.605643 
" clip-path="url(#pb93128ff2d)" style="fill: none; stroke: #339af0; stroke-width: 1.2; stroke-linecap: square"/>
   </g>
   <g id="line2d_20">
    <path d="M 43.916364 21.318265 
L 45.193108 19.856415 
L 45.766628 21.673008 
L 46.691788 15.586099 
L 47.616947 17.212759 
L 48.542109 20.252696 
L 49.467263 19.528471 
L 50.392418 24.926662 
L 51.317566 22.096422 
L 52.242732 21.248254 
L 53.167891 24.670068 
L 54.093049 21.506858 
L 55.018206 21.461971 
L 55.943359 23.229657 
L 56.868517 20.936389 
L 57.793676 23.892581 
L 58.718827 21.88773 
L 59.643987 15.773688 
L 60.569143 22.114176 
L 61.494301 25.602985 
L 62.419457 22.473609 
L 63.344613 20.03295 
L 64.269773 22.983782 
L 65.194924 21.729955 
L 66.120079 18.577129 
L 67.045243 16.236629 
L 67.970398 20.633232 
L 68.895557 18.471276 
L 69.82071 15.478571 
L 70.74585 21.907159 
L 71.671025 22.602241 
L 72.596178 18.551336 
L 73.521341 20.768564 
L 74.446495 10.232795 
L 75.371653 21.170539 
L 76.296805 21.949701 
L 77.221971 18.036473 
L 78.147114 21.876006 
L 79.072277 20.220203 
L 79.997435 17.180601 
L 80.922594 23.633307 
L 81.847735 20.540443 
L 82.772905 22.698045 
L 83.698046 20.418846 
L 84.623219 20.346155 
L 85.548376 20.218863 
L 86.473535 26.762349 
L 87.398688 22.77509 
L 88.323852 17.652252 
L 97.76512 21.4814 
L 98.500856 21.47738 
L 99.426031 19.984378 
L 100.351186 20.331751 
L 101.276348 19.091323 
L 102.201502 19.45243 
L 103.126656 20.969217 
L 104.051812 20.814456 
L 104.976967 21.885385 
L 105.902123 20.309307 
L 106.827282 19.373375 
L 107.752435 20.357544 
L 108.677594 17.385273 
L 109.602753 23.166011 
L 110.527909 20.656681 
L 111.453063 25.103866 
L 112.378223 21.894094 
L 113.303377 9.472727 
L 114.228537 22.310139 
L 115.153695 19.007578 
L 116.078848 18.88866 
L 117.004011 19.602166 
L 117.929158 22.059239 
L 118.854316 17.458299 
L 119.779481 20.346825 
L 120.704637 19.577043 
L 121.629794 20.518669 
L 122.554943 20.561212 
L 123.480104 21.142736 
L 124.405261 22.405273 
L 125.330416 20.700563 
L 126.255574 22.744607 
L 129.9562 21.418089 
L 130.881363 22.225054 
L 131.806516 16.517007 
L 132.731673 22.198591 
L 133.656831 23.454093 
L 134.581987 21.445557 
L 135.507147 21.127327 
L 136.432285 20.416501 
L 137.357455 23.329146 
L 138.282617 22.411302 
L 139.20777 20.795362 
L 140.13293 17.312918 
L 141.058084 22.587502 
L 141.983242 23.906985 
L 142.908395 20.184025 
L 143.833556 23.596459 
L 144.758724 22.118196 
L 145.683869 27.034017 
L 146.609028 30.073954 
L 147.534182 29.138022 
L 148.459339 31.555232 
L 149.384497 24.988633 
L 150.309651 23.188119 
L 151.234811 25.591931 
L 152.159963 29.975805 
L 179.91473 29.975805 
L 188.548948 40.048967 
L 189.166282 24.837223 
L 190.091439 26.58213 
L 191.016594 34.919094 
L 191.94175 33.917171 
L 192.866913 37.671954 
L 193.792066 33.670627 
L 194.717222 30.707065 
L 195.642377 31.446364 
L 196.567536 27.133171 
L 197.492695 30.893983 
L 198.417852 25.712858 
L 199.343013 27.451401 
L 200.268162 28.395708 
L 201.193322 35.47248 
L 202.118478 34.858798 
L 203.043636 23.409206 
" clip-path="url(#pb93128ff2d)" style="fill: none; stroke: #ff6b6b; stroke-width: 1.2; stroke-linecap: square"/>
   </g>
   <g id="patch_3">
    <path d="M 35.96 103.4 
L 35.96 5 
" style="fill: none; stroke: var(--fg-color); stroke-width: 0.8; stroke-linejoin: miter; stroke-linecap: square"/>
   </g>
   <g id="patch_4">
    <path d="M 35.96 103.4 
L 211 103.4 
" style="fill: none; stroke: var(--fg-color); stroke-width: 0.8; stroke-linejoin: miter; stroke-linecap: square"/>
   </g>
  </g>
 </g>
 <defs>
  <clipPath id="pb93128ff2d">
   <rect x="35.96" y="5" width="175.04" height="98.4"/>
  </clipPath>
 </defs>
</svg>
