<?xml version="1.0" encoding="utf-8" standalone="no"?>
<!DOCTYPE svg PUBLIC "-//W3C//DTD SVG 1.1//EN"
  "http://www.w3.org/Graphics/SVG/1.1/DTD/svg11.dtd">
<svg xmlns:xlink="http://www.w3.org/1999/xlink" width="216pt" height="122.4pt" viewBox="0 0 216 122.4" xmlns="http://www.w3.org/2000/svg" version="1.1">
  <style>
    :root {
      --fg-color: #212529;
      --grid-color: rgba(33, 37, 41, 0.1);
    }
    @media (prefers-color-scheme: dark) {
      :root {
        --fg-color: #dee2e6;
        --grid-color: rgba(248, 249, 250, 0.15);
      }
    }
  </style>

 <metadata>
  <rdf:RDF xmlns:dc="http://purl.org/dc/elements/1.1/" xmlns:cc="http://creativecommons.org/ns#" xmlns:rdf="http://www.w3.org/1999/02/22-rdf-syntax-ns#">
   <cc:Work>
    <dc:type rdf:resource="http://purl.org/dc/dcmitype/StillImage"/>
    <dc:date>2026-06-30T04:49:13.094590</dc:date>
    <dc:format>image/svg+xml</dc:format>
    <dc:creator>
     <cc:Agent>
      <dc:title>Matplotlib v3.11.0, https://matplotlib.org/</dc:title>
     </cc:Agent>
    </dc:creator>
   </cc:Work>
  </rdf:RDF>
 </metadata>
 <defs>
  <style type="text/css">*{stroke-linejoin: round; stroke-linecap: butt}</style>
 </defs>
 <g id="figure_1">
  <g id="patch_1">
   <path d="M 0 122.4 
L 216 122.4 
L 216 0 
L 0 0 
L 0 122.4 
z
" style="fill: none; opacity: 0"/>
  </g>
  <g id="axes_1">
   <g id="patch_2">
    <path d="M 40.28 103.4 
L 211 103.4 
L 211 5 
L 40.28 5 
L 40.28 103.4 
z
" style="fill: none; opacity: 0"/>
   </g>
   <g id="matplotlib.axis_1">
    <g id="xtick_1">
     <g id="line2d_1">
      <path d="M 74.452198 103.4 
L 74.452198 5 
" clip-path="url(#p03d4b0fc37)" style="fill: none; stroke-dasharray: 2.96,1.28; stroke-dashoffset: 0; stroke: var(--grid-color); stroke-width: 0.8"/>
     </g>
     <g id="line2d_2">
      <defs>
       <path id="m7183dbc6ce" d="M 0 0 
L 0 3.5 
" style="stroke: var(--fg-color); stroke-width: 0.8"/>
      </defs>
      <g>
       <use xlink:href="#m7183dbc6ce" x="74.452198" y="103.4" style="fill: var(--fg-color); stroke: var(--fg-color); stroke-width: 0.8"/>
      </g>
     </g>
     <g id="text_1">
      <text style="font-size: 7px; font-family: 'DejaVu Sans', 'Bitstream Vera Sans', 'Computer Modern Sans Serif', 'Lucida Grande', 'Verdana', 'Geneva', 'Lucid', 'Arial', 'Helvetica', 'Avant Garde', sans-serif; text-anchor: middle; fill: var(--fg-color)" x="74.452198" y="115.718359" transform="rotate(-0 74.452198 115.718359)">02/2026</text>
     </g>
    </g>
    <g id="xtick_2">
     <g id="line2d_3">
      <path d="M 128.119903 103.4 
L 128.119903 5 
" clip-path="url(#p03d4b0fc37)" style="fill: none; stroke-dasharray: 2.96,1.28; stroke-dashoffset: 0; stroke: var(--grid-color); stroke-width: 0.8"/>
     </g>
     <g id="line2d_4">
      <g>
       <use xlink:href="#m7183dbc6ce" x="128.119903" y="103.4" style="fill: var(--fg-color); stroke: var(--fg-color); stroke-width: 0.8"/>
      </g>
     </g>
     <g id="text_2">
      <text style="font-size: 7px; font-family: 'DejaVu Sans', 'Bitstream Vera Sans', 'Computer Modern Sans Serif', 'Lucida Grande', 'Verdana', 'Geneva', 'Lucid', 'Arial', 'Helvetica', 'Avant Garde', sans-serif; text-anchor: middle; fill: var(--fg-color)" x="128.119903" y="115.718359" transform="rotate(-0 128.119903 115.718359)">04/2026</text>
     </g>
    </g>
    <g id="xtick_3">
     <g id="line2d_5">
      <path d="M 183.606853 103.4 
L 183.606853 5 
" clip-path="url(#p03d4b0fc37)" style="fill: none; stroke-dasharray: 2.96,1.28; stroke-dashoffset: 0; stroke: var(--grid-color); stroke-width: 0.8"/>
     </g>
     <g id="line2d_6">
      <g>
       <use xlink:href="#m7183dbc6ce" x="183.606853" y="103.4" style="fill: var(--fg-color); stroke: var(--fg-color); stroke-width: 0.8"/>
      </g>
     </g>
     <g id="text_3">
      <text style="font-size: 7px; font-family: 'DejaVu Sans', 'Bitstream Vera Sans', 'Computer Modern Sans Serif', 'Lucida Grande', 'Verdana', 'Geneva', 'Lucid', 'Arial', 'Helvetica', 'Avant Garde', sans-serif; text-anchor: middle; fill: var(--fg-color)" x="183.606853" y="115.718359" transform="rotate(-0 183.606853 115.718359)">06/2026</text>
     </g>
    </g>
   </g>
   <g id="matplotlib.axis_2">
    <g id="ytick_1">
     <g id="line2d_7">
      <path d="M 40.28 99.42901 
L 211 99.42901 
" clip-path="url(#p03d4b0fc37)" style="fill: none; stroke-dasharray: 2.96,1.28; stroke-dashoffset: 0; stroke: var(--grid-color); stroke-width: 0.8"/>
     </g>
     <g id="line2d_8">
      <defs>
       <path id="m30ca30f6b5" d="M 0 0 
L -3.5 0 
" style="stroke: var(--fg-color); stroke-width: 0.8"/>
      </defs>
      <g>
       <use xlink:href="#m30ca30f6b5" x="40.28" y="99.42901" style="fill: var(--fg-color); stroke: var(--fg-color); stroke-width: 0.8"/>
      </g>
     </g>
     <g id="text_4">
      <text style="font-size: 7px; font-family: 'DejaVu Sans', 'Bitstream Vera Sans', 'Computer Modern Sans Serif', 'Lucida Grande', 'Verdana', 'Geneva', 'Lucid', 'Arial', 'Helvetica', 'Avant Garde', sans-serif; text-anchor: end; fill: var(--fg-color)" x="33.28" y="102.088189" transform="rotate(-0 33.28 102.088189)">0</text>
     </g>
    </g>
    <g id="ytick_2">
     <g id="line2d_9">
      <path d="M 40.28 82.729494 
L 211 82.729494 
" clip-path="url(#p03d4b0fc37)" style="fill: none; stroke-dasharray: 2.96,1.28; stroke-dashoffset: 0; stroke: var(--grid-color); stroke-width: 0.8"/>
     </g>
     <g id="line2d_10">
      <g>
       <use xlink:href="#m30ca30f6b5" x="40.28" y="82.729494" style="fill: var(--fg-color); stroke: var(--fg-color); stroke-width: 0.8"/>
      </g>
     </g>
     <g id="text_5">
      <text style="font-size: 7px; font-family: 'DejaVu Sans', 'Bitstream Vera Sans', 'Computer Modern Sans Serif', 'Lucida Grande', 'Verdana', 'Geneva', 'Lucid', 'Arial', 'Helvetica', 'Avant Garde', sans-serif; text-anchor: end; fill: var(--fg-color)" x="33.28" y="85.388674" transform="rotate(-0 33.28 85.388674)">200</text>
     </g>
    </g>
    <g id="ytick_3">
     <g id="line2d_11">
      <path d="M 40.28 66.029979 
L 211 66.029979 
" clip-path="url(#p03d4b0fc37)" style="fill: none; stroke-dasharray: 2.96,1.28; stroke-dashoffset: 0; stroke: var(--grid-color); stroke-width: 0.8"/>
     </g>
     <g id="line2d_12">
      <g>
       <use xlink:href="#m30ca30f6b5" x="40.28" y="66.029979" style="fill: var(--fg-color); stroke: var(--fg-color); stroke-width: 0.8"/>
      </g>
     </g>
     <g id="text_6">
      <text style="font-size: 7px; font-family: 'DejaVu Sans', 'Bitstream Vera Sans', 'Computer Modern Sans Serif', 'Lucida Grande', 'Verdana', 'Geneva', 'Lucid', 'Arial', 'Helvetica', 'Avant Garde', sans-serif; text-anchor: end; fill: var(--fg-color)" x="33.28" y="68.689158" transform="rotate(-0 33.28 68.689158)">400</text>
     </g>
    </g>
    <g id="ytick_4">
     <g id="line2d_13">
      <path d="M 40.28 49.330463 
L 211 49.330463 
" clip-path="url(#p03d4b0fc37)" style="fill: none; stroke-dasharray: 2.96,1.28; stroke-dashoffset: 0; stroke: var(--grid-color); stroke-width: 0.8"/>
     </g>
     <g id="line2d_14">
      <g>
       <use xlink:href="#m30ca30f6b5" x="40.28" y="49.330463" style="fill: var(--fg-color); stroke: var(--fg-color); stroke-width: 0.8"/>
      </g>
     </g>
     <g id="text_7">
      <text style="font-size: 7px; font-family: 'DejaVu Sans', 'Bitstream Vera Sans', 'Computer Modern Sans Serif', 'Lucida Grande', 'Verdana', 'Geneva', 'Lucid', 'Arial', 'Helvetica', 'Avant Garde', sans-serif; text-anchor: end; fill: var(--fg-color)" x="33.28" y="51.989643" transform="rotate(-0 33.28 51.989643)">600</text>
     </g>
    </g>
    <g id="ytick_5">
     <g id="line2d_15">
      <path d="M 40.28 32.630947 
L 211 32.630947 
" clip-path="url(#p03d4b0fc37)" style="fill: none; stroke-dasharray: 2.96,1.28; stroke-dashoffset: 0; stroke: var(--grid-color); stroke-width: 0.8"/>
     </g>
     <g id="line2d_16">
      <g>
       <use xlink:href="#m30ca30f6b5" x="40.28" y="32.630947" style="fill: var(--fg-color); stroke: var(--fg-color); stroke-width: 0.8"/>
      </g>
     </g>
     <g id="text_8">
      <text style="font-size: 7px; font-family: 'DejaVu Sans', 'Bitstream Vera Sans', 'Computer Modern Sans Serif', 'Lucida Grande', 'Verdana', 'Geneva', 'Lucid', 'Arial', 'Helvetica', 'Avant Garde', sans-serif; text-anchor: end; fill: var(--fg-color)" x="33.28" y="35.290127" transform="rotate(-0 33.28 35.290127)">800</text>
     </g>
    </g>
    <g id="ytick_6">
     <g id="line2d_17">
      <path d="M 40.28 15.931432 
L 211 15.931432 
" clip-path="url(#p03d4b0fc37)" style="fill: none; stroke-dasharray: 2.96,1.28; stroke-dashoffset: 0; stroke: var(--grid-color); stroke-width: 0.8"/>
     </g>
     <g id="line2d_18">
      <g>
       <use xlink:href="#m30ca30f6b5" x="40.28" y="15.931432" style="fill: var(--fg-color); stroke: var(--fg-color); stroke-width: 0.8"/>
      </g>
     </g>
     <g id="text_9">
      <text style="font-size: 7px; font-family: 'DejaVu Sans', 'Bitstream Vera Sans', 'Computer Modern Sans Serif', 'Lucida Grande', 'Verdana', 'Geneva', 'Lucid', 'Arial', 'Helvetica', 'Avant Garde', sans-serif; text-anchor: end; fill: var(--fg-color)" x="33.28" y="18.590612" transform="rotate(-0 33.28 18.590612)">1000</text>
     </g>
    </g>
    <g id="text_10">
     <text style="font-size: 7px; font-family: 'DejaVu Sans', 'Bitstream Vera Sans', 'Computer Modern Sans Serif', 'Lucida Grande', 'Verdana', 'Geneva', 'Lucid', 'Arial', 'Helvetica', 'Avant Garde', sans-serif; text-anchor: middle; fill: var(--fg-color)" x="9.783359" y="54.2" transform="rotate(-90 9.783359 54.2)">ms</text>
    </g>
   </g>
   <g id="line2d_19">
    <path d="M 48.04 85.749101 
L 48.60389 85.823831 
L 49.513516 87.337391 
L 50.42314 81.898443 
L 51.332767 86.949879 
L 52.242387 87.156285 
L 53.152007 85.420955 
L 54.061621 85.606988 
L 54.971251 87.744943 
L 55.880876 86.682353 
L 56.790499 87.931894 
L 57.700121 87.229012 
L 58.609739 87.041894 
L 59.519363 86.03174 
L 60.428988 85.934966 
L 61.338603 87.097503 
L 62.248229 87.631303 
L 63.157851 85.327939 
L 64.067474 86.490893 
L 64.977095 80.752605 
L 65.886716 85.562567 
L 66.796341 84.81184 
L 67.705958 86.407312 
L 68.615578 87.198201 
L 69.525207 85.236175 
L 70.434828 86.035915 
L 71.344453 84.0288 
L 72.254071 87.03513 
L 73.163676 84.44562 
L 74.073317 82.800551 
L 74.982935 87.124473 
L 75.892563 83.710758 
L 76.802182 85.532007 
L 77.711806 87.177577 
L 78.621423 87.2655 
L 79.531054 87.422308 
L 80.440663 88.193075 
L 81.350291 85.986568 
L 82.259914 86.810438 
L 83.169539 83.944718 
L 84.079145 83.745827 
L 84.988781 86.663816 
L 85.898387 85.932294 
L 86.808025 87.743858 
L 87.717647 84.705548 
L 88.627272 86.654465 
L 89.53689 87.214233 
L 90.446519 84.852754 
L 99.729256 85.185575 
L 100.452638 87.923461 
L 101.362277 86.279561 
L 102.271898 87.064855 
L 103.181525 86.836406 
L 104.091144 86.191137 
L 105.000764 86.966662 
L 105.910385 87.266669 
L 106.820006 87.032542 
L 107.729627 86.268205 
L 108.639251 86.62307 
L 109.54887 84.38116 
L 110.458494 84.178929 
L 111.368118 84.419903 
L 112.27774 85.719542 
L 113.187359 87.607339 
L 114.096985 87.013504 
L 115.006603 84.707635 
L 115.916229 86.061047 
L 116.825852 87.942081 
L 117.735471 85.065673 
L 118.645099 85.482827 
L 119.554712 85.278258 
L 120.464335 87.574441 
L 121.373964 87.215902 
L 122.283586 85.967029 
L 123.193208 79.762575 
L 124.102823 87.323865 
L 125.012449 86.072654 
L 125.922072 86.845925 
L 126.831692 85.377536 
L 127.741316 85.234338 
L 131.379802 82.325783 
L 132.289431 86.334168 
L 133.199049 83.487402 
L 134.108672 86.25401 
L 135.018295 84.708721 
L 135.927917 84.284303 
L 136.837542 85.36401 
L 137.747146 84.318453 
L 138.65678 86.481875 
L 139.566408 84.916463 
L 140.476026 86.186795 
L 141.385652 86.145046 
L 142.295271 84.815932 
L 143.204894 82.732584 
L 144.114513 86.574224 
L 145.024138 82.993263 
L 145.933772 83.922758 
L 146.843383 86.104633 
L 147.753006 85.067844 
L 148.662626 84.761324 
L 149.572249 86.182703 
L 150.481872 85.124622 
L 151.391492 85.297379 
L 152.301116 86.450313 
L 153.210734 84.091924 
L 180.49946 84.091924 
L 188.988697 28.189628 
L 189.595666 68.447066 
L 190.505288 67.874774 
L 191.414908 83.767035 
L 192.32453 84.868201 
L 193.234158 84.275535 
L 194.143777 26.099433 
L 195.053397 72.947586 
L 195.963018 40.066908 
L 196.872643 85.009896 
L 197.782267 11.011588 
L 198.691889 83.573404 
L 199.601515 84.670896 
L 200.51113 9.472727 
L 201.420755 81.214347 
L 202.330376 83.488153 
L 203.24 21.946597 
" clip-path="url(#p03d4b0fc37)" style="fill: none; stroke: #339af0; stroke-width: 1.2; stroke-linecap: square"/>
   </g>
   <g id="line2d_20">
    <path d="M 48.04 98.825406 
L 48.60389 98.705754 
L 49.513516 98.8563 
L 50.42314 98.657409 
L 51.332767 98.791172 
L 52.242387 98.667428 
L 53.152007 98.695233 
L 54.061621 98.612236 
L 54.971251 98.874836 
L 55.880876 98.81764 
L 56.790499 98.742409 
L 57.700121 98.705503 
L 58.609739 98.686382 
L 59.519363 98.687301 
L 60.428988 98.745332 
L 61.338603 98.82265 
L 62.248229 98.768126 
L 63.157851 98.744747 
L 64.067474 98.727046 
L 64.977095 98.591028 
L 65.886716 98.670267 
L 66.796341 98.784241 
L 67.705958 98.801609 
L 68.615578 98.834924 
L 69.525207 98.700744 
L 70.434828 98.829831 
L 71.344453 98.659663 
L 72.254071 98.849787 
L 73.163676 98.757856 
L 74.073317 98.754182 
L 74.982935 98.852125 
L 75.892563 98.714604 
L 76.802182 98.683042 
L 77.711806 98.655238 
L 78.621423 98.826074 
L 79.531054 98.687217 
L 80.440663 98.853043 
L 81.350291 98.854296 
L 82.259914 98.819561 
L 83.169539 98.659746 
L 84.079145 98.726294 
L 84.988781 98.777395 
L 85.898387 98.777812 
L 86.808025 98.75961 
L 87.717647 98.721785 
L 88.627272 98.862228 
L 89.53689 98.855047 
L 90.446519 98.687134 
L 99.729256 98.81597 
L 100.452638 98.893206 
L 101.362277 98.875337 
L 102.271898 98.822316 
L 103.181525 98.752178 
L 104.091144 98.802444 
L 105.000764 98.866069 
L 105.910385 98.725793 
L 106.820006 98.729383 
L 107.729627 98.739487 
L 108.639251 98.839266 
L 109.54887 98.703416 
L 110.458494 98.730469 
L 111.368118 98.741407 
L 112.27774 98.833505 
L 113.187359 98.85488 
L 114.096985 98.826324 
L 115.006603 98.684545 
L 115.916229 98.824237 
L 116.825852 98.927273 
L 117.735471 98.774723 
L 118.645099 98.83434 
L 119.554712 98.739821 
L 120.464335 98.895961 
L 121.373964 98.682625 
L 122.283586 98.795764 
L 123.193208 98.498095 
L 124.102823 98.787414 
L 125.012449 98.791005 
L 125.922072 98.882518 
L 126.831692 98.803028 
L 127.741316 98.694648 
L 131.379802 98.705754 
L 132.289431 98.808289 
L 133.199049 98.678867 
L 134.108672 98.817139 
L 135.018295 98.541931 
L 135.927917 98.827911 
L 136.837542 98.565311 
L 137.747146 98.773971 
L 138.65678 98.847282 
L 139.566408 98.872582 
L 140.476026 98.740405 
L 141.385652 98.44115 
L 142.295271 98.633027 
L 143.204894 98.666844 
L 144.114513 98.857218 
L 145.024138 98.744998 
L 145.933772 98.605724 
L 146.843383 98.82766 
L 147.753006 98.627683 
L 148.662626 98.766623 
L 149.572249 98.811128 
L 150.481872 98.824237 
L 151.391492 98.698489 
L 152.301116 98.719614 
L 153.210734 98.717443 
L 180.49946 98.717443 
L 188.988697 96.64662 
L 189.595666 98.059315 
L 190.505288 97.376055 
L 191.414908 98.611151 
L 192.32453 98.693062 
L 193.234158 98.52949 
L 194.143777 96.235311 
L 195.053397 98.283423 
L 195.963018 96.57573 
L 196.872643 98.774389 
L 197.782267 95.382968 
L 198.691889 98.645552 
L 199.601515 98.688303 
L 200.51113 95.228748 
L 201.420755 98.715022 
L 202.330376 98.637202 
L 203.24 95.226159 
" clip-path="url(#p03d4b0fc37)" style="fill: none; stroke: #ff6b6b; stroke-width: 1.2; stroke-linecap: square"/>
   </g>
   <g id="patch_3">
    <path d="M 40.28 103.4 
L 40.28 5 
" style="fill: none; stroke: var(--fg-color); stroke-width: 0.8; stroke-linejoin: miter; stroke-linecap: square"/>
   </g>
   <g id="patch_4">
    <path d="M 40.28 103.4 
L 211 103.4 
" style="fill: none; stroke: var(--fg-color); stroke-width: 0.8; stroke-linejoin: miter; stroke-linecap: square"/>
   </g>
  </g>
 </g>
 <defs>
  <clipPath id="p03d4b0fc37">
   <rect x="40.28" y="5" width="170.72" height="98.4"/>
  </clipPath>
 </defs>
</svg>
