<?xml version="1.0" encoding="utf-8" standalone="no"?>
<!DOCTYPE svg PUBLIC "-//W3C//DTD SVG 1.1//EN"
  "http://www.w3.org/Graphics/SVG/1.1/DTD/svg11.dtd">
<svg xmlns:xlink="http://www.w3.org/1999/xlink" width="216pt" height="122.4pt" viewBox="0 0 216 122.4" xmlns="http://www.w3.org/2000/svg" version="1.1">
  <style>
    :root {
      --fg-color: #212529;
      --grid-color: rgba(33, 37, 41, 0.1);
    }
    @media (prefers-color-scheme: dark) {
      :root {
        --fg-color: #dee2e6;
        --grid-color: rgba(248, 249, 250, 0.15);
      }
    }
  </style>

 <metadata>
  <rdf:RDF xmlns:dc="http://purl.org/dc/elements/1.1/" xmlns:cc="http://creativecommons.org/ns#" xmlns:rdf="http://www.w3.org/1999/02/22-rdf-syntax-ns#">
   <cc:Work>
    <dc:type rdf:resource="http://purl.org/dc/dcmitype/StillImage"/>
    <dc:date>2026-06-30T15:37:41.039734</dc:date>
    <dc:format>image/svg+xml</dc:format>
    <dc:creator>
     <cc:Agent>
      <dc:title>Matplotlib v3.11.0, https://matplotlib.org/</dc:title>
     </cc:Agent>
    </dc:creator>
   </cc:Work>
  </rdf:RDF>
 </metadata>
 <defs>
  <style type="text/css">*{stroke-linejoin: round; stroke-linecap: butt}</style>
 </defs>
 <g id="figure_1">
  <g id="patch_1">
   <path d="M 0 122.4 
L 216 122.4 
L 216 0 
L 0 0 
L 0 122.4 
z
" style="fill: none; opacity: 0"/>
  </g>
  <g id="axes_1">
   <g id="patch_2">
    <path d="M 35.96 103.4 
L 211 103.4 
L 211 5 
L 35.96 5 
L 35.96 103.4 
z
" style="fill: none; opacity: 0"/>
   </g>
   <g id="matplotlib.axis_1">
    <g id="xtick_1">
     <g id="line2d_1">
      <path d="M 69.784035 103.4 
L 69.784035 5 
" clip-path="url(#pb16d01dc14)" style="fill: none; stroke-dasharray: 2.96,1.28; stroke-dashoffset: 0; stroke: var(--grid-color); stroke-width: 0.8"/>
     </g>
     <g id="line2d_2">
      <defs>
       <path id="ma4e8706e7c" d="M 0 0 
L 0 3.5 
" style="stroke: var(--fg-color); stroke-width: 0.8"/>
      </defs>
      <g>
       <use xlink:href="#ma4e8706e7c" x="69.784035" y="103.4" style="fill: var(--fg-color); stroke: var(--fg-color); stroke-width: 0.8"/>
      </g>
     </g>
     <g id="text_1">
      <text style="font-size: 7px; font-family: 'DejaVu Sans', 'Bitstream Vera Sans', 'Computer Modern Sans Serif', 'Lucida Grande', 'Verdana', 'Geneva', 'Lucid', 'Arial', 'Helvetica', 'Avant Garde', sans-serif; text-anchor: middle; fill: var(--fg-color)" x="69.784035" y="115.718359" transform="rotate(-0 69.784035 115.718359)">02/2026</text>
     </g>
    </g>
    <g id="xtick_2">
     <g id="line2d_3">
      <path d="M 122.345302 103.4 
L 122.345302 5 
" clip-path="url(#pb16d01dc14)" style="fill: none; stroke-dasharray: 2.96,1.28; stroke-dashoffset: 0; stroke: var(--grid-color); stroke-width: 0.8"/>
     </g>
     <g id="line2d_4">
      <g>
       <use xlink:href="#ma4e8706e7c" x="122.345302" y="103.4" style="fill: var(--fg-color); stroke: var(--fg-color); stroke-width: 0.8"/>
      </g>
     </g>
     <g id="text_2">
      <text style="font-size: 7px; font-family: 'DejaVu Sans', 'Bitstream Vera Sans', 'Computer Modern Sans Serif', 'Lucida Grande', 'Verdana', 'Geneva', 'Lucid', 'Arial', 'Helvetica', 'Avant Garde', sans-serif; text-anchor: middle; fill: var(--fg-color)" x="122.345302" y="115.718359" transform="rotate(-0 122.345302 115.718359)">04/2026</text>
     </g>
    </g>
    <g id="xtick_3">
     <g id="line2d_5">
      <path d="M 176.688307 103.4 
L 176.688307 5 
" clip-path="url(#pb16d01dc14)" style="fill: none; stroke-dasharray: 2.96,1.28; stroke-dashoffset: 0; stroke: var(--grid-color); stroke-width: 0.8"/>
     </g>
     <g id="line2d_6">
      <g>
       <use xlink:href="#ma4e8706e7c" x="176.688307" y="103.4" style="fill: var(--fg-color); stroke: var(--fg-color); stroke-width: 0.8"/>
      </g>
     </g>
     <g id="text_3">
      <text style="font-size: 7px; font-family: 'DejaVu Sans', 'Bitstream Vera Sans', 'Computer Modern Sans Serif', 'Lucida Grande', 'Verdana', 'Geneva', 'Lucid', 'Arial', 'Helvetica', 'Avant Garde', sans-serif; text-anchor: middle; fill: var(--fg-color)" x="176.688307" y="115.718359" transform="rotate(-0 176.688307 115.718359)">06/2026</text>
     </g>
    </g>
   </g>
   <g id="matplotlib.axis_2">
    <g id="ytick_1">
     <g id="line2d_7">
      <path d="M 35.96 99.739987 
L 211 99.739987 
" clip-path="url(#pb16d01dc14)" style="fill: none; stroke-dasharray: 2.96,1.28; stroke-dashoffset: 0; stroke: var(--grid-color); stroke-width: 0.8"/>
     </g>
     <g id="line2d_8">
      <defs>
       <path id="mbce8381259" d="M 0 0 
L -3.5 0 
" style="stroke: var(--fg-color); stroke-width: 0.8"/>
      </defs>
      <g>
       <use xlink:href="#mbce8381259" x="35.96" y="99.739987" style="fill: var(--fg-color); stroke: var(--fg-color); stroke-width: 0.8"/>
      </g>
     </g>
     <g id="text_4">
      <text style="font-size: 7px; font-family: 'DejaVu Sans', 'Bitstream Vera Sans', 'Computer Modern Sans Serif', 'Lucida Grande', 'Verdana', 'Geneva', 'Lucid', 'Arial', 'Helvetica', 'Avant Garde', sans-serif; text-anchor: end; fill: var(--fg-color)" x="28.96" y="102.399167" transform="rotate(-0 28.96 102.399167)">0</text>
     </g>
    </g>
    <g id="ytick_2">
     <g id="line2d_9">
      <path d="M 35.96 77.546795 
L 211 77.546795 
" clip-path="url(#pb16d01dc14)" style="fill: none; stroke-dasharray: 2.96,1.28; stroke-dashoffset: 0; stroke: var(--grid-color); stroke-width: 0.8"/>
     </g>
     <g id="line2d_10">
      <g>
       <use xlink:href="#mbce8381259" x="35.96" y="77.546795" style="fill: var(--fg-color); stroke: var(--fg-color); stroke-width: 0.8"/>
      </g>
     </g>
     <g id="text_5">
      <text style="font-size: 7px; font-family: 'DejaVu Sans', 'Bitstream Vera Sans', 'Computer Modern Sans Serif', 'Lucida Grande', 'Verdana', 'Geneva', 'Lucid', 'Arial', 'Helvetica', 'Avant Garde', sans-serif; text-anchor: end; fill: var(--fg-color)" x="28.96" y="80.205974" transform="rotate(-0 28.96 80.205974)">50</text>
     </g>
    </g>
    <g id="ytick_3">
     <g id="line2d_11">
      <path d="M 35.96 55.353602 
L 211 55.353602 
" clip-path="url(#pb16d01dc14)" style="fill: none; stroke-dasharray: 2.96,1.28; stroke-dashoffset: 0; stroke: var(--grid-color); stroke-width: 0.8"/>
     </g>
     <g id="line2d_12">
      <g>
       <use xlink:href="#mbce8381259" x="35.96" y="55.353602" style="fill: var(--fg-color); stroke: var(--fg-color); stroke-width: 0.8"/>
      </g>
     </g>
     <g id="text_6">
      <text style="font-size: 7px; font-family: 'DejaVu Sans', 'Bitstream Vera Sans', 'Computer Modern Sans Serif', 'Lucida Grande', 'Verdana', 'Geneva', 'Lucid', 'Arial', 'Helvetica', 'Avant Garde', sans-serif; text-anchor: end; fill: var(--fg-color)" x="28.96" y="58.012782" transform="rotate(-0 28.96 58.012782)">100</text>
     </g>
    </g>
    <g id="ytick_4">
     <g id="line2d_13">
      <path d="M 35.96 33.16041 
L 211 33.16041 
" clip-path="url(#pb16d01dc14)" style="fill: none; stroke-dasharray: 2.96,1.28; stroke-dashoffset: 0; stroke: var(--grid-color); stroke-width: 0.8"/>
     </g>
     <g id="line2d_14">
      <g>
       <use xlink:href="#mbce8381259" x="35.96" y="33.16041" style="fill: var(--fg-color); stroke: var(--fg-color); stroke-width: 0.8"/>
      </g>
     </g>
     <g id="text_7">
      <text style="font-size: 7px; font-family: 'DejaVu Sans', 'Bitstream Vera Sans', 'Computer Modern Sans Serif', 'Lucida Grande', 'Verdana', 'Geneva', 'Lucid', 'Arial', 'Helvetica', 'Avant Garde', sans-serif; text-anchor: end; fill: var(--fg-color)" x="28.96" y="35.819589" transform="rotate(-0 28.96 35.819589)">150</text>
     </g>
    </g>
    <g id="ytick_5">
     <g id="line2d_15">
      <path d="M 35.96 10.967217 
L 211 10.967217 
" clip-path="url(#pb16d01dc14)" style="fill: none; stroke-dasharray: 2.96,1.28; stroke-dashoffset: 0; stroke: var(--grid-color); stroke-width: 0.8"/>
     </g>
     <g id="line2d_16">
      <g>
       <use xlink:href="#mbce8381259" x="35.96" y="10.967217" style="fill: var(--fg-color); stroke: var(--fg-color); stroke-width: 0.8"/>
      </g>
     </g>
     <g id="text_8">
      <text style="font-size: 7px; font-family: 'DejaVu Sans', 'Bitstream Vera Sans', 'Computer Modern Sans Serif', 'Lucida Grande', 'Verdana', 'Geneva', 'Lucid', 'Arial', 'Helvetica', 'Avant Garde', sans-serif; text-anchor: end; fill: var(--fg-color)" x="28.96" y="13.626397" transform="rotate(-0 28.96 13.626397)">200</text>
     </g>
    </g>
    <g id="text_9">
     <text style="font-size: 7px; font-family: 'DejaVu Sans', 'Bitstream Vera Sans', 'Computer Modern Sans Serif', 'Lucida Grande', 'Verdana', 'Geneva', 'Lucid', 'Arial', 'Helvetica', 'Avant Garde', sans-serif; text-anchor: middle; fill: var(--fg-color)" x="9.917109" y="54.2" transform="rotate(-90 9.917109 54.2)">ms</text>
    </g>
   </g>
   <g id="line2d_17">
    <path d="M 43.916364 47.363609 
L 44.468628 52.970941 
L 45.3595 47.252643 
L 46.250371 44.168233 
L 47.141245 49.036976 
L 48.032112 49.425357 
L 48.922979 49.4258 
L 49.81384 40.36432 
L 50.704717 39.906252 
L 51.595589 52.952743 
L 52.486458 45.262801 
L 53.377327 38.719804 
L 54.268192 44.153586 
L 55.159063 51.442718 
L 56.049934 44.272097 
L 56.940797 47.918439 
L 57.831669 44.19664 
L 58.722538 47.925097 
L 59.613407 46.244184 
L 60.504275 37.828526 
L 61.395144 46.975228 
L 62.286016 47.087526 
L 63.176879 32.263361 
L 64.067746 46.161182 
L 64.958622 51.213684 
L 65.84949 40.163693 
L 66.740361 50.876791 
L 67.631226 39.385156 
L 68.522078 36.156491 
L 69.412965 38.964817 
L 70.30383 34.100069 
L 71.194705 40.153041 
L 72.085571 42.146877 
L 72.976442 36.960328 
L 73.867306 39.953302 
L 74.758184 36.316282 
L 75.649039 17.812485 
L 76.539914 43.490453 
L 77.430784 41.912073 
L 78.321655 9.472727 
L 79.212509 38.210692 
L 80.103391 47.368935 
L 80.994245 46.914419 
L 81.885129 31.782212 
L 82.775998 44.227711 
L 83.666869 37.931058 
L 84.557735 40.44821 
L 85.44861 36.433018 
L 94.53997 37.605262 
L 95.248438 21.563135 
L 96.139324 34.231897 
L 97.030192 35.659807 
L 97.921065 30.573571 
L 98.811931 41.403405 
L 99.702798 40.462858 
L 100.593666 40.396722 
L 101.484533 51.428514 
L 102.375401 45.943688 
L 103.266272 46.720894 
L 104.157138 45.608127 
L 105.048009 45.067057 
L 105.93888 47.787943 
L 106.829748 48.970396 
L 107.720614 45.18335 
L 108.611487 47.724026 
L 110.393224 42.454031 
L 111.284094 45.458545 
L 112.17496 36.216412 
L 113.065834 45.4763 
L 113.956695 50.840394 
L 114.847564 42.030585 
L 115.738441 47.142121 
L 116.629309 49.380526 
L 117.520178 41.027896 
L 118.41104 46.597056 
L 119.301913 42.331081 
L 120.192782 46.045777 
L 121.083649 47.56823 
L 121.97452 49.909168 
L 125.537994 45.898858 
L 126.428869 46.375568 
L 127.319734 39.453511 
L 128.210603 43.197059 
L 129.101474 43.207268 
L 129.992342 42.245859 
L 130.883214 46.542017 
L 131.774065 45.420373 
L 132.664946 46.752852 
L 133.55582 43.76698 
L 134.446686 38.035366 
L 135.337558 42.330637 
L 136.228424 52.378383 
L 137.119294 43.364396 
L 138.010159 43.346641 
L 138.901032 41.960898 
L 139.791912 35.309598 
L 140.68277 34.057458 
L 142.464507 41.935154 
L 143.355376 27.776341 
L 144.246246 44.77677 
L 145.137113 36.441007 
L 146.027984 38.753538 
L 146.918849 41.391421 
L 173.644977 41.391421 
L 181.959197 43.315571 
L 182.553652 41.381212 
L 183.444521 37.770379 
L 184.335387 17.555488 
L 185.226256 38.982572 
L 186.117131 34.158659 
L 187.007996 35.58435 
L 187.898864 42.203692 
L 188.789731 38.927089 
L 189.680603 42.005285 
L 190.571474 38.359387 
L 191.462343 41.188131 
L 192.353215 36.813853 
L 193.244077 42.355493 
L 194.134949 36.281216 
L 195.025817 37.535132 
L 195.916688 35.403697 
L 196.807557 44.848676 
L 197.698426 29.420413 
L 198.589295 39.198733 
L 199.480162 41.654188 
L 200.371032 39.93466 
L 201.261898 34.03127 
L 202.152766 43.826458 
L 203.043636 43.559696 
L 203.043636 43.559696 
" clip-path="url(#pb16d01dc14)" style="fill: none; stroke: #339af0; stroke-width: 1.2; stroke-linecap: square"/>
   </g>
   <g id="line2d_18">
    <path d="M 43.916364 98.787012 
L 44.468628 98.860693 
L 47.141245 98.83051 
L 68.522078 98.873565 
L 70.30383 98.830067 
L 72.976442 98.847821 
L 74.758184 98.741738 
L 76.539914 98.870902 
L 79.212509 98.811424 
L 84.557735 98.846933 
L 94.53997 98.433252 
L 95.248438 98.854479 
L 97.921065 98.863356 
L 112.17496 98.82474 
L 113.065834 98.482521 
L 113.956695 98.851372 
L 114.847564 98.810537 
L 115.738441 98.589048 
L 116.629309 98.83273 
L 125.537994 98.608135 
L 126.428869 98.729309 
L 127.319734 98.636098 
L 128.210603 98.735967 
L 129.992342 98.755497 
L 130.883214 98.825184 
L 131.774065 98.728866 
L 136.228424 98.862025 
L 138.010159 98.644088 
L 138.901032 98.759936 
L 143.355376 98.666725 
L 144.246246 98.745289 
L 145.137113 98.571738 
L 146.918849 98.755497 
L 187.898864 98.763043 
L 188.789731 98.411503 
L 189.680603 98.855367 
L 195.916688 98.762155 
L 196.807557 98.890432 
L 197.698426 98.739518 
L 199.480162 98.876672 
L 200.371032 98.873565 
L 201.261898 98.720876 
L 203.043636 98.798552 
L 203.043636 98.798552 
" clip-path="url(#pb16d01dc14)" style="fill: none; stroke: #ff6b6b; stroke-width: 1.2; stroke-linecap: square"/>
   </g>
   <g id="patch_3">
    <path d="M 35.96 103.4 
L 35.96 5 
" style="fill: none; stroke: var(--fg-color); stroke-width: 0.8; stroke-linejoin: miter; stroke-linecap: square"/>
   </g>
   <g id="patch_4">
    <path d="M 35.96 103.4 
L 211 103.4 
" style="fill: none; stroke: var(--fg-color); stroke-width: 0.8; stroke-linejoin: miter; stroke-linecap: square"/>
   </g>
  </g>
 </g>
 <defs>
  <clipPath id="pb16d01dc14">
   <rect x="35.96" y="5" width="175.04" height="98.4"/>
  </clipPath>
 </defs>
</svg>
