<?xml version="1.0" encoding="utf-8" standalone="no"?>
<!DOCTYPE svg PUBLIC "-//W3C//DTD SVG 1.1//EN"
  "http://www.w3.org/Graphics/SVG/1.1/DTD/svg11.dtd">
<svg xmlns:xlink="http://www.w3.org/1999/xlink" width="216pt" height="122.4pt" viewBox="0 0 216 122.4" xmlns="http://www.w3.org/2000/svg" version="1.1">
  <style>
    :root {
      --fg-color: #212529;
      --grid-color: rgba(33, 37, 41, 0.1);
    }
    @media (prefers-color-scheme: dark) {
      :root {
        --fg-color: #dee2e6;
        --grid-color: rgba(248, 249, 250, 0.15);
      }
    }
  </style>

 <metadata>
  <rdf:RDF xmlns:dc="http://purl.org/dc/elements/1.1/" xmlns:cc="http://creativecommons.org/ns#" xmlns:rdf="http://www.w3.org/1999/02/22-rdf-syntax-ns#">
   <cc:Work>
    <dc:type rdf:resource="http://purl.org/dc/dcmitype/StillImage"/>
    <dc:date>2026-06-30T15:37:44.603814</dc:date>
    <dc:format>image/svg+xml</dc:format>
    <dc:creator>
     <cc:Agent>
      <dc:title>Matplotlib v3.11.0, https://matplotlib.org/</dc:title>
     </cc:Agent>
    </dc:creator>
   </cc:Work>
  </rdf:RDF>
 </metadata>
 <defs>
  <style type="text/css">*{stroke-linejoin: round; stroke-linecap: butt}</style>
 </defs>
 <g id="figure_1">
  <g id="patch_1">
   <path d="M 0 122.4 
L 216 122.4 
L 216 0 
L 0 0 
L 0 122.4 
z
" style="fill: none; opacity: 0"/>
  </g>
  <g id="axes_1">
   <g id="patch_2">
    <path d="M 35.96 103.4 
L 211 103.4 
L 211 5 
L 35.96 5 
L 35.96 103.4 
z
" style="fill: none; opacity: 0"/>
   </g>
   <g id="matplotlib.axis_1">
    <g id="xtick_1">
     <g id="line2d_1">
      <path d="M 69.784035 103.4 
L 69.784035 5 
" clip-path="url(#p4eb2e4944f)" style="fill: none; stroke-dasharray: 2.96,1.28; stroke-dashoffset: 0; stroke: var(--grid-color); stroke-width: 0.8"/>
     </g>
     <g id="line2d_2">
      <defs>
       <path id="m3fee6889d9" d="M 0 0 
L 0 3.5 
" style="stroke: var(--fg-color); stroke-width: 0.8"/>
      </defs>
      <g>
       <use xlink:href="#m3fee6889d9" x="69.784035" y="103.4" style="fill: var(--fg-color); stroke: var(--fg-color); stroke-width: 0.8"/>
      </g>
     </g>
     <g id="text_1">
      <text style="font-size: 7px; font-family: 'DejaVu Sans', 'Bitstream Vera Sans', 'Computer Modern Sans Serif', 'Lucida Grande', 'Verdana', 'Geneva', 'Lucid', 'Arial', 'Helvetica', 'Avant Garde', sans-serif; text-anchor: middle; fill: var(--fg-color)" x="69.784035" y="115.718359" transform="rotate(-0 69.784035 115.718359)">02/2026</text>
     </g>
    </g>
    <g id="xtick_2">
     <g id="line2d_3">
      <path d="M 122.345302 103.4 
L 122.345302 5 
" clip-path="url(#p4eb2e4944f)" style="fill: none; stroke-dasharray: 2.96,1.28; stroke-dashoffset: 0; stroke: var(--grid-color); stroke-width: 0.8"/>
     </g>
     <g id="line2d_4">
      <g>
       <use xlink:href="#m3fee6889d9" x="122.345302" y="103.4" style="fill: var(--fg-color); stroke: var(--fg-color); stroke-width: 0.8"/>
      </g>
     </g>
     <g id="text_2">
      <text style="font-size: 7px; font-family: 'DejaVu Sans', 'Bitstream Vera Sans', 'Computer Modern Sans Serif', 'Lucida Grande', 'Verdana', 'Geneva', 'Lucid', 'Arial', 'Helvetica', 'Avant Garde', sans-serif; text-anchor: middle; fill: var(--fg-color)" x="122.345302" y="115.718359" transform="rotate(-0 122.345302 115.718359)">04/2026</text>
     </g>
    </g>
    <g id="xtick_3">
     <g id="line2d_5">
      <path d="M 176.688307 103.4 
L 176.688307 5 
" clip-path="url(#p4eb2e4944f)" style="fill: none; stroke-dasharray: 2.96,1.28; stroke-dashoffset: 0; stroke: var(--grid-color); stroke-width: 0.8"/>
     </g>
     <g id="line2d_6">
      <g>
       <use xlink:href="#m3fee6889d9" x="176.688307" y="103.4" style="fill: var(--fg-color); stroke: var(--fg-color); stroke-width: 0.8"/>
      </g>
     </g>
     <g id="text_3">
      <text style="font-size: 7px; font-family: 'DejaVu Sans', 'Bitstream Vera Sans', 'Computer Modern Sans Serif', 'Lucida Grande', 'Verdana', 'Geneva', 'Lucid', 'Arial', 'Helvetica', 'Avant Garde', sans-serif; text-anchor: middle; fill: var(--fg-color)" x="176.688307" y="115.718359" transform="rotate(-0 176.688307 115.718359)">06/2026</text>
     </g>
    </g>
   </g>
   <g id="matplotlib.axis_2">
    <g id="ytick_1">
     <g id="line2d_7">
      <path d="M 35.96 99.908162 
L 211 99.908162 
" clip-path="url(#p4eb2e4944f)" style="fill: none; stroke-dasharray: 2.96,1.28; stroke-dashoffset: 0; stroke: var(--grid-color); stroke-width: 0.8"/>
     </g>
     <g id="line2d_8">
      <defs>
       <path id="ma7d4c2282f" d="M 0 0 
L -3.5 0 
" style="stroke: var(--fg-color); stroke-width: 0.8"/>
      </defs>
      <g>
       <use xlink:href="#ma7d4c2282f" x="35.96" y="99.908162" style="fill: var(--fg-color); stroke: var(--fg-color); stroke-width: 0.8"/>
      </g>
     </g>
     <g id="text_4">
      <text style="font-size: 7px; font-family: 'DejaVu Sans', 'Bitstream Vera Sans', 'Computer Modern Sans Serif', 'Lucida Grande', 'Verdana', 'Geneva', 'Lucid', 'Arial', 'Helvetica', 'Avant Garde', sans-serif; text-anchor: end; fill: var(--fg-color)" x="28.96" y="102.567341" transform="rotate(-0 28.96 102.567341)">0</text>
     </g>
    </g>
    <g id="ytick_2">
     <g id="line2d_9">
      <path d="M 35.96 73.667154 
L 211 73.667154 
" clip-path="url(#p4eb2e4944f)" style="fill: none; stroke-dasharray: 2.96,1.28; stroke-dashoffset: 0; stroke: var(--grid-color); stroke-width: 0.8"/>
     </g>
     <g id="line2d_10">
      <g>
       <use xlink:href="#ma7d4c2282f" x="35.96" y="73.667154" style="fill: var(--fg-color); stroke: var(--fg-color); stroke-width: 0.8"/>
      </g>
     </g>
     <g id="text_5">
      <text style="font-size: 7px; font-family: 'DejaVu Sans', 'Bitstream Vera Sans', 'Computer Modern Sans Serif', 'Lucida Grande', 'Verdana', 'Geneva', 'Lucid', 'Arial', 'Helvetica', 'Avant Garde', sans-serif; text-anchor: end; fill: var(--fg-color)" x="28.96" y="76.326334" transform="rotate(-0 28.96 76.326334)">50</text>
     </g>
    </g>
    <g id="ytick_3">
     <g id="line2d_11">
      <path d="M 35.96 47.426146 
L 211 47.426146 
" clip-path="url(#p4eb2e4944f)" style="fill: none; stroke-dasharray: 2.96,1.28; stroke-dashoffset: 0; stroke: var(--grid-color); stroke-width: 0.8"/>
     </g>
     <g id="line2d_12">
      <g>
       <use xlink:href="#ma7d4c2282f" x="35.96" y="47.426146" style="fill: var(--fg-color); stroke: var(--fg-color); stroke-width: 0.8"/>
      </g>
     </g>
     <g id="text_6">
      <text style="font-size: 7px; font-family: 'DejaVu Sans', 'Bitstream Vera Sans', 'Computer Modern Sans Serif', 'Lucida Grande', 'Verdana', 'Geneva', 'Lucid', 'Arial', 'Helvetica', 'Avant Garde', sans-serif; text-anchor: end; fill: var(--fg-color)" x="28.96" y="50.085326" transform="rotate(-0 28.96 50.085326)">100</text>
     </g>
    </g>
    <g id="ytick_4">
     <g id="line2d_13">
      <path d="M 35.96 21.185139 
L 211 21.185139 
" clip-path="url(#p4eb2e4944f)" style="fill: none; stroke-dasharray: 2.96,1.28; stroke-dashoffset: 0; stroke: var(--grid-color); stroke-width: 0.8"/>
     </g>
     <g id="line2d_14">
      <g>
       <use xlink:href="#ma7d4c2282f" x="35.96" y="21.185139" style="fill: var(--fg-color); stroke: var(--fg-color); stroke-width: 0.8"/>
      </g>
     </g>
     <g id="text_7">
      <text style="font-size: 7px; font-family: 'DejaVu Sans', 'Bitstream Vera Sans', 'Computer Modern Sans Serif', 'Lucida Grande', 'Verdana', 'Geneva', 'Lucid', 'Arial', 'Helvetica', 'Avant Garde', sans-serif; text-anchor: end; fill: var(--fg-color)" x="28.96" y="23.844318" transform="rotate(-0 28.96 23.844318)">150</text>
     </g>
    </g>
    <g id="text_8">
     <text style="font-size: 7px; font-family: 'DejaVu Sans', 'Bitstream Vera Sans', 'Computer Modern Sans Serif', 'Lucida Grande', 'Verdana', 'Geneva', 'Lucid', 'Arial', 'Helvetica', 'Avant Garde', sans-serif; text-anchor: middle; fill: var(--fg-color)" x="9.917109" y="54.2" transform="rotate(-90 9.917109 54.2)">ms</text>
    </g>
   </g>
   <g id="line2d_15">
    <path d="M 43.916364 45.195661 
L 44.468628 47.571521 
L 45.3595 46.367584 
L 46.250371 42.467645 
L 47.141245 43.061742 
L 48.032112 46.857766 
L 48.922979 42.869133 
L 49.81384 47.261878 
L 50.704717 47.837605 
L 51.595589 45.090172 
L 52.486458 39.635716 
L 53.377327 43.948688 
L 54.268192 45.407688 
L 55.159063 41.514047 
L 56.049934 42.853388 
L 56.940797 47.903733 
L 57.831669 47.59094 
L 58.722538 48.866253 
L 59.613407 48.637431 
L 60.504275 47.124375 
L 61.395144 45.904693 
L 62.286016 45.480638 
L 63.176879 49.641412 
L 64.067746 46.860915 
L 64.958622 45.904168 
L 66.740361 45.729928 
L 67.631226 44.565352 
L 68.522078 40.109629 
L 69.412965 42.960452 
L 70.30383 47.043552 
L 71.194705 43.262223 
L 72.085571 40.310635 
L 72.976442 48.160894 
L 73.867306 44.882343 
L 74.758184 47.66284 
L 75.649039 49.552718 
L 76.539914 47.425097 
L 77.430784 47.375764 
L 78.321655 44.342828 
L 79.212509 48.615914 
L 80.103391 9.472727 
L 80.994245 47.987179 
L 81.885129 48.56763 
L 82.775998 44.370643 
L 83.666869 47.692755 
L 85.44861 45.077576 
L 94.53997 38.92406 
L 95.248438 42.999813 
L 97.030192 35.417736 
L 97.921065 48.433801 
L 98.811931 45.528921 
L 99.702798 45.762466 
L 100.593666 50.709421 
L 101.484533 47.908981 
L 102.375401 47.164786 
L 103.266272 46.745455 
L 104.157138 47.285494 
L 105.048009 46.813156 
L 105.93888 45.333164 
L 106.829748 50.532557 
L 107.720614 47.877492 
L 108.611487 52.134308 
L 109.502352 47.485976 
L 110.393224 45.79448 
L 111.284094 45.888423 
L 112.17496 50.021382 
L 113.065834 46.017004 
L 113.956695 48.516723 
L 114.847564 46.579611 
L 115.738441 45.432355 
L 116.629309 47.571521 
L 117.520178 26.072789 
L 118.41104 44.019539 
L 119.301913 36.329874 
L 120.192782 45.633885 
L 121.083649 46.32245 
L 121.97452 44.661919 
L 125.537994 44.639876 
L 126.428869 43.913 
L 127.319734 40.372563 
L 128.210603 42.637687 
L 129.101474 43.998546 
L 129.992342 46.403272 
L 130.883214 39.508185 
L 131.774065 45.125335 
L 133.55582 32.857664 
L 134.446686 44.714925 
L 135.337558 44.00012 
L 136.228424 41.470487 
L 137.119294 38.590799 
L 138.010159 43.784419 
L 138.901032 45.316369 
L 139.791912 42.434057 
L 140.68277 16.055022 
L 141.57364 43.819057 
L 142.464507 45.038215 
L 143.355376 42.90692 
L 144.246246 44.88969 
L 145.137113 43.28479 
L 146.027984 44.373792 
L 146.918849 42.881204 
L 173.644977 42.881204 
L 181.959197 45.912565 
L 182.553652 44.243112 
L 183.444521 39.378554 
L 185.226256 37.252508 
L 186.117131 44.964215 
L 187.007996 41.029113 
L 187.898864 46.886106 
L 188.789731 43.167756 
L 189.680603 35.006802 
L 190.571474 33.693177 
L 191.462343 40.225614 
L 192.353215 42.796183 
L 193.244077 35.588828 
L 195.025817 43.573442 
L 195.916688 37.595215 
L 196.807557 41.09839 
L 197.698426 42.023648 
L 198.589295 38.695763 
L 199.480162 43.364038 
L 200.371032 47.137495 
L 201.261898 45.354681 
L 202.152766 49.110819 
L 203.043636 44.814641 
L 203.043636 44.814641 
" clip-path="url(#p4eb2e4944f)" style="fill: none; stroke: #339af0; stroke-width: 1.2; stroke-linecap: square"/>
   </g>
   <g id="line2d_16">
    <path d="M 43.916364 98.721018 
L 44.468628 98.810238 
L 46.250371 98.772451 
L 47.141245 98.533658 
L 48.032112 98.763529 
L 54.268192 98.824933 
L 55.159063 98.58404 
L 56.049934 98.796593 
L 58.722538 98.811812 
L 64.958622 98.832805 
L 66.740361 98.752508 
L 67.631226 98.797117 
L 68.522078 98.667487 
L 69.412965 98.758805 
L 70.30383 98.443913 
L 71.194705 98.745685 
L 73.867306 98.848025 
L 75.649039 98.879514 
L 76.539914 98.560948 
L 77.430784 98.822309 
L 78.321655 98.722593 
L 79.212509 98.827032 
L 80.994245 98.280169 
L 81.885129 98.912053 
L 82.775998 98.7735 
L 83.666869 98.810763 
L 84.557735 98.620778 
L 85.44861 98.798692 
L 97.030192 98.853273 
L 97.921065 98.462282 
L 98.811931 98.807614 
L 99.702798 98.794493 
L 100.593666 97.946909 
L 101.484533 98.822834 
L 105.048009 98.813912 
L 105.93888 98.907854 
L 107.720614 98.843826 
L 110.393224 98.877415 
L 111.284094 98.766678 
L 112.17496 98.927273 
L 113.065834 98.768777 
L 113.956695 98.897883 
L 114.847564 98.74621 
L 116.629309 98.843302 
L 117.520178 98.575643 
L 118.41104 98.68743 
L 119.301913 98.664863 
L 121.083649 98.787146 
L 121.97452 98.747784 
L 129.992342 98.834904 
L 130.883214 98.706323 
L 131.774065 98.770876 
L 133.55582 98.595586 
L 134.446686 98.785046 
L 136.228424 98.689004 
L 139.791912 98.741486 
L 140.68277 98.288567 
L 141.57364 98.723118 
L 142.464507 98.834904 
L 145.137113 98.652792 
L 146.027984 98.799217 
L 146.918849 98.782422 
L 184.335387 98.746735 
L 185.226256 98.664338 
L 186.117131 98.790295 
L 187.007996 98.654366 
L 187.898864 98.818635 
L 189.680603 98.609232 
L 190.571474 98.695302 
L 193.244077 98.682707 
L 194.134949 98.739912 
L 195.025817 98.440764 
L 195.916688 98.386708 
L 196.807557 98.696352 
L 198.589295 98.73204 
L 199.480162 98.582991 
L 200.371032 98.783472 
L 203.043636 98.809713 
L 203.043636 98.809713 
" clip-path="url(#p4eb2e4944f)" style="fill: none; stroke: #ff6b6b; stroke-width: 1.2; stroke-linecap: square"/>
   </g>
   <g id="patch_3">
    <path d="M 35.96 103.4 
L 35.96 5 
" style="fill: none; stroke: var(--fg-color); stroke-width: 0.8; stroke-linejoin: miter; stroke-linecap: square"/>
   </g>
   <g id="patch_4">
    <path d="M 35.96 103.4 
L 211 103.4 
" style="fill: none; stroke: var(--fg-color); stroke-width: 0.8; stroke-linejoin: miter; stroke-linecap: square"/>
   </g>
  </g>
 </g>
 <defs>
  <clipPath id="p4eb2e4944f">
   <rect x="35.96" y="5" width="175.04" height="98.4"/>
  </clipPath>
 </defs>
</svg>
