<?xml version="1.0" encoding="utf-8" standalone="no"?>
<!DOCTYPE svg PUBLIC "-//W3C//DTD SVG 1.1//EN"
  "http://www.w3.org/Graphics/SVG/1.1/DTD/svg11.dtd">
<svg xmlns:xlink="http://www.w3.org/1999/xlink" width="737.28pt" height="552.96pt" viewBox="0 0 737.28 552.96" xmlns="http://www.w3.org/2000/svg" version="1.1">
 <metadata>
  <rdf:RDF xmlns:dc="http://purl.org/dc/elements/1.1/" xmlns:cc="http://creativecommons.org/ns#" xmlns:rdf="http://www.w3.org/1999/02/22-rdf-syntax-ns#">
   <cc:Work>
    <dc:type rdf:resource="http://purl.org/dc/dcmitype/StillImage"/>
    <dc:date>2026-06-30T04:48:17.344783</dc:date>
    <dc:format>image/svg+xml</dc:format>
    <dc:creator>
     <cc:Agent>
      <dc:title>Matplotlib v3.11.0, https://matplotlib.org/</dc:title>
     </cc:Agent>
    </dc:creator>
   </cc:Work>
  </rdf:RDF>
 </metadata>
 <defs>
  <style type="text/css">*{stroke-linejoin: round; stroke-linecap: butt}</style>
 </defs>
 <g id="figure_1">
  <g id="patch_1">
   <path d="M 0 552.96 
L 737.28 552.96 
L 737.28 0 
L 0 0 
z
" style="fill: #ffffff"/>
  </g>
  <g id="axes_1">
   <g id="patch_2">
    <path d="M 45.082344 510.837656 
L 669.877656 510.837656 
L 669.877656 26.16 
L 45.082344 26.16 
z
" style="fill: #ffffff"/>
   </g>
   <g id="matplotlib.axis_1">
    <g id="xtick_1">
     <g id="line2d_1">
      <path d="M 364.927978 510.837656 
L 364.927978 26.16 
" clip-path="url(#p7e0075ab57)" style="fill: none; stroke-dasharray: 2.96,1.28; stroke-dashoffset: 0; stroke: #dee2e6; stroke-width: 0.8"/>
     </g>
     <g id="line2d_2">
      <defs>
       <path id="m534030d4ca" d="M 0 0 
L 0 3.5 
" style="stroke: #212529; stroke-width: 0.8"/>
      </defs>
      <g>
       <use xlink:href="#m534030d4ca" x="364.927978" y="510.837656" style="fill: #212529; stroke: #212529; stroke-width: 0.8"/>
      </g>
     </g>
     <g id="text_1">
      <text style="font-size: 10px; font-family: 'DejaVu Sans', 'Bitstream Vera Sans', 'Computer Modern Sans Serif', 'Lucida Grande', 'Verdana', 'Geneva', 'Lucid', 'Arial', 'Helvetica', 'Avant Garde', sans-serif; text-anchor: middle; fill: #212529" x="364.927978" y="525.435313" transform="rotate(-0 364.927978 525.435313)">05/2026</text>
     </g>
    </g>
    <g id="text_2">
     <text style="font-size: 10px; font-family: 'DejaVu Sans', 'Bitstream Vera Sans', 'Computer Modern Sans Serif', 'Lucida Grande', 'Verdana', 'Geneva', 'Lucid', 'Arial', 'Helvetica', 'Avant Garde', sans-serif; text-anchor: middle; fill: #212529" x="357.48" y="539.436094" transform="rotate(-0 357.48 539.436094)">Time</text>
    </g>
   </g>
   <g id="matplotlib.axis_2">
    <g id="ytick_1">
     <g id="line2d_3">
      <path d="M 45.082344 504.16926 
L 669.877656 504.16926 
" clip-path="url(#p7e0075ab57)" style="fill: none; stroke-dasharray: 2.96,1.28; stroke-dashoffset: 0; stroke: #dee2e6; stroke-width: 0.8"/>
     </g>
     <g id="line2d_4">
      <defs>
       <path id="m6cbb8592fd" d="M 0 0 
L -3.5 0 
" style="stroke: #212529; stroke-width: 0.8"/>
      </defs>
      <g>
       <use xlink:href="#m6cbb8592fd" x="45.082344" y="504.16926" style="fill: #212529; stroke: #212529; stroke-width: 0.8"/>
      </g>
     </g>
     <g id="text_3">
      <text style="font-size: 10px; font-family: 'DejaVu Sans', 'Bitstream Vera Sans', 'Computer Modern Sans Serif', 'Lucida Grande', 'Verdana', 'Geneva', 'Lucid', 'Arial', 'Helvetica', 'Avant Garde', sans-serif; text-anchor: end; fill: #212529" x="38.082344" y="507.968088" transform="rotate(-0 38.082344 507.968088)">0</text>
     </g>
    </g>
    <g id="ytick_2">
     <g id="line2d_5">
      <path d="M 45.082344 449.673317 
L 669.877656 449.673317 
" clip-path="url(#p7e0075ab57)" style="fill: none; stroke-dasharray: 2.96,1.28; stroke-dashoffset: 0; stroke: #dee2e6; stroke-width: 0.8"/>
     </g>
     <g id="line2d_6">
      <g>
       <use xlink:href="#m6cbb8592fd" x="45.082344" y="449.673317" style="fill: #212529; stroke: #212529; stroke-width: 0.8"/>
      </g>
     </g>
     <g id="text_4">
      <text style="font-size: 10px; font-family: 'DejaVu Sans', 'Bitstream Vera Sans', 'Computer Modern Sans Serif', 'Lucida Grande', 'Verdana', 'Geneva', 'Lucid', 'Arial', 'Helvetica', 'Avant Garde', sans-serif; text-anchor: end; fill: #212529" x="38.082344" y="453.472145" transform="rotate(-0 38.082344 453.472145)">10</text>
     </g>
    </g>
    <g id="ytick_3">
     <g id="line2d_7">
      <path d="M 45.082344 395.177373 
L 669.877656 395.177373 
" clip-path="url(#p7e0075ab57)" style="fill: none; stroke-dasharray: 2.96,1.28; stroke-dashoffset: 0; stroke: #dee2e6; stroke-width: 0.8"/>
     </g>
     <g id="line2d_8">
      <g>
       <use xlink:href="#m6cbb8592fd" x="45.082344" y="395.177373" style="fill: #212529; stroke: #212529; stroke-width: 0.8"/>
      </g>
     </g>
     <g id="text_5">
      <text style="font-size: 10px; font-family: 'DejaVu Sans', 'Bitstream Vera Sans', 'Computer Modern Sans Serif', 'Lucida Grande', 'Verdana', 'Geneva', 'Lucid', 'Arial', 'Helvetica', 'Avant Garde', sans-serif; text-anchor: end; fill: #212529" x="38.082344" y="398.976201" transform="rotate(-0 38.082344 398.976201)">20</text>
     </g>
    </g>
    <g id="ytick_4">
     <g id="line2d_9">
      <path d="M 45.082344 340.68143 
L 669.877656 340.68143 
" clip-path="url(#p7e0075ab57)" style="fill: none; stroke-dasharray: 2.96,1.28; stroke-dashoffset: 0; stroke: #dee2e6; stroke-width: 0.8"/>
     </g>
     <g id="line2d_10">
      <g>
       <use xlink:href="#m6cbb8592fd" x="45.082344" y="340.68143" style="fill: #212529; stroke: #212529; stroke-width: 0.8"/>
      </g>
     </g>
     <g id="text_6">
      <text style="font-size: 10px; font-family: 'DejaVu Sans', 'Bitstream Vera Sans', 'Computer Modern Sans Serif', 'Lucida Grande', 'Verdana', 'Geneva', 'Lucid', 'Arial', 'Helvetica', 'Avant Garde', sans-serif; text-anchor: end; fill: #212529" x="38.082344" y="344.480258" transform="rotate(-0 38.082344 344.480258)">30</text>
     </g>
    </g>
    <g id="ytick_5">
     <g id="line2d_11">
      <path d="M 45.082344 286.185487 
L 669.877656 286.185487 
" clip-path="url(#p7e0075ab57)" style="fill: none; stroke-dasharray: 2.96,1.28; stroke-dashoffset: 0; stroke: #dee2e6; stroke-width: 0.8"/>
     </g>
     <g id="line2d_12">
      <g>
       <use xlink:href="#m6cbb8592fd" x="45.082344" y="286.185487" style="fill: #212529; stroke: #212529; stroke-width: 0.8"/>
      </g>
     </g>
     <g id="text_7">
      <text style="font-size: 10px; font-family: 'DejaVu Sans', 'Bitstream Vera Sans', 'Computer Modern Sans Serif', 'Lucida Grande', 'Verdana', 'Geneva', 'Lucid', 'Arial', 'Helvetica', 'Avant Garde', sans-serif; text-anchor: end; fill: #212529" x="38.082344" y="289.984315" transform="rotate(-0 38.082344 289.984315)">40</text>
     </g>
    </g>
    <g id="ytick_6">
     <g id="line2d_13">
      <path d="M 45.082344 231.689543 
L 669.877656 231.689543 
" clip-path="url(#p7e0075ab57)" style="fill: none; stroke-dasharray: 2.96,1.28; stroke-dashoffset: 0; stroke: #dee2e6; stroke-width: 0.8"/>
     </g>
     <g id="line2d_14">
      <g>
       <use xlink:href="#m6cbb8592fd" x="45.082344" y="231.689543" style="fill: #212529; stroke: #212529; stroke-width: 0.8"/>
      </g>
     </g>
     <g id="text_8">
      <text style="font-size: 10px; font-family: 'DejaVu Sans', 'Bitstream Vera Sans', 'Computer Modern Sans Serif', 'Lucida Grande', 'Verdana', 'Geneva', 'Lucid', 'Arial', 'Helvetica', 'Avant Garde', sans-serif; text-anchor: end; fill: #212529" x="38.082344" y="235.488371" transform="rotate(-0 38.082344 235.488371)">50</text>
     </g>
    </g>
    <g id="ytick_7">
     <g id="line2d_15">
      <path d="M 45.082344 177.1936 
L 669.877656 177.1936 
" clip-path="url(#p7e0075ab57)" style="fill: none; stroke-dasharray: 2.96,1.28; stroke-dashoffset: 0; stroke: #dee2e6; stroke-width: 0.8"/>
     </g>
     <g id="line2d_16">
      <g>
       <use xlink:href="#m6cbb8592fd" x="45.082344" y="177.1936" style="fill: #212529; stroke: #212529; stroke-width: 0.8"/>
      </g>
     </g>
     <g id="text_9">
      <text style="font-size: 10px; font-family: 'DejaVu Sans', 'Bitstream Vera Sans', 'Computer Modern Sans Serif', 'Lucida Grande', 'Verdana', 'Geneva', 'Lucid', 'Arial', 'Helvetica', 'Avant Garde', sans-serif; text-anchor: end; fill: #212529" x="38.082344" y="180.992428" transform="rotate(-0 38.082344 180.992428)">60</text>
     </g>
    </g>
    <g id="ytick_8">
     <g id="line2d_17">
      <path d="M 45.082344 122.697656 
L 669.877656 122.697656 
" clip-path="url(#p7e0075ab57)" style="fill: none; stroke-dasharray: 2.96,1.28; stroke-dashoffset: 0; stroke: #dee2e6; stroke-width: 0.8"/>
     </g>
     <g id="line2d_18">
      <g>
       <use xlink:href="#m6cbb8592fd" x="45.082344" y="122.697656" style="fill: #212529; stroke: #212529; stroke-width: 0.8"/>
      </g>
     </g>
     <g id="text_10">
      <text style="font-size: 10px; font-family: 'DejaVu Sans', 'Bitstream Vera Sans', 'Computer Modern Sans Serif', 'Lucida Grande', 'Verdana', 'Geneva', 'Lucid', 'Arial', 'Helvetica', 'Avant Garde', sans-serif; text-anchor: end; fill: #212529" x="38.082344" y="126.496484" transform="rotate(-0 38.082344 126.496484)">70</text>
     </g>
    </g>
    <g id="ytick_9">
     <g id="line2d_19">
      <path d="M 45.082344 68.201713 
L 669.877656 68.201713 
" clip-path="url(#p7e0075ab57)" style="fill: none; stroke-dasharray: 2.96,1.28; stroke-dashoffset: 0; stroke: #dee2e6; stroke-width: 0.8"/>
     </g>
     <g id="line2d_20">
      <g>
       <use xlink:href="#m6cbb8592fd" x="45.082344" y="68.201713" style="fill: #212529; stroke: #212529; stroke-width: 0.8"/>
      </g>
     </g>
     <g id="text_11">
      <text style="font-size: 10px; font-family: 'DejaVu Sans', 'Bitstream Vera Sans', 'Computer Modern Sans Serif', 'Lucida Grande', 'Verdana', 'Geneva', 'Lucid', 'Arial', 'Helvetica', 'Avant Garde', sans-serif; text-anchor: end; fill: #212529" x="38.082344" y="72.000541" transform="rotate(-0 38.082344 72.000541)">80</text>
     </g>
    </g>
    <g id="text_12">
     <text style="font-size: 10px; font-family: 'DejaVu Sans', 'Bitstream Vera Sans', 'Computer Modern Sans Serif', 'Lucida Grande', 'Verdana', 'Geneva', 'Lucid', 'Arial', 'Helvetica', 'Avant Garde', sans-serif; text-anchor: middle; fill: #212529" x="18.955" y="268.498828" transform="rotate(-90 18.955 268.498828)">Duration [ms]</text>
    </g>
   </g>
   <g id="line2d_21">
    <path d="M 73.482131 179.640468 
L 78.74134 190.501509 
L 84.000549 186.376166 
L 89.25976 172.88842 
L 94.518991 185.362542 
L 99.778189 185.596874 
L 105.037419 183.041014 
L 110.296646 186.158182 
L 115.555859 189.504233 
L 120.815059 173.133652 
L 126.074298 161.362528 
L 131.333497 164.283511 
L 136.592732 178.452456 
L 141.851956 195.656825 
L 147.111156 178.615944 
L 152.370404 185.209953 
L 157.629569 185.269899 
L 162.888792 156.610482 
L 168.148054 190.801237 
L 173.407266 165.406127 
L 178.666485 176.904771 
L 183.925662 182.932023 
L 189.184899 182.016491 
L 194.44412 172.365259 
L 199.703328 155.242634 
L 204.962554 184.828481 
L 225.999413 175.476978 
L 231.258669 162.714028 
L 236.517863 159.542364 
L 241.777082 185.193604 
L 247.036308 187.030118 
L 252.295522 166.158171 
L 257.554757 184.790334 
L 262.813868 178.948369 
L 268.073157 156.196313 
L 273.332404 162.659532 
L 278.591602 166.599588 
L 283.850838 164.376154 
L 289.110039 184.610498 
L 294.369261 162.872066 
L 299.62846 174.76853 
L 304.887697 165.64046 
L 310.14698 168.223567 
L 315.406131 107.079119 
L 320.665358 158.550538 
L 325.924561 182.457908 
L 331.18378 146.615926 
L 336.443003 172.62139 
L 341.702208 171.095504 
L 346.961439 161.395226 
L 352.220632 163.765799 
L 509.997512 163.765799 
L 559.08025 145.384318 
L 562.589597 178.468805 
L 567.848814 175.215397 
L 573.108018 176.348913 
L 578.367234 169.035557 
L 583.626484 162.229014 
L 588.885684 161.149994 
L 594.144892 170.038282 
L 599.404099 165.378879 
L 604.663333 170.4688 
L 609.922563 135.569598 
L 615.181781 165.041004 
L 620.441019 48.190803 
L 625.700195 171.923842 
L 630.959429 182.054638 
L 636.218641 179.504228 
L 641.477869 165.536917 
" clip-path="url(#p7e0075ab57)" style="fill: none; stroke: #007bff; stroke-width: 1.5; stroke-linecap: square"/>
    <defs>
     <path id="mda278d38ee" d="M 0 2 
C 0.530406 2 1.03916 1.789267 1.414214 1.414214 
C 1.789267 1.03916 2 0.530406 2 0 
C 2 -0.530406 1.789267 -1.03916 1.414214 -1.414214 
C 1.03916 -1.789267 0.530406 -2 0 -2 
C -0.530406 -2 -1.03916 -1.789267 -1.414214 -1.414214 
C -1.789267 -1.03916 -2 -0.530406 -2 0 
C -2 0.530406 -1.789267 1.03916 -1.414214 1.414214 
C -1.03916 1.789267 -0.530406 2 0 2 
z
" style="stroke: #007bff"/>
    </defs>
    <g clip-path="url(#p7e0075ab57)">
     <use xlink:href="#mda278d38ee" x="73.482131" y="179.640468" style="fill: #007bff; stroke: #007bff"/>
     <use xlink:href="#mda278d38ee" x="78.74134" y="190.501509" style="fill: #007bff; stroke: #007bff"/>
     <use xlink:href="#mda278d38ee" x="84.000549" y="186.376166" style="fill: #007bff; stroke: #007bff"/>
     <use xlink:href="#mda278d38ee" x="89.25976" y="172.88842" style="fill: #007bff; stroke: #007bff"/>
     <use xlink:href="#mda278d38ee" x="94.518991" y="185.362542" style="fill: #007bff; stroke: #007bff"/>
     <use xlink:href="#mda278d38ee" x="99.778189" y="185.596874" style="fill: #007bff; stroke: #007bff"/>
     <use xlink:href="#mda278d38ee" x="105.037419" y="183.041014" style="fill: #007bff; stroke: #007bff"/>
     <use xlink:href="#mda278d38ee" x="110.296646" y="186.158182" style="fill: #007bff; stroke: #007bff"/>
     <use xlink:href="#mda278d38ee" x="115.555859" y="189.504233" style="fill: #007bff; stroke: #007bff"/>
     <use xlink:href="#mda278d38ee" x="120.815059" y="173.133652" style="fill: #007bff; stroke: #007bff"/>
     <use xlink:href="#mda278d38ee" x="126.074298" y="161.362528" style="fill: #007bff; stroke: #007bff"/>
     <use xlink:href="#mda278d38ee" x="131.333497" y="164.283511" style="fill: #007bff; stroke: #007bff"/>
     <use xlink:href="#mda278d38ee" x="136.592732" y="178.452456" style="fill: #007bff; stroke: #007bff"/>
     <use xlink:href="#mda278d38ee" x="141.851956" y="195.656825" style="fill: #007bff; stroke: #007bff"/>
     <use xlink:href="#mda278d38ee" x="147.111156" y="178.615944" style="fill: #007bff; stroke: #007bff"/>
     <use xlink:href="#mda278d38ee" x="152.370404" y="185.209953" style="fill: #007bff; stroke: #007bff"/>
     <use xlink:href="#mda278d38ee" x="157.629569" y="185.269899" style="fill: #007bff; stroke: #007bff"/>
     <use xlink:href="#mda278d38ee" x="162.888792" y="156.610482" style="fill: #007bff; stroke: #007bff"/>
     <use xlink:href="#mda278d38ee" x="168.148054" y="190.801237" style="fill: #007bff; stroke: #007bff"/>
     <use xlink:href="#mda278d38ee" x="173.407266" y="165.406127" style="fill: #007bff; stroke: #007bff"/>
     <use xlink:href="#mda278d38ee" x="178.666485" y="176.904771" style="fill: #007bff; stroke: #007bff"/>
     <use xlink:href="#mda278d38ee" x="183.925662" y="182.932023" style="fill: #007bff; stroke: #007bff"/>
     <use xlink:href="#mda278d38ee" x="189.184899" y="182.016491" style="fill: #007bff; stroke: #007bff"/>
     <use xlink:href="#mda278d38ee" x="194.44412" y="172.365259" style="fill: #007bff; stroke: #007bff"/>
     <use xlink:href="#mda278d38ee" x="199.703328" y="155.242634" style="fill: #007bff; stroke: #007bff"/>
     <use xlink:href="#mda278d38ee" x="204.962554" y="184.828481" style="fill: #007bff; stroke: #007bff"/>
     <use xlink:href="#mda278d38ee" x="225.999413" y="175.476978" style="fill: #007bff; stroke: #007bff"/>
     <use xlink:href="#mda278d38ee" x="231.258669" y="162.714028" style="fill: #007bff; stroke: #007bff"/>
     <use xlink:href="#mda278d38ee" x="236.517863" y="159.542364" style="fill: #007bff; stroke: #007bff"/>
     <use xlink:href="#mda278d38ee" x="241.777082" y="185.193604" style="fill: #007bff; stroke: #007bff"/>
     <use xlink:href="#mda278d38ee" x="247.036308" y="187.030118" style="fill: #007bff; stroke: #007bff"/>
     <use xlink:href="#mda278d38ee" x="252.295522" y="166.158171" style="fill: #007bff; stroke: #007bff"/>
     <use xlink:href="#mda278d38ee" x="257.554757" y="184.790334" style="fill: #007bff; stroke: #007bff"/>
     <use xlink:href="#mda278d38ee" x="262.813868" y="178.948369" style="fill: #007bff; stroke: #007bff"/>
     <use xlink:href="#mda278d38ee" x="268.073157" y="156.196313" style="fill: #007bff; stroke: #007bff"/>
     <use xlink:href="#mda278d38ee" x="273.332404" y="162.659532" style="fill: #007bff; stroke: #007bff"/>
     <use xlink:href="#mda278d38ee" x="278.591602" y="166.599588" style="fill: #007bff; stroke: #007bff"/>
     <use xlink:href="#mda278d38ee" x="283.850838" y="164.376154" style="fill: #007bff; stroke: #007bff"/>
     <use xlink:href="#mda278d38ee" x="289.110039" y="184.610498" style="fill: #007bff; stroke: #007bff"/>
     <use xlink:href="#mda278d38ee" x="294.369261" y="162.872066" style="fill: #007bff; stroke: #007bff"/>
     <use xlink:href="#mda278d38ee" x="299.62846" y="174.76853" style="fill: #007bff; stroke: #007bff"/>
     <use xlink:href="#mda278d38ee" x="304.887697" y="165.64046" style="fill: #007bff; stroke: #007bff"/>
     <use xlink:href="#mda278d38ee" x="310.14698" y="168.223567" style="fill: #007bff; stroke: #007bff"/>
     <use xlink:href="#mda278d38ee" x="315.406131" y="107.079119" style="fill: #007bff; stroke: #007bff"/>
     <use xlink:href="#mda278d38ee" x="320.665358" y="158.550538" style="fill: #007bff; stroke: #007bff"/>
     <use xlink:href="#mda278d38ee" x="325.924561" y="182.457908" style="fill: #007bff; stroke: #007bff"/>
     <use xlink:href="#mda278d38ee" x="331.18378" y="146.615926" style="fill: #007bff; stroke: #007bff"/>
     <use xlink:href="#mda278d38ee" x="336.443003" y="172.62139" style="fill: #007bff; stroke: #007bff"/>
     <use xlink:href="#mda278d38ee" x="341.702208" y="171.095504" style="fill: #007bff; stroke: #007bff"/>
     <use xlink:href="#mda278d38ee" x="346.961439" y="161.395226" style="fill: #007bff; stroke: #007bff"/>
     <use xlink:href="#mda278d38ee" x="352.220632" y="163.765799" style="fill: #007bff; stroke: #007bff"/>
     <use xlink:href="#mda278d38ee" x="509.997512" y="163.765799" style="fill: #007bff; stroke: #007bff"/>
     <use xlink:href="#mda278d38ee" x="559.08025" y="145.384318" style="fill: #007bff; stroke: #007bff"/>
     <use xlink:href="#mda278d38ee" x="562.589597" y="178.468805" style="fill: #007bff; stroke: #007bff"/>
     <use xlink:href="#mda278d38ee" x="567.848814" y="175.215397" style="fill: #007bff; stroke: #007bff"/>
     <use xlink:href="#mda278d38ee" x="573.108018" y="176.348913" style="fill: #007bff; stroke: #007bff"/>
     <use xlink:href="#mda278d38ee" x="578.367234" y="169.035557" style="fill: #007bff; stroke: #007bff"/>
     <use xlink:href="#mda278d38ee" x="583.626484" y="162.229014" style="fill: #007bff; stroke: #007bff"/>
     <use xlink:href="#mda278d38ee" x="588.885684" y="161.149994" style="fill: #007bff; stroke: #007bff"/>
     <use xlink:href="#mda278d38ee" x="594.144892" y="170.038282" style="fill: #007bff; stroke: #007bff"/>
     <use xlink:href="#mda278d38ee" x="599.404099" y="165.378879" style="fill: #007bff; stroke: #007bff"/>
     <use xlink:href="#mda278d38ee" x="604.663333" y="170.4688" style="fill: #007bff; stroke: #007bff"/>
     <use xlink:href="#mda278d38ee" x="609.922563" y="135.569598" style="fill: #007bff; stroke: #007bff"/>
     <use xlink:href="#mda278d38ee" x="615.181781" y="165.041004" style="fill: #007bff; stroke: #007bff"/>
     <use xlink:href="#mda278d38ee" x="620.441019" y="48.190803" style="fill: #007bff; stroke: #007bff"/>
     <use xlink:href="#mda278d38ee" x="625.700195" y="171.923842" style="fill: #007bff; stroke: #007bff"/>
     <use xlink:href="#mda278d38ee" x="630.959429" y="182.054638" style="fill: #007bff; stroke: #007bff"/>
     <use xlink:href="#mda278d38ee" x="636.218641" y="179.504228" style="fill: #007bff; stroke: #007bff"/>
     <use xlink:href="#mda278d38ee" x="641.477869" y="165.536917" style="fill: #007bff; stroke: #007bff"/>
    </g>
   </g>
   <g id="line2d_22">
    <path d="M 73.482131 463.973052 
L 78.74134 468.092946 
L 84.000549 466.872236 
L 89.25976 453.346343 
L 94.518991 457.02482 
L 99.778189 458.850434 
L 105.037419 467.302754 
L 110.296646 461.547983 
L 115.555859 471.994855 
L 120.815059 462.300027 
L 126.074298 471.340904 
L 131.333497 479.286412 
L 136.592732 451.264598 
L 141.851956 458.141986 
L 147.111156 468.092946 
L 152.370404 455.793211 
L 157.629569 466.697849 
L 162.888792 475.01393 
L 168.148054 464.016649 
L 173.407266 473.122921 
L 178.666485 475.346356 
L 183.925662 465.286405 
L 189.184899 456.049342 
L 194.44412 455.9458 
L 199.703328 461.84771 
L 204.962554 438.588842 
L 225.999413 461.04662 
L 231.258669 459.460788 
L 236.517863 464.049347 
L 241.777082 453.815008 
L 247.036308 455.171957 
L 252.295522 461.553432 
L 257.554757 464.932181 
L 262.813868 455.193756 
L 268.073157 476.212841 
L 273.332404 463.308202 
L 278.591602 465.395396 
L 283.850838 441.558871 
L 289.110039 460.147437 
L 294.369261 450.403562 
L 299.62846 434.125624 
L 304.887697 456.027544 
L 310.14698 479.362707 
L 315.406131 469.275508 
L 320.665358 467.76052 
L 325.924561 443.956692 
L 331.18378 439.989388 
L 336.443003 468.414472 
L 341.702208 460.528909 
L 346.961439 464.997576 
L 352.220632 457.308198 
L 509.997512 457.308198 
L 559.08025 459.340897 
L 562.589597 467.062972 
L 567.848814 449.934897 
L 573.108018 449.956696 
L 578.367234 475.008481 
L 583.626484 482.528921 
L 588.885684 483.504398 
L 594.144892 470.975781 
L 599.404099 472.567063 
L 604.663333 476.316383 
L 609.922563 478.697856 
L 615.181781 488.806854 
L 620.441019 471.242811 
L 625.700195 470.000304 
L 630.959429 472.970333 
L 636.218641 462.992125 
L 641.477869 470.572511 
" clip-path="url(#p7e0075ab57)" style="fill: none; stroke: #dc3545; stroke-width: 1.5; stroke-linecap: square"/>
    <defs>
     <path id="md0e8b2a73b" d="M 0 2 
C 0.530406 2 1.03916 1.789267 1.414214 1.414214 
C 1.789267 1.03916 2 0.530406 2 0 
C 2 -0.530406 1.789267 -1.03916 1.414214 -1.414214 
C 1.03916 -1.789267 0.530406 -2 0 -2 
C -0.530406 -2 -1.03916 -1.789267 -1.414214 -1.414214 
C -1.789267 -1.03916 -2 -0.530406 -2 0 
C -2 0.530406 -1.789267 1.03916 -1.414214 1.414214 
C -1.03916 1.789267 -0.530406 2 0 2 
z
" style="stroke: #dc3545"/>
    </defs>
    <g clip-path="url(#p7e0075ab57)">
     <use xlink:href="#md0e8b2a73b" x="73.482131" y="463.973052" style="fill: #dc3545; stroke: #dc3545"/>
     <use xlink:href="#md0e8b2a73b" x="78.74134" y="468.092946" style="fill: #dc3545; stroke: #dc3545"/>
     <use xlink:href="#md0e8b2a73b" x="84.000549" y="466.872236" style="fill: #dc3545; stroke: #dc3545"/>
     <use xlink:href="#md0e8b2a73b" x="89.25976" y="453.346343" style="fill: #dc3545; stroke: #dc3545"/>
     <use xlink:href="#md0e8b2a73b" x="94.518991" y="457.02482" style="fill: #dc3545; stroke: #dc3545"/>
     <use xlink:href="#md0e8b2a73b" x="99.778189" y="458.850434" style="fill: #dc3545; stroke: #dc3545"/>
     <use xlink:href="#md0e8b2a73b" x="105.037419" y="467.302754" style="fill: #dc3545; stroke: #dc3545"/>
     <use xlink:href="#md0e8b2a73b" x="110.296646" y="461.547983" style="fill: #dc3545; stroke: #dc3545"/>
     <use xlink:href="#md0e8b2a73b" x="115.555859" y="471.994855" style="fill: #dc3545; stroke: #dc3545"/>
     <use xlink:href="#md0e8b2a73b" x="120.815059" y="462.300027" style="fill: #dc3545; stroke: #dc3545"/>
     <use xlink:href="#md0e8b2a73b" x="126.074298" y="471.340904" style="fill: #dc3545; stroke: #dc3545"/>
     <use xlink:href="#md0e8b2a73b" x="131.333497" y="479.286412" style="fill: #dc3545; stroke: #dc3545"/>
     <use xlink:href="#md0e8b2a73b" x="136.592732" y="451.264598" style="fill: #dc3545; stroke: #dc3545"/>
     <use xlink:href="#md0e8b2a73b" x="141.851956" y="458.141986" style="fill: #dc3545; stroke: #dc3545"/>
     <use xlink:href="#md0e8b2a73b" x="147.111156" y="468.092946" style="fill: #dc3545; stroke: #dc3545"/>
     <use xlink:href="#md0e8b2a73b" x="152.370404" y="455.793211" style="fill: #dc3545; stroke: #dc3545"/>
     <use xlink:href="#md0e8b2a73b" x="157.629569" y="466.697849" style="fill: #dc3545; stroke: #dc3545"/>
     <use xlink:href="#md0e8b2a73b" x="162.888792" y="475.01393" style="fill: #dc3545; stroke: #dc3545"/>
     <use xlink:href="#md0e8b2a73b" x="168.148054" y="464.016649" style="fill: #dc3545; stroke: #dc3545"/>
     <use xlink:href="#md0e8b2a73b" x="173.407266" y="473.122921" style="fill: #dc3545; stroke: #dc3545"/>
     <use xlink:href="#md0e8b2a73b" x="178.666485" y="475.346356" style="fill: #dc3545; stroke: #dc3545"/>
     <use xlink:href="#md0e8b2a73b" x="183.925662" y="465.286405" style="fill: #dc3545; stroke: #dc3545"/>
     <use xlink:href="#md0e8b2a73b" x="189.184899" y="456.049342" style="fill: #dc3545; stroke: #dc3545"/>
     <use xlink:href="#md0e8b2a73b" x="194.44412" y="455.9458" style="fill: #dc3545; stroke: #dc3545"/>
     <use xlink:href="#md0e8b2a73b" x="199.703328" y="461.84771" style="fill: #dc3545; stroke: #dc3545"/>
     <use xlink:href="#md0e8b2a73b" x="204.962554" y="438.588842" style="fill: #dc3545; stroke: #dc3545"/>
     <use xlink:href="#md0e8b2a73b" x="225.999413" y="461.04662" style="fill: #dc3545; stroke: #dc3545"/>
     <use xlink:href="#md0e8b2a73b" x="231.258669" y="459.460788" style="fill: #dc3545; stroke: #dc3545"/>
     <use xlink:href="#md0e8b2a73b" x="236.517863" y="464.049347" style="fill: #dc3545; stroke: #dc3545"/>
     <use xlink:href="#md0e8b2a73b" x="241.777082" y="453.815008" style="fill: #dc3545; stroke: #dc3545"/>
     <use xlink:href="#md0e8b2a73b" x="247.036308" y="455.171957" style="fill: #dc3545; stroke: #dc3545"/>
     <use xlink:href="#md0e8b2a73b" x="252.295522" y="461.553432" style="fill: #dc3545; stroke: #dc3545"/>
     <use xlink:href="#md0e8b2a73b" x="257.554757" y="464.932181" style="fill: #dc3545; stroke: #dc3545"/>
     <use xlink:href="#md0e8b2a73b" x="262.813868" y="455.193756" style="fill: #dc3545; stroke: #dc3545"/>
     <use xlink:href="#md0e8b2a73b" x="268.073157" y="476.212841" style="fill: #dc3545; stroke: #dc3545"/>
     <use xlink:href="#md0e8b2a73b" x="273.332404" y="463.308202" style="fill: #dc3545; stroke: #dc3545"/>
     <use xlink:href="#md0e8b2a73b" x="278.591602" y="465.395396" style="fill: #dc3545; stroke: #dc3545"/>
     <use xlink:href="#md0e8b2a73b" x="283.850838" y="441.558871" style="fill: #dc3545; stroke: #dc3545"/>
     <use xlink:href="#md0e8b2a73b" x="289.110039" y="460.147437" style="fill: #dc3545; stroke: #dc3545"/>
     <use xlink:href="#md0e8b2a73b" x="294.369261" y="450.403562" style="fill: #dc3545; stroke: #dc3545"/>
     <use xlink:href="#md0e8b2a73b" x="299.62846" y="434.125624" style="fill: #dc3545; stroke: #dc3545"/>
     <use xlink:href="#md0e8b2a73b" x="304.887697" y="456.027544" style="fill: #dc3545; stroke: #dc3545"/>
     <use xlink:href="#md0e8b2a73b" x="310.14698" y="479.362707" style="fill: #dc3545; stroke: #dc3545"/>
     <use xlink:href="#md0e8b2a73b" x="315.406131" y="469.275508" style="fill: #dc3545; stroke: #dc3545"/>
     <use xlink:href="#md0e8b2a73b" x="320.665358" y="467.76052" style="fill: #dc3545; stroke: #dc3545"/>
     <use xlink:href="#md0e8b2a73b" x="325.924561" y="443.956692" style="fill: #dc3545; stroke: #dc3545"/>
     <use xlink:href="#md0e8b2a73b" x="331.18378" y="439.989388" style="fill: #dc3545; stroke: #dc3545"/>
     <use xlink:href="#md0e8b2a73b" x="336.443003" y="468.414472" style="fill: #dc3545; stroke: #dc3545"/>
     <use xlink:href="#md0e8b2a73b" x="341.702208" y="460.528909" style="fill: #dc3545; stroke: #dc3545"/>
     <use xlink:href="#md0e8b2a73b" x="346.961439" y="464.997576" style="fill: #dc3545; stroke: #dc3545"/>
     <use xlink:href="#md0e8b2a73b" x="352.220632" y="457.308198" style="fill: #dc3545; stroke: #dc3545"/>
     <use xlink:href="#md0e8b2a73b" x="509.997512" y="457.308198" style="fill: #dc3545; stroke: #dc3545"/>
     <use xlink:href="#md0e8b2a73b" x="559.08025" y="459.340897" style="fill: #dc3545; stroke: #dc3545"/>
     <use xlink:href="#md0e8b2a73b" x="562.589597" y="467.062972" style="fill: #dc3545; stroke: #dc3545"/>
     <use xlink:href="#md0e8b2a73b" x="567.848814" y="449.934897" style="fill: #dc3545; stroke: #dc3545"/>
     <use xlink:href="#md0e8b2a73b" x="573.108018" y="449.956696" style="fill: #dc3545; stroke: #dc3545"/>
     <use xlink:href="#md0e8b2a73b" x="578.367234" y="475.008481" style="fill: #dc3545; stroke: #dc3545"/>
     <use xlink:href="#md0e8b2a73b" x="583.626484" y="482.528921" style="fill: #dc3545; stroke: #dc3545"/>
     <use xlink:href="#md0e8b2a73b" x="588.885684" y="483.504398" style="fill: #dc3545; stroke: #dc3545"/>
     <use xlink:href="#md0e8b2a73b" x="594.144892" y="470.975781" style="fill: #dc3545; stroke: #dc3545"/>
     <use xlink:href="#md0e8b2a73b" x="599.404099" y="472.567063" style="fill: #dc3545; stroke: #dc3545"/>
     <use xlink:href="#md0e8b2a73b" x="604.663333" y="476.316383" style="fill: #dc3545; stroke: #dc3545"/>
     <use xlink:href="#md0e8b2a73b" x="609.922563" y="478.697856" style="fill: #dc3545; stroke: #dc3545"/>
     <use xlink:href="#md0e8b2a73b" x="615.181781" y="488.806854" style="fill: #dc3545; stroke: #dc3545"/>
     <use xlink:href="#md0e8b2a73b" x="620.441019" y="471.242811" style="fill: #dc3545; stroke: #dc3545"/>
     <use xlink:href="#md0e8b2a73b" x="625.700195" y="470.000304" style="fill: #dc3545; stroke: #dc3545"/>
     <use xlink:href="#md0e8b2a73b" x="630.959429" y="472.970333" style="fill: #dc3545; stroke: #dc3545"/>
     <use xlink:href="#md0e8b2a73b" x="636.218641" y="462.992125" style="fill: #dc3545; stroke: #dc3545"/>
     <use xlink:href="#md0e8b2a73b" x="641.477869" y="470.572511" style="fill: #dc3545; stroke: #dc3545"/>
    </g>
   </g>
   <g id="patch_3">
    <path d="M 45.082344 510.837656 
L 45.082344 26.16 
" style="fill: none; stroke: #212529; stroke-width: 0.8; stroke-linejoin: miter; stroke-linecap: square"/>
   </g>
   <g id="patch_4">
    <path d="M 45.082344 510.837656 
L 669.877656 510.837656 
" style="fill: none; stroke: #212529; stroke-width: 0.8; stroke-linejoin: miter; stroke-linecap: square"/>
   </g>
   <g id="patch_5">
    <path d="M 45.082344 26.16 
L 669.877656 26.16 
" style="fill: none; stroke: #212529; stroke-width: 0.8; stroke-linejoin: miter; stroke-linecap: square"/>
   </g>
   <g id="legend_1">
    <g id="patch_6">
     <path d="M 50.913344 70.310952 
L 124.766603 70.310952 
Q 126.432603 70.310952 126.432603 68.644952 
L 126.432603 31.991 
Q 126.432603 30.325 124.766603 30.325 
L 50.913344 30.325 
Q 49.247344 30.325 49.247344 31.991 
L 49.247344 68.644952 
Q 49.247344 70.310952 50.913344 70.310952 
L 50.913344 70.310952 
z
" style="fill: none; opacity: 0.8; stroke: #212529; stroke-linejoin: miter"/>
    </g>
    <g id="line2d_23">
     <path d="M 52.579344 37.070998 
L 60.909344 37.070998 
L 69.239344 37.070998 
" style="fill: none; stroke: #007bff; stroke-width: 1.5; stroke-linecap: square"/>
     <g>
      <use xlink:href="#mda278d38ee" x="60.909344" y="37.070998" style="fill: #007bff; stroke: #007bff"/>
     </g>
    </g>
    <g id="text_13">
     <text style="font-size: 8.33px; font-family: 'DejaVu Sans', 'Bitstream Vera Sans', 'Computer Modern Sans Serif', 'Lucida Grande', 'Verdana', 'Geneva', 'Lucid', 'Arial', 'Helvetica', 'Avant Garde', sans-serif; text-anchor: start; fill: #212529" x="75.903344" y="39.986498" transform="rotate(-0 75.903344 39.986498)">Cold Start</text>
    </g>
    <g id="line2d_24">
     <path d="M 52.579344 49.566649 
L 60.909344 49.566649 
L 69.239344 49.566649 
" style="fill: none; stroke: #dc3545; stroke-width: 1.5; stroke-linecap: square"/>
     <g>
      <use xlink:href="#md0e8b2a73b" x="60.909344" y="49.566649" style="fill: #dc3545; stroke: #dc3545"/>
     </g>
    </g>
    <g id="text_14">
     <text style="font-size: 8.33px; font-family: 'DejaVu Sans', 'Bitstream Vera Sans', 'Computer Modern Sans Serif', 'Lucida Grande', 'Verdana', 'Geneva', 'Lucid', 'Arial', 'Helvetica', 'Avant Garde', sans-serif; text-anchor: start; fill: #212529" x="75.903344" y="52.482149" transform="rotate(-0 75.903344 52.482149)">Warm Start</text>
    </g>
    <g id="line2d_25">
     <path d="M 52.579344 62.0623 
L 60.909344 62.0623 
L 69.239344 62.0623 
" style="fill: none; stroke-dasharray: 5.55,2.4; stroke-dashoffset: 0; stroke: #ff7f0e; stroke-width: 1.5"/>
    </g>
    <g id="text_15">
     <text style="font-size: 8.33px; font-family: 'DejaVu Sans', 'Bitstream Vera Sans', 'Computer Modern Sans Serif', 'Lucida Grande', 'Verdana', 'Geneva', 'Lucid', 'Arial', 'Helvetica', 'Avant Garde', sans-serif; text-anchor: start; fill: #212529" x="75.903344" y="64.9778" transform="rotate(-0 75.903344 64.9778)">Memory</text>
    </g>
   </g>
  </g>
  <g id="axes_2">
   <g id="matplotlib.axis_3">
    <g id="ytick_10">
     <g id="line2d_26">
      <defs>
       <path id="m4d644ab8ff" d="M 0 0 
L 3.5 0 
" style="stroke: #212529; stroke-width: 0.8"/>
      </defs>
      <g>
       <use xlink:href="#m4d644ab8ff" x="669.877656" y="488.806854" style="fill: #212529; stroke: #212529; stroke-width: 0.8"/>
      </g>
     </g>
     <g id="text_16">
      <text style="font-size: 10px; font-family: 'DejaVu Sans', 'Bitstream Vera Sans', 'Computer Modern Sans Serif', 'Lucida Grande', 'Verdana', 'Geneva', 'Lucid', 'Arial', 'Helvetica', 'Avant Garde', sans-serif; text-anchor: start; fill: #ff7f0e" x="676.877656" y="492.605682" transform="rotate(-0 676.877656 492.605682)">21.000</text>
     </g>
    </g>
    <g id="ytick_11">
     <g id="line2d_27">
      <g>
       <use xlink:href="#m4d644ab8ff" x="669.877656" y="433.729847" style="fill: #212529; stroke: #212529; stroke-width: 0.8"/>
      </g>
     </g>
     <g id="text_17">
      <text style="font-size: 10px; font-family: 'DejaVu Sans', 'Bitstream Vera Sans', 'Computer Modern Sans Serif', 'Lucida Grande', 'Verdana', 'Geneva', 'Lucid', 'Arial', 'Helvetica', 'Avant Garde', sans-serif; text-anchor: start; fill: #ff7f0e" x="676.877656" y="437.528675" transform="rotate(-0 676.877656 437.528675)">21.025</text>
     </g>
    </g>
    <g id="ytick_12">
     <g id="line2d_28">
      <g>
       <use xlink:href="#m4d644ab8ff" x="669.877656" y="378.652841" style="fill: #212529; stroke: #212529; stroke-width: 0.8"/>
      </g>
     </g>
     <g id="text_18">
      <text style="font-size: 10px; font-family: 'DejaVu Sans', 'Bitstream Vera Sans', 'Computer Modern Sans Serif', 'Lucida Grande', 'Verdana', 'Geneva', 'Lucid', 'Arial', 'Helvetica', 'Avant Garde', sans-serif; text-anchor: start; fill: #ff7f0e" x="676.877656" y="382.451669" transform="rotate(-0 676.877656 382.451669)">21.050</text>
     </g>
    </g>
    <g id="ytick_13">
     <g id="line2d_29">
      <g>
       <use xlink:href="#m4d644ab8ff" x="669.877656" y="323.575835" style="fill: #212529; stroke: #212529; stroke-width: 0.8"/>
      </g>
     </g>
     <g id="text_19">
      <text style="font-size: 10px; font-family: 'DejaVu Sans', 'Bitstream Vera Sans', 'Computer Modern Sans Serif', 'Lucida Grande', 'Verdana', 'Geneva', 'Lucid', 'Arial', 'Helvetica', 'Avant Garde', sans-serif; text-anchor: start; fill: #ff7f0e" x="676.877656" y="327.374663" transform="rotate(-0 676.877656 327.374663)">21.075</text>
     </g>
    </g>
    <g id="ytick_14">
     <g id="line2d_30">
      <g>
       <use xlink:href="#m4d644ab8ff" x="669.877656" y="268.498828" style="fill: #212529; stroke: #212529; stroke-width: 0.8"/>
      </g>
     </g>
     <g id="text_20">
      <text style="font-size: 10px; font-family: 'DejaVu Sans', 'Bitstream Vera Sans', 'Computer Modern Sans Serif', 'Lucida Grande', 'Verdana', 'Geneva', 'Lucid', 'Arial', 'Helvetica', 'Avant Garde', sans-serif; text-anchor: start; fill: #ff7f0e" x="676.877656" y="272.297656" transform="rotate(-0 676.877656 272.297656)">21.100</text>
     </g>
    </g>
    <g id="ytick_15">
     <g id="line2d_31">
      <g>
       <use xlink:href="#m4d644ab8ff" x="669.877656" y="213.421822" style="fill: #212529; stroke: #212529; stroke-width: 0.8"/>
      </g>
     </g>
     <g id="text_21">
      <text style="font-size: 10px; font-family: 'DejaVu Sans', 'Bitstream Vera Sans', 'Computer Modern Sans Serif', 'Lucida Grande', 'Verdana', 'Geneva', 'Lucid', 'Arial', 'Helvetica', 'Avant Garde', sans-serif; text-anchor: start; fill: #ff7f0e" x="676.877656" y="217.22065" transform="rotate(-0 676.877656 217.22065)">21.125</text>
     </g>
    </g>
    <g id="ytick_16">
     <g id="line2d_32">
      <g>
       <use xlink:href="#m4d644ab8ff" x="669.877656" y="158.344815" style="fill: #212529; stroke: #212529; stroke-width: 0.8"/>
      </g>
     </g>
     <g id="text_22">
      <text style="font-size: 10px; font-family: 'DejaVu Sans', 'Bitstream Vera Sans', 'Computer Modern Sans Serif', 'Lucida Grande', 'Verdana', 'Geneva', 'Lucid', 'Arial', 'Helvetica', 'Avant Garde', sans-serif; text-anchor: start; fill: #ff7f0e" x="676.877656" y="162.143643" transform="rotate(-0 676.877656 162.143643)">21.150</text>
     </g>
    </g>
    <g id="ytick_17">
     <g id="line2d_33">
      <g>
       <use xlink:href="#m4d644ab8ff" x="669.877656" y="103.267809" style="fill: #212529; stroke: #212529; stroke-width: 0.8"/>
      </g>
     </g>
     <g id="text_23">
      <text style="font-size: 10px; font-family: 'DejaVu Sans', 'Bitstream Vera Sans', 'Computer Modern Sans Serif', 'Lucida Grande', 'Verdana', 'Geneva', 'Lucid', 'Arial', 'Helvetica', 'Avant Garde', sans-serif; text-anchor: start; fill: #ff7f0e" x="676.877656" y="107.066637" transform="rotate(-0 676.877656 107.066637)">21.175</text>
     </g>
    </g>
    <g id="ytick_18">
     <g id="line2d_34">
      <g>
       <use xlink:href="#m4d644ab8ff" x="669.877656" y="48.190803" style="fill: #212529; stroke: #212529; stroke-width: 0.8"/>
      </g>
     </g>
     <g id="text_24">
      <text style="font-size: 10px; font-family: 'DejaVu Sans', 'Bitstream Vera Sans', 'Computer Modern Sans Serif', 'Lucida Grande', 'Verdana', 'Geneva', 'Lucid', 'Arial', 'Helvetica', 'Avant Garde', sans-serif; text-anchor: start; fill: #ff7f0e" x="676.877656" y="51.989631" transform="rotate(-0 676.877656 51.989631)">21.200</text>
     </g>
    </g>
    <g id="text_25">
     <text style="font-size: 10px; font-family: 'DejaVu Sans', 'Bitstream Vera Sans', 'Computer Modern Sans Serif', 'Lucida Grande', 'Verdana', 'Geneva', 'Lucid', 'Arial', 'Helvetica', 'Avant Garde', sans-serif; text-anchor: middle; fill: #ff7f0e" x="723.466719" y="268.498828" transform="rotate(-90 723.466719 268.498828)">Memory Usage [MB]</text>
    </g>
   </g>
   <g id="line2d_35">
    <path d="M 73.482131 488.806854 
L 78.74134 488.806854 
L 84.000549 488.806854 
L 89.25976 488.806854 
L 94.518991 488.806854 
L 99.778189 488.806854 
L 105.037419 488.806854 
L 110.296646 488.806854 
L 115.555859 488.806854 
L 120.815059 488.806854 
L 126.074298 488.806854 
L 131.333497 488.806854 
L 136.592732 488.806854 
L 141.851956 488.806854 
L 147.111156 488.806854 
L 152.370404 488.806854 
L 157.629569 488.806854 
L 162.888792 488.806854 
L 168.148054 488.806854 
L 173.407266 488.806854 
L 178.666485 268.498828 
L 183.925662 268.498828 
L 189.184899 488.806854 
L 194.44412 268.498828 
L 199.703328 488.806854 
L 204.962554 488.806854 
L 225.999413 488.806854 
L 231.258669 488.806854 
L 236.517863 488.806854 
L 241.777082 488.806854 
L 247.036308 488.806854 
L 252.295522 268.498828 
L 257.554757 488.806854 
L 262.813868 488.806854 
L 268.073157 268.498828 
L 273.332404 488.806854 
L 278.591602 488.806854 
L 283.850838 488.806854 
L 289.110039 488.806854 
L 294.369261 268.498828 
L 299.62846 488.806854 
L 304.887697 488.806854 
L 310.14698 268.498828 
L 315.406131 268.498828 
L 320.665358 488.806854 
L 325.924561 488.806854 
L 331.18378 488.806854 
L 336.443003 488.806854 
L 341.702208 488.806854 
L 346.961439 488.806854 
L 352.220632 48.190803 
L 509.997512 48.190803 
L 559.08025 488.806854 
L 562.589597 488.806854 
L 567.848814 488.806854 
L 573.108018 488.806854 
L 578.367234 488.806854 
L 583.626484 48.190803 
L 588.885684 268.498828 
L 594.144892 488.806854 
L 599.404099 488.806854 
L 604.663333 488.806854 
L 609.922563 488.806854 
L 615.181781 488.806854 
L 620.441019 488.806854 
L 625.700195 488.806854 
L 630.959429 488.806854 
L 636.218641 488.806854 
L 641.477869 488.806854 
" clip-path="url(#p7e0075ab57)" style="fill: none; stroke-dasharray: 5.55,2.4; stroke-dashoffset: 0; stroke: #ff7f0e; stroke-width: 1.5"/>
   </g>
   <g id="patch_7">
    <path d="M 669.877656 510.837656 
L 669.877656 26.16 
" style="fill: none; stroke: #ff7f0e; stroke-width: 0.8; stroke-linejoin: miter; stroke-linecap: square"/>
   </g>
   <g id="text_26">
    <text style="font-size: 12px; font-family: 'DejaVu Sans', 'Bitstream Vera Sans', 'Computer Modern Sans Serif', 'Lucida Grande', 'Verdana', 'Geneva', 'Lucid', 'Arial', 'Helvetica', 'Avant Garde', sans-serif; text-anchor: middle; fill: #212529" x="357.48" y="20.16" transform="rotate(-0 357.48 20.16)">dotnet10_aot_on_provided_al2023 (arm64, zip, 128MB, us-east-1)</text>
   </g>
  </g>
 </g>
 <defs>
  <clipPath id="p7e0075ab57">
   <rect x="45.082344" y="26.16" width="624.795312" height="484.677656"/>
  </clipPath>
 </defs>
</svg>
