<?xml version="1.0" encoding="utf-8" standalone="no"?>
<!DOCTYPE svg PUBLIC "-//W3C//DTD SVG 1.1//EN"
  "http://www.w3.org/Graphics/SVG/1.1/DTD/svg11.dtd">
<svg xmlns:xlink="http://www.w3.org/1999/xlink" width="216pt" height="122.4pt" viewBox="0 0 216 122.4" xmlns="http://www.w3.org/2000/svg" version="1.1">
  <style>
    :root {
      --fg-color: #212529;
      --grid-color: rgba(33, 37, 41, 0.1);
    }
    @media (prefers-color-scheme: dark) {
      :root {
        --fg-color: #dee2e6;
        --grid-color: rgba(248, 249, 250, 0.15);
      }
    }
  </style>

 <metadata>
  <rdf:RDF xmlns:dc="http://purl.org/dc/elements/1.1/" xmlns:cc="http://creativecommons.org/ns#" xmlns:rdf="http://www.w3.org/1999/02/22-rdf-syntax-ns#">
   <cc:Work>
    <dc:type rdf:resource="http://purl.org/dc/dcmitype/StillImage"/>
    <dc:date>2026-06-30T15:37:32.645136</dc:date>
    <dc:format>image/svg+xml</dc:format>
    <dc:creator>
     <cc:Agent>
      <dc:title>Matplotlib v3.11.0, https://matplotlib.org/</dc:title>
     </cc:Agent>
    </dc:creator>
   </cc:Work>
  </rdf:RDF>
 </metadata>
 <defs>
  <style type="text/css">*{stroke-linejoin: round; stroke-linecap: butt}</style>
 </defs>
 <g id="figure_1">
  <g id="patch_1">
   <path d="M 0 122.4 
L 216 122.4 
L 216 0 
L 0 0 
L 0 122.4 
z
" style="fill: none; opacity: 0"/>
  </g>
  <g id="axes_1">
   <g id="patch_2">
    <path d="M 35.96 103.4 
L 211 103.4 
L 211 5 
L 35.96 5 
L 35.96 103.4 
z
" style="fill: none; opacity: 0"/>
   </g>
   <g id="matplotlib.axis_1">
    <g id="xtick_1">
     <g id="line2d_1">
      <path d="M 69.784035 103.4 
L 69.784035 5 
" clip-path="url(#p18d0e3c8ff)" style="fill: none; stroke-dasharray: 2.96,1.28; stroke-dashoffset: 0; stroke: var(--grid-color); stroke-width: 0.8"/>
     </g>
     <g id="line2d_2">
      <defs>
       <path id="m7f7ad4ff26" d="M 0 0 
L 0 3.5 
" style="stroke: var(--fg-color); stroke-width: 0.8"/>
      </defs>
      <g>
       <use xlink:href="#m7f7ad4ff26" x="69.784035" y="103.4" style="fill: var(--fg-color); stroke: var(--fg-color); stroke-width: 0.8"/>
      </g>
     </g>
     <g id="text_1">
      <text style="font-size: 7px; font-family: 'DejaVu Sans', 'Bitstream Vera Sans', 'Computer Modern Sans Serif', 'Lucida Grande', 'Verdana', 'Geneva', 'Lucid', 'Arial', 'Helvetica', 'Avant Garde', sans-serif; text-anchor: middle; fill: var(--fg-color)" x="69.784035" y="115.718359" transform="rotate(-0 69.784035 115.718359)">02/2026</text>
     </g>
    </g>
    <g id="xtick_2">
     <g id="line2d_3">
      <path d="M 122.345302 103.4 
L 122.345302 5 
" clip-path="url(#p18d0e3c8ff)" style="fill: none; stroke-dasharray: 2.96,1.28; stroke-dashoffset: 0; stroke: var(--grid-color); stroke-width: 0.8"/>
     </g>
     <g id="line2d_4">
      <g>
       <use xlink:href="#m7f7ad4ff26" x="122.345302" y="103.4" style="fill: var(--fg-color); stroke: var(--fg-color); stroke-width: 0.8"/>
      </g>
     </g>
     <g id="text_2">
      <text style="font-size: 7px; font-family: 'DejaVu Sans', 'Bitstream Vera Sans', 'Computer Modern Sans Serif', 'Lucida Grande', 'Verdana', 'Geneva', 'Lucid', 'Arial', 'Helvetica', 'Avant Garde', sans-serif; text-anchor: middle; fill: var(--fg-color)" x="122.345302" y="115.718359" transform="rotate(-0 122.345302 115.718359)">04/2026</text>
     </g>
    </g>
    <g id="xtick_3">
     <g id="line2d_5">
      <path d="M 176.688307 103.4 
L 176.688307 5 
" clip-path="url(#p18d0e3c8ff)" style="fill: none; stroke-dasharray: 2.96,1.28; stroke-dashoffset: 0; stroke: var(--grid-color); stroke-width: 0.8"/>
     </g>
     <g id="line2d_6">
      <g>
       <use xlink:href="#m7f7ad4ff26" x="176.688307" y="103.4" style="fill: var(--fg-color); stroke: var(--fg-color); stroke-width: 0.8"/>
      </g>
     </g>
     <g id="text_3">
      <text style="font-size: 7px; font-family: 'DejaVu Sans', 'Bitstream Vera Sans', 'Computer Modern Sans Serif', 'Lucida Grande', 'Verdana', 'Geneva', 'Lucid', 'Arial', 'Helvetica', 'Avant Garde', sans-serif; text-anchor: middle; fill: var(--fg-color)" x="176.688307" y="115.718359" transform="rotate(-0 176.688307 115.718359)">06/2026</text>
     </g>
    </g>
   </g>
   <g id="matplotlib.axis_2">
    <g id="ytick_1">
     <g id="line2d_7">
      <path d="M 35.96 100.307827 
L 211 100.307827 
" clip-path="url(#p18d0e3c8ff)" style="fill: none; stroke-dasharray: 2.96,1.28; stroke-dashoffset: 0; stroke: var(--grid-color); stroke-width: 0.8"/>
     </g>
     <g id="line2d_8">
      <defs>
       <path id="m808d9d019f" d="M 0 0 
L -3.5 0 
" style="stroke: var(--fg-color); stroke-width: 0.8"/>
      </defs>
      <g>
       <use xlink:href="#m808d9d019f" x="35.96" y="100.307827" style="fill: var(--fg-color); stroke: var(--fg-color); stroke-width: 0.8"/>
      </g>
     </g>
     <g id="text_4">
      <text style="font-size: 7px; font-family: 'DejaVu Sans', 'Bitstream Vera Sans', 'Computer Modern Sans Serif', 'Lucida Grande', 'Verdana', 'Geneva', 'Lucid', 'Arial', 'Helvetica', 'Avant Garde', sans-serif; text-anchor: end; fill: var(--fg-color)" x="28.96" y="102.967007" transform="rotate(-0 28.96 102.967007)">0</text>
     </g>
    </g>
    <g id="ytick_2">
     <g id="line2d_9">
      <path d="M 35.96 75.486645 
L 211 75.486645 
" clip-path="url(#p18d0e3c8ff)" style="fill: none; stroke-dasharray: 2.96,1.28; stroke-dashoffset: 0; stroke: var(--grid-color); stroke-width: 0.8"/>
     </g>
     <g id="line2d_10">
      <g>
       <use xlink:href="#m808d9d019f" x="35.96" y="75.486645" style="fill: var(--fg-color); stroke: var(--fg-color); stroke-width: 0.8"/>
      </g>
     </g>
     <g id="text_5">
      <text style="font-size: 7px; font-family: 'DejaVu Sans', 'Bitstream Vera Sans', 'Computer Modern Sans Serif', 'Lucida Grande', 'Verdana', 'Geneva', 'Lucid', 'Arial', 'Helvetica', 'Avant Garde', sans-serif; text-anchor: end; fill: var(--fg-color)" x="28.96" y="78.145825" transform="rotate(-0 28.96 78.145825)">50</text>
     </g>
    </g>
    <g id="ytick_3">
     <g id="line2d_11">
      <path d="M 35.96 50.665464 
L 211 50.665464 
" clip-path="url(#p18d0e3c8ff)" style="fill: none; stroke-dasharray: 2.96,1.28; stroke-dashoffset: 0; stroke: var(--grid-color); stroke-width: 0.8"/>
     </g>
     <g id="line2d_12">
      <g>
       <use xlink:href="#m808d9d019f" x="35.96" y="50.665464" style="fill: var(--fg-color); stroke: var(--fg-color); stroke-width: 0.8"/>
      </g>
     </g>
     <g id="text_6">
      <text style="font-size: 7px; font-family: 'DejaVu Sans', 'Bitstream Vera Sans', 'Computer Modern Sans Serif', 'Lucida Grande', 'Verdana', 'Geneva', 'Lucid', 'Arial', 'Helvetica', 'Avant Garde', sans-serif; text-anchor: end; fill: var(--fg-color)" x="28.96" y="53.324643" transform="rotate(-0 28.96 53.324643)">100</text>
     </g>
    </g>
    <g id="ytick_4">
     <g id="line2d_13">
      <path d="M 35.96 25.844282 
L 211 25.844282 
" clip-path="url(#p18d0e3c8ff)" style="fill: none; stroke-dasharray: 2.96,1.28; stroke-dashoffset: 0; stroke: var(--grid-color); stroke-width: 0.8"/>
     </g>
     <g id="line2d_14">
      <g>
       <use xlink:href="#m808d9d019f" x="35.96" y="25.844282" style="fill: var(--fg-color); stroke: var(--fg-color); stroke-width: 0.8"/>
      </g>
     </g>
     <g id="text_7">
      <text style="font-size: 7px; font-family: 'DejaVu Sans', 'Bitstream Vera Sans', 'Computer Modern Sans Serif', 'Lucida Grande', 'Verdana', 'Geneva', 'Lucid', 'Arial', 'Helvetica', 'Avant Garde', sans-serif; text-anchor: end; fill: var(--fg-color)" x="28.96" y="28.503462" transform="rotate(-0 28.96 28.503462)">150</text>
     </g>
    </g>
    <g id="text_8">
     <text style="font-size: 7px; font-family: 'DejaVu Sans', 'Bitstream Vera Sans', 'Computer Modern Sans Serif', 'Lucida Grande', 'Verdana', 'Geneva', 'Lucid', 'Arial', 'Helvetica', 'Avant Garde', sans-serif; text-anchor: middle; fill: var(--fg-color)" x="9.917109" y="54.2" transform="rotate(-90 9.917109 54.2)">ms</text>
    </g>
   </g>
   <g id="line2d_15">
    <path d="M 43.916364 24.605209 
L 44.468628 28.205769 
L 45.3595 31.013045 
L 46.250371 20.143353 
L 47.141245 22.760002 
L 48.032112 26.473251 
L 48.922979 27.701899 
L 49.81384 24.287994 
L 50.704717 31.193743 
L 51.595589 26.068169 
L 52.486458 28.160595 
L 53.377327 23.693279 
L 54.268192 29.3952 
L 55.159063 32.304243 
L 56.049934 16.090054 
L 56.940797 27.797213 
L 57.831669 30.206853 
L 58.722538 23.662997 
L 59.613407 34.03279 
L 60.504275 23.585058 
L 61.395144 29.160888 
L 62.286016 25.31857 
L 63.176879 32.378706 
L 64.067746 31.526844 
L 64.958622 24.90207 
L 65.84949 29.589302 
L 66.740361 29.982966 
L 67.631226 32.84038 
L 68.522078 30.478397 
L 69.412965 23.904755 
L 70.30383 28.464903 
L 71.194705 26.471762 
L 72.085571 26.26376 
L 72.976442 30.356277 
L 73.867306 29.028343 
L 74.758184 32.555433 
L 75.649039 32.008374 
L 76.539914 29.092382 
L 77.430784 27.46858 
L 78.321655 29.085929 
L 79.212509 30.455561 
L 80.103391 28.489227 
L 80.994245 26.85649 
L 81.885129 30.84724 
L 82.775998 31.366002 
L 83.666869 28.130313 
L 84.557735 30.519104 
L 85.44861 27.282421 
L 94.53997 23.45152 
L 95.248438 27.305257 
L 96.139324 27.890044 
L 97.030192 23.597469 
L 97.921065 32.33651 
L 98.811931 27.778349 
L 99.702798 27.604104 
L 100.593666 36.627596 
L 101.484533 25.624367 
L 102.375401 24.58138 
L 103.266272 30.222242 
L 104.157138 32.572312 
L 105.048009 32.812084 
L 105.93888 27.132005 
L 106.829748 30.841282 
L 107.720614 30.197917 
L 108.611487 28.336825 
L 109.502352 33.694229 
L 110.393224 33.19582 
L 111.284094 27.559922 
L 112.17496 29.318751 
L 113.065834 32.765917 
L 114.847564 26.311417 
L 115.738441 29.623555 
L 116.629309 30.079769 
L 117.520178 33.278226 
L 118.41104 25.249567 
L 119.301913 23.557755 
L 120.192782 26.921521 
L 121.083649 19.894645 
L 121.97452 25.934135 
L 125.537994 22.454702 
L 126.428869 27.78927 
L 127.319734 18.469909 
L 128.210603 21.901686 
L 129.101474 17.524222 
L 129.992342 27.849834 
L 130.883214 25.711241 
L 131.774065 28.311011 
L 132.664946 27.974932 
L 133.55582 26.292056 
L 134.446686 24.353522 
L 135.337558 28.710136 
L 136.228424 25.846268 
L 137.119294 24.839024 
L 138.010159 26.440487 
L 138.901032 26.213621 
L 139.791912 18.904776 
L 140.68277 21.901686 
L 141.57364 20.620913 
L 142.464507 15.074868 
L 143.355376 25.884989 
L 144.246246 22.812127 
L 145.137113 23.195366 
L 146.027984 25.637274 
L 146.918849 23.020128 
L 173.644977 23.020128 
L 181.959197 21.617731 
L 182.553652 24.792361 
L 183.444521 22.735677 
L 184.335387 13.058395 
L 185.226256 17.393166 
L 187.007996 20.028183 
L 187.898864 24.830089 
L 188.789731 23.22664 
L 189.680603 24.931856 
L 190.571474 9.472727 
L 191.462343 25.483879 
L 192.353215 21.300517 
L 193.244077 23.080195 
L 194.134949 21.877857 
L 195.025817 24.197645 
L 195.916688 18.441117 
L 196.807557 18.132838 
L 197.698426 22.2884 
L 199.480162 21.846583 
L 200.371032 24.326715 
L 201.261898 29.264145 
L 202.152766 26.731888 
L 203.043636 26.900175 
L 203.043636 26.900175 
" clip-path="url(#p18d0e3c8ff)" style="fill: none; stroke: #339af0; stroke-width: 1.2; stroke-linecap: square"/>
   </g>
   <g id="line2d_16">
    <path d="M 43.916364 98.70835 
L 45.3595 98.829974 
L 46.250371 98.520205 
L 47.141245 98.775367 
L 49.81384 98.731185 
L 50.704717 98.885573 
L 51.595589 98.587223 
L 52.486458 98.778842 
L 54.268192 98.73466 
L 57.831669 98.856781 
L 58.722538 98.689982 
L 59.613407 98.815081 
L 60.504275 98.627929 
L 64.067746 98.839902 
L 64.958622 98.713811 
L 65.84949 98.748064 
L 66.740361 98.304757 
L 67.631226 98.834442 
L 68.522078 98.83047 
L 69.412965 98.695443 
L 70.30383 98.781324 
L 71.194705 97.32581 
L 72.085571 98.496873 
L 72.976442 98.745085 
L 73.867306 98.795224 
L 75.649039 98.73466 
L 77.430784 98.780331 
L 80.103391 98.798699 
L 80.994245 98.66665 
L 81.885129 98.255612 
L 82.775998 98.792245 
L 85.44861 98.648283 
L 96.139324 98.86522 
L 97.030192 98.75551 
L 97.921065 98.78331 
L 98.811931 98.470067 
L 100.593666 98.91933 
L 101.484533 98.114131 
L 102.375401 98.754021 
L 103.266272 98.636865 
L 105.048009 98.915855 
L 105.93888 98.634383 
L 109.502352 98.834442 
L 111.284094 98.50432 
L 112.17496 98.258094 
L 113.065834 98.760474 
L 113.956695 98.810117 
L 114.847564 98.732675 
L 115.738441 98.834442 
L 116.629309 98.699414 
L 117.520178 98.849334 
L 118.41104 98.581265 
L 119.301913 98.51127 
L 120.192782 98.737142 
L 121.083649 98.584244 
L 121.97452 97.58395 
L 125.537994 98.668636 
L 126.428869 98.784303 
L 128.210603 98.733668 
L 129.101474 98.011371 
L 129.992342 98.697429 
L 131.774065 98.694946 
L 133.55582 98.759978 
L 134.446686 98.691968 
L 136.228424 98.749057 
L 137.119294 97.954282 
L 138.010159 98.777849 
L 138.901032 98.72076 
L 139.791912 98.530134 
L 141.57364 98.765439 
L 142.464507 98.676579 
L 145.137113 98.757992 
L 146.918849 98.663672 
L 183.444521 98.630908 
L 184.335387 98.429856 
L 185.226256 98.717782 
L 187.007996 98.684025 
L 187.898864 98.748064 
L 188.789731 98.680054 
L 189.680603 98.759482 
L 190.571474 98.444749 
L 191.462343 98.765935 
L 192.353215 98.613533 
L 193.244077 98.334543 
L 195.025817 98.750049 
L 197.698426 98.621972 
L 199.480162 98.686011 
L 200.371032 98.642822 
L 201.261898 98.840399 
L 202.152766 98.549494 
L 203.043636 98.778842 
L 203.043636 98.778842 
" clip-path="url(#p18d0e3c8ff)" style="fill: none; stroke: #ff6b6b; stroke-width: 1.2; stroke-linecap: square"/>
   </g>
   <g id="patch_3">
    <path d="M 35.96 103.4 
L 35.96 5 
" style="fill: none; stroke: var(--fg-color); stroke-width: 0.8; stroke-linejoin: miter; stroke-linecap: square"/>
   </g>
   <g id="patch_4">
    <path d="M 35.96 103.4 
L 211 103.4 
" style="fill: none; stroke: var(--fg-color); stroke-width: 0.8; stroke-linejoin: miter; stroke-linecap: square"/>
   </g>
  </g>
 </g>
 <defs>
  <clipPath id="p18d0e3c8ff">
   <rect x="35.96" y="5" width="175.04" height="98.4"/>
  </clipPath>
 </defs>
</svg>
