<?xml version="1.0" encoding="utf-8" standalone="no"?>
<!DOCTYPE svg PUBLIC "-//W3C//DTD SVG 1.1//EN"
  "http://www.w3.org/Graphics/SVG/1.1/DTD/svg11.dtd">
<svg xmlns:xlink="http://www.w3.org/1999/xlink" width="216pt" height="122.4pt" viewBox="0 0 216 122.4" xmlns="http://www.w3.org/2000/svg" version="1.1">
  <style>
    :root {
      --fg-color: #212529;
      --grid-color: rgba(33, 37, 41, 0.1);
    }
    @media (prefers-color-scheme: dark) {
      :root {
        --fg-color: #dee2e6;
        --grid-color: rgba(248, 249, 250, 0.15);
      }
    }
  </style>

 <metadata>
  <rdf:RDF xmlns:dc="http://purl.org/dc/elements/1.1/" xmlns:cc="http://creativecommons.org/ns#" xmlns:rdf="http://www.w3.org/1999/02/22-rdf-syntax-ns#">
   <cc:Work>
    <dc:type rdf:resource="http://purl.org/dc/dcmitype/StillImage"/>
    <dc:date>2026-06-30T15:37:02.504029</dc:date>
    <dc:format>image/svg+xml</dc:format>
    <dc:creator>
     <cc:Agent>
      <dc:title>Matplotlib v3.11.0, https://matplotlib.org/</dc:title>
     </cc:Agent>
    </dc:creator>
   </cc:Work>
  </rdf:RDF>
 </metadata>
 <defs>
  <style type="text/css">*{stroke-linejoin: round; stroke-linecap: butt}</style>
 </defs>
 <g id="figure_1">
  <g id="patch_1">
   <path d="M 0 122.4 
L 216 122.4 
L 216 0 
L 0 0 
L 0 122.4 
z
" style="fill: none; opacity: 0"/>
  </g>
  <g id="axes_1">
   <g id="patch_2">
    <path d="M 31.64 103.4 
L 211 103.4 
L 211 5 
L 31.64 5 
L 31.64 103.4 
z
" style="fill: none; opacity: 0"/>
   </g>
   <g id="matplotlib.axis_1">
    <g id="xtick_1">
     <g id="line2d_1">
      <path d="M 66.298815 103.4 
L 66.298815 5 
" clip-path="url(#pd5598bd6e6)" style="fill: none; stroke-dasharray: 2.96,1.28; stroke-dashoffset: 0; stroke: var(--grid-color); stroke-width: 0.8"/>
     </g>
     <g id="line2d_2">
      <defs>
       <path id="mebf3275437" d="M 0 0 
L 0 3.5 
" style="stroke: var(--fg-color); stroke-width: 0.8"/>
      </defs>
      <g>
       <use xlink:href="#mebf3275437" x="66.298815" y="103.4" style="fill: var(--fg-color); stroke: var(--fg-color); stroke-width: 0.8"/>
      </g>
     </g>
     <g id="text_1">
      <text style="font-size: 7px; font-family: 'DejaVu Sans', 'Bitstream Vera Sans', 'Computer Modern Sans Serif', 'Lucida Grande', 'Verdana', 'Geneva', 'Lucid', 'Arial', 'Helvetica', 'Avant Garde', sans-serif; text-anchor: middle; fill: var(--fg-color)" x="66.298815" y="115.718359" transform="rotate(-0 66.298815 115.718359)">02/2026</text>
     </g>
    </g>
    <g id="xtick_2">
     <g id="line2d_3">
      <path d="M 120.157298 103.4 
L 120.157298 5 
" clip-path="url(#pd5598bd6e6)" style="fill: none; stroke-dasharray: 2.96,1.28; stroke-dashoffset: 0; stroke: var(--grid-color); stroke-width: 0.8"/>
     </g>
     <g id="line2d_4">
      <g>
       <use xlink:href="#mebf3275437" x="120.157298" y="103.4" style="fill: var(--fg-color); stroke: var(--fg-color); stroke-width: 0.8"/>
      </g>
     </g>
     <g id="text_2">
      <text style="font-size: 7px; font-family: 'DejaVu Sans', 'Bitstream Vera Sans', 'Computer Modern Sans Serif', 'Lucida Grande', 'Verdana', 'Geneva', 'Lucid', 'Arial', 'Helvetica', 'Avant Garde', sans-serif; text-anchor: middle; fill: var(--fg-color)" x="120.157298" y="115.718359" transform="rotate(-0 120.157298 115.718359)">04/2026</text>
     </g>
    </g>
    <g id="xtick_3">
     <g id="line2d_5">
      <path d="M 175.841492 103.4 
L 175.841492 5 
" clip-path="url(#pd5598bd6e6)" style="fill: none; stroke-dasharray: 2.96,1.28; stroke-dashoffset: 0; stroke: var(--grid-color); stroke-width: 0.8"/>
     </g>
     <g id="line2d_6">
      <g>
       <use xlink:href="#mebf3275437" x="175.841492" y="103.4" style="fill: var(--fg-color); stroke: var(--fg-color); stroke-width: 0.8"/>
      </g>
     </g>
     <g id="text_3">
      <text style="font-size: 7px; font-family: 'DejaVu Sans', 'Bitstream Vera Sans', 'Computer Modern Sans Serif', 'Lucida Grande', 'Verdana', 'Geneva', 'Lucid', 'Arial', 'Helvetica', 'Avant Garde', sans-serif; text-anchor: middle; fill: var(--fg-color)" x="175.841492" y="115.718359" transform="rotate(-0 175.841492 115.718359)">06/2026</text>
     </g>
    </g>
   </g>
   <g id="matplotlib.axis_2">
    <g id="ytick_1">
     <g id="line2d_7">
      <path d="M 31.64 101.008184 
L 211 101.008184 
" clip-path="url(#pd5598bd6e6)" style="fill: none; stroke-dasharray: 2.96,1.28; stroke-dashoffset: 0; stroke: var(--grid-color); stroke-width: 0.8"/>
     </g>
     <g id="line2d_8">
      <defs>
       <path id="m8388b4a21e" d="M 0 0 
L -3.5 0 
" style="stroke: var(--fg-color); stroke-width: 0.8"/>
      </defs>
      <g>
       <use xlink:href="#m8388b4a21e" x="31.64" y="101.008184" style="fill: var(--fg-color); stroke: var(--fg-color); stroke-width: 0.8"/>
      </g>
     </g>
     <g id="text_4">
      <text style="font-size: 7px; font-family: 'DejaVu Sans', 'Bitstream Vera Sans', 'Computer Modern Sans Serif', 'Lucida Grande', 'Verdana', 'Geneva', 'Lucid', 'Arial', 'Helvetica', 'Avant Garde', sans-serif; text-anchor: end; fill: var(--fg-color)" x="24.64" y="103.667363" transform="rotate(-0 24.64 103.667363)">0</text>
     </g>
    </g>
    <g id="ytick_2">
     <g id="line2d_9">
      <path d="M 31.64 79.599636 
L 211 79.599636 
" clip-path="url(#pd5598bd6e6)" style="fill: none; stroke-dasharray: 2.96,1.28; stroke-dashoffset: 0; stroke: var(--grid-color); stroke-width: 0.8"/>
     </g>
     <g id="line2d_10">
      <g>
       <use xlink:href="#m8388b4a21e" x="31.64" y="79.599636" style="fill: var(--fg-color); stroke: var(--fg-color); stroke-width: 0.8"/>
      </g>
     </g>
     <g id="text_5">
      <text style="font-size: 7px; font-family: 'DejaVu Sans', 'Bitstream Vera Sans', 'Computer Modern Sans Serif', 'Lucida Grande', 'Verdana', 'Geneva', 'Lucid', 'Arial', 'Helvetica', 'Avant Garde', sans-serif; text-anchor: end; fill: var(--fg-color)" x="24.64" y="82.258816" transform="rotate(-0 24.64 82.258816)">20</text>
     </g>
    </g>
    <g id="ytick_3">
     <g id="line2d_11">
      <path d="M 31.64 58.191088 
L 211 58.191088 
" clip-path="url(#pd5598bd6e6)" style="fill: none; stroke-dasharray: 2.96,1.28; stroke-dashoffset: 0; stroke: var(--grid-color); stroke-width: 0.8"/>
     </g>
     <g id="line2d_12">
      <g>
       <use xlink:href="#m8388b4a21e" x="31.64" y="58.191088" style="fill: var(--fg-color); stroke: var(--fg-color); stroke-width: 0.8"/>
      </g>
     </g>
     <g id="text_6">
      <text style="font-size: 7px; font-family: 'DejaVu Sans', 'Bitstream Vera Sans', 'Computer Modern Sans Serif', 'Lucida Grande', 'Verdana', 'Geneva', 'Lucid', 'Arial', 'Helvetica', 'Avant Garde', sans-serif; text-anchor: end; fill: var(--fg-color)" x="24.64" y="60.850268" transform="rotate(-0 24.64 60.850268)">40</text>
     </g>
    </g>
    <g id="ytick_4">
     <g id="line2d_13">
      <path d="M 31.64 36.782541 
L 211 36.782541 
" clip-path="url(#pd5598bd6e6)" style="fill: none; stroke-dasharray: 2.96,1.28; stroke-dashoffset: 0; stroke: var(--grid-color); stroke-width: 0.8"/>
     </g>
     <g id="line2d_14">
      <g>
       <use xlink:href="#m8388b4a21e" x="31.64" y="36.782541" style="fill: var(--fg-color); stroke: var(--fg-color); stroke-width: 0.8"/>
      </g>
     </g>
     <g id="text_7">
      <text style="font-size: 7px; font-family: 'DejaVu Sans', 'Bitstream Vera Sans', 'Computer Modern Sans Serif', 'Lucida Grande', 'Verdana', 'Geneva', 'Lucid', 'Arial', 'Helvetica', 'Avant Garde', sans-serif; text-anchor: end; fill: var(--fg-color)" x="24.64" y="39.441721" transform="rotate(-0 24.64 39.441721)">60</text>
     </g>
    </g>
    <g id="ytick_5">
     <g id="line2d_15">
      <path d="M 31.64 15.373993 
L 211 15.373993 
" clip-path="url(#pd5598bd6e6)" style="fill: none; stroke-dasharray: 2.96,1.28; stroke-dashoffset: 0; stroke: var(--grid-color); stroke-width: 0.8"/>
     </g>
     <g id="line2d_16">
      <g>
       <use xlink:href="#m8388b4a21e" x="31.64" y="15.373993" style="fill: var(--fg-color); stroke: var(--fg-color); stroke-width: 0.8"/>
      </g>
     </g>
     <g id="text_8">
      <text style="font-size: 7px; font-family: 'DejaVu Sans', 'Bitstream Vera Sans', 'Computer Modern Sans Serif', 'Lucida Grande', 'Verdana', 'Geneva', 'Lucid', 'Arial', 'Helvetica', 'Avant Garde', sans-serif; text-anchor: end; fill: var(--fg-color)" x="24.64" y="18.033173" transform="rotate(-0 24.64 18.033173)">80</text>
     </g>
    </g>
    <g id="text_9">
     <text style="font-size: 7px; font-family: 'DejaVu Sans', 'Bitstream Vera Sans', 'Computer Modern Sans Serif', 'Lucida Grande', 'Verdana', 'Geneva', 'Lucid', 'Arial', 'Helvetica', 'Avant Garde', sans-serif; text-anchor: middle; fill: var(--fg-color)" x="10.050859" y="54.2" transform="rotate(-90 10.050859 54.2)">ms</text>
    </g>
   </g>
   <g id="line2d_17">
    <path d="M 39.792727 36.869246 
L 40.358622 36.428229 
L 41.271481 34.875039 
L 42.184338 34.97673 
L 43.097199 37.923617 
L 44.010052 35.389915 
L 44.922906 34.931772 
L 45.835753 35.060223 
L 46.748617 37.175388 
L 47.661476 37.454769 
L 48.574332 36.977359 
L 49.487188 39.405088 
L 50.40004 34.082923 
L 51.312897 35.465915 
L 52.225755 38.044575 
L 53.138604 38.554098 
L 54.051463 37.902208 
L 54.964319 39.426497 
L 55.877175 38.45883 
L 56.79003 38.631169 
L 57.702885 29.484367 
L 58.615744 36.264454 
L 59.528593 34.868617 
L 60.441447 38.686831 
L 61.35431 37.544685 
L 62.267165 38.694324 
L 63.180022 38.927677 
L 64.092874 40.343853 
L 65.005713 36.157411 
L 65.918587 35.02811 
L 66.831438 33.461005 
L 67.7443 37.570375 
L 68.657153 37.765193 
L 69.57001 33.24799 
L 70.482861 34.044388 
L 71.395726 32.165788 
L 72.308567 32.137957 
L 73.221429 36.395046 
L 74.134286 36.550258 
L 75.047144 34.706982 
L 75.959984 35.860903 
L 76.872853 29.923242 
L 77.785693 36.901358 
L 78.698564 37.289924 
L 79.61142 37.333811 
L 80.524278 35.738874 
L 81.43713 35.392056 
L 82.349993 32.433395 
L 91.665728 36.020397 
L 92.391681 38.202998 
L 93.304554 36.918485 
L 96.043122 36.481751 
L 96.955975 29.856876 
L 97.868829 35.12766 
L 98.781684 33.316497 
L 99.694538 32.151872 
L 100.607396 30.659696 
L 101.520248 33.759654 
L 102.433106 31.197051 
L 103.345963 33.745738 
L 104.258819 35.613634 
L 105.171671 28.905266 
L 106.084531 35.518366 
L 106.997383 34.690926 
L 107.910242 29.821552 
L 109.735951 32.718128 
L 110.648812 30.659696 
L 111.561659 31.579193 
L 112.474515 25.030319 
L 113.387379 32.836946 
L 114.300233 31.192769 
L 115.213089 34.541066 
L 116.125938 31.178854 
L 117.038797 31.623081 
L 117.951653 31.081445 
L 118.864507 31.171361 
L 119.777364 31.963477 
L 123.428785 26.867172 
L 124.341647 32.665677 
L 125.254499 34.108613 
L 126.167355 33.375371 
L 127.080212 29.947862 
L 127.993067 31.412207 
L 128.905926 29.221042 
L 131.644492 32.473 
L 132.557344 30.555865 
L 133.470203 30.612598 
L 134.383056 32.403423 
L 135.295912 29.29062 
L 136.208765 27.999684 
L 137.121624 29.342 
L 138.034491 30.01744 
L 138.947335 28.617321 
L 139.860192 29.41693 
L 140.773046 31.660546 
L 141.685902 27.622894 
L 142.598758 30.591189 
L 143.511612 29.132196 
L 144.42447 28.785378 
L 145.337321 30.402794 
L 172.723053 30.402794 
L 181.242468 31.258065 
L 181.851594 21.373739 
L 182.764449 27.493372 
L 183.677303 20.72506 
L 184.590158 24.659951 
L 185.503019 23.60665 
L 186.415872 19.050911 
L 187.328726 22.088784 
L 188.24158 24.671726 
L 189.154439 22.687153 
L 190.067296 9.472727 
L 190.980152 23.02969 
L 191.893011 22.510533 
L 192.80586 21.40157 
L 193.718718 20.562355 
L 194.631573 21.002301 
L 195.544431 20.42534 
L 196.457286 26.574945 
L 197.370142 18.380824 
L 198.282997 22.468786 
L 199.195852 22.620787 
L 200.108708 25.7839 
L 201.021561 20.958413 
L 201.934415 25.482039 
L 202.847273 23.665524 
L 202.847273 23.665524 
" clip-path="url(#pd5598bd6e6)" style="fill: none; stroke: #339af0; stroke-width: 1.2; stroke-linecap: square"/>
   </g>
   <g id="line2d_18">
    <path d="M 39.792727 98.701413 
L 41.271481 98.77099 
L 42.184338 96.783207 
L 43.097199 98.792399 
L 44.010052 98.657525 
L 44.922906 98.675722 
L 45.835753 98.468059 
L 46.748617 98.735666 
L 47.661476 98.857695 
L 51.312897 98.623271 
L 52.225755 98.807385 
L 58.615744 98.817019 
L 59.528593 98.699272 
L 60.441447 98.839498 
L 63.180022 98.650032 
L 64.092874 98.927273 
L 65.918587 98.678934 
L 66.831438 98.643609 
L 67.7443 96.580896 
L 68.657153 98.753863 
L 70.482861 98.635046 
L 71.395726 98.560116 
L 73.221429 98.763497 
L 75.047144 98.507665 
L 75.959984 98.760286 
L 79.61142 98.74423 
L 80.524278 98.863047 
L 82.349993 98.734596 
L 92.391681 98.708906 
L 93.304554 98.843779 
L 96.043122 98.779554 
L 96.955975 98.423101 
L 97.868829 97.681295 
L 98.781684 98.682145 
L 101.520248 98.753863 
L 103.345963 98.565468 
L 104.258819 97.806535 
L 105.171671 98.609356 
L 106.997383 98.802033 
L 107.910242 98.62113 
L 109.735951 98.773131 
L 110.648812 98.589018 
L 111.561659 98.702483 
L 112.474515 98.627553 
L 113.387379 94.650915 
L 114.300233 94.484999 
L 115.213089 97.337688 
L 116.125938 92.771245 
L 117.038797 92.029439 
L 117.951653 94.944212 
L 118.864507 93.26043 
L 119.777364 94.729057 
L 123.428785 91.790733 
L 124.341647 92.514342 
L 125.254499 92.830118 
L 126.167355 91.698677 
L 127.080212 94.403647 
L 127.993067 95.040551 
L 128.905926 92.175017 
L 129.818763 92.90933 
L 130.731631 93.934799 
L 131.644492 90.099458 
L 132.557344 93.088091 
L 133.470203 93.571925 
L 134.383056 90.970786 
L 135.295912 90.024528 
L 136.208765 93.982969 
L 137.121624 92.023016 
L 138.034491 89.717316 
L 138.947335 92.641723 
L 139.860192 89.962443 
L 140.773046 95.769512 
L 141.685902 92.489722 
L 142.598758 90.534052 
L 143.511612 91.636592 
L 144.42447 92.400877 
L 145.337321 92.2842 
L 172.723053 92.2842 
L 181.242468 95.957907 
L 181.851594 98.465919 
L 182.764449 98.655384 
L 184.590158 98.707835 
L 186.415872 98.56868 
L 189.154439 98.633976 
L 190.067296 98.525862 
L 190.980152 98.599722 
L 191.893011 98.8213 
L 193.718718 98.424172 
L 194.631573 98.566539 
L 195.544431 98.341749 
L 196.457286 98.738878 
L 197.370142 98.596511 
L 200.108708 98.564398 
L 201.021561 98.768849 
L 201.934415 98.61899 
L 202.847273 98.736737 
L 202.847273 98.736737 
" clip-path="url(#pd5598bd6e6)" style="fill: none; stroke: #ff6b6b; stroke-width: 1.2; stroke-linecap: square"/>
   </g>
   <g id="patch_3">
    <path d="M 31.64 103.4 
L 31.64 5 
" style="fill: none; stroke: var(--fg-color); stroke-width: 0.8; stroke-linejoin: miter; stroke-linecap: square"/>
   </g>
   <g id="patch_4">
    <path d="M 31.64 103.4 
L 211 103.4 
" style="fill: none; stroke: var(--fg-color); stroke-width: 0.8; stroke-linejoin: miter; stroke-linecap: square"/>
   </g>
  </g>
 </g>
 <defs>
  <clipPath id="pd5598bd6e6">
   <rect x="31.64" y="5" width="179.36" height="98.4"/>
  </clipPath>
 </defs>
</svg>
