<?xml version="1.0" encoding="utf-8" standalone="no"?>
<!DOCTYPE svg PUBLIC "-//W3C//DTD SVG 1.1//EN"
  "http://www.w3.org/Graphics/SVG/1.1/DTD/svg11.dtd">
<svg xmlns:xlink="http://www.w3.org/1999/xlink" width="216pt" height="122.4pt" viewBox="0 0 216 122.4" xmlns="http://www.w3.org/2000/svg" version="1.1">
  <style>
    :root {
      --fg-color: #212529;
      --grid-color: rgba(33, 37, 41, 0.1);
    }
    @media (prefers-color-scheme: dark) {
      :root {
        --fg-color: #dee2e6;
        --grid-color: rgba(248, 249, 250, 0.15);
      }
    }
  </style>

 <metadata>
  <rdf:RDF xmlns:dc="http://purl.org/dc/elements/1.1/" xmlns:cc="http://creativecommons.org/ns#" xmlns:rdf="http://www.w3.org/1999/02/22-rdf-syntax-ns#">
   <cc:Work>
    <dc:type rdf:resource="http://purl.org/dc/dcmitype/StillImage"/>
    <dc:date>2026-06-30T04:49:28.756501</dc:date>
    <dc:format>image/svg+xml</dc:format>
    <dc:creator>
     <cc:Agent>
      <dc:title>Matplotlib v3.11.0, https://matplotlib.org/</dc:title>
     </cc:Agent>
    </dc:creator>
   </cc:Work>
  </rdf:RDF>
 </metadata>
 <defs>
  <style type="text/css">*{stroke-linejoin: round; stroke-linecap: butt}</style>
 </defs>
 <g id="figure_1">
  <g id="patch_1">
   <path d="M 0 122.4 
L 216 122.4 
L 216 0 
L 0 0 
L 0 122.4 
z
" style="fill: none; opacity: 0"/>
  </g>
  <g id="axes_1">
   <g id="patch_2">
    <path d="M 35.96 103.4 
L 211 103.4 
L 211 5 
L 35.96 5 
L 35.96 103.4 
z
" style="fill: none; opacity: 0"/>
   </g>
   <g id="matplotlib.axis_1">
    <g id="xtick_1">
     <g id="line2d_1">
      <path d="M 72.056377 103.4 
L 72.056377 5 
" clip-path="url(#pd8045b8ca7)" style="fill: none; stroke-dasharray: 2.96,1.28; stroke-dashoffset: 0; stroke: var(--grid-color); stroke-width: 0.8"/>
     </g>
     <g id="line2d_2">
      <defs>
       <path id="m1168ab34e4" d="M 0 0 
L 0 3.5 
" style="stroke: var(--fg-color); stroke-width: 0.8"/>
      </defs>
      <g>
       <use xlink:href="#m1168ab34e4" x="72.056377" y="103.4" style="fill: var(--fg-color); stroke: var(--fg-color); stroke-width: 0.8"/>
      </g>
     </g>
     <g id="text_1">
      <text style="font-size: 7px; font-family: 'DejaVu Sans', 'Bitstream Vera Sans', 'Computer Modern Sans Serif', 'Lucida Grande', 'Verdana', 'Geneva', 'Lucid', 'Arial', 'Helvetica', 'Avant Garde', sans-serif; text-anchor: middle; fill: var(--fg-color)" x="72.056377" y="115.718359" transform="rotate(-0 72.056377 115.718359)">02/2026</text>
     </g>
    </g>
    <g id="xtick_2">
     <g id="line2d_3">
      <path d="M 126.640628 103.4 
L 126.640628 5 
" clip-path="url(#pd8045b8ca7)" style="fill: none; stroke-dasharray: 2.96,1.28; stroke-dashoffset: 0; stroke: var(--grid-color); stroke-width: 0.8"/>
     </g>
     <g id="line2d_4">
      <g>
       <use xlink:href="#m1168ab34e4" x="126.640628" y="103.4" style="fill: var(--fg-color); stroke: var(--fg-color); stroke-width: 0.8"/>
      </g>
     </g>
     <g id="text_2">
      <text style="font-size: 7px; font-family: 'DejaVu Sans', 'Bitstream Vera Sans', 'Computer Modern Sans Serif', 'Lucida Grande', 'Verdana', 'Geneva', 'Lucid', 'Arial', 'Helvetica', 'Avant Garde', sans-serif; text-anchor: middle; fill: var(--fg-color)" x="126.640628" y="115.718359" transform="rotate(-0 126.640628 115.718359)">04/2026</text>
     </g>
    </g>
    <g id="xtick_3">
     <g id="line2d_5">
      <path d="M 183.075192 103.4 
L 183.075192 5 
" clip-path="url(#pd8045b8ca7)" style="fill: none; stroke-dasharray: 2.96,1.28; stroke-dashoffset: 0; stroke: var(--grid-color); stroke-width: 0.8"/>
     </g>
     <g id="line2d_6">
      <g>
       <use xlink:href="#m1168ab34e4" x="183.075192" y="103.4" style="fill: var(--fg-color); stroke: var(--fg-color); stroke-width: 0.8"/>
      </g>
     </g>
     <g id="text_3">
      <text style="font-size: 7px; font-family: 'DejaVu Sans', 'Bitstream Vera Sans', 'Computer Modern Sans Serif', 'Lucida Grande', 'Verdana', 'Geneva', 'Lucid', 'Arial', 'Helvetica', 'Avant Garde', sans-serif; text-anchor: middle; fill: var(--fg-color)" x="183.075192" y="115.718359" transform="rotate(-0 183.075192 115.718359)">06/2026</text>
     </g>
    </g>
   </g>
   <g id="matplotlib.axis_2">
    <g id="ytick_1">
     <g id="line2d_7">
      <path d="M 35.96 99.749583 
L 211 99.749583 
" clip-path="url(#pd8045b8ca7)" style="fill: none; stroke-dasharray: 2.96,1.28; stroke-dashoffset: 0; stroke: var(--grid-color); stroke-width: 0.8"/>
     </g>
     <g id="line2d_8">
      <defs>
       <path id="md8b3ee0108" d="M 0 0 
L -3.5 0 
" style="stroke: var(--fg-color); stroke-width: 0.8"/>
      </defs>
      <g>
       <use xlink:href="#md8b3ee0108" x="35.96" y="99.749583" style="fill: var(--fg-color); stroke: var(--fg-color); stroke-width: 0.8"/>
      </g>
     </g>
     <g id="text_4">
      <text style="font-size: 7px; font-family: 'DejaVu Sans', 'Bitstream Vera Sans', 'Computer Modern Sans Serif', 'Lucida Grande', 'Verdana', 'Geneva', 'Lucid', 'Arial', 'Helvetica', 'Avant Garde', sans-serif; text-anchor: end; fill: var(--fg-color)" x="28.96" y="102.408763" transform="rotate(-0 28.96 102.408763)">0</text>
     </g>
    </g>
    <g id="ytick_2">
     <g id="line2d_9">
      <path d="M 35.96 72.646416 
L 211 72.646416 
" clip-path="url(#pd8045b8ca7)" style="fill: none; stroke-dasharray: 2.96,1.28; stroke-dashoffset: 0; stroke: var(--grid-color); stroke-width: 0.8"/>
     </g>
     <g id="line2d_10">
      <g>
       <use xlink:href="#md8b3ee0108" x="35.96" y="72.646416" style="fill: var(--fg-color); stroke: var(--fg-color); stroke-width: 0.8"/>
      </g>
     </g>
     <g id="text_5">
      <text style="font-size: 7px; font-family: 'DejaVu Sans', 'Bitstream Vera Sans', 'Computer Modern Sans Serif', 'Lucida Grande', 'Verdana', 'Geneva', 'Lucid', 'Arial', 'Helvetica', 'Avant Garde', sans-serif; text-anchor: end; fill: var(--fg-color)" x="28.96" y="75.305595" transform="rotate(-0 28.96 75.305595)">50</text>
     </g>
    </g>
    <g id="ytick_3">
     <g id="line2d_11">
      <path d="M 35.96 45.543248 
L 211 45.543248 
" clip-path="url(#pd8045b8ca7)" style="fill: none; stroke-dasharray: 2.96,1.28; stroke-dashoffset: 0; stroke: var(--grid-color); stroke-width: 0.8"/>
     </g>
     <g id="line2d_12">
      <g>
       <use xlink:href="#md8b3ee0108" x="35.96" y="45.543248" style="fill: var(--fg-color); stroke: var(--fg-color); stroke-width: 0.8"/>
      </g>
     </g>
     <g id="text_6">
      <text style="font-size: 7px; font-family: 'DejaVu Sans', 'Bitstream Vera Sans', 'Computer Modern Sans Serif', 'Lucida Grande', 'Verdana', 'Geneva', 'Lucid', 'Arial', 'Helvetica', 'Avant Garde', sans-serif; text-anchor: end; fill: var(--fg-color)" x="28.96" y="48.202428" transform="rotate(-0 28.96 48.202428)">100</text>
     </g>
    </g>
    <g id="ytick_4">
     <g id="line2d_13">
      <path d="M 35.96 18.440081 
L 211 18.440081 
" clip-path="url(#pd8045b8ca7)" style="fill: none; stroke-dasharray: 2.96,1.28; stroke-dashoffset: 0; stroke: var(--grid-color); stroke-width: 0.8"/>
     </g>
     <g id="line2d_14">
      <g>
       <use xlink:href="#md8b3ee0108" x="35.96" y="18.440081" style="fill: var(--fg-color); stroke: var(--fg-color); stroke-width: 0.8"/>
      </g>
     </g>
     <g id="text_7">
      <text style="font-size: 7px; font-family: 'DejaVu Sans', 'Bitstream Vera Sans', 'Computer Modern Sans Serif', 'Lucida Grande', 'Verdana', 'Geneva', 'Lucid', 'Arial', 'Helvetica', 'Avant Garde', sans-serif; text-anchor: end; fill: var(--fg-color)" x="28.96" y="21.099261" transform="rotate(-0 28.96 21.099261)">150</text>
     </g>
    </g>
    <g id="text_8">
     <text style="font-size: 7px; font-family: 'DejaVu Sans', 'Bitstream Vera Sans', 'Computer Modern Sans Serif', 'Lucida Grande', 'Verdana', 'Geneva', 'Lucid', 'Arial', 'Helvetica', 'Avant Garde', sans-serif; text-anchor: middle; fill: var(--fg-color)" x="9.917109" y="54.2" transform="rotate(-90 9.917109 54.2)">ms</text>
    </g>
   </g>
   <g id="line2d_15">
    <path d="M 43.916364 30.473345 
L 45.193108 19.35671 
L 45.766628 31.257169 
L 46.691788 31.477247 
L 47.616947 27.018234 
L 48.542109 28.582086 
L 49.467263 33.429217 
L 50.392418 29.943207 
L 51.317566 31.371002 
L 52.242732 31.50164 
L 53.167891 30.689629 
L 54.093049 27.157002 
L 55.018206 26.152016 
L 55.943359 31.805195 
L 56.868517 29.135533 
L 57.793676 32.560831 
L 58.718827 29.373499 
L 59.643987 32.27679 
L 60.569143 33.611892 
L 61.494301 31.321132 
L 62.419457 29.443425 
L 63.344613 27.467604 
L 64.269773 25.931397 
L 65.194924 33.637369 
L 66.120079 35.135632 
L 67.045243 31.138999 
L 67.970398 27.93161 
L 68.895557 30.676619 
L 69.82071 30.489607 
L 70.74585 30.368727 
L 71.671025 31.397021 
L 72.596178 30.540561 
L 73.521341 31.041428 
L 74.446495 32.571673 
L 75.371653 31.425751 
L 76.296805 36.546081 
L 77.221971 34.220087 
L 78.147114 36.210544 
L 79.072277 35.877175 
L 79.997435 27.846506 
L 80.922594 29.770831 
L 81.847735 31.159055 
L 82.772905 24.812578 
L 83.698046 29.193534 
L 84.623219 31.812784 
L 85.548376 36.639316 
L 86.473535 29.612007 
L 87.398688 31.030044 
L 88.323852 28.683994 
L 97.76512 37.894193 
L 98.500856 36.750439 
L 99.426031 31.346609 
L 100.351186 31.482667 
L 101.276348 35.966615 
L 102.201502 32.747301 
L 103.126656 35.140511 
L 104.051812 32.517466 
L 104.976967 35.95198 
L 105.902123 28.83523 
L 106.827282 33.111026 
L 107.752435 27.309864 
L 108.677594 36.498921 
L 109.602753 32.627505 
L 110.527909 36.138449 
L 111.453063 35.112866 
L 112.378223 34.129021 
L 113.303377 28.601601 
L 114.228537 30.818098 
L 115.153695 31.429003 
L 116.078848 28.86667 
L 117.004011 35.795865 
L 117.929158 32.80747 
L 118.854316 33.377179 
L 119.779481 32.320155 
L 120.704637 31.957515 
L 121.629794 28.827099 
L 122.554943 32.835115 
L 123.480104 27.691476 
L 124.405261 30.821892 
L 125.330416 30.373606 
L 126.255574 30.705891 
L 129.9562 25.219125 
L 130.881363 28.125127 
L 131.806516 29.77842 
L 132.731673 28.702966 
L 133.656831 28.346831 
L 134.581987 24.934 
L 135.507147 27.050757 
L 136.432285 28.424346 
L 137.357455 28.304008 
L 138.282617 26.782978 
L 139.20777 29.323087 
L 140.13293 26.493516 
L 141.058084 26.956438 
L 141.983242 23.618954 
L 142.908395 33.128914 
L 143.833556 30.974212 
L 144.758724 28.180959 
L 145.683869 18.253611 
L 146.609028 25.797507 
L 147.534182 24.948094 
L 148.459339 24.507396 
L 149.384497 29.098673 
L 150.309651 26.186708 
L 151.234811 26.61006 
L 152.159963 21.74721 
L 179.91473 21.74721 
L 188.548948 27.988527 
L 189.166282 31.456648 
L 190.091439 27.017149 
L 191.016594 23.601066 
L 191.94175 27.609083 
L 192.866913 25.726497 
L 193.792066 27.492539 
L 194.717222 27.93161 
L 195.642377 29.269965 
L 196.567536 26.008912 
L 197.492695 9.472727 
L 198.417852 22.474117 
L 199.343013 22.589034 
L 200.268162 22.856271 
L 201.193322 22.310413 
L 202.118478 25.025067 
L 203.043636 24.529079 
" clip-path="url(#pd8045b8ca7)" style="fill: none; stroke: #339af0; stroke-width: 1.2; stroke-linecap: square"/>
   </g>
   <g id="line2d_16">
    <path d="M 43.916364 98.478444 
L 45.193108 98.172721 
L 45.766628 98.686055 
L 46.691788 98.533735 
L 47.616947 98.743513 
L 48.542109 98.291432 
L 49.467263 98.560296 
L 50.392418 98.061056 
L 51.317566 98.570595 
L 52.242732 98.609082 
L 53.167891 98.55867 
L 54.093049 98.559754 
L 55.018206 98.336966 
L 55.943359 98.644316 
L 56.868517 98.154832 
L 57.793676 98.623175 
L 58.718827 98.673587 
L 59.643987 98.683886 
L 60.569143 98.496332 
L 61.494301 98.551623 
L 62.419457 97.416 
L 63.344613 97.590002 
L 64.269773 98.591736 
L 65.194924 98.551081 
L 66.120079 98.612334 
L 67.045243 98.568427 
L 67.970398 98.680092 
L 68.895557 98.245899 
L 69.82071 98.836748 
L 70.74585 98.79772 
L 71.671025 98.670877 
L 72.596178 98.05184 
L 73.521341 98.362443 
L 74.446495 98.639979 
L 75.371653 98.602035 
L 76.296805 98.603661 
L 77.221971 98.507174 
L 78.147114 98.567885 
L 79.072277 98.552707 
L 79.997435 98.589025 
L 80.922594 98.512052 
L 81.847735 98.634016 
L 82.772905 98.634559 
L 83.698046 98.621549 
L 84.623219 96.975303 
L 85.548376 98.507174 
L 86.473535 98.506632 
L 87.398688 98.215544 
L 88.323852 98.138571 
L 97.76512 98.567885 
L 98.500856 98.656241 
L 99.426031 98.489828 
L 100.351186 98.283301 
L 101.276348 98.743513 
L 102.201502 98.586315 
L 103.126656 98.83187 
L 104.051812 98.515305 
L 104.976967 98.500127 
L 105.902123 98.451341 
L 106.827282 98.670335 
L 107.752435 98.515305 
L 108.677594 98.54837 
L 109.602753 97.921745 
L 110.527909 98.532109 
L 111.453063 98.340218 
L 112.378223 98.556501 
L 113.303377 98.150496 
L 114.228537 97.908736 
L 115.153695 98.671961 
L 116.078848 98.0307 
L 117.004011 98.075149 
L 117.929158 98.544576 
L 118.854316 98.484407 
L 119.779481 97.722808 
L 120.704637 97.944512 
L 121.629794 98.422612 
L 122.554943 98.724541 
L 123.480104 98.513678 
L 124.405261 98.735382 
L 125.330416 98.347807 
L 126.255574 98.697438 
L 129.9562 98.672503 
L 130.881363 98.392256 
L 131.806516 98.620465 
L 132.731673 98.430743 
L 133.656831 98.354312 
L 134.581987 98.308778 
L 135.507147 98.364069 
L 136.432285 98.826991 
L 137.357455 98.587941 
L 138.282617 98.33534 
L 139.20777 98.65082 
L 140.13293 98.565174 
L 141.058084 98.248609 
L 141.983242 98.404182 
L 142.908395 98.41177 
L 143.833556 98.275713 
L 144.758724 97.787856 
L 145.683869 98.884992 
L 146.609028 98.883908 
L 147.534182 98.893665 
L 148.459339 98.876319 
L 149.384497 98.894749 
L 150.309651 98.870898 
L 151.234811 98.909927 
L 152.159963 98.67955 
L 179.91473 98.67955 
L 188.548948 98.908843 
L 189.166282 98.927273 
L 190.091439 98.847047 
L 191.016594 98.886618 
L 191.94175 98.817776 
L 192.866913 98.79772 
L 193.792066 98.834038 
L 194.717222 98.88445 
L 195.642377 98.903964 
L 196.567536 98.911553 
L 197.492695 98.836748 
L 198.417852 98.815608 
L 199.343013 98.815066 
L 200.268162 98.86602 
L 201.193322 98.842711 
L 202.118478 98.876319 
L 203.043636 98.911553 
" clip-path="url(#pd8045b8ca7)" style="fill: none; stroke: #ff6b6b; stroke-width: 1.2; stroke-linecap: square"/>
   </g>
   <g id="patch_3">
    <path d="M 35.96 103.4 
L 35.96 5 
" style="fill: none; stroke: var(--fg-color); stroke-width: 0.8; stroke-linejoin: miter; stroke-linecap: square"/>
   </g>
   <g id="patch_4">
    <path d="M 35.96 103.4 
L 211 103.4 
" style="fill: none; stroke: var(--fg-color); stroke-width: 0.8; stroke-linejoin: miter; stroke-linecap: square"/>
   </g>
  </g>
 </g>
 <defs>
  <clipPath id="pd8045b8ca7">
   <rect x="35.96" y="5" width="175.04" height="98.4"/>
  </clipPath>
 </defs>
</svg>
