<?xml version="1.0" encoding="utf-8" standalone="no"?>
<!DOCTYPE svg PUBLIC "-//W3C//DTD SVG 1.1//EN"
  "http://www.w3.org/Graphics/SVG/1.1/DTD/svg11.dtd">
<svg xmlns:xlink="http://www.w3.org/1999/xlink" width="216pt" height="122.4pt" viewBox="0 0 216 122.4" xmlns="http://www.w3.org/2000/svg" version="1.1">
  <style>
    :root {
      --fg-color: #212529;
      --grid-color: rgba(33, 37, 41, 0.1);
    }
    @media (prefers-color-scheme: dark) {
      :root {
        --fg-color: #dee2e6;
        --grid-color: rgba(248, 249, 250, 0.15);
      }
    }
  </style>

 <metadata>
  <rdf:RDF xmlns:dc="http://purl.org/dc/elements/1.1/" xmlns:cc="http://creativecommons.org/ns#" xmlns:rdf="http://www.w3.org/1999/02/22-rdf-syntax-ns#">
   <cc:Work>
    <dc:type rdf:resource="http://purl.org/dc/dcmitype/StillImage"/>
    <dc:date>2026-06-30T15:37:07.690490</dc:date>
    <dc:format>image/svg+xml</dc:format>
    <dc:creator>
     <cc:Agent>
      <dc:title>Matplotlib v3.11.0, https://matplotlib.org/</dc:title>
     </cc:Agent>
    </dc:creator>
   </cc:Work>
  </rdf:RDF>
 </metadata>
 <defs>
  <style type="text/css">*{stroke-linejoin: round; stroke-linecap: butt}</style>
 </defs>
 <g id="figure_1">
  <g id="patch_1">
   <path d="M 0 122.4 
L 216 122.4 
L 216 0 
L 0 0 
L 0 122.4 
z
" style="fill: none; opacity: 0"/>
  </g>
  <g id="axes_1">
   <g id="patch_2">
    <path d="M 31.64 103.4 
L 211 103.4 
L 211 5.968803 
L 31.64 5.968803 
L 31.64 103.4 
z
" style="fill: none; opacity: 0"/>
   </g>
   <g id="matplotlib.axis_1">
    <g id="xtick_1">
     <g id="line2d_1">
      <path d="M 66.298815 103.4 
L 66.298815 5.968803 
" clip-path="url(#p8d1ba4e008)" style="fill: none; stroke-dasharray: 2.96,1.28; stroke-dashoffset: 0; stroke: var(--grid-color); stroke-width: 0.8"/>
     </g>
     <g id="line2d_2">
      <defs>
       <path id="mbae091c367" d="M 0 0 
L 0 3.5 
" style="stroke: var(--fg-color); stroke-width: 0.8"/>
      </defs>
      <g>
       <use xlink:href="#mbae091c367" x="66.298815" y="103.4" style="fill: var(--fg-color); stroke: var(--fg-color); stroke-width: 0.8"/>
      </g>
     </g>
     <g id="text_1">
      <text style="font-size: 7px; font-family: 'DejaVu Sans', 'Bitstream Vera Sans', 'Computer Modern Sans Serif', 'Lucida Grande', 'Verdana', 'Geneva', 'Lucid', 'Arial', 'Helvetica', 'Avant Garde', sans-serif; text-anchor: middle; fill: var(--fg-color)" x="66.298815" y="115.718359" transform="rotate(-0 66.298815 115.718359)">02/2026</text>
     </g>
    </g>
    <g id="xtick_2">
     <g id="line2d_3">
      <path d="M 120.157298 103.4 
L 120.157298 5.968803 
" clip-path="url(#p8d1ba4e008)" style="fill: none; stroke-dasharray: 2.96,1.28; stroke-dashoffset: 0; stroke: var(--grid-color); stroke-width: 0.8"/>
     </g>
     <g id="line2d_4">
      <g>
       <use xlink:href="#mbae091c367" x="120.157298" y="103.4" style="fill: var(--fg-color); stroke: var(--fg-color); stroke-width: 0.8"/>
      </g>
     </g>
     <g id="text_2">
      <text style="font-size: 7px; font-family: 'DejaVu Sans', 'Bitstream Vera Sans', 'Computer Modern Sans Serif', 'Lucida Grande', 'Verdana', 'Geneva', 'Lucid', 'Arial', 'Helvetica', 'Avant Garde', sans-serif; text-anchor: middle; fill: var(--fg-color)" x="120.157298" y="115.718359" transform="rotate(-0 120.157298 115.718359)">04/2026</text>
     </g>
    </g>
    <g id="xtick_3">
     <g id="line2d_5">
      <path d="M 175.841492 103.4 
L 175.841492 5.968803 
" clip-path="url(#p8d1ba4e008)" style="fill: none; stroke-dasharray: 2.96,1.28; stroke-dashoffset: 0; stroke: var(--grid-color); stroke-width: 0.8"/>
     </g>
     <g id="line2d_6">
      <g>
       <use xlink:href="#mbae091c367" x="175.841492" y="103.4" style="fill: var(--fg-color); stroke: var(--fg-color); stroke-width: 0.8"/>
      </g>
     </g>
     <g id="text_3">
      <text style="font-size: 7px; font-family: 'DejaVu Sans', 'Bitstream Vera Sans', 'Computer Modern Sans Serif', 'Lucida Grande', 'Verdana', 'Geneva', 'Lucid', 'Arial', 'Helvetica', 'Avant Garde', sans-serif; text-anchor: middle; fill: var(--fg-color)" x="175.841492" y="115.718359" transform="rotate(-0 175.841492 115.718359)">06/2026</text>
     </g>
    </g>
   </g>
   <g id="matplotlib.axis_2">
    <g id="ytick_1">
     <g id="line2d_7">
      <path d="M 31.64 101.192938 
L 211 101.192938 
" clip-path="url(#p8d1ba4e008)" style="fill: none; stroke-dasharray: 2.96,1.28; stroke-dashoffset: 0; stroke: var(--grid-color); stroke-width: 0.8"/>
     </g>
     <g id="line2d_8">
      <defs>
       <path id="mb17dfd6a2b" d="M 0 0 
L -3.5 0 
" style="stroke: var(--fg-color); stroke-width: 0.8"/>
      </defs>
      <g>
       <use xlink:href="#mb17dfd6a2b" x="31.64" y="101.192938" style="fill: var(--fg-color); stroke: var(--fg-color); stroke-width: 0.8"/>
      </g>
     </g>
     <g id="text_4">
      <text style="font-size: 7px; font-family: 'DejaVu Sans', 'Bitstream Vera Sans', 'Computer Modern Sans Serif', 'Lucida Grande', 'Verdana', 'Geneva', 'Lucid', 'Arial', 'Helvetica', 'Avant Garde', sans-serif; text-anchor: end; fill: var(--fg-color)" x="24.64" y="103.852118" transform="rotate(-0 24.64 103.852118)">0</text>
     </g>
    </g>
    <g id="ytick_2">
     <g id="line2d_9">
      <path d="M 31.64 70.034049 
L 211 70.034049 
" clip-path="url(#p8d1ba4e008)" style="fill: none; stroke-dasharray: 2.96,1.28; stroke-dashoffset: 0; stroke: var(--grid-color); stroke-width: 0.8"/>
     </g>
     <g id="line2d_10">
      <g>
       <use xlink:href="#mb17dfd6a2b" x="31.64" y="70.034049" style="fill: var(--fg-color); stroke: var(--fg-color); stroke-width: 0.8"/>
      </g>
     </g>
     <g id="text_5">
      <text style="font-size: 7px; font-family: 'DejaVu Sans', 'Bitstream Vera Sans', 'Computer Modern Sans Serif', 'Lucida Grande', 'Verdana', 'Geneva', 'Lucid', 'Arial', 'Helvetica', 'Avant Garde', sans-serif; text-anchor: end; fill: var(--fg-color)" x="24.64" y="72.693229" transform="rotate(-0 24.64 72.693229)">20</text>
     </g>
    </g>
    <g id="ytick_3">
     <g id="line2d_11">
      <path d="M 31.64 38.87516 
L 211 38.87516 
" clip-path="url(#p8d1ba4e008)" style="fill: none; stroke-dasharray: 2.96,1.28; stroke-dashoffset: 0; stroke: var(--grid-color); stroke-width: 0.8"/>
     </g>
     <g id="line2d_12">
      <g>
       <use xlink:href="#mb17dfd6a2b" x="31.64" y="38.87516" style="fill: var(--fg-color); stroke: var(--fg-color); stroke-width: 0.8"/>
      </g>
     </g>
     <g id="text_6">
      <text style="font-size: 7px; font-family: 'DejaVu Sans', 'Bitstream Vera Sans', 'Computer Modern Sans Serif', 'Lucida Grande', 'Verdana', 'Geneva', 'Lucid', 'Arial', 'Helvetica', 'Avant Garde', sans-serif; text-anchor: end; fill: var(--fg-color)" x="24.64" y="41.53434" transform="rotate(-0 24.64 41.53434)">40</text>
     </g>
    </g>
    <g id="ytick_4">
     <g id="line2d_13">
      <path d="M 31.64 7.716272 
L 211 7.716272 
" clip-path="url(#p8d1ba4e008)" style="fill: none; stroke-dasharray: 2.96,1.28; stroke-dashoffset: 0; stroke: var(--grid-color); stroke-width: 0.8"/>
     </g>
     <g id="line2d_14">
      <g>
       <use xlink:href="#mb17dfd6a2b" x="31.64" y="7.716272" style="fill: var(--fg-color); stroke: var(--fg-color); stroke-width: 0.8"/>
      </g>
     </g>
     <g id="text_7">
      <text style="font-size: 7px; font-family: 'DejaVu Sans', 'Bitstream Vera Sans', 'Computer Modern Sans Serif', 'Lucida Grande', 'Verdana', 'Geneva', 'Lucid', 'Arial', 'Helvetica', 'Avant Garde', sans-serif; text-anchor: end; fill: var(--fg-color)" x="24.64" y="10.375451" transform="rotate(-0 24.64 10.375451)">60</text>
     </g>
    </g>
    <g id="text_8">
     <text style="font-size: 7px; font-family: 'DejaVu Sans', 'Bitstream Vera Sans', 'Computer Modern Sans Serif', 'Lucida Grande', 'Verdana', 'Geneva', 'Lucid', 'Arial', 'Helvetica', 'Avant Garde', sans-serif; text-anchor: middle; fill: var(--fg-color)" x="10.050859" y="54.684402" transform="rotate(-90 10.050859 54.684402)">ms</text>
    </g>
   </g>
   <g id="line2d_15">
    <path d="M 39.792727 18.505037 
L 40.358622 19.748277 
L 41.271481 19.126657 
L 42.184338 18.771445 
L 43.097199 11.156213 
L 44.010052 21.525891 
L 44.922906 20.591124 
L 45.835753 23.100973 
L 46.748617 20.33718 
L 47.661476 18.667063 
L 48.574332 20.734455 
L 49.487188 24.839639 
L 50.40004 20.742245 
L 51.312897 19.100172 
L 52.225755 20.371454 
L 53.138604 20.077003 
L 54.051463 23.305064 
L 54.964319 18.19968 
L 55.877175 23.325317 
L 56.79003 25.860093 
L 57.702885 21.965231 
L 58.615744 15.239585 
L 59.528593 25.690277 
L 60.441447 26.082879 
L 61.35431 21.136405 
L 62.267165 21.695707 
L 63.180022 20.731339 
L 64.092874 22.685002 
L 65.005713 20.721992 
L 65.918587 19.209228 
L 66.831438 25.574989 
L 67.7443 19.858891 
L 68.657153 19.961715 
L 69.57001 27.399342 
L 70.482861 22.755109 
L 71.395726 24.130774 
L 72.308567 22.650727 
L 73.221429 22.917136 
L 75.047144 15.78954 
L 75.959984 16.002978 
L 76.872853 23.724151 
L 77.785693 21.491616 
L 78.698564 24.587252 
L 79.61142 23.242746 
L 80.524278 21.306221 
L 81.43713 25.335065 
L 82.349993 24.41432 
L 91.665728 21.684801 
L 92.391681 23.805164 
L 93.304554 22.596199 
L 94.217409 26.215304 
L 95.130269 21.058508 
L 96.043122 22.722392 
L 96.955975 20.37457 
L 97.868829 25.445679 
L 98.781684 25.078004 
L 99.694538 24.574788 
L 100.607396 20.165806 
L 101.520248 29.560211 
L 102.433106 17.900554 
L 103.345963 25.159018 
L 104.258819 21.728424 
L 105.171671 22.45131 
L 106.084531 25.713646 
L 106.997383 24.942463 
L 107.910242 24.652686 
L 108.823098 22.907788 
L 109.735951 27.474123 
L 110.648812 23.97498 
L 111.561659 23.56524 
L 112.474515 18.568913 
L 113.387379 19.227923 
L 114.300233 24.317728 
L 115.213089 23.082278 
L 116.125938 17.874069 
L 117.038797 24.25541 
L 117.951653 22.22385 
L 118.864507 17.109119 
L 119.777364 26.547146 
L 123.428785 22.17867 
L 124.341647 18.37417 
L 125.254499 22.963874 
L 126.167355 21.61002 
L 127.080212 20.918293 
L 127.993067 18.430256 
L 128.905926 14.130329 
L 129.818763 21.73154 
L 130.731631 23.34557 
L 131.644492 21.267272 
L 132.557344 20.695507 
L 133.470203 23.281695 
L 134.383056 15.647767 
L 135.295912 20.075445 
L 136.208765 21.666106 
L 137.121624 18.667063 
L 138.034491 21.074087 
L 138.947335 15.133645 
L 139.860192 20.474279 
L 140.773046 16.394022 
L 141.685902 18.945935 
L 142.598758 19.198322 
L 143.511612 20.225008 
L 144.42447 15.945334 
L 145.337321 16.143193 
L 172.723053 16.143193 
L 181.242468 20.429098 
L 181.851594 21.642737 
L 182.764449 13.024188 
L 183.677303 17.274261 
L 184.590158 19.07836 
L 185.503019 11.313565 
L 186.415872 16.362863 
L 187.328726 17.366179 
L 188.24158 19.391507 
L 189.154439 10.397494 
L 190.067296 15.102486 
L 190.980152 16.513984 
L 191.893011 16.629272 
L 192.80586 19.757624 
L 193.718718 17.810194 
L 194.631573 19.274661 
L 195.544431 17.484583 
L 196.457286 19.991316 
L 197.370142 11.600227 
L 198.282997 19.19209 
L 199.195852 14.93267 
L 200.108708 24.481312 
L 201.021561 21.201839 
L 201.934415 19.69998 
L 202.847273 21.519659 
L 202.847273 21.519659 
" clip-path="url(#p8d1ba4e008)" style="fill: none; stroke: #339af0; stroke-width: 1.2; stroke-linecap: square"/>
   </g>
   <g id="line2d_16">
    <path d="M 39.792727 98.377732 
L 40.358622 98.754755 
L 41.271481 98.787472 
L 42.184338 98.676858 
L 49.487188 98.832652 
L 50.40004 98.673742 
L 52.225755 98.623888 
L 53.138604 98.631677 
L 54.051463 98.787472 
L 54.964319 98.5086 
L 56.79003 98.78903 
L 58.615744 98.625446 
L 59.528593 98.898086 
L 61.35431 98.722038 
L 62.267165 98.560012 
L 64.092874 98.866927 
L 65.005713 98.679974 
L 66.831438 98.73606 
L 70.482861 98.919897 
L 71.395726 98.898086 
L 72.308567 98.729828 
L 73.221429 98.924571 
L 74.134286 98.820189 
L 75.047144 98.464977 
L 76.872853 98.732944 
L 78.698564 98.862253 
L 79.61142 98.768776 
L 80.524278 98.924571 
L 81.43713 98.717364 
L 91.665728 98.718922 
L 92.391681 98.827978 
L 93.304554 98.627004 
L 94.217409 98.859137 
L 95.130269 98.639467 
L 96.043122 98.893412 
L 96.955975 98.740733 
L 98.781684 98.913665 
L 100.607396 98.584939 
L 101.520248 98.971309 
L 102.433106 98.519505 
L 103.345963 98.827978 
L 106.084531 98.838884 
L 106.997383 98.608308 
L 107.910242 98.870043 
L 108.823098 98.785914 
L 110.648812 98.820189 
L 113.387379 98.544432 
L 114.300233 98.82642 
L 115.213089 98.893412 
L 116.125938 98.689321 
L 118.864507 98.678416 
L 119.777364 98.863811 
L 123.428785 98.611424 
L 124.341647 98.768776 
L 127.080212 98.469651 
L 127.993067 98.309183 
L 128.905926 98.634793 
L 129.818763 98.757871 
L 132.557344 98.271792 
L 133.470203 98.762545 
L 134.383056 98.45563 
L 136.208765 98.765661 
L 137.121624 98.633235 
L 138.034491 98.670626 
L 138.947335 97.042574 
L 139.860192 98.679974 
L 140.773046 98.385522 
L 142.598758 98.760987 
L 143.511612 98.718922 
L 145.337321 98.295161 
L 172.723053 98.295161 
L 181.851594 98.750081 
L 182.764449 98.26556 
L 183.677303 98.625446 
L 184.590158 98.692437 
L 185.503019 98.287372 
L 186.415872 98.681532 
L 187.328726 98.636351 
L 188.24158 98.256213 
L 190.067296 98.217264 
L 190.980152 98.496136 
L 191.893011 98.43226 
L 193.718718 98.673742 
L 194.631573 98.295161 
L 195.544431 96.989604 
L 196.457286 98.623888 
L 197.370142 98.603634 
L 198.282997 98.276466 
L 199.195852 98.641025 
L 200.108708 98.706459 
L 201.021561 98.655047 
L 201.934415 98.302951 
L 202.847273 98.732944 
L 202.847273 98.732944 
" clip-path="url(#p8d1ba4e008)" style="fill: none; stroke: #ff6b6b; stroke-width: 1.2; stroke-linecap: square"/>
   </g>
   <g id="patch_3">
    <path d="M 31.64 103.4 
L 31.64 5.968803 
" style="fill: none; stroke: var(--fg-color); stroke-width: 0.8; stroke-linejoin: miter; stroke-linecap: square"/>
   </g>
   <g id="patch_4">
    <path d="M 31.64 103.4 
L 211 103.4 
" style="fill: none; stroke: var(--fg-color); stroke-width: 0.8; stroke-linejoin: miter; stroke-linecap: square"/>
   </g>
  </g>
 </g>
 <defs>
  <clipPath id="p8d1ba4e008">
   <rect x="31.64" y="5.968803" width="179.36" height="97.431197"/>
  </clipPath>
 </defs>
</svg>
