<?xml version="1.0" encoding="utf-8" standalone="no"?>
<!DOCTYPE svg PUBLIC "-//W3C//DTD SVG 1.1//EN"
  "http://www.w3.org/Graphics/SVG/1.1/DTD/svg11.dtd">
<svg xmlns:xlink="http://www.w3.org/1999/xlink" width="216pt" height="122.4pt" viewBox="0 0 216 122.4" xmlns="http://www.w3.org/2000/svg" version="1.1">
  <style>
    :root {
      --fg-color: #212529;
      --grid-color: rgba(33, 37, 41, 0.1);
    }
    @media (prefers-color-scheme: dark) {
      :root {
        --fg-color: #dee2e6;
        --grid-color: rgba(248, 249, 250, 0.15);
      }
    }
  </style>

 <metadata>
  <rdf:RDF xmlns:dc="http://purl.org/dc/elements/1.1/" xmlns:cc="http://creativecommons.org/ns#" xmlns:rdf="http://www.w3.org/1999/02/22-rdf-syntax-ns#">
   <cc:Work>
    <dc:type rdf:resource="http://purl.org/dc/dcmitype/StillImage"/>
    <dc:date>2026-06-30T15:36:41.650358</dc:date>
    <dc:format>image/svg+xml</dc:format>
    <dc:creator>
     <cc:Agent>
      <dc:title>Matplotlib v3.11.0, https://matplotlib.org/</dc:title>
     </cc:Agent>
    </dc:creator>
   </cc:Work>
  </rdf:RDF>
 </metadata>
 <defs>
  <style type="text/css">*{stroke-linejoin: round; stroke-linecap: butt}</style>
 </defs>
 <g id="figure_1">
  <g id="patch_1">
   <path d="M 0 122.4 
L 216 122.4 
L 216 0 
L 0 0 
L 0 122.4 
z
" style="fill: none; opacity: 0"/>
  </g>
  <g id="axes_1">
   <g id="patch_2">
    <path d="M 40.28 103.4 
L 211 103.4 
L 211 5 
L 40.28 5 
L 40.28 103.4 
z
" style="fill: none; opacity: 0"/>
   </g>
   <g id="matplotlib.axis_1">
    <g id="xtick_1">
     <g id="line2d_1">
      <path d="M 73.269255 103.4 
L 73.269255 5 
" clip-path="url(#p79c9d6fbad)" style="fill: none; stroke-dasharray: 2.96,1.28; stroke-dashoffset: 0; stroke: var(--grid-color); stroke-width: 0.8"/>
     </g>
     <g id="line2d_2">
      <defs>
       <path id="m035951dc3e" d="M 0 0 
L 0 3.5 
" style="stroke: var(--fg-color); stroke-width: 0.8"/>
      </defs>
      <g>
       <use xlink:href="#m035951dc3e" x="73.269255" y="103.4" style="fill: var(--fg-color); stroke: var(--fg-color); stroke-width: 0.8"/>
      </g>
     </g>
     <g id="text_1">
      <text style="font-size: 7px; font-family: 'DejaVu Sans', 'Bitstream Vera Sans', 'Computer Modern Sans Serif', 'Lucida Grande', 'Verdana', 'Geneva', 'Lucid', 'Arial', 'Helvetica', 'Avant Garde', sans-serif; text-anchor: middle; fill: var(--fg-color)" x="73.269255" y="115.718359" transform="rotate(-0 73.269255 115.718359)">02/2026</text>
     </g>
    </g>
    <g id="xtick_2">
     <g id="line2d_3">
      <path d="M 124.533307 103.4 
L 124.533307 5 
" clip-path="url(#p79c9d6fbad)" style="fill: none; stroke-dasharray: 2.96,1.28; stroke-dashoffset: 0; stroke: var(--grid-color); stroke-width: 0.8"/>
     </g>
     <g id="line2d_4">
      <g>
       <use xlink:href="#m035951dc3e" x="124.533307" y="103.4" style="fill: var(--fg-color); stroke: var(--fg-color); stroke-width: 0.8"/>
      </g>
     </g>
     <g id="text_2">
      <text style="font-size: 7px; font-family: 'DejaVu Sans', 'Bitstream Vera Sans', 'Computer Modern Sans Serif', 'Lucida Grande', 'Verdana', 'Geneva', 'Lucid', 'Arial', 'Helvetica', 'Avant Garde', sans-serif; text-anchor: middle; fill: var(--fg-color)" x="124.533307" y="115.718359" transform="rotate(-0 124.533307 115.718359)">04/2026</text>
     </g>
    </g>
    <g id="xtick_3">
     <g id="line2d_5">
      <path d="M 177.535122 103.4 
L 177.535122 5 
" clip-path="url(#p79c9d6fbad)" style="fill: none; stroke-dasharray: 2.96,1.28; stroke-dashoffset: 0; stroke: var(--grid-color); stroke-width: 0.8"/>
     </g>
     <g id="line2d_6">
      <g>
       <use xlink:href="#m035951dc3e" x="177.535122" y="103.4" style="fill: var(--fg-color); stroke: var(--fg-color); stroke-width: 0.8"/>
      </g>
     </g>
     <g id="text_3">
      <text style="font-size: 7px; font-family: 'DejaVu Sans', 'Bitstream Vera Sans', 'Computer Modern Sans Serif', 'Lucida Grande', 'Verdana', 'Geneva', 'Lucid', 'Arial', 'Helvetica', 'Avant Garde', sans-serif; text-anchor: middle; fill: var(--fg-color)" x="177.535122" y="115.718359" transform="rotate(-0 177.535122 115.718359)">06/2026</text>
     </g>
    </g>
   </g>
   <g id="matplotlib.axis_2">
    <g id="ytick_1">
     <g id="line2d_7">
      <path d="M 40.28 88.575834 
L 211 88.575834 
" clip-path="url(#p79c9d6fbad)" style="fill: none; stroke-dasharray: 2.96,1.28; stroke-dashoffset: 0; stroke: var(--grid-color); stroke-width: 0.8"/>
     </g>
     <g id="line2d_8">
      <defs>
       <path id="m45c4b7c91a" d="M 0 0 
L -3.5 0 
" style="stroke: var(--fg-color); stroke-width: 0.8"/>
      </defs>
      <g>
       <use xlink:href="#m45c4b7c91a" x="40.28" y="88.575834" style="fill: var(--fg-color); stroke: var(--fg-color); stroke-width: 0.8"/>
      </g>
     </g>
     <g id="text_4">
      <text style="font-size: 7px; font-family: 'DejaVu Sans', 'Bitstream Vera Sans', 'Computer Modern Sans Serif', 'Lucida Grande', 'Verdana', 'Geneva', 'Lucid', 'Arial', 'Helvetica', 'Avant Garde', sans-serif; text-anchor: end; fill: var(--fg-color)" x="33.28" y="91.235013" transform="rotate(-0 33.28 91.235013)">200</text>
     </g>
    </g>
    <g id="ytick_2">
     <g id="line2d_9">
      <path d="M 40.28 70.763229 
L 211 70.763229 
" clip-path="url(#p79c9d6fbad)" style="fill: none; stroke-dasharray: 2.96,1.28; stroke-dashoffset: 0; stroke: var(--grid-color); stroke-width: 0.8"/>
     </g>
     <g id="line2d_10">
      <g>
       <use xlink:href="#m45c4b7c91a" x="40.28" y="70.763229" style="fill: var(--fg-color); stroke: var(--fg-color); stroke-width: 0.8"/>
      </g>
     </g>
     <g id="text_5">
      <text style="font-size: 7px; font-family: 'DejaVu Sans', 'Bitstream Vera Sans', 'Computer Modern Sans Serif', 'Lucida Grande', 'Verdana', 'Geneva', 'Lucid', 'Arial', 'Helvetica', 'Avant Garde', sans-serif; text-anchor: end; fill: var(--fg-color)" x="33.28" y="73.422408" transform="rotate(-0 33.28 73.422408)">400</text>
     </g>
    </g>
    <g id="ytick_3">
     <g id="line2d_11">
      <path d="M 40.28 52.950624 
L 211 52.950624 
" clip-path="url(#p79c9d6fbad)" style="fill: none; stroke-dasharray: 2.96,1.28; stroke-dashoffset: 0; stroke: var(--grid-color); stroke-width: 0.8"/>
     </g>
     <g id="line2d_12">
      <g>
       <use xlink:href="#m45c4b7c91a" x="40.28" y="52.950624" style="fill: var(--fg-color); stroke: var(--fg-color); stroke-width: 0.8"/>
      </g>
     </g>
     <g id="text_6">
      <text style="font-size: 7px; font-family: 'DejaVu Sans', 'Bitstream Vera Sans', 'Computer Modern Sans Serif', 'Lucida Grande', 'Verdana', 'Geneva', 'Lucid', 'Arial', 'Helvetica', 'Avant Garde', sans-serif; text-anchor: end; fill: var(--fg-color)" x="33.28" y="55.609804" transform="rotate(-0 33.28 55.609804)">600</text>
     </g>
    </g>
    <g id="ytick_4">
     <g id="line2d_13">
      <path d="M 40.28 35.138019 
L 211 35.138019 
" clip-path="url(#p79c9d6fbad)" style="fill: none; stroke-dasharray: 2.96,1.28; stroke-dashoffset: 0; stroke: var(--grid-color); stroke-width: 0.8"/>
     </g>
     <g id="line2d_14">
      <g>
       <use xlink:href="#m45c4b7c91a" x="40.28" y="35.138019" style="fill: var(--fg-color); stroke: var(--fg-color); stroke-width: 0.8"/>
      </g>
     </g>
     <g id="text_7">
      <text style="font-size: 7px; font-family: 'DejaVu Sans', 'Bitstream Vera Sans', 'Computer Modern Sans Serif', 'Lucida Grande', 'Verdana', 'Geneva', 'Lucid', 'Arial', 'Helvetica', 'Avant Garde', sans-serif; text-anchor: end; fill: var(--fg-color)" x="33.28" y="37.797199" transform="rotate(-0 33.28 37.797199)">800</text>
     </g>
    </g>
    <g id="ytick_5">
     <g id="line2d_15">
      <path d="M 40.28 17.325414 
L 211 17.325414 
" clip-path="url(#p79c9d6fbad)" style="fill: none; stroke-dasharray: 2.96,1.28; stroke-dashoffset: 0; stroke: var(--grid-color); stroke-width: 0.8"/>
     </g>
     <g id="line2d_16">
      <g>
       <use xlink:href="#m45c4b7c91a" x="40.28" y="17.325414" style="fill: var(--fg-color); stroke: var(--fg-color); stroke-width: 0.8"/>
      </g>
     </g>
     <g id="text_8">
      <text style="font-size: 7px; font-family: 'DejaVu Sans', 'Bitstream Vera Sans', 'Computer Modern Sans Serif', 'Lucida Grande', 'Verdana', 'Geneva', 'Lucid', 'Arial', 'Helvetica', 'Avant Garde', sans-serif; text-anchor: end; fill: var(--fg-color)" x="33.28" y="19.984594" transform="rotate(-0 33.28 19.984594)">1000</text>
     </g>
    </g>
    <g id="text_9">
     <text style="font-size: 7px; font-family: 'DejaVu Sans', 'Bitstream Vera Sans', 'Computer Modern Sans Serif', 'Lucida Grande', 'Verdana', 'Geneva', 'Lucid', 'Arial', 'Helvetica', 'Avant Garde', sans-serif; text-anchor: middle; fill: var(--fg-color)" x="9.783359" y="54.2" transform="rotate(-90 9.783359 54.2)">ms</text>
    </g>
   </g>
   <g id="line2d_17">
    <path d="M 48.04 27.936027 
L 48.578635 92.741578 
L 50.316404 94.313897 
L 51.185291 94.254581 
L 52.054171 92.033795 
L 52.923051 92.566035 
L 53.791926 93.490955 
L 55.529701 92.965661 
L 56.398584 94.458981 
L 57.267466 93.882565 
L 58.136345 92.736769 
L 59.005229 94.208447 
L 59.874113 92.025423 
L 60.742989 94.756986 
L 61.611875 94.792522 
L 62.480757 95.007075 
L 64.218521 92.186538 
L 65.087403 94.017406 
L 65.956288 94.621075 
L 66.825164 93.68057 
L 67.694045 92.155455 
L 68.562934 91.700966 
L 69.431815 92.029074 
L 70.300699 93.605223 
L 71.169578 90.758412 
L 72.038444 92.766961 
L 72.907344 93.642095 
L 73.776222 93.378735 
L 74.64511 94.724834 
L 75.513989 94.339814 
L 76.382873 83.582961 
L 77.251751 92.362972 
L 78.120642 93.07601 
L 78.989511 93.002711 
L 80.727282 91.91258 
L 81.596167 94.31078 
L 82.465034 78.465132 
L 83.333929 94.147795 
L 84.202796 94.284506 
L 85.071693 86.422646 
L 85.940576 92.905009 
L 86.80946 93.450342 
L 87.678339 92.682886 
L 88.547228 92.189744 
L 97.414212 13.015833 
L 98.105195 90.482762 
L 98.974094 92.407592 
L 99.842975 92.855757 
L 100.711861 93.830819 
L 101.580741 90.737215 
L 102.449621 93.5085 
L 103.318502 91.124996 
L 104.187383 92.900467 
L 105.925149 92.988283 
L 106.794028 94.13114 
L 107.662912 93.39539 
L 108.531796 93.431461 
L 109.400677 91.859676 
L 110.269557 93.786466 
L 111.138443 93.049737 
L 112.007322 92.973142 
L 113.74509 91.654742 
L 114.61397 94.297153 
L 115.482857 92.855935 
L 116.35173 89.106115 
L 117.220613 94.990865 
L 118.089503 92.782191 
L 118.958385 93.160709 
L 119.827267 92.879982 
L 120.696142 94.127132 
L 121.565028 77.860216 
L 122.433911 92.534596 
L 124.171675 92.798134 
L 127.647202 92.103442 
L 128.516091 93.349701 
L 129.384969 93.89352 
L 131.122735 92.157325 
L 131.991617 91.042256 
L 132.860502 94.409373 
L 133.729367 91.969046 
L 134.598261 94.066658 
L 135.467148 93.120364 
L 137.204912 93.604154 
L 138.073792 93.209337 
L 138.942675 92.660175 
L 139.811554 91.397261 
L 140.680439 86.775068 
L 141.549333 92.848365 
L 142.418204 91.325209 
L 143.287088 92.938942 
L 144.155968 76.839732 
L 145.02485 94.111724 
L 145.893733 92.363239 
L 146.762613 91.367425 
L 147.631498 92.303834 
L 148.500376 92.608251 
L 174.566902 92.608251 
L 182.675926 9.472727 
L 183.25571 92.633367 
L 184.124592 93.400823 
L 184.993472 87.980804 
L 185.862354 94.082511 
L 186.731242 92.504047 
L 187.600121 93.609052 
L 188.469002 93.608874 
L 189.337882 93.803477 
L 190.206767 91.865911 
L 191.075651 93.347118 
L 191.944534 93.619651 
L 192.813419 91.543859 
L 193.682295 91.750307 
L 194.55118 94.535041 
L 195.420061 94.054367 
L 196.288945 72.984372 
L 197.157827 94.266872 
L 198.026709 92.495675 
L 198.895592 94.57405 
L 199.764473 94.019811 
L 200.633356 89.723856 
L 201.502235 90.358163 
L 202.371116 62.756285 
L 203.24 92.974478 
L 203.24 92.974478 
" clip-path="url(#p79c9d6fbad)" style="fill: none; stroke: #339af0; stroke-width: 1.2; stroke-linecap: square"/>
   </g>
   <g id="line2d_18">
    <path d="M 48.04 96.409016 
L 48.578635 96.203993 
L 49.44752 96.326454 
L 50.316404 96.055881 
L 51.185291 96.354153 
L 52.054171 91.983919 
L 52.923051 96.871253 
L 53.791926 95.013843 
L 54.660816 95.581353 
L 55.529701 95.760637 
L 56.398584 92.800716 
L 57.267466 95.736857 
L 59.005229 96.490419 
L 59.874113 96.192593 
L 60.742989 96.364662 
L 61.611875 96.108339 
L 62.480757 96.093109 
L 63.349639 97.213255 
L 64.218521 96.6168 
L 65.087403 97.143429 
L 65.956288 89.680571 
L 66.825164 96.922731 
L 67.694045 96.00654 
L 68.562934 95.89913 
L 69.431815 96.320843 
L 70.300699 96.458713 
L 71.169578 97.195442 
L 72.038444 95.193394 
L 72.907344 96.745763 
L 73.776222 92.423267 
L 74.64511 96.240954 
L 75.513989 94.113327 
L 76.382873 96.104598 
L 77.251751 95.580551 
L 78.120642 96.07779 
L 78.989511 95.436002 
L 79.858399 96.085806 
L 80.727282 95.441524 
L 81.596167 98.402602 
L 82.465034 95.423711 
L 83.333929 96.31256 
L 84.202796 97.005025 
L 85.071693 96.249415 
L 85.940576 94.272839 
L 86.80946 95.631317 
L 87.678339 95.727238 
L 88.547228 95.106825 
L 97.414212 95.272839 
L 98.105195 96.662222 
L 98.974094 96.533526 
L 99.842975 96.518741 
L 100.711861 97.035663 
L 101.580741 96.930123 
L 103.318502 95.039494 
L 104.187383 96.223319 
L 105.056264 96.769187 
L 105.925149 95.782546 
L 106.794028 96.202479 
L 107.662912 96.912578 
L 108.531796 93.5598 
L 109.400677 95.679322 
L 110.269557 96.657769 
L 111.138443 96.408481 
L 112.007322 94.878646 
L 112.876207 96.154563 
L 113.74509 96.393608 
L 114.61397 93.815322 
L 115.482857 94.829483 
L 116.35173 96.80597 
L 117.220613 96.569507 
L 118.089503 94.780498 
L 118.958385 96.589546 
L 119.827267 96.325564 
L 120.696142 95.606291 
L 121.565028 96.05695 
L 122.433911 96.683597 
L 123.302792 96.102817 
L 124.171675 95.986946 
L 127.647202 96.729732 
L 128.516091 96.478396 
L 129.384969 95.942771 
L 130.253852 95.6282 
L 131.122735 93.441347 
L 131.991617 96.705596 
L 132.860502 91.120899 
L 133.729367 96.52079 
L 135.467148 95.652871 
L 136.336027 96.79074 
L 137.204912 97.327523 
L 138.073792 93.86021 
L 138.942675 96.488727 
L 139.811554 95.671485 
L 140.680439 95.919258 
L 141.549333 95.638799 
L 142.418204 96.613415 
L 143.287088 95.128022 
L 144.155968 92.456042 
L 145.02485 94.835985 
L 145.893733 94.929946 
L 146.762613 90.256987 
L 147.631498 96.31541 
L 148.500376 96.320487 
L 174.566902 96.320487 
L 182.675926 94.095604 
L 184.124592 97.616799 
L 184.993472 97.609318 
L 185.862354 95.401446 
L 186.731242 96.21094 
L 187.600121 98.927273 
L 188.469002 96.196244 
L 189.337882 97.765 
L 190.206767 96.764822 
L 191.075651 92.975547 
L 191.944534 97.299468 
L 192.813419 97.986678 
L 193.682295 80.909378 
L 194.55118 97.635681 
L 195.420061 96.539938 
L 196.288945 96.705596 
L 197.157827 95.808642 
L 198.026709 96.672286 
L 198.895592 97.14245 
L 199.764473 96.055881 
L 200.633356 96.947045 
L 201.502235 94.560513 
L 202.371116 97.794836 
L 203.24 97.198114 
L 203.24 97.198114 
" clip-path="url(#p79c9d6fbad)" style="fill: none; stroke: #ff6b6b; stroke-width: 1.2; stroke-linecap: square"/>
   </g>
   <g id="patch_3">
    <path d="M 40.28 103.4 
L 40.28 5 
" style="fill: none; stroke: var(--fg-color); stroke-width: 0.8; stroke-linejoin: miter; stroke-linecap: square"/>
   </g>
   <g id="patch_4">
    <path d="M 40.28 103.4 
L 211 103.4 
" style="fill: none; stroke: var(--fg-color); stroke-width: 0.8; stroke-linejoin: miter; stroke-linecap: square"/>
   </g>
  </g>
 </g>
 <defs>
  <clipPath id="p79c9d6fbad">
   <rect x="40.28" y="5" width="170.72" height="98.4"/>
  </clipPath>
 </defs>
</svg>
