<?xml version="1.0" encoding="utf-8" standalone="no"?>
<!DOCTYPE svg PUBLIC "-//W3C//DTD SVG 1.1//EN"
  "http://www.w3.org/Graphics/SVG/1.1/DTD/svg11.dtd">
<svg xmlns:xlink="http://www.w3.org/1999/xlink" width="216pt" height="122.4pt" viewBox="0 0 216 122.4" xmlns="http://www.w3.org/2000/svg" version="1.1">
  <style>
    :root {
      --fg-color: #212529;
      --grid-color: rgba(33, 37, 41, 0.1);
    }
    @media (prefers-color-scheme: dark) {
      :root {
        --fg-color: #dee2e6;
        --grid-color: rgba(248, 249, 250, 0.15);
      }
    }
  </style>

 <metadata>
  <rdf:RDF xmlns:dc="http://purl.org/dc/elements/1.1/" xmlns:cc="http://creativecommons.org/ns#" xmlns:rdf="http://www.w3.org/1999/02/22-rdf-syntax-ns#">
   <cc:Work>
    <dc:type rdf:resource="http://purl.org/dc/dcmitype/StillImage"/>
    <dc:date>2026-06-30T15:37:54.139993</dc:date>
    <dc:format>image/svg+xml</dc:format>
    <dc:creator>
     <cc:Agent>
      <dc:title>Matplotlib v3.11.0, https://matplotlib.org/</dc:title>
     </cc:Agent>
    </dc:creator>
   </cc:Work>
  </rdf:RDF>
 </metadata>
 <defs>
  <style type="text/css">*{stroke-linejoin: round; stroke-linecap: butt}</style>
 </defs>
 <g id="figure_1">
  <g id="patch_1">
   <path d="M 0 122.4 
L 216 122.4 
L 216 0 
L 0 0 
L 0 122.4 
z
" style="fill: none; opacity: 0"/>
  </g>
  <g id="axes_1">
   <g id="patch_2">
    <path d="M 35.96 103.4 
L 211 103.4 
L 211 5 
L 35.96 5 
L 35.96 103.4 
z
" style="fill: none; opacity: 0"/>
   </g>
   <g id="matplotlib.axis_1">
    <g id="xtick_1">
     <g id="line2d_1">
      <path d="M 69.784035 103.4 
L 69.784035 5 
" clip-path="url(#p7636b56110)" style="fill: none; stroke-dasharray: 2.96,1.28; stroke-dashoffset: 0; stroke: var(--grid-color); stroke-width: 0.8"/>
     </g>
     <g id="line2d_2">
      <defs>
       <path id="md8e454a3a9" d="M 0 0 
L 0 3.5 
" style="stroke: var(--fg-color); stroke-width: 0.8"/>
      </defs>
      <g>
       <use xlink:href="#md8e454a3a9" x="69.784035" y="103.4" style="fill: var(--fg-color); stroke: var(--fg-color); stroke-width: 0.8"/>
      </g>
     </g>
     <g id="text_1">
      <text style="font-size: 7px; font-family: 'DejaVu Sans', 'Bitstream Vera Sans', 'Computer Modern Sans Serif', 'Lucida Grande', 'Verdana', 'Geneva', 'Lucid', 'Arial', 'Helvetica', 'Avant Garde', sans-serif; text-anchor: middle; fill: var(--fg-color)" x="69.784035" y="115.718359" transform="rotate(-0 69.784035 115.718359)">02/2026</text>
     </g>
    </g>
    <g id="xtick_2">
     <g id="line2d_3">
      <path d="M 122.345302 103.4 
L 122.345302 5 
" clip-path="url(#p7636b56110)" style="fill: none; stroke-dasharray: 2.96,1.28; stroke-dashoffset: 0; stroke: var(--grid-color); stroke-width: 0.8"/>
     </g>
     <g id="line2d_4">
      <g>
       <use xlink:href="#md8e454a3a9" x="122.345302" y="103.4" style="fill: var(--fg-color); stroke: var(--fg-color); stroke-width: 0.8"/>
      </g>
     </g>
     <g id="text_2">
      <text style="font-size: 7px; font-family: 'DejaVu Sans', 'Bitstream Vera Sans', 'Computer Modern Sans Serif', 'Lucida Grande', 'Verdana', 'Geneva', 'Lucid', 'Arial', 'Helvetica', 'Avant Garde', sans-serif; text-anchor: middle; fill: var(--fg-color)" x="122.345302" y="115.718359" transform="rotate(-0 122.345302 115.718359)">04/2026</text>
     </g>
    </g>
    <g id="xtick_3">
     <g id="line2d_5">
      <path d="M 176.688307 103.4 
L 176.688307 5 
" clip-path="url(#p7636b56110)" style="fill: none; stroke-dasharray: 2.96,1.28; stroke-dashoffset: 0; stroke: var(--grid-color); stroke-width: 0.8"/>
     </g>
     <g id="line2d_6">
      <g>
       <use xlink:href="#md8e454a3a9" x="176.688307" y="103.4" style="fill: var(--fg-color); stroke: var(--fg-color); stroke-width: 0.8"/>
      </g>
     </g>
     <g id="text_3">
      <text style="font-size: 7px; font-family: 'DejaVu Sans', 'Bitstream Vera Sans', 'Computer Modern Sans Serif', 'Lucida Grande', 'Verdana', 'Geneva', 'Lucid', 'Arial', 'Helvetica', 'Avant Garde', sans-serif; text-anchor: middle; fill: var(--fg-color)" x="176.688307" y="115.718359" transform="rotate(-0 176.688307 115.718359)">06/2026</text>
     </g>
    </g>
   </g>
   <g id="matplotlib.axis_2">
    <g id="ytick_1">
     <g id="line2d_7">
      <path d="M 35.96 99.809232 
L 211 99.809232 
" clip-path="url(#p7636b56110)" style="fill: none; stroke-dasharray: 2.96,1.28; stroke-dashoffset: 0; stroke: var(--grid-color); stroke-width: 0.8"/>
     </g>
     <g id="line2d_8">
      <defs>
       <path id="m3b9c74d3dd" d="M 0 0 
L -3.5 0 
" style="stroke: var(--fg-color); stroke-width: 0.8"/>
      </defs>
      <g>
       <use xlink:href="#m3b9c74d3dd" x="35.96" y="99.809232" style="fill: var(--fg-color); stroke: var(--fg-color); stroke-width: 0.8"/>
      </g>
     </g>
     <g id="text_4">
      <text style="font-size: 7px; font-family: 'DejaVu Sans', 'Bitstream Vera Sans', 'Computer Modern Sans Serif', 'Lucida Grande', 'Verdana', 'Geneva', 'Lucid', 'Arial', 'Helvetica', 'Avant Garde', sans-serif; text-anchor: end; fill: var(--fg-color)" x="28.96" y="102.468411" transform="rotate(-0 28.96 102.468411)">0</text>
     </g>
    </g>
    <g id="ytick_2">
     <g id="line2d_9">
      <path d="M 35.96 82.386099 
L 211 82.386099 
" clip-path="url(#p7636b56110)" style="fill: none; stroke-dasharray: 2.96,1.28; stroke-dashoffset: 0; stroke: var(--grid-color); stroke-width: 0.8"/>
     </g>
     <g id="line2d_10">
      <g>
       <use xlink:href="#m3b9c74d3dd" x="35.96" y="82.386099" style="fill: var(--fg-color); stroke: var(--fg-color); stroke-width: 0.8"/>
      </g>
     </g>
     <g id="text_5">
      <text style="font-size: 7px; font-family: 'DejaVu Sans', 'Bitstream Vera Sans', 'Computer Modern Sans Serif', 'Lucida Grande', 'Verdana', 'Geneva', 'Lucid', 'Arial', 'Helvetica', 'Avant Garde', sans-serif; text-anchor: end; fill: var(--fg-color)" x="28.96" y="85.045279" transform="rotate(-0 28.96 85.045279)">50</text>
     </g>
    </g>
    <g id="ytick_3">
     <g id="line2d_11">
      <path d="M 35.96 64.962966 
L 211 64.962966 
" clip-path="url(#p7636b56110)" style="fill: none; stroke-dasharray: 2.96,1.28; stroke-dashoffset: 0; stroke: var(--grid-color); stroke-width: 0.8"/>
     </g>
     <g id="line2d_12">
      <g>
       <use xlink:href="#m3b9c74d3dd" x="35.96" y="64.962966" style="fill: var(--fg-color); stroke: var(--fg-color); stroke-width: 0.8"/>
      </g>
     </g>
     <g id="text_6">
      <text style="font-size: 7px; font-family: 'DejaVu Sans', 'Bitstream Vera Sans', 'Computer Modern Sans Serif', 'Lucida Grande', 'Verdana', 'Geneva', 'Lucid', 'Arial', 'Helvetica', 'Avant Garde', sans-serif; text-anchor: end; fill: var(--fg-color)" x="28.96" y="67.622146" transform="rotate(-0 28.96 67.622146)">100</text>
     </g>
    </g>
    <g id="ytick_4">
     <g id="line2d_13">
      <path d="M 35.96 47.539833 
L 211 47.539833 
" clip-path="url(#p7636b56110)" style="fill: none; stroke-dasharray: 2.96,1.28; stroke-dashoffset: 0; stroke: var(--grid-color); stroke-width: 0.8"/>
     </g>
     <g id="line2d_14">
      <g>
       <use xlink:href="#m3b9c74d3dd" x="35.96" y="47.539833" style="fill: var(--fg-color); stroke: var(--fg-color); stroke-width: 0.8"/>
      </g>
     </g>
     <g id="text_7">
      <text style="font-size: 7px; font-family: 'DejaVu Sans', 'Bitstream Vera Sans', 'Computer Modern Sans Serif', 'Lucida Grande', 'Verdana', 'Geneva', 'Lucid', 'Arial', 'Helvetica', 'Avant Garde', sans-serif; text-anchor: end; fill: var(--fg-color)" x="28.96" y="50.199013" transform="rotate(-0 28.96 50.199013)">150</text>
     </g>
    </g>
    <g id="ytick_5">
     <g id="line2d_15">
      <path d="M 35.96 30.1167 
L 211 30.1167 
" clip-path="url(#p7636b56110)" style="fill: none; stroke-dasharray: 2.96,1.28; stroke-dashoffset: 0; stroke: var(--grid-color); stroke-width: 0.8"/>
     </g>
     <g id="line2d_16">
      <g>
       <use xlink:href="#m3b9c74d3dd" x="35.96" y="30.1167" style="fill: var(--fg-color); stroke: var(--fg-color); stroke-width: 0.8"/>
      </g>
     </g>
     <g id="text_8">
      <text style="font-size: 7px; font-family: 'DejaVu Sans', 'Bitstream Vera Sans', 'Computer Modern Sans Serif', 'Lucida Grande', 'Verdana', 'Geneva', 'Lucid', 'Arial', 'Helvetica', 'Avant Garde', sans-serif; text-anchor: end; fill: var(--fg-color)" x="28.96" y="32.77588" transform="rotate(-0 28.96 32.77588)">200</text>
     </g>
    </g>
    <g id="ytick_6">
     <g id="line2d_17">
      <path d="M 35.96 12.693568 
L 211 12.693568 
" clip-path="url(#p7636b56110)" style="fill: none; stroke-dasharray: 2.96,1.28; stroke-dashoffset: 0; stroke: var(--grid-color); stroke-width: 0.8"/>
     </g>
     <g id="line2d_18">
      <g>
       <use xlink:href="#m3b9c74d3dd" x="35.96" y="12.693568" style="fill: var(--fg-color); stroke: var(--fg-color); stroke-width: 0.8"/>
      </g>
     </g>
     <g id="text_9">
      <text style="font-size: 7px; font-family: 'DejaVu Sans', 'Bitstream Vera Sans', 'Computer Modern Sans Serif', 'Lucida Grande', 'Verdana', 'Geneva', 'Lucid', 'Arial', 'Helvetica', 'Avant Garde', sans-serif; text-anchor: end; fill: var(--fg-color)" x="28.96" y="15.352747" transform="rotate(-0 28.96 15.352747)">250</text>
     </g>
    </g>
    <g id="text_10">
     <text style="font-size: 7px; font-family: 'DejaVu Sans', 'Bitstream Vera Sans', 'Computer Modern Sans Serif', 'Lucida Grande', 'Verdana', 'Geneva', 'Lucid', 'Arial', 'Helvetica', 'Avant Garde', sans-serif; text-anchor: middle; fill: var(--fg-color)" x="9.917109" y="54.2" transform="rotate(-90 9.917109 54.2)">ms</text>
    </g>
   </g>
   <g id="line2d_19">
    <path d="M 43.916364 18.296499 
L 44.468628 30.145623 
L 45.3595 33.891596 
L 46.250371 24.044042 
L 47.141245 33.282135 
L 48.032112 26.960674 
L 48.922979 30.149456 
L 49.81384 24.120703 
L 50.704717 31.143968 
L 51.595589 28.400522 
L 53.377327 25.010329 
L 54.268192 27.054759 
L 55.159063 29.970695 
L 56.049934 24.80613 
L 56.940797 29.29851 
L 57.831669 28.893945 
L 58.722538 28.660475 
L 59.613407 36.048929 
L 60.504275 29.432668 
L 61.395144 27.60533 
L 62.286016 27.238399 
L 63.176879 33.377962 
L 64.067746 29.815977 
L 64.958622 32.205037 
L 66.740361 22.535547 
L 67.631226 21.354258 
L 68.522078 29.322902 
L 69.412965 32.440598 
L 70.30383 29.726771 
L 71.194705 30.624062 
L 72.085571 26.123667 
L 72.976442 28.591131 
L 73.867306 27.826604 
L 74.758184 21.206859 
L 75.649039 29.149368 
L 76.539914 24.88767 
L 77.430784 33.612478 
L 78.321655 15.92521 
L 79.212509 27.379526 
L 80.103391 22.912235 
L 80.994245 23.890718 
L 81.885129 24.242317 
L 82.775998 30.773901 
L 83.666869 24.454531 
L 84.557735 24.335008 
L 85.44861 28.372296 
L 94.53997 16.259386 
L 95.248438 17.582499 
L 96.139324 11.886877 
L 97.030192 21.482493 
L 97.921065 32.518654 
L 98.811931 29.562645 
L 99.702798 22.404873 
L 101.484533 28.18343 
L 102.375401 20.282387 
L 103.266272 28.275075 
L 104.157138 22.961368 
L 105.048009 29.127066 
L 105.93888 32.379617 
L 106.829748 25.706557 
L 107.720614 25.935149 
L 108.611487 24.348598 
L 109.502352 21.99543 
L 110.393224 23.87678 
L 111.284094 31.790367 
L 112.17496 25.948042 
L 113.065834 25.088036 
L 113.956695 23.738788 
L 114.847564 34.793418 
L 115.738441 27.037684 
L 116.629309 30.974964 
L 117.520178 30.095793 
L 118.41104 24.589037 
L 119.301913 20.777553 
L 120.192782 28.485547 
L 121.083649 24.600885 
L 121.97452 31.902223 
L 125.537994 22.275594 
L 126.428869 25.307916 
L 127.319734 24.293193 
L 128.210603 26.348774 
L 129.101474 20.908575 
L 129.992342 23.864235 
L 130.883214 20.827383 
L 131.774065 27.624496 
L 132.664946 26.237963 
L 133.55582 23.999438 
L 134.446686 33.955365 
L 135.337558 29.906926 
L 136.228424 23.386493 
L 137.119294 18.558543 
L 138.010159 29.769632 
L 138.901032 22.433447 
L 139.791912 28.114782 
L 140.68277 28.862932 
L 141.57364 14.404868 
L 142.464507 18.772847 
L 143.355376 16.538156 
L 144.246246 18.009017 
L 145.137113 19.784783 
L 146.027984 27.826255 
L 146.918849 19.146399 
L 173.644977 19.146399 
L 181.959197 16.500174 
L 182.553652 11.21295 
L 183.444521 9.472727 
L 184.335387 22.913629 
L 185.226256 27.670144 
L 187.007996 21.126364 
L 187.898864 18.817102 
L 188.789731 10.931043 
L 189.680603 22.535895 
L 190.571474 27.234914 
L 191.462343 13.803421 
L 192.353215 20.985237 
L 193.244077 29.305828 
L 194.134949 23.353389 
L 195.025817 26.670056 
L 196.807557 21.689828 
L 197.698426 25.938285 
L 198.589295 20.669181 
L 199.480162 26.090563 
L 200.371032 30.438331 
L 201.261898 22.445644 
L 202.152766 19.685471 
L 203.043636 26.986809 
L 203.043636 26.986809 
" clip-path="url(#p7636b56110)" style="fill: none; stroke: #339af0; stroke-width: 1.2; stroke-linecap: square"/>
   </g>
   <g id="line2d_20">
    <path d="M 43.916364 98.823082 
L 44.468628 98.56522 
L 45.3595 98.864549 
L 46.250371 98.122324 
L 47.141245 98.841899 
L 48.032112 98.856186 
L 48.922979 98.694848 
L 50.704717 98.90741 
L 51.595589 98.822037 
L 52.486458 98.911592 
L 53.377327 98.297252 
L 54.268192 98.872564 
L 55.159063 98.89382 
L 56.049934 98.773601 
L 57.831669 98.872216 
L 58.722538 98.818204 
L 59.613407 98.927273 
L 62.286016 98.81681 
L 64.958622 98.875352 
L 76.539914 98.898699 
L 77.430784 98.569053 
L 78.321655 98.873958 
L 82.775998 98.870473 
L 83.666869 98.2638 
L 84.557735 98.871867 
L 85.44861 98.888942 
L 94.53997 98.863504 
L 95.248438 98.244634 
L 96.139324 98.873609 
L 97.921065 98.918213 
L 98.811931 98.887548 
L 99.702798 98.48368 
L 100.593666 98.790675 
L 101.484533 98.84852 
L 102.375401 98.788236 
L 103.266272 98.896956 
L 104.157138 98.701469 
L 105.048009 98.908804 
L 107.720614 98.857232 
L 108.611487 98.65373 
L 109.502352 98.729694 
L 110.393224 98.088872 
L 111.284094 98.906365 
L 112.17496 98.81228 
L 114.847564 98.887896 
L 116.629309 98.871519 
L 118.41104 98.842596 
L 119.301913 98.398655 
L 120.192782 98.817159 
L 121.97452 98.812629 
L 125.537994 98.76245 
L 126.428869 98.251604 
L 127.319734 98.67847 
L 128.210603 98.397261 
L 129.101474 98.755132 
L 129.992342 98.77604 
L 131.774065 98.219894 
L 132.664946 98.672198 
L 134.446686 98.833885 
L 138.010159 98.770465 
L 138.901032 98.225469 
L 139.791912 98.813674 
L 141.57364 98.72168 
L 142.464507 98.690667 
L 143.355376 98.781267 
L 144.246246 98.645018 
L 146.027984 98.79416 
L 146.918849 98.737361 
L 184.335387 98.834233 
L 186.117131 98.887548 
L 189.680603 98.817159 
L 191.462343 98.820643 
L 192.353215 98.84399 
L 193.244077 98.24568 
L 194.134949 98.811583 
L 195.025817 98.661744 
L 195.916688 98.834582 
L 198.589295 98.794508 
L 200.371032 98.871519 
L 202.152766 98.837369 
L 203.043636 98.844687 
L 203.043636 98.844687 
" clip-path="url(#p7636b56110)" style="fill: none; stroke: #ff6b6b; stroke-width: 1.2; stroke-linecap: square"/>
   </g>
   <g id="patch_3">
    <path d="M 35.96 103.4 
L 35.96 5 
" style="fill: none; stroke: var(--fg-color); stroke-width: 0.8; stroke-linejoin: miter; stroke-linecap: square"/>
   </g>
   <g id="patch_4">
    <path d="M 35.96 103.4 
L 211 103.4 
" style="fill: none; stroke: var(--fg-color); stroke-width: 0.8; stroke-linejoin: miter; stroke-linecap: square"/>
   </g>
  </g>
 </g>
 <defs>
  <clipPath id="p7636b56110">
   <rect x="35.96" y="5" width="175.04" height="98.4"/>
  </clipPath>
 </defs>
</svg>
