<?xml version="1.0" encoding="utf-8" standalone="no"?>
<!DOCTYPE svg PUBLIC "-//W3C//DTD SVG 1.1//EN"
  "http://www.w3.org/Graphics/SVG/1.1/DTD/svg11.dtd">
<svg xmlns:xlink="http://www.w3.org/1999/xlink" width="216pt" height="122.4pt" viewBox="0 0 216 122.4" xmlns="http://www.w3.org/2000/svg" version="1.1">
  <style>
    :root {
      --fg-color: #212529;
      --grid-color: rgba(33, 37, 41, 0.1);
    }
    @media (prefers-color-scheme: dark) {
      :root {
        --fg-color: #dee2e6;
        --grid-color: rgba(248, 249, 250, 0.15);
      }
    }
  </style>

 <metadata>
  <rdf:RDF xmlns:dc="http://purl.org/dc/elements/1.1/" xmlns:cc="http://creativecommons.org/ns#" xmlns:rdf="http://www.w3.org/1999/02/22-rdf-syntax-ns#">
   <cc:Work>
    <dc:type rdf:resource="http://purl.org/dc/dcmitype/StillImage"/>
    <dc:date>2026-06-30T15:37:42.788312</dc:date>
    <dc:format>image/svg+xml</dc:format>
    <dc:creator>
     <cc:Agent>
      <dc:title>Matplotlib v3.11.0, https://matplotlib.org/</dc:title>
     </cc:Agent>
    </dc:creator>
   </cc:Work>
  </rdf:RDF>
 </metadata>
 <defs>
  <style type="text/css">*{stroke-linejoin: round; stroke-linecap: butt}</style>
 </defs>
 <g id="figure_1">
  <g id="patch_1">
   <path d="M 0 122.4 
L 216 122.4 
L 216 0 
L 0 0 
L 0 122.4 
z
" style="fill: none; opacity: 0"/>
  </g>
  <g id="axes_1">
   <g id="patch_2">
    <path d="M 35.96 103.4 
L 211 103.4 
L 211 5 
L 35.96 5 
L 35.96 103.4 
z
" style="fill: none; opacity: 0"/>
   </g>
   <g id="matplotlib.axis_1">
    <g id="xtick_1">
     <g id="line2d_1">
      <path d="M 69.784035 103.4 
L 69.784035 5 
" clip-path="url(#p75021111b4)" style="fill: none; stroke-dasharray: 2.96,1.28; stroke-dashoffset: 0; stroke: var(--grid-color); stroke-width: 0.8"/>
     </g>
     <g id="line2d_2">
      <defs>
       <path id="mfc3e375013" d="M 0 0 
L 0 3.5 
" style="stroke: var(--fg-color); stroke-width: 0.8"/>
      </defs>
      <g>
       <use xlink:href="#mfc3e375013" x="69.784035" y="103.4" style="fill: var(--fg-color); stroke: var(--fg-color); stroke-width: 0.8"/>
      </g>
     </g>
     <g id="text_1">
      <text style="font-size: 7px; font-family: 'DejaVu Sans', 'Bitstream Vera Sans', 'Computer Modern Sans Serif', 'Lucida Grande', 'Verdana', 'Geneva', 'Lucid', 'Arial', 'Helvetica', 'Avant Garde', sans-serif; text-anchor: middle; fill: var(--fg-color)" x="69.784035" y="115.718359" transform="rotate(-0 69.784035 115.718359)">02/2026</text>
     </g>
    </g>
    <g id="xtick_2">
     <g id="line2d_3">
      <path d="M 122.345302 103.4 
L 122.345302 5 
" clip-path="url(#p75021111b4)" style="fill: none; stroke-dasharray: 2.96,1.28; stroke-dashoffset: 0; stroke: var(--grid-color); stroke-width: 0.8"/>
     </g>
     <g id="line2d_4">
      <g>
       <use xlink:href="#mfc3e375013" x="122.345302" y="103.4" style="fill: var(--fg-color); stroke: var(--fg-color); stroke-width: 0.8"/>
      </g>
     </g>
     <g id="text_2">
      <text style="font-size: 7px; font-family: 'DejaVu Sans', 'Bitstream Vera Sans', 'Computer Modern Sans Serif', 'Lucida Grande', 'Verdana', 'Geneva', 'Lucid', 'Arial', 'Helvetica', 'Avant Garde', sans-serif; text-anchor: middle; fill: var(--fg-color)" x="122.345302" y="115.718359" transform="rotate(-0 122.345302 115.718359)">04/2026</text>
     </g>
    </g>
    <g id="xtick_3">
     <g id="line2d_5">
      <path d="M 176.688307 103.4 
L 176.688307 5 
" clip-path="url(#p75021111b4)" style="fill: none; stroke-dasharray: 2.96,1.28; stroke-dashoffset: 0; stroke: var(--grid-color); stroke-width: 0.8"/>
     </g>
     <g id="line2d_6">
      <g>
       <use xlink:href="#mfc3e375013" x="176.688307" y="103.4" style="fill: var(--fg-color); stroke: var(--fg-color); stroke-width: 0.8"/>
      </g>
     </g>
     <g id="text_3">
      <text style="font-size: 7px; font-family: 'DejaVu Sans', 'Bitstream Vera Sans', 'Computer Modern Sans Serif', 'Lucida Grande', 'Verdana', 'Geneva', 'Lucid', 'Arial', 'Helvetica', 'Avant Garde', sans-serif; text-anchor: middle; fill: var(--fg-color)" x="176.688307" y="115.718359" transform="rotate(-0 176.688307 115.718359)">06/2026</text>
     </g>
    </g>
   </g>
   <g id="matplotlib.axis_2">
    <g id="ytick_1">
     <g id="line2d_7">
      <path d="M 35.96 100.282957 
L 211 100.282957 
" clip-path="url(#p75021111b4)" style="fill: none; stroke-dasharray: 2.96,1.28; stroke-dashoffset: 0; stroke: var(--grid-color); stroke-width: 0.8"/>
     </g>
     <g id="line2d_8">
      <defs>
       <path id="m01d75bcddb" d="M 0 0 
L -3.5 0 
" style="stroke: var(--fg-color); stroke-width: 0.8"/>
      </defs>
      <g>
       <use xlink:href="#m01d75bcddb" x="35.96" y="100.282957" style="fill: var(--fg-color); stroke: var(--fg-color); stroke-width: 0.8"/>
      </g>
     </g>
     <g id="text_4">
      <text style="font-size: 7px; font-family: 'DejaVu Sans', 'Bitstream Vera Sans', 'Computer Modern Sans Serif', 'Lucida Grande', 'Verdana', 'Geneva', 'Lucid', 'Arial', 'Helvetica', 'Avant Garde', sans-serif; text-anchor: end; fill: var(--fg-color)" x="28.96" y="102.942137" transform="rotate(-0 28.96 102.942137)">0</text>
     </g>
    </g>
    <g id="ytick_2">
     <g id="line2d_9">
      <path d="M 35.96 84.990406 
L 211 84.990406 
" clip-path="url(#p75021111b4)" style="fill: none; stroke-dasharray: 2.96,1.28; stroke-dashoffset: 0; stroke: var(--grid-color); stroke-width: 0.8"/>
     </g>
     <g id="line2d_10">
      <g>
       <use xlink:href="#m01d75bcddb" x="35.96" y="84.990406" style="fill: var(--fg-color); stroke: var(--fg-color); stroke-width: 0.8"/>
      </g>
     </g>
     <g id="text_5">
      <text style="font-size: 7px; font-family: 'DejaVu Sans', 'Bitstream Vera Sans', 'Computer Modern Sans Serif', 'Lucida Grande', 'Verdana', 'Geneva', 'Lucid', 'Arial', 'Helvetica', 'Avant Garde', sans-serif; text-anchor: end; fill: var(--fg-color)" x="28.96" y="87.649585" transform="rotate(-0 28.96 87.649585)">20</text>
     </g>
    </g>
    <g id="ytick_3">
     <g id="line2d_11">
      <path d="M 35.96 69.697854 
L 211 69.697854 
" clip-path="url(#p75021111b4)" style="fill: none; stroke-dasharray: 2.96,1.28; stroke-dashoffset: 0; stroke: var(--grid-color); stroke-width: 0.8"/>
     </g>
     <g id="line2d_12">
      <g>
       <use xlink:href="#m01d75bcddb" x="35.96" y="69.697854" style="fill: var(--fg-color); stroke: var(--fg-color); stroke-width: 0.8"/>
      </g>
     </g>
     <g id="text_6">
      <text style="font-size: 7px; font-family: 'DejaVu Sans', 'Bitstream Vera Sans', 'Computer Modern Sans Serif', 'Lucida Grande', 'Verdana', 'Geneva', 'Lucid', 'Arial', 'Helvetica', 'Avant Garde', sans-serif; text-anchor: end; fill: var(--fg-color)" x="28.96" y="72.357034" transform="rotate(-0 28.96 72.357034)">40</text>
     </g>
    </g>
    <g id="ytick_4">
     <g id="line2d_13">
      <path d="M 35.96 54.405303 
L 211 54.405303 
" clip-path="url(#p75021111b4)" style="fill: none; stroke-dasharray: 2.96,1.28; stroke-dashoffset: 0; stroke: var(--grid-color); stroke-width: 0.8"/>
     </g>
     <g id="line2d_14">
      <g>
       <use xlink:href="#m01d75bcddb" x="35.96" y="54.405303" style="fill: var(--fg-color); stroke: var(--fg-color); stroke-width: 0.8"/>
      </g>
     </g>
     <g id="text_7">
      <text style="font-size: 7px; font-family: 'DejaVu Sans', 'Bitstream Vera Sans', 'Computer Modern Sans Serif', 'Lucida Grande', 'Verdana', 'Geneva', 'Lucid', 'Arial', 'Helvetica', 'Avant Garde', sans-serif; text-anchor: end; fill: var(--fg-color)" x="28.96" y="57.064482" transform="rotate(-0 28.96 57.064482)">60</text>
     </g>
    </g>
    <g id="ytick_5">
     <g id="line2d_15">
      <path d="M 35.96 39.112751 
L 211 39.112751 
" clip-path="url(#p75021111b4)" style="fill: none; stroke-dasharray: 2.96,1.28; stroke-dashoffset: 0; stroke: var(--grid-color); stroke-width: 0.8"/>
     </g>
     <g id="line2d_16">
      <g>
       <use xlink:href="#m01d75bcddb" x="35.96" y="39.112751" style="fill: var(--fg-color); stroke: var(--fg-color); stroke-width: 0.8"/>
      </g>
     </g>
     <g id="text_8">
      <text style="font-size: 7px; font-family: 'DejaVu Sans', 'Bitstream Vera Sans', 'Computer Modern Sans Serif', 'Lucida Grande', 'Verdana', 'Geneva', 'Lucid', 'Arial', 'Helvetica', 'Avant Garde', sans-serif; text-anchor: end; fill: var(--fg-color)" x="28.96" y="41.771931" transform="rotate(-0 28.96 41.771931)">80</text>
     </g>
    </g>
    <g id="ytick_6">
     <g id="line2d_17">
      <path d="M 35.96 23.820199 
L 211 23.820199 
" clip-path="url(#p75021111b4)" style="fill: none; stroke-dasharray: 2.96,1.28; stroke-dashoffset: 0; stroke: var(--grid-color); stroke-width: 0.8"/>
     </g>
     <g id="line2d_18">
      <g>
       <use xlink:href="#m01d75bcddb" x="35.96" y="23.820199" style="fill: var(--fg-color); stroke: var(--fg-color); stroke-width: 0.8"/>
      </g>
     </g>
     <g id="text_9">
      <text style="font-size: 7px; font-family: 'DejaVu Sans', 'Bitstream Vera Sans', 'Computer Modern Sans Serif', 'Lucida Grande', 'Verdana', 'Geneva', 'Lucid', 'Arial', 'Helvetica', 'Avant Garde', sans-serif; text-anchor: end; fill: var(--fg-color)" x="28.96" y="26.479379" transform="rotate(-0 28.96 26.479379)">100</text>
     </g>
    </g>
    <g id="ytick_7">
     <g id="line2d_19">
      <path d="M 35.96 8.527648 
L 211 8.527648 
" clip-path="url(#p75021111b4)" style="fill: none; stroke-dasharray: 2.96,1.28; stroke-dashoffset: 0; stroke: var(--grid-color); stroke-width: 0.8"/>
     </g>
     <g id="line2d_20">
      <g>
       <use xlink:href="#m01d75bcddb" x="35.96" y="8.527648" style="fill: var(--fg-color); stroke: var(--fg-color); stroke-width: 0.8"/>
      </g>
     </g>
     <g id="text_10">
      <text style="font-size: 7px; font-family: 'DejaVu Sans', 'Bitstream Vera Sans', 'Computer Modern Sans Serif', 'Lucida Grande', 'Verdana', 'Geneva', 'Lucid', 'Arial', 'Helvetica', 'Avant Garde', sans-serif; text-anchor: end; fill: var(--fg-color)" x="28.96" y="11.186827" transform="rotate(-0 28.96 11.186827)">120</text>
     </g>
    </g>
    <g id="text_11">
     <text style="font-size: 7px; font-family: 'DejaVu Sans', 'Bitstream Vera Sans', 'Computer Modern Sans Serif', 'Lucida Grande', 'Verdana', 'Geneva', 'Lucid', 'Arial', 'Helvetica', 'Avant Garde', sans-serif; text-anchor: middle; fill: var(--fg-color)" x="9.917109" y="54.2" transform="rotate(-90 9.917109 54.2)">ms</text>
    </g>
   </g>
   <g id="line2d_21">
    <path d="M 43.916364 29.237586 
L 44.468628 32.148523 
L 45.3595 35.679573 
L 46.250371 29.789647 
L 47.141245 21.267108 
L 48.032112 32.658529 
L 48.922979 28.74593 
L 49.81384 30.170431 
L 50.704717 36.283629 
L 52.486458 22.86365 
L 53.377327 23.455472 
L 55.159063 30.743137 
L 56.049934 25.864813 
L 56.940797 31.36478 
L 57.831669 34.846129 
L 58.722538 26.62103 
L 59.613407 22.732134 
L 60.504275 31.276083 
L 61.395144 32.232632 
L 62.286016 25.084893 
L 63.176879 33.705305 
L 64.067746 35.374487 
L 64.958622 32.375617 
L 65.84949 32.199753 
L 66.740361 31.614048 
L 67.631226 32.030006 
L 68.522078 33.041608 
L 69.412965 29.908929 
L 70.30383 29.642838 
L 71.194705 28.556302 
L 72.085571 27.940013 
L 72.976442 32.377911 
L 73.867306 31.940544 
L 75.649039 35.259028 
L 76.539914 30.8823 
L 77.430784 32.669234 
L 78.321655 24.141343 
L 79.212509 31.045165 
L 80.103391 13.749289 
L 80.994245 30.811189 
L 81.885129 34.062386 
L 82.775998 31.760857 
L 83.666869 33.589846 
L 84.557735 32.010125 
L 85.44861 23.965478 
L 94.53997 20.351849 
L 95.248438 19.635392 
L 96.139324 22.683198 
L 97.030192 21.650951 
L 97.921065 36.646062 
L 98.811931 34.794134 
L 99.702798 28.101349 
L 100.593666 37.542206 
L 101.484533 34.693968 
L 102.375401 29.648191 
L 103.266272 29.980039 
L 104.157138 29.641309 
L 105.048009 31.697393 
L 105.93888 29.395864 
L 106.829748 36.667472 
L 107.720614 30.117672 
L 108.611487 36.97944 
L 110.393224 23.200851 
L 111.284094 29.346927 
L 112.17496 26.674554 
L 113.065834 34.086854 
L 113.956695 32.950617 
L 114.847564 28.006535 
L 115.738441 34.515045 
L 116.629309 28.753576 
L 117.520178 9.472727 
L 118.41104 30.11079 
L 119.301913 29.882931 
L 120.192782 25.18353 
L 121.083649 27.524055 
L 121.97452 21.687653 
L 125.537994 30.64603 
L 126.428869 31.511588 
L 127.319734 26.856535 
L 128.210603 29.475385 
L 129.101474 27.90484 
L 129.992342 27.161622 
L 130.883214 21.58137 
L 131.774065 30.734726 
L 132.664946 26.112553 
L 133.55582 25.072659 
L 134.446686 31.932133 
L 135.337558 27.272493 
L 136.228424 13.907567 
L 137.119294 31.125451 
L 138.010159 26.070498 
L 138.901032 25.566609 
L 139.791912 29.77206 
L 140.68277 28.503543 
L 141.57364 27.96601 
L 142.464507 30.465578 
L 143.355376 22.592207 
L 144.246246 31.234793 
L 145.137113 28.632001 
L 146.027984 27.204441 
L 146.918849 17.714648 
L 173.644977 17.714648 
L 181.959197 29.29952 
L 182.553652 31.153742 
L 183.444521 21.452148 
L 184.335387 27.221263 
L 185.226256 20.474189 
L 186.117131 32.985025 
L 187.007996 27.070631 
L 187.898864 29.066309 
L 188.789731 32.494135 
L 189.680603 25.706535 
L 190.571474 29.554906 
L 191.462343 25.446562 
L 192.353215 28.213749 
L 193.244077 30.236954 
L 194.134949 26.428344 
L 195.025817 24.759162 
L 195.916688 20.171396 
L 196.807557 28.656469 
L 197.698426 21.206702 
L 198.589295 25.701183 
L 199.480162 26.298357 
L 200.371032 31.268436 
L 201.261898 33.576847 
L 202.152766 33.507266 
L 203.043636 30.405172 
L 203.043636 30.405172 
" clip-path="url(#p75021111b4)" style="fill: none; stroke: #339af0; stroke-width: 1.2; stroke-linecap: square"/>
   </g>
   <g id="line2d_22">
    <path d="M 43.916364 98.753702 
L 45.3595 98.867632 
L 46.250371 98.694061 
L 48.032112 98.832459 
L 48.922979 98.528902 
L 49.81384 98.778935 
L 50.704717 98.876807 
L 51.595589 98.720059 
L 54.268192 98.812579 
L 55.159063 98.831694 
L 56.049934 98.678004 
L 57.831669 98.878337 
L 58.722538 98.519726 
L 61.395144 98.62448 
L 62.286016 98.655065 
L 64.067746 98.910451 
L 64.958622 98.772053 
L 68.522078 98.85081 
L 69.412965 98.679533 
L 70.30383 98.805697 
L 72.085571 98.746056 
L 72.976442 98.905099 
L 74.758184 98.801109 
L 76.539914 98.861515 
L 85.44861 98.705531 
L 98.811931 98.863809 
L 99.702798 98.34845 
L 100.593666 98.850045 
L 101.484533 98.427971 
L 102.375401 98.725411 
L 103.266272 98.817166 
L 104.157138 98.256694 
L 105.048009 98.812579 
L 105.93888 98.807991 
L 106.829748 98.927273 
L 107.720614 98.600777 
L 108.611487 98.836282 
L 109.502352 98.834753 
L 110.393224 98.702472 
L 111.284094 98.817166 
L 113.065834 98.813343 
L 113.956695 98.889806 
L 114.847564 98.218463 
L 115.738441 98.87222 
L 117.520178 98.518197 
L 118.41104 98.826342 
L 121.97452 98.652771 
L 126.428869 98.813343 
L 127.319734 98.691003 
L 129.101474 98.668829 
L 129.992342 98.421089 
L 130.883214 98.671122 
L 132.664946 98.660418 
L 133.55582 98.322452 
L 134.446686 98.784287 
L 136.228424 98.693297 
L 137.119294 98.825577 
L 138.901032 98.755232 
L 141.57364 98.744527 
L 143.355376 98.667299 
L 144.246246 98.812579 
L 146.027984 98.73841 
L 146.918849 98.632126 
L 181.959197 98.705531 
L 182.553652 98.818696 
L 183.444521 98.631362 
L 184.335387 98.765172 
L 185.226256 98.000544 
L 186.117131 98.797286 
L 187.007996 98.717 
L 188.789731 98.846222 
L 189.680603 98.674946 
L 190.571474 98.747585 
L 191.462343 98.683357 
L 192.353215 98.767466 
L 193.244077 97.940903 
L 194.134949 98.570192 
L 196.807557 98.75829 
L 197.698426 98.648184 
L 200.371032 98.80952 
L 201.261898 98.743762 
L 202.152766 98.823283 
L 203.043636 98.767466 
L 203.043636 98.767466 
" clip-path="url(#p75021111b4)" style="fill: none; stroke: #ff6b6b; stroke-width: 1.2; stroke-linecap: square"/>
   </g>
   <g id="patch_3">
    <path d="M 35.96 103.4 
L 35.96 5 
" style="fill: none; stroke: var(--fg-color); stroke-width: 0.8; stroke-linejoin: miter; stroke-linecap: square"/>
   </g>
   <g id="patch_4">
    <path d="M 35.96 103.4 
L 211 103.4 
" style="fill: none; stroke: var(--fg-color); stroke-width: 0.8; stroke-linejoin: miter; stroke-linecap: square"/>
   </g>
  </g>
 </g>
 <defs>
  <clipPath id="p75021111b4">
   <rect x="35.96" y="5" width="175.04" height="98.4"/>
  </clipPath>
 </defs>
</svg>
