<?xml version="1.0" encoding="utf-8" standalone="no"?>
<!DOCTYPE svg PUBLIC "-//W3C//DTD SVG 1.1//EN"
  "http://www.w3.org/Graphics/SVG/1.1/DTD/svg11.dtd">
<svg xmlns:xlink="http://www.w3.org/1999/xlink" width="216pt" height="122.4pt" viewBox="0 0 216 122.4" xmlns="http://www.w3.org/2000/svg" version="1.1">
  <style>
    :root {
      --fg-color: #212529;
      --grid-color: rgba(33, 37, 41, 0.1);
    }
    @media (prefers-color-scheme: dark) {
      :root {
        --fg-color: #dee2e6;
        --grid-color: rgba(248, 249, 250, 0.15);
      }
    }
  </style>

 <metadata>
  <rdf:RDF xmlns:dc="http://purl.org/dc/elements/1.1/" xmlns:cc="http://creativecommons.org/ns#" xmlns:rdf="http://www.w3.org/1999/02/22-rdf-syntax-ns#">
   <cc:Work>
    <dc:type rdf:resource="http://purl.org/dc/dcmitype/StillImage"/>
    <dc:date>2026-06-30T04:48:14.356791</dc:date>
    <dc:format>image/svg+xml</dc:format>
    <dc:creator>
     <cc:Agent>
      <dc:title>Matplotlib v3.11.0, https://matplotlib.org/</dc:title>
     </cc:Agent>
    </dc:creator>
   </cc:Work>
  </rdf:RDF>
 </metadata>
 <defs>
  <style type="text/css">*{stroke-linejoin: round; stroke-linecap: butt}</style>
 </defs>
 <g id="figure_1">
  <g id="patch_1">
   <path d="M 0 122.4 
L 216 122.4 
L 216 0 
L 0 0 
L 0 122.4 
z
" style="fill: none; opacity: 0"/>
  </g>
  <g id="axes_1">
   <g id="patch_2">
    <path d="M 31.64 103.4 
L 211 103.4 
L 211 5 
L 31.64 5 
L 31.64 103.4 
z
" style="fill: none; opacity: 0"/>
   </g>
   <g id="matplotlib.axis_1">
    <g id="xtick_1">
     <g id="line2d_1">
      <path d="M 68.627238 103.4 
L 68.627238 5 
" clip-path="url(#p7922d60f11)" style="fill: none; stroke-dasharray: 2.96,1.28; stroke-dashoffset: 0; stroke: var(--grid-color); stroke-width: 0.8"/>
     </g>
     <g id="line2d_2">
      <defs>
       <path id="m4f32b51d92" d="M 0 0 
L 0 3.5 
" style="stroke: var(--fg-color); stroke-width: 0.8"/>
      </defs>
      <g>
       <use xlink:href="#m4f32b51d92" x="68.627238" y="103.4" style="fill: var(--fg-color); stroke: var(--fg-color); stroke-width: 0.8"/>
      </g>
     </g>
     <g id="text_1">
      <text style="font-size: 7px; font-family: 'DejaVu Sans', 'Bitstream Vera Sans', 'Computer Modern Sans Serif', 'Lucida Grande', 'Verdana', 'Geneva', 'Lucid', 'Arial', 'Helvetica', 'Avant Garde', sans-serif; text-anchor: middle; fill: var(--fg-color)" x="68.627238" y="115.718359" transform="rotate(-0 68.627238 115.718359)">02/2026</text>
     </g>
    </g>
    <g id="xtick_2">
     <g id="line2d_3">
      <path d="M 124.558632 103.4 
L 124.558632 5 
" clip-path="url(#p7922d60f11)" style="fill: none; stroke-dasharray: 2.96,1.28; stroke-dashoffset: 0; stroke: var(--grid-color); stroke-width: 0.8"/>
     </g>
     <g id="line2d_4">
      <g>
       <use xlink:href="#m4f32b51d92" x="124.558632" y="103.4" style="fill: var(--fg-color); stroke: var(--fg-color); stroke-width: 0.8"/>
      </g>
     </g>
     <g id="text_2">
      <text style="font-size: 7px; font-family: 'DejaVu Sans', 'Bitstream Vera Sans', 'Computer Modern Sans Serif', 'Lucida Grande', 'Verdana', 'Geneva', 'Lucid', 'Arial', 'Helvetica', 'Avant Garde', sans-serif; text-anchor: middle; fill: var(--fg-color)" x="124.558632" y="115.718359" transform="rotate(-0 124.558632 115.718359)">04/2026</text>
     </g>
    </g>
    <g id="xtick_3">
     <g id="line2d_5">
      <path d="M 182.386006 103.4 
L 182.386006 5 
" clip-path="url(#p7922d60f11)" style="fill: none; stroke-dasharray: 2.96,1.28; stroke-dashoffset: 0; stroke: var(--grid-color); stroke-width: 0.8"/>
     </g>
     <g id="line2d_6">
      <g>
       <use xlink:href="#m4f32b51d92" x="182.386006" y="103.4" style="fill: var(--fg-color); stroke: var(--fg-color); stroke-width: 0.8"/>
      </g>
     </g>
     <g id="text_3">
      <text style="font-size: 7px; font-family: 'DejaVu Sans', 'Bitstream Vera Sans', 'Computer Modern Sans Serif', 'Lucida Grande', 'Verdana', 'Geneva', 'Lucid', 'Arial', 'Helvetica', 'Avant Garde', sans-serif; text-anchor: middle; fill: var(--fg-color)" x="182.386006" y="115.718359" transform="rotate(-0 182.386006 115.718359)">06/2026</text>
     </g>
    </g>
   </g>
   <g id="matplotlib.axis_2">
    <g id="ytick_1">
     <g id="line2d_7">
      <path d="M 31.64 100.459955 
L 211 100.459955 
" clip-path="url(#p7922d60f11)" style="fill: none; stroke-dasharray: 2.96,1.28; stroke-dashoffset: 0; stroke: var(--grid-color); stroke-width: 0.8"/>
     </g>
     <g id="line2d_8">
      <defs>
       <path id="m6ab49fef7b" d="M 0 0 
L -3.5 0 
" style="stroke: var(--fg-color); stroke-width: 0.8"/>
      </defs>
      <g>
       <use xlink:href="#m6ab49fef7b" x="31.64" y="100.459955" style="fill: var(--fg-color); stroke: var(--fg-color); stroke-width: 0.8"/>
      </g>
     </g>
     <g id="text_4">
      <text style="font-size: 7px; font-family: 'DejaVu Sans', 'Bitstream Vera Sans', 'Computer Modern Sans Serif', 'Lucida Grande', 'Verdana', 'Geneva', 'Lucid', 'Arial', 'Helvetica', 'Avant Garde', sans-serif; text-anchor: end; fill: var(--fg-color)" x="24.64" y="103.119135" transform="rotate(-0 24.64 103.119135)">0</text>
     </g>
    </g>
    <g id="ytick_2">
     <g id="line2d_9">
      <path d="M 31.64 74.70059 
L 211 74.70059 
" clip-path="url(#p7922d60f11)" style="fill: none; stroke-dasharray: 2.96,1.28; stroke-dashoffset: 0; stroke: var(--grid-color); stroke-width: 0.8"/>
     </g>
     <g id="line2d_10">
      <g>
       <use xlink:href="#m6ab49fef7b" x="31.64" y="74.70059" style="fill: var(--fg-color); stroke: var(--fg-color); stroke-width: 0.8"/>
      </g>
     </g>
     <g id="text_5">
      <text style="font-size: 7px; font-family: 'DejaVu Sans', 'Bitstream Vera Sans', 'Computer Modern Sans Serif', 'Lucida Grande', 'Verdana', 'Geneva', 'Lucid', 'Arial', 'Helvetica', 'Avant Garde', sans-serif; text-anchor: end; fill: var(--fg-color)" x="24.64" y="77.35977" transform="rotate(-0 24.64 77.35977)">20</text>
     </g>
    </g>
    <g id="ytick_3">
     <g id="line2d_11">
      <path d="M 31.64 48.941226 
L 211 48.941226 
" clip-path="url(#p7922d60f11)" style="fill: none; stroke-dasharray: 2.96,1.28; stroke-dashoffset: 0; stroke: var(--grid-color); stroke-width: 0.8"/>
     </g>
     <g id="line2d_12">
      <g>
       <use xlink:href="#m6ab49fef7b" x="31.64" y="48.941226" style="fill: var(--fg-color); stroke: var(--fg-color); stroke-width: 0.8"/>
      </g>
     </g>
     <g id="text_6">
      <text style="font-size: 7px; font-family: 'DejaVu Sans', 'Bitstream Vera Sans', 'Computer Modern Sans Serif', 'Lucida Grande', 'Verdana', 'Geneva', 'Lucid', 'Arial', 'Helvetica', 'Avant Garde', sans-serif; text-anchor: end; fill: var(--fg-color)" x="24.64" y="51.600405" transform="rotate(-0 24.64 51.600405)">40</text>
     </g>
    </g>
    <g id="ytick_4">
     <g id="line2d_13">
      <path d="M 31.64 23.181861 
L 211 23.181861 
" clip-path="url(#p7922d60f11)" style="fill: none; stroke-dasharray: 2.96,1.28; stroke-dashoffset: 0; stroke: var(--grid-color); stroke-width: 0.8"/>
     </g>
     <g id="line2d_14">
      <g>
       <use xlink:href="#m6ab49fef7b" x="31.64" y="23.181861" style="fill: var(--fg-color); stroke: var(--fg-color); stroke-width: 0.8"/>
      </g>
     </g>
     <g id="text_7">
      <text style="font-size: 7px; font-family: 'DejaVu Sans', 'Bitstream Vera Sans', 'Computer Modern Sans Serif', 'Lucida Grande', 'Verdana', 'Geneva', 'Lucid', 'Arial', 'Helvetica', 'Avant Garde', sans-serif; text-anchor: end; fill: var(--fg-color)" x="24.64" y="25.841041" transform="rotate(-0 24.64 25.841041)">60</text>
     </g>
    </g>
    <g id="text_8">
     <text style="font-size: 7px; font-family: 'DejaVu Sans', 'Bitstream Vera Sans', 'Computer Modern Sans Serif', 'Lucida Grande', 'Verdana', 'Geneva', 'Lucid', 'Arial', 'Helvetica', 'Avant Garde', sans-serif; text-anchor: middle; fill: var(--fg-color)" x="10.050859" y="54.2" transform="rotate(-90 10.050859 54.2)">ms</text>
    </g>
   </g>
   <g id="line2d_15">
    <path d="M 39.792727 42.977933 
L 41.100981 39.482387 
L 41.688656 43.433874 
L 42.636649 38.154492 
L 43.584641 42.742235 
L 44.532636 41.130986 
L 45.480623 37.048127 
L 46.428611 40.311839 
L 47.376592 41.81361 
L 48.324591 40.712397 
L 49.272583 40.320854 
L 50.220574 41.974606 
L 51.168564 40.307975 
L 52.116549 35.072384 
L 53.064541 37.88273 
L 54.012533 40.202361 
L 54.960516 40.407148 
L 55.908509 43.998004 
L 56.856499 42.209016 
L 57.804489 41.594655 
L 58.752478 40.459955 
L 59.700467 11.48711 
L 60.64846 34.327938 
L 61.596444 35.953354 
L 62.544432 41.492905 
L 63.492429 31.241966 
L 64.440417 41.123259 
L 65.388409 39.727101 
L 66.336395 40.819298 
L 67.284367 38.379886 
L 68.232376 39.834002 
L 69.180361 37.685671 
L 70.128357 35.166405 
L 71.076344 43.214919 
L 72.024336 35.413695 
L 72.97232 39.18873 
L 73.920319 38.549898 
L 74.868295 41.604959 
L 75.816291 40.944231 
L 76.764282 35.743415 
L 77.712274 32.748889 
L 78.660247 41.95915 
L 79.608251 28.440635 
L 80.556225 35.29005 
L 81.504231 38.350263 
L 82.452221 34.926843 
L 83.400212 19.518879 
L 84.348199 41.08462 
L 85.296195 42.348116 
L 94.970475 43.833144 
L 95.724369 41.696404 
L 96.672377 41.383428 
L 97.620366 40.186906 
L 98.56836 43.648964 
L 99.516347 41.413051 
L 100.464334 40.807706 
L 101.412323 43.732682 
L 102.360311 43.109306 
L 103.308299 44.183471 
L 104.256292 35.085263 
L 105.204278 45.837222 
L 106.15227 43.459633 
L 107.100261 41.101363 
L 108.04825 43.685027 
L 108.996237 40.32343 
L 109.944231 39.581561 
L 110.892217 44.760481 
L 111.84021 42.721627 
L 112.788201 40.675046 
L 113.736187 40.015606 
L 114.684183 43.946485 
L 115.632163 43.504712 
L 116.580154 42.372588 
L 117.528151 43.330836 
L 118.47614 42.274702 
L 119.42413 39.522314 
L 120.372113 40.979006 
L 121.320106 40.197209 
L 122.268096 41.928239 
L 123.216085 43.536911 
L 124.164076 40.259032 
L 127.956033 42.116282 
L 128.904029 41.015069 
L 129.852015 37.616121 
L 130.800005 38.462316 
L 131.747996 38.89121 
L 132.695985 37.389439 
L 133.643978 41.898615 
L 134.591949 37.773253 
L 135.539952 41.016357 
L 136.487947 41.192809 
L 137.435933 40.211377 
L 138.383926 38.306472 
L 139.331913 43.628357 
L 140.279903 43.302501 
L 141.22789 42.525856 
L 142.175883 40.582312 
L 143.123885 35.603027 
L 144.071862 21.951851 
L 145.019854 37.786133 
L 145.967841 37.532403 
L 146.915831 34.303467 
L 147.863822 33.918364 
L 148.811809 38.424965 
L 149.759801 33.571901 
L 150.707787 38.101685 
L 179.147543 38.101685 
L 187.994854 36.102758 
L 188.627425 35.485822 
L 189.575414 36.550971 
L 190.523402 36.174885 
L 191.471391 36.737727 
L 192.419387 39.674294 
L 193.367373 37.340496 
L 194.315361 34.259676 
L 195.263349 37.207835 
L 196.211342 39.515874 
L 197.159334 9.472727 
L 198.107324 39.582849 
L 199.055317 36.165869 
L 200.0033 43.059075 
L 200.951292 38.741805 
L 201.899281 38.204723 
L 202.847273 35.433015 
" clip-path="url(#p7922d60f11)" style="fill: none; stroke: #339af0; stroke-width: 1.2; stroke-linecap: square"/>
   </g>
   <g id="line2d_16">
    <path d="M 39.792727 98.766277 
L 41.100981 98.574369 
L 41.688656 98.753397 
L 42.636649 98.822947 
L 43.584641 98.774005 
L 44.532636 98.812644 
L 45.480623 98.780444 
L 46.428611 98.847419 
L 47.376592 98.78302 
L 48.324591 98.80234 
L 49.272583 98.748245 
L 50.220574 98.874466 
L 51.168564 98.681271 
L 52.116549 98.761125 
L 53.064541 98.701878 
L 54.012533 98.768853 
L 54.960516 98.840979 
L 55.908509 98.846131 
L 56.856499 98.835827 
L 57.804489 98.864162 
L 58.752478 98.775292 
L 59.700467 98.86545 
L 60.64846 98.797188 
L 61.596444 98.774005 
L 62.544432 98.71991 
L 63.492429 98.692863 
L 64.440417 98.835827 
L 65.388409 98.784308 
L 66.336395 98.835827 
L 67.284367 98.817795 
L 68.232376 98.80878 
L 69.180361 98.743093 
L 70.128357 98.821659 
L 71.076344 98.834539 
L 72.024336 98.848707 
L 72.97232 98.757261 
L 73.920319 98.775292 
L 74.868295 98.755973 
L 75.816291 98.730214 
L 76.764282 98.683847 
L 77.712274 98.834539 
L 78.660247 98.830675 
L 79.608251 98.78302 
L 80.556225 98.7959 
L 81.504231 98.835827 
L 82.452221 98.774005 
L 83.400212 98.816507 
L 84.348199 98.771429 
L 85.296195 98.78946 
L 94.970475 98.770141 
L 95.724369 98.728926 
L 96.672377 98.806204 
L 97.620366 98.88477 
L 98.56836 98.774005 
L 99.516347 98.831963 
L 100.464334 98.744381 
L 101.412323 98.922121 
L 102.360311 98.834539 
L 103.308299 98.847419 
L 104.256292 98.312912 
L 105.204278 98.851283 
L 106.15227 98.80878 
L 107.100261 98.80234 
L 108.04825 98.901513 
L 108.996237 98.804916 
L 109.944231 98.71347 
L 110.892217 98.909241 
L 111.84021 98.722486 
L 112.788201 98.807492 
L 113.736187 98.7959 
L 114.684183 98.87833 
L 115.632163 98.780444 
L 116.580154 98.927273 
L 117.528151 98.835827 
L 118.47614 98.77658 
L 119.42413 98.768853 
L 120.372113 98.645208 
L 121.320106 98.520275 
L 122.268096 98.593689 
L 123.216085 98.779156 
L 124.164076 98.39019 
L 127.956033 98.616872 
L 128.904029 98.597553 
L 129.852015 98.601417 
L 130.800005 98.597553 
L 131.747996 98.679983 
L 132.695985 98.565354 
L 133.643978 98.622024 
L 134.591949 98.654223 
L 135.539952 98.328368 
L 136.487947 98.647784 
L 137.435933 98.387614 
L 138.383926 98.609145 
L 139.331913 98.406934 
L 140.279903 98.605281 
L 141.22789 97.222003 
L 142.175883 98.269121 
L 143.123885 98.54217 
L 144.071862 98.646496 
L 145.019854 98.511259 
L 145.967841 98.587249 
L 146.915831 98.625888 
L 147.863822 98.529291 
L 148.811809 98.444285 
L 149.759801 98.315488 
L 150.707787 98.569218 
L 179.147543 98.569218 
L 187.994854 98.557626 
L 188.627425 98.191843 
L 189.575414 98.615584 
L 190.523402 98.378598 
L 191.471391 98.566642 
L 192.419387 98.775292 
L 193.367373 98.681271 
L 194.315361 98.71347 
L 195.263349 98.628464 
L 196.211342 98.632328 
L 197.159334 98.762413 
L 198.107324 98.230482 
L 199.055317 98.589825 
L 200.0033 98.861586 
L 200.951292 98.043727 
L 201.899281 98.682559 
L 202.847273 98.848707 
" clip-path="url(#p7922d60f11)" style="fill: none; stroke: #ff6b6b; stroke-width: 1.2; stroke-linecap: square"/>
   </g>
   <g id="patch_3">
    <path d="M 31.64 103.4 
L 31.64 5 
" style="fill: none; stroke: var(--fg-color); stroke-width: 0.8; stroke-linejoin: miter; stroke-linecap: square"/>
   </g>
   <g id="patch_4">
    <path d="M 31.64 103.4 
L 211 103.4 
" style="fill: none; stroke: var(--fg-color); stroke-width: 0.8; stroke-linejoin: miter; stroke-linecap: square"/>
   </g>
  </g>
 </g>
 <defs>
  <clipPath id="p7922d60f11">
   <rect x="31.64" y="5" width="179.36" height="98.4"/>
  </clipPath>
 </defs>
</svg>
