<?xml version="1.0" encoding="utf-8" standalone="no"?>
<!DOCTYPE svg PUBLIC "-//W3C//DTD SVG 1.1//EN"
  "http://www.w3.org/Graphics/SVG/1.1/DTD/svg11.dtd">
<svg xmlns:xlink="http://www.w3.org/1999/xlink" width="216pt" height="122.4pt" viewBox="0 0 216 122.4" xmlns="http://www.w3.org/2000/svg" version="1.1">
  <style>
    :root {
      --fg-color: #212529;
      --grid-color: rgba(33, 37, 41, 0.1);
    }
    @media (prefers-color-scheme: dark) {
      :root {
        --fg-color: #dee2e6;
        --grid-color: rgba(248, 249, 250, 0.15);
      }
    }
  </style>

 <metadata>
  <rdf:RDF xmlns:dc="http://purl.org/dc/elements/1.1/" xmlns:cc="http://creativecommons.org/ns#" xmlns:rdf="http://www.w3.org/1999/02/22-rdf-syntax-ns#">
   <cc:Work>
    <dc:type rdf:resource="http://purl.org/dc/dcmitype/StillImage"/>
    <dc:date>2026-06-30T04:48:38.176792</dc:date>
    <dc:format>image/svg+xml</dc:format>
    <dc:creator>
     <cc:Agent>
      <dc:title>Matplotlib v3.11.0, https://matplotlib.org/</dc:title>
     </cc:Agent>
    </dc:creator>
   </cc:Work>
  </rdf:RDF>
 </metadata>
 <defs>
  <style type="text/css">*{stroke-linejoin: round; stroke-linecap: butt}</style>
 </defs>
 <g id="figure_1">
  <g id="patch_1">
   <path d="M 0 122.4 
L 216 122.4 
L 216 0 
L 0 0 
L 0 122.4 
z
" style="fill: none; opacity: 0"/>
  </g>
  <g id="axes_1">
   <g id="patch_2">
    <path d="M 35.96 103.4 
L 211 103.4 
L 211 5.125413 
L 35.96 5.125413 
L 35.96 103.4 
z
" style="fill: none; opacity: 0"/>
   </g>
   <g id="matplotlib.axis_1">
    <g id="xtick_1">
     <g id="line2d_1">
      <path d="M 70.996911 103.4 
L 70.996911 5.125413 
" clip-path="url(#pedacb3ace5)" style="fill: none; stroke-dasharray: 2.96,1.28; stroke-dashoffset: 0; stroke: var(--grid-color); stroke-width: 0.8"/>
     </g>
     <g id="line2d_2">
      <defs>
       <path id="m93967792a4" d="M 0 0 
L 0 3.5 
" style="stroke: var(--fg-color); stroke-width: 0.8"/>
      </defs>
      <g>
       <use xlink:href="#m93967792a4" x="70.996911" y="103.4" style="fill: var(--fg-color); stroke: var(--fg-color); stroke-width: 0.8"/>
      </g>
     </g>
     <g id="text_1">
      <text style="font-size: 7px; font-family: 'DejaVu Sans', 'Bitstream Vera Sans', 'Computer Modern Sans Serif', 'Lucida Grande', 'Verdana', 'Geneva', 'Lucid', 'Arial', 'Helvetica', 'Avant Garde', sans-serif; text-anchor: middle; fill: var(--fg-color)" x="70.996911" y="115.718359" transform="rotate(-0 70.996911 115.718359)">02/2026</text>
     </g>
    </g>
    <g id="xtick_2">
     <g id="line2d_3">
      <path d="M 126.022656 103.4 
L 126.022656 5.125413 
" clip-path="url(#pedacb3ace5)" style="fill: none; stroke-dasharray: 2.96,1.28; stroke-dashoffset: 0; stroke: var(--grid-color); stroke-width: 0.8"/>
     </g>
     <g id="line2d_4">
      <g>
       <use xlink:href="#m93967792a4" x="126.022656" y="103.4" style="fill: var(--fg-color); stroke: var(--fg-color); stroke-width: 0.8"/>
      </g>
     </g>
     <g id="text_2">
      <text style="font-size: 7px; font-family: 'DejaVu Sans', 'Bitstream Vera Sans', 'Computer Modern Sans Serif', 'Lucida Grande', 'Verdana', 'Geneva', 'Lucid', 'Arial', 'Helvetica', 'Avant Garde', sans-serif; text-anchor: middle; fill: var(--fg-color)" x="126.022656" y="115.718359" transform="rotate(-0 126.022656 115.718359)">04/2026</text>
     </g>
    </g>
    <g id="xtick_3">
     <g id="line2d_5">
      <path d="M 182.913681 103.4 
L 182.913681 5.125413 
" clip-path="url(#pedacb3ace5)" style="fill: none; stroke-dasharray: 2.96,1.28; stroke-dashoffset: 0; stroke: var(--grid-color); stroke-width: 0.8"/>
     </g>
     <g id="line2d_6">
      <g>
       <use xlink:href="#m93967792a4" x="182.913681" y="103.4" style="fill: var(--fg-color); stroke: var(--fg-color); stroke-width: 0.8"/>
      </g>
     </g>
     <g id="text_3">
      <text style="font-size: 7px; font-family: 'DejaVu Sans', 'Bitstream Vera Sans', 'Computer Modern Sans Serif', 'Lucida Grande', 'Verdana', 'Geneva', 'Lucid', 'Arial', 'Helvetica', 'Avant Garde', sans-serif; text-anchor: middle; fill: var(--fg-color)" x="182.913681" y="115.718359" transform="rotate(-0 182.913681 115.718359)">06/2026</text>
     </g>
    </g>
   </g>
   <g id="matplotlib.axis_2">
    <g id="ytick_1">
     <g id="line2d_7">
      <path d="M 35.96 99.568697 
L 211 99.568697 
" clip-path="url(#pedacb3ace5)" style="fill: none; stroke-dasharray: 2.96,1.28; stroke-dashoffset: 0; stroke: var(--grid-color); stroke-width: 0.8"/>
     </g>
     <g id="line2d_8">
      <defs>
       <path id="m9a712e28fd" d="M 0 0 
L -3.5 0 
" style="stroke: var(--fg-color); stroke-width: 0.8"/>
      </defs>
      <g>
       <use xlink:href="#m9a712e28fd" x="35.96" y="99.568697" style="fill: var(--fg-color); stroke: var(--fg-color); stroke-width: 0.8"/>
      </g>
     </g>
     <g id="text_4">
      <text style="font-size: 7px; font-family: 'DejaVu Sans', 'Bitstream Vera Sans', 'Computer Modern Sans Serif', 'Lucida Grande', 'Verdana', 'Geneva', 'Lucid', 'Arial', 'Helvetica', 'Avant Garde', sans-serif; text-anchor: end; fill: var(--fg-color)" x="28.96" y="102.227877" transform="rotate(-0 28.96 102.227877)">0</text>
     </g>
    </g>
    <g id="ytick_2">
     <g id="line2d_9">
      <path d="M 35.96 76.61838 
L 211 76.61838 
" clip-path="url(#pedacb3ace5)" style="fill: none; stroke-dasharray: 2.96,1.28; stroke-dashoffset: 0; stroke: var(--grid-color); stroke-width: 0.8"/>
     </g>
     <g id="line2d_10">
      <g>
       <use xlink:href="#m9a712e28fd" x="35.96" y="76.61838" style="fill: var(--fg-color); stroke: var(--fg-color); stroke-width: 0.8"/>
      </g>
     </g>
     <g id="text_5">
      <text style="font-size: 7px; font-family: 'DejaVu Sans', 'Bitstream Vera Sans', 'Computer Modern Sans Serif', 'Lucida Grande', 'Verdana', 'Geneva', 'Lucid', 'Arial', 'Helvetica', 'Avant Garde', sans-serif; text-anchor: end; fill: var(--fg-color)" x="28.96" y="79.27756" transform="rotate(-0 28.96 79.27756)">200</text>
     </g>
    </g>
    <g id="ytick_3">
     <g id="line2d_11">
      <path d="M 35.96 53.668064 
L 211 53.668064 
" clip-path="url(#pedacb3ace5)" style="fill: none; stroke-dasharray: 2.96,1.28; stroke-dashoffset: 0; stroke: var(--grid-color); stroke-width: 0.8"/>
     </g>
     <g id="line2d_12">
      <g>
       <use xlink:href="#m9a712e28fd" x="35.96" y="53.668064" style="fill: var(--fg-color); stroke: var(--fg-color); stroke-width: 0.8"/>
      </g>
     </g>
     <g id="text_6">
      <text style="font-size: 7px; font-family: 'DejaVu Sans', 'Bitstream Vera Sans', 'Computer Modern Sans Serif', 'Lucida Grande', 'Verdana', 'Geneva', 'Lucid', 'Arial', 'Helvetica', 'Avant Garde', sans-serif; text-anchor: end; fill: var(--fg-color)" x="28.96" y="56.327244" transform="rotate(-0 28.96 56.327244)">400</text>
     </g>
    </g>
    <g id="ytick_4">
     <g id="line2d_13">
      <path d="M 35.96 30.717747 
L 211 30.717747 
" clip-path="url(#pedacb3ace5)" style="fill: none; stroke-dasharray: 2.96,1.28; stroke-dashoffset: 0; stroke: var(--grid-color); stroke-width: 0.8"/>
     </g>
     <g id="line2d_14">
      <g>
       <use xlink:href="#m9a712e28fd" x="35.96" y="30.717747" style="fill: var(--fg-color); stroke: var(--fg-color); stroke-width: 0.8"/>
      </g>
     </g>
     <g id="text_7">
      <text style="font-size: 7px; font-family: 'DejaVu Sans', 'Bitstream Vera Sans', 'Computer Modern Sans Serif', 'Lucida Grande', 'Verdana', 'Geneva', 'Lucid', 'Arial', 'Helvetica', 'Avant Garde', sans-serif; text-anchor: end; fill: var(--fg-color)" x="28.96" y="33.376927" transform="rotate(-0 28.96 33.376927)">600</text>
     </g>
    </g>
    <g id="ytick_5">
     <g id="line2d_15">
      <path d="M 35.96 7.767431 
L 211 7.767431 
" clip-path="url(#pedacb3ace5)" style="fill: none; stroke-dasharray: 2.96,1.28; stroke-dashoffset: 0; stroke: var(--grid-color); stroke-width: 0.8"/>
     </g>
     <g id="line2d_16">
      <g>
       <use xlink:href="#m9a712e28fd" x="35.96" y="7.767431" style="fill: var(--fg-color); stroke: var(--fg-color); stroke-width: 0.8"/>
      </g>
     </g>
     <g id="text_8">
      <text style="font-size: 7px; font-family: 'DejaVu Sans', 'Bitstream Vera Sans', 'Computer Modern Sans Serif', 'Lucida Grande', 'Verdana', 'Geneva', 'Lucid', 'Arial', 'Helvetica', 'Avant Garde', sans-serif; text-anchor: end; fill: var(--fg-color)" x="28.96" y="10.42661" transform="rotate(-0 28.96 10.42661)">800</text>
     </g>
    </g>
    <g id="text_9">
     <text style="font-size: 7px; font-family: 'DejaVu Sans', 'Bitstream Vera Sans', 'Computer Modern Sans Serif', 'Lucida Grande', 'Verdana', 'Geneva', 'Lucid', 'Arial', 'Helvetica', 'Avant Garde', sans-serif; text-anchor: middle; fill: var(--fg-color)" x="9.917109" y="54.262707" transform="rotate(-90 9.917109 54.262707)">ms</text>
    </g>
   </g>
   <g id="line2d_17">
    <path d="M 43.916364 45.517144 
L 44.494523 88.638494 
L 45.427166 88.762196 
L 46.359808 86.326594 
L 47.292453 88.167209 
L 48.22509 88.431367 
L 49.157727 88.145406 
L 50.090359 85.487071 
L 51.023007 88.101112 
L 51.95565 86.939941 
L 52.88829 87.933919 
L 53.82093 87.27077 
L 54.753566 87.149937 
L 55.686208 88.383516 
L 56.618849 86.034436 
L 57.551483 87.775562 
L 58.484126 87.800922 
L 59.416765 87.167149 
L 60.349406 87.440029 
L 61.282045 86.213908 
L 62.214684 88.520874 
L 63.147327 87.306343 
L 64.07996 86.86891 
L 65.012598 88.608314 
L 65.945245 88.498038 
L 66.877884 86.142303 
L 67.810526 88.477383 
L 68.743162 88.488858 
L 69.675784 87.354309 
L 70.608443 83.934827 
L 71.541078 88.331648 
L 72.473724 87.87815 
L 73.406361 86.571015 
L 74.339003 81.415456 
L 75.271637 86.727077 
L 76.204286 87.956181 
L 77.136912 88.129915 
L 78.069558 88.846539 
L 79.002199 88.107194 
L 79.934841 87.129855 
L 80.867465 87.144428 
L 81.800118 87.328375 
L 82.732742 84.61909 
L 83.665398 89.149827 
L 84.598038 88.667411 
L 85.53068 87.119986 
L 86.463316 86.217236 
L 87.395962 87.57555 
L 96.913595 88.073802 
L 97.655282 88.369746 
L 98.587939 86.878205 
L 99.520578 86.497574 
L 100.453222 88.636084 
L 101.385859 86.918597 
L 102.318497 88.535677 
L 103.251135 88.810277 
L 104.183773 88.140816 
L 105.116412 87.092216 
L 106.049054 86.968859 
L 106.981691 85.380467 
L 107.914333 85.929553 
L 108.846974 86.095599 
L 109.779613 87.740448 
L 110.71225 87.623631 
L 111.644893 87.596779 
L 112.57753 88.002656 
L 113.510173 84.837348 
L 114.442814 87.801381 
L 115.37545 87.513584 
L 116.308095 82.000803 
L 117.240726 86.135647 
L 118.173367 84.983427 
L 119.106014 88.689903 
L 120.038653 87.05366 
L 120.971293 86.858697 
L 121.903926 85.084179 
L 122.836569 86.983776 
L 123.769209 85.979815 
L 124.701847 85.184127 
L 125.634489 87.803676 
L 129.365046 86.966104 
L 130.297692 86.505606 
L 131.230328 86.899778 
L 132.162968 84.646057 
L 133.095609 85.117227 
L 134.028248 86.384429 
L 134.960891 87.519551 
L 135.893512 87.027956 
L 136.826165 86.345757 
L 137.75881 87.415816 
L 138.691446 86.807288 
L 139.624089 86.690127 
L 140.556726 88.418515 
L 141.489366 85.348107 
L 142.422003 87.659548 
L 143.354646 87.071102 
L 144.287298 86.031912 
L 145.219926 86.237891 
L 146.152567 86.601998 
L 147.085204 77.459624 
L 148.017844 86.151712 
L 148.950485 87.714285 
L 149.883123 85.408925 
L 150.815765 87.397685 
L 151.7484 84.397161 
L 179.727656 84.397161 
L 188.43171 75.845299 
L 189.054038 36.605536 
L 189.986678 85.563496 
L 190.919315 11.461284 
L 191.851955 85.419942 
L 192.7846 85.978782 
L 193.717237 27.388689 
L 194.649875 34.776396 
L 195.582513 40.123131 
L 196.515156 19.178787 
L 197.447798 84.956575 
L 198.380437 84.754497 
L 199.313081 88.031229 
L 200.245713 9.59244 
L 201.178356 28.173131 
L 202.110995 71.509755 
L 203.043636 19.783987 
" clip-path="url(#pedacb3ace5)" style="fill: none; stroke: #339af0; stroke-width: 1.2; stroke-linecap: square"/>
   </g>
   <g id="line2d_18">
    <path d="M 43.916364 98.444935 
L 44.494523 98.57426 
L 45.427166 98.567949 
L 46.359808 98.789304 
L 47.292453 98.826599 
L 48.22509 98.815353 
L 49.157727 98.773928 
L 50.090359 98.68052 
L 51.023007 98.864352 
L 51.95565 98.790337 
L 52.88829 98.673635 
L 53.82093 98.804452 
L 54.753566 98.757633 
L 55.686208 98.707601 
L 56.618849 98.420493 
L 57.551483 98.73365 
L 58.484126 98.547752 
L 59.416765 98.764862 
L 60.349406 98.579194 
L 61.282045 98.572653 
L 62.214684 98.647816 
L 63.147327 98.361855 
L 64.07996 98.751666 
L 65.012598 98.620161 
L 65.945245 98.642767 
L 66.877884 98.834975 
L 67.810526 98.770829 
L 68.743162 98.83073 
L 69.675784 98.510228 
L 70.608443 98.412231 
L 71.541078 98.412575 
L 72.473724 98.791714 
L 73.406361 98.649422 
L 74.339003 98.884089 
L 75.271637 98.718617 
L 76.204286 98.814894 
L 77.136912 98.860106 
L 78.069558 98.854827 
L 79.002199 98.824533 
L 79.934841 98.668356 
L 80.867465 98.735715 
L 81.800118 98.696011 
L 82.732742 98.72883 
L 83.665398 98.709208 
L 84.598038 98.391805 
L 85.53068 98.679487 
L 86.463316 98.614882 
L 87.395962 98.7426 
L 96.913595 98.775649 
L 97.655282 98.873876 
L 98.587939 98.878007 
L 99.520578 98.741453 
L 100.453222 98.68511 
L 101.385859 98.851041 
L 102.318497 98.668127 
L 103.251135 98.932973 
L 104.183773 98.921728 
L 105.116412 98.492212 
L 106.049054 98.487393 
L 106.981691 98.246874 
L 107.914333 98.836008 
L 108.846974 98.900613 
L 109.779613 98.657225 
L 110.71225 98.80755 
L 111.644893 98.422099 
L 112.57753 98.542474 
L 113.510173 98.604784 
L 114.442814 98.797222 
L 115.37545 98.487278 
L 116.308095 98.776452 
L 117.240726 98.752813 
L 118.173367 98.767502 
L 119.106014 98.913121 
L 120.038653 98.26466 
L 120.971293 98.872843 
L 121.903926 98.829008 
L 122.836569 98.641963 
L 123.769209 98.58321 
L 124.701847 98.747535 
L 125.634489 98.871237 
L 129.365046 98.633816 
L 130.297692 98.794009 
L 131.230328 98.81191 
L 132.162968 98.270283 
L 133.095609 98.395247 
L 134.028248 98.554982 
L 134.960891 98.706224 
L 135.893512 98.759354 
L 136.826165 98.702782 
L 137.75881 98.810074 
L 138.691446 98.62739 
L 139.624089 98.677192 
L 140.556726 98.855746 
L 141.489366 98.646553 
L 142.422003 98.750289 
L 143.354646 98.731699 
L 144.287298 98.64116 
L 145.219926 98.638177 
L 146.152567 98.843697 
L 147.085204 98.058337 
L 148.017844 98.709552 
L 148.950485 98.626931 
L 149.883123 98.675586 
L 150.815765 98.741338 
L 151.7484 98.624062 
L 179.727656 98.624062 
L 188.43171 98.850696 
L 189.054038 98.689241 
L 189.986678 98.739043 
L 190.919315 98.615685 
L 191.851955 98.77955 
L 192.7846 98.670422 
L 193.717237 98.487163 
L 194.649875 98.500245 
L 195.582513 98.679602 
L 196.515156 98.541097 
L 197.447798 98.665487 
L 198.380437 98.495885 
L 199.313081 98.695897 
L 200.245713 98.677192 
L 201.178356 98.735486 
L 202.110995 98.477065 
L 203.043636 98.600997 
" clip-path="url(#pedacb3ace5)" style="fill: none; stroke: #ff6b6b; stroke-width: 1.2; stroke-linecap: square"/>
   </g>
   <g id="patch_3">
    <path d="M 35.96 103.4 
L 35.96 5.125413 
" style="fill: none; stroke: var(--fg-color); stroke-width: 0.8; stroke-linejoin: miter; stroke-linecap: square"/>
   </g>
   <g id="patch_4">
    <path d="M 35.96 103.4 
L 211 103.4 
" style="fill: none; stroke: var(--fg-color); stroke-width: 0.8; stroke-linejoin: miter; stroke-linecap: square"/>
   </g>
  </g>
 </g>
 <defs>
  <clipPath id="pedacb3ace5">
   <rect x="35.96" y="5.125413" width="175.04" height="98.274587"/>
  </clipPath>
 </defs>
</svg>
