<?xml version="1.0" encoding="utf-8" standalone="no"?>
<!DOCTYPE svg PUBLIC "-//W3C//DTD SVG 1.1//EN"
  "http://www.w3.org/Graphics/SVG/1.1/DTD/svg11.dtd">
<svg xmlns:xlink="http://www.w3.org/1999/xlink" width="216pt" height="122.4pt" viewBox="0 0 216 122.4" xmlns="http://www.w3.org/2000/svg" version="1.1">
  <style>
    :root {
      --fg-color: #212529;
      --grid-color: rgba(33, 37, 41, 0.1);
    }
    @media (prefers-color-scheme: dark) {
      :root {
        --fg-color: #dee2e6;
        --grid-color: rgba(248, 249, 250, 0.15);
      }
    }
  </style>

 <metadata>
  <rdf:RDF xmlns:dc="http://purl.org/dc/elements/1.1/" xmlns:cc="http://creativecommons.org/ns#" xmlns:rdf="http://www.w3.org/1999/02/22-rdf-syntax-ns#">
   <cc:Work>
    <dc:type rdf:resource="http://purl.org/dc/dcmitype/StillImage"/>
    <dc:date>2026-06-30T15:37:31.164038</dc:date>
    <dc:format>image/svg+xml</dc:format>
    <dc:creator>
     <cc:Agent>
      <dc:title>Matplotlib v3.11.0, https://matplotlib.org/</dc:title>
     </cc:Agent>
    </dc:creator>
   </cc:Work>
  </rdf:RDF>
 </metadata>
 <defs>
  <style type="text/css">*{stroke-linejoin: round; stroke-linecap: butt}</style>
 </defs>
 <g id="figure_1">
  <g id="patch_1">
   <path d="M 0 122.4 
L 216 122.4 
L 216 0 
L 0 0 
L 0 122.4 
z
" style="fill: none; opacity: 0"/>
  </g>
  <g id="axes_1">
   <g id="patch_2">
    <path d="M 35.96 103.4 
L 211 103.4 
L 211 5 
L 35.96 5 
L 35.96 103.4 
z
" style="fill: none; opacity: 0"/>
   </g>
   <g id="matplotlib.axis_1">
    <g id="xtick_1">
     <g id="line2d_1">
      <path d="M 69.784035 103.4 
L 69.784035 5 
" clip-path="url(#p43cbce0a0c)" style="fill: none; stroke-dasharray: 2.96,1.28; stroke-dashoffset: 0; stroke: var(--grid-color); stroke-width: 0.8"/>
     </g>
     <g id="line2d_2">
      <defs>
       <path id="m1534d8159f" d="M 0 0 
L 0 3.5 
" style="stroke: var(--fg-color); stroke-width: 0.8"/>
      </defs>
      <g>
       <use xlink:href="#m1534d8159f" x="69.784035" y="103.4" style="fill: var(--fg-color); stroke: var(--fg-color); stroke-width: 0.8"/>
      </g>
     </g>
     <g id="text_1">
      <text style="font-size: 7px; font-family: 'DejaVu Sans', 'Bitstream Vera Sans', 'Computer Modern Sans Serif', 'Lucida Grande', 'Verdana', 'Geneva', 'Lucid', 'Arial', 'Helvetica', 'Avant Garde', sans-serif; text-anchor: middle; fill: var(--fg-color)" x="69.784035" y="115.718359" transform="rotate(-0 69.784035 115.718359)">02/2026</text>
     </g>
    </g>
    <g id="xtick_2">
     <g id="line2d_3">
      <path d="M 122.345302 103.4 
L 122.345302 5 
" clip-path="url(#p43cbce0a0c)" style="fill: none; stroke-dasharray: 2.96,1.28; stroke-dashoffset: 0; stroke: var(--grid-color); stroke-width: 0.8"/>
     </g>
     <g id="line2d_4">
      <g>
       <use xlink:href="#m1534d8159f" x="122.345302" y="103.4" style="fill: var(--fg-color); stroke: var(--fg-color); stroke-width: 0.8"/>
      </g>
     </g>
     <g id="text_2">
      <text style="font-size: 7px; font-family: 'DejaVu Sans', 'Bitstream Vera Sans', 'Computer Modern Sans Serif', 'Lucida Grande', 'Verdana', 'Geneva', 'Lucid', 'Arial', 'Helvetica', 'Avant Garde', sans-serif; text-anchor: middle; fill: var(--fg-color)" x="122.345302" y="115.718359" transform="rotate(-0 122.345302 115.718359)">04/2026</text>
     </g>
    </g>
    <g id="xtick_3">
     <g id="line2d_5">
      <path d="M 176.688307 103.4 
L 176.688307 5 
" clip-path="url(#p43cbce0a0c)" style="fill: none; stroke-dasharray: 2.96,1.28; stroke-dashoffset: 0; stroke: var(--grid-color); stroke-width: 0.8"/>
     </g>
     <g id="line2d_6">
      <g>
       <use xlink:href="#m1534d8159f" x="176.688307" y="103.4" style="fill: var(--fg-color); stroke: var(--fg-color); stroke-width: 0.8"/>
      </g>
     </g>
     <g id="text_3">
      <text style="font-size: 7px; font-family: 'DejaVu Sans', 'Bitstream Vera Sans', 'Computer Modern Sans Serif', 'Lucida Grande', 'Verdana', 'Geneva', 'Lucid', 'Arial', 'Helvetica', 'Avant Garde', sans-serif; text-anchor: middle; fill: var(--fg-color)" x="176.688307" y="115.718359" transform="rotate(-0 176.688307 115.718359)">06/2026</text>
     </g>
    </g>
   </g>
   <g id="matplotlib.axis_2">
    <g id="ytick_1">
     <g id="line2d_7">
      <path d="M 35.96 99.697549 
L 211 99.697549 
" clip-path="url(#p43cbce0a0c)" style="fill: none; stroke-dasharray: 2.96,1.28; stroke-dashoffset: 0; stroke: var(--grid-color); stroke-width: 0.8"/>
     </g>
     <g id="line2d_8">
      <defs>
       <path id="m271d0824a1" d="M 0 0 
L -3.5 0 
" style="stroke: var(--fg-color); stroke-width: 0.8"/>
      </defs>
      <g>
       <use xlink:href="#m271d0824a1" x="35.96" y="99.697549" style="fill: var(--fg-color); stroke: var(--fg-color); stroke-width: 0.8"/>
      </g>
     </g>
     <g id="text_4">
      <text style="font-size: 7px; font-family: 'DejaVu Sans', 'Bitstream Vera Sans', 'Computer Modern Sans Serif', 'Lucida Grande', 'Verdana', 'Geneva', 'Lucid', 'Arial', 'Helvetica', 'Avant Garde', sans-serif; text-anchor: end; fill: var(--fg-color)" x="28.96" y="102.356729" transform="rotate(-0 28.96 102.356729)">0</text>
     </g>
    </g>
    <g id="ytick_2">
     <g id="line2d_9">
      <path d="M 35.96 75.967539 
L 211 75.967539 
" clip-path="url(#p43cbce0a0c)" style="fill: none; stroke-dasharray: 2.96,1.28; stroke-dashoffset: 0; stroke: var(--grid-color); stroke-width: 0.8"/>
     </g>
     <g id="line2d_10">
      <g>
       <use xlink:href="#m271d0824a1" x="35.96" y="75.967539" style="fill: var(--fg-color); stroke: var(--fg-color); stroke-width: 0.8"/>
      </g>
     </g>
     <g id="text_5">
      <text style="font-size: 7px; font-family: 'DejaVu Sans', 'Bitstream Vera Sans', 'Computer Modern Sans Serif', 'Lucida Grande', 'Verdana', 'Geneva', 'Lucid', 'Arial', 'Helvetica', 'Avant Garde', sans-serif; text-anchor: end; fill: var(--fg-color)" x="28.96" y="78.626718" transform="rotate(-0 28.96 78.626718)">100</text>
     </g>
    </g>
    <g id="ytick_3">
     <g id="line2d_11">
      <path d="M 35.96 52.237528 
L 211 52.237528 
" clip-path="url(#p43cbce0a0c)" style="fill: none; stroke-dasharray: 2.96,1.28; stroke-dashoffset: 0; stroke: var(--grid-color); stroke-width: 0.8"/>
     </g>
     <g id="line2d_12">
      <g>
       <use xlink:href="#m271d0824a1" x="35.96" y="52.237528" style="fill: var(--fg-color); stroke: var(--fg-color); stroke-width: 0.8"/>
      </g>
     </g>
     <g id="text_6">
      <text style="font-size: 7px; font-family: 'DejaVu Sans', 'Bitstream Vera Sans', 'Computer Modern Sans Serif', 'Lucida Grande', 'Verdana', 'Geneva', 'Lucid', 'Arial', 'Helvetica', 'Avant Garde', sans-serif; text-anchor: end; fill: var(--fg-color)" x="28.96" y="54.896708" transform="rotate(-0 28.96 54.896708)">200</text>
     </g>
    </g>
    <g id="ytick_4">
     <g id="line2d_13">
      <path d="M 35.96 28.507518 
L 211 28.507518 
" clip-path="url(#p43cbce0a0c)" style="fill: none; stroke-dasharray: 2.96,1.28; stroke-dashoffset: 0; stroke: var(--grid-color); stroke-width: 0.8"/>
     </g>
     <g id="line2d_14">
      <g>
       <use xlink:href="#m271d0824a1" x="35.96" y="28.507518" style="fill: var(--fg-color); stroke: var(--fg-color); stroke-width: 0.8"/>
      </g>
     </g>
     <g id="text_7">
      <text style="font-size: 7px; font-family: 'DejaVu Sans', 'Bitstream Vera Sans', 'Computer Modern Sans Serif', 'Lucida Grande', 'Verdana', 'Geneva', 'Lucid', 'Arial', 'Helvetica', 'Avant Garde', sans-serif; text-anchor: end; fill: var(--fg-color)" x="28.96" y="31.166697" transform="rotate(-0 28.96 31.166697)">300</text>
     </g>
    </g>
    <g id="text_8">
     <text style="font-size: 7px; font-family: 'DejaVu Sans', 'Bitstream Vera Sans', 'Computer Modern Sans Serif', 'Lucida Grande', 'Verdana', 'Geneva', 'Lucid', 'Arial', 'Helvetica', 'Avant Garde', sans-serif; text-anchor: middle; fill: var(--fg-color)" x="9.917109" y="54.2" transform="rotate(-90 9.917109 54.2)">ms</text>
    </g>
   </g>
   <g id="line2d_15">
    <path d="M 43.916364 48.771286 
L 44.468628 39.492851 
L 45.3595 32.240248 
L 46.250371 46.685655 
L 47.141245 49.977482 
L 48.032112 47.841069 
L 48.922979 37.641911 
L 49.81384 51.913139 
L 50.704717 49.996703 
L 51.595589 51.144761 
L 52.486458 51.541052 
L 53.377327 52.38062 
L 54.268192 48.351027 
L 55.159063 45.745947 
L 56.049934 26.279033 
L 56.940797 42.815765 
L 57.831669 46.652908 
L 58.722538 48.593785 
L 59.613407 40.732033 
L 60.504275 42.948178 
L 61.395144 38.691964 
L 62.286016 39.400304 
L 63.176879 42.601483 
L 64.067746 28.046918 
L 64.958622 33.562959 
L 65.84949 43.430609 
L 66.740361 36.726644 
L 67.631226 44.877428 
L 68.522078 35.434545 
L 69.412965 27.367528 
L 70.30383 42.54809 
L 71.194705 37.369016 
L 72.085571 50.125557 
L 72.976442 44.275872 
L 73.867306 49.691298 
L 74.758184 44.006537 
L 75.649039 34.800479 
L 76.539914 42.62284 
L 77.430784 46.085286 
L 78.321655 29.678594 
L 79.212509 36.559822 
L 80.103391 48.991975 
L 80.994245 30.397139 
L 81.885129 52.195051 
L 82.775998 33.61564 
L 83.666869 51.897002 
L 84.557735 35.373084 
L 85.44861 41.065202 
L 94.53997 42.281365 
L 95.248438 45.489425 
L 96.139324 40.61362 
L 97.030192 31.213214 
L 97.921065 45.064895 
L 98.811931 17.573204 
L 99.702798 45.157442 
L 100.593666 37.809682 
L 101.484533 37.849548 
L 102.375401 49.3026 
L 103.266272 47.715063 
L 104.157138 39.66086 
L 105.048009 24.149027 
L 106.829748 28.082751 
L 107.720614 43.029335 
L 108.611487 45.273482 
L 109.502352 46.4391 
L 110.393224 28.796075 
L 111.284094 37.804224 
L 112.17496 38.909568 
L 113.065834 50.833661 
L 113.956695 47.26704 
L 114.847564 40.249839 
L 115.738441 45.207038 
L 116.629309 38.441137 
L 117.520178 40.130477 
L 118.41104 22.160927 
L 119.301913 34.126547 
L 120.192782 30.535484 
L 121.083649 45.072252 
L 121.97452 28.922556 
L 125.537994 38.469139 
L 126.428869 33.587164 
L 127.319734 19.450485 
L 128.210603 30.89452 
L 129.101474 36.991946 
L 129.992342 38.813699 
L 130.883214 47.624177 
L 131.774065 18.210117 
L 132.664946 31.307422 
L 133.55582 34.224552 
L 134.446686 44.403303 
L 135.337558 34.824921 
L 136.228424 46.916311 
L 137.119294 36.542025 
L 138.010159 9.472727 
L 138.901032 19.88332 
L 139.791912 32.059426 
L 140.68277 33.711984 
L 141.57364 36.782647 
L 142.464507 44.737184 
L 143.355376 42.054981 
L 144.246246 16.711567 
L 145.137113 43.574651 
L 146.027984 24.254863 
L 146.918849 42.936313 
L 173.644977 42.936313 
L 181.959197 40.304418 
L 182.553652 47.520951 
L 183.444521 42.475951 
L 184.335387 47.904666 
L 185.226256 46.781999 
L 186.117131 44.419202 
L 187.007996 40.438492 
L 187.898864 39.770255 
L 188.789731 47.922226 
L 189.680603 50.199358 
L 190.571474 44.177156 
L 191.462343 51.006415 
L 192.353215 48.606837 
L 193.244077 37.506887 
L 194.134949 54.190983 
L 195.025817 32.963302 
L 195.916688 49.157847 
L 196.807557 47.823984 
L 197.698426 51.814659 
L 198.589295 42.387913 
L 199.480162 37.121274 
L 200.371032 46.387843 
L 201.261898 50.184882 
L 202.152766 39.848564 
L 203.043636 33.28342 
L 203.043636 33.28342 
" clip-path="url(#p43cbce0a0c)" style="fill: none; stroke: #339af0; stroke-width: 1.2; stroke-linecap: square"/>
   </g>
   <g id="line2d_16">
    <path d="M 43.916364 98.812182 
L 47.141245 98.768756 
L 48.922979 98.860591 
L 56.049934 98.830929 
L 56.940797 98.621156 
L 57.831669 98.806724 
L 60.504275 98.837099 
L 66.740361 98.813606 
L 75.649039 98.833302 
L 76.539914 98.888593 
L 78.321655 98.857506 
L 85.44861 98.844692 
L 105.93888 98.80625 
L 107.720614 98.859405 
L 108.611487 98.772316 
L 110.393224 98.821674 
L 113.956695 98.819301 
L 118.41104 98.838522 
L 126.428869 98.607155 
L 127.319734 98.824284 
L 132.664946 98.66648 
L 134.446686 98.812419 
L 185.226256 98.798656 
L 186.117131 98.851099 
L 187.007996 98.745026 
L 188.789731 98.818589 
L 203.043636 98.786316 
L 203.043636 98.786316 
" clip-path="url(#p43cbce0a0c)" style="fill: none; stroke: #ff6b6b; stroke-width: 1.2; stroke-linecap: square"/>
   </g>
   <g id="patch_3">
    <path d="M 35.96 103.4 
L 35.96 5 
" style="fill: none; stroke: var(--fg-color); stroke-width: 0.8; stroke-linejoin: miter; stroke-linecap: square"/>
   </g>
   <g id="patch_4">
    <path d="M 35.96 103.4 
L 211 103.4 
" style="fill: none; stroke: var(--fg-color); stroke-width: 0.8; stroke-linejoin: miter; stroke-linecap: square"/>
   </g>
  </g>
 </g>
 <defs>
  <clipPath id="p43cbce0a0c">
   <rect x="35.96" y="5" width="175.04" height="98.4"/>
  </clipPath>
 </defs>
</svg>
