<?xml version="1.0" encoding="utf-8" standalone="no"?>
<!DOCTYPE svg PUBLIC "-//W3C//DTD SVG 1.1//EN"
  "http://www.w3.org/Graphics/SVG/1.1/DTD/svg11.dtd">
<svg xmlns:xlink="http://www.w3.org/1999/xlink" width="216pt" height="122.4pt" viewBox="0 0 216 122.4" xmlns="http://www.w3.org/2000/svg" version="1.1">
  <style>
    :root {
      --fg-color: #212529;
      --grid-color: rgba(33, 37, 41, 0.1);
    }
    @media (prefers-color-scheme: dark) {
      :root {
        --fg-color: #dee2e6;
        --grid-color: rgba(248, 249, 250, 0.15);
      }
    }
  </style>

 <metadata>
  <rdf:RDF xmlns:dc="http://purl.org/dc/elements/1.1/" xmlns:cc="http://creativecommons.org/ns#" xmlns:rdf="http://www.w3.org/1999/02/22-rdf-syntax-ns#">
   <cc:Work>
    <dc:type rdf:resource="http://purl.org/dc/dcmitype/StillImage"/>
    <dc:date>2026-06-30T15:37:22.061232</dc:date>
    <dc:format>image/svg+xml</dc:format>
    <dc:creator>
     <cc:Agent>
      <dc:title>Matplotlib v3.11.0, https://matplotlib.org/</dc:title>
     </cc:Agent>
    </dc:creator>
   </cc:Work>
  </rdf:RDF>
 </metadata>
 <defs>
  <style type="text/css">*{stroke-linejoin: round; stroke-linecap: butt}</style>
 </defs>
 <g id="figure_1">
  <g id="patch_1">
   <path d="M 0 122.4 
L 216 122.4 
L 216 0 
L 0 0 
L 0 122.4 
z
" style="fill: none; opacity: 0"/>
  </g>
  <g id="axes_1">
   <g id="patch_2">
    <path d="M 35.96 103.4 
L 211 103.4 
L 211 5 
L 35.96 5 
L 35.96 103.4 
z
" style="fill: none; opacity: 0"/>
   </g>
   <g id="matplotlib.axis_1">
    <g id="xtick_1">
     <g id="line2d_1">
      <path d="M 69.784035 103.4 
L 69.784035 5 
" clip-path="url(#p5f86f09928)" style="fill: none; stroke-dasharray: 2.96,1.28; stroke-dashoffset: 0; stroke: var(--grid-color); stroke-width: 0.8"/>
     </g>
     <g id="line2d_2">
      <defs>
       <path id="m997f6ca30b" d="M 0 0 
L 0 3.5 
" style="stroke: var(--fg-color); stroke-width: 0.8"/>
      </defs>
      <g>
       <use xlink:href="#m997f6ca30b" x="69.784035" y="103.4" style="fill: var(--fg-color); stroke: var(--fg-color); stroke-width: 0.8"/>
      </g>
     </g>
     <g id="text_1">
      <text style="font-size: 7px; font-family: 'DejaVu Sans', 'Bitstream Vera Sans', 'Computer Modern Sans Serif', 'Lucida Grande', 'Verdana', 'Geneva', 'Lucid', 'Arial', 'Helvetica', 'Avant Garde', sans-serif; text-anchor: middle; fill: var(--fg-color)" x="69.784035" y="115.718359" transform="rotate(-0 69.784035 115.718359)">02/2026</text>
     </g>
    </g>
    <g id="xtick_2">
     <g id="line2d_3">
      <path d="M 122.345302 103.4 
L 122.345302 5 
" clip-path="url(#p5f86f09928)" style="fill: none; stroke-dasharray: 2.96,1.28; stroke-dashoffset: 0; stroke: var(--grid-color); stroke-width: 0.8"/>
     </g>
     <g id="line2d_4">
      <g>
       <use xlink:href="#m997f6ca30b" x="122.345302" y="103.4" style="fill: var(--fg-color); stroke: var(--fg-color); stroke-width: 0.8"/>
      </g>
     </g>
     <g id="text_2">
      <text style="font-size: 7px; font-family: 'DejaVu Sans', 'Bitstream Vera Sans', 'Computer Modern Sans Serif', 'Lucida Grande', 'Verdana', 'Geneva', 'Lucid', 'Arial', 'Helvetica', 'Avant Garde', sans-serif; text-anchor: middle; fill: var(--fg-color)" x="122.345302" y="115.718359" transform="rotate(-0 122.345302 115.718359)">04/2026</text>
     </g>
    </g>
    <g id="xtick_3">
     <g id="line2d_5">
      <path d="M 176.688307 103.4 
L 176.688307 5 
" clip-path="url(#p5f86f09928)" style="fill: none; stroke-dasharray: 2.96,1.28; stroke-dashoffset: 0; stroke: var(--grid-color); stroke-width: 0.8"/>
     </g>
     <g id="line2d_6">
      <g>
       <use xlink:href="#m997f6ca30b" x="176.688307" y="103.4" style="fill: var(--fg-color); stroke: var(--fg-color); stroke-width: 0.8"/>
      </g>
     </g>
     <g id="text_3">
      <text style="font-size: 7px; font-family: 'DejaVu Sans', 'Bitstream Vera Sans', 'Computer Modern Sans Serif', 'Lucida Grande', 'Verdana', 'Geneva', 'Lucid', 'Arial', 'Helvetica', 'Avant Garde', sans-serif; text-anchor: middle; fill: var(--fg-color)" x="176.688307" y="115.718359" transform="rotate(-0 176.688307 115.718359)">06/2026</text>
     </g>
    </g>
   </g>
   <g id="matplotlib.axis_2">
    <g id="ytick_1">
     <g id="line2d_7">
      <path d="M 35.96 100.960694 
L 211 100.960694 
" clip-path="url(#p5f86f09928)" style="fill: none; stroke-dasharray: 2.96,1.28; stroke-dashoffset: 0; stroke: var(--grid-color); stroke-width: 0.8"/>
     </g>
     <g id="line2d_8">
      <defs>
       <path id="m3f48779729" d="M 0 0 
L -3.5 0 
" style="stroke: var(--fg-color); stroke-width: 0.8"/>
      </defs>
      <g>
       <use xlink:href="#m3f48779729" x="35.96" y="100.960694" style="fill: var(--fg-color); stroke: var(--fg-color); stroke-width: 0.8"/>
      </g>
     </g>
     <g id="text_4">
      <text style="font-size: 7px; font-family: 'DejaVu Sans', 'Bitstream Vera Sans', 'Computer Modern Sans Serif', 'Lucida Grande', 'Verdana', 'Geneva', 'Lucid', 'Arial', 'Helvetica', 'Avant Garde', sans-serif; text-anchor: end; fill: var(--fg-color)" x="28.96" y="103.619874" transform="rotate(-0 28.96 103.619874)">0</text>
     </g>
    </g>
    <g id="ytick_2">
     <g id="line2d_9">
      <path d="M 35.96 74.31035 
L 211 74.31035 
" clip-path="url(#p5f86f09928)" style="fill: none; stroke-dasharray: 2.96,1.28; stroke-dashoffset: 0; stroke: var(--grid-color); stroke-width: 0.8"/>
     </g>
     <g id="line2d_10">
      <g>
       <use xlink:href="#m3f48779729" x="35.96" y="74.31035" style="fill: var(--fg-color); stroke: var(--fg-color); stroke-width: 0.8"/>
      </g>
     </g>
     <g id="text_5">
      <text style="font-size: 7px; font-family: 'DejaVu Sans', 'Bitstream Vera Sans', 'Computer Modern Sans Serif', 'Lucida Grande', 'Verdana', 'Geneva', 'Lucid', 'Arial', 'Helvetica', 'Avant Garde', sans-serif; text-anchor: end; fill: var(--fg-color)" x="28.96" y="76.969529" transform="rotate(-0 28.96 76.969529)">100</text>
     </g>
    </g>
    <g id="ytick_3">
     <g id="line2d_11">
      <path d="M 35.96 47.660006 
L 211 47.660006 
" clip-path="url(#p5f86f09928)" style="fill: none; stroke-dasharray: 2.96,1.28; stroke-dashoffset: 0; stroke: var(--grid-color); stroke-width: 0.8"/>
     </g>
     <g id="line2d_12">
      <g>
       <use xlink:href="#m3f48779729" x="35.96" y="47.660006" style="fill: var(--fg-color); stroke: var(--fg-color); stroke-width: 0.8"/>
      </g>
     </g>
     <g id="text_6">
      <text style="font-size: 7px; font-family: 'DejaVu Sans', 'Bitstream Vera Sans', 'Computer Modern Sans Serif', 'Lucida Grande', 'Verdana', 'Geneva', 'Lucid', 'Arial', 'Helvetica', 'Avant Garde', sans-serif; text-anchor: end; fill: var(--fg-color)" x="28.96" y="50.319185" transform="rotate(-0 28.96 50.319185)">200</text>
     </g>
    </g>
    <g id="ytick_4">
     <g id="line2d_13">
      <path d="M 35.96 21.009661 
L 211 21.009661 
" clip-path="url(#p5f86f09928)" style="fill: none; stroke-dasharray: 2.96,1.28; stroke-dashoffset: 0; stroke: var(--grid-color); stroke-width: 0.8"/>
     </g>
     <g id="line2d_14">
      <g>
       <use xlink:href="#m3f48779729" x="35.96" y="21.009661" style="fill: var(--fg-color); stroke: var(--fg-color); stroke-width: 0.8"/>
      </g>
     </g>
     <g id="text_7">
      <text style="font-size: 7px; font-family: 'DejaVu Sans', 'Bitstream Vera Sans', 'Computer Modern Sans Serif', 'Lucida Grande', 'Verdana', 'Geneva', 'Lucid', 'Arial', 'Helvetica', 'Avant Garde', sans-serif; text-anchor: end; fill: var(--fg-color)" x="28.96" y="23.668841" transform="rotate(-0 28.96 23.668841)">300</text>
     </g>
    </g>
    <g id="text_8">
     <text style="font-size: 7px; font-family: 'DejaVu Sans', 'Bitstream Vera Sans', 'Computer Modern Sans Serif', 'Lucida Grande', 'Verdana', 'Geneva', 'Lucid', 'Arial', 'Helvetica', 'Avant Garde', sans-serif; text-anchor: middle; fill: var(--fg-color)" x="9.917109" y="54.2" transform="rotate(-90 9.917109 54.2)">ms</text>
    </g>
   </g>
   <g id="line2d_15">
    <path d="M 43.916364 32.471708 
L 44.468628 37.621354 
L 45.3595 44.829472 
L 46.250371 37.496097 
L 47.141245 31.870743 
L 48.032112 44.044087 
L 48.922979 32.520744 
L 49.81384 32.837351 
L 50.704717 31.734026 
L 51.595589 33.979051 
L 52.486458 33.42046 
L 53.377327 33.287475 
L 54.268192 41.017407 
L 55.159063 41.808656 
L 56.049934 29.024486 
L 56.940797 29.585209 
L 57.831669 36.694188 
L 58.722538 45.797413 
L 59.613407 45.379269 
L 60.504275 30.842839 
L 61.395144 37.956349 
L 62.286016 34.814806 
L 63.176879 38.114918 
L 64.067746 28.943469 
L 64.958622 31.642349 
L 65.84949 30.325023 
L 66.740361 41.462734 
L 68.522078 9.472727 
L 69.412965 27.741272 
L 72.085571 38.625272 
L 72.976442 35.524771 
L 73.867306 31.297494 
L 74.758184 33.21392 
L 75.649039 37.934495 
L 76.539914 33.187003 
L 77.430784 40.666689 
L 79.212509 30.128343 
L 80.103391 31.932838 
L 80.994245 39.688621 
L 81.885129 39.618797 
L 82.775998 35.992218 
L 83.666869 40.560887 
L 84.557735 41.650086 
L 85.44861 39.479416 
L 94.53997 38.548786 
L 95.248438 40.099036 
L 96.139324 34.929403 
L 97.030192 34.795618 
L 97.921065 40.573679 
L 98.811931 38.31906 
L 99.702798 38.77105 
L 100.593666 37.005997 
L 101.484533 39.814411 
L 102.375401 45.743313 
L 103.266272 33.040693 
L 104.157138 47.698116 
L 105.93888 31.571726 
L 106.829748 45.91734 
L 107.720614 19.558017 
L 108.611487 26.674458 
L 109.502352 26.215007 
L 110.393224 43.65286 
L 111.284094 30.857496 
L 112.17496 35.978893 
L 113.065834 25.488785 
L 113.956695 32.510617 
L 114.847564 36.546812 
L 115.738441 41.314292 
L 116.629309 37.545134 
L 117.520178 35.926392 
L 118.41104 37.658398 
L 119.301913 30.092365 
L 120.192782 33.416729 
L 121.083649 41.147994 
L 121.97452 34.020892 
L 125.537994 32.77792 
L 127.319734 44.380148 
L 128.210603 38.924023 
L 129.101474 31.769205 
L 129.992342 35.784346 
L 130.883214 43.304273 
L 131.774065 29.178525 
L 132.664946 25.870418 
L 133.55582 28.021633 
L 134.446686 24.953646 
L 135.337558 27.455847 
L 136.228424 32.085811 
L 137.119294 32.842947 
L 138.010159 31.173037 
L 138.901032 40.012956 
L 139.791912 39.348296 
L 140.68277 24.686076 
L 141.57364 33.442313 
L 142.464507 32.529806 
L 143.355376 36.371453 
L 144.246246 20.988608 
L 146.027984 34.322574 
L 146.918849 31.800919 
L 173.644977 31.800919 
L 181.959197 42.701176 
L 182.553652 29.713131 
L 183.444521 38.680439 
L 185.226256 48.553325 
L 186.117131 34.781227 
L 187.007996 27.547257 
L 187.898864 43.196073 
L 188.789731 16.103866 
L 189.680603 34.295391 
L 190.571474 44.045153 
L 191.462343 26.647542 
L 192.353215 25.022937 
L 193.244077 39.033023 
L 194.134949 36.409829 
L 195.025817 30.027871 
L 195.916688 35.137275 
L 196.807557 36.093756 
L 197.698426 47.796455 
L 198.589295 32.774989 
L 199.480162 33.356233 
L 200.371032 28.06987 
L 201.261898 29.722725 
L 203.043636 50.047876 
L 203.043636 50.047876 
" clip-path="url(#p5f86f09928)" style="fill: none; stroke: #339af0; stroke-width: 1.2; stroke-linecap: square"/>
   </g>
   <g id="line2d_16">
    <path d="M 43.916364 98.102178 
L 44.468628 98.461958 
L 45.3595 98.036885 
L 46.250371 98.410523 
L 47.141245 98.080058 
L 48.032112 98.507796 
L 48.922979 97.702423 
L 49.81384 97.851398 
L 50.704717 98.352425 
L 51.595589 97.961731 
L 53.377327 97.953469 
L 54.268192 98.393466 
L 55.159063 97.968926 
L 56.940797 97.591557 
L 57.831669 98.205048 
L 58.722538 98.451298 
L 59.613407 98.927273 
L 60.504275 98.275405 
L 61.395144 98.068865 
L 62.286016 97.620073 
L 63.176879 97.695494 
L 64.067746 98.106975 
L 64.958622 97.472697 
L 65.84949 97.911628 
L 66.740361 97.871653 
L 67.631226 97.340511 
L 68.522078 97.323722 
L 69.412965 97.644858 
L 70.30383 97.775978 
L 72.085571 98.291662 
L 72.976442 96.697971 
L 73.867306 97.934547 
L 74.758184 98.311383 
L 76.539914 98.24609 
L 77.430784 97.550516 
L 78.321655 98.358288 
L 79.212509 98.077926 
L 80.103391 98.051276 
L 80.994245 98.324175 
L 81.885129 97.507342 
L 82.775998 98.03422 
L 83.666869 98.026491 
L 84.557735 97.260827 
L 85.44861 97.04256 
L 94.53997 97.840738 
L 95.248438 98.172801 
L 96.139324 97.774645 
L 97.030192 97.614477 
L 97.921065 98.322843 
L 98.811931 98.417185 
L 99.702798 97.681103 
L 100.593666 98.036085 
L 101.484533 97.899102 
L 102.375401 97.435653 
L 103.266272 98.404126 
L 104.157138 97.742398 
L 105.048009 97.367428 
L 105.93888 98.052342 
L 107.720614 97.545719 
L 108.611487 97.621139 
L 109.502352 97.267223 
L 110.393224 98.238628 
L 111.284094 98.068599 
L 112.17496 98.577087 
L 113.065834 98.008902 
L 113.956695 98.251953 
L 114.847564 97.58756 
L 115.738441 97.757056 
L 116.629309 98.363085 
L 117.520178 96.810436 
L 118.41104 97.774645 
L 120.192782 96.18815 
L 121.083649 97.018575 
L 121.97452 98.041415 
L 125.537994 98.264212 
L 126.428869 97.307998 
L 127.319734 97.865523 
L 128.210603 98.104843 
L 129.992342 98.093383 
L 130.883214 97.287211 
L 131.774065 98.464356 
L 132.664946 97.636863 
L 133.55582 97.523599 
L 134.446686 97.052954 
L 135.337558 98.516058 
L 136.228424 98.117102 
L 137.119294 98.503799 
L 138.010159 97.996909 
L 138.901032 98.596009 
L 139.791912 98.157877 
L 140.68277 97.357301 
L 141.57364 98.5563 
L 142.464507 97.891107 
L 143.355376 98.140022 
L 144.246246 97.479893 
L 145.137113 97.907364 
L 146.027984 96.687311 
L 146.918849 98.452364 
L 181.959197 98.442769 
L 182.553652 97.831944 
L 183.444521 97.795433 
L 184.335387 98.184261 
L 185.226256 97.105455 
L 186.117131 98.342564 
L 187.007996 97.70722 
L 187.898864 97.868455 
L 188.789731 97.609946 
L 189.680603 98.257283 
L 190.571474 97.854063 
L 193.244077 98.255151 
L 195.025817 98.053941 
L 195.916688 98.337501 
L 196.807557 98.056872 
L 197.698426 98.835329 
L 198.589295 97.482025 
L 199.480162 96.952216 
L 200.371032 98.107242 
L 202.152766 98.047278 
L 203.043636 98.591745 
L 203.043636 98.591745 
" clip-path="url(#p5f86f09928)" style="fill: none; stroke: #ff6b6b; stroke-width: 1.2; stroke-linecap: square"/>
   </g>
   <g id="patch_3">
    <path d="M 35.96 103.4 
L 35.96 5 
" style="fill: none; stroke: var(--fg-color); stroke-width: 0.8; stroke-linejoin: miter; stroke-linecap: square"/>
   </g>
   <g id="patch_4">
    <path d="M 35.96 103.4 
L 211 103.4 
" style="fill: none; stroke: var(--fg-color); stroke-width: 0.8; stroke-linejoin: miter; stroke-linecap: square"/>
   </g>
  </g>
 </g>
 <defs>
  <clipPath id="p5f86f09928">
   <rect x="35.96" y="5" width="175.04" height="98.4"/>
  </clipPath>
 </defs>
</svg>
