<?xml version="1.0" encoding="utf-8" standalone="no"?>
<!DOCTYPE svg PUBLIC "-//W3C//DTD SVG 1.1//EN"
  "http://www.w3.org/Graphics/SVG/1.1/DTD/svg11.dtd">
<svg xmlns:xlink="http://www.w3.org/1999/xlink" width="216pt" height="122.4pt" viewBox="0 0 216 122.4" xmlns="http://www.w3.org/2000/svg" version="1.1">
  <style>
    :root {
      --fg-color: #212529;
      --grid-color: rgba(33, 37, 41, 0.1);
    }
    @media (prefers-color-scheme: dark) {
      :root {
        --fg-color: #dee2e6;
        --grid-color: rgba(248, 249, 250, 0.15);
      }
    }
  </style>

 <metadata>
  <rdf:RDF xmlns:dc="http://purl.org/dc/elements/1.1/" xmlns:cc="http://creativecommons.org/ns#" xmlns:rdf="http://www.w3.org/1999/02/22-rdf-syntax-ns#">
   <cc:Work>
    <dc:type rdf:resource="http://purl.org/dc/dcmitype/StillImage"/>
    <dc:date>2026-06-30T15:37:51.615479</dc:date>
    <dc:format>image/svg+xml</dc:format>
    <dc:creator>
     <cc:Agent>
      <dc:title>Matplotlib v3.11.0, https://matplotlib.org/</dc:title>
     </cc:Agent>
    </dc:creator>
   </cc:Work>
  </rdf:RDF>
 </metadata>
 <defs>
  <style type="text/css">*{stroke-linejoin: round; stroke-linecap: butt}</style>
 </defs>
 <g id="figure_1">
  <g id="patch_1">
   <path d="M 0 122.4 
L 216 122.4 
L 216 0 
L 0 0 
L 0 122.4 
z
" style="fill: none; opacity: 0"/>
  </g>
  <g id="axes_1">
   <g id="patch_2">
    <path d="M 35.96 103.4 
L 211 103.4 
L 211 5 
L 35.96 5 
L 35.96 103.4 
z
" style="fill: none; opacity: 0"/>
   </g>
   <g id="matplotlib.axis_1">
    <g id="xtick_1">
     <g id="line2d_1">
      <path d="M 69.784035 103.4 
L 69.784035 5 
" clip-path="url(#p2bf82c5017)" style="fill: none; stroke-dasharray: 2.96,1.28; stroke-dashoffset: 0; stroke: var(--grid-color); stroke-width: 0.8"/>
     </g>
     <g id="line2d_2">
      <defs>
       <path id="m4386b51044" d="M 0 0 
L 0 3.5 
" style="stroke: var(--fg-color); stroke-width: 0.8"/>
      </defs>
      <g>
       <use xlink:href="#m4386b51044" x="69.784035" y="103.4" style="fill: var(--fg-color); stroke: var(--fg-color); stroke-width: 0.8"/>
      </g>
     </g>
     <g id="text_1">
      <text style="font-size: 7px; font-family: 'DejaVu Sans', 'Bitstream Vera Sans', 'Computer Modern Sans Serif', 'Lucida Grande', 'Verdana', 'Geneva', 'Lucid', 'Arial', 'Helvetica', 'Avant Garde', sans-serif; text-anchor: middle; fill: var(--fg-color)" x="69.784035" y="115.718359" transform="rotate(-0 69.784035 115.718359)">02/2026</text>
     </g>
    </g>
    <g id="xtick_2">
     <g id="line2d_3">
      <path d="M 122.345302 103.4 
L 122.345302 5 
" clip-path="url(#p2bf82c5017)" style="fill: none; stroke-dasharray: 2.96,1.28; stroke-dashoffset: 0; stroke: var(--grid-color); stroke-width: 0.8"/>
     </g>
     <g id="line2d_4">
      <g>
       <use xlink:href="#m4386b51044" x="122.345302" y="103.4" style="fill: var(--fg-color); stroke: var(--fg-color); stroke-width: 0.8"/>
      </g>
     </g>
     <g id="text_2">
      <text style="font-size: 7px; font-family: 'DejaVu Sans', 'Bitstream Vera Sans', 'Computer Modern Sans Serif', 'Lucida Grande', 'Verdana', 'Geneva', 'Lucid', 'Arial', 'Helvetica', 'Avant Garde', sans-serif; text-anchor: middle; fill: var(--fg-color)" x="122.345302" y="115.718359" transform="rotate(-0 122.345302 115.718359)">04/2026</text>
     </g>
    </g>
    <g id="xtick_3">
     <g id="line2d_5">
      <path d="M 176.688307 103.4 
L 176.688307 5 
" clip-path="url(#p2bf82c5017)" style="fill: none; stroke-dasharray: 2.96,1.28; stroke-dashoffset: 0; stroke: var(--grid-color); stroke-width: 0.8"/>
     </g>
     <g id="line2d_6">
      <g>
       <use xlink:href="#m4386b51044" x="176.688307" y="103.4" style="fill: var(--fg-color); stroke: var(--fg-color); stroke-width: 0.8"/>
      </g>
     </g>
     <g id="text_3">
      <text style="font-size: 7px; font-family: 'DejaVu Sans', 'Bitstream Vera Sans', 'Computer Modern Sans Serif', 'Lucida Grande', 'Verdana', 'Geneva', 'Lucid', 'Arial', 'Helvetica', 'Avant Garde', sans-serif; text-anchor: middle; fill: var(--fg-color)" x="176.688307" y="115.718359" transform="rotate(-0 176.688307 115.718359)">06/2026</text>
     </g>
    </g>
   </g>
   <g id="matplotlib.axis_2">
    <g id="ytick_1">
     <g id="line2d_7">
      <path d="M 35.96 99.564278 
L 211 99.564278 
" clip-path="url(#p2bf82c5017)" style="fill: none; stroke-dasharray: 2.96,1.28; stroke-dashoffset: 0; stroke: var(--grid-color); stroke-width: 0.8"/>
     </g>
     <g id="line2d_8">
      <defs>
       <path id="md91bf24096" d="M 0 0 
L -3.5 0 
" style="stroke: var(--fg-color); stroke-width: 0.8"/>
      </defs>
      <g>
       <use xlink:href="#md91bf24096" x="35.96" y="99.564278" style="fill: var(--fg-color); stroke: var(--fg-color); stroke-width: 0.8"/>
      </g>
     </g>
     <g id="text_4">
      <text style="font-size: 7px; font-family: 'DejaVu Sans', 'Bitstream Vera Sans', 'Computer Modern Sans Serif', 'Lucida Grande', 'Verdana', 'Geneva', 'Lucid', 'Arial', 'Helvetica', 'Avant Garde', sans-serif; text-anchor: end; fill: var(--fg-color)" x="28.96" y="102.223458" transform="rotate(-0 28.96 102.223458)">0</text>
     </g>
    </g>
    <g id="ytick_2">
     <g id="line2d_9">
      <path d="M 35.96 73.489557 
L 211 73.489557 
" clip-path="url(#p2bf82c5017)" style="fill: none; stroke-dasharray: 2.96,1.28; stroke-dashoffset: 0; stroke: var(--grid-color); stroke-width: 0.8"/>
     </g>
     <g id="line2d_10">
      <g>
       <use xlink:href="#md91bf24096" x="35.96" y="73.489557" style="fill: var(--fg-color); stroke: var(--fg-color); stroke-width: 0.8"/>
      </g>
     </g>
     <g id="text_5">
      <text style="font-size: 7px; font-family: 'DejaVu Sans', 'Bitstream Vera Sans', 'Computer Modern Sans Serif', 'Lucida Grande', 'Verdana', 'Geneva', 'Lucid', 'Arial', 'Helvetica', 'Avant Garde', sans-serif; text-anchor: end; fill: var(--fg-color)" x="28.96" y="76.148737" transform="rotate(-0 28.96 76.148737)">100</text>
     </g>
    </g>
    <g id="ytick_3">
     <g id="line2d_11">
      <path d="M 35.96 47.414836 
L 211 47.414836 
" clip-path="url(#p2bf82c5017)" style="fill: none; stroke-dasharray: 2.96,1.28; stroke-dashoffset: 0; stroke: var(--grid-color); stroke-width: 0.8"/>
     </g>
     <g id="line2d_12">
      <g>
       <use xlink:href="#md91bf24096" x="35.96" y="47.414836" style="fill: var(--fg-color); stroke: var(--fg-color); stroke-width: 0.8"/>
      </g>
     </g>
     <g id="text_6">
      <text style="font-size: 7px; font-family: 'DejaVu Sans', 'Bitstream Vera Sans', 'Computer Modern Sans Serif', 'Lucida Grande', 'Verdana', 'Geneva', 'Lucid', 'Arial', 'Helvetica', 'Avant Garde', sans-serif; text-anchor: end; fill: var(--fg-color)" x="28.96" y="50.074016" transform="rotate(-0 28.96 50.074016)">200</text>
     </g>
    </g>
    <g id="ytick_4">
     <g id="line2d_13">
      <path d="M 35.96 21.340115 
L 211 21.340115 
" clip-path="url(#p2bf82c5017)" style="fill: none; stroke-dasharray: 2.96,1.28; stroke-dashoffset: 0; stroke: var(--grid-color); stroke-width: 0.8"/>
     </g>
     <g id="line2d_14">
      <g>
       <use xlink:href="#md91bf24096" x="35.96" y="21.340115" style="fill: var(--fg-color); stroke: var(--fg-color); stroke-width: 0.8"/>
      </g>
     </g>
     <g id="text_7">
      <text style="font-size: 7px; font-family: 'DejaVu Sans', 'Bitstream Vera Sans', 'Computer Modern Sans Serif', 'Lucida Grande', 'Verdana', 'Geneva', 'Lucid', 'Arial', 'Helvetica', 'Avant Garde', sans-serif; text-anchor: end; fill: var(--fg-color)" x="28.96" y="23.999295" transform="rotate(-0 28.96 23.999295)">300</text>
     </g>
    </g>
    <g id="text_8">
     <text style="font-size: 7px; font-family: 'DejaVu Sans', 'Bitstream Vera Sans', 'Computer Modern Sans Serif', 'Lucida Grande', 'Verdana', 'Geneva', 'Lucid', 'Arial', 'Helvetica', 'Avant Garde', sans-serif; text-anchor: middle; fill: var(--fg-color)" x="9.917109" y="54.2" transform="rotate(-90 9.917109 54.2)">ms</text>
    </g>
   </g>
   <g id="line2d_15">
    <path d="M 43.916364 22.647502 
L 44.468628 26.055989 
L 45.3595 33.8346 
L 47.141245 29.49003 
L 48.032112 29.970326 
L 48.922979 29.23189 
L 49.81384 33.96028 
L 50.704717 9.472727 
L 51.595589 23.723866 
L 52.486458 28.960713 
L 53.377327 32.48054 
L 54.268192 31.14056 
L 55.159063 27.139394 
L 56.049934 27.701043 
L 56.940797 26.261458 
L 57.831669 22.97161 
L 58.722538 27.641854 
L 59.613407 25.769428 
L 60.504275 29.292123 
L 61.395144 25.34806 
L 62.286016 31.477445 
L 63.176879 27.847062 
L 64.067746 29.100995 
L 64.958622 25.135291 
L 65.84949 25.203606 
L 66.740361 29.626922 
L 67.631226 26.278928 
L 68.522078 26.068766 
L 69.412965 28.801657 
L 70.30383 30.340587 
L 71.194705 18.94098 
L 72.085571 31.495697 
L 72.976442 22.952576 
L 73.867306 25.897455 
L 74.758184 19.163919 
L 75.649039 26.173586 
L 76.539914 28.511185 
L 77.430784 31.767396 
L 78.321655 23.467552 
L 79.212509 20.651742 
L 80.103391 22.817248 
L 80.994245 27.750324 
L 81.885129 26.746187 
L 82.775998 24.155663 
L 83.666869 22.87044 
L 84.557735 28.60375 
L 85.44861 22.862879 
L 94.53997 29.487422 
L 95.248438 24.312373 
L 96.139324 20.654871 
L 97.030192 30.487127 
L 97.921065 19.78554 
L 99.702798 24.983536 
L 100.593666 22.702258 
L 101.484533 29.13776 
L 102.375401 30.622455 
L 103.266272 26.312564 
L 104.157138 34.627011 
L 105.048009 25.11052 
L 105.93888 29.006083 
L 106.829748 24.723571 
L 107.720614 26.810592 
L 108.611487 24.854727 
L 109.502352 21.451715 
L 110.393224 28.183426 
L 111.284094 23.159088 
L 112.17496 25.804629 
L 113.065834 28.076258 
L 113.956695 27.329218 
L 114.847564 28.422009 
L 115.738441 21.044428 
L 116.629309 26.27267 
L 117.520178 17.956659 
L 118.41104 29.119247 
L 119.301913 24.231802 
L 120.192782 26.811635 
L 121.083649 26.230168 
L 121.97452 28.007943 
L 125.537994 29.368261 
L 126.428869 22.856621 
L 127.319734 26.588435 
L 128.210603 31.932449 
L 129.101474 31.103273 
L 129.992342 27.288802 
L 130.883214 19.319846 
L 131.774065 25.872684 
L 132.664946 25.926137 
L 133.55582 20.372221 
L 134.446686 19.87263 
L 135.337558 22.756233 
L 136.228424 27.816554 
L 137.119294 19.000952 
L 138.010159 23.727517 
L 138.901032 20.278874 
L 139.791912 24.73739 
L 140.68277 13.648333 
L 141.57364 20.779769 
L 142.464507 16.281098 
L 143.355376 14.860286 
L 144.246246 17.45785 
L 145.137113 21.437113 
L 146.027984 24.895403 
L 146.918849 19.862461 
L 173.644977 19.862461 
L 181.959197 22.786741 
L 182.553652 27.216053 
L 183.444521 21.033476 
L 184.335387 21.97686 
L 185.226256 20.183701 
L 186.117131 22.281152 
L 187.007996 26.314129 
L 187.898864 21.950003 
L 188.789731 19.286992 
L 189.680603 23.856065 
L 190.571474 19.894793 
L 191.462343 16.647708 
L 192.353215 30.038121 
L 193.244077 23.23653 
L 194.134949 32.719906 
L 195.025817 15.905882 
L 195.916688 20.261925 
L 196.807557 22.52469 
L 197.698426 22.061081 
L 198.589295 16.687342 
L 199.480162 24.739476 
L 200.371032 14.590413 
L 201.261898 27.804821 
L 202.152766 23.827383 
L 203.043636 27.154778 
L 203.043636 27.154778 
" clip-path="url(#p2bf82c5017)" style="fill: none; stroke: #339af0; stroke-width: 1.2; stroke-linecap: square"/>
   </g>
   <g id="line2d_16">
    <path d="M 43.916364 98.837315 
L 45.3595 98.922319 
L 48.032112 98.903805 
L 48.922979 98.628456 
L 49.81384 98.917625 
L 50.704717 98.706941 
L 51.595589 98.878513 
L 54.268192 98.890768 
L 57.831669 98.862347 
L 62.286016 98.910846 
L 69.412965 98.903023 
L 76.539914 98.875384 
L 79.212509 98.859218 
L 95.248438 98.875645 
L 100.593666 98.862086 
L 102.375401 98.867301 
L 127.319734 98.831579 
L 128.210603 98.632368 
L 129.101474 98.831057 
L 133.55582 98.755701 
L 134.446686 98.552057 
L 135.337558 98.825321 
L 139.791912 98.813326 
L 140.68277 98.711635 
L 142.464507 98.821409 
L 144.246246 98.740317 
L 146.027984 98.780472 
L 146.918849 98.750486 
L 186.117131 98.826364 
L 187.007996 98.874602 
L 187.898864 98.77265 
L 188.789731 98.819063 
L 189.680603 98.752311 
L 190.571474 98.809676 
L 191.462343 98.611508 
L 192.353215 98.86365 
L 196.807557 98.861564 
L 197.698426 98.7205 
L 199.480162 98.794552 
L 201.261898 98.818541 
L 202.152766 98.529633 
L 203.043636 98.715285 
L 203.043636 98.715285 
" clip-path="url(#p2bf82c5017)" style="fill: none; stroke: #ff6b6b; stroke-width: 1.2; stroke-linecap: square"/>
   </g>
   <g id="patch_3">
    <path d="M 35.96 103.4 
L 35.96 5 
" style="fill: none; stroke: var(--fg-color); stroke-width: 0.8; stroke-linejoin: miter; stroke-linecap: square"/>
   </g>
   <g id="patch_4">
    <path d="M 35.96 103.4 
L 211 103.4 
" style="fill: none; stroke: var(--fg-color); stroke-width: 0.8; stroke-linejoin: miter; stroke-linecap: square"/>
   </g>
  </g>
 </g>
 <defs>
  <clipPath id="p2bf82c5017">
   <rect x="35.96" y="5" width="175.04" height="98.4"/>
  </clipPath>
 </defs>
</svg>
