<?xml version="1.0" encoding="utf-8" standalone="no"?>
<!DOCTYPE svg PUBLIC "-//W3C//DTD SVG 1.1//EN"
  "http://www.w3.org/Graphics/SVG/1.1/DTD/svg11.dtd">
<svg xmlns:xlink="http://www.w3.org/1999/xlink" width="737.28pt" height="552.96pt" viewBox="0 0 737.28 552.96" xmlns="http://www.w3.org/2000/svg" version="1.1">
 <metadata>
  <rdf:RDF xmlns:dc="http://purl.org/dc/elements/1.1/" xmlns:cc="http://creativecommons.org/ns#" xmlns:rdf="http://www.w3.org/1999/02/22-rdf-syntax-ns#">
   <cc:Work>
    <dc:type rdf:resource="http://purl.org/dc/dcmitype/StillImage"/>
    <dc:date>2026-06-30T04:48:16.758630</dc:date>
    <dc:format>image/svg+xml</dc:format>
    <dc:creator>
     <cc:Agent>
      <dc:title>Matplotlib v3.11.0, https://matplotlib.org/</dc:title>
     </cc:Agent>
    </dc:creator>
   </cc:Work>
  </rdf:RDF>
 </metadata>
 <defs>
  <style type="text/css">*{stroke-linejoin: round; stroke-linecap: butt}</style>
 </defs>
 <g id="figure_1">
  <g id="patch_1">
   <path d="M 0 552.96 
L 737.28 552.96 
L 737.28 0 
L 0 0 
z
" style="fill: #ffffff"/>
  </g>
  <g id="axes_1">
   <g id="patch_2">
    <path d="M 51.562344 510.837656 
L 682.837656 510.837656 
L 682.837656 26.16 
L 51.562344 26.16 
z
" style="fill: #ffffff"/>
   </g>
   <g id="matplotlib.axis_1">
    <g id="xtick_1">
     <g id="line2d_1">
      <path d="M 374.725224 510.837656 
L 374.725224 26.16 
" clip-path="url(#pfdbaeac12c)" style="fill: none; stroke-dasharray: 2.96,1.28; stroke-dashoffset: 0; stroke: #dee2e6; stroke-width: 0.8"/>
     </g>
     <g id="line2d_2">
      <defs>
       <path id="m8074535490" d="M 0 0 
L 0 3.5 
" style="stroke: #212529; stroke-width: 0.8"/>
      </defs>
      <g>
       <use xlink:href="#m8074535490" x="374.725224" y="510.837656" style="fill: #212529; stroke: #212529; stroke-width: 0.8"/>
      </g>
     </g>
     <g id="text_1">
      <text style="font-size: 10px; font-family: 'DejaVu Sans', 'Bitstream Vera Sans', 'Computer Modern Sans Serif', 'Lucida Grande', 'Verdana', 'Geneva', 'Lucid', 'Arial', 'Helvetica', 'Avant Garde', sans-serif; text-anchor: middle; fill: #212529" x="374.725224" y="525.435313" transform="rotate(-0 374.725224 525.435313)">05/2026</text>
     </g>
    </g>
    <g id="text_2">
     <text style="font-size: 10px; font-family: 'DejaVu Sans', 'Bitstream Vera Sans', 'Computer Modern Sans Serif', 'Lucida Grande', 'Verdana', 'Geneva', 'Lucid', 'Arial', 'Helvetica', 'Avant Garde', sans-serif; text-anchor: middle; fill: #212529" x="367.2" y="539.436094" transform="rotate(-0 367.2 539.436094)">Time</text>
    </g>
   </g>
   <g id="matplotlib.axis_2">
    <g id="ytick_1">
     <g id="line2d_3">
      <path d="M 51.562344 492.100222 
L 682.837656 492.100222 
" clip-path="url(#pfdbaeac12c)" style="fill: none; stroke-dasharray: 2.96,1.28; stroke-dashoffset: 0; stroke: #dee2e6; stroke-width: 0.8"/>
     </g>
     <g id="line2d_4">
      <defs>
       <path id="m47c075bccd" d="M 0 0 
L -3.5 0 
" style="stroke: #212529; stroke-width: 0.8"/>
      </defs>
      <g>
       <use xlink:href="#m47c075bccd" x="51.562344" y="492.100222" style="fill: #212529; stroke: #212529; stroke-width: 0.8"/>
      </g>
     </g>
     <g id="text_3">
      <text style="font-size: 10px; font-family: 'DejaVu Sans', 'Bitstream Vera Sans', 'Computer Modern Sans Serif', 'Lucida Grande', 'Verdana', 'Geneva', 'Lucid', 'Arial', 'Helvetica', 'Avant Garde', sans-serif; text-anchor: end; fill: #212529" x="44.562344" y="495.89905" transform="rotate(-0 44.562344 495.89905)">250</text>
     </g>
    </g>
    <g id="ytick_2">
     <g id="line2d_5">
      <path d="M 51.562344 405.614702 
L 682.837656 405.614702 
" clip-path="url(#pfdbaeac12c)" style="fill: none; stroke-dasharray: 2.96,1.28; stroke-dashoffset: 0; stroke: #dee2e6; stroke-width: 0.8"/>
     </g>
     <g id="line2d_6">
      <g>
       <use xlink:href="#m47c075bccd" x="51.562344" y="405.614702" style="fill: #212529; stroke: #212529; stroke-width: 0.8"/>
      </g>
     </g>
     <g id="text_4">
      <text style="font-size: 10px; font-family: 'DejaVu Sans', 'Bitstream Vera Sans', 'Computer Modern Sans Serif', 'Lucida Grande', 'Verdana', 'Geneva', 'Lucid', 'Arial', 'Helvetica', 'Avant Garde', sans-serif; text-anchor: end; fill: #212529" x="44.562344" y="409.41353" transform="rotate(-0 44.562344 409.41353)">300</text>
     </g>
    </g>
    <g id="ytick_3">
     <g id="line2d_7">
      <path d="M 51.562344 319.129181 
L 682.837656 319.129181 
" clip-path="url(#pfdbaeac12c)" style="fill: none; stroke-dasharray: 2.96,1.28; stroke-dashoffset: 0; stroke: #dee2e6; stroke-width: 0.8"/>
     </g>
     <g id="line2d_8">
      <g>
       <use xlink:href="#m47c075bccd" x="51.562344" y="319.129181" style="fill: #212529; stroke: #212529; stroke-width: 0.8"/>
      </g>
     </g>
     <g id="text_5">
      <text style="font-size: 10px; font-family: 'DejaVu Sans', 'Bitstream Vera Sans', 'Computer Modern Sans Serif', 'Lucida Grande', 'Verdana', 'Geneva', 'Lucid', 'Arial', 'Helvetica', 'Avant Garde', sans-serif; text-anchor: end; fill: #212529" x="44.562344" y="322.92801" transform="rotate(-0 44.562344 322.92801)">350</text>
     </g>
    </g>
    <g id="ytick_4">
     <g id="line2d_9">
      <path d="M 51.562344 232.643661 
L 682.837656 232.643661 
" clip-path="url(#pfdbaeac12c)" style="fill: none; stroke-dasharray: 2.96,1.28; stroke-dashoffset: 0; stroke: #dee2e6; stroke-width: 0.8"/>
     </g>
     <g id="line2d_10">
      <g>
       <use xlink:href="#m47c075bccd" x="51.562344" y="232.643661" style="fill: #212529; stroke: #212529; stroke-width: 0.8"/>
      </g>
     </g>
     <g id="text_6">
      <text style="font-size: 10px; font-family: 'DejaVu Sans', 'Bitstream Vera Sans', 'Computer Modern Sans Serif', 'Lucida Grande', 'Verdana', 'Geneva', 'Lucid', 'Arial', 'Helvetica', 'Avant Garde', sans-serif; text-anchor: end; fill: #212529" x="44.562344" y="236.442489" transform="rotate(-0 44.562344 236.442489)">400</text>
     </g>
    </g>
    <g id="ytick_5">
     <g id="line2d_11">
      <path d="M 51.562344 146.158141 
L 682.837656 146.158141 
" clip-path="url(#pfdbaeac12c)" style="fill: none; stroke-dasharray: 2.96,1.28; stroke-dashoffset: 0; stroke: #dee2e6; stroke-width: 0.8"/>
     </g>
     <g id="line2d_12">
      <g>
       <use xlink:href="#m47c075bccd" x="51.562344" y="146.158141" style="fill: #212529; stroke: #212529; stroke-width: 0.8"/>
      </g>
     </g>
     <g id="text_7">
      <text style="font-size: 10px; font-family: 'DejaVu Sans', 'Bitstream Vera Sans', 'Computer Modern Sans Serif', 'Lucida Grande', 'Verdana', 'Geneva', 'Lucid', 'Arial', 'Helvetica', 'Avant Garde', sans-serif; text-anchor: end; fill: #212529" x="44.562344" y="149.956969" transform="rotate(-0 44.562344 149.956969)">450</text>
     </g>
    </g>
    <g id="ytick_6">
     <g id="line2d_13">
      <path d="M 51.562344 59.67262 
L 682.837656 59.67262 
" clip-path="url(#pfdbaeac12c)" style="fill: none; stroke-dasharray: 2.96,1.28; stroke-dashoffset: 0; stroke: #dee2e6; stroke-width: 0.8"/>
     </g>
     <g id="line2d_14">
      <g>
       <use xlink:href="#m47c075bccd" x="51.562344" y="59.67262" style="fill: #212529; stroke: #212529; stroke-width: 0.8"/>
      </g>
     </g>
     <g id="text_8">
      <text style="font-size: 10px; font-family: 'DejaVu Sans', 'Bitstream Vera Sans', 'Computer Modern Sans Serif', 'Lucida Grande', 'Verdana', 'Geneva', 'Lucid', 'Arial', 'Helvetica', 'Avant Garde', sans-serif; text-anchor: end; fill: #212529" x="44.562344" y="63.471448" transform="rotate(-0 44.562344 63.471448)">500</text>
     </g>
    </g>
    <g id="text_9">
     <text style="font-size: 10px; font-family: 'DejaVu Sans', 'Bitstream Vera Sans', 'Computer Modern Sans Serif', 'Lucida Grande', 'Verdana', 'Geneva', 'Lucid', 'Arial', 'Helvetica', 'Avant Garde', sans-serif; text-anchor: middle; fill: #212529" x="19.0725" y="268.498828" transform="rotate(-90 19.0725 268.498828)">Duration [ms]</text>
    </g>
   </g>
   <g id="line2d_15">
    <path d="M 80.256676 406.265073 
L 85.57043 379.269483 
L 90.884185 373.646194 
L 96.197942 431.278415 
L 101.511718 430.169671 
L 106.825461 351.521468 
L 112.139237 347.133193 
L 117.453009 428.637147 
L 122.766768 430.59345 
L 128.080513 435.647664 
L 133.394298 394.15883 
L 138.708042 343.504261 
L 144.021822 380.815844 
L 149.335592 445.802794 
L 154.649338 382.625121 
L 159.963131 417.682891 
L 165.276841 428.151099 
L 170.590609 329.631983 
L 175.904417 400.458435 
L 181.218175 383.875701 
L 186.531939 48.190803 
L 191.845661 323.14211 
L 197.159444 383.830729 
L 202.47321 290.139235 
L 207.786964 251.423127 
L 213.100735 381.203299 
L 234.355776 342.269247 
L 239.669577 299.5454 
L 244.983317 195.427212 
L 250.297081 247.081554 
L 255.610853 383.872242 
L 260.924612 267.896889 
L 266.238393 335.578727 
L 271.552048 346.633307 
L 276.865883 402.70187 
L 282.179676 396.158375 
L 287.493419 457.106451 
L 292.807201 432.700237 
L 298.120947 371.593028 
L 303.434714 317.376985 
L 308.748458 420.903612 
L 314.062241 350.658343 
L 319.376071 409.849033 
L 324.689767 127.658888 
L 330.003539 351.248174 
L 335.317287 335.589106 
L 340.631052 378.184954 
L 345.94482 408.752397 
L 351.25857 290.184208 
L 356.572347 444.564321 
L 361.886085 397.182364 
L 521.299331 397.182364 
L 570.891126 472.395361 
L 574.43687 488.806854 
L 579.750632 337.168331 
L 585.064382 423.48261 
L 590.378143 449.651399 
L 595.691939 402.537547 
L 601.005684 438.346012 
L 606.319438 459.782313 
L 611.63319 479.314203 
L 616.94697 374.50413 
L 622.260745 456.172407 
L 627.574508 48.280747 
L 632.888292 126.825167 
L 638.202013 370.396068 
L 643.515793 364.418189 
L 648.82955 321.118348 
L 654.143324 361.858218 
" clip-path="url(#pfdbaeac12c)" style="fill: none; stroke: #007bff; stroke-width: 1.5; stroke-linecap: square"/>
    <defs>
     <path id="m92d65b3c7d" d="M 0 2 
C 0.530406 2 1.03916 1.789267 1.414214 1.414214 
C 1.789267 1.03916 2 0.530406 2 0 
C 2 -0.530406 1.789267 -1.03916 1.414214 -1.414214 
C 1.03916 -1.789267 0.530406 -2 0 -2 
C -0.530406 -2 -1.03916 -1.789267 -1.414214 -1.414214 
C -1.789267 -1.03916 -2 -0.530406 -2 0 
C -2 0.530406 -1.789267 1.03916 -1.414214 1.414214 
C -1.03916 1.789267 -0.530406 2 0 2 
z
" style="stroke: #007bff"/>
    </defs>
    <g clip-path="url(#pfdbaeac12c)">
     <use xlink:href="#m92d65b3c7d" x="80.256676" y="406.265073" style="fill: #007bff; stroke: #007bff"/>
     <use xlink:href="#m92d65b3c7d" x="85.57043" y="379.269483" style="fill: #007bff; stroke: #007bff"/>
     <use xlink:href="#m92d65b3c7d" x="90.884185" y="373.646194" style="fill: #007bff; stroke: #007bff"/>
     <use xlink:href="#m92d65b3c7d" x="96.197942" y="431.278415" style="fill: #007bff; stroke: #007bff"/>
     <use xlink:href="#m92d65b3c7d" x="101.511718" y="430.169671" style="fill: #007bff; stroke: #007bff"/>
     <use xlink:href="#m92d65b3c7d" x="106.825461" y="351.521468" style="fill: #007bff; stroke: #007bff"/>
     <use xlink:href="#m92d65b3c7d" x="112.139237" y="347.133193" style="fill: #007bff; stroke: #007bff"/>
     <use xlink:href="#m92d65b3c7d" x="117.453009" y="428.637147" style="fill: #007bff; stroke: #007bff"/>
     <use xlink:href="#m92d65b3c7d" x="122.766768" y="430.59345" style="fill: #007bff; stroke: #007bff"/>
     <use xlink:href="#m92d65b3c7d" x="128.080513" y="435.647664" style="fill: #007bff; stroke: #007bff"/>
     <use xlink:href="#m92d65b3c7d" x="133.394298" y="394.15883" style="fill: #007bff; stroke: #007bff"/>
     <use xlink:href="#m92d65b3c7d" x="138.708042" y="343.504261" style="fill: #007bff; stroke: #007bff"/>
     <use xlink:href="#m92d65b3c7d" x="144.021822" y="380.815844" style="fill: #007bff; stroke: #007bff"/>
     <use xlink:href="#m92d65b3c7d" x="149.335592" y="445.802794" style="fill: #007bff; stroke: #007bff"/>
     <use xlink:href="#m92d65b3c7d" x="154.649338" y="382.625121" style="fill: #007bff; stroke: #007bff"/>
     <use xlink:href="#m92d65b3c7d" x="159.963131" y="417.682891" style="fill: #007bff; stroke: #007bff"/>
     <use xlink:href="#m92d65b3c7d" x="165.276841" y="428.151099" style="fill: #007bff; stroke: #007bff"/>
     <use xlink:href="#m92d65b3c7d" x="170.590609" y="329.631983" style="fill: #007bff; stroke: #007bff"/>
     <use xlink:href="#m92d65b3c7d" x="175.904417" y="400.458435" style="fill: #007bff; stroke: #007bff"/>
     <use xlink:href="#m92d65b3c7d" x="181.218175" y="383.875701" style="fill: #007bff; stroke: #007bff"/>
     <use xlink:href="#m92d65b3c7d" x="186.531939" y="48.190803" style="fill: #007bff; stroke: #007bff"/>
     <use xlink:href="#m92d65b3c7d" x="191.845661" y="323.14211" style="fill: #007bff; stroke: #007bff"/>
     <use xlink:href="#m92d65b3c7d" x="197.159444" y="383.830729" style="fill: #007bff; stroke: #007bff"/>
     <use xlink:href="#m92d65b3c7d" x="202.47321" y="290.139235" style="fill: #007bff; stroke: #007bff"/>
     <use xlink:href="#m92d65b3c7d" x="207.786964" y="251.423127" style="fill: #007bff; stroke: #007bff"/>
     <use xlink:href="#m92d65b3c7d" x="213.100735" y="381.203299" style="fill: #007bff; stroke: #007bff"/>
     <use xlink:href="#m92d65b3c7d" x="234.355776" y="342.269247" style="fill: #007bff; stroke: #007bff"/>
     <use xlink:href="#m92d65b3c7d" x="239.669577" y="299.5454" style="fill: #007bff; stroke: #007bff"/>
     <use xlink:href="#m92d65b3c7d" x="244.983317" y="195.427212" style="fill: #007bff; stroke: #007bff"/>
     <use xlink:href="#m92d65b3c7d" x="250.297081" y="247.081554" style="fill: #007bff; stroke: #007bff"/>
     <use xlink:href="#m92d65b3c7d" x="255.610853" y="383.872242" style="fill: #007bff; stroke: #007bff"/>
     <use xlink:href="#m92d65b3c7d" x="260.924612" y="267.896889" style="fill: #007bff; stroke: #007bff"/>
     <use xlink:href="#m92d65b3c7d" x="266.238393" y="335.578727" style="fill: #007bff; stroke: #007bff"/>
     <use xlink:href="#m92d65b3c7d" x="271.552048" y="346.633307" style="fill: #007bff; stroke: #007bff"/>
     <use xlink:href="#m92d65b3c7d" x="276.865883" y="402.70187" style="fill: #007bff; stroke: #007bff"/>
     <use xlink:href="#m92d65b3c7d" x="282.179676" y="396.158375" style="fill: #007bff; stroke: #007bff"/>
     <use xlink:href="#m92d65b3c7d" x="287.493419" y="457.106451" style="fill: #007bff; stroke: #007bff"/>
     <use xlink:href="#m92d65b3c7d" x="292.807201" y="432.700237" style="fill: #007bff; stroke: #007bff"/>
     <use xlink:href="#m92d65b3c7d" x="298.120947" y="371.593028" style="fill: #007bff; stroke: #007bff"/>
     <use xlink:href="#m92d65b3c7d" x="303.434714" y="317.376985" style="fill: #007bff; stroke: #007bff"/>
     <use xlink:href="#m92d65b3c7d" x="308.748458" y="420.903612" style="fill: #007bff; stroke: #007bff"/>
     <use xlink:href="#m92d65b3c7d" x="314.062241" y="350.658343" style="fill: #007bff; stroke: #007bff"/>
     <use xlink:href="#m92d65b3c7d" x="319.376071" y="409.849033" style="fill: #007bff; stroke: #007bff"/>
     <use xlink:href="#m92d65b3c7d" x="324.689767" y="127.658888" style="fill: #007bff; stroke: #007bff"/>
     <use xlink:href="#m92d65b3c7d" x="330.003539" y="351.248174" style="fill: #007bff; stroke: #007bff"/>
     <use xlink:href="#m92d65b3c7d" x="335.317287" y="335.589106" style="fill: #007bff; stroke: #007bff"/>
     <use xlink:href="#m92d65b3c7d" x="340.631052" y="378.184954" style="fill: #007bff; stroke: #007bff"/>
     <use xlink:href="#m92d65b3c7d" x="345.94482" y="408.752397" style="fill: #007bff; stroke: #007bff"/>
     <use xlink:href="#m92d65b3c7d" x="351.25857" y="290.184208" style="fill: #007bff; stroke: #007bff"/>
     <use xlink:href="#m92d65b3c7d" x="356.572347" y="444.564321" style="fill: #007bff; stroke: #007bff"/>
     <use xlink:href="#m92d65b3c7d" x="361.886085" y="397.182364" style="fill: #007bff; stroke: #007bff"/>
     <use xlink:href="#m92d65b3c7d" x="521.299331" y="397.182364" style="fill: #007bff; stroke: #007bff"/>
     <use xlink:href="#m92d65b3c7d" x="570.891126" y="472.395361" style="fill: #007bff; stroke: #007bff"/>
     <use xlink:href="#m92d65b3c7d" x="574.43687" y="488.806854" style="fill: #007bff; stroke: #007bff"/>
     <use xlink:href="#m92d65b3c7d" x="579.750632" y="337.168331" style="fill: #007bff; stroke: #007bff"/>
     <use xlink:href="#m92d65b3c7d" x="585.064382" y="423.48261" style="fill: #007bff; stroke: #007bff"/>
     <use xlink:href="#m92d65b3c7d" x="590.378143" y="449.651399" style="fill: #007bff; stroke: #007bff"/>
     <use xlink:href="#m92d65b3c7d" x="595.691939" y="402.537547" style="fill: #007bff; stroke: #007bff"/>
     <use xlink:href="#m92d65b3c7d" x="601.005684" y="438.346012" style="fill: #007bff; stroke: #007bff"/>
     <use xlink:href="#m92d65b3c7d" x="606.319438" y="459.782313" style="fill: #007bff; stroke: #007bff"/>
     <use xlink:href="#m92d65b3c7d" x="611.63319" y="479.314203" style="fill: #007bff; stroke: #007bff"/>
     <use xlink:href="#m92d65b3c7d" x="616.94697" y="374.50413" style="fill: #007bff; stroke: #007bff"/>
     <use xlink:href="#m92d65b3c7d" x="622.260745" y="456.172407" style="fill: #007bff; stroke: #007bff"/>
     <use xlink:href="#m92d65b3c7d" x="627.574508" y="48.280747" style="fill: #007bff; stroke: #007bff"/>
     <use xlink:href="#m92d65b3c7d" x="632.888292" y="126.825167" style="fill: #007bff; stroke: #007bff"/>
     <use xlink:href="#m92d65b3c7d" x="638.202013" y="370.396068" style="fill: #007bff; stroke: #007bff"/>
     <use xlink:href="#m92d65b3c7d" x="643.515793" y="364.418189" style="fill: #007bff; stroke: #007bff"/>
     <use xlink:href="#m92d65b3c7d" x="648.82955" y="321.118348" style="fill: #007bff; stroke: #007bff"/>
     <use xlink:href="#m92d65b3c7d" x="654.143324" y="361.858218" style="fill: #007bff; stroke: #007bff"/>
    </g>
   </g>
   <g id="line2d_16">
    <path d="M 80.256676 208.067936 
L 85.57043 186.311638 
L 90.884185 165.292197 
L 96.197942 238.654405 
L 101.511718 211.724543 
L 106.825461 225.823413 
L 112.139237 175.002791 
L 117.453009 216.548706 
L 122.766768 230.507469 
L 128.080513 204.151871 
L 133.394298 183.203348 
L 138.708042 197.94913 
L 144.021822 229.358941 
L 149.335592 250.912862 
L 154.649338 207.474645 
L 159.963131 188.733233 
L 165.276841 187.320059 
L 170.590609 201.330714 
L 175.904417 183.13416 
L 181.218175 234.850772 
L 186.531939 211.034389 
L 191.845661 226.812807 
L 197.159444 213.701602 
L 202.47321 238.673432 
L 207.786964 212.252105 
L 213.100735 213.578793 
L 234.355776 203.805929 
L 239.669577 240.813083 
L 244.983317 217.17832 
L 250.297081 204.357707 
L 255.610853 177.45725 
L 260.924612 215.671743 
L 266.238393 236.153243 
L 271.552048 225.12288 
L 276.865883 200.880989 
L 282.179676 212.99761 
L 287.493419 206.921138 
L 292.807201 210.164345 
L 298.120947 213.589171 
L 303.434714 177.183956 
L 308.748458 191.780982 
L 314.062241 192.666594 
L 319.376071 206.630546 
L 324.689767 236.639292 
L 330.003539 241.750586 
L 335.317287 232.041722 
L 340.631052 244.704932 
L 345.94482 253.692507 
L 351.25857 240.669517 
L 356.572347 258.994069 
L 361.886085 245.618219 
L 521.299331 245.618219 
L 570.891126 239.668015 
L 574.43687 252.071768 
L 579.750632 229.831152 
L 585.064382 211.816218 
L 590.378143 240.923785 
L 595.691939 241.224754 
L 601.005684 242.459768 
L 606.319438 247.481117 
L 611.63319 262.57457 
L 616.94697 249.892333 
L 622.260745 263.454993 
L 627.574508 234.042997 
L 632.888292 223.659545 
L 638.202013 224.375645 
L 643.515793 216.844486 
L 648.82955 244.95574 
L 654.143324 237.48858 
" clip-path="url(#pfdbaeac12c)" style="fill: none; stroke: #dc3545; stroke-width: 1.5; stroke-linecap: square"/>
    <defs>
     <path id="m33c8b8508a" d="M 0 2 
C 0.530406 2 1.03916 1.789267 1.414214 1.414214 
C 1.789267 1.03916 2 0.530406 2 0 
C 2 -0.530406 1.789267 -1.03916 1.414214 -1.414214 
C 1.03916 -1.789267 0.530406 -2 0 -2 
C -0.530406 -2 -1.03916 -1.789267 -1.414214 -1.414214 
C -1.789267 -1.03916 -2 -0.530406 -2 0 
C -2 0.530406 -1.789267 1.03916 -1.414214 1.414214 
C -1.03916 1.789267 -0.530406 2 0 2 
z
" style="stroke: #dc3545"/>
    </defs>
    <g clip-path="url(#pfdbaeac12c)">
     <use xlink:href="#m33c8b8508a" x="80.256676" y="208.067936" style="fill: #dc3545; stroke: #dc3545"/>
     <use xlink:href="#m33c8b8508a" x="85.57043" y="186.311638" style="fill: #dc3545; stroke: #dc3545"/>
     <use xlink:href="#m33c8b8508a" x="90.884185" y="165.292197" style="fill: #dc3545; stroke: #dc3545"/>
     <use xlink:href="#m33c8b8508a" x="96.197942" y="238.654405" style="fill: #dc3545; stroke: #dc3545"/>
     <use xlink:href="#m33c8b8508a" x="101.511718" y="211.724543" style="fill: #dc3545; stroke: #dc3545"/>
     <use xlink:href="#m33c8b8508a" x="106.825461" y="225.823413" style="fill: #dc3545; stroke: #dc3545"/>
     <use xlink:href="#m33c8b8508a" x="112.139237" y="175.002791" style="fill: #dc3545; stroke: #dc3545"/>
     <use xlink:href="#m33c8b8508a" x="117.453009" y="216.548706" style="fill: #dc3545; stroke: #dc3545"/>
     <use xlink:href="#m33c8b8508a" x="122.766768" y="230.507469" style="fill: #dc3545; stroke: #dc3545"/>
     <use xlink:href="#m33c8b8508a" x="128.080513" y="204.151871" style="fill: #dc3545; stroke: #dc3545"/>
     <use xlink:href="#m33c8b8508a" x="133.394298" y="183.203348" style="fill: #dc3545; stroke: #dc3545"/>
     <use xlink:href="#m33c8b8508a" x="138.708042" y="197.94913" style="fill: #dc3545; stroke: #dc3545"/>
     <use xlink:href="#m33c8b8508a" x="144.021822" y="229.358941" style="fill: #dc3545; stroke: #dc3545"/>
     <use xlink:href="#m33c8b8508a" x="149.335592" y="250.912862" style="fill: #dc3545; stroke: #dc3545"/>
     <use xlink:href="#m33c8b8508a" x="154.649338" y="207.474645" style="fill: #dc3545; stroke: #dc3545"/>
     <use xlink:href="#m33c8b8508a" x="159.963131" y="188.733233" style="fill: #dc3545; stroke: #dc3545"/>
     <use xlink:href="#m33c8b8508a" x="165.276841" y="187.320059" style="fill: #dc3545; stroke: #dc3545"/>
     <use xlink:href="#m33c8b8508a" x="170.590609" y="201.330714" style="fill: #dc3545; stroke: #dc3545"/>
     <use xlink:href="#m33c8b8508a" x="175.904417" y="183.13416" style="fill: #dc3545; stroke: #dc3545"/>
     <use xlink:href="#m33c8b8508a" x="181.218175" y="234.850772" style="fill: #dc3545; stroke: #dc3545"/>
     <use xlink:href="#m33c8b8508a" x="186.531939" y="211.034389" style="fill: #dc3545; stroke: #dc3545"/>
     <use xlink:href="#m33c8b8508a" x="191.845661" y="226.812807" style="fill: #dc3545; stroke: #dc3545"/>
     <use xlink:href="#m33c8b8508a" x="197.159444" y="213.701602" style="fill: #dc3545; stroke: #dc3545"/>
     <use xlink:href="#m33c8b8508a" x="202.47321" y="238.673432" style="fill: #dc3545; stroke: #dc3545"/>
     <use xlink:href="#m33c8b8508a" x="207.786964" y="212.252105" style="fill: #dc3545; stroke: #dc3545"/>
     <use xlink:href="#m33c8b8508a" x="213.100735" y="213.578793" style="fill: #dc3545; stroke: #dc3545"/>
     <use xlink:href="#m33c8b8508a" x="234.355776" y="203.805929" style="fill: #dc3545; stroke: #dc3545"/>
     <use xlink:href="#m33c8b8508a" x="239.669577" y="240.813083" style="fill: #dc3545; stroke: #dc3545"/>
     <use xlink:href="#m33c8b8508a" x="244.983317" y="217.17832" style="fill: #dc3545; stroke: #dc3545"/>
     <use xlink:href="#m33c8b8508a" x="250.297081" y="204.357707" style="fill: #dc3545; stroke: #dc3545"/>
     <use xlink:href="#m33c8b8508a" x="255.610853" y="177.45725" style="fill: #dc3545; stroke: #dc3545"/>
     <use xlink:href="#m33c8b8508a" x="260.924612" y="215.671743" style="fill: #dc3545; stroke: #dc3545"/>
     <use xlink:href="#m33c8b8508a" x="266.238393" y="236.153243" style="fill: #dc3545; stroke: #dc3545"/>
     <use xlink:href="#m33c8b8508a" x="271.552048" y="225.12288" style="fill: #dc3545; stroke: #dc3545"/>
     <use xlink:href="#m33c8b8508a" x="276.865883" y="200.880989" style="fill: #dc3545; stroke: #dc3545"/>
     <use xlink:href="#m33c8b8508a" x="282.179676" y="212.99761" style="fill: #dc3545; stroke: #dc3545"/>
     <use xlink:href="#m33c8b8508a" x="287.493419" y="206.921138" style="fill: #dc3545; stroke: #dc3545"/>
     <use xlink:href="#m33c8b8508a" x="292.807201" y="210.164345" style="fill: #dc3545; stroke: #dc3545"/>
     <use xlink:href="#m33c8b8508a" x="298.120947" y="213.589171" style="fill: #dc3545; stroke: #dc3545"/>
     <use xlink:href="#m33c8b8508a" x="303.434714" y="177.183956" style="fill: #dc3545; stroke: #dc3545"/>
     <use xlink:href="#m33c8b8508a" x="308.748458" y="191.780982" style="fill: #dc3545; stroke: #dc3545"/>
     <use xlink:href="#m33c8b8508a" x="314.062241" y="192.666594" style="fill: #dc3545; stroke: #dc3545"/>
     <use xlink:href="#m33c8b8508a" x="319.376071" y="206.630546" style="fill: #dc3545; stroke: #dc3545"/>
     <use xlink:href="#m33c8b8508a" x="324.689767" y="236.639292" style="fill: #dc3545; stroke: #dc3545"/>
     <use xlink:href="#m33c8b8508a" x="330.003539" y="241.750586" style="fill: #dc3545; stroke: #dc3545"/>
     <use xlink:href="#m33c8b8508a" x="335.317287" y="232.041722" style="fill: #dc3545; stroke: #dc3545"/>
     <use xlink:href="#m33c8b8508a" x="340.631052" y="244.704932" style="fill: #dc3545; stroke: #dc3545"/>
     <use xlink:href="#m33c8b8508a" x="345.94482" y="253.692507" style="fill: #dc3545; stroke: #dc3545"/>
     <use xlink:href="#m33c8b8508a" x="351.25857" y="240.669517" style="fill: #dc3545; stroke: #dc3545"/>
     <use xlink:href="#m33c8b8508a" x="356.572347" y="258.994069" style="fill: #dc3545; stroke: #dc3545"/>
     <use xlink:href="#m33c8b8508a" x="361.886085" y="245.618219" style="fill: #dc3545; stroke: #dc3545"/>
     <use xlink:href="#m33c8b8508a" x="521.299331" y="245.618219" style="fill: #dc3545; stroke: #dc3545"/>
     <use xlink:href="#m33c8b8508a" x="570.891126" y="239.668015" style="fill: #dc3545; stroke: #dc3545"/>
     <use xlink:href="#m33c8b8508a" x="574.43687" y="252.071768" style="fill: #dc3545; stroke: #dc3545"/>
     <use xlink:href="#m33c8b8508a" x="579.750632" y="229.831152" style="fill: #dc3545; stroke: #dc3545"/>
     <use xlink:href="#m33c8b8508a" x="585.064382" y="211.816218" style="fill: #dc3545; stroke: #dc3545"/>
     <use xlink:href="#m33c8b8508a" x="590.378143" y="240.923785" style="fill: #dc3545; stroke: #dc3545"/>
     <use xlink:href="#m33c8b8508a" x="595.691939" y="241.224754" style="fill: #dc3545; stroke: #dc3545"/>
     <use xlink:href="#m33c8b8508a" x="601.005684" y="242.459768" style="fill: #dc3545; stroke: #dc3545"/>
     <use xlink:href="#m33c8b8508a" x="606.319438" y="247.481117" style="fill: #dc3545; stroke: #dc3545"/>
     <use xlink:href="#m33c8b8508a" x="611.63319" y="262.57457" style="fill: #dc3545; stroke: #dc3545"/>
     <use xlink:href="#m33c8b8508a" x="616.94697" y="249.892333" style="fill: #dc3545; stroke: #dc3545"/>
     <use xlink:href="#m33c8b8508a" x="622.260745" y="263.454993" style="fill: #dc3545; stroke: #dc3545"/>
     <use xlink:href="#m33c8b8508a" x="627.574508" y="234.042997" style="fill: #dc3545; stroke: #dc3545"/>
     <use xlink:href="#m33c8b8508a" x="632.888292" y="223.659545" style="fill: #dc3545; stroke: #dc3545"/>
     <use xlink:href="#m33c8b8508a" x="638.202013" y="224.375645" style="fill: #dc3545; stroke: #dc3545"/>
     <use xlink:href="#m33c8b8508a" x="643.515793" y="216.844486" style="fill: #dc3545; stroke: #dc3545"/>
     <use xlink:href="#m33c8b8508a" x="648.82955" y="244.95574" style="fill: #dc3545; stroke: #dc3545"/>
     <use xlink:href="#m33c8b8508a" x="654.143324" y="237.48858" style="fill: #dc3545; stroke: #dc3545"/>
    </g>
   </g>
   <g id="patch_3">
    <path d="M 51.562344 510.837656 
L 51.562344 26.16 
" style="fill: none; stroke: #212529; stroke-width: 0.8; stroke-linejoin: miter; stroke-linecap: square"/>
   </g>
   <g id="patch_4">
    <path d="M 51.562344 510.837656 
L 682.837656 510.837656 
" style="fill: none; stroke: #212529; stroke-width: 0.8; stroke-linejoin: miter; stroke-linecap: square"/>
   </g>
   <g id="patch_5">
    <path d="M 51.562344 26.16 
L 682.837656 26.16 
" style="fill: none; stroke: #212529; stroke-width: 0.8; stroke-linejoin: miter; stroke-linecap: square"/>
   </g>
   <g id="legend_1">
    <g id="patch_6">
     <path d="M 57.393344 70.310952 
L 131.246603 70.310952 
Q 132.912603 70.310952 132.912603 68.644952 
L 132.912603 31.991 
Q 132.912603 30.325 131.246603 30.325 
L 57.393344 30.325 
Q 55.727344 30.325 55.727344 31.991 
L 55.727344 68.644952 
Q 55.727344 70.310952 57.393344 70.310952 
L 57.393344 70.310952 
z
" style="fill: none; opacity: 0.8; stroke: #212529; stroke-linejoin: miter"/>
    </g>
    <g id="line2d_17">
     <path d="M 59.059344 37.070998 
L 67.389344 37.070998 
L 75.719344 37.070998 
" style="fill: none; stroke: #007bff; stroke-width: 1.5; stroke-linecap: square"/>
     <g>
      <use xlink:href="#m92d65b3c7d" x="67.389344" y="37.070998" style="fill: #007bff; stroke: #007bff"/>
     </g>
    </g>
    <g id="text_10">
     <text style="font-size: 8.33px; font-family: 'DejaVu Sans', 'Bitstream Vera Sans', 'Computer Modern Sans Serif', 'Lucida Grande', 'Verdana', 'Geneva', 'Lucid', 'Arial', 'Helvetica', 'Avant Garde', sans-serif; text-anchor: start; fill: #212529" x="82.383344" y="39.986498" transform="rotate(-0 82.383344 39.986498)">Cold Start</text>
    </g>
    <g id="line2d_18">
     <path d="M 59.059344 49.566649 
L 67.389344 49.566649 
L 75.719344 49.566649 
" style="fill: none; stroke: #dc3545; stroke-width: 1.5; stroke-linecap: square"/>
     <g>
      <use xlink:href="#m33c8b8508a" x="67.389344" y="49.566649" style="fill: #dc3545; stroke: #dc3545"/>
     </g>
    </g>
    <g id="text_11">
     <text style="font-size: 8.33px; font-family: 'DejaVu Sans', 'Bitstream Vera Sans', 'Computer Modern Sans Serif', 'Lucida Grande', 'Verdana', 'Geneva', 'Lucid', 'Arial', 'Helvetica', 'Avant Garde', sans-serif; text-anchor: start; fill: #212529" x="82.383344" y="52.482149" transform="rotate(-0 82.383344 52.482149)">Warm Start</text>
    </g>
    <g id="line2d_19">
     <path d="M 59.059344 62.0623 
L 67.389344 62.0623 
L 75.719344 62.0623 
" style="fill: none; stroke-dasharray: 5.55,2.4; stroke-dashoffset: 0; stroke: #ff7f0e; stroke-width: 1.5"/>
    </g>
    <g id="text_12">
     <text style="font-size: 8.33px; font-family: 'DejaVu Sans', 'Bitstream Vera Sans', 'Computer Modern Sans Serif', 'Lucida Grande', 'Verdana', 'Geneva', 'Lucid', 'Arial', 'Helvetica', 'Avant Garde', sans-serif; text-anchor: start; fill: #212529" x="82.383344" y="64.9778" transform="rotate(-0 82.383344 64.9778)">Memory</text>
    </g>
   </g>
  </g>
  <g id="axes_2">
   <g id="matplotlib.axis_3">
    <g id="ytick_7">
     <g id="line2d_20">
      <defs>
       <path id="m69626c01de" d="M 0 0 
L 3.5 0 
" style="stroke: #212529; stroke-width: 0.8"/>
      </defs>
      <g>
       <use xlink:href="#m69626c01de" x="682.837656" y="459.43245" style="fill: #212529; stroke: #212529; stroke-width: 0.8"/>
      </g>
     </g>
     <g id="text_13">
      <text style="font-size: 10px; font-family: 'DejaVu Sans', 'Bitstream Vera Sans', 'Computer Modern Sans Serif', 'Lucida Grande', 'Verdana', 'Geneva', 'Lucid', 'Arial', 'Helvetica', 'Avant Garde', sans-serif; text-anchor: start; fill: #ff7f0e" x="689.837656" y="463.231278" transform="rotate(-0 689.837656 463.231278)">70.6</text>
     </g>
    </g>
    <g id="ytick_8">
     <g id="line2d_21">
      <g>
       <use xlink:href="#m69626c01de" x="682.837656" y="400.683643" style="fill: #212529; stroke: #212529; stroke-width: 0.8"/>
      </g>
     </g>
     <g id="text_14">
      <text style="font-size: 10px; font-family: 'DejaVu Sans', 'Bitstream Vera Sans', 'Computer Modern Sans Serif', 'Lucida Grande', 'Verdana', 'Geneva', 'Lucid', 'Arial', 'Helvetica', 'Avant Garde', sans-serif; text-anchor: start; fill: #ff7f0e" x="689.837656" y="404.482472" transform="rotate(-0 689.837656 404.482472)">70.8</text>
     </g>
    </g>
    <g id="ytick_9">
     <g id="line2d_22">
      <g>
       <use xlink:href="#m69626c01de" x="682.837656" y="341.934837" style="fill: #212529; stroke: #212529; stroke-width: 0.8"/>
      </g>
     </g>
     <g id="text_15">
      <text style="font-size: 10px; font-family: 'DejaVu Sans', 'Bitstream Vera Sans', 'Computer Modern Sans Serif', 'Lucida Grande', 'Verdana', 'Geneva', 'Lucid', 'Arial', 'Helvetica', 'Avant Garde', sans-serif; text-anchor: start; fill: #ff7f0e" x="689.837656" y="345.733665" transform="rotate(-0 689.837656 345.733665)">71.0</text>
     </g>
    </g>
    <g id="ytick_10">
     <g id="line2d_23">
      <g>
       <use xlink:href="#m69626c01de" x="682.837656" y="283.18603" style="fill: #212529; stroke: #212529; stroke-width: 0.8"/>
      </g>
     </g>
     <g id="text_16">
      <text style="font-size: 10px; font-family: 'DejaVu Sans', 'Bitstream Vera Sans', 'Computer Modern Sans Serif', 'Lucida Grande', 'Verdana', 'Geneva', 'Lucid', 'Arial', 'Helvetica', 'Avant Garde', sans-serif; text-anchor: start; fill: #ff7f0e" x="689.837656" y="286.984858" transform="rotate(-0 689.837656 286.984858)">71.2</text>
     </g>
    </g>
    <g id="ytick_11">
     <g id="line2d_24">
      <g>
       <use xlink:href="#m69626c01de" x="682.837656" y="224.437223" style="fill: #212529; stroke: #212529; stroke-width: 0.8"/>
      </g>
     </g>
     <g id="text_17">
      <text style="font-size: 10px; font-family: 'DejaVu Sans', 'Bitstream Vera Sans', 'Computer Modern Sans Serif', 'Lucida Grande', 'Verdana', 'Geneva', 'Lucid', 'Arial', 'Helvetica', 'Avant Garde', sans-serif; text-anchor: start; fill: #ff7f0e" x="689.837656" y="228.236051" transform="rotate(-0 689.837656 228.236051)">71.4</text>
     </g>
    </g>
    <g id="ytick_12">
     <g id="line2d_25">
      <g>
       <use xlink:href="#m69626c01de" x="682.837656" y="165.688416" style="fill: #212529; stroke: #212529; stroke-width: 0.8"/>
      </g>
     </g>
     <g id="text_18">
      <text style="font-size: 10px; font-family: 'DejaVu Sans', 'Bitstream Vera Sans', 'Computer Modern Sans Serif', 'Lucida Grande', 'Verdana', 'Geneva', 'Lucid', 'Arial', 'Helvetica', 'Avant Garde', sans-serif; text-anchor: start; fill: #ff7f0e" x="689.837656" y="169.487244" transform="rotate(-0 689.837656 169.487244)">71.6</text>
     </g>
    </g>
    <g id="ytick_13">
     <g id="line2d_26">
      <g>
       <use xlink:href="#m69626c01de" x="682.837656" y="106.939609" style="fill: #212529; stroke: #212529; stroke-width: 0.8"/>
      </g>
     </g>
     <g id="text_19">
      <text style="font-size: 10px; font-family: 'DejaVu Sans', 'Bitstream Vera Sans', 'Computer Modern Sans Serif', 'Lucida Grande', 'Verdana', 'Geneva', 'Lucid', 'Arial', 'Helvetica', 'Avant Garde', sans-serif; text-anchor: start; fill: #ff7f0e" x="689.837656" y="110.738437" transform="rotate(-0 689.837656 110.738437)">71.8</text>
     </g>
    </g>
    <g id="ytick_14">
     <g id="line2d_27">
      <g>
       <use xlink:href="#m69626c01de" x="682.837656" y="48.190803" style="fill: #212529; stroke: #212529; stroke-width: 0.8"/>
      </g>
     </g>
     <g id="text_20">
      <text style="font-size: 10px; font-family: 'DejaVu Sans', 'Bitstream Vera Sans', 'Computer Modern Sans Serif', 'Lucida Grande', 'Verdana', 'Geneva', 'Lucid', 'Arial', 'Helvetica', 'Avant Garde', sans-serif; text-anchor: start; fill: #ff7f0e" x="689.837656" y="51.989631" transform="rotate(-0 689.837656 51.989631)">72.0</text>
     </g>
    </g>
    <g id="text_21">
     <text style="font-size: 10px; font-family: 'DejaVu Sans', 'Bitstream Vera Sans', 'Computer Modern Sans Serif', 'Lucida Grande', 'Verdana', 'Geneva', 'Lucid', 'Arial', 'Helvetica', 'Avant Garde', sans-serif; text-anchor: middle; fill: #ff7f0e" x="723.701719" y="268.498828" transform="rotate(-90 723.701719 268.498828)">Memory Usage [MB]</text>
    </g>
   </g>
   <g id="line2d_28">
    <path d="M 80.256676 48.190803 
L 85.57043 48.190803 
L 90.884185 48.190803 
L 96.197942 48.190803 
L 101.511718 48.190803 
L 106.825461 48.190803 
L 112.139237 48.190803 
L 117.453009 48.190803 
L 122.766768 48.190803 
L 128.080513 48.190803 
L 133.394298 48.190803 
L 138.708042 48.190803 
L 144.021822 48.190803 
L 149.335592 48.190803 
L 154.649338 48.190803 
L 159.963131 48.190803 
L 165.276841 48.190803 
L 170.590609 48.190803 
L 175.904417 48.190803 
L 181.218175 48.190803 
L 186.531939 341.934837 
L 191.845661 341.934837 
L 197.159444 341.934837 
L 202.47321 341.934837 
L 207.786964 341.934837 
L 213.100735 341.934837 
L 234.355776 341.934837 
L 239.669577 341.934837 
L 244.983317 341.934837 
L 250.297081 341.934837 
L 255.610853 341.934837 
L 260.924612 341.934837 
L 266.238393 341.934837 
L 271.552048 341.934837 
L 276.865883 341.934837 
L 282.179676 341.934837 
L 287.493419 341.934837 
L 292.807201 341.934837 
L 298.120947 341.934837 
L 303.434714 341.934837 
L 308.748458 341.934837 
L 314.062241 341.934837 
L 319.376071 341.934837 
L 324.689767 488.806854 
L 330.003539 430.058047 
L 335.317287 430.058047 
L 340.631052 371.30924 
L 345.94482 459.43245 
L 351.25857 488.806854 
L 356.572347 488.806854 
L 361.886085 459.43245 
L 521.299331 459.43245 
L 570.891126 253.811626 
L 574.43687 253.811626 
L 579.750632 224.437223 
L 585.064382 224.437223 
L 590.378143 283.18603 
L 595.691939 253.811626 
L 601.005684 283.18603 
L 606.319438 253.811626 
L 611.63319 341.934837 
L 616.94697 312.560433 
L 622.260745 341.934837 
L 627.574508 48.190803 
L 632.888292 48.190803 
L 638.202013 48.190803 
L 643.515793 48.190803 
L 648.82955 48.190803 
L 654.143324 48.190803 
" clip-path="url(#pfdbaeac12c)" style="fill: none; stroke-dasharray: 5.55,2.4; stroke-dashoffset: 0; stroke: #ff7f0e; stroke-width: 1.5"/>
   </g>
   <g id="patch_7">
    <path d="M 682.837656 510.837656 
L 682.837656 26.16 
" style="fill: none; stroke: #ff7f0e; stroke-width: 0.8; stroke-linejoin: miter; stroke-linecap: square"/>
   </g>
   <g id="text_22">
    <text style="font-size: 12px; font-family: 'DejaVu Sans', 'Bitstream Vera Sans', 'Computer Modern Sans Serif', 'Lucida Grande', 'Verdana', 'Geneva', 'Lucid', 'Arial', 'Helvetica', 'Avant Garde', sans-serif; text-anchor: middle; fill: #212529" x="367.2" y="20.16" transform="rotate(-0 367.2 20.16)">dotnet10 (x86_64, zip, 256MB, us-east-1)</text>
   </g>
  </g>
 </g>
 <defs>
  <clipPath id="pfdbaeac12c">
   <rect x="51.562344" y="26.16" width="631.275313" height="484.677656"/>
  </clipPath>
 </defs>
</svg>
