<?xml version="1.0" encoding="utf-8" standalone="no"?>
<!DOCTYPE svg PUBLIC "-//W3C//DTD SVG 1.1//EN"
  "http://www.w3.org/Graphics/SVG/1.1/DTD/svg11.dtd">
<svg xmlns:xlink="http://www.w3.org/1999/xlink" width="216pt" height="122.4pt" viewBox="0 0 216 122.4" xmlns="http://www.w3.org/2000/svg" version="1.1">
  <style>
    :root {
      --fg-color: #212529;
      --grid-color: rgba(33, 37, 41, 0.1);
    }
    @media (prefers-color-scheme: dark) {
      :root {
        --fg-color: #dee2e6;
        --grid-color: rgba(248, 249, 250, 0.15);
      }
    }
  </style>

 <metadata>
  <rdf:RDF xmlns:dc="http://purl.org/dc/elements/1.1/" xmlns:cc="http://creativecommons.org/ns#" xmlns:rdf="http://www.w3.org/1999/02/22-rdf-syntax-ns#">
   <cc:Work>
    <dc:type rdf:resource="http://purl.org/dc/dcmitype/StillImage"/>
    <dc:date>2026-06-30T04:48:55.395364</dc:date>
    <dc:format>image/svg+xml</dc:format>
    <dc:creator>
     <cc:Agent>
      <dc:title>Matplotlib v3.11.0, https://matplotlib.org/</dc:title>
     </cc:Agent>
    </dc:creator>
   </cc:Work>
  </rdf:RDF>
 </metadata>
 <defs>
  <style type="text/css">*{stroke-linejoin: round; stroke-linecap: butt}</style>
 </defs>
 <g id="figure_1">
  <g id="patch_1">
   <path d="M 0 122.4 
L 216 122.4 
L 216 0 
L 0 0 
L 0 122.4 
z
" style="fill: none; opacity: 0"/>
  </g>
  <g id="axes_1">
   <g id="patch_2">
    <path d="M 35.96 103.4 
L 211 103.4 
L 211 5 
L 35.96 5 
L 35.96 103.4 
z
" style="fill: none; opacity: 0"/>
   </g>
   <g id="matplotlib.axis_1">
    <g id="xtick_1">
     <g id="line2d_1">
      <path d="M 70.996911 103.4 
L 70.996911 5 
" clip-path="url(#pee3b6dfd5a)" style="fill: none; stroke-dasharray: 2.96,1.28; stroke-dashoffset: 0; stroke: var(--grid-color); stroke-width: 0.8"/>
     </g>
     <g id="line2d_2">
      <defs>
       <path id="md00b3cd6da" d="M 0 0 
L 0 3.5 
" style="stroke: var(--fg-color); stroke-width: 0.8"/>
      </defs>
      <g>
       <use xlink:href="#md00b3cd6da" x="70.996911" y="103.4" style="fill: var(--fg-color); stroke: var(--fg-color); stroke-width: 0.8"/>
      </g>
     </g>
     <g id="text_1">
      <text style="font-size: 7px; font-family: 'DejaVu Sans', 'Bitstream Vera Sans', 'Computer Modern Sans Serif', 'Lucida Grande', 'Verdana', 'Geneva', 'Lucid', 'Arial', 'Helvetica', 'Avant Garde', sans-serif; text-anchor: middle; fill: var(--fg-color)" x="70.996911" y="115.718359" transform="rotate(-0 70.996911 115.718359)">02/2026</text>
     </g>
    </g>
    <g id="xtick_2">
     <g id="line2d_3">
      <path d="M 126.022656 103.4 
L 126.022656 5 
" clip-path="url(#pee3b6dfd5a)" style="fill: none; stroke-dasharray: 2.96,1.28; stroke-dashoffset: 0; stroke: var(--grid-color); stroke-width: 0.8"/>
     </g>
     <g id="line2d_4">
      <g>
       <use xlink:href="#md00b3cd6da" x="126.022656" y="103.4" style="fill: var(--fg-color); stroke: var(--fg-color); stroke-width: 0.8"/>
      </g>
     </g>
     <g id="text_2">
      <text style="font-size: 7px; font-family: 'DejaVu Sans', 'Bitstream Vera Sans', 'Computer Modern Sans Serif', 'Lucida Grande', 'Verdana', 'Geneva', 'Lucid', 'Arial', 'Helvetica', 'Avant Garde', sans-serif; text-anchor: middle; fill: var(--fg-color)" x="126.022656" y="115.718359" transform="rotate(-0 126.022656 115.718359)">04/2026</text>
     </g>
    </g>
    <g id="xtick_3">
     <g id="line2d_5">
      <path d="M 182.913681 103.4 
L 182.913681 5 
" clip-path="url(#pee3b6dfd5a)" style="fill: none; stroke-dasharray: 2.96,1.28; stroke-dashoffset: 0; stroke: var(--grid-color); stroke-width: 0.8"/>
     </g>
     <g id="line2d_6">
      <g>
       <use xlink:href="#md00b3cd6da" x="182.913681" y="103.4" style="fill: var(--fg-color); stroke: var(--fg-color); stroke-width: 0.8"/>
      </g>
     </g>
     <g id="text_3">
      <text style="font-size: 7px; font-family: 'DejaVu Sans', 'Bitstream Vera Sans', 'Computer Modern Sans Serif', 'Lucida Grande', 'Verdana', 'Geneva', 'Lucid', 'Arial', 'Helvetica', 'Avant Garde', sans-serif; text-anchor: middle; fill: var(--fg-color)" x="182.913681" y="115.718359" transform="rotate(-0 182.913681 115.718359)">06/2026</text>
     </g>
    </g>
   </g>
   <g id="matplotlib.axis_2">
    <g id="ytick_1">
     <g id="line2d_7">
      <path d="M 35.96 100.392481 
L 211 100.392481 
" clip-path="url(#pee3b6dfd5a)" style="fill: none; stroke-dasharray: 2.96,1.28; stroke-dashoffset: 0; stroke: var(--grid-color); stroke-width: 0.8"/>
     </g>
     <g id="line2d_8">
      <defs>
       <path id="mfb251d90b4" d="M 0 0 
L -3.5 0 
" style="stroke: var(--fg-color); stroke-width: 0.8"/>
      </defs>
      <g>
       <use xlink:href="#mfb251d90b4" x="35.96" y="100.392481" style="fill: var(--fg-color); stroke: var(--fg-color); stroke-width: 0.8"/>
      </g>
     </g>
     <g id="text_4">
      <text style="font-size: 7px; font-family: 'DejaVu Sans', 'Bitstream Vera Sans', 'Computer Modern Sans Serif', 'Lucida Grande', 'Verdana', 'Geneva', 'Lucid', 'Arial', 'Helvetica', 'Avant Garde', sans-serif; text-anchor: end; fill: var(--fg-color)" x="28.96" y="103.051661" transform="rotate(-0 28.96 103.051661)">0</text>
     </g>
    </g>
    <g id="ytick_2">
     <g id="line2d_9">
      <path d="M 35.96 80.227212 
L 211 80.227212 
" clip-path="url(#pee3b6dfd5a)" style="fill: none; stroke-dasharray: 2.96,1.28; stroke-dashoffset: 0; stroke: var(--grid-color); stroke-width: 0.8"/>
     </g>
     <g id="line2d_10">
      <g>
       <use xlink:href="#mfb251d90b4" x="35.96" y="80.227212" style="fill: var(--fg-color); stroke: var(--fg-color); stroke-width: 0.8"/>
      </g>
     </g>
     <g id="text_5">
      <text style="font-size: 7px; font-family: 'DejaVu Sans', 'Bitstream Vera Sans', 'Computer Modern Sans Serif', 'Lucida Grande', 'Verdana', 'Geneva', 'Lucid', 'Arial', 'Helvetica', 'Avant Garde', sans-serif; text-anchor: end; fill: var(--fg-color)" x="28.96" y="82.886392" transform="rotate(-0 28.96 82.886392)">100</text>
     </g>
    </g>
    <g id="ytick_3">
     <g id="line2d_11">
      <path d="M 35.96 60.061943 
L 211 60.061943 
" clip-path="url(#pee3b6dfd5a)" style="fill: none; stroke-dasharray: 2.96,1.28; stroke-dashoffset: 0; stroke: var(--grid-color); stroke-width: 0.8"/>
     </g>
     <g id="line2d_12">
      <g>
       <use xlink:href="#mfb251d90b4" x="35.96" y="60.061943" style="fill: var(--fg-color); stroke: var(--fg-color); stroke-width: 0.8"/>
      </g>
     </g>
     <g id="text_6">
      <text style="font-size: 7px; font-family: 'DejaVu Sans', 'Bitstream Vera Sans', 'Computer Modern Sans Serif', 'Lucida Grande', 'Verdana', 'Geneva', 'Lucid', 'Arial', 'Helvetica', 'Avant Garde', sans-serif; text-anchor: end; fill: var(--fg-color)" x="28.96" y="62.721123" transform="rotate(-0 28.96 62.721123)">200</text>
     </g>
    </g>
    <g id="ytick_4">
     <g id="line2d_13">
      <path d="M 35.96 39.896674 
L 211 39.896674 
" clip-path="url(#pee3b6dfd5a)" style="fill: none; stroke-dasharray: 2.96,1.28; stroke-dashoffset: 0; stroke: var(--grid-color); stroke-width: 0.8"/>
     </g>
     <g id="line2d_14">
      <g>
       <use xlink:href="#mfb251d90b4" x="35.96" y="39.896674" style="fill: var(--fg-color); stroke: var(--fg-color); stroke-width: 0.8"/>
      </g>
     </g>
     <g id="text_7">
      <text style="font-size: 7px; font-family: 'DejaVu Sans', 'Bitstream Vera Sans', 'Computer Modern Sans Serif', 'Lucida Grande', 'Verdana', 'Geneva', 'Lucid', 'Arial', 'Helvetica', 'Avant Garde', sans-serif; text-anchor: end; fill: var(--fg-color)" x="28.96" y="42.555853" transform="rotate(-0 28.96 42.555853)">300</text>
     </g>
    </g>
    <g id="ytick_5">
     <g id="line2d_15">
      <path d="M 35.96 19.731405 
L 211 19.731405 
" clip-path="url(#pee3b6dfd5a)" style="fill: none; stroke-dasharray: 2.96,1.28; stroke-dashoffset: 0; stroke: var(--grid-color); stroke-width: 0.8"/>
     </g>
     <g id="line2d_16">
      <g>
       <use xlink:href="#mfb251d90b4" x="35.96" y="19.731405" style="fill: var(--fg-color); stroke: var(--fg-color); stroke-width: 0.8"/>
      </g>
     </g>
     <g id="text_8">
      <text style="font-size: 7px; font-family: 'DejaVu Sans', 'Bitstream Vera Sans', 'Computer Modern Sans Serif', 'Lucida Grande', 'Verdana', 'Geneva', 'Lucid', 'Arial', 'Helvetica', 'Avant Garde', sans-serif; text-anchor: end; fill: var(--fg-color)" x="28.96" y="22.390584" transform="rotate(-0 28.96 22.390584)">400</text>
     </g>
    </g>
    <g id="text_9">
     <text style="font-size: 7px; font-family: 'DejaVu Sans', 'Bitstream Vera Sans', 'Computer Modern Sans Serif', 'Lucida Grande', 'Verdana', 'Geneva', 'Lucid', 'Arial', 'Helvetica', 'Avant Garde', sans-serif; text-anchor: middle; fill: var(--fg-color)" x="9.917109" y="54.2" transform="rotate(-90 9.917109 54.2)">ms</text>
    </g>
   </g>
   <g id="line2d_17">
    <path d="M 43.916364 40.117685 
L 44.494523 39.859973 
L 45.427166 47.005334 
L 46.359808 43.264274 
L 47.292453 34.891856 
L 48.22509 46.865387 
L 49.157727 38.837392 
L 50.090359 48.705468 
L 51.023007 51.746794 
L 51.95565 48.936361 
L 52.88829 46.248734 
L 53.82093 33.796882 
L 54.753566 43.436888 
L 55.686208 44.397562 
L 56.618849 28.854777 
L 57.551483 39.573021 
L 58.484126 49.643153 
L 59.416765 50.973254 
L 60.349406 42.913398 
L 61.282045 39.931963 
L 62.214684 43.414505 
L 63.147327 31.860411 
L 64.07996 45.63329 
L 65.012598 44.724441 
L 65.945245 45.123108 
L 66.877884 32.075372 
L 67.810526 38.781938 
L 68.743162 41.144097 
L 69.675784 46.020664 
L 70.608443 37.566375 
L 71.541078 43.187444 
L 72.473724 41.786361 
L 73.406361 14.570306 
L 74.339003 43.735334 
L 75.271637 35.156222 
L 76.204286 27.298422 
L 77.136912 47.398961 
L 78.069558 35.42684 
L 79.002199 32.282066 
L 79.934841 16.861282 
L 80.867465 37.444779 
L 81.800118 32.709772 
L 82.732742 31.685779 
L 83.665398 34.894275 
L 84.598038 37.820861 
L 85.53068 39.274979 
L 86.463316 35.955372 
L 87.395962 35.1657 
L 96.913595 28.093538 
L 97.655282 35.402037 
L 98.587939 45.456642 
L 99.520578 45.038212 
L 100.453222 30.958217 
L 101.385859 34.957998 
L 102.318497 43.19551 
L 103.251135 31.693644 
L 104.183773 22.967124 
L 105.116412 13.09441 
L 106.049054 46.721004 
L 106.981691 48.454612 
L 107.914333 32.201405 
L 108.846974 30.785199 
L 109.779613 43.491536 
L 110.71225 48.807303 
L 111.644893 46.177953 
L 112.57753 45.0733 
L 113.510173 44.483063 
L 114.442814 36.594611 
L 115.37545 39.384274 
L 116.308095 42.643587 
L 117.240726 25.382923 
L 118.173367 31.963657 
L 119.106014 37.163473 
L 120.038653 26.157269 
L 120.971293 37.905152 
L 121.903926 18.847561 
L 122.836569 42.39878 
L 123.769209 49.52438 
L 124.701847 30.898124 
L 125.634489 36.919877 
L 129.365046 44.677254 
L 130.297692 39.945474 
L 131.230328 36.574647 
L 132.162968 39.965236 
L 133.095609 32.750102 
L 134.028248 16.72315 
L 134.960891 29.291154 
L 135.893512 28.805574 
L 136.826165 38.900913 
L 137.75881 29.399845 
L 138.691446 35.997719 
L 139.624089 34.608534 
L 140.556726 14.542074 
L 141.489366 33.109447 
L 142.422003 27.791059 
L 143.354646 17.926613 
L 144.287298 35.808165 
L 145.219926 25.083872 
L 146.152567 27.064706 
L 147.085204 37.407473 
L 148.017844 28.264338 
L 148.950485 28.45006 
L 149.883123 32.422618 
L 150.815765 28.610778 
L 151.7484 35.134444 
L 179.727656 35.134444 
L 188.43171 25.729967 
L 189.054038 37.2766 
L 189.986678 36.225385 
L 190.919315 33.515374 
L 191.851955 31.553092 
L 192.7846 17.713869 
L 193.717237 41.041053 
L 194.649875 36.875715 
L 195.582513 33.687989 
L 196.515156 21.068362 
L 197.447798 27.389569 
L 198.380437 9.583838 
L 199.313081 9.472727 
L 200.245713 34.131222 
L 201.178356 27.205057 
L 202.110995 31.785396 
L 203.043636 21.080259 
" clip-path="url(#pee3b6dfd5a)" style="fill: none; stroke: #339af0; stroke-width: 1.2; stroke-linecap: square"/>
   </g>
   <g id="line2d_18">
    <path d="M 43.916364 98.418705 
L 44.494523 98.389062 
L 45.427166 98.238427 
L 46.359808 97.945224 
L 47.292453 98.453994 
L 48.22509 98.136794 
L 49.157727 98.391683 
L 50.090359 97.510864 
L 51.023007 97.134984 
L 51.95565 97.680656 
L 52.88829 98.504205 
L 53.82093 97.508444 
L 54.753566 98.624189 
L 55.686208 98.313442 
L 56.618849 98.360225 
L 57.551483 98.314854 
L 58.484126 98.374946 
L 59.416765 98.827858 
L 60.349406 98.159984 
L 61.282045 98.309207 
L 62.214684 98.519733 
L 63.147327 97.946636 
L 64.07996 97.458031 
L 65.012598 98.328969 
L 65.945245 98.022054 
L 66.877884 97.098888 
L 67.810526 97.57378 
L 68.743162 98.65121 
L 69.675784 97.189027 
L 70.608443 98.088196 
L 71.541078 98.672384 
L 72.473724 97.924454 
L 73.406361 97.589912 
L 74.339003 97.898844 
L 75.271637 97.845204 
L 76.204286 98.442903 
L 77.136912 98.223303 
L 78.069558 98.614913 
L 79.002199 98.145465 
L 79.934841 98.430199 
L 80.867465 97.685294 
L 81.800118 98.114814 
L 82.732742 97.793178 
L 83.665398 97.975674 
L 84.598038 98.479402 
L 85.53068 98.2717 
L 86.463316 97.953492 
L 87.395962 98.017416 
L 96.913595 96.769589 
L 97.655282 97.916589 
L 98.587939 97.860732 
L 99.520578 97.774223 
L 100.453222 97.972447 
L 101.385859 98.289042 
L 102.318497 97.869201 
L 103.251135 97.951677 
L 104.183773 97.83613 
L 105.116412 98.129333 
L 106.049054 98.429997 
L 106.981691 97.347929 
L 107.914333 97.743975 
L 108.846974 97.580233 
L 109.779613 98.377971 
L 110.71225 97.894004 
L 111.644893 98.142844 
L 112.57753 97.722801 
L 113.510173 98.11804 
L 114.442814 98.012979 
L 115.37545 96.662108 
L 116.308095 98.505819 
L 117.240726 98.513683 
L 118.173367 96.792779 
L 119.106014 98.307392 
L 120.038653 98.210397 
L 120.971293 97.164022 
L 121.903926 97.89098 
L 122.836569 97.487473 
L 123.769209 97.990193 
L 124.701847 97.500177 
L 125.634489 97.741555 
L 129.365046 98.11804 
L 130.297692 98.165227 
L 131.230328 96.406816 
L 132.162968 98.02165 
L 133.095609 98.433627 
L 134.028248 97.500983 
L 134.960891 97.609271 
L 135.893512 97.640729 
L 136.826165 97.602415 
L 137.75881 98.355587 
L 138.691446 98.44008 
L 139.624089 98.653832 
L 140.556726 96.299335 
L 141.489366 97.59455 
L 142.422003 98.188216 
L 143.354646 98.445121 
L 144.287298 98.250123 
L 145.219926 97.956315 
L 146.152567 97.858715 
L 147.085204 97.927882 
L 148.017844 97.463677 
L 148.950485 97.008144 
L 149.883123 97.798623 
L 150.815765 97.541112 
L 151.7484 98.26686 
L 179.727656 98.26686 
L 188.43171 98.544133 
L 189.054038 98.410437 
L 189.986678 97.762123 
L 190.919315 98.367888 
L 191.851955 98.028708 
L 192.7846 98.306989 
L 193.717237 98.094245 
L 194.649875 98.502995 
L 195.582513 97.987168 
L 196.515156 97.687915 
L 197.447798 95.814965 
L 198.380437 97.977287 
L 199.313081 97.59455 
L 200.245713 98.927273 
L 201.178356 98.312635 
L 202.110995 98.300738 
L 203.043636 98.366678 
" clip-path="url(#pee3b6dfd5a)" style="fill: none; stroke: #ff6b6b; stroke-width: 1.2; stroke-linecap: square"/>
   </g>
   <g id="patch_3">
    <path d="M 35.96 103.4 
L 35.96 5 
" style="fill: none; stroke: var(--fg-color); stroke-width: 0.8; stroke-linejoin: miter; stroke-linecap: square"/>
   </g>
   <g id="patch_4">
    <path d="M 35.96 103.4 
L 211 103.4 
" style="fill: none; stroke: var(--fg-color); stroke-width: 0.8; stroke-linejoin: miter; stroke-linecap: square"/>
   </g>
  </g>
 </g>
 <defs>
  <clipPath id="pee3b6dfd5a">
   <rect x="35.96" y="5" width="175.04" height="98.4"/>
  </clipPath>
 </defs>
</svg>
