<?xml version="1.0" encoding="utf-8" standalone="no"?>
<!DOCTYPE svg PUBLIC "-//W3C//DTD SVG 1.1//EN"
  "http://www.w3.org/Graphics/SVG/1.1/DTD/svg11.dtd">
<svg xmlns:xlink="http://www.w3.org/1999/xlink" width="216pt" height="122.4pt" viewBox="0 0 216 122.4" xmlns="http://www.w3.org/2000/svg" version="1.1">
  <style>
    :root {
      --fg-color: #212529;
      --grid-color: rgba(33, 37, 41, 0.1);
    }
    @media (prefers-color-scheme: dark) {
      :root {
        --fg-color: #dee2e6;
        --grid-color: rgba(248, 249, 250, 0.15);
      }
    }
  </style>

 <metadata>
  <rdf:RDF xmlns:dc="http://purl.org/dc/elements/1.1/" xmlns:cc="http://creativecommons.org/ns#" xmlns:rdf="http://www.w3.org/1999/02/22-rdf-syntax-ns#">
   <cc:Work>
    <dc:type rdf:resource="http://purl.org/dc/dcmitype/StillImage"/>
    <dc:date>2026-06-30T04:49:18.955967</dc:date>
    <dc:format>image/svg+xml</dc:format>
    <dc:creator>
     <cc:Agent>
      <dc:title>Matplotlib v3.11.0, https://matplotlib.org/</dc:title>
     </cc:Agent>
    </dc:creator>
   </cc:Work>
  </rdf:RDF>
 </metadata>
 <defs>
  <style type="text/css">*{stroke-linejoin: round; stroke-linecap: butt}</style>
 </defs>
 <g id="figure_1">
  <g id="patch_1">
   <path d="M 0 122.4 
L 216 122.4 
L 216 0 
L 0 0 
L 0 122.4 
z
" style="fill: none; opacity: 0"/>
  </g>
  <g id="axes_1">
   <g id="patch_2">
    <path d="M 35.96 103.4 
L 211 103.4 
L 211 5 
L 35.96 5 
L 35.96 103.4 
z
" style="fill: none; opacity: 0"/>
   </g>
   <g id="matplotlib.axis_1">
    <g id="xtick_1">
     <g id="line2d_1">
      <path d="M 70.996911 103.4 
L 70.996911 5 
" clip-path="url(#pe8b07f267f)" style="fill: none; stroke-dasharray: 2.96,1.28; stroke-dashoffset: 0; stroke: var(--grid-color); stroke-width: 0.8"/>
     </g>
     <g id="line2d_2">
      <defs>
       <path id="ma86c3036bb" d="M 0 0 
L 0 3.5 
" style="stroke: var(--fg-color); stroke-width: 0.8"/>
      </defs>
      <g>
       <use xlink:href="#ma86c3036bb" x="70.996911" y="103.4" style="fill: var(--fg-color); stroke: var(--fg-color); stroke-width: 0.8"/>
      </g>
     </g>
     <g id="text_1">
      <text style="font-size: 7px; font-family: 'DejaVu Sans', 'Bitstream Vera Sans', 'Computer Modern Sans Serif', 'Lucida Grande', 'Verdana', 'Geneva', 'Lucid', 'Arial', 'Helvetica', 'Avant Garde', sans-serif; text-anchor: middle; fill: var(--fg-color)" x="70.996911" y="115.718359" transform="rotate(-0 70.996911 115.718359)">02/2026</text>
     </g>
    </g>
    <g id="xtick_2">
     <g id="line2d_3">
      <path d="M 126.022656 103.4 
L 126.022656 5 
" clip-path="url(#pe8b07f267f)" style="fill: none; stroke-dasharray: 2.96,1.28; stroke-dashoffset: 0; stroke: var(--grid-color); stroke-width: 0.8"/>
     </g>
     <g id="line2d_4">
      <g>
       <use xlink:href="#ma86c3036bb" x="126.022656" y="103.4" style="fill: var(--fg-color); stroke: var(--fg-color); stroke-width: 0.8"/>
      </g>
     </g>
     <g id="text_2">
      <text style="font-size: 7px; font-family: 'DejaVu Sans', 'Bitstream Vera Sans', 'Computer Modern Sans Serif', 'Lucida Grande', 'Verdana', 'Geneva', 'Lucid', 'Arial', 'Helvetica', 'Avant Garde', sans-serif; text-anchor: middle; fill: var(--fg-color)" x="126.022656" y="115.718359" transform="rotate(-0 126.022656 115.718359)">04/2026</text>
     </g>
    </g>
    <g id="xtick_3">
     <g id="line2d_5">
      <path d="M 182.913681 103.4 
L 182.913681 5 
" clip-path="url(#pe8b07f267f)" style="fill: none; stroke-dasharray: 2.96,1.28; stroke-dashoffset: 0; stroke: var(--grid-color); stroke-width: 0.8"/>
     </g>
     <g id="line2d_6">
      <g>
       <use xlink:href="#ma86c3036bb" x="182.913681" y="103.4" style="fill: var(--fg-color); stroke: var(--fg-color); stroke-width: 0.8"/>
      </g>
     </g>
     <g id="text_3">
      <text style="font-size: 7px; font-family: 'DejaVu Sans', 'Bitstream Vera Sans', 'Computer Modern Sans Serif', 'Lucida Grande', 'Verdana', 'Geneva', 'Lucid', 'Arial', 'Helvetica', 'Avant Garde', sans-serif; text-anchor: middle; fill: var(--fg-color)" x="182.913681" y="115.718359" transform="rotate(-0 182.913681 115.718359)">06/2026</text>
     </g>
    </g>
   </g>
   <g id="matplotlib.axis_2">
    <g id="ytick_1">
     <g id="line2d_7">
      <path d="M 35.96 99.468111 
L 211 99.468111 
" clip-path="url(#pe8b07f267f)" style="fill: none; stroke-dasharray: 2.96,1.28; stroke-dashoffset: 0; stroke: var(--grid-color); stroke-width: 0.8"/>
     </g>
     <g id="line2d_8">
      <defs>
       <path id="m75a77048a7" d="M 0 0 
L -3.5 0 
" style="stroke: var(--fg-color); stroke-width: 0.8"/>
      </defs>
      <g>
       <use xlink:href="#m75a77048a7" x="35.96" y="99.468111" style="fill: var(--fg-color); stroke: var(--fg-color); stroke-width: 0.8"/>
      </g>
     </g>
     <g id="text_4">
      <text style="font-size: 7px; font-family: 'DejaVu Sans', 'Bitstream Vera Sans', 'Computer Modern Sans Serif', 'Lucida Grande', 'Verdana', 'Geneva', 'Lucid', 'Arial', 'Helvetica', 'Avant Garde', sans-serif; text-anchor: end; fill: var(--fg-color)" x="28.96" y="102.127291" transform="rotate(-0 28.96 102.127291)">0</text>
     </g>
    </g>
    <g id="ytick_2">
     <g id="line2d_9">
      <path d="M 35.96 75.441535 
L 211 75.441535 
" clip-path="url(#pe8b07f267f)" style="fill: none; stroke-dasharray: 2.96,1.28; stroke-dashoffset: 0; stroke: var(--grid-color); stroke-width: 0.8"/>
     </g>
     <g id="line2d_10">
      <g>
       <use xlink:href="#m75a77048a7" x="35.96" y="75.441535" style="fill: var(--fg-color); stroke: var(--fg-color); stroke-width: 0.8"/>
      </g>
     </g>
     <g id="text_5">
      <text style="font-size: 7px; font-family: 'DejaVu Sans', 'Bitstream Vera Sans', 'Computer Modern Sans Serif', 'Lucida Grande', 'Verdana', 'Geneva', 'Lucid', 'Arial', 'Helvetica', 'Avant Garde', sans-serif; text-anchor: end; fill: var(--fg-color)" x="28.96" y="78.100715" transform="rotate(-0 28.96 78.100715)">100</text>
     </g>
    </g>
    <g id="ytick_3">
     <g id="line2d_11">
      <path d="M 35.96 51.414959 
L 211 51.414959 
" clip-path="url(#pe8b07f267f)" style="fill: none; stroke-dasharray: 2.96,1.28; stroke-dashoffset: 0; stroke: var(--grid-color); stroke-width: 0.8"/>
     </g>
     <g id="line2d_12">
      <g>
       <use xlink:href="#m75a77048a7" x="35.96" y="51.414959" style="fill: var(--fg-color); stroke: var(--fg-color); stroke-width: 0.8"/>
      </g>
     </g>
     <g id="text_6">
      <text style="font-size: 7px; font-family: 'DejaVu Sans', 'Bitstream Vera Sans', 'Computer Modern Sans Serif', 'Lucida Grande', 'Verdana', 'Geneva', 'Lucid', 'Arial', 'Helvetica', 'Avant Garde', sans-serif; text-anchor: end; fill: var(--fg-color)" x="28.96" y="54.074139" transform="rotate(-0 28.96 54.074139)">200</text>
     </g>
    </g>
    <g id="ytick_4">
     <g id="line2d_13">
      <path d="M 35.96 27.388384 
L 211 27.388384 
" clip-path="url(#pe8b07f267f)" style="fill: none; stroke-dasharray: 2.96,1.28; stroke-dashoffset: 0; stroke: var(--grid-color); stroke-width: 0.8"/>
     </g>
     <g id="line2d_14">
      <g>
       <use xlink:href="#m75a77048a7" x="35.96" y="27.388384" style="fill: var(--fg-color); stroke: var(--fg-color); stroke-width: 0.8"/>
      </g>
     </g>
     <g id="text_7">
      <text style="font-size: 7px; font-family: 'DejaVu Sans', 'Bitstream Vera Sans', 'Computer Modern Sans Serif', 'Lucida Grande', 'Verdana', 'Geneva', 'Lucid', 'Arial', 'Helvetica', 'Avant Garde', sans-serif; text-anchor: end; fill: var(--fg-color)" x="28.96" y="30.047563" transform="rotate(-0 28.96 30.047563)">300</text>
     </g>
    </g>
    <g id="text_8">
     <text style="font-size: 7px; font-family: 'DejaVu Sans', 'Bitstream Vera Sans', 'Computer Modern Sans Serif', 'Lucida Grande', 'Verdana', 'Geneva', 'Lucid', 'Arial', 'Helvetica', 'Avant Garde', sans-serif; text-anchor: middle; fill: var(--fg-color)" x="9.917109" y="54.2" transform="rotate(-90 9.917109 54.2)">ms</text>
    </g>
   </g>
   <g id="line2d_15">
    <path d="M 43.916364 32.458952 
L 44.494523 32.717478 
L 45.427166 38.063391 
L 46.359808 29.909733 
L 47.292453 23.446584 
L 48.22509 30.52241 
L 49.157727 31.374873 
L 50.090359 33.466627 
L 51.023007 40.086669 
L 51.95565 31.779961 
L 52.88829 36.318581 
L 53.82093 31.060365 
L 54.753566 34.678527 
L 55.686208 32.988017 
L 56.618849 30.470993 
L 57.551483 30.351822 
L 58.484126 33.37004 
L 59.416765 32.21268 
L 60.349406 28.321095 
L 61.282045 34.294583 
L 62.214684 34.863772 
L 63.147327 27.214672 
L 64.07996 37.362296 
L 65.012598 34.739315 
L 65.945245 37.171765 
L 66.877884 35.817868 
L 67.810526 28.285056 
L 68.743162 38.557137 
L 69.675784 33.54207 
L 70.608443 35.694611 
L 71.541078 34.58146 
L 72.473724 31.338113 
L 73.406361 34.219379 
L 74.339003 37.158791 
L 75.271637 31.775396 
L 76.204286 37.261144 
L 77.136912 31.236 
L 78.069558 34.591311 
L 79.002199 33.219874 
L 79.934841 30.328996 
L 80.867465 36.781333 
L 81.800118 27.957333 
L 82.732742 34.252776 
L 83.665398 33.482965 
L 84.598038 35.141039 
L 85.53068 39.810604 
L 86.463316 37.683291 
L 87.395962 36.999975 
L 96.913595 30.182674 
L 97.655282 37.143894 
L 98.587939 34.739795 
L 99.520578 34.513705 
L 100.453222 33.48777 
L 101.385859 32.106482 
L 102.318497 32.451264 
L 103.251135 37.242163 
L 104.183773 33.360189 
L 105.116412 33.62304 
L 106.049054 29.006814 
L 106.981691 26.163989 
L 107.914333 28.104376 
L 108.846974 27.69208 
L 109.779613 28.728346 
L 110.71225 39.385574 
L 111.644893 31.99548 
L 112.57753 31.93229 
L 113.510173 33.142749 
L 114.442814 25.569572 
L 115.37545 9.472727 
L 116.308095 32.6466 
L 117.240726 35.957943 
L 118.173367 35.695572 
L 119.106014 30.276618 
L 120.038653 29.449864 
L 120.971293 29.394122 
L 121.903926 30.489013 
L 122.836569 25.001343 
L 123.769209 33.187919 
L 124.701847 24.65464 
L 125.634489 30.785982 
L 129.365046 31.31817 
L 130.297692 34.600681 
L 131.230328 28.44267 
L 132.162968 27.528459 
L 133.095609 32.483219 
L 134.028248 30.584159 
L 134.960891 26.485705 
L 135.893512 34.636 
L 136.826165 35.517535 
L 137.75881 37.087192 
L 138.691446 29.501521 
L 139.624089 26.609923 
L 140.556726 29.182208 
L 141.489366 21.553049 
L 142.422003 31.958238 
L 143.354646 34.046388 
L 144.287298 25.993401 
L 145.219926 30.118043 
L 146.152567 21.506197 
L 147.085204 31.776598 
L 148.017844 29.188455 
L 148.950485 29.194702 
L 149.883123 30.675219 
L 150.815765 32.637229 
L 151.7484 13.487808 
L 179.727656 13.487808 
L 188.43171 31.321054 
L 189.054038 33.774888 
L 189.986678 20.886072 
L 190.919315 16.49113 
L 191.851955 32.689367 
L 192.7846 18.603787 
L 193.717237 28.818926 
L 194.649875 32.586293 
L 195.582513 29.191578 
L 196.515156 26.679119 
L 197.447798 19.762829 
L 198.380437 26.212043 
L 199.313081 28.369149 
L 200.245713 23.203435 
L 201.178356 34.189587 
L 202.110995 24.153205 
L 203.043636 23.214487 
" clip-path="url(#pe8b07f267f)" style="fill: none; stroke: #339af0; stroke-width: 1.2; stroke-linecap: square"/>
   </g>
   <g id="line2d_16">
    <path d="M 43.916364 98.82564 
L 44.494523 98.830205 
L 45.427166 98.866245 
L 46.359808 98.76245 
L 47.292453 98.483982 
L 48.22509 98.790321 
L 49.157727 98.460677 
L 50.090359 98.846543 
L 51.023007 98.849186 
L 51.95565 98.853031 
L 52.88829 98.841738 
L 53.82093 98.849907 
L 54.753566 98.848466 
L 55.686208 98.738904 
L 56.618849 98.826361 
L 57.551483 98.827803 
L 58.484126 98.857355 
L 59.416765 98.788639 
L 60.349406 98.314835 
L 61.282045 98.769418 
L 62.214684 98.841978 
L 63.147327 98.580329 
L 64.07996 98.86192 
L 65.012598 98.826601 
L 65.945245 98.867447 
L 66.877884 98.845582 
L 67.810526 98.309069 
L 68.743162 98.855433 
L 69.675784 98.827322 
L 70.608443 98.881382 
L 71.541078 98.840777 
L 72.473724 98.551737 
L 73.406361 98.406377 
L 74.339003 98.883304 
L 75.271637 98.792243 
L 76.204286 98.829485 
L 77.136912 98.831407 
L 78.069558 98.838374 
L 79.002199 98.819874 
L 79.934841 98.676916 
L 80.867465 98.881622 
L 81.800118 98.854472 
L 82.732742 98.866485 
L 83.665398 98.833569 
L 84.598038 98.843901 
L 85.53068 98.855674 
L 86.463316 98.872012 
L 87.395962 98.838374 
L 96.913595 98.767977 
L 97.655282 98.886668 
L 98.587939 98.628622 
L 99.520578 98.759087 
L 100.453222 98.838855 
L 101.385859 98.806419 
L 102.318497 98.895558 
L 103.251135 98.927273 
L 104.183773 98.366973 
L 105.116412 98.822517 
L 106.049054 98.838855 
L 106.981691 98.441936 
L 107.914333 98.83453 
L 108.846974 98.678838 
L 109.779613 98.868648 
L 110.71225 98.886668 
L 111.644893 98.891954 
L 112.57753 98.870089 
L 113.510173 98.601232 
L 114.442814 98.847504 
L 115.37545 97.980626 
L 116.308095 98.743229 
L 117.240726 98.865765 
L 118.173367 98.603394 
L 119.106014 98.860479 
L 120.038653 98.709111 
L 120.971293 98.781672 
L 121.903926 98.835731 
L 122.836569 98.836452 
L 123.769209 98.812906 
L 124.701847 98.513295 
L 125.634489 98.820835 
L 129.365046 98.817471 
L 130.297692 98.862401 
L 131.230328 98.842699 
L 132.162968 98.687488 
L 133.095609 98.831887 
L 134.028248 98.220411 
L 134.960891 98.744911 
L 135.893512 98.740826 
L 136.826165 98.884986 
L 137.75881 98.869369 
L 138.691446 98.584173 
L 139.624089 98.827082 
L 140.556726 98.844862 
L 141.489366 98.830446 
L 142.422003 98.779269 
L 143.354646 98.840537 
L 144.287298 98.77999 
L 145.219926 98.783594 
L 146.152567 98.732657 
L 147.085204 98.797529 
L 148.017844 98.587056 
L 148.950485 98.841738 
L 149.883123 98.718482 
L 150.815765 98.536841 
L 151.7484 98.641837 
L 179.727656 98.641837 
L 188.43171 98.857836 
L 189.054038 98.857355 
L 189.986678 98.751398 
L 190.919315 98.773022 
L 191.851955 98.838374 
L 192.7846 98.76245 
L 193.717237 98.818192 
L 194.649875 98.848225 
L 195.582513 98.828524 
L 196.515156 98.774704 
L 197.447798 98.787919 
L 198.380437 98.797529 
L 199.313081 98.699981 
L 200.245713 98.628142 
L 201.178356 96.967185 
L 202.110995 98.839335 
L 203.043636 98.76173 
" clip-path="url(#pe8b07f267f)" style="fill: none; stroke: #ff6b6b; stroke-width: 1.2; stroke-linecap: square"/>
   </g>
   <g id="patch_3">
    <path d="M 35.96 103.4 
L 35.96 5 
" style="fill: none; stroke: var(--fg-color); stroke-width: 0.8; stroke-linejoin: miter; stroke-linecap: square"/>
   </g>
   <g id="patch_4">
    <path d="M 35.96 103.4 
L 211 103.4 
" style="fill: none; stroke: var(--fg-color); stroke-width: 0.8; stroke-linejoin: miter; stroke-linecap: square"/>
   </g>
  </g>
 </g>
 <defs>
  <clipPath id="pe8b07f267f">
   <rect x="35.96" y="5" width="175.04" height="98.4"/>
  </clipPath>
 </defs>
</svg>
