<?xml version="1.0" encoding="utf-8" standalone="no"?>
<!DOCTYPE svg PUBLIC "-//W3C//DTD SVG 1.1//EN"
  "http://www.w3.org/Graphics/SVG/1.1/DTD/svg11.dtd">
<svg xmlns:xlink="http://www.w3.org/1999/xlink" width="216pt" height="122.4pt" viewBox="0 0 216 122.4" xmlns="http://www.w3.org/2000/svg" version="1.1">
  <style>
    :root {
      --fg-color: #212529;
      --grid-color: rgba(33, 37, 41, 0.1);
    }
    @media (prefers-color-scheme: dark) {
      :root {
        --fg-color: #dee2e6;
        --grid-color: rgba(248, 249, 250, 0.15);
      }
    }
  </style>

 <metadata>
  <rdf:RDF xmlns:dc="http://purl.org/dc/elements/1.1/" xmlns:cc="http://creativecommons.org/ns#" xmlns:rdf="http://www.w3.org/1999/02/22-rdf-syntax-ns#">
   <cc:Work>
    <dc:type rdf:resource="http://purl.org/dc/dcmitype/StillImage"/>
    <dc:date>2026-06-30T04:49:01.790540</dc:date>
    <dc:format>image/svg+xml</dc:format>
    <dc:creator>
     <cc:Agent>
      <dc:title>Matplotlib v3.11.0, https://matplotlib.org/</dc:title>
     </cc:Agent>
    </dc:creator>
   </cc:Work>
  </rdf:RDF>
 </metadata>
 <defs>
  <style type="text/css">*{stroke-linejoin: round; stroke-linecap: butt}</style>
 </defs>
 <g id="figure_1">
  <g id="patch_1">
   <path d="M 0 122.4 
L 216 122.4 
L 216 0 
L 0 0 
L 0 122.4 
z
" style="fill: none; opacity: 0"/>
  </g>
  <g id="axes_1">
   <g id="patch_2">
    <path d="M 35.96 103.4 
L 211 103.4 
L 211 5 
L 35.96 5 
L 35.96 103.4 
z
" style="fill: none; opacity: 0"/>
   </g>
   <g id="matplotlib.axis_1">
    <g id="xtick_1">
     <g id="line2d_1">
      <path d="M 72.056377 103.4 
L 72.056377 5 
" clip-path="url(#p5f89743acf)" style="fill: none; stroke-dasharray: 2.96,1.28; stroke-dashoffset: 0; stroke: var(--grid-color); stroke-width: 0.8"/>
     </g>
     <g id="line2d_2">
      <defs>
       <path id="m84d2e7d537" d="M 0 0 
L 0 3.5 
" style="stroke: var(--fg-color); stroke-width: 0.8"/>
      </defs>
      <g>
       <use xlink:href="#m84d2e7d537" x="72.056377" y="103.4" style="fill: var(--fg-color); stroke: var(--fg-color); stroke-width: 0.8"/>
      </g>
     </g>
     <g id="text_1">
      <text style="font-size: 7px; font-family: 'DejaVu Sans', 'Bitstream Vera Sans', 'Computer Modern Sans Serif', 'Lucida Grande', 'Verdana', 'Geneva', 'Lucid', 'Arial', 'Helvetica', 'Avant Garde', sans-serif; text-anchor: middle; fill: var(--fg-color)" x="72.056377" y="115.718359" transform="rotate(-0 72.056377 115.718359)">02/2026</text>
     </g>
    </g>
    <g id="xtick_2">
     <g id="line2d_3">
      <path d="M 126.640628 103.4 
L 126.640628 5 
" clip-path="url(#p5f89743acf)" style="fill: none; stroke-dasharray: 2.96,1.28; stroke-dashoffset: 0; stroke: var(--grid-color); stroke-width: 0.8"/>
     </g>
     <g id="line2d_4">
      <g>
       <use xlink:href="#m84d2e7d537" x="126.640628" y="103.4" style="fill: var(--fg-color); stroke: var(--fg-color); stroke-width: 0.8"/>
      </g>
     </g>
     <g id="text_2">
      <text style="font-size: 7px; font-family: 'DejaVu Sans', 'Bitstream Vera Sans', 'Computer Modern Sans Serif', 'Lucida Grande', 'Verdana', 'Geneva', 'Lucid', 'Arial', 'Helvetica', 'Avant Garde', sans-serif; text-anchor: middle; fill: var(--fg-color)" x="126.640628" y="115.718359" transform="rotate(-0 126.640628 115.718359)">04/2026</text>
     </g>
    </g>
    <g id="xtick_3">
     <g id="line2d_5">
      <path d="M 183.075192 103.4 
L 183.075192 5 
" clip-path="url(#p5f89743acf)" style="fill: none; stroke-dasharray: 2.96,1.28; stroke-dashoffset: 0; stroke: var(--grid-color); stroke-width: 0.8"/>
     </g>
     <g id="line2d_6">
      <g>
       <use xlink:href="#m84d2e7d537" x="183.075192" y="103.4" style="fill: var(--fg-color); stroke: var(--fg-color); stroke-width: 0.8"/>
      </g>
     </g>
     <g id="text_3">
      <text style="font-size: 7px; font-family: 'DejaVu Sans', 'Bitstream Vera Sans', 'Computer Modern Sans Serif', 'Lucida Grande', 'Verdana', 'Geneva', 'Lucid', 'Arial', 'Helvetica', 'Avant Garde', sans-serif; text-anchor: middle; fill: var(--fg-color)" x="183.075192" y="115.718359" transform="rotate(-0 183.075192 115.718359)">06/2026</text>
     </g>
    </g>
   </g>
   <g id="matplotlib.axis_2">
    <g id="ytick_1">
     <g id="line2d_7">
      <path d="M 35.96 100.086382 
L 211 100.086382 
" clip-path="url(#p5f89743acf)" style="fill: none; stroke-dasharray: 2.96,1.28; stroke-dashoffset: 0; stroke: var(--grid-color); stroke-width: 0.8"/>
     </g>
     <g id="line2d_8">
      <defs>
       <path id="ma7fd2f0402" d="M 0 0 
L -3.5 0 
" style="stroke: var(--fg-color); stroke-width: 0.8"/>
      </defs>
      <g>
       <use xlink:href="#ma7fd2f0402" x="35.96" y="100.086382" style="fill: var(--fg-color); stroke: var(--fg-color); stroke-width: 0.8"/>
      </g>
     </g>
     <g id="text_4">
      <text style="font-size: 7px; font-family: 'DejaVu Sans', 'Bitstream Vera Sans', 'Computer Modern Sans Serif', 'Lucida Grande', 'Verdana', 'Geneva', 'Lucid', 'Arial', 'Helvetica', 'Avant Garde', sans-serif; text-anchor: end; fill: var(--fg-color)" x="28.96" y="102.745562" transform="rotate(-0 28.96 102.745562)">0</text>
     </g>
    </g>
    <g id="ytick_2">
     <g id="line2d_9">
      <path d="M 35.96 82.031717 
L 211 82.031717 
" clip-path="url(#p5f89743acf)" style="fill: none; stroke-dasharray: 2.96,1.28; stroke-dashoffset: 0; stroke: var(--grid-color); stroke-width: 0.8"/>
     </g>
     <g id="line2d_10">
      <g>
       <use xlink:href="#ma7fd2f0402" x="35.96" y="82.031717" style="fill: var(--fg-color); stroke: var(--fg-color); stroke-width: 0.8"/>
      </g>
     </g>
     <g id="text_5">
      <text style="font-size: 7px; font-family: 'DejaVu Sans', 'Bitstream Vera Sans', 'Computer Modern Sans Serif', 'Lucida Grande', 'Verdana', 'Geneva', 'Lucid', 'Arial', 'Helvetica', 'Avant Garde', sans-serif; text-anchor: end; fill: var(--fg-color)" x="28.96" y="84.690897" transform="rotate(-0 28.96 84.690897)">20</text>
     </g>
    </g>
    <g id="ytick_3">
     <g id="line2d_11">
      <path d="M 35.96 63.977052 
L 211 63.977052 
" clip-path="url(#p5f89743acf)" style="fill: none; stroke-dasharray: 2.96,1.28; stroke-dashoffset: 0; stroke: var(--grid-color); stroke-width: 0.8"/>
     </g>
     <g id="line2d_12">
      <g>
       <use xlink:href="#ma7fd2f0402" x="35.96" y="63.977052" style="fill: var(--fg-color); stroke: var(--fg-color); stroke-width: 0.8"/>
      </g>
     </g>
     <g id="text_6">
      <text style="font-size: 7px; font-family: 'DejaVu Sans', 'Bitstream Vera Sans', 'Computer Modern Sans Serif', 'Lucida Grande', 'Verdana', 'Geneva', 'Lucid', 'Arial', 'Helvetica', 'Avant Garde', sans-serif; text-anchor: end; fill: var(--fg-color)" x="28.96" y="66.636232" transform="rotate(-0 28.96 66.636232)">40</text>
     </g>
    </g>
    <g id="ytick_4">
     <g id="line2d_13">
      <path d="M 35.96 45.922388 
L 211 45.922388 
" clip-path="url(#p5f89743acf)" style="fill: none; stroke-dasharray: 2.96,1.28; stroke-dashoffset: 0; stroke: var(--grid-color); stroke-width: 0.8"/>
     </g>
     <g id="line2d_14">
      <g>
       <use xlink:href="#ma7fd2f0402" x="35.96" y="45.922388" style="fill: var(--fg-color); stroke: var(--fg-color); stroke-width: 0.8"/>
      </g>
     </g>
     <g id="text_7">
      <text style="font-size: 7px; font-family: 'DejaVu Sans', 'Bitstream Vera Sans', 'Computer Modern Sans Serif', 'Lucida Grande', 'Verdana', 'Geneva', 'Lucid', 'Arial', 'Helvetica', 'Avant Garde', sans-serif; text-anchor: end; fill: var(--fg-color)" x="28.96" y="48.581567" transform="rotate(-0 28.96 48.581567)">60</text>
     </g>
    </g>
    <g id="ytick_5">
     <g id="line2d_15">
      <path d="M 35.96 27.867723 
L 211 27.867723 
" clip-path="url(#p5f89743acf)" style="fill: none; stroke-dasharray: 2.96,1.28; stroke-dashoffset: 0; stroke: var(--grid-color); stroke-width: 0.8"/>
     </g>
     <g id="line2d_16">
      <g>
       <use xlink:href="#ma7fd2f0402" x="35.96" y="27.867723" style="fill: var(--fg-color); stroke: var(--fg-color); stroke-width: 0.8"/>
      </g>
     </g>
     <g id="text_8">
      <text style="font-size: 7px; font-family: 'DejaVu Sans', 'Bitstream Vera Sans', 'Computer Modern Sans Serif', 'Lucida Grande', 'Verdana', 'Geneva', 'Lucid', 'Arial', 'Helvetica', 'Avant Garde', sans-serif; text-anchor: end; fill: var(--fg-color)" x="28.96" y="30.526902" transform="rotate(-0 28.96 30.526902)">80</text>
     </g>
    </g>
    <g id="ytick_6">
     <g id="line2d_17">
      <path d="M 35.96 9.813058 
L 211 9.813058 
" clip-path="url(#p5f89743acf)" style="fill: none; stroke-dasharray: 2.96,1.28; stroke-dashoffset: 0; stroke: var(--grid-color); stroke-width: 0.8"/>
     </g>
     <g id="line2d_18">
      <g>
       <use xlink:href="#ma7fd2f0402" x="35.96" y="9.813058" style="fill: var(--fg-color); stroke: var(--fg-color); stroke-width: 0.8"/>
      </g>
     </g>
     <g id="text_9">
      <text style="font-size: 7px; font-family: 'DejaVu Sans', 'Bitstream Vera Sans', 'Computer Modern Sans Serif', 'Lucida Grande', 'Verdana', 'Geneva', 'Lucid', 'Arial', 'Helvetica', 'Avant Garde', sans-serif; text-anchor: end; fill: var(--fg-color)" x="28.96" y="12.472237" transform="rotate(-0 28.96 12.472237)">100</text>
     </g>
    </g>
    <g id="text_10">
     <text style="font-size: 7px; font-family: 'DejaVu Sans', 'Bitstream Vera Sans', 'Computer Modern Sans Serif', 'Lucida Grande', 'Verdana', 'Geneva', 'Lucid', 'Arial', 'Helvetica', 'Avant Garde', sans-serif; text-anchor: middle; fill: var(--fg-color)" x="9.917109" y="54.2" transform="rotate(-90 9.917109 54.2)">ms</text>
    </g>
   </g>
   <g id="line2d_19">
    <path d="M 43.916364 25.844697 
L 45.193108 25.904278 
L 45.766628 25.78602 
L 46.691788 26.120031 
L 47.616947 25.547698 
L 48.542109 21.652404 
L 49.467263 27.883069 
L 50.392418 25.034946 
L 51.317566 23.507521 
L 52.242732 28.872465 
L 53.167891 23.396485 
L 54.093049 25.277781 
L 55.018206 16.212534 
L 55.943359 26.780832 
L 56.868517 21.977388 
L 57.793676 21.990026 
L 58.718827 20.261292 
L 59.643987 28.489706 
L 60.569143 28.163819 
L 61.494301 26.183222 
L 62.419457 26.351131 
L 63.344613 25.269656 
L 64.269773 13.959312 
L 65.194924 28.337144 
L 66.120079 26.556051 
L 67.045243 20.149353 
L 67.970398 20.754185 
L 68.895557 22.327649 
L 69.82071 18.560543 
L 70.74585 24.338036 
L 71.671025 25.180286 
L 72.596178 24.916688 
L 73.521341 23.155455 
L 74.446495 25.20827 
L 75.371653 27.719674 
L 76.296805 21.044865 
L 77.221971 29.295847 
L 78.147114 26.32766 
L 79.072277 32.57999 
L 79.997435 23.138303 
L 80.922594 21.364432 
L 81.847735 18.107371 
L 82.772905 21.688514 
L 83.698046 27.349554 
L 84.623219 27.841543 
L 85.548376 28.163819 
L 86.473535 21.362627 
L 87.398688 26.318632 
L 88.323852 23.623974 
L 97.76512 18.581306 
L 98.500856 14.468453 
L 99.426031 19.136487 
L 100.351186 9.472727 
L 101.276348 28.133126 
L 102.201502 28.010354 
L 103.126656 27.628498 
L 104.051812 33.146004 
L 104.976967 25.884418 
L 105.902123 29.769782 
L 106.827282 26.84312 
L 107.752435 27.168104 
L 108.677594 27.917373 
L 109.602753 21.326518 
L 110.527909 27.935428 
L 111.453063 30.095668 
L 112.378223 31.50664 
L 113.303377 27.088664 
L 114.228537 24.680172 
L 115.153695 28.674766 
L 116.078848 17.860925 
L 117.004011 22.079397 
L 117.929158 30.80973 
L 118.854316 28.990723 
L 119.779481 19.32245 
L 120.704637 28.840869 
L 121.629794 27.919178 
L 122.554943 18.642692 
L 123.480104 24.367826 
L 124.405261 24.169225 
L 125.330416 22.443199 
L 126.255574 20.287472 
L 129.9562 20.01936 
L 130.881363 25.481799 
L 131.806516 19.019131 
L 132.731673 18.746506 
L 133.656831 19.539106 
L 134.581987 13.80675 
L 135.507147 27.449757 
L 136.432285 25.801366 
L 137.357455 24.502333 
L 138.282617 12.511327 
L 139.20777 18.890943 
L 140.13293 19.435291 
L 141.058084 24.981684 
L 141.983242 24.427406 
L 142.908395 19.463276 
L 143.833556 23.632098 
L 144.758724 21.586505 
L 145.683869 23.903821 
L 146.609028 21.666848 
L 147.534182 13.787792 
L 148.459339 16.30371 
L 149.384497 27.320666 
L 150.309651 24.778569 
L 151.234811 27.54003 
L 152.159963 14.223812 
L 179.91473 14.223812 
L 188.548948 19.02545 
L 189.166282 29.397855 
L 190.091439 25.177578 
L 191.016594 25.922332 
L 191.94175 13.937646 
L 192.866913 24.069021 
L 193.792066 18.639081 
L 194.717222 20.939245 
L 195.642377 19.474109 
L 196.567536 24.201723 
L 197.492695 18.486519 
L 198.417852 21.099931 
L 199.343013 24.79211 
L 200.268162 18.095635 
L 201.193322 18.352011 
L 202.118478 23.626682 
L 203.043636 14.488313 
" clip-path="url(#p5f89743acf)" style="fill: none; stroke: #339af0; stroke-width: 1.2; stroke-linecap: square"/>
   </g>
   <g id="line2d_20">
    <path d="M 43.916364 98.669091 
L 45.193108 98.745823 
L 45.766628 98.118424 
L 46.691788 98.688951 
L 47.616947 98.7052 
L 48.542109 98.584234 
L 49.467263 98.831583 
L 50.392418 98.788252 
L 51.317566 98.693465 
L 52.242732 98.749434 
L 53.167891 98.697076 
L 54.093049 98.772003 
L 55.018206 98.708811 
L 55.943359 98.846027 
L 56.868517 98.663675 
L 57.793676 98.47049 
L 58.718827 98.736796 
L 59.643987 98.767489 
L 60.569143 98.738601 
L 61.494301 98.819847 
L 62.419457 98.697076 
L 63.344613 98.657355 
L 64.269773 98.41452 
L 65.194924 98.778322 
L 66.120079 98.760267 
L 67.045243 98.726866 
L 67.970398 98.61583 
L 68.895557 98.709714 
L 69.82071 98.707909 
L 70.74585 98.029053 
L 71.671025 98.806306 
L 72.596178 98.828875 
L 73.521341 98.704298 
L 74.446495 98.804501 
L 75.371653 98.765683 
L 76.296805 98.736796 
L 77.221971 98.782835 
L 78.147114 98.86047 
L 79.072277 98.927273 
L 79.997435 98.700687 
L 80.922594 98.804501 
L 81.847735 98.730477 
L 82.772905 98.620343 
L 83.698046 98.827069 
L 84.623219 98.654647 
L 85.548376 98.836999 
L 86.473535 98.701589 
L 87.398688 98.802696 
L 88.323852 98.666383 
L 97.76512 98.80089 
L 98.500856 98.91644 
L 99.426031 98.863179 
L 100.351186 98.774711 
L 101.276348 98.847832 
L 102.201502 98.664577 
L 103.126656 98.690757 
L 104.051812 98.899288 
L 104.976967 98.78103 
L 105.902123 97.924336 
L 106.827282 98.778322 
L 107.752435 98.874011 
L 108.677594 98.75124 
L 109.602753 98.670896 
L 110.527909 98.809015 
L 111.453063 98.871303 
L 112.378223 98.794571 
L 113.303377 98.828875 
L 114.228537 98.767489 
L 115.153695 98.817139 
L 116.078848 98.756656 
L 117.004011 98.552638 
L 117.929158 98.818042 
L 118.854316 98.682632 
L 119.779481 98.824361 
L 120.704637 98.804501 
L 121.629794 98.76117 
L 122.554943 98.772905 
L 123.480104 98.734991 
L 124.405261 98.733185 
L 125.330416 98.659161 
L 126.255574 98.670896 
L 129.9562 98.717839 
L 130.881363 98.680827 
L 131.806516 98.750337 
L 132.731673 98.623954 
L 133.656831 98.667286 
L 134.581987 98.66548 
L 135.507147 98.652842 
L 136.432285 98.756656 
L 137.357455 98.637495 
L 138.282617 98.593261 
L 139.20777 98.534584 
L 140.13293 98.684437 
L 141.058084 98.744921 
L 141.983242 98.555347 
L 142.908395 98.660966 
L 143.833556 98.697076 
L 144.758724 98.629371 
L 145.683869 98.701589 
L 146.609028 98.734991 
L 147.534182 98.660064 
L 148.459339 98.688048 
L 149.384497 98.790057 
L 150.309651 98.718741 
L 151.234811 98.748532 
L 152.159963 98.618538 
L 179.91473 98.618538 
L 188.548948 98.620343 
L 189.166282 98.684437 
L 190.091439 98.554444 
L 191.016594 98.68534 
L 191.94175 98.506599 
L 192.866913 98.696173 
L 193.792066 97.871978 
L 194.717222 98.679924 
L 195.642377 98.256542 
L 196.567536 98.187031 
L 197.492695 98.701589 
L 198.417852 98.633884 
L 199.343013 98.590553 
L 200.268162 98.651036 
L 201.193322 98.608608 
L 202.118478 98.735893 
L 203.043636 98.362162 
" clip-path="url(#p5f89743acf)" style="fill: none; stroke: #ff6b6b; stroke-width: 1.2; stroke-linecap: square"/>
   </g>
   <g id="patch_3">
    <path d="M 35.96 103.4 
L 35.96 5 
" style="fill: none; stroke: var(--fg-color); stroke-width: 0.8; stroke-linejoin: miter; stroke-linecap: square"/>
   </g>
   <g id="patch_4">
    <path d="M 35.96 103.4 
L 211 103.4 
" style="fill: none; stroke: var(--fg-color); stroke-width: 0.8; stroke-linejoin: miter; stroke-linecap: square"/>
   </g>
  </g>
 </g>
 <defs>
  <clipPath id="p5f89743acf">
   <rect x="35.96" y="5" width="175.04" height="98.4"/>
  </clipPath>
 </defs>
</svg>
