<?xml version="1.0" encoding="utf-8" standalone="no"?>
<!DOCTYPE svg PUBLIC "-//W3C//DTD SVG 1.1//EN"
  "http://www.w3.org/Graphics/SVG/1.1/DTD/svg11.dtd">
<svg xmlns:xlink="http://www.w3.org/1999/xlink" width="216pt" height="122.4pt" viewBox="0 0 216 122.4" xmlns="http://www.w3.org/2000/svg" version="1.1">
  <style>
    :root {
      --fg-color: #212529;
      --grid-color: rgba(33, 37, 41, 0.1);
    }
    @media (prefers-color-scheme: dark) {
      :root {
        --fg-color: #dee2e6;
        --grid-color: rgba(248, 249, 250, 0.15);
      }
    }
  </style>

 <metadata>
  <rdf:RDF xmlns:dc="http://purl.org/dc/elements/1.1/" xmlns:cc="http://creativecommons.org/ns#" xmlns:rdf="http://www.w3.org/1999/02/22-rdf-syntax-ns#">
   <cc:Work>
    <dc:type rdf:resource="http://purl.org/dc/dcmitype/StillImage"/>
    <dc:date>2026-06-30T04:49:23.838918</dc:date>
    <dc:format>image/svg+xml</dc:format>
    <dc:creator>
     <cc:Agent>
      <dc:title>Matplotlib v3.11.0, https://matplotlib.org/</dc:title>
     </cc:Agent>
    </dc:creator>
   </cc:Work>
  </rdf:RDF>
 </metadata>
 <defs>
  <style type="text/css">*{stroke-linejoin: round; stroke-linecap: butt}</style>
 </defs>
 <g id="figure_1">
  <g id="patch_1">
   <path d="M 0 122.4 
L 216 122.4 
L 216 0 
L 0 0 
L 0 122.4 
z
" style="fill: none; opacity: 0"/>
  </g>
  <g id="axes_1">
   <g id="patch_2">
    <path d="M 35.96 103.4 
L 211 103.4 
L 211 5 
L 35.96 5 
L 35.96 103.4 
z
" style="fill: none; opacity: 0"/>
   </g>
   <g id="matplotlib.axis_1">
    <g id="xtick_1">
     <g id="line2d_1">
      <path d="M 70.996911 103.4 
L 70.996911 5 
" clip-path="url(#p12b0ee183c)" style="fill: none; stroke-dasharray: 2.96,1.28; stroke-dashoffset: 0; stroke: var(--grid-color); stroke-width: 0.8"/>
     </g>
     <g id="line2d_2">
      <defs>
       <path id="mab513c3a19" d="M 0 0 
L 0 3.5 
" style="stroke: var(--fg-color); stroke-width: 0.8"/>
      </defs>
      <g>
       <use xlink:href="#mab513c3a19" x="70.996911" y="103.4" style="fill: var(--fg-color); stroke: var(--fg-color); stroke-width: 0.8"/>
      </g>
     </g>
     <g id="text_1">
      <text style="font-size: 7px; font-family: 'DejaVu Sans', 'Bitstream Vera Sans', 'Computer Modern Sans Serif', 'Lucida Grande', 'Verdana', 'Geneva', 'Lucid', 'Arial', 'Helvetica', 'Avant Garde', sans-serif; text-anchor: middle; fill: var(--fg-color)" x="70.996911" y="115.718359" transform="rotate(-0 70.996911 115.718359)">02/2026</text>
     </g>
    </g>
    <g id="xtick_2">
     <g id="line2d_3">
      <path d="M 126.022656 103.4 
L 126.022656 5 
" clip-path="url(#p12b0ee183c)" style="fill: none; stroke-dasharray: 2.96,1.28; stroke-dashoffset: 0; stroke: var(--grid-color); stroke-width: 0.8"/>
     </g>
     <g id="line2d_4">
      <g>
       <use xlink:href="#mab513c3a19" x="126.022656" y="103.4" style="fill: var(--fg-color); stroke: var(--fg-color); stroke-width: 0.8"/>
      </g>
     </g>
     <g id="text_2">
      <text style="font-size: 7px; font-family: 'DejaVu Sans', 'Bitstream Vera Sans', 'Computer Modern Sans Serif', 'Lucida Grande', 'Verdana', 'Geneva', 'Lucid', 'Arial', 'Helvetica', 'Avant Garde', sans-serif; text-anchor: middle; fill: var(--fg-color)" x="126.022656" y="115.718359" transform="rotate(-0 126.022656 115.718359)">04/2026</text>
     </g>
    </g>
    <g id="xtick_3">
     <g id="line2d_5">
      <path d="M 182.913681 103.4 
L 182.913681 5 
" clip-path="url(#p12b0ee183c)" style="fill: none; stroke-dasharray: 2.96,1.28; stroke-dashoffset: 0; stroke: var(--grid-color); stroke-width: 0.8"/>
     </g>
     <g id="line2d_6">
      <g>
       <use xlink:href="#mab513c3a19" x="182.913681" y="103.4" style="fill: var(--fg-color); stroke: var(--fg-color); stroke-width: 0.8"/>
      </g>
     </g>
     <g id="text_3">
      <text style="font-size: 7px; font-family: 'DejaVu Sans', 'Bitstream Vera Sans', 'Computer Modern Sans Serif', 'Lucida Grande', 'Verdana', 'Geneva', 'Lucid', 'Arial', 'Helvetica', 'Avant Garde', sans-serif; text-anchor: middle; fill: var(--fg-color)" x="182.913681" y="115.718359" transform="rotate(-0 182.913681 115.718359)">06/2026</text>
     </g>
    </g>
   </g>
   <g id="matplotlib.axis_2">
    <g id="ytick_1">
     <g id="line2d_7">
      <path d="M 35.96 91.982119 
L 211 91.982119 
" clip-path="url(#p12b0ee183c)" style="fill: none; stroke-dasharray: 2.96,1.28; stroke-dashoffset: 0; stroke: var(--grid-color); stroke-width: 0.8"/>
     </g>
     <g id="line2d_8">
      <defs>
       <path id="m5d55691d47" d="M 0 0 
L -3.5 0 
" style="stroke: var(--fg-color); stroke-width: 0.8"/>
      </defs>
      <g>
       <use xlink:href="#m5d55691d47" x="35.96" y="91.982119" style="fill: var(--fg-color); stroke: var(--fg-color); stroke-width: 0.8"/>
      </g>
     </g>
     <g id="text_4">
      <text style="font-size: 7px; font-family: 'DejaVu Sans', 'Bitstream Vera Sans', 'Computer Modern Sans Serif', 'Lucida Grande', 'Verdana', 'Geneva', 'Lucid', 'Arial', 'Helvetica', 'Avant Garde', sans-serif; text-anchor: end; fill: var(--fg-color)" x="28.96" y="94.641299" transform="rotate(-0 28.96 94.641299)">60</text>
     </g>
    </g>
    <g id="ytick_2">
     <g id="line2d_9">
      <path d="M 35.96 69.049466 
L 211 69.049466 
" clip-path="url(#p12b0ee183c)" style="fill: none; stroke-dasharray: 2.96,1.28; stroke-dashoffset: 0; stroke: var(--grid-color); stroke-width: 0.8"/>
     </g>
     <g id="line2d_10">
      <g>
       <use xlink:href="#m5d55691d47" x="35.96" y="69.049466" style="fill: var(--fg-color); stroke: var(--fg-color); stroke-width: 0.8"/>
      </g>
     </g>
     <g id="text_5">
      <text style="font-size: 7px; font-family: 'DejaVu Sans', 'Bitstream Vera Sans', 'Computer Modern Sans Serif', 'Lucida Grande', 'Verdana', 'Geneva', 'Lucid', 'Arial', 'Helvetica', 'Avant Garde', sans-serif; text-anchor: end; fill: var(--fg-color)" x="28.96" y="71.708646" transform="rotate(-0 28.96 71.708646)">80</text>
     </g>
    </g>
    <g id="ytick_3">
     <g id="line2d_11">
      <path d="M 35.96 46.116813 
L 211 46.116813 
" clip-path="url(#p12b0ee183c)" style="fill: none; stroke-dasharray: 2.96,1.28; stroke-dashoffset: 0; stroke: var(--grid-color); stroke-width: 0.8"/>
     </g>
     <g id="line2d_12">
      <g>
       <use xlink:href="#m5d55691d47" x="35.96" y="46.116813" style="fill: var(--fg-color); stroke: var(--fg-color); stroke-width: 0.8"/>
      </g>
     </g>
     <g id="text_6">
      <text style="font-size: 7px; font-family: 'DejaVu Sans', 'Bitstream Vera Sans', 'Computer Modern Sans Serif', 'Lucida Grande', 'Verdana', 'Geneva', 'Lucid', 'Arial', 'Helvetica', 'Avant Garde', sans-serif; text-anchor: end; fill: var(--fg-color)" x="28.96" y="48.775993" transform="rotate(-0 28.96 48.775993)">100</text>
     </g>
    </g>
    <g id="ytick_4">
     <g id="line2d_13">
      <path d="M 35.96 23.18416 
L 211 23.18416 
" clip-path="url(#p12b0ee183c)" style="fill: none; stroke-dasharray: 2.96,1.28; stroke-dashoffset: 0; stroke: var(--grid-color); stroke-width: 0.8"/>
     </g>
     <g id="line2d_14">
      <g>
       <use xlink:href="#m5d55691d47" x="35.96" y="23.18416" style="fill: var(--fg-color); stroke: var(--fg-color); stroke-width: 0.8"/>
      </g>
     </g>
     <g id="text_7">
      <text style="font-size: 7px; font-family: 'DejaVu Sans', 'Bitstream Vera Sans', 'Computer Modern Sans Serif', 'Lucida Grande', 'Verdana', 'Geneva', 'Lucid', 'Arial', 'Helvetica', 'Avant Garde', sans-serif; text-anchor: end; fill: var(--fg-color)" x="28.96" y="25.84334" transform="rotate(-0 28.96 25.84334)">120</text>
     </g>
    </g>
    <g id="text_8">
     <text style="font-size: 7px; font-family: 'DejaVu Sans', 'Bitstream Vera Sans', 'Computer Modern Sans Serif', 'Lucida Grande', 'Verdana', 'Geneva', 'Lucid', 'Arial', 'Helvetica', 'Avant Garde', sans-serif; text-anchor: middle; fill: var(--fg-color)" x="9.917109" y="54.2" transform="rotate(-90 9.917109 54.2)">ms</text>
    </g>
   </g>
   <g id="line2d_15">
    <path d="M 43.916364 69.627369 
L 44.494523 76.465886 
L 45.427166 54.636294 
L 46.359808 73.345899 
L 47.292453 85.831581 
L 48.22509 80.827676 
L 49.157727 73.490374 
L 50.090359 83.079663 
L 51.023007 65.266725 
L 51.95565 76.434927 
L 52.88829 79.531982 
L 53.82093 71.034287 
L 54.753566 63.969883 
L 55.686208 78.908213 
L 56.618849 82.521253 
L 57.551483 78.419748 
L 58.484126 82.754019 
L 59.416765 87.582489 
L 60.349406 69.105651 
L 61.282045 71.241828 
L 62.214684 68.536921 
L 63.147327 74.948891 
L 64.07996 77.200877 
L 65.012598 68.473856 
L 65.945245 66.093447 
L 66.877884 77.081628 
L 67.810526 81.224411 
L 68.743162 74.318243 
L 69.675784 79.559501 
L 70.608443 76.769744 
L 71.541078 74.420293 
L 72.473724 54.564056 
L 73.406361 74.937425 
L 74.339003 62.599657 
L 75.271637 62.792292 
L 76.204286 71.331265 
L 77.136912 60.085092 
L 78.069558 67.928059 
L 79.002199 71.775012 
L 79.934841 58.827236 
L 80.867465 51.159704 
L 81.800118 80.706133 
L 82.732742 75.21835 
L 83.665398 64.357445 
L 84.598038 81.196892 
L 85.53068 54.247585 
L 86.463316 72.62008 
L 87.395962 62.784265 
L 96.913595 74.854867 
L 97.655282 72.201559 
L 98.587939 75.792813 
L 99.520578 67.834035 
L 100.453222 48.265603 
L 101.385859 64.755327 
L 102.318497 73.875643 
L 103.251135 88.47457 
L 104.183773 98.927273 
L 105.116412 90.692157 
L 106.049054 89.323078 
L 106.981691 89.326518 
L 107.914333 73.84583 
L 108.846974 93.376424 
L 109.779613 81.675038 
L 110.71225 91.079719 
L 111.644893 70.833626 
L 112.57753 78.166342 
L 113.510173 79.902344 
L 114.442814 83.349122 
L 115.37545 91.876629 
L 116.308095 81.287476 
L 117.240726 80.348384 
L 118.173367 80.741679 
L 119.106014 80.858636 
L 120.038653 76.919952 
L 120.971293 90.558001 
L 121.903926 86.534467 
L 122.836569 82.215102 
L 123.769209 68.180318 
L 124.701847 69.901414 
L 125.634489 83.790575 
L 129.365046 76.761717 
L 130.297692 59.869525 
L 131.230328 79.592753 
L 132.162968 80.666001 
L 133.095609 75.912062 
L 134.028248 65.954705 
L 134.960891 77.228397 
L 135.893512 63.951537 
L 136.826165 84.134565 
L 137.75881 75.173631 
L 138.691446 76.405114 
L 139.624089 69.059786 
L 140.556726 69.152663 
L 141.489366 61.301669 
L 142.422003 69.279939 
L 143.354646 77.043789 
L 144.287298 75.649483 
L 145.219926 67.738865 
L 146.152567 72.258891 
L 147.085204 51.762832 
L 148.017844 62.431102 
L 148.950485 55.934282 
L 149.883123 74.599168 
L 150.815765 66.852518 
L 151.7484 70.075702 
L 179.727656 70.075702 
L 188.43171 68.11496 
L 189.054038 77.094241 
L 189.986678 62.773946 
L 190.919315 53.692615 
L 191.851955 66.313601 
L 192.7846 81.485844 
L 193.717237 71.730293 
L 194.649875 68.672224 
L 195.582513 60.644649 
L 196.515156 64.075374 
L 197.447798 79.958529 
L 198.380437 86.098747 
L 199.313081 68.8167 
L 200.245713 53.814158 
L 201.178356 83.178273 
L 202.110995 91.021241 
L 203.043636 89.03642 
" clip-path="url(#p12b0ee183c)" style="fill: none; stroke: #339af0; stroke-width: 1.2; stroke-linecap: square"/>
   </g>
   <g id="line2d_16">
    <path d="M 43.916364 28.675384 
L 44.494523 45.141029 
L 45.427166 36.928846 
L 46.359808 22.913555 
L 47.292453 30.237098 
L 48.22509 46.202811 
L 49.157727 9.472727 
L 50.090359 34.762857 
L 51.023007 28.590533 
L 51.95565 40.787265 
L 52.88829 30.088036 
L 53.82093 44.472542 
L 54.753566 38.515785 
L 55.686208 45.830155 
L 56.618849 42.572572 
L 57.551483 28.35662 
L 58.484126 41.531429 
L 59.416765 34.335163 
L 60.349406 32.466152 
L 61.282045 32.774596 
L 62.214684 37.488403 
L 63.147327 37.534268 
L 64.07996 45.431127 
L 65.012598 39.208352 
L 65.945245 46.255556 
L 66.877884 41.679345 
L 67.810526 43.135568 
L 68.743162 44.721361 
L 69.675784 33.20573 
L 70.608443 35.279988 
L 71.541078 34.87752 
L 72.473724 41.862806 
L 73.406361 48.079848 
L 74.339003 36.251186 
L 75.271637 33.674702 
L 76.204286 41.883445 
L 77.136912 40.191016 
L 78.069558 41.552069 
L 79.002199 39.220964 
L 79.934841 38.334617 
L 80.867465 35.700802 
L 81.800118 42.038241 
L 82.732742 44.97706 
L 83.665398 37.340487 
L 84.598038 36.856608 
L 85.53068 32.786062 
L 86.463316 38.965265 
L 87.395962 34.958931 
L 96.913595 34.879813 
L 97.655282 34.593155 
L 98.587939 41.843313 
L 99.520578 36.738505 
L 100.453222 40.144004 
L 101.385859 26.878611 
L 102.318497 37.730342 
L 103.251135 30.39992 
L 104.183773 40.035074 
L 105.116412 35.934715 
L 106.049054 43.8568 
L 106.981691 39.94449 
L 107.914333 37.905777 
L 108.846974 44.76952 
L 109.779613 23.87558 
L 110.71225 44.939221 
L 111.644893 37.710849 
L 112.57753 33.219489 
L 113.510173 45.692559 
L 114.442814 32.487938 
L 115.37545 34.658513 
L 116.308095 39.672738 
L 117.240726 53.597445 
L 118.173367 37.405845 
L 119.106014 30.911318 
L 120.038653 42.289353 
L 120.971293 42.336365 
L 121.903926 42.86611 
L 122.836569 35.837252 
L 123.769209 45.247666 
L 124.701847 43.570142 
L 125.634489 37.572107 
L 129.365046 40.289626 
L 130.297692 38.426348 
L 131.230328 50.085309 
L 132.162968 32.387034 
L 133.095609 38.039933 
L 134.028248 43.409614 
L 134.960891 45.435713 
L 135.893512 42.173544 
L 136.826165 48.285096 
L 137.75881 36.307371 
L 138.691446 47.277205 
L 139.624089 42.682648 
L 140.556726 34.153995 
L 141.489366 35.953061 
L 142.422003 39.48469 
L 143.354646 42.318019 
L 144.287298 35.909489 
L 145.219926 47.681967 
L 146.152567 26.454357 
L 147.085204 26.995567 
L 148.017844 38.144276 
L 148.950485 31.39749 
L 149.883123 42.440709 
L 150.815765 32.612921 
L 151.7484 28.970069 
L 179.727656 28.970069 
L 188.43171 42.328339 
L 189.054038 36.425474 
L 189.986678 48.015637 
L 190.919315 39.599353 
L 191.851955 35.818905 
L 192.7846 47.298991 
L 193.717237 38.57197 
L 194.649875 38.551331 
L 195.582513 44.290227 
L 196.515156 41.968296 
L 197.447798 30.981262 
L 198.380437 29.937827 
L 199.313081 42.342099 
L 200.245713 36.571096 
L 201.178356 38.674021 
L 202.110995 40.173816 
L 203.043636 39.684204 
" clip-path="url(#p12b0ee183c)" style="fill: none; stroke: #ff6b6b; stroke-width: 1.2; stroke-linecap: square"/>
   </g>
   <g id="patch_3">
    <path d="M 35.96 103.4 
L 35.96 5 
" style="fill: none; stroke: var(--fg-color); stroke-width: 0.8; stroke-linejoin: miter; stroke-linecap: square"/>
   </g>
   <g id="patch_4">
    <path d="M 35.96 103.4 
L 211 103.4 
" style="fill: none; stroke: var(--fg-color); stroke-width: 0.8; stroke-linejoin: miter; stroke-linecap: square"/>
   </g>
  </g>
 </g>
 <defs>
  <clipPath id="p12b0ee183c">
   <rect x="35.96" y="5" width="175.04" height="98.4"/>
  </clipPath>
 </defs>
</svg>
