<?xml version="1.0" encoding="utf-8" standalone="no"?>
<!DOCTYPE svg PUBLIC "-//W3C//DTD SVG 1.1//EN"
  "http://www.w3.org/Graphics/SVG/1.1/DTD/svg11.dtd">
<svg xmlns:xlink="http://www.w3.org/1999/xlink" width="216pt" height="122.4pt" viewBox="0 0 216 122.4" xmlns="http://www.w3.org/2000/svg" version="1.1">
  <style>
    :root {
      --fg-color: #212529;
      --grid-color: rgba(33, 37, 41, 0.1);
    }
    @media (prefers-color-scheme: dark) {
      :root {
        --fg-color: #dee2e6;
        --grid-color: rgba(248, 249, 250, 0.15);
      }
    }
  </style>

 <metadata>
  <rdf:RDF xmlns:dc="http://purl.org/dc/elements/1.1/" xmlns:cc="http://creativecommons.org/ns#" xmlns:rdf="http://www.w3.org/1999/02/22-rdf-syntax-ns#">
   <cc:Work>
    <dc:type rdf:resource="http://purl.org/dc/dcmitype/StillImage"/>
    <dc:date>2026-06-30T15:37:08.586160</dc:date>
    <dc:format>image/svg+xml</dc:format>
    <dc:creator>
     <cc:Agent>
      <dc:title>Matplotlib v3.11.0, https://matplotlib.org/</dc:title>
     </cc:Agent>
    </dc:creator>
   </cc:Work>
  </rdf:RDF>
 </metadata>
 <defs>
  <style type="text/css">*{stroke-linejoin: round; stroke-linecap: butt}</style>
 </defs>
 <g id="figure_1">
  <g id="patch_1">
   <path d="M 0 122.4 
L 216 122.4 
L 216 0 
L 0 0 
L 0 122.4 
z
" style="fill: none; opacity: 0"/>
  </g>
  <g id="axes_1">
   <g id="patch_2">
    <path d="M 35.96 103.4 
L 211 103.4 
L 211 5 
L 35.96 5 
L 35.96 103.4 
z
" style="fill: none; opacity: 0"/>
   </g>
   <g id="matplotlib.axis_1">
    <g id="xtick_1">
     <g id="line2d_1">
      <path d="M 69.784035 103.4 
L 69.784035 5 
" clip-path="url(#pcce26ddc2a)" style="fill: none; stroke-dasharray: 2.96,1.28; stroke-dashoffset: 0; stroke: var(--grid-color); stroke-width: 0.8"/>
     </g>
     <g id="line2d_2">
      <defs>
       <path id="m281f0f5a66" d="M 0 0 
L 0 3.5 
" style="stroke: var(--fg-color); stroke-width: 0.8"/>
      </defs>
      <g>
       <use xlink:href="#m281f0f5a66" x="69.784035" y="103.4" style="fill: var(--fg-color); stroke: var(--fg-color); stroke-width: 0.8"/>
      </g>
     </g>
     <g id="text_1">
      <text style="font-size: 7px; font-family: 'DejaVu Sans', 'Bitstream Vera Sans', 'Computer Modern Sans Serif', 'Lucida Grande', 'Verdana', 'Geneva', 'Lucid', 'Arial', 'Helvetica', 'Avant Garde', sans-serif; text-anchor: middle; fill: var(--fg-color)" x="69.784035" y="115.718359" transform="rotate(-0 69.784035 115.718359)">02/2026</text>
     </g>
    </g>
    <g id="xtick_2">
     <g id="line2d_3">
      <path d="M 122.345302 103.4 
L 122.345302 5 
" clip-path="url(#pcce26ddc2a)" style="fill: none; stroke-dasharray: 2.96,1.28; stroke-dashoffset: 0; stroke: var(--grid-color); stroke-width: 0.8"/>
     </g>
     <g id="line2d_4">
      <g>
       <use xlink:href="#m281f0f5a66" x="122.345302" y="103.4" style="fill: var(--fg-color); stroke: var(--fg-color); stroke-width: 0.8"/>
      </g>
     </g>
     <g id="text_2">
      <text style="font-size: 7px; font-family: 'DejaVu Sans', 'Bitstream Vera Sans', 'Computer Modern Sans Serif', 'Lucida Grande', 'Verdana', 'Geneva', 'Lucid', 'Arial', 'Helvetica', 'Avant Garde', sans-serif; text-anchor: middle; fill: var(--fg-color)" x="122.345302" y="115.718359" transform="rotate(-0 122.345302 115.718359)">04/2026</text>
     </g>
    </g>
    <g id="xtick_3">
     <g id="line2d_5">
      <path d="M 176.688307 103.4 
L 176.688307 5 
" clip-path="url(#pcce26ddc2a)" style="fill: none; stroke-dasharray: 2.96,1.28; stroke-dashoffset: 0; stroke: var(--grid-color); stroke-width: 0.8"/>
     </g>
     <g id="line2d_6">
      <g>
       <use xlink:href="#m281f0f5a66" x="176.688307" y="103.4" style="fill: var(--fg-color); stroke: var(--fg-color); stroke-width: 0.8"/>
      </g>
     </g>
     <g id="text_3">
      <text style="font-size: 7px; font-family: 'DejaVu Sans', 'Bitstream Vera Sans', 'Computer Modern Sans Serif', 'Lucida Grande', 'Verdana', 'Geneva', 'Lucid', 'Arial', 'Helvetica', 'Avant Garde', sans-serif; text-anchor: middle; fill: var(--fg-color)" x="176.688307" y="115.718359" transform="rotate(-0 176.688307 115.718359)">06/2026</text>
     </g>
    </g>
   </g>
   <g id="matplotlib.axis_2">
    <g id="ytick_1">
     <g id="line2d_7">
      <path d="M 35.96 99.690207 
L 211 99.690207 
" clip-path="url(#pcce26ddc2a)" style="fill: none; stroke-dasharray: 2.96,1.28; stroke-dashoffset: 0; stroke: var(--grid-color); stroke-width: 0.8"/>
     </g>
     <g id="line2d_8">
      <defs>
       <path id="ma27133ecec" d="M 0 0 
L -3.5 0 
" style="stroke: var(--fg-color); stroke-width: 0.8"/>
      </defs>
      <g>
       <use xlink:href="#ma27133ecec" x="35.96" y="99.690207" style="fill: var(--fg-color); stroke: var(--fg-color); stroke-width: 0.8"/>
      </g>
     </g>
     <g id="text_4">
      <text style="font-size: 7px; font-family: 'DejaVu Sans', 'Bitstream Vera Sans', 'Computer Modern Sans Serif', 'Lucida Grande', 'Verdana', 'Geneva', 'Lucid', 'Arial', 'Helvetica', 'Avant Garde', sans-serif; text-anchor: end; fill: var(--fg-color)" x="28.96" y="102.349386" transform="rotate(-0 28.96 102.349386)">0</text>
     </g>
    </g>
    <g id="ytick_2">
     <g id="line2d_9">
      <path d="M 35.96 72.882969 
L 211 72.882969 
" clip-path="url(#pcce26ddc2a)" style="fill: none; stroke-dasharray: 2.96,1.28; stroke-dashoffset: 0; stroke: var(--grid-color); stroke-width: 0.8"/>
     </g>
     <g id="line2d_10">
      <g>
       <use xlink:href="#ma27133ecec" x="35.96" y="72.882969" style="fill: var(--fg-color); stroke: var(--fg-color); stroke-width: 0.8"/>
      </g>
     </g>
     <g id="text_5">
      <text style="font-size: 7px; font-family: 'DejaVu Sans', 'Bitstream Vera Sans', 'Computer Modern Sans Serif', 'Lucida Grande', 'Verdana', 'Geneva', 'Lucid', 'Arial', 'Helvetica', 'Avant Garde', sans-serif; text-anchor: end; fill: var(--fg-color)" x="28.96" y="75.542149" transform="rotate(-0 28.96 75.542149)">200</text>
     </g>
    </g>
    <g id="ytick_3">
     <g id="line2d_11">
      <path d="M 35.96 46.075732 
L 211 46.075732 
" clip-path="url(#pcce26ddc2a)" style="fill: none; stroke-dasharray: 2.96,1.28; stroke-dashoffset: 0; stroke: var(--grid-color); stroke-width: 0.8"/>
     </g>
     <g id="line2d_12">
      <g>
       <use xlink:href="#ma27133ecec" x="35.96" y="46.075732" style="fill: var(--fg-color); stroke: var(--fg-color); stroke-width: 0.8"/>
      </g>
     </g>
     <g id="text_6">
      <text style="font-size: 7px; font-family: 'DejaVu Sans', 'Bitstream Vera Sans', 'Computer Modern Sans Serif', 'Lucida Grande', 'Verdana', 'Geneva', 'Lucid', 'Arial', 'Helvetica', 'Avant Garde', sans-serif; text-anchor: end; fill: var(--fg-color)" x="28.96" y="48.734911" transform="rotate(-0 28.96 48.734911)">400</text>
     </g>
    </g>
    <g id="ytick_4">
     <g id="line2d_13">
      <path d="M 35.96 19.268494 
L 211 19.268494 
" clip-path="url(#pcce26ddc2a)" style="fill: none; stroke-dasharray: 2.96,1.28; stroke-dashoffset: 0; stroke: var(--grid-color); stroke-width: 0.8"/>
     </g>
     <g id="line2d_14">
      <g>
       <use xlink:href="#ma27133ecec" x="35.96" y="19.268494" style="fill: var(--fg-color); stroke: var(--fg-color); stroke-width: 0.8"/>
      </g>
     </g>
     <g id="text_7">
      <text style="font-size: 7px; font-family: 'DejaVu Sans', 'Bitstream Vera Sans', 'Computer Modern Sans Serif', 'Lucida Grande', 'Verdana', 'Geneva', 'Lucid', 'Arial', 'Helvetica', 'Avant Garde', sans-serif; text-anchor: end; fill: var(--fg-color)" x="28.96" y="21.927674" transform="rotate(-0 28.96 21.927674)">600</text>
     </g>
    </g>
    <g id="text_8">
     <text style="font-size: 7px; font-family: 'DejaVu Sans', 'Bitstream Vera Sans', 'Computer Modern Sans Serif', 'Lucida Grande', 'Verdana', 'Geneva', 'Lucid', 'Arial', 'Helvetica', 'Avant Garde', sans-serif; text-anchor: middle; fill: var(--fg-color)" x="9.917109" y="54.2" transform="rotate(-90 9.917109 54.2)">ms</text>
    </g>
   </g>
   <g id="line2d_15">
    <path d="M 43.916364 89.182574 
L 44.468628 88.986881 
L 45.3595 90.092143 
L 46.250371 89.447563 
L 47.141245 88.581958 
L 48.032112 89.38202 
L 48.922979 89.504663 
L 49.81384 89.074943 
L 50.704717 89.62744 
L 51.595589 90.690883 
L 52.486458 87.886846 
L 53.377327 89.083521 
L 54.268192 89.811338 
L 55.159063 89.504797 
L 56.049934 88.909676 
L 56.940797 89.703706 
L 57.831669 89.312053 
L 58.722538 87.663676 
L 59.613407 90.660859 
L 60.504275 89.478526 
L 62.286016 89.042506 
L 63.176879 89.187935 
L 64.067746 90.202991 
L 64.958622 89.216485 
L 65.84949 89.255355 
L 66.740361 82.562258 
L 67.631226 88.166848 
L 68.522078 88.41334 
L 69.412965 88.342033 
L 70.30383 89.943631 
L 71.194705 89.108318 
L 72.085571 88.92375 
L 72.976442 87.480046 
L 73.867306 86.512439 
L 74.758184 88.238825 
L 75.649039 90.261565 
L 76.539914 89.721399 
L 77.430784 88.845205 
L 78.321655 89.192627 
L 79.212509 88.906191 
L 80.103391 86.256832 
L 80.994245 89.90007 
L 81.885129 89.809863 
L 82.775998 86.995505 
L 83.666869 88.669751 
L 84.557735 86.306693 
L 85.44861 87.768492 
L 94.53997 89.653711 
L 95.248438 84.576554 
L 96.139324 87.33703 
L 97.030192 87.759244 
L 97.921065 85.452481 
L 98.811931 88.200759 
L 99.702798 89.274657 
L 100.593666 88.478884 
L 101.484533 89.473298 
L 102.375401 91.158267 
L 103.266272 89.052693 
L 104.157138 89.019586 
L 105.048009 88.028522 
L 105.93888 88.09621 
L 106.829748 89.855167 
L 107.720614 90.424151 
L 108.611487 89.544472 
L 109.502352 89.758259 
L 110.393224 88.378357 
L 111.284094 90.598264 
L 112.17496 89.981564 
L 113.065834 88.614126 
L 113.956695 89.76027 
L 114.847564 89.639637 
L 115.738441 89.252943 
L 116.629309 89.205896 
L 117.520178 88.858206 
L 118.41104 87.174712 
L 119.301913 89.254685 
L 120.192782 89.385237 
L 121.083649 86.859995 
L 121.97452 89.717512 
L 125.537994 89.141559 
L 126.428869 86.43376 
L 127.319734 88.665194 
L 128.210603 87.552828 
L 129.101474 87.280198 
L 129.992342 89.320363 
L 130.883214 89.455874 
L 131.774065 89.005512 
L 132.664946 89.299185 
L 133.55582 88.19781 
L 134.446686 88.394977 
L 135.337558 89.040898 
L 136.228424 88.123822 
L 137.119294 85.936217 
L 138.010159 88.081064 
L 138.901032 88.719613 
L 139.791912 88.500464 
L 140.68277 87.668769 
L 141.57364 88.718272 
L 142.464507 80.416205 
L 143.355376 88.396049 
L 144.246246 88.749369 
L 145.137113 88.220328 
L 146.027984 89.167964 
L 146.918849 87.941935 
L 173.644977 87.941935 
L 182.553652 90.234356 
L 183.444521 87.471468 
L 184.335387 82.477548 
L 185.226256 20.777205 
L 186.117131 86.739898 
L 187.007996 89.18512 
L 187.898864 89.629719 
L 188.789731 78.756837 
L 189.680603 89.562164 
L 190.571474 89.380143 
L 191.462343 89.64205 
L 192.353215 88.849896 
L 193.244077 89.858652 
L 194.134949 89.610015 
L 195.025817 87.68539 
L 195.916688 87.31049 
L 196.807557 9.472727 
L 197.698426 85.917318 
L 198.589295 89.707191 
L 199.480162 16.339803 
L 200.371032 89.417271 
L 201.261898 88.684897 
L 202.152766 90.427368 
L 203.043636 90.087184 
L 203.043636 90.087184 
" clip-path="url(#pcce26ddc2a)" style="fill: none; stroke: #339af0; stroke-width: 1.2; stroke-linecap: square"/>
   </g>
   <g id="line2d_16">
    <path d="M 43.916364 98.627702 
L 44.468628 98.830901 
L 48.922979 98.734931 
L 51.595589 98.876071 
L 52.486458 98.67448 
L 54.268192 98.771523 
L 56.940797 98.773935 
L 61.395144 98.807846 
L 62.286016 98.758655 
L 64.067746 98.833715 
L 74.758184 98.771121 
L 75.649039 98.854491 
L 78.321655 98.744984 
L 80.103391 98.843634 
L 80.994245 98.716434 
L 82.775998 98.796721 
L 83.666869 98.801145 
L 84.557735 98.530794 
L 85.44861 98.816157 
L 97.030192 98.755572 
L 97.921065 98.711474 
L 99.702798 98.898723 
L 105.93888 98.759325 
L 106.829748 98.87138 
L 107.720614 98.846047 
L 108.611487 98.618319 
L 109.502352 98.927273 
L 111.284094 98.78506 
L 112.17496 98.822188 
L 113.065834 98.655983 
L 114.847564 98.799536 
L 116.629309 98.846851 
L 119.301913 98.73225 
L 120.192782 98.675955 
L 121.083649 98.823931 
L 128.210603 98.784524 
L 129.101474 98.597678 
L 129.992342 98.820178 
L 131.774065 98.626227 
L 132.664946 98.7545 
L 135.337558 98.731044 
L 137.119294 98.762676 
L 138.010159 98.690163 
L 138.901032 98.793103 
L 139.791912 98.670593 
L 143.355376 98.794309 
L 145.137113 98.751551 
L 146.918849 98.753562 
L 195.025817 98.829694 
L 195.916688 98.874865 
L 196.807557 98.780369 
L 197.698426 98.903414 
L 199.480162 98.761738 
L 201.261898 98.781575 
L 202.152766 98.896042 
L 203.043636 98.880628 
L 203.043636 98.880628 
" clip-path="url(#pcce26ddc2a)" style="fill: none; stroke: #ff6b6b; stroke-width: 1.2; stroke-linecap: square"/>
   </g>
   <g id="patch_3">
    <path d="M 35.96 103.4 
L 35.96 5 
" style="fill: none; stroke: var(--fg-color); stroke-width: 0.8; stroke-linejoin: miter; stroke-linecap: square"/>
   </g>
   <g id="patch_4">
    <path d="M 35.96 103.4 
L 211 103.4 
" style="fill: none; stroke: var(--fg-color); stroke-width: 0.8; stroke-linejoin: miter; stroke-linecap: square"/>
   </g>
  </g>
 </g>
 <defs>
  <clipPath id="pcce26ddc2a">
   <rect x="35.96" y="5" width="175.04" height="98.4"/>
  </clipPath>
 </defs>
</svg>
