<?xml version="1.0" encoding="utf-8" standalone="no"?>
<!DOCTYPE svg PUBLIC "-//W3C//DTD SVG 1.1//EN"
  "http://www.w3.org/Graphics/SVG/1.1/DTD/svg11.dtd">
<svg xmlns:xlink="http://www.w3.org/1999/xlink" width="216pt" height="122.4pt" viewBox="0 0 216 122.4" xmlns="http://www.w3.org/2000/svg" version="1.1">
  <style>
    :root {
      --fg-color: #212529;
      --grid-color: rgba(33, 37, 41, 0.1);
    }
    @media (prefers-color-scheme: dark) {
      :root {
        --fg-color: #dee2e6;
        --grid-color: rgba(248, 249, 250, 0.15);
      }
    }
  </style>

 <metadata>
  <rdf:RDF xmlns:dc="http://purl.org/dc/elements/1.1/" xmlns:cc="http://creativecommons.org/ns#" xmlns:rdf="http://www.w3.org/1999/02/22-rdf-syntax-ns#">
   <cc:Work>
    <dc:type rdf:resource="http://purl.org/dc/dcmitype/StillImage"/>
    <dc:date>2026-06-30T04:49:00.563040</dc:date>
    <dc:format>image/svg+xml</dc:format>
    <dc:creator>
     <cc:Agent>
      <dc:title>Matplotlib v3.11.0, https://matplotlib.org/</dc:title>
     </cc:Agent>
    </dc:creator>
   </cc:Work>
  </rdf:RDF>
 </metadata>
 <defs>
  <style type="text/css">*{stroke-linejoin: round; stroke-linecap: butt}</style>
 </defs>
 <g id="figure_1">
  <g id="patch_1">
   <path d="M 0 122.4 
L 216 122.4 
L 216 0 
L 0 0 
L 0 122.4 
z
" style="fill: none; opacity: 0"/>
  </g>
  <g id="axes_1">
   <g id="patch_2">
    <path d="M 35.96 103.4 
L 211 103.4 
L 211 5 
L 35.96 5 
L 35.96 103.4 
z
" style="fill: none; opacity: 0"/>
   </g>
   <g id="matplotlib.axis_1">
    <g id="xtick_1">
     <g id="line2d_1">
      <path d="M 72.056377 103.4 
L 72.056377 5 
" clip-path="url(#p334703729a)" style="fill: none; stroke-dasharray: 2.96,1.28; stroke-dashoffset: 0; stroke: var(--grid-color); stroke-width: 0.8"/>
     </g>
     <g id="line2d_2">
      <defs>
       <path id="m74a73ec84d" d="M 0 0 
L 0 3.5 
" style="stroke: var(--fg-color); stroke-width: 0.8"/>
      </defs>
      <g>
       <use xlink:href="#m74a73ec84d" x="72.056377" y="103.4" style="fill: var(--fg-color); stroke: var(--fg-color); stroke-width: 0.8"/>
      </g>
     </g>
     <g id="text_1">
      <text style="font-size: 7px; font-family: 'DejaVu Sans', 'Bitstream Vera Sans', 'Computer Modern Sans Serif', 'Lucida Grande', 'Verdana', 'Geneva', 'Lucid', 'Arial', 'Helvetica', 'Avant Garde', sans-serif; text-anchor: middle; fill: var(--fg-color)" x="72.056377" y="115.718359" transform="rotate(-0 72.056377 115.718359)">02/2026</text>
     </g>
    </g>
    <g id="xtick_2">
     <g id="line2d_3">
      <path d="M 126.640628 103.4 
L 126.640628 5 
" clip-path="url(#p334703729a)" style="fill: none; stroke-dasharray: 2.96,1.28; stroke-dashoffset: 0; stroke: var(--grid-color); stroke-width: 0.8"/>
     </g>
     <g id="line2d_4">
      <g>
       <use xlink:href="#m74a73ec84d" x="126.640628" y="103.4" style="fill: var(--fg-color); stroke: var(--fg-color); stroke-width: 0.8"/>
      </g>
     </g>
     <g id="text_2">
      <text style="font-size: 7px; font-family: 'DejaVu Sans', 'Bitstream Vera Sans', 'Computer Modern Sans Serif', 'Lucida Grande', 'Verdana', 'Geneva', 'Lucid', 'Arial', 'Helvetica', 'Avant Garde', sans-serif; text-anchor: middle; fill: var(--fg-color)" x="126.640628" y="115.718359" transform="rotate(-0 126.640628 115.718359)">04/2026</text>
     </g>
    </g>
    <g id="xtick_3">
     <g id="line2d_5">
      <path d="M 183.075192 103.4 
L 183.075192 5 
" clip-path="url(#p334703729a)" style="fill: none; stroke-dasharray: 2.96,1.28; stroke-dashoffset: 0; stroke: var(--grid-color); stroke-width: 0.8"/>
     </g>
     <g id="line2d_6">
      <g>
       <use xlink:href="#m74a73ec84d" x="183.075192" y="103.4" style="fill: var(--fg-color); stroke: var(--fg-color); stroke-width: 0.8"/>
      </g>
     </g>
     <g id="text_3">
      <text style="font-size: 7px; font-family: 'DejaVu Sans', 'Bitstream Vera Sans', 'Computer Modern Sans Serif', 'Lucida Grande', 'Verdana', 'Geneva', 'Lucid', 'Arial', 'Helvetica', 'Avant Garde', sans-serif; text-anchor: middle; fill: var(--fg-color)" x="183.075192" y="115.718359" transform="rotate(-0 183.075192 115.718359)">06/2026</text>
     </g>
    </g>
   </g>
   <g id="matplotlib.axis_2">
    <g id="ytick_1">
     <g id="line2d_7">
      <path d="M 35.96 99.736624 
L 211 99.736624 
" clip-path="url(#p334703729a)" style="fill: none; stroke-dasharray: 2.96,1.28; stroke-dashoffset: 0; stroke: var(--grid-color); stroke-width: 0.8"/>
     </g>
     <g id="line2d_8">
      <defs>
       <path id="m3858d3f3ac" d="M 0 0 
L -3.5 0 
" style="stroke: var(--fg-color); stroke-width: 0.8"/>
      </defs>
      <g>
       <use xlink:href="#m3858d3f3ac" x="35.96" y="99.736624" style="fill: var(--fg-color); stroke: var(--fg-color); stroke-width: 0.8"/>
      </g>
     </g>
     <g id="text_4">
      <text style="font-size: 7px; font-family: 'DejaVu Sans', 'Bitstream Vera Sans', 'Computer Modern Sans Serif', 'Lucida Grande', 'Verdana', 'Geneva', 'Lucid', 'Arial', 'Helvetica', 'Avant Garde', sans-serif; text-anchor: end; fill: var(--fg-color)" x="28.96" y="102.395804" transform="rotate(-0 28.96 102.395804)">0</text>
     </g>
    </g>
    <g id="ytick_2">
     <g id="line2d_9">
      <path d="M 35.96 85.232113 
L 211 85.232113 
" clip-path="url(#p334703729a)" style="fill: none; stroke-dasharray: 2.96,1.28; stroke-dashoffset: 0; stroke: var(--grid-color); stroke-width: 0.8"/>
     </g>
     <g id="line2d_10">
      <g>
       <use xlink:href="#m3858d3f3ac" x="35.96" y="85.232113" style="fill: var(--fg-color); stroke: var(--fg-color); stroke-width: 0.8"/>
      </g>
     </g>
     <g id="text_5">
      <text style="font-size: 7px; font-family: 'DejaVu Sans', 'Bitstream Vera Sans', 'Computer Modern Sans Serif', 'Lucida Grande', 'Verdana', 'Geneva', 'Lucid', 'Arial', 'Helvetica', 'Avant Garde', sans-serif; text-anchor: end; fill: var(--fg-color)" x="28.96" y="87.891292" transform="rotate(-0 28.96 87.891292)">25</text>
     </g>
    </g>
    <g id="ytick_3">
     <g id="line2d_11">
      <path d="M 35.96 70.727601 
L 211 70.727601 
" clip-path="url(#p334703729a)" style="fill: none; stroke-dasharray: 2.96,1.28; stroke-dashoffset: 0; stroke: var(--grid-color); stroke-width: 0.8"/>
     </g>
     <g id="line2d_12">
      <g>
       <use xlink:href="#m3858d3f3ac" x="35.96" y="70.727601" style="fill: var(--fg-color); stroke: var(--fg-color); stroke-width: 0.8"/>
      </g>
     </g>
     <g id="text_6">
      <text style="font-size: 7px; font-family: 'DejaVu Sans', 'Bitstream Vera Sans', 'Computer Modern Sans Serif', 'Lucida Grande', 'Verdana', 'Geneva', 'Lucid', 'Arial', 'Helvetica', 'Avant Garde', sans-serif; text-anchor: end; fill: var(--fg-color)" x="28.96" y="73.386781" transform="rotate(-0 28.96 73.386781)">50</text>
     </g>
    </g>
    <g id="ytick_4">
     <g id="line2d_13">
      <path d="M 35.96 56.223089 
L 211 56.223089 
" clip-path="url(#p334703729a)" style="fill: none; stroke-dasharray: 2.96,1.28; stroke-dashoffset: 0; stroke: var(--grid-color); stroke-width: 0.8"/>
     </g>
     <g id="line2d_14">
      <g>
       <use xlink:href="#m3858d3f3ac" x="35.96" y="56.223089" style="fill: var(--fg-color); stroke: var(--fg-color); stroke-width: 0.8"/>
      </g>
     </g>
     <g id="text_7">
      <text style="font-size: 7px; font-family: 'DejaVu Sans', 'Bitstream Vera Sans', 'Computer Modern Sans Serif', 'Lucida Grande', 'Verdana', 'Geneva', 'Lucid', 'Arial', 'Helvetica', 'Avant Garde', sans-serif; text-anchor: end; fill: var(--fg-color)" x="28.96" y="58.882269" transform="rotate(-0 28.96 58.882269)">75</text>
     </g>
    </g>
    <g id="ytick_5">
     <g id="line2d_15">
      <path d="M 35.96 41.718578 
L 211 41.718578 
" clip-path="url(#p334703729a)" style="fill: none; stroke-dasharray: 2.96,1.28; stroke-dashoffset: 0; stroke: var(--grid-color); stroke-width: 0.8"/>
     </g>
     <g id="line2d_16">
      <g>
       <use xlink:href="#m3858d3f3ac" x="35.96" y="41.718578" style="fill: var(--fg-color); stroke: var(--fg-color); stroke-width: 0.8"/>
      </g>
     </g>
     <g id="text_8">
      <text style="font-size: 7px; font-family: 'DejaVu Sans', 'Bitstream Vera Sans', 'Computer Modern Sans Serif', 'Lucida Grande', 'Verdana', 'Geneva', 'Lucid', 'Arial', 'Helvetica', 'Avant Garde', sans-serif; text-anchor: end; fill: var(--fg-color)" x="28.96" y="44.377757" transform="rotate(-0 28.96 44.377757)">100</text>
     </g>
    </g>
    <g id="ytick_6">
     <g id="line2d_17">
      <path d="M 35.96 27.214066 
L 211 27.214066 
" clip-path="url(#p334703729a)" style="fill: none; stroke-dasharray: 2.96,1.28; stroke-dashoffset: 0; stroke: var(--grid-color); stroke-width: 0.8"/>
     </g>
     <g id="line2d_18">
      <g>
       <use xlink:href="#m3858d3f3ac" x="35.96" y="27.214066" style="fill: var(--fg-color); stroke: var(--fg-color); stroke-width: 0.8"/>
      </g>
     </g>
     <g id="text_9">
      <text style="font-size: 7px; font-family: 'DejaVu Sans', 'Bitstream Vera Sans', 'Computer Modern Sans Serif', 'Lucida Grande', 'Verdana', 'Geneva', 'Lucid', 'Arial', 'Helvetica', 'Avant Garde', sans-serif; text-anchor: end; fill: var(--fg-color)" x="28.96" y="29.873246" transform="rotate(-0 28.96 29.873246)">125</text>
     </g>
    </g>
    <g id="ytick_7">
     <g id="line2d_19">
      <path d="M 35.96 12.709554 
L 211 12.709554 
" clip-path="url(#p334703729a)" style="fill: none; stroke-dasharray: 2.96,1.28; stroke-dashoffset: 0; stroke: var(--grid-color); stroke-width: 0.8"/>
     </g>
     <g id="line2d_20">
      <g>
       <use xlink:href="#m3858d3f3ac" x="35.96" y="12.709554" style="fill: var(--fg-color); stroke: var(--fg-color); stroke-width: 0.8"/>
      </g>
     </g>
     <g id="text_10">
      <text style="font-size: 7px; font-family: 'DejaVu Sans', 'Bitstream Vera Sans', 'Computer Modern Sans Serif', 'Lucida Grande', 'Verdana', 'Geneva', 'Lucid', 'Arial', 'Helvetica', 'Avant Garde', sans-serif; text-anchor: end; fill: var(--fg-color)" x="28.96" y="15.368734" transform="rotate(-0 28.96 15.368734)">150</text>
     </g>
    </g>
    <g id="text_11">
     <text style="font-size: 7px; font-family: 'DejaVu Sans', 'Bitstream Vera Sans', 'Computer Modern Sans Serif', 'Lucida Grande', 'Verdana', 'Geneva', 'Lucid', 'Arial', 'Helvetica', 'Avant Garde', sans-serif; text-anchor: middle; fill: var(--fg-color)" x="9.917109" y="54.2" transform="rotate(-90 9.917109 54.2)">ms</text>
    </g>
   </g>
   <g id="line2d_21">
    <path d="M 43.916364 59.230745 
L 45.193108 58.100553 
L 45.766628 59.638612 
L 46.691788 59.970475 
L 47.616947 57.525594 
L 48.542109 60.451445 
L 49.467263 60.01979 
L 50.392418 59.419304 
L 51.317566 56.846203 
L 52.242732 58.719026 
L 53.167891 57.663097 
L 54.093049 58.3158 
L 55.018206 60.239099 
L 55.943359 58.724827 
L 56.868517 61.598461 
L 57.793676 60.50018 
L 58.718827 60.552396 
L 59.643987 61.43253 
L 60.569143 61.221924 
L 61.494301 61.121553 
L 62.419457 59.176208 
L 63.344613 55.561103 
L 64.269773 56.542189 
L 65.194924 60.515264 
L 66.120079 60.265207 
L 67.045243 57.420582 
L 67.970398 58.097072 
L 68.895557 59.335177 
L 69.82071 59.28006 
L 70.74585 59.212179 
L 71.671025 61.153463 
L 72.596178 57.592315 
L 73.521341 57.129331 
L 74.446495 58.716125 
L 75.371653 59.649055 
L 76.296805 54.344465 
L 77.221971 59.873005 
L 78.147114 55.015154 
L 79.072277 59.797001 
L 79.997435 57.602758 
L 80.922594 58.870453 
L 81.847735 56.389601 
L 82.772905 42.30398 
L 83.698046 59.832972 
L 84.623219 59.353743 
L 85.548376 58.800251 
L 86.473535 59.628749 
L 87.398688 57.474539 
L 88.323852 59.476741 
L 97.76512 39.547542 
L 98.500856 31.318843 
L 99.426031 33.061125 
L 100.351186 35.45727 
L 101.276348 57.219839 
L 102.201502 60.196165 
L 103.126656 57.593476 
L 104.051812 60.2449 
L 104.976967 60.454926 
L 105.902123 62.727493 
L 106.827282 57.326593 
L 107.752435 58.856528 
L 108.677594 61.371031 
L 109.602753 58.822878 
L 110.527909 58.232254 
L 111.453063 59.965834 
L 112.378223 60.528609 
L 113.303377 59.546363 
L 114.228537 58.081407 
L 115.153695 60.247221 
L 116.078848 62.422898 
L 117.004011 59.66588 
L 117.929158 60.46943 
L 118.854316 46.091398 
L 119.779481 55.54892 
L 120.704637 57.490784 
L 121.629794 23.615206 
L 122.554943 59.959452 
L 123.480104 57.556344 
L 124.405261 58.195123 
L 125.330416 60.081289 
L 126.255574 57.055648 
L 129.9562 57.96015 
L 130.881363 55.970711 
L 131.806516 58.626197 
L 132.731673 58.018748 
L 133.656831 57.338776 
L 134.581987 58.970824 
L 135.507147 59.647314 
L 136.432285 60.473491 
L 137.357455 55.971871 
L 138.282617 55.764747 
L 139.20777 52.787261 
L 140.13293 58.017587 
L 141.058084 57.937523 
L 141.983242 53.642447 
L 142.908395 47.404346 
L 143.833556 59.705913 
L 144.758724 56.983126 
L 145.683869 9.472727 
L 146.609028 49.972805 
L 147.534182 56.176675 
L 148.459339 54.306173 
L 149.384497 57.995541 
L 150.309651 56.795727 
L 151.234811 52.844698 
L 152.159963 43.311753 
L 179.91473 43.311753 
L 188.548948 60.441001 
L 189.166282 58.743393 
L 190.091439 57.587094 
L 191.016594 59.402478 
L 191.94175 59.941466 
L 192.866913 56.766138 
L 193.792066 60.33889 
L 194.717222 57.320791 
L 195.642377 53.94182 
L 196.567536 56.393082 
L 197.492695 55.919655 
L 198.417852 56.745832 
L 199.343013 58.647663 
L 200.268162 61.568292 
L 201.193322 57.02954 
L 202.118478 55.825666 
L 203.043636 55.982895 
" clip-path="url(#p334703729a)" style="fill: none; stroke: #339af0; stroke-width: 1.2; stroke-linecap: square"/>
   </g>
   <g id="line2d_22">
    <path d="M 43.916364 98.877377 
L 45.193108 98.82226 
L 45.766628 98.841406 
L 46.691788 98.839665 
L 47.616947 98.828062 
L 48.542109 98.873896 
L 49.467263 98.827482 
L 50.392418 98.814718 
L 51.317566 98.815878 
L 52.242732 98.817038 
L 53.167891 98.861132 
L 54.093049 98.870995 
L 55.018206 98.888401 
L 55.943359 98.856491 
L 56.868517 98.884339 
L 57.793676 98.835024 
L 58.718827 98.850689 
L 59.643987 98.912768 
L 60.569143 98.863453 
L 61.494301 98.876797 
L 62.419457 98.857651 
L 63.344613 98.785129 
L 64.269773 98.835604 
L 65.194924 98.884339 
L 66.120079 98.888981 
L 67.045243 98.808916 
L 67.970398 98.846628 
L 68.895557 98.875056 
L 69.82071 98.849529 
L 70.74585 98.72421 
L 71.671025 98.876797 
L 72.596178 98.825161 
L 73.521341 98.843147 
L 74.446495 98.865193 
L 75.371653 98.862293 
L 76.296805 98.749738 
L 77.221971 98.871575 
L 78.147114 98.848368 
L 79.072277 98.815298 
L 79.997435 98.872156 
L 80.922594 98.848948 
L 81.847735 98.830383 
L 82.772905 98.855911 
L 83.698046 98.927273 
L 84.623219 98.904066 
L 85.548376 98.846628 
L 86.473535 98.894202 
L 87.398688 98.884339 
L 88.323852 98.836765 
L 97.76512 98.878538 
L 98.500856 98.349993 
L 99.426031 98.864033 
L 100.351186 98.82052 
L 101.276348 98.866354 
L 102.201502 98.870415 
L 103.126656 98.809496 
L 104.051812 98.909287 
L 104.976967 98.904646 
L 105.902123 98.913929 
L 106.827282 98.88724 
L 107.752435 98.888981 
L 108.677594 98.888401 
L 109.602753 98.865774 
L 110.527909 98.844307 
L 111.453063 98.840246 
L 112.378223 98.85417 
L 113.303377 98.897103 
L 114.228537 98.833283 
L 115.153695 98.895363 
L 116.078848 98.904066 
L 117.004011 98.869255 
L 117.929158 98.893622 
L 118.854316 98.859392 
L 119.779481 98.82284 
L 120.704637 98.851269 
L 121.629794 98.891882 
L 122.554943 98.709705 
L 123.480104 98.698101 
L 124.405261 98.763082 
L 125.330416 98.656328 
L 126.255574 98.755539 
L 129.9562 98.748577 
L 130.881363 98.754379 
L 131.806516 98.793831 
L 132.731673 98.66155 
L 133.656831 98.79093 
L 134.581987 98.79151 
L 135.507147 98.801374 
L 136.432285 98.812977 
L 137.357455 98.542613 
L 138.282617 98.678375 
L 139.20777 98.619197 
L 140.13293 98.734073 
L 141.058084 98.777006 
L 141.983242 98.680696 
L 142.908395 98.6279 
L 143.833556 98.783388 
L 144.758724 98.794411 
L 145.683869 98.646465 
L 146.609028 98.631381 
L 147.534182 98.202627 
L 148.459339 98.548415 
L 149.384497 98.734653 
L 150.309651 98.673734 
L 151.234811 98.572202 
L 152.159963 98.196245 
L 179.91473 98.196245 
L 188.548948 98.797312 
L 189.166282 98.761921 
L 190.091439 98.738714 
L 191.016594 98.745676 
L 191.94175 98.899424 
L 192.866913 98.801374 
L 193.792066 98.866934 
L 194.717222 98.840826 
L 195.642377 98.720728 
L 196.567536 98.868094 
L 197.492695 98.720728 
L 198.417852 98.804274 
L 199.343013 98.869835 
L 200.268162 98.830963 
L 201.193322 98.721889 
L 202.118478 98.799053 
L 203.043636 98.801954 
" clip-path="url(#p334703729a)" style="fill: none; stroke: #ff6b6b; stroke-width: 1.2; stroke-linecap: square"/>
   </g>
   <g id="patch_3">
    <path d="M 35.96 103.4 
L 35.96 5 
" style="fill: none; stroke: var(--fg-color); stroke-width: 0.8; stroke-linejoin: miter; stroke-linecap: square"/>
   </g>
   <g id="patch_4">
    <path d="M 35.96 103.4 
L 211 103.4 
" style="fill: none; stroke: var(--fg-color); stroke-width: 0.8; stroke-linejoin: miter; stroke-linecap: square"/>
   </g>
  </g>
 </g>
 <defs>
  <clipPath id="p334703729a">
   <rect x="35.96" y="5" width="175.04" height="98.4"/>
  </clipPath>
 </defs>
</svg>
