<?xml version="1.0" encoding="utf-8" standalone="no"?>
<!DOCTYPE svg PUBLIC "-//W3C//DTD SVG 1.1//EN"
  "http://www.w3.org/Graphics/SVG/1.1/DTD/svg11.dtd">
<svg xmlns:xlink="http://www.w3.org/1999/xlink" width="216pt" height="122.4pt" viewBox="0 0 216 122.4" xmlns="http://www.w3.org/2000/svg" version="1.1">
  <style>
    :root {
      --fg-color: #212529;
      --grid-color: rgba(33, 37, 41, 0.1);
    }
    @media (prefers-color-scheme: dark) {
      :root {
        --fg-color: #dee2e6;
        --grid-color: rgba(248, 249, 250, 0.15);
      }
    }
  </style>

 <metadata>
  <rdf:RDF xmlns:dc="http://purl.org/dc/elements/1.1/" xmlns:cc="http://creativecommons.org/ns#" xmlns:rdf="http://www.w3.org/1999/02/22-rdf-syntax-ns#">
   <cc:Work>
    <dc:type rdf:resource="http://purl.org/dc/dcmitype/StillImage"/>
    <dc:date>2026-06-30T15:37:40.301201</dc:date>
    <dc:format>image/svg+xml</dc:format>
    <dc:creator>
     <cc:Agent>
      <dc:title>Matplotlib v3.11.0, https://matplotlib.org/</dc:title>
     </cc:Agent>
    </dc:creator>
   </cc:Work>
  </rdf:RDF>
 </metadata>
 <defs>
  <style type="text/css">*{stroke-linejoin: round; stroke-linecap: butt}</style>
 </defs>
 <g id="figure_1">
  <g id="patch_1">
   <path d="M 0 122.4 
L 216 122.4 
L 216 0 
L 0 0 
L 0 122.4 
z
" style="fill: none; opacity: 0"/>
  </g>
  <g id="axes_1">
   <g id="patch_2">
    <path d="M 35.96 103.4 
L 211 103.4 
L 211 5 
L 35.96 5 
L 35.96 103.4 
z
" style="fill: none; opacity: 0"/>
   </g>
   <g id="matplotlib.axis_1">
    <g id="xtick_1">
     <g id="line2d_1">
      <path d="M 69.784035 103.4 
L 69.784035 5 
" clip-path="url(#p7b6088a69a)" style="fill: none; stroke-dasharray: 2.96,1.28; stroke-dashoffset: 0; stroke: var(--grid-color); stroke-width: 0.8"/>
     </g>
     <g id="line2d_2">
      <defs>
       <path id="m18578215d3" d="M 0 0 
L 0 3.5 
" style="stroke: var(--fg-color); stroke-width: 0.8"/>
      </defs>
      <g>
       <use xlink:href="#m18578215d3" x="69.784035" y="103.4" style="fill: var(--fg-color); stroke: var(--fg-color); stroke-width: 0.8"/>
      </g>
     </g>
     <g id="text_1">
      <text style="font-size: 7px; font-family: 'DejaVu Sans', 'Bitstream Vera Sans', 'Computer Modern Sans Serif', 'Lucida Grande', 'Verdana', 'Geneva', 'Lucid', 'Arial', 'Helvetica', 'Avant Garde', sans-serif; text-anchor: middle; fill: var(--fg-color)" x="69.784035" y="115.718359" transform="rotate(-0 69.784035 115.718359)">02/2026</text>
     </g>
    </g>
    <g id="xtick_2">
     <g id="line2d_3">
      <path d="M 122.345302 103.4 
L 122.345302 5 
" clip-path="url(#p7b6088a69a)" style="fill: none; stroke-dasharray: 2.96,1.28; stroke-dashoffset: 0; stroke: var(--grid-color); stroke-width: 0.8"/>
     </g>
     <g id="line2d_4">
      <g>
       <use xlink:href="#m18578215d3" x="122.345302" y="103.4" style="fill: var(--fg-color); stroke: var(--fg-color); stroke-width: 0.8"/>
      </g>
     </g>
     <g id="text_2">
      <text style="font-size: 7px; font-family: 'DejaVu Sans', 'Bitstream Vera Sans', 'Computer Modern Sans Serif', 'Lucida Grande', 'Verdana', 'Geneva', 'Lucid', 'Arial', 'Helvetica', 'Avant Garde', sans-serif; text-anchor: middle; fill: var(--fg-color)" x="122.345302" y="115.718359" transform="rotate(-0 122.345302 115.718359)">04/2026</text>
     </g>
    </g>
    <g id="xtick_3">
     <g id="line2d_5">
      <path d="M 176.688307 103.4 
L 176.688307 5 
" clip-path="url(#p7b6088a69a)" style="fill: none; stroke-dasharray: 2.96,1.28; stroke-dashoffset: 0; stroke: var(--grid-color); stroke-width: 0.8"/>
     </g>
     <g id="line2d_6">
      <g>
       <use xlink:href="#m18578215d3" x="176.688307" y="103.4" style="fill: var(--fg-color); stroke: var(--fg-color); stroke-width: 0.8"/>
      </g>
     </g>
     <g id="text_3">
      <text style="font-size: 7px; font-family: 'DejaVu Sans', 'Bitstream Vera Sans', 'Computer Modern Sans Serif', 'Lucida Grande', 'Verdana', 'Geneva', 'Lucid', 'Arial', 'Helvetica', 'Avant Garde', sans-serif; text-anchor: middle; fill: var(--fg-color)" x="176.688307" y="115.718359" transform="rotate(-0 176.688307 115.718359)">06/2026</text>
     </g>
    </g>
   </g>
   <g id="matplotlib.axis_2">
    <g id="ytick_1">
     <g id="line2d_7">
      <path d="M 35.96 99.951105 
L 211 99.951105 
" clip-path="url(#p7b6088a69a)" style="fill: none; stroke-dasharray: 2.96,1.28; stroke-dashoffset: 0; stroke: var(--grid-color); stroke-width: 0.8"/>
     </g>
     <g id="line2d_8">
      <defs>
       <path id="mf0158c0420" d="M 0 0 
L -3.5 0 
" style="stroke: var(--fg-color); stroke-width: 0.8"/>
      </defs>
      <g>
       <use xlink:href="#mf0158c0420" x="35.96" y="99.951105" style="fill: var(--fg-color); stroke: var(--fg-color); stroke-width: 0.8"/>
      </g>
     </g>
     <g id="text_4">
      <text style="font-size: 7px; font-family: 'DejaVu Sans', 'Bitstream Vera Sans', 'Computer Modern Sans Serif', 'Lucida Grande', 'Verdana', 'Geneva', 'Lucid', 'Arial', 'Helvetica', 'Avant Garde', sans-serif; text-anchor: end; fill: var(--fg-color)" x="28.96" y="102.610284" transform="rotate(-0 28.96 102.610284)">0</text>
     </g>
    </g>
    <g id="ytick_2">
     <g id="line2d_9">
      <path d="M 35.96 83.556679 
L 211 83.556679 
" clip-path="url(#p7b6088a69a)" style="fill: none; stroke-dasharray: 2.96,1.28; stroke-dashoffset: 0; stroke: var(--grid-color); stroke-width: 0.8"/>
     </g>
     <g id="line2d_10">
      <g>
       <use xlink:href="#mf0158c0420" x="35.96" y="83.556679" style="fill: var(--fg-color); stroke: var(--fg-color); stroke-width: 0.8"/>
      </g>
     </g>
     <g id="text_5">
      <text style="font-size: 7px; font-family: 'DejaVu Sans', 'Bitstream Vera Sans', 'Computer Modern Sans Serif', 'Lucida Grande', 'Verdana', 'Geneva', 'Lucid', 'Arial', 'Helvetica', 'Avant Garde', sans-serif; text-anchor: end; fill: var(--fg-color)" x="28.96" y="86.215858" transform="rotate(-0 28.96 86.215858)">20</text>
     </g>
    </g>
    <g id="ytick_3">
     <g id="line2d_11">
      <path d="M 35.96 67.162253 
L 211 67.162253 
" clip-path="url(#p7b6088a69a)" style="fill: none; stroke-dasharray: 2.96,1.28; stroke-dashoffset: 0; stroke: var(--grid-color); stroke-width: 0.8"/>
     </g>
     <g id="line2d_12">
      <g>
       <use xlink:href="#mf0158c0420" x="35.96" y="67.162253" style="fill: var(--fg-color); stroke: var(--fg-color); stroke-width: 0.8"/>
      </g>
     </g>
     <g id="text_6">
      <text style="font-size: 7px; font-family: 'DejaVu Sans', 'Bitstream Vera Sans', 'Computer Modern Sans Serif', 'Lucida Grande', 'Verdana', 'Geneva', 'Lucid', 'Arial', 'Helvetica', 'Avant Garde', sans-serif; text-anchor: end; fill: var(--fg-color)" x="28.96" y="69.821433" transform="rotate(-0 28.96 69.821433)">40</text>
     </g>
    </g>
    <g id="ytick_4">
     <g id="line2d_13">
      <path d="M 35.96 50.767827 
L 211 50.767827 
" clip-path="url(#p7b6088a69a)" style="fill: none; stroke-dasharray: 2.96,1.28; stroke-dashoffset: 0; stroke: var(--grid-color); stroke-width: 0.8"/>
     </g>
     <g id="line2d_14">
      <g>
       <use xlink:href="#mf0158c0420" x="35.96" y="50.767827" style="fill: var(--fg-color); stroke: var(--fg-color); stroke-width: 0.8"/>
      </g>
     </g>
     <g id="text_7">
      <text style="font-size: 7px; font-family: 'DejaVu Sans', 'Bitstream Vera Sans', 'Computer Modern Sans Serif', 'Lucida Grande', 'Verdana', 'Geneva', 'Lucid', 'Arial', 'Helvetica', 'Avant Garde', sans-serif; text-anchor: end; fill: var(--fg-color)" x="28.96" y="53.427007" transform="rotate(-0 28.96 53.427007)">60</text>
     </g>
    </g>
    <g id="ytick_5">
     <g id="line2d_15">
      <path d="M 35.96 34.373401 
L 211 34.373401 
" clip-path="url(#p7b6088a69a)" style="fill: none; stroke-dasharray: 2.96,1.28; stroke-dashoffset: 0; stroke: var(--grid-color); stroke-width: 0.8"/>
     </g>
     <g id="line2d_16">
      <g>
       <use xlink:href="#mf0158c0420" x="35.96" y="34.373401" style="fill: var(--fg-color); stroke: var(--fg-color); stroke-width: 0.8"/>
      </g>
     </g>
     <g id="text_8">
      <text style="font-size: 7px; font-family: 'DejaVu Sans', 'Bitstream Vera Sans', 'Computer Modern Sans Serif', 'Lucida Grande', 'Verdana', 'Geneva', 'Lucid', 'Arial', 'Helvetica', 'Avant Garde', sans-serif; text-anchor: end; fill: var(--fg-color)" x="28.96" y="37.032581" transform="rotate(-0 28.96 37.032581)">80</text>
     </g>
    </g>
    <g id="ytick_6">
     <g id="line2d_17">
      <path d="M 35.96 17.978975 
L 211 17.978975 
" clip-path="url(#p7b6088a69a)" style="fill: none; stroke-dasharray: 2.96,1.28; stroke-dashoffset: 0; stroke: var(--grid-color); stroke-width: 0.8"/>
     </g>
     <g id="line2d_18">
      <g>
       <use xlink:href="#mf0158c0420" x="35.96" y="17.978975" style="fill: var(--fg-color); stroke: var(--fg-color); stroke-width: 0.8"/>
      </g>
     </g>
     <g id="text_9">
      <text style="font-size: 7px; font-family: 'DejaVu Sans', 'Bitstream Vera Sans', 'Computer Modern Sans Serif', 'Lucida Grande', 'Verdana', 'Geneva', 'Lucid', 'Arial', 'Helvetica', 'Avant Garde', sans-serif; text-anchor: end; fill: var(--fg-color)" x="28.96" y="20.638155" transform="rotate(-0 28.96 20.638155)">100</text>
     </g>
    </g>
    <g id="text_10">
     <text style="font-size: 7px; font-family: 'DejaVu Sans', 'Bitstream Vera Sans', 'Computer Modern Sans Serif', 'Lucida Grande', 'Verdana', 'Geneva', 'Lucid', 'Arial', 'Helvetica', 'Avant Garde', sans-serif; text-anchor: middle; fill: var(--fg-color)" x="9.917109" y="54.2" transform="rotate(-90 9.917109 54.2)">ms</text>
    </g>
   </g>
   <g id="line2d_19">
    <path d="M 43.916364 29.790339 
L 44.468628 35.473467 
L 45.3595 32.910199 
L 46.250371 27.513154 
L 48.032112 28.595186 
L 48.922979 31.511754 
L 49.81384 28.662403 
L 50.704717 31.016642 
L 51.595589 30.387916 
L 52.486458 20.626675 
L 53.377327 27.932031 
L 54.268192 25.078581 
L 55.159063 27.563157 
L 56.049934 31.519131 
L 56.940797 23.31782 
L 57.831669 32.697071 
L 58.722538 24.966279 
L 59.613407 31.733898 
L 60.504275 28.225491 
L 61.395144 29.509995 
L 62.286016 14.705008 
L 63.176879 35.450515 
L 64.958622 23.093216 
L 65.84949 29.971498 
L 66.740361 30.237907 
L 67.631226 27.666441 
L 68.522078 28.333695 
L 69.412965 32.152776 
L 70.30383 31.738817 
L 71.194705 23.497339 
L 72.085571 25.514673 
L 72.976442 32.933151 
L 73.867306 30.242006 
L 74.758184 30.917456 
L 75.649039 33.462691 
L 76.539914 29.319 
L 77.430784 28.568135 
L 78.321655 29.350969 
L 79.212509 26.0811 
L 80.103391 14.050051 
L 80.994245 30.032157 
L 81.885129 34.566855 
L 82.775998 33.594666 
L 83.666869 26.120447 
L 84.557735 29.195222 
L 85.44861 22.783362 
L 94.53997 22.253822 
L 95.248438 25.013823 
L 96.139324 24.503957 
L 97.030192 16.75759 
L 97.921065 26.418826 
L 98.811931 32.177368 
L 99.702798 33.589747 
L 100.593666 36.385817 
L 101.484533 31.542903 
L 102.375401 33.094636 
L 103.266272 31.353548 
L 104.157138 30.043633 
L 105.93888 22.803855 
L 106.829748 30.739577 
L 107.720614 37.073563 
L 108.611487 34.497179 
L 109.502352 34.614399 
L 110.393224 30.666621 
L 111.284094 27.916456 
L 112.17496 27.617258 
L 113.065834 31.709307 
L 113.956695 32.502797 
L 114.847564 32.231469 
L 115.738441 36.685835 
L 117.520178 19.015103 
L 118.41104 27.718084 
L 119.301913 32.247044 
L 120.192782 29.674759 
L 121.083649 18.822468 
L 121.97452 19.972537 
L 125.537994 22.767787 
L 126.428869 28.784541 
L 127.319734 23.519471 
L 128.210603 25.326957 
L 129.101474 11.776964 
L 129.992342 24.417066 
L 130.883214 23.277654 
L 131.774065 24.793318 
L 132.664946 31.162553 
L 133.55582 28.074663 
L 134.446686 27.286091 
L 135.337558 27.212316 
L 136.228424 26.419645 
L 137.119294 26.925413 
L 138.010159 24.411328 
L 138.901032 29.832965 
L 139.791912 21.519351 
L 140.68277 9.472727 
L 141.57364 20.379119 
L 142.464507 29.43458 
L 143.355376 29.234568 
L 144.246246 33.176608 
L 145.137113 30.950245 
L 146.027984 21.174249 
L 146.918849 25.779443 
L 173.644977 25.779443 
L 181.959197 30.381358 
L 182.553652 32.356067 
L 183.444521 23.075182 
L 184.335387 31.327317 
L 185.226256 26.372921 
L 186.117131 22.571054 
L 187.007996 24.372801 
L 187.898864 21.681656 
L 188.789731 32.974137 
L 189.680603 22.908779 
L 190.571474 19.933191 
L 191.462343 26.795078 
L 192.353215 28.894384 
L 193.244077 27.743495 
L 194.134949 24.623636 
L 195.025817 27.439379 
L 195.916688 27.707427 
L 196.807557 19.036416 
L 197.698426 30.247744 
L 198.589295 22.301366 
L 199.480162 19.975816 
L 200.371032 30.550221 
L 201.261898 30.216594 
L 202.152766 27.157394 
L 203.043636 33.455313 
L 203.043636 33.455313 
" clip-path="url(#p7b6088a69a)" style="fill: none; stroke: #339af0; stroke-width: 1.2; stroke-linecap: square"/>
   </g>
   <g id="line2d_20">
    <path d="M 43.916364 98.692013 
L 44.468628 98.851858 
L 45.3595 98.652666 
L 48.922979 98.748573 
L 49.81384 98.401831 
L 50.704717 98.737097 
L 56.940797 98.633813 
L 57.831669 98.820709 
L 60.504275 98.664962 
L 61.395144 98.752672 
L 62.286016 98.156735 
L 63.176879 98.850219 
L 64.067746 98.783822 
L 64.958622 98.546102 
L 65.84949 98.773985 
L 66.740361 98.779723 
L 67.631226 98.660863 
L 69.412965 98.800216 
L 70.30383 98.695292 
L 71.194705 98.451015 
L 72.085571 98.751852 
L 72.976442 98.821529 
L 73.867306 98.703489 
L 74.758184 98.72808 
L 75.649039 98.576432 
L 76.539914 98.75759 
L 77.430784 98.733819 
L 78.321655 98.833824 
L 80.103391 98.768247 
L 81.885129 98.805954 
L 82.775998 98.837923 
L 83.666869 98.720703 
L 85.44861 98.805134 
L 94.53997 98.751033 
L 95.248438 98.884647 
L 97.921065 98.678077 
L 100.593666 98.841202 
L 101.484533 98.792838 
L 102.375401 97.99443 
L 103.266272 98.807593 
L 104.157138 98.591187 
L 105.048009 98.806774 
L 105.93888 98.69857 
L 106.829748 98.843661 
L 108.611487 98.810872 
L 109.502352 98.49364 
L 110.393224 98.814151 
L 113.065834 98.777264 
L 113.956695 98.777264 
L 114.847564 98.137881 
L 115.738441 98.927273 
L 118.41104 98.703489 
L 119.301913 98.808413 
L 120.192782 98.786281 
L 121.083649 98.645289 
L 121.97452 98.360026 
L 126.428869 98.769886 
L 127.319734 98.438719 
L 128.210603 98.723162 
L 129.101474 98.623156 
L 129.992342 98.689554 
L 131.774065 98.628894 
L 132.664946 98.752672 
L 133.55582 98.61168 
L 134.446686 98.734638 
L 137.119294 98.70103 
L 138.010159 98.781362 
L 138.901032 98.621517 
L 140.68277 98.61086 
L 145.137113 98.763328 
L 146.027984 98.490361 
L 146.918849 98.678897 
L 182.553652 98.741196 
L 183.444521 98.492001 
L 184.335387 98.709227 
L 186.117131 98.546922 
L 187.007996 98.721523 
L 187.898864 97.78786 
L 188.789731 98.687914 
L 190.571474 98.474787 
L 191.462343 98.721523 
L 193.244077 98.697751 
L 195.025817 98.682996 
L 195.916688 98.506756 
L 196.807557 98.542823 
L 197.698426 98.749393 
L 198.589295 98.570694 
L 199.480162 98.562497 
L 200.371032 98.796117 
L 201.261898 98.722342 
L 202.152766 97.75917 
L 203.043636 98.664962 
L 203.043636 98.664962 
" clip-path="url(#p7b6088a69a)" style="fill: none; stroke: #ff6b6b; stroke-width: 1.2; stroke-linecap: square"/>
   </g>
   <g id="patch_3">
    <path d="M 35.96 103.4 
L 35.96 5 
" style="fill: none; stroke: var(--fg-color); stroke-width: 0.8; stroke-linejoin: miter; stroke-linecap: square"/>
   </g>
   <g id="patch_4">
    <path d="M 35.96 103.4 
L 211 103.4 
" style="fill: none; stroke: var(--fg-color); stroke-width: 0.8; stroke-linejoin: miter; stroke-linecap: square"/>
   </g>
  </g>
 </g>
 <defs>
  <clipPath id="p7b6088a69a">
   <rect x="35.96" y="5" width="175.04" height="98.4"/>
  </clipPath>
 </defs>
</svg>
