<?xml version="1.0" encoding="utf-8" standalone="no"?>
<!DOCTYPE svg PUBLIC "-//W3C//DTD SVG 1.1//EN"
  "http://www.w3.org/Graphics/SVG/1.1/DTD/svg11.dtd">
<svg xmlns:xlink="http://www.w3.org/1999/xlink" width="216pt" height="122.4pt" viewBox="0 0 216 122.4" xmlns="http://www.w3.org/2000/svg" version="1.1">
  <style>
    :root {
      --fg-color: #212529;
      --grid-color: rgba(33, 37, 41, 0.1);
    }
    @media (prefers-color-scheme: dark) {
      :root {
        --fg-color: #dee2e6;
        --grid-color: rgba(248, 249, 250, 0.15);
      }
    }
  </style>

 <metadata>
  <rdf:RDF xmlns:dc="http://purl.org/dc/elements/1.1/" xmlns:cc="http://creativecommons.org/ns#" xmlns:rdf="http://www.w3.org/1999/02/22-rdf-syntax-ns#">
   <cc:Work>
    <dc:type rdf:resource="http://purl.org/dc/dcmitype/StillImage"/>
    <dc:date>2026-06-30T04:49:31.466099</dc:date>
    <dc:format>image/svg+xml</dc:format>
    <dc:creator>
     <cc:Agent>
      <dc:title>Matplotlib v3.11.0, https://matplotlib.org/</dc:title>
     </cc:Agent>
    </dc:creator>
   </cc:Work>
  </rdf:RDF>
 </metadata>
 <defs>
  <style type="text/css">*{stroke-linejoin: round; stroke-linecap: butt}</style>
 </defs>
 <g id="figure_1">
  <g id="patch_1">
   <path d="M 0 122.4 
L 216 122.4 
L 216 0 
L 0 0 
L 0 122.4 
z
" style="fill: none; opacity: 0"/>
  </g>
  <g id="axes_1">
   <g id="patch_2">
    <path d="M 35.96 103.4 
L 211 103.4 
L 211 5 
L 35.96 5 
L 35.96 103.4 
z
" style="fill: none; opacity: 0"/>
   </g>
   <g id="matplotlib.axis_1">
    <g id="xtick_1">
     <g id="line2d_1">
      <path d="M 72.056377 103.4 
L 72.056377 5 
" clip-path="url(#p851297c408)" style="fill: none; stroke-dasharray: 2.96,1.28; stroke-dashoffset: 0; stroke: var(--grid-color); stroke-width: 0.8"/>
     </g>
     <g id="line2d_2">
      <defs>
       <path id="m64df0e3e16" d="M 0 0 
L 0 3.5 
" style="stroke: var(--fg-color); stroke-width: 0.8"/>
      </defs>
      <g>
       <use xlink:href="#m64df0e3e16" x="72.056377" y="103.4" style="fill: var(--fg-color); stroke: var(--fg-color); stroke-width: 0.8"/>
      </g>
     </g>
     <g id="text_1">
      <text style="font-size: 7px; font-family: 'DejaVu Sans', 'Bitstream Vera Sans', 'Computer Modern Sans Serif', 'Lucida Grande', 'Verdana', 'Geneva', 'Lucid', 'Arial', 'Helvetica', 'Avant Garde', sans-serif; text-anchor: middle; fill: var(--fg-color)" x="72.056377" y="115.718359" transform="rotate(-0 72.056377 115.718359)">02/2026</text>
     </g>
    </g>
    <g id="xtick_2">
     <g id="line2d_3">
      <path d="M 126.640628 103.4 
L 126.640628 5 
" clip-path="url(#p851297c408)" style="fill: none; stroke-dasharray: 2.96,1.28; stroke-dashoffset: 0; stroke: var(--grid-color); stroke-width: 0.8"/>
     </g>
     <g id="line2d_4">
      <g>
       <use xlink:href="#m64df0e3e16" x="126.640628" y="103.4" style="fill: var(--fg-color); stroke: var(--fg-color); stroke-width: 0.8"/>
      </g>
     </g>
     <g id="text_2">
      <text style="font-size: 7px; font-family: 'DejaVu Sans', 'Bitstream Vera Sans', 'Computer Modern Sans Serif', 'Lucida Grande', 'Verdana', 'Geneva', 'Lucid', 'Arial', 'Helvetica', 'Avant Garde', sans-serif; text-anchor: middle; fill: var(--fg-color)" x="126.640628" y="115.718359" transform="rotate(-0 126.640628 115.718359)">04/2026</text>
     </g>
    </g>
    <g id="xtick_3">
     <g id="line2d_5">
      <path d="M 183.075192 103.4 
L 183.075192 5 
" clip-path="url(#p851297c408)" style="fill: none; stroke-dasharray: 2.96,1.28; stroke-dashoffset: 0; stroke: var(--grid-color); stroke-width: 0.8"/>
     </g>
     <g id="line2d_6">
      <g>
       <use xlink:href="#m64df0e3e16" x="183.075192" y="103.4" style="fill: var(--fg-color); stroke: var(--fg-color); stroke-width: 0.8"/>
      </g>
     </g>
     <g id="text_3">
      <text style="font-size: 7px; font-family: 'DejaVu Sans', 'Bitstream Vera Sans', 'Computer Modern Sans Serif', 'Lucida Grande', 'Verdana', 'Geneva', 'Lucid', 'Arial', 'Helvetica', 'Avant Garde', sans-serif; text-anchor: middle; fill: var(--fg-color)" x="183.075192" y="115.718359" transform="rotate(-0 183.075192 115.718359)">06/2026</text>
     </g>
    </g>
   </g>
   <g id="matplotlib.axis_2">
    <g id="ytick_1">
     <g id="line2d_7">
      <path d="M 35.96 88.996757 
L 211 88.996757 
" clip-path="url(#p851297c408)" style="fill: none; stroke-dasharray: 2.96,1.28; stroke-dashoffset: 0; stroke: var(--grid-color); stroke-width: 0.8"/>
     </g>
     <g id="line2d_8">
      <defs>
       <path id="m8f5866f05e" d="M 0 0 
L -3.5 0 
" style="stroke: var(--fg-color); stroke-width: 0.8"/>
      </defs>
      <g>
       <use xlink:href="#m8f5866f05e" x="35.96" y="88.996757" style="fill: var(--fg-color); stroke: var(--fg-color); stroke-width: 0.8"/>
      </g>
     </g>
     <g id="text_4">
      <text style="font-size: 7px; font-family: 'DejaVu Sans', 'Bitstream Vera Sans', 'Computer Modern Sans Serif', 'Lucida Grande', 'Verdana', 'Geneva', 'Lucid', 'Arial', 'Helvetica', 'Avant Garde', sans-serif; text-anchor: end; fill: var(--fg-color)" x="28.96" y="91.655937" transform="rotate(-0 28.96 91.655937)">25</text>
     </g>
    </g>
    <g id="ytick_2">
     <g id="line2d_9">
      <path d="M 35.96 72.886253 
L 211 72.886253 
" clip-path="url(#p851297c408)" style="fill: none; stroke-dasharray: 2.96,1.28; stroke-dashoffset: 0; stroke: var(--grid-color); stroke-width: 0.8"/>
     </g>
     <g id="line2d_10">
      <g>
       <use xlink:href="#m8f5866f05e" x="35.96" y="72.886253" style="fill: var(--fg-color); stroke: var(--fg-color); stroke-width: 0.8"/>
      </g>
     </g>
     <g id="text_5">
      <text style="font-size: 7px; font-family: 'DejaVu Sans', 'Bitstream Vera Sans', 'Computer Modern Sans Serif', 'Lucida Grande', 'Verdana', 'Geneva', 'Lucid', 'Arial', 'Helvetica', 'Avant Garde', sans-serif; text-anchor: end; fill: var(--fg-color)" x="28.96" y="75.545432" transform="rotate(-0 28.96 75.545432)">50</text>
     </g>
    </g>
    <g id="ytick_3">
     <g id="line2d_11">
      <path d="M 35.96 56.775748 
L 211 56.775748 
" clip-path="url(#p851297c408)" style="fill: none; stroke-dasharray: 2.96,1.28; stroke-dashoffset: 0; stroke: var(--grid-color); stroke-width: 0.8"/>
     </g>
     <g id="line2d_12">
      <g>
       <use xlink:href="#m8f5866f05e" x="35.96" y="56.775748" style="fill: var(--fg-color); stroke: var(--fg-color); stroke-width: 0.8"/>
      </g>
     </g>
     <g id="text_6">
      <text style="font-size: 7px; font-family: 'DejaVu Sans', 'Bitstream Vera Sans', 'Computer Modern Sans Serif', 'Lucida Grande', 'Verdana', 'Geneva', 'Lucid', 'Arial', 'Helvetica', 'Avant Garde', sans-serif; text-anchor: end; fill: var(--fg-color)" x="28.96" y="59.434927" transform="rotate(-0 28.96 59.434927)">75</text>
     </g>
    </g>
    <g id="ytick_4">
     <g id="line2d_13">
      <path d="M 35.96 40.665243 
L 211 40.665243 
" clip-path="url(#p851297c408)" style="fill: none; stroke-dasharray: 2.96,1.28; stroke-dashoffset: 0; stroke: var(--grid-color); stroke-width: 0.8"/>
     </g>
     <g id="line2d_14">
      <g>
       <use xlink:href="#m8f5866f05e" x="35.96" y="40.665243" style="fill: var(--fg-color); stroke: var(--fg-color); stroke-width: 0.8"/>
      </g>
     </g>
     <g id="text_7">
      <text style="font-size: 7px; font-family: 'DejaVu Sans', 'Bitstream Vera Sans', 'Computer Modern Sans Serif', 'Lucida Grande', 'Verdana', 'Geneva', 'Lucid', 'Arial', 'Helvetica', 'Avant Garde', sans-serif; text-anchor: end; fill: var(--fg-color)" x="28.96" y="43.324422" transform="rotate(-0 28.96 43.324422)">100</text>
     </g>
    </g>
    <g id="ytick_5">
     <g id="line2d_15">
      <path d="M 35.96 24.554738 
L 211 24.554738 
" clip-path="url(#p851297c408)" style="fill: none; stroke-dasharray: 2.96,1.28; stroke-dashoffset: 0; stroke: var(--grid-color); stroke-width: 0.8"/>
     </g>
     <g id="line2d_16">
      <g>
       <use xlink:href="#m8f5866f05e" x="35.96" y="24.554738" style="fill: var(--fg-color); stroke: var(--fg-color); stroke-width: 0.8"/>
      </g>
     </g>
     <g id="text_8">
      <text style="font-size: 7px; font-family: 'DejaVu Sans', 'Bitstream Vera Sans', 'Computer Modern Sans Serif', 'Lucida Grande', 'Verdana', 'Geneva', 'Lucid', 'Arial', 'Helvetica', 'Avant Garde', sans-serif; text-anchor: end; fill: var(--fg-color)" x="28.96" y="27.213917" transform="rotate(-0 28.96 27.213917)">125</text>
     </g>
    </g>
    <g id="ytick_6">
     <g id="line2d_17">
      <path d="M 35.96 8.444233 
L 211 8.444233 
" clip-path="url(#p851297c408)" style="fill: none; stroke-dasharray: 2.96,1.28; stroke-dashoffset: 0; stroke: var(--grid-color); stroke-width: 0.8"/>
     </g>
     <g id="line2d_18">
      <g>
       <use xlink:href="#m8f5866f05e" x="35.96" y="8.444233" style="fill: var(--fg-color); stroke: var(--fg-color); stroke-width: 0.8"/>
      </g>
     </g>
     <g id="text_9">
      <text style="font-size: 7px; font-family: 'DejaVu Sans', 'Bitstream Vera Sans', 'Computer Modern Sans Serif', 'Lucida Grande', 'Verdana', 'Geneva', 'Lucid', 'Arial', 'Helvetica', 'Avant Garde', sans-serif; text-anchor: end; fill: var(--fg-color)" x="28.96" y="11.103412" transform="rotate(-0 28.96 11.103412)">150</text>
     </g>
    </g>
    <g id="text_10">
     <text style="font-size: 7px; font-family: 'DejaVu Sans', 'Bitstream Vera Sans', 'Computer Modern Sans Serif', 'Lucida Grande', 'Verdana', 'Geneva', 'Lucid', 'Arial', 'Helvetica', 'Avant Garde', sans-serif; text-anchor: middle; fill: var(--fg-color)" x="9.917109" y="54.2" transform="rotate(-90 9.917109 54.2)">ms</text>
    </g>
   </g>
   <g id="line2d_19">
    <path d="M 43.916364 22.326333 
L 45.193108 17.559556 
L 45.766628 19.854337 
L 46.691788 20.443337 
L 47.616947 18.241997 
L 48.542109 19.800205 
L 49.467263 21.66838 
L 50.392418 21.85655 
L 51.317566 15.128803 
L 52.242732 22.666586 
L 53.167891 23.432158 
L 54.093049 21.235974 
L 55.018206 22.56799 
L 55.943359 15.673983 
L 56.868517 22.714274 
L 57.793676 22.115607 
L 58.718827 24.242838 
L 59.643987 24.407165 
L 60.569143 23.158279 
L 61.494301 20.413693 
L 62.419457 25.182403 
L 63.344613 18.223954 
L 64.269773 22.009922 
L 65.194924 23.564908 
L 66.120079 25.657341 
L 67.045243 21.760532 
L 67.970398 23.655771 
L 68.895557 19.819538 
L 69.82071 22.174894 
L 70.74585 21.991878 
L 71.671025 18.93926 
L 72.596178 21.09549 
L 73.521341 23.918695 
L 74.446495 21.250151 
L 75.371653 25.58001 
L 76.296805 22.017011 
L 77.221971 22.839935 
L 78.147114 26.344292 
L 79.072277 23.604218 
L 79.997435 21.194731 
L 80.922594 19.535349 
L 81.847735 25.922197 
L 82.772905 16.667034 
L 83.698046 27.562891 
L 84.623219 20.909897 
L 85.548376 20.648262 
L 86.473535 18.19431 
L 87.398688 25.273266 
L 88.323852 20.193946 
L 97.76512 27.595112 
L 98.500856 28.711892 
L 99.426031 31.53703 
L 100.351186 26.362981 
L 101.276348 22.713629 
L 102.201502 16.239139 
L 103.126656 24.020513 
L 104.051812 26.520864 
L 104.976967 20.741703 
L 105.902123 24.382033 
L 106.827282 30.112217 
L 107.752435 25.491725 
L 108.677594 24.069489 
L 109.602753 21.320393 
L 110.527909 27.976609 
L 111.453063 29.906003 
L 112.378223 27.383098 
L 113.303377 23.465667 
L 114.228537 21.297838 
L 115.153695 24.887903 
L 116.078848 26.4532 
L 117.004011 32.122164 
L 117.929158 23.082237 
L 118.854316 23.032617 
L 119.779481 22.393997 
L 120.704637 23.876163 
L 121.629794 24.470963 
L 122.554943 18.509432 
L 123.480104 19.141608 
L 124.405261 27.369565 
L 125.330416 19.46124 
L 126.255574 17.98294 
L 129.9562 14.27688 
L 130.881363 21.043936 
L 131.806516 19.871736 
L 132.731673 16.819762 
L 133.656831 17.331432 
L 134.581987 22.27349 
L 135.507147 19.846604 
L 136.432285 25.01292 
L 137.357455 21.371946 
L 138.282617 20.57351 
L 139.20777 22.323755 
L 140.13293 17.947497 
L 141.058084 18.93926 
L 141.983242 11.237794 
L 142.908395 15.72747 
L 143.833556 20.406605 
L 144.758724 17.893366 
L 145.683869 9.472727 
L 146.609028 10.432913 
L 147.534182 17.058842 
L 148.459339 17.145839 
L 149.384497 20.387917 
L 150.309651 17.751594 
L 151.234811 22.017655 
L 152.159963 13.966269 
L 179.91473 13.966269 
L 188.548948 18.434035 
L 189.166282 20.193302 
L 190.091439 17.287611 
L 191.016594 11.811973 
L 191.94175 15.958172 
L 192.866913 20.535489 
L 193.792066 20.507134 
L 194.717222 21.718644 
L 195.642377 19.468329 
L 196.567536 18.70018 
L 197.492695 10.168701 
L 198.417852 18.493321 
L 199.343013 13.942426 
L 200.268162 19.086188 
L 201.193322 15.972349 
L 202.118478 15.499345 
L 203.043636 12.870111 
" clip-path="url(#p851297c408)" style="fill: none; stroke: #339af0; stroke-width: 1.2; stroke-linecap: square"/>
   </g>
   <g id="line2d_20">
    <path d="M 43.916364 95.170947 
L 45.193108 91.029259 
L 45.766628 94.558748 
L 46.691788 95.697439 
L 47.616947 97.009478 
L 48.542109 93.649471 
L 49.467263 92.997962 
L 50.392418 95.062685 
L 51.317566 95.242478 
L 52.242732 94.288092 
L 53.167891 94.517505 
L 54.093049 95.391984 
L 55.018206 96.992079 
L 55.943359 94.406665 
L 56.868517 95.228945 
L 57.793676 96.132422 
L 58.718827 95.260522 
L 59.643987 97.189916 
L 60.569143 95.119394 
L 61.494301 96.151755 
L 62.419457 95.152259 
L 63.344613 94.819094 
L 64.269773 95.02402 
L 65.194924 96.611871 
L 66.120079 97.656476 
L 67.045243 96.172376 
L 67.970398 95.999027 
L 68.895557 98.252565 
L 69.82071 92.990229 
L 70.74585 97.003678 
L 71.671025 94.867425 
L 72.596178 93.349816 
L 73.521341 93.20031 
L 74.446495 95.993228 
L 75.371653 95.029819 
L 76.296805 96.845151 
L 77.221971 93.505121 
L 78.147114 93.431013 
L 79.072277 96.048003 
L 79.997435 96.385679 
L 80.922594 95.418405 
L 81.847735 98.043773 
L 82.772905 92.46116 
L 83.698046 95.972606 
L 84.623219 95.547933 
L 85.548376 94.727586 
L 86.473535 94.088321 
L 87.398688 96.153044 
L 88.323852 93.971681 
L 97.76512 80.782333 
L 98.500856 80.752045 
L 99.426031 81.592369 
L 100.351186 84.439418 
L 101.276348 81.096166 
L 102.201502 86.759331 
L 103.126656 92.722795 
L 104.051812 90.406104 
L 104.976967 84.101097 
L 105.902123 86.173553 
L 106.827282 91.395289 
L 107.752435 87.814891 
L 108.677594 87.991462 
L 109.602753 91.424933 
L 110.527909 93.421991 
L 111.453063 94.221072 
L 112.378223 93.549586 
L 113.303377 93.311151 
L 114.228537 95.600776 
L 115.153695 93.932372 
L 116.078848 94.773985 
L 117.004011 97.156406 
L 117.929158 94.521372 
L 118.854316 96.815508 
L 119.779481 93.32855 
L 120.704637 94.692788 
L 121.629794 93.949771 
L 122.554943 92.975408 
L 123.480104 95.536334 
L 124.405261 94.731453 
L 125.330416 93.742268 
L 126.255574 97.360687 
L 129.9562 90.167025 
L 130.881363 87.442416 
L 131.806516 87.8658 
L 132.731673 84.000568 
L 133.656831 88.829208 
L 134.581987 88.108102 
L 135.507147 86.799285 
L 136.432285 87.473993 
L 137.357455 85.230121 
L 138.282617 87.08734 
L 139.20777 86.183863 
L 140.13293 90.015586 
L 141.058084 98.927273 
L 141.983242 82.537089 
L 142.908395 82.06924 
L 143.833556 82.46427 
L 144.758724 84.443929 
L 145.683869 81.73092 
L 146.609028 84.76485 
L 147.534182 83.876195 
L 148.459339 82.909564 
L 149.384497 85.699904 
L 150.309651 83.100313 
L 151.234811 84.440062 
L 152.159963 82.234212 
L 179.91473 82.234212 
L 188.548948 76.266236 
L 189.166282 76.339056 
L 190.091439 71.352532 
L 191.016594 73.919258 
L 191.94175 74.242757 
L 192.866913 75.357604 
L 193.792066 74.298177 
L 194.717222 78.178231 
L 195.642377 75.548352 
L 196.567536 76.786928 
L 197.492695 74.838846 
L 198.417852 73.710466 
L 199.343013 70.942037 
L 200.268162 75.175877 
L 201.193322 76.308768 
L 202.118478 71.040633 
L 203.043636 71.151473 
" clip-path="url(#p851297c408)" style="fill: none; stroke: #ff6b6b; stroke-width: 1.2; stroke-linecap: square"/>
   </g>
   <g id="patch_3">
    <path d="M 35.96 103.4 
L 35.96 5 
" style="fill: none; stroke: var(--fg-color); stroke-width: 0.8; stroke-linejoin: miter; stroke-linecap: square"/>
   </g>
   <g id="patch_4">
    <path d="M 35.96 103.4 
L 211 103.4 
" style="fill: none; stroke: var(--fg-color); stroke-width: 0.8; stroke-linejoin: miter; stroke-linecap: square"/>
   </g>
  </g>
 </g>
 <defs>
  <clipPath id="p851297c408">
   <rect x="35.96" y="5" width="175.04" height="98.4"/>
  </clipPath>
 </defs>
</svg>
