<?xml version="1.0" encoding="utf-8" standalone="no"?>
<!DOCTYPE svg PUBLIC "-//W3C//DTD SVG 1.1//EN"
  "http://www.w3.org/Graphics/SVG/1.1/DTD/svg11.dtd">
<svg xmlns:xlink="http://www.w3.org/1999/xlink" width="216pt" height="122.4pt" viewBox="0 0 216 122.4" xmlns="http://www.w3.org/2000/svg" version="1.1">
  <style>
    :root {
      --fg-color: #212529;
      --grid-color: rgba(33, 37, 41, 0.1);
    }
    @media (prefers-color-scheme: dark) {
      :root {
        --fg-color: #dee2e6;
        --grid-color: rgba(248, 249, 250, 0.15);
      }
    }
  </style>

 <metadata>
  <rdf:RDF xmlns:dc="http://purl.org/dc/elements/1.1/" xmlns:cc="http://creativecommons.org/ns#" xmlns:rdf="http://www.w3.org/1999/02/22-rdf-syntax-ns#">
   <cc:Work>
    <dc:type rdf:resource="http://purl.org/dc/dcmitype/StillImage"/>
    <dc:date>2026-06-30T15:37:44.701723</dc:date>
    <dc:format>image/svg+xml</dc:format>
    <dc:creator>
     <cc:Agent>
      <dc:title>Matplotlib v3.11.0, https://matplotlib.org/</dc:title>
     </cc:Agent>
    </dc:creator>
   </cc:Work>
  </rdf:RDF>
 </metadata>
 <defs>
  <style type="text/css">*{stroke-linejoin: round; stroke-linecap: butt}</style>
 </defs>
 <g id="figure_1">
  <g id="patch_1">
   <path d="M 0 122.4 
L 216 122.4 
L 216 0 
L 0 0 
L 0 122.4 
z
" style="fill: none; opacity: 0"/>
  </g>
  <g id="axes_1">
   <g id="patch_2">
    <path d="M 35.96 103.4 
L 211 103.4 
L 211 5 
L 35.96 5 
L 35.96 103.4 
z
" style="fill: none; opacity: 0"/>
   </g>
   <g id="matplotlib.axis_1">
    <g id="xtick_1">
     <g id="line2d_1">
      <path d="M 69.784035 103.4 
L 69.784035 5 
" clip-path="url(#p7c87cc78c6)" style="fill: none; stroke-dasharray: 2.96,1.28; stroke-dashoffset: 0; stroke: var(--grid-color); stroke-width: 0.8"/>
     </g>
     <g id="line2d_2">
      <defs>
       <path id="me526e5a3fe" d="M 0 0 
L 0 3.5 
" style="stroke: var(--fg-color); stroke-width: 0.8"/>
      </defs>
      <g>
       <use xlink:href="#me526e5a3fe" x="69.784035" y="103.4" style="fill: var(--fg-color); stroke: var(--fg-color); stroke-width: 0.8"/>
      </g>
     </g>
     <g id="text_1">
      <text style="font-size: 7px; font-family: 'DejaVu Sans', 'Bitstream Vera Sans', 'Computer Modern Sans Serif', 'Lucida Grande', 'Verdana', 'Geneva', 'Lucid', 'Arial', 'Helvetica', 'Avant Garde', sans-serif; text-anchor: middle; fill: var(--fg-color)" x="69.784035" y="115.718359" transform="rotate(-0 69.784035 115.718359)">02/2026</text>
     </g>
    </g>
    <g id="xtick_2">
     <g id="line2d_3">
      <path d="M 122.345302 103.4 
L 122.345302 5 
" clip-path="url(#p7c87cc78c6)" style="fill: none; stroke-dasharray: 2.96,1.28; stroke-dashoffset: 0; stroke: var(--grid-color); stroke-width: 0.8"/>
     </g>
     <g id="line2d_4">
      <g>
       <use xlink:href="#me526e5a3fe" x="122.345302" y="103.4" style="fill: var(--fg-color); stroke: var(--fg-color); stroke-width: 0.8"/>
      </g>
     </g>
     <g id="text_2">
      <text style="font-size: 7px; font-family: 'DejaVu Sans', 'Bitstream Vera Sans', 'Computer Modern Sans Serif', 'Lucida Grande', 'Verdana', 'Geneva', 'Lucid', 'Arial', 'Helvetica', 'Avant Garde', sans-serif; text-anchor: middle; fill: var(--fg-color)" x="122.345302" y="115.718359" transform="rotate(-0 122.345302 115.718359)">04/2026</text>
     </g>
    </g>
    <g id="xtick_3">
     <g id="line2d_5">
      <path d="M 176.688307 103.4 
L 176.688307 5 
" clip-path="url(#p7c87cc78c6)" style="fill: none; stroke-dasharray: 2.96,1.28; stroke-dashoffset: 0; stroke: var(--grid-color); stroke-width: 0.8"/>
     </g>
     <g id="line2d_6">
      <g>
       <use xlink:href="#me526e5a3fe" x="176.688307" y="103.4" style="fill: var(--fg-color); stroke: var(--fg-color); stroke-width: 0.8"/>
      </g>
     </g>
     <g id="text_3">
      <text style="font-size: 7px; font-family: 'DejaVu Sans', 'Bitstream Vera Sans', 'Computer Modern Sans Serif', 'Lucida Grande', 'Verdana', 'Geneva', 'Lucid', 'Arial', 'Helvetica', 'Avant Garde', sans-serif; text-anchor: middle; fill: var(--fg-color)" x="176.688307" y="115.718359" transform="rotate(-0 176.688307 115.718359)">06/2026</text>
     </g>
    </g>
   </g>
   <g id="matplotlib.axis_2">
    <g id="ytick_1">
     <g id="line2d_7">
      <path d="M 35.96 100.10941 
L 211 100.10941 
" clip-path="url(#p7c87cc78c6)" style="fill: none; stroke-dasharray: 2.96,1.28; stroke-dashoffset: 0; stroke: var(--grid-color); stroke-width: 0.8"/>
     </g>
     <g id="line2d_8">
      <defs>
       <path id="mc6acdfdc55" d="M 0 0 
L -3.5 0 
" style="stroke: var(--fg-color); stroke-width: 0.8"/>
      </defs>
      <g>
       <use xlink:href="#mc6acdfdc55" x="35.96" y="100.10941" style="fill: var(--fg-color); stroke: var(--fg-color); stroke-width: 0.8"/>
      </g>
     </g>
     <g id="text_4">
      <text style="font-size: 7px; font-family: 'DejaVu Sans', 'Bitstream Vera Sans', 'Computer Modern Sans Serif', 'Lucida Grande', 'Verdana', 'Geneva', 'Lucid', 'Arial', 'Helvetica', 'Avant Garde', sans-serif; text-anchor: end; fill: var(--fg-color)" x="28.96" y="102.76859" transform="rotate(-0 28.96 102.76859)">0</text>
     </g>
    </g>
    <g id="ytick_2">
     <g id="line2d_9">
      <path d="M 35.96 83.67257 
L 211 83.67257 
" clip-path="url(#p7c87cc78c6)" style="fill: none; stroke-dasharray: 2.96,1.28; stroke-dashoffset: 0; stroke: var(--grid-color); stroke-width: 0.8"/>
     </g>
     <g id="line2d_10">
      <g>
       <use xlink:href="#mc6acdfdc55" x="35.96" y="83.67257" style="fill: var(--fg-color); stroke: var(--fg-color); stroke-width: 0.8"/>
      </g>
     </g>
     <g id="text_5">
      <text style="font-size: 7px; font-family: 'DejaVu Sans', 'Bitstream Vera Sans', 'Computer Modern Sans Serif', 'Lucida Grande', 'Verdana', 'Geneva', 'Lucid', 'Arial', 'Helvetica', 'Avant Garde', sans-serif; text-anchor: end; fill: var(--fg-color)" x="28.96" y="86.33175" transform="rotate(-0 28.96 86.33175)">25</text>
     </g>
    </g>
    <g id="ytick_3">
     <g id="line2d_11">
      <path d="M 35.96 67.235729 
L 211 67.235729 
" clip-path="url(#p7c87cc78c6)" style="fill: none; stroke-dasharray: 2.96,1.28; stroke-dashoffset: 0; stroke: var(--grid-color); stroke-width: 0.8"/>
     </g>
     <g id="line2d_12">
      <g>
       <use xlink:href="#mc6acdfdc55" x="35.96" y="67.235729" style="fill: var(--fg-color); stroke: var(--fg-color); stroke-width: 0.8"/>
      </g>
     </g>
     <g id="text_6">
      <text style="font-size: 7px; font-family: 'DejaVu Sans', 'Bitstream Vera Sans', 'Computer Modern Sans Serif', 'Lucida Grande', 'Verdana', 'Geneva', 'Lucid', 'Arial', 'Helvetica', 'Avant Garde', sans-serif; text-anchor: end; fill: var(--fg-color)" x="28.96" y="69.894909" transform="rotate(-0 28.96 69.894909)">50</text>
     </g>
    </g>
    <g id="ytick_4">
     <g id="line2d_13">
      <path d="M 35.96 50.798889 
L 211 50.798889 
" clip-path="url(#p7c87cc78c6)" style="fill: none; stroke-dasharray: 2.96,1.28; stroke-dashoffset: 0; stroke: var(--grid-color); stroke-width: 0.8"/>
     </g>
     <g id="line2d_14">
      <g>
       <use xlink:href="#mc6acdfdc55" x="35.96" y="50.798889" style="fill: var(--fg-color); stroke: var(--fg-color); stroke-width: 0.8"/>
      </g>
     </g>
     <g id="text_7">
      <text style="font-size: 7px; font-family: 'DejaVu Sans', 'Bitstream Vera Sans', 'Computer Modern Sans Serif', 'Lucida Grande', 'Verdana', 'Geneva', 'Lucid', 'Arial', 'Helvetica', 'Avant Garde', sans-serif; text-anchor: end; fill: var(--fg-color)" x="28.96" y="53.458069" transform="rotate(-0 28.96 53.458069)">75</text>
     </g>
    </g>
    <g id="ytick_5">
     <g id="line2d_15">
      <path d="M 35.96 34.362049 
L 211 34.362049 
" clip-path="url(#p7c87cc78c6)" style="fill: none; stroke-dasharray: 2.96,1.28; stroke-dashoffset: 0; stroke: var(--grid-color); stroke-width: 0.8"/>
     </g>
     <g id="line2d_16">
      <g>
       <use xlink:href="#mc6acdfdc55" x="35.96" y="34.362049" style="fill: var(--fg-color); stroke: var(--fg-color); stroke-width: 0.8"/>
      </g>
     </g>
     <g id="text_8">
      <text style="font-size: 7px; font-family: 'DejaVu Sans', 'Bitstream Vera Sans', 'Computer Modern Sans Serif', 'Lucida Grande', 'Verdana', 'Geneva', 'Lucid', 'Arial', 'Helvetica', 'Avant Garde', sans-serif; text-anchor: end; fill: var(--fg-color)" x="28.96" y="37.021228" transform="rotate(-0 28.96 37.021228)">100</text>
     </g>
    </g>
    <g id="ytick_6">
     <g id="line2d_17">
      <path d="M 35.96 17.925208 
L 211 17.925208 
" clip-path="url(#p7c87cc78c6)" style="fill: none; stroke-dasharray: 2.96,1.28; stroke-dashoffset: 0; stroke: var(--grid-color); stroke-width: 0.8"/>
     </g>
     <g id="line2d_18">
      <g>
       <use xlink:href="#mc6acdfdc55" x="35.96" y="17.925208" style="fill: var(--fg-color); stroke: var(--fg-color); stroke-width: 0.8"/>
      </g>
     </g>
     <g id="text_9">
      <text style="font-size: 7px; font-family: 'DejaVu Sans', 'Bitstream Vera Sans', 'Computer Modern Sans Serif', 'Lucida Grande', 'Verdana', 'Geneva', 'Lucid', 'Arial', 'Helvetica', 'Avant Garde', sans-serif; text-anchor: end; fill: var(--fg-color)" x="28.96" y="20.584388" transform="rotate(-0 28.96 20.584388)">125</text>
     </g>
    </g>
    <g id="text_10">
     <text style="font-size: 7px; font-family: 'DejaVu Sans', 'Bitstream Vera Sans', 'Computer Modern Sans Serif', 'Lucida Grande', 'Verdana', 'Geneva', 'Lucid', 'Arial', 'Helvetica', 'Avant Garde', sans-serif; text-anchor: middle; fill: var(--fg-color)" x="9.917109" y="54.2" transform="rotate(-90 9.917109 54.2)">ms</text>
    </g>
   </g>
   <g id="line2d_19">
    <path d="M 43.916364 29.006926 
L 44.468628 35.081325 
L 45.3595 33.035267 
L 46.250371 28.734074 
L 47.141245 26.04698 
L 48.032112 32.744663 
L 48.922979 31.630903 
L 49.81384 29.290297 
L 50.704717 32.318621 
L 51.595589 34.787434 
L 52.486458 28.436896 
L 53.377327 29.516468 
L 54.268192 30.894533 
L 55.159063 31.298879 
L 56.049934 23.614327 
L 57.831669 35.812435 
L 58.722538 33.704575 
L 59.613407 31.897837 
L 60.504275 32.373848 
L 61.395144 35.268047 
L 62.286016 22.357238 
L 63.176879 37.549481 
L 64.067746 32.659192 
L 64.958622 22.370387 
L 65.84949 35.393625 
L 66.740361 30.732137 
L 67.631226 31.968845 
L 68.522078 23.859565 
L 69.412965 32.344262 
L 70.30383 30.768298 
L 71.194705 30.365266 
L 72.085571 33.307461 
L 72.976442 37.069525 
L 73.867306 32.163457 
L 74.758184 25.217248 
L 75.649039 38.050476 
L 76.539914 34.498803 
L 77.430784 33.014228 
L 78.321655 30.407345 
L 79.212509 34.682896 
L 80.103391 12.669364 
L 80.994245 30.453368 
L 82.775998 35.952477 
L 83.666869 26.855672 
L 84.557735 35.617166 
L 85.44861 29.144995 
L 94.53997 20.848993 
L 95.248438 30.244291 
L 96.139324 23.413798 
L 97.030192 24.91218 
L 97.921065 34.650679 
L 98.811931 33.392275 
L 99.702798 35.944588 
L 100.593666 36.476484 
L 101.484533 36.517247 
L 102.375401 31.909672 
L 103.266272 37.517264 
L 104.157138 35.111568 
L 105.93888 24.609742 
L 107.720614 36.415996 
L 108.611487 35.409404 
L 109.502352 39.935452 
L 110.393224 25.54467 
L 111.284094 25.652496 
L 112.17496 34.914984 
L 113.065834 33.20884 
L 113.956695 36.592857 
L 114.847564 33.417916 
L 115.738441 37.052431 
L 116.629309 35.915001 
L 117.520178 12.235431 
L 118.41104 27.609137 
L 119.301913 29.203511 
L 120.192782 28.647945 
L 121.083649 24.443402 
L 121.97452 32.720994 
L 125.537994 29.306076 
L 126.428869 34.932736 
L 127.319734 28.073971 
L 128.210603 28.156155 
L 129.101474 25.758349 
L 129.992342 27.540102 
L 130.883214 30.672964 
L 131.774065 29.303447 
L 132.664946 29.440201 
L 133.55582 17.144787 
L 134.446686 25.614362 
L 135.337558 29.253479 
L 136.228424 21.895691 
L 137.119294 29.371824 
L 138.010159 27.517091 
L 138.901032 29.404697 
L 139.791912 29.852437 
L 140.68277 11.648965 
L 141.57364 25.363865 
L 142.464507 21.595883 
L 143.355376 34.323258 
L 144.246246 34.122071 
L 145.137113 31.926766 
L 146.027984 30.548044 
L 146.918849 29.390233 
L 173.644977 29.390233 
L 181.959197 29.732119 
L 182.553652 31.728867 
L 183.444521 28.328413 
L 184.335387 22.112 
L 185.226256 26.138369 
L 186.117131 21.573529 
L 187.007996 22.47624 
L 187.898864 33.863026 
L 188.789731 33.210155 
L 189.680603 21.723433 
L 190.571474 20.015974 
L 191.462343 26.010819 
L 192.353215 18.097466 
L 193.244077 32.235121 
L 194.134949 24.78463 
L 195.025817 19.405839 
L 195.916688 18.975851 
L 196.807557 9.472727 
L 197.698426 27.616369 
L 198.589295 31.20223 
L 199.480162 17.444595 
L 200.371032 29.249534 
L 201.261898 34.248306 
L 202.152766 31.911644 
L 203.043636 38.188545 
L 203.043636 38.188545 
" clip-path="url(#p7c87cc78c6)" style="fill: none; stroke: #339af0; stroke-width: 1.2; stroke-linecap: square"/>
   </g>
   <g id="line2d_20">
    <path d="M 43.916364 98.598536 
L 49.81384 98.73792 
L 50.704717 98.388802 
L 51.595589 98.774739 
L 52.486458 98.633382 
L 60.504275 98.722141 
L 62.286016 98.670201 
L 63.176879 98.841801 
L 64.958622 98.655736 
L 65.84949 98.747125 
L 66.740361 98.566977 
L 72.976442 98.802353 
L 73.867306 98.574867 
L 74.758184 98.152769 
L 75.649039 98.80038 
L 78.321655 98.727401 
L 79.212509 98.602481 
L 80.994245 98.807613 
L 82.775998 98.774739 
L 83.666869 98.747125 
L 84.557735 98.4986 
L 85.44861 98.722141 
L 95.248438 98.80038 
L 96.139324 98.847718 
L 97.030192 98.542651 
L 97.921065 98.447974 
L 98.811931 98.81616 
L 99.702798 98.733318 
L 100.593666 98.799723 
L 102.375401 98.701759 
L 103.266272 98.87073 
L 104.157138 98.80564 
L 105.048009 98.323712 
L 105.93888 98.238898 
L 106.829748 98.397349 
L 107.720614 98.728716 
L 108.611487 98.67546 
L 109.502352 98.927273 
L 110.393224 98.281634 
L 112.17496 98.766192 
L 114.847564 98.755672 
L 116.629309 98.825364 
L 118.41104 98.486765 
L 119.301913 98.222461 
L 120.192782 98.280319 
L 121.083649 97.858221 
L 121.97452 98.779341 
L 125.537994 98.54791 
L 126.428869 98.660338 
L 130.883214 98.679405 
L 131.774065 98.738578 
L 132.664946 98.670858 
L 133.55582 98.417731 
L 134.446686 98.636669 
L 136.228424 98.642587 
L 137.119294 98.572894 
L 138.010159 98.687295 
L 138.901032 98.536733 
L 139.791912 98.723456 
L 141.57364 98.406554 
L 142.464507 98.447974 
L 143.355376 98.759617 
L 145.137113 98.608398 
L 146.027984 98.704389 
L 146.918849 98.660996 
L 182.553652 98.726086 
L 184.335387 97.955527 
L 185.226256 98.582757 
L 187.007996 98.529501 
L 187.898864 98.713594 
L 188.789731 98.68598 
L 189.680603 98.206682 
L 193.244077 98.69387 
L 195.025817 98.618918 
L 195.916688 98.408526 
L 198.589295 98.743838 
L 199.480162 97.663608 
L 200.371032 98.252047 
L 201.261898 98.643244 
L 202.152766 98.474931 
L 203.043636 98.728716 
L 203.043636 98.728716 
" clip-path="url(#p7c87cc78c6)" style="fill: none; stroke: #ff6b6b; stroke-width: 1.2; stroke-linecap: square"/>
   </g>
   <g id="patch_3">
    <path d="M 35.96 103.4 
L 35.96 5 
" style="fill: none; stroke: var(--fg-color); stroke-width: 0.8; stroke-linejoin: miter; stroke-linecap: square"/>
   </g>
   <g id="patch_4">
    <path d="M 35.96 103.4 
L 211 103.4 
" style="fill: none; stroke: var(--fg-color); stroke-width: 0.8; stroke-linejoin: miter; stroke-linecap: square"/>
   </g>
  </g>
 </g>
 <defs>
  <clipPath id="p7c87cc78c6">
   <rect x="35.96" y="5" width="175.04" height="98.4"/>
  </clipPath>
 </defs>
</svg>
