<?xml version="1.0" encoding="utf-8" standalone="no"?>
<!DOCTYPE svg PUBLIC "-//W3C//DTD SVG 1.1//EN"
  "http://www.w3.org/Graphics/SVG/1.1/DTD/svg11.dtd">
<svg xmlns:xlink="http://www.w3.org/1999/xlink" width="216pt" height="122.4pt" viewBox="0 0 216 122.4" xmlns="http://www.w3.org/2000/svg" version="1.1">
  <style>
    :root {
      --fg-color: #212529;
      --grid-color: rgba(33, 37, 41, 0.1);
    }
    @media (prefers-color-scheme: dark) {
      :root {
        --fg-color: #dee2e6;
        --grid-color: rgba(248, 249, 250, 0.15);
      }
    }
  </style>

 <metadata>
  <rdf:RDF xmlns:dc="http://purl.org/dc/elements/1.1/" xmlns:cc="http://creativecommons.org/ns#" xmlns:rdf="http://www.w3.org/1999/02/22-rdf-syntax-ns#">
   <cc:Work>
    <dc:type rdf:resource="http://purl.org/dc/dcmitype/StillImage"/>
    <dc:date>2026-06-30T04:48:17.819012</dc:date>
    <dc:format>image/svg+xml</dc:format>
    <dc:creator>
     <cc:Agent>
      <dc:title>Matplotlib v3.11.0, https://matplotlib.org/</dc:title>
     </cc:Agent>
    </dc:creator>
   </cc:Work>
  </rdf:RDF>
 </metadata>
 <defs>
  <style type="text/css">*{stroke-linejoin: round; stroke-linecap: butt}</style>
 </defs>
 <g id="figure_1">
  <g id="patch_1">
   <path d="M 0 122.4 
L 216 122.4 
L 216 0 
L 0 0 
L 0 122.4 
z
" style="fill: none; opacity: 0"/>
  </g>
  <g id="axes_1">
   <g id="patch_2">
    <path d="M 35.96 103.4 
L 211 103.4 
L 211 5 
L 35.96 5 
L 35.96 103.4 
z
" style="fill: none; opacity: 0"/>
   </g>
   <g id="matplotlib.axis_1">
    <g id="xtick_1">
     <g id="line2d_1">
      <path d="M 125.566594 103.4 
L 125.566594 5 
" clip-path="url(#pd3c904fa0f)" style="fill: none; stroke-dasharray: 2.96,1.28; stroke-dashoffset: 0; stroke: var(--grid-color); stroke-width: 0.8"/>
     </g>
     <g id="line2d_2">
      <defs>
       <path id="ma7855cd7ff" d="M 0 0 
L 0 3.5 
" style="stroke: var(--fg-color); stroke-width: 0.8"/>
      </defs>
      <g>
       <use xlink:href="#ma7855cd7ff" x="125.566594" y="103.4" style="fill: var(--fg-color); stroke: var(--fg-color); stroke-width: 0.8"/>
      </g>
     </g>
     <g id="text_1">
      <text style="font-size: 7px; font-family: 'DejaVu Sans', 'Bitstream Vera Sans', 'Computer Modern Sans Serif', 'Lucida Grande', 'Verdana', 'Geneva', 'Lucid', 'Arial', 'Helvetica', 'Avant Garde', sans-serif; text-anchor: middle; fill: var(--fg-color)" x="125.566594" y="115.718359" transform="rotate(-0 125.566594 115.718359)">05/2026</text>
     </g>
    </g>
   </g>
   <g id="matplotlib.axis_2">
    <g id="ytick_1">
     <g id="line2d_3">
      <path d="M 35.96 100.798855 
L 211 100.798855 
" clip-path="url(#pd3c904fa0f)" style="fill: none; stroke-dasharray: 2.96,1.28; stroke-dashoffset: 0; stroke: var(--grid-color); stroke-width: 0.8"/>
     </g>
     <g id="line2d_4">
      <defs>
       <path id="md475a549f0" d="M 0 0 
L -3.5 0 
" style="stroke: var(--fg-color); stroke-width: 0.8"/>
      </defs>
      <g>
       <use xlink:href="#md475a549f0" x="35.96" y="100.798855" style="fill: var(--fg-color); stroke: var(--fg-color); stroke-width: 0.8"/>
      </g>
     </g>
     <g id="text_2">
      <text style="font-size: 7px; font-family: 'DejaVu Sans', 'Bitstream Vera Sans', 'Computer Modern Sans Serif', 'Lucida Grande', 'Verdana', 'Geneva', 'Lucid', 'Arial', 'Helvetica', 'Avant Garde', sans-serif; text-anchor: end; fill: var(--fg-color)" x="28.96" y="103.458034" transform="rotate(-0 28.96 103.458034)">0</text>
     </g>
    </g>
    <g id="ytick_2">
     <g id="line2d_5">
      <path d="M 35.96 82.680928 
L 211 82.680928 
" clip-path="url(#pd3c904fa0f)" style="fill: none; stroke-dasharray: 2.96,1.28; stroke-dashoffset: 0; stroke: var(--grid-color); stroke-width: 0.8"/>
     </g>
     <g id="line2d_6">
      <g>
       <use xlink:href="#md475a549f0" x="35.96" y="82.680928" style="fill: var(--fg-color); stroke: var(--fg-color); stroke-width: 0.8"/>
      </g>
     </g>
     <g id="text_3">
      <text style="font-size: 7px; font-family: 'DejaVu Sans', 'Bitstream Vera Sans', 'Computer Modern Sans Serif', 'Lucida Grande', 'Verdana', 'Geneva', 'Lucid', 'Arial', 'Helvetica', 'Avant Garde', sans-serif; text-anchor: end; fill: var(--fg-color)" x="28.96" y="85.340108" transform="rotate(-0 28.96 85.340108)">20</text>
     </g>
    </g>
    <g id="ytick_3">
     <g id="line2d_7">
      <path d="M 35.96 64.563001 
L 211 64.563001 
" clip-path="url(#pd3c904fa0f)" style="fill: none; stroke-dasharray: 2.96,1.28; stroke-dashoffset: 0; stroke: var(--grid-color); stroke-width: 0.8"/>
     </g>
     <g id="line2d_8">
      <g>
       <use xlink:href="#md475a549f0" x="35.96" y="64.563001" style="fill: var(--fg-color); stroke: var(--fg-color); stroke-width: 0.8"/>
      </g>
     </g>
     <g id="text_4">
      <text style="font-size: 7px; font-family: 'DejaVu Sans', 'Bitstream Vera Sans', 'Computer Modern Sans Serif', 'Lucida Grande', 'Verdana', 'Geneva', 'Lucid', 'Arial', 'Helvetica', 'Avant Garde', sans-serif; text-anchor: end; fill: var(--fg-color)" x="28.96" y="67.222181" transform="rotate(-0 28.96 67.222181)">40</text>
     </g>
    </g>
    <g id="ytick_4">
     <g id="line2d_9">
      <path d="M 35.96 46.445074 
L 211 46.445074 
" clip-path="url(#pd3c904fa0f)" style="fill: none; stroke-dasharray: 2.96,1.28; stroke-dashoffset: 0; stroke: var(--grid-color); stroke-width: 0.8"/>
     </g>
     <g id="line2d_10">
      <g>
       <use xlink:href="#md475a549f0" x="35.96" y="46.445074" style="fill: var(--fg-color); stroke: var(--fg-color); stroke-width: 0.8"/>
      </g>
     </g>
     <g id="text_5">
      <text style="font-size: 7px; font-family: 'DejaVu Sans', 'Bitstream Vera Sans', 'Computer Modern Sans Serif', 'Lucida Grande', 'Verdana', 'Geneva', 'Lucid', 'Arial', 'Helvetica', 'Avant Garde', sans-serif; text-anchor: end; fill: var(--fg-color)" x="28.96" y="49.104254" transform="rotate(-0 28.96 49.104254)">60</text>
     </g>
    </g>
    <g id="ytick_5">
     <g id="line2d_11">
      <path d="M 35.96 28.327148 
L 211 28.327148 
" clip-path="url(#pd3c904fa0f)" style="fill: none; stroke-dasharray: 2.96,1.28; stroke-dashoffset: 0; stroke: var(--grid-color); stroke-width: 0.8"/>
     </g>
     <g id="line2d_12">
      <g>
       <use xlink:href="#md475a549f0" x="35.96" y="28.327148" style="fill: var(--fg-color); stroke: var(--fg-color); stroke-width: 0.8"/>
      </g>
     </g>
     <g id="text_6">
      <text style="font-size: 7px; font-family: 'DejaVu Sans', 'Bitstream Vera Sans', 'Computer Modern Sans Serif', 'Lucida Grande', 'Verdana', 'Geneva', 'Lucid', 'Arial', 'Helvetica', 'Avant Garde', sans-serif; text-anchor: end; fill: var(--fg-color)" x="28.96" y="30.986327" transform="rotate(-0 28.96 30.986327)">80</text>
     </g>
    </g>
    <g id="ytick_6">
     <g id="line2d_13">
      <path d="M 35.96 10.209221 
L 211 10.209221 
" clip-path="url(#pd3c904fa0f)" style="fill: none; stroke-dasharray: 2.96,1.28; stroke-dashoffset: 0; stroke: var(--grid-color); stroke-width: 0.8"/>
     </g>
     <g id="line2d_14">
      <g>
       <use xlink:href="#md475a549f0" x="35.96" y="10.209221" style="fill: var(--fg-color); stroke: var(--fg-color); stroke-width: 0.8"/>
      </g>
     </g>
     <g id="text_7">
      <text style="font-size: 7px; font-family: 'DejaVu Sans', 'Bitstream Vera Sans', 'Computer Modern Sans Serif', 'Lucida Grande', 'Verdana', 'Geneva', 'Lucid', 'Arial', 'Helvetica', 'Avant Garde', sans-serif; text-anchor: end; fill: var(--fg-color)" x="28.96" y="12.868401" transform="rotate(-0 28.96 12.868401)">100</text>
     </g>
    </g>
    <g id="text_8">
     <text style="font-size: 7px; font-family: 'DejaVu Sans', 'Bitstream Vera Sans', 'Computer Modern Sans Serif', 'Lucida Grande', 'Verdana', 'Geneva', 'Lucid', 'Arial', 'Helvetica', 'Avant Garde', sans-serif; text-anchor: middle; fill: var(--fg-color)" x="9.917109" y="54.2" transform="rotate(-90 9.917109 54.2)">ms</text>
    </g>
   </g>
   <g id="line2d_15">
    <path d="M 43.916364 30.701502 
L 45.389761 49.149175 
L 46.863159 38.265736 
L 48.336557 44.976616 
L 49.809961 40.230626 
L 51.283356 37.631609 
L 52.756759 38.462316 
L 54.230162 38.585518 
L 55.703561 43.674843 
L 57.176956 45.539178 
L 58.650362 40.694444 
L 60.123757 37.155107 
L 61.597161 40.478841 
L 63.070563 41.533304 
L 64.543959 44.204793 
L 66.017367 28.499268 
L 67.490753 47.702459 
L 68.964154 39.700676 
L 70.437566 42.680169 
L 71.910965 37.594467 
L 73.384365 34.347735 
L 74.857754 32.505142 
L 76.33116 46.870846 
L 77.804561 30.538441 
L 79.277958 32.364728 
L 80.75136 37.765682 
L 86.644957 43.477358 
L 88.118368 24.309497 
L 89.591762 40.508736 
L 91.065162 43.577007 
L 92.538565 32.97349 
L 94.011963 38.921605 
L 95.485369 36.747454 
L 96.958739 45.928714 
L 98.432159 45.554578 
L 99.905567 44.194828 
L 101.378962 35.263596 
L 102.852367 28.664141 
L 104.325762 30.728679 
L 105.799163 40.035858 
L 107.272558 39.392671 
L 108.745964 37.420535 
L 110.219382 40.926354 
L 111.692764 39.509532 
L 113.166166 40.575772 
L 114.639562 9.472727 
L 116.112963 34.489055 
L 117.586364 46.148846 
L 119.059761 35.046181 
L 120.533165 42.669298 
L 122.006558 43.286214 
L 166.208658 43.286214 
L 179.959469 35.124088 
L 180.942633 47.893603 
L 182.416033 36.65777 
L 183.889429 34.677481 
L 185.362829 39.824784 
L 186.836238 41.610306 
L 188.309633 41.85218 
L 189.783031 38.122605 
L 191.256428 45.185879 
L 192.729832 24.376534 
L 194.203236 36.299941 
L 195.676636 35.34875 
L 197.150042 30.898987 
L 198.62343 32.598449 
L 200.096835 10.609627 
L 201.570233 39.182503 
L 203.043636 23.716135 
" clip-path="url(#pd3c904fa0f)" style="fill: none; stroke: #339af0; stroke-width: 1.2; stroke-linecap: square"/>
   </g>
   <g id="line2d_16">
    <path d="M 43.916364 98.639198 
L 45.389761 98.737034 
L 46.863159 98.792294 
L 48.336557 98.772364 
L 49.809961 98.258721 
L 51.283356 98.513278 
L 52.756759 98.769647 
L 54.230162 98.736129 
L 55.703561 98.831248 
L 57.176956 98.927273 
L 58.650362 98.758776 
L 60.123757 98.704422 
L 61.597161 98.609303 
L 63.070563 98.721634 
L 64.543959 98.564914 
L 66.017367 98.811318 
L 67.490753 98.91459 
L 68.964154 98.776894 
L 70.437566 98.705328 
L 71.910965 97.754137 
L 73.384365 98.697175 
L 74.857754 97.999635 
L 76.33116 98.724352 
L 77.804561 98.648257 
L 79.277958 98.4091 
L 80.75136 98.766929 
L 86.644957 98.573973 
L 88.118368 98.662751 
L 89.591762 98.594809 
L 91.065162 98.788671 
L 92.538565 97.760478 
L 94.011963 98.595715 
L 95.485369 98.265968 
L 96.958739 98.677245 
L 98.432159 98.544079 
L 99.905567 98.593903 
L 101.378962 98.577597 
L 102.852367 98.532302 
L 104.325762 98.560385 
L 105.799163 98.589373 
L 107.272558 98.511466 
L 108.745964 98.30311 
L 110.219382 98.631951 
L 111.692764 98.583032 
L 113.166166 98.632856 
L 114.639562 98.042212 
L 116.112963 98.590279 
L 117.586364 98.770553 
L 119.059761 98.591185 
L 120.533165 98.633762 
L 122.006558 98.560385 
L 166.208658 98.560385 
L 179.959469 98.423594 
L 180.942633 98.68721 
L 182.416033 98.542267 
L 183.889429 98.158167 
L 185.362829 98.505125 
L 186.836238 98.624703 
L 188.309633 98.641009 
L 189.783031 98.748811 
L 191.256428 98.660033 
L 192.729832 98.473419 
L 194.203236 98.582126 
L 195.676636 98.531396 
L 197.150042 98.611115 
L 198.62343 97.248647 
L 200.096835 98.109248 
L 201.570233 98.660033 
L 203.043636 98.395512 
" clip-path="url(#pd3c904fa0f)" style="fill: none; stroke: #ff6b6b; stroke-width: 1.2; stroke-linecap: square"/>
   </g>
   <g id="patch_3">
    <path d="M 35.96 103.4 
L 35.96 5 
" style="fill: none; stroke: var(--fg-color); stroke-width: 0.8; stroke-linejoin: miter; stroke-linecap: square"/>
   </g>
   <g id="patch_4">
    <path d="M 35.96 103.4 
L 211 103.4 
" style="fill: none; stroke: var(--fg-color); stroke-width: 0.8; stroke-linejoin: miter; stroke-linecap: square"/>
   </g>
  </g>
 </g>
 <defs>
  <clipPath id="pd3c904fa0f">
   <rect x="35.96" y="5" width="175.04" height="98.4"/>
  </clipPath>
 </defs>
</svg>
