<?xml version="1.0" encoding="utf-8" standalone="no"?>
<!DOCTYPE svg PUBLIC "-//W3C//DTD SVG 1.1//EN"
  "http://www.w3.org/Graphics/SVG/1.1/DTD/svg11.dtd">
<svg xmlns:xlink="http://www.w3.org/1999/xlink" width="216pt" height="122.4pt" viewBox="0 0 216 122.4" xmlns="http://www.w3.org/2000/svg" version="1.1">
  <style>
    :root {
      --fg-color: #212529;
      --grid-color: rgba(33, 37, 41, 0.1);
    }
    @media (prefers-color-scheme: dark) {
      :root {
        --fg-color: #dee2e6;
        --grid-color: rgba(248, 249, 250, 0.15);
      }
    }
  </style>

 <metadata>
  <rdf:RDF xmlns:dc="http://purl.org/dc/elements/1.1/" xmlns:cc="http://creativecommons.org/ns#" xmlns:rdf="http://www.w3.org/1999/02/22-rdf-syntax-ns#">
   <cc:Work>
    <dc:type rdf:resource="http://purl.org/dc/dcmitype/StillImage"/>
    <dc:date>2026-06-30T15:37:13.596087</dc:date>
    <dc:format>image/svg+xml</dc:format>
    <dc:creator>
     <cc:Agent>
      <dc:title>Matplotlib v3.11.0, https://matplotlib.org/</dc:title>
     </cc:Agent>
    </dc:creator>
   </cc:Work>
  </rdf:RDF>
 </metadata>
 <defs>
  <style type="text/css">*{stroke-linejoin: round; stroke-linecap: butt}</style>
 </defs>
 <g id="figure_1">
  <g id="patch_1">
   <path d="M 0 122.4 
L 216 122.4 
L 216 0 
L 0 0 
L 0 122.4 
z
" style="fill: none; opacity: 0"/>
  </g>
  <g id="axes_1">
   <g id="patch_2">
    <path d="M 35.96 103.4 
L 211 103.4 
L 211 5 
L 35.96 5 
L 35.96 103.4 
z
" style="fill: none; opacity: 0"/>
   </g>
   <g id="matplotlib.axis_1">
    <g id="xtick_1">
     <g id="line2d_1">
      <path d="M 69.784035 103.4 
L 69.784035 5 
" clip-path="url(#p4b3a394544)" style="fill: none; stroke-dasharray: 2.96,1.28; stroke-dashoffset: 0; stroke: var(--grid-color); stroke-width: 0.8"/>
     </g>
     <g id="line2d_2">
      <defs>
       <path id="m721d05910c" d="M 0 0 
L 0 3.5 
" style="stroke: var(--fg-color); stroke-width: 0.8"/>
      </defs>
      <g>
       <use xlink:href="#m721d05910c" x="69.784035" y="103.4" style="fill: var(--fg-color); stroke: var(--fg-color); stroke-width: 0.8"/>
      </g>
     </g>
     <g id="text_1">
      <text style="font-size: 7px; font-family: 'DejaVu Sans', 'Bitstream Vera Sans', 'Computer Modern Sans Serif', 'Lucida Grande', 'Verdana', 'Geneva', 'Lucid', 'Arial', 'Helvetica', 'Avant Garde', sans-serif; text-anchor: middle; fill: var(--fg-color)" x="69.784035" y="115.718359" transform="rotate(-0 69.784035 115.718359)">02/2026</text>
     </g>
    </g>
    <g id="xtick_2">
     <g id="line2d_3">
      <path d="M 122.345302 103.4 
L 122.345302 5 
" clip-path="url(#p4b3a394544)" style="fill: none; stroke-dasharray: 2.96,1.28; stroke-dashoffset: 0; stroke: var(--grid-color); stroke-width: 0.8"/>
     </g>
     <g id="line2d_4">
      <g>
       <use xlink:href="#m721d05910c" x="122.345302" y="103.4" style="fill: var(--fg-color); stroke: var(--fg-color); stroke-width: 0.8"/>
      </g>
     </g>
     <g id="text_2">
      <text style="font-size: 7px; font-family: 'DejaVu Sans', 'Bitstream Vera Sans', 'Computer Modern Sans Serif', 'Lucida Grande', 'Verdana', 'Geneva', 'Lucid', 'Arial', 'Helvetica', 'Avant Garde', sans-serif; text-anchor: middle; fill: var(--fg-color)" x="122.345302" y="115.718359" transform="rotate(-0 122.345302 115.718359)">04/2026</text>
     </g>
    </g>
    <g id="xtick_3">
     <g id="line2d_5">
      <path d="M 176.688307 103.4 
L 176.688307 5 
" clip-path="url(#p4b3a394544)" style="fill: none; stroke-dasharray: 2.96,1.28; stroke-dashoffset: 0; stroke: var(--grid-color); stroke-width: 0.8"/>
     </g>
     <g id="line2d_6">
      <g>
       <use xlink:href="#m721d05910c" x="176.688307" y="103.4" style="fill: var(--fg-color); stroke: var(--fg-color); stroke-width: 0.8"/>
      </g>
     </g>
     <g id="text_3">
      <text style="font-size: 7px; font-family: 'DejaVu Sans', 'Bitstream Vera Sans', 'Computer Modern Sans Serif', 'Lucida Grande', 'Verdana', 'Geneva', 'Lucid', 'Arial', 'Helvetica', 'Avant Garde', sans-serif; text-anchor: middle; fill: var(--fg-color)" x="176.688307" y="115.718359" transform="rotate(-0 176.688307 115.718359)">06/2026</text>
     </g>
    </g>
   </g>
   <g id="matplotlib.axis_2">
    <g id="ytick_1">
     <g id="line2d_7">
      <path d="M 35.96 99.566188 
L 211 99.566188 
" clip-path="url(#p4b3a394544)" style="fill: none; stroke-dasharray: 2.96,1.28; stroke-dashoffset: 0; stroke: var(--grid-color); stroke-width: 0.8"/>
     </g>
     <g id="line2d_8">
      <defs>
       <path id="m0e8c54d49a" d="M 0 0 
L -3.5 0 
" style="stroke: var(--fg-color); stroke-width: 0.8"/>
      </defs>
      <g>
       <use xlink:href="#m0e8c54d49a" x="35.96" y="99.566188" style="fill: var(--fg-color); stroke: var(--fg-color); stroke-width: 0.8"/>
      </g>
     </g>
     <g id="text_4">
      <text style="font-size: 7px; font-family: 'DejaVu Sans', 'Bitstream Vera Sans', 'Computer Modern Sans Serif', 'Lucida Grande', 'Verdana', 'Geneva', 'Lucid', 'Arial', 'Helvetica', 'Avant Garde', sans-serif; text-anchor: end; fill: var(--fg-color)" x="28.96" y="102.225368" transform="rotate(-0 28.96 102.225368)">0</text>
     </g>
    </g>
    <g id="ytick_2">
     <g id="line2d_9">
      <path d="M 35.96 76.69469 
L 211 76.69469 
" clip-path="url(#p4b3a394544)" style="fill: none; stroke-dasharray: 2.96,1.28; stroke-dashoffset: 0; stroke: var(--grid-color); stroke-width: 0.8"/>
     </g>
     <g id="line2d_10">
      <g>
       <use xlink:href="#m0e8c54d49a" x="35.96" y="76.69469" style="fill: var(--fg-color); stroke: var(--fg-color); stroke-width: 0.8"/>
      </g>
     </g>
     <g id="text_5">
      <text style="font-size: 7px; font-family: 'DejaVu Sans', 'Bitstream Vera Sans', 'Computer Modern Sans Serif', 'Lucida Grande', 'Verdana', 'Geneva', 'Lucid', 'Arial', 'Helvetica', 'Avant Garde', sans-serif; text-anchor: end; fill: var(--fg-color)" x="28.96" y="79.35387" transform="rotate(-0 28.96 79.35387)">200</text>
     </g>
    </g>
    <g id="ytick_3">
     <g id="line2d_11">
      <path d="M 35.96 53.823192 
L 211 53.823192 
" clip-path="url(#p4b3a394544)" style="fill: none; stroke-dasharray: 2.96,1.28; stroke-dashoffset: 0; stroke: var(--grid-color); stroke-width: 0.8"/>
     </g>
     <g id="line2d_12">
      <g>
       <use xlink:href="#m0e8c54d49a" x="35.96" y="53.823192" style="fill: var(--fg-color); stroke: var(--fg-color); stroke-width: 0.8"/>
      </g>
     </g>
     <g id="text_6">
      <text style="font-size: 7px; font-family: 'DejaVu Sans', 'Bitstream Vera Sans', 'Computer Modern Sans Serif', 'Lucida Grande', 'Verdana', 'Geneva', 'Lucid', 'Arial', 'Helvetica', 'Avant Garde', sans-serif; text-anchor: end; fill: var(--fg-color)" x="28.96" y="56.482372" transform="rotate(-0 28.96 56.482372)">400</text>
     </g>
    </g>
    <g id="ytick_4">
     <g id="line2d_13">
      <path d="M 35.96 30.951694 
L 211 30.951694 
" clip-path="url(#p4b3a394544)" style="fill: none; stroke-dasharray: 2.96,1.28; stroke-dashoffset: 0; stroke: var(--grid-color); stroke-width: 0.8"/>
     </g>
     <g id="line2d_14">
      <g>
       <use xlink:href="#m0e8c54d49a" x="35.96" y="30.951694" style="fill: var(--fg-color); stroke: var(--fg-color); stroke-width: 0.8"/>
      </g>
     </g>
     <g id="text_7">
      <text style="font-size: 7px; font-family: 'DejaVu Sans', 'Bitstream Vera Sans', 'Computer Modern Sans Serif', 'Lucida Grande', 'Verdana', 'Geneva', 'Lucid', 'Arial', 'Helvetica', 'Avant Garde', sans-serif; text-anchor: end; fill: var(--fg-color)" x="28.96" y="33.610874" transform="rotate(-0 28.96 33.610874)">600</text>
     </g>
    </g>
    <g id="ytick_5">
     <g id="line2d_15">
      <path d="M 35.96 8.080196 
L 211 8.080196 
" clip-path="url(#p4b3a394544)" style="fill: none; stroke-dasharray: 2.96,1.28; stroke-dashoffset: 0; stroke: var(--grid-color); stroke-width: 0.8"/>
     </g>
     <g id="line2d_16">
      <g>
       <use xlink:href="#m0e8c54d49a" x="35.96" y="8.080196" style="fill: var(--fg-color); stroke: var(--fg-color); stroke-width: 0.8"/>
      </g>
     </g>
     <g id="text_8">
      <text style="font-size: 7px; font-family: 'DejaVu Sans', 'Bitstream Vera Sans', 'Computer Modern Sans Serif', 'Lucida Grande', 'Verdana', 'Geneva', 'Lucid', 'Arial', 'Helvetica', 'Avant Garde', sans-serif; text-anchor: end; fill: var(--fg-color)" x="28.96" y="10.739376" transform="rotate(-0 28.96 10.739376)">800</text>
     </g>
    </g>
    <g id="text_9">
     <text style="font-size: 7px; font-family: 'DejaVu Sans', 'Bitstream Vera Sans', 'Computer Modern Sans Serif', 'Lucida Grande', 'Verdana', 'Geneva', 'Lucid', 'Arial', 'Helvetica', 'Avant Garde', sans-serif; text-anchor: middle; fill: var(--fg-color)" x="9.917109" y="54.2" transform="rotate(-90 9.917109 54.2)">ms</text>
    </g>
   </g>
   <g id="line2d_17">
    <path d="M 43.916364 86.574948 
L 44.468628 86.999215 
L 45.3595 88.619546 
L 46.250371 87.545844 
L 47.141245 85.114718 
L 48.032112 87.484319 
L 48.922979 87.68879 
L 49.81384 87.615945 
L 50.704717 89.057535 
L 52.486458 86.657286 
L 53.377327 86.087099 
L 54.268192 86.781249 
L 55.159063 86.795887 
L 56.940797 88.626407 
L 57.831669 88.859925 
L 59.613407 87.661116 
L 61.395144 87.692564 
L 62.286016 83.430689 
L 63.176879 89.247254 
L 64.067746 84.948099 
L 64.958622 87.059252 
L 65.84949 87.809895 
L 66.740361 89.145019 
L 67.631226 86.495584 
L 68.522078 87.811953 
L 69.412965 87.65231 
L 70.30383 87.905841 
L 71.194705 86.799318 
L 72.976442 89.189046 
L 73.867306 87.168121 
L 74.758184 87.640074 
L 75.649039 89.322273 
L 76.539914 86.865188 
L 77.430784 88.630753 
L 78.321655 84.849065 
L 79.212509 87.409987 
L 80.103391 87.061425 
L 81.885129 88.897778 
L 82.775998 88.047759 
L 84.557735 87.93363 
L 85.44861 86.871477 
L 94.53997 86.789254 
L 95.248438 88.0457 
L 96.139324 88.32153 
L 97.030192 87.522515 
L 97.921065 87.678041 
L 98.811931 88.211747 
L 99.702798 86.680843 
L 100.593666 87.019913 
L 101.484533 87.134843 
L 102.375401 84.238053 
L 103.266272 85.267728 
L 104.157138 86.54087 
L 105.048009 86.894692 
L 105.93888 86.656828 
L 106.829748 88.706 
L 107.720614 88.405926 
L 108.611487 86.745799 
L 109.502352 87.793771 
L 110.393224 86.545787 
L 111.284094 88.940433 
L 112.17496 73.804076 
L 113.065834 87.610684 
L 113.956695 87.468424 
L 115.738441 84.23508 
L 116.629309 86.998872 
L 117.520178 77.028042 
L 118.41104 84.590846 
L 119.301913 85.949184 
L 120.192782 87.549274 
L 121.083649 85.684675 
L 121.97452 86.887716 
L 125.537994 82.802638 
L 126.428869 85.471513 
L 127.319734 87.190878 
L 128.210603 87.24737 
L 129.101474 85.896694 
L 129.992342 82.401472 
L 130.883214 86.77759 
L 131.774065 86.781936 
L 132.664946 87.356696 
L 133.55582 86.719039 
L 134.446686 87.609198 
L 135.337558 87.179328 
L 136.228424 87.202085 
L 137.119294 82.689424 
L 138.010159 86.919851 
L 138.901032 84.331483 
L 139.791912 85.518971 
L 140.68277 86.473971 
L 141.57364 86.330567 
L 142.464507 85.118263 
L 143.355376 86.820131 
L 144.246246 87.966908 
L 145.137113 87.005161 
L 146.027984 86.933116 
L 146.918849 85.301349 
L 173.644977 85.301349 
L 181.959197 28.474368 
L 182.553652 87.433659 
L 183.444521 83.775363 
L 184.335387 67.630029 
L 185.226256 85.532351 
L 186.117131 9.472727 
L 187.007996 86.218496 
L 187.898864 87.138273 
L 188.789731 87.552591 
L 189.680603 81.247834 
L 190.571474 86.159259 
L 191.462343 86.96365 
L 192.353215 85.38666 
L 193.244077 87.355553 
L 194.134949 85.68296 
L 195.025817 86.758721 
L 195.916688 85.036154 
L 196.807557 86.79543 
L 197.698426 87.300432 
L 198.589295 85.586557 
L 199.480162 87.559109 
L 200.371032 88.123578 
L 201.261898 86.513653 
L 202.152766 86.397008 
L 203.043636 19.039417 
L 203.043636 19.039417 
" clip-path="url(#p4b3a394544)" style="fill: none; stroke: #339af0; stroke-width: 1.2; stroke-linecap: square"/>
   </g>
   <g id="line2d_18">
    <path d="M 43.916364 98.762941 
L 44.468628 98.833843 
L 45.3595 98.818976 
L 46.250371 98.537885 
L 48.032112 98.828697 
L 60.504275 98.766257 
L 61.395144 98.605128 
L 63.176879 98.857629 
L 67.631226 98.770946 
L 68.522078 98.528851 
L 69.412965 98.7666 
L 71.194705 98.512727 
L 72.085571 98.850882 
L 73.867306 98.740184 
L 74.758184 98.852254 
L 75.649039 98.736067 
L 77.430784 98.777236 
L 78.321655 98.577682 
L 79.212509 98.827667 
L 94.53997 98.633946 
L 95.248438 98.911148 
L 100.593666 98.75242 
L 101.484533 98.846193 
L 103.266272 98.802051 
L 104.157138 98.077825 
L 105.048009 98.733665 
L 105.93888 98.638406 
L 106.829748 98.886218 
L 108.611487 98.735495 
L 109.502352 98.876727 
L 113.065834 98.874897 
L 113.956695 98.647326 
L 115.738441 98.771518 
L 118.41104 98.599524 
L 119.301913 98.806969 
L 120.192782 98.789358 
L 121.083649 98.640579 
L 121.97452 98.845621 
L 125.537994 98.621595 
L 128.210603 98.773004 
L 129.101474 98.778722 
L 129.992342 98.516501 
L 131.774065 98.845278 
L 139.791912 98.665852 
L 141.57364 98.808227 
L 142.464507 98.717198 
L 143.355376 98.797591 
L 144.246246 98.690781 
L 145.137113 98.699358 
L 146.027984 98.853283 
L 146.918849 98.798506 
L 183.444521 98.699473 
L 187.007996 98.688151 
L 187.898864 98.782039 
L 188.789731 98.724974 
L 189.680603 98.537771 
L 191.462343 98.673513 
L 192.353215 98.558012 
L 193.244077 98.850196 
L 195.025817 98.712852 
L 196.807557 98.562815 
L 197.698426 98.889649 
L 198.589295 98.554124 
L 199.480162 98.603069 
L 200.371032 98.86106 
L 201.261898 98.742242 
L 203.043636 98.863004 
L 203.043636 98.863004 
" clip-path="url(#p4b3a394544)" style="fill: none; stroke: #ff6b6b; stroke-width: 1.2; stroke-linecap: square"/>
   </g>
   <g id="patch_3">
    <path d="M 35.96 103.4 
L 35.96 5 
" style="fill: none; stroke: var(--fg-color); stroke-width: 0.8; stroke-linejoin: miter; stroke-linecap: square"/>
   </g>
   <g id="patch_4">
    <path d="M 35.96 103.4 
L 211 103.4 
" style="fill: none; stroke: var(--fg-color); stroke-width: 0.8; stroke-linejoin: miter; stroke-linecap: square"/>
   </g>
  </g>
 </g>
 <defs>
  <clipPath id="p4b3a394544">
   <rect x="35.96" y="5" width="175.04" height="98.4"/>
  </clipPath>
 </defs>
</svg>
