<?xml version="1.0" encoding="utf-8" standalone="no"?>
<!DOCTYPE svg PUBLIC "-//W3C//DTD SVG 1.1//EN"
  "http://www.w3.org/Graphics/SVG/1.1/DTD/svg11.dtd">
<svg xmlns:xlink="http://www.w3.org/1999/xlink" width="216pt" height="122.4pt" viewBox="0 0 216 122.4" xmlns="http://www.w3.org/2000/svg" version="1.1">
  <style>
    :root {
      --fg-color: #212529;
      --grid-color: rgba(33, 37, 41, 0.1);
    }
    @media (prefers-color-scheme: dark) {
      :root {
        --fg-color: #dee2e6;
        --grid-color: rgba(248, 249, 250, 0.15);
      }
    }
  </style>

 <metadata>
  <rdf:RDF xmlns:dc="http://purl.org/dc/elements/1.1/" xmlns:cc="http://creativecommons.org/ns#" xmlns:rdf="http://www.w3.org/1999/02/22-rdf-syntax-ns#">
   <cc:Work>
    <dc:type rdf:resource="http://purl.org/dc/dcmitype/StillImage"/>
    <dc:date>2026-06-30T15:37:50.996891</dc:date>
    <dc:format>image/svg+xml</dc:format>
    <dc:creator>
     <cc:Agent>
      <dc:title>Matplotlib v3.11.0, https://matplotlib.org/</dc:title>
     </cc:Agent>
    </dc:creator>
   </cc:Work>
  </rdf:RDF>
 </metadata>
 <defs>
  <style type="text/css">*{stroke-linejoin: round; stroke-linecap: butt}</style>
 </defs>
 <g id="figure_1">
  <g id="patch_1">
   <path d="M 0 122.4 
L 216 122.4 
L 216 0 
L 0 0 
L 0 122.4 
z
" style="fill: none; opacity: 0"/>
  </g>
  <g id="axes_1">
   <g id="patch_2">
    <path d="M 35.96 103.4 
L 211 103.4 
L 211 5 
L 35.96 5 
L 35.96 103.4 
z
" style="fill: none; opacity: 0"/>
   </g>
   <g id="matplotlib.axis_1">
    <g id="xtick_1">
     <g id="line2d_1">
      <path d="M 69.784035 103.4 
L 69.784035 5 
" clip-path="url(#p4cd38cd4ce)" style="fill: none; stroke-dasharray: 2.96,1.28; stroke-dashoffset: 0; stroke: var(--grid-color); stroke-width: 0.8"/>
     </g>
     <g id="line2d_2">
      <defs>
       <path id="mfede1e9584" d="M 0 0 
L 0 3.5 
" style="stroke: var(--fg-color); stroke-width: 0.8"/>
      </defs>
      <g>
       <use xlink:href="#mfede1e9584" x="69.784035" y="103.4" style="fill: var(--fg-color); stroke: var(--fg-color); stroke-width: 0.8"/>
      </g>
     </g>
     <g id="text_1">
      <text style="font-size: 7px; font-family: 'DejaVu Sans', 'Bitstream Vera Sans', 'Computer Modern Sans Serif', 'Lucida Grande', 'Verdana', 'Geneva', 'Lucid', 'Arial', 'Helvetica', 'Avant Garde', sans-serif; text-anchor: middle; fill: var(--fg-color)" x="69.784035" y="115.718359" transform="rotate(-0 69.784035 115.718359)">02/2026</text>
     </g>
    </g>
    <g id="xtick_2">
     <g id="line2d_3">
      <path d="M 122.345302 103.4 
L 122.345302 5 
" clip-path="url(#p4cd38cd4ce)" style="fill: none; stroke-dasharray: 2.96,1.28; stroke-dashoffset: 0; stroke: var(--grid-color); stroke-width: 0.8"/>
     </g>
     <g id="line2d_4">
      <g>
       <use xlink:href="#mfede1e9584" x="122.345302" y="103.4" style="fill: var(--fg-color); stroke: var(--fg-color); stroke-width: 0.8"/>
      </g>
     </g>
     <g id="text_2">
      <text style="font-size: 7px; font-family: 'DejaVu Sans', 'Bitstream Vera Sans', 'Computer Modern Sans Serif', 'Lucida Grande', 'Verdana', 'Geneva', 'Lucid', 'Arial', 'Helvetica', 'Avant Garde', sans-serif; text-anchor: middle; fill: var(--fg-color)" x="122.345302" y="115.718359" transform="rotate(-0 122.345302 115.718359)">04/2026</text>
     </g>
    </g>
    <g id="xtick_3">
     <g id="line2d_5">
      <path d="M 176.688307 103.4 
L 176.688307 5 
" clip-path="url(#p4cd38cd4ce)" style="fill: none; stroke-dasharray: 2.96,1.28; stroke-dashoffset: 0; stroke: var(--grid-color); stroke-width: 0.8"/>
     </g>
     <g id="line2d_6">
      <g>
       <use xlink:href="#mfede1e9584" x="176.688307" y="103.4" style="fill: var(--fg-color); stroke: var(--fg-color); stroke-width: 0.8"/>
      </g>
     </g>
     <g id="text_3">
      <text style="font-size: 7px; font-family: 'DejaVu Sans', 'Bitstream Vera Sans', 'Computer Modern Sans Serif', 'Lucida Grande', 'Verdana', 'Geneva', 'Lucid', 'Arial', 'Helvetica', 'Avant Garde', sans-serif; text-anchor: middle; fill: var(--fg-color)" x="176.688307" y="115.718359" transform="rotate(-0 176.688307 115.718359)">06/2026</text>
     </g>
    </g>
   </g>
   <g id="matplotlib.axis_2">
    <g id="ytick_1">
     <g id="line2d_7">
      <path d="M 35.96 86.591496 
L 211 86.591496 
" clip-path="url(#p4cd38cd4ce)" style="fill: none; stroke-dasharray: 2.96,1.28; stroke-dashoffset: 0; stroke: var(--grid-color); stroke-width: 0.8"/>
     </g>
     <g id="line2d_8">
      <defs>
       <path id="md4be636a34" d="M 0 0 
L -3.5 0 
" style="stroke: var(--fg-color); stroke-width: 0.8"/>
      </defs>
      <g>
       <use xlink:href="#md4be636a34" x="35.96" y="86.591496" style="fill: var(--fg-color); stroke: var(--fg-color); stroke-width: 0.8"/>
      </g>
     </g>
     <g id="text_4">
      <text style="font-size: 7px; font-family: 'DejaVu Sans', 'Bitstream Vera Sans', 'Computer Modern Sans Serif', 'Lucida Grande', 'Verdana', 'Geneva', 'Lucid', 'Arial', 'Helvetica', 'Avant Garde', sans-serif; text-anchor: end; fill: var(--fg-color)" x="28.96" y="89.250675" transform="rotate(-0 28.96 89.250675)">100</text>
     </g>
    </g>
    <g id="ytick_2">
     <g id="line2d_9">
      <path d="M 35.96 67.57124 
L 211 67.57124 
" clip-path="url(#p4cd38cd4ce)" style="fill: none; stroke-dasharray: 2.96,1.28; stroke-dashoffset: 0; stroke: var(--grid-color); stroke-width: 0.8"/>
     </g>
     <g id="line2d_10">
      <g>
       <use xlink:href="#md4be636a34" x="35.96" y="67.57124" style="fill: var(--fg-color); stroke: var(--fg-color); stroke-width: 0.8"/>
      </g>
     </g>
     <g id="text_5">
      <text style="font-size: 7px; font-family: 'DejaVu Sans', 'Bitstream Vera Sans', 'Computer Modern Sans Serif', 'Lucida Grande', 'Verdana', 'Geneva', 'Lucid', 'Arial', 'Helvetica', 'Avant Garde', sans-serif; text-anchor: end; fill: var(--fg-color)" x="28.96" y="70.23042" transform="rotate(-0 28.96 70.23042)">150</text>
     </g>
    </g>
    <g id="ytick_3">
     <g id="line2d_11">
      <path d="M 35.96 48.550984 
L 211 48.550984 
" clip-path="url(#p4cd38cd4ce)" style="fill: none; stroke-dasharray: 2.96,1.28; stroke-dashoffset: 0; stroke: var(--grid-color); stroke-width: 0.8"/>
     </g>
     <g id="line2d_12">
      <g>
       <use xlink:href="#md4be636a34" x="35.96" y="48.550984" style="fill: var(--fg-color); stroke: var(--fg-color); stroke-width: 0.8"/>
      </g>
     </g>
     <g id="text_6">
      <text style="font-size: 7px; font-family: 'DejaVu Sans', 'Bitstream Vera Sans', 'Computer Modern Sans Serif', 'Lucida Grande', 'Verdana', 'Geneva', 'Lucid', 'Arial', 'Helvetica', 'Avant Garde', sans-serif; text-anchor: end; fill: var(--fg-color)" x="28.96" y="51.210164" transform="rotate(-0 28.96 51.210164)">200</text>
     </g>
    </g>
    <g id="ytick_4">
     <g id="line2d_13">
      <path d="M 35.96 29.530728 
L 211 29.530728 
" clip-path="url(#p4cd38cd4ce)" style="fill: none; stroke-dasharray: 2.96,1.28; stroke-dashoffset: 0; stroke: var(--grid-color); stroke-width: 0.8"/>
     </g>
     <g id="line2d_14">
      <g>
       <use xlink:href="#md4be636a34" x="35.96" y="29.530728" style="fill: var(--fg-color); stroke: var(--fg-color); stroke-width: 0.8"/>
      </g>
     </g>
     <g id="text_7">
      <text style="font-size: 7px; font-family: 'DejaVu Sans', 'Bitstream Vera Sans', 'Computer Modern Sans Serif', 'Lucida Grande', 'Verdana', 'Geneva', 'Lucid', 'Arial', 'Helvetica', 'Avant Garde', sans-serif; text-anchor: end; fill: var(--fg-color)" x="28.96" y="32.189908" transform="rotate(-0 28.96 32.189908)">250</text>
     </g>
    </g>
    <g id="ytick_5">
     <g id="line2d_15">
      <path d="M 35.96 10.510472 
L 211 10.510472 
" clip-path="url(#p4cd38cd4ce)" style="fill: none; stroke-dasharray: 2.96,1.28; stroke-dashoffset: 0; stroke: var(--grid-color); stroke-width: 0.8"/>
     </g>
     <g id="line2d_16">
      <g>
       <use xlink:href="#md4be636a34" x="35.96" y="10.510472" style="fill: var(--fg-color); stroke: var(--fg-color); stroke-width: 0.8"/>
      </g>
     </g>
     <g id="text_8">
      <text style="font-size: 7px; font-family: 'DejaVu Sans', 'Bitstream Vera Sans', 'Computer Modern Sans Serif', 'Lucida Grande', 'Verdana', 'Geneva', 'Lucid', 'Arial', 'Helvetica', 'Avant Garde', sans-serif; text-anchor: end; fill: var(--fg-color)" x="28.96" y="13.169652" transform="rotate(-0 28.96 13.169652)">300</text>
     </g>
    </g>
    <g id="text_9">
     <text style="font-size: 7px; font-family: 'DejaVu Sans', 'Bitstream Vera Sans', 'Computer Modern Sans Serif', 'Lucida Grande', 'Verdana', 'Geneva', 'Lucid', 'Arial', 'Helvetica', 'Avant Garde', sans-serif; text-anchor: middle; fill: var(--fg-color)" x="9.917109" y="54.2" transform="rotate(-90 9.917109 54.2)">ms</text>
    </g>
   </g>
   <g id="line2d_17">
    <path d="M 43.916364 31.332327 
L 44.468628 33.517754 
L 45.3595 29.178473 
L 46.250371 27.386385 
L 47.141245 26.793713 
L 48.032112 29.902384 
L 49.81384 26.28359 
L 50.704717 30.364576 
L 51.595589 28.044866 
L 52.486458 29.503719 
L 53.377327 26.177457 
L 54.268192 30.472231 
L 55.159063 24.422648 
L 56.049934 33.606008 
L 56.940797 30.148126 
L 57.831669 30.97855 
L 58.722538 30.172852 
L 59.613407 33.459172 
L 60.504275 32.402026 
L 61.395144 27.167652 
L 62.286016 29.357263 
L 63.176879 31.97369 
L 64.067746 30.531574 
L 64.958622 32.540113 
L 65.84949 29.387315 
L 66.740361 34.75293 
L 67.631226 29.757069 
L 68.522078 28.53711 
L 69.412965 23.929263 
L 70.30383 29.375143 
L 71.194705 28.111817 
L 72.085571 29.113043 
L 72.976442 34.782221 
L 73.867306 32.779768 
L 74.758184 36.643543 
L 75.649039 37.258658 
L 76.539914 33.210007 
L 77.430784 33.049095 
L 78.321655 27.64468 
L 79.212509 27.256666 
L 80.103391 24.047949 
L 80.994245 31.713112 
L 81.885129 31.66404 
L 82.775998 30.350501 
L 83.666869 29.337102 
L 84.557735 30.493914 
L 85.44861 32.78129 
L 94.53997 36.163852 
L 95.248438 36.25553 
L 96.139324 37.745577 
L 97.030192 31.75762 
L 97.921065 38.776855 
L 98.811931 34.019889 
L 99.702798 25.517074 
L 100.593666 36.669791 
L 101.484533 29.803859 
L 102.375401 29.96477 
L 103.266272 33.023608 
L 104.157138 33.618562 
L 105.048009 32.694177 
L 105.93888 26.694808 
L 106.829748 32.512344 
L 107.720614 31.463567 
L 108.611487 30.731287 
L 109.502352 31.835983 
L 110.393224 30.879645 
L 111.284094 28.983706 
L 112.17496 23.465549 
L 113.065834 31.632466 
L 113.956695 29.439051 
L 114.847564 30.178939 
L 115.738441 24.8468 
L 116.629309 25.914597 
L 117.520178 26.287014 
L 118.41104 25.784879 
L 120.192782 35.846594 
L 121.083649 26.169088 
L 121.97452 22.367319 
L 125.537994 21.996425 
L 126.428869 32.446914 
L 127.319734 26.430807 
L 128.210603 31.706265 
L 129.101474 29.996724 
L 129.992342 23.732213 
L 130.883214 28.432499 
L 131.774065 24.821313 
L 132.664946 25.189165 
L 133.55582 19.225173 
L 134.446686 29.397206 
L 135.337558 27.568599 
L 136.228424 24.484274 
L 137.119294 29.085654 
L 138.901032 27.502789 
L 139.791912 23.473918 
L 140.68277 21.471085 
L 141.57364 22.037508 
L 142.464507 24.676379 
L 143.355376 26.399614 
L 144.246246 26.342933 
L 145.137113 23.91709 
L 146.027984 26.841264 
L 146.918849 21.647593 
L 173.644977 21.647593 
L 181.959197 26.064477 
L 182.553652 29.819456 
L 183.444521 23.487232 
L 184.335387 22.490571 
L 185.226256 27.286718 
L 186.117131 23.516143 
L 187.007996 25.039665 
L 187.898864 27.362419 
L 188.789731 29.356503 
L 189.680603 27.953949 
L 190.571474 9.472727 
L 191.462343 25.507564 
L 192.353215 27.998456 
L 193.244077 25.576417 
L 194.134949 27.605878 
L 195.025817 26.853437 
L 195.916688 19.177623 
L 196.807557 26.002851 
L 197.698426 27.213681 
L 198.589295 28.954795 
L 199.480162 22.845489 
L 200.371032 29.36335 
L 201.261898 26.697091 
L 202.152766 29.080329 
L 203.043636 29.02555 
L 203.043636 29.02555 
" clip-path="url(#p4cd38cd4ce)" style="fill: none; stroke: #339af0; stroke-width: 1.2; stroke-linecap: square"/>
   </g>
   <g id="line2d_18">
    <path d="M 43.916364 91.494537 
L 44.468628 93.47873 
L 45.3595 92.829379 
L 46.250371 89.820374 
L 47.141245 91.336669 
L 48.032112 95.743662 
L 48.922979 93.548725 
L 49.81384 91.672186 
L 50.704717 93.258476 
L 51.595589 93.563941 
L 52.486458 95.570198 
L 53.377327 93.251248 
L 54.268192 93.0561 
L 55.159063 94.003309 
L 56.049934 91.620071 
L 56.940797 92.585919 
L 57.831669 94.751946 
L 58.722538 92.521631 
L 59.613407 96.917592 
L 61.395144 95.456837 
L 62.286016 93.522477 
L 63.176879 92.989149 
L 64.067746 95.534439 
L 64.958622 95.662256 
L 65.84949 94.35138 
L 66.740361 98.20184 
L 67.631226 93.449059 
L 68.522078 94.195033 
L 69.412965 92.639937 
L 70.30383 95.865392 
L 71.194705 93.592852 
L 72.085571 92.495003 
L 72.976442 93.495088 
L 73.867306 94.219759 
L 74.758184 96.439804 
L 75.649039 96.399481 
L 76.539914 92.834324 
L 77.430784 94.664073 
L 78.321655 96.179987 
L 79.212509 92.549401 
L 80.103391 95.30011 
L 80.994245 93.894513 
L 81.885129 95.533679 
L 82.775998 95.803006 
L 83.666869 94.238019 
L 84.557735 93.717625 
L 85.44861 94.759554 
L 94.53997 97.230666 
L 95.248438 95.960874 
L 96.139324 95.847133 
L 97.030192 93.231847 
L 97.921065 97.927948 
L 98.811931 95.424883 
L 99.702798 94.791889 
L 100.593666 93.038602 
L 101.484533 94.874056 
L 102.375401 94.650758 
L 103.266272 93.926087 
L 104.157138 95.621172 
L 105.048009 94.780477 
L 105.93888 94.609675 
L 106.829748 94.723035 
L 107.720614 95.404721 
L 108.611487 96.358397 
L 109.502352 95.228213 
L 110.393224 95.174957 
L 111.284094 94.835635 
L 112.17496 91.388404 
L 113.065834 92.929806 
L 113.956695 93.939401 
L 114.847564 93.359283 
L 115.738441 94.922368 
L 116.629309 91.035769 
L 117.520178 90.625311 
L 118.41104 94.915901 
L 119.301913 95.643235 
L 120.192782 98.927273 
L 121.083649 91.488831 
L 121.97452 94.370019 
L 125.537994 92.023681 
L 126.428869 96.34242 
L 127.319734 94.017764 
L 128.210603 89.276395 
L 129.101474 96.678318 
L 129.992342 93.989995 
L 130.883214 94.701733 
L 131.774065 89.809723 
L 132.664946 93.598177 
L 133.55582 92.124868 
L 134.446686 93.875873 
L 135.337558 91.087884 
L 136.228424 93.65676 
L 137.119294 93.974779 
L 138.010159 93.492044 
L 138.901032 92.730854 
L 139.791912 93.878536 
L 140.68277 92.132096 
L 141.57364 90.736009 
L 142.464507 92.876549 
L 143.355376 92.6426 
L 144.246246 92.560052 
L 145.137113 92.310506 
L 146.027984 93.652195 
L 146.918849 93.715342 
L 173.644977 93.715342 
L 181.959197 94.106399 
L 182.553652 93.096423 
L 183.444521 91.994389 
L 184.335387 93.586385 
L 185.226256 90.516516 
L 186.117131 88.721764 
L 187.007996 91.565673 
L 187.898864 93.763654 
L 188.789731 94.14558 
L 189.680603 92.072373 
L 190.571474 92.991051 
L 191.462343 91.662296 
L 192.353215 92.412455 
L 193.244077 90.533253 
L 194.134949 89.924605 
L 195.025817 92.537608 
L 195.916688 90.294739 
L 196.807557 94.131886 
L 197.698426 93.934456 
L 198.589295 92.935131 
L 199.480162 90.94295 
L 200.371032 94.328175 
L 201.261898 94.414146 
L 202.152766 92.090252 
L 203.043636 90.365114 
L 203.043636 90.365114 
" clip-path="url(#p4cd38cd4ce)" style="fill: none; stroke: #ff6b6b; stroke-width: 1.2; stroke-linecap: square"/>
   </g>
   <g id="patch_3">
    <path d="M 35.96 103.4 
L 35.96 5 
" style="fill: none; stroke: var(--fg-color); stroke-width: 0.8; stroke-linejoin: miter; stroke-linecap: square"/>
   </g>
   <g id="patch_4">
    <path d="M 35.96 103.4 
L 211 103.4 
" style="fill: none; stroke: var(--fg-color); stroke-width: 0.8; stroke-linejoin: miter; stroke-linecap: square"/>
   </g>
  </g>
 </g>
 <defs>
  <clipPath id="p4cd38cd4ce">
   <rect x="35.96" y="5" width="175.04" height="98.4"/>
  </clipPath>
 </defs>
</svg>
