<?xml version="1.0" encoding="utf-8" standalone="no"?>
<!DOCTYPE svg PUBLIC "-//W3C//DTD SVG 1.1//EN"
  "http://www.w3.org/Graphics/SVG/1.1/DTD/svg11.dtd">
<svg xmlns:xlink="http://www.w3.org/1999/xlink" width="216pt" height="122.4pt" viewBox="0 0 216 122.4" xmlns="http://www.w3.org/2000/svg" version="1.1">
  <style>
    :root {
      --fg-color: #212529;
      --grid-color: rgba(33, 37, 41, 0.1);
    }
    @media (prefers-color-scheme: dark) {
      :root {
        --fg-color: #dee2e6;
        --grid-color: rgba(248, 249, 250, 0.15);
      }
    }
  </style>

 <metadata>
  <rdf:RDF xmlns:dc="http://purl.org/dc/elements/1.1/" xmlns:cc="http://creativecommons.org/ns#" xmlns:rdf="http://www.w3.org/1999/02/22-rdf-syntax-ns#">
   <cc:Work>
    <dc:type rdf:resource="http://purl.org/dc/dcmitype/StillImage"/>
    <dc:date>2026-06-30T15:37:35.522069</dc:date>
    <dc:format>image/svg+xml</dc:format>
    <dc:creator>
     <cc:Agent>
      <dc:title>Matplotlib v3.11.0, https://matplotlib.org/</dc:title>
     </cc:Agent>
    </dc:creator>
   </cc:Work>
  </rdf:RDF>
 </metadata>
 <defs>
  <style type="text/css">*{stroke-linejoin: round; stroke-linecap: butt}</style>
 </defs>
 <g id="figure_1">
  <g id="patch_1">
   <path d="M 0 122.4 
L 216 122.4 
L 216 0 
L 0 0 
L 0 122.4 
z
" style="fill: none; opacity: 0"/>
  </g>
  <g id="axes_1">
   <g id="patch_2">
    <path d="M 35.96 103.4 
L 211 103.4 
L 211 5 
L 35.96 5 
L 35.96 103.4 
z
" style="fill: none; opacity: 0"/>
   </g>
   <g id="matplotlib.axis_1">
    <g id="xtick_1">
     <g id="line2d_1">
      <path d="M 69.784035 103.4 
L 69.784035 5 
" clip-path="url(#pb6b481f5d4)" style="fill: none; stroke-dasharray: 2.96,1.28; stroke-dashoffset: 0; stroke: var(--grid-color); stroke-width: 0.8"/>
     </g>
     <g id="line2d_2">
      <defs>
       <path id="m76d4484a42" d="M 0 0 
L 0 3.5 
" style="stroke: var(--fg-color); stroke-width: 0.8"/>
      </defs>
      <g>
       <use xlink:href="#m76d4484a42" x="69.784035" y="103.4" style="fill: var(--fg-color); stroke: var(--fg-color); stroke-width: 0.8"/>
      </g>
     </g>
     <g id="text_1">
      <text style="font-size: 7px; font-family: 'DejaVu Sans', 'Bitstream Vera Sans', 'Computer Modern Sans Serif', 'Lucida Grande', 'Verdana', 'Geneva', 'Lucid', 'Arial', 'Helvetica', 'Avant Garde', sans-serif; text-anchor: middle; fill: var(--fg-color)" x="69.784035" y="115.718359" transform="rotate(-0 69.784035 115.718359)">02/2026</text>
     </g>
    </g>
    <g id="xtick_2">
     <g id="line2d_3">
      <path d="M 122.345302 103.4 
L 122.345302 5 
" clip-path="url(#pb6b481f5d4)" style="fill: none; stroke-dasharray: 2.96,1.28; stroke-dashoffset: 0; stroke: var(--grid-color); stroke-width: 0.8"/>
     </g>
     <g id="line2d_4">
      <g>
       <use xlink:href="#m76d4484a42" x="122.345302" y="103.4" style="fill: var(--fg-color); stroke: var(--fg-color); stroke-width: 0.8"/>
      </g>
     </g>
     <g id="text_2">
      <text style="font-size: 7px; font-family: 'DejaVu Sans', 'Bitstream Vera Sans', 'Computer Modern Sans Serif', 'Lucida Grande', 'Verdana', 'Geneva', 'Lucid', 'Arial', 'Helvetica', 'Avant Garde', sans-serif; text-anchor: middle; fill: var(--fg-color)" x="122.345302" y="115.718359" transform="rotate(-0 122.345302 115.718359)">04/2026</text>
     </g>
    </g>
    <g id="xtick_3">
     <g id="line2d_5">
      <path d="M 176.688307 103.4 
L 176.688307 5 
" clip-path="url(#pb6b481f5d4)" style="fill: none; stroke-dasharray: 2.96,1.28; stroke-dashoffset: 0; stroke: var(--grid-color); stroke-width: 0.8"/>
     </g>
     <g id="line2d_6">
      <g>
       <use xlink:href="#m76d4484a42" x="176.688307" y="103.4" style="fill: var(--fg-color); stroke: var(--fg-color); stroke-width: 0.8"/>
      </g>
     </g>
     <g id="text_3">
      <text style="font-size: 7px; font-family: 'DejaVu Sans', 'Bitstream Vera Sans', 'Computer Modern Sans Serif', 'Lucida Grande', 'Verdana', 'Geneva', 'Lucid', 'Arial', 'Helvetica', 'Avant Garde', sans-serif; text-anchor: middle; fill: var(--fg-color)" x="176.688307" y="115.718359" transform="rotate(-0 176.688307 115.718359)">06/2026</text>
     </g>
    </g>
   </g>
   <g id="matplotlib.axis_2">
    <g id="ytick_1">
     <g id="line2d_7">
      <path d="M 35.96 100.511991 
L 211 100.511991 
" clip-path="url(#pb6b481f5d4)" style="fill: none; stroke-dasharray: 2.96,1.28; stroke-dashoffset: 0; stroke: var(--grid-color); stroke-width: 0.8"/>
     </g>
     <g id="line2d_8">
      <defs>
       <path id="mde2fc42751" d="M 0 0 
L -3.5 0 
" style="stroke: var(--fg-color); stroke-width: 0.8"/>
      </defs>
      <g>
       <use xlink:href="#mde2fc42751" x="35.96" y="100.511991" style="fill: var(--fg-color); stroke: var(--fg-color); stroke-width: 0.8"/>
      </g>
     </g>
     <g id="text_4">
      <text style="font-size: 7px; font-family: 'DejaVu Sans', 'Bitstream Vera Sans', 'Computer Modern Sans Serif', 'Lucida Grande', 'Verdana', 'Geneva', 'Lucid', 'Arial', 'Helvetica', 'Avant Garde', sans-serif; text-anchor: end; fill: var(--fg-color)" x="28.96" y="103.17117" transform="rotate(-0 28.96 103.17117)">0</text>
     </g>
    </g>
    <g id="ytick_2">
     <g id="line2d_9">
      <path d="M 35.96 78.465276 
L 211 78.465276 
" clip-path="url(#pb6b481f5d4)" style="fill: none; stroke-dasharray: 2.96,1.28; stroke-dashoffset: 0; stroke: var(--grid-color); stroke-width: 0.8"/>
     </g>
     <g id="line2d_10">
      <g>
       <use xlink:href="#mde2fc42751" x="35.96" y="78.465276" style="fill: var(--fg-color); stroke: var(--fg-color); stroke-width: 0.8"/>
      </g>
     </g>
     <g id="text_5">
      <text style="font-size: 7px; font-family: 'DejaVu Sans', 'Bitstream Vera Sans', 'Computer Modern Sans Serif', 'Lucida Grande', 'Verdana', 'Geneva', 'Lucid', 'Arial', 'Helvetica', 'Avant Garde', sans-serif; text-anchor: end; fill: var(--fg-color)" x="28.96" y="81.124455" transform="rotate(-0 28.96 81.124455)">50</text>
     </g>
    </g>
    <g id="ytick_3">
     <g id="line2d_11">
      <path d="M 35.96 56.418561 
L 211 56.418561 
" clip-path="url(#pb6b481f5d4)" style="fill: none; stroke-dasharray: 2.96,1.28; stroke-dashoffset: 0; stroke: var(--grid-color); stroke-width: 0.8"/>
     </g>
     <g id="line2d_12">
      <g>
       <use xlink:href="#mde2fc42751" x="35.96" y="56.418561" style="fill: var(--fg-color); stroke: var(--fg-color); stroke-width: 0.8"/>
      </g>
     </g>
     <g id="text_6">
      <text style="font-size: 7px; font-family: 'DejaVu Sans', 'Bitstream Vera Sans', 'Computer Modern Sans Serif', 'Lucida Grande', 'Verdana', 'Geneva', 'Lucid', 'Arial', 'Helvetica', 'Avant Garde', sans-serif; text-anchor: end; fill: var(--fg-color)" x="28.96" y="59.077741" transform="rotate(-0 28.96 59.077741)">100</text>
     </g>
    </g>
    <g id="ytick_4">
     <g id="line2d_13">
      <path d="M 35.96 34.371846 
L 211 34.371846 
" clip-path="url(#pb6b481f5d4)" style="fill: none; stroke-dasharray: 2.96,1.28; stroke-dashoffset: 0; stroke: var(--grid-color); stroke-width: 0.8"/>
     </g>
     <g id="line2d_14">
      <g>
       <use xlink:href="#mde2fc42751" x="35.96" y="34.371846" style="fill: var(--fg-color); stroke: var(--fg-color); stroke-width: 0.8"/>
      </g>
     </g>
     <g id="text_7">
      <text style="font-size: 7px; font-family: 'DejaVu Sans', 'Bitstream Vera Sans', 'Computer Modern Sans Serif', 'Lucida Grande', 'Verdana', 'Geneva', 'Lucid', 'Arial', 'Helvetica', 'Avant Garde', sans-serif; text-anchor: end; fill: var(--fg-color)" x="28.96" y="37.031026" transform="rotate(-0 28.96 37.031026)">150</text>
     </g>
    </g>
    <g id="ytick_5">
     <g id="line2d_15">
      <path d="M 35.96 12.325131 
L 211 12.325131 
" clip-path="url(#pb6b481f5d4)" style="fill: none; stroke-dasharray: 2.96,1.28; stroke-dashoffset: 0; stroke: var(--grid-color); stroke-width: 0.8"/>
     </g>
     <g id="line2d_16">
      <g>
       <use xlink:href="#mde2fc42751" x="35.96" y="12.325131" style="fill: var(--fg-color); stroke: var(--fg-color); stroke-width: 0.8"/>
      </g>
     </g>
     <g id="text_8">
      <text style="font-size: 7px; font-family: 'DejaVu Sans', 'Bitstream Vera Sans', 'Computer Modern Sans Serif', 'Lucida Grande', 'Verdana', 'Geneva', 'Lucid', 'Arial', 'Helvetica', 'Avant Garde', sans-serif; text-anchor: end; fill: var(--fg-color)" x="28.96" y="14.984311" transform="rotate(-0 28.96 14.984311)">200</text>
     </g>
    </g>
    <g id="text_9">
     <text style="font-size: 7px; font-family: 'DejaVu Sans', 'Bitstream Vera Sans', 'Computer Modern Sans Serif', 'Lucida Grande', 'Verdana', 'Geneva', 'Lucid', 'Arial', 'Helvetica', 'Avant Garde', sans-serif; text-anchor: middle; fill: var(--fg-color)" x="9.917109" y="54.2" transform="rotate(-90 9.917109 54.2)">ms</text>
    </g>
   </g>
   <g id="line2d_17">
    <path d="M 43.916364 43.332954 
L 44.468628 43.823273 
L 45.3595 46.265608 
L 46.250371 45.324213 
L 47.141245 41.723544 
L 48.032112 47.522271 
L 48.922979 45.575546 
L 49.81384 45.943726 
L 50.704717 42.380977 
L 51.595589 45.565404 
L 52.486458 40.583728 
L 53.377327 43.13277 
L 54.268192 41.657403 
L 55.159063 46.996236 
L 56.049934 39.871179 
L 57.831669 47.029747 
L 58.722538 47.671747 
L 59.613407 46.092762 
L 60.504275 47.327378 
L 61.395144 46.038086 
L 62.286016 46.565884 
L 63.176879 46.538546 
L 64.067746 45.529248 
L 64.958622 45.332591 
L 65.84949 9.472727 
L 66.740361 49.904639 
L 67.631226 43.432164 
L 68.522078 46.359527 
L 69.412965 49.977834 
L 70.30383 42.819265 
L 71.194705 46.53546 
L 72.085571 43.550775 
L 72.976442 45.343614 
L 73.867306 46.280159 
L 74.758184 48.237907 
L 75.649039 48.396202 
L 76.539914 44.040653 
L 77.430784 46.320284 
L 78.321655 47.897065 
L 79.212509 47.165114 
L 80.103391 47.415124 
L 80.994245 48.547884 
L 81.885129 44.507603 
L 82.775998 50.759169 
L 83.666869 48.792602 
L 84.557735 50.690824 
L 85.44861 47.482146 
L 94.53997 34.663745 
L 95.248438 30.463845 
L 97.030192 30.999581 
L 97.921065 43.758014 
L 98.811931 44.129281 
L 99.702798 47.897065 
L 100.593666 47.7251 
L 101.484533 45.784548 
L 102.375401 45.731636 
L 103.266272 45.847161 
L 104.157138 47.756407 
L 105.048009 45.86568 
L 105.93888 46.754604 
L 106.829748 49.117571 
L 107.720614 48.430595 
L 108.611487 43.767274 
L 109.502352 46.591458 
L 110.393224 49.013069 
L 111.284094 44.743944 
L 112.17496 52.726177 
L 113.956695 48.106949 
L 114.847564 43.973631 
L 115.738441 43.926451 
L 116.629309 43.485958 
L 117.520178 46.029708 
L 118.41104 42.535304 
L 119.301913 42.842194 
L 120.192782 46.415966 
L 121.083649 44.265089 
L 121.97452 46.635111 
L 125.537994 45.984733 
L 126.428869 44.543318 
L 127.319734 42.226209 
L 128.210603 42.996962 
L 129.101474 49.030707 
L 130.883214 37.649311 
L 131.774065 43.612065 
L 132.664946 44.198949 
L 133.55582 45.706944 
L 134.446686 42.961687 
L 135.337558 44.228491 
L 136.228424 44.534059 
L 137.119294 35.669957 
L 138.010159 44.912821 
L 139.791912 41.72178 
L 141.57364 39.754772 
L 142.464507 40.745551 
L 143.355376 42.555587 
L 144.246246 45.105951 
L 145.137113 40.567414 
L 146.027984 40.625617 
L 146.918849 38.183723 
L 173.644977 38.183723 
L 181.959197 47.057085 
L 182.553652 40.251705 
L 183.444521 48.892253 
L 184.335387 47.140421 
L 185.226256 17.054152 
L 186.117131 45.318922 
L 187.007996 45.032756 
L 187.898864 40.39589 
L 188.789731 45.675638 
L 189.680603 48.581836 
L 190.571474 45.603765 
L 191.462343 46.020889 
L 192.353215 42.144636 
L 193.244077 45.612584 
L 194.134949 46.796493 
L 195.025817 47.263883 
L 195.916688 42.300727 
L 196.807557 44.849327 
L 197.698426 48.022731 
L 198.589295 47.351629 
L 199.480162 46.505917 
L 200.371032 47.208325 
L 201.261898 46.402297 
L 202.152766 49.974747 
L 203.043636 46.877184 
L 203.043636 46.877184 
" clip-path="url(#pb6b481f5d4)" style="fill: none; stroke: #339af0; stroke-width: 1.2; stroke-linecap: square"/>
   </g>
   <g id="line2d_18">
    <path d="M 43.916364 98.496039 
L 44.468628 98.630965 
L 46.250371 98.636697 
L 47.141245 98.626115 
L 48.032112 98.729734 
L 48.922979 98.602745 
L 50.704717 98.678586 
L 51.595589 98.769859 
L 52.486458 98.54851 
L 53.377327 98.654334 
L 54.268192 98.401679 
L 55.159063 98.727089 
L 56.049934 98.533518 
L 58.722538 98.740317 
L 59.613407 98.585108 
L 60.504275 98.754426 
L 61.395144 98.78441 
L 62.286016 98.436513 
L 63.176879 98.720915 
L 64.958622 98.722238 
L 68.522078 98.799402 
L 72.976442 98.769859 
L 73.867306 98.631406 
L 74.758184 98.81748 
L 76.539914 98.613328 
L 78.321655 98.779119 
L 80.103391 98.741198 
L 83.666869 98.88803 
L 85.44861 98.729734 
L 94.53997 98.790142 
L 95.248438 98.659185 
L 96.139324 98.620823 
L 97.030192 98.784851 
L 97.921065 98.665358 
L 103.266272 98.711215 
L 104.157138 98.245588 
L 105.048009 98.613328 
L 105.93888 98.794111 
L 110.393224 98.828063 
L 111.284094 98.60054 
L 112.17496 98.927273 
L 114.847564 98.619942 
L 115.738441 97.411341 
L 116.629309 98.731057 
L 118.41104 98.694459 
L 119.301913 98.575407 
L 120.192782 98.686523 
L 121.97452 98.579376 
L 126.428869 98.684759 
L 127.319734 98.460323 
L 129.101474 98.640665 
L 133.55582 98.455032 
L 134.446686 98.615973 
L 135.337558 98.578494 
L 136.228424 98.727089 
L 138.010159 98.485897 
L 139.791912 98.546305 
L 140.68277 98.230597 
L 144.246246 98.287918 
L 145.137113 98.073183 
L 146.027984 98.217809 
L 146.918849 98.134032 
L 173.644977 98.134032 
L 181.959197 98.300264 
L 182.553652 98.193999 
L 183.444521 98.410057 
L 184.335387 98.361554 
L 185.226256 97.999547 
L 186.117131 98.121245 
L 187.007996 98.368168 
L 187.898864 98.201936 
L 189.680603 98.410939 
L 191.462343 98.192235 
L 192.353215 98.444009 
L 195.025817 98.446654 
L 195.916688 98.313933 
L 196.807557 98.342594 
L 197.698426 98.490307 
L 201.261898 98.3642 
L 202.152766 98.551156 
L 203.043636 98.382719 
L 203.043636 98.382719 
" clip-path="url(#pb6b481f5d4)" style="fill: none; stroke: #ff6b6b; stroke-width: 1.2; stroke-linecap: square"/>
   </g>
   <g id="patch_3">
    <path d="M 35.96 103.4 
L 35.96 5 
" style="fill: none; stroke: var(--fg-color); stroke-width: 0.8; stroke-linejoin: miter; stroke-linecap: square"/>
   </g>
   <g id="patch_4">
    <path d="M 35.96 103.4 
L 211 103.4 
" style="fill: none; stroke: var(--fg-color); stroke-width: 0.8; stroke-linejoin: miter; stroke-linecap: square"/>
   </g>
  </g>
 </g>
 <defs>
  <clipPath id="pb6b481f5d4">
   <rect x="35.96" y="5" width="175.04" height="98.4"/>
  </clipPath>
 </defs>
</svg>
