<?xml version="1.0" encoding="utf-8" standalone="no"?>
<!DOCTYPE svg PUBLIC "-//W3C//DTD SVG 1.1//EN"
  "http://www.w3.org/Graphics/SVG/1.1/DTD/svg11.dtd">
<svg xmlns:xlink="http://www.w3.org/1999/xlink" width="216pt" height="122.4pt" viewBox="0 0 216 122.4" xmlns="http://www.w3.org/2000/svg" version="1.1">
  <style>
    :root {
      --fg-color: #212529;
      --grid-color: rgba(33, 37, 41, 0.1);
    }
    @media (prefers-color-scheme: dark) {
      :root {
        --fg-color: #dee2e6;
        --grid-color: rgba(248, 249, 250, 0.15);
      }
    }
  </style>

 <metadata>
  <rdf:RDF xmlns:dc="http://purl.org/dc/elements/1.1/" xmlns:cc="http://creativecommons.org/ns#" xmlns:rdf="http://www.w3.org/1999/02/22-rdf-syntax-ns#">
   <cc:Work>
    <dc:type rdf:resource="http://purl.org/dc/dcmitype/StillImage"/>
    <dc:date>2026-06-30T15:37:11.700730</dc:date>
    <dc:format>image/svg+xml</dc:format>
    <dc:creator>
     <cc:Agent>
      <dc:title>Matplotlib v3.11.0, https://matplotlib.org/</dc:title>
     </cc:Agent>
    </dc:creator>
   </cc:Work>
  </rdf:RDF>
 </metadata>
 <defs>
  <style type="text/css">*{stroke-linejoin: round; stroke-linecap: butt}</style>
 </defs>
 <g id="figure_1">
  <g id="patch_1">
   <path d="M 0 122.4 
L 216 122.4 
L 216 0 
L 0 0 
L 0 122.4 
z
" style="fill: none; opacity: 0"/>
  </g>
  <g id="axes_1">
   <g id="patch_2">
    <path d="M 35.96 103.4 
L 211 103.4 
L 211 5 
L 35.96 5 
L 35.96 103.4 
z
" style="fill: none; opacity: 0"/>
   </g>
   <g id="matplotlib.axis_1">
    <g id="xtick_1">
     <g id="line2d_1">
      <path d="M 69.784035 103.4 
L 69.784035 5 
" clip-path="url(#pe61ba1fb09)" style="fill: none; stroke-dasharray: 2.96,1.28; stroke-dashoffset: 0; stroke: var(--grid-color); stroke-width: 0.8"/>
     </g>
     <g id="line2d_2">
      <defs>
       <path id="mebcc12337e" d="M 0 0 
L 0 3.5 
" style="stroke: var(--fg-color); stroke-width: 0.8"/>
      </defs>
      <g>
       <use xlink:href="#mebcc12337e" x="69.784035" y="103.4" style="fill: var(--fg-color); stroke: var(--fg-color); stroke-width: 0.8"/>
      </g>
     </g>
     <g id="text_1">
      <text style="font-size: 7px; font-family: 'DejaVu Sans', 'Bitstream Vera Sans', 'Computer Modern Sans Serif', 'Lucida Grande', 'Verdana', 'Geneva', 'Lucid', 'Arial', 'Helvetica', 'Avant Garde', sans-serif; text-anchor: middle; fill: var(--fg-color)" x="69.784035" y="115.718359" transform="rotate(-0 69.784035 115.718359)">02/2026</text>
     </g>
    </g>
    <g id="xtick_2">
     <g id="line2d_3">
      <path d="M 122.345302 103.4 
L 122.345302 5 
" clip-path="url(#pe61ba1fb09)" style="fill: none; stroke-dasharray: 2.96,1.28; stroke-dashoffset: 0; stroke: var(--grid-color); stroke-width: 0.8"/>
     </g>
     <g id="line2d_4">
      <g>
       <use xlink:href="#mebcc12337e" x="122.345302" y="103.4" style="fill: var(--fg-color); stroke: var(--fg-color); stroke-width: 0.8"/>
      </g>
     </g>
     <g id="text_2">
      <text style="font-size: 7px; font-family: 'DejaVu Sans', 'Bitstream Vera Sans', 'Computer Modern Sans Serif', 'Lucida Grande', 'Verdana', 'Geneva', 'Lucid', 'Arial', 'Helvetica', 'Avant Garde', sans-serif; text-anchor: middle; fill: var(--fg-color)" x="122.345302" y="115.718359" transform="rotate(-0 122.345302 115.718359)">04/2026</text>
     </g>
    </g>
    <g id="xtick_3">
     <g id="line2d_5">
      <path d="M 176.688307 103.4 
L 176.688307 5 
" clip-path="url(#pe61ba1fb09)" style="fill: none; stroke-dasharray: 2.96,1.28; stroke-dashoffset: 0; stroke: var(--grid-color); stroke-width: 0.8"/>
     </g>
     <g id="line2d_6">
      <g>
       <use xlink:href="#mebcc12337e" x="176.688307" y="103.4" style="fill: var(--fg-color); stroke: var(--fg-color); stroke-width: 0.8"/>
      </g>
     </g>
     <g id="text_3">
      <text style="font-size: 7px; font-family: 'DejaVu Sans', 'Bitstream Vera Sans', 'Computer Modern Sans Serif', 'Lucida Grande', 'Verdana', 'Geneva', 'Lucid', 'Arial', 'Helvetica', 'Avant Garde', sans-serif; text-anchor: middle; fill: var(--fg-color)" x="176.688307" y="115.718359" transform="rotate(-0 176.688307 115.718359)">06/2026</text>
     </g>
    </g>
   </g>
   <g id="matplotlib.axis_2">
    <g id="ytick_1">
     <g id="line2d_7">
      <path d="M 35.96 99.546286 
L 211 99.546286 
" clip-path="url(#pe61ba1fb09)" style="fill: none; stroke-dasharray: 2.96,1.28; stroke-dashoffset: 0; stroke: var(--grid-color); stroke-width: 0.8"/>
     </g>
     <g id="line2d_8">
      <defs>
       <path id="m8bbce2358a" d="M 0 0 
L -3.5 0 
" style="stroke: var(--fg-color); stroke-width: 0.8"/>
      </defs>
      <g>
       <use xlink:href="#m8bbce2358a" x="35.96" y="99.546286" style="fill: var(--fg-color); stroke: var(--fg-color); stroke-width: 0.8"/>
      </g>
     </g>
     <g id="text_4">
      <text style="font-size: 7px; font-family: 'DejaVu Sans', 'Bitstream Vera Sans', 'Computer Modern Sans Serif', 'Lucida Grande', 'Verdana', 'Geneva', 'Lucid', 'Arial', 'Helvetica', 'Avant Garde', sans-serif; text-anchor: end; fill: var(--fg-color)" x="28.96" y="102.205465" transform="rotate(-0 28.96 102.205465)">0</text>
     </g>
    </g>
    <g id="ytick_2">
     <g id="line2d_9">
      <path d="M 35.96 77.591583 
L 211 77.591583 
" clip-path="url(#pe61ba1fb09)" style="fill: none; stroke-dasharray: 2.96,1.28; stroke-dashoffset: 0; stroke: var(--grid-color); stroke-width: 0.8"/>
     </g>
     <g id="line2d_10">
      <g>
       <use xlink:href="#m8bbce2358a" x="35.96" y="77.591583" style="fill: var(--fg-color); stroke: var(--fg-color); stroke-width: 0.8"/>
      </g>
     </g>
     <g id="text_5">
      <text style="font-size: 7px; font-family: 'DejaVu Sans', 'Bitstream Vera Sans', 'Computer Modern Sans Serif', 'Lucida Grande', 'Verdana', 'Geneva', 'Lucid', 'Arial', 'Helvetica', 'Avant Garde', sans-serif; text-anchor: end; fill: var(--fg-color)" x="28.96" y="80.250763" transform="rotate(-0 28.96 80.250763)">200</text>
     </g>
    </g>
    <g id="ytick_3">
     <g id="line2d_11">
      <path d="M 35.96 55.63688 
L 211 55.63688 
" clip-path="url(#pe61ba1fb09)" style="fill: none; stroke-dasharray: 2.96,1.28; stroke-dashoffset: 0; stroke: var(--grid-color); stroke-width: 0.8"/>
     </g>
     <g id="line2d_12">
      <g>
       <use xlink:href="#m8bbce2358a" x="35.96" y="55.63688" style="fill: var(--fg-color); stroke: var(--fg-color); stroke-width: 0.8"/>
      </g>
     </g>
     <g id="text_6">
      <text style="font-size: 7px; font-family: 'DejaVu Sans', 'Bitstream Vera Sans', 'Computer Modern Sans Serif', 'Lucida Grande', 'Verdana', 'Geneva', 'Lucid', 'Arial', 'Helvetica', 'Avant Garde', sans-serif; text-anchor: end; fill: var(--fg-color)" x="28.96" y="58.29606" transform="rotate(-0 28.96 58.29606)">400</text>
     </g>
    </g>
    <g id="ytick_4">
     <g id="line2d_13">
      <path d="M 35.96 33.682178 
L 211 33.682178 
" clip-path="url(#pe61ba1fb09)" style="fill: none; stroke-dasharray: 2.96,1.28; stroke-dashoffset: 0; stroke: var(--grid-color); stroke-width: 0.8"/>
     </g>
     <g id="line2d_14">
      <g>
       <use xlink:href="#m8bbce2358a" x="35.96" y="33.682178" style="fill: var(--fg-color); stroke: var(--fg-color); stroke-width: 0.8"/>
      </g>
     </g>
     <g id="text_7">
      <text style="font-size: 7px; font-family: 'DejaVu Sans', 'Bitstream Vera Sans', 'Computer Modern Sans Serif', 'Lucida Grande', 'Verdana', 'Geneva', 'Lucid', 'Arial', 'Helvetica', 'Avant Garde', sans-serif; text-anchor: end; fill: var(--fg-color)" x="28.96" y="36.341358" transform="rotate(-0 28.96 36.341358)">600</text>
     </g>
    </g>
    <g id="ytick_5">
     <g id="line2d_15">
      <path d="M 35.96 11.727475 
L 211 11.727475 
" clip-path="url(#pe61ba1fb09)" style="fill: none; stroke-dasharray: 2.96,1.28; stroke-dashoffset: 0; stroke: var(--grid-color); stroke-width: 0.8"/>
     </g>
     <g id="line2d_16">
      <g>
       <use xlink:href="#m8bbce2358a" x="35.96" y="11.727475" style="fill: var(--fg-color); stroke: var(--fg-color); stroke-width: 0.8"/>
      </g>
     </g>
     <g id="text_8">
      <text style="font-size: 7px; font-family: 'DejaVu Sans', 'Bitstream Vera Sans', 'Computer Modern Sans Serif', 'Lucida Grande', 'Verdana', 'Geneva', 'Lucid', 'Arial', 'Helvetica', 'Avant Garde', sans-serif; text-anchor: end; fill: var(--fg-color)" x="28.96" y="14.386655" transform="rotate(-0 28.96 14.386655)">800</text>
     </g>
    </g>
    <g id="text_9">
     <text style="font-size: 7px; font-family: 'DejaVu Sans', 'Bitstream Vera Sans', 'Computer Modern Sans Serif', 'Lucida Grande', 'Verdana', 'Geneva', 'Lucid', 'Arial', 'Helvetica', 'Avant Garde', sans-serif; text-anchor: middle; fill: var(--fg-color)" x="9.917109" y="54.2" transform="rotate(-90 9.917109 54.2)">ms</text>
    </g>
   </g>
   <g id="line2d_17">
    <path d="M 43.916364 47.550634 
L 44.468628 89.196619 
L 45.3595 88.918124 
L 46.250371 89.035691 
L 47.141245 86.739229 
L 48.032112 85.756208 
L 48.922979 88.629639 
L 49.81384 89.192997 
L 50.704717 90.701834 
L 51.595589 87.786908 
L 52.486458 87.666706 
L 53.377327 87.843661 
L 54.268192 89.112533 
L 55.159063 87.890424 
L 56.049934 84.589535 
L 56.940797 88.480347 
L 57.831669 89.757562 
L 58.722538 87.101592 
L 59.613407 88.795726 
L 60.504275 87.49041 
L 61.395144 87.256592 
L 62.286016 87.572959 
L 63.176879 90.056256 
L 64.067746 89.31759 
L 64.958622 87.166907 
L 65.84949 88.688587 
L 66.740361 82.223915 
L 67.631226 88.384515 
L 68.522078 89.086626 
L 69.412965 84.316528 
L 70.30383 88.669706 
L 71.194705 85.292524 
L 72.085571 89.571715 
L 72.976442 86.885009 
L 73.867306 86.255567 
L 74.758184 88.949299 
L 75.649039 88.660485 
L 76.539914 89.7344 
L 77.430784 88.529965 
L 78.321655 88.806923 
L 79.212509 88.636774 
L 80.103391 84.192703 
L 80.994245 89.089919 
L 81.885129 89.45316 
L 82.775998 89.003747 
L 83.666869 87.804252 
L 84.557735 89.47237 
L 85.44861 86.626712 
L 94.53997 86.575118 
L 95.248438 87.944762 
L 96.139324 88.986842 
L 97.030192 88.699784 
L 97.921065 89.727155 
L 98.811931 87.280632 
L 99.702798 87.473943 
L 100.593666 88.567727 
L 101.484533 87.477676 
L 102.375401 87.235955 
L 103.266272 87.641348 
L 104.157138 84.677683 
L 105.048009 87.813144 
L 105.93888 86.449866 
L 106.829748 87.10225 
L 107.720614 88.672451 
L 108.611487 86.615295 
L 109.502352 87.847393 
L 110.393224 87.246163 
L 111.284094 84.9115 
L 112.17496 86.023616 
L 113.065834 87.938395 
L 114.847564 86.376538 
L 115.738441 87.757379 
L 116.629309 86.90389 
L 117.520178 85.089992 
L 118.41104 87.820828 
L 119.301913 85.162223 
L 120.192782 87.248688 
L 121.083649 85.510534 
L 121.97452 86.101665 
L 125.537994 86.940774 
L 126.428869 88.611636 
L 127.319734 87.341118 
L 128.210603 88.748304 
L 129.101474 87.468674 
L 129.992342 85.891339 
L 130.883214 87.839819 
L 131.774065 87.167017 
L 132.664946 87.678012 
L 133.55582 85.307344 
L 134.446686 85.981353 
L 135.337558 84.017285 
L 136.228424 86.013187 
L 137.119294 87.508412 
L 138.010159 87.597 
L 138.901032 86.856797 
L 139.791912 85.208767 
L 140.68277 85.131267 
L 141.57364 88.037082 
L 143.355376 86.16226 
L 144.246246 89.230869 
L 145.137113 87.858041 
L 146.027984 83.894339 
L 146.918849 87.309613 
L 173.644977 87.309613 
L 181.959197 88.006125 
L 182.553652 85.503289 
L 183.444521 87.706663 
L 184.335387 9.472727 
L 185.226256 88.277925 
L 186.117131 24.035611 
L 187.007996 86.59334 
L 187.898864 67.522608 
L 188.789731 88.005138 
L 189.680603 74.062913 
L 190.571474 87.030458 
L 191.462343 87.72752 
L 192.353215 84.485799 
L 193.244077 88.673658 
L 194.134949 86.647129 
L 195.025817 85.877068 
L 195.916688 84.538819 
L 196.807557 86.893461 
L 197.698426 84.181397 
L 198.589295 87.310161 
L 199.480162 86.591694 
L 200.371032 23.918812 
L 201.261898 87.176238 
L 202.152766 88.079235 
L 203.043636 87.409177 
L 203.043636 87.409177 
" clip-path="url(#pe61ba1fb09)" style="fill: none; stroke: #339af0; stroke-width: 1.2; stroke-linecap: square"/>
   </g>
   <g id="line2d_18">
    <path d="M 43.916364 98.086956 
L 44.468628 98.748671 
L 45.3595 98.749001 
L 46.250371 98.61837 
L 47.141245 98.65229 
L 48.032112 98.250958 
L 48.922979 98.753282 
L 49.81384 98.654815 
L 50.704717 98.759539 
L 51.595589 98.532417 
L 52.486458 98.6715 
L 53.377327 98.590488 
L 54.268192 98.785884 
L 55.159063 98.689284 
L 57.831669 98.833197 
L 58.722538 98.34679 
L 63.176879 98.789507 
L 64.067746 98.661072 
L 70.30383 98.671281 
L 71.194705 98.624517 
L 72.085571 98.775346 
L 76.539914 98.803009 
L 77.430784 98.588073 
L 78.321655 98.757563 
L 80.103391 98.432084 
L 80.994245 98.714751 
L 82.775998 98.749989 
L 85.44861 98.606954 
L 94.53997 98.428901 
L 95.248438 98.803338 
L 96.139324 98.55547 
L 97.030192 98.609478 
L 97.921065 98.810364 
L 98.811931 98.703884 
L 99.702798 98.732644 
L 100.593666 98.927273 
L 103.266272 98.837807 
L 106.829748 98.716837 
L 107.720614 98.814426 
L 108.611487 98.633409 
L 109.502352 98.813877 
L 112.17496 98.882705 
L 113.065834 98.757563 
L 113.956695 98.871508 
L 115.738441 98.704323 
L 116.629309 98.845162 
L 117.520178 98.566557 
L 118.41104 98.853944 
L 119.301913 98.667219 
L 121.083649 98.810144 
L 129.992342 98.72035 
L 130.883214 98.887864 
L 132.664946 98.69115 
L 133.55582 98.812999 
L 135.337558 98.770955 
L 136.228424 98.794227 
L 138.901032 98.539443 
L 140.68277 98.727485 
L 142.464507 98.790605 
L 143.355376 98.662719 
L 144.246246 98.858006 
L 146.918849 98.7007 
L 173.644977 98.7007 
L 183.444521 98.790495 
L 184.335387 97.510206 
L 185.226256 98.834514 
L 186.117131 97.658291 
L 187.007996 98.80762 
L 187.898864 97.505816 
L 188.789731 98.791044 
L 189.680603 97.395932 
L 190.571474 98.608051 
L 191.462343 98.817829 
L 194.134949 98.808059 
L 195.025817 98.788848 
L 196.807557 98.54581 
L 197.698426 98.823427 
L 198.589295 98.408154 
L 199.480162 98.630445 
L 200.371032 97.955448 
L 201.261898 98.856249 
L 202.152766 98.872935 
L 203.043636 98.578742 
L 203.043636 98.578742 
" clip-path="url(#pe61ba1fb09)" style="fill: none; stroke: #ff6b6b; stroke-width: 1.2; stroke-linecap: square"/>
   </g>
   <g id="patch_3">
    <path d="M 35.96 103.4 
L 35.96 5 
" style="fill: none; stroke: var(--fg-color); stroke-width: 0.8; stroke-linejoin: miter; stroke-linecap: square"/>
   </g>
   <g id="patch_4">
    <path d="M 35.96 103.4 
L 211 103.4 
" style="fill: none; stroke: var(--fg-color); stroke-width: 0.8; stroke-linejoin: miter; stroke-linecap: square"/>
   </g>
  </g>
 </g>
 <defs>
  <clipPath id="pe61ba1fb09">
   <rect x="35.96" y="5" width="175.04" height="98.4"/>
  </clipPath>
 </defs>
</svg>
