<?xml version="1.0" encoding="utf-8" standalone="no"?>
<!DOCTYPE svg PUBLIC "-//W3C//DTD SVG 1.1//EN"
  "http://www.w3.org/Graphics/SVG/1.1/DTD/svg11.dtd">
<svg xmlns:xlink="http://www.w3.org/1999/xlink" width="216pt" height="122.4pt" viewBox="0 0 216 122.4" xmlns="http://www.w3.org/2000/svg" version="1.1">
  <style>
    :root {
      --fg-color: #212529;
      --grid-color: rgba(33, 37, 41, 0.1);
    }
    @media (prefers-color-scheme: dark) {
      :root {
        --fg-color: #dee2e6;
        --grid-color: rgba(248, 249, 250, 0.15);
      }
    }
  </style>

 <metadata>
  <rdf:RDF xmlns:dc="http://purl.org/dc/elements/1.1/" xmlns:cc="http://creativecommons.org/ns#" xmlns:rdf="http://www.w3.org/1999/02/22-rdf-syntax-ns#">
   <cc:Work>
    <dc:type rdf:resource="http://purl.org/dc/dcmitype/StillImage"/>
    <dc:date>2026-06-30T04:49:25.150354</dc:date>
    <dc:format>image/svg+xml</dc:format>
    <dc:creator>
     <cc:Agent>
      <dc:title>Matplotlib v3.11.0, https://matplotlib.org/</dc:title>
     </cc:Agent>
    </dc:creator>
   </cc:Work>
  </rdf:RDF>
 </metadata>
 <defs>
  <style type="text/css">*{stroke-linejoin: round; stroke-linecap: butt}</style>
 </defs>
 <g id="figure_1">
  <g id="patch_1">
   <path d="M 0 122.4 
L 216 122.4 
L 216 0 
L 0 0 
L 0 122.4 
z
" style="fill: none; opacity: 0"/>
  </g>
  <g id="axes_1">
   <g id="patch_2">
    <path d="M 35.96 103.4 
L 211 103.4 
L 211 6.052067 
L 35.96 6.052067 
L 35.96 103.4 
z
" style="fill: none; opacity: 0"/>
   </g>
   <g id="matplotlib.axis_1">
    <g id="xtick_1">
     <g id="line2d_1">
      <path d="M 72.056377 103.4 
L 72.056377 6.052067 
" clip-path="url(#p550c9450c3)" style="fill: none; stroke-dasharray: 2.96,1.28; stroke-dashoffset: 0; stroke: var(--grid-color); stroke-width: 0.8"/>
     </g>
     <g id="line2d_2">
      <defs>
       <path id="m6d6dc052ab" d="M 0 0 
L 0 3.5 
" style="stroke: var(--fg-color); stroke-width: 0.8"/>
      </defs>
      <g>
       <use xlink:href="#m6d6dc052ab" x="72.056377" y="103.4" style="fill: var(--fg-color); stroke: var(--fg-color); stroke-width: 0.8"/>
      </g>
     </g>
     <g id="text_1">
      <text style="font-size: 7px; font-family: 'DejaVu Sans', 'Bitstream Vera Sans', 'Computer Modern Sans Serif', 'Lucida Grande', 'Verdana', 'Geneva', 'Lucid', 'Arial', 'Helvetica', 'Avant Garde', sans-serif; text-anchor: middle; fill: var(--fg-color)" x="72.056377" y="115.718359" transform="rotate(-0 72.056377 115.718359)">02/2026</text>
     </g>
    </g>
    <g id="xtick_2">
     <g id="line2d_3">
      <path d="M 126.640628 103.4 
L 126.640628 6.052067 
" clip-path="url(#p550c9450c3)" style="fill: none; stroke-dasharray: 2.96,1.28; stroke-dashoffset: 0; stroke: var(--grid-color); stroke-width: 0.8"/>
     </g>
     <g id="line2d_4">
      <g>
       <use xlink:href="#m6d6dc052ab" x="126.640628" y="103.4" style="fill: var(--fg-color); stroke: var(--fg-color); stroke-width: 0.8"/>
      </g>
     </g>
     <g id="text_2">
      <text style="font-size: 7px; font-family: 'DejaVu Sans', 'Bitstream Vera Sans', 'Computer Modern Sans Serif', 'Lucida Grande', 'Verdana', 'Geneva', 'Lucid', 'Arial', 'Helvetica', 'Avant Garde', sans-serif; text-anchor: middle; fill: var(--fg-color)" x="126.640628" y="115.718359" transform="rotate(-0 126.640628 115.718359)">04/2026</text>
     </g>
    </g>
    <g id="xtick_3">
     <g id="line2d_5">
      <path d="M 183.075192 103.4 
L 183.075192 6.052067 
" clip-path="url(#p550c9450c3)" style="fill: none; stroke-dasharray: 2.96,1.28; stroke-dashoffset: 0; stroke: var(--grid-color); stroke-width: 0.8"/>
     </g>
     <g id="line2d_6">
      <g>
       <use xlink:href="#m6d6dc052ab" x="183.075192" y="103.4" style="fill: var(--fg-color); stroke: var(--fg-color); stroke-width: 0.8"/>
      </g>
     </g>
     <g id="text_3">
      <text style="font-size: 7px; font-family: 'DejaVu Sans', 'Bitstream Vera Sans', 'Computer Modern Sans Serif', 'Lucida Grande', 'Verdana', 'Geneva', 'Lucid', 'Arial', 'Helvetica', 'Avant Garde', sans-serif; text-anchor: middle; fill: var(--fg-color)" x="183.075192" y="115.718359" transform="rotate(-0 183.075192 115.718359)">06/2026</text>
     </g>
    </g>
   </g>
   <g id="matplotlib.axis_2">
    <g id="ytick_1">
     <g id="line2d_7">
      <path d="M 35.96 101.400501 
L 211 101.400501 
" clip-path="url(#p550c9450c3)" style="fill: none; stroke-dasharray: 2.96,1.28; stroke-dashoffset: 0; stroke: var(--grid-color); stroke-width: 0.8"/>
     </g>
     <g id="line2d_8">
      <defs>
       <path id="m042641cd88" d="M 0 0 
L -3.5 0 
" style="stroke: var(--fg-color); stroke-width: 0.8"/>
      </defs>
      <g>
       <use xlink:href="#m042641cd88" x="35.96" y="101.400501" style="fill: var(--fg-color); stroke: var(--fg-color); stroke-width: 0.8"/>
      </g>
     </g>
     <g id="text_4">
      <text style="font-size: 7px; font-family: 'DejaVu Sans', 'Bitstream Vera Sans', 'Computer Modern Sans Serif', 'Lucida Grande', 'Verdana', 'Geneva', 'Lucid', 'Arial', 'Helvetica', 'Avant Garde', sans-serif; text-anchor: end; fill: var(--fg-color)" x="28.96" y="104.059681" transform="rotate(-0 28.96 104.059681)">25</text>
     </g>
    </g>
    <g id="ytick_2">
     <g id="line2d_9">
      <path d="M 35.96 82.662809 
L 211 82.662809 
" clip-path="url(#p550c9450c3)" style="fill: none; stroke-dasharray: 2.96,1.28; stroke-dashoffset: 0; stroke: var(--grid-color); stroke-width: 0.8"/>
     </g>
     <g id="line2d_10">
      <g>
       <use xlink:href="#m042641cd88" x="35.96" y="82.662809" style="fill: var(--fg-color); stroke: var(--fg-color); stroke-width: 0.8"/>
      </g>
     </g>
     <g id="text_5">
      <text style="font-size: 7px; font-family: 'DejaVu Sans', 'Bitstream Vera Sans', 'Computer Modern Sans Serif', 'Lucida Grande', 'Verdana', 'Geneva', 'Lucid', 'Arial', 'Helvetica', 'Avant Garde', sans-serif; text-anchor: end; fill: var(--fg-color)" x="28.96" y="85.321988" transform="rotate(-0 28.96 85.321988)">50</text>
     </g>
    </g>
    <g id="ytick_3">
     <g id="line2d_11">
      <path d="M 35.96 63.925116 
L 211 63.925116 
" clip-path="url(#p550c9450c3)" style="fill: none; stroke-dasharray: 2.96,1.28; stroke-dashoffset: 0; stroke: var(--grid-color); stroke-width: 0.8"/>
     </g>
     <g id="line2d_12">
      <g>
       <use xlink:href="#m042641cd88" x="35.96" y="63.925116" style="fill: var(--fg-color); stroke: var(--fg-color); stroke-width: 0.8"/>
      </g>
     </g>
     <g id="text_6">
      <text style="font-size: 7px; font-family: 'DejaVu Sans', 'Bitstream Vera Sans', 'Computer Modern Sans Serif', 'Lucida Grande', 'Verdana', 'Geneva', 'Lucid', 'Arial', 'Helvetica', 'Avant Garde', sans-serif; text-anchor: end; fill: var(--fg-color)" x="28.96" y="66.584296" transform="rotate(-0 28.96 66.584296)">75</text>
     </g>
    </g>
    <g id="ytick_4">
     <g id="line2d_13">
      <path d="M 35.96 45.187424 
L 211 45.187424 
" clip-path="url(#p550c9450c3)" style="fill: none; stroke-dasharray: 2.96,1.28; stroke-dashoffset: 0; stroke: var(--grid-color); stroke-width: 0.8"/>
     </g>
     <g id="line2d_14">
      <g>
       <use xlink:href="#m042641cd88" x="35.96" y="45.187424" style="fill: var(--fg-color); stroke: var(--fg-color); stroke-width: 0.8"/>
      </g>
     </g>
     <g id="text_7">
      <text style="font-size: 7px; font-family: 'DejaVu Sans', 'Bitstream Vera Sans', 'Computer Modern Sans Serif', 'Lucida Grande', 'Verdana', 'Geneva', 'Lucid', 'Arial', 'Helvetica', 'Avant Garde', sans-serif; text-anchor: end; fill: var(--fg-color)" x="28.96" y="47.846604" transform="rotate(-0 28.96 47.846604)">100</text>
     </g>
    </g>
    <g id="ytick_5">
     <g id="line2d_15">
      <path d="M 35.96 26.449732 
L 211 26.449732 
" clip-path="url(#p550c9450c3)" style="fill: none; stroke-dasharray: 2.96,1.28; stroke-dashoffset: 0; stroke: var(--grid-color); stroke-width: 0.8"/>
     </g>
     <g id="line2d_16">
      <g>
       <use xlink:href="#m042641cd88" x="35.96" y="26.449732" style="fill: var(--fg-color); stroke: var(--fg-color); stroke-width: 0.8"/>
      </g>
     </g>
     <g id="text_8">
      <text style="font-size: 7px; font-family: 'DejaVu Sans', 'Bitstream Vera Sans', 'Computer Modern Sans Serif', 'Lucida Grande', 'Verdana', 'Geneva', 'Lucid', 'Arial', 'Helvetica', 'Avant Garde', sans-serif; text-anchor: end; fill: var(--fg-color)" x="28.96" y="29.108912" transform="rotate(-0 28.96 29.108912)">125</text>
     </g>
    </g>
    <g id="ytick_6">
     <g id="line2d_17">
      <path d="M 35.96 7.71204 
L 211 7.71204 
" clip-path="url(#p550c9450c3)" style="fill: none; stroke-dasharray: 2.96,1.28; stroke-dashoffset: 0; stroke: var(--grid-color); stroke-width: 0.8"/>
     </g>
     <g id="line2d_18">
      <g>
       <use xlink:href="#m042641cd88" x="35.96" y="7.71204" style="fill: var(--fg-color); stroke: var(--fg-color); stroke-width: 0.8"/>
      </g>
     </g>
     <g id="text_9">
      <text style="font-size: 7px; font-family: 'DejaVu Sans', 'Bitstream Vera Sans', 'Computer Modern Sans Serif', 'Lucida Grande', 'Verdana', 'Geneva', 'Lucid', 'Arial', 'Helvetica', 'Avant Garde', sans-serif; text-anchor: end; fill: var(--fg-color)" x="28.96" y="10.371219" transform="rotate(-0 28.96 10.371219)">150</text>
     </g>
    </g>
    <g id="text_10">
     <text style="font-size: 7px; font-family: 'DejaVu Sans', 'Bitstream Vera Sans', 'Computer Modern Sans Serif', 'Lucida Grande', 'Verdana', 'Geneva', 'Lucid', 'Arial', 'Helvetica', 'Avant Garde', sans-serif; text-anchor: middle; fill: var(--fg-color)" x="9.917109" y="54.726034" transform="rotate(-90 9.917109 54.726034)">ms</text>
    </g>
   </g>
   <g id="line2d_19">
    <path d="M 43.916364 88.926444 
L 45.193108 85.200642 
L 45.766628 93.280335 
L 46.691788 86.929756 
L 47.616947 83.066044 
L 48.542109 83.784822 
L 49.467263 85.969637 
L 50.392418 96.192921 
L 51.317566 94.347633 
L 52.242732 94.738877 
L 53.167891 95.241796 
L 54.093049 93.812485 
L 55.018206 93.870947 
L 55.943359 94.254695 
L 56.868517 93.142425 
L 57.793676 89.646721 
L 58.718827 93.096705 
L 59.643987 93.975128 
L 60.569143 83.268411 
L 61.494301 91.272403 
L 62.419457 93.794497 
L 63.344613 74.639329 
L 64.269773 85.044744 
L 65.194924 86.185495 
L 66.120079 86.57299 
L 67.045243 71.597077 
L 67.970398 89.902303 
L 68.895557 89.279462 
L 69.82071 88.601158 
L 70.74585 86.803089 
L 71.671025 93.685069 
L 72.596178 93.988619 
L 73.521341 83.378588 
L 74.446495 90.153388 
L 75.371653 94.572486 
L 76.296805 91.040806 
L 77.221971 85.496697 
L 78.147114 72.81053 
L 79.072277 93.586134 
L 79.997435 82.590106 
L 80.922594 84.672239 
L 81.847735 85.123442 
L 82.772905 69.077982 
L 83.698046 89.981751 
L 84.623219 76.198305 
L 85.548376 81.85334 
L 86.473535 86.677921 
L 87.398688 74.885167 
L 88.323852 78.784856 
L 97.76512 98.687283 
L 98.500856 93.411498 
L 99.426031 98.975094 
L 100.351186 90.238832 
L 101.276348 94.59722 
L 102.201502 92.25276 
L 103.126656 93.346291 
L 104.051812 83.364348 
L 104.976967 84.13709 
L 105.902123 95.684006 
L 106.827282 88.938436 
L 107.752435 96.737064 
L 108.677594 82.673302 
L 109.602753 96.689096 
L 110.527909 80.265134 
L 111.453063 88.59741 
L 112.378223 95.655524 
L 113.303377 89.676702 
L 114.228537 89.775637 
L 115.153695 93.413747 
L 116.078848 96.390042 
L 117.004011 88.098238 
L 117.929158 96.694342 
L 118.854316 97.454343 
L 119.779481 95.721481 
L 120.704637 97.313435 
L 121.629794 91.683134 
L 122.554943 75.959961 
L 123.480104 95.130869 
L 124.405261 97.438603 
L 125.330416 84.588294 
L 126.255574 80.705844 
L 129.9562 77.237872 
L 130.881363 91.675639 
L 131.806516 93.51493 
L 132.731673 83.114762 
L 133.656831 79.260793 
L 134.581987 77.131442 
L 135.507147 71.328753 
L 136.432285 86.303167 
L 137.357455 77.518188 
L 138.282617 69.185911 
L 139.20777 86.812083 
L 140.13293 77.721304 
L 141.058084 88.36956 
L 141.983242 74.442958 
L 142.908395 93.535167 
L 143.833556 75.938975 
L 144.758724 88.961671 
L 145.683869 62.398369 
L 146.609028 47.977841 
L 147.534182 58.520416 
L 148.459339 79.561346 
L 149.384497 73.332187 
L 150.309651 83.312632 
L 151.234811 75.467535 
L 152.159963 89.134808 
L 179.91473 89.134808 
L 188.548948 65.098845 
L 189.166282 77.173414 
L 190.091439 58.557892 
L 191.016594 68.752695 
L 191.94175 65.131074 
L 192.866913 73.368164 
L 193.792066 74.481183 
L 194.717222 79.99606 
L 195.642377 93.338047 
L 196.567536 83.200206 
L 197.492695 10.476973 
L 198.417852 69.930921 
L 199.343013 72.65763 
L 200.268162 59.86953 
L 201.193322 61.425508 
L 202.118478 84.756184 
L 203.043636 61.1332 
" clip-path="url(#p550c9450c3)" style="fill: none; stroke: #339af0; stroke-width: 1.2; stroke-linecap: square"/>
   </g>
   <g id="line2d_20">
    <path d="M 43.916364 77.991877 
L 45.193108 76.422408 
L 45.766628 79.954837 
L 46.691788 78.431088 
L 47.616947 77.642606 
L 48.542109 75.730612 
L 49.467263 78.715152 
L 50.392418 79.060675 
L 51.317566 81.04687 
L 52.242732 83.048056 
L 53.167891 80.640637 
L 54.093049 81.327186 
L 55.018206 78.129037 
L 55.943359 81.215509 
L 56.868517 79.026197 
L 57.793676 78.467814 
L 58.718827 80.778546 
L 59.643987 80.556692 
L 60.569143 79.26529 
L 61.494301 81.011643 
L 62.419457 78.072074 
L 63.344613 77.204894 
L 64.269773 78.42809 
L 65.194924 78.970734 
L 66.120079 81.035627 
L 67.045243 78.594481 
L 67.970398 78.674678 
L 68.895557 77.934914 
L 69.82071 81.404385 
L 70.74585 82.623085 
L 71.671025 78.811089 
L 72.596178 78.96099 
L 73.521341 77.482211 
L 74.446495 79.290774 
L 75.371653 82.572868 
L 76.296805 79.635547 
L 77.221971 79.968328 
L 78.147114 80.665371 
L 79.072277 78.227222 
L 79.997435 76.369193 
L 80.922594 83.204703 
L 81.847735 80.98541 
L 82.772905 77.542922 
L 83.698046 81.48908 
L 84.623219 77.211639 
L 85.548376 79.010458 
L 86.473535 81.170539 
L 87.398688 78.665684 
L 88.323852 76.885603 
L 97.76512 80.648132 
L 98.500856 78.233218 
L 99.426031 81.755904 
L 100.351186 79.093653 
L 101.276348 81.070854 
L 102.201502 78.585487 
L 103.126656 81.080598 
L 104.051812 81.089592 
L 104.976967 77.19515 
L 105.902123 77.603632 
L 106.827282 79.110892 
L 107.752435 77.945407 
L 108.677594 79.03744 
L 109.602753 76.453887 
L 110.527909 78.345644 
L 111.453063 78.177755 
L 112.378223 75.26142 
L 113.303377 76.993532 
L 114.228537 78.128287 
L 115.153695 82.596102 
L 116.078848 80.648881 
L 117.004011 80.869986 
L 117.929158 81.19977 
L 118.854316 78.348642 
L 119.779481 76.95231 
L 120.704637 78.130536 
L 121.629794 75.478777 
L 122.554943 75.723117 
L 123.480104 80.038782 
L 124.405261 80.846751 
L 125.330416 79.173101 
L 126.255574 76.878858 
L 129.9562 81.140558 
L 130.881363 80.968172 
L 131.806516 79.460912 
L 132.731673 80.010301 
L 133.656831 76.9673 
L 134.581987 76.166076 
L 135.507147 75.858028 
L 136.432285 77.764026 
L 137.357455 79.898624 
L 138.282617 75.958462 
L 139.20777 76.121855 
L 140.13293 77.321067 
L 141.058084 80.920953 
L 141.983242 77.922922 
L 142.908395 78.396611 
L 143.833556 79.96533 
L 144.758724 75.861026 
L 145.683869 77.66734 
L 146.609028 74.971361 
L 147.534182 70.819838 
L 148.459339 77.155426 
L 149.384497 76.649508 
L 150.309651 74.299802 
L 151.234811 75.39933 
L 152.159963 72.709346 
L 179.91473 72.709346 
L 188.548948 73.066862 
L 189.166282 77.425249 
L 190.091439 73.28197 
L 191.016594 67.60445 
L 191.94175 71.913369 
L 192.866913 73.826862 
L 193.792066 73.294712 
L 194.717222 72.7798 
L 195.642377 75.582959 
L 196.567536 75.514754 
L 197.492695 74.534398 
L 198.417852 70.823585 
L 199.343013 71.66903 
L 200.268162 71.433684 
L 201.193322 73.40489 
L 202.118478 76.416412 
L 203.043636 72.36907 
" clip-path="url(#p550c9450c3)" style="fill: none; stroke: #ff6b6b; stroke-width: 1.2; stroke-linecap: square"/>
   </g>
   <g id="patch_3">
    <path d="M 35.96 103.4 
L 35.96 6.052067 
" style="fill: none; stroke: var(--fg-color); stroke-width: 0.8; stroke-linejoin: miter; stroke-linecap: square"/>
   </g>
   <g id="patch_4">
    <path d="M 35.96 103.4 
L 211 103.4 
" style="fill: none; stroke: var(--fg-color); stroke-width: 0.8; stroke-linejoin: miter; stroke-linecap: square"/>
   </g>
  </g>
 </g>
 <defs>
  <clipPath id="p550c9450c3">
   <rect x="35.96" y="6.052067" width="175.04" height="97.347933"/>
  </clipPath>
 </defs>
</svg>
