<?xml version="1.0" encoding="utf-8" standalone="no"?>
<!DOCTYPE svg PUBLIC "-//W3C//DTD SVG 1.1//EN"
  "http://www.w3.org/Graphics/SVG/1.1/DTD/svg11.dtd">
<svg xmlns:xlink="http://www.w3.org/1999/xlink" width="216pt" height="122.4pt" viewBox="0 0 216 122.4" xmlns="http://www.w3.org/2000/svg" version="1.1">
  <style>
    :root {
      --fg-color: #212529;
      --grid-color: rgba(33, 37, 41, 0.1);
    }
    @media (prefers-color-scheme: dark) {
      :root {
        --fg-color: #dee2e6;
        --grid-color: rgba(248, 249, 250, 0.15);
      }
    }
  </style>

 <metadata>
  <rdf:RDF xmlns:dc="http://purl.org/dc/elements/1.1/" xmlns:cc="http://creativecommons.org/ns#" xmlns:rdf="http://www.w3.org/1999/02/22-rdf-syntax-ns#">
   <cc:Work>
    <dc:type rdf:resource="http://purl.org/dc/dcmitype/StillImage"/>
    <dc:date>2026-06-30T15:37:26.455632</dc:date>
    <dc:format>image/svg+xml</dc:format>
    <dc:creator>
     <cc:Agent>
      <dc:title>Matplotlib v3.11.0, https://matplotlib.org/</dc:title>
     </cc:Agent>
    </dc:creator>
   </cc:Work>
  </rdf:RDF>
 </metadata>
 <defs>
  <style type="text/css">*{stroke-linejoin: round; stroke-linecap: butt}</style>
 </defs>
 <g id="figure_1">
  <g id="patch_1">
   <path d="M 0 122.4 
L 216 122.4 
L 216 0 
L 0 0 
L 0 122.4 
z
" style="fill: none; opacity: 0"/>
  </g>
  <g id="axes_1">
   <g id="patch_2">
    <path d="M 31.64 103.4 
L 211 103.4 
L 211 5 
L 31.64 5 
L 31.64 103.4 
z
" style="fill: none; opacity: 0"/>
   </g>
   <g id="matplotlib.axis_1">
    <g id="xtick_1">
     <g id="line2d_1">
      <path d="M 66.298815 103.4 
L 66.298815 5 
" clip-path="url(#p77a3f9f142)" style="fill: none; stroke-dasharray: 2.96,1.28; stroke-dashoffset: 0; stroke: var(--grid-color); stroke-width: 0.8"/>
     </g>
     <g id="line2d_2">
      <defs>
       <path id="m9a99e3520d" d="M 0 0 
L 0 3.5 
" style="stroke: var(--fg-color); stroke-width: 0.8"/>
      </defs>
      <g>
       <use xlink:href="#m9a99e3520d" x="66.298815" y="103.4" style="fill: var(--fg-color); stroke: var(--fg-color); stroke-width: 0.8"/>
      </g>
     </g>
     <g id="text_1">
      <text style="font-size: 7px; font-family: 'DejaVu Sans', 'Bitstream Vera Sans', 'Computer Modern Sans Serif', 'Lucida Grande', 'Verdana', 'Geneva', 'Lucid', 'Arial', 'Helvetica', 'Avant Garde', sans-serif; text-anchor: middle; fill: var(--fg-color)" x="66.298815" y="115.718359" transform="rotate(-0 66.298815 115.718359)">02/2026</text>
     </g>
    </g>
    <g id="xtick_2">
     <g id="line2d_3">
      <path d="M 120.157298 103.4 
L 120.157298 5 
" clip-path="url(#p77a3f9f142)" style="fill: none; stroke-dasharray: 2.96,1.28; stroke-dashoffset: 0; stroke: var(--grid-color); stroke-width: 0.8"/>
     </g>
     <g id="line2d_4">
      <g>
       <use xlink:href="#m9a99e3520d" x="120.157298" y="103.4" style="fill: var(--fg-color); stroke: var(--fg-color); stroke-width: 0.8"/>
      </g>
     </g>
     <g id="text_2">
      <text style="font-size: 7px; font-family: 'DejaVu Sans', 'Bitstream Vera Sans', 'Computer Modern Sans Serif', 'Lucida Grande', 'Verdana', 'Geneva', 'Lucid', 'Arial', 'Helvetica', 'Avant Garde', sans-serif; text-anchor: middle; fill: var(--fg-color)" x="120.157298" y="115.718359" transform="rotate(-0 120.157298 115.718359)">04/2026</text>
     </g>
    </g>
    <g id="xtick_3">
     <g id="line2d_5">
      <path d="M 175.841492 103.4 
L 175.841492 5 
" clip-path="url(#p77a3f9f142)" style="fill: none; stroke-dasharray: 2.96,1.28; stroke-dashoffset: 0; stroke: var(--grid-color); stroke-width: 0.8"/>
     </g>
     <g id="line2d_6">
      <g>
       <use xlink:href="#m9a99e3520d" x="175.841492" y="103.4" style="fill: var(--fg-color); stroke: var(--fg-color); stroke-width: 0.8"/>
      </g>
     </g>
     <g id="text_3">
      <text style="font-size: 7px; font-family: 'DejaVu Sans', 'Bitstream Vera Sans', 'Computer Modern Sans Serif', 'Lucida Grande', 'Verdana', 'Geneva', 'Lucid', 'Arial', 'Helvetica', 'Avant Garde', sans-serif; text-anchor: middle; fill: var(--fg-color)" x="175.841492" y="115.718359" transform="rotate(-0 175.841492 115.718359)">06/2026</text>
     </g>
    </g>
   </g>
   <g id="matplotlib.axis_2">
    <g id="ytick_1">
     <g id="line2d_7">
      <path d="M 31.64 100.855967 
L 211 100.855967 
" clip-path="url(#p77a3f9f142)" style="fill: none; stroke-dasharray: 2.96,1.28; stroke-dashoffset: 0; stroke: var(--grid-color); stroke-width: 0.8"/>
     </g>
     <g id="line2d_8">
      <defs>
       <path id="m743272e7e0" d="M 0 0 
L -3.5 0 
" style="stroke: var(--fg-color); stroke-width: 0.8"/>
      </defs>
      <g>
       <use xlink:href="#m743272e7e0" x="31.64" y="100.855967" style="fill: var(--fg-color); stroke: var(--fg-color); stroke-width: 0.8"/>
      </g>
     </g>
     <g id="text_4">
      <text style="font-size: 7px; font-family: 'DejaVu Sans', 'Bitstream Vera Sans', 'Computer Modern Sans Serif', 'Lucida Grande', 'Verdana', 'Geneva', 'Lucid', 'Arial', 'Helvetica', 'Avant Garde', sans-serif; text-anchor: end; fill: var(--fg-color)" x="24.64" y="103.515147" transform="rotate(-0 24.64 103.515147)">0</text>
     </g>
    </g>
    <g id="ytick_2">
     <g id="line2d_9">
      <path d="M 31.64 74.142751 
L 211 74.142751 
" clip-path="url(#p77a3f9f142)" style="fill: none; stroke-dasharray: 2.96,1.28; stroke-dashoffset: 0; stroke: var(--grid-color); stroke-width: 0.8"/>
     </g>
     <g id="line2d_10">
      <g>
       <use xlink:href="#m743272e7e0" x="31.64" y="74.142751" style="fill: var(--fg-color); stroke: var(--fg-color); stroke-width: 0.8"/>
      </g>
     </g>
     <g id="text_5">
      <text style="font-size: 7px; font-family: 'DejaVu Sans', 'Bitstream Vera Sans', 'Computer Modern Sans Serif', 'Lucida Grande', 'Verdana', 'Geneva', 'Lucid', 'Arial', 'Helvetica', 'Avant Garde', sans-serif; text-anchor: end; fill: var(--fg-color)" x="24.64" y="76.801931" transform="rotate(-0 24.64 76.801931)">20</text>
     </g>
    </g>
    <g id="ytick_3">
     <g id="line2d_11">
      <path d="M 31.64 47.429535 
L 211 47.429535 
" clip-path="url(#p77a3f9f142)" style="fill: none; stroke-dasharray: 2.96,1.28; stroke-dashoffset: 0; stroke: var(--grid-color); stroke-width: 0.8"/>
     </g>
     <g id="line2d_12">
      <g>
       <use xlink:href="#m743272e7e0" x="31.64" y="47.429535" style="fill: var(--fg-color); stroke: var(--fg-color); stroke-width: 0.8"/>
      </g>
     </g>
     <g id="text_6">
      <text style="font-size: 7px; font-family: 'DejaVu Sans', 'Bitstream Vera Sans', 'Computer Modern Sans Serif', 'Lucida Grande', 'Verdana', 'Geneva', 'Lucid', 'Arial', 'Helvetica', 'Avant Garde', sans-serif; text-anchor: end; fill: var(--fg-color)" x="24.64" y="50.088715" transform="rotate(-0 24.64 50.088715)">40</text>
     </g>
    </g>
    <g id="ytick_4">
     <g id="line2d_13">
      <path d="M 31.64 20.71632 
L 211 20.71632 
" clip-path="url(#p77a3f9f142)" style="fill: none; stroke-dasharray: 2.96,1.28; stroke-dashoffset: 0; stroke: var(--grid-color); stroke-width: 0.8"/>
     </g>
     <g id="line2d_14">
      <g>
       <use xlink:href="#m743272e7e0" x="31.64" y="20.71632" style="fill: var(--fg-color); stroke: var(--fg-color); stroke-width: 0.8"/>
      </g>
     </g>
     <g id="text_7">
      <text style="font-size: 7px; font-family: 'DejaVu Sans', 'Bitstream Vera Sans', 'Computer Modern Sans Serif', 'Lucida Grande', 'Verdana', 'Geneva', 'Lucid', 'Arial', 'Helvetica', 'Avant Garde', sans-serif; text-anchor: end; fill: var(--fg-color)" x="24.64" y="23.375499" transform="rotate(-0 24.64 23.375499)">60</text>
     </g>
    </g>
    <g id="text_8">
     <text style="font-size: 7px; font-family: 'DejaVu Sans', 'Bitstream Vera Sans', 'Computer Modern Sans Serif', 'Lucida Grande', 'Verdana', 'Geneva', 'Lucid', 'Arial', 'Helvetica', 'Avant Garde', sans-serif; text-anchor: middle; fill: var(--fg-color)" x="10.050859" y="54.2" transform="rotate(-90 10.050859 54.2)">ms</text>
    </g>
   </g>
   <g id="line2d_15">
    <path d="M 39.792727 41.070454 
L 40.358622 41.744963 
L 41.271481 38.290944 
L 42.184338 38.922712 
L 43.097199 43.504028 
L 44.010052 45.054731 
L 45.835753 36.459753 
L 46.748617 43.290323 
L 47.661476 34.983848 
L 48.574332 41.130559 
L 49.487188 42.054836 
L 50.40004 36.804354 
L 51.312897 37.891582 
L 52.225755 46.808453 
L 53.138604 43.354434 
L 54.051463 36.343551 
L 54.964319 37.839491 
L 55.877175 45.813386 
L 57.702885 35.814629 
L 58.615744 31.917171 
L 59.528593 41.770341 
L 60.441447 39.383515 
L 61.35431 40.269058 
L 62.267165 31.56055 
L 63.180022 46.172679 
L 64.092874 40.168883 
L 65.005713 35.868056 
L 65.918587 40.166212 
L 66.831438 38.129329 
L 67.7443 38.648901 
L 68.657153 39.772192 
L 69.57001 42.380738 
L 70.482861 43.037883 
L 71.395726 38.871957 
L 72.308567 43.777839 
L 73.221429 43.813902 
L 74.134286 38.022477 
L 75.047144 41.261454 
L 75.959984 33.975424 
L 76.872853 42.424815 
L 77.785693 35.555511 
L 78.698564 33.22879 
L 79.61142 45.150898 
L 80.524278 40.019289 
L 81.43713 39.412899 
L 82.349993 24.763372 
L 91.665728 29.769429 
L 92.391681 29.892309 
L 93.304554 28.644802 
L 94.217409 28.289516 
L 95.130269 28.830459 
L 96.043122 18.455046 
L 96.955975 29.147011 
L 97.868829 19.419393 
L 98.781684 23.721557 
L 99.694538 29.447534 
L 100.607396 28.388355 
L 101.520248 19.944308 
L 102.433106 30.951488 
L 103.345963 28.807753 
L 105.171671 28.366985 
L 106.084531 20.855228 
L 106.997383 25.027833 
L 107.910242 27.858098 
L 108.823098 24.671211 
L 109.735951 19.699882 
L 110.648812 20.585425 
L 111.561659 28.274824 
L 112.474515 28.400376 
L 113.387379 17.538783 
L 114.300233 33.75504 
L 115.213089 27.135506 
L 116.125938 22.532818 
L 117.038797 30.144749 
L 117.951653 24.060814 
L 118.864507 22.718475 
L 119.777364 22.144141 
L 123.428785 29.829533 
L 124.341647 27.271743 
L 125.254499 21.098319 
L 126.167355 31.118446 
L 127.080212 12.59016 
L 127.993067 24.104891 
L 128.905926 20.07921 
L 129.818763 29.191087 
L 130.731631 19.379323 
L 131.644492 21.780841 
L 132.557344 26.599906 
L 133.470203 22.520797 
L 134.383056 16.195108 
L 135.295912 20.744369 
L 136.208765 19.953657 
L 137.121624 11.394743 
L 138.034491 21.99054 
L 138.947335 23.267432 
L 139.860192 13.844345 
L 140.773046 22.009239 
L 141.685902 22.332469 
L 142.598758 24.830155 
L 143.511612 15.326928 
L 144.42447 18.273396 
L 145.337321 15.571354 
L 172.723053 15.571354 
L 181.242468 27.545553 
L 181.851594 21.004822 
L 182.764449 17.9889 
L 183.677303 19.285827 
L 184.590158 28.401712 
L 185.503019 20.170035 
L 186.415872 24.477541 
L 187.328726 27.143519 
L 188.24158 17.353126 
L 189.154439 25.132014 
L 190.067296 17.362476 
L 190.980152 31.451025 
L 191.893011 27.106121 
L 192.80586 28.675522 
L 193.718718 30.494692 
L 194.631573 23.700186 
L 195.544431 20.178048 
L 197.370142 28.241433 
L 198.282997 22.930845 
L 199.195852 22.805293 
L 200.108708 24.888924 
L 201.021561 26.120403 
L 201.934415 9.472727 
L 202.847273 31.961248 
L 202.847273 31.961248 
" clip-path="url(#p77a3f9f142)" style="fill: none; stroke: #339af0; stroke-width: 1.2; stroke-linecap: square"/>
   </g>
   <g id="line2d_16">
    <path d="M 39.792727 98.688189 
L 40.358622 98.692196 
L 41.271481 98.479826 
L 44.010052 98.795042 
L 47.661476 98.662812 
L 48.574332 98.720245 
L 50.40004 98.621406 
L 51.312897 98.642777 
L 52.225755 98.889874 
L 54.051463 98.641441 
L 54.964319 98.64812 
L 55.877175 98.775007 
L 56.79003 98.596029 
L 57.702885 98.684182 
L 58.615744 98.632092 
L 59.528593 98.772336 
L 61.35431 98.752301 
L 62.267165 98.5987 
L 63.180022 98.823091 
L 64.092874 98.660141 
L 65.005713 98.7897 
L 67.7443 98.702882 
L 68.657153 98.787028 
L 69.57001 98.62942 
L 70.482861 98.737609 
L 72.308567 98.604043 
L 73.221429 98.81107 
L 75.047144 98.724252 
L 76.872853 98.793707 
L 78.698564 98.443764 
L 79.61142 98.797714 
L 82.349993 98.791035 
L 91.665728 98.716238 
L 92.391681 98.887203 
L 98.781684 98.817749 
L 99.694538 98.89121 
L 101.520248 98.657469 
L 104.258819 98.865832 
L 105.171671 98.876518 
L 106.084531 98.768329 
L 106.997383 98.843126 
L 107.910242 98.753637 
L 108.823098 98.88186 
L 110.648812 98.726924 
L 112.474515 98.844462 
L 113.387379 98.563973 
L 114.300233 98.873846 
L 115.213089 98.927273 
L 116.125938 98.653462 
L 117.951653 98.644113 
L 118.864507 98.239407 
L 119.777364 98.555959 
L 123.428785 98.693532 
L 124.341647 98.473148 
L 126.167355 98.670826 
L 127.080212 98.490512 
L 127.993067 98.454449 
L 128.905926 98.582672 
L 129.818763 98.427736 
L 130.731631 98.624078 
L 131.644492 98.610721 
L 132.557344 98.403694 
L 133.470203 98.53726 
L 134.383056 98.320883 
L 135.295912 98.569316 
L 136.208765 98.358281 
L 138.034491 98.479826 
L 138.947335 97.986968 
L 139.860192 98.477155 
L 140.773046 98.196666 
L 141.685902 98.511882 
L 142.598758 98.521232 
L 143.511612 98.127212 
L 144.42447 98.485169 
L 145.337321 98.352939 
L 172.723053 98.352939 
L 181.242468 98.674833 
L 182.764449 98.068443 
L 183.677303 98.734938 
L 185.503019 98.613392 
L 186.415872 98.89121 
L 187.328726 98.74963 
L 188.24158 98.239407 
L 189.154439 98.730931 
L 190.067296 98.64812 
L 191.893011 98.819084 
L 192.80586 98.634763 
L 193.718718 98.748294 
L 196.457286 98.620071 
L 197.370142 98.817749 
L 198.282997 98.569316 
L 201.021561 98.766993 
L 201.934415 98.561302 
L 202.847273 98.753637 
L 202.847273 98.753637 
" clip-path="url(#p77a3f9f142)" style="fill: none; stroke: #ff6b6b; stroke-width: 1.2; stroke-linecap: square"/>
   </g>
   <g id="patch_3">
    <path d="M 31.64 103.4 
L 31.64 5 
" style="fill: none; stroke: var(--fg-color); stroke-width: 0.8; stroke-linejoin: miter; stroke-linecap: square"/>
   </g>
   <g id="patch_4">
    <path d="M 31.64 103.4 
L 211 103.4 
" style="fill: none; stroke: var(--fg-color); stroke-width: 0.8; stroke-linejoin: miter; stroke-linecap: square"/>
   </g>
  </g>
 </g>
 <defs>
  <clipPath id="p77a3f9f142">
   <rect x="31.64" y="5" width="179.36" height="98.4"/>
  </clipPath>
 </defs>
</svg>
