<?xml version="1.0" encoding="utf-8" standalone="no"?>
<!DOCTYPE svg PUBLIC "-//W3C//DTD SVG 1.1//EN"
  "http://www.w3.org/Graphics/SVG/1.1/DTD/svg11.dtd">
<svg xmlns:xlink="http://www.w3.org/1999/xlink" width="216pt" height="122.4pt" viewBox="0 0 216 122.4" xmlns="http://www.w3.org/2000/svg" version="1.1">
  <style>
    :root {
      --fg-color: #212529;
      --grid-color: rgba(33, 37, 41, 0.1);
    }
    @media (prefers-color-scheme: dark) {
      :root {
        --fg-color: #dee2e6;
        --grid-color: rgba(248, 249, 250, 0.15);
      }
    }
  </style>

 <metadata>
  <rdf:RDF xmlns:dc="http://purl.org/dc/elements/1.1/" xmlns:cc="http://creativecommons.org/ns#" xmlns:rdf="http://www.w3.org/1999/02/22-rdf-syntax-ns#">
   <cc:Work>
    <dc:type rdf:resource="http://purl.org/dc/dcmitype/StillImage"/>
    <dc:date>2026-06-30T15:38:09.556803</dc:date>
    <dc:format>image/svg+xml</dc:format>
    <dc:creator>
     <cc:Agent>
      <dc:title>Matplotlib v3.11.0, https://matplotlib.org/</dc:title>
     </cc:Agent>
    </dc:creator>
   </cc:Work>
  </rdf:RDF>
 </metadata>
 <defs>
  <style type="text/css">*{stroke-linejoin: round; stroke-linecap: butt}</style>
 </defs>
 <g id="figure_1">
  <g id="patch_1">
   <path d="M 0 122.4 
L 216 122.4 
L 216 0 
L 0 0 
L 0 122.4 
z
" style="fill: none; opacity: 0"/>
  </g>
  <g id="axes_1">
   <g id="patch_2">
    <path d="M 35.96 103.4 
L 211 103.4 
L 211 5 
L 35.96 5 
L 35.96 103.4 
z
" style="fill: none; opacity: 0"/>
   </g>
   <g id="matplotlib.axis_1">
    <g id="xtick_1">
     <g id="line2d_1">
      <path d="M 69.784035 103.4 
L 69.784035 5 
" clip-path="url(#p9c756342bf)" style="fill: none; stroke-dasharray: 2.96,1.28; stroke-dashoffset: 0; stroke: var(--grid-color); stroke-width: 0.8"/>
     </g>
     <g id="line2d_2">
      <defs>
       <path id="m49930d6ef7" d="M 0 0 
L 0 3.5 
" style="stroke: var(--fg-color); stroke-width: 0.8"/>
      </defs>
      <g>
       <use xlink:href="#m49930d6ef7" x="69.784035" y="103.4" style="fill: var(--fg-color); stroke: var(--fg-color); stroke-width: 0.8"/>
      </g>
     </g>
     <g id="text_1">
      <text style="font-size: 7px; font-family: 'DejaVu Sans', 'Bitstream Vera Sans', 'Computer Modern Sans Serif', 'Lucida Grande', 'Verdana', 'Geneva', 'Lucid', 'Arial', 'Helvetica', 'Avant Garde', sans-serif; text-anchor: middle; fill: var(--fg-color)" x="69.784035" y="115.718359" transform="rotate(-0 69.784035 115.718359)">02/2026</text>
     </g>
    </g>
    <g id="xtick_2">
     <g id="line2d_3">
      <path d="M 122.345302 103.4 
L 122.345302 5 
" clip-path="url(#p9c756342bf)" style="fill: none; stroke-dasharray: 2.96,1.28; stroke-dashoffset: 0; stroke: var(--grid-color); stroke-width: 0.8"/>
     </g>
     <g id="line2d_4">
      <g>
       <use xlink:href="#m49930d6ef7" x="122.345302" y="103.4" style="fill: var(--fg-color); stroke: var(--fg-color); stroke-width: 0.8"/>
      </g>
     </g>
     <g id="text_2">
      <text style="font-size: 7px; font-family: 'DejaVu Sans', 'Bitstream Vera Sans', 'Computer Modern Sans Serif', 'Lucida Grande', 'Verdana', 'Geneva', 'Lucid', 'Arial', 'Helvetica', 'Avant Garde', sans-serif; text-anchor: middle; fill: var(--fg-color)" x="122.345302" y="115.718359" transform="rotate(-0 122.345302 115.718359)">04/2026</text>
     </g>
    </g>
    <g id="xtick_3">
     <g id="line2d_5">
      <path d="M 176.688307 103.4 
L 176.688307 5 
" clip-path="url(#p9c756342bf)" style="fill: none; stroke-dasharray: 2.96,1.28; stroke-dashoffset: 0; stroke: var(--grid-color); stroke-width: 0.8"/>
     </g>
     <g id="line2d_6">
      <g>
       <use xlink:href="#m49930d6ef7" x="176.688307" y="103.4" style="fill: var(--fg-color); stroke: var(--fg-color); stroke-width: 0.8"/>
      </g>
     </g>
     <g id="text_3">
      <text style="font-size: 7px; font-family: 'DejaVu Sans', 'Bitstream Vera Sans', 'Computer Modern Sans Serif', 'Lucida Grande', 'Verdana', 'Geneva', 'Lucid', 'Arial', 'Helvetica', 'Avant Garde', sans-serif; text-anchor: middle; fill: var(--fg-color)" x="176.688307" y="115.718359" transform="rotate(-0 176.688307 115.718359)">06/2026</text>
     </g>
    </g>
   </g>
   <g id="matplotlib.axis_2">
    <g id="ytick_1">
     <g id="line2d_7">
      <path d="M 35.96 99.748082 
L 211 99.748082 
" clip-path="url(#p9c756342bf)" style="fill: none; stroke-dasharray: 2.96,1.28; stroke-dashoffset: 0; stroke: var(--grid-color); stroke-width: 0.8"/>
     </g>
     <g id="line2d_8">
      <defs>
       <path id="m5f1197201b" d="M 0 0 
L -3.5 0 
" style="stroke: var(--fg-color); stroke-width: 0.8"/>
      </defs>
      <g>
       <use xlink:href="#m5f1197201b" x="35.96" y="99.748082" style="fill: var(--fg-color); stroke: var(--fg-color); stroke-width: 0.8"/>
      </g>
     </g>
     <g id="text_4">
      <text style="font-size: 7px; font-family: 'DejaVu Sans', 'Bitstream Vera Sans', 'Computer Modern Sans Serif', 'Lucida Grande', 'Verdana', 'Geneva', 'Lucid', 'Arial', 'Helvetica', 'Avant Garde', sans-serif; text-anchor: end; fill: var(--fg-color)" x="28.96" y="102.407262" transform="rotate(-0 28.96 102.407262)">0</text>
     </g>
    </g>
    <g id="ytick_2">
     <g id="line2d_9">
      <path d="M 35.96 82.239353 
L 211 82.239353 
" clip-path="url(#p9c756342bf)" style="fill: none; stroke-dasharray: 2.96,1.28; stroke-dashoffset: 0; stroke: var(--grid-color); stroke-width: 0.8"/>
     </g>
     <g id="line2d_10">
      <g>
       <use xlink:href="#m5f1197201b" x="35.96" y="82.239353" style="fill: var(--fg-color); stroke: var(--fg-color); stroke-width: 0.8"/>
      </g>
     </g>
     <g id="text_5">
      <text style="font-size: 7px; font-family: 'DejaVu Sans', 'Bitstream Vera Sans', 'Computer Modern Sans Serif', 'Lucida Grande', 'Verdana', 'Geneva', 'Lucid', 'Arial', 'Helvetica', 'Avant Garde', sans-serif; text-anchor: end; fill: var(--fg-color)" x="28.96" y="84.898533" transform="rotate(-0 28.96 84.898533)">100</text>
     </g>
    </g>
    <g id="ytick_3">
     <g id="line2d_11">
      <path d="M 35.96 64.730625 
L 211 64.730625 
" clip-path="url(#p9c756342bf)" style="fill: none; stroke-dasharray: 2.96,1.28; stroke-dashoffset: 0; stroke: var(--grid-color); stroke-width: 0.8"/>
     </g>
     <g id="line2d_12">
      <g>
       <use xlink:href="#m5f1197201b" x="35.96" y="64.730625" style="fill: var(--fg-color); stroke: var(--fg-color); stroke-width: 0.8"/>
      </g>
     </g>
     <g id="text_6">
      <text style="font-size: 7px; font-family: 'DejaVu Sans', 'Bitstream Vera Sans', 'Computer Modern Sans Serif', 'Lucida Grande', 'Verdana', 'Geneva', 'Lucid', 'Arial', 'Helvetica', 'Avant Garde', sans-serif; text-anchor: end; fill: var(--fg-color)" x="28.96" y="67.389804" transform="rotate(-0 28.96 67.389804)">200</text>
     </g>
    </g>
    <g id="ytick_4">
     <g id="line2d_13">
      <path d="M 35.96 47.221896 
L 211 47.221896 
" clip-path="url(#p9c756342bf)" style="fill: none; stroke-dasharray: 2.96,1.28; stroke-dashoffset: 0; stroke: var(--grid-color); stroke-width: 0.8"/>
     </g>
     <g id="line2d_14">
      <g>
       <use xlink:href="#m5f1197201b" x="35.96" y="47.221896" style="fill: var(--fg-color); stroke: var(--fg-color); stroke-width: 0.8"/>
      </g>
     </g>
     <g id="text_7">
      <text style="font-size: 7px; font-family: 'DejaVu Sans', 'Bitstream Vera Sans', 'Computer Modern Sans Serif', 'Lucida Grande', 'Verdana', 'Geneva', 'Lucid', 'Arial', 'Helvetica', 'Avant Garde', sans-serif; text-anchor: end; fill: var(--fg-color)" x="28.96" y="49.881076" transform="rotate(-0 28.96 49.881076)">300</text>
     </g>
    </g>
    <g id="ytick_5">
     <g id="line2d_15">
      <path d="M 35.96 29.713168 
L 211 29.713168 
" clip-path="url(#p9c756342bf)" style="fill: none; stroke-dasharray: 2.96,1.28; stroke-dashoffset: 0; stroke: var(--grid-color); stroke-width: 0.8"/>
     </g>
     <g id="line2d_16">
      <g>
       <use xlink:href="#m5f1197201b" x="35.96" y="29.713168" style="fill: var(--fg-color); stroke: var(--fg-color); stroke-width: 0.8"/>
      </g>
     </g>
     <g id="text_8">
      <text style="font-size: 7px; font-family: 'DejaVu Sans', 'Bitstream Vera Sans', 'Computer Modern Sans Serif', 'Lucida Grande', 'Verdana', 'Geneva', 'Lucid', 'Arial', 'Helvetica', 'Avant Garde', sans-serif; text-anchor: end; fill: var(--fg-color)" x="28.96" y="32.372347" transform="rotate(-0 28.96 32.372347)">400</text>
     </g>
    </g>
    <g id="ytick_6">
     <g id="line2d_17">
      <path d="M 35.96 12.204439 
L 211 12.204439 
" clip-path="url(#p9c756342bf)" style="fill: none; stroke-dasharray: 2.96,1.28; stroke-dashoffset: 0; stroke: var(--grid-color); stroke-width: 0.8"/>
     </g>
     <g id="line2d_18">
      <g>
       <use xlink:href="#m5f1197201b" x="35.96" y="12.204439" style="fill: var(--fg-color); stroke: var(--fg-color); stroke-width: 0.8"/>
      </g>
     </g>
     <g id="text_9">
      <text style="font-size: 7px; font-family: 'DejaVu Sans', 'Bitstream Vera Sans', 'Computer Modern Sans Serif', 'Lucida Grande', 'Verdana', 'Geneva', 'Lucid', 'Arial', 'Helvetica', 'Avant Garde', sans-serif; text-anchor: end; fill: var(--fg-color)" x="28.96" y="14.863619" transform="rotate(-0 28.96 14.863619)">500</text>
     </g>
    </g>
    <g id="text_10">
     <text style="font-size: 7px; font-family: 'DejaVu Sans', 'Bitstream Vera Sans', 'Computer Modern Sans Serif', 'Lucida Grande', 'Verdana', 'Geneva', 'Lucid', 'Arial', 'Helvetica', 'Avant Garde', sans-serif; text-anchor: middle; fill: var(--fg-color)" x="9.917109" y="54.2" transform="rotate(-90 9.917109 54.2)">ms</text>
    </g>
   </g>
   <g id="line2d_19">
    <path d="M 43.916364 83.653884 
L 44.468628 83.070143 
L 45.3595 85.036898 
L 46.250371 82.930598 
L 47.141245 83.384774 
L 48.032112 81.064518 
L 48.922979 83.916339 
L 49.81384 82.815215 
L 50.704717 84.084073 
L 51.595589 82.157588 
L 52.486458 82.799107 
L 53.377327 79.40399 
L 54.268192 79.317322 
L 55.159063 82.433525 
L 56.049934 81.54023 
L 56.940797 82.261589 
L 57.831669 84.442652 
L 58.722538 81.89128 
L 59.613407 83.86819 
L 60.504275 70.812632 
L 61.395144 83.811987 
L 62.286016 81.267619 
L 63.176879 81.66034 
L 64.067746 82.971218 
L 64.958622 82.450684 
L 65.84949 84.205408 
L 66.740361 82.584976 
L 67.631226 82.578673 
L 68.522078 81.447784 
L 69.412965 82.375221 
L 70.30383 84.773392 
L 71.194705 80.851261 
L 72.085571 80.596159 
L 72.976442 69.944024 
L 73.867306 81.615868 
L 74.758184 82.26194 
L 75.649039 84.212062 
L 76.539914 83.000108 
L 77.430784 84.674117 
L 78.321655 80.529101 
L 79.212509 82.591979 
L 80.103391 82.860388 
L 80.994245 85.481094 
L 81.885129 73.720306 
L 82.775998 85.137048 
L 83.666869 81.099185 
L 84.557735 82.496732 
L 85.44861 85.082246 
L 94.53997 84.967213 
L 95.248438 84.461736 
L 96.139324 83.174495 
L 97.030192 84.104558 
L 97.921065 82.283125 
L 98.811931 81.762941 
L 99.702798 82.270169 
L 100.593666 83.422418 
L 101.484533 85.888698 
L 102.375401 84.205584 
L 103.266272 81.109515 
L 104.157138 82.292755 
L 105.048009 81.628824 
L 105.93888 83.086776 
L 106.829748 81.886202 
L 107.720614 82.560463 
L 108.611487 81.847158 
L 109.502352 82.047283 
L 110.393224 79.422724 
L 111.284094 80.853537 
L 112.17496 78.485832 
L 113.065834 67.924742 
L 113.956695 70.095124 
L 114.847564 82.966141 
L 115.738441 84.686899 
L 116.629309 82.916591 
L 117.520178 84.427944 
L 118.41104 78.257168 
L 119.301913 80.738855 
L 120.192782 82.481849 
L 121.083649 83.900932 
L 121.97452 83.327696 
L 125.537994 81.334677 
L 126.428869 80.34631 
L 127.319734 82.238128 
L 128.210603 80.722222 
L 129.101474 81.656138 
L 129.992342 79.502914 
L 130.883214 80.867544 
L 131.774065 80.375199 
L 132.664946 84.655033 
L 133.55582 77.274928 
L 134.446686 82.34388 
L 135.337558 83.560562 
L 136.228424 81.46967 
L 137.119294 81.184102 
L 138.010159 82.361564 
L 138.901032 66.991002 
L 139.791912 81.042807 
L 140.68277 83.980071 
L 141.57364 81.692381 
L 142.464507 67.420141 
L 143.355376 83.332949 
L 144.246246 84.483447 
L 145.137113 81.573496 
L 146.027984 84.433897 
L 146.918849 82.232 
L 173.644977 82.232 
L 181.959197 24.068529 
L 182.553652 83.925619 
L 183.444521 76.505245 
L 184.335387 9.472727 
L 185.226256 83.99723 
L 186.117131 80.482002 
L 187.007996 78.879954 
L 187.898864 82.530699 
L 188.789731 84.862686 
L 189.680603 83.458311 
L 190.571474 83.986199 
L 191.462343 63.36617 
L 192.353215 80.659891 
L 193.244077 82.50321 
L 194.134949 80.93898 
L 195.025817 84.015964 
L 195.916688 74.619905 
L 196.807557 77.968624 
L 197.698426 25.119403 
L 198.589295 82.445256 
L 199.480162 77.343738 
L 200.371032 79.990007 
L 201.261898 79.639132 
L 202.152766 84.607234 
L 203.043636 72.956751 
L 203.043636 72.956751 
" clip-path="url(#p9c756342bf)" style="fill: none; stroke: #339af0; stroke-width: 1.2; stroke-linecap: square"/>
   </g>
   <g id="line2d_20">
    <path d="M 43.916364 97.880951 
L 44.468628 98.809439 
L 45.3595 98.385027 
L 46.250371 98.126073 
L 47.141245 98.320945 
L 48.032112 97.696584 
L 48.922979 98.419169 
L 49.81384 97.673298 
L 50.704717 98.848133 
L 51.595589 97.942757 
L 52.486458 97.80759 
L 53.377327 98.656413 
L 54.268192 98.167744 
L 55.159063 97.193208 
L 56.049934 98.260015 
L 56.940797 97.582602 
L 57.831669 98.362966 
L 58.722538 97.556865 
L 59.613407 98.498834 
L 60.504275 98.534027 
L 61.395144 98.074948 
L 62.286016 98.19961 
L 63.176879 98.644682 
L 64.067746 98.686703 
L 64.958622 98.185078 
L 65.84949 98.453487 
L 66.740361 97.912817 
L 67.631226 97.943457 
L 68.522078 98.180701 
L 71.194705 97.875874 
L 72.085571 98.497258 
L 72.976442 98.74098 
L 73.867306 97.953787 
L 74.758184 98.328824 
L 77.430784 97.788855 
L 78.321655 98.211341 
L 79.212509 97.907739 
L 80.103391 98.105938 
L 80.994245 98.036254 
L 81.885129 97.221923 
L 82.775998 98.59986 
L 83.666869 97.971646 
L 84.557735 97.507665 
L 85.44861 97.537605 
L 94.53997 98.585502 
L 96.139324 97.746309 
L 97.030192 98.008415 
L 97.921065 98.00964 
L 98.811931 97.797785 
L 99.702798 98.526848 
L 101.484533 98.927273 
L 102.375401 98.228674 
L 103.266272 97.943107 
L 104.157138 97.843307 
L 105.048009 98.484652 
L 105.93888 98.332501 
L 106.829748 98.3796 
L 107.720614 97.95974 
L 109.502352 98.462416 
L 110.393224 98.15864 
L 111.284094 98.042732 
L 112.17496 98.277174 
L 113.065834 98.25984 
L 113.956695 98.037654 
L 114.847564 98.528774 
L 115.738441 98.646958 
L 116.629309 98.381876 
L 117.520178 98.497609 
L 118.41104 97.685028 
L 119.301913 97.916494 
L 120.192782 98.483251 
L 121.97452 98.195058 
L 125.537994 97.696059 
L 126.428869 98.14971 
L 127.319734 98.174748 
L 128.210603 97.909315 
L 129.101474 98.101911 
L 129.992342 98.055163 
L 130.883214 98.571846 
L 131.774065 97.940656 
L 132.664946 98.608264 
L 133.55582 98.191556 
L 134.446686 98.616318 
L 135.337558 98.436328 
L 136.228424 97.58768 
L 137.119294 98.720495 
L 138.010159 98.826773 
L 138.901032 97.922797 
L 139.791912 97.649486 
L 140.68277 98.698434 
L 141.57364 97.631977 
L 142.464507 96.806791 
L 143.355376 98.139905 
L 144.246246 98.657988 
L 145.137113 97.963242 
L 146.027984 98.789129 
L 146.918849 98.023122 
L 173.644977 98.023122 
L 181.959197 95.842585 
L 182.553652 98.562391 
L 183.444521 98.030651 
L 184.335387 96.288357 
L 185.226256 98.160566 
L 186.117131 98.235853 
L 187.007996 97.613243 
L 187.898864 98.082477 
L 188.789731 98.394132 
L 189.680603 98.357013 
L 190.571474 97.832627 
L 192.353215 97.52675 
L 193.244077 98.202061 
L 194.134949 98.595132 
L 195.025817 97.750336 
L 195.916688 97.350086 
L 196.807557 97.806364 
L 197.698426 97.275149 
L 198.589295 98.506713 
L 199.480162 97.692382 
L 200.371032 98.618419 
L 201.261898 98.773721 
L 202.152766 98.684952 
L 203.043636 97.902662 
L 203.043636 97.902662 
" clip-path="url(#p9c756342bf)" style="fill: none; stroke: #ff6b6b; stroke-width: 1.2; stroke-linecap: square"/>
   </g>
   <g id="patch_3">
    <path d="M 35.96 103.4 
L 35.96 5 
" style="fill: none; stroke: var(--fg-color); stroke-width: 0.8; stroke-linejoin: miter; stroke-linecap: square"/>
   </g>
   <g id="patch_4">
    <path d="M 35.96 103.4 
L 211 103.4 
" style="fill: none; stroke: var(--fg-color); stroke-width: 0.8; stroke-linejoin: miter; stroke-linecap: square"/>
   </g>
  </g>
 </g>
 <defs>
  <clipPath id="p9c756342bf">
   <rect x="35.96" y="5" width="175.04" height="98.4"/>
  </clipPath>
 </defs>
</svg>
