<?xml version="1.0" encoding="utf-8" standalone="no"?>
<!DOCTYPE svg PUBLIC "-//W3C//DTD SVG 1.1//EN"
  "http://www.w3.org/Graphics/SVG/1.1/DTD/svg11.dtd">
<svg xmlns:xlink="http://www.w3.org/1999/xlink" width="216pt" height="122.4pt" viewBox="0 0 216 122.4" xmlns="http://www.w3.org/2000/svg" version="1.1">
  <style>
    :root {
      --fg-color: #212529;
      --grid-color: rgba(33, 37, 41, 0.1);
    }
    @media (prefers-color-scheme: dark) {
      :root {
        --fg-color: #dee2e6;
        --grid-color: rgba(248, 249, 250, 0.15);
      }
    }
  </style>

 <metadata>
  <rdf:RDF xmlns:dc="http://purl.org/dc/elements/1.1/" xmlns:cc="http://creativecommons.org/ns#" xmlns:rdf="http://www.w3.org/1999/02/22-rdf-syntax-ns#">
   <cc:Work>
    <dc:type rdf:resource="http://purl.org/dc/dcmitype/StillImage"/>
    <dc:date>2026-06-30T15:37:34.549019</dc:date>
    <dc:format>image/svg+xml</dc:format>
    <dc:creator>
     <cc:Agent>
      <dc:title>Matplotlib v3.11.0, https://matplotlib.org/</dc:title>
     </cc:Agent>
    </dc:creator>
   </cc:Work>
  </rdf:RDF>
 </metadata>
 <defs>
  <style type="text/css">*{stroke-linejoin: round; stroke-linecap: butt}</style>
 </defs>
 <g id="figure_1">
  <g id="patch_1">
   <path d="M 0 122.4 
L 216 122.4 
L 216 0 
L 0 0 
L 0 122.4 
z
" style="fill: none; opacity: 0"/>
  </g>
  <g id="axes_1">
   <g id="patch_2">
    <path d="M 35.96 103.4 
L 211 103.4 
L 211 5 
L 35.96 5 
L 35.96 103.4 
z
" style="fill: none; opacity: 0"/>
   </g>
   <g id="matplotlib.axis_1">
    <g id="xtick_1">
     <g id="line2d_1">
      <path d="M 69.784035 103.4 
L 69.784035 5 
" clip-path="url(#p2134ec3a78)" style="fill: none; stroke-dasharray: 2.96,1.28; stroke-dashoffset: 0; stroke: var(--grid-color); stroke-width: 0.8"/>
     </g>
     <g id="line2d_2">
      <defs>
       <path id="mb48824b9f6" d="M 0 0 
L 0 3.5 
" style="stroke: var(--fg-color); stroke-width: 0.8"/>
      </defs>
      <g>
       <use xlink:href="#mb48824b9f6" x="69.784035" y="103.4" style="fill: var(--fg-color); stroke: var(--fg-color); stroke-width: 0.8"/>
      </g>
     </g>
     <g id="text_1">
      <text style="font-size: 7px; font-family: 'DejaVu Sans', 'Bitstream Vera Sans', 'Computer Modern Sans Serif', 'Lucida Grande', 'Verdana', 'Geneva', 'Lucid', 'Arial', 'Helvetica', 'Avant Garde', sans-serif; text-anchor: middle; fill: var(--fg-color)" x="69.784035" y="115.718359" transform="rotate(-0 69.784035 115.718359)">02/2026</text>
     </g>
    </g>
    <g id="xtick_2">
     <g id="line2d_3">
      <path d="M 122.345302 103.4 
L 122.345302 5 
" clip-path="url(#p2134ec3a78)" style="fill: none; stroke-dasharray: 2.96,1.28; stroke-dashoffset: 0; stroke: var(--grid-color); stroke-width: 0.8"/>
     </g>
     <g id="line2d_4">
      <g>
       <use xlink:href="#mb48824b9f6" x="122.345302" y="103.4" style="fill: var(--fg-color); stroke: var(--fg-color); stroke-width: 0.8"/>
      </g>
     </g>
     <g id="text_2">
      <text style="font-size: 7px; font-family: 'DejaVu Sans', 'Bitstream Vera Sans', 'Computer Modern Sans Serif', 'Lucida Grande', 'Verdana', 'Geneva', 'Lucid', 'Arial', 'Helvetica', 'Avant Garde', sans-serif; text-anchor: middle; fill: var(--fg-color)" x="122.345302" y="115.718359" transform="rotate(-0 122.345302 115.718359)">04/2026</text>
     </g>
    </g>
    <g id="xtick_3">
     <g id="line2d_5">
      <path d="M 176.688307 103.4 
L 176.688307 5 
" clip-path="url(#p2134ec3a78)" style="fill: none; stroke-dasharray: 2.96,1.28; stroke-dashoffset: 0; stroke: var(--grid-color); stroke-width: 0.8"/>
     </g>
     <g id="line2d_6">
      <g>
       <use xlink:href="#mb48824b9f6" x="176.688307" y="103.4" style="fill: var(--fg-color); stroke: var(--fg-color); stroke-width: 0.8"/>
      </g>
     </g>
     <g id="text_3">
      <text style="font-size: 7px; font-family: 'DejaVu Sans', 'Bitstream Vera Sans', 'Computer Modern Sans Serif', 'Lucida Grande', 'Verdana', 'Geneva', 'Lucid', 'Arial', 'Helvetica', 'Avant Garde', sans-serif; text-anchor: middle; fill: var(--fg-color)" x="176.688307" y="115.718359" transform="rotate(-0 176.688307 115.718359)">06/2026</text>
     </g>
    </g>
   </g>
   <g id="matplotlib.axis_2">
    <g id="ytick_1">
     <g id="line2d_7">
      <path d="M 35.96 100.36263 
L 211 100.36263 
" clip-path="url(#p2134ec3a78)" style="fill: none; stroke-dasharray: 2.96,1.28; stroke-dashoffset: 0; stroke: var(--grid-color); stroke-width: 0.8"/>
     </g>
     <g id="line2d_8">
      <defs>
       <path id="m4bc4e8d78f" d="M 0 0 
L -3.5 0 
" style="stroke: var(--fg-color); stroke-width: 0.8"/>
      </defs>
      <g>
       <use xlink:href="#m4bc4e8d78f" x="35.96" y="100.36263" style="fill: var(--fg-color); stroke: var(--fg-color); stroke-width: 0.8"/>
      </g>
     </g>
     <g id="text_4">
      <text style="font-size: 7px; font-family: 'DejaVu Sans', 'Bitstream Vera Sans', 'Computer Modern Sans Serif', 'Lucida Grande', 'Verdana', 'Geneva', 'Lucid', 'Arial', 'Helvetica', 'Avant Garde', sans-serif; text-anchor: end; fill: var(--fg-color)" x="28.96" y="103.021809" transform="rotate(-0 28.96 103.021809)">0</text>
     </g>
    </g>
    <g id="ytick_2">
     <g id="line2d_9">
      <path d="M 35.96 76.303679 
L 211 76.303679 
" clip-path="url(#p2134ec3a78)" style="fill: none; stroke-dasharray: 2.96,1.28; stroke-dashoffset: 0; stroke: var(--grid-color); stroke-width: 0.8"/>
     </g>
     <g id="line2d_10">
      <g>
       <use xlink:href="#m4bc4e8d78f" x="35.96" y="76.303679" style="fill: var(--fg-color); stroke: var(--fg-color); stroke-width: 0.8"/>
      </g>
     </g>
     <g id="text_5">
      <text style="font-size: 7px; font-family: 'DejaVu Sans', 'Bitstream Vera Sans', 'Computer Modern Sans Serif', 'Lucida Grande', 'Verdana', 'Geneva', 'Lucid', 'Arial', 'Helvetica', 'Avant Garde', sans-serif; text-anchor: end; fill: var(--fg-color)" x="28.96" y="78.962859" transform="rotate(-0 28.96 78.962859)">50</text>
     </g>
    </g>
    <g id="ytick_3">
     <g id="line2d_11">
      <path d="M 35.96 52.244729 
L 211 52.244729 
" clip-path="url(#p2134ec3a78)" style="fill: none; stroke-dasharray: 2.96,1.28; stroke-dashoffset: 0; stroke: var(--grid-color); stroke-width: 0.8"/>
     </g>
     <g id="line2d_12">
      <g>
       <use xlink:href="#m4bc4e8d78f" x="35.96" y="52.244729" style="fill: var(--fg-color); stroke: var(--fg-color); stroke-width: 0.8"/>
      </g>
     </g>
     <g id="text_6">
      <text style="font-size: 7px; font-family: 'DejaVu Sans', 'Bitstream Vera Sans', 'Computer Modern Sans Serif', 'Lucida Grande', 'Verdana', 'Geneva', 'Lucid', 'Arial', 'Helvetica', 'Avant Garde', sans-serif; text-anchor: end; fill: var(--fg-color)" x="28.96" y="54.903909" transform="rotate(-0 28.96 54.903909)">100</text>
     </g>
    </g>
    <g id="ytick_4">
     <g id="line2d_13">
      <path d="M 35.96 28.185779 
L 211 28.185779 
" clip-path="url(#p2134ec3a78)" style="fill: none; stroke-dasharray: 2.96,1.28; stroke-dashoffset: 0; stroke: var(--grid-color); stroke-width: 0.8"/>
     </g>
     <g id="line2d_14">
      <g>
       <use xlink:href="#m4bc4e8d78f" x="35.96" y="28.185779" style="fill: var(--fg-color); stroke: var(--fg-color); stroke-width: 0.8"/>
      </g>
     </g>
     <g id="text_7">
      <text style="font-size: 7px; font-family: 'DejaVu Sans', 'Bitstream Vera Sans', 'Computer Modern Sans Serif', 'Lucida Grande', 'Verdana', 'Geneva', 'Lucid', 'Arial', 'Helvetica', 'Avant Garde', sans-serif; text-anchor: end; fill: var(--fg-color)" x="28.96" y="30.844959" transform="rotate(-0 28.96 30.844959)">150</text>
     </g>
    </g>
    <g id="text_8">
     <text style="font-size: 7px; font-family: 'DejaVu Sans', 'Bitstream Vera Sans', 'Computer Modern Sans Serif', 'Lucida Grande', 'Verdana', 'Geneva', 'Lucid', 'Arial', 'Helvetica', 'Avant Garde', sans-serif; text-anchor: middle; fill: var(--fg-color)" x="9.917109" y="54.2" transform="rotate(-90 9.917109 54.2)">ms</text>
    </g>
   </g>
   <g id="line2d_15">
    <path d="M 43.916364 30.187965 
L 44.468628 35.27547 
L 45.3595 32.389359 
L 46.250371 26.920759 
L 47.141245 28.240633 
L 48.032112 29.895408 
L 48.922979 22.078174 
L 49.81384 32.857546 
L 50.704717 37.615925 
L 51.595589 25.966581 
L 52.486458 34.730294 
L 53.377327 33.822791 
L 54.268192 33.361821 
L 55.159063 24.914243 
L 56.049934 30.656633 
L 56.940797 34.310706 
L 57.831669 33.898336 
L 58.722538 29.620173 
L 59.613407 33.506175 
L 60.504275 34.364117 
L 61.395144 34.465165 
L 62.286016 29.14525 
L 63.176879 37.056314 
L 64.067746 33.259811 
L 64.958622 33.401759 
L 65.84949 31.073815 
L 66.740361 35.846149 
L 67.631226 32.97351 
L 68.522078 33.250669 
L 69.412965 24.073623 
L 70.30383 32.156949 
L 71.194705 27.510203 
L 72.085571 30.633055 
L 72.976442 35.962594 
L 73.867306 33.051942 
L 74.758184 36.262368 
L 75.649039 35.958744 
L 76.539914 34.917954 
L 77.430784 32.242118 
L 78.321655 30.833226 
L 79.212509 35.698427 
L 80.103391 32.446138 
L 80.994245 34.475751 
L 81.885129 35.805248 
L 82.775998 32.676622 
L 83.666869 34.881385 
L 84.557735 35.491038 
L 85.44861 34.289053 
L 94.53997 27.399532 
L 95.248438 30.3328 
L 96.139324 28.057304 
L 97.030192 27.674286 
L 97.921065 35.684472 
L 98.811931 36.347537 
L 99.702798 39.289466 
L 101.484533 39.503109 
L 102.375401 29.535486 
L 103.266272 32.718966 
L 104.157138 31.886045 
L 105.93888 39.95253 
L 107.720614 31.730625 
L 108.611487 33.294937 
L 109.502352 33.352198 
L 110.393224 28.960477 
L 111.284094 31.397649 
L 112.17496 27.596816 
L 113.956695 35.53675 
L 114.847564 35.780708 
L 115.738441 37.385921 
L 116.629309 34.806321 
L 117.520178 33.722706 
L 118.41104 34.800547 
L 119.301913 28.45957 
L 120.192782 30.624875 
L 121.083649 27.474115 
L 121.97452 27.306184 
L 125.537994 31.34905 
L 126.428869 32.725222 
L 127.319734 25.298224 
L 128.210603 25.601366 
L 129.101474 29.564838 
L 129.992342 24.243479 
L 130.883214 26.926533 
L 131.774065 30.847661 
L 132.664946 27.531375 
L 133.55582 32.792105 
L 134.446686 28.164607 
L 135.337558 25.426217 
L 136.228424 33.386843 
L 137.119294 25.725511 
L 138.010159 30.420374 
L 138.901032 30.902515 
L 139.791912 29.811683 
L 140.68277 25.452682 
L 141.57364 23.127625 
L 142.464507 9.472727 
L 143.355376 23.655478 
L 144.246246 29.137551 
L 145.137113 29.102906 
L 146.027984 27.868682 
L 146.918849 24.488881 
L 173.644977 24.488881 
L 182.553652 29.797728 
L 183.444521 21.176925 
L 184.335387 19.144425 
L 185.226256 23.659809 
L 186.117131 29.583123 
L 187.007996 23.913872 
L 187.898864 25.368476 
L 188.789731 27.61077 
L 189.680603 22.869232 
L 190.571474 19.16656 
L 191.462343 25.265985 
L 192.353215 22.639228 
L 193.244077 17.382348 
L 194.134949 20.233815 
L 195.025817 23.463488 
L 195.916688 27.751274 
L 196.807557 24.420553 
L 197.698426 21.74183 
L 198.589295 15.856048 
L 199.480162 15.356584 
L 200.371032 29.642789 
L 201.261898 30.457906 
L 202.152766 31.535266 
L 203.043636 29.835742 
L 203.043636 29.835742 
" clip-path="url(#p2134ec3a78)" style="fill: none; stroke: #339af0; stroke-width: 1.2; stroke-linecap: square"/>
   </g>
   <g id="line2d_16">
    <path d="M 43.916364 98.705449 
L 44.468628 98.465341 
L 45.3595 98.515865 
L 46.250371 98.697269 
L 48.032112 98.740575 
L 48.922979 98.365737 
L 49.81384 98.757417 
L 50.704717 98.878192 
L 51.595589 98.63231 
L 52.486458 98.730471 
L 56.940797 98.562058 
L 58.722538 98.773777 
L 61.395144 98.713629 
L 62.286016 98.177596 
L 63.176879 98.729508 
L 65.84949 98.693901 
L 66.740361 98.832962 
L 69.412965 98.658294 
L 70.30383 98.77089 
L 72.085571 98.624611 
L 72.976442 98.818045 
L 73.867306 98.700637 
L 74.758184 98.819007 
L 79.212509 98.779551 
L 80.103391 98.857021 
L 81.885129 98.85269 
L 82.775998 98.84451 
L 83.666869 98.66888 
L 84.557735 98.862314 
L 85.44861 98.801204 
L 95.248438 98.729508 
L 96.139324 98.87723 
L 97.030192 98.809865 
L 98.811931 98.844029 
L 102.375401 98.859908 
L 103.266272 98.401825 
L 104.157138 98.442725 
L 105.048009 98.844991 
L 105.93888 98.927273 
L 106.829748 98.511053 
L 108.611487 98.831037 
L 113.065834 98.743944 
L 113.956695 98.882523 
L 114.847564 98.764153 
L 115.738441 98.098201 
L 116.629309 98.793986 
L 125.537994 98.654925 
L 126.428869 98.752605 
L 127.319734 98.437914 
L 128.210603 98.793505 
L 135.337558 98.677541 
L 136.228424 98.755492 
L 138.010159 98.719403 
L 139.791912 98.719885 
L 140.68277 98.625092 
L 141.57364 98.370067 
L 142.464507 97.039126 
L 143.355376 98.650595 
L 144.246246 98.708336 
L 145.137113 98.628461 
L 146.027984 98.735282 
L 146.918849 98.53848 
L 173.644977 98.53848 
L 182.553652 98.787731 
L 184.335387 98.588042 
L 188.789731 98.834405 
L 189.680603 98.438876 
L 190.571474 98.443688 
L 191.462343 98.611619 
L 193.244077 98.603439 
L 194.134949 98.544735 
L 195.916688 98.723734 
L 197.698426 98.644821 
L 202.152766 98.80361 
L 203.043636 97.452459 
L 203.043636 97.452459 
" clip-path="url(#p2134ec3a78)" style="fill: none; stroke: #ff6b6b; stroke-width: 1.2; stroke-linecap: square"/>
   </g>
   <g id="patch_3">
    <path d="M 35.96 103.4 
L 35.96 5 
" style="fill: none; stroke: var(--fg-color); stroke-width: 0.8; stroke-linejoin: miter; stroke-linecap: square"/>
   </g>
   <g id="patch_4">
    <path d="M 35.96 103.4 
L 211 103.4 
" style="fill: none; stroke: var(--fg-color); stroke-width: 0.8; stroke-linejoin: miter; stroke-linecap: square"/>
   </g>
  </g>
 </g>
 <defs>
  <clipPath id="p2134ec3a78">
   <rect x="35.96" y="5" width="175.04" height="98.4"/>
  </clipPath>
 </defs>
</svg>
