<?xml version="1.0" encoding="utf-8" standalone="no"?>
<!DOCTYPE svg PUBLIC "-//W3C//DTD SVG 1.1//EN"
  "http://www.w3.org/Graphics/SVG/1.1/DTD/svg11.dtd">
<svg xmlns:xlink="http://www.w3.org/1999/xlink" width="216pt" height="122.4pt" viewBox="0 0 216 122.4" xmlns="http://www.w3.org/2000/svg" version="1.1">
  <style>
    :root {
      --fg-color: #212529;
      --grid-color: rgba(33, 37, 41, 0.1);
    }
    @media (prefers-color-scheme: dark) {
      :root {
        --fg-color: #dee2e6;
        --grid-color: rgba(248, 249, 250, 0.15);
      }
    }
  </style>

 <metadata>
  <rdf:RDF xmlns:dc="http://purl.org/dc/elements/1.1/" xmlns:cc="http://creativecommons.org/ns#" xmlns:rdf="http://www.w3.org/1999/02/22-rdf-syntax-ns#">
   <cc:Work>
    <dc:type rdf:resource="http://purl.org/dc/dcmitype/StillImage"/>
    <dc:date>2026-06-30T15:38:05.372303</dc:date>
    <dc:format>image/svg+xml</dc:format>
    <dc:creator>
     <cc:Agent>
      <dc:title>Matplotlib v3.11.0, https://matplotlib.org/</dc:title>
     </cc:Agent>
    </dc:creator>
   </cc:Work>
  </rdf:RDF>
 </metadata>
 <defs>
  <style type="text/css">*{stroke-linejoin: round; stroke-linecap: butt}</style>
 </defs>
 <g id="figure_1">
  <g id="patch_1">
   <path d="M 0 122.4 
L 216 122.4 
L 216 0 
L 0 0 
L 0 122.4 
z
" style="fill: none; opacity: 0"/>
  </g>
  <g id="axes_1">
   <g id="patch_2">
    <path d="M 35.96 103.4 
L 211 103.4 
L 211 5 
L 35.96 5 
L 35.96 103.4 
z
" style="fill: none; opacity: 0"/>
   </g>
   <g id="matplotlib.axis_1">
    <g id="xtick_1">
     <g id="line2d_1">
      <path d="M 69.784035 103.4 
L 69.784035 5 
" clip-path="url(#p797091a3ee)" style="fill: none; stroke-dasharray: 2.96,1.28; stroke-dashoffset: 0; stroke: var(--grid-color); stroke-width: 0.8"/>
     </g>
     <g id="line2d_2">
      <defs>
       <path id="mfa11fa00dc" d="M 0 0 
L 0 3.5 
" style="stroke: var(--fg-color); stroke-width: 0.8"/>
      </defs>
      <g>
       <use xlink:href="#mfa11fa00dc" x="69.784035" y="103.4" style="fill: var(--fg-color); stroke: var(--fg-color); stroke-width: 0.8"/>
      </g>
     </g>
     <g id="text_1">
      <text style="font-size: 7px; font-family: 'DejaVu Sans', 'Bitstream Vera Sans', 'Computer Modern Sans Serif', 'Lucida Grande', 'Verdana', 'Geneva', 'Lucid', 'Arial', 'Helvetica', 'Avant Garde', sans-serif; text-anchor: middle; fill: var(--fg-color)" x="69.784035" y="115.718359" transform="rotate(-0 69.784035 115.718359)">02/2026</text>
     </g>
    </g>
    <g id="xtick_2">
     <g id="line2d_3">
      <path d="M 122.345302 103.4 
L 122.345302 5 
" clip-path="url(#p797091a3ee)" style="fill: none; stroke-dasharray: 2.96,1.28; stroke-dashoffset: 0; stroke: var(--grid-color); stroke-width: 0.8"/>
     </g>
     <g id="line2d_4">
      <g>
       <use xlink:href="#mfa11fa00dc" x="122.345302" y="103.4" style="fill: var(--fg-color); stroke: var(--fg-color); stroke-width: 0.8"/>
      </g>
     </g>
     <g id="text_2">
      <text style="font-size: 7px; font-family: 'DejaVu Sans', 'Bitstream Vera Sans', 'Computer Modern Sans Serif', 'Lucida Grande', 'Verdana', 'Geneva', 'Lucid', 'Arial', 'Helvetica', 'Avant Garde', sans-serif; text-anchor: middle; fill: var(--fg-color)" x="122.345302" y="115.718359" transform="rotate(-0 122.345302 115.718359)">04/2026</text>
     </g>
    </g>
    <g id="xtick_3">
     <g id="line2d_5">
      <path d="M 176.688307 103.4 
L 176.688307 5 
" clip-path="url(#p797091a3ee)" style="fill: none; stroke-dasharray: 2.96,1.28; stroke-dashoffset: 0; stroke: var(--grid-color); stroke-width: 0.8"/>
     </g>
     <g id="line2d_6">
      <g>
       <use xlink:href="#mfa11fa00dc" x="176.688307" y="103.4" style="fill: var(--fg-color); stroke: var(--fg-color); stroke-width: 0.8"/>
      </g>
     </g>
     <g id="text_3">
      <text style="font-size: 7px; font-family: 'DejaVu Sans', 'Bitstream Vera Sans', 'Computer Modern Sans Serif', 'Lucida Grande', 'Verdana', 'Geneva', 'Lucid', 'Arial', 'Helvetica', 'Avant Garde', sans-serif; text-anchor: middle; fill: var(--fg-color)" x="176.688307" y="115.718359" transform="rotate(-0 176.688307 115.718359)">06/2026</text>
     </g>
    </g>
   </g>
   <g id="matplotlib.axis_2">
    <g id="ytick_1">
     <g id="line2d_7">
      <path d="M 35.96 99.284804 
L 211 99.284804 
" clip-path="url(#p797091a3ee)" style="fill: none; stroke-dasharray: 2.96,1.28; stroke-dashoffset: 0; stroke: var(--grid-color); stroke-width: 0.8"/>
     </g>
     <g id="line2d_8">
      <defs>
       <path id="m1511b79721" d="M 0 0 
L -3.5 0 
" style="stroke: var(--fg-color); stroke-width: 0.8"/>
      </defs>
      <g>
       <use xlink:href="#m1511b79721" x="35.96" y="99.284804" style="fill: var(--fg-color); stroke: var(--fg-color); stroke-width: 0.8"/>
      </g>
     </g>
     <g id="text_4">
      <text style="font-size: 7px; font-family: 'DejaVu Sans', 'Bitstream Vera Sans', 'Computer Modern Sans Serif', 'Lucida Grande', 'Verdana', 'Geneva', 'Lucid', 'Arial', 'Helvetica', 'Avant Garde', sans-serif; text-anchor: end; fill: var(--fg-color)" x="28.96" y="101.943984" transform="rotate(-0 28.96 101.943984)">0</text>
     </g>
    </g>
    <g id="ytick_2">
     <g id="line2d_9">
      <path d="M 35.96 77.160333 
L 211 77.160333 
" clip-path="url(#p797091a3ee)" style="fill: none; stroke-dasharray: 2.96,1.28; stroke-dashoffset: 0; stroke: var(--grid-color); stroke-width: 0.8"/>
     </g>
     <g id="line2d_10">
      <g>
       <use xlink:href="#m1511b79721" x="35.96" y="77.160333" style="fill: var(--fg-color); stroke: var(--fg-color); stroke-width: 0.8"/>
      </g>
     </g>
     <g id="text_5">
      <text style="font-size: 7px; font-family: 'DejaVu Sans', 'Bitstream Vera Sans', 'Computer Modern Sans Serif', 'Lucida Grande', 'Verdana', 'Geneva', 'Lucid', 'Arial', 'Helvetica', 'Avant Garde', sans-serif; text-anchor: end; fill: var(--fg-color)" x="28.96" y="79.819513" transform="rotate(-0 28.96 79.819513)">100</text>
     </g>
    </g>
    <g id="ytick_3">
     <g id="line2d_11">
      <path d="M 35.96 55.035863 
L 211 55.035863 
" clip-path="url(#p797091a3ee)" style="fill: none; stroke-dasharray: 2.96,1.28; stroke-dashoffset: 0; stroke: var(--grid-color); stroke-width: 0.8"/>
     </g>
     <g id="line2d_12">
      <g>
       <use xlink:href="#m1511b79721" x="35.96" y="55.035863" style="fill: var(--fg-color); stroke: var(--fg-color); stroke-width: 0.8"/>
      </g>
     </g>
     <g id="text_6">
      <text style="font-size: 7px; font-family: 'DejaVu Sans', 'Bitstream Vera Sans', 'Computer Modern Sans Serif', 'Lucida Grande', 'Verdana', 'Geneva', 'Lucid', 'Arial', 'Helvetica', 'Avant Garde', sans-serif; text-anchor: end; fill: var(--fg-color)" x="28.96" y="57.695042" transform="rotate(-0 28.96 57.695042)">200</text>
     </g>
    </g>
    <g id="ytick_4">
     <g id="line2d_13">
      <path d="M 35.96 32.911392 
L 211 32.911392 
" clip-path="url(#p797091a3ee)" style="fill: none; stroke-dasharray: 2.96,1.28; stroke-dashoffset: 0; stroke: var(--grid-color); stroke-width: 0.8"/>
     </g>
     <g id="line2d_14">
      <g>
       <use xlink:href="#m1511b79721" x="35.96" y="32.911392" style="fill: var(--fg-color); stroke: var(--fg-color); stroke-width: 0.8"/>
      </g>
     </g>
     <g id="text_7">
      <text style="font-size: 7px; font-family: 'DejaVu Sans', 'Bitstream Vera Sans', 'Computer Modern Sans Serif', 'Lucida Grande', 'Verdana', 'Geneva', 'Lucid', 'Arial', 'Helvetica', 'Avant Garde', sans-serif; text-anchor: end; fill: var(--fg-color)" x="28.96" y="35.570571" transform="rotate(-0 28.96 35.570571)">300</text>
     </g>
    </g>
    <g id="ytick_5">
     <g id="line2d_15">
      <path d="M 35.96 10.786921 
L 211 10.786921 
" clip-path="url(#p797091a3ee)" style="fill: none; stroke-dasharray: 2.96,1.28; stroke-dashoffset: 0; stroke: var(--grid-color); stroke-width: 0.8"/>
     </g>
     <g id="line2d_16">
      <g>
       <use xlink:href="#m1511b79721" x="35.96" y="10.786921" style="fill: var(--fg-color); stroke: var(--fg-color); stroke-width: 0.8"/>
      </g>
     </g>
     <g id="text_8">
      <text style="font-size: 7px; font-family: 'DejaVu Sans', 'Bitstream Vera Sans', 'Computer Modern Sans Serif', 'Lucida Grande', 'Verdana', 'Geneva', 'Lucid', 'Arial', 'Helvetica', 'Avant Garde', sans-serif; text-anchor: end; fill: var(--fg-color)" x="28.96" y="13.446101" transform="rotate(-0 28.96 13.446101)">400</text>
     </g>
    </g>
    <g id="text_9">
     <text style="font-size: 7px; font-family: 'DejaVu Sans', 'Bitstream Vera Sans', 'Computer Modern Sans Serif', 'Lucida Grande', 'Verdana', 'Geneva', 'Lucid', 'Arial', 'Helvetica', 'Avant Garde', sans-serif; text-anchor: middle; fill: var(--fg-color)" x="9.917109" y="54.2" transform="rotate(-90 9.917109 54.2)">ms</text>
    </g>
   </g>
   <g id="line2d_17">
    <path d="M 43.916364 82.263121 
L 44.468628 84.908987 
L 45.3595 85.006334 
L 46.250371 82.882606 
L 47.141245 79.075206 
L 48.032112 82.950529 
L 48.922979 84.099674 
L 49.81384 84.345034 
L 50.704717 78.366559 
L 51.595589 83.806967 
L 52.486458 83.329078 
L 53.377327 82.241218 
L 54.268192 83.928651 
L 55.159063 83.141684 
L 56.049934 81.708461 
L 56.940797 84.437293 
L 57.831669 85.170719 
L 58.722538 82.521756 
L 59.613407 82.367106 
L 60.504275 85.43577 
L 61.395144 81.970857 
L 62.286016 81.183668 
L 63.176879 84.464506 
L 64.067746 81.304025 
L 64.958622 83.160711 
L 65.84949 82.437462 
L 66.740361 82.227943 
L 67.631226 78.774092 
L 68.522078 82.696761 
L 70.30383 83.451427 
L 71.194705 83.191685 
L 72.085571 83.603864 
L 72.976442 80.594272 
L 73.867306 79.68562 
L 74.758184 81.177252 
L 75.649039 83.260714 
L 76.539914 76.809439 
L 78.321655 84.069363 
L 79.212509 80.443384 
L 80.103391 79.901555 
L 80.994245 81.007336 
L 81.885129 75.183954 
L 82.775998 83.041239 
L 83.666869 83.552757 
L 84.557735 83.832631 
L 85.44861 76.066942 
L 94.53997 9.472727 
L 95.248438 79.410392 
L 96.139324 82.634149 
L 97.030192 78.326957 
L 97.921065 78.685594 
L 98.811931 81.883908 
L 99.702798 83.147658 
L 100.593666 81.513102 
L 101.484533 82.473304 
L 102.375401 82.51003 
L 103.266272 83.692362 
L 104.157138 82.176172 
L 105.048009 82.03723 
L 105.93888 83.906306 
L 106.829748 84.211181 
L 107.720614 84.014716 
L 108.611487 81.458233 
L 109.502352 83.452754 
L 110.393224 85.030893 
L 111.284094 81.99099 
L 112.17496 86.083796 
L 113.065834 81.729037 
L 113.956695 83.095886 
L 114.847564 82.299627 
L 115.738441 83.47156 
L 116.629309 81.952494 
L 117.520178 83.128409 
L 118.41104 82.660698 
L 119.301913 76.845502 
L 120.192782 83.602758 
L 121.083649 82.221306 
L 121.97452 82.893005 
L 125.537994 83.884624 
L 126.428869 80.477455 
L 127.319734 82.235023 
L 128.210603 82.411798 
L 129.101474 82.227058 
L 129.992342 82.482154 
L 130.883214 82.272414 
L 131.774065 82.293211 
L 132.664946 81.321504 
L 133.55582 79.912839 
L 134.446686 80.489402 
L 135.337558 82.479056 
L 136.228424 82.503836 
L 137.119294 83.036814 
L 138.010159 82.777073 
L 138.901032 82.901191 
L 139.791912 82.180597 
L 140.68277 81.765763 
L 141.57364 80.043152 
L 142.464507 77.584681 
L 143.355376 83.183499 
L 144.246246 81.798286 
L 145.137113 80.969282 
L 146.027984 77.641319 
L 146.918849 81.345841 
L 173.644977 81.345841 
L 181.959197 83.020442 
L 182.553652 83.00938 
L 183.444521 73.243417 
L 184.335387 83.233722 
L 185.226256 80.396258 
L 186.117131 84.185517 
L 187.007996 81.582573 
L 187.898864 68.176692 
L 188.789731 85.414531 
L 189.680603 84.085735 
L 190.571474 79.822792 
L 192.353215 85.253465 
L 193.244077 84.765178 
L 194.134949 84.879561 
L 195.025817 83.730637 
L 195.916688 74.788811 
L 196.807557 83.720903 
L 197.698426 81.502261 
L 198.589295 85.749938 
L 199.480162 82.964025 
L 200.371032 83.907191 
L 201.261898 83.970245 
L 202.152766 83.24058 
L 203.043636 82.691451 
L 203.043636 82.691451 
" clip-path="url(#p797091a3ee)" style="fill: none; stroke: #339af0; stroke-width: 1.2; stroke-linecap: square"/>
   </g>
   <g id="line2d_18">
    <path d="M 43.916364 98.881033 
L 52.486458 98.900281 
L 55.159063 98.875501 
L 56.049934 98.649389 
L 56.940797 98.906033 
L 63.176879 98.896741 
L 64.067746 98.715984 
L 64.958622 98.890767 
L 65.84949 98.792535 
L 68.522078 98.894307 
L 74.758184 98.66554 
L 75.649039 98.606247 
L 76.539914 98.897183 
L 83.666869 98.893644 
L 85.44861 98.880369 
L 104.157138 98.912671 
L 105.048009 98.486996 
L 105.93888 98.900502 
L 109.502352 98.894307 
L 115.738441 98.916874 
L 116.629309 98.702931 
L 117.520178 98.927273 
L 119.301913 98.858687 
L 120.192782 98.855811 
L 121.083649 98.531908 
L 121.97452 98.679257 
L 125.537994 98.887449 
L 126.428869 98.597618 
L 127.319734 98.852271 
L 128.210603 98.659567 
L 129.101474 98.851386 
L 131.774065 98.84497 
L 132.664946 98.437879 
L 133.55582 98.849395 
L 146.027984 98.821297 
L 146.918849 98.453367 
L 173.644977 98.453367 
L 185.226256 98.892095 
L 186.117131 98.559564 
L 187.007996 98.897626 
L 190.571474 98.88059 
L 195.916688 98.908024 
L 196.807557 98.607574 
L 197.698426 98.888334 
L 198.589295 98.903157 
L 199.480162 98.799393 
L 201.261898 98.893201 
L 203.043636 98.897405 
L 203.043636 98.897405 
" clip-path="url(#p797091a3ee)" style="fill: none; stroke: #ff6b6b; stroke-width: 1.2; stroke-linecap: square"/>
   </g>
   <g id="patch_3">
    <path d="M 35.96 103.4 
L 35.96 5 
" style="fill: none; stroke: var(--fg-color); stroke-width: 0.8; stroke-linejoin: miter; stroke-linecap: square"/>
   </g>
   <g id="patch_4">
    <path d="M 35.96 103.4 
L 211 103.4 
" style="fill: none; stroke: var(--fg-color); stroke-width: 0.8; stroke-linejoin: miter; stroke-linecap: square"/>
   </g>
  </g>
 </g>
 <defs>
  <clipPath id="p797091a3ee">
   <rect x="35.96" y="5" width="175.04" height="98.4"/>
  </clipPath>
 </defs>
</svg>
