<?xml version="1.0" encoding="utf-8" standalone="no"?>
<!DOCTYPE svg PUBLIC "-//W3C//DTD SVG 1.1//EN"
  "http://www.w3.org/Graphics/SVG/1.1/DTD/svg11.dtd">
<svg xmlns:xlink="http://www.w3.org/1999/xlink" width="216pt" height="122.4pt" viewBox="0 0 216 122.4" xmlns="http://www.w3.org/2000/svg" version="1.1">
  <style>
    :root {
      --fg-color: #212529;
      --grid-color: rgba(33, 37, 41, 0.1);
    }
    @media (prefers-color-scheme: dark) {
      :root {
        --fg-color: #dee2e6;
        --grid-color: rgba(248, 249, 250, 0.15);
      }
    }
  </style>

 <metadata>
  <rdf:RDF xmlns:dc="http://purl.org/dc/elements/1.1/" xmlns:cc="http://creativecommons.org/ns#" xmlns:rdf="http://www.w3.org/1999/02/22-rdf-syntax-ns#">
   <cc:Work>
    <dc:type rdf:resource="http://purl.org/dc/dcmitype/StillImage"/>
    <dc:date>2026-06-30T04:49:04.859582</dc:date>
    <dc:format>image/svg+xml</dc:format>
    <dc:creator>
     <cc:Agent>
      <dc:title>Matplotlib v3.11.0, https://matplotlib.org/</dc:title>
     </cc:Agent>
    </dc:creator>
   </cc:Work>
  </rdf:RDF>
 </metadata>
 <defs>
  <style type="text/css">*{stroke-linejoin: round; stroke-linecap: butt}</style>
 </defs>
 <g id="figure_1">
  <g id="patch_1">
   <path d="M 0 122.4 
L 216 122.4 
L 216 0 
L 0 0 
L 0 122.4 
z
" style="fill: none; opacity: 0"/>
  </g>
  <g id="axes_1">
   <g id="patch_2">
    <path d="M 35.96 103.4 
L 211 103.4 
L 211 5 
L 35.96 5 
L 35.96 103.4 
z
" style="fill: none; opacity: 0"/>
   </g>
   <g id="matplotlib.axis_1">
    <g id="xtick_1">
     <g id="line2d_1">
      <path d="M 72.056377 103.4 
L 72.056377 5 
" clip-path="url(#p4808562fed)" style="fill: none; stroke-dasharray: 2.96,1.28; stroke-dashoffset: 0; stroke: var(--grid-color); stroke-width: 0.8"/>
     </g>
     <g id="line2d_2">
      <defs>
       <path id="m03c0c8c8b2" d="M 0 0 
L 0 3.5 
" style="stroke: var(--fg-color); stroke-width: 0.8"/>
      </defs>
      <g>
       <use xlink:href="#m03c0c8c8b2" x="72.056377" y="103.4" style="fill: var(--fg-color); stroke: var(--fg-color); stroke-width: 0.8"/>
      </g>
     </g>
     <g id="text_1">
      <text style="font-size: 7px; font-family: 'DejaVu Sans', 'Bitstream Vera Sans', 'Computer Modern Sans Serif', 'Lucida Grande', 'Verdana', 'Geneva', 'Lucid', 'Arial', 'Helvetica', 'Avant Garde', sans-serif; text-anchor: middle; fill: var(--fg-color)" x="72.056377" y="115.718359" transform="rotate(-0 72.056377 115.718359)">02/2026</text>
     </g>
    </g>
    <g id="xtick_2">
     <g id="line2d_3">
      <path d="M 126.640628 103.4 
L 126.640628 5 
" clip-path="url(#p4808562fed)" style="fill: none; stroke-dasharray: 2.96,1.28; stroke-dashoffset: 0; stroke: var(--grid-color); stroke-width: 0.8"/>
     </g>
     <g id="line2d_4">
      <g>
       <use xlink:href="#m03c0c8c8b2" x="126.640628" y="103.4" style="fill: var(--fg-color); stroke: var(--fg-color); stroke-width: 0.8"/>
      </g>
     </g>
     <g id="text_2">
      <text style="font-size: 7px; font-family: 'DejaVu Sans', 'Bitstream Vera Sans', 'Computer Modern Sans Serif', 'Lucida Grande', 'Verdana', 'Geneva', 'Lucid', 'Arial', 'Helvetica', 'Avant Garde', sans-serif; text-anchor: middle; fill: var(--fg-color)" x="126.640628" y="115.718359" transform="rotate(-0 126.640628 115.718359)">04/2026</text>
     </g>
    </g>
    <g id="xtick_3">
     <g id="line2d_5">
      <path d="M 183.075192 103.4 
L 183.075192 5 
" clip-path="url(#p4808562fed)" style="fill: none; stroke-dasharray: 2.96,1.28; stroke-dashoffset: 0; stroke: var(--grid-color); stroke-width: 0.8"/>
     </g>
     <g id="line2d_6">
      <g>
       <use xlink:href="#m03c0c8c8b2" x="183.075192" y="103.4" style="fill: var(--fg-color); stroke: var(--fg-color); stroke-width: 0.8"/>
      </g>
     </g>
     <g id="text_3">
      <text style="font-size: 7px; font-family: 'DejaVu Sans', 'Bitstream Vera Sans', 'Computer Modern Sans Serif', 'Lucida Grande', 'Verdana', 'Geneva', 'Lucid', 'Arial', 'Helvetica', 'Avant Garde', sans-serif; text-anchor: middle; fill: var(--fg-color)" x="183.075192" y="115.718359" transform="rotate(-0 183.075192 115.718359)">06/2026</text>
     </g>
    </g>
   </g>
   <g id="matplotlib.axis_2">
    <g id="ytick_1">
     <g id="line2d_7">
      <path d="M 35.96 100.30025 
L 211 100.30025 
" clip-path="url(#p4808562fed)" style="fill: none; stroke-dasharray: 2.96,1.28; stroke-dashoffset: 0; stroke: var(--grid-color); stroke-width: 0.8"/>
     </g>
     <g id="line2d_8">
      <defs>
       <path id="me4903d2f54" d="M 0 0 
L -3.5 0 
" style="stroke: var(--fg-color); stroke-width: 0.8"/>
      </defs>
      <g>
       <use xlink:href="#me4903d2f54" x="35.96" y="100.30025" style="fill: var(--fg-color); stroke: var(--fg-color); stroke-width: 0.8"/>
      </g>
     </g>
     <g id="text_4">
      <text style="font-size: 7px; font-family: 'DejaVu Sans', 'Bitstream Vera Sans', 'Computer Modern Sans Serif', 'Lucida Grande', 'Verdana', 'Geneva', 'Lucid', 'Arial', 'Helvetica', 'Avant Garde', sans-serif; text-anchor: end; fill: var(--fg-color)" x="28.96" y="102.95943" transform="rotate(-0 28.96 102.95943)">0</text>
     </g>
    </g>
    <g id="ytick_2">
     <g id="line2d_9">
      <path d="M 35.96 86.042955 
L 211 86.042955 
" clip-path="url(#p4808562fed)" style="fill: none; stroke-dasharray: 2.96,1.28; stroke-dashoffset: 0; stroke: var(--grid-color); stroke-width: 0.8"/>
     </g>
     <g id="line2d_10">
      <g>
       <use xlink:href="#me4903d2f54" x="35.96" y="86.042955" style="fill: var(--fg-color); stroke: var(--fg-color); stroke-width: 0.8"/>
      </g>
     </g>
     <g id="text_5">
      <text style="font-size: 7px; font-family: 'DejaVu Sans', 'Bitstream Vera Sans', 'Computer Modern Sans Serif', 'Lucida Grande', 'Verdana', 'Geneva', 'Lucid', 'Arial', 'Helvetica', 'Avant Garde', sans-serif; text-anchor: end; fill: var(--fg-color)" x="28.96" y="88.702135" transform="rotate(-0 28.96 88.702135)">20</text>
     </g>
    </g>
    <g id="ytick_3">
     <g id="line2d_11">
      <path d="M 35.96 71.78566 
L 211 71.78566 
" clip-path="url(#p4808562fed)" style="fill: none; stroke-dasharray: 2.96,1.28; stroke-dashoffset: 0; stroke: var(--grid-color); stroke-width: 0.8"/>
     </g>
     <g id="line2d_12">
      <g>
       <use xlink:href="#me4903d2f54" x="35.96" y="71.78566" style="fill: var(--fg-color); stroke: var(--fg-color); stroke-width: 0.8"/>
      </g>
     </g>
     <g id="text_6">
      <text style="font-size: 7px; font-family: 'DejaVu Sans', 'Bitstream Vera Sans', 'Computer Modern Sans Serif', 'Lucida Grande', 'Verdana', 'Geneva', 'Lucid', 'Arial', 'Helvetica', 'Avant Garde', sans-serif; text-anchor: end; fill: var(--fg-color)" x="28.96" y="74.44484" transform="rotate(-0 28.96 74.44484)">40</text>
     </g>
    </g>
    <g id="ytick_4">
     <g id="line2d_13">
      <path d="M 35.96 57.528365 
L 211 57.528365 
" clip-path="url(#p4808562fed)" style="fill: none; stroke-dasharray: 2.96,1.28; stroke-dashoffset: 0; stroke: var(--grid-color); stroke-width: 0.8"/>
     </g>
     <g id="line2d_14">
      <g>
       <use xlink:href="#me4903d2f54" x="35.96" y="57.528365" style="fill: var(--fg-color); stroke: var(--fg-color); stroke-width: 0.8"/>
      </g>
     </g>
     <g id="text_7">
      <text style="font-size: 7px; font-family: 'DejaVu Sans', 'Bitstream Vera Sans', 'Computer Modern Sans Serif', 'Lucida Grande', 'Verdana', 'Geneva', 'Lucid', 'Arial', 'Helvetica', 'Avant Garde', sans-serif; text-anchor: end; fill: var(--fg-color)" x="28.96" y="60.187545" transform="rotate(-0 28.96 60.187545)">60</text>
     </g>
    </g>
    <g id="ytick_5">
     <g id="line2d_15">
      <path d="M 35.96 43.271071 
L 211 43.271071 
" clip-path="url(#p4808562fed)" style="fill: none; stroke-dasharray: 2.96,1.28; stroke-dashoffset: 0; stroke: var(--grid-color); stroke-width: 0.8"/>
     </g>
     <g id="line2d_16">
      <g>
       <use xlink:href="#me4903d2f54" x="35.96" y="43.271071" style="fill: var(--fg-color); stroke: var(--fg-color); stroke-width: 0.8"/>
      </g>
     </g>
     <g id="text_8">
      <text style="font-size: 7px; font-family: 'DejaVu Sans', 'Bitstream Vera Sans', 'Computer Modern Sans Serif', 'Lucida Grande', 'Verdana', 'Geneva', 'Lucid', 'Arial', 'Helvetica', 'Avant Garde', sans-serif; text-anchor: end; fill: var(--fg-color)" x="28.96" y="45.93025" transform="rotate(-0 28.96 45.93025)">80</text>
     </g>
    </g>
    <g id="ytick_6">
     <g id="line2d_17">
      <path d="M 35.96 29.013776 
L 211 29.013776 
" clip-path="url(#p4808562fed)" style="fill: none; stroke-dasharray: 2.96,1.28; stroke-dashoffset: 0; stroke: var(--grid-color); stroke-width: 0.8"/>
     </g>
     <g id="line2d_18">
      <g>
       <use xlink:href="#me4903d2f54" x="35.96" y="29.013776" style="fill: var(--fg-color); stroke: var(--fg-color); stroke-width: 0.8"/>
      </g>
     </g>
     <g id="text_9">
      <text style="font-size: 7px; font-family: 'DejaVu Sans', 'Bitstream Vera Sans', 'Computer Modern Sans Serif', 'Lucida Grande', 'Verdana', 'Geneva', 'Lucid', 'Arial', 'Helvetica', 'Avant Garde', sans-serif; text-anchor: end; fill: var(--fg-color)" x="28.96" y="31.672955" transform="rotate(-0 28.96 31.672955)">100</text>
     </g>
    </g>
    <g id="ytick_7">
     <g id="line2d_19">
      <path d="M 35.96 14.756481 
L 211 14.756481 
" clip-path="url(#p4808562fed)" style="fill: none; stroke-dasharray: 2.96,1.28; stroke-dashoffset: 0; stroke: var(--grid-color); stroke-width: 0.8"/>
     </g>
     <g id="line2d_20">
      <g>
       <use xlink:href="#me4903d2f54" x="35.96" y="14.756481" style="fill: var(--fg-color); stroke: var(--fg-color); stroke-width: 0.8"/>
      </g>
     </g>
     <g id="text_10">
      <text style="font-size: 7px; font-family: 'DejaVu Sans', 'Bitstream Vera Sans', 'Computer Modern Sans Serif', 'Lucida Grande', 'Verdana', 'Geneva', 'Lucid', 'Arial', 'Helvetica', 'Avant Garde', sans-serif; text-anchor: end; fill: var(--fg-color)" x="28.96" y="17.41566" transform="rotate(-0 28.96 17.41566)">120</text>
     </g>
    </g>
    <g id="text_11">
     <text style="font-size: 7px; font-family: 'DejaVu Sans', 'Bitstream Vera Sans', 'Computer Modern Sans Serif', 'Lucida Grande', 'Verdana', 'Geneva', 'Lucid', 'Arial', 'Helvetica', 'Avant Garde', sans-serif; text-anchor: middle; fill: var(--fg-color)" x="9.917109" y="54.2" transform="rotate(-90 9.917109 54.2)">ms</text>
    </g>
   </g>
   <g id="line2d_21">
    <path d="M 43.916364 48.599735 
L 45.193108 44.314705 
L 45.766628 45.950016 
L 46.691788 48.780089 
L 47.616947 47.106283 
L 48.542109 47.340103 
L 49.467263 47.983819 
L 50.392418 47.50121 
L 51.317566 47.942473 
L 52.242732 45.21933 
L 53.167891 45.202934 
L 54.093049 44.527138 
L 55.018206 44.095142 
L 55.943359 42.516147 
L 56.868517 46.777652 
L 57.793676 47.112699 
L 58.718827 47.081333 
L 59.643987 44.752404 
L 60.569143 44.934184 
L 61.494301 44.250547 
L 62.419457 46.061936 
L 63.344613 43.723027 
L 64.269773 41.815401 
L 65.194924 43.35804 
L 66.120079 47.226044 
L 67.045243 43.735858 
L 67.970398 43.678829 
L 68.895557 45.847364 
L 69.82071 44.939174 
L 70.74585 43.427188 
L 71.671025 41.269346 
L 72.596178 45.788909 
L 73.521341 40.360444 
L 74.446495 42.769214 
L 75.371653 44.802304 
L 76.296805 46.756266 
L 77.221971 43.729443 
L 78.147114 47.48624 
L 79.072277 41.430454 
L 79.997435 40.65557 
L 80.922594 44.282626 
L 81.847735 46.514605 
L 82.772905 26.298474 
L 83.698046 47.185411 
L 84.623219 43.720175 
L 85.548376 46.096866 
L 86.473535 41.600828 
L 87.398688 43.056498 
L 88.323852 40.888677 
L 97.76512 11.885774 
L 98.500856 21.911504 
L 99.426031 22.380569 
L 100.351186 14.856282 
L 101.276348 44.901392 
L 102.201502 49.689705 
L 103.126656 45.316992 
L 104.051812 46.154608 
L 104.976967 47.862632 
L 105.902123 49.175729 
L 106.827282 42.794877 
L 107.752435 46.385577 
L 108.677594 46.899552 
L 109.602753 47.190401 
L 110.527909 47.198955 
L 111.453063 46.925928 
L 112.378223 45.275646 
L 113.303377 45.123093 
L 114.228537 45.811008 
L 115.153695 46.235162 
L 116.078848 47.558239 
L 117.004011 47.106996 
L 117.929158 49.587052 
L 118.854316 43.265368 
L 119.779481 44.006034 
L 120.704637 45.325547 
L 121.629794 29.203398 
L 122.554943 47.054957 
L 123.480104 44.085875 
L 124.405261 43.537682 
L 125.330416 42.96739 
L 126.255574 48.514191 
L 129.9562 42.463395 
L 130.881363 41.83251 
L 131.806516 40.758222 
L 132.731673 45.046104 
L 133.656831 37.575281 
L 134.581987 41.733421 
L 135.507147 42.224585 
L 136.432285 40.536521 
L 137.357455 43.354476 
L 138.282617 41.744114 
L 139.20777 42.069181 
L 140.13293 42.28304 
L 141.058084 44.487931 
L 141.983242 43.436455 
L 142.908395 37.903912 
L 143.833556 40.549353 
L 144.758724 40.948557 
L 145.683869 9.472727 
L 146.609028 40.036803 
L 147.534182 34.732377 
L 148.459339 41.924469 
L 149.384497 41.635759 
L 150.309651 40.728995 
L 151.234811 40.739688 
L 152.159963 38.026525 
L 179.91473 38.026525 
L 188.548948 44.604128 
L 189.166282 44.1094 
L 190.091439 43.330238 
L 191.016594 43.728017 
L 191.94175 44.832957 
L 192.866913 44.030984 
L 193.792066 44.698939 
L 194.717222 43.911936 
L 195.642377 41.235842 
L 196.567536 47.851227 
L 197.492695 42.768501 
L 198.417852 45.105984 
L 199.343013 43.949718 
L 200.268162 47.538279 
L 201.193322 42.198209 
L 202.118478 41.187367 
L 203.043636 42.007161 
" clip-path="url(#p4808562fed)" style="fill: none; stroke: #339af0; stroke-width: 1.2; stroke-linecap: square"/>
   </g>
   <g id="line2d_22">
    <path d="M 43.916364 98.852422 
L 45.193108 97.563562 
L 45.766628 98.818917 
L 46.691788 98.880224 
L 47.616947 98.877372 
L 48.542109 98.855986 
L 49.467263 98.873095 
L 50.392418 98.897332 
L 51.317566 98.850996 
L 52.242732 98.84957 
L 53.167891 98.791116 
L 54.093049 98.832462 
L 55.018206 98.821056 
L 55.943359 98.927273 
L 56.868517 98.220111 
L 57.793676 98.919431 
L 58.718827 98.883788 
L 59.643987 98.759037 
L 60.569143 98.886639 
L 61.494301 98.808224 
L 62.419457 98.90161 
L 63.344613 98.870244 
L 64.269773 98.699156 
L 65.194924 98.803234 
L 66.120079 98.767591 
L 67.045243 98.801809 
L 67.970398 98.840303 
L 68.895557 98.863115 
L 69.82071 98.885214 
L 70.74585 98.770442 
L 71.671025 98.82961 
L 72.596178 98.899471 
L 73.521341 98.831749 
L 74.446495 98.798957 
L 75.371653 98.873095 
L 76.296805 98.855273 
L 77.221971 98.848858 
L 78.147114 98.880937 
L 79.072277 98.084667 
L 79.997435 98.722681 
L 80.922594 98.826759 
L 81.847735 98.920857 
L 82.772905 98.893055 
L 83.698046 98.865253 
L 84.623219 98.805373 
L 85.548376 98.858838 
L 86.473535 98.782561 
L 87.398688 98.755472 
L 88.323852 98.747631 
L 97.76512 98.77472 
L 98.500856 98.886639 
L 99.426031 98.846719 
L 100.351186 98.771868 
L 101.276348 98.880937 
L 102.201502 98.898045 
L 103.126656 98.79967 
L 104.051812 98.80466 
L 104.976967 98.892342 
L 105.902123 98.805373 
L 106.827282 98.77472 
L 107.752435 98.880937 
L 108.677594 98.903748 
L 109.602753 98.886639 
L 110.527909 98.873095 
L 111.453063 98.857412 
L 112.378223 98.860263 
L 113.303377 98.872382 
L 114.228537 98.858125 
L 115.153695 98.843155 
L 116.078848 98.848858 
L 117.004011 98.79468 
L 117.929158 98.842442 
L 118.854316 98.830323 
L 119.779481 98.750482 
L 120.704637 98.821769 
L 121.629794 98.889491 
L 122.554943 98.788977 
L 123.480104 98.764027 
L 124.405261 98.767591 
L 125.330416 98.634998 
L 126.255574 98.7847 
L 129.9562 98.649255 
L 130.881363 98.701295 
L 131.806516 98.710562 
L 132.731673 98.659236 
L 133.656831 98.639988 
L 134.581987 98.757611 
L 135.507147 98.71769 
L 136.432285 98.748344 
L 137.357455 98.783987 
L 138.282617 98.771868 
L 139.20777 98.725532 
L 140.13293 98.744066 
L 141.058084 98.771155 
L 141.983242 98.687037 
L 142.908395 98.598642 
L 143.833556 98.668503 
L 144.758724 98.781848 
L 145.683869 98.65781 
L 146.609028 98.52593 
L 147.534182 98.700582 
L 148.459339 98.595078 
L 149.384497 98.721255 
L 150.309651 98.659236 
L 151.234811 98.52593 
L 152.159963 98.590801 
L 179.91473 98.590801 
L 188.548948 98.7847 
L 189.166282 98.770442 
L 190.091439 98.754047 
L 191.016594 98.704859 
L 191.94175 98.913728 
L 192.866913 98.79967 
L 193.792066 98.892342 
L 194.717222 98.767591 
L 195.642377 98.654246 
L 196.567536 98.865253 
L 197.492695 98.703433 
L 198.417852 98.714839 
L 199.343013 98.836026 
L 200.268162 98.873808 
L 201.193322 98.801809 
L 202.118478 98.874521 
L 203.043636 98.82462 
" clip-path="url(#p4808562fed)" style="fill: none; stroke: #ff6b6b; stroke-width: 1.2; stroke-linecap: square"/>
   </g>
   <g id="patch_3">
    <path d="M 35.96 103.4 
L 35.96 5 
" style="fill: none; stroke: var(--fg-color); stroke-width: 0.8; stroke-linejoin: miter; stroke-linecap: square"/>
   </g>
   <g id="patch_4">
    <path d="M 35.96 103.4 
L 211 103.4 
" style="fill: none; stroke: var(--fg-color); stroke-width: 0.8; stroke-linejoin: miter; stroke-linecap: square"/>
   </g>
  </g>
 </g>
 <defs>
  <clipPath id="p4808562fed">
   <rect x="35.96" y="5" width="175.04" height="98.4"/>
  </clipPath>
 </defs>
</svg>
