<?xml version="1.0" encoding="utf-8" standalone="no"?>
<!DOCTYPE svg PUBLIC "-//W3C//DTD SVG 1.1//EN"
  "http://www.w3.org/Graphics/SVG/1.1/DTD/svg11.dtd">
<svg xmlns:xlink="http://www.w3.org/1999/xlink" width="216pt" height="122.4pt" viewBox="0 0 216 122.4" xmlns="http://www.w3.org/2000/svg" version="1.1">
  <style>
    :root {
      --fg-color: #212529;
      --grid-color: rgba(33, 37, 41, 0.1);
    }
    @media (prefers-color-scheme: dark) {
      :root {
        --fg-color: #dee2e6;
        --grid-color: rgba(248, 249, 250, 0.15);
      }
    }
  </style>

 <metadata>
  <rdf:RDF xmlns:dc="http://purl.org/dc/elements/1.1/" xmlns:cc="http://creativecommons.org/ns#" xmlns:rdf="http://www.w3.org/1999/02/22-rdf-syntax-ns#">
   <cc:Work>
    <dc:type rdf:resource="http://purl.org/dc/dcmitype/StillImage"/>
    <dc:date>2026-06-30T04:49:27.975481</dc:date>
    <dc:format>image/svg+xml</dc:format>
    <dc:creator>
     <cc:Agent>
      <dc:title>Matplotlib v3.11.0, https://matplotlib.org/</dc:title>
     </cc:Agent>
    </dc:creator>
   </cc:Work>
  </rdf:RDF>
 </metadata>
 <defs>
  <style type="text/css">*{stroke-linejoin: round; stroke-linecap: butt}</style>
 </defs>
 <g id="figure_1">
  <g id="patch_1">
   <path d="M 0 122.4 
L 216 122.4 
L 216 0 
L 0 0 
L 0 122.4 
z
" style="fill: none; opacity: 0"/>
  </g>
  <g id="axes_1">
   <g id="patch_2">
    <path d="M 35.96 103.4 
L 211 103.4 
L 211 5 
L 35.96 5 
L 35.96 103.4 
z
" style="fill: none; opacity: 0"/>
   </g>
   <g id="matplotlib.axis_1">
    <g id="xtick_1">
     <g id="line2d_1">
      <path d="M 70.996911 103.4 
L 70.996911 5 
" clip-path="url(#pcdbdebd4f1)" style="fill: none; stroke-dasharray: 2.96,1.28; stroke-dashoffset: 0; stroke: var(--grid-color); stroke-width: 0.8"/>
     </g>
     <g id="line2d_2">
      <defs>
       <path id="m12403d245d" d="M 0 0 
L 0 3.5 
" style="stroke: var(--fg-color); stroke-width: 0.8"/>
      </defs>
      <g>
       <use xlink:href="#m12403d245d" x="70.996911" y="103.4" style="fill: var(--fg-color); stroke: var(--fg-color); stroke-width: 0.8"/>
      </g>
     </g>
     <g id="text_1">
      <text style="font-size: 7px; font-family: 'DejaVu Sans', 'Bitstream Vera Sans', 'Computer Modern Sans Serif', 'Lucida Grande', 'Verdana', 'Geneva', 'Lucid', 'Arial', 'Helvetica', 'Avant Garde', sans-serif; text-anchor: middle; fill: var(--fg-color)" x="70.996911" y="115.718359" transform="rotate(-0 70.996911 115.718359)">02/2026</text>
     </g>
    </g>
    <g id="xtick_2">
     <g id="line2d_3">
      <path d="M 126.022656 103.4 
L 126.022656 5 
" clip-path="url(#pcdbdebd4f1)" style="fill: none; stroke-dasharray: 2.96,1.28; stroke-dashoffset: 0; stroke: var(--grid-color); stroke-width: 0.8"/>
     </g>
     <g id="line2d_4">
      <g>
       <use xlink:href="#m12403d245d" x="126.022656" y="103.4" style="fill: var(--fg-color); stroke: var(--fg-color); stroke-width: 0.8"/>
      </g>
     </g>
     <g id="text_2">
      <text style="font-size: 7px; font-family: 'DejaVu Sans', 'Bitstream Vera Sans', 'Computer Modern Sans Serif', 'Lucida Grande', 'Verdana', 'Geneva', 'Lucid', 'Arial', 'Helvetica', 'Avant Garde', sans-serif; text-anchor: middle; fill: var(--fg-color)" x="126.022656" y="115.718359" transform="rotate(-0 126.022656 115.718359)">04/2026</text>
     </g>
    </g>
    <g id="xtick_3">
     <g id="line2d_5">
      <path d="M 182.913681 103.4 
L 182.913681 5 
" clip-path="url(#pcdbdebd4f1)" style="fill: none; stroke-dasharray: 2.96,1.28; stroke-dashoffset: 0; stroke: var(--grid-color); stroke-width: 0.8"/>
     </g>
     <g id="line2d_6">
      <g>
       <use xlink:href="#m12403d245d" x="182.913681" y="103.4" style="fill: var(--fg-color); stroke: var(--fg-color); stroke-width: 0.8"/>
      </g>
     </g>
     <g id="text_3">
      <text style="font-size: 7px; font-family: 'DejaVu Sans', 'Bitstream Vera Sans', 'Computer Modern Sans Serif', 'Lucida Grande', 'Verdana', 'Geneva', 'Lucid', 'Arial', 'Helvetica', 'Avant Garde', sans-serif; text-anchor: middle; fill: var(--fg-color)" x="182.913681" y="115.718359" transform="rotate(-0 182.913681 115.718359)">06/2026</text>
     </g>
    </g>
   </g>
   <g id="matplotlib.axis_2">
    <g id="ytick_1">
     <g id="line2d_7">
      <path d="M 35.96 99.210946 
L 211 99.210946 
" clip-path="url(#pcdbdebd4f1)" style="fill: none; stroke-dasharray: 2.96,1.28; stroke-dashoffset: 0; stroke: var(--grid-color); stroke-width: 0.8"/>
     </g>
     <g id="line2d_8">
      <defs>
       <path id="m9089dfa1ca" d="M 0 0 
L -3.5 0 
" style="stroke: var(--fg-color); stroke-width: 0.8"/>
      </defs>
      <g>
       <use xlink:href="#m9089dfa1ca" x="35.96" y="99.210946" style="fill: var(--fg-color); stroke: var(--fg-color); stroke-width: 0.8"/>
      </g>
     </g>
     <g id="text_4">
      <text style="font-size: 7px; font-family: 'DejaVu Sans', 'Bitstream Vera Sans', 'Computer Modern Sans Serif', 'Lucida Grande', 'Verdana', 'Geneva', 'Lucid', 'Arial', 'Helvetica', 'Avant Garde', sans-serif; text-anchor: end; fill: var(--fg-color)" x="28.96" y="101.870125" transform="rotate(-0 28.96 101.870125)">0</text>
     </g>
    </g>
    <g id="ytick_2">
     <g id="line2d_9">
      <path d="M 35.96 79.248047 
L 211 79.248047 
" clip-path="url(#pcdbdebd4f1)" style="fill: none; stroke-dasharray: 2.96,1.28; stroke-dashoffset: 0; stroke: var(--grid-color); stroke-width: 0.8"/>
     </g>
     <g id="line2d_10">
      <g>
       <use xlink:href="#m9089dfa1ca" x="35.96" y="79.248047" style="fill: var(--fg-color); stroke: var(--fg-color); stroke-width: 0.8"/>
      </g>
     </g>
     <g id="text_5">
      <text style="font-size: 7px; font-family: 'DejaVu Sans', 'Bitstream Vera Sans', 'Computer Modern Sans Serif', 'Lucida Grande', 'Verdana', 'Geneva', 'Lucid', 'Arial', 'Helvetica', 'Avant Garde', sans-serif; text-anchor: end; fill: var(--fg-color)" x="28.96" y="81.907227" transform="rotate(-0 28.96 81.907227)">100</text>
     </g>
    </g>
    <g id="ytick_3">
     <g id="line2d_11">
      <path d="M 35.96 59.285149 
L 211 59.285149 
" clip-path="url(#pcdbdebd4f1)" style="fill: none; stroke-dasharray: 2.96,1.28; stroke-dashoffset: 0; stroke: var(--grid-color); stroke-width: 0.8"/>
     </g>
     <g id="line2d_12">
      <g>
       <use xlink:href="#m9089dfa1ca" x="35.96" y="59.285149" style="fill: var(--fg-color); stroke: var(--fg-color); stroke-width: 0.8"/>
      </g>
     </g>
     <g id="text_6">
      <text style="font-size: 7px; font-family: 'DejaVu Sans', 'Bitstream Vera Sans', 'Computer Modern Sans Serif', 'Lucida Grande', 'Verdana', 'Geneva', 'Lucid', 'Arial', 'Helvetica', 'Avant Garde', sans-serif; text-anchor: end; fill: var(--fg-color)" x="28.96" y="61.944329" transform="rotate(-0 28.96 61.944329)">200</text>
     </g>
    </g>
    <g id="ytick_4">
     <g id="line2d_13">
      <path d="M 35.96 39.322251 
L 211 39.322251 
" clip-path="url(#pcdbdebd4f1)" style="fill: none; stroke-dasharray: 2.96,1.28; stroke-dashoffset: 0; stroke: var(--grid-color); stroke-width: 0.8"/>
     </g>
     <g id="line2d_14">
      <g>
       <use xlink:href="#m9089dfa1ca" x="35.96" y="39.322251" style="fill: var(--fg-color); stroke: var(--fg-color); stroke-width: 0.8"/>
      </g>
     </g>
     <g id="text_7">
      <text style="font-size: 7px; font-family: 'DejaVu Sans', 'Bitstream Vera Sans', 'Computer Modern Sans Serif', 'Lucida Grande', 'Verdana', 'Geneva', 'Lucid', 'Arial', 'Helvetica', 'Avant Garde', sans-serif; text-anchor: end; fill: var(--fg-color)" x="28.96" y="41.981431" transform="rotate(-0 28.96 41.981431)">300</text>
     </g>
    </g>
    <g id="ytick_5">
     <g id="line2d_15">
      <path d="M 35.96 19.359353 
L 211 19.359353 
" clip-path="url(#pcdbdebd4f1)" style="fill: none; stroke-dasharray: 2.96,1.28; stroke-dashoffset: 0; stroke: var(--grid-color); stroke-width: 0.8"/>
     </g>
     <g id="line2d_16">
      <g>
       <use xlink:href="#m9089dfa1ca" x="35.96" y="19.359353" style="fill: var(--fg-color); stroke: var(--fg-color); stroke-width: 0.8"/>
      </g>
     </g>
     <g id="text_8">
      <text style="font-size: 7px; font-family: 'DejaVu Sans', 'Bitstream Vera Sans', 'Computer Modern Sans Serif', 'Lucida Grande', 'Verdana', 'Geneva', 'Lucid', 'Arial', 'Helvetica', 'Avant Garde', sans-serif; text-anchor: end; fill: var(--fg-color)" x="28.96" y="22.018532" transform="rotate(-0 28.96 22.018532)">400</text>
     </g>
    </g>
    <g id="text_9">
     <text style="font-size: 7px; font-family: 'DejaVu Sans', 'Bitstream Vera Sans', 'Computer Modern Sans Serif', 'Lucida Grande', 'Verdana', 'Geneva', 'Lucid', 'Arial', 'Helvetica', 'Avant Garde', sans-serif; text-anchor: middle; fill: var(--fg-color)" x="9.917109" y="54.2" transform="rotate(-90 9.917109 54.2)">ms</text>
    </g>
   </g>
   <g id="line2d_17">
    <path d="M 43.916364 80.743867 
L 44.494523 81.369904 
L 45.427166 81.359323 
L 46.359808 78.9504 
L 47.292453 78.882726 
L 48.22509 81.34475 
L 49.157727 78.757759 
L 50.090359 80.471374 
L 51.023007 75.704234 
L 51.95565 78.915665 
L 52.88829 81.2643 
L 53.82093 81.60347 
L 54.753566 80.939504 
L 55.686208 78.84859 
L 56.618849 77.830083 
L 57.551483 78.804072 
L 58.484126 82.908245 
L 59.416765 79.18217 
L 60.349406 81.014764 
L 61.282045 79.900634 
L 62.214684 80.250983 
L 63.147327 77.626661 
L 64.07996 79.430708 
L 65.012598 83.075534 
L 65.945245 78.108365 
L 66.877884 79.09054 
L 67.810526 78.982541 
L 68.743162 78.253895 
L 69.675784 82.371442 
L 70.608443 79.533916 
L 71.541078 79.524533 
L 72.473724 78.017933 
L 73.406361 79.961122 
L 74.339003 79.767682 
L 75.271637 79.597398 
L 76.204286 81.840429 
L 77.136912 81.506849 
L 78.069558 81.120168 
L 79.002199 82.105137 
L 79.934841 80.2957 
L 80.867465 76.725935 
L 81.800118 78.287632 
L 82.732742 80.557414 
L 83.665398 82.807632 
L 84.598038 81.656172 
L 85.53068 80.990409 
L 86.463316 80.589354 
L 87.395962 78.926844 
L 96.913595 61.253291 
L 97.655282 80.62948 
L 98.587939 81.656771 
L 99.520578 79.25204 
L 100.453222 77.917919 
L 101.385859 79.072973 
L 102.318497 80.015022 
L 103.251135 79.809204 
L 104.183773 79.114695 
L 105.116412 81.096811 
L 106.049054 80.47337 
L 106.981691 80.565798 
L 107.914333 75.979123 
L 108.846974 77.157732 
L 109.779613 82.072198 
L 110.71225 81.996539 
L 111.644893 80.502117 
L 112.57753 79.105911 
L 113.510173 79.924989 
L 114.442814 80.262562 
L 115.37545 80.30129 
L 116.308095 76.961098 
L 117.240726 80.156758 
L 118.173367 78.298612 
L 119.106014 80.544238 
L 120.038653 79.614566 
L 120.971293 77.533035 
L 121.903926 75.515385 
L 122.836569 79.417333 
L 123.769209 72.357254 
L 124.701847 81.056087 
L 125.634489 79.529923 
L 129.365046 80.694359 
L 130.297692 81.518627 
L 131.230328 80.133003 
L 132.162968 79.995458 
L 133.095609 79.148233 
L 134.028248 75.945984 
L 134.960891 79.530722 
L 135.893512 79.654692 
L 136.826165 80.551225 
L 137.75881 78.765544 
L 138.691446 79.771275 
L 139.624089 80.340816 
L 140.556726 77.694135 
L 141.489366 76.451046 
L 142.422003 78.781115 
L 143.354646 81.252123 
L 144.287298 78.69228 
L 145.219926 78.582684 
L 146.152567 79.357444 
L 147.085204 76.407526 
L 148.017844 77.983997 
L 148.950485 78.405613 
L 149.883123 77.526846 
L 150.815765 81.061078 
L 151.7484 75.946982 
L 179.727656 75.946982 
L 188.43171 9.472727 
L 189.054038 81.601473 
L 189.986678 75.77051 
L 190.919315 65.509181 
L 191.851955 76.585795 
L 192.7846 77.240179 
L 193.717237 78.005157 
L 194.649875 80.905567 
L 195.582513 80.898979 
L 196.515156 80.281127 
L 197.447798 75.688862 
L 198.380437 76.595377 
L 199.313081 75.043062 
L 200.245713 78.570507 
L 201.178356 77.031966 
L 202.110995 78.173045 
L 203.043636 72.705607 
" clip-path="url(#pcdbdebd4f1)" style="fill: none; stroke: #339af0; stroke-width: 1.2; stroke-linecap: square"/>
   </g>
   <g id="line2d_18">
    <path d="M 43.916364 98.89114 
L 44.494523 98.90711 
L 45.427166 98.902519 
L 46.359808 98.598085 
L 47.292453 98.912301 
L 48.22509 98.899125 
L 49.157727 98.878763 
L 50.090359 98.902519 
L 51.023007 98.899125 
L 51.95565 98.892338 
L 52.88829 98.918888 
L 53.82093 98.900123 
L 54.753566 98.907509 
L 55.686208 98.919288 
L 56.618849 98.89134 
L 57.551483 98.859599 
L 58.484126 98.910504 
L 59.416765 98.893935 
L 60.349406 98.908308 
L 61.282045 98.902718 
L 62.214684 98.807895 
L 63.147327 98.8586 
L 64.07996 98.904515 
L 65.012598 98.92328 
L 65.945245 98.887547 
L 66.877884 97.998998 
L 67.810526 98.896929 
L 68.743162 98.899924 
L 69.675784 98.876567 
L 70.608443 98.883155 
L 71.541078 98.861196 
L 72.473724 98.876966 
L 73.406361 98.890341 
L 74.339003 98.920685 
L 75.271637 98.898726 
L 76.204286 98.913299 
L 77.136912 98.911702 
L 78.069558 98.900922 
L 79.002199 98.915295 
L 79.934841 98.886149 
L 80.867465 98.873972 
L 81.800118 98.864988 
L 82.732742 98.781144 
L 83.665398 98.919886 
L 84.598038 98.89653 
L 85.53068 98.889543 
L 86.463316 98.911302 
L 87.395962 98.879761 
L 96.913595 98.877765 
L 97.655282 98.896131 
L 98.587939 98.905513 
L 99.520578 98.927273 
L 100.453222 98.856205 
L 101.385859 98.902718 
L 102.318497 98.919687 
L 103.251135 98.834645 
L 104.183773 98.895132 
L 105.116412 98.901321 
L 106.049054 98.903517 
L 106.981691 98.825262 
L 107.914333 98.849817 
L 108.846974 98.559157 
L 109.779613 98.904914 
L 110.71225 98.920086 
L 111.644893 98.907909 
L 112.57753 98.88016 
L 113.510173 98.314811 
L 114.442814 98.874171 
L 115.37545 98.88595 
L 116.308095 98.87497 
L 117.240726 98.888944 
L 118.173367 98.894933 
L 119.106014 98.919487 
L 120.038653 98.905114 
L 120.971293 98.877166 
L 121.903926 98.683526 
L 122.836569 98.895332 
L 123.769209 98.885351 
L 124.701847 98.913898 
L 125.634489 98.877565 
L 129.365046 98.88036 
L 130.297692 98.886548 
L 131.230328 98.883953 
L 132.162968 98.882157 
L 133.095609 98.85321 
L 134.028248 98.874171 
L 134.960891 98.61645 
L 135.893512 98.894733 
L 136.826165 98.878763 
L 137.75881 98.899524 
L 138.691446 98.839636 
L 139.624089 98.886149 
L 140.556726 98.545183 
L 141.489366 98.554166 
L 142.422003 98.900123 
L 143.354646 98.889543 
L 144.287298 98.687319 
L 145.219926 98.879761 
L 146.152567 98.891739 
L 147.085204 98.878364 
L 148.017844 98.906112 
L 148.950485 98.879961 
L 149.883123 98.461538 
L 150.815765 98.905114 
L 151.7484 98.614454 
L 179.727656 98.614454 
L 188.43171 98.890541 
L 189.054038 98.911302 
L 189.986678 98.844027 
L 190.919315 98.574728 
L 191.851955 98.217791 
L 192.7846 98.843029 
L 193.717237 98.873373 
L 194.649875 98.884552 
L 195.582513 98.881358 
L 196.515156 98.639807 
L 197.447798 98.871975 
L 198.380437 98.866186 
L 199.313081 98.806697 
L 200.245713 98.880759 
L 201.178356 98.899125 
L 202.110995 98.881957 
L 203.043636 98.855806 
" clip-path="url(#pcdbdebd4f1)" style="fill: none; stroke: #ff6b6b; stroke-width: 1.2; stroke-linecap: square"/>
   </g>
   <g id="patch_3">
    <path d="M 35.96 103.4 
L 35.96 5 
" style="fill: none; stroke: var(--fg-color); stroke-width: 0.8; stroke-linejoin: miter; stroke-linecap: square"/>
   </g>
   <g id="patch_4">
    <path d="M 35.96 103.4 
L 211 103.4 
" style="fill: none; stroke: var(--fg-color); stroke-width: 0.8; stroke-linejoin: miter; stroke-linecap: square"/>
   </g>
  </g>
 </g>
 <defs>
  <clipPath id="pcdbdebd4f1">
   <rect x="35.96" y="5" width="175.04" height="98.4"/>
  </clipPath>
 </defs>
</svg>
