<?xml version="1.0" encoding="utf-8" standalone="no"?>
<!DOCTYPE svg PUBLIC "-//W3C//DTD SVG 1.1//EN"
  "http://www.w3.org/Graphics/SVG/1.1/DTD/svg11.dtd">
<svg xmlns:xlink="http://www.w3.org/1999/xlink" width="216pt" height="122.4pt" viewBox="0 0 216 122.4" xmlns="http://www.w3.org/2000/svg" version="1.1">
  <style>
    :root {
      --fg-color: #212529;
      --grid-color: rgba(33, 37, 41, 0.1);
    }
    @media (prefers-color-scheme: dark) {
      :root {
        --fg-color: #dee2e6;
        --grid-color: rgba(248, 249, 250, 0.15);
      }
    }
  </style>

 <metadata>
  <rdf:RDF xmlns:dc="http://purl.org/dc/elements/1.1/" xmlns:cc="http://creativecommons.org/ns#" xmlns:rdf="http://www.w3.org/1999/02/22-rdf-syntax-ns#">
   <cc:Work>
    <dc:type rdf:resource="http://purl.org/dc/dcmitype/StillImage"/>
    <dc:date>2026-06-30T04:49:04.961850</dc:date>
    <dc:format>image/svg+xml</dc:format>
    <dc:creator>
     <cc:Agent>
      <dc:title>Matplotlib v3.11.0, https://matplotlib.org/</dc:title>
     </cc:Agent>
    </dc:creator>
   </cc:Work>
  </rdf:RDF>
 </metadata>
 <defs>
  <style type="text/css">*{stroke-linejoin: round; stroke-linecap: butt}</style>
 </defs>
 <g id="figure_1">
  <g id="patch_1">
   <path d="M 0 122.4 
L 216 122.4 
L 216 0 
L 0 0 
L 0 122.4 
z
" style="fill: none; opacity: 0"/>
  </g>
  <g id="axes_1">
   <g id="patch_2">
    <path d="M 35.96 103.4 
L 211 103.4 
L 211 5 
L 35.96 5 
L 35.96 103.4 
z
" style="fill: none; opacity: 0"/>
   </g>
   <g id="matplotlib.axis_1">
    <g id="xtick_1">
     <g id="line2d_1">
      <path d="M 70.996911 103.4 
L 70.996911 5 
" clip-path="url(#p072b8f6c5d)" style="fill: none; stroke-dasharray: 2.96,1.28; stroke-dashoffset: 0; stroke: var(--grid-color); stroke-width: 0.8"/>
     </g>
     <g id="line2d_2">
      <defs>
       <path id="m24d7fe1e4c" d="M 0 0 
L 0 3.5 
" style="stroke: var(--fg-color); stroke-width: 0.8"/>
      </defs>
      <g>
       <use xlink:href="#m24d7fe1e4c" x="70.996911" y="103.4" style="fill: var(--fg-color); stroke: var(--fg-color); stroke-width: 0.8"/>
      </g>
     </g>
     <g id="text_1">
      <text style="font-size: 7px; font-family: 'DejaVu Sans', 'Bitstream Vera Sans', 'Computer Modern Sans Serif', 'Lucida Grande', 'Verdana', 'Geneva', 'Lucid', 'Arial', 'Helvetica', 'Avant Garde', sans-serif; text-anchor: middle; fill: var(--fg-color)" x="70.996911" y="115.718359" transform="rotate(-0 70.996911 115.718359)">02/2026</text>
     </g>
    </g>
    <g id="xtick_2">
     <g id="line2d_3">
      <path d="M 126.022656 103.4 
L 126.022656 5 
" clip-path="url(#p072b8f6c5d)" style="fill: none; stroke-dasharray: 2.96,1.28; stroke-dashoffset: 0; stroke: var(--grid-color); stroke-width: 0.8"/>
     </g>
     <g id="line2d_4">
      <g>
       <use xlink:href="#m24d7fe1e4c" x="126.022656" y="103.4" style="fill: var(--fg-color); stroke: var(--fg-color); stroke-width: 0.8"/>
      </g>
     </g>
     <g id="text_2">
      <text style="font-size: 7px; font-family: 'DejaVu Sans', 'Bitstream Vera Sans', 'Computer Modern Sans Serif', 'Lucida Grande', 'Verdana', 'Geneva', 'Lucid', 'Arial', 'Helvetica', 'Avant Garde', sans-serif; text-anchor: middle; fill: var(--fg-color)" x="126.022656" y="115.718359" transform="rotate(-0 126.022656 115.718359)">04/2026</text>
     </g>
    </g>
    <g id="xtick_3">
     <g id="line2d_5">
      <path d="M 182.913681 103.4 
L 182.913681 5 
" clip-path="url(#p072b8f6c5d)" style="fill: none; stroke-dasharray: 2.96,1.28; stroke-dashoffset: 0; stroke: var(--grid-color); stroke-width: 0.8"/>
     </g>
     <g id="line2d_6">
      <g>
       <use xlink:href="#m24d7fe1e4c" x="182.913681" y="103.4" style="fill: var(--fg-color); stroke: var(--fg-color); stroke-width: 0.8"/>
      </g>
     </g>
     <g id="text_3">
      <text style="font-size: 7px; font-family: 'DejaVu Sans', 'Bitstream Vera Sans', 'Computer Modern Sans Serif', 'Lucida Grande', 'Verdana', 'Geneva', 'Lucid', 'Arial', 'Helvetica', 'Avant Garde', sans-serif; text-anchor: middle; fill: var(--fg-color)" x="182.913681" y="115.718359" transform="rotate(-0 182.913681 115.718359)">06/2026</text>
     </g>
    </g>
   </g>
   <g id="matplotlib.axis_2">
    <g id="ytick_1">
     <g id="line2d_7">
      <path d="M 35.96 99.688591 
L 211 99.688591 
" clip-path="url(#p072b8f6c5d)" style="fill: none; stroke-dasharray: 2.96,1.28; stroke-dashoffset: 0; stroke: var(--grid-color); stroke-width: 0.8"/>
     </g>
     <g id="line2d_8">
      <defs>
       <path id="mbc4f4afdfe" d="M 0 0 
L -3.5 0 
" style="stroke: var(--fg-color); stroke-width: 0.8"/>
      </defs>
      <g>
       <use xlink:href="#mbc4f4afdfe" x="35.96" y="99.688591" style="fill: var(--fg-color); stroke: var(--fg-color); stroke-width: 0.8"/>
      </g>
     </g>
     <g id="text_4">
      <text style="font-size: 7px; font-family: 'DejaVu Sans', 'Bitstream Vera Sans', 'Computer Modern Sans Serif', 'Lucida Grande', 'Verdana', 'Geneva', 'Lucid', 'Arial', 'Helvetica', 'Avant Garde', sans-serif; text-anchor: end; fill: var(--fg-color)" x="28.96" y="102.347771" transform="rotate(-0 28.96 102.347771)">0</text>
     </g>
    </g>
    <g id="ytick_2">
     <g id="line2d_9">
      <path d="M 35.96 79.632778 
L 211 79.632778 
" clip-path="url(#p072b8f6c5d)" style="fill: none; stroke-dasharray: 2.96,1.28; stroke-dashoffset: 0; stroke: var(--grid-color); stroke-width: 0.8"/>
     </g>
     <g id="line2d_10">
      <g>
       <use xlink:href="#mbc4f4afdfe" x="35.96" y="79.632778" style="fill: var(--fg-color); stroke: var(--fg-color); stroke-width: 0.8"/>
      </g>
     </g>
     <g id="text_5">
      <text style="font-size: 7px; font-family: 'DejaVu Sans', 'Bitstream Vera Sans', 'Computer Modern Sans Serif', 'Lucida Grande', 'Verdana', 'Geneva', 'Lucid', 'Arial', 'Helvetica', 'Avant Garde', sans-serif; text-anchor: end; fill: var(--fg-color)" x="28.96" y="82.291957" transform="rotate(-0 28.96 82.291957)">50</text>
     </g>
    </g>
    <g id="ytick_3">
     <g id="line2d_11">
      <path d="M 35.96 59.576964 
L 211 59.576964 
" clip-path="url(#p072b8f6c5d)" style="fill: none; stroke-dasharray: 2.96,1.28; stroke-dashoffset: 0; stroke: var(--grid-color); stroke-width: 0.8"/>
     </g>
     <g id="line2d_12">
      <g>
       <use xlink:href="#mbc4f4afdfe" x="35.96" y="59.576964" style="fill: var(--fg-color); stroke: var(--fg-color); stroke-width: 0.8"/>
      </g>
     </g>
     <g id="text_6">
      <text style="font-size: 7px; font-family: 'DejaVu Sans', 'Bitstream Vera Sans', 'Computer Modern Sans Serif', 'Lucida Grande', 'Verdana', 'Geneva', 'Lucid', 'Arial', 'Helvetica', 'Avant Garde', sans-serif; text-anchor: end; fill: var(--fg-color)" x="28.96" y="62.236143" transform="rotate(-0 28.96 62.236143)">100</text>
     </g>
    </g>
    <g id="ytick_4">
     <g id="line2d_13">
      <path d="M 35.96 39.52115 
L 211 39.52115 
" clip-path="url(#p072b8f6c5d)" style="fill: none; stroke-dasharray: 2.96,1.28; stroke-dashoffset: 0; stroke: var(--grid-color); stroke-width: 0.8"/>
     </g>
     <g id="line2d_14">
      <g>
       <use xlink:href="#mbc4f4afdfe" x="35.96" y="39.52115" style="fill: var(--fg-color); stroke: var(--fg-color); stroke-width: 0.8"/>
      </g>
     </g>
     <g id="text_7">
      <text style="font-size: 7px; font-family: 'DejaVu Sans', 'Bitstream Vera Sans', 'Computer Modern Sans Serif', 'Lucida Grande', 'Verdana', 'Geneva', 'Lucid', 'Arial', 'Helvetica', 'Avant Garde', sans-serif; text-anchor: end; fill: var(--fg-color)" x="28.96" y="42.18033" transform="rotate(-0 28.96 42.18033)">150</text>
     </g>
    </g>
    <g id="ytick_5">
     <g id="line2d_15">
      <path d="M 35.96 19.465336 
L 211 19.465336 
" clip-path="url(#p072b8f6c5d)" style="fill: none; stroke-dasharray: 2.96,1.28; stroke-dashoffset: 0; stroke: var(--grid-color); stroke-width: 0.8"/>
     </g>
     <g id="line2d_16">
      <g>
       <use xlink:href="#mbc4f4afdfe" x="35.96" y="19.465336" style="fill: var(--fg-color); stroke: var(--fg-color); stroke-width: 0.8"/>
      </g>
     </g>
     <g id="text_8">
      <text style="font-size: 7px; font-family: 'DejaVu Sans', 'Bitstream Vera Sans', 'Computer Modern Sans Serif', 'Lucida Grande', 'Verdana', 'Geneva', 'Lucid', 'Arial', 'Helvetica', 'Avant Garde', sans-serif; text-anchor: end; fill: var(--fg-color)" x="28.96" y="22.124516" transform="rotate(-0 28.96 22.124516)">200</text>
     </g>
    </g>
    <g id="text_9">
     <text style="font-size: 7px; font-family: 'DejaVu Sans', 'Bitstream Vera Sans', 'Computer Modern Sans Serif', 'Lucida Grande', 'Verdana', 'Geneva', 'Lucid', 'Arial', 'Helvetica', 'Avant Garde', sans-serif; text-anchor: middle; fill: var(--fg-color)" x="9.917109" y="54.2" transform="rotate(-90 9.917109 54.2)">ms</text>
    </g>
   </g>
   <g id="line2d_17">
    <path d="M 43.916364 30.636023 
L 44.494523 36.621079 
L 45.427166 39.720104 
L 46.359808 27.92207 
L 47.292453 22.393886 
L 48.22509 37.985677 
L 49.157727 39.046629 
L 50.090359 33.129362 
L 51.023007 44.164071 
L 51.95565 41.531143 
L 52.88829 37.659168 
L 53.82093 38.693647 
L 54.753566 34.769125 
L 55.686208 37.594588 
L 56.618849 36.619876 
L 57.551483 40.258 
L 58.484126 43.474151 
L 59.416765 40.590125 
L 60.349406 41.848426 
L 61.282045 36.960424 
L 62.214684 45.50781 
L 63.147327 37.571725 
L 64.07996 41.219877 
L 65.012598 44.334144 
L 65.945245 43.312902 
L 66.877884 34.160632 
L 67.810526 33.714189 
L 68.743162 40.841625 
L 69.675784 38.640298 
L 70.608443 18.69439 
L 71.541078 36.039059 
L 72.473724 21.171685 
L 73.406361 14.682425 
L 74.339003 40.56686 
L 75.271637 37.601407 
L 76.204286 34.725003 
L 77.136912 38.59417 
L 78.069558 29.038377 
L 79.002199 39.695635 
L 79.934841 28.098963 
L 80.867465 31.269787 
L 81.800118 30.229692 
L 82.732742 30.062828 
L 83.665398 39.814767 
L 84.598038 42.547171 
L 85.53068 29.311136 
L 86.463316 38.651129 
L 87.395962 35.694902 
L 96.913595 33.179501 
L 97.655282 35.170643 
L 98.587939 41.510687 
L 99.520578 35.424148 
L 100.453222 24.787347 
L 101.385859 29.506079 
L 102.318497 40.550013 
L 103.251135 45.569181 
L 104.183773 40.101565 
L 105.116412 29.768008 
L 106.049054 27.652921 
L 106.981691 23.637747 
L 107.914333 31.386913 
L 108.846974 29.327181 
L 109.779613 38.976835 
L 110.71225 45.571989 
L 111.644893 32.023083 
L 112.57753 30.601928 
L 113.510173 40.220697 
L 114.442814 32.008242 
L 115.37545 46.851149 
L 116.308095 38.035816 
L 117.240726 36.694885 
L 118.173367 30.411799 
L 119.106014 41.787056 
L 120.038653 26.28351 
L 120.971293 39.509919 
L 121.903926 26.564693 
L 122.836569 36.619876 
L 123.769209 38.505523 
L 124.701847 25.382202 
L 125.634489 33.537297 
L 129.365046 39.540805 
L 130.297692 33.87624 
L 131.230328 30.658486 
L 132.162968 41.942288 
L 133.095609 32.79804 
L 134.028248 26.158763 
L 134.960891 40.289288 
L 135.893512 29.991429 
L 136.826165 39.147309 
L 137.75881 27.308764 
L 138.691446 31.032326 
L 139.624089 29.916822 
L 140.556726 26.345282 
L 141.489366 36.396053 
L 142.422003 33.900307 
L 143.354646 37.583357 
L 144.287298 22.174475 
L 145.219926 26.717518 
L 146.152567 32.34518 
L 147.085204 27.056462 
L 148.017844 28.197236 
L 148.950485 31.460317 
L 149.883123 30.992616 
L 150.815765 38.65514 
L 151.7484 28.80212 
L 179.727656 28.80212 
L 188.43171 24.452014 
L 189.054038 30.486006 
L 189.986678 23.763297 
L 190.919315 18.287659 
L 191.851955 31.726658 
L 192.7846 20.629777 
L 193.717237 25.28072 
L 194.649875 30.309515 
L 195.582513 28.333215 
L 196.515156 17.681572 
L 197.447798 9.472727 
L 198.380437 18.068649 
L 199.313081 28.440313 
L 200.245713 32.270973 
L 201.178356 20.589264 
L 202.110995 21.125155 
L 203.043636 20.695961 
" clip-path="url(#p072b8f6c5d)" style="fill: none; stroke: #339af0; stroke-width: 1.2; stroke-linecap: square"/>
   </g>
   <g id="line2d_18">
    <path d="M 43.916364 98.805734 
L 44.494523 98.777255 
L 45.427166 98.170366 
L 46.359808 98.794904 
L 47.292453 98.55624 
L 48.22509 98.772442 
L 49.157727 96.238991 
L 50.090359 98.522546 
L 51.023007 98.829801 
L 51.95565 98.678581 
L 52.88829 98.351671 
L 53.82093 98.174779 
L 54.753566 98.831406 
L 55.686208 98.85427 
L 56.618849 98.709868 
L 57.551483 97.969006 
L 58.484126 98.862693 
L 59.416765 98.760809 
L 60.349406 98.823384 
L 61.282045 98.715082 
L 62.214684 98.886359 
L 63.147327 98.810147 
L 64.07996 98.758804 
L 65.012598 98.877534 
L 65.945245 98.827796 
L 66.877884 98.843841 
L 67.810526 98.828598 
L 68.743162 98.311559 
L 69.675784 98.568274 
L 70.608443 98.279069 
L 71.541078 98.853868 
L 72.473724 98.38737 
L 73.406361 98.344451 
L 74.339003 98.54541 
L 75.271637 97.649717 
L 76.204286 98.867908 
L 77.136912 98.868309 
L 78.069558 98.194433 
L 79.002199 97.485661 
L 79.934841 98.590335 
L 80.867465 98.896788 
L 81.800118 98.456362 
L 82.732742 98.573488 
L 83.665398 98.884754 
L 84.598038 98.87954 
L 85.53068 98.848253 
L 86.463316 98.833412 
L 87.395962 98.269442 
L 96.913595 98.830203 
L 97.655282 98.856676 
L 98.587939 98.924866 
L 99.520578 98.927273 
L 100.453222 98.083725 
L 101.385859 93.44642 
L 102.318497 98.683394 
L 103.251135 98.921256 
L 104.183773 98.891974 
L 105.116412 98.831807 
L 106.049054 98.015535 
L 106.981691 98.779662 
L 107.914333 98.879139 
L 108.846974 98.440719 
L 109.779613 98.52014 
L 110.71225 98.895585 
L 111.644893 98.702246 
L 112.57753 98.037196 
L 113.510173 98.920053 
L 114.442814 97.473226 
L 115.37545 98.922459 
L 116.308095 98.819774 
L 117.240726 98.851863 
L 118.173367 98.291503 
L 119.106014 98.130656 
L 120.038653 98.163146 
L 120.971293 98.610792 
L 121.903926 97.227743 
L 122.836569 97.949752 
L 123.769209 98.82579 
L 124.701847 97.816181 
L 125.634489 98.661734 
L 129.365046 98.033586 
L 130.297692 98.441922 
L 131.230328 98.820175 
L 132.162968 98.849456 
L 133.095609 98.129452 
L 134.028248 98.722703 
L 134.960891 98.814158 
L 135.893512 98.200851 
L 136.826165 98.324395 
L 137.75881 95.758855 
L 138.691446 98.823384 
L 139.624089 98.067279 
L 140.556726 98.810949 
L 141.489366 97.996282 
L 142.422003 97.846665 
L 143.354646 98.466791 
L 144.287298 98.278668 
L 145.219926 98.837423 
L 146.152567 98.107792 
L 147.085204 98.379348 
L 148.017844 98.632452 
L 148.950485 98.785679 
L 149.883123 98.226121 
L 150.815765 98.841033 
L 151.7484 98.243369 
L 179.727656 98.243369 
L 188.43171 98.825389 
L 189.054038 98.906014 
L 189.986678 98.8651 
L 190.919315 98.82218 
L 191.851955 98.873122 
L 192.7846 98.627238 
L 193.717237 97.623645 
L 194.649875 98.902404 
L 195.582513 98.885958 
L 196.515156 98.526156 
L 197.447798 98.111001 
L 198.380437 98.30113 
L 199.313081 98.85788 
L 200.245713 98.895183 
L 201.178356 98.469599 
L 202.110995 98.822982 
L 203.043636 98.239358 
" clip-path="url(#p072b8f6c5d)" style="fill: none; stroke: #ff6b6b; stroke-width: 1.2; stroke-linecap: square"/>
   </g>
   <g id="patch_3">
    <path d="M 35.96 103.4 
L 35.96 5 
" style="fill: none; stroke: var(--fg-color); stroke-width: 0.8; stroke-linejoin: miter; stroke-linecap: square"/>
   </g>
   <g id="patch_4">
    <path d="M 35.96 103.4 
L 211 103.4 
" style="fill: none; stroke: var(--fg-color); stroke-width: 0.8; stroke-linejoin: miter; stroke-linecap: square"/>
   </g>
  </g>
 </g>
 <defs>
  <clipPath id="p072b8f6c5d">
   <rect x="35.96" y="5" width="175.04" height="98.4"/>
  </clipPath>
 </defs>
</svg>
