<?xml version="1.0" encoding="utf-8" standalone="no"?>
<!DOCTYPE svg PUBLIC "-//W3C//DTD SVG 1.1//EN"
  "http://www.w3.org/Graphics/SVG/1.1/DTD/svg11.dtd">
<svg xmlns:xlink="http://www.w3.org/1999/xlink" width="216pt" height="122.4pt" viewBox="0 0 216 122.4" xmlns="http://www.w3.org/2000/svg" version="1.1">
  <style>
    :root {
      --fg-color: #212529;
      --grid-color: rgba(33, 37, 41, 0.1);
    }
    @media (prefers-color-scheme: dark) {
      :root {
        --fg-color: #dee2e6;
        --grid-color: rgba(248, 249, 250, 0.15);
      }
    }
  </style>

 <metadata>
  <rdf:RDF xmlns:dc="http://purl.org/dc/elements/1.1/" xmlns:cc="http://creativecommons.org/ns#" xmlns:rdf="http://www.w3.org/1999/02/22-rdf-syntax-ns#">
   <cc:Work>
    <dc:type rdf:resource="http://purl.org/dc/dcmitype/StillImage"/>
    <dc:date>2026-06-30T04:49:11.086418</dc:date>
    <dc:format>image/svg+xml</dc:format>
    <dc:creator>
     <cc:Agent>
      <dc:title>Matplotlib v3.11.0, https://matplotlib.org/</dc:title>
     </cc:Agent>
    </dc:creator>
   </cc:Work>
  </rdf:RDF>
 </metadata>
 <defs>
  <style type="text/css">*{stroke-linejoin: round; stroke-linecap: butt}</style>
 </defs>
 <g id="figure_1">
  <g id="patch_1">
   <path d="M 0 122.4 
L 216 122.4 
L 216 0 
L 0 0 
L 0 122.4 
z
" style="fill: none; opacity: 0"/>
  </g>
  <g id="axes_1">
   <g id="patch_2">
    <path d="M 35.96 103.4 
L 211 103.4 
L 211 5 
L 35.96 5 
L 35.96 103.4 
z
" style="fill: none; opacity: 0"/>
   </g>
   <g id="matplotlib.axis_1">
    <g id="xtick_1">
     <g id="line2d_1">
      <path d="M 70.996911 103.4 
L 70.996911 5 
" clip-path="url(#pc4900adb48)" style="fill: none; stroke-dasharray: 2.96,1.28; stroke-dashoffset: 0; stroke: var(--grid-color); stroke-width: 0.8"/>
     </g>
     <g id="line2d_2">
      <defs>
       <path id="m1e9a0bf252" d="M 0 0 
L 0 3.5 
" style="stroke: var(--fg-color); stroke-width: 0.8"/>
      </defs>
      <g>
       <use xlink:href="#m1e9a0bf252" x="70.996911" y="103.4" style="fill: var(--fg-color); stroke: var(--fg-color); stroke-width: 0.8"/>
      </g>
     </g>
     <g id="text_1">
      <text style="font-size: 7px; font-family: 'DejaVu Sans', 'Bitstream Vera Sans', 'Computer Modern Sans Serif', 'Lucida Grande', 'Verdana', 'Geneva', 'Lucid', 'Arial', 'Helvetica', 'Avant Garde', sans-serif; text-anchor: middle; fill: var(--fg-color)" x="70.996911" y="115.718359" transform="rotate(-0 70.996911 115.718359)">02/2026</text>
     </g>
    </g>
    <g id="xtick_2">
     <g id="line2d_3">
      <path d="M 126.022656 103.4 
L 126.022656 5 
" clip-path="url(#pc4900adb48)" style="fill: none; stroke-dasharray: 2.96,1.28; stroke-dashoffset: 0; stroke: var(--grid-color); stroke-width: 0.8"/>
     </g>
     <g id="line2d_4">
      <g>
       <use xlink:href="#m1e9a0bf252" x="126.022656" y="103.4" style="fill: var(--fg-color); stroke: var(--fg-color); stroke-width: 0.8"/>
      </g>
     </g>
     <g id="text_2">
      <text style="font-size: 7px; font-family: 'DejaVu Sans', 'Bitstream Vera Sans', 'Computer Modern Sans Serif', 'Lucida Grande', 'Verdana', 'Geneva', 'Lucid', 'Arial', 'Helvetica', 'Avant Garde', sans-serif; text-anchor: middle; fill: var(--fg-color)" x="126.022656" y="115.718359" transform="rotate(-0 126.022656 115.718359)">04/2026</text>
     </g>
    </g>
    <g id="xtick_3">
     <g id="line2d_5">
      <path d="M 182.913681 103.4 
L 182.913681 5 
" clip-path="url(#pc4900adb48)" style="fill: none; stroke-dasharray: 2.96,1.28; stroke-dashoffset: 0; stroke: var(--grid-color); stroke-width: 0.8"/>
     </g>
     <g id="line2d_6">
      <g>
       <use xlink:href="#m1e9a0bf252" x="182.913681" y="103.4" style="fill: var(--fg-color); stroke: var(--fg-color); stroke-width: 0.8"/>
      </g>
     </g>
     <g id="text_3">
      <text style="font-size: 7px; font-family: 'DejaVu Sans', 'Bitstream Vera Sans', 'Computer Modern Sans Serif', 'Lucida Grande', 'Verdana', 'Geneva', 'Lucid', 'Arial', 'Helvetica', 'Avant Garde', sans-serif; text-anchor: middle; fill: var(--fg-color)" x="182.913681" y="115.718359" transform="rotate(-0 182.913681 115.718359)">06/2026</text>
     </g>
    </g>
   </g>
   <g id="matplotlib.axis_2">
    <g id="ytick_1">
     <g id="line2d_7">
      <path d="M 35.96 99.644554 
L 211 99.644554 
" clip-path="url(#pc4900adb48)" style="fill: none; stroke-dasharray: 2.96,1.28; stroke-dashoffset: 0; stroke: var(--grid-color); stroke-width: 0.8"/>
     </g>
     <g id="line2d_8">
      <defs>
       <path id="m213068213e" d="M 0 0 
L -3.5 0 
" style="stroke: var(--fg-color); stroke-width: 0.8"/>
      </defs>
      <g>
       <use xlink:href="#m213068213e" x="35.96" y="99.644554" style="fill: var(--fg-color); stroke: var(--fg-color); stroke-width: 0.8"/>
      </g>
     </g>
     <g id="text_4">
      <text style="font-size: 7px; font-family: 'DejaVu Sans', 'Bitstream Vera Sans', 'Computer Modern Sans Serif', 'Lucida Grande', 'Verdana', 'Geneva', 'Lucid', 'Arial', 'Helvetica', 'Avant Garde', sans-serif; text-anchor: end; fill: var(--fg-color)" x="28.96" y="102.303733" transform="rotate(-0 28.96 102.303733)">0</text>
     </g>
    </g>
    <g id="ytick_2">
     <g id="line2d_9">
      <path d="M 35.96 74.263058 
L 211 74.263058 
" clip-path="url(#pc4900adb48)" style="fill: none; stroke-dasharray: 2.96,1.28; stroke-dashoffset: 0; stroke: var(--grid-color); stroke-width: 0.8"/>
     </g>
     <g id="line2d_10">
      <g>
       <use xlink:href="#m213068213e" x="35.96" y="74.263058" style="fill: var(--fg-color); stroke: var(--fg-color); stroke-width: 0.8"/>
      </g>
     </g>
     <g id="text_5">
      <text style="font-size: 7px; font-family: 'DejaVu Sans', 'Bitstream Vera Sans', 'Computer Modern Sans Serif', 'Lucida Grande', 'Verdana', 'Geneva', 'Lucid', 'Arial', 'Helvetica', 'Avant Garde', sans-serif; text-anchor: end; fill: var(--fg-color)" x="28.96" y="76.922237" transform="rotate(-0 28.96 76.922237)">50</text>
     </g>
    </g>
    <g id="ytick_3">
     <g id="line2d_11">
      <path d="M 35.96 48.881561 
L 211 48.881561 
" clip-path="url(#pc4900adb48)" style="fill: none; stroke-dasharray: 2.96,1.28; stroke-dashoffset: 0; stroke: var(--grid-color); stroke-width: 0.8"/>
     </g>
     <g id="line2d_12">
      <g>
       <use xlink:href="#m213068213e" x="35.96" y="48.881561" style="fill: var(--fg-color); stroke: var(--fg-color); stroke-width: 0.8"/>
      </g>
     </g>
     <g id="text_6">
      <text style="font-size: 7px; font-family: 'DejaVu Sans', 'Bitstream Vera Sans', 'Computer Modern Sans Serif', 'Lucida Grande', 'Verdana', 'Geneva', 'Lucid', 'Arial', 'Helvetica', 'Avant Garde', sans-serif; text-anchor: end; fill: var(--fg-color)" x="28.96" y="51.540741" transform="rotate(-0 28.96 51.540741)">100</text>
     </g>
    </g>
    <g id="ytick_4">
     <g id="line2d_13">
      <path d="M 35.96 23.500065 
L 211 23.500065 
" clip-path="url(#pc4900adb48)" style="fill: none; stroke-dasharray: 2.96,1.28; stroke-dashoffset: 0; stroke: var(--grid-color); stroke-width: 0.8"/>
     </g>
     <g id="line2d_14">
      <g>
       <use xlink:href="#m213068213e" x="35.96" y="23.500065" style="fill: var(--fg-color); stroke: var(--fg-color); stroke-width: 0.8"/>
      </g>
     </g>
     <g id="text_7">
      <text style="font-size: 7px; font-family: 'DejaVu Sans', 'Bitstream Vera Sans', 'Computer Modern Sans Serif', 'Lucida Grande', 'Verdana', 'Geneva', 'Lucid', 'Arial', 'Helvetica', 'Avant Garde', sans-serif; text-anchor: end; fill: var(--fg-color)" x="28.96" y="26.159245" transform="rotate(-0 28.96 26.159245)">150</text>
     </g>
    </g>
    <g id="text_8">
     <text style="font-size: 7px; font-family: 'DejaVu Sans', 'Bitstream Vera Sans', 'Computer Modern Sans Serif', 'Lucida Grande', 'Verdana', 'Geneva', 'Lucid', 'Arial', 'Helvetica', 'Avant Garde', sans-serif; text-anchor: middle; fill: var(--fg-color)" x="9.917109" y="54.2" transform="rotate(-90 9.917109 54.2)">ms</text>
    </g>
   </g>
   <g id="line2d_15">
    <path d="M 43.916364 32.225716 
L 44.494523 30.949027 
L 45.427166 39.281772 
L 46.359808 35.324289 
L 47.292453 38.188337 
L 48.22509 41.210765 
L 49.157727 40.035602 
L 50.090359 16.123695 
L 51.023007 27.051952 
L 51.95565 43.215904 
L 52.88829 41.192998 
L 53.82093 43.019959 
L 54.753566 28.302752 
L 55.686208 36.657325 
L 56.618849 34.584672 
L 57.551483 40.098041 
L 58.484126 35.592825 
L 59.416765 32.842994 
L 60.349406 25.510787 
L 61.282045 18.166905 
L 62.214684 36.410617 
L 63.147327 18.095837 
L 64.07996 30.626174 
L 65.012598 30.316012 
L 65.945245 40.363531 
L 66.877884 43.76719 
L 67.810526 22.183781 
L 68.743162 36.576612 
L 69.675784 27.704764 
L 70.608443 32.847055 
L 71.541078 24.868635 
L 72.473724 24.384356 
L 73.406361 28.665199 
L 74.339003 29.741375 
L 75.271637 29.328164 
L 76.204286 12.806333 
L 77.136912 28.786015 
L 78.069558 28.934751 
L 79.002199 44.116947 
L 79.934841 35.05423 
L 80.867465 37.482224 
L 81.800118 24.757972 
L 82.732742 41.133606 
L 83.665398 35.089256 
L 84.598038 33.398849 
L 85.53068 33.510527 
L 86.463316 9.472727 
L 87.395962 25.283369 
L 96.913595 37.472579 
L 97.655282 24.290952 
L 98.587939 21.401523 
L 99.520578 16.447055 
L 100.453222 18.015124 
L 101.385859 30.934305 
L 102.318497 38.132498 
L 103.251135 42.207751 
L 104.183773 37.902541 
L 105.116412 29.395171 
L 106.049054 40.217841 
L 106.981691 31.840425 
L 107.914333 33.701396 
L 108.846974 17.83593 
L 109.779613 24.508726 
L 110.71225 36.670523 
L 111.644893 38.871607 
L 112.57753 16.276491 
L 113.510173 31.774433 
L 114.442814 39.854886 
L 115.37545 44.197152 
L 116.308095 37.231454 
L 117.240726 31.530263 
L 118.173367 31.115529 
L 119.106014 17.768923 
L 120.038653 34.655233 
L 120.971293 29.440858 
L 121.903926 31.800322 
L 122.836569 38.916278 
L 123.769209 34.251667 
L 124.701847 34.28314 
L 125.634489 26.690011 
L 129.365046 18.670982 
L 130.297692 27.989544 
L 131.230328 33.069904 
L 132.162968 30.260173 
L 133.095609 33.08158 
L 134.028248 39.691429 
L 134.960891 39.976209 
L 135.893512 27.886495 
L 136.826165 39.691937 
L 137.75881 28.634234 
L 138.691446 33.737438 
L 139.624089 27.508819 
L 140.556726 36.385235 
L 141.489366 27.471254 
L 142.422003 33.026756 
L 143.354646 36.320766 
L 144.287298 21.963469 
L 145.219926 21.701532 
L 146.152567 40.224441 
L 147.085204 24.256434 
L 148.017844 33.948104 
L 148.950485 36.193351 
L 149.883123 31.775956 
L 150.815765 23.376203 
L 151.7484 24.152877 
L 179.727656 24.152877 
L 188.43171 30.227684 
L 189.054038 30.898264 
L 189.986678 16.036382 
L 190.919315 31.249543 
L 191.851955 26.599146 
L 192.7846 41.249853 
L 193.717237 25.582363 
L 194.649875 23.787384 
L 195.582513 30.135296 
L 196.515156 23.333055 
L 197.447798 39.173139 
L 198.380437 42.498623 
L 199.313081 11.317454 
L 200.245713 34.729347 
L 201.178356 28.823072 
L 202.110995 27.730653 
L 203.043636 24.793506 
" clip-path="url(#pc4900adb48)" style="fill: none; stroke: #339af0; stroke-width: 1.2; stroke-linecap: square"/>
   </g>
   <g id="line2d_16">
    <path d="M 43.916364 98.854682 
L 44.494523 98.904429 
L 45.427166 98.860266 
L 46.359808 98.851636 
L 47.292453 98.873464 
L 48.22509 98.868388 
L 49.157727 98.897323 
L 50.090359 98.345529 
L 51.023007 98.863819 
L 51.95565 98.888693 
L 52.88829 98.872449 
L 53.82093 98.891231 
L 54.753566 98.849605 
L 55.686208 98.886155 
L 56.618849 98.791736 
L 57.551483 98.880063 
L 58.484126 98.872956 
L 59.416765 98.880571 
L 60.349406 98.854682 
L 61.282045 98.882601 
L 62.214684 98.884124 
L 63.147327 98.836407 
L 64.07996 98.851636 
L 65.012598 98.830823 
L 65.945245 98.867372 
L 66.877884 98.866357 
L 67.810526 98.881586 
L 68.743162 98.870418 
L 69.675784 98.772446 
L 70.608443 98.803919 
L 71.541078 98.877525 
L 72.473724 98.905952 
L 73.406361 98.846052 
L 74.339003 98.896307 
L 75.271637 98.927273 
L 76.204286 98.838437 
L 77.136912 98.843006 
L 78.069558 98.862804 
L 79.002199 98.869403 
L 79.934841 98.850621 
L 80.867465 98.872956 
L 81.800118 98.877525 
L 82.732742 98.856712 
L 83.665398 98.865342 
L 84.598038 98.850621 
L 85.53068 98.803919 
L 86.463316 98.852651 
L 87.395962 98.868388 
L 96.913595 98.886662 
L 97.655282 98.871433 
L 98.587939 98.911029 
L 99.520578 98.835899 
L 100.453222 98.846052 
L 101.385859 98.821178 
L 102.318497 98.888693 
L 103.251135 98.890216 
L 104.183773 98.863311 
L 105.116412 98.894277 
L 106.049054 98.895292 
L 106.981691 98.879048 
L 107.914333 98.903414 
L 108.846974 98.870926 
L 109.779613 98.878033 
L 110.71225 98.893769 
L 111.644893 98.852143 
L 112.57753 98.809503 
L 113.510173 98.869403 
L 114.442814 98.855697 
L 115.37545 98.920674 
L 116.308095 98.886662 
L 117.240726 98.883617 
L 118.173367 98.159229 
L 119.106014 98.868388 
L 120.038653 98.903922 
L 120.971293 98.861281 
L 121.903926 98.888693 
L 122.836569 98.82067 
L 123.769209 98.797319 
L 124.701847 98.748079 
L 125.634489 98.706961 
L 129.365046 98.465329 
L 130.297692 98.785136 
L 131.230328 98.733866 
L 132.162968 98.783106 
L 133.095609 98.806964 
L 134.028248 98.79935 
L 134.960891 98.751633 
L 135.893512 98.810518 
L 136.826165 98.580561 
L 137.75881 98.656198 
L 138.691446 98.827777 
L 139.624089 98.787674 
L 140.556726 98.812041 
L 141.489366 98.684118 
L 142.422003 98.766862 
L 143.354646 98.773968 
L 144.287298 98.79072 
L 145.219926 98.361265 
L 146.152567 98.801381 
L 147.085204 98.735389 
L 148.017844 98.743511 
L 148.950485 98.745541 
L 149.883123 98.684626 
L 150.815765 98.717114 
L 151.7484 98.767369 
L 179.727656 98.767369 
L 188.43171 98.792243 
L 189.054038 98.747064 
L 189.986678 98.701885 
L 190.919315 98.83996 
L 191.851955 98.795289 
L 192.7846 98.797319 
L 193.717237 98.772953 
L 194.649875 98.83793 
L 195.582513 98.87651 
L 196.515156 98.840468 
L 197.447798 98.785136 
L 198.380437 98.797319 
L 199.313081 98.772953 
L 200.245713 98.793766 
L 201.178356 98.860266 
L 202.110995 98.729297 
L 203.043636 98.826762 
" clip-path="url(#pc4900adb48)" style="fill: none; stroke: #ff6b6b; stroke-width: 1.2; stroke-linecap: square"/>
   </g>
   <g id="patch_3">
    <path d="M 35.96 103.4 
L 35.96 5 
" style="fill: none; stroke: var(--fg-color); stroke-width: 0.8; stroke-linejoin: miter; stroke-linecap: square"/>
   </g>
   <g id="patch_4">
    <path d="M 35.96 103.4 
L 211 103.4 
" style="fill: none; stroke: var(--fg-color); stroke-width: 0.8; stroke-linejoin: miter; stroke-linecap: square"/>
   </g>
  </g>
 </g>
 <defs>
  <clipPath id="pc4900adb48">
   <rect x="35.96" y="5" width="175.04" height="98.4"/>
  </clipPath>
 </defs>
</svg>
