<?xml version="1.0" encoding="utf-8" standalone="no"?>
<!DOCTYPE svg PUBLIC "-//W3C//DTD SVG 1.1//EN"
  "http://www.w3.org/Graphics/SVG/1.1/DTD/svg11.dtd">
<svg xmlns:xlink="http://www.w3.org/1999/xlink" width="216pt" height="122.4pt" viewBox="0 0 216 122.4" xmlns="http://www.w3.org/2000/svg" version="1.1">
  <style>
    :root {
      --fg-color: #212529;
      --grid-color: rgba(33, 37, 41, 0.1);
    }
    @media (prefers-color-scheme: dark) {
      :root {
        --fg-color: #dee2e6;
        --grid-color: rgba(248, 249, 250, 0.15);
      }
    }
  </style>

 <metadata>
  <rdf:RDF xmlns:dc="http://purl.org/dc/elements/1.1/" xmlns:cc="http://creativecommons.org/ns#" xmlns:rdf="http://www.w3.org/1999/02/22-rdf-syntax-ns#">
   <cc:Work>
    <dc:type rdf:resource="http://purl.org/dc/dcmitype/StillImage"/>
    <dc:date>2026-06-30T04:48:17.538392</dc:date>
    <dc:format>image/svg+xml</dc:format>
    <dc:creator>
     <cc:Agent>
      <dc:title>Matplotlib v3.11.0, https://matplotlib.org/</dc:title>
     </cc:Agent>
    </dc:creator>
   </cc:Work>
  </rdf:RDF>
 </metadata>
 <defs>
  <style type="text/css">*{stroke-linejoin: round; stroke-linecap: butt}</style>
 </defs>
 <g id="figure_1">
  <g id="patch_1">
   <path d="M 0 122.4 
L 216 122.4 
L 216 0 
L 0 0 
L 0 122.4 
z
" style="fill: none; opacity: 0"/>
  </g>
  <g id="axes_1">
   <g id="patch_2">
    <path d="M 31.64 103.4 
L 211 103.4 
L 211 5 
L 31.64 5 
L 31.64 103.4 
z
" style="fill: none; opacity: 0"/>
   </g>
   <g id="matplotlib.axis_1">
    <g id="xtick_1">
     <g id="line2d_1">
      <path d="M 123.458091 103.4 
L 123.458091 5 
" clip-path="url(#p7e356c7167)" style="fill: none; stroke-dasharray: 2.96,1.28; stroke-dashoffset: 0; stroke: var(--grid-color); stroke-width: 0.8"/>
     </g>
     <g id="line2d_2">
      <defs>
       <path id="md8c6277308" d="M 0 0 
L 0 3.5 
" style="stroke: var(--fg-color); stroke-width: 0.8"/>
      </defs>
      <g>
       <use xlink:href="#md8c6277308" x="123.458091" y="103.4" style="fill: var(--fg-color); stroke: var(--fg-color); stroke-width: 0.8"/>
      </g>
     </g>
     <g id="text_1">
      <text style="font-size: 7px; font-family: 'DejaVu Sans', 'Bitstream Vera Sans', 'Computer Modern Sans Serif', 'Lucida Grande', 'Verdana', 'Geneva', 'Lucid', 'Arial', 'Helvetica', 'Avant Garde', sans-serif; text-anchor: middle; fill: var(--fg-color)" x="123.458091" y="115.718359" transform="rotate(-0 123.458091 115.718359)">05/2026</text>
     </g>
    </g>
   </g>
   <g id="matplotlib.axis_2">
    <g id="ytick_1">
     <g id="line2d_3">
      <path d="M 31.64 101.226538 
L 211 101.226538 
" clip-path="url(#p7e356c7167)" style="fill: none; stroke-dasharray: 2.96,1.28; stroke-dashoffset: 0; stroke: var(--grid-color); stroke-width: 0.8"/>
     </g>
     <g id="line2d_4">
      <defs>
       <path id="mb2cac0ff57" d="M 0 0 
L -3.5 0 
" style="stroke: var(--fg-color); stroke-width: 0.8"/>
      </defs>
      <g>
       <use xlink:href="#mb2cac0ff57" x="31.64" y="101.226538" style="fill: var(--fg-color); stroke: var(--fg-color); stroke-width: 0.8"/>
      </g>
     </g>
     <g id="text_2">
      <text style="font-size: 7px; font-family: 'DejaVu Sans', 'Bitstream Vera Sans', 'Computer Modern Sans Serif', 'Lucida Grande', 'Verdana', 'Geneva', 'Lucid', 'Arial', 'Helvetica', 'Avant Garde', sans-serif; text-anchor: end; fill: var(--fg-color)" x="24.64" y="103.885718" transform="rotate(-0 24.64 103.885718)">0</text>
     </g>
    </g>
    <g id="ytick_2">
     <g id="line2d_5">
      <path d="M 31.64 77.13785 
L 211 77.13785 
" clip-path="url(#p7e356c7167)" style="fill: none; stroke-dasharray: 2.96,1.28; stroke-dashoffset: 0; stroke: var(--grid-color); stroke-width: 0.8"/>
     </g>
     <g id="line2d_6">
      <g>
       <use xlink:href="#mb2cac0ff57" x="31.64" y="77.13785" style="fill: var(--fg-color); stroke: var(--fg-color); stroke-width: 0.8"/>
      </g>
     </g>
     <g id="text_3">
      <text style="font-size: 7px; font-family: 'DejaVu Sans', 'Bitstream Vera Sans', 'Computer Modern Sans Serif', 'Lucida Grande', 'Verdana', 'Geneva', 'Lucid', 'Arial', 'Helvetica', 'Avant Garde', sans-serif; text-anchor: end; fill: var(--fg-color)" x="24.64" y="79.79703" transform="rotate(-0 24.64 79.79703)">20</text>
     </g>
    </g>
    <g id="ytick_3">
     <g id="line2d_7">
      <path d="M 31.64 53.049163 
L 211 53.049163 
" clip-path="url(#p7e356c7167)" style="fill: none; stroke-dasharray: 2.96,1.28; stroke-dashoffset: 0; stroke: var(--grid-color); stroke-width: 0.8"/>
     </g>
     <g id="line2d_8">
      <g>
       <use xlink:href="#mb2cac0ff57" x="31.64" y="53.049163" style="fill: var(--fg-color); stroke: var(--fg-color); stroke-width: 0.8"/>
      </g>
     </g>
     <g id="text_4">
      <text style="font-size: 7px; font-family: 'DejaVu Sans', 'Bitstream Vera Sans', 'Computer Modern Sans Serif', 'Lucida Grande', 'Verdana', 'Geneva', 'Lucid', 'Arial', 'Helvetica', 'Avant Garde', sans-serif; text-anchor: end; fill: var(--fg-color)" x="24.64" y="55.708343" transform="rotate(-0 24.64 55.708343)">40</text>
     </g>
    </g>
    <g id="ytick_4">
     <g id="line2d_9">
      <path d="M 31.64 28.960475 
L 211 28.960475 
" clip-path="url(#p7e356c7167)" style="fill: none; stroke-dasharray: 2.96,1.28; stroke-dashoffset: 0; stroke: var(--grid-color); stroke-width: 0.8"/>
     </g>
     <g id="line2d_10">
      <g>
       <use xlink:href="#mb2cac0ff57" x="31.64" y="28.960475" style="fill: var(--fg-color); stroke: var(--fg-color); stroke-width: 0.8"/>
      </g>
     </g>
     <g id="text_5">
      <text style="font-size: 7px; font-family: 'DejaVu Sans', 'Bitstream Vera Sans', 'Computer Modern Sans Serif', 'Lucida Grande', 'Verdana', 'Geneva', 'Lucid', 'Arial', 'Helvetica', 'Avant Garde', sans-serif; text-anchor: end; fill: var(--fg-color)" x="24.64" y="31.619655" transform="rotate(-0 24.64 31.619655)">60</text>
     </g>
    </g>
    <g id="text_6">
     <text style="font-size: 7px; font-family: 'DejaVu Sans', 'Bitstream Vera Sans', 'Computer Modern Sans Serif', 'Lucida Grande', 'Verdana', 'Geneva', 'Lucid', 'Arial', 'Helvetica', 'Avant Garde', sans-serif; text-anchor: middle; fill: var(--fg-color)" x="10.050859" y="54.2" transform="rotate(-90 10.050859 54.2)">ms</text>
    </g>
   </g>
   <g id="line2d_11">
    <path d="M 39.792727 23.609174 
L 41.302488 29.569919 
L 42.81225 27.0659 
L 44.322012 19.583954 
L 45.831779 25.231547 
L 47.341537 30.78158 
L 48.851304 26.136077 
L 50.361071 29.422978 
L 51.870833 32.170293 
L 53.380592 31.539169 
L 54.890362 24.844923 
L 56.40012 24.272817 
L 57.909888 30.023991 
L 59.419654 31.008014 
L 60.929413 30.682817 
L 62.439185 28.281174 
L 63.948934 26.987612 
L 65.458699 28.564217 
L 66.968475 22.161443 
L 68.478238 29.768651 
L 69.988001 26.351671 
L 71.497753 33.967309 
L 73.007523 29.979427 
L 74.517287 28.246246 
L 76.027048 29.952929 
L 77.536814 27.138166 
L 83.575866 28.90748 
L 85.08564 28.741268 
L 86.595397 28.614803 
L 88.105161 26.479341 
L 89.614928 28.129416 
L 91.12469 33.039895 
L 92.634459 29.22786 
L 94.144192 28.213726 
L 95.653976 26.085491 
L 97.163748 27.041811 
L 98.673506 28.935182 
L 100.183275 22.838336 
L 101.693034 24.712435 
L 103.202799 29.555466 
L 104.712557 22.852789 
L 106.222327 27.658482 
L 107.732109 22.587813 
L 109.241854 16.353661 
L 110.75162 25.388123 
L 112.26138 24.109014 
L 113.771144 25.156872 
L 115.280909 26.692526 
L 116.790669 26.05538 
L 118.300437 24.288475 
L 119.810193 24.259568 
L 165.103204 24.259568 
L 179.193387 23.527272 
L 180.200815 24.829266 
L 181.710579 29.374801 
L 183.220338 26.746725 
L 184.730102 27.24777 
L 186.239875 23.564609 
L 187.749633 28.412458 
L 189.259394 23.829585 
L 190.769155 25.985523 
L 192.278923 28.606372 
L 193.788691 9.472727 
L 195.298454 28.44016 
L 196.808224 30.829758 
L 198.317976 27.010496 
L 199.827744 31.908931 
L 201.337506 27.295947 
L 202.847273 24.501659 
" clip-path="url(#p7e356c7167)" style="fill: none; stroke: #339af0; stroke-width: 1.2; stroke-linecap: square"/>
   </g>
   <g id="line2d_12">
    <path d="M 39.792727 98.786354 
L 41.302488 98.793581 
L 42.81225 98.839349 
L 44.322012 98.851393 
L 45.831779 98.745403 
L 47.341537 98.838145 
L 48.851304 98.67675 
L 50.361071 98.781536 
L 51.870833 98.927273 
L 53.380592 98.751425 
L 54.890362 98.6358 
L 56.40012 98.853802 
L 57.909888 98.733359 
L 59.419654 98.811647 
L 60.929413 98.757447 
L 62.439185 98.681568 
L 63.948934 98.886322 
L 65.458699 98.812851 
L 66.968475 98.600871 
L 68.478238 98.762265 
L 69.988001 98.785149 
L 71.497753 98.911615 
L 73.007523 98.628573 
L 74.517287 98.712883 
L 76.027048 98.567147 
L 77.536814 98.622551 
L 83.575866 98.397322 
L 85.08564 96.908641 
L 86.595397 98.499699 
L 88.105161 98.617733 
L 89.614928 98.503312 
L 91.12469 98.833327 
L 92.634459 98.567147 
L 94.144192 98.379255 
L 95.653976 98.444295 
L 97.163748 98.54908 
L 98.673506 98.425024 
L 100.183275 98.564738 
L 101.693034 98.567147 
L 103.202799 98.408162 
L 104.712557 98.364802 
L 106.222327 98.72011 
L 107.732109 98.573169 
L 109.241854 98.029969 
L 110.75162 98.167275 
L 112.26138 98.576782 
L 113.771144 98.540649 
L 115.280909 98.435864 
L 116.790669 98.420206 
L 118.300437 98.276878 
L 119.810193 98.484041 
L 165.103204 98.484041 
L 179.193387 98.576782 
L 180.200815 98.677955 
L 181.710579 98.551489 
L 183.220338 98.704452 
L 184.730102 98.628573 
L 186.239875 98.590031 
L 187.749633 98.616529 
L 189.259394 98.514152 
L 190.769155 98.478019 
L 192.278923 98.691204 
L 193.788691 98.487654 
L 195.298454 98.53824 
L 196.808224 98.749016 
L 198.317976 98.800807 
L 199.827744 98.751425 
L 201.337506 98.5816 
L 202.847273 98.600871 
" clip-path="url(#p7e356c7167)" style="fill: none; stroke: #ff6b6b; stroke-width: 1.2; stroke-linecap: square"/>
   </g>
   <g id="patch_3">
    <path d="M 31.64 103.4 
L 31.64 5 
" style="fill: none; stroke: var(--fg-color); stroke-width: 0.8; stroke-linejoin: miter; stroke-linecap: square"/>
   </g>
   <g id="patch_4">
    <path d="M 31.64 103.4 
L 211 103.4 
" style="fill: none; stroke: var(--fg-color); stroke-width: 0.8; stroke-linejoin: miter; stroke-linecap: square"/>
   </g>
  </g>
 </g>
 <defs>
  <clipPath id="p7e356c7167">
   <rect x="31.64" y="5" width="179.36" height="98.4"/>
  </clipPath>
 </defs>
</svg>
