<?xml version="1.0" encoding="utf-8" standalone="no"?>
<!DOCTYPE svg PUBLIC "-//W3C//DTD SVG 1.1//EN"
  "http://www.w3.org/Graphics/SVG/1.1/DTD/svg11.dtd">
<svg xmlns:xlink="http://www.w3.org/1999/xlink" width="216pt" height="122.4pt" viewBox="0 0 216 122.4" xmlns="http://www.w3.org/2000/svg" version="1.1">
  <style>
    :root {
      --fg-color: #212529;
      --grid-color: rgba(33, 37, 41, 0.1);
    }
    @media (prefers-color-scheme: dark) {
      :root {
        --fg-color: #dee2e6;
        --grid-color: rgba(248, 249, 250, 0.15);
      }
    }
  </style>

 <metadata>
  <rdf:RDF xmlns:dc="http://purl.org/dc/elements/1.1/" xmlns:cc="http://creativecommons.org/ns#" xmlns:rdf="http://www.w3.org/1999/02/22-rdf-syntax-ns#">
   <cc:Work>
    <dc:type rdf:resource="http://purl.org/dc/dcmitype/StillImage"/>
    <dc:date>2026-06-30T04:48:31.243216</dc:date>
    <dc:format>image/svg+xml</dc:format>
    <dc:creator>
     <cc:Agent>
      <dc:title>Matplotlib v3.11.0, https://matplotlib.org/</dc:title>
     </cc:Agent>
    </dc:creator>
   </cc:Work>
  </rdf:RDF>
 </metadata>
 <defs>
  <style type="text/css">*{stroke-linejoin: round; stroke-linecap: butt}</style>
 </defs>
 <g id="figure_1">
  <g id="patch_1">
   <path d="M 0 122.4 
L 216 122.4 
L 216 0 
L 0 0 
L 0 122.4 
z
" style="fill: none; opacity: 0"/>
  </g>
  <g id="axes_1">
   <g id="patch_2">
    <path d="M 31.64 103.4 
L 211 103.4 
L 211 5 
L 31.64 5 
L 31.64 103.4 
z
" style="fill: none; opacity: 0"/>
   </g>
   <g id="matplotlib.axis_1">
    <g id="xtick_1">
     <g id="line2d_1">
      <path d="M 67.541625 103.4 
L 67.541625 5 
" clip-path="url(#p45686dd749)" style="fill: none; stroke-dasharray: 2.96,1.28; stroke-dashoffset: 0; stroke: var(--grid-color); stroke-width: 0.8"/>
     </g>
     <g id="line2d_2">
      <defs>
       <path id="ma3d8444263" d="M 0 0 
L 0 3.5 
" style="stroke: var(--fg-color); stroke-width: 0.8"/>
      </defs>
      <g>
       <use xlink:href="#ma3d8444263" x="67.541625" y="103.4" style="fill: var(--fg-color); stroke: var(--fg-color); stroke-width: 0.8"/>
      </g>
     </g>
     <g id="text_1">
      <text style="font-size: 7px; font-family: 'DejaVu Sans', 'Bitstream Vera Sans', 'Computer Modern Sans Serif', 'Lucida Grande', 'Verdana', 'Geneva', 'Lucid', 'Arial', 'Helvetica', 'Avant Garde', sans-serif; text-anchor: middle; fill: var(--fg-color)" x="67.541625" y="115.718359" transform="rotate(-0 67.541625 115.718359)">02/2026</text>
     </g>
    </g>
    <g id="xtick_2">
     <g id="line2d_3">
      <path d="M 123.925409 103.4 
L 123.925409 5 
" clip-path="url(#p45686dd749)" style="fill: none; stroke-dasharray: 2.96,1.28; stroke-dashoffset: 0; stroke: var(--grid-color); stroke-width: 0.8"/>
     </g>
     <g id="line2d_4">
      <g>
       <use xlink:href="#ma3d8444263" x="123.925409" y="103.4" style="fill: var(--fg-color); stroke: var(--fg-color); stroke-width: 0.8"/>
      </g>
     </g>
     <g id="text_2">
      <text style="font-size: 7px; font-family: 'DejaVu Sans', 'Bitstream Vera Sans', 'Computer Modern Sans Serif', 'Lucida Grande', 'Verdana', 'Geneva', 'Lucid', 'Arial', 'Helvetica', 'Avant Garde', sans-serif; text-anchor: middle; fill: var(--fg-color)" x="123.925409" y="115.718359" transform="rotate(-0 123.925409 115.718359)">04/2026</text>
     </g>
    </g>
    <g id="xtick_3">
     <g id="line2d_5">
      <path d="M 182.220509 103.4 
L 182.220509 5 
" clip-path="url(#p45686dd749)" style="fill: none; stroke-dasharray: 2.96,1.28; stroke-dashoffset: 0; stroke: var(--grid-color); stroke-width: 0.8"/>
     </g>
     <g id="line2d_6">
      <g>
       <use xlink:href="#ma3d8444263" x="182.220509" y="103.4" style="fill: var(--fg-color); stroke: var(--fg-color); stroke-width: 0.8"/>
      </g>
     </g>
     <g id="text_3">
      <text style="font-size: 7px; font-family: 'DejaVu Sans', 'Bitstream Vera Sans', 'Computer Modern Sans Serif', 'Lucida Grande', 'Verdana', 'Geneva', 'Lucid', 'Arial', 'Helvetica', 'Avant Garde', sans-serif; text-anchor: middle; fill: var(--fg-color)" x="182.220509" y="115.718359" transform="rotate(-0 182.220509 115.718359)">06/2026</text>
     </g>
    </g>
   </g>
   <g id="matplotlib.axis_2">
    <g id="ytick_1">
     <g id="line2d_7">
      <path d="M 31.64 101.319916 
L 211 101.319916 
" clip-path="url(#p45686dd749)" style="fill: none; stroke-dasharray: 2.96,1.28; stroke-dashoffset: 0; stroke: var(--grid-color); stroke-width: 0.8"/>
     </g>
     <g id="line2d_8">
      <defs>
       <path id="mcbf90a7150" d="M 0 0 
L -3.5 0 
" style="stroke: var(--fg-color); stroke-width: 0.8"/>
      </defs>
      <g>
       <use xlink:href="#mcbf90a7150" x="31.64" y="101.319916" style="fill: var(--fg-color); stroke: var(--fg-color); stroke-width: 0.8"/>
      </g>
     </g>
     <g id="text_4">
      <text style="font-size: 7px; font-family: 'DejaVu Sans', 'Bitstream Vera Sans', 'Computer Modern Sans Serif', 'Lucida Grande', 'Verdana', 'Geneva', 'Lucid', 'Arial', 'Helvetica', 'Avant Garde', sans-serif; text-anchor: end; fill: var(--fg-color)" x="24.64" y="103.979096" transform="rotate(-0 24.64 103.979096)">0</text>
     </g>
    </g>
    <g id="ytick_2">
     <g id="line2d_9">
      <path d="M 31.64 84.470313 
L 211 84.470313 
" clip-path="url(#p45686dd749)" style="fill: none; stroke-dasharray: 2.96,1.28; stroke-dashoffset: 0; stroke: var(--grid-color); stroke-width: 0.8"/>
     </g>
     <g id="line2d_10">
      <g>
       <use xlink:href="#mcbf90a7150" x="31.64" y="84.470313" style="fill: var(--fg-color); stroke: var(--fg-color); stroke-width: 0.8"/>
      </g>
     </g>
     <g id="text_5">
      <text style="font-size: 7px; font-family: 'DejaVu Sans', 'Bitstream Vera Sans', 'Computer Modern Sans Serif', 'Lucida Grande', 'Verdana', 'Geneva', 'Lucid', 'Arial', 'Helvetica', 'Avant Garde', sans-serif; text-anchor: end; fill: var(--fg-color)" x="24.64" y="87.129493" transform="rotate(-0 24.64 87.129493)">10</text>
     </g>
    </g>
    <g id="ytick_3">
     <g id="line2d_11">
      <path d="M 31.64 67.620709 
L 211 67.620709 
" clip-path="url(#p45686dd749)" style="fill: none; stroke-dasharray: 2.96,1.28; stroke-dashoffset: 0; stroke: var(--grid-color); stroke-width: 0.8"/>
     </g>
     <g id="line2d_12">
      <g>
       <use xlink:href="#mcbf90a7150" x="31.64" y="67.620709" style="fill: var(--fg-color); stroke: var(--fg-color); stroke-width: 0.8"/>
      </g>
     </g>
     <g id="text_6">
      <text style="font-size: 7px; font-family: 'DejaVu Sans', 'Bitstream Vera Sans', 'Computer Modern Sans Serif', 'Lucida Grande', 'Verdana', 'Geneva', 'Lucid', 'Arial', 'Helvetica', 'Avant Garde', sans-serif; text-anchor: end; fill: var(--fg-color)" x="24.64" y="70.279889" transform="rotate(-0 24.64 70.279889)">20</text>
     </g>
    </g>
    <g id="ytick_4">
     <g id="line2d_13">
      <path d="M 31.64 50.771106 
L 211 50.771106 
" clip-path="url(#p45686dd749)" style="fill: none; stroke-dasharray: 2.96,1.28; stroke-dashoffset: 0; stroke: var(--grid-color); stroke-width: 0.8"/>
     </g>
     <g id="line2d_14">
      <g>
       <use xlink:href="#mcbf90a7150" x="31.64" y="50.771106" style="fill: var(--fg-color); stroke: var(--fg-color); stroke-width: 0.8"/>
      </g>
     </g>
     <g id="text_7">
      <text style="font-size: 7px; font-family: 'DejaVu Sans', 'Bitstream Vera Sans', 'Computer Modern Sans Serif', 'Lucida Grande', 'Verdana', 'Geneva', 'Lucid', 'Arial', 'Helvetica', 'Avant Garde', sans-serif; text-anchor: end; fill: var(--fg-color)" x="24.64" y="53.430285" transform="rotate(-0 24.64 53.430285)">30</text>
     </g>
    </g>
    <g id="ytick_5">
     <g id="line2d_15">
      <path d="M 31.64 33.921502 
L 211 33.921502 
" clip-path="url(#p45686dd749)" style="fill: none; stroke-dasharray: 2.96,1.28; stroke-dashoffset: 0; stroke: var(--grid-color); stroke-width: 0.8"/>
     </g>
     <g id="line2d_16">
      <g>
       <use xlink:href="#mcbf90a7150" x="31.64" y="33.921502" style="fill: var(--fg-color); stroke: var(--fg-color); stroke-width: 0.8"/>
      </g>
     </g>
     <g id="text_8">
      <text style="font-size: 7px; font-family: 'DejaVu Sans', 'Bitstream Vera Sans', 'Computer Modern Sans Serif', 'Lucida Grande', 'Verdana', 'Geneva', 'Lucid', 'Arial', 'Helvetica', 'Avant Garde', sans-serif; text-anchor: end; fill: var(--fg-color)" x="24.64" y="36.580682" transform="rotate(-0 24.64 36.580682)">40</text>
     </g>
    </g>
    <g id="ytick_6">
     <g id="line2d_17">
      <path d="M 31.64 17.071898 
L 211 17.071898 
" clip-path="url(#p45686dd749)" style="fill: none; stroke-dasharray: 2.96,1.28; stroke-dashoffset: 0; stroke: var(--grid-color); stroke-width: 0.8"/>
     </g>
     <g id="line2d_18">
      <g>
       <use xlink:href="#mcbf90a7150" x="31.64" y="17.071898" style="fill: var(--fg-color); stroke: var(--fg-color); stroke-width: 0.8"/>
      </g>
     </g>
     <g id="text_9">
      <text style="font-size: 7px; font-family: 'DejaVu Sans', 'Bitstream Vera Sans', 'Computer Modern Sans Serif', 'Lucida Grande', 'Verdana', 'Geneva', 'Lucid', 'Arial', 'Helvetica', 'Avant Garde', sans-serif; text-anchor: end; fill: var(--fg-color)" x="24.64" y="19.731078" transform="rotate(-0 24.64 19.731078)">50</text>
     </g>
    </g>
    <g id="text_10">
     <text style="font-size: 7px; font-family: 'DejaVu Sans', 'Bitstream Vera Sans', 'Computer Modern Sans Serif', 'Lucida Grande', 'Verdana', 'Geneva', 'Lucid', 'Arial', 'Helvetica', 'Avant Garde', sans-serif; text-anchor: middle; fill: var(--fg-color)" x="10.050859" y="54.2" transform="rotate(-90 10.050859 54.2)">ms</text>
    </g>
   </g>
   <g id="line2d_19">
    <path d="M 39.792727 33.913077 
L 40.385155 38.132218 
L 41.340816 46.654748 
L 42.296476 42.829887 
L 43.252138 39.828973 
L 44.207793 45.754979 
L 45.163448 44.152581 
L 46.119097 49.33215 
L 47.074763 25.91794 
L 48.030424 34.809476 
L 48.986082 44.489573 
L 49.941739 41.894734 
L 50.897393 24.541328 
L 51.853052 35.783383 
L 52.808711 48.744098 
L 53.764362 46.400318 
L 54.720023 47.967332 
L 55.67568 37.127982 
L 56.631338 46.117245 
L 57.586995 38.961219 
L 58.542651 40.125526 
L 59.498312 35.72778 
L 60.453963 39.220702 
L 61.409619 43.016918 
L 62.365283 45.7078 
L 63.32094 48.648056 
L 64.276599 45.46685 
L 65.232253 42.450771 
L 66.187892 41.294889 
L 67.143569 43.013548 
L 68.099222 40.40186 
L 69.054886 45.288245 
L 70.01054 38.331043 
L 70.966199 42.695091 
L 71.921851 41.850926 
L 72.877518 35.547489 
L 73.833161 39.682382 
L 74.788825 22.275056 
L 75.744484 32.708331 
L 76.700143 43.429733 
L 77.655784 37.64358 
L 78.611456 45.323629 
L 79.567097 35.215552 
L 80.52277 45.859446 
L 81.478428 27.367006 
L 82.434088 35.013356 
L 83.389742 40.572041 
L 84.345406 37.431275 
L 94.097934 38.05134 
L 94.857926 45.645456 
L 95.813602 42.06997 
L 96.769258 32.378078 
L 97.72492 36.427038 
L 98.680574 39.500406 
L 99.636229 35.860891 
L 100.591885 36.278762 
L 101.547541 30.081477 
L 102.503197 26.069587 
L 103.458857 24.362722 
L 104.414511 9.472727 
L 105.370171 34.371386 
L 106.32583 24.544698 
L 107.281487 13.924393 
L 108.237141 38.004161 
L 109.192802 28.608822 
L 110.148456 37.40263 
L 111.104116 37.512153 
L 112.059775 36.893772 
L 113.015429 31.380582 
L 113.971092 34.639295 
L 114.92674 28.263405 
L 115.882398 36.197884 
L 116.838064 37.714348 
L 117.79372 26.35266 
L 118.749378 30.137081 
L 119.705028 34.65109 
L 120.660689 36.401764 
L 121.616347 35.343609 
L 122.572003 32.127019 
L 123.527662 33.308177 
L 127.350289 35.992318 
L 128.305953 36.302351 
L 129.261607 29.941626 
L 130.217264 31.924824 
L 131.172923 31.960208 
L 132.12858 23.104057 
L 133.084241 34.474169 
L 134.039879 32.637562 
L 134.995549 14.350688 
L 135.951212 30.342646 
L 136.906866 28.881786 
L 137.862526 31.26095 
L 138.818181 30.586966 
L 139.773839 26.682912 
L 140.729493 30.915533 
L 141.685154 35.953564 
L 142.640823 25.848857 
L 143.596469 29.655182 
L 144.552128 25.159708 
L 145.507782 28.586918 
L 146.46344 30.533047 
L 147.419098 26.293687 
L 148.374754 26.519471 
L 149.330413 30.726817 
L 150.286066 26.740201 
L 178.955853 26.740201 
L 187.874723 36.99487 
L 188.51241 33.294697 
L 189.468067 33.232353 
L 190.423722 18.357523 
L 191.37938 33.533961 
L 192.335043 36.322571 
L 193.290697 32.185993 
L 194.246353 34.972917 
L 195.202008 26.042627 
L 196.157669 39.370664 
L 197.113328 41.050569 
L 198.068986 35.609832 
L 199.024647 36.253487 
L 199.980297 24.827771 
L 200.935957 37.574496 
L 201.891613 31.68893 
L 202.847273 37.183585 
" clip-path="url(#p45686dd749)" style="fill: none; stroke: #339af0; stroke-width: 1.2; stroke-linecap: square"/>
   </g>
   <g id="line2d_20">
    <path d="M 39.792727 98.495923 
L 40.385155 98.674529 
L 41.340816 98.795846 
L 42.296476 98.864929 
L 43.252138 98.60039 
L 44.207793 98.694748 
L 45.163448 98.716653 
L 46.119097 98.775626 
L 47.074763 98.772256 
L 48.030424 98.775626 
L 48.986082 98.62061 
L 49.941739 98.723393 
L 50.897393 98.618925 
L 51.853052 98.777311 
L 52.808711 98.800901 
L 53.764362 98.726762 
L 54.720023 98.752037 
L 55.67568 98.61724 
L 56.631338 98.775626 
L 57.586995 98.4201 
L 58.542651 98.826175 
L 59.498312 98.591966 
L 60.453963 98.581856 
L 61.409619 98.736872 
L 62.365283 98.6105 
L 63.32094 98.750352 
L 64.276599 98.721708 
L 65.232253 98.763832 
L 66.187892 98.704858 
L 67.143569 98.859874 
L 68.099222 98.534677 
L 69.054886 98.551527 
L 70.01054 98.755407 
L 70.966199 98.563321 
L 71.921851 98.809326 
L 72.877518 98.652624 
L 73.833161 98.642514 
L 74.788825 98.63746 
L 75.744484 98.698118 
L 76.700143 98.645884 
L 77.655784 98.731817 
L 78.611456 98.63746 
L 79.567097 98.713283 
L 80.52277 98.790791 
L 81.478428 97.131105 
L 82.434088 98.770571 
L 83.389742 98.605445 
L 84.345406 98.63072 
L 94.097934 98.758777 
L 94.857926 98.649254 
L 95.813602 98.864929 
L 96.769258 97.383849 
L 97.72492 98.858189 
L 98.680574 98.767201 
L 99.636229 98.726762 
L 100.591885 98.723393 
L 101.547541 98.576801 
L 102.503197 98.753722 
L 103.458857 98.807641 
L 104.414511 98.767201 
L 105.370171 98.677899 
L 106.32583 98.728447 
L 107.281487 98.738557 
L 108.237141 98.809326 
L 109.192802 98.625665 
L 110.148456 98.805956 
L 111.104116 98.767201 
L 112.059775 98.615555 
L 113.015429 98.799216 
L 113.971092 98.711598 
L 114.92674 98.664419 
L 115.882398 98.790791 
L 116.838064 98.927273 
L 117.79372 98.832915 
L 118.749378 98.647569 
L 119.705028 98.672844 
L 120.660689 98.554896 
L 121.616347 97.579304 
L 122.572003 98.330797 
L 123.527662 98.566691 
L 127.350289 98.443689 
L 128.305953 98.543102 
L 129.261607 98.332482 
L 130.217264 98.265083 
L 131.172923 98.238124 
L 132.12858 98.391455 
L 133.084241 98.60376 
L 134.039879 98.39651 
L 134.995549 98.317317 
L 135.951212 98.290358 
L 136.906866 98.059518 
L 137.862526 98.254974 
L 138.818181 98.39651 
L 139.773839 98.111752 
L 140.729493 98.383031 
L 141.685154 98.228014 
L 142.640823 98.253289 
L 143.596469 98.384715 
L 144.552128 98.094902 
L 145.507782 98.411675 
L 146.46344 96.996308 
L 147.419098 98.17578 
L 148.374754 97.916297 
L 149.330413 98.40325 
L 150.286066 97.725896 
L 178.955853 97.725896 
L 187.874723 98.435264 
L 188.51241 98.554896 
L 189.468067 98.4201 
L 190.423722 98.671159 
L 191.37938 98.204425 
L 192.335043 98.720023 
L 193.290697 98.492553 
L 194.246353 98.655994 
L 195.202008 98.573431 
L 196.157669 98.349331 
L 197.113328 98.60039 
L 198.068986 98.713283 
L 199.024647 98.698118 
L 199.980297 98.438634 
L 200.935957 98.278563 
L 201.891613 98.313947 
L 202.847273 98.371236 
" clip-path="url(#p45686dd749)" style="fill: none; stroke: #ff6b6b; stroke-width: 1.2; stroke-linecap: square"/>
   </g>
   <g id="patch_3">
    <path d="M 31.64 103.4 
L 31.64 5 
" style="fill: none; stroke: var(--fg-color); stroke-width: 0.8; stroke-linejoin: miter; stroke-linecap: square"/>
   </g>
   <g id="patch_4">
    <path d="M 31.64 103.4 
L 211 103.4 
" style="fill: none; stroke: var(--fg-color); stroke-width: 0.8; stroke-linejoin: miter; stroke-linecap: square"/>
   </g>
  </g>
 </g>
 <defs>
  <clipPath id="p45686dd749">
   <rect x="31.64" y="5" width="179.36" height="98.4"/>
  </clipPath>
 </defs>
</svg>
