<?xml version="1.0" encoding="utf-8" standalone="no"?>
<!DOCTYPE svg PUBLIC "-//W3C//DTD SVG 1.1//EN"
  "http://www.w3.org/Graphics/SVG/1.1/DTD/svg11.dtd">
<svg xmlns:xlink="http://www.w3.org/1999/xlink" width="216pt" height="122.4pt" viewBox="0 0 216 122.4" xmlns="http://www.w3.org/2000/svg" version="1.1">
  <style>
    :root {
      --fg-color: #212529;
      --grid-color: rgba(33, 37, 41, 0.1);
    }
    @media (prefers-color-scheme: dark) {
      :root {
        --fg-color: #dee2e6;
        --grid-color: rgba(248, 249, 250, 0.15);
      }
    }
  </style>

 <metadata>
  <rdf:RDF xmlns:dc="http://purl.org/dc/elements/1.1/" xmlns:cc="http://creativecommons.org/ns#" xmlns:rdf="http://www.w3.org/1999/02/22-rdf-syntax-ns#">
   <cc:Work>
    <dc:type rdf:resource="http://purl.org/dc/dcmitype/StillImage"/>
    <dc:date>2026-06-30T04:49:18.532471</dc:date>
    <dc:format>image/svg+xml</dc:format>
    <dc:creator>
     <cc:Agent>
      <dc:title>Matplotlib v3.11.0, https://matplotlib.org/</dc:title>
     </cc:Agent>
    </dc:creator>
   </cc:Work>
  </rdf:RDF>
 </metadata>
 <defs>
  <style type="text/css">*{stroke-linejoin: round; stroke-linecap: butt}</style>
 </defs>
 <g id="figure_1">
  <g id="patch_1">
   <path d="M 0 122.4 
L 216 122.4 
L 216 0 
L 0 0 
L 0 122.4 
z
" style="fill: none; opacity: 0"/>
  </g>
  <g id="axes_1">
   <g id="patch_2">
    <path d="M 35.96 103.4 
L 211 103.4 
L 211 5 
L 35.96 5 
L 35.96 103.4 
z
" style="fill: none; opacity: 0"/>
   </g>
   <g id="matplotlib.axis_1">
    <g id="xtick_1">
     <g id="line2d_1">
      <path d="M 72.056377 103.4 
L 72.056377 5 
" clip-path="url(#pc39be20f6d)" style="fill: none; stroke-dasharray: 2.96,1.28; stroke-dashoffset: 0; stroke: var(--grid-color); stroke-width: 0.8"/>
     </g>
     <g id="line2d_2">
      <defs>
       <path id="m6c8af82544" d="M 0 0 
L 0 3.5 
" style="stroke: var(--fg-color); stroke-width: 0.8"/>
      </defs>
      <g>
       <use xlink:href="#m6c8af82544" x="72.056377" y="103.4" style="fill: var(--fg-color); stroke: var(--fg-color); stroke-width: 0.8"/>
      </g>
     </g>
     <g id="text_1">
      <text style="font-size: 7px; font-family: 'DejaVu Sans', 'Bitstream Vera Sans', 'Computer Modern Sans Serif', 'Lucida Grande', 'Verdana', 'Geneva', 'Lucid', 'Arial', 'Helvetica', 'Avant Garde', sans-serif; text-anchor: middle; fill: var(--fg-color)" x="72.056377" y="115.718359" transform="rotate(-0 72.056377 115.718359)">02/2026</text>
     </g>
    </g>
    <g id="xtick_2">
     <g id="line2d_3">
      <path d="M 126.640628 103.4 
L 126.640628 5 
" clip-path="url(#pc39be20f6d)" style="fill: none; stroke-dasharray: 2.96,1.28; stroke-dashoffset: 0; stroke: var(--grid-color); stroke-width: 0.8"/>
     </g>
     <g id="line2d_4">
      <g>
       <use xlink:href="#m6c8af82544" x="126.640628" y="103.4" style="fill: var(--fg-color); stroke: var(--fg-color); stroke-width: 0.8"/>
      </g>
     </g>
     <g id="text_2">
      <text style="font-size: 7px; font-family: 'DejaVu Sans', 'Bitstream Vera Sans', 'Computer Modern Sans Serif', 'Lucida Grande', 'Verdana', 'Geneva', 'Lucid', 'Arial', 'Helvetica', 'Avant Garde', sans-serif; text-anchor: middle; fill: var(--fg-color)" x="126.640628" y="115.718359" transform="rotate(-0 126.640628 115.718359)">04/2026</text>
     </g>
    </g>
    <g id="xtick_3">
     <g id="line2d_5">
      <path d="M 183.075192 103.4 
L 183.075192 5 
" clip-path="url(#pc39be20f6d)" style="fill: none; stroke-dasharray: 2.96,1.28; stroke-dashoffset: 0; stroke: var(--grid-color); stroke-width: 0.8"/>
     </g>
     <g id="line2d_6">
      <g>
       <use xlink:href="#m6c8af82544" x="183.075192" y="103.4" style="fill: var(--fg-color); stroke: var(--fg-color); stroke-width: 0.8"/>
      </g>
     </g>
     <g id="text_3">
      <text style="font-size: 7px; font-family: 'DejaVu Sans', 'Bitstream Vera Sans', 'Computer Modern Sans Serif', 'Lucida Grande', 'Verdana', 'Geneva', 'Lucid', 'Arial', 'Helvetica', 'Avant Garde', sans-serif; text-anchor: middle; fill: var(--fg-color)" x="183.075192" y="115.718359" transform="rotate(-0 183.075192 115.718359)">06/2026</text>
     </g>
    </g>
   </g>
   <g id="matplotlib.axis_2">
    <g id="ytick_1">
     <g id="line2d_7">
      <path d="M 35.96 101.835006 
L 211 101.835006 
" clip-path="url(#pc39be20f6d)" style="fill: none; stroke-dasharray: 2.96,1.28; stroke-dashoffset: 0; stroke: var(--grid-color); stroke-width: 0.8"/>
     </g>
     <g id="line2d_8">
      <defs>
       <path id="m81512120eb" d="M 0 0 
L -3.5 0 
" style="stroke: var(--fg-color); stroke-width: 0.8"/>
      </defs>
      <g>
       <use xlink:href="#m81512120eb" x="35.96" y="101.835006" style="fill: var(--fg-color); stroke: var(--fg-color); stroke-width: 0.8"/>
      </g>
     </g>
     <g id="text_4">
      <text style="font-size: 7px; font-family: 'DejaVu Sans', 'Bitstream Vera Sans', 'Computer Modern Sans Serif', 'Lucida Grande', 'Verdana', 'Geneva', 'Lucid', 'Arial', 'Helvetica', 'Avant Garde', sans-serif; text-anchor: end; fill: var(--fg-color)" x="28.96" y="104.494186" transform="rotate(-0 28.96 104.494186)">0</text>
     </g>
    </g>
    <g id="ytick_2">
     <g id="line2d_9">
      <path d="M 35.96 85.268613 
L 211 85.268613 
" clip-path="url(#pc39be20f6d)" style="fill: none; stroke-dasharray: 2.96,1.28; stroke-dashoffset: 0; stroke: var(--grid-color); stroke-width: 0.8"/>
     </g>
     <g id="line2d_10">
      <g>
       <use xlink:href="#m81512120eb" x="35.96" y="85.268613" style="fill: var(--fg-color); stroke: var(--fg-color); stroke-width: 0.8"/>
      </g>
     </g>
     <g id="text_5">
      <text style="font-size: 7px; font-family: 'DejaVu Sans', 'Bitstream Vera Sans', 'Computer Modern Sans Serif', 'Lucida Grande', 'Verdana', 'Geneva', 'Lucid', 'Arial', 'Helvetica', 'Avant Garde', sans-serif; text-anchor: end; fill: var(--fg-color)" x="28.96" y="87.927793" transform="rotate(-0 28.96 87.927793)">50</text>
     </g>
    </g>
    <g id="ytick_3">
     <g id="line2d_11">
      <path d="M 35.96 68.70222 
L 211 68.70222 
" clip-path="url(#pc39be20f6d)" style="fill: none; stroke-dasharray: 2.96,1.28; stroke-dashoffset: 0; stroke: var(--grid-color); stroke-width: 0.8"/>
     </g>
     <g id="line2d_12">
      <g>
       <use xlink:href="#m81512120eb" x="35.96" y="68.70222" style="fill: var(--fg-color); stroke: var(--fg-color); stroke-width: 0.8"/>
      </g>
     </g>
     <g id="text_6">
      <text style="font-size: 7px; font-family: 'DejaVu Sans', 'Bitstream Vera Sans', 'Computer Modern Sans Serif', 'Lucida Grande', 'Verdana', 'Geneva', 'Lucid', 'Arial', 'Helvetica', 'Avant Garde', sans-serif; text-anchor: end; fill: var(--fg-color)" x="28.96" y="71.3614" transform="rotate(-0 28.96 71.3614)">100</text>
     </g>
    </g>
    <g id="ytick_4">
     <g id="line2d_13">
      <path d="M 35.96 52.135827 
L 211 52.135827 
" clip-path="url(#pc39be20f6d)" style="fill: none; stroke-dasharray: 2.96,1.28; stroke-dashoffset: 0; stroke: var(--grid-color); stroke-width: 0.8"/>
     </g>
     <g id="line2d_14">
      <g>
       <use xlink:href="#m81512120eb" x="35.96" y="52.135827" style="fill: var(--fg-color); stroke: var(--fg-color); stroke-width: 0.8"/>
      </g>
     </g>
     <g id="text_7">
      <text style="font-size: 7px; font-family: 'DejaVu Sans', 'Bitstream Vera Sans', 'Computer Modern Sans Serif', 'Lucida Grande', 'Verdana', 'Geneva', 'Lucid', 'Arial', 'Helvetica', 'Avant Garde', sans-serif; text-anchor: end; fill: var(--fg-color)" x="28.96" y="54.795007" transform="rotate(-0 28.96 54.795007)">150</text>
     </g>
    </g>
    <g id="ytick_5">
     <g id="line2d_15">
      <path d="M 35.96 35.569435 
L 211 35.569435 
" clip-path="url(#pc39be20f6d)" style="fill: none; stroke-dasharray: 2.96,1.28; stroke-dashoffset: 0; stroke: var(--grid-color); stroke-width: 0.8"/>
     </g>
     <g id="line2d_16">
      <g>
       <use xlink:href="#m81512120eb" x="35.96" y="35.569435" style="fill: var(--fg-color); stroke: var(--fg-color); stroke-width: 0.8"/>
      </g>
     </g>
     <g id="text_8">
      <text style="font-size: 7px; font-family: 'DejaVu Sans', 'Bitstream Vera Sans', 'Computer Modern Sans Serif', 'Lucida Grande', 'Verdana', 'Geneva', 'Lucid', 'Arial', 'Helvetica', 'Avant Garde', sans-serif; text-anchor: end; fill: var(--fg-color)" x="28.96" y="38.228614" transform="rotate(-0 28.96 38.228614)">200</text>
     </g>
    </g>
    <g id="ytick_6">
     <g id="line2d_17">
      <path d="M 35.96 19.003042 
L 211 19.003042 
" clip-path="url(#pc39be20f6d)" style="fill: none; stroke-dasharray: 2.96,1.28; stroke-dashoffset: 0; stroke: var(--grid-color); stroke-width: 0.8"/>
     </g>
     <g id="line2d_18">
      <g>
       <use xlink:href="#m81512120eb" x="35.96" y="19.003042" style="fill: var(--fg-color); stroke: var(--fg-color); stroke-width: 0.8"/>
      </g>
     </g>
     <g id="text_9">
      <text style="font-size: 7px; font-family: 'DejaVu Sans', 'Bitstream Vera Sans', 'Computer Modern Sans Serif', 'Lucida Grande', 'Verdana', 'Geneva', 'Lucid', 'Arial', 'Helvetica', 'Avant Garde', sans-serif; text-anchor: end; fill: var(--fg-color)" x="28.96" y="21.662221" transform="rotate(-0 28.96 21.662221)">250</text>
     </g>
    </g>
    <g id="text_10">
     <text style="font-size: 7px; font-family: 'DejaVu Sans', 'Bitstream Vera Sans', 'Computer Modern Sans Serif', 'Lucida Grande', 'Verdana', 'Geneva', 'Lucid', 'Arial', 'Helvetica', 'Avant Garde', sans-serif; text-anchor: middle; fill: var(--fg-color)" x="9.917109" y="54.2" transform="rotate(-90 9.917109 54.2)">ms</text>
    </g>
   </g>
   <g id="line2d_19">
    <path d="M 43.916364 28.026756 
L 45.193108 27.189822 
L 45.766628 38.389366 
L 46.691788 38.653434 
L 47.616947 42.260932 
L 48.542109 25.951981 
L 49.467263 35.72052 
L 50.392418 35.601573 
L 51.317566 39.179252 
L 52.242732 36.829474 
L 53.167891 39.821696 
L 54.093049 34.713946 
L 55.018206 35.135395 
L 55.943359 31.679314 
L 56.868517 35.967691 
L 57.793676 37.213815 
L 58.718827 39.402567 
L 59.643987 40.313056 
L 60.569143 40.993603 
L 61.494301 38.800875 
L 62.419457 36.761884 
L 63.344613 32.526851 
L 64.269773 38.907894 
L 65.194924 39.654044 
L 66.120079 38.808827 
L 67.045243 36.198295 
L 67.970398 35.228167 
L 68.895557 34.337889 
L 69.82071 37.828097 
L 70.74585 30.384154 
L 71.671025 39.938324 
L 72.596178 36.369591 
L 73.521341 35.114853 
L 74.446495 39.204433 
L 75.371653 32.997005 
L 76.296805 34.494607 
L 77.221971 33.107669 
L 78.147114 39.095757 
L 79.072277 36.979235 
L 79.997435 36.533267 
L 80.922594 25.635894 
L 81.847735 31.551753 
L 82.772905 38.337679 
L 83.698046 36.164499 
L 84.623219 38.538464 
L 85.548376 38.699158 
L 86.473535 41.637042 
L 87.398688 34.404155 
L 88.323852 34.602951 
L 97.76512 30.143278 
L 98.500856 23.608499 
L 99.426031 16.934231 
L 100.351186 23.586631 
L 101.276348 42.329848 
L 102.201502 33.655354 
L 103.126656 38.394005 
L 104.051812 34.019483 
L 104.976967 33.330321 
L 105.902123 37.380141 
L 106.827282 33.236886 
L 107.752435 26.910844 
L 108.677594 31.005725 
L 109.602753 34.687109 
L 110.527909 34.241141 
L 111.453063 29.872252 
L 112.378223 32.722003 
L 113.303377 28.008533 
L 114.228537 37.786018 
L 115.153695 30.904007 
L 116.078848 34.763645 
L 117.004011 33.314749 
L 117.929158 37.352641 
L 118.854316 29.304687 
L 119.779481 38.496385 
L 120.704637 30.83476 
L 121.629794 9.472727 
L 122.554943 30.568703 
L 123.480104 26.563612 
L 124.405261 26.367466 
L 125.330416 34.920695 
L 126.255574 33.175591 
L 129.9562 30.708192 
L 130.881363 31.916214 
L 131.806516 27.998593 
L 132.731673 34.60262 
L 133.656831 33.741167 
L 134.581987 25.631918 
L 135.507147 35.941184 
L 136.432285 29.870595 
L 137.357455 31.75817 
L 138.282617 25.289988 
L 139.20777 23.305003 
L 140.13293 30.591234 
L 141.058084 26.818072 
L 141.983242 21.11095 
L 142.908395 17.926226 
L 143.833556 27.389281 
L 144.758724 24.205883 
L 145.683869 29.907373 
L 146.609028 34.271623 
L 147.534182 21.550953 
L 148.459339 23.286448 
L 149.384497 33.461195 
L 150.309651 32.089498 
L 151.234811 22.218247 
L 152.159963 36.193325 
L 179.91473 36.193325 
L 188.548948 21.31306 
L 189.166282 36.421941 
L 190.091439 27.769314 
L 191.016594 31.301932 
L 191.94175 15.860397 
L 192.866913 22.060204 
L 193.792066 24.895708 
L 194.717222 30.185688 
L 195.642377 36.077692 
L 196.567536 24.170431 
L 197.492695 22.903102 
L 198.417852 13.187244 
L 199.343013 33.143783 
L 200.268162 26.714035 
L 201.193322 27.070544 
L 202.118478 29.651588 
L 203.043636 20.054676 
" clip-path="url(#pc39be20f6d)" style="fill: none; stroke: #339af0; stroke-width: 1.2; stroke-linecap: square"/>
   </g>
   <g id="line2d_20">
    <path d="M 43.916364 97.921361 
L 45.193108 97.250754 
L 45.766628 97.016505 
L 46.691788 97.341869 
L 47.616947 95.09149 
L 48.542109 96.85316 
L 49.467263 97.305423 
L 50.392418 98.371636 
L 51.317566 96.082492 
L 52.242732 96.73587 
L 53.167891 97.191446 
L 54.093049 96.377042 
L 55.018206 97.543316 
L 55.943359 97.21232 
L 56.868517 97.73383 
L 57.793676 98.872272 
L 58.718827 98.04329 
L 59.643987 97.039367 
L 60.569143 95.906557 
L 61.494301 98.525372 
L 62.419457 96.860118 
L 63.344613 98.301063 
L 64.269773 98.264948 
L 65.194924 97.740788 
L 66.120079 97.494611 
L 67.045243 96.474121 
L 67.970398 95.47318 
L 68.895557 96.655358 
L 69.82071 97.227892 
L 70.74585 96.837257 
L 71.671025 95.063327 
L 72.596178 94.810855 
L 73.521341 97.797445 
L 74.446495 96.138817 
L 75.371653 98.456456 
L 76.296805 97.428677 
L 77.221971 95.321432 
L 78.147114 97.197741 
L 79.072277 96.726924 
L 79.997435 94.731999 
L 80.922594 96.037762 
L 81.847735 95.981105 
L 82.772905 98.290129 
L 83.698046 97.912747 
L 84.623219 97.277591 
L 85.548376 97.570816 
L 86.473535 96.434693 
L 87.398688 97.51184 
L 88.323852 96.86807 
L 97.76512 98.828868 
L 98.500856 95.75017 
L 99.426031 98.231816 
L 100.351186 97.895518 
L 101.276348 97.509189 
L 102.201502 97.169578 
L 103.126656 97.345514 
L 104.051812 97.679492 
L 104.976967 96.865419 
L 105.902123 97.03274 
L 106.827282 98.244406 
L 107.752435 96.737527 
L 108.677594 97.871331 
L 109.602753 96.269029 
L 110.527909 97.002921 
L 111.453063 96.929697 
L 112.378223 96.783913 
L 113.303377 97.304429 
L 114.228537 95.463903 
L 115.153695 97.223916 
L 116.078848 97.502563 
L 117.004011 96.57617 
L 117.929158 97.301778 
L 118.854316 97.846481 
L 119.779481 97.04765 
L 120.704637 96.262403 
L 121.629794 97.313043 
L 122.554943 98.927273 
L 123.480104 97.930307 
L 124.405261 96.881323 
L 125.330416 96.814395 
L 126.255574 96.751443 
L 129.9562 97.980338 
L 130.881363 98.522059 
L 131.806516 97.915397 
L 132.731673 98.576065 
L 133.656831 97.448888 
L 134.581987 97.03771 
L 135.507147 96.141468 
L 136.432285 97.062891 
L 137.357455 98.217568 
L 138.282617 96.910149 
L 139.20777 97.912416 
L 140.13293 96.926052 
L 141.058084 96.716653 
L 141.983242 98.441546 
L 142.908395 96.115625 
L 143.833556 98.367991 
L 144.758724 97.768951 
L 145.683869 95.943997 
L 146.609028 97.53437 
L 147.534182 97.572804 
L 148.459339 98.868959 
L 149.384497 95.41586 
L 150.309651 96.45126 
L 151.234811 96.900872 
L 152.159963 97.928319 
L 179.91473 97.928319 
L 188.548948 98.199677 
L 189.166282 97.450876 
L 190.091439 97.978681 
L 191.016594 97.146385 
L 191.94175 97.639733 
L 192.866913 97.333917 
L 193.792066 98.112869 
L 194.717222 96.642104 
L 195.642377 96.862769 
L 196.567536 96.098395 
L 197.492695 97.748408 
L 198.417852 98.145008 
L 199.343013 96.225957 
L 200.268162 98.059194 
L 201.193322 96.88298 
L 202.118478 97.313043 
L 203.043636 98.493565 
" clip-path="url(#pc39be20f6d)" style="fill: none; stroke: #ff6b6b; stroke-width: 1.2; stroke-linecap: square"/>
   </g>
   <g id="patch_3">
    <path d="M 35.96 103.4 
L 35.96 5 
" style="fill: none; stroke: var(--fg-color); stroke-width: 0.8; stroke-linejoin: miter; stroke-linecap: square"/>
   </g>
   <g id="patch_4">
    <path d="M 35.96 103.4 
L 211 103.4 
" style="fill: none; stroke: var(--fg-color); stroke-width: 0.8; stroke-linejoin: miter; stroke-linecap: square"/>
   </g>
  </g>
 </g>
 <defs>
  <clipPath id="pc39be20f6d">
   <rect x="35.96" y="5" width="175.04" height="98.4"/>
  </clipPath>
 </defs>
</svg>
