<?xml version="1.0" encoding="utf-8" standalone="no"?>
<!DOCTYPE svg PUBLIC "-//W3C//DTD SVG 1.1//EN"
  "http://www.w3.org/Graphics/SVG/1.1/DTD/svg11.dtd">
<svg xmlns:xlink="http://www.w3.org/1999/xlink" width="216pt" height="122.4pt" viewBox="0 0 216 122.4" xmlns="http://www.w3.org/2000/svg" version="1.1">
  <style>
    :root {
      --fg-color: #212529;
      --grid-color: rgba(33, 37, 41, 0.1);
    }
    @media (prefers-color-scheme: dark) {
      :root {
        --fg-color: #dee2e6;
        --grid-color: rgba(248, 249, 250, 0.15);
      }
    }
  </style>

 <metadata>
  <rdf:RDF xmlns:dc="http://purl.org/dc/elements/1.1/" xmlns:cc="http://creativecommons.org/ns#" xmlns:rdf="http://www.w3.org/1999/02/22-rdf-syntax-ns#">
   <cc:Work>
    <dc:type rdf:resource="http://purl.org/dc/dcmitype/StillImage"/>
    <dc:date>2026-06-30T15:37:32.829360</dc:date>
    <dc:format>image/svg+xml</dc:format>
    <dc:creator>
     <cc:Agent>
      <dc:title>Matplotlib v3.11.0, https://matplotlib.org/</dc:title>
     </cc:Agent>
    </dc:creator>
   </cc:Work>
  </rdf:RDF>
 </metadata>
 <defs>
  <style type="text/css">*{stroke-linejoin: round; stroke-linecap: butt}</style>
 </defs>
 <g id="figure_1">
  <g id="patch_1">
   <path d="M 0 122.4 
L 216 122.4 
L 216 0 
L 0 0 
L 0 122.4 
z
" style="fill: none; opacity: 0"/>
  </g>
  <g id="axes_1">
   <g id="patch_2">
    <path d="M 35.96 103.4 
L 211 103.4 
L 211 5 
L 35.96 5 
L 35.96 103.4 
z
" style="fill: none; opacity: 0"/>
   </g>
   <g id="matplotlib.axis_1">
    <g id="xtick_1">
     <g id="line2d_1">
      <path d="M 69.784035 103.4 
L 69.784035 5 
" clip-path="url(#p0e128c9826)" style="fill: none; stroke-dasharray: 2.96,1.28; stroke-dashoffset: 0; stroke: var(--grid-color); stroke-width: 0.8"/>
     </g>
     <g id="line2d_2">
      <defs>
       <path id="m0cc3736084" d="M 0 0 
L 0 3.5 
" style="stroke: var(--fg-color); stroke-width: 0.8"/>
      </defs>
      <g>
       <use xlink:href="#m0cc3736084" x="69.784035" y="103.4" style="fill: var(--fg-color); stroke: var(--fg-color); stroke-width: 0.8"/>
      </g>
     </g>
     <g id="text_1">
      <text style="font-size: 7px; font-family: 'DejaVu Sans', 'Bitstream Vera Sans', 'Computer Modern Sans Serif', 'Lucida Grande', 'Verdana', 'Geneva', 'Lucid', 'Arial', 'Helvetica', 'Avant Garde', sans-serif; text-anchor: middle; fill: var(--fg-color)" x="69.784035" y="115.718359" transform="rotate(-0 69.784035 115.718359)">02/2026</text>
     </g>
    </g>
    <g id="xtick_2">
     <g id="line2d_3">
      <path d="M 122.345302 103.4 
L 122.345302 5 
" clip-path="url(#p0e128c9826)" style="fill: none; stroke-dasharray: 2.96,1.28; stroke-dashoffset: 0; stroke: var(--grid-color); stroke-width: 0.8"/>
     </g>
     <g id="line2d_4">
      <g>
       <use xlink:href="#m0cc3736084" x="122.345302" y="103.4" style="fill: var(--fg-color); stroke: var(--fg-color); stroke-width: 0.8"/>
      </g>
     </g>
     <g id="text_2">
      <text style="font-size: 7px; font-family: 'DejaVu Sans', 'Bitstream Vera Sans', 'Computer Modern Sans Serif', 'Lucida Grande', 'Verdana', 'Geneva', 'Lucid', 'Arial', 'Helvetica', 'Avant Garde', sans-serif; text-anchor: middle; fill: var(--fg-color)" x="122.345302" y="115.718359" transform="rotate(-0 122.345302 115.718359)">04/2026</text>
     </g>
    </g>
    <g id="xtick_3">
     <g id="line2d_5">
      <path d="M 176.688307 103.4 
L 176.688307 5 
" clip-path="url(#p0e128c9826)" style="fill: none; stroke-dasharray: 2.96,1.28; stroke-dashoffset: 0; stroke: var(--grid-color); stroke-width: 0.8"/>
     </g>
     <g id="line2d_6">
      <g>
       <use xlink:href="#m0cc3736084" x="176.688307" y="103.4" style="fill: var(--fg-color); stroke: var(--fg-color); stroke-width: 0.8"/>
      </g>
     </g>
     <g id="text_3">
      <text style="font-size: 7px; font-family: 'DejaVu Sans', 'Bitstream Vera Sans', 'Computer Modern Sans Serif', 'Lucida Grande', 'Verdana', 'Geneva', 'Lucid', 'Arial', 'Helvetica', 'Avant Garde', sans-serif; text-anchor: middle; fill: var(--fg-color)" x="176.688307" y="115.718359" transform="rotate(-0 176.688307 115.718359)">06/2026</text>
     </g>
    </g>
   </g>
   <g id="matplotlib.axis_2">
    <g id="ytick_1">
     <g id="line2d_7">
      <path d="M 35.96 100.838326 
L 211 100.838326 
" clip-path="url(#p0e128c9826)" style="fill: none; stroke-dasharray: 2.96,1.28; stroke-dashoffset: 0; stroke: var(--grid-color); stroke-width: 0.8"/>
     </g>
     <g id="line2d_8">
      <defs>
       <path id="m7e765f3a31" d="M 0 0 
L -3.5 0 
" style="stroke: var(--fg-color); stroke-width: 0.8"/>
      </defs>
      <g>
       <use xlink:href="#m7e765f3a31" x="35.96" y="100.838326" style="fill: var(--fg-color); stroke: var(--fg-color); stroke-width: 0.8"/>
      </g>
     </g>
     <g id="text_4">
      <text style="font-size: 7px; font-family: 'DejaVu Sans', 'Bitstream Vera Sans', 'Computer Modern Sans Serif', 'Lucida Grande', 'Verdana', 'Geneva', 'Lucid', 'Arial', 'Helvetica', 'Avant Garde', sans-serif; text-anchor: end; fill: var(--fg-color)" x="28.96" y="103.497506" transform="rotate(-0 28.96 103.497506)">0</text>
     </g>
    </g>
    <g id="ytick_2">
     <g id="line2d_9">
      <path d="M 35.96 79.17842 
L 211 79.17842 
" clip-path="url(#p0e128c9826)" style="fill: none; stroke-dasharray: 2.96,1.28; stroke-dashoffset: 0; stroke: var(--grid-color); stroke-width: 0.8"/>
     </g>
     <g id="line2d_10">
      <g>
       <use xlink:href="#m7e765f3a31" x="35.96" y="79.17842" style="fill: var(--fg-color); stroke: var(--fg-color); stroke-width: 0.8"/>
      </g>
     </g>
     <g id="text_5">
      <text style="font-size: 7px; font-family: 'DejaVu Sans', 'Bitstream Vera Sans', 'Computer Modern Sans Serif', 'Lucida Grande', 'Verdana', 'Geneva', 'Lucid', 'Arial', 'Helvetica', 'Avant Garde', sans-serif; text-anchor: end; fill: var(--fg-color)" x="28.96" y="81.8376" transform="rotate(-0 28.96 81.8376)">100</text>
     </g>
    </g>
    <g id="ytick_3">
     <g id="line2d_11">
      <path d="M 35.96 57.518514 
L 211 57.518514 
" clip-path="url(#p0e128c9826)" style="fill: none; stroke-dasharray: 2.96,1.28; stroke-dashoffset: 0; stroke: var(--grid-color); stroke-width: 0.8"/>
     </g>
     <g id="line2d_12">
      <g>
       <use xlink:href="#m7e765f3a31" x="35.96" y="57.518514" style="fill: var(--fg-color); stroke: var(--fg-color); stroke-width: 0.8"/>
      </g>
     </g>
     <g id="text_6">
      <text style="font-size: 7px; font-family: 'DejaVu Sans', 'Bitstream Vera Sans', 'Computer Modern Sans Serif', 'Lucida Grande', 'Verdana', 'Geneva', 'Lucid', 'Arial', 'Helvetica', 'Avant Garde', sans-serif; text-anchor: end; fill: var(--fg-color)" x="28.96" y="60.177694" transform="rotate(-0 28.96 60.177694)">200</text>
     </g>
    </g>
    <g id="ytick_4">
     <g id="line2d_13">
      <path d="M 35.96 35.858608 
L 211 35.858608 
" clip-path="url(#p0e128c9826)" style="fill: none; stroke-dasharray: 2.96,1.28; stroke-dashoffset: 0; stroke: var(--grid-color); stroke-width: 0.8"/>
     </g>
     <g id="line2d_14">
      <g>
       <use xlink:href="#m7e765f3a31" x="35.96" y="35.858608" style="fill: var(--fg-color); stroke: var(--fg-color); stroke-width: 0.8"/>
      </g>
     </g>
     <g id="text_7">
      <text style="font-size: 7px; font-family: 'DejaVu Sans', 'Bitstream Vera Sans', 'Computer Modern Sans Serif', 'Lucida Grande', 'Verdana', 'Geneva', 'Lucid', 'Arial', 'Helvetica', 'Avant Garde', sans-serif; text-anchor: end; fill: var(--fg-color)" x="28.96" y="38.517788" transform="rotate(-0 28.96 38.517788)">300</text>
     </g>
    </g>
    <g id="ytick_5">
     <g id="line2d_15">
      <path d="M 35.96 14.198702 
L 211 14.198702 
" clip-path="url(#p0e128c9826)" style="fill: none; stroke-dasharray: 2.96,1.28; stroke-dashoffset: 0; stroke: var(--grid-color); stroke-width: 0.8"/>
     </g>
     <g id="line2d_16">
      <g>
       <use xlink:href="#m7e765f3a31" x="35.96" y="14.198702" style="fill: var(--fg-color); stroke: var(--fg-color); stroke-width: 0.8"/>
      </g>
     </g>
     <g id="text_8">
      <text style="font-size: 7px; font-family: 'DejaVu Sans', 'Bitstream Vera Sans', 'Computer Modern Sans Serif', 'Lucida Grande', 'Verdana', 'Geneva', 'Lucid', 'Arial', 'Helvetica', 'Avant Garde', sans-serif; text-anchor: end; fill: var(--fg-color)" x="28.96" y="16.857882" transform="rotate(-0 28.96 16.857882)">400</text>
     </g>
    </g>
    <g id="text_9">
     <text style="font-size: 7px; font-family: 'DejaVu Sans', 'Bitstream Vera Sans', 'Computer Modern Sans Serif', 'Lucida Grande', 'Verdana', 'Geneva', 'Lucid', 'Arial', 'Helvetica', 'Avant Garde', sans-serif; text-anchor: middle; fill: var(--fg-color)" x="9.917109" y="54.2" transform="rotate(-90 9.917109 54.2)">ms</text>
    </g>
   </g>
   <g id="line2d_17">
    <path d="M 43.916364 43.911761 
L 44.468628 27.488787 
L 45.3595 55.634969 
L 46.250371 56.108454 
L 47.141245 40.870061 
L 48.032112 35.076902 
L 48.922979 34.106105 
L 49.81384 26.964834 
L 50.704717 46.935484 
L 51.595589 48.741487 
L 52.486458 53.072818 
L 53.377327 40.3708 
L 54.268192 30.969534 
L 55.159063 36.252818 
L 56.049934 48.805167 
L 56.940797 45.561163 
L 57.831669 53.968672 
L 58.722538 15.560244 
L 59.613407 45.330052 
L 60.504275 54.465117 
L 61.395144 23.680759 
L 62.286016 53.175703 
L 63.176879 58.07734 
L 64.067746 49.648171 
L 64.958622 42.374991 
L 65.84949 49.412511 
L 66.740361 27.452182 
L 67.631226 42.16489 
L 68.522078 59.78544 
L 69.412965 32.924991 
L 70.30383 19.55628 
L 71.194705 43.141752 
L 72.085571 49.819717 
L 72.976442 53.792794 
L 73.867306 48.903503 
L 74.758184 32.559371 
L 75.649039 54.782218 
L 76.539914 26.558928 
L 77.430784 40.278095 
L 78.321655 17.101779 
L 79.212509 36.102066 
L 80.103391 32.97091 
L 80.994245 31.247864 
L 81.885129 45.671629 
L 82.775998 45.794657 
L 83.666869 30.360241 
L 84.557735 53.150578 
L 85.44861 30.770263 
L 94.53997 32.243353 
L 95.248438 47.73885 
L 96.139324 40.881107 
L 97.921065 51.137506 
L 98.811931 50.785532 
L 99.702798 43.264347 
L 100.593666 52.287863 
L 101.484533 48.899821 
L 102.375401 51.210067 
L 103.266272 37.569524 
L 104.157138 43.001829 
L 105.048009 40.778223 
L 105.93888 46.310163 
L 106.829748 39.398703 
L 107.720614 43.831836 
L 108.611487 44.850285 
L 109.502352 45.547301 
L 110.393224 51.55056 
L 111.284094 56.723596 
L 112.17496 54.955498 
L 113.065834 55.430716 
L 113.956695 38.584074 
L 114.847564 57.300399 
L 115.738441 31.760771 
L 116.629309 49.795025 
L 117.520178 56.684175 
L 118.41104 45.332218 
L 119.301913 50.419263 
L 120.192782 46.284387 
L 121.083649 42.878584 
L 121.97452 37.986477 
L 125.537994 37.802368 
L 126.428869 54.700344 
L 127.319734 26.24031 
L 128.210603 49.251578 
L 129.101474 48.424386 
L 129.992342 32.738715 
L 130.883214 20.262393 
L 131.774065 50.822571 
L 132.664946 29.497094 
L 133.55582 29.748349 
L 134.446686 33.496595 
L 135.337558 48.054218 
L 136.228424 40.773024 
L 137.119294 41.264488 
L 138.010159 38.99128 
L 138.901032 55.185526 
L 139.791912 25.076957 
L 140.68277 46.428642 
L 141.57364 25.028005 
L 142.464507 53.132167 
L 143.355376 40.419535 
L 144.246246 24.403767 
L 145.137113 28.420596 
L 146.027984 30.624492 
L 146.918849 34.435552 
L 173.644977 34.435552 
L 181.959197 50.068373 
L 182.553652 23.974251 
L 183.444521 54.950516 
L 184.335387 26.244642 
L 185.226256 23.718447 
L 187.007996 47.33186 
L 187.898864 27.544886 
L 188.789731 40.674688 
L 189.680603 23.270954 
L 190.571474 31.670665 
L 191.462343 9.472727 
L 192.353215 52.309957 
L 193.244077 31.640341 
L 194.134949 38.060338 
L 195.025817 46.445754 
L 196.807557 36.018025 
L 197.698426 45.509179 
L 198.589295 46.307563 
L 199.480162 30.399445 
L 200.371032 43.952915 
L 201.261898 48.468139 
L 202.152766 34.307326 
L 203.043636 55.634536 
L 203.043636 55.634536 
" clip-path="url(#p0e128c9826)" style="fill: none; stroke: #339af0; stroke-width: 1.2; stroke-linecap: square"/>
   </g>
   <g id="line2d_18">
    <path d="M 43.916364 95.973945 
L 44.468628 96.56396 
L 45.3595 96.714064 
L 46.250371 97.447035 
L 47.141245 96.37422 
L 48.032112 97.623996 
L 48.922979 97.18495 
L 49.81384 97.552952 
L 50.704717 97.671865 
L 51.595589 98.303034 
L 53.377327 96.915067 
L 54.268192 97.062138 
L 55.159063 96.604681 
L 56.049934 97.990915 
L 56.940797 96.979614 
L 57.831669 97.746808 
L 58.722538 96.894924 
L 59.613407 97.309278 
L 60.504275 97.92117 
L 61.395144 96.445047 
L 62.286016 97.828249 
L 63.176879 95.885139 
L 64.067746 96.396746 
L 64.958622 96.253574 
L 65.84949 97.170005 
L 66.740361 96.60923 
L 67.631226 96.201374 
L 68.522078 97.685944 
L 69.412965 97.051308 
L 70.30383 96.148523 
L 71.194705 98.092283 
L 72.085571 97.118887 
L 72.976442 97.004306 
L 73.867306 96.453928 
L 74.758184 96.834709 
L 75.649039 97.543421 
L 76.539914 96.882578 
L 77.430784 97.633093 
L 78.321655 97.745075 
L 79.212509 96.765614 
L 80.103391 96.959037 
L 80.994245 96.812183 
L 81.885129 98.307583 
L 82.775998 97.153543 
L 83.666869 97.308411 
L 85.44861 96.560711 
L 94.53997 96.998241 
L 95.248438 97.255994 
L 96.139324 96.526705 
L 97.030192 96.547282 
L 97.921065 96.98178 
L 98.811931 96.956438 
L 99.702798 97.987883 
L 101.484533 96.736806 
L 102.375401 98.32621 
L 103.266272 97.419743 
L 104.157138 98.483461 
L 105.048009 98.447073 
L 105.93888 98.195818 
L 106.829748 98.280508 
L 107.720614 97.428407 
L 108.611487 98.220727 
L 109.502352 98.767856 
L 110.393224 97.748757 
L 111.284094 98.162678 
L 112.17496 98.707858 
L 113.065834 97.720383 
L 113.956695 98.277042 
L 114.847564 97.731863 
L 115.738441 96.639553 
L 116.629309 97.360179 
L 117.520178 97.426458 
L 118.41104 97.993081 
L 119.301913 96.871964 
L 120.192782 97.744425 
L 121.083649 97.133833 
L 121.97452 97.447468 
L 125.537994 98.283974 
L 126.428869 96.953839 
L 127.319734 98.163544 
L 129.101474 98.071273 
L 130.883214 97.136432 
L 131.774065 98.304984 
L 132.664946 98.42368 
L 133.55582 98.199283 
L 134.446686 97.794893 
L 135.337558 98.417182 
L 137.119294 97.49447 
L 138.010159 97.066037 
L 138.901032 97.86897 
L 139.791912 98.353285 
L 140.68277 97.229353 
L 141.57364 98.347437 
L 142.464507 97.177802 
L 143.355376 97.949545 
L 145.137113 97.519162 
L 146.027984 97.880016 
L 146.918849 98.495158 
L 173.644977 98.495158 
L 181.959197 97.861389 
L 182.553652 98.705692 
L 183.444521 97.523278 
L 184.335387 98.017123 
L 185.226256 97.980735 
L 186.117131 97.041995 
L 187.007996 98.097915 
L 187.898864 97.425808 
L 188.789731 97.957559 
L 189.680603 97.211808 
L 190.571474 98.295886 
L 191.462343 97.871136 
L 192.353215 98.927273 
L 193.244077 97.597138 
L 194.134949 98.666271 
L 195.025817 98.160945 
L 195.916688 97.878283 
L 196.807557 98.264046 
L 197.698426 98.106146 
L 198.589295 98.248451 
L 199.480162 97.828249 
L 200.371032 98.030769 
L 201.261898 97.817852 
L 202.152766 97.470644 
L 203.043636 98.809876 
L 203.043636 98.809876 
" clip-path="url(#p0e128c9826)" style="fill: none; stroke: #ff6b6b; stroke-width: 1.2; stroke-linecap: square"/>
   </g>
   <g id="patch_3">
    <path d="M 35.96 103.4 
L 35.96 5 
" style="fill: none; stroke: var(--fg-color); stroke-width: 0.8; stroke-linejoin: miter; stroke-linecap: square"/>
   </g>
   <g id="patch_4">
    <path d="M 35.96 103.4 
L 211 103.4 
" style="fill: none; stroke: var(--fg-color); stroke-width: 0.8; stroke-linejoin: miter; stroke-linecap: square"/>
   </g>
  </g>
 </g>
 <defs>
  <clipPath id="p0e128c9826">
   <rect x="35.96" y="5" width="175.04" height="98.4"/>
  </clipPath>
 </defs>
</svg>
