<?xml version="1.0" encoding="utf-8" standalone="no"?>
<!DOCTYPE svg PUBLIC "-//W3C//DTD SVG 1.1//EN"
  "http://www.w3.org/Graphics/SVG/1.1/DTD/svg11.dtd">
<svg xmlns:xlink="http://www.w3.org/1999/xlink" width="737.28pt" height="552.96pt" viewBox="0 0 737.28 552.96" xmlns="http://www.w3.org/2000/svg" version="1.1">
 <metadata>
  <rdf:RDF xmlns:dc="http://purl.org/dc/elements/1.1/" xmlns:cc="http://creativecommons.org/ns#" xmlns:rdf="http://www.w3.org/1999/02/22-rdf-syntax-ns#">
   <cc:Work>
    <dc:type rdf:resource="http://purl.org/dc/dcmitype/StillImage"/>
    <dc:date>2026-06-30T15:36:49.714788</dc:date>
    <dc:format>image/svg+xml</dc:format>
    <dc:creator>
     <cc:Agent>
      <dc:title>Matplotlib v3.11.0, https://matplotlib.org/</dc:title>
     </cc:Agent>
    </dc:creator>
   </cc:Work>
  </rdf:RDF>
 </metadata>
 <defs>
  <style type="text/css">*{stroke-linejoin: round; stroke-linecap: butt}</style>
 </defs>
 <g id="figure_1">
  <g id="patch_1">
   <path d="M 0 552.96 
L 737.28 552.96 
L 737.28 0 
L 0 0 
z
" style="fill: #ffffff"/>
  </g>
  <g id="axes_1">
   <g id="patch_2">
    <path d="M 58.042344 510.837656 
L 682.837656 510.837656 
L 682.837656 26.16 
L 58.042344 26.16 
z
" style="fill: #ffffff"/>
   </g>
   <g id="matplotlib.axis_1">
    <g id="xtick_1">
     <g id="line2d_1">
      <path d="M 210.89289 510.837656 
L 210.89289 26.16 
" clip-path="url(#p0fb0f4d62d)" style="fill: none; stroke-dasharray: 2.96,1.28; stroke-dashoffset: 0; stroke: #dee2e6; stroke-width: 0.8"/>
     </g>
     <g id="line2d_2">
      <defs>
       <path id="me336a27131" d="M 0 0 
L 0 3.5 
" style="stroke: #212529; stroke-width: 0.8"/>
      </defs>
      <g>
       <use xlink:href="#me336a27131" x="210.89289" y="510.837656" style="fill: #212529; stroke: #212529; stroke-width: 0.8"/>
      </g>
     </g>
     <g id="text_1">
      <text style="font-size: 10px; font-family: 'DejaVu Sans', 'Bitstream Vera Sans', 'Computer Modern Sans Serif', 'Lucida Grande', 'Verdana', 'Geneva', 'Lucid', 'Arial', 'Helvetica', 'Avant Garde', sans-serif; text-anchor: middle; fill: #212529" x="210.89289" y="525.435313" transform="rotate(-0 210.89289 525.435313)">04/2026</text>
     </g>
    </g>
    <g id="xtick_2">
     <g id="line2d_3">
      <path d="M 656.475575 510.837656 
L 656.475575 26.16 
" clip-path="url(#p0fb0f4d62d)" style="fill: none; stroke-dasharray: 2.96,1.28; stroke-dashoffset: 0; stroke: #dee2e6; stroke-width: 0.8"/>
     </g>
     <g id="line2d_4">
      <g>
       <use xlink:href="#me336a27131" x="656.475575" y="510.837656" style="fill: #212529; stroke: #212529; stroke-width: 0.8"/>
      </g>
     </g>
     <g id="text_2">
      <text style="font-size: 10px; font-family: 'DejaVu Sans', 'Bitstream Vera Sans', 'Computer Modern Sans Serif', 'Lucida Grande', 'Verdana', 'Geneva', 'Lucid', 'Arial', 'Helvetica', 'Avant Garde', sans-serif; text-anchor: middle; fill: #212529" x="656.475575" y="525.435313" transform="rotate(-0 656.475575 525.435313)">07/2026</text>
     </g>
    </g>
    <g id="text_3">
     <text style="font-size: 10px; font-family: 'DejaVu Sans', 'Bitstream Vera Sans', 'Computer Modern Sans Serif', 'Lucida Grande', 'Verdana', 'Geneva', 'Lucid', 'Arial', 'Helvetica', 'Avant Garde', sans-serif; text-anchor: middle; fill: #212529" x="370.44" y="539.436094" transform="rotate(-0 370.44 539.436094)">Time</text>
    </g>
   </g>
   <g id="matplotlib.axis_2">
    <g id="ytick_1">
     <g id="line2d_5">
      <path d="M 58.042344 498.245319 
L 682.837656 498.245319 
" clip-path="url(#p0fb0f4d62d)" style="fill: none; stroke-dasharray: 2.96,1.28; stroke-dashoffset: 0; stroke: #dee2e6; stroke-width: 0.8"/>
     </g>
     <g id="line2d_6">
      <defs>
       <path id="mc9b67227e1" d="M 0 0 
L -3.5 0 
" style="stroke: #212529; stroke-width: 0.8"/>
      </defs>
      <g>
       <use xlink:href="#mc9b67227e1" x="58.042344" y="498.245319" style="fill: #212529; stroke: #212529; stroke-width: 0.8"/>
      </g>
     </g>
     <g id="text_4">
      <text style="font-size: 10px; font-family: 'DejaVu Sans', 'Bitstream Vera Sans', 'Computer Modern Sans Serif', 'Lucida Grande', 'Verdana', 'Geneva', 'Lucid', 'Arial', 'Helvetica', 'Avant Garde', sans-serif; text-anchor: end; fill: #212529" x="51.042344" y="502.044147" transform="rotate(-0 51.042344 502.044147)">200</text>
     </g>
    </g>
    <g id="ytick_2">
     <g id="line2d_7">
      <path d="M 58.042344 440.655074 
L 682.837656 440.655074 
" clip-path="url(#p0fb0f4d62d)" style="fill: none; stroke-dasharray: 2.96,1.28; stroke-dashoffset: 0; stroke: #dee2e6; stroke-width: 0.8"/>
     </g>
     <g id="line2d_8">
      <g>
       <use xlink:href="#mc9b67227e1" x="58.042344" y="440.655074" style="fill: #212529; stroke: #212529; stroke-width: 0.8"/>
      </g>
     </g>
     <g id="text_5">
      <text style="font-size: 10px; font-family: 'DejaVu Sans', 'Bitstream Vera Sans', 'Computer Modern Sans Serif', 'Lucida Grande', 'Verdana', 'Geneva', 'Lucid', 'Arial', 'Helvetica', 'Avant Garde', sans-serif; text-anchor: end; fill: #212529" x="51.042344" y="444.453902" transform="rotate(-0 51.042344 444.453902)">300</text>
     </g>
    </g>
    <g id="ytick_3">
     <g id="line2d_9">
      <path d="M 58.042344 383.06483 
L 682.837656 383.06483 
" clip-path="url(#p0fb0f4d62d)" style="fill: none; stroke-dasharray: 2.96,1.28; stroke-dashoffset: 0; stroke: #dee2e6; stroke-width: 0.8"/>
     </g>
     <g id="line2d_10">
      <g>
       <use xlink:href="#mc9b67227e1" x="58.042344" y="383.06483" style="fill: #212529; stroke: #212529; stroke-width: 0.8"/>
      </g>
     </g>
     <g id="text_6">
      <text style="font-size: 10px; font-family: 'DejaVu Sans', 'Bitstream Vera Sans', 'Computer Modern Sans Serif', 'Lucida Grande', 'Verdana', 'Geneva', 'Lucid', 'Arial', 'Helvetica', 'Avant Garde', sans-serif; text-anchor: end; fill: #212529" x="51.042344" y="386.863658" transform="rotate(-0 51.042344 386.863658)">400</text>
     </g>
    </g>
    <g id="ytick_4">
     <g id="line2d_11">
      <path d="M 58.042344 325.474585 
L 682.837656 325.474585 
" clip-path="url(#p0fb0f4d62d)" style="fill: none; stroke-dasharray: 2.96,1.28; stroke-dashoffset: 0; stroke: #dee2e6; stroke-width: 0.8"/>
     </g>
     <g id="line2d_12">
      <g>
       <use xlink:href="#mc9b67227e1" x="58.042344" y="325.474585" style="fill: #212529; stroke: #212529; stroke-width: 0.8"/>
      </g>
     </g>
     <g id="text_7">
      <text style="font-size: 10px; font-family: 'DejaVu Sans', 'Bitstream Vera Sans', 'Computer Modern Sans Serif', 'Lucida Grande', 'Verdana', 'Geneva', 'Lucid', 'Arial', 'Helvetica', 'Avant Garde', sans-serif; text-anchor: end; fill: #212529" x="51.042344" y="329.273413" transform="rotate(-0 51.042344 329.273413)">500</text>
     </g>
    </g>
    <g id="ytick_5">
     <g id="line2d_13">
      <path d="M 58.042344 267.88434 
L 682.837656 267.88434 
" clip-path="url(#p0fb0f4d62d)" style="fill: none; stroke-dasharray: 2.96,1.28; stroke-dashoffset: 0; stroke: #dee2e6; stroke-width: 0.8"/>
     </g>
     <g id="line2d_14">
      <g>
       <use xlink:href="#mc9b67227e1" x="58.042344" y="267.88434" style="fill: #212529; stroke: #212529; stroke-width: 0.8"/>
      </g>
     </g>
     <g id="text_8">
      <text style="font-size: 10px; font-family: 'DejaVu Sans', 'Bitstream Vera Sans', 'Computer Modern Sans Serif', 'Lucida Grande', 'Verdana', 'Geneva', 'Lucid', 'Arial', 'Helvetica', 'Avant Garde', sans-serif; text-anchor: end; fill: #212529" x="51.042344" y="271.683168" transform="rotate(-0 51.042344 271.683168)">600</text>
     </g>
    </g>
    <g id="ytick_6">
     <g id="line2d_15">
      <path d="M 58.042344 210.294096 
L 682.837656 210.294096 
" clip-path="url(#p0fb0f4d62d)" style="fill: none; stroke-dasharray: 2.96,1.28; stroke-dashoffset: 0; stroke: #dee2e6; stroke-width: 0.8"/>
     </g>
     <g id="line2d_16">
      <g>
       <use xlink:href="#mc9b67227e1" x="58.042344" y="210.294096" style="fill: #212529; stroke: #212529; stroke-width: 0.8"/>
      </g>
     </g>
     <g id="text_9">
      <text style="font-size: 10px; font-family: 'DejaVu Sans', 'Bitstream Vera Sans', 'Computer Modern Sans Serif', 'Lucida Grande', 'Verdana', 'Geneva', 'Lucid', 'Arial', 'Helvetica', 'Avant Garde', sans-serif; text-anchor: end; fill: #212529" x="51.042344" y="214.092924" transform="rotate(-0 51.042344 214.092924)">700</text>
     </g>
    </g>
    <g id="ytick_7">
     <g id="line2d_17">
      <path d="M 58.042344 152.703851 
L 682.837656 152.703851 
" clip-path="url(#p0fb0f4d62d)" style="fill: none; stroke-dasharray: 2.96,1.28; stroke-dashoffset: 0; stroke: #dee2e6; stroke-width: 0.8"/>
     </g>
     <g id="line2d_18">
      <g>
       <use xlink:href="#mc9b67227e1" x="58.042344" y="152.703851" style="fill: #212529; stroke: #212529; stroke-width: 0.8"/>
      </g>
     </g>
     <g id="text_10">
      <text style="font-size: 10px; font-family: 'DejaVu Sans', 'Bitstream Vera Sans', 'Computer Modern Sans Serif', 'Lucida Grande', 'Verdana', 'Geneva', 'Lucid', 'Arial', 'Helvetica', 'Avant Garde', sans-serif; text-anchor: end; fill: #212529" x="51.042344" y="156.502679" transform="rotate(-0 51.042344 156.502679)">800</text>
     </g>
    </g>
    <g id="ytick_8">
     <g id="line2d_19">
      <path d="M 58.042344 95.113606 
L 682.837656 95.113606 
" clip-path="url(#p0fb0f4d62d)" style="fill: none; stroke-dasharray: 2.96,1.28; stroke-dashoffset: 0; stroke: #dee2e6; stroke-width: 0.8"/>
     </g>
     <g id="line2d_20">
      <g>
       <use xlink:href="#mc9b67227e1" x="58.042344" y="95.113606" style="fill: #212529; stroke: #212529; stroke-width: 0.8"/>
      </g>
     </g>
     <g id="text_11">
      <text style="font-size: 10px; font-family: 'DejaVu Sans', 'Bitstream Vera Sans', 'Computer Modern Sans Serif', 'Lucida Grande', 'Verdana', 'Geneva', 'Lucid', 'Arial', 'Helvetica', 'Avant Garde', sans-serif; text-anchor: end; fill: #212529" x="51.042344" y="98.912434" transform="rotate(-0 51.042344 98.912434)">900</text>
     </g>
    </g>
    <g id="ytick_9">
     <g id="line2d_21">
      <path d="M 58.042344 37.523362 
L 682.837656 37.523362 
" clip-path="url(#p0fb0f4d62d)" style="fill: none; stroke-dasharray: 2.96,1.28; stroke-dashoffset: 0; stroke: #dee2e6; stroke-width: 0.8"/>
     </g>
     <g id="line2d_22">
      <g>
       <use xlink:href="#mc9b67227e1" x="58.042344" y="37.523362" style="fill: #212529; stroke: #212529; stroke-width: 0.8"/>
      </g>
     </g>
     <g id="text_12">
      <text style="font-size: 10px; font-family: 'DejaVu Sans', 'Bitstream Vera Sans', 'Computer Modern Sans Serif', 'Lucida Grande', 'Verdana', 'Geneva', 'Lucid', 'Arial', 'Helvetica', 'Avant Garde', sans-serif; text-anchor: end; fill: #212529" x="51.042344" y="41.32219" transform="rotate(-0 51.042344 41.32219)">1000</text>
     </g>
    </g>
    <g id="text_13">
     <text style="font-size: 10px; font-family: 'DejaVu Sans', 'Bitstream Vera Sans', 'Computer Modern Sans Serif', 'Lucida Grande', 'Verdana', 'Geneva', 'Lucid', 'Arial', 'Helvetica', 'Avant Garde', sans-serif; text-anchor: middle; fill: #212529" x="19.19" y="268.498828" transform="rotate(-90 19.19 268.498828)">Duration [ms]</text>
    </g>
   </g>
   <g id="line2d_23">
    <path d="M 86.442131 343.181857 
L 91.338636 409.215984 
L 96.235141 403.645279 
L 101.131649 422.477289 
L 106.028174 421.878351 
L 110.924669 379.19131 
L 115.821194 390.469207 
L 120.717716 414.376646 
L 125.614225 413.579021 
L 130.510722 404.37322 
L 135.407255 395.922428 
L 140.303751 367.873675 
L 145.20028 436.100838 
L 150.096799 420.304409 
L 154.993297 391.100972 
L 159.889838 446.712992 
L 164.786303 445.666001 
L 169.68282 330.077197 
L 174.579375 442.671885 
L 179.475883 466.045461 
L 184.372397 295.332427 
L 189.268873 435.083218 
L 194.165405 469.84469 
L 199.061921 444.201481 
L 203.958425 468.572521 
L 208.854946 469.416218 
L 228.440988 385.797487 
L 233.337537 418.308907 
L 238.234029 411.510379 
L 243.130543 409.152059 
L 248.027064 432.747934 
L 252.923574 473.845484 
L 257.820104 425.075761 
L 262.716517 450.424683 
L 267.613097 477.031376 
L 272.509638 430.131609 
L 277.406133 422.377658 
L 282.302663 466.637489 
L 287.199161 437.747919 
L 292.095678 456.894947 
L 296.992174 443.047373 
L 301.888705 449.967417 
L 306.78528 443.732121 
L 311.681731 340.933534 
L 316.578253 403.947052 
L 321.474752 388.85668 
L 326.371267 443.652646 
L 331.267785 437.229031 
L 336.164287 401.113612 
L 341.060813 413.186831 
L 345.957303 457.34991 
L 492.853027 457.34991 
L 538.550751 483.275311 
L 541.818075 480.331873 
L 546.714587 481.75896 
L 551.611088 480.857672 
L 556.5076 481.347189 
L 561.404144 475.985538 
L 566.30064 470.797232 
L 571.197145 487.406835 
L 576.093648 488.806854 
L 580.990177 473.787318 
L 585.886702 478.368622 
L 590.783215 369.588136 
L 595.679747 405.146081 
L 600.576222 410.239938 
L 605.47275 385.841255 
L 610.369258 399.479201 
L 615.265781 440.11315 
L 620.162295 406.074436 
L 625.058807 365.733045 
L 629.95532 408.706886 
L 634.851828 455.003684 
L 639.748344 435.726501 
L 644.644841 472.614205 
L 649.541348 446.055311 
L 654.437869 477.443723 
" clip-path="url(#p0fb0f4d62d)" style="fill: none; stroke: #007bff; stroke-width: 1.5; stroke-linecap: square"/>
    <defs>
     <path id="m37a3c78fe3" d="M 0 2 
C 0.530406 2 1.03916 1.789267 1.414214 1.414214 
C 1.789267 1.03916 2 0.530406 2 0 
C 2 -0.530406 1.789267 -1.03916 1.414214 -1.414214 
C 1.03916 -1.789267 0.530406 -2 0 -2 
C -0.530406 -2 -1.03916 -1.789267 -1.414214 -1.414214 
C -1.789267 -1.03916 -2 -0.530406 -2 0 
C -2 0.530406 -1.789267 1.03916 -1.414214 1.414214 
C -1.03916 1.789267 -0.530406 2 0 2 
z
" style="stroke: #007bff"/>
    </defs>
    <g clip-path="url(#p0fb0f4d62d)">
     <use xlink:href="#m37a3c78fe3" x="86.442131" y="343.181857" style="fill: #007bff; stroke: #007bff"/>
     <use xlink:href="#m37a3c78fe3" x="91.338636" y="409.215984" style="fill: #007bff; stroke: #007bff"/>
     <use xlink:href="#m37a3c78fe3" x="96.235141" y="403.645279" style="fill: #007bff; stroke: #007bff"/>
     <use xlink:href="#m37a3c78fe3" x="101.131649" y="422.477289" style="fill: #007bff; stroke: #007bff"/>
     <use xlink:href="#m37a3c78fe3" x="106.028174" y="421.878351" style="fill: #007bff; stroke: #007bff"/>
     <use xlink:href="#m37a3c78fe3" x="110.924669" y="379.19131" style="fill: #007bff; stroke: #007bff"/>
     <use xlink:href="#m37a3c78fe3" x="115.821194" y="390.469207" style="fill: #007bff; stroke: #007bff"/>
     <use xlink:href="#m37a3c78fe3" x="120.717716" y="414.376646" style="fill: #007bff; stroke: #007bff"/>
     <use xlink:href="#m37a3c78fe3" x="125.614225" y="413.579021" style="fill: #007bff; stroke: #007bff"/>
     <use xlink:href="#m37a3c78fe3" x="130.510722" y="404.37322" style="fill: #007bff; stroke: #007bff"/>
     <use xlink:href="#m37a3c78fe3" x="135.407255" y="395.922428" style="fill: #007bff; stroke: #007bff"/>
     <use xlink:href="#m37a3c78fe3" x="140.303751" y="367.873675" style="fill: #007bff; stroke: #007bff"/>
     <use xlink:href="#m37a3c78fe3" x="145.20028" y="436.100838" style="fill: #007bff; stroke: #007bff"/>
     <use xlink:href="#m37a3c78fe3" x="150.096799" y="420.304409" style="fill: #007bff; stroke: #007bff"/>
     <use xlink:href="#m37a3c78fe3" x="154.993297" y="391.100972" style="fill: #007bff; stroke: #007bff"/>
     <use xlink:href="#m37a3c78fe3" x="159.889838" y="446.712992" style="fill: #007bff; stroke: #007bff"/>
     <use xlink:href="#m37a3c78fe3" x="164.786303" y="445.666001" style="fill: #007bff; stroke: #007bff"/>
     <use xlink:href="#m37a3c78fe3" x="169.68282" y="330.077197" style="fill: #007bff; stroke: #007bff"/>
     <use xlink:href="#m37a3c78fe3" x="174.579375" y="442.671885" style="fill: #007bff; stroke: #007bff"/>
     <use xlink:href="#m37a3c78fe3" x="179.475883" y="466.045461" style="fill: #007bff; stroke: #007bff"/>
     <use xlink:href="#m37a3c78fe3" x="184.372397" y="295.332427" style="fill: #007bff; stroke: #007bff"/>
     <use xlink:href="#m37a3c78fe3" x="189.268873" y="435.083218" style="fill: #007bff; stroke: #007bff"/>
     <use xlink:href="#m37a3c78fe3" x="194.165405" y="469.84469" style="fill: #007bff; stroke: #007bff"/>
     <use xlink:href="#m37a3c78fe3" x="199.061921" y="444.201481" style="fill: #007bff; stroke: #007bff"/>
     <use xlink:href="#m37a3c78fe3" x="203.958425" y="468.572521" style="fill: #007bff; stroke: #007bff"/>
     <use xlink:href="#m37a3c78fe3" x="208.854946" y="469.416218" style="fill: #007bff; stroke: #007bff"/>
     <use xlink:href="#m37a3c78fe3" x="228.440988" y="385.797487" style="fill: #007bff; stroke: #007bff"/>
     <use xlink:href="#m37a3c78fe3" x="233.337537" y="418.308907" style="fill: #007bff; stroke: #007bff"/>
     <use xlink:href="#m37a3c78fe3" x="238.234029" y="411.510379" style="fill: #007bff; stroke: #007bff"/>
     <use xlink:href="#m37a3c78fe3" x="243.130543" y="409.152059" style="fill: #007bff; stroke: #007bff"/>
     <use xlink:href="#m37a3c78fe3" x="248.027064" y="432.747934" style="fill: #007bff; stroke: #007bff"/>
     <use xlink:href="#m37a3c78fe3" x="252.923574" y="473.845484" style="fill: #007bff; stroke: #007bff"/>
     <use xlink:href="#m37a3c78fe3" x="257.820104" y="425.075761" style="fill: #007bff; stroke: #007bff"/>
     <use xlink:href="#m37a3c78fe3" x="262.716517" y="450.424683" style="fill: #007bff; stroke: #007bff"/>
     <use xlink:href="#m37a3c78fe3" x="267.613097" y="477.031376" style="fill: #007bff; stroke: #007bff"/>
     <use xlink:href="#m37a3c78fe3" x="272.509638" y="430.131609" style="fill: #007bff; stroke: #007bff"/>
     <use xlink:href="#m37a3c78fe3" x="277.406133" y="422.377658" style="fill: #007bff; stroke: #007bff"/>
     <use xlink:href="#m37a3c78fe3" x="282.302663" y="466.637489" style="fill: #007bff; stroke: #007bff"/>
     <use xlink:href="#m37a3c78fe3" x="287.199161" y="437.747919" style="fill: #007bff; stroke: #007bff"/>
     <use xlink:href="#m37a3c78fe3" x="292.095678" y="456.894947" style="fill: #007bff; stroke: #007bff"/>
     <use xlink:href="#m37a3c78fe3" x="296.992174" y="443.047373" style="fill: #007bff; stroke: #007bff"/>
     <use xlink:href="#m37a3c78fe3" x="301.888705" y="449.967417" style="fill: #007bff; stroke: #007bff"/>
     <use xlink:href="#m37a3c78fe3" x="306.78528" y="443.732121" style="fill: #007bff; stroke: #007bff"/>
     <use xlink:href="#m37a3c78fe3" x="311.681731" y="340.933534" style="fill: #007bff; stroke: #007bff"/>
     <use xlink:href="#m37a3c78fe3" x="316.578253" y="403.947052" style="fill: #007bff; stroke: #007bff"/>
     <use xlink:href="#m37a3c78fe3" x="321.474752" y="388.85668" style="fill: #007bff; stroke: #007bff"/>
     <use xlink:href="#m37a3c78fe3" x="326.371267" y="443.652646" style="fill: #007bff; stroke: #007bff"/>
     <use xlink:href="#m37a3c78fe3" x="331.267785" y="437.229031" style="fill: #007bff; stroke: #007bff"/>
     <use xlink:href="#m37a3c78fe3" x="336.164287" y="401.113612" style="fill: #007bff; stroke: #007bff"/>
     <use xlink:href="#m37a3c78fe3" x="341.060813" y="413.186831" style="fill: #007bff; stroke: #007bff"/>
     <use xlink:href="#m37a3c78fe3" x="345.957303" y="457.34991" style="fill: #007bff; stroke: #007bff"/>
     <use xlink:href="#m37a3c78fe3" x="492.853027" y="457.34991" style="fill: #007bff; stroke: #007bff"/>
     <use xlink:href="#m37a3c78fe3" x="538.550751" y="483.275311" style="fill: #007bff; stroke: #007bff"/>
     <use xlink:href="#m37a3c78fe3" x="541.818075" y="480.331873" style="fill: #007bff; stroke: #007bff"/>
     <use xlink:href="#m37a3c78fe3" x="546.714587" y="481.75896" style="fill: #007bff; stroke: #007bff"/>
     <use xlink:href="#m37a3c78fe3" x="551.611088" y="480.857672" style="fill: #007bff; stroke: #007bff"/>
     <use xlink:href="#m37a3c78fe3" x="556.5076" y="481.347189" style="fill: #007bff; stroke: #007bff"/>
     <use xlink:href="#m37a3c78fe3" x="561.404144" y="475.985538" style="fill: #007bff; stroke: #007bff"/>
     <use xlink:href="#m37a3c78fe3" x="566.30064" y="470.797232" style="fill: #007bff; stroke: #007bff"/>
     <use xlink:href="#m37a3c78fe3" x="571.197145" y="487.406835" style="fill: #007bff; stroke: #007bff"/>
     <use xlink:href="#m37a3c78fe3" x="576.093648" y="488.806854" style="fill: #007bff; stroke: #007bff"/>
     <use xlink:href="#m37a3c78fe3" x="580.990177" y="473.787318" style="fill: #007bff; stroke: #007bff"/>
     <use xlink:href="#m37a3c78fe3" x="585.886702" y="478.368622" style="fill: #007bff; stroke: #007bff"/>
     <use xlink:href="#m37a3c78fe3" x="590.783215" y="369.588136" style="fill: #007bff; stroke: #007bff"/>
     <use xlink:href="#m37a3c78fe3" x="595.679747" y="405.146081" style="fill: #007bff; stroke: #007bff"/>
     <use xlink:href="#m37a3c78fe3" x="600.576222" y="410.239938" style="fill: #007bff; stroke: #007bff"/>
     <use xlink:href="#m37a3c78fe3" x="605.47275" y="385.841255" style="fill: #007bff; stroke: #007bff"/>
     <use xlink:href="#m37a3c78fe3" x="610.369258" y="399.479201" style="fill: #007bff; stroke: #007bff"/>
     <use xlink:href="#m37a3c78fe3" x="615.265781" y="440.11315" style="fill: #007bff; stroke: #007bff"/>
     <use xlink:href="#m37a3c78fe3" x="620.162295" y="406.074436" style="fill: #007bff; stroke: #007bff"/>
     <use xlink:href="#m37a3c78fe3" x="625.058807" y="365.733045" style="fill: #007bff; stroke: #007bff"/>
     <use xlink:href="#m37a3c78fe3" x="629.95532" y="408.706886" style="fill: #007bff; stroke: #007bff"/>
     <use xlink:href="#m37a3c78fe3" x="634.851828" y="455.003684" style="fill: #007bff; stroke: #007bff"/>
     <use xlink:href="#m37a3c78fe3" x="639.748344" y="435.726501" style="fill: #007bff; stroke: #007bff"/>
     <use xlink:href="#m37a3c78fe3" x="644.644841" y="472.614205" style="fill: #007bff; stroke: #007bff"/>
     <use xlink:href="#m37a3c78fe3" x="649.541348" y="446.055311" style="fill: #007bff; stroke: #007bff"/>
     <use xlink:href="#m37a3c78fe3" x="654.437869" y="477.443723" style="fill: #007bff; stroke: #007bff"/>
    </g>
   </g>
   <g id="line2d_24">
    <path d="M 86.442131 79.783659 
L 91.338636 81.825809 
L 96.235141 48.190803 
L 101.131649 86.772235 
L 106.028174 94.802043 
L 110.924669 54.822895 
L 115.821194 81.647855 
L 120.717716 98.158978 
L 125.614225 92.951093 
L 130.510722 94.404094 
L 135.407255 60.570977 
L 140.303751 73.551243 
L 145.20028 76.124951 
L 150.096799 70.03651 
L 154.993297 85.368761 
L 159.889838 93.031719 
L 164.786303 95.922173 
L 169.68282 63.811581 
L 174.579375 73.327793 
L 179.475883 105.995859 
L 184.372397 82.010674 
L 189.268873 82.097059 
L 194.165405 104.773218 
L 199.061921 69.005645 
L 203.958425 84.612601 
L 208.854946 92.128704 
L 228.440988 101.098384 
L 233.337537 90.998783 
L 238.234029 73.487893 
L 243.130543 101.274035 
L 248.027064 114.242782 
L 252.923574 103.6767 
L 257.820104 90.349741 
L 262.716517 98.970425 
L 267.613097 97.228896 
L 272.509638 103.479741 
L 277.406133 94.96272 
L 282.302663 82.689663 
L 287.199161 82.690815 
L 292.095678 90.501204 
L 296.992174 80.325583 
L 301.888705 103.691673 
L 306.78528 71.730815 
L 311.681731 94.922407 
L 316.578253 127.328437 
L 321.474752 118.460115 
L 326.371267 124.313012 
L 331.267785 107.566921 
L 336.164287 116.954131 
L 341.060813 93.024808 
L 345.957303 120.964715 
L 492.853027 120.964715 
L 538.550751 140.777487 
L 541.818075 125.053047 
L 546.714587 142.642259 
L 551.611088 134.506485 
L 556.5076 118.153159 
L 561.404144 121.783649 
L 566.30064 122.842157 
L 571.197145 137.525366 
L 576.093648 132.520198 
L 580.990177 128.488881 
L 585.886702 117.663642 
L 590.783215 140.788429 
L 595.679747 126.191606 
L 600.576222 133.859171 
L 605.47275 138.712877 
L 610.369258 127.968265 
L 615.265781 120.855294 
L 620.162295 133.802157 
L 625.058807 120.726868 
L 629.95532 120.209131 
L 634.851828 122.747133 
L 639.748344 109.689121 
L 644.644841 115.664109 
L 649.541348 124.200711 
L 654.437869 131.739274 
" clip-path="url(#p0fb0f4d62d)" style="fill: none; stroke: #dc3545; stroke-width: 1.5; stroke-linecap: square"/>
    <defs>
     <path id="m4d3e60aeff" d="M 0 2 
C 0.530406 2 1.03916 1.789267 1.414214 1.414214 
C 1.789267 1.03916 2 0.530406 2 0 
C 2 -0.530406 1.789267 -1.03916 1.414214 -1.414214 
C 1.03916 -1.789267 0.530406 -2 0 -2 
C -0.530406 -2 -1.03916 -1.789267 -1.414214 -1.414214 
C -1.789267 -1.03916 -2 -0.530406 -2 0 
C -2 0.530406 -1.789267 1.03916 -1.414214 1.414214 
C -1.03916 1.789267 -0.530406 2 0 2 
z
" style="stroke: #dc3545"/>
    </defs>
    <g clip-path="url(#p0fb0f4d62d)">
     <use xlink:href="#m4d3e60aeff" x="86.442131" y="79.783659" style="fill: #dc3545; stroke: #dc3545"/>
     <use xlink:href="#m4d3e60aeff" x="91.338636" y="81.825809" style="fill: #dc3545; stroke: #dc3545"/>
     <use xlink:href="#m4d3e60aeff" x="96.235141" y="48.190803" style="fill: #dc3545; stroke: #dc3545"/>
     <use xlink:href="#m4d3e60aeff" x="101.131649" y="86.772235" style="fill: #dc3545; stroke: #dc3545"/>
     <use xlink:href="#m4d3e60aeff" x="106.028174" y="94.802043" style="fill: #dc3545; stroke: #dc3545"/>
     <use xlink:href="#m4d3e60aeff" x="110.924669" y="54.822895" style="fill: #dc3545; stroke: #dc3545"/>
     <use xlink:href="#m4d3e60aeff" x="115.821194" y="81.647855" style="fill: #dc3545; stroke: #dc3545"/>
     <use xlink:href="#m4d3e60aeff" x="120.717716" y="98.158978" style="fill: #dc3545; stroke: #dc3545"/>
     <use xlink:href="#m4d3e60aeff" x="125.614225" y="92.951093" style="fill: #dc3545; stroke: #dc3545"/>
     <use xlink:href="#m4d3e60aeff" x="130.510722" y="94.404094" style="fill: #dc3545; stroke: #dc3545"/>
     <use xlink:href="#m4d3e60aeff" x="135.407255" y="60.570977" style="fill: #dc3545; stroke: #dc3545"/>
     <use xlink:href="#m4d3e60aeff" x="140.303751" y="73.551243" style="fill: #dc3545; stroke: #dc3545"/>
     <use xlink:href="#m4d3e60aeff" x="145.20028" y="76.124951" style="fill: #dc3545; stroke: #dc3545"/>
     <use xlink:href="#m4d3e60aeff" x="150.096799" y="70.03651" style="fill: #dc3545; stroke: #dc3545"/>
     <use xlink:href="#m4d3e60aeff" x="154.993297" y="85.368761" style="fill: #dc3545; stroke: #dc3545"/>
     <use xlink:href="#m4d3e60aeff" x="159.889838" y="93.031719" style="fill: #dc3545; stroke: #dc3545"/>
     <use xlink:href="#m4d3e60aeff" x="164.786303" y="95.922173" style="fill: #dc3545; stroke: #dc3545"/>
     <use xlink:href="#m4d3e60aeff" x="169.68282" y="63.811581" style="fill: #dc3545; stroke: #dc3545"/>
     <use xlink:href="#m4d3e60aeff" x="174.579375" y="73.327793" style="fill: #dc3545; stroke: #dc3545"/>
     <use xlink:href="#m4d3e60aeff" x="179.475883" y="105.995859" style="fill: #dc3545; stroke: #dc3545"/>
     <use xlink:href="#m4d3e60aeff" x="184.372397" y="82.010674" style="fill: #dc3545; stroke: #dc3545"/>
     <use xlink:href="#m4d3e60aeff" x="189.268873" y="82.097059" style="fill: #dc3545; stroke: #dc3545"/>
     <use xlink:href="#m4d3e60aeff" x="194.165405" y="104.773218" style="fill: #dc3545; stroke: #dc3545"/>
     <use xlink:href="#m4d3e60aeff" x="199.061921" y="69.005645" style="fill: #dc3545; stroke: #dc3545"/>
     <use xlink:href="#m4d3e60aeff" x="203.958425" y="84.612601" style="fill: #dc3545; stroke: #dc3545"/>
     <use xlink:href="#m4d3e60aeff" x="208.854946" y="92.128704" style="fill: #dc3545; stroke: #dc3545"/>
     <use xlink:href="#m4d3e60aeff" x="228.440988" y="101.098384" style="fill: #dc3545; stroke: #dc3545"/>
     <use xlink:href="#m4d3e60aeff" x="233.337537" y="90.998783" style="fill: #dc3545; stroke: #dc3545"/>
     <use xlink:href="#m4d3e60aeff" x="238.234029" y="73.487893" style="fill: #dc3545; stroke: #dc3545"/>
     <use xlink:href="#m4d3e60aeff" x="243.130543" y="101.274035" style="fill: #dc3545; stroke: #dc3545"/>
     <use xlink:href="#m4d3e60aeff" x="248.027064" y="114.242782" style="fill: #dc3545; stroke: #dc3545"/>
     <use xlink:href="#m4d3e60aeff" x="252.923574" y="103.6767" style="fill: #dc3545; stroke: #dc3545"/>
     <use xlink:href="#m4d3e60aeff" x="257.820104" y="90.349741" style="fill: #dc3545; stroke: #dc3545"/>
     <use xlink:href="#m4d3e60aeff" x="262.716517" y="98.970425" style="fill: #dc3545; stroke: #dc3545"/>
     <use xlink:href="#m4d3e60aeff" x="267.613097" y="97.228896" style="fill: #dc3545; stroke: #dc3545"/>
     <use xlink:href="#m4d3e60aeff" x="272.509638" y="103.479741" style="fill: #dc3545; stroke: #dc3545"/>
     <use xlink:href="#m4d3e60aeff" x="277.406133" y="94.96272" style="fill: #dc3545; stroke: #dc3545"/>
     <use xlink:href="#m4d3e60aeff" x="282.302663" y="82.689663" style="fill: #dc3545; stroke: #dc3545"/>
     <use xlink:href="#m4d3e60aeff" x="287.199161" y="82.690815" style="fill: #dc3545; stroke: #dc3545"/>
     <use xlink:href="#m4d3e60aeff" x="292.095678" y="90.501204" style="fill: #dc3545; stroke: #dc3545"/>
     <use xlink:href="#m4d3e60aeff" x="296.992174" y="80.325583" style="fill: #dc3545; stroke: #dc3545"/>
     <use xlink:href="#m4d3e60aeff" x="301.888705" y="103.691673" style="fill: #dc3545; stroke: #dc3545"/>
     <use xlink:href="#m4d3e60aeff" x="306.78528" y="71.730815" style="fill: #dc3545; stroke: #dc3545"/>
     <use xlink:href="#m4d3e60aeff" x="311.681731" y="94.922407" style="fill: #dc3545; stroke: #dc3545"/>
     <use xlink:href="#m4d3e60aeff" x="316.578253" y="127.328437" style="fill: #dc3545; stroke: #dc3545"/>
     <use xlink:href="#m4d3e60aeff" x="321.474752" y="118.460115" style="fill: #dc3545; stroke: #dc3545"/>
     <use xlink:href="#m4d3e60aeff" x="326.371267" y="124.313012" style="fill: #dc3545; stroke: #dc3545"/>
     <use xlink:href="#m4d3e60aeff" x="331.267785" y="107.566921" style="fill: #dc3545; stroke: #dc3545"/>
     <use xlink:href="#m4d3e60aeff" x="336.164287" y="116.954131" style="fill: #dc3545; stroke: #dc3545"/>
     <use xlink:href="#m4d3e60aeff" x="341.060813" y="93.024808" style="fill: #dc3545; stroke: #dc3545"/>
     <use xlink:href="#m4d3e60aeff" x="345.957303" y="120.964715" style="fill: #dc3545; stroke: #dc3545"/>
     <use xlink:href="#m4d3e60aeff" x="492.853027" y="120.964715" style="fill: #dc3545; stroke: #dc3545"/>
     <use xlink:href="#m4d3e60aeff" x="538.550751" y="140.777487" style="fill: #dc3545; stroke: #dc3545"/>
     <use xlink:href="#m4d3e60aeff" x="541.818075" y="125.053047" style="fill: #dc3545; stroke: #dc3545"/>
     <use xlink:href="#m4d3e60aeff" x="546.714587" y="142.642259" style="fill: #dc3545; stroke: #dc3545"/>
     <use xlink:href="#m4d3e60aeff" x="551.611088" y="134.506485" style="fill: #dc3545; stroke: #dc3545"/>
     <use xlink:href="#m4d3e60aeff" x="556.5076" y="118.153159" style="fill: #dc3545; stroke: #dc3545"/>
     <use xlink:href="#m4d3e60aeff" x="561.404144" y="121.783649" style="fill: #dc3545; stroke: #dc3545"/>
     <use xlink:href="#m4d3e60aeff" x="566.30064" y="122.842157" style="fill: #dc3545; stroke: #dc3545"/>
     <use xlink:href="#m4d3e60aeff" x="571.197145" y="137.525366" style="fill: #dc3545; stroke: #dc3545"/>
     <use xlink:href="#m4d3e60aeff" x="576.093648" y="132.520198" style="fill: #dc3545; stroke: #dc3545"/>
     <use xlink:href="#m4d3e60aeff" x="580.990177" y="128.488881" style="fill: #dc3545; stroke: #dc3545"/>
     <use xlink:href="#m4d3e60aeff" x="585.886702" y="117.663642" style="fill: #dc3545; stroke: #dc3545"/>
     <use xlink:href="#m4d3e60aeff" x="590.783215" y="140.788429" style="fill: #dc3545; stroke: #dc3545"/>
     <use xlink:href="#m4d3e60aeff" x="595.679747" y="126.191606" style="fill: #dc3545; stroke: #dc3545"/>
     <use xlink:href="#m4d3e60aeff" x="600.576222" y="133.859171" style="fill: #dc3545; stroke: #dc3545"/>
     <use xlink:href="#m4d3e60aeff" x="605.47275" y="138.712877" style="fill: #dc3545; stroke: #dc3545"/>
     <use xlink:href="#m4d3e60aeff" x="610.369258" y="127.968265" style="fill: #dc3545; stroke: #dc3545"/>
     <use xlink:href="#m4d3e60aeff" x="615.265781" y="120.855294" style="fill: #dc3545; stroke: #dc3545"/>
     <use xlink:href="#m4d3e60aeff" x="620.162295" y="133.802157" style="fill: #dc3545; stroke: #dc3545"/>
     <use xlink:href="#m4d3e60aeff" x="625.058807" y="120.726868" style="fill: #dc3545; stroke: #dc3545"/>
     <use xlink:href="#m4d3e60aeff" x="629.95532" y="120.209131" style="fill: #dc3545; stroke: #dc3545"/>
     <use xlink:href="#m4d3e60aeff" x="634.851828" y="122.747133" style="fill: #dc3545; stroke: #dc3545"/>
     <use xlink:href="#m4d3e60aeff" x="639.748344" y="109.689121" style="fill: #dc3545; stroke: #dc3545"/>
     <use xlink:href="#m4d3e60aeff" x="644.644841" y="115.664109" style="fill: #dc3545; stroke: #dc3545"/>
     <use xlink:href="#m4d3e60aeff" x="649.541348" y="124.200711" style="fill: #dc3545; stroke: #dc3545"/>
     <use xlink:href="#m4d3e60aeff" x="654.437869" y="131.739274" style="fill: #dc3545; stroke: #dc3545"/>
    </g>
   </g>
   <g id="patch_3">
    <path d="M 58.042344 510.837656 
L 58.042344 26.16 
" style="fill: none; stroke: #212529; stroke-width: 0.8; stroke-linejoin: miter; stroke-linecap: square"/>
   </g>
   <g id="patch_4">
    <path d="M 58.042344 510.837656 
L 682.837656 510.837656 
" style="fill: none; stroke: #212529; stroke-width: 0.8; stroke-linejoin: miter; stroke-linecap: square"/>
   </g>
   <g id="patch_5">
    <path d="M 58.042344 26.16 
L 682.837656 26.16 
" style="fill: none; stroke: #212529; stroke-width: 0.8; stroke-linejoin: miter; stroke-linecap: square"/>
   </g>
   <g id="legend_1">
    <g id="patch_6">
     <path d="M 63.873344 70.310952 
L 137.726603 70.310952 
Q 139.392603 70.310952 139.392603 68.644952 
L 139.392603 31.991 
Q 139.392603 30.325 137.726603 30.325 
L 63.873344 30.325 
Q 62.207344 30.325 62.207344 31.991 
L 62.207344 68.644952 
Q 62.207344 70.310952 63.873344 70.310952 
L 63.873344 70.310952 
z
" style="fill: none; opacity: 0.8; stroke: #212529; stroke-linejoin: miter"/>
    </g>
    <g id="line2d_25">
     <path d="M 65.539344 37.070998 
L 73.869344 37.070998 
L 82.199344 37.070998 
" style="fill: none; stroke: #007bff; stroke-width: 1.5; stroke-linecap: square"/>
     <g>
      <use xlink:href="#m37a3c78fe3" x="73.869344" y="37.070998" style="fill: #007bff; stroke: #007bff"/>
     </g>
    </g>
    <g id="text_14">
     <text style="font-size: 8.33px; font-family: 'DejaVu Sans', 'Bitstream Vera Sans', 'Computer Modern Sans Serif', 'Lucida Grande', 'Verdana', 'Geneva', 'Lucid', 'Arial', 'Helvetica', 'Avant Garde', sans-serif; text-anchor: start; fill: #212529" x="88.863344" y="39.986498" transform="rotate(-0 88.863344 39.986498)">Cold Start</text>
    </g>
    <g id="line2d_26">
     <path d="M 65.539344 49.566649 
L 73.869344 49.566649 
L 82.199344 49.566649 
" style="fill: none; stroke: #dc3545; stroke-width: 1.5; stroke-linecap: square"/>
     <g>
      <use xlink:href="#m4d3e60aeff" x="73.869344" y="49.566649" style="fill: #dc3545; stroke: #dc3545"/>
     </g>
    </g>
    <g id="text_15">
     <text style="font-size: 8.33px; font-family: 'DejaVu Sans', 'Bitstream Vera Sans', 'Computer Modern Sans Serif', 'Lucida Grande', 'Verdana', 'Geneva', 'Lucid', 'Arial', 'Helvetica', 'Avant Garde', sans-serif; text-anchor: start; fill: #212529" x="88.863344" y="52.482149" transform="rotate(-0 88.863344 52.482149)">Warm Start</text>
    </g>
    <g id="line2d_27">
     <path d="M 65.539344 62.0623 
L 73.869344 62.0623 
L 82.199344 62.0623 
" style="fill: none; stroke-dasharray: 5.55,2.4; stroke-dashoffset: 0; stroke: #ff7f0e; stroke-width: 1.5"/>
    </g>
    <g id="text_16">
     <text style="font-size: 8.33px; font-family: 'DejaVu Sans', 'Bitstream Vera Sans', 'Computer Modern Sans Serif', 'Lucida Grande', 'Verdana', 'Geneva', 'Lucid', 'Arial', 'Helvetica', 'Avant Garde', sans-serif; text-anchor: start; fill: #212529" x="88.863344" y="64.9778" transform="rotate(-0 88.863344 64.9778)">Memory</text>
    </g>
   </g>
  </g>
  <g id="axes_2">
   <g id="matplotlib.axis_3">
    <g id="ytick_10">
     <g id="line2d_28">
      <defs>
       <path id="md9aef7ffb4" d="M 0 0 
L 3.5 0 
" style="stroke: #212529; stroke-width: 0.8"/>
      </defs>
      <g>
       <use xlink:href="#md9aef7ffb4" x="682.837656" y="467.825137" style="fill: #212529; stroke: #212529; stroke-width: 0.8"/>
      </g>
     </g>
     <g id="text_17">
      <text style="font-size: 10px; font-family: 'DejaVu Sans', 'Bitstream Vera Sans', 'Computer Modern Sans Serif', 'Lucida Grande', 'Verdana', 'Geneva', 'Lucid', 'Arial', 'Helvetica', 'Avant Garde', sans-serif; text-anchor: start; fill: #ff7f0e" x="689.837656" y="471.623965" transform="rotate(-0 689.837656 471.623965)">72.5</text>
     </g>
    </g>
    <g id="ytick_11">
     <g id="line2d_29">
      <g>
       <use xlink:href="#md9aef7ffb4" x="682.837656" y="362.916553" style="fill: #212529; stroke: #212529; stroke-width: 0.8"/>
      </g>
     </g>
     <g id="text_18">
      <text style="font-size: 10px; font-family: 'DejaVu Sans', 'Bitstream Vera Sans', 'Computer Modern Sans Serif', 'Lucida Grande', 'Verdana', 'Geneva', 'Lucid', 'Arial', 'Helvetica', 'Avant Garde', sans-serif; text-anchor: start; fill: #ff7f0e" x="689.837656" y="366.715381" transform="rotate(-0 689.837656 366.715381)">73.0</text>
     </g>
    </g>
    <g id="ytick_12">
     <g id="line2d_30">
      <g>
       <use xlink:href="#md9aef7ffb4" x="682.837656" y="258.00797" style="fill: #212529; stroke: #212529; stroke-width: 0.8"/>
      </g>
     </g>
     <g id="text_19">
      <text style="font-size: 10px; font-family: 'DejaVu Sans', 'Bitstream Vera Sans', 'Computer Modern Sans Serif', 'Lucida Grande', 'Verdana', 'Geneva', 'Lucid', 'Arial', 'Helvetica', 'Avant Garde', sans-serif; text-anchor: start; fill: #ff7f0e" x="689.837656" y="261.806798" transform="rotate(-0 689.837656 261.806798)">73.5</text>
     </g>
    </g>
    <g id="ytick_13">
     <g id="line2d_31">
      <g>
       <use xlink:href="#md9aef7ffb4" x="682.837656" y="153.099386" style="fill: #212529; stroke: #212529; stroke-width: 0.8"/>
      </g>
     </g>
     <g id="text_20">
      <text style="font-size: 10px; font-family: 'DejaVu Sans', 'Bitstream Vera Sans', 'Computer Modern Sans Serif', 'Lucida Grande', 'Verdana', 'Geneva', 'Lucid', 'Arial', 'Helvetica', 'Avant Garde', sans-serif; text-anchor: start; fill: #ff7f0e" x="689.837656" y="156.898214" transform="rotate(-0 689.837656 156.898214)">74.0</text>
     </g>
    </g>
    <g id="ytick_14">
     <g id="line2d_32">
      <g>
       <use xlink:href="#md9aef7ffb4" x="682.837656" y="48.190803" style="fill: #212529; stroke: #212529; stroke-width: 0.8"/>
      </g>
     </g>
     <g id="text_21">
      <text style="font-size: 10px; font-family: 'DejaVu Sans', 'Bitstream Vera Sans', 'Computer Modern Sans Serif', 'Lucida Grande', 'Verdana', 'Geneva', 'Lucid', 'Arial', 'Helvetica', 'Avant Garde', sans-serif; text-anchor: start; fill: #ff7f0e" x="689.837656" y="51.989631" transform="rotate(-0 689.837656 51.989631)">74.5</text>
     </g>
    </g>
    <g id="text_22">
     <text style="font-size: 10px; font-family: 'DejaVu Sans', 'Bitstream Vera Sans', 'Computer Modern Sans Serif', 'Lucida Grande', 'Verdana', 'Geneva', 'Lucid', 'Arial', 'Helvetica', 'Avant Garde', sans-serif; text-anchor: middle; fill: #ff7f0e" x="723.701719" y="268.498828" transform="rotate(-90 723.701719 268.498828)">Memory Usage [MB]</text>
    </g>
   </g>
   <g id="line2d_33">
    <path d="M 86.442131 278.989686 
L 91.338636 237.026253 
L 96.235141 216.044536 
L 101.131649 258.00797 
L 106.028174 216.044536 
L 110.924669 174.081103 
L 115.821194 216.044536 
L 120.717716 174.081103 
L 125.614225 216.044536 
L 130.510722 153.099386 
L 135.407255 153.099386 
L 140.303751 195.06282 
L 145.20028 174.081103 
L 150.096799 174.081103 
L 154.993297 216.044536 
L 159.889838 195.06282 
L 164.786303 195.06282 
L 169.68282 174.081103 
L 174.579375 153.099386 
L 179.475883 258.00797 
L 184.372397 362.916553 
L 189.268873 320.95312 
L 194.165405 320.95312 
L 199.061921 320.95312 
L 203.958425 299.971403 
L 208.854946 362.916553 
L 228.440988 320.95312 
L 233.337537 299.971403 
L 238.234029 299.971403 
L 243.130543 341.934837 
L 248.027064 362.916553 
L 252.923574 320.95312 
L 257.820104 341.934837 
L 262.716517 341.934837 
L 267.613097 362.916553 
L 272.509638 362.916553 
L 277.406133 362.916553 
L 282.302663 320.95312 
L 287.199161 362.916553 
L 292.095678 362.916553 
L 296.992174 341.934837 
L 301.888705 341.934837 
L 306.78528 320.95312 
L 311.681731 446.84342 
L 316.578253 425.861704 
L 321.474752 383.89827 
L 326.371267 467.825137 
L 331.267785 404.879987 
L 336.164287 488.806854 
L 341.060813 383.89827 
L 345.957303 425.861704 
L 492.853027 425.861704 
L 538.550751 341.934837 
L 541.818075 278.989686 
L 546.714587 299.971403 
L 551.611088 299.971403 
L 556.5076 320.95312 
L 561.404144 278.989686 
L 566.30064 341.934837 
L 571.197145 341.934837 
L 576.093648 299.971403 
L 580.990177 341.934837 
L 585.886702 320.95312 
L 590.783215 111.135953 
L 595.679747 48.190803 
L 600.576222 90.154236 
L 605.47275 111.135953 
L 610.369258 90.154236 
L 615.265781 90.154236 
L 620.162295 69.172519 
L 625.058807 48.190803 
L 629.95532 111.135953 
L 634.851828 111.135953 
L 639.748344 69.172519 
L 644.644841 90.154236 
L 649.541348 90.154236 
L 654.437869 90.154236 
" clip-path="url(#p0fb0f4d62d)" style="fill: none; stroke-dasharray: 5.55,2.4; stroke-dashoffset: 0; stroke: #ff7f0e; stroke-width: 1.5"/>
   </g>
   <g id="patch_7">
    <path d="M 682.837656 510.837656 
L 682.837656 26.16 
" style="fill: none; stroke: #ff7f0e; stroke-width: 0.8; stroke-linejoin: miter; stroke-linecap: square"/>
   </g>
   <g id="text_23">
    <text style="font-size: 12px; font-family: 'DejaVu Sans', 'Bitstream Vera Sans', 'Computer Modern Sans Serif', 'Lucida Grande', 'Verdana', 'Geneva', 'Lucid', 'Arial', 'Helvetica', 'Avant Garde', sans-serif; text-anchor: middle; fill: #212529" x="370.44" y="20.16" transform="rotate(-0 370.44 20.16)">dotnet10 (arm64, zip, 128MB, us-east-1)</text>
   </g>
  </g>
 </g>
 <defs>
  <clipPath id="p0fb0f4d62d">
   <rect x="58.042344" y="26.16" width="624.795313" height="484.677656"/>
  </clipPath>
 </defs>
</svg>
