<?xml version="1.0" encoding="utf-8" standalone="no"?>
<!DOCTYPE svg PUBLIC "-//W3C//DTD SVG 1.1//EN"
  "http://www.w3.org/Graphics/SVG/1.1/DTD/svg11.dtd">
<svg xmlns:xlink="http://www.w3.org/1999/xlink" width="216pt" height="122.4pt" viewBox="0 0 216 122.4" xmlns="http://www.w3.org/2000/svg" version="1.1">
  <style>
    :root {
      --fg-color: #212529;
      --grid-color: rgba(33, 37, 41, 0.1);
    }
    @media (prefers-color-scheme: dark) {
      :root {
        --fg-color: #dee2e6;
        --grid-color: rgba(248, 249, 250, 0.15);
      }
    }
  </style>

 <metadata>
  <rdf:RDF xmlns:dc="http://purl.org/dc/elements/1.1/" xmlns:cc="http://creativecommons.org/ns#" xmlns:rdf="http://www.w3.org/1999/02/22-rdf-syntax-ns#">
   <cc:Work>
    <dc:type rdf:resource="http://purl.org/dc/dcmitype/StillImage"/>
    <dc:date>2026-06-30T15:37:36.082259</dc:date>
    <dc:format>image/svg+xml</dc:format>
    <dc:creator>
     <cc:Agent>
      <dc:title>Matplotlib v3.11.0, https://matplotlib.org/</dc:title>
     </cc:Agent>
    </dc:creator>
   </cc:Work>
  </rdf:RDF>
 </metadata>
 <defs>
  <style type="text/css">*{stroke-linejoin: round; stroke-linecap: butt}</style>
 </defs>
 <g id="figure_1">
  <g id="patch_1">
   <path d="M 0 122.4 
L 216 122.4 
L 216 0 
L 0 0 
L 0 122.4 
z
" style="fill: none; opacity: 0"/>
  </g>
  <g id="axes_1">
   <g id="patch_2">
    <path d="M 35.96 103.4 
L 211 103.4 
L 211 5 
L 35.96 5 
L 35.96 103.4 
z
" style="fill: none; opacity: 0"/>
   </g>
   <g id="matplotlib.axis_1">
    <g id="xtick_1">
     <g id="line2d_1">
      <path d="M 69.784035 103.4 
L 69.784035 5 
" clip-path="url(#p73793e3306)" style="fill: none; stroke-dasharray: 2.96,1.28; stroke-dashoffset: 0; stroke: var(--grid-color); stroke-width: 0.8"/>
     </g>
     <g id="line2d_2">
      <defs>
       <path id="m739f395ebd" d="M 0 0 
L 0 3.5 
" style="stroke: var(--fg-color); stroke-width: 0.8"/>
      </defs>
      <g>
       <use xlink:href="#m739f395ebd" x="69.784035" y="103.4" style="fill: var(--fg-color); stroke: var(--fg-color); stroke-width: 0.8"/>
      </g>
     </g>
     <g id="text_1">
      <text style="font-size: 7px; font-family: 'DejaVu Sans', 'Bitstream Vera Sans', 'Computer Modern Sans Serif', 'Lucida Grande', 'Verdana', 'Geneva', 'Lucid', 'Arial', 'Helvetica', 'Avant Garde', sans-serif; text-anchor: middle; fill: var(--fg-color)" x="69.784035" y="115.718359" transform="rotate(-0 69.784035 115.718359)">02/2026</text>
     </g>
    </g>
    <g id="xtick_2">
     <g id="line2d_3">
      <path d="M 122.345302 103.4 
L 122.345302 5 
" clip-path="url(#p73793e3306)" style="fill: none; stroke-dasharray: 2.96,1.28; stroke-dashoffset: 0; stroke: var(--grid-color); stroke-width: 0.8"/>
     </g>
     <g id="line2d_4">
      <g>
       <use xlink:href="#m739f395ebd" x="122.345302" y="103.4" style="fill: var(--fg-color); stroke: var(--fg-color); stroke-width: 0.8"/>
      </g>
     </g>
     <g id="text_2">
      <text style="font-size: 7px; font-family: 'DejaVu Sans', 'Bitstream Vera Sans', 'Computer Modern Sans Serif', 'Lucida Grande', 'Verdana', 'Geneva', 'Lucid', 'Arial', 'Helvetica', 'Avant Garde', sans-serif; text-anchor: middle; fill: var(--fg-color)" x="122.345302" y="115.718359" transform="rotate(-0 122.345302 115.718359)">04/2026</text>
     </g>
    </g>
    <g id="xtick_3">
     <g id="line2d_5">
      <path d="M 176.688307 103.4 
L 176.688307 5 
" clip-path="url(#p73793e3306)" style="fill: none; stroke-dasharray: 2.96,1.28; stroke-dashoffset: 0; stroke: var(--grid-color); stroke-width: 0.8"/>
     </g>
     <g id="line2d_6">
      <g>
       <use xlink:href="#m739f395ebd" x="176.688307" y="103.4" style="fill: var(--fg-color); stroke: var(--fg-color); stroke-width: 0.8"/>
      </g>
     </g>
     <g id="text_3">
      <text style="font-size: 7px; font-family: 'DejaVu Sans', 'Bitstream Vera Sans', 'Computer Modern Sans Serif', 'Lucida Grande', 'Verdana', 'Geneva', 'Lucid', 'Arial', 'Helvetica', 'Avant Garde', sans-serif; text-anchor: middle; fill: var(--fg-color)" x="176.688307" y="115.718359" transform="rotate(-0 176.688307 115.718359)">06/2026</text>
     </g>
    </g>
   </g>
   <g id="matplotlib.axis_2">
    <g id="ytick_1">
     <g id="line2d_7">
      <path d="M 35.96 99.455195 
L 211 99.455195 
" clip-path="url(#p73793e3306)" style="fill: none; stroke-dasharray: 2.96,1.28; stroke-dashoffset: 0; stroke: var(--grid-color); stroke-width: 0.8"/>
     </g>
     <g id="line2d_8">
      <defs>
       <path id="m37bb2e3f5c" d="M 0 0 
L -3.5 0 
" style="stroke: var(--fg-color); stroke-width: 0.8"/>
      </defs>
      <g>
       <use xlink:href="#m37bb2e3f5c" x="35.96" y="99.455195" style="fill: var(--fg-color); stroke: var(--fg-color); stroke-width: 0.8"/>
      </g>
     </g>
     <g id="text_4">
      <text style="font-size: 7px; font-family: 'DejaVu Sans', 'Bitstream Vera Sans', 'Computer Modern Sans Serif', 'Lucida Grande', 'Verdana', 'Geneva', 'Lucid', 'Arial', 'Helvetica', 'Avant Garde', sans-serif; text-anchor: end; fill: var(--fg-color)" x="28.96" y="102.114374" transform="rotate(-0 28.96 102.114374)">0</text>
     </g>
    </g>
    <g id="ytick_2">
     <g id="line2d_9">
      <path d="M 35.96 81.307312 
L 211 81.307312 
" clip-path="url(#p73793e3306)" style="fill: none; stroke-dasharray: 2.96,1.28; stroke-dashoffset: 0; stroke: var(--grid-color); stroke-width: 0.8"/>
     </g>
     <g id="line2d_10">
      <g>
       <use xlink:href="#m37bb2e3f5c" x="35.96" y="81.307312" style="fill: var(--fg-color); stroke: var(--fg-color); stroke-width: 0.8"/>
      </g>
     </g>
     <g id="text_5">
      <text style="font-size: 7px; font-family: 'DejaVu Sans', 'Bitstream Vera Sans', 'Computer Modern Sans Serif', 'Lucida Grande', 'Verdana', 'Geneva', 'Lucid', 'Arial', 'Helvetica', 'Avant Garde', sans-serif; text-anchor: end; fill: var(--fg-color)" x="28.96" y="83.966491" transform="rotate(-0 28.96 83.966491)">100</text>
     </g>
    </g>
    <g id="ytick_3">
     <g id="line2d_11">
      <path d="M 35.96 63.159428 
L 211 63.159428 
" clip-path="url(#p73793e3306)" style="fill: none; stroke-dasharray: 2.96,1.28; stroke-dashoffset: 0; stroke: var(--grid-color); stroke-width: 0.8"/>
     </g>
     <g id="line2d_12">
      <g>
       <use xlink:href="#m37bb2e3f5c" x="35.96" y="63.159428" style="fill: var(--fg-color); stroke: var(--fg-color); stroke-width: 0.8"/>
      </g>
     </g>
     <g id="text_6">
      <text style="font-size: 7px; font-family: 'DejaVu Sans', 'Bitstream Vera Sans', 'Computer Modern Sans Serif', 'Lucida Grande', 'Verdana', 'Geneva', 'Lucid', 'Arial', 'Helvetica', 'Avant Garde', sans-serif; text-anchor: end; fill: var(--fg-color)" x="28.96" y="65.818608" transform="rotate(-0 28.96 65.818608)">200</text>
     </g>
    </g>
    <g id="ytick_4">
     <g id="line2d_13">
      <path d="M 35.96 45.011545 
L 211 45.011545 
" clip-path="url(#p73793e3306)" style="fill: none; stroke-dasharray: 2.96,1.28; stroke-dashoffset: 0; stroke: var(--grid-color); stroke-width: 0.8"/>
     </g>
     <g id="line2d_14">
      <g>
       <use xlink:href="#m37bb2e3f5c" x="35.96" y="45.011545" style="fill: var(--fg-color); stroke: var(--fg-color); stroke-width: 0.8"/>
      </g>
     </g>
     <g id="text_7">
      <text style="font-size: 7px; font-family: 'DejaVu Sans', 'Bitstream Vera Sans', 'Computer Modern Sans Serif', 'Lucida Grande', 'Verdana', 'Geneva', 'Lucid', 'Arial', 'Helvetica', 'Avant Garde', sans-serif; text-anchor: end; fill: var(--fg-color)" x="28.96" y="47.670725" transform="rotate(-0 28.96 47.670725)">300</text>
     </g>
    </g>
    <g id="ytick_5">
     <g id="line2d_15">
      <path d="M 35.96 26.863662 
L 211 26.863662 
" clip-path="url(#p73793e3306)" style="fill: none; stroke-dasharray: 2.96,1.28; stroke-dashoffset: 0; stroke: var(--grid-color); stroke-width: 0.8"/>
     </g>
     <g id="line2d_16">
      <g>
       <use xlink:href="#m37bb2e3f5c" x="35.96" y="26.863662" style="fill: var(--fg-color); stroke: var(--fg-color); stroke-width: 0.8"/>
      </g>
     </g>
     <g id="text_8">
      <text style="font-size: 7px; font-family: 'DejaVu Sans', 'Bitstream Vera Sans', 'Computer Modern Sans Serif', 'Lucida Grande', 'Verdana', 'Geneva', 'Lucid', 'Arial', 'Helvetica', 'Avant Garde', sans-serif; text-anchor: end; fill: var(--fg-color)" x="28.96" y="29.522842" transform="rotate(-0 28.96 29.522842)">400</text>
     </g>
    </g>
    <g id="ytick_6">
     <g id="line2d_17">
      <path d="M 35.96 8.715779 
L 211 8.715779 
" clip-path="url(#p73793e3306)" style="fill: none; stroke-dasharray: 2.96,1.28; stroke-dashoffset: 0; stroke: var(--grid-color); stroke-width: 0.8"/>
     </g>
     <g id="line2d_18">
      <g>
       <use xlink:href="#m37bb2e3f5c" x="35.96" y="8.715779" style="fill: var(--fg-color); stroke: var(--fg-color); stroke-width: 0.8"/>
      </g>
     </g>
     <g id="text_9">
      <text style="font-size: 7px; font-family: 'DejaVu Sans', 'Bitstream Vera Sans', 'Computer Modern Sans Serif', 'Lucida Grande', 'Verdana', 'Geneva', 'Lucid', 'Arial', 'Helvetica', 'Avant Garde', sans-serif; text-anchor: end; fill: var(--fg-color)" x="28.96" y="11.374959" transform="rotate(-0 28.96 11.374959)">500</text>
     </g>
    </g>
    <g id="text_10">
     <text style="font-size: 7px; font-family: 'DejaVu Sans', 'Bitstream Vera Sans', 'Computer Modern Sans Serif', 'Lucida Grande', 'Verdana', 'Geneva', 'Lucid', 'Arial', 'Helvetica', 'Avant Garde', sans-serif; text-anchor: middle; fill: var(--fg-color)" x="9.917109" y="54.2" transform="rotate(-90 9.917109 54.2)">ms</text>
    </g>
   </g>
   <g id="line2d_19">
    <path d="M 43.916364 35.691881 
L 44.468628 43.830663 
L 45.3595 42.085199 
L 46.250371 31.620585 
L 47.141245 32.063031 
L 48.032112 40.631917 
L 48.922979 36.453367 
L 49.81384 38.190119 
L 50.704717 45.544004 
L 51.595589 28.571922 
L 52.486458 36.312176 
L 53.377327 31.366333 
L 54.268192 30.286171 
L 55.159063 38.4921 
L 56.049934 40.481471 
L 56.940797 36.271162 
L 57.831669 42.27793 
L 58.722538 30.139355 
L 59.613407 45.591189 
L 60.504275 30.654573 
L 61.395144 43.637751 
L 62.286016 30.12157 
L 63.176879 45.389747 
L 64.067746 42.292811 
L 64.958622 42.633447 
L 65.84949 31.022976 
L 66.740361 42.643065 
L 67.631226 42.01043 
L 68.522078 39.242878 
L 69.412965 41.925498 
L 70.30383 46.693491 
L 71.194705 37.00724 
L 72.085571 37.6994 
L 72.976442 45.072341 
L 73.867306 41.755271 
L 74.758184 36.444837 
L 75.649039 45.734738 
L 76.539914 46.572263 
L 77.430784 40.237745 
L 78.321655 37.85402 
L 79.212509 44.086185 
L 80.103391 38.812047 
L 80.994245 40.068243 
L 81.885129 45.711146 
L 82.775998 42.453964 
L 83.666869 45.122973 
L 84.557735 40.521396 
L 85.44861 45.321148 
L 94.53997 32.376445 
L 95.248438 44.389254 
L 96.139324 42.805489 
L 97.030192 35.793328 
L 97.921065 33.026865 
L 98.811931 34.918419 
L 99.702798 38.317699 
L 100.593666 50.23741 
L 101.484533 29.845722 
L 102.375401 36.970581 
L 103.266272 40.463141 
L 104.157138 42.304244 
L 105.048009 49.067779 
L 105.93888 36.603631 
L 107.720614 50.677677 
L 108.611487 27.242046 
L 109.502352 18.390779 
L 110.393224 46.190795 
L 111.284094 24.699346 
L 112.17496 44.389799 
L 113.065834 39.963712 
L 113.956695 41.784307 
L 114.847564 40.529018 
L 115.738441 45.125333 
L 116.629309 41.624606 
L 117.520178 39.11675 
L 118.41104 46.895296 
L 119.301913 45.110451 
L 120.192782 37.133549 
L 121.083649 48.734946 
L 121.97452 33.685996 
L 125.537994 33.865297 
L 126.428869 43.935557 
L 127.319734 32.189884 
L 129.101474 38.547814 
L 129.992342 37.309039 
L 131.774065 40.505063 
L 132.664946 44.115403 
L 133.55582 39.946108 
L 134.446686 42.310414 
L 135.337558 36.488392 
L 136.228424 42.276841 
L 137.119294 35.03275 
L 138.010159 46.067571 
L 138.901032 52.540195 
L 139.791912 25.39568 
L 140.68277 46.120199 
L 141.57364 29.242487 
L 142.464507 40.765848 
L 143.355376 37.136271 
L 144.246246 44.05007 
L 145.137113 44.039726 
L 146.027984 38.476856 
L 146.918849 43.211638 
L 173.644977 43.211638 
L 181.959197 48.144777 
L 182.553652 28.351789 
L 183.444521 15.859693 
L 184.335387 9.472727 
L 185.226256 12.331926 
L 186.117131 34.686126 
L 187.007996 16.6484 
L 187.898864 26.21542 
L 188.789731 39.375357 
L 189.680603 39.297866 
L 190.571474 51.137726 
L 191.462343 30.448232 
L 192.353215 29.365348 
L 193.244077 25.422539 
L 194.134949 38.09085 
L 195.025817 33.640263 
L 195.916688 21.556677 
L 196.807557 23.615736 
L 197.698426 42.486267 
L 198.589295 41.252937 
L 199.480162 21.779714 
L 200.371032 33.776554 
L 201.261898 32.316012 
L 202.152766 27.290319 
L 203.043636 41.240052 
L 203.043636 41.240052 
" clip-path="url(#p73793e3306)" style="fill: none; stroke: #339af0; stroke-width: 1.2; stroke-linecap: square"/>
   </g>
   <g id="line2d_20">
    <path d="M 43.916364 98.381021 
L 44.468628 98.500435 
L 45.3595 98.54526 
L 47.141245 98.424576 
L 48.032112 98.553426 
L 51.595589 98.48392 
L 52.486458 98.574296 
L 54.268192 98.504971 
L 58.722538 98.562682 
L 59.613407 98.413506 
L 60.504275 98.552337 
L 61.395144 98.471942 
L 64.958622 98.527656 
L 65.84949 98.384651 
L 66.740361 98.537456 
L 67.631226 98.557963 
L 68.522078 98.360877 
L 70.30383 98.630918 
L 71.194705 98.150362 
L 72.085571 98.474665 
L 73.867306 98.468857 
L 74.758184 98.492631 
L 75.649039 98.642895 
L 80.103391 98.486279 
L 80.994245 98.604603 
L 81.885129 98.45198 
L 82.775998 98.60297 
L 84.557735 98.571756 
L 97.030192 98.565585 
L 97.921065 98.352711 
L 98.811931 98.428569 
L 99.702798 98.747246 
L 100.593666 98.710043 
L 101.484533 98.500979 
L 102.375401 98.489364 
L 103.266272 98.764123 
L 104.157138 98.586818 
L 105.048009 98.716394 
L 109.502352 98.610411 
L 110.393224 98.798423 
L 111.284094 98.655599 
L 112.17496 98.772834 
L 116.629309 98.613677 
L 120.192782 98.727646 
L 121.97452 98.5625 
L 126.428869 98.712765 
L 127.319734 98.605511 
L 128.210603 98.744705 
L 129.101474 98.667577 
L 129.992342 98.716031 
L 131.774065 98.631099 
L 135.337558 98.677195 
L 136.228424 98.541993 
L 138.010159 98.71095 
L 141.57364 98.711676 
L 142.464507 98.712946 
L 143.355376 98.520397 
L 144.246246 98.731276 
L 146.027984 98.73055 
L 146.918849 98.656869 
L 181.959197 98.714217 
L 182.553652 98.469402 
L 183.444521 98.350896 
L 187.898864 98.488457 
L 189.680603 98.423669 
L 190.571474 98.509508 
L 192.353215 98.383925 
L 193.244077 98.471216 
L 194.134949 98.899869 
L 199.480162 98.771927 
L 200.371032 98.927273 
L 203.043636 98.88644 
L 203.043636 98.88644 
" clip-path="url(#p73793e3306)" style="fill: none; stroke: #ff6b6b; stroke-width: 1.2; stroke-linecap: square"/>
   </g>
   <g id="patch_3">
    <path d="M 35.96 103.4 
L 35.96 5 
" style="fill: none; stroke: var(--fg-color); stroke-width: 0.8; stroke-linejoin: miter; stroke-linecap: square"/>
   </g>
   <g id="patch_4">
    <path d="M 35.96 103.4 
L 211 103.4 
" style="fill: none; stroke: var(--fg-color); stroke-width: 0.8; stroke-linejoin: miter; stroke-linecap: square"/>
   </g>
  </g>
 </g>
 <defs>
  <clipPath id="p73793e3306">
   <rect x="35.96" y="5" width="175.04" height="98.4"/>
  </clipPath>
 </defs>
</svg>
