<?xml version="1.0" encoding="utf-8" standalone="no"?>
<!DOCTYPE svg PUBLIC "-//W3C//DTD SVG 1.1//EN"
  "http://www.w3.org/Graphics/SVG/1.1/DTD/svg11.dtd">
<svg xmlns:xlink="http://www.w3.org/1999/xlink" width="216pt" height="122.4pt" viewBox="0 0 216 122.4" xmlns="http://www.w3.org/2000/svg" version="1.1">
  <style>
    :root {
      --fg-color: #212529;
      --grid-color: rgba(33, 37, 41, 0.1);
    }
    @media (prefers-color-scheme: dark) {
      :root {
        --fg-color: #dee2e6;
        --grid-color: rgba(248, 249, 250, 0.15);
      }
    }
  </style>

 <metadata>
  <rdf:RDF xmlns:dc="http://purl.org/dc/elements/1.1/" xmlns:cc="http://creativecommons.org/ns#" xmlns:rdf="http://www.w3.org/1999/02/22-rdf-syntax-ns#">
   <cc:Work>
    <dc:type rdf:resource="http://purl.org/dc/dcmitype/StillImage"/>
    <dc:date>2026-06-30T04:48:36.813079</dc:date>
    <dc:format>image/svg+xml</dc:format>
    <dc:creator>
     <cc:Agent>
      <dc:title>Matplotlib v3.11.0, https://matplotlib.org/</dc:title>
     </cc:Agent>
    </dc:creator>
   </cc:Work>
  </rdf:RDF>
 </metadata>
 <defs>
  <style type="text/css">*{stroke-linejoin: round; stroke-linecap: butt}</style>
 </defs>
 <g id="figure_1">
  <g id="patch_1">
   <path d="M 0 122.4 
L 216 122.4 
L 216 0 
L 0 0 
L 0 122.4 
z
" style="fill: none; opacity: 0"/>
  </g>
  <g id="axes_1">
   <g id="patch_2">
    <path d="M 35.96 103.4 
L 211 103.4 
L 211 5 
L 35.96 5 
L 35.96 103.4 
z
" style="fill: none; opacity: 0"/>
   </g>
   <g id="matplotlib.axis_1">
    <g id="xtick_1">
     <g id="line2d_1">
      <path d="M 72.056377 103.4 
L 72.056377 5 
" clip-path="url(#p99a9055b9c)" style="fill: none; stroke-dasharray: 2.96,1.28; stroke-dashoffset: 0; stroke: var(--grid-color); stroke-width: 0.8"/>
     </g>
     <g id="line2d_2">
      <defs>
       <path id="m28a09dccad" d="M 0 0 
L 0 3.5 
" style="stroke: var(--fg-color); stroke-width: 0.8"/>
      </defs>
      <g>
       <use xlink:href="#m28a09dccad" x="72.056377" y="103.4" style="fill: var(--fg-color); stroke: var(--fg-color); stroke-width: 0.8"/>
      </g>
     </g>
     <g id="text_1">
      <text style="font-size: 7px; font-family: 'DejaVu Sans', 'Bitstream Vera Sans', 'Computer Modern Sans Serif', 'Lucida Grande', 'Verdana', 'Geneva', 'Lucid', 'Arial', 'Helvetica', 'Avant Garde', sans-serif; text-anchor: middle; fill: var(--fg-color)" x="72.056377" y="115.718359" transform="rotate(-0 72.056377 115.718359)">02/2026</text>
     </g>
    </g>
    <g id="xtick_2">
     <g id="line2d_3">
      <path d="M 126.640628 103.4 
L 126.640628 5 
" clip-path="url(#p99a9055b9c)" style="fill: none; stroke-dasharray: 2.96,1.28; stroke-dashoffset: 0; stroke: var(--grid-color); stroke-width: 0.8"/>
     </g>
     <g id="line2d_4">
      <g>
       <use xlink:href="#m28a09dccad" x="126.640628" y="103.4" style="fill: var(--fg-color); stroke: var(--fg-color); stroke-width: 0.8"/>
      </g>
     </g>
     <g id="text_2">
      <text style="font-size: 7px; font-family: 'DejaVu Sans', 'Bitstream Vera Sans', 'Computer Modern Sans Serif', 'Lucida Grande', 'Verdana', 'Geneva', 'Lucid', 'Arial', 'Helvetica', 'Avant Garde', sans-serif; text-anchor: middle; fill: var(--fg-color)" x="126.640628" y="115.718359" transform="rotate(-0 126.640628 115.718359)">04/2026</text>
     </g>
    </g>
    <g id="xtick_3">
     <g id="line2d_5">
      <path d="M 183.075192 103.4 
L 183.075192 5 
" clip-path="url(#p99a9055b9c)" style="fill: none; stroke-dasharray: 2.96,1.28; stroke-dashoffset: 0; stroke: var(--grid-color); stroke-width: 0.8"/>
     </g>
     <g id="line2d_6">
      <g>
       <use xlink:href="#m28a09dccad" x="183.075192" y="103.4" style="fill: var(--fg-color); stroke: var(--fg-color); stroke-width: 0.8"/>
      </g>
     </g>
     <g id="text_3">
      <text style="font-size: 7px; font-family: 'DejaVu Sans', 'Bitstream Vera Sans', 'Computer Modern Sans Serif', 'Lucida Grande', 'Verdana', 'Geneva', 'Lucid', 'Arial', 'Helvetica', 'Avant Garde', sans-serif; text-anchor: middle; fill: var(--fg-color)" x="183.075192" y="115.718359" transform="rotate(-0 183.075192 115.718359)">06/2026</text>
     </g>
    </g>
   </g>
   <g id="matplotlib.axis_2">
    <g id="ytick_1">
     <g id="line2d_7">
      <path d="M 35.96 100.098067 
L 211 100.098067 
" clip-path="url(#p99a9055b9c)" style="fill: none; stroke-dasharray: 2.96,1.28; stroke-dashoffset: 0; stroke: var(--grid-color); stroke-width: 0.8"/>
     </g>
     <g id="line2d_8">
      <defs>
       <path id="m597b6dbf58" d="M 0 0 
L -3.5 0 
" style="stroke: var(--fg-color); stroke-width: 0.8"/>
      </defs>
      <g>
       <use xlink:href="#m597b6dbf58" x="35.96" y="100.098067" style="fill: var(--fg-color); stroke: var(--fg-color); stroke-width: 0.8"/>
      </g>
     </g>
     <g id="text_4">
      <text style="font-size: 7px; font-family: 'DejaVu Sans', 'Bitstream Vera Sans', 'Computer Modern Sans Serif', 'Lucida Grande', 'Verdana', 'Geneva', 'Lucid', 'Arial', 'Helvetica', 'Avant Garde', sans-serif; text-anchor: end; fill: var(--fg-color)" x="28.96" y="102.757247" transform="rotate(-0 28.96 102.757247)">60</text>
     </g>
    </g>
    <g id="ytick_2">
     <g id="line2d_9">
      <path d="M 35.96 85.508726 
L 211 85.508726 
" clip-path="url(#p99a9055b9c)" style="fill: none; stroke-dasharray: 2.96,1.28; stroke-dashoffset: 0; stroke: var(--grid-color); stroke-width: 0.8"/>
     </g>
     <g id="line2d_10">
      <g>
       <use xlink:href="#m597b6dbf58" x="35.96" y="85.508726" style="fill: var(--fg-color); stroke: var(--fg-color); stroke-width: 0.8"/>
      </g>
     </g>
     <g id="text_5">
      <text style="font-size: 7px; font-family: 'DejaVu Sans', 'Bitstream Vera Sans', 'Computer Modern Sans Serif', 'Lucida Grande', 'Verdana', 'Geneva', 'Lucid', 'Arial', 'Helvetica', 'Avant Garde', sans-serif; text-anchor: end; fill: var(--fg-color)" x="28.96" y="88.167906" transform="rotate(-0 28.96 88.167906)">80</text>
     </g>
    </g>
    <g id="ytick_3">
     <g id="line2d_11">
      <path d="M 35.96 70.919385 
L 211 70.919385 
" clip-path="url(#p99a9055b9c)" style="fill: none; stroke-dasharray: 2.96,1.28; stroke-dashoffset: 0; stroke: var(--grid-color); stroke-width: 0.8"/>
     </g>
     <g id="line2d_12">
      <g>
       <use xlink:href="#m597b6dbf58" x="35.96" y="70.919385" style="fill: var(--fg-color); stroke: var(--fg-color); stroke-width: 0.8"/>
      </g>
     </g>
     <g id="text_6">
      <text style="font-size: 7px; font-family: 'DejaVu Sans', 'Bitstream Vera Sans', 'Computer Modern Sans Serif', 'Lucida Grande', 'Verdana', 'Geneva', 'Lucid', 'Arial', 'Helvetica', 'Avant Garde', sans-serif; text-anchor: end; fill: var(--fg-color)" x="28.96" y="73.578565" transform="rotate(-0 28.96 73.578565)">100</text>
     </g>
    </g>
    <g id="ytick_4">
     <g id="line2d_13">
      <path d="M 35.96 56.330044 
L 211 56.330044 
" clip-path="url(#p99a9055b9c)" style="fill: none; stroke-dasharray: 2.96,1.28; stroke-dashoffset: 0; stroke: var(--grid-color); stroke-width: 0.8"/>
     </g>
     <g id="line2d_14">
      <g>
       <use xlink:href="#m597b6dbf58" x="35.96" y="56.330044" style="fill: var(--fg-color); stroke: var(--fg-color); stroke-width: 0.8"/>
      </g>
     </g>
     <g id="text_7">
      <text style="font-size: 7px; font-family: 'DejaVu Sans', 'Bitstream Vera Sans', 'Computer Modern Sans Serif', 'Lucida Grande', 'Verdana', 'Geneva', 'Lucid', 'Arial', 'Helvetica', 'Avant Garde', sans-serif; text-anchor: end; fill: var(--fg-color)" x="28.96" y="58.989224" transform="rotate(-0 28.96 58.989224)">120</text>
     </g>
    </g>
    <g id="ytick_5">
     <g id="line2d_15">
      <path d="M 35.96 41.740703 
L 211 41.740703 
" clip-path="url(#p99a9055b9c)" style="fill: none; stroke-dasharray: 2.96,1.28; stroke-dashoffset: 0; stroke: var(--grid-color); stroke-width: 0.8"/>
     </g>
     <g id="line2d_16">
      <g>
       <use xlink:href="#m597b6dbf58" x="35.96" y="41.740703" style="fill: var(--fg-color); stroke: var(--fg-color); stroke-width: 0.8"/>
      </g>
     </g>
     <g id="text_8">
      <text style="font-size: 7px; font-family: 'DejaVu Sans', 'Bitstream Vera Sans', 'Computer Modern Sans Serif', 'Lucida Grande', 'Verdana', 'Geneva', 'Lucid', 'Arial', 'Helvetica', 'Avant Garde', sans-serif; text-anchor: end; fill: var(--fg-color)" x="28.96" y="44.399882" transform="rotate(-0 28.96 44.399882)">140</text>
     </g>
    </g>
    <g id="ytick_6">
     <g id="line2d_17">
      <path d="M 35.96 27.151361 
L 211 27.151361 
" clip-path="url(#p99a9055b9c)" style="fill: none; stroke-dasharray: 2.96,1.28; stroke-dashoffset: 0; stroke: var(--grid-color); stroke-width: 0.8"/>
     </g>
     <g id="line2d_18">
      <g>
       <use xlink:href="#m597b6dbf58" x="35.96" y="27.151361" style="fill: var(--fg-color); stroke: var(--fg-color); stroke-width: 0.8"/>
      </g>
     </g>
     <g id="text_9">
      <text style="font-size: 7px; font-family: 'DejaVu Sans', 'Bitstream Vera Sans', 'Computer Modern Sans Serif', 'Lucida Grande', 'Verdana', 'Geneva', 'Lucid', 'Arial', 'Helvetica', 'Avant Garde', sans-serif; text-anchor: end; fill: var(--fg-color)" x="28.96" y="29.810541" transform="rotate(-0 28.96 29.810541)">160</text>
     </g>
    </g>
    <g id="ytick_7">
     <g id="line2d_19">
      <path d="M 35.96 12.56202 
L 211 12.56202 
" clip-path="url(#p99a9055b9c)" style="fill: none; stroke-dasharray: 2.96,1.28; stroke-dashoffset: 0; stroke: var(--grid-color); stroke-width: 0.8"/>
     </g>
     <g id="line2d_20">
      <g>
       <use xlink:href="#m597b6dbf58" x="35.96" y="12.56202" style="fill: var(--fg-color); stroke: var(--fg-color); stroke-width: 0.8"/>
      </g>
     </g>
     <g id="text_10">
      <text style="font-size: 7px; font-family: 'DejaVu Sans', 'Bitstream Vera Sans', 'Computer Modern Sans Serif', 'Lucida Grande', 'Verdana', 'Geneva', 'Lucid', 'Arial', 'Helvetica', 'Avant Garde', sans-serif; text-anchor: end; fill: var(--fg-color)" x="28.96" y="15.2212" transform="rotate(-0 28.96 15.2212)">180</text>
     </g>
    </g>
    <g id="text_11">
     <text style="font-size: 7px; font-family: 'DejaVu Sans', 'Bitstream Vera Sans', 'Computer Modern Sans Serif', 'Lucida Grande', 'Verdana', 'Geneva', 'Lucid', 'Arial', 'Helvetica', 'Avant Garde', sans-serif; text-anchor: middle; fill: var(--fg-color)" x="9.917109" y="54.2" transform="rotate(-90 9.917109 54.2)">ms</text>
    </g>
   </g>
   <g id="line2d_21">
    <path d="M 43.916364 28.557774 
L 45.193108 29.441888 
L 45.766628 32.712089 
L 46.691788 32.279515 
L 47.616947 25.961601 
L 48.542109 29.905829 
L 49.467263 33.520338 
L 50.392418 30.703137 
L 51.317566 30.97158 
L 52.242732 31.539835 
L 53.167891 30.088925 
L 54.093049 30.854866 
L 55.018206 31.822139 
L 55.943359 32.515133 
L 56.868517 31.654362 
L 57.793676 26.637817 
L 58.718827 32.695311 
L 59.643987 33.647995 
L 60.569143 36.577535 
L 61.494301 34.961765 
L 62.419457 34.045555 
L 63.344613 30.282964 
L 64.269773 24.016112 
L 65.194924 34.866205 
L 66.120079 39.013955 
L 67.045243 34.422689 
L 67.970398 34.227192 
L 68.895557 37.040746 
L 69.82071 27.578829 
L 70.74585 37.333263 
L 71.671025 36.276265 
L 72.596178 33.776381 
L 73.521341 33.509396 
L 74.446495 36.958317 
L 75.371653 39.553031 
L 76.296805 26.243175 
L 77.221971 34.77794 
L 78.147114 40.235812 
L 79.072277 39.70476 
L 79.997435 36.204777 
L 80.922594 27.418346 
L 81.847735 33.775652 
L 82.772905 26.129378 
L 83.698046 41.002482 
L 84.623219 36.045024 
L 85.548376 39.057723 
L 86.473535 31.116744 
L 87.398688 33.931028 
L 88.323852 37.490828 
L 97.76512 42.020818 
L 98.500856 38.961433 
L 99.426031 36.717592 
L 100.351186 36.999896 
L 101.276348 40.48456 
L 102.201502 37.182992 
L 103.126656 37.87015 
L 104.051812 40.41599 
L 104.976967 30.524417 
L 105.902123 30.258891 
L 106.827282 22.916076 
L 107.752435 35.48844 
L 108.677594 30.469707 
L 109.602753 35.05076 
L 110.527909 39.576374 
L 111.453063 31.765241 
L 112.378223 35.035441 
L 113.303377 28.846643 
L 114.228537 27.787457 
L 115.153695 31.937395 
L 116.078848 29.52067 
L 117.004011 35.416223 
L 117.929158 32.367051 
L 118.854316 34.797635 
L 119.779481 31.463241 
L 120.704637 29.54912 
L 121.629794 28.19377 
L 122.554943 29.940114 
L 123.480104 31.688647 
L 124.405261 24.330512 
L 125.330416 24.081035 
L 126.255574 32.687287 
L 129.9562 26.462015 
L 130.881363 33.855164 
L 131.806516 29.081531 
L 132.731673 27.546733 
L 133.656831 19.405151 
L 134.581987 26.433566 
L 135.507147 27.559134 
L 136.432285 27.412511 
L 137.357455 29.102686 
L 138.282617 27.306738 
L 139.20777 30.09622 
L 140.13293 24.797371 
L 141.058084 28.009944 
L 141.983242 23.639707 
L 142.908395 24.330512 
L 143.833556 26.353324 
L 144.758724 24.373551 
L 145.683869 21.737257 
L 146.609028 25.548722 
L 147.534182 14.271162 
L 148.459339 26.499218 
L 149.384497 27.861133 
L 150.309651 27.273182 
L 151.234811 30.145094 
L 152.159963 22.750487 
L 179.91473 22.750487 
L 188.548948 25.450974 
L 189.166282 27.272453 
L 190.091439 27.278289 
L 191.016594 9.472727 
L 191.94175 27.510259 
L 192.866913 22.364599 
L 193.792066 22.611158 
L 194.717222 28.311214 
L 195.642377 35.117142 
L 196.567536 22.296758 
L 197.492695 17.469145 
L 198.417852 21.218606 
L 199.343013 26.623957 
L 200.268162 23.191814 
L 201.193322 25.372921 
L 202.118478 28.482639 
L 203.043636 21.197451 
" clip-path="url(#p99a9055b9c)" style="fill: none; stroke: #339af0; stroke-width: 1.2; stroke-linecap: square"/>
   </g>
   <g id="line2d_22">
    <path d="M 43.916364 87.541751 
L 45.193108 90.584358 
L 45.766628 89.524442 
L 46.691788 90.276523 
L 47.616947 87.193795 
L 48.542109 90.457431 
L 49.467263 90.016833 
L 50.392418 90.534754 
L 51.317566 87.385645 
L 52.242732 87.057385 
L 53.167891 85.36721 
L 54.093049 89.698055 
L 55.018206 88.425865 
L 55.943359 86.761951 
L 56.868517 89.437636 
L 57.793676 87.821866 
L 58.718827 91.073101 
L 59.643987 90.736817 
L 60.569143 92.996706 
L 61.494301 89.22609 
L 62.419457 89.945345 
L 63.344613 92.483161 
L 64.269773 89.232656 
L 65.194924 89.25454 
L 66.120079 91.89594 
L 67.045243 92.101649 
L 67.970398 90.857179 
L 68.895557 91.200028 
L 69.82071 89.362501 
L 70.74585 94.67448 
L 71.671025 91.314554 
L 72.596178 89.135636 
L 73.521341 87.78977 
L 74.446495 88.56884 
L 75.371653 90.51287 
L 76.296805 89.922002 
L 77.221971 91.26568 
L 78.147114 94.193032 
L 79.072277 93.430009 
L 79.997435 90.679918 
L 80.922594 86.246217 
L 81.847735 88.902936 
L 82.772905 90.856449 
L 83.698046 92.125722 
L 84.623219 92.302982 
L 85.548376 90.932314 
L 86.473535 90.359682 
L 87.398688 88.292372 
L 88.323852 91.760988 
L 97.76512 95.233981 
L 98.500856 91.947732 
L 99.426031 90.789338 
L 100.351186 86.327188 
L 101.276348 91.680747 
L 102.201502 91.459718 
L 103.126656 90.413663 
L 104.051812 98.927273 
L 104.976967 91.92293 
L 105.902123 93.324236 
L 106.827282 96.827137 
L 107.752435 93.642284 
L 108.677594 93.872795 
L 109.602753 96.136332 
L 110.527909 93.005459 
L 111.453063 91.602694 
L 112.378223 95.601632 
L 113.303377 95.301092 
L 114.228537 97.275759 
L 115.153695 96.117366 
L 116.078848 95.012952 
L 117.004011 97.658 
L 117.929158 90.271417 
L 118.854316 96.563799 
L 119.779481 98.264187 
L 120.704637 95.08444 
L 121.629794 90.137924 
L 122.554943 92.03235 
L 123.480104 98.430506 
L 124.405261 91.448047 
L 125.330416 90.32175 
L 126.255574 95.200426 
L 129.9562 97.043789 
L 130.881363 93.090077 
L 131.806516 98.464791 
L 132.731673 93.403019 
L 133.656831 95.745337 
L 134.581987 95.253677 
L 135.507147 95.86497 
L 136.432285 91.022038 
L 137.357455 97.328281 
L 138.282617 92.779324 
L 139.20777 93.044121 
L 140.13293 91.302154 
L 141.058084 94.544635 
L 141.983242 92.944184 
L 142.908395 93.464294 
L 143.833556 91.803297 
L 144.758724 90.890734 
L 145.683869 93.459188 
L 146.609028 91.691689 
L 147.534182 93.056522 
L 148.459339 92.451794 
L 149.384497 90.682107 
L 150.309651 93.698453 
L 151.234811 93.72982 
L 152.159963 92.732638 
L 179.91473 92.732638 
L 188.548948 91.905423 
L 189.166282 91.759529 
L 190.091439 92.699083 
L 191.016594 90.216707 
L 191.94175 90.709097 
L 192.866913 89.668147 
L 193.792066 93.238159 
L 194.717222 89.497452 
L 195.642377 86.203908 
L 196.567536 91.928036 
L 197.492695 91.602694 
L 198.417852 95.735125 
L 199.343013 91.453153 
L 200.268162 91.860196 
L 201.193322 91.996606 
L 202.118478 93.273174 
L 203.043636 91.473578 
" clip-path="url(#p99a9055b9c)" style="fill: none; stroke: #ff6b6b; stroke-width: 1.2; stroke-linecap: square"/>
   </g>
   <g id="patch_3">
    <path d="M 35.96 103.4 
L 35.96 5 
" style="fill: none; stroke: var(--fg-color); stroke-width: 0.8; stroke-linejoin: miter; stroke-linecap: square"/>
   </g>
   <g id="patch_4">
    <path d="M 35.96 103.4 
L 211 103.4 
" style="fill: none; stroke: var(--fg-color); stroke-width: 0.8; stroke-linejoin: miter; stroke-linecap: square"/>
   </g>
  </g>
 </g>
 <defs>
  <clipPath id="p99a9055b9c">
   <rect x="35.96" y="5" width="175.04" height="98.4"/>
  </clipPath>
 </defs>
</svg>
