<?xml version="1.0" encoding="utf-8" standalone="no"?>
<!DOCTYPE svg PUBLIC "-//W3C//DTD SVG 1.1//EN"
  "http://www.w3.org/Graphics/SVG/1.1/DTD/svg11.dtd">
<svg xmlns:xlink="http://www.w3.org/1999/xlink" width="216pt" height="122.4pt" viewBox="0 0 216 122.4" xmlns="http://www.w3.org/2000/svg" version="1.1">
  <style>
    :root {
      --fg-color: #212529;
      --grid-color: rgba(33, 37, 41, 0.1);
    }
    @media (prefers-color-scheme: dark) {
      :root {
        --fg-color: #dee2e6;
        --grid-color: rgba(248, 249, 250, 0.15);
      }
    }
  </style>

 <metadata>
  <rdf:RDF xmlns:dc="http://purl.org/dc/elements/1.1/" xmlns:cc="http://creativecommons.org/ns#" xmlns:rdf="http://www.w3.org/1999/02/22-rdf-syntax-ns#">
   <cc:Work>
    <dc:type rdf:resource="http://purl.org/dc/dcmitype/StillImage"/>
    <dc:date>2026-06-30T04:48:42.029149</dc:date>
    <dc:format>image/svg+xml</dc:format>
    <dc:creator>
     <cc:Agent>
      <dc:title>Matplotlib v3.11.0, https://matplotlib.org/</dc:title>
     </cc:Agent>
    </dc:creator>
   </cc:Work>
  </rdf:RDF>
 </metadata>
 <defs>
  <style type="text/css">*{stroke-linejoin: round; stroke-linecap: butt}</style>
 </defs>
 <g id="figure_1">
  <g id="patch_1">
   <path d="M 0 122.4 
L 216 122.4 
L 216 0 
L 0 0 
L 0 122.4 
z
" style="fill: none; opacity: 0"/>
  </g>
  <g id="axes_1">
   <g id="patch_2">
    <path d="M 35.96 103.4 
L 211 103.4 
L 211 5 
L 35.96 5 
L 35.96 103.4 
z
" style="fill: none; opacity: 0"/>
   </g>
   <g id="matplotlib.axis_1">
    <g id="xtick_1">
     <g id="line2d_1">
      <path d="M 72.056377 103.4 
L 72.056377 5 
" clip-path="url(#p5d934bcd94)" style="fill: none; stroke-dasharray: 2.96,1.28; stroke-dashoffset: 0; stroke: var(--grid-color); stroke-width: 0.8"/>
     </g>
     <g id="line2d_2">
      <defs>
       <path id="m2aba506c1a" d="M 0 0 
L 0 3.5 
" style="stroke: var(--fg-color); stroke-width: 0.8"/>
      </defs>
      <g>
       <use xlink:href="#m2aba506c1a" x="72.056377" y="103.4" style="fill: var(--fg-color); stroke: var(--fg-color); stroke-width: 0.8"/>
      </g>
     </g>
     <g id="text_1">
      <text style="font-size: 7px; font-family: 'DejaVu Sans', 'Bitstream Vera Sans', 'Computer Modern Sans Serif', 'Lucida Grande', 'Verdana', 'Geneva', 'Lucid', 'Arial', 'Helvetica', 'Avant Garde', sans-serif; text-anchor: middle; fill: var(--fg-color)" x="72.056377" y="115.718359" transform="rotate(-0 72.056377 115.718359)">02/2026</text>
     </g>
    </g>
    <g id="xtick_2">
     <g id="line2d_3">
      <path d="M 126.640628 103.4 
L 126.640628 5 
" clip-path="url(#p5d934bcd94)" style="fill: none; stroke-dasharray: 2.96,1.28; stroke-dashoffset: 0; stroke: var(--grid-color); stroke-width: 0.8"/>
     </g>
     <g id="line2d_4">
      <g>
       <use xlink:href="#m2aba506c1a" x="126.640628" y="103.4" style="fill: var(--fg-color); stroke: var(--fg-color); stroke-width: 0.8"/>
      </g>
     </g>
     <g id="text_2">
      <text style="font-size: 7px; font-family: 'DejaVu Sans', 'Bitstream Vera Sans', 'Computer Modern Sans Serif', 'Lucida Grande', 'Verdana', 'Geneva', 'Lucid', 'Arial', 'Helvetica', 'Avant Garde', sans-serif; text-anchor: middle; fill: var(--fg-color)" x="126.640628" y="115.718359" transform="rotate(-0 126.640628 115.718359)">04/2026</text>
     </g>
    </g>
    <g id="xtick_3">
     <g id="line2d_5">
      <path d="M 183.075192 103.4 
L 183.075192 5 
" clip-path="url(#p5d934bcd94)" style="fill: none; stroke-dasharray: 2.96,1.28; stroke-dashoffset: 0; stroke: var(--grid-color); stroke-width: 0.8"/>
     </g>
     <g id="line2d_6">
      <g>
       <use xlink:href="#m2aba506c1a" x="183.075192" y="103.4" style="fill: var(--fg-color); stroke: var(--fg-color); stroke-width: 0.8"/>
      </g>
     </g>
     <g id="text_3">
      <text style="font-size: 7px; font-family: 'DejaVu Sans', 'Bitstream Vera Sans', 'Computer Modern Sans Serif', 'Lucida Grande', 'Verdana', 'Geneva', 'Lucid', 'Arial', 'Helvetica', 'Avant Garde', sans-serif; text-anchor: middle; fill: var(--fg-color)" x="183.075192" y="115.718359" transform="rotate(-0 183.075192 115.718359)">06/2026</text>
     </g>
    </g>
   </g>
   <g id="matplotlib.axis_2">
    <g id="ytick_1">
     <g id="line2d_7">
      <path d="M 35.96 99.434929 
L 211 99.434929 
" clip-path="url(#p5d934bcd94)" style="fill: none; stroke-dasharray: 2.96,1.28; stroke-dashoffset: 0; stroke: var(--grid-color); stroke-width: 0.8"/>
     </g>
     <g id="line2d_8">
      <defs>
       <path id="maf78b5e46f" d="M 0 0 
L -3.5 0 
" style="stroke: var(--fg-color); stroke-width: 0.8"/>
      </defs>
      <g>
       <use xlink:href="#maf78b5e46f" x="35.96" y="99.434929" style="fill: var(--fg-color); stroke: var(--fg-color); stroke-width: 0.8"/>
      </g>
     </g>
     <g id="text_4">
      <text style="font-size: 7px; font-family: 'DejaVu Sans', 'Bitstream Vera Sans', 'Computer Modern Sans Serif', 'Lucida Grande', 'Verdana', 'Geneva', 'Lucid', 'Arial', 'Helvetica', 'Avant Garde', sans-serif; text-anchor: end; fill: var(--fg-color)" x="28.96" y="102.094108" transform="rotate(-0 28.96 102.094108)">0</text>
     </g>
    </g>
    <g id="ytick_2">
     <g id="line2d_9">
      <path d="M 35.96 72.185546 
L 211 72.185546 
" clip-path="url(#p5d934bcd94)" style="fill: none; stroke-dasharray: 2.96,1.28; stroke-dashoffset: 0; stroke: var(--grid-color); stroke-width: 0.8"/>
     </g>
     <g id="line2d_10">
      <g>
       <use xlink:href="#maf78b5e46f" x="35.96" y="72.185546" style="fill: var(--fg-color); stroke: var(--fg-color); stroke-width: 0.8"/>
      </g>
     </g>
     <g id="text_5">
      <text style="font-size: 7px; font-family: 'DejaVu Sans', 'Bitstream Vera Sans', 'Computer Modern Sans Serif', 'Lucida Grande', 'Verdana', 'Geneva', 'Lucid', 'Arial', 'Helvetica', 'Avant Garde', sans-serif; text-anchor: end; fill: var(--fg-color)" x="28.96" y="74.844726" transform="rotate(-0 28.96 74.844726)">100</text>
     </g>
    </g>
    <g id="ytick_3">
     <g id="line2d_11">
      <path d="M 35.96 44.936164 
L 211 44.936164 
" clip-path="url(#p5d934bcd94)" style="fill: none; stroke-dasharray: 2.96,1.28; stroke-dashoffset: 0; stroke: var(--grid-color); stroke-width: 0.8"/>
     </g>
     <g id="line2d_12">
      <g>
       <use xlink:href="#maf78b5e46f" x="35.96" y="44.936164" style="fill: var(--fg-color); stroke: var(--fg-color); stroke-width: 0.8"/>
      </g>
     </g>
     <g id="text_6">
      <text style="font-size: 7px; font-family: 'DejaVu Sans', 'Bitstream Vera Sans', 'Computer Modern Sans Serif', 'Lucida Grande', 'Verdana', 'Geneva', 'Lucid', 'Arial', 'Helvetica', 'Avant Garde', sans-serif; text-anchor: end; fill: var(--fg-color)" x="28.96" y="47.595343" transform="rotate(-0 28.96 47.595343)">200</text>
     </g>
    </g>
    <g id="ytick_4">
     <g id="line2d_13">
      <path d="M 35.96 17.686781 
L 211 17.686781 
" clip-path="url(#p5d934bcd94)" style="fill: none; stroke-dasharray: 2.96,1.28; stroke-dashoffset: 0; stroke: var(--grid-color); stroke-width: 0.8"/>
     </g>
     <g id="line2d_14">
      <g>
       <use xlink:href="#maf78b5e46f" x="35.96" y="17.686781" style="fill: var(--fg-color); stroke: var(--fg-color); stroke-width: 0.8"/>
      </g>
     </g>
     <g id="text_7">
      <text style="font-size: 7px; font-family: 'DejaVu Sans', 'Bitstream Vera Sans', 'Computer Modern Sans Serif', 'Lucida Grande', 'Verdana', 'Geneva', 'Lucid', 'Arial', 'Helvetica', 'Avant Garde', sans-serif; text-anchor: end; fill: var(--fg-color)" x="28.96" y="20.345961" transform="rotate(-0 28.96 20.345961)">300</text>
     </g>
    </g>
    <g id="text_8">
     <text style="font-size: 7px; font-family: 'DejaVu Sans', 'Bitstream Vera Sans', 'Computer Modern Sans Serif', 'Lucida Grande', 'Verdana', 'Geneva', 'Lucid', 'Arial', 'Helvetica', 'Avant Garde', sans-serif; text-anchor: middle; fill: var(--fg-color)" x="9.917109" y="54.2" transform="rotate(-90 9.917109 54.2)">ms</text>
    </g>
   </g>
   <g id="line2d_15">
    <path d="M 43.916364 50.060138 
L 45.193108 44.521156 
L 45.766628 46.862423 
L 46.691788 48.441524 
L 47.616947 45.601866 
L 48.542109 47.979375 
L 49.467263 47.896809 
L 50.392418 46.494828 
L 51.317566 47.39542 
L 52.242732 44.324415 
L 53.167891 50.411382 
L 54.093049 45.510853 
L 55.018206 49.034743 
L 55.943359 47.495426 
L 56.868517 43.09247 
L 57.793676 45.511671 
L 58.718827 46.930818 
L 59.643987 44.774847 
L 60.569143 45.657455 
L 61.494301 44.65277 
L 62.419457 46.40327 
L 63.344613 46.707646 
L 64.269773 45.839208 
L 65.194924 44.42224 
L 66.120079 48.921386 
L 67.045243 47.400598 
L 67.970398 46.474119 
L 68.895557 46.885584 
L 69.82071 44.051376 
L 70.74585 33.076142 
L 71.671025 46.52126 
L 72.596178 44.99584 
L 73.521341 47.328659 
L 74.446495 45.928859 
L 75.371653 46.323975 
L 76.296805 48.272033 
L 77.221971 49.003679 
L 78.147114 47.861385 
L 79.072277 46.662412 
L 79.997435 47.973925 
L 80.922594 44.086255 
L 81.847735 41.200546 
L 82.772905 9.472727 
L 83.698046 46.941991 
L 84.623219 48.115077 
L 85.548376 45.468072 
L 86.473535 46.947713 
L 87.398688 47.962208 
L 88.323852 46.599738 
L 97.76512 32.675576 
L 98.500856 41.496474 
L 99.426031 36.140608 
L 100.351186 34.828278 
L 101.276348 42.961946 
L 102.201502 44.129037 
L 103.126656 44.651953 
L 104.051812 43.261962 
L 104.976967 46.387466 
L 105.902123 43.319458 
L 106.827282 49.025206 
L 107.752435 45.543007 
L 108.677594 49.981387 
L 109.602753 46.643337 
L 110.527909 47.141456 
L 111.453063 48.002809 
L 112.378223 48.179113 
L 113.303377 43.65953 
L 114.228537 44.420333 
L 115.153695 42.491349 
L 116.078848 44.811089 
L 117.004011 44.436137 
L 117.929158 43.048054 
L 118.854316 44.54786 
L 119.779481 43.880795 
L 120.704637 46.386103 
L 121.629794 45.081948 
L 122.554943 48.474496 
L 123.480104 43.836651 
L 124.405261 46.31144 
L 125.330416 42.930337 
L 126.255574 45.072683 
L 129.9562 42.711797 
L 130.881363 47.76138 
L 131.806516 42.34066 
L 132.731673 42.428948 
L 133.656831 45.277053 
L 134.581987 44.274549 
L 135.507147 44.727978 
L 136.432285 42.919982 
L 137.357455 39.271562 
L 138.282617 42.507971 
L 139.20777 43.006635 
L 140.13293 42.406876 
L 141.058084 42.620784 
L 141.983242 47.414495 
L 142.908395 41.755071 
L 143.833556 41.748258 
L 144.758724 41.346875 
L 145.683869 13.804289 
L 146.609028 44.532055 
L 147.534182 35.435121 
L 148.459339 41.54743 
L 149.384497 41.983693 
L 150.309651 38.040707 
L 151.234811 36.864897 
L 152.159963 39.873501 
L 179.91473 39.873501 
L 188.548948 42.913987 
L 189.166282 44.138847 
L 190.091439 43.954368 
L 191.016594 46.62399 
L 191.94175 44.908642 
L 192.866913 45.719583 
L 193.792066 49.607525 
L 194.717222 41.761883 
L 195.642377 47.411225 
L 196.567536 43.025709 
L 197.492695 45.87763 
L 198.417852 43.648358 
L 199.343013 45.388776 
L 200.268162 42.902542 
L 201.193322 42.826244 
L 202.118478 45.862915 
L 203.043636 41.366767 
" clip-path="url(#p5d934bcd94)" style="fill: none; stroke: #339af0; stroke-width: 1.2; stroke-linecap: square"/>
   </g>
   <g id="line2d_16">
    <path d="M 43.916364 98.916918 
L 45.193108 98.882311 
L 45.766628 98.902203 
L 46.691788 98.658866 
L 47.616947 98.881221 
L 48.542109 98.901658 
L 49.467263 98.889669 
L 50.392418 98.904111 
L 51.317566 98.873319 
L 52.242732 98.879041 
L 53.167891 98.913376 
L 54.093049 98.909833 
L 55.018206 98.918553 
L 55.943359 98.903021 
L 56.868517 98.834897 
L 57.793676 98.906291 
L 58.718827 98.889124 
L 59.643987 98.908471 
L 60.569143 98.914466 
L 61.494301 98.885036 
L 62.419457 98.898388 
L 63.344613 98.905473 
L 64.269773 98.869232 
L 65.194924 98.883674 
L 66.120079 98.892939 
L 67.045243 98.892666 
L 67.970398 98.872774 
L 68.895557 98.880949 
L 69.82071 98.878224 
L 70.74585 98.869777 
L 71.671025 98.891849 
L 72.596178 98.877679 
L 73.521341 98.647694 
L 74.446495 98.894846 
L 75.371653 98.892121 
L 76.296805 98.896753 
L 77.221971 98.916918 
L 78.147114 98.924548 
L 79.072277 98.894028 
L 79.997435 98.885036 
L 80.922594 98.876861 
L 81.847735 98.874681 
L 82.772905 98.908198 
L 83.698046 98.901658 
L 84.623219 98.908471 
L 85.548376 98.873046 
L 86.473535 98.873591 
L 87.398688 98.91937 
L 88.323852 98.910378 
L 97.76512 98.880404 
L 98.500856 98.911468 
L 99.426031 98.892394 
L 100.351186 98.856969 
L 101.276348 98.870049 
L 102.201502 98.893756 
L 103.126656 98.875499 
L 104.051812 98.875771 
L 104.976967 98.886671 
L 105.902123 98.892666 
L 106.827282 98.869777 
L 107.752435 98.927273 
L 108.677594 98.880949 
L 109.602753 98.889124 
L 110.527909 98.656686 
L 111.453063 98.890759 
L 112.378223 98.907108 
L 113.303377 98.874681 
L 114.228537 98.887216 
L 115.153695 98.857514 
L 116.078848 98.871956 
L 117.004011 98.855334 
L 117.929158 98.870322 
L 118.854316 98.878496 
L 119.779481 98.892394 
L 120.704637 98.902203 
L 121.629794 98.895663 
L 122.554943 98.899478 
L 123.480104 98.83408 
L 124.405261 98.847977 
L 125.330416 98.795113 
L 126.255574 98.69647 
L 129.9562 98.680666 
L 130.881363 98.6199 
L 131.806516 98.639792 
L 132.731673 98.680938 
L 133.656831 98.580388 
L 134.581987 98.61118 
L 135.507147 98.690476 
L 136.432285 98.628347 
L 137.357455 98.61881 
L 138.282617 98.670311 
L 139.20777 98.674943 
L 140.13293 98.680938 
L 141.058084 98.618537 
L 141.983242 98.637884 
L 142.908395 98.641699 
L 143.833556 98.653689 
L 144.758724 98.670856 
L 145.683869 98.60137 
L 146.609028 98.669766 
L 147.534182 98.675761 
L 148.459339 98.646332 
L 149.384497 98.580933 
L 150.309651 98.62099 
L 151.234811 98.579298 
L 152.159963 98.607637 
L 179.91473 98.607637 
L 188.548948 98.639247 
L 189.166282 98.680666 
L 190.091439 98.674398 
L 191.016594 98.71936 
L 191.94175 98.715545 
L 192.866913 98.571941 
L 193.792066 98.728897 
L 194.717222 98.7259 
L 195.642377 98.735437 
L 196.567536 98.735437 
L 197.492695 98.656141 
L 198.417852 98.653144 
L 199.343013 98.690476 
L 200.268162 98.652871 
L 201.193322 98.680666 
L 202.118478 98.73353 
L 203.043636 98.692656 
" clip-path="url(#p5d934bcd94)" style="fill: none; stroke: #ff6b6b; stroke-width: 1.2; stroke-linecap: square"/>
   </g>
   <g id="patch_3">
    <path d="M 35.96 103.4 
L 35.96 5 
" style="fill: none; stroke: var(--fg-color); stroke-width: 0.8; stroke-linejoin: miter; stroke-linecap: square"/>
   </g>
   <g id="patch_4">
    <path d="M 35.96 103.4 
L 211 103.4 
" style="fill: none; stroke: var(--fg-color); stroke-width: 0.8; stroke-linejoin: miter; stroke-linecap: square"/>
   </g>
  </g>
 </g>
 <defs>
  <clipPath id="p5d934bcd94">
   <rect x="35.96" y="5" width="175.04" height="98.4"/>
  </clipPath>
 </defs>
</svg>
