<?xml version="1.0" encoding="utf-8" standalone="no"?>
<!DOCTYPE svg PUBLIC "-//W3C//DTD SVG 1.1//EN"
  "http://www.w3.org/Graphics/SVG/1.1/DTD/svg11.dtd">
<svg xmlns:xlink="http://www.w3.org/1999/xlink" width="216pt" height="122.4pt" viewBox="0 0 216 122.4" xmlns="http://www.w3.org/2000/svg" version="1.1">
  <style>
    :root {
      --fg-color: #212529;
      --grid-color: rgba(33, 37, 41, 0.1);
    }
    @media (prefers-color-scheme: dark) {
      :root {
        --fg-color: #dee2e6;
        --grid-color: rgba(248, 249, 250, 0.15);
      }
    }
  </style>

 <metadata>
  <rdf:RDF xmlns:dc="http://purl.org/dc/elements/1.1/" xmlns:cc="http://creativecommons.org/ns#" xmlns:rdf="http://www.w3.org/1999/02/22-rdf-syntax-ns#">
   <cc:Work>
    <dc:type rdf:resource="http://purl.org/dc/dcmitype/StillImage"/>
    <dc:date>2026-06-30T04:49:15.675414</dc:date>
    <dc:format>image/svg+xml</dc:format>
    <dc:creator>
     <cc:Agent>
      <dc:title>Matplotlib v3.11.0, https://matplotlib.org/</dc:title>
     </cc:Agent>
    </dc:creator>
   </cc:Work>
  </rdf:RDF>
 </metadata>
 <defs>
  <style type="text/css">*{stroke-linejoin: round; stroke-linecap: butt}</style>
 </defs>
 <g id="figure_1">
  <g id="patch_1">
   <path d="M 0 122.4 
L 216 122.4 
L 216 0 
L 0 0 
L 0 122.4 
z
" style="fill: none; opacity: 0"/>
  </g>
  <g id="axes_1">
   <g id="patch_2">
    <path d="M 35.96 103.4 
L 211 103.4 
L 211 5 
L 35.96 5 
L 35.96 103.4 
z
" style="fill: none; opacity: 0"/>
   </g>
   <g id="matplotlib.axis_1">
    <g id="xtick_1">
     <g id="line2d_1">
      <path d="M 72.056377 103.4 
L 72.056377 5 
" clip-path="url(#p7356fc7a68)" style="fill: none; stroke-dasharray: 2.96,1.28; stroke-dashoffset: 0; stroke: var(--grid-color); stroke-width: 0.8"/>
     </g>
     <g id="line2d_2">
      <defs>
       <path id="m5b2fde23a6" d="M 0 0 
L 0 3.5 
" style="stroke: var(--fg-color); stroke-width: 0.8"/>
      </defs>
      <g>
       <use xlink:href="#m5b2fde23a6" x="72.056377" y="103.4" style="fill: var(--fg-color); stroke: var(--fg-color); stroke-width: 0.8"/>
      </g>
     </g>
     <g id="text_1">
      <text style="font-size: 7px; font-family: 'DejaVu Sans', 'Bitstream Vera Sans', 'Computer Modern Sans Serif', 'Lucida Grande', 'Verdana', 'Geneva', 'Lucid', 'Arial', 'Helvetica', 'Avant Garde', sans-serif; text-anchor: middle; fill: var(--fg-color)" x="72.056377" y="115.718359" transform="rotate(-0 72.056377 115.718359)">02/2026</text>
     </g>
    </g>
    <g id="xtick_2">
     <g id="line2d_3">
      <path d="M 126.640628 103.4 
L 126.640628 5 
" clip-path="url(#p7356fc7a68)" style="fill: none; stroke-dasharray: 2.96,1.28; stroke-dashoffset: 0; stroke: var(--grid-color); stroke-width: 0.8"/>
     </g>
     <g id="line2d_4">
      <g>
       <use xlink:href="#m5b2fde23a6" x="126.640628" y="103.4" style="fill: var(--fg-color); stroke: var(--fg-color); stroke-width: 0.8"/>
      </g>
     </g>
     <g id="text_2">
      <text style="font-size: 7px; font-family: 'DejaVu Sans', 'Bitstream Vera Sans', 'Computer Modern Sans Serif', 'Lucida Grande', 'Verdana', 'Geneva', 'Lucid', 'Arial', 'Helvetica', 'Avant Garde', sans-serif; text-anchor: middle; fill: var(--fg-color)" x="126.640628" y="115.718359" transform="rotate(-0 126.640628 115.718359)">04/2026</text>
     </g>
    </g>
    <g id="xtick_3">
     <g id="line2d_5">
      <path d="M 183.075192 103.4 
L 183.075192 5 
" clip-path="url(#p7356fc7a68)" style="fill: none; stroke-dasharray: 2.96,1.28; stroke-dashoffset: 0; stroke: var(--grid-color); stroke-width: 0.8"/>
     </g>
     <g id="line2d_6">
      <g>
       <use xlink:href="#m5b2fde23a6" x="183.075192" y="103.4" style="fill: var(--fg-color); stroke: var(--fg-color); stroke-width: 0.8"/>
      </g>
     </g>
     <g id="text_3">
      <text style="font-size: 7px; font-family: 'DejaVu Sans', 'Bitstream Vera Sans', 'Computer Modern Sans Serif', 'Lucida Grande', 'Verdana', 'Geneva', 'Lucid', 'Arial', 'Helvetica', 'Avant Garde', sans-serif; text-anchor: middle; fill: var(--fg-color)" x="183.075192" y="115.718359" transform="rotate(-0 183.075192 115.718359)">06/2026</text>
     </g>
    </g>
   </g>
   <g id="matplotlib.axis_2">
    <g id="ytick_1">
     <g id="line2d_7">
      <path d="M 35.96 99.521567 
L 211 99.521567 
" clip-path="url(#p7356fc7a68)" style="fill: none; stroke-dasharray: 2.96,1.28; stroke-dashoffset: 0; stroke: var(--grid-color); stroke-width: 0.8"/>
     </g>
     <g id="line2d_8">
      <defs>
       <path id="mb4f364b766" d="M 0 0 
L -3.5 0 
" style="stroke: var(--fg-color); stroke-width: 0.8"/>
      </defs>
      <g>
       <use xlink:href="#mb4f364b766" x="35.96" y="99.521567" style="fill: var(--fg-color); stroke: var(--fg-color); stroke-width: 0.8"/>
      </g>
     </g>
     <g id="text_4">
      <text style="font-size: 7px; font-family: 'DejaVu Sans', 'Bitstream Vera Sans', 'Computer Modern Sans Serif', 'Lucida Grande', 'Verdana', 'Geneva', 'Lucid', 'Arial', 'Helvetica', 'Avant Garde', sans-serif; text-anchor: end; fill: var(--fg-color)" x="28.96" y="102.180746" transform="rotate(-0 28.96 102.180746)">0</text>
     </g>
    </g>
    <g id="ytick_2">
     <g id="line2d_9">
      <path d="M 35.96 73.387275 
L 211 73.387275 
" clip-path="url(#p7356fc7a68)" style="fill: none; stroke-dasharray: 2.96,1.28; stroke-dashoffset: 0; stroke: var(--grid-color); stroke-width: 0.8"/>
     </g>
     <g id="line2d_10">
      <g>
       <use xlink:href="#mb4f364b766" x="35.96" y="73.387275" style="fill: var(--fg-color); stroke: var(--fg-color); stroke-width: 0.8"/>
      </g>
     </g>
     <g id="text_5">
      <text style="font-size: 7px; font-family: 'DejaVu Sans', 'Bitstream Vera Sans', 'Computer Modern Sans Serif', 'Lucida Grande', 'Verdana', 'Geneva', 'Lucid', 'Arial', 'Helvetica', 'Avant Garde', sans-serif; text-anchor: end; fill: var(--fg-color)" x="28.96" y="76.046454" transform="rotate(-0 28.96 76.046454)">100</text>
     </g>
    </g>
    <g id="ytick_3">
     <g id="line2d_11">
      <path d="M 35.96 47.252982 
L 211 47.252982 
" clip-path="url(#p7356fc7a68)" style="fill: none; stroke-dasharray: 2.96,1.28; stroke-dashoffset: 0; stroke: var(--grid-color); stroke-width: 0.8"/>
     </g>
     <g id="line2d_12">
      <g>
       <use xlink:href="#mb4f364b766" x="35.96" y="47.252982" style="fill: var(--fg-color); stroke: var(--fg-color); stroke-width: 0.8"/>
      </g>
     </g>
     <g id="text_6">
      <text style="font-size: 7px; font-family: 'DejaVu Sans', 'Bitstream Vera Sans', 'Computer Modern Sans Serif', 'Lucida Grande', 'Verdana', 'Geneva', 'Lucid', 'Arial', 'Helvetica', 'Avant Garde', sans-serif; text-anchor: end; fill: var(--fg-color)" x="28.96" y="49.912162" transform="rotate(-0 28.96 49.912162)">200</text>
     </g>
    </g>
    <g id="ytick_4">
     <g id="line2d_13">
      <path d="M 35.96 21.11869 
L 211 21.11869 
" clip-path="url(#p7356fc7a68)" style="fill: none; stroke-dasharray: 2.96,1.28; stroke-dashoffset: 0; stroke: var(--grid-color); stroke-width: 0.8"/>
     </g>
     <g id="line2d_14">
      <g>
       <use xlink:href="#mb4f364b766" x="35.96" y="21.11869" style="fill: var(--fg-color); stroke: var(--fg-color); stroke-width: 0.8"/>
      </g>
     </g>
     <g id="text_7">
      <text style="font-size: 7px; font-family: 'DejaVu Sans', 'Bitstream Vera Sans', 'Computer Modern Sans Serif', 'Lucida Grande', 'Verdana', 'Geneva', 'Lucid', 'Arial', 'Helvetica', 'Avant Garde', sans-serif; text-anchor: end; fill: var(--fg-color)" x="28.96" y="23.77787" transform="rotate(-0 28.96 23.77787)">300</text>
     </g>
    </g>
    <g id="text_8">
     <text style="font-size: 7px; font-family: 'DejaVu Sans', 'Bitstream Vera Sans', 'Computer Modern Sans Serif', 'Lucida Grande', 'Verdana', 'Geneva', 'Lucid', 'Arial', 'Helvetica', 'Avant Garde', sans-serif; text-anchor: middle; fill: var(--fg-color)" x="9.917109" y="54.2" transform="rotate(-90 9.917109 54.2)">ms</text>
    </g>
   </g>
   <g id="line2d_15">
    <path d="M 43.916364 44.962834 
L 45.193108 41.324941 
L 45.766628 45.215553 
L 46.691788 43.865194 
L 47.616947 40.441341 
L 48.542109 40.877522 
L 49.467263 35.977342 
L 50.392418 41.979082 
L 51.317566 42.298182 
L 52.242732 44.710116 
L 53.167891 45.9758 
L 54.093049 43.79228 
L 55.018206 38.341189 
L 55.943359 42.800222 
L 56.868517 43.878 
L 57.793676 42.448716 
L 58.718827 42.951539 
L 59.643987 46.75617 
L 60.569143 43.53355 
L 61.494301 43.612998 
L 62.419457 43.66971 
L 63.344613 41.08921 
L 64.269773 35.734555 
L 65.194924 42.883329 
L 66.120079 34.39282 
L 67.045243 40.822901 
L 67.970398 34.622802 
L 68.895557 37.178213 
L 69.82071 42.891431 
L 70.74585 45.231234 
L 71.671025 42.376062 
L 72.596178 41.319191 
L 73.521341 43.752555 
L 74.446495 43.337543 
L 75.371653 45.350929 
L 76.296805 39.322532 
L 77.221971 47.646565 
L 78.147114 48.092416 
L 79.072277 47.271015 
L 79.997435 43.707604 
L 80.922594 41.882385 
L 81.847735 40.742408 
L 82.772905 35.580624 
L 83.698046 32.802548 
L 84.623219 42.091198 
L 85.548376 42.853536 
L 86.473535 38.527004 
L 87.398688 38.882169 
L 88.323852 44.154239 
L 97.76512 41.670436 
L 98.500856 37.74794 
L 99.426031 37.627461 
L 100.351186 41.061246 
L 101.276348 42.404026 
L 102.201502 46.869331 
L 103.126656 43.013216 
L 104.051812 45.519756 
L 104.976967 43.171851 
L 105.902123 40.832571 
L 106.827282 38.571432 
L 107.752435 45.100301 
L 108.677594 41.096005 
L 109.602753 44.921804 
L 110.527909 40.804346 
L 111.453063 43.8469 
L 112.378223 42.219779 
L 113.303377 43.635735 
L 114.228537 33.382991 
L 115.153695 43.537732 
L 116.078848 40.96664 
L 117.004011 45.880671 
L 117.929158 35.749451 
L 118.854316 41.978298 
L 119.779481 44.709332 
L 120.704637 36.971229 
L 121.629794 42.163068 
L 122.554943 35.608065 
L 123.480104 39.094379 
L 124.405261 32.738519 
L 125.330416 42.527641 
L 126.255574 26.161563 
L 129.9562 42.2122 
L 130.881363 41.017079 
L 131.806516 39.184543 
L 132.731673 38.705762 
L 133.656831 22.982327 
L 134.581987 30.804582 
L 135.507147 20.097101 
L 136.432285 23.669136 
L 137.357455 37.316725 
L 138.282617 26.607676 
L 139.20777 25.93707 
L 140.13293 30.381468 
L 141.058084 33.339869 
L 141.983242 19.104521 
L 142.908395 37.653073 
L 143.833556 18.472071 
L 144.758724 26.504968 
L 145.683869 33.985648 
L 146.609028 21.052048 
L 147.534182 16.528463 
L 148.459339 35.550569 
L 149.384497 39.386561 
L 150.309651 35.380958 
L 151.234811 30.932378 
L 152.159963 37.699853 
L 179.91473 37.699853 
L 188.548948 40.467214 
L 189.166282 43.348781 
L 190.091439 27.84043 
L 191.016594 23.112214 
L 191.94175 17.735868 
L 192.866913 26.050754 
L 193.792066 19.906843 
L 194.717222 20.761957 
L 195.642377 40.592397 
L 196.567536 32.653322 
L 197.492695 37.719977 
L 198.417852 9.472727 
L 199.343013 29.172495 
L 200.268162 16.660964 
L 201.193322 14.516646 
L 202.118478 15.829894 
L 203.043636 27.346492 
" clip-path="url(#p7356fc7a68)" style="fill: none; stroke: #339af0; stroke-width: 1.2; stroke-linecap: square"/>
   </g>
   <g id="line2d_16">
    <path d="M 43.916364 98.859585 
L 45.193108 98.771251 
L 45.766628 98.835803 
L 46.691788 98.84495 
L 47.616947 98.785625 
L 48.542109 98.289073 
L 49.467263 98.64842 
L 50.392418 98.835019 
L 51.317566 98.883367 
L 52.242732 98.872391 
L 53.167891 98.869516 
L 54.093049 98.79242 
L 55.018206 98.758184 
L 55.943359 98.837109 
L 56.868517 98.872652 
L 57.793676 98.836848 
L 58.718827 98.789806 
L 59.643987 98.902184 
L 60.569143 98.778046 
L 61.494301 98.82561 
L 62.419457 98.837893 
L 63.344613 98.909501 
L 64.269773 98.899048 
L 65.194924 98.831621 
L 66.120079 98.861414 
L 67.045243 98.872129 
L 67.970398 98.712972 
L 68.895557 98.917603 
L 69.82071 98.880231 
L 70.74585 98.827701 
L 71.671025 98.851745 
L 72.596178 98.904536 
L 73.521341 98.419745 
L 74.446495 98.857494 
L 75.371653 98.875527 
L 76.296805 98.836064 
L 77.221971 98.9014 
L 78.147114 98.893821 
L 79.072277 98.922046 
L 79.997435 98.837371 
L 80.922594 98.793204 
L 81.847735 98.804442 
L 82.772905 98.844427 
L 83.698046 98.860369 
L 84.623219 98.889639 
L 85.548376 98.890685 
L 86.473535 98.087578 
L 87.398688 98.91499 
L 88.323852 98.870823 
L 97.76512 98.830053 
L 98.500856 98.872391 
L 99.426031 98.716892 
L 100.351186 98.870039 
L 101.276348 98.859324 
L 102.201502 98.899832 
L 103.126656 98.876311 
L 104.051812 98.886503 
L 104.976967 98.810714 
L 105.902123 98.851222 
L 106.827282 98.838416 
L 107.752435 98.923875 
L 108.677594 98.857756 
L 109.602753 98.789022 
L 110.527909 98.879186 
L 111.453063 98.888071 
L 112.378223 98.855665 
L 113.303377 98.927273 
L 114.228537 98.835803 
L 115.153695 98.837632 
L 116.078848 98.148994 
L 117.004011 98.920216 
L 117.929158 98.576028 
L 118.854316 98.870039 
L 119.779481 98.867425 
L 120.704637 98.855665 
L 121.629794 98.852006 
L 122.554943 98.760013 
L 123.480104 98.850438 
L 124.405261 98.836325 
L 125.330416 98.886503 
L 126.255574 98.782489 
L 129.9562 98.877618 
L 130.881363 98.845995 
L 131.806516 98.683178 
L 132.731673 98.82561 
L 133.656831 98.66985 
L 134.581987 98.838155 
L 135.507147 98.843382 
L 136.432285 98.808623 
L 137.357455 98.787193 
L 138.282617 98.82352 
L 139.20777 98.763149 
L 140.13293 98.860369 
L 141.058084 98.318605 
L 141.983242 98.539178 
L 142.908395 98.859324 
L 143.833556 98.812543 
L 144.758724 98.820645 
L 145.683869 98.843382 
L 146.609028 98.792681 
L 147.534182 98.859585 
L 148.459339 98.881015 
L 149.384497 98.84887 
L 150.309651 98.825872 
L 151.234811 98.874743 
L 152.159963 98.834235 
L 179.91473 98.834235 
L 188.548948 98.627512 
L 189.166282 98.756877 
L 190.091439 98.724471 
L 191.016594 98.768899 
L 191.94175 98.495534 
L 192.866913 98.783011 
L 193.792066 98.730743 
L 194.717222 98.798692 
L 195.642377 98.789545 
L 196.567536 98.765501 
L 197.492695 98.668021 
L 198.417852 98.82744 
L 199.343013 98.834496 
L 200.268162 98.637182 
L 201.193322 98.42863 
L 202.118478 98.712449 
L 203.043636 98.817247 
" clip-path="url(#p7356fc7a68)" style="fill: none; stroke: #ff6b6b; stroke-width: 1.2; stroke-linecap: square"/>
   </g>
   <g id="patch_3">
    <path d="M 35.96 103.4 
L 35.96 5 
" style="fill: none; stroke: var(--fg-color); stroke-width: 0.8; stroke-linejoin: miter; stroke-linecap: square"/>
   </g>
   <g id="patch_4">
    <path d="M 35.96 103.4 
L 211 103.4 
" style="fill: none; stroke: var(--fg-color); stroke-width: 0.8; stroke-linejoin: miter; stroke-linecap: square"/>
   </g>
  </g>
 </g>
 <defs>
  <clipPath id="p7356fc7a68">
   <rect x="35.96" y="5" width="175.04" height="98.4"/>
  </clipPath>
 </defs>
</svg>
