<?xml version="1.0" encoding="utf-8" standalone="no"?>
<!DOCTYPE svg PUBLIC "-//W3C//DTD SVG 1.1//EN"
  "http://www.w3.org/Graphics/SVG/1.1/DTD/svg11.dtd">
<svg xmlns:xlink="http://www.w3.org/1999/xlink" width="216pt" height="122.4pt" viewBox="0 0 216 122.4" xmlns="http://www.w3.org/2000/svg" version="1.1">
  <style>
    :root {
      --fg-color: #212529;
      --grid-color: rgba(33, 37, 41, 0.1);
    }
    @media (prefers-color-scheme: dark) {
      :root {
        --fg-color: #dee2e6;
        --grid-color: rgba(248, 249, 250, 0.15);
      }
    }
  </style>

 <metadata>
  <rdf:RDF xmlns:dc="http://purl.org/dc/elements/1.1/" xmlns:cc="http://creativecommons.org/ns#" xmlns:rdf="http://www.w3.org/1999/02/22-rdf-syntax-ns#">
   <cc:Work>
    <dc:type rdf:resource="http://purl.org/dc/dcmitype/StillImage"/>
    <dc:date>2026-06-30T15:37:37.959431</dc:date>
    <dc:format>image/svg+xml</dc:format>
    <dc:creator>
     <cc:Agent>
      <dc:title>Matplotlib v3.11.0, https://matplotlib.org/</dc:title>
     </cc:Agent>
    </dc:creator>
   </cc:Work>
  </rdf:RDF>
 </metadata>
 <defs>
  <style type="text/css">*{stroke-linejoin: round; stroke-linecap: butt}</style>
 </defs>
 <g id="figure_1">
  <g id="patch_1">
   <path d="M 0 122.4 
L 216 122.4 
L 216 0 
L 0 0 
L 0 122.4 
z
" style="fill: none; opacity: 0"/>
  </g>
  <g id="axes_1">
   <g id="patch_2">
    <path d="M 35.96 103.4 
L 211 103.4 
L 211 5 
L 35.96 5 
L 35.96 103.4 
z
" style="fill: none; opacity: 0"/>
   </g>
   <g id="matplotlib.axis_1">
    <g id="xtick_1">
     <g id="line2d_1">
      <path d="M 69.784035 103.4 
L 69.784035 5 
" clip-path="url(#p46b1d5a407)" style="fill: none; stroke-dasharray: 2.96,1.28; stroke-dashoffset: 0; stroke: var(--grid-color); stroke-width: 0.8"/>
     </g>
     <g id="line2d_2">
      <defs>
       <path id="m8e1b46558d" d="M 0 0 
L 0 3.5 
" style="stroke: var(--fg-color); stroke-width: 0.8"/>
      </defs>
      <g>
       <use xlink:href="#m8e1b46558d" x="69.784035" y="103.4" style="fill: var(--fg-color); stroke: var(--fg-color); stroke-width: 0.8"/>
      </g>
     </g>
     <g id="text_1">
      <text style="font-size: 7px; font-family: 'DejaVu Sans', 'Bitstream Vera Sans', 'Computer Modern Sans Serif', 'Lucida Grande', 'Verdana', 'Geneva', 'Lucid', 'Arial', 'Helvetica', 'Avant Garde', sans-serif; text-anchor: middle; fill: var(--fg-color)" x="69.784035" y="115.718359" transform="rotate(-0 69.784035 115.718359)">02/2026</text>
     </g>
    </g>
    <g id="xtick_2">
     <g id="line2d_3">
      <path d="M 122.345302 103.4 
L 122.345302 5 
" clip-path="url(#p46b1d5a407)" style="fill: none; stroke-dasharray: 2.96,1.28; stroke-dashoffset: 0; stroke: var(--grid-color); stroke-width: 0.8"/>
     </g>
     <g id="line2d_4">
      <g>
       <use xlink:href="#m8e1b46558d" x="122.345302" y="103.4" style="fill: var(--fg-color); stroke: var(--fg-color); stroke-width: 0.8"/>
      </g>
     </g>
     <g id="text_2">
      <text style="font-size: 7px; font-family: 'DejaVu Sans', 'Bitstream Vera Sans', 'Computer Modern Sans Serif', 'Lucida Grande', 'Verdana', 'Geneva', 'Lucid', 'Arial', 'Helvetica', 'Avant Garde', sans-serif; text-anchor: middle; fill: var(--fg-color)" x="122.345302" y="115.718359" transform="rotate(-0 122.345302 115.718359)">04/2026</text>
     </g>
    </g>
    <g id="xtick_3">
     <g id="line2d_5">
      <path d="M 176.688307 103.4 
L 176.688307 5 
" clip-path="url(#p46b1d5a407)" style="fill: none; stroke-dasharray: 2.96,1.28; stroke-dashoffset: 0; stroke: var(--grid-color); stroke-width: 0.8"/>
     </g>
     <g id="line2d_6">
      <g>
       <use xlink:href="#m8e1b46558d" x="176.688307" y="103.4" style="fill: var(--fg-color); stroke: var(--fg-color); stroke-width: 0.8"/>
      </g>
     </g>
     <g id="text_3">
      <text style="font-size: 7px; font-family: 'DejaVu Sans', 'Bitstream Vera Sans', 'Computer Modern Sans Serif', 'Lucida Grande', 'Verdana', 'Geneva', 'Lucid', 'Arial', 'Helvetica', 'Avant Garde', sans-serif; text-anchor: middle; fill: var(--fg-color)" x="176.688307" y="115.718359" transform="rotate(-0 176.688307 115.718359)">06/2026</text>
     </g>
    </g>
   </g>
   <g id="matplotlib.axis_2">
    <g id="ytick_1">
     <g id="line2d_7">
      <path d="M 35.96 99.422492 
L 211 99.422492 
" clip-path="url(#p46b1d5a407)" style="fill: none; stroke-dasharray: 2.96,1.28; stroke-dashoffset: 0; stroke: var(--grid-color); stroke-width: 0.8"/>
     </g>
     <g id="line2d_8">
      <defs>
       <path id="m75c3502f04" d="M 0 0 
L -3.5 0 
" style="stroke: var(--fg-color); stroke-width: 0.8"/>
      </defs>
      <g>
       <use xlink:href="#m75c3502f04" x="35.96" y="99.422492" style="fill: var(--fg-color); stroke: var(--fg-color); stroke-width: 0.8"/>
      </g>
     </g>
     <g id="text_4">
      <text style="font-size: 7px; font-family: 'DejaVu Sans', 'Bitstream Vera Sans', 'Computer Modern Sans Serif', 'Lucida Grande', 'Verdana', 'Geneva', 'Lucid', 'Arial', 'Helvetica', 'Avant Garde', sans-serif; text-anchor: end; fill: var(--fg-color)" x="28.96" y="102.081671" transform="rotate(-0 28.96 102.081671)">0</text>
     </g>
    </g>
    <g id="ytick_2">
     <g id="line2d_9">
      <path d="M 35.96 80.183217 
L 211 80.183217 
" clip-path="url(#p46b1d5a407)" style="fill: none; stroke-dasharray: 2.96,1.28; stroke-dashoffset: 0; stroke: var(--grid-color); stroke-width: 0.8"/>
     </g>
     <g id="line2d_10">
      <g>
       <use xlink:href="#m75c3502f04" x="35.96" y="80.183217" style="fill: var(--fg-color); stroke: var(--fg-color); stroke-width: 0.8"/>
      </g>
     </g>
     <g id="text_5">
      <text style="font-size: 7px; font-family: 'DejaVu Sans', 'Bitstream Vera Sans', 'Computer Modern Sans Serif', 'Lucida Grande', 'Verdana', 'Geneva', 'Lucid', 'Arial', 'Helvetica', 'Avant Garde', sans-serif; text-anchor: end; fill: var(--fg-color)" x="28.96" y="82.842397" transform="rotate(-0 28.96 82.842397)">50</text>
     </g>
    </g>
    <g id="ytick_3">
     <g id="line2d_11">
      <path d="M 35.96 60.943943 
L 211 60.943943 
" clip-path="url(#p46b1d5a407)" style="fill: none; stroke-dasharray: 2.96,1.28; stroke-dashoffset: 0; stroke: var(--grid-color); stroke-width: 0.8"/>
     </g>
     <g id="line2d_12">
      <g>
       <use xlink:href="#m75c3502f04" x="35.96" y="60.943943" style="fill: var(--fg-color); stroke: var(--fg-color); stroke-width: 0.8"/>
      </g>
     </g>
     <g id="text_6">
      <text style="font-size: 7px; font-family: 'DejaVu Sans', 'Bitstream Vera Sans', 'Computer Modern Sans Serif', 'Lucida Grande', 'Verdana', 'Geneva', 'Lucid', 'Arial', 'Helvetica', 'Avant Garde', sans-serif; text-anchor: end; fill: var(--fg-color)" x="28.96" y="63.603123" transform="rotate(-0 28.96 63.603123)">100</text>
     </g>
    </g>
    <g id="ytick_4">
     <g id="line2d_13">
      <path d="M 35.96 41.704668 
L 211 41.704668 
" clip-path="url(#p46b1d5a407)" style="fill: none; stroke-dasharray: 2.96,1.28; stroke-dashoffset: 0; stroke: var(--grid-color); stroke-width: 0.8"/>
     </g>
     <g id="line2d_14">
      <g>
       <use xlink:href="#m75c3502f04" x="35.96" y="41.704668" style="fill: var(--fg-color); stroke: var(--fg-color); stroke-width: 0.8"/>
      </g>
     </g>
     <g id="text_7">
      <text style="font-size: 7px; font-family: 'DejaVu Sans', 'Bitstream Vera Sans', 'Computer Modern Sans Serif', 'Lucida Grande', 'Verdana', 'Geneva', 'Lucid', 'Arial', 'Helvetica', 'Avant Garde', sans-serif; text-anchor: end; fill: var(--fg-color)" x="28.96" y="44.363848" transform="rotate(-0 28.96 44.363848)">150</text>
     </g>
    </g>
    <g id="ytick_5">
     <g id="line2d_15">
      <path d="M 35.96 22.465394 
L 211 22.465394 
" clip-path="url(#p46b1d5a407)" style="fill: none; stroke-dasharray: 2.96,1.28; stroke-dashoffset: 0; stroke: var(--grid-color); stroke-width: 0.8"/>
     </g>
     <g id="line2d_16">
      <g>
       <use xlink:href="#m75c3502f04" x="35.96" y="22.465394" style="fill: var(--fg-color); stroke: var(--fg-color); stroke-width: 0.8"/>
      </g>
     </g>
     <g id="text_8">
      <text style="font-size: 7px; font-family: 'DejaVu Sans', 'Bitstream Vera Sans', 'Computer Modern Sans Serif', 'Lucida Grande', 'Verdana', 'Geneva', 'Lucid', 'Arial', 'Helvetica', 'Avant Garde', sans-serif; text-anchor: end; fill: var(--fg-color)" x="28.96" y="25.124574" transform="rotate(-0 28.96 25.124574)">200</text>
     </g>
    </g>
    <g id="text_9">
     <text style="font-size: 7px; font-family: 'DejaVu Sans', 'Bitstream Vera Sans', 'Computer Modern Sans Serif', 'Lucida Grande', 'Verdana', 'Geneva', 'Lucid', 'Arial', 'Helvetica', 'Avant Garde', sans-serif; text-anchor: middle; fill: var(--fg-color)" x="9.917109" y="54.2" transform="rotate(-90 9.917109 54.2)">ms</text>
    </g>
   </g>
   <g id="line2d_17">
    <path d="M 43.916364 32.73224 
L 44.468628 47.525319 
L 45.3595 47.586499 
L 47.141245 40.3483 
L 48.032112 42.535036 
L 48.922979 46.248985 
L 49.81384 41.308339 
L 50.704717 47.496844 
L 52.486458 46.738047 
L 53.377327 29.591621 
L 54.268192 34.209432 
L 55.159063 40.749246 
L 56.049934 41.62194 
L 56.940797 42.969074 
L 57.831669 43.035641 
L 58.722538 38.902661 
L 59.613407 40.413713 
L 61.395144 45.036526 
L 62.286016 38.139246 
L 63.176879 49.333041 
L 64.067746 45.553678 
L 64.958622 28.400325 
L 65.84949 45.323191 
L 66.740361 39.322077 
L 67.631226 44.260029 
L 68.522078 37.414695 
L 69.412965 34.088994 
L 70.30383 48.444956 
L 71.194705 37.98841 
L 72.085571 37.876822 
L 72.976442 48.828587 
L 73.867306 43.318074 
L 74.758184 39.368251 
L 75.649039 37.042607 
L 76.539914 39.286676 
L 77.430784 35.929038 
L 78.321655 29.481188 
L 79.212509 40.100498 
L 80.103391 23.811758 
L 80.994245 37.447017 
L 81.885129 25.866128 
L 82.775998 37.538596 
L 83.666869 37.590157 
L 84.557735 36.931789 
L 85.44861 17.034532 
L 94.53997 35.339932 
L 95.248438 34.805849 
L 96.139324 45.543288 
L 97.030192 27.507238 
L 97.921065 34.936292 
L 98.811931 36.487747 
L 99.702798 42.361112 
L 100.593666 41.113638 
L 101.484533 38.685257 
L 102.375401 30.969153 
L 103.266272 35.157928 
L 104.157138 43.13761 
L 105.048009 39.919264 
L 105.93888 38.706035 
L 106.829748 35.506544 
L 107.720614 42.829396 
L 108.611487 47.252506 
L 109.502352 41.71929 
L 110.393224 38.546349 
L 111.284094 43.913337 
L 112.17496 47.350626 
L 113.065834 38.930365 
L 113.956695 45.137725 
L 114.847564 36.026389 
L 115.738441 37.721754 
L 116.629309 44.026849 
L 117.520178 32.488671 
L 118.41104 43.510082 
L 119.301913 43.650529 
L 120.192782 33.753461 
L 121.083649 35.635062 
L 121.97452 37.890675 
L 125.537994 35.613514 
L 126.428869 33.085858 
L 127.319734 33.750383 
L 128.210603 39.804983 
L 129.101474 36.756327 
L 129.992342 34.402209 
L 131.774065 47.349856 
L 132.664946 40.740781 
L 133.55582 31.811834 
L 134.446686 37.938003 
L 135.337558 33.530286 
L 136.228424 23.428897 
L 137.119294 22.192196 
L 138.010159 38.688335 
L 138.901032 42.485783 
L 139.791912 22.890197 
L 140.68277 36.616265 
L 141.57364 39.965823 
L 142.464507 32.635659 
L 143.355376 32.699534 
L 144.246246 29.080241 
L 145.137113 40.681909 
L 146.027984 36.644739 
L 146.918849 37.493191 
L 173.644977 37.493191 
L 181.959197 28.657362 
L 182.553652 35.223726 
L 183.444521 27.367946 
L 184.335387 18.253147 
L 185.226256 21.245624 
L 186.117131 9.472727 
L 187.007996 11.048424 
L 187.898864 36.191847 
L 189.680603 19.229733 
L 190.571474 26.636084 
L 191.462343 24.919941 
L 192.353215 25.504045 
L 193.244077 31.407424 
L 194.134949 31.447826 
L 195.025817 32.385934 
L 195.916688 22.832095 
L 196.807557 18.187734 
L 197.698426 33.989335 
L 198.589295 23.703634 
L 199.480162 28.486133 
L 200.371032 37.938003 
L 201.261898 40.741166 
L 202.152766 23.336548 
L 203.043636 29.152581 
L 203.043636 29.152581 
" clip-path="url(#p46b1d5a407)" style="fill: none; stroke: #339af0; stroke-width: 1.2; stroke-linecap: square"/>
   </g>
   <g id="line2d_18">
    <path d="M 43.916364 98.544411 
L 44.468628 98.836463 
L 48.922979 98.86032 
L 49.81384 98.702173 
L 50.704717 98.881098 
L 51.595589 98.772974 
L 53.377327 98.827613 
L 57.831669 98.871479 
L 58.722538 98.703712 
L 59.613407 98.877635 
L 61.395144 98.876096 
L 63.176879 98.873788 
L 64.067746 98.667158 
L 64.958622 98.836463 
L 72.976442 98.904955 
L 73.867306 98.834924 
L 76.539914 98.871479 
L 78.321655 98.85147 
L 79.212509 98.712562 
L 80.994245 98.826074 
L 82.775998 98.8507 
L 83.666869 98.764893 
L 84.557735 98.823381 
L 85.44861 98.631373 
L 96.139324 98.871094 
L 97.030192 98.316233 
L 99.702798 98.821842 
L 100.593666 98.213111 
L 101.484533 98.858396 
L 102.375401 98.856857 
L 103.266272 98.522863 
L 104.157138 98.819533 
L 105.93888 98.891872 
L 106.829748 98.711793 
L 107.720614 98.873403 
L 109.502352 98.842235 
L 110.393224 98.593279 
L 111.284094 98.88687 
L 112.17496 98.917268 
L 113.065834 98.778746 
L 113.956695 98.892257 
L 115.738441 98.761045 
L 116.629309 98.863398 
L 117.520178 98.722567 
L 119.301913 98.846468 
L 120.192782 98.691399 
L 125.537994 98.810298 
L 131.774065 98.851085 
L 132.664946 98.670236 
L 133.55582 98.822611 
L 146.027984 98.832231 
L 146.918849 98.855318 
L 182.553652 98.842235 
L 183.444521 98.657538 
L 184.335387 98.813761 
L 185.226256 98.834539 
L 186.117131 98.671775 
L 187.898864 98.846083 
L 190.571474 98.821457 
L 193.244077 98.817224 
L 197.698426 98.859166 
L 198.589295 98.714871 
L 201.261898 98.872633 
L 202.152766 98.579042 
L 203.043636 98.814531 
L 203.043636 98.814531 
" clip-path="url(#p46b1d5a407)" style="fill: none; stroke: #ff6b6b; stroke-width: 1.2; stroke-linecap: square"/>
   </g>
   <g id="patch_3">
    <path d="M 35.96 103.4 
L 35.96 5 
" style="fill: none; stroke: var(--fg-color); stroke-width: 0.8; stroke-linejoin: miter; stroke-linecap: square"/>
   </g>
   <g id="patch_4">
    <path d="M 35.96 103.4 
L 211 103.4 
" style="fill: none; stroke: var(--fg-color); stroke-width: 0.8; stroke-linejoin: miter; stroke-linecap: square"/>
   </g>
  </g>
 </g>
 <defs>
  <clipPath id="p46b1d5a407">
   <rect x="35.96" y="5" width="175.04" height="98.4"/>
  </clipPath>
 </defs>
</svg>
