<?xml version="1.0" encoding="utf-8" standalone="no"?>
<!DOCTYPE svg PUBLIC "-//W3C//DTD SVG 1.1//EN"
  "http://www.w3.org/Graphics/SVG/1.1/DTD/svg11.dtd">
<svg xmlns:xlink="http://www.w3.org/1999/xlink" width="216pt" height="122.4pt" viewBox="0 0 216 122.4" xmlns="http://www.w3.org/2000/svg" version="1.1">
  <style>
    :root {
      --fg-color: #212529;
      --grid-color: rgba(33, 37, 41, 0.1);
    }
    @media (prefers-color-scheme: dark) {
      :root {
        --fg-color: #dee2e6;
        --grid-color: rgba(248, 249, 250, 0.15);
      }
    }
  </style>

 <metadata>
  <rdf:RDF xmlns:dc="http://purl.org/dc/elements/1.1/" xmlns:cc="http://creativecommons.org/ns#" xmlns:rdf="http://www.w3.org/1999/02/22-rdf-syntax-ns#">
   <cc:Work>
    <dc:type rdf:resource="http://purl.org/dc/dcmitype/StillImage"/>
    <dc:date>2026-06-30T15:38:07.264427</dc:date>
    <dc:format>image/svg+xml</dc:format>
    <dc:creator>
     <cc:Agent>
      <dc:title>Matplotlib v3.11.0, https://matplotlib.org/</dc:title>
     </cc:Agent>
    </dc:creator>
   </cc:Work>
  </rdf:RDF>
 </metadata>
 <defs>
  <style type="text/css">*{stroke-linejoin: round; stroke-linecap: butt}</style>
 </defs>
 <g id="figure_1">
  <g id="patch_1">
   <path d="M 0 122.4 
L 216 122.4 
L 216 0 
L 0 0 
L 0 122.4 
z
" style="fill: none; opacity: 0"/>
  </g>
  <g id="axes_1">
   <g id="patch_2">
    <path d="M 35.96 103.4 
L 211 103.4 
L 211 5 
L 35.96 5 
L 35.96 103.4 
z
" style="fill: none; opacity: 0"/>
   </g>
   <g id="matplotlib.axis_1">
    <g id="xtick_1">
     <g id="line2d_1">
      <path d="M 69.784035 103.4 
L 69.784035 5 
" clip-path="url(#p5183f794c9)" style="fill: none; stroke-dasharray: 2.96,1.28; stroke-dashoffset: 0; stroke: var(--grid-color); stroke-width: 0.8"/>
     </g>
     <g id="line2d_2">
      <defs>
       <path id="me3314ce7a6" d="M 0 0 
L 0 3.5 
" style="stroke: var(--fg-color); stroke-width: 0.8"/>
      </defs>
      <g>
       <use xlink:href="#me3314ce7a6" x="69.784035" y="103.4" style="fill: var(--fg-color); stroke: var(--fg-color); stroke-width: 0.8"/>
      </g>
     </g>
     <g id="text_1">
      <text style="font-size: 7px; font-family: 'DejaVu Sans', 'Bitstream Vera Sans', 'Computer Modern Sans Serif', 'Lucida Grande', 'Verdana', 'Geneva', 'Lucid', 'Arial', 'Helvetica', 'Avant Garde', sans-serif; text-anchor: middle; fill: var(--fg-color)" x="69.784035" y="115.718359" transform="rotate(-0 69.784035 115.718359)">02/2026</text>
     </g>
    </g>
    <g id="xtick_2">
     <g id="line2d_3">
      <path d="M 122.345302 103.4 
L 122.345302 5 
" clip-path="url(#p5183f794c9)" style="fill: none; stroke-dasharray: 2.96,1.28; stroke-dashoffset: 0; stroke: var(--grid-color); stroke-width: 0.8"/>
     </g>
     <g id="line2d_4">
      <g>
       <use xlink:href="#me3314ce7a6" x="122.345302" y="103.4" style="fill: var(--fg-color); stroke: var(--fg-color); stroke-width: 0.8"/>
      </g>
     </g>
     <g id="text_2">
      <text style="font-size: 7px; font-family: 'DejaVu Sans', 'Bitstream Vera Sans', 'Computer Modern Sans Serif', 'Lucida Grande', 'Verdana', 'Geneva', 'Lucid', 'Arial', 'Helvetica', 'Avant Garde', sans-serif; text-anchor: middle; fill: var(--fg-color)" x="122.345302" y="115.718359" transform="rotate(-0 122.345302 115.718359)">04/2026</text>
     </g>
    </g>
    <g id="xtick_3">
     <g id="line2d_5">
      <path d="M 176.688307 103.4 
L 176.688307 5 
" clip-path="url(#p5183f794c9)" style="fill: none; stroke-dasharray: 2.96,1.28; stroke-dashoffset: 0; stroke: var(--grid-color); stroke-width: 0.8"/>
     </g>
     <g id="line2d_6">
      <g>
       <use xlink:href="#me3314ce7a6" x="176.688307" y="103.4" style="fill: var(--fg-color); stroke: var(--fg-color); stroke-width: 0.8"/>
      </g>
     </g>
     <g id="text_3">
      <text style="font-size: 7px; font-family: 'DejaVu Sans', 'Bitstream Vera Sans', 'Computer Modern Sans Serif', 'Lucida Grande', 'Verdana', 'Geneva', 'Lucid', 'Arial', 'Helvetica', 'Avant Garde', sans-serif; text-anchor: middle; fill: var(--fg-color)" x="176.688307" y="115.718359" transform="rotate(-0 176.688307 115.718359)">06/2026</text>
     </g>
    </g>
   </g>
   <g id="matplotlib.axis_2">
    <g id="ytick_1">
     <g id="line2d_7">
      <path d="M 35.96 99.740831 
L 211 99.740831 
" clip-path="url(#p5183f794c9)" style="fill: none; stroke-dasharray: 2.96,1.28; stroke-dashoffset: 0; stroke: var(--grid-color); stroke-width: 0.8"/>
     </g>
     <g id="line2d_8">
      <defs>
       <path id="mc3666a9462" d="M 0 0 
L -3.5 0 
" style="stroke: var(--fg-color); stroke-width: 0.8"/>
      </defs>
      <g>
       <use xlink:href="#mc3666a9462" x="35.96" y="99.740831" style="fill: var(--fg-color); stroke: var(--fg-color); stroke-width: 0.8"/>
      </g>
     </g>
     <g id="text_4">
      <text style="font-size: 7px; font-family: 'DejaVu Sans', 'Bitstream Vera Sans', 'Computer Modern Sans Serif', 'Lucida Grande', 'Verdana', 'Geneva', 'Lucid', 'Arial', 'Helvetica', 'Avant Garde', sans-serif; text-anchor: end; fill: var(--fg-color)" x="28.96" y="102.400011" transform="rotate(-0 28.96 102.400011)">0</text>
     </g>
    </g>
    <g id="ytick_2">
     <g id="line2d_9">
      <path d="M 35.96 72.640291 
L 211 72.640291 
" clip-path="url(#p5183f794c9)" style="fill: none; stroke-dasharray: 2.96,1.28; stroke-dashoffset: 0; stroke: var(--grid-color); stroke-width: 0.8"/>
     </g>
     <g id="line2d_10">
      <g>
       <use xlink:href="#mc3666a9462" x="35.96" y="72.640291" style="fill: var(--fg-color); stroke: var(--fg-color); stroke-width: 0.8"/>
      </g>
     </g>
     <g id="text_5">
      <text style="font-size: 7px; font-family: 'DejaVu Sans', 'Bitstream Vera Sans', 'Computer Modern Sans Serif', 'Lucida Grande', 'Verdana', 'Geneva', 'Lucid', 'Arial', 'Helvetica', 'Avant Garde', sans-serif; text-anchor: end; fill: var(--fg-color)" x="28.96" y="75.299471" transform="rotate(-0 28.96 75.299471)">50</text>
     </g>
    </g>
    <g id="ytick_3">
     <g id="line2d_11">
      <path d="M 35.96 45.539752 
L 211 45.539752 
" clip-path="url(#p5183f794c9)" style="fill: none; stroke-dasharray: 2.96,1.28; stroke-dashoffset: 0; stroke: var(--grid-color); stroke-width: 0.8"/>
     </g>
     <g id="line2d_12">
      <g>
       <use xlink:href="#mc3666a9462" x="35.96" y="45.539752" style="fill: var(--fg-color); stroke: var(--fg-color); stroke-width: 0.8"/>
      </g>
     </g>
     <g id="text_6">
      <text style="font-size: 7px; font-family: 'DejaVu Sans', 'Bitstream Vera Sans', 'Computer Modern Sans Serif', 'Lucida Grande', 'Verdana', 'Geneva', 'Lucid', 'Arial', 'Helvetica', 'Avant Garde', sans-serif; text-anchor: end; fill: var(--fg-color)" x="28.96" y="48.198931" transform="rotate(-0 28.96 48.198931)">100</text>
     </g>
    </g>
    <g id="ytick_4">
     <g id="line2d_13">
      <path d="M 35.96 18.439212 
L 211 18.439212 
" clip-path="url(#p5183f794c9)" style="fill: none; stroke-dasharray: 2.96,1.28; stroke-dashoffset: 0; stroke: var(--grid-color); stroke-width: 0.8"/>
     </g>
     <g id="line2d_14">
      <g>
       <use xlink:href="#mc3666a9462" x="35.96" y="18.439212" style="fill: var(--fg-color); stroke: var(--fg-color); stroke-width: 0.8"/>
      </g>
     </g>
     <g id="text_7">
      <text style="font-size: 7px; font-family: 'DejaVu Sans', 'Bitstream Vera Sans', 'Computer Modern Sans Serif', 'Lucida Grande', 'Verdana', 'Geneva', 'Lucid', 'Arial', 'Helvetica', 'Avant Garde', sans-serif; text-anchor: end; fill: var(--fg-color)" x="28.96" y="21.098392" transform="rotate(-0 28.96 21.098392)">150</text>
     </g>
    </g>
    <g id="text_8">
     <text style="font-size: 7px; font-family: 'DejaVu Sans', 'Bitstream Vera Sans', 'Computer Modern Sans Serif', 'Lucida Grande', 'Verdana', 'Geneva', 'Lucid', 'Arial', 'Helvetica', 'Avant Garde', sans-serif; text-anchor: middle; fill: var(--fg-color)" x="9.917109" y="54.2" transform="rotate(-90 9.917109 54.2)">ms</text>
    </g>
   </g>
   <g id="line2d_15">
    <path d="M 43.916364 19.355752 
L 44.468628 31.255057 
L 45.3595 31.475113 
L 46.250371 27.016533 
L 47.141245 28.580234 
L 48.032112 33.426894 
L 48.922979 29.941223 
L 49.81384 31.368879 
L 50.704717 31.499504 
L 51.595589 30.687572 
L 52.486458 27.155287 
L 53.377327 26.150399 
L 54.268192 31.80303 
L 55.159063 29.133627 
L 56.049934 32.558593 
L 56.940797 29.37157 
L 57.831669 32.274579 
L 58.722538 33.609552 
L 59.613407 31.319014 
L 62.286016 25.929801 
L 63.176879 33.635026 
L 64.067746 35.133144 
L 64.958622 31.136899 
L 65.84949 27.929821 
L 66.740361 30.674563 
L 68.522078 30.366701 
L 69.412965 31.394896 
L 70.30383 30.538519 
L 71.194705 31.039337 
L 72.085571 32.569433 
L 72.976442 31.423622 
L 73.867306 36.543456 
L 74.758184 34.217688 
L 75.649039 36.207952 
L 76.539914 35.874615 
L 77.430784 27.844725 
L 78.321655 29.768863 
L 79.212509 31.156953 
L 80.103391 24.811091 
L 80.994245 29.191622 
L 81.885129 31.810618 
L 82.775998 36.636682 
L 83.666869 29.610054 
L 84.557735 31.027955 
L 85.44861 28.682132 
L 94.53997 37.891437 
L 95.248438 36.747794 
L 96.139324 31.344489 
L 97.030192 31.480534 
L 97.921065 35.964047 
L 98.811931 32.745045 
L 99.702798 35.138022 
L 100.593666 32.515232 
L 101.484533 35.949413 
L 102.375401 28.833353 
L 103.266272 33.108734 
L 104.157138 27.308134 
L 105.048009 36.496301 
L 105.93888 32.62526 
L 106.829748 36.135864 
L 108.611487 34.12663 
L 109.502352 28.599746 
L 110.393224 30.816028 
L 111.284094 31.426874 
L 112.17496 28.864789 
L 113.065834 35.793313 
L 113.956695 32.805208 
L 114.847564 33.374861 
L 115.738441 32.31794 
L 116.629309 31.955335 
L 117.520178 28.825223 
L 118.41104 32.83285 
L 119.301913 27.68971 
L 120.192782 30.819822 
L 121.083649 30.371579 
L 121.97452 30.703832 
L 125.537994 25.217599 
L 126.428869 28.123319 
L 127.319734 29.776452 
L 128.210603 28.701102 
L 129.101474 28.345001 
L 129.992342 24.932501 
L 130.883214 27.049053 
L 131.774065 28.422509 
L 132.664946 28.302182 
L 133.55582 26.7813 
L 134.446686 29.321163 
L 135.337558 26.491866 
L 136.228424 26.954743 
L 137.119294 23.617583 
L 138.010159 33.12662 
L 138.901032 30.972127 
L 139.791912 28.179146 
L 140.68277 18.25276 
L 141.57364 25.795924 
L 142.464507 24.946593 
L 143.355376 24.505939 
L 144.246246 29.09677 
L 145.137113 26.185088 
L 146.027984 26.608399 
L 146.918849 21.74602 
L 173.644977 21.74602 
L 181.959197 27.986732 
L 182.553652 31.454517 
L 183.444521 27.015449 
L 184.335387 23.599697 
L 185.226256 27.607324 
L 186.117131 25.724921 
L 187.007996 27.490792 
L 187.898864 27.929821 
L 188.789731 29.268045 
L 189.680603 26.007309 
L 190.571474 9.472727 
L 191.462343 22.472856 
L 192.353215 22.587762 
L 193.244077 22.854974 
L 194.134949 22.309169 
L 195.025817 25.023559 
L 195.916688 24.527619 
L 196.807557 23.001317 
L 197.698426 26.716259 
L 198.589295 24.012167 
L 199.480162 22.775298 
L 200.371032 30.278896 
L 201.261898 29.876182 
L 202.152766 31.281074 
L 203.043636 25.898906 
L 203.043636 25.898906 
" clip-path="url(#p5183f794c9)" style="fill: none; stroke: #339af0; stroke-width: 1.2; stroke-linecap: square"/>
   </g>
   <g id="line2d_16">
    <path d="M 43.916364 98.164122 
L 44.468628 98.677406 
L 45.3595 98.525101 
L 46.250371 98.734859 
L 47.141245 98.282822 
L 48.032112 98.551659 
L 48.922979 98.052467 
L 49.81384 98.561957 
L 51.595589 98.550033 
L 52.486458 98.551117 
L 53.377327 98.328351 
L 54.268192 98.635671 
L 55.159063 98.146235 
L 56.049934 98.614532 
L 57.831669 98.675238 
L 58.722538 98.487702 
L 59.613407 98.542987 
L 60.504275 97.407474 
L 61.395144 97.58146 
L 62.286016 98.583096 
L 64.958622 98.559789 
L 65.84949 98.671444 
L 66.740361 98.237293 
L 67.631226 98.828085 
L 69.412965 98.662229 
L 70.30383 98.043253 
L 72.085571 98.631335 
L 76.539914 98.544071 
L 77.430784 98.580386 
L 78.321655 98.50342 
L 79.212509 98.625373 
L 80.994245 98.612906 
L 81.885129 96.96682 
L 82.775998 98.498542 
L 83.666869 98.498 
L 84.557735 98.20694 
L 85.44861 98.129975 
L 95.248438 98.647595 
L 97.030192 98.274692 
L 97.921065 98.734859 
L 98.811931 98.577676 
L 99.702798 98.823207 
L 100.593666 98.506672 
L 102.375401 98.442715 
L 103.266272 98.661687 
L 104.157138 98.506672 
L 105.048009 98.539735 
L 105.93888 97.913171 
L 106.829748 98.523475 
L 107.720614 98.331603 
L 108.611487 98.547865 
L 109.502352 98.141899 
L 110.393224 97.900162 
L 111.284094 98.663313 
L 112.17496 98.022115 
L 113.065834 98.06656 
L 113.956695 98.535941 
L 114.847564 98.475778 
L 115.738441 97.714253 
L 116.629309 97.935935 
L 117.520178 98.413989 
L 118.41104 98.715889 
L 119.301913 98.505046 
L 120.192782 98.726729 
L 121.083649 98.339191 
L 121.97452 98.688788 
L 125.537994 98.663855 
L 126.428869 98.383636 
L 127.319734 98.611822 
L 129.101474 98.345695 
L 130.883214 98.355451 
L 131.774065 98.818329 
L 133.55582 98.326725 
L 134.446686 98.642175 
L 135.337558 98.556537 
L 136.228424 98.240003 
L 137.119294 98.39556 
L 138.010159 98.403148 
L 138.901032 98.267104 
L 139.791912 97.779294 
L 140.68277 98.876324 
L 146.027984 98.901256 
L 146.918849 98.670902 
L 173.644977 98.670902 
L 184.335387 98.87795 
L 186.117131 98.78906 
L 189.680603 98.902882 
L 191.462343 98.806946 
L 199.480162 98.844887 
L 200.371032 98.927273 
L 203.043636 98.879034 
L 203.043636 98.879034 
" clip-path="url(#p5183f794c9)" style="fill: none; stroke: #ff6b6b; stroke-width: 1.2; stroke-linecap: square"/>
   </g>
   <g id="patch_3">
    <path d="M 35.96 103.4 
L 35.96 5 
" style="fill: none; stroke: var(--fg-color); stroke-width: 0.8; stroke-linejoin: miter; stroke-linecap: square"/>
   </g>
   <g id="patch_4">
    <path d="M 35.96 103.4 
L 211 103.4 
" style="fill: none; stroke: var(--fg-color); stroke-width: 0.8; stroke-linejoin: miter; stroke-linecap: square"/>
   </g>
  </g>
 </g>
 <defs>
  <clipPath id="p5183f794c9">
   <rect x="35.96" y="5" width="175.04" height="98.4"/>
  </clipPath>
 </defs>
</svg>
