<?xml version="1.0" encoding="utf-8" standalone="no"?>
<!DOCTYPE svg PUBLIC "-//W3C//DTD SVG 1.1//EN"
  "http://www.w3.org/Graphics/SVG/1.1/DTD/svg11.dtd">
<svg xmlns:xlink="http://www.w3.org/1999/xlink" width="216pt" height="122.4pt" viewBox="0 0 216 122.4" xmlns="http://www.w3.org/2000/svg" version="1.1">
  <style>
    :root {
      --fg-color: #212529;
      --grid-color: rgba(33, 37, 41, 0.1);
    }
    @media (prefers-color-scheme: dark) {
      :root {
        --fg-color: #dee2e6;
        --grid-color: rgba(248, 249, 250, 0.15);
      }
    }
  </style>

 <metadata>
  <rdf:RDF xmlns:dc="http://purl.org/dc/elements/1.1/" xmlns:cc="http://creativecommons.org/ns#" xmlns:rdf="http://www.w3.org/1999/02/22-rdf-syntax-ns#">
   <cc:Work>
    <dc:type rdf:resource="http://purl.org/dc/dcmitype/StillImage"/>
    <dc:date>2026-06-30T04:49:28.280718</dc:date>
    <dc:format>image/svg+xml</dc:format>
    <dc:creator>
     <cc:Agent>
      <dc:title>Matplotlib v3.11.0, https://matplotlib.org/</dc:title>
     </cc:Agent>
    </dc:creator>
   </cc:Work>
  </rdf:RDF>
 </metadata>
 <defs>
  <style type="text/css">*{stroke-linejoin: round; stroke-linecap: butt}</style>
 </defs>
 <g id="figure_1">
  <g id="patch_1">
   <path d="M 0 122.4 
L 216 122.4 
L 216 0 
L 0 0 
L 0 122.4 
z
" style="fill: none; opacity: 0"/>
  </g>
  <g id="axes_1">
   <g id="patch_2">
    <path d="M 35.96 103.4 
L 211 103.4 
L 211 5 
L 35.96 5 
L 35.96 103.4 
z
" style="fill: none; opacity: 0"/>
   </g>
   <g id="matplotlib.axis_1">
    <g id="xtick_1">
     <g id="line2d_1">
      <path d="M 70.996911 103.4 
L 70.996911 5 
" clip-path="url(#pd2a0568e36)" style="fill: none; stroke-dasharray: 2.96,1.28; stroke-dashoffset: 0; stroke: var(--grid-color); stroke-width: 0.8"/>
     </g>
     <g id="line2d_2">
      <defs>
       <path id="m6e18054e49" d="M 0 0 
L 0 3.5 
" style="stroke: var(--fg-color); stroke-width: 0.8"/>
      </defs>
      <g>
       <use xlink:href="#m6e18054e49" x="70.996911" y="103.4" style="fill: var(--fg-color); stroke: var(--fg-color); stroke-width: 0.8"/>
      </g>
     </g>
     <g id="text_1">
      <text style="font-size: 7px; font-family: 'DejaVu Sans', 'Bitstream Vera Sans', 'Computer Modern Sans Serif', 'Lucida Grande', 'Verdana', 'Geneva', 'Lucid', 'Arial', 'Helvetica', 'Avant Garde', sans-serif; text-anchor: middle; fill: var(--fg-color)" x="70.996911" y="115.718359" transform="rotate(-0 70.996911 115.718359)">02/2026</text>
     </g>
    </g>
    <g id="xtick_2">
     <g id="line2d_3">
      <path d="M 126.022656 103.4 
L 126.022656 5 
" clip-path="url(#pd2a0568e36)" style="fill: none; stroke-dasharray: 2.96,1.28; stroke-dashoffset: 0; stroke: var(--grid-color); stroke-width: 0.8"/>
     </g>
     <g id="line2d_4">
      <g>
       <use xlink:href="#m6e18054e49" x="126.022656" y="103.4" style="fill: var(--fg-color); stroke: var(--fg-color); stroke-width: 0.8"/>
      </g>
     </g>
     <g id="text_2">
      <text style="font-size: 7px; font-family: 'DejaVu Sans', 'Bitstream Vera Sans', 'Computer Modern Sans Serif', 'Lucida Grande', 'Verdana', 'Geneva', 'Lucid', 'Arial', 'Helvetica', 'Avant Garde', sans-serif; text-anchor: middle; fill: var(--fg-color)" x="126.022656" y="115.718359" transform="rotate(-0 126.022656 115.718359)">04/2026</text>
     </g>
    </g>
    <g id="xtick_3">
     <g id="line2d_5">
      <path d="M 182.913681 103.4 
L 182.913681 5 
" clip-path="url(#pd2a0568e36)" style="fill: none; stroke-dasharray: 2.96,1.28; stroke-dashoffset: 0; stroke: var(--grid-color); stroke-width: 0.8"/>
     </g>
     <g id="line2d_6">
      <g>
       <use xlink:href="#m6e18054e49" x="182.913681" y="103.4" style="fill: var(--fg-color); stroke: var(--fg-color); stroke-width: 0.8"/>
      </g>
     </g>
     <g id="text_3">
      <text style="font-size: 7px; font-family: 'DejaVu Sans', 'Bitstream Vera Sans', 'Computer Modern Sans Serif', 'Lucida Grande', 'Verdana', 'Geneva', 'Lucid', 'Arial', 'Helvetica', 'Avant Garde', sans-serif; text-anchor: middle; fill: var(--fg-color)" x="182.913681" y="115.718359" transform="rotate(-0 182.913681 115.718359)">06/2026</text>
     </g>
    </g>
   </g>
   <g id="matplotlib.axis_2">
    <g id="ytick_1">
     <g id="line2d_7">
      <path d="M 35.96 99.207197 
L 211 99.207197 
" clip-path="url(#pd2a0568e36)" style="fill: none; stroke-dasharray: 2.96,1.28; stroke-dashoffset: 0; stroke: var(--grid-color); stroke-width: 0.8"/>
     </g>
     <g id="line2d_8">
      <defs>
       <path id="m7f3ad9e83c" d="M 0 0 
L -3.5 0 
" style="stroke: var(--fg-color); stroke-width: 0.8"/>
      </defs>
      <g>
       <use xlink:href="#m7f3ad9e83c" x="35.96" y="99.207197" style="fill: var(--fg-color); stroke: var(--fg-color); stroke-width: 0.8"/>
      </g>
     </g>
     <g id="text_4">
      <text style="font-size: 7px; font-family: 'DejaVu Sans', 'Bitstream Vera Sans', 'Computer Modern Sans Serif', 'Lucida Grande', 'Verdana', 'Geneva', 'Lucid', 'Arial', 'Helvetica', 'Avant Garde', sans-serif; text-anchor: end; fill: var(--fg-color)" x="28.96" y="101.866376" transform="rotate(-0 28.96 101.866376)">0</text>
     </g>
    </g>
    <g id="ytick_2">
     <g id="line2d_9">
      <path d="M 35.96 78.849088 
L 211 78.849088 
" clip-path="url(#pd2a0568e36)" style="fill: none; stroke-dasharray: 2.96,1.28; stroke-dashoffset: 0; stroke: var(--grid-color); stroke-width: 0.8"/>
     </g>
     <g id="line2d_10">
      <g>
       <use xlink:href="#m7f3ad9e83c" x="35.96" y="78.849088" style="fill: var(--fg-color); stroke: var(--fg-color); stroke-width: 0.8"/>
      </g>
     </g>
     <g id="text_5">
      <text style="font-size: 7px; font-family: 'DejaVu Sans', 'Bitstream Vera Sans', 'Computer Modern Sans Serif', 'Lucida Grande', 'Verdana', 'Geneva', 'Lucid', 'Arial', 'Helvetica', 'Avant Garde', sans-serif; text-anchor: end; fill: var(--fg-color)" x="28.96" y="81.508268" transform="rotate(-0 28.96 81.508268)">100</text>
     </g>
    </g>
    <g id="ytick_3">
     <g id="line2d_11">
      <path d="M 35.96 58.49098 
L 211 58.49098 
" clip-path="url(#pd2a0568e36)" style="fill: none; stroke-dasharray: 2.96,1.28; stroke-dashoffset: 0; stroke: var(--grid-color); stroke-width: 0.8"/>
     </g>
     <g id="line2d_12">
      <g>
       <use xlink:href="#m7f3ad9e83c" x="35.96" y="58.49098" style="fill: var(--fg-color); stroke: var(--fg-color); stroke-width: 0.8"/>
      </g>
     </g>
     <g id="text_6">
      <text style="font-size: 7px; font-family: 'DejaVu Sans', 'Bitstream Vera Sans', 'Computer Modern Sans Serif', 'Lucida Grande', 'Verdana', 'Geneva', 'Lucid', 'Arial', 'Helvetica', 'Avant Garde', sans-serif; text-anchor: end; fill: var(--fg-color)" x="28.96" y="61.15016" transform="rotate(-0 28.96 61.15016)">200</text>
     </g>
    </g>
    <g id="ytick_4">
     <g id="line2d_13">
      <path d="M 35.96 38.132872 
L 211 38.132872 
" clip-path="url(#pd2a0568e36)" style="fill: none; stroke-dasharray: 2.96,1.28; stroke-dashoffset: 0; stroke: var(--grid-color); stroke-width: 0.8"/>
     </g>
     <g id="line2d_14">
      <g>
       <use xlink:href="#m7f3ad9e83c" x="35.96" y="38.132872" style="fill: var(--fg-color); stroke: var(--fg-color); stroke-width: 0.8"/>
      </g>
     </g>
     <g id="text_7">
      <text style="font-size: 7px; font-family: 'DejaVu Sans', 'Bitstream Vera Sans', 'Computer Modern Sans Serif', 'Lucida Grande', 'Verdana', 'Geneva', 'Lucid', 'Arial', 'Helvetica', 'Avant Garde', sans-serif; text-anchor: end; fill: var(--fg-color)" x="28.96" y="40.792052" transform="rotate(-0 28.96 40.792052)">300</text>
     </g>
    </g>
    <g id="ytick_5">
     <g id="line2d_15">
      <path d="M 35.96 17.774764 
L 211 17.774764 
" clip-path="url(#pd2a0568e36)" style="fill: none; stroke-dasharray: 2.96,1.28; stroke-dashoffset: 0; stroke: var(--grid-color); stroke-width: 0.8"/>
     </g>
     <g id="line2d_16">
      <g>
       <use xlink:href="#m7f3ad9e83c" x="35.96" y="17.774764" style="fill: var(--fg-color); stroke: var(--fg-color); stroke-width: 0.8"/>
      </g>
     </g>
     <g id="text_8">
      <text style="font-size: 7px; font-family: 'DejaVu Sans', 'Bitstream Vera Sans', 'Computer Modern Sans Serif', 'Lucida Grande', 'Verdana', 'Geneva', 'Lucid', 'Arial', 'Helvetica', 'Avant Garde', sans-serif; text-anchor: end; fill: var(--fg-color)" x="28.96" y="20.433943" transform="rotate(-0 28.96 20.433943)">400</text>
     </g>
    </g>
    <g id="text_9">
     <text style="font-size: 7px; font-family: 'DejaVu Sans', 'Bitstream Vera Sans', 'Computer Modern Sans Serif', 'Lucida Grande', 'Verdana', 'Geneva', 'Lucid', 'Arial', 'Helvetica', 'Avant Garde', sans-serif; text-anchor: middle; fill: var(--fg-color)" x="9.917109" y="54.2" transform="rotate(-90 9.917109 54.2)">ms</text>
    </g>
   </g>
   <g id="line2d_17">
    <path d="M 43.916364 76.103594 
L 44.494523 81.549795 
L 45.427166 82.133666 
L 46.359808 80.31304 
L 47.292453 80.080143 
L 48.22509 80.379407 
L 49.157727 80.204531 
L 50.090359 79.449653 
L 51.023007 82.301213 
L 51.95565 80.458601 
L 52.88829 81.209204 
L 53.82093 77.619255 
L 54.753566 81.240352 
L 55.686208 80.921137 
L 56.618849 79.728559 
L 57.551483 82.07137 
L 58.484126 81.35904 
L 59.416765 79.624732 
L 60.349406 80.691294 
L 61.282045 80.764379 
L 62.214684 78.238956 
L 63.147327 80.967553 
L 64.07996 83.142206 
L 65.012598 82.085824 
L 65.945245 80.958596 
L 66.877884 80.522525 
L 67.810526 80.492599 
L 68.743162 80.165444 
L 69.675784 80.655463 
L 70.608443 76.79577 
L 71.541078 80.083808 
L 72.473724 78.121897 
L 73.406361 77.2011 
L 74.339003 81.746251 
L 75.271637 81.455334 
L 76.204286 79.841139 
L 77.136912 81.409731 
L 78.069558 81.908709 
L 79.002199 71.719883 
L 79.934841 79.577502 
L 80.867465 72.118087 
L 81.800118 80.849476 
L 82.732742 81.072805 
L 83.665398 80.77578 
L 84.598038 77.570396 
L 85.53068 80.883271 
L 86.463316 79.948223 
L 87.395962 76.750575 
L 96.913595 9.472727 
L 97.655282 82.617374 
L 98.587939 80.047977 
L 99.520578 78.871279 
L 100.453222 77.351546 
L 101.385859 82.600681 
L 102.318497 81.978537 
L 103.251135 82.780646 
L 104.183773 79.093997 
L 105.116412 73.118281 
L 106.049054 80.786977 
L 106.981691 79.247904 
L 107.914333 76.899189 
L 108.846974 77.664043 
L 109.779613 82.077274 
L 110.71225 79.471232 
L 111.644893 81.707978 
L 112.57753 80.251355 
L 113.510173 80.287185 
L 114.442814 75.90612 
L 115.37545 75.965566 
L 116.308095 78.999738 
L 117.240726 71.138659 
L 118.173367 79.712272 
L 119.106014 77.677479 
L 120.038653 81.103545 
L 120.971293 76.88901 
L 121.903926 78.875961 
L 122.836569 77.48591 
L 123.769209 79.07486 
L 124.701847 80.675822 
L 125.634489 79.300428 
L 129.365046 78.980602 
L 130.297692 81.638556 
L 131.230328 80.115159 
L 132.162968 77.210464 
L 133.095609 77.29434 
L 134.028248 70.466027 
L 134.960891 75.393096 
L 135.893512 81.433957 
L 136.826165 77.933788 
L 137.75881 76.45355 
L 138.691446 78.504426 
L 139.624089 80.12432 
L 140.556726 75.141266 
L 141.489366 76.666699 
L 142.422003 78.448441 
L 143.354646 79.456371 
L 144.287298 78.797175 
L 145.219926 79.917278 
L 146.152567 77.884725 
L 147.085204 76.571423 
L 148.017844 80.153432 
L 148.950485 80.988929 
L 149.883123 80.037798 
L 150.815765 76.385757 
L 151.7484 77.173209 
L 179.727656 77.173209 
L 188.43171 78.285983 
L 189.054038 82.488915 
L 189.986678 75.934418 
L 190.919315 76.616618 
L 191.851955 78.537406 
L 192.7846 80.846219 
L 193.717237 80.002375 
L 194.649875 78.071409 
L 195.582513 80.126967 
L 196.515156 83.703276 
L 197.447798 78.874943 
L 198.380437 78.164445 
L 199.313081 79.950259 
L 200.245713 79.315493 
L 201.178356 81.172356 
L 202.110995 77.752194 
L 203.043636 79.540246 
" clip-path="url(#pd2a0568e36)" style="fill: none; stroke: #339af0; stroke-width: 1.2; stroke-linecap: square"/>
   </g>
   <g id="line2d_18">
    <path d="M 43.916364 98.888185 
L 44.494523 98.86233 
L 45.427166 98.895718 
L 46.359808 98.714327 
L 47.292453 98.879635 
L 48.22509 98.874545 
L 49.157727 98.885131 
L 50.090359 98.879431 
L 51.023007 98.805531 
L 51.95565 98.885131 
L 52.88829 98.904268 
L 53.82093 98.838308 
L 54.753566 98.885946 
L 55.686208 98.901622 
L 56.618849 98.882892 
L 57.551483 98.896532 
L 58.484126 98.894903 
L 59.416765 98.882688 
L 60.349406 98.894903 
L 61.282045 98.867013 
L 62.214684 98.864773 
L 63.147327 98.838511 
L 64.07996 98.896328 
L 65.012598 98.87821 
L 65.945245 98.880449 
L 66.877884 98.878006 
L 67.810526 98.898568 
L 68.743162 98.889814 
L 69.675784 98.883096 
L 70.608443 98.862941 
L 71.541078 98.883096 
L 72.473724 98.896125 
L 73.406361 98.312254 
L 74.339003 98.896939 
L 75.271637 98.897143 
L 76.204286 98.883096 
L 77.136912 98.901214 
L 78.069558 98.906915 
L 79.002199 98.767054 
L 79.934841 98.8947 
L 80.867465 98.901825 
L 81.800118 98.917704 
L 82.732742 98.898364 
L 83.665398 98.901418 
L 84.598038 98.886557 
L 85.53068 98.744457 
L 86.463316 98.903861 
L 87.395962 98.836679 
L 96.913595 98.916279 
L 97.655282 98.927273 
L 98.587939 98.898161 
L 99.520578 98.879635 
L 100.453222 98.812657 
L 101.385859 98.913226 
L 102.318497 98.890425 
L 103.251135 98.910375 
L 104.183773 98.882688 
L 105.116412 98.633709 
L 106.049054 98.892257 
L 106.981691 98.860091 
L 107.914333 98.88391 
L 108.846974 98.911597 
L 109.779613 98.898975 
L 110.71225 98.889407 
L 111.644893 98.904879 
L 112.57753 98.899789 
L 113.510173 98.899179 
L 114.442814 98.869863 
L 115.37545 98.719009 
L 116.308095 98.9061 
L 117.240726 98.892664 
L 118.173367 98.90895 
L 119.106014 98.885131 
L 120.038653 98.829757 
L 120.971293 98.852558 
L 121.903926 98.844212 
L 122.836569 98.877192 
L 123.769209 98.863755 
L 124.701847 98.898568 
L 125.634489 98.865791 
L 129.365046 98.877599 
L 130.297692 98.897143 
L 131.230328 98.873731 
L 132.162968 98.84808 
L 133.095609 98.856223 
L 134.028248 98.888185 
L 134.960891 98.678904 
L 135.893512 98.88106 
L 136.826165 98.87312 
L 137.75881 98.799017 
L 138.691446 98.729188 
L 139.624089 98.882485 
L 140.556726 98.854391 
L 141.489366 98.863552 
L 142.422003 98.882892 
L 143.354646 98.887982 
L 144.287298 98.847876 
L 145.219926 98.890832 
L 146.152567 98.886149 
L 147.085204 98.790059 
L 148.017844 98.853984 
L 148.950485 98.896532 
L 149.883123 98.880653 
L 150.815765 98.791077 
L 151.7484 98.838919 
L 179.727656 98.838919 
L 188.43171 98.888389 
L 189.054038 98.88676 
L 189.986678 98.865791 
L 190.919315 98.819375 
L 191.851955 98.87597 
L 192.7846 98.878006 
L 193.717237 98.842787 
L 194.649875 98.852355 
L 195.582513 98.874545 
L 196.515156 98.886964 
L 197.447798 98.81571 
L 198.380437 98.812249 
L 199.313081 98.847876 
L 200.245713 98.735703 
L 201.178356 98.887982 
L 202.110995 98.885742 
L 203.043636 98.868641 
" clip-path="url(#pd2a0568e36)" style="fill: none; stroke: #ff6b6b; stroke-width: 1.2; stroke-linecap: square"/>
   </g>
   <g id="patch_3">
    <path d="M 35.96 103.4 
L 35.96 5 
" style="fill: none; stroke: var(--fg-color); stroke-width: 0.8; stroke-linejoin: miter; stroke-linecap: square"/>
   </g>
   <g id="patch_4">
    <path d="M 35.96 103.4 
L 211 103.4 
" style="fill: none; stroke: var(--fg-color); stroke-width: 0.8; stroke-linejoin: miter; stroke-linecap: square"/>
   </g>
  </g>
 </g>
 <defs>
  <clipPath id="pd2a0568e36">
   <rect x="35.96" y="5" width="175.04" height="98.4"/>
  </clipPath>
 </defs>
</svg>
