<?xml version="1.0" encoding="utf-8" standalone="no"?>
<!DOCTYPE svg PUBLIC "-//W3C//DTD SVG 1.1//EN"
  "http://www.w3.org/Graphics/SVG/1.1/DTD/svg11.dtd">
<svg xmlns:xlink="http://www.w3.org/1999/xlink" width="216pt" height="122.4pt" viewBox="0 0 216 122.4" xmlns="http://www.w3.org/2000/svg" version="1.1">
  <style>
    :root {
      --fg-color: #212529;
      --grid-color: rgba(33, 37, 41, 0.1);
    }
    @media (prefers-color-scheme: dark) {
      :root {
        --fg-color: #dee2e6;
        --grid-color: rgba(248, 249, 250, 0.15);
      }
    }
  </style>

 <metadata>
  <rdf:RDF xmlns:dc="http://purl.org/dc/elements/1.1/" xmlns:cc="http://creativecommons.org/ns#" xmlns:rdf="http://www.w3.org/1999/02/22-rdf-syntax-ns#">
   <cc:Work>
    <dc:type rdf:resource="http://purl.org/dc/dcmitype/StillImage"/>
    <dc:date>2026-06-30T04:49:03.502740</dc:date>
    <dc:format>image/svg+xml</dc:format>
    <dc:creator>
     <cc:Agent>
      <dc:title>Matplotlib v3.11.0, https://matplotlib.org/</dc:title>
     </cc:Agent>
    </dc:creator>
   </cc:Work>
  </rdf:RDF>
 </metadata>
 <defs>
  <style type="text/css">*{stroke-linejoin: round; stroke-linecap: butt}</style>
 </defs>
 <g id="figure_1">
  <g id="patch_1">
   <path d="M 0 122.4 
L 216 122.4 
L 216 0 
L 0 0 
L 0 122.4 
z
" style="fill: none; opacity: 0"/>
  </g>
  <g id="axes_1">
   <g id="patch_2">
    <path d="M 35.96 103.4 
L 211 103.4 
L 211 5 
L 35.96 5 
L 35.96 103.4 
z
" style="fill: none; opacity: 0"/>
   </g>
   <g id="matplotlib.axis_1">
    <g id="xtick_1">
     <g id="line2d_1">
      <path d="M 72.056377 103.4 
L 72.056377 5 
" clip-path="url(#p1991798205)" style="fill: none; stroke-dasharray: 2.96,1.28; stroke-dashoffset: 0; stroke: var(--grid-color); stroke-width: 0.8"/>
     </g>
     <g id="line2d_2">
      <defs>
       <path id="m090581bb12" d="M 0 0 
L 0 3.5 
" style="stroke: var(--fg-color); stroke-width: 0.8"/>
      </defs>
      <g>
       <use xlink:href="#m090581bb12" x="72.056377" y="103.4" style="fill: var(--fg-color); stroke: var(--fg-color); stroke-width: 0.8"/>
      </g>
     </g>
     <g id="text_1">
      <text style="font-size: 7px; font-family: 'DejaVu Sans', 'Bitstream Vera Sans', 'Computer Modern Sans Serif', 'Lucida Grande', 'Verdana', 'Geneva', 'Lucid', 'Arial', 'Helvetica', 'Avant Garde', sans-serif; text-anchor: middle; fill: var(--fg-color)" x="72.056377" y="115.718359" transform="rotate(-0 72.056377 115.718359)">02/2026</text>
     </g>
    </g>
    <g id="xtick_2">
     <g id="line2d_3">
      <path d="M 126.640628 103.4 
L 126.640628 5 
" clip-path="url(#p1991798205)" style="fill: none; stroke-dasharray: 2.96,1.28; stroke-dashoffset: 0; stroke: var(--grid-color); stroke-width: 0.8"/>
     </g>
     <g id="line2d_4">
      <g>
       <use xlink:href="#m090581bb12" x="126.640628" y="103.4" style="fill: var(--fg-color); stroke: var(--fg-color); stroke-width: 0.8"/>
      </g>
     </g>
     <g id="text_2">
      <text style="font-size: 7px; font-family: 'DejaVu Sans', 'Bitstream Vera Sans', 'Computer Modern Sans Serif', 'Lucida Grande', 'Verdana', 'Geneva', 'Lucid', 'Arial', 'Helvetica', 'Avant Garde', sans-serif; text-anchor: middle; fill: var(--fg-color)" x="126.640628" y="115.718359" transform="rotate(-0 126.640628 115.718359)">04/2026</text>
     </g>
    </g>
    <g id="xtick_3">
     <g id="line2d_5">
      <path d="M 183.075192 103.4 
L 183.075192 5 
" clip-path="url(#p1991798205)" style="fill: none; stroke-dasharray: 2.96,1.28; stroke-dashoffset: 0; stroke: var(--grid-color); stroke-width: 0.8"/>
     </g>
     <g id="line2d_6">
      <g>
       <use xlink:href="#m090581bb12" x="183.075192" y="103.4" style="fill: var(--fg-color); stroke: var(--fg-color); stroke-width: 0.8"/>
      </g>
     </g>
     <g id="text_3">
      <text style="font-size: 7px; font-family: 'DejaVu Sans', 'Bitstream Vera Sans', 'Computer Modern Sans Serif', 'Lucida Grande', 'Verdana', 'Geneva', 'Lucid', 'Arial', 'Helvetica', 'Avant Garde', sans-serif; text-anchor: middle; fill: var(--fg-color)" x="183.075192" y="115.718359" transform="rotate(-0 183.075192 115.718359)">06/2026</text>
     </g>
    </g>
   </g>
   <g id="matplotlib.axis_2">
    <g id="ytick_1">
     <g id="line2d_7">
      <path d="M 35.96 100.049051 
L 211 100.049051 
" clip-path="url(#p1991798205)" style="fill: none; stroke-dasharray: 2.96,1.28; stroke-dashoffset: 0; stroke: var(--grid-color); stroke-width: 0.8"/>
     </g>
     <g id="line2d_8">
      <defs>
       <path id="md16d5ba4db" d="M 0 0 
L -3.5 0 
" style="stroke: var(--fg-color); stroke-width: 0.8"/>
      </defs>
      <g>
       <use xlink:href="#md16d5ba4db" x="35.96" y="100.049051" style="fill: var(--fg-color); stroke: var(--fg-color); stroke-width: 0.8"/>
      </g>
     </g>
     <g id="text_4">
      <text style="font-size: 7px; font-family: 'DejaVu Sans', 'Bitstream Vera Sans', 'Computer Modern Sans Serif', 'Lucida Grande', 'Verdana', 'Geneva', 'Lucid', 'Arial', 'Helvetica', 'Avant Garde', sans-serif; text-anchor: end; fill: var(--fg-color)" x="28.96" y="102.70823" transform="rotate(-0 28.96 102.70823)">0</text>
     </g>
    </g>
    <g id="ytick_2">
     <g id="line2d_9">
      <path d="M 35.96 83.026626 
L 211 83.026626 
" clip-path="url(#p1991798205)" style="fill: none; stroke-dasharray: 2.96,1.28; stroke-dashoffset: 0; stroke: var(--grid-color); stroke-width: 0.8"/>
     </g>
     <g id="line2d_10">
      <g>
       <use xlink:href="#md16d5ba4db" x="35.96" y="83.026626" style="fill: var(--fg-color); stroke: var(--fg-color); stroke-width: 0.8"/>
      </g>
     </g>
     <g id="text_5">
      <text style="font-size: 7px; font-family: 'DejaVu Sans', 'Bitstream Vera Sans', 'Computer Modern Sans Serif', 'Lucida Grande', 'Verdana', 'Geneva', 'Lucid', 'Arial', 'Helvetica', 'Avant Garde', sans-serif; text-anchor: end; fill: var(--fg-color)" x="28.96" y="85.685805" transform="rotate(-0 28.96 85.685805)">20</text>
     </g>
    </g>
    <g id="ytick_3">
     <g id="line2d_11">
      <path d="M 35.96 66.004201 
L 211 66.004201 
" clip-path="url(#p1991798205)" style="fill: none; stroke-dasharray: 2.96,1.28; stroke-dashoffset: 0; stroke: var(--grid-color); stroke-width: 0.8"/>
     </g>
     <g id="line2d_12">
      <g>
       <use xlink:href="#md16d5ba4db" x="35.96" y="66.004201" style="fill: var(--fg-color); stroke: var(--fg-color); stroke-width: 0.8"/>
      </g>
     </g>
     <g id="text_6">
      <text style="font-size: 7px; font-family: 'DejaVu Sans', 'Bitstream Vera Sans', 'Computer Modern Sans Serif', 'Lucida Grande', 'Verdana', 'Geneva', 'Lucid', 'Arial', 'Helvetica', 'Avant Garde', sans-serif; text-anchor: end; fill: var(--fg-color)" x="28.96" y="68.66338" transform="rotate(-0 28.96 68.66338)">40</text>
     </g>
    </g>
    <g id="ytick_4">
     <g id="line2d_13">
      <path d="M 35.96 48.981776 
L 211 48.981776 
" clip-path="url(#p1991798205)" style="fill: none; stroke-dasharray: 2.96,1.28; stroke-dashoffset: 0; stroke: var(--grid-color); stroke-width: 0.8"/>
     </g>
     <g id="line2d_14">
      <g>
       <use xlink:href="#md16d5ba4db" x="35.96" y="48.981776" style="fill: var(--fg-color); stroke: var(--fg-color); stroke-width: 0.8"/>
      </g>
     </g>
     <g id="text_7">
      <text style="font-size: 7px; font-family: 'DejaVu Sans', 'Bitstream Vera Sans', 'Computer Modern Sans Serif', 'Lucida Grande', 'Verdana', 'Geneva', 'Lucid', 'Arial', 'Helvetica', 'Avant Garde', sans-serif; text-anchor: end; fill: var(--fg-color)" x="28.96" y="51.640955" transform="rotate(-0 28.96 51.640955)">60</text>
     </g>
    </g>
    <g id="ytick_5">
     <g id="line2d_15">
      <path d="M 35.96 31.959351 
L 211 31.959351 
" clip-path="url(#p1991798205)" style="fill: none; stroke-dasharray: 2.96,1.28; stroke-dashoffset: 0; stroke: var(--grid-color); stroke-width: 0.8"/>
     </g>
     <g id="line2d_16">
      <g>
       <use xlink:href="#md16d5ba4db" x="35.96" y="31.959351" style="fill: var(--fg-color); stroke: var(--fg-color); stroke-width: 0.8"/>
      </g>
     </g>
     <g id="text_8">
      <text style="font-size: 7px; font-family: 'DejaVu Sans', 'Bitstream Vera Sans', 'Computer Modern Sans Serif', 'Lucida Grande', 'Verdana', 'Geneva', 'Lucid', 'Arial', 'Helvetica', 'Avant Garde', sans-serif; text-anchor: end; fill: var(--fg-color)" x="28.96" y="34.61853" transform="rotate(-0 28.96 34.61853)">80</text>
     </g>
    </g>
    <g id="ytick_6">
     <g id="line2d_17">
      <path d="M 35.96 14.936926 
L 211 14.936926 
" clip-path="url(#p1991798205)" style="fill: none; stroke-dasharray: 2.96,1.28; stroke-dashoffset: 0; stroke: var(--grid-color); stroke-width: 0.8"/>
     </g>
     <g id="line2d_18">
      <g>
       <use xlink:href="#md16d5ba4db" x="35.96" y="14.936926" style="fill: var(--fg-color); stroke: var(--fg-color); stroke-width: 0.8"/>
      </g>
     </g>
     <g id="text_9">
      <text style="font-size: 7px; font-family: 'DejaVu Sans', 'Bitstream Vera Sans', 'Computer Modern Sans Serif', 'Lucida Grande', 'Verdana', 'Geneva', 'Lucid', 'Arial', 'Helvetica', 'Avant Garde', sans-serif; text-anchor: end; fill: var(--fg-color)" x="28.96" y="17.596105" transform="rotate(-0 28.96 17.596105)">100</text>
     </g>
    </g>
    <g id="text_10">
     <text style="font-size: 7px; font-family: 'DejaVu Sans', 'Bitstream Vera Sans', 'Computer Modern Sans Serif', 'Lucida Grande', 'Verdana', 'Geneva', 'Lucid', 'Arial', 'Helvetica', 'Avant Garde', sans-serif; text-anchor: middle; fill: var(--fg-color)" x="9.917109" y="54.2" transform="rotate(-90 9.917109 54.2)">ms</text>
    </g>
   </g>
   <g id="line2d_19">
    <path d="M 43.916364 27.059446 
L 45.193108 18.81889 
L 45.766628 27.847584 
L 46.691788 31.574644 
L 47.616947 25.345287 
L 48.542109 26.506217 
L 49.467263 25.181872 
L 50.392418 24.712904 
L 51.317566 26.73602 
L 52.242732 31.400164 
L 53.167891 28.477414 
L 54.093049 27.232223 
L 55.018206 30.515849 
L 55.943359 24.134142 
L 56.868517 26.539411 
L 57.793676 25.941072 
L 58.718827 29.162566 
L 59.643987 32.309161 
L 60.569143 26.357271 
L 61.494301 28.765944 
L 62.419457 28.561675 
L 63.344613 27.967592 
L 64.269773 27.481602 
L 65.194924 32.804514 
L 66.120079 30.954176 
L 67.045243 20.8386 
L 67.970398 28.411026 
L 68.895557 25.356352 
L 69.82071 27.970145 
L 70.74585 25.063566 
L 71.671025 27.480751 
L 72.596178 27.998232 
L 73.521341 18.616323 
L 74.446495 25.984479 
L 75.371653 29.269808 
L 76.296805 26.179386 
L 77.221971 30.496273 
L 78.147114 29.65877 
L 79.072277 29.489397 
L 79.997435 29.4162 
L 80.922594 27.282439 
L 81.847735 29.963471 
L 82.772905 23.351961 
L 83.698046 23.194504 
L 84.623219 33.130493 
L 85.548376 25.230386 
L 86.473535 26.770064 
L 87.398688 27.653528 
L 88.323852 22.689789 
L 97.76512 19.074226 
L 98.500856 19.830022 
L 99.426031 20.555177 
L 100.351186 9.472727 
L 101.276348 33.387532 
L 102.201502 27.358189 
L 103.126656 31.486127 
L 104.051812 34.778264 
L 104.976967 31.383142 
L 105.902123 27.761621 
L 106.827282 28.928508 
L 107.752435 24.973347 
L 108.677594 32.784087 
L 109.602753 23.025131 
L 110.527909 27.382021 
L 111.453063 31.281007 
L 112.378223 32.842815 
L 113.303377 32.096381 
L 114.228537 24.232021 
L 115.153695 29.761756 
L 116.078848 28.422942 
L 117.004011 29.770267 
L 117.929158 34.088005 
L 118.854316 29.032345 
L 119.779481 29.487695 
L 120.704637 31.516768 
L 121.629794 20.646247 
L 122.554943 21.99187 
L 123.480104 21.030954 
L 124.405261 29.477481 
L 125.330416 21.842072 
L 126.255574 19.158487 
L 129.9562 25.152934 
L 130.881363 24.407352 
L 131.806516 27.91312 
L 132.731673 30.019645 
L 133.656831 19.218066 
L 134.581987 19.612986 
L 135.507147 27.068808 
L 136.432285 25.153785 
L 137.357455 24.030305 
L 138.282617 18.539722 
L 139.20777 21.442045 
L 140.13293 20.127063 
L 141.058084 21.258203 
L 141.983242 16.586399 
L 142.908395 23.283021 
L 143.833556 25.304434 
L 144.758724 19.435953 
L 145.683869 24.780994 
L 146.609028 21.754407 
L 147.534182 25.097611 
L 148.459339 31.47336 
L 149.384497 30.024752 
L 150.309651 23.224293 
L 151.234811 24.053285 
L 152.159963 18.276725 
L 179.91473 18.276725 
L 188.548948 23.703475 
L 189.166282 26.97178 
L 190.091439 27.399894 
L 191.016594 27.854393 
L 191.94175 26.069592 
L 192.866913 30.361796 
L 193.792066 26.447489 
L 194.717222 22.069322 
L 195.642377 26.541113 
L 196.567536 27.092639 
L 197.492695 15.181197 
L 198.417852 15.663783 
L 199.343013 14.239857 
L 200.268162 24.460121 
L 201.193322 26.661972 
L 202.118478 23.483034 
L 203.043636 17.74903 
" clip-path="url(#p1991798205)" style="fill: none; stroke: #339af0; stroke-width: 1.2; stroke-linecap: square"/>
   </g>
   <g id="line2d_20">
    <path d="M 43.916364 98.774071 
L 45.193108 98.688959 
L 45.766628 98.7962 
L 46.691788 98.81152 
L 47.616947 98.680448 
L 48.542109 98.753644 
L 49.467263 98.825989 
L 50.392418 98.741728 
L 51.317566 98.820031 
L 52.242732 98.063385 
L 53.167891 98.805562 
L 54.093049 98.770666 
L 55.018206 98.845565 
L 55.943359 98.731515 
L 56.868517 98.686405 
L 57.793676 98.652361 
L 58.718827 98.841309 
L 59.643987 98.874503 
L 60.569143 98.791093 
L 61.494301 98.860885 
L 62.419457 98.655765 
L 63.344613 98.836203 
L 64.269773 98.812371 
L 65.194924 98.91791 
L 66.120079 98.810669 
L 67.045243 98.768964 
L 67.970398 98.839607 
L 68.895557 98.71279 
L 69.82071 98.841309 
L 70.74585 98.854927 
L 71.671025 98.829394 
L 72.596178 98.848118 
L 73.521341 98.771518 
L 74.446495 98.854076 
L 75.371653 98.87961 
L 76.296805 98.791944 
L 77.221971 98.91025 
L 78.147114 98.883014 
L 79.072277 98.875354 
L 79.997435 98.845565 
L 80.922594 98.84897 
L 81.847735 98.820031 
L 82.772905 98.860034 
L 83.698046 98.804711 
L 84.623219 98.913655 
L 85.548376 98.831096 
L 86.473535 98.828543 
L 87.398688 98.709386 
L 88.323852 98.717046 
L 97.76512 98.774922 
L 98.500856 98.900037 
L 99.426031 98.920464 
L 100.351186 98.740026 
L 101.276348 98.831947 
L 102.201502 98.812371 
L 103.126656 98.854076 
L 104.051812 98.927273 
L 104.976967 98.714492 
L 105.902123 98.68215 
L 106.827282 98.855779 
L 107.752435 98.808116 
L 108.677594 98.858332 
L 109.602753 98.777475 
L 110.527909 98.848118 
L 111.453063 98.863439 
L 112.378223 98.868545 
L 113.303377 98.840458 
L 114.228537 98.663425 
L 115.153695 98.81918 
L 116.078848 98.860885 
L 117.004011 98.839607 
L 117.929158 98.854076 
L 118.854316 98.846416 
L 119.779481 98.905144 
L 120.704637 98.745133 
L 121.629794 98.589378 
L 122.554943 98.374044 
L 123.480104 98.76556 
L 124.405261 98.851523 
L 125.330416 98.747686 
L 126.255574 98.729813 
L 129.9562 98.804711 
L 130.881363 96.369653 
L 131.806516 98.812371 
L 132.731673 98.829394 
L 133.656831 98.798753 
L 134.581987 98.474476 
L 135.507147 98.779178 
L 136.432285 98.785987 
L 137.357455 98.770666 
L 138.282617 98.732366 
L 139.20777 98.777475 
L 140.13293 98.678745 
L 141.058084 98.642998 
L 141.983242 96.689675 
L 142.908395 98.802158 
L 143.833556 98.784284 
L 144.758724 98.465965 
L 145.683869 98.822585 
L 146.609028 98.703428 
L 147.534182 98.73577 
L 148.459339 98.758751 
L 149.384497 98.80386 
L 150.309651 98.795349 
L 151.234811 98.869396 
L 152.159963 98.491499 
L 179.91473 98.491499 
L 188.548948 98.828543 
L 189.166282 98.777475 
L 190.091439 98.673639 
L 191.016594 98.680448 
L 191.94175 98.741728 
L 192.866913 98.78854 
L 193.792066 98.759602 
L 194.717222 98.737473 
L 195.642377 98.780029 
L 196.567536 98.780029 
L 197.492695 98.625976 
L 198.417852 98.723855 
L 199.343013 98.664276 
L 200.268162 98.795349 
L 201.193322 98.681299 
L 202.118478 98.613209 
L 203.043636 98.685554 
" clip-path="url(#p1991798205)" style="fill: none; stroke: #ff6b6b; stroke-width: 1.2; stroke-linecap: square"/>
   </g>
   <g id="patch_3">
    <path d="M 35.96 103.4 
L 35.96 5 
" style="fill: none; stroke: var(--fg-color); stroke-width: 0.8; stroke-linejoin: miter; stroke-linecap: square"/>
   </g>
   <g id="patch_4">
    <path d="M 35.96 103.4 
L 211 103.4 
" style="fill: none; stroke: var(--fg-color); stroke-width: 0.8; stroke-linejoin: miter; stroke-linecap: square"/>
   </g>
  </g>
 </g>
 <defs>
  <clipPath id="p1991798205">
   <rect x="35.96" y="5" width="175.04" height="98.4"/>
  </clipPath>
 </defs>
</svg>
