<?xml version="1.0" encoding="utf-8" standalone="no"?>
<!DOCTYPE svg PUBLIC "-//W3C//DTD SVG 1.1//EN"
  "http://www.w3.org/Graphics/SVG/1.1/DTD/svg11.dtd">
<svg xmlns:xlink="http://www.w3.org/1999/xlink" width="216pt" height="122.4pt" viewBox="0 0 216 122.4" xmlns="http://www.w3.org/2000/svg" version="1.1">
  <style>
    :root {
      --fg-color: #212529;
      --grid-color: rgba(33, 37, 41, 0.1);
    }
    @media (prefers-color-scheme: dark) {
      :root {
        --fg-color: #dee2e6;
        --grid-color: rgba(248, 249, 250, 0.15);
      }
    }
  </style>

 <metadata>
  <rdf:RDF xmlns:dc="http://purl.org/dc/elements/1.1/" xmlns:cc="http://creativecommons.org/ns#" xmlns:rdf="http://www.w3.org/1999/02/22-rdf-syntax-ns#">
   <cc:Work>
    <dc:type rdf:resource="http://purl.org/dc/dcmitype/StillImage"/>
    <dc:date>2026-06-30T04:48:55.774949</dc:date>
    <dc:format>image/svg+xml</dc:format>
    <dc:creator>
     <cc:Agent>
      <dc:title>Matplotlib v3.11.0, https://matplotlib.org/</dc:title>
     </cc:Agent>
    </dc:creator>
   </cc:Work>
  </rdf:RDF>
 </metadata>
 <defs>
  <style type="text/css">*{stroke-linejoin: round; stroke-linecap: butt}</style>
 </defs>
 <g id="figure_1">
  <g id="patch_1">
   <path d="M 0 122.4 
L 216 122.4 
L 216 0 
L 0 0 
L 0 122.4 
z
" style="fill: none; opacity: 0"/>
  </g>
  <g id="axes_1">
   <g id="patch_2">
    <path d="M 35.96 103.4 
L 211 103.4 
L 211 5.687345 
L 35.96 5.687345 
L 35.96 103.4 
z
" style="fill: none; opacity: 0"/>
   </g>
   <g id="matplotlib.axis_1">
    <g id="xtick_1">
     <g id="line2d_1">
      <path d="M 70.996911 103.4 
L 70.996911 5.687345 
" clip-path="url(#p53c75eeb68)" style="fill: none; stroke-dasharray: 2.96,1.28; stroke-dashoffset: 0; stroke: var(--grid-color); stroke-width: 0.8"/>
     </g>
     <g id="line2d_2">
      <defs>
       <path id="mdcf68e3268" d="M 0 0 
L 0 3.5 
" style="stroke: var(--fg-color); stroke-width: 0.8"/>
      </defs>
      <g>
       <use xlink:href="#mdcf68e3268" x="70.996911" y="103.4" style="fill: var(--fg-color); stroke: var(--fg-color); stroke-width: 0.8"/>
      </g>
     </g>
     <g id="text_1">
      <text style="font-size: 7px; font-family: 'DejaVu Sans', 'Bitstream Vera Sans', 'Computer Modern Sans Serif', 'Lucida Grande', 'Verdana', 'Geneva', 'Lucid', 'Arial', 'Helvetica', 'Avant Garde', sans-serif; text-anchor: middle; fill: var(--fg-color)" x="70.996911" y="115.718359" transform="rotate(-0 70.996911 115.718359)">02/2026</text>
     </g>
    </g>
    <g id="xtick_2">
     <g id="line2d_3">
      <path d="M 126.022656 103.4 
L 126.022656 5.687345 
" clip-path="url(#p53c75eeb68)" style="fill: none; stroke-dasharray: 2.96,1.28; stroke-dashoffset: 0; stroke: var(--grid-color); stroke-width: 0.8"/>
     </g>
     <g id="line2d_4">
      <g>
       <use xlink:href="#mdcf68e3268" x="126.022656" y="103.4" style="fill: var(--fg-color); stroke: var(--fg-color); stroke-width: 0.8"/>
      </g>
     </g>
     <g id="text_2">
      <text style="font-size: 7px; font-family: 'DejaVu Sans', 'Bitstream Vera Sans', 'Computer Modern Sans Serif', 'Lucida Grande', 'Verdana', 'Geneva', 'Lucid', 'Arial', 'Helvetica', 'Avant Garde', sans-serif; text-anchor: middle; fill: var(--fg-color)" x="126.022656" y="115.718359" transform="rotate(-0 126.022656 115.718359)">04/2026</text>
     </g>
    </g>
    <g id="xtick_3">
     <g id="line2d_5">
      <path d="M 182.913681 103.4 
L 182.913681 5.687345 
" clip-path="url(#p53c75eeb68)" style="fill: none; stroke-dasharray: 2.96,1.28; stroke-dashoffset: 0; stroke: var(--grid-color); stroke-width: 0.8"/>
     </g>
     <g id="line2d_6">
      <g>
       <use xlink:href="#mdcf68e3268" x="182.913681" y="103.4" style="fill: var(--fg-color); stroke: var(--fg-color); stroke-width: 0.8"/>
      </g>
     </g>
     <g id="text_3">
      <text style="font-size: 7px; font-family: 'DejaVu Sans', 'Bitstream Vera Sans', 'Computer Modern Sans Serif', 'Lucida Grande', 'Verdana', 'Geneva', 'Lucid', 'Arial', 'Helvetica', 'Avant Garde', sans-serif; text-anchor: middle; fill: var(--fg-color)" x="182.913681" y="115.718359" transform="rotate(-0 182.913681 115.718359)">06/2026</text>
     </g>
    </g>
   </g>
   <g id="matplotlib.axis_2">
    <g id="ytick_1">
     <g id="line2d_7">
      <path d="M 35.96 99.464514 
L 211 99.464514 
" clip-path="url(#p53c75eeb68)" style="fill: none; stroke-dasharray: 2.96,1.28; stroke-dashoffset: 0; stroke: var(--grid-color); stroke-width: 0.8"/>
     </g>
     <g id="line2d_8">
      <defs>
       <path id="madcac7e233" d="M 0 0 
L -3.5 0 
" style="stroke: var(--fg-color); stroke-width: 0.8"/>
      </defs>
      <g>
       <use xlink:href="#madcac7e233" x="35.96" y="99.464514" style="fill: var(--fg-color); stroke: var(--fg-color); stroke-width: 0.8"/>
      </g>
     </g>
     <g id="text_4">
      <text style="font-size: 7px; font-family: 'DejaVu Sans', 'Bitstream Vera Sans', 'Computer Modern Sans Serif', 'Lucida Grande', 'Verdana', 'Geneva', 'Lucid', 'Arial', 'Helvetica', 'Avant Garde', sans-serif; text-anchor: end; fill: var(--fg-color)" x="28.96" y="102.123694" transform="rotate(-0 28.96 102.123694)">0</text>
     </g>
    </g>
    <g id="ytick_2">
     <g id="line2d_9">
      <path d="M 35.96 81.117945 
L 211 81.117945 
" clip-path="url(#p53c75eeb68)" style="fill: none; stroke-dasharray: 2.96,1.28; stroke-dashoffset: 0; stroke: var(--grid-color); stroke-width: 0.8"/>
     </g>
     <g id="line2d_10">
      <g>
       <use xlink:href="#madcac7e233" x="35.96" y="81.117945" style="fill: var(--fg-color); stroke: var(--fg-color); stroke-width: 0.8"/>
      </g>
     </g>
     <g id="text_5">
      <text style="font-size: 7px; font-family: 'DejaVu Sans', 'Bitstream Vera Sans', 'Computer Modern Sans Serif', 'Lucida Grande', 'Verdana', 'Geneva', 'Lucid', 'Arial', 'Helvetica', 'Avant Garde', sans-serif; text-anchor: end; fill: var(--fg-color)" x="28.96" y="83.777124" transform="rotate(-0 28.96 83.777124)">100</text>
     </g>
    </g>
    <g id="ytick_3">
     <g id="line2d_11">
      <path d="M 35.96 62.771375 
L 211 62.771375 
" clip-path="url(#p53c75eeb68)" style="fill: none; stroke-dasharray: 2.96,1.28; stroke-dashoffset: 0; stroke: var(--grid-color); stroke-width: 0.8"/>
     </g>
     <g id="line2d_12">
      <g>
       <use xlink:href="#madcac7e233" x="35.96" y="62.771375" style="fill: var(--fg-color); stroke: var(--fg-color); stroke-width: 0.8"/>
      </g>
     </g>
     <g id="text_6">
      <text style="font-size: 7px; font-family: 'DejaVu Sans', 'Bitstream Vera Sans', 'Computer Modern Sans Serif', 'Lucida Grande', 'Verdana', 'Geneva', 'Lucid', 'Arial', 'Helvetica', 'Avant Garde', sans-serif; text-anchor: end; fill: var(--fg-color)" x="28.96" y="65.430555" transform="rotate(-0 28.96 65.430555)">200</text>
     </g>
    </g>
    <g id="ytick_4">
     <g id="line2d_13">
      <path d="M 35.96 44.424805 
L 211 44.424805 
" clip-path="url(#p53c75eeb68)" style="fill: none; stroke-dasharray: 2.96,1.28; stroke-dashoffset: 0; stroke: var(--grid-color); stroke-width: 0.8"/>
     </g>
     <g id="line2d_14">
      <g>
       <use xlink:href="#madcac7e233" x="35.96" y="44.424805" style="fill: var(--fg-color); stroke: var(--fg-color); stroke-width: 0.8"/>
      </g>
     </g>
     <g id="text_7">
      <text style="font-size: 7px; font-family: 'DejaVu Sans', 'Bitstream Vera Sans', 'Computer Modern Sans Serif', 'Lucida Grande', 'Verdana', 'Geneva', 'Lucid', 'Arial', 'Helvetica', 'Avant Garde', sans-serif; text-anchor: end; fill: var(--fg-color)" x="28.96" y="47.083985" transform="rotate(-0 28.96 47.083985)">300</text>
     </g>
    </g>
    <g id="ytick_5">
     <g id="line2d_15">
      <path d="M 35.96 26.078236 
L 211 26.078236 
" clip-path="url(#p53c75eeb68)" style="fill: none; stroke-dasharray: 2.96,1.28; stroke-dashoffset: 0; stroke: var(--grid-color); stroke-width: 0.8"/>
     </g>
     <g id="line2d_16">
      <g>
       <use xlink:href="#madcac7e233" x="35.96" y="26.078236" style="fill: var(--fg-color); stroke: var(--fg-color); stroke-width: 0.8"/>
      </g>
     </g>
     <g id="text_8">
      <text style="font-size: 7px; font-family: 'DejaVu Sans', 'Bitstream Vera Sans', 'Computer Modern Sans Serif', 'Lucida Grande', 'Verdana', 'Geneva', 'Lucid', 'Arial', 'Helvetica', 'Avant Garde', sans-serif; text-anchor: end; fill: var(--fg-color)" x="28.96" y="28.737416" transform="rotate(-0 28.96 28.737416)">400</text>
     </g>
    </g>
    <g id="ytick_6">
     <g id="line2d_17">
      <path d="M 35.96 7.731666 
L 211 7.731666 
" clip-path="url(#p53c75eeb68)" style="fill: none; stroke-dasharray: 2.96,1.28; stroke-dashoffset: 0; stroke: var(--grid-color); stroke-width: 0.8"/>
     </g>
     <g id="line2d_18">
      <g>
       <use xlink:href="#madcac7e233" x="35.96" y="7.731666" style="fill: var(--fg-color); stroke: var(--fg-color); stroke-width: 0.8"/>
      </g>
     </g>
     <g id="text_9">
      <text style="font-size: 7px; font-family: 'DejaVu Sans', 'Bitstream Vera Sans', 'Computer Modern Sans Serif', 'Lucida Grande', 'Verdana', 'Geneva', 'Lucid', 'Arial', 'Helvetica', 'Avant Garde', sans-serif; text-anchor: end; fill: var(--fg-color)" x="28.96" y="10.390846" transform="rotate(-0 28.96 10.390846)">500</text>
     </g>
    </g>
    <g id="text_10">
     <text style="font-size: 7px; font-family: 'DejaVu Sans', 'Bitstream Vera Sans', 'Computer Modern Sans Serif', 'Lucida Grande', 'Verdana', 'Geneva', 'Lucid', 'Arial', 'Helvetica', 'Avant Garde', sans-serif; text-anchor: middle; fill: var(--fg-color)" x="9.917109" y="54.543672" transform="rotate(-90 9.917109 54.543672)">ms</text>
    </g>
   </g>
   <g id="line2d_19">
    <path d="M 43.916364 41.399273 
L 44.494523 47.586286 
L 45.427166 47.053869 
L 46.359808 43.138161 
L 47.292453 39.766795 
L 48.22509 50.632184 
L 49.157727 49.252155 
L 50.090359 43.362906 
L 51.023007 55.104711 
L 51.95565 49.420026 
L 52.88829 36.955734 
L 53.82093 48.531135 
L 54.753566 44.29271 
L 55.686208 51.852598 
L 56.618849 46.888383 
L 57.551483 42.492545 
L 58.484126 33.728205 
L 59.416765 47.355486 
L 60.349406 46.68602 
L 61.282045 44.710278 
L 62.214684 45.316082 
L 63.147327 26.687892 
L 64.07996 53.117777 
L 65.012598 40.729072 
L 65.945245 30.249145 
L 66.877884 48.776061 
L 67.810526 42.440441 
L 68.743162 44.933739 
L 69.675784 29.056435 
L 70.608443 35.061083 
L 71.541078 48.51554 
L 72.473724 38.856438 
L 73.406361 32.269102 
L 74.339003 56.093407 
L 75.271637 44.486633 
L 76.204286 44.878883 
L 77.136912 48.000001 
L 78.069558 36.725301 
L 79.002199 42.021588 
L 79.934841 28.930577 
L 80.867465 46.341839 
L 81.800118 32.700981 
L 82.732742 39.375463 
L 83.665398 51.896813 
L 84.598038 38.213024 
L 85.53068 39.333632 
L 86.463316 41.555952 
L 87.395962 46.055082 
L 96.913595 36.46533 
L 97.655282 47.133676 
L 98.587939 34.853033 
L 99.520578 34.485735 
L 100.453222 41.904904 
L 101.385859 43.272824 
L 102.318497 41.866193 
L 103.251135 49.791544 
L 104.183773 49.886029 
L 105.116412 47.097167 
L 106.049054 47.505011 
L 106.981691 46.180022 
L 107.914333 43.800288 
L 108.846974 43.700116 
L 109.779613 52.35988 
L 110.71225 51.006821 
L 111.644893 42.118458 
L 112.57753 41.845828 
L 113.510173 48.809819 
L 114.442814 35.767793 
L 115.37545 31.554503 
L 116.308095 43.702501 
L 117.240726 33.083323 
L 118.173367 46.050678 
L 119.106014 41.046285 
L 120.038653 22.359019 
L 120.971293 36.47964 
L 121.903926 44.431777 
L 122.836569 47.182845 
L 123.769209 36.235814 
L 124.701847 40.042544 
L 125.634489 42.528321 
L 129.365046 49.948407 
L 130.297692 48.323268 
L 131.230328 32.936184 
L 132.162968 41.878118 
L 133.095609 37.631071 
L 134.028248 33.577947 
L 134.960891 32.500269 
L 135.893512 31.89153 
L 136.826165 36.158575 
L 137.75881 41.393402 
L 138.691446 37.000683 
L 139.624089 33.312472 
L 140.556726 29.961287 
L 141.489366 28.032696 
L 142.422003 51.821592 
L 143.354646 16.643696 
L 144.287298 27.250031 
L 145.219926 43.576093 
L 146.152567 46.937919 
L 147.085204 41.285707 
L 148.017844 36.433774 
L 148.950485 34.42831 
L 149.883123 45.037214 
L 150.815765 38.936246 
L 151.7484 27.06308 
L 179.727656 27.06308 
L 188.43171 48.046235 
L 189.054038 44.83265 
L 189.986678 27.318464 
L 190.919315 38.718105 
L 191.851955 42.221199 
L 192.7846 33.302565 
L 193.717237 42.4764 
L 194.649875 20.21137 
L 195.582513 23.218923 
L 196.515156 38.295767 
L 197.447798 27.976739 
L 198.380437 35.098877 
L 199.313081 42.991205 
L 200.245713 44.450491 
L 201.178356 45.435885 
L 202.110995 40.247475 
L 203.043636 10.128829 
" clip-path="url(#p53c75eeb68)" style="fill: none; stroke: #339af0; stroke-width: 1.2; stroke-linecap: square"/>
   </g>
   <g id="line2d_20">
    <path d="M 43.916364 98.823301 
L 44.494523 98.912282 
L 45.427166 98.875222 
L 46.359808 98.870636 
L 47.292453 98.854124 
L 48.22509 98.919988 
L 49.157727 98.855408 
L 50.090359 98.905494 
L 51.023007 98.925308 
L 51.95565 98.881827 
L 52.88829 98.747163 
L 53.82093 98.892468 
L 54.753566 98.921272 
L 55.686208 98.915952 
L 56.618849 98.887514 
L 57.551483 98.930996 
L 58.484126 98.860545 
L 59.416765 98.867884 
L 60.349406 98.881093 
L 61.282045 98.869168 
L 62.214684 98.90843 
L 63.147327 98.857976 
L 64.07996 98.936683 
L 65.012598 98.757804 
L 65.945245 98.875956 
L 66.877884 98.909347 
L 67.810526 98.883111 
L 68.743162 98.912099 
L 69.675784 98.903843 
L 70.608443 98.788993 
L 71.541078 98.908796 
L 72.473724 98.875039 
L 73.406361 98.89944 
L 74.339003 98.811927 
L 75.271637 98.907512 
L 76.204286 98.904393 
L 77.136912 98.919071 
L 78.069558 98.899073 
L 79.002199 98.854674 
L 79.934841 98.8899 
L 80.867465 98.910815 
L 81.800118 98.927327 
L 82.732742 98.875773 
L 83.665398 98.886414 
L 84.598038 98.906228 
L 85.53068 98.909163 
L 86.463316 98.843116 
L 87.395962 98.891918 
L 96.913595 98.775417 
L 97.655282 98.921089 
L 98.587939 98.862013 
L 99.520578 98.831557 
L 100.453222 98.869718 
L 101.385859 98.89467 
L 102.318497 98.920355 
L 103.251135 98.958516 
L 104.183773 98.939252 
L 105.116412 98.919437 
L 106.049054 98.893936 
L 106.981691 98.618921 
L 107.914333 98.88201 
L 108.846974 98.898706 
L 109.779613 98.902192 
L 110.71225 98.904026 
L 111.644893 98.888982 
L 112.57753 98.837612 
L 113.510173 98.88146 
L 114.442814 98.902008 
L 115.37545 98.941637 
L 116.308095 98.916502 
L 117.240726 98.873571 
L 118.173367 98.891734 
L 119.106014 98.922373 
L 120.038653 98.871553 
L 120.971293 98.915952 
L 121.903926 98.536728 
L 122.836569 98.858527 
L 123.769209 98.877974 
L 124.701847 98.89045 
L 125.634489 98.915218 
L 129.365046 98.896504 
L 130.297692 98.916685 
L 131.230328 98.853573 
L 132.162968 98.873021 
L 133.095609 98.870085 
L 134.028248 98.88623 
L 134.960891 98.841098 
L 135.893512 98.882744 
L 136.826165 98.907696 
L 137.75881 98.833209 
L 138.691446 98.852106 
L 139.624089 98.871736 
L 140.556726 98.8444 
L 141.489366 98.891 
L 142.422003 98.916502 
L 143.354646 98.833209 
L 144.287298 98.840914 
L 145.219926 98.877424 
L 146.152567 98.896688 
L 147.085204 98.878892 
L 148.017844 98.862196 
L 148.950485 98.905861 
L 149.883123 98.721661 
L 150.815765 98.481688 
L 151.7484 98.478569 
L 179.727656 98.478569 
L 188.43171 98.890083 
L 189.054038 98.903476 
L 189.986678 98.78404 
L 190.919315 98.817981 
L 191.851955 98.885863 
L 192.7846 98.821467 
L 193.717237 98.804038 
L 194.649875 98.846051 
L 195.582513 98.90843 
L 196.515156 98.833942 
L 197.447798 98.894486 
L 198.380437 98.792296 
L 199.313081 98.874305 
L 200.245713 98.691206 
L 201.178356 98.872654 
L 202.110995 98.88201 
L 203.043636 98.695426 
" clip-path="url(#p53c75eeb68)" style="fill: none; stroke: #ff6b6b; stroke-width: 1.2; stroke-linecap: square"/>
   </g>
   <g id="patch_3">
    <path d="M 35.96 103.4 
L 35.96 5.687345 
" style="fill: none; stroke: var(--fg-color); stroke-width: 0.8; stroke-linejoin: miter; stroke-linecap: square"/>
   </g>
   <g id="patch_4">
    <path d="M 35.96 103.4 
L 211 103.4 
" style="fill: none; stroke: var(--fg-color); stroke-width: 0.8; stroke-linejoin: miter; stroke-linecap: square"/>
   </g>
  </g>
 </g>
 <defs>
  <clipPath id="p53c75eeb68">
   <rect x="35.96" y="5.687345" width="175.04" height="97.712655"/>
  </clipPath>
 </defs>
</svg>
