<?xml version="1.0" encoding="utf-8" standalone="no"?>
<!DOCTYPE svg PUBLIC "-//W3C//DTD SVG 1.1//EN"
  "http://www.w3.org/Graphics/SVG/1.1/DTD/svg11.dtd">
<svg xmlns:xlink="http://www.w3.org/1999/xlink" width="216pt" height="122.4pt" viewBox="0 0 216 122.4" xmlns="http://www.w3.org/2000/svg" version="1.1">
  <style>
    :root {
      --fg-color: #212529;
      --grid-color: rgba(33, 37, 41, 0.1);
    }
    @media (prefers-color-scheme: dark) {
      :root {
        --fg-color: #dee2e6;
        --grid-color: rgba(248, 249, 250, 0.15);
      }
    }
  </style>

 <metadata>
  <rdf:RDF xmlns:dc="http://purl.org/dc/elements/1.1/" xmlns:cc="http://creativecommons.org/ns#" xmlns:rdf="http://www.w3.org/1999/02/22-rdf-syntax-ns#">
   <cc:Work>
    <dc:type rdf:resource="http://purl.org/dc/dcmitype/StillImage"/>
    <dc:date>2026-06-30T15:37:43.667794</dc:date>
    <dc:format>image/svg+xml</dc:format>
    <dc:creator>
     <cc:Agent>
      <dc:title>Matplotlib v3.11.0, https://matplotlib.org/</dc:title>
     </cc:Agent>
    </dc:creator>
   </cc:Work>
  </rdf:RDF>
 </metadata>
 <defs>
  <style type="text/css">*{stroke-linejoin: round; stroke-linecap: butt}</style>
 </defs>
 <g id="figure_1">
  <g id="patch_1">
   <path d="M 0 122.4 
L 216 122.4 
L 216 0 
L 0 0 
L 0 122.4 
z
" style="fill: none; opacity: 0"/>
  </g>
  <g id="axes_1">
   <g id="patch_2">
    <path d="M 35.96 103.4 
L 211 103.4 
L 211 5 
L 35.96 5 
L 35.96 103.4 
z
" style="fill: none; opacity: 0"/>
   </g>
   <g id="matplotlib.axis_1">
    <g id="xtick_1">
     <g id="line2d_1">
      <path d="M 69.784035 103.4 
L 69.784035 5 
" clip-path="url(#p64819cde96)" style="fill: none; stroke-dasharray: 2.96,1.28; stroke-dashoffset: 0; stroke: var(--grid-color); stroke-width: 0.8"/>
     </g>
     <g id="line2d_2">
      <defs>
       <path id="m7fc6f11793" d="M 0 0 
L 0 3.5 
" style="stroke: var(--fg-color); stroke-width: 0.8"/>
      </defs>
      <g>
       <use xlink:href="#m7fc6f11793" x="69.784035" y="103.4" style="fill: var(--fg-color); stroke: var(--fg-color); stroke-width: 0.8"/>
      </g>
     </g>
     <g id="text_1">
      <text style="font-size: 7px; font-family: 'DejaVu Sans', 'Bitstream Vera Sans', 'Computer Modern Sans Serif', 'Lucida Grande', 'Verdana', 'Geneva', 'Lucid', 'Arial', 'Helvetica', 'Avant Garde', sans-serif; text-anchor: middle; fill: var(--fg-color)" x="69.784035" y="115.718359" transform="rotate(-0 69.784035 115.718359)">02/2026</text>
     </g>
    </g>
    <g id="xtick_2">
     <g id="line2d_3">
      <path d="M 122.345302 103.4 
L 122.345302 5 
" clip-path="url(#p64819cde96)" style="fill: none; stroke-dasharray: 2.96,1.28; stroke-dashoffset: 0; stroke: var(--grid-color); stroke-width: 0.8"/>
     </g>
     <g id="line2d_4">
      <g>
       <use xlink:href="#m7fc6f11793" x="122.345302" y="103.4" style="fill: var(--fg-color); stroke: var(--fg-color); stroke-width: 0.8"/>
      </g>
     </g>
     <g id="text_2">
      <text style="font-size: 7px; font-family: 'DejaVu Sans', 'Bitstream Vera Sans', 'Computer Modern Sans Serif', 'Lucida Grande', 'Verdana', 'Geneva', 'Lucid', 'Arial', 'Helvetica', 'Avant Garde', sans-serif; text-anchor: middle; fill: var(--fg-color)" x="122.345302" y="115.718359" transform="rotate(-0 122.345302 115.718359)">04/2026</text>
     </g>
    </g>
    <g id="xtick_3">
     <g id="line2d_5">
      <path d="M 176.688307 103.4 
L 176.688307 5 
" clip-path="url(#p64819cde96)" style="fill: none; stroke-dasharray: 2.96,1.28; stroke-dashoffset: 0; stroke: var(--grid-color); stroke-width: 0.8"/>
     </g>
     <g id="line2d_6">
      <g>
       <use xlink:href="#m7fc6f11793" x="176.688307" y="103.4" style="fill: var(--fg-color); stroke: var(--fg-color); stroke-width: 0.8"/>
      </g>
     </g>
     <g id="text_3">
      <text style="font-size: 7px; font-family: 'DejaVu Sans', 'Bitstream Vera Sans', 'Computer Modern Sans Serif', 'Lucida Grande', 'Verdana', 'Geneva', 'Lucid', 'Arial', 'Helvetica', 'Avant Garde', sans-serif; text-anchor: middle; fill: var(--fg-color)" x="176.688307" y="115.718359" transform="rotate(-0 176.688307 115.718359)">06/2026</text>
     </g>
    </g>
   </g>
   <g id="matplotlib.axis_2">
    <g id="ytick_1">
     <g id="line2d_7">
      <path d="M 35.96 100.148444 
L 211 100.148444 
" clip-path="url(#p64819cde96)" style="fill: none; stroke-dasharray: 2.96,1.28; stroke-dashoffset: 0; stroke: var(--grid-color); stroke-width: 0.8"/>
     </g>
     <g id="line2d_8">
      <defs>
       <path id="m6f66ccb7b8" d="M 0 0 
L -3.5 0 
" style="stroke: var(--fg-color); stroke-width: 0.8"/>
      </defs>
      <g>
       <use xlink:href="#m6f66ccb7b8" x="35.96" y="100.148444" style="fill: var(--fg-color); stroke: var(--fg-color); stroke-width: 0.8"/>
      </g>
     </g>
     <g id="text_4">
      <text style="font-size: 7px; font-family: 'DejaVu Sans', 'Bitstream Vera Sans', 'Computer Modern Sans Serif', 'Lucida Grande', 'Verdana', 'Geneva', 'Lucid', 'Arial', 'Helvetica', 'Avant Garde', sans-serif; text-anchor: end; fill: var(--fg-color)" x="28.96" y="102.807623" transform="rotate(-0 28.96 102.807623)">0</text>
     </g>
    </g>
    <g id="ytick_2">
     <g id="line2d_9">
      <path d="M 35.96 83.708341 
L 211 83.708341 
" clip-path="url(#p64819cde96)" style="fill: none; stroke-dasharray: 2.96,1.28; stroke-dashoffset: 0; stroke: var(--grid-color); stroke-width: 0.8"/>
     </g>
     <g id="line2d_10">
      <g>
       <use xlink:href="#m6f66ccb7b8" x="35.96" y="83.708341" style="fill: var(--fg-color); stroke: var(--fg-color); stroke-width: 0.8"/>
      </g>
     </g>
     <g id="text_5">
      <text style="font-size: 7px; font-family: 'DejaVu Sans', 'Bitstream Vera Sans', 'Computer Modern Sans Serif', 'Lucida Grande', 'Verdana', 'Geneva', 'Lucid', 'Arial', 'Helvetica', 'Avant Garde', sans-serif; text-anchor: end; fill: var(--fg-color)" x="28.96" y="86.36752" transform="rotate(-0 28.96 86.36752)">25</text>
     </g>
    </g>
    <g id="ytick_3">
     <g id="line2d_11">
      <path d="M 35.96 67.268238 
L 211 67.268238 
" clip-path="url(#p64819cde96)" style="fill: none; stroke-dasharray: 2.96,1.28; stroke-dashoffset: 0; stroke: var(--grid-color); stroke-width: 0.8"/>
     </g>
     <g id="line2d_12">
      <g>
       <use xlink:href="#m6f66ccb7b8" x="35.96" y="67.268238" style="fill: var(--fg-color); stroke: var(--fg-color); stroke-width: 0.8"/>
      </g>
     </g>
     <g id="text_6">
      <text style="font-size: 7px; font-family: 'DejaVu Sans', 'Bitstream Vera Sans', 'Computer Modern Sans Serif', 'Lucida Grande', 'Verdana', 'Geneva', 'Lucid', 'Arial', 'Helvetica', 'Avant Garde', sans-serif; text-anchor: end; fill: var(--fg-color)" x="28.96" y="69.927417" transform="rotate(-0 28.96 69.927417)">50</text>
     </g>
    </g>
    <g id="ytick_4">
     <g id="line2d_13">
      <path d="M 35.96 50.828135 
L 211 50.828135 
" clip-path="url(#p64819cde96)" style="fill: none; stroke-dasharray: 2.96,1.28; stroke-dashoffset: 0; stroke: var(--grid-color); stroke-width: 0.8"/>
     </g>
     <g id="line2d_14">
      <g>
       <use xlink:href="#m6f66ccb7b8" x="35.96" y="50.828135" style="fill: var(--fg-color); stroke: var(--fg-color); stroke-width: 0.8"/>
      </g>
     </g>
     <g id="text_7">
      <text style="font-size: 7px; font-family: 'DejaVu Sans', 'Bitstream Vera Sans', 'Computer Modern Sans Serif', 'Lucida Grande', 'Verdana', 'Geneva', 'Lucid', 'Arial', 'Helvetica', 'Avant Garde', sans-serif; text-anchor: end; fill: var(--fg-color)" x="28.96" y="53.487315" transform="rotate(-0 28.96 53.487315)">75</text>
     </g>
    </g>
    <g id="ytick_5">
     <g id="line2d_15">
      <path d="M 35.96 34.388032 
L 211 34.388032 
" clip-path="url(#p64819cde96)" style="fill: none; stroke-dasharray: 2.96,1.28; stroke-dashoffset: 0; stroke: var(--grid-color); stroke-width: 0.8"/>
     </g>
     <g id="line2d_16">
      <g>
       <use xlink:href="#m6f66ccb7b8" x="35.96" y="34.388032" style="fill: var(--fg-color); stroke: var(--fg-color); stroke-width: 0.8"/>
      </g>
     </g>
     <g id="text_8">
      <text style="font-size: 7px; font-family: 'DejaVu Sans', 'Bitstream Vera Sans', 'Computer Modern Sans Serif', 'Lucida Grande', 'Verdana', 'Geneva', 'Lucid', 'Arial', 'Helvetica', 'Avant Garde', sans-serif; text-anchor: end; fill: var(--fg-color)" x="28.96" y="37.047212" transform="rotate(-0 28.96 37.047212)">100</text>
     </g>
    </g>
    <g id="ytick_6">
     <g id="line2d_17">
      <path d="M 35.96 17.947929 
L 211 17.947929 
" clip-path="url(#p64819cde96)" style="fill: none; stroke-dasharray: 2.96,1.28; stroke-dashoffset: 0; stroke: var(--grid-color); stroke-width: 0.8"/>
     </g>
     <g id="line2d_18">
      <g>
       <use xlink:href="#m6f66ccb7b8" x="35.96" y="17.947929" style="fill: var(--fg-color); stroke: var(--fg-color); stroke-width: 0.8"/>
      </g>
     </g>
     <g id="text_9">
      <text style="font-size: 7px; font-family: 'DejaVu Sans', 'Bitstream Vera Sans', 'Computer Modern Sans Serif', 'Lucida Grande', 'Verdana', 'Geneva', 'Lucid', 'Arial', 'Helvetica', 'Avant Garde', sans-serif; text-anchor: end; fill: var(--fg-color)" x="28.96" y="20.607109" transform="rotate(-0 28.96 20.607109)">125</text>
     </g>
    </g>
    <g id="text_10">
     <text style="font-size: 7px; font-family: 'DejaVu Sans', 'Bitstream Vera Sans', 'Computer Modern Sans Serif', 'Lucida Grande', 'Verdana', 'Geneva', 'Lucid', 'Arial', 'Helvetica', 'Avant Garde', sans-serif; text-anchor: middle; fill: var(--fg-color)" x="9.917109" y="54.2" transform="rotate(-90 9.917109 54.2)">ms</text>
    </g>
   </g>
   <g id="line2d_19">
    <path d="M 43.916364 44.874845 
L 44.468628 45.085936 
L 45.3595 47.586147 
L 47.141245 44.815003 
L 48.032112 41.559205 
L 48.922979 45.190495 
L 49.81384 46.411008 
L 50.704717 41.374418 
L 51.595589 44.453978 
L 52.486458 42.750126 
L 53.377327 43.917373 
L 54.268192 47.506577 
L 55.159063 43.23215 
L 56.049934 44.43425 
L 56.940797 40.801645 
L 57.831669 46.488605 
L 58.722538 44.742009 
L 59.613407 46.631305 
L 60.504275 41.444782 
L 61.395144 44.017329 
L 62.286016 43.115096 
L 63.176879 45.122762 
L 64.067746 43.18809 
L 64.958622 43.80032 
L 66.740361 43.238726 
L 67.631226 41.972838 
L 68.522078 43.103917 
L 69.412965 41.284984 
L 70.30383 41.683492 
L 71.194705 42.4279 
L 72.085571 45.292423 
L 72.976442 45.321358 
L 73.867306 42.295721 
L 74.758184 42.869152 
L 75.649039 40.676043 
L 76.539914 39.440404 
L 77.430784 45.312152 
L 78.321655 40.581348 
L 79.212509 39.575213 
L 80.103391 19.602461 
L 80.994245 43.702994 
L 81.885129 48.078692 
L 82.775998 42.193793 
L 83.666869 42.321368 
L 84.557735 42.947407 
L 85.44861 45.46077 
L 94.53997 12.310947 
L 95.248438 28.967401 
L 96.139324 18.560159 
L 97.030192 9.472727 
L 97.921065 44.32443 
L 98.811931 44.039688 
L 99.702798 43.570158 
L 100.593666 43.787825 
L 101.484533 47.108726 
L 102.375401 36.907971 
L 103.266272 43.743108 
L 104.157138 37.806916 
L 105.048009 40.200595 
L 105.93888 43.34197 
L 106.829748 43.240041 
L 107.720614 42.545611 
L 108.611487 41.26131 
L 109.502352 42.429873 
L 110.393224 42.153679 
L 111.284094 44.306017 
L 112.17496 36.965183 
L 113.065834 42.506155 
L 113.956695 45.053056 
L 114.847564 45.485101 
L 115.738441 47.257345 
L 116.629309 39.371356 
L 117.520178 37.929888 
L 118.41104 43.953541 
L 119.301913 41.155436 
L 120.192782 37.730634 
L 121.083649 39.661359 
L 121.97452 45.022148 
L 125.537994 40.672755 
L 126.428869 40.540576 
L 127.319734 37.40512 
L 128.210603 39.102396 
L 129.101474 35.993244 
L 129.992342 38.570394 
L 130.883214 40.472185 
L 131.774065 44.591417 
L 133.55582 36.327307 
L 134.446686 37.411038 
L 135.337558 39.314802 
L 136.228424 40.018438 
L 137.119294 37.883198 
L 138.010159 43.747054 
L 138.901032 38.259347 
L 139.791912 39.905988 
L 140.68277 15.218872 
L 141.57364 40.903574 
L 142.464507 37.236773 
L 143.355376 38.215288 
L 144.246246 37.32818 
L 145.137113 41.121241 
L 146.027984 33.954671 
L 146.918849 35.835419 
L 173.644977 35.835419 
L 181.959197 37.002666 
L 182.553652 35.538182 
L 183.444521 39.33453 
L 184.335387 36.197759 
L 185.226256 43.172965 
L 186.117131 42.806022 
L 187.007996 44.307332 
L 187.898864 42.766566 
L 188.789731 40.996296 
L 189.680603 35.763082 
L 190.571474 42.132636 
L 191.462343 38.834751 
L 192.353215 38.929446 
L 193.244077 41.617732 
L 194.134949 37.449837 
L 195.025817 39.08201 
L 195.916688 41.897871 
L 196.807557 39.920455 
L 197.698426 44.986638 
L 198.589295 41.706508 
L 199.480162 43.585283 
L 200.371032 47.872862 
L 201.261898 44.046264 
L 202.152766 37.010557 
L 203.043636 42.162228 
L 203.043636 42.162228 
" clip-path="url(#p64819cde96)" style="fill: none; stroke: #339af0; stroke-width: 1.2; stroke-linecap: square"/>
   </g>
   <g id="line2d_20">
    <path d="M 43.916364 98.799698 
L 46.250371 98.83192 
L 49.81384 98.68659 
L 51.595589 98.822714 
L 52.486458 98.687905 
L 54.268192 98.836523 
L 56.940797 98.766817 
L 57.831669 98.88124 
L 58.722538 98.797067 
L 60.504275 98.801013 
L 67.631226 98.707633 
L 68.522078 98.781285 
L 69.412965 98.703687 
L 70.30383 98.771421 
L 71.194705 98.222321 
L 72.085571 98.781942 
L 74.758184 98.808904 
L 80.103391 98.788518 
L 80.994245 97.883655 
L 81.885129 98.89505 
L 82.775998 98.761556 
L 84.557735 98.804958 
L 85.44861 97.652178 
L 95.248438 98.862828 
L 97.030192 98.804301 
L 99.702798 98.863485 
L 100.593666 98.766817 
L 101.484533 98.804301 
L 102.375401 98.649106 
L 103.266272 98.837839 
L 104.157138 98.672122 
L 105.048009 98.844415 
L 109.502352 98.760899 
L 115.738441 98.836523 
L 116.629309 98.16511 
L 117.520178 98.750377 
L 119.301913 98.681329 
L 121.083649 98.640557 
L 121.97452 98.751692 
L 125.537994 98.647791 
L 126.428869 98.500488 
L 127.319734 98.699742 
L 128.210603 98.521531 
L 129.101474 98.094746 
L 129.992342 98.637269 
L 130.883214 98.62609 
L 131.774065 98.739856 
L 134.446686 98.597155 
L 140.68277 98.670807 
L 141.57364 98.79641 
L 142.464507 98.613596 
L 144.246246 98.544547 
L 145.137113 98.666861 
L 146.027984 98.647791 
L 146.918849 98.507721 
L 182.553652 98.557042 
L 183.444521 97.943497 
L 184.335387 98.649106 
L 186.117131 98.696454 
L 187.898864 98.762214 
L 188.789731 98.07173 
L 189.680603 98.626748 
L 190.571474 98.716182 
L 192.353215 98.568221 
L 193.244077 98.725388 
L 195.025817 98.651737 
L 196.807557 98.715524 
L 197.698426 98.539286 
L 203.043636 98.637269 
L 203.043636 98.637269 
" clip-path="url(#p64819cde96)" style="fill: none; stroke: #ff6b6b; stroke-width: 1.2; stroke-linecap: square"/>
   </g>
   <g id="patch_3">
    <path d="M 35.96 103.4 
L 35.96 5 
" style="fill: none; stroke: var(--fg-color); stroke-width: 0.8; stroke-linejoin: miter; stroke-linecap: square"/>
   </g>
   <g id="patch_4">
    <path d="M 35.96 103.4 
L 211 103.4 
" style="fill: none; stroke: var(--fg-color); stroke-width: 0.8; stroke-linejoin: miter; stroke-linecap: square"/>
   </g>
  </g>
 </g>
 <defs>
  <clipPath id="p64819cde96">
   <rect x="35.96" y="5" width="175.04" height="98.4"/>
  </clipPath>
 </defs>
</svg>
