<?xml version="1.0" encoding="utf-8" standalone="no"?>
<!DOCTYPE svg PUBLIC "-//W3C//DTD SVG 1.1//EN"
  "http://www.w3.org/Graphics/SVG/1.1/DTD/svg11.dtd">
<svg xmlns:xlink="http://www.w3.org/1999/xlink" width="216pt" height="122.4pt" viewBox="0 0 216 122.4" xmlns="http://www.w3.org/2000/svg" version="1.1">
  <style>
    :root {
      --fg-color: #212529;
      --grid-color: rgba(33, 37, 41, 0.1);
    }
    @media (prefers-color-scheme: dark) {
      :root {
        --fg-color: #dee2e6;
        --grid-color: rgba(248, 249, 250, 0.15);
      }
    }
  </style>

 <metadata>
  <rdf:RDF xmlns:dc="http://purl.org/dc/elements/1.1/" xmlns:cc="http://creativecommons.org/ns#" xmlns:rdf="http://www.w3.org/1999/02/22-rdf-syntax-ns#">
   <cc:Work>
    <dc:type rdf:resource="http://purl.org/dc/dcmitype/StillImage"/>
    <dc:date>2026-06-30T04:48:34.003940</dc:date>
    <dc:format>image/svg+xml</dc:format>
    <dc:creator>
     <cc:Agent>
      <dc:title>Matplotlib v3.11.0, https://matplotlib.org/</dc:title>
     </cc:Agent>
    </dc:creator>
   </cc:Work>
  </rdf:RDF>
 </metadata>
 <defs>
  <style type="text/css">*{stroke-linejoin: round; stroke-linecap: butt}</style>
 </defs>
 <g id="figure_1">
  <g id="patch_1">
   <path d="M 0 122.4 
L 216 122.4 
L 216 0 
L 0 0 
L 0 122.4 
z
" style="fill: none; opacity: 0"/>
  </g>
  <g id="axes_1">
   <g id="patch_2">
    <path d="M 35.96 103.4 
L 211 103.4 
L 211 5 
L 35.96 5 
L 35.96 103.4 
z
" style="fill: none; opacity: 0"/>
   </g>
   <g id="matplotlib.axis_1">
    <g id="xtick_1">
     <g id="line2d_1">
      <path d="M 72.056377 103.4 
L 72.056377 5 
" clip-path="url(#p1c91e37d08)" style="fill: none; stroke-dasharray: 2.96,1.28; stroke-dashoffset: 0; stroke: var(--grid-color); stroke-width: 0.8"/>
     </g>
     <g id="line2d_2">
      <defs>
       <path id="m602dd36159" d="M 0 0 
L 0 3.5 
" style="stroke: var(--fg-color); stroke-width: 0.8"/>
      </defs>
      <g>
       <use xlink:href="#m602dd36159" x="72.056377" y="103.4" style="fill: var(--fg-color); stroke: var(--fg-color); stroke-width: 0.8"/>
      </g>
     </g>
     <g id="text_1">
      <text style="font-size: 7px; font-family: 'DejaVu Sans', 'Bitstream Vera Sans', 'Computer Modern Sans Serif', 'Lucida Grande', 'Verdana', 'Geneva', 'Lucid', 'Arial', 'Helvetica', 'Avant Garde', sans-serif; text-anchor: middle; fill: var(--fg-color)" x="72.056377" y="115.718359" transform="rotate(-0 72.056377 115.718359)">02/2026</text>
     </g>
    </g>
    <g id="xtick_2">
     <g id="line2d_3">
      <path d="M 126.640628 103.4 
L 126.640628 5 
" clip-path="url(#p1c91e37d08)" style="fill: none; stroke-dasharray: 2.96,1.28; stroke-dashoffset: 0; stroke: var(--grid-color); stroke-width: 0.8"/>
     </g>
     <g id="line2d_4">
      <g>
       <use xlink:href="#m602dd36159" x="126.640628" y="103.4" style="fill: var(--fg-color); stroke: var(--fg-color); stroke-width: 0.8"/>
      </g>
     </g>
     <g id="text_2">
      <text style="font-size: 7px; font-family: 'DejaVu Sans', 'Bitstream Vera Sans', 'Computer Modern Sans Serif', 'Lucida Grande', 'Verdana', 'Geneva', 'Lucid', 'Arial', 'Helvetica', 'Avant Garde', sans-serif; text-anchor: middle; fill: var(--fg-color)" x="126.640628" y="115.718359" transform="rotate(-0 126.640628 115.718359)">04/2026</text>
     </g>
    </g>
    <g id="xtick_3">
     <g id="line2d_5">
      <path d="M 183.075192 103.4 
L 183.075192 5 
" clip-path="url(#p1c91e37d08)" style="fill: none; stroke-dasharray: 2.96,1.28; stroke-dashoffset: 0; stroke: var(--grid-color); stroke-width: 0.8"/>
     </g>
     <g id="line2d_6">
      <g>
       <use xlink:href="#m602dd36159" x="183.075192" y="103.4" style="fill: var(--fg-color); stroke: var(--fg-color); stroke-width: 0.8"/>
      </g>
     </g>
     <g id="text_3">
      <text style="font-size: 7px; font-family: 'DejaVu Sans', 'Bitstream Vera Sans', 'Computer Modern Sans Serif', 'Lucida Grande', 'Verdana', 'Geneva', 'Lucid', 'Arial', 'Helvetica', 'Avant Garde', sans-serif; text-anchor: middle; fill: var(--fg-color)" x="183.075192" y="115.718359" transform="rotate(-0 183.075192 115.718359)">06/2026</text>
     </g>
    </g>
   </g>
   <g id="matplotlib.axis_2">
    <g id="ytick_1">
     <g id="line2d_7">
      <path d="M 35.96 91.843307 
L 211 91.843307 
" clip-path="url(#p1c91e37d08)" style="fill: none; stroke-dasharray: 2.96,1.28; stroke-dashoffset: 0; stroke: var(--grid-color); stroke-width: 0.8"/>
     </g>
     <g id="line2d_8">
      <defs>
       <path id="mf5b4005d48" d="M 0 0 
L -3.5 0 
" style="stroke: var(--fg-color); stroke-width: 0.8"/>
      </defs>
      <g>
       <use xlink:href="#mf5b4005d48" x="35.96" y="91.843307" style="fill: var(--fg-color); stroke: var(--fg-color); stroke-width: 0.8"/>
      </g>
     </g>
     <g id="text_4">
      <text style="font-size: 7px; font-family: 'DejaVu Sans', 'Bitstream Vera Sans', 'Computer Modern Sans Serif', 'Lucida Grande', 'Verdana', 'Geneva', 'Lucid', 'Arial', 'Helvetica', 'Avant Garde', sans-serif; text-anchor: end; fill: var(--fg-color)" x="28.96" y="94.502487" transform="rotate(-0 28.96 94.502487)">20</text>
     </g>
    </g>
    <g id="ytick_2">
     <g id="line2d_9">
      <path d="M 35.96 77.741653 
L 211 77.741653 
" clip-path="url(#p1c91e37d08)" style="fill: none; stroke-dasharray: 2.96,1.28; stroke-dashoffset: 0; stroke: var(--grid-color); stroke-width: 0.8"/>
     </g>
     <g id="line2d_10">
      <g>
       <use xlink:href="#mf5b4005d48" x="35.96" y="77.741653" style="fill: var(--fg-color); stroke: var(--fg-color); stroke-width: 0.8"/>
      </g>
     </g>
     <g id="text_5">
      <text style="font-size: 7px; font-family: 'DejaVu Sans', 'Bitstream Vera Sans', 'Computer Modern Sans Serif', 'Lucida Grande', 'Verdana', 'Geneva', 'Lucid', 'Arial', 'Helvetica', 'Avant Garde', sans-serif; text-anchor: end; fill: var(--fg-color)" x="28.96" y="80.400833" transform="rotate(-0 28.96 80.400833)">40</text>
     </g>
    </g>
    <g id="ytick_3">
     <g id="line2d_11">
      <path d="M 35.96 63.64 
L 211 63.64 
" clip-path="url(#p1c91e37d08)" style="fill: none; stroke-dasharray: 2.96,1.28; stroke-dashoffset: 0; stroke: var(--grid-color); stroke-width: 0.8"/>
     </g>
     <g id="line2d_12">
      <g>
       <use xlink:href="#mf5b4005d48" x="35.96" y="63.64" style="fill: var(--fg-color); stroke: var(--fg-color); stroke-width: 0.8"/>
      </g>
     </g>
     <g id="text_6">
      <text style="font-size: 7px; font-family: 'DejaVu Sans', 'Bitstream Vera Sans', 'Computer Modern Sans Serif', 'Lucida Grande', 'Verdana', 'Geneva', 'Lucid', 'Arial', 'Helvetica', 'Avant Garde', sans-serif; text-anchor: end; fill: var(--fg-color)" x="28.96" y="66.299179" transform="rotate(-0 28.96 66.299179)">60</text>
     </g>
    </g>
    <g id="ytick_4">
     <g id="line2d_13">
      <path d="M 35.96 49.538346 
L 211 49.538346 
" clip-path="url(#p1c91e37d08)" style="fill: none; stroke-dasharray: 2.96,1.28; stroke-dashoffset: 0; stroke: var(--grid-color); stroke-width: 0.8"/>
     </g>
     <g id="line2d_14">
      <g>
       <use xlink:href="#mf5b4005d48" x="35.96" y="49.538346" style="fill: var(--fg-color); stroke: var(--fg-color); stroke-width: 0.8"/>
      </g>
     </g>
     <g id="text_7">
      <text style="font-size: 7px; font-family: 'DejaVu Sans', 'Bitstream Vera Sans', 'Computer Modern Sans Serif', 'Lucida Grande', 'Verdana', 'Geneva', 'Lucid', 'Arial', 'Helvetica', 'Avant Garde', sans-serif; text-anchor: end; fill: var(--fg-color)" x="28.96" y="52.197526" transform="rotate(-0 28.96 52.197526)">80</text>
     </g>
    </g>
    <g id="ytick_5">
     <g id="line2d_15">
      <path d="M 35.96 35.436692 
L 211 35.436692 
" clip-path="url(#p1c91e37d08)" style="fill: none; stroke-dasharray: 2.96,1.28; stroke-dashoffset: 0; stroke: var(--grid-color); stroke-width: 0.8"/>
     </g>
     <g id="line2d_16">
      <g>
       <use xlink:href="#mf5b4005d48" x="35.96" y="35.436692" style="fill: var(--fg-color); stroke: var(--fg-color); stroke-width: 0.8"/>
      </g>
     </g>
     <g id="text_8">
      <text style="font-size: 7px; font-family: 'DejaVu Sans', 'Bitstream Vera Sans', 'Computer Modern Sans Serif', 'Lucida Grande', 'Verdana', 'Geneva', 'Lucid', 'Arial', 'Helvetica', 'Avant Garde', sans-serif; text-anchor: end; fill: var(--fg-color)" x="28.96" y="38.095872" transform="rotate(-0 28.96 38.095872)">100</text>
     </g>
    </g>
    <g id="ytick_6">
     <g id="line2d_17">
      <path d="M 35.96 21.335038 
L 211 21.335038 
" clip-path="url(#p1c91e37d08)" style="fill: none; stroke-dasharray: 2.96,1.28; stroke-dashoffset: 0; stroke: var(--grid-color); stroke-width: 0.8"/>
     </g>
     <g id="line2d_18">
      <g>
       <use xlink:href="#mf5b4005d48" x="35.96" y="21.335038" style="fill: var(--fg-color); stroke: var(--fg-color); stroke-width: 0.8"/>
      </g>
     </g>
     <g id="text_9">
      <text style="font-size: 7px; font-family: 'DejaVu Sans', 'Bitstream Vera Sans', 'Computer Modern Sans Serif', 'Lucida Grande', 'Verdana', 'Geneva', 'Lucid', 'Arial', 'Helvetica', 'Avant Garde', sans-serif; text-anchor: end; fill: var(--fg-color)" x="28.96" y="23.994218" transform="rotate(-0 28.96 23.994218)">120</text>
     </g>
    </g>
    <g id="ytick_7">
     <g id="line2d_19">
      <path d="M 35.96 7.233385 
L 211 7.233385 
" clip-path="url(#p1c91e37d08)" style="fill: none; stroke-dasharray: 2.96,1.28; stroke-dashoffset: 0; stroke: var(--grid-color); stroke-width: 0.8"/>
     </g>
     <g id="line2d_20">
      <g>
       <use xlink:href="#mf5b4005d48" x="35.96" y="7.233385" style="fill: var(--fg-color); stroke: var(--fg-color); stroke-width: 0.8"/>
      </g>
     </g>
     <g id="text_10">
      <text style="font-size: 7px; font-family: 'DejaVu Sans', 'Bitstream Vera Sans', 'Computer Modern Sans Serif', 'Lucida Grande', 'Verdana', 'Geneva', 'Lucid', 'Arial', 'Helvetica', 'Avant Garde', sans-serif; text-anchor: end; fill: var(--fg-color)" x="28.96" y="9.892564" transform="rotate(-0 28.96 9.892564)">140</text>
     </g>
    </g>
    <g id="text_11">
     <text style="font-size: 7px; font-family: 'DejaVu Sans', 'Bitstream Vera Sans', 'Computer Modern Sans Serif', 'Lucida Grande', 'Verdana', 'Geneva', 'Lucid', 'Arial', 'Helvetica', 'Avant Garde', sans-serif; text-anchor: middle; fill: var(--fg-color)" x="9.917109" y="54.2" transform="rotate(-90 9.917109 54.2)">ms</text>
    </g>
   </g>
   <g id="line2d_21">
    <path d="M 43.916364 29.637387 
L 45.193108 31.120881 
L 45.766628 27.567969 
L 46.691788 29.240425 
L 47.616947 28.878718 
L 48.542109 24.45785 
L 49.467263 29.271449 
L 50.392418 32.686165 
L 51.317566 26.829043 
L 52.242732 26.306576 
L 53.167891 32.344905 
L 54.093049 28.368238 
L 55.018206 23.584252 
L 55.943359 31.216067 
L 56.868517 24.559382 
L 57.793676 28.843464 
L 58.718827 31.88237 
L 59.643987 28.617837 
L 60.569143 28.791993 
L 61.494301 32.748212 
L 62.419457 29.726933 
L 63.344613 20.565793 
L 64.269773 27.199916 
L 65.194924 28.003005 
L 66.120079 28.784942 
L 67.045243 29.510472 
L 67.970398 27.14351 
L 68.895557 30.570211 
L 69.82071 22.648607 
L 70.74585 26.313627 
L 71.671025 28.207479 
L 72.596178 25.939228 
L 73.521341 29.194595 
L 74.446495 29.946213 
L 75.371653 26.086591 
L 76.296805 26.912948 
L 77.221971 30.652001 
L 78.147114 25.234851 
L 79.072277 32.121393 
L 79.997435 29.670526 
L 80.922594 26.290359 
L 81.847735 27.092744 
L 82.772905 24.805455 
L 83.698046 19.111208 
L 84.623219 25.192546 
L 85.548376 23.170369 
L 86.473535 31.763916 
L 87.398688 25.995635 
L 88.323852 28.044605 
L 97.76512 24.831543 
L 98.500856 24.987367 
L 99.426031 27.53201 
L 100.351186 22.100758 
L 101.276348 28.130625 
L 102.201502 26.457464 
L 103.126656 29.062745 
L 104.051812 27.259143 
L 104.976967 29.580275 
L 105.902123 23.496822 
L 106.827282 21.81802 
L 107.752435 26.440542 
L 108.677594 27.177354 
L 109.602753 25.989289 
L 110.527909 31.828079 
L 111.453063 25.989289 
L 112.378223 28.774366 
L 113.303377 28.803274 
L 114.228537 30.638604 
L 115.153695 28.755329 
L 116.078848 29.863013 
L 117.004011 26.443362 
L 117.929158 30.905831 
L 118.854316 27.131523 
L 119.779481 27.109666 
L 120.704637 28.25331 
L 121.629794 28.668603 
L 122.554943 30.466564 
L 123.480104 30.022362 
L 124.405261 24.273118 
L 125.330416 29.348303 
L 126.255574 26.361573 
L 129.9562 23.383304 
L 130.881363 24.265362 
L 131.806516 28.250489 
L 132.731673 23.952305 
L 133.656831 25.05435 
L 134.581987 27.264784 
L 135.507147 27.814748 
L 136.432285 32.21799 
L 137.357455 27.829555 
L 138.282617 27.666681 
L 139.20777 26.8093 
L 140.13293 22.002752 
L 141.058084 23.582137 
L 141.983242 21.360421 
L 142.908395 23.104091 
L 143.833556 21.1771 
L 144.758724 19.9009 
L 145.683869 12.415742 
L 146.609028 21.379459 
L 147.534182 23.493296 
L 148.459339 23.340294 
L 149.384497 17.552975 
L 150.309651 18.344078 
L 151.234811 19.339654 
L 152.159963 21.045249 
L 179.91473 21.045249 
L 188.548948 22.859427 
L 189.166282 21.370293 
L 190.091439 19.802189 
L 191.016594 23.412212 
L 191.94175 16.381833 
L 192.866913 18.394844 
L 193.792066 23.093515 
L 194.717222 25.808788 
L 195.642377 24.718025 
L 196.567536 22.316513 
L 197.492695 15.4617 
L 198.417852 9.472727 
L 199.343013 24.573483 
L 200.268162 22.15928 
L 201.193322 18.852442 
L 202.118478 24.447978 
L 203.043636 22.433557 
" clip-path="url(#p1c91e37d08)" style="fill: none; stroke: #339af0; stroke-width: 1.2; stroke-linecap: square"/>
   </g>
   <g id="line2d_22">
    <path d="M 43.916364 97.521338 
L 45.193108 97.110275 
L 45.766628 97.902788 
L 46.691788 97.940157 
L 47.616947 97.813947 
L 48.542109 97.516402 
L 49.467263 98.370962 
L 50.392418 98.195397 
L 51.317566 97.460701 
L 52.242732 97.849906 
L 53.167891 98.578257 
L 54.093049 97.821703 
L 55.018206 97.806191 
L 55.943359 97.569989 
L 56.868517 97.837215 
L 57.793676 96.859265 
L 58.718827 97.669405 
L 59.643987 97.105339 
L 60.569143 97.02778 
L 61.494301 98.383654 
L 62.419457 97.616524 
L 63.344613 97.877405 
L 64.269773 97.417691 
L 65.194924 96.946695 
L 66.120079 98.927273 
L 67.045243 96.923428 
L 67.970398 97.082071 
L 68.895557 98.09457 
L 69.82071 97.771642 
L 70.74585 97.589026 
L 71.671025 97.88093 
L 72.596178 96.631524 
L 73.521341 97.700429 
L 74.446495 97.680687 
L 75.371653 96.747157 
L 76.296805 97.489609 
L 77.221971 98.22501 
L 78.147114 97.871764 
L 79.072277 97.640497 
L 79.997435 97.264688 
L 80.922594 97.215332 
L 81.847735 97.730042 
L 82.772905 97.811832 
L 83.698046 96.763374 
L 84.623219 96.522941 
L 85.548376 97.605948 
L 86.473535 98.593769 
L 87.398688 98.004319 
L 88.323852 96.423524 
L 97.76512 95.451215 
L 98.500856 97.558002 
L 99.426031 96.926248 
L 100.351186 96.51871 
L 101.276348 97.844266 
L 102.201502 96.554669 
L 103.126656 98.023357 
L 104.051812 96.489097 
L 104.976967 97.02637 
L 105.902123 97.364104 
L 106.827282 96.329748 
L 107.752435 97.121556 
L 108.677594 95.565438 
L 109.602753 96.903685 
L 110.527909 97.516402 
L 111.453063 95.609859 
L 112.378223 96.43269 
L 113.303377 95.49493 
L 114.228537 97.270328 
L 115.153695 95.526659 
L 116.078848 97.551656 
L 117.004011 95.678957 
L 117.929158 97.140593 
L 118.854316 96.905801 
L 119.779481 95.485059 
L 120.704637 97.096173 
L 121.629794 97.395128 
L 122.554943 97.952143 
L 123.480104 98.502108 
L 124.405261 98.040279 
L 125.330416 97.487494 
L 126.255574 98.112902 
L 129.9562 97.337311 
L 130.881363 97.806896 
L 131.806516 98.229946 
L 132.731673 98.411152 
L 133.656831 98.13617 
L 134.581987 97.637676 
L 135.507147 96.338209 
L 136.432285 98.465444 
L 137.357455 98.4316 
L 138.282617 97.637676 
L 139.20777 98.049445 
L 140.13293 96.552554 
L 141.058084 97.630626 
L 141.983242 97.237895 
L 142.908395 96.730235 
L 143.833556 96.946695 
L 144.758724 97.080661 
L 145.683869 97.939452 
L 146.609028 97.435318 
L 147.534182 98.156617 
L 148.459339 98.534542 
L 149.384497 97.972591 
L 150.309651 97.488904 
L 151.234811 98.21796 
L 152.159963 98.232061 
L 179.91473 98.232061 
L 188.548948 98.712223 
L 189.166282 98.157322 
L 190.091439 98.093865 
L 191.016594 98.387179 
L 191.94175 97.983167 
L 192.866913 97.953554 
L 193.792066 98.315261 
L 194.717222 98.625497 
L 195.642377 97.515697 
L 196.567536 98.771449 
L 197.492695 98.368847 
L 198.417852 98.401986 
L 199.343013 98.038869 
L 200.268162 97.762476 
L 201.193322 98.447111 
L 202.118478 97.96836 
L 203.043636 98.546528 
" clip-path="url(#p1c91e37d08)" style="fill: none; stroke: #ff6b6b; stroke-width: 1.2; stroke-linecap: square"/>
   </g>
   <g id="patch_3">
    <path d="M 35.96 103.4 
L 35.96 5 
" style="fill: none; stroke: var(--fg-color); stroke-width: 0.8; stroke-linejoin: miter; stroke-linecap: square"/>
   </g>
   <g id="patch_4">
    <path d="M 35.96 103.4 
L 211 103.4 
" style="fill: none; stroke: var(--fg-color); stroke-width: 0.8; stroke-linejoin: miter; stroke-linecap: square"/>
   </g>
  </g>
 </g>
 <defs>
  <clipPath id="p1c91e37d08">
   <rect x="35.96" y="5" width="175.04" height="98.4"/>
  </clipPath>
 </defs>
</svg>
