<?xml version="1.0" encoding="utf-8" standalone="no"?>
<!DOCTYPE svg PUBLIC "-//W3C//DTD SVG 1.1//EN"
  "http://www.w3.org/Graphics/SVG/1.1/DTD/svg11.dtd">
<svg xmlns:xlink="http://www.w3.org/1999/xlink" width="216pt" height="122.4pt" viewBox="0 0 216 122.4" xmlns="http://www.w3.org/2000/svg" version="1.1">
  <style>
    :root {
      --fg-color: #212529;
      --grid-color: rgba(33, 37, 41, 0.1);
    }
    @media (prefers-color-scheme: dark) {
      :root {
        --fg-color: #dee2e6;
        --grid-color: rgba(248, 249, 250, 0.15);
      }
    }
  </style>

 <metadata>
  <rdf:RDF xmlns:dc="http://purl.org/dc/elements/1.1/" xmlns:cc="http://creativecommons.org/ns#" xmlns:rdf="http://www.w3.org/1999/02/22-rdf-syntax-ns#">
   <cc:Work>
    <dc:type rdf:resource="http://purl.org/dc/dcmitype/StillImage"/>
    <dc:date>2026-06-30T15:37:03.103754</dc:date>
    <dc:format>image/svg+xml</dc:format>
    <dc:creator>
     <cc:Agent>
      <dc:title>Matplotlib v3.11.0, https://matplotlib.org/</dc:title>
     </cc:Agent>
    </dc:creator>
   </cc:Work>
  </rdf:RDF>
 </metadata>
 <defs>
  <style type="text/css">*{stroke-linejoin: round; stroke-linecap: butt}</style>
 </defs>
 <g id="figure_1">
  <g id="patch_1">
   <path d="M 0 122.4 
L 216 122.4 
L 216 0 
L 0 0 
L 0 122.4 
z
" style="fill: none; opacity: 0"/>
  </g>
  <g id="axes_1">
   <g id="patch_2">
    <path d="M 35.96 103.4 
L 211 103.4 
L 211 5 
L 35.96 5 
L 35.96 103.4 
z
" style="fill: none; opacity: 0"/>
   </g>
   <g id="matplotlib.axis_1">
    <g id="xtick_1">
     <g id="line2d_1">
      <path d="M 69.784035 103.4 
L 69.784035 5 
" clip-path="url(#p2e63d9801c)" style="fill: none; stroke-dasharray: 2.96,1.28; stroke-dashoffset: 0; stroke: var(--grid-color); stroke-width: 0.8"/>
     </g>
     <g id="line2d_2">
      <defs>
       <path id="m804888ecc8" d="M 0 0 
L 0 3.5 
" style="stroke: var(--fg-color); stroke-width: 0.8"/>
      </defs>
      <g>
       <use xlink:href="#m804888ecc8" x="69.784035" y="103.4" style="fill: var(--fg-color); stroke: var(--fg-color); stroke-width: 0.8"/>
      </g>
     </g>
     <g id="text_1">
      <text style="font-size: 7px; font-family: 'DejaVu Sans', 'Bitstream Vera Sans', 'Computer Modern Sans Serif', 'Lucida Grande', 'Verdana', 'Geneva', 'Lucid', 'Arial', 'Helvetica', 'Avant Garde', sans-serif; text-anchor: middle; fill: var(--fg-color)" x="69.784035" y="115.718359" transform="rotate(-0 69.784035 115.718359)">02/2026</text>
     </g>
    </g>
    <g id="xtick_2">
     <g id="line2d_3">
      <path d="M 122.345302 103.4 
L 122.345302 5 
" clip-path="url(#p2e63d9801c)" style="fill: none; stroke-dasharray: 2.96,1.28; stroke-dashoffset: 0; stroke: var(--grid-color); stroke-width: 0.8"/>
     </g>
     <g id="line2d_4">
      <g>
       <use xlink:href="#m804888ecc8" x="122.345302" y="103.4" style="fill: var(--fg-color); stroke: var(--fg-color); stroke-width: 0.8"/>
      </g>
     </g>
     <g id="text_2">
      <text style="font-size: 7px; font-family: 'DejaVu Sans', 'Bitstream Vera Sans', 'Computer Modern Sans Serif', 'Lucida Grande', 'Verdana', 'Geneva', 'Lucid', 'Arial', 'Helvetica', 'Avant Garde', sans-serif; text-anchor: middle; fill: var(--fg-color)" x="122.345302" y="115.718359" transform="rotate(-0 122.345302 115.718359)">04/2026</text>
     </g>
    </g>
    <g id="xtick_3">
     <g id="line2d_5">
      <path d="M 176.688307 103.4 
L 176.688307 5 
" clip-path="url(#p2e63d9801c)" style="fill: none; stroke-dasharray: 2.96,1.28; stroke-dashoffset: 0; stroke: var(--grid-color); stroke-width: 0.8"/>
     </g>
     <g id="line2d_6">
      <g>
       <use xlink:href="#m804888ecc8" x="176.688307" y="103.4" style="fill: var(--fg-color); stroke: var(--fg-color); stroke-width: 0.8"/>
      </g>
     </g>
     <g id="text_3">
      <text style="font-size: 7px; font-family: 'DejaVu Sans', 'Bitstream Vera Sans', 'Computer Modern Sans Serif', 'Lucida Grande', 'Verdana', 'Geneva', 'Lucid', 'Arial', 'Helvetica', 'Avant Garde', sans-serif; text-anchor: middle; fill: var(--fg-color)" x="176.688307" y="115.718359" transform="rotate(-0 176.688307 115.718359)">06/2026</text>
     </g>
    </g>
   </g>
   <g id="matplotlib.axis_2">
    <g id="ytick_1">
     <g id="line2d_7">
      <path d="M 35.96 99.793984 
L 211 99.793984 
" clip-path="url(#p2e63d9801c)" style="fill: none; stroke-dasharray: 2.96,1.28; stroke-dashoffset: 0; stroke: var(--grid-color); stroke-width: 0.8"/>
     </g>
     <g id="line2d_8">
      <defs>
       <path id="mb385cf3ab7" d="M 0 0 
L -3.5 0 
" style="stroke: var(--fg-color); stroke-width: 0.8"/>
      </defs>
      <g>
       <use xlink:href="#mb385cf3ab7" x="35.96" y="99.793984" style="fill: var(--fg-color); stroke: var(--fg-color); stroke-width: 0.8"/>
      </g>
     </g>
     <g id="text_4">
      <text style="font-size: 7px; font-family: 'DejaVu Sans', 'Bitstream Vera Sans', 'Computer Modern Sans Serif', 'Lucida Grande', 'Verdana', 'Geneva', 'Lucid', 'Arial', 'Helvetica', 'Avant Garde', sans-serif; text-anchor: end; fill: var(--fg-color)" x="28.96" y="102.453163" transform="rotate(-0 28.96 102.453163)">0</text>
     </g>
    </g>
    <g id="ytick_2">
     <g id="line2d_9">
      <path d="M 35.96 78.276832 
L 211 78.276832 
" clip-path="url(#p2e63d9801c)" style="fill: none; stroke-dasharray: 2.96,1.28; stroke-dashoffset: 0; stroke: var(--grid-color); stroke-width: 0.8"/>
     </g>
     <g id="line2d_10">
      <g>
       <use xlink:href="#mb385cf3ab7" x="35.96" y="78.276832" style="fill: var(--fg-color); stroke: var(--fg-color); stroke-width: 0.8"/>
      </g>
     </g>
     <g id="text_5">
      <text style="font-size: 7px; font-family: 'DejaVu Sans', 'Bitstream Vera Sans', 'Computer Modern Sans Serif', 'Lucida Grande', 'Verdana', 'Geneva', 'Lucid', 'Arial', 'Helvetica', 'Avant Garde', sans-serif; text-anchor: end; fill: var(--fg-color)" x="28.96" y="80.936012" transform="rotate(-0 28.96 80.936012)">50</text>
     </g>
    </g>
    <g id="ytick_3">
     <g id="line2d_11">
      <path d="M 35.96 56.75968 
L 211 56.75968 
" clip-path="url(#p2e63d9801c)" style="fill: none; stroke-dasharray: 2.96,1.28; stroke-dashoffset: 0; stroke: var(--grid-color); stroke-width: 0.8"/>
     </g>
     <g id="line2d_12">
      <g>
       <use xlink:href="#mb385cf3ab7" x="35.96" y="56.75968" style="fill: var(--fg-color); stroke: var(--fg-color); stroke-width: 0.8"/>
      </g>
     </g>
     <g id="text_6">
      <text style="font-size: 7px; font-family: 'DejaVu Sans', 'Bitstream Vera Sans', 'Computer Modern Sans Serif', 'Lucida Grande', 'Verdana', 'Geneva', 'Lucid', 'Arial', 'Helvetica', 'Avant Garde', sans-serif; text-anchor: end; fill: var(--fg-color)" x="28.96" y="59.41886" transform="rotate(-0 28.96 59.41886)">100</text>
     </g>
    </g>
    <g id="ytick_4">
     <g id="line2d_13">
      <path d="M 35.96 35.242529 
L 211 35.242529 
" clip-path="url(#p2e63d9801c)" style="fill: none; stroke-dasharray: 2.96,1.28; stroke-dashoffset: 0; stroke: var(--grid-color); stroke-width: 0.8"/>
     </g>
     <g id="line2d_14">
      <g>
       <use xlink:href="#mb385cf3ab7" x="35.96" y="35.242529" style="fill: var(--fg-color); stroke: var(--fg-color); stroke-width: 0.8"/>
      </g>
     </g>
     <g id="text_7">
      <text style="font-size: 7px; font-family: 'DejaVu Sans', 'Bitstream Vera Sans', 'Computer Modern Sans Serif', 'Lucida Grande', 'Verdana', 'Geneva', 'Lucid', 'Arial', 'Helvetica', 'Avant Garde', sans-serif; text-anchor: end; fill: var(--fg-color)" x="28.96" y="37.901708" transform="rotate(-0 28.96 37.901708)">150</text>
     </g>
    </g>
    <g id="ytick_5">
     <g id="line2d_15">
      <path d="M 35.96 13.725377 
L 211 13.725377 
" clip-path="url(#p2e63d9801c)" style="fill: none; stroke-dasharray: 2.96,1.28; stroke-dashoffset: 0; stroke: var(--grid-color); stroke-width: 0.8"/>
     </g>
     <g id="line2d_16">
      <g>
       <use xlink:href="#mb385cf3ab7" x="35.96" y="13.725377" style="fill: var(--fg-color); stroke: var(--fg-color); stroke-width: 0.8"/>
      </g>
     </g>
     <g id="text_8">
      <text style="font-size: 7px; font-family: 'DejaVu Sans', 'Bitstream Vera Sans', 'Computer Modern Sans Serif', 'Lucida Grande', 'Verdana', 'Geneva', 'Lucid', 'Arial', 'Helvetica', 'Avant Garde', sans-serif; text-anchor: end; fill: var(--fg-color)" x="28.96" y="16.384557" transform="rotate(-0 28.96 16.384557)">200</text>
     </g>
    </g>
    <g id="text_9">
     <text style="font-size: 7px; font-family: 'DejaVu Sans', 'Bitstream Vera Sans', 'Computer Modern Sans Serif', 'Lucida Grande', 'Verdana', 'Geneva', 'Lucid', 'Arial', 'Helvetica', 'Avant Garde', sans-serif; text-anchor: middle; fill: var(--fg-color)" x="9.917109" y="54.2" transform="rotate(-90 9.917109 54.2)">ms</text>
    </g>
   </g>
   <g id="line2d_17">
    <path d="M 43.916364 67.28415 
L 44.468628 76.782251 
L 45.3595 74.085291 
L 46.250371 70.3086 
L 47.141245 71.674079 
L 48.032112 75.554482 
L 49.81384 72.995662 
L 50.704717 75.352221 
L 51.595589 74.873679 
L 52.486458 73.836553 
L 53.377327 69.974654 
L 54.268192 66.633041 
L 55.159063 70.949812 
L 56.049934 71.133998 
L 56.940797 76.901886 
L 57.831669 75.497246 
L 58.722538 73.001687 
L 59.613407 77.949341 
L 60.504275 74.099923 
L 61.395144 75.123709 
L 62.286016 72.2658 
L 63.176879 74.726502 
L 64.067746 75.441732 
L 64.958622 74.67357 
L 65.84949 73.049025 
L 66.740361 73.361454 
L 67.631226 77.00732 
L 68.522078 75.327691 
L 69.412965 72.82912 
L 70.30383 74.947698 
L 71.194705 70.615865 
L 72.085571 74.028486 
L 72.976442 74.99977 
L 73.867306 70.213925 
L 74.758184 73.5323 
L 75.649039 75.805802 
L 76.539914 76.873483 
L 77.430784 74.42268 
L 78.321655 73.145422 
L 79.212509 72.351008 
L 80.103391 73.587384 
L 80.994245 74.371899 
L 81.885129 78.257467 
L 82.775998 74.153285 
L 83.666869 72.097967 
L 84.557735 76.587305 
L 85.44861 73.271943 
L 94.53997 9.472727 
L 95.248438 75.99171 
L 96.139324 72.269674 
L 97.030192 76.482302 
L 97.921065 73.370921 
L 99.702798 72.216741 
L 100.593666 59.92055 
L 101.484533 72.083335 
L 102.375401 70.102466 
L 103.266272 72.132825 
L 104.157138 66.79528 
L 105.048009 70.974341 
L 105.93888 64.940071 
L 106.829748 71.340133 
L 107.720614 72.558864 
L 108.611487 68.629832 
L 109.502352 68.424559 
L 110.393224 71.141744 
L 111.284094 72.21545 
L 112.17496 59.287085 
L 113.065834 71.368966 
L 113.956695 60.512272 
L 114.847564 71.118506 
L 115.738441 69.549475 
L 116.629309 67.750641 
L 117.520178 67.581947 
L 118.41104 70.211343 
L 119.301913 69.313647 
L 120.192782 52.423974 
L 121.083649 71.04836 
L 121.97452 69.314508 
L 125.537994 71.341854 
L 126.428869 72.771023 
L 127.319734 67.461021 
L 128.210603 68.190452 
L 129.101474 65.534375 
L 130.883214 65.888547 
L 131.774065 71.773488 
L 132.664946 70.318929 
L 133.55582 69.733662 
L 134.446686 72.565319 
L 135.337558 68.551079 
L 136.228424 68.209387 
L 137.119294 71.467945 
L 138.010159 71.272999 
L 138.901032 72.116902 
L 139.791912 69.757761 
L 140.68277 70.203597 
L 142.464507 68.080284 
L 143.355376 70.541416 
L 144.246246 72.073007 
L 145.137113 67.278555 
L 146.027984 72.263649 
L 146.918849 67.495878 
L 173.644977 67.495878 
L 181.959197 71.971016 
L 182.553652 70.627915 
L 183.444521 64.134039 
L 184.335387 66.731159 
L 185.226256 65.887686 
L 186.117131 62.858932 
L 187.007996 62.907131 
L 187.898864 61.768873 
L 188.789731 65.008065 
L 189.680603 62.807721 
L 190.571474 53.421509 
L 191.462343 65.194834 
L 192.353215 66.435943 
L 193.244077 72.132825 
L 194.134949 67.20884 
L 195.025817 64.076803 
L 195.916688 66.240998 
L 196.807557 66.690276 
L 197.698426 65.978919 
L 199.480162 65.458634 
L 200.371032 71.263962 
L 201.261898 67.281998 
L 202.152766 28.95909 
L 203.043636 68.440912 
L 203.043636 68.440912 
" clip-path="url(#p2e63d9801c)" style="fill: none; stroke: #339af0; stroke-width: 1.2; stroke-linecap: square"/>
   </g>
   <g id="line2d_18">
    <path d="M 43.916364 98.746098 
L 44.468628 98.742656 
L 45.3595 98.375573 
L 46.250371 98.753414 
L 47.141245 98.63593 
L 48.032112 98.850241 
L 48.922979 98.369979 
L 49.81384 98.66003 
L 51.595589 98.762021 
L 52.486458 98.781817 
L 53.377327 98.448731 
L 54.268192 98.705646 
L 55.159063 98.482298 
L 56.049934 98.81108 
L 56.940797 98.780095 
L 57.831669 98.52275 
L 58.722538 98.515434 
L 59.613407 98.830876 
L 61.395144 98.354056 
L 63.176879 98.870037 
L 64.067746 98.804625 
L 64.958622 98.538243 
L 66.740361 98.306288 
L 68.522078 98.896288 
L 69.412965 98.763742 
L 70.30383 98.871328 
L 71.194705 98.544267 
L 72.085571 98.490475 
L 74.758184 98.727163 
L 75.649039 98.364384 
L 76.539914 98.864873 
L 77.430784 98.229256 
L 78.321655 98.759439 
L 79.212509 98.927273 
L 80.103391 98.737061 
L 80.994245 98.881226 
L 81.885129 98.543837 
L 82.775998 98.900161 
L 83.666869 98.775362 
L 84.557735 98.432378 
L 85.44861 98.66089 
L 94.53997 98.466806 
L 95.248438 98.908768 
L 96.139324 98.577834 
L 97.921065 98.57224 
L 98.811931 98.40914 
L 99.702798 98.768476 
L 100.593666 98.881226 
L 101.484533 98.615704 
L 102.375401 98.857557 
L 103.266272 98.910059 
L 104.157138 98.759009 
L 111.284094 98.880365 
L 113.065834 98.89887 
L 113.956695 98.692736 
L 114.847564 98.851963 
L 115.738441 98.709949 
L 119.301913 98.833028 
L 120.192782 98.706507 
L 121.083649 98.833458 
L 121.97452 98.749971 
L 127.319734 98.810219 
L 128.210603 98.632918 
L 130.883214 98.806777 
L 131.774065 98.714253 
L 132.664946 98.842065 
L 133.55582 98.757287 
L 134.446686 98.830015 
L 135.337558 98.527484 
L 137.119294 98.859279 
L 138.010159 98.657017 
L 138.901032 98.842925 
L 139.791912 98.577404 
L 140.68277 98.787411 
L 181.959197 98.846368 
L 182.553652 98.356638 
L 183.444521 98.125544 
L 184.335387 98.445289 
L 185.226256 98.418607 
L 186.117131 98.507258 
L 187.007996 98.122962 
L 187.898864 98.088104 
L 188.789731 98.570949 
L 191.462343 98.470679 
L 193.244077 98.683268 
L 194.134949 98.265405 
L 195.025817 98.628184 
L 197.698426 98.281758 
L 198.589295 98.576543 
L 199.480162 98.527914 
L 200.371032 98.624311 
L 201.261898 98.297681 
L 202.152766 98.52275 
L 203.043636 98.631627 
L 203.043636 98.631627 
" clip-path="url(#p2e63d9801c)" style="fill: none; stroke: #ff6b6b; stroke-width: 1.2; stroke-linecap: square"/>
   </g>
   <g id="patch_3">
    <path d="M 35.96 103.4 
L 35.96 5 
" style="fill: none; stroke: var(--fg-color); stroke-width: 0.8; stroke-linejoin: miter; stroke-linecap: square"/>
   </g>
   <g id="patch_4">
    <path d="M 35.96 103.4 
L 211 103.4 
" style="fill: none; stroke: var(--fg-color); stroke-width: 0.8; stroke-linejoin: miter; stroke-linecap: square"/>
   </g>
  </g>
 </g>
 <defs>
  <clipPath id="p2e63d9801c">
   <rect x="35.96" y="5" width="175.04" height="98.4"/>
  </clipPath>
 </defs>
</svg>
