<?xml version="1.0" encoding="utf-8" standalone="no"?>
<!DOCTYPE svg PUBLIC "-//W3C//DTD SVG 1.1//EN"
  "http://www.w3.org/Graphics/SVG/1.1/DTD/svg11.dtd">
<svg xmlns:xlink="http://www.w3.org/1999/xlink" width="216pt" height="122.4pt" viewBox="0 0 216 122.4" xmlns="http://www.w3.org/2000/svg" version="1.1">
  <style>
    :root {
      --fg-color: #212529;
      --grid-color: rgba(33, 37, 41, 0.1);
    }
    @media (prefers-color-scheme: dark) {
      :root {
        --fg-color: #dee2e6;
        --grid-color: rgba(248, 249, 250, 0.15);
      }
    }
  </style>

 <metadata>
  <rdf:RDF xmlns:dc="http://purl.org/dc/elements/1.1/" xmlns:cc="http://creativecommons.org/ns#" xmlns:rdf="http://www.w3.org/1999/02/22-rdf-syntax-ns#">
   <cc:Work>
    <dc:type rdf:resource="http://purl.org/dc/dcmitype/StillImage"/>
    <dc:date>2026-06-30T15:37:45.200134</dc:date>
    <dc:format>image/svg+xml</dc:format>
    <dc:creator>
     <cc:Agent>
      <dc:title>Matplotlib v3.11.0, https://matplotlib.org/</dc:title>
     </cc:Agent>
    </dc:creator>
   </cc:Work>
  </rdf:RDF>
 </metadata>
 <defs>
  <style type="text/css">*{stroke-linejoin: round; stroke-linecap: butt}</style>
 </defs>
 <g id="figure_1">
  <g id="patch_1">
   <path d="M 0 122.4 
L 216 122.4 
L 216 0 
L 0 0 
L 0 122.4 
z
" style="fill: none; opacity: 0"/>
  </g>
  <g id="axes_1">
   <g id="patch_2">
    <path d="M 35.96 103.4 
L 211 103.4 
L 211 5 
L 35.96 5 
L 35.96 103.4 
z
" style="fill: none; opacity: 0"/>
   </g>
   <g id="matplotlib.axis_1">
    <g id="xtick_1">
     <g id="line2d_1">
      <path d="M 69.784035 103.4 
L 69.784035 5 
" clip-path="url(#pdccccf087c)" style="fill: none; stroke-dasharray: 2.96,1.28; stroke-dashoffset: 0; stroke: var(--grid-color); stroke-width: 0.8"/>
     </g>
     <g id="line2d_2">
      <defs>
       <path id="m2338c8003c" d="M 0 0 
L 0 3.5 
" style="stroke: var(--fg-color); stroke-width: 0.8"/>
      </defs>
      <g>
       <use xlink:href="#m2338c8003c" x="69.784035" y="103.4" style="fill: var(--fg-color); stroke: var(--fg-color); stroke-width: 0.8"/>
      </g>
     </g>
     <g id="text_1">
      <text style="font-size: 7px; font-family: 'DejaVu Sans', 'Bitstream Vera Sans', 'Computer Modern Sans Serif', 'Lucida Grande', 'Verdana', 'Geneva', 'Lucid', 'Arial', 'Helvetica', 'Avant Garde', sans-serif; text-anchor: middle; fill: var(--fg-color)" x="69.784035" y="115.718359" transform="rotate(-0 69.784035 115.718359)">02/2026</text>
     </g>
    </g>
    <g id="xtick_2">
     <g id="line2d_3">
      <path d="M 122.345302 103.4 
L 122.345302 5 
" clip-path="url(#pdccccf087c)" style="fill: none; stroke-dasharray: 2.96,1.28; stroke-dashoffset: 0; stroke: var(--grid-color); stroke-width: 0.8"/>
     </g>
     <g id="line2d_4">
      <g>
       <use xlink:href="#m2338c8003c" x="122.345302" y="103.4" style="fill: var(--fg-color); stroke: var(--fg-color); stroke-width: 0.8"/>
      </g>
     </g>
     <g id="text_2">
      <text style="font-size: 7px; font-family: 'DejaVu Sans', 'Bitstream Vera Sans', 'Computer Modern Sans Serif', 'Lucida Grande', 'Verdana', 'Geneva', 'Lucid', 'Arial', 'Helvetica', 'Avant Garde', sans-serif; text-anchor: middle; fill: var(--fg-color)" x="122.345302" y="115.718359" transform="rotate(-0 122.345302 115.718359)">04/2026</text>
     </g>
    </g>
    <g id="xtick_3">
     <g id="line2d_5">
      <path d="M 176.688307 103.4 
L 176.688307 5 
" clip-path="url(#pdccccf087c)" style="fill: none; stroke-dasharray: 2.96,1.28; stroke-dashoffset: 0; stroke: var(--grid-color); stroke-width: 0.8"/>
     </g>
     <g id="line2d_6">
      <g>
       <use xlink:href="#m2338c8003c" x="176.688307" y="103.4" style="fill: var(--fg-color); stroke: var(--fg-color); stroke-width: 0.8"/>
      </g>
     </g>
     <g id="text_3">
      <text style="font-size: 7px; font-family: 'DejaVu Sans', 'Bitstream Vera Sans', 'Computer Modern Sans Serif', 'Lucida Grande', 'Verdana', 'Geneva', 'Lucid', 'Arial', 'Helvetica', 'Avant Garde', sans-serif; text-anchor: middle; fill: var(--fg-color)" x="176.688307" y="115.718359" transform="rotate(-0 176.688307 115.718359)">06/2026</text>
     </g>
    </g>
   </g>
   <g id="matplotlib.axis_2">
    <g id="ytick_1">
     <g id="line2d_7">
      <path d="M 35.96 99.618933 
L 211 99.618933 
" clip-path="url(#pdccccf087c)" style="fill: none; stroke-dasharray: 2.96,1.28; stroke-dashoffset: 0; stroke: var(--grid-color); stroke-width: 0.8"/>
     </g>
     <g id="line2d_8">
      <defs>
       <path id="m0f64e28019" d="M 0 0 
L -3.5 0 
" style="stroke: var(--fg-color); stroke-width: 0.8"/>
      </defs>
      <g>
       <use xlink:href="#m0f64e28019" x="35.96" y="99.618933" style="fill: var(--fg-color); stroke: var(--fg-color); stroke-width: 0.8"/>
      </g>
     </g>
     <g id="text_4">
      <text style="font-size: 7px; font-family: 'DejaVu Sans', 'Bitstream Vera Sans', 'Computer Modern Sans Serif', 'Lucida Grande', 'Verdana', 'Geneva', 'Lucid', 'Arial', 'Helvetica', 'Avant Garde', sans-serif; text-anchor: end; fill: var(--fg-color)" x="28.96" y="102.278113" transform="rotate(-0 28.96 102.278113)">0</text>
     </g>
    </g>
    <g id="ytick_2">
     <g id="line2d_9">
      <path d="M 35.96 81.311344 
L 211 81.311344 
" clip-path="url(#pdccccf087c)" style="fill: none; stroke-dasharray: 2.96,1.28; stroke-dashoffset: 0; stroke: var(--grid-color); stroke-width: 0.8"/>
     </g>
     <g id="line2d_10">
      <g>
       <use xlink:href="#m0f64e28019" x="35.96" y="81.311344" style="fill: var(--fg-color); stroke: var(--fg-color); stroke-width: 0.8"/>
      </g>
     </g>
     <g id="text_5">
      <text style="font-size: 7px; font-family: 'DejaVu Sans', 'Bitstream Vera Sans', 'Computer Modern Sans Serif', 'Lucida Grande', 'Verdana', 'Geneva', 'Lucid', 'Arial', 'Helvetica', 'Avant Garde', sans-serif; text-anchor: end; fill: var(--fg-color)" x="28.96" y="83.970523" transform="rotate(-0 28.96 83.970523)">50</text>
     </g>
    </g>
    <g id="ytick_3">
     <g id="line2d_11">
      <path d="M 35.96 63.003754 
L 211 63.003754 
" clip-path="url(#pdccccf087c)" style="fill: none; stroke-dasharray: 2.96,1.28; stroke-dashoffset: 0; stroke: var(--grid-color); stroke-width: 0.8"/>
     </g>
     <g id="line2d_12">
      <g>
       <use xlink:href="#m0f64e28019" x="35.96" y="63.003754" style="fill: var(--fg-color); stroke: var(--fg-color); stroke-width: 0.8"/>
      </g>
     </g>
     <g id="text_6">
      <text style="font-size: 7px; font-family: 'DejaVu Sans', 'Bitstream Vera Sans', 'Computer Modern Sans Serif', 'Lucida Grande', 'Verdana', 'Geneva', 'Lucid', 'Arial', 'Helvetica', 'Avant Garde', sans-serif; text-anchor: end; fill: var(--fg-color)" x="28.96" y="65.662933" transform="rotate(-0 28.96 65.662933)">100</text>
     </g>
    </g>
    <g id="ytick_4">
     <g id="line2d_13">
      <path d="M 35.96 44.696164 
L 211 44.696164 
" clip-path="url(#pdccccf087c)" style="fill: none; stroke-dasharray: 2.96,1.28; stroke-dashoffset: 0; stroke: var(--grid-color); stroke-width: 0.8"/>
     </g>
     <g id="line2d_14">
      <g>
       <use xlink:href="#m0f64e28019" x="35.96" y="44.696164" style="fill: var(--fg-color); stroke: var(--fg-color); stroke-width: 0.8"/>
      </g>
     </g>
     <g id="text_7">
      <text style="font-size: 7px; font-family: 'DejaVu Sans', 'Bitstream Vera Sans', 'Computer Modern Sans Serif', 'Lucida Grande', 'Verdana', 'Geneva', 'Lucid', 'Arial', 'Helvetica', 'Avant Garde', sans-serif; text-anchor: end; fill: var(--fg-color)" x="28.96" y="47.355344" transform="rotate(-0 28.96 47.355344)">150</text>
     </g>
    </g>
    <g id="ytick_5">
     <g id="line2d_15">
      <path d="M 35.96 26.388574 
L 211 26.388574 
" clip-path="url(#pdccccf087c)" style="fill: none; stroke-dasharray: 2.96,1.28; stroke-dashoffset: 0; stroke: var(--grid-color); stroke-width: 0.8"/>
     </g>
     <g id="line2d_16">
      <g>
       <use xlink:href="#m0f64e28019" x="35.96" y="26.388574" style="fill: var(--fg-color); stroke: var(--fg-color); stroke-width: 0.8"/>
      </g>
     </g>
     <g id="text_8">
      <text style="font-size: 7px; font-family: 'DejaVu Sans', 'Bitstream Vera Sans', 'Computer Modern Sans Serif', 'Lucida Grande', 'Verdana', 'Geneva', 'Lucid', 'Arial', 'Helvetica', 'Avant Garde', sans-serif; text-anchor: end; fill: var(--fg-color)" x="28.96" y="29.047754" transform="rotate(-0 28.96 29.047754)">200</text>
     </g>
    </g>
    <g id="ytick_6">
     <g id="line2d_17">
      <path d="M 35.96 8.080984 
L 211 8.080984 
" clip-path="url(#pdccccf087c)" style="fill: none; stroke-dasharray: 2.96,1.28; stroke-dashoffset: 0; stroke: var(--grid-color); stroke-width: 0.8"/>
     </g>
     <g id="line2d_18">
      <g>
       <use xlink:href="#m0f64e28019" x="35.96" y="8.080984" style="fill: var(--fg-color); stroke: var(--fg-color); stroke-width: 0.8"/>
      </g>
     </g>
     <g id="text_9">
      <text style="font-size: 7px; font-family: 'DejaVu Sans', 'Bitstream Vera Sans', 'Computer Modern Sans Serif', 'Lucida Grande', 'Verdana', 'Geneva', 'Lucid', 'Arial', 'Helvetica', 'Avant Garde', sans-serif; text-anchor: end; fill: var(--fg-color)" x="28.96" y="10.740164" transform="rotate(-0 28.96 10.740164)">250</text>
     </g>
    </g>
    <g id="text_10">
     <text style="font-size: 7px; font-family: 'DejaVu Sans', 'Bitstream Vera Sans', 'Computer Modern Sans Serif', 'Lucida Grande', 'Verdana', 'Geneva', 'Lucid', 'Arial', 'Helvetica', 'Avant Garde', sans-serif; text-anchor: middle; fill: var(--fg-color)" x="9.917109" y="54.2" transform="rotate(-90 9.917109 54.2)">ms</text>
    </g>
   </g>
   <g id="line2d_19">
    <path d="M 43.916364 15.1576 
L 44.468628 38.314504 
L 45.3595 41.47476 
L 46.250371 38.188182 
L 47.141245 31.631502 
L 48.032112 40.960317 
L 48.922979 37.279393 
L 49.81384 40.859259 
L 50.704717 34.929065 
L 51.595589 35.120562 
L 52.486458 26.137028 
L 53.377327 31.58976 
L 54.268192 23.717131 
L 55.159063 21.619447 
L 56.049934 29.649522 
L 56.940797 40.012716 
L 57.831669 41.809789 
L 58.722538 35.830164 
L 59.613407 27.601269 
L 60.504275 31.38142 
L 61.395144 40.579519 
L 62.286016 37.848393 
L 63.176879 29.252613 
L 64.067746 38.010598 
L 64.958622 44.554463 
L 66.740361 31.008677 
L 67.631226 36.817676 
L 68.522078 27.330683 
L 69.412965 33.735776 
L 70.30383 43.656659 
L 71.194705 36.463607 
L 72.085571 26.827224 
L 72.976442 38.692739 
L 73.867306 32.044155 
L 74.758184 20.800365 
L 75.649039 22.197601 
L 76.539914 35.238463 
L 77.430784 40.490544 
L 78.321655 39.832203 
L 79.212509 27.349356 
L 80.103391 39.034725 
L 80.994245 36.70783 
L 81.885129 30.698547 
L 82.775998 31.449524 
L 83.666869 33.432236 
L 84.557735 39.590909 
L 85.44861 38.343796 
L 94.53997 37.235821 
L 95.248438 38.21784 
L 96.139324 24.427831 
L 97.030192 36.013606 
L 97.921065 38.660152 
L 98.811931 28.943948 
L 99.702798 30.852697 
L 100.593666 41.746079 
L 101.484533 44.022079 
L 102.375401 43.034933 
L 103.266272 34.290496 
L 104.157138 31.858882 
L 105.048009 37.167717 
L 105.93888 37.799329 
L 106.829748 22.591946 
L 107.720614 41.583508 
L 108.611487 35.598024 
L 109.502352 36.954617 
L 110.393224 31.644317 
L 111.284094 36.477887 
L 112.17496 36.338017 
L 113.065834 25.609037 
L 113.956695 26.440568 
L 114.847564 24.693657 
L 116.629309 47.108006 
L 117.520178 31.356522 
L 118.41104 31.875725 
L 119.301913 27.435768 
L 120.192782 32.417996 
L 121.083649 29.767789 
L 121.97452 37.947254 
L 125.537994 34.173694 
L 126.428869 27.433571 
L 127.319734 18.652153 
L 128.210603 40.698519 
L 129.101474 42.474355 
L 129.992342 37.477847 
L 130.883214 26.54309 
L 131.774065 27.345695 
L 132.664946 25.456718 
L 133.55582 30.668522 
L 134.446686 27.80668 
L 135.337558 30.616163 
L 136.228424 40.94384 
L 137.119294 40.032489 
L 138.010159 38.142413 
L 138.901032 30.872835 
L 139.791912 21.794834 
L 140.68277 27.087558 
L 141.57364 22.936861 
L 142.464507 34.033824 
L 143.355376 33.181422 
L 144.246246 14.913377 
L 145.137113 9.472727 
L 146.027984 27.937762 
L 146.918849 23.385397 
L 173.644977 23.385397 
L 181.959197 33.586752 
L 182.553652 26.244676 
L 183.444521 22.724127 
L 184.335387 16.924649 
L 185.226256 31.228735 
L 186.117131 22.391295 
L 187.007996 28.068112 
L 187.898864 18.962283 
L 188.789731 21.360578 
L 189.680603 29.107251 
L 190.571474 42.673908 
L 191.462343 30.542566 
L 192.353215 37.265479 
L 193.244077 22.6487 
L 194.134949 46.901496 
L 195.025817 34.750749 
L 195.916688 26.044025 
L 196.807557 23.046341 
L 197.698426 19.01208 
L 198.589295 12.147466 
L 199.480162 28.87328 
L 200.371032 29.522101 
L 201.261898 28.278284 
L 202.152766 46.094864 
L 203.043636 37.358848 
L 203.043636 37.358848 
" clip-path="url(#pdccccf087c)" style="fill: none; stroke: #339af0; stroke-width: 1.2; stroke-linecap: square"/>
   </g>
   <g id="line2d_20">
    <path d="M 43.916364 98.830243 
L 48.032112 98.880039 
L 50.704717 98.870519 
L 51.595589 98.120274 
L 52.486458 98.845987 
L 61.395144 98.849649 
L 62.286016 98.796557 
L 64.067746 98.886264 
L 67.631226 98.850381 
L 72.085571 98.81999 
L 72.976442 98.828412 
L 73.867306 98.494115 
L 74.758184 98.82951 
L 78.321655 98.91995 
L 80.994245 98.837199 
L 85.44861 98.876378 
L 103.266272 98.772757 
L 112.17496 98.791064 
L 113.956695 98.737972 
L 114.847564 98.612016 
L 115.738441 98.786304 
L 118.41104 98.779714 
L 121.97452 98.716735 
L 127.319734 98.707582 
L 128.210603 98.702089 
L 129.101474 98.833904 
L 132.664946 98.714539 
L 138.010159 98.78667 
L 138.901032 98.624465 
L 139.791912 98.725157 
L 140.68277 98.707582 
L 141.57364 98.57833 
L 142.464507 98.721862 
L 146.918849 98.586385 
L 173.644977 98.586385 
L 183.444521 98.797655 
L 184.335387 98.374017 
L 185.226256 98.763969 
L 187.007996 98.748957 
L 187.898864 98.667305 
L 188.789731 98.772757 
L 195.916688 98.725523 
L 197.698426 98.80095 
L 200.371032 98.766166 
L 203.043636 98.8134 
L 203.043636 98.8134 
" clip-path="url(#pdccccf087c)" style="fill: none; stroke: #ff6b6b; stroke-width: 1.2; stroke-linecap: square"/>
   </g>
   <g id="patch_3">
    <path d="M 35.96 103.4 
L 35.96 5 
" style="fill: none; stroke: var(--fg-color); stroke-width: 0.8; stroke-linejoin: miter; stroke-linecap: square"/>
   </g>
   <g id="patch_4">
    <path d="M 35.96 103.4 
L 211 103.4 
" style="fill: none; stroke: var(--fg-color); stroke-width: 0.8; stroke-linejoin: miter; stroke-linecap: square"/>
   </g>
  </g>
 </g>
 <defs>
  <clipPath id="pdccccf087c">
   <rect x="35.96" y="5" width="175.04" height="98.4"/>
  </clipPath>
 </defs>
</svg>
