<?xml version="1.0" encoding="utf-8" standalone="no"?>
<!DOCTYPE svg PUBLIC "-//W3C//DTD SVG 1.1//EN"
  "http://www.w3.org/Graphics/SVG/1.1/DTD/svg11.dtd">
<svg xmlns:xlink="http://www.w3.org/1999/xlink" width="216pt" height="122.4pt" viewBox="0 0 216 122.4" xmlns="http://www.w3.org/2000/svg" version="1.1">
  <style>
    :root {
      --fg-color: #212529;
      --grid-color: rgba(33, 37, 41, 0.1);
    }
    @media (prefers-color-scheme: dark) {
      :root {
        --fg-color: #dee2e6;
        --grid-color: rgba(248, 249, 250, 0.15);
      }
    }
  </style>

 <metadata>
  <rdf:RDF xmlns:dc="http://purl.org/dc/elements/1.1/" xmlns:cc="http://creativecommons.org/ns#" xmlns:rdf="http://www.w3.org/1999/02/22-rdf-syntax-ns#">
   <cc:Work>
    <dc:type rdf:resource="http://purl.org/dc/dcmitype/StillImage"/>
    <dc:date>2026-06-30T04:48:47.001513</dc:date>
    <dc:format>image/svg+xml</dc:format>
    <dc:creator>
     <cc:Agent>
      <dc:title>Matplotlib v3.11.0, https://matplotlib.org/</dc:title>
     </cc:Agent>
    </dc:creator>
   </cc:Work>
  </rdf:RDF>
 </metadata>
 <defs>
  <style type="text/css">*{stroke-linejoin: round; stroke-linecap: butt}</style>
 </defs>
 <g id="figure_1">
  <g id="patch_1">
   <path d="M 0 122.4 
L 216 122.4 
L 216 0 
L 0 0 
L 0 122.4 
z
" style="fill: none; opacity: 0"/>
  </g>
  <g id="axes_1">
   <g id="patch_2">
    <path d="M 35.96 103.4 
L 211 103.4 
L 211 5 
L 35.96 5 
L 35.96 103.4 
z
" style="fill: none; opacity: 0"/>
   </g>
   <g id="matplotlib.axis_1">
    <g id="xtick_1">
     <g id="line2d_1">
      <path d="M 70.996911 103.4 
L 70.996911 5 
" clip-path="url(#p6a494643db)" style="fill: none; stroke-dasharray: 2.96,1.28; stroke-dashoffset: 0; stroke: var(--grid-color); stroke-width: 0.8"/>
     </g>
     <g id="line2d_2">
      <defs>
       <path id="me66b63eda7" d="M 0 0 
L 0 3.5 
" style="stroke: var(--fg-color); stroke-width: 0.8"/>
      </defs>
      <g>
       <use xlink:href="#me66b63eda7" x="70.996911" y="103.4" style="fill: var(--fg-color); stroke: var(--fg-color); stroke-width: 0.8"/>
      </g>
     </g>
     <g id="text_1">
      <text style="font-size: 7px; font-family: 'DejaVu Sans', 'Bitstream Vera Sans', 'Computer Modern Sans Serif', 'Lucida Grande', 'Verdana', 'Geneva', 'Lucid', 'Arial', 'Helvetica', 'Avant Garde', sans-serif; text-anchor: middle; fill: var(--fg-color)" x="70.996911" y="115.718359" transform="rotate(-0 70.996911 115.718359)">02/2026</text>
     </g>
    </g>
    <g id="xtick_2">
     <g id="line2d_3">
      <path d="M 126.022656 103.4 
L 126.022656 5 
" clip-path="url(#p6a494643db)" style="fill: none; stroke-dasharray: 2.96,1.28; stroke-dashoffset: 0; stroke: var(--grid-color); stroke-width: 0.8"/>
     </g>
     <g id="line2d_4">
      <g>
       <use xlink:href="#me66b63eda7" x="126.022656" y="103.4" style="fill: var(--fg-color); stroke: var(--fg-color); stroke-width: 0.8"/>
      </g>
     </g>
     <g id="text_2">
      <text style="font-size: 7px; font-family: 'DejaVu Sans', 'Bitstream Vera Sans', 'Computer Modern Sans Serif', 'Lucida Grande', 'Verdana', 'Geneva', 'Lucid', 'Arial', 'Helvetica', 'Avant Garde', sans-serif; text-anchor: middle; fill: var(--fg-color)" x="126.022656" y="115.718359" transform="rotate(-0 126.022656 115.718359)">04/2026</text>
     </g>
    </g>
    <g id="xtick_3">
     <g id="line2d_5">
      <path d="M 182.913681 103.4 
L 182.913681 5 
" clip-path="url(#p6a494643db)" style="fill: none; stroke-dasharray: 2.96,1.28; stroke-dashoffset: 0; stroke: var(--grid-color); stroke-width: 0.8"/>
     </g>
     <g id="line2d_6">
      <g>
       <use xlink:href="#me66b63eda7" x="182.913681" y="103.4" style="fill: var(--fg-color); stroke: var(--fg-color); stroke-width: 0.8"/>
      </g>
     </g>
     <g id="text_3">
      <text style="font-size: 7px; font-family: 'DejaVu Sans', 'Bitstream Vera Sans', 'Computer Modern Sans Serif', 'Lucida Grande', 'Verdana', 'Geneva', 'Lucid', 'Arial', 'Helvetica', 'Avant Garde', sans-serif; text-anchor: middle; fill: var(--fg-color)" x="182.913681" y="115.718359" transform="rotate(-0 182.913681 115.718359)">06/2026</text>
     </g>
    </g>
   </g>
   <g id="matplotlib.axis_2">
    <g id="ytick_1">
     <g id="line2d_7">
      <path d="M 35.96 80.966013 
L 211 80.966013 
" clip-path="url(#p6a494643db)" style="fill: none; stroke-dasharray: 2.96,1.28; stroke-dashoffset: 0; stroke: var(--grid-color); stroke-width: 0.8"/>
     </g>
     <g id="line2d_8">
      <defs>
       <path id="m47480000ed" d="M 0 0 
L -3.5 0 
" style="stroke: var(--fg-color); stroke-width: 0.8"/>
      </defs>
      <g>
       <use xlink:href="#m47480000ed" x="35.96" y="80.966013" style="fill: var(--fg-color); stroke: var(--fg-color); stroke-width: 0.8"/>
      </g>
     </g>
     <g id="text_4">
      <text style="font-size: 7px; font-family: 'DejaVu Sans', 'Bitstream Vera Sans', 'Computer Modern Sans Serif', 'Lucida Grande', 'Verdana', 'Geneva', 'Lucid', 'Arial', 'Helvetica', 'Avant Garde', sans-serif; text-anchor: end; fill: var(--fg-color)" x="28.96" y="83.625193" transform="rotate(-0 28.96 83.625193)">100</text>
     </g>
    </g>
    <g id="ytick_2">
     <g id="line2d_9">
      <path d="M 35.96 58.460989 
L 211 58.460989 
" clip-path="url(#p6a494643db)" style="fill: none; stroke-dasharray: 2.96,1.28; stroke-dashoffset: 0; stroke: var(--grid-color); stroke-width: 0.8"/>
     </g>
     <g id="line2d_10">
      <g>
       <use xlink:href="#m47480000ed" x="35.96" y="58.460989" style="fill: var(--fg-color); stroke: var(--fg-color); stroke-width: 0.8"/>
      </g>
     </g>
     <g id="text_5">
      <text style="font-size: 7px; font-family: 'DejaVu Sans', 'Bitstream Vera Sans', 'Computer Modern Sans Serif', 'Lucida Grande', 'Verdana', 'Geneva', 'Lucid', 'Arial', 'Helvetica', 'Avant Garde', sans-serif; text-anchor: end; fill: var(--fg-color)" x="28.96" y="61.120168" transform="rotate(-0 28.96 61.120168)">200</text>
     </g>
    </g>
    <g id="ytick_3">
     <g id="line2d_11">
      <path d="M 35.96 35.955965 
L 211 35.955965 
" clip-path="url(#p6a494643db)" style="fill: none; stroke-dasharray: 2.96,1.28; stroke-dashoffset: 0; stroke: var(--grid-color); stroke-width: 0.8"/>
     </g>
     <g id="line2d_12">
      <g>
       <use xlink:href="#m47480000ed" x="35.96" y="35.955965" style="fill: var(--fg-color); stroke: var(--fg-color); stroke-width: 0.8"/>
      </g>
     </g>
     <g id="text_6">
      <text style="font-size: 7px; font-family: 'DejaVu Sans', 'Bitstream Vera Sans', 'Computer Modern Sans Serif', 'Lucida Grande', 'Verdana', 'Geneva', 'Lucid', 'Arial', 'Helvetica', 'Avant Garde', sans-serif; text-anchor: end; fill: var(--fg-color)" x="28.96" y="38.615144" transform="rotate(-0 28.96 38.615144)">300</text>
     </g>
    </g>
    <g id="ytick_4">
     <g id="line2d_13">
      <path d="M 35.96 13.45094 
L 211 13.45094 
" clip-path="url(#p6a494643db)" style="fill: none; stroke-dasharray: 2.96,1.28; stroke-dashoffset: 0; stroke: var(--grid-color); stroke-width: 0.8"/>
     </g>
     <g id="line2d_14">
      <g>
       <use xlink:href="#m47480000ed" x="35.96" y="13.45094" style="fill: var(--fg-color); stroke: var(--fg-color); stroke-width: 0.8"/>
      </g>
     </g>
     <g id="text_7">
      <text style="font-size: 7px; font-family: 'DejaVu Sans', 'Bitstream Vera Sans', 'Computer Modern Sans Serif', 'Lucida Grande', 'Verdana', 'Geneva', 'Lucid', 'Arial', 'Helvetica', 'Avant Garde', sans-serif; text-anchor: end; fill: var(--fg-color)" x="28.96" y="16.11012" transform="rotate(-0 28.96 16.11012)">400</text>
     </g>
    </g>
    <g id="text_8">
     <text style="font-size: 7px; font-family: 'DejaVu Sans', 'Bitstream Vera Sans', 'Computer Modern Sans Serif', 'Lucida Grande', 'Verdana', 'Geneva', 'Lucid', 'Arial', 'Helvetica', 'Avant Garde', sans-serif; text-anchor: middle; fill: var(--fg-color)" x="9.917109" y="54.2" transform="rotate(-90 9.917109 54.2)">ms</text>
    </g>
   </g>
   <g id="line2d_15">
    <path d="M 43.916364 17.098555 
L 44.494523 29.959276 
L 45.427166 45.352487 
L 46.359808 34.416846 
L 47.292453 35.688155 
L 48.22509 26.427337 
L 49.157727 40.07731 
L 50.090359 32.884254 
L 51.023007 35.160862 
L 51.95565 43.929945 
L 52.88829 38.987391 
L 53.82093 40.288407 
L 54.753566 44.338411 
L 55.686208 38.435118 
L 56.618849 41.339842 
L 57.551483 41.688444 
L 58.484126 49.576005 
L 59.416765 34.736642 
L 60.349406 39.513784 
L 61.282045 31.531252 
L 62.214684 44.010063 
L 63.147327 30.078327 
L 64.07996 35.73474 
L 65.012598 42.457891 
L 65.945245 35.71111 
L 66.877884 20.434249 
L 67.810526 44.558285 
L 68.743162 38.343523 
L 69.675784 32.377216 
L 70.608443 38.661744 
L 71.541078 40.784868 
L 72.473724 36.29399 
L 73.406361 42.285953 
L 74.339003 48.036887 
L 75.271637 43.199432 
L 76.204286 40.08001 
L 77.136912 43.669787 
L 78.069558 23.292838 
L 79.002199 39.33802 
L 79.934841 33.469835 
L 80.867465 34.103801 
L 81.800118 27.508029 
L 82.732742 35.75522 
L 83.665398 43.68599 
L 84.598038 39.524361 
L 85.53068 42.617902 
L 86.463316 34.586309 
L 87.395962 41.721077 
L 96.913595 41.73593 
L 97.655282 43.97428 
L 98.587939 43.243992 
L 99.520578 38.839983 
L 100.453222 32.850721 
L 101.385859 29.695742 
L 102.318497 40.036576 
L 103.251135 38.297162 
L 104.183773 37.097194 
L 105.116412 41.196034 
L 106.049054 42.750456 
L 106.981691 33.920835 
L 107.914333 42.189406 
L 108.846974 28.705746 
L 109.779613 36.173363 
L 110.71225 44.695566 
L 111.644893 41.401505 
L 112.57753 38.12995 
L 113.510173 27.906818 
L 114.442814 36.89735 
L 115.37545 30.234737 
L 116.308095 43.899338 
L 117.240726 41.568042 
L 118.173367 41.094087 
L 119.106014 45.437556 
L 120.038653 37.182263 
L 120.971293 33.611841 
L 121.903926 34.628393 
L 122.836569 40.104766 
L 123.769209 26.106866 
L 124.701847 36.469979 
L 125.634489 33.259863 
L 129.365046 36.295115 
L 130.297692 39.624058 
L 131.230328 41.583571 
L 132.162968 41.234743 
L 133.095609 41.461819 
L 134.028248 27.818148 
L 134.960891 34.602287 
L 135.893512 41.335115 
L 136.826165 43.332436 
L 137.75881 34.617141 
L 138.691446 37.690877 
L 139.624089 37.519614 
L 140.556726 40.073259 
L 141.489366 35.37466 
L 142.422003 43.063276 
L 143.354646 42.890888 
L 144.287298 43.986882 
L 145.219926 40.121194 
L 146.152567 42.629829 
L 147.085204 38.052533 
L 148.017844 41.240819 
L 148.950485 37.830858 
L 149.883123 35.515991 
L 150.815765 39.537864 
L 151.7484 43.631303 
L 179.727656 43.631303 
L 188.43171 38.539766 
L 189.054038 29.524929 
L 189.986678 24.861213 
L 190.919315 37.565074 
L 191.851955 31.560283 
L 192.7846 38.566772 
L 193.717237 37.351501 
L 194.649875 37.893197 
L 195.582513 9.472727 
L 196.515156 19.400144 
L 197.447798 32.105805 
L 198.380437 28.506351 
L 199.313081 34.340779 
L 200.245713 39.352198 
L 201.178356 33.118306 
L 202.110995 32.074073 
L 203.043636 30.110285 
" clip-path="url(#p6a494643db)" style="fill: none; stroke: #339af0; stroke-width: 1.2; stroke-linecap: square"/>
   </g>
   <g id="line2d_16">
    <path d="M 43.916364 97.03235 
L 44.494523 97.685445 
L 45.427166 96.929502 
L 46.359808 97.004443 
L 47.292453 97.485376 
L 48.22509 97.626932 
L 49.157727 95.585052 
L 50.090359 98.169304 
L 51.023007 97.90712 
L 51.95565 96.96731 
L 52.88829 97.249073 
L 53.82093 96.064634 
L 54.753566 96.068009 
L 55.686208 96.237022 
L 56.618849 96.746761 
L 57.551483 95.621285 
L 58.484126 98.883838 
L 59.416765 97.087262 
L 60.349406 97.948979 
L 61.282045 96.666643 
L 62.214684 94.650868 
L 63.147327 97.363399 
L 64.07996 94.583353 
L 65.012598 97.86256 
L 65.945245 97.214415 
L 66.877884 96.34122 
L 67.810526 97.184709 
L 68.743162 97.929625 
L 69.675784 97.656414 
L 70.608443 96.208666 
L 71.541078 96.778943 
L 72.473724 96.224869 
L 73.406361 97.30061 
L 74.339003 97.645612 
L 75.271637 98.214539 
L 76.204286 95.439219 
L 77.136912 97.272703 
L 78.069558 97.464221 
L 79.002199 95.95841 
L 79.934841 95.321743 
L 80.867465 97.150501 
L 81.800118 96.807074 
L 82.732742 97.92805 
L 83.665398 97.179082 
L 84.598038 98.864259 
L 85.53068 97.697148 
L 86.463316 96.021424 
L 87.395962 95.441695 
L 96.913595 96.746086 
L 97.655282 97.115843 
L 98.587939 96.442718 
L 99.520578 97.666541 
L 100.453222 95.679573 
L 101.385859 96.69725 
L 102.318497 96.8091 
L 103.251135 97.129796 
L 104.183773 98.290831 
L 105.116412 97.845006 
L 106.049054 97.693997 
L 106.981691 96.814276 
L 107.914333 96.31534 
L 108.846974 97.157253 
L 109.779613 96.710078 
L 110.71225 97.173231 
L 111.644893 97.52701 
L 112.57753 97.268877 
L 113.510173 95.399385 
L 114.442814 96.024575 
L 115.37545 98.24132 
L 116.308095 96.850509 
L 117.240726 96.752837 
L 118.173367 96.605429 
L 119.106014 96.568521 
L 120.038653 98.436438 
L 120.971293 97.744859 
L 121.903926 97.21194 
L 122.836569 97.005119 
L 123.769209 97.672618 
L 124.701847 96.627484 
L 125.634489 95.28731 
L 129.365046 96.131023 
L 130.297692 98.890364 
L 131.230328 97.533312 
L 132.162968 96.571222 
L 133.095609 96.118421 
L 134.028248 96.74181 
L 134.960891 97.162204 
L 135.893512 95.632987 
L 136.826165 96.846233 
L 137.75881 96.792896 
L 138.691446 95.683173 
L 139.624089 97.106166 
L 140.556726 97.478399 
L 141.489366 96.553218 
L 142.422003 97.323115 
L 143.354646 96.991391 
L 144.287298 97.353946 
L 145.219926 97.968109 
L 146.152567 95.869515 
L 147.085204 97.015021 
L 148.017844 97.854908 
L 148.950485 96.979013 
L 149.883123 95.740336 
L 150.815765 98.89149 
L 151.7484 95.929378 
L 179.727656 95.929378 
L 188.43171 96.065759 
L 189.054038 97.532636 
L 189.986678 95.639064 
L 190.919315 95.305989 
L 191.851955 98.927273 
L 192.7846 95.749113 
L 193.717237 98.167278 
L 194.649875 96.857486 
L 195.582513 95.144403 
L 196.515156 96.631985 
L 197.447798 98.044626 
L 198.380437 97.409759 
L 199.313081 97.900819 
L 200.245713 97.453644 
L 201.178356 96.686447 
L 202.110995 96.293285 
L 203.043636 96.806624 
" clip-path="url(#p6a494643db)" style="fill: none; stroke: #ff6b6b; stroke-width: 1.2; stroke-linecap: square"/>
   </g>
   <g id="patch_3">
    <path d="M 35.96 103.4 
L 35.96 5 
" style="fill: none; stroke: var(--fg-color); stroke-width: 0.8; stroke-linejoin: miter; stroke-linecap: square"/>
   </g>
   <g id="patch_4">
    <path d="M 35.96 103.4 
L 211 103.4 
" style="fill: none; stroke: var(--fg-color); stroke-width: 0.8; stroke-linejoin: miter; stroke-linecap: square"/>
   </g>
  </g>
 </g>
 <defs>
  <clipPath id="p6a494643db">
   <rect x="35.96" y="5" width="175.04" height="98.4"/>
  </clipPath>
 </defs>
</svg>
