<?xml version="1.0" encoding="utf-8" standalone="no"?>
<!DOCTYPE svg PUBLIC "-//W3C//DTD SVG 1.1//EN"
  "http://www.w3.org/Graphics/SVG/1.1/DTD/svg11.dtd">
<svg xmlns:xlink="http://www.w3.org/1999/xlink" width="216pt" height="122.4pt" viewBox="0 0 216 122.4" xmlns="http://www.w3.org/2000/svg" version="1.1">
  <style>
    :root {
      --fg-color: #212529;
      --grid-color: rgba(33, 37, 41, 0.1);
    }
    @media (prefers-color-scheme: dark) {
      :root {
        --fg-color: #dee2e6;
        --grid-color: rgba(248, 249, 250, 0.15);
      }
    }
  </style>

 <metadata>
  <rdf:RDF xmlns:dc="http://purl.org/dc/elements/1.1/" xmlns:cc="http://creativecommons.org/ns#" xmlns:rdf="http://www.w3.org/1999/02/22-rdf-syntax-ns#">
   <cc:Work>
    <dc:type rdf:resource="http://purl.org/dc/dcmitype/StillImage"/>
    <dc:date>2026-06-30T15:37:56.523724</dc:date>
    <dc:format>image/svg+xml</dc:format>
    <dc:creator>
     <cc:Agent>
      <dc:title>Matplotlib v3.11.0, https://matplotlib.org/</dc:title>
     </cc:Agent>
    </dc:creator>
   </cc:Work>
  </rdf:RDF>
 </metadata>
 <defs>
  <style type="text/css">*{stroke-linejoin: round; stroke-linecap: butt}</style>
 </defs>
 <g id="figure_1">
  <g id="patch_1">
   <path d="M 0 122.4 
L 216 122.4 
L 216 0 
L 0 0 
L 0 122.4 
z
" style="fill: none; opacity: 0"/>
  </g>
  <g id="axes_1">
   <g id="patch_2">
    <path d="M 35.96 103.4 
L 211 103.4 
L 211 5 
L 35.96 5 
L 35.96 103.4 
z
" style="fill: none; opacity: 0"/>
   </g>
   <g id="matplotlib.axis_1">
    <g id="xtick_1">
     <g id="line2d_1">
      <path d="M 69.784035 103.4 
L 69.784035 5 
" clip-path="url(#pc661194bbf)" style="fill: none; stroke-dasharray: 2.96,1.28; stroke-dashoffset: 0; stroke: var(--grid-color); stroke-width: 0.8"/>
     </g>
     <g id="line2d_2">
      <defs>
       <path id="m7226e5bb89" d="M 0 0 
L 0 3.5 
" style="stroke: var(--fg-color); stroke-width: 0.8"/>
      </defs>
      <g>
       <use xlink:href="#m7226e5bb89" x="69.784035" y="103.4" style="fill: var(--fg-color); stroke: var(--fg-color); stroke-width: 0.8"/>
      </g>
     </g>
     <g id="text_1">
      <text style="font-size: 7px; font-family: 'DejaVu Sans', 'Bitstream Vera Sans', 'Computer Modern Sans Serif', 'Lucida Grande', 'Verdana', 'Geneva', 'Lucid', 'Arial', 'Helvetica', 'Avant Garde', sans-serif; text-anchor: middle; fill: var(--fg-color)" x="69.784035" y="115.718359" transform="rotate(-0 69.784035 115.718359)">02/2026</text>
     </g>
    </g>
    <g id="xtick_2">
     <g id="line2d_3">
      <path d="M 122.345302 103.4 
L 122.345302 5 
" clip-path="url(#pc661194bbf)" style="fill: none; stroke-dasharray: 2.96,1.28; stroke-dashoffset: 0; stroke: var(--grid-color); stroke-width: 0.8"/>
     </g>
     <g id="line2d_4">
      <g>
       <use xlink:href="#m7226e5bb89" x="122.345302" y="103.4" style="fill: var(--fg-color); stroke: var(--fg-color); stroke-width: 0.8"/>
      </g>
     </g>
     <g id="text_2">
      <text style="font-size: 7px; font-family: 'DejaVu Sans', 'Bitstream Vera Sans', 'Computer Modern Sans Serif', 'Lucida Grande', 'Verdana', 'Geneva', 'Lucid', 'Arial', 'Helvetica', 'Avant Garde', sans-serif; text-anchor: middle; fill: var(--fg-color)" x="122.345302" y="115.718359" transform="rotate(-0 122.345302 115.718359)">04/2026</text>
     </g>
    </g>
    <g id="xtick_3">
     <g id="line2d_5">
      <path d="M 176.688307 103.4 
L 176.688307 5 
" clip-path="url(#pc661194bbf)" style="fill: none; stroke-dasharray: 2.96,1.28; stroke-dashoffset: 0; stroke: var(--grid-color); stroke-width: 0.8"/>
     </g>
     <g id="line2d_6">
      <g>
       <use xlink:href="#m7226e5bb89" x="176.688307" y="103.4" style="fill: var(--fg-color); stroke: var(--fg-color); stroke-width: 0.8"/>
      </g>
     </g>
     <g id="text_3">
      <text style="font-size: 7px; font-family: 'DejaVu Sans', 'Bitstream Vera Sans', 'Computer Modern Sans Serif', 'Lucida Grande', 'Verdana', 'Geneva', 'Lucid', 'Arial', 'Helvetica', 'Avant Garde', sans-serif; text-anchor: middle; fill: var(--fg-color)" x="176.688307" y="115.718359" transform="rotate(-0 176.688307 115.718359)">06/2026</text>
     </g>
    </g>
   </g>
   <g id="matplotlib.axis_2">
    <g id="ytick_1">
     <g id="line2d_7">
      <path d="M 35.96 100.638356 
L 211 100.638356 
" clip-path="url(#pc661194bbf)" style="fill: none; stroke-dasharray: 2.96,1.28; stroke-dashoffset: 0; stroke: var(--grid-color); stroke-width: 0.8"/>
     </g>
     <g id="line2d_8">
      <defs>
       <path id="m3875bbae42" d="M 0 0 
L -3.5 0 
" style="stroke: var(--fg-color); stroke-width: 0.8"/>
      </defs>
      <g>
       <use xlink:href="#m3875bbae42" x="35.96" y="100.638356" style="fill: var(--fg-color); stroke: var(--fg-color); stroke-width: 0.8"/>
      </g>
     </g>
     <g id="text_4">
      <text style="font-size: 7px; font-family: 'DejaVu Sans', 'Bitstream Vera Sans', 'Computer Modern Sans Serif', 'Lucida Grande', 'Verdana', 'Geneva', 'Lucid', 'Arial', 'Helvetica', 'Avant Garde', sans-serif; text-anchor: end; fill: var(--fg-color)" x="28.96" y="103.297535" transform="rotate(-0 28.96 103.297535)">0</text>
     </g>
    </g>
    <g id="ytick_2">
     <g id="line2d_9">
      <path d="M 35.96 74.010858 
L 211 74.010858 
" clip-path="url(#pc661194bbf)" style="fill: none; stroke-dasharray: 2.96,1.28; stroke-dashoffset: 0; stroke: var(--grid-color); stroke-width: 0.8"/>
     </g>
     <g id="line2d_10">
      <g>
       <use xlink:href="#m3875bbae42" x="35.96" y="74.010858" style="fill: var(--fg-color); stroke: var(--fg-color); stroke-width: 0.8"/>
      </g>
     </g>
     <g id="text_5">
      <text style="font-size: 7px; font-family: 'DejaVu Sans', 'Bitstream Vera Sans', 'Computer Modern Sans Serif', 'Lucida Grande', 'Verdana', 'Geneva', 'Lucid', 'Arial', 'Helvetica', 'Avant Garde', sans-serif; text-anchor: end; fill: var(--fg-color)" x="28.96" y="76.670038" transform="rotate(-0 28.96 76.670038)">100</text>
     </g>
    </g>
    <g id="ytick_3">
     <g id="line2d_11">
      <path d="M 35.96 47.383361 
L 211 47.383361 
" clip-path="url(#pc661194bbf)" style="fill: none; stroke-dasharray: 2.96,1.28; stroke-dashoffset: 0; stroke: var(--grid-color); stroke-width: 0.8"/>
     </g>
     <g id="line2d_12">
      <g>
       <use xlink:href="#m3875bbae42" x="35.96" y="47.383361" style="fill: var(--fg-color); stroke: var(--fg-color); stroke-width: 0.8"/>
      </g>
     </g>
     <g id="text_6">
      <text style="font-size: 7px; font-family: 'DejaVu Sans', 'Bitstream Vera Sans', 'Computer Modern Sans Serif', 'Lucida Grande', 'Verdana', 'Geneva', 'Lucid', 'Arial', 'Helvetica', 'Avant Garde', sans-serif; text-anchor: end; fill: var(--fg-color)" x="28.96" y="50.04254" transform="rotate(-0 28.96 50.04254)">200</text>
     </g>
    </g>
    <g id="ytick_4">
     <g id="line2d_13">
      <path d="M 35.96 20.755863 
L 211 20.755863 
" clip-path="url(#pc661194bbf)" style="fill: none; stroke-dasharray: 2.96,1.28; stroke-dashoffset: 0; stroke: var(--grid-color); stroke-width: 0.8"/>
     </g>
     <g id="line2d_14">
      <g>
       <use xlink:href="#m3875bbae42" x="35.96" y="20.755863" style="fill: var(--fg-color); stroke: var(--fg-color); stroke-width: 0.8"/>
      </g>
     </g>
     <g id="text_7">
      <text style="font-size: 7px; font-family: 'DejaVu Sans', 'Bitstream Vera Sans', 'Computer Modern Sans Serif', 'Lucida Grande', 'Verdana', 'Geneva', 'Lucid', 'Arial', 'Helvetica', 'Avant Garde', sans-serif; text-anchor: end; fill: var(--fg-color)" x="28.96" y="23.415043" transform="rotate(-0 28.96 23.415043)">300</text>
     </g>
    </g>
    <g id="text_8">
     <text style="font-size: 7px; font-family: 'DejaVu Sans', 'Bitstream Vera Sans', 'Computer Modern Sans Serif', 'Lucida Grande', 'Verdana', 'Geneva', 'Lucid', 'Arial', 'Helvetica', 'Avant Garde', sans-serif; text-anchor: middle; fill: var(--fg-color)" x="9.917109" y="54.2" transform="rotate(-90 9.917109 54.2)">ms</text>
    </g>
   </g>
   <g id="line2d_15">
    <path d="M 43.916364 20.47015 
L 44.468628 28.426713 
L 45.3595 28.003069 
L 46.250371 21.622854 
L 47.141245 24.277616 
L 48.032112 24.093886 
L 48.922979 26.010001 
L 49.81384 24.024921 
L 50.704717 31.653965 
L 51.595589 28.920653 
L 52.486458 27.666764 
L 53.377327 23.852641 
L 54.268192 27.070574 
L 55.159063 28.479169 
L 56.049934 23.121184 
L 56.940797 24.334332 
L 57.831669 32.653828 
L 58.722538 23.987376 
L 59.613407 30.780583 
L 60.504275 30.792299 
L 61.395144 29.373054 
L 62.286016 25.608725 
L 63.176879 22.41023 
L 64.067746 32.800013 
L 64.958622 20.611542 
L 65.84949 30.150044 
L 66.740361 29.686992 
L 67.631226 29.771667 
L 68.522078 18.559095 
L 69.412965 18.157818 
L 70.30383 27.308624 
L 71.194705 19.861712 
L 72.976442 33.639311 
L 73.867306 24.747591 
L 74.758184 30.365194 
L 75.649039 25.320881 
L 76.539914 34.526273 
L 77.430784 28.56198 
L 78.321655 9.880927 
L 79.212509 34.033665 
L 80.103391 21.217318 
L 80.994245 26.976579 
L 81.885129 29.970575 
L 82.775998 23.930393 
L 83.666869 25.094015 
L 84.557735 32.74303 
L 85.44861 28.781125 
L 94.53997 28.834646 
L 95.248438 30.196376 
L 96.139324 16.798751 
L 97.030192 29.303024 
L 97.921065 20.378019 
L 98.811931 24.272823 
L 99.702798 19.75387 
L 100.593666 33.629193 
L 101.484533 20.998173 
L 102.375401 28.980298 
L 103.266272 25.165909 
L 104.157138 29.996137 
L 105.048009 25.231147 
L 105.93888 18.676522 
L 106.829748 27.364542 
L 107.720614 30.429633 
L 108.611487 29.313675 
L 109.502352 21.695015 
L 110.393224 24.300516 
L 111.284094 16.064098 
L 112.17496 31.64864 
L 113.065834 27.021313 
L 113.956695 26.833323 
L 114.847564 27.385045 
L 115.738441 15.735515 
L 116.629309 24.108265 
L 117.520178 20.607282 
L 118.41104 22.601947 
L 119.301913 27.8915 
L 120.192782 31.425501 
L 121.083649 28.408073 
L 121.97452 24.87993 
L 125.537994 21.867561 
L 126.428869 21.314774 
L 127.319734 25.101471 
L 128.210603 27.392234 
L 129.101474 24.261373 
L 129.992342 19.060757 
L 130.883214 29.294236 
L 131.774065 29.14459 
L 132.664946 30.201702 
L 133.55582 19.190166 
L 134.446686 19.535259 
L 135.337558 23.141421 
L 136.228424 11.209106 
L 137.119294 16.490937 
L 138.010159 18.432348 
L 138.901032 15.090064 
L 139.791912 9.472727 
L 140.68277 26.176423 
L 141.57364 19.906978 
L 142.464507 18.085125 
L 143.355376 12.667761 
L 144.246246 27.697119 
L 145.137113 26.100534 
L 146.027984 10.732474 
L 146.918849 15.305481 
L 173.644977 15.305481 
L 181.959197 25.384787 
L 182.553652 27.586881 
L 183.444521 20.668525 
L 184.335387 19.00404 
L 185.226256 14.110439 
L 186.117131 14.766806 
L 187.007996 21.706198 
L 187.898864 23.441512 
L 188.789731 16.75162 
L 189.680603 18.691699 
L 190.571474 19.075402 
L 191.462343 20.188697 
L 192.353215 18.134386 
L 193.244077 19.642035 
L 194.134949 15.991671 
L 195.025817 16.931622 
L 195.916688 14.142125 
L 196.807557 15.776521 
L 197.698426 23.003756 
L 198.589295 22.173511 
L 199.480162 19.966624 
L 200.371032 23.397843 
L 201.261898 16.072885 
L 202.152766 21.791406 
L 203.043636 25.900828 
L 203.043636 25.900828 
" clip-path="url(#pc661194bbf)" style="fill: none; stroke: #339af0; stroke-width: 1.2; stroke-linecap: square"/>
   </g>
   <g id="line2d_16">
    <path d="M 43.916364 97.044442 
L 44.468628 97.542377 
L 46.250371 97.80945 
L 47.141245 97.258527 
L 48.032112 98.318568 
L 48.922979 97.58285 
L 50.704717 97.493915 
L 51.595589 97.790811 
L 52.486458 98.227768 
L 53.377327 97.563679 
L 54.268192 98.309515 
L 55.159063 98.235757 
L 56.049934 97.824628 
L 56.940797 97.924481 
L 57.831669 98.245875 
L 58.722538 97.816374 
L 59.613407 97.663532 
L 60.504275 97.277699 
L 61.395144 97.407375 
L 62.286016 98.200875 
L 63.176879 98.462889 
L 64.958622 97.336013 
L 65.84949 97.655543 
L 66.740361 96.621065 
L 67.631226 97.025271 
L 68.522078 97.810782 
L 69.412965 97.229237 
L 71.194705 98.294071 
L 72.085571 98.027263 
L 72.976442 97.433736 
L 73.867306 97.732763 
L 74.758184 97.175982 
L 75.649039 97.606549 
L 76.539914 98.420285 
L 77.430784 97.153083 
L 79.212509 97.276634 
L 80.103391 97.017016 
L 80.994245 98.086643 
L 81.885129 97.250273 
L 82.775998 97.885072 
L 83.666869 98.118862 
L 84.557735 98.796532 
L 85.44861 97.650484 
L 94.53997 97.442257 
L 95.248438 97.842735 
L 96.139324 97.265717 
L 97.030192 97.55569 
L 97.921065 97.345067 
L 98.811931 96.958169 
L 99.702798 95.734369 
L 101.484533 98.731827 
L 102.375401 97.403647 
L 103.266272 97.436665 
L 104.157138 97.734893 
L 105.048009 97.431872 
L 105.93888 97.88454 
L 106.829748 97.113141 
L 107.720614 97.984393 
L 109.502352 97.692822 
L 110.393224 97.862173 
L 111.284094 98.419486 
L 112.17496 96.131918 
L 113.065834 98.008358 
L 113.956695 97.374357 
L 114.847564 97.856581 
L 115.738441 98.927273 
L 116.629309 97.112342 
L 117.520178 98.543304 
L 118.41104 97.181308 
L 119.301913 97.695485 
L 120.192782 97.705337 
L 121.083649 98.099158 
L 121.97452 97.74874 
L 125.537994 97.885339 
L 126.428869 97.223113 
L 127.319734 97.940458 
L 128.210603 97.865901 
L 129.101474 96.749942 
L 129.992342 97.320037 
L 130.883214 97.40844 
L 131.774065 97.645425 
L 134.446686 97.089975 
L 135.337558 97.4356 
L 136.228424 97.344268 
L 137.119294 96.968288 
L 138.010159 98.083714 
L 138.901032 97.148822 
L 139.791912 97.121928 
L 140.68277 98.239484 
L 141.57364 97.652082 
L 142.464507 97.636638 
L 143.355376 97.168793 
L 144.246246 98.255994 
L 145.137113 97.046306 
L 146.027984 96.991454 
L 146.918849 97.956168 
L 173.644977 97.956168 
L 181.959197 98.083714 
L 182.553652 97.320303 
L 184.335387 98.174513 
L 185.226256 97.431606 
L 186.117131 97.367966 
L 187.898864 97.80306 
L 188.789731 97.507228 
L 189.680603 97.906907 
L 190.571474 97.287818 
L 191.462343 97.416429 
L 192.353215 98.297532 
L 193.244077 97.105153 
L 195.025817 97.520009 
L 195.916688 96.914234 
L 196.807557 96.954441 
L 197.698426 96.052568 
L 198.589295 98.000636 
L 199.480162 97.319504 
L 200.371032 98.129779 
L 201.261898 97.643295 
L 202.152766 96.688433 
L 203.043636 97.424417 
L 203.043636 97.424417 
" clip-path="url(#pc661194bbf)" style="fill: none; stroke: #ff6b6b; stroke-width: 1.2; stroke-linecap: square"/>
   </g>
   <g id="patch_3">
    <path d="M 35.96 103.4 
L 35.96 5 
" style="fill: none; stroke: var(--fg-color); stroke-width: 0.8; stroke-linejoin: miter; stroke-linecap: square"/>
   </g>
   <g id="patch_4">
    <path d="M 35.96 103.4 
L 211 103.4 
" style="fill: none; stroke: var(--fg-color); stroke-width: 0.8; stroke-linejoin: miter; stroke-linecap: square"/>
   </g>
  </g>
 </g>
 <defs>
  <clipPath id="pc661194bbf">
   <rect x="35.96" y="5" width="175.04" height="98.4"/>
  </clipPath>
 </defs>
</svg>
