<?xml version="1.0" encoding="utf-8" standalone="no"?>
<!DOCTYPE svg PUBLIC "-//W3C//DTD SVG 1.1//EN"
  "http://www.w3.org/Graphics/SVG/1.1/DTD/svg11.dtd">
<svg xmlns:xlink="http://www.w3.org/1999/xlink" width="216pt" height="122.4pt" viewBox="0 0 216 122.4" xmlns="http://www.w3.org/2000/svg" version="1.1">
  <style>
    :root {
      --fg-color: #212529;
      --grid-color: rgba(33, 37, 41, 0.1);
    }
    @media (prefers-color-scheme: dark) {
      :root {
        --fg-color: #dee2e6;
        --grid-color: rgba(248, 249, 250, 0.15);
      }
    }
  </style>

 <metadata>
  <rdf:RDF xmlns:dc="http://purl.org/dc/elements/1.1/" xmlns:cc="http://creativecommons.org/ns#" xmlns:rdf="http://www.w3.org/1999/02/22-rdf-syntax-ns#">
   <cc:Work>
    <dc:type rdf:resource="http://purl.org/dc/dcmitype/StillImage"/>
    <dc:date>2026-06-30T04:49:17.295920</dc:date>
    <dc:format>image/svg+xml</dc:format>
    <dc:creator>
     <cc:Agent>
      <dc:title>Matplotlib v3.11.0, https://matplotlib.org/</dc:title>
     </cc:Agent>
    </dc:creator>
   </cc:Work>
  </rdf:RDF>
 </metadata>
 <defs>
  <style type="text/css">*{stroke-linejoin: round; stroke-linecap: butt}</style>
 </defs>
 <g id="figure_1">
  <g id="patch_1">
   <path d="M 0 122.4 
L 216 122.4 
L 216 0 
L 0 0 
L 0 122.4 
z
" style="fill: none; opacity: 0"/>
  </g>
  <g id="axes_1">
   <g id="patch_2">
    <path d="M 35.96 103.4 
L 211 103.4 
L 211 5 
L 35.96 5 
L 35.96 103.4 
z
" style="fill: none; opacity: 0"/>
   </g>
   <g id="matplotlib.axis_1">
    <g id="xtick_1">
     <g id="line2d_1">
      <path d="M 70.996911 103.4 
L 70.996911 5 
" clip-path="url(#pb8dfaba0c1)" style="fill: none; stroke-dasharray: 2.96,1.28; stroke-dashoffset: 0; stroke: var(--grid-color); stroke-width: 0.8"/>
     </g>
     <g id="line2d_2">
      <defs>
       <path id="mfcf5a846ad" d="M 0 0 
L 0 3.5 
" style="stroke: var(--fg-color); stroke-width: 0.8"/>
      </defs>
      <g>
       <use xlink:href="#mfcf5a846ad" x="70.996911" y="103.4" style="fill: var(--fg-color); stroke: var(--fg-color); stroke-width: 0.8"/>
      </g>
     </g>
     <g id="text_1">
      <text style="font-size: 7px; font-family: 'DejaVu Sans', 'Bitstream Vera Sans', 'Computer Modern Sans Serif', 'Lucida Grande', 'Verdana', 'Geneva', 'Lucid', 'Arial', 'Helvetica', 'Avant Garde', sans-serif; text-anchor: middle; fill: var(--fg-color)" x="70.996911" y="115.718359" transform="rotate(-0 70.996911 115.718359)">02/2026</text>
     </g>
    </g>
    <g id="xtick_2">
     <g id="line2d_3">
      <path d="M 126.022656 103.4 
L 126.022656 5 
" clip-path="url(#pb8dfaba0c1)" style="fill: none; stroke-dasharray: 2.96,1.28; stroke-dashoffset: 0; stroke: var(--grid-color); stroke-width: 0.8"/>
     </g>
     <g id="line2d_4">
      <g>
       <use xlink:href="#mfcf5a846ad" x="126.022656" y="103.4" style="fill: var(--fg-color); stroke: var(--fg-color); stroke-width: 0.8"/>
      </g>
     </g>
     <g id="text_2">
      <text style="font-size: 7px; font-family: 'DejaVu Sans', 'Bitstream Vera Sans', 'Computer Modern Sans Serif', 'Lucida Grande', 'Verdana', 'Geneva', 'Lucid', 'Arial', 'Helvetica', 'Avant Garde', sans-serif; text-anchor: middle; fill: var(--fg-color)" x="126.022656" y="115.718359" transform="rotate(-0 126.022656 115.718359)">04/2026</text>
     </g>
    </g>
    <g id="xtick_3">
     <g id="line2d_5">
      <path d="M 182.913681 103.4 
L 182.913681 5 
" clip-path="url(#pb8dfaba0c1)" style="fill: none; stroke-dasharray: 2.96,1.28; stroke-dashoffset: 0; stroke: var(--grid-color); stroke-width: 0.8"/>
     </g>
     <g id="line2d_6">
      <g>
       <use xlink:href="#mfcf5a846ad" x="182.913681" y="103.4" style="fill: var(--fg-color); stroke: var(--fg-color); stroke-width: 0.8"/>
      </g>
     </g>
     <g id="text_3">
      <text style="font-size: 7px; font-family: 'DejaVu Sans', 'Bitstream Vera Sans', 'Computer Modern Sans Serif', 'Lucida Grande', 'Verdana', 'Geneva', 'Lucid', 'Arial', 'Helvetica', 'Avant Garde', sans-serif; text-anchor: middle; fill: var(--fg-color)" x="182.913681" y="115.718359" transform="rotate(-0 182.913681 115.718359)">06/2026</text>
     </g>
    </g>
   </g>
   <g id="matplotlib.axis_2">
    <g id="ytick_1">
     <g id="line2d_7">
      <path d="M 35.96 99.515275 
L 211 99.515275 
" clip-path="url(#pb8dfaba0c1)" style="fill: none; stroke-dasharray: 2.96,1.28; stroke-dashoffset: 0; stroke: var(--grid-color); stroke-width: 0.8"/>
     </g>
     <g id="line2d_8">
      <defs>
       <path id="mf6fbc241fd" d="M 0 0 
L -3.5 0 
" style="stroke: var(--fg-color); stroke-width: 0.8"/>
      </defs>
      <g>
       <use xlink:href="#mf6fbc241fd" x="35.96" y="99.515275" style="fill: var(--fg-color); stroke: var(--fg-color); stroke-width: 0.8"/>
      </g>
     </g>
     <g id="text_4">
      <text style="font-size: 7px; font-family: 'DejaVu Sans', 'Bitstream Vera Sans', 'Computer Modern Sans Serif', 'Lucida Grande', 'Verdana', 'Geneva', 'Lucid', 'Arial', 'Helvetica', 'Avant Garde', sans-serif; text-anchor: end; fill: var(--fg-color)" x="28.96" y="102.174455" transform="rotate(-0 28.96 102.174455)">0</text>
     </g>
    </g>
    <g id="ytick_2">
     <g id="line2d_9">
      <path d="M 35.96 74.148462 
L 211 74.148462 
" clip-path="url(#pb8dfaba0c1)" style="fill: none; stroke-dasharray: 2.96,1.28; stroke-dashoffset: 0; stroke: var(--grid-color); stroke-width: 0.8"/>
     </g>
     <g id="line2d_10">
      <g>
       <use xlink:href="#mf6fbc241fd" x="35.96" y="74.148462" style="fill: var(--fg-color); stroke: var(--fg-color); stroke-width: 0.8"/>
      </g>
     </g>
     <g id="text_5">
      <text style="font-size: 7px; font-family: 'DejaVu Sans', 'Bitstream Vera Sans', 'Computer Modern Sans Serif', 'Lucida Grande', 'Verdana', 'Geneva', 'Lucid', 'Arial', 'Helvetica', 'Avant Garde', sans-serif; text-anchor: end; fill: var(--fg-color)" x="28.96" y="76.807642" transform="rotate(-0 28.96 76.807642)">100</text>
     </g>
    </g>
    <g id="ytick_3">
     <g id="line2d_11">
      <path d="M 35.96 48.781649 
L 211 48.781649 
" clip-path="url(#pb8dfaba0c1)" style="fill: none; stroke-dasharray: 2.96,1.28; stroke-dashoffset: 0; stroke: var(--grid-color); stroke-width: 0.8"/>
     </g>
     <g id="line2d_12">
      <g>
       <use xlink:href="#mf6fbc241fd" x="35.96" y="48.781649" style="fill: var(--fg-color); stroke: var(--fg-color); stroke-width: 0.8"/>
      </g>
     </g>
     <g id="text_6">
      <text style="font-size: 7px; font-family: 'DejaVu Sans', 'Bitstream Vera Sans', 'Computer Modern Sans Serif', 'Lucida Grande', 'Verdana', 'Geneva', 'Lucid', 'Arial', 'Helvetica', 'Avant Garde', sans-serif; text-anchor: end; fill: var(--fg-color)" x="28.96" y="51.440828" transform="rotate(-0 28.96 51.440828)">200</text>
     </g>
    </g>
    <g id="ytick_4">
     <g id="line2d_13">
      <path d="M 35.96 23.414835 
L 211 23.414835 
" clip-path="url(#pb8dfaba0c1)" style="fill: none; stroke-dasharray: 2.96,1.28; stroke-dashoffset: 0; stroke: var(--grid-color); stroke-width: 0.8"/>
     </g>
     <g id="line2d_14">
      <g>
       <use xlink:href="#mf6fbc241fd" x="35.96" y="23.414835" style="fill: var(--fg-color); stroke: var(--fg-color); stroke-width: 0.8"/>
      </g>
     </g>
     <g id="text_7">
      <text style="font-size: 7px; font-family: 'DejaVu Sans', 'Bitstream Vera Sans', 'Computer Modern Sans Serif', 'Lucida Grande', 'Verdana', 'Geneva', 'Lucid', 'Arial', 'Helvetica', 'Avant Garde', sans-serif; text-anchor: end; fill: var(--fg-color)" x="28.96" y="26.074015" transform="rotate(-0 28.96 26.074015)">300</text>
     </g>
    </g>
    <g id="text_8">
     <text style="font-size: 7px; font-family: 'DejaVu Sans', 'Bitstream Vera Sans', 'Computer Modern Sans Serif', 'Lucida Grande', 'Verdana', 'Geneva', 'Lucid', 'Arial', 'Helvetica', 'Avant Garde', sans-serif; text-anchor: middle; fill: var(--fg-color)" x="9.917109" y="54.2" transform="rotate(-90 9.917109 54.2)">ms</text>
    </g>
   </g>
   <g id="line2d_15">
    <path d="M 43.916364 20.783536 
L 44.494523 32.8693 
L 45.427166 32.455568 
L 46.359808 19.749077 
L 47.292453 15.365945 
L 48.22509 25.958619 
L 49.157727 30.306998 
L 50.090359 28.086641 
L 51.023007 33.315503 
L 51.95565 16.75072 
L 52.88829 31.059124 
L 53.82093 15.397654 
L 54.753566 23.812841 
L 55.686208 27.576261 
L 56.618849 22.47119 
L 57.551483 28.965348 
L 58.484126 29.473699 
L 59.416765 25.477157 
L 60.349406 22.678437 
L 61.282045 23.068832 
L 62.214684 32.218134 
L 63.147327 18.9381 
L 64.07996 32.930434 
L 65.012598 30.126387 
L 65.945245 20.27696 
L 66.877884 27.720598 
L 67.810526 23.0044 
L 68.743162 24.316372 
L 69.675784 26.047403 
L 70.608443 17.469869 
L 71.541078 28.96484 
L 72.473724 26.980395 
L 73.406361 23.542938 
L 74.339003 30.172554 
L 75.271637 22.421471 
L 76.204286 30.117762 
L 77.136912 34.363659 
L 78.069558 27.745458 
L 79.002199 31.288187 
L 79.934841 29.103089 
L 80.867465 25.640012 
L 81.800118 23.940436 
L 82.732742 24.933039 
L 83.665398 35.689075 
L 84.598038 26.973038 
L 85.53068 29.014306 
L 86.463316 30.12867 
L 87.395962 23.913039 
L 96.913595 31.93986 
L 97.655282 28.929073 
L 98.587939 27.395649 
L 99.520578 30.245864 
L 100.453222 26.988005 
L 101.385859 30.576648 
L 102.318497 23.864843 
L 103.251135 34.411856 
L 104.183773 14.011104 
L 105.116412 14.498654 
L 106.049054 31.59614 
L 106.981691 23.611428 
L 107.914333 25.263315 
L 108.846974 28.308855 
L 109.779613 26.078097 
L 110.71225 29.80296 
L 111.644893 21.863655 
L 112.57753 26.770865 
L 113.510173 27.453739 
L 114.442814 18.820398 
L 115.37545 24.854148 
L 116.308095 27.107229 
L 117.240726 26.833013 
L 118.173367 27.958539 
L 119.106014 26.715311 
L 120.038653 29.908486 
L 120.971293 21.679492 
L 121.903926 24.651721 
L 122.836569 17.912773 
L 123.769209 22.864375 
L 124.701847 21.333235 
L 125.634489 20.305625 
L 129.365046 25.051248 
L 130.297692 29.812346 
L 131.230328 19.41043 
L 132.162968 20.974548 
L 133.095609 9.472727 
L 134.028248 14.918982 
L 134.960891 22.606649 
L 135.893512 27.786552 
L 136.826165 26.463419 
L 137.75881 18.595141 
L 138.691446 17.71821 
L 139.624089 21.429882 
L 140.556726 19.593325 
L 141.489366 18.701174 
L 142.422003 24.111662 
L 143.354646 19.554006 
L 144.287298 22.613751 
L 145.219926 11.532259 
L 146.152567 23.728369 
L 147.085204 17.332888 
L 148.017844 26.792173 
L 148.950485 28.456236 
L 149.883123 20.967699 
L 150.815765 25.86603 
L 151.7484 19.278776 
L 179.727656 19.278776 
L 188.43171 25.261793 
L 189.054038 27.273889 
L 189.986678 11.51577 
L 190.919315 19.080915 
L 191.851955 18.33919 
L 192.7846 27.949914 
L 193.717237 21.833722 
L 194.649875 14.347468 
L 195.582513 16.977753 
L 196.515156 20.736353 
L 197.447798 25.57761 
L 198.380437 22.500615 
L 199.313081 15.105175 
L 200.245713 21.530588 
L 201.178356 21.799477 
L 202.110995 16.114266 
L 203.043636 16.967606 
" clip-path="url(#pb8dfaba0c1)" style="fill: none; stroke: #339af0; stroke-width: 1.2; stroke-linecap: square"/>
   </g>
   <g id="line2d_16">
    <path d="M 43.916364 98.838996 
L 44.494523 98.883134 
L 45.427166 98.921438 
L 46.359808 98.782428 
L 47.292453 98.769491 
L 48.22509 98.84965 
L 49.157727 98.867407 
L 50.090359 98.77152 
L 51.023007 98.921946 
L 51.95565 98.85447 
L 52.88829 98.893535 
L 53.82093 98.82682 
L 54.753566 98.863095 
L 55.686208 98.832908 
L 56.618849 98.859797 
L 57.551483 98.83443 
L 58.484126 98.87248 
L 59.416765 98.820986 
L 60.349406 98.67741 
L 61.282045 98.637584 
L 62.214684 98.914589 
L 63.147327 98.804244 
L 64.07996 98.886939 
L 65.012598 98.885671 
L 65.945245 98.825805 
L 66.877884 98.856499 
L 67.810526 98.749198 
L 68.743162 98.816673 
L 69.675784 98.855738 
L 70.608443 98.780653 
L 71.541078 98.876285 
L 72.473724 98.832655 
L 73.406361 98.805258 
L 74.339003 98.927273 
L 75.271637 98.861319 
L 76.204286 98.849143 
L 77.136912 98.903174 
L 78.069558 98.710386 
L 79.002199 98.883134 
L 79.934841 98.799424 
L 80.867465 98.863856 
L 81.800118 98.826313 
L 82.732742 98.860051 
L 83.665398 98.852441 
L 84.598038 98.894042 
L 85.53068 98.612217 
L 86.463316 98.890998 
L 87.395962 98.782682 
L 96.913595 98.913321 
L 97.655282 98.848889 
L 98.587939 98.892774 
L 99.520578 98.879583 
L 100.453222 98.825298 
L 101.385859 98.881866 
L 102.318497 98.775072 
L 103.251135 98.737529 
L 104.183773 98.681215 
L 105.116412 98.459001 
L 106.049054 98.705313 
L 106.981691 98.692376 
L 107.914333 98.735753 
L 108.846974 98.645701 
L 109.779613 98.657116 
L 110.71225 98.674873 
L 111.644893 98.630988 
L 112.57753 98.718504 
L 113.510173 98.595982 
L 114.442814 98.6145 
L 115.37545 98.624647 
L 116.308095 98.643672 
L 117.240726 98.765686 
L 118.173367 98.727129 
L 119.106014 98.531297 
L 120.038653 98.838235 
L 120.971293 98.598519 
L 121.903926 98.683498 
L 122.836569 98.683751 
L 123.769209 98.661936 
L 124.701847 98.623886 
L 125.634489 98.387974 
L 129.365046 98.692883 
L 130.297692 98.642403 
L 131.230328 98.64773 
L 132.162968 98.665741 
L 133.095609 98.401926 
L 134.028248 98.550322 
L 134.960891 98.711908 
L 135.893512 98.599533 
L 136.826165 98.723577 
L 137.75881 98.486651 
L 138.691446 98.594714 
L 139.624089 98.611963 
L 140.556726 98.693391 
L 141.489366 98.37732 
L 142.422003 98.645194 
L 143.354646 98.653057 
L 144.287298 98.698971 
L 145.219926 98.231461 
L 146.152567 98.723324 
L 147.085204 98.486905 
L 148.017844 98.697449 
L 148.950485 98.721802 
L 149.883123 98.687556 
L 150.815765 98.66016 
L 151.7484 98.492993 
L 179.727656 98.492993 
L 188.43171 98.598772 
L 189.054038 98.827835 
L 189.986678 98.779131 
L 190.919315 98.854724 
L 191.851955 98.722563 
L 192.7846 98.882881 
L 193.717237 98.761627 
L 194.649875 98.809571 
L 195.582513 98.775072 
L 196.515156 98.846353 
L 197.447798 98.545249 
L 198.380437 98.826566 
L 199.313081 98.577718 
L 200.245713 98.795365 
L 201.178356 98.582538 
L 202.110995 98.803736 
L 203.043636 98.662697 
" clip-path="url(#pb8dfaba0c1)" style="fill: none; stroke: #ff6b6b; stroke-width: 1.2; stroke-linecap: square"/>
   </g>
   <g id="patch_3">
    <path d="M 35.96 103.4 
L 35.96 5 
" style="fill: none; stroke: var(--fg-color); stroke-width: 0.8; stroke-linejoin: miter; stroke-linecap: square"/>
   </g>
   <g id="patch_4">
    <path d="M 35.96 103.4 
L 211 103.4 
" style="fill: none; stroke: var(--fg-color); stroke-width: 0.8; stroke-linejoin: miter; stroke-linecap: square"/>
   </g>
  </g>
 </g>
 <defs>
  <clipPath id="pb8dfaba0c1">
   <rect x="35.96" y="5" width="175.04" height="98.4"/>
  </clipPath>
 </defs>
</svg>
