<?xml version="1.0" encoding="utf-8" standalone="no"?>
<!DOCTYPE svg PUBLIC "-//W3C//DTD SVG 1.1//EN"
  "http://www.w3.org/Graphics/SVG/1.1/DTD/svg11.dtd">
<svg xmlns:xlink="http://www.w3.org/1999/xlink" width="216pt" height="122.4pt" viewBox="0 0 216 122.4" xmlns="http://www.w3.org/2000/svg" version="1.1">
  <style>
    :root {
      --fg-color: #212529;
      --grid-color: rgba(33, 37, 41, 0.1);
    }
    @media (prefers-color-scheme: dark) {
      :root {
        --fg-color: #dee2e6;
        --grid-color: rgba(248, 249, 250, 0.15);
      }
    }
  </style>

 <metadata>
  <rdf:RDF xmlns:dc="http://purl.org/dc/elements/1.1/" xmlns:cc="http://creativecommons.org/ns#" xmlns:rdf="http://www.w3.org/1999/02/22-rdf-syntax-ns#">
   <cc:Work>
    <dc:type rdf:resource="http://purl.org/dc/dcmitype/StillImage"/>
    <dc:date>2026-06-30T15:37:36.739166</dc:date>
    <dc:format>image/svg+xml</dc:format>
    <dc:creator>
     <cc:Agent>
      <dc:title>Matplotlib v3.11.0, https://matplotlib.org/</dc:title>
     </cc:Agent>
    </dc:creator>
   </cc:Work>
  </rdf:RDF>
 </metadata>
 <defs>
  <style type="text/css">*{stroke-linejoin: round; stroke-linecap: butt}</style>
 </defs>
 <g id="figure_1">
  <g id="patch_1">
   <path d="M 0 122.4 
L 216 122.4 
L 216 0 
L 0 0 
L 0 122.4 
z
" style="fill: none; opacity: 0"/>
  </g>
  <g id="axes_1">
   <g id="patch_2">
    <path d="M 35.96 103.4 
L 211 103.4 
L 211 5.936459 
L 35.96 5.936459 
L 35.96 103.4 
z
" style="fill: none; opacity: 0"/>
   </g>
   <g id="matplotlib.axis_1">
    <g id="xtick_1">
     <g id="line2d_1">
      <path d="M 69.784035 103.4 
L 69.784035 5.936459 
" clip-path="url(#pd244db0e2c)" style="fill: none; stroke-dasharray: 2.96,1.28; stroke-dashoffset: 0; stroke: var(--grid-color); stroke-width: 0.8"/>
     </g>
     <g id="line2d_2">
      <defs>
       <path id="m8a2d431f83" d="M 0 0 
L 0 3.5 
" style="stroke: var(--fg-color); stroke-width: 0.8"/>
      </defs>
      <g>
       <use xlink:href="#m8a2d431f83" x="69.784035" y="103.4" style="fill: var(--fg-color); stroke: var(--fg-color); stroke-width: 0.8"/>
      </g>
     </g>
     <g id="text_1">
      <text style="font-size: 7px; font-family: 'DejaVu Sans', 'Bitstream Vera Sans', 'Computer Modern Sans Serif', 'Lucida Grande', 'Verdana', 'Geneva', 'Lucid', 'Arial', 'Helvetica', 'Avant Garde', sans-serif; text-anchor: middle; fill: var(--fg-color)" x="69.784035" y="115.718359" transform="rotate(-0 69.784035 115.718359)">02/2026</text>
     </g>
    </g>
    <g id="xtick_2">
     <g id="line2d_3">
      <path d="M 122.345302 103.4 
L 122.345302 5.936459 
" clip-path="url(#pd244db0e2c)" style="fill: none; stroke-dasharray: 2.96,1.28; stroke-dashoffset: 0; stroke: var(--grid-color); stroke-width: 0.8"/>
     </g>
     <g id="line2d_4">
      <g>
       <use xlink:href="#m8a2d431f83" x="122.345302" y="103.4" style="fill: var(--fg-color); stroke: var(--fg-color); stroke-width: 0.8"/>
      </g>
     </g>
     <g id="text_2">
      <text style="font-size: 7px; font-family: 'DejaVu Sans', 'Bitstream Vera Sans', 'Computer Modern Sans Serif', 'Lucida Grande', 'Verdana', 'Geneva', 'Lucid', 'Arial', 'Helvetica', 'Avant Garde', sans-serif; text-anchor: middle; fill: var(--fg-color)" x="122.345302" y="115.718359" transform="rotate(-0 122.345302 115.718359)">04/2026</text>
     </g>
    </g>
    <g id="xtick_3">
     <g id="line2d_5">
      <path d="M 176.688307 103.4 
L 176.688307 5.936459 
" clip-path="url(#pd244db0e2c)" style="fill: none; stroke-dasharray: 2.96,1.28; stroke-dashoffset: 0; stroke: var(--grid-color); stroke-width: 0.8"/>
     </g>
     <g id="line2d_6">
      <g>
       <use xlink:href="#m8a2d431f83" x="176.688307" y="103.4" style="fill: var(--fg-color); stroke: var(--fg-color); stroke-width: 0.8"/>
      </g>
     </g>
     <g id="text_3">
      <text style="font-size: 7px; font-family: 'DejaVu Sans', 'Bitstream Vera Sans', 'Computer Modern Sans Serif', 'Lucida Grande', 'Verdana', 'Geneva', 'Lucid', 'Arial', 'Helvetica', 'Avant Garde', sans-serif; text-anchor: middle; fill: var(--fg-color)" x="176.688307" y="115.718359" transform="rotate(-0 176.688307 115.718359)">06/2026</text>
     </g>
    </g>
   </g>
   <g id="matplotlib.axis_2">
    <g id="ytick_1">
     <g id="line2d_7">
      <path d="M 35.96 99.605702 
L 211 99.605702 
" clip-path="url(#pd244db0e2c)" style="fill: none; stroke-dasharray: 2.96,1.28; stroke-dashoffset: 0; stroke: var(--grid-color); stroke-width: 0.8"/>
     </g>
     <g id="line2d_8">
      <defs>
       <path id="mf516fa711d" d="M 0 0 
L -3.5 0 
" style="stroke: var(--fg-color); stroke-width: 0.8"/>
      </defs>
      <g>
       <use xlink:href="#mf516fa711d" x="35.96" y="99.605702" style="fill: var(--fg-color); stroke: var(--fg-color); stroke-width: 0.8"/>
      </g>
     </g>
     <g id="text_4">
      <text style="font-size: 7px; font-family: 'DejaVu Sans', 'Bitstream Vera Sans', 'Computer Modern Sans Serif', 'Lucida Grande', 'Verdana', 'Geneva', 'Lucid', 'Arial', 'Helvetica', 'Avant Garde', sans-serif; text-anchor: end; fill: var(--fg-color)" x="28.96" y="102.264882" transform="rotate(-0 28.96 102.264882)">0</text>
     </g>
    </g>
    <g id="ytick_2">
     <g id="line2d_9">
      <path d="M 35.96 76.633765 
L 211 76.633765 
" clip-path="url(#pd244db0e2c)" style="fill: none; stroke-dasharray: 2.96,1.28; stroke-dashoffset: 0; stroke: var(--grid-color); stroke-width: 0.8"/>
     </g>
     <g id="line2d_10">
      <g>
       <use xlink:href="#mf516fa711d" x="35.96" y="76.633765" style="fill: var(--fg-color); stroke: var(--fg-color); stroke-width: 0.8"/>
      </g>
     </g>
     <g id="text_5">
      <text style="font-size: 7px; font-family: 'DejaVu Sans', 'Bitstream Vera Sans', 'Computer Modern Sans Serif', 'Lucida Grande', 'Verdana', 'Geneva', 'Lucid', 'Arial', 'Helvetica', 'Avant Garde', sans-serif; text-anchor: end; fill: var(--fg-color)" x="28.96" y="79.292945" transform="rotate(-0 28.96 79.292945)">50</text>
     </g>
    </g>
    <g id="ytick_3">
     <g id="line2d_11">
      <path d="M 35.96 53.661829 
L 211 53.661829 
" clip-path="url(#pd244db0e2c)" style="fill: none; stroke-dasharray: 2.96,1.28; stroke-dashoffset: 0; stroke: var(--grid-color); stroke-width: 0.8"/>
     </g>
     <g id="line2d_12">
      <g>
       <use xlink:href="#mf516fa711d" x="35.96" y="53.661829" style="fill: var(--fg-color); stroke: var(--fg-color); stroke-width: 0.8"/>
      </g>
     </g>
     <g id="text_6">
      <text style="font-size: 7px; font-family: 'DejaVu Sans', 'Bitstream Vera Sans', 'Computer Modern Sans Serif', 'Lucida Grande', 'Verdana', 'Geneva', 'Lucid', 'Arial', 'Helvetica', 'Avant Garde', sans-serif; text-anchor: end; fill: var(--fg-color)" x="28.96" y="56.321008" transform="rotate(-0 28.96 56.321008)">100</text>
     </g>
    </g>
    <g id="ytick_4">
     <g id="line2d_13">
      <path d="M 35.96 30.689892 
L 211 30.689892 
" clip-path="url(#pd244db0e2c)" style="fill: none; stroke-dasharray: 2.96,1.28; stroke-dashoffset: 0; stroke: var(--grid-color); stroke-width: 0.8"/>
     </g>
     <g id="line2d_14">
      <g>
       <use xlink:href="#mf516fa711d" x="35.96" y="30.689892" style="fill: var(--fg-color); stroke: var(--fg-color); stroke-width: 0.8"/>
      </g>
     </g>
     <g id="text_7">
      <text style="font-size: 7px; font-family: 'DejaVu Sans', 'Bitstream Vera Sans', 'Computer Modern Sans Serif', 'Lucida Grande', 'Verdana', 'Geneva', 'Lucid', 'Arial', 'Helvetica', 'Avant Garde', sans-serif; text-anchor: end; fill: var(--fg-color)" x="28.96" y="33.349072" transform="rotate(-0 28.96 33.349072)">150</text>
     </g>
    </g>
    <g id="ytick_5">
     <g id="line2d_15">
      <path d="M 35.96 7.717955 
L 211 7.717955 
" clip-path="url(#pd244db0e2c)" style="fill: none; stroke-dasharray: 2.96,1.28; stroke-dashoffset: 0; stroke: var(--grid-color); stroke-width: 0.8"/>
     </g>
     <g id="line2d_16">
      <g>
       <use xlink:href="#mf516fa711d" x="35.96" y="7.717955" style="fill: var(--fg-color); stroke: var(--fg-color); stroke-width: 0.8"/>
      </g>
     </g>
     <g id="text_8">
      <text style="font-size: 7px; font-family: 'DejaVu Sans', 'Bitstream Vera Sans', 'Computer Modern Sans Serif', 'Lucida Grande', 'Verdana', 'Geneva', 'Lucid', 'Arial', 'Helvetica', 'Avant Garde', sans-serif; text-anchor: end; fill: var(--fg-color)" x="28.96" y="10.377135" transform="rotate(-0 28.96 10.377135)">200</text>
     </g>
    </g>
    <g id="text_9">
     <text style="font-size: 7px; font-family: 'DejaVu Sans', 'Bitstream Vera Sans', 'Computer Modern Sans Serif', 'Lucida Grande', 'Verdana', 'Geneva', 'Lucid', 'Arial', 'Helvetica', 'Avant Garde', sans-serif; text-anchor: middle; fill: var(--fg-color)" x="9.917109" y="54.668229" transform="rotate(-90 9.917109 54.668229)">ms</text>
    </g>
   </g>
   <g id="line2d_17">
    <path d="M 43.916364 29.94652 
L 44.468628 41.436164 
L 45.3595 48.024056 
L 46.250371 38.268334 
L 47.141245 40.733682 
L 48.032112 43.807787 
L 48.922979 30.010382 
L 49.81384 47.823281 
L 50.704717 47.919304 
L 51.595589 29.341899 
L 52.486458 45.580301 
L 53.377327 38.812309 
L 54.268192 40.748844 
L 55.159063 52.357942 
L 56.049934 39.743132 
L 56.940797 44.553915 
L 57.831669 35.394085 
L 58.722538 42.042623 
L 59.613407 46.083846 
L 60.504275 47.899548 
L 61.395144 39.411418 
L 62.286016 42.214453 
L 63.176879 43.073144 
L 64.067746 39.044785 
L 64.958622 31.726845 
L 65.84949 44.609048 
L 66.740361 42.556735 
L 67.631226 47.559104 
L 68.522078 35.967005 
L 69.412965 38.476 
L 70.30383 28.641714 
L 71.194705 35.015048 
L 72.085571 27.370907 
L 72.976442 41.364032 
L 73.867306 40.357402 
L 74.758184 43.544988 
L 75.649039 42.514467 
L 76.539914 42.721674 
L 77.430784 37.859893 
L 78.321655 39.731646 
L 79.212509 37.029687 
L 80.103391 43.737952 
L 80.994245 28.810788 
L 81.885129 38.764987 
L 82.775998 34.957159 
L 83.666869 35.711557 
L 84.557735 31.048714 
L 85.44861 31.13371 
L 94.53997 38.420868 
L 95.248438 38.718584 
L 96.139324 45.977256 
L 97.030192 41.137069 
L 97.921065 38.167257 
L 98.811931 40.652821 
L 99.702798 41.378275 
L 100.593666 27.535386 
L 101.484533 49.509421 
L 102.375401 48.799129 
L 104.157138 36.074973 
L 105.048009 24.446579 
L 105.93888 35.223174 
L 106.829748 35.646777 
L 107.720614 37.331998 
L 108.611487 33.505792 
L 109.502352 36.230264 
L 110.393224 46.379725 
L 111.284094 41.15315 
L 112.17496 42.883396 
L 113.065834 42.78186 
L 113.956695 48.629137 
L 114.847564 42.772212 
L 115.738441 39.292882 
L 116.629309 49.767626 
L 117.520178 42.529628 
L 118.41104 20.303361 
L 119.301913 38.050101 
L 120.192782 45.328988 
L 121.083649 40.610093 
L 121.97452 40.710251 
L 125.537994 42.196535 
L 126.428869 47.185121 
L 127.319734 46.807003 
L 128.210603 45.904206 
L 129.101474 18.420581 
L 129.992342 44.20612 
L 130.883214 38.511377 
L 131.774065 36.591383 
L 132.664946 40.096441 
L 133.55582 42.616922 
L 134.446686 42.308179 
L 135.337558 34.122359 
L 136.228424 41.897441 
L 137.119294 40.460776 
L 138.010159 30.538737 
L 138.901032 34.56342 
L 139.791912 42.88018 
L 140.68277 22.37497 
L 141.57364 44.958681 
L 142.464507 31.617958 
L 143.355376 31.521476 
L 144.246246 23.392167 
L 145.137113 32.802391 
L 146.027984 33.017868 
L 146.918849 39.042488 
L 173.644977 39.042488 
L 181.959197 37.581932 
L 182.553652 13.163683 
L 183.444521 23.174393 
L 184.335387 26.419409 
L 185.226256 17.214554 
L 186.117131 13.479317 
L 187.007996 26.99141 
L 187.898864 34.714116 
L 188.789731 40.070253 
L 189.680603 36.315719 
L 190.571474 36.547276 
L 191.462343 33.750673 
L 192.353215 21.328368 
L 193.244077 37.009931 
L 195.025817 20.907522 
L 195.916688 35.81585 
L 196.807557 14.33663 
L 197.698426 23.593401 
L 198.589295 10.36662 
L 199.480162 34.466478 
L 200.371032 32.069127 
L 201.261898 43.748519 
L 202.152766 32.960438 
L 203.043636 38.351033 
L 203.043636 38.351033 
" clip-path="url(#pd244db0e2c)" style="fill: none; stroke: #339af0; stroke-width: 1.2; stroke-linecap: square"/>
   </g>
   <g id="line2d_18">
    <path d="M 43.916364 98.83798 
L 46.250371 98.909193 
L 49.81384 98.901383 
L 64.958622 98.925273 
L 68.522078 98.898167 
L 78.321655 98.893113 
L 85.44861 98.914247 
L 97.030192 98.911031 
L 97.921065 98.841656 
L 99.702798 98.896329 
L 105.048009 98.879789 
L 106.829748 98.907815 
L 107.720614 98.875654 
L 108.611487 98.537507 
L 109.502352 98.871979 
L 113.956695 98.905518 
L 116.629309 98.938597 
L 119.301913 98.823738 
L 120.192782 98.490644 
L 121.083649 98.78101 
L 121.97452 98.743795 
L 130.883214 98.746092 
L 131.774065 98.899545 
L 135.337558 98.775496 
L 137.119294 98.843953 
L 139.791912 98.781469 
L 140.68277 98.833386 
L 142.464507 98.728634 
L 145.137113 98.78101 
L 146.918849 98.78882 
L 186.117131 98.848547 
L 187.898864 98.950083 
L 189.680603 98.822819 
L 190.571474 98.467213 
L 191.462343 98.905058 
L 192.353215 98.837061 
L 194.134949 98.89541 
L 195.916688 98.896329 
L 200.371032 98.889897 
L 201.261898 98.790658 
L 202.152766 98.925733 
L 203.043636 98.861411 
L 203.043636 98.861411 
" clip-path="url(#pd244db0e2c)" style="fill: none; stroke: #ff6b6b; stroke-width: 1.2; stroke-linecap: square"/>
   </g>
   <g id="patch_3">
    <path d="M 35.96 103.4 
L 35.96 5.936459 
" style="fill: none; stroke: var(--fg-color); stroke-width: 0.8; stroke-linejoin: miter; stroke-linecap: square"/>
   </g>
   <g id="patch_4">
    <path d="M 35.96 103.4 
L 211 103.4 
" style="fill: none; stroke: var(--fg-color); stroke-width: 0.8; stroke-linejoin: miter; stroke-linecap: square"/>
   </g>
  </g>
 </g>
 <defs>
  <clipPath id="pd244db0e2c">
   <rect x="35.96" y="5.936459" width="175.04" height="97.463541"/>
  </clipPath>
 </defs>
</svg>
