<?xml version="1.0" encoding="utf-8" standalone="no"?>
<!DOCTYPE svg PUBLIC "-//W3C//DTD SVG 1.1//EN"
  "http://www.w3.org/Graphics/SVG/1.1/DTD/svg11.dtd">
<svg xmlns:xlink="http://www.w3.org/1999/xlink" width="216pt" height="122.4pt" viewBox="0 0 216 122.4" xmlns="http://www.w3.org/2000/svg" version="1.1">
  <style>
    :root {
      --fg-color: #212529;
      --grid-color: rgba(33, 37, 41, 0.1);
    }
    @media (prefers-color-scheme: dark) {
      :root {
        --fg-color: #dee2e6;
        --grid-color: rgba(248, 249, 250, 0.15);
      }
    }
  </style>

 <metadata>
  <rdf:RDF xmlns:dc="http://purl.org/dc/elements/1.1/" xmlns:cc="http://creativecommons.org/ns#" xmlns:rdf="http://www.w3.org/1999/02/22-rdf-syntax-ns#">
   <cc:Work>
    <dc:type rdf:resource="http://purl.org/dc/dcmitype/StillImage"/>
    <dc:date>2026-06-30T04:48:50.207773</dc:date>
    <dc:format>image/svg+xml</dc:format>
    <dc:creator>
     <cc:Agent>
      <dc:title>Matplotlib v3.11.0, https://matplotlib.org/</dc:title>
     </cc:Agent>
    </dc:creator>
   </cc:Work>
  </rdf:RDF>
 </metadata>
 <defs>
  <style type="text/css">*{stroke-linejoin: round; stroke-linecap: butt}</style>
 </defs>
 <g id="figure_1">
  <g id="patch_1">
   <path d="M 0 122.4 
L 216 122.4 
L 216 0 
L 0 0 
L 0 122.4 
z
" style="fill: none; opacity: 0"/>
  </g>
  <g id="axes_1">
   <g id="patch_2">
    <path d="M 31.64 103.4 
L 211 103.4 
L 211 5 
L 31.64 5 
L 31.64 103.4 
z
" style="fill: none; opacity: 0"/>
   </g>
   <g id="matplotlib.axis_1">
    <g id="xtick_1">
     <g id="line2d_1">
      <path d="M 68.627238 103.4 
L 68.627238 5 
" clip-path="url(#p5f2dbe7bfc)" style="fill: none; stroke-dasharray: 2.96,1.28; stroke-dashoffset: 0; stroke: var(--grid-color); stroke-width: 0.8"/>
     </g>
     <g id="line2d_2">
      <defs>
       <path id="m1f4609ab1b" d="M 0 0 
L 0 3.5 
" style="stroke: var(--fg-color); stroke-width: 0.8"/>
      </defs>
      <g>
       <use xlink:href="#m1f4609ab1b" x="68.627238" y="103.4" style="fill: var(--fg-color); stroke: var(--fg-color); stroke-width: 0.8"/>
      </g>
     </g>
     <g id="text_1">
      <text style="font-size: 7px; font-family: 'DejaVu Sans', 'Bitstream Vera Sans', 'Computer Modern Sans Serif', 'Lucida Grande', 'Verdana', 'Geneva', 'Lucid', 'Arial', 'Helvetica', 'Avant Garde', sans-serif; text-anchor: middle; fill: var(--fg-color)" x="68.627238" y="115.718359" transform="rotate(-0 68.627238 115.718359)">02/2026</text>
     </g>
    </g>
    <g id="xtick_2">
     <g id="line2d_3">
      <path d="M 124.558632 103.4 
L 124.558632 5 
" clip-path="url(#p5f2dbe7bfc)" style="fill: none; stroke-dasharray: 2.96,1.28; stroke-dashoffset: 0; stroke: var(--grid-color); stroke-width: 0.8"/>
     </g>
     <g id="line2d_4">
      <g>
       <use xlink:href="#m1f4609ab1b" x="124.558632" y="103.4" style="fill: var(--fg-color); stroke: var(--fg-color); stroke-width: 0.8"/>
      </g>
     </g>
     <g id="text_2">
      <text style="font-size: 7px; font-family: 'DejaVu Sans', 'Bitstream Vera Sans', 'Computer Modern Sans Serif', 'Lucida Grande', 'Verdana', 'Geneva', 'Lucid', 'Arial', 'Helvetica', 'Avant Garde', sans-serif; text-anchor: middle; fill: var(--fg-color)" x="124.558632" y="115.718359" transform="rotate(-0 124.558632 115.718359)">04/2026</text>
     </g>
    </g>
    <g id="xtick_3">
     <g id="line2d_5">
      <path d="M 182.386006 103.4 
L 182.386006 5 
" clip-path="url(#p5f2dbe7bfc)" style="fill: none; stroke-dasharray: 2.96,1.28; stroke-dashoffset: 0; stroke: var(--grid-color); stroke-width: 0.8"/>
     </g>
     <g id="line2d_6">
      <g>
       <use xlink:href="#m1f4609ab1b" x="182.386006" y="103.4" style="fill: var(--fg-color); stroke: var(--fg-color); stroke-width: 0.8"/>
      </g>
     </g>
     <g id="text_3">
      <text style="font-size: 7px; font-family: 'DejaVu Sans', 'Bitstream Vera Sans', 'Computer Modern Sans Serif', 'Lucida Grande', 'Verdana', 'Geneva', 'Lucid', 'Arial', 'Helvetica', 'Avant Garde', sans-serif; text-anchor: middle; fill: var(--fg-color)" x="182.386006" y="115.718359" transform="rotate(-0 182.386006 115.718359)">06/2026</text>
     </g>
    </g>
   </g>
   <g id="matplotlib.axis_2">
    <g id="ytick_1">
     <g id="line2d_7">
      <path d="M 31.64 100.963386 
L 211 100.963386 
" clip-path="url(#p5f2dbe7bfc)" style="fill: none; stroke-dasharray: 2.96,1.28; stroke-dashoffset: 0; stroke: var(--grid-color); stroke-width: 0.8"/>
     </g>
     <g id="line2d_8">
      <defs>
       <path id="m942621482b" d="M 0 0 
L -3.5 0 
" style="stroke: var(--fg-color); stroke-width: 0.8"/>
      </defs>
      <g>
       <use xlink:href="#m942621482b" x="31.64" y="100.963386" style="fill: var(--fg-color); stroke: var(--fg-color); stroke-width: 0.8"/>
      </g>
     </g>
     <g id="text_4">
      <text style="font-size: 7px; font-family: 'DejaVu Sans', 'Bitstream Vera Sans', 'Computer Modern Sans Serif', 'Lucida Grande', 'Verdana', 'Geneva', 'Lucid', 'Arial', 'Helvetica', 'Avant Garde', sans-serif; text-anchor: end; fill: var(--fg-color)" x="24.64" y="103.622565" transform="rotate(-0 24.64 103.622565)">0</text>
     </g>
    </g>
    <g id="ytick_2">
     <g id="line2d_9">
      <path d="M 31.64 86.813887 
L 211 86.813887 
" clip-path="url(#p5f2dbe7bfc)" style="fill: none; stroke-dasharray: 2.96,1.28; stroke-dashoffset: 0; stroke: var(--grid-color); stroke-width: 0.8"/>
     </g>
     <g id="line2d_10">
      <g>
       <use xlink:href="#m942621482b" x="31.64" y="86.813887" style="fill: var(--fg-color); stroke: var(--fg-color); stroke-width: 0.8"/>
      </g>
     </g>
     <g id="text_5">
      <text style="font-size: 7px; font-family: 'DejaVu Sans', 'Bitstream Vera Sans', 'Computer Modern Sans Serif', 'Lucida Grande', 'Verdana', 'Geneva', 'Lucid', 'Arial', 'Helvetica', 'Avant Garde', sans-serif; text-anchor: end; fill: var(--fg-color)" x="24.64" y="89.473067" transform="rotate(-0 24.64 89.473067)">10</text>
     </g>
    </g>
    <g id="ytick_3">
     <g id="line2d_11">
      <path d="M 31.64 72.664388 
L 211 72.664388 
" clip-path="url(#p5f2dbe7bfc)" style="fill: none; stroke-dasharray: 2.96,1.28; stroke-dashoffset: 0; stroke: var(--grid-color); stroke-width: 0.8"/>
     </g>
     <g id="line2d_12">
      <g>
       <use xlink:href="#m942621482b" x="31.64" y="72.664388" style="fill: var(--fg-color); stroke: var(--fg-color); stroke-width: 0.8"/>
      </g>
     </g>
     <g id="text_6">
      <text style="font-size: 7px; font-family: 'DejaVu Sans', 'Bitstream Vera Sans', 'Computer Modern Sans Serif', 'Lucida Grande', 'Verdana', 'Geneva', 'Lucid', 'Arial', 'Helvetica', 'Avant Garde', sans-serif; text-anchor: end; fill: var(--fg-color)" x="24.64" y="75.323568" transform="rotate(-0 24.64 75.323568)">20</text>
     </g>
    </g>
    <g id="ytick_4">
     <g id="line2d_13">
      <path d="M 31.64 58.51489 
L 211 58.51489 
" clip-path="url(#p5f2dbe7bfc)" style="fill: none; stroke-dasharray: 2.96,1.28; stroke-dashoffset: 0; stroke: var(--grid-color); stroke-width: 0.8"/>
     </g>
     <g id="line2d_14">
      <g>
       <use xlink:href="#m942621482b" x="31.64" y="58.51489" style="fill: var(--fg-color); stroke: var(--fg-color); stroke-width: 0.8"/>
      </g>
     </g>
     <g id="text_7">
      <text style="font-size: 7px; font-family: 'DejaVu Sans', 'Bitstream Vera Sans', 'Computer Modern Sans Serif', 'Lucida Grande', 'Verdana', 'Geneva', 'Lucid', 'Arial', 'Helvetica', 'Avant Garde', sans-serif; text-anchor: end; fill: var(--fg-color)" x="24.64" y="61.174069" transform="rotate(-0 24.64 61.174069)">30</text>
     </g>
    </g>
    <g id="ytick_5">
     <g id="line2d_15">
      <path d="M 31.64 44.365391 
L 211 44.365391 
" clip-path="url(#p5f2dbe7bfc)" style="fill: none; stroke-dasharray: 2.96,1.28; stroke-dashoffset: 0; stroke: var(--grid-color); stroke-width: 0.8"/>
     </g>
     <g id="line2d_16">
      <g>
       <use xlink:href="#m942621482b" x="31.64" y="44.365391" style="fill: var(--fg-color); stroke: var(--fg-color); stroke-width: 0.8"/>
      </g>
     </g>
     <g id="text_8">
      <text style="font-size: 7px; font-family: 'DejaVu Sans', 'Bitstream Vera Sans', 'Computer Modern Sans Serif', 'Lucida Grande', 'Verdana', 'Geneva', 'Lucid', 'Arial', 'Helvetica', 'Avant Garde', sans-serif; text-anchor: end; fill: var(--fg-color)" x="24.64" y="47.024571" transform="rotate(-0 24.64 47.024571)">40</text>
     </g>
    </g>
    <g id="ytick_6">
     <g id="line2d_17">
      <path d="M 31.64 30.215892 
L 211 30.215892 
" clip-path="url(#p5f2dbe7bfc)" style="fill: none; stroke-dasharray: 2.96,1.28; stroke-dashoffset: 0; stroke: var(--grid-color); stroke-width: 0.8"/>
     </g>
     <g id="line2d_18">
      <g>
       <use xlink:href="#m942621482b" x="31.64" y="30.215892" style="fill: var(--fg-color); stroke: var(--fg-color); stroke-width: 0.8"/>
      </g>
     </g>
     <g id="text_9">
      <text style="font-size: 7px; font-family: 'DejaVu Sans', 'Bitstream Vera Sans', 'Computer Modern Sans Serif', 'Lucida Grande', 'Verdana', 'Geneva', 'Lucid', 'Arial', 'Helvetica', 'Avant Garde', sans-serif; text-anchor: end; fill: var(--fg-color)" x="24.64" y="32.875072" transform="rotate(-0 24.64 32.875072)">50</text>
     </g>
    </g>
    <g id="ytick_7">
     <g id="line2d_19">
      <path d="M 31.64 16.066394 
L 211 16.066394 
" clip-path="url(#p5f2dbe7bfc)" style="fill: none; stroke-dasharray: 2.96,1.28; stroke-dashoffset: 0; stroke: var(--grid-color); stroke-width: 0.8"/>
     </g>
     <g id="line2d_20">
      <g>
       <use xlink:href="#m942621482b" x="31.64" y="16.066394" style="fill: var(--fg-color); stroke: var(--fg-color); stroke-width: 0.8"/>
      </g>
     </g>
     <g id="text_10">
      <text style="font-size: 7px; font-family: 'DejaVu Sans', 'Bitstream Vera Sans', 'Computer Modern Sans Serif', 'Lucida Grande', 'Verdana', 'Geneva', 'Lucid', 'Arial', 'Helvetica', 'Avant Garde', sans-serif; text-anchor: end; fill: var(--fg-color)" x="24.64" y="18.725573" transform="rotate(-0 24.64 18.725573)">60</text>
     </g>
    </g>
    <g id="text_11">
     <text style="font-size: 7px; font-family: 'DejaVu Sans', 'Bitstream Vera Sans', 'Computer Modern Sans Serif', 'Lucida Grande', 'Verdana', 'Geneva', 'Lucid', 'Arial', 'Helvetica', 'Avant Garde', sans-serif; text-anchor: middle; fill: var(--fg-color)" x="10.050859" y="54.2" transform="rotate(-90 10.050859 54.2)">ms</text>
    </g>
   </g>
   <g id="line2d_21">
    <path d="M 39.792727 33.218416 
L 41.100981 37.674093 
L 41.688656 39.108852 
L 42.636649 46.23454 
L 43.584641 34.249914 
L 44.532636 35.053606 
L 45.480623 35.77806 
L 46.428611 35.072 
L 47.376592 43.543305 
L 48.324591 37.483075 
L 49.272583 40.506823 
L 50.220574 43.724419 
L 51.168564 39.826232 
L 52.116549 31.646407 
L 53.064541 38.615035 
L 54.012533 37.48166 
L 54.960516 34.704113 
L 55.908509 40.819527 
L 56.856499 37.611835 
L 57.804489 33.53961 
L 58.752478 37.982552 
L 59.700467 41.092612 
L 60.64846 34.634781 
L 61.596444 35.367725 
L 62.544432 41.737829 
L 63.492429 34.882397 
L 64.440417 42.714144 
L 65.388409 37.567972 
L 66.336395 36.540718 
L 67.284367 33.691009 
L 68.232376 37.846717 
L 69.180361 36.158682 
L 70.128357 35.860127 
L 71.076344 39.261667 
L 72.024336 38.03349 
L 72.97232 36.053975 
L 73.920319 39.152716 
L 74.868295 35.844563 
L 75.816291 34.708358 
L 76.764282 40.055454 
L 77.712274 34.003713 
L 78.660247 39.766804 
L 79.608251 33.191532 
L 80.556225 39.209314 
L 81.504231 42.102886 
L 82.452221 37.04161 
L 83.400212 34.387165 
L 84.348199 37.683998 
L 85.296195 32.860434 
L 94.970475 30.077227 
L 95.724369 26.171966 
L 96.672377 24.186791 
L 97.620366 20.952216 
L 98.56836 26.986977 
L 99.516347 27.845851 
L 100.464334 21.489896 
L 101.412323 18.788757 
L 102.360311 25.934254 
L 103.308299 30.450774 
L 104.256292 17.218163 
L 105.204278 27.226103 
L 106.15227 24.77541 
L 107.100261 25.412138 
L 108.04825 28.140161 
L 108.996237 21.809675 
L 109.944231 15.902259 
L 110.892217 18.330313 
L 111.84021 24.033976 
L 112.788201 28.990546 
L 113.736187 25.045665 
L 114.684183 26.943113 
L 115.632163 26.405432 
L 116.580154 23.855693 
L 117.528151 16.861595 
L 118.47614 23.80334 
L 119.42413 29.119306 
L 120.372113 19.373131 
L 121.320106 26.057355 
L 122.268096 23.50903 
L 123.216085 18.037419 
L 124.164076 25.191405 
L 127.956033 20.049478 
L 128.904029 31.615278 
L 129.852015 22.579408 
L 130.800005 26.936039 
L 131.747996 24.113214 
L 132.695985 14.522683 
L 133.643978 23.530254 
L 134.591949 21.028623 
L 135.539952 27.196389 
L 136.487947 13.33554 
L 137.435933 26.522873 
L 138.383926 24.734377 
L 139.331913 30.197498 
L 140.279903 22.000693 
L 141.22789 19.842895 
L 142.175883 14.719361 
L 143.123885 19.667441 
L 144.071862 16.31684 
L 145.019854 20.015519 
L 145.967841 17.117701 
L 146.915831 10.979649 
L 147.863822 11.156518 
L 148.811809 22.174732 
L 149.759801 16.289956 
L 150.707787 18.430775 
L 179.147543 18.430775 
L 187.994854 21.204077 
L 188.627425 22.667135 
L 189.575414 21.770057 
L 190.523402 20.2504 
L 191.471391 24.406108 
L 192.419387 20.68479 
L 193.367373 24.573072 
L 194.315361 23.443942 
L 195.263349 24.663629 
L 196.211342 23.674579 
L 197.159334 30.176274 
L 198.107324 23.990113 
L 199.055317 23.632131 
L 200.0033 27.125642 
L 200.951292 29.692361 
L 201.899281 17.663872 
L 202.847273 9.472727 
" clip-path="url(#p5f2dbe7bfc)" style="fill: none; stroke: #339af0; stroke-width: 1.2; stroke-linecap: square"/>
   </g>
   <g id="line2d_22">
    <path d="M 39.792727 98.532502 
L 41.100981 98.502788 
L 41.688656 98.645698 
L 42.636649 98.833886 
L 43.584641 98.59476 
L 44.532636 98.410816 
L 45.480623 98.536747 
L 46.428611 98.474489 
L 47.376592 98.785778 
L 48.324591 98.681071 
L 49.272583 98.767383 
L 50.220574 98.72352 
L 51.168564 98.44053 
L 52.116549 98.501373 
L 53.064541 98.666922 
L 54.012533 98.655602 
L 54.960516 98.447605 
L 55.908509 98.654187 
L 56.856499 98.471659 
L 57.804489 98.682486 
L 58.752478 98.638623 
L 59.700467 98.657017 
L 60.64846 98.45185 
L 61.596444 98.43204 
L 62.544432 98.692391 
L 63.492429 98.611739 
L 64.440417 98.699466 
L 65.388409 98.695221 
L 66.336395 98.603249 
L 67.284367 98.518352 
L 68.232376 98.664092 
L 69.180361 98.59193 
L 70.128357 98.29762 
L 71.076344 98.635793 
L 72.024336 98.57778 
L 72.97232 98.597589 
L 73.920319 98.627303 
L 74.868295 98.623059 
L 75.816291 98.623059 
L 76.764282 98.644283 
L 77.712274 98.597589 
L 78.660247 98.638623 
L 79.608251 98.543821 
L 80.556225 98.611739 
L 81.504231 98.678242 
L 82.452221 98.635793 
L 83.400212 98.502788 
L 84.348199 98.601834 
L 85.296195 98.698051 
L 94.970475 98.927273 
L 95.724369 98.695221 
L 96.672377 98.672582 
L 97.620366 98.630133 
L 98.56836 98.763139 
L 99.516347 98.741914 
L 100.464334 98.318844 
L 101.412323 98.491468 
L 102.360311 98.741914 
L 103.308299 98.828226 
L 104.256292 98.607494 
L 105.204278 98.707955 
L 106.15227 98.778703 
L 107.100261 98.751819 
L 108.04825 98.640038 
L 108.996237 98.634378 
L 109.944231 98.673997 
L 110.892217 98.617399 
L 111.84021 98.664092 
L 112.788201 98.890484 
L 113.736187 98.651358 
L 114.684183 98.669752 
L 115.632163 98.744744 
L 116.580154 98.733425 
L 117.528151 98.73484 
L 118.47614 98.768798 
L 119.42413 98.808417 
L 120.372113 98.58061 
L 121.320106 98.389592 
L 122.268096 98.584855 
L 123.216085 98.379687 
L 124.164076 98.532502 
L 127.956033 98.307525 
L 128.904029 98.582025 
L 129.852015 98.528257 
L 130.800005 98.543821 
L 131.747996 98.488638 
L 132.695985 98.439115 
L 133.643978 98.436285 
L 134.591949 98.494298 
L 135.539952 98.557971 
L 136.487947 98.357048 
L 137.435933 98.508448 
L 138.383926 98.630133 
L 139.331913 98.557971 
L 140.279903 98.477319 
L 141.22789 98.468829 
L 142.175883 98.299035 
L 143.123885 98.545236 
L 144.071862 98.368368 
L 145.019854 98.447605 
L 145.967841 98.320259 
L 146.915831 98.272151 
L 147.863822 98.267906 
L 148.811809 98.398081 
L 149.759801 98.252342 
L 150.707787 98.16603 
L 179.147543 98.16603 
L 187.994854 98.524012 
L 188.627425 96.585531 
L 189.575414 98.505618 
L 190.523402 98.683901 
L 191.471391 98.601834 
L 192.419387 98.686731 
L 193.367373 98.811247 
L 194.315361 98.623059 
L 195.263349 98.794267 
L 196.211342 98.655602 
L 197.159334 98.831056 
L 198.107324 98.761724 
L 199.055317 98.736254 
L 200.0033 98.751819 
L 200.951292 98.607494 
L 201.899281 98.567875 
L 202.847273 98.485808 
" clip-path="url(#p5f2dbe7bfc)" style="fill: none; stroke: #ff6b6b; stroke-width: 1.2; stroke-linecap: square"/>
   </g>
   <g id="patch_3">
    <path d="M 31.64 103.4 
L 31.64 5 
" style="fill: none; stroke: var(--fg-color); stroke-width: 0.8; stroke-linejoin: miter; stroke-linecap: square"/>
   </g>
   <g id="patch_4">
    <path d="M 31.64 103.4 
L 211 103.4 
" style="fill: none; stroke: var(--fg-color); stroke-width: 0.8; stroke-linejoin: miter; stroke-linecap: square"/>
   </g>
  </g>
 </g>
 <defs>
  <clipPath id="p5f2dbe7bfc">
   <rect x="31.64" y="5" width="179.36" height="98.4"/>
  </clipPath>
 </defs>
</svg>
