<?xml version="1.0" encoding="utf-8" standalone="no"?>
<!DOCTYPE svg PUBLIC "-//W3C//DTD SVG 1.1//EN"
  "http://www.w3.org/Graphics/SVG/1.1/DTD/svg11.dtd">
<svg xmlns:xlink="http://www.w3.org/1999/xlink" width="216pt" height="122.4pt" viewBox="0 0 216 122.4" xmlns="http://www.w3.org/2000/svg" version="1.1">
  <style>
    :root {
      --fg-color: #212529;
      --grid-color: rgba(33, 37, 41, 0.1);
    }
    @media (prefers-color-scheme: dark) {
      :root {
        --fg-color: #dee2e6;
        --grid-color: rgba(248, 249, 250, 0.15);
      }
    }
  </style>

 <metadata>
  <rdf:RDF xmlns:dc="http://purl.org/dc/elements/1.1/" xmlns:cc="http://creativecommons.org/ns#" xmlns:rdf="http://www.w3.org/1999/02/22-rdf-syntax-ns#">
   <cc:Work>
    <dc:type rdf:resource="http://purl.org/dc/dcmitype/StillImage"/>
    <dc:date>2026-06-30T15:37:41.767476</dc:date>
    <dc:format>image/svg+xml</dc:format>
    <dc:creator>
     <cc:Agent>
      <dc:title>Matplotlib v3.11.0, https://matplotlib.org/</dc:title>
     </cc:Agent>
    </dc:creator>
   </cc:Work>
  </rdf:RDF>
 </metadata>
 <defs>
  <style type="text/css">*{stroke-linejoin: round; stroke-linecap: butt}</style>
 </defs>
 <g id="figure_1">
  <g id="patch_1">
   <path d="M 0 122.4 
L 216 122.4 
L 216 0 
L 0 0 
L 0 122.4 
z
" style="fill: none; opacity: 0"/>
  </g>
  <g id="axes_1">
   <g id="patch_2">
    <path d="M 35.96 103.4 
L 211 103.4 
L 211 5 
L 35.96 5 
L 35.96 103.4 
z
" style="fill: none; opacity: 0"/>
   </g>
   <g id="matplotlib.axis_1">
    <g id="xtick_1">
     <g id="line2d_1">
      <path d="M 69.784035 103.4 
L 69.784035 5 
" clip-path="url(#p67c841faa7)" style="fill: none; stroke-dasharray: 2.96,1.28; stroke-dashoffset: 0; stroke: var(--grid-color); stroke-width: 0.8"/>
     </g>
     <g id="line2d_2">
      <defs>
       <path id="m5f8a1dc936" d="M 0 0 
L 0 3.5 
" style="stroke: var(--fg-color); stroke-width: 0.8"/>
      </defs>
      <g>
       <use xlink:href="#m5f8a1dc936" x="69.784035" y="103.4" style="fill: var(--fg-color); stroke: var(--fg-color); stroke-width: 0.8"/>
      </g>
     </g>
     <g id="text_1">
      <text style="font-size: 7px; font-family: 'DejaVu Sans', 'Bitstream Vera Sans', 'Computer Modern Sans Serif', 'Lucida Grande', 'Verdana', 'Geneva', 'Lucid', 'Arial', 'Helvetica', 'Avant Garde', sans-serif; text-anchor: middle; fill: var(--fg-color)" x="69.784035" y="115.718359" transform="rotate(-0 69.784035 115.718359)">02/2026</text>
     </g>
    </g>
    <g id="xtick_2">
     <g id="line2d_3">
      <path d="M 122.345302 103.4 
L 122.345302 5 
" clip-path="url(#p67c841faa7)" style="fill: none; stroke-dasharray: 2.96,1.28; stroke-dashoffset: 0; stroke: var(--grid-color); stroke-width: 0.8"/>
     </g>
     <g id="line2d_4">
      <g>
       <use xlink:href="#m5f8a1dc936" x="122.345302" y="103.4" style="fill: var(--fg-color); stroke: var(--fg-color); stroke-width: 0.8"/>
      </g>
     </g>
     <g id="text_2">
      <text style="font-size: 7px; font-family: 'DejaVu Sans', 'Bitstream Vera Sans', 'Computer Modern Sans Serif', 'Lucida Grande', 'Verdana', 'Geneva', 'Lucid', 'Arial', 'Helvetica', 'Avant Garde', sans-serif; text-anchor: middle; fill: var(--fg-color)" x="122.345302" y="115.718359" transform="rotate(-0 122.345302 115.718359)">04/2026</text>
     </g>
    </g>
    <g id="xtick_3">
     <g id="line2d_5">
      <path d="M 176.688307 103.4 
L 176.688307 5 
" clip-path="url(#p67c841faa7)" style="fill: none; stroke-dasharray: 2.96,1.28; stroke-dashoffset: 0; stroke: var(--grid-color); stroke-width: 0.8"/>
     </g>
     <g id="line2d_6">
      <g>
       <use xlink:href="#m5f8a1dc936" x="176.688307" y="103.4" style="fill: var(--fg-color); stroke: var(--fg-color); stroke-width: 0.8"/>
      </g>
     </g>
     <g id="text_3">
      <text style="font-size: 7px; font-family: 'DejaVu Sans', 'Bitstream Vera Sans', 'Computer Modern Sans Serif', 'Lucida Grande', 'Verdana', 'Geneva', 'Lucid', 'Arial', 'Helvetica', 'Avant Garde', sans-serif; text-anchor: middle; fill: var(--fg-color)" x="176.688307" y="115.718359" transform="rotate(-0 176.688307 115.718359)">06/2026</text>
     </g>
    </g>
   </g>
   <g id="matplotlib.axis_2">
    <g id="ytick_1">
     <g id="line2d_7">
      <path d="M 35.96 100.30025 
L 211 100.30025 
" clip-path="url(#p67c841faa7)" style="fill: none; stroke-dasharray: 2.96,1.28; stroke-dashoffset: 0; stroke: var(--grid-color); stroke-width: 0.8"/>
     </g>
     <g id="line2d_8">
      <defs>
       <path id="m5afe3b7f30" d="M 0 0 
L -3.5 0 
" style="stroke: var(--fg-color); stroke-width: 0.8"/>
      </defs>
      <g>
       <use xlink:href="#m5afe3b7f30" x="35.96" y="100.30025" style="fill: var(--fg-color); stroke: var(--fg-color); stroke-width: 0.8"/>
      </g>
     </g>
     <g id="text_4">
      <text style="font-size: 7px; font-family: 'DejaVu Sans', 'Bitstream Vera Sans', 'Computer Modern Sans Serif', 'Lucida Grande', 'Verdana', 'Geneva', 'Lucid', 'Arial', 'Helvetica', 'Avant Garde', sans-serif; text-anchor: end; fill: var(--fg-color)" x="28.96" y="102.95943" transform="rotate(-0 28.96 102.95943)">0</text>
     </g>
    </g>
    <g id="ytick_2">
     <g id="line2d_9">
      <path d="M 35.96 86.042955 
L 211 86.042955 
" clip-path="url(#p67c841faa7)" style="fill: none; stroke-dasharray: 2.96,1.28; stroke-dashoffset: 0; stroke: var(--grid-color); stroke-width: 0.8"/>
     </g>
     <g id="line2d_10">
      <g>
       <use xlink:href="#m5afe3b7f30" x="35.96" y="86.042955" style="fill: var(--fg-color); stroke: var(--fg-color); stroke-width: 0.8"/>
      </g>
     </g>
     <g id="text_5">
      <text style="font-size: 7px; font-family: 'DejaVu Sans', 'Bitstream Vera Sans', 'Computer Modern Sans Serif', 'Lucida Grande', 'Verdana', 'Geneva', 'Lucid', 'Arial', 'Helvetica', 'Avant Garde', sans-serif; text-anchor: end; fill: var(--fg-color)" x="28.96" y="88.702135" transform="rotate(-0 28.96 88.702135)">20</text>
     </g>
    </g>
    <g id="ytick_3">
     <g id="line2d_11">
      <path d="M 35.96 71.78566 
L 211 71.78566 
" clip-path="url(#p67c841faa7)" style="fill: none; stroke-dasharray: 2.96,1.28; stroke-dashoffset: 0; stroke: var(--grid-color); stroke-width: 0.8"/>
     </g>
     <g id="line2d_12">
      <g>
       <use xlink:href="#m5afe3b7f30" x="35.96" y="71.78566" style="fill: var(--fg-color); stroke: var(--fg-color); stroke-width: 0.8"/>
      </g>
     </g>
     <g id="text_6">
      <text style="font-size: 7px; font-family: 'DejaVu Sans', 'Bitstream Vera Sans', 'Computer Modern Sans Serif', 'Lucida Grande', 'Verdana', 'Geneva', 'Lucid', 'Arial', 'Helvetica', 'Avant Garde', sans-serif; text-anchor: end; fill: var(--fg-color)" x="28.96" y="74.44484" transform="rotate(-0 28.96 74.44484)">40</text>
     </g>
    </g>
    <g id="ytick_4">
     <g id="line2d_13">
      <path d="M 35.96 57.528365 
L 211 57.528365 
" clip-path="url(#p67c841faa7)" style="fill: none; stroke-dasharray: 2.96,1.28; stroke-dashoffset: 0; stroke: var(--grid-color); stroke-width: 0.8"/>
     </g>
     <g id="line2d_14">
      <g>
       <use xlink:href="#m5afe3b7f30" x="35.96" y="57.528365" style="fill: var(--fg-color); stroke: var(--fg-color); stroke-width: 0.8"/>
      </g>
     </g>
     <g id="text_7">
      <text style="font-size: 7px; font-family: 'DejaVu Sans', 'Bitstream Vera Sans', 'Computer Modern Sans Serif', 'Lucida Grande', 'Verdana', 'Geneva', 'Lucid', 'Arial', 'Helvetica', 'Avant Garde', sans-serif; text-anchor: end; fill: var(--fg-color)" x="28.96" y="60.187545" transform="rotate(-0 28.96 60.187545)">60</text>
     </g>
    </g>
    <g id="ytick_5">
     <g id="line2d_15">
      <path d="M 35.96 43.271071 
L 211 43.271071 
" clip-path="url(#p67c841faa7)" style="fill: none; stroke-dasharray: 2.96,1.28; stroke-dashoffset: 0; stroke: var(--grid-color); stroke-width: 0.8"/>
     </g>
     <g id="line2d_16">
      <g>
       <use xlink:href="#m5afe3b7f30" x="35.96" y="43.271071" style="fill: var(--fg-color); stroke: var(--fg-color); stroke-width: 0.8"/>
      </g>
     </g>
     <g id="text_8">
      <text style="font-size: 7px; font-family: 'DejaVu Sans', 'Bitstream Vera Sans', 'Computer Modern Sans Serif', 'Lucida Grande', 'Verdana', 'Geneva', 'Lucid', 'Arial', 'Helvetica', 'Avant Garde', sans-serif; text-anchor: end; fill: var(--fg-color)" x="28.96" y="45.93025" transform="rotate(-0 28.96 45.93025)">80</text>
     </g>
    </g>
    <g id="ytick_6">
     <g id="line2d_17">
      <path d="M 35.96 29.013776 
L 211 29.013776 
" clip-path="url(#p67c841faa7)" style="fill: none; stroke-dasharray: 2.96,1.28; stroke-dashoffset: 0; stroke: var(--grid-color); stroke-width: 0.8"/>
     </g>
     <g id="line2d_18">
      <g>
       <use xlink:href="#m5afe3b7f30" x="35.96" y="29.013776" style="fill: var(--fg-color); stroke: var(--fg-color); stroke-width: 0.8"/>
      </g>
     </g>
     <g id="text_9">
      <text style="font-size: 7px; font-family: 'DejaVu Sans', 'Bitstream Vera Sans', 'Computer Modern Sans Serif', 'Lucida Grande', 'Verdana', 'Geneva', 'Lucid', 'Arial', 'Helvetica', 'Avant Garde', sans-serif; text-anchor: end; fill: var(--fg-color)" x="28.96" y="31.672955" transform="rotate(-0 28.96 31.672955)">100</text>
     </g>
    </g>
    <g id="ytick_7">
     <g id="line2d_19">
      <path d="M 35.96 14.756481 
L 211 14.756481 
" clip-path="url(#p67c841faa7)" style="fill: none; stroke-dasharray: 2.96,1.28; stroke-dashoffset: 0; stroke: var(--grid-color); stroke-width: 0.8"/>
     </g>
     <g id="line2d_20">
      <g>
       <use xlink:href="#m5afe3b7f30" x="35.96" y="14.756481" style="fill: var(--fg-color); stroke: var(--fg-color); stroke-width: 0.8"/>
      </g>
     </g>
     <g id="text_10">
      <text style="font-size: 7px; font-family: 'DejaVu Sans', 'Bitstream Vera Sans', 'Computer Modern Sans Serif', 'Lucida Grande', 'Verdana', 'Geneva', 'Lucid', 'Arial', 'Helvetica', 'Avant Garde', sans-serif; text-anchor: end; fill: var(--fg-color)" x="28.96" y="17.41566" transform="rotate(-0 28.96 17.41566)">120</text>
     </g>
    </g>
    <g id="text_11">
     <text style="font-size: 7px; font-family: 'DejaVu Sans', 'Bitstream Vera Sans', 'Computer Modern Sans Serif', 'Lucida Grande', 'Verdana', 'Geneva', 'Lucid', 'Arial', 'Helvetica', 'Avant Garde', sans-serif; text-anchor: middle; fill: var(--fg-color)" x="9.917109" y="54.2" transform="rotate(-90 9.917109 54.2)">ms</text>
    </g>
   </g>
   <g id="line2d_21">
    <path d="M 43.916364 44.314705 
L 45.3595 48.780089 
L 46.250371 47.106283 
L 47.141245 47.340103 
L 48.032112 47.983819 
L 48.922979 47.50121 
L 49.81384 47.942473 
L 50.704717 45.21933 
L 51.595589 45.202934 
L 52.486458 44.527138 
L 53.377327 44.095142 
L 54.268192 42.516147 
L 55.159063 46.777652 
L 56.049934 47.112699 
L 56.940797 47.081333 
L 57.831669 44.752404 
L 58.722538 44.934184 
L 59.613407 44.250547 
L 60.504275 46.061936 
L 61.395144 43.723027 
L 62.286016 41.815401 
L 63.176879 43.35804 
L 64.067746 47.226044 
L 64.958622 43.735858 
L 65.84949 43.678829 
L 66.740361 45.847364 
L 67.631226 44.939174 
L 68.522078 43.427188 
L 69.412965 41.269346 
L 70.30383 45.788909 
L 71.194705 40.360444 
L 72.085571 42.769214 
L 73.867306 46.756266 
L 74.758184 43.729443 
L 75.649039 47.48624 
L 76.539914 41.430454 
L 77.430784 40.65557 
L 78.321655 44.282626 
L 79.212509 46.514605 
L 80.103391 26.298474 
L 80.994245 47.185411 
L 81.885129 43.720175 
L 82.775998 46.096866 
L 83.666869 41.600828 
L 84.557735 43.056498 
L 85.44861 40.888677 
L 94.53997 11.885774 
L 95.248438 21.911504 
L 96.139324 22.380569 
L 97.030192 14.856282 
L 97.921065 44.901392 
L 98.811931 49.689705 
L 99.702798 45.316992 
L 100.593666 46.154608 
L 101.484533 47.862632 
L 102.375401 49.175729 
L 103.266272 42.794877 
L 104.157138 46.385577 
L 105.048009 46.899552 
L 105.93888 47.190401 
L 106.829748 47.198955 
L 107.720614 46.925928 
L 108.611487 45.275646 
L 109.502352 45.123093 
L 110.393224 45.811008 
L 111.284094 46.235162 
L 112.17496 47.558239 
L 113.065834 47.106996 
L 113.956695 49.587052 
L 114.847564 43.265368 
L 115.738441 44.006034 
L 116.629309 45.325547 
L 117.520178 29.203398 
L 118.41104 47.054957 
L 119.301913 44.085875 
L 121.083649 42.96739 
L 121.97452 48.514191 
L 125.537994 42.463395 
L 126.428869 41.83251 
L 127.319734 40.758222 
L 128.210603 45.046104 
L 129.101474 37.575281 
L 129.992342 41.733421 
L 130.883214 42.224585 
L 131.774065 40.536521 
L 132.664946 43.354476 
L 133.55582 41.744114 
L 135.337558 42.28304 
L 136.228424 44.487931 
L 137.119294 43.436455 
L 138.010159 37.903912 
L 138.901032 40.549353 
L 139.791912 40.948557 
L 140.68277 9.472727 
L 141.57364 40.036803 
L 142.464507 34.732377 
L 143.355376 41.924469 
L 144.246246 41.635759 
L 145.137113 40.728995 
L 146.027984 40.739688 
L 146.918849 38.026525 
L 173.644977 38.026525 
L 181.959197 44.604128 
L 183.444521 43.330238 
L 184.335387 43.728017 
L 185.226256 44.832957 
L 186.117131 44.030984 
L 187.007996 44.698939 
L 187.898864 43.911936 
L 188.789731 41.235842 
L 189.680603 47.851227 
L 190.571474 42.768501 
L 191.462343 45.105984 
L 192.353215 43.949718 
L 193.244077 47.538279 
L 194.134949 42.198209 
L 195.025817 41.187367 
L 195.916688 42.007161 
L 196.807557 47.905404 
L 197.698426 47.995938 
L 198.589295 47.020026 
L 199.480162 38.9062 
L 200.371032 46.40625 
L 201.261898 47.807029 
L 202.152766 47.697248 
L 203.043636 45.109549 
L 203.043636 45.109549 
" clip-path="url(#p67c841faa7)" style="fill: none; stroke: #339af0; stroke-width: 1.2; stroke-linecap: square"/>
   </g>
   <g id="line2d_22">
    <path d="M 43.916364 97.563562 
L 44.468628 98.818917 
L 46.250371 98.877372 
L 52.486458 98.832462 
L 53.377327 98.821056 
L 54.268192 98.927273 
L 55.159063 98.220111 
L 56.049934 98.919431 
L 59.613407 98.808224 
L 60.504275 98.90161 
L 61.395144 98.870244 
L 62.286016 98.699156 
L 63.176879 98.803234 
L 64.958622 98.801809 
L 67.631226 98.885214 
L 68.522078 98.770442 
L 70.30383 98.899471 
L 72.085571 98.798957 
L 73.867306 98.855273 
L 75.649039 98.880937 
L 76.539914 98.084667 
L 77.430784 98.722681 
L 79.212509 98.920857 
L 85.44861 98.747631 
L 120.192782 98.767591 
L 121.083649 98.634998 
L 121.97452 98.7847 
L 126.428869 98.701295 
L 136.228424 98.771155 
L 138.010159 98.598642 
L 139.791912 98.781848 
L 141.57364 98.52593 
L 142.464507 98.700582 
L 143.355376 98.595078 
L 144.246246 98.721255 
L 146.918849 98.590801 
L 173.644977 98.590801 
L 183.444521 98.754047 
L 184.335387 98.704859 
L 185.226256 98.913728 
L 186.117131 98.79967 
L 187.007996 98.892342 
L 188.789731 98.654246 
L 189.680603 98.865253 
L 190.571474 98.703433 
L 192.353215 98.836026 
L 195.025817 98.874521 
L 196.807557 98.759037 
L 197.698426 98.874521 
L 202.152766 98.769017 
L 203.043636 98.820343 
L 203.043636 98.820343 
" clip-path="url(#p67c841faa7)" style="fill: none; stroke: #ff6b6b; stroke-width: 1.2; stroke-linecap: square"/>
   </g>
   <g id="patch_3">
    <path d="M 35.96 103.4 
L 35.96 5 
" style="fill: none; stroke: var(--fg-color); stroke-width: 0.8; stroke-linejoin: miter; stroke-linecap: square"/>
   </g>
   <g id="patch_4">
    <path d="M 35.96 103.4 
L 211 103.4 
" style="fill: none; stroke: var(--fg-color); stroke-width: 0.8; stroke-linejoin: miter; stroke-linecap: square"/>
   </g>
  </g>
 </g>
 <defs>
  <clipPath id="p67c841faa7">
   <rect x="35.96" y="5" width="175.04" height="98.4"/>
  </clipPath>
 </defs>
</svg>
