<?xml version="1.0" encoding="utf-8" standalone="no"?>
<!DOCTYPE svg PUBLIC "-//W3C//DTD SVG 1.1//EN"
  "http://www.w3.org/Graphics/SVG/1.1/DTD/svg11.dtd">
<svg xmlns:xlink="http://www.w3.org/1999/xlink" width="216pt" height="122.4pt" viewBox="0 0 216 122.4" xmlns="http://www.w3.org/2000/svg" version="1.1">
  <style>
    :root {
      --fg-color: #212529;
      --grid-color: rgba(33, 37, 41, 0.1);
    }
    @media (prefers-color-scheme: dark) {
      :root {
        --fg-color: #dee2e6;
        --grid-color: rgba(248, 249, 250, 0.15);
      }
    }
  </style>

 <metadata>
  <rdf:RDF xmlns:dc="http://purl.org/dc/elements/1.1/" xmlns:cc="http://creativecommons.org/ns#" xmlns:rdf="http://www.w3.org/1999/02/22-rdf-syntax-ns#">
   <cc:Work>
    <dc:type rdf:resource="http://purl.org/dc/dcmitype/StillImage"/>
    <dc:date>2026-06-30T15:37:52.305770</dc:date>
    <dc:format>image/svg+xml</dc:format>
    <dc:creator>
     <cc:Agent>
      <dc:title>Matplotlib v3.11.0, https://matplotlib.org/</dc:title>
     </cc:Agent>
    </dc:creator>
   </cc:Work>
  </rdf:RDF>
 </metadata>
 <defs>
  <style type="text/css">*{stroke-linejoin: round; stroke-linecap: butt}</style>
 </defs>
 <g id="figure_1">
  <g id="patch_1">
   <path d="M 0 122.4 
L 216 122.4 
L 216 0 
L 0 0 
L 0 122.4 
z
" style="fill: none; opacity: 0"/>
  </g>
  <g id="axes_1">
   <g id="patch_2">
    <path d="M 35.96 103.4 
L 211 103.4 
L 211 5 
L 35.96 5 
L 35.96 103.4 
z
" style="fill: none; opacity: 0"/>
   </g>
   <g id="matplotlib.axis_1">
    <g id="xtick_1">
     <g id="line2d_1">
      <path d="M 69.784035 103.4 
L 69.784035 5 
" clip-path="url(#p81203f0c84)" style="fill: none; stroke-dasharray: 2.96,1.28; stroke-dashoffset: 0; stroke: var(--grid-color); stroke-width: 0.8"/>
     </g>
     <g id="line2d_2">
      <defs>
       <path id="mf9010d7d13" d="M 0 0 
L 0 3.5 
" style="stroke: var(--fg-color); stroke-width: 0.8"/>
      </defs>
      <g>
       <use xlink:href="#mf9010d7d13" x="69.784035" y="103.4" style="fill: var(--fg-color); stroke: var(--fg-color); stroke-width: 0.8"/>
      </g>
     </g>
     <g id="text_1">
      <text style="font-size: 7px; font-family: 'DejaVu Sans', 'Bitstream Vera Sans', 'Computer Modern Sans Serif', 'Lucida Grande', 'Verdana', 'Geneva', 'Lucid', 'Arial', 'Helvetica', 'Avant Garde', sans-serif; text-anchor: middle; fill: var(--fg-color)" x="69.784035" y="115.718359" transform="rotate(-0 69.784035 115.718359)">02/2026</text>
     </g>
    </g>
    <g id="xtick_2">
     <g id="line2d_3">
      <path d="M 122.345302 103.4 
L 122.345302 5 
" clip-path="url(#p81203f0c84)" style="fill: none; stroke-dasharray: 2.96,1.28; stroke-dashoffset: 0; stroke: var(--grid-color); stroke-width: 0.8"/>
     </g>
     <g id="line2d_4">
      <g>
       <use xlink:href="#mf9010d7d13" x="122.345302" y="103.4" style="fill: var(--fg-color); stroke: var(--fg-color); stroke-width: 0.8"/>
      </g>
     </g>
     <g id="text_2">
      <text style="font-size: 7px; font-family: 'DejaVu Sans', 'Bitstream Vera Sans', 'Computer Modern Sans Serif', 'Lucida Grande', 'Verdana', 'Geneva', 'Lucid', 'Arial', 'Helvetica', 'Avant Garde', sans-serif; text-anchor: middle; fill: var(--fg-color)" x="122.345302" y="115.718359" transform="rotate(-0 122.345302 115.718359)">04/2026</text>
     </g>
    </g>
    <g id="xtick_3">
     <g id="line2d_5">
      <path d="M 176.688307 103.4 
L 176.688307 5 
" clip-path="url(#p81203f0c84)" style="fill: none; stroke-dasharray: 2.96,1.28; stroke-dashoffset: 0; stroke: var(--grid-color); stroke-width: 0.8"/>
     </g>
     <g id="line2d_6">
      <g>
       <use xlink:href="#mf9010d7d13" x="176.688307" y="103.4" style="fill: var(--fg-color); stroke: var(--fg-color); stroke-width: 0.8"/>
      </g>
     </g>
     <g id="text_3">
      <text style="font-size: 7px; font-family: 'DejaVu Sans', 'Bitstream Vera Sans', 'Computer Modern Sans Serif', 'Lucida Grande', 'Verdana', 'Geneva', 'Lucid', 'Arial', 'Helvetica', 'Avant Garde', sans-serif; text-anchor: middle; fill: var(--fg-color)" x="176.688307" y="115.718359" transform="rotate(-0 176.688307 115.718359)">06/2026</text>
     </g>
    </g>
   </g>
   <g id="matplotlib.axis_2">
    <g id="ytick_1">
     <g id="line2d_7">
      <path d="M 35.96 99.533571 
L 211 99.533571 
" clip-path="url(#p81203f0c84)" style="fill: none; stroke-dasharray: 2.96,1.28; stroke-dashoffset: 0; stroke: var(--grid-color); stroke-width: 0.8"/>
     </g>
     <g id="line2d_8">
      <defs>
       <path id="m32f24b2431" d="M 0 0 
L -3.5 0 
" style="stroke: var(--fg-color); stroke-width: 0.8"/>
      </defs>
      <g>
       <use xlink:href="#m32f24b2431" x="35.96" y="99.533571" style="fill: var(--fg-color); stroke: var(--fg-color); stroke-width: 0.8"/>
      </g>
     </g>
     <g id="text_4">
      <text style="font-size: 7px; font-family: 'DejaVu Sans', 'Bitstream Vera Sans', 'Computer Modern Sans Serif', 'Lucida Grande', 'Verdana', 'Geneva', 'Lucid', 'Arial', 'Helvetica', 'Avant Garde', sans-serif; text-anchor: end; fill: var(--fg-color)" x="28.96" y="102.192751" transform="rotate(-0 28.96 102.192751)">0</text>
     </g>
    </g>
    <g id="ytick_2">
     <g id="line2d_9">
      <path d="M 35.96 74.428034 
L 211 74.428034 
" clip-path="url(#p81203f0c84)" style="fill: none; stroke-dasharray: 2.96,1.28; stroke-dashoffset: 0; stroke: var(--grid-color); stroke-width: 0.8"/>
     </g>
     <g id="line2d_10">
      <g>
       <use xlink:href="#m32f24b2431" x="35.96" y="74.428034" style="fill: var(--fg-color); stroke: var(--fg-color); stroke-width: 0.8"/>
      </g>
     </g>
     <g id="text_5">
      <text style="font-size: 7px; font-family: 'DejaVu Sans', 'Bitstream Vera Sans', 'Computer Modern Sans Serif', 'Lucida Grande', 'Verdana', 'Geneva', 'Lucid', 'Arial', 'Helvetica', 'Avant Garde', sans-serif; text-anchor: end; fill: var(--fg-color)" x="28.96" y="77.087213" transform="rotate(-0 28.96 77.087213)">100</text>
     </g>
    </g>
    <g id="ytick_3">
     <g id="line2d_11">
      <path d="M 35.96 49.322496 
L 211 49.322496 
" clip-path="url(#p81203f0c84)" style="fill: none; stroke-dasharray: 2.96,1.28; stroke-dashoffset: 0; stroke: var(--grid-color); stroke-width: 0.8"/>
     </g>
     <g id="line2d_12">
      <g>
       <use xlink:href="#m32f24b2431" x="35.96" y="49.322496" style="fill: var(--fg-color); stroke: var(--fg-color); stroke-width: 0.8"/>
      </g>
     </g>
     <g id="text_6">
      <text style="font-size: 7px; font-family: 'DejaVu Sans', 'Bitstream Vera Sans', 'Computer Modern Sans Serif', 'Lucida Grande', 'Verdana', 'Geneva', 'Lucid', 'Arial', 'Helvetica', 'Avant Garde', sans-serif; text-anchor: end; fill: var(--fg-color)" x="28.96" y="51.981676" transform="rotate(-0 28.96 51.981676)">200</text>
     </g>
    </g>
    <g id="ytick_4">
     <g id="line2d_13">
      <path d="M 35.96 24.216958 
L 211 24.216958 
" clip-path="url(#p81203f0c84)" style="fill: none; stroke-dasharray: 2.96,1.28; stroke-dashoffset: 0; stroke: var(--grid-color); stroke-width: 0.8"/>
     </g>
     <g id="line2d_14">
      <g>
       <use xlink:href="#m32f24b2431" x="35.96" y="24.216958" style="fill: var(--fg-color); stroke: var(--fg-color); stroke-width: 0.8"/>
      </g>
     </g>
     <g id="text_7">
      <text style="font-size: 7px; font-family: 'DejaVu Sans', 'Bitstream Vera Sans', 'Computer Modern Sans Serif', 'Lucida Grande', 'Verdana', 'Geneva', 'Lucid', 'Arial', 'Helvetica', 'Avant Garde', sans-serif; text-anchor: end; fill: var(--fg-color)" x="28.96" y="26.876138" transform="rotate(-0 28.96 26.876138)">300</text>
     </g>
    </g>
    <g id="text_8">
     <text style="font-size: 7px; font-family: 'DejaVu Sans', 'Bitstream Vera Sans', 'Computer Modern Sans Serif', 'Lucida Grande', 'Verdana', 'Geneva', 'Lucid', 'Arial', 'Helvetica', 'Avant Garde', sans-serif; text-anchor: middle; fill: var(--fg-color)" x="9.917109" y="54.2" transform="rotate(-90 9.917109 54.2)">ms</text>
    </g>
   </g>
   <g id="line2d_15">
    <path d="M 43.916364 35.218707 
L 44.468628 36.564364 
L 45.3595 38.263005 
L 46.250371 41.7587 
L 47.141245 37.67428 
L 48.032112 43.705383 
L 48.922979 36.922369 
L 49.81384 33.467847 
L 50.704717 42.200055 
L 51.595589 41.408729 
L 52.486458 37.328828 
L 53.377327 35.016106 
L 54.268192 36.374064 
L 55.159063 36.965802 
L 56.049934 40.520746 
L 56.940797 41.31157 
L 57.831669 40.374883 
L 58.722538 41.466722 
L 59.613407 44.088494 
L 60.504275 37.883158 
L 61.395144 37.102376 
L 62.286016 40.181068 
L 63.176879 40.383167 
L 64.067746 40.421328 
L 64.958622 36.955257 
L 65.84949 34.6222 
L 66.740361 36.281676 
L 67.631226 36.671565 
L 68.522078 33.049087 
L 69.412965 35.579976 
L 70.30383 39.248146 
L 71.194705 37.031829 
L 72.085571 40.359066 
L 72.976442 41.915107 
L 73.867306 33.441988 
L 74.758184 38.331292 
L 75.649039 35.040207 
L 76.539914 42.07754 
L 77.430784 32.726732 
L 78.321655 37.129741 
L 79.212509 32.671248 
L 80.103391 42.502577 
L 80.994245 37.407408 
L 81.885129 30.072323 
L 82.775998 38.319994 
L 83.666869 40.503925 
L 84.557735 39.424136 
L 85.44861 40.218475 
L 94.53997 22.800002 
L 95.248438 21.779713 
L 96.139324 26.388587 
L 97.030192 18.352305 
L 97.921065 44.131675 
L 98.811931 39.192412 
L 99.702798 37.135766 
L 100.593666 37.188488 
L 101.484533 28.34456 
L 102.375401 27.566037 
L 103.266272 31.890717 
L 104.157138 37.202045 
L 105.048009 22.67573 
L 105.93888 29.05354 
L 106.829748 39.294842 
L 107.720614 38.919515 
L 108.611487 29.68143 
L 109.502352 36.644702 
L 110.393224 35.410514 
L 111.284094 18.577753 
L 112.17496 36.901531 
L 113.065834 32.058673 
L 113.956695 34.997025 
L 114.847564 38.63532 
L 115.738441 31.538486 
L 116.629309 31.450366 
L 117.520178 37.257528 
L 118.41104 33.449269 
L 119.301913 35.287245 
L 120.192782 34.739694 
L 121.083649 33.803006 
L 121.97452 39.114585 
L 125.537994 41.492581 
L 126.428869 36.248034 
L 127.319734 38.09053 
L 128.210603 31.718744 
L 129.101474 26.92911 
L 129.992342 33.860498 
L 130.883214 35.46675 
L 131.774065 33.997323 
L 132.664946 34.326958 
L 133.55582 23.998791 
L 134.446686 27.319752 
L 135.337558 27.460594 
L 136.228424 34.240093 
L 137.119294 36.734831 
L 138.010159 35.165986 
L 138.901032 29.516989 
L 139.791912 29.639253 
L 140.68277 24.036952 
L 141.57364 21.641883 
L 142.464507 18.883036 
L 143.355376 23.405296 
L 144.246246 34.810993 
L 145.137113 27.373227 
L 146.027984 29.697497 
L 146.918849 34.021926 
L 173.644977 34.021926 
L 181.959197 23.070389 
L 182.553652 24.42433 
L 183.444521 27.097819 
L 184.335387 26.977563 
L 185.226256 27.311718 
L 186.117131 10.369999 
L 187.898864 30.190068 
L 188.789731 9.472727 
L 189.680603 28.416864 
L 190.571474 12.481124 
L 191.462343 20.122747 
L 192.353215 24.720325 
L 193.244077 33.537891 
L 194.134949 31.048928 
L 195.025817 31.144329 
L 195.916688 28.036515 
L 196.807557 35.524995 
L 197.698426 26.240465 
L 198.589295 40.677404 
L 199.480162 27.147277 
L 200.371032 25.45918 
L 201.261898 29.716075 
L 202.152766 24.178045 
L 203.043636 29.068353 
L 203.043636 29.068353 
" clip-path="url(#p81203f0c84)" style="fill: none; stroke: #339af0; stroke-width: 1.2; stroke-linecap: square"/>
   </g>
   <g id="line2d_16">
    <path d="M 43.916364 98.868777 
L 52.486458 98.892627 
L 56.049934 98.885849 
L 58.722538 98.880074 
L 59.613407 98.701574 
L 60.504275 98.884844 
L 65.84949 98.876811 
L 68.522078 98.883087 
L 71.194705 98.881581 
L 74.758184 98.869028 
L 77.430784 98.900159 
L 106.829748 98.875304 
L 110.393224 98.877062 
L 113.065834 98.856224 
L 142.464507 98.812791 
L 143.355376 98.65538 
L 144.246246 98.790699 
L 146.918849 98.727935 
L 186.117131 98.740488 
L 187.007996 98.849697 
L 188.789731 98.749777 
L 190.571474 98.840659 
L 202.152766 98.762831 
L 203.043636 98.862751 
L 203.043636 98.862751 
" clip-path="url(#p81203f0c84)" style="fill: none; stroke: #ff6b6b; stroke-width: 1.2; stroke-linecap: square"/>
   </g>
   <g id="patch_3">
    <path d="M 35.96 103.4 
L 35.96 5 
" style="fill: none; stroke: var(--fg-color); stroke-width: 0.8; stroke-linejoin: miter; stroke-linecap: square"/>
   </g>
   <g id="patch_4">
    <path d="M 35.96 103.4 
L 211 103.4 
" style="fill: none; stroke: var(--fg-color); stroke-width: 0.8; stroke-linejoin: miter; stroke-linecap: square"/>
   </g>
  </g>
 </g>
 <defs>
  <clipPath id="p81203f0c84">
   <rect x="35.96" y="5" width="175.04" height="98.4"/>
  </clipPath>
 </defs>
</svg>
