<?xml version="1.0" encoding="utf-8" standalone="no"?>
<!DOCTYPE svg PUBLIC "-//W3C//DTD SVG 1.1//EN"
  "http://www.w3.org/Graphics/SVG/1.1/DTD/svg11.dtd">
<svg xmlns:xlink="http://www.w3.org/1999/xlink" width="216pt" height="122.4pt" viewBox="0 0 216 122.4" xmlns="http://www.w3.org/2000/svg" version="1.1">
  <style>
    :root {
      --fg-color: #212529;
      --grid-color: rgba(33, 37, 41, 0.1);
    }
    @media (prefers-color-scheme: dark) {
      :root {
        --fg-color: #dee2e6;
        --grid-color: rgba(248, 249, 250, 0.15);
      }
    }
  </style>

 <metadata>
  <rdf:RDF xmlns:dc="http://purl.org/dc/elements/1.1/" xmlns:cc="http://creativecommons.org/ns#" xmlns:rdf="http://www.w3.org/1999/02/22-rdf-syntax-ns#">
   <cc:Work>
    <dc:type rdf:resource="http://purl.org/dc/dcmitype/StillImage"/>
    <dc:date>2026-06-30T15:36:57.018433</dc:date>
    <dc:format>image/svg+xml</dc:format>
    <dc:creator>
     <cc:Agent>
      <dc:title>Matplotlib v3.11.0, https://matplotlib.org/</dc:title>
     </cc:Agent>
    </dc:creator>
   </cc:Work>
  </rdf:RDF>
 </metadata>
 <defs>
  <style type="text/css">*{stroke-linejoin: round; stroke-linecap: butt}</style>
 </defs>
 <g id="figure_1">
  <g id="patch_1">
   <path d="M 0 122.4 
L 216 122.4 
L 216 0 
L 0 0 
L 0 122.4 
z
" style="fill: none; opacity: 0"/>
  </g>
  <g id="axes_1">
   <g id="patch_2">
    <path d="M 35.96 103.4 
L 211 103.4 
L 211 5.657648 
L 35.96 5.657648 
L 35.96 103.4 
z
" style="fill: none; opacity: 0"/>
   </g>
   <g id="matplotlib.axis_1">
    <g id="xtick_1">
     <g id="line2d_1">
      <path d="M 69.784035 103.4 
L 69.784035 5.657648 
" clip-path="url(#paeeaccff7a)" style="fill: none; stroke-dasharray: 2.96,1.28; stroke-dashoffset: 0; stroke: var(--grid-color); stroke-width: 0.8"/>
     </g>
     <g id="line2d_2">
      <defs>
       <path id="m12b0c64c2f" d="M 0 0 
L 0 3.5 
" style="stroke: var(--fg-color); stroke-width: 0.8"/>
      </defs>
      <g>
       <use xlink:href="#m12b0c64c2f" x="69.784035" y="103.4" style="fill: var(--fg-color); stroke: var(--fg-color); stroke-width: 0.8"/>
      </g>
     </g>
     <g id="text_1">
      <text style="font-size: 7px; font-family: 'DejaVu Sans', 'Bitstream Vera Sans', 'Computer Modern Sans Serif', 'Lucida Grande', 'Verdana', 'Geneva', 'Lucid', 'Arial', 'Helvetica', 'Avant Garde', sans-serif; text-anchor: middle; fill: var(--fg-color)" x="69.784035" y="115.718359" transform="rotate(-0 69.784035 115.718359)">02/2026</text>
     </g>
    </g>
    <g id="xtick_2">
     <g id="line2d_3">
      <path d="M 122.345302 103.4 
L 122.345302 5.657648 
" clip-path="url(#paeeaccff7a)" style="fill: none; stroke-dasharray: 2.96,1.28; stroke-dashoffset: 0; stroke: var(--grid-color); stroke-width: 0.8"/>
     </g>
     <g id="line2d_4">
      <g>
       <use xlink:href="#m12b0c64c2f" x="122.345302" y="103.4" style="fill: var(--fg-color); stroke: var(--fg-color); stroke-width: 0.8"/>
      </g>
     </g>
     <g id="text_2">
      <text style="font-size: 7px; font-family: 'DejaVu Sans', 'Bitstream Vera Sans', 'Computer Modern Sans Serif', 'Lucida Grande', 'Verdana', 'Geneva', 'Lucid', 'Arial', 'Helvetica', 'Avant Garde', sans-serif; text-anchor: middle; fill: var(--fg-color)" x="122.345302" y="115.718359" transform="rotate(-0 122.345302 115.718359)">04/2026</text>
     </g>
    </g>
    <g id="xtick_3">
     <g id="line2d_5">
      <path d="M 176.688307 103.4 
L 176.688307 5.657648 
" clip-path="url(#paeeaccff7a)" style="fill: none; stroke-dasharray: 2.96,1.28; stroke-dashoffset: 0; stroke: var(--grid-color); stroke-width: 0.8"/>
     </g>
     <g id="line2d_6">
      <g>
       <use xlink:href="#m12b0c64c2f" x="176.688307" y="103.4" style="fill: var(--fg-color); stroke: var(--fg-color); stroke-width: 0.8"/>
      </g>
     </g>
     <g id="text_3">
      <text style="font-size: 7px; font-family: 'DejaVu Sans', 'Bitstream Vera Sans', 'Computer Modern Sans Serif', 'Lucida Grande', 'Verdana', 'Geneva', 'Lucid', 'Arial', 'Helvetica', 'Avant Garde', sans-serif; text-anchor: middle; fill: var(--fg-color)" x="176.688307" y="115.718359" transform="rotate(-0 176.688307 115.718359)">06/2026</text>
     </g>
    </g>
   </g>
   <g id="matplotlib.axis_2">
    <g id="ytick_1">
     <g id="line2d_7">
      <path d="M 35.96 94.107886 
L 211 94.107886 
" clip-path="url(#paeeaccff7a)" style="fill: none; stroke-dasharray: 2.96,1.28; stroke-dashoffset: 0; stroke: var(--grid-color); stroke-width: 0.8"/>
     </g>
     <g id="line2d_8">
      <defs>
       <path id="mcaabf30dcc" d="M 0 0 
L -3.5 0 
" style="stroke: var(--fg-color); stroke-width: 0.8"/>
      </defs>
      <g>
       <use xlink:href="#mcaabf30dcc" x="35.96" y="94.107886" style="fill: var(--fg-color); stroke: var(--fg-color); stroke-width: 0.8"/>
      </g>
     </g>
     <g id="text_4">
      <text style="font-size: 7px; font-family: 'DejaVu Sans', 'Bitstream Vera Sans', 'Computer Modern Sans Serif', 'Lucida Grande', 'Verdana', 'Geneva', 'Lucid', 'Arial', 'Helvetica', 'Avant Garde', sans-serif; text-anchor: end; fill: var(--fg-color)" x="28.96" y="96.767065" transform="rotate(-0 28.96 96.767065)">100</text>
     </g>
    </g>
    <g id="ytick_2">
     <g id="line2d_9">
      <path d="M 35.96 72.514261 
L 211 72.514261 
" clip-path="url(#paeeaccff7a)" style="fill: none; stroke-dasharray: 2.96,1.28; stroke-dashoffset: 0; stroke: var(--grid-color); stroke-width: 0.8"/>
     </g>
     <g id="line2d_10">
      <g>
       <use xlink:href="#mcaabf30dcc" x="35.96" y="72.514261" style="fill: var(--fg-color); stroke: var(--fg-color); stroke-width: 0.8"/>
      </g>
     </g>
     <g id="text_5">
      <text style="font-size: 7px; font-family: 'DejaVu Sans', 'Bitstream Vera Sans', 'Computer Modern Sans Serif', 'Lucida Grande', 'Verdana', 'Geneva', 'Lucid', 'Arial', 'Helvetica', 'Avant Garde', sans-serif; text-anchor: end; fill: var(--fg-color)" x="28.96" y="75.173441" transform="rotate(-0 28.96 75.173441)">200</text>
     </g>
    </g>
    <g id="ytick_3">
     <g id="line2d_11">
      <path d="M 35.96 50.920637 
L 211 50.920637 
" clip-path="url(#paeeaccff7a)" style="fill: none; stroke-dasharray: 2.96,1.28; stroke-dashoffset: 0; stroke: var(--grid-color); stroke-width: 0.8"/>
     </g>
     <g id="line2d_12">
      <g>
       <use xlink:href="#mcaabf30dcc" x="35.96" y="50.920637" style="fill: var(--fg-color); stroke: var(--fg-color); stroke-width: 0.8"/>
      </g>
     </g>
     <g id="text_6">
      <text style="font-size: 7px; font-family: 'DejaVu Sans', 'Bitstream Vera Sans', 'Computer Modern Sans Serif', 'Lucida Grande', 'Verdana', 'Geneva', 'Lucid', 'Arial', 'Helvetica', 'Avant Garde', sans-serif; text-anchor: end; fill: var(--fg-color)" x="28.96" y="53.579817" transform="rotate(-0 28.96 53.579817)">300</text>
     </g>
    </g>
    <g id="ytick_4">
     <g id="line2d_13">
      <path d="M 35.96 29.327013 
L 211 29.327013 
" clip-path="url(#paeeaccff7a)" style="fill: none; stroke-dasharray: 2.96,1.28; stroke-dashoffset: 0; stroke: var(--grid-color); stroke-width: 0.8"/>
     </g>
     <g id="line2d_14">
      <g>
       <use xlink:href="#mcaabf30dcc" x="35.96" y="29.327013" style="fill: var(--fg-color); stroke: var(--fg-color); stroke-width: 0.8"/>
      </g>
     </g>
     <g id="text_7">
      <text style="font-size: 7px; font-family: 'DejaVu Sans', 'Bitstream Vera Sans', 'Computer Modern Sans Serif', 'Lucida Grande', 'Verdana', 'Geneva', 'Lucid', 'Arial', 'Helvetica', 'Avant Garde', sans-serif; text-anchor: end; fill: var(--fg-color)" x="28.96" y="31.986193" transform="rotate(-0 28.96 31.986193)">400</text>
     </g>
    </g>
    <g id="ytick_5">
     <g id="line2d_15">
      <path d="M 35.96 7.733389 
L 211 7.733389 
" clip-path="url(#paeeaccff7a)" style="fill: none; stroke-dasharray: 2.96,1.28; stroke-dashoffset: 0; stroke: var(--grid-color); stroke-width: 0.8"/>
     </g>
     <g id="line2d_16">
      <g>
       <use xlink:href="#mcaabf30dcc" x="35.96" y="7.733389" style="fill: var(--fg-color); stroke: var(--fg-color); stroke-width: 0.8"/>
      </g>
     </g>
     <g id="text_8">
      <text style="font-size: 7px; font-family: 'DejaVu Sans', 'Bitstream Vera Sans', 'Computer Modern Sans Serif', 'Lucida Grande', 'Verdana', 'Geneva', 'Lucid', 'Arial', 'Helvetica', 'Avant Garde', sans-serif; text-anchor: end; fill: var(--fg-color)" x="28.96" y="10.392568" transform="rotate(-0 28.96 10.392568)">500</text>
     </g>
    </g>
    <g id="text_9">
     <text style="font-size: 7px; font-family: 'DejaVu Sans', 'Bitstream Vera Sans', 'Computer Modern Sans Serif', 'Lucida Grande', 'Verdana', 'Geneva', 'Lucid', 'Arial', 'Helvetica', 'Avant Garde', sans-serif; text-anchor: middle; fill: var(--fg-color)" x="9.917109" y="54.528824" transform="rotate(-90 9.917109 54.528824)">ms</text>
    </g>
   </g>
   <g id="line2d_17">
    <path d="M 43.916364 60.00853 
L 44.468628 57.2236 
L 45.3595 63.323367 
L 46.250371 55.299392 
L 47.141245 57.178901 
L 48.032112 53.85845 
L 48.922979 60.464587 
L 50.704717 56.125133 
L 51.595589 59.791082 
L 52.486458 58.815698 
L 53.377327 61.488341 
L 54.268192 57.553551 
L 55.159063 60.188189 
L 56.049934 57.298098 
L 56.940797 60.598036 
L 57.831669 62.092746 
L 58.722538 59.782445 
L 59.613407 61.033147 
L 60.504275 57.38836 
L 61.395144 55.279526 
L 62.286016 58.386633 
L 63.176879 58.420751 
L 64.067746 60.140899 
L 64.958622 60.280178 
L 65.84949 52.350567 
L 66.740361 57.913301 
L 67.631226 58.739904 
L 68.522078 60.463292 
L 69.412965 59.233751 
L 70.30383 48.303058 
L 71.194705 56.437376 
L 72.085571 54.892568 
L 72.976442 53.932732 
L 73.867306 57.572553 
L 74.758184 56.589611 
L 75.649039 56.869681 
L 76.539914 58.542755 
L 77.430784 56.135282 
L 78.321655 52.908114 
L 79.212509 60.661953 
L 80.103391 58.045669 
L 80.994245 57.605591 
L 81.885129 59.089289 
L 82.775998 60.186029 
L 83.666869 58.550744 
L 84.557735 62.728895 
L 85.44861 56.553982 
L 94.53997 50.216469 
L 95.248438 49.946117 
L 96.139324 47.605584 
L 97.030192 49.46134 
L 97.921065 57.270242 
L 98.811931 54.272615 
L 99.702798 52.989738 
L 100.593666 56.282334 
L 101.484533 55.748972 
L 102.375401 59.29594 
L 103.266272 56.716582 
L 105.048009 57.988878 
L 105.93888 58.006153 
L 106.829748 58.29961 
L 107.720614 58.016086 
L 108.611487 55.136792 
L 109.502352 57.271538 
L 110.393224 60.71896 
L 111.284094 58.340206 
L 112.17496 56.93403 
L 113.065834 57.043509 
L 113.956695 61.018464 
L 114.847564 55.826709 
L 115.738441 59.146296 
L 116.629309 60.620709 
L 117.520178 19.234153 
L 118.41104 48.624803 
L 119.301913 55.31278 
L 120.192782 53.849596 
L 121.083649 49.214309 
L 121.97452 51.417938 
L 125.537994 52.454216 
L 126.428869 55.536706 
L 128.210603 58.469768 
L 129.101474 50.138084 
L 129.992342 59.435003 
L 130.883214 62.509072 
L 131.774065 53.67987 
L 133.55582 56.459618 
L 134.446686 54.023857 
L 135.337558 54.682031 
L 136.228424 51.782655 
L 137.119294 56.8442 
L 138.010159 57.084105 
L 138.901032 52.931651 
L 139.791912 58.585078 
L 140.68277 13.3175 
L 141.57364 53.330486 
L 142.464507 54.255125 
L 143.355376 56.908981 
L 144.246246 44.152763 
L 145.137113 54.91589 
L 146.027984 52.086693 
L 146.918849 46.573193 
L 181.959197 46.602992 
L 182.553652 54.840744 
L 183.444521 51.499346 
L 184.335387 52.45616 
L 185.226256 47.937262 
L 186.117131 54.652663 
L 187.007996 59.051716 
L 187.898864 54.596952 
L 188.789731 56.232669 
L 189.680603 54.912003 
L 190.571474 55.510146 
L 191.462343 10.100482 
L 192.353215 55.342364 
L 193.244077 55.395268 
L 194.134949 52.478617 
L 195.025817 51.632363 
L 195.916688 49.366328 
L 196.807557 56.792375 
L 197.698426 49.926251 
L 198.589295 59.723278 
L 199.480162 56.028609 
L 200.371032 58.203519 
L 201.261898 56.779203 
L 202.152766 53.287514 
L 203.043636 58.041999 
L 203.043636 58.041999 
" clip-path="url(#paeeaccff7a)" style="fill: none; stroke: #339af0; stroke-width: 1.2; stroke-linecap: square"/>
   </g>
   <g id="line2d_18">
    <path d="M 43.916364 95.790677 
L 44.468628 97.04505 
L 45.3595 97.663276 
L 46.250371 97.997977 
L 47.141245 97.463103 
L 48.032112 96.728488 
L 48.922979 97.963859 
L 49.81384 97.238745 
L 51.595589 97.480162 
L 52.486458 98.504348 
L 53.377327 98.084352 
L 54.268192 98.20981 
L 55.159063 98.15885 
L 56.049934 97.610587 
L 57.831669 96.979406 
L 58.722538 97.851788 
L 59.613407 97.935787 
L 60.504275 97.022377 
L 61.395144 96.341098 
L 62.286016 96.748786 
L 63.176879 97.313027 
L 64.067746 97.517519 
L 64.958622 97.854379 
L 65.84949 96.747706 
L 66.740361 98.106161 
L 67.631226 98.310653 
L 68.522078 98.178284 
L 69.412965 97.855675 
L 70.30383 97.361181 
L 71.194705 97.220175 
L 72.085571 97.204411 
L 72.976442 98.07485 
L 73.867306 96.666298 
L 74.758184 96.906203 
L 76.539914 97.891736 
L 77.430784 96.715316 
L 78.321655 95.75116 
L 79.212509 98.040516 
L 80.103391 98.118685 
L 80.994245 97.602814 
L 81.885129 96.898214 
L 82.775998 97.937947 
L 83.666869 97.787871 
L 84.557735 97.247599 
L 85.44861 97.064485 
L 94.53997 97.543647 
L 95.248438 96.097306 
L 96.139324 96.993873 
L 97.030192 97.263362 
L 97.921065 98.072691 
L 98.811931 96.55034 
L 99.702798 96.127753 
L 100.593666 97.93514 
L 101.484533 97.268544 
L 102.375401 96.881371 
L 103.266272 96.146756 
L 105.048009 98.359238 
L 105.93888 97.480594 
L 106.829748 97.499596 
L 107.720614 98.37241 
L 108.611487 95.268759 
L 109.502352 97.4197 
L 110.393224 97.163815 
L 111.284094 97.639523 
L 112.17496 97.176124 
L 113.065834 97.069667 
L 113.956695 98.674289 
L 114.847564 96.996249 
L 115.738441 98.003375 
L 116.629309 96.566752 
L 117.520178 97.432224 
L 118.41104 97.17526 
L 119.301913 97.227948 
L 120.192782 97.784632 
L 121.083649 97.590289 
L 121.97452 97.098387 
L 125.537994 97.621168 
L 126.428869 96.607779 
L 127.319734 97.651831 
L 128.210603 97.750514 
L 129.101474 95.860856 
L 129.992342 97.313891 
L 130.883214 96.763685 
L 131.774065 97.853732 
L 132.664946 97.275454 
L 133.55582 97.220391 
L 134.446686 96.30223 
L 135.337558 96.29532 
L 136.228424 95.997112 
L 137.119294 97.611235 
L 138.010159 97.121276 
L 138.901032 95.626565 
L 139.791912 97.730864 
L 140.68277 96.718123 
L 141.57364 96.128185 
L 142.464507 97.579277 
L 144.246246 96.409334 
L 145.137113 96.370897 
L 146.027984 95.073984 
L 146.918849 95.860856 
L 173.644977 95.860856 
L 181.959197 96.682493 
L 182.553652 96.892599 
L 183.444521 96.789814 
L 185.226256 97.586403 
L 186.117131 96.465478 
L 187.007996 97.77038 
L 187.898864 97.462239 
L 188.789731 97.391628 
L 189.680603 96.920887 
L 190.571474 96.701496 
L 191.462343 98.561355 
L 192.353215 97.575174 
L 193.244077 98.588563 
L 194.134949 98.164032 
L 195.025817 97.466126 
L 195.916688 97.890873 
L 196.807557 98.132937 
L 197.698426 97.398322 
L 198.589295 98.706032 
L 199.480162 97.659605 
L 200.371032 97.321449 
L 201.261898 97.614258 
L 202.152766 97.243064 
L 203.043636 98.957166 
L 203.043636 98.957166 
" clip-path="url(#paeeaccff7a)" style="fill: none; stroke: #ff6b6b; stroke-width: 1.2; stroke-linecap: square"/>
   </g>
   <g id="patch_3">
    <path d="M 35.96 103.4 
L 35.96 5.657648 
" style="fill: none; stroke: var(--fg-color); stroke-width: 0.8; stroke-linejoin: miter; stroke-linecap: square"/>
   </g>
   <g id="patch_4">
    <path d="M 35.96 103.4 
L 211 103.4 
" style="fill: none; stroke: var(--fg-color); stroke-width: 0.8; stroke-linejoin: miter; stroke-linecap: square"/>
   </g>
  </g>
 </g>
 <defs>
  <clipPath id="paeeaccff7a">
   <rect x="35.96" y="5.657648" width="175.04" height="97.742352"/>
  </clipPath>
 </defs>
</svg>
