<?xml version="1.0" encoding="utf-8" standalone="no"?>
<!DOCTYPE svg PUBLIC "-//W3C//DTD SVG 1.1//EN"
  "http://www.w3.org/Graphics/SVG/1.1/DTD/svg11.dtd">
<svg xmlns:xlink="http://www.w3.org/1999/xlink" width="216pt" height="122.4pt" viewBox="0 0 216 122.4" xmlns="http://www.w3.org/2000/svg" version="1.1">
  <style>
    :root {
      --fg-color: #212529;
      --grid-color: rgba(33, 37, 41, 0.1);
    }
    @media (prefers-color-scheme: dark) {
      :root {
        --fg-color: #dee2e6;
        --grid-color: rgba(248, 249, 250, 0.15);
      }
    }
  </style>

 <metadata>
  <rdf:RDF xmlns:dc="http://purl.org/dc/elements/1.1/" xmlns:cc="http://creativecommons.org/ns#" xmlns:rdf="http://www.w3.org/1999/02/22-rdf-syntax-ns#">
   <cc:Work>
    <dc:type rdf:resource="http://purl.org/dc/dcmitype/StillImage"/>
    <dc:date>2026-06-30T15:37:24.604489</dc:date>
    <dc:format>image/svg+xml</dc:format>
    <dc:creator>
     <cc:Agent>
      <dc:title>Matplotlib v3.11.0, https://matplotlib.org/</dc:title>
     </cc:Agent>
    </dc:creator>
   </cc:Work>
  </rdf:RDF>
 </metadata>
 <defs>
  <style type="text/css">*{stroke-linejoin: round; stroke-linecap: butt}</style>
 </defs>
 <g id="figure_1">
  <g id="patch_1">
   <path d="M 0 122.4 
L 216 122.4 
L 216 0 
L 0 0 
L 0 122.4 
z
" style="fill: none; opacity: 0"/>
  </g>
  <g id="axes_1">
   <g id="patch_2">
    <path d="M 35.96 103.4 
L 211 103.4 
L 211 5 
L 35.96 5 
L 35.96 103.4 
z
" style="fill: none; opacity: 0"/>
   </g>
   <g id="matplotlib.axis_1">
    <g id="xtick_1">
     <g id="line2d_1">
      <path d="M 69.784035 103.4 
L 69.784035 5 
" clip-path="url(#pd4f48ea01f)" style="fill: none; stroke-dasharray: 2.96,1.28; stroke-dashoffset: 0; stroke: var(--grid-color); stroke-width: 0.8"/>
     </g>
     <g id="line2d_2">
      <defs>
       <path id="m9ea6941f4f" d="M 0 0 
L 0 3.5 
" style="stroke: var(--fg-color); stroke-width: 0.8"/>
      </defs>
      <g>
       <use xlink:href="#m9ea6941f4f" x="69.784035" y="103.4" style="fill: var(--fg-color); stroke: var(--fg-color); stroke-width: 0.8"/>
      </g>
     </g>
     <g id="text_1">
      <text style="font-size: 7px; font-family: 'DejaVu Sans', 'Bitstream Vera Sans', 'Computer Modern Sans Serif', 'Lucida Grande', 'Verdana', 'Geneva', 'Lucid', 'Arial', 'Helvetica', 'Avant Garde', sans-serif; text-anchor: middle; fill: var(--fg-color)" x="69.784035" y="115.718359" transform="rotate(-0 69.784035 115.718359)">02/2026</text>
     </g>
    </g>
    <g id="xtick_2">
     <g id="line2d_3">
      <path d="M 122.345302 103.4 
L 122.345302 5 
" clip-path="url(#pd4f48ea01f)" style="fill: none; stroke-dasharray: 2.96,1.28; stroke-dashoffset: 0; stroke: var(--grid-color); stroke-width: 0.8"/>
     </g>
     <g id="line2d_4">
      <g>
       <use xlink:href="#m9ea6941f4f" x="122.345302" y="103.4" style="fill: var(--fg-color); stroke: var(--fg-color); stroke-width: 0.8"/>
      </g>
     </g>
     <g id="text_2">
      <text style="font-size: 7px; font-family: 'DejaVu Sans', 'Bitstream Vera Sans', 'Computer Modern Sans Serif', 'Lucida Grande', 'Verdana', 'Geneva', 'Lucid', 'Arial', 'Helvetica', 'Avant Garde', sans-serif; text-anchor: middle; fill: var(--fg-color)" x="122.345302" y="115.718359" transform="rotate(-0 122.345302 115.718359)">04/2026</text>
     </g>
    </g>
    <g id="xtick_3">
     <g id="line2d_5">
      <path d="M 176.688307 103.4 
L 176.688307 5 
" clip-path="url(#pd4f48ea01f)" style="fill: none; stroke-dasharray: 2.96,1.28; stroke-dashoffset: 0; stroke: var(--grid-color); stroke-width: 0.8"/>
     </g>
     <g id="line2d_6">
      <g>
       <use xlink:href="#m9ea6941f4f" x="176.688307" y="103.4" style="fill: var(--fg-color); stroke: var(--fg-color); stroke-width: 0.8"/>
      </g>
     </g>
     <g id="text_3">
      <text style="font-size: 7px; font-family: 'DejaVu Sans', 'Bitstream Vera Sans', 'Computer Modern Sans Serif', 'Lucida Grande', 'Verdana', 'Geneva', 'Lucid', 'Arial', 'Helvetica', 'Avant Garde', sans-serif; text-anchor: middle; fill: var(--fg-color)" x="176.688307" y="115.718359" transform="rotate(-0 176.688307 115.718359)">06/2026</text>
     </g>
    </g>
   </g>
   <g id="matplotlib.axis_2">
    <g id="ytick_1">
     <g id="line2d_7">
      <path d="M 35.96 101.070958 
L 211 101.070958 
" clip-path="url(#pd4f48ea01f)" style="fill: none; stroke-dasharray: 2.96,1.28; stroke-dashoffset: 0; stroke: var(--grid-color); stroke-width: 0.8"/>
     </g>
     <g id="line2d_8">
      <defs>
       <path id="mf4d3e53589" d="M 0 0 
L -3.5 0 
" style="stroke: var(--fg-color); stroke-width: 0.8"/>
      </defs>
      <g>
       <use xlink:href="#mf4d3e53589" x="35.96" y="101.070958" style="fill: var(--fg-color); stroke: var(--fg-color); stroke-width: 0.8"/>
      </g>
     </g>
     <g id="text_4">
      <text style="font-size: 7px; font-family: 'DejaVu Sans', 'Bitstream Vera Sans', 'Computer Modern Sans Serif', 'Lucida Grande', 'Verdana', 'Geneva', 'Lucid', 'Arial', 'Helvetica', 'Avant Garde', sans-serif; text-anchor: end; fill: var(--fg-color)" x="28.96" y="103.730138" transform="rotate(-0 28.96 103.730138)">0</text>
     </g>
    </g>
    <g id="ytick_2">
     <g id="line2d_9">
      <path d="M 35.96 83.903618 
L 211 83.903618 
" clip-path="url(#pd4f48ea01f)" style="fill: none; stroke-dasharray: 2.96,1.28; stroke-dashoffset: 0; stroke: var(--grid-color); stroke-width: 0.8"/>
     </g>
     <g id="line2d_10">
      <g>
       <use xlink:href="#mf4d3e53589" x="35.96" y="83.903618" style="fill: var(--fg-color); stroke: var(--fg-color); stroke-width: 0.8"/>
      </g>
     </g>
     <g id="text_5">
      <text style="font-size: 7px; font-family: 'DejaVu Sans', 'Bitstream Vera Sans', 'Computer Modern Sans Serif', 'Lucida Grande', 'Verdana', 'Geneva', 'Lucid', 'Arial', 'Helvetica', 'Avant Garde', sans-serif; text-anchor: end; fill: var(--fg-color)" x="28.96" y="86.562798" transform="rotate(-0 28.96 86.562798)">100</text>
     </g>
    </g>
    <g id="ytick_3">
     <g id="line2d_11">
      <path d="M 35.96 66.736278 
L 211 66.736278 
" clip-path="url(#pd4f48ea01f)" style="fill: none; stroke-dasharray: 2.96,1.28; stroke-dashoffset: 0; stroke: var(--grid-color); stroke-width: 0.8"/>
     </g>
     <g id="line2d_12">
      <g>
       <use xlink:href="#mf4d3e53589" x="35.96" y="66.736278" style="fill: var(--fg-color); stroke: var(--fg-color); stroke-width: 0.8"/>
      </g>
     </g>
     <g id="text_6">
      <text style="font-size: 7px; font-family: 'DejaVu Sans', 'Bitstream Vera Sans', 'Computer Modern Sans Serif', 'Lucida Grande', 'Verdana', 'Geneva', 'Lucid', 'Arial', 'Helvetica', 'Avant Garde', sans-serif; text-anchor: end; fill: var(--fg-color)" x="28.96" y="69.395458" transform="rotate(-0 28.96 69.395458)">200</text>
     </g>
    </g>
    <g id="ytick_4">
     <g id="line2d_13">
      <path d="M 35.96 49.568938 
L 211 49.568938 
" clip-path="url(#pd4f48ea01f)" style="fill: none; stroke-dasharray: 2.96,1.28; stroke-dashoffset: 0; stroke: var(--grid-color); stroke-width: 0.8"/>
     </g>
     <g id="line2d_14">
      <g>
       <use xlink:href="#mf4d3e53589" x="35.96" y="49.568938" style="fill: var(--fg-color); stroke: var(--fg-color); stroke-width: 0.8"/>
      </g>
     </g>
     <g id="text_7">
      <text style="font-size: 7px; font-family: 'DejaVu Sans', 'Bitstream Vera Sans', 'Computer Modern Sans Serif', 'Lucida Grande', 'Verdana', 'Geneva', 'Lucid', 'Arial', 'Helvetica', 'Avant Garde', sans-serif; text-anchor: end; fill: var(--fg-color)" x="28.96" y="52.228118" transform="rotate(-0 28.96 52.228118)">300</text>
     </g>
    </g>
    <g id="ytick_5">
     <g id="line2d_15">
      <path d="M 35.96 32.401598 
L 211 32.401598 
" clip-path="url(#pd4f48ea01f)" style="fill: none; stroke-dasharray: 2.96,1.28; stroke-dashoffset: 0; stroke: var(--grid-color); stroke-width: 0.8"/>
     </g>
     <g id="line2d_16">
      <g>
       <use xlink:href="#mf4d3e53589" x="35.96" y="32.401598" style="fill: var(--fg-color); stroke: var(--fg-color); stroke-width: 0.8"/>
      </g>
     </g>
     <g id="text_8">
      <text style="font-size: 7px; font-family: 'DejaVu Sans', 'Bitstream Vera Sans', 'Computer Modern Sans Serif', 'Lucida Grande', 'Verdana', 'Geneva', 'Lucid', 'Arial', 'Helvetica', 'Avant Garde', sans-serif; text-anchor: end; fill: var(--fg-color)" x="28.96" y="35.060778" transform="rotate(-0 28.96 35.060778)">400</text>
     </g>
    </g>
    <g id="ytick_6">
     <g id="line2d_17">
      <path d="M 35.96 15.234258 
L 211 15.234258 
" clip-path="url(#pd4f48ea01f)" style="fill: none; stroke-dasharray: 2.96,1.28; stroke-dashoffset: 0; stroke: var(--grid-color); stroke-width: 0.8"/>
     </g>
     <g id="line2d_18">
      <g>
       <use xlink:href="#mf4d3e53589" x="35.96" y="15.234258" style="fill: var(--fg-color); stroke: var(--fg-color); stroke-width: 0.8"/>
      </g>
     </g>
     <g id="text_9">
      <text style="font-size: 7px; font-family: 'DejaVu Sans', 'Bitstream Vera Sans', 'Computer Modern Sans Serif', 'Lucida Grande', 'Verdana', 'Geneva', 'Lucid', 'Arial', 'Helvetica', 'Avant Garde', sans-serif; text-anchor: end; fill: var(--fg-color)" x="28.96" y="17.893438" transform="rotate(-0 28.96 17.893438)">500</text>
     </g>
    </g>
    <g id="text_10">
     <text style="font-size: 7px; font-family: 'DejaVu Sans', 'Bitstream Vera Sans', 'Computer Modern Sans Serif', 'Lucida Grande', 'Verdana', 'Geneva', 'Lucid', 'Arial', 'Helvetica', 'Avant Garde', sans-serif; text-anchor: middle; fill: var(--fg-color)" x="9.917109" y="54.2" transform="rotate(-90 9.917109 54.2)">ms</text>
    </g>
   </g>
   <g id="line2d_19">
    <path d="M 43.916364 43.047238 
L 44.468628 40.566557 
L 45.3595 43.266293 
L 47.141245 19.57399 
L 48.032112 42.323634 
L 48.922979 38.736175 
L 49.81384 31.097052 
L 50.704717 39.20965 
L 51.595589 37.980984 
L 52.486458 38.018409 
L 53.377327 34.397302 
L 54.268192 43.906463 
L 55.159063 29.30152 
L 56.049934 36.715408 
L 56.940797 31.72984 
L 57.831669 35.083824 
L 58.722538 32.908035 
L 59.613407 39.186989 
L 60.504275 21.804199 
L 61.395144 41.460632 
L 62.286016 39.434199 
L 63.176879 30.831988 
L 64.067746 36.509914 
L 64.958622 38.48124 
L 65.84949 42.774449 
L 66.740361 36.715579 
L 67.631226 40.423725 
L 68.522078 37.421672 
L 69.412965 35.258072 
L 70.30383 41.704752 
L 71.194705 23.883851 
L 72.085571 40.65102 
L 72.976442 43.746807 
L 73.867306 33.212755 
L 74.758184 34.396958 
L 75.649039 34.104942 
L 76.539914 33.203141 
L 77.430784 32.511298 
L 78.321655 31.197824 
L 80.103391 40.119519 
L 80.994245 32.965545 
L 81.885129 35.618243 
L 82.775998 35.329488 
L 83.666869 38.291884 
L 84.557735 33.086575 
L 85.44861 34.105628 
L 94.53997 31.849668 
L 95.248438 40.411536 
L 96.139324 38.615832 
L 97.030192 37.835576 
L 97.921065 33.396617 
L 98.811931 39.929134 
L 99.702798 36.52176 
L 100.593666 43.649811 
L 101.484533 33.820822 
L 102.375401 39.791108 
L 103.266272 34.83318 
L 104.157138 34.756442 
L 105.048009 33.765715 
L 105.93888 25.229084 
L 106.829748 40.239176 
L 107.720614 25.477838 
L 108.611487 40.239519 
L 109.502352 32.517306 
L 111.284094 35.019446 
L 112.17496 30.494307 
L 113.065834 20.955961 
L 113.956695 41.108358 
L 114.847564 38.046048 
L 115.738441 34.082968 
L 117.520178 24.023765 
L 118.41104 33.836788 
L 119.301913 39.01978 
L 120.192782 44.946289 
L 121.083649 33.036618 
L 121.97452 41.185611 
L 125.537994 34.854296 
L 126.428869 40.877114 
L 127.319734 31.370528 
L 128.210603 35.59335 
L 129.101474 26.984101 
L 129.992342 34.978931 
L 130.883214 15.657433 
L 131.774065 45.617703 
L 132.664946 39.264929 
L 133.55582 35.80056 
L 134.446686 29.818772 
L 135.337558 30.109587 
L 136.228424 33.078335 
L 137.119294 25.902215 
L 138.010159 28.615341 
L 138.901032 35.987856 
L 139.791912 22.97175 
L 141.57364 34.085714 
L 142.464507 37.70665 
L 143.355376 34.192839 
L 144.246246 32.536362 
L 145.137113 27.908219 
L 146.027984 30.891044 
L 146.918849 31.200571 
L 173.644977 31.200571 
L 181.959197 37.615663 
L 182.553652 40.363296 
L 183.444521 9.472727 
L 184.335387 42.270415 
L 185.226256 31.519025 
L 186.117131 32.538937 
L 187.007996 37.20811 
L 187.898864 39.202955 
L 189.680603 32.306491 
L 190.571474 34.593696 
L 191.462343 40.76072 
L 192.353215 32.745975 
L 193.244077 36.945107 
L 194.134949 43.245692 
L 195.025817 34.562623 
L 195.916688 35.256184 
L 196.807557 38.781154 
L 197.698426 38.382013 
L 198.589295 35.983907 
L 199.480162 31.897222 
L 200.371032 40.011022 
L 201.261898 42.284321 
L 202.152766 37.875061 
L 203.043636 32.036449 
L 203.043636 32.036449 
" clip-path="url(#pd4f48ea01f)" style="fill: none; stroke: #339af0; stroke-width: 1.2; stroke-linecap: square"/>
   </g>
   <g id="line2d_20">
    <path d="M 43.916364 95.343762 
L 44.468628 96.395433 
L 45.3595 95.687109 
L 46.250371 95.374835 
L 47.141245 95.446423 
L 48.032112 94.805394 
L 48.922979 97.154058 
L 49.81384 96.883501 
L 50.704717 96.734317 
L 51.595589 95.634062 
L 52.486458 97.039895 
L 53.377327 96.709939 
L 54.268192 98.087103 
L 56.049934 95.223419 
L 56.940797 95.500672 
L 57.831669 95.583075 
L 58.722538 94.415524 
L 59.613407 94.522477 
L 60.504275 94.825137 
L 61.395144 96.493116 
L 62.286016 94.231662 
L 63.176879 98.927273 
L 64.067746 95.716122 
L 64.958622 96.00522 
L 65.84949 95.16299 
L 66.740361 95.456723 
L 67.631226 96.530197 
L 68.522078 95.716122 
L 69.412965 94.152177 
L 70.30383 96.247966 
L 72.085571 95.703075 
L 72.976442 95.84522 
L 73.867306 97.208307 
L 74.758184 95.237325 
L 75.649039 95.206423 
L 76.539914 94.508571 
L 77.430784 95.389427 
L 78.321655 92.906515 
L 79.212509 92.591151 
L 80.103391 94.181533 
L 80.994245 94.68488 
L 82.775998 96.928136 
L 83.666869 97.476461 
L 84.557735 95.792001 
L 85.44861 93.389604 
L 94.53997 95.462904 
L 95.248438 96.019984 
L 96.139324 95.455693 
L 97.030192 95.62977 
L 98.811931 95.024106 
L 99.702798 96.091228 
L 100.593666 95.053291 
L 101.484533 97.373285 
L 102.375401 96.178267 
L 103.266272 96.365562 
L 104.157138 98.140494 
L 105.048009 97.776889 
L 105.93888 96.793887 
L 106.829748 96.844188 
L 107.720614 96.125219 
L 108.611487 96.833201 
L 109.502352 96.337236 
L 110.393224 98.471137 
L 111.284094 97.993713 
L 112.17496 95.915091 
L 113.065834 96.631484 
L 113.956695 97.582555 
L 114.847564 97.400925 
L 115.738441 93.211922 
L 116.629309 95.320586 
L 117.520178 93.20145 
L 118.41104 97.085217 
L 119.301913 95.523676 
L 120.192782 98.923496 
L 121.083649 96.637493 
L 121.97452 95.950628 
L 125.537994 95.246767 
L 126.428869 97.922297 
L 128.210603 96.404704 
L 129.101474 95.868053 
L 129.992342 95.040072 
L 130.883214 94.91578 
L 131.774065 95.101359 
L 132.664946 96.948908 
L 133.55582 96.626334 
L 134.446686 96.524532 
L 135.337558 94.79063 
L 136.228424 96.574832 
L 137.119294 95.812602 
L 138.010159 96.954402 
L 138.901032 97.786675 
L 139.791912 96.609853 
L 140.68277 92.926429 
L 141.57364 97.537577 
L 142.464507 93.792693 
L 143.355376 94.737927 
L 144.246246 93.25381 
L 145.137113 93.715783 
L 146.027984 98.222553 
L 146.918849 96.312687 
L 173.644977 96.312687 
L 181.959197 95.17123 
L 182.553652 96.355434 
L 183.444521 96.085735 
L 184.335387 96.270627 
L 185.226256 96.200412 
L 186.117131 95.389256 
L 187.007996 95.702903 
L 187.898864 94.969342 
L 188.789731 97.613456 
L 189.680603 96.42582 
L 190.571474 97.119208 
L 191.462343 97.384272 
L 192.353215 97.168135 
L 193.244077 95.6411 
L 194.134949 95.780328 
L 195.025817 97.974142 
L 195.916688 95.800757 
L 196.807557 94.831145 
L 197.698426 94.674236 
L 198.589295 94.726596 
L 199.480162 95.51183 
L 200.371032 93.977242 
L 201.261898 95.889855 
L 202.152766 93.931233 
L 203.043636 95.441616 
L 203.043636 95.441616 
" clip-path="url(#pd4f48ea01f)" style="fill: none; stroke: #ff6b6b; stroke-width: 1.2; stroke-linecap: square"/>
   </g>
   <g id="patch_3">
    <path d="M 35.96 103.4 
L 35.96 5 
" style="fill: none; stroke: var(--fg-color); stroke-width: 0.8; stroke-linejoin: miter; stroke-linecap: square"/>
   </g>
   <g id="patch_4">
    <path d="M 35.96 103.4 
L 211 103.4 
" style="fill: none; stroke: var(--fg-color); stroke-width: 0.8; stroke-linejoin: miter; stroke-linecap: square"/>
   </g>
  </g>
 </g>
 <defs>
  <clipPath id="pd4f48ea01f">
   <rect x="35.96" y="5" width="175.04" height="98.4"/>
  </clipPath>
 </defs>
</svg>
