<?xml version="1.0" encoding="utf-8" standalone="no"?>
<!DOCTYPE svg PUBLIC "-//W3C//DTD SVG 1.1//EN"
  "http://www.w3.org/Graphics/SVG/1.1/DTD/svg11.dtd">
<svg xmlns:xlink="http://www.w3.org/1999/xlink" width="216pt" height="122.4pt" viewBox="0 0 216 122.4" xmlns="http://www.w3.org/2000/svg" version="1.1">
  <style>
    :root {
      --fg-color: #212529;
      --grid-color: rgba(33, 37, 41, 0.1);
    }
    @media (prefers-color-scheme: dark) {
      :root {
        --fg-color: #dee2e6;
        --grid-color: rgba(248, 249, 250, 0.15);
      }
    }
  </style>

 <metadata>
  <rdf:RDF xmlns:dc="http://purl.org/dc/elements/1.1/" xmlns:cc="http://creativecommons.org/ns#" xmlns:rdf="http://www.w3.org/1999/02/22-rdf-syntax-ns#">
   <cc:Work>
    <dc:type rdf:resource="http://purl.org/dc/dcmitype/StillImage"/>
    <dc:date>2026-06-30T04:49:02.795943</dc:date>
    <dc:format>image/svg+xml</dc:format>
    <dc:creator>
     <cc:Agent>
      <dc:title>Matplotlib v3.11.0, https://matplotlib.org/</dc:title>
     </cc:Agent>
    </dc:creator>
   </cc:Work>
  </rdf:RDF>
 </metadata>
 <defs>
  <style type="text/css">*{stroke-linejoin: round; stroke-linecap: butt}</style>
 </defs>
 <g id="figure_1">
  <g id="patch_1">
   <path d="M 0 122.4 
L 216 122.4 
L 216 0 
L 0 0 
L 0 122.4 
z
" style="fill: none; opacity: 0"/>
  </g>
  <g id="axes_1">
   <g id="patch_2">
    <path d="M 35.96 103.4 
L 211 103.4 
L 211 5 
L 35.96 5 
L 35.96 103.4 
z
" style="fill: none; opacity: 0"/>
   </g>
   <g id="matplotlib.axis_1">
    <g id="xtick_1">
     <g id="line2d_1">
      <path d="M 72.056377 103.4 
L 72.056377 5 
" clip-path="url(#paa24d6f8fc)" style="fill: none; stroke-dasharray: 2.96,1.28; stroke-dashoffset: 0; stroke: var(--grid-color); stroke-width: 0.8"/>
     </g>
     <g id="line2d_2">
      <defs>
       <path id="mee1dfbabd7" d="M 0 0 
L 0 3.5 
" style="stroke: var(--fg-color); stroke-width: 0.8"/>
      </defs>
      <g>
       <use xlink:href="#mee1dfbabd7" x="72.056377" y="103.4" style="fill: var(--fg-color); stroke: var(--fg-color); stroke-width: 0.8"/>
      </g>
     </g>
     <g id="text_1">
      <text style="font-size: 7px; font-family: 'DejaVu Sans', 'Bitstream Vera Sans', 'Computer Modern Sans Serif', 'Lucida Grande', 'Verdana', 'Geneva', 'Lucid', 'Arial', 'Helvetica', 'Avant Garde', sans-serif; text-anchor: middle; fill: var(--fg-color)" x="72.056377" y="115.718359" transform="rotate(-0 72.056377 115.718359)">02/2026</text>
     </g>
    </g>
    <g id="xtick_2">
     <g id="line2d_3">
      <path d="M 126.640628 103.4 
L 126.640628 5 
" clip-path="url(#paa24d6f8fc)" style="fill: none; stroke-dasharray: 2.96,1.28; stroke-dashoffset: 0; stroke: var(--grid-color); stroke-width: 0.8"/>
     </g>
     <g id="line2d_4">
      <g>
       <use xlink:href="#mee1dfbabd7" x="126.640628" y="103.4" style="fill: var(--fg-color); stroke: var(--fg-color); stroke-width: 0.8"/>
      </g>
     </g>
     <g id="text_2">
      <text style="font-size: 7px; font-family: 'DejaVu Sans', 'Bitstream Vera Sans', 'Computer Modern Sans Serif', 'Lucida Grande', 'Verdana', 'Geneva', 'Lucid', 'Arial', 'Helvetica', 'Avant Garde', sans-serif; text-anchor: middle; fill: var(--fg-color)" x="126.640628" y="115.718359" transform="rotate(-0 126.640628 115.718359)">04/2026</text>
     </g>
    </g>
    <g id="xtick_3">
     <g id="line2d_5">
      <path d="M 183.075192 103.4 
L 183.075192 5 
" clip-path="url(#paa24d6f8fc)" style="fill: none; stroke-dasharray: 2.96,1.28; stroke-dashoffset: 0; stroke: var(--grid-color); stroke-width: 0.8"/>
     </g>
     <g id="line2d_6">
      <g>
       <use xlink:href="#mee1dfbabd7" x="183.075192" y="103.4" style="fill: var(--fg-color); stroke: var(--fg-color); stroke-width: 0.8"/>
      </g>
     </g>
     <g id="text_3">
      <text style="font-size: 7px; font-family: 'DejaVu Sans', 'Bitstream Vera Sans', 'Computer Modern Sans Serif', 'Lucida Grande', 'Verdana', 'Geneva', 'Lucid', 'Arial', 'Helvetica', 'Avant Garde', sans-serif; text-anchor: middle; fill: var(--fg-color)" x="183.075192" y="115.718359" transform="rotate(-0 183.075192 115.718359)">06/2026</text>
     </g>
    </g>
   </g>
   <g id="matplotlib.axis_2">
    <g id="ytick_1">
     <g id="line2d_7">
      <path d="M 35.96 99.98507 
L 211 99.98507 
" clip-path="url(#paa24d6f8fc)" style="fill: none; stroke-dasharray: 2.96,1.28; stroke-dashoffset: 0; stroke: var(--grid-color); stroke-width: 0.8"/>
     </g>
     <g id="line2d_8">
      <defs>
       <path id="m970326a48b" d="M 0 0 
L -3.5 0 
" style="stroke: var(--fg-color); stroke-width: 0.8"/>
      </defs>
      <g>
       <use xlink:href="#m970326a48b" x="35.96" y="99.98507" style="fill: var(--fg-color); stroke: var(--fg-color); stroke-width: 0.8"/>
      </g>
     </g>
     <g id="text_4">
      <text style="font-size: 7px; font-family: 'DejaVu Sans', 'Bitstream Vera Sans', 'Computer Modern Sans Serif', 'Lucida Grande', 'Verdana', 'Geneva', 'Lucid', 'Arial', 'Helvetica', 'Avant Garde', sans-serif; text-anchor: end; fill: var(--fg-color)" x="28.96" y="102.64425" transform="rotate(-0 28.96 102.64425)">0</text>
     </g>
    </g>
    <g id="ytick_2">
     <g id="line2d_9">
      <path d="M 35.96 84.371822 
L 211 84.371822 
" clip-path="url(#paa24d6f8fc)" style="fill: none; stroke-dasharray: 2.96,1.28; stroke-dashoffset: 0; stroke: var(--grid-color); stroke-width: 0.8"/>
     </g>
     <g id="line2d_10">
      <g>
       <use xlink:href="#m970326a48b" x="35.96" y="84.371822" style="fill: var(--fg-color); stroke: var(--fg-color); stroke-width: 0.8"/>
      </g>
     </g>
     <g id="text_5">
      <text style="font-size: 7px; font-family: 'DejaVu Sans', 'Bitstream Vera Sans', 'Computer Modern Sans Serif', 'Lucida Grande', 'Verdana', 'Geneva', 'Lucid', 'Arial', 'Helvetica', 'Avant Garde', sans-serif; text-anchor: end; fill: var(--fg-color)" x="28.96" y="87.031002" transform="rotate(-0 28.96 87.031002)">20</text>
     </g>
    </g>
    <g id="ytick_3">
     <g id="line2d_11">
      <path d="M 35.96 68.758573 
L 211 68.758573 
" clip-path="url(#paa24d6f8fc)" style="fill: none; stroke-dasharray: 2.96,1.28; stroke-dashoffset: 0; stroke: var(--grid-color); stroke-width: 0.8"/>
     </g>
     <g id="line2d_12">
      <g>
       <use xlink:href="#m970326a48b" x="35.96" y="68.758573" style="fill: var(--fg-color); stroke: var(--fg-color); stroke-width: 0.8"/>
      </g>
     </g>
     <g id="text_6">
      <text style="font-size: 7px; font-family: 'DejaVu Sans', 'Bitstream Vera Sans', 'Computer Modern Sans Serif', 'Lucida Grande', 'Verdana', 'Geneva', 'Lucid', 'Arial', 'Helvetica', 'Avant Garde', sans-serif; text-anchor: end; fill: var(--fg-color)" x="28.96" y="71.417753" transform="rotate(-0 28.96 71.417753)">40</text>
     </g>
    </g>
    <g id="ytick_4">
     <g id="line2d_13">
      <path d="M 35.96 53.145325 
L 211 53.145325 
" clip-path="url(#paa24d6f8fc)" style="fill: none; stroke-dasharray: 2.96,1.28; stroke-dashoffset: 0; stroke: var(--grid-color); stroke-width: 0.8"/>
     </g>
     <g id="line2d_14">
      <g>
       <use xlink:href="#m970326a48b" x="35.96" y="53.145325" style="fill: var(--fg-color); stroke: var(--fg-color); stroke-width: 0.8"/>
      </g>
     </g>
     <g id="text_7">
      <text style="font-size: 7px; font-family: 'DejaVu Sans', 'Bitstream Vera Sans', 'Computer Modern Sans Serif', 'Lucida Grande', 'Verdana', 'Geneva', 'Lucid', 'Arial', 'Helvetica', 'Avant Garde', sans-serif; text-anchor: end; fill: var(--fg-color)" x="28.96" y="55.804505" transform="rotate(-0 28.96 55.804505)">60</text>
     </g>
    </g>
    <g id="ytick_5">
     <g id="line2d_15">
      <path d="M 35.96 37.532077 
L 211 37.532077 
" clip-path="url(#paa24d6f8fc)" style="fill: none; stroke-dasharray: 2.96,1.28; stroke-dashoffset: 0; stroke: var(--grid-color); stroke-width: 0.8"/>
     </g>
     <g id="line2d_16">
      <g>
       <use xlink:href="#m970326a48b" x="35.96" y="37.532077" style="fill: var(--fg-color); stroke: var(--fg-color); stroke-width: 0.8"/>
      </g>
     </g>
     <g id="text_8">
      <text style="font-size: 7px; font-family: 'DejaVu Sans', 'Bitstream Vera Sans', 'Computer Modern Sans Serif', 'Lucida Grande', 'Verdana', 'Geneva', 'Lucid', 'Arial', 'Helvetica', 'Avant Garde', sans-serif; text-anchor: end; fill: var(--fg-color)" x="28.96" y="40.191256" transform="rotate(-0 28.96 40.191256)">80</text>
     </g>
    </g>
    <g id="ytick_6">
     <g id="line2d_17">
      <path d="M 35.96 21.918828 
L 211 21.918828 
" clip-path="url(#paa24d6f8fc)" style="fill: none; stroke-dasharray: 2.96,1.28; stroke-dashoffset: 0; stroke: var(--grid-color); stroke-width: 0.8"/>
     </g>
     <g id="line2d_18">
      <g>
       <use xlink:href="#m970326a48b" x="35.96" y="21.918828" style="fill: var(--fg-color); stroke: var(--fg-color); stroke-width: 0.8"/>
      </g>
     </g>
     <g id="text_9">
      <text style="font-size: 7px; font-family: 'DejaVu Sans', 'Bitstream Vera Sans', 'Computer Modern Sans Serif', 'Lucida Grande', 'Verdana', 'Geneva', 'Lucid', 'Arial', 'Helvetica', 'Avant Garde', sans-serif; text-anchor: end; fill: var(--fg-color)" x="28.96" y="24.578008" transform="rotate(-0 28.96 24.578008)">100</text>
     </g>
    </g>
    <g id="ytick_7">
     <g id="line2d_19">
      <path d="M 35.96 6.30558 
L 211 6.30558 
" clip-path="url(#paa24d6f8fc)" style="fill: none; stroke-dasharray: 2.96,1.28; stroke-dashoffset: 0; stroke: var(--grid-color); stroke-width: 0.8"/>
     </g>
     <g id="line2d_20">
      <g>
       <use xlink:href="#m970326a48b" x="35.96" y="6.30558" style="fill: var(--fg-color); stroke: var(--fg-color); stroke-width: 0.8"/>
      </g>
     </g>
     <g id="text_10">
      <text style="font-size: 7px; font-family: 'DejaVu Sans', 'Bitstream Vera Sans', 'Computer Modern Sans Serif', 'Lucida Grande', 'Verdana', 'Geneva', 'Lucid', 'Arial', 'Helvetica', 'Avant Garde', sans-serif; text-anchor: end; fill: var(--fg-color)" x="28.96" y="8.96476" transform="rotate(-0 28.96 8.96476)">120</text>
     </g>
    </g>
    <g id="text_11">
     <text style="font-size: 7px; font-family: 'DejaVu Sans', 'Bitstream Vera Sans', 'Computer Modern Sans Serif', 'Lucida Grande', 'Verdana', 'Geneva', 'Lucid', 'Arial', 'Helvetica', 'Avant Garde', sans-serif; text-anchor: middle; fill: var(--fg-color)" x="9.917109" y="54.2" transform="rotate(-90 9.917109 54.2)">ms</text>
    </g>
   </g>
   <g id="line2d_21">
    <path d="M 43.916364 47.1756 
L 45.193108 40.248782 
L 45.766628 44.710268 
L 46.691788 46.935936 
L 47.616947 45.469852 
L 48.542109 41.564979 
L 49.467263 44.407371 
L 50.392418 46.177132 
L 51.317566 42.703965 
L 52.242732 44.171611 
L 53.167891 46.954672 
L 54.093049 47.353591 
L 55.018206 44.506515 
L 55.943359 47.29348 
L 56.868517 46.543263 
L 57.793676 47.853215 
L 58.718827 45.693122 
L 59.643987 44.862497 
L 60.569143 46.446461 
L 61.494301 42.300363 
L 62.419457 45.661114 
L 63.344613 44.693874 
L 64.269773 47.708792 
L 65.194924 47.23493 
L 66.120079 48.053064 
L 67.045243 47.113147 
L 67.970398 43.648567 
L 68.895557 47.067868 
L 69.82071 46.568244 
L 70.74585 42.291775 
L 71.671025 44.466701 
L 72.596178 47.492548 
L 73.521341 42.774225 
L 74.446495 39.57429 
L 75.371653 44.586923 
L 76.296805 42.283969 
L 77.221971 40.440825 
L 78.147114 47.936745 
L 79.072277 45.482343 
L 79.997435 48.569082 
L 80.922594 40.009899 
L 81.847735 45.171639 
L 82.772905 39.511837 
L 83.698046 46.084233 
L 84.623219 44.434694 
L 85.548376 44.260606 
L 86.473535 47.362959 
L 87.398688 47.533924 
L 88.323852 45.214576 
L 97.76512 20.017135 
L 98.500856 14.120791 
L 99.426031 13.828043 
L 100.351186 9.472727 
L 101.276348 45.944495 
L 102.201502 50.588656 
L 103.126656 46.501888 
L 104.051812 45.000674 
L 104.976967 44.871865 
L 105.902123 45.611933 
L 106.827282 44.362873 
L 107.752435 44.481534 
L 108.677594 47.016344 
L 109.602753 45.024875 
L 110.527909 47.081139 
L 111.453063 49.172534 
L 112.378223 48.177189 
L 113.303377 43.070096 
L 114.228537 45.800072 
L 115.153695 47.232588 
L 116.078848 46.496423 
L 117.004011 43.628269 
L 117.929158 49.391119 
L 118.854316 50.503563 
L 119.779481 46.031148 
L 120.704637 46.023342 
L 121.629794 29.803519 
L 122.554943 47.25835 
L 123.480104 44.052169 
L 124.405261 45.300448 
L 125.330416 42.184044 
L 126.255574 42.72114 
L 129.9562 44.934318 
L 130.881363 44.921827 
L 131.806516 39.819418 
L 132.731673 42.242594 
L 133.656831 45.778994 
L 134.581987 43.006862 
L 135.507147 41.50721 
L 136.432285 46.356685 
L 137.357455 42.030254 
L 138.282617 40.629745 
L 139.20777 42.169992 
L 140.13293 46.163861 
L 141.058084 37.041821 
L 141.983242 39.086376 
L 142.908395 44.546329 
L 143.833556 42.504116 
L 144.758724 36.34625 
L 145.683869 27.842495 
L 146.609028 39.936517 
L 147.534182 41.727357 
L 148.459339 42.650099 
L 149.384497 44.658744 
L 150.309651 38.551622 
L 151.234811 39.698415 
L 152.159963 42.536903 
L 179.91473 42.536903 
L 188.548948 43.235596 
L 189.166282 44.326182 
L 190.091439 40.227704 
L 191.016594 42.384674 
L 191.94175 41.465054 
L 192.866913 44.128674 
L 193.792066 47.338758 
L 194.717222 37.676499 
L 195.642377 45.995238 
L 196.567536 44.483876 
L 197.492695 42.301143 
L 198.417852 44.174733 
L 199.343013 44.867961 
L 200.268162 44.966325 
L 201.193322 47.956262 
L 202.118478 39.472023 
L 203.043636 42.871808 
" clip-path="url(#paa24d6f8fc)" style="fill: none; stroke: #339af0; stroke-width: 1.2; stroke-linecap: square"/>
   </g>
   <g id="line2d_22">
    <path d="M 43.916364 98.845303 
L 45.193108 98.708687 
L 45.766628 98.788315 
L 46.691788 98.760992 
L 47.616947 98.800805 
L 48.542109 98.779728 
L 49.467263 98.68839 
L 50.392418 98.893704 
L 51.317566 98.827348 
L 52.242732 98.760992 
L 53.167891 98.842181 
L 54.093049 98.787534 
L 55.018206 98.77114 
L 55.943359 98.870284 
L 56.868517 98.860136 
L 57.793676 98.869504 
L 58.718827 98.826567 
L 59.643987 98.867162 
L 60.569143 98.879652 
L 61.494301 98.82969 
L 62.419457 98.860916 
L 63.344613 98.820322 
L 64.269773 98.889801 
L 65.194924 98.904634 
L 66.120079 98.886678 
L 67.045243 98.847645 
L 67.970398 98.857794 
L 68.895557 98.885898 
L 69.82071 98.904634 
L 70.74585 98.674338 
L 71.671025 98.846864 
L 72.596178 98.741475 
L 73.521341 98.82969 
L 74.446495 98.725862 
L 75.371653 98.805489 
L 76.296805 98.774263 
L 77.221971 98.745378 
L 78.147114 98.821103 
L 79.072277 98.796902 
L 79.997435 98.839839 
L 80.922594 98.790657 
L 81.847735 98.020143 
L 82.772905 98.592369 
L 83.698046 98.855452 
L 84.623219 98.802367 
L 85.548376 98.819541 
L 86.473535 98.846084 
L 87.398688 98.819541 
L 88.323852 98.830471 
L 97.76512 98.817199 
L 98.500856 98.815638 
L 99.426031 98.847645 
L 100.351186 98.810173 
L 101.276348 98.7243 
L 102.201502 98.88902 
L 103.126656 98.791437 
L 104.051812 98.769579 
L 104.976967 98.863258 
L 105.902123 98.8414 
L 106.827282 98.804709 
L 107.752435 98.836716 
L 108.677594 98.828909 
L 109.602753 98.825006 
L 110.527909 98.8656 
L 111.453063 98.927273 
L 112.378223 98.821883 
L 113.303377 98.796902 
L 114.228537 98.825006 
L 115.153695 98.855452 
L 116.078848 98.801586 
L 117.004011 98.772702 
L 117.929158 98.885117 
L 118.854316 98.893704 
L 119.779481 98.85389 
L 120.704637 98.88824 
L 121.629794 98.828129 
L 122.554943 98.750062 
L 123.480104 98.7001 
L 124.405261 98.74772 
L 125.330416 98.64077 
L 126.255574 98.671215 
L 129.9562 98.501031 
L 130.881363 98.736791 
L 131.806516 98.552555 
L 132.731673 98.717275 
L 133.656831 98.711029 
L 134.581987 98.682145 
L 135.507147 98.460437 
L 136.432285 98.705565 
L 137.357455 98.054492 
L 138.282617 98.505715 
L 139.20777 97.806241 
L 140.13293 98.720397 
L 141.058084 98.65248 
L 141.983242 98.496347 
L 142.908395 98.768018 
L 143.833556 98.705565 
L 144.758724 98.65326 
L 145.683869 98.734449 
L 146.609028 98.539284 
L 147.534182 98.689951 
L 148.459339 98.50025 
L 149.384497 98.430771 
L 150.309651 98.468243 
L 151.234811 98.657164 
L 152.159963 98.580659 
L 179.91473 98.580659 
L 188.548948 98.704784 
L 189.166282 98.717275 
L 190.091439 98.636086 
L 191.016594 98.761772 
L 191.94175 98.749282 
L 192.866913 98.789876 
L 193.792066 98.78285 
L 194.717222 98.733668 
L 195.642377 98.691513 
L 196.567536 98.811735 
L 197.492695 98.74772 
L 198.417852 98.572852 
L 199.343013 98.881214 
L 200.268162 98.824225 
L 201.193322 98.827348 
L 202.118478 98.835155 
L 203.043636 98.824225 
" clip-path="url(#paa24d6f8fc)" style="fill: none; stroke: #ff6b6b; stroke-width: 1.2; stroke-linecap: square"/>
   </g>
   <g id="patch_3">
    <path d="M 35.96 103.4 
L 35.96 5 
" style="fill: none; stroke: var(--fg-color); stroke-width: 0.8; stroke-linejoin: miter; stroke-linecap: square"/>
   </g>
   <g id="patch_4">
    <path d="M 35.96 103.4 
L 211 103.4 
" style="fill: none; stroke: var(--fg-color); stroke-width: 0.8; stroke-linejoin: miter; stroke-linecap: square"/>
   </g>
  </g>
 </g>
 <defs>
  <clipPath id="paa24d6f8fc">
   <rect x="35.96" y="5" width="175.04" height="98.4"/>
  </clipPath>
 </defs>
</svg>
