<?xml version="1.0" encoding="utf-8" standalone="no"?>
<!DOCTYPE svg PUBLIC "-//W3C//DTD SVG 1.1//EN"
  "http://www.w3.org/Graphics/SVG/1.1/DTD/svg11.dtd">
<svg xmlns:xlink="http://www.w3.org/1999/xlink" width="216pt" height="122.4pt" viewBox="0 0 216 122.4" xmlns="http://www.w3.org/2000/svg" version="1.1">
  <style>
    :root {
      --fg-color: #212529;
      --grid-color: rgba(33, 37, 41, 0.1);
    }
    @media (prefers-color-scheme: dark) {
      :root {
        --fg-color: #dee2e6;
        --grid-color: rgba(248, 249, 250, 0.15);
      }
    }
  </style>

 <metadata>
  <rdf:RDF xmlns:dc="http://purl.org/dc/elements/1.1/" xmlns:cc="http://creativecommons.org/ns#" xmlns:rdf="http://www.w3.org/1999/02/22-rdf-syntax-ns#">
   <cc:Work>
    <dc:type rdf:resource="http://purl.org/dc/dcmitype/StillImage"/>
    <dc:date>2026-06-30T04:48:59.472853</dc:date>
    <dc:format>image/svg+xml</dc:format>
    <dc:creator>
     <cc:Agent>
      <dc:title>Matplotlib v3.11.0, https://matplotlib.org/</dc:title>
     </cc:Agent>
    </dc:creator>
   </cc:Work>
  </rdf:RDF>
 </metadata>
 <defs>
  <style type="text/css">*{stroke-linejoin: round; stroke-linecap: butt}</style>
 </defs>
 <g id="figure_1">
  <g id="patch_1">
   <path d="M 0 122.4 
L 216 122.4 
L 216 0 
L 0 0 
L 0 122.4 
z
" style="fill: none; opacity: 0"/>
  </g>
  <g id="axes_1">
   <g id="patch_2">
    <path d="M 35.96 103.4 
L 211 103.4 
L 211 5 
L 35.96 5 
L 35.96 103.4 
z
" style="fill: none; opacity: 0"/>
   </g>
   <g id="matplotlib.axis_1">
    <g id="xtick_1">
     <g id="line2d_1">
      <path d="M 72.056377 103.4 
L 72.056377 5 
" clip-path="url(#pb8a097b448)" style="fill: none; stroke-dasharray: 2.96,1.28; stroke-dashoffset: 0; stroke: var(--grid-color); stroke-width: 0.8"/>
     </g>
     <g id="line2d_2">
      <defs>
       <path id="mdce80a829c" d="M 0 0 
L 0 3.5 
" style="stroke: var(--fg-color); stroke-width: 0.8"/>
      </defs>
      <g>
       <use xlink:href="#mdce80a829c" x="72.056377" y="103.4" style="fill: var(--fg-color); stroke: var(--fg-color); stroke-width: 0.8"/>
      </g>
     </g>
     <g id="text_1">
      <text style="font-size: 7px; font-family: 'DejaVu Sans', 'Bitstream Vera Sans', 'Computer Modern Sans Serif', 'Lucida Grande', 'Verdana', 'Geneva', 'Lucid', 'Arial', 'Helvetica', 'Avant Garde', sans-serif; text-anchor: middle; fill: var(--fg-color)" x="72.056377" y="115.718359" transform="rotate(-0 72.056377 115.718359)">02/2026</text>
     </g>
    </g>
    <g id="xtick_2">
     <g id="line2d_3">
      <path d="M 126.640628 103.4 
L 126.640628 5 
" clip-path="url(#pb8a097b448)" style="fill: none; stroke-dasharray: 2.96,1.28; stroke-dashoffset: 0; stroke: var(--grid-color); stroke-width: 0.8"/>
     </g>
     <g id="line2d_4">
      <g>
       <use xlink:href="#mdce80a829c" x="126.640628" y="103.4" style="fill: var(--fg-color); stroke: var(--fg-color); stroke-width: 0.8"/>
      </g>
     </g>
     <g id="text_2">
      <text style="font-size: 7px; font-family: 'DejaVu Sans', 'Bitstream Vera Sans', 'Computer Modern Sans Serif', 'Lucida Grande', 'Verdana', 'Geneva', 'Lucid', 'Arial', 'Helvetica', 'Avant Garde', sans-serif; text-anchor: middle; fill: var(--fg-color)" x="126.640628" y="115.718359" transform="rotate(-0 126.640628 115.718359)">04/2026</text>
     </g>
    </g>
    <g id="xtick_3">
     <g id="line2d_5">
      <path d="M 183.075192 103.4 
L 183.075192 5 
" clip-path="url(#pb8a097b448)" style="fill: none; stroke-dasharray: 2.96,1.28; stroke-dashoffset: 0; stroke: var(--grid-color); stroke-width: 0.8"/>
     </g>
     <g id="line2d_6">
      <g>
       <use xlink:href="#mdce80a829c" x="183.075192" y="103.4" style="fill: var(--fg-color); stroke: var(--fg-color); stroke-width: 0.8"/>
      </g>
     </g>
     <g id="text_3">
      <text style="font-size: 7px; font-family: 'DejaVu Sans', 'Bitstream Vera Sans', 'Computer Modern Sans Serif', 'Lucida Grande', 'Verdana', 'Geneva', 'Lucid', 'Arial', 'Helvetica', 'Avant Garde', sans-serif; text-anchor: middle; fill: var(--fg-color)" x="183.075192" y="115.718359" transform="rotate(-0 183.075192 115.718359)">06/2026</text>
     </g>
    </g>
   </g>
   <g id="matplotlib.axis_2">
    <g id="ytick_1">
     <g id="line2d_7">
      <path d="M 35.96 96.106305 
L 211 96.106305 
" clip-path="url(#pb8a097b448)" style="fill: none; stroke-dasharray: 2.96,1.28; stroke-dashoffset: 0; stroke: var(--grid-color); stroke-width: 0.8"/>
     </g>
     <g id="line2d_8">
      <defs>
       <path id="m56603f3ead" d="M 0 0 
L -3.5 0 
" style="stroke: var(--fg-color); stroke-width: 0.8"/>
      </defs>
      <g>
       <use xlink:href="#m56603f3ead" x="35.96" y="96.106305" style="fill: var(--fg-color); stroke: var(--fg-color); stroke-width: 0.8"/>
      </g>
     </g>
     <g id="text_4">
      <text style="font-size: 7px; font-family: 'DejaVu Sans', 'Bitstream Vera Sans', 'Computer Modern Sans Serif', 'Lucida Grande', 'Verdana', 'Geneva', 'Lucid', 'Arial', 'Helvetica', 'Avant Garde', sans-serif; text-anchor: end; fill: var(--fg-color)" x="28.96" y="98.765485" transform="rotate(-0 28.96 98.765485)">25</text>
     </g>
    </g>
    <g id="ytick_2">
     <g id="line2d_9">
      <path d="M 35.96 81.630898 
L 211 81.630898 
" clip-path="url(#pb8a097b448)" style="fill: none; stroke-dasharray: 2.96,1.28; stroke-dashoffset: 0; stroke: var(--grid-color); stroke-width: 0.8"/>
     </g>
     <g id="line2d_10">
      <g>
       <use xlink:href="#m56603f3ead" x="35.96" y="81.630898" style="fill: var(--fg-color); stroke: var(--fg-color); stroke-width: 0.8"/>
      </g>
     </g>
     <g id="text_5">
      <text style="font-size: 7px; font-family: 'DejaVu Sans', 'Bitstream Vera Sans', 'Computer Modern Sans Serif', 'Lucida Grande', 'Verdana', 'Geneva', 'Lucid', 'Arial', 'Helvetica', 'Avant Garde', sans-serif; text-anchor: end; fill: var(--fg-color)" x="28.96" y="84.290077" transform="rotate(-0 28.96 84.290077)">50</text>
     </g>
    </g>
    <g id="ytick_3">
     <g id="line2d_11">
      <path d="M 35.96 67.15549 
L 211 67.15549 
" clip-path="url(#pb8a097b448)" style="fill: none; stroke-dasharray: 2.96,1.28; stroke-dashoffset: 0; stroke: var(--grid-color); stroke-width: 0.8"/>
     </g>
     <g id="line2d_12">
      <g>
       <use xlink:href="#m56603f3ead" x="35.96" y="67.15549" style="fill: var(--fg-color); stroke: var(--fg-color); stroke-width: 0.8"/>
      </g>
     </g>
     <g id="text_6">
      <text style="font-size: 7px; font-family: 'DejaVu Sans', 'Bitstream Vera Sans', 'Computer Modern Sans Serif', 'Lucida Grande', 'Verdana', 'Geneva', 'Lucid', 'Arial', 'Helvetica', 'Avant Garde', sans-serif; text-anchor: end; fill: var(--fg-color)" x="28.96" y="69.81467" transform="rotate(-0 28.96 69.81467)">75</text>
     </g>
    </g>
    <g id="ytick_4">
     <g id="line2d_13">
      <path d="M 35.96 52.680082 
L 211 52.680082 
" clip-path="url(#pb8a097b448)" style="fill: none; stroke-dasharray: 2.96,1.28; stroke-dashoffset: 0; stroke: var(--grid-color); stroke-width: 0.8"/>
     </g>
     <g id="line2d_14">
      <g>
       <use xlink:href="#m56603f3ead" x="35.96" y="52.680082" style="fill: var(--fg-color); stroke: var(--fg-color); stroke-width: 0.8"/>
      </g>
     </g>
     <g id="text_7">
      <text style="font-size: 7px; font-family: 'DejaVu Sans', 'Bitstream Vera Sans', 'Computer Modern Sans Serif', 'Lucida Grande', 'Verdana', 'Geneva', 'Lucid', 'Arial', 'Helvetica', 'Avant Garde', sans-serif; text-anchor: end; fill: var(--fg-color)" x="28.96" y="55.339262" transform="rotate(-0 28.96 55.339262)">100</text>
     </g>
    </g>
    <g id="ytick_5">
     <g id="line2d_15">
      <path d="M 35.96 38.204674 
L 211 38.204674 
" clip-path="url(#pb8a097b448)" style="fill: none; stroke-dasharray: 2.96,1.28; stroke-dashoffset: 0; stroke: var(--grid-color); stroke-width: 0.8"/>
     </g>
     <g id="line2d_16">
      <g>
       <use xlink:href="#m56603f3ead" x="35.96" y="38.204674" style="fill: var(--fg-color); stroke: var(--fg-color); stroke-width: 0.8"/>
      </g>
     </g>
     <g id="text_8">
      <text style="font-size: 7px; font-family: 'DejaVu Sans', 'Bitstream Vera Sans', 'Computer Modern Sans Serif', 'Lucida Grande', 'Verdana', 'Geneva', 'Lucid', 'Arial', 'Helvetica', 'Avant Garde', sans-serif; text-anchor: end; fill: var(--fg-color)" x="28.96" y="40.863854" transform="rotate(-0 28.96 40.863854)">125</text>
     </g>
    </g>
    <g id="ytick_6">
     <g id="line2d_17">
      <path d="M 35.96 23.729267 
L 211 23.729267 
" clip-path="url(#pb8a097b448)" style="fill: none; stroke-dasharray: 2.96,1.28; stroke-dashoffset: 0; stroke: var(--grid-color); stroke-width: 0.8"/>
     </g>
     <g id="line2d_18">
      <g>
       <use xlink:href="#m56603f3ead" x="35.96" y="23.729267" style="fill: var(--fg-color); stroke: var(--fg-color); stroke-width: 0.8"/>
      </g>
     </g>
     <g id="text_9">
      <text style="font-size: 7px; font-family: 'DejaVu Sans', 'Bitstream Vera Sans', 'Computer Modern Sans Serif', 'Lucida Grande', 'Verdana', 'Geneva', 'Lucid', 'Arial', 'Helvetica', 'Avant Garde', sans-serif; text-anchor: end; fill: var(--fg-color)" x="28.96" y="26.388446" transform="rotate(-0 28.96 26.388446)">150</text>
     </g>
    </g>
    <g id="ytick_7">
     <g id="line2d_19">
      <path d="M 35.96 9.253859 
L 211 9.253859 
" clip-path="url(#pb8a097b448)" style="fill: none; stroke-dasharray: 2.96,1.28; stroke-dashoffset: 0; stroke: var(--grid-color); stroke-width: 0.8"/>
     </g>
     <g id="line2d_20">
      <g>
       <use xlink:href="#m56603f3ead" x="35.96" y="9.253859" style="fill: var(--fg-color); stroke: var(--fg-color); stroke-width: 0.8"/>
      </g>
     </g>
     <g id="text_10">
      <text style="font-size: 7px; font-family: 'DejaVu Sans', 'Bitstream Vera Sans', 'Computer Modern Sans Serif', 'Lucida Grande', 'Verdana', 'Geneva', 'Lucid', 'Arial', 'Helvetica', 'Avant Garde', sans-serif; text-anchor: end; fill: var(--fg-color)" x="28.96" y="11.913039" transform="rotate(-0 28.96 11.913039)">175</text>
     </g>
    </g>
    <g id="text_11">
     <text style="font-size: 7px; font-family: 'DejaVu Sans', 'Bitstream Vera Sans', 'Computer Modern Sans Serif', 'Lucida Grande', 'Verdana', 'Geneva', 'Lucid', 'Arial', 'Helvetica', 'Avant Garde', sans-serif; text-anchor: middle; fill: var(--fg-color)" x="9.917109" y="54.2" transform="rotate(-90 9.917109 54.2)">ms</text>
    </g>
   </g>
   <g id="line2d_21">
    <path d="M 43.916364 16.657162 
L 45.193108 26.365528 
L 45.766628 28.364292 
L 46.691788 19.785587 
L 47.616947 19.593353 
L 48.542109 12.771962 
L 49.467263 25.399729 
L 50.392418 22.313572 
L 51.317566 12.099724 
L 52.242732 25.643495 
L 53.167891 22.512754 
L 54.093049 24.20985 
L 55.018206 20.326967 
L 55.943359 22.382475 
L 56.868517 14.575019 
L 57.793676 23.998509 
L 58.718827 24.564787 
L 59.643987 20.328125 
L 60.569143 25.972376 
L 61.494301 19.541242 
L 62.419457 16.273274 
L 63.344613 26.661984 
L 64.269773 11.338897 
L 65.194924 28.837349 
L 66.120079 24.882088 
L 67.045243 17.980214 
L 67.970398 27.110722 
L 68.895557 26.008854 
L 69.82071 28.774236 
L 70.74585 22.376106 
L 71.671025 18.782151 
L 72.596178 29.632917 
L 73.521341 30.833218 
L 74.446495 19.973188 
L 75.371653 31.904977 
L 76.296805 23.213942 
L 77.221971 31.123305 
L 78.147114 32.007463 
L 79.072277 32.943732 
L 79.997435 25.466316 
L 80.922594 19.655308 
L 81.847735 27.921345 
L 82.772905 26.824688 
L 83.698046 24.619794 
L 84.623219 28.274545 
L 85.548376 25.166964 
L 86.473535 30.470175 
L 87.398688 29.481215 
L 88.323852 29.974537 
L 97.76512 18.364681 
L 98.500856 24.211587 
L 99.426031 21.781456 
L 100.351186 21.439257 
L 101.276348 30.9965 
L 102.201502 27.825228 
L 103.126656 30.915438 
L 104.051812 38.787165 
L 104.976967 27.066717 
L 105.902123 30.828586 
L 106.827282 31.667001 
L 107.752435 27.213787 
L 108.677594 25.788249 
L 109.602753 30.638089 
L 110.527909 28.797976 
L 111.453063 26.214984 
L 112.378223 30.844219 
L 113.303377 23.159515 
L 114.228537 21.520899 
L 115.153695 28.222433 
L 116.078848 25.707187 
L 117.004011 30.918333 
L 117.929158 35.280642 
L 118.854316 13.614431 
L 119.779481 28.94273 
L 120.704637 27.721005 
L 121.629794 27.966508 
L 122.554943 32.393088 
L 123.480104 24.495884 
L 124.405261 27.522403 
L 125.330416 21.509897 
L 126.255574 30.334685 
L 129.9562 22.199506 
L 130.881363 26.810792 
L 131.806516 20.486196 
L 132.731673 24.303072 
L 133.656831 23.963189 
L 134.581987 16.68148 
L 135.507147 21.604856 
L 136.432285 22.218613 
L 137.357455 28.250226 
L 138.282617 22.131182 
L 139.20777 28.554789 
L 140.13293 24.02167 
L 141.058084 24.13342 
L 141.983242 23.541087 
L 142.908395 28.774815 
L 143.833556 23.511557 
L 144.758724 15.240888 
L 145.683869 17.318398 
L 146.609028 14.40363 
L 147.534182 10.609915 
L 148.459339 19.386644 
L 149.384497 22.861321 
L 150.309651 19.422544 
L 151.234811 14.530435 
L 152.159963 14.1975 
L 179.91473 14.1975 
L 188.548948 20.508778 
L 189.166282 27.319168 
L 190.091439 17.853409 
L 191.016594 17.30566 
L 191.94175 11.8548 
L 192.866913 20.6958 
L 193.792066 16.830287 
L 194.717222 21.605435 
L 195.642377 17.361245 
L 196.567536 9.472727 
L 197.492695 9.70086 
L 198.417852 14.967013 
L 199.343013 19.184568 
L 200.268162 17.152221 
L 201.193322 20.369814 
L 202.118478 22.568339 
L 203.043636 11.886646 
" clip-path="url(#pb8a097b448)" style="fill: none; stroke: #339af0; stroke-width: 1.2; stroke-linecap: square"/>
   </g>
   <g id="line2d_22">
    <path d="M 43.916364 91.279046 
L 45.193108 90.99996 
L 45.766628 89.857561 
L 46.691788 90.947849 
L 47.616947 91.772947 
L 48.542109 89.7875 
L 49.467263 90.020265 
L 50.392418 91.459699 
L 51.317566 91.874275 
L 52.242732 93.149269 
L 53.167891 93.381455 
L 54.093049 93.13711 
L 55.018206 93.516365 
L 55.943359 90.115803 
L 56.868517 88.628889 
L 57.793676 91.054388 
L 58.718827 91.75384 
L 59.643987 91.113448 
L 60.569143 93.250597 
L 61.494301 90.638654 
L 62.419457 91.018489 
L 63.344613 87.45117 
L 64.269773 95.193197 
L 65.194924 92.596887 
L 66.120079 93.272599 
L 67.045243 93.175904 
L 67.970398 94.725351 
L 68.895557 93.308498 
L 69.82071 91.688411 
L 70.74585 94.167759 
L 71.671025 96.401025 
L 72.596178 92.99004 
L 73.521341 94.319461 
L 74.446495 95.586349 
L 75.371653 95.729366 
L 76.296805 92.460819 
L 77.221971 98.846789 
L 78.147114 93.452095 
L 79.072277 93.468886 
L 79.997435 92.706322 
L 80.922594 96.486719 
L 81.847735 94.970275 
L 82.772905 98.019375 
L 83.698046 98.170498 
L 84.623219 94.663397 
L 85.548376 93.574846 
L 86.473535 95.403379 
L 87.398688 95.192618 
L 88.323852 93.838877 
L 97.76512 92.776382 
L 98.500856 98.927273 
L 99.426031 96.006135 
L 100.351186 94.922796 
L 101.276348 94.142861 
L 102.201502 93.171272 
L 103.126656 94.998647 
L 104.051812 95.076814 
L 104.976967 92.172468 
L 105.902123 97.400407 
L 106.827282 94.439896 
L 107.752435 94.474637 
L 108.677594 94.747354 
L 109.602753 96.841656 
L 110.527909 94.939587 
L 111.453063 90.954218 
L 112.378223 93.757236 
L 113.303377 88.793329 
L 114.228537 91.491545 
L 115.153695 96.428238 
L 116.078848 94.984751 
L 117.004011 95.416118 
L 117.929158 95.370376 
L 118.854316 95.300315 
L 119.779481 95.905387 
L 120.704637 93.439356 
L 121.629794 97.083106 
L 122.554943 94.171812 
L 123.480104 94.151546 
L 124.405261 94.562069 
L 125.330416 92.394811 
L 126.255574 97.237124 
L 129.9562 95.792478 
L 130.881363 95.564925 
L 131.806516 93.715547 
L 132.731673 92.044506 
L 133.656831 94.476953 
L 134.581987 95.299736 
L 135.507147 93.138847 
L 136.432285 91.679726 
L 137.357455 93.252913 
L 138.282617 96.449662 
L 139.20777 90.719717 
L 140.13293 94.297458 
L 141.058084 91.540762 
L 141.983242 95.130084 
L 142.908395 96.189684 
L 143.833556 93.458464 
L 144.758724 90.202076 
L 145.683869 89.09905 
L 146.609028 86.606964 
L 147.534182 88.868022 
L 148.459339 86.164595 
L 149.384497 88.417548 
L 150.309651 88.597622 
L 151.234811 91.908437 
L 152.159963 91.460278 
L 179.91473 91.460278 
L 188.548948 91.965181 
L 189.166282 89.148845 
L 190.091439 83.930171 
L 191.016594 86.186598 
L 191.94175 87.007064 
L 192.866913 87.548444 
L 193.792066 88.056242 
L 194.717222 82.461786 
L 195.642377 86.684552 
L 196.567536 88.403072 
L 197.492695 84.27237 
L 198.417852 89.924727 
L 199.343013 86.904578 
L 200.268162 87.932911 
L 201.193322 88.099089 
L 202.118478 91.819269 
L 203.043636 83.124181 
" clip-path="url(#pb8a097b448)" style="fill: none; stroke: #ff6b6b; stroke-width: 1.2; stroke-linecap: square"/>
   </g>
   <g id="patch_3">
    <path d="M 35.96 103.4 
L 35.96 5 
" style="fill: none; stroke: var(--fg-color); stroke-width: 0.8; stroke-linejoin: miter; stroke-linecap: square"/>
   </g>
   <g id="patch_4">
    <path d="M 35.96 103.4 
L 211 103.4 
" style="fill: none; stroke: var(--fg-color); stroke-width: 0.8; stroke-linejoin: miter; stroke-linecap: square"/>
   </g>
  </g>
 </g>
 <defs>
  <clipPath id="pb8a097b448">
   <rect x="35.96" y="5" width="175.04" height="98.4"/>
  </clipPath>
 </defs>
</svg>
