<?xml version="1.0" encoding="utf-8" standalone="no"?>
<!DOCTYPE svg PUBLIC "-//W3C//DTD SVG 1.1//EN"
  "http://www.w3.org/Graphics/SVG/1.1/DTD/svg11.dtd">
<svg xmlns:xlink="http://www.w3.org/1999/xlink" width="216pt" height="122.4pt" viewBox="0 0 216 122.4" xmlns="http://www.w3.org/2000/svg" version="1.1">
  <style>
    :root {
      --fg-color: #212529;
      --grid-color: rgba(33, 37, 41, 0.1);
    }
    @media (prefers-color-scheme: dark) {
      :root {
        --fg-color: #dee2e6;
        --grid-color: rgba(248, 249, 250, 0.15);
      }
    }
  </style>

 <metadata>
  <rdf:RDF xmlns:dc="http://purl.org/dc/elements/1.1/" xmlns:cc="http://creativecommons.org/ns#" xmlns:rdf="http://www.w3.org/1999/02/22-rdf-syntax-ns#">
   <cc:Work>
    <dc:type rdf:resource="http://purl.org/dc/dcmitype/StillImage"/>
    <dc:date>2026-06-30T04:49:15.215759</dc:date>
    <dc:format>image/svg+xml</dc:format>
    <dc:creator>
     <cc:Agent>
      <dc:title>Matplotlib v3.11.0, https://matplotlib.org/</dc:title>
     </cc:Agent>
    </dc:creator>
   </cc:Work>
  </rdf:RDF>
 </metadata>
 <defs>
  <style type="text/css">*{stroke-linejoin: round; stroke-linecap: butt}</style>
 </defs>
 <g id="figure_1">
  <g id="patch_1">
   <path d="M 0 122.4 
L 216 122.4 
L 216 0 
L 0 0 
L 0 122.4 
z
" style="fill: none; opacity: 0"/>
  </g>
  <g id="axes_1">
   <g id="patch_2">
    <path d="M 35.96 103.4 
L 211 103.4 
L 211 5 
L 35.96 5 
L 35.96 103.4 
z
" style="fill: none; opacity: 0"/>
   </g>
   <g id="matplotlib.axis_1">
    <g id="xtick_1">
     <g id="line2d_1">
      <path d="M 70.996911 103.4 
L 70.996911 5 
" clip-path="url(#p5bafb31105)" style="fill: none; stroke-dasharray: 2.96,1.28; stroke-dashoffset: 0; stroke: var(--grid-color); stroke-width: 0.8"/>
     </g>
     <g id="line2d_2">
      <defs>
       <path id="m264c34cc6d" d="M 0 0 
L 0 3.5 
" style="stroke: var(--fg-color); stroke-width: 0.8"/>
      </defs>
      <g>
       <use xlink:href="#m264c34cc6d" x="70.996911" y="103.4" style="fill: var(--fg-color); stroke: var(--fg-color); stroke-width: 0.8"/>
      </g>
     </g>
     <g id="text_1">
      <text style="font-size: 7px; font-family: 'DejaVu Sans', 'Bitstream Vera Sans', 'Computer Modern Sans Serif', 'Lucida Grande', 'Verdana', 'Geneva', 'Lucid', 'Arial', 'Helvetica', 'Avant Garde', sans-serif; text-anchor: middle; fill: var(--fg-color)" x="70.996911" y="115.718359" transform="rotate(-0 70.996911 115.718359)">02/2026</text>
     </g>
    </g>
    <g id="xtick_2">
     <g id="line2d_3">
      <path d="M 126.022656 103.4 
L 126.022656 5 
" clip-path="url(#p5bafb31105)" style="fill: none; stroke-dasharray: 2.96,1.28; stroke-dashoffset: 0; stroke: var(--grid-color); stroke-width: 0.8"/>
     </g>
     <g id="line2d_4">
      <g>
       <use xlink:href="#m264c34cc6d" x="126.022656" y="103.4" style="fill: var(--fg-color); stroke: var(--fg-color); stroke-width: 0.8"/>
      </g>
     </g>
     <g id="text_2">
      <text style="font-size: 7px; font-family: 'DejaVu Sans', 'Bitstream Vera Sans', 'Computer Modern Sans Serif', 'Lucida Grande', 'Verdana', 'Geneva', 'Lucid', 'Arial', 'Helvetica', 'Avant Garde', sans-serif; text-anchor: middle; fill: var(--fg-color)" x="126.022656" y="115.718359" transform="rotate(-0 126.022656 115.718359)">04/2026</text>
     </g>
    </g>
    <g id="xtick_3">
     <g id="line2d_5">
      <path d="M 182.913681 103.4 
L 182.913681 5 
" clip-path="url(#p5bafb31105)" style="fill: none; stroke-dasharray: 2.96,1.28; stroke-dashoffset: 0; stroke: var(--grid-color); stroke-width: 0.8"/>
     </g>
     <g id="line2d_6">
      <g>
       <use xlink:href="#m264c34cc6d" x="182.913681" y="103.4" style="fill: var(--fg-color); stroke: var(--fg-color); stroke-width: 0.8"/>
      </g>
     </g>
     <g id="text_3">
      <text style="font-size: 7px; font-family: 'DejaVu Sans', 'Bitstream Vera Sans', 'Computer Modern Sans Serif', 'Lucida Grande', 'Verdana', 'Geneva', 'Lucid', 'Arial', 'Helvetica', 'Avant Garde', sans-serif; text-anchor: middle; fill: var(--fg-color)" x="182.913681" y="115.718359" transform="rotate(-0 182.913681 115.718359)">06/2026</text>
     </g>
    </g>
   </g>
   <g id="matplotlib.axis_2">
    <g id="ytick_1">
     <g id="line2d_7">
      <path d="M 35.96 99.531339 
L 211 99.531339 
" clip-path="url(#p5bafb31105)" style="fill: none; stroke-dasharray: 2.96,1.28; stroke-dashoffset: 0; stroke: var(--grid-color); stroke-width: 0.8"/>
     </g>
     <g id="line2d_8">
      <defs>
       <path id="mc10d6d4640" d="M 0 0 
L -3.5 0 
" style="stroke: var(--fg-color); stroke-width: 0.8"/>
      </defs>
      <g>
       <use xlink:href="#mc10d6d4640" x="35.96" y="99.531339" style="fill: var(--fg-color); stroke: var(--fg-color); stroke-width: 0.8"/>
      </g>
     </g>
     <g id="text_4">
      <text style="font-size: 7px; font-family: 'DejaVu Sans', 'Bitstream Vera Sans', 'Computer Modern Sans Serif', 'Lucida Grande', 'Verdana', 'Geneva', 'Lucid', 'Arial', 'Helvetica', 'Avant Garde', sans-serif; text-anchor: end; fill: var(--fg-color)" x="28.96" y="102.190519" transform="rotate(-0 28.96 102.190519)">0</text>
     </g>
    </g>
    <g id="ytick_2">
     <g id="line2d_9">
      <path d="M 35.96 73.290408 
L 211 73.290408 
" clip-path="url(#p5bafb31105)" style="fill: none; stroke-dasharray: 2.96,1.28; stroke-dashoffset: 0; stroke: var(--grid-color); stroke-width: 0.8"/>
     </g>
     <g id="line2d_10">
      <g>
       <use xlink:href="#mc10d6d4640" x="35.96" y="73.290408" style="fill: var(--fg-color); stroke: var(--fg-color); stroke-width: 0.8"/>
      </g>
     </g>
     <g id="text_5">
      <text style="font-size: 7px; font-family: 'DejaVu Sans', 'Bitstream Vera Sans', 'Computer Modern Sans Serif', 'Lucida Grande', 'Verdana', 'Geneva', 'Lucid', 'Arial', 'Helvetica', 'Avant Garde', sans-serif; text-anchor: end; fill: var(--fg-color)" x="28.96" y="75.949588" transform="rotate(-0 28.96 75.949588)">100</text>
     </g>
    </g>
    <g id="ytick_3">
     <g id="line2d_11">
      <path d="M 35.96 47.049478 
L 211 47.049478 
" clip-path="url(#p5bafb31105)" style="fill: none; stroke-dasharray: 2.96,1.28; stroke-dashoffset: 0; stroke: var(--grid-color); stroke-width: 0.8"/>
     </g>
     <g id="line2d_12">
      <g>
       <use xlink:href="#mc10d6d4640" x="35.96" y="47.049478" style="fill: var(--fg-color); stroke: var(--fg-color); stroke-width: 0.8"/>
      </g>
     </g>
     <g id="text_6">
      <text style="font-size: 7px; font-family: 'DejaVu Sans', 'Bitstream Vera Sans', 'Computer Modern Sans Serif', 'Lucida Grande', 'Verdana', 'Geneva', 'Lucid', 'Arial', 'Helvetica', 'Avant Garde', sans-serif; text-anchor: end; fill: var(--fg-color)" x="28.96" y="49.708657" transform="rotate(-0 28.96 49.708657)">200</text>
     </g>
    </g>
    <g id="ytick_4">
     <g id="line2d_13">
      <path d="M 35.96 20.808547 
L 211 20.808547 
" clip-path="url(#p5bafb31105)" style="fill: none; stroke-dasharray: 2.96,1.28; stroke-dashoffset: 0; stroke: var(--grid-color); stroke-width: 0.8"/>
     </g>
     <g id="line2d_14">
      <g>
       <use xlink:href="#mc10d6d4640" x="35.96" y="20.808547" style="fill: var(--fg-color); stroke: var(--fg-color); stroke-width: 0.8"/>
      </g>
     </g>
     <g id="text_7">
      <text style="font-size: 7px; font-family: 'DejaVu Sans', 'Bitstream Vera Sans', 'Computer Modern Sans Serif', 'Lucida Grande', 'Verdana', 'Geneva', 'Lucid', 'Arial', 'Helvetica', 'Avant Garde', sans-serif; text-anchor: end; fill: var(--fg-color)" x="28.96" y="23.467727" transform="rotate(-0 28.96 23.467727)">300</text>
     </g>
    </g>
    <g id="text_8">
     <text style="font-size: 7px; font-family: 'DejaVu Sans', 'Bitstream Vera Sans', 'Computer Modern Sans Serif', 'Lucida Grande', 'Verdana', 'Geneva', 'Lucid', 'Arial', 'Helvetica', 'Avant Garde', sans-serif; text-anchor: middle; fill: var(--fg-color)" x="9.917109" y="54.2" transform="rotate(-90 9.917109 54.2)">ms</text>
    </g>
   </g>
   <g id="line2d_15">
    <path d="M 43.916364 20.445897 
L 44.494523 19.44638 
L 45.427166 29.814434 
L 46.359808 24.965635 
L 47.292453 17.801861 
L 48.22509 22.526016 
L 49.157727 15.810174 
L 50.090359 22.483243 
L 51.023007 32.194487 
L 51.95565 14.214463 
L 52.88829 26.456907 
L 53.82093 18.522962 
L 54.753566 27.795195 
L 55.686208 22.808893 
L 56.618849 24.756233 
L 57.551483 26.967556 
L 58.484126 26.614353 
L 59.416765 23.89448 
L 60.349406 23.814708 
L 61.282045 24.809502 
L 62.214684 19.956241 
L 63.147327 22.52864 
L 64.07996 32.403365 
L 65.012598 25.661545 
L 65.945245 15.927996 
L 66.877884 24.609808 
L 67.810526 29.771662 
L 68.743162 29.450473 
L 69.675784 23.653064 
L 70.608443 16.780564 
L 71.541078 27.536197 
L 72.473724 23.192535 
L 73.406361 21.367479 
L 74.339003 23.272308 
L 75.271637 20.102141 
L 76.204286 21.985715 
L 77.136912 26.631409 
L 78.069558 29.441026 
L 79.002199 22.850879 
L 79.934841 23.328726 
L 80.867465 20.497329 
L 81.800118 21.966822 
L 82.732742 28.895215 
L 83.665398 30.204375 
L 84.598038 23.895792 
L 85.53068 27.380063 
L 86.463316 27.061498 
L 87.395962 24.794807 
L 96.913595 14.95577 
L 97.655282 28.852442 
L 98.587939 26.336986 
L 99.520578 22.062076 
L 100.453222 23.85302 
L 101.385859 23.906026 
L 102.318497 18.438204 
L 103.251135 28.118221 
L 104.183773 24.342938 
L 105.116412 22.766908 
L 106.049054 13.381839 
L 106.981691 20.065404 
L 107.914333 16.390361 
L 108.846974 23.68639 
L 109.779613 19.441657 
L 110.71225 24.768828 
L 111.644893 26.393142 
L 112.57753 29.813385 
L 113.510173 26.660799 
L 114.442814 22.448605 
L 115.37545 14.069614 
L 116.308095 29.49482 
L 117.240726 18.596436 
L 118.173367 20.346969 
L 119.106014 26.219689 
L 120.038653 26.15881 
L 120.971293 19.987993 
L 121.903926 21.795206 
L 122.836569 23.154224 
L 123.769209 26.678118 
L 124.701847 23.616064 
L 125.634489 19.226744 
L 129.365046 24.056649 
L 130.297692 22.353613 
L 131.230328 21.041042 
L 132.162968 23.116699 
L 133.095609 24.451051 
L 134.028248 16.117456 
L 134.960891 19.972511 
L 135.893512 23.960345 
L 136.826165 20.018695 
L 137.75881 17.316141 
L 138.691446 16.955853 
L 139.624089 13.711162 
L 140.556726 19.529039 
L 141.489366 20.947099 
L 142.422003 28.449644 
L 143.354646 19.059064 
L 144.287298 17.518984 
L 145.219926 27.064647 
L 146.152567 21.883113 
L 147.085204 18.271049 
L 148.017844 16.7496 
L 148.950485 29.066043 
L 149.883123 24.11123 
L 150.815765 22.349939 
L 151.7484 17.920732 
L 179.727656 17.920732 
L 188.43171 23.475938 
L 189.054038 24.205435 
L 189.986678 13.163252 
L 190.919315 20.878348 
L 191.851955 19.639776 
L 192.7846 21.929297 
L 193.717237 11.452343 
L 194.649875 18.418261 
L 195.582513 21.729341 
L 196.515156 15.305824 
L 197.447798 15.066506 
L 198.380437 14.939238 
L 199.313081 11.120658 
L 200.245713 19.15117 
L 201.178356 17.396964 
L 202.110995 11.619498 
L 203.043636 9.472727 
" clip-path="url(#p5bafb31105)" style="fill: none; stroke: #339af0; stroke-width: 1.2; stroke-linecap: square"/>
   </g>
   <g id="line2d_16">
    <path d="M 43.916364 98.842777 
L 44.494523 98.851961 
L 45.427166 98.884762 
L 46.359808 98.844876 
L 47.292453 98.833855 
L 48.22509 98.817323 
L 49.157727 98.861408 
L 50.090359 98.865344 
L 51.023007 98.91389 
L 51.95565 98.766678 
L 52.88829 98.886599 
L 53.82093 98.823621 
L 54.753566 98.87689 
L 55.686208 98.682182 
L 56.618849 98.853273 
L 57.551483 98.878989 
L 58.484126 98.859046 
L 59.416765 98.605559 
L 60.349406 98.808664 
L 61.282045 98.887387 
L 62.214684 98.861408 
L 63.147327 98.888174 
L 64.07996 98.903918 
L 65.012598 98.84855 
L 65.945245 98.853798 
L 66.877884 98.780061 
L 67.810526 98.873216 
L 68.743162 98.860621 
L 69.675784 98.850912 
L 70.608443 98.78977 
L 71.541078 98.918876 
L 72.473724 98.606084 
L 73.406361 98.854061 
L 74.339003 98.90628 
L 75.271637 97.903089 
L 76.204286 98.819685 
L 77.136912 98.899457 
L 78.069558 98.890011 
L 79.002199 98.829919 
L 79.934841 98.853273 
L 80.867465 98.757494 
L 81.800118 98.806302 
L 82.732742 98.869805 
L 83.665398 98.887387 
L 84.598038 98.879252 
L 85.53068 98.85616 
L 86.463316 98.908642 
L 87.395962 98.848812 
L 96.913595 98.795281 
L 97.655282 98.890273 
L 98.587939 98.419248 
L 99.520578 98.860883 
L 100.453222 98.890535 
L 101.385859 98.841727 
L 102.318497 98.646232 
L 103.251135 98.919925 
L 104.183773 98.87033 
L 105.116412 98.828607 
L 106.049054 98.738076 
L 106.981691 98.859571 
L 107.914333 98.81155 
L 108.846974 98.864819 
L 109.779613 98.89762 
L 110.71225 98.848288 
L 111.644893 98.695565 
L 112.57753 98.883975 
L 113.510173 98.87138 
L 114.442814 98.76143 
L 115.37545 98.779274 
L 116.308095 98.927273 
L 117.240726 98.823883 
L 118.173367 98.802628 
L 119.106014 98.892635 
L 120.038653 98.903393 
L 120.971293 98.85511 
L 121.903926 98.838054 
L 122.836569 98.84199 
L 123.769209 98.698714 
L 124.701847 98.837529 
L 125.634489 98.792132 
L 129.365046 98.861933 
L 130.297692 98.835692 
L 131.230328 98.795281 
L 132.162968 98.838578 
L 133.095609 98.879252 
L 134.028248 98.721544 
L 134.960891 98.874528 
L 135.893512 98.772976 
L 136.826165 98.831231 
L 137.75881 98.833855 
L 138.691446 98.791607 
L 139.624089 98.808139 
L 140.556726 98.868231 
L 141.489366 98.665126 
L 142.422003 98.848025 
L 143.354646 98.867181 
L 144.287298 98.830706 
L 145.219926 98.852224 
L 146.152567 98.776912 
L 147.085204 98.800267 
L 148.017844 98.841202 
L 148.950485 98.870855 
L 149.883123 98.869543 
L 150.815765 98.888699 
L 151.7484 98.774026 
L 179.727656 98.774026 
L 188.43171 98.823096 
L 189.054038 98.754607 
L 189.986678 98.791345 
L 190.919315 98.756707 
L 191.851955 98.782948 
L 192.7846 98.699764 
L 193.717237 98.713409 
L 194.649875 98.74831 
L 195.582513 98.685856 
L 196.515156 98.816274 
L 197.447798 98.761168 
L 198.380437 98.60897 
L 199.313081 98.711835 
L 200.245713 98.69058 
L 201.178356 98.654892 
L 202.110995 98.787933 
L 203.043636 98.73204 
" clip-path="url(#p5bafb31105)" style="fill: none; stroke: #ff6b6b; stroke-width: 1.2; stroke-linecap: square"/>
   </g>
   <g id="patch_3">
    <path d="M 35.96 103.4 
L 35.96 5 
" style="fill: none; stroke: var(--fg-color); stroke-width: 0.8; stroke-linejoin: miter; stroke-linecap: square"/>
   </g>
   <g id="patch_4">
    <path d="M 35.96 103.4 
L 211 103.4 
" style="fill: none; stroke: var(--fg-color); stroke-width: 0.8; stroke-linejoin: miter; stroke-linecap: square"/>
   </g>
  </g>
 </g>
 <defs>
  <clipPath id="p5bafb31105">
   <rect x="35.96" y="5" width="175.04" height="98.4"/>
  </clipPath>
 </defs>
</svg>
