<?xml version="1.0" encoding="utf-8" standalone="no"?>
<!DOCTYPE svg PUBLIC "-//W3C//DTD SVG 1.1//EN"
  "http://www.w3.org/Graphics/SVG/1.1/DTD/svg11.dtd">
<svg xmlns:xlink="http://www.w3.org/1999/xlink" width="216pt" height="122.4pt" viewBox="0 0 216 122.4" xmlns="http://www.w3.org/2000/svg" version="1.1">
  <style>
    :root {
      --fg-color: #212529;
      --grid-color: rgba(33, 37, 41, 0.1);
    }
    @media (prefers-color-scheme: dark) {
      :root {
        --fg-color: #dee2e6;
        --grid-color: rgba(248, 249, 250, 0.15);
      }
    }
  </style>

 <metadata>
  <rdf:RDF xmlns:dc="http://purl.org/dc/elements/1.1/" xmlns:cc="http://creativecommons.org/ns#" xmlns:rdf="http://www.w3.org/1999/02/22-rdf-syntax-ns#">
   <cc:Work>
    <dc:type rdf:resource="http://purl.org/dc/dcmitype/StillImage"/>
    <dc:date>2026-06-30T04:48:22.581449</dc:date>
    <dc:format>image/svg+xml</dc:format>
    <dc:creator>
     <cc:Agent>
      <dc:title>Matplotlib v3.11.0, https://matplotlib.org/</dc:title>
     </cc:Agent>
    </dc:creator>
   </cc:Work>
  </rdf:RDF>
 </metadata>
 <defs>
  <style type="text/css">*{stroke-linejoin: round; stroke-linecap: butt}</style>
 </defs>
 <g id="figure_1">
  <g id="patch_1">
   <path d="M 0 122.4 
L 216 122.4 
L 216 0 
L 0 0 
L 0 122.4 
z
" style="fill: none; opacity: 0"/>
  </g>
  <g id="axes_1">
   <g id="patch_2">
    <path d="M 35.96 103.4 
L 211 103.4 
L 211 5 
L 35.96 5 
L 35.96 103.4 
z
" style="fill: none; opacity: 0"/>
   </g>
   <g id="matplotlib.axis_1">
    <g id="xtick_1">
     <g id="line2d_1">
      <path d="M 72.056377 103.4 
L 72.056377 5 
" clip-path="url(#p0d70639688)" style="fill: none; stroke-dasharray: 2.96,1.28; stroke-dashoffset: 0; stroke: var(--grid-color); stroke-width: 0.8"/>
     </g>
     <g id="line2d_2">
      <defs>
       <path id="mc1a8f95ac8" d="M 0 0 
L 0 3.5 
" style="stroke: var(--fg-color); stroke-width: 0.8"/>
      </defs>
      <g>
       <use xlink:href="#mc1a8f95ac8" x="72.056377" y="103.4" style="fill: var(--fg-color); stroke: var(--fg-color); stroke-width: 0.8"/>
      </g>
     </g>
     <g id="text_1">
      <text style="font-size: 7px; font-family: 'DejaVu Sans', 'Bitstream Vera Sans', 'Computer Modern Sans Serif', 'Lucida Grande', 'Verdana', 'Geneva', 'Lucid', 'Arial', 'Helvetica', 'Avant Garde', sans-serif; text-anchor: middle; fill: var(--fg-color)" x="72.056377" y="115.718359" transform="rotate(-0 72.056377 115.718359)">02/2026</text>
     </g>
    </g>
    <g id="xtick_2">
     <g id="line2d_3">
      <path d="M 126.640628 103.4 
L 126.640628 5 
" clip-path="url(#p0d70639688)" style="fill: none; stroke-dasharray: 2.96,1.28; stroke-dashoffset: 0; stroke: var(--grid-color); stroke-width: 0.8"/>
     </g>
     <g id="line2d_4">
      <g>
       <use xlink:href="#mc1a8f95ac8" x="126.640628" y="103.4" style="fill: var(--fg-color); stroke: var(--fg-color); stroke-width: 0.8"/>
      </g>
     </g>
     <g id="text_2">
      <text style="font-size: 7px; font-family: 'DejaVu Sans', 'Bitstream Vera Sans', 'Computer Modern Sans Serif', 'Lucida Grande', 'Verdana', 'Geneva', 'Lucid', 'Arial', 'Helvetica', 'Avant Garde', sans-serif; text-anchor: middle; fill: var(--fg-color)" x="126.640628" y="115.718359" transform="rotate(-0 126.640628 115.718359)">04/2026</text>
     </g>
    </g>
    <g id="xtick_3">
     <g id="line2d_5">
      <path d="M 183.075192 103.4 
L 183.075192 5 
" clip-path="url(#p0d70639688)" style="fill: none; stroke-dasharray: 2.96,1.28; stroke-dashoffset: 0; stroke: var(--grid-color); stroke-width: 0.8"/>
     </g>
     <g id="line2d_6">
      <g>
       <use xlink:href="#mc1a8f95ac8" x="183.075192" y="103.4" style="fill: var(--fg-color); stroke: var(--fg-color); stroke-width: 0.8"/>
      </g>
     </g>
     <g id="text_3">
      <text style="font-size: 7px; font-family: 'DejaVu Sans', 'Bitstream Vera Sans', 'Computer Modern Sans Serif', 'Lucida Grande', 'Verdana', 'Geneva', 'Lucid', 'Arial', 'Helvetica', 'Avant Garde', sans-serif; text-anchor: middle; fill: var(--fg-color)" x="183.075192" y="115.718359" transform="rotate(-0 183.075192 115.718359)">06/2026</text>
     </g>
    </g>
   </g>
   <g id="matplotlib.axis_2">
    <g id="ytick_1">
     <g id="line2d_7">
      <path d="M 35.96 91.131353 
L 211 91.131353 
" clip-path="url(#p0d70639688)" style="fill: none; stroke-dasharray: 2.96,1.28; stroke-dashoffset: 0; stroke: var(--grid-color); stroke-width: 0.8"/>
     </g>
     <g id="line2d_8">
      <defs>
       <path id="m11860cdbf3" d="M 0 0 
L -3.5 0 
" style="stroke: var(--fg-color); stroke-width: 0.8"/>
      </defs>
      <g>
       <use xlink:href="#m11860cdbf3" x="35.96" y="91.131353" style="fill: var(--fg-color); stroke: var(--fg-color); stroke-width: 0.8"/>
      </g>
     </g>
     <g id="text_4">
      <text style="font-size: 7px; font-family: 'DejaVu Sans', 'Bitstream Vera Sans', 'Computer Modern Sans Serif', 'Lucida Grande', 'Verdana', 'Geneva', 'Lucid', 'Arial', 'Helvetica', 'Avant Garde', sans-serif; text-anchor: end; fill: var(--fg-color)" x="28.96" y="93.790533" transform="rotate(-0 28.96 93.790533)">200</text>
     </g>
    </g>
    <g id="ytick_2">
     <g id="line2d_9">
      <path d="M 35.96 63.519539 
L 211 63.519539 
" clip-path="url(#p0d70639688)" style="fill: none; stroke-dasharray: 2.96,1.28; stroke-dashoffset: 0; stroke: var(--grid-color); stroke-width: 0.8"/>
     </g>
     <g id="line2d_10">
      <g>
       <use xlink:href="#m11860cdbf3" x="35.96" y="63.519539" style="fill: var(--fg-color); stroke: var(--fg-color); stroke-width: 0.8"/>
      </g>
     </g>
     <g id="text_5">
      <text style="font-size: 7px; font-family: 'DejaVu Sans', 'Bitstream Vera Sans', 'Computer Modern Sans Serif', 'Lucida Grande', 'Verdana', 'Geneva', 'Lucid', 'Arial', 'Helvetica', 'Avant Garde', sans-serif; text-anchor: end; fill: var(--fg-color)" x="28.96" y="66.178719" transform="rotate(-0 28.96 66.178719)">300</text>
     </g>
    </g>
    <g id="ytick_3">
     <g id="line2d_11">
      <path d="M 35.96 35.907726 
L 211 35.907726 
" clip-path="url(#p0d70639688)" style="fill: none; stroke-dasharray: 2.96,1.28; stroke-dashoffset: 0; stroke: var(--grid-color); stroke-width: 0.8"/>
     </g>
     <g id="line2d_12">
      <g>
       <use xlink:href="#m11860cdbf3" x="35.96" y="35.907726" style="fill: var(--fg-color); stroke: var(--fg-color); stroke-width: 0.8"/>
      </g>
     </g>
     <g id="text_6">
      <text style="font-size: 7px; font-family: 'DejaVu Sans', 'Bitstream Vera Sans', 'Computer Modern Sans Serif', 'Lucida Grande', 'Verdana', 'Geneva', 'Lucid', 'Arial', 'Helvetica', 'Avant Garde', sans-serif; text-anchor: end; fill: var(--fg-color)" x="28.96" y="38.566905" transform="rotate(-0 28.96 38.566905)">400</text>
     </g>
    </g>
    <g id="ytick_4">
     <g id="line2d_13">
      <path d="M 35.96 8.295912 
L 211 8.295912 
" clip-path="url(#p0d70639688)" style="fill: none; stroke-dasharray: 2.96,1.28; stroke-dashoffset: 0; stroke: var(--grid-color); stroke-width: 0.8"/>
     </g>
     <g id="line2d_14">
      <g>
       <use xlink:href="#m11860cdbf3" x="35.96" y="8.295912" style="fill: var(--fg-color); stroke: var(--fg-color); stroke-width: 0.8"/>
      </g>
     </g>
     <g id="text_7">
      <text style="font-size: 7px; font-family: 'DejaVu Sans', 'Bitstream Vera Sans', 'Computer Modern Sans Serif', 'Lucida Grande', 'Verdana', 'Geneva', 'Lucid', 'Arial', 'Helvetica', 'Avant Garde', sans-serif; text-anchor: end; fill: var(--fg-color)" x="28.96" y="10.955091" transform="rotate(-0 28.96 10.955091)">500</text>
     </g>
    </g>
    <g id="text_8">
     <text style="font-size: 7px; font-family: 'DejaVu Sans', 'Bitstream Vera Sans', 'Computer Modern Sans Serif', 'Lucida Grande', 'Verdana', 'Geneva', 'Lucid', 'Arial', 'Helvetica', 'Avant Garde', sans-serif; text-anchor: middle; fill: var(--fg-color)" x="9.917109" y="54.2" transform="rotate(-90 9.917109 54.2)">ms</text>
    </g>
   </g>
   <g id="line2d_15">
    <path d="M 43.916364 74.925151 
L 45.193108 69.165327 
L 45.766628 74.957457 
L 46.691788 76.17431 
L 47.616947 74.799518 
L 48.542109 74.23955 
L 49.467263 68.756672 
L 50.392418 77.263596 
L 51.317566 72.939862 
L 52.242732 69.073656 
L 53.167891 70.696954 
L 54.093049 68.710008 
L 55.018206 72.269447 
L 55.943359 72.417723 
L 56.868517 68.589621 
L 57.793676 55.578658 
L 58.718827 72.266686 
L 59.643987 71.887852 
L 60.569143 70.750797 
L 61.494301 69.753459 
L 62.419457 78.57212 
L 63.344613 75.867543 
L 64.269773 66.849524 
L 65.194924 76.688718 
L 66.120079 77.446662 
L 67.045243 75.534544 
L 67.970398 73.871761 
L 68.895557 70.02792 
L 69.82071 69.905876 
L 70.74585 72.32826 
L 71.671025 67.887452 
L 72.596178 75.514387 
L 73.521341 60.625821 
L 74.446495 71.126042 
L 75.371653 75.726722 
L 76.296805 69.916092 
L 77.221971 68.797814 
L 78.147114 74.601817 
L 79.072277 67.265634 
L 79.997435 75.868371 
L 80.922594 74.495512 
L 81.847735 69.665101 
L 82.772905 72.045791 
L 83.698046 65.222636 
L 84.623219 75.694969 
L 85.548376 78.54506 
L 86.473535 68.743142 
L 87.398688 78.106308 
L 88.323852 73.605583 
L 97.76512 58.149594 
L 98.500856 59.424984 
L 99.426031 67.101896 
L 100.351186 59.303215 
L 101.276348 72.44064 
L 102.201502 67.672356 
L 103.126656 70.126218 
L 104.051812 68.814381 
L 104.976967 73.509218 
L 105.902123 73.869828 
L 106.827282 67.755192 
L 107.752435 73.285562 
L 108.677594 67.491223 
L 109.602753 68.785665 
L 110.527909 79.253303 
L 111.453063 71.311593 
L 112.378223 72.694669 
L 113.303377 55.318555 
L 114.228537 65.816842 
L 115.153695 68.617785 
L 116.078848 73.960947 
L 117.004011 70.309008 
L 117.929158 71.684905 
L 118.854316 75.532335 
L 119.779481 71.241735 
L 120.704637 75.494507 
L 121.629794 31.619887 
L 122.554943 68.991096 
L 123.480104 74.424825 
L 124.405261 50.450592 
L 125.330416 67.227806 
L 126.255574 74.479497 
L 129.9562 71.788173 
L 130.881363 66.32987 
L 131.806516 69.419908 
L 132.731673 75.959766 
L 133.656831 70.629305 
L 134.581987 70.847163 
L 135.507147 71.134049 
L 136.432285 69.34508 
L 137.357455 70.747484 
L 138.282617 71.200318 
L 139.20777 69.146275 
L 140.13293 68.648986 
L 141.058084 68.993858 
L 141.983242 69.298692 
L 142.908395 70.913983 
L 143.833556 66.251728 
L 144.758724 72.085829 
L 145.683869 9.472727 
L 146.609028 55.900612 
L 147.534182 66.207826 
L 148.459339 64.809011 
L 149.384497 55.022832 
L 150.309651 64.932988 
L 151.234811 65.24224 
L 152.159963 63.786822 
L 179.91473 63.786822 
L 188.548948 69.502467 
L 189.166282 70.072099 
L 190.091439 72.78137 
L 191.016594 62.801356 
L 191.94175 71.826554 
L 192.866913 62.528275 
L 193.792066 59.975563 
L 194.717222 64.529303 
L 195.642377 69.535601 
L 196.567536 69.420184 
L 197.492695 68.624135 
L 198.417852 30.337594 
L 199.343013 66.17193 
L 200.268162 68.991373 
L 201.193322 70.540671 
L 202.118478 72.447267 
L 203.043636 72.512707 
" clip-path="url(#p0d70639688)" style="fill: none; stroke: #339af0; stroke-width: 1.2; stroke-linecap: square"/>
   </g>
   <g id="line2d_16">
    <path d="M 43.916364 97.001073 
L 45.193108 94.501099 
L 45.766628 96.152838 
L 46.691788 96.646813 
L 47.616947 95.363968 
L 48.542109 96.639358 
L 49.467263 95.438796 
L 50.392418 95.637325 
L 51.317566 95.620758 
L 52.242732 94.887112 
L 53.167891 93.618073 
L 54.093049 94.155123 
L 55.018206 95.185596 
L 55.943359 95.135342 
L 56.868517 92.604443 
L 57.793676 82.979241 
L 58.718827 95.474692 
L 59.643987 95.301289 
L 60.569143 89.593927 
L 61.494301 93.371224 
L 62.419457 96.116942 
L 63.344613 93.848632 
L 64.269773 93.265746 
L 65.194924 96.431993 
L 66.120079 98.301865 
L 67.045243 96.702313 
L 67.970398 93.091516 
L 68.895557 94.596636 
L 69.82071 96.596283 
L 70.74585 94.141869 
L 71.671025 93.658939 
L 72.596178 97.376317 
L 73.521341 94.646889 
L 74.446495 92.69363 
L 75.371653 92.320594 
L 76.296805 92.786405 
L 77.221971 95.97198 
L 78.147114 96.461814 
L 79.072277 94.099623 
L 79.997435 95.946301 
L 80.922594 98.115485 
L 81.847735 94.657658 
L 82.772905 94.993141 
L 83.698046 94.469345 
L 84.623219 97.279676 
L 85.548376 94.211727 
L 86.473535 94.802344 
L 87.398688 95.869817 
L 88.323852 95.461438 
L 97.76512 94.321898 
L 98.500856 96.484732 
L 99.426031 95.910406 
L 100.351186 95.195812 
L 101.276348 94.688031 
L 102.201502 94.694934 
L 103.126656 93.082956 
L 104.051812 95.490154 
L 104.976967 94.813941 
L 105.902123 95.383296 
L 106.827282 94.052683 
L 107.752435 95.519147 
L 108.677594 91.360531 
L 109.602753 93.742326 
L 110.527909 97.007147 
L 111.453063 95.465856 
L 112.378223 95.015231 
L 113.303377 94.249831 
L 114.228537 92.870621 
L 115.153695 92.756585 
L 116.078848 96.059234 
L 117.004011 93.725483 
L 117.929158 89.719009 
L 118.854316 96.727163 
L 119.779481 95.029313 
L 120.704637 96.544373 
L 121.629794 95.204096 
L 122.554943 93.666394 
L 123.480104 94.620106 
L 124.405261 95.687026 
L 125.330416 95.385229 
L 126.255574 98.222343 
L 129.9562 97.100199 
L 130.881363 92.990733 
L 131.806516 96.57806 
L 132.731673 97.816449 
L 133.656831 95.248275 
L 134.581987 92.23693 
L 135.507147 94.76562 
L 136.432285 94.537823 
L 137.357455 95.58431 
L 138.282617 96.510411 
L 139.20777 97.789666 
L 140.13293 89.046937 
L 141.058084 95.759093 
L 141.983242 93.673849 
L 142.908395 93.530268 
L 143.833556 95.726787 
L 144.758724 96.832088 
L 145.683869 93.769662 
L 146.609028 94.777493 
L 147.534182 95.434931 
L 148.459339 95.633459 
L 149.384497 91.771119 
L 150.309651 95.696414 
L 151.234811 91.741022 
L 152.159963 88.323508 
L 179.91473 88.323508 
L 188.548948 95.640639 
L 189.166282 96.758641 
L 190.091439 95.626004 
L 191.016594 97.055192 
L 191.94175 94.943164 
L 192.866913 96.148696 
L 193.792066 98.026851 
L 194.717222 94.387891 
L 195.642377 96.850036 
L 196.567536 98.810751 
L 197.492695 95.077081 
L 198.417852 96.589657 
L 199.343013 92.402601 
L 200.268162 97.793808 
L 201.193322 97.481518 
L 202.118478 97.474063 
L 203.043636 98.927273 
" clip-path="url(#p0d70639688)" style="fill: none; stroke: #ff6b6b; stroke-width: 1.2; stroke-linecap: square"/>
   </g>
   <g id="patch_3">
    <path d="M 35.96 103.4 
L 35.96 5 
" style="fill: none; stroke: var(--fg-color); stroke-width: 0.8; stroke-linejoin: miter; stroke-linecap: square"/>
   </g>
   <g id="patch_4">
    <path d="M 35.96 103.4 
L 211 103.4 
" style="fill: none; stroke: var(--fg-color); stroke-width: 0.8; stroke-linejoin: miter; stroke-linecap: square"/>
   </g>
  </g>
 </g>
 <defs>
  <clipPath id="p0d70639688">
   <rect x="35.96" y="5" width="175.04" height="98.4"/>
  </clipPath>
 </defs>
</svg>
