<?xml version="1.0" encoding="utf-8" standalone="no"?>
<!DOCTYPE svg PUBLIC "-//W3C//DTD SVG 1.1//EN"
  "http://www.w3.org/Graphics/SVG/1.1/DTD/svg11.dtd">
<svg xmlns:xlink="http://www.w3.org/1999/xlink" width="216pt" height="122.4pt" viewBox="0 0 216 122.4" xmlns="http://www.w3.org/2000/svg" version="1.1">
  <style>
    :root {
      --fg-color: #212529;
      --grid-color: rgba(33, 37, 41, 0.1);
    }
    @media (prefers-color-scheme: dark) {
      :root {
        --fg-color: #dee2e6;
        --grid-color: rgba(248, 249, 250, 0.15);
      }
    }
  </style>

 <metadata>
  <rdf:RDF xmlns:dc="http://purl.org/dc/elements/1.1/" xmlns:cc="http://creativecommons.org/ns#" xmlns:rdf="http://www.w3.org/1999/02/22-rdf-syntax-ns#">
   <cc:Work>
    <dc:type rdf:resource="http://purl.org/dc/dcmitype/StillImage"/>
    <dc:date>2026-06-30T04:48:58.769760</dc:date>
    <dc:format>image/svg+xml</dc:format>
    <dc:creator>
     <cc:Agent>
      <dc:title>Matplotlib v3.11.0, https://matplotlib.org/</dc:title>
     </cc:Agent>
    </dc:creator>
   </cc:Work>
  </rdf:RDF>
 </metadata>
 <defs>
  <style type="text/css">*{stroke-linejoin: round; stroke-linecap: butt}</style>
 </defs>
 <g id="figure_1">
  <g id="patch_1">
   <path d="M 0 122.4 
L 216 122.4 
L 216 0 
L 0 0 
L 0 122.4 
z
" style="fill: none; opacity: 0"/>
  </g>
  <g id="axes_1">
   <g id="patch_2">
    <path d="M 35.96 103.4 
L 211 103.4 
L 211 5 
L 35.96 5 
L 35.96 103.4 
z
" style="fill: none; opacity: 0"/>
   </g>
   <g id="matplotlib.axis_1">
    <g id="xtick_1">
     <g id="line2d_1">
      <path d="M 72.056377 103.4 
L 72.056377 5 
" clip-path="url(#p42b9e5f73c)" style="fill: none; stroke-dasharray: 2.96,1.28; stroke-dashoffset: 0; stroke: var(--grid-color); stroke-width: 0.8"/>
     </g>
     <g id="line2d_2">
      <defs>
       <path id="m29878ea1a2" d="M 0 0 
L 0 3.5 
" style="stroke: var(--fg-color); stroke-width: 0.8"/>
      </defs>
      <g>
       <use xlink:href="#m29878ea1a2" x="72.056377" y="103.4" style="fill: var(--fg-color); stroke: var(--fg-color); stroke-width: 0.8"/>
      </g>
     </g>
     <g id="text_1">
      <text style="font-size: 7px; font-family: 'DejaVu Sans', 'Bitstream Vera Sans', 'Computer Modern Sans Serif', 'Lucida Grande', 'Verdana', 'Geneva', 'Lucid', 'Arial', 'Helvetica', 'Avant Garde', sans-serif; text-anchor: middle; fill: var(--fg-color)" x="72.056377" y="115.718359" transform="rotate(-0 72.056377 115.718359)">02/2026</text>
     </g>
    </g>
    <g id="xtick_2">
     <g id="line2d_3">
      <path d="M 126.640628 103.4 
L 126.640628 5 
" clip-path="url(#p42b9e5f73c)" style="fill: none; stroke-dasharray: 2.96,1.28; stroke-dashoffset: 0; stroke: var(--grid-color); stroke-width: 0.8"/>
     </g>
     <g id="line2d_4">
      <g>
       <use xlink:href="#m29878ea1a2" x="126.640628" y="103.4" style="fill: var(--fg-color); stroke: var(--fg-color); stroke-width: 0.8"/>
      </g>
     </g>
     <g id="text_2">
      <text style="font-size: 7px; font-family: 'DejaVu Sans', 'Bitstream Vera Sans', 'Computer Modern Sans Serif', 'Lucida Grande', 'Verdana', 'Geneva', 'Lucid', 'Arial', 'Helvetica', 'Avant Garde', sans-serif; text-anchor: middle; fill: var(--fg-color)" x="126.640628" y="115.718359" transform="rotate(-0 126.640628 115.718359)">04/2026</text>
     </g>
    </g>
    <g id="xtick_3">
     <g id="line2d_5">
      <path d="M 183.075192 103.4 
L 183.075192 5 
" clip-path="url(#p42b9e5f73c)" style="fill: none; stroke-dasharray: 2.96,1.28; stroke-dashoffset: 0; stroke: var(--grid-color); stroke-width: 0.8"/>
     </g>
     <g id="line2d_6">
      <g>
       <use xlink:href="#m29878ea1a2" x="183.075192" y="103.4" style="fill: var(--fg-color); stroke: var(--fg-color); stroke-width: 0.8"/>
      </g>
     </g>
     <g id="text_3">
      <text style="font-size: 7px; font-family: 'DejaVu Sans', 'Bitstream Vera Sans', 'Computer Modern Sans Serif', 'Lucida Grande', 'Verdana', 'Geneva', 'Lucid', 'Arial', 'Helvetica', 'Avant Garde', sans-serif; text-anchor: middle; fill: var(--fg-color)" x="183.075192" y="115.718359" transform="rotate(-0 183.075192 115.718359)">06/2026</text>
     </g>
    </g>
   </g>
   <g id="matplotlib.axis_2">
    <g id="ytick_1">
     <g id="line2d_7">
      <path d="M 35.96 101.85909 
L 211 101.85909 
" clip-path="url(#p42b9e5f73c)" style="fill: none; stroke-dasharray: 2.96,1.28; stroke-dashoffset: 0; stroke: var(--grid-color); stroke-width: 0.8"/>
     </g>
     <g id="line2d_8">
      <defs>
       <path id="m5f04a65064" d="M 0 0 
L -3.5 0 
" style="stroke: var(--fg-color); stroke-width: 0.8"/>
      </defs>
      <g>
       <use xlink:href="#m5f04a65064" x="35.96" y="101.85909" style="fill: var(--fg-color); stroke: var(--fg-color); stroke-width: 0.8"/>
      </g>
     </g>
     <g id="text_4">
      <text style="font-size: 7px; font-family: 'DejaVu Sans', 'Bitstream Vera Sans', 'Computer Modern Sans Serif', 'Lucida Grande', 'Verdana', 'Geneva', 'Lucid', 'Arial', 'Helvetica', 'Avant Garde', sans-serif; text-anchor: end; fill: var(--fg-color)" x="28.96" y="104.51827" transform="rotate(-0 28.96 104.51827)">0</text>
     </g>
    </g>
    <g id="ytick_2">
     <g id="line2d_9">
      <path d="M 35.96 79.992909 
L 211 79.992909 
" clip-path="url(#p42b9e5f73c)" style="fill: none; stroke-dasharray: 2.96,1.28; stroke-dashoffset: 0; stroke: var(--grid-color); stroke-width: 0.8"/>
     </g>
     <g id="line2d_10">
      <g>
       <use xlink:href="#m5f04a65064" x="35.96" y="79.992909" style="fill: var(--fg-color); stroke: var(--fg-color); stroke-width: 0.8"/>
      </g>
     </g>
     <g id="text_5">
      <text style="font-size: 7px; font-family: 'DejaVu Sans', 'Bitstream Vera Sans', 'Computer Modern Sans Serif', 'Lucida Grande', 'Verdana', 'Geneva', 'Lucid', 'Arial', 'Helvetica', 'Avant Garde', sans-serif; text-anchor: end; fill: var(--fg-color)" x="28.96" y="82.652089" transform="rotate(-0 28.96 82.652089)">50</text>
     </g>
    </g>
    <g id="ytick_3">
     <g id="line2d_11">
      <path d="M 35.96 58.126729 
L 211 58.126729 
" clip-path="url(#p42b9e5f73c)" style="fill: none; stroke-dasharray: 2.96,1.28; stroke-dashoffset: 0; stroke: var(--grid-color); stroke-width: 0.8"/>
     </g>
     <g id="line2d_12">
      <g>
       <use xlink:href="#m5f04a65064" x="35.96" y="58.126729" style="fill: var(--fg-color); stroke: var(--fg-color); stroke-width: 0.8"/>
      </g>
     </g>
     <g id="text_6">
      <text style="font-size: 7px; font-family: 'DejaVu Sans', 'Bitstream Vera Sans', 'Computer Modern Sans Serif', 'Lucida Grande', 'Verdana', 'Geneva', 'Lucid', 'Arial', 'Helvetica', 'Avant Garde', sans-serif; text-anchor: end; fill: var(--fg-color)" x="28.96" y="60.785908" transform="rotate(-0 28.96 60.785908)">100</text>
     </g>
    </g>
    <g id="ytick_4">
     <g id="line2d_13">
      <path d="M 35.96 36.260548 
L 211 36.260548 
" clip-path="url(#p42b9e5f73c)" style="fill: none; stroke-dasharray: 2.96,1.28; stroke-dashoffset: 0; stroke: var(--grid-color); stroke-width: 0.8"/>
     </g>
     <g id="line2d_14">
      <g>
       <use xlink:href="#m5f04a65064" x="35.96" y="36.260548" style="fill: var(--fg-color); stroke: var(--fg-color); stroke-width: 0.8"/>
      </g>
     </g>
     <g id="text_7">
      <text style="font-size: 7px; font-family: 'DejaVu Sans', 'Bitstream Vera Sans', 'Computer Modern Sans Serif', 'Lucida Grande', 'Verdana', 'Geneva', 'Lucid', 'Arial', 'Helvetica', 'Avant Garde', sans-serif; text-anchor: end; fill: var(--fg-color)" x="28.96" y="38.919728" transform="rotate(-0 28.96 38.919728)">150</text>
     </g>
    </g>
    <g id="ytick_5">
     <g id="line2d_15">
      <path d="M 35.96 14.394367 
L 211 14.394367 
" clip-path="url(#p42b9e5f73c)" style="fill: none; stroke-dasharray: 2.96,1.28; stroke-dashoffset: 0; stroke: var(--grid-color); stroke-width: 0.8"/>
     </g>
     <g id="line2d_16">
      <g>
       <use xlink:href="#m5f04a65064" x="35.96" y="14.394367" style="fill: var(--fg-color); stroke: var(--fg-color); stroke-width: 0.8"/>
      </g>
     </g>
     <g id="text_8">
      <text style="font-size: 7px; font-family: 'DejaVu Sans', 'Bitstream Vera Sans', 'Computer Modern Sans Serif', 'Lucida Grande', 'Verdana', 'Geneva', 'Lucid', 'Arial', 'Helvetica', 'Avant Garde', sans-serif; text-anchor: end; fill: var(--fg-color)" x="28.96" y="17.053547" transform="rotate(-0 28.96 17.053547)">200</text>
     </g>
    </g>
    <g id="text_9">
     <text style="font-size: 7px; font-family: 'DejaVu Sans', 'Bitstream Vera Sans', 'Computer Modern Sans Serif', 'Lucida Grande', 'Verdana', 'Geneva', 'Lucid', 'Arial', 'Helvetica', 'Avant Garde', sans-serif; text-anchor: middle; fill: var(--fg-color)" x="9.917109" y="54.2" transform="rotate(-90 9.917109 54.2)">ms</text>
    </g>
   </g>
   <g id="line2d_17">
    <path d="M 43.916364 46.499168 
L 45.193108 47.521194 
L 45.766628 45.225245 
L 46.691788 52.20493 
L 47.616947 46.10995 
L 48.542109 42.369084 
L 49.467263 47.210257 
L 50.392418 45.352506 
L 51.317566 43.689364 
L 52.242732 49.521512 
L 53.167891 49.603729 
L 54.093049 47.08387 
L 55.018206 47.173521 
L 55.943359 50.52998 
L 56.868517 48.127324 
L 57.793676 48.105895 
L 58.718827 49.431861 
L 59.643987 45.47758 
L 60.569143 48.393654 
L 61.494301 45.833999 
L 62.419457 47.522506 
L 63.344613 49.687695 
L 64.269773 47.425857 
L 65.194924 48.414646 
L 66.120079 47.65414 
L 67.045243 49.402997 
L 67.970398 9.472727 
L 68.895557 50.008253 
L 69.82071 40.189901 
L 70.74585 50.962493 
L 71.671025 51.419496 
L 72.596178 50.133765 
L 73.521341 47.309529 
L 74.446495 49.34702 
L 75.371653 46.830222 
L 76.296805 52.999984 
L 77.221971 52.026502 
L 78.147114 48.227034 
L 79.072277 50.169626 
L 79.997435 48.111581 
L 80.922594 50.20811 
L 81.847735 47.332707 
L 82.772905 52.133646 
L 83.698046 47.808515 
L 84.623219 48.289134 
L 85.548376 50.710595 
L 86.473535 48.917131 
L 87.398688 48.00881 
L 88.323852 46.743195 
L 97.76512 33.914307 
L 98.500856 30.530734 
L 99.426031 40.13611 
L 100.351186 32.28134 
L 101.276348 49.890176 
L 102.201502 49.224132 
L 103.126656 54.608023 
L 104.051812 48.174993 
L 104.976967 49.04789 
L 105.902123 47.767844 
L 106.827282 51.035964 
L 107.752435 50.122832 
L 108.677594 52.334377 
L 109.602753 44.573633 
L 110.527909 51.494716 
L 111.453063 51.642969 
L 112.378223 47.824696 
L 113.303377 51.369642 
L 114.228537 51.318912 
L 115.153695 48.519604 
L 116.078848 50.246157 
L 117.004011 50.247469 
L 117.929158 51.011474 
L 118.854316 48.495988 
L 119.779481 49.289293 
L 120.704637 49.902421 
L 121.629794 50.386538 
L 122.554943 49.356641 
L 123.480104 48.133447 
L 124.405261 49.29629 
L 125.330416 49.271363 
L 126.255574 48.036798 
L 129.9562 49.144102 
L 130.881363 47.954144 
L 131.806516 46.518411 
L 132.731673 48.663483 
L 133.656831 44.935737 
L 134.581987 47.253114 
L 135.507147 49.908543 
L 136.432285 46.672786 
L 137.357455 49.741048 
L 138.282617 46.761125 
L 139.20777 45.173203 
L 140.13293 48.858529 
L 141.058084 52.094724 
L 141.983242 45.470146 
L 142.908395 47.090867 
L 143.833556 47.626589 
L 144.758724 47.686939 
L 145.683869 46.814479 
L 146.609028 45.718546 
L 147.534182 44.004237 
L 148.459339 45.429912 
L 149.384497 44.844773 
L 150.309651 50.109712 
L 151.234811 44.377274 
L 152.159963 44.752935 
L 179.91473 44.752935 
L 188.548948 47.095678 
L 189.166282 47.23912 
L 190.091439 48.585202 
L 191.016594 51.827957 
L 191.94175 24.223653 
L 192.866913 46.125694 
L 193.792066 46.714769 
L 194.717222 48.458816 
L 195.642377 47.994815 
L 196.567536 45.715922 
L 197.492695 48.488116 
L 198.417852 45.182824 
L 199.343013 49.946153 
L 200.268162 48.954741 
L 201.193322 48.653862 
L 202.118478 45.232679 
L 203.043636 47.032703 
" clip-path="url(#p42b9e5f73c)" style="fill: none; stroke: #339af0; stroke-width: 1.2; stroke-linecap: square"/>
   </g>
   <g id="line2d_18">
    <path d="M 43.916364 97.709326 
L 45.193108 97.987902 
L 45.766628 98.817067 
L 46.691788 97.366902 
L 47.616947 97.636731 
L 48.542109 97.459177 
L 49.467263 96.703045 
L 50.392418 96.780014 
L 51.317566 96.967626 
L 52.242732 98.000584 
L 53.167891 98.643012 
L 54.093049 97.371275 
L 55.018206 98.417353 
L 55.943359 98.456713 
L 56.868517 98.067932 
L 57.793676 97.89825 
L 58.718827 97.633232 
L 59.643987 96.66631 
L 60.569143 97.407573 
L 61.494301 95.547199 
L 62.419457 97.848395 
L 63.344613 98.072742 
L 64.269773 96.755524 
L 65.194924 98.120411 
L 66.120079 97.05684 
L 67.045243 97.826529 
L 67.970398 96.496191 
L 68.895557 97.020542 
L 69.82071 96.914709 
L 70.74585 96.874038 
L 71.671025 96.197936 
L 72.596178 98.201316 
L 73.521341 97.313549 
L 74.446495 97.037597 
L 75.371653 97.270254 
L 76.296805 98.136592 
L 77.221971 95.345155 
L 78.147114 97.719822 
L 79.072277 96.680741 
L 79.997435 97.913557 
L 80.922594 97.788045 
L 81.847735 95.861197 
L 82.772905 97.983966 
L 83.698046 97.115441 
L 84.623219 98.119973 
L 85.548376 96.756836 
L 86.473535 97.413258 
L 87.398688 97.791106 
L 88.323852 95.711195 
L 97.76512 98.927273 
L 98.500856 97.405387 
L 99.426031 97.580753 
L 100.351186 97.638917 
L 101.276348 97.603931 
L 102.201502 97.239641 
L 103.126656 98.182073 
L 104.051812 97.754808 
L 104.976967 97.502472 
L 105.902123 97.134683 
L 106.827282 97.754371 
L 107.752435 96.566163 
L 108.677594 98.03557 
L 109.602753 97.505534 
L 110.527909 98.601467 
L 111.453063 97.35422 
L 112.378223 97.330604 
L 113.303377 97.339788 
L 114.228537 95.850264 
L 115.153695 97.660784 
L 116.078848 96.008575 
L 117.004011 95.427809 
L 117.929158 97.345036 
L 118.854316 97.814284 
L 119.779481 96.078547 
L 120.704637 97.662096 
L 121.629794 97.261944 
L 122.554943 97.970846 
L 123.480104 96.894155 
L 124.405261 98.091547 
L 125.330416 97.676527 
L 126.255574 96.290211 
L 129.9562 96.805379 
L 130.881363 96.764707 
L 131.806516 97.572444 
L 132.731673 96.957567 
L 133.656831 97.146054 
L 134.581987 97.02404 
L 135.507147 95.717755 
L 136.432285 97.39008 
L 137.357455 96.879286 
L 138.282617 97.944169 
L 139.20777 97.893877 
L 140.13293 97.266755 
L 141.058084 96.502313 
L 141.983242 97.071271 
L 142.908395 95.366147 
L 143.833556 96.893281 
L 144.758724 97.58775 
L 145.683869 96.047059 
L 146.609028 95.928545 
L 147.534182 95.59268 
L 148.459339 97.42769 
L 149.384497 95.564254 
L 150.309651 95.992831 
L 151.234811 96.42928 
L 152.159963 95.967029 
L 179.91473 95.967029 
L 188.548948 95.424748 
L 189.166282 96.862668 
L 190.091439 96.630012 
L 191.016594 96.414849 
L 191.94175 94.479692 
L 192.866913 95.368333 
L 193.792066 96.263972 
L 194.717222 96.163825 
L 195.642377 97.790669 
L 196.567536 97.041971 
L 197.492695 96.544296 
L 198.417852 95.076201 
L 199.343013 94.993547 
L 200.268162 95.344718 
L 201.193322 97.578567 
L 202.118478 95.986709 
L 203.043636 95.060895 
" clip-path="url(#p42b9e5f73c)" style="fill: none; stroke: #ff6b6b; stroke-width: 1.2; stroke-linecap: square"/>
   </g>
   <g id="patch_3">
    <path d="M 35.96 103.4 
L 35.96 5 
" style="fill: none; stroke: var(--fg-color); stroke-width: 0.8; stroke-linejoin: miter; stroke-linecap: square"/>
   </g>
   <g id="patch_4">
    <path d="M 35.96 103.4 
L 211 103.4 
" style="fill: none; stroke: var(--fg-color); stroke-width: 0.8; stroke-linejoin: miter; stroke-linecap: square"/>
   </g>
  </g>
 </g>
 <defs>
  <clipPath id="p42b9e5f73c">
   <rect x="35.96" y="5" width="175.04" height="98.4"/>
  </clipPath>
 </defs>
</svg>
