<?xml version="1.0" encoding="utf-8" standalone="no"?>
<!DOCTYPE svg PUBLIC "-//W3C//DTD SVG 1.1//EN"
  "http://www.w3.org/Graphics/SVG/1.1/DTD/svg11.dtd">
<svg xmlns:xlink="http://www.w3.org/1999/xlink" width="216pt" height="122.4pt" viewBox="0 0 216 122.4" xmlns="http://www.w3.org/2000/svg" version="1.1">
  <style>
    :root {
      --fg-color: #212529;
      --grid-color: rgba(33, 37, 41, 0.1);
    }
    @media (prefers-color-scheme: dark) {
      :root {
        --fg-color: #dee2e6;
        --grid-color: rgba(248, 249, 250, 0.15);
      }
    }
  </style>

 <metadata>
  <rdf:RDF xmlns:dc="http://purl.org/dc/elements/1.1/" xmlns:cc="http://creativecommons.org/ns#" xmlns:rdf="http://www.w3.org/1999/02/22-rdf-syntax-ns#">
   <cc:Work>
    <dc:type rdf:resource="http://purl.org/dc/dcmitype/StillImage"/>
    <dc:date>2026-06-30T04:48:37.773594</dc:date>
    <dc:format>image/svg+xml</dc:format>
    <dc:creator>
     <cc:Agent>
      <dc:title>Matplotlib v3.11.0, https://matplotlib.org/</dc:title>
     </cc:Agent>
    </dc:creator>
   </cc:Work>
  </rdf:RDF>
 </metadata>
 <defs>
  <style type="text/css">*{stroke-linejoin: round; stroke-linecap: butt}</style>
 </defs>
 <g id="figure_1">
  <g id="patch_1">
   <path d="M 0 122.4 
L 216 122.4 
L 216 0 
L 0 0 
L 0 122.4 
z
" style="fill: none; opacity: 0"/>
  </g>
  <g id="axes_1">
   <g id="patch_2">
    <path d="M 35.96 103.4 
L 211 103.4 
L 211 5 
L 35.96 5 
L 35.96 103.4 
z
" style="fill: none; opacity: 0"/>
   </g>
   <g id="matplotlib.axis_1">
    <g id="xtick_1">
     <g id="line2d_1">
      <path d="M 72.056377 103.4 
L 72.056377 5 
" clip-path="url(#p11cf316284)" style="fill: none; stroke-dasharray: 2.96,1.28; stroke-dashoffset: 0; stroke: var(--grid-color); stroke-width: 0.8"/>
     </g>
     <g id="line2d_2">
      <defs>
       <path id="m02c918c5ef" d="M 0 0 
L 0 3.5 
" style="stroke: var(--fg-color); stroke-width: 0.8"/>
      </defs>
      <g>
       <use xlink:href="#m02c918c5ef" x="72.056377" y="103.4" style="fill: var(--fg-color); stroke: var(--fg-color); stroke-width: 0.8"/>
      </g>
     </g>
     <g id="text_1">
      <text style="font-size: 7px; font-family: 'DejaVu Sans', 'Bitstream Vera Sans', 'Computer Modern Sans Serif', 'Lucida Grande', 'Verdana', 'Geneva', 'Lucid', 'Arial', 'Helvetica', 'Avant Garde', sans-serif; text-anchor: middle; fill: var(--fg-color)" x="72.056377" y="115.718359" transform="rotate(-0 72.056377 115.718359)">02/2026</text>
     </g>
    </g>
    <g id="xtick_2">
     <g id="line2d_3">
      <path d="M 126.640628 103.4 
L 126.640628 5 
" clip-path="url(#p11cf316284)" style="fill: none; stroke-dasharray: 2.96,1.28; stroke-dashoffset: 0; stroke: var(--grid-color); stroke-width: 0.8"/>
     </g>
     <g id="line2d_4">
      <g>
       <use xlink:href="#m02c918c5ef" x="126.640628" y="103.4" style="fill: var(--fg-color); stroke: var(--fg-color); stroke-width: 0.8"/>
      </g>
     </g>
     <g id="text_2">
      <text style="font-size: 7px; font-family: 'DejaVu Sans', 'Bitstream Vera Sans', 'Computer Modern Sans Serif', 'Lucida Grande', 'Verdana', 'Geneva', 'Lucid', 'Arial', 'Helvetica', 'Avant Garde', sans-serif; text-anchor: middle; fill: var(--fg-color)" x="126.640628" y="115.718359" transform="rotate(-0 126.640628 115.718359)">04/2026</text>
     </g>
    </g>
    <g id="xtick_3">
     <g id="line2d_5">
      <path d="M 183.075192 103.4 
L 183.075192 5 
" clip-path="url(#p11cf316284)" style="fill: none; stroke-dasharray: 2.96,1.28; stroke-dashoffset: 0; stroke: var(--grid-color); stroke-width: 0.8"/>
     </g>
     <g id="line2d_6">
      <g>
       <use xlink:href="#m02c918c5ef" x="183.075192" y="103.4" style="fill: var(--fg-color); stroke: var(--fg-color); stroke-width: 0.8"/>
      </g>
     </g>
     <g id="text_3">
      <text style="font-size: 7px; font-family: 'DejaVu Sans', 'Bitstream Vera Sans', 'Computer Modern Sans Serif', 'Lucida Grande', 'Verdana', 'Geneva', 'Lucid', 'Arial', 'Helvetica', 'Avant Garde', sans-serif; text-anchor: middle; fill: var(--fg-color)" x="183.075192" y="115.718359" transform="rotate(-0 183.075192 115.718359)">06/2026</text>
     </g>
    </g>
   </g>
   <g id="matplotlib.axis_2">
    <g id="ytick_1">
     <g id="line2d_7">
      <path d="M 35.96 102.045358 
L 211 102.045358 
" clip-path="url(#p11cf316284)" style="fill: none; stroke-dasharray: 2.96,1.28; stroke-dashoffset: 0; stroke: var(--grid-color); stroke-width: 0.8"/>
     </g>
     <g id="line2d_8">
      <defs>
       <path id="m075d50b157" d="M 0 0 
L -3.5 0 
" style="stroke: var(--fg-color); stroke-width: 0.8"/>
      </defs>
      <g>
       <use xlink:href="#m075d50b157" x="35.96" y="102.045358" style="fill: var(--fg-color); stroke: var(--fg-color); stroke-width: 0.8"/>
      </g>
     </g>
     <g id="text_4">
      <text style="font-size: 7px; font-family: 'DejaVu Sans', 'Bitstream Vera Sans', 'Computer Modern Sans Serif', 'Lucida Grande', 'Verdana', 'Geneva', 'Lucid', 'Arial', 'Helvetica', 'Avant Garde', sans-serif; text-anchor: end; fill: var(--fg-color)" x="28.96" y="104.704537" transform="rotate(-0 28.96 104.704537)">20</text>
     </g>
    </g>
    <g id="ytick_2">
     <g id="line2d_9">
      <path d="M 35.96 86.949328 
L 211 86.949328 
" clip-path="url(#p11cf316284)" style="fill: none; stroke-dasharray: 2.96,1.28; stroke-dashoffset: 0; stroke: var(--grid-color); stroke-width: 0.8"/>
     </g>
     <g id="line2d_10">
      <g>
       <use xlink:href="#m075d50b157" x="35.96" y="86.949328" style="fill: var(--fg-color); stroke: var(--fg-color); stroke-width: 0.8"/>
      </g>
     </g>
     <g id="text_5">
      <text style="font-size: 7px; font-family: 'DejaVu Sans', 'Bitstream Vera Sans', 'Computer Modern Sans Serif', 'Lucida Grande', 'Verdana', 'Geneva', 'Lucid', 'Arial', 'Helvetica', 'Avant Garde', sans-serif; text-anchor: end; fill: var(--fg-color)" x="28.96" y="89.608507" transform="rotate(-0 28.96 89.608507)">40</text>
     </g>
    </g>
    <g id="ytick_3">
     <g id="line2d_11">
      <path d="M 35.96 71.853298 
L 211 71.853298 
" clip-path="url(#p11cf316284)" style="fill: none; stroke-dasharray: 2.96,1.28; stroke-dashoffset: 0; stroke: var(--grid-color); stroke-width: 0.8"/>
     </g>
     <g id="line2d_12">
      <g>
       <use xlink:href="#m075d50b157" x="35.96" y="71.853298" style="fill: var(--fg-color); stroke: var(--fg-color); stroke-width: 0.8"/>
      </g>
     </g>
     <g id="text_6">
      <text style="font-size: 7px; font-family: 'DejaVu Sans', 'Bitstream Vera Sans', 'Computer Modern Sans Serif', 'Lucida Grande', 'Verdana', 'Geneva', 'Lucid', 'Arial', 'Helvetica', 'Avant Garde', sans-serif; text-anchor: end; fill: var(--fg-color)" x="28.96" y="74.512477" transform="rotate(-0 28.96 74.512477)">60</text>
     </g>
    </g>
    <g id="ytick_4">
     <g id="line2d_13">
      <path d="M 35.96 56.757267 
L 211 56.757267 
" clip-path="url(#p11cf316284)" style="fill: none; stroke-dasharray: 2.96,1.28; stroke-dashoffset: 0; stroke: var(--grid-color); stroke-width: 0.8"/>
     </g>
     <g id="line2d_14">
      <g>
       <use xlink:href="#m075d50b157" x="35.96" y="56.757267" style="fill: var(--fg-color); stroke: var(--fg-color); stroke-width: 0.8"/>
      </g>
     </g>
     <g id="text_7">
      <text style="font-size: 7px; font-family: 'DejaVu Sans', 'Bitstream Vera Sans', 'Computer Modern Sans Serif', 'Lucida Grande', 'Verdana', 'Geneva', 'Lucid', 'Arial', 'Helvetica', 'Avant Garde', sans-serif; text-anchor: end; fill: var(--fg-color)" x="28.96" y="59.416447" transform="rotate(-0 28.96 59.416447)">80</text>
     </g>
    </g>
    <g id="ytick_5">
     <g id="line2d_15">
      <path d="M 35.96 41.661237 
L 211 41.661237 
" clip-path="url(#p11cf316284)" style="fill: none; stroke-dasharray: 2.96,1.28; stroke-dashoffset: 0; stroke: var(--grid-color); stroke-width: 0.8"/>
     </g>
     <g id="line2d_16">
      <g>
       <use xlink:href="#m075d50b157" x="35.96" y="41.661237" style="fill: var(--fg-color); stroke: var(--fg-color); stroke-width: 0.8"/>
      </g>
     </g>
     <g id="text_8">
      <text style="font-size: 7px; font-family: 'DejaVu Sans', 'Bitstream Vera Sans', 'Computer Modern Sans Serif', 'Lucida Grande', 'Verdana', 'Geneva', 'Lucid', 'Arial', 'Helvetica', 'Avant Garde', sans-serif; text-anchor: end; fill: var(--fg-color)" x="28.96" y="44.320417" transform="rotate(-0 28.96 44.320417)">100</text>
     </g>
    </g>
    <g id="ytick_6">
     <g id="line2d_17">
      <path d="M 35.96 26.565207 
L 211 26.565207 
" clip-path="url(#p11cf316284)" style="fill: none; stroke-dasharray: 2.96,1.28; stroke-dashoffset: 0; stroke: var(--grid-color); stroke-width: 0.8"/>
     </g>
     <g id="line2d_18">
      <g>
       <use xlink:href="#m075d50b157" x="35.96" y="26.565207" style="fill: var(--fg-color); stroke: var(--fg-color); stroke-width: 0.8"/>
      </g>
     </g>
     <g id="text_9">
      <text style="font-size: 7px; font-family: 'DejaVu Sans', 'Bitstream Vera Sans', 'Computer Modern Sans Serif', 'Lucida Grande', 'Verdana', 'Geneva', 'Lucid', 'Arial', 'Helvetica', 'Avant Garde', sans-serif; text-anchor: end; fill: var(--fg-color)" x="28.96" y="29.224387" transform="rotate(-0 28.96 29.224387)">120</text>
     </g>
    </g>
    <g id="ytick_7">
     <g id="line2d_19">
      <path d="M 35.96 11.469177 
L 211 11.469177 
" clip-path="url(#p11cf316284)" style="fill: none; stroke-dasharray: 2.96,1.28; stroke-dashoffset: 0; stroke: var(--grid-color); stroke-width: 0.8"/>
     </g>
     <g id="line2d_20">
      <g>
       <use xlink:href="#m075d50b157" x="35.96" y="11.469177" style="fill: var(--fg-color); stroke: var(--fg-color); stroke-width: 0.8"/>
      </g>
     </g>
     <g id="text_10">
      <text style="font-size: 7px; font-family: 'DejaVu Sans', 'Bitstream Vera Sans', 'Computer Modern Sans Serif', 'Lucida Grande', 'Verdana', 'Geneva', 'Lucid', 'Arial', 'Helvetica', 'Avant Garde', sans-serif; text-anchor: end; fill: var(--fg-color)" x="28.96" y="14.128357" transform="rotate(-0 28.96 14.128357)">140</text>
     </g>
    </g>
    <g id="text_11">
     <text style="font-size: 7px; font-family: 'DejaVu Sans', 'Bitstream Vera Sans', 'Computer Modern Sans Serif', 'Lucida Grande', 'Verdana', 'Geneva', 'Lucid', 'Arial', 'Helvetica', 'Avant Garde', sans-serif; text-anchor: middle; fill: var(--fg-color)" x="9.917109" y="54.2" transform="rotate(-90 9.917109 54.2)">ms</text>
    </g>
   </g>
   <g id="line2d_21">
    <path d="M 43.916364 25.234492 
L 45.193108 21.812977 
L 45.766628 24.568757 
L 46.691788 26.761456 
L 47.616947 21.620503 
L 48.542109 25.337145 
L 49.467263 23.763384 
L 50.392418 28.20841 
L 51.317566 22.362473 
L 52.242732 16.422185 
L 53.167891 24.669901 
L 54.093049 18.838304 
L 55.018206 23.383719 
L 55.943359 20.79324 
L 56.868517 21.89676 
L 57.793676 25.199771 
L 58.718827 23.15275 
L 59.643987 24.964273 
L 60.569143 24.568757 
L 61.494301 27.46946 
L 62.419457 25.085796 
L 63.344613 12.362107 
L 64.269773 20.059573 
L 65.194924 23.307484 
L 66.120079 25.813425 
L 67.045243 24.961254 
L 67.970398 22.418328 
L 68.895557 23.325599 
L 69.82071 22.481731 
L 70.74585 20.257331 
L 71.671025 25.12882 
L 72.596178 19.792373 
L 73.521341 24.962009 
L 74.446495 21.440105 
L 75.371653 22.881021 
L 76.296805 22.588913 
L 77.221971 19.586313 
L 78.147114 22.353415 
L 79.072277 22.04923 
L 79.997435 22.187359 
L 80.922594 24.391379 
L 81.847735 21.576724 
L 82.772905 19.454977 
L 83.698046 20.016549 
L 84.623219 23.03953 
L 85.548376 26.162143 
L 86.473535 21.951861 
L 87.398688 23.536944 
L 88.323852 21.711079 
L 97.76512 19.675379 
L 98.500856 26.916945 
L 99.426031 19.741047 
L 100.351186 16.414637 
L 101.276348 20.961561 
L 102.201502 15.493779 
L 103.126656 20.136563 
L 104.051812 25.072965 
L 104.976967 20.87023 
L 105.902123 17.075088 
L 106.827282 20.373571 
L 107.752435 17.813284 
L 108.677594 24.181544 
L 109.602753 22.585894 
L 110.527909 16.619943 
L 111.453063 21.020435 
L 112.378223 18.179363 
L 113.303377 22.300579 
L 114.228537 21.395572 
L 115.153695 22.320204 
L 116.078848 23.807917 
L 117.004011 19.571971 
L 117.929158 17.298509 
L 118.854316 22.14358 
L 119.779481 18.900953 
L 120.704637 17.168683 
L 121.629794 21.381231 
L 122.554943 19.427804 
L 123.480104 16.029688 
L 124.405261 16.581448 
L 125.330416 15.990438 
L 126.255574 19.023986 
L 129.9562 17.923485 
L 130.881363 15.753431 
L 131.806516 17.58005 
L 132.731673 20.27922 
L 133.656831 19.073048 
L 134.581987 16.016856 
L 135.507147 21.385759 
L 136.432285 18.212574 
L 137.357455 10.657766 
L 138.282617 13.431661 
L 139.20777 18.516759 
L 140.13293 13.172764 
L 141.058084 17.633641 
L 141.983242 11.017051 
L 142.908395 19.460261 
L 143.833556 10.159597 
L 144.758724 10.606439 
L 145.683869 9.472727 
L 146.609028 13.048977 
L 147.534182 13.167481 
L 148.459339 14.620474 
L 149.384497 14.800871 
L 150.309651 17.593637 
L 151.234811 16.183667 
L 152.159963 10.770986 
L 179.91473 10.770986 
L 188.548948 15.077883 
L 189.166282 21.650695 
L 190.091439 18.974169 
L 191.016594 18.032931 
L 191.94175 27.249812 
L 192.866913 19.565933 
L 193.792066 18.028402 
L 194.717222 21.557854 
L 195.642377 14.538955 
L 196.567536 15.683989 
L 197.492695 13.117664 
L 198.417852 16.185177 
L 199.343013 13.059544 
L 200.268162 21.28839 
L 201.193322 16.876575 
L 202.118478 17.567219 
L 203.043636 16.521064 
" clip-path="url(#p11cf316284)" style="fill: none; stroke: #339af0; stroke-width: 1.2; stroke-linecap: square"/>
   </g>
   <g id="line2d_22">
    <path d="M 43.916364 85.368019 
L 45.193108 87.196148 
L 45.766628 84.245629 
L 46.691788 84.251667 
L 47.616947 86.007335 
L 48.542109 82.123882 
L 49.467263 87.518448 
L 50.392418 81.554007 
L 51.317566 82.54959 
L 52.242732 81.544949 
L 53.167891 85.918269 
L 54.093049 86.023941 
L 55.018206 84.622275 
L 55.943359 81.957071 
L 56.868517 84.291672 
L 57.793676 84.122596 
L 58.718827 87.07387 
L 59.643987 85.468407 
L 60.569143 83.167017 
L 61.494301 84.312051 
L 62.419457 81.096597 
L 63.344613 87.982651 
L 64.269773 86.278309 
L 65.194924 83.848603 
L 66.120079 83.6516 
L 67.045243 86.35228 
L 67.970398 82.511095 
L 68.895557 82.158603 
L 69.82071 82.978317 
L 70.74585 82.160112 
L 71.671025 88.11927 
L 72.596178 83.795767 
L 73.521341 86.138671 
L 74.446495 79.577181 
L 75.371653 86.288122 
L 76.296805 83.588951 
L 77.221971 81.562309 
L 78.147114 88.077756 
L 79.072277 83.757272 
L 79.997435 80.34406 
L 80.922594 86.395303 
L 81.847735 83.84181 
L 82.772905 81.824225 
L 83.698046 85.413307 
L 84.623219 80.639187 
L 85.548376 84.523396 
L 86.473535 85.162712 
L 87.398688 85.082704 
L 88.323852 85.443499 
L 97.76512 84.421497 
L 98.500856 80.371987 
L 99.426031 81.855172 
L 100.351186 86.098666 
L 101.276348 84.908344 
L 102.201502 87.499578 
L 103.126656 94.077673 
L 104.051812 97.52938 
L 104.976967 94.636981 
L 105.902123 98.927273 
L 106.827282 93.923694 
L 107.752435 94.870215 
L 108.677594 94.589428 
L 109.602753 92.958302 
L 110.527909 97.161792 
L 111.453063 94.744163 
L 112.378223 93.229276 
L 113.303377 93.975775 
L 114.228537 93.125868 
L 115.153695 95.083069 
L 116.078848 93.126623 
L 117.004011 96.571537 
L 117.929158 94.062577 
L 118.854316 97.019889 
L 119.779481 92.73941 
L 120.704637 94.384877 
L 121.629794 94.241465 
L 122.554943 93.024725 
L 123.480104 94.206744 
L 124.405261 93.039821 
L 125.330416 92.493345 
L 126.255574 97.715816 
L 129.9562 92.941697 
L 130.881363 94.787186 
L 131.806516 92.133304 
L 132.731673 96.299054 
L 133.656831 94.963055 
L 134.581987 95.865798 
L 135.507147 94.633962 
L 136.432285 94.164475 
L 137.357455 97.974713 
L 138.282617 94.388651 
L 139.20777 94.778884 
L 140.13293 93.039066 
L 141.058084 94.920032 
L 141.983242 95.536704 
L 142.908395 91.617775 
L 143.833556 94.880782 
L 144.758724 95.178174 
L 145.683869 94.396954 
L 146.609028 91.016198 
L 147.534182 97.79507 
L 148.459339 94.760768 
L 149.384497 90.708239 
L 150.309651 92.934904 
L 151.234811 89.50886 
L 152.159963 95.911841 
L 179.91473 95.911841 
L 188.548948 93.518365 
L 189.166282 84.037303 
L 190.091439 91.770245 
L 191.016594 92.733372 
L 191.94175 79.186949 
L 192.866913 93.742541 
L 193.792066 91.974796 
L 194.717222 90.154215 
L 195.642377 90.891656 
L 196.567536 93.245127 
L 197.492695 82.917178 
L 198.417852 88.982008 
L 199.343013 92.147646 
L 200.268162 90.923358 
L 201.193322 90.301401 
L 202.118478 95.676343 
L 203.043636 91.851009 
" clip-path="url(#p11cf316284)" style="fill: none; stroke: #ff6b6b; stroke-width: 1.2; stroke-linecap: square"/>
   </g>
   <g id="patch_3">
    <path d="M 35.96 103.4 
L 35.96 5 
" style="fill: none; stroke: var(--fg-color); stroke-width: 0.8; stroke-linejoin: miter; stroke-linecap: square"/>
   </g>
   <g id="patch_4">
    <path d="M 35.96 103.4 
L 211 103.4 
" style="fill: none; stroke: var(--fg-color); stroke-width: 0.8; stroke-linejoin: miter; stroke-linecap: square"/>
   </g>
  </g>
 </g>
 <defs>
  <clipPath id="p11cf316284">
   <rect x="35.96" y="5" width="175.04" height="98.4"/>
  </clipPath>
 </defs>
</svg>
