<?xml version="1.0" encoding="utf-8" standalone="no"?>
<!DOCTYPE svg PUBLIC "-//W3C//DTD SVG 1.1//EN"
  "http://www.w3.org/Graphics/SVG/1.1/DTD/svg11.dtd">
<svg xmlns:xlink="http://www.w3.org/1999/xlink" width="216pt" height="122.4pt" viewBox="0 0 216 122.4" xmlns="http://www.w3.org/2000/svg" version="1.1">
  <style>
    :root {
      --fg-color: #212529;
      --grid-color: rgba(33, 37, 41, 0.1);
    }
    @media (prefers-color-scheme: dark) {
      :root {
        --fg-color: #dee2e6;
        --grid-color: rgba(248, 249, 250, 0.15);
      }
    }
  </style>

 <metadata>
  <rdf:RDF xmlns:dc="http://purl.org/dc/elements/1.1/" xmlns:cc="http://creativecommons.org/ns#" xmlns:rdf="http://www.w3.org/1999/02/22-rdf-syntax-ns#">
   <cc:Work>
    <dc:type rdf:resource="http://purl.org/dc/dcmitype/StillImage"/>
    <dc:date>2026-06-30T15:37:23.546297</dc:date>
    <dc:format>image/svg+xml</dc:format>
    <dc:creator>
     <cc:Agent>
      <dc:title>Matplotlib v3.11.0, https://matplotlib.org/</dc:title>
     </cc:Agent>
    </dc:creator>
   </cc:Work>
  </rdf:RDF>
 </metadata>
 <defs>
  <style type="text/css">*{stroke-linejoin: round; stroke-linecap: butt}</style>
 </defs>
 <g id="figure_1">
  <g id="patch_1">
   <path d="M 0 122.4 
L 216 122.4 
L 216 0 
L 0 0 
L 0 122.4 
z
" style="fill: none; opacity: 0"/>
  </g>
  <g id="axes_1">
   <g id="patch_2">
    <path d="M 35.96 103.4 
L 211 103.4 
L 211 5 
L 35.96 5 
L 35.96 103.4 
z
" style="fill: none; opacity: 0"/>
   </g>
   <g id="matplotlib.axis_1">
    <g id="xtick_1">
     <g id="line2d_1">
      <path d="M 69.784035 103.4 
L 69.784035 5 
" clip-path="url(#p0f663f3cf8)" style="fill: none; stroke-dasharray: 2.96,1.28; stroke-dashoffset: 0; stroke: var(--grid-color); stroke-width: 0.8"/>
     </g>
     <g id="line2d_2">
      <defs>
       <path id="m07b46cd778" d="M 0 0 
L 0 3.5 
" style="stroke: var(--fg-color); stroke-width: 0.8"/>
      </defs>
      <g>
       <use xlink:href="#m07b46cd778" x="69.784035" y="103.4" style="fill: var(--fg-color); stroke: var(--fg-color); stroke-width: 0.8"/>
      </g>
     </g>
     <g id="text_1">
      <text style="font-size: 7px; font-family: 'DejaVu Sans', 'Bitstream Vera Sans', 'Computer Modern Sans Serif', 'Lucida Grande', 'Verdana', 'Geneva', 'Lucid', 'Arial', 'Helvetica', 'Avant Garde', sans-serif; text-anchor: middle; fill: var(--fg-color)" x="69.784035" y="115.718359" transform="rotate(-0 69.784035 115.718359)">02/2026</text>
     </g>
    </g>
    <g id="xtick_2">
     <g id="line2d_3">
      <path d="M 122.345302 103.4 
L 122.345302 5 
" clip-path="url(#p0f663f3cf8)" style="fill: none; stroke-dasharray: 2.96,1.28; stroke-dashoffset: 0; stroke: var(--grid-color); stroke-width: 0.8"/>
     </g>
     <g id="line2d_4">
      <g>
       <use xlink:href="#m07b46cd778" x="122.345302" y="103.4" style="fill: var(--fg-color); stroke: var(--fg-color); stroke-width: 0.8"/>
      </g>
     </g>
     <g id="text_2">
      <text style="font-size: 7px; font-family: 'DejaVu Sans', 'Bitstream Vera Sans', 'Computer Modern Sans Serif', 'Lucida Grande', 'Verdana', 'Geneva', 'Lucid', 'Arial', 'Helvetica', 'Avant Garde', sans-serif; text-anchor: middle; fill: var(--fg-color)" x="122.345302" y="115.718359" transform="rotate(-0 122.345302 115.718359)">04/2026</text>
     </g>
    </g>
    <g id="xtick_3">
     <g id="line2d_5">
      <path d="M 176.688307 103.4 
L 176.688307 5 
" clip-path="url(#p0f663f3cf8)" style="fill: none; stroke-dasharray: 2.96,1.28; stroke-dashoffset: 0; stroke: var(--grid-color); stroke-width: 0.8"/>
     </g>
     <g id="line2d_6">
      <g>
       <use xlink:href="#m07b46cd778" x="176.688307" y="103.4" style="fill: var(--fg-color); stroke: var(--fg-color); stroke-width: 0.8"/>
      </g>
     </g>
     <g id="text_3">
      <text style="font-size: 7px; font-family: 'DejaVu Sans', 'Bitstream Vera Sans', 'Computer Modern Sans Serif', 'Lucida Grande', 'Verdana', 'Geneva', 'Lucid', 'Arial', 'Helvetica', 'Avant Garde', sans-serif; text-anchor: middle; fill: var(--fg-color)" x="176.688307" y="115.718359" transform="rotate(-0 176.688307 115.718359)">06/2026</text>
     </g>
    </g>
   </g>
   <g id="matplotlib.axis_2">
    <g id="ytick_1">
     <g id="line2d_7">
      <path d="M 35.96 101.75434 
L 211 101.75434 
" clip-path="url(#p0f663f3cf8)" style="fill: none; stroke-dasharray: 2.96,1.28; stroke-dashoffset: 0; stroke: var(--grid-color); stroke-width: 0.8"/>
     </g>
     <g id="line2d_8">
      <defs>
       <path id="mbca382aabc" d="M 0 0 
L -3.5 0 
" style="stroke: var(--fg-color); stroke-width: 0.8"/>
      </defs>
      <g>
       <use xlink:href="#mbca382aabc" x="35.96" y="101.75434" style="fill: var(--fg-color); stroke: var(--fg-color); stroke-width: 0.8"/>
      </g>
     </g>
     <g id="text_4">
      <text style="font-size: 7px; font-family: 'DejaVu Sans', 'Bitstream Vera Sans', 'Computer Modern Sans Serif', 'Lucida Grande', 'Verdana', 'Geneva', 'Lucid', 'Arial', 'Helvetica', 'Avant Garde', sans-serif; text-anchor: end; fill: var(--fg-color)" x="28.96" y="104.41352" transform="rotate(-0 28.96 104.41352)">0</text>
     </g>
    </g>
    <g id="ytick_2">
     <g id="line2d_9">
      <path d="M 35.96 84.823767 
L 211 84.823767 
" clip-path="url(#p0f663f3cf8)" style="fill: none; stroke-dasharray: 2.96,1.28; stroke-dashoffset: 0; stroke: var(--grid-color); stroke-width: 0.8"/>
     </g>
     <g id="line2d_10">
      <g>
       <use xlink:href="#mbca382aabc" x="35.96" y="84.823767" style="fill: var(--fg-color); stroke: var(--fg-color); stroke-width: 0.8"/>
      </g>
     </g>
     <g id="text_5">
      <text style="font-size: 7px; font-family: 'DejaVu Sans', 'Bitstream Vera Sans', 'Computer Modern Sans Serif', 'Lucida Grande', 'Verdana', 'Geneva', 'Lucid', 'Arial', 'Helvetica', 'Avant Garde', sans-serif; text-anchor: end; fill: var(--fg-color)" x="28.96" y="87.482946" transform="rotate(-0 28.96 87.482946)">100</text>
     </g>
    </g>
    <g id="ytick_3">
     <g id="line2d_11">
      <path d="M 35.96 67.893194 
L 211 67.893194 
" clip-path="url(#p0f663f3cf8)" style="fill: none; stroke-dasharray: 2.96,1.28; stroke-dashoffset: 0; stroke: var(--grid-color); stroke-width: 0.8"/>
     </g>
     <g id="line2d_12">
      <g>
       <use xlink:href="#mbca382aabc" x="35.96" y="67.893194" style="fill: var(--fg-color); stroke: var(--fg-color); stroke-width: 0.8"/>
      </g>
     </g>
     <g id="text_6">
      <text style="font-size: 7px; font-family: 'DejaVu Sans', 'Bitstream Vera Sans', 'Computer Modern Sans Serif', 'Lucida Grande', 'Verdana', 'Geneva', 'Lucid', 'Arial', 'Helvetica', 'Avant Garde', sans-serif; text-anchor: end; fill: var(--fg-color)" x="28.96" y="70.552373" transform="rotate(-0 28.96 70.552373)">200</text>
     </g>
    </g>
    <g id="ytick_4">
     <g id="line2d_13">
      <path d="M 35.96 50.96262 
L 211 50.96262 
" clip-path="url(#p0f663f3cf8)" style="fill: none; stroke-dasharray: 2.96,1.28; stroke-dashoffset: 0; stroke: var(--grid-color); stroke-width: 0.8"/>
     </g>
     <g id="line2d_14">
      <g>
       <use xlink:href="#mbca382aabc" x="35.96" y="50.96262" style="fill: var(--fg-color); stroke: var(--fg-color); stroke-width: 0.8"/>
      </g>
     </g>
     <g id="text_7">
      <text style="font-size: 7px; font-family: 'DejaVu Sans', 'Bitstream Vera Sans', 'Computer Modern Sans Serif', 'Lucida Grande', 'Verdana', 'Geneva', 'Lucid', 'Arial', 'Helvetica', 'Avant Garde', sans-serif; text-anchor: end; fill: var(--fg-color)" x="28.96" y="53.6218" transform="rotate(-0 28.96 53.6218)">300</text>
     </g>
    </g>
    <g id="ytick_5">
     <g id="line2d_15">
      <path d="M 35.96 34.032047 
L 211 34.032047 
" clip-path="url(#p0f663f3cf8)" style="fill: none; stroke-dasharray: 2.96,1.28; stroke-dashoffset: 0; stroke: var(--grid-color); stroke-width: 0.8"/>
     </g>
     <g id="line2d_16">
      <g>
       <use xlink:href="#mbca382aabc" x="35.96" y="34.032047" style="fill: var(--fg-color); stroke: var(--fg-color); stroke-width: 0.8"/>
      </g>
     </g>
     <g id="text_8">
      <text style="font-size: 7px; font-family: 'DejaVu Sans', 'Bitstream Vera Sans', 'Computer Modern Sans Serif', 'Lucida Grande', 'Verdana', 'Geneva', 'Lucid', 'Arial', 'Helvetica', 'Avant Garde', sans-serif; text-anchor: end; fill: var(--fg-color)" x="28.96" y="36.691227" transform="rotate(-0 28.96 36.691227)">400</text>
     </g>
    </g>
    <g id="ytick_6">
     <g id="line2d_17">
      <path d="M 35.96 17.101474 
L 211 17.101474 
" clip-path="url(#p0f663f3cf8)" style="fill: none; stroke-dasharray: 2.96,1.28; stroke-dashoffset: 0; stroke: var(--grid-color); stroke-width: 0.8"/>
     </g>
     <g id="line2d_18">
      <g>
       <use xlink:href="#mbca382aabc" x="35.96" y="17.101474" style="fill: var(--fg-color); stroke: var(--fg-color); stroke-width: 0.8"/>
      </g>
     </g>
     <g id="text_9">
      <text style="font-size: 7px; font-family: 'DejaVu Sans', 'Bitstream Vera Sans', 'Computer Modern Sans Serif', 'Lucida Grande', 'Verdana', 'Geneva', 'Lucid', 'Arial', 'Helvetica', 'Avant Garde', sans-serif; text-anchor: end; fill: var(--fg-color)" x="28.96" y="19.760654" transform="rotate(-0 28.96 19.760654)">500</text>
     </g>
    </g>
    <g id="text_10">
     <text style="font-size: 7px; font-family: 'DejaVu Sans', 'Bitstream Vera Sans', 'Computer Modern Sans Serif', 'Lucida Grande', 'Verdana', 'Geneva', 'Lucid', 'Arial', 'Helvetica', 'Avant Garde', sans-serif; text-anchor: middle; fill: var(--fg-color)" x="9.917109" y="54.2" transform="rotate(-90 9.917109 54.2)">ms</text>
    </g>
   </g>
   <g id="line2d_19">
    <path d="M 43.916364 55.929543 
L 44.468628 54.836844 
L 45.3595 52.362948 
L 46.250371 53.622752 
L 47.141245 49.087221 
L 48.032112 53.324774 
L 48.922979 55.13516 
L 49.81384 50.324676 
L 50.704717 50.097468 
L 51.595589 49.021192 
L 52.486458 45.606972 
L 53.377327 51.31156 
L 54.268192 38.121289 
L 55.159063 56.31539 
L 56.049934 52.22361 
L 56.940797 45.634061 
L 57.831669 51.39198 
L 58.722538 51.40654 
L 59.613407 50.096622 
L 60.504275 49.549426 
L 61.395144 53.532004 
L 62.286016 49.399421 
L 63.176879 50.830731 
L 64.067746 55.221675 
L 64.958622 45.329819 
L 65.84949 49.188296 
L 67.631226 53.949681 
L 68.522078 49.534527 
L 69.412965 49.257204 
L 70.30383 52.434564 
L 71.194705 44.69306 
L 72.085571 49.725842 
L 72.976442 52.469441 
L 73.867306 50.240193 
L 74.758184 53.888393 
L 75.649039 49.972013 
L 76.539914 49.985557 
L 77.430784 51.173745 
L 78.321655 50.437265 
L 79.212509 52.182807 
L 80.103391 44.404055 
L 80.994245 53.258237 
L 81.885129 49.923253 
L 82.775998 51.557899 
L 83.666869 49.639327 
L 84.557735 37.937084 
L 85.44861 50.510574 
L 94.53997 52.404597 
L 95.248438 53.397575 
L 96.139324 51.149365 
L 97.030192 52.153517 
L 97.921065 47.704162 
L 98.811931 54.382596 
L 100.593666 47.221133 
L 101.484533 52.707824 
L 102.375401 47.578368 
L 103.266272 52.437104 
L 104.157138 48.523771 
L 105.048009 54.138965 
L 105.93888 50.482131 
L 106.829748 51.393165 
L 107.720614 46.866776 
L 108.611487 52.161305 
L 109.502352 46.197849 
L 110.393224 53.051345 
L 111.284094 45.297651 
L 112.17496 49.414827 
L 113.065834 50.059882 
L 113.956695 49.671326 
L 114.847564 50.871534 
L 115.738441 47.823354 
L 116.629309 47.611721 
L 117.520178 52.76725 
L 118.41104 49.210983 
L 119.301913 52.133878 
L 120.192782 45.362833 
L 121.083649 48.395099 
L 121.97452 49.520305 
L 125.537994 52.117963 
L 126.428869 50.230373 
L 127.319734 53.393174 
L 128.210603 46.937715 
L 129.101474 44.363083 
L 129.992342 51.870438 
L 130.883214 53.758197 
L 131.774065 45.074336 
L 132.664946 49.596154 
L 133.55582 50.600983 
L 134.446686 47.376217 
L 135.337558 49.288017 
L 136.228424 47.909361 
L 137.119294 43.903418 
L 138.010159 49.574483 
L 138.901032 48.330424 
L 139.791912 50.554594 
L 140.68277 46.426412 
L 141.57364 46.615357 
L 142.464507 45.601385 
L 143.355376 38.852351 
L 144.246246 49.821161 
L 145.137113 48.76791 
L 146.027984 49.204719 
L 146.918849 48.211064 
L 173.644977 48.211064 
L 181.959197 9.472727 
L 182.553652 52.116608 
L 183.444521 49.242644 
L 184.335387 50.623332 
L 185.226256 46.470262 
L 186.117131 46.313316 
L 187.007996 53.248586 
L 187.898864 51.86248 
L 188.789731 49.611899 
L 189.680603 44.363083 
L 190.571474 48.72152 
L 191.462343 56.558175 
L 192.353215 45.272255 
L 193.244077 51.247562 
L 194.134949 45.297143 
L 195.025817 52.033987 
L 195.916688 48.885408 
L 196.807557 52.99158 
L 197.698426 50.57745 
L 198.589295 53.279061 
L 199.480162 53.368286 
L 200.371032 54.039583 
L 201.261898 49.671156 
L 202.152766 54.578314 
L 203.043636 47.642535 
L 203.043636 47.642535 
" clip-path="url(#p0f663f3cf8)" style="fill: none; stroke: #339af0; stroke-width: 1.2; stroke-linecap: square"/>
   </g>
   <g id="line2d_20">
    <path d="M 43.916364 97.990335 
L 44.468628 98.409028 
L 45.3595 97.706409 
L 46.250371 97.410632 
L 47.141245 97.329365 
L 48.032112 98.643347 
L 48.922979 97.030202 
L 49.81384 96.851246 
L 50.704717 98.284927 
L 51.595589 97.077946 
L 52.486458 98.508241 
L 53.377327 97.49884 
L 54.268192 96.761345 
L 55.159063 97.668315 
L 56.049934 96.710553 
L 56.940797 97.463625 
L 57.831669 96.343837 
L 58.722538 98.022334 
L 59.613407 97.738239 
L 60.504275 97.231676 
L 61.395144 98.48657 
L 62.286016 98.17437 
L 63.176879 96.674491 
L 64.067746 98.277139 
L 64.958622 98.470317 
L 65.84949 95.433141 
L 66.740361 97.521866 
L 67.631226 98.648257 
L 68.522078 96.67212 
L 69.412965 97.355608 
L 70.30383 96.950798 
L 71.194705 96.724436 
L 72.085571 98.243108 
L 72.976442 95.567062 
L 73.867306 96.308452 
L 74.758184 98.006927 
L 75.649039 98.875127 
L 76.539914 95.968486 
L 77.430784 96.20145 
L 78.321655 98.284419 
L 79.212509 97.603641 
L 80.103391 97.599408 
L 80.994245 97.872159 
L 81.885129 98.826536 
L 82.775998 96.400723 
L 83.666869 98.363654 
L 84.557735 96.931327 
L 85.44861 96.690913 
L 94.53997 97.927353 
L 95.248438 98.586291 
L 96.139324 98.661801 
L 97.030192 97.164123 
L 97.921065 97.47463 
L 98.811931 96.505354 
L 99.702798 95.073028 
L 100.593666 96.518729 
L 101.484533 96.72833 
L 102.375401 95.758716 
L 103.266272 96.577478 
L 104.157138 95.89433 
L 105.048009 97.242342 
L 106.829748 96.419686 
L 107.720614 97.785475 
L 108.611487 97.271971 
L 109.502352 96.407326 
L 110.393224 96.459303 
L 111.284094 95.067779 
L 112.17496 98.927273 
L 113.065834 97.41842 
L 113.956695 97.60855 
L 114.847564 96.104608 
L 115.738441 95.343409 
L 116.629309 96.940978 
L 117.520178 95.88705 
L 118.41104 96.192139 
L 119.301913 97.283991 
L 120.192782 97.110453 
L 121.083649 96.707336 
L 121.97452 95.542851 
L 125.537994 95.594659 
L 126.428869 98.743407 
L 127.319734 97.34528 
L 128.210603 95.340192 
L 129.101474 95.772768 
L 129.992342 96.600843 
L 130.883214 98.41343 
L 131.774065 96.353487 
L 132.664946 96.48944 
L 133.55582 96.286103 
L 134.446686 96.228201 
L 135.337558 98.041973 
L 136.228424 97.516109 
L 137.119294 97.905513 
L 138.010159 95.13093 
L 138.901032 97.302276 
L 139.791912 97.41351 
L 140.68277 96.364153 
L 141.57364 98.267658 
L 142.464507 97.196122 
L 143.355376 97.077946 
L 144.246246 96.271035 
L 145.137113 96.210932 
L 146.027984 94.485875 
L 146.918849 95.268068 
L 173.644977 95.268068 
L 181.959197 97.556574 
L 182.553652 96.84295 
L 183.444521 98.156085 
L 184.335387 97.675934 
L 185.226256 97.558097 
L 186.117131 94.805017 
L 187.898864 98.044851 
L 188.789731 96.842103 
L 189.680603 95.008522 
L 190.571474 95.245212 
L 191.462343 98.00117 
L 192.353215 98.033846 
L 193.244077 97.677458 
L 194.134949 97.767528 
L 195.025817 96.688882 
L 195.916688 97.69168 
L 196.807557 95.161744 
L 197.698426 97.894169 
L 198.589295 97.03308 
L 199.480162 97.067111 
L 200.371032 97.468196 
L 201.261898 96.318949 
L 202.152766 96.713092 
L 203.043636 95.988125 
L 203.043636 95.988125 
" clip-path="url(#p0f663f3cf8)" style="fill: none; stroke: #ff6b6b; stroke-width: 1.2; stroke-linecap: square"/>
   </g>
   <g id="patch_3">
    <path d="M 35.96 103.4 
L 35.96 5 
" style="fill: none; stroke: var(--fg-color); stroke-width: 0.8; stroke-linejoin: miter; stroke-linecap: square"/>
   </g>
   <g id="patch_4">
    <path d="M 35.96 103.4 
L 211 103.4 
" style="fill: none; stroke: var(--fg-color); stroke-width: 0.8; stroke-linejoin: miter; stroke-linecap: square"/>
   </g>
  </g>
 </g>
 <defs>
  <clipPath id="p0f663f3cf8">
   <rect x="35.96" y="5" width="175.04" height="98.4"/>
  </clipPath>
 </defs>
</svg>
