<?xml version="1.0" encoding="utf-8" standalone="no"?>
<!DOCTYPE svg PUBLIC "-//W3C//DTD SVG 1.1//EN"
  "http://www.w3.org/Graphics/SVG/1.1/DTD/svg11.dtd">
<svg xmlns:xlink="http://www.w3.org/1999/xlink" width="216pt" height="122.4pt" viewBox="0 0 216 122.4" xmlns="http://www.w3.org/2000/svg" version="1.1">
  <style>
    :root {
      --fg-color: #212529;
      --grid-color: rgba(33, 37, 41, 0.1);
    }
    @media (prefers-color-scheme: dark) {
      :root {
        --fg-color: #dee2e6;
        --grid-color: rgba(248, 249, 250, 0.15);
      }
    }
  </style>

 <metadata>
  <rdf:RDF xmlns:dc="http://purl.org/dc/elements/1.1/" xmlns:cc="http://creativecommons.org/ns#" xmlns:rdf="http://www.w3.org/1999/02/22-rdf-syntax-ns#">
   <cc:Work>
    <dc:type rdf:resource="http://purl.org/dc/dcmitype/StillImage"/>
    <dc:date>2026-06-30T15:37:36.198066</dc:date>
    <dc:format>image/svg+xml</dc:format>
    <dc:creator>
     <cc:Agent>
      <dc:title>Matplotlib v3.11.0, https://matplotlib.org/</dc:title>
     </cc:Agent>
    </dc:creator>
   </cc:Work>
  </rdf:RDF>
 </metadata>
 <defs>
  <style type="text/css">*{stroke-linejoin: round; stroke-linecap: butt}</style>
 </defs>
 <g id="figure_1">
  <g id="patch_1">
   <path d="M 0 122.4 
L 216 122.4 
L 216 0 
L 0 0 
L 0 122.4 
z
" style="fill: none; opacity: 0"/>
  </g>
  <g id="axes_1">
   <g id="patch_2">
    <path d="M 35.96 103.4 
L 211 103.4 
L 211 5 
L 35.96 5 
L 35.96 103.4 
z
" style="fill: none; opacity: 0"/>
   </g>
   <g id="matplotlib.axis_1">
    <g id="xtick_1">
     <g id="line2d_1">
      <path d="M 69.784035 103.4 
L 69.784035 5 
" clip-path="url(#p6bfe1de89d)" style="fill: none; stroke-dasharray: 2.96,1.28; stroke-dashoffset: 0; stroke: var(--grid-color); stroke-width: 0.8"/>
     </g>
     <g id="line2d_2">
      <defs>
       <path id="m0d0e6d3d57" d="M 0 0 
L 0 3.5 
" style="stroke: var(--fg-color); stroke-width: 0.8"/>
      </defs>
      <g>
       <use xlink:href="#m0d0e6d3d57" x="69.784035" y="103.4" style="fill: var(--fg-color); stroke: var(--fg-color); stroke-width: 0.8"/>
      </g>
     </g>
     <g id="text_1">
      <text style="font-size: 7px; font-family: 'DejaVu Sans', 'Bitstream Vera Sans', 'Computer Modern Sans Serif', 'Lucida Grande', 'Verdana', 'Geneva', 'Lucid', 'Arial', 'Helvetica', 'Avant Garde', sans-serif; text-anchor: middle; fill: var(--fg-color)" x="69.784035" y="115.718359" transform="rotate(-0 69.784035 115.718359)">02/2026</text>
     </g>
    </g>
    <g id="xtick_2">
     <g id="line2d_3">
      <path d="M 122.345302 103.4 
L 122.345302 5 
" clip-path="url(#p6bfe1de89d)" style="fill: none; stroke-dasharray: 2.96,1.28; stroke-dashoffset: 0; stroke: var(--grid-color); stroke-width: 0.8"/>
     </g>
     <g id="line2d_4">
      <g>
       <use xlink:href="#m0d0e6d3d57" x="122.345302" y="103.4" style="fill: var(--fg-color); stroke: var(--fg-color); stroke-width: 0.8"/>
      </g>
     </g>
     <g id="text_2">
      <text style="font-size: 7px; font-family: 'DejaVu Sans', 'Bitstream Vera Sans', 'Computer Modern Sans Serif', 'Lucida Grande', 'Verdana', 'Geneva', 'Lucid', 'Arial', 'Helvetica', 'Avant Garde', sans-serif; text-anchor: middle; fill: var(--fg-color)" x="122.345302" y="115.718359" transform="rotate(-0 122.345302 115.718359)">04/2026</text>
     </g>
    </g>
    <g id="xtick_3">
     <g id="line2d_5">
      <path d="M 176.688307 103.4 
L 176.688307 5 
" clip-path="url(#p6bfe1de89d)" style="fill: none; stroke-dasharray: 2.96,1.28; stroke-dashoffset: 0; stroke: var(--grid-color); stroke-width: 0.8"/>
     </g>
     <g id="line2d_6">
      <g>
       <use xlink:href="#m0d0e6d3d57" x="176.688307" y="103.4" style="fill: var(--fg-color); stroke: var(--fg-color); stroke-width: 0.8"/>
      </g>
     </g>
     <g id="text_3">
      <text style="font-size: 7px; font-family: 'DejaVu Sans', 'Bitstream Vera Sans', 'Computer Modern Sans Serif', 'Lucida Grande', 'Verdana', 'Geneva', 'Lucid', 'Arial', 'Helvetica', 'Avant Garde', sans-serif; text-anchor: middle; fill: var(--fg-color)" x="176.688307" y="115.718359" transform="rotate(-0 176.688307 115.718359)">06/2026</text>
     </g>
    </g>
   </g>
   <g id="matplotlib.axis_2">
    <g id="ytick_1">
     <g id="line2d_7">
      <path d="M 35.96 102.304737 
L 211 102.304737 
" clip-path="url(#p6bfe1de89d)" style="fill: none; stroke-dasharray: 2.96,1.28; stroke-dashoffset: 0; stroke: var(--grid-color); stroke-width: 0.8"/>
     </g>
     <g id="line2d_8">
      <defs>
       <path id="m8784ee6265" d="M 0 0 
L -3.5 0 
" style="stroke: var(--fg-color); stroke-width: 0.8"/>
      </defs>
      <g>
       <use xlink:href="#m8784ee6265" x="35.96" y="102.304737" style="fill: var(--fg-color); stroke: var(--fg-color); stroke-width: 0.8"/>
      </g>
     </g>
     <g id="text_4">
      <text style="font-size: 7px; font-family: 'DejaVu Sans', 'Bitstream Vera Sans', 'Computer Modern Sans Serif', 'Lucida Grande', 'Verdana', 'Geneva', 'Lucid', 'Arial', 'Helvetica', 'Avant Garde', sans-serif; text-anchor: end; fill: var(--fg-color)" x="28.96" y="104.963917" transform="rotate(-0 28.96 104.963917)">0</text>
     </g>
    </g>
    <g id="ytick_2">
     <g id="line2d_9">
      <path d="M 35.96 75.930658 
L 211 75.930658 
" clip-path="url(#p6bfe1de89d)" style="fill: none; stroke-dasharray: 2.96,1.28; stroke-dashoffset: 0; stroke: var(--grid-color); stroke-width: 0.8"/>
     </g>
     <g id="line2d_10">
      <g>
       <use xlink:href="#m8784ee6265" x="35.96" y="75.930658" style="fill: var(--fg-color); stroke: var(--fg-color); stroke-width: 0.8"/>
      </g>
     </g>
     <g id="text_5">
      <text style="font-size: 7px; font-family: 'DejaVu Sans', 'Bitstream Vera Sans', 'Computer Modern Sans Serif', 'Lucida Grande', 'Verdana', 'Geneva', 'Lucid', 'Arial', 'Helvetica', 'Avant Garde', sans-serif; text-anchor: end; fill: var(--fg-color)" x="28.96" y="78.589838" transform="rotate(-0 28.96 78.589838)">50</text>
     </g>
    </g>
    <g id="ytick_3">
     <g id="line2d_11">
      <path d="M 35.96 49.55658 
L 211 49.55658 
" clip-path="url(#p6bfe1de89d)" style="fill: none; stroke-dasharray: 2.96,1.28; stroke-dashoffset: 0; stroke: var(--grid-color); stroke-width: 0.8"/>
     </g>
     <g id="line2d_12">
      <g>
       <use xlink:href="#m8784ee6265" x="35.96" y="49.55658" style="fill: var(--fg-color); stroke: var(--fg-color); stroke-width: 0.8"/>
      </g>
     </g>
     <g id="text_6">
      <text style="font-size: 7px; font-family: 'DejaVu Sans', 'Bitstream Vera Sans', 'Computer Modern Sans Serif', 'Lucida Grande', 'Verdana', 'Geneva', 'Lucid', 'Arial', 'Helvetica', 'Avant Garde', sans-serif; text-anchor: end; fill: var(--fg-color)" x="28.96" y="52.215759" transform="rotate(-0 28.96 52.215759)">100</text>
     </g>
    </g>
    <g id="ytick_4">
     <g id="line2d_13">
      <path d="M 35.96 23.182501 
L 211 23.182501 
" clip-path="url(#p6bfe1de89d)" style="fill: none; stroke-dasharray: 2.96,1.28; stroke-dashoffset: 0; stroke: var(--grid-color); stroke-width: 0.8"/>
     </g>
     <g id="line2d_14">
      <g>
       <use xlink:href="#m8784ee6265" x="35.96" y="23.182501" style="fill: var(--fg-color); stroke: var(--fg-color); stroke-width: 0.8"/>
      </g>
     </g>
     <g id="text_7">
      <text style="font-size: 7px; font-family: 'DejaVu Sans', 'Bitstream Vera Sans', 'Computer Modern Sans Serif', 'Lucida Grande', 'Verdana', 'Geneva', 'Lucid', 'Arial', 'Helvetica', 'Avant Garde', sans-serif; text-anchor: end; fill: var(--fg-color)" x="28.96" y="25.841681" transform="rotate(-0 28.96 25.841681)">150</text>
     </g>
    </g>
    <g id="text_8">
     <text style="font-size: 7px; font-family: 'DejaVu Sans', 'Bitstream Vera Sans', 'Computer Modern Sans Serif', 'Lucida Grande', 'Verdana', 'Geneva', 'Lucid', 'Arial', 'Helvetica', 'Avant Garde', sans-serif; text-anchor: middle; fill: var(--fg-color)" x="9.917109" y="54.2" transform="rotate(-90 9.917109 54.2)">ms</text>
    </g>
   </g>
   <g id="line2d_15">
    <path d="M 43.916364 22.191891 
L 44.468628 24.168364 
L 45.3595 22.990498 
L 46.250371 19.689518 
L 47.141245 18.567037 
L 48.032112 21.801027 
L 48.922979 15.994509 
L 49.81384 24.610921 
L 50.704717 22.132285 
L 51.595589 21.00031 
L 52.486458 21.315744 
L 53.377327 19.901566 
L 54.268192 19.798179 
L 55.159063 20.176911 
L 56.049934 16.334735 
L 56.940797 13.002634 
L 57.831669 24.400456 
L 58.722538 18.487387 
L 59.613407 24.156232 
L 60.504275 20.365749 
L 61.395144 21.700805 
L 62.286016 15.164781 
L 63.176879 28.957369 
L 64.067746 27.825921 
L 64.958622 21.702388 
L 65.84949 26.812102 
L 66.740361 24.768111 
L 67.631226 26.885949 
L 68.522078 22.847023 
L 69.412965 19.418392 
L 70.30383 25.129963 
L 71.194705 24.166254 
L 72.085571 26.753024 
L 72.976442 33.36606 
L 73.867306 29.65048 
L 74.758184 30.58043 
L 75.649039 29.280188 
L 76.539914 30.692256 
L 77.430784 29.093459 
L 78.321655 18.649852 
L 79.212509 27.572203 
L 80.103391 26.091034 
L 81.885129 30.686981 
L 82.775998 31.243474 
L 83.666869 24.255926 
L 84.557735 31.126373 
L 85.44861 28.803345 
L 94.53997 18.828668 
L 95.248438 21.69342 
L 96.139324 23.759566 
L 97.030192 16.364274 
L 97.921065 29.406256 
L 98.811931 33.857673 
L 99.702798 24.19843 
L 100.593666 34.920021 
L 101.484533 30.491286 
L 102.375401 25.033434 
L 103.266272 30.128378 
L 104.157138 26.129013 
L 105.048009 32.812732 
L 105.93888 27.567455 
L 106.829748 32.135973 
L 107.720614 33.499513 
L 108.611487 32.704071 
L 110.393224 24.734879 
L 111.284094 29.515445 
L 112.17496 24.715362 
L 113.065834 31.255606 
L 113.956695 33.350236 
L 114.847564 23.9848 
L 115.738441 26.264048 
L 116.629309 32.380725 
L 117.520178 28.953677 
L 118.41104 23.613981 
L 119.301913 26.973511 
L 120.192782 22.384949 
L 121.083649 29.213198 
L 121.97452 24.134078 
L 125.537994 24.295487 
L 126.428869 26.792057 
L 127.319734 19.248016 
L 128.210603 19.419975 
L 129.101474 21.964018 
L 129.992342 13.303826 
L 130.883214 21.558385 
L 131.774065 28.409316 
L 132.664946 28.898819 
L 133.55582 25.628433 
L 134.446686 26.240312 
L 135.337558 27.345386 
L 136.228424 23.607651 
L 137.119294 11.133239 
L 138.010159 27.544774 
L 138.901032 25.412693 
L 139.791912 18.483695 
L 140.68277 17.016241 
L 141.57364 21.107388 
L 142.464507 19.41681 
L 143.355376 20.756086 
L 144.246246 26.587922 
L 145.137113 13.714207 
L 146.027984 22.144945 
L 146.918849 17.870761 
L 173.644977 17.870761 
L 181.959197 21.971931 
L 182.553652 27.212988 
L 183.444521 19.92794 
L 184.335387 17.187145 
L 185.226256 15.83943 
L 186.117131 17.559547 
L 187.007996 22.091142 
L 187.898864 24.217947 
L 188.789731 21.120575 
L 189.680603 17.25519 
L 190.571474 14.926887 
L 191.462343 19.298127 
L 192.353215 15.670108 
L 193.244077 10.987127 
L 194.134949 17.9905 
L 195.025817 18.632972 
L 195.916688 9.472727 
L 196.807557 20.477575 
L 198.589295 18.361319 
L 199.480162 10.376303 
L 200.371032 21.219742 
L 201.261898 24.339268 
L 202.152766 24.792902 
L 203.043636 23.175116 
L 203.043636 23.175116 
" clip-path="url(#p6bfe1de89d)" style="fill: none; stroke: #339af0; stroke-width: 1.2; stroke-linecap: square"/>
   </g>
   <g id="line2d_16">
    <path d="M 43.916364 96.655937 
L 45.3595 96.104191 
L 46.250371 96.3558 
L 47.141245 97.093219 
L 48.032112 95.788757 
L 49.81384 98.313812 
L 50.704717 93.944154 
L 51.595589 95.700668 
L 52.486458 97.916091 
L 53.377327 94.868829 
L 54.268192 96.151137 
L 55.159063 95.366245 
L 56.049934 95.316134 
L 56.940797 95.728097 
L 57.831669 96.588947 
L 58.722538 95.330376 
L 59.613407 97.258849 
L 60.504275 95.806164 
L 61.395144 96.605299 
L 62.286016 93.724194 
L 63.176879 95.331431 
L 64.067746 96.391669 
L 64.958622 95.43851 
L 65.84949 98.738434 
L 66.740361 97.654987 
L 67.631226 97.037306 
L 68.522078 98.507925 
L 69.412965 96.757214 
L 70.30383 97.478808 
L 71.194705 96.227095 
L 72.085571 96.7013 
L 72.976442 96.959239 
L 73.867306 97.954069 
L 74.758184 97.459819 
L 75.649039 96.424373 
L 76.539914 98.927273 
L 77.430784 96.916513 
L 78.321655 96.498748 
L 79.212509 96.656992 
L 80.103391 98.261063 
L 80.994245 97.055241 
L 81.885129 98.537991 
L 82.775998 98.279525 
L 83.666869 94.672606 
L 84.557735 97.879694 
L 85.44861 96.689696 
L 94.53997 96.759323 
L 95.248438 96.112631 
L 96.139324 96.315711 
L 97.030192 97.021482 
L 97.921065 96.4249 
L 98.811931 97.516787 
L 99.702798 96.765126 
L 100.593666 98.383967 
L 101.484533 96.816819 
L 102.375401 95.634733 
L 103.266272 98.180886 
L 104.157138 95.664799 
L 105.048009 98.888767 
L 105.93888 96.614793 
L 106.829748 97.107989 
L 107.720614 98.443045 
L 108.611487 96.368987 
L 109.502352 95.79034 
L 110.393224 96.729784 
L 111.284094 98.246821 
L 112.17496 97.052603 
L 113.065834 97.730417 
L 113.956695 96.326789 
L 114.847564 97.008822 
L 115.738441 96.600024 
L 116.629309 97.589579 
L 117.520178 96.443362 
L 118.41104 92.940357 
L 119.301913 96.607409 
L 120.192782 97.415511 
L 121.97452 96.948689 
L 125.537994 94.452647 
L 126.428869 96.43123 
L 127.319734 97.01146 
L 128.210603 98.024224 
L 129.101474 96.272458 
L 129.992342 96.102609 
L 130.883214 98.615004 
L 131.774065 95.79667 
L 132.664946 97.213485 
L 133.55582 96.047223 
L 134.446686 97.173396 
L 135.337558 96.593694 
L 136.228424 97.090582 
L 137.119294 95.379959 
L 138.010159 96.301469 
L 138.901032 95.733899 
L 139.791912 98.434605 
L 140.68277 96.740334 
L 141.57364 96.700773 
L 142.464507 94.234269 
L 143.355376 95.184263 
L 144.246246 94.484823 
L 145.137113 95.479126 
L 146.027984 95.455916 
L 146.918849 97.261486 
L 173.644977 97.261486 
L 181.959197 96.258216 
L 182.553652 96.576287 
L 184.335387 94.678409 
L 185.226256 95.824626 
L 186.117131 94.781795 
L 187.007996 96.14217 
L 187.898864 95.253364 
L 188.789731 96.742444 
L 190.571474 94.764388 
L 191.462343 94.874104 
L 192.353215 96.14428 
L 193.244077 95.426378 
L 194.134949 96.29092 
L 195.025817 96.568903 
L 195.916688 93.698348 
L 196.807557 95.087207 
L 197.698426 96.888029 
L 198.589295 96.243446 
L 199.480162 93.800679 
L 200.371032 94.259588 
L 201.261898 95.400003 
L 202.152766 96.261381 
L 203.043636 96.766181 
L 203.043636 96.766181 
" clip-path="url(#p6bfe1de89d)" style="fill: none; stroke: #ff6b6b; stroke-width: 1.2; stroke-linecap: square"/>
   </g>
   <g id="patch_3">
    <path d="M 35.96 103.4 
L 35.96 5 
" style="fill: none; stroke: var(--fg-color); stroke-width: 0.8; stroke-linejoin: miter; stroke-linecap: square"/>
   </g>
   <g id="patch_4">
    <path d="M 35.96 103.4 
L 211 103.4 
" style="fill: none; stroke: var(--fg-color); stroke-width: 0.8; stroke-linejoin: miter; stroke-linecap: square"/>
   </g>
  </g>
 </g>
 <defs>
  <clipPath id="p6bfe1de89d">
   <rect x="35.96" y="5" width="175.04" height="98.4"/>
  </clipPath>
 </defs>
</svg>
