<?xml version="1.0" encoding="utf-8" standalone="no"?>
<!DOCTYPE svg PUBLIC "-//W3C//DTD SVG 1.1//EN"
  "http://www.w3.org/Graphics/SVG/1.1/DTD/svg11.dtd">
<svg xmlns:xlink="http://www.w3.org/1999/xlink" width="216pt" height="122.4pt" viewBox="0 0 216 122.4" xmlns="http://www.w3.org/2000/svg" version="1.1">
  <style>
    :root {
      --fg-color: #212529;
      --grid-color: rgba(33, 37, 41, 0.1);
    }
    @media (prefers-color-scheme: dark) {
      :root {
        --fg-color: #dee2e6;
        --grid-color: rgba(248, 249, 250, 0.15);
      }
    }
  </style>

 <metadata>
  <rdf:RDF xmlns:dc="http://purl.org/dc/elements/1.1/" xmlns:cc="http://creativecommons.org/ns#" xmlns:rdf="http://www.w3.org/1999/02/22-rdf-syntax-ns#">
   <cc:Work>
    <dc:type rdf:resource="http://purl.org/dc/dcmitype/StillImage"/>
    <dc:date>2026-06-30T04:48:56.038411</dc:date>
    <dc:format>image/svg+xml</dc:format>
    <dc:creator>
     <cc:Agent>
      <dc:title>Matplotlib v3.11.0, https://matplotlib.org/</dc:title>
     </cc:Agent>
    </dc:creator>
   </cc:Work>
  </rdf:RDF>
 </metadata>
 <defs>
  <style type="text/css">*{stroke-linejoin: round; stroke-linecap: butt}</style>
 </defs>
 <g id="figure_1">
  <g id="patch_1">
   <path d="M 0 122.4 
L 216 122.4 
L 216 0 
L 0 0 
L 0 122.4 
z
" style="fill: none; opacity: 0"/>
  </g>
  <g id="axes_1">
   <g id="patch_2">
    <path d="M 35.96 103.4 
L 211 103.4 
L 211 5 
L 35.96 5 
L 35.96 103.4 
z
" style="fill: none; opacity: 0"/>
   </g>
   <g id="matplotlib.axis_1">
    <g id="xtick_1">
     <g id="line2d_1">
      <path d="M 72.056377 103.4 
L 72.056377 5 
" clip-path="url(#p63cb934745)" style="fill: none; stroke-dasharray: 2.96,1.28; stroke-dashoffset: 0; stroke: var(--grid-color); stroke-width: 0.8"/>
     </g>
     <g id="line2d_2">
      <defs>
       <path id="m535e160c5c" d="M 0 0 
L 0 3.5 
" style="stroke: var(--fg-color); stroke-width: 0.8"/>
      </defs>
      <g>
       <use xlink:href="#m535e160c5c" x="72.056377" y="103.4" style="fill: var(--fg-color); stroke: var(--fg-color); stroke-width: 0.8"/>
      </g>
     </g>
     <g id="text_1">
      <text style="font-size: 7px; font-family: 'DejaVu Sans', 'Bitstream Vera Sans', 'Computer Modern Sans Serif', 'Lucida Grande', 'Verdana', 'Geneva', 'Lucid', 'Arial', 'Helvetica', 'Avant Garde', sans-serif; text-anchor: middle; fill: var(--fg-color)" x="72.056377" y="115.718359" transform="rotate(-0 72.056377 115.718359)">02/2026</text>
     </g>
    </g>
    <g id="xtick_2">
     <g id="line2d_3">
      <path d="M 126.640628 103.4 
L 126.640628 5 
" clip-path="url(#p63cb934745)" style="fill: none; stroke-dasharray: 2.96,1.28; stroke-dashoffset: 0; stroke: var(--grid-color); stroke-width: 0.8"/>
     </g>
     <g id="line2d_4">
      <g>
       <use xlink:href="#m535e160c5c" x="126.640628" y="103.4" style="fill: var(--fg-color); stroke: var(--fg-color); stroke-width: 0.8"/>
      </g>
     </g>
     <g id="text_2">
      <text style="font-size: 7px; font-family: 'DejaVu Sans', 'Bitstream Vera Sans', 'Computer Modern Sans Serif', 'Lucida Grande', 'Verdana', 'Geneva', 'Lucid', 'Arial', 'Helvetica', 'Avant Garde', sans-serif; text-anchor: middle; fill: var(--fg-color)" x="126.640628" y="115.718359" transform="rotate(-0 126.640628 115.718359)">04/2026</text>
     </g>
    </g>
    <g id="xtick_3">
     <g id="line2d_5">
      <path d="M 183.075192 103.4 
L 183.075192 5 
" clip-path="url(#p63cb934745)" style="fill: none; stroke-dasharray: 2.96,1.28; stroke-dashoffset: 0; stroke: var(--grid-color); stroke-width: 0.8"/>
     </g>
     <g id="line2d_6">
      <g>
       <use xlink:href="#m535e160c5c" x="183.075192" y="103.4" style="fill: var(--fg-color); stroke: var(--fg-color); stroke-width: 0.8"/>
      </g>
     </g>
     <g id="text_3">
      <text style="font-size: 7px; font-family: 'DejaVu Sans', 'Bitstream Vera Sans', 'Computer Modern Sans Serif', 'Lucida Grande', 'Verdana', 'Geneva', 'Lucid', 'Arial', 'Helvetica', 'Avant Garde', sans-serif; text-anchor: middle; fill: var(--fg-color)" x="183.075192" y="115.718359" transform="rotate(-0 183.075192 115.718359)">06/2026</text>
     </g>
    </g>
   </g>
   <g id="matplotlib.axis_2">
    <g id="ytick_1">
     <g id="line2d_7">
      <path d="M 35.96 100.178655 
L 211 100.178655 
" clip-path="url(#p63cb934745)" style="fill: none; stroke-dasharray: 2.96,1.28; stroke-dashoffset: 0; stroke: var(--grid-color); stroke-width: 0.8"/>
     </g>
     <g id="line2d_8">
      <defs>
       <path id="m4171f21fca" d="M 0 0 
L -3.5 0 
" style="stroke: var(--fg-color); stroke-width: 0.8"/>
      </defs>
      <g>
       <use xlink:href="#m4171f21fca" x="35.96" y="100.178655" style="fill: var(--fg-color); stroke: var(--fg-color); stroke-width: 0.8"/>
      </g>
     </g>
     <g id="text_4">
      <text style="font-size: 7px; font-family: 'DejaVu Sans', 'Bitstream Vera Sans', 'Computer Modern Sans Serif', 'Lucida Grande', 'Verdana', 'Geneva', 'Lucid', 'Arial', 'Helvetica', 'Avant Garde', sans-serif; text-anchor: end; fill: var(--fg-color)" x="28.96" y="102.837835" transform="rotate(-0 28.96 102.837835)">0</text>
     </g>
    </g>
    <g id="ytick_2">
     <g id="line2d_9">
      <path d="M 35.96 77.192201 
L 211 77.192201 
" clip-path="url(#p63cb934745)" style="fill: none; stroke-dasharray: 2.96,1.28; stroke-dashoffset: 0; stroke: var(--grid-color); stroke-width: 0.8"/>
     </g>
     <g id="line2d_10">
      <g>
       <use xlink:href="#m4171f21fca" x="35.96" y="77.192201" style="fill: var(--fg-color); stroke: var(--fg-color); stroke-width: 0.8"/>
      </g>
     </g>
     <g id="text_5">
      <text style="font-size: 7px; font-family: 'DejaVu Sans', 'Bitstream Vera Sans', 'Computer Modern Sans Serif', 'Lucida Grande', 'Verdana', 'Geneva', 'Lucid', 'Arial', 'Helvetica', 'Avant Garde', sans-serif; text-anchor: end; fill: var(--fg-color)" x="28.96" y="79.851381" transform="rotate(-0 28.96 79.851381)">50</text>
     </g>
    </g>
    <g id="ytick_3">
     <g id="line2d_11">
      <path d="M 35.96 54.205747 
L 211 54.205747 
" clip-path="url(#p63cb934745)" style="fill: none; stroke-dasharray: 2.96,1.28; stroke-dashoffset: 0; stroke: var(--grid-color); stroke-width: 0.8"/>
     </g>
     <g id="line2d_12">
      <g>
       <use xlink:href="#m4171f21fca" x="35.96" y="54.205747" style="fill: var(--fg-color); stroke: var(--fg-color); stroke-width: 0.8"/>
      </g>
     </g>
     <g id="text_6">
      <text style="font-size: 7px; font-family: 'DejaVu Sans', 'Bitstream Vera Sans', 'Computer Modern Sans Serif', 'Lucida Grande', 'Verdana', 'Geneva', 'Lucid', 'Arial', 'Helvetica', 'Avant Garde', sans-serif; text-anchor: end; fill: var(--fg-color)" x="28.96" y="56.864926" transform="rotate(-0 28.96 56.864926)">100</text>
     </g>
    </g>
    <g id="ytick_4">
     <g id="line2d_13">
      <path d="M 35.96 31.219292 
L 211 31.219292 
" clip-path="url(#p63cb934745)" style="fill: none; stroke-dasharray: 2.96,1.28; stroke-dashoffset: 0; stroke: var(--grid-color); stroke-width: 0.8"/>
     </g>
     <g id="line2d_14">
      <g>
       <use xlink:href="#m4171f21fca" x="35.96" y="31.219292" style="fill: var(--fg-color); stroke: var(--fg-color); stroke-width: 0.8"/>
      </g>
     </g>
     <g id="text_7">
      <text style="font-size: 7px; font-family: 'DejaVu Sans', 'Bitstream Vera Sans', 'Computer Modern Sans Serif', 'Lucida Grande', 'Verdana', 'Geneva', 'Lucid', 'Arial', 'Helvetica', 'Avant Garde', sans-serif; text-anchor: end; fill: var(--fg-color)" x="28.96" y="33.878472" transform="rotate(-0 28.96 33.878472)">150</text>
     </g>
    </g>
    <g id="ytick_5">
     <g id="line2d_15">
      <path d="M 35.96 8.232838 
L 211 8.232838 
" clip-path="url(#p63cb934745)" style="fill: none; stroke-dasharray: 2.96,1.28; stroke-dashoffset: 0; stroke: var(--grid-color); stroke-width: 0.8"/>
     </g>
     <g id="line2d_16">
      <g>
       <use xlink:href="#m4171f21fca" x="35.96" y="8.232838" style="fill: var(--fg-color); stroke: var(--fg-color); stroke-width: 0.8"/>
      </g>
     </g>
     <g id="text_8">
      <text style="font-size: 7px; font-family: 'DejaVu Sans', 'Bitstream Vera Sans', 'Computer Modern Sans Serif', 'Lucida Grande', 'Verdana', 'Geneva', 'Lucid', 'Arial', 'Helvetica', 'Avant Garde', sans-serif; text-anchor: end; fill: var(--fg-color)" x="28.96" y="10.892018" transform="rotate(-0 28.96 10.892018)">200</text>
     </g>
    </g>
    <g id="text_9">
     <text style="font-size: 7px; font-family: 'DejaVu Sans', 'Bitstream Vera Sans', 'Computer Modern Sans Serif', 'Lucida Grande', 'Verdana', 'Geneva', 'Lucid', 'Arial', 'Helvetica', 'Avant Garde', sans-serif; text-anchor: middle; fill: var(--fg-color)" x="9.917109" y="54.2" transform="rotate(-90 9.917109 54.2)">ms</text>
    </g>
   </g>
   <g id="line2d_17">
    <path d="M 43.916364 33.072 
L 45.193108 34.079267 
L 45.766628 29.89941 
L 46.691788 36.235856 
L 47.616947 35.471327 
L 48.542109 34.110069 
L 49.467263 31.173779 
L 50.392418 35.588558 
L 51.317566 29.229585 
L 52.242732 34.153283 
L 53.167891 35.118714 
L 54.093049 36.07725 
L 55.018206 26.349382 
L 55.943359 34.681972 
L 56.868517 27.828331 
L 57.793676 36.610076 
L 58.718827 32.944656 
L 59.643987 35.355475 
L 60.569143 34.699901 
L 61.494301 31.982902 
L 62.419457 34.381769 
L 63.344613 30.00055 
L 64.269773 34.046166 
L 65.194924 36.813736 
L 66.120079 36.130578 
L 67.045243 32.569976 
L 67.970398 32.981434 
L 68.895557 35.300767 
L 69.82071 35.464431 
L 70.74585 30.526021 
L 71.671025 26.394895 
L 72.596178 29.965611 
L 73.521341 33.019591 
L 74.446495 33.49725 
L 75.371653 36.403197 
L 76.296805 35.166526 
L 77.221971 36.692367 
L 78.147114 37.092791 
L 79.072277 36.711216 
L 79.997435 35.867153 
L 80.922594 32.197596 
L 81.847735 34.934823 
L 82.772905 35.018493 
L 83.698046 36.07679 
L 84.623219 35.378461 
L 85.548376 35.337086 
L 86.473535 35.199167 
L 87.398688 34.828166 
L 88.323852 33.309221 
L 97.76512 31.686837 
L 98.500856 32.214146 
L 99.426031 33.690336 
L 100.351186 32.989709 
L 101.276348 33.408522 
L 102.201502 35.571548 
L 103.126656 30.347186 
L 104.051812 39.47051 
L 104.976967 33.173141 
L 105.902123 33.573105 
L 106.827282 36.296081 
L 107.752435 33.878825 
L 108.677594 42.379216 
L 109.602753 34.458084 
L 110.527909 33.12303 
L 111.453063 32.822368 
L 112.378223 35.750842 
L 113.303377 36.204135 
L 114.228537 37.681704 
L 115.153695 33.054071 
L 116.078848 28.71239 
L 117.004011 37.649523 
L 117.929158 36.486868 
L 118.854316 30.579809 
L 119.779481 37.611825 
L 120.704637 35.422595 
L 121.629794 33.184634 
L 122.554943 35.184915 
L 123.480104 29.89895 
L 124.405261 34.872759 
L 125.330416 28.358398 
L 126.255574 28.571712 
L 129.9562 33.037981 
L 130.881363 33.504606 
L 131.806516 31.103441 
L 132.731673 28.877432 
L 133.656831 36.864306 
L 134.581987 27.67708 
L 135.507147 25.754493 
L 136.432285 30.074107 
L 137.357455 33.383237 
L 138.282617 32.456883 
L 139.20777 22.357554 
L 140.13293 29.817119 
L 141.058084 23.701343 
L 141.983242 21.272134 
L 142.908395 29.010754 
L 143.833556 32.058298 
L 144.758724 26.915309 
L 145.683869 31.411459 
L 146.609028 28.466894 
L 147.534182 24.546784 
L 148.459339 28.744571 
L 149.384497 30.878633 
L 150.309651 28.797899 
L 151.234811 27.08311 
L 152.159963 9.472727 
L 179.91473 9.472727 
L 188.548948 26.079061 
L 189.166282 31.384335 
L 190.091439 28.873754 
L 191.016594 19.991789 
L 191.94175 19.318285 
L 192.866913 24.453459 
L 193.792066 29.210736 
L 194.717222 28.808013 
L 195.642377 27.085408 
L 196.567536 26.415583 
L 197.492695 27.664667 
L 198.417852 30.702097 
L 199.343013 24.624938 
L 200.268162 24.665394 
L 201.193322 29.01673 
L 202.118478 27.282172 
L 203.043636 27.142415 
" clip-path="url(#p63cb934745)" style="fill: none; stroke: #339af0; stroke-width: 1.2; stroke-linecap: square"/>
   </g>
   <g id="line2d_18">
    <path d="M 43.916364 98.777861 
L 45.193108 98.651435 
L 45.766628 98.633506 
L 46.691788 98.783837 
L 47.616947 98.804985 
L 48.542109 98.472141 
L 49.467263 98.634425 
L 50.392418 98.868427 
L 51.317566 98.502943 
L 52.242732 98.708442 
L 53.167891 98.774183 
L 54.093049 98.74522 
L 55.018206 98.703385 
L 55.943359 98.633046 
L 56.868517 98.194924 
L 57.793676 98.496047 
L 58.718827 98.389849 
L 59.643987 98.794411 
L 60.569143 98.756254 
L 61.494301 98.404101 
L 62.419457 98.702465 
L 63.344613 98.500184 
L 64.269773 98.767747 
L 65.194924 98.804985 
L 66.120079 98.771425 
L 67.045243 98.382034 
L 67.970398 98.756254 
L 68.895557 98.761311 
L 69.82071 97.809671 
L 70.74585 98.618795 
L 71.671025 98.71074 
L 72.596178 98.738784 
L 73.521341 98.730968 
L 74.446495 98.617415 
L 75.371653 98.815099 
L 76.296805 98.789814 
L 77.221971 98.844062 
L 78.147114 98.859693 
L 79.072277 98.840844 
L 79.997435 98.784757 
L 80.922594 98.407319 
L 81.847735 98.82981 
L 82.772905 98.804065 
L 83.698046 98.747519 
L 84.623219 98.86337 
L 85.548376 98.76269 
L 86.473535 98.69465 
L 87.398688 98.792112 
L 88.323852 98.710281 
L 97.76512 98.138837 
L 98.500856 98.859693 
L 99.426031 98.876703 
L 100.351186 98.831189 
L 101.276348 98.471221 
L 102.201502 98.764529 
L 103.126656 98.500644 
L 104.051812 98.927273 
L 104.976967 98.781539 
L 105.902123 98.018848 
L 106.827282 98.818777 
L 107.752435 98.267561 
L 108.677594 98.417893 
L 109.602753 98.761311 
L 110.527909 97.984828 
L 111.453063 98.778321 
L 112.378223 98.777401 
L 113.303377 97.581186 
L 114.228537 98.714878 
L 115.153695 98.587073 
L 116.078848 98.747978 
L 117.004011 98.809122 
L 117.929158 98.838085 
L 118.854316 98.429846 
L 119.779481 98.451913 
L 120.704637 98.738324 
L 121.629794 98.776022 
L 122.554943 98.765448 
L 123.480104 98.758092 
L 124.405261 98.748898 
L 125.330416 98.547996 
L 126.255574 98.712579 
L 129.9562 98.742002 
L 130.881363 98.735106 
L 131.806516 98.730049 
L 132.731673 98.705683 
L 133.656831 98.804525 
L 134.581987 97.91449 
L 135.507147 96.518752 
L 136.432285 98.690053 
L 137.357455 98.667066 
L 138.282617 98.637643 
L 139.20777 98.336061 
L 140.13293 98.761311 
L 141.058084 98.747519 
L 141.983242 97.840013 
L 142.908395 98.655113 
L 143.833556 98.724532 
L 144.758724 98.653274 
L 145.683869 98.738324 
L 146.609028 98.570983 
L 147.534182 98.429386 
L 148.459339 98.783378 
L 149.384497 98.775102 
L 150.309651 98.773263 
L 151.234811 98.751196 
L 152.159963 98.294686 
L 179.91473 98.294686 
L 188.548948 98.74568 
L 189.166282 98.736945 
L 190.091439 98.766368 
L 191.016594 98.435363 
L 191.94175 98.635345 
L 192.866913 98.597187 
L 193.792066 98.196303 
L 194.717222 98.701546 
L 195.642377 98.738784 
L 196.567536 98.71074 
L 197.492695 98.326407 
L 198.417852 98.678559 
L 199.343013 98.604543 
L 200.268162 98.639023 
L 201.193322 98.462946 
L 202.118478 98.724992 
L 203.043636 98.502943 
" clip-path="url(#p63cb934745)" style="fill: none; stroke: #ff6b6b; stroke-width: 1.2; stroke-linecap: square"/>
   </g>
   <g id="patch_3">
    <path d="M 35.96 103.4 
L 35.96 5 
" style="fill: none; stroke: var(--fg-color); stroke-width: 0.8; stroke-linejoin: miter; stroke-linecap: square"/>
   </g>
   <g id="patch_4">
    <path d="M 35.96 103.4 
L 211 103.4 
" style="fill: none; stroke: var(--fg-color); stroke-width: 0.8; stroke-linejoin: miter; stroke-linecap: square"/>
   </g>
  </g>
 </g>
 <defs>
  <clipPath id="p63cb934745">
   <rect x="35.96" y="5" width="175.04" height="98.4"/>
  </clipPath>
 </defs>
</svg>
