<?xml version="1.0" encoding="utf-8" standalone="no"?>
<!DOCTYPE svg PUBLIC "-//W3C//DTD SVG 1.1//EN"
  "http://www.w3.org/Graphics/SVG/1.1/DTD/svg11.dtd">
<svg xmlns:xlink="http://www.w3.org/1999/xlink" width="216pt" height="122.4pt" viewBox="0 0 216 122.4" xmlns="http://www.w3.org/2000/svg" version="1.1">
  <style>
    :root {
      --fg-color: #212529;
      --grid-color: rgba(33, 37, 41, 0.1);
    }
    @media (prefers-color-scheme: dark) {
      :root {
        --fg-color: #dee2e6;
        --grid-color: rgba(248, 249, 250, 0.15);
      }
    }
  </style>

 <metadata>
  <rdf:RDF xmlns:dc="http://purl.org/dc/elements/1.1/" xmlns:cc="http://creativecommons.org/ns#" xmlns:rdf="http://www.w3.org/1999/02/22-rdf-syntax-ns#">
   <cc:Work>
    <dc:type rdf:resource="http://purl.org/dc/dcmitype/StillImage"/>
    <dc:date>2026-06-30T04:48:10.985288</dc:date>
    <dc:format>image/svg+xml</dc:format>
    <dc:creator>
     <cc:Agent>
      <dc:title>Matplotlib v3.11.0, https://matplotlib.org/</dc:title>
     </cc:Agent>
    </dc:creator>
   </cc:Work>
  </rdf:RDF>
 </metadata>
 <defs>
  <style type="text/css">*{stroke-linejoin: round; stroke-linecap: butt}</style>
 </defs>
 <g id="figure_1">
  <g id="patch_1">
   <path d="M 0 122.4 
L 216 122.4 
L 216 0 
L 0 0 
L 0 122.4 
z
" style="fill: none; opacity: 0"/>
  </g>
  <g id="axes_1">
   <g id="patch_2">
    <path d="M 35.96 103.4 
L 211 103.4 
L 211 5 
L 35.96 5 
L 35.96 103.4 
z
" style="fill: none; opacity: 0"/>
   </g>
   <g id="matplotlib.axis_1">
    <g id="xtick_1">
     <g id="line2d_1">
      <path d="M 72.056377 103.4 
L 72.056377 5 
" clip-path="url(#p28de4f2425)" style="fill: none; stroke-dasharray: 2.96,1.28; stroke-dashoffset: 0; stroke: var(--grid-color); stroke-width: 0.8"/>
     </g>
     <g id="line2d_2">
      <defs>
       <path id="m95216b97e8" d="M 0 0 
L 0 3.5 
" style="stroke: var(--fg-color); stroke-width: 0.8"/>
      </defs>
      <g>
       <use xlink:href="#m95216b97e8" x="72.056377" y="103.4" style="fill: var(--fg-color); stroke: var(--fg-color); stroke-width: 0.8"/>
      </g>
     </g>
     <g id="text_1">
      <text style="font-size: 7px; font-family: 'DejaVu Sans', 'Bitstream Vera Sans', 'Computer Modern Sans Serif', 'Lucida Grande', 'Verdana', 'Geneva', 'Lucid', 'Arial', 'Helvetica', 'Avant Garde', sans-serif; text-anchor: middle; fill: var(--fg-color)" x="72.056377" y="115.718359" transform="rotate(-0 72.056377 115.718359)">02/2026</text>
     </g>
    </g>
    <g id="xtick_2">
     <g id="line2d_3">
      <path d="M 126.640628 103.4 
L 126.640628 5 
" clip-path="url(#p28de4f2425)" style="fill: none; stroke-dasharray: 2.96,1.28; stroke-dashoffset: 0; stroke: var(--grid-color); stroke-width: 0.8"/>
     </g>
     <g id="line2d_4">
      <g>
       <use xlink:href="#m95216b97e8" x="126.640628" y="103.4" style="fill: var(--fg-color); stroke: var(--fg-color); stroke-width: 0.8"/>
      </g>
     </g>
     <g id="text_2">
      <text style="font-size: 7px; font-family: 'DejaVu Sans', 'Bitstream Vera Sans', 'Computer Modern Sans Serif', 'Lucida Grande', 'Verdana', 'Geneva', 'Lucid', 'Arial', 'Helvetica', 'Avant Garde', sans-serif; text-anchor: middle; fill: var(--fg-color)" x="126.640628" y="115.718359" transform="rotate(-0 126.640628 115.718359)">04/2026</text>
     </g>
    </g>
    <g id="xtick_3">
     <g id="line2d_5">
      <path d="M 183.075192 103.4 
L 183.075192 5 
" clip-path="url(#p28de4f2425)" style="fill: none; stroke-dasharray: 2.96,1.28; stroke-dashoffset: 0; stroke: var(--grid-color); stroke-width: 0.8"/>
     </g>
     <g id="line2d_6">
      <g>
       <use xlink:href="#m95216b97e8" x="183.075192" y="103.4" style="fill: var(--fg-color); stroke: var(--fg-color); stroke-width: 0.8"/>
      </g>
     </g>
     <g id="text_3">
      <text style="font-size: 7px; font-family: 'DejaVu Sans', 'Bitstream Vera Sans', 'Computer Modern Sans Serif', 'Lucida Grande', 'Verdana', 'Geneva', 'Lucid', 'Arial', 'Helvetica', 'Avant Garde', sans-serif; text-anchor: middle; fill: var(--fg-color)" x="183.075192" y="115.718359" transform="rotate(-0 183.075192 115.718359)">06/2026</text>
     </g>
    </g>
   </g>
   <g id="matplotlib.axis_2">
    <g id="ytick_1">
     <g id="line2d_7">
      <path d="M 35.96 91.990076 
L 211 91.990076 
" clip-path="url(#p28de4f2425)" style="fill: none; stroke-dasharray: 2.96,1.28; stroke-dashoffset: 0; stroke: var(--grid-color); stroke-width: 0.8"/>
     </g>
     <g id="line2d_8">
      <defs>
       <path id="m41cf491b5e" d="M 0 0 
L -3.5 0 
" style="stroke: var(--fg-color); stroke-width: 0.8"/>
      </defs>
      <g>
       <use xlink:href="#m41cf491b5e" x="35.96" y="91.990076" style="fill: var(--fg-color); stroke: var(--fg-color); stroke-width: 0.8"/>
      </g>
     </g>
     <g id="text_4">
      <text style="font-size: 7px; font-family: 'DejaVu Sans', 'Bitstream Vera Sans', 'Computer Modern Sans Serif', 'Lucida Grande', 'Verdana', 'Geneva', 'Lucid', 'Arial', 'Helvetica', 'Avant Garde', sans-serif; text-anchor: end; fill: var(--fg-color)" x="28.96" y="94.649256" transform="rotate(-0 28.96 94.649256)">100</text>
     </g>
    </g>
    <g id="ytick_2">
     <g id="line2d_9">
      <path d="M 35.96 74.07839 
L 211 74.07839 
" clip-path="url(#p28de4f2425)" style="fill: none; stroke-dasharray: 2.96,1.28; stroke-dashoffset: 0; stroke: var(--grid-color); stroke-width: 0.8"/>
     </g>
     <g id="line2d_10">
      <g>
       <use xlink:href="#m41cf491b5e" x="35.96" y="74.07839" style="fill: var(--fg-color); stroke: var(--fg-color); stroke-width: 0.8"/>
      </g>
     </g>
     <g id="text_5">
      <text style="font-size: 7px; font-family: 'DejaVu Sans', 'Bitstream Vera Sans', 'Computer Modern Sans Serif', 'Lucida Grande', 'Verdana', 'Geneva', 'Lucid', 'Arial', 'Helvetica', 'Avant Garde', sans-serif; text-anchor: end; fill: var(--fg-color)" x="28.96" y="76.73757" transform="rotate(-0 28.96 76.73757)">200</text>
     </g>
    </g>
    <g id="ytick_3">
     <g id="line2d_11">
      <path d="M 35.96 56.166703 
L 211 56.166703 
" clip-path="url(#p28de4f2425)" style="fill: none; stroke-dasharray: 2.96,1.28; stroke-dashoffset: 0; stroke: var(--grid-color); stroke-width: 0.8"/>
     </g>
     <g id="line2d_12">
      <g>
       <use xlink:href="#m41cf491b5e" x="35.96" y="56.166703" style="fill: var(--fg-color); stroke: var(--fg-color); stroke-width: 0.8"/>
      </g>
     </g>
     <g id="text_6">
      <text style="font-size: 7px; font-family: 'DejaVu Sans', 'Bitstream Vera Sans', 'Computer Modern Sans Serif', 'Lucida Grande', 'Verdana', 'Geneva', 'Lucid', 'Arial', 'Helvetica', 'Avant Garde', sans-serif; text-anchor: end; fill: var(--fg-color)" x="28.96" y="58.825883" transform="rotate(-0 28.96 58.825883)">300</text>
     </g>
    </g>
    <g id="ytick_4">
     <g id="line2d_13">
      <path d="M 35.96 38.255017 
L 211 38.255017 
" clip-path="url(#p28de4f2425)" style="fill: none; stroke-dasharray: 2.96,1.28; stroke-dashoffset: 0; stroke: var(--grid-color); stroke-width: 0.8"/>
     </g>
     <g id="line2d_14">
      <g>
       <use xlink:href="#m41cf491b5e" x="35.96" y="38.255017" style="fill: var(--fg-color); stroke: var(--fg-color); stroke-width: 0.8"/>
      </g>
     </g>
     <g id="text_7">
      <text style="font-size: 7px; font-family: 'DejaVu Sans', 'Bitstream Vera Sans', 'Computer Modern Sans Serif', 'Lucida Grande', 'Verdana', 'Geneva', 'Lucid', 'Arial', 'Helvetica', 'Avant Garde', sans-serif; text-anchor: end; fill: var(--fg-color)" x="28.96" y="40.914196" transform="rotate(-0 28.96 40.914196)">400</text>
     </g>
    </g>
    <g id="ytick_5">
     <g id="line2d_15">
      <path d="M 35.96 20.34333 
L 211 20.34333 
" clip-path="url(#p28de4f2425)" style="fill: none; stroke-dasharray: 2.96,1.28; stroke-dashoffset: 0; stroke: var(--grid-color); stroke-width: 0.8"/>
     </g>
     <g id="line2d_16">
      <g>
       <use xlink:href="#m41cf491b5e" x="35.96" y="20.34333" style="fill: var(--fg-color); stroke: var(--fg-color); stroke-width: 0.8"/>
      </g>
     </g>
     <g id="text_8">
      <text style="font-size: 7px; font-family: 'DejaVu Sans', 'Bitstream Vera Sans', 'Computer Modern Sans Serif', 'Lucida Grande', 'Verdana', 'Geneva', 'Lucid', 'Arial', 'Helvetica', 'Avant Garde', sans-serif; text-anchor: end; fill: var(--fg-color)" x="28.96" y="23.00251" transform="rotate(-0 28.96 23.00251)">500</text>
     </g>
    </g>
    <g id="text_9">
     <text style="font-size: 7px; font-family: 'DejaVu Sans', 'Bitstream Vera Sans', 'Computer Modern Sans Serif', 'Lucida Grande', 'Verdana', 'Geneva', 'Lucid', 'Arial', 'Helvetica', 'Avant Garde', sans-serif; text-anchor: middle; fill: var(--fg-color)" x="9.917109" y="54.2" transform="rotate(-90 9.917109 54.2)">ms</text>
    </g>
   </g>
   <g id="line2d_17">
    <path d="M 43.916364 24.11786 
L 45.193108 20.628842 
L 45.766628 25.941807 
L 46.691788 26.464649 
L 47.616947 21.913289 
L 48.542109 26.99985 
L 49.467263 24.968844 
L 50.392418 24.204194 
L 51.317566 21.111562 
L 52.242732 25.502612 
L 53.167891 25.435085 
L 54.093049 25.243251 
L 55.018206 18.890692 
L 55.943359 18.874392 
L 56.868517 29.702724 
L 57.793676 19.871178 
L 58.718827 27.552784 
L 59.643987 26.08707 
L 60.569143 26.467873 
L 61.494301 26.572835 
L 62.419457 25.299673 
L 63.344613 23.013783 
L 64.269773 23.531789 
L 65.194924 24.247003 
L 66.120079 25.624232 
L 67.045243 26.097459 
L 67.970398 25.080613 
L 68.895557 21.610223 
L 69.82071 28.868039 
L 70.74585 26.567104 
L 71.671025 24.380266 
L 72.596178 28.514462 
L 73.521341 24.513887 
L 74.446495 22.754959 
L 75.371653 27.0912 
L 76.296805 23.067518 
L 77.221971 24.166042 
L 78.147114 26.938771 
L 79.072277 26.522504 
L 79.997435 26.051964 
L 80.922594 26.087966 
L 81.847735 29.818612 
L 82.772905 21.745278 
L 83.698046 27.904211 
L 84.623219 28.341256 
L 85.548376 24.57819 
L 86.473535 24.646075 
L 87.398688 27.911376 
L 88.323852 27.817519 
L 97.76512 26.811956 
L 98.500856 32.332338 
L 99.426031 25.870697 
L 100.351186 21.064992 
L 101.276348 24.936961 
L 102.201502 23.219409 
L 103.126656 30.382114 
L 104.051812 28.969956 
L 104.976967 26.28392 
L 105.902123 29.404494 
L 106.827282 25.952554 
L 107.752435 28.747493 
L 108.677594 26.01614 
L 109.602753 23.774313 
L 110.527909 32.086769 
L 111.453063 31.467204 
L 112.378223 24.840059 
L 113.303377 19.081989 
L 114.228537 19.055659 
L 115.153695 23.317745 
L 116.078848 28.08494 
L 117.004011 27.350561 
L 117.929158 28.12954 
L 118.854316 26.302011 
L 119.779481 23.445634 
L 120.704637 27.505139 
L 121.629794 15.885648 
L 122.554943 9.472727 
L 123.480104 25.71594 
L 124.405261 24.002508 
L 125.330416 21.218495 
L 126.255574 24.016838 
L 129.9562 22.30448 
L 130.881363 23.573703 
L 131.806516 20.37163 
L 132.731673 22.707493 
L 133.656831 18.632406 
L 134.581987 16.044525 
L 135.507147 16.892285 
L 136.432285 25.351079 
L 137.357455 26.576597 
L 138.282617 19.201639 
L 139.20777 18.414241 
L 140.13293 12.807167 
L 141.058084 18.659452 
L 141.983242 17.26252 
L 142.908395 21.979383 
L 143.833556 22.67776 
L 144.758724 15.265904 
L 145.683869 12.148375 
L 146.609028 16.311767 
L 147.534182 18.922396 
L 148.459339 22.111034 
L 149.384497 27.386922 
L 150.309651 22.639966 
L 151.234811 21.127862 
L 152.159963 18.227422 
L 179.91473 18.227422 
L 188.548948 24.839342 
L 189.166282 25.035654 
L 190.091439 21.269364 
L 191.016594 24.003762 
L 191.94175 23.105849 
L 192.866913 21.908811 
L 193.792066 23.321864 
L 194.717222 22.752273 
L 195.642377 25.894699 
L 196.567536 19.342425 
L 197.492695 14.645981 
L 198.417852 19.800068 
L 199.343013 19.373591 
L 200.268162 22.751556 
L 201.193322 20.725386 
L 202.118478 24.015763 
L 203.043636 22.749228 
" clip-path="url(#p28de4f2425)" style="fill: none; stroke: #339af0; stroke-width: 1.2; stroke-linecap: square"/>
   </g>
   <g id="line2d_18">
    <path d="M 43.916364 96.330974 
L 45.193108 95.596236 
L 45.766628 95.854881 
L 46.691788 97.690471 
L 47.616947 96.019848 
L 48.542109 96.671833 
L 49.467263 95.671107 
L 50.392418 97.142552 
L 51.317566 95.57116 
L 52.242732 88.511269 
L 53.167891 92.667317 
L 54.093049 95.673257 
L 55.018206 95.470496 
L 55.943359 96.106182 
L 56.868517 96.328108 
L 57.793676 97.96649 
L 58.718827 96.400471 
L 59.643987 98.609161 
L 60.569143 94.20611 
L 61.494301 92.225973 
L 62.419457 96.209712 
L 63.344613 96.433966 
L 64.269773 94.180497 
L 65.194924 93.201086 
L 66.120079 96.0417 
L 67.045243 91.928998 
L 67.970398 96.651951 
L 68.895557 96.185531 
L 69.82071 96.747958 
L 70.74585 96.852741 
L 71.671025 95.809385 
L 72.596178 97.272591 
L 73.521341 92.517755 
L 74.446495 95.466914 
L 75.371653 96.162783 
L 76.296805 97.602703 
L 77.221971 97.53643 
L 78.147114 95.287797 
L 79.072277 93.080898 
L 79.997435 97.762118 
L 80.922594 98.437388 
L 81.847735 98.533753 
L 82.772905 92.900707 
L 83.698046 96.933165 
L 84.623219 95.382729 
L 85.548376 97.643005 
L 86.473535 97.205422 
L 87.398688 98.847387 
L 88.323852 96.438444 
L 97.76512 93.846623 
L 98.500856 97.905411 
L 99.426031 97.284413 
L 100.351186 96.766944 
L 101.276348 96.697447 
L 102.201502 97.880335 
L 103.126656 98.734006 
L 104.051812 97.499532 
L 104.976967 96.335273 
L 105.902123 95.606804 
L 106.827282 96.359632 
L 107.752435 97.607898 
L 108.677594 96.308584 
L 109.602753 96.068926 
L 110.527909 96.314316 
L 111.453063 97.3763 
L 112.378223 98.008403 
L 113.303377 95.820491 
L 114.228537 94.940669 
L 115.153695 94.920608 
L 116.078848 95.999428 
L 117.004011 98.041182 
L 117.929158 97.752087 
L 118.854316 95.5305 
L 119.779481 96.232997 
L 120.704637 93.312496 
L 121.629794 95.483572 
L 122.554943 96.625442 
L 123.480104 98.005179 
L 124.405261 98.927273 
L 125.330416 98.723975 
L 126.255574 96.852204 
L 129.9562 96.51224 
L 130.881363 96.270253 
L 131.806516 94.870813 
L 132.731673 96.65625 
L 133.656831 97.527295 
L 134.581987 95.882465 
L 135.507147 97.043859 
L 136.432285 97.792209 
L 137.357455 96.8977 
L 138.282617 97.625272 
L 139.20777 92.43142 
L 140.13293 93.910209 
L 141.058084 98.036166 
L 141.983242 94.578494 
L 142.908395 96.220817 
L 143.833556 95.931722 
L 144.758724 95.594445 
L 145.683869 96.495582 
L 146.609028 95.78413 
L 147.534182 94.674143 
L 148.459339 91.424605 
L 149.384497 97.162792 
L 150.309651 95.592654 
L 151.234811 97.272949 
L 152.159963 93.872416 
L 179.91473 93.872416 
L 188.548948 92.818134 
L 189.166282 97.388301 
L 190.091439 93.330766 
L 191.016594 96.036506 
L 191.94175 96.262372 
L 192.866913 95.66645 
L 193.792066 92.97701 
L 194.717222 97.259157 
L 195.642377 95.607879 
L 196.567536 96.498627 
L 197.492695 97.574045 
L 198.417852 92.911095 
L 199.343013 96.220996 
L 200.268162 96.685804 
L 201.193322 98.517095 
L 202.118478 96.704612 
L 203.043636 97.049591 
" clip-path="url(#p28de4f2425)" style="fill: none; stroke: #ff6b6b; stroke-width: 1.2; stroke-linecap: square"/>
   </g>
   <g id="patch_3">
    <path d="M 35.96 103.4 
L 35.96 5 
" style="fill: none; stroke: var(--fg-color); stroke-width: 0.8; stroke-linejoin: miter; stroke-linecap: square"/>
   </g>
   <g id="patch_4">
    <path d="M 35.96 103.4 
L 211 103.4 
" style="fill: none; stroke: var(--fg-color); stroke-width: 0.8; stroke-linejoin: miter; stroke-linecap: square"/>
   </g>
  </g>
 </g>
 <defs>
  <clipPath id="p28de4f2425">
   <rect x="35.96" y="5" width="175.04" height="98.4"/>
  </clipPath>
 </defs>
</svg>
