<?xml version="1.0" encoding="utf-8" standalone="no"?>
<!DOCTYPE svg PUBLIC "-//W3C//DTD SVG 1.1//EN"
  "http://www.w3.org/Graphics/SVG/1.1/DTD/svg11.dtd">
<svg xmlns:xlink="http://www.w3.org/1999/xlink" width="216pt" height="122.4pt" viewBox="0 0 216 122.4" xmlns="http://www.w3.org/2000/svg" version="1.1">
  <style>
    :root {
      --fg-color: #212529;
      --grid-color: rgba(33, 37, 41, 0.1);
    }
    @media (prefers-color-scheme: dark) {
      :root {
        --fg-color: #dee2e6;
        --grid-color: rgba(248, 249, 250, 0.15);
      }
    }
  </style>

 <metadata>
  <rdf:RDF xmlns:dc="http://purl.org/dc/elements/1.1/" xmlns:cc="http://creativecommons.org/ns#" xmlns:rdf="http://www.w3.org/1999/02/22-rdf-syntax-ns#">
   <cc:Work>
    <dc:type rdf:resource="http://purl.org/dc/dcmitype/StillImage"/>
    <dc:date>2026-06-30T04:49:07.383483</dc:date>
    <dc:format>image/svg+xml</dc:format>
    <dc:creator>
     <cc:Agent>
      <dc:title>Matplotlib v3.11.0, https://matplotlib.org/</dc:title>
     </cc:Agent>
    </dc:creator>
   </cc:Work>
  </rdf:RDF>
 </metadata>
 <defs>
  <style type="text/css">*{stroke-linejoin: round; stroke-linecap: butt}</style>
 </defs>
 <g id="figure_1">
  <g id="patch_1">
   <path d="M 0 122.4 
L 216 122.4 
L 216 0 
L 0 0 
L 0 122.4 
z
" style="fill: none; opacity: 0"/>
  </g>
  <g id="axes_1">
   <g id="patch_2">
    <path d="M 35.96 103.4 
L 211 103.4 
L 211 5 
L 35.96 5 
L 35.96 103.4 
z
" style="fill: none; opacity: 0"/>
   </g>
   <g id="matplotlib.axis_1">
    <g id="xtick_1">
     <g id="line2d_1">
      <path d="M 72.056377 103.4 
L 72.056377 5 
" clip-path="url(#p7ae9485f22)" style="fill: none; stroke-dasharray: 2.96,1.28; stroke-dashoffset: 0; stroke: var(--grid-color); stroke-width: 0.8"/>
     </g>
     <g id="line2d_2">
      <defs>
       <path id="m38775de525" d="M 0 0 
L 0 3.5 
" style="stroke: var(--fg-color); stroke-width: 0.8"/>
      </defs>
      <g>
       <use xlink:href="#m38775de525" x="72.056377" y="103.4" style="fill: var(--fg-color); stroke: var(--fg-color); stroke-width: 0.8"/>
      </g>
     </g>
     <g id="text_1">
      <text style="font-size: 7px; font-family: 'DejaVu Sans', 'Bitstream Vera Sans', 'Computer Modern Sans Serif', 'Lucida Grande', 'Verdana', 'Geneva', 'Lucid', 'Arial', 'Helvetica', 'Avant Garde', sans-serif; text-anchor: middle; fill: var(--fg-color)" x="72.056377" y="115.718359" transform="rotate(-0 72.056377 115.718359)">02/2026</text>
     </g>
    </g>
    <g id="xtick_2">
     <g id="line2d_3">
      <path d="M 126.640628 103.4 
L 126.640628 5 
" clip-path="url(#p7ae9485f22)" style="fill: none; stroke-dasharray: 2.96,1.28; stroke-dashoffset: 0; stroke: var(--grid-color); stroke-width: 0.8"/>
     </g>
     <g id="line2d_4">
      <g>
       <use xlink:href="#m38775de525" x="126.640628" y="103.4" style="fill: var(--fg-color); stroke: var(--fg-color); stroke-width: 0.8"/>
      </g>
     </g>
     <g id="text_2">
      <text style="font-size: 7px; font-family: 'DejaVu Sans', 'Bitstream Vera Sans', 'Computer Modern Sans Serif', 'Lucida Grande', 'Verdana', 'Geneva', 'Lucid', 'Arial', 'Helvetica', 'Avant Garde', sans-serif; text-anchor: middle; fill: var(--fg-color)" x="126.640628" y="115.718359" transform="rotate(-0 126.640628 115.718359)">04/2026</text>
     </g>
    </g>
    <g id="xtick_3">
     <g id="line2d_5">
      <path d="M 183.075192 103.4 
L 183.075192 5 
" clip-path="url(#p7ae9485f22)" style="fill: none; stroke-dasharray: 2.96,1.28; stroke-dashoffset: 0; stroke: var(--grid-color); stroke-width: 0.8"/>
     </g>
     <g id="line2d_6">
      <g>
       <use xlink:href="#m38775de525" x="183.075192" y="103.4" style="fill: var(--fg-color); stroke: var(--fg-color); stroke-width: 0.8"/>
      </g>
     </g>
     <g id="text_3">
      <text style="font-size: 7px; font-family: 'DejaVu Sans', 'Bitstream Vera Sans', 'Computer Modern Sans Serif', 'Lucida Grande', 'Verdana', 'Geneva', 'Lucid', 'Arial', 'Helvetica', 'Avant Garde', sans-serif; text-anchor: middle; fill: var(--fg-color)" x="183.075192" y="115.718359" transform="rotate(-0 183.075192 115.718359)">06/2026</text>
     </g>
    </g>
   </g>
   <g id="matplotlib.axis_2">
    <g id="ytick_1">
     <g id="line2d_7">
      <path d="M 35.96 100.139469 
L 211 100.139469 
" clip-path="url(#p7ae9485f22)" style="fill: none; stroke-dasharray: 2.96,1.28; stroke-dashoffset: 0; stroke: var(--grid-color); stroke-width: 0.8"/>
     </g>
     <g id="line2d_8">
      <defs>
       <path id="me634d24c0e" d="M 0 0 
L -3.5 0 
" style="stroke: var(--fg-color); stroke-width: 0.8"/>
      </defs>
      <g>
       <use xlink:href="#me634d24c0e" x="35.96" y="100.139469" style="fill: var(--fg-color); stroke: var(--fg-color); stroke-width: 0.8"/>
      </g>
     </g>
     <g id="text_4">
      <text style="font-size: 7px; font-family: 'DejaVu Sans', 'Bitstream Vera Sans', 'Computer Modern Sans Serif', 'Lucida Grande', 'Verdana', 'Geneva', 'Lucid', 'Arial', 'Helvetica', 'Avant Garde', sans-serif; text-anchor: end; fill: var(--fg-color)" x="28.96" y="102.798649" transform="rotate(-0 28.96 102.798649)">0</text>
     </g>
    </g>
    <g id="ytick_2">
     <g id="line2d_9">
      <path d="M 35.96 83.561287 
L 211 83.561287 
" clip-path="url(#p7ae9485f22)" style="fill: none; stroke-dasharray: 2.96,1.28; stroke-dashoffset: 0; stroke: var(--grid-color); stroke-width: 0.8"/>
     </g>
     <g id="line2d_10">
      <g>
       <use xlink:href="#me634d24c0e" x="35.96" y="83.561287" style="fill: var(--fg-color); stroke: var(--fg-color); stroke-width: 0.8"/>
      </g>
     </g>
     <g id="text_5">
      <text style="font-size: 7px; font-family: 'DejaVu Sans', 'Bitstream Vera Sans', 'Computer Modern Sans Serif', 'Lucida Grande', 'Verdana', 'Geneva', 'Lucid', 'Arial', 'Helvetica', 'Avant Garde', sans-serif; text-anchor: end; fill: var(--fg-color)" x="28.96" y="86.220467" transform="rotate(-0 28.96 86.220467)">25</text>
     </g>
    </g>
    <g id="ytick_3">
     <g id="line2d_11">
      <path d="M 35.96 66.983105 
L 211 66.983105 
" clip-path="url(#p7ae9485f22)" style="fill: none; stroke-dasharray: 2.96,1.28; stroke-dashoffset: 0; stroke: var(--grid-color); stroke-width: 0.8"/>
     </g>
     <g id="line2d_12">
      <g>
       <use xlink:href="#me634d24c0e" x="35.96" y="66.983105" style="fill: var(--fg-color); stroke: var(--fg-color); stroke-width: 0.8"/>
      </g>
     </g>
     <g id="text_6">
      <text style="font-size: 7px; font-family: 'DejaVu Sans', 'Bitstream Vera Sans', 'Computer Modern Sans Serif', 'Lucida Grande', 'Verdana', 'Geneva', 'Lucid', 'Arial', 'Helvetica', 'Avant Garde', sans-serif; text-anchor: end; fill: var(--fg-color)" x="28.96" y="69.642284" transform="rotate(-0 28.96 69.642284)">50</text>
     </g>
    </g>
    <g id="ytick_4">
     <g id="line2d_13">
      <path d="M 35.96 50.404923 
L 211 50.404923 
" clip-path="url(#p7ae9485f22)" style="fill: none; stroke-dasharray: 2.96,1.28; stroke-dashoffset: 0; stroke: var(--grid-color); stroke-width: 0.8"/>
     </g>
     <g id="line2d_14">
      <g>
       <use xlink:href="#me634d24c0e" x="35.96" y="50.404923" style="fill: var(--fg-color); stroke: var(--fg-color); stroke-width: 0.8"/>
      </g>
     </g>
     <g id="text_7">
      <text style="font-size: 7px; font-family: 'DejaVu Sans', 'Bitstream Vera Sans', 'Computer Modern Sans Serif', 'Lucida Grande', 'Verdana', 'Geneva', 'Lucid', 'Arial', 'Helvetica', 'Avant Garde', sans-serif; text-anchor: end; fill: var(--fg-color)" x="28.96" y="53.064102" transform="rotate(-0 28.96 53.064102)">75</text>
     </g>
    </g>
    <g id="ytick_5">
     <g id="line2d_15">
      <path d="M 35.96 33.82674 
L 211 33.82674 
" clip-path="url(#p7ae9485f22)" style="fill: none; stroke-dasharray: 2.96,1.28; stroke-dashoffset: 0; stroke: var(--grid-color); stroke-width: 0.8"/>
     </g>
     <g id="line2d_16">
      <g>
       <use xlink:href="#me634d24c0e" x="35.96" y="33.82674" style="fill: var(--fg-color); stroke: var(--fg-color); stroke-width: 0.8"/>
      </g>
     </g>
     <g id="text_8">
      <text style="font-size: 7px; font-family: 'DejaVu Sans', 'Bitstream Vera Sans', 'Computer Modern Sans Serif', 'Lucida Grande', 'Verdana', 'Geneva', 'Lucid', 'Arial', 'Helvetica', 'Avant Garde', sans-serif; text-anchor: end; fill: var(--fg-color)" x="28.96" y="36.48592" transform="rotate(-0 28.96 36.48592)">100</text>
     </g>
    </g>
    <g id="ytick_6">
     <g id="line2d_17">
      <path d="M 35.96 17.248558 
L 211 17.248558 
" clip-path="url(#p7ae9485f22)" style="fill: none; stroke-dasharray: 2.96,1.28; stroke-dashoffset: 0; stroke: var(--grid-color); stroke-width: 0.8"/>
     </g>
     <g id="line2d_18">
      <g>
       <use xlink:href="#me634d24c0e" x="35.96" y="17.248558" style="fill: var(--fg-color); stroke: var(--fg-color); stroke-width: 0.8"/>
      </g>
     </g>
     <g id="text_9">
      <text style="font-size: 7px; font-family: 'DejaVu Sans', 'Bitstream Vera Sans', 'Computer Modern Sans Serif', 'Lucida Grande', 'Verdana', 'Geneva', 'Lucid', 'Arial', 'Helvetica', 'Avant Garde', sans-serif; text-anchor: end; fill: var(--fg-color)" x="28.96" y="19.907738" transform="rotate(-0 28.96 19.907738)">125</text>
     </g>
    </g>
    <g id="text_10">
     <text style="font-size: 7px; font-family: 'DejaVu Sans', 'Bitstream Vera Sans', 'Computer Modern Sans Serif', 'Lucida Grande', 'Verdana', 'Geneva', 'Lucid', 'Arial', 'Helvetica', 'Avant Garde', sans-serif; text-anchor: middle; fill: var(--fg-color)" x="9.917109" y="54.2" transform="rotate(-90 9.917109 54.2)">ms</text>
    </g>
   </g>
   <g id="line2d_19">
    <path d="M 43.916364 23.636463 
L 45.193108 32.867858 
L 45.766628 29.615219 
L 46.691788 30.570122 
L 47.616947 29.060181 
L 48.542109 23.096014 
L 49.467263 26.497194 
L 50.392418 37.454046 
L 51.317566 26.61722 
L 52.242732 34.66427 
L 53.167891 30.02039 
L 54.093049 32.032318 
L 55.018206 26.144411 
L 55.943359 31.529667 
L 56.868517 30.340017 
L 57.793676 29.640418 
L 58.718827 32.524358 
L 59.643987 34.732572 
L 60.569143 26.89706 
L 61.494301 31.67025 
L 62.419457 31.168263 
L 63.344613 32.124492 
L 64.269773 14.086104 
L 65.194924 35.572754 
L 66.120079 31.410304 
L 67.045243 34.034962 
L 67.970398 29.905669 
L 68.895557 33.09929 
L 69.82071 31.373832 
L 70.74585 29.869197 
L 71.671025 30.28763 
L 72.596178 31.225292 
L 73.521341 31.887756 
L 74.446495 26.227965 
L 75.371653 36.817444 
L 76.296805 33.967323 
L 77.221971 33.158308 
L 78.147114 34.351274 
L 79.072277 36.966648 
L 79.997435 37.710014 
L 80.922594 33.94544 
L 81.847735 31.040279 
L 82.772905 18.960089 
L 83.698046 32.491865 
L 84.623219 35.821427 
L 85.548376 32.260434 
L 86.473535 27.718012 
L 87.398688 23.682882 
L 88.323852 29.963361 
L 97.76512 25.933536 
L 98.500856 26.619873 
L 99.426031 26.320139 
L 100.351186 25.157677 
L 101.276348 35.692117 
L 102.201502 34.111885 
L 103.126656 32.535631 
L 104.051812 38.983218 
L 104.976967 32.554862 
L 105.902123 32.671572 
L 106.827282 36.830044 
L 107.752435 35.900339 
L 108.677594 29.593999 
L 109.602753 25.466031 
L 110.527909 35.849278 
L 111.453063 38.408287 
L 112.378223 33.580057 
L 113.303377 35.804186 
L 114.228537 24.179564 
L 115.153695 32.577408 
L 116.078848 34.617851 
L 117.004011 30.606594 
L 117.929158 35.664929 
L 118.854316 29.832061 
L 119.779481 35.371827 
L 120.704637 32.725286 
L 121.629794 14.57085 
L 122.554943 22.201456 
L 123.480104 28.766416 
L 124.405261 30.377152 
L 125.330416 30.331396 
L 126.255574 26.383136 
L 129.9562 23.344024 
L 130.881363 32.140407 
L 131.806516 33.809499 
L 132.731673 22.981956 
L 133.656831 28.514427 
L 134.581987 24.558873 
L 135.507147 26.651703 
L 136.432285 29.690152 
L 137.357455 33.123162 
L 138.282617 25.901043 
L 139.20777 29.942141 
L 140.13293 30.047578 
L 141.058084 28.277028 
L 141.983242 24.972665 
L 142.908395 28.682199 
L 143.833556 25.881149 
L 144.758724 27.800239 
L 145.683869 19.591387 
L 146.609028 28.164959 
L 147.534182 15.519122 
L 148.459339 33.696767 
L 149.384497 31.092003 
L 150.309651 32.320115 
L 151.234811 30.259115 
L 152.159963 9.472727 
L 179.91473 9.472727 
L 188.548948 28.332067 
L 189.166282 29.318138 
L 190.091439 29.794926 
L 191.016594 14.478012 
L 191.94175 24.97797 
L 192.866913 24.261792 
L 193.792066 24.201448 
L 194.717222 28.408327 
L 195.642377 28.487239 
L 196.567536 28.757795 
L 197.492695 21.705436 
L 198.417852 31.721974 
L 199.343013 23.907682 
L 200.268162 28.306205 
L 201.193322 30.49121 
L 202.118478 24.095347 
L 203.043636 28.190821 
" clip-path="url(#p7ae9485f22)" style="fill: none; stroke: #339af0; stroke-width: 1.2; stroke-linecap: square"/>
   </g>
   <g id="line2d_20">
    <path d="M 43.916364 98.649422 
L 45.193108 98.761491 
L 45.766628 98.538017 
L 46.691788 98.722366 
L 47.616947 98.770112 
L 48.542109 98.77608 
L 49.467263 98.390803 
L 50.392418 98.608972 
L 51.317566 98.620908 
L 52.242732 98.766133 
L 53.167891 98.772101 
L 54.093049 98.72303 
L 55.018206 98.593057 
L 55.943359 98.063218 
L 56.868517 98.751544 
L 57.793676 98.666001 
L 58.718827 98.689873 
L 59.643987 98.854992 
L 60.569143 98.214411 
L 61.494301 98.7973 
L 62.419457 98.788679 
L 63.344613 98.775417 
L 64.269773 98.665337 
L 65.194924 98.893453 
L 66.120079 98.688547 
L 67.045243 98.41136 
L 67.970398 98.463747 
L 68.895557 98.803268 
L 69.82071 98.78669 
L 70.74585 98.747565 
L 71.671025 98.673958 
L 72.596178 98.756186 
L 73.521341 98.68921 
L 74.446495 98.104332 
L 75.371653 98.835098 
L 76.296805 98.707778 
L 77.221971 98.638149 
L 78.147114 98.802605 
L 79.072277 98.817194 
L 79.997435 98.868918 
L 80.922594 98.848361 
L 81.847735 98.74425 
L 82.772905 98.690536 
L 83.698046 98.715735 
L 84.623219 98.811225 
L 85.548376 98.547964 
L 86.473535 97.614944 
L 87.398688 98.687221 
L 88.323852 98.506187 
L 97.76512 98.853666 
L 98.500856 98.19518 
L 99.426031 98.819846 
L 100.351186 98.799289 
L 101.276348 98.685231 
L 102.201502 98.805257 
L 103.126656 98.75486 
L 104.051812 98.927273 
L 104.976967 98.656054 
L 105.902123 97.4233 
L 106.827282 98.830456 
L 107.752435 98.805257 
L 108.677594 98.762817 
L 109.602753 98.573826 
L 110.527909 98.747565 
L 111.453063 98.863613 
L 112.378223 98.811225 
L 113.303377 98.632844 
L 114.228537 97.381523 
L 115.153695 98.768122 
L 116.078848 98.716398 
L 117.004011 98.76547 
L 117.929158 98.427938 
L 118.854316 98.685231 
L 119.779481 98.845045 
L 120.704637 98.775417 
L 121.629794 98.700483 
L 122.554943 98.510166 
L 123.480104 98.637486 
L 124.405261 98.725019 
L 125.330416 98.63417 
L 126.255574 97.586429 
L 129.9562 98.675284 
L 130.881363 98.717725 
L 131.806516 98.71043 
L 132.731673 98.647433 
L 133.656831 98.697168 
L 134.581987 98.599688 
L 135.507147 98.65738 
L 136.432285 98.478999 
L 137.357455 98.679263 
L 138.282617 98.584436 
L 139.20777 98.637486 
L 140.13293 98.545975 
L 141.058084 98.690536 
L 141.983242 98.630192 
L 142.908395 98.466399 
L 143.833556 98.644117 
L 144.758724 98.689873 
L 145.683869 98.105658 
L 146.609028 98.750218 
L 147.534182 98.663348 
L 148.459339 98.766796 
L 149.384497 98.773427 
L 150.309651 98.692526 
L 151.234811 98.522102 
L 152.159963 98.374888 
L 179.91473 98.374888 
L 188.548948 98.627539 
L 189.166282 98.616929 
L 190.091439 98.565205 
L 191.016594 98.544648 
L 191.94175 98.591067 
L 192.866913 98.522102 
L 193.792066 98.569847 
L 194.717222 98.622234 
L 195.642377 98.666664 
L 196.567536 98.700483 
L 197.492695 98.604993 
L 198.417852 98.683905 
L 199.343013 98.610961 
L 200.268162 98.732976 
L 201.193322 98.653401 
L 202.118478 98.541996 
L 203.043636 98.679926 
" clip-path="url(#p7ae9485f22)" style="fill: none; stroke: #ff6b6b; stroke-width: 1.2; stroke-linecap: square"/>
   </g>
   <g id="patch_3">
    <path d="M 35.96 103.4 
L 35.96 5 
" style="fill: none; stroke: var(--fg-color); stroke-width: 0.8; stroke-linejoin: miter; stroke-linecap: square"/>
   </g>
   <g id="patch_4">
    <path d="M 35.96 103.4 
L 211 103.4 
" style="fill: none; stroke: var(--fg-color); stroke-width: 0.8; stroke-linejoin: miter; stroke-linecap: square"/>
   </g>
  </g>
 </g>
 <defs>
  <clipPath id="p7ae9485f22">
   <rect x="35.96" y="5" width="175.04" height="98.4"/>
  </clipPath>
 </defs>
</svg>
