<?xml version="1.0" encoding="utf-8" standalone="no"?>
<!DOCTYPE svg PUBLIC "-//W3C//DTD SVG 1.1//EN"
  "http://www.w3.org/Graphics/SVG/1.1/DTD/svg11.dtd">
<svg xmlns:xlink="http://www.w3.org/1999/xlink" width="216pt" height="122.4pt" viewBox="0 0 216 122.4" xmlns="http://www.w3.org/2000/svg" version="1.1">
  <style>
    :root {
      --fg-color: #212529;
      --grid-color: rgba(33, 37, 41, 0.1);
    }
    @media (prefers-color-scheme: dark) {
      :root {
        --fg-color: #dee2e6;
        --grid-color: rgba(248, 249, 250, 0.15);
      }
    }
  </style>

 <metadata>
  <rdf:RDF xmlns:dc="http://purl.org/dc/elements/1.1/" xmlns:cc="http://creativecommons.org/ns#" xmlns:rdf="http://www.w3.org/1999/02/22-rdf-syntax-ns#">
   <cc:Work>
    <dc:type rdf:resource="http://purl.org/dc/dcmitype/StillImage"/>
    <dc:date>2026-06-30T15:37:22.949567</dc:date>
    <dc:format>image/svg+xml</dc:format>
    <dc:creator>
     <cc:Agent>
      <dc:title>Matplotlib v3.11.0, https://matplotlib.org/</dc:title>
     </cc:Agent>
    </dc:creator>
   </cc:Work>
  </rdf:RDF>
 </metadata>
 <defs>
  <style type="text/css">*{stroke-linejoin: round; stroke-linecap: butt}</style>
 </defs>
 <g id="figure_1">
  <g id="patch_1">
   <path d="M 0 122.4 
L 216 122.4 
L 216 0 
L 0 0 
L 0 122.4 
z
" style="fill: none; opacity: 0"/>
  </g>
  <g id="axes_1">
   <g id="patch_2">
    <path d="M 35.96 103.4 
L 211 103.4 
L 211 5 
L 35.96 5 
L 35.96 103.4 
z
" style="fill: none; opacity: 0"/>
   </g>
   <g id="matplotlib.axis_1">
    <g id="xtick_1">
     <g id="line2d_1">
      <path d="M 69.784035 103.4 
L 69.784035 5 
" clip-path="url(#p90ebaa4e3f)" style="fill: none; stroke-dasharray: 2.96,1.28; stroke-dashoffset: 0; stroke: var(--grid-color); stroke-width: 0.8"/>
     </g>
     <g id="line2d_2">
      <defs>
       <path id="m78c6d81fe8" d="M 0 0 
L 0 3.5 
" style="stroke: var(--fg-color); stroke-width: 0.8"/>
      </defs>
      <g>
       <use xlink:href="#m78c6d81fe8" x="69.784035" y="103.4" style="fill: var(--fg-color); stroke: var(--fg-color); stroke-width: 0.8"/>
      </g>
     </g>
     <g id="text_1">
      <text style="font-size: 7px; font-family: 'DejaVu Sans', 'Bitstream Vera Sans', 'Computer Modern Sans Serif', 'Lucida Grande', 'Verdana', 'Geneva', 'Lucid', 'Arial', 'Helvetica', 'Avant Garde', sans-serif; text-anchor: middle; fill: var(--fg-color)" x="69.784035" y="115.718359" transform="rotate(-0 69.784035 115.718359)">02/2026</text>
     </g>
    </g>
    <g id="xtick_2">
     <g id="line2d_3">
      <path d="M 122.345302 103.4 
L 122.345302 5 
" clip-path="url(#p90ebaa4e3f)" style="fill: none; stroke-dasharray: 2.96,1.28; stroke-dashoffset: 0; stroke: var(--grid-color); stroke-width: 0.8"/>
     </g>
     <g id="line2d_4">
      <g>
       <use xlink:href="#m78c6d81fe8" x="122.345302" y="103.4" style="fill: var(--fg-color); stroke: var(--fg-color); stroke-width: 0.8"/>
      </g>
     </g>
     <g id="text_2">
      <text style="font-size: 7px; font-family: 'DejaVu Sans', 'Bitstream Vera Sans', 'Computer Modern Sans Serif', 'Lucida Grande', 'Verdana', 'Geneva', 'Lucid', 'Arial', 'Helvetica', 'Avant Garde', sans-serif; text-anchor: middle; fill: var(--fg-color)" x="122.345302" y="115.718359" transform="rotate(-0 122.345302 115.718359)">04/2026</text>
     </g>
    </g>
    <g id="xtick_3">
     <g id="line2d_5">
      <path d="M 176.688307 103.4 
L 176.688307 5 
" clip-path="url(#p90ebaa4e3f)" style="fill: none; stroke-dasharray: 2.96,1.28; stroke-dashoffset: 0; stroke: var(--grid-color); stroke-width: 0.8"/>
     </g>
     <g id="line2d_6">
      <g>
       <use xlink:href="#m78c6d81fe8" x="176.688307" y="103.4" style="fill: var(--fg-color); stroke: var(--fg-color); stroke-width: 0.8"/>
      </g>
     </g>
     <g id="text_3">
      <text style="font-size: 7px; font-family: 'DejaVu Sans', 'Bitstream Vera Sans', 'Computer Modern Sans Serif', 'Lucida Grande', 'Verdana', 'Geneva', 'Lucid', 'Arial', 'Helvetica', 'Avant Garde', sans-serif; text-anchor: middle; fill: var(--fg-color)" x="176.688307" y="115.718359" transform="rotate(-0 176.688307 115.718359)">06/2026</text>
     </g>
    </g>
   </g>
   <g id="matplotlib.axis_2">
    <g id="ytick_1">
     <g id="line2d_7">
      <path d="M 35.96 100.809777 
L 211 100.809777 
" clip-path="url(#p90ebaa4e3f)" style="fill: none; stroke-dasharray: 2.96,1.28; stroke-dashoffset: 0; stroke: var(--grid-color); stroke-width: 0.8"/>
     </g>
     <g id="line2d_8">
      <defs>
       <path id="m46701c11ca" d="M 0 0 
L -3.5 0 
" style="stroke: var(--fg-color); stroke-width: 0.8"/>
      </defs>
      <g>
       <use xlink:href="#m46701c11ca" x="35.96" y="100.809777" style="fill: var(--fg-color); stroke: var(--fg-color); stroke-width: 0.8"/>
      </g>
     </g>
     <g id="text_4">
      <text style="font-size: 7px; font-family: 'DejaVu Sans', 'Bitstream Vera Sans', 'Computer Modern Sans Serif', 'Lucida Grande', 'Verdana', 'Geneva', 'Lucid', 'Arial', 'Helvetica', 'Avant Garde', sans-serif; text-anchor: end; fill: var(--fg-color)" x="28.96" y="103.468957" transform="rotate(-0 28.96 103.468957)">0</text>
     </g>
    </g>
    <g id="ytick_2">
     <g id="line2d_9">
      <path d="M 35.96 79.820764 
L 211 79.820764 
" clip-path="url(#p90ebaa4e3f)" style="fill: none; stroke-dasharray: 2.96,1.28; stroke-dashoffset: 0; stroke: var(--grid-color); stroke-width: 0.8"/>
     </g>
     <g id="line2d_10">
      <g>
       <use xlink:href="#m46701c11ca" x="35.96" y="79.820764" style="fill: var(--fg-color); stroke: var(--fg-color); stroke-width: 0.8"/>
      </g>
     </g>
     <g id="text_5">
      <text style="font-size: 7px; font-family: 'DejaVu Sans', 'Bitstream Vera Sans', 'Computer Modern Sans Serif', 'Lucida Grande', 'Verdana', 'Geneva', 'Lucid', 'Arial', 'Helvetica', 'Avant Garde', sans-serif; text-anchor: end; fill: var(--fg-color)" x="28.96" y="82.479944" transform="rotate(-0 28.96 82.479944)">100</text>
     </g>
    </g>
    <g id="ytick_3">
     <g id="line2d_11">
      <path d="M 35.96 58.831751 
L 211 58.831751 
" clip-path="url(#p90ebaa4e3f)" style="fill: none; stroke-dasharray: 2.96,1.28; stroke-dashoffset: 0; stroke: var(--grid-color); stroke-width: 0.8"/>
     </g>
     <g id="line2d_12">
      <g>
       <use xlink:href="#m46701c11ca" x="35.96" y="58.831751" style="fill: var(--fg-color); stroke: var(--fg-color); stroke-width: 0.8"/>
      </g>
     </g>
     <g id="text_6">
      <text style="font-size: 7px; font-family: 'DejaVu Sans', 'Bitstream Vera Sans', 'Computer Modern Sans Serif', 'Lucida Grande', 'Verdana', 'Geneva', 'Lucid', 'Arial', 'Helvetica', 'Avant Garde', sans-serif; text-anchor: end; fill: var(--fg-color)" x="28.96" y="61.49093" transform="rotate(-0 28.96 61.49093)">200</text>
     </g>
    </g>
    <g id="ytick_4">
     <g id="line2d_13">
      <path d="M 35.96 37.842737 
L 211 37.842737 
" clip-path="url(#p90ebaa4e3f)" style="fill: none; stroke-dasharray: 2.96,1.28; stroke-dashoffset: 0; stroke: var(--grid-color); stroke-width: 0.8"/>
     </g>
     <g id="line2d_14">
      <g>
       <use xlink:href="#m46701c11ca" x="35.96" y="37.842737" style="fill: var(--fg-color); stroke: var(--fg-color); stroke-width: 0.8"/>
      </g>
     </g>
     <g id="text_7">
      <text style="font-size: 7px; font-family: 'DejaVu Sans', 'Bitstream Vera Sans', 'Computer Modern Sans Serif', 'Lucida Grande', 'Verdana', 'Geneva', 'Lucid', 'Arial', 'Helvetica', 'Avant Garde', sans-serif; text-anchor: end; fill: var(--fg-color)" x="28.96" y="40.501917" transform="rotate(-0 28.96 40.501917)">300</text>
     </g>
    </g>
    <g id="ytick_5">
     <g id="line2d_15">
      <path d="M 35.96 16.853724 
L 211 16.853724 
" clip-path="url(#p90ebaa4e3f)" style="fill: none; stroke-dasharray: 2.96,1.28; stroke-dashoffset: 0; stroke: var(--grid-color); stroke-width: 0.8"/>
     </g>
     <g id="line2d_16">
      <g>
       <use xlink:href="#m46701c11ca" x="35.96" y="16.853724" style="fill: var(--fg-color); stroke: var(--fg-color); stroke-width: 0.8"/>
      </g>
     </g>
     <g id="text_8">
      <text style="font-size: 7px; font-family: 'DejaVu Sans', 'Bitstream Vera Sans', 'Computer Modern Sans Serif', 'Lucida Grande', 'Verdana', 'Geneva', 'Lucid', 'Arial', 'Helvetica', 'Avant Garde', sans-serif; text-anchor: end; fill: var(--fg-color)" x="28.96" y="19.512903" transform="rotate(-0 28.96 19.512903)">400</text>
     </g>
    </g>
    <g id="text_9">
     <text style="font-size: 7px; font-family: 'DejaVu Sans', 'Bitstream Vera Sans', 'Computer Modern Sans Serif', 'Lucida Grande', 'Verdana', 'Geneva', 'Lucid', 'Arial', 'Helvetica', 'Avant Garde', sans-serif; text-anchor: middle; fill: var(--fg-color)" x="9.917109" y="54.2" transform="rotate(-90 9.917109 54.2)">ms</text>
    </g>
   </g>
   <g id="line2d_17">
    <path d="M 43.916364 37.923125 
L 44.468628 43.397689 
L 45.3595 45.150272 
L 46.250371 42.112742 
L 47.141245 19.983815 
L 48.032112 40.807015 
L 48.922979 43.750305 
L 49.81384 41.393449 
L 50.704717 47.547007 
L 52.486458 34.564043 
L 53.377327 35.188886 
L 54.268192 41.307603 
L 55.159063 32.458845 
L 56.049934 38.943611 
L 56.940797 39.822211 
L 57.831669 45.113121 
L 58.722538 40.583692 
L 59.613407 42.029626 
L 60.504275 43.885054 
L 61.395144 45.480219 
L 62.286016 26.341387 
L 63.176879 37.892691 
L 64.067746 44.082981 
L 64.958622 38.281827 
L 65.84949 47.043901 
L 66.740361 45.163495 
L 67.631226 30.832407 
L 68.522078 42.216218 
L 69.412965 23.092498 
L 70.30383 43.794592 
L 71.194705 42.598848 
L 72.085571 32.911159 
L 72.976442 42.462419 
L 73.867306 43.491091 
L 74.758184 42.302693 
L 75.649039 35.764825 
L 76.539914 50.794847 
L 77.430784 38.077814 
L 78.321655 42.95671 
L 79.212509 45.194349 
L 80.103391 32.035917 
L 80.994245 39.42279 
L 81.885129 41.00893 
L 82.775998 44.039114 
L 83.666869 37.162903 
L 84.557735 44.785483 
L 85.44861 36.484538 
L 94.53997 41.331951 
L 95.248438 40.76105 
L 96.139324 45.093812 
L 97.030192 37.196905 
L 97.921065 42.9565 
L 98.811931 37.786906 
L 99.702798 42.487186 
L 100.593666 43.763318 
L 101.484533 40.30076 
L 102.375401 43.54881 
L 103.266272 35.150896 
L 104.157138 46.344337 
L 105.048009 35.919094 
L 105.93888 43.354872 
L 106.829748 43.681041 
L 107.720614 45.525136 
L 108.611487 42.750808 
L 109.502352 41.815118 
L 110.393224 44.062202 
L 111.284094 43.316042 
L 112.17496 41.02824 
L 113.065834 35.059174 
L 113.956695 38.107409 
L 114.847564 36.48055 
L 115.738441 43.124412 
L 116.629309 38.944241 
L 117.520178 38.450369 
L 118.41104 39.390467 
L 119.301913 38.662358 
L 120.192782 45.1742 
L 121.083649 45.080589 
L 121.97452 37.572399 
L 125.537994 36.420102 
L 126.428869 44.604348 
L 127.319734 45.015732 
L 128.210603 40.184062 
L 129.101474 40.474969 
L 129.992342 36.950914 
L 130.883214 34.243121 
L 131.774065 46.39555 
L 133.55582 42.78544 
L 134.446686 37.667479 
L 135.337558 42.245812 
L 136.228424 35.269484 
L 137.119294 39.158538 
L 138.010159 44.191074 
L 138.901032 39.658077 
L 139.791912 39.637718 
L 140.68277 47.579331 
L 141.57364 38.27637 
L 142.464507 43.200603 
L 143.355376 40.781619 
L 144.246246 47.356217 
L 145.137113 40.480217 
L 146.027984 39.985086 
L 146.918849 34.827246 
L 173.644977 34.827246 
L 181.959197 46.30026 
L 182.553652 28.209829 
L 183.444521 23.267127 
L 185.226256 39.434334 
L 186.117131 40.900626 
L 187.007996 25.606562 
L 187.898864 35.54465 
L 188.789731 34.023996 
L 189.680603 35.471189 
L 190.571474 9.555004 
L 191.462343 9.472727 
L 192.353215 32.326615 
L 193.244077 44.759457 
L 194.134949 34.224651 
L 195.025817 36.214409 
L 195.916688 45.099898 
L 196.807557 38.062282 
L 197.698426 44.709503 
L 198.589295 33.019882 
L 199.480162 33.283084 
L 200.371032 26.476137 
L 201.261898 38.730572 
L 202.152766 37.295763 
L 203.043636 35.412419 
L 203.043636 35.412419 
" clip-path="url(#p90ebaa4e3f)" style="fill: none; stroke: #339af0; stroke-width: 1.2; stroke-linecap: square"/>
   </g>
   <g id="line2d_18">
    <path d="M 43.916364 97.825979 
L 44.468628 97.908676 
L 45.3595 98.362878 
L 46.250371 98.561854 
L 48.032112 98.166211 
L 48.922979 98.398769 
L 49.81384 98.290046 
L 50.704717 98.785807 
L 51.595589 98.157186 
L 52.486458 98.205041 
L 53.377327 97.80499 
L 54.268192 98.323209 
L 55.159063 98.314394 
L 56.049934 98.499097 
L 56.940797 97.931554 
L 57.831669 98.858849 
L 58.722538 98.385336 
L 59.613407 98.141444 
L 60.504275 98.306208 
L 61.395144 98.595017 
L 62.286016 98.044265 
L 63.176879 98.189929 
L 64.067746 98.508122 
L 64.958622 98.160124 
L 65.84949 98.03482 
L 66.740361 98.335173 
L 67.631226 98.319431 
L 68.522078 98.07281 
L 69.412965 98.325308 
L 71.194705 98.367076 
L 72.976442 97.984236 
L 73.867306 98.196645 
L 74.758184 98.586201 
L 75.649039 98.345247 
L 77.430784 98.62587 
L 78.321655 97.906787 
L 79.212509 98.331814 
L 80.103391 98.114578 
L 80.994245 98.123184 
L 81.885129 98.716753 
L 82.775998 98.866405 
L 83.666869 98.198954 
L 84.557735 98.660712 
L 85.44861 98.834291 
L 94.53997 97.519959 
L 95.248438 98.752434 
L 96.139324 98.531 
L 97.030192 97.705292 
L 97.921065 98.332234 
L 98.811931 98.122764 
L 99.702798 97.42362 
L 100.593666 98.699542 
L 101.484533 98.307677 
L 102.375401 98.196855 
L 103.266272 98.232536 
L 104.157138 98.927273 
L 105.048009 97.99725 
L 105.93888 98.210498 
L 106.829748 97.716207 
L 108.611487 98.538136 
L 109.502352 97.475043 
L 110.393224 98.462366 
L 111.284094 98.212597 
L 112.17496 98.496368 
L 113.956695 98.270946 
L 114.847564 97.991163 
L 115.738441 98.526383 
L 116.629309 97.961358 
L 117.520178 98.566681 
L 118.41104 98.319431 
L 119.301913 98.660292 
L 120.192782 98.380509 
L 121.083649 98.56899 
L 121.97452 97.19358 
L 125.537994 98.024955 
L 126.428869 98.428364 
L 127.319734 98.463835 
L 128.210603 98.03419 
L 129.101474 98.457958 
L 129.992342 98.193707 
L 130.883214 97.606854 
L 132.664946 98.238203 
L 133.55582 98.345457 
L 134.446686 98.271366 
L 135.337558 98.311035 
L 136.228424 98.157815 
L 137.119294 97.836893 
L 138.010159 98.181113 
L 138.901032 98.153828 
L 139.791912 97.926097 
L 140.68277 97.951703 
L 141.57364 97.581667 
L 142.464507 97.744752 
L 143.355376 98.519876 
L 144.246246 98.558916 
L 145.137113 97.680106 
L 146.027984 97.686612 
L 146.918849 98.12969 
L 173.644977 98.12969 
L 181.959197 98.357841 
L 182.553652 97.911404 
L 183.444521 98.323209 
L 185.226256 97.482389 
L 186.117131 98.243241 
L 187.007996 98.545483 
L 187.898864 98.064834 
L 188.789731 97.84361 
L 189.680603 98.375262 
L 190.571474 97.897342 
L 191.462343 97.948345 
L 193.244077 98.228758 
L 194.134949 97.923578 
L 195.025817 98.198534 
L 195.916688 98.256044 
L 197.698426 98.084564 
L 199.480162 98.036499 
L 200.371032 98.360989 
L 201.261898 97.674439 
L 202.152766 98.379459 
L 203.043636 97.660796 
L 203.043636 97.660796 
" clip-path="url(#p90ebaa4e3f)" style="fill: none; stroke: #ff6b6b; stroke-width: 1.2; stroke-linecap: square"/>
   </g>
   <g id="patch_3">
    <path d="M 35.96 103.4 
L 35.96 5 
" style="fill: none; stroke: var(--fg-color); stroke-width: 0.8; stroke-linejoin: miter; stroke-linecap: square"/>
   </g>
   <g id="patch_4">
    <path d="M 35.96 103.4 
L 211 103.4 
" style="fill: none; stroke: var(--fg-color); stroke-width: 0.8; stroke-linejoin: miter; stroke-linecap: square"/>
   </g>
  </g>
 </g>
 <defs>
  <clipPath id="p90ebaa4e3f">
   <rect x="35.96" y="5" width="175.04" height="98.4"/>
  </clipPath>
 </defs>
</svg>
