<?xml version="1.0" encoding="utf-8" standalone="no"?>
<!DOCTYPE svg PUBLIC "-//W3C//DTD SVG 1.1//EN"
  "http://www.w3.org/Graphics/SVG/1.1/DTD/svg11.dtd">
<svg xmlns:xlink="http://www.w3.org/1999/xlink" width="216pt" height="122.4pt" viewBox="0 0 216 122.4" xmlns="http://www.w3.org/2000/svg" version="1.1">
  <style>
    :root {
      --fg-color: #212529;
      --grid-color: rgba(33, 37, 41, 0.1);
    }
    @media (prefers-color-scheme: dark) {
      :root {
        --fg-color: #dee2e6;
        --grid-color: rgba(248, 249, 250, 0.15);
      }
    }
  </style>

 <metadata>
  <rdf:RDF xmlns:dc="http://purl.org/dc/elements/1.1/" xmlns:cc="http://creativecommons.org/ns#" xmlns:rdf="http://www.w3.org/1999/02/22-rdf-syntax-ns#">
   <cc:Work>
    <dc:type rdf:resource="http://purl.org/dc/dcmitype/StillImage"/>
    <dc:date>2026-06-30T15:37:26.352639</dc:date>
    <dc:format>image/svg+xml</dc:format>
    <dc:creator>
     <cc:Agent>
      <dc:title>Matplotlib v3.11.0, https://matplotlib.org/</dc:title>
     </cc:Agent>
    </dc:creator>
   </cc:Work>
  </rdf:RDF>
 </metadata>
 <defs>
  <style type="text/css">*{stroke-linejoin: round; stroke-linecap: butt}</style>
 </defs>
 <g id="figure_1">
  <g id="patch_1">
   <path d="M 0 122.4 
L 216 122.4 
L 216 0 
L 0 0 
L 0 122.4 
z
" style="fill: none; opacity: 0"/>
  </g>
  <g id="axes_1">
   <g id="patch_2">
    <path d="M 31.64 103.4 
L 211 103.4 
L 211 5 
L 31.64 5 
L 31.64 103.4 
z
" style="fill: none; opacity: 0"/>
   </g>
   <g id="matplotlib.axis_1">
    <g id="xtick_1">
     <g id="line2d_1">
      <path d="M 66.298815 103.4 
L 66.298815 5 
" clip-path="url(#p57c192b6f8)" style="fill: none; stroke-dasharray: 2.96,1.28; stroke-dashoffset: 0; stroke: var(--grid-color); stroke-width: 0.8"/>
     </g>
     <g id="line2d_2">
      <defs>
       <path id="md5aafbabbc" d="M 0 0 
L 0 3.5 
" style="stroke: var(--fg-color); stroke-width: 0.8"/>
      </defs>
      <g>
       <use xlink:href="#md5aafbabbc" x="66.298815" y="103.4" style="fill: var(--fg-color); stroke: var(--fg-color); stroke-width: 0.8"/>
      </g>
     </g>
     <g id="text_1">
      <text style="font-size: 7px; font-family: 'DejaVu Sans', 'Bitstream Vera Sans', 'Computer Modern Sans Serif', 'Lucida Grande', 'Verdana', 'Geneva', 'Lucid', 'Arial', 'Helvetica', 'Avant Garde', sans-serif; text-anchor: middle; fill: var(--fg-color)" x="66.298815" y="115.718359" transform="rotate(-0 66.298815 115.718359)">02/2026</text>
     </g>
    </g>
    <g id="xtick_2">
     <g id="line2d_3">
      <path d="M 120.157298 103.4 
L 120.157298 5 
" clip-path="url(#p57c192b6f8)" style="fill: none; stroke-dasharray: 2.96,1.28; stroke-dashoffset: 0; stroke: var(--grid-color); stroke-width: 0.8"/>
     </g>
     <g id="line2d_4">
      <g>
       <use xlink:href="#md5aafbabbc" x="120.157298" y="103.4" style="fill: var(--fg-color); stroke: var(--fg-color); stroke-width: 0.8"/>
      </g>
     </g>
     <g id="text_2">
      <text style="font-size: 7px; font-family: 'DejaVu Sans', 'Bitstream Vera Sans', 'Computer Modern Sans Serif', 'Lucida Grande', 'Verdana', 'Geneva', 'Lucid', 'Arial', 'Helvetica', 'Avant Garde', sans-serif; text-anchor: middle; fill: var(--fg-color)" x="120.157298" y="115.718359" transform="rotate(-0 120.157298 115.718359)">04/2026</text>
     </g>
    </g>
    <g id="xtick_3">
     <g id="line2d_5">
      <path d="M 175.841492 103.4 
L 175.841492 5 
" clip-path="url(#p57c192b6f8)" style="fill: none; stroke-dasharray: 2.96,1.28; stroke-dashoffset: 0; stroke: var(--grid-color); stroke-width: 0.8"/>
     </g>
     <g id="line2d_6">
      <g>
       <use xlink:href="#md5aafbabbc" x="175.841492" y="103.4" style="fill: var(--fg-color); stroke: var(--fg-color); stroke-width: 0.8"/>
      </g>
     </g>
     <g id="text_3">
      <text style="font-size: 7px; font-family: 'DejaVu Sans', 'Bitstream Vera Sans', 'Computer Modern Sans Serif', 'Lucida Grande', 'Verdana', 'Geneva', 'Lucid', 'Arial', 'Helvetica', 'Avant Garde', sans-serif; text-anchor: middle; fill: var(--fg-color)" x="175.841492" y="115.718359" transform="rotate(-0 175.841492 115.718359)">06/2026</text>
     </g>
    </g>
   </g>
   <g id="matplotlib.axis_2">
    <g id="ytick_1">
     <g id="line2d_7">
      <path d="M 31.64 100.883584 
L 211 100.883584 
" clip-path="url(#p57c192b6f8)" style="fill: none; stroke-dasharray: 2.96,1.28; stroke-dashoffset: 0; stroke: var(--grid-color); stroke-width: 0.8"/>
     </g>
     <g id="line2d_8">
      <defs>
       <path id="m832a29360e" d="M 0 0 
L -3.5 0 
" style="stroke: var(--fg-color); stroke-width: 0.8"/>
      </defs>
      <g>
       <use xlink:href="#m832a29360e" x="31.64" y="100.883584" style="fill: var(--fg-color); stroke: var(--fg-color); stroke-width: 0.8"/>
      </g>
     </g>
     <g id="text_4">
      <text style="font-size: 7px; font-family: 'DejaVu Sans', 'Bitstream Vera Sans', 'Computer Modern Sans Serif', 'Lucida Grande', 'Verdana', 'Geneva', 'Lucid', 'Arial', 'Helvetica', 'Avant Garde', sans-serif; text-anchor: end; fill: var(--fg-color)" x="24.64" y="103.542764" transform="rotate(-0 24.64 103.542764)">0</text>
     </g>
    </g>
    <g id="ytick_2">
     <g id="line2d_9">
      <path d="M 31.64 73.617922 
L 211 73.617922 
" clip-path="url(#p57c192b6f8)" style="fill: none; stroke-dasharray: 2.96,1.28; stroke-dashoffset: 0; stroke: var(--grid-color); stroke-width: 0.8"/>
     </g>
     <g id="line2d_10">
      <g>
       <use xlink:href="#m832a29360e" x="31.64" y="73.617922" style="fill: var(--fg-color); stroke: var(--fg-color); stroke-width: 0.8"/>
      </g>
     </g>
     <g id="text_5">
      <text style="font-size: 7px; font-family: 'DejaVu Sans', 'Bitstream Vera Sans', 'Computer Modern Sans Serif', 'Lucida Grande', 'Verdana', 'Geneva', 'Lucid', 'Arial', 'Helvetica', 'Avant Garde', sans-serif; text-anchor: end; fill: var(--fg-color)" x="24.64" y="76.277102" transform="rotate(-0 24.64 76.277102)">20</text>
     </g>
    </g>
    <g id="ytick_3">
     <g id="line2d_11">
      <path d="M 31.64 46.352261 
L 211 46.352261 
" clip-path="url(#p57c192b6f8)" style="fill: none; stroke-dasharray: 2.96,1.28; stroke-dashoffset: 0; stroke: var(--grid-color); stroke-width: 0.8"/>
     </g>
     <g id="line2d_12">
      <g>
       <use xlink:href="#m832a29360e" x="31.64" y="46.352261" style="fill: var(--fg-color); stroke: var(--fg-color); stroke-width: 0.8"/>
      </g>
     </g>
     <g id="text_6">
      <text style="font-size: 7px; font-family: 'DejaVu Sans', 'Bitstream Vera Sans', 'Computer Modern Sans Serif', 'Lucida Grande', 'Verdana', 'Geneva', 'Lucid', 'Arial', 'Helvetica', 'Avant Garde', sans-serif; text-anchor: end; fill: var(--fg-color)" x="24.64" y="49.011441" transform="rotate(-0 24.64 49.011441)">40</text>
     </g>
    </g>
    <g id="ytick_4">
     <g id="line2d_13">
      <path d="M 31.64 19.0866 
L 211 19.0866 
" clip-path="url(#p57c192b6f8)" style="fill: none; stroke-dasharray: 2.96,1.28; stroke-dashoffset: 0; stroke: var(--grid-color); stroke-width: 0.8"/>
     </g>
     <g id="line2d_14">
      <g>
       <use xlink:href="#m832a29360e" x="31.64" y="19.0866" style="fill: var(--fg-color); stroke: var(--fg-color); stroke-width: 0.8"/>
      </g>
     </g>
     <g id="text_7">
      <text style="font-size: 7px; font-family: 'DejaVu Sans', 'Bitstream Vera Sans', 'Computer Modern Sans Serif', 'Lucida Grande', 'Verdana', 'Geneva', 'Lucid', 'Arial', 'Helvetica', 'Avant Garde', sans-serif; text-anchor: end; fill: var(--fg-color)" x="24.64" y="21.745779" transform="rotate(-0 24.64 21.745779)">60</text>
     </g>
    </g>
    <g id="text_8">
     <text style="font-size: 7px; font-family: 'DejaVu Sans', 'Bitstream Vera Sans', 'Computer Modern Sans Serif', 'Lucida Grande', 'Verdana', 'Geneva', 'Lucid', 'Arial', 'Helvetica', 'Avant Garde', sans-serif; text-anchor: middle; fill: var(--fg-color)" x="10.050859" y="54.2" transform="rotate(-90 10.050859 54.2)">ms</text>
    </g>
   </g>
   <g id="line2d_15">
    <path d="M 39.792727 37.282339 
L 40.358622 38.458852 
L 41.271481 41.644845 
L 42.184338 37.430937 
L 43.097199 40.007542 
L 44.010052 36.719303 
L 44.922906 37.572718 
L 45.835753 35.34375 
L 46.748617 44.828111 
L 47.661476 40.50923 
L 48.574332 39.858944 
L 49.487188 34.468522 
L 50.40004 39.564475 
L 51.312897 41.650298 
L 52.225755 30.870818 
L 53.138604 38.616993 
L 54.051463 42.976772 
L 54.964319 39.24683 
L 55.877175 39.342259 
L 56.79003 35.668212 
L 57.702885 41.905232 
L 58.615744 43.562984 
L 59.528593 38.494297 
L 60.441447 42.464178 
L 61.35431 36.87608 
L 62.267165 41.066813 
L 63.180022 42.496896 
L 64.092874 33.816873 
L 65.005713 39.04779 
L 65.918587 38.5202 
L 66.831438 35.661395 
L 67.7443 43.697949 
L 68.657153 39.016435 
L 69.57001 31.886464 
L 70.482861 31.679245 
L 71.395726 43.130823 
L 72.308567 41.282211 
L 73.221429 37.747218 
L 74.134286 43.196261 
L 75.047144 38.109852 
L 76.872853 33.844139 
L 77.785693 31.193916 
L 78.698564 40.636015 
L 79.61142 40.236573 
L 80.524278 37.132378 
L 81.43713 36.726119 
L 82.349993 17.059398 
L 91.665728 26.611922 
L 92.391681 25.594913 
L 93.304554 27.713455 
L 94.217409 18.105036 
L 95.130269 23.419113 
L 96.043122 25.998445 
L 96.955975 16.415928 
L 97.868829 29.849719 
L 98.781684 21.878603 
L 99.694538 15.528431 
L 100.607396 28.352835 
L 101.520248 16.349127 
L 102.433106 26.989551 
L 103.345963 16.691311 
L 104.258819 20.421254 
L 105.171671 28.879062 
L 106.084531 20.790703 
L 106.997383 15.224419 
L 107.910242 21.173786 
L 108.823098 19.281549 
L 109.735951 24.23163 
L 110.648812 11.397683 
L 111.561659 21.9604 
L 112.474515 27.237669 
L 113.387379 9.472727 
L 114.300233 20.816606 
L 115.213089 21.262399 
L 116.125938 24.512466 
L 117.038797 28.797265 
L 117.951653 27.425802 
L 119.777364 10.281154 
L 123.428785 18.535833 
L 124.341647 23.792653 
L 125.254499 30.626791 
L 127.080212 23.510453 
L 127.993067 15.302126 
L 128.905926 22.697936 
L 129.818763 28.752277 
L 130.731631 20.403531 
L 131.644492 22.258959 
L 132.557344 26.358351 
L 133.470203 20.932485 
L 134.383056 25.566284 
L 135.295912 28.10199 
L 136.208765 17.27207 
L 137.121624 16.413201 
L 138.034491 15.760189 
L 138.947335 12.402423 
L 139.860192 22.104908 
L 140.773046 25.539018 
L 141.685902 18.099583 
L 142.598758 16.086013 
L 143.511612 18.109126 
L 144.42447 14.424171 
L 145.337321 12.752786 
L 172.723053 12.752786 
L 181.242468 21.127434 
L 183.677303 14.839973 
L 184.590158 18.740326 
L 185.503019 18.203192 
L 186.415872 22.083096 
L 187.328726 24.167556 
L 188.24158 23.877176 
L 189.154439 29.957419 
L 190.067296 21.608673 
L 190.980152 25.732604 
L 191.893011 18.508567 
L 192.80586 28.726374 
L 193.718718 20.2413 
L 194.631573 15.261227 
L 195.544431 21.641392 
L 196.457286 31.455667 
L 197.370142 25.979359 
L 198.282997 24.156649 
L 199.195852 31.271624 
L 200.108708 20.762074 
L 201.934415 27.061805 
L 202.847273 20.674824 
L 202.847273 20.674824 
" clip-path="url(#p57c192b6f8)" style="fill: none; stroke: #339af0; stroke-width: 1.2; stroke-linecap: square"/>
   </g>
   <g id="line2d_16">
    <path d="M 39.792727 98.582362 
L 41.271481 98.662796 
L 44.010052 98.564639 
L 44.922906 98.728233 
L 45.835753 98.707784 
L 46.748617 98.799124 
L 48.574332 98.545553 
L 49.487188 98.664159 
L 51.312897 98.568729 
L 54.051463 98.744593 
L 54.964319 98.570093 
L 55.877175 98.62735 
L 56.79003 98.514198 
L 57.702885 98.715964 
L 60.441447 98.724144 
L 61.35431 98.533284 
L 63.180022 98.786855 
L 64.092874 98.675065 
L 67.7443 98.700968 
L 69.57001 98.541464 
L 71.395726 98.65189 
L 75.047144 98.744593 
L 78.698564 98.632804 
L 79.61142 98.732323 
L 82.349993 98.695515 
L 92.391681 98.870015 
L 94.217409 98.698241 
L 95.130269 98.89728 
L 96.043122 97.414029 
L 96.955975 98.728233 
L 97.868829 98.820937 
L 98.781684 98.760952 
L 99.694538 98.863198 
L 101.520248 98.638257 
L 102.433106 98.803214 
L 105.171671 98.885011 
L 106.084531 98.688698 
L 106.997383 98.73505 
L 107.910242 98.351967 
L 108.823098 98.758226 
L 109.735951 98.927273 
L 110.648812 98.649163 
L 112.474515 98.790944 
L 113.387379 97.183634 
L 114.300233 98.863198 
L 117.951653 98.605538 
L 118.864507 98.563276 
L 119.777364 98.132479 
L 125.254499 98.691425 
L 126.167355 98.429674 
L 127.993067 98.578272 
L 130.731631 98.62735 
L 131.644492 98.73505 
L 132.557344 98.561913 
L 135.295912 98.71869 
L 136.208765 98.450124 
L 138.034491 98.541464 
L 138.947335 97.970248 
L 139.860192 98.320612 
L 140.773046 98.546917 
L 141.685902 98.546917 
L 142.598758 98.362874 
L 143.511612 98.328791 
L 144.42447 98.471936 
L 181.851594 98.533284 
L 182.764449 98.351967 
L 183.677303 98.737776 
L 184.590158 98.46921 
L 185.503019 98.503292 
L 186.415872 98.759589 
L 187.328726 98.778675 
L 188.24158 98.669612 
L 189.154439 98.859109 
L 190.067296 98.692788 
L 190.980152 98.812757 
L 191.893011 98.587815 
L 192.80586 98.770495 
L 194.631573 98.417405 
L 195.544431 98.534647 
L 196.457286 98.792308 
L 197.370142 98.924546 
L 198.282997 96.874168 
L 199.195852 98.640983 
L 200.108708 98.677792 
L 201.021561 98.586452 
L 201.934415 98.664159 
L 202.847273 98.336971 
L 202.847273 98.336971 
" clip-path="url(#p57c192b6f8)" style="fill: none; stroke: #ff6b6b; stroke-width: 1.2; stroke-linecap: square"/>
   </g>
   <g id="patch_3">
    <path d="M 31.64 103.4 
L 31.64 5 
" style="fill: none; stroke: var(--fg-color); stroke-width: 0.8; stroke-linejoin: miter; stroke-linecap: square"/>
   </g>
   <g id="patch_4">
    <path d="M 31.64 103.4 
L 211 103.4 
" style="fill: none; stroke: var(--fg-color); stroke-width: 0.8; stroke-linejoin: miter; stroke-linecap: square"/>
   </g>
  </g>
 </g>
 <defs>
  <clipPath id="p57c192b6f8">
   <rect x="31.64" y="5" width="179.36" height="98.4"/>
  </clipPath>
 </defs>
</svg>
