<?xml version="1.0" encoding="utf-8" standalone="no"?>
<!DOCTYPE svg PUBLIC "-//W3C//DTD SVG 1.1//EN"
  "http://www.w3.org/Graphics/SVG/1.1/DTD/svg11.dtd">
<svg xmlns:xlink="http://www.w3.org/1999/xlink" width="216pt" height="122.4pt" viewBox="0 0 216 122.4" xmlns="http://www.w3.org/2000/svg" version="1.1">
  <style>
    :root {
      --fg-color: #212529;
      --grid-color: rgba(33, 37, 41, 0.1);
    }
    @media (prefers-color-scheme: dark) {
      :root {
        --fg-color: #dee2e6;
        --grid-color: rgba(248, 249, 250, 0.15);
      }
    }
  </style>

 <metadata>
  <rdf:RDF xmlns:dc="http://purl.org/dc/elements/1.1/" xmlns:cc="http://creativecommons.org/ns#" xmlns:rdf="http://www.w3.org/1999/02/22-rdf-syntax-ns#">
   <cc:Work>
    <dc:type rdf:resource="http://purl.org/dc/dcmitype/StillImage"/>
    <dc:date>2026-06-30T15:37:19.912231</dc:date>
    <dc:format>image/svg+xml</dc:format>
    <dc:creator>
     <cc:Agent>
      <dc:title>Matplotlib v3.11.0, https://matplotlib.org/</dc:title>
     </cc:Agent>
    </dc:creator>
   </cc:Work>
  </rdf:RDF>
 </metadata>
 <defs>
  <style type="text/css">*{stroke-linejoin: round; stroke-linecap: butt}</style>
 </defs>
 <g id="figure_1">
  <g id="patch_1">
   <path d="M 0 122.4 
L 216 122.4 
L 216 0 
L 0 0 
L 0 122.4 
z
" style="fill: none; opacity: 0"/>
  </g>
  <g id="axes_1">
   <g id="patch_2">
    <path d="M 35.96 103.4 
L 211 103.4 
L 211 5 
L 35.96 5 
L 35.96 103.4 
z
" style="fill: none; opacity: 0"/>
   </g>
   <g id="matplotlib.axis_1">
    <g id="xtick_1">
     <g id="line2d_1">
      <path d="M 69.784035 103.4 
L 69.784035 5 
" clip-path="url(#p7fefb12025)" style="fill: none; stroke-dasharray: 2.96,1.28; stroke-dashoffset: 0; stroke: var(--grid-color); stroke-width: 0.8"/>
     </g>
     <g id="line2d_2">
      <defs>
       <path id="m7dcf7c438e" d="M 0 0 
L 0 3.5 
" style="stroke: var(--fg-color); stroke-width: 0.8"/>
      </defs>
      <g>
       <use xlink:href="#m7dcf7c438e" x="69.784035" y="103.4" style="fill: var(--fg-color); stroke: var(--fg-color); stroke-width: 0.8"/>
      </g>
     </g>
     <g id="text_1">
      <text style="font-size: 7px; font-family: 'DejaVu Sans', 'Bitstream Vera Sans', 'Computer Modern Sans Serif', 'Lucida Grande', 'Verdana', 'Geneva', 'Lucid', 'Arial', 'Helvetica', 'Avant Garde', sans-serif; text-anchor: middle; fill: var(--fg-color)" x="69.784035" y="115.718359" transform="rotate(-0 69.784035 115.718359)">02/2026</text>
     </g>
    </g>
    <g id="xtick_2">
     <g id="line2d_3">
      <path d="M 122.345302 103.4 
L 122.345302 5 
" clip-path="url(#p7fefb12025)" style="fill: none; stroke-dasharray: 2.96,1.28; stroke-dashoffset: 0; stroke: var(--grid-color); stroke-width: 0.8"/>
     </g>
     <g id="line2d_4">
      <g>
       <use xlink:href="#m7dcf7c438e" x="122.345302" y="103.4" style="fill: var(--fg-color); stroke: var(--fg-color); stroke-width: 0.8"/>
      </g>
     </g>
     <g id="text_2">
      <text style="font-size: 7px; font-family: 'DejaVu Sans', 'Bitstream Vera Sans', 'Computer Modern Sans Serif', 'Lucida Grande', 'Verdana', 'Geneva', 'Lucid', 'Arial', 'Helvetica', 'Avant Garde', sans-serif; text-anchor: middle; fill: var(--fg-color)" x="122.345302" y="115.718359" transform="rotate(-0 122.345302 115.718359)">04/2026</text>
     </g>
    </g>
    <g id="xtick_3">
     <g id="line2d_5">
      <path d="M 176.688307 103.4 
L 176.688307 5 
" clip-path="url(#p7fefb12025)" style="fill: none; stroke-dasharray: 2.96,1.28; stroke-dashoffset: 0; stroke: var(--grid-color); stroke-width: 0.8"/>
     </g>
     <g id="line2d_6">
      <g>
       <use xlink:href="#m7dcf7c438e" x="176.688307" y="103.4" style="fill: var(--fg-color); stroke: var(--fg-color); stroke-width: 0.8"/>
      </g>
     </g>
     <g id="text_3">
      <text style="font-size: 7px; font-family: 'DejaVu Sans', 'Bitstream Vera Sans', 'Computer Modern Sans Serif', 'Lucida Grande', 'Verdana', 'Geneva', 'Lucid', 'Arial', 'Helvetica', 'Avant Garde', sans-serif; text-anchor: middle; fill: var(--fg-color)" x="176.688307" y="115.718359" transform="rotate(-0 176.688307 115.718359)">06/2026</text>
     </g>
    </g>
   </g>
   <g id="matplotlib.axis_2">
    <g id="ytick_1">
     <g id="line2d_7">
      <path d="M 35.96 81.915404 
L 211 81.915404 
" clip-path="url(#p7fefb12025)" style="fill: none; stroke-dasharray: 2.96,1.28; stroke-dashoffset: 0; stroke: var(--grid-color); stroke-width: 0.8"/>
     </g>
     <g id="line2d_8">
      <defs>
       <path id="m66c518c9e4" d="M 0 0 
L -3.5 0 
" style="stroke: var(--fg-color); stroke-width: 0.8"/>
      </defs>
      <g>
       <use xlink:href="#m66c518c9e4" x="35.96" y="81.915404" style="fill: var(--fg-color); stroke: var(--fg-color); stroke-width: 0.8"/>
      </g>
     </g>
     <g id="text_4">
      <text style="font-size: 7px; font-family: 'DejaVu Sans', 'Bitstream Vera Sans', 'Computer Modern Sans Serif', 'Lucida Grande', 'Verdana', 'Geneva', 'Lucid', 'Arial', 'Helvetica', 'Avant Garde', sans-serif; text-anchor: end; fill: var(--fg-color)" x="28.96" y="84.574583" transform="rotate(-0 28.96 84.574583)">100</text>
     </g>
    </g>
    <g id="ytick_2">
     <g id="line2d_9">
      <path d="M 35.96 57.767281 
L 211 57.767281 
" clip-path="url(#p7fefb12025)" style="fill: none; stroke-dasharray: 2.96,1.28; stroke-dashoffset: 0; stroke: var(--grid-color); stroke-width: 0.8"/>
     </g>
     <g id="line2d_10">
      <g>
       <use xlink:href="#m66c518c9e4" x="35.96" y="57.767281" style="fill: var(--fg-color); stroke: var(--fg-color); stroke-width: 0.8"/>
      </g>
     </g>
     <g id="text_5">
      <text style="font-size: 7px; font-family: 'DejaVu Sans', 'Bitstream Vera Sans', 'Computer Modern Sans Serif', 'Lucida Grande', 'Verdana', 'Geneva', 'Lucid', 'Arial', 'Helvetica', 'Avant Garde', sans-serif; text-anchor: end; fill: var(--fg-color)" x="28.96" y="60.426461" transform="rotate(-0 28.96 60.426461)">200</text>
     </g>
    </g>
    <g id="ytick_3">
     <g id="line2d_11">
      <path d="M 35.96 33.619159 
L 211 33.619159 
" clip-path="url(#p7fefb12025)" style="fill: none; stroke-dasharray: 2.96,1.28; stroke-dashoffset: 0; stroke: var(--grid-color); stroke-width: 0.8"/>
     </g>
     <g id="line2d_12">
      <g>
       <use xlink:href="#m66c518c9e4" x="35.96" y="33.619159" style="fill: var(--fg-color); stroke: var(--fg-color); stroke-width: 0.8"/>
      </g>
     </g>
     <g id="text_6">
      <text style="font-size: 7px; font-family: 'DejaVu Sans', 'Bitstream Vera Sans', 'Computer Modern Sans Serif', 'Lucida Grande', 'Verdana', 'Geneva', 'Lucid', 'Arial', 'Helvetica', 'Avant Garde', sans-serif; text-anchor: end; fill: var(--fg-color)" x="28.96" y="36.278339" transform="rotate(-0 28.96 36.278339)">300</text>
     </g>
    </g>
    <g id="ytick_4">
     <g id="line2d_13">
      <path d="M 35.96 9.471037 
L 211 9.471037 
" clip-path="url(#p7fefb12025)" style="fill: none; stroke-dasharray: 2.96,1.28; stroke-dashoffset: 0; stroke: var(--grid-color); stroke-width: 0.8"/>
     </g>
     <g id="line2d_14">
      <g>
       <use xlink:href="#m66c518c9e4" x="35.96" y="9.471037" style="fill: var(--fg-color); stroke: var(--fg-color); stroke-width: 0.8"/>
      </g>
     </g>
     <g id="text_7">
      <text style="font-size: 7px; font-family: 'DejaVu Sans', 'Bitstream Vera Sans', 'Computer Modern Sans Serif', 'Lucida Grande', 'Verdana', 'Geneva', 'Lucid', 'Arial', 'Helvetica', 'Avant Garde', sans-serif; text-anchor: end; fill: var(--fg-color)" x="28.96" y="12.130217" transform="rotate(-0 28.96 12.130217)">400</text>
     </g>
    </g>
    <g id="text_8">
     <text style="font-size: 7px; font-family: 'DejaVu Sans', 'Bitstream Vera Sans', 'Computer Modern Sans Serif', 'Lucida Grande', 'Verdana', 'Geneva', 'Lucid', 'Arial', 'Helvetica', 'Avant Garde', sans-serif; text-anchor: middle; fill: var(--fg-color)" x="9.917109" y="54.2" transform="rotate(-90 9.917109 54.2)">ms</text>
    </g>
   </g>
   <g id="line2d_15">
    <path d="M 43.916364 49.371462 
L 44.468628 47.795556 
L 45.3595 52.534383 
L 46.250371 48.975916 
L 47.141245 48.071569 
L 48.032112 50.0167 
L 49.81384 44.104998 
L 50.704717 48.861454 
L 51.595589 47.70162 
L 52.486458 51.07801 
L 53.377327 47.024506 
L 54.268192 46.606744 
L 55.159063 46.916323 
L 56.049934 43.360029 
L 56.940797 51.846886 
L 57.831669 47.541518 
L 58.722538 51.453513 
L 59.613407 51.535134 
L 60.504275 48.225634 
L 61.395144 47.723594 
L 62.286016 49.139399 
L 63.176879 48.336715 
L 64.067746 52.810396 
L 64.958622 46.890967 
L 65.84949 48.454558 
L 66.740361 51.255499 
L 67.631226 49.48689 
L 68.522078 36.84728 
L 69.412965 56.431166 
L 70.30383 50.811415 
L 71.194705 50.811415 
L 72.085571 51.446027 
L 72.976442 53.795157 
L 73.867306 53.649061 
L 74.758184 49.807577 
L 75.649039 50.051956 
L 76.539914 52.463146 
L 77.430784 53.147021 
L 78.321655 54.510666 
L 79.212509 51.393626 
L 80.103391 35.115618 
L 80.994245 56.06339 
L 81.885129 51.191506 
L 82.775998 52.866178 
L 83.666869 51.375515 
L 84.557735 51.099743 
L 85.44861 51.942754 
L 94.53997 38.020879 
L 95.248438 43.588953 
L 96.139324 32.230884 
L 97.030192 34.685299 
L 97.921065 52.104305 
L 98.811931 52.498644 
L 99.702798 54.103045 
L 100.593666 52.996578 
L 101.484533 53.709914 
L 102.375401 50.042297 
L 103.266272 49.476507 
L 104.157138 54.030601 
L 105.048009 51.88166 
L 105.93888 52.690863 
L 106.829748 52.376213 
L 107.720614 52.725878 
L 108.611487 54.416005 
L 109.502352 52.73602 
L 110.393224 52.651019 
L 111.284094 47.780584 
L 112.17496 52.187616 
L 113.065834 54.08421 
L 114.847564 48.200278 
L 116.629309 51.435885 
L 117.520178 52.450348 
L 118.41104 54.331004 
L 119.301913 49.726681 
L 120.192782 52.236395 
L 121.083649 55.092394 
L 121.97452 40.60666 
L 125.537994 53.209323 
L 126.428869 49.725715 
L 127.319734 50.833148 
L 128.210603 47.027163 
L 129.992342 52.316809 
L 130.883214 48.566122 
L 131.774065 47.901083 
L 132.664946 50.263252 
L 133.55582 49.093517 
L 134.446686 48.835857 
L 135.337558 49.188178 
L 136.228424 47.815357 
L 137.119294 47.194026 
L 138.010159 50.675219 
L 139.791912 45.45512 
L 140.68277 9.472727 
L 141.57364 45.635265 
L 142.464507 45.451981 
L 143.355376 54.020459 
L 144.246246 45.859359 
L 145.137113 49.332584 
L 146.027984 45.482649 
L 146.918849 39.94645 
L 173.644977 39.94645 
L 181.959197 53.633847 
L 182.553652 54.930601 
L 183.444521 49.057778 
L 184.335387 48.221529 
L 185.226256 50.360569 
L 186.117131 50.154586 
L 187.007996 46.091664 
L 187.898864 52.365588 
L 188.789731 51.468727 
L 189.680603 52.346752 
L 190.571474 48.591719 
L 191.462343 49.835831 
L 192.353215 53.474711 
L 193.244077 53.073611 
L 194.134949 45.192388 
L 195.025817 54.32883 
L 195.916688 52.457109 
L 196.807557 49.328237 
L 197.698426 54.730172 
L 198.589295 52.278655 
L 199.480162 51.377205 
L 200.371032 52.212006 
L 201.261898 48.111655 
L 202.152766 53.460947 
L 203.043636 53.612597 
L 203.043636 53.612597 
" clip-path="url(#p7fefb12025)" style="fill: none; stroke: #339af0; stroke-width: 1.2; stroke-linecap: square"/>
   </g>
   <g id="line2d_16">
    <path d="M 43.916364 96.105806 
L 44.468628 97.990809 
L 45.3595 98.52255 
L 46.250371 97.208409 
L 48.032112 96.50425 
L 48.922979 97.000977 
L 49.81384 97.270229 
L 50.704717 98.276964 
L 51.595589 98.305217 
L 52.486458 97.612166 
L 53.377327 97.118337 
L 54.268192 96.466338 
L 55.159063 98.27141 
L 56.049934 97.596711 
L 56.940797 97.589467 
L 57.831669 96.285468 
L 58.722538 97.125581 
L 59.613407 98.402534 
L 60.504275 97.839158 
L 61.395144 97.960623 
L 62.286016 96.589976 
L 63.176879 97.308141 
L 64.067746 97.361991 
L 64.958622 96.887481 
L 65.84949 98.328641 
L 66.740361 98.927273 
L 67.631226 98.088125 
L 68.522078 96.372884 
L 69.412965 97.011361 
L 70.30383 97.333014 
L 71.194705 96.040606 
L 72.085571 97.177258 
L 72.976442 95.918417 
L 73.867306 95.819409 
L 74.758184 97.212273 
L 75.649039 96.781229 
L 76.539914 96.969343 
L 77.430784 96.256249 
L 78.321655 96.860193 
L 79.212509 98.005539 
L 80.103391 97.570631 
L 80.994245 96.538058 
L 81.885129 96.553029 
L 82.775998 98.020752 
L 83.666869 97.907498 
L 84.557735 97.661187 
L 85.44861 97.796175 
L 94.53997 96.224615 
L 95.248438 96.837977 
L 96.139324 97.851232 
L 97.030192 96.208919 
L 97.921065 98.114447 
L 98.811931 96.709992 
L 100.593666 97.318283 
L 101.484533 96.551822 
L 102.375401 96.3526 
L 103.266272 97.711415 
L 104.157138 97.670846 
L 105.048009 96.071757 
L 105.93888 96.91018 
L 106.829748 97.124132 
L 107.720614 96.922737 
L 108.611487 96.838219 
L 110.393224 94.526519 
L 111.284094 96.562206 
L 112.17496 97.556625 
L 113.065834 96.409107 
L 113.956695 96.146375 
L 114.847564 97.111817 
L 115.738441 96.86937 
L 116.629309 97.575944 
L 117.520178 96.816002 
L 118.41104 95.903445 
L 119.301913 97.923677 
L 120.192782 97.428157 
L 121.083649 96.594323 
L 121.97452 96.391961 
L 126.428869 96.432047 
L 127.319734 95.379914 
L 128.210603 96.666043 
L 129.101474 96.029981 
L 129.992342 98.645464 
L 130.883214 96.608812 
L 131.774065 98.024133 
L 132.664946 96.571623 
L 133.55582 97.451339 
L 134.446686 97.372617 
L 135.337558 97.167841 
L 137.119294 95.625983 
L 138.010159 96.397274 
L 138.901032 96.31831 
L 139.791912 95.805162 
L 140.68277 96.419007 
L 141.57364 95.46081 
L 142.464507 95.567303 
L 143.355376 96.54168 
L 144.246246 95.836313 
L 145.137113 96.407175 
L 146.027984 95.069127 
L 146.918849 96.384475 
L 173.644977 96.384475 
L 181.959197 97.871034 
L 182.553652 97.401594 
L 183.444521 95.629364 
L 184.335387 95.838728 
L 185.226256 95.553297 
L 186.117131 96.573072 
L 187.007996 97.810905 
L 187.898864 98.061563 
L 188.789731 97.530787 
L 189.680603 96.60036 
L 190.571474 96.000762 
L 191.462343 97.637763 
L 192.353215 97.988877 
L 193.244077 97.041546 
L 194.134949 96.594806 
L 195.025817 95.30602 
L 195.916688 96.40959 
L 196.807557 97.130169 
L 197.698426 96.340284 
L 198.589295 96.335455 
L 199.480162 97.499877 
L 200.371032 95.744309 
L 201.261898 96.951232 
L 202.152766 95.559817 
L 203.043636 97.213963 
L 203.043636 97.213963 
" clip-path="url(#p7fefb12025)" style="fill: none; stroke: #ff6b6b; stroke-width: 1.2; stroke-linecap: square"/>
   </g>
   <g id="patch_3">
    <path d="M 35.96 103.4 
L 35.96 5 
" style="fill: none; stroke: var(--fg-color); stroke-width: 0.8; stroke-linejoin: miter; stroke-linecap: square"/>
   </g>
   <g id="patch_4">
    <path d="M 35.96 103.4 
L 211 103.4 
" style="fill: none; stroke: var(--fg-color); stroke-width: 0.8; stroke-linejoin: miter; stroke-linecap: square"/>
   </g>
  </g>
 </g>
 <defs>
  <clipPath id="p7fefb12025">
   <rect x="35.96" y="5" width="175.04" height="98.4"/>
  </clipPath>
 </defs>
</svg>
