<?xml version="1.0" encoding="utf-8" standalone="no"?>
<!DOCTYPE svg PUBLIC "-//W3C//DTD SVG 1.1//EN"
  "http://www.w3.org/Graphics/SVG/1.1/DTD/svg11.dtd">
<svg xmlns:xlink="http://www.w3.org/1999/xlink" width="216pt" height="122.4pt" viewBox="0 0 216 122.4" xmlns="http://www.w3.org/2000/svg" version="1.1">
  <style>
    :root {
      --fg-color: #212529;
      --grid-color: rgba(33, 37, 41, 0.1);
    }
    @media (prefers-color-scheme: dark) {
      :root {
        --fg-color: #dee2e6;
        --grid-color: rgba(248, 249, 250, 0.15);
      }
    }
  </style>

 <metadata>
  <rdf:RDF xmlns:dc="http://purl.org/dc/elements/1.1/" xmlns:cc="http://creativecommons.org/ns#" xmlns:rdf="http://www.w3.org/1999/02/22-rdf-syntax-ns#">
   <cc:Work>
    <dc:type rdf:resource="http://purl.org/dc/dcmitype/StillImage"/>
    <dc:date>2026-06-30T15:36:47.097575</dc:date>
    <dc:format>image/svg+xml</dc:format>
    <dc:creator>
     <cc:Agent>
      <dc:title>Matplotlib v3.11.0, https://matplotlib.org/</dc:title>
     </cc:Agent>
    </dc:creator>
   </cc:Work>
  </rdf:RDF>
 </metadata>
 <defs>
  <style type="text/css">*{stroke-linejoin: round; stroke-linecap: butt}</style>
 </defs>
 <g id="figure_1">
  <g id="patch_1">
   <path d="M 0 122.4 
L 216 122.4 
L 216 0 
L 0 0 
L 0 122.4 
z
" style="fill: none; opacity: 0"/>
  </g>
  <g id="axes_1">
   <g id="patch_2">
    <path d="M 35.96 103.4 
L 211 103.4 
L 211 5 
L 35.96 5 
L 35.96 103.4 
z
" style="fill: none; opacity: 0"/>
   </g>
   <g id="matplotlib.axis_1">
    <g id="xtick_1">
     <g id="line2d_1">
      <path d="M 69.784035 103.4 
L 69.784035 5 
" clip-path="url(#p17edc2a89b)" style="fill: none; stroke-dasharray: 2.96,1.28; stroke-dashoffset: 0; stroke: var(--grid-color); stroke-width: 0.8"/>
     </g>
     <g id="line2d_2">
      <defs>
       <path id="ma36d10c62b" d="M 0 0 
L 0 3.5 
" style="stroke: var(--fg-color); stroke-width: 0.8"/>
      </defs>
      <g>
       <use xlink:href="#ma36d10c62b" x="69.784035" y="103.4" style="fill: var(--fg-color); stroke: var(--fg-color); stroke-width: 0.8"/>
      </g>
     </g>
     <g id="text_1">
      <text style="font-size: 7px; font-family: 'DejaVu Sans', 'Bitstream Vera Sans', 'Computer Modern Sans Serif', 'Lucida Grande', 'Verdana', 'Geneva', 'Lucid', 'Arial', 'Helvetica', 'Avant Garde', sans-serif; text-anchor: middle; fill: var(--fg-color)" x="69.784035" y="115.718359" transform="rotate(-0 69.784035 115.718359)">02/2026</text>
     </g>
    </g>
    <g id="xtick_2">
     <g id="line2d_3">
      <path d="M 122.345302 103.4 
L 122.345302 5 
" clip-path="url(#p17edc2a89b)" style="fill: none; stroke-dasharray: 2.96,1.28; stroke-dashoffset: 0; stroke: var(--grid-color); stroke-width: 0.8"/>
     </g>
     <g id="line2d_4">
      <g>
       <use xlink:href="#ma36d10c62b" x="122.345302" y="103.4" style="fill: var(--fg-color); stroke: var(--fg-color); stroke-width: 0.8"/>
      </g>
     </g>
     <g id="text_2">
      <text style="font-size: 7px; font-family: 'DejaVu Sans', 'Bitstream Vera Sans', 'Computer Modern Sans Serif', 'Lucida Grande', 'Verdana', 'Geneva', 'Lucid', 'Arial', 'Helvetica', 'Avant Garde', sans-serif; text-anchor: middle; fill: var(--fg-color)" x="122.345302" y="115.718359" transform="rotate(-0 122.345302 115.718359)">04/2026</text>
     </g>
    </g>
    <g id="xtick_3">
     <g id="line2d_5">
      <path d="M 176.688307 103.4 
L 176.688307 5 
" clip-path="url(#p17edc2a89b)" style="fill: none; stroke-dasharray: 2.96,1.28; stroke-dashoffset: 0; stroke: var(--grid-color); stroke-width: 0.8"/>
     </g>
     <g id="line2d_6">
      <g>
       <use xlink:href="#ma36d10c62b" x="176.688307" y="103.4" style="fill: var(--fg-color); stroke: var(--fg-color); stroke-width: 0.8"/>
      </g>
     </g>
     <g id="text_3">
      <text style="font-size: 7px; font-family: 'DejaVu Sans', 'Bitstream Vera Sans', 'Computer Modern Sans Serif', 'Lucida Grande', 'Verdana', 'Geneva', 'Lucid', 'Arial', 'Helvetica', 'Avant Garde', sans-serif; text-anchor: middle; fill: var(--fg-color)" x="176.688307" y="115.718359" transform="rotate(-0 176.688307 115.718359)">06/2026</text>
     </g>
    </g>
   </g>
   <g id="matplotlib.axis_2">
    <g id="ytick_1">
     <g id="line2d_7">
      <path d="M 35.96 99.725347 
L 211 99.725347 
" clip-path="url(#p17edc2a89b)" style="fill: none; stroke-dasharray: 2.96,1.28; stroke-dashoffset: 0; stroke: var(--grid-color); stroke-width: 0.8"/>
     </g>
     <g id="line2d_8">
      <defs>
       <path id="m03f147cef1" d="M 0 0 
L -3.5 0 
" style="stroke: var(--fg-color); stroke-width: 0.8"/>
      </defs>
      <g>
       <use xlink:href="#m03f147cef1" x="35.96" y="99.725347" style="fill: var(--fg-color); stroke: var(--fg-color); stroke-width: 0.8"/>
      </g>
     </g>
     <g id="text_4">
      <text style="font-size: 7px; font-family: 'DejaVu Sans', 'Bitstream Vera Sans', 'Computer Modern Sans Serif', 'Lucida Grande', 'Verdana', 'Geneva', 'Lucid', 'Arial', 'Helvetica', 'Avant Garde', sans-serif; text-anchor: end; fill: var(--fg-color)" x="28.96" y="102.384526" transform="rotate(-0 28.96 102.384526)">0</text>
     </g>
    </g>
    <g id="ytick_2">
     <g id="line2d_9">
      <path d="M 35.96 84.448282 
L 211 84.448282 
" clip-path="url(#p17edc2a89b)" style="fill: none; stroke-dasharray: 2.96,1.28; stroke-dashoffset: 0; stroke: var(--grid-color); stroke-width: 0.8"/>
     </g>
     <g id="line2d_10">
      <g>
       <use xlink:href="#m03f147cef1" x="35.96" y="84.448282" style="fill: var(--fg-color); stroke: var(--fg-color); stroke-width: 0.8"/>
      </g>
     </g>
     <g id="text_5">
      <text style="font-size: 7px; font-family: 'DejaVu Sans', 'Bitstream Vera Sans', 'Computer Modern Sans Serif', 'Lucida Grande', 'Verdana', 'Geneva', 'Lucid', 'Arial', 'Helvetica', 'Avant Garde', sans-serif; text-anchor: end; fill: var(--fg-color)" x="28.96" y="87.107462" transform="rotate(-0 28.96 87.107462)">25</text>
     </g>
    </g>
    <g id="ytick_3">
     <g id="line2d_11">
      <path d="M 35.96 69.171218 
L 211 69.171218 
" clip-path="url(#p17edc2a89b)" style="fill: none; stroke-dasharray: 2.96,1.28; stroke-dashoffset: 0; stroke: var(--grid-color); stroke-width: 0.8"/>
     </g>
     <g id="line2d_12">
      <g>
       <use xlink:href="#m03f147cef1" x="35.96" y="69.171218" style="fill: var(--fg-color); stroke: var(--fg-color); stroke-width: 0.8"/>
      </g>
     </g>
     <g id="text_6">
      <text style="font-size: 7px; font-family: 'DejaVu Sans', 'Bitstream Vera Sans', 'Computer Modern Sans Serif', 'Lucida Grande', 'Verdana', 'Geneva', 'Lucid', 'Arial', 'Helvetica', 'Avant Garde', sans-serif; text-anchor: end; fill: var(--fg-color)" x="28.96" y="71.830397" transform="rotate(-0 28.96 71.830397)">50</text>
     </g>
    </g>
    <g id="ytick_4">
     <g id="line2d_13">
      <path d="M 35.96 53.894153 
L 211 53.894153 
" clip-path="url(#p17edc2a89b)" style="fill: none; stroke-dasharray: 2.96,1.28; stroke-dashoffset: 0; stroke: var(--grid-color); stroke-width: 0.8"/>
     </g>
     <g id="line2d_14">
      <g>
       <use xlink:href="#m03f147cef1" x="35.96" y="53.894153" style="fill: var(--fg-color); stroke: var(--fg-color); stroke-width: 0.8"/>
      </g>
     </g>
     <g id="text_7">
      <text style="font-size: 7px; font-family: 'DejaVu Sans', 'Bitstream Vera Sans', 'Computer Modern Sans Serif', 'Lucida Grande', 'Verdana', 'Geneva', 'Lucid', 'Arial', 'Helvetica', 'Avant Garde', sans-serif; text-anchor: end; fill: var(--fg-color)" x="28.96" y="56.553333" transform="rotate(-0 28.96 56.553333)">75</text>
     </g>
    </g>
    <g id="ytick_5">
     <g id="line2d_15">
      <path d="M 35.96 38.617089 
L 211 38.617089 
" clip-path="url(#p17edc2a89b)" style="fill: none; stroke-dasharray: 2.96,1.28; stroke-dashoffset: 0; stroke: var(--grid-color); stroke-width: 0.8"/>
     </g>
     <g id="line2d_16">
      <g>
       <use xlink:href="#m03f147cef1" x="35.96" y="38.617089" style="fill: var(--fg-color); stroke: var(--fg-color); stroke-width: 0.8"/>
      </g>
     </g>
     <g id="text_8">
      <text style="font-size: 7px; font-family: 'DejaVu Sans', 'Bitstream Vera Sans', 'Computer Modern Sans Serif', 'Lucida Grande', 'Verdana', 'Geneva', 'Lucid', 'Arial', 'Helvetica', 'Avant Garde', sans-serif; text-anchor: end; fill: var(--fg-color)" x="28.96" y="41.276268" transform="rotate(-0 28.96 41.276268)">100</text>
     </g>
    </g>
    <g id="ytick_6">
     <g id="line2d_17">
      <path d="M 35.96 23.340024 
L 211 23.340024 
" clip-path="url(#p17edc2a89b)" style="fill: none; stroke-dasharray: 2.96,1.28; stroke-dashoffset: 0; stroke: var(--grid-color); stroke-width: 0.8"/>
     </g>
     <g id="line2d_18">
      <g>
       <use xlink:href="#m03f147cef1" x="35.96" y="23.340024" style="fill: var(--fg-color); stroke: var(--fg-color); stroke-width: 0.8"/>
      </g>
     </g>
     <g id="text_9">
      <text style="font-size: 7px; font-family: 'DejaVu Sans', 'Bitstream Vera Sans', 'Computer Modern Sans Serif', 'Lucida Grande', 'Verdana', 'Geneva', 'Lucid', 'Arial', 'Helvetica', 'Avant Garde', sans-serif; text-anchor: end; fill: var(--fg-color)" x="28.96" y="25.999204" transform="rotate(-0 28.96 25.999204)">125</text>
     </g>
    </g>
    <g id="ytick_7">
     <g id="line2d_19">
      <path d="M 35.96 8.06296 
L 211 8.06296 
" clip-path="url(#p17edc2a89b)" style="fill: none; stroke-dasharray: 2.96,1.28; stroke-dashoffset: 0; stroke: var(--grid-color); stroke-width: 0.8"/>
     </g>
     <g id="line2d_20">
      <g>
       <use xlink:href="#m03f147cef1" x="35.96" y="8.06296" style="fill: var(--fg-color); stroke: var(--fg-color); stroke-width: 0.8"/>
      </g>
     </g>
     <g id="text_10">
      <text style="font-size: 7px; font-family: 'DejaVu Sans', 'Bitstream Vera Sans', 'Computer Modern Sans Serif', 'Lucida Grande', 'Verdana', 'Geneva', 'Lucid', 'Arial', 'Helvetica', 'Avant Garde', sans-serif; text-anchor: end; fill: var(--fg-color)" x="28.96" y="10.722139" transform="rotate(-0 28.96 10.722139)">150</text>
     </g>
    </g>
    <g id="text_11">
     <text style="font-size: 7px; font-family: 'DejaVu Sans', 'Bitstream Vera Sans', 'Computer Modern Sans Serif', 'Lucida Grande', 'Verdana', 'Geneva', 'Lucid', 'Arial', 'Helvetica', 'Avant Garde', sans-serif; text-anchor: middle; fill: var(--fg-color)" x="9.917109" y="54.2" transform="rotate(-90 9.917109 54.2)">ms</text>
    </g>
   </g>
   <g id="line2d_21">
    <path d="M 43.916364 75.414037 
L 45.3595 79.810165 
L 46.250371 78.393676 
L 47.141245 75.33643 
L 48.032112 77.440387 
L 48.922979 77.184955 
L 49.81384 75.564364 
L 50.704717 80.463413 
L 52.486458 72.243741 
L 53.377327 75.7428 
L 54.268192 77.528994 
L 55.159063 65.75771 
L 56.049934 76.830527 
L 56.940797 77.112236 
L 57.831669 79.169751 
L 58.722538 78.324013 
L 59.613407 71.467666 
L 60.504275 77.307171 
L 61.395144 76.938688 
L 62.286016 78.665608 
L 63.176879 76.033675 
L 64.067746 75.524032 
L 64.958622 74.838397 
L 65.84949 77.714152 
L 66.740361 77.27845 
L 67.631226 75.9799 
L 68.522078 72.820603 
L 69.412965 76.13267 
L 70.30383 76.22861 
L 71.194705 76.573872 
L 72.085571 76.451655 
L 72.976442 76.642924 
L 73.867306 74.01588 
L 74.758184 76.919745 
L 75.649039 73.769614 
L 76.539914 78.423619 
L 77.430784 74.463804 
L 78.321655 76.255498 
L 79.212509 74.575632 
L 80.103391 76.15528 
L 80.994245 73.973716 
L 81.885129 78.436452 
L 82.775998 72.584114 
L 83.666869 72.577392 
L 84.557735 75.311986 
L 85.44861 75.778854 
L 94.53997 73.27036 
L 95.248438 69.432761 
L 96.139324 75.22949 
L 97.030192 71.346061 
L 97.921065 74.831676 
L 98.811931 76.374048 
L 99.702798 73.581401 
L 100.593666 73.098645 
L 101.484533 76.100283 
L 102.375401 73.133477 
L 103.266272 72.718552 
L 104.157138 67.194977 
L 105.048009 73.693229 
L 105.93888 72.172244 
L 106.829748 68.954283 
L 107.720614 74.76629 
L 108.611487 72.016418 
L 109.502352 70.892637 
L 110.393224 72.488785 
L 111.284094 75.902903 
L 112.17496 73.448185 
L 113.065834 71.434056 
L 113.956695 68.461751 
L 114.847564 71.140126 
L 115.738441 69.275102 
L 116.629309 72.088526 
L 117.520178 72.336014 
L 118.41104 75.778854 
L 119.301913 72.693498 
L 120.192782 70.61215 
L 121.083649 65.858539 
L 121.97452 74.463804 
L 125.537994 74.013436 
L 126.428869 72.255351 
L 128.210603 73.432908 
L 129.101474 70.013289 
L 129.992342 73.839889 
L 130.883214 75.747688 
L 131.774065 71.840426 
L 133.55582 70.362218 
L 134.446686 73.861276 
L 135.337558 70.371995 
L 136.228424 73.531292 
L 137.119294 74.075155 
L 138.010159 72.402011 
L 138.901032 58.470551 
L 139.791912 73.576512 
L 141.57364 74.353198 
L 142.464507 70.58954 
L 143.355376 71.705377 
L 144.246246 73.681618 
L 145.137113 72.675165 
L 146.027984 69.895962 
L 146.918849 73.544736 
L 173.644977 73.544736 
L 181.959197 71.007521 
L 182.553652 9.472727 
L 183.444521 69.111943 
L 184.335387 76.210278 
L 185.226256 73.637009 
L 186.117131 74.051323 
L 187.007996 69.98518 
L 187.898864 72.433788 
L 188.789731 72.973985 
L 189.680603 73.002094 
L 190.571474 74.722903 
L 191.462343 74.664239 
L 192.353215 75.954845 
L 193.244077 74.391085 
L 194.134949 43.165376 
L 195.025817 74.408806 
L 195.916688 56.116049 
L 196.807557 73.910163 
L 197.698426 74.157651 
L 198.589295 73.633954 
L 199.480162 73.691395 
L 200.371032 61.798506 
L 201.261898 68.964061 
L 202.152766 21.855705 
L 203.043636 71.421835 
L 203.043636 71.421835 
" clip-path="url(#p17edc2a89b)" style="fill: none; stroke: #339af0; stroke-width: 1.2; stroke-linecap: square"/>
   </g>
   <g id="line2d_22">
    <path d="M 43.916364 98.299691 
L 44.468628 98.87472 
L 52.486458 98.852721 
L 53.377327 98.832555 
L 54.268192 98.341245 
L 55.159063 98.888775 
L 59.613407 98.819111 
L 60.504275 98.893052 
L 64.067746 98.77878 
L 70.30383 98.815445 
L 71.194705 98.247749 
L 72.085571 98.905274 
L 74.758184 98.842332 
L 77.430784 98.89183 
L 80.103391 98.927273 
L 81.885129 98.806278 
L 82.775998 98.896719 
L 85.44861 98.821555 
L 118.41104 98.808723 
L 120.192782 98.743948 
L 121.97452 98.74517 
L 128.210603 98.768391 
L 129.101474 98.700561 
L 129.992342 98.819722 
L 131.774065 98.707283 
L 134.446686 98.772058 
L 135.337558 98.704228 
L 136.228424 98.820333 
L 137.119294 98.721338 
L 140.68277 98.793446 
L 146.918849 98.742726 
L 183.444521 98.76778 
L 184.335387 98.872275 
L 191.462343 98.825222 
L 194.134949 98.853332 
L 203.043636 98.826444 
L 203.043636 98.826444 
" clip-path="url(#p17edc2a89b)" style="fill: none; stroke: #ff6b6b; stroke-width: 1.2; stroke-linecap: square"/>
   </g>
   <g id="patch_3">
    <path d="M 35.96 103.4 
L 35.96 5 
" style="fill: none; stroke: var(--fg-color); stroke-width: 0.8; stroke-linejoin: miter; stroke-linecap: square"/>
   </g>
   <g id="patch_4">
    <path d="M 35.96 103.4 
L 211 103.4 
" style="fill: none; stroke: var(--fg-color); stroke-width: 0.8; stroke-linejoin: miter; stroke-linecap: square"/>
   </g>
  </g>
 </g>
 <defs>
  <clipPath id="p17edc2a89b">
   <rect x="35.96" y="5" width="175.04" height="98.4"/>
  </clipPath>
 </defs>
</svg>
