<?xml version="1.0" encoding="utf-8" standalone="no"?>
<!DOCTYPE svg PUBLIC "-//W3C//DTD SVG 1.1//EN"
  "http://www.w3.org/Graphics/SVG/1.1/DTD/svg11.dtd">
<svg xmlns:xlink="http://www.w3.org/1999/xlink" width="216pt" height="122.4pt" viewBox="0 0 216 122.4" xmlns="http://www.w3.org/2000/svg" version="1.1">
  <style>
    :root {
      --fg-color: #212529;
      --grid-color: rgba(33, 37, 41, 0.1);
    }
    @media (prefers-color-scheme: dark) {
      :root {
        --fg-color: #dee2e6;
        --grid-color: rgba(248, 249, 250, 0.15);
      }
    }
  </style>

 <metadata>
  <rdf:RDF xmlns:dc="http://purl.org/dc/elements/1.1/" xmlns:cc="http://creativecommons.org/ns#" xmlns:rdf="http://www.w3.org/1999/02/22-rdf-syntax-ns#">
   <cc:Work>
    <dc:type rdf:resource="http://purl.org/dc/dcmitype/StillImage"/>
    <dc:date>2026-06-30T04:48:13.788603</dc:date>
    <dc:format>image/svg+xml</dc:format>
    <dc:creator>
     <cc:Agent>
      <dc:title>Matplotlib v3.11.0, https://matplotlib.org/</dc:title>
     </cc:Agent>
    </dc:creator>
   </cc:Work>
  </rdf:RDF>
 </metadata>
 <defs>
  <style type="text/css">*{stroke-linejoin: round; stroke-linecap: butt}</style>
 </defs>
 <g id="figure_1">
  <g id="patch_1">
   <path d="M 0 122.4 
L 216 122.4 
L 216 0 
L 0 0 
L 0 122.4 
z
" style="fill: none; opacity: 0"/>
  </g>
  <g id="axes_1">
   <g id="patch_2">
    <path d="M 35.96 103.4 
L 211 103.4 
L 211 5 
L 35.96 5 
L 35.96 103.4 
z
" style="fill: none; opacity: 0"/>
   </g>
   <g id="matplotlib.axis_1">
    <g id="xtick_1">
     <g id="line2d_1">
      <path d="M 70.996911 103.4 
L 70.996911 5 
" clip-path="url(#p79bb496ee0)" style="fill: none; stroke-dasharray: 2.96,1.28; stroke-dashoffset: 0; stroke: var(--grid-color); stroke-width: 0.8"/>
     </g>
     <g id="line2d_2">
      <defs>
       <path id="mcf9bf67d36" d="M 0 0 
L 0 3.5 
" style="stroke: var(--fg-color); stroke-width: 0.8"/>
      </defs>
      <g>
       <use xlink:href="#mcf9bf67d36" x="70.996911" y="103.4" style="fill: var(--fg-color); stroke: var(--fg-color); stroke-width: 0.8"/>
      </g>
     </g>
     <g id="text_1">
      <text style="font-size: 7px; font-family: 'DejaVu Sans', 'Bitstream Vera Sans', 'Computer Modern Sans Serif', 'Lucida Grande', 'Verdana', 'Geneva', 'Lucid', 'Arial', 'Helvetica', 'Avant Garde', sans-serif; text-anchor: middle; fill: var(--fg-color)" x="70.996911" y="115.718359" transform="rotate(-0 70.996911 115.718359)">02/2026</text>
     </g>
    </g>
    <g id="xtick_2">
     <g id="line2d_3">
      <path d="M 126.022656 103.4 
L 126.022656 5 
" clip-path="url(#p79bb496ee0)" style="fill: none; stroke-dasharray: 2.96,1.28; stroke-dashoffset: 0; stroke: var(--grid-color); stroke-width: 0.8"/>
     </g>
     <g id="line2d_4">
      <g>
       <use xlink:href="#mcf9bf67d36" x="126.022656" y="103.4" style="fill: var(--fg-color); stroke: var(--fg-color); stroke-width: 0.8"/>
      </g>
     </g>
     <g id="text_2">
      <text style="font-size: 7px; font-family: 'DejaVu Sans', 'Bitstream Vera Sans', 'Computer Modern Sans Serif', 'Lucida Grande', 'Verdana', 'Geneva', 'Lucid', 'Arial', 'Helvetica', 'Avant Garde', sans-serif; text-anchor: middle; fill: var(--fg-color)" x="126.022656" y="115.718359" transform="rotate(-0 126.022656 115.718359)">04/2026</text>
     </g>
    </g>
    <g id="xtick_3">
     <g id="line2d_5">
      <path d="M 182.913681 103.4 
L 182.913681 5 
" clip-path="url(#p79bb496ee0)" style="fill: none; stroke-dasharray: 2.96,1.28; stroke-dashoffset: 0; stroke: var(--grid-color); stroke-width: 0.8"/>
     </g>
     <g id="line2d_6">
      <g>
       <use xlink:href="#mcf9bf67d36" x="182.913681" y="103.4" style="fill: var(--fg-color); stroke: var(--fg-color); stroke-width: 0.8"/>
      </g>
     </g>
     <g id="text_3">
      <text style="font-size: 7px; font-family: 'DejaVu Sans', 'Bitstream Vera Sans', 'Computer Modern Sans Serif', 'Lucida Grande', 'Verdana', 'Geneva', 'Lucid', 'Arial', 'Helvetica', 'Avant Garde', sans-serif; text-anchor: middle; fill: var(--fg-color)" x="182.913681" y="115.718359" transform="rotate(-0 182.913681 115.718359)">06/2026</text>
     </g>
    </g>
   </g>
   <g id="matplotlib.axis_2">
    <g id="ytick_1">
     <g id="line2d_7">
      <path d="M 35.96 99.423975 
L 211 99.423975 
" clip-path="url(#p79bb496ee0)" style="fill: none; stroke-dasharray: 2.96,1.28; stroke-dashoffset: 0; stroke: var(--grid-color); stroke-width: 0.8"/>
     </g>
     <g id="line2d_8">
      <defs>
       <path id="m520b2b4d86" d="M 0 0 
L -3.5 0 
" style="stroke: var(--fg-color); stroke-width: 0.8"/>
      </defs>
      <g>
       <use xlink:href="#m520b2b4d86" x="35.96" y="99.423975" style="fill: var(--fg-color); stroke: var(--fg-color); stroke-width: 0.8"/>
      </g>
     </g>
     <g id="text_4">
      <text style="font-size: 7px; font-family: 'DejaVu Sans', 'Bitstream Vera Sans', 'Computer Modern Sans Serif', 'Lucida Grande', 'Verdana', 'Geneva', 'Lucid', 'Arial', 'Helvetica', 'Avant Garde', sans-serif; text-anchor: end; fill: var(--fg-color)" x="28.96" y="102.083154" transform="rotate(-0 28.96 102.083154)">0</text>
     </g>
    </g>
    <g id="ytick_2">
     <g id="line2d_9">
      <path d="M 35.96 79.508099 
L 211 79.508099 
" clip-path="url(#p79bb496ee0)" style="fill: none; stroke-dasharray: 2.96,1.28; stroke-dashoffset: 0; stroke: var(--grid-color); stroke-width: 0.8"/>
     </g>
     <g id="line2d_10">
      <g>
       <use xlink:href="#m520b2b4d86" x="35.96" y="79.508099" style="fill: var(--fg-color); stroke: var(--fg-color); stroke-width: 0.8"/>
      </g>
     </g>
     <g id="text_5">
      <text style="font-size: 7px; font-family: 'DejaVu Sans', 'Bitstream Vera Sans', 'Computer Modern Sans Serif', 'Lucida Grande', 'Verdana', 'Geneva', 'Lucid', 'Arial', 'Helvetica', 'Avant Garde', sans-serif; text-anchor: end; fill: var(--fg-color)" x="28.96" y="82.167279" transform="rotate(-0 28.96 82.167279)">50</text>
     </g>
    </g>
    <g id="ytick_3">
     <g id="line2d_11">
      <path d="M 35.96 59.592223 
L 211 59.592223 
" clip-path="url(#p79bb496ee0)" style="fill: none; stroke-dasharray: 2.96,1.28; stroke-dashoffset: 0; stroke: var(--grid-color); stroke-width: 0.8"/>
     </g>
     <g id="line2d_12">
      <g>
       <use xlink:href="#m520b2b4d86" x="35.96" y="59.592223" style="fill: var(--fg-color); stroke: var(--fg-color); stroke-width: 0.8"/>
      </g>
     </g>
     <g id="text_6">
      <text style="font-size: 7px; font-family: 'DejaVu Sans', 'Bitstream Vera Sans', 'Computer Modern Sans Serif', 'Lucida Grande', 'Verdana', 'Geneva', 'Lucid', 'Arial', 'Helvetica', 'Avant Garde', sans-serif; text-anchor: end; fill: var(--fg-color)" x="28.96" y="62.251403" transform="rotate(-0 28.96 62.251403)">100</text>
     </g>
    </g>
    <g id="ytick_4">
     <g id="line2d_13">
      <path d="M 35.96 39.676348 
L 211 39.676348 
" clip-path="url(#p79bb496ee0)" style="fill: none; stroke-dasharray: 2.96,1.28; stroke-dashoffset: 0; stroke: var(--grid-color); stroke-width: 0.8"/>
     </g>
     <g id="line2d_14">
      <g>
       <use xlink:href="#m520b2b4d86" x="35.96" y="39.676348" style="fill: var(--fg-color); stroke: var(--fg-color); stroke-width: 0.8"/>
      </g>
     </g>
     <g id="text_7">
      <text style="font-size: 7px; font-family: 'DejaVu Sans', 'Bitstream Vera Sans', 'Computer Modern Sans Serif', 'Lucida Grande', 'Verdana', 'Geneva', 'Lucid', 'Arial', 'Helvetica', 'Avant Garde', sans-serif; text-anchor: end; fill: var(--fg-color)" x="28.96" y="42.335527" transform="rotate(-0 28.96 42.335527)">150</text>
     </g>
    </g>
    <g id="ytick_5">
     <g id="line2d_15">
      <path d="M 35.96 19.760472 
L 211 19.760472 
" clip-path="url(#p79bb496ee0)" style="fill: none; stroke-dasharray: 2.96,1.28; stroke-dashoffset: 0; stroke: var(--grid-color); stroke-width: 0.8"/>
     </g>
     <g id="line2d_16">
      <g>
       <use xlink:href="#m520b2b4d86" x="35.96" y="19.760472" style="fill: var(--fg-color); stroke: var(--fg-color); stroke-width: 0.8"/>
      </g>
     </g>
     <g id="text_8">
      <text style="font-size: 7px; font-family: 'DejaVu Sans', 'Bitstream Vera Sans', 'Computer Modern Sans Serif', 'Lucida Grande', 'Verdana', 'Geneva', 'Lucid', 'Arial', 'Helvetica', 'Avant Garde', sans-serif; text-anchor: end; fill: var(--fg-color)" x="28.96" y="22.419652" transform="rotate(-0 28.96 22.419652)">200</text>
     </g>
    </g>
    <g id="text_9">
     <text style="font-size: 7px; font-family: 'DejaVu Sans', 'Bitstream Vera Sans', 'Computer Modern Sans Serif', 'Lucida Grande', 'Verdana', 'Geneva', 'Lucid', 'Arial', 'Helvetica', 'Avant Garde', sans-serif; text-anchor: middle; fill: var(--fg-color)" x="9.917109" y="54.2" transform="rotate(-90 9.917109 54.2)">ms</text>
    </g>
   </g>
   <g id="line2d_17">
    <path d="M 43.916364 43.165211 
L 44.494523 84.572706 
L 45.427166 83.249894 
L 46.359808 82.027457 
L 47.292453 84.604572 
L 48.22509 85.168988 
L 49.157727 78.835739 
L 50.090359 84.621301 
L 51.023007 79.335628 
L 51.95565 85.002889 
L 52.88829 85.231125 
L 53.82093 84.455203 
L 54.753566 78.403963 
L 55.686208 83.77169 
L 56.618849 85.229532 
L 57.551483 84.713312 
L 58.484126 83.237546 
L 59.416765 83.195324 
L 60.349406 84.726855 
L 61.282045 84.743584 
L 62.214684 81.733897 
L 63.147327 84.963456 
L 64.07996 82.987801 
L 65.012598 82.851178 
L 65.945245 86.518089 
L 66.877884 78.830163 
L 67.810526 82.965893 
L 68.743162 81.507653 
L 69.675784 82.47437 
L 70.608443 85.626256 
L 71.541078 80.983069 
L 72.473724 80.998205 
L 73.406361 83.664941 
L 74.339003 84.198288 
L 75.271637 78.892698 
L 76.204286 82.224624 
L 77.136912 84.00351 
L 78.069558 84.424134 
L 79.002199 85.018423 
L 79.934841 83.055515 
L 80.867465 75.865087 
L 81.800118 82.726903 
L 82.732742 80.0287 
L 83.665398 80.640516 
L 84.598038 85.425504 
L 85.53068 81.072292 
L 86.463316 82.983419 
L 87.395962 84.183948 
L 96.913595 85.672063 
L 97.655282 85.590806 
L 98.587939 79.680172 
L 99.520578 84.549604 
L 100.453222 78.81662 
L 101.385859 83.960094 
L 102.318497 82.826084 
L 103.251135 82.441309 
L 104.183773 80.754036 
L 105.116412 82.021881 
L 106.049054 79.736733 
L 106.981691 81.948192 
L 107.914333 81.347131 
L 108.846974 76.925408 
L 109.779613 82.041797 
L 110.71225 80.895041 
L 111.644893 82.59745 
L 112.57753 81.809976 
L 113.510173 79.873356 
L 114.442814 79.43202 
L 115.37545 77.205824 
L 116.308095 81.696455 
L 117.240726 82.644053 
L 118.173367 81.960142 
L 119.106014 82.317432 
L 120.038653 79.927129 
L 120.971293 81.70243 
L 121.903926 76.529879 
L 122.836569 81.843036 
L 123.769209 79.421664 
L 124.701847 82.364036 
L 125.634489 81.403294 
L 129.365046 69.233897 
L 130.297692 81.468618 
L 131.230328 81.08703 
L 132.162968 82.738852 
L 133.095609 83.112076 
L 134.028248 83.136772 
L 134.960891 77.529656 
L 135.893512 82.331772 
L 136.826165 80.284022 
L 137.75881 81.712786 
L 138.691446 82.066891 
L 139.624089 80.912567 
L 140.556726 80.54014 
L 141.489366 82.635688 
L 142.422003 82.54049 
L 143.354646 81.011748 
L 144.287298 82.440114 
L 145.219926 81.267467 
L 146.152567 79.754259 
L 147.085204 80.812589 
L 148.017844 80.937661 
L 148.950485 82.170055 
L 149.883123 81.333986 
L 150.815765 81.83507 
L 151.7484 80.471629 
L 179.727656 80.471629 
L 188.43171 9.472727 
L 189.054038 81.762178 
L 189.986678 80.609447 
L 190.919315 82.04339 
L 191.851955 79.949833 
L 192.7846 81.685303 
L 193.717237 80.354125 
L 194.649875 82.492294 
L 195.582513 82.928053 
L 196.515156 81.370233 
L 197.447798 83.354253 
L 198.380437 82.867509 
L 199.313081 81.246755 
L 200.245713 82.685478 
L 201.178356 81.492915 
L 202.110995 83.520351 
L 203.043636 82.482734 
" clip-path="url(#p79bb496ee0)" style="fill: none; stroke: #339af0; stroke-width: 1.2; stroke-linecap: square"/>
   </g>
   <g id="line2d_18">
    <path d="M 43.916364 98.888238 
L 44.494523 98.921696 
L 45.427166 98.900187 
L 46.359808 98.856771 
L 47.292453 98.841236 
L 48.22509 98.865135 
L 49.157727 98.882263 
L 50.090359 98.851194 
L 51.023007 98.885449 
L 51.95565 98.48753 
L 52.88829 98.926078 
L 53.82093 98.898196 
L 54.753566 98.91134 
L 55.686208 98.906162 
L 56.618849 98.90656 
L 57.551483 98.878678 
L 58.484126 98.8735 
L 59.416765 98.886644 
L 60.349406 98.882263 
L 61.282045 98.879475 
L 62.214684 98.876686 
L 63.147327 98.897399 
L 64.07996 98.895806 
L 65.012598 98.927273 
L 65.945245 98.873102 
L 66.877884 98.893814 
L 67.810526 98.881466 
L 68.743162 98.836456 
L 69.675784 98.841236 
L 70.608443 98.883059 
L 71.541078 98.890229 
L 72.473724 98.893416 
L 73.406361 98.898594 
L 74.339003 98.894611 
L 75.271637 98.900187 
L 76.204286 98.843228 
L 77.136912 98.900585 
L 78.069558 98.896204 
L 79.002199 98.844821 
L 79.934841 98.900187 
L 80.867465 98.903374 
L 81.800118 98.861949 
L 82.732742 98.926476 
L 83.665398 98.856771 
L 84.598038 98.911738 
L 85.53068 98.914128 
L 86.463316 98.876288 
L 87.395962 98.900585 
L 96.913595 98.911738 
L 97.655282 98.868322 
L 98.587939 98.856372 
L 99.520578 98.91134 
L 100.453222 98.865135 
L 101.385859 98.884653 
L 102.318497 98.580338 
L 103.251135 98.888238 
L 104.183773 98.528557 
L 105.116412 98.912535 
L 106.049054 98.87111 
L 106.981691 98.879475 
L 107.914333 98.883856 
L 108.846974 98.867525 
L 109.779613 98.90895 
L 110.71225 98.894611 
L 111.644893 98.861949 
L 112.57753 98.903374 
L 113.510173 98.848008 
L 114.442814 98.857965 
L 115.37545 98.888238 
L 116.308095 98.857169 
L 117.240726 98.899789 
L 118.173367 98.86155 
L 119.106014 98.872305 
L 120.038653 98.913332 
L 120.971293 98.894611 
L 121.903926 98.831278 
L 122.836569 98.74803 
L 123.769209 98.832075 
L 124.701847 98.856771 
L 125.634489 98.767946 
L 129.365046 98.816939 
L 130.297692 98.684697 
L 131.230328 98.775514 
L 132.162968 98.74325 
L 133.095609 98.843626 
L 134.028248 98.87111 
L 134.960891 98.781887 
L 135.893512 98.867923 
L 136.826165 98.465623 
L 137.75881 98.751216 
L 138.691446 98.367238 
L 139.624089 98.810167 
L 140.556726 98.414638 
L 141.489366 98.832871 
L 142.422003 98.734089 
L 143.354646 98.774717 
L 144.287298 98.744047 
L 145.219926 98.836855 
L 146.152567 98.754005 
L 147.085204 98.816142 
L 148.017844 98.770336 
L 148.950485 98.731699 
L 149.883123 98.370027 
L 150.815765 98.812557 
L 151.7484 98.73608 
L 179.727656 98.73608 
L 188.43171 98.827693 
L 189.054038 98.82849 
L 189.986678 98.824108 
L 190.919315 98.907357 
L 191.851955 98.845219 
L 192.7846 98.752013 
L 193.717237 98.899391 
L 194.649875 98.726122 
L 195.582513 98.495895 
L 196.515156 98.869915 
L 197.447798 98.912535 
L 198.380437 98.887043 
L 199.313081 98.884653 
L 200.245713 98.892619 
L 201.178356 98.863542 
L 202.110995 98.899391 
L 203.043636 98.856771 
" clip-path="url(#p79bb496ee0)" style="fill: none; stroke: #ff6b6b; stroke-width: 1.2; stroke-linecap: square"/>
   </g>
   <g id="patch_3">
    <path d="M 35.96 103.4 
L 35.96 5 
" style="fill: none; stroke: var(--fg-color); stroke-width: 0.8; stroke-linejoin: miter; stroke-linecap: square"/>
   </g>
   <g id="patch_4">
    <path d="M 35.96 103.4 
L 211 103.4 
" style="fill: none; stroke: var(--fg-color); stroke-width: 0.8; stroke-linejoin: miter; stroke-linecap: square"/>
   </g>
  </g>
 </g>
 <defs>
  <clipPath id="p79bb496ee0">
   <rect x="35.96" y="5" width="175.04" height="98.4"/>
  </clipPath>
 </defs>
</svg>
