<?xml version="1.0" encoding="utf-8" standalone="no"?>
<!DOCTYPE svg PUBLIC "-//W3C//DTD SVG 1.1//EN"
  "http://www.w3.org/Graphics/SVG/1.1/DTD/svg11.dtd">
<svg xmlns:xlink="http://www.w3.org/1999/xlink" width="216pt" height="122.4pt" viewBox="0 0 216 122.4" xmlns="http://www.w3.org/2000/svg" version="1.1">
  <style>
    :root {
      --fg-color: #212529;
      --grid-color: rgba(33, 37, 41, 0.1);
    }
    @media (prefers-color-scheme: dark) {
      :root {
        --fg-color: #dee2e6;
        --grid-color: rgba(248, 249, 250, 0.15);
      }
    }
  </style>

 <metadata>
  <rdf:RDF xmlns:dc="http://purl.org/dc/elements/1.1/" xmlns:cc="http://creativecommons.org/ns#" xmlns:rdf="http://www.w3.org/1999/02/22-rdf-syntax-ns#">
   <cc:Work>
    <dc:type rdf:resource="http://purl.org/dc/dcmitype/StillImage"/>
    <dc:date>2026-06-30T15:38:05.270108</dc:date>
    <dc:format>image/svg+xml</dc:format>
    <dc:creator>
     <cc:Agent>
      <dc:title>Matplotlib v3.11.0, https://matplotlib.org/</dc:title>
     </cc:Agent>
    </dc:creator>
   </cc:Work>
  </rdf:RDF>
 </metadata>
 <defs>
  <style type="text/css">*{stroke-linejoin: round; stroke-linecap: butt}</style>
 </defs>
 <g id="figure_1">
  <g id="patch_1">
   <path d="M 0 122.4 
L 216 122.4 
L 216 0 
L 0 0 
L 0 122.4 
z
" style="fill: none; opacity: 0"/>
  </g>
  <g id="axes_1">
   <g id="patch_2">
    <path d="M 35.96 103.4 
L 211 103.4 
L 211 6.537988 
L 35.96 6.537988 
L 35.96 103.4 
z
" style="fill: none; opacity: 0"/>
   </g>
   <g id="matplotlib.axis_1">
    <g id="xtick_1">
     <g id="line2d_1">
      <path d="M 69.784035 103.4 
L 69.784035 6.537988 
" clip-path="url(#p3ee8ab0b3b)" style="fill: none; stroke-dasharray: 2.96,1.28; stroke-dashoffset: 0; stroke: var(--grid-color); stroke-width: 0.8"/>
     </g>
     <g id="line2d_2">
      <defs>
       <path id="mc88e286e72" d="M 0 0 
L 0 3.5 
" style="stroke: var(--fg-color); stroke-width: 0.8"/>
      </defs>
      <g>
       <use xlink:href="#mc88e286e72" x="69.784035" y="103.4" style="fill: var(--fg-color); stroke: var(--fg-color); stroke-width: 0.8"/>
      </g>
     </g>
     <g id="text_1">
      <text style="font-size: 7px; font-family: 'DejaVu Sans', 'Bitstream Vera Sans', 'Computer Modern Sans Serif', 'Lucida Grande', 'Verdana', 'Geneva', 'Lucid', 'Arial', 'Helvetica', 'Avant Garde', sans-serif; text-anchor: middle; fill: var(--fg-color)" x="69.784035" y="115.718359" transform="rotate(-0 69.784035 115.718359)">02/2026</text>
     </g>
    </g>
    <g id="xtick_2">
     <g id="line2d_3">
      <path d="M 122.345302 103.4 
L 122.345302 6.537988 
" clip-path="url(#p3ee8ab0b3b)" style="fill: none; stroke-dasharray: 2.96,1.28; stroke-dashoffset: 0; stroke: var(--grid-color); stroke-width: 0.8"/>
     </g>
     <g id="line2d_4">
      <g>
       <use xlink:href="#mc88e286e72" x="122.345302" y="103.4" style="fill: var(--fg-color); stroke: var(--fg-color); stroke-width: 0.8"/>
      </g>
     </g>
     <g id="text_2">
      <text style="font-size: 7px; font-family: 'DejaVu Sans', 'Bitstream Vera Sans', 'Computer Modern Sans Serif', 'Lucida Grande', 'Verdana', 'Geneva', 'Lucid', 'Arial', 'Helvetica', 'Avant Garde', sans-serif; text-anchor: middle; fill: var(--fg-color)" x="122.345302" y="115.718359" transform="rotate(-0 122.345302 115.718359)">04/2026</text>
     </g>
    </g>
    <g id="xtick_3">
     <g id="line2d_5">
      <path d="M 176.688307 103.4 
L 176.688307 6.537988 
" clip-path="url(#p3ee8ab0b3b)" style="fill: none; stroke-dasharray: 2.96,1.28; stroke-dashoffset: 0; stroke: var(--grid-color); stroke-width: 0.8"/>
     </g>
     <g id="line2d_6">
      <g>
       <use xlink:href="#mc88e286e72" x="176.688307" y="103.4" style="fill: var(--fg-color); stroke: var(--fg-color); stroke-width: 0.8"/>
      </g>
     </g>
     <g id="text_3">
      <text style="font-size: 7px; font-family: 'DejaVu Sans', 'Bitstream Vera Sans', 'Computer Modern Sans Serif', 'Lucida Grande', 'Verdana', 'Geneva', 'Lucid', 'Arial', 'Helvetica', 'Avant Garde', sans-serif; text-anchor: middle; fill: var(--fg-color)" x="176.688307" y="115.718359" transform="rotate(-0 176.688307 115.718359)">06/2026</text>
     </g>
    </g>
   </g>
   <g id="matplotlib.axis_2">
    <g id="ytick_1">
     <g id="line2d_7">
      <path d="M 35.96 102.209903 
L 211 102.209903 
" clip-path="url(#p3ee8ab0b3b)" style="fill: none; stroke-dasharray: 2.96,1.28; stroke-dashoffset: 0; stroke: var(--grid-color); stroke-width: 0.8"/>
     </g>
     <g id="line2d_8">
      <defs>
       <path id="mb9092b55e6" d="M 0 0 
L -3.5 0 
" style="stroke: var(--fg-color); stroke-width: 0.8"/>
      </defs>
      <g>
       <use xlink:href="#mb9092b55e6" x="35.96" y="102.209903" style="fill: var(--fg-color); stroke: var(--fg-color); stroke-width: 0.8"/>
      </g>
     </g>
     <g id="text_4">
      <text style="font-size: 7px; font-family: 'DejaVu Sans', 'Bitstream Vera Sans', 'Computer Modern Sans Serif', 'Lucida Grande', 'Verdana', 'Geneva', 'Lucid', 'Arial', 'Helvetica', 'Avant Garde', sans-serif; text-anchor: end; fill: var(--fg-color)" x="28.96" y="104.869083" transform="rotate(-0 28.96 104.869083)">20</text>
     </g>
    </g>
    <g id="ytick_2">
     <g id="line2d_9">
      <path d="M 35.96 83.305978 
L 211 83.305978 
" clip-path="url(#p3ee8ab0b3b)" style="fill: none; stroke-dasharray: 2.96,1.28; stroke-dashoffset: 0; stroke: var(--grid-color); stroke-width: 0.8"/>
     </g>
     <g id="line2d_10">
      <g>
       <use xlink:href="#mb9092b55e6" x="35.96" y="83.305978" style="fill: var(--fg-color); stroke: var(--fg-color); stroke-width: 0.8"/>
      </g>
     </g>
     <g id="text_5">
      <text style="font-size: 7px; font-family: 'DejaVu Sans', 'Bitstream Vera Sans', 'Computer Modern Sans Serif', 'Lucida Grande', 'Verdana', 'Geneva', 'Lucid', 'Arial', 'Helvetica', 'Avant Garde', sans-serif; text-anchor: end; fill: var(--fg-color)" x="28.96" y="85.965158" transform="rotate(-0 28.96 85.965158)">40</text>
     </g>
    </g>
    <g id="ytick_3">
     <g id="line2d_11">
      <path d="M 35.96 64.402053 
L 211 64.402053 
" clip-path="url(#p3ee8ab0b3b)" style="fill: none; stroke-dasharray: 2.96,1.28; stroke-dashoffset: 0; stroke: var(--grid-color); stroke-width: 0.8"/>
     </g>
     <g id="line2d_12">
      <g>
       <use xlink:href="#mb9092b55e6" x="35.96" y="64.402053" style="fill: var(--fg-color); stroke: var(--fg-color); stroke-width: 0.8"/>
      </g>
     </g>
     <g id="text_6">
      <text style="font-size: 7px; font-family: 'DejaVu Sans', 'Bitstream Vera Sans', 'Computer Modern Sans Serif', 'Lucida Grande', 'Verdana', 'Geneva', 'Lucid', 'Arial', 'Helvetica', 'Avant Garde', sans-serif; text-anchor: end; fill: var(--fg-color)" x="28.96" y="67.061232" transform="rotate(-0 28.96 67.061232)">60</text>
     </g>
    </g>
    <g id="ytick_4">
     <g id="line2d_13">
      <path d="M 35.96 45.498127 
L 211 45.498127 
" clip-path="url(#p3ee8ab0b3b)" style="fill: none; stroke-dasharray: 2.96,1.28; stroke-dashoffset: 0; stroke: var(--grid-color); stroke-width: 0.8"/>
     </g>
     <g id="line2d_14">
      <g>
       <use xlink:href="#mb9092b55e6" x="35.96" y="45.498127" style="fill: var(--fg-color); stroke: var(--fg-color); stroke-width: 0.8"/>
      </g>
     </g>
     <g id="text_7">
      <text style="font-size: 7px; font-family: 'DejaVu Sans', 'Bitstream Vera Sans', 'Computer Modern Sans Serif', 'Lucida Grande', 'Verdana', 'Geneva', 'Lucid', 'Arial', 'Helvetica', 'Avant Garde', sans-serif; text-anchor: end; fill: var(--fg-color)" x="28.96" y="48.157307" transform="rotate(-0 28.96 48.157307)">80</text>
     </g>
    </g>
    <g id="ytick_5">
     <g id="line2d_15">
      <path d="M 35.96 26.594202 
L 211 26.594202 
" clip-path="url(#p3ee8ab0b3b)" style="fill: none; stroke-dasharray: 2.96,1.28; stroke-dashoffset: 0; stroke: var(--grid-color); stroke-width: 0.8"/>
     </g>
     <g id="line2d_16">
      <g>
       <use xlink:href="#mb9092b55e6" x="35.96" y="26.594202" style="fill: var(--fg-color); stroke: var(--fg-color); stroke-width: 0.8"/>
      </g>
     </g>
     <g id="text_8">
      <text style="font-size: 7px; font-family: 'DejaVu Sans', 'Bitstream Vera Sans', 'Computer Modern Sans Serif', 'Lucida Grande', 'Verdana', 'Geneva', 'Lucid', 'Arial', 'Helvetica', 'Avant Garde', sans-serif; text-anchor: end; fill: var(--fg-color)" x="28.96" y="29.253382" transform="rotate(-0 28.96 29.253382)">100</text>
     </g>
    </g>
    <g id="ytick_6">
     <g id="line2d_17">
      <path d="M 35.96 7.690276 
L 211 7.690276 
" clip-path="url(#p3ee8ab0b3b)" style="fill: none; stroke-dasharray: 2.96,1.28; stroke-dashoffset: 0; stroke: var(--grid-color); stroke-width: 0.8"/>
     </g>
     <g id="line2d_18">
      <g>
       <use xlink:href="#mb9092b55e6" x="35.96" y="7.690276" style="fill: var(--fg-color); stroke: var(--fg-color); stroke-width: 0.8"/>
      </g>
     </g>
     <g id="text_9">
      <text style="font-size: 7px; font-family: 'DejaVu Sans', 'Bitstream Vera Sans', 'Computer Modern Sans Serif', 'Lucida Grande', 'Verdana', 'Geneva', 'Lucid', 'Arial', 'Helvetica', 'Avant Garde', sans-serif; text-anchor: end; fill: var(--fg-color)" x="28.96" y="10.349456" transform="rotate(-0 28.96 10.349456)">120</text>
     </g>
    </g>
    <g id="text_10">
     <text style="font-size: 7px; font-family: 'DejaVu Sans', 'Bitstream Vera Sans', 'Computer Modern Sans Serif', 'Lucida Grande', 'Verdana', 'Geneva', 'Lucid', 'Arial', 'Helvetica', 'Avant Garde', sans-serif; text-anchor: middle; fill: var(--fg-color)" x="9.917109" y="54.968994" transform="rotate(-90 9.917109 54.968994)">ms</text>
    </g>
   </g>
   <g id="line2d_19">
    <path d="M 43.916364 73.724523 
L 44.468628 76.704727 
L 45.3595 80.751112 
L 46.250371 77.154641 
L 47.141245 70.130887 
L 48.032112 80.445814 
L 48.922979 80.230309 
L 49.81384 71.355862 
L 50.704717 80.597045 
L 51.595589 65.756519 
L 52.486458 74.482571 
L 53.377327 66.549539 
L 54.268192 77.094148 
L 55.159063 78.314396 
L 56.049934 74.161204 
L 56.940797 72.340756 
L 57.831669 74.066684 
L 58.722538 74.724541 
L 59.613407 65.20736 
L 60.504275 75.888078 
L 61.395144 49.648484 
L 62.286016 64.094864 
L 63.176879 65.761245 
L 64.067746 64.850076 
L 64.958622 70.924852 
L 65.84949 66.737633 
L 66.740361 73.694277 
L 67.631226 49.061517 
L 68.522078 57.232739 
L 69.412965 75.309618 
L 70.30383 66.502279 
L 71.194705 66.536306 
L 72.085571 70.718799 
L 72.976442 75.617752 
L 73.867306 57.969047 
L 74.758184 83.680276 
L 75.649039 73.196159 
L 76.539914 65.758409 
L 77.430784 66.823645 
L 78.321655 73.314308 
L 79.212509 64.181822 
L 80.103391 56.389624 
L 80.994245 60.569282 
L 81.885129 68.952227 
L 82.775998 67.47394 
L 83.666869 81.771924 
L 84.557735 72.513727 
L 85.44861 68.094934 
L 94.53997 80.250158 
L 95.248438 87.237049 
L 96.139324 75.58845 
L 97.030192 85.189754 
L 97.921065 71.415409 
L 98.811931 77.300201 
L 99.702798 78.416478 
L 100.593666 83.154747 
L 101.484533 71.243383 
L 102.375401 71.121453 
L 103.266272 80.595155 
L 104.157138 78.878679 
L 105.048009 71.089316 
L 105.93888 66.745194 
L 106.829748 85.64912 
L 107.720614 82.61504 
L 108.611487 86.37314 
L 110.393224 69.019336 
L 111.284094 65.952174 
L 112.17496 64.688447 
L 113.065834 82.696326 
L 113.956695 81.736007 
L 114.847564 57.853733 
L 115.738441 81.171725 
L 116.629309 77.077135 
L 117.520178 87.304158 
L 118.41104 65.509823 
L 119.301913 77.99303 
L 120.192782 81.059246 
L 121.083649 86.749328 
L 121.97452 73.492005 
L 125.537994 76.265211 
L 126.428869 62.471962 
L 127.319734 85.545148 
L 128.210603 59.582497 
L 129.101474 69.579838 
L 129.992342 47.991555 
L 130.883214 67.92669 
L 131.774065 57.344272 
L 132.664946 83.668933 
L 133.55582 74.544009 
L 134.446686 72.722615 
L 135.337558 52.546456 
L 136.228424 55.193005 
L 137.119294 56.011545 
L 138.901032 82.420329 
L 140.68277 50.415983 
L 141.57364 54.85557 
L 142.464507 46.811005 
L 143.355376 57.394367 
L 144.246246 80.455266 
L 145.137113 61.985186 
L 146.918849 54.10981 
L 173.644977 54.10981 
L 181.959197 51.318646 
L 182.553652 51.370632 
L 183.444521 34.191689 
L 184.335387 27.839025 
L 185.226256 43.987704 
L 186.117131 46.556747 
L 187.007996 44.867681 
L 187.898864 67.54294 
L 188.789731 68.139359 
L 189.680603 70.359625 
L 190.571474 10.940806 
L 191.462343 31.753083 
L 192.353215 37.668121 
L 193.244077 41.706945 
L 194.134949 47.678695 
L 195.025817 47.656956 
L 195.916688 32.293735 
L 196.807557 63.072161 
L 197.698426 51.549274 
L 198.589295 50.704268 
L 199.480162 47.999117 
L 200.371032 66.794344 
L 201.261898 67.091136 
L 202.152766 64.115658 
L 203.043636 51.1211 
L 203.043636 51.1211 
" clip-path="url(#p3ee8ab0b3b)" style="fill: none; stroke: #339af0; stroke-width: 1.2; stroke-linecap: square"/>
   </g>
   <g id="line2d_20">
    <path d="M 43.916364 91.710663 
L 45.3595 98.515131 
L 46.250371 97.7637 
L 47.141245 91.916716 
L 48.032112 98.228737 
L 48.922979 94.690867 
L 49.81384 96.423412 
L 50.704717 96.981078 
L 51.595589 94.161557 
L 52.486458 92.75416 
L 53.377327 92.274 
L 54.268192 96.43759 
L 55.159063 96.689957 
L 56.049934 92.292904 
L 56.940797 93.131293 
L 57.831669 98.116258 
L 58.722538 93.870437 
L 59.613407 94.328857 
L 60.504275 94.448897 
L 61.395144 93.993312 
L 62.286016 95.841171 
L 63.176879 96.005635 
L 64.067746 95.102027 
L 64.958622 96.359138 
L 65.84949 93.506536 
L 66.740361 97.009434 
L 67.631226 93.449824 
L 68.522078 94.327912 
L 69.412965 96.251386 
L 70.30383 96.470672 
L 71.194705 96.479178 
L 72.085571 92.995185 
L 72.976442 95.834555 
L 73.867306 93.921477 
L 74.758184 97.949904 
L 75.649039 95.520749 
L 76.539914 95.206944 
L 77.430784 97.400745 
L 78.321655 94.654004 
L 79.212509 93.011253 
L 80.103391 96.521712 
L 80.994245 94.309953 
L 81.885129 97.821357 
L 82.775998 93.135074 
L 83.666869 97.624756 
L 84.557735 92.85057 
L 85.44861 97.100172 
L 94.53997 95.746651 
L 95.248438 97.846877 
L 96.139324 94.134146 
L 97.030192 94.963084 
L 97.921065 93.980079 
L 98.811931 95.562338 
L 99.702798 95.725857 
L 100.593666 97.230609 
L 101.484533 96.12662 
L 102.375401 92.447916 
L 103.266272 95.501845 
L 105.048009 94.736236 
L 105.93888 93.032993 
L 106.829748 94.478198 
L 107.720614 98.997181 
L 108.611487 93.899738 
L 109.502352 96.720203 
L 110.393224 95.261766 
L 111.284094 91.707828 
L 113.065834 96.876161 
L 113.956695 95.624721 
L 114.847564 92.63601 
L 115.738441 97.769371 
L 116.629309 96.200345 
L 117.520178 97.079378 
L 118.41104 93.969682 
L 119.301913 94.508444 
L 120.192782 96.328892 
L 121.97452 93.010308 
L 125.537994 93.619014 
L 126.428869 92.676654 
L 127.319734 93.804273 
L 128.210603 94.583115 
L 129.101474 93.707863 
L 129.992342 96.309988 
L 130.883214 93.757958 
L 131.774065 94.289159 
L 132.664946 97.512278 
L 133.55582 95.142671 
L 134.446686 94.217324 
L 135.337558 93.785369 
L 136.228424 95.464983 
L 137.119294 93.322223 
L 138.010159 96.68145 
L 138.901032 95.192766 
L 140.68277 96.758011 
L 142.464507 90.356197 
L 143.355376 94.171009 
L 144.246246 96.747614 
L 145.137113 93.366647 
L 146.027984 97.280705 
L 146.918849 92.618997 
L 173.644977 92.618997 
L 181.959197 87.011147 
L 182.553652 91.962085 
L 183.444521 86.122663 
L 184.335387 88.326861 
L 185.226256 87.281474 
L 186.117131 86.804149 
L 187.007996 87.972412 
L 187.898864 87.895851 
L 188.789731 89.168085 
L 189.680603 88.700213 
L 190.571474 87.290925 
L 191.462343 88.604748 
L 192.353215 85.980883 
L 193.244077 89.946927 
L 194.134949 86.307921 
L 195.025817 87.112283 
L 195.916688 86.837231 
L 196.807557 87.713428 
L 197.698426 91.024451 
L 198.589295 93.004637 
L 199.480162 87.19168 
L 200.371032 90.56225 
L 201.261898 91.110464 
L 202.152766 92.062276 
L 203.043636 90.750344 
L 203.043636 90.750344 
" clip-path="url(#p3ee8ab0b3b)" style="fill: none; stroke: #ff6b6b; stroke-width: 1.2; stroke-linecap: square"/>
   </g>
   <g id="patch_3">
    <path d="M 35.96 103.4 
L 35.96 6.537988 
" style="fill: none; stroke: var(--fg-color); stroke-width: 0.8; stroke-linejoin: miter; stroke-linecap: square"/>
   </g>
   <g id="patch_4">
    <path d="M 35.96 103.4 
L 211 103.4 
" style="fill: none; stroke: var(--fg-color); stroke-width: 0.8; stroke-linejoin: miter; stroke-linecap: square"/>
   </g>
  </g>
 </g>
 <defs>
  <clipPath id="p3ee8ab0b3b">
   <rect x="35.96" y="6.537988" width="175.04" height="96.862012"/>
  </clipPath>
 </defs>
</svg>
