<?xml version="1.0" encoding="utf-8" standalone="no"?>
<!DOCTYPE svg PUBLIC "-//W3C//DTD SVG 1.1//EN"
  "http://www.w3.org/Graphics/SVG/1.1/DTD/svg11.dtd">
<svg xmlns:xlink="http://www.w3.org/1999/xlink" width="216pt" height="122.4pt" viewBox="0 0 216 122.4" xmlns="http://www.w3.org/2000/svg" version="1.1">
  <style>
    :root {
      --fg-color: #212529;
      --grid-color: rgba(33, 37, 41, 0.1);
    }
    @media (prefers-color-scheme: dark) {
      :root {
        --fg-color: #dee2e6;
        --grid-color: rgba(248, 249, 250, 0.15);
      }
    }
  </style>

 <metadata>
  <rdf:RDF xmlns:dc="http://purl.org/dc/elements/1.1/" xmlns:cc="http://creativecommons.org/ns#" xmlns:rdf="http://www.w3.org/1999/02/22-rdf-syntax-ns#">
   <cc:Work>
    <dc:type rdf:resource="http://purl.org/dc/dcmitype/StillImage"/>
    <dc:date>2026-06-30T15:37:16.166177</dc:date>
    <dc:format>image/svg+xml</dc:format>
    <dc:creator>
     <cc:Agent>
      <dc:title>Matplotlib v3.11.0, https://matplotlib.org/</dc:title>
     </cc:Agent>
    </dc:creator>
   </cc:Work>
  </rdf:RDF>
 </metadata>
 <defs>
  <style type="text/css">*{stroke-linejoin: round; stroke-linecap: butt}</style>
 </defs>
 <g id="figure_1">
  <g id="patch_1">
   <path d="M 0 122.4 
L 216 122.4 
L 216 0 
L 0 0 
L 0 122.4 
z
" style="fill: none; opacity: 0"/>
  </g>
  <g id="axes_1">
   <g id="patch_2">
    <path d="M 35.96 103.4 
L 211 103.4 
L 211 5 
L 35.96 5 
L 35.96 103.4 
z
" style="fill: none; opacity: 0"/>
   </g>
   <g id="matplotlib.axis_1">
    <g id="xtick_1">
     <g id="line2d_1">
      <path d="M 69.784035 103.4 
L 69.784035 5 
" clip-path="url(#pc14f10153f)" style="fill: none; stroke-dasharray: 2.96,1.28; stroke-dashoffset: 0; stroke: var(--grid-color); stroke-width: 0.8"/>
     </g>
     <g id="line2d_2">
      <defs>
       <path id="me4fe24698d" d="M 0 0 
L 0 3.5 
" style="stroke: var(--fg-color); stroke-width: 0.8"/>
      </defs>
      <g>
       <use xlink:href="#me4fe24698d" x="69.784035" y="103.4" style="fill: var(--fg-color); stroke: var(--fg-color); stroke-width: 0.8"/>
      </g>
     </g>
     <g id="text_1">
      <text style="font-size: 7px; font-family: 'DejaVu Sans', 'Bitstream Vera Sans', 'Computer Modern Sans Serif', 'Lucida Grande', 'Verdana', 'Geneva', 'Lucid', 'Arial', 'Helvetica', 'Avant Garde', sans-serif; text-anchor: middle; fill: var(--fg-color)" x="69.784035" y="115.718359" transform="rotate(-0 69.784035 115.718359)">02/2026</text>
     </g>
    </g>
    <g id="xtick_2">
     <g id="line2d_3">
      <path d="M 122.345302 103.4 
L 122.345302 5 
" clip-path="url(#pc14f10153f)" style="fill: none; stroke-dasharray: 2.96,1.28; stroke-dashoffset: 0; stroke: var(--grid-color); stroke-width: 0.8"/>
     </g>
     <g id="line2d_4">
      <g>
       <use xlink:href="#me4fe24698d" x="122.345302" y="103.4" style="fill: var(--fg-color); stroke: var(--fg-color); stroke-width: 0.8"/>
      </g>
     </g>
     <g id="text_2">
      <text style="font-size: 7px; font-family: 'DejaVu Sans', 'Bitstream Vera Sans', 'Computer Modern Sans Serif', 'Lucida Grande', 'Verdana', 'Geneva', 'Lucid', 'Arial', 'Helvetica', 'Avant Garde', sans-serif; text-anchor: middle; fill: var(--fg-color)" x="122.345302" y="115.718359" transform="rotate(-0 122.345302 115.718359)">04/2026</text>
     </g>
    </g>
    <g id="xtick_3">
     <g id="line2d_5">
      <path d="M 176.688307 103.4 
L 176.688307 5 
" clip-path="url(#pc14f10153f)" style="fill: none; stroke-dasharray: 2.96,1.28; stroke-dashoffset: 0; stroke: var(--grid-color); stroke-width: 0.8"/>
     </g>
     <g id="line2d_6">
      <g>
       <use xlink:href="#me4fe24698d" x="176.688307" y="103.4" style="fill: var(--fg-color); stroke: var(--fg-color); stroke-width: 0.8"/>
      </g>
     </g>
     <g id="text_3">
      <text style="font-size: 7px; font-family: 'DejaVu Sans', 'Bitstream Vera Sans', 'Computer Modern Sans Serif', 'Lucida Grande', 'Verdana', 'Geneva', 'Lucid', 'Arial', 'Helvetica', 'Avant Garde', sans-serif; text-anchor: middle; fill: var(--fg-color)" x="176.688307" y="115.718359" transform="rotate(-0 176.688307 115.718359)">06/2026</text>
     </g>
    </g>
   </g>
   <g id="matplotlib.axis_2">
    <g id="ytick_1">
     <g id="line2d_7">
      <path d="M 35.96 99.55781 
L 211 99.55781 
" clip-path="url(#pc14f10153f)" style="fill: none; stroke-dasharray: 2.96,1.28; stroke-dashoffset: 0; stroke: var(--grid-color); stroke-width: 0.8"/>
     </g>
     <g id="line2d_8">
      <defs>
       <path id="m140d910811" d="M 0 0 
L -3.5 0 
" style="stroke: var(--fg-color); stroke-width: 0.8"/>
      </defs>
      <g>
       <use xlink:href="#m140d910811" x="35.96" y="99.55781" style="fill: var(--fg-color); stroke: var(--fg-color); stroke-width: 0.8"/>
      </g>
     </g>
     <g id="text_4">
      <text style="font-size: 7px; font-family: 'DejaVu Sans', 'Bitstream Vera Sans', 'Computer Modern Sans Serif', 'Lucida Grande', 'Verdana', 'Geneva', 'Lucid', 'Arial', 'Helvetica', 'Avant Garde', sans-serif; text-anchor: end; fill: var(--fg-color)" x="28.96" y="102.216989" transform="rotate(-0 28.96 102.216989)">0</text>
     </g>
    </g>
    <g id="ytick_2">
     <g id="line2d_9">
      <path d="M 35.96 75.023298 
L 211 75.023298 
" clip-path="url(#pc14f10153f)" style="fill: none; stroke-dasharray: 2.96,1.28; stroke-dashoffset: 0; stroke: var(--grid-color); stroke-width: 0.8"/>
     </g>
     <g id="line2d_10">
      <g>
       <use xlink:href="#m140d910811" x="35.96" y="75.023298" style="fill: var(--fg-color); stroke: var(--fg-color); stroke-width: 0.8"/>
      </g>
     </g>
     <g id="text_5">
      <text style="font-size: 7px; font-family: 'DejaVu Sans', 'Bitstream Vera Sans', 'Computer Modern Sans Serif', 'Lucida Grande', 'Verdana', 'Geneva', 'Lucid', 'Arial', 'Helvetica', 'Avant Garde', sans-serif; text-anchor: end; fill: var(--fg-color)" x="28.96" y="77.682478" transform="rotate(-0 28.96 77.682478)">100</text>
     </g>
    </g>
    <g id="ytick_3">
     <g id="line2d_11">
      <path d="M 35.96 50.488787 
L 211 50.488787 
" clip-path="url(#pc14f10153f)" style="fill: none; stroke-dasharray: 2.96,1.28; stroke-dashoffset: 0; stroke: var(--grid-color); stroke-width: 0.8"/>
     </g>
     <g id="line2d_12">
      <g>
       <use xlink:href="#m140d910811" x="35.96" y="50.488787" style="fill: var(--fg-color); stroke: var(--fg-color); stroke-width: 0.8"/>
      </g>
     </g>
     <g id="text_6">
      <text style="font-size: 7px; font-family: 'DejaVu Sans', 'Bitstream Vera Sans', 'Computer Modern Sans Serif', 'Lucida Grande', 'Verdana', 'Geneva', 'Lucid', 'Arial', 'Helvetica', 'Avant Garde', sans-serif; text-anchor: end; fill: var(--fg-color)" x="28.96" y="53.147967" transform="rotate(-0 28.96 53.147967)">200</text>
     </g>
    </g>
    <g id="ytick_4">
     <g id="line2d_13">
      <path d="M 35.96 25.954276 
L 211 25.954276 
" clip-path="url(#pc14f10153f)" style="fill: none; stroke-dasharray: 2.96,1.28; stroke-dashoffset: 0; stroke: var(--grid-color); stroke-width: 0.8"/>
     </g>
     <g id="line2d_14">
      <g>
       <use xlink:href="#m140d910811" x="35.96" y="25.954276" style="fill: var(--fg-color); stroke: var(--fg-color); stroke-width: 0.8"/>
      </g>
     </g>
     <g id="text_7">
      <text style="font-size: 7px; font-family: 'DejaVu Sans', 'Bitstream Vera Sans', 'Computer Modern Sans Serif', 'Lucida Grande', 'Verdana', 'Geneva', 'Lucid', 'Arial', 'Helvetica', 'Avant Garde', sans-serif; text-anchor: end; fill: var(--fg-color)" x="28.96" y="28.613456" transform="rotate(-0 28.96 28.613456)">300</text>
     </g>
    </g>
    <g id="text_8">
     <text style="font-size: 7px; font-family: 'DejaVu Sans', 'Bitstream Vera Sans', 'Computer Modern Sans Serif', 'Lucida Grande', 'Verdana', 'Geneva', 'Lucid', 'Arial', 'Helvetica', 'Avant Garde', sans-serif; text-anchor: middle; fill: var(--fg-color)" x="9.917109" y="54.2" transform="rotate(-90 9.917109 54.2)">ms</text>
    </g>
   </g>
   <g id="line2d_15">
    <path d="M 43.916364 28.097365 
L 44.468628 31.51306 
L 45.3595 30.819715 
L 46.250371 29.420021 
L 47.141245 28.342711 
L 48.032112 28.891302 
L 48.922979 28.485256 
L 49.81384 27.842452 
L 50.704717 31.593043 
L 51.595589 32.263816 
L 52.486458 28.754645 
L 53.377327 26.183428 
L 54.268192 29.717134 
L 55.159063 30.829774 
L 56.049934 29.176148 
L 56.940797 32.817805 
L 57.831669 32.821976 
L 58.722538 27.823806 
L 60.504275 29.549563 
L 61.395144 34.688807 
L 62.286016 28.385891 
L 63.176879 32.231921 
L 64.067746 31.008876 
L 64.958622 31.619785 
L 65.84949 30.156792 
L 66.740361 29.270851 
L 67.631226 30.605529 
L 68.522078 12.831993 
L 69.412965 28.438395 
L 70.30383 32.516522 
L 71.194705 28.246045 
L 72.085571 34.004049 
L 72.976442 33.872053 
L 73.867306 30.371224 
L 74.758184 31.060398 
L 75.649039 33.127676 
L 76.539914 31.420565 
L 77.430784 28.806658 
L 78.321655 29.752464 
L 79.212509 31.793244 
L 80.103391 16.854671 
L 80.994245 31.712035 
L 81.885129 27.911639 
L 82.775998 35.522245 
L 83.666869 29.883478 
L 84.557735 32.32368 
L 85.44861 32.86025 
L 94.53997 24.903217 
L 95.248438 26.56126 
L 96.139324 28.035538 
L 97.030192 28.540213 
L 97.921065 32.228486 
L 98.811931 28.745813 
L 99.702798 31.212758 
L 100.593666 34.963103 
L 101.484533 29.606974 
L 102.375401 27.694509 
L 103.266272 29.790001 
L 104.157138 29.428363 
L 105.048009 32.904658 
L 105.93888 30.003942 
L 106.829748 34.314656 
L 107.720614 31.333467 
L 108.611487 30.710782 
L 109.502352 34.828899 
L 110.393224 30.203408 
L 111.284094 30.708573 
L 112.17496 28.421221 
L 113.065834 31.101862 
L 113.956695 29.482584 
L 114.847564 32.378392 
L 115.738441 32.857551 
L 116.629309 28.603512 
L 117.520178 32.242716 
L 118.41104 30.395758 
L 119.301913 27.810066 
L 120.192782 31.55575 
L 121.083649 25.420896 
L 121.97452 27.644213 
L 125.537994 27.632927 
L 126.428869 30.591789 
L 127.319734 26.920936 
L 128.210603 31.628127 
L 129.101474 18.993344 
L 129.992342 24.520479 
L 130.883214 25.911095 
L 131.774065 30.323136 
L 132.664946 28.889094 
L 133.55582 23.090117 
L 134.446686 30.89479 
L 135.337558 27.607166 
L 136.228424 26.695954 
L 137.119294 29.543184 
L 138.010159 28.461212 
L 138.901032 29.649173 
L 139.791912 26.555371 
L 140.68277 9.472727 
L 141.57364 27.865024 
L 142.464507 25.113478 
L 143.355376 27.270798 
L 144.246246 30.877371 
L 145.137113 29.676161 
L 146.027984 28.837081 
L 146.918849 27.274723 
L 173.644977 27.274723 
L 181.959197 27.040173 
L 182.553652 32.010129 
L 183.444521 25.886315 
L 184.335387 30.483347 
L 185.226256 24.949833 
L 186.117131 24.075668 
L 187.007996 23.547931 
L 188.789731 30.304981 
L 189.680603 27.297295 
L 190.571474 28.877808 
L 191.462343 22.88599 
L 192.353215 25.833811 
L 193.244077 29.392542 
L 194.134949 28.851556 
L 195.025817 29.798098 
L 195.916688 22.333963 
L 196.807557 26.194223 
L 197.698426 31.819251 
L 198.589295 24.073706 
L 199.480162 25.707704 
L 200.371032 30.512297 
L 201.261898 29.785094 
L 202.152766 33.719203 
L 203.043636 31.12885 
L 203.043636 31.12885 
" clip-path="url(#pc14f10153f)" style="fill: none; stroke: #339af0; stroke-width: 1.2; stroke-linecap: square"/>
   </g>
   <g id="line2d_16">
    <path d="M 43.916364 98.837722 
L 45.3595 98.869126 
L 46.250371 98.780066 
L 48.922979 98.824964 
L 52.486458 98.839194 
L 53.377327 98.639728 
L 54.268192 98.848517 
L 61.395144 98.924329 
L 62.286016 98.81883 
L 64.067746 98.858331 
L 64.958622 98.742773 
L 66.740361 98.840666 
L 70.30383 98.887281 
L 73.867306 98.845082 
L 75.649039 98.88262 
L 95.248438 98.801656 
L 97.030192 98.902984 
L 98.811931 98.769761 
L 100.593666 98.905192 
L 102.375401 98.723636 
L 103.266272 98.849498 
L 104.157138 98.817603 
L 105.048009 98.899549 
L 107.720614 98.779084 
L 108.611487 98.889735 
L 113.065834 98.867409 
L 125.537994 98.83993 
L 126.428869 98.897341 
L 127.319734 98.817603 
L 129.101474 98.848517 
L 130.883214 98.826681 
L 132.664946 98.858331 
L 136.228424 98.809262 
L 138.010159 98.808771 
L 138.901032 98.695912 
L 140.68277 98.846309 
L 146.918849 98.825945 
L 182.553652 98.867409 
L 183.444521 98.611268 
L 184.335387 98.868881 
L 187.007996 98.755531 
L 188.789731 98.856123 
L 192.353215 98.819812 
L 194.134949 98.86103 
L 195.025817 98.717257 
L 197.698426 98.86103 
L 199.480162 98.720937 
L 200.371032 98.873051 
L 203.043636 98.813923 
L 203.043636 98.813923 
" clip-path="url(#pc14f10153f)" style="fill: none; stroke: #ff6b6b; stroke-width: 1.2; stroke-linecap: square"/>
   </g>
   <g id="patch_3">
    <path d="M 35.96 103.4 
L 35.96 5 
" style="fill: none; stroke: var(--fg-color); stroke-width: 0.8; stroke-linejoin: miter; stroke-linecap: square"/>
   </g>
   <g id="patch_4">
    <path d="M 35.96 103.4 
L 211 103.4 
" style="fill: none; stroke: var(--fg-color); stroke-width: 0.8; stroke-linejoin: miter; stroke-linecap: square"/>
   </g>
  </g>
 </g>
 <defs>
  <clipPath id="pc14f10153f">
   <rect x="35.96" y="5" width="175.04" height="98.4"/>
  </clipPath>
 </defs>
</svg>
