<?xml version="1.0" encoding="utf-8" standalone="no"?>
<!DOCTYPE svg PUBLIC "-//W3C//DTD SVG 1.1//EN"
  "http://www.w3.org/Graphics/SVG/1.1/DTD/svg11.dtd">
<svg xmlns:xlink="http://www.w3.org/1999/xlink" width="216pt" height="122.4pt" viewBox="0 0 216 122.4" xmlns="http://www.w3.org/2000/svg" version="1.1">
  <style>
    :root {
      --fg-color: #212529;
      --grid-color: rgba(33, 37, 41, 0.1);
    }
    @media (prefers-color-scheme: dark) {
      :root {
        --fg-color: #dee2e6;
        --grid-color: rgba(248, 249, 250, 0.15);
      }
    }
  </style>

 <metadata>
  <rdf:RDF xmlns:dc="http://purl.org/dc/elements/1.1/" xmlns:cc="http://creativecommons.org/ns#" xmlns:rdf="http://www.w3.org/1999/02/22-rdf-syntax-ns#">
   <cc:Work>
    <dc:type rdf:resource="http://purl.org/dc/dcmitype/StillImage"/>
    <dc:date>2026-06-30T04:48:40.356034</dc:date>
    <dc:format>image/svg+xml</dc:format>
    <dc:creator>
     <cc:Agent>
      <dc:title>Matplotlib v3.11.0, https://matplotlib.org/</dc:title>
     </cc:Agent>
    </dc:creator>
   </cc:Work>
  </rdf:RDF>
 </metadata>
 <defs>
  <style type="text/css">*{stroke-linejoin: round; stroke-linecap: butt}</style>
 </defs>
 <g id="figure_1">
  <g id="patch_1">
   <path d="M 0 122.4 
L 216 122.4 
L 216 0 
L 0 0 
L 0 122.4 
z
" style="fill: none; opacity: 0"/>
  </g>
  <g id="axes_1">
   <g id="patch_2">
    <path d="M 35.96 103.4 
L 211 103.4 
L 211 5 
L 35.96 5 
L 35.96 103.4 
z
" style="fill: none; opacity: 0"/>
   </g>
   <g id="matplotlib.axis_1">
    <g id="xtick_1">
     <g id="line2d_1">
      <path d="M 70.996911 103.4 
L 70.996911 5 
" clip-path="url(#pa407a7a22b)" style="fill: none; stroke-dasharray: 2.96,1.28; stroke-dashoffset: 0; stroke: var(--grid-color); stroke-width: 0.8"/>
     </g>
     <g id="line2d_2">
      <defs>
       <path id="m953c46ed58" d="M 0 0 
L 0 3.5 
" style="stroke: var(--fg-color); stroke-width: 0.8"/>
      </defs>
      <g>
       <use xlink:href="#m953c46ed58" x="70.996911" y="103.4" style="fill: var(--fg-color); stroke: var(--fg-color); stroke-width: 0.8"/>
      </g>
     </g>
     <g id="text_1">
      <text style="font-size: 7px; font-family: 'DejaVu Sans', 'Bitstream Vera Sans', 'Computer Modern Sans Serif', 'Lucida Grande', 'Verdana', 'Geneva', 'Lucid', 'Arial', 'Helvetica', 'Avant Garde', sans-serif; text-anchor: middle; fill: var(--fg-color)" x="70.996911" y="115.718359" transform="rotate(-0 70.996911 115.718359)">02/2026</text>
     </g>
    </g>
    <g id="xtick_2">
     <g id="line2d_3">
      <path d="M 126.022656 103.4 
L 126.022656 5 
" clip-path="url(#pa407a7a22b)" style="fill: none; stroke-dasharray: 2.96,1.28; stroke-dashoffset: 0; stroke: var(--grid-color); stroke-width: 0.8"/>
     </g>
     <g id="line2d_4">
      <g>
       <use xlink:href="#m953c46ed58" x="126.022656" y="103.4" style="fill: var(--fg-color); stroke: var(--fg-color); stroke-width: 0.8"/>
      </g>
     </g>
     <g id="text_2">
      <text style="font-size: 7px; font-family: 'DejaVu Sans', 'Bitstream Vera Sans', 'Computer Modern Sans Serif', 'Lucida Grande', 'Verdana', 'Geneva', 'Lucid', 'Arial', 'Helvetica', 'Avant Garde', sans-serif; text-anchor: middle; fill: var(--fg-color)" x="126.022656" y="115.718359" transform="rotate(-0 126.022656 115.718359)">04/2026</text>
     </g>
    </g>
    <g id="xtick_3">
     <g id="line2d_5">
      <path d="M 182.913681 103.4 
L 182.913681 5 
" clip-path="url(#pa407a7a22b)" style="fill: none; stroke-dasharray: 2.96,1.28; stroke-dashoffset: 0; stroke: var(--grid-color); stroke-width: 0.8"/>
     </g>
     <g id="line2d_6">
      <g>
       <use xlink:href="#m953c46ed58" x="182.913681" y="103.4" style="fill: var(--fg-color); stroke: var(--fg-color); stroke-width: 0.8"/>
      </g>
     </g>
     <g id="text_3">
      <text style="font-size: 7px; font-family: 'DejaVu Sans', 'Bitstream Vera Sans', 'Computer Modern Sans Serif', 'Lucida Grande', 'Verdana', 'Geneva', 'Lucid', 'Arial', 'Helvetica', 'Avant Garde', sans-serif; text-anchor: middle; fill: var(--fg-color)" x="182.913681" y="115.718359" transform="rotate(-0 182.913681 115.718359)">06/2026</text>
     </g>
    </g>
   </g>
   <g id="matplotlib.axis_2">
    <g id="ytick_1">
     <g id="line2d_7">
      <path d="M 35.96 99.364788 
L 211 99.364788 
" clip-path="url(#pa407a7a22b)" style="fill: none; stroke-dasharray: 2.96,1.28; stroke-dashoffset: 0; stroke: var(--grid-color); stroke-width: 0.8"/>
     </g>
     <g id="line2d_8">
      <defs>
       <path id="m185d8d9481" d="M 0 0 
L -3.5 0 
" style="stroke: var(--fg-color); stroke-width: 0.8"/>
      </defs>
      <g>
       <use xlink:href="#m185d8d9481" x="35.96" y="99.364788" style="fill: var(--fg-color); stroke: var(--fg-color); stroke-width: 0.8"/>
      </g>
     </g>
     <g id="text_4">
      <text style="font-size: 7px; font-family: 'DejaVu Sans', 'Bitstream Vera Sans', 'Computer Modern Sans Serif', 'Lucida Grande', 'Verdana', 'Geneva', 'Lucid', 'Arial', 'Helvetica', 'Avant Garde', sans-serif; text-anchor: end; fill: var(--fg-color)" x="28.96" y="102.023967" transform="rotate(-0 28.96 102.023967)">0</text>
     </g>
    </g>
    <g id="ytick_2">
     <g id="line2d_9">
      <path d="M 35.96 82.433093 
L 211 82.433093 
" clip-path="url(#pa407a7a22b)" style="fill: none; stroke-dasharray: 2.96,1.28; stroke-dashoffset: 0; stroke: var(--grid-color); stroke-width: 0.8"/>
     </g>
     <g id="line2d_10">
      <g>
       <use xlink:href="#m185d8d9481" x="35.96" y="82.433093" style="fill: var(--fg-color); stroke: var(--fg-color); stroke-width: 0.8"/>
      </g>
     </g>
     <g id="text_5">
      <text style="font-size: 7px; font-family: 'DejaVu Sans', 'Bitstream Vera Sans', 'Computer Modern Sans Serif', 'Lucida Grande', 'Verdana', 'Geneva', 'Lucid', 'Arial', 'Helvetica', 'Avant Garde', sans-serif; text-anchor: end; fill: var(--fg-color)" x="28.96" y="85.092273" transform="rotate(-0 28.96 85.092273)">100</text>
     </g>
    </g>
    <g id="ytick_3">
     <g id="line2d_11">
      <path d="M 35.96 65.501398 
L 211 65.501398 
" clip-path="url(#pa407a7a22b)" style="fill: none; stroke-dasharray: 2.96,1.28; stroke-dashoffset: 0; stroke: var(--grid-color); stroke-width: 0.8"/>
     </g>
     <g id="line2d_12">
      <g>
       <use xlink:href="#m185d8d9481" x="35.96" y="65.501398" style="fill: var(--fg-color); stroke: var(--fg-color); stroke-width: 0.8"/>
      </g>
     </g>
     <g id="text_6">
      <text style="font-size: 7px; font-family: 'DejaVu Sans', 'Bitstream Vera Sans', 'Computer Modern Sans Serif', 'Lucida Grande', 'Verdana', 'Geneva', 'Lucid', 'Arial', 'Helvetica', 'Avant Garde', sans-serif; text-anchor: end; fill: var(--fg-color)" x="28.96" y="68.160578" transform="rotate(-0 28.96 68.160578)">200</text>
     </g>
    </g>
    <g id="ytick_4">
     <g id="line2d_13">
      <path d="M 35.96 48.569704 
L 211 48.569704 
" clip-path="url(#pa407a7a22b)" style="fill: none; stroke-dasharray: 2.96,1.28; stroke-dashoffset: 0; stroke: var(--grid-color); stroke-width: 0.8"/>
     </g>
     <g id="line2d_14">
      <g>
       <use xlink:href="#m185d8d9481" x="35.96" y="48.569704" style="fill: var(--fg-color); stroke: var(--fg-color); stroke-width: 0.8"/>
      </g>
     </g>
     <g id="text_7">
      <text style="font-size: 7px; font-family: 'DejaVu Sans', 'Bitstream Vera Sans', 'Computer Modern Sans Serif', 'Lucida Grande', 'Verdana', 'Geneva', 'Lucid', 'Arial', 'Helvetica', 'Avant Garde', sans-serif; text-anchor: end; fill: var(--fg-color)" x="28.96" y="51.228883" transform="rotate(-0 28.96 51.228883)">300</text>
     </g>
    </g>
    <g id="ytick_5">
     <g id="line2d_15">
      <path d="M 35.96 31.638009 
L 211 31.638009 
" clip-path="url(#pa407a7a22b)" style="fill: none; stroke-dasharray: 2.96,1.28; stroke-dashoffset: 0; stroke: var(--grid-color); stroke-width: 0.8"/>
     </g>
     <g id="line2d_16">
      <g>
       <use xlink:href="#m185d8d9481" x="35.96" y="31.638009" style="fill: var(--fg-color); stroke: var(--fg-color); stroke-width: 0.8"/>
      </g>
     </g>
     <g id="text_8">
      <text style="font-size: 7px; font-family: 'DejaVu Sans', 'Bitstream Vera Sans', 'Computer Modern Sans Serif', 'Lucida Grande', 'Verdana', 'Geneva', 'Lucid', 'Arial', 'Helvetica', 'Avant Garde', sans-serif; text-anchor: end; fill: var(--fg-color)" x="28.96" y="34.297189" transform="rotate(-0 28.96 34.297189)">400</text>
     </g>
    </g>
    <g id="ytick_6">
     <g id="line2d_17">
      <path d="M 35.96 14.706314 
L 211 14.706314 
" clip-path="url(#pa407a7a22b)" style="fill: none; stroke-dasharray: 2.96,1.28; stroke-dashoffset: 0; stroke: var(--grid-color); stroke-width: 0.8"/>
     </g>
     <g id="line2d_18">
      <g>
       <use xlink:href="#m185d8d9481" x="35.96" y="14.706314" style="fill: var(--fg-color); stroke: var(--fg-color); stroke-width: 0.8"/>
      </g>
     </g>
     <g id="text_9">
      <text style="font-size: 7px; font-family: 'DejaVu Sans', 'Bitstream Vera Sans', 'Computer Modern Sans Serif', 'Lucida Grande', 'Verdana', 'Geneva', 'Lucid', 'Arial', 'Helvetica', 'Avant Garde', sans-serif; text-anchor: end; fill: var(--fg-color)" x="28.96" y="17.365494" transform="rotate(-0 28.96 17.365494)">500</text>
     </g>
    </g>
    <g id="text_10">
     <text style="font-size: 7px; font-family: 'DejaVu Sans', 'Bitstream Vera Sans', 'Computer Modern Sans Serif', 'Lucida Grande', 'Verdana', 'Geneva', 'Lucid', 'Arial', 'Helvetica', 'Avant Garde', sans-serif; text-anchor: middle; fill: var(--fg-color)" x="9.917109" y="54.2" transform="rotate(-90 9.917109 54.2)">ms</text>
    </g>
   </g>
   <g id="line2d_19">
    <path d="M 43.916364 26.603877 
L 44.494523 31.691682 
L 45.427166 29.987338 
L 46.359808 34.285618 
L 47.292453 37.568674 
L 48.22509 25.49282 
L 49.157727 38.096773 
L 50.090359 27.235768 
L 51.023007 34.278507 
L 51.95565 28.909297 
L 52.88829 23.252587 
L 53.82093 31.875053 
L 54.753566 35.361966 
L 55.686208 37.245955 
L 56.618849 33.968487 
L 57.551483 40.126375 
L 58.484126 39.791974 
L 59.416765 22.59733 
L 60.349406 35.555156 
L 61.282045 35.184014 
L 62.214684 34.9766 
L 63.147327 29.989031 
L 64.07996 38.414073 
L 65.012598 26.805703 
L 65.945245 29.864244 
L 66.877884 22.222124 
L 67.810526 38.072391 
L 68.743162 35.072772 
L 69.675784 34.945277 
L 70.608443 29.2779 
L 71.541078 24.999599 
L 72.473724 22.050945 
L 73.406361 32.162553 
L 74.339003 39.737624 
L 75.271637 34.306444 
L 76.204286 33.740417 
L 77.136912 34.760044 
L 78.069558 31.904852 
L 79.002199 13.00925 
L 79.934841 27.515141 
L 80.867465 24.643187 
L 81.800118 26.319256 
L 82.732742 27.603017 
L 83.665398 35.603242 
L 84.598038 30.810388 
L 85.53068 32.976121 
L 86.463316 32.799692 
L 87.395962 31.916874 
L 96.913595 27.067636 
L 97.655282 25.663152 
L 98.587939 21.347094 
L 99.520578 34.138312 
L 100.453222 24.073266 
L 101.385859 32.181008 
L 102.318497 28.605034 
L 103.251135 36.626255 
L 104.183773 35.237856 
L 105.116412 34.240072 
L 106.049054 21.877395 
L 106.981691 31.756192 
L 107.914333 28.807537 
L 108.846974 30.721496 
L 109.779613 37.281512 
L 110.71225 30.374396 
L 111.644893 29.443831 
L 112.57753 26.629106 
L 113.510173 26.64773 
L 114.442814 28.987013 
L 115.37545 29.484467 
L 116.308095 23.630164 
L 117.240726 26.619116 
L 118.173367 33.166941 
L 119.106014 34.055686 
L 120.038653 31.786669 
L 120.971293 25.739684 
L 121.903926 19.138185 
L 122.836569 36.572243 
L 123.769209 21.905332 
L 124.701847 31.751113 
L 125.634489 27.417445 
L 129.365046 29.062867 
L 130.297692 18.184592 
L 131.230328 22.573457 
L 132.162968 27.11877 
L 133.095609 11.65844 
L 134.028248 19.784807 
L 134.960891 29.047798 
L 135.893512 36.196529 
L 136.826165 26.324166 
L 137.75881 22.566176 
L 138.691446 22.575658 
L 139.624089 27.358184 
L 140.556726 26.950977 
L 141.489366 26.979592 
L 142.422003 29.748601 
L 143.354646 25.510936 
L 144.287298 29.309731 
L 145.219926 28.508185 
L 146.152567 32.433629 
L 147.085204 20.847778 
L 148.017844 32.574332 
L 148.950485 30.6238 
L 149.883123 28.463655 
L 150.815765 29.926384 
L 151.7484 19.696762 
L 179.727656 19.696762 
L 188.43171 23.682483 
L 189.054038 22.131709 
L 189.986678 9.472727 
L 190.919315 32.281583 
L 191.851955 28.906757 
L 192.7846 26.20903 
L 193.717237 28.847835 
L 194.649875 33.454102 
L 195.582513 27.59235 
L 196.515156 20.704198 
L 197.447798 28.048828 
L 198.380437 20.771755 
L 199.313081 28.980749 
L 200.245713 29.983105 
L 201.178356 29.563707 
L 202.110995 12.303368 
L 203.043636 23.447471 
" clip-path="url(#pa407a7a22b)" style="fill: none; stroke: #339af0; stroke-width: 1.2; stroke-linecap: square"/>
   </g>
   <g id="line2d_20">
    <path d="M 43.916364 98.855482 
L 44.494523 98.877324 
L 45.427166 98.895103 
L 46.359808 98.893579 
L 47.292453 98.904415 
L 48.22509 98.832455 
L 49.157727 98.878679 
L 50.090359 98.851249 
L 51.023007 98.893071 
L 51.95565 98.858191 
L 52.88829 98.859038 
L 53.82093 98.884266 
L 54.753566 98.882065 
L 55.686208 98.905769 
L 56.618849 98.879864 
L 57.551483 98.880711 
L 58.484126 98.898827 
L 59.416765 98.881388 
L 60.349406 98.881726 
L 61.282045 98.851249 
L 62.214684 98.858699 
L 63.147327 98.858022 
L 64.07996 98.805195 
L 65.012598 98.874446 
L 65.945245 98.883589 
L 66.877884 98.874277 
L 67.810526 98.841598 
L 68.743162 98.873091 
L 69.675784 98.874615 
L 70.608443 98.857176 
L 71.541078 98.854636 
L 72.473724 98.854297 
L 73.406361 98.861239 
L 74.339003 98.903738 
L 75.271637 98.849218 
L 76.204286 98.903907 
L 77.136912 98.906108 
L 78.069558 98.903738 
L 79.002199 98.886637 
L 79.934841 98.86852 
L 80.867465 98.876986 
L 81.800118 98.884436 
L 82.732742 98.881896 
L 83.665398 98.873091 
L 84.598038 98.899335 
L 85.53068 98.851249 
L 86.463316 98.884436 
L 87.395962 98.880372 
L 96.913595 98.911357 
L 97.655282 98.85362 
L 98.587939 98.900351 
L 99.520578 98.863948 
L 100.453222 98.803841 
L 101.385859 98.866319 
L 102.318497 98.792158 
L 103.251135 98.927273 
L 104.183773 98.874784 
L 105.116412 98.871567 
L 106.049054 98.84109 
L 106.981691 98.859715 
L 107.914333 98.82382 
L 108.846974 98.858869 
L 109.779613 98.900013 
L 110.71225 98.892055 
L 111.644893 98.73205 
L 112.57753 98.881557 
L 113.510173 98.869028 
L 114.442814 98.740855 
L 115.37545 98.869197 
L 116.308095 98.897304 
L 117.240726 98.846847 
L 118.173367 98.829915 
L 119.106014 98.871229 
L 120.038653 98.874784 
L 120.971293 98.821958 
L 121.903926 98.79165 
L 122.836569 98.842276 
L 123.769209 98.880541 
L 124.701847 98.865133 
L 125.634489 98.840074 
L 129.365046 98.790973 
L 130.297692 98.883589 
L 131.230328 98.834826 
L 132.162968 98.853958 
L 133.095609 98.778782 
L 134.028248 98.829238 
L 134.960891 98.855821 
L 135.893512 98.852265 
L 136.826165 98.873769 
L 137.75881 98.81146 
L 138.691446 98.85616 
L 139.624089 98.831609 
L 140.556726 98.793512 
L 141.489366 98.853281 
L 142.422003 98.861578 
L 143.354646 98.843461 
L 144.287298 98.825852 
L 145.219926 98.832455 
L 146.152567 98.850911 
L 147.085204 98.823651 
L 148.017844 98.785046 
L 148.950485 98.859546 
L 149.883123 98.85616 
L 150.815765 98.82145 
L 151.7484 98.812984 
L 179.727656 98.812984 
L 188.43171 98.848032 
L 189.054038 98.900521 
L 189.986678 98.819756 
L 190.919315 98.860562 
L 191.851955 98.802994 
L 192.7846 98.808751 
L 193.717237 98.853281 
L 194.649875 98.857006 
L 195.582513 98.84854 
L 196.515156 98.816539 
L 197.447798 98.856329 
L 198.380437 98.773533 
L 199.313081 98.803841 
L 200.245713 98.875292 
L 201.178356 98.886975 
L 202.110995 98.797745 
L 203.043636 98.819249 
" clip-path="url(#pa407a7a22b)" style="fill: none; stroke: #ff6b6b; stroke-width: 1.2; stroke-linecap: square"/>
   </g>
   <g id="patch_3">
    <path d="M 35.96 103.4 
L 35.96 5 
" style="fill: none; stroke: var(--fg-color); stroke-width: 0.8; stroke-linejoin: miter; stroke-linecap: square"/>
   </g>
   <g id="patch_4">
    <path d="M 35.96 103.4 
L 211 103.4 
" style="fill: none; stroke: var(--fg-color); stroke-width: 0.8; stroke-linejoin: miter; stroke-linecap: square"/>
   </g>
  </g>
 </g>
 <defs>
  <clipPath id="pa407a7a22b">
   <rect x="35.96" y="5" width="175.04" height="98.4"/>
  </clipPath>
 </defs>
</svg>
