<?xml version="1.0" encoding="utf-8" standalone="no"?>
<!DOCTYPE svg PUBLIC "-//W3C//DTD SVG 1.1//EN"
  "http://www.w3.org/Graphics/SVG/1.1/DTD/svg11.dtd">
<svg xmlns:xlink="http://www.w3.org/1999/xlink" width="216pt" height="122.4pt" viewBox="0 0 216 122.4" xmlns="http://www.w3.org/2000/svg" version="1.1">
  <style>
    :root {
      --fg-color: #212529;
      --grid-color: rgba(33, 37, 41, 0.1);
    }
    @media (prefers-color-scheme: dark) {
      :root {
        --fg-color: #dee2e6;
        --grid-color: rgba(248, 249, 250, 0.15);
      }
    }
  </style>

 <metadata>
  <rdf:RDF xmlns:dc="http://purl.org/dc/elements/1.1/" xmlns:cc="http://creativecommons.org/ns#" xmlns:rdf="http://www.w3.org/1999/02/22-rdf-syntax-ns#">
   <cc:Work>
    <dc:type rdf:resource="http://purl.org/dc/dcmitype/StillImage"/>
    <dc:date>2026-06-30T15:36:52.026225</dc:date>
    <dc:format>image/svg+xml</dc:format>
    <dc:creator>
     <cc:Agent>
      <dc:title>Matplotlib v3.11.0, https://matplotlib.org/</dc:title>
     </cc:Agent>
    </dc:creator>
   </cc:Work>
  </rdf:RDF>
 </metadata>
 <defs>
  <style type="text/css">*{stroke-linejoin: round; stroke-linecap: butt}</style>
 </defs>
 <g id="figure_1">
  <g id="patch_1">
   <path d="M 0 122.4 
L 216 122.4 
L 216 0 
L 0 0 
L 0 122.4 
z
" style="fill: none; opacity: 0"/>
  </g>
  <g id="axes_1">
   <g id="patch_2">
    <path d="M 31.64 103.4 
L 211 103.4 
L 211 5 
L 31.64 5 
L 31.64 103.4 
z
" style="fill: none; opacity: 0"/>
   </g>
   <g id="matplotlib.axis_1">
    <g id="xtick_1">
     <g id="line2d_1">
      <path d="M 75.518809 103.4 
L 75.518809 5 
" clip-path="url(#pd6b26a2ee3)" style="fill: none; stroke-dasharray: 2.96,1.28; stroke-dashoffset: 0; stroke: var(--grid-color); stroke-width: 0.8"/>
     </g>
     <g id="line2d_2">
      <defs>
       <path id="m58a766e1fe" d="M 0 0 
L 0 3.5 
" style="stroke: var(--fg-color); stroke-width: 0.8"/>
      </defs>
      <g>
       <use xlink:href="#m58a766e1fe" x="75.518809" y="103.4" style="fill: var(--fg-color); stroke: var(--fg-color); stroke-width: 0.8"/>
      </g>
     </g>
     <g id="text_1">
      <text style="font-size: 7px; font-family: 'DejaVu Sans', 'Bitstream Vera Sans', 'Computer Modern Sans Serif', 'Lucida Grande', 'Verdana', 'Geneva', 'Lucid', 'Arial', 'Helvetica', 'Avant Garde', sans-serif; text-anchor: middle; fill: var(--fg-color)" x="75.518809" y="115.718359" transform="rotate(-0 75.518809 115.718359)">04/2026</text>
     </g>
    </g>
    <g id="xtick_2">
     <g id="line2d_3">
      <path d="M 161.262975 103.4 
L 161.262975 5 
" clip-path="url(#pd6b26a2ee3)" style="fill: none; stroke-dasharray: 2.96,1.28; stroke-dashoffset: 0; stroke: var(--grid-color); stroke-width: 0.8"/>
     </g>
     <g id="line2d_4">
      <g>
       <use xlink:href="#m58a766e1fe" x="161.262975" y="103.4" style="fill: var(--fg-color); stroke: var(--fg-color); stroke-width: 0.8"/>
      </g>
     </g>
     <g id="text_2">
      <text style="font-size: 7px; font-family: 'DejaVu Sans', 'Bitstream Vera Sans', 'Computer Modern Sans Serif', 'Lucida Grande', 'Verdana', 'Geneva', 'Lucid', 'Arial', 'Helvetica', 'Avant Garde', sans-serif; text-anchor: middle; fill: var(--fg-color)" x="161.262975" y="115.718359" transform="rotate(-0 161.262975 115.718359)">06/2026</text>
     </g>
    </g>
   </g>
   <g id="matplotlib.axis_2">
    <g id="ytick_1">
     <g id="line2d_5">
      <path d="M 31.64 100.754823 
L 211 100.754823 
" clip-path="url(#pd6b26a2ee3)" style="fill: none; stroke-dasharray: 2.96,1.28; stroke-dashoffset: 0; stroke: var(--grid-color); stroke-width: 0.8"/>
     </g>
     <g id="line2d_6">
      <defs>
       <path id="mcb218e2cab" d="M 0 0 
L -3.5 0 
" style="stroke: var(--fg-color); stroke-width: 0.8"/>
      </defs>
      <g>
       <use xlink:href="#mcb218e2cab" x="31.64" y="100.754823" style="fill: var(--fg-color); stroke: var(--fg-color); stroke-width: 0.8"/>
      </g>
     </g>
     <g id="text_3">
      <text style="font-size: 7px; font-family: 'DejaVu Sans', 'Bitstream Vera Sans', 'Computer Modern Sans Serif', 'Lucida Grande', 'Verdana', 'Geneva', 'Lucid', 'Arial', 'Helvetica', 'Avant Garde', sans-serif; text-anchor: end; fill: var(--fg-color)" x="24.64" y="103.414002" transform="rotate(-0 24.64 103.414002)">0</text>
     </g>
    </g>
    <g id="ytick_2">
     <g id="line2d_7">
      <path d="M 31.64 80.879347 
L 211 80.879347 
" clip-path="url(#pd6b26a2ee3)" style="fill: none; stroke-dasharray: 2.96,1.28; stroke-dashoffset: 0; stroke: var(--grid-color); stroke-width: 0.8"/>
     </g>
     <g id="line2d_8">
      <g>
       <use xlink:href="#mcb218e2cab" x="31.64" y="80.879347" style="fill: var(--fg-color); stroke: var(--fg-color); stroke-width: 0.8"/>
      </g>
     </g>
     <g id="text_4">
      <text style="font-size: 7px; font-family: 'DejaVu Sans', 'Bitstream Vera Sans', 'Computer Modern Sans Serif', 'Lucida Grande', 'Verdana', 'Geneva', 'Lucid', 'Arial', 'Helvetica', 'Avant Garde', sans-serif; text-anchor: end; fill: var(--fg-color)" x="24.64" y="83.538527" transform="rotate(-0 24.64 83.538527)">20</text>
     </g>
    </g>
    <g id="ytick_3">
     <g id="line2d_9">
      <path d="M 31.64 61.003872 
L 211 61.003872 
" clip-path="url(#pd6b26a2ee3)" style="fill: none; stroke-dasharray: 2.96,1.28; stroke-dashoffset: 0; stroke: var(--grid-color); stroke-width: 0.8"/>
     </g>
     <g id="line2d_10">
      <g>
       <use xlink:href="#mcb218e2cab" x="31.64" y="61.003872" style="fill: var(--fg-color); stroke: var(--fg-color); stroke-width: 0.8"/>
      </g>
     </g>
     <g id="text_5">
      <text style="font-size: 7px; font-family: 'DejaVu Sans', 'Bitstream Vera Sans', 'Computer Modern Sans Serif', 'Lucida Grande', 'Verdana', 'Geneva', 'Lucid', 'Arial', 'Helvetica', 'Avant Garde', sans-serif; text-anchor: end; fill: var(--fg-color)" x="24.64" y="63.663052" transform="rotate(-0 24.64 63.663052)">40</text>
     </g>
    </g>
    <g id="ytick_4">
     <g id="line2d_11">
      <path d="M 31.64 41.128397 
L 211 41.128397 
" clip-path="url(#pd6b26a2ee3)" style="fill: none; stroke-dasharray: 2.96,1.28; stroke-dashoffset: 0; stroke: var(--grid-color); stroke-width: 0.8"/>
     </g>
     <g id="line2d_12">
      <g>
       <use xlink:href="#mcb218e2cab" x="31.64" y="41.128397" style="fill: var(--fg-color); stroke: var(--fg-color); stroke-width: 0.8"/>
      </g>
     </g>
     <g id="text_6">
      <text style="font-size: 7px; font-family: 'DejaVu Sans', 'Bitstream Vera Sans', 'Computer Modern Sans Serif', 'Lucida Grande', 'Verdana', 'Geneva', 'Lucid', 'Arial', 'Helvetica', 'Avant Garde', sans-serif; text-anchor: end; fill: var(--fg-color)" x="24.64" y="43.787576" transform="rotate(-0 24.64 43.787576)">60</text>
     </g>
    </g>
    <g id="ytick_5">
     <g id="line2d_13">
      <path d="M 31.64 21.252921 
L 211 21.252921 
" clip-path="url(#pd6b26a2ee3)" style="fill: none; stroke-dasharray: 2.96,1.28; stroke-dashoffset: 0; stroke: var(--grid-color); stroke-width: 0.8"/>
     </g>
     <g id="line2d_14">
      <g>
       <use xlink:href="#mcb218e2cab" x="31.64" y="21.252921" style="fill: var(--fg-color); stroke: var(--fg-color); stroke-width: 0.8"/>
      </g>
     </g>
     <g id="text_7">
      <text style="font-size: 7px; font-family: 'DejaVu Sans', 'Bitstream Vera Sans', 'Computer Modern Sans Serif', 'Lucida Grande', 'Verdana', 'Geneva', 'Lucid', 'Arial', 'Helvetica', 'Avant Garde', sans-serif; text-anchor: end; fill: var(--fg-color)" x="24.64" y="23.912101" transform="rotate(-0 24.64 23.912101)">80</text>
     </g>
    </g>
    <g id="text_8">
     <text style="font-size: 7px; font-family: 'DejaVu Sans', 'Bitstream Vera Sans', 'Computer Modern Sans Serif', 'Lucida Grande', 'Verdana', 'Geneva', 'Lucid', 'Arial', 'Helvetica', 'Avant Garde', sans-serif; text-anchor: middle; fill: var(--fg-color)" x="10.050859" y="54.2" transform="rotate(-90 10.050859 54.2)">ms</text>
    </g>
   </g>
   <g id="line2d_15">
    <path d="M 39.792727 22.357004 
L 41.198367 31.70444 
L 42.604007 30.416509 
L 44.009647 22.015146 
L 45.415293 24.412128 
L 46.82093 27.486864 
L 48.226575 22.512033 
L 49.63222 13.09702 
L 51.037861 26.293342 
L 52.443498 31.535499 
L 53.849146 26.677932 
L 55.254783 27.89928 
L 56.66043 19.798037 
L 58.066074 24.248156 
L 59.471712 28.395174 
L 60.877362 27.347736 
L 62.28299 30.710666 
L 63.688633 27.766115 
L 65.094287 25.840181 
L 66.499928 26.844886 
L 67.90557 28.966593 
L 69.311202 23.861578 
L 70.716849 27.533572 
L 72.122492 31.980709 
L 73.528132 24.984542 
L 74.933776 26.253591 
L 80.556342 22.732651 
L 81.961994 22.115517 
L 83.36763 26.518929 
L 84.773272 28.149711 
L 86.178917 26.651101 
L 87.584558 9.472727 
L 88.990205 28.045365 
L 90.395818 22.105579 
L 91.801479 26.339056 
L 93.207129 27.618042 
L 94.612766 27.363636 
L 96.018413 16.158837 
L 97.424051 25.181309 
L 98.829694 24.024557 
L 100.235331 27.40935 
L 101.640979 25.848131 
L 103.046638 22.433525 
L 104.452263 17.998312 
L 105.857907 19.72251 
L 107.263546 23.102334 
L 108.669188 26.049867 
L 110.074832 20.258154 
L 111.48047 23.435249 
L 112.886116 22.404705 
L 114.291752 22.457375 
L 156.46111 22.457375 
L 169.579556 25.78453 
L 170.517507 25.380064 
L 171.923149 21.399006 
L 173.328787 23.518726 
L 174.734429 25.591738 
L 176.14008 26.341043 
L 177.545717 17.129754 
L 178.951357 19.404502 
L 180.356996 26.674951 
L 181.762642 25.503292 
L 183.168288 11.378785 
L 184.57393 26.008129 
L 185.979578 24.693366 
L 187.385209 22.996001 
L 188.790855 23.906297 
L 190.196496 23.398479 
L 191.602141 20.514548 
L 193.007783 20.3466 
L 194.413425 26.587499 
L 195.819067 23.096372 
L 197.224707 25.875957 
L 198.63035 22.733644 
L 200.035988 23.467049 
L 201.441628 27.071467 
L 202.847273 28.625729 
" clip-path="url(#pd6b26a2ee3)" style="fill: none; stroke: #339af0; stroke-width: 1.2; stroke-linecap: square"/>
   </g>
   <g id="line2d_16">
    <path d="M 39.792727 98.871621 
L 41.198367 97.958343 
L 42.604007 98.927273 
L 44.009647 96.435882 
L 45.415293 97.108667 
L 46.82093 95.549436 
L 48.226575 96.904943 
L 49.63222 92.509482 
L 51.037861 97.763564 
L 52.443498 96.227189 
L 53.849146 98.679823 
L 55.254783 93.543006 
L 56.66043 97.773501 
L 58.066074 97.355123 
L 59.471712 97.728782 
L 60.877362 97.430649 
L 62.28299 98.754356 
L 63.688633 97.096741 
L 65.094287 98.855721 
L 66.499928 97.794371 
L 67.90557 98.825908 
L 69.311202 94.973047 
L 70.716849 96.324579 
L 72.122492 96.000609 
L 73.528132 96.878111 
L 74.933776 98.328027 
L 80.556342 97.910642 
L 81.961994 98.742431 
L 83.36763 98.734481 
L 84.773272 97.693006 
L 86.178917 97.840084 
L 87.584558 95.235403 
L 88.990205 96.519359 
L 90.395818 98.717586 
L 91.801479 95.492791 
L 93.207129 96.383212 
L 94.612766 98.036851 
L 96.018413 97.753626 
L 97.424051 95.487822 
L 98.829694 98.007038 
L 100.235331 97.566796 
L 101.640979 97.483319 
L 103.046638 97.668161 
L 104.452263 97.757601 
L 105.857907 98.083559 
L 107.263546 95.035655 
L 108.669188 96.895005 
L 110.074832 96.983451 
L 111.48047 94.825968 
L 112.886116 97.727788 
L 114.291752 94.479141 
L 156.46111 94.479141 
L 169.579556 95.3795 
L 170.517507 97.739713 
L 171.923149 95.939989 
L 173.328787 97.351148 
L 174.734429 97.739713 
L 176.14008 98.265419 
L 177.545717 97.561828 
L 178.951357 98.302189 
L 180.356996 98.830877 
L 181.762642 97.192144 
L 183.168288 94.917396 
L 184.57393 96.075142 
L 185.979578 98.716593 
L 187.385209 97.008296 
L 188.790855 95.516641 
L 190.196496 96.971526 
L 191.602141 95.501735 
L 193.007783 97.048047 
L 194.413425 98.120328 
L 195.819067 97.443568 
L 197.224707 97.109661 
L 198.63035 95.481859 
L 200.035988 96.979476 
L 201.441628 97.607541 
L 202.847273 96.417994 
" clip-path="url(#pd6b26a2ee3)" style="fill: none; stroke: #ff6b6b; stroke-width: 1.2; stroke-linecap: square"/>
   </g>
   <g id="patch_3">
    <path d="M 31.64 103.4 
L 31.64 5 
" style="fill: none; stroke: var(--fg-color); stroke-width: 0.8; stroke-linejoin: miter; stroke-linecap: square"/>
   </g>
   <g id="patch_4">
    <path d="M 31.64 103.4 
L 211 103.4 
" style="fill: none; stroke: var(--fg-color); stroke-width: 0.8; stroke-linejoin: miter; stroke-linecap: square"/>
   </g>
  </g>
 </g>
 <defs>
  <clipPath id="pd6b26a2ee3">
   <rect x="31.64" y="5" width="179.36" height="98.4"/>
  </clipPath>
 </defs>
</svg>
