<?xml version="1.0" encoding="utf-8" standalone="no"?>
<!DOCTYPE svg PUBLIC "-//W3C//DTD SVG 1.1//EN"
  "http://www.w3.org/Graphics/SVG/1.1/DTD/svg11.dtd">
<svg xmlns:xlink="http://www.w3.org/1999/xlink" width="216pt" height="122.4pt" viewBox="0 0 216 122.4" xmlns="http://www.w3.org/2000/svg" version="1.1">
  <style>
    :root {
      --fg-color: #212529;
      --grid-color: rgba(33, 37, 41, 0.1);
    }
    @media (prefers-color-scheme: dark) {
      :root {
        --fg-color: #dee2e6;
        --grid-color: rgba(248, 249, 250, 0.15);
      }
    }
  </style>

 <metadata>
  <rdf:RDF xmlns:dc="http://purl.org/dc/elements/1.1/" xmlns:cc="http://creativecommons.org/ns#" xmlns:rdf="http://www.w3.org/1999/02/22-rdf-syntax-ns#">
   <cc:Work>
    <dc:type rdf:resource="http://purl.org/dc/dcmitype/StillImage"/>
    <dc:date>2026-06-30T04:48:37.983913</dc:date>
    <dc:format>image/svg+xml</dc:format>
    <dc:creator>
     <cc:Agent>
      <dc:title>Matplotlib v3.11.0, https://matplotlib.org/</dc:title>
     </cc:Agent>
    </dc:creator>
   </cc:Work>
  </rdf:RDF>
 </metadata>
 <defs>
  <style type="text/css">*{stroke-linejoin: round; stroke-linecap: butt}</style>
 </defs>
 <g id="figure_1">
  <g id="patch_1">
   <path d="M 0 122.4 
L 216 122.4 
L 216 0 
L 0 0 
L 0 122.4 
z
" style="fill: none; opacity: 0"/>
  </g>
  <g id="axes_1">
   <g id="patch_2">
    <path d="M 35.96 103.4 
L 211 103.4 
L 211 5 
L 35.96 5 
L 35.96 103.4 
z
" style="fill: none; opacity: 0"/>
   </g>
   <g id="matplotlib.axis_1">
    <g id="xtick_1">
     <g id="line2d_1">
      <path d="M 72.056377 103.4 
L 72.056377 5 
" clip-path="url(#pdb7dbb20f4)" style="fill: none; stroke-dasharray: 2.96,1.28; stroke-dashoffset: 0; stroke: var(--grid-color); stroke-width: 0.8"/>
     </g>
     <g id="line2d_2">
      <defs>
       <path id="m4de4031cdb" d="M 0 0 
L 0 3.5 
" style="stroke: var(--fg-color); stroke-width: 0.8"/>
      </defs>
      <g>
       <use xlink:href="#m4de4031cdb" x="72.056377" y="103.4" style="fill: var(--fg-color); stroke: var(--fg-color); stroke-width: 0.8"/>
      </g>
     </g>
     <g id="text_1">
      <text style="font-size: 7px; font-family: 'DejaVu Sans', 'Bitstream Vera Sans', 'Computer Modern Sans Serif', 'Lucida Grande', 'Verdana', 'Geneva', 'Lucid', 'Arial', 'Helvetica', 'Avant Garde', sans-serif; text-anchor: middle; fill: var(--fg-color)" x="72.056377" y="115.718359" transform="rotate(-0 72.056377 115.718359)">02/2026</text>
     </g>
    </g>
    <g id="xtick_2">
     <g id="line2d_3">
      <path d="M 126.640628 103.4 
L 126.640628 5 
" clip-path="url(#pdb7dbb20f4)" style="fill: none; stroke-dasharray: 2.96,1.28; stroke-dashoffset: 0; stroke: var(--grid-color); stroke-width: 0.8"/>
     </g>
     <g id="line2d_4">
      <g>
       <use xlink:href="#m4de4031cdb" x="126.640628" y="103.4" style="fill: var(--fg-color); stroke: var(--fg-color); stroke-width: 0.8"/>
      </g>
     </g>
     <g id="text_2">
      <text style="font-size: 7px; font-family: 'DejaVu Sans', 'Bitstream Vera Sans', 'Computer Modern Sans Serif', 'Lucida Grande', 'Verdana', 'Geneva', 'Lucid', 'Arial', 'Helvetica', 'Avant Garde', sans-serif; text-anchor: middle; fill: var(--fg-color)" x="126.640628" y="115.718359" transform="rotate(-0 126.640628 115.718359)">04/2026</text>
     </g>
    </g>
    <g id="xtick_3">
     <g id="line2d_5">
      <path d="M 183.075192 103.4 
L 183.075192 5 
" clip-path="url(#pdb7dbb20f4)" style="fill: none; stroke-dasharray: 2.96,1.28; stroke-dashoffset: 0; stroke: var(--grid-color); stroke-width: 0.8"/>
     </g>
     <g id="line2d_6">
      <g>
       <use xlink:href="#m4de4031cdb" x="183.075192" y="103.4" style="fill: var(--fg-color); stroke: var(--fg-color); stroke-width: 0.8"/>
      </g>
     </g>
     <g id="text_3">
      <text style="font-size: 7px; font-family: 'DejaVu Sans', 'Bitstream Vera Sans', 'Computer Modern Sans Serif', 'Lucida Grande', 'Verdana', 'Geneva', 'Lucid', 'Arial', 'Helvetica', 'Avant Garde', sans-serif; text-anchor: middle; fill: var(--fg-color)" x="183.075192" y="115.718359" transform="rotate(-0 183.075192 115.718359)">06/2026</text>
     </g>
    </g>
   </g>
   <g id="matplotlib.axis_2">
    <g id="ytick_1">
     <g id="line2d_7">
      <path d="M 35.96 103.099385 
L 211 103.099385 
" clip-path="url(#pdb7dbb20f4)" style="fill: none; stroke-dasharray: 2.96,1.28; stroke-dashoffset: 0; stroke: var(--grid-color); stroke-width: 0.8"/>
     </g>
     <g id="line2d_8">
      <defs>
       <path id="m1fa404a85c" d="M 0 0 
L -3.5 0 
" style="stroke: var(--fg-color); stroke-width: 0.8"/>
      </defs>
      <g>
       <use xlink:href="#m1fa404a85c" x="35.96" y="103.099385" style="fill: var(--fg-color); stroke: var(--fg-color); stroke-width: 0.8"/>
      </g>
     </g>
     <g id="text_4">
      <text style="font-size: 7px; font-family: 'DejaVu Sans', 'Bitstream Vera Sans', 'Computer Modern Sans Serif', 'Lucida Grande', 'Verdana', 'Geneva', 'Lucid', 'Arial', 'Helvetica', 'Avant Garde', sans-serif; text-anchor: end; fill: var(--fg-color)" x="28.96" y="105.758564" transform="rotate(-0 28.96 105.758564)">0</text>
     </g>
    </g>
    <g id="ytick_2">
     <g id="line2d_9">
      <path d="M 35.96 87.419469 
L 211 87.419469 
" clip-path="url(#pdb7dbb20f4)" style="fill: none; stroke-dasharray: 2.96,1.28; stroke-dashoffset: 0; stroke: var(--grid-color); stroke-width: 0.8"/>
     </g>
     <g id="line2d_10">
      <g>
       <use xlink:href="#m1fa404a85c" x="35.96" y="87.419469" style="fill: var(--fg-color); stroke: var(--fg-color); stroke-width: 0.8"/>
      </g>
     </g>
     <g id="text_5">
      <text style="font-size: 7px; font-family: 'DejaVu Sans', 'Bitstream Vera Sans', 'Computer Modern Sans Serif', 'Lucida Grande', 'Verdana', 'Geneva', 'Lucid', 'Arial', 'Helvetica', 'Avant Garde', sans-serif; text-anchor: end; fill: var(--fg-color)" x="28.96" y="90.078649" transform="rotate(-0 28.96 90.078649)">25</text>
     </g>
    </g>
    <g id="ytick_3">
     <g id="line2d_11">
      <path d="M 35.96 71.739554 
L 211 71.739554 
" clip-path="url(#pdb7dbb20f4)" style="fill: none; stroke-dasharray: 2.96,1.28; stroke-dashoffset: 0; stroke: var(--grid-color); stroke-width: 0.8"/>
     </g>
     <g id="line2d_12">
      <g>
       <use xlink:href="#m1fa404a85c" x="35.96" y="71.739554" style="fill: var(--fg-color); stroke: var(--fg-color); stroke-width: 0.8"/>
      </g>
     </g>
     <g id="text_6">
      <text style="font-size: 7px; font-family: 'DejaVu Sans', 'Bitstream Vera Sans', 'Computer Modern Sans Serif', 'Lucida Grande', 'Verdana', 'Geneva', 'Lucid', 'Arial', 'Helvetica', 'Avant Garde', sans-serif; text-anchor: end; fill: var(--fg-color)" x="28.96" y="74.398733" transform="rotate(-0 28.96 74.398733)">50</text>
     </g>
    </g>
    <g id="ytick_4">
     <g id="line2d_13">
      <path d="M 35.96 56.059638 
L 211 56.059638 
" clip-path="url(#pdb7dbb20f4)" style="fill: none; stroke-dasharray: 2.96,1.28; stroke-dashoffset: 0; stroke: var(--grid-color); stroke-width: 0.8"/>
     </g>
     <g id="line2d_14">
      <g>
       <use xlink:href="#m1fa404a85c" x="35.96" y="56.059638" style="fill: var(--fg-color); stroke: var(--fg-color); stroke-width: 0.8"/>
      </g>
     </g>
     <g id="text_7">
      <text style="font-size: 7px; font-family: 'DejaVu Sans', 'Bitstream Vera Sans', 'Computer Modern Sans Serif', 'Lucida Grande', 'Verdana', 'Geneva', 'Lucid', 'Arial', 'Helvetica', 'Avant Garde', sans-serif; text-anchor: end; fill: var(--fg-color)" x="28.96" y="58.718818" transform="rotate(-0 28.96 58.718818)">75</text>
     </g>
    </g>
    <g id="ytick_5">
     <g id="line2d_15">
      <path d="M 35.96 40.379722 
L 211 40.379722 
" clip-path="url(#pdb7dbb20f4)" style="fill: none; stroke-dasharray: 2.96,1.28; stroke-dashoffset: 0; stroke: var(--grid-color); stroke-width: 0.8"/>
     </g>
     <g id="line2d_16">
      <g>
       <use xlink:href="#m1fa404a85c" x="35.96" y="40.379722" style="fill: var(--fg-color); stroke: var(--fg-color); stroke-width: 0.8"/>
      </g>
     </g>
     <g id="text_8">
      <text style="font-size: 7px; font-family: 'DejaVu Sans', 'Bitstream Vera Sans', 'Computer Modern Sans Serif', 'Lucida Grande', 'Verdana', 'Geneva', 'Lucid', 'Arial', 'Helvetica', 'Avant Garde', sans-serif; text-anchor: end; fill: var(--fg-color)" x="28.96" y="43.038902" transform="rotate(-0 28.96 43.038902)">100</text>
     </g>
    </g>
    <g id="ytick_6">
     <g id="line2d_17">
      <path d="M 35.96 24.699807 
L 211 24.699807 
" clip-path="url(#pdb7dbb20f4)" style="fill: none; stroke-dasharray: 2.96,1.28; stroke-dashoffset: 0; stroke: var(--grid-color); stroke-width: 0.8"/>
     </g>
     <g id="line2d_18">
      <g>
       <use xlink:href="#m1fa404a85c" x="35.96" y="24.699807" style="fill: var(--fg-color); stroke: var(--fg-color); stroke-width: 0.8"/>
      </g>
     </g>
     <g id="text_9">
      <text style="font-size: 7px; font-family: 'DejaVu Sans', 'Bitstream Vera Sans', 'Computer Modern Sans Serif', 'Lucida Grande', 'Verdana', 'Geneva', 'Lucid', 'Arial', 'Helvetica', 'Avant Garde', sans-serif; text-anchor: end; fill: var(--fg-color)" x="28.96" y="27.358987" transform="rotate(-0 28.96 27.358987)">125</text>
     </g>
    </g>
    <g id="ytick_7">
     <g id="line2d_19">
      <path d="M 35.96 9.019891 
L 211 9.019891 
" clip-path="url(#pdb7dbb20f4)" style="fill: none; stroke-dasharray: 2.96,1.28; stroke-dashoffset: 0; stroke: var(--grid-color); stroke-width: 0.8"/>
     </g>
     <g id="line2d_20">
      <g>
       <use xlink:href="#m1fa404a85c" x="35.96" y="9.019891" style="fill: var(--fg-color); stroke: var(--fg-color); stroke-width: 0.8"/>
      </g>
     </g>
     <g id="text_10">
      <text style="font-size: 7px; font-family: 'DejaVu Sans', 'Bitstream Vera Sans', 'Computer Modern Sans Serif', 'Lucida Grande', 'Verdana', 'Geneva', 'Lucid', 'Arial', 'Helvetica', 'Avant Garde', sans-serif; text-anchor: end; fill: var(--fg-color)" x="28.96" y="11.679071" transform="rotate(-0 28.96 11.679071)">150</text>
     </g>
    </g>
    <g id="text_11">
     <text style="font-size: 7px; font-family: 'DejaVu Sans', 'Bitstream Vera Sans', 'Computer Modern Sans Serif', 'Lucida Grande', 'Verdana', 'Geneva', 'Lucid', 'Arial', 'Helvetica', 'Avant Garde', sans-serif; text-anchor: middle; fill: var(--fg-color)" x="9.917109" y="54.2" transform="rotate(-90 9.917109 54.2)">ms</text>
    </g>
   </g>
   <g id="line2d_21">
    <path d="M 43.916364 26.095947 
L 45.193108 23.748977 
L 45.766628 23.592805 
L 46.691788 26.089047 
L 47.616947 29.425106 
L 48.542109 24.70357 
L 49.467263 21.380055 
L 50.392418 24.831518 
L 51.317566 23.722635 
L 52.242732 21.49985 
L 53.167891 22.982543 
L 54.093049 24.285857 
L 55.018206 23.072232 
L 55.943359 25.263029 
L 56.868517 26.722516 
L 57.793676 25.23606 
L 58.718827 23.609112 
L 59.643987 25.256757 
L 60.569143 26.877434 
L 61.494301 23.733297 
L 62.419457 24.060694 
L 63.344613 21.631561 
L 64.269773 20.941018 
L 65.194924 28.227788 
L 66.120079 27.011026 
L 67.045243 21.436503 
L 67.970398 26.422089 
L 68.895557 27.320862 
L 69.82071 21.984045 
L 70.74585 23.730161 
L 71.671025 22.457579 
L 72.596178 27.489577 
L 73.521341 22.784348 
L 74.446495 22.819471 
L 75.371653 26.550664 
L 76.296805 25.658163 
L 77.221971 27.219883 
L 78.147114 27.155282 
L 79.072277 27.280721 
L 79.997435 23.78849 
L 80.922594 22.176595 
L 81.847735 27.421213 
L 82.772905 20.496335 
L 83.698046 24.251361 
L 84.623219 19.911161 
L 85.548376 25.950437 
L 86.473535 25.646247 
L 87.398688 22.613751 
L 88.323852 22.260012 
L 97.76512 24.718623 
L 98.500856 20.708328 
L 99.426031 27.187896 
L 100.351186 26.404527 
L 101.276348 22.93174 
L 102.201502 22.641348 
L 103.126656 23.566463 
L 104.051812 19.03434 
L 104.976967 22.919823 
L 105.902123 19.032458 
L 106.827282 21.884948 
L 107.752435 22.201056 
L 108.677594 22.913551 
L 109.602753 18.636697 
L 110.527909 26.167447 
L 111.453063 18.779071 
L 112.378223 23.397119 
L 113.303377 23.676222 
L 114.228537 20.205316 
L 115.153695 18.669311 
L 116.078848 21.32298 
L 117.004011 20.370269 
L 117.929158 22.220499 
L 118.854316 22.384824 
L 119.779481 20.269917 
L 120.704637 25.094941 
L 121.629794 21.393226 
L 122.554943 24.318471 
L 123.480104 21.489815 
L 124.405261 21.771426 
L 125.330416 20.608603 
L 126.255574 24.620153 
L 129.9562 17.442515 
L 130.881363 23.624792 
L 131.806516 17.364115 
L 132.731673 19.909906 
L 133.656831 19.139082 
L 134.581987 20.323856 
L 135.507147 15.653123 
L 136.432285 18.469863 
L 137.357455 17.004104 
L 138.282617 15.542736 
L 139.20777 13.788467 
L 140.13293 19.636449 
L 141.058084 16.866121 
L 141.983242 18.950923 
L 142.908395 17.948662 
L 143.833556 16.609598 
L 144.758724 17.281952 
L 145.683869 11.024412 
L 146.609028 21.030079 
L 147.534182 17.964342 
L 148.459339 14.642082 
L 149.384497 15.340152 
L 150.309651 20.571599 
L 151.234811 17.256237 
L 152.159963 16.022542 
L 179.91473 16.022542 
L 188.548948 16.003099 
L 189.166282 20.574107 
L 190.091439 17.231777 
L 191.016594 16.550014 
L 191.94175 19.608225 
L 192.866913 20.316957 
L 193.792066 17.199162 
L 194.717222 20.926592 
L 195.642377 24.398125 
L 196.567536 21.186251 
L 197.492695 9.472727 
L 198.417852 15.040352 
L 199.343013 23.745214 
L 200.268162 21.881812 
L 201.193322 21.476643 
L 202.118478 16.378162 
L 203.043636 19.436373 
" clip-path="url(#pdb7dbb20f4)" style="fill: none; stroke: #339af0; stroke-width: 1.2; stroke-linecap: square"/>
   </g>
   <g id="line2d_22">
    <path d="M 43.916364 97.363672 
L 45.193108 97.228197 
L 45.766628 97.107775 
L 46.691788 97.420746 
L 47.616947 97.469041 
L 48.542109 96.830554 
L 49.467263 96.933415 
L 50.392418 97.17614 
L 51.317566 97.293426 
L 52.242732 97.068889 
L 53.167891 97.453988 
L 54.093049 97.217535 
L 55.018206 96.132485 
L 55.943359 97.356772 
L 56.868517 97.588835 
L 57.793676 97.183039 
L 58.718827 96.975437 
L 59.643987 97.197464 
L 60.569143 97.356145 
L 61.494301 96.753409 
L 62.419457 97.012441 
L 63.344613 97.323531 
L 64.269773 97.036275 
L 65.194924 97.546813 
L 66.120079 97.159205 
L 67.045243 97.238859 
L 67.970398 97.102131 
L 68.895557 96.723931 
L 69.82071 97.289035 
L 70.74585 97.204364 
L 71.671025 96.829927 
L 72.596178 97.405694 
L 73.521341 97.277746 
L 74.446495 97.320395 
L 75.371653 97.088959 
L 76.296805 97.441444 
L 77.221971 97.278373 
L 78.147114 97.267083 
L 79.072277 97.235096 
L 79.997435 97.039411 
L 80.922594 97.388759 
L 81.847735 97.22318 
L 82.772905 97.13349 
L 83.698046 97.302206 
L 84.623219 96.812366 
L 85.548376 97.175513 
L 86.473535 97.588835 
L 87.398688 97.382487 
L 88.323852 97.258303 
L 97.76512 97.282763 
L 98.500856 97.059481 
L 99.426031 97.186802 
L 100.351186 97.228197 
L 101.276348 97.07328 
L 102.201502 97.319141 
L 103.126656 98.377848 
L 104.051812 98.582315 
L 104.976967 98.492625 
L 105.902123 98.505797 
L 106.827282 98.251155 
L 107.752435 98.672631 
L 108.677594 98.627473 
L 109.602753 98.650679 
L 110.527909 98.548446 
L 111.453063 98.67514 
L 112.378223 98.557854 
L 113.303377 98.927273 
L 114.228537 98.527748 
L 115.153695 98.313874 
L 116.078848 98.465029 
L 117.004011 98.313874 
L 117.929158 98.414853 
L 118.854316 98.264953 
L 119.779481 98.535902 
L 120.704637 98.810614 
L 121.629794 98.657578 
L 122.554943 98.752285 
L 123.480104 98.520222 
L 124.405261 98.369068 
L 125.330416 98.470046 
L 126.255574 98.311993 
L 129.9562 98.201606 
L 130.881363 98.516459 
L 131.806516 88.384098 
L 132.731673 98.347743 
L 133.656831 98.347743 
L 134.581987 98.125088 
L 135.507147 97.916859 
L 136.432285 98.498897 
L 137.357455 98.050452 
L 138.282617 98.303839 
L 139.20777 97.765705 
L 140.13293 98.172755 
L 141.058084 98.049197 
L 141.983242 98.355897 
L 142.908395 98.355897 
L 143.833556 98.205369 
L 144.758724 98.290668 
L 145.683869 98.362796 
L 146.609028 98.353388 
L 147.534182 98.325164 
L 148.459339 98.143277 
L 149.384497 98.110036 
L 150.309651 98.317638 
L 151.234811 98.352761 
L 152.159963 98.09122 
L 179.91473 98.09122 
L 188.548948 98.145159 
L 189.166282 96.912717 
L 190.091439 97.403812 
L 191.016594 97.588208 
L 191.94175 96.551452 
L 192.866913 98.041671 
L 193.792066 97.5788 
L 194.717222 97.603261 
L 195.642377 97.178021 
L 196.567536 96.991744 
L 197.492695 96.585948 
L 198.417852 97.607651 
L 199.343013 97.655945 
L 200.268162 97.741871 
L 201.193322 97.550576 
L 202.118478 97.720546 
L 203.043636 96.347613 
" clip-path="url(#pdb7dbb20f4)" style="fill: none; stroke: #ff6b6b; stroke-width: 1.2; stroke-linecap: square"/>
   </g>
   <g id="patch_3">
    <path d="M 35.96 103.4 
L 35.96 5 
" style="fill: none; stroke: var(--fg-color); stroke-width: 0.8; stroke-linejoin: miter; stroke-linecap: square"/>
   </g>
   <g id="patch_4">
    <path d="M 35.96 103.4 
L 211 103.4 
" style="fill: none; stroke: var(--fg-color); stroke-width: 0.8; stroke-linejoin: miter; stroke-linecap: square"/>
   </g>
  </g>
 </g>
 <defs>
  <clipPath id="pdb7dbb20f4">
   <rect x="35.96" y="5" width="175.04" height="98.4"/>
  </clipPath>
 </defs>
</svg>
