<?xml version="1.0" encoding="utf-8" standalone="no"?>
<!DOCTYPE svg PUBLIC "-//W3C//DTD SVG 1.1//EN"
  "http://www.w3.org/Graphics/SVG/1.1/DTD/svg11.dtd">
<svg xmlns:xlink="http://www.w3.org/1999/xlink" width="216pt" height="122.4pt" viewBox="0 0 216 122.4" xmlns="http://www.w3.org/2000/svg" version="1.1">
  <style>
    :root {
      --fg-color: #212529;
      --grid-color: rgba(33, 37, 41, 0.1);
    }
    @media (prefers-color-scheme: dark) {
      :root {
        --fg-color: #dee2e6;
        --grid-color: rgba(248, 249, 250, 0.15);
      }
    }
  </style>

 <metadata>
  <rdf:RDF xmlns:dc="http://purl.org/dc/elements/1.1/" xmlns:cc="http://creativecommons.org/ns#" xmlns:rdf="http://www.w3.org/1999/02/22-rdf-syntax-ns#">
   <cc:Work>
    <dc:type rdf:resource="http://purl.org/dc/dcmitype/StillImage"/>
    <dc:date>2026-06-30T15:38:09.765618</dc:date>
    <dc:format>image/svg+xml</dc:format>
    <dc:creator>
     <cc:Agent>
      <dc:title>Matplotlib v3.11.0, https://matplotlib.org/</dc:title>
     </cc:Agent>
    </dc:creator>
   </cc:Work>
  </rdf:RDF>
 </metadata>
 <defs>
  <style type="text/css">*{stroke-linejoin: round; stroke-linecap: butt}</style>
 </defs>
 <g id="figure_1">
  <g id="patch_1">
   <path d="M 0 122.4 
L 216 122.4 
L 216 0 
L 0 0 
L 0 122.4 
z
" style="fill: none; opacity: 0"/>
  </g>
  <g id="axes_1">
   <g id="patch_2">
    <path d="M 35.96 103.4 
L 211 103.4 
L 211 5 
L 35.96 5 
L 35.96 103.4 
z
" style="fill: none; opacity: 0"/>
   </g>
   <g id="matplotlib.axis_1">
    <g id="xtick_1">
     <g id="line2d_1">
      <path d="M 69.784035 103.4 
L 69.784035 5 
" clip-path="url(#p27f56e41b5)" style="fill: none; stroke-dasharray: 2.96,1.28; stroke-dashoffset: 0; stroke: var(--grid-color); stroke-width: 0.8"/>
     </g>
     <g id="line2d_2">
      <defs>
       <path id="m0707a99e10" d="M 0 0 
L 0 3.5 
" style="stroke: var(--fg-color); stroke-width: 0.8"/>
      </defs>
      <g>
       <use xlink:href="#m0707a99e10" x="69.784035" y="103.4" style="fill: var(--fg-color); stroke: var(--fg-color); stroke-width: 0.8"/>
      </g>
     </g>
     <g id="text_1">
      <text style="font-size: 7px; font-family: 'DejaVu Sans', 'Bitstream Vera Sans', 'Computer Modern Sans Serif', 'Lucida Grande', 'Verdana', 'Geneva', 'Lucid', 'Arial', 'Helvetica', 'Avant Garde', sans-serif; text-anchor: middle; fill: var(--fg-color)" x="69.784035" y="115.718359" transform="rotate(-0 69.784035 115.718359)">02/2026</text>
     </g>
    </g>
    <g id="xtick_2">
     <g id="line2d_3">
      <path d="M 122.345302 103.4 
L 122.345302 5 
" clip-path="url(#p27f56e41b5)" style="fill: none; stroke-dasharray: 2.96,1.28; stroke-dashoffset: 0; stroke: var(--grid-color); stroke-width: 0.8"/>
     </g>
     <g id="line2d_4">
      <g>
       <use xlink:href="#m0707a99e10" x="122.345302" y="103.4" style="fill: var(--fg-color); stroke: var(--fg-color); stroke-width: 0.8"/>
      </g>
     </g>
     <g id="text_2">
      <text style="font-size: 7px; font-family: 'DejaVu Sans', 'Bitstream Vera Sans', 'Computer Modern Sans Serif', 'Lucida Grande', 'Verdana', 'Geneva', 'Lucid', 'Arial', 'Helvetica', 'Avant Garde', sans-serif; text-anchor: middle; fill: var(--fg-color)" x="122.345302" y="115.718359" transform="rotate(-0 122.345302 115.718359)">04/2026</text>
     </g>
    </g>
    <g id="xtick_3">
     <g id="line2d_5">
      <path d="M 176.688307 103.4 
L 176.688307 5 
" clip-path="url(#p27f56e41b5)" style="fill: none; stroke-dasharray: 2.96,1.28; stroke-dashoffset: 0; stroke: var(--grid-color); stroke-width: 0.8"/>
     </g>
     <g id="line2d_6">
      <g>
       <use xlink:href="#m0707a99e10" x="176.688307" y="103.4" style="fill: var(--fg-color); stroke: var(--fg-color); stroke-width: 0.8"/>
      </g>
     </g>
     <g id="text_3">
      <text style="font-size: 7px; font-family: 'DejaVu Sans', 'Bitstream Vera Sans', 'Computer Modern Sans Serif', 'Lucida Grande', 'Verdana', 'Geneva', 'Lucid', 'Arial', 'Helvetica', 'Avant Garde', sans-serif; text-anchor: middle; fill: var(--fg-color)" x="176.688307" y="115.718359" transform="rotate(-0 176.688307 115.718359)">06/2026</text>
     </g>
    </g>
   </g>
   <g id="matplotlib.axis_2">
    <g id="ytick_1">
     <g id="line2d_7">
      <path d="M 35.96 99.585455 
L 211 99.585455 
" clip-path="url(#p27f56e41b5)" style="fill: none; stroke-dasharray: 2.96,1.28; stroke-dashoffset: 0; stroke: var(--grid-color); stroke-width: 0.8"/>
     </g>
     <g id="line2d_8">
      <defs>
       <path id="mea7c378264" d="M 0 0 
L -3.5 0 
" style="stroke: var(--fg-color); stroke-width: 0.8"/>
      </defs>
      <g>
       <use xlink:href="#mea7c378264" x="35.96" y="99.585455" style="fill: var(--fg-color); stroke: var(--fg-color); stroke-width: 0.8"/>
      </g>
     </g>
     <g id="text_4">
      <text style="font-size: 7px; font-family: 'DejaVu Sans', 'Bitstream Vera Sans', 'Computer Modern Sans Serif', 'Lucida Grande', 'Verdana', 'Geneva', 'Lucid', 'Arial', 'Helvetica', 'Avant Garde', sans-serif; text-anchor: end; fill: var(--fg-color)" x="28.96" y="102.244634" transform="rotate(-0 28.96 102.244634)">0</text>
     </g>
    </g>
    <g id="ytick_2">
     <g id="line2d_9">
      <path d="M 35.96 80.37968 
L 211 80.37968 
" clip-path="url(#p27f56e41b5)" style="fill: none; stroke-dasharray: 2.96,1.28; stroke-dashoffset: 0; stroke: var(--grid-color); stroke-width: 0.8"/>
     </g>
     <g id="line2d_10">
      <g>
       <use xlink:href="#mea7c378264" x="35.96" y="80.37968" style="fill: var(--fg-color); stroke: var(--fg-color); stroke-width: 0.8"/>
      </g>
     </g>
     <g id="text_5">
      <text style="font-size: 7px; font-family: 'DejaVu Sans', 'Bitstream Vera Sans', 'Computer Modern Sans Serif', 'Lucida Grande', 'Verdana', 'Geneva', 'Lucid', 'Arial', 'Helvetica', 'Avant Garde', sans-serif; text-anchor: end; fill: var(--fg-color)" x="28.96" y="83.038859" transform="rotate(-0 28.96 83.038859)">100</text>
     </g>
    </g>
    <g id="ytick_3">
     <g id="line2d_11">
      <path d="M 35.96 61.173905 
L 211 61.173905 
" clip-path="url(#p27f56e41b5)" style="fill: none; stroke-dasharray: 2.96,1.28; stroke-dashoffset: 0; stroke: var(--grid-color); stroke-width: 0.8"/>
     </g>
     <g id="line2d_12">
      <g>
       <use xlink:href="#mea7c378264" x="35.96" y="61.173905" style="fill: var(--fg-color); stroke: var(--fg-color); stroke-width: 0.8"/>
      </g>
     </g>
     <g id="text_6">
      <text style="font-size: 7px; font-family: 'DejaVu Sans', 'Bitstream Vera Sans', 'Computer Modern Sans Serif', 'Lucida Grande', 'Verdana', 'Geneva', 'Lucid', 'Arial', 'Helvetica', 'Avant Garde', sans-serif; text-anchor: end; fill: var(--fg-color)" x="28.96" y="63.833085" transform="rotate(-0 28.96 63.833085)">200</text>
     </g>
    </g>
    <g id="ytick_4">
     <g id="line2d_13">
      <path d="M 35.96 41.96813 
L 211 41.96813 
" clip-path="url(#p27f56e41b5)" style="fill: none; stroke-dasharray: 2.96,1.28; stroke-dashoffset: 0; stroke: var(--grid-color); stroke-width: 0.8"/>
     </g>
     <g id="line2d_14">
      <g>
       <use xlink:href="#mea7c378264" x="35.96" y="41.96813" style="fill: var(--fg-color); stroke: var(--fg-color); stroke-width: 0.8"/>
      </g>
     </g>
     <g id="text_7">
      <text style="font-size: 7px; font-family: 'DejaVu Sans', 'Bitstream Vera Sans', 'Computer Modern Sans Serif', 'Lucida Grande', 'Verdana', 'Geneva', 'Lucid', 'Arial', 'Helvetica', 'Avant Garde', sans-serif; text-anchor: end; fill: var(--fg-color)" x="28.96" y="44.62731" transform="rotate(-0 28.96 44.62731)">300</text>
     </g>
    </g>
    <g id="ytick_5">
     <g id="line2d_15">
      <path d="M 35.96 22.762355 
L 211 22.762355 
" clip-path="url(#p27f56e41b5)" style="fill: none; stroke-dasharray: 2.96,1.28; stroke-dashoffset: 0; stroke: var(--grid-color); stroke-width: 0.8"/>
     </g>
     <g id="line2d_16">
      <g>
       <use xlink:href="#mea7c378264" x="35.96" y="22.762355" style="fill: var(--fg-color); stroke: var(--fg-color); stroke-width: 0.8"/>
      </g>
     </g>
     <g id="text_8">
      <text style="font-size: 7px; font-family: 'DejaVu Sans', 'Bitstream Vera Sans', 'Computer Modern Sans Serif', 'Lucida Grande', 'Verdana', 'Geneva', 'Lucid', 'Arial', 'Helvetica', 'Avant Garde', sans-serif; text-anchor: end; fill: var(--fg-color)" x="28.96" y="25.421535" transform="rotate(-0 28.96 25.421535)">400</text>
     </g>
    </g>
    <g id="text_9">
     <text style="font-size: 7px; font-family: 'DejaVu Sans', 'Bitstream Vera Sans', 'Computer Modern Sans Serif', 'Lucida Grande', 'Verdana', 'Geneva', 'Lucid', 'Arial', 'Helvetica', 'Avant Garde', sans-serif; text-anchor: middle; fill: var(--fg-color)" x="9.917109" y="54.2" transform="rotate(-90 9.917109 54.2)">ms</text>
    </g>
   </g>
   <g id="line2d_17">
    <path d="M 43.916364 66.700943 
L 44.468628 83.469697 
L 45.3595 81.818576 
L 46.250371 82.716446 
L 47.141245 80.157085 
L 48.032112 83.293004 
L 48.922979 83.703047 
L 49.81384 81.739065 
L 50.704717 83.709961 
L 51.595589 82.704347 
L 52.486458 82.555886 
L 53.377327 82.115882 
L 55.159063 83.934093 
L 56.049934 81.108731 
L 56.940797 82.793077 
L 57.831669 84.750338 
L 58.722538 81.424282 
L 59.613407 81.248933 
L 60.504275 76.328414 
L 61.395144 80.177443 
L 62.286016 80.244087 
L 63.176879 84.572877 
L 64.067746 84.313599 
L 64.958622 82.175612 
L 65.84949 80.709635 
L 66.740361 81.80955 
L 67.631226 80.638574 
L 68.522078 83.204081 
L 69.412965 82.675346 
L 70.30383 83.716875 
L 71.194705 82.499229 
L 72.085571 80.557333 
L 72.976442 84.83638 
L 73.867306 81.352068 
L 74.758184 82.931935 
L 76.539914 83.786016 
L 77.430784 82.227659 
L 78.321655 80.378912 
L 79.212509 81.436958 
L 80.103391 80.56828 
L 80.994245 59.716571 
L 81.885129 82.961896 
L 82.775998 73.192687 
L 83.666869 83.632946 
L 84.557735 83.242877 
L 85.44861 80.620904 
L 94.53997 9.472727 
L 95.248438 84.229861 
L 96.139324 80.969681 
L 97.030192 81.501105 
L 97.921065 81.837206 
L 98.811931 79.396536 
L 99.702798 83.168358 
L 100.593666 83.621615 
L 101.484533 82.891987 
L 102.375401 82.789044 
L 103.266272 80.82026 
L 104.157138 83.174312 
L 105.048009 80.899964 
L 105.93888 81.608081 
L 106.829748 80.783961 
L 107.720614 83.453948 
L 108.611487 84.057586 
L 110.393224 83.07329 
L 111.284094 76.379309 
L 112.17496 80.245239 
L 113.065834 82.366133 
L 113.956695 83.478724 
L 114.847564 80.770133 
L 115.738441 82.744871 
L 116.629309 82.418949 
L 117.520178 79.112099 
L 118.41104 80.061824 
L 119.301913 82.598523 
L 120.192782 82.536104 
L 121.97452 82.085345 
L 125.537994 79.337959 
L 126.428869 79.403834 
L 127.319734 80.089865 
L 128.210603 84.243306 
L 129.101474 79.596276 
L 129.992342 81.095671 
L 130.883214 81.801483 
L 131.774065 81.981826 
L 132.664946 82.924253 
L 133.55582 80.99945 
L 134.446686 81.536636 
L 136.228424 79.682702 
L 137.119294 82.569138 
L 138.010159 82.27068 
L 138.901032 82.212295 
L 139.791912 81.873889 
L 140.68277 81.178832 
L 142.464507 78.778302 
L 143.355376 83.791394 
L 144.246246 78.741811 
L 145.137113 82.915994 
L 146.027984 82.52919 
L 146.918849 79.409788 
L 173.644977 79.409788 
L 181.959197 80.263101 
L 182.553652 84.036651 
L 183.444521 79.593395 
L 184.335387 79.69653 
L 185.226256 81.301941 
L 186.117131 76.218172 
L 187.007996 80.952588 
L 187.898864 81.830676 
L 188.789731 83.399212 
L 189.680603 82.781938 
L 190.571474 81.092598 
L 191.462343 81.909036 
L 192.353215 82.134703 
L 193.244077 81.607889 
L 194.134949 82.429128 
L 195.025817 80.268478 
L 195.916688 81.208409 
L 196.807557 77.473462 
L 197.698426 83.000116 
L 198.589295 82.092067 
L 199.480162 83.014904 
L 200.371032 81.039206 
L 201.261898 81.346883 
L 202.152766 67.343184 
L 203.043636 82.085729 
L 203.043636 82.085729 
" clip-path="url(#p27f56e41b5)" style="fill: none; stroke: #339af0; stroke-width: 1.2; stroke-linecap: square"/>
   </g>
   <g id="line2d_18">
    <path d="M 43.916364 98.003667 
L 44.468628 98.672412 
L 46.250371 98.781117 
L 47.141245 98.442903 
L 48.032112 98.676445 
L 48.922979 98.475553 
L 50.704717 98.74597 
L 52.486458 98.768057 
L 53.377327 98.575807 
L 54.268192 98.724076 
L 55.159063 98.758454 
L 56.049934 98.349371 
L 56.940797 98.29137 
L 57.831669 98.790912 
L 58.722538 98.784766 
L 60.504275 98.370305 
L 61.395144 98.663769 
L 62.286016 98.56486 
L 63.176879 98.81684 
L 64.067746 98.661657 
L 64.958622 98.739056 
L 68.522078 98.523183 
L 70.30383 98.606152 
L 71.194705 98.492838 
L 72.085571 98.190923 
L 72.976442 98.817032 
L 73.867306 98.640146 
L 75.649039 98.7525 
L 77.430784 98.75999 
L 78.321655 98.446168 
L 79.212509 98.759222 
L 80.994245 98.543157 
L 81.885129 98.668763 
L 85.44861 98.575039 
L 94.53997 94.287542 
L 95.248438 98.824714 
L 96.139324 98.457692 
L 97.030192 98.724076 
L 98.811931 98.536435 
L 100.593666 98.826634 
L 102.375401 98.836621 
L 105.93888 98.801283 
L 107.720614 98.768441 
L 108.611487 98.892894 
L 109.502352 98.667419 
L 111.284094 98.761719 
L 112.17496 98.560058 
L 113.065834 98.841615 
L 115.738441 98.859284 
L 116.629309 98.892894 
L 117.520178 98.658968 
L 118.41104 98.809349 
L 120.192782 98.713705 
L 121.083649 98.873881 
L 121.97452 98.640146 
L 126.428869 98.458268 
L 127.319734 98.791296 
L 128.210603 98.864662 
L 129.101474 98.190347 
L 129.992342 98.811654 
L 131.774065 98.762487 
L 132.664946 98.846416 
L 133.55582 98.779196 
L 134.446686 98.560058 
L 136.228424 98.565436 
L 137.119294 98.764024 
L 138.010159 98.812806 
L 139.791912 98.585218 
L 140.68277 98.748659 
L 173.644977 98.609993 
L 181.959197 98.754037 
L 182.553652 98.882715 
L 184.335387 98.696611 
L 185.226256 98.793024 
L 187.898864 98.69181 
L 189.680603 98.857172 
L 190.571474 98.856595 
L 191.462343 98.716201 
L 193.244077 98.762295 
L 194.134949 98.658776 
L 195.025817 98.723692 
L 195.916688 98.505898 
L 196.807557 98.887517 
L 198.589295 98.784766 
L 200.371032 98.927273 
L 202.152766 98.692578 
L 203.043636 98.766328 
L 203.043636 98.766328 
" clip-path="url(#p27f56e41b5)" style="fill: none; stroke: #ff6b6b; stroke-width: 1.2; stroke-linecap: square"/>
   </g>
   <g id="patch_3">
    <path d="M 35.96 103.4 
L 35.96 5 
" style="fill: none; stroke: var(--fg-color); stroke-width: 0.8; stroke-linejoin: miter; stroke-linecap: square"/>
   </g>
   <g id="patch_4">
    <path d="M 35.96 103.4 
L 211 103.4 
" style="fill: none; stroke: var(--fg-color); stroke-width: 0.8; stroke-linejoin: miter; stroke-linecap: square"/>
   </g>
  </g>
 </g>
 <defs>
  <clipPath id="p27f56e41b5">
   <rect x="35.96" y="5" width="175.04" height="98.4"/>
  </clipPath>
 </defs>
</svg>
