<?xml version="1.0" encoding="utf-8" standalone="no"?>
<!DOCTYPE svg PUBLIC "-//W3C//DTD SVG 1.1//EN"
  "http://www.w3.org/Graphics/SVG/1.1/DTD/svg11.dtd">
<svg xmlns:xlink="http://www.w3.org/1999/xlink" width="216pt" height="122.4pt" viewBox="0 0 216 122.4" xmlns="http://www.w3.org/2000/svg" version="1.1">
  <style>
    :root {
      --fg-color: #212529;
      --grid-color: rgba(33, 37, 41, 0.1);
    }
    @media (prefers-color-scheme: dark) {
      :root {
        --fg-color: #dee2e6;
        --grid-color: rgba(248, 249, 250, 0.15);
      }
    }
  </style>

 <metadata>
  <rdf:RDF xmlns:dc="http://purl.org/dc/elements/1.1/" xmlns:cc="http://creativecommons.org/ns#" xmlns:rdf="http://www.w3.org/1999/02/22-rdf-syntax-ns#">
   <cc:Work>
    <dc:type rdf:resource="http://purl.org/dc/dcmitype/StillImage"/>
    <dc:date>2026-06-30T15:37:27.397127</dc:date>
    <dc:format>image/svg+xml</dc:format>
    <dc:creator>
     <cc:Agent>
      <dc:title>Matplotlib v3.11.0, https://matplotlib.org/</dc:title>
     </cc:Agent>
    </dc:creator>
   </cc:Work>
  </rdf:RDF>
 </metadata>
 <defs>
  <style type="text/css">*{stroke-linejoin: round; stroke-linecap: butt}</style>
 </defs>
 <g id="figure_1">
  <g id="patch_1">
   <path d="M 0 122.4 
L 216 122.4 
L 216 0 
L 0 0 
L 0 122.4 
z
" style="fill: none; opacity: 0"/>
  </g>
  <g id="axes_1">
   <g id="patch_2">
    <path d="M 31.64 103.4 
L 211 103.4 
L 211 6.298573 
L 31.64 6.298573 
L 31.64 103.4 
z
" style="fill: none; opacity: 0"/>
   </g>
   <g id="matplotlib.axis_1">
    <g id="xtick_1">
     <g id="line2d_1">
      <path d="M 66.298815 103.4 
L 66.298815 6.298573 
" clip-path="url(#p16319b516b)" style="fill: none; stroke-dasharray: 2.96,1.28; stroke-dashoffset: 0; stroke: var(--grid-color); stroke-width: 0.8"/>
     </g>
     <g id="line2d_2">
      <defs>
       <path id="m10a23ac169" d="M 0 0 
L 0 3.5 
" style="stroke: var(--fg-color); stroke-width: 0.8"/>
      </defs>
      <g>
       <use xlink:href="#m10a23ac169" x="66.298815" y="103.4" style="fill: var(--fg-color); stroke: var(--fg-color); stroke-width: 0.8"/>
      </g>
     </g>
     <g id="text_1">
      <text style="font-size: 7px; font-family: 'DejaVu Sans', 'Bitstream Vera Sans', 'Computer Modern Sans Serif', 'Lucida Grande', 'Verdana', 'Geneva', 'Lucid', 'Arial', 'Helvetica', 'Avant Garde', sans-serif; text-anchor: middle; fill: var(--fg-color)" x="66.298815" y="115.718359" transform="rotate(-0 66.298815 115.718359)">02/2026</text>
     </g>
    </g>
    <g id="xtick_2">
     <g id="line2d_3">
      <path d="M 120.157298 103.4 
L 120.157298 6.298573 
" clip-path="url(#p16319b516b)" style="fill: none; stroke-dasharray: 2.96,1.28; stroke-dashoffset: 0; stroke: var(--grid-color); stroke-width: 0.8"/>
     </g>
     <g id="line2d_4">
      <g>
       <use xlink:href="#m10a23ac169" x="120.157298" y="103.4" style="fill: var(--fg-color); stroke: var(--fg-color); stroke-width: 0.8"/>
      </g>
     </g>
     <g id="text_2">
      <text style="font-size: 7px; font-family: 'DejaVu Sans', 'Bitstream Vera Sans', 'Computer Modern Sans Serif', 'Lucida Grande', 'Verdana', 'Geneva', 'Lucid', 'Arial', 'Helvetica', 'Avant Garde', sans-serif; text-anchor: middle; fill: var(--fg-color)" x="120.157298" y="115.718359" transform="rotate(-0 120.157298 115.718359)">04/2026</text>
     </g>
    </g>
    <g id="xtick_3">
     <g id="line2d_5">
      <path d="M 175.841492 103.4 
L 175.841492 6.298573 
" clip-path="url(#p16319b516b)" style="fill: none; stroke-dasharray: 2.96,1.28; stroke-dashoffset: 0; stroke: var(--grid-color); stroke-width: 0.8"/>
     </g>
     <g id="line2d_6">
      <g>
       <use xlink:href="#m10a23ac169" x="175.841492" y="103.4" style="fill: var(--fg-color); stroke: var(--fg-color); stroke-width: 0.8"/>
      </g>
     </g>
     <g id="text_3">
      <text style="font-size: 7px; font-family: 'DejaVu Sans', 'Bitstream Vera Sans', 'Computer Modern Sans Serif', 'Lucida Grande', 'Verdana', 'Geneva', 'Lucid', 'Arial', 'Helvetica', 'Avant Garde', sans-serif; text-anchor: middle; fill: var(--fg-color)" x="175.841492" y="115.718359" transform="rotate(-0 175.841492 115.718359)">06/2026</text>
     </g>
    </g>
   </g>
   <g id="matplotlib.axis_2">
    <g id="ytick_1">
     <g id="line2d_7">
      <path d="M 31.64 100.588621 
L 211 100.588621 
" clip-path="url(#p16319b516b)" style="fill: none; stroke-dasharray: 2.96,1.28; stroke-dashoffset: 0; stroke: var(--grid-color); stroke-width: 0.8"/>
     </g>
     <g id="line2d_8">
      <defs>
       <path id="m3145bea733" d="M 0 0 
L -3.5 0 
" style="stroke: var(--fg-color); stroke-width: 0.8"/>
      </defs>
      <g>
       <use xlink:href="#m3145bea733" x="31.64" y="100.588621" style="fill: var(--fg-color); stroke: var(--fg-color); stroke-width: 0.8"/>
      </g>
     </g>
     <g id="text_4">
      <text style="font-size: 7px; font-family: 'DejaVu Sans', 'Bitstream Vera Sans', 'Computer Modern Sans Serif', 'Lucida Grande', 'Verdana', 'Geneva', 'Lucid', 'Arial', 'Helvetica', 'Avant Garde', sans-serif; text-anchor: end; fill: var(--fg-color)" x="24.64" y="103.247801" transform="rotate(-0 24.64 103.247801)">0</text>
     </g>
    </g>
    <g id="ytick_2">
     <g id="line2d_9">
      <path d="M 31.64 77.366559 
L 211 77.366559 
" clip-path="url(#p16319b516b)" style="fill: none; stroke-dasharray: 2.96,1.28; stroke-dashoffset: 0; stroke: var(--grid-color); stroke-width: 0.8"/>
     </g>
     <g id="line2d_10">
      <g>
       <use xlink:href="#m3145bea733" x="31.64" y="77.366559" style="fill: var(--fg-color); stroke: var(--fg-color); stroke-width: 0.8"/>
      </g>
     </g>
     <g id="text_5">
      <text style="font-size: 7px; font-family: 'DejaVu Sans', 'Bitstream Vera Sans', 'Computer Modern Sans Serif', 'Lucida Grande', 'Verdana', 'Geneva', 'Lucid', 'Arial', 'Helvetica', 'Avant Garde', sans-serif; text-anchor: end; fill: var(--fg-color)" x="24.64" y="80.025739" transform="rotate(-0 24.64 80.025739)">20</text>
     </g>
    </g>
    <g id="ytick_3">
     <g id="line2d_11">
      <path d="M 31.64 54.144497 
L 211 54.144497 
" clip-path="url(#p16319b516b)" style="fill: none; stroke-dasharray: 2.96,1.28; stroke-dashoffset: 0; stroke: var(--grid-color); stroke-width: 0.8"/>
     </g>
     <g id="line2d_12">
      <g>
       <use xlink:href="#m3145bea733" x="31.64" y="54.144497" style="fill: var(--fg-color); stroke: var(--fg-color); stroke-width: 0.8"/>
      </g>
     </g>
     <g id="text_6">
      <text style="font-size: 7px; font-family: 'DejaVu Sans', 'Bitstream Vera Sans', 'Computer Modern Sans Serif', 'Lucida Grande', 'Verdana', 'Geneva', 'Lucid', 'Arial', 'Helvetica', 'Avant Garde', sans-serif; text-anchor: end; fill: var(--fg-color)" x="24.64" y="56.803677" transform="rotate(-0 24.64 56.803677)">40</text>
     </g>
    </g>
    <g id="ytick_4">
     <g id="line2d_13">
      <path d="M 31.64 30.922435 
L 211 30.922435 
" clip-path="url(#p16319b516b)" style="fill: none; stroke-dasharray: 2.96,1.28; stroke-dashoffset: 0; stroke: var(--grid-color); stroke-width: 0.8"/>
     </g>
     <g id="line2d_14">
      <g>
       <use xlink:href="#m3145bea733" x="31.64" y="30.922435" style="fill: var(--fg-color); stroke: var(--fg-color); stroke-width: 0.8"/>
      </g>
     </g>
     <g id="text_7">
      <text style="font-size: 7px; font-family: 'DejaVu Sans', 'Bitstream Vera Sans', 'Computer Modern Sans Serif', 'Lucida Grande', 'Verdana', 'Geneva', 'Lucid', 'Arial', 'Helvetica', 'Avant Garde', sans-serif; text-anchor: end; fill: var(--fg-color)" x="24.64" y="33.581615" transform="rotate(-0 24.64 33.581615)">60</text>
     </g>
    </g>
    <g id="ytick_5">
     <g id="line2d_15">
      <path d="M 31.64 7.700373 
L 211 7.700373 
" clip-path="url(#p16319b516b)" style="fill: none; stroke-dasharray: 2.96,1.28; stroke-dashoffset: 0; stroke: var(--grid-color); stroke-width: 0.8"/>
     </g>
     <g id="line2d_16">
      <g>
       <use xlink:href="#m3145bea733" x="31.64" y="7.700373" style="fill: var(--fg-color); stroke: var(--fg-color); stroke-width: 0.8"/>
      </g>
     </g>
     <g id="text_8">
      <text style="font-size: 7px; font-family: 'DejaVu Sans', 'Bitstream Vera Sans', 'Computer Modern Sans Serif', 'Lucida Grande', 'Verdana', 'Geneva', 'Lucid', 'Arial', 'Helvetica', 'Avant Garde', sans-serif; text-anchor: end; fill: var(--fg-color)" x="24.64" y="10.359553" transform="rotate(-0 24.64 10.359553)">80</text>
     </g>
    </g>
    <g id="text_9">
     <text style="font-size: 7px; font-family: 'DejaVu Sans', 'Bitstream Vera Sans', 'Computer Modern Sans Serif', 'Lucida Grande', 'Verdana', 'Geneva', 'Lucid', 'Arial', 'Helvetica', 'Avant Garde', sans-serif; text-anchor: middle; fill: var(--fg-color)" x="10.050859" y="54.849287" transform="rotate(-90 10.050859 54.849287)">ms</text>
    </g>
   </g>
   <g id="line2d_17">
    <path d="M 39.792727 28.181071 
L 40.358622 31.519242 
L 41.271481 29.957558 
L 42.184338 26.931724 
L 43.097199 24.44348 
L 44.010052 31.999939 
L 44.922906 27.794423 
L 45.835753 30.244351 
L 46.748617 31.768879 
L 47.661476 27.105889 
L 48.574332 27.552914 
L 49.487188 33.565106 
L 50.40004 28.469024 
L 51.312897 32.301826 
L 52.225755 30.752914 
L 53.138604 31.908212 
L 54.051463 32.227515 
L 54.964319 31.03274 
L 55.877175 28.866121 
L 56.79003 30.336078 
L 57.702885 34.197907 
L 58.615744 24.110243 
L 59.528593 33.24348 
L 61.35431 27.940722 
L 63.180022 30.729692 
L 64.092874 38.383684 
L 65.005713 31.140722 
L 65.918587 32.680345 
L 66.831438 28.704728 
L 67.7443 26.274539 
L 68.657153 28.234481 
L 69.57001 38.666993 
L 70.482861 34.857413 
L 71.395726 33.323596 
L 72.308567 33.925048 
L 73.221429 35.615614 
L 74.134286 35.981361 
L 75.047144 27.355526 
L 75.959984 32.416775 
L 76.872853 28.947399 
L 77.785693 32.588618 
L 78.698564 30.752914 
L 79.61142 35.688763 
L 80.524278 27.278894 
L 81.43713 36.184554 
L 82.349993 18.488182 
L 91.665728 18.671636 
L 92.391681 19.687601 
L 93.304554 19.884989 
L 94.217409 18.430127 
L 95.130269 22.52766 
L 96.043122 20.720983 
L 96.955975 23.440287 
L 97.868829 24.662928 
L 98.781684 20.678022 
L 99.694538 19.502986 
L 100.607396 19.789779 
L 101.520248 21.824031 
L 102.433106 15.857122 
L 104.258819 27.650447 
L 105.171671 19.000228 
L 106.084531 20.776716 
L 106.997383 18.647253 
L 107.910242 22.552043 
L 108.823098 17.22258 
L 109.735951 19.887311 
L 110.648812 21.778748 
L 111.561659 20.052188 
L 112.474515 21.112275 
L 113.387379 18.208356 
L 114.300233 23.685279 
L 115.213089 17.190069 
L 116.125938 17.109953 
L 117.038797 19.699212 
L 117.951653 24.199648 
L 118.864507 23.908211 
L 119.777364 24.88586 
L 123.428785 19.348559 
L 124.341647 24.648995 
L 125.254499 20.156687 
L 126.167355 22.911985 
L 127.080212 21.925047 
L 127.993067 18.617064 
L 128.905926 17.047253 
L 129.818763 20.467863 
L 130.731631 18.411549 
L 131.644492 17.61271 
L 133.470203 22.484699 
L 134.383056 21.568588 
L 135.295912 10.712274 
L 136.208765 19.483247 
L 137.121624 19.887311 
L 138.034491 14.511404 
L 138.947335 17.243479 
L 139.860192 18.006324 
L 140.773046 17.094858 
L 141.685902 18.483538 
L 142.598758 22.093407 
L 143.511612 19.535497 
L 144.42447 18.00168 
L 145.337321 18.334916 
L 172.723053 18.334916 
L 181.242468 19.901244 
L 181.851594 22.343044 
L 182.764449 16.873088 
L 183.677303 17.777587 
L 184.590158 13.678893 
L 185.503019 17.723015 
L 186.415872 18.30705 
L 187.328726 20.467863 
L 188.24158 20.124176 
L 189.154439 20.419096 
L 190.067296 19.715468 
L 190.980152 15.657413 
L 191.893011 17.553494 
L 192.80586 18.91779 
L 193.718718 15.58078 
L 194.631573 21.81242 
L 195.544431 18.985134 
L 196.457286 19.637674 
L 197.370142 24.995004 
L 198.282997 21.364234 
L 199.195852 18.481215 
L 200.108708 24.256542 
L 201.021561 20.049866 
L 201.934415 20.579329 
L 202.847273 17.896019 
L 202.847273 17.896019 
" clip-path="url(#p16319b516b)" style="fill: none; stroke: #339af0; stroke-width: 1.2; stroke-linecap: square"/>
   </g>
   <g id="line2d_18">
    <path d="M 39.792727 98.673962 
L 42.184338 98.801683 
L 43.097199 98.585718 
L 44.010052 98.727373 
L 45.835753 98.67164 
L 46.748617 98.764528 
L 47.661476 98.254804 
L 49.487188 98.742467 
L 52.225755 98.749434 
L 54.964319 98.720406 
L 55.877175 98.673962 
L 56.79003 98.281509 
L 57.702885 98.781945 
L 58.615744 98.563657 
L 59.528593 98.774978 
L 60.441447 98.637968 
L 63.180022 98.658868 
L 64.092874 98.894572 
L 65.005713 98.673962 
L 66.831438 98.709956 
L 67.7443 97.278316 
L 68.657153 98.639129 
L 70.482861 98.823744 
L 72.308567 98.792395 
L 73.221429 97.806618 
L 74.134286 98.78775 
L 75.047144 98.269898 
L 75.959984 98.664673 
L 79.61142 98.743628 
L 80.524278 98.563657 
L 81.43713 98.894572 
L 82.349993 98.600813 
L 91.665728 97.843773 
L 92.391681 98.986299 
L 93.304554 98.778461 
L 96.955975 98.921277 
L 98.781684 98.795878 
L 99.694538 98.226937 
L 100.607396 98.733178 
L 103.345963 98.844644 
L 104.258819 98.980493 
L 105.171671 98.862061 
L 106.084531 98.607779 
L 106.997383 98.781945 
L 107.910242 97.543048 
L 108.823098 98.691379 
L 110.648812 98.937532 
L 111.561659 98.715762 
L 112.474515 98.785428 
L 113.387379 98.689056 
L 114.300233 98.856255 
L 117.038797 98.404586 
L 117.951653 98.793556 
L 118.864507 98.691379 
L 119.777364 98.827228 
L 124.341647 98.664673 
L 125.254499 98.795878 
L 127.080212 98.599651 
L 127.993067 98.67164 
L 128.905926 98.526502 
L 129.818763 98.878316 
L 132.557344 98.644934 
L 133.470203 98.736662 
L 134.383056 98.709956 
L 135.295912 98.390653 
L 136.208765 98.699506 
L 137.121624 98.749434 
L 138.034491 97.61968 
L 138.947335 98.762206 
L 139.860192 98.684412 
L 140.773046 97.295733 
L 141.685902 98.658868 
L 142.598758 98.826067 
L 143.511612 98.596168 
L 145.337321 98.738984 
L 181.242468 98.74595 
L 181.851594 98.627518 
L 183.677303 98.582235 
L 184.590158 98.219971 
L 185.503019 98.568302 
L 186.415872 98.74595 
L 187.328726 98.490508 
L 188.24158 98.676284 
L 192.80586 98.747112 
L 193.718718 98.33492 
L 194.631573 98.164238 
L 195.544431 98.734339 
L 196.457286 98.687895 
L 197.370142 98.785428 
L 198.282997 98.70299 
L 199.195852 98.333759 
L 200.108708 98.830711 
L 202.847273 98.663512 
L 202.847273 98.663512 
" clip-path="url(#p16319b516b)" style="fill: none; stroke: #ff6b6b; stroke-width: 1.2; stroke-linecap: square"/>
   </g>
   <g id="patch_3">
    <path d="M 31.64 103.4 
L 31.64 6.298573 
" style="fill: none; stroke: var(--fg-color); stroke-width: 0.8; stroke-linejoin: miter; stroke-linecap: square"/>
   </g>
   <g id="patch_4">
    <path d="M 31.64 103.4 
L 211 103.4 
" style="fill: none; stroke: var(--fg-color); stroke-width: 0.8; stroke-linejoin: miter; stroke-linecap: square"/>
   </g>
  </g>
 </g>
 <defs>
  <clipPath id="p16319b516b">
   <rect x="31.64" y="6.298573" width="179.36" height="97.101427"/>
  </clipPath>
 </defs>
</svg>
