<?xml version="1.0" encoding="utf-8" standalone="no"?>
<!DOCTYPE svg PUBLIC "-//W3C//DTD SVG 1.1//EN"
  "http://www.w3.org/Graphics/SVG/1.1/DTD/svg11.dtd">
<svg xmlns:xlink="http://www.w3.org/1999/xlink" width="216pt" height="122.4pt" viewBox="0 0 216 122.4" xmlns="http://www.w3.org/2000/svg" version="1.1">
  <style>
    :root {
      --fg-color: #212529;
      --grid-color: rgba(33, 37, 41, 0.1);
    }
    @media (prefers-color-scheme: dark) {
      :root {
        --fg-color: #dee2e6;
        --grid-color: rgba(248, 249, 250, 0.15);
      }
    }
  </style>

 <metadata>
  <rdf:RDF xmlns:dc="http://purl.org/dc/elements/1.1/" xmlns:cc="http://creativecommons.org/ns#" xmlns:rdf="http://www.w3.org/1999/02/22-rdf-syntax-ns#">
   <cc:Work>
    <dc:type rdf:resource="http://purl.org/dc/dcmitype/StillImage"/>
    <dc:date>2026-06-30T04:48:14.511242</dc:date>
    <dc:format>image/svg+xml</dc:format>
    <dc:creator>
     <cc:Agent>
      <dc:title>Matplotlib v3.11.0, https://matplotlib.org/</dc:title>
     </cc:Agent>
    </dc:creator>
   </cc:Work>
  </rdf:RDF>
 </metadata>
 <defs>
  <style type="text/css">*{stroke-linejoin: round; stroke-linecap: butt}</style>
 </defs>
 <g id="figure_1">
  <g id="patch_1">
   <path d="M 0 122.4 
L 216 122.4 
L 216 0 
L 0 0 
L 0 122.4 
z
" style="fill: none; opacity: 0"/>
  </g>
  <g id="axes_1">
   <g id="patch_2">
    <path d="M 35.96 103.4 
L 211 103.4 
L 211 5 
L 35.96 5 
L 35.96 103.4 
z
" style="fill: none; opacity: 0"/>
   </g>
   <g id="matplotlib.axis_1">
    <g id="xtick_1">
     <g id="line2d_1">
      <path d="M 70.996911 103.4 
L 70.996911 5 
" clip-path="url(#p11e480d499)" style="fill: none; stroke-dasharray: 2.96,1.28; stroke-dashoffset: 0; stroke: var(--grid-color); stroke-width: 0.8"/>
     </g>
     <g id="line2d_2">
      <defs>
       <path id="mef7ff5ced5" d="M 0 0 
L 0 3.5 
" style="stroke: var(--fg-color); stroke-width: 0.8"/>
      </defs>
      <g>
       <use xlink:href="#mef7ff5ced5" x="70.996911" y="103.4" style="fill: var(--fg-color); stroke: var(--fg-color); stroke-width: 0.8"/>
      </g>
     </g>
     <g id="text_1">
      <text style="font-size: 7px; font-family: 'DejaVu Sans', 'Bitstream Vera Sans', 'Computer Modern Sans Serif', 'Lucida Grande', 'Verdana', 'Geneva', 'Lucid', 'Arial', 'Helvetica', 'Avant Garde', sans-serif; text-anchor: middle; fill: var(--fg-color)" x="70.996911" y="115.718359" transform="rotate(-0 70.996911 115.718359)">02/2026</text>
     </g>
    </g>
    <g id="xtick_2">
     <g id="line2d_3">
      <path d="M 126.022656 103.4 
L 126.022656 5 
" clip-path="url(#p11e480d499)" style="fill: none; stroke-dasharray: 2.96,1.28; stroke-dashoffset: 0; stroke: var(--grid-color); stroke-width: 0.8"/>
     </g>
     <g id="line2d_4">
      <g>
       <use xlink:href="#mef7ff5ced5" x="126.022656" y="103.4" style="fill: var(--fg-color); stroke: var(--fg-color); stroke-width: 0.8"/>
      </g>
     </g>
     <g id="text_2">
      <text style="font-size: 7px; font-family: 'DejaVu Sans', 'Bitstream Vera Sans', 'Computer Modern Sans Serif', 'Lucida Grande', 'Verdana', 'Geneva', 'Lucid', 'Arial', 'Helvetica', 'Avant Garde', sans-serif; text-anchor: middle; fill: var(--fg-color)" x="126.022656" y="115.718359" transform="rotate(-0 126.022656 115.718359)">04/2026</text>
     </g>
    </g>
    <g id="xtick_3">
     <g id="line2d_5">
      <path d="M 182.913681 103.4 
L 182.913681 5 
" clip-path="url(#p11e480d499)" style="fill: none; stroke-dasharray: 2.96,1.28; stroke-dashoffset: 0; stroke: var(--grid-color); stroke-width: 0.8"/>
     </g>
     <g id="line2d_6">
      <g>
       <use xlink:href="#mef7ff5ced5" x="182.913681" y="103.4" style="fill: var(--fg-color); stroke: var(--fg-color); stroke-width: 0.8"/>
      </g>
     </g>
     <g id="text_3">
      <text style="font-size: 7px; font-family: 'DejaVu Sans', 'Bitstream Vera Sans', 'Computer Modern Sans Serif', 'Lucida Grande', 'Verdana', 'Geneva', 'Lucid', 'Arial', 'Helvetica', 'Avant Garde', sans-serif; text-anchor: middle; fill: var(--fg-color)" x="182.913681" y="115.718359" transform="rotate(-0 182.913681 115.718359)">06/2026</text>
     </g>
    </g>
   </g>
   <g id="matplotlib.axis_2">
    <g id="ytick_1">
     <g id="line2d_7">
      <path d="M 35.96 99.873252 
L 211 99.873252 
" clip-path="url(#p11e480d499)" style="fill: none; stroke-dasharray: 2.96,1.28; stroke-dashoffset: 0; stroke: var(--grid-color); stroke-width: 0.8"/>
     </g>
     <g id="line2d_8">
      <defs>
       <path id="ma71ee1de2d" d="M 0 0 
L -3.5 0 
" style="stroke: var(--fg-color); stroke-width: 0.8"/>
      </defs>
      <g>
       <use xlink:href="#ma71ee1de2d" x="35.96" y="99.873252" style="fill: var(--fg-color); stroke: var(--fg-color); stroke-width: 0.8"/>
      </g>
     </g>
     <g id="text_4">
      <text style="font-size: 7px; font-family: 'DejaVu Sans', 'Bitstream Vera Sans', 'Computer Modern Sans Serif', 'Lucida Grande', 'Verdana', 'Geneva', 'Lucid', 'Arial', 'Helvetica', 'Avant Garde', sans-serif; text-anchor: end; fill: var(--fg-color)" x="28.96" y="102.532431" transform="rotate(-0 28.96 102.532431)">0</text>
     </g>
    </g>
    <g id="ytick_2">
     <g id="line2d_9">
      <path d="M 35.96 83.563269 
L 211 83.563269 
" clip-path="url(#p11e480d499)" style="fill: none; stroke-dasharray: 2.96,1.28; stroke-dashoffset: 0; stroke: var(--grid-color); stroke-width: 0.8"/>
     </g>
     <g id="line2d_10">
      <g>
       <use xlink:href="#ma71ee1de2d" x="35.96" y="83.563269" style="fill: var(--fg-color); stroke: var(--fg-color); stroke-width: 0.8"/>
      </g>
     </g>
     <g id="text_5">
      <text style="font-size: 7px; font-family: 'DejaVu Sans', 'Bitstream Vera Sans', 'Computer Modern Sans Serif', 'Lucida Grande', 'Verdana', 'Geneva', 'Lucid', 'Arial', 'Helvetica', 'Avant Garde', sans-serif; text-anchor: end; fill: var(--fg-color)" x="28.96" y="86.222449" transform="rotate(-0 28.96 86.222449)">20</text>
     </g>
    </g>
    <g id="ytick_3">
     <g id="line2d_11">
      <path d="M 35.96 67.253287 
L 211 67.253287 
" clip-path="url(#p11e480d499)" style="fill: none; stroke-dasharray: 2.96,1.28; stroke-dashoffset: 0; stroke: var(--grid-color); stroke-width: 0.8"/>
     </g>
     <g id="line2d_12">
      <g>
       <use xlink:href="#ma71ee1de2d" x="35.96" y="67.253287" style="fill: var(--fg-color); stroke: var(--fg-color); stroke-width: 0.8"/>
      </g>
     </g>
     <g id="text_6">
      <text style="font-size: 7px; font-family: 'DejaVu Sans', 'Bitstream Vera Sans', 'Computer Modern Sans Serif', 'Lucida Grande', 'Verdana', 'Geneva', 'Lucid', 'Arial', 'Helvetica', 'Avant Garde', sans-serif; text-anchor: end; fill: var(--fg-color)" x="28.96" y="69.912466" transform="rotate(-0 28.96 69.912466)">40</text>
     </g>
    </g>
    <g id="ytick_4">
     <g id="line2d_13">
      <path d="M 35.96 50.943304 
L 211 50.943304 
" clip-path="url(#p11e480d499)" style="fill: none; stroke-dasharray: 2.96,1.28; stroke-dashoffset: 0; stroke: var(--grid-color); stroke-width: 0.8"/>
     </g>
     <g id="line2d_14">
      <g>
       <use xlink:href="#ma71ee1de2d" x="35.96" y="50.943304" style="fill: var(--fg-color); stroke: var(--fg-color); stroke-width: 0.8"/>
      </g>
     </g>
     <g id="text_7">
      <text style="font-size: 7px; font-family: 'DejaVu Sans', 'Bitstream Vera Sans', 'Computer Modern Sans Serif', 'Lucida Grande', 'Verdana', 'Geneva', 'Lucid', 'Arial', 'Helvetica', 'Avant Garde', sans-serif; text-anchor: end; fill: var(--fg-color)" x="28.96" y="53.602484" transform="rotate(-0 28.96 53.602484)">60</text>
     </g>
    </g>
    <g id="ytick_5">
     <g id="line2d_15">
      <path d="M 35.96 34.633322 
L 211 34.633322 
" clip-path="url(#p11e480d499)" style="fill: none; stroke-dasharray: 2.96,1.28; stroke-dashoffset: 0; stroke: var(--grid-color); stroke-width: 0.8"/>
     </g>
     <g id="line2d_16">
      <g>
       <use xlink:href="#ma71ee1de2d" x="35.96" y="34.633322" style="fill: var(--fg-color); stroke: var(--fg-color); stroke-width: 0.8"/>
      </g>
     </g>
     <g id="text_8">
      <text style="font-size: 7px; font-family: 'DejaVu Sans', 'Bitstream Vera Sans', 'Computer Modern Sans Serif', 'Lucida Grande', 'Verdana', 'Geneva', 'Lucid', 'Arial', 'Helvetica', 'Avant Garde', sans-serif; text-anchor: end; fill: var(--fg-color)" x="28.96" y="37.292501" transform="rotate(-0 28.96 37.292501)">80</text>
     </g>
    </g>
    <g id="ytick_6">
     <g id="line2d_17">
      <path d="M 35.96 18.323339 
L 211 18.323339 
" clip-path="url(#p11e480d499)" style="fill: none; stroke-dasharray: 2.96,1.28; stroke-dashoffset: 0; stroke: var(--grid-color); stroke-width: 0.8"/>
     </g>
     <g id="line2d_18">
      <g>
       <use xlink:href="#ma71ee1de2d" x="35.96" y="18.323339" style="fill: var(--fg-color); stroke: var(--fg-color); stroke-width: 0.8"/>
      </g>
     </g>
     <g id="text_9">
      <text style="font-size: 7px; font-family: 'DejaVu Sans', 'Bitstream Vera Sans', 'Computer Modern Sans Serif', 'Lucida Grande', 'Verdana', 'Geneva', 'Lucid', 'Arial', 'Helvetica', 'Avant Garde', sans-serif; text-anchor: end; fill: var(--fg-color)" x="28.96" y="20.982519" transform="rotate(-0 28.96 20.982519)">100</text>
     </g>
    </g>
    <g id="text_10">
     <text style="font-size: 7px; font-family: 'DejaVu Sans', 'Bitstream Vera Sans', 'Computer Modern Sans Serif', 'Lucida Grande', 'Verdana', 'Geneva', 'Lucid', 'Arial', 'Helvetica', 'Avant Garde', sans-serif; text-anchor: middle; fill: var(--fg-color)" x="9.917109" y="54.2" transform="rotate(-90 9.917109 54.2)">ms</text>
    </g>
   </g>
   <g id="line2d_19">
    <path d="M 43.916364 56.624887 
L 44.494523 60.079341 
L 45.427166 62.74113 
L 46.359808 60.31502 
L 47.292453 41.951611 
L 48.22509 65.759292 
L 49.157727 57.534984 
L 50.090359 54.979209 
L 51.023007 57.113371 
L 51.95565 56.979629 
L 52.88829 62.149893 
L 53.82093 54.570644 
L 54.753566 60.718692 
L 55.686208 57.302566 
L 56.618849 55.473402 
L 57.551483 57.405319 
L 58.484126 63.013507 
L 59.416765 56.262805 
L 60.349406 53.796736 
L 61.282045 52.001822 
L 62.214684 55.342922 
L 63.147327 55.148018 
L 64.07996 61.091375 
L 65.012598 58.189829 
L 65.945245 53.062786 
L 66.877884 59.247532 
L 67.810526 57.13702 
L 68.743162 60.538467 
L 69.675784 51.091725 
L 70.608443 50.248499 
L 71.541078 61.589645 
L 72.473724 51.649526 
L 73.406361 50.545341 
L 74.339003 61.450195 
L 75.271637 57.522751 
L 76.204286 59.88933 
L 77.136912 61.144383 
L 78.069558 41.374238 
L 79.002199 53.499894 
L 79.934841 56.781462 
L 80.867465 57.058732 
L 81.800118 59.304617 
L 82.732742 53.855452 
L 83.665398 56.874429 
L 84.598038 55.80531 
L 85.53068 57.440386 
L 86.463316 60.010024 
L 87.395962 53.083174 
L 96.913595 57.561895 
L 97.655282 54.135983 
L 98.587939 58.053641 
L 99.520578 60.735002 
L 100.453222 55.910509 
L 101.385859 52.915181 
L 102.318497 50.093554 
L 103.251135 52.964111 
L 104.183773 53.859529 
L 105.116412 47.046034 
L 106.049054 50.376532 
L 106.981691 42.957121 
L 107.914333 51.80284 
L 108.846974 39.607866 
L 109.779613 54.58043 
L 110.71225 52.425066 
L 111.644893 49.430553 
L 112.57753 52.658299 
L 113.510173 38.289204 
L 114.442814 55.611221 
L 115.37545 48.005061 
L 116.308095 51.700087 
L 117.240726 57.707869 
L 118.173367 51.632401 
L 119.106014 46.472738 
L 120.038653 59.161089 
L 120.971293 47.819943 
L 121.903926 56.621625 
L 122.836569 33.362774 
L 123.769209 55.851793 
L 124.701847 52.263597 
L 125.634489 53.413451 
L 129.365046 58.129483 
L 130.297692 52.403863 
L 131.230328 52.933938 
L 132.162968 54.586139 
L 133.095609 43.374657 
L 134.028248 9.472727 
L 134.960891 49.482745 
L 135.893512 50.999574 
L 136.826165 51.992852 
L 137.75881 45.862745 
L 138.691446 44.690872 
L 139.624089 47.090071 
L 140.556726 52.919259 
L 141.489366 47.276005 
L 142.422003 52.011608 
L 143.354646 48.661538 
L 144.287298 52.96982 
L 145.219926 53.555348 
L 146.152567 54.87401 
L 147.085204 37.621311 
L 148.017844 50.121281 
L 148.950485 54.520083 
L 149.883123 48.027895 
L 150.815765 47.532887 
L 151.7484 54.740268 
L 179.727656 54.740268 
L 188.43171 15.022199 
L 189.054038 56.351694 
L 189.986678 41.658847 
L 190.919315 41.467204 
L 191.851955 54.978394 
L 192.7846 53.136181 
L 193.717237 43.682916 
L 194.649875 56.820606 
L 195.582513 56.408779 
L 196.515156 44.374459 
L 197.447798 23.522146 
L 198.380437 54.586139 
L 199.313081 28.821259 
L 200.245713 52.634649 
L 201.178356 54.006319 
L 202.110995 47.663367 
L 203.043636 51.854217 
" clip-path="url(#p11e480d499)" style="fill: none; stroke: #339af0; stroke-width: 1.2; stroke-linecap: square"/>
   </g>
   <g id="line2d_20">
    <path d="M 43.916364 98.645926 
L 44.494523 98.439604 
L 45.427166 98.795977 
L 46.359808 98.794346 
L 47.292453 97.930733 
L 48.22509 98.888129 
L 49.157727 98.72666 
L 50.090359 98.797608 
L 51.023007 98.812287 
L 51.95565 98.531756 
L 52.88829 98.802501 
L 53.82093 98.683438 
L 54.753566 98.821258 
L 55.686208 98.700564 
L 56.618849 98.769066 
L 57.551483 98.678545 
L 58.484126 98.771512 
L 59.416765 98.740523 
L 60.349406 98.729106 
L 61.282045 98.558667 
L 62.214684 98.760095 
L 63.147327 98.689962 
L 64.07996 98.705457 
L 65.012598 98.70301 
L 65.945245 98.706272 
L 66.877884 98.743785 
L 67.810526 98.804132 
L 68.743162 98.815549 
L 69.675784 98.720136 
L 70.608443 98.782929 
L 71.541078 98.787822 
L 72.473724 97.099739 
L 73.406361 96.942348 
L 74.339003 98.740523 
L 75.271637 98.76825 
L 76.204286 98.800055 
L 77.136912 98.779667 
L 78.069558 98.728291 
L 79.002199 98.804132 
L 79.934841 98.674468 
L 80.867465 98.704641 
L 81.800118 98.743785 
L 82.732742 98.619014 
L 83.665398 98.799239 
L 84.598038 98.720136 
L 85.53068 98.760095 
L 86.463316 98.778036 
L 87.395962 98.716874 
L 96.913595 98.790269 
L 97.655282 98.795977 
L 98.587939 98.876712 
L 99.520578 98.71932 
L 100.453222 98.773143 
L 101.385859 98.778036 
L 102.318497 98.892206 
L 103.251135 98.904439 
L 104.183773 98.900361 
L 105.116412 98.53828 
L 106.049054 98.776405 
L 106.981691 98.599442 
L 107.914333 98.647557 
L 108.846974 98.809841 
L 109.779613 98.831044 
L 110.71225 98.927273 
L 111.644893 98.786191 
L 112.57753 98.707903 
L 113.510173 96.319307 
L 114.442814 98.903623 
L 115.37545 98.685885 
L 116.308095 98.779667 
L 117.240726 98.658974 
L 118.173367 98.920749 
L 119.106014 98.314833 
L 120.038653 98.860402 
L 120.971293 98.745416 
L 121.903926 98.816365 
L 122.836569 98.81718 
L 123.769209 98.84083 
L 124.701847 98.779667 
L 125.634489 98.780483 
L 129.365046 98.769881 
L 130.297692 98.803317 
L 131.230328 98.744601 
L 132.162968 98.69404 
L 133.095609 98.711981 
L 134.028248 98.763357 
L 134.960891 98.762542 
L 135.893512 95.368435 
L 136.826165 98.762542 
L 137.75881 98.682623 
L 138.691446 98.66142 
L 139.624089 98.727475 
L 140.556726 98.723398 
L 141.489366 98.645926 
L 142.422003 98.716874 
L 143.354646 98.774774 
L 144.287298 98.650003 
L 145.219926 98.804132 
L 146.152567 98.40046 
L 147.085204 97.937257 
L 148.017844 98.722582 
L 148.950485 98.830228 
L 149.883123 98.709534 
L 150.815765 98.764173 
L 151.7484 98.823704 
L 179.727656 98.823704 
L 188.43171 98.782114 
L 189.054038 98.747047 
L 189.986678 98.404538 
L 190.919315 98.714427 
L 191.851955 98.685885 
L 192.7846 98.680992 
L 193.717237 98.488534 
L 194.649875 98.763357 
L 195.582513 98.758464 
L 196.515156 98.699748 
L 197.447798 98.620645 
L 198.380437 98.762542 
L 199.313081 98.725844 
L 200.245713 97.97477 
L 201.178356 98.773959 
L 202.110995 98.77559 
L 203.043636 98.813103 
" clip-path="url(#p11e480d499)" style="fill: none; stroke: #ff6b6b; stroke-width: 1.2; stroke-linecap: square"/>
   </g>
   <g id="patch_3">
    <path d="M 35.96 103.4 
L 35.96 5 
" style="fill: none; stroke: var(--fg-color); stroke-width: 0.8; stroke-linejoin: miter; stroke-linecap: square"/>
   </g>
   <g id="patch_4">
    <path d="M 35.96 103.4 
L 211 103.4 
" style="fill: none; stroke: var(--fg-color); stroke-width: 0.8; stroke-linejoin: miter; stroke-linecap: square"/>
   </g>
  </g>
 </g>
 <defs>
  <clipPath id="p11e480d499">
   <rect x="35.96" y="5" width="175.04" height="98.4"/>
  </clipPath>
 </defs>
</svg>
