<?xml version="1.0" encoding="utf-8" standalone="no"?>
<!DOCTYPE svg PUBLIC "-//W3C//DTD SVG 1.1//EN"
  "http://www.w3.org/Graphics/SVG/1.1/DTD/svg11.dtd">
<svg xmlns:xlink="http://www.w3.org/1999/xlink" width="216pt" height="122.4pt" viewBox="0 0 216 122.4" xmlns="http://www.w3.org/2000/svg" version="1.1">
  <style>
    :root {
      --fg-color: #212529;
      --grid-color: rgba(33, 37, 41, 0.1);
    }
    @media (prefers-color-scheme: dark) {
      :root {
        --fg-color: #dee2e6;
        --grid-color: rgba(248, 249, 250, 0.15);
      }
    }
  </style>

 <metadata>
  <rdf:RDF xmlns:dc="http://purl.org/dc/elements/1.1/" xmlns:cc="http://creativecommons.org/ns#" xmlns:rdf="http://www.w3.org/1999/02/22-rdf-syntax-ns#">
   <cc:Work>
    <dc:type rdf:resource="http://purl.org/dc/dcmitype/StillImage"/>
    <dc:date>2026-06-30T15:37:05.125143</dc:date>
    <dc:format>image/svg+xml</dc:format>
    <dc:creator>
     <cc:Agent>
      <dc:title>Matplotlib v3.11.0, https://matplotlib.org/</dc:title>
     </cc:Agent>
    </dc:creator>
   </cc:Work>
  </rdf:RDF>
 </metadata>
 <defs>
  <style type="text/css">*{stroke-linejoin: round; stroke-linecap: butt}</style>
 </defs>
 <g id="figure_1">
  <g id="patch_1">
   <path d="M 0 122.4 
L 216 122.4 
L 216 0 
L 0 0 
L 0 122.4 
z
" style="fill: none; opacity: 0"/>
  </g>
  <g id="axes_1">
   <g id="patch_2">
    <path d="M 31.64 103.4 
L 211 103.4 
L 211 5 
L 31.64 5 
L 31.64 103.4 
z
" style="fill: none; opacity: 0"/>
   </g>
   <g id="matplotlib.axis_1">
    <g id="xtick_1">
     <g id="line2d_1">
      <path d="M 66.298815 103.4 
L 66.298815 5 
" clip-path="url(#p8af246a7a0)" style="fill: none; stroke-dasharray: 2.96,1.28; stroke-dashoffset: 0; stroke: var(--grid-color); stroke-width: 0.8"/>
     </g>
     <g id="line2d_2">
      <defs>
       <path id="m3905aa2b97" d="M 0 0 
L 0 3.5 
" style="stroke: var(--fg-color); stroke-width: 0.8"/>
      </defs>
      <g>
       <use xlink:href="#m3905aa2b97" x="66.298815" y="103.4" style="fill: var(--fg-color); stroke: var(--fg-color); stroke-width: 0.8"/>
      </g>
     </g>
     <g id="text_1">
      <text style="font-size: 7px; font-family: 'DejaVu Sans', 'Bitstream Vera Sans', 'Computer Modern Sans Serif', 'Lucida Grande', 'Verdana', 'Geneva', 'Lucid', 'Arial', 'Helvetica', 'Avant Garde', sans-serif; text-anchor: middle; fill: var(--fg-color)" x="66.298815" y="115.718359" transform="rotate(-0 66.298815 115.718359)">02/2026</text>
     </g>
    </g>
    <g id="xtick_2">
     <g id="line2d_3">
      <path d="M 120.157298 103.4 
L 120.157298 5 
" clip-path="url(#p8af246a7a0)" style="fill: none; stroke-dasharray: 2.96,1.28; stroke-dashoffset: 0; stroke: var(--grid-color); stroke-width: 0.8"/>
     </g>
     <g id="line2d_4">
      <g>
       <use xlink:href="#m3905aa2b97" x="120.157298" y="103.4" style="fill: var(--fg-color); stroke: var(--fg-color); stroke-width: 0.8"/>
      </g>
     </g>
     <g id="text_2">
      <text style="font-size: 7px; font-family: 'DejaVu Sans', 'Bitstream Vera Sans', 'Computer Modern Sans Serif', 'Lucida Grande', 'Verdana', 'Geneva', 'Lucid', 'Arial', 'Helvetica', 'Avant Garde', sans-serif; text-anchor: middle; fill: var(--fg-color)" x="120.157298" y="115.718359" transform="rotate(-0 120.157298 115.718359)">04/2026</text>
     </g>
    </g>
    <g id="xtick_3">
     <g id="line2d_5">
      <path d="M 175.841492 103.4 
L 175.841492 5 
" clip-path="url(#p8af246a7a0)" style="fill: none; stroke-dasharray: 2.96,1.28; stroke-dashoffset: 0; stroke: var(--grid-color); stroke-width: 0.8"/>
     </g>
     <g id="line2d_6">
      <g>
       <use xlink:href="#m3905aa2b97" x="175.841492" y="103.4" style="fill: var(--fg-color); stroke: var(--fg-color); stroke-width: 0.8"/>
      </g>
     </g>
     <g id="text_3">
      <text style="font-size: 7px; font-family: 'DejaVu Sans', 'Bitstream Vera Sans', 'Computer Modern Sans Serif', 'Lucida Grande', 'Verdana', 'Geneva', 'Lucid', 'Arial', 'Helvetica', 'Avant Garde', sans-serif; text-anchor: middle; fill: var(--fg-color)" x="175.841492" y="115.718359" transform="rotate(-0 175.841492 115.718359)">06/2026</text>
     </g>
    </g>
   </g>
   <g id="matplotlib.axis_2">
    <g id="ytick_1">
     <g id="line2d_7">
      <path d="M 31.64 100.944841 
L 211 100.944841 
" clip-path="url(#p8af246a7a0)" style="fill: none; stroke-dasharray: 2.96,1.28; stroke-dashoffset: 0; stroke: var(--grid-color); stroke-width: 0.8"/>
     </g>
     <g id="line2d_8">
      <defs>
       <path id="mc9d3a7aa04" d="M 0 0 
L -3.5 0 
" style="stroke: var(--fg-color); stroke-width: 0.8"/>
      </defs>
      <g>
       <use xlink:href="#mc9d3a7aa04" x="31.64" y="100.944841" style="fill: var(--fg-color); stroke: var(--fg-color); stroke-width: 0.8"/>
      </g>
     </g>
     <g id="text_4">
      <text style="font-size: 7px; font-family: 'DejaVu Sans', 'Bitstream Vera Sans', 'Computer Modern Sans Serif', 'Lucida Grande', 'Verdana', 'Geneva', 'Lucid', 'Arial', 'Helvetica', 'Avant Garde', sans-serif; text-anchor: end; fill: var(--fg-color)" x="24.64" y="103.604021" transform="rotate(-0 24.64 103.604021)">0</text>
     </g>
    </g>
    <g id="ytick_2">
     <g id="line2d_9">
      <path d="M 31.64 73.899689 
L 211 73.899689 
" clip-path="url(#p8af246a7a0)" style="fill: none; stroke-dasharray: 2.96,1.28; stroke-dashoffset: 0; stroke: var(--grid-color); stroke-width: 0.8"/>
     </g>
     <g id="line2d_10">
      <g>
       <use xlink:href="#mc9d3a7aa04" x="31.64" y="73.899689" style="fill: var(--fg-color); stroke: var(--fg-color); stroke-width: 0.8"/>
      </g>
     </g>
     <g id="text_5">
      <text style="font-size: 7px; font-family: 'DejaVu Sans', 'Bitstream Vera Sans', 'Computer Modern Sans Serif', 'Lucida Grande', 'Verdana', 'Geneva', 'Lucid', 'Arial', 'Helvetica', 'Avant Garde', sans-serif; text-anchor: end; fill: var(--fg-color)" x="24.64" y="76.558869" transform="rotate(-0 24.64 76.558869)">20</text>
     </g>
    </g>
    <g id="ytick_3">
     <g id="line2d_11">
      <path d="M 31.64 46.854537 
L 211 46.854537 
" clip-path="url(#p8af246a7a0)" style="fill: none; stroke-dasharray: 2.96,1.28; stroke-dashoffset: 0; stroke: var(--grid-color); stroke-width: 0.8"/>
     </g>
     <g id="line2d_12">
      <g>
       <use xlink:href="#mc9d3a7aa04" x="31.64" y="46.854537" style="fill: var(--fg-color); stroke: var(--fg-color); stroke-width: 0.8"/>
      </g>
     </g>
     <g id="text_6">
      <text style="font-size: 7px; font-family: 'DejaVu Sans', 'Bitstream Vera Sans', 'Computer Modern Sans Serif', 'Lucida Grande', 'Verdana', 'Geneva', 'Lucid', 'Arial', 'Helvetica', 'Avant Garde', sans-serif; text-anchor: end; fill: var(--fg-color)" x="24.64" y="49.513716" transform="rotate(-0 24.64 49.513716)">40</text>
     </g>
    </g>
    <g id="ytick_4">
     <g id="line2d_13">
      <path d="M 31.64 19.809384 
L 211 19.809384 
" clip-path="url(#p8af246a7a0)" style="fill: none; stroke-dasharray: 2.96,1.28; stroke-dashoffset: 0; stroke: var(--grid-color); stroke-width: 0.8"/>
     </g>
     <g id="line2d_14">
      <g>
       <use xlink:href="#mc9d3a7aa04" x="31.64" y="19.809384" style="fill: var(--fg-color); stroke: var(--fg-color); stroke-width: 0.8"/>
      </g>
     </g>
     <g id="text_7">
      <text style="font-size: 7px; font-family: 'DejaVu Sans', 'Bitstream Vera Sans', 'Computer Modern Sans Serif', 'Lucida Grande', 'Verdana', 'Geneva', 'Lucid', 'Arial', 'Helvetica', 'Avant Garde', sans-serif; text-anchor: end; fill: var(--fg-color)" x="24.64" y="22.468564" transform="rotate(-0 24.64 22.468564)">60</text>
     </g>
    </g>
    <g id="text_8">
     <text style="font-size: 7px; font-family: 'DejaVu Sans', 'Bitstream Vera Sans', 'Computer Modern Sans Serif', 'Lucida Grande', 'Verdana', 'Geneva', 'Lucid', 'Arial', 'Helvetica', 'Avant Garde', sans-serif; text-anchor: middle; fill: var(--fg-color)" x="10.050859" y="54.2" transform="rotate(-90 10.050859 54.2)">ms</text>
    </g>
   </g>
   <g id="line2d_15">
    <path d="M 39.792727 27.499673 
L 40.358622 35.959397 
L 41.271481 44.150021 
L 42.184338 36.004022 
L 43.097199 35.203485 
L 44.010052 41.522585 
L 44.922906 27.626786 
L 45.835753 39.110157 
L 46.748617 47.477927 
L 47.661476 30.853272 
L 48.574332 42.699049 
L 49.487188 36.101384 
L 50.40004 35.686241 
L 51.312897 37.107464 
L 52.225755 38.03376 
L 53.138604 36.62606 
L 54.051463 43.482006 
L 54.964319 32.15144 
L 55.877175 35.987795 
L 56.79003 40.857274 
L 57.702885 42.650368 
L 58.615744 32.98443 
L 59.528593 41.895808 
L 60.441447 29.954021 
L 61.35431 33.86475 
L 62.267165 39.456335 
L 63.180022 28.037872 
L 64.092874 41.221031 
L 65.005713 29.008793 
L 65.918587 31.2292 
L 66.831438 37.409017 
L 67.7443 26.996634 
L 68.657153 27.9351 
L 69.57001 43.864695 
L 70.482861 38.973579 
L 71.395726 41.839013 
L 72.308567 37.732207 
L 73.221429 13.657965 
L 74.134286 36.004022 
L 75.047144 32.397551 
L 75.959984 32.231223 
L 76.872853 13.856746 
L 77.785693 36.57197 
L 78.698564 40.162214 
L 79.61142 37.910705 
L 80.524278 37.828217 
L 81.43713 42.278497 
L 82.349993 35.500982 
L 91.665728 36.273121 
L 92.391681 39.066885 
L 93.304554 39.766002 
L 94.217409 39.003329 
L 95.130269 31.210268 
L 96.043122 33.227837 
L 96.955975 37.756547 
L 97.868829 43.924194 
L 98.781684 42.565176 
L 99.694538 22.419242 
L 100.607396 34.616605 
L 101.520248 18.092017 
L 102.433106 20.355697 
L 103.345963 30.837045 
L 104.258819 39.479324 
L 105.171671 43.57396 
L 106.084531 30.988498 
L 106.997383 32.539538 
L 107.910242 34.626071 
L 108.823098 33.088554 
L 109.735951 30.054088 
L 110.648812 34.013498 
L 111.561659 31.698433 
L 112.474515 30.979032 
L 113.387379 39.3157 
L 114.300233 31.951306 
L 115.213089 25.825579 
L 116.125938 30.051384 
L 117.038797 32.384028 
L 117.951653 28.757273 
L 118.864507 20.528785 
L 119.777364 36.373188 
L 123.428785 26.252892 
L 124.341647 39.669992 
L 125.254499 39.298121 
L 126.167355 36.661219 
L 127.080212 22.380026 
L 127.993067 15.794532 
L 128.905926 35.20619 
L 129.818763 32.356983 
L 130.731631 40.61522 
L 131.644492 25.345527 
L 132.557344 31.308983 
L 133.470203 29.227859 
L 134.383056 27.898589 
L 135.295912 27.856669 
L 136.208765 32.711274 
L 137.121624 34.923568 
L 138.034491 30.374573 
L 138.947335 35.024987 
L 139.860192 28.459776 
L 140.773046 27.348221 
L 141.685902 35.715991 
L 142.598758 32.58281 
L 143.511612 32.112224 
L 144.42447 9.472727 
L 145.337321 12.135323 
L 172.723053 12.135323 
L 181.242468 18.71676 
L 181.851594 36.02701 
L 182.764449 26.699137 
L 183.677303 32.104111 
L 184.590158 20.998019 
L 185.503019 34.548992 
L 186.415872 17.026438 
L 187.328726 30.170382 
L 188.24158 35.989147 
L 189.154439 28.754569 
L 190.067296 29.34821 
L 190.980152 25.697114 
L 191.893011 30.351585 
L 192.80586 25.698466 
L 193.718718 27.444231 
L 194.631573 29.931033 
L 195.544431 17.831032 
L 196.457286 40.066203 
L 197.370142 39.092578 
L 198.282997 28.930362 
L 199.195852 26.576082 
L 200.108708 37.142623 
L 201.021561 32.870841 
L 201.934415 40.839695 
L 202.847273 33.688957 
L 202.847273 33.688957 
" clip-path="url(#p8af246a7a0)" style="fill: none; stroke: #339af0; stroke-width: 1.2; stroke-linecap: square"/>
   </g>
   <g id="line2d_16">
    <path d="M 39.792727 98.268723 
L 40.358622 98.751479 
L 42.184338 98.600026 
L 43.097199 98.760945 
L 44.010052 98.616253 
L 46.748617 98.838024 
L 47.661476 98.336336 
L 48.574332 98.781229 
L 49.487188 98.564868 
L 50.40004 98.800161 
L 51.312897 98.136202 
L 52.225755 98.5243 
L 53.138604 98.731195 
L 57.702885 98.751479 
L 58.615744 98.683866 
L 59.528593 98.862364 
L 61.35431 98.666287 
L 62.267165 98.717673 
L 63.180022 98.582447 
L 64.092874 98.812331 
L 65.005713 98.582447 
L 65.918587 97.984749 
L 66.831438 98.74607 
L 67.7443 98.663582 
L 71.395726 98.877239 
L 72.308567 98.516186 
L 73.221429 98.927273 
L 76.872853 98.348506 
L 78.698564 98.800161 
L 79.61142 98.685219 
L 80.524278 98.820444 
L 81.43713 98.690628 
L 82.349993 98.743366 
L 91.665728 98.256553 
L 92.391681 98.911046 
L 93.304554 98.698741 
L 94.217409 98.614901 
L 95.130269 98.751479 
L 96.043122 98.766354 
L 96.955975 98.48238 
L 97.868829 98.796104 
L 98.781684 98.70415 
L 99.694538 97.246417 
L 100.607396 98.760945 
L 101.520248 98.163247 
L 103.345963 98.664935 
L 104.258819 98.652764 
L 105.171671 98.771763 
L 106.997383 98.755536 
L 107.910242 97.263996 
L 108.823098 98.352563 
L 109.735951 98.629776 
L 110.648812 98.742013 
L 112.474515 98.743366 
L 113.387379 98.393131 
L 115.213089 98.748775 
L 116.125938 98.570277 
L 117.951653 98.778524 
L 118.864507 98.579743 
L 119.777364 98.673048 
L 123.428785 98.644651 
L 124.341647 98.767706 
L 125.254499 98.632481 
L 126.167355 98.912398 
L 127.080212 98.549993 
L 127.993067 98.468857 
L 129.818763 98.693332 
L 130.731631 98.658173 
L 131.644492 98.495903 
L 132.557344 98.462096 
L 133.470203 98.049658 
L 135.295912 98.633833 
L 141.685902 98.635185 
L 142.598758 98.09293 
L 143.511612 98.562163 
L 144.42447 98.643299 
L 145.337321 98.24303 
L 172.723053 98.24303 
L 181.851594 98.832615 
L 182.764449 98.459392 
L 183.677303 98.26061 
L 184.590158 98.49455 
L 185.503019 98.598674 
L 186.415872 97.319438 
L 187.328726 98.698741 
L 188.24158 98.702798 
L 189.154439 98.351211 
L 190.067296 98.374199 
L 190.980152 97.719707 
L 191.893011 98.232212 
L 192.80586 97.831944 
L 193.718718 98.562163 
L 194.631573 98.652764 
L 195.544431 98.349859 
L 196.457286 98.70415 
L 197.370142 98.698741 
L 198.282997 98.202463 
L 199.195852 98.586504 
L 201.021561 98.66223 
L 201.934415 98.778524 
L 202.847273 98.426937 
L 202.847273 98.426937 
" clip-path="url(#p8af246a7a0)" style="fill: none; stroke: #ff6b6b; stroke-width: 1.2; stroke-linecap: square"/>
   </g>
   <g id="patch_3">
    <path d="M 31.64 103.4 
L 31.64 5 
" style="fill: none; stroke: var(--fg-color); stroke-width: 0.8; stroke-linejoin: miter; stroke-linecap: square"/>
   </g>
   <g id="patch_4">
    <path d="M 31.64 103.4 
L 211 103.4 
" style="fill: none; stroke: var(--fg-color); stroke-width: 0.8; stroke-linejoin: miter; stroke-linecap: square"/>
   </g>
  </g>
 </g>
 <defs>
  <clipPath id="p8af246a7a0">
   <rect x="31.64" y="5" width="179.36" height="98.4"/>
  </clipPath>
 </defs>
</svg>
