<?xml version="1.0" encoding="utf-8" standalone="no"?>
<!DOCTYPE svg PUBLIC "-//W3C//DTD SVG 1.1//EN"
  "http://www.w3.org/Graphics/SVG/1.1/DTD/svg11.dtd">
<svg xmlns:xlink="http://www.w3.org/1999/xlink" width="737.28pt" height="552.96pt" viewBox="0 0 737.28 552.96" xmlns="http://www.w3.org/2000/svg" version="1.1">
 <metadata>
  <rdf:RDF xmlns:dc="http://purl.org/dc/elements/1.1/" xmlns:cc="http://creativecommons.org/ns#" xmlns:rdf="http://www.w3.org/1999/02/22-rdf-syntax-ns#">
   <cc:Work>
    <dc:type rdf:resource="http://purl.org/dc/dcmitype/StillImage"/>
    <dc:date>2026-06-30T04:48:18.220264</dc:date>
    <dc:format>image/svg+xml</dc:format>
    <dc:creator>
     <cc:Agent>
      <dc:title>Matplotlib v3.11.0, https://matplotlib.org/</dc:title>
     </cc:Agent>
    </dc:creator>
   </cc:Work>
  </rdf:RDF>
 </metadata>
 <defs>
  <style type="text/css">*{stroke-linejoin: round; stroke-linecap: butt}</style>
 </defs>
 <g id="figure_1">
  <g id="patch_1">
   <path d="M 0 552.96 
L 737.28 552.96 
L 737.28 0 
L 0 0 
z
" style="fill: #ffffff"/>
  </g>
  <g id="axes_1">
   <g id="patch_2">
    <path d="M 45.082344 510.837656 
L 682.837656 510.837656 
L 682.837656 26.16 
L 45.082344 26.16 
z
" style="fill: #ffffff"/>
   </g>
   <g id="matplotlib.axis_1">
    <g id="xtick_1">
     <g id="line2d_1">
      <path d="M 371.56247 510.837656 
L 371.56247 26.16 
" clip-path="url(#p1b2214faf2)" style="fill: none; stroke-dasharray: 2.96,1.28; stroke-dashoffset: 0; stroke: #dee2e6; stroke-width: 0.8"/>
     </g>
     <g id="line2d_2">
      <defs>
       <path id="m0289d4a8d0" d="M 0 0 
L 0 3.5 
" style="stroke: #212529; stroke-width: 0.8"/>
      </defs>
      <g>
       <use xlink:href="#m0289d4a8d0" x="371.56247" y="510.837656" style="fill: #212529; stroke: #212529; stroke-width: 0.8"/>
      </g>
     </g>
     <g id="text_1">
      <text style="font-size: 10px; font-family: 'DejaVu Sans', 'Bitstream Vera Sans', 'Computer Modern Sans Serif', 'Lucida Grande', 'Verdana', 'Geneva', 'Lucid', 'Arial', 'Helvetica', 'Avant Garde', sans-serif; text-anchor: middle; fill: #212529" x="371.56247" y="525.435313" transform="rotate(-0 371.56247 525.435313)">05/2026</text>
     </g>
    </g>
    <g id="text_2">
     <text style="font-size: 10px; font-family: 'DejaVu Sans', 'Bitstream Vera Sans', 'Computer Modern Sans Serif', 'Lucida Grande', 'Verdana', 'Geneva', 'Lucid', 'Arial', 'Helvetica', 'Avant Garde', sans-serif; text-anchor: middle; fill: #212529" x="363.96" y="539.436094" transform="rotate(-0 363.96 539.436094)">Time</text>
    </g>
   </g>
   <g id="matplotlib.axis_2">
    <g id="ytick_1">
     <g id="line2d_3">
      <path d="M 45.082344 497.4354 
L 682.837656 497.4354 
" clip-path="url(#p1b2214faf2)" style="fill: none; stroke-dasharray: 2.96,1.28; stroke-dashoffset: 0; stroke: #dee2e6; stroke-width: 0.8"/>
     </g>
     <g id="line2d_4">
      <defs>
       <path id="m0dacb4b295" d="M 0 0 
L -3.5 0 
" style="stroke: #212529; stroke-width: 0.8"/>
      </defs>
      <g>
       <use xlink:href="#m0dacb4b295" x="45.082344" y="497.4354" style="fill: #212529; stroke: #212529; stroke-width: 0.8"/>
      </g>
     </g>
     <g id="text_3">
      <text style="font-size: 10px; font-family: 'DejaVu Sans', 'Bitstream Vera Sans', 'Computer Modern Sans Serif', 'Lucida Grande', 'Verdana', 'Geneva', 'Lucid', 'Arial', 'Helvetica', 'Avant Garde', sans-serif; text-anchor: end; fill: #212529" x="38.082344" y="501.234229" transform="rotate(-0 38.082344 501.234229)">0</text>
     </g>
    </g>
    <g id="ytick_2">
     <g id="line2d_5">
      <path d="M 45.082344 399.160381 
L 682.837656 399.160381 
" clip-path="url(#p1b2214faf2)" style="fill: none; stroke-dasharray: 2.96,1.28; stroke-dashoffset: 0; stroke: #dee2e6; stroke-width: 0.8"/>
     </g>
     <g id="line2d_6">
      <g>
       <use xlink:href="#m0dacb4b295" x="45.082344" y="399.160381" style="fill: #212529; stroke: #212529; stroke-width: 0.8"/>
      </g>
     </g>
     <g id="text_4">
      <text style="font-size: 10px; font-family: 'DejaVu Sans', 'Bitstream Vera Sans', 'Computer Modern Sans Serif', 'Lucida Grande', 'Verdana', 'Geneva', 'Lucid', 'Arial', 'Helvetica', 'Avant Garde', sans-serif; text-anchor: end; fill: #212529" x="38.082344" y="402.959209" transform="rotate(-0 38.082344 402.959209)">20</text>
     </g>
    </g>
    <g id="ytick_3">
     <g id="line2d_7">
      <path d="M 45.082344 300.885361 
L 682.837656 300.885361 
" clip-path="url(#p1b2214faf2)" style="fill: none; stroke-dasharray: 2.96,1.28; stroke-dashoffset: 0; stroke: #dee2e6; stroke-width: 0.8"/>
     </g>
     <g id="line2d_8">
      <g>
       <use xlink:href="#m0dacb4b295" x="45.082344" y="300.885361" style="fill: #212529; stroke: #212529; stroke-width: 0.8"/>
      </g>
     </g>
     <g id="text_5">
      <text style="font-size: 10px; font-family: 'DejaVu Sans', 'Bitstream Vera Sans', 'Computer Modern Sans Serif', 'Lucida Grande', 'Verdana', 'Geneva', 'Lucid', 'Arial', 'Helvetica', 'Avant Garde', sans-serif; text-anchor: end; fill: #212529" x="38.082344" y="304.684189" transform="rotate(-0 38.082344 304.684189)">40</text>
     </g>
    </g>
    <g id="ytick_4">
     <g id="line2d_9">
      <path d="M 45.082344 202.610341 
L 682.837656 202.610341 
" clip-path="url(#p1b2214faf2)" style="fill: none; stroke-dasharray: 2.96,1.28; stroke-dashoffset: 0; stroke: #dee2e6; stroke-width: 0.8"/>
     </g>
     <g id="line2d_10">
      <g>
       <use xlink:href="#m0dacb4b295" x="45.082344" y="202.610341" style="fill: #212529; stroke: #212529; stroke-width: 0.8"/>
      </g>
     </g>
     <g id="text_6">
      <text style="font-size: 10px; font-family: 'DejaVu Sans', 'Bitstream Vera Sans', 'Computer Modern Sans Serif', 'Lucida Grande', 'Verdana', 'Geneva', 'Lucid', 'Arial', 'Helvetica', 'Avant Garde', sans-serif; text-anchor: end; fill: #212529" x="38.082344" y="206.409169" transform="rotate(-0 38.082344 206.409169)">60</text>
     </g>
    </g>
    <g id="ytick_5">
     <g id="line2d_11">
      <path d="M 45.082344 104.335321 
L 682.837656 104.335321 
" clip-path="url(#p1b2214faf2)" style="fill: none; stroke-dasharray: 2.96,1.28; stroke-dashoffset: 0; stroke: #dee2e6; stroke-width: 0.8"/>
     </g>
     <g id="line2d_12">
      <g>
       <use xlink:href="#m0dacb4b295" x="45.082344" y="104.335321" style="fill: #212529; stroke: #212529; stroke-width: 0.8"/>
      </g>
     </g>
     <g id="text_7">
      <text style="font-size: 10px; font-family: 'DejaVu Sans', 'Bitstream Vera Sans', 'Computer Modern Sans Serif', 'Lucida Grande', 'Verdana', 'Geneva', 'Lucid', 'Arial', 'Helvetica', 'Avant Garde', sans-serif; text-anchor: end; fill: #212529" x="38.082344" y="108.134149" transform="rotate(-0 38.082344 108.134149)">80</text>
     </g>
    </g>
    <g id="text_8">
     <text style="font-size: 10px; font-family: 'DejaVu Sans', 'Bitstream Vera Sans', 'Computer Modern Sans Serif', 'Lucida Grande', 'Verdana', 'Geneva', 'Lucid', 'Arial', 'Helvetica', 'Avant Garde', sans-serif; text-anchor: middle; fill: #212529" x="18.955" y="268.498828" transform="rotate(-90 18.955 268.498828)">Duration [ms]</text>
    </g>
   </g>
   <g id="line2d_13">
    <path d="M 74.071222 155.693847 
L 79.439521 139.586571 
L 84.807821 140.810095 
L 90.176123 120.290271 
L 95.544445 124.894455 
L 100.912733 132.358443 
L 106.281055 137.134609 
L 111.649372 121.911809 
L 117.017677 136.314013 
L 122.385967 126.250651 
L 127.754298 143.949982 
L 133.122587 151.826725 
L 138.490913 136.815215 
L 143.859228 143.094989 
L 149.227519 150.067602 
L 154.595859 146.839267 
L 159.964113 153.1043 
L 165.332427 112.236633 
L 170.70078 150.441047 
L 176.069084 166.022551 
L 181.437393 135.680139 
L 186.80566 123.179556 
L 192.173989 133.090592 
L 197.542301 154.504719 
L 202.9106 134.373081 
L 208.278916 140.156566 
L 229.752139 124.462045 
L 235.120486 142.04836 
L 240.48877 144.687044 
L 245.85708 124.761784 
L 251.225397 145.468331 
L 256.593702 126.437373 
L 261.962028 98.365114 
L 267.330228 132.378098 
L 272.698609 128.619079 
L 278.066948 117.744948 
L 283.435236 119.081488 
L 288.803564 133.439468 
L 294.171855 114.162823 
L 299.540168 109.676569 
L 304.908457 121.813534 
L 310.276785 95.470915 
L 315.645161 113.322572 
L 321.013402 93.824808 
L 326.381719 114.919541 
L 331.750013 61.477585 
L 337.118323 134.613855 
L 342.486637 121.897067 
L 347.854933 119.096229 
L 353.223255 88.517957 
L 358.591538 97.465897 
L 519.641151 97.465897 
L 569.742002 117.366589 
L 573.324143 123.385934 
L 578.69245 80.71492 
L 584.060745 108.772438 
L 589.429053 114.089117 
L 594.797394 124.334288 
L 600.165684 121.071557 
L 605.533983 131.690173 
L 610.902281 116.157806 
L 616.270606 135.10523 
L 621.638927 48.190803 
L 627.007235 103.662137 
L 632.375565 128.186669 
L 637.743831 108.359683 
L 643.112156 114.452735 
L 648.480459 131.572243 
L 653.848778 118.934076 
" clip-path="url(#p1b2214faf2)" style="fill: none; stroke: #007bff; stroke-width: 1.5; stroke-linecap: square"/>
    <defs>
     <path id="mbcf0512ffe" d="M 0 2 
C 0.530406 2 1.03916 1.789267 1.414214 1.414214 
C 1.789267 1.03916 2 0.530406 2 0 
C 2 -0.530406 1.789267 -1.03916 1.414214 -1.414214 
C 1.03916 -1.789267 0.530406 -2 0 -2 
C -0.530406 -2 -1.03916 -1.789267 -1.414214 -1.414214 
C -1.789267 -1.03916 -2 -0.530406 -2 0 
C -2 0.530406 -1.789267 1.03916 -1.414214 1.414214 
C -1.03916 1.789267 -0.530406 2 0 2 
z
" style="stroke: #007bff"/>
    </defs>
    <g clip-path="url(#p1b2214faf2)">
     <use xlink:href="#mbcf0512ffe" x="74.071222" y="155.693847" style="fill: #007bff; stroke: #007bff"/>
     <use xlink:href="#mbcf0512ffe" x="79.439521" y="139.586571" style="fill: #007bff; stroke: #007bff"/>
     <use xlink:href="#mbcf0512ffe" x="84.807821" y="140.810095" style="fill: #007bff; stroke: #007bff"/>
     <use xlink:href="#mbcf0512ffe" x="90.176123" y="120.290271" style="fill: #007bff; stroke: #007bff"/>
     <use xlink:href="#mbcf0512ffe" x="95.544445" y="124.894455" style="fill: #007bff; stroke: #007bff"/>
     <use xlink:href="#mbcf0512ffe" x="100.912733" y="132.358443" style="fill: #007bff; stroke: #007bff"/>
     <use xlink:href="#mbcf0512ffe" x="106.281055" y="137.134609" style="fill: #007bff; stroke: #007bff"/>
     <use xlink:href="#mbcf0512ffe" x="111.649372" y="121.911809" style="fill: #007bff; stroke: #007bff"/>
     <use xlink:href="#mbcf0512ffe" x="117.017677" y="136.314013" style="fill: #007bff; stroke: #007bff"/>
     <use xlink:href="#mbcf0512ffe" x="122.385967" y="126.250651" style="fill: #007bff; stroke: #007bff"/>
     <use xlink:href="#mbcf0512ffe" x="127.754298" y="143.949982" style="fill: #007bff; stroke: #007bff"/>
     <use xlink:href="#mbcf0512ffe" x="133.122587" y="151.826725" style="fill: #007bff; stroke: #007bff"/>
     <use xlink:href="#mbcf0512ffe" x="138.490913" y="136.815215" style="fill: #007bff; stroke: #007bff"/>
     <use xlink:href="#mbcf0512ffe" x="143.859228" y="143.094989" style="fill: #007bff; stroke: #007bff"/>
     <use xlink:href="#mbcf0512ffe" x="149.227519" y="150.067602" style="fill: #007bff; stroke: #007bff"/>
     <use xlink:href="#mbcf0512ffe" x="154.595859" y="146.839267" style="fill: #007bff; stroke: #007bff"/>
     <use xlink:href="#mbcf0512ffe" x="159.964113" y="153.1043" style="fill: #007bff; stroke: #007bff"/>
     <use xlink:href="#mbcf0512ffe" x="165.332427" y="112.236633" style="fill: #007bff; stroke: #007bff"/>
     <use xlink:href="#mbcf0512ffe" x="170.70078" y="150.441047" style="fill: #007bff; stroke: #007bff"/>
     <use xlink:href="#mbcf0512ffe" x="176.069084" y="166.022551" style="fill: #007bff; stroke: #007bff"/>
     <use xlink:href="#mbcf0512ffe" x="181.437393" y="135.680139" style="fill: #007bff; stroke: #007bff"/>
     <use xlink:href="#mbcf0512ffe" x="186.80566" y="123.179556" style="fill: #007bff; stroke: #007bff"/>
     <use xlink:href="#mbcf0512ffe" x="192.173989" y="133.090592" style="fill: #007bff; stroke: #007bff"/>
     <use xlink:href="#mbcf0512ffe" x="197.542301" y="154.504719" style="fill: #007bff; stroke: #007bff"/>
     <use xlink:href="#mbcf0512ffe" x="202.9106" y="134.373081" style="fill: #007bff; stroke: #007bff"/>
     <use xlink:href="#mbcf0512ffe" x="208.278916" y="140.156566" style="fill: #007bff; stroke: #007bff"/>
     <use xlink:href="#mbcf0512ffe" x="229.752139" y="124.462045" style="fill: #007bff; stroke: #007bff"/>
     <use xlink:href="#mbcf0512ffe" x="235.120486" y="142.04836" style="fill: #007bff; stroke: #007bff"/>
     <use xlink:href="#mbcf0512ffe" x="240.48877" y="144.687044" style="fill: #007bff; stroke: #007bff"/>
     <use xlink:href="#mbcf0512ffe" x="245.85708" y="124.761784" style="fill: #007bff; stroke: #007bff"/>
     <use xlink:href="#mbcf0512ffe" x="251.225397" y="145.468331" style="fill: #007bff; stroke: #007bff"/>
     <use xlink:href="#mbcf0512ffe" x="256.593702" y="126.437373" style="fill: #007bff; stroke: #007bff"/>
     <use xlink:href="#mbcf0512ffe" x="261.962028" y="98.365114" style="fill: #007bff; stroke: #007bff"/>
     <use xlink:href="#mbcf0512ffe" x="267.330228" y="132.378098" style="fill: #007bff; stroke: #007bff"/>
     <use xlink:href="#mbcf0512ffe" x="272.698609" y="128.619079" style="fill: #007bff; stroke: #007bff"/>
     <use xlink:href="#mbcf0512ffe" x="278.066948" y="117.744948" style="fill: #007bff; stroke: #007bff"/>
     <use xlink:href="#mbcf0512ffe" x="283.435236" y="119.081488" style="fill: #007bff; stroke: #007bff"/>
     <use xlink:href="#mbcf0512ffe" x="288.803564" y="133.439468" style="fill: #007bff; stroke: #007bff"/>
     <use xlink:href="#mbcf0512ffe" x="294.171855" y="114.162823" style="fill: #007bff; stroke: #007bff"/>
     <use xlink:href="#mbcf0512ffe" x="299.540168" y="109.676569" style="fill: #007bff; stroke: #007bff"/>
     <use xlink:href="#mbcf0512ffe" x="304.908457" y="121.813534" style="fill: #007bff; stroke: #007bff"/>
     <use xlink:href="#mbcf0512ffe" x="310.276785" y="95.470915" style="fill: #007bff; stroke: #007bff"/>
     <use xlink:href="#mbcf0512ffe" x="315.645161" y="113.322572" style="fill: #007bff; stroke: #007bff"/>
     <use xlink:href="#mbcf0512ffe" x="321.013402" y="93.824808" style="fill: #007bff; stroke: #007bff"/>
     <use xlink:href="#mbcf0512ffe" x="326.381719" y="114.919541" style="fill: #007bff; stroke: #007bff"/>
     <use xlink:href="#mbcf0512ffe" x="331.750013" y="61.477585" style="fill: #007bff; stroke: #007bff"/>
     <use xlink:href="#mbcf0512ffe" x="337.118323" y="134.613855" style="fill: #007bff; stroke: #007bff"/>
     <use xlink:href="#mbcf0512ffe" x="342.486637" y="121.897067" style="fill: #007bff; stroke: #007bff"/>
     <use xlink:href="#mbcf0512ffe" x="347.854933" y="119.096229" style="fill: #007bff; stroke: #007bff"/>
     <use xlink:href="#mbcf0512ffe" x="353.223255" y="88.517957" style="fill: #007bff; stroke: #007bff"/>
     <use xlink:href="#mbcf0512ffe" x="358.591538" y="97.465897" style="fill: #007bff; stroke: #007bff"/>
     <use xlink:href="#mbcf0512ffe" x="519.641151" y="97.465897" style="fill: #007bff; stroke: #007bff"/>
     <use xlink:href="#mbcf0512ffe" x="569.742002" y="117.366589" style="fill: #007bff; stroke: #007bff"/>
     <use xlink:href="#mbcf0512ffe" x="573.324143" y="123.385934" style="fill: #007bff; stroke: #007bff"/>
     <use xlink:href="#mbcf0512ffe" x="578.69245" y="80.71492" style="fill: #007bff; stroke: #007bff"/>
     <use xlink:href="#mbcf0512ffe" x="584.060745" y="108.772438" style="fill: #007bff; stroke: #007bff"/>
     <use xlink:href="#mbcf0512ffe" x="589.429053" y="114.089117" style="fill: #007bff; stroke: #007bff"/>
     <use xlink:href="#mbcf0512ffe" x="594.797394" y="124.334288" style="fill: #007bff; stroke: #007bff"/>
     <use xlink:href="#mbcf0512ffe" x="600.165684" y="121.071557" style="fill: #007bff; stroke: #007bff"/>
     <use xlink:href="#mbcf0512ffe" x="605.533983" y="131.690173" style="fill: #007bff; stroke: #007bff"/>
     <use xlink:href="#mbcf0512ffe" x="610.902281" y="116.157806" style="fill: #007bff; stroke: #007bff"/>
     <use xlink:href="#mbcf0512ffe" x="616.270606" y="135.10523" style="fill: #007bff; stroke: #007bff"/>
     <use xlink:href="#mbcf0512ffe" x="621.638927" y="48.190803" style="fill: #007bff; stroke: #007bff"/>
     <use xlink:href="#mbcf0512ffe" x="627.007235" y="103.662137" style="fill: #007bff; stroke: #007bff"/>
     <use xlink:href="#mbcf0512ffe" x="632.375565" y="128.186669" style="fill: #007bff; stroke: #007bff"/>
     <use xlink:href="#mbcf0512ffe" x="637.743831" y="108.359683" style="fill: #007bff; stroke: #007bff"/>
     <use xlink:href="#mbcf0512ffe" x="643.112156" y="114.452735" style="fill: #007bff; stroke: #007bff"/>
     <use xlink:href="#mbcf0512ffe" x="648.480459" y="131.572243" style="fill: #007bff; stroke: #007bff"/>
     <use xlink:href="#mbcf0512ffe" x="653.848778" y="118.934076" style="fill: #007bff; stroke: #007bff"/>
    </g>
   </g>
   <g id="line2d_14">
    <path d="M 74.071222 488.187721 
L 79.439521 488.806854 
L 84.807821 488.005912 
L 90.176123 488.443236 
L 95.544445 487.814276 
L 100.912733 487.671777 
L 106.281055 487.951861 
L 111.649372 486.286099 
L 117.017677 486.708682 
L 122.385967 488.114015 
L 127.754298 488.123842 
L 133.122587 488.182807 
L 138.490913 487.293418 
L 143.859228 487.416262 
L 149.227519 488.236859 
L 154.595859 488.335134 
L 159.964113 488.285996 
L 165.332427 487.534192 
L 170.70078 487.657036 
L 176.069084 488.48746 
L 181.437393 487.70126 
L 186.80566 486.880663 
L 192.173989 487.799535 
L 197.542301 487.892896 
L 202.9106 487.745483 
L 208.278916 487.416262 
L 229.752139 486.880663 
L 235.120486 488.114015 
L 240.48877 487.082127 
L 245.85708 487.288505 
L 251.225397 487.087041 
L 256.593702 484.743182 
L 261.962028 486.654631 
L 267.330228 487.838845 
L 272.698609 487.401521 
L 278.066948 487.475227 
L 283.435236 487.681605 
L 288.803564 487.416262 
L 294.171855 487.327815 
L 299.540168 487.062472 
L 304.908457 487.131265 
L 310.276785 484.620338 
L 315.645161 486.821698 
L 321.013402 487.313073 
L 326.381719 487.155833 
L 331.750013 486.939628 
L 337.118323 487.480141 
L 342.486637 487.602985 
L 347.854933 487.686518 
L 353.223255 487.573502 
L 358.591538 474.768267 
L 519.641151 474.768267 
L 569.742002 487.244281 
L 573.324143 487.912551 
L 578.69245 487.455572 
L 584.060745 487.642295 
L 589.429053 487.165661 
L 594.797394 487.489968 
L 600.165684 486.482649 
L 605.533983 487.313073 
L 610.902281 487.052645 
L 616.270606 487.155833 
L 621.638927 486.315582 
L 627.007235 487.34747 
L 632.375565 487.440831 
L 637.743831 487.514537 
L 643.112156 487.706173 
L 648.480459 486.128859 
L 653.848778 486.880663 
" clip-path="url(#p1b2214faf2)" style="fill: none; stroke: #dc3545; stroke-width: 1.5; stroke-linecap: square"/>
    <defs>
     <path id="m683d39f6d0" d="M 0 2 
C 0.530406 2 1.03916 1.789267 1.414214 1.414214 
C 1.789267 1.03916 2 0.530406 2 0 
C 2 -0.530406 1.789267 -1.03916 1.414214 -1.414214 
C 1.03916 -1.789267 0.530406 -2 0 -2 
C -0.530406 -2 -1.03916 -1.789267 -1.414214 -1.414214 
C -1.789267 -1.03916 -2 -0.530406 -2 0 
C -2 0.530406 -1.789267 1.03916 -1.414214 1.414214 
C -1.03916 1.789267 -0.530406 2 0 2 
z
" style="stroke: #dc3545"/>
    </defs>
    <g clip-path="url(#p1b2214faf2)">
     <use xlink:href="#m683d39f6d0" x="74.071222" y="488.187721" style="fill: #dc3545; stroke: #dc3545"/>
     <use xlink:href="#m683d39f6d0" x="79.439521" y="488.806854" style="fill: #dc3545; stroke: #dc3545"/>
     <use xlink:href="#m683d39f6d0" x="84.807821" y="488.005912" style="fill: #dc3545; stroke: #dc3545"/>
     <use xlink:href="#m683d39f6d0" x="90.176123" y="488.443236" style="fill: #dc3545; stroke: #dc3545"/>
     <use xlink:href="#m683d39f6d0" x="95.544445" y="487.814276" style="fill: #dc3545; stroke: #dc3545"/>
     <use xlink:href="#m683d39f6d0" x="100.912733" y="487.671777" style="fill: #dc3545; stroke: #dc3545"/>
     <use xlink:href="#m683d39f6d0" x="106.281055" y="487.951861" style="fill: #dc3545; stroke: #dc3545"/>
     <use xlink:href="#m683d39f6d0" x="111.649372" y="486.286099" style="fill: #dc3545; stroke: #dc3545"/>
     <use xlink:href="#m683d39f6d0" x="117.017677" y="486.708682" style="fill: #dc3545; stroke: #dc3545"/>
     <use xlink:href="#m683d39f6d0" x="122.385967" y="488.114015" style="fill: #dc3545; stroke: #dc3545"/>
     <use xlink:href="#m683d39f6d0" x="127.754298" y="488.123842" style="fill: #dc3545; stroke: #dc3545"/>
     <use xlink:href="#m683d39f6d0" x="133.122587" y="488.182807" style="fill: #dc3545; stroke: #dc3545"/>
     <use xlink:href="#m683d39f6d0" x="138.490913" y="487.293418" style="fill: #dc3545; stroke: #dc3545"/>
     <use xlink:href="#m683d39f6d0" x="143.859228" y="487.416262" style="fill: #dc3545; stroke: #dc3545"/>
     <use xlink:href="#m683d39f6d0" x="149.227519" y="488.236859" style="fill: #dc3545; stroke: #dc3545"/>
     <use xlink:href="#m683d39f6d0" x="154.595859" y="488.335134" style="fill: #dc3545; stroke: #dc3545"/>
     <use xlink:href="#m683d39f6d0" x="159.964113" y="488.285996" style="fill: #dc3545; stroke: #dc3545"/>
     <use xlink:href="#m683d39f6d0" x="165.332427" y="487.534192" style="fill: #dc3545; stroke: #dc3545"/>
     <use xlink:href="#m683d39f6d0" x="170.70078" y="487.657036" style="fill: #dc3545; stroke: #dc3545"/>
     <use xlink:href="#m683d39f6d0" x="176.069084" y="488.48746" style="fill: #dc3545; stroke: #dc3545"/>
     <use xlink:href="#m683d39f6d0" x="181.437393" y="487.70126" style="fill: #dc3545; stroke: #dc3545"/>
     <use xlink:href="#m683d39f6d0" x="186.80566" y="486.880663" style="fill: #dc3545; stroke: #dc3545"/>
     <use xlink:href="#m683d39f6d0" x="192.173989" y="487.799535" style="fill: #dc3545; stroke: #dc3545"/>
     <use xlink:href="#m683d39f6d0" x="197.542301" y="487.892896" style="fill: #dc3545; stroke: #dc3545"/>
     <use xlink:href="#m683d39f6d0" x="202.9106" y="487.745483" style="fill: #dc3545; stroke: #dc3545"/>
     <use xlink:href="#m683d39f6d0" x="208.278916" y="487.416262" style="fill: #dc3545; stroke: #dc3545"/>
     <use xlink:href="#m683d39f6d0" x="229.752139" y="486.880663" style="fill: #dc3545; stroke: #dc3545"/>
     <use xlink:href="#m683d39f6d0" x="235.120486" y="488.114015" style="fill: #dc3545; stroke: #dc3545"/>
     <use xlink:href="#m683d39f6d0" x="240.48877" y="487.082127" style="fill: #dc3545; stroke: #dc3545"/>
     <use xlink:href="#m683d39f6d0" x="245.85708" y="487.288505" style="fill: #dc3545; stroke: #dc3545"/>
     <use xlink:href="#m683d39f6d0" x="251.225397" y="487.087041" style="fill: #dc3545; stroke: #dc3545"/>
     <use xlink:href="#m683d39f6d0" x="256.593702" y="484.743182" style="fill: #dc3545; stroke: #dc3545"/>
     <use xlink:href="#m683d39f6d0" x="261.962028" y="486.654631" style="fill: #dc3545; stroke: #dc3545"/>
     <use xlink:href="#m683d39f6d0" x="267.330228" y="487.838845" style="fill: #dc3545; stroke: #dc3545"/>
     <use xlink:href="#m683d39f6d0" x="272.698609" y="487.401521" style="fill: #dc3545; stroke: #dc3545"/>
     <use xlink:href="#m683d39f6d0" x="278.066948" y="487.475227" style="fill: #dc3545; stroke: #dc3545"/>
     <use xlink:href="#m683d39f6d0" x="283.435236" y="487.681605" style="fill: #dc3545; stroke: #dc3545"/>
     <use xlink:href="#m683d39f6d0" x="288.803564" y="487.416262" style="fill: #dc3545; stroke: #dc3545"/>
     <use xlink:href="#m683d39f6d0" x="294.171855" y="487.327815" style="fill: #dc3545; stroke: #dc3545"/>
     <use xlink:href="#m683d39f6d0" x="299.540168" y="487.062472" style="fill: #dc3545; stroke: #dc3545"/>
     <use xlink:href="#m683d39f6d0" x="304.908457" y="487.131265" style="fill: #dc3545; stroke: #dc3545"/>
     <use xlink:href="#m683d39f6d0" x="310.276785" y="484.620338" style="fill: #dc3545; stroke: #dc3545"/>
     <use xlink:href="#m683d39f6d0" x="315.645161" y="486.821698" style="fill: #dc3545; stroke: #dc3545"/>
     <use xlink:href="#m683d39f6d0" x="321.013402" y="487.313073" style="fill: #dc3545; stroke: #dc3545"/>
     <use xlink:href="#m683d39f6d0" x="326.381719" y="487.155833" style="fill: #dc3545; stroke: #dc3545"/>
     <use xlink:href="#m683d39f6d0" x="331.750013" y="486.939628" style="fill: #dc3545; stroke: #dc3545"/>
     <use xlink:href="#m683d39f6d0" x="337.118323" y="487.480141" style="fill: #dc3545; stroke: #dc3545"/>
     <use xlink:href="#m683d39f6d0" x="342.486637" y="487.602985" style="fill: #dc3545; stroke: #dc3545"/>
     <use xlink:href="#m683d39f6d0" x="347.854933" y="487.686518" style="fill: #dc3545; stroke: #dc3545"/>
     <use xlink:href="#m683d39f6d0" x="353.223255" y="487.573502" style="fill: #dc3545; stroke: #dc3545"/>
     <use xlink:href="#m683d39f6d0" x="358.591538" y="474.768267" style="fill: #dc3545; stroke: #dc3545"/>
     <use xlink:href="#m683d39f6d0" x="519.641151" y="474.768267" style="fill: #dc3545; stroke: #dc3545"/>
     <use xlink:href="#m683d39f6d0" x="569.742002" y="487.244281" style="fill: #dc3545; stroke: #dc3545"/>
     <use xlink:href="#m683d39f6d0" x="573.324143" y="487.912551" style="fill: #dc3545; stroke: #dc3545"/>
     <use xlink:href="#m683d39f6d0" x="578.69245" y="487.455572" style="fill: #dc3545; stroke: #dc3545"/>
     <use xlink:href="#m683d39f6d0" x="584.060745" y="487.642295" style="fill: #dc3545; stroke: #dc3545"/>
     <use xlink:href="#m683d39f6d0" x="589.429053" y="487.165661" style="fill: #dc3545; stroke: #dc3545"/>
     <use xlink:href="#m683d39f6d0" x="594.797394" y="487.489968" style="fill: #dc3545; stroke: #dc3545"/>
     <use xlink:href="#m683d39f6d0" x="600.165684" y="486.482649" style="fill: #dc3545; stroke: #dc3545"/>
     <use xlink:href="#m683d39f6d0" x="605.533983" y="487.313073" style="fill: #dc3545; stroke: #dc3545"/>
     <use xlink:href="#m683d39f6d0" x="610.902281" y="487.052645" style="fill: #dc3545; stroke: #dc3545"/>
     <use xlink:href="#m683d39f6d0" x="616.270606" y="487.155833" style="fill: #dc3545; stroke: #dc3545"/>
     <use xlink:href="#m683d39f6d0" x="621.638927" y="486.315582" style="fill: #dc3545; stroke: #dc3545"/>
     <use xlink:href="#m683d39f6d0" x="627.007235" y="487.34747" style="fill: #dc3545; stroke: #dc3545"/>
     <use xlink:href="#m683d39f6d0" x="632.375565" y="487.440831" style="fill: #dc3545; stroke: #dc3545"/>
     <use xlink:href="#m683d39f6d0" x="637.743831" y="487.514537" style="fill: #dc3545; stroke: #dc3545"/>
     <use xlink:href="#m683d39f6d0" x="643.112156" y="487.706173" style="fill: #dc3545; stroke: #dc3545"/>
     <use xlink:href="#m683d39f6d0" x="648.480459" y="486.128859" style="fill: #dc3545; stroke: #dc3545"/>
     <use xlink:href="#m683d39f6d0" x="653.848778" y="486.880663" style="fill: #dc3545; stroke: #dc3545"/>
    </g>
   </g>
   <g id="patch_3">
    <path d="M 45.082344 510.837656 
L 45.082344 26.16 
" style="fill: none; stroke: #212529; stroke-width: 0.8; stroke-linejoin: miter; stroke-linecap: square"/>
   </g>
   <g id="patch_4">
    <path d="M 45.082344 510.837656 
L 682.837656 510.837656 
" style="fill: none; stroke: #212529; stroke-width: 0.8; stroke-linejoin: miter; stroke-linecap: square"/>
   </g>
   <g id="patch_5">
    <path d="M 45.082344 26.16 
L 682.837656 26.16 
" style="fill: none; stroke: #212529; stroke-width: 0.8; stroke-linejoin: miter; stroke-linecap: square"/>
   </g>
   <g id="legend_1">
    <g id="patch_6">
     <path d="M 50.913344 70.310952 
L 124.766603 70.310952 
Q 126.432603 70.310952 126.432603 68.644952 
L 126.432603 31.991 
Q 126.432603 30.325 124.766603 30.325 
L 50.913344 30.325 
Q 49.247344 30.325 49.247344 31.991 
L 49.247344 68.644952 
Q 49.247344 70.310952 50.913344 70.310952 
L 50.913344 70.310952 
z
" style="fill: none; opacity: 0.8; stroke: #212529; stroke-linejoin: miter"/>
    </g>
    <g id="line2d_15">
     <path d="M 52.579344 37.070998 
L 60.909344 37.070998 
L 69.239344 37.070998 
" style="fill: none; stroke: #007bff; stroke-width: 1.5; stroke-linecap: square"/>
     <g>
      <use xlink:href="#mbcf0512ffe" x="60.909344" y="37.070998" style="fill: #007bff; stroke: #007bff"/>
     </g>
    </g>
    <g id="text_9">
     <text style="font-size: 8.33px; font-family: 'DejaVu Sans', 'Bitstream Vera Sans', 'Computer Modern Sans Serif', 'Lucida Grande', 'Verdana', 'Geneva', 'Lucid', 'Arial', 'Helvetica', 'Avant Garde', sans-serif; text-anchor: start; fill: #212529" x="75.903344" y="39.986498" transform="rotate(-0 75.903344 39.986498)">Cold Start</text>
    </g>
    <g id="line2d_16">
     <path d="M 52.579344 49.566649 
L 60.909344 49.566649 
L 69.239344 49.566649 
" style="fill: none; stroke: #dc3545; stroke-width: 1.5; stroke-linecap: square"/>
     <g>
      <use xlink:href="#m683d39f6d0" x="60.909344" y="49.566649" style="fill: #dc3545; stroke: #dc3545"/>
     </g>
    </g>
    <g id="text_10">
     <text style="font-size: 8.33px; font-family: 'DejaVu Sans', 'Bitstream Vera Sans', 'Computer Modern Sans Serif', 'Lucida Grande', 'Verdana', 'Geneva', 'Lucid', 'Arial', 'Helvetica', 'Avant Garde', sans-serif; text-anchor: start; fill: #212529" x="75.903344" y="52.482149" transform="rotate(-0 75.903344 52.482149)">Warm Start</text>
    </g>
    <g id="line2d_17">
     <path d="M 52.579344 62.0623 
L 60.909344 62.0623 
L 69.239344 62.0623 
" style="fill: none; stroke-dasharray: 5.55,2.4; stroke-dashoffset: 0; stroke: #ff7f0e; stroke-width: 1.5"/>
    </g>
    <g id="text_11">
     <text style="font-size: 8.33px; font-family: 'DejaVu Sans', 'Bitstream Vera Sans', 'Computer Modern Sans Serif', 'Lucida Grande', 'Verdana', 'Geneva', 'Lucid', 'Arial', 'Helvetica', 'Avant Garde', sans-serif; text-anchor: start; fill: #212529" x="75.903344" y="64.9778" transform="rotate(-0 75.903344 64.9778)">Memory</text>
    </g>
   </g>
  </g>
  <g id="axes_2">
   <g id="matplotlib.axis_3">
    <g id="ytick_6">
     <g id="line2d_18">
      <defs>
       <path id="m4edc0cd810" d="M 0 0 
L 3.5 0 
" style="stroke: #212529; stroke-width: 0.8"/>
      </defs>
      <g>
       <use xlink:href="#m4edc0cd810" x="682.837656" y="439.849515" style="fill: #212529; stroke: #212529; stroke-width: 0.8"/>
      </g>
     </g>
     <g id="text_12">
      <text style="font-size: 10px; font-family: 'DejaVu Sans', 'Bitstream Vera Sans', 'Computer Modern Sans Serif', 'Lucida Grande', 'Verdana', 'Geneva', 'Lucid', 'Arial', 'Helvetica', 'Avant Garde', sans-serif; text-anchor: start; fill: #ff7f0e" x="689.837656" y="443.648343" transform="rotate(-0 689.837656 443.648343)">21.2</text>
     </g>
    </g>
    <g id="ytick_7">
     <g id="line2d_19">
      <g>
       <use xlink:href="#m4edc0cd810" x="682.837656" y="341.934837" style="fill: #212529; stroke: #212529; stroke-width: 0.8"/>
      </g>
     </g>
     <g id="text_13">
      <text style="font-size: 10px; font-family: 'DejaVu Sans', 'Bitstream Vera Sans', 'Computer Modern Sans Serif', 'Lucida Grande', 'Verdana', 'Geneva', 'Lucid', 'Arial', 'Helvetica', 'Avant Garde', sans-serif; text-anchor: start; fill: #ff7f0e" x="689.837656" y="345.733665" transform="rotate(-0 689.837656 345.733665)">21.4</text>
     </g>
    </g>
    <g id="ytick_8">
     <g id="line2d_20">
      <g>
       <use xlink:href="#m4edc0cd810" x="682.837656" y="244.020159" style="fill: #212529; stroke: #212529; stroke-width: 0.8"/>
      </g>
     </g>
     <g id="text_14">
      <text style="font-size: 10px; font-family: 'DejaVu Sans', 'Bitstream Vera Sans', 'Computer Modern Sans Serif', 'Lucida Grande', 'Verdana', 'Geneva', 'Lucid', 'Arial', 'Helvetica', 'Avant Garde', sans-serif; text-anchor: start; fill: #ff7f0e" x="689.837656" y="247.818987" transform="rotate(-0 689.837656 247.818987)">21.6</text>
     </g>
    </g>
    <g id="ytick_9">
     <g id="line2d_21">
      <g>
       <use xlink:href="#m4edc0cd810" x="682.837656" y="146.105481" style="fill: #212529; stroke: #212529; stroke-width: 0.8"/>
      </g>
     </g>
     <g id="text_15">
      <text style="font-size: 10px; font-family: 'DejaVu Sans', 'Bitstream Vera Sans', 'Computer Modern Sans Serif', 'Lucida Grande', 'Verdana', 'Geneva', 'Lucid', 'Arial', 'Helvetica', 'Avant Garde', sans-serif; text-anchor: start; fill: #ff7f0e" x="689.837656" y="149.904309" transform="rotate(-0 689.837656 149.904309)">21.8</text>
     </g>
    </g>
    <g id="ytick_10">
     <g id="line2d_22">
      <g>
       <use xlink:href="#m4edc0cd810" x="682.837656" y="48.190803" style="fill: #212529; stroke: #212529; stroke-width: 0.8"/>
      </g>
     </g>
     <g id="text_16">
      <text style="font-size: 10px; font-family: 'DejaVu Sans', 'Bitstream Vera Sans', 'Computer Modern Sans Serif', 'Lucida Grande', 'Verdana', 'Geneva', 'Lucid', 'Arial', 'Helvetica', 'Avant Garde', sans-serif; text-anchor: start; fill: #ff7f0e" x="689.837656" y="51.989631" transform="rotate(-0 689.837656 51.989631)">22.0</text>
     </g>
    </g>
    <g id="text_17">
     <text style="font-size: 10px; font-family: 'DejaVu Sans', 'Bitstream Vera Sans', 'Computer Modern Sans Serif', 'Lucida Grande', 'Verdana', 'Geneva', 'Lucid', 'Arial', 'Helvetica', 'Avant Garde', sans-serif; text-anchor: middle; fill: #ff7f0e" x="723.701719" y="268.498828" transform="rotate(-90 723.701719 268.498828)">Memory Usage [MB]</text>
    </g>
   </g>
   <g id="line2d_23">
    <path d="M 74.071222 48.190803 
L 79.439521 48.190803 
L 84.807821 48.190803 
L 90.176123 48.190803 
L 95.544445 48.190803 
L 100.912733 48.190803 
L 106.281055 48.190803 
L 111.649372 48.190803 
L 117.017677 48.190803 
L 122.385967 48.190803 
L 127.754298 48.190803 
L 133.122587 48.190803 
L 138.490913 48.190803 
L 143.859228 48.190803 
L 149.227519 48.190803 
L 154.595859 48.190803 
L 159.964113 48.190803 
L 165.332427 48.190803 
L 170.70078 48.190803 
L 176.069084 48.190803 
L 181.437393 48.190803 
L 186.80566 48.190803 
L 192.173989 48.190803 
L 197.542301 48.190803 
L 202.9106 48.190803 
L 208.278916 48.190803 
L 229.752139 48.190803 
L 235.120486 48.190803 
L 240.48877 48.190803 
L 245.85708 48.190803 
L 251.225397 48.190803 
L 256.593702 48.190803 
L 261.962028 48.190803 
L 267.330228 48.190803 
L 272.698609 48.190803 
L 278.066948 48.190803 
L 283.435236 48.190803 
L 288.803564 48.190803 
L 294.171855 48.190803 
L 299.540168 48.190803 
L 304.908457 48.190803 
L 310.276785 48.190803 
L 315.645161 48.190803 
L 321.013402 48.190803 
L 326.381719 48.190803 
L 331.750013 48.190803 
L 337.118323 48.190803 
L 342.486637 48.190803 
L 347.854933 48.190803 
L 353.223255 48.190803 
L 358.591538 48.190803 
L 519.641151 48.190803 
L 569.742002 48.190803 
L 573.324143 48.190803 
L 578.69245 48.190803 
L 584.060745 48.190803 
L 589.429053 48.190803 
L 594.797394 195.06282 
L 600.165684 244.020159 
L 605.533983 195.06282 
L 610.902281 439.849515 
L 616.270606 488.806854 
L 621.638927 292.977498 
L 627.007235 48.190803 
L 632.375565 48.190803 
L 637.743831 341.934837 
L 643.112156 488.806854 
L 648.480459 292.977498 
L 653.848778 341.934837 
" clip-path="url(#p1b2214faf2)" style="fill: none; stroke-dasharray: 5.55,2.4; stroke-dashoffset: 0; stroke: #ff7f0e; stroke-width: 1.5"/>
   </g>
   <g id="patch_7">
    <path d="M 682.837656 510.837656 
L 682.837656 26.16 
" style="fill: none; stroke: #ff7f0e; stroke-width: 0.8; stroke-linejoin: miter; stroke-linecap: square"/>
   </g>
   <g id="text_18">
    <text style="font-size: 12px; font-family: 'DejaVu Sans', 'Bitstream Vera Sans', 'Computer Modern Sans Serif', 'Lucida Grande', 'Verdana', 'Geneva', 'Lucid', 'Arial', 'Helvetica', 'Avant Garde', sans-serif; text-anchor: middle; fill: #212529" x="363.96" y="20.16" transform="rotate(-0 363.96 20.16)">dotnet10_aot_on_provided_al2023 (x86_64, zip, 256MB, us-east-1)</text>
   </g>
  </g>
 </g>
 <defs>
  <clipPath id="p1b2214faf2">
   <rect x="45.082344" y="26.16" width="637.755312" height="484.677656"/>
  </clipPath>
 </defs>
</svg>
