<?xml version="1.0" encoding="utf-8" standalone="no"?>
<!DOCTYPE svg PUBLIC "-//W3C//DTD SVG 1.1//EN"
  "http://www.w3.org/Graphics/SVG/1.1/DTD/svg11.dtd">
<svg xmlns:xlink="http://www.w3.org/1999/xlink" width="216pt" height="122.4pt" viewBox="0 0 216 122.4" xmlns="http://www.w3.org/2000/svg" version="1.1">
  <style>
    :root {
      --fg-color: #212529;
      --grid-color: rgba(33, 37, 41, 0.1);
    }
    @media (prefers-color-scheme: dark) {
      :root {
        --fg-color: #dee2e6;
        --grid-color: rgba(248, 249, 250, 0.15);
      }
    }
  </style>

 <metadata>
  <rdf:RDF xmlns:dc="http://purl.org/dc/elements/1.1/" xmlns:cc="http://creativecommons.org/ns#" xmlns:rdf="http://www.w3.org/1999/02/22-rdf-syntax-ns#">
   <cc:Work>
    <dc:type rdf:resource="http://purl.org/dc/dcmitype/StillImage"/>
    <dc:date>2026-06-30T04:48:13.360264</dc:date>
    <dc:format>image/svg+xml</dc:format>
    <dc:creator>
     <cc:Agent>
      <dc:title>Matplotlib v3.11.0, https://matplotlib.org/</dc:title>
     </cc:Agent>
    </dc:creator>
   </cc:Work>
  </rdf:RDF>
 </metadata>
 <defs>
  <style type="text/css">*{stroke-linejoin: round; stroke-linecap: butt}</style>
 </defs>
 <g id="figure_1">
  <g id="patch_1">
   <path d="M 0 122.4 
L 216 122.4 
L 216 0 
L 0 0 
L 0 122.4 
z
" style="fill: none; opacity: 0"/>
  </g>
  <g id="axes_1">
   <g id="patch_2">
    <path d="M 31.64 103.4 
L 211 103.4 
L 211 5 
L 31.64 5 
L 31.64 103.4 
z
" style="fill: none; opacity: 0"/>
   </g>
   <g id="matplotlib.axis_1">
    <g id="xtick_1">
     <g id="line2d_1">
      <path d="M 68.627238 103.4 
L 68.627238 5 
" clip-path="url(#pdf665408f7)" style="fill: none; stroke-dasharray: 2.96,1.28; stroke-dashoffset: 0; stroke: var(--grid-color); stroke-width: 0.8"/>
     </g>
     <g id="line2d_2">
      <defs>
       <path id="m10c3bc1ac7" d="M 0 0 
L 0 3.5 
" style="stroke: var(--fg-color); stroke-width: 0.8"/>
      </defs>
      <g>
       <use xlink:href="#m10c3bc1ac7" x="68.627238" y="103.4" style="fill: var(--fg-color); stroke: var(--fg-color); stroke-width: 0.8"/>
      </g>
     </g>
     <g id="text_1">
      <text style="font-size: 7px; font-family: 'DejaVu Sans', 'Bitstream Vera Sans', 'Computer Modern Sans Serif', 'Lucida Grande', 'Verdana', 'Geneva', 'Lucid', 'Arial', 'Helvetica', 'Avant Garde', sans-serif; text-anchor: middle; fill: var(--fg-color)" x="68.627238" y="115.718359" transform="rotate(-0 68.627238 115.718359)">02/2026</text>
     </g>
    </g>
    <g id="xtick_2">
     <g id="line2d_3">
      <path d="M 124.558632 103.4 
L 124.558632 5 
" clip-path="url(#pdf665408f7)" style="fill: none; stroke-dasharray: 2.96,1.28; stroke-dashoffset: 0; stroke: var(--grid-color); stroke-width: 0.8"/>
     </g>
     <g id="line2d_4">
      <g>
       <use xlink:href="#m10c3bc1ac7" x="124.558632" y="103.4" style="fill: var(--fg-color); stroke: var(--fg-color); stroke-width: 0.8"/>
      </g>
     </g>
     <g id="text_2">
      <text style="font-size: 7px; font-family: 'DejaVu Sans', 'Bitstream Vera Sans', 'Computer Modern Sans Serif', 'Lucida Grande', 'Verdana', 'Geneva', 'Lucid', 'Arial', 'Helvetica', 'Avant Garde', sans-serif; text-anchor: middle; fill: var(--fg-color)" x="124.558632" y="115.718359" transform="rotate(-0 124.558632 115.718359)">04/2026</text>
     </g>
    </g>
    <g id="xtick_3">
     <g id="line2d_5">
      <path d="M 182.386006 103.4 
L 182.386006 5 
" clip-path="url(#pdf665408f7)" style="fill: none; stroke-dasharray: 2.96,1.28; stroke-dashoffset: 0; stroke: var(--grid-color); stroke-width: 0.8"/>
     </g>
     <g id="line2d_6">
      <g>
       <use xlink:href="#m10c3bc1ac7" x="182.386006" y="103.4" style="fill: var(--fg-color); stroke: var(--fg-color); stroke-width: 0.8"/>
      </g>
     </g>
     <g id="text_3">
      <text style="font-size: 7px; font-family: 'DejaVu Sans', 'Bitstream Vera Sans', 'Computer Modern Sans Serif', 'Lucida Grande', 'Verdana', 'Geneva', 'Lucid', 'Arial', 'Helvetica', 'Avant Garde', sans-serif; text-anchor: middle; fill: var(--fg-color)" x="182.386006" y="115.718359" transform="rotate(-0 182.386006 115.718359)">06/2026</text>
     </g>
    </g>
   </g>
   <g id="matplotlib.axis_2">
    <g id="ytick_1">
     <g id="line2d_7">
      <path d="M 31.64 102.295005 
L 211 102.295005 
" clip-path="url(#pdf665408f7)" style="fill: none; stroke-dasharray: 2.96,1.28; stroke-dashoffset: 0; stroke: var(--grid-color); stroke-width: 0.8"/>
     </g>
     <g id="line2d_8">
      <defs>
       <path id="m7a7f98aeb3" d="M 0 0 
L -3.5 0 
" style="stroke: var(--fg-color); stroke-width: 0.8"/>
      </defs>
      <g>
       <use xlink:href="#m7a7f98aeb3" x="31.64" y="102.295005" style="fill: var(--fg-color); stroke: var(--fg-color); stroke-width: 0.8"/>
      </g>
     </g>
     <g id="text_4">
      <text style="font-size: 7px; font-family: 'DejaVu Sans', 'Bitstream Vera Sans', 'Computer Modern Sans Serif', 'Lucida Grande', 'Verdana', 'Geneva', 'Lucid', 'Arial', 'Helvetica', 'Avant Garde', sans-serif; text-anchor: end; fill: var(--fg-color)" x="24.64" y="104.954185" transform="rotate(-0 24.64 104.954185)">0</text>
     </g>
    </g>
    <g id="ytick_2">
     <g id="line2d_9">
      <path d="M 31.64 75.244946 
L 211 75.244946 
" clip-path="url(#pdf665408f7)" style="fill: none; stroke-dasharray: 2.96,1.28; stroke-dashoffset: 0; stroke: var(--grid-color); stroke-width: 0.8"/>
     </g>
     <g id="line2d_10">
      <g>
       <use xlink:href="#m7a7f98aeb3" x="31.64" y="75.244946" style="fill: var(--fg-color); stroke: var(--fg-color); stroke-width: 0.8"/>
      </g>
     </g>
     <g id="text_5">
      <text style="font-size: 7px; font-family: 'DejaVu Sans', 'Bitstream Vera Sans', 'Computer Modern Sans Serif', 'Lucida Grande', 'Verdana', 'Geneva', 'Lucid', 'Arial', 'Helvetica', 'Avant Garde', sans-serif; text-anchor: end; fill: var(--fg-color)" x="24.64" y="77.904126" transform="rotate(-0 24.64 77.904126)">10</text>
     </g>
    </g>
    <g id="ytick_3">
     <g id="line2d_11">
      <path d="M 31.64 48.194887 
L 211 48.194887 
" clip-path="url(#pdf665408f7)" style="fill: none; stroke-dasharray: 2.96,1.28; stroke-dashoffset: 0; stroke: var(--grid-color); stroke-width: 0.8"/>
     </g>
     <g id="line2d_12">
      <g>
       <use xlink:href="#m7a7f98aeb3" x="31.64" y="48.194887" style="fill: var(--fg-color); stroke: var(--fg-color); stroke-width: 0.8"/>
      </g>
     </g>
     <g id="text_6">
      <text style="font-size: 7px; font-family: 'DejaVu Sans', 'Bitstream Vera Sans', 'Computer Modern Sans Serif', 'Lucida Grande', 'Verdana', 'Geneva', 'Lucid', 'Arial', 'Helvetica', 'Avant Garde', sans-serif; text-anchor: end; fill: var(--fg-color)" x="24.64" y="50.854067" transform="rotate(-0 24.64 50.854067)">20</text>
     </g>
    </g>
    <g id="ytick_4">
     <g id="line2d_13">
      <path d="M 31.64 21.144828 
L 211 21.144828 
" clip-path="url(#pdf665408f7)" style="fill: none; stroke-dasharray: 2.96,1.28; stroke-dashoffset: 0; stroke: var(--grid-color); stroke-width: 0.8"/>
     </g>
     <g id="line2d_14">
      <g>
       <use xlink:href="#m7a7f98aeb3" x="31.64" y="21.144828" style="fill: var(--fg-color); stroke: var(--fg-color); stroke-width: 0.8"/>
      </g>
     </g>
     <g id="text_7">
      <text style="font-size: 7px; font-family: 'DejaVu Sans', 'Bitstream Vera Sans', 'Computer Modern Sans Serif', 'Lucida Grande', 'Verdana', 'Geneva', 'Lucid', 'Arial', 'Helvetica', 'Avant Garde', sans-serif; text-anchor: end; fill: var(--fg-color)" x="24.64" y="23.804007" transform="rotate(-0 24.64 23.804007)">30</text>
     </g>
    </g>
    <g id="text_8">
     <text style="font-size: 7px; font-family: 'DejaVu Sans', 'Bitstream Vera Sans', 'Computer Modern Sans Serif', 'Lucida Grande', 'Verdana', 'Geneva', 'Lucid', 'Arial', 'Helvetica', 'Avant Garde', sans-serif; text-anchor: middle; fill: var(--fg-color)" x="10.050859" y="54.2" transform="rotate(-90 10.050859 54.2)">ms</text>
    </g>
   </g>
   <g id="line2d_15">
    <path d="M 39.792727 63.883921 
L 41.100981 66.467202 
L 41.688656 68.198406 
L 42.636649 66.007351 
L 43.584641 66.112846 
L 44.532636 65.669225 
L 45.480623 63.659406 
L 46.428611 66.515892 
L 47.376592 67.167798 
L 48.324591 68.647437 
L 49.272583 65.620535 
L 50.220574 66.864838 
L 51.168564 65.717915 
L 52.116549 66.694422 
L 53.064541 66.810738 
L 54.012533 58.71195 
L 54.960516 64.557468 
L 55.908509 67.048778 
L 56.856499 65.068714 
L 57.804489 63.748671 
L 58.752478 68.349886 
L 59.700467 40.923831 
L 60.64846 65.663815 
L 61.596444 59.577552 
L 62.544432 61.457531 
L 63.492429 63.096764 
L 64.440417 49.176804 
L 65.388409 61.736146 
L 66.336395 61.784837 
L 67.284367 65.193144 
L 68.232376 61.438596 
L 69.180361 66.734997 
L 70.128357 54.805921 
L 71.076344 65.271589 
L 72.024336 65.141749 
L 72.97232 60.086093 
L 73.920319 51.175803 
L 74.868295 66.499662 
L 75.816291 58.482024 
L 76.764282 61.454826 
L 77.712274 62.063452 
L 78.660247 62.155422 
L 79.608251 43.580147 
L 80.556225 52.217231 
L 81.504231 62.071567 
L 82.452221 62.907414 
L 83.400212 64.094912 
L 84.348199 63.34833 
L 85.296195 64.473612 
L 94.970475 67.760195 
L 95.724369 70.42192 
L 96.672377 69.026137 
L 97.620366 68.942282 
L 98.56836 68.999087 
L 99.516347 70.938577 
L 100.464334 68.871952 
L 101.412323 69.483283 
L 102.360311 69.753784 
L 103.308299 68.431036 
L 104.256292 69.596894 
L 105.204278 69.434593 
L 106.15227 65.64488 
L 107.100261 62.880364 
L 108.04825 71.395723 
L 108.996237 69.331803 
L 109.944231 66.267031 
L 110.892217 67.830525 
L 111.84021 63.39702 
L 112.788201 61.227605 
L 113.736187 68.04422 
L 114.684183 66.602452 
L 115.632163 68.379641 
L 116.580154 64.546648 
L 117.528151 66.724177 
L 118.47614 67.70339 
L 119.42413 64.865838 
L 120.372113 67.378789 
L 121.320106 68.828672 
L 122.268096 65.528565 
L 123.216085 64.308607 
L 124.164076 64.865838 
L 127.956033 51.657294 
L 128.904029 58.990565 
L 129.852015 54.27574 
L 130.800005 63.567435 
L 131.747996 62.385348 
L 132.695985 55.747263 
L 133.643978 63.194145 
L 134.591949 62.996679 
L 135.539952 59.937318 
L 136.487947 63.41866 
L 137.435933 60.142898 
L 138.383926 54.870841 
L 139.331913 63.589076 
L 140.279903 56.988861 
L 141.22789 64.690013 
L 142.175883 61.403431 
L 143.123885 59.707392 
L 144.071862 36.222531 
L 145.019854 51.97919 
L 145.967841 56.54524 
L 146.915831 54.722066 
L 147.863822 53.818594 
L 148.811809 58.206114 
L 149.759801 48.714248 
L 150.707787 49.222789 
L 179.147543 49.222789 
L 187.994854 55.709393 
L 188.627425 54.034995 
L 189.575414 49.907156 
L 190.523402 48.127262 
L 191.471391 58.525304 
L 192.419387 46.082277 
L 193.367373 55.141342 
L 194.315361 59.599192 
L 195.263349 60.629799 
L 196.211342 57.922088 
L 197.159334 9.472727 
L 198.107324 52.374121 
L 199.055317 45.914567 
L 200.0033 49.798955 
L 200.951292 48.976634 
L 201.899281 50.686197 
L 202.847273 49.723215 
" clip-path="url(#pdf665408f7)" style="fill: none; stroke: #339af0; stroke-width: 1.2; stroke-linecap: square"/>
   </g>
   <g id="line2d_16">
    <path d="M 39.792727 95.605525 
L 41.100981 95.072639 
L 41.688656 96.514407 
L 42.636649 95.681266 
L 43.584641 96.032916 
L 44.532636 94.112362 
L 45.480623 95.470275 
L 46.428611 96.103247 
L 47.376592 96.533342 
L 48.324591 97.626165 
L 49.272583 95.713726 
L 50.220574 96.268252 
L 51.168564 95.984226 
L 52.116549 93.373896 
L 53.064541 96.966143 
L 54.012533 94.358518 
L 54.960516 96.508997 
L 55.908509 96.674003 
L 56.856499 96.866058 
L 57.804489 97.039179 
L 58.752478 95.635281 
L 59.700467 97.190659 
L 60.64846 96.481947 
L 61.596444 96.479242 
L 62.544432 97.47198 
L 63.492429 96.411617 
L 64.440417 96.573918 
L 65.388409 96.895813 
L 66.336395 96.679413 
L 67.284367 95.667741 
L 68.232376 96.617198 
L 69.180361 97.290744 
L 70.128357 95.44052 
L 71.076344 93.860797 
L 72.024336 96.387272 
L 72.97232 96.958028 
L 73.920319 97.009424 
L 74.868295 96.041031 
L 75.816291 97.196069 
L 76.764282 96.449487 
L 77.712274 96.046441 
L 78.660247 96.360222 
L 79.608251 96.836303 
L 80.556225 96.346697 
L 81.504231 96.571213 
L 82.452221 96.811958 
L 83.400212 96.354812 
L 84.348199 95.805696 
L 85.296195 93.04118 
L 94.970475 96.387272 
L 95.724369 95.013129 
L 96.672377 93.617346 
L 97.620366 95.892256 
L 98.56836 96.054556 
L 99.516347 96.779498 
L 100.464334 95.986931 
L 101.412323 97.039179 
L 102.360311 96.492767 
L 103.308299 95.765121 
L 104.256292 96.598263 
L 105.204278 94.547868 
L 106.15227 94.845419 
L 107.100261 94.196217 
L 108.04825 96.116772 
L 108.996237 96.076196 
L 109.944231 95.816516 
L 110.892217 95.448635 
L 111.84021 94.720989 
L 112.788201 95.735366 
L 113.736187 95.635281 
L 114.684183 95.58118 
L 115.632163 95.61905 
L 116.580154 95.786761 
L 117.528151 96.143822 
L 118.47614 95.824631 
L 119.42413 93.909487 
L 120.372113 96.062671 
L 121.320106 97.247464 
L 122.268096 97.555835 
L 123.216085 96.030211 
L 124.164076 97.155494 
L 127.956033 95.640691 
L 128.904029 97.977816 
L 129.852015 96.976963 
L 130.800005 96.893108 
L 131.747996 98.134706 
L 132.695985 97.266399 
L 133.643978 96.798433 
L 134.591949 96.960733 
L 135.539952 97.66133 
L 136.487947 97.994046 
L 137.435933 95.059114 
L 138.383926 97.233939 
L 139.331913 97.415174 
L 140.279903 92.586739 
L 141.22789 96.027506 
L 142.175883 97.407059 
L 143.123885 95.57577 
L 144.071862 98.599967 
L 145.019854 98.689232 
L 145.967841 98.416027 
L 146.915831 98.797432 
L 147.863822 98.337581 
L 148.811809 98.424142 
L 149.759801 98.729807 
L 150.707787 98.927273 
L 179.147543 98.927273 
L 187.994854 98.727102 
L 188.627425 98.854238 
L 189.575414 98.578327 
L 190.523402 98.637837 
L 191.471391 98.827188 
L 192.419387 98.729807 
L 193.367373 98.472832 
L 194.315361 98.497177 
L 195.263349 98.681117 
L 196.211342 98.648657 
L 197.159334 98.581032 
L 198.107324 98.662182 
L 199.055317 98.012981 
L 200.0033 98.397092 
L 200.951292 98.640542 
L 201.899281 98.616197 
L 202.847273 98.562097 
" clip-path="url(#pdf665408f7)" style="fill: none; stroke: #ff6b6b; stroke-width: 1.2; stroke-linecap: square"/>
   </g>
   <g id="patch_3">
    <path d="M 31.64 103.4 
L 31.64 5 
" style="fill: none; stroke: var(--fg-color); stroke-width: 0.8; stroke-linejoin: miter; stroke-linecap: square"/>
   </g>
   <g id="patch_4">
    <path d="M 31.64 103.4 
L 211 103.4 
" style="fill: none; stroke: var(--fg-color); stroke-width: 0.8; stroke-linejoin: miter; stroke-linecap: square"/>
   </g>
  </g>
 </g>
 <defs>
  <clipPath id="pdf665408f7">
   <rect x="31.64" y="5" width="179.36" height="98.4"/>
  </clipPath>
 </defs>
</svg>
