<?xml version="1.0" encoding="utf-8" standalone="no"?>
<!DOCTYPE svg PUBLIC "-//W3C//DTD SVG 1.1//EN"
  "http://www.w3.org/Graphics/SVG/1.1/DTD/svg11.dtd">
<svg xmlns:xlink="http://www.w3.org/1999/xlink" width="216pt" height="122.4pt" viewBox="0 0 216 122.4" xmlns="http://www.w3.org/2000/svg" version="1.1">
  <style>
    :root {
      --fg-color: #212529;
      --grid-color: rgba(33, 37, 41, 0.1);
    }
    @media (prefers-color-scheme: dark) {
      :root {
        --fg-color: #dee2e6;
        --grid-color: rgba(248, 249, 250, 0.15);
      }
    }
  </style>

 <metadata>
  <rdf:RDF xmlns:dc="http://purl.org/dc/elements/1.1/" xmlns:cc="http://creativecommons.org/ns#" xmlns:rdf="http://www.w3.org/1999/02/22-rdf-syntax-ns#">
   <cc:Work>
    <dc:type rdf:resource="http://purl.org/dc/dcmitype/StillImage"/>
    <dc:date>2026-06-30T15:37:20.701864</dc:date>
    <dc:format>image/svg+xml</dc:format>
    <dc:creator>
     <cc:Agent>
      <dc:title>Matplotlib v3.11.0, https://matplotlib.org/</dc:title>
     </cc:Agent>
    </dc:creator>
   </cc:Work>
  </rdf:RDF>
 </metadata>
 <defs>
  <style type="text/css">*{stroke-linejoin: round; stroke-linecap: butt}</style>
 </defs>
 <g id="figure_1">
  <g id="patch_1">
   <path d="M 0 122.4 
L 216 122.4 
L 216 0 
L 0 0 
L 0 122.4 
z
" style="fill: none; opacity: 0"/>
  </g>
  <g id="axes_1">
   <g id="patch_2">
    <path d="M 35.96 103.4 
L 211 103.4 
L 211 6.388368 
L 35.96 6.388368 
L 35.96 103.4 
z
" style="fill: none; opacity: 0"/>
   </g>
   <g id="matplotlib.axis_1">
    <g id="xtick_1">
     <g id="line2d_1">
      <path d="M 69.784035 103.4 
L 69.784035 6.388368 
" clip-path="url(#p82803398a0)" style="fill: none; stroke-dasharray: 2.96,1.28; stroke-dashoffset: 0; stroke: var(--grid-color); stroke-width: 0.8"/>
     </g>
     <g id="line2d_2">
      <defs>
       <path id="me8e950c831" d="M 0 0 
L 0 3.5 
" style="stroke: var(--fg-color); stroke-width: 0.8"/>
      </defs>
      <g>
       <use xlink:href="#me8e950c831" x="69.784035" y="103.4" style="fill: var(--fg-color); stroke: var(--fg-color); stroke-width: 0.8"/>
      </g>
     </g>
     <g id="text_1">
      <text style="font-size: 7px; font-family: 'DejaVu Sans', 'Bitstream Vera Sans', 'Computer Modern Sans Serif', 'Lucida Grande', 'Verdana', 'Geneva', 'Lucid', 'Arial', 'Helvetica', 'Avant Garde', sans-serif; text-anchor: middle; fill: var(--fg-color)" x="69.784035" y="115.718359" transform="rotate(-0 69.784035 115.718359)">02/2026</text>
     </g>
    </g>
    <g id="xtick_2">
     <g id="line2d_3">
      <path d="M 122.345302 103.4 
L 122.345302 6.388368 
" clip-path="url(#p82803398a0)" style="fill: none; stroke-dasharray: 2.96,1.28; stroke-dashoffset: 0; stroke: var(--grid-color); stroke-width: 0.8"/>
     </g>
     <g id="line2d_4">
      <g>
       <use xlink:href="#me8e950c831" x="122.345302" y="103.4" style="fill: var(--fg-color); stroke: var(--fg-color); stroke-width: 0.8"/>
      </g>
     </g>
     <g id="text_2">
      <text style="font-size: 7px; font-family: 'DejaVu Sans', 'Bitstream Vera Sans', 'Computer Modern Sans Serif', 'Lucida Grande', 'Verdana', 'Geneva', 'Lucid', 'Arial', 'Helvetica', 'Avant Garde', sans-serif; text-anchor: middle; fill: var(--fg-color)" x="122.345302" y="115.718359" transform="rotate(-0 122.345302 115.718359)">04/2026</text>
     </g>
    </g>
    <g id="xtick_3">
     <g id="line2d_5">
      <path d="M 176.688307 103.4 
L 176.688307 6.388368 
" clip-path="url(#p82803398a0)" style="fill: none; stroke-dasharray: 2.96,1.28; stroke-dashoffset: 0; stroke: var(--grid-color); stroke-width: 0.8"/>
     </g>
     <g id="line2d_6">
      <g>
       <use xlink:href="#me8e950c831" x="176.688307" y="103.4" style="fill: var(--fg-color); stroke: var(--fg-color); stroke-width: 0.8"/>
      </g>
     </g>
     <g id="text_3">
      <text style="font-size: 7px; font-family: 'DejaVu Sans', 'Bitstream Vera Sans', 'Computer Modern Sans Serif', 'Lucida Grande', 'Verdana', 'Geneva', 'Lucid', 'Arial', 'Helvetica', 'Avant Garde', sans-serif; text-anchor: middle; fill: var(--fg-color)" x="176.688307" y="115.718359" transform="rotate(-0 176.688307 115.718359)">06/2026</text>
     </g>
    </g>
   </g>
   <g id="matplotlib.axis_2">
    <g id="ytick_1">
     <g id="line2d_7">
      <path d="M 35.96 100.130836 
L 211 100.130836 
" clip-path="url(#p82803398a0)" style="fill: none; stroke-dasharray: 2.96,1.28; stroke-dashoffset: 0; stroke: var(--grid-color); stroke-width: 0.8"/>
     </g>
     <g id="line2d_8">
      <defs>
       <path id="mf931fb56b3" d="M 0 0 
L -3.5 0 
" style="stroke: var(--fg-color); stroke-width: 0.8"/>
      </defs>
      <g>
       <use xlink:href="#mf931fb56b3" x="35.96" y="100.130836" style="fill: var(--fg-color); stroke: var(--fg-color); stroke-width: 0.8"/>
      </g>
     </g>
     <g id="text_4">
      <text style="font-size: 7px; font-family: 'DejaVu Sans', 'Bitstream Vera Sans', 'Computer Modern Sans Serif', 'Lucida Grande', 'Verdana', 'Geneva', 'Lucid', 'Arial', 'Helvetica', 'Avant Garde', sans-serif; text-anchor: end; fill: var(--fg-color)" x="28.96" y="102.790016" transform="rotate(-0 28.96 102.790016)">0</text>
     </g>
    </g>
    <g id="ytick_2">
     <g id="line2d_9">
      <path d="M 35.96 81.643957 
L 211 81.643957 
" clip-path="url(#p82803398a0)" style="fill: none; stroke-dasharray: 2.96,1.28; stroke-dashoffset: 0; stroke: var(--grid-color); stroke-width: 0.8"/>
     </g>
     <g id="line2d_10">
      <g>
       <use xlink:href="#mf931fb56b3" x="35.96" y="81.643957" style="fill: var(--fg-color); stroke: var(--fg-color); stroke-width: 0.8"/>
      </g>
     </g>
     <g id="text_5">
      <text style="font-size: 7px; font-family: 'DejaVu Sans', 'Bitstream Vera Sans', 'Computer Modern Sans Serif', 'Lucida Grande', 'Verdana', 'Geneva', 'Lucid', 'Arial', 'Helvetica', 'Avant Garde', sans-serif; text-anchor: end; fill: var(--fg-color)" x="28.96" y="84.303137" transform="rotate(-0 28.96 84.303137)">100</text>
     </g>
    </g>
    <g id="ytick_3">
     <g id="line2d_11">
      <path d="M 35.96 63.157079 
L 211 63.157079 
" clip-path="url(#p82803398a0)" style="fill: none; stroke-dasharray: 2.96,1.28; stroke-dashoffset: 0; stroke: var(--grid-color); stroke-width: 0.8"/>
     </g>
     <g id="line2d_12">
      <g>
       <use xlink:href="#mf931fb56b3" x="35.96" y="63.157079" style="fill: var(--fg-color); stroke: var(--fg-color); stroke-width: 0.8"/>
      </g>
     </g>
     <g id="text_6">
      <text style="font-size: 7px; font-family: 'DejaVu Sans', 'Bitstream Vera Sans', 'Computer Modern Sans Serif', 'Lucida Grande', 'Verdana', 'Geneva', 'Lucid', 'Arial', 'Helvetica', 'Avant Garde', sans-serif; text-anchor: end; fill: var(--fg-color)" x="28.96" y="65.816259" transform="rotate(-0 28.96 65.816259)">200</text>
     </g>
    </g>
    <g id="ytick_4">
     <g id="line2d_13">
      <path d="M 35.96 44.670201 
L 211 44.670201 
" clip-path="url(#p82803398a0)" style="fill: none; stroke-dasharray: 2.96,1.28; stroke-dashoffset: 0; stroke: var(--grid-color); stroke-width: 0.8"/>
     </g>
     <g id="line2d_14">
      <g>
       <use xlink:href="#mf931fb56b3" x="35.96" y="44.670201" style="fill: var(--fg-color); stroke: var(--fg-color); stroke-width: 0.8"/>
      </g>
     </g>
     <g id="text_7">
      <text style="font-size: 7px; font-family: 'DejaVu Sans', 'Bitstream Vera Sans', 'Computer Modern Sans Serif', 'Lucida Grande', 'Verdana', 'Geneva', 'Lucid', 'Arial', 'Helvetica', 'Avant Garde', sans-serif; text-anchor: end; fill: var(--fg-color)" x="28.96" y="47.32938" transform="rotate(-0 28.96 47.32938)">300</text>
     </g>
    </g>
    <g id="ytick_5">
     <g id="line2d_15">
      <path d="M 35.96 26.183322 
L 211 26.183322 
" clip-path="url(#p82803398a0)" style="fill: none; stroke-dasharray: 2.96,1.28; stroke-dashoffset: 0; stroke: var(--grid-color); stroke-width: 0.8"/>
     </g>
     <g id="line2d_16">
      <g>
       <use xlink:href="#mf931fb56b3" x="35.96" y="26.183322" style="fill: var(--fg-color); stroke: var(--fg-color); stroke-width: 0.8"/>
      </g>
     </g>
     <g id="text_8">
      <text style="font-size: 7px; font-family: 'DejaVu Sans', 'Bitstream Vera Sans', 'Computer Modern Sans Serif', 'Lucida Grande', 'Verdana', 'Geneva', 'Lucid', 'Arial', 'Helvetica', 'Avant Garde', sans-serif; text-anchor: end; fill: var(--fg-color)" x="28.96" y="28.842502" transform="rotate(-0 28.96 28.842502)">400</text>
     </g>
    </g>
    <g id="ytick_6">
     <g id="line2d_17">
      <path d="M 35.96 7.696444 
L 211 7.696444 
" clip-path="url(#p82803398a0)" style="fill: none; stroke-dasharray: 2.96,1.28; stroke-dashoffset: 0; stroke: var(--grid-color); stroke-width: 0.8"/>
     </g>
     <g id="line2d_18">
      <g>
       <use xlink:href="#mf931fb56b3" x="35.96" y="7.696444" style="fill: var(--fg-color); stroke: var(--fg-color); stroke-width: 0.8"/>
      </g>
     </g>
     <g id="text_9">
      <text style="font-size: 7px; font-family: 'DejaVu Sans', 'Bitstream Vera Sans', 'Computer Modern Sans Serif', 'Lucida Grande', 'Verdana', 'Geneva', 'Lucid', 'Arial', 'Helvetica', 'Avant Garde', sans-serif; text-anchor: end; fill: var(--fg-color)" x="28.96" y="10.355623" transform="rotate(-0 28.96 10.355623)">500</text>
     </g>
    </g>
    <g id="text_10">
     <text style="font-size: 7px; font-family: 'DejaVu Sans', 'Bitstream Vera Sans', 'Computer Modern Sans Serif', 'Lucida Grande', 'Verdana', 'Geneva', 'Lucid', 'Arial', 'Helvetica', 'Avant Garde', sans-serif; text-anchor: middle; fill: var(--fg-color)" x="9.917109" y="54.894184" transform="rotate(-90 9.917109 54.894184)">ms</text>
    </g>
   </g>
   <g id="line2d_19">
    <path d="M 43.916364 26.851623 
L 44.468628 42.027686 
L 45.3595 31.108966 
L 46.250371 30.457304 
L 47.141245 31.679841 
L 48.032112 25.856104 
L 48.922979 28.272155 
L 50.704717 46.311466 
L 51.595589 36.439473 
L 52.486458 33.116456 
L 53.377327 35.050553 
L 54.268192 23.997803 
L 55.159063 35.475012 
L 56.049934 28.22945 
L 56.940797 34.721672 
L 57.831669 39.981928 
L 58.722538 34.596146 
L 59.613407 32.198398 
L 60.504275 34.412571 
L 61.395144 24.557586 
L 62.286016 31.826442 
L 63.176879 32.084334 
L 64.067746 37.350321 
L 64.958622 34.442335 
L 65.84949 29.386544 
L 66.740361 29.330713 
L 67.631226 38.075192 
L 68.522078 31.030212 
L 69.412965 36.193967 
L 70.30383 37.431294 
L 72.085571 19.287347 
L 72.976442 36.626929 
L 73.867306 37.126075 
L 74.758184 33.516327 
L 75.649039 28.98242 
L 76.539914 25.947984 
L 77.430784 33.384146 
L 78.321655 16.55702 
L 79.212509 41.314462 
L 80.103391 36.043484 
L 80.994245 13.832793 
L 81.885129 42.469892 
L 82.775998 29.459752 
L 83.666869 31.493863 
L 84.557735 14.563025 
L 85.44861 27.749346 
L 94.53997 15.843981 
L 95.248438 18.975288 
L 96.139324 34.006784 
L 97.030192 13.194072 
L 97.921065 23.811271 
L 98.811931 13.223096 
L 99.702798 22.729973 
L 100.593666 35.005445 
L 101.484533 35.218969 
L 102.375401 24.271779 
L 103.266272 34.797838 
L 104.157138 22.840155 
L 105.048009 15.754319 
L 105.93888 29.416862 
L 106.829748 31.688345 
L 107.720614 37.000734 
L 108.611487 35.731055 
L 109.502352 21.985137 
L 110.393224 10.797987 
L 111.284094 20.530035 
L 112.17496 38.243052 
L 113.065834 38.412022 
L 113.956695 38.133425 
L 114.847564 22.834054 
L 115.738441 28.500467 
L 117.520178 22.912808 
L 118.41104 25.435158 
L 119.301913 37.778477 
L 120.192782 36.095617 
L 121.083649 26.962359 
L 121.97452 29.235506 
L 125.537994 28.129436 
L 126.428869 35.480004 
L 127.319734 37.330355 
L 128.210603 20.483818 
L 129.101474 22.901716 
L 129.992342 27.738069 
L 130.883214 22.80466 
L 131.774065 29.589714 
L 132.664946 27.487202 
L 133.55582 34.705218 
L 134.446686 33.410213 
L 135.337558 34.11179 
L 136.228424 30.959407 
L 137.119294 21.125127 
L 138.010159 30.526814 
L 138.901032 26.21475 
L 139.791912 27.246318 
L 140.68277 26.359687 
L 141.57364 32.13887 
L 142.464507 25.822643 
L 143.355376 32.504171 
L 144.246246 33.445153 
L 145.137113 35.265556 
L 146.027984 33.461421 
L 146.918849 26.513128 
L 173.644977 26.513128 
L 181.959197 20.781826 
L 182.553652 36.770203 
L 183.444521 26.0663 
L 184.335387 35.187541 
L 185.226256 33.016627 
L 186.117131 21.091851 
L 187.007996 15.454832 
L 187.898864 39.285712 
L 188.789731 32.798297 
L 189.680603 24.103548 
L 190.571474 19.649874 
L 191.462343 22.099201 
L 192.353215 20.691055 
L 193.244077 37.289869 
L 194.134949 31.019674 
L 195.025817 39.114894 
L 196.807557 21.228099 
L 197.698426 30.34934 
L 198.589295 28.264945 
L 199.480162 19.689621 
L 200.371032 42.448263 
L 201.261898 35.010067 
L 202.152766 37.752596 
L 203.043636 41.236263 
L 203.043636 41.236263 
" clip-path="url(#p82803398a0)" style="fill: none; stroke: #339af0; stroke-width: 1.2; stroke-linecap: square"/>
   </g>
   <g id="line2d_20">
    <path d="M 43.916364 98.585518 
L 44.468628 98.830839 
L 45.3595 98.351659 
L 46.250371 98.716775 
L 47.141245 98.776672 
L 49.81384 98.718808 
L 50.704717 98.883526 
L 51.595589 98.728236 
L 53.377327 98.825293 
L 54.268192 98.644491 
L 56.049934 98.473302 
L 56.940797 98.827326 
L 60.504275 98.769832 
L 61.395144 98.679986 
L 63.176879 98.821965 
L 64.067746 98.837309 
L 64.958622 98.50547 
L 65.84949 98.736001 
L 67.631226 98.830469 
L 68.522078 98.691263 
L 70.30383 98.847107 
L 71.194705 98.640978 
L 72.085571 98.817713 
L 72.976442 98.84951 
L 73.867306 98.66002 
L 75.649039 98.916803 
L 76.539914 98.614357 
L 77.430784 98.841931 
L 80.994245 98.48421 
L 81.885129 98.940466 
L 82.775998 98.761328 
L 83.666869 98.857275 
L 84.557735 98.689044 
L 85.44861 98.714371 
L 97.030192 98.684792 
L 98.811931 98.311727 
L 99.702798 98.916433 
L 102.375401 98.5051 
L 103.266272 98.834721 
L 104.157138 98.544477 
L 106.829748 98.634323 
L 107.720614 98.99038 
L 108.611487 98.581451 
L 109.502352 98.740438 
L 111.284094 98.569619 
L 112.17496 98.880383 
L 113.065834 98.633768 
L 113.956695 98.868182 
L 117.520178 98.415808 
L 118.41104 98.7238 
L 119.301913 98.706422 
L 121.083649 98.435589 
L 125.537994 98.282888 
L 126.428869 98.841746 
L 128.210603 98.783512 
L 129.101474 98.531721 
L 129.992342 98.743396 
L 130.883214 98.520629 
L 131.774065 98.77316 
L 132.664946 98.497705 
L 134.446686 98.712153 
L 135.337558 98.689784 
L 136.228424 98.338348 
L 137.119294 98.713077 
L 138.010159 98.860233 
L 138.901032 98.484949 
L 139.791912 98.62434 
L 140.68277 98.560745 
L 141.57364 98.788134 
L 142.464507 98.606962 
L 145.137113 98.770202 
L 146.918849 98.686641 
L 173.644977 98.686641 
L 181.959197 98.393809 
L 182.553652 98.846183 
L 183.444521 98.46942 
L 184.335387 98.700691 
L 185.226256 98.741547 
L 186.117131 98.60382 
L 187.007996 98.296938 
L 187.898864 98.662793 
L 188.789731 98.818637 
L 189.680603 98.661684 
L 190.571474 98.639315 
L 191.462343 98.465723 
L 193.244077 98.835091 
L 194.134949 98.431892 
L 195.025817 98.836754 
L 196.807557 98.418211 
L 198.589295 98.535233 
L 200.371032 98.873728 
L 202.152766 98.853023 
L 203.043636 98.673515 
L 203.043636 98.673515 
" clip-path="url(#p82803398a0)" style="fill: none; stroke: #ff6b6b; stroke-width: 1.2; stroke-linecap: square"/>
   </g>
   <g id="patch_3">
    <path d="M 35.96 103.4 
L 35.96 6.388368 
" style="fill: none; stroke: var(--fg-color); stroke-width: 0.8; stroke-linejoin: miter; stroke-linecap: square"/>
   </g>
   <g id="patch_4">
    <path d="M 35.96 103.4 
L 211 103.4 
" style="fill: none; stroke: var(--fg-color); stroke-width: 0.8; stroke-linejoin: miter; stroke-linecap: square"/>
   </g>
  </g>
 </g>
 <defs>
  <clipPath id="p82803398a0">
   <rect x="35.96" y="6.388368" width="175.04" height="97.011632"/>
  </clipPath>
 </defs>
</svg>
