<?xml version="1.0" encoding="utf-8" standalone="no"?>
<!DOCTYPE svg PUBLIC "-//W3C//DTD SVG 1.1//EN"
  "http://www.w3.org/Graphics/SVG/1.1/DTD/svg11.dtd">
<svg xmlns:xlink="http://www.w3.org/1999/xlink" width="216pt" height="122.4pt" viewBox="0 0 216 122.4" xmlns="http://www.w3.org/2000/svg" version="1.1">
  <style>
    :root {
      --fg-color: #212529;
      --grid-color: rgba(33, 37, 41, 0.1);
    }
    @media (prefers-color-scheme: dark) {
      :root {
        --fg-color: #dee2e6;
        --grid-color: rgba(248, 249, 250, 0.15);
      }
    }
  </style>

 <metadata>
  <rdf:RDF xmlns:dc="http://purl.org/dc/elements/1.1/" xmlns:cc="http://creativecommons.org/ns#" xmlns:rdf="http://www.w3.org/1999/02/22-rdf-syntax-ns#">
   <cc:Work>
    <dc:type rdf:resource="http://purl.org/dc/dcmitype/StillImage"/>
    <dc:date>2026-06-30T04:48:47.654183</dc:date>
    <dc:format>image/svg+xml</dc:format>
    <dc:creator>
     <cc:Agent>
      <dc:title>Matplotlib v3.11.0, https://matplotlib.org/</dc:title>
     </cc:Agent>
    </dc:creator>
   </cc:Work>
  </rdf:RDF>
 </metadata>
 <defs>
  <style type="text/css">*{stroke-linejoin: round; stroke-linecap: butt}</style>
 </defs>
 <g id="figure_1">
  <g id="patch_1">
   <path d="M 0 122.4 
L 216 122.4 
L 216 0 
L 0 0 
L 0 122.4 
z
" style="fill: none; opacity: 0"/>
  </g>
  <g id="axes_1">
   <g id="patch_2">
    <path d="M 35.96 103.4 
L 211 103.4 
L 211 5 
L 35.96 5 
L 35.96 103.4 
z
" style="fill: none; opacity: 0"/>
   </g>
   <g id="matplotlib.axis_1">
    <g id="xtick_1">
     <g id="line2d_1">
      <path d="M 70.996911 103.4 
L 70.996911 5 
" clip-path="url(#p5e7d62f018)" style="fill: none; stroke-dasharray: 2.96,1.28; stroke-dashoffset: 0; stroke: var(--grid-color); stroke-width: 0.8"/>
     </g>
     <g id="line2d_2">
      <defs>
       <path id="mfe087b14c5" d="M 0 0 
L 0 3.5 
" style="stroke: var(--fg-color); stroke-width: 0.8"/>
      </defs>
      <g>
       <use xlink:href="#mfe087b14c5" x="70.996911" y="103.4" style="fill: var(--fg-color); stroke: var(--fg-color); stroke-width: 0.8"/>
      </g>
     </g>
     <g id="text_1">
      <text style="font-size: 7px; font-family: 'DejaVu Sans', 'Bitstream Vera Sans', 'Computer Modern Sans Serif', 'Lucida Grande', 'Verdana', 'Geneva', 'Lucid', 'Arial', 'Helvetica', 'Avant Garde', sans-serif; text-anchor: middle; fill: var(--fg-color)" x="70.996911" y="115.718359" transform="rotate(-0 70.996911 115.718359)">02/2026</text>
     </g>
    </g>
    <g id="xtick_2">
     <g id="line2d_3">
      <path d="M 126.022656 103.4 
L 126.022656 5 
" clip-path="url(#p5e7d62f018)" style="fill: none; stroke-dasharray: 2.96,1.28; stroke-dashoffset: 0; stroke: var(--grid-color); stroke-width: 0.8"/>
     </g>
     <g id="line2d_4">
      <g>
       <use xlink:href="#mfe087b14c5" x="126.022656" y="103.4" style="fill: var(--fg-color); stroke: var(--fg-color); stroke-width: 0.8"/>
      </g>
     </g>
     <g id="text_2">
      <text style="font-size: 7px; font-family: 'DejaVu Sans', 'Bitstream Vera Sans', 'Computer Modern Sans Serif', 'Lucida Grande', 'Verdana', 'Geneva', 'Lucid', 'Arial', 'Helvetica', 'Avant Garde', sans-serif; text-anchor: middle; fill: var(--fg-color)" x="126.022656" y="115.718359" transform="rotate(-0 126.022656 115.718359)">04/2026</text>
     </g>
    </g>
    <g id="xtick_3">
     <g id="line2d_5">
      <path d="M 182.913681 103.4 
L 182.913681 5 
" clip-path="url(#p5e7d62f018)" style="fill: none; stroke-dasharray: 2.96,1.28; stroke-dashoffset: 0; stroke: var(--grid-color); stroke-width: 0.8"/>
     </g>
     <g id="line2d_6">
      <g>
       <use xlink:href="#mfe087b14c5" x="182.913681" y="103.4" style="fill: var(--fg-color); stroke: var(--fg-color); stroke-width: 0.8"/>
      </g>
     </g>
     <g id="text_3">
      <text style="font-size: 7px; font-family: 'DejaVu Sans', 'Bitstream Vera Sans', 'Computer Modern Sans Serif', 'Lucida Grande', 'Verdana', 'Geneva', 'Lucid', 'Arial', 'Helvetica', 'Avant Garde', sans-serif; text-anchor: middle; fill: var(--fg-color)" x="182.913681" y="115.718359" transform="rotate(-0 182.913681 115.718359)">06/2026</text>
     </g>
    </g>
   </g>
   <g id="matplotlib.axis_2">
    <g id="ytick_1">
     <g id="line2d_7">
      <path d="M 35.96 101.75434 
L 211 101.75434 
" clip-path="url(#p5e7d62f018)" style="fill: none; stroke-dasharray: 2.96,1.28; stroke-dashoffset: 0; stroke: var(--grid-color); stroke-width: 0.8"/>
     </g>
     <g id="line2d_8">
      <defs>
       <path id="m652d813dc9" d="M 0 0 
L -3.5 0 
" style="stroke: var(--fg-color); stroke-width: 0.8"/>
      </defs>
      <g>
       <use xlink:href="#m652d813dc9" x="35.96" y="101.75434" style="fill: var(--fg-color); stroke: var(--fg-color); stroke-width: 0.8"/>
      </g>
     </g>
     <g id="text_4">
      <text style="font-size: 7px; font-family: 'DejaVu Sans', 'Bitstream Vera Sans', 'Computer Modern Sans Serif', 'Lucida Grande', 'Verdana', 'Geneva', 'Lucid', 'Arial', 'Helvetica', 'Avant Garde', sans-serif; text-anchor: end; fill: var(--fg-color)" x="28.96" y="104.41352" transform="rotate(-0 28.96 104.41352)">0</text>
     </g>
    </g>
    <g id="ytick_2">
     <g id="line2d_9">
      <path d="M 35.96 84.823767 
L 211 84.823767 
" clip-path="url(#p5e7d62f018)" style="fill: none; stroke-dasharray: 2.96,1.28; stroke-dashoffset: 0; stroke: var(--grid-color); stroke-width: 0.8"/>
     </g>
     <g id="line2d_10">
      <g>
       <use xlink:href="#m652d813dc9" x="35.96" y="84.823767" style="fill: var(--fg-color); stroke: var(--fg-color); stroke-width: 0.8"/>
      </g>
     </g>
     <g id="text_5">
      <text style="font-size: 7px; font-family: 'DejaVu Sans', 'Bitstream Vera Sans', 'Computer Modern Sans Serif', 'Lucida Grande', 'Verdana', 'Geneva', 'Lucid', 'Arial', 'Helvetica', 'Avant Garde', sans-serif; text-anchor: end; fill: var(--fg-color)" x="28.96" y="87.482946" transform="rotate(-0 28.96 87.482946)">100</text>
     </g>
    </g>
    <g id="ytick_3">
     <g id="line2d_11">
      <path d="M 35.96 67.893194 
L 211 67.893194 
" clip-path="url(#p5e7d62f018)" style="fill: none; stroke-dasharray: 2.96,1.28; stroke-dashoffset: 0; stroke: var(--grid-color); stroke-width: 0.8"/>
     </g>
     <g id="line2d_12">
      <g>
       <use xlink:href="#m652d813dc9" x="35.96" y="67.893194" style="fill: var(--fg-color); stroke: var(--fg-color); stroke-width: 0.8"/>
      </g>
     </g>
     <g id="text_6">
      <text style="font-size: 7px; font-family: 'DejaVu Sans', 'Bitstream Vera Sans', 'Computer Modern Sans Serif', 'Lucida Grande', 'Verdana', 'Geneva', 'Lucid', 'Arial', 'Helvetica', 'Avant Garde', sans-serif; text-anchor: end; fill: var(--fg-color)" x="28.96" y="70.552373" transform="rotate(-0 28.96 70.552373)">200</text>
     </g>
    </g>
    <g id="ytick_4">
     <g id="line2d_13">
      <path d="M 35.96 50.96262 
L 211 50.96262 
" clip-path="url(#p5e7d62f018)" style="fill: none; stroke-dasharray: 2.96,1.28; stroke-dashoffset: 0; stroke: var(--grid-color); stroke-width: 0.8"/>
     </g>
     <g id="line2d_14">
      <g>
       <use xlink:href="#m652d813dc9" x="35.96" y="50.96262" style="fill: var(--fg-color); stroke: var(--fg-color); stroke-width: 0.8"/>
      </g>
     </g>
     <g id="text_7">
      <text style="font-size: 7px; font-family: 'DejaVu Sans', 'Bitstream Vera Sans', 'Computer Modern Sans Serif', 'Lucida Grande', 'Verdana', 'Geneva', 'Lucid', 'Arial', 'Helvetica', 'Avant Garde', sans-serif; text-anchor: end; fill: var(--fg-color)" x="28.96" y="53.6218" transform="rotate(-0 28.96 53.6218)">300</text>
     </g>
    </g>
    <g id="ytick_5">
     <g id="line2d_15">
      <path d="M 35.96 34.032047 
L 211 34.032047 
" clip-path="url(#p5e7d62f018)" style="fill: none; stroke-dasharray: 2.96,1.28; stroke-dashoffset: 0; stroke: var(--grid-color); stroke-width: 0.8"/>
     </g>
     <g id="line2d_16">
      <g>
       <use xlink:href="#m652d813dc9" x="35.96" y="34.032047" style="fill: var(--fg-color); stroke: var(--fg-color); stroke-width: 0.8"/>
      </g>
     </g>
     <g id="text_8">
      <text style="font-size: 7px; font-family: 'DejaVu Sans', 'Bitstream Vera Sans', 'Computer Modern Sans Serif', 'Lucida Grande', 'Verdana', 'Geneva', 'Lucid', 'Arial', 'Helvetica', 'Avant Garde', sans-serif; text-anchor: end; fill: var(--fg-color)" x="28.96" y="36.691227" transform="rotate(-0 28.96 36.691227)">400</text>
     </g>
    </g>
    <g id="ytick_6">
     <g id="line2d_17">
      <path d="M 35.96 17.101474 
L 211 17.101474 
" clip-path="url(#p5e7d62f018)" style="fill: none; stroke-dasharray: 2.96,1.28; stroke-dashoffset: 0; stroke: var(--grid-color); stroke-width: 0.8"/>
     </g>
     <g id="line2d_18">
      <g>
       <use xlink:href="#m652d813dc9" x="35.96" y="17.101474" style="fill: var(--fg-color); stroke: var(--fg-color); stroke-width: 0.8"/>
      </g>
     </g>
     <g id="text_9">
      <text style="font-size: 7px; font-family: 'DejaVu Sans', 'Bitstream Vera Sans', 'Computer Modern Sans Serif', 'Lucida Grande', 'Verdana', 'Geneva', 'Lucid', 'Arial', 'Helvetica', 'Avant Garde', sans-serif; text-anchor: end; fill: var(--fg-color)" x="28.96" y="19.760654" transform="rotate(-0 28.96 19.760654)">500</text>
     </g>
    </g>
    <g id="text_10">
     <text style="font-size: 7px; font-family: 'DejaVu Sans', 'Bitstream Vera Sans', 'Computer Modern Sans Serif', 'Lucida Grande', 'Verdana', 'Geneva', 'Lucid', 'Arial', 'Helvetica', 'Avant Garde', sans-serif; text-anchor: middle; fill: var(--fg-color)" x="9.917109" y="54.2" transform="rotate(-90 9.917109 54.2)">ms</text>
    </g>
   </g>
   <g id="line2d_19">
    <path d="M 43.916364 55.929543 
L 44.494523 54.836844 
L 45.427166 52.362948 
L 46.359808 53.622752 
L 47.292453 49.087221 
L 48.22509 53.324774 
L 49.157727 55.13516 
L 50.090359 50.324676 
L 51.023007 50.097468 
L 51.95565 49.021192 
L 52.88829 45.606972 
L 53.82093 51.31156 
L 54.753566 38.121289 
L 55.686208 56.31539 
L 56.618849 52.22361 
L 57.551483 45.634061 
L 58.484126 51.39198 
L 59.416765 51.40654 
L 60.349406 50.096622 
L 61.282045 49.549426 
L 62.214684 53.532004 
L 63.147327 49.399421 
L 64.07996 50.830731 
L 65.012598 55.221675 
L 65.945245 45.329819 
L 66.877884 49.188296 
L 67.810526 51.422286 
L 68.743162 53.949681 
L 69.675784 49.534527 
L 70.608443 49.257204 
L 71.541078 52.434564 
L 72.473724 44.69306 
L 73.406361 49.725842 
L 74.339003 52.469441 
L 75.271637 50.240193 
L 76.204286 53.888393 
L 77.136912 49.972013 
L 78.069558 49.985557 
L 79.002199 51.173745 
L 79.934841 50.437265 
L 80.867465 52.182807 
L 81.800118 44.404055 
L 82.732742 53.258237 
L 83.665398 49.923253 
L 84.598038 51.557899 
L 85.53068 49.639327 
L 86.463316 37.937084 
L 87.395962 50.510574 
L 96.913595 52.404597 
L 97.655282 53.397575 
L 98.587939 51.149365 
L 99.520578 52.153517 
L 100.453222 47.704162 
L 101.385859 54.382596 
L 102.318497 51.003254 
L 103.251135 47.221133 
L 104.183773 52.707824 
L 105.116412 47.578368 
L 106.049054 52.437104 
L 106.981691 48.523771 
L 107.914333 54.138965 
L 108.846974 50.482131 
L 109.779613 51.393165 
L 110.71225 46.866776 
L 111.644893 52.161305 
L 112.57753 46.197849 
L 113.510173 53.051345 
L 114.442814 45.297651 
L 115.37545 49.414827 
L 116.308095 50.059882 
L 117.240726 49.671326 
L 118.173367 50.871534 
L 119.106014 47.823354 
L 120.038653 47.611721 
L 120.971293 52.76725 
L 121.903926 49.210983 
L 122.836569 52.133878 
L 123.769209 45.362833 
L 124.701847 48.395099 
L 125.634489 49.520305 
L 129.365046 52.117963 
L 130.297692 50.230373 
L 131.230328 53.393174 
L 132.162968 46.937715 
L 133.095609 44.363083 
L 134.028248 51.870438 
L 134.960891 53.758197 
L 135.893512 45.074336 
L 136.826165 49.596154 
L 137.75881 50.600983 
L 138.691446 47.376217 
L 139.624089 49.288017 
L 140.556726 47.909361 
L 141.489366 43.903418 
L 142.422003 49.574483 
L 143.354646 48.330424 
L 144.287298 50.554594 
L 145.219926 46.426412 
L 146.152567 46.615357 
L 147.085204 45.601385 
L 148.017844 38.852351 
L 148.950485 49.821161 
L 149.883123 48.76791 
L 150.815765 49.204719 
L 151.7484 48.211064 
L 179.727656 48.211064 
L 188.43171 9.472727 
L 189.054038 52.116608 
L 189.986678 49.242644 
L 190.919315 50.623332 
L 191.851955 46.470262 
L 192.7846 46.313316 
L 193.717237 53.248586 
L 194.649875 51.86248 
L 195.582513 49.611899 
L 196.515156 44.363083 
L 197.447798 48.72152 
L 198.380437 56.558175 
L 199.313081 45.272255 
L 200.245713 51.247562 
L 201.178356 45.297143 
L 202.110995 52.033987 
L 203.043636 48.885408 
" clip-path="url(#p5e7d62f018)" style="fill: none; stroke: #339af0; stroke-width: 1.2; stroke-linecap: square"/>
   </g>
   <g id="line2d_20">
    <path d="M 43.916364 97.990335 
L 44.494523 98.409028 
L 45.427166 97.706409 
L 46.359808 97.410632 
L 47.292453 97.329365 
L 48.22509 98.643347 
L 49.157727 97.030202 
L 50.090359 96.851246 
L 51.023007 98.284927 
L 51.95565 97.077946 
L 52.88829 98.508241 
L 53.82093 97.49884 
L 54.753566 96.761345 
L 55.686208 97.668315 
L 56.618849 96.710553 
L 57.551483 97.463625 
L 58.484126 96.343837 
L 59.416765 98.022334 
L 60.349406 97.738239 
L 61.282045 97.231676 
L 62.214684 98.48657 
L 63.147327 98.17437 
L 64.07996 96.674491 
L 65.012598 98.277139 
L 65.945245 98.470317 
L 66.877884 95.433141 
L 67.810526 97.521866 
L 68.743162 98.648257 
L 69.675784 96.67212 
L 70.608443 97.355608 
L 71.541078 96.950798 
L 72.473724 96.724436 
L 73.406361 98.243108 
L 74.339003 95.567062 
L 75.271637 96.308452 
L 76.204286 98.006927 
L 77.136912 98.875127 
L 78.069558 95.968486 
L 79.002199 96.20145 
L 79.934841 98.284419 
L 80.867465 97.603641 
L 81.800118 97.599408 
L 82.732742 97.872159 
L 83.665398 98.826536 
L 84.598038 96.400723 
L 85.53068 98.363654 
L 86.463316 96.931327 
L 87.395962 96.690913 
L 96.913595 97.927353 
L 97.655282 98.586291 
L 98.587939 98.661801 
L 99.520578 97.164123 
L 100.453222 97.47463 
L 101.385859 96.505354 
L 102.318497 95.073028 
L 103.251135 96.518729 
L 104.183773 96.72833 
L 105.116412 95.758716 
L 106.049054 96.577478 
L 106.981691 95.89433 
L 107.914333 97.242342 
L 108.846974 96.788095 
L 109.779613 96.419686 
L 110.71225 97.785475 
L 111.644893 97.271971 
L 112.57753 96.407326 
L 113.510173 96.459303 
L 114.442814 95.067779 
L 115.37545 98.927273 
L 116.308095 97.41842 
L 117.240726 97.60855 
L 118.173367 96.104608 
L 119.106014 95.343409 
L 120.038653 96.940978 
L 120.971293 95.88705 
L 121.903926 96.192139 
L 122.836569 97.283991 
L 123.769209 97.110453 
L 124.701847 96.707336 
L 125.634489 95.542851 
L 129.365046 95.594659 
L 130.297692 98.743407 
L 131.230328 97.34528 
L 132.162968 95.340192 
L 133.095609 95.772768 
L 134.028248 96.600843 
L 134.960891 98.41343 
L 135.893512 96.353487 
L 136.826165 96.48944 
L 137.75881 96.286103 
L 138.691446 96.228201 
L 139.624089 98.041973 
L 140.556726 97.516109 
L 141.489366 97.905513 
L 142.422003 95.13093 
L 143.354646 97.302276 
L 144.287298 97.41351 
L 145.219926 96.364153 
L 146.152567 98.267658 
L 147.085204 97.196122 
L 148.017844 97.077946 
L 148.950485 96.271035 
L 149.883123 96.210932 
L 150.815765 94.485875 
L 151.7484 95.268068 
L 179.727656 95.268068 
L 188.43171 97.556574 
L 189.054038 96.84295 
L 189.986678 98.156085 
L 190.919315 97.675934 
L 191.851955 97.558097 
L 192.7846 94.805017 
L 193.717237 96.363984 
L 194.649875 98.044851 
L 195.582513 96.842103 
L 196.515156 95.008522 
L 197.447798 95.245212 
L 198.380437 98.00117 
L 199.313081 98.033846 
L 200.245713 97.677458 
L 201.178356 97.767528 
L 202.110995 96.688882 
L 203.043636 97.69168 
" clip-path="url(#p5e7d62f018)" style="fill: none; stroke: #ff6b6b; stroke-width: 1.2; stroke-linecap: square"/>
   </g>
   <g id="patch_3">
    <path d="M 35.96 103.4 
L 35.96 5 
" style="fill: none; stroke: var(--fg-color); stroke-width: 0.8; stroke-linejoin: miter; stroke-linecap: square"/>
   </g>
   <g id="patch_4">
    <path d="M 35.96 103.4 
L 211 103.4 
" style="fill: none; stroke: var(--fg-color); stroke-width: 0.8; stroke-linejoin: miter; stroke-linecap: square"/>
   </g>
  </g>
 </g>
 <defs>
  <clipPath id="p5e7d62f018">
   <rect x="35.96" y="5" width="175.04" height="98.4"/>
  </clipPath>
 </defs>
</svg>
