<?xml version="1.0" encoding="utf-8" standalone="no"?>
<!DOCTYPE svg PUBLIC "-//W3C//DTD SVG 1.1//EN"
  "http://www.w3.org/Graphics/SVG/1.1/DTD/svg11.dtd">
<svg xmlns:xlink="http://www.w3.org/1999/xlink" width="216pt" height="122.4pt" viewBox="0 0 216 122.4" xmlns="http://www.w3.org/2000/svg" version="1.1">
  <style>
    :root {
      --fg-color: #212529;
      --grid-color: rgba(33, 37, 41, 0.1);
    }
    @media (prefers-color-scheme: dark) {
      :root {
        --fg-color: #dee2e6;
        --grid-color: rgba(248, 249, 250, 0.15);
      }
    }
  </style>

 <metadata>
  <rdf:RDF xmlns:dc="http://purl.org/dc/elements/1.1/" xmlns:cc="http://creativecommons.org/ns#" xmlns:rdf="http://www.w3.org/1999/02/22-rdf-syntax-ns#">
   <cc:Work>
    <dc:type rdf:resource="http://purl.org/dc/dcmitype/StillImage"/>
    <dc:date>2026-06-30T15:37:55.638612</dc:date>
    <dc:format>image/svg+xml</dc:format>
    <dc:creator>
     <cc:Agent>
      <dc:title>Matplotlib v3.11.0, https://matplotlib.org/</dc:title>
     </cc:Agent>
    </dc:creator>
   </cc:Work>
  </rdf:RDF>
 </metadata>
 <defs>
  <style type="text/css">*{stroke-linejoin: round; stroke-linecap: butt}</style>
 </defs>
 <g id="figure_1">
  <g id="patch_1">
   <path d="M 0 122.4 
L 216 122.4 
L 216 0 
L 0 0 
L 0 122.4 
z
" style="fill: none; opacity: 0"/>
  </g>
  <g id="axes_1">
   <g id="patch_2">
    <path d="M 35.96 103.4 
L 211 103.4 
L 211 5 
L 35.96 5 
L 35.96 103.4 
z
" style="fill: none; opacity: 0"/>
   </g>
   <g id="matplotlib.axis_1">
    <g id="xtick_1">
     <g id="line2d_1">
      <path d="M 69.784035 103.4 
L 69.784035 5 
" clip-path="url(#pa7d785eecf)" style="fill: none; stroke-dasharray: 2.96,1.28; stroke-dashoffset: 0; stroke: var(--grid-color); stroke-width: 0.8"/>
     </g>
     <g id="line2d_2">
      <defs>
       <path id="m39124f065c" d="M 0 0 
L 0 3.5 
" style="stroke: var(--fg-color); stroke-width: 0.8"/>
      </defs>
      <g>
       <use xlink:href="#m39124f065c" x="69.784035" y="103.4" style="fill: var(--fg-color); stroke: var(--fg-color); stroke-width: 0.8"/>
      </g>
     </g>
     <g id="text_1">
      <text style="font-size: 7px; font-family: 'DejaVu Sans', 'Bitstream Vera Sans', 'Computer Modern Sans Serif', 'Lucida Grande', 'Verdana', 'Geneva', 'Lucid', 'Arial', 'Helvetica', 'Avant Garde', sans-serif; text-anchor: middle; fill: var(--fg-color)" x="69.784035" y="115.718359" transform="rotate(-0 69.784035 115.718359)">02/2026</text>
     </g>
    </g>
    <g id="xtick_2">
     <g id="line2d_3">
      <path d="M 122.345302 103.4 
L 122.345302 5 
" clip-path="url(#pa7d785eecf)" style="fill: none; stroke-dasharray: 2.96,1.28; stroke-dashoffset: 0; stroke: var(--grid-color); stroke-width: 0.8"/>
     </g>
     <g id="line2d_4">
      <g>
       <use xlink:href="#m39124f065c" x="122.345302" y="103.4" style="fill: var(--fg-color); stroke: var(--fg-color); stroke-width: 0.8"/>
      </g>
     </g>
     <g id="text_2">
      <text style="font-size: 7px; font-family: 'DejaVu Sans', 'Bitstream Vera Sans', 'Computer Modern Sans Serif', 'Lucida Grande', 'Verdana', 'Geneva', 'Lucid', 'Arial', 'Helvetica', 'Avant Garde', sans-serif; text-anchor: middle; fill: var(--fg-color)" x="122.345302" y="115.718359" transform="rotate(-0 122.345302 115.718359)">04/2026</text>
     </g>
    </g>
    <g id="xtick_3">
     <g id="line2d_5">
      <path d="M 176.688307 103.4 
L 176.688307 5 
" clip-path="url(#pa7d785eecf)" style="fill: none; stroke-dasharray: 2.96,1.28; stroke-dashoffset: 0; stroke: var(--grid-color); stroke-width: 0.8"/>
     </g>
     <g id="line2d_6">
      <g>
       <use xlink:href="#m39124f065c" x="176.688307" y="103.4" style="fill: var(--fg-color); stroke: var(--fg-color); stroke-width: 0.8"/>
      </g>
     </g>
     <g id="text_3">
      <text style="font-size: 7px; font-family: 'DejaVu Sans', 'Bitstream Vera Sans', 'Computer Modern Sans Serif', 'Lucida Grande', 'Verdana', 'Geneva', 'Lucid', 'Arial', 'Helvetica', 'Avant Garde', sans-serif; text-anchor: middle; fill: var(--fg-color)" x="176.688307" y="115.718359" transform="rotate(-0 176.688307 115.718359)">06/2026</text>
     </g>
    </g>
   </g>
   <g id="matplotlib.axis_2">
    <g id="ytick_1">
     <g id="line2d_7">
      <path d="M 35.96 101.043616 
L 211 101.043616 
" clip-path="url(#pa7d785eecf)" style="fill: none; stroke-dasharray: 2.96,1.28; stroke-dashoffset: 0; stroke: var(--grid-color); stroke-width: 0.8"/>
     </g>
     <g id="line2d_8">
      <defs>
       <path id="mcd3240bc38" d="M 0 0 
L -3.5 0 
" style="stroke: var(--fg-color); stroke-width: 0.8"/>
      </defs>
      <g>
       <use xlink:href="#mcd3240bc38" x="35.96" y="101.043616" style="fill: var(--fg-color); stroke: var(--fg-color); stroke-width: 0.8"/>
      </g>
     </g>
     <g id="text_4">
      <text style="font-size: 7px; font-family: 'DejaVu Sans', 'Bitstream Vera Sans', 'Computer Modern Sans Serif', 'Lucida Grande', 'Verdana', 'Geneva', 'Lucid', 'Arial', 'Helvetica', 'Avant Garde', sans-serif; text-anchor: end; fill: var(--fg-color)" x="28.96" y="103.702796" transform="rotate(-0 28.96 103.702796)">0</text>
     </g>
    </g>
    <g id="ytick_2">
     <g id="line2d_9">
      <path d="M 35.96 73.112463 
L 211 73.112463 
" clip-path="url(#pa7d785eecf)" style="fill: none; stroke-dasharray: 2.96,1.28; stroke-dashoffset: 0; stroke: var(--grid-color); stroke-width: 0.8"/>
     </g>
     <g id="line2d_10">
      <g>
       <use xlink:href="#mcd3240bc38" x="35.96" y="73.112463" style="fill: var(--fg-color); stroke: var(--fg-color); stroke-width: 0.8"/>
      </g>
     </g>
     <g id="text_5">
      <text style="font-size: 7px; font-family: 'DejaVu Sans', 'Bitstream Vera Sans', 'Computer Modern Sans Serif', 'Lucida Grande', 'Verdana', 'Geneva', 'Lucid', 'Arial', 'Helvetica', 'Avant Garde', sans-serif; text-anchor: end; fill: var(--fg-color)" x="28.96" y="75.771643" transform="rotate(-0 28.96 75.771643)">100</text>
     </g>
    </g>
    <g id="ytick_3">
     <g id="line2d_11">
      <path d="M 35.96 45.18131 
L 211 45.18131 
" clip-path="url(#pa7d785eecf)" style="fill: none; stroke-dasharray: 2.96,1.28; stroke-dashoffset: 0; stroke: var(--grid-color); stroke-width: 0.8"/>
     </g>
     <g id="line2d_12">
      <g>
       <use xlink:href="#mcd3240bc38" x="35.96" y="45.18131" style="fill: var(--fg-color); stroke: var(--fg-color); stroke-width: 0.8"/>
      </g>
     </g>
     <g id="text_6">
      <text style="font-size: 7px; font-family: 'DejaVu Sans', 'Bitstream Vera Sans', 'Computer Modern Sans Serif', 'Lucida Grande', 'Verdana', 'Geneva', 'Lucid', 'Arial', 'Helvetica', 'Avant Garde', sans-serif; text-anchor: end; fill: var(--fg-color)" x="28.96" y="47.84049" transform="rotate(-0 28.96 47.84049)">200</text>
     </g>
    </g>
    <g id="ytick_4">
     <g id="line2d_13">
      <path d="M 35.96 17.250157 
L 211 17.250157 
" clip-path="url(#pa7d785eecf)" style="fill: none; stroke-dasharray: 2.96,1.28; stroke-dashoffset: 0; stroke: var(--grid-color); stroke-width: 0.8"/>
     </g>
     <g id="line2d_14">
      <g>
       <use xlink:href="#mcd3240bc38" x="35.96" y="17.250157" style="fill: var(--fg-color); stroke: var(--fg-color); stroke-width: 0.8"/>
      </g>
     </g>
     <g id="text_7">
      <text style="font-size: 7px; font-family: 'DejaVu Sans', 'Bitstream Vera Sans', 'Computer Modern Sans Serif', 'Lucida Grande', 'Verdana', 'Geneva', 'Lucid', 'Arial', 'Helvetica', 'Avant Garde', sans-serif; text-anchor: end; fill: var(--fg-color)" x="28.96" y="19.909337" transform="rotate(-0 28.96 19.909337)">300</text>
     </g>
    </g>
    <g id="text_8">
     <text style="font-size: 7px; font-family: 'DejaVu Sans', 'Bitstream Vera Sans', 'Computer Modern Sans Serif', 'Lucida Grande', 'Verdana', 'Geneva', 'Lucid', 'Arial', 'Helvetica', 'Avant Garde', sans-serif; text-anchor: middle; fill: var(--fg-color)" x="9.917109" y="54.2" transform="rotate(-90 9.917109 54.2)">ms</text>
    </g>
   </g>
   <g id="line2d_15">
    <path d="M 43.916364 29.270049 
L 44.468628 38.21137 
L 45.3595 39.005732 
L 46.250371 34.208556 
L 47.141245 36.220437 
L 48.032112 25.266118 
L 48.922979 35.687232 
L 49.81384 31.307348 
L 50.704717 34.521385 
L 51.595589 38.169753 
L 52.486458 30.317188 
L 53.377327 28.346366 
L 54.268192 29.212511 
L 55.159063 32.232707 
L 56.049934 27.04254 
L 56.940797 29.198546 
L 57.831669 30.811849 
L 58.722538 38.161653 
L 59.613407 33.996 
L 60.504275 37.341873 
L 61.395144 31.61878 
L 62.286016 26.924112 
L 63.176879 32.970089 
L 64.067746 28.586574 
L 64.958622 41.552774 
L 65.84949 35.600924 
L 66.740361 34.963256 
L 67.631226 35.624387 
L 68.522078 27.880195 
L 69.412965 31.742515 
L 70.30383 31.769329 
L 71.194705 26.495927 
L 72.085571 26.148464 
L 72.976442 26.216057 
L 73.867306 32.443308 
L 74.758184 34.680314 
L 75.649039 34.423347 
L 76.539914 31.517948 
L 77.430784 27.894999 
L 78.321655 25.117245 
L 79.212509 32.824289 
L 80.103391 28.465632 
L 80.994245 30.551251 
L 81.885129 21.920804 
L 82.775998 36.443328 
L 83.666869 29.338201 
L 84.557735 29.404957 
L 85.44861 36.941899 
L 94.53997 30.142898 
L 95.248438 37.986245 
L 96.139324 24.88821 
L 97.030192 24.71783 
L 97.921065 29.032914 
L 98.811931 30.742859 
L 99.702798 26.415485 
L 100.593666 35.146485 
L 102.375401 27.617922 
L 103.266272 31.528283 
L 104.157138 38.610227 
L 105.048009 38.120035 
L 105.93888 32.589667 
L 106.829748 28.035492 
L 107.720614 36.787161 
L 108.611487 30.762131 
L 109.502352 26.023053 
L 110.393224 27.992478 
L 111.284094 24.311711 
L 112.17496 31.129705 
L 113.065834 29.433447 
L 113.956695 31.626042 
L 114.847564 35.988888 
L 115.738441 26.6205 
L 116.629309 33.565581 
L 117.520178 35.065764 
L 118.41104 26.147905 
L 119.301913 32.006464 
L 120.192782 32.23131 
L 121.083649 30.883632 
L 121.97452 26.654017 
L 125.537994 34.209394 
L 126.428869 25.313043 
L 127.319734 30.197922 
L 128.210603 31.4727 
L 129.101474 26.694238 
L 129.992342 34.947335 
L 130.883214 30.537844 
L 131.774065 31.122723 
L 132.664946 37.914741 
L 133.55582 26.835011 
L 134.446686 34.464685 
L 135.337558 27.627139 
L 136.228424 31.037812 
L 137.119294 32.801944 
L 138.010159 31.044515 
L 138.901032 27.496142 
L 139.791912 26.244826 
L 140.68277 27.501728 
L 141.57364 21.653782 
L 142.464507 25.788152 
L 143.355376 30.472206 
L 144.246246 27.118792 
L 145.137113 33.327887 
L 146.027984 27.479383 
L 146.918849 32.843561 
L 173.644977 32.843561 
L 181.959197 23.445845 
L 182.553652 11.437684 
L 183.444521 32.824568 
L 184.335387 31.470745 
L 185.226256 24.049996 
L 186.117131 25.47644 
L 187.007996 27.207334 
L 187.898864 27.533849 
L 188.789731 27.057343 
L 189.680603 28.854154 
L 190.571474 23.867326 
L 191.462343 26.170529 
L 192.353215 32.753902 
L 193.244077 33.716689 
L 194.134949 35.580255 
L 195.025817 26.904281 
L 195.916688 27.90254 
L 196.807557 27.143651 
L 197.698426 29.158604 
L 198.589295 26.248457 
L 199.480162 28.343573 
L 200.371032 31.147861 
L 201.261898 31.653135 
L 202.152766 9.472727 
L 203.043636 21.400447 
L 203.043636 21.400447 
" clip-path="url(#pa7d785eecf)" style="fill: none; stroke: #339af0; stroke-width: 1.2; stroke-linecap: square"/>
   </g>
   <g id="line2d_16">
    <path d="M 43.916364 97.673164 
L 44.468628 97.034658 
L 45.3595 97.341342 
L 46.250371 95.845629 
L 47.141245 98.144363 
L 48.032112 95.555983 
L 48.922979 96.330513 
L 49.81384 97.321231 
L 50.704717 97.206714 
L 51.595589 96.825733 
L 52.486458 97.315645 
L 53.377327 96.647532 
L 54.268192 96.982706 
L 55.159063 96.831598 
L 56.049934 98.235139 
L 56.940797 97.790754 
L 57.831669 96.042264 
L 58.722538 97.522894 
L 59.613407 97.421504 
L 60.504275 97.966441 
L 61.395144 95.941432 
L 62.286016 96.029974 
L 63.176879 96.936619 
L 64.067746 98.334294 
L 64.958622 96.776295 
L 65.84949 98.205252 
L 66.740361 96.083323 
L 67.631226 95.728038 
L 68.522078 95.5814 
L 69.412965 97.733775 
L 70.30383 97.271793 
L 71.194705 97.624005 
L 72.085571 96.961757 
L 72.976442 95.510175 
L 73.867306 96.138068 
L 74.758184 93.734592 
L 75.649039 94.551858 
L 76.539914 96.440283 
L 77.430784 96.159016 
L 78.321655 97.159231 
L 79.212509 96.236944 
L 80.103391 98.1209 
L 80.994245 97.482115 
L 81.885129 96.325486 
L 82.775998 97.331845 
L 83.666869 96.602842 
L 84.557735 97.213976 
L 85.44861 96.931871 
L 94.53997 97.480718 
L 95.248438 95.807363 
L 96.139324 96.625746 
L 97.030192 95.468558 
L 98.811931 96.805622 
L 99.702798 97.03773 
L 100.593666 96.019919 
L 101.484533 97.004771 
L 102.375401 98.281504 
L 103.266272 98.210839 
L 104.157138 96.232475 
L 105.048009 97.486305 
L 105.93888 97.27319 
L 106.829748 97.36229 
L 107.720614 96.654794 
L 109.502352 96.702277 
L 110.393224 97.231014 
L 111.284094 97.069292 
L 112.17496 97.741595 
L 113.065834 98.102186 
L 113.956695 96.901706 
L 114.847564 97.816451 
L 115.738441 96.922095 
L 116.629309 96.468493 
L 118.41104 97.801368 
L 119.301913 97.989345 
L 120.192782 97.267324 
L 121.083649 97.196379 
L 121.97452 96.659822 
L 125.537994 97.194424 
L 126.428869 96.864557 
L 127.319734 97.103927 
L 128.210603 96.776015 
L 129.101474 97.1313 
L 129.992342 97.962531 
L 130.883214 97.474853 
L 131.774065 97.47206 
L 132.664946 96.984102 
L 133.55582 97.441615 
L 134.446686 96.794171 
L 135.337558 97.491053 
L 136.228424 97.506974 
L 137.119294 97.217886 
L 138.010159 95.274716 
L 138.901032 98.211956 
L 139.791912 97.080186 
L 140.68277 98.182907 
L 141.57364 97.075717 
L 142.464507 97.44357 
L 143.355376 97.492729 
L 144.246246 96.076061 
L 145.137113 97.772599 
L 146.027984 95.968246 
L 146.918849 97.677074 
L 181.959197 97.69104 
L 182.553652 98.046324 
L 183.444521 98.173132 
L 184.335387 98.07621 
L 185.226256 97.282128 
L 186.117131 98.101628 
L 187.007996 97.987948 
L 187.898864 97.056444 
L 188.789731 98.056659 
L 189.680603 98.248266 
L 190.571474 97.773716 
L 191.462343 98.098555 
L 192.353215 97.466473 
L 193.244077 98.927273 
L 194.134949 97.944096 
L 195.025817 98.357198 
L 195.916688 97.496918 
L 196.807557 97.751371 
L 197.698426 97.455301 
L 198.589295 97.739081 
L 199.480162 97.68294 
L 200.371032 96.618763 
L 201.261898 98.710806 
L 202.152766 98.10889 
L 203.043636 96.448383 
L 203.043636 96.448383 
" clip-path="url(#pa7d785eecf)" style="fill: none; stroke: #ff6b6b; stroke-width: 1.2; stroke-linecap: square"/>
   </g>
   <g id="patch_3">
    <path d="M 35.96 103.4 
L 35.96 5 
" style="fill: none; stroke: var(--fg-color); stroke-width: 0.8; stroke-linejoin: miter; stroke-linecap: square"/>
   </g>
   <g id="patch_4">
    <path d="M 35.96 103.4 
L 211 103.4 
" style="fill: none; stroke: var(--fg-color); stroke-width: 0.8; stroke-linejoin: miter; stroke-linecap: square"/>
   </g>
  </g>
 </g>
 <defs>
  <clipPath id="pa7d785eecf">
   <rect x="35.96" y="5" width="175.04" height="98.4"/>
  </clipPath>
 </defs>
</svg>
