<?xml version="1.0" encoding="utf-8" standalone="no"?>
<!DOCTYPE svg PUBLIC "-//W3C//DTD SVG 1.1//EN"
  "http://www.w3.org/Graphics/SVG/1.1/DTD/svg11.dtd">
<svg xmlns:xlink="http://www.w3.org/1999/xlink" width="216pt" height="122.4pt" viewBox="0 0 216 122.4" xmlns="http://www.w3.org/2000/svg" version="1.1">
  <style>
    :root {
      --fg-color: #212529;
      --grid-color: rgba(33, 37, 41, 0.1);
    }
    @media (prefers-color-scheme: dark) {
      :root {
        --fg-color: #dee2e6;
        --grid-color: rgba(248, 249, 250, 0.15);
      }
    }
  </style>

 <metadata>
  <rdf:RDF xmlns:dc="http://purl.org/dc/elements/1.1/" xmlns:cc="http://creativecommons.org/ns#" xmlns:rdf="http://www.w3.org/1999/02/22-rdf-syntax-ns#">
   <cc:Work>
    <dc:type rdf:resource="http://purl.org/dc/dcmitype/StillImage"/>
    <dc:date>2026-06-30T04:48:44.137964</dc:date>
    <dc:format>image/svg+xml</dc:format>
    <dc:creator>
     <cc:Agent>
      <dc:title>Matplotlib v3.11.0, https://matplotlib.org/</dc:title>
     </cc:Agent>
    </dc:creator>
   </cc:Work>
  </rdf:RDF>
 </metadata>
 <defs>
  <style type="text/css">*{stroke-linejoin: round; stroke-linecap: butt}</style>
 </defs>
 <g id="figure_1">
  <g id="patch_1">
   <path d="M 0 122.4 
L 216 122.4 
L 216 0 
L 0 0 
L 0 122.4 
z
" style="fill: none; opacity: 0"/>
  </g>
  <g id="axes_1">
   <g id="patch_2">
    <path d="M 35.96 103.4 
L 211 103.4 
L 211 5 
L 35.96 5 
L 35.96 103.4 
z
" style="fill: none; opacity: 0"/>
   </g>
   <g id="matplotlib.axis_1">
    <g id="xtick_1">
     <g id="line2d_1">
      <path d="M 72.056377 103.4 
L 72.056377 5 
" clip-path="url(#pfb5cc17e95)" style="fill: none; stroke-dasharray: 2.96,1.28; stroke-dashoffset: 0; stroke: var(--grid-color); stroke-width: 0.8"/>
     </g>
     <g id="line2d_2">
      <defs>
       <path id="mab916cfce7" d="M 0 0 
L 0 3.5 
" style="stroke: var(--fg-color); stroke-width: 0.8"/>
      </defs>
      <g>
       <use xlink:href="#mab916cfce7" x="72.056377" y="103.4" style="fill: var(--fg-color); stroke: var(--fg-color); stroke-width: 0.8"/>
      </g>
     </g>
     <g id="text_1">
      <text style="font-size: 7px; font-family: 'DejaVu Sans', 'Bitstream Vera Sans', 'Computer Modern Sans Serif', 'Lucida Grande', 'Verdana', 'Geneva', 'Lucid', 'Arial', 'Helvetica', 'Avant Garde', sans-serif; text-anchor: middle; fill: var(--fg-color)" x="72.056377" y="115.718359" transform="rotate(-0 72.056377 115.718359)">02/2026</text>
     </g>
    </g>
    <g id="xtick_2">
     <g id="line2d_3">
      <path d="M 126.640628 103.4 
L 126.640628 5 
" clip-path="url(#pfb5cc17e95)" style="fill: none; stroke-dasharray: 2.96,1.28; stroke-dashoffset: 0; stroke: var(--grid-color); stroke-width: 0.8"/>
     </g>
     <g id="line2d_4">
      <g>
       <use xlink:href="#mab916cfce7" x="126.640628" y="103.4" style="fill: var(--fg-color); stroke: var(--fg-color); stroke-width: 0.8"/>
      </g>
     </g>
     <g id="text_2">
      <text style="font-size: 7px; font-family: 'DejaVu Sans', 'Bitstream Vera Sans', 'Computer Modern Sans Serif', 'Lucida Grande', 'Verdana', 'Geneva', 'Lucid', 'Arial', 'Helvetica', 'Avant Garde', sans-serif; text-anchor: middle; fill: var(--fg-color)" x="126.640628" y="115.718359" transform="rotate(-0 126.640628 115.718359)">04/2026</text>
     </g>
    </g>
    <g id="xtick_3">
     <g id="line2d_5">
      <path d="M 183.075192 103.4 
L 183.075192 5 
" clip-path="url(#pfb5cc17e95)" style="fill: none; stroke-dasharray: 2.96,1.28; stroke-dashoffset: 0; stroke: var(--grid-color); stroke-width: 0.8"/>
     </g>
     <g id="line2d_6">
      <g>
       <use xlink:href="#mab916cfce7" x="183.075192" y="103.4" style="fill: var(--fg-color); stroke: var(--fg-color); stroke-width: 0.8"/>
      </g>
     </g>
     <g id="text_3">
      <text style="font-size: 7px; font-family: 'DejaVu Sans', 'Bitstream Vera Sans', 'Computer Modern Sans Serif', 'Lucida Grande', 'Verdana', 'Geneva', 'Lucid', 'Arial', 'Helvetica', 'Avant Garde', sans-serif; text-anchor: middle; fill: var(--fg-color)" x="183.075192" y="115.718359" transform="rotate(-0 183.075192 115.718359)">06/2026</text>
     </g>
    </g>
   </g>
   <g id="matplotlib.axis_2">
    <g id="ytick_1">
     <g id="line2d_7">
      <path d="M 35.96 95.294393 
L 211 95.294393 
" clip-path="url(#pfb5cc17e95)" style="fill: none; stroke-dasharray: 2.96,1.28; stroke-dashoffset: 0; stroke: var(--grid-color); stroke-width: 0.8"/>
     </g>
     <g id="line2d_8">
      <defs>
       <path id="m7de03061f8" d="M 0 0 
L -3.5 0 
" style="stroke: var(--fg-color); stroke-width: 0.8"/>
      </defs>
      <g>
       <use xlink:href="#m7de03061f8" x="35.96" y="95.294393" style="fill: var(--fg-color); stroke: var(--fg-color); stroke-width: 0.8"/>
      </g>
     </g>
     <g id="text_4">
      <text style="font-size: 7px; font-family: 'DejaVu Sans', 'Bitstream Vera Sans', 'Computer Modern Sans Serif', 'Lucida Grande', 'Verdana', 'Geneva', 'Lucid', 'Arial', 'Helvetica', 'Avant Garde', sans-serif; text-anchor: end; fill: var(--fg-color)" x="28.96" y="97.953573" transform="rotate(-0 28.96 97.953573)">100</text>
     </g>
    </g>
    <g id="ytick_2">
     <g id="line2d_9">
      <path d="M 35.96 74.712671 
L 211 74.712671 
" clip-path="url(#pfb5cc17e95)" style="fill: none; stroke-dasharray: 2.96,1.28; stroke-dashoffset: 0; stroke: var(--grid-color); stroke-width: 0.8"/>
     </g>
     <g id="line2d_10">
      <g>
       <use xlink:href="#m7de03061f8" x="35.96" y="74.712671" style="fill: var(--fg-color); stroke: var(--fg-color); stroke-width: 0.8"/>
      </g>
     </g>
     <g id="text_5">
      <text style="font-size: 7px; font-family: 'DejaVu Sans', 'Bitstream Vera Sans', 'Computer Modern Sans Serif', 'Lucida Grande', 'Verdana', 'Geneva', 'Lucid', 'Arial', 'Helvetica', 'Avant Garde', sans-serif; text-anchor: end; fill: var(--fg-color)" x="28.96" y="77.37185" transform="rotate(-0 28.96 77.37185)">200</text>
     </g>
    </g>
    <g id="ytick_3">
     <g id="line2d_11">
      <path d="M 35.96 54.130948 
L 211 54.130948 
" clip-path="url(#pfb5cc17e95)" style="fill: none; stroke-dasharray: 2.96,1.28; stroke-dashoffset: 0; stroke: var(--grid-color); stroke-width: 0.8"/>
     </g>
     <g id="line2d_12">
      <g>
       <use xlink:href="#m7de03061f8" x="35.96" y="54.130948" style="fill: var(--fg-color); stroke: var(--fg-color); stroke-width: 0.8"/>
      </g>
     </g>
     <g id="text_6">
      <text style="font-size: 7px; font-family: 'DejaVu Sans', 'Bitstream Vera Sans', 'Computer Modern Sans Serif', 'Lucida Grande', 'Verdana', 'Geneva', 'Lucid', 'Arial', 'Helvetica', 'Avant Garde', sans-serif; text-anchor: end; fill: var(--fg-color)" x="28.96" y="56.790128" transform="rotate(-0 28.96 56.790128)">300</text>
     </g>
    </g>
    <g id="ytick_4">
     <g id="line2d_13">
      <path d="M 35.96 33.549226 
L 211 33.549226 
" clip-path="url(#pfb5cc17e95)" style="fill: none; stroke-dasharray: 2.96,1.28; stroke-dashoffset: 0; stroke: var(--grid-color); stroke-width: 0.8"/>
     </g>
     <g id="line2d_14">
      <g>
       <use xlink:href="#m7de03061f8" x="35.96" y="33.549226" style="fill: var(--fg-color); stroke: var(--fg-color); stroke-width: 0.8"/>
      </g>
     </g>
     <g id="text_7">
      <text style="font-size: 7px; font-family: 'DejaVu Sans', 'Bitstream Vera Sans', 'Computer Modern Sans Serif', 'Lucida Grande', 'Verdana', 'Geneva', 'Lucid', 'Arial', 'Helvetica', 'Avant Garde', sans-serif; text-anchor: end; fill: var(--fg-color)" x="28.96" y="36.208406" transform="rotate(-0 28.96 36.208406)">400</text>
     </g>
    </g>
    <g id="ytick_5">
     <g id="line2d_15">
      <path d="M 35.96 12.967504 
L 211 12.967504 
" clip-path="url(#pfb5cc17e95)" style="fill: none; stroke-dasharray: 2.96,1.28; stroke-dashoffset: 0; stroke: var(--grid-color); stroke-width: 0.8"/>
     </g>
     <g id="line2d_16">
      <g>
       <use xlink:href="#m7de03061f8" x="35.96" y="12.967504" style="fill: var(--fg-color); stroke: var(--fg-color); stroke-width: 0.8"/>
      </g>
     </g>
     <g id="text_8">
      <text style="font-size: 7px; font-family: 'DejaVu Sans', 'Bitstream Vera Sans', 'Computer Modern Sans Serif', 'Lucida Grande', 'Verdana', 'Geneva', 'Lucid', 'Arial', 'Helvetica', 'Avant Garde', sans-serif; text-anchor: end; fill: var(--fg-color)" x="28.96" y="15.626683" transform="rotate(-0 28.96 15.626683)">500</text>
     </g>
    </g>
    <g id="text_9">
     <text style="font-size: 7px; font-family: 'DejaVu Sans', 'Bitstream Vera Sans', 'Computer Modern Sans Serif', 'Lucida Grande', 'Verdana', 'Geneva', 'Lucid', 'Arial', 'Helvetica', 'Avant Garde', sans-serif; text-anchor: middle; fill: var(--fg-color)" x="9.917109" y="54.2" transform="rotate(-90 9.917109 54.2)">ms</text>
    </g>
   </g>
   <g id="line2d_17">
    <path d="M 43.916364 64.765936 
L 45.193108 61.190891 
L 45.766628 64.414606 
L 46.691788 66.004956 
L 47.616947 66.798587 
L 48.542109 68.894012 
L 49.467263 68.800571 
L 50.392418 70.095161 
L 51.317566 67.169675 
L 52.242732 69.240402 
L 53.167891 64.323017 
L 54.093049 65.411584 
L 55.018206 64.744943 
L 55.943359 69.208706 
L 56.868517 67.774366 
L 57.793676 67.092905 
L 58.718827 64.576172 
L 59.643987 68.055718 
L 60.569143 71.010636 
L 61.494301 69.220026 
L 62.419457 69.271069 
L 63.344613 68.411988 
L 64.269773 67.136127 
L 65.194924 69.126997 
L 66.120079 65.245902 
L 67.045243 65.895255 
L 67.970398 66.238146 
L 68.895557 65.940946 
L 69.82071 66.680448 
L 70.74585 39.233074 
L 71.671025 71.206368 
L 72.596178 72.460001 
L 73.521341 70.076843 
L 74.446495 71.001169 
L 75.371653 69.364922 
L 76.296805 69.268393 
L 77.221971 66.544814 
L 78.147114 66.572805 
L 79.072277 69.928243 
L 79.997435 72.167741 
L 80.922594 69.688878 
L 81.847735 69.945944 
L 82.772905 9.472727 
L 83.698046 72.045691 
L 84.623219 68.745 
L 85.548376 70.491359 
L 86.473535 67.810384 
L 87.398688 67.627001 
L 88.323852 68.578906 
L 97.76512 62.320827 
L 98.500856 64.053808 
L 99.426031 64.898276 
L 100.351186 65.816221 
L 101.276348 72.443947 
L 102.201502 71.251854 
L 103.126656 69.107856 
L 104.051812 68.815801 
L 104.976967 69.105386 
L 105.902123 69.021619 
L 106.827282 69.356072 
L 107.752435 71.905324 
L 108.677594 69.967555 
L 109.602753 69.182773 
L 110.527909 67.656021 
L 111.453063 72.900244 
L 112.378223 67.908559 
L 113.303377 74.818049 
L 114.228537 68.403961 
L 115.153695 68.732034 
L 116.078848 72.341656 
L 117.004011 71.851811 
L 117.929158 66.807643 
L 118.854316 74.093778 
L 119.779481 70.225649 
L 120.704637 68.560588 
L 121.629794 72.588225 
L 122.554943 69.392295 
L 123.480104 70.67783 
L 124.405261 70.29748 
L 125.330416 67.643055 
L 126.255574 56.857203 
L 129.9562 68.235808 
L 130.881363 67.858751 
L 131.806516 68.526422 
L 132.731673 68.468382 
L 133.656831 67.695744 
L 134.581987 68.776079 
L 135.507147 66.79303 
L 136.432285 66.722023 
L 137.357455 69.579177 
L 138.282617 65.130027 
L 139.20777 65.345311 
L 140.13293 66.159936 
L 141.058084 65.792964 
L 141.983242 66.505915 
L 142.908395 63.535972 
L 143.833556 66.702882 
L 144.758724 63.41948 
L 145.683869 39.815537 
L 146.609028 68.584669 
L 147.534182 66.363283 
L 148.459339 61.915985 
L 149.384497 65.887228 
L 150.309651 63.932788 
L 151.234811 69.415141 
L 152.159963 66.043649 
L 179.91473 66.043649 
L 188.548948 68.959873 
L 189.166282 70.04206 
L 190.091439 65.904311 
L 191.016594 69.073279 
L 191.94175 68.583845 
L 192.866913 66.809701 
L 193.792066 68.600105 
L 194.717222 68.345509 
L 195.642377 67.75646 
L 196.567536 66.373574 
L 197.492695 67.297282 
L 198.417852 67.673722 
L 199.343013 69.608815 
L 200.268162 69.502202 
L 201.193322 67.471815 
L 202.118478 63.842846 
L 203.043636 66.89882 
" clip-path="url(#pfb5cc17e95)" style="fill: none; stroke: #339af0; stroke-width: 1.2; stroke-linecap: square"/>
   </g>
   <g id="line2d_18">
    <path d="M 43.916364 96.147094 
L 45.193108 96.374522 
L 45.766628 95.277928 
L 46.691788 97.564351 
L 47.616947 97.294113 
L 48.542109 96.970363 
L 49.467263 96.180642 
L 50.392418 95.79988 
L 51.317566 95.895997 
L 52.242732 94.663975 
L 53.167891 98.927273 
L 54.093049 96.067648 
L 55.018206 96.615739 
L 55.943359 95.003985 
L 56.868517 97.201084 
L 57.793676 97.163625 
L 58.718827 95.895791 
L 59.643987 95.955066 
L 60.569143 97.297406 
L 61.494301 96.364437 
L 62.419457 96.286226 
L 63.344613 97.192439 
L 64.269773 96.470844 
L 65.194924 96.257 
L 66.120079 96.350235 
L 67.045243 96.181877 
L 67.970398 95.431879 
L 68.895557 98.619782 
L 69.82071 94.497263 
L 70.74585 92.375081 
L 71.671025 94.595849 
L 72.596178 94.126174 
L 73.521341 94.513728 
L 74.446495 93.347362 
L 75.371653 97.596253 
L 76.296805 93.614513 
L 77.221971 92.41995 
L 78.147114 97.005969 
L 79.072277 93.666585 
L 79.997435 95.246438 
L 80.922594 94.406497 
L 81.847735 95.467897 
L 82.772905 95.041238 
L 83.698046 94.115472 
L 84.623219 94.7144 
L 85.548376 94.069986 
L 86.473535 93.752616 
L 87.398688 93.402933 
L 88.323852 94.657389 
L 97.76512 96.341797 
L 98.500856 96.508097 
L 99.426031 96.455202 
L 100.351186 94.594409 
L 101.276348 93.211317 
L 102.201502 95.910404 
L 103.126656 95.403476 
L 104.051812 95.749249 
L 104.976967 95.366223 
L 105.902123 96.204723 
L 106.827282 94.878025 
L 107.752435 94.938741 
L 108.677594 93.594137 
L 109.602753 96.820939 
L 110.527909 94.82657 
L 111.453063 95.117802 
L 112.378223 93.786164 
L 113.303377 95.912874 
L 114.228537 94.283213 
L 115.153695 95.769007 
L 116.078848 93.494315 
L 117.004011 93.973046 
L 117.929158 95.063672 
L 118.854316 93.271415 
L 119.779481 95.089605 
L 120.704637 93.917476 
L 121.629794 95.934279 
L 122.554943 94.624664 
L 123.480104 93.368973 
L 124.405261 95.251377 
L 125.330416 95.555987 
L 126.255574 96.551936 
L 129.9562 95.879943 
L 130.881363 96.276347 
L 131.806516 95.185104 
L 132.731673 94.922687 
L 133.656831 95.603325 
L 134.581987 96.792331 
L 135.507147 96.047478 
L 136.432285 93.663497 
L 137.357455 95.523262 
L 138.282617 94.269835 
L 139.20777 94.74095 
L 140.13293 93.10882 
L 141.058084 95.439288 
L 141.983242 95.034446 
L 142.908395 94.825747 
L 143.833556 96.42577 
L 144.758724 94.393325 
L 145.683869 96.98621 
L 146.609028 94.257692 
L 147.534182 94.31141 
L 148.459339 91.625495 
L 149.384497 93.64909 
L 150.309651 93.360123 
L 151.234811 96.235183 
L 152.159963 92.487663 
L 179.91473 92.487663 
L 188.548948 95.102983 
L 189.166282 94.967144 
L 190.091439 95.797204 
L 191.016594 93.530539 
L 191.94175 92.620621 
L 192.866913 96.882273 
L 193.792066 95.90567 
L 194.717222 92.442384 
L 195.642377 94.699375 
L 196.567536 95.514 
L 197.492695 91.677567 
L 198.417852 93.894836 
L 199.343013 94.396618 
L 200.268162 95.665481 
L 201.193322 94.856208 
L 202.118478 92.885097 
L 203.043636 95.659101 
" clip-path="url(#pfb5cc17e95)" style="fill: none; stroke: #ff6b6b; stroke-width: 1.2; stroke-linecap: square"/>
   </g>
   <g id="patch_3">
    <path d="M 35.96 103.4 
L 35.96 5 
" style="fill: none; stroke: var(--fg-color); stroke-width: 0.8; stroke-linejoin: miter; stroke-linecap: square"/>
   </g>
   <g id="patch_4">
    <path d="M 35.96 103.4 
L 211 103.4 
" style="fill: none; stroke: var(--fg-color); stroke-width: 0.8; stroke-linejoin: miter; stroke-linecap: square"/>
   </g>
  </g>
 </g>
 <defs>
  <clipPath id="pfb5cc17e95">
   <rect x="35.96" y="5" width="175.04" height="98.4"/>
  </clipPath>
 </defs>
</svg>
