<?xml version="1.0" encoding="utf-8" standalone="no"?>
<!DOCTYPE svg PUBLIC "-//W3C//DTD SVG 1.1//EN"
  "http://www.w3.org/Graphics/SVG/1.1/DTD/svg11.dtd">
<svg xmlns:xlink="http://www.w3.org/1999/xlink" width="216pt" height="122.4pt" viewBox="0 0 216 122.4" xmlns="http://www.w3.org/2000/svg" version="1.1">
  <style>
    :root {
      --fg-color: #212529;
      --grid-color: rgba(33, 37, 41, 0.1);
    }
    @media (prefers-color-scheme: dark) {
      :root {
        --fg-color: #dee2e6;
        --grid-color: rgba(248, 249, 250, 0.15);
      }
    }
  </style>

 <metadata>
  <rdf:RDF xmlns:dc="http://purl.org/dc/elements/1.1/" xmlns:cc="http://creativecommons.org/ns#" xmlns:rdf="http://www.w3.org/1999/02/22-rdf-syntax-ns#">
   <cc:Work>
    <dc:type rdf:resource="http://purl.org/dc/dcmitype/StillImage"/>
    <dc:date>2026-06-30T04:48:38.836244</dc:date>
    <dc:format>image/svg+xml</dc:format>
    <dc:creator>
     <cc:Agent>
      <dc:title>Matplotlib v3.11.0, https://matplotlib.org/</dc:title>
     </cc:Agent>
    </dc:creator>
   </cc:Work>
  </rdf:RDF>
 </metadata>
 <defs>
  <style type="text/css">*{stroke-linejoin: round; stroke-linecap: butt}</style>
 </defs>
 <g id="figure_1">
  <g id="patch_1">
   <path d="M 0 122.4 
L 216 122.4 
L 216 0 
L 0 0 
L 0 122.4 
z
" style="fill: none; opacity: 0"/>
  </g>
  <g id="axes_1">
   <g id="patch_2">
    <path d="M 35.96 103.4 
L 211 103.4 
L 211 5 
L 35.96 5 
L 35.96 103.4 
z
" style="fill: none; opacity: 0"/>
   </g>
   <g id="matplotlib.axis_1">
    <g id="xtick_1">
     <g id="line2d_1">
      <path d="M 72.056377 103.4 
L 72.056377 5 
" clip-path="url(#pf9cc121fce)" style="fill: none; stroke-dasharray: 2.96,1.28; stroke-dashoffset: 0; stroke: var(--grid-color); stroke-width: 0.8"/>
     </g>
     <g id="line2d_2">
      <defs>
       <path id="m5433bad7c6" d="M 0 0 
L 0 3.5 
" style="stroke: var(--fg-color); stroke-width: 0.8"/>
      </defs>
      <g>
       <use xlink:href="#m5433bad7c6" x="72.056377" y="103.4" style="fill: var(--fg-color); stroke: var(--fg-color); stroke-width: 0.8"/>
      </g>
     </g>
     <g id="text_1">
      <text style="font-size: 7px; font-family: 'DejaVu Sans', 'Bitstream Vera Sans', 'Computer Modern Sans Serif', 'Lucida Grande', 'Verdana', 'Geneva', 'Lucid', 'Arial', 'Helvetica', 'Avant Garde', sans-serif; text-anchor: middle; fill: var(--fg-color)" x="72.056377" y="115.718359" transform="rotate(-0 72.056377 115.718359)">02/2026</text>
     </g>
    </g>
    <g id="xtick_2">
     <g id="line2d_3">
      <path d="M 126.640628 103.4 
L 126.640628 5 
" clip-path="url(#pf9cc121fce)" style="fill: none; stroke-dasharray: 2.96,1.28; stroke-dashoffset: 0; stroke: var(--grid-color); stroke-width: 0.8"/>
     </g>
     <g id="line2d_4">
      <g>
       <use xlink:href="#m5433bad7c6" x="126.640628" y="103.4" style="fill: var(--fg-color); stroke: var(--fg-color); stroke-width: 0.8"/>
      </g>
     </g>
     <g id="text_2">
      <text style="font-size: 7px; font-family: 'DejaVu Sans', 'Bitstream Vera Sans', 'Computer Modern Sans Serif', 'Lucida Grande', 'Verdana', 'Geneva', 'Lucid', 'Arial', 'Helvetica', 'Avant Garde', sans-serif; text-anchor: middle; fill: var(--fg-color)" x="126.640628" y="115.718359" transform="rotate(-0 126.640628 115.718359)">04/2026</text>
     </g>
    </g>
    <g id="xtick_3">
     <g id="line2d_5">
      <path d="M 183.075192 103.4 
L 183.075192 5 
" clip-path="url(#pf9cc121fce)" style="fill: none; stroke-dasharray: 2.96,1.28; stroke-dashoffset: 0; stroke: var(--grid-color); stroke-width: 0.8"/>
     </g>
     <g id="line2d_6">
      <g>
       <use xlink:href="#m5433bad7c6" x="183.075192" y="103.4" style="fill: var(--fg-color); stroke: var(--fg-color); stroke-width: 0.8"/>
      </g>
     </g>
     <g id="text_3">
      <text style="font-size: 7px; font-family: 'DejaVu Sans', 'Bitstream Vera Sans', 'Computer Modern Sans Serif', 'Lucida Grande', 'Verdana', 'Geneva', 'Lucid', 'Arial', 'Helvetica', 'Avant Garde', sans-serif; text-anchor: middle; fill: var(--fg-color)" x="183.075192" y="115.718359" transform="rotate(-0 183.075192 115.718359)">06/2026</text>
     </g>
    </g>
   </g>
   <g id="matplotlib.axis_2">
    <g id="ytick_1">
     <g id="line2d_7">
      <path d="M 35.96 79.01614 
L 211 79.01614 
" clip-path="url(#pf9cc121fce)" style="fill: none; stroke-dasharray: 2.96,1.28; stroke-dashoffset: 0; stroke: var(--grid-color); stroke-width: 0.8"/>
     </g>
     <g id="line2d_8">
      <defs>
       <path id="m852b3c6dbd" d="M 0 0 
L -3.5 0 
" style="stroke: var(--fg-color); stroke-width: 0.8"/>
      </defs>
      <g>
       <use xlink:href="#m852b3c6dbd" x="35.96" y="79.01614" style="fill: var(--fg-color); stroke: var(--fg-color); stroke-width: 0.8"/>
      </g>
     </g>
     <g id="text_4">
      <text style="font-size: 7px; font-family: 'DejaVu Sans', 'Bitstream Vera Sans', 'Computer Modern Sans Serif', 'Lucida Grande', 'Verdana', 'Geneva', 'Lucid', 'Arial', 'Helvetica', 'Avant Garde', sans-serif; text-anchor: end; fill: var(--fg-color)" x="28.96" y="81.67532" transform="rotate(-0 28.96 81.67532)">50</text>
     </g>
    </g>
    <g id="ytick_2">
     <g id="line2d_9">
      <path d="M 35.96 53.877726 
L 211 53.877726 
" clip-path="url(#pf9cc121fce)" style="fill: none; stroke-dasharray: 2.96,1.28; stroke-dashoffset: 0; stroke: var(--grid-color); stroke-width: 0.8"/>
     </g>
     <g id="line2d_10">
      <g>
       <use xlink:href="#m852b3c6dbd" x="35.96" y="53.877726" style="fill: var(--fg-color); stroke: var(--fg-color); stroke-width: 0.8"/>
      </g>
     </g>
     <g id="text_5">
      <text style="font-size: 7px; font-family: 'DejaVu Sans', 'Bitstream Vera Sans', 'Computer Modern Sans Serif', 'Lucida Grande', 'Verdana', 'Geneva', 'Lucid', 'Arial', 'Helvetica', 'Avant Garde', sans-serif; text-anchor: end; fill: var(--fg-color)" x="28.96" y="56.536905" transform="rotate(-0 28.96 56.536905)">100</text>
     </g>
    </g>
    <g id="ytick_3">
     <g id="line2d_11">
      <path d="M 35.96 28.739311 
L 211 28.739311 
" clip-path="url(#pf9cc121fce)" style="fill: none; stroke-dasharray: 2.96,1.28; stroke-dashoffset: 0; stroke: var(--grid-color); stroke-width: 0.8"/>
     </g>
     <g id="line2d_12">
      <g>
       <use xlink:href="#m852b3c6dbd" x="35.96" y="28.739311" style="fill: var(--fg-color); stroke: var(--fg-color); stroke-width: 0.8"/>
      </g>
     </g>
     <g id="text_6">
      <text style="font-size: 7px; font-family: 'DejaVu Sans', 'Bitstream Vera Sans', 'Computer Modern Sans Serif', 'Lucida Grande', 'Verdana', 'Geneva', 'Lucid', 'Arial', 'Helvetica', 'Avant Garde', sans-serif; text-anchor: end; fill: var(--fg-color)" x="28.96" y="31.398491" transform="rotate(-0 28.96 31.398491)">150</text>
     </g>
    </g>
    <g id="text_7">
     <text style="font-size: 7px; font-family: 'DejaVu Sans', 'Bitstream Vera Sans', 'Computer Modern Sans Serif', 'Lucida Grande', 'Verdana', 'Geneva', 'Lucid', 'Arial', 'Helvetica', 'Avant Garde', sans-serif; text-anchor: middle; fill: var(--fg-color)" x="9.917109" y="54.2" transform="rotate(-90 9.917109 54.2)">ms</text>
    </g>
   </g>
   <g id="line2d_13">
    <path d="M 43.916364 23.981112 
L 45.193108 21.905182 
L 45.766628 26.202845 
L 46.691788 24.643258 
L 47.616947 23.977592 
L 48.542109 22.474315 
L 49.467263 26.675447 
L 50.392418 25.105805 
L 51.317566 18.324466 
L 52.242732 25.604048 
L 53.167891 21.722677 
L 54.093049 24.011278 
L 55.018206 24.031389 
L 55.943359 23.358182 
L 56.868517 23.117356 
L 57.793676 22.680953 
L 58.718827 24.93788 
L 59.643987 24.728728 
L 60.569143 18.829748 
L 61.494301 23.706098 
L 62.419457 24.087196 
L 63.344613 22.346612 
L 64.269773 23.683473 
L 65.194924 29.284815 
L 66.120079 29.174206 
L 67.045243 25.307415 
L 67.970398 24.425056 
L 68.895557 28.26872 
L 69.82071 27.024871 
L 70.74585 24.885089 
L 71.671025 20.701052 
L 72.596178 29.193311 
L 73.521341 15.890062 
L 74.446495 24.438631 
L 75.371653 26.229492 
L 76.296805 25.039439 
L 77.221971 28.095265 
L 78.147114 26.485903 
L 79.072277 25.27021 
L 79.997435 23.798104 
L 80.922594 20.971541 
L 81.847735 23.740286 
L 82.772905 9.761316 
L 83.698046 22.099753 
L 84.623219 25.303895 
L 85.548376 28.766963 
L 86.473535 23.340585 
L 87.398688 23.798104 
L 88.323852 25.30289 
L 97.76512 25.953975 
L 98.500856 28.638255 
L 99.426031 21.18019 
L 100.351186 28.433628 
L 101.276348 27.208884 
L 102.201502 27.68752 
L 103.126656 25.997213 
L 104.051812 28.391898 
L 104.976967 29.809202 
L 105.902123 27.581938 
L 106.827282 24.822746 
L 107.752435 25.27926 
L 108.677594 17.17011 
L 109.602753 22.650787 
L 110.527909 25.856438 
L 111.453063 27.744835 
L 112.378223 18.394351 
L 113.303377 26.762426 
L 114.228537 15.021278 
L 115.153695 25.746331 
L 116.078848 25.6498 
L 117.004011 24.420531 
L 117.929158 21.940878 
L 118.854316 26.660364 
L 119.779481 32.094787 
L 120.704637 22.569841 
L 121.629794 23.589958 
L 122.554943 23.210871 
L 123.480104 25.885598 
L 124.405261 26.592993 
L 125.330416 19.587923 
L 126.255574 21.555758 
L 129.9562 18.194249 
L 130.881363 24.524102 
L 131.806516 22.245556 
L 132.731673 26.333062 
L 133.656831 13.844298 
L 134.581987 14.055963 
L 135.507147 19.193249 
L 136.432285 23.791065 
L 137.357455 19.655796 
L 138.282617 19.800594 
L 139.20777 16.3511 
L 140.13293 20.400899 
L 141.058084 14.398851 
L 141.983242 11.744737 
L 142.908395 21.075614 
L 143.833556 22.177682 
L 144.758724 16.838786 
L 145.683869 19.268665 
L 146.609028 21.35817 
L 147.534182 21.529614 
L 148.459339 25.740801 
L 149.384497 23.674423 
L 150.309651 23.287794 
L 151.234811 20.076613 
L 152.159963 9.472727 
L 179.91473 9.472727 
L 188.548948 23.569345 
L 189.166282 22.959989 
L 190.091439 19.108784 
L 191.016594 21.555255 
L 191.94175 20.87702 
L 192.866913 17.968003 
L 193.792066 22.767932 
L 194.717222 23.184224 
L 195.642377 21.973558 
L 196.567536 23.368237 
L 197.492695 14.255059 
L 198.417852 17.669359 
L 199.343013 19.455192 
L 200.268162 20.529608 
L 201.193322 18.30888 
L 202.118478 22.039421 
L 203.043636 21.676925 
" clip-path="url(#pf9cc121fce)" style="fill: none; stroke: #339af0; stroke-width: 1.2; stroke-linecap: square"/>
   </g>
   <g id="line2d_14">
    <path d="M 43.916364 97.464217 
L 45.193108 97.300817 
L 45.766628 97.918217 
L 46.691788 97.200766 
L 47.616947 96.924747 
L 48.542109 97.228921 
L 49.467263 97.431034 
L 50.392418 97.783475 
L 51.317566 97.474775 
L 52.242732 97.257076 
L 53.167891 97.559743 
L 54.093049 97.648733 
L 55.018206 97.133898 
L 55.943359 97.831238 
L 56.868517 97.740237 
L 57.793676 96.780452 
L 58.718827 97.118815 
L 59.643987 97.901625 
L 60.569143 97.344558 
L 61.494301 97.825707 
L 62.419457 97.907659 
L 63.344613 97.827216 
L 64.269773 97.528571 
L 65.194924 98.186192 
L 66.120079 98.095694 
L 67.045243 97.686943 
L 67.970398 97.795541 
L 68.895557 98.121335 
L 69.82071 97.15049 
L 70.74585 97.698004 
L 71.671025 97.378746 
L 72.596178 97.636667 
L 73.521341 97.740237 
L 74.446495 97.50645 
L 75.371653 97.953913 
L 76.296805 97.782972 
L 77.221971 97.701021 
L 78.147114 97.738728 
L 79.072277 97.752303 
L 79.997435 97.843304 
L 80.922594 97.063008 
L 81.847735 97.655772 
L 82.772905 97.579854 
L 83.698046 97.664319 
L 84.623219 97.572312 
L 85.548376 98.145971 
L 86.473535 97.623092 
L 87.398688 97.824702 
L 88.323852 97.192219 
L 97.76512 97.798055 
L 98.500856 98.145468 
L 99.426031 97.815149 
L 100.351186 97.407404 
L 101.276348 97.930283 
L 102.201502 97.308862 
L 103.126656 98.396852 
L 104.051812 98.61254 
L 104.976967 98.525561 
L 105.902123 98.701027 
L 106.827282 98.133904 
L 107.752435 98.39836 
L 108.677594 97.98056 
L 109.602753 98.412438 
L 110.527909 98.581368 
L 111.453063 98.099716 
L 112.378223 96.786988 
L 113.303377 98.530086 
L 114.228537 97.884029 
L 115.153695 98.37473 
L 116.078848 98.329984 
L 117.004011 96.734197 
L 117.929158 97.96598 
L 118.854316 98.640695 
L 119.779481 98.927273 
L 120.704637 97.568793 
L 121.629794 97.526057 
L 122.554943 98.108766 
L 123.480104 98.172618 
L 124.405261 98.513494 
L 125.330416 98.100219 
L 126.255574 98.295796 
L 129.9562 96.197241 
L 130.881363 98.283227 
L 131.806516 98.292276 
L 132.731673 98.550197 
L 133.656831 97.903134 
L 134.581987 98.059495 
L 135.507147 97.893078 
L 136.432285 98.268646 
L 137.357455 98.007207 
L 138.282617 98.236469 
L 139.20777 97.890062 
L 140.13293 98.338028 
L 141.058084 97.838779 
L 141.983242 97.387293 
L 142.908395 98.174629 
L 143.833556 97.761353 
L 144.758724 97.901625 
L 145.683869 98.3692 
L 146.609028 98.10776 
L 147.534182 98.233452 
L 148.459339 98.438079 
L 149.384497 98.437576 
L 150.309651 98.157534 
L 151.234811 97.99866 
L 152.159963 97.299812 
L 179.91473 97.299812 
L 188.548948 97.768392 
L 189.166282 98.489362 
L 190.091439 97.563262 
L 191.016594 96.248021 
L 191.94175 97.241491 
L 192.866913 97.66633 
L 193.792066 96.167578 
L 194.717222 96.485327 
L 195.642377 97.706551 
L 196.567536 96.948377 
L 197.492695 97.734706 
L 198.417852 96.549681 
L 199.343013 97.135909 
L 200.268162 97.037869 
L 201.193322 97.894587 
L 202.118478 96.911675 
L 203.043636 96.501416 
" clip-path="url(#pf9cc121fce)" style="fill: none; stroke: #ff6b6b; stroke-width: 1.2; stroke-linecap: square"/>
   </g>
   <g id="patch_3">
    <path d="M 35.96 103.4 
L 35.96 5 
" style="fill: none; stroke: var(--fg-color); stroke-width: 0.8; stroke-linejoin: miter; stroke-linecap: square"/>
   </g>
   <g id="patch_4">
    <path d="M 35.96 103.4 
L 211 103.4 
" style="fill: none; stroke: var(--fg-color); stroke-width: 0.8; stroke-linejoin: miter; stroke-linecap: square"/>
   </g>
  </g>
 </g>
 <defs>
  <clipPath id="pf9cc121fce">
   <rect x="35.96" y="5" width="175.04" height="98.4"/>
  </clipPath>
 </defs>
</svg>
