<?xml version="1.0" encoding="utf-8" standalone="no"?>
<!DOCTYPE svg PUBLIC "-//W3C//DTD SVG 1.1//EN"
  "http://www.w3.org/Graphics/SVG/1.1/DTD/svg11.dtd">
<svg xmlns:xlink="http://www.w3.org/1999/xlink" width="216pt" height="122.4pt" viewBox="0 0 216 122.4" xmlns="http://www.w3.org/2000/svg" version="1.1">
  <style>
    :root {
      --fg-color: #212529;
      --grid-color: rgba(33, 37, 41, 0.1);
    }
    @media (prefers-color-scheme: dark) {
      :root {
        --fg-color: #dee2e6;
        --grid-color: rgba(248, 249, 250, 0.15);
      }
    }
  </style>

 <metadata>
  <rdf:RDF xmlns:dc="http://purl.org/dc/elements/1.1/" xmlns:cc="http://creativecommons.org/ns#" xmlns:rdf="http://www.w3.org/1999/02/22-rdf-syntax-ns#">
   <cc:Work>
    <dc:type rdf:resource="http://purl.org/dc/dcmitype/StillImage"/>
    <dc:date>2026-06-30T04:48:41.641405</dc:date>
    <dc:format>image/svg+xml</dc:format>
    <dc:creator>
     <cc:Agent>
      <dc:title>Matplotlib v3.11.0, https://matplotlib.org/</dc:title>
     </cc:Agent>
    </dc:creator>
   </cc:Work>
  </rdf:RDF>
 </metadata>
 <defs>
  <style type="text/css">*{stroke-linejoin: round; stroke-linecap: butt}</style>
 </defs>
 <g id="figure_1">
  <g id="patch_1">
   <path d="M 0 122.4 
L 216 122.4 
L 216 0 
L 0 0 
L 0 122.4 
z
" style="fill: none; opacity: 0"/>
  </g>
  <g id="axes_1">
   <g id="patch_2">
    <path d="M 35.96 103.4 
L 211 103.4 
L 211 5 
L 35.96 5 
L 35.96 103.4 
z
" style="fill: none; opacity: 0"/>
   </g>
   <g id="matplotlib.axis_1">
    <g id="xtick_1">
     <g id="line2d_1">
      <path d="M 70.996911 103.4 
L 70.996911 5 
" clip-path="url(#p208a0ad2ea)" style="fill: none; stroke-dasharray: 2.96,1.28; stroke-dashoffset: 0; stroke: var(--grid-color); stroke-width: 0.8"/>
     </g>
     <g id="line2d_2">
      <defs>
       <path id="m6e9ef84f89" d="M 0 0 
L 0 3.5 
" style="stroke: var(--fg-color); stroke-width: 0.8"/>
      </defs>
      <g>
       <use xlink:href="#m6e9ef84f89" x="70.996911" y="103.4" style="fill: var(--fg-color); stroke: var(--fg-color); stroke-width: 0.8"/>
      </g>
     </g>
     <g id="text_1">
      <text style="font-size: 7px; font-family: 'DejaVu Sans', 'Bitstream Vera Sans', 'Computer Modern Sans Serif', 'Lucida Grande', 'Verdana', 'Geneva', 'Lucid', 'Arial', 'Helvetica', 'Avant Garde', sans-serif; text-anchor: middle; fill: var(--fg-color)" x="70.996911" y="115.718359" transform="rotate(-0 70.996911 115.718359)">02/2026</text>
     </g>
    </g>
    <g id="xtick_2">
     <g id="line2d_3">
      <path d="M 126.022656 103.4 
L 126.022656 5 
" clip-path="url(#p208a0ad2ea)" style="fill: none; stroke-dasharray: 2.96,1.28; stroke-dashoffset: 0; stroke: var(--grid-color); stroke-width: 0.8"/>
     </g>
     <g id="line2d_4">
      <g>
       <use xlink:href="#m6e9ef84f89" x="126.022656" y="103.4" style="fill: var(--fg-color); stroke: var(--fg-color); stroke-width: 0.8"/>
      </g>
     </g>
     <g id="text_2">
      <text style="font-size: 7px; font-family: 'DejaVu Sans', 'Bitstream Vera Sans', 'Computer Modern Sans Serif', 'Lucida Grande', 'Verdana', 'Geneva', 'Lucid', 'Arial', 'Helvetica', 'Avant Garde', sans-serif; text-anchor: middle; fill: var(--fg-color)" x="126.022656" y="115.718359" transform="rotate(-0 126.022656 115.718359)">04/2026</text>
     </g>
    </g>
    <g id="xtick_3">
     <g id="line2d_5">
      <path d="M 182.913681 103.4 
L 182.913681 5 
" clip-path="url(#p208a0ad2ea)" style="fill: none; stroke-dasharray: 2.96,1.28; stroke-dashoffset: 0; stroke: var(--grid-color); stroke-width: 0.8"/>
     </g>
     <g id="line2d_6">
      <g>
       <use xlink:href="#m6e9ef84f89" x="182.913681" y="103.4" style="fill: var(--fg-color); stroke: var(--fg-color); stroke-width: 0.8"/>
      </g>
     </g>
     <g id="text_3">
      <text style="font-size: 7px; font-family: 'DejaVu Sans', 'Bitstream Vera Sans', 'Computer Modern Sans Serif', 'Lucida Grande', 'Verdana', 'Geneva', 'Lucid', 'Arial', 'Helvetica', 'Avant Garde', sans-serif; text-anchor: middle; fill: var(--fg-color)" x="182.913681" y="115.718359" transform="rotate(-0 182.913681 115.718359)">06/2026</text>
     </g>
    </g>
   </g>
   <g id="matplotlib.axis_2">
    <g id="ytick_1">
     <g id="line2d_7">
      <path d="M 35.96 99.347165 
L 211 99.347165 
" clip-path="url(#p208a0ad2ea)" style="fill: none; stroke-dasharray: 2.96,1.28; stroke-dashoffset: 0; stroke: var(--grid-color); stroke-width: 0.8"/>
     </g>
     <g id="line2d_8">
      <defs>
       <path id="m803f5d9ff6" d="M 0 0 
L -3.5 0 
" style="stroke: var(--fg-color); stroke-width: 0.8"/>
      </defs>
      <g>
       <use xlink:href="#m803f5d9ff6" x="35.96" y="99.347165" style="fill: var(--fg-color); stroke: var(--fg-color); stroke-width: 0.8"/>
      </g>
     </g>
     <g id="text_4">
      <text style="font-size: 7px; font-family: 'DejaVu Sans', 'Bitstream Vera Sans', 'Computer Modern Sans Serif', 'Lucida Grande', 'Verdana', 'Geneva', 'Lucid', 'Arial', 'Helvetica', 'Avant Garde', sans-serif; text-anchor: end; fill: var(--fg-color)" x="28.96" y="102.006345" transform="rotate(-0 28.96 102.006345)">0</text>
     </g>
    </g>
    <g id="ytick_2">
     <g id="line2d_9">
      <path d="M 35.96 76.735822 
L 211 76.735822 
" clip-path="url(#p208a0ad2ea)" style="fill: none; stroke-dasharray: 2.96,1.28; stroke-dashoffset: 0; stroke: var(--grid-color); stroke-width: 0.8"/>
     </g>
     <g id="line2d_10">
      <g>
       <use xlink:href="#m803f5d9ff6" x="35.96" y="76.735822" style="fill: var(--fg-color); stroke: var(--fg-color); stroke-width: 0.8"/>
      </g>
     </g>
     <g id="text_5">
      <text style="font-size: 7px; font-family: 'DejaVu Sans', 'Bitstream Vera Sans', 'Computer Modern Sans Serif', 'Lucida Grande', 'Verdana', 'Geneva', 'Lucid', 'Arial', 'Helvetica', 'Avant Garde', sans-serif; text-anchor: end; fill: var(--fg-color)" x="28.96" y="79.395001" transform="rotate(-0 28.96 79.395001)">100</text>
     </g>
    </g>
    <g id="ytick_3">
     <g id="line2d_11">
      <path d="M 35.96 54.124478 
L 211 54.124478 
" clip-path="url(#p208a0ad2ea)" style="fill: none; stroke-dasharray: 2.96,1.28; stroke-dashoffset: 0; stroke: var(--grid-color); stroke-width: 0.8"/>
     </g>
     <g id="line2d_12">
      <g>
       <use xlink:href="#m803f5d9ff6" x="35.96" y="54.124478" style="fill: var(--fg-color); stroke: var(--fg-color); stroke-width: 0.8"/>
      </g>
     </g>
     <g id="text_6">
      <text style="font-size: 7px; font-family: 'DejaVu Sans', 'Bitstream Vera Sans', 'Computer Modern Sans Serif', 'Lucida Grande', 'Verdana', 'Geneva', 'Lucid', 'Arial', 'Helvetica', 'Avant Garde', sans-serif; text-anchor: end; fill: var(--fg-color)" x="28.96" y="56.783658" transform="rotate(-0 28.96 56.783658)">200</text>
     </g>
    </g>
    <g id="ytick_4">
     <g id="line2d_13">
      <path d="M 35.96 31.513134 
L 211 31.513134 
" clip-path="url(#p208a0ad2ea)" style="fill: none; stroke-dasharray: 2.96,1.28; stroke-dashoffset: 0; stroke: var(--grid-color); stroke-width: 0.8"/>
     </g>
     <g id="line2d_14">
      <g>
       <use xlink:href="#m803f5d9ff6" x="35.96" y="31.513134" style="fill: var(--fg-color); stroke: var(--fg-color); stroke-width: 0.8"/>
      </g>
     </g>
     <g id="text_7">
      <text style="font-size: 7px; font-family: 'DejaVu Sans', 'Bitstream Vera Sans', 'Computer Modern Sans Serif', 'Lucida Grande', 'Verdana', 'Geneva', 'Lucid', 'Arial', 'Helvetica', 'Avant Garde', sans-serif; text-anchor: end; fill: var(--fg-color)" x="28.96" y="34.172314" transform="rotate(-0 28.96 34.172314)">300</text>
     </g>
    </g>
    <g id="ytick_5">
     <g id="line2d_15">
      <path d="M 35.96 8.901791 
L 211 8.901791 
" clip-path="url(#p208a0ad2ea)" style="fill: none; stroke-dasharray: 2.96,1.28; stroke-dashoffset: 0; stroke: var(--grid-color); stroke-width: 0.8"/>
     </g>
     <g id="line2d_16">
      <g>
       <use xlink:href="#m803f5d9ff6" x="35.96" y="8.901791" style="fill: var(--fg-color); stroke: var(--fg-color); stroke-width: 0.8"/>
      </g>
     </g>
     <g id="text_8">
      <text style="font-size: 7px; font-family: 'DejaVu Sans', 'Bitstream Vera Sans', 'Computer Modern Sans Serif', 'Lucida Grande', 'Verdana', 'Geneva', 'Lucid', 'Arial', 'Helvetica', 'Avant Garde', sans-serif; text-anchor: end; fill: var(--fg-color)" x="28.96" y="11.560971" transform="rotate(-0 28.96 11.560971)">400</text>
     </g>
    </g>
    <g id="text_9">
     <text style="font-size: 7px; font-family: 'DejaVu Sans', 'Bitstream Vera Sans', 'Computer Modern Sans Serif', 'Lucida Grande', 'Verdana', 'Geneva', 'Lucid', 'Arial', 'Helvetica', 'Avant Garde', sans-serif; text-anchor: middle; fill: var(--fg-color)" x="9.917109" y="54.2" transform="rotate(-90 9.917109 54.2)">ms</text>
    </g>
   </g>
   <g id="line2d_17">
    <path d="M 43.916364 39.200991 
L 44.494523 42.635881 
L 45.427166 36.927647 
L 46.359808 43.053738 
L 47.292453 18.313084 
L 48.22509 44.683564 
L 49.157727 29.194793 
L 50.090359 23.141963 
L 51.023007 42.976407 
L 51.95565 37.654375 
L 52.88829 29.145275 
L 53.82093 26.101788 
L 54.753566 38.335655 
L 55.686208 25.129952 
L 56.618849 19.661399 
L 57.551483 36.029976 
L 58.484126 40.947265 
L 59.416765 43.308342 
L 60.349406 28.286496 
L 61.282045 14.82845 
L 62.214684 25.569291 
L 63.147327 35.094319 
L 64.07996 33.131881 
L 65.012598 31.907024 
L 65.945245 28.728774 
L 66.877884 32.878181 
L 67.810526 23.174523 
L 68.743162 28.6935 
L 69.675784 24.52442 
L 70.608443 31.433316 
L 71.541078 29.511804 
L 72.473724 33.113791 
L 73.406361 39.171144 
L 74.339003 15.213295 
L 75.271637 42.166469 
L 76.204286 27.168591 
L 77.136912 33.143638 
L 78.069558 30.994882 
L 79.002199 30.659556 
L 79.934841 30.57499 
L 80.867465 9.472727 
L 81.800118 20.043983 
L 82.732742 28.959183 
L 83.665398 33.722715 
L 84.598038 34.673296 
L 85.53068 21.858995 
L 86.463316 24.02991 
L 87.395962 21.755435 
L 96.913595 31.026764 
L 97.655282 33.143865 
L 98.587939 19.862866 
L 99.520578 31.408218 
L 100.453222 10.791873 
L 101.385859 17.829428 
L 102.318497 38.858882 
L 103.251135 43.021856 
L 104.183773 46.473026 
L 105.116412 26.049556 
L 106.049054 24.030136 
L 106.981691 24.764327 
L 107.914333 34.95752 
L 108.846974 40.201317 
L 109.779613 25.133118 
L 110.71225 26.876452 
L 111.644893 32.964331 
L 112.57753 38.720726 
L 113.510173 29.411636 
L 114.442814 38.46047 
L 115.37545 49.042126 
L 116.308095 39.729418 
L 117.240726 36.872927 
L 118.173367 32.931092 
L 119.106014 29.214239 
L 120.038653 40.62935 
L 120.971293 17.598566 
L 121.903926 24.956071 
L 122.836569 38.293598 
L 123.769209 39.867121 
L 124.701847 24.739002 
L 125.634489 32.832732 
L 129.365046 33.00277 
L 130.297692 39.596464 
L 131.230328 38.14685 
L 132.162968 30.082289 
L 133.095609 27.913635 
L 134.028248 34.535819 
L 134.960891 31.705557 
L 135.893512 33.558557 
L 136.826165 36.427484 
L 137.75881 35.645131 
L 138.691446 30.676289 
L 139.624089 31.464972 
L 140.556726 30.940163 
L 141.489366 37.22996 
L 142.422003 35.217551 
L 143.354646 28.696439 
L 144.287298 30.714502 
L 145.219926 28.249187 
L 146.152567 19.60894 
L 147.085204 29.207908 
L 148.017844 29.876978 
L 148.950485 17.671374 
L 149.883123 28.116685 
L 150.815765 22.401441 
L 151.7484 20.397398 
L 179.727656 20.397398 
L 188.43171 31.948177 
L 189.054038 33.245616 
L 189.986678 40.884858 
L 190.919315 33.055906 
L 191.851955 28.170273 
L 192.7846 29.360535 
L 193.717237 35.394598 
L 194.649875 34.147582 
L 195.582513 16.999365 
L 196.515156 38.639778 
L 197.447798 17.844351 
L 198.380437 28.779197 
L 199.313081 30.333501 
L 200.245713 31.93868 
L 201.178356 21.235827 
L 202.110995 42.417907 
L 203.043636 20.115661 
" clip-path="url(#p208a0ad2ea)" style="fill: none; stroke: #339af0; stroke-width: 1.2; stroke-linecap: square"/>
   </g>
   <g id="line2d_18">
    <path d="M 43.916364 98.884763 
L 44.494523 98.880467 
L 45.427166 98.91755 
L 46.359808 98.892677 
L 47.292453 98.896295 
L 48.22509 98.902174 
L 49.157727 98.903531 
L 50.090359 98.909862 
L 51.023007 98.913254 
L 51.95565 98.908053 
L 52.88829 98.904661 
L 53.82093 98.899235 
L 54.753566 98.895617 
L 55.686208 98.874136 
L 56.618849 98.89019 
L 57.551483 98.888155 
L 58.484126 98.887251 
L 59.416765 98.905114 
L 60.349406 98.900365 
L 61.282045 98.896974 
L 62.214684 98.894034 
L 63.147327 98.909636 
L 64.07996 98.872553 
L 65.012598 98.911219 
L 65.945245 98.89313 
L 66.877884 98.888155 
L 67.810526 98.899913 
L 68.743162 98.845194 
L 69.675784 98.910766 
L 70.608443 98.911671 
L 71.541078 98.887929 
L 72.473724 98.876623 
L 73.406361 98.894712 
L 74.339003 98.889964 
L 75.271637 98.906244 
L 76.204286 98.888833 
L 77.136912 98.886346 
L 78.069558 98.906018 
L 79.002199 98.907601 
L 79.934841 98.90127 
L 80.867465 98.89019 
L 81.800118 98.898782 
L 82.732742 98.908958 
L 83.665398 98.879563 
L 84.598038 98.8972 
L 85.53068 98.898782 
L 86.463316 98.924559 
L 87.395962 98.877302 
L 96.913595 98.900817 
L 97.655282 98.915515 
L 98.587939 98.658424 
L 99.520578 98.927273 
L 100.453222 98.906696 
L 101.385859 98.915515 
L 102.318497 98.758818 
L 103.251135 98.759723 
L 104.183773 98.776003 
L 105.116412 98.699576 
L 106.049054 98.756557 
L 106.981691 98.780525 
L 107.914333 98.75814 
L 108.846974 98.747513 
L 109.779613 98.738694 
L 110.71225 98.742538 
L 111.644893 98.725806 
L 112.57753 98.696185 
L 113.510173 98.690532 
L 114.442814 98.780073 
L 115.37545 98.792961 
L 116.308095 98.732363 
L 117.240726 98.59579 
L 118.173367 98.764923 
L 119.106014 98.76334 
L 120.038653 98.776681 
L 120.971293 98.719701 
L 121.903926 98.706812 
L 122.836569 98.699803 
L 123.769209 98.745025 
L 124.701847 98.687366 
L 125.634489 98.73485 
L 129.365046 98.61908 
L 130.297692 98.73078 
L 131.230328 98.709978 
L 132.162968 98.710656 
L 133.095609 98.662268 
L 134.028248 98.700707 
L 134.960891 98.705455 
L 135.893512 98.708847 
L 136.826165 98.724901 
L 137.75881 98.716535 
L 138.691446 98.712465 
L 139.624089 98.725806 
L 140.556726 98.740051 
L 141.489366 98.701385 
L 142.422003 98.712239 
L 143.354646 98.706586 
L 144.287298 98.657746 
L 145.219926 98.685557 
L 146.152567 98.723771 
L 147.085204 98.696637 
L 148.017844 98.664077 
L 148.950485 98.524791 
L 149.883123 98.704325 
L 150.815765 98.621115 
L 151.7484 98.627446 
L 179.727656 98.627446 
L 188.43171 98.725127 
L 189.054038 98.639656 
L 189.986678 98.732589 
L 190.919315 98.718118 
L 191.851955 98.737564 
L 192.7846 98.746608 
L 193.717237 98.724223 
L 194.649875 98.747739 
L 195.582513 98.708395 
L 196.515156 98.764923 
L 197.447798 98.736659 
L 198.380437 98.674252 
L 199.313081 98.743443 
L 200.245713 98.743216 
L 201.178356 98.680583 
L 202.110995 98.524565 
L 203.043636 98.712917 
" clip-path="url(#p208a0ad2ea)" style="fill: none; stroke: #ff6b6b; stroke-width: 1.2; stroke-linecap: square"/>
   </g>
   <g id="patch_3">
    <path d="M 35.96 103.4 
L 35.96 5 
" style="fill: none; stroke: var(--fg-color); stroke-width: 0.8; stroke-linejoin: miter; stroke-linecap: square"/>
   </g>
   <g id="patch_4">
    <path d="M 35.96 103.4 
L 211 103.4 
" style="fill: none; stroke: var(--fg-color); stroke-width: 0.8; stroke-linejoin: miter; stroke-linecap: square"/>
   </g>
  </g>
 </g>
 <defs>
  <clipPath id="p208a0ad2ea">
   <rect x="35.96" y="5" width="175.04" height="98.4"/>
  </clipPath>
 </defs>
</svg>
