<?xml version="1.0" encoding="utf-8" standalone="no"?>
<!DOCTYPE svg PUBLIC "-//W3C//DTD SVG 1.1//EN"
  "http://www.w3.org/Graphics/SVG/1.1/DTD/svg11.dtd">
<svg xmlns:xlink="http://www.w3.org/1999/xlink" width="216pt" height="122.4pt" viewBox="0 0 216 122.4" xmlns="http://www.w3.org/2000/svg" version="1.1">
  <style>
    :root {
      --fg-color: #212529;
      --grid-color: rgba(33, 37, 41, 0.1);
    }
    @media (prefers-color-scheme: dark) {
      :root {
        --fg-color: #dee2e6;
        --grid-color: rgba(248, 249, 250, 0.15);
      }
    }
  </style>

 <metadata>
  <rdf:RDF xmlns:dc="http://purl.org/dc/elements/1.1/" xmlns:cc="http://creativecommons.org/ns#" xmlns:rdf="http://www.w3.org/1999/02/22-rdf-syntax-ns#">
   <cc:Work>
    <dc:type rdf:resource="http://purl.org/dc/dcmitype/StillImage"/>
    <dc:date>2026-06-30T15:37:25.227955</dc:date>
    <dc:format>image/svg+xml</dc:format>
    <dc:creator>
     <cc:Agent>
      <dc:title>Matplotlib v3.11.0, https://matplotlib.org/</dc:title>
     </cc:Agent>
    </dc:creator>
   </cc:Work>
  </rdf:RDF>
 </metadata>
 <defs>
  <style type="text/css">*{stroke-linejoin: round; stroke-linecap: butt}</style>
 </defs>
 <g id="figure_1">
  <g id="patch_1">
   <path d="M 0 122.4 
L 216 122.4 
L 216 0 
L 0 0 
L 0 122.4 
z
" style="fill: none; opacity: 0"/>
  </g>
  <g id="axes_1">
   <g id="patch_2">
    <path d="M 35.96 103.4 
L 211 103.4 
L 211 5 
L 35.96 5 
L 35.96 103.4 
z
" style="fill: none; opacity: 0"/>
   </g>
   <g id="matplotlib.axis_1">
    <g id="xtick_1">
     <g id="line2d_1">
      <path d="M 69.784035 103.4 
L 69.784035 5 
" clip-path="url(#pd863f37fde)" style="fill: none; stroke-dasharray: 2.96,1.28; stroke-dashoffset: 0; stroke: var(--grid-color); stroke-width: 0.8"/>
     </g>
     <g id="line2d_2">
      <defs>
       <path id="m4f96042403" d="M 0 0 
L 0 3.5 
" style="stroke: var(--fg-color); stroke-width: 0.8"/>
      </defs>
      <g>
       <use xlink:href="#m4f96042403" x="69.784035" y="103.4" style="fill: var(--fg-color); stroke: var(--fg-color); stroke-width: 0.8"/>
      </g>
     </g>
     <g id="text_1">
      <text style="font-size: 7px; font-family: 'DejaVu Sans', 'Bitstream Vera Sans', 'Computer Modern Sans Serif', 'Lucida Grande', 'Verdana', 'Geneva', 'Lucid', 'Arial', 'Helvetica', 'Avant Garde', sans-serif; text-anchor: middle; fill: var(--fg-color)" x="69.784035" y="115.718359" transform="rotate(-0 69.784035 115.718359)">02/2026</text>
     </g>
    </g>
    <g id="xtick_2">
     <g id="line2d_3">
      <path d="M 122.345302 103.4 
L 122.345302 5 
" clip-path="url(#pd863f37fde)" style="fill: none; stroke-dasharray: 2.96,1.28; stroke-dashoffset: 0; stroke: var(--grid-color); stroke-width: 0.8"/>
     </g>
     <g id="line2d_4">
      <g>
       <use xlink:href="#m4f96042403" x="122.345302" y="103.4" style="fill: var(--fg-color); stroke: var(--fg-color); stroke-width: 0.8"/>
      </g>
     </g>
     <g id="text_2">
      <text style="font-size: 7px; font-family: 'DejaVu Sans', 'Bitstream Vera Sans', 'Computer Modern Sans Serif', 'Lucida Grande', 'Verdana', 'Geneva', 'Lucid', 'Arial', 'Helvetica', 'Avant Garde', sans-serif; text-anchor: middle; fill: var(--fg-color)" x="122.345302" y="115.718359" transform="rotate(-0 122.345302 115.718359)">04/2026</text>
     </g>
    </g>
    <g id="xtick_3">
     <g id="line2d_5">
      <path d="M 176.688307 103.4 
L 176.688307 5 
" clip-path="url(#pd863f37fde)" style="fill: none; stroke-dasharray: 2.96,1.28; stroke-dashoffset: 0; stroke: var(--grid-color); stroke-width: 0.8"/>
     </g>
     <g id="line2d_6">
      <g>
       <use xlink:href="#m4f96042403" x="176.688307" y="103.4" style="fill: var(--fg-color); stroke: var(--fg-color); stroke-width: 0.8"/>
      </g>
     </g>
     <g id="text_3">
      <text style="font-size: 7px; font-family: 'DejaVu Sans', 'Bitstream Vera Sans', 'Computer Modern Sans Serif', 'Lucida Grande', 'Verdana', 'Geneva', 'Lucid', 'Arial', 'Helvetica', 'Avant Garde', sans-serif; text-anchor: middle; fill: var(--fg-color)" x="176.688307" y="115.718359" transform="rotate(-0 176.688307 115.718359)">06/2026</text>
     </g>
    </g>
   </g>
   <g id="matplotlib.axis_2">
    <g id="ytick_1">
     <g id="line2d_7">
      <path d="M 35.96 99.70891 
L 211 99.70891 
" clip-path="url(#pd863f37fde)" style="fill: none; stroke-dasharray: 2.96,1.28; stroke-dashoffset: 0; stroke: var(--grid-color); stroke-width: 0.8"/>
     </g>
     <g id="line2d_8">
      <defs>
       <path id="me73e691ff8" d="M 0 0 
L -3.5 0 
" style="stroke: var(--fg-color); stroke-width: 0.8"/>
      </defs>
      <g>
       <use xlink:href="#me73e691ff8" x="35.96" y="99.70891" style="fill: var(--fg-color); stroke: var(--fg-color); stroke-width: 0.8"/>
      </g>
     </g>
     <g id="text_4">
      <text style="font-size: 7px; font-family: 'DejaVu Sans', 'Bitstream Vera Sans', 'Computer Modern Sans Serif', 'Lucida Grande', 'Verdana', 'Geneva', 'Lucid', 'Arial', 'Helvetica', 'Avant Garde', sans-serif; text-anchor: end; fill: var(--fg-color)" x="28.96" y="102.368089" transform="rotate(-0 28.96 102.368089)">0</text>
     </g>
    </g>
    <g id="ytick_2">
     <g id="line2d_9">
      <path d="M 35.96 77.376427 
L 211 77.376427 
" clip-path="url(#pd863f37fde)" style="fill: none; stroke-dasharray: 2.96,1.28; stroke-dashoffset: 0; stroke: var(--grid-color); stroke-width: 0.8"/>
     </g>
     <g id="line2d_10">
      <g>
       <use xlink:href="#me73e691ff8" x="35.96" y="77.376427" style="fill: var(--fg-color); stroke: var(--fg-color); stroke-width: 0.8"/>
      </g>
     </g>
     <g id="text_5">
      <text style="font-size: 7px; font-family: 'DejaVu Sans', 'Bitstream Vera Sans', 'Computer Modern Sans Serif', 'Lucida Grande', 'Verdana', 'Geneva', 'Lucid', 'Arial', 'Helvetica', 'Avant Garde', sans-serif; text-anchor: end; fill: var(--fg-color)" x="28.96" y="80.035607" transform="rotate(-0 28.96 80.035607)">100</text>
     </g>
    </g>
    <g id="ytick_3">
     <g id="line2d_11">
      <path d="M 35.96 55.043945 
L 211 55.043945 
" clip-path="url(#pd863f37fde)" style="fill: none; stroke-dasharray: 2.96,1.28; stroke-dashoffset: 0; stroke: var(--grid-color); stroke-width: 0.8"/>
     </g>
     <g id="line2d_12">
      <g>
       <use xlink:href="#me73e691ff8" x="35.96" y="55.043945" style="fill: var(--fg-color); stroke: var(--fg-color); stroke-width: 0.8"/>
      </g>
     </g>
     <g id="text_6">
      <text style="font-size: 7px; font-family: 'DejaVu Sans', 'Bitstream Vera Sans', 'Computer Modern Sans Serif', 'Lucida Grande', 'Verdana', 'Geneva', 'Lucid', 'Arial', 'Helvetica', 'Avant Garde', sans-serif; text-anchor: end; fill: var(--fg-color)" x="28.96" y="57.703124" transform="rotate(-0 28.96 57.703124)">200</text>
     </g>
    </g>
    <g id="ytick_4">
     <g id="line2d_13">
      <path d="M 35.96 32.711462 
L 211 32.711462 
" clip-path="url(#pd863f37fde)" style="fill: none; stroke-dasharray: 2.96,1.28; stroke-dashoffset: 0; stroke: var(--grid-color); stroke-width: 0.8"/>
     </g>
     <g id="line2d_14">
      <g>
       <use xlink:href="#me73e691ff8" x="35.96" y="32.711462" style="fill: var(--fg-color); stroke: var(--fg-color); stroke-width: 0.8"/>
      </g>
     </g>
     <g id="text_7">
      <text style="font-size: 7px; font-family: 'DejaVu Sans', 'Bitstream Vera Sans', 'Computer Modern Sans Serif', 'Lucida Grande', 'Verdana', 'Geneva', 'Lucid', 'Arial', 'Helvetica', 'Avant Garde', sans-serif; text-anchor: end; fill: var(--fg-color)" x="28.96" y="35.370642" transform="rotate(-0 28.96 35.370642)">300</text>
     </g>
    </g>
    <g id="ytick_5">
     <g id="line2d_15">
      <path d="M 35.96 10.378979 
L 211 10.378979 
" clip-path="url(#pd863f37fde)" style="fill: none; stroke-dasharray: 2.96,1.28; stroke-dashoffset: 0; stroke: var(--grid-color); stroke-width: 0.8"/>
     </g>
     <g id="line2d_16">
      <g>
       <use xlink:href="#me73e691ff8" x="35.96" y="10.378979" style="fill: var(--fg-color); stroke: var(--fg-color); stroke-width: 0.8"/>
      </g>
     </g>
     <g id="text_8">
      <text style="font-size: 7px; font-family: 'DejaVu Sans', 'Bitstream Vera Sans', 'Computer Modern Sans Serif', 'Lucida Grande', 'Verdana', 'Geneva', 'Lucid', 'Arial', 'Helvetica', 'Avant Garde', sans-serif; text-anchor: end; fill: var(--fg-color)" x="28.96" y="13.038159" transform="rotate(-0 28.96 13.038159)">400</text>
     </g>
    </g>
    <g id="text_9">
     <text style="font-size: 7px; font-family: 'DejaVu Sans', 'Bitstream Vera Sans', 'Computer Modern Sans Serif', 'Lucida Grande', 'Verdana', 'Geneva', 'Lucid', 'Arial', 'Helvetica', 'Avant Garde', sans-serif; text-anchor: middle; fill: var(--fg-color)" x="9.917109" y="54.2" transform="rotate(-90 9.917109 54.2)">ms</text>
    </g>
   </g>
   <g id="line2d_17">
    <path d="M 43.916364 41.047061 
L 44.468628 43.312691 
L 45.3595 43.146984 
L 46.250371 40.9852 
L 48.032112 44.323013 
L 48.922979 42.052023 
L 49.81384 43.257307 
L 50.704717 46.709239 
L 51.595589 39.199718 
L 52.486458 44.954576 
L 53.377327 38.885053 
L 54.268192 44.311623 
L 55.159063 44.713161 
L 56.049934 42.2883 
L 56.940797 42.964305 
L 57.831669 45.663632 
L 58.722538 41.158723 
L 59.613407 44.373038 
L 60.504275 40.246218 
L 61.395144 40.55262 
L 62.286016 39.623589 
L 63.176879 44.086065 
L 64.067746 45.405915 
L 65.84949 39.570661 
L 66.740361 45.522714 
L 67.631226 44.953682 
L 68.522078 24.993356 
L 69.412965 42.001328 
L 70.30383 42.535744 
L 71.194705 38.052722 
L 72.085571 32.552231 
L 72.976442 44.299564 
L 73.867306 43.473932 
L 74.758184 43.574205 
L 75.649039 43.156141 
L 76.539914 46.581274 
L 77.430784 43.282096 
L 78.321655 41.279542 
L 79.212509 44.252889 
L 80.103391 21.794451 
L 80.994245 41.727308 
L 81.885129 43.696363 
L 82.775998 44.023534 
L 83.666869 42.698102 
L 84.557735 44.034031 
L 85.44861 40.228129 
L 94.53997 37.690042 
L 95.248438 42.892617 
L 97.030192 36.860167 
L 97.921065 43.131575 
L 98.811931 39.393787 
L 100.593666 45.596188 
L 102.375401 39.866119 
L 103.266272 39.040488 
L 104.157138 43.885296 
L 105.048009 42.512519 
L 105.93888 42.269095 
L 106.829748 46.962266 
L 107.720614 44.307827 
L 108.611487 43.763808 
L 109.502352 45.593061 
L 110.393224 41.354579 
L 111.284094 43.086017 
L 112.17496 42.230683 
L 113.065834 42.246539 
L 113.956695 44.015271 
L 114.847564 44.486487 
L 115.738441 43.315595 
L 116.629309 44.982714 
L 117.520178 41.159393 
L 119.301913 43.071501 
L 120.192782 42.83098 
L 121.083649 41.899492 
L 121.97452 44.598149 
L 125.537994 42.278028 
L 126.428869 39.826591 
L 127.319734 40.103067 
L 128.210603 42.269541 
L 129.101474 9.472727 
L 129.992342 40.375523 
L 130.883214 43.138275 
L 131.774065 40.507062 
L 132.664946 44.375718 
L 133.55582 45.322168 
L 134.446686 39.785722 
L 135.337558 41.931651 
L 136.228424 39.57535 
L 137.119294 44.221847 
L 138.010159 44.141897 
L 138.901032 42.077482 
L 139.791912 37.444385 
L 140.68277 23.249412 
L 141.57364 40.571826 
L 142.464507 33.554737 
L 143.355376 40.420188 
L 144.246246 36.652475 
L 145.137113 40.171851 
L 146.027984 41.267259 
L 146.918849 35.717191 
L 173.644977 35.717191 
L 181.959197 36.61719 
L 182.553652 46.06182 
L 183.444521 40.971801 
L 184.335387 41.42515 
L 185.226256 34.272726 
L 186.117131 40.46932 
L 187.007996 40.079171 
L 187.898864 36.880713 
L 189.680603 40.296466 
L 190.571474 42.349491 
L 191.462343 41.635299 
L 192.353215 38.774284 
L 193.244077 40.841602 
L 195.025817 42.345248 
L 195.916688 37.726221 
L 196.807557 41.052198 
L 197.698426 40.807657 
L 198.589295 42.83031 
L 199.480162 38.336121 
L 200.371032 44.247529 
L 201.261898 45.369513 
L 202.152766 39.288155 
L 203.043636 43.959217 
L 203.043636 43.959217 
" clip-path="url(#pd863f37fde)" style="fill: none; stroke: #339af0; stroke-width: 1.2; stroke-linecap: square"/>
   </g>
   <g id="line2d_18">
    <path d="M 43.916364 97.931467 
L 44.468628 98.516355 
L 45.3595 97.847051 
L 46.250371 98.862732 
L 47.141245 97.547795 
L 48.032112 98.922136 
L 48.922979 97.461369 
L 49.81384 98.057646 
L 50.704717 97.759284 
L 51.595589 98.257075 
L 52.486458 97.937274 
L 53.377327 98.160375 
L 54.268192 98.091591 
L 55.159063 97.793676 
L 56.049934 97.805512 
L 56.940797 98.65504 
L 57.831669 98.74772 
L 58.722538 98.077968 
L 59.613407 98.331442 
L 60.504275 98.157472 
L 61.395144 98.438191 
L 62.286016 98.434618 
L 63.176879 98.093378 
L 64.067746 98.434395 
L 64.958622 98.609928 
L 65.84949 98.104991 
L 67.631226 98.81293 
L 68.522078 98.289234 
L 70.30383 97.620822 
L 71.194705 98.21978 
L 72.085571 98.159705 
L 72.976442 98.473477 
L 73.867306 97.77916 
L 74.758184 98.725387 
L 75.649039 98.034197 
L 76.539914 98.497819 
L 77.430784 98.244569 
L 78.321655 97.455339 
L 79.212509 98.792385 
L 80.103391 98.662409 
L 80.994245 98.109234 
L 81.885129 98.238986 
L 82.775998 98.607918 
L 83.666869 98.719357 
L 85.44861 98.608812 
L 94.53997 98.506975 
L 95.248438 98.724717 
L 96.139324 98.460077 
L 97.030192 98.762682 
L 97.921065 97.221518 
L 98.811931 98.266455 
L 99.702798 97.986182 
L 100.593666 98.581119 
L 101.484533 98.480623 
L 102.375401 97.193379 
L 103.266272 98.670226 
L 104.157138 98.182038 
L 105.048009 97.349483 
L 106.829748 97.669954 
L 107.720614 98.582906 
L 108.611487 97.807522 
L 109.502352 97.735165 
L 110.393224 98.797744 
L 111.284094 98.598539 
L 112.17496 98.236752 
L 113.065834 98.728737 
L 113.956695 98.008291 
L 114.847564 98.471913 
L 115.738441 98.131566 
L 116.629309 98.665089 
L 117.520178 98.716677 
L 118.41104 97.901765 
L 119.301913 98.650573 
L 120.192782 98.026827 
L 121.083649 98.665536 
L 121.97452 97.464495 
L 125.537994 98.885511 
L 126.428869 98.363378 
L 127.319734 98.783898 
L 128.210603 98.539358 
L 129.101474 98.605462 
L 130.883214 98.025934 
L 131.774065 98.071269 
L 132.664946 97.726232 
L 133.55582 98.375214 
L 134.446686 97.779606 
L 135.337558 98.523725 
L 136.228424 97.834544 
L 137.119294 98.538688 
L 138.010159 97.644718 
L 138.901032 97.652981 
L 140.68277 98.544717 
L 141.57364 98.47102 
L 142.464507 98.755759 
L 143.355376 98.66107 
L 144.246246 98.927273 
L 145.137113 97.95715 
L 146.027984 98.461194 
L 146.918849 98.607472 
L 181.959197 98.504742 
L 182.553652 98.188291 
L 183.444521 96.876928 
L 184.335387 98.02705 
L 185.226256 97.704346 
L 186.117131 98.444668 
L 187.007996 98.385487 
L 187.898864 98.792385 
L 188.789731 97.530823 
L 189.680603 97.549359 
L 190.571474 96.767052 
L 191.462343 97.746108 
L 193.244077 98.294817 
L 194.134949 96.661866 
L 195.025817 98.085785 
L 195.916688 97.989755 
L 197.698426 98.739903 
L 198.589295 98.326752 
L 199.480162 97.34658 
L 200.371032 98.300847 
L 201.261898 98.192311 
L 202.152766 98.860722 
L 203.043636 97.540872 
L 203.043636 97.540872 
" clip-path="url(#pd863f37fde)" style="fill: none; stroke: #ff6b6b; stroke-width: 1.2; stroke-linecap: square"/>
   </g>
   <g id="patch_3">
    <path d="M 35.96 103.4 
L 35.96 5 
" style="fill: none; stroke: var(--fg-color); stroke-width: 0.8; stroke-linejoin: miter; stroke-linecap: square"/>
   </g>
   <g id="patch_4">
    <path d="M 35.96 103.4 
L 211 103.4 
" style="fill: none; stroke: var(--fg-color); stroke-width: 0.8; stroke-linejoin: miter; stroke-linecap: square"/>
   </g>
  </g>
 </g>
 <defs>
  <clipPath id="pd863f37fde">
   <rect x="35.96" y="5" width="175.04" height="98.4"/>
  </clipPath>
 </defs>
</svg>
