<?xml version="1.0" encoding="utf-8" standalone="no"?>
<!DOCTYPE svg PUBLIC "-//W3C//DTD SVG 1.1//EN"
  "http://www.w3.org/Graphics/SVG/1.1/DTD/svg11.dtd">
<svg xmlns:xlink="http://www.w3.org/1999/xlink" width="216pt" height="122.4pt" viewBox="0 0 216 122.4" xmlns="http://www.w3.org/2000/svg" version="1.1">
  <style>
    :root {
      --fg-color: #212529;
      --grid-color: rgba(33, 37, 41, 0.1);
    }
    @media (prefers-color-scheme: dark) {
      :root {
        --fg-color: #dee2e6;
        --grid-color: rgba(248, 249, 250, 0.15);
      }
    }
  </style>

 <metadata>
  <rdf:RDF xmlns:dc="http://purl.org/dc/elements/1.1/" xmlns:cc="http://creativecommons.org/ns#" xmlns:rdf="http://www.w3.org/1999/02/22-rdf-syntax-ns#">
   <cc:Work>
    <dc:type rdf:resource="http://purl.org/dc/dcmitype/StillImage"/>
    <dc:date>2026-06-30T04:49:08.146448</dc:date>
    <dc:format>image/svg+xml</dc:format>
    <dc:creator>
     <cc:Agent>
      <dc:title>Matplotlib v3.11.0, https://matplotlib.org/</dc:title>
     </cc:Agent>
    </dc:creator>
   </cc:Work>
  </rdf:RDF>
 </metadata>
 <defs>
  <style type="text/css">*{stroke-linejoin: round; stroke-linecap: butt}</style>
 </defs>
 <g id="figure_1">
  <g id="patch_1">
   <path d="M 0 122.4 
L 216 122.4 
L 216 0 
L 0 0 
L 0 122.4 
z
" style="fill: none; opacity: 0"/>
  </g>
  <g id="axes_1">
   <g id="patch_2">
    <path d="M 35.96 103.4 
L 211 103.4 
L 211 5 
L 35.96 5 
L 35.96 103.4 
z
" style="fill: none; opacity: 0"/>
   </g>
   <g id="matplotlib.axis_1">
    <g id="xtick_1">
     <g id="line2d_1">
      <path d="M 70.996911 103.4 
L 70.996911 5 
" clip-path="url(#pa77966a4a4)" style="fill: none; stroke-dasharray: 2.96,1.28; stroke-dashoffset: 0; stroke: var(--grid-color); stroke-width: 0.8"/>
     </g>
     <g id="line2d_2">
      <defs>
       <path id="m2f60510081" d="M 0 0 
L 0 3.5 
" style="stroke: var(--fg-color); stroke-width: 0.8"/>
      </defs>
      <g>
       <use xlink:href="#m2f60510081" x="70.996911" y="103.4" style="fill: var(--fg-color); stroke: var(--fg-color); stroke-width: 0.8"/>
      </g>
     </g>
     <g id="text_1">
      <text style="font-size: 7px; font-family: 'DejaVu Sans', 'Bitstream Vera Sans', 'Computer Modern Sans Serif', 'Lucida Grande', 'Verdana', 'Geneva', 'Lucid', 'Arial', 'Helvetica', 'Avant Garde', sans-serif; text-anchor: middle; fill: var(--fg-color)" x="70.996911" y="115.718359" transform="rotate(-0 70.996911 115.718359)">02/2026</text>
     </g>
    </g>
    <g id="xtick_2">
     <g id="line2d_3">
      <path d="M 126.022656 103.4 
L 126.022656 5 
" clip-path="url(#pa77966a4a4)" style="fill: none; stroke-dasharray: 2.96,1.28; stroke-dashoffset: 0; stroke: var(--grid-color); stroke-width: 0.8"/>
     </g>
     <g id="line2d_4">
      <g>
       <use xlink:href="#m2f60510081" x="126.022656" y="103.4" style="fill: var(--fg-color); stroke: var(--fg-color); stroke-width: 0.8"/>
      </g>
     </g>
     <g id="text_2">
      <text style="font-size: 7px; font-family: 'DejaVu Sans', 'Bitstream Vera Sans', 'Computer Modern Sans Serif', 'Lucida Grande', 'Verdana', 'Geneva', 'Lucid', 'Arial', 'Helvetica', 'Avant Garde', sans-serif; text-anchor: middle; fill: var(--fg-color)" x="126.022656" y="115.718359" transform="rotate(-0 126.022656 115.718359)">04/2026</text>
     </g>
    </g>
    <g id="xtick_3">
     <g id="line2d_5">
      <path d="M 182.913681 103.4 
L 182.913681 5 
" clip-path="url(#pa77966a4a4)" style="fill: none; stroke-dasharray: 2.96,1.28; stroke-dashoffset: 0; stroke: var(--grid-color); stroke-width: 0.8"/>
     </g>
     <g id="line2d_6">
      <g>
       <use xlink:href="#m2f60510081" x="182.913681" y="103.4" style="fill: var(--fg-color); stroke: var(--fg-color); stroke-width: 0.8"/>
      </g>
     </g>
     <g id="text_3">
      <text style="font-size: 7px; font-family: 'DejaVu Sans', 'Bitstream Vera Sans', 'Computer Modern Sans Serif', 'Lucida Grande', 'Verdana', 'Geneva', 'Lucid', 'Arial', 'Helvetica', 'Avant Garde', sans-serif; text-anchor: middle; fill: var(--fg-color)" x="182.913681" y="115.718359" transform="rotate(-0 182.913681 115.718359)">06/2026</text>
     </g>
    </g>
   </g>
   <g id="matplotlib.axis_2">
    <g id="ytick_1">
     <g id="line2d_7">
      <path d="M 35.96 99.618933 
L 211 99.618933 
" clip-path="url(#pa77966a4a4)" style="fill: none; stroke-dasharray: 2.96,1.28; stroke-dashoffset: 0; stroke: var(--grid-color); stroke-width: 0.8"/>
     </g>
     <g id="line2d_8">
      <defs>
       <path id="md31958ccd2" d="M 0 0 
L -3.5 0 
" style="stroke: var(--fg-color); stroke-width: 0.8"/>
      </defs>
      <g>
       <use xlink:href="#md31958ccd2" x="35.96" y="99.618933" style="fill: var(--fg-color); stroke: var(--fg-color); stroke-width: 0.8"/>
      </g>
     </g>
     <g id="text_4">
      <text style="font-size: 7px; font-family: 'DejaVu Sans', 'Bitstream Vera Sans', 'Computer Modern Sans Serif', 'Lucida Grande', 'Verdana', 'Geneva', 'Lucid', 'Arial', 'Helvetica', 'Avant Garde', sans-serif; text-anchor: end; fill: var(--fg-color)" x="28.96" y="102.278113" transform="rotate(-0 28.96 102.278113)">0</text>
     </g>
    </g>
    <g id="ytick_2">
     <g id="line2d_9">
      <path d="M 35.96 81.311344 
L 211 81.311344 
" clip-path="url(#pa77966a4a4)" style="fill: none; stroke-dasharray: 2.96,1.28; stroke-dashoffset: 0; stroke: var(--grid-color); stroke-width: 0.8"/>
     </g>
     <g id="line2d_10">
      <g>
       <use xlink:href="#md31958ccd2" x="35.96" y="81.311344" style="fill: var(--fg-color); stroke: var(--fg-color); stroke-width: 0.8"/>
      </g>
     </g>
     <g id="text_5">
      <text style="font-size: 7px; font-family: 'DejaVu Sans', 'Bitstream Vera Sans', 'Computer Modern Sans Serif', 'Lucida Grande', 'Verdana', 'Geneva', 'Lucid', 'Arial', 'Helvetica', 'Avant Garde', sans-serif; text-anchor: end; fill: var(--fg-color)" x="28.96" y="83.970523" transform="rotate(-0 28.96 83.970523)">50</text>
     </g>
    </g>
    <g id="ytick_3">
     <g id="line2d_11">
      <path d="M 35.96 63.003754 
L 211 63.003754 
" clip-path="url(#pa77966a4a4)" style="fill: none; stroke-dasharray: 2.96,1.28; stroke-dashoffset: 0; stroke: var(--grid-color); stroke-width: 0.8"/>
     </g>
     <g id="line2d_12">
      <g>
       <use xlink:href="#md31958ccd2" x="35.96" y="63.003754" style="fill: var(--fg-color); stroke: var(--fg-color); stroke-width: 0.8"/>
      </g>
     </g>
     <g id="text_6">
      <text style="font-size: 7px; font-family: 'DejaVu Sans', 'Bitstream Vera Sans', 'Computer Modern Sans Serif', 'Lucida Grande', 'Verdana', 'Geneva', 'Lucid', 'Arial', 'Helvetica', 'Avant Garde', sans-serif; text-anchor: end; fill: var(--fg-color)" x="28.96" y="65.662933" transform="rotate(-0 28.96 65.662933)">100</text>
     </g>
    </g>
    <g id="ytick_4">
     <g id="line2d_13">
      <path d="M 35.96 44.696164 
L 211 44.696164 
" clip-path="url(#pa77966a4a4)" style="fill: none; stroke-dasharray: 2.96,1.28; stroke-dashoffset: 0; stroke: var(--grid-color); stroke-width: 0.8"/>
     </g>
     <g id="line2d_14">
      <g>
       <use xlink:href="#md31958ccd2" x="35.96" y="44.696164" style="fill: var(--fg-color); stroke: var(--fg-color); stroke-width: 0.8"/>
      </g>
     </g>
     <g id="text_7">
      <text style="font-size: 7px; font-family: 'DejaVu Sans', 'Bitstream Vera Sans', 'Computer Modern Sans Serif', 'Lucida Grande', 'Verdana', 'Geneva', 'Lucid', 'Arial', 'Helvetica', 'Avant Garde', sans-serif; text-anchor: end; fill: var(--fg-color)" x="28.96" y="47.355344" transform="rotate(-0 28.96 47.355344)">150</text>
     </g>
    </g>
    <g id="ytick_5">
     <g id="line2d_15">
      <path d="M 35.96 26.388574 
L 211 26.388574 
" clip-path="url(#pa77966a4a4)" style="fill: none; stroke-dasharray: 2.96,1.28; stroke-dashoffset: 0; stroke: var(--grid-color); stroke-width: 0.8"/>
     </g>
     <g id="line2d_16">
      <g>
       <use xlink:href="#md31958ccd2" x="35.96" y="26.388574" style="fill: var(--fg-color); stroke: var(--fg-color); stroke-width: 0.8"/>
      </g>
     </g>
     <g id="text_8">
      <text style="font-size: 7px; font-family: 'DejaVu Sans', 'Bitstream Vera Sans', 'Computer Modern Sans Serif', 'Lucida Grande', 'Verdana', 'Geneva', 'Lucid', 'Arial', 'Helvetica', 'Avant Garde', sans-serif; text-anchor: end; fill: var(--fg-color)" x="28.96" y="29.047754" transform="rotate(-0 28.96 29.047754)">200</text>
     </g>
    </g>
    <g id="ytick_6">
     <g id="line2d_17">
      <path d="M 35.96 8.080984 
L 211 8.080984 
" clip-path="url(#pa77966a4a4)" style="fill: none; stroke-dasharray: 2.96,1.28; stroke-dashoffset: 0; stroke: var(--grid-color); stroke-width: 0.8"/>
     </g>
     <g id="line2d_18">
      <g>
       <use xlink:href="#md31958ccd2" x="35.96" y="8.080984" style="fill: var(--fg-color); stroke: var(--fg-color); stroke-width: 0.8"/>
      </g>
     </g>
     <g id="text_9">
      <text style="font-size: 7px; font-family: 'DejaVu Sans', 'Bitstream Vera Sans', 'Computer Modern Sans Serif', 'Lucida Grande', 'Verdana', 'Geneva', 'Lucid', 'Arial', 'Helvetica', 'Avant Garde', sans-serif; text-anchor: end; fill: var(--fg-color)" x="28.96" y="10.740164" transform="rotate(-0 28.96 10.740164)">250</text>
     </g>
    </g>
    <g id="text_10">
     <text style="font-size: 7px; font-family: 'DejaVu Sans', 'Bitstream Vera Sans', 'Computer Modern Sans Serif', 'Lucida Grande', 'Verdana', 'Geneva', 'Lucid', 'Arial', 'Helvetica', 'Avant Garde', sans-serif; text-anchor: middle; fill: var(--fg-color)" x="9.917109" y="54.2" transform="rotate(-90 9.917109 54.2)">ms</text>
    </g>
   </g>
   <g id="line2d_19">
    <path d="M 43.916364 15.1576 
L 44.494523 38.314504 
L 45.427166 41.47476 
L 46.359808 38.188182 
L 47.292453 31.631502 
L 48.22509 40.960317 
L 49.157727 37.279393 
L 50.090359 40.859259 
L 51.023007 34.929065 
L 51.95565 35.120562 
L 52.88829 26.137028 
L 53.82093 31.58976 
L 54.753566 23.717131 
L 55.686208 21.619447 
L 56.618849 29.649522 
L 57.551483 40.012716 
L 58.484126 41.809789 
L 59.416765 35.830164 
L 60.349406 27.601269 
L 61.282045 31.38142 
L 62.214684 40.579519 
L 63.147327 37.848393 
L 64.07996 29.252613 
L 65.012598 38.010598 
L 65.945245 44.554463 
L 66.877884 37.817636 
L 67.810526 31.008677 
L 68.743162 36.817676 
L 69.675784 27.330683 
L 70.608443 33.735776 
L 71.541078 43.656659 
L 72.473724 36.463607 
L 73.406361 26.827224 
L 74.339003 38.692739 
L 75.271637 32.044155 
L 76.204286 20.800365 
L 77.136912 22.197601 
L 78.069558 35.238463 
L 79.002199 40.490544 
L 79.934841 39.832203 
L 80.867465 27.349356 
L 81.800118 39.034725 
L 82.732742 36.70783 
L 83.665398 30.698547 
L 84.598038 31.449524 
L 85.53068 33.432236 
L 86.463316 39.590909 
L 87.395962 38.343796 
L 96.913595 37.235821 
L 97.655282 38.21784 
L 98.587939 24.427831 
L 99.520578 36.013606 
L 100.453222 38.660152 
L 101.385859 28.943948 
L 102.318497 30.852697 
L 103.251135 41.746079 
L 104.183773 44.022079 
L 105.116412 43.034933 
L 106.049054 34.290496 
L 106.981691 31.858882 
L 107.914333 37.167717 
L 108.846974 37.799329 
L 109.779613 22.591946 
L 110.71225 41.583508 
L 111.644893 35.598024 
L 112.57753 36.954617 
L 113.510173 31.644317 
L 114.442814 36.477887 
L 115.37545 36.338017 
L 116.308095 25.609037 
L 117.240726 26.440568 
L 118.173367 24.693657 
L 119.106014 35.433988 
L 120.038653 47.108006 
L 120.971293 31.356522 
L 121.903926 31.875725 
L 122.836569 27.435768 
L 123.769209 32.417996 
L 124.701847 29.767789 
L 125.634489 37.947254 
L 129.365046 34.173694 
L 130.297692 27.433571 
L 131.230328 18.652153 
L 132.162968 40.698519 
L 133.095609 42.474355 
L 134.028248 37.477847 
L 134.960891 26.54309 
L 135.893512 27.345695 
L 136.826165 25.456718 
L 137.75881 30.668522 
L 138.691446 27.80668 
L 139.624089 30.616163 
L 140.556726 40.94384 
L 141.489366 40.032489 
L 142.422003 38.142413 
L 143.354646 30.872835 
L 144.287298 21.794834 
L 145.219926 27.087558 
L 146.152567 22.936861 
L 147.085204 34.033824 
L 148.017844 33.181422 
L 148.950485 14.913377 
L 149.883123 9.472727 
L 150.815765 27.937762 
L 151.7484 23.385397 
L 179.727656 23.385397 
L 188.43171 33.586752 
L 189.054038 26.244676 
L 189.986678 22.724127 
L 190.919315 16.924649 
L 191.851955 31.228735 
L 192.7846 22.391295 
L 193.717237 28.068112 
L 194.649875 18.962283 
L 195.582513 21.360578 
L 196.515156 29.107251 
L 197.447798 42.673908 
L 198.380437 30.542566 
L 199.313081 37.265479 
L 200.245713 22.6487 
L 201.178356 46.901496 
L 202.110995 34.750749 
L 203.043636 26.044025 
" clip-path="url(#pa77966a4a4)" style="fill: none; stroke: #339af0; stroke-width: 1.2; stroke-linecap: square"/>
   </g>
   <g id="line2d_20">
    <path d="M 43.916364 98.830243 
L 44.494523 98.848184 
L 45.427166 98.896516 
L 46.359808 98.842692 
L 47.292453 98.863928 
L 48.22509 98.880039 
L 49.157727 98.876744 
L 50.090359 98.85331 
L 51.023007 98.870519 
L 51.95565 98.120274 
L 52.88829 98.845987 
L 53.82093 98.855141 
L 54.753566 98.845621 
L 55.686208 98.859535 
L 56.618849 98.873815 
L 57.551483 98.863928 
L 58.484126 98.851845 
L 59.416765 98.843424 
L 60.349406 98.863562 
L 61.282045 98.927273 
L 62.214684 98.849649 
L 63.147327 98.796557 
L 64.07996 98.86283 
L 65.012598 98.886264 
L 65.945245 98.858436 
L 66.877884 98.847085 
L 67.810526 98.871252 
L 68.743162 98.850381 
L 69.675784 98.866492 
L 70.608443 98.90091 
L 71.541078 98.920316 
L 72.473724 98.863562 
L 73.406361 98.81999 
L 74.339003 98.828412 
L 75.271637 98.494115 
L 76.204286 98.82951 
L 77.136912 98.86283 
L 78.069558 98.851845 
L 79.002199 98.845621 
L 79.934841 98.91995 
L 80.867465 98.865027 
L 81.800118 98.863562 
L 82.732742 98.837199 
L 83.665398 98.851113 
L 84.598038 98.881138 
L 85.53068 98.900177 
L 86.463316 98.847818 
L 87.395962 98.876378 
L 96.913595 98.878208 
L 97.655282 98.845987 
L 98.587939 98.843058 
L 99.520578 98.841959 
L 100.453222 98.870153 
L 101.385859 98.859535 
L 102.318497 98.844522 
L 103.251135 98.796557 
L 104.183773 98.800584 
L 105.116412 98.820723 
L 106.049054 98.772757 
L 106.981691 98.764701 
L 107.914333 98.799486 
L 108.846974 98.793627 
L 109.779613 98.718566 
L 110.71225 98.840129 
L 111.644893 98.807175 
L 112.57753 98.787769 
L 113.510173 98.812667 
L 114.442814 98.794726 
L 115.37545 98.791064 
L 116.308095 98.795458 
L 117.240726 98.737972 
L 118.173367 98.612016 
L 119.106014 98.786304 
L 120.038653 98.818892 
L 120.971293 98.821455 
L 121.903926 98.779714 
L 122.836569 98.749689 
L 123.769209 98.661813 
L 124.701847 98.720763 
L 125.634489 98.716735 
L 129.365046 98.777517 
L 130.297692 98.74676 
L 131.230328 98.707582 
L 132.162968 98.702089 
L 133.095609 98.833904 
L 134.028248 98.777517 
L 134.960891 98.762138 
L 135.893512 98.743831 
L 136.826165 98.714539 
L 137.75881 98.739071 
L 138.691446 98.747858 
L 139.624089 98.747858 
L 140.556726 98.767264 
L 141.489366 98.772757 
L 142.422003 98.78667 
L 143.354646 98.624465 
L 144.287298 98.725157 
L 145.219926 98.707582 
L 146.152567 98.57833 
L 147.085204 98.721862 
L 148.017844 98.701723 
L 148.950485 98.638379 
L 149.883123 98.580527 
L 150.815765 98.663277 
L 151.7484 98.586385 
L 179.727656 98.586385 
L 188.43171 98.753351 
L 189.054038 98.719299 
L 189.986678 98.797655 
L 190.919315 98.374017 
L 191.851955 98.763969 
L 192.7846 98.788135 
L 193.717237 98.748957 
L 194.649875 98.667305 
L 195.582513 98.772757 
L 196.515156 98.76104 
L 197.447798 98.718932 
L 198.380437 98.776784 
L 199.313081 98.738338 
L 200.245713 98.812667 
L 201.178356 98.797655 
L 202.110995 98.631056 
L 203.043636 98.725523 
" clip-path="url(#pa77966a4a4)" style="fill: none; stroke: #ff6b6b; stroke-width: 1.2; stroke-linecap: square"/>
   </g>
   <g id="patch_3">
    <path d="M 35.96 103.4 
L 35.96 5 
" style="fill: none; stroke: var(--fg-color); stroke-width: 0.8; stroke-linejoin: miter; stroke-linecap: square"/>
   </g>
   <g id="patch_4">
    <path d="M 35.96 103.4 
L 211 103.4 
" style="fill: none; stroke: var(--fg-color); stroke-width: 0.8; stroke-linejoin: miter; stroke-linecap: square"/>
   </g>
  </g>
 </g>
 <defs>
  <clipPath id="pa77966a4a4">
   <rect x="35.96" y="5" width="175.04" height="98.4"/>
  </clipPath>
 </defs>
</svg>
