<?xml version="1.0" encoding="utf-8" standalone="no"?>
<!DOCTYPE svg PUBLIC "-//W3C//DTD SVG 1.1//EN"
  "http://www.w3.org/Graphics/SVG/1.1/DTD/svg11.dtd">
<svg xmlns:xlink="http://www.w3.org/1999/xlink" width="216pt" height="122.4pt" viewBox="0 0 216 122.4" xmlns="http://www.w3.org/2000/svg" version="1.1">
  <style>
    :root {
      --fg-color: #212529;
      --grid-color: rgba(33, 37, 41, 0.1);
    }
    @media (prefers-color-scheme: dark) {
      :root {
        --fg-color: #dee2e6;
        --grid-color: rgba(248, 249, 250, 0.15);
      }
    }
  </style>

 <metadata>
  <rdf:RDF xmlns:dc="http://purl.org/dc/elements/1.1/" xmlns:cc="http://creativecommons.org/ns#" xmlns:rdf="http://www.w3.org/1999/02/22-rdf-syntax-ns#">
   <cc:Work>
    <dc:type rdf:resource="http://purl.org/dc/dcmitype/StillImage"/>
    <dc:date>2026-06-30T04:49:26.851614</dc:date>
    <dc:format>image/svg+xml</dc:format>
    <dc:creator>
     <cc:Agent>
      <dc:title>Matplotlib v3.11.0, https://matplotlib.org/</dc:title>
     </cc:Agent>
    </dc:creator>
   </cc:Work>
  </rdf:RDF>
 </metadata>
 <defs>
  <style type="text/css">*{stroke-linejoin: round; stroke-linecap: butt}</style>
 </defs>
 <g id="figure_1">
  <g id="patch_1">
   <path d="M 0 122.4 
L 216 122.4 
L 216 0 
L 0 0 
L 0 122.4 
z
" style="fill: none; opacity: 0"/>
  </g>
  <g id="axes_1">
   <g id="patch_2">
    <path d="M 35.96 103.4 
L 211 103.4 
L 211 5 
L 35.96 5 
L 35.96 103.4 
z
" style="fill: none; opacity: 0"/>
   </g>
   <g id="matplotlib.axis_1">
    <g id="xtick_1">
     <g id="line2d_1">
      <path d="M 72.056377 103.4 
L 72.056377 5 
" clip-path="url(#pc5517354eb)" style="fill: none; stroke-dasharray: 2.96,1.28; stroke-dashoffset: 0; stroke: var(--grid-color); stroke-width: 0.8"/>
     </g>
     <g id="line2d_2">
      <defs>
       <path id="m8092048fb2" d="M 0 0 
L 0 3.5 
" style="stroke: var(--fg-color); stroke-width: 0.8"/>
      </defs>
      <g>
       <use xlink:href="#m8092048fb2" x="72.056377" y="103.4" style="fill: var(--fg-color); stroke: var(--fg-color); stroke-width: 0.8"/>
      </g>
     </g>
     <g id="text_1">
      <text style="font-size: 7px; font-family: 'DejaVu Sans', 'Bitstream Vera Sans', 'Computer Modern Sans Serif', 'Lucida Grande', 'Verdana', 'Geneva', 'Lucid', 'Arial', 'Helvetica', 'Avant Garde', sans-serif; text-anchor: middle; fill: var(--fg-color)" x="72.056377" y="115.718359" transform="rotate(-0 72.056377 115.718359)">02/2026</text>
     </g>
    </g>
    <g id="xtick_2">
     <g id="line2d_3">
      <path d="M 126.640628 103.4 
L 126.640628 5 
" clip-path="url(#pc5517354eb)" style="fill: none; stroke-dasharray: 2.96,1.28; stroke-dashoffset: 0; stroke: var(--grid-color); stroke-width: 0.8"/>
     </g>
     <g id="line2d_4">
      <g>
       <use xlink:href="#m8092048fb2" x="126.640628" y="103.4" style="fill: var(--fg-color); stroke: var(--fg-color); stroke-width: 0.8"/>
      </g>
     </g>
     <g id="text_2">
      <text style="font-size: 7px; font-family: 'DejaVu Sans', 'Bitstream Vera Sans', 'Computer Modern Sans Serif', 'Lucida Grande', 'Verdana', 'Geneva', 'Lucid', 'Arial', 'Helvetica', 'Avant Garde', sans-serif; text-anchor: middle; fill: var(--fg-color)" x="126.640628" y="115.718359" transform="rotate(-0 126.640628 115.718359)">04/2026</text>
     </g>
    </g>
    <g id="xtick_3">
     <g id="line2d_5">
      <path d="M 183.075192 103.4 
L 183.075192 5 
" clip-path="url(#pc5517354eb)" style="fill: none; stroke-dasharray: 2.96,1.28; stroke-dashoffset: 0; stroke: var(--grid-color); stroke-width: 0.8"/>
     </g>
     <g id="line2d_6">
      <g>
       <use xlink:href="#m8092048fb2" x="183.075192" y="103.4" style="fill: var(--fg-color); stroke: var(--fg-color); stroke-width: 0.8"/>
      </g>
     </g>
     <g id="text_3">
      <text style="font-size: 7px; font-family: 'DejaVu Sans', 'Bitstream Vera Sans', 'Computer Modern Sans Serif', 'Lucida Grande', 'Verdana', 'Geneva', 'Lucid', 'Arial', 'Helvetica', 'Avant Garde', sans-serif; text-anchor: middle; fill: var(--fg-color)" x="183.075192" y="115.718359" transform="rotate(-0 183.075192 115.718359)">06/2026</text>
     </g>
    </g>
   </g>
   <g id="matplotlib.axis_2">
    <g id="ytick_1">
     <g id="line2d_7">
      <path d="M 35.96 94.563317 
L 211 94.563317 
" clip-path="url(#pc5517354eb)" style="fill: none; stroke-dasharray: 2.96,1.28; stroke-dashoffset: 0; stroke: var(--grid-color); stroke-width: 0.8"/>
     </g>
     <g id="line2d_8">
      <defs>
       <path id="mfa5772fa1d" d="M 0 0 
L -3.5 0 
" style="stroke: var(--fg-color); stroke-width: 0.8"/>
      </defs>
      <g>
       <use xlink:href="#mfa5772fa1d" x="35.96" y="94.563317" style="fill: var(--fg-color); stroke: var(--fg-color); stroke-width: 0.8"/>
      </g>
     </g>
     <g id="text_4">
      <text style="font-size: 7px; font-family: 'DejaVu Sans', 'Bitstream Vera Sans', 'Computer Modern Sans Serif', 'Lucida Grande', 'Verdana', 'Geneva', 'Lucid', 'Arial', 'Helvetica', 'Avant Garde', sans-serif; text-anchor: end; fill: var(--fg-color)" x="28.96" y="97.222497" transform="rotate(-0 28.96 97.222497)">40</text>
     </g>
    </g>
    <g id="ytick_2">
     <g id="line2d_9">
      <path d="M 35.96 75.865992 
L 211 75.865992 
" clip-path="url(#pc5517354eb)" style="fill: none; stroke-dasharray: 2.96,1.28; stroke-dashoffset: 0; stroke: var(--grid-color); stroke-width: 0.8"/>
     </g>
     <g id="line2d_10">
      <g>
       <use xlink:href="#mfa5772fa1d" x="35.96" y="75.865992" style="fill: var(--fg-color); stroke: var(--fg-color); stroke-width: 0.8"/>
      </g>
     </g>
     <g id="text_5">
      <text style="font-size: 7px; font-family: 'DejaVu Sans', 'Bitstream Vera Sans', 'Computer Modern Sans Serif', 'Lucida Grande', 'Verdana', 'Geneva', 'Lucid', 'Arial', 'Helvetica', 'Avant Garde', sans-serif; text-anchor: end; fill: var(--fg-color)" x="28.96" y="78.525172" transform="rotate(-0 28.96 78.525172)">60</text>
     </g>
    </g>
    <g id="ytick_3">
     <g id="line2d_11">
      <path d="M 35.96 57.168668 
L 211 57.168668 
" clip-path="url(#pc5517354eb)" style="fill: none; stroke-dasharray: 2.96,1.28; stroke-dashoffset: 0; stroke: var(--grid-color); stroke-width: 0.8"/>
     </g>
     <g id="line2d_12">
      <g>
       <use xlink:href="#mfa5772fa1d" x="35.96" y="57.168668" style="fill: var(--fg-color); stroke: var(--fg-color); stroke-width: 0.8"/>
      </g>
     </g>
     <g id="text_6">
      <text style="font-size: 7px; font-family: 'DejaVu Sans', 'Bitstream Vera Sans', 'Computer Modern Sans Serif', 'Lucida Grande', 'Verdana', 'Geneva', 'Lucid', 'Arial', 'Helvetica', 'Avant Garde', sans-serif; text-anchor: end; fill: var(--fg-color)" x="28.96" y="59.827847" transform="rotate(-0 28.96 59.827847)">80</text>
     </g>
    </g>
    <g id="ytick_4">
     <g id="line2d_13">
      <path d="M 35.96 38.471343 
L 211 38.471343 
" clip-path="url(#pc5517354eb)" style="fill: none; stroke-dasharray: 2.96,1.28; stroke-dashoffset: 0; stroke: var(--grid-color); stroke-width: 0.8"/>
     </g>
     <g id="line2d_14">
      <g>
       <use xlink:href="#mfa5772fa1d" x="35.96" y="38.471343" style="fill: var(--fg-color); stroke: var(--fg-color); stroke-width: 0.8"/>
      </g>
     </g>
     <g id="text_7">
      <text style="font-size: 7px; font-family: 'DejaVu Sans', 'Bitstream Vera Sans', 'Computer Modern Sans Serif', 'Lucida Grande', 'Verdana', 'Geneva', 'Lucid', 'Arial', 'Helvetica', 'Avant Garde', sans-serif; text-anchor: end; fill: var(--fg-color)" x="28.96" y="41.130523" transform="rotate(-0 28.96 41.130523)">100</text>
     </g>
    </g>
    <g id="ytick_5">
     <g id="line2d_15">
      <path d="M 35.96 19.774018 
L 211 19.774018 
" clip-path="url(#pc5517354eb)" style="fill: none; stroke-dasharray: 2.96,1.28; stroke-dashoffset: 0; stroke: var(--grid-color); stroke-width: 0.8"/>
     </g>
     <g id="line2d_16">
      <g>
       <use xlink:href="#mfa5772fa1d" x="35.96" y="19.774018" style="fill: var(--fg-color); stroke: var(--fg-color); stroke-width: 0.8"/>
      </g>
     </g>
     <g id="text_8">
      <text style="font-size: 7px; font-family: 'DejaVu Sans', 'Bitstream Vera Sans', 'Computer Modern Sans Serif', 'Lucida Grande', 'Verdana', 'Geneva', 'Lucid', 'Arial', 'Helvetica', 'Avant Garde', sans-serif; text-anchor: end; fill: var(--fg-color)" x="28.96" y="22.433198" transform="rotate(-0 28.96 22.433198)">120</text>
     </g>
    </g>
    <g id="text_9">
     <text style="font-size: 7px; font-family: 'DejaVu Sans', 'Bitstream Vera Sans', 'Computer Modern Sans Serif', 'Lucida Grande', 'Verdana', 'Geneva', 'Lucid', 'Arial', 'Helvetica', 'Avant Garde', sans-serif; text-anchor: middle; fill: var(--fg-color)" x="9.917109" y="54.2" transform="rotate(-90 9.917109 54.2)">ms</text>
    </g>
   </g>
   <g id="line2d_17">
    <path d="M 43.916364 94.8578 
L 45.193108 92.945999 
L 45.766628 88.762472 
L 46.691788 89.7553 
L 47.616947 82.844769 
L 48.542109 84.179758 
L 49.467263 85.359559 
L 50.392418 88.197813 
L 51.317566 77.475832 
L 52.242732 91.222105 
L 53.167891 92.735654 
L 54.093049 87.144219 
L 55.018206 90.142335 
L 55.943359 84.978134 
L 56.868517 82.456799 
L 57.793676 82.433428 
L 58.718827 87.774319 
L 59.643987 79.435312 
L 60.569143 89.976863 
L 61.494301 87.434962 
L 62.419457 83.597336 
L 63.344613 65.888165 
L 64.269773 69.90435 
L 65.194924 79.063235 
L 66.120079 75.414452 
L 67.045243 73.427861 
L 67.970398 69.960442 
L 68.895557 77.136476 
L 69.82071 71.02432 
L 70.74585 82.156707 
L 71.671025 77.300077 
L 72.596178 80.779649 
L 73.521341 82.655926 
L 74.446495 81.205014 
L 75.371653 71.870374 
L 76.296805 75.484567 
L 77.221971 82.431558 
L 78.147114 82.680232 
L 79.072277 69.067645 
L 79.997435 79.567128 
L 80.922594 79.915833 
L 81.847735 75.355555 
L 82.772905 58.883212 
L 83.698046 86.269184 
L 84.623219 76.138039 
L 85.548376 94.301555 
L 86.473535 85.940111 
L 87.398688 78.595802 
L 88.323852 77.948874 
L 97.76512 82.984999 
L 98.500856 92.152297 
L 99.426031 88.953185 
L 100.351186 91.299699 
L 101.276348 83.11401 
L 102.201502 92.438366 
L 103.126656 82.185688 
L 104.051812 96.381632 
L 104.976967 86.027054 
L 105.902123 85.539053 
L 106.827282 83.91893 
L 107.752435 78.055449 
L 108.677594 74.52072 
L 109.602753 78.282622 
L 110.527909 90.49291 
L 111.453063 91.19032 
L 112.378223 85.759682 
L 113.303377 92.855317 
L 114.228537 89.542151 
L 115.153695 92.629079 
L 116.078848 87.233966 
L 117.004011 91.285676 
L 117.929158 92.924497 
L 118.854316 86.953506 
L 119.779481 98.927273 
L 120.704637 82.296937 
L 121.629794 93.813554 
L 122.554943 83.473934 
L 123.480104 96.447073 
L 124.405261 94.116451 
L 125.330416 90.586396 
L 126.255574 81.664033 
L 129.9562 73.767218 
L 130.881363 89.040127 
L 131.806516 95.386934 
L 132.731673 75.07977 
L 133.656831 71.229991 
L 134.581987 68.456243 
L 135.507147 79.650331 
L 136.432285 68.875998 
L 137.357455 78.590193 
L 138.282617 76.510115 
L 139.20777 81.098439 
L 140.13293 70.29419 
L 141.058084 75.707065 
L 141.983242 75.127448 
L 142.908395 85.797076 
L 143.833556 87.268556 
L 144.758724 76.494223 
L 145.683869 65.340333 
L 146.609028 70.898113 
L 147.534182 53.357218 
L 148.459339 67.472763 
L 149.384497 76.477395 
L 150.309651 79.97099 
L 151.234811 80.168247 
L 152.159963 71.358067 
L 179.91473 71.358067 
L 188.548948 61.986033 
L 189.166282 64.390509 
L 190.091439 62.32352 
L 191.016594 67.767246 
L 191.94175 55.412989 
L 192.866913 55.734583 
L 193.792066 67.091338 
L 194.717222 83.565551 
L 195.642377 62.677834 
L 196.567536 59.482462 
L 197.492695 9.472727 
L 198.417852 34.049426 
L 199.343013 44.331085 
L 200.268162 51.147194 
L 201.193322 80.004645 
L 202.118478 77.960093 
L 203.043636 59.754508 
" clip-path="url(#pc5517354eb)" style="fill: none; stroke: #339af0; stroke-width: 1.2; stroke-linecap: square"/>
   </g>
   <g id="line2d_18">
    <path d="M 43.916364 84.328402 
L 45.193108 78.423786 
L 45.766628 74.369272 
L 46.691788 77.090667 
L 47.616947 76.926131 
L 48.542109 78.585518 
L 49.467263 81.177902 
L 50.392418 79.197856 
L 51.317566 78.22466 
L 52.242732 81.581765 
L 53.167891 82.483911 
L 54.093049 82.299742 
L 55.018206 78.829518 
L 55.943359 78.388262 
L 56.868517 77.55997 
L 57.793676 76.86443 
L 58.718827 80.267343 
L 59.643987 81.741627 
L 60.569143 82.526914 
L 61.494301 80.52817 
L 62.419457 82.419405 
L 63.344613 78.095648 
L 64.269773 78.888415 
L 65.194924 82.31283 
L 66.120079 79.582086 
L 67.045243 77.00092 
L 67.970398 81.013366 
L 68.895557 75.651908 
L 69.82071 79.210944 
L 70.74585 82.352094 
L 71.671025 83.2907 
L 72.596178 77.774989 
L 73.521341 82.875619 
L 74.446495 80.549672 
L 75.371653 84.51631 
L 76.296805 78.176982 
L 77.221971 80.165442 
L 78.147114 79.355848 
L 79.072277 76.971939 
L 79.997435 77.517901 
L 80.922594 79.551235 
L 81.847735 78.29758 
L 82.772905 80.346806 
L 83.698046 79.368001 
L 84.623219 80.35709 
L 85.548376 77.608583 
L 86.473535 78.905243 
L 87.398688 77.651587 
L 88.323852 77.597365 
L 97.76512 79.078193 
L 98.500856 83.454302 
L 99.426031 82.496999 
L 100.351186 78.021794 
L 101.276348 79.815802 
L 102.201502 77.863802 
L 103.126656 82.675558 
L 104.051812 81.238669 
L 104.976967 80.909596 
L 105.902123 80.215925 
L 106.827282 77.747878 
L 107.752435 80.235557 
L 108.677594 80.403833 
L 109.602753 83.639405 
L 110.527909 84.269505 
L 111.453063 84.501352 
L 112.378223 80.750669 
L 113.303377 77.730116 
L 114.228537 79.27171 
L 115.153695 82.525045 
L 116.078848 79.948553 
L 117.004011 78.369564 
L 117.929158 78.64348 
L 118.854316 78.588323 
L 119.779481 80.742255 
L 120.704637 77.080384 
L 121.629794 77.651587 
L 122.554943 77.504813 
L 123.480104 84.238654 
L 124.405261 81.520998 
L 125.330416 83.230869 
L 126.255574 81.403205 
L 129.9562 80.013994 
L 130.881363 83.002761 
L 131.806516 82.357704 
L 132.731673 79.736339 
L 133.656831 77.215004 
L 134.581987 78.141457 
L 135.507147 78.77997 
L 136.432285 78.928614 
L 137.357455 76.984092 
L 138.282617 78.844476 
L 139.20777 82.310025 
L 140.13293 80.816109 
L 141.058084 80.176661 
L 141.983242 81.624768 
L 142.908395 85.362364 
L 143.833556 79.75971 
L 144.758724 77.477702 
L 145.683869 78.829518 
L 146.609028 77.320644 
L 147.534182 81.283542 
L 148.459339 77.172935 
L 149.384497 78.659373 
L 150.309651 76.427847 
L 151.234811 79.51571 
L 152.159963 77.685242 
L 179.91473 77.685242 
L 188.548948 71.395462 
L 189.166282 71.214098 
L 190.091439 59.63578 
L 191.016594 71.941424 
L 191.94175 66.009698 
L 192.866913 72.089133 
L 193.792066 71.012167 
L 194.717222 72.219079 
L 195.642377 65.407644 
L 196.567536 67.913085 
L 197.492695 69.10317 
L 198.417852 61.914049 
L 199.343013 68.390802 
L 200.268162 69.148044 
L 201.193322 72.814589 
L 202.118478 71.283278 
L 203.043636 70.321301 
" clip-path="url(#pc5517354eb)" style="fill: none; stroke: #ff6b6b; stroke-width: 1.2; stroke-linecap: square"/>
   </g>
   <g id="patch_3">
    <path d="M 35.96 103.4 
L 35.96 5 
" style="fill: none; stroke: var(--fg-color); stroke-width: 0.8; stroke-linejoin: miter; stroke-linecap: square"/>
   </g>
   <g id="patch_4">
    <path d="M 35.96 103.4 
L 211 103.4 
" style="fill: none; stroke: var(--fg-color); stroke-width: 0.8; stroke-linejoin: miter; stroke-linecap: square"/>
   </g>
  </g>
 </g>
 <defs>
  <clipPath id="pc5517354eb">
   <rect x="35.96" y="5" width="175.04" height="98.4"/>
  </clipPath>
 </defs>
</svg>
