<?xml version="1.0" encoding="utf-8" standalone="no"?>
<!DOCTYPE svg PUBLIC "-//W3C//DTD SVG 1.1//EN"
  "http://www.w3.org/Graphics/SVG/1.1/DTD/svg11.dtd">
<svg xmlns:xlink="http://www.w3.org/1999/xlink" width="216pt" height="122.4pt" viewBox="0 0 216 122.4" xmlns="http://www.w3.org/2000/svg" version="1.1">
  <style>
    :root {
      --fg-color: #212529;
      --grid-color: rgba(33, 37, 41, 0.1);
    }
    @media (prefers-color-scheme: dark) {
      :root {
        --fg-color: #dee2e6;
        --grid-color: rgba(248, 249, 250, 0.15);
      }
    }
  </style>

 <metadata>
  <rdf:RDF xmlns:dc="http://purl.org/dc/elements/1.1/" xmlns:cc="http://creativecommons.org/ns#" xmlns:rdf="http://www.w3.org/1999/02/22-rdf-syntax-ns#">
   <cc:Work>
    <dc:type rdf:resource="http://purl.org/dc/dcmitype/StillImage"/>
    <dc:date>2026-06-30T15:36:51.334272</dc:date>
    <dc:format>image/svg+xml</dc:format>
    <dc:creator>
     <cc:Agent>
      <dc:title>Matplotlib v3.11.0, https://matplotlib.org/</dc:title>
     </cc:Agent>
    </dc:creator>
   </cc:Work>
  </rdf:RDF>
 </metadata>
 <defs>
  <style type="text/css">*{stroke-linejoin: round; stroke-linecap: butt}</style>
 </defs>
 <g id="figure_1">
  <g id="patch_1">
   <path d="M 0 122.4 
L 216 122.4 
L 216 0 
L 0 0 
L 0 122.4 
z
" style="fill: none; opacity: 0"/>
  </g>
  <g id="axes_1">
   <g id="patch_2">
    <path d="M 31.64 103.4 
L 211 103.4 
L 211 5 
L 31.64 5 
L 31.64 103.4 
z
" style="fill: none; opacity: 0"/>
   </g>
   <g id="matplotlib.axis_1">
    <g id="xtick_1">
     <g id="line2d_1">
      <path d="M 75.518809 103.4 
L 75.518809 5 
" clip-path="url(#p5a9eb497a5)" style="fill: none; stroke-dasharray: 2.96,1.28; stroke-dashoffset: 0; stroke: var(--grid-color); stroke-width: 0.8"/>
     </g>
     <g id="line2d_2">
      <defs>
       <path id="m88956244b8" d="M 0 0 
L 0 3.5 
" style="stroke: var(--fg-color); stroke-width: 0.8"/>
      </defs>
      <g>
       <use xlink:href="#m88956244b8" x="75.518809" y="103.4" style="fill: var(--fg-color); stroke: var(--fg-color); stroke-width: 0.8"/>
      </g>
     </g>
     <g id="text_1">
      <text style="font-size: 7px; font-family: 'DejaVu Sans', 'Bitstream Vera Sans', 'Computer Modern Sans Serif', 'Lucida Grande', 'Verdana', 'Geneva', 'Lucid', 'Arial', 'Helvetica', 'Avant Garde', sans-serif; text-anchor: middle; fill: var(--fg-color)" x="75.518809" y="115.718359" transform="rotate(-0 75.518809 115.718359)">04/2026</text>
     </g>
    </g>
    <g id="xtick_2">
     <g id="line2d_3">
      <path d="M 161.262975 103.4 
L 161.262975 5 
" clip-path="url(#p5a9eb497a5)" style="fill: none; stroke-dasharray: 2.96,1.28; stroke-dashoffset: 0; stroke: var(--grid-color); stroke-width: 0.8"/>
     </g>
     <g id="line2d_4">
      <g>
       <use xlink:href="#m88956244b8" x="161.262975" y="103.4" style="fill: var(--fg-color); stroke: var(--fg-color); stroke-width: 0.8"/>
      </g>
     </g>
     <g id="text_2">
      <text style="font-size: 7px; font-family: 'DejaVu Sans', 'Bitstream Vera Sans', 'Computer Modern Sans Serif', 'Lucida Grande', 'Verdana', 'Geneva', 'Lucid', 'Arial', 'Helvetica', 'Avant Garde', sans-serif; text-anchor: middle; fill: var(--fg-color)" x="161.262975" y="115.718359" transform="rotate(-0 161.262975 115.718359)">06/2026</text>
     </g>
    </g>
   </g>
   <g id="matplotlib.axis_2">
    <g id="ytick_1">
     <g id="line2d_5">
      <path d="M 31.64 101.599856 
L 211 101.599856 
" clip-path="url(#p5a9eb497a5)" style="fill: none; stroke-dasharray: 2.96,1.28; stroke-dashoffset: 0; stroke: var(--grid-color); stroke-width: 0.8"/>
     </g>
     <g id="line2d_6">
      <defs>
       <path id="m0241cc74e4" d="M 0 0 
L -3.5 0 
" style="stroke: var(--fg-color); stroke-width: 0.8"/>
      </defs>
      <g>
       <use xlink:href="#m0241cc74e4" x="31.64" y="101.599856" style="fill: var(--fg-color); stroke: var(--fg-color); stroke-width: 0.8"/>
      </g>
     </g>
     <g id="text_3">
      <text style="font-size: 7px; font-family: 'DejaVu Sans', 'Bitstream Vera Sans', 'Computer Modern Sans Serif', 'Lucida Grande', 'Verdana', 'Geneva', 'Lucid', 'Arial', 'Helvetica', 'Avant Garde', sans-serif; text-anchor: end; fill: var(--fg-color)" x="24.64" y="104.259036" transform="rotate(-0 24.64 104.259036)">0</text>
     </g>
    </g>
    <g id="ytick_2">
     <g id="line2d_7">
      <path d="M 31.64 74.342503 
L 211 74.342503 
" clip-path="url(#p5a9eb497a5)" style="fill: none; stroke-dasharray: 2.96,1.28; stroke-dashoffset: 0; stroke: var(--grid-color); stroke-width: 0.8"/>
     </g>
     <g id="line2d_8">
      <g>
       <use xlink:href="#m0241cc74e4" x="31.64" y="74.342503" style="fill: var(--fg-color); stroke: var(--fg-color); stroke-width: 0.8"/>
      </g>
     </g>
     <g id="text_4">
      <text style="font-size: 7px; font-family: 'DejaVu Sans', 'Bitstream Vera Sans', 'Computer Modern Sans Serif', 'Lucida Grande', 'Verdana', 'Geneva', 'Lucid', 'Arial', 'Helvetica', 'Avant Garde', sans-serif; text-anchor: end; fill: var(--fg-color)" x="24.64" y="77.001682" transform="rotate(-0 24.64 77.001682)">20</text>
     </g>
    </g>
    <g id="ytick_3">
     <g id="line2d_9">
      <path d="M 31.64 47.085149 
L 211 47.085149 
" clip-path="url(#p5a9eb497a5)" style="fill: none; stroke-dasharray: 2.96,1.28; stroke-dashoffset: 0; stroke: var(--grid-color); stroke-width: 0.8"/>
     </g>
     <g id="line2d_10">
      <g>
       <use xlink:href="#m0241cc74e4" x="31.64" y="47.085149" style="fill: var(--fg-color); stroke: var(--fg-color); stroke-width: 0.8"/>
      </g>
     </g>
     <g id="text_5">
      <text style="font-size: 7px; font-family: 'DejaVu Sans', 'Bitstream Vera Sans', 'Computer Modern Sans Serif', 'Lucida Grande', 'Verdana', 'Geneva', 'Lucid', 'Arial', 'Helvetica', 'Avant Garde', sans-serif; text-anchor: end; fill: var(--fg-color)" x="24.64" y="49.744329" transform="rotate(-0 24.64 49.744329)">40</text>
     </g>
    </g>
    <g id="ytick_4">
     <g id="line2d_11">
      <path d="M 31.64 19.827796 
L 211 19.827796 
" clip-path="url(#p5a9eb497a5)" style="fill: none; stroke-dasharray: 2.96,1.28; stroke-dashoffset: 0; stroke: var(--grid-color); stroke-width: 0.8"/>
     </g>
     <g id="line2d_12">
      <g>
       <use xlink:href="#m0241cc74e4" x="31.64" y="19.827796" style="fill: var(--fg-color); stroke: var(--fg-color); stroke-width: 0.8"/>
      </g>
     </g>
     <g id="text_6">
      <text style="font-size: 7px; font-family: 'DejaVu Sans', 'Bitstream Vera Sans', 'Computer Modern Sans Serif', 'Lucida Grande', 'Verdana', 'Geneva', 'Lucid', 'Arial', 'Helvetica', 'Avant Garde', sans-serif; text-anchor: end; fill: var(--fg-color)" x="24.64" y="22.486976" transform="rotate(-0 24.64 22.486976)">60</text>
     </g>
    </g>
    <g id="text_7">
     <text style="font-size: 7px; font-family: 'DejaVu Sans', 'Bitstream Vera Sans', 'Computer Modern Sans Serif', 'Lucida Grande', 'Verdana', 'Geneva', 'Lucid', 'Arial', 'Helvetica', 'Avant Garde', sans-serif; text-anchor: middle; fill: var(--fg-color)" x="10.050859" y="54.2" transform="rotate(-90 10.050859 54.2)">ms</text>
    </g>
   </g>
   <g id="line2d_13">
    <path d="M 39.792727 15.368493 
L 41.198367 22.313666 
L 42.604007 21.588621 
L 44.009647 18.293207 
L 45.415293 17.982473 
L 46.82093 13.911587 
L 48.226575 19.052324 
L 49.63222 20.436998 
L 51.037861 17.61041 
L 52.443498 21.266984 
L 53.849146 22.853362 
L 55.254783 15.532037 
L 56.66043 15.333058 
L 58.066074 23.067332 
L 59.471712 22.481299 
L 60.877362 22.860176 
L 62.28299 17.658111 
L 63.688633 21.66903 
L 65.094287 21.371925 
L 66.499928 17.118415 
L 67.90557 20.051306 
L 69.311202 19.716041 
L 70.716849 16.747715 
L 72.122492 21.71673 
L 73.528132 20.292534 
L 74.933776 19.228134 
L 80.556342 15.72829 
L 81.961994 20.656419 
L 83.36763 19.617914 
L 84.773272 20.841769 
L 86.178917 21.812131 
L 87.584558 19.45437 
L 88.990205 19.457096 
L 90.395818 19.97226 
L 91.801479 16.918073 
L 93.207129 20.465618 
L 94.612766 22.533088 
L 96.018413 16.698652 
L 97.424051 22.693907 
L 98.829694 22.34365 
L 100.235331 15.545666 
L 101.640979 15.123177 
L 103.046638 20.143981 
L 104.452263 9.472727 
L 105.857907 17.474123 
L 107.263546 17.010748 
L 108.669188 13.486373 
L 110.074832 14.802903 
L 111.48047 14.391317 
L 112.886116 12.208003 
L 114.291752 14.370874 
L 156.46111 14.370874 
L 169.579556 18.635287 
L 170.517507 15.258101 
L 171.923149 20.317065 
L 173.328787 20.272091 
L 174.734429 20.340234 
L 176.14008 16.85947 
L 177.545717 22.512645 
L 178.951357 20.580099 
L 180.356996 19.380775 
L 181.762642 20.109909 
L 183.168288 11.101354 
L 184.57393 17.232896 
L 185.979578 21.728996 
L 187.385209 18.425405 
L 188.790855 17.108875 
L 190.196496 22.256426 
L 191.602141 17.986562 
L 193.007783 20.216213 
L 194.413425 20.559656 
L 195.819067 20.443812 
L 197.224707 18.918763 
L 198.63035 20.242108 
L 200.035988 19.973623 
L 201.441628 17.888435 
L 202.847273 15.788256 
" clip-path="url(#p5a9eb497a5)" style="fill: none; stroke: #339af0; stroke-width: 1.2; stroke-linecap: square"/>
   </g>
   <g id="line2d_14">
    <path d="M 39.792727 98.761003 
L 41.198367 98.810066 
L 42.604007 98.815518 
L 44.009647 98.551121 
L 45.415293 98.699674 
L 46.82093 98.780083 
L 48.226575 98.600184 
L 49.63222 98.735108 
L 51.037861 98.71194 
L 52.443498 98.686045 
L 53.849146 98.789623 
L 55.254783 98.741923 
L 56.66043 98.706488 
L 58.066074 98.846864 
L 59.471712 98.848226 
L 60.877362 98.78826 
L 62.28299 98.63153 
L 63.688633 98.927273 
L 65.094287 98.752826 
L 66.499928 98.690134 
L 67.90557 98.656062 
L 69.311202 98.668328 
L 70.716849 98.55521 
L 72.122492 98.598822 
L 73.528132 98.267645 
L 74.933776 98.566113 
L 80.556342 98.477526 
L 81.961994 98.484341 
L 83.36763 98.474801 
L 84.773272 97.368152 
L 86.178917 98.515687 
L 87.584558 98.566113 
L 88.990205 98.660151 
L 90.395818 98.549758 
L 91.801479 98.443455 
L 93.207129 98.626079 
L 94.612766 98.641071 
L 96.018413 98.393029 
L 97.424051 98.661514 
L 98.829694 98.594733 
L 100.235331 98.43664 
L 101.640979 98.300354 
L 103.046638 98.560661 
L 104.452263 98.346691 
L 105.857907 98.353505 
L 107.263546 98.628805 
L 108.669188 98.431189 
L 110.074832 98.316708 
L 111.48047 98.230847 
L 112.886116 98.328974 
L 114.291752 98.478889 
L 156.46111 98.478889 
L 169.579556 98.477526 
L 170.517507 98.51705 
L 171.923149 98.552484 
L 173.328787 98.77872 
L 174.734429 98.649248 
L 176.14008 98.461172 
L 177.545717 98.882298 
L 178.951357 98.848226 
L 180.356996 98.758277 
L 181.762642 98.823695 
L 183.168288 98.766454 
L 184.57393 98.658788 
L 185.979578 98.860492 
L 187.385209 98.507509 
L 188.790855 98.62199 
L 190.196496 98.77872 
L 191.602141 98.748737 
L 193.007783 97.312275 
L 194.413425 98.713303 
L 195.819067 98.722843 
L 197.224707 98.587919 
L 198.63035 98.737834 
L 200.035988 98.716028 
L 201.441628 98.695585 
L 202.847273 98.601547 
" clip-path="url(#p5a9eb497a5)" style="fill: none; stroke: #ff6b6b; stroke-width: 1.2; stroke-linecap: square"/>
   </g>
   <g id="patch_3">
    <path d="M 31.64 103.4 
L 31.64 5 
" style="fill: none; stroke: var(--fg-color); stroke-width: 0.8; stroke-linejoin: miter; stroke-linecap: square"/>
   </g>
   <g id="patch_4">
    <path d="M 31.64 103.4 
L 211 103.4 
" style="fill: none; stroke: var(--fg-color); stroke-width: 0.8; stroke-linejoin: miter; stroke-linecap: square"/>
   </g>
  </g>
 </g>
 <defs>
  <clipPath id="p5a9eb497a5">
   <rect x="31.64" y="5" width="179.36" height="98.4"/>
  </clipPath>
 </defs>
</svg>
