<?xml version="1.0" encoding="utf-8" standalone="no"?>
<!DOCTYPE svg PUBLIC "-//W3C//DTD SVG 1.1//EN"
  "http://www.w3.org/Graphics/SVG/1.1/DTD/svg11.dtd">
<svg xmlns:xlink="http://www.w3.org/1999/xlink" width="216pt" height="122.4pt" viewBox="0 0 216 122.4" xmlns="http://www.w3.org/2000/svg" version="1.1">
  <style>
    :root {
      --fg-color: #212529;
      --grid-color: rgba(33, 37, 41, 0.1);
    }
    @media (prefers-color-scheme: dark) {
      :root {
        --fg-color: #dee2e6;
        --grid-color: rgba(248, 249, 250, 0.15);
      }
    }
  </style>

 <metadata>
  <rdf:RDF xmlns:dc="http://purl.org/dc/elements/1.1/" xmlns:cc="http://creativecommons.org/ns#" xmlns:rdf="http://www.w3.org/1999/02/22-rdf-syntax-ns#">
   <cc:Work>
    <dc:type rdf:resource="http://purl.org/dc/dcmitype/StillImage"/>
    <dc:date>2026-06-30T04:48:49.501730</dc:date>
    <dc:format>image/svg+xml</dc:format>
    <dc:creator>
     <cc:Agent>
      <dc:title>Matplotlib v3.11.0, https://matplotlib.org/</dc:title>
     </cc:Agent>
    </dc:creator>
   </cc:Work>
  </rdf:RDF>
 </metadata>
 <defs>
  <style type="text/css">*{stroke-linejoin: round; stroke-linecap: butt}</style>
 </defs>
 <g id="figure_1">
  <g id="patch_1">
   <path d="M 0 122.4 
L 216 122.4 
L 216 0 
L 0 0 
L 0 122.4 
z
" style="fill: none; opacity: 0"/>
  </g>
  <g id="axes_1">
   <g id="patch_2">
    <path d="M 35.96 103.4 
L 211 103.4 
L 211 5 
L 35.96 5 
L 35.96 103.4 
z
" style="fill: none; opacity: 0"/>
   </g>
   <g id="matplotlib.axis_1">
    <g id="xtick_1">
     <g id="line2d_1">
      <path d="M 70.996911 103.4 
L 70.996911 5 
" clip-path="url(#pea5c43ee0e)" style="fill: none; stroke-dasharray: 2.96,1.28; stroke-dashoffset: 0; stroke: var(--grid-color); stroke-width: 0.8"/>
     </g>
     <g id="line2d_2">
      <defs>
       <path id="m6480c7618f" d="M 0 0 
L 0 3.5 
" style="stroke: var(--fg-color); stroke-width: 0.8"/>
      </defs>
      <g>
       <use xlink:href="#m6480c7618f" x="70.996911" y="103.4" style="fill: var(--fg-color); stroke: var(--fg-color); stroke-width: 0.8"/>
      </g>
     </g>
     <g id="text_1">
      <text style="font-size: 7px; font-family: 'DejaVu Sans', 'Bitstream Vera Sans', 'Computer Modern Sans Serif', 'Lucida Grande', 'Verdana', 'Geneva', 'Lucid', 'Arial', 'Helvetica', 'Avant Garde', sans-serif; text-anchor: middle; fill: var(--fg-color)" x="70.996911" y="115.718359" transform="rotate(-0 70.996911 115.718359)">02/2026</text>
     </g>
    </g>
    <g id="xtick_2">
     <g id="line2d_3">
      <path d="M 126.022656 103.4 
L 126.022656 5 
" clip-path="url(#pea5c43ee0e)" style="fill: none; stroke-dasharray: 2.96,1.28; stroke-dashoffset: 0; stroke: var(--grid-color); stroke-width: 0.8"/>
     </g>
     <g id="line2d_4">
      <g>
       <use xlink:href="#m6480c7618f" x="126.022656" y="103.4" style="fill: var(--fg-color); stroke: var(--fg-color); stroke-width: 0.8"/>
      </g>
     </g>
     <g id="text_2">
      <text style="font-size: 7px; font-family: 'DejaVu Sans', 'Bitstream Vera Sans', 'Computer Modern Sans Serif', 'Lucida Grande', 'Verdana', 'Geneva', 'Lucid', 'Arial', 'Helvetica', 'Avant Garde', sans-serif; text-anchor: middle; fill: var(--fg-color)" x="126.022656" y="115.718359" transform="rotate(-0 126.022656 115.718359)">04/2026</text>
     </g>
    </g>
    <g id="xtick_3">
     <g id="line2d_5">
      <path d="M 182.913681 103.4 
L 182.913681 5 
" clip-path="url(#pea5c43ee0e)" style="fill: none; stroke-dasharray: 2.96,1.28; stroke-dashoffset: 0; stroke: var(--grid-color); stroke-width: 0.8"/>
     </g>
     <g id="line2d_6">
      <g>
       <use xlink:href="#m6480c7618f" x="182.913681" y="103.4" style="fill: var(--fg-color); stroke: var(--fg-color); stroke-width: 0.8"/>
      </g>
     </g>
     <g id="text_3">
      <text style="font-size: 7px; font-family: 'DejaVu Sans', 'Bitstream Vera Sans', 'Computer Modern Sans Serif', 'Lucida Grande', 'Verdana', 'Geneva', 'Lucid', 'Arial', 'Helvetica', 'Avant Garde', sans-serif; text-anchor: middle; fill: var(--fg-color)" x="182.913681" y="115.718359" transform="rotate(-0 182.913681 115.718359)">06/2026</text>
     </g>
    </g>
   </g>
   <g id="matplotlib.axis_2">
    <g id="ytick_1">
     <g id="line2d_7">
      <path d="M 35.96 99.433699 
L 211 99.433699 
" clip-path="url(#pea5c43ee0e)" style="fill: none; stroke-dasharray: 2.96,1.28; stroke-dashoffset: 0; stroke: var(--grid-color); stroke-width: 0.8"/>
     </g>
     <g id="line2d_8">
      <defs>
       <path id="me105a68792" d="M 0 0 
L -3.5 0 
" style="stroke: var(--fg-color); stroke-width: 0.8"/>
      </defs>
      <g>
       <use xlink:href="#me105a68792" x="35.96" y="99.433699" style="fill: var(--fg-color); stroke: var(--fg-color); stroke-width: 0.8"/>
      </g>
     </g>
     <g id="text_4">
      <text style="font-size: 7px; font-family: 'DejaVu Sans', 'Bitstream Vera Sans', 'Computer Modern Sans Serif', 'Lucida Grande', 'Verdana', 'Geneva', 'Lucid', 'Arial', 'Helvetica', 'Avant Garde', sans-serif; text-anchor: end; fill: var(--fg-color)" x="28.96" y="102.092879" transform="rotate(-0 28.96 102.092879)">0</text>
     </g>
    </g>
    <g id="ytick_2">
     <g id="line2d_9">
      <path d="M 35.96 84.634566 
L 211 84.634566 
" clip-path="url(#pea5c43ee0e)" style="fill: none; stroke-dasharray: 2.96,1.28; stroke-dashoffset: 0; stroke: var(--grid-color); stroke-width: 0.8"/>
     </g>
     <g id="line2d_10">
      <g>
       <use xlink:href="#me105a68792" x="35.96" y="84.634566" style="fill: var(--fg-color); stroke: var(--fg-color); stroke-width: 0.8"/>
      </g>
     </g>
     <g id="text_5">
      <text style="font-size: 7px; font-family: 'DejaVu Sans', 'Bitstream Vera Sans', 'Computer Modern Sans Serif', 'Lucida Grande', 'Verdana', 'Geneva', 'Lucid', 'Arial', 'Helvetica', 'Avant Garde', sans-serif; text-anchor: end; fill: var(--fg-color)" x="28.96" y="87.293745" transform="rotate(-0 28.96 87.293745)">50</text>
     </g>
    </g>
    <g id="ytick_3">
     <g id="line2d_11">
      <path d="M 35.96 69.835432 
L 211 69.835432 
" clip-path="url(#pea5c43ee0e)" style="fill: none; stroke-dasharray: 2.96,1.28; stroke-dashoffset: 0; stroke: var(--grid-color); stroke-width: 0.8"/>
     </g>
     <g id="line2d_12">
      <g>
       <use xlink:href="#me105a68792" x="35.96" y="69.835432" style="fill: var(--fg-color); stroke: var(--fg-color); stroke-width: 0.8"/>
      </g>
     </g>
     <g id="text_6">
      <text style="font-size: 7px; font-family: 'DejaVu Sans', 'Bitstream Vera Sans', 'Computer Modern Sans Serif', 'Lucida Grande', 'Verdana', 'Geneva', 'Lucid', 'Arial', 'Helvetica', 'Avant Garde', sans-serif; text-anchor: end; fill: var(--fg-color)" x="28.96" y="72.494612" transform="rotate(-0 28.96 72.494612)">100</text>
     </g>
    </g>
    <g id="ytick_4">
     <g id="line2d_13">
      <path d="M 35.96 55.036299 
L 211 55.036299 
" clip-path="url(#pea5c43ee0e)" style="fill: none; stroke-dasharray: 2.96,1.28; stroke-dashoffset: 0; stroke: var(--grid-color); stroke-width: 0.8"/>
     </g>
     <g id="line2d_14">
      <g>
       <use xlink:href="#me105a68792" x="35.96" y="55.036299" style="fill: var(--fg-color); stroke: var(--fg-color); stroke-width: 0.8"/>
      </g>
     </g>
     <g id="text_7">
      <text style="font-size: 7px; font-family: 'DejaVu Sans', 'Bitstream Vera Sans', 'Computer Modern Sans Serif', 'Lucida Grande', 'Verdana', 'Geneva', 'Lucid', 'Arial', 'Helvetica', 'Avant Garde', sans-serif; text-anchor: end; fill: var(--fg-color)" x="28.96" y="57.695479" transform="rotate(-0 28.96 57.695479)">150</text>
     </g>
    </g>
    <g id="ytick_5">
     <g id="line2d_15">
      <path d="M 35.96 40.237166 
L 211 40.237166 
" clip-path="url(#pea5c43ee0e)" style="fill: none; stroke-dasharray: 2.96,1.28; stroke-dashoffset: 0; stroke: var(--grid-color); stroke-width: 0.8"/>
     </g>
     <g id="line2d_16">
      <g>
       <use xlink:href="#me105a68792" x="35.96" y="40.237166" style="fill: var(--fg-color); stroke: var(--fg-color); stroke-width: 0.8"/>
      </g>
     </g>
     <g id="text_8">
      <text style="font-size: 7px; font-family: 'DejaVu Sans', 'Bitstream Vera Sans', 'Computer Modern Sans Serif', 'Lucida Grande', 'Verdana', 'Geneva', 'Lucid', 'Arial', 'Helvetica', 'Avant Garde', sans-serif; text-anchor: end; fill: var(--fg-color)" x="28.96" y="42.896345" transform="rotate(-0 28.96 42.896345)">200</text>
     </g>
    </g>
    <g id="ytick_6">
     <g id="line2d_17">
      <path d="M 35.96 25.438032 
L 211 25.438032 
" clip-path="url(#pea5c43ee0e)" style="fill: none; stroke-dasharray: 2.96,1.28; stroke-dashoffset: 0; stroke: var(--grid-color); stroke-width: 0.8"/>
     </g>
     <g id="line2d_18">
      <g>
       <use xlink:href="#me105a68792" x="35.96" y="25.438032" style="fill: var(--fg-color); stroke: var(--fg-color); stroke-width: 0.8"/>
      </g>
     </g>
     <g id="text_9">
      <text style="font-size: 7px; font-family: 'DejaVu Sans', 'Bitstream Vera Sans', 'Computer Modern Sans Serif', 'Lucida Grande', 'Verdana', 'Geneva', 'Lucid', 'Arial', 'Helvetica', 'Avant Garde', sans-serif; text-anchor: end; fill: var(--fg-color)" x="28.96" y="28.097212" transform="rotate(-0 28.96 28.097212)">250</text>
     </g>
    </g>
    <g id="ytick_7">
     <g id="line2d_19">
      <path d="M 35.96 10.638899 
L 211 10.638899 
" clip-path="url(#pea5c43ee0e)" style="fill: none; stroke-dasharray: 2.96,1.28; stroke-dashoffset: 0; stroke: var(--grid-color); stroke-width: 0.8"/>
     </g>
     <g id="line2d_20">
      <g>
       <use xlink:href="#me105a68792" x="35.96" y="10.638899" style="fill: var(--fg-color); stroke: var(--fg-color); stroke-width: 0.8"/>
      </g>
     </g>
     <g id="text_10">
      <text style="font-size: 7px; font-family: 'DejaVu Sans', 'Bitstream Vera Sans', 'Computer Modern Sans Serif', 'Lucida Grande', 'Verdana', 'Geneva', 'Lucid', 'Arial', 'Helvetica', 'Avant Garde', sans-serif; text-anchor: end; fill: var(--fg-color)" x="28.96" y="13.298079" transform="rotate(-0 28.96 13.298079)">300</text>
     </g>
    </g>
    <g id="text_11">
     <text style="font-size: 7px; font-family: 'DejaVu Sans', 'Bitstream Vera Sans', 'Computer Modern Sans Serif', 'Lucida Grande', 'Verdana', 'Geneva', 'Lucid', 'Arial', 'Helvetica', 'Avant Garde', sans-serif; text-anchor: middle; fill: var(--fg-color)" x="9.917109" y="54.2" transform="rotate(-90 9.917109 54.2)">ms</text>
    </g>
   </g>
   <g id="line2d_21">
    <path d="M 43.916364 84.097653 
L 44.494523 84.612071 
L 45.427166 88.353884 
L 46.359808 85.696552 
L 47.292453 87.199847 
L 48.22509 87.494054 
L 49.157727 87.137395 
L 50.090359 86.88285 
L 51.023007 82.627211 
L 51.95565 86.5697 
L 52.88829 86.377312 
L 53.82093 86.819214 
L 54.753566 87.959043 
L 55.686208 86.630969 
L 56.618849 86.943231 
L 57.551483 88.508091 
L 58.484126 84.874608 
L 59.416765 87.40378 
L 60.349406 86.414901 
L 61.282045 87.446993 
L 62.214684 85.876509 
L 63.147327 86.871307 
L 64.07996 86.46729 
L 65.012598 85.591182 
L 65.945245 86.879298 
L 66.877884 87.26378 
L 67.810526 84.445729 
L 68.743162 86.839933 
L 69.675784 87.643526 
L 70.608443 86.077777 
L 71.541078 85.404121 
L 72.473724 83.11943 
L 73.406361 85.521626 
L 74.339003 83.875074 
L 75.271637 84.605263 
L 76.204286 87.361454 
L 77.136912 86.34357 
L 78.069558 78.664299 
L 79.002199 82.432159 
L 79.934841 87.217014 
L 80.867465 85.227419 
L 81.800118 85.896636 
L 82.732742 82.82404 
L 83.665398 81.699898 
L 84.598038 84.170761 
L 85.53068 87.339255 
L 86.463316 87.570418 
L 87.395962 84.133467 
L 96.913595 86.782216 
L 97.655282 85.710759 
L 98.587939 82.805097 
L 99.520578 87.548811 
L 100.453222 84.966066 
L 101.385859 87.365894 
L 102.318497 85.452662 
L 103.251135 82.450806 
L 104.183773 84.42945 
L 105.116412 85.49114 
L 106.049054 84.250972 
L 106.981691 84.82873 
L 107.914333 85.003952 
L 108.846974 82.65385 
L 109.779613 85.265601 
L 110.71225 86.335282 
L 111.644893 84.137315 
L 112.57753 83.655455 
L 113.510173 83.0922 
L 114.442814 84.2489 
L 115.37545 86.395367 
L 116.308095 84.020402 
L 117.240726 73.154582 
L 118.173367 85.548264 
L 119.106014 81.804379 
L 120.038653 84.408139 
L 120.971293 84.079894 
L 121.903926 85.467165 
L 122.836569 86.370208 
L 123.769209 83.837484 
L 124.701847 85.806953 
L 125.634489 84.092917 
L 129.365046 81.709961 
L 130.297692 84.810379 
L 131.230328 83.947294 
L 132.162968 85.440527 
L 133.095609 84.875496 
L 134.028248 85.585558 
L 134.960891 84.216342 
L 135.893512 86.078961 
L 136.826165 81.37698 
L 137.75881 85.328645 
L 138.691446 82.457021 
L 139.624089 84.350422 
L 140.556726 83.048691 
L 141.489366 81.5892 
L 142.422003 82.323237 
L 143.354646 82.011863 
L 144.287298 83.557781 
L 145.219926 83.674102 
L 146.152567 84.845601 
L 147.085204 83.695413 
L 148.017844 84.782557 
L 148.950485 84.805644 
L 149.883123 84.063615 
L 150.815765 81.109412 
L 151.7484 84.83613 
L 179.727656 84.83613 
L 188.43171 9.472727 
L 189.054038 84.93706 
L 189.986678 76.729757 
L 190.919315 83.936047 
L 191.851955 81.567001 
L 192.7846 82.267592 
L 193.717237 84.469999 
L 194.649875 84.906574 
L 195.582513 82.996598 
L 196.515156 85.917947 
L 197.447798 86.760905 
L 198.380437 85.159639 
L 199.313081 84.969322 
L 200.245713 84.039049 
L 201.178356 81.754062 
L 202.110995 86.131646 
L 203.043636 83.970085 
" clip-path="url(#pea5c43ee0e)" style="fill: none; stroke: #339af0; stroke-width: 1.2; stroke-linecap: square"/>
   </g>
   <g id="line2d_22">
    <path d="M 43.916364 98.874884 
L 44.494523 98.918393 
L 45.427166 98.364018 
L 46.359808 98.774546 
L 47.292453 98.903298 
L 48.22509 98.893531 
L 49.157727 98.888499 
L 50.090359 98.521776 
L 51.023007 98.888499 
L 51.95565 98.416703 
L 52.88829 98.191164 
L 53.82093 98.913362 
L 54.753566 98.571798 
L 55.686208 97.866175 
L 56.618849 98.285878 
L 57.551483 98.522368 
L 58.484126 98.897082 
L 59.416765 98.372601 
L 60.349406 98.42203 
L 61.282045 98.232009 
L 62.214684 98.485963 
L 63.147327 98.622411 
L 64.07996 98.90241 
L 65.012598 98.409599 
L 65.945245 98.913362 
L 66.877884 98.862749 
L 67.810526 98.923129 
L 68.743162 98.865708 
L 69.675784 98.882283 
L 70.608443 98.467316 
L 71.541078 98.874588 
L 72.473724 98.901226 
L 73.406361 98.927273 
L 74.339003 98.916617 
L 75.271637 98.879324 
L 76.204286 98.905962 
L 77.136912 98.889979 
L 78.069558 98.405455 
L 79.002199 98.902706 
L 79.934841 98.53332 
L 80.867465 98.295942 
L 81.800118 98.816871 
L 82.732742 98.916617 
L 83.665398 98.521776 
L 84.598038 98.303933 
L 85.53068 98.672136 
L 86.463316 98.480931 
L 87.395962 98.08017 
L 96.913595 98.892051 
L 97.655282 98.59962 
L 98.587939 98.902114 
L 99.520578 98.617675 
L 100.453222 98.175181 
L 101.385859 98.884355 
L 102.318497 98.383849 
L 103.251135 98.534504 
L 104.183773 98.50017 
L 105.116412 98.630698 
L 106.049054 98.414039 
L 106.981691 97.7096 
L 107.914333 98.783129 
L 108.846974 98.793489 
L 109.779613 97.984272 
L 110.71225 98.419662 
L 111.644893 98.779873 
L 112.57753 98.513193 
L 113.510173 98.780169 
L 114.442814 97.83924 
L 115.37545 98.820127 
L 116.308095 98.383849 
L 117.240726 98.80592 
L 118.173367 98.437125 
L 119.106014 98.688415 
L 120.038653 98.772178 
L 120.971293 98.767442 
L 121.903926 98.663256 
L 122.836569 98.206851 
L 123.769209 98.491882 
L 124.701847 98.040509 
L 125.634489 98.745539 
L 129.365046 98.477971 
L 130.297692 98.715645 
L 131.230328 98.60406 
L 132.162968 98.690783 
L 133.095609 98.496026 
L 134.028248 98.29831 
L 134.960891 98.700254 
L 135.893512 98.276703 
L 136.826165 98.74258 
L 137.75881 98.371417 
L 138.691446 98.60258 
L 139.624089 98.451925 
L 140.556726 98.384736 
L 141.489366 97.704272 
L 142.422003 98.306597 
L 143.354646 98.731332 
L 144.287298 98.746427 
L 145.219926 98.303933 
L 146.152567 98.719493 
L 147.085204 98.225794 
L 148.017844 98.721269 
L 148.950485 98.693446 
L 149.883123 98.36017 
L 150.815765 98.496914 
L 151.7484 98.720085 
L 179.727656 98.720085 
L 188.43171 98.696406 
L 189.054038 98.753531 
L 189.986678 98.620635 
L 190.919315 98.789345 
L 191.851955 98.73222 
L 192.7846 98.805624 
L 193.717237 98.772178 
L 194.649875 98.778097 
L 195.582513 98.749091 
L 196.515156 98.796744 
L 197.447798 98.357506 
L 198.380437 98.804736 
L 199.313081 98.751459 
L 200.245713 98.334123 
L 201.178356 98.768626 
L 202.110995 98.496618 
L 203.043636 98.752347 
" clip-path="url(#pea5c43ee0e)" style="fill: none; stroke: #ff6b6b; stroke-width: 1.2; stroke-linecap: square"/>
   </g>
   <g id="patch_3">
    <path d="M 35.96 103.4 
L 35.96 5 
" style="fill: none; stroke: var(--fg-color); stroke-width: 0.8; stroke-linejoin: miter; stroke-linecap: square"/>
   </g>
   <g id="patch_4">
    <path d="M 35.96 103.4 
L 211 103.4 
" style="fill: none; stroke: var(--fg-color); stroke-width: 0.8; stroke-linejoin: miter; stroke-linecap: square"/>
   </g>
  </g>
 </g>
 <defs>
  <clipPath id="pea5c43ee0e">
   <rect x="35.96" y="5" width="175.04" height="98.4"/>
  </clipPath>
 </defs>
</svg>
