<?xml version="1.0" encoding="utf-8" standalone="no"?>
<!DOCTYPE svg PUBLIC "-//W3C//DTD SVG 1.1//EN"
  "http://www.w3.org/Graphics/SVG/1.1/DTD/svg11.dtd">
<svg xmlns:xlink="http://www.w3.org/1999/xlink" width="216pt" height="122.4pt" viewBox="0 0 216 122.4" xmlns="http://www.w3.org/2000/svg" version="1.1">
  <style>
    :root {
      --fg-color: #212529;
      --grid-color: rgba(33, 37, 41, 0.1);
    }
    @media (prefers-color-scheme: dark) {
      :root {
        --fg-color: #dee2e6;
        --grid-color: rgba(248, 249, 250, 0.15);
      }
    }
  </style>

 <metadata>
  <rdf:RDF xmlns:dc="http://purl.org/dc/elements/1.1/" xmlns:cc="http://creativecommons.org/ns#" xmlns:rdf="http://www.w3.org/1999/02/22-rdf-syntax-ns#">
   <cc:Work>
    <dc:type rdf:resource="http://purl.org/dc/dcmitype/StillImage"/>
    <dc:date>2026-06-30T15:36:48.665869</dc:date>
    <dc:format>image/svg+xml</dc:format>
    <dc:creator>
     <cc:Agent>
      <dc:title>Matplotlib v3.11.0, https://matplotlib.org/</dc:title>
     </cc:Agent>
    </dc:creator>
   </cc:Work>
  </rdf:RDF>
 </metadata>
 <defs>
  <style type="text/css">*{stroke-linejoin: round; stroke-linecap: butt}</style>
 </defs>
 <g id="figure_1">
  <g id="patch_1">
   <path d="M 0 122.4 
L 216 122.4 
L 216 0 
L 0 0 
L 0 122.4 
z
" style="fill: none; opacity: 0"/>
  </g>
  <g id="axes_1">
   <g id="patch_2">
    <path d="M 35.96 103.4 
L 211 103.4 
L 211 5 
L 35.96 5 
L 35.96 103.4 
z
" style="fill: none; opacity: 0"/>
   </g>
   <g id="matplotlib.axis_1">
    <g id="xtick_1">
     <g id="line2d_1">
      <path d="M 69.784035 103.4 
L 69.784035 5 
" clip-path="url(#p58873e2a37)" style="fill: none; stroke-dasharray: 2.96,1.28; stroke-dashoffset: 0; stroke: var(--grid-color); stroke-width: 0.8"/>
     </g>
     <g id="line2d_2">
      <defs>
       <path id="m713e7ead4d" d="M 0 0 
L 0 3.5 
" style="stroke: var(--fg-color); stroke-width: 0.8"/>
      </defs>
      <g>
       <use xlink:href="#m713e7ead4d" x="69.784035" y="103.4" style="fill: var(--fg-color); stroke: var(--fg-color); stroke-width: 0.8"/>
      </g>
     </g>
     <g id="text_1">
      <text style="font-size: 7px; font-family: 'DejaVu Sans', 'Bitstream Vera Sans', 'Computer Modern Sans Serif', 'Lucida Grande', 'Verdana', 'Geneva', 'Lucid', 'Arial', 'Helvetica', 'Avant Garde', sans-serif; text-anchor: middle; fill: var(--fg-color)" x="69.784035" y="115.718359" transform="rotate(-0 69.784035 115.718359)">02/2026</text>
     </g>
    </g>
    <g id="xtick_2">
     <g id="line2d_3">
      <path d="M 122.345302 103.4 
L 122.345302 5 
" clip-path="url(#p58873e2a37)" style="fill: none; stroke-dasharray: 2.96,1.28; stroke-dashoffset: 0; stroke: var(--grid-color); stroke-width: 0.8"/>
     </g>
     <g id="line2d_4">
      <g>
       <use xlink:href="#m713e7ead4d" x="122.345302" y="103.4" style="fill: var(--fg-color); stroke: var(--fg-color); stroke-width: 0.8"/>
      </g>
     </g>
     <g id="text_2">
      <text style="font-size: 7px; font-family: 'DejaVu Sans', 'Bitstream Vera Sans', 'Computer Modern Sans Serif', 'Lucida Grande', 'Verdana', 'Geneva', 'Lucid', 'Arial', 'Helvetica', 'Avant Garde', sans-serif; text-anchor: middle; fill: var(--fg-color)" x="122.345302" y="115.718359" transform="rotate(-0 122.345302 115.718359)">04/2026</text>
     </g>
    </g>
    <g id="xtick_3">
     <g id="line2d_5">
      <path d="M 176.688307 103.4 
L 176.688307 5 
" clip-path="url(#p58873e2a37)" style="fill: none; stroke-dasharray: 2.96,1.28; stroke-dashoffset: 0; stroke: var(--grid-color); stroke-width: 0.8"/>
     </g>
     <g id="line2d_6">
      <g>
       <use xlink:href="#m713e7ead4d" x="176.688307" y="103.4" style="fill: var(--fg-color); stroke: var(--fg-color); stroke-width: 0.8"/>
      </g>
     </g>
     <g id="text_3">
      <text style="font-size: 7px; font-family: 'DejaVu Sans', 'Bitstream Vera Sans', 'Computer Modern Sans Serif', 'Lucida Grande', 'Verdana', 'Geneva', 'Lucid', 'Arial', 'Helvetica', 'Avant Garde', sans-serif; text-anchor: middle; fill: var(--fg-color)" x="176.688307" y="115.718359" transform="rotate(-0 176.688307 115.718359)">06/2026</text>
     </g>
    </g>
   </g>
   <g id="matplotlib.axis_2">
    <g id="ytick_1">
     <g id="line2d_7">
      <path d="M 35.96 99.887905 
L 211 99.887905 
" clip-path="url(#p58873e2a37)" style="fill: none; stroke-dasharray: 2.96,1.28; stroke-dashoffset: 0; stroke: var(--grid-color); stroke-width: 0.8"/>
     </g>
     <g id="line2d_8">
      <defs>
       <path id="md87ad8fb97" d="M 0 0 
L -3.5 0 
" style="stroke: var(--fg-color); stroke-width: 0.8"/>
      </defs>
      <g>
       <use xlink:href="#md87ad8fb97" x="35.96" y="99.887905" style="fill: var(--fg-color); stroke: var(--fg-color); stroke-width: 0.8"/>
      </g>
     </g>
     <g id="text_4">
      <text style="font-size: 7px; font-family: 'DejaVu Sans', 'Bitstream Vera Sans', 'Computer Modern Sans Serif', 'Lucida Grande', 'Verdana', 'Geneva', 'Lucid', 'Arial', 'Helvetica', 'Avant Garde', sans-serif; text-anchor: end; fill: var(--fg-color)" x="28.96" y="102.547085" transform="rotate(-0 28.96 102.547085)">0</text>
     </g>
    </g>
    <g id="ytick_2">
     <g id="line2d_9">
      <path d="M 35.96 82.485144 
L 211 82.485144 
" clip-path="url(#p58873e2a37)" style="fill: none; stroke-dasharray: 2.96,1.28; stroke-dashoffset: 0; stroke: var(--grid-color); stroke-width: 0.8"/>
     </g>
     <g id="line2d_10">
      <g>
       <use xlink:href="#md87ad8fb97" x="35.96" y="82.485144" style="fill: var(--fg-color); stroke: var(--fg-color); stroke-width: 0.8"/>
      </g>
     </g>
     <g id="text_5">
      <text style="font-size: 7px; font-family: 'DejaVu Sans', 'Bitstream Vera Sans', 'Computer Modern Sans Serif', 'Lucida Grande', 'Verdana', 'Geneva', 'Lucid', 'Arial', 'Helvetica', 'Avant Garde', sans-serif; text-anchor: end; fill: var(--fg-color)" x="28.96" y="85.144323" transform="rotate(-0 28.96 85.144323)">20</text>
     </g>
    </g>
    <g id="ytick_3">
     <g id="line2d_11">
      <path d="M 35.96 65.082382 
L 211 65.082382 
" clip-path="url(#p58873e2a37)" style="fill: none; stroke-dasharray: 2.96,1.28; stroke-dashoffset: 0; stroke: var(--grid-color); stroke-width: 0.8"/>
     </g>
     <g id="line2d_12">
      <g>
       <use xlink:href="#md87ad8fb97" x="35.96" y="65.082382" style="fill: var(--fg-color); stroke: var(--fg-color); stroke-width: 0.8"/>
      </g>
     </g>
     <g id="text_6">
      <text style="font-size: 7px; font-family: 'DejaVu Sans', 'Bitstream Vera Sans', 'Computer Modern Sans Serif', 'Lucida Grande', 'Verdana', 'Geneva', 'Lucid', 'Arial', 'Helvetica', 'Avant Garde', sans-serif; text-anchor: end; fill: var(--fg-color)" x="28.96" y="67.741562" transform="rotate(-0 28.96 67.741562)">40</text>
     </g>
    </g>
    <g id="ytick_4">
     <g id="line2d_13">
      <path d="M 35.96 47.67962 
L 211 47.67962 
" clip-path="url(#p58873e2a37)" style="fill: none; stroke-dasharray: 2.96,1.28; stroke-dashoffset: 0; stroke: var(--grid-color); stroke-width: 0.8"/>
     </g>
     <g id="line2d_14">
      <g>
       <use xlink:href="#md87ad8fb97" x="35.96" y="47.67962" style="fill: var(--fg-color); stroke: var(--fg-color); stroke-width: 0.8"/>
      </g>
     </g>
     <g id="text_7">
      <text style="font-size: 7px; font-family: 'DejaVu Sans', 'Bitstream Vera Sans', 'Computer Modern Sans Serif', 'Lucida Grande', 'Verdana', 'Geneva', 'Lucid', 'Arial', 'Helvetica', 'Avant Garde', sans-serif; text-anchor: end; fill: var(--fg-color)" x="28.96" y="50.3388" transform="rotate(-0 28.96 50.3388)">60</text>
     </g>
    </g>
    <g id="ytick_5">
     <g id="line2d_15">
      <path d="M 35.96 30.276859 
L 211 30.276859 
" clip-path="url(#p58873e2a37)" style="fill: none; stroke-dasharray: 2.96,1.28; stroke-dashoffset: 0; stroke: var(--grid-color); stroke-width: 0.8"/>
     </g>
     <g id="line2d_16">
      <g>
       <use xlink:href="#md87ad8fb97" x="35.96" y="30.276859" style="fill: var(--fg-color); stroke: var(--fg-color); stroke-width: 0.8"/>
      </g>
     </g>
     <g id="text_8">
      <text style="font-size: 7px; font-family: 'DejaVu Sans', 'Bitstream Vera Sans', 'Computer Modern Sans Serif', 'Lucida Grande', 'Verdana', 'Geneva', 'Lucid', 'Arial', 'Helvetica', 'Avant Garde', sans-serif; text-anchor: end; fill: var(--fg-color)" x="28.96" y="32.936038" transform="rotate(-0 28.96 32.936038)">80</text>
     </g>
    </g>
    <g id="ytick_6">
     <g id="line2d_17">
      <path d="M 35.96 12.874097 
L 211 12.874097 
" clip-path="url(#p58873e2a37)" style="fill: none; stroke-dasharray: 2.96,1.28; stroke-dashoffset: 0; stroke: var(--grid-color); stroke-width: 0.8"/>
     </g>
     <g id="line2d_18">
      <g>
       <use xlink:href="#md87ad8fb97" x="35.96" y="12.874097" style="fill: var(--fg-color); stroke: var(--fg-color); stroke-width: 0.8"/>
      </g>
     </g>
     <g id="text_9">
      <text style="font-size: 7px; font-family: 'DejaVu Sans', 'Bitstream Vera Sans', 'Computer Modern Sans Serif', 'Lucida Grande', 'Verdana', 'Geneva', 'Lucid', 'Arial', 'Helvetica', 'Avant Garde', sans-serif; text-anchor: end; fill: var(--fg-color)" x="28.96" y="15.533277" transform="rotate(-0 28.96 15.533277)">100</text>
     </g>
    </g>
    <g id="text_10">
     <text style="font-size: 7px; font-family: 'DejaVu Sans', 'Bitstream Vera Sans', 'Computer Modern Sans Serif', 'Lucida Grande', 'Verdana', 'Geneva', 'Lucid', 'Arial', 'Helvetica', 'Avant Garde', sans-serif; text-anchor: middle; fill: var(--fg-color)" x="9.917109" y="54.2" transform="rotate(-90 9.917109 54.2)">ms</text>
    </g>
   </g>
   <g id="line2d_19">
    <path d="M 43.916364 43.468152 
L 44.468628 42.028944 
L 45.3595 42.881679 
L 46.250371 43.915403 
L 47.141245 37.421562 
L 48.032112 36.048485 
L 48.922979 41.225806 
L 49.81384 39.726558 
L 50.704717 43.287163 
L 51.595589 41.203183 
L 52.486458 42.817289 
L 53.377327 37.139638 
L 54.268192 42.123789 
L 55.159063 41.837513 
L 56.049934 40.783776 
L 56.940797 45.588678 
L 57.831669 41.405925 
L 58.722538 41.954982 
L 59.613407 43.71005 
L 60.504275 42.693729 
L 61.395144 31.175711 
L 62.286016 35.917964 
L 63.176879 42.202101 
L 64.067746 43.424645 
L 64.958622 42.457052 
L 65.84949 44.619345 
L 66.740361 36.322578 
L 67.631226 38.577976 
L 68.522078 43.177526 
L 69.412965 41.154455 
L 70.30383 33.745229 
L 71.194705 41.389392 
L 72.085571 39.754403 
L 72.976442 42.377869 
L 73.867306 42.226465 
L 74.758184 42.454441 
L 75.649039 45.127505 
L 76.539914 46.565844 
L 77.430784 40.490539 
L 78.321655 36.33737 
L 79.212509 42.154243 
L 80.103391 29.999285 
L 80.994245 35.049566 
L 81.885129 48.232158 
L 82.775998 38.536209 
L 83.666869 43.008719 
L 84.557735 39.951924 
L 85.44861 45.036141 
L 94.53997 49.621768 
L 95.248438 48.037247 
L 96.139324 46.47796 
L 97.030192 43.136629 
L 97.921065 41.8175 
L 98.811931 44.849931 
L 99.702798 44.511448 
L 100.593666 48.645474 
L 101.484533 43.818818 
L 102.375401 39.845767 
L 103.266272 45.210168 
L 104.157138 46.597169 
L 105.048009 40.813361 
L 105.93888 47.280227 
L 106.829748 46.893015 
L 107.720614 46.777287 
L 108.611487 39.489011 
L 109.502352 46.069865 
L 110.393224 44.607163 
L 111.284094 42.043736 
L 112.17496 45.491223 
L 113.065834 44.419213 
L 113.956695 42.795535 
L 114.847564 39.663038 
L 115.738441 43.301085 
L 116.629309 41.050908 
L 117.520178 41.034376 
L 118.41104 46.573675 
L 119.301913 39.99282 
L 120.192782 36.77592 
L 121.083649 43.160123 
L 121.97452 43.489035 
L 125.537994 40.942141 
L 126.428869 40.963024 
L 127.319734 42.250829 
L 128.210603 43.190578 
L 129.992342 31.877043 
L 130.883214 41.9428 
L 131.774065 41.218845 
L 132.664946 42.624118 
L 133.55582 39.908417 
L 134.446686 42.183828 
L 135.337558 39.047851 
L 136.228424 41.557329 
L 137.119294 35.886639 
L 138.010159 41.517302 
L 138.901032 40.015444 
L 139.791912 31.218348 
L 140.68277 25.5581 
L 141.57364 34.200311 
L 142.464507 38.869472 
L 144.246246 43.696998 
L 145.137113 40.901245 
L 146.027984 40.882972 
L 146.918849 43.189708 
L 173.644977 43.189708 
L 181.959197 32.36606 
L 182.553652 41.006531 
L 183.444521 37.177054 
L 184.335387 36.83857 
L 185.226256 31.79612 
L 186.117131 41.456393 
L 187.007996 33.787866 
L 187.898864 37.748734 
L 188.789731 40.315642 
L 189.680603 37.315406 
L 190.571474 9.472727 
L 191.462343 30.919021 
L 193.244077 38.772017 
L 194.134949 34.465703 
L 195.025817 40.094627 
L 195.916688 32.352138 
L 196.807557 35.763949 
L 197.698426 38.322155 
L 198.589295 35.803106 
L 199.480162 34.070661 
L 200.371032 39.030448 
L 202.152766 42.188179 
L 203.043636 42.926056 
L 203.043636 42.926056 
" clip-path="url(#p58873e2a37)" style="fill: none; stroke: #339af0; stroke-width: 1.2; stroke-linecap: square"/>
   </g>
   <g id="line2d_20">
    <path d="M 43.916364 98.791531 
L 45.3595 98.797622 
L 47.141245 98.737583 
L 48.922979 98.734972 
L 49.81384 98.839389 
L 52.486458 98.750635 
L 53.377327 98.646218 
L 55.159063 98.824596 
L 56.049934 98.700167 
L 56.940797 98.839389 
L 58.722538 98.801973 
L 63.176879 98.858532 
L 64.958622 98.709738 
L 65.84949 98.862883 
L 67.631226 98.801103 
L 70.30383 98.727141 
L 71.194705 98.773258 
L 72.085571 98.586179 
L 72.976442 98.841129 
L 73.867306 98.741933 
L 76.539914 98.913351 
L 77.430784 98.425203 
L 78.321655 98.822856 
L 80.103391 98.821986 
L 80.994245 98.729751 
L 81.885129 98.925532 
L 82.775998 98.803713 
L 95.248438 98.923792 
L 96.139324 98.816765 
L 97.921065 98.880285 
L 98.811931 98.357332 
L 99.702798 97.096502 
L 100.593666 98.919441 
L 102.375401 98.696686 
L 103.266272 98.808934 
L 104.157138 98.808064 
L 105.048009 98.076278 
L 105.93888 98.861142 
L 107.720614 98.91161 
L 108.611487 98.773258 
L 110.393224 98.856792 
L 111.284094 98.730622 
L 113.065834 98.838519 
L 113.956695 97.823938 
L 115.738441 98.927273 
L 117.520178 98.792401 
L 127.319734 98.621854 
L 128.210603 97.292283 
L 129.101474 98.730622 
L 130.883214 98.698426 
L 132.664946 98.819376 
L 133.55582 98.72279 
L 134.446686 98.778479 
L 137.119294 98.663621 
L 138.010159 98.802843 
L 139.791912 98.581828 
L 140.68277 98.765427 
L 142.464507 98.761946 
L 186.117131 98.675803 
L 187.007996 97.468051 
L 187.898864 98.65753 
L 188.789731 98.734972 
L 190.571474 98.668842 
L 192.353215 98.704517 
L 193.244077 98.549633 
L 194.134949 98.72279 
L 195.025817 98.733232 
L 195.916688 98.419112 
L 196.807557 98.65579 
L 197.698426 98.604451 
L 198.589295 98.709738 
L 199.480162 98.385177 
L 200.371032 98.741063 
L 203.043636 98.766297 
L 203.043636 98.766297 
" clip-path="url(#p58873e2a37)" style="fill: none; stroke: #ff6b6b; stroke-width: 1.2; stroke-linecap: square"/>
   </g>
   <g id="patch_3">
    <path d="M 35.96 103.4 
L 35.96 5 
" style="fill: none; stroke: var(--fg-color); stroke-width: 0.8; stroke-linejoin: miter; stroke-linecap: square"/>
   </g>
   <g id="patch_4">
    <path d="M 35.96 103.4 
L 211 103.4 
" style="fill: none; stroke: var(--fg-color); stroke-width: 0.8; stroke-linejoin: miter; stroke-linecap: square"/>
   </g>
  </g>
 </g>
 <defs>
  <clipPath id="p58873e2a37">
   <rect x="35.96" y="5" width="175.04" height="98.4"/>
  </clipPath>
 </defs>
</svg>
