<?xml version="1.0" encoding="utf-8" standalone="no"?>
<!DOCTYPE svg PUBLIC "-//W3C//DTD SVG 1.1//EN"
  "http://www.w3.org/Graphics/SVG/1.1/DTD/svg11.dtd">
<svg xmlns:xlink="http://www.w3.org/1999/xlink" width="216pt" height="122.4pt" viewBox="0 0 216 122.4" xmlns="http://www.w3.org/2000/svg" version="1.1">
  <style>
    :root {
      --fg-color: #212529;
      --grid-color: rgba(33, 37, 41, 0.1);
    }
    @media (prefers-color-scheme: dark) {
      :root {
        --fg-color: #dee2e6;
        --grid-color: rgba(248, 249, 250, 0.15);
      }
    }
  </style>

 <metadata>
  <rdf:RDF xmlns:dc="http://purl.org/dc/elements/1.1/" xmlns:cc="http://creativecommons.org/ns#" xmlns:rdf="http://www.w3.org/1999/02/22-rdf-syntax-ns#">
   <cc:Work>
    <dc:type rdf:resource="http://purl.org/dc/dcmitype/StillImage"/>
    <dc:date>2026-06-30T04:48:28.930225</dc:date>
    <dc:format>image/svg+xml</dc:format>
    <dc:creator>
     <cc:Agent>
      <dc:title>Matplotlib v3.11.0, https://matplotlib.org/</dc:title>
     </cc:Agent>
    </dc:creator>
   </cc:Work>
  </rdf:RDF>
 </metadata>
 <defs>
  <style type="text/css">*{stroke-linejoin: round; stroke-linecap: butt}</style>
 </defs>
 <g id="figure_1">
  <g id="patch_1">
   <path d="M 0 122.4 
L 216 122.4 
L 216 0 
L 0 0 
L 0 122.4 
z
" style="fill: none; opacity: 0"/>
  </g>
  <g id="axes_1">
   <g id="patch_2">
    <path d="M 35.96 103.4 
L 211 103.4 
L 211 5 
L 35.96 5 
L 35.96 103.4 
z
" style="fill: none; opacity: 0"/>
   </g>
   <g id="matplotlib.axis_1">
    <g id="xtick_1">
     <g id="line2d_1">
      <path d="M 72.056377 103.4 
L 72.056377 5 
" clip-path="url(#p14310cf9fb)" style="fill: none; stroke-dasharray: 2.96,1.28; stroke-dashoffset: 0; stroke: var(--grid-color); stroke-width: 0.8"/>
     </g>
     <g id="line2d_2">
      <defs>
       <path id="m181b83738a" d="M 0 0 
L 0 3.5 
" style="stroke: var(--fg-color); stroke-width: 0.8"/>
      </defs>
      <g>
       <use xlink:href="#m181b83738a" x="72.056377" y="103.4" style="fill: var(--fg-color); stroke: var(--fg-color); stroke-width: 0.8"/>
      </g>
     </g>
     <g id="text_1">
      <text style="font-size: 7px; font-family: 'DejaVu Sans', 'Bitstream Vera Sans', 'Computer Modern Sans Serif', 'Lucida Grande', 'Verdana', 'Geneva', 'Lucid', 'Arial', 'Helvetica', 'Avant Garde', sans-serif; text-anchor: middle; fill: var(--fg-color)" x="72.056377" y="115.718359" transform="rotate(-0 72.056377 115.718359)">02/2026</text>
     </g>
    </g>
    <g id="xtick_2">
     <g id="line2d_3">
      <path d="M 126.640628 103.4 
L 126.640628 5 
" clip-path="url(#p14310cf9fb)" style="fill: none; stroke-dasharray: 2.96,1.28; stroke-dashoffset: 0; stroke: var(--grid-color); stroke-width: 0.8"/>
     </g>
     <g id="line2d_4">
      <g>
       <use xlink:href="#m181b83738a" x="126.640628" y="103.4" style="fill: var(--fg-color); stroke: var(--fg-color); stroke-width: 0.8"/>
      </g>
     </g>
     <g id="text_2">
      <text style="font-size: 7px; font-family: 'DejaVu Sans', 'Bitstream Vera Sans', 'Computer Modern Sans Serif', 'Lucida Grande', 'Verdana', 'Geneva', 'Lucid', 'Arial', 'Helvetica', 'Avant Garde', sans-serif; text-anchor: middle; fill: var(--fg-color)" x="126.640628" y="115.718359" transform="rotate(-0 126.640628 115.718359)">04/2026</text>
     </g>
    </g>
    <g id="xtick_3">
     <g id="line2d_5">
      <path d="M 183.075192 103.4 
L 183.075192 5 
" clip-path="url(#p14310cf9fb)" style="fill: none; stroke-dasharray: 2.96,1.28; stroke-dashoffset: 0; stroke: var(--grid-color); stroke-width: 0.8"/>
     </g>
     <g id="line2d_6">
      <g>
       <use xlink:href="#m181b83738a" x="183.075192" y="103.4" style="fill: var(--fg-color); stroke: var(--fg-color); stroke-width: 0.8"/>
      </g>
     </g>
     <g id="text_3">
      <text style="font-size: 7px; font-family: 'DejaVu Sans', 'Bitstream Vera Sans', 'Computer Modern Sans Serif', 'Lucida Grande', 'Verdana', 'Geneva', 'Lucid', 'Arial', 'Helvetica', 'Avant Garde', sans-serif; text-anchor: middle; fill: var(--fg-color)" x="183.075192" y="115.718359" transform="rotate(-0 183.075192 115.718359)">06/2026</text>
     </g>
    </g>
   </g>
   <g id="matplotlib.axis_2">
    <g id="ytick_1">
     <g id="line2d_7">
      <path d="M 35.96 101.244088 
L 211 101.244088 
" clip-path="url(#p14310cf9fb)" style="fill: none; stroke-dasharray: 2.96,1.28; stroke-dashoffset: 0; stroke: var(--grid-color); stroke-width: 0.8"/>
     </g>
     <g id="line2d_8">
      <defs>
       <path id="m3c811d0a65" d="M 0 0 
L -3.5 0 
" style="stroke: var(--fg-color); stroke-width: 0.8"/>
      </defs>
      <g>
       <use xlink:href="#m3c811d0a65" x="35.96" y="101.244088" style="fill: var(--fg-color); stroke: var(--fg-color); stroke-width: 0.8"/>
      </g>
     </g>
     <g id="text_4">
      <text style="font-size: 7px; font-family: 'DejaVu Sans', 'Bitstream Vera Sans', 'Computer Modern Sans Serif', 'Lucida Grande', 'Verdana', 'Geneva', 'Lucid', 'Arial', 'Helvetica', 'Avant Garde', sans-serif; text-anchor: end; fill: var(--fg-color)" x="28.96" y="103.903268" transform="rotate(-0 28.96 103.903268)">0</text>
     </g>
    </g>
    <g id="ytick_2">
     <g id="line2d_9">
      <path d="M 35.96 85.51554 
L 211 85.51554 
" clip-path="url(#p14310cf9fb)" style="fill: none; stroke-dasharray: 2.96,1.28; stroke-dashoffset: 0; stroke: var(--grid-color); stroke-width: 0.8"/>
     </g>
     <g id="line2d_10">
      <g>
       <use xlink:href="#m3c811d0a65" x="35.96" y="85.51554" style="fill: var(--fg-color); stroke: var(--fg-color); stroke-width: 0.8"/>
      </g>
     </g>
     <g id="text_5">
      <text style="font-size: 7px; font-family: 'DejaVu Sans', 'Bitstream Vera Sans', 'Computer Modern Sans Serif', 'Lucida Grande', 'Verdana', 'Geneva', 'Lucid', 'Arial', 'Helvetica', 'Avant Garde', sans-serif; text-anchor: end; fill: var(--fg-color)" x="28.96" y="88.174719" transform="rotate(-0 28.96 88.174719)">20</text>
     </g>
    </g>
    <g id="ytick_3">
     <g id="line2d_11">
      <path d="M 35.96 69.786991 
L 211 69.786991 
" clip-path="url(#p14310cf9fb)" style="fill: none; stroke-dasharray: 2.96,1.28; stroke-dashoffset: 0; stroke: var(--grid-color); stroke-width: 0.8"/>
     </g>
     <g id="line2d_12">
      <g>
       <use xlink:href="#m3c811d0a65" x="35.96" y="69.786991" style="fill: var(--fg-color); stroke: var(--fg-color); stroke-width: 0.8"/>
      </g>
     </g>
     <g id="text_6">
      <text style="font-size: 7px; font-family: 'DejaVu Sans', 'Bitstream Vera Sans', 'Computer Modern Sans Serif', 'Lucida Grande', 'Verdana', 'Geneva', 'Lucid', 'Arial', 'Helvetica', 'Avant Garde', sans-serif; text-anchor: end; fill: var(--fg-color)" x="28.96" y="72.446171" transform="rotate(-0 28.96 72.446171)">40</text>
     </g>
    </g>
    <g id="ytick_4">
     <g id="line2d_13">
      <path d="M 35.96 54.058443 
L 211 54.058443 
" clip-path="url(#p14310cf9fb)" style="fill: none; stroke-dasharray: 2.96,1.28; stroke-dashoffset: 0; stroke: var(--grid-color); stroke-width: 0.8"/>
     </g>
     <g id="line2d_14">
      <g>
       <use xlink:href="#m3c811d0a65" x="35.96" y="54.058443" style="fill: var(--fg-color); stroke: var(--fg-color); stroke-width: 0.8"/>
      </g>
     </g>
     <g id="text_7">
      <text style="font-size: 7px; font-family: 'DejaVu Sans', 'Bitstream Vera Sans', 'Computer Modern Sans Serif', 'Lucida Grande', 'Verdana', 'Geneva', 'Lucid', 'Arial', 'Helvetica', 'Avant Garde', sans-serif; text-anchor: end; fill: var(--fg-color)" x="28.96" y="56.717623" transform="rotate(-0 28.96 56.717623)">60</text>
     </g>
    </g>
    <g id="ytick_5">
     <g id="line2d_15">
      <path d="M 35.96 38.329895 
L 211 38.329895 
" clip-path="url(#p14310cf9fb)" style="fill: none; stroke-dasharray: 2.96,1.28; stroke-dashoffset: 0; stroke: var(--grid-color); stroke-width: 0.8"/>
     </g>
     <g id="line2d_16">
      <g>
       <use xlink:href="#m3c811d0a65" x="35.96" y="38.329895" style="fill: var(--fg-color); stroke: var(--fg-color); stroke-width: 0.8"/>
      </g>
     </g>
     <g id="text_8">
      <text style="font-size: 7px; font-family: 'DejaVu Sans', 'Bitstream Vera Sans', 'Computer Modern Sans Serif', 'Lucida Grande', 'Verdana', 'Geneva', 'Lucid', 'Arial', 'Helvetica', 'Avant Garde', sans-serif; text-anchor: end; fill: var(--fg-color)" x="28.96" y="40.989074" transform="rotate(-0 28.96 40.989074)">80</text>
     </g>
    </g>
    <g id="ytick_6">
     <g id="line2d_17">
      <path d="M 35.96 22.601347 
L 211 22.601347 
" clip-path="url(#p14310cf9fb)" style="fill: none; stroke-dasharray: 2.96,1.28; stroke-dashoffset: 0; stroke: var(--grid-color); stroke-width: 0.8"/>
     </g>
     <g id="line2d_18">
      <g>
       <use xlink:href="#m3c811d0a65" x="35.96" y="22.601347" style="fill: var(--fg-color); stroke: var(--fg-color); stroke-width: 0.8"/>
      </g>
     </g>
     <g id="text_9">
      <text style="font-size: 7px; font-family: 'DejaVu Sans', 'Bitstream Vera Sans', 'Computer Modern Sans Serif', 'Lucida Grande', 'Verdana', 'Geneva', 'Lucid', 'Arial', 'Helvetica', 'Avant Garde', sans-serif; text-anchor: end; fill: var(--fg-color)" x="28.96" y="25.260526" transform="rotate(-0 28.96 25.260526)">100</text>
     </g>
    </g>
    <g id="ytick_7">
     <g id="line2d_19">
      <path d="M 35.96 6.872798 
L 211 6.872798 
" clip-path="url(#p14310cf9fb)" style="fill: none; stroke-dasharray: 2.96,1.28; stroke-dashoffset: 0; stroke: var(--grid-color); stroke-width: 0.8"/>
     </g>
     <g id="line2d_20">
      <g>
       <use xlink:href="#m3c811d0a65" x="35.96" y="6.872798" style="fill: var(--fg-color); stroke: var(--fg-color); stroke-width: 0.8"/>
      </g>
     </g>
     <g id="text_10">
      <text style="font-size: 7px; font-family: 'DejaVu Sans', 'Bitstream Vera Sans', 'Computer Modern Sans Serif', 'Lucida Grande', 'Verdana', 'Geneva', 'Lucid', 'Arial', 'Helvetica', 'Avant Garde', sans-serif; text-anchor: end; fill: var(--fg-color)" x="28.96" y="9.531978" transform="rotate(-0 28.96 9.531978)">120</text>
     </g>
    </g>
    <g id="text_11">
     <text style="font-size: 7px; font-family: 'DejaVu Sans', 'Bitstream Vera Sans', 'Computer Modern Sans Serif', 'Lucida Grande', 'Verdana', 'Geneva', 'Lucid', 'Arial', 'Helvetica', 'Avant Garde', sans-serif; text-anchor: middle; fill: var(--fg-color)" x="9.917109" y="54.2" transform="rotate(-90 9.917109 54.2)">ms</text>
    </g>
   </g>
   <g id="line2d_21">
    <path d="M 43.916364 40.792985 
L 45.193108 37.464038 
L 45.766628 38.943308 
L 46.691788 38.124637 
L 47.616947 37.557623 
L 48.542109 37.40427 
L 49.467263 34.727271 
L 50.392418 35.586836 
L 51.317566 36.184521 
L 52.242732 39.918478 
L 53.167891 33.995893 
L 54.093049 33.271594 
L 55.018206 34.222384 
L 55.943359 38.804897 
L 56.868517 39.307424 
L 57.793676 40.124522 
L 58.718827 37.839951 
L 59.643987 39.108458 
L 60.569143 36.121607 
L 61.494301 40.146542 
L 62.419457 37.697607 
L 63.344613 32.975897 
L 64.269773 34.304959 
L 65.194924 37.817931 
L 66.120079 41.625026 
L 67.045243 39.018019 
L 67.970398 37.69918 
L 68.895557 40.288099 
L 69.82071 39.411232 
L 70.74585 38.712885 
L 71.671025 31.568978 
L 72.596178 39.964877 
L 73.521341 34.561335 
L 74.446495 32.80131 
L 75.371653 43.094858 
L 76.296805 41.453584 
L 77.221971 37.838378 
L 78.147114 41.271133 
L 79.072277 37.649635 
L 79.997435 40.89758 
L 80.922594 38.556386 
L 81.847735 43.440887 
L 82.772905 33.12925 
L 83.698046 38.460442 
L 84.623219 39.095875 
L 85.548376 39.42932 
L 86.473535 33.870851 
L 87.398688 36.423595 
L 88.323852 40.882638 
L 97.76512 39.296414 
L 98.500856 42.128339 
L 99.426031 42.168447 
L 100.351186 38.70738 
L 101.276348 34.855458 
L 102.201502 35.162165 
L 103.126656 42.103174 
L 104.051812 38.887472 
L 104.976967 38.432917 
L 105.902123 39.278326 
L 106.827282 41.811409 
L 107.752435 40.072618 
L 108.677594 40.268438 
L 109.602753 37.208449 
L 110.527909 43.24192 
L 111.453063 44.384599 
L 112.378223 39.071496 
L 113.303377 36.2089 
L 114.228537 39.695919 
L 115.153695 39.225636 
L 116.078848 42.092164 
L 117.004011 39.132837 
L 117.929158 38.750633 
L 118.854316 37.98308 
L 119.779481 36.970948 
L 120.704637 40.325061 
L 121.629794 42.377637 
L 122.554943 40.452462 
L 123.480104 37.263499 
L 124.405261 39.94443 
L 125.330416 40.644351 
L 126.255574 35.890397 
L 129.9562 37.604809 
L 130.881363 40.498862 
L 131.806516 39.557508 
L 132.731673 38.429771 
L 133.656831 36.356748 
L 134.581987 36.440896 
L 135.507147 35.568748 
L 136.432285 37.308326 
L 137.357455 39.353037 
L 138.282617 42.018239 
L 139.20777 33.936911 
L 140.13293 36.802653 
L 141.058084 38.450218 
L 141.983242 38.217436 
L 142.908395 41.885333 
L 143.833556 36.70199 
L 144.758724 38.487967 
L 145.683869 32.687278 
L 146.609028 39.78164 
L 147.534182 35.074085 
L 148.459339 39.761979 
L 149.384497 38.624805 
L 150.309651 36.242716 
L 151.234811 38.546162 
L 152.159963 38.071947 
L 179.91473 38.071947 
L 188.548948 37.569419 
L 189.166282 33.014432 
L 190.091439 28.333616 
L 191.016594 20.919178 
L 191.94175 32.975111 
L 192.866913 29.80974 
L 193.792066 28.829065 
L 194.717222 33.181155 
L 195.642377 30.379114 
L 196.567536 28.069376 
L 197.492695 9.472727 
L 198.417852 31.827713 
L 199.343013 25.08803 
L 200.268162 29.432255 
L 201.193322 24.742002 
L 202.118478 31.688515 
L 203.043636 31.318894 
" clip-path="url(#p14310cf9fb)" style="fill: none; stroke: #339af0; stroke-width: 1.2; stroke-linecap: square"/>
   </g>
   <g id="line2d_22">
    <path d="M 43.916364 98.741676 
L 45.193108 98.519117 
L 45.766628 98.549001 
L 46.691788 98.464853 
L 47.616947 98.336666 
L 48.542109 98.743249 
L 49.467263 97.903344 
L 50.392418 98.692917 
L 51.317566 98.132195 
L 52.242732 98.770774 
L 53.167891 98.248586 
L 54.093049 98.614275 
L 55.018206 98.292626 
L 55.943359 98.687412 
L 56.868517 98.456989 
L 57.793676 98.544283 
L 58.718827 98.677189 
L 59.643987 98.765269 
L 60.569143 98.372841 
L 61.494301 98.692917 
L 62.419457 98.612702 
L 63.344613 98.696063 
L 64.269773 98.585963 
L 65.194924 98.701568 
L 66.120079 98.268247 
L 67.045243 98.649664 
L 67.970398 98.698422 
L 68.895557 98.687412 
L 69.82071 98.657528 
L 70.74585 98.456989 
L 71.671025 98.653596 
L 72.596178 98.659887 
L 73.521341 97.964686 
L 74.446495 98.637081 
L 75.371653 98.566303 
L 76.296805 98.532486 
L 77.221971 98.803017 
L 78.147114 98.763696 
L 79.072277 97.973336 
L 79.997435 98.404298 
L 80.922594 98.653596 
L 81.847735 98.762123 
L 82.772905 97.946598 
L 83.698046 98.324869 
L 84.623219 98.378346 
L 85.548376 98.798299 
L 86.473535 98.550574 
L 87.398688 98.646518 
L 88.323852 98.697636 
L 97.76512 98.445193 
L 98.500856 98.592255 
L 99.426031 98.544283 
L 100.351186 98.5954 
L 101.276348 97.732689 
L 102.201502 98.107815 
L 103.126656 98.817173 
L 104.051812 98.758977 
L 104.976967 98.313859 
L 105.902123 98.752686 
L 106.827282 98.821891 
L 107.752435 98.430251 
L 108.677594 98.729093 
L 109.602753 98.814027 
L 110.527909 98.927273 
L 111.453063 98.902893 
L 112.378223 98.828183 
L 113.303377 98.671684 
L 114.228537 98.792794 
L 115.153695 98.728307 
L 116.078848 98.814027 
L 117.004011 98.811668 
L 117.929158 98.725161 
L 118.854316 98.755832 
L 119.779481 98.692131 
L 120.704637 98.744035 
L 121.629794 98.769201 
L 122.554943 98.746394 
L 123.480104 98.537991 
L 124.405261 98.538778 
L 125.330416 98.637081 
L 126.255574 98.622925 
L 129.9562 98.571021 
L 130.881363 98.657528 
L 131.806516 98.489233 
L 132.731673 98.652023 
L 133.656831 98.302063 
L 134.581987 98.677975 
L 135.507147 98.666965 
L 136.432285 98.645732 
L 137.357455 98.618993 
L 138.282617 98.67247 
L 139.20777 98.035464 
L 140.13293 98.585963 
L 141.058084 98.622925 
L 141.983242 98.546642 
L 142.908395 98.681121 
L 143.833556 98.582818 
L 144.758724 98.641013 
L 145.683869 97.558103 
L 146.609028 98.667752 
L 147.534182 98.543496 
L 148.459339 98.592255 
L 149.384497 98.678762 
L 150.309651 98.217915 
L 151.234811 98.180167 
L 152.159963 98.596187 
L 179.91473 98.596187 
L 188.548948 98.581245 
L 189.166282 95.816952 
L 190.091439 97.315097 
L 191.016594 97.319815 
L 191.94175 97.625735 
L 192.866913 97.498334 
L 193.792066 96.83223 
L 194.717222 97.60922 
L 195.642377 97.626522 
L 196.567536 97.059508 
L 197.492695 97.541588 
L 198.417852 97.66663 
L 199.343013 97.54316 
L 200.268162 96.282517 
L 201.193322 97.517995 
L 202.118478 97.698873 
L 203.043636 97.647755 
" clip-path="url(#p14310cf9fb)" style="fill: none; stroke: #ff6b6b; stroke-width: 1.2; stroke-linecap: square"/>
   </g>
   <g id="patch_3">
    <path d="M 35.96 103.4 
L 35.96 5 
" style="fill: none; stroke: var(--fg-color); stroke-width: 0.8; stroke-linejoin: miter; stroke-linecap: square"/>
   </g>
   <g id="patch_4">
    <path d="M 35.96 103.4 
L 211 103.4 
" style="fill: none; stroke: var(--fg-color); stroke-width: 0.8; stroke-linejoin: miter; stroke-linecap: square"/>
   </g>
  </g>
 </g>
 <defs>
  <clipPath id="p14310cf9fb">
   <rect x="35.96" y="5" width="175.04" height="98.4"/>
  </clipPath>
 </defs>
</svg>
