<?xml version="1.0" encoding="utf-8" standalone="no"?>
<!DOCTYPE svg PUBLIC "-//W3C//DTD SVG 1.1//EN"
  "http://www.w3.org/Graphics/SVG/1.1/DTD/svg11.dtd">
<svg xmlns:xlink="http://www.w3.org/1999/xlink" width="216pt" height="122.4pt" viewBox="0 0 216 122.4" xmlns="http://www.w3.org/2000/svg" version="1.1">
  <style>
    :root {
      --fg-color: #212529;
      --grid-color: rgba(33, 37, 41, 0.1);
    }
    @media (prefers-color-scheme: dark) {
      :root {
        --fg-color: #dee2e6;
        --grid-color: rgba(248, 249, 250, 0.15);
      }
    }
  </style>

 <metadata>
  <rdf:RDF xmlns:dc="http://purl.org/dc/elements/1.1/" xmlns:cc="http://creativecommons.org/ns#" xmlns:rdf="http://www.w3.org/1999/02/22-rdf-syntax-ns#">
   <cc:Work>
    <dc:type rdf:resource="http://purl.org/dc/dcmitype/StillImage"/>
    <dc:date>2026-06-30T04:48:12.113338</dc:date>
    <dc:format>image/svg+xml</dc:format>
    <dc:creator>
     <cc:Agent>
      <dc:title>Matplotlib v3.11.0, https://matplotlib.org/</dc:title>
     </cc:Agent>
    </dc:creator>
   </cc:Work>
  </rdf:RDF>
 </metadata>
 <defs>
  <style type="text/css">*{stroke-linejoin: round; stroke-linecap: butt}</style>
 </defs>
 <g id="figure_1">
  <g id="patch_1">
   <path d="M 0 122.4 
L 216 122.4 
L 216 0 
L 0 0 
L 0 122.4 
z
" style="fill: none; opacity: 0"/>
  </g>
  <g id="axes_1">
   <g id="patch_2">
    <path d="M 31.64 103.4 
L 211 103.4 
L 211 5 
L 31.64 5 
L 31.64 103.4 
z
" style="fill: none; opacity: 0"/>
   </g>
   <g id="matplotlib.axis_1">
    <g id="xtick_1">
     <g id="line2d_1">
      <path d="M 68.627238 103.4 
L 68.627238 5 
" clip-path="url(#pbed9d21939)" style="fill: none; stroke-dasharray: 2.96,1.28; stroke-dashoffset: 0; stroke: var(--grid-color); stroke-width: 0.8"/>
     </g>
     <g id="line2d_2">
      <defs>
       <path id="m50ebc7b05f" d="M 0 0 
L 0 3.5 
" style="stroke: var(--fg-color); stroke-width: 0.8"/>
      </defs>
      <g>
       <use xlink:href="#m50ebc7b05f" x="68.627238" y="103.4" style="fill: var(--fg-color); stroke: var(--fg-color); stroke-width: 0.8"/>
      </g>
     </g>
     <g id="text_1">
      <text style="font-size: 7px; font-family: 'DejaVu Sans', 'Bitstream Vera Sans', 'Computer Modern Sans Serif', 'Lucida Grande', 'Verdana', 'Geneva', 'Lucid', 'Arial', 'Helvetica', 'Avant Garde', sans-serif; text-anchor: middle; fill: var(--fg-color)" x="68.627238" y="115.718359" transform="rotate(-0 68.627238 115.718359)">02/2026</text>
     </g>
    </g>
    <g id="xtick_2">
     <g id="line2d_3">
      <path d="M 124.558632 103.4 
L 124.558632 5 
" clip-path="url(#pbed9d21939)" style="fill: none; stroke-dasharray: 2.96,1.28; stroke-dashoffset: 0; stroke: var(--grid-color); stroke-width: 0.8"/>
     </g>
     <g id="line2d_4">
      <g>
       <use xlink:href="#m50ebc7b05f" x="124.558632" y="103.4" style="fill: var(--fg-color); stroke: var(--fg-color); stroke-width: 0.8"/>
      </g>
     </g>
     <g id="text_2">
      <text style="font-size: 7px; font-family: 'DejaVu Sans', 'Bitstream Vera Sans', 'Computer Modern Sans Serif', 'Lucida Grande', 'Verdana', 'Geneva', 'Lucid', 'Arial', 'Helvetica', 'Avant Garde', sans-serif; text-anchor: middle; fill: var(--fg-color)" x="124.558632" y="115.718359" transform="rotate(-0 124.558632 115.718359)">04/2026</text>
     </g>
    </g>
    <g id="xtick_3">
     <g id="line2d_5">
      <path d="M 182.386006 103.4 
L 182.386006 5 
" clip-path="url(#pbed9d21939)" style="fill: none; stroke-dasharray: 2.96,1.28; stroke-dashoffset: 0; stroke: var(--grid-color); stroke-width: 0.8"/>
     </g>
     <g id="line2d_6">
      <g>
       <use xlink:href="#m50ebc7b05f" x="182.386006" y="103.4" style="fill: var(--fg-color); stroke: var(--fg-color); stroke-width: 0.8"/>
      </g>
     </g>
     <g id="text_3">
      <text style="font-size: 7px; font-family: 'DejaVu Sans', 'Bitstream Vera Sans', 'Computer Modern Sans Serif', 'Lucida Grande', 'Verdana', 'Geneva', 'Lucid', 'Arial', 'Helvetica', 'Avant Garde', sans-serif; text-anchor: middle; fill: var(--fg-color)" x="182.386006" y="115.718359" transform="rotate(-0 182.386006 115.718359)">06/2026</text>
     </g>
    </g>
   </g>
   <g id="matplotlib.axis_2">
    <g id="ytick_1">
     <g id="line2d_7">
      <path d="M 31.64 86.445002 
L 211 86.445002 
" clip-path="url(#pbed9d21939)" style="fill: none; stroke-dasharray: 2.96,1.28; stroke-dashoffset: 0; stroke: var(--grid-color); stroke-width: 0.8"/>
     </g>
     <g id="line2d_8">
      <defs>
       <path id="m16592fe022" d="M 0 0 
L -3.5 0 
" style="stroke: var(--fg-color); stroke-width: 0.8"/>
      </defs>
      <g>
       <use xlink:href="#m16592fe022" x="31.64" y="86.445002" style="fill: var(--fg-color); stroke: var(--fg-color); stroke-width: 0.8"/>
      </g>
     </g>
     <g id="text_4">
      <text style="font-size: 7px; font-family: 'DejaVu Sans', 'Bitstream Vera Sans', 'Computer Modern Sans Serif', 'Lucida Grande', 'Verdana', 'Geneva', 'Lucid', 'Arial', 'Helvetica', 'Avant Garde', sans-serif; text-anchor: end; fill: var(--fg-color)" x="24.64" y="89.104182" transform="rotate(-0 24.64 89.104182)">5</text>
     </g>
    </g>
    <g id="ytick_2">
     <g id="line2d_9">
      <path d="M 31.64 69.180451 
L 211 69.180451 
" clip-path="url(#pbed9d21939)" style="fill: none; stroke-dasharray: 2.96,1.28; stroke-dashoffset: 0; stroke: var(--grid-color); stroke-width: 0.8"/>
     </g>
     <g id="line2d_10">
      <g>
       <use xlink:href="#m16592fe022" x="31.64" y="69.180451" style="fill: var(--fg-color); stroke: var(--fg-color); stroke-width: 0.8"/>
      </g>
     </g>
     <g id="text_5">
      <text style="font-size: 7px; font-family: 'DejaVu Sans', 'Bitstream Vera Sans', 'Computer Modern Sans Serif', 'Lucida Grande', 'Verdana', 'Geneva', 'Lucid', 'Arial', 'Helvetica', 'Avant Garde', sans-serif; text-anchor: end; fill: var(--fg-color)" x="24.64" y="71.839631" transform="rotate(-0 24.64 71.839631)">10</text>
     </g>
    </g>
    <g id="ytick_3">
     <g id="line2d_11">
      <path d="M 31.64 51.9159 
L 211 51.9159 
" clip-path="url(#pbed9d21939)" style="fill: none; stroke-dasharray: 2.96,1.28; stroke-dashoffset: 0; stroke: var(--grid-color); stroke-width: 0.8"/>
     </g>
     <g id="line2d_12">
      <g>
       <use xlink:href="#m16592fe022" x="31.64" y="51.9159" style="fill: var(--fg-color); stroke: var(--fg-color); stroke-width: 0.8"/>
      </g>
     </g>
     <g id="text_6">
      <text style="font-size: 7px; font-family: 'DejaVu Sans', 'Bitstream Vera Sans', 'Computer Modern Sans Serif', 'Lucida Grande', 'Verdana', 'Geneva', 'Lucid', 'Arial', 'Helvetica', 'Avant Garde', sans-serif; text-anchor: end; fill: var(--fg-color)" x="24.64" y="54.57508" transform="rotate(-0 24.64 54.57508)">15</text>
     </g>
    </g>
    <g id="ytick_4">
     <g id="line2d_13">
      <path d="M 31.64 34.651349 
L 211 34.651349 
" clip-path="url(#pbed9d21939)" style="fill: none; stroke-dasharray: 2.96,1.28; stroke-dashoffset: 0; stroke: var(--grid-color); stroke-width: 0.8"/>
     </g>
     <g id="line2d_14">
      <g>
       <use xlink:href="#m16592fe022" x="31.64" y="34.651349" style="fill: var(--fg-color); stroke: var(--fg-color); stroke-width: 0.8"/>
      </g>
     </g>
     <g id="text_7">
      <text style="font-size: 7px; font-family: 'DejaVu Sans', 'Bitstream Vera Sans', 'Computer Modern Sans Serif', 'Lucida Grande', 'Verdana', 'Geneva', 'Lucid', 'Arial', 'Helvetica', 'Avant Garde', sans-serif; text-anchor: end; fill: var(--fg-color)" x="24.64" y="37.310528" transform="rotate(-0 24.64 37.310528)">20</text>
     </g>
    </g>
    <g id="ytick_5">
     <g id="line2d_15">
      <path d="M 31.64 17.386798 
L 211 17.386798 
" clip-path="url(#pbed9d21939)" style="fill: none; stroke-dasharray: 2.96,1.28; stroke-dashoffset: 0; stroke: var(--grid-color); stroke-width: 0.8"/>
     </g>
     <g id="line2d_16">
      <g>
       <use xlink:href="#m16592fe022" x="31.64" y="17.386798" style="fill: var(--fg-color); stroke: var(--fg-color); stroke-width: 0.8"/>
      </g>
     </g>
     <g id="text_8">
      <text style="font-size: 7px; font-family: 'DejaVu Sans', 'Bitstream Vera Sans', 'Computer Modern Sans Serif', 'Lucida Grande', 'Verdana', 'Geneva', 'Lucid', 'Arial', 'Helvetica', 'Avant Garde', sans-serif; text-anchor: end; fill: var(--fg-color)" x="24.64" y="20.045977" transform="rotate(-0 24.64 20.045977)">25</text>
     </g>
    </g>
    <g id="text_9">
     <text style="font-size: 7px; font-family: 'DejaVu Sans', 'Bitstream Vera Sans', 'Computer Modern Sans Serif', 'Lucida Grande', 'Verdana', 'Geneva', 'Lucid', 'Arial', 'Helvetica', 'Avant Garde', sans-serif; text-anchor: middle; fill: var(--fg-color)" x="10.050859" y="54.2" transform="rotate(-90 10.050859 54.2)">ms</text>
    </g>
   </g>
   <g id="line2d_17">
    <path d="M 39.792727 67.820004 
L 41.100981 66.317988 
L 41.688656 70.76879 
L 42.636649 70.533992 
L 43.584641 68.83516 
L 44.532636 68.458793 
L 45.480623 67.184669 
L 46.428611 67.616283 
L 47.376592 65.651577 
L 48.324591 66.587315 
L 49.272583 68.81099 
L 50.220574 68.976729 
L 51.168564 69.518836 
L 52.116549 67.47126 
L 53.064541 68.351753 
L 54.012533 63.006648 
L 54.960516 66.317988 
L 55.908509 66.559692 
L 56.856499 67.771664 
L 57.804489 67.809646 
L 58.752478 65.775882 
L 59.700467 23.936968 
L 60.64846 47.133619 
L 61.596444 62.650998 
L 62.544432 53.904776 
L 63.492429 60.717368 
L 64.440417 59.118671 
L 65.388409 67.136328 
L 66.336395 66.469917 
L 67.284367 60.430777 
L 68.232376 57.730601 
L 69.180361 66.514804 
L 70.128357 60.327189 
L 71.076344 64.263507 
L 72.024336 66.20059 
L 72.97232 62.968666 
L 73.920319 57.854905 
L 74.868295 65.568707 
L 75.816291 64.042521 
L 76.764282 63.628171 
L 77.712274 60.965978 
L 78.660247 65.413326 
L 79.608251 21.212622 
L 80.556225 56.770692 
L 81.504231 54.329484 
L 82.452221 51.72599 
L 83.400212 59.529567 
L 84.348199 53.884059 
L 85.296195 63.124047 
L 94.970475 69.801975 
L 95.724369 66.000321 
L 96.672377 67.916686 
L 97.620366 64.992071 
L 98.56836 63.47279 
L 99.516347 66.728885 
L 100.464334 66.494087 
L 101.412323 68.293053 
L 102.360311 68.541663 
L 103.308299 65.775882 
L 104.256292 69.27368 
L 105.204278 68.614174 
L 106.15227 69.159734 
L 107.100261 67.239916 
L 108.04825 68.275789 
L 108.996237 68.735026 
L 109.944231 66.915342 
L 110.892217 69.915921 
L 111.84021 66.552786 
L 112.788201 67.958121 
L 113.736187 66.860095 
L 114.684183 67.723323 
L 115.632163 69.543007 
L 116.580154 69.708746 
L 117.528151 68.089331 
L 118.47614 59.180823 
L 119.42413 66.822113 
L 120.372113 63.534943 
L 121.320106 64.819425 
L 122.268096 64.153014 
L 123.216085 67.619736 
L 124.164076 66.231666 
L 127.956033 52.606482 
L 128.904029 58.469524 
L 129.852015 54.819797 
L 130.800005 44.640618 
L 131.747996 59.215352 
L 132.695985 44.854698 
L 133.643978 62.233196 
L 134.591949 65.627406 
L 135.539952 60.133826 
L 136.487947 61.249116 
L 137.435933 58.307237 
L 138.383926 61.338892 
L 139.331913 58.338313 
L 140.279903 58.466071 
L 141.22789 55.313564 
L 142.175883 62.25046 
L 143.123885 44.930662 
L 144.071862 9.472727 
L 145.019854 24.679344 
L 145.967841 42.251204 
L 146.915831 35.086415 
L 147.863822 48.090075 
L 148.811809 51.349623 
L 149.759801 53.404104 
L 150.707787 50.054781 
L 179.147543 50.054781 
L 187.994854 41.322371 
L 188.627425 48.725411 
L 189.575414 55.006255 
L 190.523402 51.629308 
L 191.471391 50.714287 
L 192.419387 49.764737 
L 193.367373 56.428854 
L 194.315361 52.354419 
L 195.263349 54.03944 
L 196.211342 56.273473 
L 197.159334 9.579767 
L 198.107324 38.929504 
L 199.055317 47.58595 
L 200.0033 36.215517 
L 200.951292 45.514204 
L 201.899281 53.95657 
L 202.847273 40.887305 
" clip-path="url(#pbed9d21939)" style="fill: none; stroke: #339af0; stroke-width: 1.2; stroke-linecap: square"/>
   </g>
   <g id="line2d_18">
    <path d="M 39.792727 97.587544 
L 41.100981 97.294046 
L 41.688656 98.064045 
L 42.636649 97.573732 
L 43.584641 96.886603 
L 44.532636 97.811983 
L 45.480623 98.267767 
L 46.428611 96.789921 
L 47.376592 97.874135 
L 48.324591 98.226332 
L 49.272583 89.476657 
L 50.220574 97.031625 
L 51.168564 98.095121 
L 52.116549 97.294046 
L 53.064541 97.877588 
L 54.012533 95.892165 
L 54.960516 97.397633 
L 55.908509 97.349293 
L 56.856499 96.748486 
L 57.804489 98.136556 
L 58.752478 95.432928 
L 59.700467 97.459786 
L 60.64846 97.563373 
L 61.596444 96.979831 
L 62.544432 97.000549 
L 63.492429 93.091854 
L 64.440417 98.298843 
L 65.388409 97.632431 
L 66.336395 98.184897 
L 67.284367 97.37001 
L 68.232376 97.684225 
L 69.180361 97.325122 
L 70.128357 93.789342 
L 71.076344 97.352746 
L 72.024336 96.910773 
L 72.97232 96.406648 
L 73.920319 97.549562 
L 74.868295 97.083419 
L 75.816291 97.99844 
L 76.764282 98.08131 
L 77.712274 97.994987 
L 78.660247 94.504095 
L 79.608251 97.577185 
L 80.556225 97.870682 
L 81.504231 96.979831 
L 82.452221 97.079966 
L 83.400212 98.026063 
L 84.348199 98.340278 
L 85.296195 97.294046 
L 94.970475 96.044093 
L 95.724369 97.352746 
L 96.672377 94.448848 
L 97.620366 96.199474 
L 98.56836 97.556467 
L 99.516347 96.959114 
L 100.464334 97.162836 
L 101.412323 96.285796 
L 102.360311 97.145571 
L 103.308299 97.698037 
L 104.256292 97.55992 
L 105.204278 95.778219 
L 106.15227 96.158039 
L 107.100261 94.535171 
L 108.04825 96.748486 
L 108.996237 95.650461 
L 109.944231 93.993064 
L 110.892217 96.17185 
L 111.84021 90.5954 
L 112.788201 91.172036 
L 113.736187 93.796248 
L 114.684183 95.308623 
L 115.632163 96.037187 
L 116.580154 94.821762 
L 117.528151 96.14768 
L 118.47614 88.882757 
L 119.42413 95.640102 
L 120.372113 97.228441 
L 121.320106 97.224988 
L 122.268096 94.814857 
L 123.216085 96.793374 
L 124.164076 93.83423 
L 127.956033 96.993643 
L 128.904029 92.898491 
L 129.852015 92.82598 
L 130.800005 94.473019 
L 131.747996 91.620915 
L 132.695985 97.01436 
L 133.643978 90.930333 
L 134.591949 94.044858 
L 135.539952 96.710504 
L 136.487947 97.321669 
L 137.435933 97.549562 
L 138.383926 96.952208 
L 139.331913 96.465348 
L 140.279903 96.979831 
L 141.22789 96.434272 
L 142.175883 91.410287 
L 143.123885 78.651784 
L 144.071862 98.112386 
L 145.019854 98.16418 
L 145.967841 98.253955 
L 146.915831 98.253955 
L 147.863822 97.981175 
L 148.811809 97.936287 
L 149.759801 98.171085 
L 150.707787 97.963911 
L 179.147543 97.963911 
L 187.994854 98.209067 
L 188.627425 98.102027 
L 189.575414 98.253955 
L 190.523402 98.640681 
L 191.471391 98.906555 
L 192.419387 98.878932 
L 193.367373 98.67521 
L 194.315361 98.737363 
L 195.263349 98.585435 
L 196.211342 98.927273 
L 197.159334 98.920367 
L 198.107324 98.564717 
L 199.055317 98.426601 
L 200.0033 98.86512 
L 200.951292 98.892744 
L 201.899281 98.792609 
L 202.847273 98.492206 
" clip-path="url(#pbed9d21939)" style="fill: none; stroke: #ff6b6b; stroke-width: 1.2; stroke-linecap: square"/>
   </g>
   <g id="patch_3">
    <path d="M 31.64 103.4 
L 31.64 5 
" style="fill: none; stroke: var(--fg-color); stroke-width: 0.8; stroke-linejoin: miter; stroke-linecap: square"/>
   </g>
   <g id="patch_4">
    <path d="M 31.64 103.4 
L 211 103.4 
" style="fill: none; stroke: var(--fg-color); stroke-width: 0.8; stroke-linejoin: miter; stroke-linecap: square"/>
   </g>
  </g>
 </g>
 <defs>
  <clipPath id="pbed9d21939">
   <rect x="31.64" y="5" width="179.36" height="98.4"/>
  </clipPath>
 </defs>
</svg>
