<?xml version="1.0" encoding="utf-8" standalone="no"?>
<!DOCTYPE svg PUBLIC "-//W3C//DTD SVG 1.1//EN"
  "http://www.w3.org/Graphics/SVG/1.1/DTD/svg11.dtd">
<svg xmlns:xlink="http://www.w3.org/1999/xlink" width="216pt" height="122.4pt" viewBox="0 0 216 122.4" xmlns="http://www.w3.org/2000/svg" version="1.1">
  <style>
    :root {
      --fg-color: #212529;
      --grid-color: rgba(33, 37, 41, 0.1);
    }
    @media (prefers-color-scheme: dark) {
      :root {
        --fg-color: #dee2e6;
        --grid-color: rgba(248, 249, 250, 0.15);
      }
    }
  </style>

 <metadata>
  <rdf:RDF xmlns:dc="http://purl.org/dc/elements/1.1/" xmlns:cc="http://creativecommons.org/ns#" xmlns:rdf="http://www.w3.org/1999/02/22-rdf-syntax-ns#">
   <cc:Work>
    <dc:type rdf:resource="http://purl.org/dc/dcmitype/StillImage"/>
    <dc:date>2026-06-30T04:49:28.143767</dc:date>
    <dc:format>image/svg+xml</dc:format>
    <dc:creator>
     <cc:Agent>
      <dc:title>Matplotlib v3.11.0, https://matplotlib.org/</dc:title>
     </cc:Agent>
    </dc:creator>
   </cc:Work>
  </rdf:RDF>
 </metadata>
 <defs>
  <style type="text/css">*{stroke-linejoin: round; stroke-linecap: butt}</style>
 </defs>
 <g id="figure_1">
  <g id="patch_1">
   <path d="M 0 122.4 
L 216 122.4 
L 216 0 
L 0 0 
L 0 122.4 
z
" style="fill: none; opacity: 0"/>
  </g>
  <g id="axes_1">
   <g id="patch_2">
    <path d="M 35.96 103.4 
L 211 103.4 
L 211 5 
L 35.96 5 
L 35.96 103.4 
z
" style="fill: none; opacity: 0"/>
   </g>
   <g id="matplotlib.axis_1">
    <g id="xtick_1">
     <g id="line2d_1">
      <path d="M 70.996911 103.4 
L 70.996911 5 
" clip-path="url(#p3a6300cb6c)" style="fill: none; stroke-dasharray: 2.96,1.28; stroke-dashoffset: 0; stroke: var(--grid-color); stroke-width: 0.8"/>
     </g>
     <g id="line2d_2">
      <defs>
       <path id="m067d8c3b9e" d="M 0 0 
L 0 3.5 
" style="stroke: var(--fg-color); stroke-width: 0.8"/>
      </defs>
      <g>
       <use xlink:href="#m067d8c3b9e" x="70.996911" y="103.4" style="fill: var(--fg-color); stroke: var(--fg-color); stroke-width: 0.8"/>
      </g>
     </g>
     <g id="text_1">
      <text style="font-size: 7px; font-family: 'DejaVu Sans', 'Bitstream Vera Sans', 'Computer Modern Sans Serif', 'Lucida Grande', 'Verdana', 'Geneva', 'Lucid', 'Arial', 'Helvetica', 'Avant Garde', sans-serif; text-anchor: middle; fill: var(--fg-color)" x="70.996911" y="115.718359" transform="rotate(-0 70.996911 115.718359)">02/2026</text>
     </g>
    </g>
    <g id="xtick_2">
     <g id="line2d_3">
      <path d="M 126.022656 103.4 
L 126.022656 5 
" clip-path="url(#p3a6300cb6c)" style="fill: none; stroke-dasharray: 2.96,1.28; stroke-dashoffset: 0; stroke: var(--grid-color); stroke-width: 0.8"/>
     </g>
     <g id="line2d_4">
      <g>
       <use xlink:href="#m067d8c3b9e" x="126.022656" y="103.4" style="fill: var(--fg-color); stroke: var(--fg-color); stroke-width: 0.8"/>
      </g>
     </g>
     <g id="text_2">
      <text style="font-size: 7px; font-family: 'DejaVu Sans', 'Bitstream Vera Sans', 'Computer Modern Sans Serif', 'Lucida Grande', 'Verdana', 'Geneva', 'Lucid', 'Arial', 'Helvetica', 'Avant Garde', sans-serif; text-anchor: middle; fill: var(--fg-color)" x="126.022656" y="115.718359" transform="rotate(-0 126.022656 115.718359)">04/2026</text>
     </g>
    </g>
    <g id="xtick_3">
     <g id="line2d_5">
      <path d="M 182.913681 103.4 
L 182.913681 5 
" clip-path="url(#p3a6300cb6c)" style="fill: none; stroke-dasharray: 2.96,1.28; stroke-dashoffset: 0; stroke: var(--grid-color); stroke-width: 0.8"/>
     </g>
     <g id="line2d_6">
      <g>
       <use xlink:href="#m067d8c3b9e" x="182.913681" y="103.4" style="fill: var(--fg-color); stroke: var(--fg-color); stroke-width: 0.8"/>
      </g>
     </g>
     <g id="text_3">
      <text style="font-size: 7px; font-family: 'DejaVu Sans', 'Bitstream Vera Sans', 'Computer Modern Sans Serif', 'Lucida Grande', 'Verdana', 'Geneva', 'Lucid', 'Arial', 'Helvetica', 'Avant Garde', sans-serif; text-anchor: middle; fill: var(--fg-color)" x="182.913681" y="115.718359" transform="rotate(-0 182.913681 115.718359)">06/2026</text>
     </g>
    </g>
   </g>
   <g id="matplotlib.axis_2">
    <g id="ytick_1">
     <g id="line2d_7">
      <path d="M 35.96 99.565819 
L 211 99.565819 
" clip-path="url(#p3a6300cb6c)" style="fill: none; stroke-dasharray: 2.96,1.28; stroke-dashoffset: 0; stroke: var(--grid-color); stroke-width: 0.8"/>
     </g>
     <g id="line2d_8">
      <defs>
       <path id="me25069dea3" d="M 0 0 
L -3.5 0 
" style="stroke: var(--fg-color); stroke-width: 0.8"/>
      </defs>
      <g>
       <use xlink:href="#me25069dea3" x="35.96" y="99.565819" style="fill: var(--fg-color); stroke: var(--fg-color); stroke-width: 0.8"/>
      </g>
     </g>
     <g id="text_4">
      <text style="font-size: 7px; font-family: 'DejaVu Sans', 'Bitstream Vera Sans', 'Computer Modern Sans Serif', 'Lucida Grande', 'Verdana', 'Geneva', 'Lucid', 'Arial', 'Helvetica', 'Avant Garde', sans-serif; text-anchor: end; fill: var(--fg-color)" x="28.96" y="102.224999" transform="rotate(-0 28.96 102.224999)">0</text>
     </g>
    </g>
    <g id="ytick_2">
     <g id="line2d_9">
      <path d="M 35.96 76.906249 
L 211 76.906249 
" clip-path="url(#p3a6300cb6c)" style="fill: none; stroke-dasharray: 2.96,1.28; stroke-dashoffset: 0; stroke: var(--grid-color); stroke-width: 0.8"/>
     </g>
     <g id="line2d_10">
      <g>
       <use xlink:href="#me25069dea3" x="35.96" y="76.906249" style="fill: var(--fg-color); stroke: var(--fg-color); stroke-width: 0.8"/>
      </g>
     </g>
     <g id="text_5">
      <text style="font-size: 7px; font-family: 'DejaVu Sans', 'Bitstream Vera Sans', 'Computer Modern Sans Serif', 'Lucida Grande', 'Verdana', 'Geneva', 'Lucid', 'Arial', 'Helvetica', 'Avant Garde', sans-serif; text-anchor: end; fill: var(--fg-color)" x="28.96" y="79.565429" transform="rotate(-0 28.96 79.565429)">50</text>
     </g>
    </g>
    <g id="ytick_3">
     <g id="line2d_11">
      <path d="M 35.96 54.246679 
L 211 54.246679 
" clip-path="url(#p3a6300cb6c)" style="fill: none; stroke-dasharray: 2.96,1.28; stroke-dashoffset: 0; stroke: var(--grid-color); stroke-width: 0.8"/>
     </g>
     <g id="line2d_12">
      <g>
       <use xlink:href="#me25069dea3" x="35.96" y="54.246679" style="fill: var(--fg-color); stroke: var(--fg-color); stroke-width: 0.8"/>
      </g>
     </g>
     <g id="text_6">
      <text style="font-size: 7px; font-family: 'DejaVu Sans', 'Bitstream Vera Sans', 'Computer Modern Sans Serif', 'Lucida Grande', 'Verdana', 'Geneva', 'Lucid', 'Arial', 'Helvetica', 'Avant Garde', sans-serif; text-anchor: end; fill: var(--fg-color)" x="28.96" y="56.905858" transform="rotate(-0 28.96 56.905858)">100</text>
     </g>
    </g>
    <g id="ytick_4">
     <g id="line2d_13">
      <path d="M 35.96 31.587108 
L 211 31.587108 
" clip-path="url(#p3a6300cb6c)" style="fill: none; stroke-dasharray: 2.96,1.28; stroke-dashoffset: 0; stroke: var(--grid-color); stroke-width: 0.8"/>
     </g>
     <g id="line2d_14">
      <g>
       <use xlink:href="#me25069dea3" x="35.96" y="31.587108" style="fill: var(--fg-color); stroke: var(--fg-color); stroke-width: 0.8"/>
      </g>
     </g>
     <g id="text_7">
      <text style="font-size: 7px; font-family: 'DejaVu Sans', 'Bitstream Vera Sans', 'Computer Modern Sans Serif', 'Lucida Grande', 'Verdana', 'Geneva', 'Lucid', 'Arial', 'Helvetica', 'Avant Garde', sans-serif; text-anchor: end; fill: var(--fg-color)" x="28.96" y="34.246288" transform="rotate(-0 28.96 34.246288)">150</text>
     </g>
    </g>
    <g id="ytick_5">
     <g id="line2d_15">
      <path d="M 35.96 8.927538 
L 211 8.927538 
" clip-path="url(#p3a6300cb6c)" style="fill: none; stroke-dasharray: 2.96,1.28; stroke-dashoffset: 0; stroke: var(--grid-color); stroke-width: 0.8"/>
     </g>
     <g id="line2d_16">
      <g>
       <use xlink:href="#me25069dea3" x="35.96" y="8.927538" style="fill: var(--fg-color); stroke: var(--fg-color); stroke-width: 0.8"/>
      </g>
     </g>
     <g id="text_8">
      <text style="font-size: 7px; font-family: 'DejaVu Sans', 'Bitstream Vera Sans', 'Computer Modern Sans Serif', 'Lucida Grande', 'Verdana', 'Geneva', 'Lucid', 'Arial', 'Helvetica', 'Avant Garde', sans-serif; text-anchor: end; fill: var(--fg-color)" x="28.96" y="11.586718" transform="rotate(-0 28.96 11.586718)">200</text>
     </g>
    </g>
    <g id="text_9">
     <text style="font-size: 7px; font-family: 'DejaVu Sans', 'Bitstream Vera Sans', 'Computer Modern Sans Serif', 'Lucida Grande', 'Verdana', 'Geneva', 'Lucid', 'Arial', 'Helvetica', 'Avant Garde', sans-serif; text-anchor: middle; fill: var(--fg-color)" x="9.917109" y="54.2" transform="rotate(-90 9.917109 54.2)">ms</text>
    </g>
   </g>
   <g id="line2d_17">
    <path d="M 43.916364 56.848904 
L 44.494523 58.572844 
L 45.427166 62.971066 
L 46.359808 52.839066 
L 47.292453 53.360236 
L 48.22509 57.216442 
L 49.157727 55.837834 
L 50.090359 57.086829 
L 51.023007 62.685103 
L 51.95565 60.784871 
L 52.88829 53.204338 
L 53.82093 55.419991 
L 54.753566 43.624779 
L 55.686208 54.069481 
L 56.618849 57.114474 
L 57.551483 63.54526 
L 58.484126 60.718705 
L 59.416765 53.259628 
L 60.349406 60.922188 
L 61.282045 55.861853 
L 62.214684 58.978903 
L 63.147327 54.449708 
L 64.07996 62.214237 
L 65.012598 60.187112 
L 65.945245 59.864893 
L 66.877884 56.245706 
L 67.810526 59.641469 
L 68.743162 53.629432 
L 69.675784 63.848445 
L 70.608443 54.461945 
L 71.541078 61.883407 
L 72.473724 60.179861 
L 73.406361 52.218647 
L 74.339003 60.657071 
L 75.271637 55.920768 
L 76.204286 60.764478 
L 77.136912 59.443425 
L 78.069558 56.879721 
L 79.002199 60.151763 
L 79.934841 55.498847 
L 80.867465 59.392214 
L 81.800118 57.90484 
L 82.732742 58.401991 
L 83.665398 49.712499 
L 84.598038 61.409369 
L 85.53068 55.633444 
L 86.463316 56.028174 
L 87.395962 58.045329 
L 96.913595 58.784484 
L 97.655282 57.090908 
L 98.587939 60.01082 
L 99.520578 53.227451 
L 100.453222 55.037045 
L 101.385859 59.803712 
L 102.318497 56.208544 
L 103.251135 54.832202 
L 104.183773 55.904453 
L 105.116412 57.461165 
L 106.049054 54.799119 
L 106.981691 53.652092 
L 107.914333 53.193009 
L 108.846974 54.229457 
L 109.779613 60.812516 
L 110.71225 49.519892 
L 111.644893 55.778919 
L 112.57753 58.793095 
L 113.510173 57.148463 
L 114.442814 58.004995 
L 115.37545 51.788569 
L 116.308095 52.682262 
L 117.240726 57.986414 
L 118.173367 58.89461 
L 119.106014 49.276075 
L 120.038653 55.754447 
L 120.971293 51.435532 
L 121.903926 57.188344 
L 122.836569 58.464078 
L 123.769209 60.006741 
L 124.701847 57.855442 
L 125.634489 54.760598 
L 129.365046 42.339981 
L 130.297692 58.627227 
L 131.230328 49.65585 
L 132.162968 51.671192 
L 133.095609 50.32476 
L 134.028248 48.609431 
L 134.960891 51.549283 
L 135.893512 58.159533 
L 136.826165 56.780472 
L 137.75881 49.277888 
L 138.691446 47.901093 
L 139.624089 46.547863 
L 140.556726 35.920978 
L 141.489366 58.648527 
L 142.422003 60.275484 
L 143.354646 58.475861 
L 144.287298 39.24559 
L 145.219926 53.195728 
L 146.152567 53.460845 
L 147.085204 54.04954 
L 148.017844 58.571484 
L 148.950485 56.166851 
L 149.883123 50.04786 
L 150.815765 48.690552 
L 151.7484 53.73276 
L 179.727656 53.73276 
L 188.43171 9.472727 
L 189.054038 53.728228 
L 189.986678 55.041576 
L 190.919315 56.639983 
L 191.851955 49.407048 
L 192.7846 44.168155 
L 193.717237 45.348719 
L 194.649875 57.331553 
L 195.582513 60.147684 
L 196.515156 33.742034 
L 197.447798 50.467062 
L 198.380437 50.111307 
L 199.313081 54.253477 
L 200.245713 45.765655 
L 201.178356 52.063203 
L 202.110995 52.042809 
L 203.043636 46.453599 
" clip-path="url(#p3a6300cb6c)" style="fill: none; stroke: #339af0; stroke-width: 1.2; stroke-linecap: square"/>
   </g>
   <g id="line2d_18">
    <path d="M 43.916364 98.845245 
L 44.494523 98.862013 
L 45.427166 98.85159 
L 46.359808 98.647654 
L 47.292453 98.818054 
L 48.22509 98.866998 
L 49.157727 98.8815 
L 50.090359 98.842073 
L 51.023007 98.887392 
L 51.95565 98.881954 
L 52.88829 98.865186 
L 53.82093 98.847964 
L 54.753566 98.818507 
L 55.686208 98.824398 
L 56.618849 98.821679 
L 57.551483 98.910051 
L 58.484126 98.837088 
L 59.416765 98.854762 
L 60.349406 98.864279 
L 61.282045 98.412447 
L 62.214684 98.852496 
L 63.147327 98.8176 
L 64.07996 98.857481 
L 65.012598 98.888751 
L 65.945245 98.896909 
L 66.877884 98.867905 
L 67.810526 98.887392 
L 68.743162 98.886939 
L 69.675784 98.831196 
L 70.608443 98.861107 
L 71.541078 98.899175 
L 72.473724 98.792222 
L 73.406361 98.539341 
L 74.339003 98.927273 
L 75.271637 98.801739 
L 76.204286 98.855668 
L 77.136912 98.835275 
L 78.069558 98.874703 
L 79.002199 98.854762 
L 79.934841 98.856122 
L 80.867465 98.877875 
L 81.800118 98.895096 
L 82.732742 98.849324 
L 83.665398 98.859294 
L 84.598038 98.896909 
L 85.53068 98.836634 
L 86.463316 98.853403 
L 87.395962 98.698864 
L 96.913595 98.770469 
L 97.655282 98.872437 
L 98.587939 98.87153 
L 99.520578 98.896003 
L 100.453222 98.79766 
L 101.385859 98.872437 
L 102.318497 98.89283 
L 103.251135 98.654905 
L 104.183773 98.868358 
L 105.116412 98.884673 
L 106.049054 98.877422 
L 106.981691 98.750981 
L 107.914333 98.678924 
L 108.846974 98.864279 
L 109.779613 98.868811 
L 110.71225 98.869264 
L 111.644893 98.848871 
L 112.57753 98.835728 
L 113.510173 98.790862 
L 114.442814 98.891471 
L 115.37545 98.808083 
L 116.308095 98.319996 
L 117.240726 98.767749 
L 118.173367 98.858841 
L 119.106014 98.853403 
L 120.038653 98.797207 
L 120.971293 98.656264 
L 121.903926 97.553196 
L 122.836569 98.86292 
L 123.769209 98.784517 
L 124.701847 98.852496 
L 125.634489 98.535262 
L 129.365046 98.675298 
L 130.297692 98.861107 
L 131.230328 98.856122 
L 132.162968 98.782705 
L 133.095609 98.798113 
L 134.028248 98.750981 
L 134.960891 98.822586 
L 135.893512 98.845245 
L 136.826165 98.866998 
L 137.75881 98.761405 
L 138.691446 98.750981 
L 139.624089 98.738745 
L 140.556726 98.400211 
L 141.489366 98.784971 
L 142.422003 98.875156 
L 143.354646 98.891924 
L 144.287298 97.15892 
L 145.219926 98.829383 
L 146.152567 98.802192 
L 147.085204 98.818507 
L 148.017844 98.816241 
L 148.950485 98.762311 
L 149.883123 98.75506 
L 150.815765 98.794941 
L 151.7484 98.485411 
L 179.727656 98.485411 
L 188.43171 98.842073 
L 189.054038 98.805817 
L 189.986678 98.802192 
L 190.919315 98.858841 
L 191.851955 98.738292 
L 192.7846 98.676205 
L 193.717237 98.837088 
L 194.649875 98.760951 
L 195.582513 98.831649 
L 196.515156 98.747809 
L 197.447798 98.801286 
L 198.380437 98.755513 
L 199.313081 98.830743 
L 200.245713 98.744637 
L 201.178356 98.726509 
L 202.110995 98.754607 
L 203.043636 98.802192 
" clip-path="url(#p3a6300cb6c)" style="fill: none; stroke: #ff6b6b; stroke-width: 1.2; stroke-linecap: square"/>
   </g>
   <g id="patch_3">
    <path d="M 35.96 103.4 
L 35.96 5 
" style="fill: none; stroke: var(--fg-color); stroke-width: 0.8; stroke-linejoin: miter; stroke-linecap: square"/>
   </g>
   <g id="patch_4">
    <path d="M 35.96 103.4 
L 211 103.4 
" style="fill: none; stroke: var(--fg-color); stroke-width: 0.8; stroke-linejoin: miter; stroke-linecap: square"/>
   </g>
  </g>
 </g>
 <defs>
  <clipPath id="p3a6300cb6c">
   <rect x="35.96" y="5" width="175.04" height="98.4"/>
  </clipPath>
 </defs>
</svg>
