<?xml version="1.0" encoding="utf-8" standalone="no"?>
<!DOCTYPE svg PUBLIC "-//W3C//DTD SVG 1.1//EN"
  "http://www.w3.org/Graphics/SVG/1.1/DTD/svg11.dtd">
<svg xmlns:xlink="http://www.w3.org/1999/xlink" width="216pt" height="122.4pt" viewBox="0 0 216 122.4" xmlns="http://www.w3.org/2000/svg" version="1.1">
  <style>
    :root {
      --fg-color: #212529;
      --grid-color: rgba(33, 37, 41, 0.1);
    }
    @media (prefers-color-scheme: dark) {
      :root {
        --fg-color: #dee2e6;
        --grid-color: rgba(248, 249, 250, 0.15);
      }
    }
  </style>

 <metadata>
  <rdf:RDF xmlns:dc="http://purl.org/dc/elements/1.1/" xmlns:cc="http://creativecommons.org/ns#" xmlns:rdf="http://www.w3.org/1999/02/22-rdf-syntax-ns#">
   <cc:Work>
    <dc:type rdf:resource="http://purl.org/dc/dcmitype/StillImage"/>
    <dc:date>2026-06-30T04:48:54.674774</dc:date>
    <dc:format>image/svg+xml</dc:format>
    <dc:creator>
     <cc:Agent>
      <dc:title>Matplotlib v3.11.0, https://matplotlib.org/</dc:title>
     </cc:Agent>
    </dc:creator>
   </cc:Work>
  </rdf:RDF>
 </metadata>
 <defs>
  <style type="text/css">*{stroke-linejoin: round; stroke-linecap: butt}</style>
 </defs>
 <g id="figure_1">
  <g id="patch_1">
   <path d="M 0 122.4 
L 216 122.4 
L 216 0 
L 0 0 
L 0 122.4 
z
" style="fill: none; opacity: 0"/>
  </g>
  <g id="axes_1">
   <g id="patch_2">
    <path d="M 35.96 103.4 
L 211 103.4 
L 211 5 
L 35.96 5 
L 35.96 103.4 
z
" style="fill: none; opacity: 0"/>
   </g>
   <g id="matplotlib.axis_1">
    <g id="xtick_1">
     <g id="line2d_1">
      <path d="M 70.996911 103.4 
L 70.996911 5 
" clip-path="url(#p980a3b055e)" style="fill: none; stroke-dasharray: 2.96,1.28; stroke-dashoffset: 0; stroke: var(--grid-color); stroke-width: 0.8"/>
     </g>
     <g id="line2d_2">
      <defs>
       <path id="mda4eeb1448" d="M 0 0 
L 0 3.5 
" style="stroke: var(--fg-color); stroke-width: 0.8"/>
      </defs>
      <g>
       <use xlink:href="#mda4eeb1448" x="70.996911" y="103.4" style="fill: var(--fg-color); stroke: var(--fg-color); stroke-width: 0.8"/>
      </g>
     </g>
     <g id="text_1">
      <text style="font-size: 7px; font-family: 'DejaVu Sans', 'Bitstream Vera Sans', 'Computer Modern Sans Serif', 'Lucida Grande', 'Verdana', 'Geneva', 'Lucid', 'Arial', 'Helvetica', 'Avant Garde', sans-serif; text-anchor: middle; fill: var(--fg-color)" x="70.996911" y="115.718359" transform="rotate(-0 70.996911 115.718359)">02/2026</text>
     </g>
    </g>
    <g id="xtick_2">
     <g id="line2d_3">
      <path d="M 126.022656 103.4 
L 126.022656 5 
" clip-path="url(#p980a3b055e)" style="fill: none; stroke-dasharray: 2.96,1.28; stroke-dashoffset: 0; stroke: var(--grid-color); stroke-width: 0.8"/>
     </g>
     <g id="line2d_4">
      <g>
       <use xlink:href="#mda4eeb1448" x="126.022656" y="103.4" style="fill: var(--fg-color); stroke: var(--fg-color); stroke-width: 0.8"/>
      </g>
     </g>
     <g id="text_2">
      <text style="font-size: 7px; font-family: 'DejaVu Sans', 'Bitstream Vera Sans', 'Computer Modern Sans Serif', 'Lucida Grande', 'Verdana', 'Geneva', 'Lucid', 'Arial', 'Helvetica', 'Avant Garde', sans-serif; text-anchor: middle; fill: var(--fg-color)" x="126.022656" y="115.718359" transform="rotate(-0 126.022656 115.718359)">04/2026</text>
     </g>
    </g>
    <g id="xtick_3">
     <g id="line2d_5">
      <path d="M 182.913681 103.4 
L 182.913681 5 
" clip-path="url(#p980a3b055e)" style="fill: none; stroke-dasharray: 2.96,1.28; stroke-dashoffset: 0; stroke: var(--grid-color); stroke-width: 0.8"/>
     </g>
     <g id="line2d_6">
      <g>
       <use xlink:href="#mda4eeb1448" x="182.913681" y="103.4" style="fill: var(--fg-color); stroke: var(--fg-color); stroke-width: 0.8"/>
      </g>
     </g>
     <g id="text_3">
      <text style="font-size: 7px; font-family: 'DejaVu Sans', 'Bitstream Vera Sans', 'Computer Modern Sans Serif', 'Lucida Grande', 'Verdana', 'Geneva', 'Lucid', 'Arial', 'Helvetica', 'Avant Garde', sans-serif; text-anchor: middle; fill: var(--fg-color)" x="182.913681" y="115.718359" transform="rotate(-0 182.913681 115.718359)">06/2026</text>
     </g>
    </g>
   </g>
   <g id="matplotlib.axis_2">
    <g id="ytick_1">
     <g id="line2d_7">
      <path d="M 35.96 99.744694 
L 211 99.744694 
" clip-path="url(#p980a3b055e)" style="fill: none; stroke-dasharray: 2.96,1.28; stroke-dashoffset: 0; stroke: var(--grid-color); stroke-width: 0.8"/>
     </g>
     <g id="line2d_8">
      <defs>
       <path id="m3c71e4f860" d="M 0 0 
L -3.5 0 
" style="stroke: var(--fg-color); stroke-width: 0.8"/>
      </defs>
      <g>
       <use xlink:href="#m3c71e4f860" x="35.96" y="99.744694" style="fill: var(--fg-color); stroke: var(--fg-color); stroke-width: 0.8"/>
      </g>
     </g>
     <g id="text_4">
      <text style="font-size: 7px; font-family: 'DejaVu Sans', 'Bitstream Vera Sans', 'Computer Modern Sans Serif', 'Lucida Grande', 'Verdana', 'Geneva', 'Lucid', 'Arial', 'Helvetica', 'Avant Garde', sans-serif; text-anchor: end; fill: var(--fg-color)" x="28.96" y="102.403874" transform="rotate(-0 28.96 102.403874)">0</text>
     </g>
    </g>
    <g id="ytick_2">
     <g id="line2d_9">
      <path d="M 35.96 75.48886 
L 211 75.48886 
" clip-path="url(#p980a3b055e)" style="fill: none; stroke-dasharray: 2.96,1.28; stroke-dashoffset: 0; stroke: var(--grid-color); stroke-width: 0.8"/>
     </g>
     <g id="line2d_10">
      <g>
       <use xlink:href="#m3c71e4f860" x="35.96" y="75.48886" style="fill: var(--fg-color); stroke: var(--fg-color); stroke-width: 0.8"/>
      </g>
     </g>
     <g id="text_5">
      <text style="font-size: 7px; font-family: 'DejaVu Sans', 'Bitstream Vera Sans', 'Computer Modern Sans Serif', 'Lucida Grande', 'Verdana', 'Geneva', 'Lucid', 'Arial', 'Helvetica', 'Avant Garde', sans-serif; text-anchor: end; fill: var(--fg-color)" x="28.96" y="78.14804" transform="rotate(-0 28.96 78.14804)">100</text>
     </g>
    </g>
    <g id="ytick_3">
     <g id="line2d_11">
      <path d="M 35.96 51.233026 
L 211 51.233026 
" clip-path="url(#p980a3b055e)" style="fill: none; stroke-dasharray: 2.96,1.28; stroke-dashoffset: 0; stroke: var(--grid-color); stroke-width: 0.8"/>
     </g>
     <g id="line2d_12">
      <g>
       <use xlink:href="#m3c71e4f860" x="35.96" y="51.233026" style="fill: var(--fg-color); stroke: var(--fg-color); stroke-width: 0.8"/>
      </g>
     </g>
     <g id="text_6">
      <text style="font-size: 7px; font-family: 'DejaVu Sans', 'Bitstream Vera Sans', 'Computer Modern Sans Serif', 'Lucida Grande', 'Verdana', 'Geneva', 'Lucid', 'Arial', 'Helvetica', 'Avant Garde', sans-serif; text-anchor: end; fill: var(--fg-color)" x="28.96" y="53.892206" transform="rotate(-0 28.96 53.892206)">200</text>
     </g>
    </g>
    <g id="ytick_4">
     <g id="line2d_13">
      <path d="M 35.96 26.977192 
L 211 26.977192 
" clip-path="url(#p980a3b055e)" style="fill: none; stroke-dasharray: 2.96,1.28; stroke-dashoffset: 0; stroke: var(--grid-color); stroke-width: 0.8"/>
     </g>
     <g id="line2d_14">
      <g>
       <use xlink:href="#m3c71e4f860" x="35.96" y="26.977192" style="fill: var(--fg-color); stroke: var(--fg-color); stroke-width: 0.8"/>
      </g>
     </g>
     <g id="text_7">
      <text style="font-size: 7px; font-family: 'DejaVu Sans', 'Bitstream Vera Sans', 'Computer Modern Sans Serif', 'Lucida Grande', 'Verdana', 'Geneva', 'Lucid', 'Arial', 'Helvetica', 'Avant Garde', sans-serif; text-anchor: end; fill: var(--fg-color)" x="28.96" y="29.636372" transform="rotate(-0 28.96 29.636372)">300</text>
     </g>
    </g>
    <g id="text_8">
     <text style="font-size: 7px; font-family: 'DejaVu Sans', 'Bitstream Vera Sans', 'Computer Modern Sans Serif', 'Lucida Grande', 'Verdana', 'Geneva', 'Lucid', 'Arial', 'Helvetica', 'Avant Garde', sans-serif; text-anchor: middle; fill: var(--fg-color)" x="9.917109" y="54.2" transform="rotate(-90 9.917109 54.2)">ms</text>
    </g>
   </g>
   <g id="line2d_15">
    <path d="M 43.916364 46.055134 
L 44.494523 33.324944 
L 45.427166 49.806298 
L 46.359808 48.282304 
L 47.292453 47.851278 
L 48.22509 49.071104 
L 49.157727 47.521641 
L 50.090359 44.355527 
L 51.023007 42.1856 
L 51.95565 52.118122 
L 52.88829 42.285777 
L 53.82093 38.512297 
L 54.753566 47.733395 
L 55.686208 40.921629 
L 56.618849 52.002179 
L 57.551483 37.239108 
L 58.484126 46.229048 
L 59.416765 33.37855 
L 60.349406 46.321705 
L 61.282045 45.245716 
L 62.214684 31.746374 
L 63.147327 45.861815 
L 64.07996 41.418873 
L 65.012598 50.806851 
L 65.945245 49.505526 
L 66.877884 42.597464 
L 67.810526 47.195885 
L 68.743162 48.64881 
L 69.675784 46.146093 
L 70.608443 32.221304 
L 71.541078 46.445652 
L 72.473724 21.364392 
L 73.406361 45.127833 
L 74.339003 28.410955 
L 75.271637 43.652836 
L 76.204286 46.936591 
L 77.136912 49.520322 
L 78.069558 29.598763 
L 79.002199 39.155562 
L 79.934841 40.169455 
L 80.867465 43.081611 
L 81.800118 38.60738 
L 82.732742 48.298556 
L 83.665398 45.570502 
L 84.598038 45.54188 
L 85.53068 22.293876 
L 86.463316 35.909888 
L 87.395962 27.164447 
L 96.913595 46.316854 
L 97.655282 38.872253 
L 98.587939 50.003498 
L 99.520578 40.108816 
L 100.453222 32.284126 
L 101.385859 17.959116 
L 102.318497 48.775183 
L 103.251135 43.110718 
L 104.183773 22.669114 
L 105.116412 29.841079 
L 106.049054 27.261713 
L 106.981691 31.162294 
L 107.914333 40.565553 
L 108.846974 38.120323 
L 109.779613 45.455287 
L 110.71225 47.848367 
L 111.644893 26.947843 
L 112.57753 48.916837 
L 113.510173 23.177516 
L 114.442814 48.964378 
L 115.37545 41.805511 
L 116.308095 40.484054 
L 117.240726 47.688279 
L 118.173367 41.633052 
L 119.106014 39.236091 
L 120.038653 40.331969 
L 120.971293 31.261258 
L 121.903926 43.575217 
L 122.836569 27.797282 
L 123.769209 40.1452 
L 124.701847 23.598112 
L 125.634489 49.236529 
L 129.365046 44.052814 
L 130.297692 12.64248 
L 131.230328 42.972945 
L 132.162968 25.818976 
L 133.095609 30.211708 
L 134.028248 33.046487 
L 134.960891 34.687394 
L 135.893512 39.517216 
L 136.826165 15.959222 
L 137.75881 34.96949 
L 138.691446 43.554114 
L 139.624089 9.472727 
L 140.556726 36.743076 
L 141.489366 45.091934 
L 142.422003 32.629772 
L 143.354646 41.356536 
L 144.287298 33.693633 
L 145.219926 30.11711 
L 146.152567 41.248355 
L 147.085204 38.902088 
L 148.017844 18.584189 
L 148.950485 44.202473 
L 149.883123 34.43004 
L 150.815765 24.614674 
L 151.7484 28.931 
L 179.727656 28.931 
L 188.43171 41.834133 
L 189.054038 38.900633 
L 189.986678 36.201929 
L 190.919315 42.231444 
L 191.851955 41.738323 
L 192.7846 48.756748 
L 193.717237 47.956548 
L 194.649875 45.143357 
L 195.582513 30.014023 
L 196.515156 39.682156 
L 197.447798 50.093972 
L 198.380437 51.709168 
L 199.313081 49.934854 
L 200.245713 53.635809 
L 201.178356 41.802116 
L 202.110995 43.143463 
L 203.043636 33.176984 
" clip-path="url(#p980a3b055e)" style="fill: none; stroke: #339af0; stroke-width: 1.2; stroke-linecap: square"/>
   </g>
   <g id="line2d_16">
    <path d="M 43.916364 98.807206 
L 44.494523 98.831705 
L 45.427166 98.903502 
L 46.359808 98.847714 
L 47.292453 98.87294 
L 48.22509 98.876335 
L 49.157727 98.875365 
L 50.090359 98.848684 
L 51.023007 98.899621 
L 51.95565 98.894527 
L 52.88829 98.814968 
L 53.82093 98.873667 
L 54.753566 98.847714 
L 55.686208 98.804296 
L 56.618849 98.922907 
L 57.551483 98.887251 
L 58.484126 98.826854 
L 59.416765 98.851837 
L 60.349406 98.862267 
L 61.282045 98.870757 
L 62.214684 98.871242 
L 63.147327 98.905442 
L 64.07996 98.818607 
L 65.012598 98.900834 
L 65.945245 98.901319 
L 66.877884 98.866391 
L 67.810526 98.853778 
L 68.743162 98.856446 
L 69.675784 98.813028 
L 70.608443 98.870757 
L 71.541078 98.856446 
L 72.473724 98.884825 
L 73.406361 98.796049 
L 74.339003 98.860084 
L 75.271637 98.866633 
L 76.204286 98.854505 
L 77.136912 98.867603 
L 78.069558 98.850624 
L 79.002199 98.833645 
L 79.934841 98.857416 
L 80.867465 98.860812 
L 81.800118 98.892102 
L 82.732742 98.824185 
L 83.665398 98.889434 
L 84.598038 98.613887 
L 85.53068 98.829279 
L 86.463316 98.914902 
L 87.395962 98.879974 
L 96.913595 98.927273 
L 97.655282 98.875608 
L 98.587939 98.901319 
L 99.520578 98.671616 
L 100.453222 98.669676 
L 101.385859 98.819819 
L 102.318497 98.882399 
L 103.251135 98.821275 
L 104.183773 98.863237 
L 105.116412 98.899136 
L 106.049054 98.884582 
L 106.981691 98.886038 
L 107.914333 98.835343 
L 108.846974 98.910294 
L 109.779613 98.85208 
L 110.71225 98.887736 
L 111.644893 98.786346 
L 112.57753 98.89477 
L 113.510173 98.618253 
L 114.442814 98.901562 
L 115.37545 98.872455 
L 116.308095 98.898408 
L 117.240726 98.871242 
L 118.173367 98.895255 
L 119.106014 98.868331 
L 120.038653 98.896953 
L 120.971293 98.876335 
L 121.903926 98.848199 
L 122.836569 98.824185 
L 123.769209 98.818849 
L 124.701847 98.857416 
L 125.634489 98.879731 
L 129.365046 98.862995 
L 130.297692 98.844803 
L 131.230328 98.806236 
L 132.162968 98.781253 
L 133.095609 98.789985 
L 134.028248 98.820062 
L 134.960891 98.838981 
L 135.893512 98.745354 
L 136.826165 98.858871 
L 137.75881 98.73832 
L 138.691446 98.77058 
L 139.624089 98.7194 
L 140.556726 98.809632 
L 141.489366 98.841165 
L 142.422003 98.767427 
L 143.354646 98.827096 
L 144.287298 98.810845 
L 145.219926 98.819819 
L 146.152567 98.803568 
L 147.085204 98.800415 
L 148.017844 98.745111 
L 148.950485 98.755784 
L 149.883123 98.80187 
L 150.815765 98.696115 
L 151.7484 98.800657 
L 179.727656 98.800657 
L 188.43171 98.824428 
L 189.054038 98.843348 
L 189.986678 98.760393 
L 190.919315 98.820062 
L 191.851955 98.781738 
L 192.7846 98.889676 
L 193.717237 98.822973 
L 194.649875 98.819092 
L 195.582513 98.778827 
L 196.515156 98.557371 
L 197.447798 98.819092 
L 198.380437 98.876093 
L 199.313081 98.883855 
L 200.245713 98.898408 
L 201.178356 98.783921 
L 202.110995 98.867361 
L 203.043636 98.794836 
" clip-path="url(#p980a3b055e)" style="fill: none; stroke: #ff6b6b; stroke-width: 1.2; stroke-linecap: square"/>
   </g>
   <g id="patch_3">
    <path d="M 35.96 103.4 
L 35.96 5 
" style="fill: none; stroke: var(--fg-color); stroke-width: 0.8; stroke-linejoin: miter; stroke-linecap: square"/>
   </g>
   <g id="patch_4">
    <path d="M 35.96 103.4 
L 211 103.4 
" style="fill: none; stroke: var(--fg-color); stroke-width: 0.8; stroke-linejoin: miter; stroke-linecap: square"/>
   </g>
  </g>
 </g>
 <defs>
  <clipPath id="p980a3b055e">
   <rect x="35.96" y="5" width="175.04" height="98.4"/>
  </clipPath>
 </defs>
</svg>
