<?xml version="1.0" encoding="utf-8" standalone="no"?>
<!DOCTYPE svg PUBLIC "-//W3C//DTD SVG 1.1//EN"
  "http://www.w3.org/Graphics/SVG/1.1/DTD/svg11.dtd">
<svg xmlns:xlink="http://www.w3.org/1999/xlink" width="216pt" height="122.4pt" viewBox="0 0 216 122.4" xmlns="http://www.w3.org/2000/svg" version="1.1">
  <style>
    :root {
      --fg-color: #212529;
      --grid-color: rgba(33, 37, 41, 0.1);
    }
    @media (prefers-color-scheme: dark) {
      :root {
        --fg-color: #dee2e6;
        --grid-color: rgba(248, 249, 250, 0.15);
      }
    }
  </style>

 <metadata>
  <rdf:RDF xmlns:dc="http://purl.org/dc/elements/1.1/" xmlns:cc="http://creativecommons.org/ns#" xmlns:rdf="http://www.w3.org/1999/02/22-rdf-syntax-ns#">
   <cc:Work>
    <dc:type rdf:resource="http://purl.org/dc/dcmitype/StillImage"/>
    <dc:date>2026-06-30T15:37:13.043832</dc:date>
    <dc:format>image/svg+xml</dc:format>
    <dc:creator>
     <cc:Agent>
      <dc:title>Matplotlib v3.11.0, https://matplotlib.org/</dc:title>
     </cc:Agent>
    </dc:creator>
   </cc:Work>
  </rdf:RDF>
 </metadata>
 <defs>
  <style type="text/css">*{stroke-linejoin: round; stroke-linecap: butt}</style>
 </defs>
 <g id="figure_1">
  <g id="patch_1">
   <path d="M 0 122.4 
L 216 122.4 
L 216 0 
L 0 0 
L 0 122.4 
z
" style="fill: none; opacity: 0"/>
  </g>
  <g id="axes_1">
   <g id="patch_2">
    <path d="M 35.96 103.4 
L 211 103.4 
L 211 5 
L 35.96 5 
L 35.96 103.4 
z
" style="fill: none; opacity: 0"/>
   </g>
   <g id="matplotlib.axis_1">
    <g id="xtick_1">
     <g id="line2d_1">
      <path d="M 69.784035 103.4 
L 69.784035 5 
" clip-path="url(#pbedbba3b8b)" style="fill: none; stroke-dasharray: 2.96,1.28; stroke-dashoffset: 0; stroke: var(--grid-color); stroke-width: 0.8"/>
     </g>
     <g id="line2d_2">
      <defs>
       <path id="m2211d9dbdb" d="M 0 0 
L 0 3.5 
" style="stroke: var(--fg-color); stroke-width: 0.8"/>
      </defs>
      <g>
       <use xlink:href="#m2211d9dbdb" x="69.784035" y="103.4" style="fill: var(--fg-color); stroke: var(--fg-color); stroke-width: 0.8"/>
      </g>
     </g>
     <g id="text_1">
      <text style="font-size: 7px; font-family: 'DejaVu Sans', 'Bitstream Vera Sans', 'Computer Modern Sans Serif', 'Lucida Grande', 'Verdana', 'Geneva', 'Lucid', 'Arial', 'Helvetica', 'Avant Garde', sans-serif; text-anchor: middle; fill: var(--fg-color)" x="69.784035" y="115.718359" transform="rotate(-0 69.784035 115.718359)">02/2026</text>
     </g>
    </g>
    <g id="xtick_2">
     <g id="line2d_3">
      <path d="M 122.345302 103.4 
L 122.345302 5 
" clip-path="url(#pbedbba3b8b)" style="fill: none; stroke-dasharray: 2.96,1.28; stroke-dashoffset: 0; stroke: var(--grid-color); stroke-width: 0.8"/>
     </g>
     <g id="line2d_4">
      <g>
       <use xlink:href="#m2211d9dbdb" x="122.345302" y="103.4" style="fill: var(--fg-color); stroke: var(--fg-color); stroke-width: 0.8"/>
      </g>
     </g>
     <g id="text_2">
      <text style="font-size: 7px; font-family: 'DejaVu Sans', 'Bitstream Vera Sans', 'Computer Modern Sans Serif', 'Lucida Grande', 'Verdana', 'Geneva', 'Lucid', 'Arial', 'Helvetica', 'Avant Garde', sans-serif; text-anchor: middle; fill: var(--fg-color)" x="122.345302" y="115.718359" transform="rotate(-0 122.345302 115.718359)">04/2026</text>
     </g>
    </g>
    <g id="xtick_3">
     <g id="line2d_5">
      <path d="M 176.688307 103.4 
L 176.688307 5 
" clip-path="url(#pbedbba3b8b)" style="fill: none; stroke-dasharray: 2.96,1.28; stroke-dashoffset: 0; stroke: var(--grid-color); stroke-width: 0.8"/>
     </g>
     <g id="line2d_6">
      <g>
       <use xlink:href="#m2211d9dbdb" x="176.688307" y="103.4" style="fill: var(--fg-color); stroke: var(--fg-color); stroke-width: 0.8"/>
      </g>
     </g>
     <g id="text_3">
      <text style="font-size: 7px; font-family: 'DejaVu Sans', 'Bitstream Vera Sans', 'Computer Modern Sans Serif', 'Lucida Grande', 'Verdana', 'Geneva', 'Lucid', 'Arial', 'Helvetica', 'Avant Garde', sans-serif; text-anchor: middle; fill: var(--fg-color)" x="176.688307" y="115.718359" transform="rotate(-0 176.688307 115.718359)">06/2026</text>
     </g>
    </g>
   </g>
   <g id="matplotlib.axis_2">
    <g id="ytick_1">
     <g id="line2d_7">
      <path d="M 35.96 102.045358 
L 211 102.045358 
" clip-path="url(#pbedbba3b8b)" style="fill: none; stroke-dasharray: 2.96,1.28; stroke-dashoffset: 0; stroke: var(--grid-color); stroke-width: 0.8"/>
     </g>
     <g id="line2d_8">
      <defs>
       <path id="m4ca6da9880" d="M 0 0 
L -3.5 0 
" style="stroke: var(--fg-color); stroke-width: 0.8"/>
      </defs>
      <g>
       <use xlink:href="#m4ca6da9880" x="35.96" y="102.045358" style="fill: var(--fg-color); stroke: var(--fg-color); stroke-width: 0.8"/>
      </g>
     </g>
     <g id="text_4">
      <text style="font-size: 7px; font-family: 'DejaVu Sans', 'Bitstream Vera Sans', 'Computer Modern Sans Serif', 'Lucida Grande', 'Verdana', 'Geneva', 'Lucid', 'Arial', 'Helvetica', 'Avant Garde', sans-serif; text-anchor: end; fill: var(--fg-color)" x="28.96" y="104.704537" transform="rotate(-0 28.96 104.704537)">20</text>
     </g>
    </g>
    <g id="ytick_2">
     <g id="line2d_9">
      <path d="M 35.96 86.949328 
L 211 86.949328 
" clip-path="url(#pbedbba3b8b)" style="fill: none; stroke-dasharray: 2.96,1.28; stroke-dashoffset: 0; stroke: var(--grid-color); stroke-width: 0.8"/>
     </g>
     <g id="line2d_10">
      <g>
       <use xlink:href="#m4ca6da9880" x="35.96" y="86.949328" style="fill: var(--fg-color); stroke: var(--fg-color); stroke-width: 0.8"/>
      </g>
     </g>
     <g id="text_5">
      <text style="font-size: 7px; font-family: 'DejaVu Sans', 'Bitstream Vera Sans', 'Computer Modern Sans Serif', 'Lucida Grande', 'Verdana', 'Geneva', 'Lucid', 'Arial', 'Helvetica', 'Avant Garde', sans-serif; text-anchor: end; fill: var(--fg-color)" x="28.96" y="89.608507" transform="rotate(-0 28.96 89.608507)">40</text>
     </g>
    </g>
    <g id="ytick_3">
     <g id="line2d_11">
      <path d="M 35.96 71.853298 
L 211 71.853298 
" clip-path="url(#pbedbba3b8b)" style="fill: none; stroke-dasharray: 2.96,1.28; stroke-dashoffset: 0; stroke: var(--grid-color); stroke-width: 0.8"/>
     </g>
     <g id="line2d_12">
      <g>
       <use xlink:href="#m4ca6da9880" x="35.96" y="71.853298" style="fill: var(--fg-color); stroke: var(--fg-color); stroke-width: 0.8"/>
      </g>
     </g>
     <g id="text_6">
      <text style="font-size: 7px; font-family: 'DejaVu Sans', 'Bitstream Vera Sans', 'Computer Modern Sans Serif', 'Lucida Grande', 'Verdana', 'Geneva', 'Lucid', 'Arial', 'Helvetica', 'Avant Garde', sans-serif; text-anchor: end; fill: var(--fg-color)" x="28.96" y="74.512477" transform="rotate(-0 28.96 74.512477)">60</text>
     </g>
    </g>
    <g id="ytick_4">
     <g id="line2d_13">
      <path d="M 35.96 56.757267 
L 211 56.757267 
" clip-path="url(#pbedbba3b8b)" style="fill: none; stroke-dasharray: 2.96,1.28; stroke-dashoffset: 0; stroke: var(--grid-color); stroke-width: 0.8"/>
     </g>
     <g id="line2d_14">
      <g>
       <use xlink:href="#m4ca6da9880" x="35.96" y="56.757267" style="fill: var(--fg-color); stroke: var(--fg-color); stroke-width: 0.8"/>
      </g>
     </g>
     <g id="text_7">
      <text style="font-size: 7px; font-family: 'DejaVu Sans', 'Bitstream Vera Sans', 'Computer Modern Sans Serif', 'Lucida Grande', 'Verdana', 'Geneva', 'Lucid', 'Arial', 'Helvetica', 'Avant Garde', sans-serif; text-anchor: end; fill: var(--fg-color)" x="28.96" y="59.416447" transform="rotate(-0 28.96 59.416447)">80</text>
     </g>
    </g>
    <g id="ytick_5">
     <g id="line2d_15">
      <path d="M 35.96 41.661237 
L 211 41.661237 
" clip-path="url(#pbedbba3b8b)" style="fill: none; stroke-dasharray: 2.96,1.28; stroke-dashoffset: 0; stroke: var(--grid-color); stroke-width: 0.8"/>
     </g>
     <g id="line2d_16">
      <g>
       <use xlink:href="#m4ca6da9880" x="35.96" y="41.661237" style="fill: var(--fg-color); stroke: var(--fg-color); stroke-width: 0.8"/>
      </g>
     </g>
     <g id="text_8">
      <text style="font-size: 7px; font-family: 'DejaVu Sans', 'Bitstream Vera Sans', 'Computer Modern Sans Serif', 'Lucida Grande', 'Verdana', 'Geneva', 'Lucid', 'Arial', 'Helvetica', 'Avant Garde', sans-serif; text-anchor: end; fill: var(--fg-color)" x="28.96" y="44.320417" transform="rotate(-0 28.96 44.320417)">100</text>
     </g>
    </g>
    <g id="ytick_6">
     <g id="line2d_17">
      <path d="M 35.96 26.565207 
L 211 26.565207 
" clip-path="url(#pbedbba3b8b)" style="fill: none; stroke-dasharray: 2.96,1.28; stroke-dashoffset: 0; stroke: var(--grid-color); stroke-width: 0.8"/>
     </g>
     <g id="line2d_18">
      <g>
       <use xlink:href="#m4ca6da9880" x="35.96" y="26.565207" style="fill: var(--fg-color); stroke: var(--fg-color); stroke-width: 0.8"/>
      </g>
     </g>
     <g id="text_9">
      <text style="font-size: 7px; font-family: 'DejaVu Sans', 'Bitstream Vera Sans', 'Computer Modern Sans Serif', 'Lucida Grande', 'Verdana', 'Geneva', 'Lucid', 'Arial', 'Helvetica', 'Avant Garde', sans-serif; text-anchor: end; fill: var(--fg-color)" x="28.96" y="29.224387" transform="rotate(-0 28.96 29.224387)">120</text>
     </g>
    </g>
    <g id="ytick_7">
     <g id="line2d_19">
      <path d="M 35.96 11.469177 
L 211 11.469177 
" clip-path="url(#pbedbba3b8b)" style="fill: none; stroke-dasharray: 2.96,1.28; stroke-dashoffset: 0; stroke: var(--grid-color); stroke-width: 0.8"/>
     </g>
     <g id="line2d_20">
      <g>
       <use xlink:href="#m4ca6da9880" x="35.96" y="11.469177" style="fill: var(--fg-color); stroke: var(--fg-color); stroke-width: 0.8"/>
      </g>
     </g>
     <g id="text_10">
      <text style="font-size: 7px; font-family: 'DejaVu Sans', 'Bitstream Vera Sans', 'Computer Modern Sans Serif', 'Lucida Grande', 'Verdana', 'Geneva', 'Lucid', 'Arial', 'Helvetica', 'Avant Garde', sans-serif; text-anchor: end; fill: var(--fg-color)" x="28.96" y="14.128357" transform="rotate(-0 28.96 14.128357)">140</text>
     </g>
    </g>
    <g id="text_11">
     <text style="font-size: 7px; font-family: 'DejaVu Sans', 'Bitstream Vera Sans', 'Computer Modern Sans Serif', 'Lucida Grande', 'Verdana', 'Geneva', 'Lucid', 'Arial', 'Helvetica', 'Avant Garde', sans-serif; text-anchor: middle; fill: var(--fg-color)" x="9.917109" y="54.2" transform="rotate(-90 9.917109 54.2)">ms</text>
    </g>
   </g>
   <g id="line2d_21">
    <path d="M 43.916364 21.812977 
L 44.468628 24.568757 
L 45.3595 26.761456 
L 46.250371 21.620503 
L 47.141245 25.337145 
L 48.032112 23.763384 
L 48.922979 28.20841 
L 50.704717 16.422185 
L 51.595589 24.669901 
L 52.486458 18.838304 
L 53.377327 23.383719 
L 54.268192 20.79324 
L 55.159063 21.89676 
L 56.049934 25.199771 
L 56.940797 23.15275 
L 57.831669 24.964273 
L 58.722538 24.568757 
L 59.613407 27.46946 
L 60.504275 25.085796 
L 61.395144 12.362107 
L 62.286016 20.059573 
L 63.176879 23.307484 
L 64.067746 25.813425 
L 64.958622 24.961254 
L 65.84949 22.418328 
L 66.740361 23.325599 
L 67.631226 22.481731 
L 68.522078 20.257331 
L 69.412965 25.12882 
L 70.30383 19.792373 
L 71.194705 24.962009 
L 72.085571 21.440105 
L 72.976442 22.881021 
L 73.867306 22.588913 
L 74.758184 19.586313 
L 75.649039 22.353415 
L 76.539914 22.04923 
L 77.430784 22.187359 
L 78.321655 24.391379 
L 79.212509 21.576724 
L 80.103391 19.454977 
L 80.994245 20.016549 
L 82.775998 26.162143 
L 83.666869 21.951861 
L 84.557735 23.536944 
L 85.44861 21.711079 
L 94.53997 19.675379 
L 95.248438 26.916945 
L 96.139324 19.741047 
L 97.030192 16.414637 
L 97.921065 20.961561 
L 98.811931 15.493779 
L 100.593666 25.072965 
L 102.375401 17.075088 
L 103.266272 20.373571 
L 104.157138 17.813284 
L 105.048009 24.181544 
L 105.93888 22.585894 
L 106.829748 16.619943 
L 107.720614 21.020435 
L 108.611487 18.179363 
L 109.502352 22.300579 
L 110.393224 21.395572 
L 111.284094 22.320204 
L 112.17496 23.807917 
L 113.065834 19.571971 
L 113.956695 17.298509 
L 114.847564 22.14358 
L 115.738441 18.900953 
L 116.629309 17.168683 
L 117.520178 21.381231 
L 118.41104 19.427804 
L 119.301913 16.029688 
L 120.192782 16.581448 
L 121.083649 15.990438 
L 121.97452 19.023986 
L 125.537994 17.923485 
L 126.428869 15.753431 
L 127.319734 17.58005 
L 128.210603 20.27922 
L 129.101474 19.073048 
L 129.992342 16.016856 
L 130.883214 21.385759 
L 131.774065 18.212574 
L 132.664946 10.657766 
L 133.55582 13.431661 
L 134.446686 18.516759 
L 135.337558 13.172764 
L 136.228424 17.633641 
L 137.119294 11.017051 
L 138.010159 19.460261 
L 138.901032 10.159597 
L 139.791912 10.606439 
L 140.68277 9.472727 
L 141.57364 13.048977 
L 142.464507 13.167481 
L 143.355376 14.620474 
L 144.246246 14.800871 
L 145.137113 17.593637 
L 146.027984 16.183667 
L 146.918849 10.770986 
L 173.644977 10.770986 
L 181.959197 15.077883 
L 182.553652 21.650695 
L 183.444521 18.974169 
L 184.335387 18.032931 
L 185.226256 27.249812 
L 186.117131 19.565933 
L 187.007996 18.028402 
L 187.898864 21.557854 
L 188.789731 14.538955 
L 189.680603 15.683989 
L 190.571474 13.117664 
L 191.462343 16.185177 
L 192.353215 13.059544 
L 193.244077 21.28839 
L 194.134949 16.876575 
L 195.025817 17.567219 
L 195.916688 16.521064 
L 196.807557 18.39901 
L 197.698426 21.409158 
L 198.589295 18.198233 
L 199.480162 19.865589 
L 200.371032 20.335831 
L 201.261898 20.169774 
L 202.152766 18.866232 
L 203.043636 16.672024 
L 203.043636 16.672024 
" clip-path="url(#pbedbba3b8b)" style="fill: none; stroke: #339af0; stroke-width: 1.2; stroke-linecap: square"/>
   </g>
   <g id="line2d_22">
    <path d="M 43.916364 87.196148 
L 44.468628 84.245629 
L 45.3595 84.251667 
L 46.250371 86.007335 
L 47.141245 82.123882 
L 48.032112 87.518448 
L 48.922979 81.554007 
L 49.81384 82.54959 
L 50.704717 81.544949 
L 51.595589 85.918269 
L 52.486458 86.023941 
L 53.377327 84.622275 
L 54.268192 81.957071 
L 55.159063 84.291672 
L 56.049934 84.122596 
L 56.940797 87.07387 
L 57.831669 85.468407 
L 58.722538 83.167017 
L 59.613407 84.312051 
L 60.504275 81.096597 
L 61.395144 87.982651 
L 62.286016 86.278309 
L 63.176879 83.848603 
L 64.067746 83.6516 
L 64.958622 86.35228 
L 65.84949 82.511095 
L 66.740361 82.158603 
L 67.631226 82.978317 
L 68.522078 82.160112 
L 69.412965 88.11927 
L 70.30383 83.795767 
L 71.194705 86.138671 
L 72.085571 79.577181 
L 72.976442 86.288122 
L 73.867306 83.588951 
L 74.758184 81.562309 
L 75.649039 88.077756 
L 76.539914 83.757272 
L 77.430784 80.34406 
L 78.321655 86.395303 
L 79.212509 83.84181 
L 80.103391 81.824225 
L 80.994245 85.413307 
L 81.885129 80.639187 
L 82.775998 84.523396 
L 83.666869 85.162712 
L 84.557735 85.082704 
L 85.44861 85.443499 
L 94.53997 84.421497 
L 95.248438 80.371987 
L 96.139324 81.855172 
L 97.030192 86.098666 
L 97.921065 84.908344 
L 98.811931 87.499578 
L 99.702798 94.077673 
L 100.593666 97.52938 
L 101.484533 94.636981 
L 102.375401 98.927273 
L 103.266272 93.923694 
L 104.157138 94.870215 
L 105.048009 94.589428 
L 105.93888 92.958302 
L 106.829748 97.161792 
L 107.720614 94.744163 
L 108.611487 93.229276 
L 109.502352 93.975775 
L 110.393224 93.125868 
L 111.284094 95.083069 
L 112.17496 93.126623 
L 113.065834 96.571537 
L 113.956695 94.062577 
L 114.847564 97.019889 
L 115.738441 92.73941 
L 116.629309 94.384877 
L 117.520178 94.241465 
L 118.41104 93.024725 
L 119.301913 94.206744 
L 120.192782 93.039821 
L 121.083649 92.493345 
L 121.97452 97.715816 
L 125.537994 92.941697 
L 126.428869 94.787186 
L 127.319734 92.133304 
L 128.210603 96.299054 
L 129.101474 94.963055 
L 129.992342 95.865798 
L 130.883214 94.633962 
L 131.774065 94.164475 
L 132.664946 97.974713 
L 133.55582 94.388651 
L 134.446686 94.778884 
L 135.337558 93.039066 
L 136.228424 94.920032 
L 137.119294 95.536704 
L 138.010159 91.617775 
L 138.901032 94.880782 
L 139.791912 95.178174 
L 140.68277 94.396954 
L 141.57364 91.016198 
L 142.464507 97.79507 
L 143.355376 94.760768 
L 144.246246 90.708239 
L 145.137113 92.934904 
L 146.027984 89.50886 
L 146.918849 95.911841 
L 173.644977 95.911841 
L 181.959197 93.518365 
L 182.553652 84.037303 
L 183.444521 91.770245 
L 184.335387 92.733372 
L 185.226256 79.186949 
L 186.117131 93.742541 
L 187.898864 90.154215 
L 188.789731 90.891656 
L 189.680603 93.245127 
L 190.571474 82.917178 
L 191.462343 88.982008 
L 192.353215 92.147646 
L 193.244077 90.923358 
L 194.134949 90.301401 
L 195.025817 95.676343 
L 195.916688 91.851009 
L 196.807557 92.185386 
L 197.698426 91.5038 
L 198.589295 92.47372 
L 199.480162 86.629292 
L 200.371032 92.400504 
L 202.152766 91.568713 
L 203.043636 89.365447 
L 203.043636 89.365447 
" clip-path="url(#pbedbba3b8b)" style="fill: none; stroke: #ff6b6b; stroke-width: 1.2; stroke-linecap: square"/>
   </g>
   <g id="patch_3">
    <path d="M 35.96 103.4 
L 35.96 5 
" style="fill: none; stroke: var(--fg-color); stroke-width: 0.8; stroke-linejoin: miter; stroke-linecap: square"/>
   </g>
   <g id="patch_4">
    <path d="M 35.96 103.4 
L 211 103.4 
" style="fill: none; stroke: var(--fg-color); stroke-width: 0.8; stroke-linejoin: miter; stroke-linecap: square"/>
   </g>
  </g>
 </g>
 <defs>
  <clipPath id="pbedbba3b8b">
   <rect x="35.96" y="5" width="175.04" height="98.4"/>
  </clipPath>
 </defs>
</svg>
