<?xml version="1.0" encoding="utf-8" standalone="no"?>
<!DOCTYPE svg PUBLIC "-//W3C//DTD SVG 1.1//EN"
  "http://www.w3.org/Graphics/SVG/1.1/DTD/svg11.dtd">
<svg xmlns:xlink="http://www.w3.org/1999/xlink" width="216pt" height="122.4pt" viewBox="0 0 216 122.4" xmlns="http://www.w3.org/2000/svg" version="1.1">
  <style>
    :root {
      --fg-color: #212529;
      --grid-color: rgba(33, 37, 41, 0.1);
    }
    @media (prefers-color-scheme: dark) {
      :root {
        --fg-color: #dee2e6;
        --grid-color: rgba(248, 249, 250, 0.15);
      }
    }
  </style>

 <metadata>
  <rdf:RDF xmlns:dc="http://purl.org/dc/elements/1.1/" xmlns:cc="http://creativecommons.org/ns#" xmlns:rdf="http://www.w3.org/1999/02/22-rdf-syntax-ns#">
   <cc:Work>
    <dc:type rdf:resource="http://purl.org/dc/dcmitype/StillImage"/>
    <dc:date>2026-06-30T04:48:59.862286</dc:date>
    <dc:format>image/svg+xml</dc:format>
    <dc:creator>
     <cc:Agent>
      <dc:title>Matplotlib v3.11.0, https://matplotlib.org/</dc:title>
     </cc:Agent>
    </dc:creator>
   </cc:Work>
  </rdf:RDF>
 </metadata>
 <defs>
  <style type="text/css">*{stroke-linejoin: round; stroke-linecap: butt}</style>
 </defs>
 <g id="figure_1">
  <g id="patch_1">
   <path d="M 0 122.4 
L 216 122.4 
L 216 0 
L 0 0 
L 0 122.4 
z
" style="fill: none; opacity: 0"/>
  </g>
  <g id="axes_1">
   <g id="patch_2">
    <path d="M 35.96 103.4 
L 211 103.4 
L 211 5 
L 35.96 5 
L 35.96 103.4 
z
" style="fill: none; opacity: 0"/>
   </g>
   <g id="matplotlib.axis_1">
    <g id="xtick_1">
     <g id="line2d_1">
      <path d="M 70.996911 103.4 
L 70.996911 5 
" clip-path="url(#pd97632d16f)" style="fill: none; stroke-dasharray: 2.96,1.28; stroke-dashoffset: 0; stroke: var(--grid-color); stroke-width: 0.8"/>
     </g>
     <g id="line2d_2">
      <defs>
       <path id="m6f585c99ff" d="M 0 0 
L 0 3.5 
" style="stroke: var(--fg-color); stroke-width: 0.8"/>
      </defs>
      <g>
       <use xlink:href="#m6f585c99ff" x="70.996911" y="103.4" style="fill: var(--fg-color); stroke: var(--fg-color); stroke-width: 0.8"/>
      </g>
     </g>
     <g id="text_1">
      <text style="font-size: 7px; font-family: 'DejaVu Sans', 'Bitstream Vera Sans', 'Computer Modern Sans Serif', 'Lucida Grande', 'Verdana', 'Geneva', 'Lucid', 'Arial', 'Helvetica', 'Avant Garde', sans-serif; text-anchor: middle; fill: var(--fg-color)" x="70.996911" y="115.718359" transform="rotate(-0 70.996911 115.718359)">02/2026</text>
     </g>
    </g>
    <g id="xtick_2">
     <g id="line2d_3">
      <path d="M 126.022656 103.4 
L 126.022656 5 
" clip-path="url(#pd97632d16f)" style="fill: none; stroke-dasharray: 2.96,1.28; stroke-dashoffset: 0; stroke: var(--grid-color); stroke-width: 0.8"/>
     </g>
     <g id="line2d_4">
      <g>
       <use xlink:href="#m6f585c99ff" x="126.022656" y="103.4" style="fill: var(--fg-color); stroke: var(--fg-color); stroke-width: 0.8"/>
      </g>
     </g>
     <g id="text_2">
      <text style="font-size: 7px; font-family: 'DejaVu Sans', 'Bitstream Vera Sans', 'Computer Modern Sans Serif', 'Lucida Grande', 'Verdana', 'Geneva', 'Lucid', 'Arial', 'Helvetica', 'Avant Garde', sans-serif; text-anchor: middle; fill: var(--fg-color)" x="126.022656" y="115.718359" transform="rotate(-0 126.022656 115.718359)">04/2026</text>
     </g>
    </g>
    <g id="xtick_3">
     <g id="line2d_5">
      <path d="M 182.913681 103.4 
L 182.913681 5 
" clip-path="url(#pd97632d16f)" style="fill: none; stroke-dasharray: 2.96,1.28; stroke-dashoffset: 0; stroke: var(--grid-color); stroke-width: 0.8"/>
     </g>
     <g id="line2d_6">
      <g>
       <use xlink:href="#m6f585c99ff" x="182.913681" y="103.4" style="fill: var(--fg-color); stroke: var(--fg-color); stroke-width: 0.8"/>
      </g>
     </g>
     <g id="text_3">
      <text style="font-size: 7px; font-family: 'DejaVu Sans', 'Bitstream Vera Sans', 'Computer Modern Sans Serif', 'Lucida Grande', 'Verdana', 'Geneva', 'Lucid', 'Arial', 'Helvetica', 'Avant Garde', sans-serif; text-anchor: middle; fill: var(--fg-color)" x="182.913681" y="115.718359" transform="rotate(-0 182.913681 115.718359)">06/2026</text>
     </g>
    </g>
   </g>
   <g id="matplotlib.axis_2">
    <g id="ytick_1">
     <g id="line2d_7">
      <path d="M 35.96 99.553824 
L 211 99.553824 
" clip-path="url(#pd97632d16f)" style="fill: none; stroke-dasharray: 2.96,1.28; stroke-dashoffset: 0; stroke: var(--grid-color); stroke-width: 0.8"/>
     </g>
     <g id="line2d_8">
      <defs>
       <path id="ma2b1f12abc" d="M 0 0 
L -3.5 0 
" style="stroke: var(--fg-color); stroke-width: 0.8"/>
      </defs>
      <g>
       <use xlink:href="#ma2b1f12abc" x="35.96" y="99.553824" style="fill: var(--fg-color); stroke: var(--fg-color); stroke-width: 0.8"/>
      </g>
     </g>
     <g id="text_4">
      <text style="font-size: 7px; font-family: 'DejaVu Sans', 'Bitstream Vera Sans', 'Computer Modern Sans Serif', 'Lucida Grande', 'Verdana', 'Geneva', 'Lucid', 'Arial', 'Helvetica', 'Avant Garde', sans-serif; text-anchor: end; fill: var(--fg-color)" x="28.96" y="102.213004" transform="rotate(-0 28.96 102.213004)">0</text>
     </g>
    </g>
    <g id="ytick_2">
     <g id="line2d_9">
      <path d="M 35.96 77.993213 
L 211 77.993213 
" clip-path="url(#pd97632d16f)" style="fill: none; stroke-dasharray: 2.96,1.28; stroke-dashoffset: 0; stroke: var(--grid-color); stroke-width: 0.8"/>
     </g>
     <g id="line2d_10">
      <g>
       <use xlink:href="#ma2b1f12abc" x="35.96" y="77.993213" style="fill: var(--fg-color); stroke: var(--fg-color); stroke-width: 0.8"/>
      </g>
     </g>
     <g id="text_5">
      <text style="font-size: 7px; font-family: 'DejaVu Sans', 'Bitstream Vera Sans', 'Computer Modern Sans Serif', 'Lucida Grande', 'Verdana', 'Geneva', 'Lucid', 'Arial', 'Helvetica', 'Avant Garde', sans-serif; text-anchor: end; fill: var(--fg-color)" x="28.96" y="80.652392" transform="rotate(-0 28.96 80.652392)">50</text>
     </g>
    </g>
    <g id="ytick_3">
     <g id="line2d_11">
      <path d="M 35.96 56.432601 
L 211 56.432601 
" clip-path="url(#pd97632d16f)" style="fill: none; stroke-dasharray: 2.96,1.28; stroke-dashoffset: 0; stroke: var(--grid-color); stroke-width: 0.8"/>
     </g>
     <g id="line2d_12">
      <g>
       <use xlink:href="#ma2b1f12abc" x="35.96" y="56.432601" style="fill: var(--fg-color); stroke: var(--fg-color); stroke-width: 0.8"/>
      </g>
     </g>
     <g id="text_6">
      <text style="font-size: 7px; font-family: 'DejaVu Sans', 'Bitstream Vera Sans', 'Computer Modern Sans Serif', 'Lucida Grande', 'Verdana', 'Geneva', 'Lucid', 'Arial', 'Helvetica', 'Avant Garde', sans-serif; text-anchor: end; fill: var(--fg-color)" x="28.96" y="59.091781" transform="rotate(-0 28.96 59.091781)">100</text>
     </g>
    </g>
    <g id="ytick_4">
     <g id="line2d_13">
      <path d="M 35.96 34.87199 
L 211 34.87199 
" clip-path="url(#pd97632d16f)" style="fill: none; stroke-dasharray: 2.96,1.28; stroke-dashoffset: 0; stroke: var(--grid-color); stroke-width: 0.8"/>
     </g>
     <g id="line2d_14">
      <g>
       <use xlink:href="#ma2b1f12abc" x="35.96" y="34.87199" style="fill: var(--fg-color); stroke: var(--fg-color); stroke-width: 0.8"/>
      </g>
     </g>
     <g id="text_7">
      <text style="font-size: 7px; font-family: 'DejaVu Sans', 'Bitstream Vera Sans', 'Computer Modern Sans Serif', 'Lucida Grande', 'Verdana', 'Geneva', 'Lucid', 'Arial', 'Helvetica', 'Avant Garde', sans-serif; text-anchor: end; fill: var(--fg-color)" x="28.96" y="37.53117" transform="rotate(-0 28.96 37.53117)">150</text>
     </g>
    </g>
    <g id="ytick_5">
     <g id="line2d_15">
      <path d="M 35.96 13.311379 
L 211 13.311379 
" clip-path="url(#pd97632d16f)" style="fill: none; stroke-dasharray: 2.96,1.28; stroke-dashoffset: 0; stroke: var(--grid-color); stroke-width: 0.8"/>
     </g>
     <g id="line2d_16">
      <g>
       <use xlink:href="#ma2b1f12abc" x="35.96" y="13.311379" style="fill: var(--fg-color); stroke: var(--fg-color); stroke-width: 0.8"/>
      </g>
     </g>
     <g id="text_8">
      <text style="font-size: 7px; font-family: 'DejaVu Sans', 'Bitstream Vera Sans', 'Computer Modern Sans Serif', 'Lucida Grande', 'Verdana', 'Geneva', 'Lucid', 'Arial', 'Helvetica', 'Avant Garde', sans-serif; text-anchor: end; fill: var(--fg-color)" x="28.96" y="15.970558" transform="rotate(-0 28.96 15.970558)">200</text>
     </g>
    </g>
    <g id="text_9">
     <text style="font-size: 7px; font-family: 'DejaVu Sans', 'Bitstream Vera Sans', 'Computer Modern Sans Serif', 'Lucida Grande', 'Verdana', 'Geneva', 'Lucid', 'Arial', 'Helvetica', 'Avant Garde', sans-serif; text-anchor: middle; fill: var(--fg-color)" x="9.917109" y="54.2" transform="rotate(-90 9.917109 54.2)">ms</text>
    </g>
   </g>
   <g id="line2d_17">
    <path d="M 43.916364 34.154022 
L 44.494523 47.850184 
L 45.427166 51.555591 
L 46.359808 48.38575 
L 47.292453 42.491079 
L 48.22509 41.720934 
L 49.157727 42.987404 
L 50.090359 39.631279 
L 51.023007 47.751868 
L 51.95565 47.002852 
L 52.88829 41.858922 
L 53.82093 45.052911 
L 54.753566 42.444077 
L 55.686208 47.494434 
L 56.618849 40.356578 
L 57.551483 33.330837 
L 58.484126 37.492898 
L 59.416765 39.100457 
L 60.349406 45.114574 
L 61.282045 48.045955 
L 62.214684 48.373676 
L 63.147327 47.447001 
L 64.07996 48.832055 
L 65.012598 45.098188 
L 65.945245 44.995991 
L 66.877884 39.093558 
L 67.810526 50.091625 
L 68.743162 46.601394 
L 69.675784 45.367696 
L 70.608443 53.229988 
L 71.541078 46.446589 
L 72.473724 34.859054 
L 73.406361 40.855491 
L 74.339003 36.557599 
L 75.271637 45.068865 
L 76.204286 46.757924 
L 77.136912 51.747912 
L 78.069558 49.93682 
L 79.002199 42.970156 
L 79.934841 43.832149 
L 80.867465 36.307064 
L 81.800118 37.71066 
L 82.732742 48.354703 
L 83.665398 31.134242 
L 84.598038 28.535326 
L 85.53068 48.214127 
L 86.463316 48.518563 
L 87.395962 43.770054 
L 96.913595 31.625393 
L 97.655282 43.30607 
L 98.587939 39.334605 
L 99.520578 41.145697 
L 100.453222 41.16812 
L 101.385859 30.986337 
L 102.318497 45.84246 
L 103.251135 42.481161 
L 104.183773 43.459581 
L 105.116412 39.165139 
L 106.049054 44.74675 
L 106.981691 40.006865 
L 107.914333 47.013201 
L 108.846974 48.052854 
L 109.779613 44.733382 
L 110.71225 44.698023 
L 111.644893 26.531052 
L 112.57753 46.795008 
L 113.510173 51.17828 
L 114.442814 46.169319 
L 115.37545 43.643709 
L 116.308095 45.156402 
L 117.240726 44.809707 
L 118.173367 40.995635 
L 119.106014 52.152389 
L 120.038653 31.596071 
L 120.971293 36.733964 
L 121.903926 42.340154 
L 122.836569 39.300108 
L 123.769209 37.428216 
L 124.701847 40.32165 
L 125.634489 37.151378 
L 129.365046 47.151621 
L 130.297692 44.904142 
L 131.230328 35.568829 
L 132.162968 36.899981 
L 133.095609 34.165664 
L 134.028248 46.929546 
L 134.960891 33.006135 
L 135.893512 34.701661 
L 136.826165 48.428871 
L 137.75881 33.851742 
L 138.691446 49.088626 
L 139.624089 36.098789 
L 140.556726 41.015471 
L 141.489366 35.063448 
L 142.422003 35.720616 
L 143.354646 32.100589 
L 144.287298 39.597214 
L 145.219926 49.089919 
L 146.152567 50.477992 
L 147.085204 40.547605 
L 148.017844 32.763362 
L 148.950485 42.445801 
L 149.883123 37.175526 
L 150.815765 36.000041 
L 151.7484 41.143541 
L 179.727656 41.143541 
L 188.43171 37.398031 
L 189.054038 38.894338 
L 189.986678 9.472727 
L 190.919315 39.079759 
L 191.851955 35.844805 
L 192.7846 26.500867 
L 193.717237 20.983075 
L 194.649875 17.132781 
L 195.582513 35.77538 
L 196.515156 26.098115 
L 197.447798 33.53092 
L 198.380437 31.098452 
L 199.313081 32.632274 
L 200.245713 47.595769 
L 201.178356 43.287959 
L 202.110995 47.787659 
L 203.043636 29.67157 
" clip-path="url(#pd97632d16f)" style="fill: none; stroke: #339af0; stroke-width: 1.2; stroke-linecap: square"/>
   </g>
   <g id="line2d_18">
    <path d="M 43.916364 98.45337 
L 44.494523 98.891482 
L 45.427166 98.866041 
L 46.359808 98.891482 
L 47.292453 98.860866 
L 48.22509 98.837149 
L 49.157727 98.871646 
L 50.090359 98.867334 
L 51.023007 98.855691 
L 51.95565 98.879839 
L 52.88829 98.900106 
L 53.82093 98.890188 
L 54.753566 98.821626 
L 55.686208 98.813433 
L 56.618849 98.417149 
L 57.551483 98.813001 
L 58.484126 98.822919 
L 59.416765 98.878546 
L 60.349406 98.927273 
L 61.282045 98.837581 
L 62.214684 98.896225 
L 63.147327 98.84793 
L 64.07996 98.894501 
L 65.012598 98.813001 
L 65.945245 98.831112 
L 66.877884 98.814295 
L 67.810526 98.905281 
L 68.743162 98.847498 
L 69.675784 98.860435 
L 70.608443 98.846205 
L 71.541078 98.845342 
L 72.473724 98.852242 
L 73.406361 98.878115 
L 74.339003 98.815589 
L 75.271637 98.889757 
L 76.204286 98.878546 
L 77.136912 98.866903 
L 78.069558 98.906575 
L 79.002199 98.869922 
L 79.934841 98.844911 
L 80.867465 98.869059 
L 81.800118 98.916492 
L 82.732742 98.883289 
L 83.665398 98.859141 
L 84.598038 98.822057 
L 85.53068 98.089427 
L 86.463316 98.906143 
L 87.395962 98.865609 
L 96.913595 98.852242 
L 97.655282 98.899244 
L 98.587939 98.861297 
L 99.520578 98.858279 
L 100.453222 98.867334 
L 101.385859 98.820332 
L 102.318497 98.821195 
L 103.251135 98.840599 
L 104.183773 98.906143 
L 105.116412 98.856985 
L 106.049054 98.875096 
L 106.981691 98.863022 
L 107.914333 98.910455 
L 108.846974 98.874234 
L 109.779613 98.469757 
L 110.71225 98.87639 
L 111.644893 98.870353 
L 112.57753 98.877252 
L 113.510173 98.841893 
L 114.442814 98.871646 
L 115.37545 98.876821 
L 116.308095 98.847067 
L 117.240726 98.89062 
L 118.173367 98.867765 
L 119.106014 98.871215 
L 120.038653 98.894932 
L 120.971293 98.848361 
L 121.903926 98.870784 
L 122.836569 98.804808 
L 123.769209 98.765999 
L 124.701847 98.775917 
L 125.634489 98.773761 
L 129.365046 98.781523 
L 130.297692 98.797909 
L 131.230328 98.754788 
L 132.162968 98.810414 
L 133.095609 98.765137 
L 134.028248 98.771605 
L 134.960891 97.73454 
L 135.893512 98.797909 
L 136.826165 98.80179 
L 137.75881 98.767724 
L 138.691446 98.817314 
L 139.624089 98.802221 
L 140.556726 98.769449 
L 141.489366 98.81257 
L 142.422003 98.802652 
L 143.354646 98.762118 
L 144.287298 98.752632 
L 145.219926 98.785404 
L 146.152567 98.818607 
L 147.085204 98.766431 
L 148.017844 98.718997 
L 148.950485 98.752632 
L 149.883123 98.750476 
L 150.815765 98.739264 
L 151.7484 98.772036 
L 179.727656 98.772036 
L 188.43171 98.78756 
L 189.054038 98.803515 
L 189.986678 98.850517 
L 190.919315 98.838443 
L 191.851955 98.881995 
L 192.7846 98.866903 
L 193.717237 98.884583 
L 194.649875 98.873371 
L 195.582513 98.676307 
L 196.515156 98.87294 
L 197.447798 98.852242 
L 198.380437 98.888032 
L 199.313081 98.866041 
L 200.245713 98.862591 
L 201.178356 98.89062 
L 202.110995 98.884583 
L 203.043636 98.821195 
" clip-path="url(#pd97632d16f)" style="fill: none; stroke: #ff6b6b; stroke-width: 1.2; stroke-linecap: square"/>
   </g>
   <g id="patch_3">
    <path d="M 35.96 103.4 
L 35.96 5 
" style="fill: none; stroke: var(--fg-color); stroke-width: 0.8; stroke-linejoin: miter; stroke-linecap: square"/>
   </g>
   <g id="patch_4">
    <path d="M 35.96 103.4 
L 211 103.4 
" style="fill: none; stroke: var(--fg-color); stroke-width: 0.8; stroke-linejoin: miter; stroke-linecap: square"/>
   </g>
  </g>
 </g>
 <defs>
  <clipPath id="pd97632d16f">
   <rect x="35.96" y="5" width="175.04" height="98.4"/>
  </clipPath>
 </defs>
</svg>
