<?xml version="1.0" encoding="utf-8" standalone="no"?>
<!DOCTYPE svg PUBLIC "-//W3C//DTD SVG 1.1//EN"
  "http://www.w3.org/Graphics/SVG/1.1/DTD/svg11.dtd">
<svg xmlns:xlink="http://www.w3.org/1999/xlink" width="216pt" height="122.4pt" viewBox="0 0 216 122.4" xmlns="http://www.w3.org/2000/svg" version="1.1">
  <style>
    :root {
      --fg-color: #212529;
      --grid-color: rgba(33, 37, 41, 0.1);
    }
    @media (prefers-color-scheme: dark) {
      :root {
        --fg-color: #dee2e6;
        --grid-color: rgba(248, 249, 250, 0.15);
      }
    }
  </style>

 <metadata>
  <rdf:RDF xmlns:dc="http://purl.org/dc/elements/1.1/" xmlns:cc="http://creativecommons.org/ns#" xmlns:rdf="http://www.w3.org/1999/02/22-rdf-syntax-ns#">
   <cc:Work>
    <dc:type rdf:resource="http://purl.org/dc/dcmitype/StillImage"/>
    <dc:date>2026-06-30T04:49:30.949861</dc:date>
    <dc:format>image/svg+xml</dc:format>
    <dc:creator>
     <cc:Agent>
      <dc:title>Matplotlib v3.11.0, https://matplotlib.org/</dc:title>
     </cc:Agent>
    </dc:creator>
   </cc:Work>
  </rdf:RDF>
 </metadata>
 <defs>
  <style type="text/css">*{stroke-linejoin: round; stroke-linecap: butt}</style>
 </defs>
 <g id="figure_1">
  <g id="patch_1">
   <path d="M 0 122.4 
L 216 122.4 
L 216 0 
L 0 0 
L 0 122.4 
z
" style="fill: none; opacity: 0"/>
  </g>
  <g id="axes_1">
   <g id="patch_2">
    <path d="M 35.96 103.4 
L 211 103.4 
L 211 5 
L 35.96 5 
L 35.96 103.4 
z
" style="fill: none; opacity: 0"/>
   </g>
   <g id="matplotlib.axis_1">
    <g id="xtick_1">
     <g id="line2d_1">
      <path d="M 70.996911 103.4 
L 70.996911 5 
" clip-path="url(#pbd49f2022f)" style="fill: none; stroke-dasharray: 2.96,1.28; stroke-dashoffset: 0; stroke: var(--grid-color); stroke-width: 0.8"/>
     </g>
     <g id="line2d_2">
      <defs>
       <path id="m0ebdf409d8" d="M 0 0 
L 0 3.5 
" style="stroke: var(--fg-color); stroke-width: 0.8"/>
      </defs>
      <g>
       <use xlink:href="#m0ebdf409d8" x="70.996911" y="103.4" style="fill: var(--fg-color); stroke: var(--fg-color); stroke-width: 0.8"/>
      </g>
     </g>
     <g id="text_1">
      <text style="font-size: 7px; font-family: 'DejaVu Sans', 'Bitstream Vera Sans', 'Computer Modern Sans Serif', 'Lucida Grande', 'Verdana', 'Geneva', 'Lucid', 'Arial', 'Helvetica', 'Avant Garde', sans-serif; text-anchor: middle; fill: var(--fg-color)" x="70.996911" y="115.718359" transform="rotate(-0 70.996911 115.718359)">02/2026</text>
     </g>
    </g>
    <g id="xtick_2">
     <g id="line2d_3">
      <path d="M 126.022656 103.4 
L 126.022656 5 
" clip-path="url(#pbd49f2022f)" style="fill: none; stroke-dasharray: 2.96,1.28; stroke-dashoffset: 0; stroke: var(--grid-color); stroke-width: 0.8"/>
     </g>
     <g id="line2d_4">
      <g>
       <use xlink:href="#m0ebdf409d8" x="126.022656" y="103.4" style="fill: var(--fg-color); stroke: var(--fg-color); stroke-width: 0.8"/>
      </g>
     </g>
     <g id="text_2">
      <text style="font-size: 7px; font-family: 'DejaVu Sans', 'Bitstream Vera Sans', 'Computer Modern Sans Serif', 'Lucida Grande', 'Verdana', 'Geneva', 'Lucid', 'Arial', 'Helvetica', 'Avant Garde', sans-serif; text-anchor: middle; fill: var(--fg-color)" x="126.022656" y="115.718359" transform="rotate(-0 126.022656 115.718359)">04/2026</text>
     </g>
    </g>
    <g id="xtick_3">
     <g id="line2d_5">
      <path d="M 182.913681 103.4 
L 182.913681 5 
" clip-path="url(#pbd49f2022f)" style="fill: none; stroke-dasharray: 2.96,1.28; stroke-dashoffset: 0; stroke: var(--grid-color); stroke-width: 0.8"/>
     </g>
     <g id="line2d_6">
      <g>
       <use xlink:href="#m0ebdf409d8" x="182.913681" y="103.4" style="fill: var(--fg-color); stroke: var(--fg-color); stroke-width: 0.8"/>
      </g>
     </g>
     <g id="text_3">
      <text style="font-size: 7px; font-family: 'DejaVu Sans', 'Bitstream Vera Sans', 'Computer Modern Sans Serif', 'Lucida Grande', 'Verdana', 'Geneva', 'Lucid', 'Arial', 'Helvetica', 'Avant Garde', sans-serif; text-anchor: middle; fill: var(--fg-color)" x="182.913681" y="115.718359" transform="rotate(-0 182.913681 115.718359)">06/2026</text>
     </g>
    </g>
   </g>
   <g id="matplotlib.axis_2">
    <g id="ytick_1">
     <g id="line2d_7">
      <path d="M 35.96 99.748082 
L 211 99.748082 
" clip-path="url(#pbd49f2022f)" style="fill: none; stroke-dasharray: 2.96,1.28; stroke-dashoffset: 0; stroke: var(--grid-color); stroke-width: 0.8"/>
     </g>
     <g id="line2d_8">
      <defs>
       <path id="m79753f3d3e" d="M 0 0 
L -3.5 0 
" style="stroke: var(--fg-color); stroke-width: 0.8"/>
      </defs>
      <g>
       <use xlink:href="#m79753f3d3e" x="35.96" y="99.748082" style="fill: var(--fg-color); stroke: var(--fg-color); stroke-width: 0.8"/>
      </g>
     </g>
     <g id="text_4">
      <text style="font-size: 7px; font-family: 'DejaVu Sans', 'Bitstream Vera Sans', 'Computer Modern Sans Serif', 'Lucida Grande', 'Verdana', 'Geneva', 'Lucid', 'Arial', 'Helvetica', 'Avant Garde', sans-serif; text-anchor: end; fill: var(--fg-color)" x="28.96" y="102.407262" transform="rotate(-0 28.96 102.407262)">0</text>
     </g>
    </g>
    <g id="ytick_2">
     <g id="line2d_9">
      <path d="M 35.96 82.239353 
L 211 82.239353 
" clip-path="url(#pbd49f2022f)" style="fill: none; stroke-dasharray: 2.96,1.28; stroke-dashoffset: 0; stroke: var(--grid-color); stroke-width: 0.8"/>
     </g>
     <g id="line2d_10">
      <g>
       <use xlink:href="#m79753f3d3e" x="35.96" y="82.239353" style="fill: var(--fg-color); stroke: var(--fg-color); stroke-width: 0.8"/>
      </g>
     </g>
     <g id="text_5">
      <text style="font-size: 7px; font-family: 'DejaVu Sans', 'Bitstream Vera Sans', 'Computer Modern Sans Serif', 'Lucida Grande', 'Verdana', 'Geneva', 'Lucid', 'Arial', 'Helvetica', 'Avant Garde', sans-serif; text-anchor: end; fill: var(--fg-color)" x="28.96" y="84.898533" transform="rotate(-0 28.96 84.898533)">100</text>
     </g>
    </g>
    <g id="ytick_3">
     <g id="line2d_11">
      <path d="M 35.96 64.730625 
L 211 64.730625 
" clip-path="url(#pbd49f2022f)" style="fill: none; stroke-dasharray: 2.96,1.28; stroke-dashoffset: 0; stroke: var(--grid-color); stroke-width: 0.8"/>
     </g>
     <g id="line2d_12">
      <g>
       <use xlink:href="#m79753f3d3e" x="35.96" y="64.730625" style="fill: var(--fg-color); stroke: var(--fg-color); stroke-width: 0.8"/>
      </g>
     </g>
     <g id="text_6">
      <text style="font-size: 7px; font-family: 'DejaVu Sans', 'Bitstream Vera Sans', 'Computer Modern Sans Serif', 'Lucida Grande', 'Verdana', 'Geneva', 'Lucid', 'Arial', 'Helvetica', 'Avant Garde', sans-serif; text-anchor: end; fill: var(--fg-color)" x="28.96" y="67.389804" transform="rotate(-0 28.96 67.389804)">200</text>
     </g>
    </g>
    <g id="ytick_4">
     <g id="line2d_13">
      <path d="M 35.96 47.221896 
L 211 47.221896 
" clip-path="url(#pbd49f2022f)" style="fill: none; stroke-dasharray: 2.96,1.28; stroke-dashoffset: 0; stroke: var(--grid-color); stroke-width: 0.8"/>
     </g>
     <g id="line2d_14">
      <g>
       <use xlink:href="#m79753f3d3e" x="35.96" y="47.221896" style="fill: var(--fg-color); stroke: var(--fg-color); stroke-width: 0.8"/>
      </g>
     </g>
     <g id="text_7">
      <text style="font-size: 7px; font-family: 'DejaVu Sans', 'Bitstream Vera Sans', 'Computer Modern Sans Serif', 'Lucida Grande', 'Verdana', 'Geneva', 'Lucid', 'Arial', 'Helvetica', 'Avant Garde', sans-serif; text-anchor: end; fill: var(--fg-color)" x="28.96" y="49.881076" transform="rotate(-0 28.96 49.881076)">300</text>
     </g>
    </g>
    <g id="ytick_5">
     <g id="line2d_15">
      <path d="M 35.96 29.713168 
L 211 29.713168 
" clip-path="url(#pbd49f2022f)" style="fill: none; stroke-dasharray: 2.96,1.28; stroke-dashoffset: 0; stroke: var(--grid-color); stroke-width: 0.8"/>
     </g>
     <g id="line2d_16">
      <g>
       <use xlink:href="#m79753f3d3e" x="35.96" y="29.713168" style="fill: var(--fg-color); stroke: var(--fg-color); stroke-width: 0.8"/>
      </g>
     </g>
     <g id="text_8">
      <text style="font-size: 7px; font-family: 'DejaVu Sans', 'Bitstream Vera Sans', 'Computer Modern Sans Serif', 'Lucida Grande', 'Verdana', 'Geneva', 'Lucid', 'Arial', 'Helvetica', 'Avant Garde', sans-serif; text-anchor: end; fill: var(--fg-color)" x="28.96" y="32.372347" transform="rotate(-0 28.96 32.372347)">400</text>
     </g>
    </g>
    <g id="ytick_6">
     <g id="line2d_17">
      <path d="M 35.96 12.204439 
L 211 12.204439 
" clip-path="url(#pbd49f2022f)" style="fill: none; stroke-dasharray: 2.96,1.28; stroke-dashoffset: 0; stroke: var(--grid-color); stroke-width: 0.8"/>
     </g>
     <g id="line2d_18">
      <g>
       <use xlink:href="#m79753f3d3e" x="35.96" y="12.204439" style="fill: var(--fg-color); stroke: var(--fg-color); stroke-width: 0.8"/>
      </g>
     </g>
     <g id="text_9">
      <text style="font-size: 7px; font-family: 'DejaVu Sans', 'Bitstream Vera Sans', 'Computer Modern Sans Serif', 'Lucida Grande', 'Verdana', 'Geneva', 'Lucid', 'Arial', 'Helvetica', 'Avant Garde', sans-serif; text-anchor: end; fill: var(--fg-color)" x="28.96" y="14.863619" transform="rotate(-0 28.96 14.863619)">500</text>
     </g>
    </g>
    <g id="text_10">
     <text style="font-size: 7px; font-family: 'DejaVu Sans', 'Bitstream Vera Sans', 'Computer Modern Sans Serif', 'Lucida Grande', 'Verdana', 'Geneva', 'Lucid', 'Arial', 'Helvetica', 'Avant Garde', sans-serif; text-anchor: middle; fill: var(--fg-color)" x="9.917109" y="54.2" transform="rotate(-90 9.917109 54.2)">ms</text>
    </g>
   </g>
   <g id="line2d_19">
    <path d="M 43.916364 83.653884 
L 44.494523 83.070143 
L 45.427166 85.036898 
L 46.359808 82.930598 
L 47.292453 83.384774 
L 48.22509 81.064518 
L 49.157727 83.916339 
L 50.090359 82.815215 
L 51.023007 84.084073 
L 51.95565 82.157588 
L 52.88829 82.799107 
L 53.82093 79.40399 
L 54.753566 79.317322 
L 55.686208 82.433525 
L 56.618849 81.54023 
L 57.551483 82.261589 
L 58.484126 84.442652 
L 59.416765 81.89128 
L 60.349406 83.86819 
L 61.282045 70.812632 
L 62.214684 83.811987 
L 63.147327 81.267619 
L 64.07996 81.66034 
L 65.012598 82.971218 
L 65.945245 82.450684 
L 66.877884 84.205408 
L 67.810526 82.584976 
L 68.743162 82.578673 
L 69.675784 81.447784 
L 70.608443 82.375221 
L 71.541078 84.773392 
L 72.473724 80.851261 
L 73.406361 80.596159 
L 74.339003 69.944024 
L 75.271637 81.615868 
L 76.204286 82.26194 
L 77.136912 84.212062 
L 78.069558 83.000108 
L 79.002199 84.674117 
L 79.934841 80.529101 
L 80.867465 82.591979 
L 81.800118 82.860388 
L 82.732742 85.481094 
L 83.665398 73.720306 
L 84.598038 85.137048 
L 85.53068 81.099185 
L 86.463316 82.496732 
L 87.395962 85.082246 
L 96.913595 84.967213 
L 97.655282 84.461736 
L 98.587939 83.174495 
L 99.520578 84.104558 
L 100.453222 82.283125 
L 101.385859 81.762941 
L 102.318497 82.270169 
L 103.251135 83.422418 
L 104.183773 85.888698 
L 105.116412 84.205584 
L 106.049054 81.109515 
L 106.981691 82.292755 
L 107.914333 81.628824 
L 108.846974 83.086776 
L 109.779613 81.886202 
L 110.71225 82.560463 
L 111.644893 81.847158 
L 112.57753 82.047283 
L 113.510173 79.422724 
L 114.442814 80.853537 
L 115.37545 78.485832 
L 116.308095 67.924742 
L 117.240726 70.095124 
L 118.173367 82.966141 
L 119.106014 84.686899 
L 120.038653 82.916591 
L 120.971293 84.427944 
L 121.903926 78.257168 
L 122.836569 80.738855 
L 123.769209 82.481849 
L 124.701847 83.900932 
L 125.634489 83.327696 
L 129.365046 81.334677 
L 130.297692 80.34631 
L 131.230328 82.238128 
L 132.162968 80.722222 
L 133.095609 81.656138 
L 134.028248 79.502914 
L 134.960891 80.867544 
L 135.893512 80.375199 
L 136.826165 84.655033 
L 137.75881 77.274928 
L 138.691446 82.34388 
L 139.624089 83.560562 
L 140.556726 81.46967 
L 141.489366 81.184102 
L 142.422003 82.361564 
L 143.354646 66.991002 
L 144.287298 81.042807 
L 145.219926 83.980071 
L 146.152567 81.692381 
L 147.085204 67.420141 
L 148.017844 83.332949 
L 148.950485 84.483447 
L 149.883123 81.573496 
L 150.815765 84.433897 
L 151.7484 82.232 
L 179.727656 82.232 
L 188.43171 24.068529 
L 189.054038 83.925619 
L 189.986678 76.505245 
L 190.919315 9.472727 
L 191.851955 83.99723 
L 192.7846 80.482002 
L 193.717237 78.879954 
L 194.649875 82.530699 
L 195.582513 84.862686 
L 196.515156 83.458311 
L 197.447798 83.986199 
L 198.380437 63.36617 
L 199.313081 80.659891 
L 200.245713 82.50321 
L 201.178356 80.93898 
L 202.110995 84.015964 
L 203.043636 74.619905 
" clip-path="url(#pbd49f2022f)" style="fill: none; stroke: #339af0; stroke-width: 1.2; stroke-linecap: square"/>
   </g>
   <g id="line2d_20">
    <path d="M 43.916364 97.880951 
L 44.494523 98.809439 
L 45.427166 98.385027 
L 46.359808 98.126073 
L 47.292453 98.320945 
L 48.22509 97.696584 
L 49.157727 98.419169 
L 50.090359 97.673298 
L 51.023007 98.848133 
L 51.95565 97.942757 
L 52.88829 97.80759 
L 53.82093 98.656413 
L 54.753566 98.167744 
L 55.686208 97.193208 
L 56.618849 98.260015 
L 57.551483 97.582602 
L 58.484126 98.362966 
L 59.416765 97.556865 
L 60.349406 98.498834 
L 61.282045 98.534027 
L 62.214684 98.074948 
L 63.147327 98.19961 
L 64.07996 98.644682 
L 65.012598 98.686703 
L 65.945245 98.185078 
L 66.877884 98.453487 
L 67.810526 97.912817 
L 68.743162 97.943457 
L 69.675784 98.180701 
L 70.608443 98.092807 
L 71.541078 97.997734 
L 72.473724 97.875874 
L 73.406361 98.497258 
L 74.339003 98.74098 
L 75.271637 97.953787 
L 76.204286 98.328824 
L 77.136912 98.15969 
L 78.069558 98.070045 
L 79.002199 97.788855 
L 79.934841 98.211341 
L 80.867465 97.907739 
L 81.800118 98.105938 
L 82.732742 98.036254 
L 83.665398 97.221923 
L 84.598038 98.59986 
L 85.53068 97.971646 
L 86.463316 97.507665 
L 87.395962 97.537605 
L 96.913595 98.585502 
L 97.655282 98.222371 
L 98.587939 97.746309 
L 99.520578 98.008415 
L 100.453222 98.00964 
L 101.385859 97.797785 
L 102.318497 98.526848 
L 103.251135 98.759889 
L 104.183773 98.927273 
L 105.116412 98.228674 
L 106.049054 97.943107 
L 106.981691 97.843307 
L 107.914333 98.484652 
L 108.846974 98.332501 
L 109.779613 98.3796 
L 110.71225 97.95974 
L 111.644893 98.15934 
L 112.57753 98.462416 
L 113.510173 98.15864 
L 114.442814 98.042732 
L 115.37545 98.277174 
L 116.308095 98.25984 
L 117.240726 98.037654 
L 118.173367 98.528774 
L 119.106014 98.646958 
L 120.038653 98.381876 
L 120.971293 98.497609 
L 121.903926 97.685028 
L 122.836569 97.916494 
L 123.769209 98.483251 
L 124.701847 98.305713 
L 125.634489 98.195058 
L 129.365046 97.696059 
L 130.297692 98.14971 
L 131.230328 98.174748 
L 132.162968 97.909315 
L 133.095609 98.101911 
L 134.028248 98.055163 
L 134.960891 98.571846 
L 135.893512 97.940656 
L 136.826165 98.608264 
L 137.75881 98.191556 
L 138.691446 98.616318 
L 139.624089 98.436328 
L 140.556726 97.58768 
L 141.489366 98.720495 
L 142.422003 98.826773 
L 143.354646 97.922797 
L 144.287298 97.649486 
L 145.219926 98.698434 
L 146.152567 97.631977 
L 147.085204 96.806791 
L 148.017844 98.139905 
L 148.950485 98.657988 
L 149.883123 97.963242 
L 150.815765 98.789129 
L 151.7484 98.023122 
L 179.727656 98.023122 
L 188.43171 95.842585 
L 189.054038 98.562391 
L 189.986678 98.030651 
L 190.919315 96.288357 
L 191.851955 98.160566 
L 192.7846 98.235853 
L 193.717237 97.613243 
L 194.649875 98.082477 
L 195.582513 98.394132 
L 196.515156 98.357013 
L 197.447798 97.832627 
L 198.380437 97.654738 
L 199.313081 97.52675 
L 200.245713 98.202061 
L 201.178356 98.595132 
L 202.110995 97.750336 
L 203.043636 97.350086 
" clip-path="url(#pbd49f2022f)" style="fill: none; stroke: #ff6b6b; stroke-width: 1.2; stroke-linecap: square"/>
   </g>
   <g id="patch_3">
    <path d="M 35.96 103.4 
L 35.96 5 
" style="fill: none; stroke: var(--fg-color); stroke-width: 0.8; stroke-linejoin: miter; stroke-linecap: square"/>
   </g>
   <g id="patch_4">
    <path d="M 35.96 103.4 
L 211 103.4 
" style="fill: none; stroke: var(--fg-color); stroke-width: 0.8; stroke-linejoin: miter; stroke-linecap: square"/>
   </g>
  </g>
 </g>
 <defs>
  <clipPath id="pbd49f2022f">
   <rect x="35.96" y="5" width="175.04" height="98.4"/>
  </clipPath>
 </defs>
</svg>
