<?xml version="1.0" encoding="utf-8" standalone="no"?>
<!DOCTYPE svg PUBLIC "-//W3C//DTD SVG 1.1//EN"
  "http://www.w3.org/Graphics/SVG/1.1/DTD/svg11.dtd">
<svg xmlns:xlink="http://www.w3.org/1999/xlink" width="216pt" height="122.4pt" viewBox="0 0 216 122.4" xmlns="http://www.w3.org/2000/svg" version="1.1">
  <style>
    :root {
      --fg-color: #212529;
      --grid-color: rgba(33, 37, 41, 0.1);
    }
    @media (prefers-color-scheme: dark) {
      :root {
        --fg-color: #dee2e6;
        --grid-color: rgba(248, 249, 250, 0.15);
      }
    }
  </style>

 <metadata>
  <rdf:RDF xmlns:dc="http://purl.org/dc/elements/1.1/" xmlns:cc="http://creativecommons.org/ns#" xmlns:rdf="http://www.w3.org/1999/02/22-rdf-syntax-ns#">
   <cc:Work>
    <dc:type rdf:resource="http://purl.org/dc/dcmitype/StillImage"/>
    <dc:date>2026-06-30T15:37:59.306469</dc:date>
    <dc:format>image/svg+xml</dc:format>
    <dc:creator>
     <cc:Agent>
      <dc:title>Matplotlib v3.11.0, https://matplotlib.org/</dc:title>
     </cc:Agent>
    </dc:creator>
   </cc:Work>
  </rdf:RDF>
 </metadata>
 <defs>
  <style type="text/css">*{stroke-linejoin: round; stroke-linecap: butt}</style>
 </defs>
 <g id="figure_1">
  <g id="patch_1">
   <path d="M 0 122.4 
L 216 122.4 
L 216 0 
L 0 0 
L 0 122.4 
z
" style="fill: none; opacity: 0"/>
  </g>
  <g id="axes_1">
   <g id="patch_2">
    <path d="M 31.64 103.4 
L 211 103.4 
L 211 5 
L 31.64 5 
L 31.64 103.4 
z
" style="fill: none; opacity: 0"/>
   </g>
   <g id="matplotlib.axis_1">
    <g id="xtick_1">
     <g id="line2d_1">
      <path d="M 66.298815 103.4 
L 66.298815 5 
" clip-path="url(#p413acbf303)" style="fill: none; stroke-dasharray: 2.96,1.28; stroke-dashoffset: 0; stroke: var(--grid-color); stroke-width: 0.8"/>
     </g>
     <g id="line2d_2">
      <defs>
       <path id="m508cea9fd1" d="M 0 0 
L 0 3.5 
" style="stroke: var(--fg-color); stroke-width: 0.8"/>
      </defs>
      <g>
       <use xlink:href="#m508cea9fd1" x="66.298815" y="103.4" style="fill: var(--fg-color); stroke: var(--fg-color); stroke-width: 0.8"/>
      </g>
     </g>
     <g id="text_1">
      <text style="font-size: 7px; font-family: 'DejaVu Sans', 'Bitstream Vera Sans', 'Computer Modern Sans Serif', 'Lucida Grande', 'Verdana', 'Geneva', 'Lucid', 'Arial', 'Helvetica', 'Avant Garde', sans-serif; text-anchor: middle; fill: var(--fg-color)" x="66.298815" y="115.718359" transform="rotate(-0 66.298815 115.718359)">02/2026</text>
     </g>
    </g>
    <g id="xtick_2">
     <g id="line2d_3">
      <path d="M 120.157298 103.4 
L 120.157298 5 
" clip-path="url(#p413acbf303)" style="fill: none; stroke-dasharray: 2.96,1.28; stroke-dashoffset: 0; stroke: var(--grid-color); stroke-width: 0.8"/>
     </g>
     <g id="line2d_4">
      <g>
       <use xlink:href="#m508cea9fd1" x="120.157298" y="103.4" style="fill: var(--fg-color); stroke: var(--fg-color); stroke-width: 0.8"/>
      </g>
     </g>
     <g id="text_2">
      <text style="font-size: 7px; font-family: 'DejaVu Sans', 'Bitstream Vera Sans', 'Computer Modern Sans Serif', 'Lucida Grande', 'Verdana', 'Geneva', 'Lucid', 'Arial', 'Helvetica', 'Avant Garde', sans-serif; text-anchor: middle; fill: var(--fg-color)" x="120.157298" y="115.718359" transform="rotate(-0 120.157298 115.718359)">04/2026</text>
     </g>
    </g>
    <g id="xtick_3">
     <g id="line2d_5">
      <path d="M 175.841492 103.4 
L 175.841492 5 
" clip-path="url(#p413acbf303)" style="fill: none; stroke-dasharray: 2.96,1.28; stroke-dashoffset: 0; stroke: var(--grid-color); stroke-width: 0.8"/>
     </g>
     <g id="line2d_6">
      <g>
       <use xlink:href="#m508cea9fd1" x="175.841492" y="103.4" style="fill: var(--fg-color); stroke: var(--fg-color); stroke-width: 0.8"/>
      </g>
     </g>
     <g id="text_3">
      <text style="font-size: 7px; font-family: 'DejaVu Sans', 'Bitstream Vera Sans', 'Computer Modern Sans Serif', 'Lucida Grande', 'Verdana', 'Geneva', 'Lucid', 'Arial', 'Helvetica', 'Avant Garde', sans-serif; text-anchor: middle; fill: var(--fg-color)" x="175.841492" y="115.718359" transform="rotate(-0 175.841492 115.718359)">06/2026</text>
     </g>
    </g>
   </g>
   <g id="matplotlib.axis_2">
    <g id="ytick_1">
     <g id="line2d_7">
      <path d="M 31.64 101.983795 
L 211 101.983795 
" clip-path="url(#p413acbf303)" style="fill: none; stroke-dasharray: 2.96,1.28; stroke-dashoffset: 0; stroke: var(--grid-color); stroke-width: 0.8"/>
     </g>
     <g id="line2d_8">
      <defs>
       <path id="m8b1ed855bf" d="M 0 0 
L -3.5 0 
" style="stroke: var(--fg-color); stroke-width: 0.8"/>
      </defs>
      <g>
       <use xlink:href="#m8b1ed855bf" x="31.64" y="101.983795" style="fill: var(--fg-color); stroke: var(--fg-color); stroke-width: 0.8"/>
      </g>
     </g>
     <g id="text_4">
      <text style="font-size: 7px; font-family: 'DejaVu Sans', 'Bitstream Vera Sans', 'Computer Modern Sans Serif', 'Lucida Grande', 'Verdana', 'Geneva', 'Lucid', 'Arial', 'Helvetica', 'Avant Garde', sans-serif; text-anchor: end; fill: var(--fg-color)" x="24.64" y="104.642975" transform="rotate(-0 24.64 104.642975)">0</text>
     </g>
    </g>
    <g id="ytick_2">
     <g id="line2d_9">
      <path d="M 31.64 77.274642 
L 211 77.274642 
" clip-path="url(#p413acbf303)" style="fill: none; stroke-dasharray: 2.96,1.28; stroke-dashoffset: 0; stroke: var(--grid-color); stroke-width: 0.8"/>
     </g>
     <g id="line2d_10">
      <g>
       <use xlink:href="#m8b1ed855bf" x="31.64" y="77.274642" style="fill: var(--fg-color); stroke: var(--fg-color); stroke-width: 0.8"/>
      </g>
     </g>
     <g id="text_5">
      <text style="font-size: 7px; font-family: 'DejaVu Sans', 'Bitstream Vera Sans', 'Computer Modern Sans Serif', 'Lucida Grande', 'Verdana', 'Geneva', 'Lucid', 'Arial', 'Helvetica', 'Avant Garde', sans-serif; text-anchor: end; fill: var(--fg-color)" x="24.64" y="79.933822" transform="rotate(-0 24.64 79.933822)">10</text>
     </g>
    </g>
    <g id="ytick_3">
     <g id="line2d_11">
      <path d="M 31.64 52.56549 
L 211 52.56549 
" clip-path="url(#p413acbf303)" style="fill: none; stroke-dasharray: 2.96,1.28; stroke-dashoffset: 0; stroke: var(--grid-color); stroke-width: 0.8"/>
     </g>
     <g id="line2d_12">
      <g>
       <use xlink:href="#m8b1ed855bf" x="31.64" y="52.56549" style="fill: var(--fg-color); stroke: var(--fg-color); stroke-width: 0.8"/>
      </g>
     </g>
     <g id="text_6">
      <text style="font-size: 7px; font-family: 'DejaVu Sans', 'Bitstream Vera Sans', 'Computer Modern Sans Serif', 'Lucida Grande', 'Verdana', 'Geneva', 'Lucid', 'Arial', 'Helvetica', 'Avant Garde', sans-serif; text-anchor: end; fill: var(--fg-color)" x="24.64" y="55.224669" transform="rotate(-0 24.64 55.224669)">20</text>
     </g>
    </g>
    <g id="ytick_4">
     <g id="line2d_13">
      <path d="M 31.64 27.856337 
L 211 27.856337 
" clip-path="url(#p413acbf303)" style="fill: none; stroke-dasharray: 2.96,1.28; stroke-dashoffset: 0; stroke: var(--grid-color); stroke-width: 0.8"/>
     </g>
     <g id="line2d_14">
      <g>
       <use xlink:href="#m8b1ed855bf" x="31.64" y="27.856337" style="fill: var(--fg-color); stroke: var(--fg-color); stroke-width: 0.8"/>
      </g>
     </g>
     <g id="text_7">
      <text style="font-size: 7px; font-family: 'DejaVu Sans', 'Bitstream Vera Sans', 'Computer Modern Sans Serif', 'Lucida Grande', 'Verdana', 'Geneva', 'Lucid', 'Arial', 'Helvetica', 'Avant Garde', sans-serif; text-anchor: end; fill: var(--fg-color)" x="24.64" y="30.515517" transform="rotate(-0 24.64 30.515517)">30</text>
     </g>
    </g>
    <g id="text_8">
     <text style="font-size: 7px; font-family: 'DejaVu Sans', 'Bitstream Vera Sans', 'Computer Modern Sans Serif', 'Lucida Grande', 'Verdana', 'Geneva', 'Lucid', 'Arial', 'Helvetica', 'Avant Garde', sans-serif; text-anchor: middle; fill: var(--fg-color)" x="10.050859" y="54.2" transform="rotate(-90 10.050859 54.2)">ms</text>
    </g>
   </g>
   <g id="line2d_15">
    <path d="M 39.792727 62.172408 
L 40.358622 61.947555 
L 41.271481 64.576609 
L 42.184338 61.290291 
L 43.097199 57.314589 
L 44.010052 61.389128 
L 44.922906 62.461505 
L 45.835753 61.739998 
L 46.748617 64.608731 
L 47.661476 63.600597 
L 49.487188 55.676372 
L 50.40004 61.601627 
L 51.312897 60.890003 
L 52.225755 61.702934 
L 53.138604 58.041038 
L 54.051463 62.305838 
L 54.964319 62.006857 
L 55.877175 59.362977 
L 56.79003 62.533162 
L 57.702885 21.938495 
L 58.615744 56.9143 
L 59.528593 61.349593 
L 60.441447 60.45018 
L 61.35431 59.805271 
L 62.267165 55.85922 
L 63.180022 61.352064 
L 64.092874 59.335797 
L 65.005713 61.868486 
L 65.918587 62.404674 
L 66.831438 61.035787 
L 67.7443 57.623453 
L 68.657153 62.142757 
L 69.57001 62.928508 
L 70.482861 64.141728 
L 71.395726 61.445959 
L 72.308567 64.628498 
L 73.221429 62.024153 
L 74.134286 64.58155 
L 75.047144 61.302646 
L 75.959984 60.336518 
L 76.872853 38.750602 
L 77.785693 60.875178 
L 78.698564 63.548708 
L 80.524278 54.366787 
L 81.43713 57.12927 
L 82.349993 58.300484 
L 91.665728 66.9561 
L 92.391681 65.436487 
L 93.304554 65.033728 
L 94.217409 62.703655 
L 96.955975 67.106826 
L 97.868829 67.398394 
L 98.781684 63.840276 
L 99.694538 64.260332 
L 100.607396 63.714259 
L 101.520248 64.925008 
L 102.433106 59.755853 
L 103.345963 64.146669 
L 104.258819 63.855101 
L 105.171671 65.394482 
L 106.084531 66.52369 
L 106.997383 59.968352 
L 107.910242 61.90802 
L 108.823098 63.464697 
L 109.735951 62.772841 
L 110.648812 62.846968 
L 111.561659 62.594935 
L 112.474515 58.436384 
L 113.387379 65.55262 
L 114.300233 60.494657 
L 115.213089 64.042891 
L 116.125938 62.197117 
L 117.038797 63.944054 
L 117.951653 62.157583 
L 118.864507 60.633028 
L 119.777364 61.050613 
L 123.428785 50.887738 
L 124.341647 61.174158 
L 125.254499 61.814125 
L 126.167355 58.567343 
L 127.080212 49.281643 
L 127.993067 61.443488 
L 128.905926 59.965881 
L 129.818763 61.12474 
L 130.731631 62.891444 
L 131.644492 56.617791 
L 132.557344 59.686667 
L 133.470203 60.623144 
L 134.383056 58.703243 
L 135.295912 47.937465 
L 136.208765 61.505261 
L 137.121624 62.607289 
L 138.034491 57.808772 
L 138.947335 15.113827 
L 139.860192 55.664017 
L 140.773046 46.78849 
L 141.685902 52.711274 
L 142.598758 59.395099 
L 143.511612 57.015608 
L 144.42447 58.18188 
L 145.337321 46.380789 
L 172.723053 46.380789 
L 181.242468 59.377803 
L 181.851594 56.652383 
L 182.764449 51.112591 
L 183.677303 48.565078 
L 184.590158 43.36133 
L 185.503019 42.330959 
L 186.415872 58.735365 
L 187.328726 54.690477 
L 188.24158 56.303984 
L 189.154439 50.665356 
L 190.067296 9.472727 
L 190.980152 55.036405 
L 191.893011 52.832348 
L 192.80586 40.359168 
L 193.718718 50.660414 
L 194.631573 52.345578 
L 195.544431 56.558489 
L 196.457286 54.584227 
L 197.370142 58.572285 
L 198.282997 57.139154 
L 200.108708 56.491774 
L 201.021561 57.322001 
L 201.934415 59.916462 
L 202.847273 56.731453 
L 202.847273 56.731453 
" clip-path="url(#p413acbf303)" style="fill: none; stroke: #339af0; stroke-width: 1.2; stroke-linecap: square"/>
   </g>
   <g id="line2d_16">
    <path d="M 39.792727 96.794873 
L 40.358622 97.00243 
L 41.271481 97.541089 
L 42.184338 96.513189 
L 43.097199 96.184557 
L 44.010052 96.755338 
L 44.922906 96.532956 
L 45.835753 96.869 
L 46.748617 96.179615 
L 47.661476 97.007372 
L 48.574332 96.263626 
L 49.487188 96.871471 
L 50.40004 96.777576 
L 51.312897 95.915227 
L 52.225755 96.844291 
L 53.138604 97.293998 
L 54.051463 94.405498 
L 54.964319 93.92614 
L 55.877175 97.034552 
L 56.79003 96.335283 
L 57.702885 97.066674 
L 59.528593 96.784989 
L 60.441447 96.394585 
L 61.35431 96.636734 
L 62.267165 96.369875 
L 63.180022 96.550252 
L 64.092874 96.562607 
L 65.005713 96.461299 
L 65.918587 95.43834 
L 66.831438 94.711891 
L 67.7443 96.765222 
L 68.657153 96.288335 
L 69.57001 97.004901 
L 70.482861 97.550973 
L 71.395726 97.224812 
L 73.221429 96.888768 
L 74.134286 97.689344 
L 75.047144 96.987604 
L 75.959984 96.693565 
L 76.872853 97.630042 
L 77.785693 95.104767 
L 78.698564 96.540369 
L 79.61142 96.357521 
L 81.43713 96.278452 
L 82.349993 96.849233 
L 91.665728 96.204324 
L 92.391681 96.616967 
L 93.304554 96.061011 
L 94.217409 95.732379 
L 95.130269 95.912756 
L 96.043122 97.632513 
L 96.955975 96.201853 
L 97.868829 96.649089 
L 98.781684 96.634263 
L 99.694538 97.271759 
L 100.607396 94.642706 
L 101.520248 96.498363 
L 102.433106 95.831216 
L 103.345963 95.552002 
L 104.258819 95.994296 
L 105.171671 96.187028 
L 106.084531 96.164789 
L 106.997383 95.359271 
L 107.910242 93.212046 
L 108.823098 95.776856 
L 109.735951 96.661443 
L 110.648812 93.553032 
L 111.561659 96.350108 
L 112.474515 95.900402 
L 113.387379 96.073366 
L 114.300233 92.082837 
L 115.213089 95.596479 
L 116.125938 94.353609 
L 117.038797 97.079028 
L 117.951653 97.261876 
L 118.864507 97.249521 
L 119.777364 95.534706 
L 124.341647 96.293277 
L 125.254499 96.735571 
L 126.167355 96.908535 
L 127.080212 96.283393 
L 127.993067 97.227283 
L 128.905926 92.73763 
L 129.818763 96.859117 
L 130.731631 97.679461 
L 131.644492 97.420014 
L 132.557344 97.753588 
L 133.470203 96.797344 
L 134.383056 97.27423 
L 135.295912 91.998826 
L 136.208765 97.605333 
L 137.121624 97.200103 
L 138.034491 95.78921 
L 138.947335 98.507217 
L 139.860192 97.743704 
L 140.773046 98.556635 
L 141.685902 98.887738 
L 143.511612 98.371317 
L 144.42447 98.695007 
L 145.337321 98.358962 
L 172.723053 98.358962 
L 181.851594 98.697478 
L 182.764449 98.1094 
L 183.677303 98.02786 
L 184.590158 98.699949 
L 185.503019 98.363904 
L 186.415872 98.408381 
L 187.328726 98.588757 
L 188.24158 98.591228 
L 189.154439 98.040214 
L 190.067296 98.484979 
L 191.893011 98.54181 
L 193.718718 97.985854 
L 194.631573 98.724658 
L 196.457286 98.65053 
L 197.370142 98.712303 
L 198.282997 98.581345 
L 199.195852 98.823494 
L 200.108708 98.880325 
L 201.021561 98.764192 
L 201.934415 98.927273 
L 202.847273 98.615937 
L 202.847273 98.615937 
" clip-path="url(#p413acbf303)" style="fill: none; stroke: #ff6b6b; stroke-width: 1.2; stroke-linecap: square"/>
   </g>
   <g id="patch_3">
    <path d="M 31.64 103.4 
L 31.64 5 
" style="fill: none; stroke: var(--fg-color); stroke-width: 0.8; stroke-linejoin: miter; stroke-linecap: square"/>
   </g>
   <g id="patch_4">
    <path d="M 31.64 103.4 
L 211 103.4 
" style="fill: none; stroke: var(--fg-color); stroke-width: 0.8; stroke-linejoin: miter; stroke-linecap: square"/>
   </g>
  </g>
 </g>
 <defs>
  <clipPath id="p413acbf303">
   <rect x="31.64" y="5" width="179.36" height="98.4"/>
  </clipPath>
 </defs>
</svg>
