<?xml version="1.0" encoding="utf-8" standalone="no"?>
<!DOCTYPE svg PUBLIC "-//W3C//DTD SVG 1.1//EN"
  "http://www.w3.org/Graphics/SVG/1.1/DTD/svg11.dtd">
<svg xmlns:xlink="http://www.w3.org/1999/xlink" width="216pt" height="122.4pt" viewBox="0 0 216 122.4" xmlns="http://www.w3.org/2000/svg" version="1.1">
  <style>
    :root {
      --fg-color: #212529;
      --grid-color: rgba(33, 37, 41, 0.1);
    }
    @media (prefers-color-scheme: dark) {
      :root {
        --fg-color: #dee2e6;
        --grid-color: rgba(248, 249, 250, 0.15);
      }
    }
  </style>

 <metadata>
  <rdf:RDF xmlns:dc="http://purl.org/dc/elements/1.1/" xmlns:cc="http://creativecommons.org/ns#" xmlns:rdf="http://www.w3.org/1999/02/22-rdf-syntax-ns#">
   <cc:Work>
    <dc:type rdf:resource="http://purl.org/dc/dcmitype/StillImage"/>
    <dc:date>2026-06-30T04:48:42.741128</dc:date>
    <dc:format>image/svg+xml</dc:format>
    <dc:creator>
     <cc:Agent>
      <dc:title>Matplotlib v3.11.0, https://matplotlib.org/</dc:title>
     </cc:Agent>
    </dc:creator>
   </cc:Work>
  </rdf:RDF>
 </metadata>
 <defs>
  <style type="text/css">*{stroke-linejoin: round; stroke-linecap: butt}</style>
 </defs>
 <g id="figure_1">
  <g id="patch_1">
   <path d="M 0 122.4 
L 216 122.4 
L 216 0 
L 0 0 
L 0 122.4 
z
" style="fill: none; opacity: 0"/>
  </g>
  <g id="axes_1">
   <g id="patch_2">
    <path d="M 35.96 103.4 
L 211 103.4 
L 211 5 
L 35.96 5 
L 35.96 103.4 
z
" style="fill: none; opacity: 0"/>
   </g>
   <g id="matplotlib.axis_1">
    <g id="xtick_1">
     <g id="line2d_1">
      <path d="M 72.056377 103.4 
L 72.056377 5 
" clip-path="url(#pe4f7e4bf21)" style="fill: none; stroke-dasharray: 2.96,1.28; stroke-dashoffset: 0; stroke: var(--grid-color); stroke-width: 0.8"/>
     </g>
     <g id="line2d_2">
      <defs>
       <path id="md5170bb888" d="M 0 0 
L 0 3.5 
" style="stroke: var(--fg-color); stroke-width: 0.8"/>
      </defs>
      <g>
       <use xlink:href="#md5170bb888" x="72.056377" y="103.4" style="fill: var(--fg-color); stroke: var(--fg-color); stroke-width: 0.8"/>
      </g>
     </g>
     <g id="text_1">
      <text style="font-size: 7px; font-family: 'DejaVu Sans', 'Bitstream Vera Sans', 'Computer Modern Sans Serif', 'Lucida Grande', 'Verdana', 'Geneva', 'Lucid', 'Arial', 'Helvetica', 'Avant Garde', sans-serif; text-anchor: middle; fill: var(--fg-color)" x="72.056377" y="115.718359" transform="rotate(-0 72.056377 115.718359)">02/2026</text>
     </g>
    </g>
    <g id="xtick_2">
     <g id="line2d_3">
      <path d="M 126.640628 103.4 
L 126.640628 5 
" clip-path="url(#pe4f7e4bf21)" style="fill: none; stroke-dasharray: 2.96,1.28; stroke-dashoffset: 0; stroke: var(--grid-color); stroke-width: 0.8"/>
     </g>
     <g id="line2d_4">
      <g>
       <use xlink:href="#md5170bb888" x="126.640628" y="103.4" style="fill: var(--fg-color); stroke: var(--fg-color); stroke-width: 0.8"/>
      </g>
     </g>
     <g id="text_2">
      <text style="font-size: 7px; font-family: 'DejaVu Sans', 'Bitstream Vera Sans', 'Computer Modern Sans Serif', 'Lucida Grande', 'Verdana', 'Geneva', 'Lucid', 'Arial', 'Helvetica', 'Avant Garde', sans-serif; text-anchor: middle; fill: var(--fg-color)" x="126.640628" y="115.718359" transform="rotate(-0 126.640628 115.718359)">04/2026</text>
     </g>
    </g>
    <g id="xtick_3">
     <g id="line2d_5">
      <path d="M 183.075192 103.4 
L 183.075192 5 
" clip-path="url(#pe4f7e4bf21)" style="fill: none; stroke-dasharray: 2.96,1.28; stroke-dashoffset: 0; stroke: var(--grid-color); stroke-width: 0.8"/>
     </g>
     <g id="line2d_6">
      <g>
       <use xlink:href="#md5170bb888" x="183.075192" y="103.4" style="fill: var(--fg-color); stroke: var(--fg-color); stroke-width: 0.8"/>
      </g>
     </g>
     <g id="text_3">
      <text style="font-size: 7px; font-family: 'DejaVu Sans', 'Bitstream Vera Sans', 'Computer Modern Sans Serif', 'Lucida Grande', 'Verdana', 'Geneva', 'Lucid', 'Arial', 'Helvetica', 'Avant Garde', sans-serif; text-anchor: middle; fill: var(--fg-color)" x="183.075192" y="115.718359" transform="rotate(-0 183.075192 115.718359)">06/2026</text>
     </g>
    </g>
   </g>
   <g id="matplotlib.axis_2">
    <g id="ytick_1">
     <g id="line2d_7">
      <path d="M 35.96 99.504178 
L 211 99.504178 
" clip-path="url(#pe4f7e4bf21)" style="fill: none; stroke-dasharray: 2.96,1.28; stroke-dashoffset: 0; stroke: var(--grid-color); stroke-width: 0.8"/>
     </g>
     <g id="line2d_8">
      <defs>
       <path id="m0023430dad" d="M 0 0 
L -3.5 0 
" style="stroke: var(--fg-color); stroke-width: 0.8"/>
      </defs>
      <g>
       <use xlink:href="#m0023430dad" x="35.96" y="99.504178" style="fill: var(--fg-color); stroke: var(--fg-color); stroke-width: 0.8"/>
      </g>
     </g>
     <g id="text_4">
      <text style="font-size: 7px; font-family: 'DejaVu Sans', 'Bitstream Vera Sans', 'Computer Modern Sans Serif', 'Lucida Grande', 'Verdana', 'Geneva', 'Lucid', 'Arial', 'Helvetica', 'Avant Garde', sans-serif; text-anchor: end; fill: var(--fg-color)" x="28.96" y="102.163358" transform="rotate(-0 28.96 102.163358)">0</text>
     </g>
    </g>
    <g id="ytick_2">
     <g id="line2d_9">
      <path d="M 35.96 81.475893 
L 211 81.475893 
" clip-path="url(#pe4f7e4bf21)" style="fill: none; stroke-dasharray: 2.96,1.28; stroke-dashoffset: 0; stroke: var(--grid-color); stroke-width: 0.8"/>
     </g>
     <g id="line2d_10">
      <g>
       <use xlink:href="#m0023430dad" x="35.96" y="81.475893" style="fill: var(--fg-color); stroke: var(--fg-color); stroke-width: 0.8"/>
      </g>
     </g>
     <g id="text_5">
      <text style="font-size: 7px; font-family: 'DejaVu Sans', 'Bitstream Vera Sans', 'Computer Modern Sans Serif', 'Lucida Grande', 'Verdana', 'Geneva', 'Lucid', 'Arial', 'Helvetica', 'Avant Garde', sans-serif; text-anchor: end; fill: var(--fg-color)" x="28.96" y="84.135073" transform="rotate(-0 28.96 84.135073)">50</text>
     </g>
    </g>
    <g id="ytick_3">
     <g id="line2d_11">
      <path d="M 35.96 63.447609 
L 211 63.447609 
" clip-path="url(#pe4f7e4bf21)" style="fill: none; stroke-dasharray: 2.96,1.28; stroke-dashoffset: 0; stroke: var(--grid-color); stroke-width: 0.8"/>
     </g>
     <g id="line2d_12">
      <g>
       <use xlink:href="#m0023430dad" x="35.96" y="63.447609" style="fill: var(--fg-color); stroke: var(--fg-color); stroke-width: 0.8"/>
      </g>
     </g>
     <g id="text_6">
      <text style="font-size: 7px; font-family: 'DejaVu Sans', 'Bitstream Vera Sans', 'Computer Modern Sans Serif', 'Lucida Grande', 'Verdana', 'Geneva', 'Lucid', 'Arial', 'Helvetica', 'Avant Garde', sans-serif; text-anchor: end; fill: var(--fg-color)" x="28.96" y="66.106788" transform="rotate(-0 28.96 66.106788)">100</text>
     </g>
    </g>
    <g id="ytick_4">
     <g id="line2d_13">
      <path d="M 35.96 45.419324 
L 211 45.419324 
" clip-path="url(#pe4f7e4bf21)" style="fill: none; stroke-dasharray: 2.96,1.28; stroke-dashoffset: 0; stroke: var(--grid-color); stroke-width: 0.8"/>
     </g>
     <g id="line2d_14">
      <g>
       <use xlink:href="#m0023430dad" x="35.96" y="45.419324" style="fill: var(--fg-color); stroke: var(--fg-color); stroke-width: 0.8"/>
      </g>
     </g>
     <g id="text_7">
      <text style="font-size: 7px; font-family: 'DejaVu Sans', 'Bitstream Vera Sans', 'Computer Modern Sans Serif', 'Lucida Grande', 'Verdana', 'Geneva', 'Lucid', 'Arial', 'Helvetica', 'Avant Garde', sans-serif; text-anchor: end; fill: var(--fg-color)" x="28.96" y="48.078504" transform="rotate(-0 28.96 48.078504)">150</text>
     </g>
    </g>
    <g id="ytick_5">
     <g id="line2d_15">
      <path d="M 35.96 27.391039 
L 211 27.391039 
" clip-path="url(#pe4f7e4bf21)" style="fill: none; stroke-dasharray: 2.96,1.28; stroke-dashoffset: 0; stroke: var(--grid-color); stroke-width: 0.8"/>
     </g>
     <g id="line2d_16">
      <g>
       <use xlink:href="#m0023430dad" x="35.96" y="27.391039" style="fill: var(--fg-color); stroke: var(--fg-color); stroke-width: 0.8"/>
      </g>
     </g>
     <g id="text_8">
      <text style="font-size: 7px; font-family: 'DejaVu Sans', 'Bitstream Vera Sans', 'Computer Modern Sans Serif', 'Lucida Grande', 'Verdana', 'Geneva', 'Lucid', 'Arial', 'Helvetica', 'Avant Garde', sans-serif; text-anchor: end; fill: var(--fg-color)" x="28.96" y="30.050219" transform="rotate(-0 28.96 30.050219)">200</text>
     </g>
    </g>
    <g id="ytick_6">
     <g id="line2d_17">
      <path d="M 35.96 9.362755 
L 211 9.362755 
" clip-path="url(#pe4f7e4bf21)" style="fill: none; stroke-dasharray: 2.96,1.28; stroke-dashoffset: 0; stroke: var(--grid-color); stroke-width: 0.8"/>
     </g>
     <g id="line2d_18">
      <g>
       <use xlink:href="#m0023430dad" x="35.96" y="9.362755" style="fill: var(--fg-color); stroke: var(--fg-color); stroke-width: 0.8"/>
      </g>
     </g>
     <g id="text_9">
      <text style="font-size: 7px; font-family: 'DejaVu Sans', 'Bitstream Vera Sans', 'Computer Modern Sans Serif', 'Lucida Grande', 'Verdana', 'Geneva', 'Lucid', 'Arial', 'Helvetica', 'Avant Garde', sans-serif; text-anchor: end; fill: var(--fg-color)" x="28.96" y="12.021934" transform="rotate(-0 28.96 12.021934)">250</text>
     </g>
    </g>
    <g id="text_10">
     <text style="font-size: 7px; font-family: 'DejaVu Sans', 'Bitstream Vera Sans', 'Computer Modern Sans Serif', 'Lucida Grande', 'Verdana', 'Geneva', 'Lucid', 'Arial', 'Helvetica', 'Avant Garde', sans-serif; text-anchor: middle; fill: var(--fg-color)" x="9.917109" y="54.2" transform="rotate(-90 9.917109 54.2)">ms</text>
    </g>
   </g>
   <g id="line2d_19">
    <path d="M 43.916364 19.872884 
L 45.193108 24.849051 
L 45.766628 24.32551 
L 46.691788 20.445102 
L 47.616947 17.410581 
L 48.542109 21.39339 
L 49.467263 22.150938 
L 50.392418 20.859031 
L 51.317566 19.069544 
L 52.242732 29.337012 
L 53.167891 23.037209 
L 54.093049 20.396786 
L 55.018206 18.10467 
L 55.943359 28.19438 
L 56.868517 22.29841 
L 57.793676 23.719399 
L 58.718827 22.975552 
L 59.643987 22.618231 
L 60.569143 22.950673 
L 61.494301 17.654323 
L 62.419457 21.269355 
L 63.344613 24.282603 
L 64.269773 25.305888 
L 65.194924 22.93589 
L 66.120079 24.249791 
L 67.045243 26.011876 
L 67.970398 24.120709 
L 68.895557 23.370732 
L 69.82071 23.432389 
L 70.74585 12.389704 
L 71.671025 21.341108 
L 72.596178 22.290838 
L 73.521341 19.687553 
L 74.446495 23.513876 
L 75.371653 24.732228 
L 76.296805 20.043792 
L 77.221971 24.959384 
L 78.147114 26.318356 
L 79.072277 23.40138 
L 79.997435 24.385724 
L 80.922594 21.86537 
L 81.847735 25.368626 
L 82.772905 10.396857 
L 83.698046 23.413639 
L 84.623219 24.298107 
L 85.548376 23.680097 
L 86.473535 20.488009 
L 87.398688 23.501257 
L 88.323852 20.171793 
L 97.76512 20.801701 
L 98.500856 22.309587 
L 99.426031 24.151357 
L 100.351186 16.318067 
L 101.276348 24.200033 
L 102.201502 19.141296 
L 103.126656 25.528718 
L 104.051812 23.281312 
L 104.976967 23.677213 
L 105.902123 17.170805 
L 106.827282 25.361415 
L 107.752435 20.319625 
L 108.677594 20.098598 
L 109.602753 20.958908 
L 110.527909 28.146064 
L 111.453063 19.508713 
L 112.378223 20.038744 
L 113.303377 24.145227 
L 114.228537 20.464572 
L 115.153695 18.315601 
L 116.078848 18.32173 
L 117.004011 25.603355 
L 117.929158 21.768739 
L 118.854316 21.650834 
L 119.779481 19.16293 
L 120.704637 21.347958 
L 121.629794 20.468899 
L 122.554943 16.600029 
L 123.480104 13.600844 
L 124.405261 20.572742 
L 125.330416 16.663128 
L 126.255574 17.863452 
L 129.9562 17.162872 
L 130.881363 20.661802 
L 131.806516 19.712072 
L 132.731673 20.953499 
L 133.656831 11.602589 
L 134.581987 17.648554 
L 135.507147 16.875862 
L 136.432285 20.502071 
L 137.357455 21.190031 
L 138.282617 9.688346 
L 139.20777 20.688123 
L 140.13293 19.984659 
L 141.058084 19.821684 
L 141.983242 19.552702 
L 142.908395 22.398647 
L 143.833556 20.127443 
L 144.758724 14.4781 
L 145.683869 17.44808 
L 146.609028 23.090572 
L 147.534182 12.864569 
L 148.459339 17.211909 
L 149.384497 23.523612 
L 150.309651 22.105507 
L 151.234811 22.205744 
L 152.159963 14.467644 
L 179.91473 14.467644 
L 188.548948 17.650718 
L 189.166282 24.366254 
L 190.091439 9.472727 
L 191.016594 15.517972 
L 191.94175 23.089851 
L 192.866913 20.20785 
L 193.792066 20.177202 
L 194.717222 24.241137 
L 195.642377 18.529056 
L 196.567536 15.967597 
L 197.492695 21.09412 
L 198.417852 20.371546 
L 199.343013 15.502467 
L 200.268162 19.433355 
L 201.193322 21.011551 
L 202.118478 21.76946 
L 203.043636 17.85624 
" clip-path="url(#pe4f7e4bf21)" style="fill: none; stroke: #339af0; stroke-width: 1.2; stroke-linecap: square"/>
   </g>
   <g id="line2d_20">
    <path d="M 43.916364 97.879829 
L 45.193108 97.996653 
L 45.766628 98.217679 
L 46.691788 98.507574 
L 47.616947 97.359533 
L 48.542109 97.328524 
L 49.467263 97.982591 
L 50.392418 97.977543 
L 51.317566 98.242198 
L 52.242732 98.492791 
L 53.167891 98.306739 
L 54.093049 97.972495 
L 55.018206 97.98836 
L 55.943359 98.417793 
L 56.868517 98.571394 
L 57.793676 97.84197 
L 58.718827 97.960596 
L 59.643987 97.98872 
L 60.569143 97.112906 
L 61.494301 98.119966 
L 62.419457 97.275521 
L 63.344613 98.349646 
L 64.269773 98.595552 
L 65.194924 98.703722 
L 66.120079 98.593389 
L 67.045243 98.627643 
L 67.970398 98.857323 
L 68.895557 98.220564 
L 69.82071 98.199291 
L 70.74585 98.331979 
L 71.671025 98.593389 
L 72.596178 98.777638 
L 73.521341 98.487743 
L 74.446495 97.581281 
L 75.371653 98.89338 
L 76.296805 98.310345 
L 77.221971 98.379934 
L 78.147114 98.736173 
L 79.072277 98.284024 
L 79.997435 98.559135 
L 80.922594 97.871536 
L 81.847735 97.404964 
L 82.772905 96.998607 
L 83.698046 98.377049 
L 84.623219 98.8173 
L 85.548376 97.767333 
L 86.473535 98.828117 
L 87.398688 97.94365 
L 88.323852 97.148963 
L 97.76512 98.856602 
L 98.500856 98.927273 
L 99.426031 98.083188 
L 100.351186 97.52323 
L 101.276348 98.297364 
L 102.201502 97.558205 
L 103.126656 98.273567 
L 104.051812 98.857323 
L 104.976967 97.742093 
L 105.902123 97.329606 
L 106.827282 98.438706 
L 107.752435 97.576233 
L 108.677594 97.600391 
L 109.602753 97.514576 
L 110.527909 98.393636 
L 111.453063 98.588341 
L 112.378223 97.456886 
L 113.303377 98.204699 
L 114.228537 98.49207 
L 115.153695 97.258935 
L 116.078848 97.761924 
L 117.004011 98.865616 
L 117.929158 98.70877 
L 118.854316 98.729683 
L 119.779481 97.860719 
L 120.704637 98.510459 
L 121.629794 98.359742 
L 122.554943 98.159989 
L 123.480104 96.57963 
L 124.405261 97.901103 
L 125.330416 97.186462 
L 126.255574 98.468633 
L 129.9562 98.12249 
L 130.881363 98.111673 
L 131.806516 98.091121 
L 132.731673 97.235498 
L 133.656831 96.313532 
L 134.581987 97.419387 
L 135.507147 96.324349 
L 136.432285 97.775626 
L 137.357455 97.221076 
L 138.282617 97.200884 
L 139.20777 97.114348 
L 140.13293 96.815079 
L 141.058084 98.568149 
L 141.983242 96.117024 
L 142.908395 97.74642 
L 143.833556 97.99521 
L 144.758724 96.131446 
L 145.683869 98.068045 
L 146.609028 97.07721 
L 147.534182 96.576024 
L 148.459339 95.558868 
L 149.384497 96.204281 
L 150.309651 97.29391 
L 151.234811 98.15458 
L 152.159963 96.556553 
L 179.91473 96.556553 
L 188.548948 96.856544 
L 189.166282 98.221646 
L 190.091439 96.035896 
L 191.016594 97.187183 
L 191.94175 95.869676 
L 192.866913 97.10281 
L 193.792066 96.957502 
L 194.717222 96.370501 
L 195.642377 97.47239 
L 196.567536 97.887401 
L 197.492695 97.508807 
L 198.417852 97.311938 
L 199.343013 96.232765 
L 200.268162 97.360615 
L 201.193322 96.070511 
L 202.118478 97.616977 
L 203.043636 96.372665 
" clip-path="url(#pe4f7e4bf21)" style="fill: none; stroke: #ff6b6b; stroke-width: 1.2; stroke-linecap: square"/>
   </g>
   <g id="patch_3">
    <path d="M 35.96 103.4 
L 35.96 5 
" style="fill: none; stroke: var(--fg-color); stroke-width: 0.8; stroke-linejoin: miter; stroke-linecap: square"/>
   </g>
   <g id="patch_4">
    <path d="M 35.96 103.4 
L 211 103.4 
" style="fill: none; stroke: var(--fg-color); stroke-width: 0.8; stroke-linejoin: miter; stroke-linecap: square"/>
   </g>
  </g>
 </g>
 <defs>
  <clipPath id="pe4f7e4bf21">
   <rect x="35.96" y="5" width="175.04" height="98.4"/>
  </clipPath>
 </defs>
</svg>
