<?xml version="1.0" encoding="utf-8" standalone="no"?>
<!DOCTYPE svg PUBLIC "-//W3C//DTD SVG 1.1//EN"
  "http://www.w3.org/Graphics/SVG/1.1/DTD/svg11.dtd">
<svg xmlns:xlink="http://www.w3.org/1999/xlink" width="216pt" height="122.4pt" viewBox="0 0 216 122.4" xmlns="http://www.w3.org/2000/svg" version="1.1">
  <style>
    :root {
      --fg-color: #212529;
      --grid-color: rgba(33, 37, 41, 0.1);
    }
    @media (prefers-color-scheme: dark) {
      :root {
        --fg-color: #dee2e6;
        --grid-color: rgba(248, 249, 250, 0.15);
      }
    }
  </style>

 <metadata>
  <rdf:RDF xmlns:dc="http://purl.org/dc/elements/1.1/" xmlns:cc="http://creativecommons.org/ns#" xmlns:rdf="http://www.w3.org/1999/02/22-rdf-syntax-ns#">
   <cc:Work>
    <dc:type rdf:resource="http://purl.org/dc/dcmitype/StillImage"/>
    <dc:date>2026-06-30T04:48:58.879173</dc:date>
    <dc:format>image/svg+xml</dc:format>
    <dc:creator>
     <cc:Agent>
      <dc:title>Matplotlib v3.11.0, https://matplotlib.org/</dc:title>
     </cc:Agent>
    </dc:creator>
   </cc:Work>
  </rdf:RDF>
 </metadata>
 <defs>
  <style type="text/css">*{stroke-linejoin: round; stroke-linecap: butt}</style>
 </defs>
 <g id="figure_1">
  <g id="patch_1">
   <path d="M 0 122.4 
L 216 122.4 
L 216 0 
L 0 0 
L 0 122.4 
z
" style="fill: none; opacity: 0"/>
  </g>
  <g id="axes_1">
   <g id="patch_2">
    <path d="M 35.96 103.4 
L 211 103.4 
L 211 5 
L 35.96 5 
L 35.96 103.4 
z
" style="fill: none; opacity: 0"/>
   </g>
   <g id="matplotlib.axis_1">
    <g id="xtick_1">
     <g id="line2d_1">
      <path d="M 72.056377 103.4 
L 72.056377 5 
" clip-path="url(#p7d46f037be)" style="fill: none; stroke-dasharray: 2.96,1.28; stroke-dashoffset: 0; stroke: var(--grid-color); stroke-width: 0.8"/>
     </g>
     <g id="line2d_2">
      <defs>
       <path id="mb46220d693" d="M 0 0 
L 0 3.5 
" style="stroke: var(--fg-color); stroke-width: 0.8"/>
      </defs>
      <g>
       <use xlink:href="#mb46220d693" x="72.056377" y="103.4" style="fill: var(--fg-color); stroke: var(--fg-color); stroke-width: 0.8"/>
      </g>
     </g>
     <g id="text_1">
      <text style="font-size: 7px; font-family: 'DejaVu Sans', 'Bitstream Vera Sans', 'Computer Modern Sans Serif', 'Lucida Grande', 'Verdana', 'Geneva', 'Lucid', 'Arial', 'Helvetica', 'Avant Garde', sans-serif; text-anchor: middle; fill: var(--fg-color)" x="72.056377" y="115.718359" transform="rotate(-0 72.056377 115.718359)">02/2026</text>
     </g>
    </g>
    <g id="xtick_2">
     <g id="line2d_3">
      <path d="M 126.640628 103.4 
L 126.640628 5 
" clip-path="url(#p7d46f037be)" style="fill: none; stroke-dasharray: 2.96,1.28; stroke-dashoffset: 0; stroke: var(--grid-color); stroke-width: 0.8"/>
     </g>
     <g id="line2d_4">
      <g>
       <use xlink:href="#mb46220d693" x="126.640628" y="103.4" style="fill: var(--fg-color); stroke: var(--fg-color); stroke-width: 0.8"/>
      </g>
     </g>
     <g id="text_2">
      <text style="font-size: 7px; font-family: 'DejaVu Sans', 'Bitstream Vera Sans', 'Computer Modern Sans Serif', 'Lucida Grande', 'Verdana', 'Geneva', 'Lucid', 'Arial', 'Helvetica', 'Avant Garde', sans-serif; text-anchor: middle; fill: var(--fg-color)" x="126.640628" y="115.718359" transform="rotate(-0 126.640628 115.718359)">04/2026</text>
     </g>
    </g>
    <g id="xtick_3">
     <g id="line2d_5">
      <path d="M 183.075192 103.4 
L 183.075192 5 
" clip-path="url(#p7d46f037be)" style="fill: none; stroke-dasharray: 2.96,1.28; stroke-dashoffset: 0; stroke: var(--grid-color); stroke-width: 0.8"/>
     </g>
     <g id="line2d_6">
      <g>
       <use xlink:href="#mb46220d693" x="183.075192" y="103.4" style="fill: var(--fg-color); stroke: var(--fg-color); stroke-width: 0.8"/>
      </g>
     </g>
     <g id="text_3">
      <text style="font-size: 7px; font-family: 'DejaVu Sans', 'Bitstream Vera Sans', 'Computer Modern Sans Serif', 'Lucida Grande', 'Verdana', 'Geneva', 'Lucid', 'Arial', 'Helvetica', 'Avant Garde', sans-serif; text-anchor: middle; fill: var(--fg-color)" x="183.075192" y="115.718359" transform="rotate(-0 183.075192 115.718359)">06/2026</text>
     </g>
    </g>
   </g>
   <g id="matplotlib.axis_2">
    <g id="ytick_1">
     <g id="line2d_7">
      <path d="M 35.96 100.509218 
L 211 100.509218 
" clip-path="url(#p7d46f037be)" style="fill: none; stroke-dasharray: 2.96,1.28; stroke-dashoffset: 0; stroke: var(--grid-color); stroke-width: 0.8"/>
     </g>
     <g id="line2d_8">
      <defs>
       <path id="m0d1b7ea59e" d="M 0 0 
L -3.5 0 
" style="stroke: var(--fg-color); stroke-width: 0.8"/>
      </defs>
      <g>
       <use xlink:href="#m0d1b7ea59e" x="35.96" y="100.509218" style="fill: var(--fg-color); stroke: var(--fg-color); stroke-width: 0.8"/>
      </g>
     </g>
     <g id="text_4">
      <text style="font-size: 7px; font-family: 'DejaVu Sans', 'Bitstream Vera Sans', 'Computer Modern Sans Serif', 'Lucida Grande', 'Verdana', 'Geneva', 'Lucid', 'Arial', 'Helvetica', 'Avant Garde', sans-serif; text-anchor: end; fill: var(--fg-color)" x="28.96" y="103.168397" transform="rotate(-0 28.96 103.168397)">0</text>
     </g>
    </g>
    <g id="ytick_2">
     <g id="line2d_9">
      <path d="M 35.96 78.616815 
L 211 78.616815 
" clip-path="url(#p7d46f037be)" style="fill: none; stroke-dasharray: 2.96,1.28; stroke-dashoffset: 0; stroke: var(--grid-color); stroke-width: 0.8"/>
     </g>
     <g id="line2d_10">
      <g>
       <use xlink:href="#m0d1b7ea59e" x="35.96" y="78.616815" style="fill: var(--fg-color); stroke: var(--fg-color); stroke-width: 0.8"/>
      </g>
     </g>
     <g id="text_5">
      <text style="font-size: 7px; font-family: 'DejaVu Sans', 'Bitstream Vera Sans', 'Computer Modern Sans Serif', 'Lucida Grande', 'Verdana', 'Geneva', 'Lucid', 'Arial', 'Helvetica', 'Avant Garde', sans-serif; text-anchor: end; fill: var(--fg-color)" x="28.96" y="81.275995" transform="rotate(-0 28.96 81.275995)">50</text>
     </g>
    </g>
    <g id="ytick_3">
     <g id="line2d_11">
      <path d="M 35.96 56.724413 
L 211 56.724413 
" clip-path="url(#p7d46f037be)" style="fill: none; stroke-dasharray: 2.96,1.28; stroke-dashoffset: 0; stroke: var(--grid-color); stroke-width: 0.8"/>
     </g>
     <g id="line2d_12">
      <g>
       <use xlink:href="#m0d1b7ea59e" x="35.96" y="56.724413" style="fill: var(--fg-color); stroke: var(--fg-color); stroke-width: 0.8"/>
      </g>
     </g>
     <g id="text_6">
      <text style="font-size: 7px; font-family: 'DejaVu Sans', 'Bitstream Vera Sans', 'Computer Modern Sans Serif', 'Lucida Grande', 'Verdana', 'Geneva', 'Lucid', 'Arial', 'Helvetica', 'Avant Garde', sans-serif; text-anchor: end; fill: var(--fg-color)" x="28.96" y="59.383593" transform="rotate(-0 28.96 59.383593)">100</text>
     </g>
    </g>
    <g id="ytick_4">
     <g id="line2d_13">
      <path d="M 35.96 34.832011 
L 211 34.832011 
" clip-path="url(#p7d46f037be)" style="fill: none; stroke-dasharray: 2.96,1.28; stroke-dashoffset: 0; stroke: var(--grid-color); stroke-width: 0.8"/>
     </g>
     <g id="line2d_14">
      <g>
       <use xlink:href="#m0d1b7ea59e" x="35.96" y="34.832011" style="fill: var(--fg-color); stroke: var(--fg-color); stroke-width: 0.8"/>
      </g>
     </g>
     <g id="text_7">
      <text style="font-size: 7px; font-family: 'DejaVu Sans', 'Bitstream Vera Sans', 'Computer Modern Sans Serif', 'Lucida Grande', 'Verdana', 'Geneva', 'Lucid', 'Arial', 'Helvetica', 'Avant Garde', sans-serif; text-anchor: end; fill: var(--fg-color)" x="28.96" y="37.49119" transform="rotate(-0 28.96 37.49119)">150</text>
     </g>
    </g>
    <g id="ytick_5">
     <g id="line2d_15">
      <path d="M 35.96 12.939608 
L 211 12.939608 
" clip-path="url(#p7d46f037be)" style="fill: none; stroke-dasharray: 2.96,1.28; stroke-dashoffset: 0; stroke: var(--grid-color); stroke-width: 0.8"/>
     </g>
     <g id="line2d_16">
      <g>
       <use xlink:href="#m0d1b7ea59e" x="35.96" y="12.939608" style="fill: var(--fg-color); stroke: var(--fg-color); stroke-width: 0.8"/>
      </g>
     </g>
     <g id="text_8">
      <text style="font-size: 7px; font-family: 'DejaVu Sans', 'Bitstream Vera Sans', 'Computer Modern Sans Serif', 'Lucida Grande', 'Verdana', 'Geneva', 'Lucid', 'Arial', 'Helvetica', 'Avant Garde', sans-serif; text-anchor: end; fill: var(--fg-color)" x="28.96" y="15.598788" transform="rotate(-0 28.96 15.598788)">200</text>
     </g>
    </g>
    <g id="text_9">
     <text style="font-size: 7px; font-family: 'DejaVu Sans', 'Bitstream Vera Sans', 'Computer Modern Sans Serif', 'Lucida Grande', 'Verdana', 'Geneva', 'Lucid', 'Arial', 'Helvetica', 'Avant Garde', sans-serif; text-anchor: middle; fill: var(--fg-color)" x="9.917109" y="54.2" transform="rotate(-90 9.917109 54.2)">ms</text>
    </g>
   </g>
   <g id="line2d_17">
    <path d="M 43.916364 49.271801 
L 45.193108 44.205024 
L 45.766628 43.262337 
L 46.691788 48.752076 
L 47.616947 44.740512 
L 48.542109 43.216363 
L 49.467263 47.586524 
L 50.392418 45.841262 
L 51.317566 42.847695 
L 52.242732 45.311028 
L 53.167891 43.400259 
L 54.093049 43.674352 
L 55.018206 45.272935 
L 55.943359 46.431481 
L 56.868517 48.65356 
L 57.793676 45.078968 
L 58.718827 47.368476 
L 59.643987 46.198108 
L 60.569143 46.104409 
L 61.494301 46.929752 
L 62.419457 49.645724 
L 63.344613 45.938464 
L 64.269773 42.340229 
L 65.194924 43.752289 
L 66.120079 50.869947 
L 67.045243 44.165617 
L 67.970398 9.472727 
L 68.895557 46.904357 
L 69.82071 50.463624 
L 70.74585 44.558805 
L 71.671025 47.584335 
L 72.596178 30.870799 
L 73.521341 45.422679 
L 74.446495 42.489097 
L 75.371653 48.090487 
L 76.296805 46.636832 
L 77.221971 46.069381 
L 78.147114 42.97686 
L 79.072277 49.6952 
L 79.997435 47.150428 
L 80.922594 44.708549 
L 81.847735 47.2577 
L 82.772905 49.105419 
L 83.698046 46.254153 
L 84.623219 49.516558 
L 85.548376 48.321671 
L 86.473535 46.575533 
L 87.398688 46.813722 
L 88.323852 46.841307 
L 97.76512 23.098559 
L 98.500856 27.95911 
L 99.426031 26.987963 
L 100.351186 34.185309 
L 101.276348 49.248595 
L 102.201502 50.917672 
L 103.126656 45.009788 
L 104.051812 46.488839 
L 104.976967 49.900551 
L 105.902123 47.575578 
L 106.827282 43.584593 
L 107.752435 48.737627 
L 108.677594 41.207516 
L 109.602753 48.036632 
L 110.527909 46.950331 
L 111.453063 43.066619 
L 112.378223 48.343563 
L 113.303377 51.027134 
L 114.228537 42.281119 
L 115.153695 49.668492 
L 116.078848 46.884654 
L 117.004011 45.913069 
L 117.929158 49.655794 
L 118.854316 51.766222 
L 119.779481 44.5842 
L 120.704637 46.735348 
L 121.629794 49.876469 
L 122.554943 52.077094 
L 123.480104 48.023934 
L 124.405261 45.843889 
L 125.330416 46.573344 
L 126.255574 46.016401 
L 129.9562 45.280378 
L 130.881363 43.59335 
L 131.806516 49.877783 
L 132.731673 43.675665 
L 133.656831 44.826768 
L 134.581987 47.775675 
L 135.507147 43.389313 
L 136.432285 47.59966 
L 137.357455 41.907635 
L 138.282617 41.724177 
L 139.20777 45.601321 
L 140.13293 45.522946 
L 141.058084 45.645982 
L 141.983242 42.215442 
L 142.908395 43.707628 
L 143.833556 48.095741 
L 144.758724 45.188868 
L 145.683869 41.87611 
L 146.609028 42.919064 
L 147.534182 42.609068 
L 148.459339 39.754736 
L 149.384497 41.46103 
L 150.309651 41.366893 
L 151.234811 36.73446 
L 152.159963 44.306167 
L 179.91473 44.306167 
L 188.548948 43.422589 
L 189.166282 46.592171 
L 190.091439 47.050598 
L 191.016594 45.562353 
L 191.94175 23.676956 
L 192.866913 41.452273 
L 193.792066 48.034443 
L 194.717222 43.319257 
L 195.642377 43.169513 
L 196.567536 44.211591 
L 197.492695 46.434984 
L 198.417852 46.657411 
L 199.343013 48.234101 
L 200.268162 41.295961 
L 201.193322 48.444706 
L 202.118478 43.118285 
L 203.043636 44.25056 
" clip-path="url(#p7d46f037be)" style="fill: none; stroke: #339af0; stroke-width: 1.2; stroke-linecap: square"/>
   </g>
   <g id="line2d_18">
    <path d="M 43.916364 98.602389 
L 45.193108 98.632163 
L 45.766628 98.691273 
L 46.691788 98.75082 
L 47.616947 98.646612 
L 48.542109 98.724987 
L 49.467263 98.747755 
L 50.392418 98.652304 
L 51.317566 98.576556 
L 52.242732 98.593633 
L 53.167891 98.687332 
L 54.093049 98.680326 
L 55.018206 97.675903 
L 55.943359 98.689521 
L 56.868517 98.668505 
L 57.793676 98.615525 
L 58.718827 98.672445 
L 59.643987 98.707035 
L 60.569143 98.618152 
L 61.494301 98.68777 
L 62.419457 98.711414 
L 63.344613 98.784972 
L 64.269773 98.436445 
L 65.194924 98.492052 
L 66.120079 98.887429 
L 67.045243 98.664126 
L 67.970398 98.543718 
L 68.895557 98.740312 
L 69.82071 98.927273 
L 70.74585 98.606768 
L 71.671025 98.7263 
L 72.596178 98.829195 
L 73.521341 98.701343 
L 74.446495 98.672007 
L 75.371653 98.820876 
L 76.296805 98.769647 
L 77.221971 98.778842 
L 78.147114 98.780156 
L 79.072277 98.773588 
L 79.997435 98.73462 
L 80.922594 98.797232 
L 81.847735 98.304215 
L 82.772905 98.896623 
L 83.698046 98.594508 
L 84.623219 98.869039 
L 85.548376 98.75695 
L 86.473535 98.753885 
L 87.398688 98.268311 
L 88.323852 98.6002 
L 97.76512 98.538902 
L 98.500856 98.732868 
L 99.426031 98.759577 
L 100.351186 98.468408 
L 101.276348 98.762642 
L 102.201502 98.793291 
L 103.126656 98.525328 
L 104.051812 98.763955 
L 104.976967 98.844082 
L 105.902123 98.8362 
L 106.827282 98.677699 
L 107.752435 98.307718 
L 108.677594 98.8038 
L 109.602753 98.739874 
L 110.527909 98.793291 
L 111.453063 98.640482 
L 112.378223 98.724111 
L 113.303377 98.909321 
L 114.228537 98.771399 
L 115.153695 98.879985 
L 116.078848 98.787599 
L 117.004011 98.65318 
L 117.929158 98.810805 
L 118.854316 98.838827 
L 119.779481 98.678575 
L 120.704637 98.639607 
L 121.629794 98.727614 
L 122.554943 98.830946 
L 123.480104 98.663688 
L 124.405261 98.586189 
L 125.330416 98.606768 
L 126.255574 98.627347 
L 129.9562 98.661061 
L 130.881363 98.467094 
L 131.806516 98.790226 
L 132.731673 98.733744 
L 133.656831 98.559043 
L 134.581987 98.678575 
L 135.507147 98.556415 
L 136.432285 98.754761 
L 137.357455 98.633039 
L 138.282617 98.642671 
L 139.20777 98.489425 
L 140.13293 98.632163 
L 141.058084 98.682954 
L 141.983242 98.650553 
L 142.908395 98.573492 
L 143.833556 98.765707 
L 144.758724 98.584438 
L 145.683869 98.250797 
L 146.609028 98.190812 
L 147.534182 98.240727 
L 148.459339 98.224089 
L 149.384497 97.949996 
L 150.309651 98.227592 
L 151.234811 98.041068 
L 152.159963 98.239413 
L 179.91473 98.239413 
L 188.548948 97.80463 
L 189.166282 98.218835 
L 190.091439 98.37033 
L 191.016594 98.390471 
L 191.94175 98.112 
L 192.866913 98.290204 
L 193.792066 98.455273 
L 194.717222 98.218835 
L 195.642377 98.346686 
L 196.567536 98.431191 
L 197.492695 98.430315 
L 198.417852 98.412801 
L 199.343013 98.446516 
L 200.268162 98.31341 
L 201.193322 98.400104 
L 202.118478 98.323918 
L 203.043636 98.369016 
" clip-path="url(#p7d46f037be)" style="fill: none; stroke: #ff6b6b; stroke-width: 1.2; stroke-linecap: square"/>
   </g>
   <g id="patch_3">
    <path d="M 35.96 103.4 
L 35.96 5 
" style="fill: none; stroke: var(--fg-color); stroke-width: 0.8; stroke-linejoin: miter; stroke-linecap: square"/>
   </g>
   <g id="patch_4">
    <path d="M 35.96 103.4 
L 211 103.4 
" style="fill: none; stroke: var(--fg-color); stroke-width: 0.8; stroke-linejoin: miter; stroke-linecap: square"/>
   </g>
  </g>
 </g>
 <defs>
  <clipPath id="p7d46f037be">
   <rect x="35.96" y="5" width="175.04" height="98.4"/>
  </clipPath>
 </defs>
</svg>
