<?xml version="1.0" encoding="utf-8" standalone="no"?>
<!DOCTYPE svg PUBLIC "-//W3C//DTD SVG 1.1//EN"
  "http://www.w3.org/Graphics/SVG/1.1/DTD/svg11.dtd">
<svg xmlns:xlink="http://www.w3.org/1999/xlink" width="216pt" height="122.4pt" viewBox="0 0 216 122.4" xmlns="http://www.w3.org/2000/svg" version="1.1">
  <style>
    :root {
      --fg-color: #212529;
      --grid-color: rgba(33, 37, 41, 0.1);
    }
    @media (prefers-color-scheme: dark) {
      :root {
        --fg-color: #dee2e6;
        --grid-color: rgba(248, 249, 250, 0.15);
      }
    }
  </style>

 <metadata>
  <rdf:RDF xmlns:dc="http://purl.org/dc/elements/1.1/" xmlns:cc="http://creativecommons.org/ns#" xmlns:rdf="http://www.w3.org/1999/02/22-rdf-syntax-ns#">
   <cc:Work>
    <dc:type rdf:resource="http://purl.org/dc/dcmitype/StillImage"/>
    <dc:date>2026-06-30T15:37:10.493053</dc:date>
    <dc:format>image/svg+xml</dc:format>
    <dc:creator>
     <cc:Agent>
      <dc:title>Matplotlib v3.11.0, https://matplotlib.org/</dc:title>
     </cc:Agent>
    </dc:creator>
   </cc:Work>
  </rdf:RDF>
 </metadata>
 <defs>
  <style type="text/css">*{stroke-linejoin: round; stroke-linecap: butt}</style>
 </defs>
 <g id="figure_1">
  <g id="patch_1">
   <path d="M 0 122.4 
L 216 122.4 
L 216 0 
L 0 0 
L 0 122.4 
z
" style="fill: none; opacity: 0"/>
  </g>
  <g id="axes_1">
   <g id="patch_2">
    <path d="M 35.96 103.4 
L 211 103.4 
L 211 5 
L 35.96 5 
L 35.96 103.4 
z
" style="fill: none; opacity: 0"/>
   </g>
   <g id="matplotlib.axis_1">
    <g id="xtick_1">
     <g id="line2d_1">
      <path d="M 69.784035 103.4 
L 69.784035 5 
" clip-path="url(#p985c24a2d9)" style="fill: none; stroke-dasharray: 2.96,1.28; stroke-dashoffset: 0; stroke: var(--grid-color); stroke-width: 0.8"/>
     </g>
     <g id="line2d_2">
      <defs>
       <path id="m8e17a1f1b1" d="M 0 0 
L 0 3.5 
" style="stroke: var(--fg-color); stroke-width: 0.8"/>
      </defs>
      <g>
       <use xlink:href="#m8e17a1f1b1" x="69.784035" y="103.4" style="fill: var(--fg-color); stroke: var(--fg-color); stroke-width: 0.8"/>
      </g>
     </g>
     <g id="text_1">
      <text style="font-size: 7px; font-family: 'DejaVu Sans', 'Bitstream Vera Sans', 'Computer Modern Sans Serif', 'Lucida Grande', 'Verdana', 'Geneva', 'Lucid', 'Arial', 'Helvetica', 'Avant Garde', sans-serif; text-anchor: middle; fill: var(--fg-color)" x="69.784035" y="115.718359" transform="rotate(-0 69.784035 115.718359)">02/2026</text>
     </g>
    </g>
    <g id="xtick_2">
     <g id="line2d_3">
      <path d="M 122.345302 103.4 
L 122.345302 5 
" clip-path="url(#p985c24a2d9)" style="fill: none; stroke-dasharray: 2.96,1.28; stroke-dashoffset: 0; stroke: var(--grid-color); stroke-width: 0.8"/>
     </g>
     <g id="line2d_4">
      <g>
       <use xlink:href="#m8e17a1f1b1" x="122.345302" y="103.4" style="fill: var(--fg-color); stroke: var(--fg-color); stroke-width: 0.8"/>
      </g>
     </g>
     <g id="text_2">
      <text style="font-size: 7px; font-family: 'DejaVu Sans', 'Bitstream Vera Sans', 'Computer Modern Sans Serif', 'Lucida Grande', 'Verdana', 'Geneva', 'Lucid', 'Arial', 'Helvetica', 'Avant Garde', sans-serif; text-anchor: middle; fill: var(--fg-color)" x="122.345302" y="115.718359" transform="rotate(-0 122.345302 115.718359)">04/2026</text>
     </g>
    </g>
    <g id="xtick_3">
     <g id="line2d_5">
      <path d="M 176.688307 103.4 
L 176.688307 5 
" clip-path="url(#p985c24a2d9)" style="fill: none; stroke-dasharray: 2.96,1.28; stroke-dashoffset: 0; stroke: var(--grid-color); stroke-width: 0.8"/>
     </g>
     <g id="line2d_6">
      <g>
       <use xlink:href="#m8e17a1f1b1" x="176.688307" y="103.4" style="fill: var(--fg-color); stroke: var(--fg-color); stroke-width: 0.8"/>
      </g>
     </g>
     <g id="text_3">
      <text style="font-size: 7px; font-family: 'DejaVu Sans', 'Bitstream Vera Sans', 'Computer Modern Sans Serif', 'Lucida Grande', 'Verdana', 'Geneva', 'Lucid', 'Arial', 'Helvetica', 'Avant Garde', sans-serif; text-anchor: middle; fill: var(--fg-color)" x="176.688307" y="115.718359" transform="rotate(-0 176.688307 115.718359)">06/2026</text>
     </g>
    </g>
   </g>
   <g id="matplotlib.axis_2">
    <g id="ytick_1">
     <g id="line2d_7">
      <path d="M 35.96 99.73679 
L 211 99.73679 
" clip-path="url(#p985c24a2d9)" style="fill: none; stroke-dasharray: 2.96,1.28; stroke-dashoffset: 0; stroke: var(--grid-color); stroke-width: 0.8"/>
     </g>
     <g id="line2d_8">
      <defs>
       <path id="mcc66259d8a" d="M 0 0 
L -3.5 0 
" style="stroke: var(--fg-color); stroke-width: 0.8"/>
      </defs>
      <g>
       <use xlink:href="#mcc66259d8a" x="35.96" y="99.73679" style="fill: var(--fg-color); stroke: var(--fg-color); stroke-width: 0.8"/>
      </g>
     </g>
     <g id="text_4">
      <text style="font-size: 7px; font-family: 'DejaVu Sans', 'Bitstream Vera Sans', 'Computer Modern Sans Serif', 'Lucida Grande', 'Verdana', 'Geneva', 'Lucid', 'Arial', 'Helvetica', 'Avant Garde', sans-serif; text-anchor: end; fill: var(--fg-color)" x="28.96" y="102.39597" transform="rotate(-0 28.96 102.39597)">0</text>
     </g>
    </g>
    <g id="ytick_2">
     <g id="line2d_9">
      <path d="M 35.96 84.880538 
L 211 84.880538 
" clip-path="url(#p985c24a2d9)" style="fill: none; stroke-dasharray: 2.96,1.28; stroke-dashoffset: 0; stroke: var(--grid-color); stroke-width: 0.8"/>
     </g>
     <g id="line2d_10">
      <g>
       <use xlink:href="#mcc66259d8a" x="35.96" y="84.880538" style="fill: var(--fg-color); stroke: var(--fg-color); stroke-width: 0.8"/>
      </g>
     </g>
     <g id="text_5">
      <text style="font-size: 7px; font-family: 'DejaVu Sans', 'Bitstream Vera Sans', 'Computer Modern Sans Serif', 'Lucida Grande', 'Verdana', 'Geneva', 'Lucid', 'Arial', 'Helvetica', 'Avant Garde', sans-serif; text-anchor: end; fill: var(--fg-color)" x="28.96" y="87.539717" transform="rotate(-0 28.96 87.539717)">100</text>
     </g>
    </g>
    <g id="ytick_3">
     <g id="line2d_11">
      <path d="M 35.96 70.024286 
L 211 70.024286 
" clip-path="url(#p985c24a2d9)" style="fill: none; stroke-dasharray: 2.96,1.28; stroke-dashoffset: 0; stroke: var(--grid-color); stroke-width: 0.8"/>
     </g>
     <g id="line2d_12">
      <g>
       <use xlink:href="#mcc66259d8a" x="35.96" y="70.024286" style="fill: var(--fg-color); stroke: var(--fg-color); stroke-width: 0.8"/>
      </g>
     </g>
     <g id="text_6">
      <text style="font-size: 7px; font-family: 'DejaVu Sans', 'Bitstream Vera Sans', 'Computer Modern Sans Serif', 'Lucida Grande', 'Verdana', 'Geneva', 'Lucid', 'Arial', 'Helvetica', 'Avant Garde', sans-serif; text-anchor: end; fill: var(--fg-color)" x="28.96" y="72.683465" transform="rotate(-0 28.96 72.683465)">200</text>
     </g>
    </g>
    <g id="ytick_4">
     <g id="line2d_13">
      <path d="M 35.96 55.168033 
L 211 55.168033 
" clip-path="url(#p985c24a2d9)" style="fill: none; stroke-dasharray: 2.96,1.28; stroke-dashoffset: 0; stroke: var(--grid-color); stroke-width: 0.8"/>
     </g>
     <g id="line2d_14">
      <g>
       <use xlink:href="#mcc66259d8a" x="35.96" y="55.168033" style="fill: var(--fg-color); stroke: var(--fg-color); stroke-width: 0.8"/>
      </g>
     </g>
     <g id="text_7">
      <text style="font-size: 7px; font-family: 'DejaVu Sans', 'Bitstream Vera Sans', 'Computer Modern Sans Serif', 'Lucida Grande', 'Verdana', 'Geneva', 'Lucid', 'Arial', 'Helvetica', 'Avant Garde', sans-serif; text-anchor: end; fill: var(--fg-color)" x="28.96" y="57.827213" transform="rotate(-0 28.96 57.827213)">300</text>
     </g>
    </g>
    <g id="ytick_5">
     <g id="line2d_15">
      <path d="M 35.96 40.311781 
L 211 40.311781 
" clip-path="url(#p985c24a2d9)" style="fill: none; stroke-dasharray: 2.96,1.28; stroke-dashoffset: 0; stroke: var(--grid-color); stroke-width: 0.8"/>
     </g>
     <g id="line2d_16">
      <g>
       <use xlink:href="#mcc66259d8a" x="35.96" y="40.311781" style="fill: var(--fg-color); stroke: var(--fg-color); stroke-width: 0.8"/>
      </g>
     </g>
     <g id="text_8">
      <text style="font-size: 7px; font-family: 'DejaVu Sans', 'Bitstream Vera Sans', 'Computer Modern Sans Serif', 'Lucida Grande', 'Verdana', 'Geneva', 'Lucid', 'Arial', 'Helvetica', 'Avant Garde', sans-serif; text-anchor: end; fill: var(--fg-color)" x="28.96" y="42.970961" transform="rotate(-0 28.96 42.970961)">400</text>
     </g>
    </g>
    <g id="ytick_6">
     <g id="line2d_17">
      <path d="M 35.96 25.455529 
L 211 25.455529 
" clip-path="url(#p985c24a2d9)" style="fill: none; stroke-dasharray: 2.96,1.28; stroke-dashoffset: 0; stroke: var(--grid-color); stroke-width: 0.8"/>
     </g>
     <g id="line2d_18">
      <g>
       <use xlink:href="#mcc66259d8a" x="35.96" y="25.455529" style="fill: var(--fg-color); stroke: var(--fg-color); stroke-width: 0.8"/>
      </g>
     </g>
     <g id="text_9">
      <text style="font-size: 7px; font-family: 'DejaVu Sans', 'Bitstream Vera Sans', 'Computer Modern Sans Serif', 'Lucida Grande', 'Verdana', 'Geneva', 'Lucid', 'Arial', 'Helvetica', 'Avant Garde', sans-serif; text-anchor: end; fill: var(--fg-color)" x="28.96" y="28.114709" transform="rotate(-0 28.96 28.114709)">500</text>
     </g>
    </g>
    <g id="ytick_7">
     <g id="line2d_19">
      <path d="M 35.96 10.599277 
L 211 10.599277 
" clip-path="url(#p985c24a2d9)" style="fill: none; stroke-dasharray: 2.96,1.28; stroke-dashoffset: 0; stroke: var(--grid-color); stroke-width: 0.8"/>
     </g>
     <g id="line2d_20">
      <g>
       <use xlink:href="#mcc66259d8a" x="35.96" y="10.599277" style="fill: var(--fg-color); stroke: var(--fg-color); stroke-width: 0.8"/>
      </g>
     </g>
     <g id="text_10">
      <text style="font-size: 7px; font-family: 'DejaVu Sans', 'Bitstream Vera Sans', 'Computer Modern Sans Serif', 'Lucida Grande', 'Verdana', 'Geneva', 'Lucid', 'Arial', 'Helvetica', 'Avant Garde', sans-serif; text-anchor: end; fill: var(--fg-color)" x="28.96" y="13.258457" transform="rotate(-0 28.96 13.258457)">600</text>
     </g>
    </g>
    <g id="text_11">
     <text style="font-size: 7px; font-family: 'DejaVu Sans', 'Bitstream Vera Sans', 'Computer Modern Sans Serif', 'Lucida Grande', 'Verdana', 'Geneva', 'Lucid', 'Arial', 'Helvetica', 'Avant Garde', sans-serif; text-anchor: middle; fill: var(--fg-color)" x="9.917109" y="54.2" transform="rotate(-90 9.917109 54.2)">ms</text>
    </g>
   </g>
   <g id="line2d_21">
    <path d="M 43.916364 87.035734 
L 44.468628 88.576625 
L 45.3595 88.608269 
L 46.250371 88.011641 
L 47.141245 89.7574 
L 48.032112 88.975515 
L 49.81384 87.829652 
L 50.704717 89.198805 
L 51.595589 87.658508 
L 52.486458 89.118729 
L 53.377327 88.828735 
L 54.268192 86.675916 
L 55.159063 89.77701 
L 56.049934 87.798157 
L 56.940797 89.432642 
L 57.831669 89.883084 
L 58.722538 89.097188 
L 59.613407 87.687329 
L 60.504275 86.825221 
L 62.286016 87.644395 
L 63.176879 89.524305 
L 64.067746 88.516903 
L 64.958622 87.919978 
L 65.84949 89.441556 
L 66.740361 89.507072 
L 67.631226 85.952416 
L 68.522078 87.216683 
L 69.412965 84.178728 
L 70.30383 88.759951 
L 71.194705 88.157827 
L 72.085571 89.1734 
L 72.976442 86.982697 
L 73.867306 88.295693 
L 74.758184 87.244613 
L 75.649039 87.761759 
L 76.539914 87.65004 
L 77.430784 88.036451 
L 79.212509 89.35019 
L 80.994245 87.990694 
L 81.885129 88.803183 
L 82.775998 88.952785 
L 83.666869 89.529356 
L 84.557735 89.60958 
L 94.53997 53.674683 
L 95.248438 87.77721 
L 96.139324 88.780155 
L 97.030192 85.777707 
L 97.921065 85.772953 
L 98.811931 88.718205 
L 99.702798 85.96965 
L 100.593666 88.639318 
L 101.484533 86.869493 
L 102.375401 88.795606 
L 103.266272 84.145153 
L 104.157138 87.164835 
L 105.048009 87.774981 
L 105.93888 87.43819 
L 106.829748 88.310995 
L 107.720614 87.724322 
L 108.611487 86.967247 
L 109.502352 88.032886 
L 110.393224 87.707831 
L 111.284094 86.096819 
L 112.17496 85.138145 
L 113.065834 87.520494 
L 113.956695 88.421971 
L 114.847564 88.238794 
L 115.738441 87.468943 
L 116.629309 87.737544 
L 117.520178 88.272814 
L 118.41104 86.728507 
L 119.301913 80.076471 
L 120.192782 88.758762 
L 121.083649 87.090405 
L 121.97452 88.314709 
L 125.537994 87.402981 
L 126.428869 88.010304 
L 128.210603 87.927109 
L 129.101474 88.022635 
L 129.992342 87.474439 
L 130.883214 88.200464 
L 132.664946 89.377674 
L 133.55582 87.698472 
L 134.446686 87.214158 
L 136.228424 87.239859 
L 137.119294 87.733532 
L 138.010159 87.328997 
L 138.901032 87.899477 
L 139.791912 84.964476 
L 140.68277 87.260658 
L 141.57364 88.087705 
L 142.464507 87.474885 
L 143.355376 85.076492 
L 144.246246 86.066958 
L 145.137113 87.353361 
L 146.027984 84.34393 
L 146.918849 86.728804 
L 173.644977 86.728804 
L 181.959197 87.376388 
L 182.553652 85.177366 
L 183.444521 51.872917 
L 184.335387 87.573382 
L 185.226256 87.82163 
L 186.117131 13.583155 
L 187.007996 13.162129 
L 187.898864 11.483075 
L 188.789731 88.057993 
L 190.571474 87.798454 
L 191.462343 84.114846 
L 192.353215 42.176538 
L 193.244077 87.314883 
L 194.134949 88.690869 
L 195.025817 88.373391 
L 195.916688 88.93466 
L 196.807557 83.522082 
L 197.698426 79.935783 
L 198.589295 88.811799 
L 199.480162 88.286185 
L 200.371032 73.423842 
L 201.261898 66.773143 
L 202.152766 9.472727 
L 203.043636 87.870804 
L 203.043636 87.870804 
" clip-path="url(#p985c24a2d9)" style="fill: none; stroke: #339af0; stroke-width: 1.2; stroke-linecap: square"/>
   </g>
   <g id="line2d_22">
    <path d="M 43.916364 98.424834 
L 44.468628 98.851506 
L 47.141245 98.80664 
L 48.032112 98.551707 
L 48.922979 98.780344 
L 56.049934 98.642627 
L 56.940797 98.821199 
L 57.831669 98.62168 
L 58.722538 98.803817 
L 60.504275 98.757763 
L 61.395144 98.626582 
L 63.176879 98.827884 
L 64.067746 98.709777 
L 66.740361 98.840512 
L 67.631226 98.691355 
L 68.522078 98.814514 
L 72.085571 98.768905 
L 72.976442 98.576962 
L 73.867306 98.499858 
L 75.649039 98.846009 
L 77.430784 98.701012 
L 80.103391 98.806937 
L 80.994245 98.501047 
L 81.885129 98.766825 
L 82.775998 98.629256 
L 83.666869 98.828479 
L 84.557735 98.831004 
L 85.44861 98.711709 
L 94.53997 97.996826 
L 95.248438 98.840958 
L 97.921065 98.577408 
L 99.702798 98.879287 
L 100.593666 98.79936 
L 101.484533 98.893698 
L 103.266272 98.748106 
L 104.157138 98.886567 
L 105.048009 98.790447 
L 106.829748 98.87483 
L 107.720614 98.786733 
L 109.502352 98.871116 
L 110.393224 98.482031 
L 111.284094 98.854774 
L 112.17496 98.621828 
L 113.065834 98.897709 
L 116.629309 98.781384 
L 117.520178 98.927273 
L 119.301913 98.793121 
L 120.192782 98.889389 
L 121.97452 98.619303 
L 126.428869 98.802332 
L 128.210603 98.7643 
L 129.101474 98.872007 
L 131.774065 98.843781 
L 132.664946 98.899343 
L 134.446686 98.762814 
L 135.337558 98.85002 
L 136.228424 98.655849 
L 137.119294 98.730873 
L 138.010159 98.58959 
L 138.901032 98.872305 
L 139.791912 98.645152 
L 142.464507 98.813028 
L 143.355376 98.78287 
L 144.246246 98.458707 
L 145.137113 98.855368 
L 146.027984 98.507435 
L 146.918849 98.69403 
L 183.444521 98.760734 
L 184.335387 98.887309 
L 185.226256 98.78599 
L 186.117131 97.241979 
L 187.007996 96.603606 
L 187.898864 96.936981 
L 188.789731 98.842146 
L 189.680603 98.538039 
L 191.462343 98.909742 
L 192.353215 96.00178 
L 193.244077 98.635347 
L 194.134949 98.899046 
L 195.025817 98.875722 
L 195.916688 98.650352 
L 196.807557 98.873345 
L 197.698426 98.697892 
L 198.589295 98.924896 
L 199.480162 98.841404 
L 200.371032 98.873345 
L 201.261898 98.483665 
L 202.152766 97.54267 
L 203.043636 98.860865 
L 203.043636 98.860865 
" clip-path="url(#p985c24a2d9)" style="fill: none; stroke: #ff6b6b; stroke-width: 1.2; stroke-linecap: square"/>
   </g>
   <g id="patch_3">
    <path d="M 35.96 103.4 
L 35.96 5 
" style="fill: none; stroke: var(--fg-color); stroke-width: 0.8; stroke-linejoin: miter; stroke-linecap: square"/>
   </g>
   <g id="patch_4">
    <path d="M 35.96 103.4 
L 211 103.4 
" style="fill: none; stroke: var(--fg-color); stroke-width: 0.8; stroke-linejoin: miter; stroke-linecap: square"/>
   </g>
  </g>
 </g>
 <defs>
  <clipPath id="p985c24a2d9">
   <rect x="35.96" y="5" width="175.04" height="98.4"/>
  </clipPath>
 </defs>
</svg>
