<?xml version="1.0" encoding="utf-8" standalone="no"?>
<!DOCTYPE svg PUBLIC "-//W3C//DTD SVG 1.1//EN"
  "http://www.w3.org/Graphics/SVG/1.1/DTD/svg11.dtd">
<svg xmlns:xlink="http://www.w3.org/1999/xlink" width="216pt" height="122.4pt" viewBox="0 0 216 122.4" xmlns="http://www.w3.org/2000/svg" version="1.1">
  <style>
    :root {
      --fg-color: #212529;
      --grid-color: rgba(33, 37, 41, 0.1);
    }
    @media (prefers-color-scheme: dark) {
      :root {
        --fg-color: #dee2e6;
        --grid-color: rgba(248, 249, 250, 0.15);
      }
    }
  </style>

 <metadata>
  <rdf:RDF xmlns:dc="http://purl.org/dc/elements/1.1/" xmlns:cc="http://creativecommons.org/ns#" xmlns:rdf="http://www.w3.org/1999/02/22-rdf-syntax-ns#">
   <cc:Work>
    <dc:type rdf:resource="http://purl.org/dc/dcmitype/StillImage"/>
    <dc:date>2026-06-30T04:48:34.268107</dc:date>
    <dc:format>image/svg+xml</dc:format>
    <dc:creator>
     <cc:Agent>
      <dc:title>Matplotlib v3.11.0, https://matplotlib.org/</dc:title>
     </cc:Agent>
    </dc:creator>
   </cc:Work>
  </rdf:RDF>
 </metadata>
 <defs>
  <style type="text/css">*{stroke-linejoin: round; stroke-linecap: butt}</style>
 </defs>
 <g id="figure_1">
  <g id="patch_1">
   <path d="M 0 122.4 
L 216 122.4 
L 216 0 
L 0 0 
L 0 122.4 
z
" style="fill: none; opacity: 0"/>
  </g>
  <g id="axes_1">
   <g id="patch_2">
    <path d="M 35.96 103.4 
L 211 103.4 
L 211 5 
L 35.96 5 
L 35.96 103.4 
z
" style="fill: none; opacity: 0"/>
   </g>
   <g id="matplotlib.axis_1">
    <g id="xtick_1">
     <g id="line2d_1">
      <path d="M 70.996911 103.4 
L 70.996911 5 
" clip-path="url(#p5867e17472)" style="fill: none; stroke-dasharray: 2.96,1.28; stroke-dashoffset: 0; stroke: var(--grid-color); stroke-width: 0.8"/>
     </g>
     <g id="line2d_2">
      <defs>
       <path id="m3ee8d6c273" d="M 0 0 
L 0 3.5 
" style="stroke: var(--fg-color); stroke-width: 0.8"/>
      </defs>
      <g>
       <use xlink:href="#m3ee8d6c273" x="70.996911" y="103.4" style="fill: var(--fg-color); stroke: var(--fg-color); stroke-width: 0.8"/>
      </g>
     </g>
     <g id="text_1">
      <text style="font-size: 7px; font-family: 'DejaVu Sans', 'Bitstream Vera Sans', 'Computer Modern Sans Serif', 'Lucida Grande', 'Verdana', 'Geneva', 'Lucid', 'Arial', 'Helvetica', 'Avant Garde', sans-serif; text-anchor: middle; fill: var(--fg-color)" x="70.996911" y="115.718359" transform="rotate(-0 70.996911 115.718359)">02/2026</text>
     </g>
    </g>
    <g id="xtick_2">
     <g id="line2d_3">
      <path d="M 126.022656 103.4 
L 126.022656 5 
" clip-path="url(#p5867e17472)" style="fill: none; stroke-dasharray: 2.96,1.28; stroke-dashoffset: 0; stroke: var(--grid-color); stroke-width: 0.8"/>
     </g>
     <g id="line2d_4">
      <g>
       <use xlink:href="#m3ee8d6c273" x="126.022656" y="103.4" style="fill: var(--fg-color); stroke: var(--fg-color); stroke-width: 0.8"/>
      </g>
     </g>
     <g id="text_2">
      <text style="font-size: 7px; font-family: 'DejaVu Sans', 'Bitstream Vera Sans', 'Computer Modern Sans Serif', 'Lucida Grande', 'Verdana', 'Geneva', 'Lucid', 'Arial', 'Helvetica', 'Avant Garde', sans-serif; text-anchor: middle; fill: var(--fg-color)" x="126.022656" y="115.718359" transform="rotate(-0 126.022656 115.718359)">04/2026</text>
     </g>
    </g>
    <g id="xtick_3">
     <g id="line2d_5">
      <path d="M 182.913681 103.4 
L 182.913681 5 
" clip-path="url(#p5867e17472)" style="fill: none; stroke-dasharray: 2.96,1.28; stroke-dashoffset: 0; stroke: var(--grid-color); stroke-width: 0.8"/>
     </g>
     <g id="line2d_6">
      <g>
       <use xlink:href="#m3ee8d6c273" x="182.913681" y="103.4" style="fill: var(--fg-color); stroke: var(--fg-color); stroke-width: 0.8"/>
      </g>
     </g>
     <g id="text_3">
      <text style="font-size: 7px; font-family: 'DejaVu Sans', 'Bitstream Vera Sans', 'Computer Modern Sans Serif', 'Lucida Grande', 'Verdana', 'Geneva', 'Lucid', 'Arial', 'Helvetica', 'Avant Garde', sans-serif; text-anchor: middle; fill: var(--fg-color)" x="182.913681" y="115.718359" transform="rotate(-0 182.913681 115.718359)">06/2026</text>
     </g>
    </g>
   </g>
   <g id="matplotlib.axis_2">
    <g id="ytick_1">
     <g id="line2d_7">
      <path d="M 35.96 99.973806 
L 211 99.973806 
" clip-path="url(#p5867e17472)" style="fill: none; stroke-dasharray: 2.96,1.28; stroke-dashoffset: 0; stroke: var(--grid-color); stroke-width: 0.8"/>
     </g>
     <g id="line2d_8">
      <defs>
       <path id="m82e556bf8d" d="M 0 0 
L -3.5 0 
" style="stroke: var(--fg-color); stroke-width: 0.8"/>
      </defs>
      <g>
       <use xlink:href="#m82e556bf8d" x="35.96" y="99.973806" style="fill: var(--fg-color); stroke: var(--fg-color); stroke-width: 0.8"/>
      </g>
     </g>
     <g id="text_4">
      <text style="font-size: 7px; font-family: 'DejaVu Sans', 'Bitstream Vera Sans', 'Computer Modern Sans Serif', 'Lucida Grande', 'Verdana', 'Geneva', 'Lucid', 'Arial', 'Helvetica', 'Avant Garde', sans-serif; text-anchor: end; fill: var(--fg-color)" x="28.96" y="102.632986" transform="rotate(-0 28.96 102.632986)">0</text>
     </g>
    </g>
    <g id="ytick_2">
     <g id="line2d_9">
      <path d="M 35.96 72.762843 
L 211 72.762843 
" clip-path="url(#p5867e17472)" style="fill: none; stroke-dasharray: 2.96,1.28; stroke-dashoffset: 0; stroke: var(--grid-color); stroke-width: 0.8"/>
     </g>
     <g id="line2d_10">
      <g>
       <use xlink:href="#m82e556bf8d" x="35.96" y="72.762843" style="fill: var(--fg-color); stroke: var(--fg-color); stroke-width: 0.8"/>
      </g>
     </g>
     <g id="text_5">
      <text style="font-size: 7px; font-family: 'DejaVu Sans', 'Bitstream Vera Sans', 'Computer Modern Sans Serif', 'Lucida Grande', 'Verdana', 'Geneva', 'Lucid', 'Arial', 'Helvetica', 'Avant Garde', sans-serif; text-anchor: end; fill: var(--fg-color)" x="28.96" y="75.422023" transform="rotate(-0 28.96 75.422023)">200</text>
     </g>
    </g>
    <g id="ytick_3">
     <g id="line2d_11">
      <path d="M 35.96 45.55188 
L 211 45.55188 
" clip-path="url(#p5867e17472)" style="fill: none; stroke-dasharray: 2.96,1.28; stroke-dashoffset: 0; stroke: var(--grid-color); stroke-width: 0.8"/>
     </g>
     <g id="line2d_12">
      <g>
       <use xlink:href="#m82e556bf8d" x="35.96" y="45.55188" style="fill: var(--fg-color); stroke: var(--fg-color); stroke-width: 0.8"/>
      </g>
     </g>
     <g id="text_6">
      <text style="font-size: 7px; font-family: 'DejaVu Sans', 'Bitstream Vera Sans', 'Computer Modern Sans Serif', 'Lucida Grande', 'Verdana', 'Geneva', 'Lucid', 'Arial', 'Helvetica', 'Avant Garde', sans-serif; text-anchor: end; fill: var(--fg-color)" x="28.96" y="48.211059" transform="rotate(-0 28.96 48.211059)">400</text>
     </g>
    </g>
    <g id="ytick_4">
     <g id="line2d_13">
      <path d="M 35.96 18.340916 
L 211 18.340916 
" clip-path="url(#p5867e17472)" style="fill: none; stroke-dasharray: 2.96,1.28; stroke-dashoffset: 0; stroke: var(--grid-color); stroke-width: 0.8"/>
     </g>
     <g id="line2d_14">
      <g>
       <use xlink:href="#m82e556bf8d" x="35.96" y="18.340916" style="fill: var(--fg-color); stroke: var(--fg-color); stroke-width: 0.8"/>
      </g>
     </g>
     <g id="text_7">
      <text style="font-size: 7px; font-family: 'DejaVu Sans', 'Bitstream Vera Sans', 'Computer Modern Sans Serif', 'Lucida Grande', 'Verdana', 'Geneva', 'Lucid', 'Arial', 'Helvetica', 'Avant Garde', sans-serif; text-anchor: end; fill: var(--fg-color)" x="28.96" y="21.000096" transform="rotate(-0 28.96 21.000096)">600</text>
     </g>
    </g>
    <g id="text_8">
     <text style="font-size: 7px; font-family: 'DejaVu Sans', 'Bitstream Vera Sans', 'Computer Modern Sans Serif', 'Lucida Grande', 'Verdana', 'Geneva', 'Lucid', 'Arial', 'Helvetica', 'Avant Garde', sans-serif; text-anchor: middle; fill: var(--fg-color)" x="9.917109" y="54.2" transform="rotate(-90 9.917109 54.2)">ms</text>
    </g>
   </g>
   <g id="line2d_15">
    <path d="M 43.916364 84.003964 
L 44.494523 87.086422 
L 45.427166 87.010912 
L 46.359808 86.441522 
L 47.292453 82.824097 
L 48.22509 88.302208 
L 49.157727 86.54125 
L 50.090359 87.107238 
L 51.023007 86.861251 
L 51.95565 85.0173 
L 52.88829 87.252001 
L 53.82093 83.883692 
L 54.753566 85.676486 
L 55.686208 85.386961 
L 56.618849 87.841254 
L 57.551483 86.96615 
L 58.484126 88.653093 
L 59.416765 84.756075 
L 60.349406 86.442747 
L 61.282045 87.43962 
L 62.214684 86.112542 
L 63.147327 85.995534 
L 64.07996 88.141255 
L 65.012598 86.695945 
L 65.945245 86.072405 
L 66.877884 86.805605 
L 67.810526 86.328461 
L 68.743162 87.668192 
L 69.675784 85.099614 
L 70.608443 83.883556 
L 71.541078 85.610091 
L 72.473724 84.91798 
L 73.406361 85.491724 
L 74.339003 87.703975 
L 75.271637 86.046283 
L 76.204286 87.523838 
L 77.136912 86.710911 
L 78.069558 77.502857 
L 79.002199 86.878802 
L 79.934841 84.965055 
L 80.867465 79.389393 
L 81.800118 84.120291 
L 82.732742 82.693076 
L 83.665398 87.637716 
L 84.598038 87.953227 
L 85.53068 86.216896 
L 86.463316 86.058392 
L 87.395962 85.515941 
L 96.913595 85.735262 
L 97.655282 88.46248 
L 98.587939 87.202341 
L 99.520578 85.866282 
L 100.453222 87.218803 
L 101.385859 84.459476 
L 102.318497 87.450369 
L 103.251135 84.71798 
L 104.183773 85.543969 
L 105.116412 86.678938 
L 106.049054 85.298254 
L 106.981691 82.811716 
L 107.914333 87.068735 
L 108.846974 84.101651 
L 109.779613 87.809145 
L 110.71225 87.972003 
L 111.644893 87.729825 
L 112.57753 84.504646 
L 113.510173 84.488863 
L 114.442814 84.768728 
L 115.37545 85.949956 
L 116.308095 86.089548 
L 117.240726 85.612132 
L 118.173367 85.356757 
L 119.106014 86.373903 
L 120.038653 87.509825 
L 120.971293 86.039072 
L 121.903926 84.397979 
L 122.836569 77.718368 
L 123.769209 86.811727 
L 124.701847 84.250359 
L 125.634489 85.456485 
L 129.365046 83.971311 
L 130.297692 87.298123 
L 131.230328 87.24928 
L 132.162968 87.463158 
L 133.095609 84.163148 
L 134.028248 82.222734 
L 134.960891 87.364654 
L 135.893512 86.220297 
L 136.826165 86.987782 
L 137.75881 84.123284 
L 138.691446 87.340436 
L 139.624089 85.196212 
L 140.556726 84.426822 
L 141.489366 85.711996 
L 142.422003 86.091725 
L 143.354646 86.209549 
L 144.287298 85.825058 
L 145.219926 84.25308 
L 146.152567 84.38655 
L 147.085204 84.05893 
L 148.017844 84.105189 
L 148.950485 86.054038 
L 149.883123 84.231584 
L 150.815765 86.971592 
L 151.7484 86.367236 
L 179.727656 86.367236 
L 188.43171 28.976729 
L 189.054038 86.383835 
L 189.986678 26.081347 
L 190.919315 55.439119 
L 191.851955 86.333495 
L 192.7846 20.273439 
L 193.717237 83.921243 
L 194.649875 86.053766 
L 195.582513 85.531315 
L 196.515156 10.419805 
L 197.447798 84.499068 
L 198.380437 85.004647 
L 199.313081 85.612948 
L 200.245713 9.472727 
L 201.178356 20.442827 
L 202.110995 27.336317 
L 203.043636 84.024236 
" clip-path="url(#p5867e17472)" style="fill: none; stroke: #339af0; stroke-width: 1.2; stroke-linecap: square"/>
   </g>
   <g id="line2d_16">
    <path d="M 43.916364 98.665367 
L 44.494523 98.80251 
L 45.427166 98.43353 
L 46.359808 98.630945 
L 47.292453 98.392305 
L 48.22509 98.859517 
L 49.157727 98.646592 
L 50.090359 98.639245 
L 51.023007 98.734211 
L 51.95565 98.469448 
L 52.88829 98.596932 
L 53.82093 98.466863 
L 54.753566 98.569585 
L 55.686208 98.611762 
L 56.618849 98.497203 
L 57.551483 98.531489 
L 58.484126 98.927273 
L 59.416765 98.510945 
L 60.349406 98.742646 
L 61.282045 98.505639 
L 62.214684 98.851354 
L 63.147327 98.783871 
L 64.07996 98.85598 
L 65.012598 98.644959 
L 65.945245 98.431353 
L 66.877884 98.547816 
L 67.810526 98.701422 
L 68.743162 98.878429 
L 69.675784 98.555571 
L 70.608443 97.932304 
L 71.541078 98.537748 
L 72.473724 98.536659 
L 73.406361 98.475299 
L 74.339003 98.671218 
L 75.271637 98.690673 
L 76.204286 98.790402 
L 77.136912 98.71734 
L 78.069558 98.702918 
L 79.002199 98.777476 
L 79.934841 98.224277 
L 80.867465 98.339652 
L 81.800118 98.144685 
L 82.732742 98.743191 
L 83.665398 98.807408 
L 84.598038 98.824279 
L 85.53068 98.611081 
L 86.463316 98.655299 
L 87.395962 98.774211 
L 96.913595 98.264822 
L 97.655282 98.904416 
L 98.587939 98.636524 
L 99.520578 98.891762 
L 100.453222 98.614891 
L 101.385859 98.093121 
L 102.318497 98.719789 
L 103.251135 98.520197 
L 104.183773 98.558836 
L 105.116412 98.070672 
L 106.049054 98.371081 
L 106.981691 98.605231 
L 107.914333 98.569176 
L 108.846974 98.338427 
L 109.779613 98.764007 
L 110.71225 98.834755 
L 111.644893 98.540197 
L 112.57753 98.548224 
L 113.510173 98.471489 
L 114.442814 98.386591 
L 115.37545 98.504823 
L 116.308095 98.638564 
L 117.240726 98.613666 
L 118.173367 98.390128 
L 119.106014 98.624415 
L 120.038653 98.79598 
L 120.971293 98.409992 
L 121.903926 98.550401 
L 122.836569 97.215567 
L 123.769209 98.696116 
L 124.701847 98.365911 
L 125.634489 98.302373 
L 129.365046 98.432169 
L 130.297692 98.71285 
L 131.230328 98.706048 
L 132.162968 98.778837 
L 133.095609 98.539516 
L 134.028248 98.249176 
L 134.960891 98.433666 
L 135.893512 98.500469 
L 136.826165 98.749177 
L 137.75881 97.410398 
L 138.691446 98.31557 
L 139.624089 98.506319 
L 140.556726 98.460741 
L 141.489366 98.449312 
L 142.422003 98.657884 
L 143.354646 98.577884 
L 144.287298 98.605775 
L 145.219926 98.462646 
L 146.152567 98.432986 
L 147.085204 98.488224 
L 148.017844 98.581149 
L 148.950485 98.202509 
L 149.883123 98.092168 
L 150.815765 98.382101 
L 151.7484 98.694755 
L 179.727656 98.694755 
L 188.43171 94.22862 
L 189.054038 98.727816 
L 189.986678 97.206179 
L 190.919315 98.022236 
L 191.851955 98.208767 
L 192.7846 94.871343 
L 193.717237 98.332577 
L 194.649875 98.432441 
L 195.582513 98.644007 
L 196.515156 96.181006 
L 197.447798 98.245502 
L 198.380437 98.395979 
L 199.313081 98.509312 
L 200.245713 91.700993 
L 201.178356 94.748621 
L 202.110995 94.083721 
L 203.043636 98.759789 
" clip-path="url(#p5867e17472)" style="fill: none; stroke: #ff6b6b; stroke-width: 1.2; stroke-linecap: square"/>
   </g>
   <g id="patch_3">
    <path d="M 35.96 103.4 
L 35.96 5 
" style="fill: none; stroke: var(--fg-color); stroke-width: 0.8; stroke-linejoin: miter; stroke-linecap: square"/>
   </g>
   <g id="patch_4">
    <path d="M 35.96 103.4 
L 211 103.4 
" style="fill: none; stroke: var(--fg-color); stroke-width: 0.8; stroke-linejoin: miter; stroke-linecap: square"/>
   </g>
  </g>
 </g>
 <defs>
  <clipPath id="p5867e17472">
   <rect x="35.96" y="5" width="175.04" height="98.4"/>
  </clipPath>
 </defs>
</svg>
