<?xml version="1.0" encoding="utf-8" standalone="no"?>
<!DOCTYPE svg PUBLIC "-//W3C//DTD SVG 1.1//EN"
  "http://www.w3.org/Graphics/SVG/1.1/DTD/svg11.dtd">
<svg xmlns:xlink="http://www.w3.org/1999/xlink" width="216pt" height="122.4pt" viewBox="0 0 216 122.4" xmlns="http://www.w3.org/2000/svg" version="1.1">
  <style>
    :root {
      --fg-color: #212529;
      --grid-color: rgba(33, 37, 41, 0.1);
    }
    @media (prefers-color-scheme: dark) {
      :root {
        --fg-color: #dee2e6;
        --grid-color: rgba(248, 249, 250, 0.15);
      }
    }
  </style>

 <metadata>
  <rdf:RDF xmlns:dc="http://purl.org/dc/elements/1.1/" xmlns:cc="http://creativecommons.org/ns#" xmlns:rdf="http://www.w3.org/1999/02/22-rdf-syntax-ns#">
   <cc:Work>
    <dc:type rdf:resource="http://purl.org/dc/dcmitype/StillImage"/>
    <dc:date>2026-06-30T04:48:25.648074</dc:date>
    <dc:format>image/svg+xml</dc:format>
    <dc:creator>
     <cc:Agent>
      <dc:title>Matplotlib v3.11.0, https://matplotlib.org/</dc:title>
     </cc:Agent>
    </dc:creator>
   </cc:Work>
  </rdf:RDF>
 </metadata>
 <defs>
  <style type="text/css">*{stroke-linejoin: round; stroke-linecap: butt}</style>
 </defs>
 <g id="figure_1">
  <g id="patch_1">
   <path d="M 0 122.4 
L 216 122.4 
L 216 0 
L 0 0 
L 0 122.4 
z
" style="fill: none; opacity: 0"/>
  </g>
  <g id="axes_1">
   <g id="patch_2">
    <path d="M 31.64 103.4 
L 211 103.4 
L 211 5 
L 31.64 5 
L 31.64 103.4 
z
" style="fill: none; opacity: 0"/>
   </g>
   <g id="matplotlib.axis_1">
    <g id="xtick_1">
     <g id="line2d_1">
      <path d="M 67.541625 103.4 
L 67.541625 5 
" clip-path="url(#pd071e2137a)" style="fill: none; stroke-dasharray: 2.96,1.28; stroke-dashoffset: 0; stroke: var(--grid-color); stroke-width: 0.8"/>
     </g>
     <g id="line2d_2">
      <defs>
       <path id="m36a762742b" d="M 0 0 
L 0 3.5 
" style="stroke: var(--fg-color); stroke-width: 0.8"/>
      </defs>
      <g>
       <use xlink:href="#m36a762742b" x="67.541625" y="103.4" style="fill: var(--fg-color); stroke: var(--fg-color); stroke-width: 0.8"/>
      </g>
     </g>
     <g id="text_1">
      <text style="font-size: 7px; font-family: 'DejaVu Sans', 'Bitstream Vera Sans', 'Computer Modern Sans Serif', 'Lucida Grande', 'Verdana', 'Geneva', 'Lucid', 'Arial', 'Helvetica', 'Avant Garde', sans-serif; text-anchor: middle; fill: var(--fg-color)" x="67.541625" y="115.718359" transform="rotate(-0 67.541625 115.718359)">02/2026</text>
     </g>
    </g>
    <g id="xtick_2">
     <g id="line2d_3">
      <path d="M 123.925409 103.4 
L 123.925409 5 
" clip-path="url(#pd071e2137a)" style="fill: none; stroke-dasharray: 2.96,1.28; stroke-dashoffset: 0; stroke: var(--grid-color); stroke-width: 0.8"/>
     </g>
     <g id="line2d_4">
      <g>
       <use xlink:href="#m36a762742b" x="123.925409" y="103.4" style="fill: var(--fg-color); stroke: var(--fg-color); stroke-width: 0.8"/>
      </g>
     </g>
     <g id="text_2">
      <text style="font-size: 7px; font-family: 'DejaVu Sans', 'Bitstream Vera Sans', 'Computer Modern Sans Serif', 'Lucida Grande', 'Verdana', 'Geneva', 'Lucid', 'Arial', 'Helvetica', 'Avant Garde', sans-serif; text-anchor: middle; fill: var(--fg-color)" x="123.925409" y="115.718359" transform="rotate(-0 123.925409 115.718359)">04/2026</text>
     </g>
    </g>
    <g id="xtick_3">
     <g id="line2d_5">
      <path d="M 182.220509 103.4 
L 182.220509 5 
" clip-path="url(#pd071e2137a)" style="fill: none; stroke-dasharray: 2.96,1.28; stroke-dashoffset: 0; stroke: var(--grid-color); stroke-width: 0.8"/>
     </g>
     <g id="line2d_6">
      <g>
       <use xlink:href="#m36a762742b" x="182.220509" y="103.4" style="fill: var(--fg-color); stroke: var(--fg-color); stroke-width: 0.8"/>
      </g>
     </g>
     <g id="text_3">
      <text style="font-size: 7px; font-family: 'DejaVu Sans', 'Bitstream Vera Sans', 'Computer Modern Sans Serif', 'Lucida Grande', 'Verdana', 'Geneva', 'Lucid', 'Arial', 'Helvetica', 'Avant Garde', sans-serif; text-anchor: middle; fill: var(--fg-color)" x="182.220509" y="115.718359" transform="rotate(-0 182.220509 115.718359)">06/2026</text>
     </g>
    </g>
   </g>
   <g id="matplotlib.axis_2">
    <g id="ytick_1">
     <g id="line2d_7">
      <path d="M 31.64 101.164374 
L 211 101.164374 
" clip-path="url(#pd071e2137a)" style="fill: none; stroke-dasharray: 2.96,1.28; stroke-dashoffset: 0; stroke: var(--grid-color); stroke-width: 0.8"/>
     </g>
     <g id="line2d_8">
      <defs>
       <path id="mc5d40ef235" d="M 0 0 
L -3.5 0 
" style="stroke: var(--fg-color); stroke-width: 0.8"/>
      </defs>
      <g>
       <use xlink:href="#mc5d40ef235" x="31.64" y="101.164374" style="fill: var(--fg-color); stroke: var(--fg-color); stroke-width: 0.8"/>
      </g>
     </g>
     <g id="text_4">
      <text style="font-size: 7px; font-family: 'DejaVu Sans', 'Bitstream Vera Sans', 'Computer Modern Sans Serif', 'Lucida Grande', 'Verdana', 'Geneva', 'Lucid', 'Arial', 'Helvetica', 'Avant Garde', sans-serif; text-anchor: end; fill: var(--fg-color)" x="24.64" y="103.823554" transform="rotate(-0 24.64 103.823554)">0</text>
     </g>
    </g>
    <g id="ytick_2">
     <g id="line2d_9">
      <path d="M 31.64 80.808582 
L 211 80.808582 
" clip-path="url(#pd071e2137a)" style="fill: none; stroke-dasharray: 2.96,1.28; stroke-dashoffset: 0; stroke: var(--grid-color); stroke-width: 0.8"/>
     </g>
     <g id="line2d_10">
      <g>
       <use xlink:href="#mc5d40ef235" x="31.64" y="80.808582" style="fill: var(--fg-color); stroke: var(--fg-color); stroke-width: 0.8"/>
      </g>
     </g>
     <g id="text_5">
      <text style="font-size: 7px; font-family: 'DejaVu Sans', 'Bitstream Vera Sans', 'Computer Modern Sans Serif', 'Lucida Grande', 'Verdana', 'Geneva', 'Lucid', 'Arial', 'Helvetica', 'Avant Garde', sans-serif; text-anchor: end; fill: var(--fg-color)" x="24.64" y="83.467762" transform="rotate(-0 24.64 83.467762)">20</text>
     </g>
    </g>
    <g id="ytick_3">
     <g id="line2d_11">
      <path d="M 31.64 60.45279 
L 211 60.45279 
" clip-path="url(#pd071e2137a)" style="fill: none; stroke-dasharray: 2.96,1.28; stroke-dashoffset: 0; stroke: var(--grid-color); stroke-width: 0.8"/>
     </g>
     <g id="line2d_12">
      <g>
       <use xlink:href="#mc5d40ef235" x="31.64" y="60.45279" style="fill: var(--fg-color); stroke: var(--fg-color); stroke-width: 0.8"/>
      </g>
     </g>
     <g id="text_6">
      <text style="font-size: 7px; font-family: 'DejaVu Sans', 'Bitstream Vera Sans', 'Computer Modern Sans Serif', 'Lucida Grande', 'Verdana', 'Geneva', 'Lucid', 'Arial', 'Helvetica', 'Avant Garde', sans-serif; text-anchor: end; fill: var(--fg-color)" x="24.64" y="63.11197" transform="rotate(-0 24.64 63.11197)">40</text>
     </g>
    </g>
    <g id="ytick_4">
     <g id="line2d_13">
      <path d="M 31.64 40.096998 
L 211 40.096998 
" clip-path="url(#pd071e2137a)" style="fill: none; stroke-dasharray: 2.96,1.28; stroke-dashoffset: 0; stroke: var(--grid-color); stroke-width: 0.8"/>
     </g>
     <g id="line2d_14">
      <g>
       <use xlink:href="#mc5d40ef235" x="31.64" y="40.096998" style="fill: var(--fg-color); stroke: var(--fg-color); stroke-width: 0.8"/>
      </g>
     </g>
     <g id="text_7">
      <text style="font-size: 7px; font-family: 'DejaVu Sans', 'Bitstream Vera Sans', 'Computer Modern Sans Serif', 'Lucida Grande', 'Verdana', 'Geneva', 'Lucid', 'Arial', 'Helvetica', 'Avant Garde', sans-serif; text-anchor: end; fill: var(--fg-color)" x="24.64" y="42.756178" transform="rotate(-0 24.64 42.756178)">60</text>
     </g>
    </g>
    <g id="ytick_5">
     <g id="line2d_15">
      <path d="M 31.64 19.741207 
L 211 19.741207 
" clip-path="url(#pd071e2137a)" style="fill: none; stroke-dasharray: 2.96,1.28; stroke-dashoffset: 0; stroke: var(--grid-color); stroke-width: 0.8"/>
     </g>
     <g id="line2d_16">
      <g>
       <use xlink:href="#mc5d40ef235" x="31.64" y="19.741207" style="fill: var(--fg-color); stroke: var(--fg-color); stroke-width: 0.8"/>
      </g>
     </g>
     <g id="text_8">
      <text style="font-size: 7px; font-family: 'DejaVu Sans', 'Bitstream Vera Sans', 'Computer Modern Sans Serif', 'Lucida Grande', 'Verdana', 'Geneva', 'Lucid', 'Arial', 'Helvetica', 'Avant Garde', sans-serif; text-anchor: end; fill: var(--fg-color)" x="24.64" y="22.400386" transform="rotate(-0 24.64 22.400386)">80</text>
     </g>
    </g>
    <g id="text_9">
     <text style="font-size: 7px; font-family: 'DejaVu Sans', 'Bitstream Vera Sans', 'Computer Modern Sans Serif', 'Lucida Grande', 'Verdana', 'Geneva', 'Lucid', 'Arial', 'Helvetica', 'Avant Garde', sans-serif; text-anchor: middle; fill: var(--fg-color)" x="10.050859" y="54.2" transform="rotate(-90 10.050859 54.2)">ms</text>
    </g>
   </g>
   <g id="line2d_17">
    <path d="M 39.792727 47.174707 
L 40.385155 47.280557 
L 41.340816 45.293832 
L 42.296476 44.853129 
L 43.252138 45.829189 
L 44.207793 49.632669 
L 45.163448 52.578152 
L 46.119097 44.463316 
L 47.074763 46.665813 
L 48.030424 52.709447 
L 48.986082 47.257148 
L 49.941739 51.588861 
L 50.897393 42.747323 
L 51.853052 49.943095 
L 52.808711 48.673911 
L 53.764362 51.76901 
L 54.720023 47.916676 
L 55.67568 52.42243 
L 56.631338 47.479026 
L 57.586995 51.675373 
L 58.542651 44.227189 
L 59.498312 51.410748 
L 60.453963 51.777152 
L 61.409619 49.745644 
L 62.365283 49.504428 
L 63.32094 41.494424 
L 64.276599 37.538275 
L 65.232253 49.093241 
L 66.187892 43.961546 
L 67.143569 39.959597 
L 68.099222 51.223474 
L 69.054886 50.938493 
L 70.01054 49.939024 
L 70.966199 53.280427 
L 71.921851 52.863133 
L 72.877518 44.176299 
L 73.833161 36.133726 
L 74.788825 46.609834 
L 75.744484 45.903488 
L 76.700143 43.70608 
L 77.655784 48.14059 
L 78.611456 47.379283 
L 79.567097 48.661698 
L 80.52277 50.731882 
L 81.478428 50.376673 
L 82.434088 46.151829 
L 83.389742 48.853042 
L 84.345406 37.45787 
L 94.097934 43.707098 
L 94.857926 47.929907 
L 95.813602 49.789409 
L 96.769258 46.291266 
L 97.72492 47.146209 
L 98.680574 49.934953 
L 99.636229 43.062837 
L 100.591885 44.097929 
L 101.547541 47.564521 
L 102.503197 42.371758 
L 103.458857 44.127445 
L 104.414511 45.290779 
L 105.370171 37.506724 
L 106.32583 41.457783 
L 107.281487 44.542703 
L 108.237141 41.933091 
L 109.192802 36.573411 
L 110.148456 45.581867 
L 111.104116 41.793654 
L 112.059775 47.736527 
L 113.015429 43.573768 
L 113.971092 42.563103 
L 114.92674 48.470353 
L 115.882398 43.985973 
L 116.838064 41.964642 
L 117.79372 43.907603 
L 118.749378 50.112048 
L 119.705028 42.816532 
L 120.660689 25.320729 
L 121.616347 43.999204 
L 122.572003 43.770201 
L 123.527662 42.88676 
L 127.350289 47.510578 
L 128.305953 45.651076 
L 129.261607 39.237984 
L 130.217264 42.831799 
L 131.172923 35.35817 
L 132.12858 13.31183 
L 133.084241 34.422821 
L 134.039879 38.156074 
L 134.995549 45.489248 
L 135.951212 40.160101 
L 136.906866 41.525975 
L 137.862526 43.239933 
L 138.818181 41.118859 
L 139.773839 44.474512 
L 140.729493 41.361093 
L 141.685154 23.688195 
L 142.640823 39.822195 
L 143.596469 40.684263 
L 144.552128 43.187008 
L 145.507782 35.54239 
L 146.46344 36.068587 
L 147.419098 42.820603 
L 148.374754 43.779361 
L 149.330413 39.998273 
L 150.286066 39.780466 
L 178.955853 39.780466 
L 187.874723 42.088813 
L 188.51241 47.462742 
L 189.468067 9.472727 
L 190.423722 42.164129 
L 191.37938 17.521407 
L 192.335043 28.001587 
L 193.290697 35.212626 
L 194.246353 45.757944 
L 195.202008 49.60926 
L 196.157669 44.485707 
L 197.113328 15.297537 
L 198.068986 46.751307 
L 199.024647 47.236792 
L 199.980297 44.815471 
L 200.935957 14.183058 
L 201.891613 34.896094 
L 202.847273 41.745818 
" clip-path="url(#pd071e2137a)" style="fill: none; stroke: #339af0; stroke-width: 1.2; stroke-linecap: square"/>
   </g>
   <g id="line2d_18">
    <path d="M 39.792727 98.664683 
L 40.385155 98.721679 
L 41.340816 98.69827 
L 42.296476 98.671808 
L 43.252138 98.642292 
L 44.207793 98.674861 
L 45.163448 98.690128 
L 46.119097 98.690128 
L 47.074763 98.71659 
L 48.030424 98.733893 
L 48.986082 98.613794 
L 49.941739 98.671808 
L 50.897393 98.722697 
L 51.853052 98.748142 
L 52.808711 98.548655 
L 53.764362 98.877401 
L 54.720023 98.795978 
L 55.67568 98.892668 
L 56.631338 98.777658 
L 57.586995 98.795978 
L 58.542651 98.699288 
L 59.498312 98.656541 
L 60.453963 98.773586 
L 61.409619 98.798013 
L 62.365283 98.634149 
L 63.32094 98.672825 
L 64.276599 98.699288 
L 65.232253 98.881472 
L 66.187892 98.635167 
L 67.143569 98.704377 
L 68.099222 98.751195 
L 69.054886 98.927273 
L 70.01054 98.683003 
L 70.966199 98.645345 
L 71.921851 98.756284 
L 72.877518 98.772569 
L 73.833161 98.744071 
L 74.788825 98.801067 
L 75.744484 98.578171 
L 76.700143 98.433645 
L 77.655784 98.762391 
L 78.611456 98.858063 
L 79.567097 98.730839 
L 80.52277 98.800049 
L 81.478428 98.836689 
L 82.434088 98.690128 
L 83.389742 98.858063 
L 84.345406 98.798013 
L 94.097934 98.806156 
L 94.857926 98.737964 
L 95.813602 98.702341 
L 96.769258 98.790889 
L 97.72492 98.757302 
L 98.680574 98.732875 
L 99.636229 98.801067 
L 100.591885 98.838725 
L 101.547541 98.829565 
L 102.503197 98.563922 
L 103.458857 98.720661 
L 104.414511 98.696234 
L 105.370171 98.774604 
L 106.32583 98.705395 
L 107.281487 98.769515 
L 108.237141 98.881472 
L 109.192802 98.65247 
L 110.148456 98.843814 
L 111.104116 98.770533 
L 112.059775 98.744071 
L 113.015429 98.687074 
L 113.971092 98.831601 
L 114.92674 98.858063 
L 115.882398 98.821423 
L 116.838064 98.63822 
L 117.79372 98.309474 
L 118.749378 98.759337 
L 119.705028 98.637203 
L 120.660689 98.433645 
L 121.616347 98.626007 
L 122.572003 98.631096 
L 123.527662 98.60158 
L 127.350289 98.614811 
L 128.305953 98.58326 
L 129.261607 98.566975 
L 130.217264 98.575118 
L 131.172923 98.533388 
L 132.12858 98.632114 
L 133.084241 98.496748 
L 134.039879 98.366471 
L 134.995549 98.685039 
L 135.951212 98.424485 
L 136.906866 98.701323 
L 137.862526 98.447894 
L 138.818181 98.33899 
L 139.773839 98.687074 
L 140.729493 98.2423 
L 141.685154 98.424485 
L 142.640823 98.432627 
L 143.596469 98.60158 
L 144.552128 98.664683 
L 145.507782 98.393951 
L 146.46344 98.497766 
L 147.419098 98.673843 
L 148.374754 98.283012 
L 149.330413 98.12729 
L 150.286066 98.463161 
L 178.955853 98.463161 
L 187.874723 98.465196 
L 188.51241 98.586313 
L 189.468067 98.585295 
L 190.423722 97.585826 
L 191.37938 98.454001 
L 192.335043 98.563922 
L 193.290697 98.788853 
L 194.246353 98.518121 
L 195.202008 98.672825 
L 196.157669 98.6199 
L 197.113328 98.673843 
L 198.068986 98.569011 
L 199.024647 98.452983 
L 199.980297 98.729822 
L 200.935957 98.717608 
L 201.891613 98.743053 
L 202.847273 98.570029 
" clip-path="url(#pd071e2137a)" style="fill: none; stroke: #ff6b6b; stroke-width: 1.2; stroke-linecap: square"/>
   </g>
   <g id="patch_3">
    <path d="M 31.64 103.4 
L 31.64 5 
" style="fill: none; stroke: var(--fg-color); stroke-width: 0.8; stroke-linejoin: miter; stroke-linecap: square"/>
   </g>
   <g id="patch_4">
    <path d="M 31.64 103.4 
L 211 103.4 
" style="fill: none; stroke: var(--fg-color); stroke-width: 0.8; stroke-linejoin: miter; stroke-linecap: square"/>
   </g>
  </g>
 </g>
 <defs>
  <clipPath id="pd071e2137a">
   <rect x="31.64" y="5" width="179.36" height="98.4"/>
  </clipPath>
 </defs>
</svg>
