<?xml version="1.0" encoding="utf-8" standalone="no"?>
<!DOCTYPE svg PUBLIC "-//W3C//DTD SVG 1.1//EN"
  "http://www.w3.org/Graphics/SVG/1.1/DTD/svg11.dtd">
<svg xmlns:xlink="http://www.w3.org/1999/xlink" width="216pt" height="122.4pt" viewBox="0 0 216 122.4" xmlns="http://www.w3.org/2000/svg" version="1.1">
  <style>
    :root {
      --fg-color: #212529;
      --grid-color: rgba(33, 37, 41, 0.1);
    }
    @media (prefers-color-scheme: dark) {
      :root {
        --fg-color: #dee2e6;
        --grid-color: rgba(248, 249, 250, 0.15);
      }
    }
  </style>

 <metadata>
  <rdf:RDF xmlns:dc="http://purl.org/dc/elements/1.1/" xmlns:cc="http://creativecommons.org/ns#" xmlns:rdf="http://www.w3.org/1999/02/22-rdf-syntax-ns#">
   <cc:Work>
    <dc:type rdf:resource="http://purl.org/dc/dcmitype/StillImage"/>
    <dc:date>2026-06-30T15:37:08.085906</dc:date>
    <dc:format>image/svg+xml</dc:format>
    <dc:creator>
     <cc:Agent>
      <dc:title>Matplotlib v3.11.0, https://matplotlib.org/</dc:title>
     </cc:Agent>
    </dc:creator>
   </cc:Work>
  </rdf:RDF>
 </metadata>
 <defs>
  <style type="text/css">*{stroke-linejoin: round; stroke-linecap: butt}</style>
 </defs>
 <g id="figure_1">
  <g id="patch_1">
   <path d="M 0 122.4 
L 216 122.4 
L 216 0 
L 0 0 
L 0 122.4 
z
" style="fill: none; opacity: 0"/>
  </g>
  <g id="axes_1">
   <g id="patch_2">
    <path d="M 35.96 103.4 
L 211 103.4 
L 211 5 
L 35.96 5 
L 35.96 103.4 
z
" style="fill: none; opacity: 0"/>
   </g>
   <g id="matplotlib.axis_1">
    <g id="xtick_1">
     <g id="line2d_1">
      <path d="M 69.784035 103.4 
L 69.784035 5 
" clip-path="url(#p6118ddc86f)" style="fill: none; stroke-dasharray: 2.96,1.28; stroke-dashoffset: 0; stroke: var(--grid-color); stroke-width: 0.8"/>
     </g>
     <g id="line2d_2">
      <defs>
       <path id="mf0ddeb7076" d="M 0 0 
L 0 3.5 
" style="stroke: var(--fg-color); stroke-width: 0.8"/>
      </defs>
      <g>
       <use xlink:href="#mf0ddeb7076" x="69.784035" y="103.4" style="fill: var(--fg-color); stroke: var(--fg-color); stroke-width: 0.8"/>
      </g>
     </g>
     <g id="text_1">
      <text style="font-size: 7px; font-family: 'DejaVu Sans', 'Bitstream Vera Sans', 'Computer Modern Sans Serif', 'Lucida Grande', 'Verdana', 'Geneva', 'Lucid', 'Arial', 'Helvetica', 'Avant Garde', sans-serif; text-anchor: middle; fill: var(--fg-color)" x="69.784035" y="115.718359" transform="rotate(-0 69.784035 115.718359)">02/2026</text>
     </g>
    </g>
    <g id="xtick_2">
     <g id="line2d_3">
      <path d="M 122.345302 103.4 
L 122.345302 5 
" clip-path="url(#p6118ddc86f)" style="fill: none; stroke-dasharray: 2.96,1.28; stroke-dashoffset: 0; stroke: var(--grid-color); stroke-width: 0.8"/>
     </g>
     <g id="line2d_4">
      <g>
       <use xlink:href="#mf0ddeb7076" x="122.345302" y="103.4" style="fill: var(--fg-color); stroke: var(--fg-color); stroke-width: 0.8"/>
      </g>
     </g>
     <g id="text_2">
      <text style="font-size: 7px; font-family: 'DejaVu Sans', 'Bitstream Vera Sans', 'Computer Modern Sans Serif', 'Lucida Grande', 'Verdana', 'Geneva', 'Lucid', 'Arial', 'Helvetica', 'Avant Garde', sans-serif; text-anchor: middle; fill: var(--fg-color)" x="122.345302" y="115.718359" transform="rotate(-0 122.345302 115.718359)">04/2026</text>
     </g>
    </g>
    <g id="xtick_3">
     <g id="line2d_5">
      <path d="M 176.688307 103.4 
L 176.688307 5 
" clip-path="url(#p6118ddc86f)" style="fill: none; stroke-dasharray: 2.96,1.28; stroke-dashoffset: 0; stroke: var(--grid-color); stroke-width: 0.8"/>
     </g>
     <g id="line2d_6">
      <g>
       <use xlink:href="#mf0ddeb7076" x="176.688307" y="103.4" style="fill: var(--fg-color); stroke: var(--fg-color); stroke-width: 0.8"/>
      </g>
     </g>
     <g id="text_3">
      <text style="font-size: 7px; font-family: 'DejaVu Sans', 'Bitstream Vera Sans', 'Computer Modern Sans Serif', 'Lucida Grande', 'Verdana', 'Geneva', 'Lucid', 'Arial', 'Helvetica', 'Avant Garde', sans-serif; text-anchor: middle; fill: var(--fg-color)" x="176.688307" y="115.718359" transform="rotate(-0 176.688307 115.718359)">06/2026</text>
     </g>
    </g>
   </g>
   <g id="matplotlib.axis_2">
    <g id="ytick_1">
     <g id="line2d_7">
      <path d="M 35.96 100.230729 
L 211 100.230729 
" clip-path="url(#p6118ddc86f)" style="fill: none; stroke-dasharray: 2.96,1.28; stroke-dashoffset: 0; stroke: var(--grid-color); stroke-width: 0.8"/>
     </g>
     <g id="line2d_8">
      <defs>
       <path id="m778061a5e8" d="M 0 0 
L -3.5 0 
" style="stroke: var(--fg-color); stroke-width: 0.8"/>
      </defs>
      <g>
       <use xlink:href="#m778061a5e8" x="35.96" y="100.230729" style="fill: var(--fg-color); stroke: var(--fg-color); stroke-width: 0.8"/>
      </g>
     </g>
     <g id="text_4">
      <text style="font-size: 7px; font-family: 'DejaVu Sans', 'Bitstream Vera Sans', 'Computer Modern Sans Serif', 'Lucida Grande', 'Verdana', 'Geneva', 'Lucid', 'Arial', 'Helvetica', 'Avant Garde', sans-serif; text-anchor: end; fill: var(--fg-color)" x="28.96" y="102.889908" transform="rotate(-0 28.96 102.889908)">0</text>
     </g>
    </g>
    <g id="ytick_2">
     <g id="line2d_9">
      <path d="M 35.96 72.491724 
L 211 72.491724 
" clip-path="url(#p6118ddc86f)" style="fill: none; stroke-dasharray: 2.96,1.28; stroke-dashoffset: 0; stroke: var(--grid-color); stroke-width: 0.8"/>
     </g>
     <g id="line2d_10">
      <g>
       <use xlink:href="#m778061a5e8" x="35.96" y="72.491724" style="fill: var(--fg-color); stroke: var(--fg-color); stroke-width: 0.8"/>
      </g>
     </g>
     <g id="text_5">
      <text style="font-size: 7px; font-family: 'DejaVu Sans', 'Bitstream Vera Sans', 'Computer Modern Sans Serif', 'Lucida Grande', 'Verdana', 'Geneva', 'Lucid', 'Arial', 'Helvetica', 'Avant Garde', sans-serif; text-anchor: end; fill: var(--fg-color)" x="28.96" y="75.150904" transform="rotate(-0 28.96 75.150904)">200</text>
     </g>
    </g>
    <g id="ytick_3">
     <g id="line2d_11">
      <path d="M 35.96 44.752719 
L 211 44.752719 
" clip-path="url(#p6118ddc86f)" style="fill: none; stroke-dasharray: 2.96,1.28; stroke-dashoffset: 0; stroke: var(--grid-color); stroke-width: 0.8"/>
     </g>
     <g id="line2d_12">
      <g>
       <use xlink:href="#m778061a5e8" x="35.96" y="44.752719" style="fill: var(--fg-color); stroke: var(--fg-color); stroke-width: 0.8"/>
      </g>
     </g>
     <g id="text_6">
      <text style="font-size: 7px; font-family: 'DejaVu Sans', 'Bitstream Vera Sans', 'Computer Modern Sans Serif', 'Lucida Grande', 'Verdana', 'Geneva', 'Lucid', 'Arial', 'Helvetica', 'Avant Garde', sans-serif; text-anchor: end; fill: var(--fg-color)" x="28.96" y="47.411899" transform="rotate(-0 28.96 47.411899)">400</text>
     </g>
    </g>
    <g id="ytick_4">
     <g id="line2d_13">
      <path d="M 35.96 17.013714 
L 211 17.013714 
" clip-path="url(#p6118ddc86f)" style="fill: none; stroke-dasharray: 2.96,1.28; stroke-dashoffset: 0; stroke: var(--grid-color); stroke-width: 0.8"/>
     </g>
     <g id="line2d_14">
      <g>
       <use xlink:href="#m778061a5e8" x="35.96" y="17.013714" style="fill: var(--fg-color); stroke: var(--fg-color); stroke-width: 0.8"/>
      </g>
     </g>
     <g id="text_7">
      <text style="font-size: 7px; font-family: 'DejaVu Sans', 'Bitstream Vera Sans', 'Computer Modern Sans Serif', 'Lucida Grande', 'Verdana', 'Geneva', 'Lucid', 'Arial', 'Helvetica', 'Avant Garde', sans-serif; text-anchor: end; fill: var(--fg-color)" x="28.96" y="19.672894" transform="rotate(-0 28.96 19.672894)">600</text>
     </g>
    </g>
    <g id="text_8">
     <text style="font-size: 7px; font-family: 'DejaVu Sans', 'Bitstream Vera Sans', 'Computer Modern Sans Serif', 'Lucida Grande', 'Verdana', 'Geneva', 'Lucid', 'Arial', 'Helvetica', 'Avant Garde', sans-serif; text-anchor: middle; fill: var(--fg-color)" x="9.917109" y="54.2" transform="rotate(-90 9.917109 54.2)">ms</text>
    </g>
   </g>
   <g id="line2d_15">
    <path d="M 43.916364 41.621402 
L 44.468628 88.852744 
L 45.3595 90.171317 
L 46.250371 90.167156 
L 47.141245 89.650795 
L 48.032112 89.7501 
L 48.922979 90.794197 
L 49.81384 90.840659 
L 50.704717 89.686301 
L 51.595589 90.175894 
L 52.486458 90.398638 
L 53.377327 90.039834 
L 54.268192 84.12782 
L 55.159063 90.132621 
L 56.049934 90.20613 
L 56.940797 88.897681 
L 57.831669 89.555927 
L 58.722538 89.566329 
L 59.613407 88.52473 
L 60.504275 91.247868 
L 61.395144 88.575076 
L 62.286016 90.58657 
L 63.176879 88.152195 
L 64.067746 89.962165 
L 64.958622 89.806272 
L 65.84949 89.526247 
L 66.740361 89.503639 
L 67.631226 73.985331 
L 68.522078 88.458018 
L 69.412965 89.571045 
L 70.30383 88.168422 
L 71.194705 88.193249 
L 72.085571 87.37578 
L 72.976442 89.339286 
L 73.867306 88.665921 
L 74.758184 88.759957 
L 75.649039 89.470214 
L 76.539914 88.990468 
L 77.430784 88.955239 
L 78.321655 88.747613 
L 79.212509 86.353043 
L 80.103391 90.092677 
L 80.994245 85.357213 
L 81.885129 89.168413 
L 83.666869 89.747881 
L 85.44861 89.992262 
L 94.53997 29.422619 
L 95.248438 87.950394 
L 96.139324 88.932771 
L 97.030192 89.170078 
L 97.921065 88.094359 
L 98.811931 89.663277 
L 99.702798 90.480468 
L 100.593666 90.294894 
L 101.484533 89.682279 
L 102.375401 87.19728 
L 103.266272 88.726809 
L 104.157138 88.450944 
L 105.048009 89.787964 
L 105.93888 89.398509 
L 106.829748 89.671322 
L 108.611487 88.209337 
L 109.502352 87.272175 
L 110.393224 89.43346 
L 111.284094 87.191455 
L 112.17496 88.855379 
L 113.065834 91.285454 
L 113.956695 88.96467 
L 114.847564 90.352869 
L 115.738441 90.235394 
L 116.629309 88.832217 
L 117.520178 90.479081 
L 118.41104 87.0676 
L 120.192782 90.02652 
L 121.083649 88.941647 
L 121.97452 89.484499 
L 125.537994 85.969968 
L 126.428869 89.434985 
L 127.319734 90.149542 
L 128.210603 90.158141 
L 129.101474 89.591433 
L 129.992342 88.25691 
L 130.883214 89.091438 
L 131.774065 88.661067 
L 132.664946 88.719042 
L 133.55582 87.912114 
L 134.446686 88.993796 
L 135.337558 87.874944 
L 136.228424 89.333461 
L 137.119294 88.427921 
L 138.010159 90.090042 
L 139.791912 89.051216 
L 140.68277 88.027924 
L 141.57364 89.365915 
L 142.464507 89.51099 
L 143.355376 88.377158 
L 144.246246 87.432229 
L 145.137113 88.305453 
L 146.918849 89.660503 
L 181.959197 89.64386 
L 182.553652 31.514557 
L 183.444521 89.241644 
L 184.335387 87.957051 
L 185.226256 87.659828 
L 186.117131 89.303919 
L 187.007996 89.590185 
L 187.898864 89.505858 
L 188.789731 89.728464 
L 189.680603 14.142173 
L 190.571474 9.472727 
L 191.462343 19.565703 
L 192.353215 10.866474 
L 193.244077 89.47271 
L 194.134949 23.874402 
L 195.025817 89.802388 
L 195.916688 40.65761 
L 196.807557 91.520542 
L 197.698426 20.11757 
L 198.589295 87.836248 
L 199.480162 62.499996 
L 200.371032 24.032376 
L 201.261898 84.181911 
L 202.152766 90.261608 
L 203.043636 89.853983 
L 203.043636 89.853983 
" clip-path="url(#p6118ddc86f)" style="fill: none; stroke: #339af0; stroke-width: 1.2; stroke-linecap: square"/>
   </g>
   <g id="line2d_16">
    <path d="M 43.916364 97.455025 
L 44.468628 98.17929 
L 45.3595 98.153632 
L 46.250371 97.479297 
L 47.141245 98.260288 
L 48.922979 97.311476 
L 49.81384 97.283875 
L 50.704717 98.260982 
L 51.595589 98.099402 
L 52.486458 96.701218 
L 53.377327 97.903981 
L 54.268192 98.122148 
L 55.159063 97.964591 
L 56.049934 98.366113 
L 56.940797 97.071672 
L 57.831669 97.494414 
L 58.722538 96.846847 
L 59.613407 97.395664 
L 60.504275 98.148639 
L 61.395144 97.7553 
L 62.286016 98.052662 
L 63.176879 97.424928 
L 64.067746 97.90731 
L 64.958622 97.856131 
L 65.84949 97.984979 
L 66.740361 96.705378 
L 67.631226 98.033799 
L 68.522078 97.456273 
L 69.412965 97.85308 
L 70.30383 98.126586 
L 71.194705 96.740052 
L 72.085571 98.542117 
L 72.976442 97.5725 
L 73.867306 98.173327 
L 74.758184 97.23561 
L 75.649039 97.515496 
L 77.430784 97.572361 
L 78.321655 98.190386 
L 79.212509 97.294139 
L 80.994245 97.563901 
L 81.885129 97.86903 
L 82.775998 96.584436 
L 83.666869 97.789003 
L 84.557735 97.465288 
L 85.44861 98.405225 
L 94.53997 98.412437 
L 95.248438 97.17181 
L 96.139324 98.123674 
L 97.030192 96.971257 
L 97.921065 97.563068 
L 98.811931 97.719239 
L 99.702798 97.641709 
L 100.593666 98.536569 
L 101.484533 97.565842 
L 102.375401 97.721458 
L 104.157138 97.765563 
L 105.048009 98.569717 
L 105.93888 97.699267 
L 106.829748 97.543929 
L 107.720614 98.513545 
L 108.611487 97.399547 
L 109.502352 98.3356 
L 110.393224 97.801485 
L 111.284094 97.920763 
L 112.17496 97.780542 
L 113.956695 97.964313 
L 114.847564 98.493157 
L 115.738441 98.029639 
L 116.629309 97.155999 
L 117.520178 97.211754 
L 118.41104 97.988862 
L 120.192782 98.496902 
L 121.083649 97.941845 
L 121.97452 97.755993 
L 125.537994 98.19524 
L 127.319734 97.516467 
L 128.210603 97.732138 
L 129.101474 98.502172 
L 129.992342 98.474017 
L 130.883214 97.467369 
L 131.774065 97.832692 
L 133.55582 98.119097 
L 134.446686 98.513962 
L 135.337558 97.366676 
L 136.228424 98.234491 
L 137.119294 98.087613 
L 138.010159 97.386094 
L 138.901032 98.208 
L 139.791912 98.307445 
L 140.68277 97.286511 
L 141.57364 98.563614 
L 142.464507 98.046282 
L 143.355376 97.979708 
L 144.246246 97.798157 
L 145.137113 98.021178 
L 146.027984 98.428664 
L 146.918849 97.32063 
L 173.644977 97.32063 
L 181.959197 98.073466 
L 182.553652 98.580535 
L 183.444521 97.552805 
L 184.335387 98.331994 
L 185.226256 97.904397 
L 186.117131 74.337616 
L 187.007996 97.541432 
L 187.898864 98.389691 
L 188.789731 98.181787 
L 189.680603 98.18359 
L 190.571474 98.331023 
L 191.462343 98.334906 
L 192.353215 97.615911 
L 193.244077 98.288721 
L 194.134949 98.102315 
L 195.025817 98.033106 
L 195.916688 97.607035 
L 199.480162 98.561395 
L 201.261898 98.213826 
L 202.152766 98.927273 
L 203.043636 97.532556 
L 203.043636 97.532556 
" clip-path="url(#p6118ddc86f)" style="fill: none; stroke: #ff6b6b; stroke-width: 1.2; stroke-linecap: square"/>
   </g>
   <g id="patch_3">
    <path d="M 35.96 103.4 
L 35.96 5 
" style="fill: none; stroke: var(--fg-color); stroke-width: 0.8; stroke-linejoin: miter; stroke-linecap: square"/>
   </g>
   <g id="patch_4">
    <path d="M 35.96 103.4 
L 211 103.4 
" style="fill: none; stroke: var(--fg-color); stroke-width: 0.8; stroke-linejoin: miter; stroke-linecap: square"/>
   </g>
  </g>
 </g>
 <defs>
  <clipPath id="p6118ddc86f">
   <rect x="35.96" y="5" width="175.04" height="98.4"/>
  </clipPath>
 </defs>
</svg>
