<?xml version="1.0" encoding="utf-8" standalone="no"?>
<!DOCTYPE svg PUBLIC "-//W3C//DTD SVG 1.1//EN"
  "http://www.w3.org/Graphics/SVG/1.1/DTD/svg11.dtd">
<svg xmlns:xlink="http://www.w3.org/1999/xlink" width="216pt" height="122.4pt" viewBox="0 0 216 122.4" xmlns="http://www.w3.org/2000/svg" version="1.1">
  <style>
    :root {
      --fg-color: #212529;
      --grid-color: rgba(33, 37, 41, 0.1);
    }
    @media (prefers-color-scheme: dark) {
      :root {
        --fg-color: #dee2e6;
        --grid-color: rgba(248, 249, 250, 0.15);
      }
    }
  </style>

 <metadata>
  <rdf:RDF xmlns:dc="http://purl.org/dc/elements/1.1/" xmlns:cc="http://creativecommons.org/ns#" xmlns:rdf="http://www.w3.org/1999/02/22-rdf-syntax-ns#">
   <cc:Work>
    <dc:type rdf:resource="http://purl.org/dc/dcmitype/StillImage"/>
    <dc:date>2026-06-30T15:36:43.743612</dc:date>
    <dc:format>image/svg+xml</dc:format>
    <dc:creator>
     <cc:Agent>
      <dc:title>Matplotlib v3.11.0, https://matplotlib.org/</dc:title>
     </cc:Agent>
    </dc:creator>
   </cc:Work>
  </rdf:RDF>
 </metadata>
 <defs>
  <style type="text/css">*{stroke-linejoin: round; stroke-linecap: butt}</style>
 </defs>
 <g id="figure_1">
  <g id="patch_1">
   <path d="M 0 122.4 
L 216 122.4 
L 216 0 
L 0 0 
L 0 122.4 
z
" style="fill: none; opacity: 0"/>
  </g>
  <g id="axes_1">
   <g id="patch_2">
    <path d="M 35.96 103.4 
L 211 103.4 
L 211 5 
L 35.96 5 
L 35.96 103.4 
z
" style="fill: none; opacity: 0"/>
   </g>
   <g id="matplotlib.axis_1">
    <g id="xtick_1">
     <g id="line2d_1">
      <path d="M 69.784035 103.4 
L 69.784035 5 
" clip-path="url(#pe86c858857)" style="fill: none; stroke-dasharray: 2.96,1.28; stroke-dashoffset: 0; stroke: var(--grid-color); stroke-width: 0.8"/>
     </g>
     <g id="line2d_2">
      <defs>
       <path id="m0de28f33c8" d="M 0 0 
L 0 3.5 
" style="stroke: var(--fg-color); stroke-width: 0.8"/>
      </defs>
      <g>
       <use xlink:href="#m0de28f33c8" x="69.784035" y="103.4" style="fill: var(--fg-color); stroke: var(--fg-color); stroke-width: 0.8"/>
      </g>
     </g>
     <g id="text_1">
      <text style="font-size: 7px; font-family: 'DejaVu Sans', 'Bitstream Vera Sans', 'Computer Modern Sans Serif', 'Lucida Grande', 'Verdana', 'Geneva', 'Lucid', 'Arial', 'Helvetica', 'Avant Garde', sans-serif; text-anchor: middle; fill: var(--fg-color)" x="69.784035" y="115.718359" transform="rotate(-0 69.784035 115.718359)">02/2026</text>
     </g>
    </g>
    <g id="xtick_2">
     <g id="line2d_3">
      <path d="M 122.345302 103.4 
L 122.345302 5 
" clip-path="url(#pe86c858857)" style="fill: none; stroke-dasharray: 2.96,1.28; stroke-dashoffset: 0; stroke: var(--grid-color); stroke-width: 0.8"/>
     </g>
     <g id="line2d_4">
      <g>
       <use xlink:href="#m0de28f33c8" x="122.345302" y="103.4" style="fill: var(--fg-color); stroke: var(--fg-color); stroke-width: 0.8"/>
      </g>
     </g>
     <g id="text_2">
      <text style="font-size: 7px; font-family: 'DejaVu Sans', 'Bitstream Vera Sans', 'Computer Modern Sans Serif', 'Lucida Grande', 'Verdana', 'Geneva', 'Lucid', 'Arial', 'Helvetica', 'Avant Garde', sans-serif; text-anchor: middle; fill: var(--fg-color)" x="122.345302" y="115.718359" transform="rotate(-0 122.345302 115.718359)">04/2026</text>
     </g>
    </g>
    <g id="xtick_3">
     <g id="line2d_5">
      <path d="M 176.688307 103.4 
L 176.688307 5 
" clip-path="url(#pe86c858857)" style="fill: none; stroke-dasharray: 2.96,1.28; stroke-dashoffset: 0; stroke: var(--grid-color); stroke-width: 0.8"/>
     </g>
     <g id="line2d_6">
      <g>
       <use xlink:href="#m0de28f33c8" x="176.688307" y="103.4" style="fill: var(--fg-color); stroke: var(--fg-color); stroke-width: 0.8"/>
      </g>
     </g>
     <g id="text_3">
      <text style="font-size: 7px; font-family: 'DejaVu Sans', 'Bitstream Vera Sans', 'Computer Modern Sans Serif', 'Lucida Grande', 'Verdana', 'Geneva', 'Lucid', 'Arial', 'Helvetica', 'Avant Garde', sans-serif; text-anchor: middle; fill: var(--fg-color)" x="176.688307" y="115.718359" transform="rotate(-0 176.688307 115.718359)">06/2026</text>
     </g>
    </g>
   </g>
   <g id="matplotlib.axis_2">
    <g id="ytick_1">
     <g id="line2d_7">
      <path d="M 35.96 98.639565 
L 211 98.639565 
" clip-path="url(#pe86c858857)" style="fill: none; stroke-dasharray: 2.96,1.28; stroke-dashoffset: 0; stroke: var(--grid-color); stroke-width: 0.8"/>
     </g>
     <g id="line2d_8">
      <defs>
       <path id="mdd14eba998" d="M 0 0 
L -3.5 0 
" style="stroke: var(--fg-color); stroke-width: 0.8"/>
      </defs>
      <g>
       <use xlink:href="#mdd14eba998" x="35.96" y="98.639565" style="fill: var(--fg-color); stroke: var(--fg-color); stroke-width: 0.8"/>
      </g>
     </g>
     <g id="text_4">
      <text style="font-size: 7px; font-family: 'DejaVu Sans', 'Bitstream Vera Sans', 'Computer Modern Sans Serif', 'Lucida Grande', 'Verdana', 'Geneva', 'Lucid', 'Arial', 'Helvetica', 'Avant Garde', sans-serif; text-anchor: end; fill: var(--fg-color)" x="28.96" y="101.298745" transform="rotate(-0 28.96 101.298745)">200</text>
     </g>
    </g>
    <g id="ytick_2">
     <g id="line2d_9">
      <path d="M 35.96 76.232459 
L 211 76.232459 
" clip-path="url(#pe86c858857)" style="fill: none; stroke-dasharray: 2.96,1.28; stroke-dashoffset: 0; stroke: var(--grid-color); stroke-width: 0.8"/>
     </g>
     <g id="line2d_10">
      <g>
       <use xlink:href="#mdd14eba998" x="35.96" y="76.232459" style="fill: var(--fg-color); stroke: var(--fg-color); stroke-width: 0.8"/>
      </g>
     </g>
     <g id="text_5">
      <text style="font-size: 7px; font-family: 'DejaVu Sans', 'Bitstream Vera Sans', 'Computer Modern Sans Serif', 'Lucida Grande', 'Verdana', 'Geneva', 'Lucid', 'Arial', 'Helvetica', 'Avant Garde', sans-serif; text-anchor: end; fill: var(--fg-color)" x="28.96" y="78.891639" transform="rotate(-0 28.96 78.891639)">250</text>
     </g>
    </g>
    <g id="ytick_3">
     <g id="line2d_11">
      <path d="M 35.96 53.825353 
L 211 53.825353 
" clip-path="url(#pe86c858857)" style="fill: none; stroke-dasharray: 2.96,1.28; stroke-dashoffset: 0; stroke: var(--grid-color); stroke-width: 0.8"/>
     </g>
     <g id="line2d_12">
      <g>
       <use xlink:href="#mdd14eba998" x="35.96" y="53.825353" style="fill: var(--fg-color); stroke: var(--fg-color); stroke-width: 0.8"/>
      </g>
     </g>
     <g id="text_6">
      <text style="font-size: 7px; font-family: 'DejaVu Sans', 'Bitstream Vera Sans', 'Computer Modern Sans Serif', 'Lucida Grande', 'Verdana', 'Geneva', 'Lucid', 'Arial', 'Helvetica', 'Avant Garde', sans-serif; text-anchor: end; fill: var(--fg-color)" x="28.96" y="56.484533" transform="rotate(-0 28.96 56.484533)">300</text>
     </g>
    </g>
    <g id="ytick_4">
     <g id="line2d_13">
      <path d="M 35.96 31.418247 
L 211 31.418247 
" clip-path="url(#pe86c858857)" style="fill: none; stroke-dasharray: 2.96,1.28; stroke-dashoffset: 0; stroke: var(--grid-color); stroke-width: 0.8"/>
     </g>
     <g id="line2d_14">
      <g>
       <use xlink:href="#mdd14eba998" x="35.96" y="31.418247" style="fill: var(--fg-color); stroke: var(--fg-color); stroke-width: 0.8"/>
      </g>
     </g>
     <g id="text_7">
      <text style="font-size: 7px; font-family: 'DejaVu Sans', 'Bitstream Vera Sans', 'Computer Modern Sans Serif', 'Lucida Grande', 'Verdana', 'Geneva', 'Lucid', 'Arial', 'Helvetica', 'Avant Garde', sans-serif; text-anchor: end; fill: var(--fg-color)" x="28.96" y="34.077427" transform="rotate(-0 28.96 34.077427)">350</text>
     </g>
    </g>
    <g id="ytick_5">
     <g id="line2d_15">
      <path d="M 35.96 9.011141 
L 211 9.011141 
" clip-path="url(#pe86c858857)" style="fill: none; stroke-dasharray: 2.96,1.28; stroke-dashoffset: 0; stroke: var(--grid-color); stroke-width: 0.8"/>
     </g>
     <g id="line2d_16">
      <g>
       <use xlink:href="#mdd14eba998" x="35.96" y="9.011141" style="fill: var(--fg-color); stroke: var(--fg-color); stroke-width: 0.8"/>
      </g>
     </g>
     <g id="text_8">
      <text style="font-size: 7px; font-family: 'DejaVu Sans', 'Bitstream Vera Sans', 'Computer Modern Sans Serif', 'Lucida Grande', 'Verdana', 'Geneva', 'Lucid', 'Arial', 'Helvetica', 'Avant Garde', sans-serif; text-anchor: end; fill: var(--fg-color)" x="28.96" y="11.670321" transform="rotate(-0 28.96 11.670321)">400</text>
     </g>
    </g>
    <g id="text_9">
     <text style="font-size: 7px; font-family: 'DejaVu Sans', 'Bitstream Vera Sans', 'Computer Modern Sans Serif', 'Lucida Grande', 'Verdana', 'Geneva', 'Lucid', 'Arial', 'Helvetica', 'Avant Garde', sans-serif; text-anchor: middle; fill: var(--fg-color)" x="9.917109" y="54.2" transform="rotate(-90 9.917109 54.2)">ms</text>
    </g>
   </g>
   <g id="line2d_17">
    <path d="M 43.916364 28.474401 
L 44.468628 33.88751 
L 45.3595 31.91927 
L 46.250371 21.149518 
L 47.141245 26.694829 
L 48.032112 15.79422 
L 48.922979 31.740909 
L 49.81384 26.568901 
L 50.704717 34.808442 
L 51.595589 33.645065 
L 52.486458 30.137457 
L 53.377327 28.920751 
L 54.268192 26.457762 
L 55.159063 32.982263 
L 56.049934 28.706539 
L 56.940797 29.160955 
L 57.831669 32.391164 
L 58.722538 23.331522 
L 59.613407 35.13469 
L 60.504275 34.415422 
L 61.395144 27.42306 
L 62.286016 35.119453 
L 63.176879 34.937507 
L 64.067746 39.814638 
L 64.958622 34.146984 
L 65.84949 38.002799 
L 66.740361 37.241854 
L 67.631226 45.017568 
L 68.522078 30.462808 
L 69.412965 27.433815 
L 70.30383 31.747631 
L 71.194705 18.677566 
L 72.085571 36.361255 
L 72.976442 35.749989 
L 73.867306 31.112166 
L 74.758184 33.782645 
L 75.649039 38.837688 
L 76.539914 36.53603 
L 77.430784 35.837377 
L 78.321655 15.681288 
L 79.212509 41.27827 
L 80.103391 35.787185 
L 80.994245 25.100339 
L 81.885129 40.345238 
L 82.775998 34.497432 
L 83.666869 30.409927 
L 84.557735 39.804331 
L 85.44861 34.204347 
L 94.53997 42.851249 
L 95.248438 41.549844 
L 96.139324 42.568471 
L 97.030192 33.111328 
L 97.921065 37.341341 
L 98.811931 38.920146 
L 99.702798 30.881821 
L 100.593666 47.210775 
L 101.484533 34.627393 
L 102.375401 34.055115 
L 103.266272 34.165806 
L 104.157138 36.815223 
L 105.048009 40.220655 
L 105.93888 33.05307 
L 106.829748 44.61424 
L 107.720614 35.269132 
L 108.611487 45.757451 
L 109.502352 30.567673 
L 110.393224 43.601439 
L 111.284094 32.648397 
L 112.17496 46.4691 
L 113.065834 36.174379 
L 113.956695 39.478531 
L 114.847564 46.295669 
L 115.738441 31.060181 
L 116.629309 38.846203 
L 117.520178 26.725751 
L 118.41104 29.640019 
L 119.301913 36.895888 
L 120.192782 34.761835 
L 121.083649 26.684522 
L 121.97452 26.850334 
L 125.537994 14.576618 
L 126.428869 32.310946 
L 127.319734 38.588073 
L 128.210603 31.424969 
L 129.101474 30.61921 
L 129.992342 31.506083 
L 130.883214 26.700655 
L 131.774065 28.801097 
L 132.664946 28.570304 
L 133.55582 30.054551 
L 134.446686 28.581956 
L 135.337558 28.72312 
L 136.228424 24.072749 
L 137.119294 21.864753 
L 138.010159 27.586632 
L 138.901032 31.624392 
L 139.791912 18.192677 
L 140.68277 17.405739 
L 141.57364 26.379337 
L 142.464507 24.818906 
L 143.355376 30.671194 
L 144.246246 31.154291 
L 145.137113 26.921141 
L 146.027984 24.800084 
L 146.918849 32.968819 
L 173.644977 32.968819 
L 181.959197 31.608707 
L 182.553652 29.867675 
L 183.444521 22.890999 
L 184.335387 29.304809 
L 185.226256 25.851874 
L 186.117131 27.901676 
L 187.007996 20.119688 
L 187.898864 30.781437 
L 188.789731 31.984251 
L 189.680603 26.605201 
L 190.571474 9.472727 
L 191.462343 28.290663 
L 192.353215 26.469862 
L 193.244077 25.030429 
L 194.134949 19.640624 
L 195.025817 27.366146 
L 195.916688 24.110842 
L 196.807557 21.853102 
L 197.698426 29.416396 
L 198.589295 30.581566 
L 199.480162 22.43479 
L 200.371032 28.011471 
L 201.261898 32.686937 
L 202.152766 34.03719 
L 203.043636 22.811678 
L 203.043636 22.811678 
" clip-path="url(#pe86c858857)" style="fill: none; stroke: #339af0; stroke-width: 1.2; stroke-linecap: square"/>
   </g>
   <g id="line2d_18">
    <path d="M 43.916364 65.615076 
L 44.468628 79.68405 
L 45.3595 79.257867 
L 46.250371 69.414425 
L 47.141245 78.638983 
L 48.032112 84.843062 
L 48.922979 66.837608 
L 49.81384 91.627038 
L 50.704717 79.568877 
L 51.595589 72.352445 
L 52.486458 91.339778 
L 53.377327 81.785837 
L 54.268192 69.193939 
L 55.159063 71.903406 
L 56.049934 71.891755 
L 56.940797 76.22977 
L 57.831669 71.358914 
L 58.722538 72.51512 
L 59.613407 77.816194 
L 61.395144 65.178138 
L 63.176879 81.593584 
L 64.067746 85.24639 
L 64.958622 77.752557 
L 65.84949 80.845634 
L 66.740361 70.509684 
L 67.631226 79.767404 
L 68.522078 71.081066 
L 69.412965 77.620355 
L 70.30383 77.994106 
L 71.194705 78.929379 
L 72.085571 85.885441 
L 72.976442 85.702151 
L 73.867306 71.482153 
L 74.758184 66.525701 
L 75.649039 78.657356 
L 76.539914 84.613613 
L 77.430784 68.356362 
L 78.321655 75.997633 
L 79.212509 81.408053 
L 80.103391 70.875817 
L 80.994245 66.734983 
L 81.885129 78.072979 
L 82.775998 80.309656 
L 83.666869 78.369201 
L 84.557735 81.533981 
L 85.44861 87.921798 
L 94.53997 78.101212 
L 95.248438 73.032276 
L 96.139324 86.372123 
L 97.030192 82.727383 
L 97.921065 76.710179 
L 98.811931 77.586297 
L 99.702798 80.59333 
L 100.593666 57.978286 
L 101.484533 89.578132 
L 102.375401 72.429973 
L 103.266272 85.211435 
L 104.157138 72.686311 
L 105.048009 88.214435 
L 105.93888 76.243215 
L 106.829748 84.366687 
L 107.720614 72.515569 
L 108.611487 84.597928 
L 109.502352 86.641456 
L 110.393224 63.693443 
L 111.284094 87.073017 
L 112.17496 87.329803 
L 113.065834 76.072921 
L 113.956695 83.024949 
L 114.847564 79.318814 
L 115.738441 71.235675 
L 116.629309 72.236824 
L 117.520178 81.520985 
L 118.41104 74.589122 
L 119.301913 77.074518 
L 120.192782 98.927273 
L 121.083649 61.070019 
L 121.97452 71.843355 
L 125.537994 68.904887 
L 126.428869 64.371482 
L 128.210603 80.285457 
L 129.101474 66.225894 
L 129.992342 84.431219 
L 130.883214 76.066647 
L 131.774065 77.950636 
L 132.664946 86.061561 
L 133.55582 91.109433 
L 134.446686 74.146358 
L 135.337558 70.023898 
L 136.228424 81.619576 
L 137.119294 75.365304 
L 138.010159 77.359089 
L 138.901032 80.883278 
L 139.791912 79.887058 
L 140.68277 75.415496 
L 141.57364 72.848986 
L 142.464507 77.863697 
L 143.355376 71.608529 
L 144.246246 72.174981 
L 145.137113 75.984637 
L 146.027984 60.890762 
L 146.918849 85.479424 
L 173.644977 85.479424 
L 181.959197 65.047728 
L 182.553652 70.147137 
L 183.444521 49.05264 
L 184.335387 74.080481 
L 185.226256 78.214144 
L 186.117131 53.255316 
L 187.007996 75.854227 
L 187.898864 64.989918 
L 188.789731 66.868082 
L 189.680603 63.554519 
L 190.571474 70.241695 
L 191.462343 78.462863 
L 192.353215 72.335415 
L 193.244077 67.197466 
L 194.134949 75.967159 
L 195.025817 80.469643 
L 195.916688 70.010006 
L 196.807557 68.703672 
L 197.698426 81.384749 
L 199.480162 73.410508 
L 200.371032 74.545204 
L 201.261898 74.362362 
L 202.152766 76.914532 
L 203.043636 66.662832 
L 203.043636 66.662832 
" clip-path="url(#pe86c858857)" style="fill: none; stroke: #ff6b6b; stroke-width: 1.2; stroke-linecap: square"/>
   </g>
   <g id="patch_3">
    <path d="M 35.96 103.4 
L 35.96 5 
" style="fill: none; stroke: var(--fg-color); stroke-width: 0.8; stroke-linejoin: miter; stroke-linecap: square"/>
   </g>
   <g id="patch_4">
    <path d="M 35.96 103.4 
L 211 103.4 
" style="fill: none; stroke: var(--fg-color); stroke-width: 0.8; stroke-linejoin: miter; stroke-linecap: square"/>
   </g>
  </g>
 </g>
 <defs>
  <clipPath id="pe86c858857">
   <rect x="35.96" y="5" width="175.04" height="98.4"/>
  </clipPath>
 </defs>
</svg>
