<?xml version="1.0" encoding="utf-8" standalone="no"?>
<!DOCTYPE svg PUBLIC "-//W3C//DTD SVG 1.1//EN"
  "http://www.w3.org/Graphics/SVG/1.1/DTD/svg11.dtd">
<svg xmlns:xlink="http://www.w3.org/1999/xlink" width="216pt" height="122.4pt" viewBox="0 0 216 122.4" xmlns="http://www.w3.org/2000/svg" version="1.1">
  <style>
    :root {
      --fg-color: #212529;
      --grid-color: rgba(33, 37, 41, 0.1);
    }
    @media (prefers-color-scheme: dark) {
      :root {
        --fg-color: #dee2e6;
        --grid-color: rgba(248, 249, 250, 0.15);
      }
    }
  </style>

 <metadata>
  <rdf:RDF xmlns:dc="http://purl.org/dc/elements/1.1/" xmlns:cc="http://creativecommons.org/ns#" xmlns:rdf="http://www.w3.org/1999/02/22-rdf-syntax-ns#">
   <cc:Work>
    <dc:type rdf:resource="http://purl.org/dc/dcmitype/StillImage"/>
    <dc:date>2026-06-30T15:37:22.428809</dc:date>
    <dc:format>image/svg+xml</dc:format>
    <dc:creator>
     <cc:Agent>
      <dc:title>Matplotlib v3.11.0, https://matplotlib.org/</dc:title>
     </cc:Agent>
    </dc:creator>
   </cc:Work>
  </rdf:RDF>
 </metadata>
 <defs>
  <style type="text/css">*{stroke-linejoin: round; stroke-linecap: butt}</style>
 </defs>
 <g id="figure_1">
  <g id="patch_1">
   <path d="M 0 122.4 
L 216 122.4 
L 216 0 
L 0 0 
L 0 122.4 
z
" style="fill: none; opacity: 0"/>
  </g>
  <g id="axes_1">
   <g id="patch_2">
    <path d="M 35.96 103.4 
L 211 103.4 
L 211 5 
L 35.96 5 
L 35.96 103.4 
z
" style="fill: none; opacity: 0"/>
   </g>
   <g id="matplotlib.axis_1">
    <g id="xtick_1">
     <g id="line2d_1">
      <path d="M 69.784035 103.4 
L 69.784035 5 
" clip-path="url(#pa12a5fef4d)" style="fill: none; stroke-dasharray: 2.96,1.28; stroke-dashoffset: 0; stroke: var(--grid-color); stroke-width: 0.8"/>
     </g>
     <g id="line2d_2">
      <defs>
       <path id="me0635f0ac2" d="M 0 0 
L 0 3.5 
" style="stroke: var(--fg-color); stroke-width: 0.8"/>
      </defs>
      <g>
       <use xlink:href="#me0635f0ac2" x="69.784035" y="103.4" style="fill: var(--fg-color); stroke: var(--fg-color); stroke-width: 0.8"/>
      </g>
     </g>
     <g id="text_1">
      <text style="font-size: 7px; font-family: 'DejaVu Sans', 'Bitstream Vera Sans', 'Computer Modern Sans Serif', 'Lucida Grande', 'Verdana', 'Geneva', 'Lucid', 'Arial', 'Helvetica', 'Avant Garde', sans-serif; text-anchor: middle; fill: var(--fg-color)" x="69.784035" y="115.718359" transform="rotate(-0 69.784035 115.718359)">02/2026</text>
     </g>
    </g>
    <g id="xtick_2">
     <g id="line2d_3">
      <path d="M 122.345302 103.4 
L 122.345302 5 
" clip-path="url(#pa12a5fef4d)" style="fill: none; stroke-dasharray: 2.96,1.28; stroke-dashoffset: 0; stroke: var(--grid-color); stroke-width: 0.8"/>
     </g>
     <g id="line2d_4">
      <g>
       <use xlink:href="#me0635f0ac2" x="122.345302" y="103.4" style="fill: var(--fg-color); stroke: var(--fg-color); stroke-width: 0.8"/>
      </g>
     </g>
     <g id="text_2">
      <text style="font-size: 7px; font-family: 'DejaVu Sans', 'Bitstream Vera Sans', 'Computer Modern Sans Serif', 'Lucida Grande', 'Verdana', 'Geneva', 'Lucid', 'Arial', 'Helvetica', 'Avant Garde', sans-serif; text-anchor: middle; fill: var(--fg-color)" x="122.345302" y="115.718359" transform="rotate(-0 122.345302 115.718359)">04/2026</text>
     </g>
    </g>
    <g id="xtick_3">
     <g id="line2d_5">
      <path d="M 176.688307 103.4 
L 176.688307 5 
" clip-path="url(#pa12a5fef4d)" style="fill: none; stroke-dasharray: 2.96,1.28; stroke-dashoffset: 0; stroke: var(--grid-color); stroke-width: 0.8"/>
     </g>
     <g id="line2d_6">
      <g>
       <use xlink:href="#me0635f0ac2" x="176.688307" y="103.4" style="fill: var(--fg-color); stroke: var(--fg-color); stroke-width: 0.8"/>
      </g>
     </g>
     <g id="text_3">
      <text style="font-size: 7px; font-family: 'DejaVu Sans', 'Bitstream Vera Sans', 'Computer Modern Sans Serif', 'Lucida Grande', 'Verdana', 'Geneva', 'Lucid', 'Arial', 'Helvetica', 'Avant Garde', sans-serif; text-anchor: middle; fill: var(--fg-color)" x="176.688307" y="115.718359" transform="rotate(-0 176.688307 115.718359)">06/2026</text>
     </g>
    </g>
   </g>
   <g id="matplotlib.axis_2">
    <g id="ytick_1">
     <g id="line2d_7">
      <path d="M 35.96 90.587173 
L 211 90.587173 
" clip-path="url(#pa12a5fef4d)" style="fill: none; stroke-dasharray: 2.96,1.28; stroke-dashoffset: 0; stroke: var(--grid-color); stroke-width: 0.8"/>
     </g>
     <g id="line2d_8">
      <defs>
       <path id="m45994a807e" d="M 0 0 
L -3.5 0 
" style="stroke: var(--fg-color); stroke-width: 0.8"/>
      </defs>
      <g>
       <use xlink:href="#m45994a807e" x="35.96" y="90.587173" style="fill: var(--fg-color); stroke: var(--fg-color); stroke-width: 0.8"/>
      </g>
     </g>
     <g id="text_4">
      <text style="font-size: 7px; font-family: 'DejaVu Sans', 'Bitstream Vera Sans', 'Computer Modern Sans Serif', 'Lucida Grande', 'Verdana', 'Geneva', 'Lucid', 'Arial', 'Helvetica', 'Avant Garde', sans-serif; text-anchor: end; fill: var(--fg-color)" x="28.96" y="93.246352" transform="rotate(-0 28.96 93.246352)">50</text>
     </g>
    </g>
    <g id="ytick_2">
     <g id="line2d_9">
      <path d="M 35.96 76.22799 
L 211 76.22799 
" clip-path="url(#pa12a5fef4d)" style="fill: none; stroke-dasharray: 2.96,1.28; stroke-dashoffset: 0; stroke: var(--grid-color); stroke-width: 0.8"/>
     </g>
     <g id="line2d_10">
      <g>
       <use xlink:href="#m45994a807e" x="35.96" y="76.22799" style="fill: var(--fg-color); stroke: var(--fg-color); stroke-width: 0.8"/>
      </g>
     </g>
     <g id="text_5">
      <text style="font-size: 7px; font-family: 'DejaVu Sans', 'Bitstream Vera Sans', 'Computer Modern Sans Serif', 'Lucida Grande', 'Verdana', 'Geneva', 'Lucid', 'Arial', 'Helvetica', 'Avant Garde', sans-serif; text-anchor: end; fill: var(--fg-color)" x="28.96" y="78.88717" transform="rotate(-0 28.96 78.88717)">100</text>
     </g>
    </g>
    <g id="ytick_3">
     <g id="line2d_11">
      <path d="M 35.96 61.868808 
L 211 61.868808 
" clip-path="url(#pa12a5fef4d)" style="fill: none; stroke-dasharray: 2.96,1.28; stroke-dashoffset: 0; stroke: var(--grid-color); stroke-width: 0.8"/>
     </g>
     <g id="line2d_12">
      <g>
       <use xlink:href="#m45994a807e" x="35.96" y="61.868808" style="fill: var(--fg-color); stroke: var(--fg-color); stroke-width: 0.8"/>
      </g>
     </g>
     <g id="text_6">
      <text style="font-size: 7px; font-family: 'DejaVu Sans', 'Bitstream Vera Sans', 'Computer Modern Sans Serif', 'Lucida Grande', 'Verdana', 'Geneva', 'Lucid', 'Arial', 'Helvetica', 'Avant Garde', sans-serif; text-anchor: end; fill: var(--fg-color)" x="28.96" y="64.527988" transform="rotate(-0 28.96 64.527988)">150</text>
     </g>
    </g>
    <g id="ytick_4">
     <g id="line2d_13">
      <path d="M 35.96 47.509626 
L 211 47.509626 
" clip-path="url(#pa12a5fef4d)" style="fill: none; stroke-dasharray: 2.96,1.28; stroke-dashoffset: 0; stroke: var(--grid-color); stroke-width: 0.8"/>
     </g>
     <g id="line2d_14">
      <g>
       <use xlink:href="#m45994a807e" x="35.96" y="47.509626" style="fill: var(--fg-color); stroke: var(--fg-color); stroke-width: 0.8"/>
      </g>
     </g>
     <g id="text_7">
      <text style="font-size: 7px; font-family: 'DejaVu Sans', 'Bitstream Vera Sans', 'Computer Modern Sans Serif', 'Lucida Grande', 'Verdana', 'Geneva', 'Lucid', 'Arial', 'Helvetica', 'Avant Garde', sans-serif; text-anchor: end; fill: var(--fg-color)" x="28.96" y="50.168806" transform="rotate(-0 28.96 50.168806)">200</text>
     </g>
    </g>
    <g id="ytick_5">
     <g id="line2d_15">
      <path d="M 35.96 33.150444 
L 211 33.150444 
" clip-path="url(#pa12a5fef4d)" style="fill: none; stroke-dasharray: 2.96,1.28; stroke-dashoffset: 0; stroke: var(--grid-color); stroke-width: 0.8"/>
     </g>
     <g id="line2d_16">
      <g>
       <use xlink:href="#m45994a807e" x="35.96" y="33.150444" style="fill: var(--fg-color); stroke: var(--fg-color); stroke-width: 0.8"/>
      </g>
     </g>
     <g id="text_8">
      <text style="font-size: 7px; font-family: 'DejaVu Sans', 'Bitstream Vera Sans', 'Computer Modern Sans Serif', 'Lucida Grande', 'Verdana', 'Geneva', 'Lucid', 'Arial', 'Helvetica', 'Avant Garde', sans-serif; text-anchor: end; fill: var(--fg-color)" x="28.96" y="35.809624" transform="rotate(-0 28.96 35.809624)">250</text>
     </g>
    </g>
    <g id="ytick_6">
     <g id="line2d_17">
      <path d="M 35.96 18.791262 
L 211 18.791262 
" clip-path="url(#pa12a5fef4d)" style="fill: none; stroke-dasharray: 2.96,1.28; stroke-dashoffset: 0; stroke: var(--grid-color); stroke-width: 0.8"/>
     </g>
     <g id="line2d_18">
      <g>
       <use xlink:href="#m45994a807e" x="35.96" y="18.791262" style="fill: var(--fg-color); stroke: var(--fg-color); stroke-width: 0.8"/>
      </g>
     </g>
     <g id="text_9">
      <text style="font-size: 7px; font-family: 'DejaVu Sans', 'Bitstream Vera Sans', 'Computer Modern Sans Serif', 'Lucida Grande', 'Verdana', 'Geneva', 'Lucid', 'Arial', 'Helvetica', 'Avant Garde', sans-serif; text-anchor: end; fill: var(--fg-color)" x="28.96" y="21.450442" transform="rotate(-0 28.96 21.450442)">300</text>
     </g>
    </g>
    <g id="text_10">
     <text style="font-size: 7px; font-family: 'DejaVu Sans', 'Bitstream Vera Sans', 'Computer Modern Sans Serif', 'Lucida Grande', 'Verdana', 'Geneva', 'Lucid', 'Arial', 'Helvetica', 'Avant Garde', sans-serif; text-anchor: middle; fill: var(--fg-color)" x="9.917109" y="54.2" transform="rotate(-90 9.917109 54.2)">ms</text>
    </g>
   </g>
   <g id="line2d_19">
    <path d="M 43.916364 20.888277 
L 44.468628 36.071963 
L 45.3595 33.604194 
L 46.250371 34.752067 
L 47.141245 23.876423 
L 48.032112 41.827985 
L 48.922979 48.274684 
L 49.81384 28.011006 
L 50.704717 49.664652 
L 51.595589 35.730502 
L 52.486458 33.070033 
L 53.377327 31.711941 
L 54.268192 44.677134 
L 55.159063 41.493416 
L 56.049934 48.826363 
L 56.940797 29.717738 
L 57.831669 33.558245 
L 58.722538 50.605179 
L 59.613407 28.16867 
L 60.504275 42.501144 
L 62.286016 30.18154 
L 63.176879 27.559266 
L 64.067746 34.896521 
L 64.958622 40.481094 
L 65.84949 32.314453 
L 66.740361 29.305917 
L 67.631226 36.906519 
L 68.522078 21.301247 
L 69.412965 25.544673 
L 70.30383 9.472727 
L 71.194705 34.92409 
L 72.085571 28.856762 
L 72.976442 39.324031 
L 73.867306 41.079585 
L 74.758184 24.812067 
L 75.649039 32.90002 
L 76.539914 34.26644 
L 77.430784 27.218379 
L 78.321655 39.159762 
L 79.212509 39.377734 
L 80.103391 24.963413 
L 80.994245 26.64516 
L 81.885129 48.499261 
L 82.775998 45.902834 
L 83.666869 36.050999 
L 84.557735 33.228558 
L 85.44861 29.599418 
L 94.53997 23.076042 
L 95.248438 30.151673 
L 96.139324 29.678107 
L 97.030192 38.315442 
L 97.921065 49.899281 
L 98.811931 31.113163 
L 99.702798 44.265025 
L 100.593666 54.810122 
L 101.484533 43.356951 
L 102.375401 53.465815 
L 103.266272 28.113243 
L 104.157138 43.760444 
L 105.048009 40.410734 
L 105.93888 49.731566 
L 106.829748 47.602387 
L 107.720614 45.913172 
L 108.611487 47.156965 
L 109.502352 52.884268 
L 110.393224 40.692174 
L 111.284094 49.007576 
L 112.17496 55.571158 
L 113.065834 54.762449 
L 113.956695 35.915735 
L 114.847564 51.651102 
L 115.738441 38.418541 
L 116.629309 45.592675 
L 117.520178 41.04024 
L 118.41104 49.927713 
L 119.301913 48.362562 
L 120.192782 52.137878 
L 121.083649 53.330552 
L 121.97452 43.166835 
L 125.537994 44.293457 
L 126.428869 46.929515 
L 127.319734 32.82248 
L 128.210603 46.748877 
L 129.101474 34.648394 
L 129.992342 49.207456 
L 130.883214 50.89466 
L 131.774065 51.607737 
L 132.664946 46.335332 
L 133.55582 40.2143 
L 134.446686 40.550879 
L 135.337558 42.952883 
L 136.228424 50.676975 
L 137.119294 49.433757 
L 138.010159 41.341209 
L 138.901032 47.05042 
L 139.791912 41.973587 
L 140.68277 16.390981 
L 141.57364 44.126029 
L 142.464507 42.902339 
L 143.355376 41.285495 
L 144.246246 44.520619 
L 145.137113 46.022589 
L 146.027984 43.455742 
L 146.918849 52.891448 
L 173.644977 52.891448 
L 181.959197 50.186465 
L 182.553652 50.27463 
L 183.444521 45.998179 
L 184.335387 48.669274 
L 185.226256 44.532681 
L 187.007996 54.722531 
L 187.898864 49.752531 
L 188.789731 55.076915 
L 189.680603 54.893979 
L 190.571474 53.255884 
L 191.462343 54.369869 
L 192.353215 56.242881 
L 193.244077 55.227974 
L 194.134949 49.212051 
L 195.025817 48.034024 
L 195.916688 53.410101 
L 196.807557 50.389791 
L 197.698426 47.91513 
L 198.589295 50.089397 
L 199.480162 52.606562 
L 200.371032 57.435842 
L 201.261898 53.692403 
L 202.152766 53.648464 
L 203.043636 56.380155 
L 203.043636 56.380155 
" clip-path="url(#pa12a5fef4d)" style="fill: none; stroke: #339af0; stroke-width: 1.2; stroke-linecap: square"/>
   </g>
   <g id="line2d_20">
    <path d="M 43.916364 96.98505 
L 44.468628 93.407316 
L 45.3595 96.377082 
L 46.250371 96.978157 
L 47.141245 96.746687 
L 48.032112 93.092275 
L 48.922979 96.659096 
L 49.81384 93.272627 
L 50.704717 93.511851 
L 51.595589 96.663978 
L 52.486458 95.594219 
L 53.377327 95.091935 
L 54.268192 95.912419 
L 55.159063 97.574351 
L 56.049934 95.440576 
L 56.940797 94.84467 
L 57.831669 98.927273 
L 58.722538 98.364393 
L 59.613407 95.099976 
L 60.504275 95.065801 
L 61.395144 97.244951 
L 62.286016 95.653092 
L 63.176879 96.718256 
L 64.067746 98.343141 
L 64.958622 95.849526 
L 65.84949 95.605707 
L 66.740361 98.329931 
L 67.631226 95.439715 
L 68.522078 94.451803 
L 69.412965 92.253699 
L 70.30383 91.148329 
L 71.194705 98.284843 
L 72.085571 93.29273 
L 72.976442 91.85796 
L 73.867306 96.283747 
L 74.758184 96.113447 
L 75.649039 93.715751 
L 76.539914 94.974477 
L 77.430784 93.958421 
L 78.321655 96.407523 
L 79.212509 96.145899 
L 80.103391 95.20968 
L 80.994245 88.455408 
L 81.885129 93.143681 
L 82.775998 91.888402 
L 83.666869 89.544696 
L 84.557735 92.980274 
L 85.44861 95.834018 
L 94.53997 95.956358 
L 95.248438 92.443815 
L 96.139324 92.350193 
L 97.030192 90.538351 
L 97.921065 91.466816 
L 98.811931 96.636409 
L 99.702798 92.442666 
L 100.593666 94.680688 
L 101.484533 90.096376 
L 102.375401 90.367477 
L 103.266272 90.783319 
L 104.157138 97.5979 
L 105.048009 95.714549 
L 105.93888 94.35416 
L 106.829748 91.706902 
L 107.720614 91.699435 
L 108.611487 77.632893 
L 109.502352 93.987714 
L 110.393224 92.4576 
L 111.284094 91.601792 
L 112.17496 93.527359 
L 113.065834 96.881376 
L 113.956695 89.95221 
L 114.847564 92.32607 
L 115.738441 91.207776 
L 116.629309 95.347529 
L 117.520178 94.126998 
L 118.41104 95.510936 
L 120.192782 91.914248 
L 121.083649 92.18736 
L 121.97452 92.291607 
L 125.537994 91.705178 
L 126.428869 87.95657 
L 127.319734 92.804805 
L 128.210603 96.403216 
L 129.101474 95.121802 
L 129.992342 91.257172 
L 130.883214 91.684501 
L 131.774065 95.965261 
L 132.664946 93.733844 
L 133.55582 94.357607 
L 134.446686 93.57819 
L 135.337558 93.732408 
L 136.228424 94.475352 
L 137.119294 96.022985 
L 138.010159 95.692723 
L 138.901032 97.041625 
L 139.791912 91.100944 
L 140.68277 90.077709 
L 141.57364 91.086011 
L 142.464507 92.486031 
L 143.355376 89.794833 
L 144.246246 89.861172 
L 145.137113 88.244328 
L 146.027984 89.228507 
L 146.918849 86.463215 
L 173.644977 86.463215 
L 181.959197 96.472714 
L 183.444521 97.005727 
L 184.335387 92.785276 
L 185.226256 94.821408 
L 186.117131 95.280328 
L 187.007996 96.878505 
L 187.898864 94.038833 
L 188.789731 94.828301 
L 189.680603 94.806762 
L 190.571474 95.002908 
L 191.462343 93.513287 
L 192.353215 97.550802 
L 194.134949 92.387814 
L 195.025817 91.593464 
L 195.916688 96.828247 
L 196.807557 93.530805 
L 197.698426 98.388229 
L 198.589295 91.935213 
L 199.480162 92.990612 
L 200.371032 91.752564 
L 201.261898 96.439975 
L 202.152766 93.547174 
L 203.043636 95.129843 
L 203.043636 95.129843 
" clip-path="url(#pa12a5fef4d)" style="fill: none; stroke: #ff6b6b; stroke-width: 1.2; stroke-linecap: square"/>
   </g>
   <g id="patch_3">
    <path d="M 35.96 103.4 
L 35.96 5 
" style="fill: none; stroke: var(--fg-color); stroke-width: 0.8; stroke-linejoin: miter; stroke-linecap: square"/>
   </g>
   <g id="patch_4">
    <path d="M 35.96 103.4 
L 211 103.4 
" style="fill: none; stroke: var(--fg-color); stroke-width: 0.8; stroke-linejoin: miter; stroke-linecap: square"/>
   </g>
  </g>
 </g>
 <defs>
  <clipPath id="pa12a5fef4d">
   <rect x="35.96" y="5" width="175.04" height="98.4"/>
  </clipPath>
 </defs>
</svg>
