<?xml version="1.0" encoding="utf-8" standalone="no"?>
<!DOCTYPE svg PUBLIC "-//W3C//DTD SVG 1.1//EN"
  "http://www.w3.org/Graphics/SVG/1.1/DTD/svg11.dtd">
<svg xmlns:xlink="http://www.w3.org/1999/xlink" width="216pt" height="122.4pt" viewBox="0 0 216 122.4" xmlns="http://www.w3.org/2000/svg" version="1.1">
  <style>
    :root {
      --fg-color: #212529;
      --grid-color: rgba(33, 37, 41, 0.1);
    }
    @media (prefers-color-scheme: dark) {
      :root {
        --fg-color: #dee2e6;
        --grid-color: rgba(248, 249, 250, 0.15);
      }
    }
  </style>

 <metadata>
  <rdf:RDF xmlns:dc="http://purl.org/dc/elements/1.1/" xmlns:cc="http://creativecommons.org/ns#" xmlns:rdf="http://www.w3.org/1999/02/22-rdf-syntax-ns#">
   <cc:Work>
    <dc:type rdf:resource="http://purl.org/dc/dcmitype/StillImage"/>
    <dc:date>2026-06-30T04:48:22.705911</dc:date>
    <dc:format>image/svg+xml</dc:format>
    <dc:creator>
     <cc:Agent>
      <dc:title>Matplotlib v3.11.0, https://matplotlib.org/</dc:title>
     </cc:Agent>
    </dc:creator>
   </cc:Work>
  </rdf:RDF>
 </metadata>
 <defs>
  <style type="text/css">*{stroke-linejoin: round; stroke-linecap: butt}</style>
 </defs>
 <g id="figure_1">
  <g id="patch_1">
   <path d="M 0 122.4 
L 216 122.4 
L 216 0 
L 0 0 
L 0 122.4 
z
" style="fill: none; opacity: 0"/>
  </g>
  <g id="axes_1">
   <g id="patch_2">
    <path d="M 35.96 103.4 
L 211 103.4 
L 211 5.664937 
L 35.96 5.664937 
L 35.96 103.4 
z
" style="fill: none; opacity: 0"/>
   </g>
   <g id="matplotlib.axis_1">
    <g id="xtick_1">
     <g id="line2d_1">
      <path d="M 72.056377 103.4 
L 72.056377 5.664937 
" clip-path="url(#p3572d7a33b)" style="fill: none; stroke-dasharray: 2.96,1.28; stroke-dashoffset: 0; stroke: var(--grid-color); stroke-width: 0.8"/>
     </g>
     <g id="line2d_2">
      <defs>
       <path id="m4a036dc64d" d="M 0 0 
L 0 3.5 
" style="stroke: var(--fg-color); stroke-width: 0.8"/>
      </defs>
      <g>
       <use xlink:href="#m4a036dc64d" x="72.056377" y="103.4" style="fill: var(--fg-color); stroke: var(--fg-color); stroke-width: 0.8"/>
      </g>
     </g>
     <g id="text_1">
      <text style="font-size: 7px; font-family: 'DejaVu Sans', 'Bitstream Vera Sans', 'Computer Modern Sans Serif', 'Lucida Grande', 'Verdana', 'Geneva', 'Lucid', 'Arial', 'Helvetica', 'Avant Garde', sans-serif; text-anchor: middle; fill: var(--fg-color)" x="72.056377" y="115.718359" transform="rotate(-0 72.056377 115.718359)">02/2026</text>
     </g>
    </g>
    <g id="xtick_2">
     <g id="line2d_3">
      <path d="M 126.640628 103.4 
L 126.640628 5.664937 
" clip-path="url(#p3572d7a33b)" style="fill: none; stroke-dasharray: 2.96,1.28; stroke-dashoffset: 0; stroke: var(--grid-color); stroke-width: 0.8"/>
     </g>
     <g id="line2d_4">
      <g>
       <use xlink:href="#m4a036dc64d" x="126.640628" y="103.4" style="fill: var(--fg-color); stroke: var(--fg-color); stroke-width: 0.8"/>
      </g>
     </g>
     <g id="text_2">
      <text style="font-size: 7px; font-family: 'DejaVu Sans', 'Bitstream Vera Sans', 'Computer Modern Sans Serif', 'Lucida Grande', 'Verdana', 'Geneva', 'Lucid', 'Arial', 'Helvetica', 'Avant Garde', sans-serif; text-anchor: middle; fill: var(--fg-color)" x="126.640628" y="115.718359" transform="rotate(-0 126.640628 115.718359)">04/2026</text>
     </g>
    </g>
    <g id="xtick_3">
     <g id="line2d_5">
      <path d="M 183.075192 103.4 
L 183.075192 5.664937 
" clip-path="url(#p3572d7a33b)" style="fill: none; stroke-dasharray: 2.96,1.28; stroke-dashoffset: 0; stroke: var(--grid-color); stroke-width: 0.8"/>
     </g>
     <g id="line2d_6">
      <g>
       <use xlink:href="#m4a036dc64d" x="183.075192" y="103.4" style="fill: var(--fg-color); stroke: var(--fg-color); stroke-width: 0.8"/>
      </g>
     </g>
     <g id="text_3">
      <text style="font-size: 7px; font-family: 'DejaVu Sans', 'Bitstream Vera Sans', 'Computer Modern Sans Serif', 'Lucida Grande', 'Verdana', 'Geneva', 'Lucid', 'Arial', 'Helvetica', 'Avant Garde', sans-serif; text-anchor: middle; fill: var(--fg-color)" x="183.075192" y="115.718359" transform="rotate(-0 183.075192 115.718359)">06/2026</text>
     </g>
    </g>
   </g>
   <g id="matplotlib.axis_2">
    <g id="ytick_1">
     <g id="line2d_7">
      <path d="M 35.96 94.376851 
L 211 94.376851 
" clip-path="url(#p3572d7a33b)" style="fill: none; stroke-dasharray: 2.96,1.28; stroke-dashoffset: 0; stroke: var(--grid-color); stroke-width: 0.8"/>
     </g>
     <g id="line2d_8">
      <defs>
       <path id="mf5f141acc7" d="M 0 0 
L -3.5 0 
" style="stroke: var(--fg-color); stroke-width: 0.8"/>
      </defs>
      <g>
       <use xlink:href="#mf5f141acc7" x="35.96" y="94.376851" style="fill: var(--fg-color); stroke: var(--fg-color); stroke-width: 0.8"/>
      </g>
     </g>
     <g id="text_4">
      <text style="font-size: 7px; font-family: 'DejaVu Sans', 'Bitstream Vera Sans', 'Computer Modern Sans Serif', 'Lucida Grande', 'Verdana', 'Geneva', 'Lucid', 'Arial', 'Helvetica', 'Avant Garde', sans-serif; text-anchor: end; fill: var(--fg-color)" x="28.96" y="97.036031" transform="rotate(-0 28.96 97.036031)">100</text>
     </g>
    </g>
    <g id="ytick_2">
     <g id="line2d_9">
      <path d="M 35.96 72.71588 
L 211 72.71588 
" clip-path="url(#p3572d7a33b)" style="fill: none; stroke-dasharray: 2.96,1.28; stroke-dashoffset: 0; stroke: var(--grid-color); stroke-width: 0.8"/>
     </g>
     <g id="line2d_10">
      <g>
       <use xlink:href="#mf5f141acc7" x="35.96" y="72.71588" style="fill: var(--fg-color); stroke: var(--fg-color); stroke-width: 0.8"/>
      </g>
     </g>
     <g id="text_5">
      <text style="font-size: 7px; font-family: 'DejaVu Sans', 'Bitstream Vera Sans', 'Computer Modern Sans Serif', 'Lucida Grande', 'Verdana', 'Geneva', 'Lucid', 'Arial', 'Helvetica', 'Avant Garde', sans-serif; text-anchor: end; fill: var(--fg-color)" x="28.96" y="75.375059" transform="rotate(-0 28.96 75.375059)">200</text>
     </g>
    </g>
    <g id="ytick_3">
     <g id="line2d_11">
      <path d="M 35.96 51.054908 
L 211 51.054908 
" clip-path="url(#p3572d7a33b)" style="fill: none; stroke-dasharray: 2.96,1.28; stroke-dashoffset: 0; stroke: var(--grid-color); stroke-width: 0.8"/>
     </g>
     <g id="line2d_12">
      <g>
       <use xlink:href="#mf5f141acc7" x="35.96" y="51.054908" style="fill: var(--fg-color); stroke: var(--fg-color); stroke-width: 0.8"/>
      </g>
     </g>
     <g id="text_6">
      <text style="font-size: 7px; font-family: 'DejaVu Sans', 'Bitstream Vera Sans', 'Computer Modern Sans Serif', 'Lucida Grande', 'Verdana', 'Geneva', 'Lucid', 'Arial', 'Helvetica', 'Avant Garde', sans-serif; text-anchor: end; fill: var(--fg-color)" x="28.96" y="53.714088" transform="rotate(-0 28.96 53.714088)">300</text>
     </g>
    </g>
    <g id="ytick_4">
     <g id="line2d_13">
      <path d="M 35.96 29.393936 
L 211 29.393936 
" clip-path="url(#p3572d7a33b)" style="fill: none; stroke-dasharray: 2.96,1.28; stroke-dashoffset: 0; stroke: var(--grid-color); stroke-width: 0.8"/>
     </g>
     <g id="line2d_14">
      <g>
       <use xlink:href="#mf5f141acc7" x="35.96" y="29.393936" style="fill: var(--fg-color); stroke: var(--fg-color); stroke-width: 0.8"/>
      </g>
     </g>
     <g id="text_7">
      <text style="font-size: 7px; font-family: 'DejaVu Sans', 'Bitstream Vera Sans', 'Computer Modern Sans Serif', 'Lucida Grande', 'Verdana', 'Geneva', 'Lucid', 'Arial', 'Helvetica', 'Avant Garde', sans-serif; text-anchor: end; fill: var(--fg-color)" x="28.96" y="32.053116" transform="rotate(-0 28.96 32.053116)">400</text>
     </g>
    </g>
    <g id="ytick_5">
     <g id="line2d_15">
      <path d="M 35.96 7.732964 
L 211 7.732964 
" clip-path="url(#p3572d7a33b)" style="fill: none; stroke-dasharray: 2.96,1.28; stroke-dashoffset: 0; stroke: var(--grid-color); stroke-width: 0.8"/>
     </g>
     <g id="line2d_16">
      <g>
       <use xlink:href="#mf5f141acc7" x="35.96" y="7.732964" style="fill: var(--fg-color); stroke: var(--fg-color); stroke-width: 0.8"/>
      </g>
     </g>
     <g id="text_8">
      <text style="font-size: 7px; font-family: 'DejaVu Sans', 'Bitstream Vera Sans', 'Computer Modern Sans Serif', 'Lucida Grande', 'Verdana', 'Geneva', 'Lucid', 'Arial', 'Helvetica', 'Avant Garde', sans-serif; text-anchor: end; fill: var(--fg-color)" x="28.96" y="10.392144" transform="rotate(-0 28.96 10.392144)">500</text>
     </g>
    </g>
    <g id="text_9">
     <text style="font-size: 7px; font-family: 'DejaVu Sans', 'Bitstream Vera Sans', 'Computer Modern Sans Serif', 'Lucida Grande', 'Verdana', 'Geneva', 'Lucid', 'Arial', 'Helvetica', 'Avant Garde', sans-serif; text-anchor: middle; fill: var(--fg-color)" x="9.917109" y="54.532469" transform="rotate(-90 9.917109 54.532469)">ms</text>
    </g>
   </g>
   <g id="line2d_17">
    <path d="M 43.916364 54.223258 
L 45.193108 60.171144 
L 45.766628 57.377529 
L 46.691788 63.49632 
L 47.616947 55.44732 
L 48.542109 57.332691 
L 49.467263 54.001883 
L 50.392418 60.628624 
L 51.317566 58.375233 
L 52.242732 56.275635 
L 53.167891 59.953018 
L 54.093049 58.974592 
L 55.018206 61.655571 
L 55.943359 57.708509 
L 56.868517 60.351364 
L 57.793676 57.452259 
L 58.718827 60.762489 
L 59.643987 62.261861 
L 60.569143 59.944354 
L 61.494301 61.198958 
L 62.419457 57.542802 
L 63.344613 55.427392 
L 64.269773 58.544189 
L 65.194924 58.578413 
L 66.120079 60.303926 
L 67.045243 60.443639 
L 67.970398 52.489297 
L 68.895557 58.06938 
L 69.82071 58.898562 
L 70.74585 60.627325 
L 71.671025 59.393949 
L 72.596178 48.429165 
L 73.521341 56.588853 
L 74.446495 55.039227 
L 75.371653 54.076397 
L 76.296805 57.72757 
L 77.221971 56.741563 
L 78.147114 57.022506 
L 79.072277 58.700798 
L 79.997435 56.285816 
L 80.922594 53.048584 
L 81.847735 60.826605 
L 82.772905 58.202162 
L 83.698046 57.760712 
L 84.623219 59.249037 
L 85.548376 60.349198 
L 86.473535 58.708812 
L 87.398688 62.899994 
L 88.323852 56.705822 
L 97.76512 50.348544 
L 98.500856 50.077348 
L 99.426031 47.729515 
L 100.351186 49.591059 
L 101.276348 57.424317 
L 102.201502 54.417341 
L 103.126656 53.130462 
L 104.051812 56.433327 
L 104.976967 55.898301 
L 105.902123 59.456332 
L 106.827282 56.868929 
L 107.752435 57.452043 
L 108.677594 58.145194 
L 109.602753 58.162523 
L 110.527909 58.456895 
L 111.453063 58.172487 
L 112.378223 55.284213 
L 113.303377 57.425616 
L 114.228537 60.88379 
L 115.153695 58.497618 
L 116.078848 57.087055 
L 117.004011 57.196876 
L 117.929158 61.184228 
L 118.854316 55.976281 
L 119.779481 59.306222 
L 120.704637 60.785233 
L 121.629794 19.269598 
L 122.554943 48.751913 
L 123.480104 55.46075 
L 124.405261 53.993002 
L 125.330416 49.343258 
L 126.255574 51.55376 
L 129.9562 52.59327 
L 130.881363 55.685374 
L 131.806516 57.161136 
L 132.731673 58.627584 
L 133.656831 50.269914 
L 134.581987 59.595829 
L 135.507147 62.679485 
L 136.432285 53.822747 
L 137.357455 55.150781 
L 138.282617 56.611164 
L 139.20777 54.167806 
L 140.13293 54.828033 
L 141.058084 51.919614 
L 141.983242 56.996946 
L 142.908395 57.237599 
L 143.833556 53.072194 
L 144.758724 58.743253 
L 145.683869 13.334492 
L 146.609028 53.472272 
L 147.534182 54.399795 
L 148.459339 57.061929 
L 149.384497 44.265926 
L 150.309651 55.062621 
L 151.234811 52.2246 
L 152.159963 46.693904 
L 179.91473 46.693904 
L 188.548948 46.723797 
L 189.166282 54.987241 
L 190.091439 51.635422 
L 191.016594 52.59522 
L 191.94175 48.062228 
L 192.866913 54.798574 
L 193.792066 59.211347 
L 194.717222 54.742688 
L 195.642377 56.383507 
L 196.567536 55.058722 
L 197.492695 55.658731 
L 198.417852 10.10744 
L 199.343013 55.490425 
L 200.268162 55.543494 
L 201.193322 52.617747 
L 202.118478 51.768853 
L 203.043636 49.495751 
" clip-path="url(#p3572d7a33b)" style="fill: none; stroke: #339af0; stroke-width: 1.2; stroke-linecap: square"/>
   </g>
   <g id="line2d_18">
    <path d="M 43.916364 97.823112 
L 45.193108 96.064891 
L 45.766628 97.323177 
L 46.691788 97.94333 
L 47.616947 98.279076 
L 48.542109 97.742533 
L 49.467263 97.005627 
L 50.392418 98.244851 
L 51.317566 97.517476 
L 52.242732 97.618632 
L 53.167891 97.759645 
L 54.093049 98.787025 
L 55.018206 98.365719 
L 55.943359 98.49157 
L 56.868517 98.44045 
L 57.793676 97.890478 
L 58.718827 97.61625 
L 59.643987 97.257327 
L 60.569143 98.132431 
L 61.494301 98.216692 
L 62.419457 97.300433 
L 63.344613 96.617029 
L 64.269773 97.025988 
L 65.194924 97.591989 
L 66.120079 97.797119 
L 67.045243 98.13503 
L 67.970398 97.024905 
L 68.895557 98.387597 
L 69.82071 98.592726 
L 70.74585 98.459945 
L 71.671025 98.13633 
L 72.596178 97.640293 
L 73.521341 97.498847 
L 74.446495 97.483035 
L 75.371653 98.356189 
L 76.296805 96.943243 
L 77.221971 97.183897 
L 78.147114 97.668236 
L 79.072277 98.172504 
L 79.997435 96.992414 
L 80.922594 96.025251 
L 81.847735 98.321748 
L 82.772905 98.40016 
L 83.698046 97.88268 
L 84.623219 97.175882 
L 85.548376 98.218858 
L 86.473535 98.068314 
L 87.398688 97.526357 
L 88.323852 97.342672 
L 97.76512 97.823329 
L 98.500856 96.372477 
L 99.426031 97.27184 
L 100.351186 97.542169 
L 101.276348 98.354022 
L 102.201502 96.826924 
L 103.126656 96.403019 
L 104.051812 98.216042 
L 104.976967 97.547368 
L 105.902123 97.158987 
L 106.827282 96.42208 
L 107.752435 97.557549 
L 108.677594 98.641464 
L 109.602753 97.760079 
L 110.527909 97.77914 
L 111.453063 98.654677 
L 112.378223 95.541345 
L 113.303377 97.698995 
L 114.228537 97.442312 
L 115.153695 97.919503 
L 116.078848 97.454659 
L 117.004011 97.34787 
L 117.929158 98.957497 
L 118.854316 97.274223 
L 119.779481 98.284491 
L 120.704637 96.843386 
L 121.629794 97.711558 
L 122.554943 97.453792 
L 123.480104 97.506645 
L 124.405261 98.065065 
L 125.330416 97.870116 
L 126.255574 97.376679 
L 129.9562 97.901092 
L 130.881363 96.884542 
L 131.806516 97.93185 
L 132.731673 98.030841 
L 133.656831 96.135289 
L 134.581987 97.592856 
L 135.507147 97.040934 
L 136.432285 98.13438 
L 137.357455 97.554299 
L 138.282617 97.499064 
L 139.20777 96.578039 
L 140.13293 96.571108 
L 141.058084 96.27197 
L 141.983242 97.891128 
L 142.908395 97.39964 
L 143.833556 95.900268 
L 144.758724 98.011129 
L 145.683869 96.99523 
L 146.609028 96.403452 
L 147.534182 97.859069 
L 148.459339 97.302382 
L 149.384497 96.685478 
L 150.309651 96.646921 
L 151.234811 95.345963 
L 152.159963 96.135289 
L 179.91473 96.135289 
L 188.548948 96.959489 
L 189.166282 97.17025 
L 190.091439 97.067144 
L 191.016594 97.485634 
L 191.94175 97.866217 
L 192.866913 96.741796 
L 193.792066 98.050769 
L 194.717222 97.741667 
L 195.642377 97.670835 
L 196.567536 97.198626 
L 197.492695 96.978551 
L 198.417852 98.84421 
L 199.343013 97.854954 
L 200.268162 98.871503 
L 201.193322 98.445648 
L 202.118478 97.745566 
L 203.043636 98.171637 
" clip-path="url(#p3572d7a33b)" style="fill: none; stroke: #ff6b6b; stroke-width: 1.2; stroke-linecap: square"/>
   </g>
   <g id="patch_3">
    <path d="M 35.96 103.4 
L 35.96 5.664937 
" style="fill: none; stroke: var(--fg-color); stroke-width: 0.8; stroke-linejoin: miter; stroke-linecap: square"/>
   </g>
   <g id="patch_4">
    <path d="M 35.96 103.4 
L 211 103.4 
" style="fill: none; stroke: var(--fg-color); stroke-width: 0.8; stroke-linejoin: miter; stroke-linecap: square"/>
   </g>
  </g>
 </g>
 <defs>
  <clipPath id="p3572d7a33b">
   <rect x="35.96" y="5.664937" width="175.04" height="97.735063"/>
  </clipPath>
 </defs>
</svg>
