<?xml version="1.0" encoding="utf-8" standalone="no"?>
<!DOCTYPE svg PUBLIC "-//W3C//DTD SVG 1.1//EN"
  "http://www.w3.org/Graphics/SVG/1.1/DTD/svg11.dtd">
<svg xmlns:xlink="http://www.w3.org/1999/xlink" width="216pt" height="122.4pt" viewBox="0 0 216 122.4" xmlns="http://www.w3.org/2000/svg" version="1.1">
  <style>
    :root {
      --fg-color: #212529;
      --grid-color: rgba(33, 37, 41, 0.1);
    }
    @media (prefers-color-scheme: dark) {
      :root {
        --fg-color: #dee2e6;
        --grid-color: rgba(248, 249, 250, 0.15);
      }
    }
  </style>

 <metadata>
  <rdf:RDF xmlns:dc="http://purl.org/dc/elements/1.1/" xmlns:cc="http://creativecommons.org/ns#" xmlns:rdf="http://www.w3.org/1999/02/22-rdf-syntax-ns#">
   <cc:Work>
    <dc:type rdf:resource="http://purl.org/dc/dcmitype/StillImage"/>
    <dc:date>2026-06-30T15:37:50.520549</dc:date>
    <dc:format>image/svg+xml</dc:format>
    <dc:creator>
     <cc:Agent>
      <dc:title>Matplotlib v3.11.0, https://matplotlib.org/</dc:title>
     </cc:Agent>
    </dc:creator>
   </cc:Work>
  </rdf:RDF>
 </metadata>
 <defs>
  <style type="text/css">*{stroke-linejoin: round; stroke-linecap: butt}</style>
 </defs>
 <g id="figure_1">
  <g id="patch_1">
   <path d="M 0 122.4 
L 216 122.4 
L 216 0 
L 0 0 
L 0 122.4 
z
" style="fill: none; opacity: 0"/>
  </g>
  <g id="axes_1">
   <g id="patch_2">
    <path d="M 40.28 103.4 
L 211 103.4 
L 211 5 
L 40.28 5 
L 40.28 103.4 
z
" style="fill: none; opacity: 0"/>
   </g>
   <g id="matplotlib.axis_1">
    <g id="xtick_1">
     <g id="line2d_1">
      <path d="M 73.269255 103.4 
L 73.269255 5 
" clip-path="url(#p52cfa7b89e)" style="fill: none; stroke-dasharray: 2.96,1.28; stroke-dashoffset: 0; stroke: var(--grid-color); stroke-width: 0.8"/>
     </g>
     <g id="line2d_2">
      <defs>
       <path id="mbcba36afa7" d="M 0 0 
L 0 3.5 
" style="stroke: var(--fg-color); stroke-width: 0.8"/>
      </defs>
      <g>
       <use xlink:href="#mbcba36afa7" x="73.269255" y="103.4" style="fill: var(--fg-color); stroke: var(--fg-color); stroke-width: 0.8"/>
      </g>
     </g>
     <g id="text_1">
      <text style="font-size: 7px; font-family: 'DejaVu Sans', 'Bitstream Vera Sans', 'Computer Modern Sans Serif', 'Lucida Grande', 'Verdana', 'Geneva', 'Lucid', 'Arial', 'Helvetica', 'Avant Garde', sans-serif; text-anchor: middle; fill: var(--fg-color)" x="73.269255" y="115.718359" transform="rotate(-0 73.269255 115.718359)">02/2026</text>
     </g>
    </g>
    <g id="xtick_2">
     <g id="line2d_3">
      <path d="M 124.533307 103.4 
L 124.533307 5 
" clip-path="url(#p52cfa7b89e)" style="fill: none; stroke-dasharray: 2.96,1.28; stroke-dashoffset: 0; stroke: var(--grid-color); stroke-width: 0.8"/>
     </g>
     <g id="line2d_4">
      <g>
       <use xlink:href="#mbcba36afa7" x="124.533307" y="103.4" style="fill: var(--fg-color); stroke: var(--fg-color); stroke-width: 0.8"/>
      </g>
     </g>
     <g id="text_2">
      <text style="font-size: 7px; font-family: 'DejaVu Sans', 'Bitstream Vera Sans', 'Computer Modern Sans Serif', 'Lucida Grande', 'Verdana', 'Geneva', 'Lucid', 'Arial', 'Helvetica', 'Avant Garde', sans-serif; text-anchor: middle; fill: var(--fg-color)" x="124.533307" y="115.718359" transform="rotate(-0 124.533307 115.718359)">04/2026</text>
     </g>
    </g>
    <g id="xtick_3">
     <g id="line2d_5">
      <path d="M 177.535122 103.4 
L 177.535122 5 
" clip-path="url(#p52cfa7b89e)" style="fill: none; stroke-dasharray: 2.96,1.28; stroke-dashoffset: 0; stroke: var(--grid-color); stroke-width: 0.8"/>
     </g>
     <g id="line2d_6">
      <g>
       <use xlink:href="#mbcba36afa7" x="177.535122" y="103.4" style="fill: var(--fg-color); stroke: var(--fg-color); stroke-width: 0.8"/>
      </g>
     </g>
     <g id="text_3">
      <text style="font-size: 7px; font-family: 'DejaVu Sans', 'Bitstream Vera Sans', 'Computer Modern Sans Serif', 'Lucida Grande', 'Verdana', 'Geneva', 'Lucid', 'Arial', 'Helvetica', 'Avant Garde', sans-serif; text-anchor: middle; fill: var(--fg-color)" x="177.535122" y="115.718359" transform="rotate(-0 177.535122 115.718359)">06/2026</text>
     </g>
    </g>
   </g>
   <g id="matplotlib.axis_2">
    <g id="ytick_1">
     <g id="line2d_7">
      <path d="M 40.28 99.45786 
L 211 99.45786 
" clip-path="url(#p52cfa7b89e)" style="fill: none; stroke-dasharray: 2.96,1.28; stroke-dashoffset: 0; stroke: var(--grid-color); stroke-width: 0.8"/>
     </g>
     <g id="line2d_8">
      <defs>
       <path id="m3bd1400933" d="M 0 0 
L -3.5 0 
" style="stroke: var(--fg-color); stroke-width: 0.8"/>
      </defs>
      <g>
       <use xlink:href="#m3bd1400933" x="40.28" y="99.45786" style="fill: var(--fg-color); stroke: var(--fg-color); stroke-width: 0.8"/>
      </g>
     </g>
     <g id="text_4">
      <text style="font-size: 7px; font-family: 'DejaVu Sans', 'Bitstream Vera Sans', 'Computer Modern Sans Serif', 'Lucida Grande', 'Verdana', 'Geneva', 'Lucid', 'Arial', 'Helvetica', 'Avant Garde', sans-serif; text-anchor: end; fill: var(--fg-color)" x="33.28" y="102.11704" transform="rotate(-0 33.28 102.11704)">0</text>
     </g>
    </g>
    <g id="ytick_2">
     <g id="line2d_9">
      <path d="M 40.28 83.089293 
L 211 83.089293 
" clip-path="url(#p52cfa7b89e)" style="fill: none; stroke-dasharray: 2.96,1.28; stroke-dashoffset: 0; stroke: var(--grid-color); stroke-width: 0.8"/>
     </g>
     <g id="line2d_10">
      <g>
       <use xlink:href="#m3bd1400933" x="40.28" y="83.089293" style="fill: var(--fg-color); stroke: var(--fg-color); stroke-width: 0.8"/>
      </g>
     </g>
     <g id="text_5">
      <text style="font-size: 7px; font-family: 'DejaVu Sans', 'Bitstream Vera Sans', 'Computer Modern Sans Serif', 'Lucida Grande', 'Verdana', 'Geneva', 'Lucid', 'Arial', 'Helvetica', 'Avant Garde', sans-serif; text-anchor: end; fill: var(--fg-color)" x="33.28" y="85.748473" transform="rotate(-0 33.28 85.748473)">200</text>
     </g>
    </g>
    <g id="ytick_3">
     <g id="line2d_11">
      <path d="M 40.28 66.720726 
L 211 66.720726 
" clip-path="url(#p52cfa7b89e)" style="fill: none; stroke-dasharray: 2.96,1.28; stroke-dashoffset: 0; stroke: var(--grid-color); stroke-width: 0.8"/>
     </g>
     <g id="line2d_12">
      <g>
       <use xlink:href="#m3bd1400933" x="40.28" y="66.720726" style="fill: var(--fg-color); stroke: var(--fg-color); stroke-width: 0.8"/>
      </g>
     </g>
     <g id="text_6">
      <text style="font-size: 7px; font-family: 'DejaVu Sans', 'Bitstream Vera Sans', 'Computer Modern Sans Serif', 'Lucida Grande', 'Verdana', 'Geneva', 'Lucid', 'Arial', 'Helvetica', 'Avant Garde', sans-serif; text-anchor: end; fill: var(--fg-color)" x="33.28" y="69.379906" transform="rotate(-0 33.28 69.379906)">400</text>
     </g>
    </g>
    <g id="ytick_4">
     <g id="line2d_13">
      <path d="M 40.28 50.352159 
L 211 50.352159 
" clip-path="url(#p52cfa7b89e)" style="fill: none; stroke-dasharray: 2.96,1.28; stroke-dashoffset: 0; stroke: var(--grid-color); stroke-width: 0.8"/>
     </g>
     <g id="line2d_14">
      <g>
       <use xlink:href="#m3bd1400933" x="40.28" y="50.352159" style="fill: var(--fg-color); stroke: var(--fg-color); stroke-width: 0.8"/>
      </g>
     </g>
     <g id="text_7">
      <text style="font-size: 7px; font-family: 'DejaVu Sans', 'Bitstream Vera Sans', 'Computer Modern Sans Serif', 'Lucida Grande', 'Verdana', 'Geneva', 'Lucid', 'Arial', 'Helvetica', 'Avant Garde', sans-serif; text-anchor: end; fill: var(--fg-color)" x="33.28" y="53.011339" transform="rotate(-0 33.28 53.011339)">600</text>
     </g>
    </g>
    <g id="ytick_5">
     <g id="line2d_15">
      <path d="M 40.28 33.983592 
L 211 33.983592 
" clip-path="url(#p52cfa7b89e)" style="fill: none; stroke-dasharray: 2.96,1.28; stroke-dashoffset: 0; stroke: var(--grid-color); stroke-width: 0.8"/>
     </g>
     <g id="line2d_16">
      <g>
       <use xlink:href="#m3bd1400933" x="40.28" y="33.983592" style="fill: var(--fg-color); stroke: var(--fg-color); stroke-width: 0.8"/>
      </g>
     </g>
     <g id="text_8">
      <text style="font-size: 7px; font-family: 'DejaVu Sans', 'Bitstream Vera Sans', 'Computer Modern Sans Serif', 'Lucida Grande', 'Verdana', 'Geneva', 'Lucid', 'Arial', 'Helvetica', 'Avant Garde', sans-serif; text-anchor: end; fill: var(--fg-color)" x="33.28" y="36.642772" transform="rotate(-0 33.28 36.642772)">800</text>
     </g>
    </g>
    <g id="ytick_6">
     <g id="line2d_17">
      <path d="M 40.28 17.615025 
L 211 17.615025 
" clip-path="url(#p52cfa7b89e)" style="fill: none; stroke-dasharray: 2.96,1.28; stroke-dashoffset: 0; stroke: var(--grid-color); stroke-width: 0.8"/>
     </g>
     <g id="line2d_18">
      <g>
       <use xlink:href="#m3bd1400933" x="40.28" y="17.615025" style="fill: var(--fg-color); stroke: var(--fg-color); stroke-width: 0.8"/>
      </g>
     </g>
     <g id="text_9">
      <text style="font-size: 7px; font-family: 'DejaVu Sans', 'Bitstream Vera Sans', 'Computer Modern Sans Serif', 'Lucida Grande', 'Verdana', 'Geneva', 'Lucid', 'Arial', 'Helvetica', 'Avant Garde', sans-serif; text-anchor: end; fill: var(--fg-color)" x="33.28" y="20.274205" transform="rotate(-0 33.28 20.274205)">1000</text>
     </g>
    </g>
    <g id="text_10">
     <text style="font-size: 7px; font-family: 'DejaVu Sans', 'Bitstream Vera Sans', 'Computer Modern Sans Serif', 'Lucida Grande', 'Verdana', 'Geneva', 'Lucid', 'Arial', 'Helvetica', 'Avant Garde', sans-serif; text-anchor: middle; fill: var(--fg-color)" x="9.783359" y="54.2" transform="rotate(-90 9.783359 54.2)">ms</text>
    </g>
   </g>
   <g id="line2d_19">
    <path d="M 48.04 41.018229 
L 48.578635 86.850544 
L 49.44752 86.324295 
L 50.316404 86.331088 
L 51.185291 85.501038 
L 52.054171 85.362723 
L 52.923051 83.9565 
L 53.791926 85.442111 
L 54.660816 87.448897 
L 55.529701 85.558655 
L 56.398584 85.361741 
L 57.267466 84.476038 
L 58.136345 87.536387 
L 59.005229 84.680481 
L 59.874113 85.108274 
L 60.742989 84.213977 
L 61.611875 85.92662 
L 62.480757 86.877552 
L 63.349639 85.798045 
L 64.218521 86.281573 
L 65.087403 85.303469 
L 65.956288 85.069398 
L 66.825164 88.159948 
L 67.694045 87.819563 
L 68.562934 85.726515 
L 69.431815 86.366935 
L 70.300699 86.481924 
L 71.169578 87.02978 
L 72.038444 86.270606 
L 72.907344 82.96481 
L 73.776222 86.174522 
L 74.64511 85.727742 
L 75.513989 87.290286 
L 76.382873 87.82742 
L 77.251751 87.390707 
L 78.120642 86.262503 
L 78.989511 86.713375 
L 79.858399 77.567766 
L 80.727282 86.537332 
L 81.596167 84.714037 
L 82.465034 87.371474 
L 83.333929 85.63616 
L 84.202796 86.885491 
L 85.071693 86.738501 
L 85.940576 87.551119 
L 86.80946 86.462282 
L 87.678339 84.879687 
L 88.547228 83.693129 
L 97.414212 87.387515 
L 98.105195 87.470422 
L 98.974094 86.954239 
L 99.842975 85.207549 
L 100.711861 86.830493 
L 101.580741 86.630796 
L 102.449621 87.501031 
L 103.318502 86.574652 
L 104.187383 86.437401 
L 105.056264 85.710964 
L 105.925149 86.26815 
L 106.794028 85.809503 
L 107.662912 85.546542 
L 108.531796 85.984892 
L 109.400677 86.086459 
L 110.269557 86.664433 
L 111.138443 87.762273 
L 112.007322 87.670937 
L 112.876207 86.957022 
L 113.74509 85.951173 
L 114.61397 86.600678 
L 115.482857 79.636753 
L 116.35173 85.957393 
L 117.220613 86.970689 
L 118.089503 85.828163 
L 118.958385 86.455243 
L 119.827267 86.670572 
L 120.696142 78.807276 
L 121.565028 85.785687 
L 122.433911 86.44845 
L 123.302792 85.766863 
L 124.171675 84.88026 
L 127.647202 86.176568 
L 128.516091 86.936561 
L 129.384969 85.209677 
L 130.253852 86.576289 
L 131.122735 81.949959 
L 131.991617 70.665796 
L 132.860502 86.331661 
L 133.729367 85.910415 
L 134.598261 86.87166 
L 135.467148 84.465971 
L 136.336027 84.731797 
L 137.204912 84.564837 
L 138.073792 86.459253 
L 138.942675 84.268648 
L 139.811554 84.247451 
L 140.680439 86.001507 
L 141.549333 86.300724 
L 142.418204 86.300397 
L 143.287088 86.146941 
L 144.155968 73.513927 
L 145.02485 85.743129 
L 145.893733 83.285798 
L 146.762613 85.274169 
L 147.631498 86.014028 
L 148.500376 83.92589 
L 174.566902 83.92589 
L 182.675926 85.83201 
L 183.25571 87.28382 
L 184.124592 84.660184 
L 184.993472 9.472727 
L 185.862354 84.73949 
L 186.731242 39.21916 
L 187.600121 86.48798 
L 188.469002 86.769274 
L 189.337882 86.874524 
L 190.206767 21.687034 
L 191.075651 85.730852 
L 191.944534 17.959256 
L 192.813419 83.822687 
L 193.682295 36.623924 
L 194.55118 29.894724 
L 195.420061 84.931166 
L 196.288945 84.374716 
L 197.157827 87.375811 
L 198.026709 86.758716 
L 198.895592 19.253764 
L 199.764473 68.060493 
L 200.633356 85.978754 
L 201.502235 85.718576 
L 202.371116 86.928458 
L 203.24 84.870111 
L 203.24 84.870111 
" clip-path="url(#p52cfa7b89e)" style="fill: none; stroke: #339af0; stroke-width: 1.2; stroke-linecap: square"/>
   </g>
   <g id="line2d_20">
    <path d="M 48.04 96.620123 
L 48.578635 98.793951 
L 49.44752 98.82055 
L 50.316404 98.6842 
L 51.185291 98.803854 
L 52.054171 98.516667 
L 52.923051 98.755321 
L 53.791926 98.758758 
L 54.660816 98.902965 
L 57.267466 98.640414 
L 58.136345 98.884714 
L 59.005229 98.668568 
L 59.874113 98.596218 
L 61.611875 98.834545 
L 62.480757 98.848458 
L 64.218521 98.682317 
L 65.956288 98.831844 
L 67.694045 98.828816 
L 72.038444 98.86499 
L 72.907344 98.490478 
L 74.64511 98.837164 
L 77.251751 98.869655 
L 78.989511 98.777664 
L 79.858399 98.859752 
L 80.727282 98.690829 
L 82.465034 98.906976 
L 83.333929 98.82767 
L 84.202796 98.871538 
L 85.940576 98.741735 
L 86.80946 98.729295 
L 87.678339 98.841992 
L 88.547228 98.795833 
L 98.974094 98.826688 
L 99.842975 98.591144 
L 100.711861 98.831435 
L 104.187383 98.814002 
L 105.056264 98.702123 
L 106.794028 98.784948 
L 107.662912 98.392757 
L 108.531796 98.829225 
L 111.138443 98.797879 
L 112.007322 98.904684 
L 112.876207 98.823005 
L 114.61397 98.910086 
L 116.35173 98.623472 
L 117.220613 98.853696 
L 118.958385 98.877349 
L 119.827267 98.698276 
L 120.696142 97.796041 
L 121.565028 98.883078 
L 124.171675 98.785275 
L 131.122735 98.849031 
L 131.991617 98.694839 
L 132.860502 98.854351 
L 134.598261 98.885778 
L 135.467148 98.583778 
L 138.073792 98.891344 
L 138.942675 98.773572 
L 141.549333 98.857461 
L 142.418204 98.726021 
L 143.287088 98.835036 
L 144.155968 98.674788 
L 145.02485 98.846903 
L 146.762613 98.774227 
L 147.631498 98.886761 
L 148.500376 98.81302 
L 183.25571 98.832826 
L 184.124592 98.527798 
L 184.993472 95.683596 
L 185.862354 98.7775 
L 186.731242 96.322133 
L 187.600121 98.794605 
L 188.469002 98.856233 
L 189.337882 98.764651 
L 190.206767 95.695627 
L 191.075651 98.642623 
L 191.944534 95.282566 
L 192.813419 98.698195 
L 193.682295 95.389534 
L 194.55118 96.320169 
L 195.420061 98.633539 
L 197.157827 98.859916 
L 198.026709 98.806227 
L 198.895592 95.213081 
L 199.764473 98.293318 
L 200.633356 98.817194 
L 202.371116 98.850832 
L 203.24 98.75262 
L 203.24 98.75262 
" clip-path="url(#p52cfa7b89e)" style="fill: none; stroke: #ff6b6b; stroke-width: 1.2; stroke-linecap: square"/>
   </g>
   <g id="patch_3">
    <path d="M 40.28 103.4 
L 40.28 5 
" style="fill: none; stroke: var(--fg-color); stroke-width: 0.8; stroke-linejoin: miter; stroke-linecap: square"/>
   </g>
   <g id="patch_4">
    <path d="M 40.28 103.4 
L 211 103.4 
" style="fill: none; stroke: var(--fg-color); stroke-width: 0.8; stroke-linejoin: miter; stroke-linecap: square"/>
   </g>
  </g>
 </g>
 <defs>
  <clipPath id="p52cfa7b89e">
   <rect x="40.28" y="5" width="170.72" height="98.4"/>
  </clipPath>
 </defs>
</svg>
