<?xml version="1.0" encoding="utf-8" standalone="no"?>
<!DOCTYPE svg PUBLIC "-//W3C//DTD SVG 1.1//EN"
  "http://www.w3.org/Graphics/SVG/1.1/DTD/svg11.dtd">
<svg xmlns:xlink="http://www.w3.org/1999/xlink" width="216pt" height="122.4pt" viewBox="0 0 216 122.4" xmlns="http://www.w3.org/2000/svg" version="1.1">
  <style>
    :root {
      --fg-color: #212529;
      --grid-color: rgba(33, 37, 41, 0.1);
    }
    @media (prefers-color-scheme: dark) {
      :root {
        --fg-color: #dee2e6;
        --grid-color: rgba(248, 249, 250, 0.15);
      }
    }
  </style>

 <metadata>
  <rdf:RDF xmlns:dc="http://purl.org/dc/elements/1.1/" xmlns:cc="http://creativecommons.org/ns#" xmlns:rdf="http://www.w3.org/1999/02/22-rdf-syntax-ns#">
   <cc:Work>
    <dc:type rdf:resource="http://purl.org/dc/dcmitype/StillImage"/>
    <dc:date>2026-06-30T15:37:56.841607</dc:date>
    <dc:format>image/svg+xml</dc:format>
    <dc:creator>
     <cc:Agent>
      <dc:title>Matplotlib v3.11.0, https://matplotlib.org/</dc:title>
     </cc:Agent>
    </dc:creator>
   </cc:Work>
  </rdf:RDF>
 </metadata>
 <defs>
  <style type="text/css">*{stroke-linejoin: round; stroke-linecap: butt}</style>
 </defs>
 <g id="figure_1">
  <g id="patch_1">
   <path d="M 0 122.4 
L 216 122.4 
L 216 0 
L 0 0 
L 0 122.4 
z
" style="fill: none; opacity: 0"/>
  </g>
  <g id="axes_1">
   <g id="patch_2">
    <path d="M 35.96 103.4 
L 211 103.4 
L 211 5 
L 35.96 5 
L 35.96 103.4 
z
" style="fill: none; opacity: 0"/>
   </g>
   <g id="matplotlib.axis_1">
    <g id="xtick_1">
     <g id="line2d_1">
      <path d="M 69.784035 103.4 
L 69.784035 5 
" clip-path="url(#p2f4b9b5b04)" style="fill: none; stroke-dasharray: 2.96,1.28; stroke-dashoffset: 0; stroke: var(--grid-color); stroke-width: 0.8"/>
     </g>
     <g id="line2d_2">
      <defs>
       <path id="m6c7f2515fc" d="M 0 0 
L 0 3.5 
" style="stroke: var(--fg-color); stroke-width: 0.8"/>
      </defs>
      <g>
       <use xlink:href="#m6c7f2515fc" x="69.784035" y="103.4" style="fill: var(--fg-color); stroke: var(--fg-color); stroke-width: 0.8"/>
      </g>
     </g>
     <g id="text_1">
      <text style="font-size: 7px; font-family: 'DejaVu Sans', 'Bitstream Vera Sans', 'Computer Modern Sans Serif', 'Lucida Grande', 'Verdana', 'Geneva', 'Lucid', 'Arial', 'Helvetica', 'Avant Garde', sans-serif; text-anchor: middle; fill: var(--fg-color)" x="69.784035" y="115.718359" transform="rotate(-0 69.784035 115.718359)">02/2026</text>
     </g>
    </g>
    <g id="xtick_2">
     <g id="line2d_3">
      <path d="M 122.345302 103.4 
L 122.345302 5 
" clip-path="url(#p2f4b9b5b04)" style="fill: none; stroke-dasharray: 2.96,1.28; stroke-dashoffset: 0; stroke: var(--grid-color); stroke-width: 0.8"/>
     </g>
     <g id="line2d_4">
      <g>
       <use xlink:href="#m6c7f2515fc" x="122.345302" y="103.4" style="fill: var(--fg-color); stroke: var(--fg-color); stroke-width: 0.8"/>
      </g>
     </g>
     <g id="text_2">
      <text style="font-size: 7px; font-family: 'DejaVu Sans', 'Bitstream Vera Sans', 'Computer Modern Sans Serif', 'Lucida Grande', 'Verdana', 'Geneva', 'Lucid', 'Arial', 'Helvetica', 'Avant Garde', sans-serif; text-anchor: middle; fill: var(--fg-color)" x="122.345302" y="115.718359" transform="rotate(-0 122.345302 115.718359)">04/2026</text>
     </g>
    </g>
    <g id="xtick_3">
     <g id="line2d_5">
      <path d="M 176.688307 103.4 
L 176.688307 5 
" clip-path="url(#p2f4b9b5b04)" style="fill: none; stroke-dasharray: 2.96,1.28; stroke-dashoffset: 0; stroke: var(--grid-color); stroke-width: 0.8"/>
     </g>
     <g id="line2d_6">
      <g>
       <use xlink:href="#m6c7f2515fc" x="176.688307" y="103.4" style="fill: var(--fg-color); stroke: var(--fg-color); stroke-width: 0.8"/>
      </g>
     </g>
     <g id="text_3">
      <text style="font-size: 7px; font-family: 'DejaVu Sans', 'Bitstream Vera Sans', 'Computer Modern Sans Serif', 'Lucida Grande', 'Verdana', 'Geneva', 'Lucid', 'Arial', 'Helvetica', 'Avant Garde', sans-serif; text-anchor: middle; fill: var(--fg-color)" x="176.688307" y="115.718359" transform="rotate(-0 176.688307 115.718359)">06/2026</text>
     </g>
    </g>
   </g>
   <g id="matplotlib.axis_2">
    <g id="ytick_1">
     <g id="line2d_7">
      <path d="M 35.96 99.542531 
L 211 99.542531 
" clip-path="url(#p2f4b9b5b04)" style="fill: none; stroke-dasharray: 2.96,1.28; stroke-dashoffset: 0; stroke: var(--grid-color); stroke-width: 0.8"/>
     </g>
     <g id="line2d_8">
      <defs>
       <path id="ma61755fb37" d="M 0 0 
L -3.5 0 
" style="stroke: var(--fg-color); stroke-width: 0.8"/>
      </defs>
      <g>
       <use xlink:href="#ma61755fb37" x="35.96" y="99.542531" style="fill: var(--fg-color); stroke: var(--fg-color); stroke-width: 0.8"/>
      </g>
     </g>
     <g id="text_4">
      <text style="font-size: 7px; font-family: 'DejaVu Sans', 'Bitstream Vera Sans', 'Computer Modern Sans Serif', 'Lucida Grande', 'Verdana', 'Geneva', 'Lucid', 'Arial', 'Helvetica', 'Avant Garde', sans-serif; text-anchor: end; fill: var(--fg-color)" x="28.96" y="102.201711" transform="rotate(-0 28.96 102.201711)">0</text>
     </g>
    </g>
    <g id="ytick_2">
     <g id="line2d_9">
      <path d="M 35.96 73.571296 
L 211 73.571296 
" clip-path="url(#p2f4b9b5b04)" style="fill: none; stroke-dasharray: 2.96,1.28; stroke-dashoffset: 0; stroke: var(--grid-color); stroke-width: 0.8"/>
     </g>
     <g id="line2d_10">
      <g>
       <use xlink:href="#ma61755fb37" x="35.96" y="73.571296" style="fill: var(--fg-color); stroke: var(--fg-color); stroke-width: 0.8"/>
      </g>
     </g>
     <g id="text_5">
      <text style="font-size: 7px; font-family: 'DejaVu Sans', 'Bitstream Vera Sans', 'Computer Modern Sans Serif', 'Lucida Grande', 'Verdana', 'Geneva', 'Lucid', 'Arial', 'Helvetica', 'Avant Garde', sans-serif; text-anchor: end; fill: var(--fg-color)" x="28.96" y="76.230475" transform="rotate(-0 28.96 76.230475)">100</text>
     </g>
    </g>
    <g id="ytick_3">
     <g id="line2d_11">
      <path d="M 35.96 47.60006 
L 211 47.60006 
" clip-path="url(#p2f4b9b5b04)" style="fill: none; stroke-dasharray: 2.96,1.28; stroke-dashoffset: 0; stroke: var(--grid-color); stroke-width: 0.8"/>
     </g>
     <g id="line2d_12">
      <g>
       <use xlink:href="#ma61755fb37" x="35.96" y="47.60006" style="fill: var(--fg-color); stroke: var(--fg-color); stroke-width: 0.8"/>
      </g>
     </g>
     <g id="text_6">
      <text style="font-size: 7px; font-family: 'DejaVu Sans', 'Bitstream Vera Sans', 'Computer Modern Sans Serif', 'Lucida Grande', 'Verdana', 'Geneva', 'Lucid', 'Arial', 'Helvetica', 'Avant Garde', sans-serif; text-anchor: end; fill: var(--fg-color)" x="28.96" y="50.259239" transform="rotate(-0 28.96 50.259239)">200</text>
     </g>
    </g>
    <g id="ytick_4">
     <g id="line2d_13">
      <path d="M 35.96 21.628824 
L 211 21.628824 
" clip-path="url(#p2f4b9b5b04)" style="fill: none; stroke-dasharray: 2.96,1.28; stroke-dashoffset: 0; stroke: var(--grid-color); stroke-width: 0.8"/>
     </g>
     <g id="line2d_14">
      <g>
       <use xlink:href="#ma61755fb37" x="35.96" y="21.628824" style="fill: var(--fg-color); stroke: var(--fg-color); stroke-width: 0.8"/>
      </g>
     </g>
     <g id="text_7">
      <text style="font-size: 7px; font-family: 'DejaVu Sans', 'Bitstream Vera Sans', 'Computer Modern Sans Serif', 'Lucida Grande', 'Verdana', 'Geneva', 'Lucid', 'Arial', 'Helvetica', 'Avant Garde', sans-serif; text-anchor: end; fill: var(--fg-color)" x="28.96" y="24.288004" transform="rotate(-0 28.96 24.288004)">300</text>
     </g>
    </g>
    <g id="text_8">
     <text style="font-size: 7px; font-family: 'DejaVu Sans', 'Bitstream Vera Sans', 'Computer Modern Sans Serif', 'Lucida Grande', 'Verdana', 'Geneva', 'Lucid', 'Arial', 'Helvetica', 'Avant Garde', sans-serif; text-anchor: middle; fill: var(--fg-color)" x="9.917109" y="54.2" transform="rotate(-90 9.917109 54.2)">ms</text>
    </g>
   </g>
   <g id="line2d_15">
    <path d="M 43.916364 26.058997 
L 44.468628 30.971197 
L 46.250371 25.083258 
L 47.141245 27.936718 
L 48.032112 23.7273 
L 48.922979 24.374503 
L 49.81384 23.417463 
L 50.704717 30.322695 
L 51.595589 28.805196 
L 53.377327 24.681743 
L 54.268192 30.093369 
L 55.159063 28.556651 
L 56.049934 25.039367 
L 56.940797 23.04088 
L 57.831669 30.05649 
L 58.722538 29.784571 
L 59.613407 25.227658 
L 60.504275 26.457396 
L 61.395144 26.264949 
L 62.286016 22.674945 
L 63.176879 31.396865 
L 64.067746 30.352822 
L 64.958622 27.7718 
L 65.84949 28.236945 
L 66.740361 30.657724 
L 67.631226 28.248372 
L 68.522078 23.379545 
L 69.412965 27.334704 
L 70.30383 28.37745 
L 71.194705 24.028047 
L 72.085571 26.524921 
L 72.976442 30.748623 
L 73.867306 26.258976 
L 74.758184 30.459563 
L 75.649039 32.679844 
L 76.539914 32.686597 
L 77.430784 31.333496 
L 78.321655 24.709272 
L 79.212509 34.727676 
L 80.103391 32.157303 
L 80.994245 29.104125 
L 81.885129 34.153972 
L 83.666869 25.812011 
L 84.557735 26.564657 
L 85.44861 30.40892 
L 94.53997 37.326099 
L 95.248438 29.216061 
L 96.139324 31.587754 
L 97.030192 18.156729 
L 97.921065 19.147532 
L 98.811931 23.359547 
L 99.702798 29.699385 
L 100.593666 31.299993 
L 101.484533 26.963056 
L 102.375401 9.472727 
L 103.266272 22.908167 
L 104.157138 24.056355 
L 105.048009 28.176692 
L 105.93888 24.149073 
L 106.829748 24.209586 
L 107.720614 30.856923 
L 108.611487 28.161888 
L 109.502352 27.412618 
L 110.393224 23.738987 
L 111.284094 34.111119 
L 112.17496 18.009213 
L 113.065834 26.864885 
L 113.956695 30.071294 
L 114.847564 29.413962 
L 115.738441 24.011685 
L 116.629309 23.62783 
L 117.520178 24.496048 
L 118.41104 21.009929 
L 119.301913 26.836836 
L 120.192782 26.857613 
L 121.083649 20.951234 
L 121.97452 27.855947 
L 125.537994 13.558003 
L 126.428869 27.129532 
L 127.319734 20.22404 
L 128.210603 26.02939 
L 129.101474 24.469817 
L 129.992342 19.441007 
L 130.883214 18.302947 
L 131.774065 29.005174 
L 132.664946 24.823546 
L 133.55582 14.528028 
L 134.446686 22.927386 
L 135.337558 22.90531 
L 136.228424 16.253298 
L 137.119294 11.938436 
L 138.010159 24.977295 
L 138.901032 23.497714 
L 139.791912 17.066457 
L 140.68277 24.767188 
L 141.57364 22.31836 
L 142.464507 14.414534 
L 143.355376 24.199717 
L 144.246246 28.606516 
L 145.137113 24.752125 
L 146.027984 23.269687 
L 146.918849 20.932535 
L 173.644977 20.932535 
L 181.959197 19.294789 
L 182.553652 22.131887 
L 183.444521 15.223798 
L 184.335387 15.980859 
L 186.117131 23.323187 
L 187.007996 20.020945 
L 187.898864 11.916361 
L 188.789731 29.469021 
L 189.680603 16.036178 
L 190.571474 17.411095 
L 191.462343 23.088927 
L 192.353215 21.667002 
L 193.244077 20.578287 
L 194.134949 15.729198 
L 195.025817 12.990271 
L 195.916688 22.304336 
L 196.807557 14.173781 
L 197.698426 18.397483 
L 198.589295 18.688101 
L 199.480162 25.851487 
L 200.371032 29.656013 
L 201.261898 16.934523 
L 202.152766 16.692991 
L 203.043636 20.064317 
L 203.043636 20.064317 
" clip-path="url(#p2f4b9b5b04)" style="fill: none; stroke: #339af0; stroke-width: 1.2; stroke-linecap: square"/>
   </g>
   <g id="line2d_16">
    <path d="M 43.916364 98.845463 
L 45.3595 98.855332 
L 47.141245 98.777678 
L 51.595589 98.890394 
L 53.377327 98.837932 
L 60.504275 98.809363 
L 61.395144 98.853255 
L 62.286016 98.762875 
L 63.176879 98.912729 
L 66.740361 98.771965 
L 67.631226 98.8304 
L 68.522078 98.756901 
L 69.412965 98.867279 
L 72.085571 98.828842 
L 73.867306 98.873512 
L 85.44861 98.84858 
L 96.139324 98.888835 
L 97.030192 98.354347 
L 97.921065 98.836373 
L 101.484533 98.892731 
L 102.375401 98.663405 
L 103.266272 98.859748 
L 107.720614 98.908833 
L 110.393224 98.793001 
L 111.284094 98.903639 
L 112.17496 98.365515 
L 113.065834 98.876369 
L 115.738441 98.887537 
L 116.629309 98.66834 
L 117.520178 98.873772 
L 120.192782 98.778717 
L 121.97452 98.8665 
L 128.210603 98.781834 
L 131.774065 98.858709 
L 133.55582 98.855592 
L 134.446686 98.732488 
L 135.337558 98.836633 
L 136.228424 98.601334 
L 138.010159 98.865461 
L 138.901032 98.868318 
L 139.791912 98.699765 
L 140.68277 98.837412 
L 173.644977 98.817155 
L 181.959197 98.844684 
L 182.553652 98.722619 
L 183.444521 98.852995 
L 184.335387 98.495891 
L 185.226256 98.849619 
L 195.025817 98.807026 
L 196.807557 98.835854 
L 198.589295 98.779496 
L 200.371032 98.881823 
L 203.043636 98.756642 
L 203.043636 98.756642 
" clip-path="url(#p2f4b9b5b04)" style="fill: none; stroke: #ff6b6b; stroke-width: 1.2; stroke-linecap: square"/>
   </g>
   <g id="patch_3">
    <path d="M 35.96 103.4 
L 35.96 5 
" style="fill: none; stroke: var(--fg-color); stroke-width: 0.8; stroke-linejoin: miter; stroke-linecap: square"/>
   </g>
   <g id="patch_4">
    <path d="M 35.96 103.4 
L 211 103.4 
" style="fill: none; stroke: var(--fg-color); stroke-width: 0.8; stroke-linejoin: miter; stroke-linecap: square"/>
   </g>
  </g>
 </g>
 <defs>
  <clipPath id="p2f4b9b5b04">
   <rect x="35.96" y="5" width="175.04" height="98.4"/>
  </clipPath>
 </defs>
</svg>
