<?xml version="1.0" encoding="utf-8" standalone="no"?>
<!DOCTYPE svg PUBLIC "-//W3C//DTD SVG 1.1//EN"
  "http://www.w3.org/Graphics/SVG/1.1/DTD/svg11.dtd">
<svg xmlns:xlink="http://www.w3.org/1999/xlink" width="737.28pt" height="552.96pt" viewBox="0 0 737.28 552.96" xmlns="http://www.w3.org/2000/svg" version="1.1">
 <metadata>
  <rdf:RDF xmlns:dc="http://purl.org/dc/elements/1.1/" xmlns:cc="http://creativecommons.org/ns#" xmlns:rdf="http://www.w3.org/1999/02/22-rdf-syntax-ns#">
   <cc:Work>
    <dc:type rdf:resource="http://purl.org/dc/dcmitype/StillImage"/>
    <dc:date>2026-06-30T04:48:17.072331</dc:date>
    <dc:format>image/svg+xml</dc:format>
    <dc:creator>
     <cc:Agent>
      <dc:title>Matplotlib v3.11.0, https://matplotlib.org/</dc:title>
     </cc:Agent>
    </dc:creator>
   </cc:Work>
  </rdf:RDF>
 </metadata>
 <defs>
  <style type="text/css">*{stroke-linejoin: round; stroke-linecap: butt}</style>
 </defs>
 <g id="figure_1">
  <g id="patch_1">
   <path d="M 0 552.96 
L 737.28 552.96 
L 737.28 0 
L 0 0 
z
" style="fill: #ffffff"/>
  </g>
  <g id="axes_1">
   <g id="patch_2">
    <path d="M 51.562344 510.837656 
L 682.837656 510.837656 
L 682.837656 26.16 
L 51.562344 26.16 
z
" style="fill: #ffffff"/>
   </g>
   <g id="matplotlib.axis_1">
    <g id="xtick_1">
     <g id="line2d_1">
      <path d="M 374.725224 510.837656 
L 374.725224 26.16 
" clip-path="url(#pbc38194c47)" style="fill: none; stroke-dasharray: 2.96,1.28; stroke-dashoffset: 0; stroke: #dee2e6; stroke-width: 0.8"/>
     </g>
     <g id="line2d_2">
      <defs>
       <path id="mde2de976e7" d="M 0 0 
L 0 3.5 
" style="stroke: #212529; stroke-width: 0.8"/>
      </defs>
      <g>
       <use xlink:href="#mde2de976e7" x="374.725224" y="510.837656" style="fill: #212529; stroke: #212529; stroke-width: 0.8"/>
      </g>
     </g>
     <g id="text_1">
      <text style="font-size: 10px; font-family: 'DejaVu Sans', 'Bitstream Vera Sans', 'Computer Modern Sans Serif', 'Lucida Grande', 'Verdana', 'Geneva', 'Lucid', 'Arial', 'Helvetica', 'Avant Garde', sans-serif; text-anchor: middle; fill: #212529" x="374.725224" y="525.435313" transform="rotate(-0 374.725224 525.435313)">05/2026</text>
     </g>
    </g>
    <g id="text_2">
     <text style="font-size: 10px; font-family: 'DejaVu Sans', 'Bitstream Vera Sans', 'Computer Modern Sans Serif', 'Lucida Grande', 'Verdana', 'Geneva', 'Lucid', 'Arial', 'Helvetica', 'Avant Garde', sans-serif; text-anchor: middle; fill: #212529" x="367.2" y="539.436094" transform="rotate(-0 367.2 539.436094)">Time</text>
    </g>
   </g>
   <g id="matplotlib.axis_2">
    <g id="ytick_1">
     <g id="line2d_3">
      <path d="M 51.562344 492.696916 
L 682.837656 492.696916 
" clip-path="url(#pbc38194c47)" style="fill: none; stroke-dasharray: 2.96,1.28; stroke-dashoffset: 0; stroke: #dee2e6; stroke-width: 0.8"/>
     </g>
     <g id="line2d_4">
      <defs>
       <path id="mea7d40f9f6" d="M 0 0 
L -3.5 0 
" style="stroke: #212529; stroke-width: 0.8"/>
      </defs>
      <g>
       <use xlink:href="#mea7d40f9f6" x="51.562344" y="492.696916" style="fill: #212529; stroke: #212529; stroke-width: 0.8"/>
      </g>
     </g>
     <g id="text_3">
      <text style="font-size: 10px; font-family: 'DejaVu Sans', 'Bitstream Vera Sans', 'Computer Modern Sans Serif', 'Lucida Grande', 'Verdana', 'Geneva', 'Lucid', 'Arial', 'Helvetica', 'Avant Garde', sans-serif; text-anchor: end; fill: #212529" x="44.562344" y="496.495744" transform="rotate(-0 44.562344 496.495744)">0</text>
     </g>
    </g>
    <g id="ytick_2">
     <g id="line2d_5">
      <path d="M 51.562344 409.575927 
L 682.837656 409.575927 
" clip-path="url(#pbc38194c47)" style="fill: none; stroke-dasharray: 2.96,1.28; stroke-dashoffset: 0; stroke: #dee2e6; stroke-width: 0.8"/>
     </g>
     <g id="line2d_6">
      <g>
       <use xlink:href="#mea7d40f9f6" x="51.562344" y="409.575927" style="fill: #212529; stroke: #212529; stroke-width: 0.8"/>
      </g>
     </g>
     <g id="text_4">
      <text style="font-size: 10px; font-family: 'DejaVu Sans', 'Bitstream Vera Sans', 'Computer Modern Sans Serif', 'Lucida Grande', 'Verdana', 'Geneva', 'Lucid', 'Arial', 'Helvetica', 'Avant Garde', sans-serif; text-anchor: end; fill: #212529" x="44.562344" y="413.374755" transform="rotate(-0 44.562344 413.374755)">50</text>
     </g>
    </g>
    <g id="ytick_3">
     <g id="line2d_7">
      <path d="M 51.562344 326.454938 
L 682.837656 326.454938 
" clip-path="url(#pbc38194c47)" style="fill: none; stroke-dasharray: 2.96,1.28; stroke-dashoffset: 0; stroke: #dee2e6; stroke-width: 0.8"/>
     </g>
     <g id="line2d_8">
      <g>
       <use xlink:href="#mea7d40f9f6" x="51.562344" y="326.454938" style="fill: #212529; stroke: #212529; stroke-width: 0.8"/>
      </g>
     </g>
     <g id="text_5">
      <text style="font-size: 10px; font-family: 'DejaVu Sans', 'Bitstream Vera Sans', 'Computer Modern Sans Serif', 'Lucida Grande', 'Verdana', 'Geneva', 'Lucid', 'Arial', 'Helvetica', 'Avant Garde', sans-serif; text-anchor: end; fill: #212529" x="44.562344" y="330.253766" transform="rotate(-0 44.562344 330.253766)">100</text>
     </g>
    </g>
    <g id="ytick_4">
     <g id="line2d_9">
      <path d="M 51.562344 243.333949 
L 682.837656 243.333949 
" clip-path="url(#pbc38194c47)" style="fill: none; stroke-dasharray: 2.96,1.28; stroke-dashoffset: 0; stroke: #dee2e6; stroke-width: 0.8"/>
     </g>
     <g id="line2d_10">
      <g>
       <use xlink:href="#mea7d40f9f6" x="51.562344" y="243.333949" style="fill: #212529; stroke: #212529; stroke-width: 0.8"/>
      </g>
     </g>
     <g id="text_6">
      <text style="font-size: 10px; font-family: 'DejaVu Sans', 'Bitstream Vera Sans', 'Computer Modern Sans Serif', 'Lucida Grande', 'Verdana', 'Geneva', 'Lucid', 'Arial', 'Helvetica', 'Avant Garde', sans-serif; text-anchor: end; fill: #212529" x="44.562344" y="247.132777" transform="rotate(-0 44.562344 247.132777)">150</text>
     </g>
    </g>
    <g id="ytick_5">
     <g id="line2d_11">
      <path d="M 51.562344 160.21296 
L 682.837656 160.21296 
" clip-path="url(#pbc38194c47)" style="fill: none; stroke-dasharray: 2.96,1.28; stroke-dashoffset: 0; stroke: #dee2e6; stroke-width: 0.8"/>
     </g>
     <g id="line2d_12">
      <g>
       <use xlink:href="#mea7d40f9f6" x="51.562344" y="160.21296" style="fill: #212529; stroke: #212529; stroke-width: 0.8"/>
      </g>
     </g>
     <g id="text_7">
      <text style="font-size: 10px; font-family: 'DejaVu Sans', 'Bitstream Vera Sans', 'Computer Modern Sans Serif', 'Lucida Grande', 'Verdana', 'Geneva', 'Lucid', 'Arial', 'Helvetica', 'Avant Garde', sans-serif; text-anchor: end; fill: #212529" x="44.562344" y="164.011788" transform="rotate(-0 44.562344 164.011788)">200</text>
     </g>
    </g>
    <g id="ytick_6">
     <g id="line2d_13">
      <path d="M 51.562344 77.09197 
L 682.837656 77.09197 
" clip-path="url(#pbc38194c47)" style="fill: none; stroke-dasharray: 2.96,1.28; stroke-dashoffset: 0; stroke: #dee2e6; stroke-width: 0.8"/>
     </g>
     <g id="line2d_14">
      <g>
       <use xlink:href="#mea7d40f9f6" x="51.562344" y="77.09197" style="fill: #212529; stroke: #212529; stroke-width: 0.8"/>
      </g>
     </g>
     <g id="text_8">
      <text style="font-size: 10px; font-family: 'DejaVu Sans', 'Bitstream Vera Sans', 'Computer Modern Sans Serif', 'Lucida Grande', 'Verdana', 'Geneva', 'Lucid', 'Arial', 'Helvetica', 'Avant Garde', sans-serif; text-anchor: end; fill: #212529" x="44.562344" y="80.890799" transform="rotate(-0 44.562344 80.890799)">250</text>
     </g>
    </g>
    <g id="text_9">
     <text style="font-size: 10px; font-family: 'DejaVu Sans', 'Bitstream Vera Sans', 'Computer Modern Sans Serif', 'Lucida Grande', 'Verdana', 'Geneva', 'Lucid', 'Arial', 'Helvetica', 'Avant Garde', sans-serif; text-anchor: middle; fill: #212529" x="19.0725" y="268.498828" transform="rotate(-90 19.0725 268.498828)">Duration [ms]</text>
    </g>
   </g>
   <g id="line2d_15">
    <path d="M 80.256676 410.383863 
L 85.57043 407.43473 
L 90.884185 410.95906 
L 96.197942 411.525945 
L 101.511718 412.277359 
L 106.825461 404.414113 
L 112.139237 407.931794 
L 117.453009 410.289105 
L 122.766768 422.010827 
L 128.080513 412.752811 
L 133.394298 406.036635 
L 138.708042 407.117208 
L 144.021822 405.473075 
L 149.335592 410.327341 
L 154.649338 413.2399 
L 159.963131 403.65605 
L 165.276841 412.874168 
L 170.590609 409.135386 
L 175.904417 410.131175 
L 181.218175 395.533467 
L 186.531939 412.023009 
L 191.845661 404.96105 
L 197.159444 402.698496 
L 202.47321 410.945761 
L 207.786964 408.019902 
L 213.100735 412.721225 
L 234.355776 408.447144 
L 239.669577 398.411116 
L 244.983317 377.283423 
L 250.297081 413.34297 
L 255.610853 398.680428 
L 260.924612 406.56196 
L 266.238393 415.000403 
L 271.552048 405.7241 
L 276.865883 408.551876 
L 282.179676 410.724659 
L 287.493419 397.205861 
L 292.807201 401.358586 
L 298.120947 405.913616 
L 303.434714 395.797792 
L 308.748458 399.165854 
L 314.062241 249.536437 
L 319.376071 400.736841 
L 324.689767 403.536356 
L 330.003539 401.456669 
L 335.317287 406.272699 
L 340.631052 405.391616 
L 345.94482 397.930676 
L 351.25857 399.381969 
L 356.572347 345.213683 
L 361.886085 397.345505 
L 521.299331 397.345505 
L 570.891126 402.814866 
L 574.43687 415.04695 
L 579.750632 400.455892 
L 585.064382 411.615716 
L 590.378143 411.906639 
L 595.691939 48.190803 
L 601.005684 409.185258 
L 606.319438 411.115328 
L 611.63319 412.568282 
L 616.94697 419.86963 
L 622.260745 410.297417 
L 627.574508 398.971351 
L 632.888292 409.012367 
L 638.202013 413.916505 
L 643.515793 408.872723 
L 648.82955 412.046283 
L 654.143324 378.013225 
" clip-path="url(#pbc38194c47)" style="fill: none; stroke: #007bff; stroke-width: 1.5; stroke-linecap: square"/>
    <defs>
     <path id="m882d99f594" d="M 0 2 
C 0.530406 2 1.03916 1.789267 1.414214 1.414214 
C 1.789267 1.03916 2 0.530406 2 0 
C 2 -0.530406 1.789267 -1.03916 1.414214 -1.414214 
C 1.03916 -1.789267 0.530406 -2 0 -2 
C -0.530406 -2 -1.03916 -1.789267 -1.414214 -1.414214 
C -1.789267 -1.03916 -2 -0.530406 -2 0 
C -2 0.530406 -1.789267 1.03916 -1.414214 1.414214 
C -1.03916 1.789267 -0.530406 2 0 2 
z
" style="stroke: #007bff"/>
    </defs>
    <g clip-path="url(#pbc38194c47)">
     <use xlink:href="#m882d99f594" x="80.256676" y="410.383863" style="fill: #007bff; stroke: #007bff"/>
     <use xlink:href="#m882d99f594" x="85.57043" y="407.43473" style="fill: #007bff; stroke: #007bff"/>
     <use xlink:href="#m882d99f594" x="90.884185" y="410.95906" style="fill: #007bff; stroke: #007bff"/>
     <use xlink:href="#m882d99f594" x="96.197942" y="411.525945" style="fill: #007bff; stroke: #007bff"/>
     <use xlink:href="#m882d99f594" x="101.511718" y="412.277359" style="fill: #007bff; stroke: #007bff"/>
     <use xlink:href="#m882d99f594" x="106.825461" y="404.414113" style="fill: #007bff; stroke: #007bff"/>
     <use xlink:href="#m882d99f594" x="112.139237" y="407.931794" style="fill: #007bff; stroke: #007bff"/>
     <use xlink:href="#m882d99f594" x="117.453009" y="410.289105" style="fill: #007bff; stroke: #007bff"/>
     <use xlink:href="#m882d99f594" x="122.766768" y="422.010827" style="fill: #007bff; stroke: #007bff"/>
     <use xlink:href="#m882d99f594" x="128.080513" y="412.752811" style="fill: #007bff; stroke: #007bff"/>
     <use xlink:href="#m882d99f594" x="133.394298" y="406.036635" style="fill: #007bff; stroke: #007bff"/>
     <use xlink:href="#m882d99f594" x="138.708042" y="407.117208" style="fill: #007bff; stroke: #007bff"/>
     <use xlink:href="#m882d99f594" x="144.021822" y="405.473075" style="fill: #007bff; stroke: #007bff"/>
     <use xlink:href="#m882d99f594" x="149.335592" y="410.327341" style="fill: #007bff; stroke: #007bff"/>
     <use xlink:href="#m882d99f594" x="154.649338" y="413.2399" style="fill: #007bff; stroke: #007bff"/>
     <use xlink:href="#m882d99f594" x="159.963131" y="403.65605" style="fill: #007bff; stroke: #007bff"/>
     <use xlink:href="#m882d99f594" x="165.276841" y="412.874168" style="fill: #007bff; stroke: #007bff"/>
     <use xlink:href="#m882d99f594" x="170.590609" y="409.135386" style="fill: #007bff; stroke: #007bff"/>
     <use xlink:href="#m882d99f594" x="175.904417" y="410.131175" style="fill: #007bff; stroke: #007bff"/>
     <use xlink:href="#m882d99f594" x="181.218175" y="395.533467" style="fill: #007bff; stroke: #007bff"/>
     <use xlink:href="#m882d99f594" x="186.531939" y="412.023009" style="fill: #007bff; stroke: #007bff"/>
     <use xlink:href="#m882d99f594" x="191.845661" y="404.96105" style="fill: #007bff; stroke: #007bff"/>
     <use xlink:href="#m882d99f594" x="197.159444" y="402.698496" style="fill: #007bff; stroke: #007bff"/>
     <use xlink:href="#m882d99f594" x="202.47321" y="410.945761" style="fill: #007bff; stroke: #007bff"/>
     <use xlink:href="#m882d99f594" x="207.786964" y="408.019902" style="fill: #007bff; stroke: #007bff"/>
     <use xlink:href="#m882d99f594" x="213.100735" y="412.721225" style="fill: #007bff; stroke: #007bff"/>
     <use xlink:href="#m882d99f594" x="234.355776" y="408.447144" style="fill: #007bff; stroke: #007bff"/>
     <use xlink:href="#m882d99f594" x="239.669577" y="398.411116" style="fill: #007bff; stroke: #007bff"/>
     <use xlink:href="#m882d99f594" x="244.983317" y="377.283423" style="fill: #007bff; stroke: #007bff"/>
     <use xlink:href="#m882d99f594" x="250.297081" y="413.34297" style="fill: #007bff; stroke: #007bff"/>
     <use xlink:href="#m882d99f594" x="255.610853" y="398.680428" style="fill: #007bff; stroke: #007bff"/>
     <use xlink:href="#m882d99f594" x="260.924612" y="406.56196" style="fill: #007bff; stroke: #007bff"/>
     <use xlink:href="#m882d99f594" x="266.238393" y="415.000403" style="fill: #007bff; stroke: #007bff"/>
     <use xlink:href="#m882d99f594" x="271.552048" y="405.7241" style="fill: #007bff; stroke: #007bff"/>
     <use xlink:href="#m882d99f594" x="276.865883" y="408.551876" style="fill: #007bff; stroke: #007bff"/>
     <use xlink:href="#m882d99f594" x="282.179676" y="410.724659" style="fill: #007bff; stroke: #007bff"/>
     <use xlink:href="#m882d99f594" x="287.493419" y="397.205861" style="fill: #007bff; stroke: #007bff"/>
     <use xlink:href="#m882d99f594" x="292.807201" y="401.358586" style="fill: #007bff; stroke: #007bff"/>
     <use xlink:href="#m882d99f594" x="298.120947" y="405.913616" style="fill: #007bff; stroke: #007bff"/>
     <use xlink:href="#m882d99f594" x="303.434714" y="395.797792" style="fill: #007bff; stroke: #007bff"/>
     <use xlink:href="#m882d99f594" x="308.748458" y="399.165854" style="fill: #007bff; stroke: #007bff"/>
     <use xlink:href="#m882d99f594" x="314.062241" y="249.536437" style="fill: #007bff; stroke: #007bff"/>
     <use xlink:href="#m882d99f594" x="319.376071" y="400.736841" style="fill: #007bff; stroke: #007bff"/>
     <use xlink:href="#m882d99f594" x="324.689767" y="403.536356" style="fill: #007bff; stroke: #007bff"/>
     <use xlink:href="#m882d99f594" x="330.003539" y="401.456669" style="fill: #007bff; stroke: #007bff"/>
     <use xlink:href="#m882d99f594" x="335.317287" y="406.272699" style="fill: #007bff; stroke: #007bff"/>
     <use xlink:href="#m882d99f594" x="340.631052" y="405.391616" style="fill: #007bff; stroke: #007bff"/>
     <use xlink:href="#m882d99f594" x="345.94482" y="397.930676" style="fill: #007bff; stroke: #007bff"/>
     <use xlink:href="#m882d99f594" x="351.25857" y="399.381969" style="fill: #007bff; stroke: #007bff"/>
     <use xlink:href="#m882d99f594" x="356.572347" y="345.213683" style="fill: #007bff; stroke: #007bff"/>
     <use xlink:href="#m882d99f594" x="361.886085" y="397.345505" style="fill: #007bff; stroke: #007bff"/>
     <use xlink:href="#m882d99f594" x="521.299331" y="397.345505" style="fill: #007bff; stroke: #007bff"/>
     <use xlink:href="#m882d99f594" x="570.891126" y="402.814866" style="fill: #007bff; stroke: #007bff"/>
     <use xlink:href="#m882d99f594" x="574.43687" y="415.04695" style="fill: #007bff; stroke: #007bff"/>
     <use xlink:href="#m882d99f594" x="579.750632" y="400.455892" style="fill: #007bff; stroke: #007bff"/>
     <use xlink:href="#m882d99f594" x="585.064382" y="411.615716" style="fill: #007bff; stroke: #007bff"/>
     <use xlink:href="#m882d99f594" x="590.378143" y="411.906639" style="fill: #007bff; stroke: #007bff"/>
     <use xlink:href="#m882d99f594" x="595.691939" y="48.190803" style="fill: #007bff; stroke: #007bff"/>
     <use xlink:href="#m882d99f594" x="601.005684" y="409.185258" style="fill: #007bff; stroke: #007bff"/>
     <use xlink:href="#m882d99f594" x="606.319438" y="411.115328" style="fill: #007bff; stroke: #007bff"/>
     <use xlink:href="#m882d99f594" x="611.63319" y="412.568282" style="fill: #007bff; stroke: #007bff"/>
     <use xlink:href="#m882d99f594" x="616.94697" y="419.86963" style="fill: #007bff; stroke: #007bff"/>
     <use xlink:href="#m882d99f594" x="622.260745" y="410.297417" style="fill: #007bff; stroke: #007bff"/>
     <use xlink:href="#m882d99f594" x="627.574508" y="398.971351" style="fill: #007bff; stroke: #007bff"/>
     <use xlink:href="#m882d99f594" x="632.888292" y="409.012367" style="fill: #007bff; stroke: #007bff"/>
     <use xlink:href="#m882d99f594" x="638.202013" y="413.916505" style="fill: #007bff; stroke: #007bff"/>
     <use xlink:href="#m882d99f594" x="643.515793" y="408.872723" style="fill: #007bff; stroke: #007bff"/>
     <use xlink:href="#m882d99f594" x="648.82955" y="412.046283" style="fill: #007bff; stroke: #007bff"/>
     <use xlink:href="#m882d99f594" x="654.143324" y="378.013225" style="fill: #007bff; stroke: #007bff"/>
    </g>
   </g>
   <g id="line2d_16">
    <path d="M 80.256676 488.431147 
L 85.57043 488.105313 
L 90.884185 488.155185 
L 96.197942 488.293166 
L 101.511718 487.352236 
L 106.825461 488.562478 
L 112.139237 488.387924 
L 117.453009 488.116949 
L 122.766768 488.524242 
L 128.080513 488.314777 
L 133.394298 488.326414 
L 138.708042 488.241631 
L 144.021822 488.239969 
L 149.335592 488.236644 
L 154.649338 488.244956 
L 159.963131 488.253268 
L 165.276841 488.299816 
L 170.590609 488.027179 
L 175.904417 488.284854 
L 181.218175 488.136899 
L 186.531939 488.349688 
L 191.845661 488.21337 
L 197.159444 488.283191 
L 202.47321 488.208383 
L 207.786964 488.003905 
L 213.100735 487.944058 
L 234.355776 487.536765 
L 239.669577 487.699682 
L 244.983317 487.741243 
L 250.297081 488.052115 
L 255.610853 485.196078 
L 260.924612 485.327409 
L 266.238393 488.181784 
L 271.552048 486.321536 
L 276.865883 488.115287 
L 282.179676 488.273217 
L 287.493419 484.559371 
L 292.807201 487.987281 
L 298.120947 487.919122 
L 303.434714 487.859274 
L 308.748458 487.614899 
L 314.062241 488.083701 
L 319.376071 488.022192 
L 324.689767 488.045465 
L 330.003539 487.603262 
L 335.317287 487.925771 
L 340.631052 487.84265 
L 345.94482 487.937408 
L 351.25857 487.621548 
L 356.572347 487.604924 
L 361.886085 487.456969 
L 521.299331 487.456969 
L 570.891126 486.434581 
L 574.43687 488.258255 
L 579.750632 488.013879 
L 585.064382 488.427822 
L 590.378143 488.231656 
L 595.691939 488.574115 
L 601.005684 488.482682 
L 606.319438 488.605701 
L 611.63319 488.534217 
L 616.94697 488.806854 
L 622.260745 488.620663 
L 627.574508 488.319765 
L 632.888292 488.544191 
L 638.202013 488.660561 
L 643.515793 488.597389 
L 648.82955 488.604038 
L 654.143324 488.421172 
" clip-path="url(#pbc38194c47)" style="fill: none; stroke: #dc3545; stroke-width: 1.5; stroke-linecap: square"/>
    <defs>
     <path id="m4b889d90fb" d="M 0 2 
C 0.530406 2 1.03916 1.789267 1.414214 1.414214 
C 1.789267 1.03916 2 0.530406 2 0 
C 2 -0.530406 1.789267 -1.03916 1.414214 -1.414214 
C 1.03916 -1.789267 0.530406 -2 0 -2 
C -0.530406 -2 -1.03916 -1.789267 -1.414214 -1.414214 
C -1.789267 -1.03916 -2 -0.530406 -2 0 
C -2 0.530406 -1.789267 1.03916 -1.414214 1.414214 
C -1.03916 1.789267 -0.530406 2 0 2 
z
" style="stroke: #dc3545"/>
    </defs>
    <g clip-path="url(#pbc38194c47)">
     <use xlink:href="#m4b889d90fb" x="80.256676" y="488.431147" style="fill: #dc3545; stroke: #dc3545"/>
     <use xlink:href="#m4b889d90fb" x="85.57043" y="488.105313" style="fill: #dc3545; stroke: #dc3545"/>
     <use xlink:href="#m4b889d90fb" x="90.884185" y="488.155185" style="fill: #dc3545; stroke: #dc3545"/>
     <use xlink:href="#m4b889d90fb" x="96.197942" y="488.293166" style="fill: #dc3545; stroke: #dc3545"/>
     <use xlink:href="#m4b889d90fb" x="101.511718" y="487.352236" style="fill: #dc3545; stroke: #dc3545"/>
     <use xlink:href="#m4b889d90fb" x="106.825461" y="488.562478" style="fill: #dc3545; stroke: #dc3545"/>
     <use xlink:href="#m4b889d90fb" x="112.139237" y="488.387924" style="fill: #dc3545; stroke: #dc3545"/>
     <use xlink:href="#m4b889d90fb" x="117.453009" y="488.116949" style="fill: #dc3545; stroke: #dc3545"/>
     <use xlink:href="#m4b889d90fb" x="122.766768" y="488.524242" style="fill: #dc3545; stroke: #dc3545"/>
     <use xlink:href="#m4b889d90fb" x="128.080513" y="488.314777" style="fill: #dc3545; stroke: #dc3545"/>
     <use xlink:href="#m4b889d90fb" x="133.394298" y="488.326414" style="fill: #dc3545; stroke: #dc3545"/>
     <use xlink:href="#m4b889d90fb" x="138.708042" y="488.241631" style="fill: #dc3545; stroke: #dc3545"/>
     <use xlink:href="#m4b889d90fb" x="144.021822" y="488.239969" style="fill: #dc3545; stroke: #dc3545"/>
     <use xlink:href="#m4b889d90fb" x="149.335592" y="488.236644" style="fill: #dc3545; stroke: #dc3545"/>
     <use xlink:href="#m4b889d90fb" x="154.649338" y="488.244956" style="fill: #dc3545; stroke: #dc3545"/>
     <use xlink:href="#m4b889d90fb" x="159.963131" y="488.253268" style="fill: #dc3545; stroke: #dc3545"/>
     <use xlink:href="#m4b889d90fb" x="165.276841" y="488.299816" style="fill: #dc3545; stroke: #dc3545"/>
     <use xlink:href="#m4b889d90fb" x="170.590609" y="488.027179" style="fill: #dc3545; stroke: #dc3545"/>
     <use xlink:href="#m4b889d90fb" x="175.904417" y="488.284854" style="fill: #dc3545; stroke: #dc3545"/>
     <use xlink:href="#m4b889d90fb" x="181.218175" y="488.136899" style="fill: #dc3545; stroke: #dc3545"/>
     <use xlink:href="#m4b889d90fb" x="186.531939" y="488.349688" style="fill: #dc3545; stroke: #dc3545"/>
     <use xlink:href="#m4b889d90fb" x="191.845661" y="488.21337" style="fill: #dc3545; stroke: #dc3545"/>
     <use xlink:href="#m4b889d90fb" x="197.159444" y="488.283191" style="fill: #dc3545; stroke: #dc3545"/>
     <use xlink:href="#m4b889d90fb" x="202.47321" y="488.208383" style="fill: #dc3545; stroke: #dc3545"/>
     <use xlink:href="#m4b889d90fb" x="207.786964" y="488.003905" style="fill: #dc3545; stroke: #dc3545"/>
     <use xlink:href="#m4b889d90fb" x="213.100735" y="487.944058" style="fill: #dc3545; stroke: #dc3545"/>
     <use xlink:href="#m4b889d90fb" x="234.355776" y="487.536765" style="fill: #dc3545; stroke: #dc3545"/>
     <use xlink:href="#m4b889d90fb" x="239.669577" y="487.699682" style="fill: #dc3545; stroke: #dc3545"/>
     <use xlink:href="#m4b889d90fb" x="244.983317" y="487.741243" style="fill: #dc3545; stroke: #dc3545"/>
     <use xlink:href="#m4b889d90fb" x="250.297081" y="488.052115" style="fill: #dc3545; stroke: #dc3545"/>
     <use xlink:href="#m4b889d90fb" x="255.610853" y="485.196078" style="fill: #dc3545; stroke: #dc3545"/>
     <use xlink:href="#m4b889d90fb" x="260.924612" y="485.327409" style="fill: #dc3545; stroke: #dc3545"/>
     <use xlink:href="#m4b889d90fb" x="266.238393" y="488.181784" style="fill: #dc3545; stroke: #dc3545"/>
     <use xlink:href="#m4b889d90fb" x="271.552048" y="486.321536" style="fill: #dc3545; stroke: #dc3545"/>
     <use xlink:href="#m4b889d90fb" x="276.865883" y="488.115287" style="fill: #dc3545; stroke: #dc3545"/>
     <use xlink:href="#m4b889d90fb" x="282.179676" y="488.273217" style="fill: #dc3545; stroke: #dc3545"/>
     <use xlink:href="#m4b889d90fb" x="287.493419" y="484.559371" style="fill: #dc3545; stroke: #dc3545"/>
     <use xlink:href="#m4b889d90fb" x="292.807201" y="487.987281" style="fill: #dc3545; stroke: #dc3545"/>
     <use xlink:href="#m4b889d90fb" x="298.120947" y="487.919122" style="fill: #dc3545; stroke: #dc3545"/>
     <use xlink:href="#m4b889d90fb" x="303.434714" y="487.859274" style="fill: #dc3545; stroke: #dc3545"/>
     <use xlink:href="#m4b889d90fb" x="308.748458" y="487.614899" style="fill: #dc3545; stroke: #dc3545"/>
     <use xlink:href="#m4b889d90fb" x="314.062241" y="488.083701" style="fill: #dc3545; stroke: #dc3545"/>
     <use xlink:href="#m4b889d90fb" x="319.376071" y="488.022192" style="fill: #dc3545; stroke: #dc3545"/>
     <use xlink:href="#m4b889d90fb" x="324.689767" y="488.045465" style="fill: #dc3545; stroke: #dc3545"/>
     <use xlink:href="#m4b889d90fb" x="330.003539" y="487.603262" style="fill: #dc3545; stroke: #dc3545"/>
     <use xlink:href="#m4b889d90fb" x="335.317287" y="487.925771" style="fill: #dc3545; stroke: #dc3545"/>
     <use xlink:href="#m4b889d90fb" x="340.631052" y="487.84265" style="fill: #dc3545; stroke: #dc3545"/>
     <use xlink:href="#m4b889d90fb" x="345.94482" y="487.937408" style="fill: #dc3545; stroke: #dc3545"/>
     <use xlink:href="#m4b889d90fb" x="351.25857" y="487.621548" style="fill: #dc3545; stroke: #dc3545"/>
     <use xlink:href="#m4b889d90fb" x="356.572347" y="487.604924" style="fill: #dc3545; stroke: #dc3545"/>
     <use xlink:href="#m4b889d90fb" x="361.886085" y="487.456969" style="fill: #dc3545; stroke: #dc3545"/>
     <use xlink:href="#m4b889d90fb" x="521.299331" y="487.456969" style="fill: #dc3545; stroke: #dc3545"/>
     <use xlink:href="#m4b889d90fb" x="570.891126" y="486.434581" style="fill: #dc3545; stroke: #dc3545"/>
     <use xlink:href="#m4b889d90fb" x="574.43687" y="488.258255" style="fill: #dc3545; stroke: #dc3545"/>
     <use xlink:href="#m4b889d90fb" x="579.750632" y="488.013879" style="fill: #dc3545; stroke: #dc3545"/>
     <use xlink:href="#m4b889d90fb" x="585.064382" y="488.427822" style="fill: #dc3545; stroke: #dc3545"/>
     <use xlink:href="#m4b889d90fb" x="590.378143" y="488.231656" style="fill: #dc3545; stroke: #dc3545"/>
     <use xlink:href="#m4b889d90fb" x="595.691939" y="488.574115" style="fill: #dc3545; stroke: #dc3545"/>
     <use xlink:href="#m4b889d90fb" x="601.005684" y="488.482682" style="fill: #dc3545; stroke: #dc3545"/>
     <use xlink:href="#m4b889d90fb" x="606.319438" y="488.605701" style="fill: #dc3545; stroke: #dc3545"/>
     <use xlink:href="#m4b889d90fb" x="611.63319" y="488.534217" style="fill: #dc3545; stroke: #dc3545"/>
     <use xlink:href="#m4b889d90fb" x="616.94697" y="488.806854" style="fill: #dc3545; stroke: #dc3545"/>
     <use xlink:href="#m4b889d90fb" x="622.260745" y="488.620663" style="fill: #dc3545; stroke: #dc3545"/>
     <use xlink:href="#m4b889d90fb" x="627.574508" y="488.319765" style="fill: #dc3545; stroke: #dc3545"/>
     <use xlink:href="#m4b889d90fb" x="632.888292" y="488.544191" style="fill: #dc3545; stroke: #dc3545"/>
     <use xlink:href="#m4b889d90fb" x="638.202013" y="488.660561" style="fill: #dc3545; stroke: #dc3545"/>
     <use xlink:href="#m4b889d90fb" x="643.515793" y="488.597389" style="fill: #dc3545; stroke: #dc3545"/>
     <use xlink:href="#m4b889d90fb" x="648.82955" y="488.604038" style="fill: #dc3545; stroke: #dc3545"/>
     <use xlink:href="#m4b889d90fb" x="654.143324" y="488.421172" style="fill: #dc3545; stroke: #dc3545"/>
    </g>
   </g>
   <g id="patch_3">
    <path d="M 51.562344 510.837656 
L 51.562344 26.16 
" style="fill: none; stroke: #212529; stroke-width: 0.8; stroke-linejoin: miter; stroke-linecap: square"/>
   </g>
   <g id="patch_4">
    <path d="M 51.562344 510.837656 
L 682.837656 510.837656 
" style="fill: none; stroke: #212529; stroke-width: 0.8; stroke-linejoin: miter; stroke-linecap: square"/>
   </g>
   <g id="patch_5">
    <path d="M 51.562344 26.16 
L 682.837656 26.16 
" style="fill: none; stroke: #212529; stroke-width: 0.8; stroke-linejoin: miter; stroke-linecap: square"/>
   </g>
   <g id="legend_1">
    <g id="patch_6">
     <path d="M 57.393344 70.310952 
L 131.246603 70.310952 
Q 132.912603 70.310952 132.912603 68.644952 
L 132.912603 31.991 
Q 132.912603 30.325 131.246603 30.325 
L 57.393344 30.325 
Q 55.727344 30.325 55.727344 31.991 
L 55.727344 68.644952 
Q 55.727344 70.310952 57.393344 70.310952 
L 57.393344 70.310952 
z
" style="fill: none; opacity: 0.8; stroke: #212529; stroke-linejoin: miter"/>
    </g>
    <g id="line2d_17">
     <path d="M 59.059344 37.070998 
L 67.389344 37.070998 
L 75.719344 37.070998 
" style="fill: none; stroke: #007bff; stroke-width: 1.5; stroke-linecap: square"/>
     <g>
      <use xlink:href="#m882d99f594" x="67.389344" y="37.070998" style="fill: #007bff; stroke: #007bff"/>
     </g>
    </g>
    <g id="text_10">
     <text style="font-size: 8.33px; font-family: 'DejaVu Sans', 'Bitstream Vera Sans', 'Computer Modern Sans Serif', 'Lucida Grande', 'Verdana', 'Geneva', 'Lucid', 'Arial', 'Helvetica', 'Avant Garde', sans-serif; text-anchor: start; fill: #212529" x="82.383344" y="39.986498" transform="rotate(-0 82.383344 39.986498)">Cold Start</text>
    </g>
    <g id="line2d_18">
     <path d="M 59.059344 49.566649 
L 67.389344 49.566649 
L 75.719344 49.566649 
" style="fill: none; stroke: #dc3545; stroke-width: 1.5; stroke-linecap: square"/>
     <g>
      <use xlink:href="#m4b889d90fb" x="67.389344" y="49.566649" style="fill: #dc3545; stroke: #dc3545"/>
     </g>
    </g>
    <g id="text_11">
     <text style="font-size: 8.33px; font-family: 'DejaVu Sans', 'Bitstream Vera Sans', 'Computer Modern Sans Serif', 'Lucida Grande', 'Verdana', 'Geneva', 'Lucid', 'Arial', 'Helvetica', 'Avant Garde', sans-serif; text-anchor: start; fill: #212529" x="82.383344" y="52.482149" transform="rotate(-0 82.383344 52.482149)">Warm Start</text>
    </g>
    <g id="line2d_19">
     <path d="M 59.059344 62.0623 
L 67.389344 62.0623 
L 75.719344 62.0623 
" style="fill: none; stroke-dasharray: 5.55,2.4; stroke-dashoffset: 0; stroke: #ff7f0e; stroke-width: 1.5"/>
    </g>
    <g id="text_12">
     <text style="font-size: 8.33px; font-family: 'DejaVu Sans', 'Bitstream Vera Sans', 'Computer Modern Sans Serif', 'Lucida Grande', 'Verdana', 'Geneva', 'Lucid', 'Arial', 'Helvetica', 'Avant Garde', sans-serif; text-anchor: start; fill: #212529" x="82.383344" y="64.9778" transform="rotate(-0 82.383344 64.9778)">Memory</text>
    </g>
   </g>
  </g>
  <g id="axes_2">
   <g id="matplotlib.axis_3">
    <g id="ytick_7">
     <g id="line2d_20">
      <defs>
       <path id="m78c3fc735c" d="M 0 0 
L 3.5 0 
" style="stroke: #212529; stroke-width: 0.8"/>
      </defs>
      <g>
       <use xlink:href="#m78c3fc735c" x="682.837656" y="488.806854" style="fill: #212529; stroke: #212529; stroke-width: 0.8"/>
      </g>
     </g>
     <g id="text_13">
      <text style="font-size: 10px; font-family: 'DejaVu Sans', 'Bitstream Vera Sans', 'Computer Modern Sans Serif', 'Lucida Grande', 'Verdana', 'Geneva', 'Lucid', 'Arial', 'Helvetica', 'Avant Garde', sans-serif; text-anchor: start; fill: #ff7f0e" x="689.837656" y="492.605682" transform="rotate(-0 689.837656 492.605682)">23.0</text>
     </g>
    </g>
    <g id="ytick_8">
     <g id="line2d_21">
      <g>
       <use xlink:href="#m78c3fc735c" x="682.837656" y="390.892176" style="fill: #212529; stroke: #212529; stroke-width: 0.8"/>
      </g>
     </g>
     <g id="text_14">
      <text style="font-size: 10px; font-family: 'DejaVu Sans', 'Bitstream Vera Sans', 'Computer Modern Sans Serif', 'Lucida Grande', 'Verdana', 'Geneva', 'Lucid', 'Arial', 'Helvetica', 'Avant Garde', sans-serif; text-anchor: start; fill: #ff7f0e" x="689.837656" y="394.691004" transform="rotate(-0 689.837656 394.691004)">23.2</text>
     </g>
    </g>
    <g id="ytick_9">
     <g id="line2d_22">
      <g>
       <use xlink:href="#m78c3fc735c" x="682.837656" y="292.977498" style="fill: #212529; stroke: #212529; stroke-width: 0.8"/>
      </g>
     </g>
     <g id="text_15">
      <text style="font-size: 10px; font-family: 'DejaVu Sans', 'Bitstream Vera Sans', 'Computer Modern Sans Serif', 'Lucida Grande', 'Verdana', 'Geneva', 'Lucid', 'Arial', 'Helvetica', 'Avant Garde', sans-serif; text-anchor: start; fill: #ff7f0e" x="689.837656" y="296.776326" transform="rotate(-0 689.837656 296.776326)">23.4</text>
     </g>
    </g>
    <g id="ytick_10">
     <g id="line2d_23">
      <g>
       <use xlink:href="#m78c3fc735c" x="682.837656" y="195.06282" style="fill: #212529; stroke: #212529; stroke-width: 0.8"/>
      </g>
     </g>
     <g id="text_16">
      <text style="font-size: 10px; font-family: 'DejaVu Sans', 'Bitstream Vera Sans', 'Computer Modern Sans Serif', 'Lucida Grande', 'Verdana', 'Geneva', 'Lucid', 'Arial', 'Helvetica', 'Avant Garde', sans-serif; text-anchor: start; fill: #ff7f0e" x="689.837656" y="198.861648" transform="rotate(-0 689.837656 198.861648)">23.6</text>
     </g>
    </g>
    <g id="ytick_11">
     <g id="line2d_24">
      <g>
       <use xlink:href="#m78c3fc735c" x="682.837656" y="97.148142" style="fill: #212529; stroke: #212529; stroke-width: 0.8"/>
      </g>
     </g>
     <g id="text_17">
      <text style="font-size: 10px; font-family: 'DejaVu Sans', 'Bitstream Vera Sans', 'Computer Modern Sans Serif', 'Lucida Grande', 'Verdana', 'Geneva', 'Lucid', 'Arial', 'Helvetica', 'Avant Garde', sans-serif; text-anchor: start; fill: #ff7f0e" x="689.837656" y="100.94697" transform="rotate(-0 689.837656 100.94697)">23.8</text>
     </g>
    </g>
    <g id="text_18">
     <text style="font-size: 10px; font-family: 'DejaVu Sans', 'Bitstream Vera Sans', 'Computer Modern Sans Serif', 'Lucida Grande', 'Verdana', 'Geneva', 'Lucid', 'Arial', 'Helvetica', 'Avant Garde', sans-serif; text-anchor: middle; fill: #ff7f0e" x="723.701719" y="268.498828" transform="rotate(-90 723.701719 268.498828)">Memory Usage [MB]</text>
    </g>
   </g>
   <g id="line2d_25">
    <path d="M 80.256676 439.849515 
L 85.57043 488.806854 
L 90.884185 439.849515 
L 96.197942 488.806854 
L 101.511718 488.806854 
L 106.825461 390.892176 
L 112.139237 439.849515 
L 117.453009 488.806854 
L 122.766768 488.806854 
L 128.080513 488.806854 
L 133.394298 488.806854 
L 138.708042 341.934837 
L 144.021822 488.806854 
L 149.335592 434.464207 
L 154.649338 488.806854 
L 159.963131 439.849515 
L 165.276841 488.806854 
L 170.590609 439.849515 
L 175.904417 390.892176 
L 181.218175 439.849515 
L 186.531939 488.806854 
L 191.845661 390.892176 
L 197.159444 390.892176 
L 202.47321 244.020159 
L 207.786964 439.849515 
L 213.100735 292.977498 
L 234.355776 341.934837 
L 239.669577 390.892176 
L 244.983317 341.934837 
L 250.297081 390.892176 
L 255.610853 439.849515 
L 260.924612 390.892176 
L 266.238393 341.934837 
L 271.552048 390.892176 
L 276.865883 488.806854 
L 282.179676 488.806854 
L 287.493419 341.934837 
L 292.807201 439.849515 
L 298.120947 390.892176 
L 303.434714 341.934837 
L 308.748458 488.806854 
L 314.062241 244.020159 
L 319.376071 390.892176 
L 324.689767 292.977498 
L 330.003539 439.849515 
L 335.317287 439.849515 
L 340.631052 390.892176 
L 345.94482 292.977498 
L 351.25857 292.977498 
L 356.572347 390.892176 
L 361.886085 292.977498 
L 521.299331 292.977498 
L 570.891126 439.849515 
L 574.43687 292.977498 
L 579.750632 244.020159 
L 585.064382 48.190803 
L 590.378143 341.934837 
L 595.691939 488.806854 
L 601.005684 292.977498 
L 606.319438 488.806854 
L 611.63319 488.806854 
L 616.94697 488.806854 
L 622.260745 390.892176 
L 627.574508 439.849515 
L 632.888292 390.892176 
L 638.202013 488.806854 
L 643.515793 488.806854 
L 648.82955 439.849515 
L 654.143324 439.849515 
" clip-path="url(#pbc38194c47)" style="fill: none; stroke-dasharray: 5.55,2.4; stroke-dashoffset: 0; stroke: #ff7f0e; stroke-width: 1.5"/>
   </g>
   <g id="patch_7">
    <path d="M 682.837656 510.837656 
L 682.837656 26.16 
" style="fill: none; stroke: #ff7f0e; stroke-width: 0.8; stroke-linejoin: miter; stroke-linecap: square"/>
   </g>
   <g id="text_19">
    <text style="font-size: 12px; font-family: 'DejaVu Sans', 'Bitstream Vera Sans', 'Computer Modern Sans Serif', 'Lucida Grande', 'Verdana', 'Geneva', 'Lucid', 'Arial', 'Helvetica', 'Avant Garde', sans-serif; text-anchor: middle; fill: #212529" x="367.2" y="20.16" transform="rotate(-0 367.2 20.16)">dotnet10_aot_on_provided_al2023 (arm64, image, 256MB, us-east-1)</text>
   </g>
  </g>
 </g>
 <defs>
  <clipPath id="pbc38194c47">
   <rect x="51.562344" y="26.16" width="631.275313" height="484.677656"/>
  </clipPath>
 </defs>
</svg>
