<?xml version="1.0" encoding="utf-8" standalone="no"?>
<!DOCTYPE svg PUBLIC "-//W3C//DTD SVG 1.1//EN"
  "http://www.w3.org/Graphics/SVG/1.1/DTD/svg11.dtd">
<svg xmlns:xlink="http://www.w3.org/1999/xlink" width="216pt" height="122.4pt" viewBox="0 0 216 122.4" xmlns="http://www.w3.org/2000/svg" version="1.1">
  <style>
    :root {
      --fg-color: #212529;
      --grid-color: rgba(33, 37, 41, 0.1);
    }
    @media (prefers-color-scheme: dark) {
      :root {
        --fg-color: #dee2e6;
        --grid-color: rgba(248, 249, 250, 0.15);
      }
    }
  </style>

 <metadata>
  <rdf:RDF xmlns:dc="http://purl.org/dc/elements/1.1/" xmlns:cc="http://creativecommons.org/ns#" xmlns:rdf="http://www.w3.org/1999/02/22-rdf-syntax-ns#">
   <cc:Work>
    <dc:type rdf:resource="http://purl.org/dc/dcmitype/StillImage"/>
    <dc:date>2026-06-30T04:49:16.701968</dc:date>
    <dc:format>image/svg+xml</dc:format>
    <dc:creator>
     <cc:Agent>
      <dc:title>Matplotlib v3.11.0, https://matplotlib.org/</dc:title>
     </cc:Agent>
    </dc:creator>
   </cc:Work>
  </rdf:RDF>
 </metadata>
 <defs>
  <style type="text/css">*{stroke-linejoin: round; stroke-linecap: butt}</style>
 </defs>
 <g id="figure_1">
  <g id="patch_1">
   <path d="M 0 122.4 
L 216 122.4 
L 216 0 
L 0 0 
L 0 122.4 
z
" style="fill: none; opacity: 0"/>
  </g>
  <g id="axes_1">
   <g id="patch_2">
    <path d="M 35.96 103.4 
L 211 103.4 
L 211 5 
L 35.96 5 
L 35.96 103.4 
z
" style="fill: none; opacity: 0"/>
   </g>
   <g id="matplotlib.axis_1">
    <g id="xtick_1">
     <g id="line2d_1">
      <path d="M 72.056377 103.4 
L 72.056377 5 
" clip-path="url(#pb9f9cbefc7)" style="fill: none; stroke-dasharray: 2.96,1.28; stroke-dashoffset: 0; stroke: var(--grid-color); stroke-width: 0.8"/>
     </g>
     <g id="line2d_2">
      <defs>
       <path id="m369eb4c83d" d="M 0 0 
L 0 3.5 
" style="stroke: var(--fg-color); stroke-width: 0.8"/>
      </defs>
      <g>
       <use xlink:href="#m369eb4c83d" x="72.056377" y="103.4" style="fill: var(--fg-color); stroke: var(--fg-color); stroke-width: 0.8"/>
      </g>
     </g>
     <g id="text_1">
      <text style="font-size: 7px; font-family: 'DejaVu Sans', 'Bitstream Vera Sans', 'Computer Modern Sans Serif', 'Lucida Grande', 'Verdana', 'Geneva', 'Lucid', 'Arial', 'Helvetica', 'Avant Garde', sans-serif; text-anchor: middle; fill: var(--fg-color)" x="72.056377" y="115.718359" transform="rotate(-0 72.056377 115.718359)">02/2026</text>
     </g>
    </g>
    <g id="xtick_2">
     <g id="line2d_3">
      <path d="M 126.640628 103.4 
L 126.640628 5 
" clip-path="url(#pb9f9cbefc7)" style="fill: none; stroke-dasharray: 2.96,1.28; stroke-dashoffset: 0; stroke: var(--grid-color); stroke-width: 0.8"/>
     </g>
     <g id="line2d_4">
      <g>
       <use xlink:href="#m369eb4c83d" x="126.640628" y="103.4" style="fill: var(--fg-color); stroke: var(--fg-color); stroke-width: 0.8"/>
      </g>
     </g>
     <g id="text_2">
      <text style="font-size: 7px; font-family: 'DejaVu Sans', 'Bitstream Vera Sans', 'Computer Modern Sans Serif', 'Lucida Grande', 'Verdana', 'Geneva', 'Lucid', 'Arial', 'Helvetica', 'Avant Garde', sans-serif; text-anchor: middle; fill: var(--fg-color)" x="126.640628" y="115.718359" transform="rotate(-0 126.640628 115.718359)">04/2026</text>
     </g>
    </g>
    <g id="xtick_3">
     <g id="line2d_5">
      <path d="M 183.075192 103.4 
L 183.075192 5 
" clip-path="url(#pb9f9cbefc7)" style="fill: none; stroke-dasharray: 2.96,1.28; stroke-dashoffset: 0; stroke: var(--grid-color); stroke-width: 0.8"/>
     </g>
     <g id="line2d_6">
      <g>
       <use xlink:href="#m369eb4c83d" x="183.075192" y="103.4" style="fill: var(--fg-color); stroke: var(--fg-color); stroke-width: 0.8"/>
      </g>
     </g>
     <g id="text_3">
      <text style="font-size: 7px; font-family: 'DejaVu Sans', 'Bitstream Vera Sans', 'Computer Modern Sans Serif', 'Lucida Grande', 'Verdana', 'Geneva', 'Lucid', 'Arial', 'Helvetica', 'Avant Garde', sans-serif; text-anchor: middle; fill: var(--fg-color)" x="183.075192" y="115.718359" transform="rotate(-0 183.075192 115.718359)">06/2026</text>
     </g>
    </g>
   </g>
   <g id="matplotlib.axis_2">
    <g id="ytick_1">
     <g id="line2d_7">
      <path d="M 35.96 99.633366 
L 211 99.633366 
" clip-path="url(#pb9f9cbefc7)" style="fill: none; stroke-dasharray: 2.96,1.28; stroke-dashoffset: 0; stroke: var(--grid-color); stroke-width: 0.8"/>
     </g>
     <g id="line2d_8">
      <defs>
       <path id="md0f1b99d07" d="M 0 0 
L -3.5 0 
" style="stroke: var(--fg-color); stroke-width: 0.8"/>
      </defs>
      <g>
       <use xlink:href="#md0f1b99d07" x="35.96" y="99.633366" style="fill: var(--fg-color); stroke: var(--fg-color); stroke-width: 0.8"/>
      </g>
     </g>
     <g id="text_4">
      <text style="font-size: 7px; font-family: 'DejaVu Sans', 'Bitstream Vera Sans', 'Computer Modern Sans Serif', 'Lucida Grande', 'Verdana', 'Geneva', 'Lucid', 'Arial', 'Helvetica', 'Avant Garde', sans-serif; text-anchor: end; fill: var(--fg-color)" x="28.96" y="102.292545" transform="rotate(-0 28.96 102.292545)">0</text>
     </g>
    </g>
    <g id="ytick_2">
     <g id="line2d_9">
      <path d="M 35.96 84.996281 
L 211 84.996281 
" clip-path="url(#pb9f9cbefc7)" style="fill: none; stroke-dasharray: 2.96,1.28; stroke-dashoffset: 0; stroke: var(--grid-color); stroke-width: 0.8"/>
     </g>
     <g id="line2d_10">
      <g>
       <use xlink:href="#md0f1b99d07" x="35.96" y="84.996281" style="fill: var(--fg-color); stroke: var(--fg-color); stroke-width: 0.8"/>
      </g>
     </g>
     <g id="text_5">
      <text style="font-size: 7px; font-family: 'DejaVu Sans', 'Bitstream Vera Sans', 'Computer Modern Sans Serif', 'Lucida Grande', 'Verdana', 'Geneva', 'Lucid', 'Arial', 'Helvetica', 'Avant Garde', sans-serif; text-anchor: end; fill: var(--fg-color)" x="28.96" y="87.65546" transform="rotate(-0 28.96 87.65546)">50</text>
     </g>
    </g>
    <g id="ytick_3">
     <g id="line2d_11">
      <path d="M 35.96 70.359196 
L 211 70.359196 
" clip-path="url(#pb9f9cbefc7)" style="fill: none; stroke-dasharray: 2.96,1.28; stroke-dashoffset: 0; stroke: var(--grid-color); stroke-width: 0.8"/>
     </g>
     <g id="line2d_12">
      <g>
       <use xlink:href="#md0f1b99d07" x="35.96" y="70.359196" style="fill: var(--fg-color); stroke: var(--fg-color); stroke-width: 0.8"/>
      </g>
     </g>
     <g id="text_6">
      <text style="font-size: 7px; font-family: 'DejaVu Sans', 'Bitstream Vera Sans', 'Computer Modern Sans Serif', 'Lucida Grande', 'Verdana', 'Geneva', 'Lucid', 'Arial', 'Helvetica', 'Avant Garde', sans-serif; text-anchor: end; fill: var(--fg-color)" x="28.96" y="73.018375" transform="rotate(-0 28.96 73.018375)">100</text>
     </g>
    </g>
    <g id="ytick_4">
     <g id="line2d_13">
      <path d="M 35.96 55.72211 
L 211 55.72211 
" clip-path="url(#pb9f9cbefc7)" style="fill: none; stroke-dasharray: 2.96,1.28; stroke-dashoffset: 0; stroke: var(--grid-color); stroke-width: 0.8"/>
     </g>
     <g id="line2d_14">
      <g>
       <use xlink:href="#md0f1b99d07" x="35.96" y="55.72211" style="fill: var(--fg-color); stroke: var(--fg-color); stroke-width: 0.8"/>
      </g>
     </g>
     <g id="text_7">
      <text style="font-size: 7px; font-family: 'DejaVu Sans', 'Bitstream Vera Sans', 'Computer Modern Sans Serif', 'Lucida Grande', 'Verdana', 'Geneva', 'Lucid', 'Arial', 'Helvetica', 'Avant Garde', sans-serif; text-anchor: end; fill: var(--fg-color)" x="28.96" y="58.38129" transform="rotate(-0 28.96 58.38129)">150</text>
     </g>
    </g>
    <g id="ytick_5">
     <g id="line2d_15">
      <path d="M 35.96 41.085025 
L 211 41.085025 
" clip-path="url(#pb9f9cbefc7)" style="fill: none; stroke-dasharray: 2.96,1.28; stroke-dashoffset: 0; stroke: var(--grid-color); stroke-width: 0.8"/>
     </g>
     <g id="line2d_16">
      <g>
       <use xlink:href="#md0f1b99d07" x="35.96" y="41.085025" style="fill: var(--fg-color); stroke: var(--fg-color); stroke-width: 0.8"/>
      </g>
     </g>
     <g id="text_8">
      <text style="font-size: 7px; font-family: 'DejaVu Sans', 'Bitstream Vera Sans', 'Computer Modern Sans Serif', 'Lucida Grande', 'Verdana', 'Geneva', 'Lucid', 'Arial', 'Helvetica', 'Avant Garde', sans-serif; text-anchor: end; fill: var(--fg-color)" x="28.96" y="43.744205" transform="rotate(-0 28.96 43.744205)">200</text>
     </g>
    </g>
    <g id="ytick_6">
     <g id="line2d_17">
      <path d="M 35.96 26.44794 
L 211 26.44794 
" clip-path="url(#pb9f9cbefc7)" style="fill: none; stroke-dasharray: 2.96,1.28; stroke-dashoffset: 0; stroke: var(--grid-color); stroke-width: 0.8"/>
     </g>
     <g id="line2d_18">
      <g>
       <use xlink:href="#md0f1b99d07" x="35.96" y="26.44794" style="fill: var(--fg-color); stroke: var(--fg-color); stroke-width: 0.8"/>
      </g>
     </g>
     <g id="text_9">
      <text style="font-size: 7px; font-family: 'DejaVu Sans', 'Bitstream Vera Sans', 'Computer Modern Sans Serif', 'Lucida Grande', 'Verdana', 'Geneva', 'Lucid', 'Arial', 'Helvetica', 'Avant Garde', sans-serif; text-anchor: end; fill: var(--fg-color)" x="28.96" y="29.10712" transform="rotate(-0 28.96 29.10712)">250</text>
     </g>
    </g>
    <g id="ytick_7">
     <g id="line2d_19">
      <path d="M 35.96 11.810855 
L 211 11.810855 
" clip-path="url(#pb9f9cbefc7)" style="fill: none; stroke-dasharray: 2.96,1.28; stroke-dashoffset: 0; stroke: var(--grid-color); stroke-width: 0.8"/>
     </g>
     <g id="line2d_20">
      <g>
       <use xlink:href="#md0f1b99d07" x="35.96" y="11.810855" style="fill: var(--fg-color); stroke: var(--fg-color); stroke-width: 0.8"/>
      </g>
     </g>
     <g id="text_10">
      <text style="font-size: 7px; font-family: 'DejaVu Sans', 'Bitstream Vera Sans', 'Computer Modern Sans Serif', 'Lucida Grande', 'Verdana', 'Geneva', 'Lucid', 'Arial', 'Helvetica', 'Avant Garde', sans-serif; text-anchor: end; fill: var(--fg-color)" x="28.96" y="14.470035" transform="rotate(-0 28.96 14.470035)">300</text>
     </g>
    </g>
    <g id="text_11">
     <text style="font-size: 7px; font-family: 'DejaVu Sans', 'Bitstream Vera Sans', 'Computer Modern Sans Serif', 'Lucida Grande', 'Verdana', 'Geneva', 'Lucid', 'Arial', 'Helvetica', 'Avant Garde', sans-serif; text-anchor: middle; fill: var(--fg-color)" x="9.917109" y="54.2" transform="rotate(-90 9.917109 54.2)">ms</text>
    </g>
   </g>
   <g id="line2d_21">
    <path d="M 43.916364 42.476427 
L 45.193108 38.445959 
L 45.766628 32.084389 
L 46.691788 38.172538 
L 47.616947 33.634456 
L 48.542109 26.080549 
L 49.467263 35.814211 
L 50.392418 34.174272 
L 51.317566 39.772372 
L 52.242732 30.377998 
L 53.167891 35.129781 
L 54.093049 36.891208 
L 55.018206 30.463771 
L 55.943359 39.101408 
L 56.868517 33.957643 
L 57.793676 37.373646 
L 58.718827 35.113095 
L 59.643987 39.226994 
L 60.569143 34.158171 
L 61.494301 31.892058 
L 62.419457 35.081771 
L 63.344613 26.770834 
L 64.269773 35.779375 
L 65.194924 35.267077 
L 66.120079 37.235765 
L 67.045243 34.556007 
L 67.970398 37.629795 
L 68.895557 35.014441 
L 69.82071 33.430708 
L 70.74585 36.973761 
L 71.671025 28.185655 
L 72.596178 34.08118 
L 73.521341 31.920746 
L 74.446495 32.268524 
L 75.371653 30.369508 
L 76.296805 39.045787 
L 77.221971 28.141451 
L 78.147114 35.03786 
L 79.072277 30.990121 
L 79.997435 35.012392 
L 80.922594 29.504164 
L 81.847735 36.365151 
L 82.772905 25.421588 
L 83.698046 30.812719 
L 84.623219 32.083218 
L 85.548376 30.065642 
L 86.473535 33.46613 
L 87.398688 37.567441 
L 88.323852 32.356932 
L 97.76512 21.252946 
L 98.500856 19.052407 
L 99.426031 20.908096 
L 100.351186 16.120891 
L 101.276348 38.925763 
L 102.201502 31.627712 
L 103.126656 31.438894 
L 104.051812 32.995108 
L 104.976967 37.558659 
L 105.902123 36.148229 
L 106.827282 33.840254 
L 107.752435 33.975793 
L 108.677594 36.902332 
L 109.602753 38.128334 
L 110.527909 37.080904 
L 111.453063 36.776453 
L 112.378223 33.092884 
L 113.303377 32.039892 
L 114.228537 35.180133 
L 115.153695 34.899101 
L 116.078848 33.699445 
L 117.004011 28.241569 
L 117.929158 28.942685 
L 118.854316 29.122429 
L 119.779481 37.875991 
L 120.704637 40.082092 
L 121.629794 37.489279 
L 122.554943 31.279057 
L 123.480104 33.791659 
L 124.405261 33.20032 
L 125.330416 24.940906 
L 126.255574 36.355198 
L 129.9562 32.260034 
L 130.881363 38.91054 
L 131.806516 32.487202 
L 132.731673 32.146743 
L 133.656831 33.87509 
L 134.581987 29.761191 
L 135.507147 35.334407 
L 136.432285 28.408724 
L 137.357455 32.092879 
L 138.282617 29.676003 
L 139.20777 25.91193 
L 140.13293 35.623636 
L 141.058084 30.874195 
L 141.983242 33.561564 
L 142.908395 30.192985 
L 143.833556 24.835226 
L 144.758724 28.039577 
L 145.683869 29.74831 
L 146.609028 10.168867 
L 147.534182 23.579072 
L 148.459339 9.472727 
L 149.384497 30.339356 
L 150.309651 27.794259 
L 151.234811 27.038986 
L 152.159963 25.582596 
L 179.91473 25.582596 
L 188.548948 27.473415 
L 189.166282 25.830548 
L 190.091439 19.451414 
L 191.016594 31.170449 
L 191.94175 33.509456 
L 192.866913 25.352794 
L 193.792066 39.842337 
L 194.717222 27.935654 
L 195.642377 30.979875 
L 196.567536 30.688011 
L 197.492695 32.166649 
L 198.417852 10.530989 
L 199.343013 31.721097 
L 200.268162 25.284292 
L 201.193322 33.827373 
L 202.118478 25.345182 
L 203.043636 31.683333 
" clip-path="url(#pb9f9cbefc7)" style="fill: none; stroke: #339af0; stroke-width: 1.2; stroke-linecap: square"/>
   </g>
   <g id="line2d_22">
    <path d="M 43.916364 98.873408 
L 45.193108 98.840621 
L 45.766628 98.873701 
L 46.691788 98.887753 
L 47.616947 98.798174 
L 48.542109 98.845891 
L 49.467263 98.849989 
L 50.392418 98.907952 
L 51.317566 98.902097 
L 52.242732 98.83945 
L 53.167891 98.869603 
L 54.093049 98.906781 
L 55.018206 98.836816 
L 55.943359 98.899462 
L 56.868517 98.853795 
L 57.793676 98.868139 
L 58.718827 98.818666 
L 59.643987 98.927273 
L 60.569143 98.881312 
L 61.494301 98.865504 
L 62.419457 98.885118 
L 63.344613 98.847354 
L 64.269773 98.893315 
L 65.194924 98.823935 
L 66.120079 98.87897 
L 67.045243 98.861406 
L 67.970398 98.885996 
L 68.895557 98.837108 
L 69.82071 98.827155 
L 70.74585 98.883361 
L 71.671025 98.804614 
L 72.596178 98.410876 
L 73.521341 98.886289 
L 74.446495 98.824228 
L 75.371653 98.85116 
L 76.296805 98.896535 
L 77.221971 98.878385 
L 78.147114 98.832424 
L 79.072277 98.855551 
L 79.997435 98.844427 
L 80.922594 98.867261 
L 81.847735 98.871066 
L 82.772905 98.880434 
L 83.698046 98.85438 
L 84.623219 98.629554 
L 85.548376 98.831839 
L 86.473535 98.838279 
L 87.398688 98.911757 
L 88.323852 98.870481 
L 97.76512 98.774169 
L 98.500856 98.79349 
L 99.426031 98.719133 
L 100.351186 98.771241 
L 101.276348 98.819251 
L 102.201502 98.690445 
L 103.126656 98.731136 
L 104.051812 98.544367 
L 104.976967 98.79027 
L 105.902123 98.8576 
L 106.827282 98.86082 
L 107.752435 98.879849 
L 108.677594 98.845012 
L 109.602753 98.823935 
L 110.527909 98.748115 
L 111.453063 98.746651 
L 112.378223 98.868432 
L 113.303377 98.777096 
L 114.228537 98.861113 
L 115.153695 98.823057 
L 116.078848 98.670831 
L 117.004011 98.788806 
L 117.929158 98.770656 
L 118.854316 98.796417 
L 119.779481 98.882776 
L 120.704637 98.899462 
L 121.629794 98.866968 
L 122.554943 98.730843 
L 123.480104 98.748408 
L 124.405261 98.726159 
L 125.330416 98.682541 
L 126.255574 98.651217 
L 129.9562 98.719133 
L 130.881363 98.831839 
L 131.806516 98.706253 
L 132.731673 98.76685 
L 133.656831 98.776803 
L 134.581987 98.656194 
L 135.507147 98.756019 
L 136.432285 98.705082 
L 137.357455 98.77534 
L 138.282617 98.616088 
L 139.20777 98.791441 
L 140.13293 98.731136 
L 141.058084 98.688688 
L 141.983242 98.641557 
L 142.908395 98.681662 
L 143.833556 98.664683 
L 144.758724 98.508359 
L 145.683869 98.703618 
L 146.609028 98.709473 
L 147.534182 98.758946 
L 148.459339 98.721768 
L 149.384497 98.377504 
L 150.309651 98.709766 
L 151.234811 98.700105 
L 152.159963 98.672587 
L 179.91473 98.672587 
L 188.548948 98.730843 
L 189.166282 98.747822 
L 190.091439 98.732307 
L 191.016594 98.8576 
L 191.94175 98.815445 
L 192.866913 98.804907 
L 193.792066 98.82452 
L 194.717222 98.79993 
L 195.642377 98.845012 
L 196.567536 98.715328 
L 197.492695 98.776803 
L 198.417852 98.809298 
L 199.343013 98.821593 
L 200.268162 98.770656 
L 201.193322 98.841499 
L 202.118478 98.739333 
L 203.043636 98.850574 
" clip-path="url(#pb9f9cbefc7)" style="fill: none; stroke: #ff6b6b; stroke-width: 1.2; stroke-linecap: square"/>
   </g>
   <g id="patch_3">
    <path d="M 35.96 103.4 
L 35.96 5 
" style="fill: none; stroke: var(--fg-color); stroke-width: 0.8; stroke-linejoin: miter; stroke-linecap: square"/>
   </g>
   <g id="patch_4">
    <path d="M 35.96 103.4 
L 211 103.4 
" style="fill: none; stroke: var(--fg-color); stroke-width: 0.8; stroke-linejoin: miter; stroke-linecap: square"/>
   </g>
  </g>
 </g>
 <defs>
  <clipPath id="pb9f9cbefc7">
   <rect x="35.96" y="5" width="175.04" height="98.4"/>
  </clipPath>
 </defs>
</svg>
