<?xml version="1.0" encoding="utf-8" standalone="no"?>
<!DOCTYPE svg PUBLIC "-//W3C//DTD SVG 1.1//EN"
  "http://www.w3.org/Graphics/SVG/1.1/DTD/svg11.dtd">
<svg xmlns:xlink="http://www.w3.org/1999/xlink" width="737.28pt" height="552.96pt" viewBox="0 0 737.28 552.96" xmlns="http://www.w3.org/2000/svg" version="1.1">
 <metadata>
  <rdf:RDF xmlns:dc="http://purl.org/dc/elements/1.1/" xmlns:cc="http://creativecommons.org/ns#" xmlns:rdf="http://www.w3.org/1999/02/22-rdf-syntax-ns#">
   <cc:Work>
    <dc:type rdf:resource="http://purl.org/dc/dcmitype/StillImage"/>
    <dc:date>2026-06-30T15:36:49.875112</dc:date>
    <dc:format>image/svg+xml</dc:format>
    <dc:creator>
     <cc:Agent>
      <dc:title>Matplotlib v3.11.0, https://matplotlib.org/</dc:title>
     </cc:Agent>
    </dc:creator>
   </cc:Work>
  </rdf:RDF>
 </metadata>
 <defs>
  <style type="text/css">*{stroke-linejoin: round; stroke-linecap: butt}</style>
 </defs>
 <g id="figure_1">
  <g id="patch_1">
   <path d="M 0 552.96 
L 737.28 552.96 
L 737.28 0 
L 0 0 
z
" style="fill: #ffffff"/>
  </g>
  <g id="axes_1">
   <g id="patch_2">
    <path d="M 51.562344 510.837656 
L 682.837656 510.837656 
L 682.837656 26.16 
L 51.562344 26.16 
z
" style="fill: #ffffff"/>
   </g>
   <g id="matplotlib.axis_1">
    <g id="xtick_1">
     <g id="line2d_1">
      <path d="M 205.998164 510.837656 
L 205.998164 26.16 
" clip-path="url(#p0036786c33)" style="fill: none; stroke-dasharray: 2.96,1.28; stroke-dashoffset: 0; stroke: #dee2e6; stroke-width: 0.8"/>
     </g>
     <g id="line2d_2">
      <defs>
       <path id="m60e65ec8b8" d="M 0 0 
L 0 3.5 
" style="stroke: #212529; stroke-width: 0.8"/>
      </defs>
      <g>
       <use xlink:href="#m60e65ec8b8" x="205.998164" y="510.837656" style="fill: #212529; stroke: #212529; stroke-width: 0.8"/>
      </g>
     </g>
     <g id="text_1">
      <text style="font-size: 10px; font-family: 'DejaVu Sans', 'Bitstream Vera Sans', 'Computer Modern Sans Serif', 'Lucida Grande', 'Verdana', 'Geneva', 'Lucid', 'Arial', 'Helvetica', 'Avant Garde', sans-serif; text-anchor: middle; fill: #212529" x="205.998164" y="525.435313" transform="rotate(-0 205.998164 525.435313)">04/2026</text>
     </g>
    </g>
    <g id="xtick_2">
     <g id="line2d_3">
      <path d="M 656.202163 510.837656 
L 656.202163 26.16 
" clip-path="url(#p0036786c33)" style="fill: none; stroke-dasharray: 2.96,1.28; stroke-dashoffset: 0; stroke: #dee2e6; stroke-width: 0.8"/>
     </g>
     <g id="line2d_4">
      <g>
       <use xlink:href="#m60e65ec8b8" x="656.202163" y="510.837656" style="fill: #212529; stroke: #212529; stroke-width: 0.8"/>
      </g>
     </g>
     <g id="text_2">
      <text style="font-size: 10px; font-family: 'DejaVu Sans', 'Bitstream Vera Sans', 'Computer Modern Sans Serif', 'Lucida Grande', 'Verdana', 'Geneva', 'Lucid', 'Arial', 'Helvetica', 'Avant Garde', sans-serif; text-anchor: middle; fill: #212529" x="656.202163" y="525.435313" transform="rotate(-0 656.202163 525.435313)">07/2026</text>
     </g>
    </g>
    <g id="text_3">
     <text style="font-size: 10px; font-family: 'DejaVu Sans', 'Bitstream Vera Sans', 'Computer Modern Sans Serif', 'Lucida Grande', 'Verdana', 'Geneva', 'Lucid', 'Arial', 'Helvetica', 'Avant Garde', sans-serif; text-anchor: middle; fill: #212529" x="367.2" y="539.436094" transform="rotate(-0 367.2 539.436094)">Time</text>
    </g>
   </g>
   <g id="matplotlib.axis_2">
    <g id="ytick_1">
     <g id="line2d_5">
      <path d="M 51.562344 450.69001 
L 682.837656 450.69001 
" clip-path="url(#p0036786c33)" style="fill: none; stroke-dasharray: 2.96,1.28; stroke-dashoffset: 0; stroke: #dee2e6; stroke-width: 0.8"/>
     </g>
     <g id="line2d_6">
      <defs>
       <path id="mb32774ad08" d="M 0 0 
L -3.5 0 
" style="stroke: #212529; stroke-width: 0.8"/>
      </defs>
      <g>
       <use xlink:href="#mb32774ad08" x="51.562344" y="450.69001" style="fill: #212529; stroke: #212529; stroke-width: 0.8"/>
      </g>
     </g>
     <g id="text_4">
      <text style="font-size: 10px; font-family: 'DejaVu Sans', 'Bitstream Vera Sans', 'Computer Modern Sans Serif', 'Lucida Grande', 'Verdana', 'Geneva', 'Lucid', 'Arial', 'Helvetica', 'Avant Garde', sans-serif; text-anchor: end; fill: #212529" x="44.562344" y="454.488838" transform="rotate(-0 44.562344 454.488838)">200</text>
     </g>
    </g>
    <g id="ytick_2">
     <g id="line2d_7">
      <path d="M 51.562344 375.246965 
L 682.837656 375.246965 
" clip-path="url(#p0036786c33)" style="fill: none; stroke-dasharray: 2.96,1.28; stroke-dashoffset: 0; stroke: #dee2e6; stroke-width: 0.8"/>
     </g>
     <g id="line2d_8">
      <g>
       <use xlink:href="#mb32774ad08" x="51.562344" y="375.246965" style="fill: #212529; stroke: #212529; stroke-width: 0.8"/>
      </g>
     </g>
     <g id="text_5">
      <text style="font-size: 10px; font-family: 'DejaVu Sans', 'Bitstream Vera Sans', 'Computer Modern Sans Serif', 'Lucida Grande', 'Verdana', 'Geneva', 'Lucid', 'Arial', 'Helvetica', 'Avant Garde', sans-serif; text-anchor: end; fill: #212529" x="44.562344" y="379.045793" transform="rotate(-0 44.562344 379.045793)">250</text>
     </g>
    </g>
    <g id="ytick_3">
     <g id="line2d_9">
      <path d="M 51.562344 299.80392 
L 682.837656 299.80392 
" clip-path="url(#p0036786c33)" style="fill: none; stroke-dasharray: 2.96,1.28; stroke-dashoffset: 0; stroke: #dee2e6; stroke-width: 0.8"/>
     </g>
     <g id="line2d_10">
      <g>
       <use xlink:href="#mb32774ad08" x="51.562344" y="299.80392" style="fill: #212529; stroke: #212529; stroke-width: 0.8"/>
      </g>
     </g>
     <g id="text_6">
      <text style="font-size: 10px; font-family: 'DejaVu Sans', 'Bitstream Vera Sans', 'Computer Modern Sans Serif', 'Lucida Grande', 'Verdana', 'Geneva', 'Lucid', 'Arial', 'Helvetica', 'Avant Garde', sans-serif; text-anchor: end; fill: #212529" x="44.562344" y="303.602748" transform="rotate(-0 44.562344 303.602748)">300</text>
     </g>
    </g>
    <g id="ytick_4">
     <g id="line2d_11">
      <path d="M 51.562344 224.360875 
L 682.837656 224.360875 
" clip-path="url(#p0036786c33)" style="fill: none; stroke-dasharray: 2.96,1.28; stroke-dashoffset: 0; stroke: #dee2e6; stroke-width: 0.8"/>
     </g>
     <g id="line2d_12">
      <g>
       <use xlink:href="#mb32774ad08" x="51.562344" y="224.360875" style="fill: #212529; stroke: #212529; stroke-width: 0.8"/>
      </g>
     </g>
     <g id="text_7">
      <text style="font-size: 10px; font-family: 'DejaVu Sans', 'Bitstream Vera Sans', 'Computer Modern Sans Serif', 'Lucida Grande', 'Verdana', 'Geneva', 'Lucid', 'Arial', 'Helvetica', 'Avant Garde', sans-serif; text-anchor: end; fill: #212529" x="44.562344" y="228.159703" transform="rotate(-0 44.562344 228.159703)">350</text>
     </g>
    </g>
    <g id="ytick_5">
     <g id="line2d_13">
      <path d="M 51.562344 148.91783 
L 682.837656 148.91783 
" clip-path="url(#p0036786c33)" style="fill: none; stroke-dasharray: 2.96,1.28; stroke-dashoffset: 0; stroke: #dee2e6; stroke-width: 0.8"/>
     </g>
     <g id="line2d_14">
      <g>
       <use xlink:href="#mb32774ad08" x="51.562344" y="148.91783" style="fill: #212529; stroke: #212529; stroke-width: 0.8"/>
      </g>
     </g>
     <g id="text_8">
      <text style="font-size: 10px; font-family: 'DejaVu Sans', 'Bitstream Vera Sans', 'Computer Modern Sans Serif', 'Lucida Grande', 'Verdana', 'Geneva', 'Lucid', 'Arial', 'Helvetica', 'Avant Garde', sans-serif; text-anchor: end; fill: #212529" x="44.562344" y="152.716658" transform="rotate(-0 44.562344 152.716658)">400</text>
     </g>
    </g>
    <g id="ytick_6">
     <g id="line2d_15">
      <path d="M 51.562344 73.474785 
L 682.837656 73.474785 
" clip-path="url(#p0036786c33)" style="fill: none; stroke-dasharray: 2.96,1.28; stroke-dashoffset: 0; stroke: #dee2e6; stroke-width: 0.8"/>
     </g>
     <g id="line2d_16">
      <g>
       <use xlink:href="#mb32774ad08" x="51.562344" y="73.474785" style="fill: #212529; stroke: #212529; stroke-width: 0.8"/>
      </g>
     </g>
     <g id="text_9">
      <text style="font-size: 10px; font-family: 'DejaVu Sans', 'Bitstream Vera Sans', 'Computer Modern Sans Serif', 'Lucida Grande', 'Verdana', 'Geneva', 'Lucid', 'Arial', 'Helvetica', 'Avant Garde', sans-serif; text-anchor: end; fill: #212529" x="44.562344" y="77.273613" transform="rotate(-0 44.562344 77.273613)">450</text>
     </g>
    </g>
    <g id="text_10">
     <text style="font-size: 10px; font-family: 'DejaVu Sans', 'Bitstream Vera Sans', 'Computer Modern Sans Serif', 'Lucida Grande', 'Verdana', 'Geneva', 'Lucid', 'Arial', 'Helvetica', 'Avant Garde', sans-serif; text-anchor: middle; fill: #212529" x="19.0725" y="268.498828" transform="rotate(-90 19.0725 268.498828)">Duration [ms]</text>
    </g>
   </g>
   <g id="line2d_17">
    <path d="M 80.256676 145.848807 
L 85.203965 157.72656 
L 90.151254 227.754303 
L 95.098545 242.262 
L 100.045854 320.196175 
L 104.993133 161.285962 
L 109.940441 125.898648 
L 114.887747 219.50536 
L 119.83504 251.54753 
L 124.78232 346.785321 
L 129.729637 216.522342 
L 134.676916 145.276948 
L 139.62423 137.45954 
L 144.571533 194.438654 
L 149.518813 239.936846 
L 154.466139 290.874481 
L 159.413386 148.389728 
L 164.360688 279.354328 
L 169.308026 294.178886 
L 174.255319 350.183276 
L 179.202617 68.162085 
L 184.149875 342.002232 
L 189.097191 391.70411 
L 194.044491 363.310366 
L 198.991779 336.704622 
L 203.939083 375.797699 
L 223.72826 143.445191 
L 228.675593 281.133275 
L 233.622868 131.132886 
L 238.570166 294.159271 
L 243.517471 345.735154 
L 248.464764 264.748554 
L 253.412078 284.70324 
L 258.359274 299.305996 
L 263.306639 340.669908 
L 268.253963 336.724237 
L 273.201241 348.567286 
L 278.148556 359.615166 
L 283.095837 196.707981 
L 288.043138 335.962262 
L 292.990417 275.106884 
L 297.937732 359.707206 
L 302.885091 349.124056 
L 307.832326 93.180508 
L 312.779631 218.871639 
L 317.726914 282.64968 
L 322.674213 253.672006 
L 327.621515 263.384544 
L 332.5688 216.769795 
L 337.516109 258.450569 
L 342.463383 268.968838 
L 490.882621 268.968838 
L 537.054295 387.378206 
L 540.355505 404.76481 
L 545.302801 393.17525 
L 550.250086 418.10465 
L 555.197381 350.49561 
L 560.144708 369.234154 
L 565.091988 356.512948 
L 570.039277 406.462279 
L 574.986564 361.804523 
L 579.933876 417.565986 
L 584.881185 313.086422 
L 589.828481 121.031063 
L 594.775798 261.460746 
L 599.723056 245.346112 
L 604.670368 311.346706 
L 609.617659 227.125108 
L 614.564967 272.670074 
L 619.512264 349.249291 
L 624.45956 282.963523 
L 629.406856 307.072103 
L 634.354147 234.352552 
L 639.301447 235.141686 
L 644.248728 384.108505 
L 649.196018 48.190803 
L 654.143324 389.261265 
" clip-path="url(#p0036786c33)" style="fill: none; stroke: #007bff; stroke-width: 1.5; stroke-linecap: square"/>
    <defs>
     <path id="mf3376333c4" d="M 0 2 
C 0.530406 2 1.03916 1.789267 1.414214 1.414214 
C 1.789267 1.03916 2 0.530406 2 0 
C 2 -0.530406 1.789267 -1.03916 1.414214 -1.414214 
C 1.03916 -1.789267 0.530406 -2 0 -2 
C -0.530406 -2 -1.03916 -1.789267 -1.414214 -1.414214 
C -1.789267 -1.03916 -2 -0.530406 -2 0 
C -2 0.530406 -1.789267 1.03916 -1.414214 1.414214 
C -1.03916 1.789267 -0.530406 2 0 2 
z
" style="stroke: #007bff"/>
    </defs>
    <g clip-path="url(#p0036786c33)">
     <use xlink:href="#mf3376333c4" x="80.256676" y="145.848807" style="fill: #007bff; stroke: #007bff"/>
     <use xlink:href="#mf3376333c4" x="85.203965" y="157.72656" style="fill: #007bff; stroke: #007bff"/>
     <use xlink:href="#mf3376333c4" x="90.151254" y="227.754303" style="fill: #007bff; stroke: #007bff"/>
     <use xlink:href="#mf3376333c4" x="95.098545" y="242.262" style="fill: #007bff; stroke: #007bff"/>
     <use xlink:href="#mf3376333c4" x="100.045854" y="320.196175" style="fill: #007bff; stroke: #007bff"/>
     <use xlink:href="#mf3376333c4" x="104.993133" y="161.285962" style="fill: #007bff; stroke: #007bff"/>
     <use xlink:href="#mf3376333c4" x="109.940441" y="125.898648" style="fill: #007bff; stroke: #007bff"/>
     <use xlink:href="#mf3376333c4" x="114.887747" y="219.50536" style="fill: #007bff; stroke: #007bff"/>
     <use xlink:href="#mf3376333c4" x="119.83504" y="251.54753" style="fill: #007bff; stroke: #007bff"/>
     <use xlink:href="#mf3376333c4" x="124.78232" y="346.785321" style="fill: #007bff; stroke: #007bff"/>
     <use xlink:href="#mf3376333c4" x="129.729637" y="216.522342" style="fill: #007bff; stroke: #007bff"/>
     <use xlink:href="#mf3376333c4" x="134.676916" y="145.276948" style="fill: #007bff; stroke: #007bff"/>
     <use xlink:href="#mf3376333c4" x="139.62423" y="137.45954" style="fill: #007bff; stroke: #007bff"/>
     <use xlink:href="#mf3376333c4" x="144.571533" y="194.438654" style="fill: #007bff; stroke: #007bff"/>
     <use xlink:href="#mf3376333c4" x="149.518813" y="239.936846" style="fill: #007bff; stroke: #007bff"/>
     <use xlink:href="#mf3376333c4" x="154.466139" y="290.874481" style="fill: #007bff; stroke: #007bff"/>
     <use xlink:href="#mf3376333c4" x="159.413386" y="148.389728" style="fill: #007bff; stroke: #007bff"/>
     <use xlink:href="#mf3376333c4" x="164.360688" y="279.354328" style="fill: #007bff; stroke: #007bff"/>
     <use xlink:href="#mf3376333c4" x="169.308026" y="294.178886" style="fill: #007bff; stroke: #007bff"/>
     <use xlink:href="#mf3376333c4" x="174.255319" y="350.183276" style="fill: #007bff; stroke: #007bff"/>
     <use xlink:href="#mf3376333c4" x="179.202617" y="68.162085" style="fill: #007bff; stroke: #007bff"/>
     <use xlink:href="#mf3376333c4" x="184.149875" y="342.002232" style="fill: #007bff; stroke: #007bff"/>
     <use xlink:href="#mf3376333c4" x="189.097191" y="391.70411" style="fill: #007bff; stroke: #007bff"/>
     <use xlink:href="#mf3376333c4" x="194.044491" y="363.310366" style="fill: #007bff; stroke: #007bff"/>
     <use xlink:href="#mf3376333c4" x="198.991779" y="336.704622" style="fill: #007bff; stroke: #007bff"/>
     <use xlink:href="#mf3376333c4" x="203.939083" y="375.797699" style="fill: #007bff; stroke: #007bff"/>
     <use xlink:href="#mf3376333c4" x="223.72826" y="143.445191" style="fill: #007bff; stroke: #007bff"/>
     <use xlink:href="#mf3376333c4" x="228.675593" y="281.133275" style="fill: #007bff; stroke: #007bff"/>
     <use xlink:href="#mf3376333c4" x="233.622868" y="131.132886" style="fill: #007bff; stroke: #007bff"/>
     <use xlink:href="#mf3376333c4" x="238.570166" y="294.159271" style="fill: #007bff; stroke: #007bff"/>
     <use xlink:href="#mf3376333c4" x="243.517471" y="345.735154" style="fill: #007bff; stroke: #007bff"/>
     <use xlink:href="#mf3376333c4" x="248.464764" y="264.748554" style="fill: #007bff; stroke: #007bff"/>
     <use xlink:href="#mf3376333c4" x="253.412078" y="284.70324" style="fill: #007bff; stroke: #007bff"/>
     <use xlink:href="#mf3376333c4" x="258.359274" y="299.305996" style="fill: #007bff; stroke: #007bff"/>
     <use xlink:href="#mf3376333c4" x="263.306639" y="340.669908" style="fill: #007bff; stroke: #007bff"/>
     <use xlink:href="#mf3376333c4" x="268.253963" y="336.724237" style="fill: #007bff; stroke: #007bff"/>
     <use xlink:href="#mf3376333c4" x="273.201241" y="348.567286" style="fill: #007bff; stroke: #007bff"/>
     <use xlink:href="#mf3376333c4" x="278.148556" y="359.615166" style="fill: #007bff; stroke: #007bff"/>
     <use xlink:href="#mf3376333c4" x="283.095837" y="196.707981" style="fill: #007bff; stroke: #007bff"/>
     <use xlink:href="#mf3376333c4" x="288.043138" y="335.962262" style="fill: #007bff; stroke: #007bff"/>
     <use xlink:href="#mf3376333c4" x="292.990417" y="275.106884" style="fill: #007bff; stroke: #007bff"/>
     <use xlink:href="#mf3376333c4" x="297.937732" y="359.707206" style="fill: #007bff; stroke: #007bff"/>
     <use xlink:href="#mf3376333c4" x="302.885091" y="349.124056" style="fill: #007bff; stroke: #007bff"/>
     <use xlink:href="#mf3376333c4" x="307.832326" y="93.180508" style="fill: #007bff; stroke: #007bff"/>
     <use xlink:href="#mf3376333c4" x="312.779631" y="218.871639" style="fill: #007bff; stroke: #007bff"/>
     <use xlink:href="#mf3376333c4" x="317.726914" y="282.64968" style="fill: #007bff; stroke: #007bff"/>
     <use xlink:href="#mf3376333c4" x="322.674213" y="253.672006" style="fill: #007bff; stroke: #007bff"/>
     <use xlink:href="#mf3376333c4" x="327.621515" y="263.384544" style="fill: #007bff; stroke: #007bff"/>
     <use xlink:href="#mf3376333c4" x="332.5688" y="216.769795" style="fill: #007bff; stroke: #007bff"/>
     <use xlink:href="#mf3376333c4" x="337.516109" y="258.450569" style="fill: #007bff; stroke: #007bff"/>
     <use xlink:href="#mf3376333c4" x="342.463383" y="268.968838" style="fill: #007bff; stroke: #007bff"/>
     <use xlink:href="#mf3376333c4" x="490.882621" y="268.968838" style="fill: #007bff; stroke: #007bff"/>
     <use xlink:href="#mf3376333c4" x="537.054295" y="387.378206" style="fill: #007bff; stroke: #007bff"/>
     <use xlink:href="#mf3376333c4" x="540.355505" y="404.76481" style="fill: #007bff; stroke: #007bff"/>
     <use xlink:href="#mf3376333c4" x="545.302801" y="393.17525" style="fill: #007bff; stroke: #007bff"/>
     <use xlink:href="#mf3376333c4" x="550.250086" y="418.10465" style="fill: #007bff; stroke: #007bff"/>
     <use xlink:href="#mf3376333c4" x="555.197381" y="350.49561" style="fill: #007bff; stroke: #007bff"/>
     <use xlink:href="#mf3376333c4" x="560.144708" y="369.234154" style="fill: #007bff; stroke: #007bff"/>
     <use xlink:href="#mf3376333c4" x="565.091988" y="356.512948" style="fill: #007bff; stroke: #007bff"/>
     <use xlink:href="#mf3376333c4" x="570.039277" y="406.462279" style="fill: #007bff; stroke: #007bff"/>
     <use xlink:href="#mf3376333c4" x="574.986564" y="361.804523" style="fill: #007bff; stroke: #007bff"/>
     <use xlink:href="#mf3376333c4" x="579.933876" y="417.565986" style="fill: #007bff; stroke: #007bff"/>
     <use xlink:href="#mf3376333c4" x="584.881185" y="313.086422" style="fill: #007bff; stroke: #007bff"/>
     <use xlink:href="#mf3376333c4" x="589.828481" y="121.031063" style="fill: #007bff; stroke: #007bff"/>
     <use xlink:href="#mf3376333c4" x="594.775798" y="261.460746" style="fill: #007bff; stroke: #007bff"/>
     <use xlink:href="#mf3376333c4" x="599.723056" y="245.346112" style="fill: #007bff; stroke: #007bff"/>
     <use xlink:href="#mf3376333c4" x="604.670368" y="311.346706" style="fill: #007bff; stroke: #007bff"/>
     <use xlink:href="#mf3376333c4" x="609.617659" y="227.125108" style="fill: #007bff; stroke: #007bff"/>
     <use xlink:href="#mf3376333c4" x="614.564967" y="272.670074" style="fill: #007bff; stroke: #007bff"/>
     <use xlink:href="#mf3376333c4" x="619.512264" y="349.249291" style="fill: #007bff; stroke: #007bff"/>
     <use xlink:href="#mf3376333c4" x="624.45956" y="282.963523" style="fill: #007bff; stroke: #007bff"/>
     <use xlink:href="#mf3376333c4" x="629.406856" y="307.072103" style="fill: #007bff; stroke: #007bff"/>
     <use xlink:href="#mf3376333c4" x="634.354147" y="234.352552" style="fill: #007bff; stroke: #007bff"/>
     <use xlink:href="#mf3376333c4" x="639.301447" y="235.141686" style="fill: #007bff; stroke: #007bff"/>
     <use xlink:href="#mf3376333c4" x="644.248728" y="384.108505" style="fill: #007bff; stroke: #007bff"/>
     <use xlink:href="#mf3376333c4" x="649.196018" y="48.190803" style="fill: #007bff; stroke: #007bff"/>
     <use xlink:href="#mf3376333c4" x="654.143324" y="389.261265" style="fill: #007bff; stroke: #007bff"/>
    </g>
   </g>
   <g id="line2d_18">
    <path d="M 80.256676 433.923547 
L 85.203965 425.989957 
L 90.151254 441.49652 
L 95.098545 446.877118 
L 100.045854 443.631558 
L 104.993133 429.60217 
L 109.940441 440.090262 
L 114.887747 438.305279 
L 119.83504 445.73491 
L 124.78232 448.707366 
L 129.729637 424.95186 
L 134.676916 430.077461 
L 139.62423 443.608925 
L 144.571533 448.227549 
L 149.518813 447.645128 
L 154.466139 437.055943 
L 159.413386 438.942019 
L 164.360688 439.017462 
L 169.308026 457.706213 
L 174.255319 445.873726 
L 179.202617 445.792247 
L 184.149875 450.720187 
L 189.097191 446.854485 
L 194.044491 450.336936 
L 198.991779 431.234757 
L 203.939083 437.68212 
L 223.72826 449.994425 
L 228.675593 426.797197 
L 233.622868 438.247943 
L 238.570166 457.559853 
L 243.517471 454.009504 
L 248.464764 435.356965 
L 253.412078 436.828105 
L 258.359274 458.680937 
L 263.306639 442.626657 
L 268.253963 460.496097 
L 273.201241 456.428208 
L 278.148556 449.347123 
L 283.095837 457.700177 
L 288.043138 442.539143 
L 292.990417 449.653422 
L 297.937732 450.706607 
L 302.885091 453.710749 
L 307.832326 456.361818 
L 312.779631 462.388208 
L 317.726914 461.022689 
L 322.674213 459.279955 
L 327.621515 457.541747 
L 332.5688 456.731489 
L 337.516109 457.356157 
L 342.463383 470.04266 
L 490.882621 470.04266 
L 537.054295 478.5466 
L 540.355505 488.523188 
L 545.302801 468.517201 
L 550.250086 480.883825 
L 555.197381 488.806854 
L 560.144708 461.077008 
L 565.091988 483.967937 
L 570.039277 478.463612 
L 574.986564 456.745068 
L 579.933876 477.44664 
L 584.881185 473.452685 
L 589.828481 476.778215 
L 594.775798 469.680533 
L 599.723056 456.257706 
L 604.670368 481.588463 
L 609.617659 456.407084 
L 614.564967 463.536451 
L 619.512264 484.011694 
L 624.45956 482.536028 
L 629.406856 477.802731 
L 634.354147 471.744655 
L 639.301447 475.909111 
L 644.248728 470.074346 
L 649.196018 479.077719 
L 654.143324 479.488129 
" clip-path="url(#p0036786c33)" style="fill: none; stroke: #dc3545; stroke-width: 1.5; stroke-linecap: square"/>
    <defs>
     <path id="m4a30ad344c" d="M 0 2 
C 0.530406 2 1.03916 1.789267 1.414214 1.414214 
C 1.789267 1.03916 2 0.530406 2 0 
C 2 -0.530406 1.789267 -1.03916 1.414214 -1.414214 
C 1.03916 -1.789267 0.530406 -2 0 -2 
C -0.530406 -2 -1.03916 -1.789267 -1.414214 -1.414214 
C -1.789267 -1.03916 -2 -0.530406 -2 0 
C -2 0.530406 -1.789267 1.03916 -1.414214 1.414214 
C -1.03916 1.789267 -0.530406 2 0 2 
z
" style="stroke: #dc3545"/>
    </defs>
    <g clip-path="url(#p0036786c33)">
     <use xlink:href="#m4a30ad344c" x="80.256676" y="433.923547" style="fill: #dc3545; stroke: #dc3545"/>
     <use xlink:href="#m4a30ad344c" x="85.203965" y="425.989957" style="fill: #dc3545; stroke: #dc3545"/>
     <use xlink:href="#m4a30ad344c" x="90.151254" y="441.49652" style="fill: #dc3545; stroke: #dc3545"/>
     <use xlink:href="#m4a30ad344c" x="95.098545" y="446.877118" style="fill: #dc3545; stroke: #dc3545"/>
     <use xlink:href="#m4a30ad344c" x="100.045854" y="443.631558" style="fill: #dc3545; stroke: #dc3545"/>
     <use xlink:href="#m4a30ad344c" x="104.993133" y="429.60217" style="fill: #dc3545; stroke: #dc3545"/>
     <use xlink:href="#m4a30ad344c" x="109.940441" y="440.090262" style="fill: #dc3545; stroke: #dc3545"/>
     <use xlink:href="#m4a30ad344c" x="114.887747" y="438.305279" style="fill: #dc3545; stroke: #dc3545"/>
     <use xlink:href="#m4a30ad344c" x="119.83504" y="445.73491" style="fill: #dc3545; stroke: #dc3545"/>
     <use xlink:href="#m4a30ad344c" x="124.78232" y="448.707366" style="fill: #dc3545; stroke: #dc3545"/>
     <use xlink:href="#m4a30ad344c" x="129.729637" y="424.95186" style="fill: #dc3545; stroke: #dc3545"/>
     <use xlink:href="#m4a30ad344c" x="134.676916" y="430.077461" style="fill: #dc3545; stroke: #dc3545"/>
     <use xlink:href="#m4a30ad344c" x="139.62423" y="443.608925" style="fill: #dc3545; stroke: #dc3545"/>
     <use xlink:href="#m4a30ad344c" x="144.571533" y="448.227549" style="fill: #dc3545; stroke: #dc3545"/>
     <use xlink:href="#m4a30ad344c" x="149.518813" y="447.645128" style="fill: #dc3545; stroke: #dc3545"/>
     <use xlink:href="#m4a30ad344c" x="154.466139" y="437.055943" style="fill: #dc3545; stroke: #dc3545"/>
     <use xlink:href="#m4a30ad344c" x="159.413386" y="438.942019" style="fill: #dc3545; stroke: #dc3545"/>
     <use xlink:href="#m4a30ad344c" x="164.360688" y="439.017462" style="fill: #dc3545; stroke: #dc3545"/>
     <use xlink:href="#m4a30ad344c" x="169.308026" y="457.706213" style="fill: #dc3545; stroke: #dc3545"/>
     <use xlink:href="#m4a30ad344c" x="174.255319" y="445.873726" style="fill: #dc3545; stroke: #dc3545"/>
     <use xlink:href="#m4a30ad344c" x="179.202617" y="445.792247" style="fill: #dc3545; stroke: #dc3545"/>
     <use xlink:href="#m4a30ad344c" x="184.149875" y="450.720187" style="fill: #dc3545; stroke: #dc3545"/>
     <use xlink:href="#m4a30ad344c" x="189.097191" y="446.854485" style="fill: #dc3545; stroke: #dc3545"/>
     <use xlink:href="#m4a30ad344c" x="194.044491" y="450.336936" style="fill: #dc3545; stroke: #dc3545"/>
     <use xlink:href="#m4a30ad344c" x="198.991779" y="431.234757" style="fill: #dc3545; stroke: #dc3545"/>
     <use xlink:href="#m4a30ad344c" x="203.939083" y="437.68212" style="fill: #dc3545; stroke: #dc3545"/>
     <use xlink:href="#m4a30ad344c" x="223.72826" y="449.994425" style="fill: #dc3545; stroke: #dc3545"/>
     <use xlink:href="#m4a30ad344c" x="228.675593" y="426.797197" style="fill: #dc3545; stroke: #dc3545"/>
     <use xlink:href="#m4a30ad344c" x="233.622868" y="438.247943" style="fill: #dc3545; stroke: #dc3545"/>
     <use xlink:href="#m4a30ad344c" x="238.570166" y="457.559853" style="fill: #dc3545; stroke: #dc3545"/>
     <use xlink:href="#m4a30ad344c" x="243.517471" y="454.009504" style="fill: #dc3545; stroke: #dc3545"/>
     <use xlink:href="#m4a30ad344c" x="248.464764" y="435.356965" style="fill: #dc3545; stroke: #dc3545"/>
     <use xlink:href="#m4a30ad344c" x="253.412078" y="436.828105" style="fill: #dc3545; stroke: #dc3545"/>
     <use xlink:href="#m4a30ad344c" x="258.359274" y="458.680937" style="fill: #dc3545; stroke: #dc3545"/>
     <use xlink:href="#m4a30ad344c" x="263.306639" y="442.626657" style="fill: #dc3545; stroke: #dc3545"/>
     <use xlink:href="#m4a30ad344c" x="268.253963" y="460.496097" style="fill: #dc3545; stroke: #dc3545"/>
     <use xlink:href="#m4a30ad344c" x="273.201241" y="456.428208" style="fill: #dc3545; stroke: #dc3545"/>
     <use xlink:href="#m4a30ad344c" x="278.148556" y="449.347123" style="fill: #dc3545; stroke: #dc3545"/>
     <use xlink:href="#m4a30ad344c" x="283.095837" y="457.700177" style="fill: #dc3545; stroke: #dc3545"/>
     <use xlink:href="#m4a30ad344c" x="288.043138" y="442.539143" style="fill: #dc3545; stroke: #dc3545"/>
     <use xlink:href="#m4a30ad344c" x="292.990417" y="449.653422" style="fill: #dc3545; stroke: #dc3545"/>
     <use xlink:href="#m4a30ad344c" x="297.937732" y="450.706607" style="fill: #dc3545; stroke: #dc3545"/>
     <use xlink:href="#m4a30ad344c" x="302.885091" y="453.710749" style="fill: #dc3545; stroke: #dc3545"/>
     <use xlink:href="#m4a30ad344c" x="307.832326" y="456.361818" style="fill: #dc3545; stroke: #dc3545"/>
     <use xlink:href="#m4a30ad344c" x="312.779631" y="462.388208" style="fill: #dc3545; stroke: #dc3545"/>
     <use xlink:href="#m4a30ad344c" x="317.726914" y="461.022689" style="fill: #dc3545; stroke: #dc3545"/>
     <use xlink:href="#m4a30ad344c" x="322.674213" y="459.279955" style="fill: #dc3545; stroke: #dc3545"/>
     <use xlink:href="#m4a30ad344c" x="327.621515" y="457.541747" style="fill: #dc3545; stroke: #dc3545"/>
     <use xlink:href="#m4a30ad344c" x="332.5688" y="456.731489" style="fill: #dc3545; stroke: #dc3545"/>
     <use xlink:href="#m4a30ad344c" x="337.516109" y="457.356157" style="fill: #dc3545; stroke: #dc3545"/>
     <use xlink:href="#m4a30ad344c" x="342.463383" y="470.04266" style="fill: #dc3545; stroke: #dc3545"/>
     <use xlink:href="#m4a30ad344c" x="490.882621" y="470.04266" style="fill: #dc3545; stroke: #dc3545"/>
     <use xlink:href="#m4a30ad344c" x="537.054295" y="478.5466" style="fill: #dc3545; stroke: #dc3545"/>
     <use xlink:href="#m4a30ad344c" x="540.355505" y="488.523188" style="fill: #dc3545; stroke: #dc3545"/>
     <use xlink:href="#m4a30ad344c" x="545.302801" y="468.517201" style="fill: #dc3545; stroke: #dc3545"/>
     <use xlink:href="#m4a30ad344c" x="550.250086" y="480.883825" style="fill: #dc3545; stroke: #dc3545"/>
     <use xlink:href="#m4a30ad344c" x="555.197381" y="488.806854" style="fill: #dc3545; stroke: #dc3545"/>
     <use xlink:href="#m4a30ad344c" x="560.144708" y="461.077008" style="fill: #dc3545; stroke: #dc3545"/>
     <use xlink:href="#m4a30ad344c" x="565.091988" y="483.967937" style="fill: #dc3545; stroke: #dc3545"/>
     <use xlink:href="#m4a30ad344c" x="570.039277" y="478.463612" style="fill: #dc3545; stroke: #dc3545"/>
     <use xlink:href="#m4a30ad344c" x="574.986564" y="456.745068" style="fill: #dc3545; stroke: #dc3545"/>
     <use xlink:href="#m4a30ad344c" x="579.933876" y="477.44664" style="fill: #dc3545; stroke: #dc3545"/>
     <use xlink:href="#m4a30ad344c" x="584.881185" y="473.452685" style="fill: #dc3545; stroke: #dc3545"/>
     <use xlink:href="#m4a30ad344c" x="589.828481" y="476.778215" style="fill: #dc3545; stroke: #dc3545"/>
     <use xlink:href="#m4a30ad344c" x="594.775798" y="469.680533" style="fill: #dc3545; stroke: #dc3545"/>
     <use xlink:href="#m4a30ad344c" x="599.723056" y="456.257706" style="fill: #dc3545; stroke: #dc3545"/>
     <use xlink:href="#m4a30ad344c" x="604.670368" y="481.588463" style="fill: #dc3545; stroke: #dc3545"/>
     <use xlink:href="#m4a30ad344c" x="609.617659" y="456.407084" style="fill: #dc3545; stroke: #dc3545"/>
     <use xlink:href="#m4a30ad344c" x="614.564967" y="463.536451" style="fill: #dc3545; stroke: #dc3545"/>
     <use xlink:href="#m4a30ad344c" x="619.512264" y="484.011694" style="fill: #dc3545; stroke: #dc3545"/>
     <use xlink:href="#m4a30ad344c" x="624.45956" y="482.536028" style="fill: #dc3545; stroke: #dc3545"/>
     <use xlink:href="#m4a30ad344c" x="629.406856" y="477.802731" style="fill: #dc3545; stroke: #dc3545"/>
     <use xlink:href="#m4a30ad344c" x="634.354147" y="471.744655" style="fill: #dc3545; stroke: #dc3545"/>
     <use xlink:href="#m4a30ad344c" x="639.301447" y="475.909111" style="fill: #dc3545; stroke: #dc3545"/>
     <use xlink:href="#m4a30ad344c" x="644.248728" y="470.074346" style="fill: #dc3545; stroke: #dc3545"/>
     <use xlink:href="#m4a30ad344c" x="649.196018" y="479.077719" style="fill: #dc3545; stroke: #dc3545"/>
     <use xlink:href="#m4a30ad344c" x="654.143324" y="479.488129" style="fill: #dc3545; stroke: #dc3545"/>
    </g>
   </g>
   <g id="patch_3">
    <path d="M 51.562344 510.837656 
L 51.562344 26.16 
" style="fill: none; stroke: #212529; stroke-width: 0.8; stroke-linejoin: miter; stroke-linecap: square"/>
   </g>
   <g id="patch_4">
    <path d="M 51.562344 510.837656 
L 682.837656 510.837656 
" style="fill: none; stroke: #212529; stroke-width: 0.8; stroke-linejoin: miter; stroke-linecap: square"/>
   </g>
   <g id="patch_5">
    <path d="M 51.562344 26.16 
L 682.837656 26.16 
" style="fill: none; stroke: #212529; stroke-width: 0.8; stroke-linejoin: miter; stroke-linecap: square"/>
   </g>
   <g id="legend_1">
    <g id="patch_6">
     <path d="M 57.393344 70.310952 
L 131.246603 70.310952 
Q 132.912603 70.310952 132.912603 68.644952 
L 132.912603 31.991 
Q 132.912603 30.325 131.246603 30.325 
L 57.393344 30.325 
Q 55.727344 30.325 55.727344 31.991 
L 55.727344 68.644952 
Q 55.727344 70.310952 57.393344 70.310952 
L 57.393344 70.310952 
z
" style="fill: none; opacity: 0.8; stroke: #212529; stroke-linejoin: miter"/>
    </g>
    <g id="line2d_19">
     <path d="M 59.059344 37.070998 
L 67.389344 37.070998 
L 75.719344 37.070998 
" style="fill: none; stroke: #007bff; stroke-width: 1.5; stroke-linecap: square"/>
     <g>
      <use xlink:href="#mf3376333c4" x="67.389344" y="37.070998" style="fill: #007bff; stroke: #007bff"/>
     </g>
    </g>
    <g id="text_11">
     <text style="font-size: 8.33px; font-family: 'DejaVu Sans', 'Bitstream Vera Sans', 'Computer Modern Sans Serif', 'Lucida Grande', 'Verdana', 'Geneva', 'Lucid', 'Arial', 'Helvetica', 'Avant Garde', sans-serif; text-anchor: start; fill: #212529" x="82.383344" y="39.986498" transform="rotate(-0 82.383344 39.986498)">Cold Start</text>
    </g>
    <g id="line2d_20">
     <path d="M 59.059344 49.566649 
L 67.389344 49.566649 
L 75.719344 49.566649 
" style="fill: none; stroke: #dc3545; stroke-width: 1.5; stroke-linecap: square"/>
     <g>
      <use xlink:href="#m4a30ad344c" x="67.389344" y="49.566649" style="fill: #dc3545; stroke: #dc3545"/>
     </g>
    </g>
    <g id="text_12">
     <text style="font-size: 8.33px; font-family: 'DejaVu Sans', 'Bitstream Vera Sans', 'Computer Modern Sans Serif', 'Lucida Grande', 'Verdana', 'Geneva', 'Lucid', 'Arial', 'Helvetica', 'Avant Garde', sans-serif; text-anchor: start; fill: #212529" x="82.383344" y="52.482149" transform="rotate(-0 82.383344 52.482149)">Warm Start</text>
    </g>
    <g id="line2d_21">
     <path d="M 59.059344 62.0623 
L 67.389344 62.0623 
L 75.719344 62.0623 
" style="fill: none; stroke-dasharray: 5.55,2.4; stroke-dashoffset: 0; stroke: #ff7f0e; stroke-width: 1.5"/>
    </g>
    <g id="text_13">
     <text style="font-size: 8.33px; font-family: 'DejaVu Sans', 'Bitstream Vera Sans', 'Computer Modern Sans Serif', 'Lucida Grande', 'Verdana', 'Geneva', 'Lucid', 'Arial', 'Helvetica', 'Avant Garde', sans-serif; text-anchor: start; fill: #212529" x="82.383344" y="64.9778" transform="rotate(-0 82.383344 64.9778)">Memory</text>
    </g>
   </g>
  </g>
  <g id="axes_2">
   <g id="matplotlib.axis_3">
    <g id="ytick_7">
     <g id="line2d_22">
      <defs>
       <path id="m17ea883c4c" d="M 0 0 
L 3.5 0 
" style="stroke: #212529; stroke-width: 0.8"/>
      </defs>
      <g>
       <use xlink:href="#m17ea883c4c" x="682.837656" y="501.395884" style="fill: #212529; stroke: #212529; stroke-width: 0.8"/>
      </g>
     </g>
     <g id="text_14">
      <text style="font-size: 10px; font-family: 'DejaVu Sans', 'Bitstream Vera Sans', 'Computer Modern Sans Serif', 'Lucida Grande', 'Verdana', 'Geneva', 'Lucid', 'Arial', 'Helvetica', 'Avant Garde', sans-serif; text-anchor: start; fill: #ff7f0e" x="689.837656" y="505.194712" transform="rotate(-0 689.837656 505.194712)">74.5</text>
     </g>
    </g>
    <g id="ytick_8">
     <g id="line2d_23">
      <g>
       <use xlink:href="#m17ea883c4c" x="682.837656" y="438.450734" style="fill: #212529; stroke: #212529; stroke-width: 0.8"/>
      </g>
     </g>
     <g id="text_15">
      <text style="font-size: 10px; font-family: 'DejaVu Sans', 'Bitstream Vera Sans', 'Computer Modern Sans Serif', 'Lucida Grande', 'Verdana', 'Geneva', 'Lucid', 'Arial', 'Helvetica', 'Avant Garde', sans-serif; text-anchor: start; fill: #ff7f0e" x="689.837656" y="442.249562" transform="rotate(-0 689.837656 442.249562)">75.0</text>
     </g>
    </g>
    <g id="ytick_9">
     <g id="line2d_24">
      <g>
       <use xlink:href="#m17ea883c4c" x="682.837656" y="375.505583" style="fill: #212529; stroke: #212529; stroke-width: 0.8"/>
      </g>
     </g>
     <g id="text_16">
      <text style="font-size: 10px; font-family: 'DejaVu Sans', 'Bitstream Vera Sans', 'Computer Modern Sans Serif', 'Lucida Grande', 'Verdana', 'Geneva', 'Lucid', 'Arial', 'Helvetica', 'Avant Garde', sans-serif; text-anchor: start; fill: #ff7f0e" x="689.837656" y="379.304412" transform="rotate(-0 689.837656 379.304412)">75.5</text>
     </g>
    </g>
    <g id="ytick_10">
     <g id="line2d_25">
      <g>
       <use xlink:href="#m17ea883c4c" x="682.837656" y="312.560433" style="fill: #212529; stroke: #212529; stroke-width: 0.8"/>
      </g>
     </g>
     <g id="text_17">
      <text style="font-size: 10px; font-family: 'DejaVu Sans', 'Bitstream Vera Sans', 'Computer Modern Sans Serif', 'Lucida Grande', 'Verdana', 'Geneva', 'Lucid', 'Arial', 'Helvetica', 'Avant Garde', sans-serif; text-anchor: start; fill: #ff7f0e" x="689.837656" y="316.359261" transform="rotate(-0 689.837656 316.359261)">76.0</text>
     </g>
    </g>
    <g id="ytick_11">
     <g id="line2d_26">
      <g>
       <use xlink:href="#m17ea883c4c" x="682.837656" y="249.615283" style="fill: #212529; stroke: #212529; stroke-width: 0.8"/>
      </g>
     </g>
     <g id="text_18">
      <text style="font-size: 10px; font-family: 'DejaVu Sans', 'Bitstream Vera Sans', 'Computer Modern Sans Serif', 'Lucida Grande', 'Verdana', 'Geneva', 'Lucid', 'Arial', 'Helvetica', 'Avant Garde', sans-serif; text-anchor: start; fill: #ff7f0e" x="689.837656" y="253.414111" transform="rotate(-0 689.837656 253.414111)">76.5</text>
     </g>
    </g>
    <g id="ytick_12">
     <g id="line2d_27">
      <g>
       <use xlink:href="#m17ea883c4c" x="682.837656" y="186.670133" style="fill: #212529; stroke: #212529; stroke-width: 0.8"/>
      </g>
     </g>
     <g id="text_19">
      <text style="font-size: 10px; font-family: 'DejaVu Sans', 'Bitstream Vera Sans', 'Computer Modern Sans Serif', 'Lucida Grande', 'Verdana', 'Geneva', 'Lucid', 'Arial', 'Helvetica', 'Avant Garde', sans-serif; text-anchor: start; fill: #ff7f0e" x="689.837656" y="190.468961" transform="rotate(-0 689.837656 190.468961)">77.0</text>
     </g>
    </g>
    <g id="ytick_13">
     <g id="line2d_28">
      <g>
       <use xlink:href="#m17ea883c4c" x="682.837656" y="123.724983" style="fill: #212529; stroke: #212529; stroke-width: 0.8"/>
      </g>
     </g>
     <g id="text_20">
      <text style="font-size: 10px; font-family: 'DejaVu Sans', 'Bitstream Vera Sans', 'Computer Modern Sans Serif', 'Lucida Grande', 'Verdana', 'Geneva', 'Lucid', 'Arial', 'Helvetica', 'Avant Garde', sans-serif; text-anchor: start; fill: #ff7f0e" x="689.837656" y="127.523811" transform="rotate(-0 689.837656 127.523811)">77.5</text>
     </g>
    </g>
    <g id="ytick_14">
     <g id="line2d_29">
      <g>
       <use xlink:href="#m17ea883c4c" x="682.837656" y="60.779833" style="fill: #212529; stroke: #212529; stroke-width: 0.8"/>
      </g>
     </g>
     <g id="text_21">
      <text style="font-size: 10px; font-family: 'DejaVu Sans', 'Bitstream Vera Sans', 'Computer Modern Sans Serif', 'Lucida Grande', 'Verdana', 'Geneva', 'Lucid', 'Arial', 'Helvetica', 'Avant Garde', sans-serif; text-anchor: start; fill: #ff7f0e" x="689.837656" y="64.578661" transform="rotate(-0 689.837656 64.578661)">78.0</text>
     </g>
    </g>
    <g id="text_22">
     <text style="font-size: 10px; font-family: 'DejaVu Sans', 'Bitstream Vera Sans', 'Computer Modern Sans Serif', 'Lucida Grande', 'Verdana', 'Geneva', 'Lucid', 'Arial', 'Helvetica', 'Avant Garde', sans-serif; text-anchor: middle; fill: #ff7f0e" x="723.701719" y="268.498828" transform="rotate(-90 723.701719 268.498828)">Memory Usage [MB]</text>
    </g>
   </g>
   <g id="line2d_30">
    <path d="M 80.256676 325.149463 
L 85.203965 312.560433 
L 90.151254 224.437223 
L 95.098545 299.971403 
L 100.045854 438.450734 
L 104.993133 350.327523 
L 109.940441 312.560433 
L 114.887747 413.272673 
L 119.83504 312.560433 
L 124.78232 413.272673 
L 129.729637 299.971403 
L 134.676916 249.615283 
L 139.62423 388.094613 
L 144.571533 325.149463 
L 149.518813 199.259163 
L 154.466139 274.793343 
L 159.413386 136.314013 
L 164.360688 274.793343 
L 169.308026 375.505583 
L 174.255319 224.437223 
L 179.202617 488.806854 
L 184.149875 337.738493 
L 189.097191 463.628794 
L 194.044491 463.628794 
L 198.991779 413.272673 
L 203.939083 362.916553 
L 223.72826 438.450734 
L 228.675593 438.450734 
L 233.622868 337.738493 
L 238.570166 337.738493 
L 243.517471 362.916553 
L 248.464764 413.272673 
L 253.412078 312.560433 
L 258.359274 413.272673 
L 263.306639 312.560433 
L 268.253963 388.094613 
L 273.201241 337.738493 
L 278.148556 463.628794 
L 283.095837 388.094613 
L 288.043138 388.094613 
L 292.990417 463.628794 
L 297.937732 312.560433 
L 302.885091 362.916553 
L 307.832326 148.903043 
L 312.779631 48.190803 
L 317.726914 85.957893 
L 322.674213 161.492073 
L 327.621515 85.957893 
L 332.5688 174.081103 
L 337.516109 111.135953 
L 342.463383 98.546923 
L 490.882621 98.546923 
L 537.054295 438.450734 
L 540.355505 413.272673 
L 545.302801 388.094613 
L 550.250086 488.806854 
L 555.197381 337.738493 
L 560.144708 337.738493 
L 565.091988 438.450734 
L 570.039277 476.217824 
L 574.986564 413.272673 
L 579.933876 438.450734 
L 584.881185 438.450734 
L 589.828481 161.492073 
L 594.775798 312.560433 
L 599.723056 211.848193 
L 604.670368 287.382373 
L 609.617659 211.848193 
L 614.564967 237.026253 
L 619.512264 211.848193 
L 624.45956 287.382373 
L 629.406856 211.848193 
L 634.354147 237.026253 
L 639.301447 262.204313 
L 644.248728 299.971403 
L 649.196018 312.560433 
L 654.143324 287.382373 
" clip-path="url(#p0036786c33)" style="fill: none; stroke-dasharray: 5.55,2.4; stroke-dashoffset: 0; stroke: #ff7f0e; stroke-width: 1.5"/>
   </g>
   <g id="patch_7">
    <path d="M 682.837656 510.837656 
L 682.837656 26.16 
" style="fill: none; stroke: #ff7f0e; stroke-width: 0.8; stroke-linejoin: miter; stroke-linecap: square"/>
   </g>
   <g id="text_23">
    <text style="font-size: 12px; font-family: 'DejaVu Sans', 'Bitstream Vera Sans', 'Computer Modern Sans Serif', 'Lucida Grande', 'Verdana', 'Geneva', 'Lucid', 'Arial', 'Helvetica', 'Avant Garde', sans-serif; text-anchor: middle; fill: #212529" x="367.2" y="20.16" transform="rotate(-0 367.2 20.16)">dotnet10 (arm64, zip, 512MB, us-east-1)</text>
   </g>
  </g>
 </g>
 <defs>
  <clipPath id="p0036786c33">
   <rect x="51.562344" y="26.16" width="631.275313" height="484.677656"/>
  </clipPath>
 </defs>
</svg>
