<?xml version="1.0" encoding="utf-8" standalone="no"?>
<!DOCTYPE svg PUBLIC "-//W3C//DTD SVG 1.1//EN"
  "http://www.w3.org/Graphics/SVG/1.1/DTD/svg11.dtd">
<svg xmlns:xlink="http://www.w3.org/1999/xlink" width="216pt" height="122.4pt" viewBox="0 0 216 122.4" xmlns="http://www.w3.org/2000/svg" version="1.1">
  <style>
    :root {
      --fg-color: #212529;
      --grid-color: rgba(33, 37, 41, 0.1);
    }
    @media (prefers-color-scheme: dark) {
      :root {
        --fg-color: #dee2e6;
        --grid-color: rgba(248, 249, 250, 0.15);
      }
    }
  </style>

 <metadata>
  <rdf:RDF xmlns:dc="http://purl.org/dc/elements/1.1/" xmlns:cc="http://creativecommons.org/ns#" xmlns:rdf="http://www.w3.org/1999/02/22-rdf-syntax-ns#">
   <cc:Work>
    <dc:type rdf:resource="http://purl.org/dc/dcmitype/StillImage"/>
    <dc:date>2026-06-30T04:48:33.516497</dc:date>
    <dc:format>image/svg+xml</dc:format>
    <dc:creator>
     <cc:Agent>
      <dc:title>Matplotlib v3.11.0, https://matplotlib.org/</dc:title>
     </cc:Agent>
    </dc:creator>
   </cc:Work>
  </rdf:RDF>
 </metadata>
 <defs>
  <style type="text/css">*{stroke-linejoin: round; stroke-linecap: butt}</style>
 </defs>
 <g id="figure_1">
  <g id="patch_1">
   <path d="M 0 122.4 
L 216 122.4 
L 216 0 
L 0 0 
L 0 122.4 
z
" style="fill: none; opacity: 0"/>
  </g>
  <g id="axes_1">
   <g id="patch_2">
    <path d="M 35.96 103.4 
L 211 103.4 
L 211 5.029259 
L 35.96 5.029259 
L 35.96 103.4 
z
" style="fill: none; opacity: 0"/>
   </g>
   <g id="matplotlib.axis_1">
    <g id="xtick_1">
     <g id="line2d_1">
      <path d="M 70.996911 103.4 
L 70.996911 5.029259 
" clip-path="url(#p8bfac3614b)" style="fill: none; stroke-dasharray: 2.96,1.28; stroke-dashoffset: 0; stroke: var(--grid-color); stroke-width: 0.8"/>
     </g>
     <g id="line2d_2">
      <defs>
       <path id="m8daf58a4ba" d="M 0 0 
L 0 3.5 
" style="stroke: var(--fg-color); stroke-width: 0.8"/>
      </defs>
      <g>
       <use xlink:href="#m8daf58a4ba" x="70.996911" y="103.4" style="fill: var(--fg-color); stroke: var(--fg-color); stroke-width: 0.8"/>
      </g>
     </g>
     <g id="text_1">
      <text style="font-size: 7px; font-family: 'DejaVu Sans', 'Bitstream Vera Sans', 'Computer Modern Sans Serif', 'Lucida Grande', 'Verdana', 'Geneva', 'Lucid', 'Arial', 'Helvetica', 'Avant Garde', sans-serif; text-anchor: middle; fill: var(--fg-color)" x="70.996911" y="115.718359" transform="rotate(-0 70.996911 115.718359)">02/2026</text>
     </g>
    </g>
    <g id="xtick_2">
     <g id="line2d_3">
      <path d="M 126.022656 103.4 
L 126.022656 5.029259 
" clip-path="url(#p8bfac3614b)" style="fill: none; stroke-dasharray: 2.96,1.28; stroke-dashoffset: 0; stroke: var(--grid-color); stroke-width: 0.8"/>
     </g>
     <g id="line2d_4">
      <g>
       <use xlink:href="#m8daf58a4ba" x="126.022656" y="103.4" style="fill: var(--fg-color); stroke: var(--fg-color); stroke-width: 0.8"/>
      </g>
     </g>
     <g id="text_2">
      <text style="font-size: 7px; font-family: 'DejaVu Sans', 'Bitstream Vera Sans', 'Computer Modern Sans Serif', 'Lucida Grande', 'Verdana', 'Geneva', 'Lucid', 'Arial', 'Helvetica', 'Avant Garde', sans-serif; text-anchor: middle; fill: var(--fg-color)" x="126.022656" y="115.718359" transform="rotate(-0 126.022656 115.718359)">04/2026</text>
     </g>
    </g>
    <g id="xtick_3">
     <g id="line2d_5">
      <path d="M 182.913681 103.4 
L 182.913681 5.029259 
" clip-path="url(#p8bfac3614b)" style="fill: none; stroke-dasharray: 2.96,1.28; stroke-dashoffset: 0; stroke: var(--grid-color); stroke-width: 0.8"/>
     </g>
     <g id="line2d_6">
      <g>
       <use xlink:href="#m8daf58a4ba" x="182.913681" y="103.4" style="fill: var(--fg-color); stroke: var(--fg-color); stroke-width: 0.8"/>
      </g>
     </g>
     <g id="text_3">
      <text style="font-size: 7px; font-family: 'DejaVu Sans', 'Bitstream Vera Sans', 'Computer Modern Sans Serif', 'Lucida Grande', 'Verdana', 'Geneva', 'Lucid', 'Arial', 'Helvetica', 'Avant Garde', sans-serif; text-anchor: middle; fill: var(--fg-color)" x="182.913681" y="115.718359" transform="rotate(-0 182.913681 115.718359)">06/2026</text>
     </g>
    </g>
   </g>
   <g id="matplotlib.axis_2">
    <g id="ytick_1">
     <g id="line2d_7">
      <path d="M 35.96 99.801636 
L 211 99.801636 
" clip-path="url(#p8bfac3614b)" style="fill: none; stroke-dasharray: 2.96,1.28; stroke-dashoffset: 0; stroke: var(--grid-color); stroke-width: 0.8"/>
     </g>
     <g id="line2d_8">
      <defs>
       <path id="ma16e3664fb" d="M 0 0 
L -3.5 0 
" style="stroke: var(--fg-color); stroke-width: 0.8"/>
      </defs>
      <g>
       <use xlink:href="#ma16e3664fb" x="35.96" y="99.801636" style="fill: var(--fg-color); stroke: var(--fg-color); stroke-width: 0.8"/>
      </g>
     </g>
     <g id="text_4">
      <text style="font-size: 7px; font-family: 'DejaVu Sans', 'Bitstream Vera Sans', 'Computer Modern Sans Serif', 'Lucida Grande', 'Verdana', 'Geneva', 'Lucid', 'Arial', 'Helvetica', 'Avant Garde', sans-serif; text-anchor: end; fill: var(--fg-color)" x="28.96" y="102.460816" transform="rotate(-0 28.96 102.460816)">0</text>
     </g>
    </g>
    <g id="ytick_2">
     <g id="line2d_9">
      <path d="M 35.96 84.463734 
L 211 84.463734 
" clip-path="url(#p8bfac3614b)" style="fill: none; stroke-dasharray: 2.96,1.28; stroke-dashoffset: 0; stroke: var(--grid-color); stroke-width: 0.8"/>
     </g>
     <g id="line2d_10">
      <g>
       <use xlink:href="#ma16e3664fb" x="35.96" y="84.463734" style="fill: var(--fg-color); stroke: var(--fg-color); stroke-width: 0.8"/>
      </g>
     </g>
     <g id="text_5">
      <text style="font-size: 7px; font-family: 'DejaVu Sans', 'Bitstream Vera Sans', 'Computer Modern Sans Serif', 'Lucida Grande', 'Verdana', 'Geneva', 'Lucid', 'Arial', 'Helvetica', 'Avant Garde', sans-serif; text-anchor: end; fill: var(--fg-color)" x="28.96" y="87.122913" transform="rotate(-0 28.96 87.122913)">100</text>
     </g>
    </g>
    <g id="ytick_3">
     <g id="line2d_11">
      <path d="M 35.96 69.125831 
L 211 69.125831 
" clip-path="url(#p8bfac3614b)" style="fill: none; stroke-dasharray: 2.96,1.28; stroke-dashoffset: 0; stroke: var(--grid-color); stroke-width: 0.8"/>
     </g>
     <g id="line2d_12">
      <g>
       <use xlink:href="#ma16e3664fb" x="35.96" y="69.125831" style="fill: var(--fg-color); stroke: var(--fg-color); stroke-width: 0.8"/>
      </g>
     </g>
     <g id="text_6">
      <text style="font-size: 7px; font-family: 'DejaVu Sans', 'Bitstream Vera Sans', 'Computer Modern Sans Serif', 'Lucida Grande', 'Verdana', 'Geneva', 'Lucid', 'Arial', 'Helvetica', 'Avant Garde', sans-serif; text-anchor: end; fill: var(--fg-color)" x="28.96" y="71.785011" transform="rotate(-0 28.96 71.785011)">200</text>
     </g>
    </g>
    <g id="ytick_4">
     <g id="line2d_13">
      <path d="M 35.96 53.787929 
L 211 53.787929 
" clip-path="url(#p8bfac3614b)" style="fill: none; stroke-dasharray: 2.96,1.28; stroke-dashoffset: 0; stroke: var(--grid-color); stroke-width: 0.8"/>
     </g>
     <g id="line2d_14">
      <g>
       <use xlink:href="#ma16e3664fb" x="35.96" y="53.787929" style="fill: var(--fg-color); stroke: var(--fg-color); stroke-width: 0.8"/>
      </g>
     </g>
     <g id="text_7">
      <text style="font-size: 7px; font-family: 'DejaVu Sans', 'Bitstream Vera Sans', 'Computer Modern Sans Serif', 'Lucida Grande', 'Verdana', 'Geneva', 'Lucid', 'Arial', 'Helvetica', 'Avant Garde', sans-serif; text-anchor: end; fill: var(--fg-color)" x="28.96" y="56.447109" transform="rotate(-0 28.96 56.447109)">300</text>
     </g>
    </g>
    <g id="ytick_5">
     <g id="line2d_15">
      <path d="M 35.96 38.450027 
L 211 38.450027 
" clip-path="url(#p8bfac3614b)" style="fill: none; stroke-dasharray: 2.96,1.28; stroke-dashoffset: 0; stroke: var(--grid-color); stroke-width: 0.8"/>
     </g>
     <g id="line2d_16">
      <g>
       <use xlink:href="#ma16e3664fb" x="35.96" y="38.450027" style="fill: var(--fg-color); stroke: var(--fg-color); stroke-width: 0.8"/>
      </g>
     </g>
     <g id="text_8">
      <text style="font-size: 7px; font-family: 'DejaVu Sans', 'Bitstream Vera Sans', 'Computer Modern Sans Serif', 'Lucida Grande', 'Verdana', 'Geneva', 'Lucid', 'Arial', 'Helvetica', 'Avant Garde', sans-serif; text-anchor: end; fill: var(--fg-color)" x="28.96" y="41.109206" transform="rotate(-0 28.96 41.109206)">400</text>
     </g>
    </g>
    <g id="ytick_6">
     <g id="line2d_17">
      <path d="M 35.96 23.112124 
L 211 23.112124 
" clip-path="url(#p8bfac3614b)" style="fill: none; stroke-dasharray: 2.96,1.28; stroke-dashoffset: 0; stroke: var(--grid-color); stroke-width: 0.8"/>
     </g>
     <g id="line2d_18">
      <g>
       <use xlink:href="#ma16e3664fb" x="35.96" y="23.112124" style="fill: var(--fg-color); stroke: var(--fg-color); stroke-width: 0.8"/>
      </g>
     </g>
     <g id="text_9">
      <text style="font-size: 7px; font-family: 'DejaVu Sans', 'Bitstream Vera Sans', 'Computer Modern Sans Serif', 'Lucida Grande', 'Verdana', 'Geneva', 'Lucid', 'Arial', 'Helvetica', 'Avant Garde', sans-serif; text-anchor: end; fill: var(--fg-color)" x="28.96" y="25.771304" transform="rotate(-0 28.96 25.771304)">500</text>
     </g>
    </g>
    <g id="ytick_7">
     <g id="line2d_19">
      <path d="M 35.96 7.774222 
L 211 7.774222 
" clip-path="url(#p8bfac3614b)" style="fill: none; stroke-dasharray: 2.96,1.28; stroke-dashoffset: 0; stroke: var(--grid-color); stroke-width: 0.8"/>
     </g>
     <g id="line2d_20">
      <g>
       <use xlink:href="#ma16e3664fb" x="35.96" y="7.774222" style="fill: var(--fg-color); stroke: var(--fg-color); stroke-width: 0.8"/>
      </g>
     </g>
     <g id="text_10">
      <text style="font-size: 7px; font-family: 'DejaVu Sans', 'Bitstream Vera Sans', 'Computer Modern Sans Serif', 'Lucida Grande', 'Verdana', 'Geneva', 'Lucid', 'Arial', 'Helvetica', 'Avant Garde', sans-serif; text-anchor: end; fill: var(--fg-color)" x="28.96" y="10.433401" transform="rotate(-0 28.96 10.433401)">600</text>
     </g>
    </g>
    <g id="text_11">
     <text style="font-size: 7px; font-family: 'DejaVu Sans', 'Bitstream Vera Sans', 'Computer Modern Sans Serif', 'Lucida Grande', 'Verdana', 'Geneva', 'Lucid', 'Arial', 'Helvetica', 'Avant Garde', sans-serif; text-anchor: middle; fill: var(--fg-color)" x="9.917109" y="54.214629" transform="rotate(-90 9.917109 54.214629)">ms</text>
    </g>
   </g>
   <g id="line2d_21">
    <path d="M 43.916364 87.777641 
L 44.494523 87.553707 
L 45.427166 88.818471 
L 46.359808 88.080871 
L 47.292453 87.090349 
L 48.22509 88.005869 
L 49.157727 88.146211 
L 50.090359 87.654478 
L 51.023007 88.286706 
L 51.95565 89.503615 
L 52.88829 86.294926 
L 53.82093 87.664294 
L 54.753566 88.497142 
L 55.686208 88.146364 
L 56.618849 87.465361 
L 57.551483 88.373979 
L 58.484126 87.925805 
L 59.416765 86.03955 
L 60.349406 89.469258 
L 61.282045 88.116302 
L 62.214684 87.842827 
L 63.147327 87.61736 
L 64.07996 87.783776 
L 65.012598 88.945315 
L 65.945245 87.816446 
L 66.877884 87.860926 
L 67.810526 80.201944 
L 68.743162 86.615335 
L 69.675784 86.897399 
L 70.608443 86.815801 
L 71.541078 88.648527 
L 72.473724 87.692669 
L 73.406361 87.481466 
L 74.339003 85.829421 
L 75.271637 84.722177 
L 76.204286 86.697699 
L 77.136912 89.012342 
L 78.069558 88.394225 
L 79.002199 87.391586 
L 79.934841 87.789144 
L 80.867465 87.461373 
L 81.800118 84.429684 
L 82.732742 88.598679 
L 83.665398 88.495455 
L 84.598038 85.274955 
L 85.53068 87.190813 
L 86.463316 84.486741 
L 87.395962 86.159492 
L 96.913595 88.316768 
L 97.655282 82.506924 
L 98.587939 85.665765 
L 99.520578 86.148909 
L 100.453222 83.509256 
L 101.385859 86.65414 
L 102.318497 87.883012 
L 103.251135 86.972401 
L 104.183773 88.11032 
L 105.116412 90.038448 
L 106.049054 87.629017 
L 106.981691 87.591132 
L 107.914333 86.457047 
L 108.846974 86.534504 
L 109.779613 88.547297 
L 110.71225 89.198391 
L 111.644893 88.191764 
L 112.57753 88.436404 
L 113.510173 86.857367 
L 114.442814 89.39763 
L 115.37545 88.691933 
L 116.308095 87.12716 
L 117.240726 88.438704 
L 118.173367 88.300663 
L 119.106014 87.858165 
L 120.038653 87.804329 
L 120.971293 87.406464 
L 121.903926 85.480023 
L 122.836569 87.860159 
L 123.769209 88.00955 
L 124.701847 85.119889 
L 125.634489 88.389777 
L 129.365046 87.730707 
L 130.297692 84.632144 
L 131.230328 87.185598 
L 132.162968 85.912705 
L 133.095609 85.600732 
L 134.028248 87.935315 
L 134.960891 88.090381 
L 135.893512 87.575027 
L 136.826165 87.911081 
L 137.75881 86.650765 
L 138.691446 86.876386 
L 139.624089 87.615519 
L 140.556726 86.5661 
L 141.489366 84.062801 
L 142.422003 86.517172 
L 143.354646 87.24787 
L 144.287298 86.997095 
L 145.219926 86.045378 
L 146.152567 87.246336 
L 147.085204 77.746193 
L 148.017844 86.877613 
L 148.950485 87.28192 
L 149.883123 86.676533 
L 150.815765 87.760923 
L 151.7484 86.357965 
L 179.727656 86.357965 
L 188.43171 88.699142 
L 189.054038 88.981206 
L 189.986678 85.819604 
L 190.919315 80.105009 
L 191.851955 9.500656 
L 192.7846 84.982462 
L 193.717237 87.780555 
L 194.649875 88.289313 
L 195.582513 75.84736 
L 196.515156 88.21201 
L 197.447798 88.003722 
L 198.380437 88.303424 
L 199.313081 87.396954 
L 200.245713 88.551285 
L 201.178356 88.266767 
L 202.110995 86.064397 
L 203.043636 85.635396 
" clip-path="url(#p8bfac3614b)" style="fill: none; stroke: #339af0; stroke-width: 1.2; stroke-linecap: square"/>
   </g>
   <g id="line2d_22">
    <path d="M 43.916364 98.585801 
L 44.494523 98.818323 
L 45.427166 98.77507 
L 46.359808 98.851913 
L 47.292453 98.748382 
L 48.22509 98.694853 
L 49.157727 98.708504 
L 50.090359 98.744855 
L 51.023007 98.800071 
L 51.95565 98.870012 
L 52.88829 98.63933 
L 53.82093 98.720161 
L 54.753566 98.750376 
L 55.686208 98.723535 
L 56.618849 98.7628 
L 57.551483 98.753137 
L 58.484126 98.77369 
L 59.416765 98.844091 
L 60.349406 98.850073 
L 61.282045 98.765254 
L 62.214684 98.791942 
L 63.147327 98.735652 
L 64.07996 98.820931 
L 65.012598 98.821544 
L 65.945245 98.80912 
L 66.877884 98.816022 
L 67.810526 98.813108 
L 68.743162 98.693473 
L 69.675784 98.734732 
L 70.608443 98.749149 
L 71.541078 98.771849 
L 72.473724 98.800531 
L 73.406361 98.716479 
L 74.339003 98.675221 
L 75.271637 98.768015 
L 76.204286 98.749916 
L 77.136912 98.845318 
L 78.069558 98.770009 
L 79.002199 98.704209 
L 79.934841 98.720007 
L 80.867465 98.754211 
L 81.800118 98.832894 
L 82.732742 98.687337 
L 83.665398 98.785347 
L 84.598038 98.779211 
L 85.53068 98.784273 
L 86.463316 98.474908 
L 87.395962 98.801451 
L 96.913595 98.821697 
L 97.655282 98.747922 
L 98.587939 98.754517 
L 99.520578 98.732124 
L 100.453222 98.681662 
L 101.385859 98.794856 
L 102.318497 98.895933 
L 103.251135 98.859582 
L 104.183773 98.831667 
L 105.116412 98.810041 
L 106.049054 98.787647 
L 106.981691 98.78412 
L 107.914333 98.739026 
L 108.846974 98.736419 
L 109.779613 98.864644 
L 110.71225 98.835655 
L 111.644893 98.575064 
L 112.57753 98.928603 
L 113.510173 98.811268 
L 114.442814 98.765868 
L 115.37545 98.808354 
L 116.308095 98.618164 
L 117.240726 98.749456 
L 118.173367 98.782432 
L 119.106014 98.869705 
L 120.038653 98.836575 
L 120.971293 98.820624 
L 121.903926 98.807126 
L 122.836569 98.705436 
L 123.769209 98.641017 
L 124.701847 98.810347 
L 125.634489 98.804672 
L 129.365046 98.864644 
L 130.297692 98.711265 
L 131.230328 98.712645 
L 132.162968 98.765254 
L 133.095609 98.551444 
L 134.028248 98.806053 
L 134.960891 98.635802 
L 135.893512 98.584113 
L 136.826165 98.730897 
L 137.75881 98.690098 
L 138.691446 98.690865 
L 139.624089 98.704056 
L 140.556726 98.773076 
L 141.489366 98.740253 
L 142.422003 98.657275 
L 143.354646 98.77507 
L 144.287298 98.634882 
L 145.219926 98.679822 
L 146.152567 98.728136 
L 147.085204 98.77461 
L 148.017844 98.776451 
L 148.950485 98.693933 
L 149.883123 98.727523 
L 150.815765 98.677675 
L 151.7484 98.729823 
L 179.727656 98.729823 
L 188.43171 98.763107 
L 189.054038 98.798537 
L 189.986678 98.721541 
L 190.919315 98.787187 
L 191.851955 98.762493 
L 192.7846 98.722921 
L 193.717237 98.821391 
L 194.649875 98.722615 
L 195.582513 98.665711 
L 196.515156 98.790562 
L 197.447798 98.778445 
L 198.380437 98.830133 
L 199.313081 98.766174 
L 200.245713 98.78412 
L 201.178356 98.764487 
L 202.110995 98.816943 
L 203.043636 98.868631 
" clip-path="url(#p8bfac3614b)" style="fill: none; stroke: #ff6b6b; stroke-width: 1.2; stroke-linecap: square"/>
   </g>
   <g id="patch_3">
    <path d="M 35.96 103.4 
L 35.96 5.029259 
" style="fill: none; stroke: var(--fg-color); stroke-width: 0.8; stroke-linejoin: miter; stroke-linecap: square"/>
   </g>
   <g id="patch_4">
    <path d="M 35.96 103.4 
L 211 103.4 
" style="fill: none; stroke: var(--fg-color); stroke-width: 0.8; stroke-linejoin: miter; stroke-linecap: square"/>
   </g>
  </g>
 </g>
 <defs>
  <clipPath id="p8bfac3614b">
   <rect x="35.96" y="5.029259" width="175.04" height="98.370741"/>
  </clipPath>
 </defs>
</svg>
