<?xml version="1.0" encoding="utf-8" standalone="no"?>
<!DOCTYPE svg PUBLIC "-//W3C//DTD SVG 1.1//EN"
  "http://www.w3.org/Graphics/SVG/1.1/DTD/svg11.dtd">
<svg xmlns:xlink="http://www.w3.org/1999/xlink" width="216pt" height="122.4pt" viewBox="0 0 216 122.4" xmlns="http://www.w3.org/2000/svg" version="1.1">
  <style>
    :root {
      --fg-color: #212529;
      --grid-color: rgba(33, 37, 41, 0.1);
    }
    @media (prefers-color-scheme: dark) {
      :root {
        --fg-color: #dee2e6;
        --grid-color: rgba(248, 249, 250, 0.15);
      }
    }
  </style>

 <metadata>
  <rdf:RDF xmlns:dc="http://purl.org/dc/elements/1.1/" xmlns:cc="http://creativecommons.org/ns#" xmlns:rdf="http://www.w3.org/1999/02/22-rdf-syntax-ns#">
   <cc:Work>
    <dc:type rdf:resource="http://purl.org/dc/dcmitype/StillImage"/>
    <dc:date>2026-06-30T04:49:08.761995</dc:date>
    <dc:format>image/svg+xml</dc:format>
    <dc:creator>
     <cc:Agent>
      <dc:title>Matplotlib v3.11.0, https://matplotlib.org/</dc:title>
     </cc:Agent>
    </dc:creator>
   </cc:Work>
  </rdf:RDF>
 </metadata>
 <defs>
  <style type="text/css">*{stroke-linejoin: round; stroke-linecap: butt}</style>
 </defs>
 <g id="figure_1">
  <g id="patch_1">
   <path d="M 0 122.4 
L 216 122.4 
L 216 0 
L 0 0 
L 0 122.4 
z
" style="fill: none; opacity: 0"/>
  </g>
  <g id="axes_1">
   <g id="patch_2">
    <path d="M 35.96 103.4 
L 211 103.4 
L 211 5 
L 35.96 5 
L 35.96 103.4 
z
" style="fill: none; opacity: 0"/>
   </g>
   <g id="matplotlib.axis_1">
    <g id="xtick_1">
     <g id="line2d_1">
      <path d="M 70.996911 103.4 
L 70.996911 5 
" clip-path="url(#pc0a8d7e503)" style="fill: none; stroke-dasharray: 2.96,1.28; stroke-dashoffset: 0; stroke: var(--grid-color); stroke-width: 0.8"/>
     </g>
     <g id="line2d_2">
      <defs>
       <path id="m0d1aa65c56" d="M 0 0 
L 0 3.5 
" style="stroke: var(--fg-color); stroke-width: 0.8"/>
      </defs>
      <g>
       <use xlink:href="#m0d1aa65c56" x="70.996911" y="103.4" style="fill: var(--fg-color); stroke: var(--fg-color); stroke-width: 0.8"/>
      </g>
     </g>
     <g id="text_1">
      <text style="font-size: 7px; font-family: 'DejaVu Sans', 'Bitstream Vera Sans', 'Computer Modern Sans Serif', 'Lucida Grande', 'Verdana', 'Geneva', 'Lucid', 'Arial', 'Helvetica', 'Avant Garde', sans-serif; text-anchor: middle; fill: var(--fg-color)" x="70.996911" y="115.718359" transform="rotate(-0 70.996911 115.718359)">02/2026</text>
     </g>
    </g>
    <g id="xtick_2">
     <g id="line2d_3">
      <path d="M 126.022656 103.4 
L 126.022656 5 
" clip-path="url(#pc0a8d7e503)" style="fill: none; stroke-dasharray: 2.96,1.28; stroke-dashoffset: 0; stroke: var(--grid-color); stroke-width: 0.8"/>
     </g>
     <g id="line2d_4">
      <g>
       <use xlink:href="#m0d1aa65c56" x="126.022656" y="103.4" style="fill: var(--fg-color); stroke: var(--fg-color); stroke-width: 0.8"/>
      </g>
     </g>
     <g id="text_2">
      <text style="font-size: 7px; font-family: 'DejaVu Sans', 'Bitstream Vera Sans', 'Computer Modern Sans Serif', 'Lucida Grande', 'Verdana', 'Geneva', 'Lucid', 'Arial', 'Helvetica', 'Avant Garde', sans-serif; text-anchor: middle; fill: var(--fg-color)" x="126.022656" y="115.718359" transform="rotate(-0 126.022656 115.718359)">04/2026</text>
     </g>
    </g>
    <g id="xtick_3">
     <g id="line2d_5">
      <path d="M 182.913681 103.4 
L 182.913681 5 
" clip-path="url(#pc0a8d7e503)" style="fill: none; stroke-dasharray: 2.96,1.28; stroke-dashoffset: 0; stroke: var(--grid-color); stroke-width: 0.8"/>
     </g>
     <g id="line2d_6">
      <g>
       <use xlink:href="#m0d1aa65c56" x="182.913681" y="103.4" style="fill: var(--fg-color); stroke: var(--fg-color); stroke-width: 0.8"/>
      </g>
     </g>
     <g id="text_3">
      <text style="font-size: 7px; font-family: 'DejaVu Sans', 'Bitstream Vera Sans', 'Computer Modern Sans Serif', 'Lucida Grande', 'Verdana', 'Geneva', 'Lucid', 'Arial', 'Helvetica', 'Avant Garde', sans-serif; text-anchor: middle; fill: var(--fg-color)" x="182.913681" y="115.718359" transform="rotate(-0 182.913681 115.718359)">06/2026</text>
     </g>
    </g>
   </g>
   <g id="matplotlib.axis_2">
    <g id="ytick_1">
     <g id="line2d_7">
      <path d="M 35.96 99.468597 
L 211 99.468597 
" clip-path="url(#pc0a8d7e503)" style="fill: none; stroke-dasharray: 2.96,1.28; stroke-dashoffset: 0; stroke: var(--grid-color); stroke-width: 0.8"/>
     </g>
     <g id="line2d_8">
      <defs>
       <path id="m739281550b" d="M 0 0 
L -3.5 0 
" style="stroke: var(--fg-color); stroke-width: 0.8"/>
      </defs>
      <g>
       <use xlink:href="#m739281550b" x="35.96" y="99.468597" style="fill: var(--fg-color); stroke: var(--fg-color); stroke-width: 0.8"/>
      </g>
     </g>
     <g id="text_4">
      <text style="font-size: 7px; font-family: 'DejaVu Sans', 'Bitstream Vera Sans', 'Computer Modern Sans Serif', 'Lucida Grande', 'Verdana', 'Geneva', 'Lucid', 'Arial', 'Helvetica', 'Avant Garde', sans-serif; text-anchor: end; fill: var(--fg-color)" x="28.96" y="102.127777" transform="rotate(-0 28.96 102.127777)">0</text>
     </g>
    </g>
    <g id="ytick_2">
     <g id="line2d_9">
      <path d="M 35.96 84.710579 
L 211 84.710579 
" clip-path="url(#pc0a8d7e503)" style="fill: none; stroke-dasharray: 2.96,1.28; stroke-dashoffset: 0; stroke: var(--grid-color); stroke-width: 0.8"/>
     </g>
     <g id="line2d_10">
      <g>
       <use xlink:href="#m739281550b" x="35.96" y="84.710579" style="fill: var(--fg-color); stroke: var(--fg-color); stroke-width: 0.8"/>
      </g>
     </g>
     <g id="text_5">
      <text style="font-size: 7px; font-family: 'DejaVu Sans', 'Bitstream Vera Sans', 'Computer Modern Sans Serif', 'Lucida Grande', 'Verdana', 'Geneva', 'Lucid', 'Arial', 'Helvetica', 'Avant Garde', sans-serif; text-anchor: end; fill: var(--fg-color)" x="28.96" y="87.369759" transform="rotate(-0 28.96 87.369759)">50</text>
     </g>
    </g>
    <g id="ytick_3">
     <g id="line2d_11">
      <path d="M 35.96 69.952561 
L 211 69.952561 
" clip-path="url(#pc0a8d7e503)" style="fill: none; stroke-dasharray: 2.96,1.28; stroke-dashoffset: 0; stroke: var(--grid-color); stroke-width: 0.8"/>
     </g>
     <g id="line2d_12">
      <g>
       <use xlink:href="#m739281550b" x="35.96" y="69.952561" style="fill: var(--fg-color); stroke: var(--fg-color); stroke-width: 0.8"/>
      </g>
     </g>
     <g id="text_6">
      <text style="font-size: 7px; font-family: 'DejaVu Sans', 'Bitstream Vera Sans', 'Computer Modern Sans Serif', 'Lucida Grande', 'Verdana', 'Geneva', 'Lucid', 'Arial', 'Helvetica', 'Avant Garde', sans-serif; text-anchor: end; fill: var(--fg-color)" x="28.96" y="72.611741" transform="rotate(-0 28.96 72.611741)">100</text>
     </g>
    </g>
    <g id="ytick_4">
     <g id="line2d_13">
      <path d="M 35.96 55.194543 
L 211 55.194543 
" clip-path="url(#pc0a8d7e503)" style="fill: none; stroke-dasharray: 2.96,1.28; stroke-dashoffset: 0; stroke: var(--grid-color); stroke-width: 0.8"/>
     </g>
     <g id="line2d_14">
      <g>
       <use xlink:href="#m739281550b" x="35.96" y="55.194543" style="fill: var(--fg-color); stroke: var(--fg-color); stroke-width: 0.8"/>
      </g>
     </g>
     <g id="text_7">
      <text style="font-size: 7px; font-family: 'DejaVu Sans', 'Bitstream Vera Sans', 'Computer Modern Sans Serif', 'Lucida Grande', 'Verdana', 'Geneva', 'Lucid', 'Arial', 'Helvetica', 'Avant Garde', sans-serif; text-anchor: end; fill: var(--fg-color)" x="28.96" y="57.853723" transform="rotate(-0 28.96 57.853723)">150</text>
     </g>
    </g>
    <g id="ytick_5">
     <g id="line2d_15">
      <path d="M 35.96 40.436525 
L 211 40.436525 
" clip-path="url(#pc0a8d7e503)" style="fill: none; stroke-dasharray: 2.96,1.28; stroke-dashoffset: 0; stroke: var(--grid-color); stroke-width: 0.8"/>
     </g>
     <g id="line2d_16">
      <g>
       <use xlink:href="#m739281550b" x="35.96" y="40.436525" style="fill: var(--fg-color); stroke: var(--fg-color); stroke-width: 0.8"/>
      </g>
     </g>
     <g id="text_8">
      <text style="font-size: 7px; font-family: 'DejaVu Sans', 'Bitstream Vera Sans', 'Computer Modern Sans Serif', 'Lucida Grande', 'Verdana', 'Geneva', 'Lucid', 'Arial', 'Helvetica', 'Avant Garde', sans-serif; text-anchor: end; fill: var(--fg-color)" x="28.96" y="43.095705" transform="rotate(-0 28.96 43.095705)">200</text>
     </g>
    </g>
    <g id="ytick_6">
     <g id="line2d_17">
      <path d="M 35.96 25.678507 
L 211 25.678507 
" clip-path="url(#pc0a8d7e503)" style="fill: none; stroke-dasharray: 2.96,1.28; stroke-dashoffset: 0; stroke: var(--grid-color); stroke-width: 0.8"/>
     </g>
     <g id="line2d_18">
      <g>
       <use xlink:href="#m739281550b" x="35.96" y="25.678507" style="fill: var(--fg-color); stroke: var(--fg-color); stroke-width: 0.8"/>
      </g>
     </g>
     <g id="text_9">
      <text style="font-size: 7px; font-family: 'DejaVu Sans', 'Bitstream Vera Sans', 'Computer Modern Sans Serif', 'Lucida Grande', 'Verdana', 'Geneva', 'Lucid', 'Arial', 'Helvetica', 'Avant Garde', sans-serif; text-anchor: end; fill: var(--fg-color)" x="28.96" y="28.337687" transform="rotate(-0 28.96 28.337687)">250</text>
     </g>
    </g>
    <g id="ytick_7">
     <g id="line2d_19">
      <path d="M 35.96 10.920489 
L 211 10.920489 
" clip-path="url(#pc0a8d7e503)" style="fill: none; stroke-dasharray: 2.96,1.28; stroke-dashoffset: 0; stroke: var(--grid-color); stroke-width: 0.8"/>
     </g>
     <g id="line2d_20">
      <g>
       <use xlink:href="#m739281550b" x="35.96" y="10.920489" style="fill: var(--fg-color); stroke: var(--fg-color); stroke-width: 0.8"/>
      </g>
     </g>
     <g id="text_10">
      <text style="font-size: 7px; font-family: 'DejaVu Sans', 'Bitstream Vera Sans', 'Computer Modern Sans Serif', 'Lucida Grande', 'Verdana', 'Geneva', 'Lucid', 'Arial', 'Helvetica', 'Avant Garde', sans-serif; text-anchor: end; fill: var(--fg-color)" x="28.96" y="13.579669" transform="rotate(-0 28.96 13.579669)">300</text>
     </g>
    </g>
    <g id="text_11">
     <text style="font-size: 7px; font-family: 'DejaVu Sans', 'Bitstream Vera Sans', 'Computer Modern Sans Serif', 'Lucida Grande', 'Verdana', 'Geneva', 'Lucid', 'Arial', 'Helvetica', 'Avant Garde', sans-serif; text-anchor: middle; fill: var(--fg-color)" x="9.917109" y="54.2" transform="rotate(-90 9.917109 54.2)">ms</text>
    </g>
   </g>
   <g id="line2d_21">
    <path d="M 43.916364 23.327259 
L 44.494523 40.614507 
L 45.427166 34.411121 
L 46.359808 35.096779 
L 47.292453 33.643114 
L 48.22509 31.419671 
L 49.157727 30.937969 
L 50.090359 29.499948 
L 51.023007 41.826435 
L 51.95565 37.370399 
L 52.88829 25.516464 
L 53.82093 27.574027 
L 54.753566 36.336452 
L 55.686208 35.540995 
L 56.618849 34.001439 
L 57.551483 34.39105 
L 58.484126 44.472252 
L 59.416765 32.70657 
L 60.349406 38.238761 
L 61.282045 35.840288 
L 62.214684 35.17293 
L 63.147327 30.909929 
L 64.07996 42.072304 
L 65.012598 41.949517 
L 65.945245 34.853862 
L 66.877884 28.982532 
L 67.810526 34.987274 
L 68.743162 43.432698 
L 69.675784 36.692416 
L 70.608443 34.860946 
L 71.541078 32.650195 
L 72.473724 24.922601 
L 73.406361 33.204506 
L 74.339003 38.69685 
L 75.271637 38.616566 
L 76.204286 34.400495 
L 77.136912 45.515349 
L 78.069558 44.009146 
L 79.002199 39.77507 
L 79.934841 33.650788 
L 80.867465 42.271537 
L 81.800118 28.71187 
L 82.732742 40.310196 
L 83.665398 38.487286 
L 84.598038 31.20568 
L 85.53068 35.987868 
L 86.463316 33.959526 
L 87.395962 39.573771 
L 96.913595 33.269146 
L 97.655282 29.113288 
L 98.587939 38.966036 
L 99.520578 39.259425 
L 100.453222 36.237574 
L 101.385859 31.050425 
L 102.318497 21.945319 
L 103.251135 34.798962 
L 104.183773 38.311075 
L 105.116412 30.110044 
L 106.049054 28.892803 
L 106.981691 26.976032 
L 107.914333 42.296921 
L 108.846974 29.778284 
L 109.779613 39.69095 
L 110.71225 31.238738 
L 111.644893 32.762946 
L 112.57753 34.445655 
L 113.510173 37.910247 
L 114.442814 36.239345 
L 115.37545 32.239036 
L 116.308095 40.726667 
L 117.240726 34.757344 
L 118.173367 38.312256 
L 119.106014 35.040108 
L 120.038653 29.497882 
L 120.971293 27.361216 
L 121.903926 22.562794 
L 122.836569 26.886303 
L 123.769209 24.951822 
L 124.701847 21.680265 
L 125.634489 25.010559 
L 129.365046 15.323691 
L 130.297692 39.484338 
L 131.230328 22.397209 
L 132.162968 15.754625 
L 133.095609 32.195352 
L 134.028248 31.267663 
L 134.960891 24.924667 
L 135.893512 23.876258 
L 136.826165 29.082591 
L 137.75881 33.071979 
L 138.691446 12.472737 
L 139.624089 28.112989 
L 140.556726 31.512351 
L 141.489366 16.413423 
L 142.422003 36.147845 
L 143.354646 39.441539 
L 144.287298 27.425266 
L 145.219926 31.922919 
L 146.152567 13.427876 
L 147.085204 34.100317 
L 148.017844 27.714818 
L 148.950485 34.23432 
L 149.883123 24.183224 
L 150.815765 27.72751 
L 151.7484 22.879206 
L 179.727656 22.879206 
L 188.43171 34.801323 
L 189.054038 28.787726 
L 189.986678 31.388384 
L 190.919315 23.444733 
L 191.851955 33.752618 
L 192.7846 10.942921 
L 193.717237 25.119178 
L 194.649875 9.472727 
L 195.582513 26.31015 
L 196.515156 33.950376 
L 197.447798 15.690575 
L 198.380437 25.331989 
L 199.313081 19.693245 
L 200.245713 33.583196 
L 201.178356 28.962166 
L 202.110995 33.258225 
L 203.043636 27.208323 
" clip-path="url(#pc0a8d7e503)" style="fill: none; stroke: #339af0; stroke-width: 1.2; stroke-linecap: square"/>
   </g>
   <g id="line2d_22">
    <path d="M 43.916364 98.818063 
L 44.494523 98.850826 
L 45.427166 98.876505 
L 46.359808 98.843742 
L 47.292453 98.846104 
L 48.22509 98.274673 
L 49.157727 98.770838 
L 50.090359 98.854663 
L 51.023007 98.890378 
L 51.95565 98.355842 
L 52.88829 98.861157 
L 53.82093 98.851121 
L 54.753566 98.850531 
L 55.686208 98.856729 
L 56.618849 98.881818 
L 57.551483 98.620601 
L 58.484126 98.882704 
L 59.416765 98.883884 
L 60.349406 98.84876 
L 61.282045 98.873849 
L 62.214684 98.835773 
L 63.147327 98.833707 
L 64.07996 98.878866 
L 65.012598 98.892444 
L 65.945245 98.635949 
L 66.877884 98.850826 
L 67.810526 98.891263 
L 68.743162 98.755489 
L 69.675784 98.868536 
L 70.608443 98.823967 
L 71.541078 98.860862 
L 72.473724 98.828984 
L 73.406361 98.825442 
L 74.339003 98.895395 
L 75.271637 98.862928 
L 76.204286 98.889492 
L 77.136912 98.8951 
L 78.069558 98.883589 
L 79.002199 98.88536 
L 79.934841 98.836954 
L 80.867465 98.853483 
L 81.800118 98.820425 
L 82.732742 98.078982 
L 83.665398 98.586953 
L 84.598038 98.870897 
L 85.53068 98.882113 
L 86.463316 98.746044 
L 87.395962 98.734828 
L 96.913595 98.844628 
L 97.655282 98.832821 
L 98.587939 98.852597 
L 99.520578 98.878571 
L 100.453222 98.886541 
L 101.385859 98.8402 
L 102.318497 98.885065 
L 103.251135 98.927273 
L 104.183773 98.890083 
L 105.116412 98.860271 
L 106.049054 98.720365 
L 106.981691 98.830755 
L 107.914333 98.918418 
L 108.846974 98.899823 
L 109.779613 98.919303 
L 110.71225 98.902184 
L 111.644893 98.918418 
L 112.57753 98.886245 
L 113.510173 98.881523 
L 114.442814 98.844333 
L 115.37545 98.909858 
L 116.308095 98.904841 
L 117.240726 98.484237 
L 118.173367 98.893624 
L 119.106014 98.918713 
L 120.038653 98.637425 
L 120.971293 98.885065 
L 121.903926 98.785596 
L 122.836569 98.853778 
L 123.769209 98.865289 
L 124.701847 98.896871 
L 125.634489 98.844923 
L 129.365046 98.773199 
L 130.297692 98.866765 
L 131.230328 98.879457 
L 132.162968 98.838429 
L 133.095609 98.857025 
L 134.028248 98.704131 
L 134.960891 98.799173 
L 135.893512 98.849646 
L 136.826165 98.865584 
L 137.75881 98.82072 
L 138.691446 98.853778 
L 139.624089 98.872078 
L 140.556726 98.747225 
L 141.489366 98.782644 
L 142.422003 98.868831 
L 143.354646 98.851121 
L 144.287298 98.783234 
L 145.219926 98.857025 
L 146.152567 98.823967 
L 147.085204 98.870307 
L 148.017844 98.868536 
L 148.950485 98.860566 
L 149.883123 98.75667 
L 150.815765 98.821605 
L 151.7484 98.840791 
L 179.727656 98.840791 
L 188.43171 98.877981 
L 189.054038 98.806552 
L 189.986678 98.823671 
L 190.919315 98.825442 
L 191.851955 98.874734 
L 192.7846 98.830755 
L 193.717237 98.827804 
L 194.649875 98.852302 
L 195.582513 98.883589 
L 196.515156 98.880933 
L 197.447798 98.849941 
L 198.380437 98.82072 
L 199.313081 98.652183 
L 200.245713 98.818654 
L 201.178356 98.718594 
L 202.110995 98.807142 
L 203.043636 98.76641 
" clip-path="url(#pc0a8d7e503)" style="fill: none; stroke: #ff6b6b; stroke-width: 1.2; stroke-linecap: square"/>
   </g>
   <g id="patch_3">
    <path d="M 35.96 103.4 
L 35.96 5 
" style="fill: none; stroke: var(--fg-color); stroke-width: 0.8; stroke-linejoin: miter; stroke-linecap: square"/>
   </g>
   <g id="patch_4">
    <path d="M 35.96 103.4 
L 211 103.4 
" style="fill: none; stroke: var(--fg-color); stroke-width: 0.8; stroke-linejoin: miter; stroke-linecap: square"/>
   </g>
  </g>
 </g>
 <defs>
  <clipPath id="pc0a8d7e503">
   <rect x="35.96" y="5" width="175.04" height="98.4"/>
  </clipPath>
 </defs>
</svg>
