<?xml version="1.0" encoding="utf-8" standalone="no"?>
<!DOCTYPE svg PUBLIC "-//W3C//DTD SVG 1.1//EN"
  "http://www.w3.org/Graphics/SVG/1.1/DTD/svg11.dtd">
<svg xmlns:xlink="http://www.w3.org/1999/xlink" width="216pt" height="122.4pt" viewBox="0 0 216 122.4" xmlns="http://www.w3.org/2000/svg" version="1.1">
  <style>
    :root {
      --fg-color: #212529;
      --grid-color: rgba(33, 37, 41, 0.1);
    }
    @media (prefers-color-scheme: dark) {
      :root {
        --fg-color: #dee2e6;
        --grid-color: rgba(248, 249, 250, 0.15);
      }
    }
  </style>

 <metadata>
  <rdf:RDF xmlns:dc="http://purl.org/dc/elements/1.1/" xmlns:cc="http://creativecommons.org/ns#" xmlns:rdf="http://www.w3.org/1999/02/22-rdf-syntax-ns#">
   <cc:Work>
    <dc:type rdf:resource="http://purl.org/dc/dcmitype/StillImage"/>
    <dc:date>2026-06-30T04:48:38.638647</dc:date>
    <dc:format>image/svg+xml</dc:format>
    <dc:creator>
     <cc:Agent>
      <dc:title>Matplotlib v3.11.0, https://matplotlib.org/</dc:title>
     </cc:Agent>
    </dc:creator>
   </cc:Work>
  </rdf:RDF>
 </metadata>
 <defs>
  <style type="text/css">*{stroke-linejoin: round; stroke-linecap: butt}</style>
 </defs>
 <g id="figure_1">
  <g id="patch_1">
   <path d="M 0 122.4 
L 216 122.4 
L 216 0 
L 0 0 
L 0 122.4 
z
" style="fill: none; opacity: 0"/>
  </g>
  <g id="axes_1">
   <g id="patch_2">
    <path d="M 35.96 103.4 
L 211 103.4 
L 211 5 
L 35.96 5 
L 35.96 103.4 
z
" style="fill: none; opacity: 0"/>
   </g>
   <g id="matplotlib.axis_1">
    <g id="xtick_1">
     <g id="line2d_1">
      <path d="M 72.056377 103.4 
L 72.056377 5 
" clip-path="url(#pafa81b90e2)" style="fill: none; stroke-dasharray: 2.96,1.28; stroke-dashoffset: 0; stroke: var(--grid-color); stroke-width: 0.8"/>
     </g>
     <g id="line2d_2">
      <defs>
       <path id="meac020906e" d="M 0 0 
L 0 3.5 
" style="stroke: var(--fg-color); stroke-width: 0.8"/>
      </defs>
      <g>
       <use xlink:href="#meac020906e" x="72.056377" y="103.4" style="fill: var(--fg-color); stroke: var(--fg-color); stroke-width: 0.8"/>
      </g>
     </g>
     <g id="text_1">
      <text style="font-size: 7px; font-family: 'DejaVu Sans', 'Bitstream Vera Sans', 'Computer Modern Sans Serif', 'Lucida Grande', 'Verdana', 'Geneva', 'Lucid', 'Arial', 'Helvetica', 'Avant Garde', sans-serif; text-anchor: middle; fill: var(--fg-color)" x="72.056377" y="115.718359" transform="rotate(-0 72.056377 115.718359)">02/2026</text>
     </g>
    </g>
    <g id="xtick_2">
     <g id="line2d_3">
      <path d="M 126.640628 103.4 
L 126.640628 5 
" clip-path="url(#pafa81b90e2)" style="fill: none; stroke-dasharray: 2.96,1.28; stroke-dashoffset: 0; stroke: var(--grid-color); stroke-width: 0.8"/>
     </g>
     <g id="line2d_4">
      <g>
       <use xlink:href="#meac020906e" x="126.640628" y="103.4" style="fill: var(--fg-color); stroke: var(--fg-color); stroke-width: 0.8"/>
      </g>
     </g>
     <g id="text_2">
      <text style="font-size: 7px; font-family: 'DejaVu Sans', 'Bitstream Vera Sans', 'Computer Modern Sans Serif', 'Lucida Grande', 'Verdana', 'Geneva', 'Lucid', 'Arial', 'Helvetica', 'Avant Garde', sans-serif; text-anchor: middle; fill: var(--fg-color)" x="126.640628" y="115.718359" transform="rotate(-0 126.640628 115.718359)">04/2026</text>
     </g>
    </g>
    <g id="xtick_3">
     <g id="line2d_5">
      <path d="M 183.075192 103.4 
L 183.075192 5 
" clip-path="url(#pafa81b90e2)" style="fill: none; stroke-dasharray: 2.96,1.28; stroke-dashoffset: 0; stroke: var(--grid-color); stroke-width: 0.8"/>
     </g>
     <g id="line2d_6">
      <g>
       <use xlink:href="#meac020906e" x="183.075192" y="103.4" style="fill: var(--fg-color); stroke: var(--fg-color); stroke-width: 0.8"/>
      </g>
     </g>
     <g id="text_3">
      <text style="font-size: 7px; font-family: 'DejaVu Sans', 'Bitstream Vera Sans', 'Computer Modern Sans Serif', 'Lucida Grande', 'Verdana', 'Geneva', 'Lucid', 'Arial', 'Helvetica', 'Avant Garde', sans-serif; text-anchor: middle; fill: var(--fg-color)" x="183.075192" y="115.718359" transform="rotate(-0 183.075192 115.718359)">06/2026</text>
     </g>
    </g>
   </g>
   <g id="matplotlib.axis_2">
    <g id="ytick_1">
     <g id="line2d_7">
      <path d="M 35.96 96.842122 
L 211 96.842122 
" clip-path="url(#pafa81b90e2)" style="fill: none; stroke-dasharray: 2.96,1.28; stroke-dashoffset: 0; stroke: var(--grid-color); stroke-width: 0.8"/>
     </g>
     <g id="line2d_8">
      <defs>
       <path id="m38994ad0b8" d="M 0 0 
L -3.5 0 
" style="stroke: var(--fg-color); stroke-width: 0.8"/>
      </defs>
      <g>
       <use xlink:href="#m38994ad0b8" x="35.96" y="96.842122" style="fill: var(--fg-color); stroke: var(--fg-color); stroke-width: 0.8"/>
      </g>
     </g>
     <g id="text_4">
      <text style="font-size: 7px; font-family: 'DejaVu Sans', 'Bitstream Vera Sans', 'Computer Modern Sans Serif', 'Lucida Grande', 'Verdana', 'Geneva', 'Lucid', 'Arial', 'Helvetica', 'Avant Garde', sans-serif; text-anchor: end; fill: var(--fg-color)" x="28.96" y="99.501302" transform="rotate(-0 28.96 99.501302)">50</text>
     </g>
    </g>
    <g id="ytick_2">
     <g id="line2d_9">
      <path d="M 35.96 82.2688 
L 211 82.2688 
" clip-path="url(#pafa81b90e2)" style="fill: none; stroke-dasharray: 2.96,1.28; stroke-dashoffset: 0; stroke: var(--grid-color); stroke-width: 0.8"/>
     </g>
     <g id="line2d_10">
      <g>
       <use xlink:href="#m38994ad0b8" x="35.96" y="82.2688" style="fill: var(--fg-color); stroke: var(--fg-color); stroke-width: 0.8"/>
      </g>
     </g>
     <g id="text_5">
      <text style="font-size: 7px; font-family: 'DejaVu Sans', 'Bitstream Vera Sans', 'Computer Modern Sans Serif', 'Lucida Grande', 'Verdana', 'Geneva', 'Lucid', 'Arial', 'Helvetica', 'Avant Garde', sans-serif; text-anchor: end; fill: var(--fg-color)" x="28.96" y="84.92798" transform="rotate(-0 28.96 84.92798)">75</text>
     </g>
    </g>
    <g id="ytick_3">
     <g id="line2d_11">
      <path d="M 35.96 67.695479 
L 211 67.695479 
" clip-path="url(#pafa81b90e2)" style="fill: none; stroke-dasharray: 2.96,1.28; stroke-dashoffset: 0; stroke: var(--grid-color); stroke-width: 0.8"/>
     </g>
     <g id="line2d_12">
      <g>
       <use xlink:href="#m38994ad0b8" x="35.96" y="67.695479" style="fill: var(--fg-color); stroke: var(--fg-color); stroke-width: 0.8"/>
      </g>
     </g>
     <g id="text_6">
      <text style="font-size: 7px; font-family: 'DejaVu Sans', 'Bitstream Vera Sans', 'Computer Modern Sans Serif', 'Lucida Grande', 'Verdana', 'Geneva', 'Lucid', 'Arial', 'Helvetica', 'Avant Garde', sans-serif; text-anchor: end; fill: var(--fg-color)" x="28.96" y="70.354658" transform="rotate(-0 28.96 70.354658)">100</text>
     </g>
    </g>
    <g id="ytick_4">
     <g id="line2d_13">
      <path d="M 35.96 53.122157 
L 211 53.122157 
" clip-path="url(#pafa81b90e2)" style="fill: none; stroke-dasharray: 2.96,1.28; stroke-dashoffset: 0; stroke: var(--grid-color); stroke-width: 0.8"/>
     </g>
     <g id="line2d_14">
      <g>
       <use xlink:href="#m38994ad0b8" x="35.96" y="53.122157" style="fill: var(--fg-color); stroke: var(--fg-color); stroke-width: 0.8"/>
      </g>
     </g>
     <g id="text_7">
      <text style="font-size: 7px; font-family: 'DejaVu Sans', 'Bitstream Vera Sans', 'Computer Modern Sans Serif', 'Lucida Grande', 'Verdana', 'Geneva', 'Lucid', 'Arial', 'Helvetica', 'Avant Garde', sans-serif; text-anchor: end; fill: var(--fg-color)" x="28.96" y="55.781337" transform="rotate(-0 28.96 55.781337)">125</text>
     </g>
    </g>
    <g id="ytick_5">
     <g id="line2d_15">
      <path d="M 35.96 38.548836 
L 211 38.548836 
" clip-path="url(#pafa81b90e2)" style="fill: none; stroke-dasharray: 2.96,1.28; stroke-dashoffset: 0; stroke: var(--grid-color); stroke-width: 0.8"/>
     </g>
     <g id="line2d_16">
      <g>
       <use xlink:href="#m38994ad0b8" x="35.96" y="38.548836" style="fill: var(--fg-color); stroke: var(--fg-color); stroke-width: 0.8"/>
      </g>
     </g>
     <g id="text_8">
      <text style="font-size: 7px; font-family: 'DejaVu Sans', 'Bitstream Vera Sans', 'Computer Modern Sans Serif', 'Lucida Grande', 'Verdana', 'Geneva', 'Lucid', 'Arial', 'Helvetica', 'Avant Garde', sans-serif; text-anchor: end; fill: var(--fg-color)" x="28.96" y="41.208015" transform="rotate(-0 28.96 41.208015)">150</text>
     </g>
    </g>
    <g id="ytick_6">
     <g id="line2d_17">
      <path d="M 35.96 23.975514 
L 211 23.975514 
" clip-path="url(#pafa81b90e2)" style="fill: none; stroke-dasharray: 2.96,1.28; stroke-dashoffset: 0; stroke: var(--grid-color); stroke-width: 0.8"/>
     </g>
     <g id="line2d_18">
      <g>
       <use xlink:href="#m38994ad0b8" x="35.96" y="23.975514" style="fill: var(--fg-color); stroke: var(--fg-color); stroke-width: 0.8"/>
      </g>
     </g>
     <g id="text_9">
      <text style="font-size: 7px; font-family: 'DejaVu Sans', 'Bitstream Vera Sans', 'Computer Modern Sans Serif', 'Lucida Grande', 'Verdana', 'Geneva', 'Lucid', 'Arial', 'Helvetica', 'Avant Garde', sans-serif; text-anchor: end; fill: var(--fg-color)" x="28.96" y="26.634694" transform="rotate(-0 28.96 26.634694)">175</text>
     </g>
    </g>
    <g id="ytick_7">
     <g id="line2d_19">
      <path d="M 35.96 9.402192 
L 211 9.402192 
" clip-path="url(#pafa81b90e2)" style="fill: none; stroke-dasharray: 2.96,1.28; stroke-dashoffset: 0; stroke: var(--grid-color); stroke-width: 0.8"/>
     </g>
     <g id="line2d_20">
      <g>
       <use xlink:href="#m38994ad0b8" x="35.96" y="9.402192" style="fill: var(--fg-color); stroke: var(--fg-color); stroke-width: 0.8"/>
      </g>
     </g>
     <g id="text_10">
      <text style="font-size: 7px; font-family: 'DejaVu Sans', 'Bitstream Vera Sans', 'Computer Modern Sans Serif', 'Lucida Grande', 'Verdana', 'Geneva', 'Lucid', 'Arial', 'Helvetica', 'Avant Garde', sans-serif; text-anchor: end; fill: var(--fg-color)" x="28.96" y="12.061372" transform="rotate(-0 28.96 12.061372)">200</text>
     </g>
    </g>
    <g id="text_11">
     <text style="font-size: 7px; font-family: 'DejaVu Sans', 'Bitstream Vera Sans', 'Computer Modern Sans Serif', 'Lucida Grande', 'Verdana', 'Geneva', 'Lucid', 'Arial', 'Helvetica', 'Avant Garde', sans-serif; text-anchor: middle; fill: var(--fg-color)" x="9.917109" y="54.2" transform="rotate(-90 9.917109 54.2)">ms</text>
    </g>
   </g>
   <g id="line2d_21">
    <path d="M 43.916364 26.170256 
L 45.193108 32.893221 
L 45.766628 32.365084 
L 46.691788 36.97958 
L 47.616947 29.282535 
L 48.542109 29.554764 
L 49.467263 28.556783 
L 50.392418 31.715114 
L 51.317566 31.839278 
L 52.242732 32.53122 
L 53.167891 32.041556 
L 54.093049 38.364629 
L 55.018206 38.026528 
L 55.943359 33.691839 
L 56.868517 30.024025 
L 57.793676 34.819231 
L 58.718827 29.856724 
L 59.643987 34.120295 
L 60.569143 31.248184 
L 61.494301 33.643456 
L 62.419457 32.480504 
L 63.344613 30.190744 
L 64.269773 32.591845 
L 65.194924 34.774928 
L 66.120079 39.298487 
L 67.045243 35.193474 
L 67.970398 34.864117 
L 68.895557 32.957926 
L 69.82071 31.75009 
L 70.74585 30.635522 
L 71.671025 33.124062 
L 72.596178 33.579916 
L 73.521341 25.38388 
L 74.446495 33.347909 
L 75.371653 34.981286 
L 76.296805 37.565428 
L 77.221971 39.071726 
L 78.147114 40.973836 
L 79.072277 37.097916 
L 79.997435 34.693901 
L 80.922594 33.788606 
L 81.847735 40.119257 
L 82.772905 34.244459 
L 83.698046 34.772596 
L 84.623219 37.25589 
L 85.548376 30.263611 
L 86.473535 33.267464 
L 87.398688 29.46849 
L 88.323852 29.213749 
L 97.76512 37.09092 
L 98.500856 39.987514 
L 99.426031 42.318662 
L 100.351186 32.604086 
L 101.276348 39.09621 
L 102.201502 38.12038 
L 103.126656 32.718924 
L 104.051812 40.556456 
L 104.976967 34.02994 
L 105.902123 35.279165 
L 106.827282 32.876899 
L 107.752435 34.522518 
L 108.677594 28.916453 
L 109.602753 35.265758 
L 110.527909 37.595157 
L 111.453063 34.728877 
L 112.378223 28.260071 
L 113.303377 37.457002 
L 114.228537 29.990215 
L 115.153695 30.411093 
L 116.078848 28.988154 
L 117.004011 33.665024 
L 117.929158 35.366605 
L 118.854316 27.434638 
L 119.779481 35.565385 
L 120.704637 35.497765 
L 121.629794 34.3797 
L 122.554943 37.830079 
L 123.480104 31.075636 
L 124.405261 33.645204 
L 125.330416 32.763227 
L 126.255574 28.868652 
L 129.9562 30.177337 
L 130.881363 35.010433 
L 131.806516 28.413965 
L 132.731673 28.784127 
L 133.656831 29.346074 
L 134.581987 26.763099 
L 135.507147 23.81171 
L 136.432285 21.326084 
L 137.357455 31.158413 
L 138.282617 31.110029 
L 139.20777 32.744573 
L 140.13293 30.809819 
L 141.058084 29.520954 
L 141.983242 30.539338 
L 142.908395 29.251056 
L 143.833556 28.958424 
L 144.758724 28.456519 
L 145.683869 30.241459 
L 146.609028 24.981656 
L 147.534182 29.400287 
L 148.459339 29.109987 
L 149.384497 29.513959 
L 150.309651 27.604271 
L 151.234811 31.434723 
L 152.159963 30.224554 
L 179.91473 30.224554 
L 188.548948 31.484855 
L 189.166282 33.884207 
L 190.091439 27.772739 
L 191.016594 22.959462 
L 191.94175 28.98349 
L 192.866913 29.318094 
L 193.792066 30.393605 
L 194.717222 34.993528 
L 195.642377 31.594446 
L 196.567536 27.946453 
L 197.492695 9.472727 
L 198.417852 26.6162 
L 199.343013 29.745383 
L 200.268162 31.131015 
L 201.193322 29.291862 
L 202.118478 29.683593 
L 203.043636 30.89551 
" clip-path="url(#pafa81b90e2)" style="fill: none; stroke: #339af0; stroke-width: 1.2; stroke-linecap: square"/>
   </g>
   <g id="line2d_22">
    <path d="M 43.916364 88.832041 
L 45.193108 89.101356 
L 45.766628 89.420221 
L 46.691788 93.299056 
L 47.616947 87.055845 
L 48.542109 88.084139 
L 49.467263 89.822444 
L 50.392418 91.353809 
L 51.317566 87.714559 
L 52.242732 90.815179 
L 53.167891 90.165209 
L 54.093049 89.465106 
L 55.018206 88.286999 
L 55.943359 87.515196 
L 56.868517 87.782762 
L 57.793676 92.502187 
L 58.718827 93.157986 
L 59.643987 89.189379 
L 60.569143 93.230853 
L 61.494301 93.532229 
L 62.419457 92.129693 
L 63.344613 94.992476 
L 64.269773 87.484884 
L 65.194924 91.170768 
L 66.120079 92.733028 
L 67.045243 95.174934 
L 67.970398 95.417434 
L 68.895557 91.858046 
L 69.82071 94.58792 
L 70.74585 88.879842 
L 71.671025 88.855942 
L 72.596178 94.22009 
L 73.521341 89.319956 
L 74.446495 92.102878 
L 75.371653 94.576262 
L 76.296805 94.218924 
L 77.221971 93.412728 
L 78.147114 91.795089 
L 79.072277 90.569181 
L 79.997435 90.834416 
L 80.922594 94.65729 
L 81.847735 97.407567 
L 82.772905 89.174223 
L 83.698046 94.410126 
L 84.623219 92.404837 
L 85.548376 93.208701 
L 86.473535 91.455239 
L 87.398688 89.621332 
L 88.323852 92.67765 
L 97.76512 92.531333 
L 98.500856 90.856567 
L 99.426031 90.882216 
L 100.351186 93.382415 
L 101.276348 91.535101 
L 102.201502 92.248028 
L 103.126656 94.766881 
L 104.051812 98.692934 
L 104.976967 97.966599 
L 105.902123 98.151972 
L 106.827282 92.522006 
L 107.752435 96.476623 
L 108.677594 95.054267 
L 109.602753 94.484158 
L 110.527909 96.576887 
L 111.453063 94.902121 
L 112.378223 94.376316 
L 113.303377 97.736341 
L 114.228537 93.928623 
L 115.153695 97.366761 
L 116.078848 94.151304 
L 117.004011 94.256815 
L 117.929158 96.891671 
L 118.854316 94.969742 
L 119.779481 95.012879 
L 120.704637 95.01521 
L 121.629794 94.633972 
L 122.554943 97.319544 
L 123.480104 97.357435 
L 124.405261 96.355956 
L 125.330416 94.535457 
L 126.255574 95.109062 
L 129.9562 98.028973 
L 130.881363 96.991353 
L 131.806516 94.090679 
L 132.731673 94.290042 
L 133.656831 93.493756 
L 134.581987 94.678275 
L 135.507147 92.269596 
L 136.432285 92.779663 
L 137.357455 94.558191 
L 138.282617 94.984898 
L 139.20777 97.135337 
L 140.13293 94.094759 
L 141.058084 96.08839 
L 141.983242 94.796028 
L 142.908395 93.512409 
L 143.833556 94.458509 
L 144.758724 94.397884 
L 145.683869 92.911989 
L 146.609028 94.353581 
L 147.534182 94.37515 
L 148.459339 92.285336 
L 149.384497 92.374524 
L 150.309651 93.921045 
L 151.234811 94.327932 
L 152.159963 94.359994 
L 179.91473 94.359994 
L 188.548948 95.376046 
L 189.166282 94.184531 
L 190.091439 86.86406 
L 191.016594 83.18109 
L 191.94175 93.162067 
L 192.866913 93.191796 
L 193.792066 91.380041 
L 194.717222 86.352245 
L 195.642377 92.354705 
L 196.567536 91.76944 
L 197.492695 92.925396 
L 198.417852 84.222208 
L 199.343013 83.974462 
L 200.268162 90.187943 
L 201.193322 98.927273 
L 202.118478 87.539679 
L 203.043636 88.860022 
" clip-path="url(#pafa81b90e2)" style="fill: none; stroke: #ff6b6b; stroke-width: 1.2; stroke-linecap: square"/>
   </g>
   <g id="patch_3">
    <path d="M 35.96 103.4 
L 35.96 5 
" style="fill: none; stroke: var(--fg-color); stroke-width: 0.8; stroke-linejoin: miter; stroke-linecap: square"/>
   </g>
   <g id="patch_4">
    <path d="M 35.96 103.4 
L 211 103.4 
" style="fill: none; stroke: var(--fg-color); stroke-width: 0.8; stroke-linejoin: miter; stroke-linecap: square"/>
   </g>
  </g>
 </g>
 <defs>
  <clipPath id="pafa81b90e2">
   <rect x="35.96" y="5" width="175.04" height="98.4"/>
  </clipPath>
 </defs>
</svg>
