<?xml version="1.0" encoding="utf-8" standalone="no"?>
<!DOCTYPE svg PUBLIC "-//W3C//DTD SVG 1.1//EN"
  "http://www.w3.org/Graphics/SVG/1.1/DTD/svg11.dtd">
<svg xmlns:xlink="http://www.w3.org/1999/xlink" width="216pt" height="122.4pt" viewBox="0 0 216 122.4" xmlns="http://www.w3.org/2000/svg" version="1.1">
  <style>
    :root {
      --fg-color: #212529;
      --grid-color: rgba(33, 37, 41, 0.1);
    }
    @media (prefers-color-scheme: dark) {
      :root {
        --fg-color: #dee2e6;
        --grid-color: rgba(248, 249, 250, 0.15);
      }
    }
  </style>

 <metadata>
  <rdf:RDF xmlns:dc="http://purl.org/dc/elements/1.1/" xmlns:cc="http://creativecommons.org/ns#" xmlns:rdf="http://www.w3.org/1999/02/22-rdf-syntax-ns#">
   <cc:Work>
    <dc:type rdf:resource="http://purl.org/dc/dcmitype/StillImage"/>
    <dc:date>2026-06-30T15:37:40.943623</dc:date>
    <dc:format>image/svg+xml</dc:format>
    <dc:creator>
     <cc:Agent>
      <dc:title>Matplotlib v3.11.0, https://matplotlib.org/</dc:title>
     </cc:Agent>
    </dc:creator>
   </cc:Work>
  </rdf:RDF>
 </metadata>
 <defs>
  <style type="text/css">*{stroke-linejoin: round; stroke-linecap: butt}</style>
 </defs>
 <g id="figure_1">
  <g id="patch_1">
   <path d="M 0 122.4 
L 216 122.4 
L 216 0 
L 0 0 
L 0 122.4 
z
" style="fill: none; opacity: 0"/>
  </g>
  <g id="axes_1">
   <g id="patch_2">
    <path d="M 35.96 103.4 
L 211 103.4 
L 211 5.513976 
L 35.96 5.513976 
L 35.96 103.4 
z
" style="fill: none; opacity: 0"/>
   </g>
   <g id="matplotlib.axis_1">
    <g id="xtick_1">
     <g id="line2d_1">
      <path d="M 69.784035 103.4 
L 69.784035 5.513976 
" clip-path="url(#p072ec359b4)" style="fill: none; stroke-dasharray: 2.96,1.28; stroke-dashoffset: 0; stroke: var(--grid-color); stroke-width: 0.8"/>
     </g>
     <g id="line2d_2">
      <defs>
       <path id="m57a5b86624" d="M 0 0 
L 0 3.5 
" style="stroke: var(--fg-color); stroke-width: 0.8"/>
      </defs>
      <g>
       <use xlink:href="#m57a5b86624" x="69.784035" y="103.4" style="fill: var(--fg-color); stroke: var(--fg-color); stroke-width: 0.8"/>
      </g>
     </g>
     <g id="text_1">
      <text style="font-size: 7px; font-family: 'DejaVu Sans', 'Bitstream Vera Sans', 'Computer Modern Sans Serif', 'Lucida Grande', 'Verdana', 'Geneva', 'Lucid', 'Arial', 'Helvetica', 'Avant Garde', sans-serif; text-anchor: middle; fill: var(--fg-color)" x="69.784035" y="115.718359" transform="rotate(-0 69.784035 115.718359)">02/2026</text>
     </g>
    </g>
    <g id="xtick_2">
     <g id="line2d_3">
      <path d="M 122.345302 103.4 
L 122.345302 5.513976 
" clip-path="url(#p072ec359b4)" style="fill: none; stroke-dasharray: 2.96,1.28; stroke-dashoffset: 0; stroke: var(--grid-color); stroke-width: 0.8"/>
     </g>
     <g id="line2d_4">
      <g>
       <use xlink:href="#m57a5b86624" x="122.345302" y="103.4" style="fill: var(--fg-color); stroke: var(--fg-color); stroke-width: 0.8"/>
      </g>
     </g>
     <g id="text_2">
      <text style="font-size: 7px; font-family: 'DejaVu Sans', 'Bitstream Vera Sans', 'Computer Modern Sans Serif', 'Lucida Grande', 'Verdana', 'Geneva', 'Lucid', 'Arial', 'Helvetica', 'Avant Garde', sans-serif; text-anchor: middle; fill: var(--fg-color)" x="122.345302" y="115.718359" transform="rotate(-0 122.345302 115.718359)">04/2026</text>
     </g>
    </g>
    <g id="xtick_3">
     <g id="line2d_5">
      <path d="M 176.688307 103.4 
L 176.688307 5.513976 
" clip-path="url(#p072ec359b4)" style="fill: none; stroke-dasharray: 2.96,1.28; stroke-dashoffset: 0; stroke: var(--grid-color); stroke-width: 0.8"/>
     </g>
     <g id="line2d_6">
      <g>
       <use xlink:href="#m57a5b86624" x="176.688307" y="103.4" style="fill: var(--fg-color); stroke: var(--fg-color); stroke-width: 0.8"/>
      </g>
     </g>
     <g id="text_3">
      <text style="font-size: 7px; font-family: 'DejaVu Sans', 'Bitstream Vera Sans', 'Computer Modern Sans Serif', 'Lucida Grande', 'Verdana', 'Geneva', 'Lucid', 'Arial', 'Helvetica', 'Avant Garde', sans-serif; text-anchor: middle; fill: var(--fg-color)" x="176.688307" y="115.718359" transform="rotate(-0 176.688307 115.718359)">06/2026</text>
     </g>
    </g>
   </g>
   <g id="matplotlib.axis_2">
    <g id="ytick_1">
     <g id="line2d_7">
      <path d="M 35.96 99.857047 
L 211 99.857047 
" clip-path="url(#p072ec359b4)" style="fill: none; stroke-dasharray: 2.96,1.28; stroke-dashoffset: 0; stroke: var(--grid-color); stroke-width: 0.8"/>
     </g>
     <g id="line2d_8">
      <defs>
       <path id="mc84c387a06" d="M 0 0 
L -3.5 0 
" style="stroke: var(--fg-color); stroke-width: 0.8"/>
      </defs>
      <g>
       <use xlink:href="#mc84c387a06" x="35.96" y="99.857047" style="fill: var(--fg-color); stroke: var(--fg-color); stroke-width: 0.8"/>
      </g>
     </g>
     <g id="text_4">
      <text style="font-size: 7px; font-family: 'DejaVu Sans', 'Bitstream Vera Sans', 'Computer Modern Sans Serif', 'Lucida Grande', 'Verdana', 'Geneva', 'Lucid', 'Arial', 'Helvetica', 'Avant Garde', sans-serif; text-anchor: end; fill: var(--fg-color)" x="28.96" y="102.516227" transform="rotate(-0 28.96 102.516227)">0</text>
     </g>
    </g>
    <g id="ytick_2">
     <g id="line2d_9">
      <path d="M 35.96 76.828282 
L 211 76.828282 
" clip-path="url(#p072ec359b4)" style="fill: none; stroke-dasharray: 2.96,1.28; stroke-dashoffset: 0; stroke: var(--grid-color); stroke-width: 0.8"/>
     </g>
     <g id="line2d_10">
      <g>
       <use xlink:href="#mc84c387a06" x="35.96" y="76.828282" style="fill: var(--fg-color); stroke: var(--fg-color); stroke-width: 0.8"/>
      </g>
     </g>
     <g id="text_5">
      <text style="font-size: 7px; font-family: 'DejaVu Sans', 'Bitstream Vera Sans', 'Computer Modern Sans Serif', 'Lucida Grande', 'Verdana', 'Geneva', 'Lucid', 'Arial', 'Helvetica', 'Avant Garde', sans-serif; text-anchor: end; fill: var(--fg-color)" x="28.96" y="79.487462" transform="rotate(-0 28.96 79.487462)">50</text>
     </g>
    </g>
    <g id="ytick_3">
     <g id="line2d_11">
      <path d="M 35.96 53.799517 
L 211 53.799517 
" clip-path="url(#p072ec359b4)" style="fill: none; stroke-dasharray: 2.96,1.28; stroke-dashoffset: 0; stroke: var(--grid-color); stroke-width: 0.8"/>
     </g>
     <g id="line2d_12">
      <g>
       <use xlink:href="#mc84c387a06" x="35.96" y="53.799517" style="fill: var(--fg-color); stroke: var(--fg-color); stroke-width: 0.8"/>
      </g>
     </g>
     <g id="text_6">
      <text style="font-size: 7px; font-family: 'DejaVu Sans', 'Bitstream Vera Sans', 'Computer Modern Sans Serif', 'Lucida Grande', 'Verdana', 'Geneva', 'Lucid', 'Arial', 'Helvetica', 'Avant Garde', sans-serif; text-anchor: end; fill: var(--fg-color)" x="28.96" y="56.458696" transform="rotate(-0 28.96 56.458696)">100</text>
     </g>
    </g>
    <g id="ytick_4">
     <g id="line2d_13">
      <path d="M 35.96 30.770751 
L 211 30.770751 
" clip-path="url(#p072ec359b4)" style="fill: none; stroke-dasharray: 2.96,1.28; stroke-dashoffset: 0; stroke: var(--grid-color); stroke-width: 0.8"/>
     </g>
     <g id="line2d_14">
      <g>
       <use xlink:href="#mc84c387a06" x="35.96" y="30.770751" style="fill: var(--fg-color); stroke: var(--fg-color); stroke-width: 0.8"/>
      </g>
     </g>
     <g id="text_7">
      <text style="font-size: 7px; font-family: 'DejaVu Sans', 'Bitstream Vera Sans', 'Computer Modern Sans Serif', 'Lucida Grande', 'Verdana', 'Geneva', 'Lucid', 'Arial', 'Helvetica', 'Avant Garde', sans-serif; text-anchor: end; fill: var(--fg-color)" x="28.96" y="33.429931" transform="rotate(-0 28.96 33.429931)">150</text>
     </g>
    </g>
    <g id="ytick_5">
     <g id="line2d_15">
      <path d="M 35.96 7.741986 
L 211 7.741986 
" clip-path="url(#p072ec359b4)" style="fill: none; stroke-dasharray: 2.96,1.28; stroke-dashoffset: 0; stroke: var(--grid-color); stroke-width: 0.8"/>
     </g>
     <g id="line2d_16">
      <g>
       <use xlink:href="#mc84c387a06" x="35.96" y="7.741986" style="fill: var(--fg-color); stroke: var(--fg-color); stroke-width: 0.8"/>
      </g>
     </g>
     <g id="text_8">
      <text style="font-size: 7px; font-family: 'DejaVu Sans', 'Bitstream Vera Sans', 'Computer Modern Sans Serif', 'Lucida Grande', 'Verdana', 'Geneva', 'Lucid', 'Arial', 'Helvetica', 'Avant Garde', sans-serif; text-anchor: end; fill: var(--fg-color)" x="28.96" y="10.401165" transform="rotate(-0 28.96 10.401165)">200</text>
     </g>
    </g>
    <g id="text_9">
     <text style="font-size: 7px; font-family: 'DejaVu Sans', 'Bitstream Vera Sans', 'Computer Modern Sans Serif', 'Lucida Grande', 'Verdana', 'Geneva', 'Lucid', 'Arial', 'Helvetica', 'Avant Garde', sans-serif; text-anchor: middle; fill: var(--fg-color)" x="9.917109" y="54.456988" transform="rotate(-90 9.917109 54.456988)">ms</text>
    </g>
   </g>
   <g id="line2d_17">
    <path d="M 43.916364 44.553928 
L 44.468628 45.258608 
L 45.3595 46.597961 
L 46.250371 50.404155 
L 47.141245 43.780622 
L 48.032112 44.576035 
L 48.922979 48.602845 
L 49.81384 49.565448 
L 50.704717 48.712923 
L 51.595589 48.4223 
L 52.486458 45.128265 
L 53.377327 41.311478 
L 54.268192 40.203794 
L 55.159063 38.464662 
L 56.049934 49.476096 
L 56.940797 45.581471 
L 57.831669 34.186838 
L 58.722538 40.449741 
L 59.613407 29.122813 
L 60.504275 36.187117 
L 61.395144 30.504999 
L 62.286016 44.462734 
L 63.176879 34.833486 
L 64.067746 42.417319 
L 64.958622 41.749024 
L 65.84949 47.96633 
L 66.740361 32.01845 
L 67.631226 36.543142 
L 68.522078 32.953878 
L 69.412965 37.50252 
L 70.30383 46.297666 
L 71.194705 35.943012 
L 72.085571 34.177627 
L 72.976442 38.516246 
L 73.867306 37.572067 
L 74.758184 42.756763 
L 75.649039 35.687853 
L 76.539914 36.210606 
L 77.430784 30.150356 
L 78.321655 41.773435 
L 79.212509 26.771576 
L 80.103391 45.842618 
L 80.994245 35.792404 
L 81.885129 44.493592 
L 82.775998 44.913637 
L 83.666869 38.174499 
L 84.557735 46.727843 
L 85.44861 41.774356 
L 94.53997 31.488327 
L 95.248438 32.462444 
L 96.139324 27.934989 
L 97.030192 33.86766 
L 97.921065 18.97772 
L 98.811931 9.96334 
L 99.702798 46.274637 
L 100.593666 40.781816 
L 101.484533 49.426354 
L 102.375401 44.85146 
L 103.266272 36.31009 
L 104.157138 50.270128 
L 105.048009 43.656727 
L 105.93888 45.469091 
L 106.829748 49.630849 
L 107.720614 42.328889 
L 108.611487 45.182153 
L 109.502352 47.344554 
L 110.393224 47.464303 
L 111.284094 48.040944 
L 112.17496 44.998383 
L 113.065834 45.83617 
L 113.956695 47.993965 
L 114.847564 45.506398 
L 115.738441 45.359474 
L 116.629309 40.026473 
L 117.520178 48.685749 
L 118.41104 42.831837 
L 119.301913 39.699925 
L 120.192782 44.559455 
L 121.083649 41.037896 
L 121.97452 45.215314 
L 125.537994 47.264874 
L 126.428869 42.140513 
L 127.319734 46.192655 
L 128.210603 39.391339 
L 129.101474 38.368862 
L 129.992342 41.223968 
L 130.883214 38.901287 
L 131.774065 44.069863 
L 132.664946 44.053282 
L 133.55582 43.894845 
L 134.446686 38.301618 
L 135.337558 39.03992 
L 136.228424 44.597222 
L 137.119294 35.68509 
L 138.010159 42.884342 
L 138.901032 26.520102 
L 139.791912 42.607537 
L 140.68277 44.406083 
L 141.57364 34.632215 
L 142.464507 38.934909 
L 143.355376 41.490181 
L 144.246246 43.423676 
L 145.137113 32.596932 
L 146.027984 31.239617 
L 146.918849 34.71696 
L 173.644977 34.71696 
L 181.959197 42.856708 
L 182.553652 35.513756 
L 183.444521 38.66363 
L 184.335387 34.389952 
L 185.226256 33.321417 
L 186.117131 39.266523 
L 187.007996 23.230673 
L 187.898864 27.909657 
L 188.789731 33.428731 
L 189.680603 28.263379 
L 190.571474 38.561383 
L 191.462343 33.788901 
L 192.353215 34.043599 
L 194.134949 24.924669 
L 195.025817 35.656995 
L 195.916688 36.471292 
L 196.807557 38.622178 
L 197.698426 36.769745 
L 198.589295 33.998463 
L 199.480162 36.949369 
L 200.371032 36.783562 
L 201.261898 41.594731 
L 202.152766 38.139035 
L 203.043636 42.500683 
L 203.043636 42.500683 
" clip-path="url(#p072ec359b4)" style="fill: none; stroke: #339af0; stroke-width: 1.2; stroke-linecap: square"/>
   </g>
   <g id="line2d_18">
    <path d="M 43.916364 98.863126 
L 58.722538 98.855296 
L 59.613407 98.136338 
L 60.504275 98.885234 
L 64.067746 98.912868 
L 64.958622 98.832267 
L 65.84949 98.92208 
L 66.740361 98.833649 
L 70.30383 98.943266 
L 72.085571 98.843782 
L 72.976442 98.945108 
L 74.758184 98.841939 
L 80.103391 98.937739 
L 80.994245 98.860362 
L 82.775998 98.923461 
L 83.666869 98.853454 
L 84.557735 98.924382 
L 85.44861 98.872337 
L 101.484533 98.926685 
L 102.375401 98.055277 
L 103.266272 98.912408 
L 112.17496 98.823977 
L 113.065834 98.466571 
L 113.956695 98.871416 
L 120.192782 98.812923 
L 121.97452 98.789894 
L 127.319734 98.857599 
L 128.210603 97.969149 
L 129.101474 98.774695 
L 130.883214 98.813844 
L 134.446686 98.813844 
L 136.228424 98.817529 
L 138.901032 98.824438 
L 139.791912 98.870035 
L 140.68277 98.767787 
L 144.246246 98.823056 
L 145.137113 98.724493 
L 146.027984 97.8973 
L 146.918849 98.80233 
L 191.462343 98.89859 
L 193.244077 98.886155 
L 194.134949 98.812002 
L 197.698426 98.875101 
L 199.480162 98.885694 
L 200.371032 98.905499 
L 201.261898 98.806475 
L 202.152766 98.875101 
L 203.043636 98.798645 
L 203.043636 98.798645 
" clip-path="url(#p072ec359b4)" style="fill: none; stroke: #ff6b6b; stroke-width: 1.2; stroke-linecap: square"/>
   </g>
   <g id="patch_3">
    <path d="M 35.96 103.4 
L 35.96 5.513976 
" style="fill: none; stroke: var(--fg-color); stroke-width: 0.8; stroke-linejoin: miter; stroke-linecap: square"/>
   </g>
   <g id="patch_4">
    <path d="M 35.96 103.4 
L 211 103.4 
" style="fill: none; stroke: var(--fg-color); stroke-width: 0.8; stroke-linejoin: miter; stroke-linecap: square"/>
   </g>
  </g>
 </g>
 <defs>
  <clipPath id="p072ec359b4">
   <rect x="35.96" y="5.513976" width="175.04" height="97.886024"/>
  </clipPath>
 </defs>
</svg>
