<?xml version="1.0" encoding="utf-8" standalone="no"?>
<!DOCTYPE svg PUBLIC "-//W3C//DTD SVG 1.1//EN"
  "http://www.w3.org/Graphics/SVG/1.1/DTD/svg11.dtd">
<svg xmlns:xlink="http://www.w3.org/1999/xlink" width="216pt" height="122.4pt" viewBox="0 0 216 122.4" xmlns="http://www.w3.org/2000/svg" version="1.1">
  <style>
    :root {
      --fg-color: #212529;
      --grid-color: rgba(33, 37, 41, 0.1);
    }
    @media (prefers-color-scheme: dark) {
      :root {
        --fg-color: #dee2e6;
        --grid-color: rgba(248, 249, 250, 0.15);
      }
    }
  </style>

 <metadata>
  <rdf:RDF xmlns:dc="http://purl.org/dc/elements/1.1/" xmlns:cc="http://creativecommons.org/ns#" xmlns:rdf="http://www.w3.org/1999/02/22-rdf-syntax-ns#">
   <cc:Work>
    <dc:type rdf:resource="http://purl.org/dc/dcmitype/StillImage"/>
    <dc:date>2026-06-30T15:37:41.565797</dc:date>
    <dc:format>image/svg+xml</dc:format>
    <dc:creator>
     <cc:Agent>
      <dc:title>Matplotlib v3.11.0, https://matplotlib.org/</dc:title>
     </cc:Agent>
    </dc:creator>
   </cc:Work>
  </rdf:RDF>
 </metadata>
 <defs>
  <style type="text/css">*{stroke-linejoin: round; stroke-linecap: butt}</style>
 </defs>
 <g id="figure_1">
  <g id="patch_1">
   <path d="M 0 122.4 
L 216 122.4 
L 216 0 
L 0 0 
L 0 122.4 
z
" style="fill: none; opacity: 0"/>
  </g>
  <g id="axes_1">
   <g id="patch_2">
    <path d="M 35.96 103.4 
L 211 103.4 
L 211 7.202679 
L 35.96 7.202679 
L 35.96 103.4 
z
" style="fill: none; opacity: 0"/>
   </g>
   <g id="matplotlib.axis_1">
    <g id="xtick_1">
     <g id="line2d_1">
      <path d="M 69.784035 103.4 
L 69.784035 7.202679 
" clip-path="url(#pc679ad7a7f)" style="fill: none; stroke-dasharray: 2.96,1.28; stroke-dashoffset: 0; stroke: var(--grid-color); stroke-width: 0.8"/>
     </g>
     <g id="line2d_2">
      <defs>
       <path id="m4882839905" d="M 0 0 
L 0 3.5 
" style="stroke: var(--fg-color); stroke-width: 0.8"/>
      </defs>
      <g>
       <use xlink:href="#m4882839905" x="69.784035" y="103.4" style="fill: var(--fg-color); stroke: var(--fg-color); stroke-width: 0.8"/>
      </g>
     </g>
     <g id="text_1">
      <text style="font-size: 7px; font-family: 'DejaVu Sans', 'Bitstream Vera Sans', 'Computer Modern Sans Serif', 'Lucida Grande', 'Verdana', 'Geneva', 'Lucid', 'Arial', 'Helvetica', 'Avant Garde', sans-serif; text-anchor: middle; fill: var(--fg-color)" x="69.784035" y="115.718359" transform="rotate(-0 69.784035 115.718359)">02/2026</text>
     </g>
    </g>
    <g id="xtick_2">
     <g id="line2d_3">
      <path d="M 122.345302 103.4 
L 122.345302 7.202679 
" clip-path="url(#pc679ad7a7f)" style="fill: none; stroke-dasharray: 2.96,1.28; stroke-dashoffset: 0; stroke: var(--grid-color); stroke-width: 0.8"/>
     </g>
     <g id="line2d_4">
      <g>
       <use xlink:href="#m4882839905" x="122.345302" y="103.4" style="fill: var(--fg-color); stroke: var(--fg-color); stroke-width: 0.8"/>
      </g>
     </g>
     <g id="text_2">
      <text style="font-size: 7px; font-family: 'DejaVu Sans', 'Bitstream Vera Sans', 'Computer Modern Sans Serif', 'Lucida Grande', 'Verdana', 'Geneva', 'Lucid', 'Arial', 'Helvetica', 'Avant Garde', sans-serif; text-anchor: middle; fill: var(--fg-color)" x="122.345302" y="115.718359" transform="rotate(-0 122.345302 115.718359)">04/2026</text>
     </g>
    </g>
    <g id="xtick_3">
     <g id="line2d_5">
      <path d="M 176.688307 103.4 
L 176.688307 7.202679 
" clip-path="url(#pc679ad7a7f)" style="fill: none; stroke-dasharray: 2.96,1.28; stroke-dashoffset: 0; stroke: var(--grid-color); stroke-width: 0.8"/>
     </g>
     <g id="line2d_6">
      <g>
       <use xlink:href="#m4882839905" x="176.688307" y="103.4" style="fill: var(--fg-color); stroke: var(--fg-color); stroke-width: 0.8"/>
      </g>
     </g>
     <g id="text_3">
      <text style="font-size: 7px; font-family: 'DejaVu Sans', 'Bitstream Vera Sans', 'Computer Modern Sans Serif', 'Lucida Grande', 'Verdana', 'Geneva', 'Lucid', 'Arial', 'Helvetica', 'Avant Garde', sans-serif; text-anchor: middle; fill: var(--fg-color)" x="176.688307" y="115.718359" transform="rotate(-0 176.688307 115.718359)">06/2026</text>
     </g>
    </g>
   </g>
   <g id="matplotlib.axis_2">
    <g id="ytick_1">
     <g id="line2d_7">
      <path d="M 35.96 100.419398 
L 211 100.419398 
" clip-path="url(#pc679ad7a7f)" style="fill: none; stroke-dasharray: 2.96,1.28; stroke-dashoffset: 0; stroke: var(--grid-color); stroke-width: 0.8"/>
     </g>
     <g id="line2d_8">
      <defs>
       <path id="m2cc9e1b04b" d="M 0 0 
L -3.5 0 
" style="stroke: var(--fg-color); stroke-width: 0.8"/>
      </defs>
      <g>
       <use xlink:href="#m2cc9e1b04b" x="35.96" y="100.419398" style="fill: var(--fg-color); stroke: var(--fg-color); stroke-width: 0.8"/>
      </g>
     </g>
     <g id="text_4">
      <text style="font-size: 7px; font-family: 'DejaVu Sans', 'Bitstream Vera Sans', 'Computer Modern Sans Serif', 'Lucida Grande', 'Verdana', 'Geneva', 'Lucid', 'Arial', 'Helvetica', 'Avant Garde', sans-serif; text-anchor: end; fill: var(--fg-color)" x="28.96" y="103.078578" transform="rotate(-0 28.96 103.078578)">0</text>
     </g>
    </g>
    <g id="ytick_2">
     <g id="line2d_9">
      <path d="M 35.96 81.869243 
L 211 81.869243 
" clip-path="url(#pc679ad7a7f)" style="fill: none; stroke-dasharray: 2.96,1.28; stroke-dashoffset: 0; stroke: var(--grid-color); stroke-width: 0.8"/>
     </g>
     <g id="line2d_10">
      <g>
       <use xlink:href="#m2cc9e1b04b" x="35.96" y="81.869243" style="fill: var(--fg-color); stroke: var(--fg-color); stroke-width: 0.8"/>
      </g>
     </g>
     <g id="text_5">
      <text style="font-size: 7px; font-family: 'DejaVu Sans', 'Bitstream Vera Sans', 'Computer Modern Sans Serif', 'Lucida Grande', 'Verdana', 'Geneva', 'Lucid', 'Arial', 'Helvetica', 'Avant Garde', sans-serif; text-anchor: end; fill: var(--fg-color)" x="28.96" y="84.528422" transform="rotate(-0 28.96 84.528422)">25</text>
     </g>
    </g>
    <g id="ytick_3">
     <g id="line2d_11">
      <path d="M 35.96 63.319087 
L 211 63.319087 
" clip-path="url(#pc679ad7a7f)" style="fill: none; stroke-dasharray: 2.96,1.28; stroke-dashoffset: 0; stroke: var(--grid-color); stroke-width: 0.8"/>
     </g>
     <g id="line2d_12">
      <g>
       <use xlink:href="#m2cc9e1b04b" x="35.96" y="63.319087" style="fill: var(--fg-color); stroke: var(--fg-color); stroke-width: 0.8"/>
      </g>
     </g>
     <g id="text_6">
      <text style="font-size: 7px; font-family: 'DejaVu Sans', 'Bitstream Vera Sans', 'Computer Modern Sans Serif', 'Lucida Grande', 'Verdana', 'Geneva', 'Lucid', 'Arial', 'Helvetica', 'Avant Garde', sans-serif; text-anchor: end; fill: var(--fg-color)" x="28.96" y="65.978267" transform="rotate(-0 28.96 65.978267)">50</text>
     </g>
    </g>
    <g id="ytick_4">
     <g id="line2d_13">
      <path d="M 35.96 44.768932 
L 211 44.768932 
" clip-path="url(#pc679ad7a7f)" style="fill: none; stroke-dasharray: 2.96,1.28; stroke-dashoffset: 0; stroke: var(--grid-color); stroke-width: 0.8"/>
     </g>
     <g id="line2d_14">
      <g>
       <use xlink:href="#m2cc9e1b04b" x="35.96" y="44.768932" style="fill: var(--fg-color); stroke: var(--fg-color); stroke-width: 0.8"/>
      </g>
     </g>
     <g id="text_7">
      <text style="font-size: 7px; font-family: 'DejaVu Sans', 'Bitstream Vera Sans', 'Computer Modern Sans Serif', 'Lucida Grande', 'Verdana', 'Geneva', 'Lucid', 'Arial', 'Helvetica', 'Avant Garde', sans-serif; text-anchor: end; fill: var(--fg-color)" x="28.96" y="47.428112" transform="rotate(-0 28.96 47.428112)">75</text>
     </g>
    </g>
    <g id="ytick_5">
     <g id="line2d_15">
      <path d="M 35.96 26.218777 
L 211 26.218777 
" clip-path="url(#pc679ad7a7f)" style="fill: none; stroke-dasharray: 2.96,1.28; stroke-dashoffset: 0; stroke: var(--grid-color); stroke-width: 0.8"/>
     </g>
     <g id="line2d_16">
      <g>
       <use xlink:href="#m2cc9e1b04b" x="35.96" y="26.218777" style="fill: var(--fg-color); stroke: var(--fg-color); stroke-width: 0.8"/>
      </g>
     </g>
     <g id="text_8">
      <text style="font-size: 7px; font-family: 'DejaVu Sans', 'Bitstream Vera Sans', 'Computer Modern Sans Serif', 'Lucida Grande', 'Verdana', 'Geneva', 'Lucid', 'Arial', 'Helvetica', 'Avant Garde', sans-serif; text-anchor: end; fill: var(--fg-color)" x="28.96" y="28.877956" transform="rotate(-0 28.96 28.877956)">100</text>
     </g>
    </g>
    <g id="ytick_6">
     <g id="line2d_17">
      <path d="M 35.96 7.668621 
L 211 7.668621 
" clip-path="url(#pc679ad7a7f)" style="fill: none; stroke-dasharray: 2.96,1.28; stroke-dashoffset: 0; stroke: var(--grid-color); stroke-width: 0.8"/>
     </g>
     <g id="line2d_18">
      <g>
       <use xlink:href="#m2cc9e1b04b" x="35.96" y="7.668621" style="fill: var(--fg-color); stroke: var(--fg-color); stroke-width: 0.8"/>
      </g>
     </g>
     <g id="text_9">
      <text style="font-size: 7px; font-family: 'DejaVu Sans', 'Bitstream Vera Sans', 'Computer Modern Sans Serif', 'Lucida Grande', 'Verdana', 'Geneva', 'Lucid', 'Arial', 'Helvetica', 'Avant Garde', sans-serif; text-anchor: end; fill: var(--fg-color)" x="28.96" y="10.327801" transform="rotate(-0 28.96 10.327801)">125</text>
     </g>
    </g>
    <g id="text_10">
     <text style="font-size: 7px; font-family: 'DejaVu Sans', 'Bitstream Vera Sans', 'Computer Modern Sans Serif', 'Lucida Grande', 'Verdana', 'Geneva', 'Lucid', 'Arial', 'Helvetica', 'Avant Garde', sans-serif; text-anchor: middle; fill: var(--fg-color)" x="9.917109" y="55.301339" transform="rotate(-90 9.917109 55.301339)">ms</text>
    </g>
   </g>
   <g id="line2d_19">
    <path d="M 43.916364 44.670987 
L 44.468628 45.071671 
L 45.3595 42.300277 
L 46.250371 44.171617 
L 47.141245 43.28121 
L 48.032112 45.841131 
L 48.922979 47.489869 
L 49.81384 43.79171 
L 50.704717 42.80039 
L 51.595589 42.065061 
L 52.486458 47.403054 
L 53.377327 43.228527 
L 55.159063 46.720408 
L 56.049934 43.609918 
L 56.940797 46.22178 
L 57.831669 41.595372 
L 58.722538 43.465227 
L 59.613407 43.914141 
L 60.504275 43.235205 
L 61.395144 39.434649 
L 63.176879 47.133706 
L 64.067746 43.141712 
L 64.958622 45.50426 
L 65.84949 41.516719 
L 66.740361 46.803513 
L 67.631226 48.030791 
L 68.522078 44.771158 
L 69.412965 43.973501 
L 70.30383 40.88453 
L 71.194705 42.312892 
L 72.085571 41.884012 
L 72.976442 48.185871 
L 73.867306 40.727224 
L 74.758184 45.075381 
L 75.649039 43.206267 
L 76.539914 43.592852 
L 77.430784 38.366161 
L 78.321655 42.078418 
L 79.212509 40.609987 
L 80.103391 24.331113 
L 80.994245 41.444002 
L 81.885129 44.521844 
L 82.775998 46.561619 
L 83.666869 41.789777 
L 84.557735 39.706224 
L 85.44861 44.675439 
L 94.53997 11.575284 
L 95.248438 12.450851 
L 96.139324 22.231235 
L 97.030192 17.26202 
L 97.921065 41.399482 
L 98.811931 37.14556 
L 99.702798 43.932691 
L 100.593666 46.827257 
L 101.484533 43.679667 
L 102.375401 43.559462 
L 103.266272 46.185422 
L 104.157138 44.140453 
L 105.048009 47.237587 
L 105.93888 42.265403 
L 106.829748 46.591299 
L 107.720614 46.810191 
L 108.611487 42.148908 
L 109.502352 43.74348 
L 110.393224 44.175327 
L 111.284094 43.531266 
L 112.17496 39.945892 
L 113.065834 38.967928 
L 113.956695 40.20411 
L 114.847564 45.009342 
L 115.738441 41.131618 
L 116.629309 44.924011 
L 117.520178 37.985511 
L 118.41104 45.151065 
L 119.301913 40.21153 
L 120.192782 47.502483 
L 121.97452 39.21279 
L 125.537994 41.510783 
L 126.428869 42.472423 
L 127.319734 41.313409 
L 128.210603 37.002353 
L 129.101474 41.159814 
L 129.992342 41.400966 
L 130.883214 39.352287 
L 131.774065 36.094879 
L 132.664946 42.939145 
L 133.55582 37.87421 
L 134.446686 44.695474 
L 135.337558 40.203368 
L 136.228424 41.101937 
L 137.119294 36.540825 
L 138.010159 38.918213 
L 138.901032 37.030549 
L 139.791912 40.538755 
L 140.68277 29.862769 
L 141.57364 37.824496 
L 142.464507 43.158779 
L 143.355376 36.607606 
L 144.246246 40.26347 
L 145.137113 40.814781 
L 146.027984 35.281641 
L 146.918849 39.895435 
L 173.644977 39.895435 
L 181.959197 41.297827 
L 182.553652 38.192531 
L 183.444521 44.424641 
L 184.335387 42.220141 
L 185.226256 35.589573 
L 186.117131 38.27341 
L 187.007996 40.523173 
L 187.898864 40.160332 
L 188.789731 38.171013 
L 189.680603 42.187493 
L 190.571474 43.166199 
L 191.462343 42.689831 
L 192.353215 37.344418 
L 193.244077 42.607468 
L 194.134949 41.692574 
L 195.025817 39.223178 
L 195.916688 40.456392 
L 196.807557 42.042059 
L 197.698426 41.346057 
L 198.589295 44.31334 
L 199.480162 42.721737 
L 200.371032 38.10349 
L 201.261898 43.957919 
L 202.152766 45.902718 
L 203.043636 40.944632 
L 203.043636 40.944632 
" clip-path="url(#pc679ad7a7f)" style="fill: none; stroke: #339af0; stroke-width: 1.2; stroke-linecap: square"/>
   </g>
   <g id="line2d_20">
    <path d="M 43.916364 98.954678 
L 46.250371 98.916836 
L 47.141245 98.94058 
L 48.032112 98.591095 
L 48.922979 98.976938 
L 49.81384 98.792921 
L 50.704717 98.890865 
L 51.595589 98.826311 
L 52.486458 98.97768 
L 54.268192 98.866379 
L 56.049934 98.934644 
L 56.940797 98.963582 
L 57.831669 98.877509 
L 58.722538 98.980648 
L 61.395144 98.894575 
L 64.067746 98.908673 
L 65.84949 98.881219 
L 66.740361 99.027394 
L 69.412965 98.839667 
L 70.30383 98.355879 
L 71.194705 98.838183 
L 72.085571 98.814439 
L 72.976442 99.017748 
L 74.758184 98.945032 
L 78.321655 98.879735 
L 80.103391 98.887897 
L 81.885129 98.922772 
L 82.775998 98.967292 
L 84.557735 98.834473 
L 85.44861 98.897543 
L 97.921065 98.852281 
L 98.811931 98.667521 
L 99.702798 98.849313 
L 102.375401 98.93316 
L 112.17496 98.846345 
L 113.065834 98.948742 
L 113.956695 98.205252 
L 114.847564 98.93687 
L 115.738441 98.850055 
L 117.520178 98.93687 
L 120.192782 98.794405 
L 121.97452 98.840409 
L 125.537994 98.075401 
L 126.428869 98.73356 
L 127.319734 98.747658 
L 128.210603 98.54138 
L 129.101474 98.804051 
L 129.992342 98.131793 
L 130.883214 98.623743 
L 131.774065 98.612613 
L 132.664946 98.833731 
L 136.228424 98.513184 
L 138.010159 98.7113 
L 138.901032 98.653423 
L 139.791912 98.812955 
L 140.68277 98.5488 
L 142.464507 98.730592 
L 145.137113 98.798857 
L 146.027984 98.154053 
L 146.918849 98.697202 
L 183.444521 98.805535 
L 184.335387 98.942064 
L 186.117131 98.75953 
L 187.007996 98.838925 
L 187.898864 98.68904 
L 188.789731 98.869347 
L 191.462343 98.906447 
L 192.353215 98.798115 
L 193.244077 98.939096 
L 194.134949 98.924256 
L 195.025817 98.775854 
L 195.916688 98.775112 
L 197.698426 98.935386 
L 198.589295 98.995488 
L 201.261898 98.786984 
L 202.152766 98.94058 
L 203.043636 98.870831 
L 203.043636 98.870831 
" clip-path="url(#pc679ad7a7f)" style="fill: none; stroke: #ff6b6b; stroke-width: 1.2; stroke-linecap: square"/>
   </g>
   <g id="patch_3">
    <path d="M 35.96 103.4 
L 35.96 7.202679 
" style="fill: none; stroke: var(--fg-color); stroke-width: 0.8; stroke-linejoin: miter; stroke-linecap: square"/>
   </g>
   <g id="patch_4">
    <path d="M 35.96 103.4 
L 211 103.4 
" style="fill: none; stroke: var(--fg-color); stroke-width: 0.8; stroke-linejoin: miter; stroke-linecap: square"/>
   </g>
  </g>
 </g>
 <defs>
  <clipPath id="pc679ad7a7f">
   <rect x="35.96" y="7.202679" width="175.04" height="96.197321"/>
  </clipPath>
 </defs>
</svg>
