<?xml version="1.0" encoding="utf-8" standalone="no"?>
<!DOCTYPE svg PUBLIC "-//W3C//DTD SVG 1.1//EN"
  "http://www.w3.org/Graphics/SVG/1.1/DTD/svg11.dtd">
<svg xmlns:xlink="http://www.w3.org/1999/xlink" width="216pt" height="122.4pt" viewBox="0 0 216 122.4" xmlns="http://www.w3.org/2000/svg" version="1.1">
  <style>
    :root {
      --fg-color: #212529;
      --grid-color: rgba(33, 37, 41, 0.1);
    }
    @media (prefers-color-scheme: dark) {
      :root {
        --fg-color: #dee2e6;
        --grid-color: rgba(248, 249, 250, 0.15);
      }
    }
  </style>

 <metadata>
  <rdf:RDF xmlns:dc="http://purl.org/dc/elements/1.1/" xmlns:cc="http://creativecommons.org/ns#" xmlns:rdf="http://www.w3.org/1999/02/22-rdf-syntax-ns#">
   <cc:Work>
    <dc:type rdf:resource="http://purl.org/dc/dcmitype/StillImage"/>
    <dc:date>2026-06-30T04:49:18.762580</dc:date>
    <dc:format>image/svg+xml</dc:format>
    <dc:creator>
     <cc:Agent>
      <dc:title>Matplotlib v3.11.0, https://matplotlib.org/</dc:title>
     </cc:Agent>
    </dc:creator>
   </cc:Work>
  </rdf:RDF>
 </metadata>
 <defs>
  <style type="text/css">*{stroke-linejoin: round; stroke-linecap: butt}</style>
 </defs>
 <g id="figure_1">
  <g id="patch_1">
   <path d="M 0 122.4 
L 216 122.4 
L 216 0 
L 0 0 
L 0 122.4 
z
" style="fill: none; opacity: 0"/>
  </g>
  <g id="axes_1">
   <g id="patch_2">
    <path d="M 35.96 103.4 
L 211 103.4 
L 211 5 
L 35.96 5 
L 35.96 103.4 
z
" style="fill: none; opacity: 0"/>
   </g>
   <g id="matplotlib.axis_1">
    <g id="xtick_1">
     <g id="line2d_1">
      <path d="M 72.056377 103.4 
L 72.056377 5 
" clip-path="url(#pa04284cbbf)" style="fill: none; stroke-dasharray: 2.96,1.28; stroke-dashoffset: 0; stroke: var(--grid-color); stroke-width: 0.8"/>
     </g>
     <g id="line2d_2">
      <defs>
       <path id="mfc47ae0b8d" d="M 0 0 
L 0 3.5 
" style="stroke: var(--fg-color); stroke-width: 0.8"/>
      </defs>
      <g>
       <use xlink:href="#mfc47ae0b8d" x="72.056377" y="103.4" style="fill: var(--fg-color); stroke: var(--fg-color); stroke-width: 0.8"/>
      </g>
     </g>
     <g id="text_1">
      <text style="font-size: 7px; font-family: 'DejaVu Sans', 'Bitstream Vera Sans', 'Computer Modern Sans Serif', 'Lucida Grande', 'Verdana', 'Geneva', 'Lucid', 'Arial', 'Helvetica', 'Avant Garde', sans-serif; text-anchor: middle; fill: var(--fg-color)" x="72.056377" y="115.718359" transform="rotate(-0 72.056377 115.718359)">02/2026</text>
     </g>
    </g>
    <g id="xtick_2">
     <g id="line2d_3">
      <path d="M 126.640628 103.4 
L 126.640628 5 
" clip-path="url(#pa04284cbbf)" style="fill: none; stroke-dasharray: 2.96,1.28; stroke-dashoffset: 0; stroke: var(--grid-color); stroke-width: 0.8"/>
     </g>
     <g id="line2d_4">
      <g>
       <use xlink:href="#mfc47ae0b8d" x="126.640628" y="103.4" style="fill: var(--fg-color); stroke: var(--fg-color); stroke-width: 0.8"/>
      </g>
     </g>
     <g id="text_2">
      <text style="font-size: 7px; font-family: 'DejaVu Sans', 'Bitstream Vera Sans', 'Computer Modern Sans Serif', 'Lucida Grande', 'Verdana', 'Geneva', 'Lucid', 'Arial', 'Helvetica', 'Avant Garde', sans-serif; text-anchor: middle; fill: var(--fg-color)" x="126.640628" y="115.718359" transform="rotate(-0 126.640628 115.718359)">04/2026</text>
     </g>
    </g>
    <g id="xtick_3">
     <g id="line2d_5">
      <path d="M 183.075192 103.4 
L 183.075192 5 
" clip-path="url(#pa04284cbbf)" style="fill: none; stroke-dasharray: 2.96,1.28; stroke-dashoffset: 0; stroke: var(--grid-color); stroke-width: 0.8"/>
     </g>
     <g id="line2d_6">
      <g>
       <use xlink:href="#mfc47ae0b8d" x="183.075192" y="103.4" style="fill: var(--fg-color); stroke: var(--fg-color); stroke-width: 0.8"/>
      </g>
     </g>
     <g id="text_3">
      <text style="font-size: 7px; font-family: 'DejaVu Sans', 'Bitstream Vera Sans', 'Computer Modern Sans Serif', 'Lucida Grande', 'Verdana', 'Geneva', 'Lucid', 'Arial', 'Helvetica', 'Avant Garde', sans-serif; text-anchor: middle; fill: var(--fg-color)" x="183.075192" y="115.718359" transform="rotate(-0 183.075192 115.718359)">06/2026</text>
     </g>
    </g>
   </g>
   <g id="matplotlib.axis_2">
    <g id="ytick_1">
     <g id="line2d_7">
      <path d="M 35.96 99.649914 
L 211 99.649914 
" clip-path="url(#pa04284cbbf)" style="fill: none; stroke-dasharray: 2.96,1.28; stroke-dashoffset: 0; stroke: var(--grid-color); stroke-width: 0.8"/>
     </g>
     <g id="line2d_8">
      <defs>
       <path id="mab53169609" d="M 0 0 
L -3.5 0 
" style="stroke: var(--fg-color); stroke-width: 0.8"/>
      </defs>
      <g>
       <use xlink:href="#mab53169609" x="35.96" y="99.649914" style="fill: var(--fg-color); stroke: var(--fg-color); stroke-width: 0.8"/>
      </g>
     </g>
     <g id="text_4">
      <text style="font-size: 7px; font-family: 'DejaVu Sans', 'Bitstream Vera Sans', 'Computer Modern Sans Serif', 'Lucida Grande', 'Verdana', 'Geneva', 'Lucid', 'Arial', 'Helvetica', 'Avant Garde', sans-serif; text-anchor: end; fill: var(--fg-color)" x="28.96" y="102.309094" transform="rotate(-0 28.96 102.309094)">0</text>
     </g>
    </g>
    <g id="ytick_2">
     <g id="line2d_9">
      <path d="M 35.96 85.027472 
L 211 85.027472 
" clip-path="url(#pa04284cbbf)" style="fill: none; stroke-dasharray: 2.96,1.28; stroke-dashoffset: 0; stroke: var(--grid-color); stroke-width: 0.8"/>
     </g>
     <g id="line2d_10">
      <g>
       <use xlink:href="#mab53169609" x="35.96" y="85.027472" style="fill: var(--fg-color); stroke: var(--fg-color); stroke-width: 0.8"/>
      </g>
     </g>
     <g id="text_5">
      <text style="font-size: 7px; font-family: 'DejaVu Sans', 'Bitstream Vera Sans', 'Computer Modern Sans Serif', 'Lucida Grande', 'Verdana', 'Geneva', 'Lucid', 'Arial', 'Helvetica', 'Avant Garde', sans-serif; text-anchor: end; fill: var(--fg-color)" x="28.96" y="87.686651" transform="rotate(-0 28.96 87.686651)">50</text>
     </g>
    </g>
    <g id="ytick_3">
     <g id="line2d_11">
      <path d="M 35.96 70.405029 
L 211 70.405029 
" clip-path="url(#pa04284cbbf)" style="fill: none; stroke-dasharray: 2.96,1.28; stroke-dashoffset: 0; stroke: var(--grid-color); stroke-width: 0.8"/>
     </g>
     <g id="line2d_12">
      <g>
       <use xlink:href="#mab53169609" x="35.96" y="70.405029" style="fill: var(--fg-color); stroke: var(--fg-color); stroke-width: 0.8"/>
      </g>
     </g>
     <g id="text_6">
      <text style="font-size: 7px; font-family: 'DejaVu Sans', 'Bitstream Vera Sans', 'Computer Modern Sans Serif', 'Lucida Grande', 'Verdana', 'Geneva', 'Lucid', 'Arial', 'Helvetica', 'Avant Garde', sans-serif; text-anchor: end; fill: var(--fg-color)" x="28.96" y="73.064209" transform="rotate(-0 28.96 73.064209)">100</text>
     </g>
    </g>
    <g id="ytick_4">
     <g id="line2d_13">
      <path d="M 35.96 55.782587 
L 211 55.782587 
" clip-path="url(#pa04284cbbf)" style="fill: none; stroke-dasharray: 2.96,1.28; stroke-dashoffset: 0; stroke: var(--grid-color); stroke-width: 0.8"/>
     </g>
     <g id="line2d_14">
      <g>
       <use xlink:href="#mab53169609" x="35.96" y="55.782587" style="fill: var(--fg-color); stroke: var(--fg-color); stroke-width: 0.8"/>
      </g>
     </g>
     <g id="text_7">
      <text style="font-size: 7px; font-family: 'DejaVu Sans', 'Bitstream Vera Sans', 'Computer Modern Sans Serif', 'Lucida Grande', 'Verdana', 'Geneva', 'Lucid', 'Arial', 'Helvetica', 'Avant Garde', sans-serif; text-anchor: end; fill: var(--fg-color)" x="28.96" y="58.441767" transform="rotate(-0 28.96 58.441767)">150</text>
     </g>
    </g>
    <g id="ytick_5">
     <g id="line2d_15">
      <path d="M 35.96 41.160145 
L 211 41.160145 
" clip-path="url(#pa04284cbbf)" style="fill: none; stroke-dasharray: 2.96,1.28; stroke-dashoffset: 0; stroke: var(--grid-color); stroke-width: 0.8"/>
     </g>
     <g id="line2d_16">
      <g>
       <use xlink:href="#mab53169609" x="35.96" y="41.160145" style="fill: var(--fg-color); stroke: var(--fg-color); stroke-width: 0.8"/>
      </g>
     </g>
     <g id="text_8">
      <text style="font-size: 7px; font-family: 'DejaVu Sans', 'Bitstream Vera Sans', 'Computer Modern Sans Serif', 'Lucida Grande', 'Verdana', 'Geneva', 'Lucid', 'Arial', 'Helvetica', 'Avant Garde', sans-serif; text-anchor: end; fill: var(--fg-color)" x="28.96" y="43.819324" transform="rotate(-0 28.96 43.819324)">200</text>
     </g>
    </g>
    <g id="ytick_6">
     <g id="line2d_17">
      <path d="M 35.96 26.537702 
L 211 26.537702 
" clip-path="url(#pa04284cbbf)" style="fill: none; stroke-dasharray: 2.96,1.28; stroke-dashoffset: 0; stroke: var(--grid-color); stroke-width: 0.8"/>
     </g>
     <g id="line2d_18">
      <g>
       <use xlink:href="#mab53169609" x="35.96" y="26.537702" style="fill: var(--fg-color); stroke: var(--fg-color); stroke-width: 0.8"/>
      </g>
     </g>
     <g id="text_9">
      <text style="font-size: 7px; font-family: 'DejaVu Sans', 'Bitstream Vera Sans', 'Computer Modern Sans Serif', 'Lucida Grande', 'Verdana', 'Geneva', 'Lucid', 'Arial', 'Helvetica', 'Avant Garde', sans-serif; text-anchor: end; fill: var(--fg-color)" x="28.96" y="29.196882" transform="rotate(-0 28.96 29.196882)">250</text>
     </g>
    </g>
    <g id="ytick_7">
     <g id="line2d_19">
      <path d="M 35.96 11.91526 
L 211 11.91526 
" clip-path="url(#pa04284cbbf)" style="fill: none; stroke-dasharray: 2.96,1.28; stroke-dashoffset: 0; stroke: var(--grid-color); stroke-width: 0.8"/>
     </g>
     <g id="line2d_20">
      <g>
       <use xlink:href="#mab53169609" x="35.96" y="11.91526" style="fill: var(--fg-color); stroke: var(--fg-color); stroke-width: 0.8"/>
      </g>
     </g>
     <g id="text_10">
      <text style="font-size: 7px; font-family: 'DejaVu Sans', 'Bitstream Vera Sans', 'Computer Modern Sans Serif', 'Lucida Grande', 'Verdana', 'Geneva', 'Lucid', 'Arial', 'Helvetica', 'Avant Garde', sans-serif; text-anchor: end; fill: var(--fg-color)" x="28.96" y="14.57444" transform="rotate(-0 28.96 14.57444)">300</text>
     </g>
    </g>
    <g id="text_11">
     <text style="font-size: 7px; font-family: 'DejaVu Sans', 'Bitstream Vera Sans', 'Computer Modern Sans Serif', 'Lucida Grande', 'Verdana', 'Geneva', 'Lucid', 'Arial', 'Helvetica', 'Avant Garde', sans-serif; text-anchor: middle; fill: var(--fg-color)" x="9.917109" y="54.2" transform="rotate(-90 9.917109 54.2)">ms</text>
    </g>
   </g>
   <g id="line2d_21">
    <path d="M 43.916364 36.865533 
L 45.193108 32.966898 
L 45.766628 41.051646 
L 46.691788 38.216647 
L 47.616947 36.885712 
L 48.542109 42.638474 
L 49.467263 38.695093 
L 50.392418 37.12786 
L 51.317566 38.567878 
L 52.242732 35.61005 
L 53.167891 33.076274 
L 54.093049 38.789847 
L 55.018206 32.500149 
L 55.943359 39.917822 
L 56.868517 37.033399 
L 57.793676 38.437738 
L 58.718827 38.753583 
L 59.643987 38.506464 
L 60.569143 38.435691 
L 61.494301 39.163596 
L 62.419457 37.441365 
L 63.344613 31.956195 
L 64.269773 37.441073 
L 65.194924 33.471664 
L 66.120079 36.812893 
L 67.045243 39.81254 
L 67.970398 44.903197 
L 68.895557 34.532084 
L 69.82071 39.362462 
L 70.74585 34.12558 
L 71.671025 38.491549 
L 72.596178 40.389249 
L 73.521341 36.816987 
L 74.446495 35.722936 
L 75.371653 35.161434 
L 76.296805 35.24332 
L 77.221971 41.497631 
L 78.147114 30.703929 
L 79.072277 32.772127 
L 79.997435 32.499272 
L 80.922594 33.562031 
L 81.847735 35.634909 
L 82.772905 36.181203 
L 83.698046 38.834007 
L 84.623219 39.966076 
L 85.548376 42.818914 
L 86.473535 38.288297 
L 87.398688 42.54606 
L 88.323852 38.003452 
L 97.76512 29.995325 
L 98.500856 34.150438 
L 99.426031 20.326674 
L 100.351186 9.472727 
L 101.276348 28.659126 
L 102.201502 30.821493 
L 103.126656 36.21308 
L 104.051812 39.373575 
L 104.976967 38.992514 
L 105.902123 36.839798 
L 106.827282 23.507055 
L 107.752435 33.218111 
L 108.677594 34.515707 
L 109.602753 37.999065 
L 110.527909 23.461433 
L 111.453063 30.539865 
L 112.378223 29.063583 
L 113.303377 24.045161 
L 114.228537 27.995267 
L 115.153695 32.733231 
L 116.078848 24.066802 
L 117.004011 32.968945 
L 117.929158 30.801607 
L 118.854316 27.953447 
L 119.779481 36.504359 
L 120.704637 34.372407 
L 121.629794 30.715334 
L 122.554943 24.463363 
L 123.480104 31.557587 
L 124.405261 33.069255 
L 125.330416 23.938417 
L 126.255574 30.800729 
L 129.9562 34.131722 
L 130.881363 36.25841 
L 131.806516 35.75803 
L 132.731673 30.043579 
L 133.656831 18.425464 
L 134.581987 33.443882 
L 135.507147 28.656787 
L 136.432285 35.838453 
L 137.357455 40.097386 
L 138.282617 25.166702 
L 139.20777 29.085809 
L 140.13293 33.180093 
L 141.058084 18.447105 
L 141.983242 14.284096 
L 142.908395 34.556357 
L 143.833556 37.467393 
L 144.758724 25.714459 
L 145.683869 33.123065 
L 146.609028 29.573906 
L 147.534182 30.801314 
L 148.459339 30.658599 
L 149.384497 33.58455 
L 150.309651 35.536938 
L 151.234811 30.087446 
L 152.159963 29.448446 
L 179.91473 29.448446 
L 188.548948 15.479042 
L 189.166282 31.322165 
L 190.091439 19.00656 
L 191.016594 29.488511 
L 191.94175 10.222859 
L 192.866913 37.98766 
L 193.792066 34.026147 
L 194.717222 32.108268 
L 195.642377 22.166469 
L 196.567536 20.023697 
L 197.492695 30.838748 
L 198.417852 13.466701 
L 199.343013 18.983164 
L 200.268162 33.386269 
L 201.193322 40.558285 
L 202.118478 30.284557 
L 203.043636 31.111017 
" clip-path="url(#pa04284cbbf)" style="fill: none; stroke: #339af0; stroke-width: 1.2; stroke-linecap: square"/>
   </g>
   <g id="line2d_22">
    <path d="M 43.916364 98.866736 
L 45.193108 98.776369 
L 45.766628 98.868491 
L 46.691788 98.853868 
L 47.616947 98.852406 
L 48.542109 98.869953 
L 49.467263 98.848604 
L 50.392418 98.862057 
L 51.317566 98.849189 
L 52.242732 98.804737 
L 53.167891 98.793624 
L 54.093049 98.831057 
L 55.018206 98.862349 
L 55.943359 98.880773 
L 56.868517 98.806784 
L 57.793676 98.862057 
L 58.718827 98.879311 
L 59.643987 98.875802 
L 60.569143 98.844217 
L 61.494301 98.85767 
L 62.419457 98.861764 
L 63.344613 98.854161 
L 64.269773 98.827548 
L 65.194924 98.829595 
L 66.120079 98.841585 
L 67.045243 98.584523 
L 67.970398 98.889547 
L 68.895557 98.885745 
L 69.82071 98.840708 
L 70.74585 98.811463 
L 71.671025 98.846557 
L 72.596178 98.851821 
L 73.521341 98.845679 
L 74.446495 98.843925 
L 75.371653 98.814387 
L 76.296805 98.821699 
L 77.221971 98.854161 
L 78.147114 98.777539 
L 79.072277 98.860594 
L 79.997435 98.838953 
L 80.922594 98.824623 
L 81.847735 98.822284 
L 82.772905 98.915282 
L 83.698046 98.893934 
L 84.623219 98.917914 
L 85.548376 98.919377 
L 86.473535 98.882528 
L 87.398688 98.888669 
L 88.323852 98.90183 
L 97.76512 98.870538 
L 98.500856 98.927273 
L 99.426031 98.779001 
L 100.351186 98.853283 
L 101.276348 98.87083 
L 102.201502 98.839831 
L 103.126656 98.841 
L 104.051812 98.879019 
L 104.976967 98.87317 
L 105.902123 98.854745 
L 106.827282 98.697408 
L 107.752435 98.861179 
L 108.677594 98.923763 
L 109.602753 98.898905 
L 110.527909 98.814387 
L 111.453063 98.779586 
L 112.378223 98.851236 
L 113.303377 98.828133 
L 114.228537 98.876972 
L 115.153695 98.847434 
L 116.078848 98.847727 
L 117.004011 98.795963 
L 117.929158 98.891009 
L 118.854316 98.870538 
L 119.779481 98.243235 
L 120.704637 98.722851 
L 121.629794 98.860009 
L 122.554943 98.853868 
L 123.480104 98.777246 
L 124.405261 98.674889 
L 125.330416 98.776369 
L 126.255574 98.725775 
L 129.9562 98.771397 
L 130.881363 98.835736 
L 131.806516 98.831057 
L 132.731673 98.826963 
L 133.656831 98.812048 
L 134.581987 98.845972 
L 135.507147 98.755605 
L 136.432285 98.775784 
L 137.357455 98.796548 
L 138.282617 98.851236 
L 139.20777 98.759407 
L 140.13293 98.808831 
L 141.058084 98.790407 
L 141.983242 98.808538 
L 142.908395 98.83135 
L 143.833556 98.765841 
L 144.758724 98.748586 
L 145.683869 98.748002 
L 146.609028 98.704719 
L 147.534182 98.616107 
L 148.459339 98.742445 
L 149.384497 98.635116 
L 150.309651 98.595928 
L 151.234811 98.521646 
L 152.159963 98.694191 
L 179.91473 98.694191 
L 188.548948 98.463156 
L 189.166282 98.81585 
L 190.091439 98.786312 
L 191.016594 98.779001 
L 191.94175 98.728408 
L 192.866913 98.877264 
L 193.792066 98.784265 
L 194.717222 98.82784 
L 195.642377 98.794209 
L 196.567536 98.867906 
L 197.492695 98.882236 
L 198.417852 98.814972 
L 199.343013 98.85533 
L 200.268162 98.848312 
L 201.193322 98.90183 
L 202.118478 98.796256 
L 203.043636 98.793039 
" clip-path="url(#pa04284cbbf)" style="fill: none; stroke: #ff6b6b; stroke-width: 1.2; stroke-linecap: square"/>
   </g>
   <g id="patch_3">
    <path d="M 35.96 103.4 
L 35.96 5 
" style="fill: none; stroke: var(--fg-color); stroke-width: 0.8; stroke-linejoin: miter; stroke-linecap: square"/>
   </g>
   <g id="patch_4">
    <path d="M 35.96 103.4 
L 211 103.4 
" style="fill: none; stroke: var(--fg-color); stroke-width: 0.8; stroke-linejoin: miter; stroke-linecap: square"/>
   </g>
  </g>
 </g>
 <defs>
  <clipPath id="pa04284cbbf">
   <rect x="35.96" y="5" width="175.04" height="98.4"/>
  </clipPath>
 </defs>
</svg>
