<?xml version="1.0" encoding="utf-8" standalone="no"?>
<!DOCTYPE svg PUBLIC "-//W3C//DTD SVG 1.1//EN"
  "http://www.w3.org/Graphics/SVG/1.1/DTD/svg11.dtd">
<svg xmlns:xlink="http://www.w3.org/1999/xlink" width="216pt" height="122.4pt" viewBox="0 0 216 122.4" xmlns="http://www.w3.org/2000/svg" version="1.1">
  <style>
    :root {
      --fg-color: #212529;
      --grid-color: rgba(33, 37, 41, 0.1);
    }
    @media (prefers-color-scheme: dark) {
      :root {
        --fg-color: #dee2e6;
        --grid-color: rgba(248, 249, 250, 0.15);
      }
    }
  </style>

 <metadata>
  <rdf:RDF xmlns:dc="http://purl.org/dc/elements/1.1/" xmlns:cc="http://creativecommons.org/ns#" xmlns:rdf="http://www.w3.org/1999/02/22-rdf-syntax-ns#">
   <cc:Work>
    <dc:type rdf:resource="http://purl.org/dc/dcmitype/StillImage"/>
    <dc:date>2026-06-30T15:38:09.961764</dc:date>
    <dc:format>image/svg+xml</dc:format>
    <dc:creator>
     <cc:Agent>
      <dc:title>Matplotlib v3.11.0, https://matplotlib.org/</dc:title>
     </cc:Agent>
    </dc:creator>
   </cc:Work>
  </rdf:RDF>
 </metadata>
 <defs>
  <style type="text/css">*{stroke-linejoin: round; stroke-linecap: butt}</style>
 </defs>
 <g id="figure_1">
  <g id="patch_1">
   <path d="M 0 122.4 
L 216 122.4 
L 216 0 
L 0 0 
L 0 122.4 
z
" style="fill: none; opacity: 0"/>
  </g>
  <g id="axes_1">
   <g id="patch_2">
    <path d="M 35.96 103.4 
L 211 103.4 
L 211 5 
L 35.96 5 
L 35.96 103.4 
z
" style="fill: none; opacity: 0"/>
   </g>
   <g id="matplotlib.axis_1">
    <g id="xtick_1">
     <g id="line2d_1">
      <path d="M 69.784035 103.4 
L 69.784035 5 
" clip-path="url(#pc3b27f8f75)" style="fill: none; stroke-dasharray: 2.96,1.28; stroke-dashoffset: 0; stroke: var(--grid-color); stroke-width: 0.8"/>
     </g>
     <g id="line2d_2">
      <defs>
       <path id="mcd96b73c8a" d="M 0 0 
L 0 3.5 
" style="stroke: var(--fg-color); stroke-width: 0.8"/>
      </defs>
      <g>
       <use xlink:href="#mcd96b73c8a" x="69.784035" y="103.4" style="fill: var(--fg-color); stroke: var(--fg-color); stroke-width: 0.8"/>
      </g>
     </g>
     <g id="text_1">
      <text style="font-size: 7px; font-family: 'DejaVu Sans', 'Bitstream Vera Sans', 'Computer Modern Sans Serif', 'Lucida Grande', 'Verdana', 'Geneva', 'Lucid', 'Arial', 'Helvetica', 'Avant Garde', sans-serif; text-anchor: middle; fill: var(--fg-color)" x="69.784035" y="115.718359" transform="rotate(-0 69.784035 115.718359)">02/2026</text>
     </g>
    </g>
    <g id="xtick_2">
     <g id="line2d_3">
      <path d="M 122.345302 103.4 
L 122.345302 5 
" clip-path="url(#pc3b27f8f75)" style="fill: none; stroke-dasharray: 2.96,1.28; stroke-dashoffset: 0; stroke: var(--grid-color); stroke-width: 0.8"/>
     </g>
     <g id="line2d_4">
      <g>
       <use xlink:href="#mcd96b73c8a" x="122.345302" y="103.4" style="fill: var(--fg-color); stroke: var(--fg-color); stroke-width: 0.8"/>
      </g>
     </g>
     <g id="text_2">
      <text style="font-size: 7px; font-family: 'DejaVu Sans', 'Bitstream Vera Sans', 'Computer Modern Sans Serif', 'Lucida Grande', 'Verdana', 'Geneva', 'Lucid', 'Arial', 'Helvetica', 'Avant Garde', sans-serif; text-anchor: middle; fill: var(--fg-color)" x="122.345302" y="115.718359" transform="rotate(-0 122.345302 115.718359)">04/2026</text>
     </g>
    </g>
    <g id="xtick_3">
     <g id="line2d_5">
      <path d="M 176.688307 103.4 
L 176.688307 5 
" clip-path="url(#pc3b27f8f75)" style="fill: none; stroke-dasharray: 2.96,1.28; stroke-dashoffset: 0; stroke: var(--grid-color); stroke-width: 0.8"/>
     </g>
     <g id="line2d_6">
      <g>
       <use xlink:href="#mcd96b73c8a" x="176.688307" y="103.4" style="fill: var(--fg-color); stroke: var(--fg-color); stroke-width: 0.8"/>
      </g>
     </g>
     <g id="text_3">
      <text style="font-size: 7px; font-family: 'DejaVu Sans', 'Bitstream Vera Sans', 'Computer Modern Sans Serif', 'Lucida Grande', 'Verdana', 'Geneva', 'Lucid', 'Arial', 'Helvetica', 'Avant Garde', sans-serif; text-anchor: middle; fill: var(--fg-color)" x="176.688307" y="115.718359" transform="rotate(-0 176.688307 115.718359)">06/2026</text>
     </g>
    </g>
   </g>
   <g id="matplotlib.axis_2">
    <g id="ytick_1">
     <g id="line2d_7">
      <path d="M 35.96 99.452796 
L 211 99.452796 
" clip-path="url(#pc3b27f8f75)" style="fill: none; stroke-dasharray: 2.96,1.28; stroke-dashoffset: 0; stroke: var(--grid-color); stroke-width: 0.8"/>
     </g>
     <g id="line2d_8">
      <defs>
       <path id="mc3a5e335d9" d="M 0 0 
L -3.5 0 
" style="stroke: var(--fg-color); stroke-width: 0.8"/>
      </defs>
      <g>
       <use xlink:href="#mc3a5e335d9" x="35.96" y="99.452796" style="fill: var(--fg-color); stroke: var(--fg-color); stroke-width: 0.8"/>
      </g>
     </g>
     <g id="text_4">
      <text style="font-size: 7px; font-family: 'DejaVu Sans', 'Bitstream Vera Sans', 'Computer Modern Sans Serif', 'Lucida Grande', 'Verdana', 'Geneva', 'Lucid', 'Arial', 'Helvetica', 'Avant Garde', sans-serif; text-anchor: end; fill: var(--fg-color)" x="28.96" y="102.111976" transform="rotate(-0 28.96 102.111976)">0</text>
     </g>
    </g>
    <g id="ytick_2">
     <g id="line2d_9">
      <path d="M 35.96 83.450252 
L 211 83.450252 
" clip-path="url(#pc3b27f8f75)" style="fill: none; stroke-dasharray: 2.96,1.28; stroke-dashoffset: 0; stroke: var(--grid-color); stroke-width: 0.8"/>
     </g>
     <g id="line2d_10">
      <g>
       <use xlink:href="#mc3a5e335d9" x="35.96" y="83.450252" style="fill: var(--fg-color); stroke: var(--fg-color); stroke-width: 0.8"/>
      </g>
     </g>
     <g id="text_5">
      <text style="font-size: 7px; font-family: 'DejaVu Sans', 'Bitstream Vera Sans', 'Computer Modern Sans Serif', 'Lucida Grande', 'Verdana', 'Geneva', 'Lucid', 'Arial', 'Helvetica', 'Avant Garde', sans-serif; text-anchor: end; fill: var(--fg-color)" x="28.96" y="86.109431" transform="rotate(-0 28.96 86.109431)">100</text>
     </g>
    </g>
    <g id="ytick_3">
     <g id="line2d_11">
      <path d="M 35.96 67.447707 
L 211 67.447707 
" clip-path="url(#pc3b27f8f75)" style="fill: none; stroke-dasharray: 2.96,1.28; stroke-dashoffset: 0; stroke: var(--grid-color); stroke-width: 0.8"/>
     </g>
     <g id="line2d_12">
      <g>
       <use xlink:href="#mc3a5e335d9" x="35.96" y="67.447707" style="fill: var(--fg-color); stroke: var(--fg-color); stroke-width: 0.8"/>
      </g>
     </g>
     <g id="text_6">
      <text style="font-size: 7px; font-family: 'DejaVu Sans', 'Bitstream Vera Sans', 'Computer Modern Sans Serif', 'Lucida Grande', 'Verdana', 'Geneva', 'Lucid', 'Arial', 'Helvetica', 'Avant Garde', sans-serif; text-anchor: end; fill: var(--fg-color)" x="28.96" y="70.106886" transform="rotate(-0 28.96 70.106886)">200</text>
     </g>
    </g>
    <g id="ytick_4">
     <g id="line2d_13">
      <path d="M 35.96 51.445162 
L 211 51.445162 
" clip-path="url(#pc3b27f8f75)" style="fill: none; stroke-dasharray: 2.96,1.28; stroke-dashoffset: 0; stroke: var(--grid-color); stroke-width: 0.8"/>
     </g>
     <g id="line2d_14">
      <g>
       <use xlink:href="#mc3a5e335d9" x="35.96" y="51.445162" style="fill: var(--fg-color); stroke: var(--fg-color); stroke-width: 0.8"/>
      </g>
     </g>
     <g id="text_7">
      <text style="font-size: 7px; font-family: 'DejaVu Sans', 'Bitstream Vera Sans', 'Computer Modern Sans Serif', 'Lucida Grande', 'Verdana', 'Geneva', 'Lucid', 'Arial', 'Helvetica', 'Avant Garde', sans-serif; text-anchor: end; fill: var(--fg-color)" x="28.96" y="54.104342" transform="rotate(-0 28.96 54.104342)">300</text>
     </g>
    </g>
    <g id="ytick_5">
     <g id="line2d_15">
      <path d="M 35.96 35.442617 
L 211 35.442617 
" clip-path="url(#pc3b27f8f75)" style="fill: none; stroke-dasharray: 2.96,1.28; stroke-dashoffset: 0; stroke: var(--grid-color); stroke-width: 0.8"/>
     </g>
     <g id="line2d_16">
      <g>
       <use xlink:href="#mc3a5e335d9" x="35.96" y="35.442617" style="fill: var(--fg-color); stroke: var(--fg-color); stroke-width: 0.8"/>
      </g>
     </g>
     <g id="text_8">
      <text style="font-size: 7px; font-family: 'DejaVu Sans', 'Bitstream Vera Sans', 'Computer Modern Sans Serif', 'Lucida Grande', 'Verdana', 'Geneva', 'Lucid', 'Arial', 'Helvetica', 'Avant Garde', sans-serif; text-anchor: end; fill: var(--fg-color)" x="28.96" y="38.101797" transform="rotate(-0 28.96 38.101797)">400</text>
     </g>
    </g>
    <g id="ytick_6">
     <g id="line2d_17">
      <path d="M 35.96 19.440072 
L 211 19.440072 
" clip-path="url(#pc3b27f8f75)" style="fill: none; stroke-dasharray: 2.96,1.28; stroke-dashoffset: 0; stroke: var(--grid-color); stroke-width: 0.8"/>
     </g>
     <g id="line2d_18">
      <g>
       <use xlink:href="#mc3a5e335d9" x="35.96" y="19.440072" style="fill: var(--fg-color); stroke: var(--fg-color); stroke-width: 0.8"/>
      </g>
     </g>
     <g id="text_9">
      <text style="font-size: 7px; font-family: 'DejaVu Sans', 'Bitstream Vera Sans', 'Computer Modern Sans Serif', 'Lucida Grande', 'Verdana', 'Geneva', 'Lucid', 'Arial', 'Helvetica', 'Avant Garde', sans-serif; text-anchor: end; fill: var(--fg-color)" x="28.96" y="22.099252" transform="rotate(-0 28.96 22.099252)">500</text>
     </g>
    </g>
    <g id="text_10">
     <text style="font-size: 7px; font-family: 'DejaVu Sans', 'Bitstream Vera Sans', 'Computer Modern Sans Serif', 'Lucida Grande', 'Verdana', 'Geneva', 'Lucid', 'Arial', 'Helvetica', 'Avant Garde', sans-serif; text-anchor: middle; fill: var(--fg-color)" x="9.917109" y="54.2" transform="rotate(-90 9.917109 54.2)">ms</text>
    </g>
   </g>
   <g id="line2d_19">
    <path d="M 43.916364 84.090673 
L 44.468628 86.197728 
L 45.3595 85.951609 
L 46.250371 84.738456 
L 47.141245 84.045226 
L 48.032112 86.858954 
L 48.922979 85.45361 
L 49.81384 85.160764 
L 50.704717 86.240775 
L 51.595589 85.339192 
L 52.486458 85.668524 
L 53.377327 81.620681 
L 54.268192 85.3912 
L 55.159063 86.829029 
L 56.049934 84.328631 
L 57.831669 86.087311 
L 58.722538 84.880079 
L 59.613407 85.679086 
L 60.504275 86.707409 
L 61.395144 84.69893 
L 62.286016 83.444011 
L 63.176879 87.383997 
L 64.067746 85.665164 
L 64.958622 84.938968 
L 65.84949 81.457615 
L 66.740361 85.39248 
L 67.631226 85.221413 
L 68.522078 86.195968 
L 69.412965 84.747258 
L 70.30383 83.543066 
L 71.194705 83.580672 
L 72.085571 84.555867 
L 72.976442 87.544023 
L 73.867306 84.394882 
L 74.758184 84.682287 
L 75.649039 85.338072 
L 76.539914 85.337592 
L 77.430784 85.185407 
L 78.321655 82.723576 
L 79.212509 84.475855 
L 80.103391 84.639561 
L 80.994245 85.422885 
L 81.885129 82.3704 
L 82.775998 86.443207 
L 83.666869 85.402242 
L 84.557735 83.349916 
L 85.44861 82.18541 
L 94.53997 84.469134 
L 95.248438 86.722452 
L 96.139324 86.625316 
L 97.030192 84.665005 
L 97.921065 84.847914 
L 98.811931 85.865836 
L 99.702798 84.816549 
L 100.593666 85.834631 
L 101.484533 85.220773 
L 102.375401 83.930328 
L 103.266272 83.664686 
L 105.048009 85.498577 
L 105.93888 82.964734 
L 106.829748 85.509939 
L 107.720614 85.355835 
L 108.611487 84.588352 
L 109.502352 85.01546 
L 110.393224 81.752542 
L 111.284094 83.779424 
L 112.17496 84.765341 
L 113.065834 85.51282 
L 113.956695 85.236776 
L 114.847564 81.419048 
L 115.738441 83.867758 
L 116.629309 83.798947 
L 117.520178 83.398403 
L 119.301913 84.795265 
L 120.192782 82.648844 
L 121.083649 82.409766 
L 121.97452 86.033062 
L 125.537994 83.172767 
L 126.428869 86.14332 
L 127.319734 85.472813 
L 128.210603 84.044906 
L 129.101474 84.538905 
L 129.992342 84.602275 
L 130.883214 84.522102 
L 131.774065 85.187968 
L 132.664946 86.33247 
L 133.55582 83.809989 
L 134.446686 85.365756 
L 135.337558 84.70133 
L 137.119294 84.0057 
L 138.010159 83.901203 
L 138.901032 83.978976 
L 139.791912 83.510901 
L 140.68277 83.212134 
L 141.57364 85.544985 
L 142.464507 83.145083 
L 143.355376 84.136601 
L 144.246246 82.926648 
L 145.137113 84.049227 
L 146.027984 83.464814 
L 146.918849 83.142042 
L 173.644977 83.142042 
L 181.959197 83.959933 
L 182.553652 84.7583 
L 183.444521 84.531543 
L 184.335387 85.178046 
L 185.226256 79.325756 
L 186.117131 81.202214 
L 187.007996 82.114199 
L 187.898864 83.814949 
L 188.789731 79.4789 
L 189.680603 82.901524 
L 190.571474 84.576351 
L 191.462343 82.782785 
L 192.353215 85.671565 
L 193.244077 84.650122 
L 194.134949 83.340794 
L 195.025817 84.345914 
L 195.916688 81.278066 
L 196.807557 83.829192 
L 197.698426 85.031623 
L 198.589295 9.472727 
L 199.480162 84.141881 
L 200.371032 84.101715 
L 201.261898 83.151644 
L 202.152766 86.265099 
L 203.043636 85.613476 
L 203.043636 85.613476 
" clip-path="url(#pc3b27f8f75)" style="fill: none; stroke: #339af0; stroke-width: 1.2; stroke-linecap: square"/>
   </g>
   <g id="line2d_20">
    <path d="M 43.916364 98.699076 
L 45.3595 98.704197 
L 52.486458 98.626585 
L 53.377327 98.475521 
L 54.268192 98.685794 
L 55.159063 98.59602 
L 56.049934 98.755245 
L 59.613407 98.731402 
L 60.504275 98.537931 
L 61.395144 98.691715 
L 64.067746 98.757326 
L 64.958622 98.40927 
L 68.522078 98.692675 
L 69.412965 98.508326 
L 71.194705 98.678753 
L 73.867306 98.59378 
L 77.430784 98.750285 
L 78.321655 98.477921 
L 79.212509 98.688355 
L 82.775998 98.573777 
L 83.666869 98.765327 
L 85.44861 98.671392 
L 94.53997 98.677313 
L 95.248438 98.791091 
L 97.030192 98.713959 
L 97.921065 98.754605 
L 98.811931 98.517448 
L 100.593666 98.84518 
L 101.484533 98.742603 
L 102.375401 98.773328 
L 103.266272 98.298053 
L 104.157138 98.767247 
L 105.048009 98.812695 
L 105.93888 98.418392 
L 107.720614 98.833818 
L 110.393224 98.771728 
L 112.17496 98.811574 
L 113.065834 98.599541 
L 113.956695 98.765807 
L 114.847564 98.582418 
L 115.738441 98.78597 
L 116.629309 98.711398 
L 119.301913 98.832858 
L 121.083649 98.712038 
L 121.97452 98.837498 
L 125.537994 98.709958 
L 127.319734 98.852861 
L 129.101474 98.706118 
L 129.992342 98.809174 
L 130.883214 98.037851 
L 131.774065 98.725801 
L 132.664946 98.824536 
L 133.55582 98.476801 
L 134.446686 98.852381 
L 135.337558 98.702277 
L 137.119294 98.774929 
L 138.901032 98.622104 
L 141.57364 98.800693 
L 142.464507 98.759726 
L 143.355376 98.53281 
L 144.246246 98.796852 
L 145.137113 98.564335 
L 146.027984 98.558414 
L 146.918849 98.678593 
L 173.644977 98.678593 
L 181.959197 98.317096 
L 182.553652 98.799732 
L 183.444521 98.710118 
L 184.335387 98.91095 
L 185.226256 98.728521 
L 186.117131 98.683234 
L 187.007996 98.801813 
L 187.898864 98.769328 
L 188.789731 98.582098 
L 189.680603 98.799732 
L 190.571474 98.753005 
L 192.353215 98.831578 
L 193.244077 98.78725 
L 194.134949 98.627225 
L 196.807557 98.740203 
L 197.698426 98.796852 
L 198.589295 96.830779 
L 199.480162 98.808854 
L 201.261898 98.927273 
L 202.152766 98.820056 
L 203.043636 98.842459 
L 203.043636 98.842459 
" clip-path="url(#pc3b27f8f75)" style="fill: none; stroke: #ff6b6b; stroke-width: 1.2; stroke-linecap: square"/>
   </g>
   <g id="patch_3">
    <path d="M 35.96 103.4 
L 35.96 5 
" style="fill: none; stroke: var(--fg-color); stroke-width: 0.8; stroke-linejoin: miter; stroke-linecap: square"/>
   </g>
   <g id="patch_4">
    <path d="M 35.96 103.4 
L 211 103.4 
" style="fill: none; stroke: var(--fg-color); stroke-width: 0.8; stroke-linejoin: miter; stroke-linecap: square"/>
   </g>
  </g>
 </g>
 <defs>
  <clipPath id="pc3b27f8f75">
   <rect x="35.96" y="5" width="175.04" height="98.4"/>
  </clipPath>
 </defs>
</svg>
