<?xml version="1.0" encoding="utf-8" standalone="no"?>
<!DOCTYPE svg PUBLIC "-//W3C//DTD SVG 1.1//EN"
  "http://www.w3.org/Graphics/SVG/1.1/DTD/svg11.dtd">
<svg xmlns:xlink="http://www.w3.org/1999/xlink" width="216pt" height="122.4pt" viewBox="0 0 216 122.4" xmlns="http://www.w3.org/2000/svg" version="1.1">
  <style>
    :root {
      --fg-color: #212529;
      --grid-color: rgba(33, 37, 41, 0.1);
    }
    @media (prefers-color-scheme: dark) {
      :root {
        --fg-color: #dee2e6;
        --grid-color: rgba(248, 249, 250, 0.15);
      }
    }
  </style>

 <metadata>
  <rdf:RDF xmlns:dc="http://purl.org/dc/elements/1.1/" xmlns:cc="http://creativecommons.org/ns#" xmlns:rdf="http://www.w3.org/1999/02/22-rdf-syntax-ns#">
   <cc:Work>
    <dc:type rdf:resource="http://purl.org/dc/dcmitype/StillImage"/>
    <dc:date>2026-06-30T15:38:06.704786</dc:date>
    <dc:format>image/svg+xml</dc:format>
    <dc:creator>
     <cc:Agent>
      <dc:title>Matplotlib v3.11.0, https://matplotlib.org/</dc:title>
     </cc:Agent>
    </dc:creator>
   </cc:Work>
  </rdf:RDF>
 </metadata>
 <defs>
  <style type="text/css">*{stroke-linejoin: round; stroke-linecap: butt}</style>
 </defs>
 <g id="figure_1">
  <g id="patch_1">
   <path d="M 0 122.4 
L 216 122.4 
L 216 0 
L 0 0 
L 0 122.4 
z
" style="fill: none; opacity: 0"/>
  </g>
  <g id="axes_1">
   <g id="patch_2">
    <path d="M 35.96 103.4 
L 211 103.4 
L 211 5 
L 35.96 5 
L 35.96 103.4 
z
" style="fill: none; opacity: 0"/>
   </g>
   <g id="matplotlib.axis_1">
    <g id="xtick_1">
     <g id="line2d_1">
      <path d="M 69.784035 103.4 
L 69.784035 5 
" clip-path="url(#p69186f2383)" style="fill: none; stroke-dasharray: 2.96,1.28; stroke-dashoffset: 0; stroke: var(--grid-color); stroke-width: 0.8"/>
     </g>
     <g id="line2d_2">
      <defs>
       <path id="m95de5d9263" d="M 0 0 
L 0 3.5 
" style="stroke: var(--fg-color); stroke-width: 0.8"/>
      </defs>
      <g>
       <use xlink:href="#m95de5d9263" x="69.784035" y="103.4" style="fill: var(--fg-color); stroke: var(--fg-color); stroke-width: 0.8"/>
      </g>
     </g>
     <g id="text_1">
      <text style="font-size: 7px; font-family: 'DejaVu Sans', 'Bitstream Vera Sans', 'Computer Modern Sans Serif', 'Lucida Grande', 'Verdana', 'Geneva', 'Lucid', 'Arial', 'Helvetica', 'Avant Garde', sans-serif; text-anchor: middle; fill: var(--fg-color)" x="69.784035" y="115.718359" transform="rotate(-0 69.784035 115.718359)">02/2026</text>
     </g>
    </g>
    <g id="xtick_2">
     <g id="line2d_3">
      <path d="M 122.345302 103.4 
L 122.345302 5 
" clip-path="url(#p69186f2383)" style="fill: none; stroke-dasharray: 2.96,1.28; stroke-dashoffset: 0; stroke: var(--grid-color); stroke-width: 0.8"/>
     </g>
     <g id="line2d_4">
      <g>
       <use xlink:href="#m95de5d9263" x="122.345302" y="103.4" style="fill: var(--fg-color); stroke: var(--fg-color); stroke-width: 0.8"/>
      </g>
     </g>
     <g id="text_2">
      <text style="font-size: 7px; font-family: 'DejaVu Sans', 'Bitstream Vera Sans', 'Computer Modern Sans Serif', 'Lucida Grande', 'Verdana', 'Geneva', 'Lucid', 'Arial', 'Helvetica', 'Avant Garde', sans-serif; text-anchor: middle; fill: var(--fg-color)" x="122.345302" y="115.718359" transform="rotate(-0 122.345302 115.718359)">04/2026</text>
     </g>
    </g>
    <g id="xtick_3">
     <g id="line2d_5">
      <path d="M 176.688307 103.4 
L 176.688307 5 
" clip-path="url(#p69186f2383)" style="fill: none; stroke-dasharray: 2.96,1.28; stroke-dashoffset: 0; stroke: var(--grid-color); stroke-width: 0.8"/>
     </g>
     <g id="line2d_6">
      <g>
       <use xlink:href="#m95de5d9263" x="176.688307" y="103.4" style="fill: var(--fg-color); stroke: var(--fg-color); stroke-width: 0.8"/>
      </g>
     </g>
     <g id="text_3">
      <text style="font-size: 7px; font-family: 'DejaVu Sans', 'Bitstream Vera Sans', 'Computer Modern Sans Serif', 'Lucida Grande', 'Verdana', 'Geneva', 'Lucid', 'Arial', 'Helvetica', 'Avant Garde', sans-serif; text-anchor: middle; fill: var(--fg-color)" x="176.688307" y="115.718359" transform="rotate(-0 176.688307 115.718359)">06/2026</text>
     </g>
    </g>
   </g>
   <g id="matplotlib.axis_2">
    <g id="ytick_1">
     <g id="line2d_7">
      <path d="M 35.96 99.207197 
L 211 99.207197 
" clip-path="url(#p69186f2383)" style="fill: none; stroke-dasharray: 2.96,1.28; stroke-dashoffset: 0; stroke: var(--grid-color); stroke-width: 0.8"/>
     </g>
     <g id="line2d_8">
      <defs>
       <path id="m136188216e" d="M 0 0 
L -3.5 0 
" style="stroke: var(--fg-color); stroke-width: 0.8"/>
      </defs>
      <g>
       <use xlink:href="#m136188216e" x="35.96" y="99.207197" style="fill: var(--fg-color); stroke: var(--fg-color); stroke-width: 0.8"/>
      </g>
     </g>
     <g id="text_4">
      <text style="font-size: 7px; font-family: 'DejaVu Sans', 'Bitstream Vera Sans', 'Computer Modern Sans Serif', 'Lucida Grande', 'Verdana', 'Geneva', 'Lucid', 'Arial', 'Helvetica', 'Avant Garde', sans-serif; text-anchor: end; fill: var(--fg-color)" x="28.96" y="101.866376" transform="rotate(-0 28.96 101.866376)">0</text>
     </g>
    </g>
    <g id="ytick_2">
     <g id="line2d_9">
      <path d="M 35.96 78.849088 
L 211 78.849088 
" clip-path="url(#p69186f2383)" style="fill: none; stroke-dasharray: 2.96,1.28; stroke-dashoffset: 0; stroke: var(--grid-color); stroke-width: 0.8"/>
     </g>
     <g id="line2d_10">
      <g>
       <use xlink:href="#m136188216e" x="35.96" y="78.849088" style="fill: var(--fg-color); stroke: var(--fg-color); stroke-width: 0.8"/>
      </g>
     </g>
     <g id="text_5">
      <text style="font-size: 7px; font-family: 'DejaVu Sans', 'Bitstream Vera Sans', 'Computer Modern Sans Serif', 'Lucida Grande', 'Verdana', 'Geneva', 'Lucid', 'Arial', 'Helvetica', 'Avant Garde', sans-serif; text-anchor: end; fill: var(--fg-color)" x="28.96" y="81.508268" transform="rotate(-0 28.96 81.508268)">100</text>
     </g>
    </g>
    <g id="ytick_3">
     <g id="line2d_11">
      <path d="M 35.96 58.49098 
L 211 58.49098 
" clip-path="url(#p69186f2383)" style="fill: none; stroke-dasharray: 2.96,1.28; stroke-dashoffset: 0; stroke: var(--grid-color); stroke-width: 0.8"/>
     </g>
     <g id="line2d_12">
      <g>
       <use xlink:href="#m136188216e" x="35.96" y="58.49098" style="fill: var(--fg-color); stroke: var(--fg-color); stroke-width: 0.8"/>
      </g>
     </g>
     <g id="text_6">
      <text style="font-size: 7px; font-family: 'DejaVu Sans', 'Bitstream Vera Sans', 'Computer Modern Sans Serif', 'Lucida Grande', 'Verdana', 'Geneva', 'Lucid', 'Arial', 'Helvetica', 'Avant Garde', sans-serif; text-anchor: end; fill: var(--fg-color)" x="28.96" y="61.15016" transform="rotate(-0 28.96 61.15016)">200</text>
     </g>
    </g>
    <g id="ytick_4">
     <g id="line2d_13">
      <path d="M 35.96 38.132872 
L 211 38.132872 
" clip-path="url(#p69186f2383)" style="fill: none; stroke-dasharray: 2.96,1.28; stroke-dashoffset: 0; stroke: var(--grid-color); stroke-width: 0.8"/>
     </g>
     <g id="line2d_14">
      <g>
       <use xlink:href="#m136188216e" x="35.96" y="38.132872" style="fill: var(--fg-color); stroke: var(--fg-color); stroke-width: 0.8"/>
      </g>
     </g>
     <g id="text_7">
      <text style="font-size: 7px; font-family: 'DejaVu Sans', 'Bitstream Vera Sans', 'Computer Modern Sans Serif', 'Lucida Grande', 'Verdana', 'Geneva', 'Lucid', 'Arial', 'Helvetica', 'Avant Garde', sans-serif; text-anchor: end; fill: var(--fg-color)" x="28.96" y="40.792052" transform="rotate(-0 28.96 40.792052)">300</text>
     </g>
    </g>
    <g id="ytick_5">
     <g id="line2d_15">
      <path d="M 35.96 17.774764 
L 211 17.774764 
" clip-path="url(#p69186f2383)" style="fill: none; stroke-dasharray: 2.96,1.28; stroke-dashoffset: 0; stroke: var(--grid-color); stroke-width: 0.8"/>
     </g>
     <g id="line2d_16">
      <g>
       <use xlink:href="#m136188216e" x="35.96" y="17.774764" style="fill: var(--fg-color); stroke: var(--fg-color); stroke-width: 0.8"/>
      </g>
     </g>
     <g id="text_8">
      <text style="font-size: 7px; font-family: 'DejaVu Sans', 'Bitstream Vera Sans', 'Computer Modern Sans Serif', 'Lucida Grande', 'Verdana', 'Geneva', 'Lucid', 'Arial', 'Helvetica', 'Avant Garde', sans-serif; text-anchor: end; fill: var(--fg-color)" x="28.96" y="20.433943" transform="rotate(-0 28.96 20.433943)">400</text>
     </g>
    </g>
    <g id="text_9">
     <text style="font-size: 7px; font-family: 'DejaVu Sans', 'Bitstream Vera Sans', 'Computer Modern Sans Serif', 'Lucida Grande', 'Verdana', 'Geneva', 'Lucid', 'Arial', 'Helvetica', 'Avant Garde', sans-serif; text-anchor: middle; fill: var(--fg-color)" x="9.917109" y="54.2" transform="rotate(-90 9.917109 54.2)">ms</text>
    </g>
   </g>
   <g id="line2d_17">
    <path d="M 43.916364 76.103594 
L 44.468628 81.549795 
L 45.3595 82.133666 
L 46.250371 80.31304 
L 47.141245 80.080143 
L 48.032112 80.379407 
L 48.922979 80.204531 
L 49.81384 79.449653 
L 50.704717 82.301213 
L 51.595589 80.458601 
L 52.486458 81.209204 
L 53.377327 77.619255 
L 54.268192 81.240352 
L 55.159063 80.921137 
L 56.049934 79.728559 
L 56.940797 82.07137 
L 57.831669 81.35904 
L 58.722538 79.624732 
L 59.613407 80.691294 
L 60.504275 80.764379 
L 61.395144 78.238956 
L 62.286016 80.967553 
L 63.176879 83.142206 
L 64.958622 80.958596 
L 65.84949 80.522525 
L 66.740361 80.492599 
L 67.631226 80.165444 
L 68.522078 80.655463 
L 69.412965 76.79577 
L 70.30383 80.083808 
L 71.194705 78.121897 
L 72.085571 77.2011 
L 72.976442 81.746251 
L 73.867306 81.455334 
L 74.758184 79.841139 
L 75.649039 81.409731 
L 76.539914 81.908709 
L 77.430784 71.719883 
L 78.321655 79.577502 
L 79.212509 72.118087 
L 80.103391 80.849476 
L 80.994245 81.072805 
L 81.885129 80.77578 
L 82.775998 77.570396 
L 83.666869 80.883271 
L 84.557735 79.948223 
L 85.44861 76.750575 
L 94.53997 9.472727 
L 95.248438 82.617374 
L 96.139324 80.047977 
L 97.030192 78.871279 
L 97.921065 77.351546 
L 98.811931 82.600681 
L 99.702798 81.978537 
L 100.593666 82.780646 
L 101.484533 79.093997 
L 102.375401 73.118281 
L 103.266272 80.786977 
L 104.157138 79.247904 
L 105.048009 76.899189 
L 105.93888 77.664043 
L 106.829748 82.077274 
L 107.720614 79.471232 
L 108.611487 81.707978 
L 109.502352 80.251355 
L 110.393224 80.287185 
L 111.284094 75.90612 
L 112.17496 75.965566 
L 113.065834 78.999738 
L 113.956695 71.138659 
L 114.847564 79.712272 
L 115.738441 77.677479 
L 116.629309 81.103545 
L 117.520178 76.88901 
L 118.41104 78.875961 
L 119.301913 77.48591 
L 121.083649 80.675822 
L 121.97452 79.300428 
L 125.537994 78.980602 
L 126.428869 81.638556 
L 127.319734 80.115159 
L 128.210603 77.210464 
L 129.101474 77.29434 
L 129.992342 70.466027 
L 130.883214 75.393096 
L 131.774065 81.433957 
L 132.664946 77.933788 
L 133.55582 76.45355 
L 134.446686 78.504426 
L 135.337558 80.12432 
L 136.228424 75.141266 
L 137.119294 76.666699 
L 138.010159 78.448441 
L 138.901032 79.456371 
L 139.791912 78.797175 
L 140.68277 79.917278 
L 141.57364 77.884725 
L 142.464507 76.571423 
L 143.355376 80.153432 
L 144.246246 80.988929 
L 145.137113 80.037798 
L 146.027984 76.385757 
L 146.918849 77.173209 
L 173.644977 77.173209 
L 181.959197 78.285983 
L 182.553652 82.488915 
L 183.444521 75.934418 
L 184.335387 76.616618 
L 185.226256 78.537406 
L 186.117131 80.846219 
L 187.007996 80.002375 
L 187.898864 78.071409 
L 188.789731 80.126967 
L 189.680603 83.703276 
L 190.571474 78.874943 
L 191.462343 78.164445 
L 192.353215 79.950259 
L 193.244077 79.315493 
L 194.134949 81.172356 
L 195.025817 77.752194 
L 195.916688 79.540246 
L 196.807557 77.114578 
L 197.698426 80.77293 
L 199.480162 79.283734 
L 200.371032 79.254011 
L 201.261898 80.582581 
L 203.043636 80.130021 
L 203.043636 80.130021 
" clip-path="url(#p69186f2383)" style="fill: none; stroke: #339af0; stroke-width: 1.2; stroke-linecap: square"/>
   </g>
   <g id="line2d_18">
    <path d="M 43.916364 98.888185 
L 46.250371 98.714327 
L 47.141245 98.879635 
L 65.84949 98.878006 
L 71.194705 98.896125 
L 72.085571 98.312254 
L 72.976442 98.896939 
L 76.539914 98.906915 
L 77.430784 98.767054 
L 78.321655 98.8947 
L 82.775998 98.886557 
L 83.666869 98.744457 
L 84.557735 98.903861 
L 85.44861 98.836679 
L 97.030192 98.879635 
L 97.921065 98.812657 
L 98.811931 98.913226 
L 101.484533 98.882688 
L 102.375401 98.633709 
L 103.266272 98.892257 
L 105.048009 98.88391 
L 108.611487 98.904879 
L 111.284094 98.869863 
L 112.17496 98.719009 
L 113.065834 98.9061 
L 120.192782 98.863755 
L 121.97452 98.865791 
L 129.992342 98.888185 
L 130.883214 98.678904 
L 131.774065 98.88106 
L 133.55582 98.799017 
L 134.446686 98.729188 
L 135.337558 98.882485 
L 138.010159 98.882892 
L 141.57364 98.886149 
L 142.464507 98.790059 
L 145.137113 98.880653 
L 146.027984 98.791077 
L 146.918849 98.838919 
L 203.043636 98.883503 
L 203.043636 98.883503 
" clip-path="url(#p69186f2383)" style="fill: none; stroke: #ff6b6b; stroke-width: 1.2; stroke-linecap: square"/>
   </g>
   <g id="patch_3">
    <path d="M 35.96 103.4 
L 35.96 5 
" style="fill: none; stroke: var(--fg-color); stroke-width: 0.8; stroke-linejoin: miter; stroke-linecap: square"/>
   </g>
   <g id="patch_4">
    <path d="M 35.96 103.4 
L 211 103.4 
" style="fill: none; stroke: var(--fg-color); stroke-width: 0.8; stroke-linejoin: miter; stroke-linecap: square"/>
   </g>
  </g>
 </g>
 <defs>
  <clipPath id="p69186f2383">
   <rect x="35.96" y="5" width="175.04" height="98.4"/>
  </clipPath>
 </defs>
</svg>
