<?xml version="1.0" encoding="utf-8" standalone="no"?>
<!DOCTYPE svg PUBLIC "-//W3C//DTD SVG 1.1//EN"
  "http://www.w3.org/Graphics/SVG/1.1/DTD/svg11.dtd">
<svg xmlns:xlink="http://www.w3.org/1999/xlink" width="216pt" height="122.4pt" viewBox="0 0 216 122.4" xmlns="http://www.w3.org/2000/svg" version="1.1">
  <style>
    :root {
      --fg-color: #212529;
      --grid-color: rgba(33, 37, 41, 0.1);
    }
    @media (prefers-color-scheme: dark) {
      :root {
        --fg-color: #dee2e6;
        --grid-color: rgba(248, 249, 250, 0.15);
      }
    }
  </style>

 <metadata>
  <rdf:RDF xmlns:dc="http://purl.org/dc/elements/1.1/" xmlns:cc="http://creativecommons.org/ns#" xmlns:rdf="http://www.w3.org/1999/02/22-rdf-syntax-ns#">
   <cc:Work>
    <dc:type rdf:resource="http://purl.org/dc/dcmitype/StillImage"/>
    <dc:date>2026-06-30T04:48:49.314375</dc:date>
    <dc:format>image/svg+xml</dc:format>
    <dc:creator>
     <cc:Agent>
      <dc:title>Matplotlib v3.11.0, https://matplotlib.org/</dc:title>
     </cc:Agent>
    </dc:creator>
   </cc:Work>
  </rdf:RDF>
 </metadata>
 <defs>
  <style type="text/css">*{stroke-linejoin: round; stroke-linecap: butt}</style>
 </defs>
 <g id="figure_1">
  <g id="patch_1">
   <path d="M 0 122.4 
L 216 122.4 
L 216 0 
L 0 0 
L 0 122.4 
z
" style="fill: none; opacity: 0"/>
  </g>
  <g id="axes_1">
   <g id="patch_2">
    <path d="M 35.96 103.4 
L 211 103.4 
L 211 5 
L 35.96 5 
L 35.96 103.4 
z
" style="fill: none; opacity: 0"/>
   </g>
   <g id="matplotlib.axis_1">
    <g id="xtick_1">
     <g id="line2d_1">
      <path d="M 72.056377 103.4 
L 72.056377 5 
" clip-path="url(#p6eb0e606dc)" style="fill: none; stroke-dasharray: 2.96,1.28; stroke-dashoffset: 0; stroke: var(--grid-color); stroke-width: 0.8"/>
     </g>
     <g id="line2d_2">
      <defs>
       <path id="m7f178e138f" d="M 0 0 
L 0 3.5 
" style="stroke: var(--fg-color); stroke-width: 0.8"/>
      </defs>
      <g>
       <use xlink:href="#m7f178e138f" x="72.056377" y="103.4" style="fill: var(--fg-color); stroke: var(--fg-color); stroke-width: 0.8"/>
      </g>
     </g>
     <g id="text_1">
      <text style="font-size: 7px; font-family: 'DejaVu Sans', 'Bitstream Vera Sans', 'Computer Modern Sans Serif', 'Lucida Grande', 'Verdana', 'Geneva', 'Lucid', 'Arial', 'Helvetica', 'Avant Garde', sans-serif; text-anchor: middle; fill: var(--fg-color)" x="72.056377" y="115.718359" transform="rotate(-0 72.056377 115.718359)">02/2026</text>
     </g>
    </g>
    <g id="xtick_2">
     <g id="line2d_3">
      <path d="M 126.640628 103.4 
L 126.640628 5 
" clip-path="url(#p6eb0e606dc)" style="fill: none; stroke-dasharray: 2.96,1.28; stroke-dashoffset: 0; stroke: var(--grid-color); stroke-width: 0.8"/>
     </g>
     <g id="line2d_4">
      <g>
       <use xlink:href="#m7f178e138f" x="126.640628" y="103.4" style="fill: var(--fg-color); stroke: var(--fg-color); stroke-width: 0.8"/>
      </g>
     </g>
     <g id="text_2">
      <text style="font-size: 7px; font-family: 'DejaVu Sans', 'Bitstream Vera Sans', 'Computer Modern Sans Serif', 'Lucida Grande', 'Verdana', 'Geneva', 'Lucid', 'Arial', 'Helvetica', 'Avant Garde', sans-serif; text-anchor: middle; fill: var(--fg-color)" x="126.640628" y="115.718359" transform="rotate(-0 126.640628 115.718359)">04/2026</text>
     </g>
    </g>
    <g id="xtick_3">
     <g id="line2d_5">
      <path d="M 183.075192 103.4 
L 183.075192 5 
" clip-path="url(#p6eb0e606dc)" style="fill: none; stroke-dasharray: 2.96,1.28; stroke-dashoffset: 0; stroke: var(--grid-color); stroke-width: 0.8"/>
     </g>
     <g id="line2d_6">
      <g>
       <use xlink:href="#m7f178e138f" x="183.075192" y="103.4" style="fill: var(--fg-color); stroke: var(--fg-color); stroke-width: 0.8"/>
      </g>
     </g>
     <g id="text_3">
      <text style="font-size: 7px; font-family: 'DejaVu Sans', 'Bitstream Vera Sans', 'Computer Modern Sans Serif', 'Lucida Grande', 'Verdana', 'Geneva', 'Lucid', 'Arial', 'Helvetica', 'Avant Garde', sans-serif; text-anchor: middle; fill: var(--fg-color)" x="183.075192" y="115.718359" transform="rotate(-0 183.075192 115.718359)">06/2026</text>
     </g>
    </g>
   </g>
   <g id="matplotlib.axis_2">
    <g id="ytick_1">
     <g id="line2d_7">
      <path d="M 35.96 99.817252 
L 211 99.817252 
" clip-path="url(#p6eb0e606dc)" style="fill: none; stroke-dasharray: 2.96,1.28; stroke-dashoffset: 0; stroke: var(--grid-color); stroke-width: 0.8"/>
     </g>
     <g id="line2d_8">
      <defs>
       <path id="m395a524ec0" d="M 0 0 
L -3.5 0 
" style="stroke: var(--fg-color); stroke-width: 0.8"/>
      </defs>
      <g>
       <use xlink:href="#m395a524ec0" x="35.96" y="99.817252" style="fill: var(--fg-color); stroke: var(--fg-color); stroke-width: 0.8"/>
      </g>
     </g>
     <g id="text_4">
      <text style="font-size: 7px; font-family: 'DejaVu Sans', 'Bitstream Vera Sans', 'Computer Modern Sans Serif', 'Lucida Grande', 'Verdana', 'Geneva', 'Lucid', 'Arial', 'Helvetica', 'Avant Garde', sans-serif; text-anchor: end; fill: var(--fg-color)" x="28.96" y="102.476432" transform="rotate(-0 28.96 102.476432)">0</text>
     </g>
    </g>
    <g id="ytick_2">
     <g id="line2d_9">
      <path d="M 35.96 76.861884 
L 211 76.861884 
" clip-path="url(#p6eb0e606dc)" style="fill: none; stroke-dasharray: 2.96,1.28; stroke-dashoffset: 0; stroke: var(--grid-color); stroke-width: 0.8"/>
     </g>
     <g id="line2d_10">
      <g>
       <use xlink:href="#m395a524ec0" x="35.96" y="76.861884" style="fill: var(--fg-color); stroke: var(--fg-color); stroke-width: 0.8"/>
      </g>
     </g>
     <g id="text_5">
      <text style="font-size: 7px; font-family: 'DejaVu Sans', 'Bitstream Vera Sans', 'Computer Modern Sans Serif', 'Lucida Grande', 'Verdana', 'Geneva', 'Lucid', 'Arial', 'Helvetica', 'Avant Garde', sans-serif; text-anchor: end; fill: var(--fg-color)" x="28.96" y="79.521064" transform="rotate(-0 28.96 79.521064)">100</text>
     </g>
    </g>
    <g id="ytick_3">
     <g id="line2d_11">
      <path d="M 35.96 53.906516 
L 211 53.906516 
" clip-path="url(#p6eb0e606dc)" style="fill: none; stroke-dasharray: 2.96,1.28; stroke-dashoffset: 0; stroke: var(--grid-color); stroke-width: 0.8"/>
     </g>
     <g id="line2d_12">
      <g>
       <use xlink:href="#m395a524ec0" x="35.96" y="53.906516" style="fill: var(--fg-color); stroke: var(--fg-color); stroke-width: 0.8"/>
      </g>
     </g>
     <g id="text_6">
      <text style="font-size: 7px; font-family: 'DejaVu Sans', 'Bitstream Vera Sans', 'Computer Modern Sans Serif', 'Lucida Grande', 'Verdana', 'Geneva', 'Lucid', 'Arial', 'Helvetica', 'Avant Garde', sans-serif; text-anchor: end; fill: var(--fg-color)" x="28.96" y="56.565695" transform="rotate(-0 28.96 56.565695)">200</text>
     </g>
    </g>
    <g id="ytick_4">
     <g id="line2d_13">
      <path d="M 35.96 30.951147 
L 211 30.951147 
" clip-path="url(#p6eb0e606dc)" style="fill: none; stroke-dasharray: 2.96,1.28; stroke-dashoffset: 0; stroke: var(--grid-color); stroke-width: 0.8"/>
     </g>
     <g id="line2d_14">
      <g>
       <use xlink:href="#m395a524ec0" x="35.96" y="30.951147" style="fill: var(--fg-color); stroke: var(--fg-color); stroke-width: 0.8"/>
      </g>
     </g>
     <g id="text_7">
      <text style="font-size: 7px; font-family: 'DejaVu Sans', 'Bitstream Vera Sans', 'Computer Modern Sans Serif', 'Lucida Grande', 'Verdana', 'Geneva', 'Lucid', 'Arial', 'Helvetica', 'Avant Garde', sans-serif; text-anchor: end; fill: var(--fg-color)" x="28.96" y="33.610327" transform="rotate(-0 28.96 33.610327)">300</text>
     </g>
    </g>
    <g id="ytick_5">
     <g id="line2d_15">
      <path d="M 35.96 7.995779 
L 211 7.995779 
" clip-path="url(#p6eb0e606dc)" style="fill: none; stroke-dasharray: 2.96,1.28; stroke-dashoffset: 0; stroke: var(--grid-color); stroke-width: 0.8"/>
     </g>
     <g id="line2d_16">
      <g>
       <use xlink:href="#m395a524ec0" x="35.96" y="7.995779" style="fill: var(--fg-color); stroke: var(--fg-color); stroke-width: 0.8"/>
      </g>
     </g>
     <g id="text_8">
      <text style="font-size: 7px; font-family: 'DejaVu Sans', 'Bitstream Vera Sans', 'Computer Modern Sans Serif', 'Lucida Grande', 'Verdana', 'Geneva', 'Lucid', 'Arial', 'Helvetica', 'Avant Garde', sans-serif; text-anchor: end; fill: var(--fg-color)" x="28.96" y="10.654959" transform="rotate(-0 28.96 10.654959)">400</text>
     </g>
    </g>
    <g id="text_9">
     <text style="font-size: 7px; font-family: 'DejaVu Sans', 'Bitstream Vera Sans', 'Computer Modern Sans Serif', 'Lucida Grande', 'Verdana', 'Geneva', 'Lucid', 'Arial', 'Helvetica', 'Avant Garde', sans-serif; text-anchor: middle; fill: var(--fg-color)" x="9.917109" y="54.2" transform="rotate(-90 9.917109 54.2)">ms</text>
    </g>
   </g>
   <g id="line2d_17">
    <path d="M 43.916364 45.731191 
L 45.193108 43.426701 
L 45.766628 44.330684 
L 46.691788 42.499534 
L 47.616947 42.243582 
L 48.542109 40.081186 
L 49.467263 44.235189 
L 50.392418 46.433395 
L 51.317566 43.199214 
L 52.242732 45.968549 
L 53.167891 43.935851 
L 54.093049 41.030849 
L 55.018206 46.767396 
L 55.943359 40.990448 
L 56.868517 44.169767 
L 57.793676 43.341537 
L 58.718827 40.513895 
L 59.643987 43.068827 
L 60.569143 43.201509 
L 61.494301 42.687768 
L 62.419457 39.50799 
L 63.344613 45.276904 
L 64.269773 40.936732 
L 65.194924 45.58244 
L 66.120079 46.431789 
L 67.045243 41.338451 
L 67.970398 43.325927 
L 68.895557 44.776018 
L 69.82071 43.486615 
L 70.74585 14.188449 
L 71.671025 42.235547 
L 72.596178 42.801627 
L 73.521341 36.496476 
L 74.446495 40.993662 
L 75.371653 46.069553 
L 76.296805 44.763852 
L 77.221971 45.114839 
L 78.147114 43.440704 
L 79.072277 43.498322 
L 79.997435 42.500452 
L 80.922594 41.866654 
L 81.847735 42.284213 
L 82.772905 12.877468 
L 83.698046 39.490774 
L 84.623219 47.435627 
L 85.548376 45.75208 
L 86.473535 44.34813 
L 87.398688 43.143432 
L 88.323852 35.840411 
L 97.76512 39.496513 
L 98.500856 41.183273 
L 99.426031 39.993037 
L 100.351186 43.46343 
L 101.276348 40.405775 
L 102.201502 44.461529 
L 103.126656 41.535868 
L 104.051812 47.813472 
L 104.976967 43.666126 
L 105.902123 43.243977 
L 106.827282 42.1777 
L 107.752435 44.799203 
L 108.677594 43.83393 
L 109.602753 41.691275 
L 110.527909 45.0423 
L 111.453063 45.97842 
L 112.378223 45.52574 
L 113.303377 43.301595 
L 114.228537 40.693176 
L 115.153695 43.802481 
L 116.078848 43.805694 
L 117.004011 43.333273 
L 117.929158 46.722863 
L 118.854316 40.32589 
L 119.779481 43.689311 
L 120.704637 38.533076 
L 121.629794 41.51429 
L 122.554943 45.432541 
L 123.480104 41.825335 
L 124.405261 42.685013 
L 125.330416 42.920765 
L 126.255574 39.953095 
L 129.9562 43.747388 
L 130.881363 40.259549 
L 131.806516 46.761198 
L 132.731673 42.711642 
L 133.656831 12.714255 
L 134.581987 40.566233 
L 135.507147 42.405647 
L 136.432285 42.302118 
L 137.357455 42.379707 
L 138.282617 40.954179 
L 139.20777 44.259752 
L 140.13293 38.071673 
L 141.058084 42.294543 
L 141.983242 38.323264 
L 142.908395 40.365144 
L 143.833556 40.982414 
L 144.758724 40.39774 
L 145.683869 9.472727 
L 146.609028 40.352289 
L 147.534182 33.202839 
L 148.459339 43.157664 
L 149.384497 44.085979 
L 150.309651 42.115491 
L 151.234811 41.101552 
L 152.159963 37.047634 
L 179.91473 37.047634 
L 188.548948 40.998253 
L 189.166282 38.406821 
L 190.091439 31.146038 
L 191.016594 39.207275 
L 191.94175 41.244564 
L 192.866913 37.61555 
L 193.792066 42.106997 
L 194.717222 44.386236 
L 195.642377 39.388393 
L 196.567536 32.870675 
L 197.492695 39.224262 
L 198.417852 39.109256 
L 199.343013 38.013825 
L 200.268162 40.67068 
L 201.193322 37.88803 
L 202.118478 41.545968 
L 203.043636 38.898066 
" clip-path="url(#p6eb0e606dc)" style="fill: none; stroke: #339af0; stroke-width: 1.2; stroke-linecap: square"/>
   </g>
   <g id="line2d_18">
    <path d="M 43.916364 98.57881 
L 45.193108 98.539557 
L 45.766628 98.776456 
L 46.691788 98.80538 
L 47.616947 98.281997 
L 48.542109 98.216115 
L 49.467263 98.793672 
L 50.392418 98.765437 
L 51.317566 98.289802 
L 52.242732 98.643085 
L 53.167891 98.770488 
L 54.093049 98.586615 
L 55.018206 98.565037 
L 55.943359 98.72297 
L 56.868517 98.573301 
L 57.793676 98.142199 
L 58.718827 98.487677 
L 59.643987 98.294623 
L 60.569143 98.796427 
L 61.494301 98.823514 
L 62.419457 98.492039 
L 63.344613 98.544607 
L 64.269773 98.564348 
L 65.194924 98.866671 
L 66.120079 98.355684 
L 67.045243 98.590288 
L 67.970398 98.711033 
L 68.895557 98.787245 
L 69.82071 98.801018 
L 70.74585 98.863457 
L 71.671025 98.541163 
L 72.596178 98.84119 
L 73.521341 98.122228 
L 74.446495 98.639872 
L 75.371653 98.776456 
L 76.296805 98.471609 
L 77.221971 98.914647 
L 78.147114 98.563889 
L 79.072277 98.788163 
L 79.997435 98.488596 
L 80.922594 98.756255 
L 81.847735 98.259042 
L 82.772905 98.613932 
L 83.698046 98.199128 
L 84.623219 98.364407 
L 85.548376 98.848077 
L 86.473535 98.632067 
L 87.398688 98.477348 
L 88.323852 98.790229 
L 97.76512 98.680273 
L 98.500856 98.619441 
L 99.426031 98.697489 
L 100.351186 98.134853 
L 101.276348 98.709197 
L 102.201502 98.396545 
L 103.126656 98.02352 
L 104.051812 98.487907 
L 104.976967 98.697719 
L 105.902123 98.618982 
L 106.827282 98.772324 
L 107.752435 98.754419 
L 108.677594 98.482398 
L 109.602753 98.58409 
L 110.527909 98.633444 
L 111.453063 98.690373 
L 112.378223 98.618753 
L 113.303377 98.5531 
L 114.228537 98.453244 
L 115.153695 98.748221 
L 116.078848 98.854275 
L 117.004011 98.817776 
L 117.929158 98.139674 
L 118.854316 98.708508 
L 119.779481 97.891527 
L 120.704637 98.515224 
L 121.629794 98.422255 
L 122.554943 98.582713 
L 123.480104 98.843027 
L 124.405261 98.810889 
L 125.330416 98.21359 
L 126.255574 98.790918 
L 129.9562 98.665582 
L 130.881363 98.485841 
L 131.806516 98.374507 
L 132.731673 98.0956 
L 133.656831 98.49686 
L 134.581987 98.927273 
L 135.507147 98.526242 
L 136.432285 98.679125 
L 137.357455 98.537031 
L 138.282617 98.18283 
L 139.20777 98.677518 
L 140.13293 98.455769 
L 141.058084 97.704899 
L 141.983242 98.799641 
L 142.908395 98.384378 
L 143.833556 98.61508 
L 144.758724 98.478725 
L 145.683869 98.645151 
L 146.609028 98.297607 
L 147.534182 98.549886 
L 148.459339 98.462197 
L 149.384497 98.532899 
L 150.309651 98.546214 
L 151.234811 98.527161 
L 152.159963 98.198669 
L 179.91473 98.198669 
L 188.548948 98.650661 
L 189.166282 98.622196 
L 190.091439 98.555166 
L 191.016594 97.923205 
L 191.94175 98.686012 
L 192.866913 98.124523 
L 193.792066 98.588681 
L 194.717222 98.688996 
L 195.642377 98.76934 
L 196.567536 98.725495 
L 197.492695 98.424091 
L 198.417852 98.550805 
L 199.343013 98.639412 
L 200.268162 98.615309 
L 201.193322 98.70759 
L 202.118478 98.283145 
L 203.043636 98.580647 
" clip-path="url(#p6eb0e606dc)" style="fill: none; stroke: #ff6b6b; stroke-width: 1.2; stroke-linecap: square"/>
   </g>
   <g id="patch_3">
    <path d="M 35.96 103.4 
L 35.96 5 
" style="fill: none; stroke: var(--fg-color); stroke-width: 0.8; stroke-linejoin: miter; stroke-linecap: square"/>
   </g>
   <g id="patch_4">
    <path d="M 35.96 103.4 
L 211 103.4 
" style="fill: none; stroke: var(--fg-color); stroke-width: 0.8; stroke-linejoin: miter; stroke-linecap: square"/>
   </g>
  </g>
 </g>
 <defs>
  <clipPath id="p6eb0e606dc">
   <rect x="35.96" y="5" width="175.04" height="98.4"/>
  </clipPath>
 </defs>
</svg>
