<?xml version="1.0" encoding="utf-8" standalone="no"?>
<!DOCTYPE svg PUBLIC "-//W3C//DTD SVG 1.1//EN"
  "http://www.w3.org/Graphics/SVG/1.1/DTD/svg11.dtd">
<svg xmlns:xlink="http://www.w3.org/1999/xlink" width="216pt" height="122.4pt" viewBox="0 0 216 122.4" xmlns="http://www.w3.org/2000/svg" version="1.1">
  <style>
    :root {
      --fg-color: #212529;
      --grid-color: rgba(33, 37, 41, 0.1);
    }
    @media (prefers-color-scheme: dark) {
      :root {
        --fg-color: #dee2e6;
        --grid-color: rgba(248, 249, 250, 0.15);
      }
    }
  </style>

 <metadata>
  <rdf:RDF xmlns:dc="http://purl.org/dc/elements/1.1/" xmlns:cc="http://creativecommons.org/ns#" xmlns:rdf="http://www.w3.org/1999/02/22-rdf-syntax-ns#">
   <cc:Work>
    <dc:type rdf:resource="http://purl.org/dc/dcmitype/StillImage"/>
    <dc:date>2026-06-30T04:48:22.208208</dc:date>
    <dc:format>image/svg+xml</dc:format>
    <dc:creator>
     <cc:Agent>
      <dc:title>Matplotlib v3.11.0, https://matplotlib.org/</dc:title>
     </cc:Agent>
    </dc:creator>
   </cc:Work>
  </rdf:RDF>
 </metadata>
 <defs>
  <style type="text/css">*{stroke-linejoin: round; stroke-linecap: butt}</style>
 </defs>
 <g id="figure_1">
  <g id="patch_1">
   <path d="M 0 122.4 
L 216 122.4 
L 216 0 
L 0 0 
L 0 122.4 
z
" style="fill: none; opacity: 0"/>
  </g>
  <g id="axes_1">
   <g id="patch_2">
    <path d="M 35.96 103.4 
L 211 103.4 
L 211 5 
L 35.96 5 
L 35.96 103.4 
z
" style="fill: none; opacity: 0"/>
   </g>
   <g id="matplotlib.axis_1">
    <g id="xtick_1">
     <g id="line2d_1">
      <path d="M 70.996911 103.4 
L 70.996911 5 
" clip-path="url(#pe0365cd006)" style="fill: none; stroke-dasharray: 2.96,1.28; stroke-dashoffset: 0; stroke: var(--grid-color); stroke-width: 0.8"/>
     </g>
     <g id="line2d_2">
      <defs>
       <path id="m006bcb6a4d" d="M 0 0 
L 0 3.5 
" style="stroke: var(--fg-color); stroke-width: 0.8"/>
      </defs>
      <g>
       <use xlink:href="#m006bcb6a4d" x="70.996911" y="103.4" style="fill: var(--fg-color); stroke: var(--fg-color); stroke-width: 0.8"/>
      </g>
     </g>
     <g id="text_1">
      <text style="font-size: 7px; font-family: 'DejaVu Sans', 'Bitstream Vera Sans', 'Computer Modern Sans Serif', 'Lucida Grande', 'Verdana', 'Geneva', 'Lucid', 'Arial', 'Helvetica', 'Avant Garde', sans-serif; text-anchor: middle; fill: var(--fg-color)" x="70.996911" y="115.718359" transform="rotate(-0 70.996911 115.718359)">02/2026</text>
     </g>
    </g>
    <g id="xtick_2">
     <g id="line2d_3">
      <path d="M 126.022656 103.4 
L 126.022656 5 
" clip-path="url(#pe0365cd006)" style="fill: none; stroke-dasharray: 2.96,1.28; stroke-dashoffset: 0; stroke: var(--grid-color); stroke-width: 0.8"/>
     </g>
     <g id="line2d_4">
      <g>
       <use xlink:href="#m006bcb6a4d" x="126.022656" y="103.4" style="fill: var(--fg-color); stroke: var(--fg-color); stroke-width: 0.8"/>
      </g>
     </g>
     <g id="text_2">
      <text style="font-size: 7px; font-family: 'DejaVu Sans', 'Bitstream Vera Sans', 'Computer Modern Sans Serif', 'Lucida Grande', 'Verdana', 'Geneva', 'Lucid', 'Arial', 'Helvetica', 'Avant Garde', sans-serif; text-anchor: middle; fill: var(--fg-color)" x="126.022656" y="115.718359" transform="rotate(-0 126.022656 115.718359)">04/2026</text>
     </g>
    </g>
    <g id="xtick_3">
     <g id="line2d_5">
      <path d="M 182.913681 103.4 
L 182.913681 5 
" clip-path="url(#pe0365cd006)" style="fill: none; stroke-dasharray: 2.96,1.28; stroke-dashoffset: 0; stroke: var(--grid-color); stroke-width: 0.8"/>
     </g>
     <g id="line2d_6">
      <g>
       <use xlink:href="#m006bcb6a4d" x="182.913681" y="103.4" style="fill: var(--fg-color); stroke: var(--fg-color); stroke-width: 0.8"/>
      </g>
     </g>
     <g id="text_3">
      <text style="font-size: 7px; font-family: 'DejaVu Sans', 'Bitstream Vera Sans', 'Computer Modern Sans Serif', 'Lucida Grande', 'Verdana', 'Geneva', 'Lucid', 'Arial', 'Helvetica', 'Avant Garde', sans-serif; text-anchor: middle; fill: var(--fg-color)" x="182.913681" y="115.718359" transform="rotate(-0 182.913681 115.718359)">06/2026</text>
     </g>
    </g>
   </g>
   <g id="matplotlib.axis_2">
    <g id="ytick_1">
     <g id="line2d_7">
      <path d="M 35.96 94.377701 
L 211 94.377701 
" clip-path="url(#pe0365cd006)" style="fill: none; stroke-dasharray: 2.96,1.28; stroke-dashoffset: 0; stroke: var(--grid-color); stroke-width: 0.8"/>
     </g>
     <g id="line2d_8">
      <defs>
       <path id="m439d415849" d="M 0 0 
L -3.5 0 
" style="stroke: var(--fg-color); stroke-width: 0.8"/>
      </defs>
      <g>
       <use xlink:href="#m439d415849" x="35.96" y="94.377701" style="fill: var(--fg-color); stroke: var(--fg-color); stroke-width: 0.8"/>
      </g>
     </g>
     <g id="text_4">
      <text style="font-size: 7px; font-family: 'DejaVu Sans', 'Bitstream Vera Sans', 'Computer Modern Sans Serif', 'Lucida Grande', 'Verdana', 'Geneva', 'Lucid', 'Arial', 'Helvetica', 'Avant Garde', sans-serif; text-anchor: end; fill: var(--fg-color)" x="28.96" y="97.03688" transform="rotate(-0 28.96 97.03688)">100</text>
     </g>
    </g>
    <g id="ytick_2">
     <g id="line2d_9">
      <path d="M 35.96 73.082194 
L 211 73.082194 
" clip-path="url(#pe0365cd006)" style="fill: none; stroke-dasharray: 2.96,1.28; stroke-dashoffset: 0; stroke: var(--grid-color); stroke-width: 0.8"/>
     </g>
     <g id="line2d_10">
      <g>
       <use xlink:href="#m439d415849" x="35.96" y="73.082194" style="fill: var(--fg-color); stroke: var(--fg-color); stroke-width: 0.8"/>
      </g>
     </g>
     <g id="text_5">
      <text style="font-size: 7px; font-family: 'DejaVu Sans', 'Bitstream Vera Sans', 'Computer Modern Sans Serif', 'Lucida Grande', 'Verdana', 'Geneva', 'Lucid', 'Arial', 'Helvetica', 'Avant Garde', sans-serif; text-anchor: end; fill: var(--fg-color)" x="28.96" y="75.741373" transform="rotate(-0 28.96 75.741373)">200</text>
     </g>
    </g>
    <g id="ytick_3">
     <g id="line2d_11">
      <path d="M 35.96 51.786687 
L 211 51.786687 
" clip-path="url(#pe0365cd006)" style="fill: none; stroke-dasharray: 2.96,1.28; stroke-dashoffset: 0; stroke: var(--grid-color); stroke-width: 0.8"/>
     </g>
     <g id="line2d_12">
      <g>
       <use xlink:href="#m439d415849" x="35.96" y="51.786687" style="fill: var(--fg-color); stroke: var(--fg-color); stroke-width: 0.8"/>
      </g>
     </g>
     <g id="text_6">
      <text style="font-size: 7px; font-family: 'DejaVu Sans', 'Bitstream Vera Sans', 'Computer Modern Sans Serif', 'Lucida Grande', 'Verdana', 'Geneva', 'Lucid', 'Arial', 'Helvetica', 'Avant Garde', sans-serif; text-anchor: end; fill: var(--fg-color)" x="28.96" y="54.445866" transform="rotate(-0 28.96 54.445866)">300</text>
     </g>
    </g>
    <g id="ytick_4">
     <g id="line2d_13">
      <path d="M 35.96 30.49118 
L 211 30.49118 
" clip-path="url(#pe0365cd006)" style="fill: none; stroke-dasharray: 2.96,1.28; stroke-dashoffset: 0; stroke: var(--grid-color); stroke-width: 0.8"/>
     </g>
     <g id="line2d_14">
      <g>
       <use xlink:href="#m439d415849" x="35.96" y="30.49118" style="fill: var(--fg-color); stroke: var(--fg-color); stroke-width: 0.8"/>
      </g>
     </g>
     <g id="text_7">
      <text style="font-size: 7px; font-family: 'DejaVu Sans', 'Bitstream Vera Sans', 'Computer Modern Sans Serif', 'Lucida Grande', 'Verdana', 'Geneva', 'Lucid', 'Arial', 'Helvetica', 'Avant Garde', sans-serif; text-anchor: end; fill: var(--fg-color)" x="28.96" y="33.150359" transform="rotate(-0 28.96 33.150359)">400</text>
     </g>
    </g>
    <g id="ytick_5">
     <g id="line2d_15">
      <path d="M 35.96 9.195673 
L 211 9.195673 
" clip-path="url(#pe0365cd006)" style="fill: none; stroke-dasharray: 2.96,1.28; stroke-dashoffset: 0; stroke: var(--grid-color); stroke-width: 0.8"/>
     </g>
     <g id="line2d_16">
      <g>
       <use xlink:href="#m439d415849" x="35.96" y="9.195673" style="fill: var(--fg-color); stroke: var(--fg-color); stroke-width: 0.8"/>
      </g>
     </g>
     <g id="text_8">
      <text style="font-size: 7px; font-family: 'DejaVu Sans', 'Bitstream Vera Sans', 'Computer Modern Sans Serif', 'Lucida Grande', 'Verdana', 'Geneva', 'Lucid', 'Arial', 'Helvetica', 'Avant Garde', sans-serif; text-anchor: end; fill: var(--fg-color)" x="28.96" y="11.854852" transform="rotate(-0 28.96 11.854852)">500</text>
     </g>
    </g>
    <g id="text_9">
     <text style="font-size: 7px; font-family: 'DejaVu Sans', 'Bitstream Vera Sans', 'Computer Modern Sans Serif', 'Lucida Grande', 'Verdana', 'Geneva', 'Lucid', 'Arial', 'Helvetica', 'Avant Garde', sans-serif; text-anchor: middle; fill: var(--fg-color)" x="9.917109" y="54.2" transform="rotate(-90 9.917109 54.2)">ms</text>
    </g>
   </g>
   <g id="line2d_17">
    <path d="M 43.916364 31.327241 
L 44.494523 26.555983 
L 45.427166 9.875851 
L 46.359808 44.920589 
L 47.292453 29.553113 
L 48.22509 31.279965 
L 49.157727 29.470273 
L 50.090359 37.112592 
L 51.023007 25.03953 
L 51.95565 26.064057 
L 52.88829 25.865583 
L 53.82093 31.703959 
L 54.753566 31.186904 
L 55.686208 27.379054 
L 56.618849 27.685284 
L 57.551483 40.858258 
L 58.484126 29.237939 
L 59.416765 31.906266 
L 60.349406 33.806677 
L 61.282045 23.280095 
L 62.214684 25.927127 
L 63.147327 21.431219 
L 64.07996 32.100694 
L 65.012598 30.024808 
L 65.945245 30.925821 
L 66.877884 18.734356 
L 67.810526 33.716384 
L 68.743162 26.087908 
L 69.675784 28.320103 
L 70.608443 30.919645 
L 71.541078 31.753151 
L 72.473724 27.445709 
L 73.406361 33.272373 
L 74.339003 27.315381 
L 75.271637 29.191089 
L 76.204286 21.512355 
L 77.136912 30.07826 
L 78.069558 32.245078 
L 79.002199 34.965153 
L 79.934841 23.118888 
L 80.867465 20.785326 
L 81.800118 36.078056 
L 82.732742 14.110463 
L 83.665398 23.754772 
L 84.598038 35.698996 
L 85.53068 25.209255 
L 86.463316 34.981124 
L 87.395962 24.386397 
L 96.913595 19.686904 
L 97.655282 25.507179 
L 98.587939 25.77316 
L 99.520578 28.102463 
L 100.453222 18.77929 
L 101.385859 28.043261 
L 102.318497 27.596481 
L 103.251135 31.473541 
L 104.183773 31.728023 
L 105.116412 13.268225 
L 106.049054 30.809548 
L 106.981691 38.819852 
L 107.914333 15.884166 
L 108.846974 9.977644 
L 109.779613 27.592009 
L 110.71225 30.003939 
L 111.644893 34.098 
L 112.57753 37.339176 
L 113.510173 31.519114 
L 114.442814 24.812946 
L 115.37545 29.891498 
L 116.308095 36.653886 
L 117.240726 38.675682 
L 118.173367 25.669877 
L 119.106014 21.236791 
L 120.038653 23.935571 
L 120.971293 29.309279 
L 121.903926 32.675034 
L 122.836569 16.179321 
L 123.769209 35.838907 
L 124.701847 32.211005 
L 125.634489 15.817298 
L 129.365046 34.923627 
L 130.297692 27.71382 
L 131.230328 32.146054 
L 132.162968 17.862305 
L 133.095609 17.187238 
L 134.028248 24.52354 
L 134.960891 31.559362 
L 135.893512 17.052437 
L 136.826165 42.707986 
L 137.75881 9.472727 
L 138.691446 15.818575 
L 139.624089 13.021198 
L 140.556726 31.645609 
L 141.489366 31.271873 
L 142.422003 25.700755 
L 143.354646 23.589945 
L 144.287298 22.701922 
L 145.219926 23.721551 
L 146.152567 22.319455 
L 147.085204 19.262485 
L 148.017844 22.9958 
L 148.950485 28.556483 
L 149.883123 22.436154 
L 150.815765 26.100472 
L 151.7484 15.073659 
L 179.727656 15.073659 
L 188.43171 28.247272 
L 189.054038 30.342111 
L 189.986678 28.654442 
L 190.919315 23.081834 
L 191.851955 32.097713 
L 192.7846 31.354287 
L 193.717237 22.396119 
L 194.649875 28.216181 
L 195.582513 24.111046 
L 196.515156 28.393359 
L 197.447798 19.236504 
L 198.380437 31.165821 
L 199.313081 34.905738 
L 200.245713 32.53853 
L 201.178356 33.883128 
L 202.110995 30.575723 
L 203.043636 33.703607 
" clip-path="url(#pe0365cd006)" style="fill: none; stroke: #339af0; stroke-width: 1.2; stroke-linecap: square"/>
   </g>
   <g id="line2d_18">
    <path d="M 43.916364 96.873747 
L 44.494523 96.994705 
L 45.427166 98.161912 
L 46.359808 97.251955 
L 47.292453 97.054546 
L 48.22509 96.551972 
L 49.157727 97.69043 
L 50.090359 98.093341 
L 51.023007 97.179976 
L 51.95565 97.340757 
L 52.88829 97.034954 
L 53.82093 96.409718 
L 54.753566 96.686985 
L 55.686208 97.479178 
L 56.618849 97.01089 
L 57.551483 97.528158 
L 58.484126 98.63808 
L 59.416765 97.342887 
L 60.349406 97.651033 
L 61.282045 98.368053 
L 62.214684 98.306722 
L 63.147327 97.819693 
L 64.07996 96.746187 
L 65.012598 97.865266 
L 65.945245 97.118006 
L 66.877884 96.956587 
L 67.810526 97.264307 
L 68.743162 96.373303 
L 69.675784 97.220651 
L 70.608443 96.930819 
L 71.541078 97.910199 
L 72.473724 97.294759 
L 73.406361 97.733021 
L 74.339003 96.468281 
L 75.271637 97.84972 
L 76.204286 96.234669 
L 77.136912 96.741715 
L 78.069558 96.978947 
L 79.002199 98.435559 
L 79.934841 96.448263 
L 80.867465 98.109738 
L 81.800118 97.781361 
L 82.732742 96.945726 
L 83.665398 98.019871 
L 84.598038 97.383774 
L 85.53068 96.940615 
L 86.463316 97.637404 
L 87.395962 95.949096 
L 96.913595 96.606062 
L 97.655282 98.246881 
L 98.587939 96.581573 
L 99.520578 95.752539 
L 100.453222 96.845424 
L 101.385859 97.066684 
L 102.318497 96.744057 
L 103.251135 97.367164 
L 104.183773 96.79687 
L 105.116412 96.09497 
L 106.049054 96.811777 
L 106.981691 98.40532 
L 107.914333 96.804537 
L 108.846974 97.27751 
L 109.779613 96.499585 
L 110.71225 98.030945 
L 111.644893 96.355414 
L 112.57753 96.95254 
L 113.510173 96.417384 
L 114.442814 97.006844 
L 115.37545 96.830943 
L 116.308095 97.625691 
L 117.240726 98.227502 
L 118.173367 98.098239 
L 119.106014 97.40869 
L 120.038653 97.007483 
L 120.971293 97.62995 
L 121.903926 97.703846 
L 122.836569 95.87946 
L 123.769209 97.602692 
L 124.701847 97.056249 
L 125.634489 97.163366 
L 129.365046 97.197865 
L 130.297692 97.320314 
L 131.230328 98.157866 
L 132.162968 96.432504 
L 133.095609 97.929152 
L 134.028248 95.789167 
L 134.960891 98.138487 
L 135.893512 97.108849 
L 136.826165 98.284574 
L 137.75881 96.832008 
L 138.691446 97.761131 
L 139.624089 97.099905 
L 140.556726 95.840276 
L 141.489366 97.109914 
L 142.422003 96.644607 
L 143.354646 97.821397 
L 144.287298 96.719568 
L 145.219926 96.252557 
L 146.152567 95.807481 
L 147.085204 97.497066 
L 148.017844 96.423986 
L 148.950485 97.40145 
L 149.883123 96.325814 
L 150.815765 96.874599 
L 151.7484 95.854544 
L 179.727656 95.854544 
L 188.43171 97.967058 
L 189.054038 96.317082 
L 189.986678 97.690856 
L 190.919315 96.392681 
L 191.851955 96.505974 
L 192.7846 98.553537 
L 193.717237 97.492169 
L 194.649875 97.379941 
L 195.582513 97.542 
L 196.515156 97.651885 
L 197.447798 97.94342 
L 198.380437 97.813305 
L 199.313081 98.083758 
L 200.245713 98.927273 
L 201.178356 98.897672 
L 202.110995 98.217706 
L 203.043636 98.509029 
" clip-path="url(#pe0365cd006)" style="fill: none; stroke: #ff6b6b; stroke-width: 1.2; stroke-linecap: square"/>
   </g>
   <g id="patch_3">
    <path d="M 35.96 103.4 
L 35.96 5 
" style="fill: none; stroke: var(--fg-color); stroke-width: 0.8; stroke-linejoin: miter; stroke-linecap: square"/>
   </g>
   <g id="patch_4">
    <path d="M 35.96 103.4 
L 211 103.4 
" style="fill: none; stroke: var(--fg-color); stroke-width: 0.8; stroke-linejoin: miter; stroke-linecap: square"/>
   </g>
  </g>
 </g>
 <defs>
  <clipPath id="pe0365cd006">
   <rect x="35.96" y="5" width="175.04" height="98.4"/>
  </clipPath>
 </defs>
</svg>
