<?xml version="1.0" encoding="utf-8" standalone="no"?>
<!DOCTYPE svg PUBLIC "-//W3C//DTD SVG 1.1//EN"
  "http://www.w3.org/Graphics/SVG/1.1/DTD/svg11.dtd">
<svg xmlns:xlink="http://www.w3.org/1999/xlink" width="216pt" height="122.4pt" viewBox="0 0 216 122.4" xmlns="http://www.w3.org/2000/svg" version="1.1">
  <style>
    :root {
      --fg-color: #212529;
      --grid-color: rgba(33, 37, 41, 0.1);
    }
    @media (prefers-color-scheme: dark) {
      :root {
        --fg-color: #dee2e6;
        --grid-color: rgba(248, 249, 250, 0.15);
      }
    }
  </style>

 <metadata>
  <rdf:RDF xmlns:dc="http://purl.org/dc/elements/1.1/" xmlns:cc="http://creativecommons.org/ns#" xmlns:rdf="http://www.w3.org/1999/02/22-rdf-syntax-ns#">
   <cc:Work>
    <dc:type rdf:resource="http://purl.org/dc/dcmitype/StillImage"/>
    <dc:date>2026-06-30T15:37:58.694548</dc:date>
    <dc:format>image/svg+xml</dc:format>
    <dc:creator>
     <cc:Agent>
      <dc:title>Matplotlib v3.11.0, https://matplotlib.org/</dc:title>
     </cc:Agent>
    </dc:creator>
   </cc:Work>
  </rdf:RDF>
 </metadata>
 <defs>
  <style type="text/css">*{stroke-linejoin: round; stroke-linecap: butt}</style>
 </defs>
 <g id="figure_1">
  <g id="patch_1">
   <path d="M 0 122.4 
L 216 122.4 
L 216 0 
L 0 0 
L 0 122.4 
z
" style="fill: none; opacity: 0"/>
  </g>
  <g id="axes_1">
   <g id="patch_2">
    <path d="M 35.96 103.4 
L 211 103.4 
L 211 6.550945 
L 35.96 6.550945 
L 35.96 103.4 
z
" style="fill: none; opacity: 0"/>
   </g>
   <g id="matplotlib.axis_1">
    <g id="xtick_1">
     <g id="line2d_1">
      <path d="M 69.784035 103.4 
L 69.784035 6.550945 
" clip-path="url(#p426c985960)" style="fill: none; stroke-dasharray: 2.96,1.28; stroke-dashoffset: 0; stroke: var(--grid-color); stroke-width: 0.8"/>
     </g>
     <g id="line2d_2">
      <defs>
       <path id="m69fc4e12e0" d="M 0 0 
L 0 3.5 
" style="stroke: var(--fg-color); stroke-width: 0.8"/>
      </defs>
      <g>
       <use xlink:href="#m69fc4e12e0" x="69.784035" y="103.4" style="fill: var(--fg-color); stroke: var(--fg-color); stroke-width: 0.8"/>
      </g>
     </g>
     <g id="text_1">
      <text style="font-size: 7px; font-family: 'DejaVu Sans', 'Bitstream Vera Sans', 'Computer Modern Sans Serif', 'Lucida Grande', 'Verdana', 'Geneva', 'Lucid', 'Arial', 'Helvetica', 'Avant Garde', sans-serif; text-anchor: middle; fill: var(--fg-color)" x="69.784035" y="115.718359" transform="rotate(-0 69.784035 115.718359)">02/2026</text>
     </g>
    </g>
    <g id="xtick_2">
     <g id="line2d_3">
      <path d="M 122.345302 103.4 
L 122.345302 6.550945 
" clip-path="url(#p426c985960)" style="fill: none; stroke-dasharray: 2.96,1.28; stroke-dashoffset: 0; stroke: var(--grid-color); stroke-width: 0.8"/>
     </g>
     <g id="line2d_4">
      <g>
       <use xlink:href="#m69fc4e12e0" x="122.345302" y="103.4" style="fill: var(--fg-color); stroke: var(--fg-color); stroke-width: 0.8"/>
      </g>
     </g>
     <g id="text_2">
      <text style="font-size: 7px; font-family: 'DejaVu Sans', 'Bitstream Vera Sans', 'Computer Modern Sans Serif', 'Lucida Grande', 'Verdana', 'Geneva', 'Lucid', 'Arial', 'Helvetica', 'Avant Garde', sans-serif; text-anchor: middle; fill: var(--fg-color)" x="122.345302" y="115.718359" transform="rotate(-0 122.345302 115.718359)">04/2026</text>
     </g>
    </g>
    <g id="xtick_3">
     <g id="line2d_5">
      <path d="M 176.688307 103.4 
L 176.688307 6.550945 
" clip-path="url(#p426c985960)" style="fill: none; stroke-dasharray: 2.96,1.28; stroke-dashoffset: 0; stroke: var(--grid-color); stroke-width: 0.8"/>
     </g>
     <g id="line2d_6">
      <g>
       <use xlink:href="#m69fc4e12e0" x="176.688307" y="103.4" style="fill: var(--fg-color); stroke: var(--fg-color); stroke-width: 0.8"/>
      </g>
     </g>
     <g id="text_3">
      <text style="font-size: 7px; font-family: 'DejaVu Sans', 'Bitstream Vera Sans', 'Computer Modern Sans Serif', 'Lucida Grande', 'Verdana', 'Geneva', 'Lucid', 'Arial', 'Helvetica', 'Avant Garde', sans-serif; text-anchor: middle; fill: var(--fg-color)" x="176.688307" y="115.718359" transform="rotate(-0 176.688307 115.718359)">06/2026</text>
     </g>
    </g>
   </g>
   <g id="matplotlib.axis_2">
    <g id="ytick_1">
     <g id="line2d_7">
      <path d="M 35.96 99.720518 
L 211 99.720518 
" clip-path="url(#p426c985960)" style="fill: none; stroke-dasharray: 2.96,1.28; stroke-dashoffset: 0; stroke: var(--grid-color); stroke-width: 0.8"/>
     </g>
     <g id="line2d_8">
      <defs>
       <path id="me228977ea1" d="M 0 0 
L -3.5 0 
" style="stroke: var(--fg-color); stroke-width: 0.8"/>
      </defs>
      <g>
       <use xlink:href="#me228977ea1" x="35.96" y="99.720518" style="fill: var(--fg-color); stroke: var(--fg-color); stroke-width: 0.8"/>
      </g>
     </g>
     <g id="text_4">
      <text style="font-size: 7px; font-family: 'DejaVu Sans', 'Bitstream Vera Sans', 'Computer Modern Sans Serif', 'Lucida Grande', 'Verdana', 'Geneva', 'Lucid', 'Arial', 'Helvetica', 'Avant Garde', sans-serif; text-anchor: end; fill: var(--fg-color)" x="28.96" y="102.379698" transform="rotate(-0 28.96 102.379698)">0</text>
     </g>
    </g>
    <g id="ytick_2">
     <g id="line2d_9">
      <path d="M 35.96 69.043601 
L 211 69.043601 
" clip-path="url(#p426c985960)" style="fill: none; stroke-dasharray: 2.96,1.28; stroke-dashoffset: 0; stroke: var(--grid-color); stroke-width: 0.8"/>
     </g>
     <g id="line2d_10">
      <g>
       <use xlink:href="#me228977ea1" x="35.96" y="69.043601" style="fill: var(--fg-color); stroke: var(--fg-color); stroke-width: 0.8"/>
      </g>
     </g>
     <g id="text_5">
      <text style="font-size: 7px; font-family: 'DejaVu Sans', 'Bitstream Vera Sans', 'Computer Modern Sans Serif', 'Lucida Grande', 'Verdana', 'Geneva', 'Lucid', 'Arial', 'Helvetica', 'Avant Garde', sans-serif; text-anchor: end; fill: var(--fg-color)" x="28.96" y="71.70278" transform="rotate(-0 28.96 71.70278)">50</text>
     </g>
    </g>
    <g id="ytick_3">
     <g id="line2d_11">
      <path d="M 35.96 38.366683 
L 211 38.366683 
" clip-path="url(#p426c985960)" style="fill: none; stroke-dasharray: 2.96,1.28; stroke-dashoffset: 0; stroke: var(--grid-color); stroke-width: 0.8"/>
     </g>
     <g id="line2d_12">
      <g>
       <use xlink:href="#me228977ea1" x="35.96" y="38.366683" style="fill: var(--fg-color); stroke: var(--fg-color); stroke-width: 0.8"/>
      </g>
     </g>
     <g id="text_6">
      <text style="font-size: 7px; font-family: 'DejaVu Sans', 'Bitstream Vera Sans', 'Computer Modern Sans Serif', 'Lucida Grande', 'Verdana', 'Geneva', 'Lucid', 'Arial', 'Helvetica', 'Avant Garde', sans-serif; text-anchor: end; fill: var(--fg-color)" x="28.96" y="41.025862" transform="rotate(-0 28.96 41.025862)">100</text>
     </g>
    </g>
    <g id="ytick_4">
     <g id="line2d_13">
      <path d="M 35.96 7.689765 
L 211 7.689765 
" clip-path="url(#p426c985960)" style="fill: none; stroke-dasharray: 2.96,1.28; stroke-dashoffset: 0; stroke: var(--grid-color); stroke-width: 0.8"/>
     </g>
     <g id="line2d_14">
      <g>
       <use xlink:href="#me228977ea1" x="35.96" y="7.689765" style="fill: var(--fg-color); stroke: var(--fg-color); stroke-width: 0.8"/>
      </g>
     </g>
     <g id="text_7">
      <text style="font-size: 7px; font-family: 'DejaVu Sans', 'Bitstream Vera Sans', 'Computer Modern Sans Serif', 'Lucida Grande', 'Verdana', 'Geneva', 'Lucid', 'Arial', 'Helvetica', 'Avant Garde', sans-serif; text-anchor: end; fill: var(--fg-color)" x="28.96" y="10.348944" transform="rotate(-0 28.96 10.348944)">150</text>
     </g>
    </g>
    <g id="text_8">
     <text style="font-size: 7px; font-family: 'DejaVu Sans', 'Bitstream Vera Sans', 'Computer Modern Sans Serif', 'Lucida Grande', 'Verdana', 'Geneva', 'Lucid', 'Arial', 'Helvetica', 'Avant Garde', sans-serif; text-anchor: middle; fill: var(--fg-color)" x="9.917109" y="54.975473" transform="rotate(-90 9.917109 54.975473)">ms</text>
    </g>
   </g>
   <g id="line2d_15">
    <path d="M 43.916364 75.420105 
L 44.468628 76.342866 
L 45.3595 80.546218 
L 46.250371 76.974811 
L 47.141245 76.977265 
L 48.032112 78.876166 
L 48.922979 76.958245 
L 49.81384 79.704443 
L 50.704717 80.722303 
L 51.595589 75.504773 
L 52.486458 80.646224 
L 54.268192 74.761164 
L 55.159063 80.12349 
L 56.049934 75.055663 
L 56.940797 76.322006 
L 57.831669 80.665858 
L 58.722538 77.809223 
L 59.613407 77.273604 
L 60.504275 78.199433 
L 61.395144 78.90623 
L 62.286016 74.236589 
L 63.176879 77.855852 
L 64.067746 79.679288 
L 64.958622 78.316619 
L 65.84949 76.1042 
L 66.740361 75.378998 
L 67.631226 80.445597 
L 68.522078 78.396379 
L 69.412965 75.88578 
L 70.30383 73.738396 
L 71.194705 75.933023 
L 72.085571 76.069228 
L 72.976442 77.474231 
L 73.867306 77.168075 
L 74.758184 79.376814 
L 75.649039 76.609142 
L 76.539914 74.432308 
L 77.430784 79.435713 
L 78.321655 75.368567 
L 79.212509 74.976516 
L 80.103391 69.898259 
L 80.994245 77.896959 
L 81.885129 76.527541 
L 82.775998 79.484183 
L 83.666869 76.456371 
L 84.557735 77.414104 
L 85.44861 77.218999 
L 94.53997 65.114501 
L 95.248438 80.703897 
L 96.139324 78.8369 
L 97.030192 77.882848 
L 97.921065 72.30333 
L 98.811931 77.863828 
L 99.702798 79.776841 
L 100.593666 80.229018 
L 101.484533 78.54915 
L 102.375401 78.196366 
L 103.266272 79.421602 
L 104.157138 77.908003 
L 105.048009 80.540696 
L 105.93888 79.992193 
L 106.829748 76.755164 
L 107.720614 78.557126 
L 108.611487 74.102224 
L 109.502352 79.76457 
L 110.393224 73.439603 
L 111.284094 78.752845 
L 112.17496 72.118041 
L 113.065834 76.636138 
L 113.956695 77.274218 
L 114.847564 69.588423 
L 115.738441 78.899481 
L 116.629309 78.83874 
L 117.520178 78.233792 
L 118.41104 74.526793 
L 119.301913 75.112108 
L 120.192782 78.58719 
L 121.083649 75.423786 
L 121.97452 76.968062 
L 125.537994 77.923341 
L 126.428869 80.260922 
L 127.319734 77.223294 
L 128.210603 75.610302 
L 129.101474 76.201753 
L 129.992342 74.026759 
L 130.883214 74.874669 
L 131.774065 76.151442 
L 132.664946 77.639273 
L 133.55582 76.047141 
L 134.446686 76.046527 
L 135.337558 77.850944 
L 136.228424 77.40122 
L 137.119294 73.9108 
L 138.010159 78.539947 
L 138.901032 78.365089 
L 139.791912 75.307214 
L 140.68277 77.503681 
L 142.464507 74.567286 
L 143.355376 78.735666 
L 144.246246 77.525155 
L 145.137113 75.788228 
L 146.027984 76.622026 
L 146.918849 73.467212 
L 173.644977 73.467212 
L 181.959197 73.053687 
L 182.553652 67.357597 
L 183.444521 71.880602 
L 184.335387 70.812432 
L 185.226256 71.543769 
L 186.117131 76.571103 
L 187.007996 77.928863 
L 187.898864 71.590398 
L 188.789731 74.95627 
L 189.680603 74.115722 
L 190.571474 68.984087 
L 191.462343 10.953175 
L 192.353215 74.286899 
L 193.244077 56.80167 
L 194.134949 70.522842 
L 195.025817 79.120355 
L 195.916688 75.456303 
L 196.807557 74.645206 
L 197.698426 77.078499 
L 198.589295 73.112587 
L 199.480162 71.753599 
L 200.371032 76.309122 
L 201.261898 77.254584 
L 202.152766 74.596123 
L 203.043636 73.191733 
L 203.043636 73.191733 
" clip-path="url(#p426c985960)" style="fill: none; stroke: #339af0; stroke-width: 1.2; stroke-linecap: square"/>
   </g>
   <g id="line2d_16">
    <path d="M 43.916364 98.945006 
L 52.486458 98.948687 
L 56.049934 98.908807 
L 56.940797 98.864632 
L 57.831669 98.994703 
L 59.613407 98.895309 
L 61.395144 98.925373 
L 64.067746 98.911261 
L 64.958622 98.949301 
L 65.84949 98.842545 
L 66.740361 98.952368 
L 69.412965 98.851748 
L 70.30383 98.938257 
L 71.194705 98.814322 
L 72.085571 98.803279 
L 72.976442 98.964639 
L 74.758184 98.930895 
L 76.539914 98.940098 
L 78.321655 98.898991 
L 79.212509 98.877517 
L 80.103391 98.629647 
L 80.994245 98.918624 
L 82.775998 98.957277 
L 83.666869 98.879357 
L 85.44861 98.900218 
L 96.139324 98.91801 
L 98.811931 98.765239 
L 99.702798 98.95605 
L 103.266272 98.938257 
L 104.157138 98.73763 
L 105.048009 98.979364 
L 109.502352 98.951141 
L 110.393224 98.459084 
L 111.284094 98.919237 
L 113.065834 98.784259 
L 113.956695 98.99777 
L 115.738441 98.868927 
L 117.520178 98.900218 
L 118.41104 98.917397 
L 119.301913 98.770148 
L 120.192782 98.88672 
L 129.101474 98.875063 
L 129.992342 98.659711 
L 131.774065 98.922305 
L 132.664946 97.981751 
L 133.55582 98.906353 
L 135.337558 98.884879 
L 136.228424 98.159063 
L 137.119294 98.881198 
L 139.791912 98.911875 
L 141.57364 98.879357 
L 146.027984 98.905739 
L 146.918849 98.815549 
L 173.644977 98.815549 
L 183.444521 98.858497 
L 185.226256 98.821685 
L 187.007996 98.804506 
L 187.898864 98.841318 
L 188.789731 98.406319 
L 189.680603 98.714316 
L 190.571474 98.558477 
L 191.462343 98.844999 
L 194.134949 98.823525 
L 198.589295 98.801438 
L 199.480162 98.697136 
L 200.371032 98.740698 
L 201.261898 98.916783 
L 203.043636 98.815549 
L 203.043636 98.815549 
" clip-path="url(#p426c985960)" style="fill: none; stroke: #ff6b6b; stroke-width: 1.2; stroke-linecap: square"/>
   </g>
   <g id="patch_3">
    <path d="M 35.96 103.4 
L 35.96 6.550945 
" style="fill: none; stroke: var(--fg-color); stroke-width: 0.8; stroke-linejoin: miter; stroke-linecap: square"/>
   </g>
   <g id="patch_4">
    <path d="M 35.96 103.4 
L 211 103.4 
" style="fill: none; stroke: var(--fg-color); stroke-width: 0.8; stroke-linejoin: miter; stroke-linecap: square"/>
   </g>
  </g>
 </g>
 <defs>
  <clipPath id="p426c985960">
   <rect x="35.96" y="6.550945" width="175.04" height="96.849055"/>
  </clipPath>
 </defs>
</svg>
