<?xml version="1.0" encoding="utf-8" standalone="no"?>
<!DOCTYPE svg PUBLIC "-//W3C//DTD SVG 1.1//EN"
  "http://www.w3.org/Graphics/SVG/1.1/DTD/svg11.dtd">
<svg xmlns:xlink="http://www.w3.org/1999/xlink" width="216pt" height="122.4pt" viewBox="0 0 216 122.4" xmlns="http://www.w3.org/2000/svg" version="1.1">
  <style>
    :root {
      --fg-color: #212529;
      --grid-color: rgba(33, 37, 41, 0.1);
    }
    @media (prefers-color-scheme: dark) {
      :root {
        --fg-color: #dee2e6;
        --grid-color: rgba(248, 249, 250, 0.15);
      }
    }
  </style>

 <metadata>
  <rdf:RDF xmlns:dc="http://purl.org/dc/elements/1.1/" xmlns:cc="http://creativecommons.org/ns#" xmlns:rdf="http://www.w3.org/1999/02/22-rdf-syntax-ns#">
   <cc:Work>
    <dc:type rdf:resource="http://purl.org/dc/dcmitype/StillImage"/>
    <dc:date>2026-06-30T15:37:44.126491</dc:date>
    <dc:format>image/svg+xml</dc:format>
    <dc:creator>
     <cc:Agent>
      <dc:title>Matplotlib v3.11.0, https://matplotlib.org/</dc:title>
     </cc:Agent>
    </dc:creator>
   </cc:Work>
  </rdf:RDF>
 </metadata>
 <defs>
  <style type="text/css">*{stroke-linejoin: round; stroke-linecap: butt}</style>
 </defs>
 <g id="figure_1">
  <g id="patch_1">
   <path d="M 0 122.4 
L 216 122.4 
L 216 0 
L 0 0 
L 0 122.4 
z
" style="fill: none; opacity: 0"/>
  </g>
  <g id="axes_1">
   <g id="patch_2">
    <path d="M 35.96 103.4 
L 211 103.4 
L 211 5 
L 35.96 5 
L 35.96 103.4 
z
" style="fill: none; opacity: 0"/>
   </g>
   <g id="matplotlib.axis_1">
    <g id="xtick_1">
     <g id="line2d_1">
      <path d="M 69.784035 103.4 
L 69.784035 5 
" clip-path="url(#p9eacae6c0d)" style="fill: none; stroke-dasharray: 2.96,1.28; stroke-dashoffset: 0; stroke: var(--grid-color); stroke-width: 0.8"/>
     </g>
     <g id="line2d_2">
      <defs>
       <path id="m666b937ff1" d="M 0 0 
L 0 3.5 
" style="stroke: var(--fg-color); stroke-width: 0.8"/>
      </defs>
      <g>
       <use xlink:href="#m666b937ff1" x="69.784035" y="103.4" style="fill: var(--fg-color); stroke: var(--fg-color); stroke-width: 0.8"/>
      </g>
     </g>
     <g id="text_1">
      <text style="font-size: 7px; font-family: 'DejaVu Sans', 'Bitstream Vera Sans', 'Computer Modern Sans Serif', 'Lucida Grande', 'Verdana', 'Geneva', 'Lucid', 'Arial', 'Helvetica', 'Avant Garde', sans-serif; text-anchor: middle; fill: var(--fg-color)" x="69.784035" y="115.718359" transform="rotate(-0 69.784035 115.718359)">02/2026</text>
     </g>
    </g>
    <g id="xtick_2">
     <g id="line2d_3">
      <path d="M 122.345302 103.4 
L 122.345302 5 
" clip-path="url(#p9eacae6c0d)" style="fill: none; stroke-dasharray: 2.96,1.28; stroke-dashoffset: 0; stroke: var(--grid-color); stroke-width: 0.8"/>
     </g>
     <g id="line2d_4">
      <g>
       <use xlink:href="#m666b937ff1" x="122.345302" y="103.4" style="fill: var(--fg-color); stroke: var(--fg-color); stroke-width: 0.8"/>
      </g>
     </g>
     <g id="text_2">
      <text style="font-size: 7px; font-family: 'DejaVu Sans', 'Bitstream Vera Sans', 'Computer Modern Sans Serif', 'Lucida Grande', 'Verdana', 'Geneva', 'Lucid', 'Arial', 'Helvetica', 'Avant Garde', sans-serif; text-anchor: middle; fill: var(--fg-color)" x="122.345302" y="115.718359" transform="rotate(-0 122.345302 115.718359)">04/2026</text>
     </g>
    </g>
    <g id="xtick_3">
     <g id="line2d_5">
      <path d="M 176.688307 103.4 
L 176.688307 5 
" clip-path="url(#p9eacae6c0d)" style="fill: none; stroke-dasharray: 2.96,1.28; stroke-dashoffset: 0; stroke: var(--grid-color); stroke-width: 0.8"/>
     </g>
     <g id="line2d_6">
      <g>
       <use xlink:href="#m666b937ff1" x="176.688307" y="103.4" style="fill: var(--fg-color); stroke: var(--fg-color); stroke-width: 0.8"/>
      </g>
     </g>
     <g id="text_3">
      <text style="font-size: 7px; font-family: 'DejaVu Sans', 'Bitstream Vera Sans', 'Computer Modern Sans Serif', 'Lucida Grande', 'Verdana', 'Geneva', 'Lucid', 'Arial', 'Helvetica', 'Avant Garde', sans-serif; text-anchor: middle; fill: var(--fg-color)" x="176.688307" y="115.718359" transform="rotate(-0 176.688307 115.718359)">06/2026</text>
     </g>
    </g>
   </g>
   <g id="matplotlib.axis_2">
    <g id="ytick_1">
     <g id="line2d_7">
      <path d="M 35.96 99.613866 
L 211 99.613866 
" clip-path="url(#p9eacae6c0d)" style="fill: none; stroke-dasharray: 2.96,1.28; stroke-dashoffset: 0; stroke: var(--grid-color); stroke-width: 0.8"/>
     </g>
     <g id="line2d_8">
      <defs>
       <path id="mc551ec4c13" d="M 0 0 
L -3.5 0 
" style="stroke: var(--fg-color); stroke-width: 0.8"/>
      </defs>
      <g>
       <use xlink:href="#mc551ec4c13" x="35.96" y="99.613866" style="fill: var(--fg-color); stroke: var(--fg-color); stroke-width: 0.8"/>
      </g>
     </g>
     <g id="text_4">
      <text style="font-size: 7px; font-family: 'DejaVu Sans', 'Bitstream Vera Sans', 'Computer Modern Sans Serif', 'Lucida Grande', 'Verdana', 'Geneva', 'Lucid', 'Arial', 'Helvetica', 'Avant Garde', sans-serif; text-anchor: end; fill: var(--fg-color)" x="28.96" y="102.273046" transform="rotate(-0 28.96 102.273046)">0</text>
     </g>
    </g>
    <g id="ytick_2">
     <g id="line2d_9">
      <path d="M 35.96 82.017935 
L 211 82.017935 
" clip-path="url(#p9eacae6c0d)" style="fill: none; stroke-dasharray: 2.96,1.28; stroke-dashoffset: 0; stroke: var(--grid-color); stroke-width: 0.8"/>
     </g>
     <g id="line2d_10">
      <g>
       <use xlink:href="#mc551ec4c13" x="35.96" y="82.017935" style="fill: var(--fg-color); stroke: var(--fg-color); stroke-width: 0.8"/>
      </g>
     </g>
     <g id="text_5">
      <text style="font-size: 7px; font-family: 'DejaVu Sans', 'Bitstream Vera Sans', 'Computer Modern Sans Serif', 'Lucida Grande', 'Verdana', 'Geneva', 'Lucid', 'Arial', 'Helvetica', 'Avant Garde', sans-serif; text-anchor: end; fill: var(--fg-color)" x="28.96" y="84.677115" transform="rotate(-0 28.96 84.677115)">50</text>
     </g>
    </g>
    <g id="ytick_3">
     <g id="line2d_11">
      <path d="M 35.96 64.422004 
L 211 64.422004 
" clip-path="url(#p9eacae6c0d)" style="fill: none; stroke-dasharray: 2.96,1.28; stroke-dashoffset: 0; stroke: var(--grid-color); stroke-width: 0.8"/>
     </g>
     <g id="line2d_12">
      <g>
       <use xlink:href="#mc551ec4c13" x="35.96" y="64.422004" style="fill: var(--fg-color); stroke: var(--fg-color); stroke-width: 0.8"/>
      </g>
     </g>
     <g id="text_6">
      <text style="font-size: 7px; font-family: 'DejaVu Sans', 'Bitstream Vera Sans', 'Computer Modern Sans Serif', 'Lucida Grande', 'Verdana', 'Geneva', 'Lucid', 'Arial', 'Helvetica', 'Avant Garde', sans-serif; text-anchor: end; fill: var(--fg-color)" x="28.96" y="67.081184" transform="rotate(-0 28.96 67.081184)">100</text>
     </g>
    </g>
    <g id="ytick_4">
     <g id="line2d_13">
      <path d="M 35.96 46.826073 
L 211 46.826073 
" clip-path="url(#p9eacae6c0d)" style="fill: none; stroke-dasharray: 2.96,1.28; stroke-dashoffset: 0; stroke: var(--grid-color); stroke-width: 0.8"/>
     </g>
     <g id="line2d_14">
      <g>
       <use xlink:href="#mc551ec4c13" x="35.96" y="46.826073" style="fill: var(--fg-color); stroke: var(--fg-color); stroke-width: 0.8"/>
      </g>
     </g>
     <g id="text_7">
      <text style="font-size: 7px; font-family: 'DejaVu Sans', 'Bitstream Vera Sans', 'Computer Modern Sans Serif', 'Lucida Grande', 'Verdana', 'Geneva', 'Lucid', 'Arial', 'Helvetica', 'Avant Garde', sans-serif; text-anchor: end; fill: var(--fg-color)" x="28.96" y="49.485253" transform="rotate(-0 28.96 49.485253)">150</text>
     </g>
    </g>
    <g id="ytick_5">
     <g id="line2d_15">
      <path d="M 35.96 29.230142 
L 211 29.230142 
" clip-path="url(#p9eacae6c0d)" style="fill: none; stroke-dasharray: 2.96,1.28; stroke-dashoffset: 0; stroke: var(--grid-color); stroke-width: 0.8"/>
     </g>
     <g id="line2d_16">
      <g>
       <use xlink:href="#mc551ec4c13" x="35.96" y="29.230142" style="fill: var(--fg-color); stroke: var(--fg-color); stroke-width: 0.8"/>
      </g>
     </g>
     <g id="text_8">
      <text style="font-size: 7px; font-family: 'DejaVu Sans', 'Bitstream Vera Sans', 'Computer Modern Sans Serif', 'Lucida Grande', 'Verdana', 'Geneva', 'Lucid', 'Arial', 'Helvetica', 'Avant Garde', sans-serif; text-anchor: end; fill: var(--fg-color)" x="28.96" y="31.889322" transform="rotate(-0 28.96 31.889322)">200</text>
     </g>
    </g>
    <g id="ytick_6">
     <g id="line2d_17">
      <path d="M 35.96 11.634211 
L 211 11.634211 
" clip-path="url(#p9eacae6c0d)" style="fill: none; stroke-dasharray: 2.96,1.28; stroke-dashoffset: 0; stroke: var(--grid-color); stroke-width: 0.8"/>
     </g>
     <g id="line2d_18">
      <g>
       <use xlink:href="#mc551ec4c13" x="35.96" y="11.634211" style="fill: var(--fg-color); stroke: var(--fg-color); stroke-width: 0.8"/>
      </g>
     </g>
     <g id="text_9">
      <text style="font-size: 7px; font-family: 'DejaVu Sans', 'Bitstream Vera Sans', 'Computer Modern Sans Serif', 'Lucida Grande', 'Verdana', 'Geneva', 'Lucid', 'Arial', 'Helvetica', 'Avant Garde', sans-serif; text-anchor: end; fill: var(--fg-color)" x="28.96" y="14.293391" transform="rotate(-0 28.96 14.293391)">250</text>
     </g>
    </g>
    <g id="text_10">
     <text style="font-size: 7px; font-family: 'DejaVu Sans', 'Bitstream Vera Sans', 'Computer Modern Sans Serif', 'Lucida Grande', 'Verdana', 'Geneva', 'Lucid', 'Arial', 'Helvetica', 'Avant Garde', sans-serif; text-anchor: middle; fill: var(--fg-color)" x="9.917109" y="54.2" transform="rotate(-90 9.917109 54.2)">ms</text>
    </g>
   </g>
   <g id="line2d_19">
    <path d="M 43.916364 31.586941 
L 44.468628 32.67437 
L 45.3595 37.014582 
L 46.250371 42.734667 
L 47.141245 30.070524 
L 48.032112 21.699084 
L 48.922979 40.407781 
L 49.81384 31.374382 
L 50.704717 29.502879 
L 51.595589 38.434222 
L 52.486458 36.891059 
L 53.377327 20.568369 
L 54.268192 37.889452 
L 55.159063 11.936158 
L 56.049934 28.991893 
L 56.940797 26.43978 
L 57.831669 47.002384 
L 58.722538 36.606357 
L 59.613407 40.325433 
L 61.395144 30.08073 
L 62.286016 13.524718 
L 63.176879 44.002278 
L 64.067746 37.17752 
L 64.958622 13.4114 
L 65.84949 22.134055 
L 66.740361 13.618681 
L 67.631226 24.49191 
L 68.522078 31.259657 
L 69.412965 29.079521 
L 70.30383 31.951529 
L 71.194705 29.882248 
L 72.085571 32.704635 
L 72.976442 22.603515 
L 73.867306 42.302159 
L 74.758184 32.186611 
L 75.649039 34.554671 
L 76.539914 22.213589 
L 77.430784 28.01004 
L 78.321655 34.982604 
L 79.212509 34.905534 
L 80.103391 29.383227 
L 80.994245 24.641827 
L 81.885129 33.505954 
L 82.775998 40.332119 
L 83.666869 40.298335 
L 85.44861 32.17922 
L 94.53997 36.723194 
L 95.248438 34.269617 
L 96.139324 22.72739 
L 97.030192 43.497979 
L 97.921065 28.318673 
L 98.811931 29.855502 
L 99.702798 41.576855 
L 100.593666 33.603083 
L 101.484533 31.187866 
L 102.375401 42.063559 
L 103.266272 37.647332 
L 104.157138 30.107827 
L 105.048009 30.604385 
L 105.93888 26.959563 
L 106.829748 40.125191 
L 107.720614 32.889392 
L 108.611487 42.648447 
L 109.502352 31.493683 
L 110.393224 26.206458 
L 111.284094 23.532932 
L 112.17496 38.056261 
L 113.065834 25.030697 
L 113.956695 14.263044 
L 114.847564 31.07314 
L 115.738441 26.714276 
L 116.629309 18.645838 
L 117.520178 34.612386 
L 118.41104 9.472727 
L 119.301913 33.970838 
L 120.192782 35.307777 
L 121.083649 11.054953 
L 121.97452 29.583469 
L 125.537994 29.737609 
L 126.428869 21.881378 
L 127.319734 23.885906 
L 128.210603 29.509918 
L 129.101474 30.181026 
L 129.992342 34.732742 
L 130.883214 32.592373 
L 131.774065 15.884684 
L 132.664946 30.031109 
L 133.55582 21.231032 
L 134.446686 29.489154 
L 135.337558 21.824015 
L 136.228424 11.677145 
L 137.119294 13.89564 
L 138.010159 34.363227 
L 138.901032 31.867772 
L 139.791912 22.111533 
L 140.68277 24.456366 
L 141.57364 23.076845 
L 142.464507 20.953016 
L 143.355376 22.801645 
L 144.246246 22.314238 
L 145.137113 22.255819 
L 146.027984 25.173576 
L 146.918849 30.513941 
L 173.644977 30.513941 
L 181.959197 36.083054 
L 182.553652 37.107489 
L 183.444521 24.924066 
L 184.335387 25.382264 
L 185.226256 35.06249 
L 186.117131 26.777621 
L 187.007996 34.751394 
L 187.898864 29.116473 
L 188.789731 40.292 
L 189.680603 26.589697 
L 190.571474 32.032822 
L 191.462343 33.06324 
L 192.353215 16.651515 
L 193.244077 32.513191 
L 195.025817 25.219326 
L 195.916688 24.307153 
L 196.807557 21.353148 
L 197.698426 30.07897 
L 198.589295 32.803876 
L 199.480162 26.526704 
L 200.371032 31.247692 
L 201.261898 33.876876 
L 202.152766 39.879552 
L 203.043636 43.46701 
L 203.043636 43.46701 
" clip-path="url(#p9eacae6c0d)" style="fill: none; stroke: #339af0; stroke-width: 1.2; stroke-linecap: square"/>
   </g>
   <g id="line2d_20">
    <path d="M 43.916364 97.593149 
L 44.468628 98.831551 
L 47.141245 98.796007 
L 48.032112 98.55987 
L 49.81384 98.817474 
L 53.377327 98.788265 
L 54.268192 98.684449 
L 55.159063 98.191763 
L 56.049934 98.784042 
L 56.940797 98.683745 
L 57.831669 98.886098 
L 58.722538 98.683745 
L 59.613407 98.844924 
L 62.286016 98.760111 
L 64.067746 98.868854 
L 64.958622 98.238216 
L 65.84949 98.800582 
L 66.740361 98.417343 
L 67.631226 98.801638 
L 69.412965 98.800934 
L 71.194705 98.795303 
L 72.085571 98.630957 
L 72.976442 98.824512 
L 75.649039 98.843516 
L 76.539914 98.702045 
L 77.430784 98.825568 
L 79.212509 98.806917 
L 81.885129 98.849851 
L 85.44861 98.841405 
L 95.248438 98.814659 
L 96.139324 98.68093 
L 97.030192 98.927273 
L 98.811931 98.584856 
L 99.702798 98.658759 
L 100.593666 98.905806 
L 102.375401 98.762575 
L 103.266272 98.1527 
L 104.157138 98.681634 
L 105.048009 98.685505 
L 105.93888 98.517288 
L 107.720614 98.831903 
L 109.502352 98.816066 
L 110.393224 97.959497 
L 111.284094 98.818178 
L 113.065834 98.858297 
L 113.956695 98.711547 
L 116.629309 98.849147 
L 118.41104 98.69008 
L 119.301913 98.828384 
L 121.083649 98.718937 
L 121.97452 98.562333 
L 127.319734 98.831199 
L 128.210603 98.610194 
L 129.101474 98.628494 
L 129.992342 98.824864 
L 130.883214 98.714362 
L 135.337558 98.766798 
L 136.228424 98.691135 
L 138.901032 98.808324 
L 139.791912 98.7397 
L 140.68277 98.813251 
L 142.464507 98.524326 
L 143.355376 98.805509 
L 144.246246 98.710843 
L 146.918849 98.798471 
L 186.117131 98.710491 
L 187.007996 98.626382 
L 187.898864 98.831903 
L 188.789731 98.864279 
L 189.680603 98.753777 
L 190.571474 98.832607 
L 192.353215 98.546497 
L 193.244077 98.763631 
L 194.134949 98.808676 
L 195.025817 98.666501 
L 197.698426 98.79284 
L 198.589295 98.838237 
L 199.480162 98.730902 
L 200.371032 98.90299 
L 202.152766 98.676003 
L 203.043636 98.259331 
L 203.043636 98.259331 
" clip-path="url(#p9eacae6c0d)" style="fill: none; stroke: #ff6b6b; stroke-width: 1.2; stroke-linecap: square"/>
   </g>
   <g id="patch_3">
    <path d="M 35.96 103.4 
L 35.96 5 
" style="fill: none; stroke: var(--fg-color); stroke-width: 0.8; stroke-linejoin: miter; stroke-linecap: square"/>
   </g>
   <g id="patch_4">
    <path d="M 35.96 103.4 
L 211 103.4 
" style="fill: none; stroke: var(--fg-color); stroke-width: 0.8; stroke-linejoin: miter; stroke-linecap: square"/>
   </g>
  </g>
 </g>
 <defs>
  <clipPath id="p9eacae6c0d">
   <rect x="35.96" y="5" width="175.04" height="98.4"/>
  </clipPath>
 </defs>
</svg>
