<?xml version="1.0" encoding="utf-8" standalone="no"?>
<!DOCTYPE svg PUBLIC "-//W3C//DTD SVG 1.1//EN"
  "http://www.w3.org/Graphics/SVG/1.1/DTD/svg11.dtd">
<svg xmlns:xlink="http://www.w3.org/1999/xlink" width="216pt" height="122.4pt" viewBox="0 0 216 122.4" xmlns="http://www.w3.org/2000/svg" version="1.1">
  <style>
    :root {
      --fg-color: #212529;
      --grid-color: rgba(33, 37, 41, 0.1);
    }
    @media (prefers-color-scheme: dark) {
      :root {
        --fg-color: #dee2e6;
        --grid-color: rgba(248, 249, 250, 0.15);
      }
    }
  </style>

 <metadata>
  <rdf:RDF xmlns:dc="http://purl.org/dc/elements/1.1/" xmlns:cc="http://creativecommons.org/ns#" xmlns:rdf="http://www.w3.org/1999/02/22-rdf-syntax-ns#">
   <cc:Work>
    <dc:type rdf:resource="http://purl.org/dc/dcmitype/StillImage"/>
    <dc:date>2026-06-30T04:49:22.220219</dc:date>
    <dc:format>image/svg+xml</dc:format>
    <dc:creator>
     <cc:Agent>
      <dc:title>Matplotlib v3.11.0, https://matplotlib.org/</dc:title>
     </cc:Agent>
    </dc:creator>
   </cc:Work>
  </rdf:RDF>
 </metadata>
 <defs>
  <style type="text/css">*{stroke-linejoin: round; stroke-linecap: butt}</style>
 </defs>
 <g id="figure_1">
  <g id="patch_1">
   <path d="M 0 122.4 
L 216 122.4 
L 216 0 
L 0 0 
L 0 122.4 
z
" style="fill: none; opacity: 0"/>
  </g>
  <g id="axes_1">
   <g id="patch_2">
    <path d="M 31.64 103.4 
L 211 103.4 
L 211 5 
L 31.64 5 
L 31.64 103.4 
z
" style="fill: none; opacity: 0"/>
   </g>
   <g id="matplotlib.axis_1">
    <g id="xtick_1">
     <g id="line2d_1">
      <path d="M 68.627238 103.4 
L 68.627238 5 
" clip-path="url(#p10f467d767)" style="fill: none; stroke-dasharray: 2.96,1.28; stroke-dashoffset: 0; stroke: var(--grid-color); stroke-width: 0.8"/>
     </g>
     <g id="line2d_2">
      <defs>
       <path id="ma4831fcd44" d="M 0 0 
L 0 3.5 
" style="stroke: var(--fg-color); stroke-width: 0.8"/>
      </defs>
      <g>
       <use xlink:href="#ma4831fcd44" x="68.627238" y="103.4" style="fill: var(--fg-color); stroke: var(--fg-color); stroke-width: 0.8"/>
      </g>
     </g>
     <g id="text_1">
      <text style="font-size: 7px; font-family: 'DejaVu Sans', 'Bitstream Vera Sans', 'Computer Modern Sans Serif', 'Lucida Grande', 'Verdana', 'Geneva', 'Lucid', 'Arial', 'Helvetica', 'Avant Garde', sans-serif; text-anchor: middle; fill: var(--fg-color)" x="68.627238" y="115.718359" transform="rotate(-0 68.627238 115.718359)">02/2026</text>
     </g>
    </g>
    <g id="xtick_2">
     <g id="line2d_3">
      <path d="M 124.558632 103.4 
L 124.558632 5 
" clip-path="url(#p10f467d767)" style="fill: none; stroke-dasharray: 2.96,1.28; stroke-dashoffset: 0; stroke: var(--grid-color); stroke-width: 0.8"/>
     </g>
     <g id="line2d_4">
      <g>
       <use xlink:href="#ma4831fcd44" x="124.558632" y="103.4" style="fill: var(--fg-color); stroke: var(--fg-color); stroke-width: 0.8"/>
      </g>
     </g>
     <g id="text_2">
      <text style="font-size: 7px; font-family: 'DejaVu Sans', 'Bitstream Vera Sans', 'Computer Modern Sans Serif', 'Lucida Grande', 'Verdana', 'Geneva', 'Lucid', 'Arial', 'Helvetica', 'Avant Garde', sans-serif; text-anchor: middle; fill: var(--fg-color)" x="124.558632" y="115.718359" transform="rotate(-0 124.558632 115.718359)">04/2026</text>
     </g>
    </g>
    <g id="xtick_3">
     <g id="line2d_5">
      <path d="M 182.386006 103.4 
L 182.386006 5 
" clip-path="url(#p10f467d767)" style="fill: none; stroke-dasharray: 2.96,1.28; stroke-dashoffset: 0; stroke: var(--grid-color); stroke-width: 0.8"/>
     </g>
     <g id="line2d_6">
      <g>
       <use xlink:href="#ma4831fcd44" x="182.386006" y="103.4" style="fill: var(--fg-color); stroke: var(--fg-color); stroke-width: 0.8"/>
      </g>
     </g>
     <g id="text_3">
      <text style="font-size: 7px; font-family: 'DejaVu Sans', 'Bitstream Vera Sans', 'Computer Modern Sans Serif', 'Lucida Grande', 'Verdana', 'Geneva', 'Lucid', 'Arial', 'Helvetica', 'Avant Garde', sans-serif; text-anchor: middle; fill: var(--fg-color)" x="182.386006" y="115.718359" transform="rotate(-0 182.386006 115.718359)">06/2026</text>
     </g>
    </g>
   </g>
   <g id="matplotlib.axis_2">
    <g id="ytick_1">
     <g id="line2d_7">
      <path d="M 31.64 103.285647 
L 211 103.285647 
" clip-path="url(#p10f467d767)" style="fill: none; stroke-dasharray: 2.96,1.28; stroke-dashoffset: 0; stroke: var(--grid-color); stroke-width: 0.8"/>
     </g>
     <g id="line2d_8">
      <defs>
       <path id="m9e647597b9" d="M 0 0 
L -3.5 0 
" style="stroke: var(--fg-color); stroke-width: 0.8"/>
      </defs>
      <g>
       <use xlink:href="#m9e647597b9" x="31.64" y="103.285647" style="fill: var(--fg-color); stroke: var(--fg-color); stroke-width: 0.8"/>
      </g>
     </g>
     <g id="text_4">
      <text style="font-size: 7px; font-family: 'DejaVu Sans', 'Bitstream Vera Sans', 'Computer Modern Sans Serif', 'Lucida Grande', 'Verdana', 'Geneva', 'Lucid', 'Arial', 'Helvetica', 'Avant Garde', sans-serif; text-anchor: end; fill: var(--fg-color)" x="24.64" y="105.944826" transform="rotate(-0 24.64 105.944826)">0</text>
     </g>
    </g>
    <g id="ytick_2">
     <g id="line2d_9">
      <path d="M 31.64 86.68864 
L 211 86.68864 
" clip-path="url(#p10f467d767)" style="fill: none; stroke-dasharray: 2.96,1.28; stroke-dashoffset: 0; stroke: var(--grid-color); stroke-width: 0.8"/>
     </g>
     <g id="line2d_10">
      <g>
       <use xlink:href="#m9e647597b9" x="31.64" y="86.68864" style="fill: var(--fg-color); stroke: var(--fg-color); stroke-width: 0.8"/>
      </g>
     </g>
     <g id="text_5">
      <text style="font-size: 7px; font-family: 'DejaVu Sans', 'Bitstream Vera Sans', 'Computer Modern Sans Serif', 'Lucida Grande', 'Verdana', 'Geneva', 'Lucid', 'Arial', 'Helvetica', 'Avant Garde', sans-serif; text-anchor: end; fill: var(--fg-color)" x="24.64" y="89.34782" transform="rotate(-0 24.64 89.34782)">5</text>
     </g>
    </g>
    <g id="ytick_3">
     <g id="line2d_11">
      <path d="M 31.64 70.091634 
L 211 70.091634 
" clip-path="url(#p10f467d767)" style="fill: none; stroke-dasharray: 2.96,1.28; stroke-dashoffset: 0; stroke: var(--grid-color); stroke-width: 0.8"/>
     </g>
     <g id="line2d_12">
      <g>
       <use xlink:href="#m9e647597b9" x="31.64" y="70.091634" style="fill: var(--fg-color); stroke: var(--fg-color); stroke-width: 0.8"/>
      </g>
     </g>
     <g id="text_6">
      <text style="font-size: 7px; font-family: 'DejaVu Sans', 'Bitstream Vera Sans', 'Computer Modern Sans Serif', 'Lucida Grande', 'Verdana', 'Geneva', 'Lucid', 'Arial', 'Helvetica', 'Avant Garde', sans-serif; text-anchor: end; fill: var(--fg-color)" x="24.64" y="72.750813" transform="rotate(-0 24.64 72.750813)">10</text>
     </g>
    </g>
    <g id="ytick_4">
     <g id="line2d_13">
      <path d="M 31.64 53.494627 
L 211 53.494627 
" clip-path="url(#p10f467d767)" style="fill: none; stroke-dasharray: 2.96,1.28; stroke-dashoffset: 0; stroke: var(--grid-color); stroke-width: 0.8"/>
     </g>
     <g id="line2d_14">
      <g>
       <use xlink:href="#m9e647597b9" x="31.64" y="53.494627" style="fill: var(--fg-color); stroke: var(--fg-color); stroke-width: 0.8"/>
      </g>
     </g>
     <g id="text_7">
      <text style="font-size: 7px; font-family: 'DejaVu Sans', 'Bitstream Vera Sans', 'Computer Modern Sans Serif', 'Lucida Grande', 'Verdana', 'Geneva', 'Lucid', 'Arial', 'Helvetica', 'Avant Garde', sans-serif; text-anchor: end; fill: var(--fg-color)" x="24.64" y="56.153807" transform="rotate(-0 24.64 56.153807)">15</text>
     </g>
    </g>
    <g id="ytick_5">
     <g id="line2d_15">
      <path d="M 31.64 36.897621 
L 211 36.897621 
" clip-path="url(#p10f467d767)" style="fill: none; stroke-dasharray: 2.96,1.28; stroke-dashoffset: 0; stroke: var(--grid-color); stroke-width: 0.8"/>
     </g>
     <g id="line2d_16">
      <g>
       <use xlink:href="#m9e647597b9" x="31.64" y="36.897621" style="fill: var(--fg-color); stroke: var(--fg-color); stroke-width: 0.8"/>
      </g>
     </g>
     <g id="text_8">
      <text style="font-size: 7px; font-family: 'DejaVu Sans', 'Bitstream Vera Sans', 'Computer Modern Sans Serif', 'Lucida Grande', 'Verdana', 'Geneva', 'Lucid', 'Arial', 'Helvetica', 'Avant Garde', sans-serif; text-anchor: end; fill: var(--fg-color)" x="24.64" y="39.5568" transform="rotate(-0 24.64 39.5568)">20</text>
     </g>
    </g>
    <g id="ytick_6">
     <g id="line2d_17">
      <path d="M 31.64 20.300614 
L 211 20.300614 
" clip-path="url(#p10f467d767)" style="fill: none; stroke-dasharray: 2.96,1.28; stroke-dashoffset: 0; stroke: var(--grid-color); stroke-width: 0.8"/>
     </g>
     <g id="line2d_18">
      <g>
       <use xlink:href="#m9e647597b9" x="31.64" y="20.300614" style="fill: var(--fg-color); stroke: var(--fg-color); stroke-width: 0.8"/>
      </g>
     </g>
     <g id="text_9">
      <text style="font-size: 7px; font-family: 'DejaVu Sans', 'Bitstream Vera Sans', 'Computer Modern Sans Serif', 'Lucida Grande', 'Verdana', 'Geneva', 'Lucid', 'Arial', 'Helvetica', 'Avant Garde', sans-serif; text-anchor: end; fill: var(--fg-color)" x="24.64" y="22.959794" transform="rotate(-0 24.64 22.959794)">25</text>
     </g>
    </g>
    <g id="text_10">
     <text style="font-size: 7px; font-family: 'DejaVu Sans', 'Bitstream Vera Sans', 'Computer Modern Sans Serif', 'Lucida Grande', 'Verdana', 'Geneva', 'Lucid', 'Arial', 'Helvetica', 'Avant Garde', sans-serif; text-anchor: middle; fill: var(--fg-color)" x="10.050859" y="54.2" transform="rotate(-90 10.050859 54.2)">ms</text>
    </g>
   </g>
   <g id="line2d_19">
    <path d="M 39.792727 57.444715 
L 41.100981 59.403162 
L 41.688656 58.828905 
L 42.636649 58.012332 
L 43.584641 55.233994 
L 44.532636 61.208916 
L 45.480623 59.399842 
L 46.428611 58.875377 
L 47.376592 59.449633 
L 48.324591 59.074541 
L 49.272583 58.327676 
L 50.220574 58.619783 
L 51.168564 60.339233 
L 52.116549 56.86382 
L 53.064541 56.999915 
L 54.012533 61.584008 
L 54.960516 61.152486 
L 55.908509 56.757599 
L 56.856499 59.426397 
L 57.804489 36.476057 
L 58.752478 61.092737 
L 59.700467 18.013547 
L 60.64846 59.031389 
L 61.596444 56.435617 
L 62.544432 59.881155 
L 63.492429 57.919389 
L 64.440417 60.541716 
L 65.388409 58.709407 
L 66.336395 59.980737 
L 67.284367 60.110194 
L 68.232376 58.928487 
L 69.180361 60.143388 
L 70.128357 55.834805 
L 71.076344 60.163304 
L 72.024336 59.140929 
L 72.97232 57.879556 
L 73.920319 59.084499 
L 74.868295 58.832225 
L 75.816291 60.030528 
L 76.764282 59.46955 
L 77.712274 55.151008 
L 78.660247 60.309358 
L 79.608251 30.640549 
L 80.556225 55.559295 
L 81.504231 58.513562 
L 82.452221 59.164165 
L 83.400212 58.493646 
L 84.348199 55.615725 
L 85.296195 56.867139 
L 94.970475 58.735962 
L 95.724369 59.565812 
L 96.672377 58.410661 
L 97.620366 60.18654 
L 98.56836 57.945944 
L 99.516347 58.068762 
L 100.464334 55.336895 
L 101.412323 60.007293 
L 102.360311 60.541716 
L 103.308299 56.067163 
L 104.256292 59.8546 
L 105.204278 59.904391 
L 106.15227 57.892834 
L 107.100261 62.125071 
L 108.04825 60.671173 
L 108.996237 61.696868 
L 109.944231 59.442994 
L 110.892217 59.529299 
L 111.84021 59.595687 
L 112.788201 56.243091 
L 113.736187 61.491065 
L 114.684183 60.999794 
L 115.632163 59.974099 
L 116.580154 59.831364 
L 117.528151 59.343412 
L 118.47614 57.448034 
L 119.42413 38.95565 
L 120.372113 59.994015 
L 121.320106 57.839724 
L 122.268096 56.651378 
L 123.216085 60.027209 
L 124.164076 58.513562 
L 127.956033 59.668714 
L 128.904029 57.24887 
L 129.852015 57.647198 
L 130.800005 59.064583 
L 131.747996 57.292022 
L 132.695985 56.269647 
L 133.643978 58.354231 
L 134.591949 57.876237 
L 135.539952 59.46623 
L 136.487947 59.433036 
L 137.435933 57.003234 
L 138.383926 58.586589 
L 139.331913 56.843903 
L 140.279903 57.132691 
L 141.22789 57.756738 
L 142.175883 54.829027 
L 143.123885 57.242231 
L 144.071862 9.472727 
L 145.019854 54.450615 
L 145.967841 51.141172 
L 146.915831 55.629002 
L 147.863822 59.592367 
L 148.811809 54.613265 
L 149.759801 57.687031 
L 150.707787 54.128633 
L 179.147543 54.128633 
L 187.994854 54.892095 
L 188.627425 56.651378 
L 189.575414 59.685311 
L 190.523402 60.641298 
L 191.471391 59.087818 
L 192.419387 57.726864 
L 193.367373 58.646338 
L 194.315361 57.7501 
L 195.263349 56.940166 
L 196.211342 57.999055 
L 197.159334 30.766687 
L 198.107324 53.557696 
L 199.055317 58.609825 
L 200.0033 56.814029 
L 200.951292 57.039748 
L 201.899281 56.478769 
L 202.847273 58.443855 
" clip-path="url(#p10f467d767)" style="fill: none; stroke: #339af0; stroke-width: 1.2; stroke-linecap: square"/>
   </g>
   <g id="line2d_20">
    <path d="M 39.792727 98.505709 
L 41.100981 98.575416 
L 41.688656 98.748025 
L 42.636649 98.313183 
L 43.584641 98.396169 
L 44.532636 98.641804 
L 45.480623 98.256754 
L 46.428611 98.485792 
L 47.376592 98.535583 
L 48.324591 98.638485 
L 49.272583 98.419404 
L 50.220574 98.432682 
L 51.168564 98.648443 
L 52.116549 98.140575 
L 53.064541 98.678318 
L 54.012533 98.615249 
L 54.960516 98.409446 
L 55.908509 98.436001 
L 56.856499 95.641065 
L 57.804489 98.678318 
L 58.752478 98.558819 
L 59.700467 98.084145 
L 60.64846 98.592013 
L 61.596444 98.22356 
L 62.544432 98.741386 
L 63.492429 98.44596 
L 64.440417 98.668359 
L 65.388409 98.681637 
L 66.336395 98.5555 
L 67.284367 98.923953 
L 68.232376 98.738067 
L 69.180361 98.582055 
L 70.128357 98.359655 
L 71.076344 98.313183 
L 72.024336 98.592013 
L 72.97232 98.465876 
L 73.920319 98.216921 
L 74.868295 98.525625 
L 75.816291 90.73831 
L 76.764282 98.572097 
L 77.712274 98.233518 
L 78.660247 98.731428 
L 79.608251 98.562139 
L 80.556225 98.548861 
L 81.504231 98.349697 
L 82.452221 98.482473 
L 83.400212 98.505709 
L 84.348199 96.268432 
L 85.296195 98.409446 
L 94.970475 98.578736 
L 95.724369 98.256754 
L 96.672377 98.595333 
L 97.620366 98.472515 
L 98.56836 98.518986 
L 99.516347 98.528945 
L 100.464334 98.585374 
L 101.412323 98.72147 
L 102.360311 98.708192 
L 103.308299 98.688276 
L 104.256292 98.326461 
L 105.204278 98.562139 
L 106.15227 98.834329 
L 107.100261 98.927273 
L 108.04825 98.5555 
L 108.996237 96.563859 
L 109.944231 98.299906 
L 110.892217 98.5555 
L 111.84021 98.568777 
L 112.788201 98.240157 
L 113.736187 98.751344 
L 114.684183 98.592013 
L 115.632163 98.505709 
L 116.580154 98.565458 
L 117.528151 98.455918 
L 118.47614 98.668359 
L 119.42413 98.572097 
L 120.372113 98.366294 
L 121.320106 97.914855 
L 122.268096 97.964646 
L 123.216085 98.372933 
L 124.164076 98.160491 
L 127.956033 98.074187 
L 128.904029 97.742246 
L 129.852015 98.05427 
L 130.800005 98.289948 
L 131.747996 97.908217 
L 132.695985 98.283309 
L 133.643978 98.160491 
L 134.591949 94.363096 
L 135.539952 98.339739 
L 136.487947 98.004479 
L 137.435933 97.898258 
L 138.383926 98.130616 
L 139.331913 98.05427 
L 140.279903 97.964646 
L 141.22789 97.83187 
L 142.175883 97.861745 
L 143.123885 98.074187 
L 144.071862 97.811954 
L 145.019854 98.213601 
L 145.967841 98.037673 
L 146.915831 97.801996 
L 147.863822 98.143894 
L 148.811809 98.133936 
L 149.759801 98.080825 
L 150.707787 97.795357 
L 179.147543 97.795357 
L 187.994854 97.871703 
L 188.627425 97.994521 
L 189.575414 98.143894 
L 190.523402 98.356336 
L 191.471391 98.694915 
L 192.419387 98.7779 
L 193.367373 98.49907 
L 194.315361 98.406127 
L 195.263349 98.236837 
L 196.211342 98.469195 
L 197.159334 98.200324 
L 198.107324 98.366294 
L 199.055317 98.565458 
L 200.0033 98.263392 
L 200.951292 98.436001 
L 201.899281 98.279989 
L 202.847273 98.615249 
" clip-path="url(#p10f467d767)" style="fill: none; stroke: #ff6b6b; stroke-width: 1.2; stroke-linecap: square"/>
   </g>
   <g id="patch_3">
    <path d="M 31.64 103.4 
L 31.64 5 
" style="fill: none; stroke: var(--fg-color); stroke-width: 0.8; stroke-linejoin: miter; stroke-linecap: square"/>
   </g>
   <g id="patch_4">
    <path d="M 31.64 103.4 
L 211 103.4 
" style="fill: none; stroke: var(--fg-color); stroke-width: 0.8; stroke-linejoin: miter; stroke-linecap: square"/>
   </g>
  </g>
 </g>
 <defs>
  <clipPath id="p10f467d767">
   <rect x="31.64" y="5" width="179.36" height="98.4"/>
  </clipPath>
 </defs>
</svg>
