<?xml version="1.0" encoding="utf-8" standalone="no"?>
<!DOCTYPE svg PUBLIC "-//W3C//DTD SVG 1.1//EN"
  "http://www.w3.org/Graphics/SVG/1.1/DTD/svg11.dtd">
<svg xmlns:xlink="http://www.w3.org/1999/xlink" width="216pt" height="122.4pt" viewBox="0 0 216 122.4" xmlns="http://www.w3.org/2000/svg" version="1.1">
  <style>
    :root {
      --fg-color: #212529;
      --grid-color: rgba(33, 37, 41, 0.1);
    }
    @media (prefers-color-scheme: dark) {
      :root {
        --fg-color: #dee2e6;
        --grid-color: rgba(248, 249, 250, 0.15);
      }
    }
  </style>

 <metadata>
  <rdf:RDF xmlns:dc="http://purl.org/dc/elements/1.1/" xmlns:cc="http://creativecommons.org/ns#" xmlns:rdf="http://www.w3.org/1999/02/22-rdf-syntax-ns#">
   <cc:Work>
    <dc:type rdf:resource="http://purl.org/dc/dcmitype/StillImage"/>
    <dc:date>2026-06-30T04:48:28.320334</dc:date>
    <dc:format>image/svg+xml</dc:format>
    <dc:creator>
     <cc:Agent>
      <dc:title>Matplotlib v3.11.0, https://matplotlib.org/</dc:title>
     </cc:Agent>
    </dc:creator>
   </cc:Work>
  </rdf:RDF>
 </metadata>
 <defs>
  <style type="text/css">*{stroke-linejoin: round; stroke-linecap: butt}</style>
 </defs>
 <g id="figure_1">
  <g id="patch_1">
   <path d="M 0 122.4 
L 216 122.4 
L 216 0 
L 0 0 
L 0 122.4 
z
" style="fill: none; opacity: 0"/>
  </g>
  <g id="axes_1">
   <g id="patch_2">
    <path d="M 35.96 103.4 
L 211 103.4 
L 211 5 
L 35.96 5 
L 35.96 103.4 
z
" style="fill: none; opacity: 0"/>
   </g>
   <g id="matplotlib.axis_1">
    <g id="xtick_1">
     <g id="line2d_1">
      <path d="M 70.996911 103.4 
L 70.996911 5 
" clip-path="url(#p7a92f6655e)" style="fill: none; stroke-dasharray: 2.96,1.28; stroke-dashoffset: 0; stroke: var(--grid-color); stroke-width: 0.8"/>
     </g>
     <g id="line2d_2">
      <defs>
       <path id="ma8ff46845d" d="M 0 0 
L 0 3.5 
" style="stroke: var(--fg-color); stroke-width: 0.8"/>
      </defs>
      <g>
       <use xlink:href="#ma8ff46845d" x="70.996911" y="103.4" style="fill: var(--fg-color); stroke: var(--fg-color); stroke-width: 0.8"/>
      </g>
     </g>
     <g id="text_1">
      <text style="font-size: 7px; font-family: 'DejaVu Sans', 'Bitstream Vera Sans', 'Computer Modern Sans Serif', 'Lucida Grande', 'Verdana', 'Geneva', 'Lucid', 'Arial', 'Helvetica', 'Avant Garde', sans-serif; text-anchor: middle; fill: var(--fg-color)" x="70.996911" y="115.718359" transform="rotate(-0 70.996911 115.718359)">02/2026</text>
     </g>
    </g>
    <g id="xtick_2">
     <g id="line2d_3">
      <path d="M 126.022656 103.4 
L 126.022656 5 
" clip-path="url(#p7a92f6655e)" style="fill: none; stroke-dasharray: 2.96,1.28; stroke-dashoffset: 0; stroke: var(--grid-color); stroke-width: 0.8"/>
     </g>
     <g id="line2d_4">
      <g>
       <use xlink:href="#ma8ff46845d" x="126.022656" y="103.4" style="fill: var(--fg-color); stroke: var(--fg-color); stroke-width: 0.8"/>
      </g>
     </g>
     <g id="text_2">
      <text style="font-size: 7px; font-family: 'DejaVu Sans', 'Bitstream Vera Sans', 'Computer Modern Sans Serif', 'Lucida Grande', 'Verdana', 'Geneva', 'Lucid', 'Arial', 'Helvetica', 'Avant Garde', sans-serif; text-anchor: middle; fill: var(--fg-color)" x="126.022656" y="115.718359" transform="rotate(-0 126.022656 115.718359)">04/2026</text>
     </g>
    </g>
    <g id="xtick_3">
     <g id="line2d_5">
      <path d="M 182.913681 103.4 
L 182.913681 5 
" clip-path="url(#p7a92f6655e)" style="fill: none; stroke-dasharray: 2.96,1.28; stroke-dashoffset: 0; stroke: var(--grid-color); stroke-width: 0.8"/>
     </g>
     <g id="line2d_6">
      <g>
       <use xlink:href="#ma8ff46845d" x="182.913681" y="103.4" style="fill: var(--fg-color); stroke: var(--fg-color); stroke-width: 0.8"/>
      </g>
     </g>
     <g id="text_3">
      <text style="font-size: 7px; font-family: 'DejaVu Sans', 'Bitstream Vera Sans', 'Computer Modern Sans Serif', 'Lucida Grande', 'Verdana', 'Geneva', 'Lucid', 'Arial', 'Helvetica', 'Avant Garde', sans-serif; text-anchor: middle; fill: var(--fg-color)" x="182.913681" y="115.718359" transform="rotate(-0 182.913681 115.718359)">06/2026</text>
     </g>
    </g>
   </g>
   <g id="matplotlib.axis_2">
    <g id="ytick_1">
     <g id="line2d_7">
      <path d="M 35.96 99.446258 
L 211 99.446258 
" clip-path="url(#p7a92f6655e)" style="fill: none; stroke-dasharray: 2.96,1.28; stroke-dashoffset: 0; stroke: var(--grid-color); stroke-width: 0.8"/>
     </g>
     <g id="line2d_8">
      <defs>
       <path id="mc3138b3d42" d="M 0 0 
L -3.5 0 
" style="stroke: var(--fg-color); stroke-width: 0.8"/>
      </defs>
      <g>
       <use xlink:href="#mc3138b3d42" x="35.96" y="99.446258" style="fill: var(--fg-color); stroke: var(--fg-color); stroke-width: 0.8"/>
      </g>
     </g>
     <g id="text_4">
      <text style="font-size: 7px; font-family: 'DejaVu Sans', 'Bitstream Vera Sans', 'Computer Modern Sans Serif', 'Lucida Grande', 'Verdana', 'Geneva', 'Lucid', 'Arial', 'Helvetica', 'Avant Garde', sans-serif; text-anchor: end; fill: var(--fg-color)" x="28.96" y="102.105438" transform="rotate(-0 28.96 102.105438)">0</text>
     </g>
    </g>
    <g id="ytick_2">
     <g id="line2d_9">
      <path d="M 35.96 72.597544 
L 211 72.597544 
" clip-path="url(#p7a92f6655e)" style="fill: none; stroke-dasharray: 2.96,1.28; stroke-dashoffset: 0; stroke: var(--grid-color); stroke-width: 0.8"/>
     </g>
     <g id="line2d_10">
      <g>
       <use xlink:href="#mc3138b3d42" x="35.96" y="72.597544" style="fill: var(--fg-color); stroke: var(--fg-color); stroke-width: 0.8"/>
      </g>
     </g>
     <g id="text_5">
      <text style="font-size: 7px; font-family: 'DejaVu Sans', 'Bitstream Vera Sans', 'Computer Modern Sans Serif', 'Lucida Grande', 'Verdana', 'Geneva', 'Lucid', 'Arial', 'Helvetica', 'Avant Garde', sans-serif; text-anchor: end; fill: var(--fg-color)" x="28.96" y="75.256724" transform="rotate(-0 28.96 75.256724)">100</text>
     </g>
    </g>
    <g id="ytick_3">
     <g id="line2d_11">
      <path d="M 35.96 45.74883 
L 211 45.74883 
" clip-path="url(#p7a92f6655e)" style="fill: none; stroke-dasharray: 2.96,1.28; stroke-dashoffset: 0; stroke: var(--grid-color); stroke-width: 0.8"/>
     </g>
     <g id="line2d_12">
      <g>
       <use xlink:href="#mc3138b3d42" x="35.96" y="45.74883" style="fill: var(--fg-color); stroke: var(--fg-color); stroke-width: 0.8"/>
      </g>
     </g>
     <g id="text_6">
      <text style="font-size: 7px; font-family: 'DejaVu Sans', 'Bitstream Vera Sans', 'Computer Modern Sans Serif', 'Lucida Grande', 'Verdana', 'Geneva', 'Lucid', 'Arial', 'Helvetica', 'Avant Garde', sans-serif; text-anchor: end; fill: var(--fg-color)" x="28.96" y="48.40801" transform="rotate(-0 28.96 48.40801)">200</text>
     </g>
    </g>
    <g id="ytick_4">
     <g id="line2d_13">
      <path d="M 35.96 18.900116 
L 211 18.900116 
" clip-path="url(#p7a92f6655e)" style="fill: none; stroke-dasharray: 2.96,1.28; stroke-dashoffset: 0; stroke: var(--grid-color); stroke-width: 0.8"/>
     </g>
     <g id="line2d_14">
      <g>
       <use xlink:href="#mc3138b3d42" x="35.96" y="18.900116" style="fill: var(--fg-color); stroke: var(--fg-color); stroke-width: 0.8"/>
      </g>
     </g>
     <g id="text_7">
      <text style="font-size: 7px; font-family: 'DejaVu Sans', 'Bitstream Vera Sans', 'Computer Modern Sans Serif', 'Lucida Grande', 'Verdana', 'Geneva', 'Lucid', 'Arial', 'Helvetica', 'Avant Garde', sans-serif; text-anchor: end; fill: var(--fg-color)" x="28.96" y="21.559296" transform="rotate(-0 28.96 21.559296)">300</text>
     </g>
    </g>
    <g id="text_8">
     <text style="font-size: 7px; font-family: 'DejaVu Sans', 'Bitstream Vera Sans', 'Computer Modern Sans Serif', 'Lucida Grande', 'Verdana', 'Geneva', 'Lucid', 'Arial', 'Helvetica', 'Avant Garde', sans-serif; text-anchor: middle; fill: var(--fg-color)" x="9.917109" y="54.2" transform="rotate(-90 9.917109 54.2)">ms</text>
    </g>
   </g>
   <g id="line2d_15">
    <path d="M 43.916364 54.41828 
L 44.494523 85.13482 
L 45.427166 81.964524 
L 46.359808 83.13996 
L 47.292453 84.187329 
L 48.22509 85.517414 
L 49.157727 82.04856 
L 50.090359 83.749158 
L 51.023007 86.083653 
L 51.95565 84.246664 
L 52.88829 82.572647 
L 53.82093 81.519372 
L 54.753566 84.315666 
L 55.686208 82.60406 
L 56.618849 82.525393 
L 57.551483 83.098076 
L 58.484126 86.273742 
L 59.416765 84.152694 
L 60.349406 84.358087 
L 61.282045 85.730593 
L 62.214684 85.936522 
L 63.147327 81.991909 
L 64.07996 85.848459 
L 65.012598 85.83047 
L 65.945245 84.514346 
L 66.877884 84.819884 
L 67.810526 85.620245 
L 68.743162 74.979294 
L 69.675784 83.733048 
L 70.608443 82.764884 
L 71.541078 85.954511 
L 72.473724 81.319886 
L 73.406361 83.534636 
L 74.339003 85.620513 
L 75.271637 80.494557 
L 76.204286 81.895522 
L 77.136912 84.509782 
L 78.069558 84.992253 
L 79.002199 74.219207 
L 79.934841 80.086456 
L 80.867465 80.796605 
L 81.800118 82.086954 
L 82.732742 82.932151 
L 83.665398 85.613532 
L 84.598038 85.039775 
L 85.53068 82.242676 
L 86.463316 84.198605 
L 87.395962 84.264116 
L 96.913595 82.896711 
L 97.655282 84.988226 
L 98.587939 83.532757 
L 99.520578 85.013464 
L 100.453222 83.47369 
L 101.385859 84.329627 
L 102.318497 82.420415 
L 103.251135 83.882596 
L 104.183773 81.4203 
L 105.116412 79.626001 
L 106.049054 82.747701 
L 106.981691 80.063098 
L 107.914333 81.926399 
L 108.846974 79.382751 
L 109.779613 81.981707 
L 110.71225 83.059146 
L 111.644893 82.852142 
L 112.57753 79.147825 
L 113.510173 80.405419 
L 114.442814 78.442241 
L 115.37545 78.836917 
L 116.308095 83.33166 
L 117.240726 82.015268 
L 118.173367 82.844625 
L 119.106014 84.19592 
L 120.038653 82.252879 
L 120.971293 79.301937 
L 121.903926 76.137547 
L 122.836569 81.132214 
L 123.769209 83.367637 
L 124.701847 76.577598 
L 125.634489 80.658871 
L 129.365046 80.24379 
L 130.297692 81.333042 
L 131.230328 83.143719 
L 132.162968 81.506485 
L 133.095609 77.715446 
L 134.028248 78.24007 
L 134.960891 81.598039 
L 135.893512 81.111003 
L 136.826165 83.328438 
L 137.75881 81.044955 
L 138.691446 81.133019 
L 139.624089 81.737384 
L 140.556726 79.791657 
L 141.489366 79.092517 
L 142.422003 80.347694 
L 143.354646 80.411326 
L 144.287298 80.068467 
L 145.219926 78.635552 
L 146.152567 81.995668 
L 147.085204 69.921801 
L 148.017844 81.815245 
L 148.950485 81.581393 
L 149.883123 83.25004 
L 150.815765 81.493597 
L 151.7484 80.303662 
L 179.727656 80.303662 
L 188.43171 82.6591 
L 189.054038 77.738268 
L 189.986678 78.236848 
L 190.919315 77.79116 
L 191.851955 78.885513 
L 192.7846 9.472727 
L 193.717237 60.248747 
L 194.649875 79.884285 
L 195.582513 79.505181 
L 196.515156 78.488421 
L 197.447798 77.909025 
L 198.380437 70.108937 
L 199.313081 77.177398 
L 200.245713 79.521022 
L 201.178356 81.24283 
L 202.110995 77.077521 
L 203.043636 56.641085 
" clip-path="url(#p7a92f6655e)" style="fill: none; stroke: #339af0; stroke-width: 1.2; stroke-linecap: square"/>
   </g>
   <g id="line2d_16">
    <path d="M 43.916364 98.65261 
L 44.494523 98.577434 
L 45.427166 98.728055 
L 46.359808 98.817998 
L 47.292453 98.737184 
L 48.22509 98.805648 
L 49.157727 98.775041 
L 50.090359 98.613143 
L 51.023007 98.851291 
L 51.95565 98.771282 
L 52.88829 98.789539 
L 53.82093 98.025156 
L 54.753566 98.648315 
L 55.686208 98.518098 
L 56.618849 98.801889 
L 57.551483 98.190813 
L 58.484126 98.878408 
L 59.416765 98.751682 
L 60.349406 98.672747 
L 61.282045 98.786854 
L 62.214684 98.530986 
L 63.147327 98.535282 
L 64.07996 98.722954 
L 65.012598 98.387614 
L 65.945245 98.878408 
L 66.877884 98.574212 
L 67.810526 98.622003 
L 68.743162 98.42198 
L 69.675784 98.864178 
L 70.608443 98.78927 
L 71.541078 98.783632 
L 72.473724 98.877334 
L 73.406361 98.748729 
L 74.339003 98.850217 
L 75.271637 98.645898 
L 76.204286 98.804306 
L 77.136912 98.428155 
L 78.069558 98.641871 
L 79.002199 98.812897 
L 79.934841 98.800547 
L 80.867465 98.75383 
L 81.800118 98.782558 
L 82.732742 98.61368 
L 83.665398 98.624419 
L 84.598038 98.869548 
L 85.53068 98.758931 
L 86.463316 98.711678 
L 87.395962 98.653147 
L 96.913595 98.794909 
L 97.655282 98.591395 
L 98.587939 98.816925 
L 99.520578 98.726981 
L 100.453222 98.644287 
L 101.385859 98.779068 
L 102.318497 98.890222 
L 103.251135 98.888342 
L 104.183773 98.871964 
L 105.116412 98.894249 
L 106.049054 98.876797 
L 106.981691 98.778262 
L 107.914333 98.927273 
L 108.846974 98.884046 
L 109.779613 98.871427 
L 110.71225 98.90472 
L 111.644893 98.9117 
L 112.57753 98.853976 
L 113.510173 98.878677 
L 114.442814 98.666572 
L 115.37545 98.724296 
L 116.308095 98.767791 
L 117.240726 98.888074 
L 118.173367 98.895591 
L 119.106014 98.904183 
L 120.038653 98.906868 
L 120.971293 98.853976 
L 121.903926 98.682412 
L 122.836569 98.843236 
L 123.769209 98.858003 
L 124.701847 98.713288 
L 125.634489 98.84431 
L 129.365046 98.866058 
L 130.297692 98.829275 
L 131.230328 98.842699 
L 132.162968 98.835719 
L 133.095609 98.809944 
L 134.028248 98.819609 
L 134.960891 98.845384 
L 135.893512 98.794372 
L 136.826165 98.838672 
L 137.75881 98.828201 
L 138.691446 98.858272 
L 139.624089 98.830349 
L 140.556726 98.816388 
L 141.489366 98.779605 
L 142.422003 98.845384 
L 143.354646 98.853707 
L 144.287298 98.823637 
L 145.219926 98.769134 
L 146.152567 98.839477 
L 147.085204 98.711409 
L 148.017844 98.849143 
L 148.950485 98.803232 
L 149.883123 98.786317 
L 150.815765 98.785243 
L 151.7484 98.829006 
L 179.727656 98.829006 
L 188.43171 98.855318 
L 189.054038 98.615291 
L 189.986678 98.60294 
L 190.919315 98.650462 
L 191.851955 98.410435 
L 192.7846 98.205848 
L 193.717237 98.506285 
L 194.649875 98.535818 
L 195.582513 98.676506 
L 196.515156 98.415268 
L 197.447798 98.446144 
L 198.380437 98.545753 
L 199.313081 98.670599 
L 200.245713 98.612606 
L 201.178356 98.523468 
L 202.110995 98.717316 
L 203.043636 98.533402 
" clip-path="url(#p7a92f6655e)" style="fill: none; stroke: #ff6b6b; stroke-width: 1.2; stroke-linecap: square"/>
   </g>
   <g id="patch_3">
    <path d="M 35.96 103.4 
L 35.96 5 
" style="fill: none; stroke: var(--fg-color); stroke-width: 0.8; stroke-linejoin: miter; stroke-linecap: square"/>
   </g>
   <g id="patch_4">
    <path d="M 35.96 103.4 
L 211 103.4 
" style="fill: none; stroke: var(--fg-color); stroke-width: 0.8; stroke-linejoin: miter; stroke-linecap: square"/>
   </g>
  </g>
 </g>
 <defs>
  <clipPath id="p7a92f6655e">
   <rect x="35.96" y="5" width="175.04" height="98.4"/>
  </clipPath>
 </defs>
</svg>
