<?xml version="1.0" encoding="utf-8" standalone="no"?>
<!DOCTYPE svg PUBLIC "-//W3C//DTD SVG 1.1//EN"
  "http://www.w3.org/Graphics/SVG/1.1/DTD/svg11.dtd">
<svg xmlns:xlink="http://www.w3.org/1999/xlink" width="216pt" height="122.4pt" viewBox="0 0 216 122.4" xmlns="http://www.w3.org/2000/svg" version="1.1">
  <style>
    :root {
      --fg-color: #212529;
      --grid-color: rgba(33, 37, 41, 0.1);
    }
    @media (prefers-color-scheme: dark) {
      :root {
        --fg-color: #dee2e6;
        --grid-color: rgba(248, 249, 250, 0.15);
      }
    }
  </style>

 <metadata>
  <rdf:RDF xmlns:dc="http://purl.org/dc/elements/1.1/" xmlns:cc="http://creativecommons.org/ns#" xmlns:rdf="http://www.w3.org/1999/02/22-rdf-syntax-ns#">
   <cc:Work>
    <dc:type rdf:resource="http://purl.org/dc/dcmitype/StillImage"/>
    <dc:date>2026-06-30T15:37:08.271024</dc:date>
    <dc:format>image/svg+xml</dc:format>
    <dc:creator>
     <cc:Agent>
      <dc:title>Matplotlib v3.11.0, https://matplotlib.org/</dc:title>
     </cc:Agent>
    </dc:creator>
   </cc:Work>
  </rdf:RDF>
 </metadata>
 <defs>
  <style type="text/css">*{stroke-linejoin: round; stroke-linecap: butt}</style>
 </defs>
 <g id="figure_1">
  <g id="patch_1">
   <path d="M 0 122.4 
L 216 122.4 
L 216 0 
L 0 0 
L 0 122.4 
z
" style="fill: none; opacity: 0"/>
  </g>
  <g id="axes_1">
   <g id="patch_2">
    <path d="M 35.96 103.4 
L 211 103.4 
L 211 5 
L 35.96 5 
L 35.96 103.4 
z
" style="fill: none; opacity: 0"/>
   </g>
   <g id="matplotlib.axis_1">
    <g id="xtick_1">
     <g id="line2d_1">
      <path d="M 69.784035 103.4 
L 69.784035 5 
" clip-path="url(#pc03c6e8099)" style="fill: none; stroke-dasharray: 2.96,1.28; stroke-dashoffset: 0; stroke: var(--grid-color); stroke-width: 0.8"/>
     </g>
     <g id="line2d_2">
      <defs>
       <path id="m0206fa22f7" d="M 0 0 
L 0 3.5 
" style="stroke: var(--fg-color); stroke-width: 0.8"/>
      </defs>
      <g>
       <use xlink:href="#m0206fa22f7" x="69.784035" y="103.4" style="fill: var(--fg-color); stroke: var(--fg-color); stroke-width: 0.8"/>
      </g>
     </g>
     <g id="text_1">
      <text style="font-size: 7px; font-family: 'DejaVu Sans', 'Bitstream Vera Sans', 'Computer Modern Sans Serif', 'Lucida Grande', 'Verdana', 'Geneva', 'Lucid', 'Arial', 'Helvetica', 'Avant Garde', sans-serif; text-anchor: middle; fill: var(--fg-color)" x="69.784035" y="115.718359" transform="rotate(-0 69.784035 115.718359)">02/2026</text>
     </g>
    </g>
    <g id="xtick_2">
     <g id="line2d_3">
      <path d="M 122.345302 103.4 
L 122.345302 5 
" clip-path="url(#pc03c6e8099)" style="fill: none; stroke-dasharray: 2.96,1.28; stroke-dashoffset: 0; stroke: var(--grid-color); stroke-width: 0.8"/>
     </g>
     <g id="line2d_4">
      <g>
       <use xlink:href="#m0206fa22f7" x="122.345302" y="103.4" style="fill: var(--fg-color); stroke: var(--fg-color); stroke-width: 0.8"/>
      </g>
     </g>
     <g id="text_2">
      <text style="font-size: 7px; font-family: 'DejaVu Sans', 'Bitstream Vera Sans', 'Computer Modern Sans Serif', 'Lucida Grande', 'Verdana', 'Geneva', 'Lucid', 'Arial', 'Helvetica', 'Avant Garde', sans-serif; text-anchor: middle; fill: var(--fg-color)" x="122.345302" y="115.718359" transform="rotate(-0 122.345302 115.718359)">04/2026</text>
     </g>
    </g>
    <g id="xtick_3">
     <g id="line2d_5">
      <path d="M 176.688307 103.4 
L 176.688307 5 
" clip-path="url(#pc03c6e8099)" style="fill: none; stroke-dasharray: 2.96,1.28; stroke-dashoffset: 0; stroke: var(--grid-color); stroke-width: 0.8"/>
     </g>
     <g id="line2d_6">
      <g>
       <use xlink:href="#m0206fa22f7" x="176.688307" y="103.4" style="fill: var(--fg-color); stroke: var(--fg-color); stroke-width: 0.8"/>
      </g>
     </g>
     <g id="text_3">
      <text style="font-size: 7px; font-family: 'DejaVu Sans', 'Bitstream Vera Sans', 'Computer Modern Sans Serif', 'Lucida Grande', 'Verdana', 'Geneva', 'Lucid', 'Arial', 'Helvetica', 'Avant Garde', sans-serif; text-anchor: middle; fill: var(--fg-color)" x="176.688307" y="115.718359" transform="rotate(-0 176.688307 115.718359)">06/2026</text>
     </g>
    </g>
   </g>
   <g id="matplotlib.axis_2">
    <g id="ytick_1">
     <g id="line2d_7">
      <path d="M 35.96 99.667074 
L 211 99.667074 
" clip-path="url(#pc03c6e8099)" style="fill: none; stroke-dasharray: 2.96,1.28; stroke-dashoffset: 0; stroke: var(--grid-color); stroke-width: 0.8"/>
     </g>
     <g id="line2d_8">
      <defs>
       <path id="mec835ad56a" d="M 0 0 
L -3.5 0 
" style="stroke: var(--fg-color); stroke-width: 0.8"/>
      </defs>
      <g>
       <use xlink:href="#mec835ad56a" x="35.96" y="99.667074" style="fill: var(--fg-color); stroke: var(--fg-color); stroke-width: 0.8"/>
      </g>
     </g>
     <g id="text_4">
      <text style="font-size: 7px; font-family: 'DejaVu Sans', 'Bitstream Vera Sans', 'Computer Modern Sans Serif', 'Lucida Grande', 'Verdana', 'Geneva', 'Lucid', 'Arial', 'Helvetica', 'Avant Garde', sans-serif; text-anchor: end; fill: var(--fg-color)" x="28.96" y="102.326254" transform="rotate(-0 28.96 102.326254)">0</text>
     </g>
    </g>
    <g id="ytick_2">
     <g id="line2d_9">
      <path d="M 35.96 71.670797 
L 211 71.670797 
" clip-path="url(#pc03c6e8099)" style="fill: none; stroke-dasharray: 2.96,1.28; stroke-dashoffset: 0; stroke: var(--grid-color); stroke-width: 0.8"/>
     </g>
     <g id="line2d_10">
      <g>
       <use xlink:href="#mec835ad56a" x="35.96" y="71.670797" style="fill: var(--fg-color); stroke: var(--fg-color); stroke-width: 0.8"/>
      </g>
     </g>
     <g id="text_5">
      <text style="font-size: 7px; font-family: 'DejaVu Sans', 'Bitstream Vera Sans', 'Computer Modern Sans Serif', 'Lucida Grande', 'Verdana', 'Geneva', 'Lucid', 'Arial', 'Helvetica', 'Avant Garde', sans-serif; text-anchor: end; fill: var(--fg-color)" x="28.96" y="74.329977" transform="rotate(-0 28.96 74.329977)">200</text>
     </g>
    </g>
    <g id="ytick_3">
     <g id="line2d_11">
      <path d="M 35.96 43.67452 
L 211 43.67452 
" clip-path="url(#pc03c6e8099)" style="fill: none; stroke-dasharray: 2.96,1.28; stroke-dashoffset: 0; stroke: var(--grid-color); stroke-width: 0.8"/>
     </g>
     <g id="line2d_12">
      <g>
       <use xlink:href="#mec835ad56a" x="35.96" y="43.67452" style="fill: var(--fg-color); stroke: var(--fg-color); stroke-width: 0.8"/>
      </g>
     </g>
     <g id="text_6">
      <text style="font-size: 7px; font-family: 'DejaVu Sans', 'Bitstream Vera Sans', 'Computer Modern Sans Serif', 'Lucida Grande', 'Verdana', 'Geneva', 'Lucid', 'Arial', 'Helvetica', 'Avant Garde', sans-serif; text-anchor: end; fill: var(--fg-color)" x="28.96" y="46.333699" transform="rotate(-0 28.96 46.333699)">400</text>
     </g>
    </g>
    <g id="ytick_4">
     <g id="line2d_13">
      <path d="M 35.96 15.678242 
L 211 15.678242 
" clip-path="url(#pc03c6e8099)" style="fill: none; stroke-dasharray: 2.96,1.28; stroke-dashoffset: 0; stroke: var(--grid-color); stroke-width: 0.8"/>
     </g>
     <g id="line2d_14">
      <g>
       <use xlink:href="#mec835ad56a" x="35.96" y="15.678242" style="fill: var(--fg-color); stroke: var(--fg-color); stroke-width: 0.8"/>
      </g>
     </g>
     <g id="text_7">
      <text style="font-size: 7px; font-family: 'DejaVu Sans', 'Bitstream Vera Sans', 'Computer Modern Sans Serif', 'Lucida Grande', 'Verdana', 'Geneva', 'Lucid', 'Arial', 'Helvetica', 'Avant Garde', sans-serif; text-anchor: end; fill: var(--fg-color)" x="28.96" y="18.337422" transform="rotate(-0 28.96 18.337422)">600</text>
     </g>
    </g>
    <g id="text_8">
     <text style="font-size: 7px; font-family: 'DejaVu Sans', 'Bitstream Vera Sans', 'Computer Modern Sans Serif', 'Lucida Grande', 'Verdana', 'Geneva', 'Lucid', 'Arial', 'Helvetica', 'Avant Garde', sans-serif; text-anchor: middle; fill: var(--fg-color)" x="9.917109" y="54.2" transform="rotate(-90 9.917109 54.2)">ms</text>
    </g>
   </g>
   <g id="line2d_15">
    <path d="M 43.916364 89.761711 
L 44.468628 89.120317 
L 45.3595 88.937781 
L 46.250371 90.274183 
L 47.141245 89.6969 
L 48.922979 90.437962 
L 49.81384 89.148593 
L 50.704717 79.456142 
L 51.595589 89.055645 
L 52.486458 89.8471 
L 53.377327 90.052313 
L 54.268192 88.859531 
L 55.159063 90.134762 
L 56.049934 87.400365 
L 56.940797 88.761684 
L 57.831669 89.780469 
L 58.722538 88.369317 
L 59.613407 88.576629 
L 60.504275 89.691301 
L 61.395144 87.766557 
L 62.286016 89.230762 
L 63.176879 89.224883 
L 64.067746 86.677642 
L 64.958622 87.913397 
L 65.84949 87.003238 
L 66.740361 89.059425 
L 67.631226 86.275055 
L 68.522078 87.552525 
L 69.412965 89.370463 
L 70.30383 89.867257 
L 72.085571 88.485361 
L 72.976442 80.565074 
L 73.867306 89.612911 
L 74.758184 89.626209 
L 75.649039 87.700486 
L 76.539914 87.760678 
L 77.430784 87.644633 
L 78.321655 88.669857 
L 79.212509 88.72347 
L 80.103391 89.259458 
L 80.994245 87.862444 
L 81.885129 87.988707 
L 82.775998 88.327322 
L 83.666869 88.498799 
L 84.557735 78.108121 
L 85.44861 89.879016 
L 94.53997 90.185855 
L 95.248438 88.135268 
L 96.139324 89.054945 
L 97.030192 88.623803 
L 97.921065 86.871236 
L 99.702798 88.330542 
L 100.593666 87.835988 
L 101.484533 88.784221 
L 102.375401 89.379422 
L 103.266272 87.504092 
L 104.157138 89.908272 
L 105.048009 89.409238 
L 105.93888 89.84724 
L 106.829748 88.169423 
L 107.720614 89.02303 
L 108.611487 89.036888 
L 109.502352 88.898446 
L 110.393224 88.319763 
L 111.284094 89.661905 
L 112.17496 89.048646 
L 113.065834 87.714064 
L 113.956695 89.001053 
L 114.847564 89.049206 
L 115.738441 87.305318 
L 116.629309 89.423376 
L 117.520178 89.792367 
L 118.41104 89.684022 
L 119.301913 77.756908 
L 120.192782 78.670006 
L 121.083649 89.203186 
L 121.97452 87.302938 
L 125.537994 87.81793 
L 126.428869 90.117124 
L 127.319734 87.456358 
L 128.210603 89.116537 
L 129.101474 88.951919 
L 129.992342 88.243193 
L 130.883214 86.796066 
L 131.774065 89.013091 
L 132.664946 88.146886 
L 133.55582 88.668597 
L 134.446686 88.387934 
L 135.337558 87.313997 
L 136.228424 88.635981 
L 137.119294 87.400085 
L 138.010159 88.480322 
L 138.901032 87.275502 
L 139.791912 88.059118 
L 140.68277 87.654852 
L 141.57364 87.875742 
L 142.464507 75.402981 
L 143.355376 88.431468 
L 144.246246 87.483514 
L 145.137113 87.100665 
L 146.027984 86.507284 
L 146.918849 87.911437 
L 173.644977 87.911437 
L 181.959197 82.765862 
L 182.553652 66.320148 
L 183.444521 31.229474 
L 184.335387 89.596953 
L 185.226256 89.534662 
L 186.117131 89.043047 
L 187.007996 21.33223 
L 187.898864 22.960074 
L 188.789731 89.954466 
L 189.680603 76.473558 
L 190.571474 89.730216 
L 191.462343 66.916889 
L 192.353215 87.507311 
L 193.244077 89.92311 
L 194.134949 89.506665 
L 195.025817 26.704576 
L 195.916688 19.7552 
L 196.807557 89.525003 
L 197.698426 82.345358 
L 198.589295 9.472727 
L 199.480162 88.534495 
L 200.371032 90.156459 
L 201.261898 87.81457 
L 202.152766 20.263612 
L 203.043636 12.08492 
L 203.043636 12.08492 
" clip-path="url(#pc03c6e8099)" style="fill: none; stroke: #339af0; stroke-width: 1.2; stroke-linecap: square"/>
   </g>
   <g id="line2d_16">
    <path d="M 43.916364 98.834045 
L 44.468628 98.596497 
L 45.3595 98.830826 
L 48.032112 98.87548 
L 48.922979 98.524266 
L 50.704717 98.839504 
L 51.595589 98.851543 
L 52.486458 98.711701 
L 53.377327 98.841604 
L 54.268192 98.473593 
L 55.159063 98.761955 
L 57.831669 98.87016 
L 59.613407 98.775113 
L 60.504275 98.878139 
L 61.395144 98.522447 
L 63.176879 98.836425 
L 64.958622 98.881919 
L 65.84949 98.705682 
L 68.522078 98.767274 
L 69.412965 98.660048 
L 71.194705 98.824666 
L 72.085571 98.552263 
L 73.867306 98.842444 
L 74.758184 98.772453 
L 75.649039 98.853922 
L 76.539914 98.653889 
L 77.430784 98.819347 
L 79.212509 98.777213 
L 80.103391 98.885558 
L 82.775998 98.823407 
L 85.44861 98.854342 
L 94.53997 98.728639 
L 96.139324 98.87604 
L 97.030192 98.737878 
L 100.593666 98.893817 
L 101.484533 98.830406 
L 102.375401 98.927273 
L 103.266272 98.904036 
L 104.157138 98.765454 
L 106.829748 98.845384 
L 107.720614 98.925733 
L 108.611487 98.836705 
L 109.502352 98.880659 
L 110.393224 98.742497 
L 112.17496 98.886818 
L 113.065834 98.856022 
L 113.956695 98.622113 
L 114.847564 98.854342 
L 115.738441 98.760135 
L 117.520178 98.903476 
L 118.41104 98.694204 
L 119.301913 98.79751 
L 120.192782 98.662008 
L 121.083649 98.861621 
L 121.97452 98.64591 
L 126.428869 98.891857 
L 127.319734 98.784632 
L 128.210603 98.481572 
L 131.774065 98.87296 
L 132.664946 98.675306 
L 135.337558 98.792331 
L 136.228424 98.597197 
L 139.791912 98.728779 
L 140.68277 98.72122 
L 141.57364 98.832225 
L 142.464507 98.655569 
L 143.355376 98.839924 
L 144.246246 98.766294 
L 145.137113 98.428379 
L 146.918849 98.803529 
L 181.959197 98.811368 
L 182.553652 98.684965 
L 183.444521 98.901516 
L 185.226256 98.806889 
L 188.789731 98.847063 
L 196.807557 98.848463 
L 203.043636 98.87548 
L 203.043636 98.87548 
" clip-path="url(#pc03c6e8099)" style="fill: none; stroke: #ff6b6b; stroke-width: 1.2; stroke-linecap: square"/>
   </g>
   <g id="patch_3">
    <path d="M 35.96 103.4 
L 35.96 5 
" style="fill: none; stroke: var(--fg-color); stroke-width: 0.8; stroke-linejoin: miter; stroke-linecap: square"/>
   </g>
   <g id="patch_4">
    <path d="M 35.96 103.4 
L 211 103.4 
" style="fill: none; stroke: var(--fg-color); stroke-width: 0.8; stroke-linejoin: miter; stroke-linecap: square"/>
   </g>
  </g>
 </g>
 <defs>
  <clipPath id="pc03c6e8099">
   <rect x="35.96" y="5" width="175.04" height="98.4"/>
  </clipPath>
 </defs>
</svg>
