<?xml version="1.0" encoding="utf-8" standalone="no"?>
<!DOCTYPE svg PUBLIC "-//W3C//DTD SVG 1.1//EN"
  "http://www.w3.org/Graphics/SVG/1.1/DTD/svg11.dtd">
<svg xmlns:xlink="http://www.w3.org/1999/xlink" width="216pt" height="122.4pt" viewBox="0 0 216 122.4" xmlns="http://www.w3.org/2000/svg" version="1.1">
  <style>
    :root {
      --fg-color: #212529;
      --grid-color: rgba(33, 37, 41, 0.1);
    }
    @media (prefers-color-scheme: dark) {
      :root {
        --fg-color: #dee2e6;
        --grid-color: rgba(248, 249, 250, 0.15);
      }
    }
  </style>

 <metadata>
  <rdf:RDF xmlns:dc="http://purl.org/dc/elements/1.1/" xmlns:cc="http://creativecommons.org/ns#" xmlns:rdf="http://www.w3.org/1999/02/22-rdf-syntax-ns#">
   <cc:Work>
    <dc:type rdf:resource="http://purl.org/dc/dcmitype/StillImage"/>
    <dc:date>2026-06-30T15:38:06.842712</dc:date>
    <dc:format>image/svg+xml</dc:format>
    <dc:creator>
     <cc:Agent>
      <dc:title>Matplotlib v3.11.0, https://matplotlib.org/</dc:title>
     </cc:Agent>
    </dc:creator>
   </cc:Work>
  </rdf:RDF>
 </metadata>
 <defs>
  <style type="text/css">*{stroke-linejoin: round; stroke-linecap: butt}</style>
 </defs>
 <g id="figure_1">
  <g id="patch_1">
   <path d="M 0 122.4 
L 216 122.4 
L 216 0 
L 0 0 
L 0 122.4 
z
" style="fill: none; opacity: 0"/>
  </g>
  <g id="axes_1">
   <g id="patch_2">
    <path d="M 35.96 103.4 
L 211 103.4 
L 211 5 
L 35.96 5 
L 35.96 103.4 
z
" style="fill: none; opacity: 0"/>
   </g>
   <g id="matplotlib.axis_1">
    <g id="xtick_1">
     <g id="line2d_1">
      <path d="M 69.784035 103.4 
L 69.784035 5 
" clip-path="url(#p74429d4e09)" style="fill: none; stroke-dasharray: 2.96,1.28; stroke-dashoffset: 0; stroke: var(--grid-color); stroke-width: 0.8"/>
     </g>
     <g id="line2d_2">
      <defs>
       <path id="m5cc7147261" d="M 0 0 
L 0 3.5 
" style="stroke: var(--fg-color); stroke-width: 0.8"/>
      </defs>
      <g>
       <use xlink:href="#m5cc7147261" x="69.784035" y="103.4" style="fill: var(--fg-color); stroke: var(--fg-color); stroke-width: 0.8"/>
      </g>
     </g>
     <g id="text_1">
      <text style="font-size: 7px; font-family: 'DejaVu Sans', 'Bitstream Vera Sans', 'Computer Modern Sans Serif', 'Lucida Grande', 'Verdana', 'Geneva', 'Lucid', 'Arial', 'Helvetica', 'Avant Garde', sans-serif; text-anchor: middle; fill: var(--fg-color)" x="69.784035" y="115.718359" transform="rotate(-0 69.784035 115.718359)">02/2026</text>
     </g>
    </g>
    <g id="xtick_2">
     <g id="line2d_3">
      <path d="M 122.345302 103.4 
L 122.345302 5 
" clip-path="url(#p74429d4e09)" style="fill: none; stroke-dasharray: 2.96,1.28; stroke-dashoffset: 0; stroke: var(--grid-color); stroke-width: 0.8"/>
     </g>
     <g id="line2d_4">
      <g>
       <use xlink:href="#m5cc7147261" x="122.345302" y="103.4" style="fill: var(--fg-color); stroke: var(--fg-color); stroke-width: 0.8"/>
      </g>
     </g>
     <g id="text_2">
      <text style="font-size: 7px; font-family: 'DejaVu Sans', 'Bitstream Vera Sans', 'Computer Modern Sans Serif', 'Lucida Grande', 'Verdana', 'Geneva', 'Lucid', 'Arial', 'Helvetica', 'Avant Garde', sans-serif; text-anchor: middle; fill: var(--fg-color)" x="122.345302" y="115.718359" transform="rotate(-0 122.345302 115.718359)">04/2026</text>
     </g>
    </g>
    <g id="xtick_3">
     <g id="line2d_5">
      <path d="M 176.688307 103.4 
L 176.688307 5 
" clip-path="url(#p74429d4e09)" style="fill: none; stroke-dasharray: 2.96,1.28; stroke-dashoffset: 0; stroke: var(--grid-color); stroke-width: 0.8"/>
     </g>
     <g id="line2d_6">
      <g>
       <use xlink:href="#m5cc7147261" x="176.688307" y="103.4" style="fill: var(--fg-color); stroke: var(--fg-color); stroke-width: 0.8"/>
      </g>
     </g>
     <g id="text_3">
      <text style="font-size: 7px; font-family: 'DejaVu Sans', 'Bitstream Vera Sans', 'Computer Modern Sans Serif', 'Lucida Grande', 'Verdana', 'Geneva', 'Lucid', 'Arial', 'Helvetica', 'Avant Garde', sans-serif; text-anchor: middle; fill: var(--fg-color)" x="176.688307" y="115.718359" transform="rotate(-0 176.688307 115.718359)">06/2026</text>
     </g>
    </g>
   </g>
   <g id="matplotlib.axis_2">
    <g id="ytick_1">
     <g id="line2d_7">
      <path d="M 35.96 99.245385 
L 211 99.245385 
" clip-path="url(#p74429d4e09)" style="fill: none; stroke-dasharray: 2.96,1.28; stroke-dashoffset: 0; stroke: var(--grid-color); stroke-width: 0.8"/>
     </g>
     <g id="line2d_8">
      <defs>
       <path id="m8a90941c31" d="M 0 0 
L -3.5 0 
" style="stroke: var(--fg-color); stroke-width: 0.8"/>
      </defs>
      <g>
       <use xlink:href="#m8a90941c31" x="35.96" y="99.245385" style="fill: var(--fg-color); stroke: var(--fg-color); stroke-width: 0.8"/>
      </g>
     </g>
     <g id="text_4">
      <text style="font-size: 7px; font-family: 'DejaVu Sans', 'Bitstream Vera Sans', 'Computer Modern Sans Serif', 'Lucida Grande', 'Verdana', 'Geneva', 'Lucid', 'Arial', 'Helvetica', 'Avant Garde', sans-serif; text-anchor: end; fill: var(--fg-color)" x="28.96" y="101.904564" transform="rotate(-0 28.96 101.904564)">0</text>
     </g>
    </g>
    <g id="ytick_2">
     <g id="line2d_9">
      <path d="M 35.96 76.732148 
L 211 76.732148 
" clip-path="url(#p74429d4e09)" style="fill: none; stroke-dasharray: 2.96,1.28; stroke-dashoffset: 0; stroke: var(--grid-color); stroke-width: 0.8"/>
     </g>
     <g id="line2d_10">
      <g>
       <use xlink:href="#m8a90941c31" x="35.96" y="76.732148" style="fill: var(--fg-color); stroke: var(--fg-color); stroke-width: 0.8"/>
      </g>
     </g>
     <g id="text_5">
      <text style="font-size: 7px; font-family: 'DejaVu Sans', 'Bitstream Vera Sans', 'Computer Modern Sans Serif', 'Lucida Grande', 'Verdana', 'Geneva', 'Lucid', 'Arial', 'Helvetica', 'Avant Garde', sans-serif; text-anchor: end; fill: var(--fg-color)" x="28.96" y="79.391328" transform="rotate(-0 28.96 79.391328)">100</text>
     </g>
    </g>
    <g id="ytick_3">
     <g id="line2d_11">
      <path d="M 35.96 54.218911 
L 211 54.218911 
" clip-path="url(#p74429d4e09)" style="fill: none; stroke-dasharray: 2.96,1.28; stroke-dashoffset: 0; stroke: var(--grid-color); stroke-width: 0.8"/>
     </g>
     <g id="line2d_12">
      <g>
       <use xlink:href="#m8a90941c31" x="35.96" y="54.218911" style="fill: var(--fg-color); stroke: var(--fg-color); stroke-width: 0.8"/>
      </g>
     </g>
     <g id="text_6">
      <text style="font-size: 7px; font-family: 'DejaVu Sans', 'Bitstream Vera Sans', 'Computer Modern Sans Serif', 'Lucida Grande', 'Verdana', 'Geneva', 'Lucid', 'Arial', 'Helvetica', 'Avant Garde', sans-serif; text-anchor: end; fill: var(--fg-color)" x="28.96" y="56.878091" transform="rotate(-0 28.96 56.878091)">200</text>
     </g>
    </g>
    <g id="ytick_4">
     <g id="line2d_13">
      <path d="M 35.96 31.705674 
L 211 31.705674 
" clip-path="url(#p74429d4e09)" style="fill: none; stroke-dasharray: 2.96,1.28; stroke-dashoffset: 0; stroke: var(--grid-color); stroke-width: 0.8"/>
     </g>
     <g id="line2d_14">
      <g>
       <use xlink:href="#m8a90941c31" x="35.96" y="31.705674" style="fill: var(--fg-color); stroke: var(--fg-color); stroke-width: 0.8"/>
      </g>
     </g>
     <g id="text_7">
      <text style="font-size: 7px; font-family: 'DejaVu Sans', 'Bitstream Vera Sans', 'Computer Modern Sans Serif', 'Lucida Grande', 'Verdana', 'Geneva', 'Lucid', 'Arial', 'Helvetica', 'Avant Garde', sans-serif; text-anchor: end; fill: var(--fg-color)" x="28.96" y="34.364854" transform="rotate(-0 28.96 34.364854)">300</text>
     </g>
    </g>
    <g id="ytick_5">
     <g id="line2d_15">
      <path d="M 35.96 9.192437 
L 211 9.192437 
" clip-path="url(#p74429d4e09)" style="fill: none; stroke-dasharray: 2.96,1.28; stroke-dashoffset: 0; stroke: var(--grid-color); stroke-width: 0.8"/>
     </g>
     <g id="line2d_16">
      <g>
       <use xlink:href="#m8a90941c31" x="35.96" y="9.192437" style="fill: var(--fg-color); stroke: var(--fg-color); stroke-width: 0.8"/>
      </g>
     </g>
     <g id="text_8">
      <text style="font-size: 7px; font-family: 'DejaVu Sans', 'Bitstream Vera Sans', 'Computer Modern Sans Serif', 'Lucida Grande', 'Verdana', 'Geneva', 'Lucid', 'Arial', 'Helvetica', 'Avant Garde', sans-serif; text-anchor: end; fill: var(--fg-color)" x="28.96" y="11.851617" transform="rotate(-0 28.96 11.851617)">400</text>
     </g>
    </g>
    <g id="text_9">
     <text style="font-size: 7px; font-family: 'DejaVu Sans', 'Bitstream Vera Sans', 'Computer Modern Sans Serif', 'Lucida Grande', 'Verdana', 'Geneva', 'Lucid', 'Arial', 'Helvetica', 'Avant Garde', sans-serif; text-anchor: middle; fill: var(--fg-color)" x="9.917109" y="54.2" transform="rotate(-90 9.917109 54.2)">ms</text>
    </g>
   </g>
   <g id="line2d_17">
    <path d="M 43.916364 9.472727 
L 44.468628 78.876759 
L 45.3595 79.887603 
L 46.250371 77.745244 
L 47.141245 77.624122 
L 48.032112 79.102116 
L 48.922979 77.010412 
L 49.81384 77.246575 
L 50.704717 81.375728 
L 51.595589 78.787606 
L 52.486458 77.768432 
L 53.377327 77.417001 
L 54.268192 79.664497 
L 55.159063 75.529716 
L 56.049934 76.55767 
L 56.940797 76.423717 
L 57.831669 81.244926 
L 58.722538 79.06587 
L 59.613407 81.129433 
L 60.504275 77.218884 
L 61.395144 77.290926 
L 63.176879 81.295356 
L 64.067746 80.816274 
L 64.958622 75.033974 
L 65.84949 73.858108 
L 66.740361 74.934016 
L 67.631226 78.328111 
L 68.522078 78.62281 
L 69.412965 73.657065 
L 70.30383 79.875896 
L 71.194705 77.249277 
L 72.085571 76.477073 
L 72.976442 81.045684 
L 73.867306 75.924823 
L 74.758184 78.219597 
L 75.649039 77.005234 
L 76.539914 80.574032 
L 77.430784 80.194459 
L 78.321655 77.174083 
L 79.212509 79.584125 
L 80.103391 77.887077 
L 80.994245 76.774473 
L 81.885129 81.116826 
L 82.775998 77.9679 
L 83.666869 78.633166 
L 84.557735 80.081442 
L 85.44861 79.582549 
L 94.53997 77.247476 
L 95.248438 80.235883 
L 96.139324 77.834846 
L 97.030192 79.639507 
L 98.811931 74.071534 
L 99.702798 77.48364 
L 100.593666 80.070411 
L 101.484533 80.925238 
L 102.375401 77.40732 
L 103.266272 79.111572 
L 104.157138 76.011274 
L 105.048009 74.959231 
L 105.93888 75.848278 
L 106.829748 77.9688 
L 107.720614 79.444768 
L 108.611487 72.447879 
L 109.502352 77.856459 
L 110.393224 77.608813 
L 111.284094 76.614179 
L 112.17496 75.320343 
L 113.065834 79.399066 
L 113.956695 76.403004 
L 114.847564 79.933755 
L 115.738441 77.88325 
L 116.629309 77.789595 
L 117.520178 78.587464 
L 118.41104 71.331448 
L 119.301913 78.953079 
L 120.192782 80.67264 
L 121.97452 77.800401 
L 125.537994 76.637817 
L 126.428869 74.188828 
L 127.319734 78.910754 
L 128.210603 75.963096 
L 129.101474 74.685695 
L 129.992342 75.298055 
L 130.883214 74.416436 
L 131.774065 78.974466 
L 132.664946 75.352087 
L 133.55582 78.127518 
L 134.446686 76.578833 
L 135.337558 76.668886 
L 136.228424 74.6947 
L 137.119294 73.519059 
L 138.010159 76.806442 
L 138.901032 73.20635 
L 139.791912 74.807041 
L 140.68277 73.645583 
L 141.57364 76.23393 
L 142.464507 69.211826 
L 143.355376 76.713687 
L 144.246246 77.768882 
L 145.137113 76.779651 
L 146.027984 75.235018 
L 146.918849 78.492458 
L 173.644977 78.492458 
L 181.959197 76.879835 
L 182.553652 79.679356 
L 183.444521 74.904073 
L 184.335387 75.18864 
L 185.226256 77.216408 
L 186.117131 77.135585 
L 187.007996 74.375687 
L 187.898864 80.792635 
L 188.789731 76.154458 
L 189.680603 77.061742 
L 190.571474 77.57797 
L 191.462343 76.246312 
L 192.353215 76.612152 
L 193.244077 75.161399 
L 194.134949 75.945535 
L 195.025817 79.368448 
L 195.916688 75.920771 
L 196.807557 74.953152 
L 197.698426 74.940995 
L 198.589295 78.933943 
L 199.480162 71.163724 
L 200.371032 77.800626 
L 201.261898 74.743103 
L 202.152766 52.685084 
L 203.043636 76.64142 
L 203.043636 76.64142 
" clip-path="url(#p74429d4e09)" style="fill: none; stroke: #339af0; stroke-width: 1.2; stroke-linecap: square"/>
   </g>
   <g id="line2d_18">
    <path d="M 43.916364 98.883372 
L 48.922979 98.874367 
L 49.81384 98.826413 
L 50.704717 98.907686 
L 53.377327 98.881121 
L 55.159063 98.849377 
L 61.395144 98.895079 
L 73.867306 98.886974 
L 77.430784 98.918943 
L 85.44861 98.899356 
L 113.065834 98.911288 
L 113.956695 98.757298 
L 115.738441 98.899356 
L 121.083649 98.850728 
L 121.97452 98.892827 
L 130.883214 98.840147 
L 132.664946 98.859058 
L 140.68277 98.807502 
L 143.355376 98.886749 
L 146.918849 98.880895 
L 182.553652 98.782287 
L 183.444521 98.754821 
L 184.335387 98.605108 
L 185.226256 98.864461 
L 186.117131 98.836319 
L 187.007996 98.340353 
L 187.898864 98.89688 
L 190.571474 98.875042 
L 191.462343 98.862435 
L 192.353215 98.726905 
L 193.244077 98.860859 
L 195.025817 98.87144 
L 195.916688 98.680528 
L 198.589295 98.882021 
L 199.480162 98.822361 
L 202.152766 98.890351 
L 203.043636 98.89688 
L 203.043636 98.89688 
" clip-path="url(#p74429d4e09)" style="fill: none; stroke: #ff6b6b; stroke-width: 1.2; stroke-linecap: square"/>
   </g>
   <g id="patch_3">
    <path d="M 35.96 103.4 
L 35.96 5 
" style="fill: none; stroke: var(--fg-color); stroke-width: 0.8; stroke-linejoin: miter; stroke-linecap: square"/>
   </g>
   <g id="patch_4">
    <path d="M 35.96 103.4 
L 211 103.4 
" style="fill: none; stroke: var(--fg-color); stroke-width: 0.8; stroke-linejoin: miter; stroke-linecap: square"/>
   </g>
  </g>
 </g>
 <defs>
  <clipPath id="p74429d4e09">
   <rect x="35.96" y="5" width="175.04" height="98.4"/>
  </clipPath>
 </defs>
</svg>
