<?xml version="1.0" encoding="utf-8" standalone="no"?>
<!DOCTYPE svg PUBLIC "-//W3C//DTD SVG 1.1//EN"
  "http://www.w3.org/Graphics/SVG/1.1/DTD/svg11.dtd">
<svg xmlns:xlink="http://www.w3.org/1999/xlink" width="216pt" height="122.4pt" viewBox="0 0 216 122.4" xmlns="http://www.w3.org/2000/svg" version="1.1">
  <style>
    :root {
      --fg-color: #212529;
      --grid-color: rgba(33, 37, 41, 0.1);
    }
    @media (prefers-color-scheme: dark) {
      :root {
        --fg-color: #dee2e6;
        --grid-color: rgba(248, 249, 250, 0.15);
      }
    }
  </style>

 <metadata>
  <rdf:RDF xmlns:dc="http://purl.org/dc/elements/1.1/" xmlns:cc="http://creativecommons.org/ns#" xmlns:rdf="http://www.w3.org/1999/02/22-rdf-syntax-ns#">
   <cc:Work>
    <dc:type rdf:resource="http://purl.org/dc/dcmitype/StillImage"/>
    <dc:date>2026-06-30T15:38:07.379160</dc:date>
    <dc:format>image/svg+xml</dc:format>
    <dc:creator>
     <cc:Agent>
      <dc:title>Matplotlib v3.11.0, https://matplotlib.org/</dc:title>
     </cc:Agent>
    </dc:creator>
   </cc:Work>
  </rdf:RDF>
 </metadata>
 <defs>
  <style type="text/css">*{stroke-linejoin: round; stroke-linecap: butt}</style>
 </defs>
 <g id="figure_1">
  <g id="patch_1">
   <path d="M 0 122.4 
L 216 122.4 
L 216 0 
L 0 0 
L 0 122.4 
z
" style="fill: none; opacity: 0"/>
  </g>
  <g id="axes_1">
   <g id="patch_2">
    <path d="M 35.96 103.4 
L 211 103.4 
L 211 5 
L 35.96 5 
L 35.96 103.4 
z
" style="fill: none; opacity: 0"/>
   </g>
   <g id="matplotlib.axis_1">
    <g id="xtick_1">
     <g id="line2d_1">
      <path d="M 69.784035 103.4 
L 69.784035 5 
" clip-path="url(#pc4d5aae403)" style="fill: none; stroke-dasharray: 2.96,1.28; stroke-dashoffset: 0; stroke: var(--grid-color); stroke-width: 0.8"/>
     </g>
     <g id="line2d_2">
      <defs>
       <path id="m06f552f7e4" d="M 0 0 
L 0 3.5 
" style="stroke: var(--fg-color); stroke-width: 0.8"/>
      </defs>
      <g>
       <use xlink:href="#m06f552f7e4" x="69.784035" y="103.4" style="fill: var(--fg-color); stroke: var(--fg-color); stroke-width: 0.8"/>
      </g>
     </g>
     <g id="text_1">
      <text style="font-size: 7px; font-family: 'DejaVu Sans', 'Bitstream Vera Sans', 'Computer Modern Sans Serif', 'Lucida Grande', 'Verdana', 'Geneva', 'Lucid', 'Arial', 'Helvetica', 'Avant Garde', sans-serif; text-anchor: middle; fill: var(--fg-color)" x="69.784035" y="115.718359" transform="rotate(-0 69.784035 115.718359)">02/2026</text>
     </g>
    </g>
    <g id="xtick_2">
     <g id="line2d_3">
      <path d="M 122.345302 103.4 
L 122.345302 5 
" clip-path="url(#pc4d5aae403)" style="fill: none; stroke-dasharray: 2.96,1.28; stroke-dashoffset: 0; stroke: var(--grid-color); stroke-width: 0.8"/>
     </g>
     <g id="line2d_4">
      <g>
       <use xlink:href="#m06f552f7e4" x="122.345302" y="103.4" style="fill: var(--fg-color); stroke: var(--fg-color); stroke-width: 0.8"/>
      </g>
     </g>
     <g id="text_2">
      <text style="font-size: 7px; font-family: 'DejaVu Sans', 'Bitstream Vera Sans', 'Computer Modern Sans Serif', 'Lucida Grande', 'Verdana', 'Geneva', 'Lucid', 'Arial', 'Helvetica', 'Avant Garde', sans-serif; text-anchor: middle; fill: var(--fg-color)" x="122.345302" y="115.718359" transform="rotate(-0 122.345302 115.718359)">04/2026</text>
     </g>
    </g>
    <g id="xtick_3">
     <g id="line2d_5">
      <path d="M 176.688307 103.4 
L 176.688307 5 
" clip-path="url(#pc4d5aae403)" style="fill: none; stroke-dasharray: 2.96,1.28; stroke-dashoffset: 0; stroke: var(--grid-color); stroke-width: 0.8"/>
     </g>
     <g id="line2d_6">
      <g>
       <use xlink:href="#m06f552f7e4" x="176.688307" y="103.4" style="fill: var(--fg-color); stroke: var(--fg-color); stroke-width: 0.8"/>
      </g>
     </g>
     <g id="text_3">
      <text style="font-size: 7px; font-family: 'DejaVu Sans', 'Bitstream Vera Sans', 'Computer Modern Sans Serif', 'Lucida Grande', 'Verdana', 'Geneva', 'Lucid', 'Arial', 'Helvetica', 'Avant Garde', sans-serif; text-anchor: middle; fill: var(--fg-color)" x="176.688307" y="115.718359" transform="rotate(-0 176.688307 115.718359)">06/2026</text>
     </g>
    </g>
   </g>
   <g id="matplotlib.axis_2">
    <g id="ytick_1">
     <g id="line2d_7">
      <path d="M 35.96 99.697762 
L 211 99.697762 
" clip-path="url(#pc4d5aae403)" style="fill: none; stroke-dasharray: 2.96,1.28; stroke-dashoffset: 0; stroke: var(--grid-color); stroke-width: 0.8"/>
     </g>
     <g id="line2d_8">
      <defs>
       <path id="m2b38c34591" d="M 0 0 
L -3.5 0 
" style="stroke: var(--fg-color); stroke-width: 0.8"/>
      </defs>
      <g>
       <use xlink:href="#m2b38c34591" x="35.96" y="99.697762" style="fill: var(--fg-color); stroke: var(--fg-color); stroke-width: 0.8"/>
      </g>
     </g>
     <g id="text_4">
      <text style="font-size: 7px; font-family: 'DejaVu Sans', 'Bitstream Vera Sans', 'Computer Modern Sans Serif', 'Lucida Grande', 'Verdana', 'Geneva', 'Lucid', 'Arial', 'Helvetica', 'Avant Garde', sans-serif; text-anchor: end; fill: var(--fg-color)" x="28.96" y="102.356942" transform="rotate(-0 28.96 102.356942)">0</text>
     </g>
    </g>
    <g id="ytick_2">
     <g id="line2d_9">
      <path d="M 35.96 73.94611 
L 211 73.94611 
" clip-path="url(#pc4d5aae403)" style="fill: none; stroke-dasharray: 2.96,1.28; stroke-dashoffset: 0; stroke: var(--grid-color); stroke-width: 0.8"/>
     </g>
     <g id="line2d_10">
      <g>
       <use xlink:href="#m2b38c34591" x="35.96" y="73.94611" style="fill: var(--fg-color); stroke: var(--fg-color); stroke-width: 0.8"/>
      </g>
     </g>
     <g id="text_5">
      <text style="font-size: 7px; font-family: 'DejaVu Sans', 'Bitstream Vera Sans', 'Computer Modern Sans Serif', 'Lucida Grande', 'Verdana', 'Geneva', 'Lucid', 'Arial', 'Helvetica', 'Avant Garde', sans-serif; text-anchor: end; fill: var(--fg-color)" x="28.96" y="76.605289" transform="rotate(-0 28.96 76.605289)">50</text>
     </g>
    </g>
    <g id="ytick_3">
     <g id="line2d_11">
      <path d="M 35.96 48.194457 
L 211 48.194457 
" clip-path="url(#pc4d5aae403)" style="fill: none; stroke-dasharray: 2.96,1.28; stroke-dashoffset: 0; stroke: var(--grid-color); stroke-width: 0.8"/>
     </g>
     <g id="line2d_12">
      <g>
       <use xlink:href="#m2b38c34591" x="35.96" y="48.194457" style="fill: var(--fg-color); stroke: var(--fg-color); stroke-width: 0.8"/>
      </g>
     </g>
     <g id="text_6">
      <text style="font-size: 7px; font-family: 'DejaVu Sans', 'Bitstream Vera Sans', 'Computer Modern Sans Serif', 'Lucida Grande', 'Verdana', 'Geneva', 'Lucid', 'Arial', 'Helvetica', 'Avant Garde', sans-serif; text-anchor: end; fill: var(--fg-color)" x="28.96" y="50.853637" transform="rotate(-0 28.96 50.853637)">100</text>
     </g>
    </g>
    <g id="ytick_4">
     <g id="line2d_13">
      <path d="M 35.96 22.442805 
L 211 22.442805 
" clip-path="url(#pc4d5aae403)" style="fill: none; stroke-dasharray: 2.96,1.28; stroke-dashoffset: 0; stroke: var(--grid-color); stroke-width: 0.8"/>
     </g>
     <g id="line2d_14">
      <g>
       <use xlink:href="#m2b38c34591" x="35.96" y="22.442805" style="fill: var(--fg-color); stroke: var(--fg-color); stroke-width: 0.8"/>
      </g>
     </g>
     <g id="text_7">
      <text style="font-size: 7px; font-family: 'DejaVu Sans', 'Bitstream Vera Sans', 'Computer Modern Sans Serif', 'Lucida Grande', 'Verdana', 'Geneva', 'Lucid', 'Arial', 'Helvetica', 'Avant Garde', sans-serif; text-anchor: end; fill: var(--fg-color)" x="28.96" y="25.101984" transform="rotate(-0 28.96 25.101984)">150</text>
     </g>
    </g>
    <g id="text_8">
     <text style="font-size: 7px; font-family: 'DejaVu Sans', 'Bitstream Vera Sans', 'Computer Modern Sans Serif', 'Lucida Grande', 'Verdana', 'Geneva', 'Lucid', 'Arial', 'Helvetica', 'Avant Garde', sans-serif; text-anchor: middle; fill: var(--fg-color)" x="9.917109" y="54.2" transform="rotate(-90 9.917109 54.2)">ms</text>
    </g>
   </g>
   <g id="line2d_15">
    <path d="M 43.916364 30.32384 
L 44.468628 33.59327 
L 45.3595 33.984695 
L 46.250371 33.719968 
L 47.141245 34.117574 
L 48.032112 29.407597 
L 48.922979 32.915487 
L 49.81384 34.829349 
L 50.704717 33.465027 
L 51.595589 30.135853 
L 52.486458 37.138758 
L 53.377327 33.172488 
L 54.268192 32.759432 
L 55.159063 34.502818 
L 56.049934 35.218714 
L 56.940797 32.210921 
L 57.831669 34.951412 
L 58.722538 33.547432 
L 59.613407 38.047791 
L 60.504275 36.353847 
L 61.395144 30.127098 
L 62.286016 31.746877 
L 63.176879 36.608274 
L 64.067746 37.073863 
L 64.958622 28.894109 
L 65.84949 36.950771 
L 66.740361 33.315152 
L 67.631226 38.495355 
L 68.522078 33.461422 
L 69.412965 35.037423 
L 70.30383 31.231844 
L 71.194705 33.348629 
L 72.085571 34.464706 
L 72.976442 36.828193 
L 73.867306 32.544663 
L 74.758184 41.144685 
L 75.649039 34.13972 
L 76.539914 40.510164 
L 77.430784 36.618059 
L 78.321655 29.783056 
L 79.212509 34.002206 
L 80.103391 25.766828 
L 81.885129 35.646192 
L 82.775998 33.627777 
L 83.666869 30.860505 
L 84.557735 36.978582 
L 85.44861 32.42466 
L 94.53997 38.768322 
L 95.248438 36.790595 
L 97.921065 33.639623 
L 98.811931 34.727373 
L 99.702798 42.102131 
L 101.484533 35.119313 
L 102.375401 36.900812 
L 103.266272 36.643811 
L 104.157138 36.053068 
L 105.048009 28.785437 
L 105.93888 35.814093 
L 106.829748 39.111849 
L 107.720614 38.623083 
L 108.611487 36.065944 
L 109.502352 37.973626 
L 110.393224 34.246847 
L 111.284094 34.229336 
L 112.17496 34.931841 
L 113.065834 37.918003 
L 113.956695 39.021203 
L 114.847564 32.565779 
L 115.738441 38.167279 
L 116.629309 33.470177 
L 117.520178 35.989719 
L 118.41104 36.54853 
L 119.301913 32.72647 
L 120.192782 33.647864 
L 121.083649 29.557986 
L 121.97452 35.06472 
L 125.537994 30.54479 
L 126.428869 33.649924 
L 127.319734 32.914972 
L 128.210603 30.259461 
L 129.101474 32.047141 
L 129.992342 34.60737 
L 130.883214 31.009864 
L 131.774065 35.338717 
L 132.664946 31.394594 
L 133.55582 30.577237 
L 134.446686 31.241629 
L 135.337558 33.528376 
L 136.228424 34.712437 
L 137.119294 26.688222 
L 138.010159 34.819564 
L 138.901032 31.524382 
L 139.791912 31.184461 
L 140.68277 24.62912 
L 141.57364 25.611803 
L 142.464507 28.120014 
L 143.355376 28.394011 
L 144.246246 32.316503 
L 145.137113 24.627575 
L 146.027984 25.819361 
L 146.918849 33.668465 
L 173.644977 33.668465 
L 181.959197 30.844539 
L 182.553652 32.604922 
L 183.444521 25.279607 
L 184.335387 25.24716 
L 185.226256 26.871059 
L 186.117131 29.788721 
L 187.007996 26.983336 
L 187.898864 30.8672 
L 188.789731 28.338388 
L 189.680603 27.795028 
L 190.571474 9.472727 
L 191.462343 23.484201 
L 192.353215 27.129605 
L 193.244077 29.322616 
L 194.134949 28.348689 
L 195.025817 28.403282 
L 195.916688 30.333111 
L 196.807557 29.441589 
L 197.698426 28.354354 
L 198.589295 31.575886 
L 199.480162 28.259073 
L 200.371032 32.670331 
L 201.261898 33.178669 
L 202.152766 28.394527 
L 203.043636 33.410948 
L 203.043636 33.410948 
" clip-path="url(#pc4d5aae403)" style="fill: none; stroke: #339af0; stroke-width: 1.2; stroke-linecap: square"/>
   </g>
   <g id="line2d_16">
    <path d="M 43.916364 98.669756 
L 44.468628 98.564174 
L 45.3595 98.694993 
L 46.250371 98.311293 
L 47.141245 98.738771 
L 48.922979 98.441597 
L 49.81384 98.49207 
L 50.704717 98.371552 
L 51.595589 98.754222 
L 52.486458 98.325199 
L 53.377327 98.618253 
L 54.268192 98.613103 
L 55.159063 98.054807 
L 56.049934 98.73465 
L 56.940797 98.287602 
L 57.831669 98.542543 
L 58.722538 98.669241 
L 59.613407 98.051717 
L 60.504275 98.56572 
L 61.395144 98.583231 
L 62.286016 98.742376 
L 63.176879 98.606407 
L 64.067746 98.600742 
L 64.958622 98.046566 
L 65.84949 98.013604 
L 66.740361 98.297387 
L 67.631226 98.701173 
L 68.522078 98.410695 
L 69.412965 98.682632 
L 70.30383 98.258245 
L 72.976442 98.676452 
L 73.867306 98.382368 
L 74.758184 98.696538 
L 75.649039 98.351466 
L 76.539914 98.750101 
L 77.430784 98.673361 
L 78.321655 98.749586 
L 79.212509 98.114036 
L 80.103391 98.637824 
L 80.994245 98.617738 
L 81.885129 98.019784 
L 82.775998 98.470438 
L 83.666869 98.695508 
L 84.557735 98.049141 
L 85.44861 98.347346 
L 94.53997 98.213952 
L 95.248438 98.661516 
L 96.139324 98.723835 
L 97.030192 98.496705 
L 97.921065 98.442627 
L 98.811931 98.596106 
L 101.484533 98.703748 
L 102.375401 98.50237 
L 103.266272 98.649155 
L 104.157138 98.634219 
L 105.048009 97.904932 
L 105.93888 98.538938 
L 106.829748 98.105795 
L 107.720614 98.183565 
L 108.611487 98.703233 
L 109.502352 98.474044 
L 110.393224 98.701688 
L 111.284094 98.197471 
L 112.17496 98.34374 
L 113.065834 98.661516 
L 113.956695 98.778943 
L 114.847564 98.268545 
L 115.738441 98.634734 
L 116.629309 97.198307 
L 117.520178 97.965706 
L 119.301913 98.471984 
L 121.97452 98.692418 
L 125.537994 98.752677 
L 126.428869 98.425116 
L 127.319734 98.596106 
L 128.210603 98.300478 
L 129.101474 98.635764 
L 129.992342 98.709414 
L 131.774065 98.473529 
L 133.55582 98.507006 
L 134.446686 98.739801 
L 135.337558 98.457563 
L 136.228424 98.618253 
L 137.119294 97.740637 
L 138.010159 98.402969 
L 138.901032 98.761432 
L 139.791912 98.531727 
L 140.68277 98.885555 
L 142.464507 98.842292 
L 144.246246 98.896886 
L 145.137113 98.793879 
L 146.918849 98.879375 
L 183.444521 98.828386 
L 184.335387 98.731045 
L 186.117131 98.88607 
L 189.680603 98.766067 
L 191.462343 98.831477 
L 196.807557 98.855683 
L 199.480162 98.873194 
L 201.261898 98.896886 
L 203.043636 98.883495 
L 203.043636 98.883495 
" clip-path="url(#pc4d5aae403)" style="fill: none; stroke: #ff6b6b; stroke-width: 1.2; stroke-linecap: square"/>
   </g>
   <g id="patch_3">
    <path d="M 35.96 103.4 
L 35.96 5 
" style="fill: none; stroke: var(--fg-color); stroke-width: 0.8; stroke-linejoin: miter; stroke-linecap: square"/>
   </g>
   <g id="patch_4">
    <path d="M 35.96 103.4 
L 211 103.4 
" style="fill: none; stroke: var(--fg-color); stroke-width: 0.8; stroke-linejoin: miter; stroke-linecap: square"/>
   </g>
  </g>
 </g>
 <defs>
  <clipPath id="pc4d5aae403">
   <rect x="35.96" y="5" width="175.04" height="98.4"/>
  </clipPath>
 </defs>
</svg>
