<?xml version="1.0" encoding="utf-8" standalone="no"?>
<!DOCTYPE svg PUBLIC "-//W3C//DTD SVG 1.1//EN"
  "http://www.w3.org/Graphics/SVG/1.1/DTD/svg11.dtd">
<svg xmlns:xlink="http://www.w3.org/1999/xlink" width="216pt" height="122.4pt" viewBox="0 0 216 122.4" xmlns="http://www.w3.org/2000/svg" version="1.1">
  <style>
    :root {
      --fg-color: #212529;
      --grid-color: rgba(33, 37, 41, 0.1);
    }
    @media (prefers-color-scheme: dark) {
      :root {
        --fg-color: #dee2e6;
        --grid-color: rgba(248, 249, 250, 0.15);
      }
    }
  </style>

 <metadata>
  <rdf:RDF xmlns:dc="http://purl.org/dc/elements/1.1/" xmlns:cc="http://creativecommons.org/ns#" xmlns:rdf="http://www.w3.org/1999/02/22-rdf-syntax-ns#">
   <cc:Work>
    <dc:type rdf:resource="http://purl.org/dc/dcmitype/StillImage"/>
    <dc:date>2026-06-30T04:49:17.203514</dc:date>
    <dc:format>image/svg+xml</dc:format>
    <dc:creator>
     <cc:Agent>
      <dc:title>Matplotlib v3.11.0, https://matplotlib.org/</dc:title>
     </cc:Agent>
    </dc:creator>
   </cc:Work>
  </rdf:RDF>
 </metadata>
 <defs>
  <style type="text/css">*{stroke-linejoin: round; stroke-linecap: butt}</style>
 </defs>
 <g id="figure_1">
  <g id="patch_1">
   <path d="M 0 122.4 
L 216 122.4 
L 216 0 
L 0 0 
L 0 122.4 
z
" style="fill: none; opacity: 0"/>
  </g>
  <g id="axes_1">
   <g id="patch_2">
    <path d="M 35.96 103.4 
L 211 103.4 
L 211 5 
L 35.96 5 
L 35.96 103.4 
z
" style="fill: none; opacity: 0"/>
   </g>
   <g id="matplotlib.axis_1">
    <g id="xtick_1">
     <g id="line2d_1">
      <path d="M 70.996911 103.4 
L 70.996911 5 
" clip-path="url(#pdf60dc95e0)" style="fill: none; stroke-dasharray: 2.96,1.28; stroke-dashoffset: 0; stroke: var(--grid-color); stroke-width: 0.8"/>
     </g>
     <g id="line2d_2">
      <defs>
       <path id="m7e2c947688" d="M 0 0 
L 0 3.5 
" style="stroke: var(--fg-color); stroke-width: 0.8"/>
      </defs>
      <g>
       <use xlink:href="#m7e2c947688" x="70.996911" y="103.4" style="fill: var(--fg-color); stroke: var(--fg-color); stroke-width: 0.8"/>
      </g>
     </g>
     <g id="text_1">
      <text style="font-size: 7px; font-family: 'DejaVu Sans', 'Bitstream Vera Sans', 'Computer Modern Sans Serif', 'Lucida Grande', 'Verdana', 'Geneva', 'Lucid', 'Arial', 'Helvetica', 'Avant Garde', sans-serif; text-anchor: middle; fill: var(--fg-color)" x="70.996911" y="115.718359" transform="rotate(-0 70.996911 115.718359)">02/2026</text>
     </g>
    </g>
    <g id="xtick_2">
     <g id="line2d_3">
      <path d="M 126.022656 103.4 
L 126.022656 5 
" clip-path="url(#pdf60dc95e0)" style="fill: none; stroke-dasharray: 2.96,1.28; stroke-dashoffset: 0; stroke: var(--grid-color); stroke-width: 0.8"/>
     </g>
     <g id="line2d_4">
      <g>
       <use xlink:href="#m7e2c947688" x="126.022656" y="103.4" style="fill: var(--fg-color); stroke: var(--fg-color); stroke-width: 0.8"/>
      </g>
     </g>
     <g id="text_2">
      <text style="font-size: 7px; font-family: 'DejaVu Sans', 'Bitstream Vera Sans', 'Computer Modern Sans Serif', 'Lucida Grande', 'Verdana', 'Geneva', 'Lucid', 'Arial', 'Helvetica', 'Avant Garde', sans-serif; text-anchor: middle; fill: var(--fg-color)" x="126.022656" y="115.718359" transform="rotate(-0 126.022656 115.718359)">04/2026</text>
     </g>
    </g>
    <g id="xtick_3">
     <g id="line2d_5">
      <path d="M 182.913681 103.4 
L 182.913681 5 
" clip-path="url(#pdf60dc95e0)" style="fill: none; stroke-dasharray: 2.96,1.28; stroke-dashoffset: 0; stroke: var(--grid-color); stroke-width: 0.8"/>
     </g>
     <g id="line2d_6">
      <g>
       <use xlink:href="#m7e2c947688" x="182.913681" y="103.4" style="fill: var(--fg-color); stroke: var(--fg-color); stroke-width: 0.8"/>
      </g>
     </g>
     <g id="text_3">
      <text style="font-size: 7px; font-family: 'DejaVu Sans', 'Bitstream Vera Sans', 'Computer Modern Sans Serif', 'Lucida Grande', 'Verdana', 'Geneva', 'Lucid', 'Arial', 'Helvetica', 'Avant Garde', sans-serif; text-anchor: middle; fill: var(--fg-color)" x="182.913681" y="115.718359" transform="rotate(-0 182.913681 115.718359)">06/2026</text>
     </g>
    </g>
   </g>
   <g id="matplotlib.axis_2">
    <g id="ytick_1">
     <g id="line2d_7">
      <path d="M 35.96 99.493795 
L 211 99.493795 
" clip-path="url(#pdf60dc95e0)" style="fill: none; stroke-dasharray: 2.96,1.28; stroke-dashoffset: 0; stroke: var(--grid-color); stroke-width: 0.8"/>
     </g>
     <g id="line2d_8">
      <defs>
       <path id="m21c9bf1d6b" d="M 0 0 
L -3.5 0 
" style="stroke: var(--fg-color); stroke-width: 0.8"/>
      </defs>
      <g>
       <use xlink:href="#m21c9bf1d6b" x="35.96" y="99.493795" style="fill: var(--fg-color); stroke: var(--fg-color); stroke-width: 0.8"/>
      </g>
     </g>
     <g id="text_4">
      <text style="font-size: 7px; font-family: 'DejaVu Sans', 'Bitstream Vera Sans', 'Computer Modern Sans Serif', 'Lucida Grande', 'Verdana', 'Geneva', 'Lucid', 'Arial', 'Helvetica', 'Avant Garde', sans-serif; text-anchor: end; fill: var(--fg-color)" x="28.96" y="102.152974" transform="rotate(-0 28.96 102.152974)">0</text>
     </g>
    </g>
    <g id="ytick_2">
     <g id="line2d_9">
      <path d="M 35.96 74.744034 
L 211 74.744034 
" clip-path="url(#pdf60dc95e0)" style="fill: none; stroke-dasharray: 2.96,1.28; stroke-dashoffset: 0; stroke: var(--grid-color); stroke-width: 0.8"/>
     </g>
     <g id="line2d_10">
      <g>
       <use xlink:href="#m21c9bf1d6b" x="35.96" y="74.744034" style="fill: var(--fg-color); stroke: var(--fg-color); stroke-width: 0.8"/>
      </g>
     </g>
     <g id="text_5">
      <text style="font-size: 7px; font-family: 'DejaVu Sans', 'Bitstream Vera Sans', 'Computer Modern Sans Serif', 'Lucida Grande', 'Verdana', 'Geneva', 'Lucid', 'Arial', 'Helvetica', 'Avant Garde', sans-serif; text-anchor: end; fill: var(--fg-color)" x="28.96" y="77.403214" transform="rotate(-0 28.96 77.403214)">100</text>
     </g>
    </g>
    <g id="ytick_3">
     <g id="line2d_11">
      <path d="M 35.96 49.994273 
L 211 49.994273 
" clip-path="url(#pdf60dc95e0)" style="fill: none; stroke-dasharray: 2.96,1.28; stroke-dashoffset: 0; stroke: var(--grid-color); stroke-width: 0.8"/>
     </g>
     <g id="line2d_12">
      <g>
       <use xlink:href="#m21c9bf1d6b" x="35.96" y="49.994273" style="fill: var(--fg-color); stroke: var(--fg-color); stroke-width: 0.8"/>
      </g>
     </g>
     <g id="text_6">
      <text style="font-size: 7px; font-family: 'DejaVu Sans', 'Bitstream Vera Sans', 'Computer Modern Sans Serif', 'Lucida Grande', 'Verdana', 'Geneva', 'Lucid', 'Arial', 'Helvetica', 'Avant Garde', sans-serif; text-anchor: end; fill: var(--fg-color)" x="28.96" y="52.653453" transform="rotate(-0 28.96 52.653453)">200</text>
     </g>
    </g>
    <g id="ytick_4">
     <g id="line2d_13">
      <path d="M 35.96 25.244512 
L 211 25.244512 
" clip-path="url(#pdf60dc95e0)" style="fill: none; stroke-dasharray: 2.96,1.28; stroke-dashoffset: 0; stroke: var(--grid-color); stroke-width: 0.8"/>
     </g>
     <g id="line2d_14">
      <g>
       <use xlink:href="#m21c9bf1d6b" x="35.96" y="25.244512" style="fill: var(--fg-color); stroke: var(--fg-color); stroke-width: 0.8"/>
      </g>
     </g>
     <g id="text_7">
      <text style="font-size: 7px; font-family: 'DejaVu Sans', 'Bitstream Vera Sans', 'Computer Modern Sans Serif', 'Lucida Grande', 'Verdana', 'Geneva', 'Lucid', 'Arial', 'Helvetica', 'Avant Garde', sans-serif; text-anchor: end; fill: var(--fg-color)" x="28.96" y="27.903692" transform="rotate(-0 28.96 27.903692)">300</text>
     </g>
    </g>
    <g id="text_8">
     <text style="font-size: 7px; font-family: 'DejaVu Sans', 'Bitstream Vera Sans', 'Computer Modern Sans Serif', 'Lucida Grande', 'Verdana', 'Geneva', 'Lucid', 'Arial', 'Helvetica', 'Avant Garde', sans-serif; text-anchor: middle; fill: var(--fg-color)" x="9.917109" y="54.2" transform="rotate(-90 9.917109 54.2)">ms</text>
    </g>
   </g>
   <g id="line2d_15">
    <path d="M 43.916364 22.151287 
L 44.494523 33.556225 
L 45.427166 30.020226 
L 46.359808 22.557183 
L 47.292453 29.191604 
L 48.22509 25.00939 
L 49.157727 27.947186 
L 50.090359 24.555479 
L 51.023007 33.845549 
L 51.95565 30.561256 
L 52.88829 23.921885 
L 53.82093 26.341422 
L 54.753566 27.986786 
L 55.686208 27.820467 
L 56.618849 28.462229 
L 57.551483 20.35594 
L 58.484126 31.220837 
L 59.416765 20.6022 
L 60.349406 28.654782 
L 61.282045 26.617134 
L 62.214684 25.4633 
L 63.147327 24.789364 
L 64.07996 31.16812 
L 65.012598 27.796708 
L 65.945245 25.894689 
L 66.877884 31.948233 
L 67.810526 22.791811 
L 68.743162 30.977794 
L 69.675784 25.163086 
L 70.608443 24.270362 
L 71.541078 29.783371 
L 72.473724 25.211348 
L 73.406361 27.56901 
L 74.339003 38.995974 
L 75.271637 31.045856 
L 76.204286 32.036589 
L 77.136912 29.09706 
L 78.069558 32.762005 
L 79.002199 26.54239 
L 79.934841 16.513044 
L 80.867465 31.814336 
L 81.800118 21.783258 
L 82.732742 32.116283 
L 83.665398 36.780623 
L 84.598038 29.487611 
L 85.53068 29.341588 
L 86.463316 28.906734 
L 87.395962 30.17516 
L 96.913595 32.171723 
L 97.655282 28.705271 
L 98.587939 25.871671 
L 99.520578 32.774875 
L 100.453222 30.087298 
L 101.385859 29.796241 
L 102.318497 33.46069 
L 103.251135 36.04704 
L 104.183773 23.954802 
L 105.116412 22.320081 
L 106.049054 26.692373 
L 106.981691 18.653899 
L 107.914333 15.153045 
L 108.846974 24.47727 
L 109.779613 27.013625 
L 110.71225 30.982497 
L 111.644893 27.506145 
L 112.57753 38.148048 
L 113.510173 34.994186 
L 114.442814 26.108031 
L 115.37545 30.561751 
L 116.308095 33.50722 
L 117.240726 31.438882 
L 118.173367 24.47925 
L 119.106014 23.382835 
L 120.038653 19.411489 
L 120.971293 15.616855 
L 121.903926 27.876402 
L 122.836569 26.459726 
L 123.769209 26.458241 
L 124.701847 22.324041 
L 125.634489 24.798522 
L 129.365046 26.775038 
L 130.297692 30.099673 
L 131.230328 24.000837 
L 132.162968 14.962967 
L 133.095609 29.08221 
L 134.028248 20.243081 
L 134.960891 22.60099 
L 135.893512 22.091888 
L 136.826165 23.256117 
L 137.75881 16.312324 
L 138.691446 25.079184 
L 139.624089 19.071922 
L 140.556726 25.246492 
L 141.489366 23.340018 
L 142.422003 32.531584 
L 143.354646 27.012388 
L 144.287298 15.338173 
L 145.219926 15.727239 
L 146.152567 24.435443 
L 147.085204 19.832977 
L 148.017844 25.98156 
L 148.950485 27.619499 
L 149.883123 22.86507 
L 150.815765 25.558834 
L 151.7484 18.913029 
L 179.727656 18.913029 
L 188.43171 27.365072 
L 189.054038 28.794123 
L 189.986678 22.777209 
L 190.919315 20.041618 
L 191.851955 23.424415 
L 192.7846 11.870484 
L 193.717237 26.5711 
L 194.649875 20.273275 
L 195.582513 21.715444 
L 196.515156 23.38135 
L 197.447798 9.472727 
L 198.380437 14.520688 
L 199.313081 26.23772 
L 200.245713 19.940886 
L 201.178356 20.349752 
L 202.110995 19.684231 
L 203.043636 18.169298 
" clip-path="url(#pdf60dc95e0)" style="fill: none; stroke: #339af0; stroke-width: 1.2; stroke-linecap: square"/>
   </g>
   <g id="line2d_16">
    <path d="M 43.916364 98.828274 
L 44.494523 98.856736 
L 45.427166 98.862676 
L 46.359808 98.801296 
L 47.292453 98.845351 
L 48.22509 98.836936 
L 49.157727 98.844114 
L 50.090359 98.864161 
L 51.023007 98.844114 
L 51.95565 98.857726 
L 52.88829 98.628048 
L 53.82093 98.818374 
L 54.753566 98.870101 
L 55.686208 98.728532 
L 56.618849 98.863913 
L 57.551483 98.832729 
L 58.484126 98.860201 
L 59.416765 98.788427 
L 60.349406 98.844856 
L 61.282045 98.682498 
L 62.214684 98.797089 
L 63.147327 98.784219 
L 64.07996 98.888911 
L 65.012598 98.880743 
L 65.945245 98.834214 
L 66.877884 98.850796 
L 67.810526 98.841639 
L 68.743162 98.891386 
L 69.675784 98.835204 
L 70.608443 98.457522 
L 71.541078 98.872576 
L 72.473724 98.777537 
L 73.406361 98.849311 
L 74.339003 98.927273 
L 75.271637 98.839659 
L 76.204286 98.90673 
L 77.136912 98.808226 
L 78.069558 98.867378 
L 79.002199 98.819859 
L 79.934841 98.801049 
L 80.867465 98.865398 
L 81.800118 98.761697 
L 82.732742 98.883218 
L 83.665398 98.894356 
L 84.598038 98.885446 
L 85.53068 98.876783 
L 86.463316 98.862428 
L 87.395962 98.875793 
L 96.913595 98.858716 
L 97.655282 98.894603 
L 98.587939 98.835204 
L 99.520578 98.865151 
L 100.453222 98.776794 
L 101.385859 98.873566 
L 102.318497 98.744867 
L 103.251135 98.71492 
L 104.183773 98.660965 
L 105.116412 98.626068 
L 106.049054 98.678043 
L 106.981691 97.736809 
L 107.914333 98.615426 
L 108.846974 98.664183 
L 109.779613 98.732245 
L 110.71225 98.74066 
L 111.644893 98.668143 
L 112.57753 98.756747 
L 113.510173 98.841886 
L 114.442814 98.630276 
L 115.37545 98.753282 
L 116.308095 98.755509 
L 117.240726 98.628543 
L 118.173367 98.64661 
L 119.106014 98.610476 
L 120.038653 98.543156 
L 120.971293 98.614683 
L 121.903926 98.676063 
L 122.836569 98.582756 
L 123.769209 98.66839 
L 124.701847 98.566669 
L 125.634489 98.412478 
L 129.365046 98.646858 
L 130.297692 98.650075 
L 131.230328 98.67829 
L 132.162968 98.626563 
L 133.095609 98.655768 
L 134.028248 98.132805 
L 134.960891 98.589191 
L 135.893512 98.704772 
L 136.826165 98.602803 
L 137.75881 98.415695 
L 138.691446 98.65354 
L 139.624089 98.660965 
L 140.556726 98.496627 
L 141.489366 98.559986 
L 142.422003 98.749569 
L 143.354646 98.623593 
L 144.287298 98.558749 
L 145.219926 98.624336 
L 146.152567 98.769122 
L 147.085204 98.714672 
L 148.017844 98.563946 
L 148.950485 98.656263 
L 149.883123 98.67631 
L 150.815765 98.624583 
L 151.7484 98.608248 
L 179.727656 98.608248 
L 188.43171 98.69809 
L 189.054038 98.853023 
L 189.986678 98.828274 
L 190.919315 98.779022 
L 191.851955 98.810206 
L 192.7846 98.812434 
L 193.717237 98.824809 
L 194.649875 98.828521 
L 195.582513 98.813424 
L 196.515156 98.780507 
L 197.447798 98.70898 
L 198.380437 98.802781 
L 199.313081 98.729027 
L 200.245713 98.812186 
L 201.178356 98.793129 
L 202.110995 98.809464 
L 203.043636 98.717642 
" clip-path="url(#pdf60dc95e0)" style="fill: none; stroke: #ff6b6b; stroke-width: 1.2; stroke-linecap: square"/>
   </g>
   <g id="patch_3">
    <path d="M 35.96 103.4 
L 35.96 5 
" style="fill: none; stroke: var(--fg-color); stroke-width: 0.8; stroke-linejoin: miter; stroke-linecap: square"/>
   </g>
   <g id="patch_4">
    <path d="M 35.96 103.4 
L 211 103.4 
" style="fill: none; stroke: var(--fg-color); stroke-width: 0.8; stroke-linejoin: miter; stroke-linecap: square"/>
   </g>
  </g>
 </g>
 <defs>
  <clipPath id="pdf60dc95e0">
   <rect x="35.96" y="5" width="175.04" height="98.4"/>
  </clipPath>
 </defs>
</svg>
