<?xml version="1.0" encoding="utf-8" standalone="no"?>
<!DOCTYPE svg PUBLIC "-//W3C//DTD SVG 1.1//EN"
  "http://www.w3.org/Graphics/SVG/1.1/DTD/svg11.dtd">
<svg xmlns:xlink="http://www.w3.org/1999/xlink" width="216pt" height="122.4pt" viewBox="0 0 216 122.4" xmlns="http://www.w3.org/2000/svg" version="1.1">
  <style>
    :root {
      --fg-color: #212529;
      --grid-color: rgba(33, 37, 41, 0.1);
    }
    @media (prefers-color-scheme: dark) {
      :root {
        --fg-color: #dee2e6;
        --grid-color: rgba(248, 249, 250, 0.15);
      }
    }
  </style>

 <metadata>
  <rdf:RDF xmlns:dc="http://purl.org/dc/elements/1.1/" xmlns:cc="http://creativecommons.org/ns#" xmlns:rdf="http://www.w3.org/1999/02/22-rdf-syntax-ns#">
   <cc:Work>
    <dc:type rdf:resource="http://purl.org/dc/dcmitype/StillImage"/>
    <dc:date>2026-06-30T15:37:32.289334</dc:date>
    <dc:format>image/svg+xml</dc:format>
    <dc:creator>
     <cc:Agent>
      <dc:title>Matplotlib v3.11.0, https://matplotlib.org/</dc:title>
     </cc:Agent>
    </dc:creator>
   </cc:Work>
  </rdf:RDF>
 </metadata>
 <defs>
  <style type="text/css">*{stroke-linejoin: round; stroke-linecap: butt}</style>
 </defs>
 <g id="figure_1">
  <g id="patch_1">
   <path d="M 0 122.4 
L 216 122.4 
L 216 0 
L 0 0 
L 0 122.4 
z
" style="fill: none; opacity: 0"/>
  </g>
  <g id="axes_1">
   <g id="patch_2">
    <path d="M 35.96 103.4 
L 211 103.4 
L 211 5 
L 35.96 5 
L 35.96 103.4 
z
" style="fill: none; opacity: 0"/>
   </g>
   <g id="matplotlib.axis_1">
    <g id="xtick_1">
     <g id="line2d_1">
      <path d="M 69.784035 103.4 
L 69.784035 5 
" clip-path="url(#p8d2887bd25)" style="fill: none; stroke-dasharray: 2.96,1.28; stroke-dashoffset: 0; stroke: var(--grid-color); stroke-width: 0.8"/>
     </g>
     <g id="line2d_2">
      <defs>
       <path id="m3209f98330" d="M 0 0 
L 0 3.5 
" style="stroke: var(--fg-color); stroke-width: 0.8"/>
      </defs>
      <g>
       <use xlink:href="#m3209f98330" x="69.784035" y="103.4" style="fill: var(--fg-color); stroke: var(--fg-color); stroke-width: 0.8"/>
      </g>
     </g>
     <g id="text_1">
      <text style="font-size: 7px; font-family: 'DejaVu Sans', 'Bitstream Vera Sans', 'Computer Modern Sans Serif', 'Lucida Grande', 'Verdana', 'Geneva', 'Lucid', 'Arial', 'Helvetica', 'Avant Garde', sans-serif; text-anchor: middle; fill: var(--fg-color)" x="69.784035" y="115.718359" transform="rotate(-0 69.784035 115.718359)">02/2026</text>
     </g>
    </g>
    <g id="xtick_2">
     <g id="line2d_3">
      <path d="M 122.345302 103.4 
L 122.345302 5 
" clip-path="url(#p8d2887bd25)" style="fill: none; stroke-dasharray: 2.96,1.28; stroke-dashoffset: 0; stroke: var(--grid-color); stroke-width: 0.8"/>
     </g>
     <g id="line2d_4">
      <g>
       <use xlink:href="#m3209f98330" x="122.345302" y="103.4" style="fill: var(--fg-color); stroke: var(--fg-color); stroke-width: 0.8"/>
      </g>
     </g>
     <g id="text_2">
      <text style="font-size: 7px; font-family: 'DejaVu Sans', 'Bitstream Vera Sans', 'Computer Modern Sans Serif', 'Lucida Grande', 'Verdana', 'Geneva', 'Lucid', 'Arial', 'Helvetica', 'Avant Garde', sans-serif; text-anchor: middle; fill: var(--fg-color)" x="122.345302" y="115.718359" transform="rotate(-0 122.345302 115.718359)">04/2026</text>
     </g>
    </g>
    <g id="xtick_3">
     <g id="line2d_5">
      <path d="M 176.688307 103.4 
L 176.688307 5 
" clip-path="url(#p8d2887bd25)" style="fill: none; stroke-dasharray: 2.96,1.28; stroke-dashoffset: 0; stroke: var(--grid-color); stroke-width: 0.8"/>
     </g>
     <g id="line2d_6">
      <g>
       <use xlink:href="#m3209f98330" x="176.688307" y="103.4" style="fill: var(--fg-color); stroke: var(--fg-color); stroke-width: 0.8"/>
      </g>
     </g>
     <g id="text_3">
      <text style="font-size: 7px; font-family: 'DejaVu Sans', 'Bitstream Vera Sans', 'Computer Modern Sans Serif', 'Lucida Grande', 'Verdana', 'Geneva', 'Lucid', 'Arial', 'Helvetica', 'Avant Garde', sans-serif; text-anchor: middle; fill: var(--fg-color)" x="176.688307" y="115.718359" transform="rotate(-0 176.688307 115.718359)">06/2026</text>
     </g>
    </g>
   </g>
   <g id="matplotlib.axis_2">
    <g id="ytick_1">
     <g id="line2d_7">
      <path d="M 35.96 102.009685 
L 211 102.009685 
" clip-path="url(#p8d2887bd25)" style="fill: none; stroke-dasharray: 2.96,1.28; stroke-dashoffset: 0; stroke: var(--grid-color); stroke-width: 0.8"/>
     </g>
     <g id="line2d_8">
      <defs>
       <path id="maa55de8b18" d="M 0 0 
L -3.5 0 
" style="stroke: var(--fg-color); stroke-width: 0.8"/>
      </defs>
      <g>
       <use xlink:href="#maa55de8b18" x="35.96" y="102.009685" style="fill: var(--fg-color); stroke: var(--fg-color); stroke-width: 0.8"/>
      </g>
     </g>
     <g id="text_4">
      <text style="font-size: 7px; font-family: 'DejaVu Sans', 'Bitstream Vera Sans', 'Computer Modern Sans Serif', 'Lucida Grande', 'Verdana', 'Geneva', 'Lucid', 'Arial', 'Helvetica', 'Avant Garde', sans-serif; text-anchor: end; fill: var(--fg-color)" x="28.96" y="104.668865" transform="rotate(-0 28.96 104.668865)">0</text>
     </g>
    </g>
    <g id="ytick_2">
     <g id="line2d_9">
      <path d="M 35.96 78.608437 
L 211 78.608437 
" clip-path="url(#p8d2887bd25)" style="fill: none; stroke-dasharray: 2.96,1.28; stroke-dashoffset: 0; stroke: var(--grid-color); stroke-width: 0.8"/>
     </g>
     <g id="line2d_10">
      <g>
       <use xlink:href="#maa55de8b18" x="35.96" y="78.608437" style="fill: var(--fg-color); stroke: var(--fg-color); stroke-width: 0.8"/>
      </g>
     </g>
     <g id="text_5">
      <text style="font-size: 7px; font-family: 'DejaVu Sans', 'Bitstream Vera Sans', 'Computer Modern Sans Serif', 'Lucida Grande', 'Verdana', 'Geneva', 'Lucid', 'Arial', 'Helvetica', 'Avant Garde', sans-serif; text-anchor: end; fill: var(--fg-color)" x="28.96" y="81.267617" transform="rotate(-0 28.96 81.267617)">50</text>
     </g>
    </g>
    <g id="ytick_3">
     <g id="line2d_11">
      <path d="M 35.96 55.20719 
L 211 55.20719 
" clip-path="url(#p8d2887bd25)" style="fill: none; stroke-dasharray: 2.96,1.28; stroke-dashoffset: 0; stroke: var(--grid-color); stroke-width: 0.8"/>
     </g>
     <g id="line2d_12">
      <g>
       <use xlink:href="#maa55de8b18" x="35.96" y="55.20719" style="fill: var(--fg-color); stroke: var(--fg-color); stroke-width: 0.8"/>
      </g>
     </g>
     <g id="text_6">
      <text style="font-size: 7px; font-family: 'DejaVu Sans', 'Bitstream Vera Sans', 'Computer Modern Sans Serif', 'Lucida Grande', 'Verdana', 'Geneva', 'Lucid', 'Arial', 'Helvetica', 'Avant Garde', sans-serif; text-anchor: end; fill: var(--fg-color)" x="28.96" y="57.866369" transform="rotate(-0 28.96 57.866369)">100</text>
     </g>
    </g>
    <g id="ytick_4">
     <g id="line2d_13">
      <path d="M 35.96 31.805942 
L 211 31.805942 
" clip-path="url(#p8d2887bd25)" style="fill: none; stroke-dasharray: 2.96,1.28; stroke-dashoffset: 0; stroke: var(--grid-color); stroke-width: 0.8"/>
     </g>
     <g id="line2d_14">
      <g>
       <use xlink:href="#maa55de8b18" x="35.96" y="31.805942" style="fill: var(--fg-color); stroke: var(--fg-color); stroke-width: 0.8"/>
      </g>
     </g>
     <g id="text_7">
      <text style="font-size: 7px; font-family: 'DejaVu Sans', 'Bitstream Vera Sans', 'Computer Modern Sans Serif', 'Lucida Grande', 'Verdana', 'Geneva', 'Lucid', 'Arial', 'Helvetica', 'Avant Garde', sans-serif; text-anchor: end; fill: var(--fg-color)" x="28.96" y="34.465122" transform="rotate(-0 28.96 34.465122)">150</text>
     </g>
    </g>
    <g id="ytick_5">
     <g id="line2d_15">
      <path d="M 35.96 8.404694 
L 211 8.404694 
" clip-path="url(#p8d2887bd25)" style="fill: none; stroke-dasharray: 2.96,1.28; stroke-dashoffset: 0; stroke: var(--grid-color); stroke-width: 0.8"/>
     </g>
     <g id="line2d_16">
      <g>
       <use xlink:href="#maa55de8b18" x="35.96" y="8.404694" style="fill: var(--fg-color); stroke: var(--fg-color); stroke-width: 0.8"/>
      </g>
     </g>
     <g id="text_8">
      <text style="font-size: 7px; font-family: 'DejaVu Sans', 'Bitstream Vera Sans', 'Computer Modern Sans Serif', 'Lucida Grande', 'Verdana', 'Geneva', 'Lucid', 'Arial', 'Helvetica', 'Avant Garde', sans-serif; text-anchor: end; fill: var(--fg-color)" x="28.96" y="11.063874" transform="rotate(-0 28.96 11.063874)">200</text>
     </g>
    </g>
    <g id="text_9">
     <text style="font-size: 7px; font-family: 'DejaVu Sans', 'Bitstream Vera Sans', 'Computer Modern Sans Serif', 'Lucida Grande', 'Verdana', 'Geneva', 'Lucid', 'Arial', 'Helvetica', 'Avant Garde', sans-serif; text-anchor: middle; fill: var(--fg-color)" x="9.917109" y="54.2" transform="rotate(-90 9.917109 54.2)">ms</text>
    </g>
   </g>
   <g id="line2d_17">
    <path d="M 43.916364 33.630771 
L 44.468628 33.056037 
L 45.3595 34.591627 
L 46.250371 32.67132 
L 47.141245 28.187641 
L 48.032112 31.792369 
L 48.922979 32.63809 
L 49.81384 33.093011 
L 50.704717 34.014552 
L 51.595589 33.089734 
L 52.486458 34.077735 
L 53.377327 31.46054 
L 54.268192 37.235031 
L 55.159063 27.894657 
L 56.049934 35.290856 
L 56.940797 31.043997 
L 57.831669 36.108963 
L 58.722538 31.819047 
L 60.504275 34.552312 
L 61.395144 36.354209 
L 62.286016 24.189772 
L 63.176879 35.67838 
L 64.067746 34.622984 
L 64.958622 25.470756 
L 65.84949 37.6146 
L 66.740361 31.681915 
L 67.631226 38.423815 
L 68.522078 35.238905 
L 69.412965 34.563077 
L 70.30383 34.714717 
L 71.194705 28.836324 
L 72.085571 27.846919 
L 72.976442 38.880607 
L 73.867306 30.685022 
L 74.758184 38.991997 
L 75.649039 35.796323 
L 76.539914 36.357485 
L 77.430784 35.389609 
L 78.321655 26.972648 
L 79.212509 36.95094 
L 80.103391 32.43684 
L 80.994245 35.646555 
L 81.885129 34.914096 
L 82.775998 35.577755 
L 83.666869 33.206741 
L 84.557735 34.533591 
L 85.44861 26.372172 
L 96.139324 32.193935 
L 97.030192 23.620654 
L 97.921065 37.681527 
L 98.811931 27.631627 
L 99.702798 36.846571 
L 100.593666 39.97485 
L 101.484533 37.806958 
L 102.375401 34.530315 
L 103.266272 37.593539 
L 104.157138 36.848443 
L 105.048009 35.422371 
L 105.93888 26.3703 
L 106.829748 38.759389 
L 107.720614 37.442835 
L 108.611487 35.799131 
L 109.502352 37.894947 
L 110.393224 29.542573 
L 111.284094 34.502702 
L 112.17496 37.855165 
L 113.065834 38.347527 
L 113.956695 32.052591 
L 114.847564 33.015318 
L 115.738441 33.740289 
L 116.629309 33.356977 
L 117.520178 36.044844 
L 118.41104 25.197898 
L 119.301913 37.122237 
L 120.192782 31.751651 
L 121.083649 29.381573 
L 121.97452 30.22823 
L 125.537994 27.598866 
L 126.428869 34.567289 
L 127.319734 35.541249 
L 128.210603 35.276815 
L 129.101474 27.184664 
L 129.992342 23.218152 
L 130.883214 26.943631 
L 131.774065 33.649492 
L 132.664946 33.817045 
L 133.55582 32.710634 
L 134.446686 27.883893 
L 135.337558 31.529807 
L 136.228424 28.564869 
L 137.119294 31.619668 
L 138.010159 33.689742 
L 138.901032 32.880059 
L 139.791912 29.893592 
L 140.68277 28.814327 
L 141.57364 29.21402 
L 142.464507 19.151015 
L 143.355376 28.16424 
L 144.246246 28.933205 
L 145.137113 28.27095 
L 146.027984 26.302905 
L 146.918849 20.493779 
L 173.644977 20.493779 
L 182.553652 32.051187 
L 183.444521 21.209857 
L 184.335387 28.506834 
L 185.226256 18.160674 
L 186.117131 32.758373 
L 187.007996 24.974182 
L 187.898864 32.395653 
L 188.789731 28.755823 
L 189.680603 23.994606 
L 190.571474 9.472727 
L 191.462343 27.238018 
L 192.353215 22.094424 
L 193.244077 24.023155 
L 194.134949 24.53611 
L 195.025817 30.121052 
L 195.916688 32.030126 
L 196.807557 24.694303 
L 197.698426 27.077486 
L 198.589295 27.035364 
L 199.480162 27.391531 
L 200.371032 32.357743 
L 201.261898 33.281625 
L 202.152766 32.557122 
L 203.043636 35.115346 
L 203.043636 35.115346 
" clip-path="url(#p8d2887bd25)" style="fill: none; stroke: #339af0; stroke-width: 1.2; stroke-linecap: square"/>
   </g>
   <g id="line2d_18">
    <path d="M 43.916364 97.488096 
L 44.468628 96.790271 
L 46.250371 96.762189 
L 47.141245 95.819119 
L 48.032112 97.162351 
L 48.922979 95.864517 
L 49.81384 96.463589 
L 50.704717 98.024921 
L 51.595589 96.242214 
L 52.486458 96.448145 
L 53.377327 97.288717 
L 54.268192 96.484182 
L 55.159063 95.836436 
L 56.049934 97.496988 
L 56.940797 96.840817 
L 57.831669 97.26438 
L 58.722538 96.448613 
L 59.613407 96.406022 
L 60.504275 96.689645 
L 61.395144 96.026454 
L 62.286016 97.68373 
L 63.176879 95.632845 
L 64.067746 96.139716 
L 64.958622 96.967652 
L 65.84949 95.297739 
L 66.740361 96.502435 
L 67.631226 97.183412 
L 69.412965 96.322714 
L 70.30383 95.822863 
L 71.194705 96.57966 
L 72.085571 97.000882 
L 72.976442 95.375899 
L 73.867306 95.163884 
L 74.758184 96.438784 
L 75.649039 95.368879 
L 76.539914 94.96825 
L 77.430784 96.623186 
L 78.321655 95.636589 
L 79.212509 96.601657 
L 80.103391 96.841286 
L 80.994245 95.850009 
L 81.885129 96.700878 
L 82.775998 98.927273 
L 83.666869 95.57013 
L 84.557735 98.068447 
L 85.44861 95.103509 
L 94.53997 95.284635 
L 95.248438 95.04875 
L 96.139324 98.179369 
L 97.030192 96.793079 
L 97.921065 97.52975 
L 98.811931 94.974334 
L 99.702798 97.462355 
L 100.593666 96.865155 
L 101.484533 97.862984 
L 102.375401 97.858304 
L 103.266272 94.961697 
L 104.157138 97.513837 
L 105.048009 96.143928 
L 105.93888 97.438017 
L 106.829748 96.367644 
L 107.720614 96.298845 
L 108.611487 96.852986 
L 109.502352 98.498562 
L 110.393224 95.251405 
L 111.284094 95.975439 
L 112.17496 95.846732 
L 113.065834 97.385131 
L 113.956695 96.740192 
L 114.847564 97.04628 
L 115.738441 97.178732 
L 116.629309 96.77623 
L 117.520178 96.721471 
L 118.41104 95.406789 
L 119.301913 96.55345 
L 120.192782 96.914297 
L 121.97452 97.144098 
L 125.537994 97.629908 
L 126.428869 96.983097 
L 127.319734 97.693091 
L 128.210603 96.05594 
L 129.101474 96.357348 
L 129.992342 94.659821 
L 130.883214 94.425809 
L 131.774065 96.940507 
L 132.664946 97.474991 
L 133.55582 96.801971 
L 134.446686 96.446272 
L 135.337558 97.823202 
L 136.228424 95.981056 
L 137.119294 96.624122 
L 138.010159 98.492478 
L 138.901032 95.834564 
L 139.791912 96.518816 
L 140.68277 97.0299 
L 141.57364 95.299611 
L 142.464507 94.66965 
L 143.355376 96.532857 
L 145.137113 98.535068 
L 146.027984 98.554725 
L 146.918849 94.806313 
L 173.644977 94.806313 
L 181.959197 97.213833 
L 182.553652 96.492607 
L 183.444521 96.415851 
L 184.335387 96.690581 
L 185.226256 95.176521 
L 186.117131 96.210856 
L 187.007996 95.901959 
L 187.898864 97.905106 
L 188.789731 95.198518 
L 189.680603 97.479672 
L 190.571474 93.950763 
L 191.462343 98.009944 
L 192.353215 94.964973 
L 193.244077 96.376069 
L 194.134949 97.024283 
L 195.025817 95.326289 
L 195.916688 96.069512 
L 196.807557 95.142355 
L 197.698426 96.629738 
L 198.589295 95.269658 
L 199.480162 96.500563 
L 200.371032 96.445804 
L 201.261898 97.955653 
L 202.152766 97.588253 
L 203.043636 96.106018 
L 203.043636 96.106018 
" clip-path="url(#p8d2887bd25)" style="fill: none; stroke: #ff6b6b; stroke-width: 1.2; stroke-linecap: square"/>
   </g>
   <g id="patch_3">
    <path d="M 35.96 103.4 
L 35.96 5 
" style="fill: none; stroke: var(--fg-color); stroke-width: 0.8; stroke-linejoin: miter; stroke-linecap: square"/>
   </g>
   <g id="patch_4">
    <path d="M 35.96 103.4 
L 211 103.4 
" style="fill: none; stroke: var(--fg-color); stroke-width: 0.8; stroke-linejoin: miter; stroke-linecap: square"/>
   </g>
  </g>
 </g>
 <defs>
  <clipPath id="p8d2887bd25">
   <rect x="35.96" y="5" width="175.04" height="98.4"/>
  </clipPath>
 </defs>
</svg>
