<?xml version="1.0" encoding="utf-8" standalone="no"?>
<!DOCTYPE svg PUBLIC "-//W3C//DTD SVG 1.1//EN"
  "http://www.w3.org/Graphics/SVG/1.1/DTD/svg11.dtd">
<svg xmlns:xlink="http://www.w3.org/1999/xlink" width="216pt" height="122.4pt" viewBox="0 0 216 122.4" xmlns="http://www.w3.org/2000/svg" version="1.1">
  <style>
    :root {
      --fg-color: #212529;
      --grid-color: rgba(33, 37, 41, 0.1);
    }
    @media (prefers-color-scheme: dark) {
      :root {
        --fg-color: #dee2e6;
        --grid-color: rgba(248, 249, 250, 0.15);
      }
    }
  </style>

 <metadata>
  <rdf:RDF xmlns:dc="http://purl.org/dc/elements/1.1/" xmlns:cc="http://creativecommons.org/ns#" xmlns:rdf="http://www.w3.org/1999/02/22-rdf-syntax-ns#">
   <cc:Work>
    <dc:type rdf:resource="http://purl.org/dc/dcmitype/StillImage"/>
    <dc:date>2026-06-30T04:48:31.627854</dc:date>
    <dc:format>image/svg+xml</dc:format>
    <dc:creator>
     <cc:Agent>
      <dc:title>Matplotlib v3.11.0, https://matplotlib.org/</dc:title>
     </cc:Agent>
    </dc:creator>
   </cc:Work>
  </rdf:RDF>
 </metadata>
 <defs>
  <style type="text/css">*{stroke-linejoin: round; stroke-linecap: butt}</style>
 </defs>
 <g id="figure_1">
  <g id="patch_1">
   <path d="M 0 122.4 
L 216 122.4 
L 216 0 
L 0 0 
L 0 122.4 
z
" style="fill: none; opacity: 0"/>
  </g>
  <g id="axes_1">
   <g id="patch_2">
    <path d="M 31.64 103.4 
L 211 103.4 
L 211 5 
L 31.64 5 
L 31.64 103.4 
z
" style="fill: none; opacity: 0"/>
   </g>
   <g id="matplotlib.axis_1">
    <g id="xtick_1">
     <g id="line2d_1">
      <path d="M 68.627238 103.4 
L 68.627238 5 
" clip-path="url(#pc1da889f89)" style="fill: none; stroke-dasharray: 2.96,1.28; stroke-dashoffset: 0; stroke: var(--grid-color); stroke-width: 0.8"/>
     </g>
     <g id="line2d_2">
      <defs>
       <path id="mabe5b6377a" d="M 0 0 
L 0 3.5 
" style="stroke: var(--fg-color); stroke-width: 0.8"/>
      </defs>
      <g>
       <use xlink:href="#mabe5b6377a" x="68.627238" y="103.4" style="fill: var(--fg-color); stroke: var(--fg-color); stroke-width: 0.8"/>
      </g>
     </g>
     <g id="text_1">
      <text style="font-size: 7px; font-family: 'DejaVu Sans', 'Bitstream Vera Sans', 'Computer Modern Sans Serif', 'Lucida Grande', 'Verdana', 'Geneva', 'Lucid', 'Arial', 'Helvetica', 'Avant Garde', sans-serif; text-anchor: middle; fill: var(--fg-color)" x="68.627238" y="115.718359" transform="rotate(-0 68.627238 115.718359)">02/2026</text>
     </g>
    </g>
    <g id="xtick_2">
     <g id="line2d_3">
      <path d="M 124.558632 103.4 
L 124.558632 5 
" clip-path="url(#pc1da889f89)" style="fill: none; stroke-dasharray: 2.96,1.28; stroke-dashoffset: 0; stroke: var(--grid-color); stroke-width: 0.8"/>
     </g>
     <g id="line2d_4">
      <g>
       <use xlink:href="#mabe5b6377a" x="124.558632" y="103.4" style="fill: var(--fg-color); stroke: var(--fg-color); stroke-width: 0.8"/>
      </g>
     </g>
     <g id="text_2">
      <text style="font-size: 7px; font-family: 'DejaVu Sans', 'Bitstream Vera Sans', 'Computer Modern Sans Serif', 'Lucida Grande', 'Verdana', 'Geneva', 'Lucid', 'Arial', 'Helvetica', 'Avant Garde', sans-serif; text-anchor: middle; fill: var(--fg-color)" x="124.558632" y="115.718359" transform="rotate(-0 124.558632 115.718359)">04/2026</text>
     </g>
    </g>
    <g id="xtick_3">
     <g id="line2d_5">
      <path d="M 182.386006 103.4 
L 182.386006 5 
" clip-path="url(#pc1da889f89)" style="fill: none; stroke-dasharray: 2.96,1.28; stroke-dashoffset: 0; stroke: var(--grid-color); stroke-width: 0.8"/>
     </g>
     <g id="line2d_6">
      <g>
       <use xlink:href="#mabe5b6377a" x="182.386006" y="103.4" style="fill: var(--fg-color); stroke: var(--fg-color); stroke-width: 0.8"/>
      </g>
     </g>
     <g id="text_3">
      <text style="font-size: 7px; font-family: 'DejaVu Sans', 'Bitstream Vera Sans', 'Computer Modern Sans Serif', 'Lucida Grande', 'Verdana', 'Geneva', 'Lucid', 'Arial', 'Helvetica', 'Avant Garde', sans-serif; text-anchor: middle; fill: var(--fg-color)" x="182.386006" y="115.718359" transform="rotate(-0 182.386006 115.718359)">06/2026</text>
     </g>
    </g>
   </g>
   <g id="matplotlib.axis_2">
    <g id="ytick_1">
     <g id="line2d_7">
      <path d="M 31.64 102.020399 
L 211 102.020399 
" clip-path="url(#pc1da889f89)" style="fill: none; stroke-dasharray: 2.96,1.28; stroke-dashoffset: 0; stroke: var(--grid-color); stroke-width: 0.8"/>
     </g>
     <g id="line2d_8">
      <defs>
       <path id="m8009016b93" d="M 0 0 
L -3.5 0 
" style="stroke: var(--fg-color); stroke-width: 0.8"/>
      </defs>
      <g>
       <use xlink:href="#m8009016b93" x="31.64" y="102.020399" style="fill: var(--fg-color); stroke: var(--fg-color); stroke-width: 0.8"/>
      </g>
     </g>
     <g id="text_4">
      <text style="font-size: 7px; font-family: 'DejaVu Sans', 'Bitstream Vera Sans', 'Computer Modern Sans Serif', 'Lucida Grande', 'Verdana', 'Geneva', 'Lucid', 'Arial', 'Helvetica', 'Avant Garde', sans-serif; text-anchor: end; fill: var(--fg-color)" x="24.64" y="104.679579" transform="rotate(-0 24.64 104.679579)">0</text>
     </g>
    </g>
    <g id="ytick_2">
     <g id="line2d_9">
      <path d="M 31.64 81.163176 
L 211 81.163176 
" clip-path="url(#pc1da889f89)" style="fill: none; stroke-dasharray: 2.96,1.28; stroke-dashoffset: 0; stroke: var(--grid-color); stroke-width: 0.8"/>
     </g>
     <g id="line2d_10">
      <g>
       <use xlink:href="#m8009016b93" x="31.64" y="81.163176" style="fill: var(--fg-color); stroke: var(--fg-color); stroke-width: 0.8"/>
      </g>
     </g>
     <g id="text_5">
      <text style="font-size: 7px; font-family: 'DejaVu Sans', 'Bitstream Vera Sans', 'Computer Modern Sans Serif', 'Lucida Grande', 'Verdana', 'Geneva', 'Lucid', 'Arial', 'Helvetica', 'Avant Garde', sans-serif; text-anchor: end; fill: var(--fg-color)" x="24.64" y="83.822355" transform="rotate(-0 24.64 83.822355)">10</text>
     </g>
    </g>
    <g id="ytick_3">
     <g id="line2d_11">
      <path d="M 31.64 60.305952 
L 211 60.305952 
" clip-path="url(#pc1da889f89)" style="fill: none; stroke-dasharray: 2.96,1.28; stroke-dashoffset: 0; stroke: var(--grid-color); stroke-width: 0.8"/>
     </g>
     <g id="line2d_12">
      <g>
       <use xlink:href="#m8009016b93" x="31.64" y="60.305952" style="fill: var(--fg-color); stroke: var(--fg-color); stroke-width: 0.8"/>
      </g>
     </g>
     <g id="text_6">
      <text style="font-size: 7px; font-family: 'DejaVu Sans', 'Bitstream Vera Sans', 'Computer Modern Sans Serif', 'Lucida Grande', 'Verdana', 'Geneva', 'Lucid', 'Arial', 'Helvetica', 'Avant Garde', sans-serif; text-anchor: end; fill: var(--fg-color)" x="24.64" y="62.965132" transform="rotate(-0 24.64 62.965132)">20</text>
     </g>
    </g>
    <g id="ytick_4">
     <g id="line2d_13">
      <path d="M 31.64 39.448729 
L 211 39.448729 
" clip-path="url(#pc1da889f89)" style="fill: none; stroke-dasharray: 2.96,1.28; stroke-dashoffset: 0; stroke: var(--grid-color); stroke-width: 0.8"/>
     </g>
     <g id="line2d_14">
      <g>
       <use xlink:href="#m8009016b93" x="31.64" y="39.448729" style="fill: var(--fg-color); stroke: var(--fg-color); stroke-width: 0.8"/>
      </g>
     </g>
     <g id="text_7">
      <text style="font-size: 7px; font-family: 'DejaVu Sans', 'Bitstream Vera Sans', 'Computer Modern Sans Serif', 'Lucida Grande', 'Verdana', 'Geneva', 'Lucid', 'Arial', 'Helvetica', 'Avant Garde', sans-serif; text-anchor: end; fill: var(--fg-color)" x="24.64" y="42.107908" transform="rotate(-0 24.64 42.107908)">30</text>
     </g>
    </g>
    <g id="ytick_5">
     <g id="line2d_15">
      <path d="M 31.64 18.591505 
L 211 18.591505 
" clip-path="url(#pc1da889f89)" style="fill: none; stroke-dasharray: 2.96,1.28; stroke-dashoffset: 0; stroke: var(--grid-color); stroke-width: 0.8"/>
     </g>
     <g id="line2d_16">
      <g>
       <use xlink:href="#m8009016b93" x="31.64" y="18.591505" style="fill: var(--fg-color); stroke: var(--fg-color); stroke-width: 0.8"/>
      </g>
     </g>
     <g id="text_8">
      <text style="font-size: 7px; font-family: 'DejaVu Sans', 'Bitstream Vera Sans', 'Computer Modern Sans Serif', 'Lucida Grande', 'Verdana', 'Geneva', 'Lucid', 'Arial', 'Helvetica', 'Avant Garde', sans-serif; text-anchor: end; fill: var(--fg-color)" x="24.64" y="21.250685" transform="rotate(-0 24.64 21.250685)">40</text>
     </g>
    </g>
    <g id="text_9">
     <text style="font-size: 7px; font-family: 'DejaVu Sans', 'Bitstream Vera Sans', 'Computer Modern Sans Serif', 'Lucida Grande', 'Verdana', 'Geneva', 'Lucid', 'Arial', 'Helvetica', 'Avant Garde', sans-serif; text-anchor: middle; fill: var(--fg-color)" x="10.050859" y="54.2" transform="rotate(-90 10.050859 54.2)">ms</text>
    </g>
   </g>
   <g id="line2d_17">
    <path d="M 39.792727 24.270927 
L 41.100981 21.373859 
L 41.688656 20.335169 
L 42.636649 21.703403 
L 43.584641 23.741154 
L 44.532636 19.319422 
L 45.480623 19.087907 
L 46.428611 21.280001 
L 47.376592 16.82907 
L 48.324591 20.695999 
L 49.272583 20.994257 
L 50.220574 21.576174 
L 51.168564 20.708514 
L 52.116549 20.491598 
L 53.064541 18.067989 
L 54.012533 19.275622 
L 54.960516 25.163616 
L 55.908509 21.215344 
L 56.856499 20.387312 
L 57.804489 24.166641 
L 58.752478 19.932625 
L 59.700467 16.893727 
L 60.64846 21.799346 
L 61.596444 17.504844 
L 62.544432 20.474913 
L 63.492429 19.792881 
L 64.440417 22.072576 
L 65.388409 20.529141 
L 66.336395 19.415366 
L 67.284367 21.300859 
L 68.232376 20.16414 
L 69.180361 20.712685 
L 70.128357 22.212319 
L 71.076344 21.776403 
L 72.024336 19.190108 
L 72.97232 19.400766 
L 73.920319 23.002808 
L 74.868295 23.622268 
L 75.816291 19.863796 
L 76.764282 18.520591 
L 77.712274 17.669616 
L 78.660247 18.466362 
L 79.608251 16.211696 
L 80.556225 22.14349 
L 81.504231 25.061416 
L 82.452221 21.813946 
L 83.400212 21.436431 
L 84.348199 22.243605 
L 85.296195 19.231822 
L 94.970475 23.699439 
L 95.724369 17.033471 
L 96.672377 15.02492 
L 97.620366 17.629987 
L 98.56836 20.948372 
L 99.516347 22.464692 
L 100.464334 21.889032 
L 101.412323 15.563037 
L 102.360311 24.85493 
L 103.308299 19.77411 
L 104.256292 13.967459 
L 105.204278 19.302737 
L 106.15227 19.225565 
L 107.100261 18.216075 
L 108.04825 21.248716 
L 108.996237 20.493684 
L 109.944231 18.397533 
L 110.892217 17.363015 
L 111.84021 21.601203 
L 112.788201 18.923135 
L 113.736187 19.999368 
L 114.684183 15.97601 
L 115.632163 19.08165 
L 116.580154 19.755338 
L 117.528151 19.805396 
L 118.47614 12.668054 
L 119.42413 21.21743 
L 120.372113 19.751167 
L 121.320106 18.032532 
L 122.268096 16.572526 
L 123.216085 16.046924 
L 124.164076 17.705073 
L 127.956033 21.190315 
L 128.904029 14.084259 
L 129.852015 17.333815 
L 130.800005 16.414011 
L 131.747996 15.223064 
L 132.695985 17.079357 
L 133.643978 17.734273 
L 134.591949 18.320361 
L 135.539952 22.199805 
L 136.487947 12.814054 
L 137.435933 19.895082 
L 138.383926 18.624877 
L 139.331913 16.710184 
L 140.279903 18.812592 
L 141.22789 16.539155 
L 142.175883 14.480547 
L 143.123885 11.479192 
L 144.071862 19.609338 
L 145.019854 15.957238 
L 145.967841 9.472727 
L 146.915831 11.318592 
L 147.863822 13.915316 
L 148.811809 17.110642 
L 149.759801 15.304407 
L 150.707787 20.370627 
L 179.147543 20.370627 
L 187.994854 17.94076 
L 188.627425 16.130353 
L 189.575414 15.325264 
L 190.523402 17.974132 
L 191.471391 19.959739 
L 192.419387 16.161639 
L 193.367373 19.221393 
L 194.315361 20.566684 
L 195.263349 16.528726 
L 196.211342 19.538423 
L 197.159334 18.866821 
L 198.107324 17.94076 
L 199.055317 19.772024 
L 200.0033 24.135355 
L 200.951292 18.660334 
L 201.899281 18.998221 
L 202.847273 15.942638 
" clip-path="url(#pc1da889f89)" style="fill: none; stroke: #339af0; stroke-width: 1.2; stroke-linecap: square"/>
   </g>
   <g id="line2d_18">
    <path d="M 39.792727 98.583129 
L 41.100981 98.6311 
L 41.688656 98.412099 
L 42.636649 98.739558 
L 43.584641 98.802129 
L 44.532636 98.439214 
L 45.480623 98.457985 
L 46.428611 98.737472 
L 47.376592 98.416271 
L 48.324591 98.5873 
L 49.272583 98.603986 
L 50.220574 98.854272 
L 51.168564 98.524728 
L 52.116549 98.549757 
L 53.064541 98.676986 
L 54.012533 98.6895 
L 54.960516 98.789615 
L 55.908509 98.712443 
L 56.856499 98.589386 
L 57.804489 98.720786 
L 58.752478 98.599814 
L 59.700467 98.466328 
L 60.64846 97.46101 
L 61.596444 98.672815 
L 62.544432 98.668643 
L 63.492429 98.672815 
L 64.440417 98.679072 
L 65.388409 98.610243 
L 66.336395 98.651957 
L 67.284367 98.708272 
L 68.232376 98.364128 
L 69.180361 98.520557 
L 70.128357 98.5581 
L 71.076344 98.606071 
L 72.024336 98.418356 
L 72.97232 98.5435 
L 73.920319 98.539328 
L 74.868295 98.743729 
L 75.816291 98.662386 
L 76.764282 98.272356 
L 77.712274 98.643614 
L 78.660247 98.495528 
L 79.608251 96.845722 
L 80.556225 98.722872 
L 81.504231 98.754158 
L 82.452221 98.670729 
L 83.400212 98.810472 
L 84.348199 98.754158 
L 85.296195 98.578957 
L 94.970475 98.877215 
L 95.724369 98.462157 
L 96.672377 98.589386 
L 97.620366 98.4997 
L 98.56836 98.760415 
L 99.516347 98.84593 
L 100.464334 98.720786 
L 101.412323 98.512214 
L 102.360311 98.927273 
L 103.308299 98.656129 
L 104.256292 98.503871 
L 105.204278 98.622757 
L 106.15227 98.641529 
L 107.100261 98.614414 
L 108.04825 98.768758 
L 108.996237 98.758329 
L 109.944231 98.337013 
L 110.892217 98.658215 
L 111.84021 98.541414 
L 112.788201 98.445471 
L 113.736187 98.597729 
L 114.684183 98.487185 
L 115.632163 98.731215 
L 116.580154 98.793786 
L 117.528151 98.6165 
L 118.47614 98.384985 
L 119.42413 98.6895 
L 120.372113 98.5727 
L 121.320106 98.412099 
L 122.268096 98.370385 
L 123.216085 98.118012 
L 124.164076 98.205613 
L 127.956033 98.412099 
L 128.904029 98.122184 
L 129.852015 98.380813 
L 130.800005 96.048976 
L 131.747996 98.111755 
L 132.695985 98.372471 
L 133.643978 98.351613 
L 134.591949 98.193098 
L 135.539952 98.4851 
L 136.487947 98.088812 
L 137.435933 98.307813 
L 138.383926 98.393328 
L 139.331913 98.332842 
L 140.279903 98.151384 
L 141.22789 98.072127 
L 142.175883 97.955326 
L 143.123885 98.188927 
L 144.071862 98.122184 
L 145.019854 98.122184 
L 145.967841 98.022069 
L 146.915831 98.059612 
L 147.863822 97.832268 
L 148.811809 98.222299 
L 149.759801 98.067955 
L 150.707787 98.305727 
L 179.147543 98.305727 
L 187.994854 98.170156 
L 188.627425 98.188927 
L 189.575414 98.193098 
L 190.523402 98.508043 
L 191.471391 98.691586 
L 192.419387 98.345356 
L 193.367373 98.735386 
L 194.315361 98.727043 
L 195.263349 98.397499 
L 196.211342 98.827158 
L 197.159334 98.570614 
L 198.107324 98.5727 
L 199.055317 98.629014 
L 200.0033 98.870958 
L 200.951292 98.6749 
L 201.899281 98.722872 
L 202.847273 98.556014 
" clip-path="url(#pc1da889f89)" style="fill: none; stroke: #ff6b6b; stroke-width: 1.2; stroke-linecap: square"/>
   </g>
   <g id="patch_3">
    <path d="M 31.64 103.4 
L 31.64 5 
" style="fill: none; stroke: var(--fg-color); stroke-width: 0.8; stroke-linejoin: miter; stroke-linecap: square"/>
   </g>
   <g id="patch_4">
    <path d="M 31.64 103.4 
L 211 103.4 
" style="fill: none; stroke: var(--fg-color); stroke-width: 0.8; stroke-linejoin: miter; stroke-linecap: square"/>
   </g>
  </g>
 </g>
 <defs>
  <clipPath id="pc1da889f89">
   <rect x="31.64" y="5" width="179.36" height="98.4"/>
  </clipPath>
 </defs>
</svg>
