<?xml version="1.0" encoding="utf-8" standalone="no"?>
<!DOCTYPE svg PUBLIC "-//W3C//DTD SVG 1.1//EN"
  "http://www.w3.org/Graphics/SVG/1.1/DTD/svg11.dtd">
<svg xmlns:xlink="http://www.w3.org/1999/xlink" width="216pt" height="122.4pt" viewBox="0 0 216 122.4" xmlns="http://www.w3.org/2000/svg" version="1.1">
  <style>
    :root {
      --fg-color: #212529;
      --grid-color: rgba(33, 37, 41, 0.1);
    }
    @media (prefers-color-scheme: dark) {
      :root {
        --fg-color: #dee2e6;
        --grid-color: rgba(248, 249, 250, 0.15);
      }
    }
  </style>

 <metadata>
  <rdf:RDF xmlns:dc="http://purl.org/dc/elements/1.1/" xmlns:cc="http://creativecommons.org/ns#" xmlns:rdf="http://www.w3.org/1999/02/22-rdf-syntax-ns#">
   <cc:Work>
    <dc:type rdf:resource="http://purl.org/dc/dcmitype/StillImage"/>
    <dc:date>2026-06-30T15:36:59.954380</dc:date>
    <dc:format>image/svg+xml</dc:format>
    <dc:creator>
     <cc:Agent>
      <dc:title>Matplotlib v3.11.0, https://matplotlib.org/</dc:title>
     </cc:Agent>
    </dc:creator>
   </cc:Work>
  </rdf:RDF>
 </metadata>
 <defs>
  <style type="text/css">*{stroke-linejoin: round; stroke-linecap: butt}</style>
 </defs>
 <g id="figure_1">
  <g id="patch_1">
   <path d="M 0 122.4 
L 216 122.4 
L 216 0 
L 0 0 
L 0 122.4 
z
" style="fill: none; opacity: 0"/>
  </g>
  <g id="axes_1">
   <g id="patch_2">
    <path d="M 35.96 103.4 
L 211 103.4 
L 211 5 
L 35.96 5 
L 35.96 103.4 
z
" style="fill: none; opacity: 0"/>
   </g>
   <g id="matplotlib.axis_1">
    <g id="xtick_1">
     <g id="line2d_1">
      <path d="M 69.784035 103.4 
L 69.784035 5 
" clip-path="url(#p8781419c90)" style="fill: none; stroke-dasharray: 2.96,1.28; stroke-dashoffset: 0; stroke: var(--grid-color); stroke-width: 0.8"/>
     </g>
     <g id="line2d_2">
      <defs>
       <path id="mb0c571f7b4" d="M 0 0 
L 0 3.5 
" style="stroke: var(--fg-color); stroke-width: 0.8"/>
      </defs>
      <g>
       <use xlink:href="#mb0c571f7b4" x="69.784035" y="103.4" style="fill: var(--fg-color); stroke: var(--fg-color); stroke-width: 0.8"/>
      </g>
     </g>
     <g id="text_1">
      <text style="font-size: 7px; font-family: 'DejaVu Sans', 'Bitstream Vera Sans', 'Computer Modern Sans Serif', 'Lucida Grande', 'Verdana', 'Geneva', 'Lucid', 'Arial', 'Helvetica', 'Avant Garde', sans-serif; text-anchor: middle; fill: var(--fg-color)" x="69.784035" y="115.718359" transform="rotate(-0 69.784035 115.718359)">02/2026</text>
     </g>
    </g>
    <g id="xtick_2">
     <g id="line2d_3">
      <path d="M 122.345302 103.4 
L 122.345302 5 
" clip-path="url(#p8781419c90)" style="fill: none; stroke-dasharray: 2.96,1.28; stroke-dashoffset: 0; stroke: var(--grid-color); stroke-width: 0.8"/>
     </g>
     <g id="line2d_4">
      <g>
       <use xlink:href="#mb0c571f7b4" x="122.345302" y="103.4" style="fill: var(--fg-color); stroke: var(--fg-color); stroke-width: 0.8"/>
      </g>
     </g>
     <g id="text_2">
      <text style="font-size: 7px; font-family: 'DejaVu Sans', 'Bitstream Vera Sans', 'Computer Modern Sans Serif', 'Lucida Grande', 'Verdana', 'Geneva', 'Lucid', 'Arial', 'Helvetica', 'Avant Garde', sans-serif; text-anchor: middle; fill: var(--fg-color)" x="122.345302" y="115.718359" transform="rotate(-0 122.345302 115.718359)">04/2026</text>
     </g>
    </g>
    <g id="xtick_3">
     <g id="line2d_5">
      <path d="M 176.688307 103.4 
L 176.688307 5 
" clip-path="url(#p8781419c90)" style="fill: none; stroke-dasharray: 2.96,1.28; stroke-dashoffset: 0; stroke: var(--grid-color); stroke-width: 0.8"/>
     </g>
     <g id="line2d_6">
      <g>
       <use xlink:href="#mb0c571f7b4" x="176.688307" y="103.4" style="fill: var(--fg-color); stroke: var(--fg-color); stroke-width: 0.8"/>
      </g>
     </g>
     <g id="text_3">
      <text style="font-size: 7px; font-family: 'DejaVu Sans', 'Bitstream Vera Sans', 'Computer Modern Sans Serif', 'Lucida Grande', 'Verdana', 'Geneva', 'Lucid', 'Arial', 'Helvetica', 'Avant Garde', sans-serif; text-anchor: middle; fill: var(--fg-color)" x="176.688307" y="115.718359" transform="rotate(-0 176.688307 115.718359)">06/2026</text>
     </g>
    </g>
   </g>
   <g id="matplotlib.axis_2">
    <g id="ytick_1">
     <g id="line2d_7">
      <path d="M 35.96 99.475485 
L 211 99.475485 
" clip-path="url(#p8781419c90)" style="fill: none; stroke-dasharray: 2.96,1.28; stroke-dashoffset: 0; stroke: var(--grid-color); stroke-width: 0.8"/>
     </g>
     <g id="line2d_8">
      <defs>
       <path id="m370d45bfc4" d="M 0 0 
L -3.5 0 
" style="stroke: var(--fg-color); stroke-width: 0.8"/>
      </defs>
      <g>
       <use xlink:href="#m370d45bfc4" x="35.96" y="99.475485" style="fill: var(--fg-color); stroke: var(--fg-color); stroke-width: 0.8"/>
      </g>
     </g>
     <g id="text_4">
      <text style="font-size: 7px; font-family: 'DejaVu Sans', 'Bitstream Vera Sans', 'Computer Modern Sans Serif', 'Lucida Grande', 'Verdana', 'Geneva', 'Lucid', 'Arial', 'Helvetica', 'Avant Garde', sans-serif; text-anchor: end; fill: var(--fg-color)" x="28.96" y="102.134665" transform="rotate(-0 28.96 102.134665)">0</text>
     </g>
    </g>
    <g id="ytick_2">
     <g id="line2d_9">
      <path d="M 35.96 74.420084 
L 211 74.420084 
" clip-path="url(#p8781419c90)" style="fill: none; stroke-dasharray: 2.96,1.28; stroke-dashoffset: 0; stroke: var(--grid-color); stroke-width: 0.8"/>
     </g>
     <g id="line2d_10">
      <g>
       <use xlink:href="#m370d45bfc4" x="35.96" y="74.420084" style="fill: var(--fg-color); stroke: var(--fg-color); stroke-width: 0.8"/>
      </g>
     </g>
     <g id="text_5">
      <text style="font-size: 7px; font-family: 'DejaVu Sans', 'Bitstream Vera Sans', 'Computer Modern Sans Serif', 'Lucida Grande', 'Verdana', 'Geneva', 'Lucid', 'Arial', 'Helvetica', 'Avant Garde', sans-serif; text-anchor: end; fill: var(--fg-color)" x="28.96" y="77.079264" transform="rotate(-0 28.96 77.079264)">100</text>
     </g>
    </g>
    <g id="ytick_3">
     <g id="line2d_11">
      <path d="M 35.96 49.364683 
L 211 49.364683 
" clip-path="url(#p8781419c90)" style="fill: none; stroke-dasharray: 2.96,1.28; stroke-dashoffset: 0; stroke: var(--grid-color); stroke-width: 0.8"/>
     </g>
     <g id="line2d_12">
      <g>
       <use xlink:href="#m370d45bfc4" x="35.96" y="49.364683" style="fill: var(--fg-color); stroke: var(--fg-color); stroke-width: 0.8"/>
      </g>
     </g>
     <g id="text_6">
      <text style="font-size: 7px; font-family: 'DejaVu Sans', 'Bitstream Vera Sans', 'Computer Modern Sans Serif', 'Lucida Grande', 'Verdana', 'Geneva', 'Lucid', 'Arial', 'Helvetica', 'Avant Garde', sans-serif; text-anchor: end; fill: var(--fg-color)" x="28.96" y="52.023863" transform="rotate(-0 28.96 52.023863)">200</text>
     </g>
    </g>
    <g id="ytick_4">
     <g id="line2d_13">
      <path d="M 35.96 24.309283 
L 211 24.309283 
" clip-path="url(#p8781419c90)" style="fill: none; stroke-dasharray: 2.96,1.28; stroke-dashoffset: 0; stroke: var(--grid-color); stroke-width: 0.8"/>
     </g>
     <g id="line2d_14">
      <g>
       <use xlink:href="#m370d45bfc4" x="35.96" y="24.309283" style="fill: var(--fg-color); stroke: var(--fg-color); stroke-width: 0.8"/>
      </g>
     </g>
     <g id="text_7">
      <text style="font-size: 7px; font-family: 'DejaVu Sans', 'Bitstream Vera Sans', 'Computer Modern Sans Serif', 'Lucida Grande', 'Verdana', 'Geneva', 'Lucid', 'Arial', 'Helvetica', 'Avant Garde', sans-serif; text-anchor: end; fill: var(--fg-color)" x="28.96" y="26.968462" transform="rotate(-0 28.96 26.968462)">300</text>
     </g>
    </g>
    <g id="text_8">
     <text style="font-size: 7px; font-family: 'DejaVu Sans', 'Bitstream Vera Sans', 'Computer Modern Sans Serif', 'Lucida Grande', 'Verdana', 'Geneva', 'Lucid', 'Arial', 'Helvetica', 'Avant Garde', sans-serif; text-anchor: middle; fill: var(--fg-color)" x="9.917109" y="54.2" transform="rotate(-90 9.917109 54.2)">ms</text>
    </g>
   </g>
   <g id="line2d_15">
    <path d="M 43.916364 57.075984 
L 44.468628 86.146012 
L 45.3595 86.716022 
L 46.250371 86.260515 
L 47.141245 87.103379 
L 48.032112 86.179085 
L 48.922979 86.038775 
L 49.81384 86.345703 
L 50.704717 87.397028 
L 51.595589 85.312419 
L 52.486458 87.341906 
L 53.377327 84.908024 
L 54.268192 85.097443 
L 55.159063 86.824763 
L 56.049934 87.22615 
L 56.940797 85.509103 
L 57.831669 87.077822 
L 58.722538 86.87337 
L 59.613407 85.645154 
L 60.504275 87.2715 
L 61.395144 86.416861 
L 62.286016 86.953547 
L 63.176879 85.813025 
L 64.067746 83.816361 
L 64.958622 86.54765 
L 65.84949 87.016436 
L 66.740361 86.462712 
L 67.631226 77.265877 
L 68.522078 85.147805 
L 69.412965 84.29542 
L 70.30383 87.764841 
L 71.194705 86.132231 
L 72.085571 86.094648 
L 72.976442 82.386699 
L 73.867306 86.319646 
L 74.758184 85.586274 
L 75.649039 87.023201 
L 76.539914 85.686496 
L 77.430784 83.690833 
L 78.321655 86.598763 
L 79.212509 80.322886 
L 80.103391 84.60736 
L 80.994245 87.479711 
L 81.885129 85.473775 
L 82.775998 86.827018 
L 83.666869 84.743911 
L 84.557735 86.080116 
L 85.44861 83.996759 
L 95.248438 85.040818 
L 96.139324 85.687999 
L 97.030192 84.764206 
L 97.921065 85.483547 
L 98.811931 84.552238 
L 99.702798 85.627615 
L 101.484533 85.358771 
L 102.375401 84.452517 
L 103.266272 84.608111 
L 104.157138 85.141791 
L 105.048009 84.740654 
L 105.93888 85.542177 
L 106.829748 83.654252 
L 107.720614 85.237753 
L 108.611487 84.640182 
L 109.502352 84.395641 
L 110.393224 85.222219 
L 111.284094 85.251283 
L 112.17496 85.723327 
L 113.065834 76.294228 
L 113.956695 85.332713 
L 114.847564 86.349712 
L 115.738441 85.148807 
L 116.629309 85.732347 
L 117.520178 85.461498 
L 118.41104 71.810564 
L 119.301913 85.970874 
L 120.192782 84.962645 
L 121.083649 86.414606 
L 121.97452 85.13678 
L 125.537994 85.508602 
L 126.428869 85.859879 
L 127.319734 85.163589 
L 128.210603 85.253538 
L 129.101474 82.750253 
L 129.992342 83.945145 
L 130.883214 81.802407 
L 131.774065 86.476242 
L 132.664946 85.935296 
L 133.55582 84.111263 
L 134.446686 85.656429 
L 135.337558 84.92431 
L 136.228424 85.495072 
L 137.119294 83.648489 
L 138.010159 85.288115 
L 138.901032 85.219463 
L 139.791912 84.859918 
L 140.68277 83.02912 
L 141.57364 83.618172 
L 142.464507 82.086786 
L 143.355376 84.581051 
L 144.246246 84.647448 
L 145.137113 84.021815 
L 146.027984 84.13707 
L 146.918849 82.614202 
L 173.644977 82.614202 
L 181.959197 84.959889 
L 182.553652 84.639932 
L 183.444521 85.672715 
L 184.335387 82.763783 
L 185.226256 84.819328 
L 186.117131 9.472727 
L 187.007996 85.523134 
L 187.898864 73.216423 
L 188.789731 84.858415 
L 189.680603 86.390552 
L 190.571474 85.117488 
L 191.462343 86.162799 
L 192.353215 85.138033 
L 193.244077 83.343064 
L 194.134949 85.153818 
L 195.025817 76.390441 
L 195.916688 85.562973 
L 196.807557 85.261055 
L 198.589295 85.732097 
L 199.480162 85.246773 
L 200.371032 85.596797 
L 201.261898 74.702208 
L 202.152766 85.380319 
L 203.043636 84.853404 
L 203.043636 84.853404 
" clip-path="url(#p8781419c90)" style="fill: none; stroke: #339af0; stroke-width: 1.2; stroke-linecap: square"/>
   </g>
   <g id="line2d_16">
    <path d="M 43.916364 98.845342 
L 46.250371 98.852107 
L 50.704717 98.925769 
L 51.595589 98.834818 
L 53.377327 98.897457 
L 56.049934 98.867891 
L 62.286016 98.902217 
L 70.30383 98.880419 
L 75.649039 98.904973 
L 78.321655 98.873905 
L 82.775998 98.872401 
L 85.44861 98.851355 
L 118.41104 98.912741 
L 120.192782 98.806005 
L 121.97452 98.845342 
L 127.319734 98.821539 
L 129.101474 98.824295 
L 132.664946 98.793477 
L 133.55582 98.748377 
L 135.337558 98.863381 
L 136.228424 98.801495 
L 137.119294 98.604559 
L 138.010159 98.839328 
L 139.791912 98.840832 
L 140.68277 98.740861 
L 142.464507 98.833315 
L 143.355376 98.760654 
L 146.027984 98.806756 
L 146.918849 98.756896 
L 181.959197 98.842335 
L 184.335387 98.895703 
L 188.789731 98.887936 
L 196.807557 98.860876 
L 197.698426 98.603056 
L 198.589295 98.927273 
L 199.480162 98.823042 
L 202.152766 98.839829 
L 203.043636 98.828554 
L 203.043636 98.828554 
" clip-path="url(#p8781419c90)" style="fill: none; stroke: #ff6b6b; stroke-width: 1.2; stroke-linecap: square"/>
   </g>
   <g id="patch_3">
    <path d="M 35.96 103.4 
L 35.96 5 
" style="fill: none; stroke: var(--fg-color); stroke-width: 0.8; stroke-linejoin: miter; stroke-linecap: square"/>
   </g>
   <g id="patch_4">
    <path d="M 35.96 103.4 
L 211 103.4 
" style="fill: none; stroke: var(--fg-color); stroke-width: 0.8; stroke-linejoin: miter; stroke-linecap: square"/>
   </g>
  </g>
 </g>
 <defs>
  <clipPath id="p8781419c90">
   <rect x="35.96" y="5" width="175.04" height="98.4"/>
  </clipPath>
 </defs>
</svg>
