<?xml version="1.0" encoding="utf-8" standalone="no"?>
<!DOCTYPE svg PUBLIC "-//W3C//DTD SVG 1.1//EN"
  "http://www.w3.org/Graphics/SVG/1.1/DTD/svg11.dtd">
<svg xmlns:xlink="http://www.w3.org/1999/xlink" width="216pt" height="122.4pt" viewBox="0 0 216 122.4" xmlns="http://www.w3.org/2000/svg" version="1.1">
  <style>
    :root {
      --fg-color: #212529;
      --grid-color: rgba(33, 37, 41, 0.1);
    }
    @media (prefers-color-scheme: dark) {
      :root {
        --fg-color: #dee2e6;
        --grid-color: rgba(248, 249, 250, 0.15);
      }
    }
  </style>

 <metadata>
  <rdf:RDF xmlns:dc="http://purl.org/dc/elements/1.1/" xmlns:cc="http://creativecommons.org/ns#" xmlns:rdf="http://www.w3.org/1999/02/22-rdf-syntax-ns#">
   <cc:Work>
    <dc:type rdf:resource="http://purl.org/dc/dcmitype/StillImage"/>
    <dc:date>2026-06-30T15:36:46.988497</dc:date>
    <dc:format>image/svg+xml</dc:format>
    <dc:creator>
     <cc:Agent>
      <dc:title>Matplotlib v3.11.0, https://matplotlib.org/</dc:title>
     </cc:Agent>
    </dc:creator>
   </cc:Work>
  </rdf:RDF>
 </metadata>
 <defs>
  <style type="text/css">*{stroke-linejoin: round; stroke-linecap: butt}</style>
 </defs>
 <g id="figure_1">
  <g id="patch_1">
   <path d="M 0 122.4 
L 216 122.4 
L 216 0 
L 0 0 
L 0 122.4 
z
" style="fill: none; opacity: 0"/>
  </g>
  <g id="axes_1">
   <g id="patch_2">
    <path d="M 31.64 103.4 
L 211 103.4 
L 211 5 
L 31.64 5 
L 31.64 103.4 
z
" style="fill: none; opacity: 0"/>
   </g>
   <g id="matplotlib.axis_1">
    <g id="xtick_1">
     <g id="line2d_1">
      <path d="M 66.298815 103.4 
L 66.298815 5 
" clip-path="url(#p731f6dd89e)" style="fill: none; stroke-dasharray: 2.96,1.28; stroke-dashoffset: 0; stroke: var(--grid-color); stroke-width: 0.8"/>
     </g>
     <g id="line2d_2">
      <defs>
       <path id="m25dfc4a8f8" d="M 0 0 
L 0 3.5 
" style="stroke: var(--fg-color); stroke-width: 0.8"/>
      </defs>
      <g>
       <use xlink:href="#m25dfc4a8f8" x="66.298815" y="103.4" style="fill: var(--fg-color); stroke: var(--fg-color); stroke-width: 0.8"/>
      </g>
     </g>
     <g id="text_1">
      <text style="font-size: 7px; font-family: 'DejaVu Sans', 'Bitstream Vera Sans', 'Computer Modern Sans Serif', 'Lucida Grande', 'Verdana', 'Geneva', 'Lucid', 'Arial', 'Helvetica', 'Avant Garde', sans-serif; text-anchor: middle; fill: var(--fg-color)" x="66.298815" y="115.718359" transform="rotate(-0 66.298815 115.718359)">02/2026</text>
     </g>
    </g>
    <g id="xtick_2">
     <g id="line2d_3">
      <path d="M 120.157298 103.4 
L 120.157298 5 
" clip-path="url(#p731f6dd89e)" style="fill: none; stroke-dasharray: 2.96,1.28; stroke-dashoffset: 0; stroke: var(--grid-color); stroke-width: 0.8"/>
     </g>
     <g id="line2d_4">
      <g>
       <use xlink:href="#m25dfc4a8f8" x="120.157298" y="103.4" style="fill: var(--fg-color); stroke: var(--fg-color); stroke-width: 0.8"/>
      </g>
     </g>
     <g id="text_2">
      <text style="font-size: 7px; font-family: 'DejaVu Sans', 'Bitstream Vera Sans', 'Computer Modern Sans Serif', 'Lucida Grande', 'Verdana', 'Geneva', 'Lucid', 'Arial', 'Helvetica', 'Avant Garde', sans-serif; text-anchor: middle; fill: var(--fg-color)" x="120.157298" y="115.718359" transform="rotate(-0 120.157298 115.718359)">04/2026</text>
     </g>
    </g>
    <g id="xtick_3">
     <g id="line2d_5">
      <path d="M 175.841492 103.4 
L 175.841492 5 
" clip-path="url(#p731f6dd89e)" style="fill: none; stroke-dasharray: 2.96,1.28; stroke-dashoffset: 0; stroke: var(--grid-color); stroke-width: 0.8"/>
     </g>
     <g id="line2d_6">
      <g>
       <use xlink:href="#m25dfc4a8f8" x="175.841492" y="103.4" style="fill: var(--fg-color); stroke: var(--fg-color); stroke-width: 0.8"/>
      </g>
     </g>
     <g id="text_3">
      <text style="font-size: 7px; font-family: 'DejaVu Sans', 'Bitstream Vera Sans', 'Computer Modern Sans Serif', 'Lucida Grande', 'Verdana', 'Geneva', 'Lucid', 'Arial', 'Helvetica', 'Avant Garde', sans-serif; text-anchor: middle; fill: var(--fg-color)" x="175.841492" y="115.718359" transform="rotate(-0 175.841492 115.718359)">06/2026</text>
     </g>
    </g>
   </g>
   <g id="matplotlib.axis_2">
    <g id="ytick_1">
     <g id="line2d_7">
      <path d="M 31.64 102.272556 
L 211 102.272556 
" clip-path="url(#p731f6dd89e)" style="fill: none; stroke-dasharray: 2.96,1.28; stroke-dashoffset: 0; stroke: var(--grid-color); stroke-width: 0.8"/>
     </g>
     <g id="line2d_8">
      <defs>
       <path id="md432830bc0" d="M 0 0 
L -3.5 0 
" style="stroke: var(--fg-color); stroke-width: 0.8"/>
      </defs>
      <g>
       <use xlink:href="#md432830bc0" x="31.64" y="102.272556" style="fill: var(--fg-color); stroke: var(--fg-color); stroke-width: 0.8"/>
      </g>
     </g>
     <g id="text_4">
      <text style="font-size: 7px; font-family: 'DejaVu Sans', 'Bitstream Vera Sans', 'Computer Modern Sans Serif', 'Lucida Grande', 'Verdana', 'Geneva', 'Lucid', 'Arial', 'Helvetica', 'Avant Garde', sans-serif; text-anchor: end; fill: var(--fg-color)" x="24.64" y="104.931735" transform="rotate(-0 24.64 104.931735)">0</text>
     </g>
    </g>
    <g id="ytick_2">
     <g id="line2d_9">
      <path d="M 31.64 75.229039 
L 211 75.229039 
" clip-path="url(#p731f6dd89e)" style="fill: none; stroke-dasharray: 2.96,1.28; stroke-dashoffset: 0; stroke: var(--grid-color); stroke-width: 0.8"/>
     </g>
     <g id="line2d_10">
      <g>
       <use xlink:href="#md432830bc0" x="31.64" y="75.229039" style="fill: var(--fg-color); stroke: var(--fg-color); stroke-width: 0.8"/>
      </g>
     </g>
     <g id="text_5">
      <text style="font-size: 7px; font-family: 'DejaVu Sans', 'Bitstream Vera Sans', 'Computer Modern Sans Serif', 'Lucida Grande', 'Verdana', 'Geneva', 'Lucid', 'Arial', 'Helvetica', 'Avant Garde', sans-serif; text-anchor: end; fill: var(--fg-color)" x="24.64" y="77.888218" transform="rotate(-0 24.64 77.888218)">10</text>
     </g>
    </g>
    <g id="ytick_3">
     <g id="line2d_11">
      <path d="M 31.64 48.185522 
L 211 48.185522 
" clip-path="url(#p731f6dd89e)" style="fill: none; stroke-dasharray: 2.96,1.28; stroke-dashoffset: 0; stroke: var(--grid-color); stroke-width: 0.8"/>
     </g>
     <g id="line2d_12">
      <g>
       <use xlink:href="#md432830bc0" x="31.64" y="48.185522" style="fill: var(--fg-color); stroke: var(--fg-color); stroke-width: 0.8"/>
      </g>
     </g>
     <g id="text_6">
      <text style="font-size: 7px; font-family: 'DejaVu Sans', 'Bitstream Vera Sans', 'Computer Modern Sans Serif', 'Lucida Grande', 'Verdana', 'Geneva', 'Lucid', 'Arial', 'Helvetica', 'Avant Garde', sans-serif; text-anchor: end; fill: var(--fg-color)" x="24.64" y="50.844702" transform="rotate(-0 24.64 50.844702)">20</text>
     </g>
    </g>
    <g id="ytick_4">
     <g id="line2d_13">
      <path d="M 31.64 21.142005 
L 211 21.142005 
" clip-path="url(#p731f6dd89e)" style="fill: none; stroke-dasharray: 2.96,1.28; stroke-dashoffset: 0; stroke: var(--grid-color); stroke-width: 0.8"/>
     </g>
     <g id="line2d_14">
      <g>
       <use xlink:href="#md432830bc0" x="31.64" y="21.142005" style="fill: var(--fg-color); stroke: var(--fg-color); stroke-width: 0.8"/>
      </g>
     </g>
     <g id="text_7">
      <text style="font-size: 7px; font-family: 'DejaVu Sans', 'Bitstream Vera Sans', 'Computer Modern Sans Serif', 'Lucida Grande', 'Verdana', 'Geneva', 'Lucid', 'Arial', 'Helvetica', 'Avant Garde', sans-serif; text-anchor: end; fill: var(--fg-color)" x="24.64" y="23.801185" transform="rotate(-0 24.64 23.801185)">30</text>
     </g>
    </g>
    <g id="text_8">
     <text style="font-size: 7px; font-family: 'DejaVu Sans', 'Bitstream Vera Sans', 'Computer Modern Sans Serif', 'Lucida Grande', 'Verdana', 'Geneva', 'Lucid', 'Arial', 'Helvetica', 'Avant Garde', sans-serif; text-anchor: middle; fill: var(--fg-color)" x="10.050859" y="54.2" transform="rotate(-90 10.050859 54.2)">ms</text>
    </g>
   </g>
   <g id="line2d_15">
    <path d="M 39.792727 66.453418 
L 40.358622 68.184203 
L 41.271481 65.993678 
L 42.184338 66.099147 
L 43.097199 65.655634 
L 44.010052 63.6463 
L 44.922906 66.502096 
L 45.835753 67.153845 
L 46.748617 68.633125 
L 47.661476 65.606955 
L 48.574332 66.850957 
L 49.487188 65.704312 
L 50.40004 66.680583 
L 51.312897 66.79687 
L 52.225755 58.700041 
L 53.138604 64.544145 
L 54.051463 67.034853 
L 54.964319 65.055268 
L 55.877175 63.735544 
L 56.79003 68.335646 
L 57.702885 40.916224 
L 58.615744 65.650225 
L 59.528593 59.565434 
L 61.35431 63.083795 
L 62.267165 49.167201 
L 63.180022 61.723506 
L 64.092874 61.772185 
L 65.005713 65.179668 
L 65.918587 61.426028 
L 66.831438 66.721148 
L 67.7443 54.794957 
L 68.657153 65.258094 
L 69.57001 65.128285 
L 70.482861 60.073852 
L 71.395726 51.165717 
L 72.308567 66.48587 
L 73.221429 58.470171 
L 74.134286 61.442254 
L 75.047144 62.050733 
L 75.959984 62.142681 
L 76.872853 43.571898 
L 77.785693 52.206893 
L 78.698564 62.058846 
L 79.61142 62.894491 
L 80.524278 64.081701 
L 81.43713 63.3353 
L 82.349993 64.46031 
L 91.665728 67.746098 
L 92.391681 70.40718 
L 93.304554 69.011734 
L 94.217409 68.927899 
L 95.130269 68.984691 
L 96.043122 70.923711 
L 96.955975 68.857586 
L 97.868829 69.46877 
L 98.781684 69.739205 
L 99.694538 68.416777 
L 100.607396 69.582352 
L 101.520248 69.420091 
L 102.433106 65.631295 
L 103.345963 62.867447 
L 104.258819 71.380746 
L 105.171671 69.317326 
L 106.084531 66.253296 
L 106.997383 67.816411 
L 107.910242 63.383978 
L 108.823098 61.215088 
L 109.735951 68.030055 
L 110.648812 66.588635 
L 111.561659 68.365394 
L 112.474515 64.533328 
L 113.387379 66.710331 
L 114.300233 67.689306 
L 115.213089 64.852441 
L 116.125938 67.364784 
L 117.038797 68.814317 
L 117.951653 65.515008 
L 118.864507 64.295345 
L 119.777364 64.852441 
L 123.428785 51.647092 
L 124.341647 58.978589 
L 125.254499 54.264904 
L 126.167355 63.554353 
L 127.080212 62.372551 
L 127.993067 55.736072 
L 128.905926 63.181152 
L 129.818763 62.983734 
L 130.731631 59.925113 
L 131.644492 63.405613 
L 132.557344 60.130643 
L 133.470203 54.859862 
L 134.383056 63.575987 
L 135.295912 56.977369 
L 136.208765 64.676658 
L 137.121624 61.390871 
L 138.034491 59.695243 
L 138.947335 36.216061 
L 139.860192 51.96891 
L 140.773046 56.533856 
L 141.685902 54.711122 
L 142.598758 53.807869 
L 143.511612 58.194327 
L 144.42447 48.704757 
L 145.337321 49.213175 
L 172.723053 49.213175 
L 181.242468 55.698211 
L 181.851594 54.024217 
L 182.764449 49.897376 
L 183.677303 48.117913 
L 184.590158 58.513441 
L 185.503019 46.073423 
L 186.415872 55.130297 
L 187.328726 59.587069 
L 188.24158 60.617427 
L 189.154439 57.910371 
L 190.067296 9.472727 
L 190.980152 52.363745 
L 191.893011 45.905753 
L 192.80586 49.789202 
L 193.718718 48.967079 
L 194.631573 50.67623 
L 195.544431 49.713481 
L 196.457286 47.877226 
L 197.370142 58.375519 
L 198.282997 37.273463 
L 199.195852 49.326758 
L 201.021561 58.099675 
L 201.934415 62.094003 
L 202.847273 57.088248 
L 202.847273 57.088248 
" clip-path="url(#p731f6dd89e)" style="fill: none; stroke: #339af0; stroke-width: 1.2; stroke-linecap: square"/>
   </g>
   <g id="line2d_16">
    <path d="M 39.792727 95.051937 
L 40.358622 96.493356 
L 41.271481 95.660416 
L 42.184338 96.011982 
L 43.097199 94.091892 
L 44.010052 95.449476 
L 44.922906 96.082295 
L 45.835753 96.512287 
L 46.748617 97.604845 
L 47.661476 95.692868 
L 48.574332 96.24726 
L 49.487188 95.963303 
L 50.40004 93.353604 
L 51.312897 96.944983 
L 52.225755 94.337988 
L 53.138604 96.487947 
L 55.877175 97.018 
L 56.79003 95.614442 
L 57.702885 97.169444 
L 58.615744 96.460904 
L 59.528593 96.4582 
L 60.441447 97.450697 
L 61.35431 96.390591 
L 62.267165 96.552852 
L 63.180022 96.87467 
L 64.092874 96.658322 
L 65.005713 95.646894 
L 65.918587 96.596122 
L 66.831438 97.269505 
L 67.7443 95.419729 
L 68.657153 93.840387 
L 69.57001 96.366252 
L 70.482861 96.93687 
L 71.395726 96.988253 
L 72.308567 96.020095 
L 73.221429 97.174853 
L 74.134286 96.428452 
L 75.047144 96.025503 
L 75.959984 96.339208 
L 76.872853 96.815174 
L 77.785693 96.325686 
L 79.61142 96.790835 
L 81.43713 95.784816 
L 82.349993 93.020969 
L 91.665728 96.366252 
L 92.391681 94.992441 
L 93.304554 93.596996 
L 94.217409 95.871355 
L 95.130269 96.033616 
L 96.043122 96.758383 
L 96.955975 95.966008 
L 97.868829 97.018 
L 98.781684 96.471721 
L 99.694538 95.744251 
L 100.607396 96.577191 
L 101.520248 94.527293 
L 102.433106 94.824771 
L 103.345963 94.175727 
L 104.258819 96.095816 
L 105.171671 96.055251 
L 106.997383 95.427842 
L 107.910242 94.700371 
L 108.823098 95.714503 
L 110.648812 95.560355 
L 111.561659 95.598216 
L 112.474515 95.765886 
L 113.387379 96.12286 
L 114.300233 95.803747 
L 115.213089 93.889066 
L 116.125938 96.041729 
L 117.038797 97.226236 
L 117.951653 97.534532 
L 118.864507 96.009277 
L 119.777364 97.134288 
L 123.428785 95.619851 
L 124.341647 97.95641 
L 125.254499 96.9558 
L 126.167355 96.871965 
L 127.080212 98.113263 
L 127.993067 97.245166 
L 128.905926 96.777313 
L 129.818763 96.939574 
L 130.731631 97.640001 
L 131.644492 97.972637 
L 132.557344 95.038415 
L 133.470203 97.212714 
L 134.383056 97.393905 
L 135.295912 92.566638 
L 136.208765 96.006573 
L 137.121624 97.385792 
L 138.034491 95.554946 
L 138.947335 98.578411 
L 139.860192 98.667655 
L 140.773046 98.394515 
L 141.685902 98.775829 
L 142.598758 98.316089 
L 143.511612 98.402628 
L 145.337321 98.905638 
L 172.723053 98.905638 
L 181.242468 98.705516 
L 181.851594 98.83262 
L 182.764449 98.556777 
L 183.677303 98.616272 
L 184.590158 98.805577 
L 185.503019 98.70822 
L 186.415872 98.451307 
L 187.328726 98.475646 
L 188.24158 98.659542 
L 190.980152 98.640611 
L 191.893011 97.991567 
L 192.80586 98.375585 
L 193.718718 98.618977 
L 199.195852 98.481055 
L 200.108708 98.656838 
L 201.021561 98.719038 
L 201.934415 98.927273 
L 202.847273 98.735264 
L 202.847273 98.735264 
" clip-path="url(#p731f6dd89e)" style="fill: none; stroke: #ff6b6b; stroke-width: 1.2; stroke-linecap: square"/>
   </g>
   <g id="patch_3">
    <path d="M 31.64 103.4 
L 31.64 5 
" style="fill: none; stroke: var(--fg-color); stroke-width: 0.8; stroke-linejoin: miter; stroke-linecap: square"/>
   </g>
   <g id="patch_4">
    <path d="M 31.64 103.4 
L 211 103.4 
" style="fill: none; stroke: var(--fg-color); stroke-width: 0.8; stroke-linejoin: miter; stroke-linecap: square"/>
   </g>
  </g>
 </g>
 <defs>
  <clipPath id="p731f6dd89e">
   <rect x="31.64" y="5" width="179.36" height="98.4"/>
  </clipPath>
 </defs>
</svg>
