<?xml version="1.0" encoding="utf-8" standalone="no"?>
<!DOCTYPE svg PUBLIC "-//W3C//DTD SVG 1.1//EN"
  "http://www.w3.org/Graphics/SVG/1.1/DTD/svg11.dtd">
<svg xmlns:xlink="http://www.w3.org/1999/xlink" width="216pt" height="122.4pt" viewBox="0 0 216 122.4" xmlns="http://www.w3.org/2000/svg" version="1.1">
  <style>
    :root {
      --fg-color: #212529;
      --grid-color: rgba(33, 37, 41, 0.1);
    }
    @media (prefers-color-scheme: dark) {
      :root {
        --fg-color: #dee2e6;
        --grid-color: rgba(248, 249, 250, 0.15);
      }
    }
  </style>

 <metadata>
  <rdf:RDF xmlns:dc="http://purl.org/dc/elements/1.1/" xmlns:cc="http://creativecommons.org/ns#" xmlns:rdf="http://www.w3.org/1999/02/22-rdf-syntax-ns#">
   <cc:Work>
    <dc:type rdf:resource="http://purl.org/dc/dcmitype/StillImage"/>
    <dc:date>2026-06-30T15:36:54.503740</dc:date>
    <dc:format>image/svg+xml</dc:format>
    <dc:creator>
     <cc:Agent>
      <dc:title>Matplotlib v3.11.0, https://matplotlib.org/</dc:title>
     </cc:Agent>
    </dc:creator>
   </cc:Work>
  </rdf:RDF>
 </metadata>
 <defs>
  <style type="text/css">*{stroke-linejoin: round; stroke-linecap: butt}</style>
 </defs>
 <g id="figure_1">
  <g id="patch_1">
   <path d="M 0 122.4 
L 216 122.4 
L 216 0 
L 0 0 
L 0 122.4 
z
" style="fill: none; opacity: 0"/>
  </g>
  <g id="axes_1">
   <g id="patch_2">
    <path d="M 35.96 103.4 
L 211 103.4 
L 211 5 
L 35.96 5 
L 35.96 103.4 
z
" style="fill: none; opacity: 0"/>
   </g>
   <g id="matplotlib.axis_1">
    <g id="xtick_1">
     <g id="line2d_1">
      <path d="M 69.784035 103.4 
L 69.784035 5 
" clip-path="url(#p81c26aa1e3)" style="fill: none; stroke-dasharray: 2.96,1.28; stroke-dashoffset: 0; stroke: var(--grid-color); stroke-width: 0.8"/>
     </g>
     <g id="line2d_2">
      <defs>
       <path id="mf94f6748e9" d="M 0 0 
L 0 3.5 
" style="stroke: var(--fg-color); stroke-width: 0.8"/>
      </defs>
      <g>
       <use xlink:href="#mf94f6748e9" x="69.784035" y="103.4" style="fill: var(--fg-color); stroke: var(--fg-color); stroke-width: 0.8"/>
      </g>
     </g>
     <g id="text_1">
      <text style="font-size: 7px; font-family: 'DejaVu Sans', 'Bitstream Vera Sans', 'Computer Modern Sans Serif', 'Lucida Grande', 'Verdana', 'Geneva', 'Lucid', 'Arial', 'Helvetica', 'Avant Garde', sans-serif; text-anchor: middle; fill: var(--fg-color)" x="69.784035" y="115.718359" transform="rotate(-0 69.784035 115.718359)">02/2026</text>
     </g>
    </g>
    <g id="xtick_2">
     <g id="line2d_3">
      <path d="M 122.345302 103.4 
L 122.345302 5 
" clip-path="url(#p81c26aa1e3)" style="fill: none; stroke-dasharray: 2.96,1.28; stroke-dashoffset: 0; stroke: var(--grid-color); stroke-width: 0.8"/>
     </g>
     <g id="line2d_4">
      <g>
       <use xlink:href="#mf94f6748e9" x="122.345302" y="103.4" style="fill: var(--fg-color); stroke: var(--fg-color); stroke-width: 0.8"/>
      </g>
     </g>
     <g id="text_2">
      <text style="font-size: 7px; font-family: 'DejaVu Sans', 'Bitstream Vera Sans', 'Computer Modern Sans Serif', 'Lucida Grande', 'Verdana', 'Geneva', 'Lucid', 'Arial', 'Helvetica', 'Avant Garde', sans-serif; text-anchor: middle; fill: var(--fg-color)" x="122.345302" y="115.718359" transform="rotate(-0 122.345302 115.718359)">04/2026</text>
     </g>
    </g>
    <g id="xtick_3">
     <g id="line2d_5">
      <path d="M 176.688307 103.4 
L 176.688307 5 
" clip-path="url(#p81c26aa1e3)" style="fill: none; stroke-dasharray: 2.96,1.28; stroke-dashoffset: 0; stroke: var(--grid-color); stroke-width: 0.8"/>
     </g>
     <g id="line2d_6">
      <g>
       <use xlink:href="#mf94f6748e9" x="176.688307" y="103.4" style="fill: var(--fg-color); stroke: var(--fg-color); stroke-width: 0.8"/>
      </g>
     </g>
     <g id="text_3">
      <text style="font-size: 7px; font-family: 'DejaVu Sans', 'Bitstream Vera Sans', 'Computer Modern Sans Serif', 'Lucida Grande', 'Verdana', 'Geneva', 'Lucid', 'Arial', 'Helvetica', 'Avant Garde', sans-serif; text-anchor: middle; fill: var(--fg-color)" x="176.688307" y="115.718359" transform="rotate(-0 176.688307 115.718359)">06/2026</text>
     </g>
    </g>
   </g>
   <g id="matplotlib.axis_2">
    <g id="ytick_1">
     <g id="line2d_7">
      <path d="M 35.96 90.320624 
L 211 90.320624 
" clip-path="url(#p81c26aa1e3)" style="fill: none; stroke-dasharray: 2.96,1.28; stroke-dashoffset: 0; stroke: var(--grid-color); stroke-width: 0.8"/>
     </g>
     <g id="line2d_8">
      <defs>
       <path id="m4c7d4db1a7" d="M 0 0 
L -3.5 0 
" style="stroke: var(--fg-color); stroke-width: 0.8"/>
      </defs>
      <g>
       <use xlink:href="#m4c7d4db1a7" x="35.96" y="90.320624" style="fill: var(--fg-color); stroke: var(--fg-color); stroke-width: 0.8"/>
      </g>
     </g>
     <g id="text_4">
      <text style="font-size: 7px; font-family: 'DejaVu Sans', 'Bitstream Vera Sans', 'Computer Modern Sans Serif', 'Lucida Grande', 'Verdana', 'Geneva', 'Lucid', 'Arial', 'Helvetica', 'Avant Garde', sans-serif; text-anchor: end; fill: var(--fg-color)" x="28.96" y="92.979804" transform="rotate(-0 28.96 92.979804)">150</text>
     </g>
    </g>
    <g id="ytick_2">
     <g id="line2d_9">
      <path d="M 35.96 72.6173 
L 211 72.6173 
" clip-path="url(#p81c26aa1e3)" style="fill: none; stroke-dasharray: 2.96,1.28; stroke-dashoffset: 0; stroke: var(--grid-color); stroke-width: 0.8"/>
     </g>
     <g id="line2d_10">
      <g>
       <use xlink:href="#m4c7d4db1a7" x="35.96" y="72.6173" style="fill: var(--fg-color); stroke: var(--fg-color); stroke-width: 0.8"/>
      </g>
     </g>
     <g id="text_5">
      <text style="font-size: 7px; font-family: 'DejaVu Sans', 'Bitstream Vera Sans', 'Computer Modern Sans Serif', 'Lucida Grande', 'Verdana', 'Geneva', 'Lucid', 'Arial', 'Helvetica', 'Avant Garde', sans-serif; text-anchor: end; fill: var(--fg-color)" x="28.96" y="75.276479" transform="rotate(-0 28.96 75.276479)">200</text>
     </g>
    </g>
    <g id="ytick_3">
     <g id="line2d_11">
      <path d="M 35.96 54.913975 
L 211 54.913975 
" clip-path="url(#p81c26aa1e3)" style="fill: none; stroke-dasharray: 2.96,1.28; stroke-dashoffset: 0; stroke: var(--grid-color); stroke-width: 0.8"/>
     </g>
     <g id="line2d_12">
      <g>
       <use xlink:href="#m4c7d4db1a7" x="35.96" y="54.913975" style="fill: var(--fg-color); stroke: var(--fg-color); stroke-width: 0.8"/>
      </g>
     </g>
     <g id="text_6">
      <text style="font-size: 7px; font-family: 'DejaVu Sans', 'Bitstream Vera Sans', 'Computer Modern Sans Serif', 'Lucida Grande', 'Verdana', 'Geneva', 'Lucid', 'Arial', 'Helvetica', 'Avant Garde', sans-serif; text-anchor: end; fill: var(--fg-color)" x="28.96" y="57.573155" transform="rotate(-0 28.96 57.573155)">250</text>
     </g>
    </g>
    <g id="ytick_4">
     <g id="line2d_13">
      <path d="M 35.96 37.21065 
L 211 37.21065 
" clip-path="url(#p81c26aa1e3)" style="fill: none; stroke-dasharray: 2.96,1.28; stroke-dashoffset: 0; stroke: var(--grid-color); stroke-width: 0.8"/>
     </g>
     <g id="line2d_14">
      <g>
       <use xlink:href="#m4c7d4db1a7" x="35.96" y="37.21065" style="fill: var(--fg-color); stroke: var(--fg-color); stroke-width: 0.8"/>
      </g>
     </g>
     <g id="text_7">
      <text style="font-size: 7px; font-family: 'DejaVu Sans', 'Bitstream Vera Sans', 'Computer Modern Sans Serif', 'Lucida Grande', 'Verdana', 'Geneva', 'Lucid', 'Arial', 'Helvetica', 'Avant Garde', sans-serif; text-anchor: end; fill: var(--fg-color)" x="28.96" y="39.86983" transform="rotate(-0 28.96 39.86983)">300</text>
     </g>
    </g>
    <g id="ytick_5">
     <g id="line2d_15">
      <path d="M 35.96 19.507326 
L 211 19.507326 
" clip-path="url(#p81c26aa1e3)" style="fill: none; stroke-dasharray: 2.96,1.28; stroke-dashoffset: 0; stroke: var(--grid-color); stroke-width: 0.8"/>
     </g>
     <g id="line2d_16">
      <g>
       <use xlink:href="#m4c7d4db1a7" x="35.96" y="19.507326" style="fill: var(--fg-color); stroke: var(--fg-color); stroke-width: 0.8"/>
      </g>
     </g>
     <g id="text_8">
      <text style="font-size: 7px; font-family: 'DejaVu Sans', 'Bitstream Vera Sans', 'Computer Modern Sans Serif', 'Lucida Grande', 'Verdana', 'Geneva', 'Lucid', 'Arial', 'Helvetica', 'Avant Garde', sans-serif; text-anchor: end; fill: var(--fg-color)" x="28.96" y="22.166505" transform="rotate(-0 28.96 22.166505)">350</text>
     </g>
    </g>
    <g id="text_9">
     <text style="font-size: 7px; font-family: 'DejaVu Sans', 'Bitstream Vera Sans', 'Computer Modern Sans Serif', 'Lucida Grande', 'Verdana', 'Geneva', 'Lucid', 'Arial', 'Helvetica', 'Avant Garde', sans-serif; text-anchor: middle; fill: var(--fg-color)" x="9.917109" y="54.2" transform="rotate(-90 9.917109 54.2)">ms</text>
    </g>
   </g>
   <g id="line2d_17">
    <path d="M 43.916364 97.64803 
L 44.468628 96.963266 
L 45.3595 93.51572 
L 46.250371 97.797447 
L 47.141245 96.778089 
L 48.032112 94.768762 
L 48.922979 94.351317 
L 49.81384 94.254303 
L 50.704717 95.640473 
L 51.595589 97.491533 
L 52.486458 97.230232 
L 53.377327 96.117047 
L 54.268192 95.554435 
L 55.159063 96.198128 
L 56.049934 97.446567 
L 56.940797 97.043639 
L 57.831669 94.917116 
L 58.722538 97.803112 
L 59.613407 94.961728 
L 60.504275 95.208158 
L 61.395144 90.205553 
L 62.286016 91.710335 
L 63.176879 93.890677 
L 64.067746 94.05461 
L 64.958622 94.71636 
L 65.84949 93.040563 
L 66.740361 95.815736 
L 67.631226 95.80476 
L 68.522078 97.299275 
L 69.412965 92.412449 
L 70.30383 95.46167 
L 71.194705 95.995956 
L 72.085571 93.469338 
L 72.976442 95.948865 
L 73.867306 98.093092 
L 74.758184 93.764629 
L 75.649039 95.530713 
L 76.539914 95.880885 
L 77.430784 95.151154 
L 78.321655 95.071135 
L 79.212509 94.258198 
L 80.103391 87.286983 
L 80.994245 94.276963 
L 81.885129 92.407846 
L 82.775998 96.362061 
L 83.666869 96.813142 
L 84.557735 94.111968 
L 85.44861 95.171689 
L 94.53997 96.984864 
L 95.248438 94.708216 
L 96.139324 96.157765 
L 97.030192 95.794846 
L 97.921065 95.283929 
L 98.811931 93.467567 
L 99.702798 96.883247 
L 100.593666 96.13475 
L 101.484533 98.189044 
L 102.375401 95.479727 
L 103.266272 96.66762 
L 104.157138 95.324292 
L 105.048009 97.125428 
L 105.93888 96.692405 
L 106.829748 95.125661 
L 107.720614 96.700903 
L 108.611487 97.642365 
L 109.502352 94.000437 
L 110.393224 96.409152 
L 111.284094 96.988051 
L 112.17496 95.234359 
L 113.065834 97.559514 
L 113.956695 94.379643 
L 114.847564 94.529767 
L 115.738441 97.959609 
L 116.629309 96.60318 
L 117.520178 98.057331 
L 118.41104 98.927273 
L 119.301913 97.767705 
L 120.192782 95.519029 
L 121.083649 97.721322 
L 121.97452 95.413517 
L 125.537994 92.416698 
L 126.428869 92.697473 
L 127.319734 91.626422 
L 129.101474 95.168149 
L 129.992342 91.694402 
L 130.883214 89.921591 
L 131.774065 90.794011 
L 132.664946 93.153864 
L 133.55582 91.9989 
L 134.446686 92.827061 
L 135.337558 95.819277 
L 136.228424 91.651206 
L 137.119294 92.198593 
L 138.010159 92.902477 
L 138.901032 91.787168 
L 139.791912 90.173687 
L 140.68277 86.257357 
L 141.57364 88.495412 
L 142.464507 92.493176 
L 143.355376 93.481022 
L 144.246246 91.229513 
L 146.027984 90.825877 
L 146.918849 92.213818 
L 173.644977 92.213818 
L 181.959197 93.190687 
L 182.553652 92.71199 
L 183.444521 91.844173 
L 184.335387 86.957701 
L 185.226256 93.761089 
L 186.117131 92.787052 
L 187.007996 91.292183 
L 187.898864 90.205553 
L 188.789731 91.795311 
L 189.680603 94.448332 
L 190.571474 83.227256 
L 191.462343 91.139934 
L 192.353215 89.846529 
L 193.244077 95.896464 
L 194.134949 93.175817 
L 195.025817 94.237308 
L 195.916688 91.756718 
L 196.807557 92.218067 
L 197.698426 88.42389 
L 198.589295 93.324879 
L 199.480162 90.71293 
L 200.371032 90.19918 
L 201.261898 92.693224 
L 202.152766 90.248749 
L 203.043636 90.505447 
L 203.043636 90.505447 
" clip-path="url(#p81c26aa1e3)" style="fill: none; stroke: #339af0; stroke-width: 1.2; stroke-linecap: square"/>
   </g>
   <g id="line2d_18">
    <path d="M 43.916364 11.974207 
L 44.468628 16.331703 
L 45.3595 20.115612 
L 46.250371 17.537654 
L 47.141245 13.383038 
L 48.032112 18.406533 
L 48.922979 18.351653 
L 49.81384 18.162935 
L 50.704717 16.432966 
L 51.595589 18.9217 
L 52.486458 16.853951 
L 53.377327 16.923703 
L 54.268192 16.865282 
L 55.159063 15.371121 
L 56.049934 16.171311 
L 56.940797 13.890061 
L 57.831669 15.768738 
L 58.722538 15.577188 
L 59.613407 18.222064 
L 60.504275 17.876141 
L 61.395144 15.947895 
L 62.286016 18.716341 
L 63.176879 17.592888 
L 64.067746 19.70277 
L 64.958622 15.001476 
L 65.84949 18.683767 
L 66.740361 13.637257 
L 67.631226 13.434731 
L 68.522078 15.43981 
L 69.412965 19.127058 
L 70.30383 16.41066 
L 71.194705 17.729912 
L 72.085571 9.472727 
L 72.976442 18.769097 
L 73.867306 15.747848 
L 74.758184 19.088111 
L 75.649039 15.414317 
L 76.539914 12.694378 
L 77.430784 18.624638 
L 78.321655 17.3022 
L 79.212509 15.723771 
L 80.103391 15.47026 
L 80.994245 18.01883 
L 81.885129 18.370772 
L 82.775998 16.083503 
L 83.666869 17.715041 
L 84.557735 15.453264 
L 85.44861 19.657096 
L 94.53997 14.658031 
L 95.248438 16.435091 
L 96.139324 13.160684 
L 97.030192 18.376083 
L 97.921065 20.170138 
L 98.811931 18.246141 
L 99.702798 15.041485 
L 100.593666 17.603864 
L 101.484533 15.164346 
L 102.375401 14.598194 
L 103.266272 16.089522 
L 104.157138 15.131772 
L 105.048009 12.632771 
L 105.93888 17.752572 
L 106.829748 19.257001 
L 107.720614 17.138621 
L 109.502352 17.703711 
L 110.393224 15.794939 
L 111.284094 15.121504 
L 112.17496 16.229024 
L 113.065834 14.705122 
L 113.956695 17.597137 
L 114.847564 13.305497 
L 115.738441 16.289215 
L 116.629309 17.884639 
L 117.520178 13.062607 
L 118.41104 16.789511 
L 119.301913 16.628057 
L 120.192782 18.266323 
L 121.083649 13.172368 
L 121.97452 17.409836 
L 125.537994 15.264193 
L 126.428869 19.554417 
L 127.319734 15.243657 
L 128.210603 17.105693 
L 129.101474 13.56786 
L 129.992342 18.043615 
L 130.883214 16.107225 
L 131.774065 17.581558 
L 132.664946 14.233859 
L 133.55582 17.386113 
L 134.446686 15.145935 
L 135.337558 15.971264 
L 136.228424 14.117017 
L 137.119294 15.572939 
L 138.010159 15.499647 
L 138.901032 16.62487 
L 139.791912 17.416563 
L 140.68277 11.215088 
L 141.57364 14.375132 
L 142.464507 12.789976 
L 143.355376 14.529505 
L 144.246246 15.084327 
L 145.137113 12.579661 
L 146.027984 12.375364 
L 146.918849 16.150067 
L 173.644977 16.150067 
L 181.959197 15.838843 
L 182.553652 16.311876 
L 183.444521 17.938457 
L 184.335387 17.256879 
L 185.226256 20.679994 
L 186.117131 16.590526 
L 187.007996 20.221478 
L 187.898864 17.837548 
L 188.789731 19.670196 
L 189.680603 16.825272 
L 190.571474 17.930668 
L 191.462343 14.502242 
L 192.353215 14.15986 
L 193.244077 19.021547 
L 194.134949 13.940692 
L 195.025817 19.711976 
L 195.916688 15.511685 
L 196.807557 16.769684 
L 197.698426 18.636322 
L 198.589295 17.02886 
L 199.480162 16.310459 
L 200.371032 18.965604 
L 201.261898 18.698284 
L 203.043636 17.045855 
L 203.043636 17.045855 
" clip-path="url(#p81c26aa1e3)" style="fill: none; stroke: #ff6b6b; stroke-width: 1.2; stroke-linecap: square"/>
   </g>
   <g id="patch_3">
    <path d="M 35.96 103.4 
L 35.96 5 
" style="fill: none; stroke: var(--fg-color); stroke-width: 0.8; stroke-linejoin: miter; stroke-linecap: square"/>
   </g>
   <g id="patch_4">
    <path d="M 35.96 103.4 
L 211 103.4 
" style="fill: none; stroke: var(--fg-color); stroke-width: 0.8; stroke-linejoin: miter; stroke-linecap: square"/>
   </g>
  </g>
 </g>
 <defs>
  <clipPath id="p81c26aa1e3">
   <rect x="35.96" y="5" width="175.04" height="98.4"/>
  </clipPath>
 </defs>
</svg>
