<?xml version="1.0" encoding="utf-8" standalone="no"?>
<!DOCTYPE svg PUBLIC "-//W3C//DTD SVG 1.1//EN"
  "http://www.w3.org/Graphics/SVG/1.1/DTD/svg11.dtd">
<svg xmlns:xlink="http://www.w3.org/1999/xlink" width="216pt" height="122.4pt" viewBox="0 0 216 122.4" xmlns="http://www.w3.org/2000/svg" version="1.1">
  <style>
    :root {
      --fg-color: #212529;
      --grid-color: rgba(33, 37, 41, 0.1);
    }
    @media (prefers-color-scheme: dark) {
      :root {
        --fg-color: #dee2e6;
        --grid-color: rgba(248, 249, 250, 0.15);
      }
    }
  </style>

 <metadata>
  <rdf:RDF xmlns:dc="http://purl.org/dc/elements/1.1/" xmlns:cc="http://creativecommons.org/ns#" xmlns:rdf="http://www.w3.org/1999/02/22-rdf-syntax-ns#">
   <cc:Work>
    <dc:type rdf:resource="http://purl.org/dc/dcmitype/StillImage"/>
    <dc:date>2026-06-30T04:48:45.454391</dc:date>
    <dc:format>image/svg+xml</dc:format>
    <dc:creator>
     <cc:Agent>
      <dc:title>Matplotlib v3.11.0, https://matplotlib.org/</dc:title>
     </cc:Agent>
    </dc:creator>
   </cc:Work>
  </rdf:RDF>
 </metadata>
 <defs>
  <style type="text/css">*{stroke-linejoin: round; stroke-linecap: butt}</style>
 </defs>
 <g id="figure_1">
  <g id="patch_1">
   <path d="M 0 122.4 
L 216 122.4 
L 216 0 
L 0 0 
L 0 122.4 
z
" style="fill: none; opacity: 0"/>
  </g>
  <g id="axes_1">
   <g id="patch_2">
    <path d="M 35.96 103.4 
L 211 103.4 
L 211 5 
L 35.96 5 
L 35.96 103.4 
z
" style="fill: none; opacity: 0"/>
   </g>
   <g id="matplotlib.axis_1">
    <g id="xtick_1">
     <g id="line2d_1">
      <path d="M 72.056377 103.4 
L 72.056377 5 
" clip-path="url(#p4706e8b3c0)" style="fill: none; stroke-dasharray: 2.96,1.28; stroke-dashoffset: 0; stroke: var(--grid-color); stroke-width: 0.8"/>
     </g>
     <g id="line2d_2">
      <defs>
       <path id="m34bfbcf055" d="M 0 0 
L 0 3.5 
" style="stroke: var(--fg-color); stroke-width: 0.8"/>
      </defs>
      <g>
       <use xlink:href="#m34bfbcf055" x="72.056377" y="103.4" style="fill: var(--fg-color); stroke: var(--fg-color); stroke-width: 0.8"/>
      </g>
     </g>
     <g id="text_1">
      <text style="font-size: 7px; font-family: 'DejaVu Sans', 'Bitstream Vera Sans', 'Computer Modern Sans Serif', 'Lucida Grande', 'Verdana', 'Geneva', 'Lucid', 'Arial', 'Helvetica', 'Avant Garde', sans-serif; text-anchor: middle; fill: var(--fg-color)" x="72.056377" y="115.718359" transform="rotate(-0 72.056377 115.718359)">02/2026</text>
     </g>
    </g>
    <g id="xtick_2">
     <g id="line2d_3">
      <path d="M 126.640628 103.4 
L 126.640628 5 
" clip-path="url(#p4706e8b3c0)" style="fill: none; stroke-dasharray: 2.96,1.28; stroke-dashoffset: 0; stroke: var(--grid-color); stroke-width: 0.8"/>
     </g>
     <g id="line2d_4">
      <g>
       <use xlink:href="#m34bfbcf055" x="126.640628" y="103.4" style="fill: var(--fg-color); stroke: var(--fg-color); stroke-width: 0.8"/>
      </g>
     </g>
     <g id="text_2">
      <text style="font-size: 7px; font-family: 'DejaVu Sans', 'Bitstream Vera Sans', 'Computer Modern Sans Serif', 'Lucida Grande', 'Verdana', 'Geneva', 'Lucid', 'Arial', 'Helvetica', 'Avant Garde', sans-serif; text-anchor: middle; fill: var(--fg-color)" x="126.640628" y="115.718359" transform="rotate(-0 126.640628 115.718359)">04/2026</text>
     </g>
    </g>
    <g id="xtick_3">
     <g id="line2d_5">
      <path d="M 183.075192 103.4 
L 183.075192 5 
" clip-path="url(#p4706e8b3c0)" style="fill: none; stroke-dasharray: 2.96,1.28; stroke-dashoffset: 0; stroke: var(--grid-color); stroke-width: 0.8"/>
     </g>
     <g id="line2d_6">
      <g>
       <use xlink:href="#m34bfbcf055" x="183.075192" y="103.4" style="fill: var(--fg-color); stroke: var(--fg-color); stroke-width: 0.8"/>
      </g>
     </g>
     <g id="text_3">
      <text style="font-size: 7px; font-family: 'DejaVu Sans', 'Bitstream Vera Sans', 'Computer Modern Sans Serif', 'Lucida Grande', 'Verdana', 'Geneva', 'Lucid', 'Arial', 'Helvetica', 'Avant Garde', sans-serif; text-anchor: middle; fill: var(--fg-color)" x="183.075192" y="115.718359" transform="rotate(-0 183.075192 115.718359)">06/2026</text>
     </g>
    </g>
   </g>
   <g id="matplotlib.axis_2">
    <g id="ytick_1">
     <g id="line2d_7">
      <path d="M 35.96 100.516895 
L 211 100.516895 
" clip-path="url(#p4706e8b3c0)" style="fill: none; stroke-dasharray: 2.96,1.28; stroke-dashoffset: 0; stroke: var(--grid-color); stroke-width: 0.8"/>
     </g>
     <g id="line2d_8">
      <defs>
       <path id="mb4a7459202" d="M 0 0 
L -3.5 0 
" style="stroke: var(--fg-color); stroke-width: 0.8"/>
      </defs>
      <g>
       <use xlink:href="#mb4a7459202" x="35.96" y="100.516895" style="fill: var(--fg-color); stroke: var(--fg-color); stroke-width: 0.8"/>
      </g>
     </g>
     <g id="text_4">
      <text style="font-size: 7px; font-family: 'DejaVu Sans', 'Bitstream Vera Sans', 'Computer Modern Sans Serif', 'Lucida Grande', 'Verdana', 'Geneva', 'Lucid', 'Arial', 'Helvetica', 'Avant Garde', sans-serif; text-anchor: end; fill: var(--fg-color)" x="28.96" y="103.176075" transform="rotate(-0 28.96 103.176075)">0</text>
     </g>
    </g>
    <g id="ytick_2">
     <g id="line2d_9">
      <path d="M 35.96 73.320616 
L 211 73.320616 
" clip-path="url(#p4706e8b3c0)" style="fill: none; stroke-dasharray: 2.96,1.28; stroke-dashoffset: 0; stroke: var(--grid-color); stroke-width: 0.8"/>
     </g>
     <g id="line2d_10">
      <g>
       <use xlink:href="#mb4a7459202" x="35.96" y="73.320616" style="fill: var(--fg-color); stroke: var(--fg-color); stroke-width: 0.8"/>
      </g>
     </g>
     <g id="text_5">
      <text style="font-size: 7px; font-family: 'DejaVu Sans', 'Bitstream Vera Sans', 'Computer Modern Sans Serif', 'Lucida Grande', 'Verdana', 'Geneva', 'Lucid', 'Arial', 'Helvetica', 'Avant Garde', sans-serif; text-anchor: end; fill: var(--fg-color)" x="28.96" y="75.979796" transform="rotate(-0 28.96 75.979796)">100</text>
     </g>
    </g>
    <g id="ytick_3">
     <g id="line2d_11">
      <path d="M 35.96 46.124337 
L 211 46.124337 
" clip-path="url(#p4706e8b3c0)" style="fill: none; stroke-dasharray: 2.96,1.28; stroke-dashoffset: 0; stroke: var(--grid-color); stroke-width: 0.8"/>
     </g>
     <g id="line2d_12">
      <g>
       <use xlink:href="#mb4a7459202" x="35.96" y="46.124337" style="fill: var(--fg-color); stroke: var(--fg-color); stroke-width: 0.8"/>
      </g>
     </g>
     <g id="text_6">
      <text style="font-size: 7px; font-family: 'DejaVu Sans', 'Bitstream Vera Sans', 'Computer Modern Sans Serif', 'Lucida Grande', 'Verdana', 'Geneva', 'Lucid', 'Arial', 'Helvetica', 'Avant Garde', sans-serif; text-anchor: end; fill: var(--fg-color)" x="28.96" y="48.783517" transform="rotate(-0 28.96 48.783517)">200</text>
     </g>
    </g>
    <g id="ytick_4">
     <g id="line2d_13">
      <path d="M 35.96 18.928058 
L 211 18.928058 
" clip-path="url(#p4706e8b3c0)" style="fill: none; stroke-dasharray: 2.96,1.28; stroke-dashoffset: 0; stroke: var(--grid-color); stroke-width: 0.8"/>
     </g>
     <g id="line2d_14">
      <g>
       <use xlink:href="#mb4a7459202" x="35.96" y="18.928058" style="fill: var(--fg-color); stroke: var(--fg-color); stroke-width: 0.8"/>
      </g>
     </g>
     <g id="text_7">
      <text style="font-size: 7px; font-family: 'DejaVu Sans', 'Bitstream Vera Sans', 'Computer Modern Sans Serif', 'Lucida Grande', 'Verdana', 'Geneva', 'Lucid', 'Arial', 'Helvetica', 'Avant Garde', sans-serif; text-anchor: end; fill: var(--fg-color)" x="28.96" y="21.587237" transform="rotate(-0 28.96 21.587237)">300</text>
     </g>
    </g>
    <g id="text_8">
     <text style="font-size: 7px; font-family: 'DejaVu Sans', 'Bitstream Vera Sans', 'Computer Modern Sans Serif', 'Lucida Grande', 'Verdana', 'Geneva', 'Lucid', 'Arial', 'Helvetica', 'Avant Garde', sans-serif; text-anchor: middle; fill: var(--fg-color)" x="9.917109" y="54.2" transform="rotate(-90 9.917109 54.2)">ms</text>
    </g>
   </g>
   <g id="line2d_15">
    <path d="M 43.916364 27.583274 
L 45.193108 27.24604 
L 45.766628 28.974091 
L 46.691788 28.266172 
L 47.616947 26.698307 
L 48.542109 22.151905 
L 49.467263 27.960758 
L 50.392418 28.868026 
L 51.317566 26.685524 
L 52.242732 30.278969 
L 53.167891 27.194367 
L 54.093049 26.107875 
L 55.018206 24.359971 
L 55.943359 24.315097 
L 56.868517 25.015945 
L 57.793676 25.655601 
L 58.718827 26.246304 
L 59.643987 29.641488 
L 60.569143 28.399434 
L 61.494301 27.522626 
L 62.419457 27.264533 
L 63.344613 25.935179 
L 64.269773 24.004515 
L 65.194924 30.520472 
L 66.120079 31.459831 
L 67.045243 26.197351 
L 67.970398 29.108713 
L 68.895557 24.777433 
L 69.82071 29.595254 
L 70.74585 14.871189 
L 71.671025 31.27544 
L 72.596178 36.484344 
L 73.521341 29.618915 
L 74.446495 29.134549 
L 75.371653 37.642633 
L 76.296805 32.072835 
L 77.221971 33.782937 
L 78.147114 32.367915 
L 79.072277 34.869701 
L 79.997435 31.295022 
L 80.922594 31.944741 
L 81.847735 30.404616 
L 82.772905 11.563305 
L 83.698046 29.345592 
L 84.623219 34.580876 
L 85.548376 34.320608 
L 86.473535 31.311339 
L 87.398688 31.958611 
L 88.323852 28.760057 
L 97.76512 28.557716 
L 98.500856 22.492674 
L 99.426031 27.748355 
L 100.351186 25.950137 
L 101.276348 34.494936 
L 102.201502 31.710581 
L 103.126656 36.205038 
L 104.051812 33.357044 
L 104.976967 33.311354 
L 105.902123 32.311891 
L 106.827282 29.203628 
L 107.752435 37.072327 
L 108.677594 30.598253 
L 109.602753 33.035584 
L 110.527909 35.507181 
L 111.453063 33.516142 
L 112.378223 33.196314 
L 113.303377 36.782143 
L 114.228537 31.838947 
L 115.153695 28.412488 
L 116.078848 33.900425 
L 117.004011 33.00322 
L 117.929158 32.880293 
L 118.854316 31.506337 
L 119.779481 32.404086 
L 120.704637 28.555269 
L 121.629794 28.153851 
L 122.554943 28.817169 
L 123.480104 31.754911 
L 124.405261 34.517237 
L 125.330416 30.166104 
L 126.255574 32.940397 
L 129.9562 30.292023 
L 130.881363 33.33719 
L 131.806516 32.84385 
L 132.731673 33.262944 
L 133.656831 9.472727 
L 134.581987 26.179674 
L 135.507147 28.233809 
L 136.432285 31.240085 
L 137.357455 31.895788 
L 138.282617 26.372223 
L 139.20777 32.699981 
L 140.13293 23.72385 
L 141.058084 29.647199 
L 141.983242 30.094578 
L 142.908395 32.386136 
L 143.833556 31.392928 
L 144.758724 27.066272 
L 145.683869 21.0151 
L 146.609028 22.703717 
L 147.534182 25.198704 
L 148.459339 23.785585 
L 149.384497 29.325467 
L 150.309651 27.344762 
L 151.234811 31.901227 
L 152.159963 24.711074 
L 179.91473 24.711074 
L 188.548948 32.514775 
L 189.166282 35.967071 
L 190.091439 26.926211 
L 191.016594 25.105964 
L 191.94175 28.11768 
L 192.866913 29.58084 
L 193.792066 33.69183 
L 194.717222 28.85334 
L 195.642377 34.213998 
L 196.567536 28.305879 
L 197.492695 22.353701 
L 198.417852 29.240887 
L 199.343013 26.838639 
L 200.268162 29.446763 
L 201.193322 28.498972 
L 202.118478 33.462293 
L 203.043636 27.470953 
" clip-path="url(#p4706e8b3c0)" style="fill: none; stroke: #339af0; stroke-width: 1.2; stroke-linecap: square"/>
   </g>
   <g id="line2d_16">
    <path d="M 43.916364 98.723029 
L 45.193108 98.777149 
L 45.766628 98.717589 
L 46.691788 98.815768 
L 47.616947 98.730372 
L 48.542109 98.628658 
L 49.467263 98.769262 
L 50.392418 98.693657 
L 51.317566 98.701816 
L 52.242732 98.853027 
L 53.167891 98.638448 
L 54.093049 98.655038 
L 55.018206 98.72602 
L 55.943359 98.443723 
L 56.868517 98.740706 
L 57.793676 98.723845 
L 58.718827 98.717589 
L 59.643987 98.811417 
L 60.569143 98.758928 
L 61.494301 98.874784 
L 62.419457 98.776333 
L 63.344613 98.58188 
L 64.269773 98.64144 
L 65.194924 98.790203 
L 66.120079 98.735811 
L 67.045243 98.761103 
L 67.970398 98.827462 
L 68.895557 97.984922 
L 69.82071 98.62349 
L 70.74585 98.799722 
L 71.671025 98.733907 
L 72.596178 98.927273 
L 73.521341 98.403744 
L 74.446495 98.528031 
L 75.371653 97.787205 
L 76.296805 98.808969 
L 77.221971 98.68441 
L 78.147114 98.613972 
L 79.072277 98.862002 
L 79.997435 98.71487 
L 80.922594 98.706711 
L 81.847735 98.5846 
L 82.772905 98.737171 
L 83.698046 98.511714 
L 84.623219 98.862818 
L 85.548376 98.73146 
L 86.473535 98.848404 
L 87.398688 98.714054 
L 88.323852 98.763007 
L 97.76512 98.54027 
L 98.500856 98.802714 
L 99.426031 98.45025 
L 100.351186 98.598198 
L 101.276348 98.535646 
L 102.201502 98.211739 
L 103.126656 98.65667 
L 104.051812 98.841876 
L 104.976967 98.506818 
L 105.902123 98.832902 
L 106.827282 98.707527 
L 107.752435 98.837525 
L 108.677594 98.472007 
L 109.602753 98.646879 
L 110.527909 98.788844 
L 111.453063 98.699096 
L 112.378223 98.606357 
L 113.303377 98.724932 
L 114.228537 98.689577 
L 115.153695 98.523952 
L 116.078848 98.74397 
L 117.004011 98.815768 
L 117.929158 98.813048 
L 118.854316 98.565562 
L 119.779481 98.744786 
L 120.704637 98.432572 
L 121.629794 98.575081 
L 122.554943 98.455689 
L 123.480104 98.744514 
L 124.405261 98.789388 
L 125.330416 98.66782 
L 126.255574 98.823655 
L 129.9562 98.739346 
L 130.881363 98.585959 
L 131.806516 98.796731 
L 132.731673 98.58324 
L 133.656831 98.56801 
L 134.581987 98.193245 
L 135.507147 98.550876 
L 136.432285 98.670812 
L 137.357455 98.865809 
L 138.282617 98.502467 
L 139.20777 98.757296 
L 140.13293 98.193517 
L 141.058084 98.646335 
L 141.983242 98.509266 
L 142.908395 98.575897 
L 143.833556 98.664557 
L 144.758724 98.656126 
L 145.683869 98.575353 
L 146.609028 98.599014 
L 147.534182 98.422238 
L 148.459339 98.251717 
L 149.384497 98.838069 
L 150.309651 98.421694 
L 151.234811 98.761103 
L 152.159963 98.246278 
L 179.91473 98.246278 
L 188.548948 98.764095 
L 189.166282 98.771166 
L 190.091439 98.649599 
L 191.016594 98.382531 
L 191.94175 98.585415 
L 192.866913 98.578344 
L 193.792066 98.736899 
L 194.717222 98.668636 
L 195.642377 98.77035 
L 196.567536 98.474183 
L 197.492695 98.614244 
L 198.417852 98.369205 
L 199.343013 98.609076 
L 200.268162 98.655854 
L 201.193322 98.546253 
L 202.118478 98.673531 
L 203.043636 98.402657 
" clip-path="url(#p4706e8b3c0)" style="fill: none; stroke: #ff6b6b; stroke-width: 1.2; stroke-linecap: square"/>
   </g>
   <g id="patch_3">
    <path d="M 35.96 103.4 
L 35.96 5 
" style="fill: none; stroke: var(--fg-color); stroke-width: 0.8; stroke-linejoin: miter; stroke-linecap: square"/>
   </g>
   <g id="patch_4">
    <path d="M 35.96 103.4 
L 211 103.4 
" style="fill: none; stroke: var(--fg-color); stroke-width: 0.8; stroke-linejoin: miter; stroke-linecap: square"/>
   </g>
  </g>
 </g>
 <defs>
  <clipPath id="p4706e8b3c0">
   <rect x="35.96" y="5" width="175.04" height="98.4"/>
  </clipPath>
 </defs>
</svg>
