<?xml version="1.0" encoding="utf-8" standalone="no"?>
<!DOCTYPE svg PUBLIC "-//W3C//DTD SVG 1.1//EN"
  "http://www.w3.org/Graphics/SVG/1.1/DTD/svg11.dtd">
<svg xmlns:xlink="http://www.w3.org/1999/xlink" width="216pt" height="122.4pt" viewBox="0 0 216 122.4" xmlns="http://www.w3.org/2000/svg" version="1.1">
  <style>
    :root {
      --fg-color: #212529;
      --grid-color: rgba(33, 37, 41, 0.1);
    }
    @media (prefers-color-scheme: dark) {
      :root {
        --fg-color: #dee2e6;
        --grid-color: rgba(248, 249, 250, 0.15);
      }
    }
  </style>

 <metadata>
  <rdf:RDF xmlns:dc="http://purl.org/dc/elements/1.1/" xmlns:cc="http://creativecommons.org/ns#" xmlns:rdf="http://www.w3.org/1999/02/22-rdf-syntax-ns#">
   <cc:Work>
    <dc:type rdf:resource="http://purl.org/dc/dcmitype/StillImage"/>
    <dc:date>2026-06-30T04:49:18.350828</dc:date>
    <dc:format>image/svg+xml</dc:format>
    <dc:creator>
     <cc:Agent>
      <dc:title>Matplotlib v3.11.0, https://matplotlib.org/</dc:title>
     </cc:Agent>
    </dc:creator>
   </cc:Work>
  </rdf:RDF>
 </metadata>
 <defs>
  <style type="text/css">*{stroke-linejoin: round; stroke-linecap: butt}</style>
 </defs>
 <g id="figure_1">
  <g id="patch_1">
   <path d="M 0 122.4 
L 216 122.4 
L 216 0 
L 0 0 
L 0 122.4 
z
" style="fill: none; opacity: 0"/>
  </g>
  <g id="axes_1">
   <g id="patch_2">
    <path d="M 35.96 103.4 
L 211 103.4 
L 211 5 
L 35.96 5 
L 35.96 103.4 
z
" style="fill: none; opacity: 0"/>
   </g>
   <g id="matplotlib.axis_1">
    <g id="xtick_1">
     <g id="line2d_1">
      <path d="M 70.996911 103.4 
L 70.996911 5 
" clip-path="url(#pbf7c6029a7)" style="fill: none; stroke-dasharray: 2.96,1.28; stroke-dashoffset: 0; stroke: var(--grid-color); stroke-width: 0.8"/>
     </g>
     <g id="line2d_2">
      <defs>
       <path id="mdfc4d78801" d="M 0 0 
L 0 3.5 
" style="stroke: var(--fg-color); stroke-width: 0.8"/>
      </defs>
      <g>
       <use xlink:href="#mdfc4d78801" x="70.996911" y="103.4" style="fill: var(--fg-color); stroke: var(--fg-color); stroke-width: 0.8"/>
      </g>
     </g>
     <g id="text_1">
      <text style="font-size: 7px; font-family: 'DejaVu Sans', 'Bitstream Vera Sans', 'Computer Modern Sans Serif', 'Lucida Grande', 'Verdana', 'Geneva', 'Lucid', 'Arial', 'Helvetica', 'Avant Garde', sans-serif; text-anchor: middle; fill: var(--fg-color)" x="70.996911" y="115.718359" transform="rotate(-0 70.996911 115.718359)">02/2026</text>
     </g>
    </g>
    <g id="xtick_2">
     <g id="line2d_3">
      <path d="M 126.022656 103.4 
L 126.022656 5 
" clip-path="url(#pbf7c6029a7)" style="fill: none; stroke-dasharray: 2.96,1.28; stroke-dashoffset: 0; stroke: var(--grid-color); stroke-width: 0.8"/>
     </g>
     <g id="line2d_4">
      <g>
       <use xlink:href="#mdfc4d78801" x="126.022656" y="103.4" style="fill: var(--fg-color); stroke: var(--fg-color); stroke-width: 0.8"/>
      </g>
     </g>
     <g id="text_2">
      <text style="font-size: 7px; font-family: 'DejaVu Sans', 'Bitstream Vera Sans', 'Computer Modern Sans Serif', 'Lucida Grande', 'Verdana', 'Geneva', 'Lucid', 'Arial', 'Helvetica', 'Avant Garde', sans-serif; text-anchor: middle; fill: var(--fg-color)" x="126.022656" y="115.718359" transform="rotate(-0 126.022656 115.718359)">04/2026</text>
     </g>
    </g>
    <g id="xtick_3">
     <g id="line2d_5">
      <path d="M 182.913681 103.4 
L 182.913681 5 
" clip-path="url(#pbf7c6029a7)" style="fill: none; stroke-dasharray: 2.96,1.28; stroke-dashoffset: 0; stroke: var(--grid-color); stroke-width: 0.8"/>
     </g>
     <g id="line2d_6">
      <g>
       <use xlink:href="#mdfc4d78801" x="182.913681" y="103.4" style="fill: var(--fg-color); stroke: var(--fg-color); stroke-width: 0.8"/>
      </g>
     </g>
     <g id="text_3">
      <text style="font-size: 7px; font-family: 'DejaVu Sans', 'Bitstream Vera Sans', 'Computer Modern Sans Serif', 'Lucida Grande', 'Verdana', 'Geneva', 'Lucid', 'Arial', 'Helvetica', 'Avant Garde', sans-serif; text-anchor: middle; fill: var(--fg-color)" x="182.913681" y="115.718359" transform="rotate(-0 182.913681 115.718359)">06/2026</text>
     </g>
    </g>
   </g>
   <g id="matplotlib.axis_2">
    <g id="ytick_1">
     <g id="line2d_7">
      <path d="M 35.96 99.63921 
L 211 99.63921 
" clip-path="url(#pbf7c6029a7)" style="fill: none; stroke-dasharray: 2.96,1.28; stroke-dashoffset: 0; stroke: var(--grid-color); stroke-width: 0.8"/>
     </g>
     <g id="line2d_8">
      <defs>
       <path id="m32183bc23e" d="M 0 0 
L -3.5 0 
" style="stroke: var(--fg-color); stroke-width: 0.8"/>
      </defs>
      <g>
       <use xlink:href="#m32183bc23e" x="35.96" y="99.63921" style="fill: var(--fg-color); stroke: var(--fg-color); stroke-width: 0.8"/>
      </g>
     </g>
     <g id="text_4">
      <text style="font-size: 7px; font-family: 'DejaVu Sans', 'Bitstream Vera Sans', 'Computer Modern Sans Serif', 'Lucida Grande', 'Verdana', 'Geneva', 'Lucid', 'Arial', 'Helvetica', 'Avant Garde', sans-serif; text-anchor: end; fill: var(--fg-color)" x="28.96" y="102.29839" transform="rotate(-0 28.96 102.29839)">0</text>
     </g>
    </g>
    <g id="ytick_2">
     <g id="line2d_9">
      <path d="M 35.96 85.314519 
L 211 85.314519 
" clip-path="url(#pbf7c6029a7)" style="fill: none; stroke-dasharray: 2.96,1.28; stroke-dashoffset: 0; stroke: var(--grid-color); stroke-width: 0.8"/>
     </g>
     <g id="line2d_10">
      <g>
       <use xlink:href="#m32183bc23e" x="35.96" y="85.314519" style="fill: var(--fg-color); stroke: var(--fg-color); stroke-width: 0.8"/>
      </g>
     </g>
     <g id="text_5">
      <text style="font-size: 7px; font-family: 'DejaVu Sans', 'Bitstream Vera Sans', 'Computer Modern Sans Serif', 'Lucida Grande', 'Verdana', 'Geneva', 'Lucid', 'Arial', 'Helvetica', 'Avant Garde', sans-serif; text-anchor: end; fill: var(--fg-color)" x="28.96" y="87.973698" transform="rotate(-0 28.96 87.973698)">50</text>
     </g>
    </g>
    <g id="ytick_3">
     <g id="line2d_11">
      <path d="M 35.96 70.989827 
L 211 70.989827 
" clip-path="url(#pbf7c6029a7)" style="fill: none; stroke-dasharray: 2.96,1.28; stroke-dashoffset: 0; stroke: var(--grid-color); stroke-width: 0.8"/>
     </g>
     <g id="line2d_12">
      <g>
       <use xlink:href="#m32183bc23e" x="35.96" y="70.989827" style="fill: var(--fg-color); stroke: var(--fg-color); stroke-width: 0.8"/>
      </g>
     </g>
     <g id="text_6">
      <text style="font-size: 7px; font-family: 'DejaVu Sans', 'Bitstream Vera Sans', 'Computer Modern Sans Serif', 'Lucida Grande', 'Verdana', 'Geneva', 'Lucid', 'Arial', 'Helvetica', 'Avant Garde', sans-serif; text-anchor: end; fill: var(--fg-color)" x="28.96" y="73.649007" transform="rotate(-0 28.96 73.649007)">100</text>
     </g>
    </g>
    <g id="ytick_4">
     <g id="line2d_13">
      <path d="M 35.96 56.665136 
L 211 56.665136 
" clip-path="url(#pbf7c6029a7)" style="fill: none; stroke-dasharray: 2.96,1.28; stroke-dashoffset: 0; stroke: var(--grid-color); stroke-width: 0.8"/>
     </g>
     <g id="line2d_14">
      <g>
       <use xlink:href="#m32183bc23e" x="35.96" y="56.665136" style="fill: var(--fg-color); stroke: var(--fg-color); stroke-width: 0.8"/>
      </g>
     </g>
     <g id="text_7">
      <text style="font-size: 7px; font-family: 'DejaVu Sans', 'Bitstream Vera Sans', 'Computer Modern Sans Serif', 'Lucida Grande', 'Verdana', 'Geneva', 'Lucid', 'Arial', 'Helvetica', 'Avant Garde', sans-serif; text-anchor: end; fill: var(--fg-color)" x="28.96" y="59.324316" transform="rotate(-0 28.96 59.324316)">150</text>
     </g>
    </g>
    <g id="ytick_5">
     <g id="line2d_15">
      <path d="M 35.96 42.340445 
L 211 42.340445 
" clip-path="url(#pbf7c6029a7)" style="fill: none; stroke-dasharray: 2.96,1.28; stroke-dashoffset: 0; stroke: var(--grid-color); stroke-width: 0.8"/>
     </g>
     <g id="line2d_16">
      <g>
       <use xlink:href="#m32183bc23e" x="35.96" y="42.340445" style="fill: var(--fg-color); stroke: var(--fg-color); stroke-width: 0.8"/>
      </g>
     </g>
     <g id="text_8">
      <text style="font-size: 7px; font-family: 'DejaVu Sans', 'Bitstream Vera Sans', 'Computer Modern Sans Serif', 'Lucida Grande', 'Verdana', 'Geneva', 'Lucid', 'Arial', 'Helvetica', 'Avant Garde', sans-serif; text-anchor: end; fill: var(--fg-color)" x="28.96" y="44.999625" transform="rotate(-0 28.96 44.999625)">200</text>
     </g>
    </g>
    <g id="ytick_6">
     <g id="line2d_17">
      <path d="M 35.96 28.015754 
L 211 28.015754 
" clip-path="url(#pbf7c6029a7)" style="fill: none; stroke-dasharray: 2.96,1.28; stroke-dashoffset: 0; stroke: var(--grid-color); stroke-width: 0.8"/>
     </g>
     <g id="line2d_18">
      <g>
       <use xlink:href="#m32183bc23e" x="35.96" y="28.015754" style="fill: var(--fg-color); stroke: var(--fg-color); stroke-width: 0.8"/>
      </g>
     </g>
     <g id="text_9">
      <text style="font-size: 7px; font-family: 'DejaVu Sans', 'Bitstream Vera Sans', 'Computer Modern Sans Serif', 'Lucida Grande', 'Verdana', 'Geneva', 'Lucid', 'Arial', 'Helvetica', 'Avant Garde', sans-serif; text-anchor: end; fill: var(--fg-color)" x="28.96" y="30.674933" transform="rotate(-0 28.96 30.674933)">250</text>
     </g>
    </g>
    <g id="ytick_7">
     <g id="line2d_19">
      <path d="M 35.96 13.691062 
L 211 13.691062 
" clip-path="url(#pbf7c6029a7)" style="fill: none; stroke-dasharray: 2.96,1.28; stroke-dashoffset: 0; stroke: var(--grid-color); stroke-width: 0.8"/>
     </g>
     <g id="line2d_20">
      <g>
       <use xlink:href="#m32183bc23e" x="35.96" y="13.691062" style="fill: var(--fg-color); stroke: var(--fg-color); stroke-width: 0.8"/>
      </g>
     </g>
     <g id="text_10">
      <text style="font-size: 7px; font-family: 'DejaVu Sans', 'Bitstream Vera Sans', 'Computer Modern Sans Serif', 'Lucida Grande', 'Verdana', 'Geneva', 'Lucid', 'Arial', 'Helvetica', 'Avant Garde', sans-serif; text-anchor: end; fill: var(--fg-color)" x="28.96" y="16.350242" transform="rotate(-0 28.96 16.350242)">300</text>
     </g>
    </g>
    <g id="text_11">
     <text style="font-size: 7px; font-family: 'DejaVu Sans', 'Bitstream Vera Sans', 'Computer Modern Sans Serif', 'Lucida Grande', 'Verdana', 'Geneva', 'Lucid', 'Arial', 'Helvetica', 'Avant Garde', sans-serif; text-anchor: middle; fill: var(--fg-color)" x="9.917109" y="54.2" transform="rotate(-90 9.917109 54.2)">ms</text>
    </g>
   </g>
   <g id="line2d_21">
    <path d="M 43.916364 27.146818 
L 44.494523 19.210079 
L 45.427166 32.40398 
L 46.359808 27.898864 
L 47.292453 28.087664 
L 48.22509 27.445917 
L 49.157727 23.897118 
L 50.090359 29.983107 
L 51.023007 33.466012 
L 51.95565 29.203271 
L 52.88829 25.204103 
L 53.82093 22.108824 
L 54.753566 17.532372 
L 55.686208 20.001662 
L 56.618849 28.140378 
L 57.551483 16.104486 
L 58.484126 24.527978 
L 59.416765 27.839273 
L 60.349406 18.143463 
L 61.282045 28.224035 
L 62.214684 24.030625 
L 63.147327 24.217418 
L 64.07996 31.172056 
L 65.012598 25.213271 
L 65.945245 24.443749 
L 66.877884 30.193966 
L 67.810526 19.585959 
L 68.743162 22.029179 
L 69.675784 21.897678 
L 70.608443 9.472727 
L 71.541078 19.693108 
L 72.473724 22.557187 
L 73.406361 27.196381 
L 74.339003 21.459056 
L 75.271637 19.035318 
L 76.204286 20.828483 
L 77.136912 27.158278 
L 78.069558 24.389315 
L 79.002199 19.148197 
L 79.934841 22.613053 
L 80.867465 13.66671 
L 81.800118 25.150242 
L 82.732742 23.161689 
L 83.665398 22.251498 
L 84.598038 26.894417 
L 85.53068 19.301757 
L 86.463316 20.322535 
L 87.395962 30.251265 
L 96.913595 23.180024 
L 97.655282 22.267542 
L 98.587939 24.383871 
L 99.520578 22.8454 
L 100.453222 15.118661 
L 101.385859 19.514909 
L 102.318497 10.572004 
L 103.251135 23.709178 
L 104.183773 22.735386 
L 105.116412 24.050393 
L 106.049054 21.580243 
L 106.981691 26.205686 
L 107.914333 19.734936 
L 108.846974 24.499901 
L 109.779613 30.878113 
L 110.71225 24.221429 
L 111.644893 21.187173 
L 112.57753 30.974375 
L 113.510173 20.553162 
L 114.442814 23.40263 
L 115.37545 25.629547 
L 116.308095 24.762043 
L 117.240726 20.774909 
L 118.173367 24.028046 
L 119.106014 26.531429 
L 120.038653 23.369397 
L 120.971293 25.180038 
L 121.903926 26.17102 
L 122.836569 18.508743 
L 123.769209 27.241074 
L 124.701847 20.609315 
L 125.634489 24.762043 
L 129.365046 19.532385 
L 130.297692 22.870897 
L 131.230328 26.224021 
L 132.162968 21.507187 
L 133.095609 18.961976 
L 134.028248 26.55263 
L 134.960891 23.276 
L 135.893512 15.769289 
L 136.826165 27.162575 
L 137.75881 28.140378 
L 138.691446 26.823653 
L 139.624089 23.024172 
L 140.556726 25.269424 
L 141.489366 26.034076 
L 142.422003 25.208401 
L 143.354646 20.339725 
L 144.287298 16.149466 
L 145.219926 20.117692 
L 146.152567 18.687801 
L 147.085204 18.890352 
L 148.017844 18.795809 
L 148.950485 22.735099 
L 149.883123 22.553462 
L 150.815765 14.827297 
L 151.7484 21.533831 
L 179.727656 21.533831 
L 188.43171 19.638388 
L 189.054038 24.397337 
L 189.986678 18.429097 
L 190.919315 23.548455 
L 191.851955 23.288319 
L 192.7846 26.489601 
L 193.717237 22.637692 
L 194.649875 25.045959 
L 195.582513 19.62922 
L 196.515156 22.006259 
L 197.447798 22.301061 
L 198.380437 21.557037 
L 199.313081 24.199369 
L 200.245713 23.053394 
L 201.178356 15.220939 
L 202.110995 20.222835 
L 203.043636 26.301661 
" clip-path="url(#pbf7c6029a7)" style="fill: none; stroke: #339af0; stroke-width: 1.2; stroke-linecap: square"/>
   </g>
   <g id="line2d_22">
    <path d="M 43.916364 98.798923 
L 44.494523 98.806086 
L 45.427166 98.880001 
L 46.359808 98.805799 
L 47.292453 98.851352 
L 48.22509 98.810383 
L 49.157727 98.858801 
L 50.090359 98.884012 
L 51.023007 98.919537 
L 51.95565 98.831297 
L 52.88829 98.834735 
L 53.82093 98.82127 
L 54.753566 98.810383 
L 55.686208 98.740479 
L 56.618849 98.830724 
L 57.551483 98.84419 
L 58.484126 98.8376 
L 59.416765 98.868255 
L 60.349406 98.828719 
L 61.282045 98.884012 
L 62.214684 98.833016 
L 63.147327 98.86625 
L 64.07996 98.857655 
L 65.012598 98.878282 
L 65.945245 98.820984 
L 66.877884 98.855076 
L 67.810526 98.827286 
L 68.743162 98.822416 
L 69.675784 98.857082 
L 70.608443 98.846195 
L 71.541078 98.843044 
L 72.473724 98.918678 
L 73.406361 98.867109 
L 74.339003 98.838746 
L 75.271637 98.8482 
L 76.204286 98.808378 
L 77.136912 98.859374 
L 78.069558 98.814394 
L 79.002199 98.809237 
L 79.934841 98.849633 
L 80.867465 98.794053 
L 81.800118 98.828432 
L 82.732742 98.824135 
L 83.665398 98.848773 
L 84.598038 98.818405 
L 85.53068 98.805799 
L 86.463316 98.854217 
L 87.395962 98.872266 
L 96.913595 98.823562 
L 97.655282 98.790042 
L 98.587939 98.858228 
L 99.520578 98.861093 
L 100.453222 98.786031 
L 101.385859 98.80981 
L 102.318497 98.737614 
L 103.251135 98.842184 
L 104.183773 98.848773 
L 105.116412 98.850492 
L 106.049054 98.690629 
L 106.981691 98.884872 
L 107.914333 98.803221 
L 108.846974 98.868828 
L 109.779613 98.927273 
L 110.71225 98.890888 
L 111.644893 98.853644 
L 112.57753 98.917532 
L 113.510173 98.673439 
L 114.442814 98.853071 
L 115.37545 98.835881 
L 116.308095 98.851638 
L 117.240726 98.818978 
L 118.173367 98.913235 
L 119.106014 98.881434 
L 120.038653 98.857368 
L 120.971293 98.854217 
L 121.903926 98.862525 
L 122.836569 98.764258 
L 123.769209 98.804367 
L 124.701847 98.78861 
L 125.634489 98.821843 
L 129.365046 98.751939 
L 130.297692 98.775717 
L 131.230328 98.807805 
L 132.162968 98.80981 
L 133.095609 98.800642 
L 134.028248 98.84419 
L 134.960891 98.725295 
L 135.893512 98.743057 
L 136.826165 98.843903 
L 137.75881 98.772853 
L 138.691446 98.810097 
L 139.624089 98.784885 
L 140.556726 98.770561 
L 141.489366 98.803221 
L 142.422003 98.757668 
L 143.354646 98.769988 
L 144.287298 98.756236 
L 145.219926 98.771993 
L 146.152567 98.761966 
L 147.085204 98.806945 
L 148.017844 98.765977 
L 148.950485 98.77228 
L 149.883123 98.840465 
L 150.815765 98.428773 
L 151.7484 98.774572 
L 179.727656 98.774572 
L 188.43171 98.727587 
L 189.054038 98.798351 
L 189.986678 98.792048 
L 190.919315 98.627887 
L 191.851955 98.794913 
L 192.7846 98.809237 
L 193.717237 98.894612 
L 194.649875 98.858228 
L 195.582513 98.786604 
L 196.515156 98.811243 
L 197.447798 98.855076 
L 198.380437 98.8164 
L 199.313081 98.812389 
L 200.245713 98.793194 
L 201.178356 98.787177 
L 202.110995 98.753944 
L 203.043636 98.851925 
" clip-path="url(#pbf7c6029a7)" style="fill: none; stroke: #ff6b6b; stroke-width: 1.2; stroke-linecap: square"/>
   </g>
   <g id="patch_3">
    <path d="M 35.96 103.4 
L 35.96 5 
" style="fill: none; stroke: var(--fg-color); stroke-width: 0.8; stroke-linejoin: miter; stroke-linecap: square"/>
   </g>
   <g id="patch_4">
    <path d="M 35.96 103.4 
L 211 103.4 
" style="fill: none; stroke: var(--fg-color); stroke-width: 0.8; stroke-linejoin: miter; stroke-linecap: square"/>
   </g>
  </g>
 </g>
 <defs>
  <clipPath id="pbf7c6029a7">
   <rect x="35.96" y="5" width="175.04" height="98.4"/>
  </clipPath>
 </defs>
</svg>
