<?xml version="1.0" encoding="utf-8" standalone="no"?>
<!DOCTYPE svg PUBLIC "-//W3C//DTD SVG 1.1//EN"
  "http://www.w3.org/Graphics/SVG/1.1/DTD/svg11.dtd">
<svg xmlns:xlink="http://www.w3.org/1999/xlink" width="216pt" height="122.4pt" viewBox="0 0 216 122.4" xmlns="http://www.w3.org/2000/svg" version="1.1">
  <style>
    :root {
      --fg-color: #212529;
      --grid-color: rgba(33, 37, 41, 0.1);
    }
    @media (prefers-color-scheme: dark) {
      :root {
        --fg-color: #dee2e6;
        --grid-color: rgba(248, 249, 250, 0.15);
      }
    }
  </style>

 <metadata>
  <rdf:RDF xmlns:dc="http://purl.org/dc/elements/1.1/" xmlns:cc="http://creativecommons.org/ns#" xmlns:rdf="http://www.w3.org/1999/02/22-rdf-syntax-ns#">
   <cc:Work>
    <dc:type rdf:resource="http://purl.org/dc/dcmitype/StillImage"/>
    <dc:date>2026-06-30T04:48:42.399631</dc:date>
    <dc:format>image/svg+xml</dc:format>
    <dc:creator>
     <cc:Agent>
      <dc:title>Matplotlib v3.11.0, https://matplotlib.org/</dc:title>
     </cc:Agent>
    </dc:creator>
   </cc:Work>
  </rdf:RDF>
 </metadata>
 <defs>
  <style type="text/css">*{stroke-linejoin: round; stroke-linecap: butt}</style>
 </defs>
 <g id="figure_1">
  <g id="patch_1">
   <path d="M 0 122.4 
L 216 122.4 
L 216 0 
L 0 0 
L 0 122.4 
z
" style="fill: none; opacity: 0"/>
  </g>
  <g id="axes_1">
   <g id="patch_2">
    <path d="M 35.96 103.4 
L 211 103.4 
L 211 5 
L 35.96 5 
L 35.96 103.4 
z
" style="fill: none; opacity: 0"/>
   </g>
   <g id="matplotlib.axis_1">
    <g id="xtick_1">
     <g id="line2d_1">
      <path d="M 70.996911 103.4 
L 70.996911 5 
" clip-path="url(#pb3cea522bf)" style="fill: none; stroke-dasharray: 2.96,1.28; stroke-dashoffset: 0; stroke: var(--grid-color); stroke-width: 0.8"/>
     </g>
     <g id="line2d_2">
      <defs>
       <path id="m2f39adc386" d="M 0 0 
L 0 3.5 
" style="stroke: var(--fg-color); stroke-width: 0.8"/>
      </defs>
      <g>
       <use xlink:href="#m2f39adc386" x="70.996911" y="103.4" style="fill: var(--fg-color); stroke: var(--fg-color); stroke-width: 0.8"/>
      </g>
     </g>
     <g id="text_1">
      <text style="font-size: 7px; font-family: 'DejaVu Sans', 'Bitstream Vera Sans', 'Computer Modern Sans Serif', 'Lucida Grande', 'Verdana', 'Geneva', 'Lucid', 'Arial', 'Helvetica', 'Avant Garde', sans-serif; text-anchor: middle; fill: var(--fg-color)" x="70.996911" y="115.718359" transform="rotate(-0 70.996911 115.718359)">02/2026</text>
     </g>
    </g>
    <g id="xtick_2">
     <g id="line2d_3">
      <path d="M 126.022656 103.4 
L 126.022656 5 
" clip-path="url(#pb3cea522bf)" style="fill: none; stroke-dasharray: 2.96,1.28; stroke-dashoffset: 0; stroke: var(--grid-color); stroke-width: 0.8"/>
     </g>
     <g id="line2d_4">
      <g>
       <use xlink:href="#m2f39adc386" x="126.022656" y="103.4" style="fill: var(--fg-color); stroke: var(--fg-color); stroke-width: 0.8"/>
      </g>
     </g>
     <g id="text_2">
      <text style="font-size: 7px; font-family: 'DejaVu Sans', 'Bitstream Vera Sans', 'Computer Modern Sans Serif', 'Lucida Grande', 'Verdana', 'Geneva', 'Lucid', 'Arial', 'Helvetica', 'Avant Garde', sans-serif; text-anchor: middle; fill: var(--fg-color)" x="126.022656" y="115.718359" transform="rotate(-0 126.022656 115.718359)">04/2026</text>
     </g>
    </g>
    <g id="xtick_3">
     <g id="line2d_5">
      <path d="M 182.913681 103.4 
L 182.913681 5 
" clip-path="url(#pb3cea522bf)" style="fill: none; stroke-dasharray: 2.96,1.28; stroke-dashoffset: 0; stroke: var(--grid-color); stroke-width: 0.8"/>
     </g>
     <g id="line2d_6">
      <g>
       <use xlink:href="#m2f39adc386" x="182.913681" y="103.4" style="fill: var(--fg-color); stroke: var(--fg-color); stroke-width: 0.8"/>
      </g>
     </g>
     <g id="text_3">
      <text style="font-size: 7px; font-family: 'DejaVu Sans', 'Bitstream Vera Sans', 'Computer Modern Sans Serif', 'Lucida Grande', 'Verdana', 'Geneva', 'Lucid', 'Arial', 'Helvetica', 'Avant Garde', sans-serif; text-anchor: middle; fill: var(--fg-color)" x="182.913681" y="115.718359" transform="rotate(-0 182.913681 115.718359)">06/2026</text>
     </g>
    </g>
   </g>
   <g id="matplotlib.axis_2">
    <g id="ytick_1">
     <g id="line2d_7">
      <path d="M 35.96 99.297678 
L 211 99.297678 
" clip-path="url(#pb3cea522bf)" style="fill: none; stroke-dasharray: 2.96,1.28; stroke-dashoffset: 0; stroke: var(--grid-color); stroke-width: 0.8"/>
     </g>
     <g id="line2d_8">
      <defs>
       <path id="mde7ae95458" d="M 0 0 
L -3.5 0 
" style="stroke: var(--fg-color); stroke-width: 0.8"/>
      </defs>
      <g>
       <use xlink:href="#mde7ae95458" x="35.96" y="99.297678" style="fill: var(--fg-color); stroke: var(--fg-color); stroke-width: 0.8"/>
      </g>
     </g>
     <g id="text_4">
      <text style="font-size: 7px; font-family: 'DejaVu Sans', 'Bitstream Vera Sans', 'Computer Modern Sans Serif', 'Lucida Grande', 'Verdana', 'Geneva', 'Lucid', 'Arial', 'Helvetica', 'Avant Garde', sans-serif; text-anchor: end; fill: var(--fg-color)" x="28.96" y="101.956858" transform="rotate(-0 28.96 101.956858)">0</text>
     </g>
    </g>
    <g id="ytick_2">
     <g id="line2d_9">
      <path d="M 35.96 77.699691 
L 211 77.699691 
" clip-path="url(#pb3cea522bf)" style="fill: none; stroke-dasharray: 2.96,1.28; stroke-dashoffset: 0; stroke: var(--grid-color); stroke-width: 0.8"/>
     </g>
     <g id="line2d_10">
      <g>
       <use xlink:href="#mde7ae95458" x="35.96" y="77.699691" style="fill: var(--fg-color); stroke: var(--fg-color); stroke-width: 0.8"/>
      </g>
     </g>
     <g id="text_5">
      <text style="font-size: 7px; font-family: 'DejaVu Sans', 'Bitstream Vera Sans', 'Computer Modern Sans Serif', 'Lucida Grande', 'Verdana', 'Geneva', 'Lucid', 'Arial', 'Helvetica', 'Avant Garde', sans-serif; text-anchor: end; fill: var(--fg-color)" x="28.96" y="80.35887" transform="rotate(-0 28.96 80.35887)">100</text>
     </g>
    </g>
    <g id="ytick_3">
     <g id="line2d_11">
      <path d="M 35.96 56.101703 
L 211 56.101703 
" clip-path="url(#pb3cea522bf)" style="fill: none; stroke-dasharray: 2.96,1.28; stroke-dashoffset: 0; stroke: var(--grid-color); stroke-width: 0.8"/>
     </g>
     <g id="line2d_12">
      <g>
       <use xlink:href="#mde7ae95458" x="35.96" y="56.101703" style="fill: var(--fg-color); stroke: var(--fg-color); stroke-width: 0.8"/>
      </g>
     </g>
     <g id="text_6">
      <text style="font-size: 7px; font-family: 'DejaVu Sans', 'Bitstream Vera Sans', 'Computer Modern Sans Serif', 'Lucida Grande', 'Verdana', 'Geneva', 'Lucid', 'Arial', 'Helvetica', 'Avant Garde', sans-serif; text-anchor: end; fill: var(--fg-color)" x="28.96" y="58.760883" transform="rotate(-0 28.96 58.760883)">200</text>
     </g>
    </g>
    <g id="ytick_4">
     <g id="line2d_13">
      <path d="M 35.96 34.503715 
L 211 34.503715 
" clip-path="url(#pb3cea522bf)" style="fill: none; stroke-dasharray: 2.96,1.28; stroke-dashoffset: 0; stroke: var(--grid-color); stroke-width: 0.8"/>
     </g>
     <g id="line2d_14">
      <g>
       <use xlink:href="#mde7ae95458" x="35.96" y="34.503715" style="fill: var(--fg-color); stroke: var(--fg-color); stroke-width: 0.8"/>
      </g>
     </g>
     <g id="text_7">
      <text style="font-size: 7px; font-family: 'DejaVu Sans', 'Bitstream Vera Sans', 'Computer Modern Sans Serif', 'Lucida Grande', 'Verdana', 'Geneva', 'Lucid', 'Arial', 'Helvetica', 'Avant Garde', sans-serif; text-anchor: end; fill: var(--fg-color)" x="28.96" y="37.162895" transform="rotate(-0 28.96 37.162895)">300</text>
     </g>
    </g>
    <g id="ytick_5">
     <g id="line2d_15">
      <path d="M 35.96 12.905727 
L 211 12.905727 
" clip-path="url(#pb3cea522bf)" style="fill: none; stroke-dasharray: 2.96,1.28; stroke-dashoffset: 0; stroke: var(--grid-color); stroke-width: 0.8"/>
     </g>
     <g id="line2d_16">
      <g>
       <use xlink:href="#mde7ae95458" x="35.96" y="12.905727" style="fill: var(--fg-color); stroke: var(--fg-color); stroke-width: 0.8"/>
      </g>
     </g>
     <g id="text_8">
      <text style="font-size: 7px; font-family: 'DejaVu Sans', 'Bitstream Vera Sans', 'Computer Modern Sans Serif', 'Lucida Grande', 'Verdana', 'Geneva', 'Lucid', 'Arial', 'Helvetica', 'Avant Garde', sans-serif; text-anchor: end; fill: var(--fg-color)" x="28.96" y="15.564907" transform="rotate(-0 28.96 15.564907)">400</text>
     </g>
    </g>
    <g id="text_9">
     <text style="font-size: 7px; font-family: 'DejaVu Sans', 'Bitstream Vera Sans', 'Computer Modern Sans Serif', 'Lucida Grande', 'Verdana', 'Geneva', 'Lucid', 'Arial', 'Helvetica', 'Avant Garde', sans-serif; text-anchor: middle; fill: var(--fg-color)" x="9.917109" y="54.2" transform="rotate(-90 9.917109 54.2)">ms</text>
    </g>
   </g>
   <g id="line2d_17">
    <path d="M 43.916364 14.70484 
L 44.494523 34.693129 
L 45.427166 30.132714 
L 46.359808 33.734827 
L 47.292453 30.749769 
L 48.22509 35.299169 
L 49.157727 36.436087 
L 50.090359 30.905274 
L 51.023007 39.332161 
L 51.95565 31.876536 
L 52.88829 29.649351 
L 53.82093 29.573111 
L 54.753566 33.808044 
L 55.686208 20.866746 
L 56.618849 35.39312 
L 57.551483 25.100383 
L 58.484126 41.514422 
L 59.416765 35.391608 
L 60.349406 40.764972 
L 61.282045 34.109552 
L 62.214684 34.28428 
L 63.147327 33.905235 
L 64.07996 40.818967 
L 65.012598 37.455296 
L 65.945245 30.271157 
L 66.877884 37.314261 
L 67.810526 35.822272 
L 68.743162 39.751162 
L 69.675784 32.41087 
L 70.608443 36.225723 
L 71.541078 25.313555 
L 72.473724 33.09963 
L 73.406361 32.056663 
L 74.339003 42.967751 
L 75.271637 33.97478 
L 76.204286 25.834499 
L 77.136912 39.973621 
L 78.069558 39.41229 
L 79.002199 31.246739 
L 79.934841 28.424098 
L 80.867465 22.972118 
L 81.800118 15.909576 
L 82.732742 18.788587 
L 83.665398 30.893611 
L 84.598038 32.34586 
L 85.53068 25.573163 
L 86.463316 18.145183 
L 87.395962 32.664215 
L 96.913595 25.468629 
L 97.655282 28.98219 
L 98.587939 22.700415 
L 99.520578 21.996752 
L 100.453222 19.013422 
L 101.385859 26.1224 
L 102.318497 39.801702 
L 103.251135 40.295431 
L 104.183773 32.100939 
L 105.116412 31.116287 
L 106.049054 34.975199 
L 106.981691 34.811918 
L 107.914333 31.259265 
L 108.846974 27.989978 
L 109.779613 34.505875 
L 110.71225 38.967371 
L 111.644893 32.529875 
L 112.57753 32.97069 
L 113.510173 37.796112 
L 114.442814 27.125627 
L 115.37545 17.632879 
L 116.308095 36.704334 
L 117.240726 40.090683 
L 118.173367 30.983891 
L 119.106014 29.317606 
L 120.038653 15.805905 
L 120.971293 29.111562 
L 121.903926 17.08969 
L 122.836569 36.063954 
L 123.769209 29.02085 
L 124.701847 32.309144 
L 125.634489 24.544883 
L 129.365046 25.323706 
L 130.297692 33.175223 
L 131.230328 19.302835 
L 132.162968 32.60482 
L 133.095609 20.700009 
L 134.028248 9.472727 
L 134.960891 24.266053 
L 135.893512 12.799897 
L 136.826165 32.289489 
L 137.75881 18.979514 
L 138.691446 34.303718 
L 139.624089 27.346574 
L 140.556726 19.539981 
L 141.489366 27.905098 
L 142.422003 25.77856 
L 143.354646 26.938372 
L 144.287298 13.832497 
L 145.219926 28.652604 
L 146.152567 25.243794 
L 147.085204 24.977923 
L 148.017844 25.709231 
L 148.950485 18.487295 
L 149.883123 19.480803 
L 150.815765 31.417795 
L 151.7484 20.075827 
L 179.727656 20.075827 
L 188.43171 14.817365 
L 189.054038 26.383736 
L 189.986678 31.236588 
L 190.919315 19.334368 
L 191.851955 19.153161 
L 192.7846 33.616254 
L 193.717237 21.71857 
L 194.649875 22.028069 
L 195.582513 37.194176 
L 196.515156 25.617655 
L 197.447798 28.280903 
L 198.380437 32.140679 
L 199.313081 29.88261 
L 200.245713 27.915465 
L 201.178356 31.665092 
L 202.110995 26.489782 
L 203.043636 23.674268 
" clip-path="url(#pb3cea522bf)" style="fill: none; stroke: #339af0; stroke-width: 1.2; stroke-linecap: square"/>
   </g>
   <g id="line2d_18">
    <path d="M 43.916364 98.860751 
L 44.494523 98.882565 
L 45.427166 98.892068 
L 46.359808 98.842177 
L 47.292453 98.880837 
L 48.22509 98.857079 
L 49.157727 98.875654 
L 50.090359 98.877597 
L 51.023007 98.905675 
L 51.95565 98.860535 
L 52.88829 98.869822 
L 53.82093 98.717124 
L 54.753566 98.882349 
L 55.686208 98.875654 
L 56.618849 98.861615 
L 57.551483 98.868958 
L 58.484126 98.906755 
L 59.416765 98.896172 
L 60.349406 98.914314 
L 61.282045 98.880837 
L 62.214684 98.855999 
L 63.147327 98.89358 
L 64.07996 98.899627 
L 65.012598 98.860751 
L 65.945245 98.88926 
L 66.877884 98.908914 
L 67.810526 98.864855 
L 68.743162 98.898979 
L 69.675784 98.881917 
L 70.608443 98.891636 
L 71.541078 98.854272 
L 72.473724 98.864639 
L 73.406361 98.883861 
L 74.339003 98.922953 
L 75.271637 98.869822 
L 76.204286 98.893148 
L 77.136912 98.914746 
L 78.069558 98.900059 
L 79.002199 98.897252 
L 79.934841 98.8925 
L 80.867465 98.8871 
L 81.800118 98.898547 
L 82.732742 98.898331 
L 83.665398 98.896388 
L 84.598038 98.785374 
L 85.53068 98.858159 
L 86.463316 98.879541 
L 87.395962 98.89142 
L 96.913595 98.890772 
L 97.655282 98.918634 
L 98.587939 98.927273 
L 99.520578 98.904163 
L 100.453222 98.891204 
L 101.385859 98.448877 
L 102.318497 98.796173 
L 103.251135 98.792501 
L 104.183773 98.764424 
L 105.116412 98.748657 
L 106.049054 98.74693 
L 106.981691 98.697254 
L 107.914333 98.78019 
L 108.846974 98.756649 
L 109.779613 98.777599 
L 110.71225 98.785806 
L 111.644893 98.725548 
L 112.57753 98.749737 
L 113.510173 98.773279 
L 114.442814 98.767664 
L 115.37545 98.552764 
L 116.308095 98.788398 
L 117.240726 98.789262 
L 118.173367 98.767016 
L 119.106014 98.769391 
L 120.038653 98.538509 
L 120.971293 98.713885 
L 121.903926 98.732243 
L 122.836569 98.76356 
L 123.769209 98.753841 
L 124.701847 98.759024 
L 125.634489 98.78883 
L 129.365046 98.741098 
L 130.297692 98.712373 
L 131.230328 98.732891 
L 132.162968 98.775655 
L 133.095609 98.708053 
L 134.028248 98.701574 
L 134.960891 98.74261 
L 135.893512 98.78127 
L 136.826165 98.767664 
L 137.75881 98.747146 
L 138.691446 98.781702 
L 139.624089 98.747146 
L 140.556726 98.697254 
L 141.489366 98.74477 
L 142.422003 98.768312 
L 143.354646 98.748009 
L 144.287298 98.739154 
L 145.219926 98.782134 
L 146.152567 98.704166 
L 147.085204 98.732243 
L 148.017844 98.754705 
L 148.950485 98.729651 
L 149.883123 98.760752 
L 150.815765 98.768743 
L 151.7484 98.752329 
L 179.727656 98.752329 
L 188.43171 98.735267 
L 189.054038 98.455573 
L 189.986678 98.755785 
L 190.919315 98.741962 
L 191.851955 98.68192 
L 192.7846 98.768528 
L 193.717237 98.705245 
L 194.649875 98.756217 
L 195.582513 98.780622 
L 196.515156 98.732459 
L 197.447798 98.730731 
L 198.380437 98.765288 
L 199.313081 98.735267 
L 200.245713 98.733539 
L 201.178356 98.714317 
L 202.110995 98.730515 
L 203.043636 98.732891 
" clip-path="url(#pb3cea522bf)" style="fill: none; stroke: #ff6b6b; stroke-width: 1.2; stroke-linecap: square"/>
   </g>
   <g id="patch_3">
    <path d="M 35.96 103.4 
L 35.96 5 
" style="fill: none; stroke: var(--fg-color); stroke-width: 0.8; stroke-linejoin: miter; stroke-linecap: square"/>
   </g>
   <g id="patch_4">
    <path d="M 35.96 103.4 
L 211 103.4 
" style="fill: none; stroke: var(--fg-color); stroke-width: 0.8; stroke-linejoin: miter; stroke-linecap: square"/>
   </g>
  </g>
 </g>
 <defs>
  <clipPath id="pb3cea522bf">
   <rect x="35.96" y="5" width="175.04" height="98.4"/>
  </clipPath>
 </defs>
</svg>
