<?xml version="1.0" encoding="utf-8" standalone="no"?>
<!DOCTYPE svg PUBLIC "-//W3C//DTD SVG 1.1//EN"
  "http://www.w3.org/Graphics/SVG/1.1/DTD/svg11.dtd">
<svg xmlns:xlink="http://www.w3.org/1999/xlink" width="216pt" height="122.4pt" viewBox="0 0 216 122.4" xmlns="http://www.w3.org/2000/svg" version="1.1">
  <style>
    :root {
      --fg-color: #212529;
      --grid-color: rgba(33, 37, 41, 0.1);
    }
    @media (prefers-color-scheme: dark) {
      :root {
        --fg-color: #dee2e6;
        --grid-color: rgba(248, 249, 250, 0.15);
      }
    }
  </style>

 <metadata>
  <rdf:RDF xmlns:dc="http://purl.org/dc/elements/1.1/" xmlns:cc="http://creativecommons.org/ns#" xmlns:rdf="http://www.w3.org/1999/02/22-rdf-syntax-ns#">
   <cc:Work>
    <dc:type rdf:resource="http://purl.org/dc/dcmitype/StillImage"/>
    <dc:date>2026-06-30T04:48:54.810729</dc:date>
    <dc:format>image/svg+xml</dc:format>
    <dc:creator>
     <cc:Agent>
      <dc:title>Matplotlib v3.11.0, https://matplotlib.org/</dc:title>
     </cc:Agent>
    </dc:creator>
   </cc:Work>
  </rdf:RDF>
 </metadata>
 <defs>
  <style type="text/css">*{stroke-linejoin: round; stroke-linecap: butt}</style>
 </defs>
 <g id="figure_1">
  <g id="patch_1">
   <path d="M 0 122.4 
L 216 122.4 
L 216 0 
L 0 0 
L 0 122.4 
z
" style="fill: none; opacity: 0"/>
  </g>
  <g id="axes_1">
   <g id="patch_2">
    <path d="M 35.96 103.4 
L 211 103.4 
L 211 5 
L 35.96 5 
L 35.96 103.4 
z
" style="fill: none; opacity: 0"/>
   </g>
   <g id="matplotlib.axis_1">
    <g id="xtick_1">
     <g id="line2d_1">
      <path d="M 70.996911 103.4 
L 70.996911 5 
" clip-path="url(#p324bb9853e)" style="fill: none; stroke-dasharray: 2.96,1.28; stroke-dashoffset: 0; stroke: var(--grid-color); stroke-width: 0.8"/>
     </g>
     <g id="line2d_2">
      <defs>
       <path id="m47874c5e53" d="M 0 0 
L 0 3.5 
" style="stroke: var(--fg-color); stroke-width: 0.8"/>
      </defs>
      <g>
       <use xlink:href="#m47874c5e53" x="70.996911" y="103.4" style="fill: var(--fg-color); stroke: var(--fg-color); stroke-width: 0.8"/>
      </g>
     </g>
     <g id="text_1">
      <text style="font-size: 7px; font-family: 'DejaVu Sans', 'Bitstream Vera Sans', 'Computer Modern Sans Serif', 'Lucida Grande', 'Verdana', 'Geneva', 'Lucid', 'Arial', 'Helvetica', 'Avant Garde', sans-serif; text-anchor: middle; fill: var(--fg-color)" x="70.996911" y="115.718359" transform="rotate(-0 70.996911 115.718359)">02/2026</text>
     </g>
    </g>
    <g id="xtick_2">
     <g id="line2d_3">
      <path d="M 126.022656 103.4 
L 126.022656 5 
" clip-path="url(#p324bb9853e)" style="fill: none; stroke-dasharray: 2.96,1.28; stroke-dashoffset: 0; stroke: var(--grid-color); stroke-width: 0.8"/>
     </g>
     <g id="line2d_4">
      <g>
       <use xlink:href="#m47874c5e53" x="126.022656" y="103.4" style="fill: var(--fg-color); stroke: var(--fg-color); stroke-width: 0.8"/>
      </g>
     </g>
     <g id="text_2">
      <text style="font-size: 7px; font-family: 'DejaVu Sans', 'Bitstream Vera Sans', 'Computer Modern Sans Serif', 'Lucida Grande', 'Verdana', 'Geneva', 'Lucid', 'Arial', 'Helvetica', 'Avant Garde', sans-serif; text-anchor: middle; fill: var(--fg-color)" x="126.022656" y="115.718359" transform="rotate(-0 126.022656 115.718359)">04/2026</text>
     </g>
    </g>
    <g id="xtick_3">
     <g id="line2d_5">
      <path d="M 182.913681 103.4 
L 182.913681 5 
" clip-path="url(#p324bb9853e)" style="fill: none; stroke-dasharray: 2.96,1.28; stroke-dashoffset: 0; stroke: var(--grid-color); stroke-width: 0.8"/>
     </g>
     <g id="line2d_6">
      <g>
       <use xlink:href="#m47874c5e53" x="182.913681" y="103.4" style="fill: var(--fg-color); stroke: var(--fg-color); stroke-width: 0.8"/>
      </g>
     </g>
     <g id="text_3">
      <text style="font-size: 7px; font-family: 'DejaVu Sans', 'Bitstream Vera Sans', 'Computer Modern Sans Serif', 'Lucida Grande', 'Verdana', 'Geneva', 'Lucid', 'Arial', 'Helvetica', 'Avant Garde', sans-serif; text-anchor: middle; fill: var(--fg-color)" x="182.913681" y="115.718359" transform="rotate(-0 182.913681 115.718359)">06/2026</text>
     </g>
    </g>
   </g>
   <g id="matplotlib.axis_2">
    <g id="ytick_1">
     <g id="line2d_7">
      <path d="M 35.96 99.697549 
L 211 99.697549 
" clip-path="url(#p324bb9853e)" style="fill: none; stroke-dasharray: 2.96,1.28; stroke-dashoffset: 0; stroke: var(--grid-color); stroke-width: 0.8"/>
     </g>
     <g id="line2d_8">
      <defs>
       <path id="m34ac082a86" d="M 0 0 
L -3.5 0 
" style="stroke: var(--fg-color); stroke-width: 0.8"/>
      </defs>
      <g>
       <use xlink:href="#m34ac082a86" x="35.96" y="99.697549" style="fill: var(--fg-color); stroke: var(--fg-color); stroke-width: 0.8"/>
      </g>
     </g>
     <g id="text_4">
      <text style="font-size: 7px; font-family: 'DejaVu Sans', 'Bitstream Vera Sans', 'Computer Modern Sans Serif', 'Lucida Grande', 'Verdana', 'Geneva', 'Lucid', 'Arial', 'Helvetica', 'Avant Garde', sans-serif; text-anchor: end; fill: var(--fg-color)" x="28.96" y="102.356729" transform="rotate(-0 28.96 102.356729)">0</text>
     </g>
    </g>
    <g id="ytick_2">
     <g id="line2d_9">
      <path d="M 35.96 75.967539 
L 211 75.967539 
" clip-path="url(#p324bb9853e)" style="fill: none; stroke-dasharray: 2.96,1.28; stroke-dashoffset: 0; stroke: var(--grid-color); stroke-width: 0.8"/>
     </g>
     <g id="line2d_10">
      <g>
       <use xlink:href="#m34ac082a86" x="35.96" y="75.967539" style="fill: var(--fg-color); stroke: var(--fg-color); stroke-width: 0.8"/>
      </g>
     </g>
     <g id="text_5">
      <text style="font-size: 7px; font-family: 'DejaVu Sans', 'Bitstream Vera Sans', 'Computer Modern Sans Serif', 'Lucida Grande', 'Verdana', 'Geneva', 'Lucid', 'Arial', 'Helvetica', 'Avant Garde', sans-serif; text-anchor: end; fill: var(--fg-color)" x="28.96" y="78.626718" transform="rotate(-0 28.96 78.626718)">100</text>
     </g>
    </g>
    <g id="ytick_3">
     <g id="line2d_11">
      <path d="M 35.96 52.237528 
L 211 52.237528 
" clip-path="url(#p324bb9853e)" style="fill: none; stroke-dasharray: 2.96,1.28; stroke-dashoffset: 0; stroke: var(--grid-color); stroke-width: 0.8"/>
     </g>
     <g id="line2d_12">
      <g>
       <use xlink:href="#m34ac082a86" x="35.96" y="52.237528" style="fill: var(--fg-color); stroke: var(--fg-color); stroke-width: 0.8"/>
      </g>
     </g>
     <g id="text_6">
      <text style="font-size: 7px; font-family: 'DejaVu Sans', 'Bitstream Vera Sans', 'Computer Modern Sans Serif', 'Lucida Grande', 'Verdana', 'Geneva', 'Lucid', 'Arial', 'Helvetica', 'Avant Garde', sans-serif; text-anchor: end; fill: var(--fg-color)" x="28.96" y="54.896708" transform="rotate(-0 28.96 54.896708)">200</text>
     </g>
    </g>
    <g id="ytick_4">
     <g id="line2d_13">
      <path d="M 35.96 28.507518 
L 211 28.507518 
" clip-path="url(#p324bb9853e)" style="fill: none; stroke-dasharray: 2.96,1.28; stroke-dashoffset: 0; stroke: var(--grid-color); stroke-width: 0.8"/>
     </g>
     <g id="line2d_14">
      <g>
       <use xlink:href="#m34ac082a86" x="35.96" y="28.507518" style="fill: var(--fg-color); stroke: var(--fg-color); stroke-width: 0.8"/>
      </g>
     </g>
     <g id="text_7">
      <text style="font-size: 7px; font-family: 'DejaVu Sans', 'Bitstream Vera Sans', 'Computer Modern Sans Serif', 'Lucida Grande', 'Verdana', 'Geneva', 'Lucid', 'Arial', 'Helvetica', 'Avant Garde', sans-serif; text-anchor: end; fill: var(--fg-color)" x="28.96" y="31.166697" transform="rotate(-0 28.96 31.166697)">300</text>
     </g>
    </g>
    <g id="text_8">
     <text style="font-size: 7px; font-family: 'DejaVu Sans', 'Bitstream Vera Sans', 'Computer Modern Sans Serif', 'Lucida Grande', 'Verdana', 'Geneva', 'Lucid', 'Arial', 'Helvetica', 'Avant Garde', sans-serif; text-anchor: middle; fill: var(--fg-color)" x="9.917109" y="54.2" transform="rotate(-90 9.917109 54.2)">ms</text>
    </g>
   </g>
   <g id="line2d_15">
    <path d="M 43.916364 48.771286 
L 44.494523 39.492851 
L 45.427166 32.240248 
L 46.359808 46.685655 
L 47.292453 49.977482 
L 48.22509 47.841069 
L 49.157727 37.641911 
L 50.090359 51.913139 
L 51.023007 49.996703 
L 51.95565 51.144761 
L 52.88829 51.541052 
L 53.82093 52.38062 
L 54.753566 48.351027 
L 55.686208 45.745947 
L 56.618849 26.279033 
L 57.551483 42.815765 
L 58.484126 46.652908 
L 59.416765 48.593785 
L 60.349406 40.732033 
L 61.282045 42.948178 
L 62.214684 38.691964 
L 63.147327 39.400304 
L 64.07996 42.601483 
L 65.012598 28.046918 
L 65.945245 33.562959 
L 66.877884 43.430609 
L 67.810526 36.726644 
L 68.743162 44.877428 
L 69.675784 35.434545 
L 70.608443 27.367528 
L 71.541078 42.54809 
L 72.473724 37.369016 
L 73.406361 50.125557 
L 74.339003 44.275872 
L 75.271637 49.691298 
L 76.204286 44.006537 
L 77.136912 34.800479 
L 78.069558 42.62284 
L 79.002199 46.085286 
L 79.934841 29.678594 
L 80.867465 36.559822 
L 81.800118 48.991975 
L 82.732742 30.397139 
L 83.665398 52.195051 
L 84.598038 33.61564 
L 85.53068 51.897002 
L 86.463316 35.373084 
L 87.395962 41.065202 
L 96.913595 42.281365 
L 97.655282 45.489425 
L 98.587939 40.61362 
L 99.520578 31.213214 
L 100.453222 45.064895 
L 101.385859 17.573204 
L 102.318497 45.157442 
L 103.251135 37.809682 
L 104.183773 37.849548 
L 105.116412 49.3026 
L 106.049054 47.715063 
L 106.981691 39.66086 
L 107.914333 24.149027 
L 108.846974 26.246285 
L 109.779613 28.082751 
L 110.71225 43.029335 
L 111.644893 45.273482 
L 112.57753 46.4391 
L 113.510173 28.796075 
L 114.442814 37.804224 
L 115.37545 38.909568 
L 116.308095 50.833661 
L 117.240726 47.26704 
L 118.173367 40.249839 
L 119.106014 45.207038 
L 120.038653 38.441137 
L 120.971293 40.130477 
L 121.903926 22.160927 
L 122.836569 34.126547 
L 123.769209 30.535484 
L 124.701847 45.072252 
L 125.634489 28.922556 
L 129.365046 38.469139 
L 130.297692 33.587164 
L 131.230328 19.450485 
L 132.162968 30.89452 
L 133.095609 36.991946 
L 134.028248 38.813699 
L 134.960891 47.624177 
L 135.893512 18.210117 
L 136.826165 31.307422 
L 137.75881 34.224552 
L 138.691446 44.403303 
L 139.624089 34.824921 
L 140.556726 46.916311 
L 141.489366 36.542025 
L 142.422003 9.472727 
L 143.354646 19.88332 
L 144.287298 32.059426 
L 145.219926 33.711984 
L 146.152567 36.782647 
L 147.085204 44.737184 
L 148.017844 42.054981 
L 148.950485 16.711567 
L 149.883123 43.574651 
L 150.815765 24.254863 
L 151.7484 42.936313 
L 179.727656 42.936313 
L 188.43171 40.304418 
L 189.054038 47.520951 
L 189.986678 42.475951 
L 190.919315 47.904666 
L 191.851955 46.781999 
L 192.7846 44.419202 
L 193.717237 40.438492 
L 194.649875 39.770255 
L 195.582513 47.922226 
L 196.515156 50.199358 
L 197.447798 44.177156 
L 198.380437 51.006415 
L 199.313081 48.606837 
L 200.245713 37.506887 
L 201.178356 54.190983 
L 202.110995 32.963302 
L 203.043636 49.157847 
" clip-path="url(#p324bb9853e)" style="fill: none; stroke: #339af0; stroke-width: 1.2; stroke-linecap: square"/>
   </g>
   <g id="line2d_16">
    <path d="M 43.916364 98.812182 
L 44.494523 98.793198 
L 45.427166 98.842557 
L 46.359808 98.831641 
L 47.292453 98.768756 
L 48.22509 98.845167 
L 49.157727 98.860591 
L 50.090359 98.868422 
L 51.023007 98.846116 
L 51.95565 98.844692 
L 52.88829 98.867948 
L 53.82093 98.85276 
L 54.753566 98.869372 
L 55.686208 98.806012 
L 56.618849 98.830929 
L 57.551483 98.621156 
L 58.484126 98.806724 
L 59.416765 98.837811 
L 60.349406 98.927273 
L 61.282045 98.837099 
L 62.214684 98.817877 
L 63.147327 98.844692 
L 64.07996 98.866761 
L 65.012598 98.852049 
L 65.945245 98.832827 
L 66.877884 98.824522 
L 67.810526 98.813606 
L 68.743162 98.807199 
L 69.675784 98.833302 
L 70.608443 98.828319 
L 71.541078 98.77896 
L 72.473724 98.865812 
L 73.406361 98.817403 
L 74.339003 98.82381 
L 75.271637 98.816454 
L 76.204286 98.842082 
L 77.136912 98.833302 
L 78.069558 98.888593 
L 79.002199 98.828793 
L 79.934841 98.857506 
L 80.867465 98.845879 
L 81.800118 98.849201 
L 82.732742 98.866049 
L 83.665398 98.837573 
L 84.598038 98.880762 
L 85.53068 98.896661 
L 86.463316 98.840658 
L 87.395962 98.844692 
L 96.913595 98.79391 
L 97.655282 98.793673 
L 98.587939 98.826183 
L 99.520578 98.831166 
L 100.453222 98.842794 
L 101.385859 98.837336 
L 102.318497 98.798181 
L 103.251135 98.805775 
L 104.183773 98.813606 
L 105.116412 98.816216 
L 106.049054 98.832115 
L 106.981691 98.827844 
L 107.914333 98.830692 
L 108.846974 98.80625 
L 109.779613 98.847777 
L 110.71225 98.859405 
L 111.644893 98.772316 
L 112.57753 98.844692 
L 113.510173 98.821674 
L 114.442814 98.848489 
L 115.37545 98.834488 
L 116.308095 98.835675 
L 117.240726 98.819301 
L 118.173367 98.840184 
L 119.106014 98.825708 
L 120.038653 98.855371 
L 120.971293 98.828556 
L 121.903926 98.838522 
L 122.836569 98.8212 
L 123.769209 98.768282 
L 124.701847 98.824522 
L 125.634489 98.844455 
L 129.365046 98.738145 
L 130.297692 98.607155 
L 131.230328 98.824284 
L 132.162968 98.797944 
L 133.095609 98.857032 
L 134.028248 98.822386 
L 134.960891 98.815979 
L 135.893512 98.802453 
L 136.826165 98.66648 
L 137.75881 98.759502 
L 138.691446 98.812419 
L 139.624089 98.810758 
L 140.556726 98.800317 
L 141.489366 98.736721 
L 142.422003 98.74028 
L 143.354646 98.744552 
L 144.287298 98.752383 
L 145.219926 98.78513 
L 146.152567 98.845404 
L 147.085204 98.819776 
L 148.017844 98.753806 
L 148.950485 98.74906 
L 149.883123 98.777299 
L 150.815765 98.684752 
L 151.7484 98.792724 
L 179.727656 98.792724 
L 188.43171 98.819301 
L 189.054038 98.808148 
L 189.986678 98.750959 
L 190.919315 98.810521 
L 191.851955 98.798656 
L 192.7846 98.851099 
L 193.717237 98.745026 
L 194.649875 98.811708 
L 195.582513 98.818589 
L 196.515156 98.821674 
L 197.447798 98.748823 
L 198.380437 98.841133 
L 199.313081 98.836861 
L 200.245713 98.818589 
L 201.178356 98.885271 
L 202.110995 98.77018 
L 203.043636 98.790351 
" clip-path="url(#p324bb9853e)" style="fill: none; stroke: #ff6b6b; stroke-width: 1.2; stroke-linecap: square"/>
   </g>
   <g id="patch_3">
    <path d="M 35.96 103.4 
L 35.96 5 
" style="fill: none; stroke: var(--fg-color); stroke-width: 0.8; stroke-linejoin: miter; stroke-linecap: square"/>
   </g>
   <g id="patch_4">
    <path d="M 35.96 103.4 
L 211 103.4 
" style="fill: none; stroke: var(--fg-color); stroke-width: 0.8; stroke-linejoin: miter; stroke-linecap: square"/>
   </g>
  </g>
 </g>
 <defs>
  <clipPath id="p324bb9853e">
   <rect x="35.96" y="5" width="175.04" height="98.4"/>
  </clipPath>
 </defs>
</svg>
