<?xml version="1.0" encoding="utf-8" standalone="no"?>
<!DOCTYPE svg PUBLIC "-//W3C//DTD SVG 1.1//EN"
  "http://www.w3.org/Graphics/SVG/1.1/DTD/svg11.dtd">
<svg xmlns:xlink="http://www.w3.org/1999/xlink" width="216pt" height="122.4pt" viewBox="0 0 216 122.4" xmlns="http://www.w3.org/2000/svg" version="1.1">
  <style>
    :root {
      --fg-color: #212529;
      --grid-color: rgba(33, 37, 41, 0.1);
    }
    @media (prefers-color-scheme: dark) {
      :root {
        --fg-color: #dee2e6;
        --grid-color: rgba(248, 249, 250, 0.15);
      }
    }
  </style>

 <metadata>
  <rdf:RDF xmlns:dc="http://purl.org/dc/elements/1.1/" xmlns:cc="http://creativecommons.org/ns#" xmlns:rdf="http://www.w3.org/1999/02/22-rdf-syntax-ns#">
   <cc:Work>
    <dc:type rdf:resource="http://purl.org/dc/dcmitype/StillImage"/>
    <dc:date>2026-06-30T15:37:49.194170</dc:date>
    <dc:format>image/svg+xml</dc:format>
    <dc:creator>
     <cc:Agent>
      <dc:title>Matplotlib v3.11.0, https://matplotlib.org/</dc:title>
     </cc:Agent>
    </dc:creator>
   </cc:Work>
  </rdf:RDF>
 </metadata>
 <defs>
  <style type="text/css">*{stroke-linejoin: round; stroke-linecap: butt}</style>
 </defs>
 <g id="figure_1">
  <g id="patch_1">
   <path d="M 0 122.4 
L 216 122.4 
L 216 0 
L 0 0 
L 0 122.4 
z
" style="fill: none; opacity: 0"/>
  </g>
  <g id="axes_1">
   <g id="patch_2">
    <path d="M 35.96 103.4 
L 211 103.4 
L 211 5 
L 35.96 5 
L 35.96 103.4 
z
" style="fill: none; opacity: 0"/>
   </g>
   <g id="matplotlib.axis_1">
    <g id="xtick_1">
     <g id="line2d_1">
      <path d="M 69.784035 103.4 
L 69.784035 5 
" clip-path="url(#p8847d8fc03)" style="fill: none; stroke-dasharray: 2.96,1.28; stroke-dashoffset: 0; stroke: var(--grid-color); stroke-width: 0.8"/>
     </g>
     <g id="line2d_2">
      <defs>
       <path id="mf0b0b720a9" d="M 0 0 
L 0 3.5 
" style="stroke: var(--fg-color); stroke-width: 0.8"/>
      </defs>
      <g>
       <use xlink:href="#mf0b0b720a9" x="69.784035" y="103.4" style="fill: var(--fg-color); stroke: var(--fg-color); stroke-width: 0.8"/>
      </g>
     </g>
     <g id="text_1">
      <text style="font-size: 7px; font-family: 'DejaVu Sans', 'Bitstream Vera Sans', 'Computer Modern Sans Serif', 'Lucida Grande', 'Verdana', 'Geneva', 'Lucid', 'Arial', 'Helvetica', 'Avant Garde', sans-serif; text-anchor: middle; fill: var(--fg-color)" x="69.784035" y="115.718359" transform="rotate(-0 69.784035 115.718359)">02/2026</text>
     </g>
    </g>
    <g id="xtick_2">
     <g id="line2d_3">
      <path d="M 122.345302 103.4 
L 122.345302 5 
" clip-path="url(#p8847d8fc03)" style="fill: none; stroke-dasharray: 2.96,1.28; stroke-dashoffset: 0; stroke: var(--grid-color); stroke-width: 0.8"/>
     </g>
     <g id="line2d_4">
      <g>
       <use xlink:href="#mf0b0b720a9" x="122.345302" y="103.4" style="fill: var(--fg-color); stroke: var(--fg-color); stroke-width: 0.8"/>
      </g>
     </g>
     <g id="text_2">
      <text style="font-size: 7px; font-family: 'DejaVu Sans', 'Bitstream Vera Sans', 'Computer Modern Sans Serif', 'Lucida Grande', 'Verdana', 'Geneva', 'Lucid', 'Arial', 'Helvetica', 'Avant Garde', sans-serif; text-anchor: middle; fill: var(--fg-color)" x="122.345302" y="115.718359" transform="rotate(-0 122.345302 115.718359)">04/2026</text>
     </g>
    </g>
    <g id="xtick_3">
     <g id="line2d_5">
      <path d="M 176.688307 103.4 
L 176.688307 5 
" clip-path="url(#p8847d8fc03)" style="fill: none; stroke-dasharray: 2.96,1.28; stroke-dashoffset: 0; stroke: var(--grid-color); stroke-width: 0.8"/>
     </g>
     <g id="line2d_6">
      <g>
       <use xlink:href="#mf0b0b720a9" x="176.688307" y="103.4" style="fill: var(--fg-color); stroke: var(--fg-color); stroke-width: 0.8"/>
      </g>
     </g>
     <g id="text_3">
      <text style="font-size: 7px; font-family: 'DejaVu Sans', 'Bitstream Vera Sans', 'Computer Modern Sans Serif', 'Lucida Grande', 'Verdana', 'Geneva', 'Lucid', 'Arial', 'Helvetica', 'Avant Garde', sans-serif; text-anchor: middle; fill: var(--fg-color)" x="176.688307" y="115.718359" transform="rotate(-0 176.688307 115.718359)">06/2026</text>
     </g>
    </g>
   </g>
   <g id="matplotlib.axis_2">
    <g id="ytick_1">
     <g id="line2d_7">
      <path d="M 35.96 99.471024 
L 211 99.471024 
" clip-path="url(#p8847d8fc03)" style="fill: none; stroke-dasharray: 2.96,1.28; stroke-dashoffset: 0; stroke: var(--grid-color); stroke-width: 0.8"/>
     </g>
     <g id="line2d_8">
      <defs>
       <path id="m233e6edb89" d="M 0 0 
L -3.5 0 
" style="stroke: var(--fg-color); stroke-width: 0.8"/>
      </defs>
      <g>
       <use xlink:href="#m233e6edb89" x="35.96" y="99.471024" style="fill: var(--fg-color); stroke: var(--fg-color); stroke-width: 0.8"/>
      </g>
     </g>
     <g id="text_4">
      <text style="font-size: 7px; font-family: 'DejaVu Sans', 'Bitstream Vera Sans', 'Computer Modern Sans Serif', 'Lucida Grande', 'Verdana', 'Geneva', 'Lucid', 'Arial', 'Helvetica', 'Avant Garde', sans-serif; text-anchor: end; fill: var(--fg-color)" x="28.96" y="102.130203" transform="rotate(-0 28.96 102.130203)">0</text>
     </g>
    </g>
    <g id="ytick_2">
     <g id="line2d_9">
      <path d="M 35.96 79.196936 
L 211 79.196936 
" clip-path="url(#p8847d8fc03)" style="fill: none; stroke-dasharray: 2.96,1.28; stroke-dashoffset: 0; stroke: var(--grid-color); stroke-width: 0.8"/>
     </g>
     <g id="line2d_10">
      <g>
       <use xlink:href="#m233e6edb89" x="35.96" y="79.196936" style="fill: var(--fg-color); stroke: var(--fg-color); stroke-width: 0.8"/>
      </g>
     </g>
     <g id="text_5">
      <text style="font-size: 7px; font-family: 'DejaVu Sans', 'Bitstream Vera Sans', 'Computer Modern Sans Serif', 'Lucida Grande', 'Verdana', 'Geneva', 'Lucid', 'Arial', 'Helvetica', 'Avant Garde', sans-serif; text-anchor: end; fill: var(--fg-color)" x="28.96" y="81.856116" transform="rotate(-0 28.96 81.856116)">50</text>
     </g>
    </g>
    <g id="ytick_3">
     <g id="line2d_11">
      <path d="M 35.96 58.922849 
L 211 58.922849 
" clip-path="url(#p8847d8fc03)" style="fill: none; stroke-dasharray: 2.96,1.28; stroke-dashoffset: 0; stroke: var(--grid-color); stroke-width: 0.8"/>
     </g>
     <g id="line2d_12">
      <g>
       <use xlink:href="#m233e6edb89" x="35.96" y="58.922849" style="fill: var(--fg-color); stroke: var(--fg-color); stroke-width: 0.8"/>
      </g>
     </g>
     <g id="text_6">
      <text style="font-size: 7px; font-family: 'DejaVu Sans', 'Bitstream Vera Sans', 'Computer Modern Sans Serif', 'Lucida Grande', 'Verdana', 'Geneva', 'Lucid', 'Arial', 'Helvetica', 'Avant Garde', sans-serif; text-anchor: end; fill: var(--fg-color)" x="28.96" y="61.582028" transform="rotate(-0 28.96 61.582028)">100</text>
     </g>
    </g>
    <g id="ytick_4">
     <g id="line2d_13">
      <path d="M 35.96 38.648761 
L 211 38.648761 
" clip-path="url(#p8847d8fc03)" style="fill: none; stroke-dasharray: 2.96,1.28; stroke-dashoffset: 0; stroke: var(--grid-color); stroke-width: 0.8"/>
     </g>
     <g id="line2d_14">
      <g>
       <use xlink:href="#m233e6edb89" x="35.96" y="38.648761" style="fill: var(--fg-color); stroke: var(--fg-color); stroke-width: 0.8"/>
      </g>
     </g>
     <g id="text_7">
      <text style="font-size: 7px; font-family: 'DejaVu Sans', 'Bitstream Vera Sans', 'Computer Modern Sans Serif', 'Lucida Grande', 'Verdana', 'Geneva', 'Lucid', 'Arial', 'Helvetica', 'Avant Garde', sans-serif; text-anchor: end; fill: var(--fg-color)" x="28.96" y="41.307941" transform="rotate(-0 28.96 41.307941)">150</text>
     </g>
    </g>
    <g id="ytick_5">
     <g id="line2d_15">
      <path d="M 35.96 18.374674 
L 211 18.374674 
" clip-path="url(#p8847d8fc03)" style="fill: none; stroke-dasharray: 2.96,1.28; stroke-dashoffset: 0; stroke: var(--grid-color); stroke-width: 0.8"/>
     </g>
     <g id="line2d_16">
      <g>
       <use xlink:href="#m233e6edb89" x="35.96" y="18.374674" style="fill: var(--fg-color); stroke: var(--fg-color); stroke-width: 0.8"/>
      </g>
     </g>
     <g id="text_8">
      <text style="font-size: 7px; font-family: 'DejaVu Sans', 'Bitstream Vera Sans', 'Computer Modern Sans Serif', 'Lucida Grande', 'Verdana', 'Geneva', 'Lucid', 'Arial', 'Helvetica', 'Avant Garde', sans-serif; text-anchor: end; fill: var(--fg-color)" x="28.96" y="21.033853" transform="rotate(-0 28.96 21.033853)">200</text>
     </g>
    </g>
    <g id="text_9">
     <text style="font-size: 7px; font-family: 'DejaVu Sans', 'Bitstream Vera Sans', 'Computer Modern Sans Serif', 'Lucida Grande', 'Verdana', 'Geneva', 'Lucid', 'Arial', 'Helvetica', 'Avant Garde', sans-serif; text-anchor: middle; fill: var(--fg-color)" x="9.917109" y="54.2" transform="rotate(-90 9.917109 54.2)">ms</text>
    </g>
   </g>
   <g id="line2d_17">
    <path d="M 43.916364 38.087169 
L 44.468628 39.424042 
L 45.3595 38.669846 
L 46.250371 30.315706 
L 47.141245 25.79499 
L 48.032112 27.717784 
L 48.922979 39.369302 
L 49.81384 38.964631 
L 50.704717 46.999252 
L 51.595589 37.684526 
L 52.486458 39.180753 
L 53.377327 24.72614 
L 54.268192 40.487215 
L 55.159063 35.341652 
L 56.049934 38.351949 
L 56.940797 34.254961 
L 57.831669 40.792543 
L 58.722538 25.027007 
L 60.504275 42.92781 
L 61.395144 24.764661 
L 62.286016 32.492332 
L 63.176879 43.260305 
L 64.067746 46.768939 
L 65.84949 23.521048 
L 66.740361 35.02862 
L 67.631226 41.423878 
L 68.522078 37.301751 
L 69.412965 26.194795 
L 70.30383 38.236792 
L 71.194705 26.9571 
L 72.085571 36.550799 
L 72.976442 32.493548 
L 73.867306 27.297705 
L 74.758184 40.569934 
L 75.649039 33.71121 
L 76.539914 34.855885 
L 77.430784 42.473265 
L 78.321655 22.542215 
L 79.212509 36.716235 
L 80.103391 36.256824 
L 80.994245 37.394201 
L 81.885129 37.026429 
L 82.775998 31.401991 
L 84.557735 33.703506 
L 85.44861 36.908839 
L 94.53997 33.793928 
L 95.248438 38.097306 
L 96.139324 31.117749 
L 97.030192 15.818517 
L 97.921065 30.675773 
L 98.811931 28.939906 
L 99.702798 39.354299 
L 100.593666 37.350409 
L 101.484533 29.488523 
L 102.375401 29.217256 
L 103.266272 28.773253 
L 104.157138 28.592408 
L 105.048009 34.640574 
L 105.93888 25.22326 
L 106.829748 43.898939 
L 107.720614 32.919304 
L 108.611487 18.1399 
L 109.502352 34.39323 
L 110.393224 19.437441 
L 111.284094 43.192184 
L 112.17496 32.793199 
L 113.065834 38.008505 
L 113.956695 32.313514 
L 114.847564 37.553149 
L 115.738441 37.297696 
L 116.629309 31.934794 
L 117.520178 25.835132 
L 118.41104 35.60927 
L 119.301913 24.874546 
L 120.192782 42.176047 
L 121.083649 26.167222 
L 121.97452 35.301509 
L 125.537994 31.52323 
L 126.428869 45.479912 
L 127.319734 24.248077 
L 128.210603 28.315464 
L 129.101474 27.189036 
L 129.992342 21.000979 
L 130.883214 30.684694 
L 131.774065 27.714135 
L 132.664946 34.533121 
L 133.55582 23.836513 
L 134.446686 34.547313 
L 135.337558 33.932197 
L 136.228424 26.574326 
L 137.119294 27.817533 
L 138.010159 32.753057 
L 138.901032 42.271335 
L 139.791912 19.917126 
L 140.68277 34.245229 
L 141.57364 30.243124 
L 142.464507 20.949888 
L 143.355376 39.629216 
L 144.246246 30.712267 
L 145.137113 35.963256 
L 146.027984 35.413017 
L 146.918849 24.619498 
L 173.644977 24.619498 
L 181.959197 28.78704 
L 182.553652 35.820526 
L 183.444521 25.813642 
L 184.335387 31.757599 
L 185.226256 30.127157 
L 186.117131 40.138501 
L 187.007996 26.040712 
L 187.898864 33.463866 
L 188.789731 35.205816 
L 189.680603 28.252615 
L 190.571474 33.109069 
L 191.462343 14.180776 
L 192.353215 10.921108 
L 193.244077 29.070877 
L 194.134949 27.683318 
L 195.025817 27.581542 
L 195.916688 14.019394 
L 196.807557 30.528178 
L 197.698426 32.014674 
L 198.589295 34.350655 
L 199.480162 17.444093 
L 200.371032 9.472727 
L 201.261898 24.204285 
L 203.043636 42.20362 
L 203.043636 42.20362 
" clip-path="url(#p8847d8fc03)" style="fill: none; stroke: #339af0; stroke-width: 1.2; stroke-linecap: square"/>
   </g>
   <g id="line2d_18">
    <path d="M 43.916364 98.86199 
L 48.032112 98.795491 
L 52.486458 98.860368 
L 53.377327 98.221734 
L 54.268192 98.815765 
L 55.159063 98.87902 
L 56.940797 98.85753 
L 77.430784 98.866856 
L 78.321655 98.683984 
L 79.212509 98.872938 
L 81.885129 98.87902 
L 85.44861 98.852259 
L 96.139324 98.804412 
L 99.702798 98.877804 
L 101.484533 98.864829 
L 102.375401 97.400634 
L 103.266272 98.528279 
L 104.157138 98.927273 
L 107.720614 98.885508 
L 108.611487 93.145103 
L 109.502352 98.87902 
L 110.393224 98.802384 
L 112.17496 98.884697 
L 114.847564 98.901322 
L 115.738441 98.749266 
L 116.629309 98.855502 
L 118.41104 98.791436 
L 119.301913 98.626811 
L 120.192782 98.858341 
L 126.428869 98.843338 
L 127.319734 97.441993 
L 128.210603 98.86564 
L 130.883214 98.875371 
L 131.774065 98.205515 
L 132.664946 98.842527 
L 142.464507 98.756159 
L 143.355376 98.864829 
L 146.918849 98.81982 
L 190.571474 98.835634 
L 191.462343 98.504355 
L 192.353215 98.827119 
L 196.807557 98.799546 
L 198.589295 98.827119 
L 199.480162 98.757376 
L 201.261898 98.858746 
L 203.043636 98.821037 
L 203.043636 98.821037 
" clip-path="url(#p8847d8fc03)" style="fill: none; stroke: #ff6b6b; stroke-width: 1.2; stroke-linecap: square"/>
   </g>
   <g id="patch_3">
    <path d="M 35.96 103.4 
L 35.96 5 
" style="fill: none; stroke: var(--fg-color); stroke-width: 0.8; stroke-linejoin: miter; stroke-linecap: square"/>
   </g>
   <g id="patch_4">
    <path d="M 35.96 103.4 
L 211 103.4 
" style="fill: none; stroke: var(--fg-color); stroke-width: 0.8; stroke-linejoin: miter; stroke-linecap: square"/>
   </g>
  </g>
 </g>
 <defs>
  <clipPath id="p8847d8fc03">
   <rect x="35.96" y="5" width="175.04" height="98.4"/>
  </clipPath>
 </defs>
</svg>
