<?xml version="1.0" encoding="utf-8" standalone="no"?>
<!DOCTYPE svg PUBLIC "-//W3C//DTD SVG 1.1//EN"
  "http://www.w3.org/Graphics/SVG/1.1/DTD/svg11.dtd">
<svg xmlns:xlink="http://www.w3.org/1999/xlink" width="216pt" height="122.4pt" viewBox="0 0 216 122.4" xmlns="http://www.w3.org/2000/svg" version="1.1">
  <style>
    :root {
      --fg-color: #212529;
      --grid-color: rgba(33, 37, 41, 0.1);
    }
    @media (prefers-color-scheme: dark) {
      :root {
        --fg-color: #dee2e6;
        --grid-color: rgba(248, 249, 250, 0.15);
      }
    }
  </style>

 <metadata>
  <rdf:RDF xmlns:dc="http://purl.org/dc/elements/1.1/" xmlns:cc="http://creativecommons.org/ns#" xmlns:rdf="http://www.w3.org/1999/02/22-rdf-syntax-ns#">
   <cc:Work>
    <dc:type rdf:resource="http://purl.org/dc/dcmitype/StillImage"/>
    <dc:date>2026-06-30T15:36:48.971961</dc:date>
    <dc:format>image/svg+xml</dc:format>
    <dc:creator>
     <cc:Agent>
      <dc:title>Matplotlib v3.11.0, https://matplotlib.org/</dc:title>
     </cc:Agent>
    </dc:creator>
   </cc:Work>
  </rdf:RDF>
 </metadata>
 <defs>
  <style type="text/css">*{stroke-linejoin: round; stroke-linecap: butt}</style>
 </defs>
 <g id="figure_1">
  <g id="patch_1">
   <path d="M 0 122.4 
L 216 122.4 
L 216 0 
L 0 0 
L 0 122.4 
z
" style="fill: none; opacity: 0"/>
  </g>
  <g id="axes_1">
   <g id="patch_2">
    <path d="M 31.64 103.4 
L 211 103.4 
L 211 5 
L 31.64 5 
L 31.64 103.4 
z
" style="fill: none; opacity: 0"/>
   </g>
   <g id="matplotlib.axis_1">
    <g id="xtick_1">
     <g id="line2d_1">
      <path d="M 66.298815 103.4 
L 66.298815 5 
" clip-path="url(#p71a5089a16)" style="fill: none; stroke-dasharray: 2.96,1.28; stroke-dashoffset: 0; stroke: var(--grid-color); stroke-width: 0.8"/>
     </g>
     <g id="line2d_2">
      <defs>
       <path id="m31d420ea7e" d="M 0 0 
L 0 3.5 
" style="stroke: var(--fg-color); stroke-width: 0.8"/>
      </defs>
      <g>
       <use xlink:href="#m31d420ea7e" x="66.298815" y="103.4" style="fill: var(--fg-color); stroke: var(--fg-color); stroke-width: 0.8"/>
      </g>
     </g>
     <g id="text_1">
      <text style="font-size: 7px; font-family: 'DejaVu Sans', 'Bitstream Vera Sans', 'Computer Modern Sans Serif', 'Lucida Grande', 'Verdana', 'Geneva', 'Lucid', 'Arial', 'Helvetica', 'Avant Garde', sans-serif; text-anchor: middle; fill: var(--fg-color)" x="66.298815" y="115.718359" transform="rotate(-0 66.298815 115.718359)">02/2026</text>
     </g>
    </g>
    <g id="xtick_2">
     <g id="line2d_3">
      <path d="M 120.157298 103.4 
L 120.157298 5 
" clip-path="url(#p71a5089a16)" style="fill: none; stroke-dasharray: 2.96,1.28; stroke-dashoffset: 0; stroke: var(--grid-color); stroke-width: 0.8"/>
     </g>
     <g id="line2d_4">
      <g>
       <use xlink:href="#m31d420ea7e" x="120.157298" y="103.4" style="fill: var(--fg-color); stroke: var(--fg-color); stroke-width: 0.8"/>
      </g>
     </g>
     <g id="text_2">
      <text style="font-size: 7px; font-family: 'DejaVu Sans', 'Bitstream Vera Sans', 'Computer Modern Sans Serif', 'Lucida Grande', 'Verdana', 'Geneva', 'Lucid', 'Arial', 'Helvetica', 'Avant Garde', sans-serif; text-anchor: middle; fill: var(--fg-color)" x="120.157298" y="115.718359" transform="rotate(-0 120.157298 115.718359)">04/2026</text>
     </g>
    </g>
    <g id="xtick_3">
     <g id="line2d_5">
      <path d="M 175.841492 103.4 
L 175.841492 5 
" clip-path="url(#p71a5089a16)" style="fill: none; stroke-dasharray: 2.96,1.28; stroke-dashoffset: 0; stroke: var(--grid-color); stroke-width: 0.8"/>
     </g>
     <g id="line2d_6">
      <g>
       <use xlink:href="#m31d420ea7e" x="175.841492" y="103.4" style="fill: var(--fg-color); stroke: var(--fg-color); stroke-width: 0.8"/>
      </g>
     </g>
     <g id="text_3">
      <text style="font-size: 7px; font-family: 'DejaVu Sans', 'Bitstream Vera Sans', 'Computer Modern Sans Serif', 'Lucida Grande', 'Verdana', 'Geneva', 'Lucid', 'Arial', 'Helvetica', 'Avant Garde', sans-serif; text-anchor: middle; fill: var(--fg-color)" x="175.841492" y="115.718359" transform="rotate(-0 175.841492 115.718359)">06/2026</text>
     </g>
    </g>
   </g>
   <g id="matplotlib.axis_2">
    <g id="ytick_1">
     <g id="line2d_7">
      <path d="M 31.64 100.04591 
L 211 100.04591 
" clip-path="url(#p71a5089a16)" style="fill: none; stroke-dasharray: 2.96,1.28; stroke-dashoffset: 0; stroke: var(--grid-color); stroke-width: 0.8"/>
     </g>
     <g id="line2d_8">
      <defs>
       <path id="me6b6c334fd" d="M 0 0 
L -3.5 0 
" style="stroke: var(--fg-color); stroke-width: 0.8"/>
      </defs>
      <g>
       <use xlink:href="#me6b6c334fd" x="31.64" y="100.04591" style="fill: var(--fg-color); stroke: var(--fg-color); stroke-width: 0.8"/>
      </g>
     </g>
     <g id="text_4">
      <text style="font-size: 7px; font-family: 'DejaVu Sans', 'Bitstream Vera Sans', 'Computer Modern Sans Serif', 'Lucida Grande', 'Verdana', 'Geneva', 'Lucid', 'Arial', 'Helvetica', 'Avant Garde', sans-serif; text-anchor: end; fill: var(--fg-color)" x="24.64" y="102.70509" transform="rotate(-0 24.64 102.70509)">0</text>
     </g>
    </g>
    <g id="ytick_2">
     <g id="line2d_9">
      <path d="M 31.64 79.79908 
L 211 79.79908 
" clip-path="url(#p71a5089a16)" style="fill: none; stroke-dasharray: 2.96,1.28; stroke-dashoffset: 0; stroke: var(--grid-color); stroke-width: 0.8"/>
     </g>
     <g id="line2d_10">
      <g>
       <use xlink:href="#me6b6c334fd" x="31.64" y="79.79908" style="fill: var(--fg-color); stroke: var(--fg-color); stroke-width: 0.8"/>
      </g>
     </g>
     <g id="text_5">
      <text style="font-size: 7px; font-family: 'DejaVu Sans', 'Bitstream Vera Sans', 'Computer Modern Sans Serif', 'Lucida Grande', 'Verdana', 'Geneva', 'Lucid', 'Arial', 'Helvetica', 'Avant Garde', sans-serif; text-anchor: end; fill: var(--fg-color)" x="24.64" y="82.45826" transform="rotate(-0 24.64 82.45826)">20</text>
     </g>
    </g>
    <g id="ytick_3">
     <g id="line2d_11">
      <path d="M 31.64 59.55225 
L 211 59.55225 
" clip-path="url(#p71a5089a16)" style="fill: none; stroke-dasharray: 2.96,1.28; stroke-dashoffset: 0; stroke: var(--grid-color); stroke-width: 0.8"/>
     </g>
     <g id="line2d_12">
      <g>
       <use xlink:href="#me6b6c334fd" x="31.64" y="59.55225" style="fill: var(--fg-color); stroke: var(--fg-color); stroke-width: 0.8"/>
      </g>
     </g>
     <g id="text_6">
      <text style="font-size: 7px; font-family: 'DejaVu Sans', 'Bitstream Vera Sans', 'Computer Modern Sans Serif', 'Lucida Grande', 'Verdana', 'Geneva', 'Lucid', 'Arial', 'Helvetica', 'Avant Garde', sans-serif; text-anchor: end; fill: var(--fg-color)" x="24.64" y="62.211429" transform="rotate(-0 24.64 62.211429)">40</text>
     </g>
    </g>
    <g id="ytick_4">
     <g id="line2d_13">
      <path d="M 31.64 39.305419 
L 211 39.305419 
" clip-path="url(#p71a5089a16)" style="fill: none; stroke-dasharray: 2.96,1.28; stroke-dashoffset: 0; stroke: var(--grid-color); stroke-width: 0.8"/>
     </g>
     <g id="line2d_14">
      <g>
       <use xlink:href="#me6b6c334fd" x="31.64" y="39.305419" style="fill: var(--fg-color); stroke: var(--fg-color); stroke-width: 0.8"/>
      </g>
     </g>
     <g id="text_7">
      <text style="font-size: 7px; font-family: 'DejaVu Sans', 'Bitstream Vera Sans', 'Computer Modern Sans Serif', 'Lucida Grande', 'Verdana', 'Geneva', 'Lucid', 'Arial', 'Helvetica', 'Avant Garde', sans-serif; text-anchor: end; fill: var(--fg-color)" x="24.64" y="41.964599" transform="rotate(-0 24.64 41.964599)">60</text>
     </g>
    </g>
    <g id="ytick_5">
     <g id="line2d_15">
      <path d="M 31.64 19.058589 
L 211 19.058589 
" clip-path="url(#p71a5089a16)" style="fill: none; stroke-dasharray: 2.96,1.28; stroke-dashoffset: 0; stroke: var(--grid-color); stroke-width: 0.8"/>
     </g>
     <g id="line2d_16">
      <g>
       <use xlink:href="#me6b6c334fd" x="31.64" y="19.058589" style="fill: var(--fg-color); stroke: var(--fg-color); stroke-width: 0.8"/>
      </g>
     </g>
     <g id="text_8">
      <text style="font-size: 7px; font-family: 'DejaVu Sans', 'Bitstream Vera Sans', 'Computer Modern Sans Serif', 'Lucida Grande', 'Verdana', 'Geneva', 'Lucid', 'Arial', 'Helvetica', 'Avant Garde', sans-serif; text-anchor: end; fill: var(--fg-color)" x="24.64" y="21.717769" transform="rotate(-0 24.64 21.717769)">80</text>
     </g>
    </g>
    <g id="text_9">
     <text style="font-size: 7px; font-family: 'DejaVu Sans', 'Bitstream Vera Sans', 'Computer Modern Sans Serif', 'Lucida Grande', 'Verdana', 'Geneva', 'Lucid', 'Arial', 'Helvetica', 'Avant Garde', sans-serif; text-anchor: middle; fill: var(--fg-color)" x="10.050859" y="54.2" transform="rotate(-90 10.050859 54.2)">ms</text>
    </g>
   </g>
   <g id="line2d_17">
    <path d="M 39.792727 24.032223 
L 40.358622 32.417448 
L 41.271481 34.100972 
L 42.184338 36.472888 
L 43.097199 32.16335 
L 44.010052 32.063128 
L 44.922906 32.234214 
L 45.835753 32.734311 
L 46.748617 34.030108 
L 47.661476 31.216811 
L 48.574332 29.357139 
L 49.487188 31.667303 
L 50.40004 34.8005 
L 51.312897 29.924051 
L 52.225755 37.157231 
L 53.138604 35.600249 
L 54.051463 31.474958 
L 54.964319 36.112494 
L 55.877175 32.511595 
L 56.79003 34.980696 
L 57.702885 24.790467 
L 58.615744 31.604537 
L 59.528593 35.765261 
L 60.441447 30.159926 
L 61.35431 32.599669 
L 62.267165 37.396143 
L 63.180022 30.882738 
L 64.092874 33.383221 
L 65.005713 33.724381 
L 65.918587 29.891656 
L 66.831438 34.517044 
L 67.7443 30.731899 
L 68.657153 33.515838 
L 69.57001 38.029869 
L 70.482861 35.683261 
L 71.395726 37.86587 
L 72.308567 35.124449 
L 73.221429 33.191889 
L 74.134286 33.236432 
L 75.047144 30.517283 
L 75.959984 35.286424 
L 76.872853 24.938269 
L 77.785693 37.03575 
L 78.698564 34.33786 
L 79.61142 34.805561 
L 80.524278 32.044906 
L 81.43713 33.226309 
L 82.349993 36.496172 
L 91.665728 37.508513 
L 92.391681 39.275049 
L 93.304554 39.345913 
L 94.217409 39.978626 
L 95.130269 37.649229 
L 96.043122 29.497855 
L 96.955975 40.186156 
L 97.868829 40.415958 
L 98.781684 39.31858 
L 99.694538 33.790183 
L 100.607396 34.367217 
L 101.520248 30.460592 
L 102.433106 39.422851 
L 103.345963 38.418608 
L 104.258819 36.398987 
L 105.171671 40.306625 
L 106.084531 28.287094 
L 106.997383 34.483637 
L 107.910242 37.197724 
L 108.823098 33.654529 
L 109.735951 34.014923 
L 110.648812 34.499834 
L 111.561659 39.085741 
L 112.474515 36.008223 
L 113.387379 33.460159 
L 114.300233 34.825808 
L 115.213089 34.705339 
L 116.125938 32.018585 
L 117.038797 35.546595 
L 117.951653 29.358152 
L 118.864507 34.259909 
L 119.777364 30.64585 
L 123.428785 34.911857 
L 124.341647 31.329181 
L 125.254499 30.930318 
L 126.167355 36.191457 
L 127.080212 36.446567 
L 127.993067 32.927668 
L 128.905926 30.084 
L 129.818763 35.526348 
L 130.731631 34.19107 
L 131.644492 25.625648 
L 132.557344 30.835158 
L 133.470203 33.15342 
L 134.383056 27.554159 
L 136.208765 31.431427 
L 137.121624 32.864903 
L 138.034491 29.950371 
L 138.947335 24.754022 
L 139.860192 31.120638 
L 140.773046 26.617743 
L 141.685902 30.774417 
L 142.598758 37.081305 
L 143.511612 31.325131 
L 144.42447 30.119432 
L 145.337321 29.774224 
L 172.723053 29.774224 
L 181.242468 31.81308 
L 181.851594 26.424386 
L 182.764449 31.39397 
L 184.590158 22.369958 
L 185.503019 31.052811 
L 186.415872 27.612875 
L 187.328726 30.493999 
L 188.24158 32.659397 
L 190.067296 9.472727 
L 190.980152 12.178716 
L 191.893011 27.043939 
L 192.80586 23.954273 
L 193.718718 15.495147 
L 194.631573 29.727656 
L 195.544431 28.870203 
L 196.457286 18.303382 
L 197.370142 26.656212 
L 198.282997 24.216469 
L 199.195852 19.497945 
L 200.108708 28.470328 
L 201.021561 29.806619 
L 201.934415 28.829709 
L 202.847273 30.234839 
L 202.847273 30.234839 
" clip-path="url(#p71a5089a16)" style="fill: none; stroke: #339af0; stroke-width: 1.2; stroke-linecap: square"/>
   </g>
   <g id="line2d_18">
    <path d="M 39.792727 98.590163 
L 40.358622 98.776434 
L 42.184338 98.827051 
L 44.010052 98.564854 
L 44.922906 98.793644 
L 46.748617 98.875643 
L 47.661476 98.759224 
L 48.574332 98.834137 
L 49.487188 98.727841 
L 54.051463 98.775422 
L 55.877175 98.638755 
L 56.79003 98.772384 
L 57.702885 98.661027 
L 62.267165 98.890828 
L 65.005713 98.689372 
L 66.831438 98.829076 
L 67.7443 98.538534 
L 69.57001 98.80073 
L 72.308567 98.843248 
L 73.221429 98.727841 
L 74.134286 98.841224 
L 75.047144 98.597249 
L 75.959984 98.757199 
L 77.785693 98.741002 
L 79.61142 98.840211 
L 80.524278 98.715693 
L 82.349993 98.814903 
L 95.130269 98.827051 
L 96.043122 98.757199 
L 97.868829 98.911075 
L 98.781684 98.462608 
L 99.694538 98.768335 
L 101.520248 98.639768 
L 102.433106 98.841224 
L 103.345963 98.795668 
L 104.258819 98.893865 
L 106.084531 98.724804 
L 106.997383 98.854384 
L 108.823098 98.801742 
L 109.735951 98.151819 
L 110.648812 98.059696 
L 111.561659 98.884754 
L 112.474515 98.87868 
L 113.387379 98.726829 
L 114.300233 98.352263 
L 115.213089 98.767323 
L 118.864507 98.689372 
L 119.777364 98.775422 
L 124.341647 98.686335 
L 125.254499 98.589151 
L 127.080212 98.746064 
L 128.905926 98.632681 
L 129.818763 98.805792 
L 130.731631 98.55878 
L 131.644492 98.794656 
L 132.557344 98.70557 
L 135.295912 98.736953 
L 137.121624 98.647866 
L 138.034491 98.382633 
L 138.947335 98.778459 
L 140.773046 98.701521 
L 145.337321 98.685323 
L 181.851594 98.664064 
L 182.764449 98.818952 
L 184.590158 98.254066 
L 185.503019 98.71873 
L 187.328726 98.738977 
L 188.24158 98.748088 
L 189.154439 96.428814 
L 190.067296 98.695447 
L 190.980152 98.719743 
L 191.893011 98.42009 
L 192.80586 98.599274 
L 195.544431 98.726829 
L 197.370142 98.681274 
L 198.282997 98.742014 
L 199.195852 98.651916 
L 200.108708 98.824014 
L 201.021561 98.828063 
L 201.934415 98.71873 
L 202.847273 98.830088 
L 202.847273 98.830088 
" clip-path="url(#p71a5089a16)" style="fill: none; stroke: #ff6b6b; stroke-width: 1.2; stroke-linecap: square"/>
   </g>
   <g id="patch_3">
    <path d="M 31.64 103.4 
L 31.64 5 
" style="fill: none; stroke: var(--fg-color); stroke-width: 0.8; stroke-linejoin: miter; stroke-linecap: square"/>
   </g>
   <g id="patch_4">
    <path d="M 31.64 103.4 
L 211 103.4 
" style="fill: none; stroke: var(--fg-color); stroke-width: 0.8; stroke-linejoin: miter; stroke-linecap: square"/>
   </g>
  </g>
 </g>
 <defs>
  <clipPath id="p71a5089a16">
   <rect x="31.64" y="5" width="179.36" height="98.4"/>
  </clipPath>
 </defs>
</svg>
