<?xml version="1.0" encoding="utf-8" standalone="no"?>
<!DOCTYPE svg PUBLIC "-//W3C//DTD SVG 1.1//EN"
  "http://www.w3.org/Graphics/SVG/1.1/DTD/svg11.dtd">
<svg xmlns:xlink="http://www.w3.org/1999/xlink" width="216pt" height="122.4pt" viewBox="0 0 216 122.4" xmlns="http://www.w3.org/2000/svg" version="1.1">
  <style>
    :root {
      --fg-color: #212529;
      --grid-color: rgba(33, 37, 41, 0.1);
    }
    @media (prefers-color-scheme: dark) {
      :root {
        --fg-color: #dee2e6;
        --grid-color: rgba(248, 249, 250, 0.15);
      }
    }
  </style>

 <metadata>
  <rdf:RDF xmlns:dc="http://purl.org/dc/elements/1.1/" xmlns:cc="http://creativecommons.org/ns#" xmlns:rdf="http://www.w3.org/1999/02/22-rdf-syntax-ns#">
   <cc:Work>
    <dc:type rdf:resource="http://purl.org/dc/dcmitype/StillImage"/>
    <dc:date>2026-06-30T04:48:47.370945</dc:date>
    <dc:format>image/svg+xml</dc:format>
    <dc:creator>
     <cc:Agent>
      <dc:title>Matplotlib v3.11.0, https://matplotlib.org/</dc:title>
     </cc:Agent>
    </dc:creator>
   </cc:Work>
  </rdf:RDF>
 </metadata>
 <defs>
  <style type="text/css">*{stroke-linejoin: round; stroke-linecap: butt}</style>
 </defs>
 <g id="figure_1">
  <g id="patch_1">
   <path d="M 0 122.4 
L 216 122.4 
L 216 0 
L 0 0 
L 0 122.4 
z
" style="fill: none; opacity: 0"/>
  </g>
  <g id="axes_1">
   <g id="patch_2">
    <path d="M 35.96 103.4 
L 211 103.4 
L 211 5 
L 35.96 5 
L 35.96 103.4 
z
" style="fill: none; opacity: 0"/>
   </g>
   <g id="matplotlib.axis_1">
    <g id="xtick_1">
     <g id="line2d_1">
      <path d="M 72.056377 103.4 
L 72.056377 5 
" clip-path="url(#p5c7b636f41)" style="fill: none; stroke-dasharray: 2.96,1.28; stroke-dashoffset: 0; stroke: var(--grid-color); stroke-width: 0.8"/>
     </g>
     <g id="line2d_2">
      <defs>
       <path id="mf3034d60d5" d="M 0 0 
L 0 3.5 
" style="stroke: var(--fg-color); stroke-width: 0.8"/>
      </defs>
      <g>
       <use xlink:href="#mf3034d60d5" x="72.056377" y="103.4" style="fill: var(--fg-color); stroke: var(--fg-color); stroke-width: 0.8"/>
      </g>
     </g>
     <g id="text_1">
      <text style="font-size: 7px; font-family: 'DejaVu Sans', 'Bitstream Vera Sans', 'Computer Modern Sans Serif', 'Lucida Grande', 'Verdana', 'Geneva', 'Lucid', 'Arial', 'Helvetica', 'Avant Garde', sans-serif; text-anchor: middle; fill: var(--fg-color)" x="72.056377" y="115.718359" transform="rotate(-0 72.056377 115.718359)">02/2026</text>
     </g>
    </g>
    <g id="xtick_2">
     <g id="line2d_3">
      <path d="M 126.640628 103.4 
L 126.640628 5 
" clip-path="url(#p5c7b636f41)" style="fill: none; stroke-dasharray: 2.96,1.28; stroke-dashoffset: 0; stroke: var(--grid-color); stroke-width: 0.8"/>
     </g>
     <g id="line2d_4">
      <g>
       <use xlink:href="#mf3034d60d5" x="126.640628" y="103.4" style="fill: var(--fg-color); stroke: var(--fg-color); stroke-width: 0.8"/>
      </g>
     </g>
     <g id="text_2">
      <text style="font-size: 7px; font-family: 'DejaVu Sans', 'Bitstream Vera Sans', 'Computer Modern Sans Serif', 'Lucida Grande', 'Verdana', 'Geneva', 'Lucid', 'Arial', 'Helvetica', 'Avant Garde', sans-serif; text-anchor: middle; fill: var(--fg-color)" x="126.640628" y="115.718359" transform="rotate(-0 126.640628 115.718359)">04/2026</text>
     </g>
    </g>
    <g id="xtick_3">
     <g id="line2d_5">
      <path d="M 183.075192 103.4 
L 183.075192 5 
" clip-path="url(#p5c7b636f41)" style="fill: none; stroke-dasharray: 2.96,1.28; stroke-dashoffset: 0; stroke: var(--grid-color); stroke-width: 0.8"/>
     </g>
     <g id="line2d_6">
      <g>
       <use xlink:href="#mf3034d60d5" x="183.075192" y="103.4" style="fill: var(--fg-color); stroke: var(--fg-color); stroke-width: 0.8"/>
      </g>
     </g>
     <g id="text_3">
      <text style="font-size: 7px; font-family: 'DejaVu Sans', 'Bitstream Vera Sans', 'Computer Modern Sans Serif', 'Lucida Grande', 'Verdana', 'Geneva', 'Lucid', 'Arial', 'Helvetica', 'Avant Garde', sans-serif; text-anchor: middle; fill: var(--fg-color)" x="183.075192" y="115.718359" transform="rotate(-0 183.075192 115.718359)">06/2026</text>
     </g>
    </g>
   </g>
   <g id="matplotlib.axis_2">
    <g id="ytick_1">
     <g id="line2d_7">
      <path d="M 35.96 76.654851 
L 211 76.654851 
" clip-path="url(#p5c7b636f41)" style="fill: none; stroke-dasharray: 2.96,1.28; stroke-dashoffset: 0; stroke: var(--grid-color); stroke-width: 0.8"/>
     </g>
     <g id="line2d_8">
      <defs>
       <path id="m95ebfd9c3a" d="M 0 0 
L -3.5 0 
" style="stroke: var(--fg-color); stroke-width: 0.8"/>
      </defs>
      <g>
       <use xlink:href="#m95ebfd9c3a" x="35.96" y="76.654851" style="fill: var(--fg-color); stroke: var(--fg-color); stroke-width: 0.8"/>
      </g>
     </g>
     <g id="text_4">
      <text style="font-size: 7px; font-family: 'DejaVu Sans', 'Bitstream Vera Sans', 'Computer Modern Sans Serif', 'Lucida Grande', 'Verdana', 'Geneva', 'Lucid', 'Arial', 'Helvetica', 'Avant Garde', sans-serif; text-anchor: end; fill: var(--fg-color)" x="28.96" y="79.314031" transform="rotate(-0 28.96 79.314031)">100</text>
     </g>
    </g>
    <g id="ytick_2">
     <g id="line2d_9">
      <path d="M 35.96 49.628166 
L 211 49.628166 
" clip-path="url(#p5c7b636f41)" style="fill: none; stroke-dasharray: 2.96,1.28; stroke-dashoffset: 0; stroke: var(--grid-color); stroke-width: 0.8"/>
     </g>
     <g id="line2d_10">
      <g>
       <use xlink:href="#m95ebfd9c3a" x="35.96" y="49.628166" style="fill: var(--fg-color); stroke: var(--fg-color); stroke-width: 0.8"/>
      </g>
     </g>
     <g id="text_5">
      <text style="font-size: 7px; font-family: 'DejaVu Sans', 'Bitstream Vera Sans', 'Computer Modern Sans Serif', 'Lucida Grande', 'Verdana', 'Geneva', 'Lucid', 'Arial', 'Helvetica', 'Avant Garde', sans-serif; text-anchor: end; fill: var(--fg-color)" x="28.96" y="52.287346" transform="rotate(-0 28.96 52.287346)">200</text>
     </g>
    </g>
    <g id="ytick_3">
     <g id="line2d_11">
      <path d="M 35.96 22.60148 
L 211 22.60148 
" clip-path="url(#p5c7b636f41)" style="fill: none; stroke-dasharray: 2.96,1.28; stroke-dashoffset: 0; stroke: var(--grid-color); stroke-width: 0.8"/>
     </g>
     <g id="line2d_12">
      <g>
       <use xlink:href="#m95ebfd9c3a" x="35.96" y="22.60148" style="fill: var(--fg-color); stroke: var(--fg-color); stroke-width: 0.8"/>
      </g>
     </g>
     <g id="text_6">
      <text style="font-size: 7px; font-family: 'DejaVu Sans', 'Bitstream Vera Sans', 'Computer Modern Sans Serif', 'Lucida Grande', 'Verdana', 'Geneva', 'Lucid', 'Arial', 'Helvetica', 'Avant Garde', sans-serif; text-anchor: end; fill: var(--fg-color)" x="28.96" y="25.26066" transform="rotate(-0 28.96 25.26066)">300</text>
     </g>
    </g>
    <g id="text_7">
     <text style="font-size: 7px; font-family: 'DejaVu Sans', 'Bitstream Vera Sans', 'Computer Modern Sans Serif', 'Lucida Grande', 'Verdana', 'Geneva', 'Lucid', 'Arial', 'Helvetica', 'Avant Garde', sans-serif; text-anchor: middle; fill: var(--fg-color)" x="9.917109" y="54.2" transform="rotate(-90 9.917109 54.2)">ms</text>
    </g>
   </g>
   <g id="line2d_13">
    <path d="M 43.916364 31.662447 
L 45.193108 27.66466 
L 45.766628 38.71425 
L 46.691788 36.963191 
L 47.616947 18.938013 
L 48.542109 22.802289 
L 49.467263 36.418603 
L 50.392418 38.204256 
L 51.317566 31.241912 
L 52.242732 38.335336 
L 53.167891 23.585792 
L 54.093049 15.887241 
L 55.018206 37.997232 
L 55.943359 32.83 
L 56.868517 44.199045 
L 57.793676 15.264546 
L 58.718827 23.781736 
L 59.643987 34.186739 
L 60.569143 29.333287 
L 61.494301 34.844839 
L 62.419457 42.040694 
L 63.344613 21.836895 
L 64.269773 24.713886 
L 65.194924 36.89184 
L 66.120079 39.530996 
L 67.045243 38.526685 
L 67.970398 32.312709 
L 68.895557 13.771862 
L 69.82071 42.035829 
L 70.74585 29.084642 
L 71.671025 36.479954 
L 72.596178 16.104806 
L 73.521341 29.525177 
L 74.446495 26.472512 
L 75.371653 42.928791 
L 76.296805 37.769397 
L 77.221971 36.838598 
L 78.147114 36.514007 
L 79.072277 31.407585 
L 79.997435 22.460942 
L 80.922594 38.017502 
L 81.847735 47.591435 
L 82.772905 23.821735 
L 83.698046 24.796588 
L 84.623219 33.496748 
L 85.548376 31.642447 
L 86.473535 31.909471 
L 87.398688 44.166613 
L 88.323852 11.320542 
L 97.76512 32.081361 
L 98.500856 38.702628 
L 99.426031 27.826549 
L 100.351186 27.951413 
L 101.276348 34.954838 
L 102.201502 26.319271 
L 103.126656 47.376573 
L 104.051812 45.309842 
L 104.976967 38.119122 
L 105.902123 37.581832 
L 106.827282 48.67061 
L 107.752435 32.453518 
L 108.677594 28.552756 
L 109.602753 23.955517 
L 110.527909 45.172276 
L 111.453063 26.367379 
L 112.378223 37.056703 
L 113.303377 44.267963 
L 114.228537 36.637789 
L 115.153695 34.590518 
L 116.078848 43.495811 
L 117.004011 47.487652 
L 117.929158 50.747071 
L 118.854316 33.739988 
L 119.779481 36.164012 
L 120.704637 46.982253 
L 121.629794 41.204218 
L 122.554943 32.362979 
L 123.480104 40.356121 
L 124.405261 41.386108 
L 125.330416 37.419131 
L 126.255574 44.115263 
L 129.9562 45.291464 
L 130.881363 28.247085 
L 131.806516 42.429608 
L 132.731673 46.788472 
L 133.656831 19.272063 
L 134.581987 13.499433 
L 135.507147 10.349743 
L 136.432285 19.186118 
L 137.357455 42.041775 
L 138.282617 36.680492 
L 139.20777 27.211152 
L 140.13293 35.36186 
L 141.058084 38.705331 
L 141.983242 9.472727 
L 142.908395 32.088658 
L 143.833556 39.770182 
L 144.758724 24.694967 
L 145.683869 17.428573 
L 146.609028 30.331112 
L 147.534182 10.148394 
L 148.459339 27.853306 
L 149.384497 38.586143 
L 150.309651 27.711686 
L 151.234811 40.960978 
L 152.159963 31.072725 
L 179.91473 31.072725 
L 188.548948 41.318001 
L 189.166282 52.282457 
L 190.091439 34.793759 
L 191.016594 38.901274 
L 191.94175 46.825228 
L 192.866913 51.006527 
L 193.792066 46.01659 
L 194.717222 45.060926 
L 195.642377 49.468168 
L 196.567536 44.838767 
L 197.492695 48.792501 
L 198.417852 39.760453 
L 199.343013 39.719913 
L 200.268162 45.073629 
L 201.193322 47.925485 
L 202.118478 39.928829 
L 203.043636 46.717392 
" clip-path="url(#p5c7b636f41)" style="fill: none; stroke: #339af0; stroke-width: 1.2; stroke-linecap: square"/>
   </g>
   <g id="line2d_14">
    <path d="M 43.916364 95.746772 
L 45.193108 92.563569 
L 45.766628 95.842177 
L 46.691788 96.558384 
L 47.616947 95.631098 
L 48.542109 96.944865 
L 49.467263 96.265685 
L 50.392418 96.981892 
L 51.317566 94.262737 
L 52.242732 95.84515 
L 53.167891 96.24055 
L 54.093049 96.850542 
L 55.018206 96.762976 
L 55.943359 96.408386 
L 56.868517 93.528422 
L 57.793676 96.917568 
L 58.718827 93.656258 
L 59.643987 96.446764 
L 60.569143 95.620828 
L 61.494301 96.296765 
L 62.419457 96.583519 
L 63.344613 98.029987 
L 64.269773 94.603814 
L 65.194924 97.367022 
L 66.120079 94.674083 
L 67.045243 95.948121 
L 67.970398 98.836733 
L 68.895557 94.628949 
L 69.82071 94.904351 
L 70.74585 96.168929 
L 71.671025 94.404627 
L 72.596178 96.238928 
L 73.521341 95.763529 
L 74.446495 93.927876 
L 75.371653 97.472156 
L 76.296805 95.074078 
L 77.221971 98.417549 
L 78.147114 96.16974 
L 79.072277 97.549452 
L 79.997435 95.652179 
L 80.922594 95.962986 
L 81.847735 96.492168 
L 82.772905 96.344873 
L 83.698046 98.412144 
L 84.623219 97.703775 
L 85.548376 95.89596 
L 86.473535 96.274874 
L 87.398688 97.116755 
L 88.323852 95.294075 
L 97.76512 96.462709 
L 98.500856 96.726219 
L 99.426031 96.216766 
L 100.351186 95.196779 
L 101.276348 93.955173 
L 102.201502 95.181104 
L 103.126656 95.019484 
L 104.051812 93.549773 
L 104.976967 95.287859 
L 105.902123 96.23028 
L 106.827282 97.356482 
L 107.752435 97.249186 
L 108.677594 92.375734 
L 109.602753 94.405708 
L 110.527909 94.300574 
L 111.453063 95.504073 
L 112.378223 96.651356 
L 113.303377 98.382415 
L 114.228537 95.409479 
L 115.153695 95.8765 
L 116.078848 94.809757 
L 117.004011 97.179998 
L 117.929158 98.261605 
L 118.854316 94.276521 
L 119.779481 96.405953 
L 120.704637 98.099175 
L 121.629794 94.479761 
L 122.554943 95.204617 
L 123.480104 97.588641 
L 124.405261 94.830838 
L 125.330416 95.81515 
L 126.255574 95.152456 
L 129.9562 93.614907 
L 130.881363 93.689501 
L 131.806516 97.076215 
L 132.731673 98.024311 
L 133.656831 96.00785 
L 134.581987 94.490031 
L 135.507147 94.930296 
L 136.432285 96.059741 
L 137.357455 95.148672 
L 138.282617 93.798689 
L 139.20777 97.319996 
L 140.13293 98.749167 
L 141.058084 93.814905 
L 141.983242 94.258683 
L 142.908395 96.280549 
L 143.833556 96.379737 
L 144.758724 93.523827 
L 145.683869 93.790581 
L 146.609028 92.673298 
L 147.534182 95.938121 
L 148.459339 97.048648 
L 149.384497 94.585165 
L 150.309651 95.036781 
L 151.234811 97.765936 
L 152.159963 95.980823 
L 179.91473 95.980823 
L 188.548948 97.458643 
L 189.166282 95.770286 
L 190.091439 96.287847 
L 191.016594 95.134077 
L 191.94175 98.927273 
L 192.866913 93.51599 
L 193.792066 96.20055 
L 194.717222 93.118427 
L 195.642377 96.713517 
L 196.567536 98.707816 
L 197.492695 94.434357 
L 198.417852 94.982998 
L 199.343013 95.070835 
L 200.268162 95.424074 
L 201.193322 94.256521 
L 202.118478 96.258658 
L 203.043636 95.382453 
" clip-path="url(#p5c7b636f41)" style="fill: none; stroke: #ff6b6b; stroke-width: 1.2; stroke-linecap: square"/>
   </g>
   <g id="patch_3">
    <path d="M 35.96 103.4 
L 35.96 5 
" style="fill: none; stroke: var(--fg-color); stroke-width: 0.8; stroke-linejoin: miter; stroke-linecap: square"/>
   </g>
   <g id="patch_4">
    <path d="M 35.96 103.4 
L 211 103.4 
" style="fill: none; stroke: var(--fg-color); stroke-width: 0.8; stroke-linejoin: miter; stroke-linecap: square"/>
   </g>
  </g>
 </g>
 <defs>
  <clipPath id="p5c7b636f41">
   <rect x="35.96" y="5" width="175.04" height="98.4"/>
  </clipPath>
 </defs>
</svg>
