<?xml version="1.0" encoding="utf-8" standalone="no"?>
<!DOCTYPE svg PUBLIC "-//W3C//DTD SVG 1.1//EN"
  "http://www.w3.org/Graphics/SVG/1.1/DTD/svg11.dtd">
<svg xmlns:xlink="http://www.w3.org/1999/xlink" width="216pt" height="122.4pt" viewBox="0 0 216 122.4" xmlns="http://www.w3.org/2000/svg" version="1.1">
  <style>
    :root {
      --fg-color: #212529;
      --grid-color: rgba(33, 37, 41, 0.1);
    }
    @media (prefers-color-scheme: dark) {
      :root {
        --fg-color: #dee2e6;
        --grid-color: rgba(248, 249, 250, 0.15);
      }
    }
  </style>

 <metadata>
  <rdf:RDF xmlns:dc="http://purl.org/dc/elements/1.1/" xmlns:cc="http://creativecommons.org/ns#" xmlns:rdf="http://www.w3.org/1999/02/22-rdf-syntax-ns#">
   <cc:Work>
    <dc:type rdf:resource="http://purl.org/dc/dcmitype/StillImage"/>
    <dc:date>2026-06-30T15:37:16.063280</dc:date>
    <dc:format>image/svg+xml</dc:format>
    <dc:creator>
     <cc:Agent>
      <dc:title>Matplotlib v3.11.0, https://matplotlib.org/</dc:title>
     </cc:Agent>
    </dc:creator>
   </cc:Work>
  </rdf:RDF>
 </metadata>
 <defs>
  <style type="text/css">*{stroke-linejoin: round; stroke-linecap: butt}</style>
 </defs>
 <g id="figure_1">
  <g id="patch_1">
   <path d="M 0 122.4 
L 216 122.4 
L 216 0 
L 0 0 
L 0 122.4 
z
" style="fill: none; opacity: 0"/>
  </g>
  <g id="axes_1">
   <g id="patch_2">
    <path d="M 35.96 103.4 
L 211 103.4 
L 211 6.137817 
L 35.96 6.137817 
L 35.96 103.4 
z
" style="fill: none; opacity: 0"/>
   </g>
   <g id="matplotlib.axis_1">
    <g id="xtick_1">
     <g id="line2d_1">
      <path d="M 69.784035 103.4 
L 69.784035 6.137817 
" clip-path="url(#p86923d8e01)" style="fill: none; stroke-dasharray: 2.96,1.28; stroke-dashoffset: 0; stroke: var(--grid-color); stroke-width: 0.8"/>
     </g>
     <g id="line2d_2">
      <defs>
       <path id="m3ee6c2bf6e" d="M 0 0 
L 0 3.5 
" style="stroke: var(--fg-color); stroke-width: 0.8"/>
      </defs>
      <g>
       <use xlink:href="#m3ee6c2bf6e" x="69.784035" y="103.4" style="fill: var(--fg-color); stroke: var(--fg-color); stroke-width: 0.8"/>
      </g>
     </g>
     <g id="text_1">
      <text style="font-size: 7px; font-family: 'DejaVu Sans', 'Bitstream Vera Sans', 'Computer Modern Sans Serif', 'Lucida Grande', 'Verdana', 'Geneva', 'Lucid', 'Arial', 'Helvetica', 'Avant Garde', sans-serif; text-anchor: middle; fill: var(--fg-color)" x="69.784035" y="115.718359" transform="rotate(-0 69.784035 115.718359)">02/2026</text>
     </g>
    </g>
    <g id="xtick_2">
     <g id="line2d_3">
      <path d="M 122.345302 103.4 
L 122.345302 6.137817 
" clip-path="url(#p86923d8e01)" style="fill: none; stroke-dasharray: 2.96,1.28; stroke-dashoffset: 0; stroke: var(--grid-color); stroke-width: 0.8"/>
     </g>
     <g id="line2d_4">
      <g>
       <use xlink:href="#m3ee6c2bf6e" x="122.345302" y="103.4" style="fill: var(--fg-color); stroke: var(--fg-color); stroke-width: 0.8"/>
      </g>
     </g>
     <g id="text_2">
      <text style="font-size: 7px; font-family: 'DejaVu Sans', 'Bitstream Vera Sans', 'Computer Modern Sans Serif', 'Lucida Grande', 'Verdana', 'Geneva', 'Lucid', 'Arial', 'Helvetica', 'Avant Garde', sans-serif; text-anchor: middle; fill: var(--fg-color)" x="122.345302" y="115.718359" transform="rotate(-0 122.345302 115.718359)">04/2026</text>
     </g>
    </g>
    <g id="xtick_3">
     <g id="line2d_5">
      <path d="M 176.688307 103.4 
L 176.688307 6.137817 
" clip-path="url(#p86923d8e01)" style="fill: none; stroke-dasharray: 2.96,1.28; stroke-dashoffset: 0; stroke: var(--grid-color); stroke-width: 0.8"/>
     </g>
     <g id="line2d_6">
      <g>
       <use xlink:href="#m3ee6c2bf6e" x="176.688307" y="103.4" style="fill: var(--fg-color); stroke: var(--fg-color); stroke-width: 0.8"/>
      </g>
     </g>
     <g id="text_3">
      <text style="font-size: 7px; font-family: 'DejaVu Sans', 'Bitstream Vera Sans', 'Computer Modern Sans Serif', 'Lucida Grande', 'Verdana', 'Geneva', 'Lucid', 'Arial', 'Helvetica', 'Avant Garde', sans-serif; text-anchor: middle; fill: var(--fg-color)" x="176.688307" y="115.718359" transform="rotate(-0 176.688307 115.718359)">06/2026</text>
     </g>
    </g>
   </g>
   <g id="matplotlib.axis_2">
    <g id="ytick_1">
     <g id="line2d_7">
      <path d="M 35.96 99.456267 
L 211 99.456267 
" clip-path="url(#p86923d8e01)" style="fill: none; stroke-dasharray: 2.96,1.28; stroke-dashoffset: 0; stroke: var(--grid-color); stroke-width: 0.8"/>
     </g>
     <g id="line2d_8">
      <defs>
       <path id="m0409abd6bd" d="M 0 0 
L -3.5 0 
" style="stroke: var(--fg-color); stroke-width: 0.8"/>
      </defs>
      <g>
       <use xlink:href="#m0409abd6bd" x="35.96" y="99.456267" style="fill: var(--fg-color); stroke: var(--fg-color); stroke-width: 0.8"/>
      </g>
     </g>
     <g id="text_4">
      <text style="font-size: 7px; font-family: 'DejaVu Sans', 'Bitstream Vera Sans', 'Computer Modern Sans Serif', 'Lucida Grande', 'Verdana', 'Geneva', 'Lucid', 'Arial', 'Helvetica', 'Avant Garde', sans-serif; text-anchor: end; fill: var(--fg-color)" x="28.96" y="102.115447" transform="rotate(-0 28.96 102.115447)">0</text>
     </g>
    </g>
    <g id="ytick_2">
     <g id="line2d_9">
      <path d="M 35.96 81.106581 
L 211 81.106581 
" clip-path="url(#p86923d8e01)" style="fill: none; stroke-dasharray: 2.96,1.28; stroke-dashoffset: 0; stroke: var(--grid-color); stroke-width: 0.8"/>
     </g>
     <g id="line2d_10">
      <g>
       <use xlink:href="#m0409abd6bd" x="35.96" y="81.106581" style="fill: var(--fg-color); stroke: var(--fg-color); stroke-width: 0.8"/>
      </g>
     </g>
     <g id="text_5">
      <text style="font-size: 7px; font-family: 'DejaVu Sans', 'Bitstream Vera Sans', 'Computer Modern Sans Serif', 'Lucida Grande', 'Verdana', 'Geneva', 'Lucid', 'Arial', 'Helvetica', 'Avant Garde', sans-serif; text-anchor: end; fill: var(--fg-color)" x="28.96" y="83.76576" transform="rotate(-0 28.96 83.76576)">100</text>
     </g>
    </g>
    <g id="ytick_3">
     <g id="line2d_11">
      <path d="M 35.96 62.756894 
L 211 62.756894 
" clip-path="url(#p86923d8e01)" style="fill: none; stroke-dasharray: 2.96,1.28; stroke-dashoffset: 0; stroke: var(--grid-color); stroke-width: 0.8"/>
     </g>
     <g id="line2d_12">
      <g>
       <use xlink:href="#m0409abd6bd" x="35.96" y="62.756894" style="fill: var(--fg-color); stroke: var(--fg-color); stroke-width: 0.8"/>
      </g>
     </g>
     <g id="text_6">
      <text style="font-size: 7px; font-family: 'DejaVu Sans', 'Bitstream Vera Sans', 'Computer Modern Sans Serif', 'Lucida Grande', 'Verdana', 'Geneva', 'Lucid', 'Arial', 'Helvetica', 'Avant Garde', sans-serif; text-anchor: end; fill: var(--fg-color)" x="28.96" y="65.416074" transform="rotate(-0 28.96 65.416074)">200</text>
     </g>
    </g>
    <g id="ytick_4">
     <g id="line2d_13">
      <path d="M 35.96 44.407208 
L 211 44.407208 
" clip-path="url(#p86923d8e01)" style="fill: none; stroke-dasharray: 2.96,1.28; stroke-dashoffset: 0; stroke: var(--grid-color); stroke-width: 0.8"/>
     </g>
     <g id="line2d_14">
      <g>
       <use xlink:href="#m0409abd6bd" x="35.96" y="44.407208" style="fill: var(--fg-color); stroke: var(--fg-color); stroke-width: 0.8"/>
      </g>
     </g>
     <g id="text_7">
      <text style="font-size: 7px; font-family: 'DejaVu Sans', 'Bitstream Vera Sans', 'Computer Modern Sans Serif', 'Lucida Grande', 'Verdana', 'Geneva', 'Lucid', 'Arial', 'Helvetica', 'Avant Garde', sans-serif; text-anchor: end; fill: var(--fg-color)" x="28.96" y="47.066387" transform="rotate(-0 28.96 47.066387)">300</text>
     </g>
    </g>
    <g id="ytick_5">
     <g id="line2d_15">
      <path d="M 35.96 26.057521 
L 211 26.057521 
" clip-path="url(#p86923d8e01)" style="fill: none; stroke-dasharray: 2.96,1.28; stroke-dashoffset: 0; stroke: var(--grid-color); stroke-width: 0.8"/>
     </g>
     <g id="line2d_16">
      <g>
       <use xlink:href="#m0409abd6bd" x="35.96" y="26.057521" style="fill: var(--fg-color); stroke: var(--fg-color); stroke-width: 0.8"/>
      </g>
     </g>
     <g id="text_8">
      <text style="font-size: 7px; font-family: 'DejaVu Sans', 'Bitstream Vera Sans', 'Computer Modern Sans Serif', 'Lucida Grande', 'Verdana', 'Geneva', 'Lucid', 'Arial', 'Helvetica', 'Avant Garde', sans-serif; text-anchor: end; fill: var(--fg-color)" x="28.96" y="28.716701" transform="rotate(-0 28.96 28.716701)">400</text>
     </g>
    </g>
    <g id="ytick_6">
     <g id="line2d_17">
      <path d="M 35.96 7.707835 
L 211 7.707835 
" clip-path="url(#p86923d8e01)" style="fill: none; stroke-dasharray: 2.96,1.28; stroke-dashoffset: 0; stroke: var(--grid-color); stroke-width: 0.8"/>
     </g>
     <g id="line2d_18">
      <g>
       <use xlink:href="#m0409abd6bd" x="35.96" y="7.707835" style="fill: var(--fg-color); stroke: var(--fg-color); stroke-width: 0.8"/>
      </g>
     </g>
     <g id="text_9">
      <text style="font-size: 7px; font-family: 'DejaVu Sans', 'Bitstream Vera Sans', 'Computer Modern Sans Serif', 'Lucida Grande', 'Verdana', 'Geneva', 'Lucid', 'Arial', 'Helvetica', 'Avant Garde', sans-serif; text-anchor: end; fill: var(--fg-color)" x="28.96" y="10.367015" transform="rotate(-0 28.96 10.367015)">500</text>
     </g>
    </g>
    <g id="text_10">
     <text style="font-size: 7px; font-family: 'DejaVu Sans', 'Bitstream Vera Sans', 'Computer Modern Sans Serif', 'Lucida Grande', 'Verdana', 'Geneva', 'Lucid', 'Arial', 'Helvetica', 'Avant Garde', sans-serif; text-anchor: middle; fill: var(--fg-color)" x="9.917109" y="54.768909" transform="rotate(-90 9.917109 54.768909)">ms</text>
    </g>
   </g>
   <g id="line2d_19">
    <path d="M 43.916364 45.616269 
L 44.468628 43.972137 
L 45.3595 50.752346 
L 46.250371 47.45766 
L 47.141245 45.798848 
L 48.032112 50.498019 
L 48.922979 45.140461 
L 49.81384 48.102468 
L 50.704717 49.951199 
L 51.595589 46.880562 
L 52.486458 47.41674 
L 53.377327 46.734499 
L 54.268192 46.775969 
L 55.159063 44.55896 
L 56.049934 48.644517 
L 56.940797 46.515036 
L 57.831669 48.685621 
L 58.722538 45.961977 
L 59.613407 49.166015 
L 60.504275 48.5124 
L 61.395144 48.730394 
L 62.286016 45.604525 
L 63.176879 48.462122 
L 64.067746 49.555946 
L 64.958622 45.845456 
L 65.84949 47.049012 
L 66.740361 47.45399 
L 67.631226 50.982451 
L 68.522078 42.383604 
L 69.412965 46.860928 
L 70.30383 48.383034 
L 71.194705 44.992379 
L 72.085571 47.829975 
L 72.976442 49.944409 
L 73.867306 46.060515 
L 74.758184 48.570935 
L 75.649039 49.869542 
L 76.539914 44.880446 
L 77.430784 48.652775 
L 78.321655 48.619378 
L 79.212509 47.722629 
L 80.103391 33.781455 
L 80.994245 47.743731 
L 81.885129 47.043874 
L 82.775998 46.048037 
L 83.666869 47.996957 
L 84.557735 46.674128 
L 85.44861 49.332631 
L 94.53997 41.85128 
L 95.248438 47.587392 
L 96.139324 46.256673 
L 97.030192 45.859585 
L 97.921065 49.695954 
L 98.811931 47.952 
L 99.702798 47.612531 
L 100.593666 50.346451 
L 102.375401 48.797737 
L 103.266272 41.991839 
L 104.157138 50.867031 
L 105.048009 46.664403 
L 105.93888 43.866443 
L 106.829748 48.685621 
L 107.720614 50.187543 
L 108.611487 46.726425 
L 109.502352 49.846055 
L 110.393224 47.070298 
L 111.284094 45.927663 
L 112.17496 47.786119 
L 113.065834 48.170545 
L 114.847564 47.972552 
L 115.738441 47.964662 
L 116.629309 46.961117 
L 117.520178 48.520657 
L 118.41104 48.047419 
L 119.301913 45.806188 
L 120.192782 47.101676 
L 121.083649 46.869919 
L 121.97452 45.705999 
L 125.537994 46.222359 
L 126.428869 47.849242 
L 127.319734 43.989569 
L 128.210603 48.288533 
L 129.101474 10.558826 
L 129.992342 39.708404 
L 130.883214 44.49914 
L 131.774065 47.332331 
L 132.664946 45.887294 
L 133.55582 47.393619 
L 134.446686 47.292879 
L 135.337558 46.437417 
L 136.228424 43.616153 
L 137.119294 42.192951 
L 138.010159 47.494176 
L 138.901032 47.347745 
L 139.791912 44.20426 
L 140.68277 37.520937 
L 141.57364 46.038678 
L 142.464507 43.913051 
L 143.355376 43.847175 
L 144.246246 47.26352 
L 145.137113 45.289461 
L 146.027984 46.639264 
L 146.918849 42.028171 
L 173.644977 42.028171 
L 181.959197 45.225053 
L 182.553652 45.290011 
L 183.444521 43.213928 
L 184.335387 43.1075 
L 185.226256 43.561838 
L 186.117131 45.873715 
L 187.007996 46.272086 
L 187.898864 38.961388 
L 188.789731 42.348006 
L 189.680603 39.512979 
L 190.571474 44.773835 
L 191.462343 45.615718 
L 192.353215 45.03385 
L 194.134949 48.311838 
L 195.025817 39.335905 
L 195.916688 41.367582 
L 196.807557 41.315653 
L 197.698426 44.451064 
L 198.589295 46.537423 
L 199.480162 43.944245 
L 200.371032 47.680058 
L 201.261898 47.625009 
L 202.152766 48.108707 
L 203.043636 43.801668 
L 203.043636 43.801668 
" clip-path="url(#p86923d8e01)" style="fill: none; stroke: #339af0; stroke-width: 1.2; stroke-linecap: square"/>
   </g>
   <g id="line2d_20">
    <path d="M 43.916364 98.923209 
L 44.468628 98.840085 
L 45.3595 98.978992 
L 46.250371 98.8577 
L 48.032112 98.93954 
L 48.922979 98.715857 
L 49.81384 98.940274 
L 50.704717 98.957156 
L 51.595589 98.810175 
L 52.486458 98.953669 
L 62.286016 98.922658 
L 63.176879 98.721179 
L 64.067746 98.97679 
L 66.740361 98.855131 
L 67.631226 98.972569 
L 71.194705 98.835681 
L 72.976442 98.973854 
L 74.758184 98.964862 
L 80.994245 98.938072 
L 100.593666 98.950366 
L 101.484533 98.665579 
L 102.375401 98.960459 
L 105.93888 98.834029 
L 106.829748 98.955504 
L 126.428869 98.942109 
L 127.319734 98.755309 
L 128.210603 98.947797 
L 129.101474 98.929998 
L 129.992342 98.608695 
L 130.883214 98.901556 
L 135.337558 98.901556 
L 140.68277 98.791458 
L 141.57364 98.921007 
L 146.918849 98.874582 
L 203.043636 98.899171 
L 203.043636 98.899171 
" clip-path="url(#p86923d8e01)" style="fill: none; stroke: #ff6b6b; stroke-width: 1.2; stroke-linecap: square"/>
   </g>
   <g id="patch_3">
    <path d="M 35.96 103.4 
L 35.96 6.137817 
" style="fill: none; stroke: var(--fg-color); stroke-width: 0.8; stroke-linejoin: miter; stroke-linecap: square"/>
   </g>
   <g id="patch_4">
    <path d="M 35.96 103.4 
L 211 103.4 
" style="fill: none; stroke: var(--fg-color); stroke-width: 0.8; stroke-linejoin: miter; stroke-linecap: square"/>
   </g>
  </g>
 </g>
 <defs>
  <clipPath id="p86923d8e01">
   <rect x="35.96" y="6.137817" width="175.04" height="97.262183"/>
  </clipPath>
 </defs>
</svg>
