<?xml version="1.0" encoding="utf-8" standalone="no"?>
<!DOCTYPE svg PUBLIC "-//W3C//DTD SVG 1.1//EN"
  "http://www.w3.org/Graphics/SVG/1.1/DTD/svg11.dtd">
<svg xmlns:xlink="http://www.w3.org/1999/xlink" width="216pt" height="122.4pt" viewBox="0 0 216 122.4" xmlns="http://www.w3.org/2000/svg" version="1.1">
  <style>
    :root {
      --fg-color: #212529;
      --grid-color: rgba(33, 37, 41, 0.1);
    }
    @media (prefers-color-scheme: dark) {
      :root {
        --fg-color: #dee2e6;
        --grid-color: rgba(248, 249, 250, 0.15);
      }
    }
  </style>

 <metadata>
  <rdf:RDF xmlns:dc="http://purl.org/dc/elements/1.1/" xmlns:cc="http://creativecommons.org/ns#" xmlns:rdf="http://www.w3.org/1999/02/22-rdf-syntax-ns#">
   <cc:Work>
    <dc:type rdf:resource="http://purl.org/dc/dcmitype/StillImage"/>
    <dc:date>2026-06-30T04:49:24.832270</dc:date>
    <dc:format>image/svg+xml</dc:format>
    <dc:creator>
     <cc:Agent>
      <dc:title>Matplotlib v3.11.0, https://matplotlib.org/</dc:title>
     </cc:Agent>
    </dc:creator>
   </cc:Work>
  </rdf:RDF>
 </metadata>
 <defs>
  <style type="text/css">*{stroke-linejoin: round; stroke-linecap: butt}</style>
 </defs>
 <g id="figure_1">
  <g id="patch_1">
   <path d="M 0 122.4 
L 216 122.4 
L 216 0 
L 0 0 
L 0 122.4 
z
" style="fill: none; opacity: 0"/>
  </g>
  <g id="axes_1">
   <g id="patch_2">
    <path d="M 35.96 103.4 
L 211 103.4 
L 211 5 
L 35.96 5 
L 35.96 103.4 
z
" style="fill: none; opacity: 0"/>
   </g>
   <g id="matplotlib.axis_1">
    <g id="xtick_1">
     <g id="line2d_1">
      <path d="M 70.996911 103.4 
L 70.996911 5 
" clip-path="url(#p0539cdb414)" style="fill: none; stroke-dasharray: 2.96,1.28; stroke-dashoffset: 0; stroke: var(--grid-color); stroke-width: 0.8"/>
     </g>
     <g id="line2d_2">
      <defs>
       <path id="m755431d35c" d="M 0 0 
L 0 3.5 
" style="stroke: var(--fg-color); stroke-width: 0.8"/>
      </defs>
      <g>
       <use xlink:href="#m755431d35c" x="70.996911" y="103.4" style="fill: var(--fg-color); stroke: var(--fg-color); stroke-width: 0.8"/>
      </g>
     </g>
     <g id="text_1">
      <text style="font-size: 7px; font-family: 'DejaVu Sans', 'Bitstream Vera Sans', 'Computer Modern Sans Serif', 'Lucida Grande', 'Verdana', 'Geneva', 'Lucid', 'Arial', 'Helvetica', 'Avant Garde', sans-serif; text-anchor: middle; fill: var(--fg-color)" x="70.996911" y="115.718359" transform="rotate(-0 70.996911 115.718359)">02/2026</text>
     </g>
    </g>
    <g id="xtick_2">
     <g id="line2d_3">
      <path d="M 126.022656 103.4 
L 126.022656 5 
" clip-path="url(#p0539cdb414)" style="fill: none; stroke-dasharray: 2.96,1.28; stroke-dashoffset: 0; stroke: var(--grid-color); stroke-width: 0.8"/>
     </g>
     <g id="line2d_4">
      <g>
       <use xlink:href="#m755431d35c" x="126.022656" y="103.4" style="fill: var(--fg-color); stroke: var(--fg-color); stroke-width: 0.8"/>
      </g>
     </g>
     <g id="text_2">
      <text style="font-size: 7px; font-family: 'DejaVu Sans', 'Bitstream Vera Sans', 'Computer Modern Sans Serif', 'Lucida Grande', 'Verdana', 'Geneva', 'Lucid', 'Arial', 'Helvetica', 'Avant Garde', sans-serif; text-anchor: middle; fill: var(--fg-color)" x="126.022656" y="115.718359" transform="rotate(-0 126.022656 115.718359)">04/2026</text>
     </g>
    </g>
    <g id="xtick_3">
     <g id="line2d_5">
      <path d="M 182.913681 103.4 
L 182.913681 5 
" clip-path="url(#p0539cdb414)" style="fill: none; stroke-dasharray: 2.96,1.28; stroke-dashoffset: 0; stroke: var(--grid-color); stroke-width: 0.8"/>
     </g>
     <g id="line2d_6">
      <g>
       <use xlink:href="#m755431d35c" x="182.913681" y="103.4" style="fill: var(--fg-color); stroke: var(--fg-color); stroke-width: 0.8"/>
      </g>
     </g>
     <g id="text_3">
      <text style="font-size: 7px; font-family: 'DejaVu Sans', 'Bitstream Vera Sans', 'Computer Modern Sans Serif', 'Lucida Grande', 'Verdana', 'Geneva', 'Lucid', 'Arial', 'Helvetica', 'Avant Garde', sans-serif; text-anchor: middle; fill: var(--fg-color)" x="182.913681" y="115.718359" transform="rotate(-0 182.913681 115.718359)">06/2026</text>
     </g>
    </g>
   </g>
   <g id="matplotlib.axis_2">
    <g id="ytick_1">
     <g id="line2d_7">
      <path d="M 35.96 86.607521 
L 211 86.607521 
" clip-path="url(#p0539cdb414)" style="fill: none; stroke-dasharray: 2.96,1.28; stroke-dashoffset: 0; stroke: var(--grid-color); stroke-width: 0.8"/>
     </g>
     <g id="line2d_8">
      <defs>
       <path id="md80944f720" d="M 0 0 
L -3.5 0 
" style="stroke: var(--fg-color); stroke-width: 0.8"/>
      </defs>
      <g>
       <use xlink:href="#md80944f720" x="35.96" y="86.607521" style="fill: var(--fg-color); stroke: var(--fg-color); stroke-width: 0.8"/>
      </g>
     </g>
     <g id="text_4">
      <text style="font-size: 7px; font-family: 'DejaVu Sans', 'Bitstream Vera Sans', 'Computer Modern Sans Serif', 'Lucida Grande', 'Verdana', 'Geneva', 'Lucid', 'Arial', 'Helvetica', 'Avant Garde', sans-serif; text-anchor: end; fill: var(--fg-color)" x="28.96" y="89.266701" transform="rotate(-0 28.96 89.266701)">40</text>
     </g>
    </g>
    <g id="ytick_2">
     <g id="line2d_9">
      <path d="M 35.96 66.954092 
L 211 66.954092 
" clip-path="url(#p0539cdb414)" style="fill: none; stroke-dasharray: 2.96,1.28; stroke-dashoffset: 0; stroke: var(--grid-color); stroke-width: 0.8"/>
     </g>
     <g id="line2d_10">
      <g>
       <use xlink:href="#md80944f720" x="35.96" y="66.954092" style="fill: var(--fg-color); stroke: var(--fg-color); stroke-width: 0.8"/>
      </g>
     </g>
     <g id="text_5">
      <text style="font-size: 7px; font-family: 'DejaVu Sans', 'Bitstream Vera Sans', 'Computer Modern Sans Serif', 'Lucida Grande', 'Verdana', 'Geneva', 'Lucid', 'Arial', 'Helvetica', 'Avant Garde', sans-serif; text-anchor: end; fill: var(--fg-color)" x="28.96" y="69.613272" transform="rotate(-0 28.96 69.613272)">60</text>
     </g>
    </g>
    <g id="ytick_3">
     <g id="line2d_11">
      <path d="M 35.96 47.300664 
L 211 47.300664 
" clip-path="url(#p0539cdb414)" style="fill: none; stroke-dasharray: 2.96,1.28; stroke-dashoffset: 0; stroke: var(--grid-color); stroke-width: 0.8"/>
     </g>
     <g id="line2d_12">
      <g>
       <use xlink:href="#md80944f720" x="35.96" y="47.300664" style="fill: var(--fg-color); stroke: var(--fg-color); stroke-width: 0.8"/>
      </g>
     </g>
     <g id="text_6">
      <text style="font-size: 7px; font-family: 'DejaVu Sans', 'Bitstream Vera Sans', 'Computer Modern Sans Serif', 'Lucida Grande', 'Verdana', 'Geneva', 'Lucid', 'Arial', 'Helvetica', 'Avant Garde', sans-serif; text-anchor: end; fill: var(--fg-color)" x="28.96" y="49.959844" transform="rotate(-0 28.96 49.959844)">80</text>
     </g>
    </g>
    <g id="ytick_4">
     <g id="line2d_13">
      <path d="M 35.96 27.647235 
L 211 27.647235 
" clip-path="url(#p0539cdb414)" style="fill: none; stroke-dasharray: 2.96,1.28; stroke-dashoffset: 0; stroke: var(--grid-color); stroke-width: 0.8"/>
     </g>
     <g id="line2d_14">
      <g>
       <use xlink:href="#md80944f720" x="35.96" y="27.647235" style="fill: var(--fg-color); stroke: var(--fg-color); stroke-width: 0.8"/>
      </g>
     </g>
     <g id="text_7">
      <text style="font-size: 7px; font-family: 'DejaVu Sans', 'Bitstream Vera Sans', 'Computer Modern Sans Serif', 'Lucida Grande', 'Verdana', 'Geneva', 'Lucid', 'Arial', 'Helvetica', 'Avant Garde', sans-serif; text-anchor: end; fill: var(--fg-color)" x="28.96" y="30.306415" transform="rotate(-0 28.96 30.306415)">100</text>
     </g>
    </g>
    <g id="ytick_5">
     <g id="line2d_15">
      <path d="M 35.96 7.993807 
L 211 7.993807 
" clip-path="url(#p0539cdb414)" style="fill: none; stroke-dasharray: 2.96,1.28; stroke-dashoffset: 0; stroke: var(--grid-color); stroke-width: 0.8"/>
     </g>
     <g id="line2d_16">
      <g>
       <use xlink:href="#md80944f720" x="35.96" y="7.993807" style="fill: var(--fg-color); stroke: var(--fg-color); stroke-width: 0.8"/>
      </g>
     </g>
     <g id="text_8">
      <text style="font-size: 7px; font-family: 'DejaVu Sans', 'Bitstream Vera Sans', 'Computer Modern Sans Serif', 'Lucida Grande', 'Verdana', 'Geneva', 'Lucid', 'Arial', 'Helvetica', 'Avant Garde', sans-serif; text-anchor: end; fill: var(--fg-color)" x="28.96" y="10.652986" transform="rotate(-0 28.96 10.652986)">120</text>
     </g>
    </g>
    <g id="text_9">
     <text style="font-size: 7px; font-family: 'DejaVu Sans', 'Bitstream Vera Sans', 'Computer Modern Sans Serif', 'Lucida Grande', 'Verdana', 'Geneva', 'Lucid', 'Arial', 'Helvetica', 'Avant Garde', sans-serif; text-anchor: middle; fill: var(--fg-color)" x="9.917109" y="54.2" transform="rotate(-90 9.917109 54.2)">ms</text>
    </g>
   </g>
   <g id="line2d_17">
    <path d="M 43.916364 56.00615 
L 44.494523 45.284222 
L 45.427166 54.642202 
L 46.359808 48.705884 
L 47.292453 46.300304 
L 48.22509 50.346945 
L 49.157727 54.230463 
L 50.090359 54.391621 
L 51.023007 51.875982 
L 51.95565 52.484256 
L 52.88829 55.164983 
L 53.82093 41.845855 
L 54.753566 48.750104 
L 55.686208 29.63911 
L 56.618849 44.370338 
L 57.551483 38.727838 
L 58.484126 56.493555 
L 59.416765 53.598605 
L 60.349406 38.483153 
L 61.282045 40.538902 
L 62.214684 42.614304 
L 63.147327 39.493339 
L 64.07996 41.830132 
L 65.012598 50.8599 
L 65.945245 31.131788 
L 66.877884 30.875311 
L 67.810526 43.217664 
L 68.743162 48.748139 
L 69.675784 27.739606 
L 70.608443 32.307063 
L 71.541078 36.356652 
L 72.473724 27.202085 
L 73.406361 36.514862 
L 74.339003 53.533749 
L 75.271637 29.305002 
L 76.204286 49.056698 
L 77.136912 47.327196 
L 78.069558 38.171646 
L 79.002199 35.231493 
L 79.934841 38.954835 
L 80.867465 28.489385 
L 81.800118 48.973171 
L 82.732742 34.168243 
L 83.665398 34.035582 
L 84.598038 48.755018 
L 85.53068 39.796985 
L 86.463316 39.888373 
L 87.395962 38.164768 
L 96.913595 36.114915 
L 97.655282 46.871236 
L 98.587939 30.347616 
L 99.520578 38.85362 
L 100.453222 27.217808 
L 101.385859 34.683163 
L 102.318497 50.104225 
L 103.251135 46.109666 
L 104.183773 50.644695 
L 105.116412 47.507025 
L 106.049054 46.657997 
L 106.981691 36.415612 
L 107.914333 37.990835 
L 108.846974 32.719785 
L 109.779613 37.60268 
L 110.71225 27.043875 
L 111.644893 37.821815 
L 112.57753 58.849019 
L 113.510173 42.460024 
L 114.442814 55.913779 
L 115.37545 47.132627 
L 116.308095 30.2238 
L 117.240726 51.740373 
L 118.173367 42.987719 
L 119.106014 41.68961 
L 120.038653 44.092242 
L 120.971293 47.132627 
L 121.903926 33.456789 
L 122.836569 43.522292 
L 123.769209 50.492381 
L 124.701847 44.874448 
L 125.634489 24.739511 
L 129.365046 43.103674 
L 130.297692 50.840246 
L 131.230328 47.981655 
L 132.162968 44.201318 
L 133.095609 27.638391 
L 134.028248 21.157673 
L 134.960891 29.222458 
L 135.893512 51.617539 
L 136.826165 34.915073 
L 137.75881 49.931275 
L 138.691446 15.394305 
L 139.624089 33.340834 
L 140.556726 30.254263 
L 141.489366 9.472727 
L 142.422003 50.033473 
L 143.354646 31.364681 
L 144.287298 13.923246 
L 145.219926 27.581396 
L 146.152567 25.424433 
L 147.085204 36.846023 
L 148.017844 46.359265 
L 148.950485 39.361661 
L 149.883123 43.752237 
L 150.815765 35.119469 
L 151.7484 38.114651 
L 179.727656 38.114651 
L 188.43171 24.748355 
L 189.054038 41.864526 
L 189.986678 41.685679 
L 190.919315 27.249253 
L 191.851955 39.315476 
L 192.7846 39.740973 
L 193.717237 40.856305 
L 194.649875 46.278686 
L 195.582513 48.993807 
L 196.515156 21.076111 
L 197.447798 37.042557 
L 198.380437 43.190149 
L 199.313081 29.244076 
L 200.245713 40.151729 
L 201.178356 31.997522 
L 202.110995 38.468413 
L 203.043636 42.971996 
" clip-path="url(#p0539cdb414)" style="fill: none; stroke: #339af0; stroke-width: 1.2; stroke-linecap: square"/>
   </g>
   <g id="line2d_18">
    <path d="M 43.916364 94.648721 
L 44.494523 95.582259 
L 45.427166 96.651406 
L 46.359808 96.050011 
L 47.292453 95.770932 
L 48.22509 98.06547 
L 49.157727 96.831235 
L 50.090359 94.936644 
L 51.023007 94.911095 
L 51.95565 95.538039 
L 52.88829 94.134784 
L 53.82093 94.378487 
L 54.753566 95.342487 
L 55.686208 92.732512 
L 56.618849 95.881974 
L 57.551483 95.316938 
L 58.484126 97.410028 
L 59.416765 97.675349 
L 60.349406 95.467287 
L 61.282045 95.684457 
L 62.214684 95.638271 
L 63.147327 96.07556 
L 64.07996 96.397876 
L 65.012598 96.638631 
L 65.945245 96.326141 
L 66.877884 94.183918 
L 67.810526 96.846957 
L 68.743162 95.324799 
L 69.675784 93.087256 
L 70.608443 96.536433 
L 71.541078 97.658644 
L 72.473724 93.133442 
L 73.406361 94.276289 
L 74.339003 98.388769 
L 75.271637 94.584848 
L 76.204286 97.199736 
L 77.136912 96.286835 
L 78.069558 98.927273 
L 79.002199 95.257978 
L 79.934841 95.610757 
L 80.867465 94.791209 
L 81.800118 92.932977 
L 82.732742 95.290406 
L 83.665398 93.979522 
L 84.598038 96.615047 
L 85.53068 95.553762 
L 86.463316 96.78898 
L 87.395962 97.917086 
L 96.913595 97.706795 
L 97.655282 96.135503 
L 98.587939 96.277991 
L 99.520578 97.467023 
L 100.453222 92.695171 
L 101.385859 96.37724 
L 102.318497 96.047063 
L 103.251135 97.110313 
L 104.183773 96.360535 
L 105.116412 97.305865 
L 106.049054 93.480325 
L 106.981691 96.884299 
L 107.914333 92.399386 
L 108.846974 97.298003 
L 109.779613 92.777715 
L 110.71225 93.65131 
L 111.644893 93.193385 
L 112.57753 97.167308 
L 113.510173 95.705093 
L 114.442814 97.511243 
L 115.37545 97.489624 
L 116.308095 96.052959 
L 117.240726 98.376977 
L 118.173367 95.280579 
L 119.106014 95.351331 
L 120.038653 96.143365 
L 120.971293 95.896714 
L 121.903926 94.366695 
L 122.836569 98.76808 
L 123.769209 97.879745 
L 124.701847 98.328826 
L 125.634489 91.60244 
L 129.365046 93.477377 
L 130.297692 94.623172 
L 131.230328 96.073595 
L 132.162968 94.133802 
L 133.095609 93.348647 
L 134.028248 93.512753 
L 134.960891 91.706603 
L 135.893512 98.03992 
L 136.826165 96.529554 
L 137.75881 96.522676 
L 138.691446 93.965765 
L 139.624089 97.236095 
L 140.556726 93.772178 
L 141.489366 92.086897 
L 142.422003 97.281298 
L 143.354646 89.982015 
L 144.287298 91.84909 
L 145.219926 96.789962 
L 146.152567 93.339803 
L 147.085204 94.36866 
L 148.017844 96.834183 
L 148.950485 96.33302 
L 149.883123 96.723141 
L 150.815765 95.023119 
L 151.7484 93.065638 
L 179.727656 93.065638 
L 188.43171 94.349007 
L 189.054038 98.255125 
L 189.986678 92.909393 
L 190.919315 91.285037 
L 191.851955 97.796218 
L 192.7846 90.453697 
L 193.717237 95.311042 
L 194.649875 94.759763 
L 195.582513 93.554025 
L 196.515156 94.627103 
L 197.447798 93.583506 
L 198.380437 93.762352 
L 199.313081 93.449862 
L 200.245713 96.584584 
L 201.178356 96.925571 
L 202.110995 93.691599 
L 203.043636 94.859013 
" clip-path="url(#p0539cdb414)" style="fill: none; stroke: #ff6b6b; stroke-width: 1.2; stroke-linecap: square"/>
   </g>
   <g id="patch_3">
    <path d="M 35.96 103.4 
L 35.96 5 
" style="fill: none; stroke: var(--fg-color); stroke-width: 0.8; stroke-linejoin: miter; stroke-linecap: square"/>
   </g>
   <g id="patch_4">
    <path d="M 35.96 103.4 
L 211 103.4 
" style="fill: none; stroke: var(--fg-color); stroke-width: 0.8; stroke-linejoin: miter; stroke-linecap: square"/>
   </g>
  </g>
 </g>
 <defs>
  <clipPath id="p0539cdb414">
   <rect x="35.96" y="5" width="175.04" height="98.4"/>
  </clipPath>
 </defs>
</svg>
