<?xml version="1.0" encoding="utf-8" standalone="no"?>
<!DOCTYPE svg PUBLIC "-//W3C//DTD SVG 1.1//EN"
  "http://www.w3.org/Graphics/SVG/1.1/DTD/svg11.dtd">
<svg xmlns:xlink="http://www.w3.org/1999/xlink" width="216pt" height="122.4pt" viewBox="0 0 216 122.4" xmlns="http://www.w3.org/2000/svg" version="1.1">
  <style>
    :root {
      --fg-color: #212529;
      --grid-color: rgba(33, 37, 41, 0.1);
    }
    @media (prefers-color-scheme: dark) {
      :root {
        --fg-color: #dee2e6;
        --grid-color: rgba(248, 249, 250, 0.15);
      }
    }
  </style>

 <metadata>
  <rdf:RDF xmlns:dc="http://purl.org/dc/elements/1.1/" xmlns:cc="http://creativecommons.org/ns#" xmlns:rdf="http://www.w3.org/1999/02/22-rdf-syntax-ns#">
   <cc:Work>
    <dc:type rdf:resource="http://purl.org/dc/dcmitype/StillImage"/>
    <dc:date>2026-06-30T04:48:22.951018</dc:date>
    <dc:format>image/svg+xml</dc:format>
    <dc:creator>
     <cc:Agent>
      <dc:title>Matplotlib v3.11.0, https://matplotlib.org/</dc:title>
     </cc:Agent>
    </dc:creator>
   </cc:Work>
  </rdf:RDF>
 </metadata>
 <defs>
  <style type="text/css">*{stroke-linejoin: round; stroke-linecap: butt}</style>
 </defs>
 <g id="figure_1">
  <g id="patch_1">
   <path d="M 0 122.4 
L 216 122.4 
L 216 0 
L 0 0 
L 0 122.4 
z
" style="fill: none; opacity: 0"/>
  </g>
  <g id="axes_1">
   <g id="patch_2">
    <path d="M 35.96 103.4 
L 211 103.4 
L 211 5 
L 35.96 5 
L 35.96 103.4 
z
" style="fill: none; opacity: 0"/>
   </g>
   <g id="matplotlib.axis_1">
    <g id="xtick_1">
     <g id="line2d_1">
      <path d="M 70.996911 103.4 
L 70.996911 5 
" clip-path="url(#p3e0cd919cd)" style="fill: none; stroke-dasharray: 2.96,1.28; stroke-dashoffset: 0; stroke: var(--grid-color); stroke-width: 0.8"/>
     </g>
     <g id="line2d_2">
      <defs>
       <path id="md1122de0fd" d="M 0 0 
L 0 3.5 
" style="stroke: var(--fg-color); stroke-width: 0.8"/>
      </defs>
      <g>
       <use xlink:href="#md1122de0fd" x="70.996911" y="103.4" style="fill: var(--fg-color); stroke: var(--fg-color); stroke-width: 0.8"/>
      </g>
     </g>
     <g id="text_1">
      <text style="font-size: 7px; font-family: 'DejaVu Sans', 'Bitstream Vera Sans', 'Computer Modern Sans Serif', 'Lucida Grande', 'Verdana', 'Geneva', 'Lucid', 'Arial', 'Helvetica', 'Avant Garde', sans-serif; text-anchor: middle; fill: var(--fg-color)" x="70.996911" y="115.718359" transform="rotate(-0 70.996911 115.718359)">02/2026</text>
     </g>
    </g>
    <g id="xtick_2">
     <g id="line2d_3">
      <path d="M 126.022656 103.4 
L 126.022656 5 
" clip-path="url(#p3e0cd919cd)" style="fill: none; stroke-dasharray: 2.96,1.28; stroke-dashoffset: 0; stroke: var(--grid-color); stroke-width: 0.8"/>
     </g>
     <g id="line2d_4">
      <g>
       <use xlink:href="#md1122de0fd" x="126.022656" y="103.4" style="fill: var(--fg-color); stroke: var(--fg-color); stroke-width: 0.8"/>
      </g>
     </g>
     <g id="text_2">
      <text style="font-size: 7px; font-family: 'DejaVu Sans', 'Bitstream Vera Sans', 'Computer Modern Sans Serif', 'Lucida Grande', 'Verdana', 'Geneva', 'Lucid', 'Arial', 'Helvetica', 'Avant Garde', sans-serif; text-anchor: middle; fill: var(--fg-color)" x="126.022656" y="115.718359" transform="rotate(-0 126.022656 115.718359)">04/2026</text>
     </g>
    </g>
    <g id="xtick_3">
     <g id="line2d_5">
      <path d="M 182.913681 103.4 
L 182.913681 5 
" clip-path="url(#p3e0cd919cd)" style="fill: none; stroke-dasharray: 2.96,1.28; stroke-dashoffset: 0; stroke: var(--grid-color); stroke-width: 0.8"/>
     </g>
     <g id="line2d_6">
      <g>
       <use xlink:href="#md1122de0fd" x="182.913681" y="103.4" style="fill: var(--fg-color); stroke: var(--fg-color); stroke-width: 0.8"/>
      </g>
     </g>
     <g id="text_3">
      <text style="font-size: 7px; font-family: 'DejaVu Sans', 'Bitstream Vera Sans', 'Computer Modern Sans Serif', 'Lucida Grande', 'Verdana', 'Geneva', 'Lucid', 'Arial', 'Helvetica', 'Avant Garde', sans-serif; text-anchor: middle; fill: var(--fg-color)" x="182.913681" y="115.718359" transform="rotate(-0 182.913681 115.718359)">06/2026</text>
     </g>
    </g>
   </g>
   <g id="matplotlib.axis_2">
    <g id="ytick_1">
     <g id="line2d_7">
      <path d="M 35.96 91.406928 
L 211 91.406928 
" clip-path="url(#p3e0cd919cd)" style="fill: none; stroke-dasharray: 2.96,1.28; stroke-dashoffset: 0; stroke: var(--grid-color); stroke-width: 0.8"/>
     </g>
     <g id="line2d_8">
      <defs>
       <path id="m5264b305e2" d="M 0 0 
L -3.5 0 
" style="stroke: var(--fg-color); stroke-width: 0.8"/>
      </defs>
      <g>
       <use xlink:href="#m5264b305e2" x="35.96" y="91.406928" style="fill: var(--fg-color); stroke: var(--fg-color); stroke-width: 0.8"/>
      </g>
     </g>
     <g id="text_4">
      <text style="font-size: 7px; font-family: 'DejaVu Sans', 'Bitstream Vera Sans', 'Computer Modern Sans Serif', 'Lucida Grande', 'Verdana', 'Geneva', 'Lucid', 'Arial', 'Helvetica', 'Avant Garde', sans-serif; text-anchor: end; fill: var(--fg-color)" x="28.96" y="94.066107" transform="rotate(-0 28.96 94.066107)">350</text>
     </g>
    </g>
    <g id="ytick_2">
     <g id="line2d_9">
      <path d="M 35.96 68.559847 
L 211 68.559847 
" clip-path="url(#p3e0cd919cd)" style="fill: none; stroke-dasharray: 2.96,1.28; stroke-dashoffset: 0; stroke: var(--grid-color); stroke-width: 0.8"/>
     </g>
     <g id="line2d_10">
      <g>
       <use xlink:href="#m5264b305e2" x="35.96" y="68.559847" style="fill: var(--fg-color); stroke: var(--fg-color); stroke-width: 0.8"/>
      </g>
     </g>
     <g id="text_5">
      <text style="font-size: 7px; font-family: 'DejaVu Sans', 'Bitstream Vera Sans', 'Computer Modern Sans Serif', 'Lucida Grande', 'Verdana', 'Geneva', 'Lucid', 'Arial', 'Helvetica', 'Avant Garde', sans-serif; text-anchor: end; fill: var(--fg-color)" x="28.96" y="71.219027" transform="rotate(-0 28.96 71.219027)">400</text>
     </g>
    </g>
    <g id="ytick_3">
     <g id="line2d_11">
      <path d="M 35.96 45.712767 
L 211 45.712767 
" clip-path="url(#p3e0cd919cd)" style="fill: none; stroke-dasharray: 2.96,1.28; stroke-dashoffset: 0; stroke: var(--grid-color); stroke-width: 0.8"/>
     </g>
     <g id="line2d_12">
      <g>
       <use xlink:href="#m5264b305e2" x="35.96" y="45.712767" style="fill: var(--fg-color); stroke: var(--fg-color); stroke-width: 0.8"/>
      </g>
     </g>
     <g id="text_6">
      <text style="font-size: 7px; font-family: 'DejaVu Sans', 'Bitstream Vera Sans', 'Computer Modern Sans Serif', 'Lucida Grande', 'Verdana', 'Geneva', 'Lucid', 'Arial', 'Helvetica', 'Avant Garde', sans-serif; text-anchor: end; fill: var(--fg-color)" x="28.96" y="48.371946" transform="rotate(-0 28.96 48.371946)">450</text>
     </g>
    </g>
    <g id="ytick_4">
     <g id="line2d_13">
      <path d="M 35.96 22.865686 
L 211 22.865686 
" clip-path="url(#p3e0cd919cd)" style="fill: none; stroke-dasharray: 2.96,1.28; stroke-dashoffset: 0; stroke: var(--grid-color); stroke-width: 0.8"/>
     </g>
     <g id="line2d_14">
      <g>
       <use xlink:href="#m5264b305e2" x="35.96" y="22.865686" style="fill: var(--fg-color); stroke: var(--fg-color); stroke-width: 0.8"/>
      </g>
     </g>
     <g id="text_7">
      <text style="font-size: 7px; font-family: 'DejaVu Sans', 'Bitstream Vera Sans', 'Computer Modern Sans Serif', 'Lucida Grande', 'Verdana', 'Geneva', 'Lucid', 'Arial', 'Helvetica', 'Avant Garde', sans-serif; text-anchor: end; fill: var(--fg-color)" x="28.96" y="25.524866" transform="rotate(-0 28.96 25.524866)">500</text>
     </g>
    </g>
    <g id="text_8">
     <text style="font-size: 7px; font-family: 'DejaVu Sans', 'Bitstream Vera Sans', 'Computer Modern Sans Serif', 'Lucida Grande', 'Verdana', 'Geneva', 'Lucid', 'Arial', 'Helvetica', 'Avant Garde', sans-serif; text-anchor: middle; fill: var(--fg-color)" x="9.917109" y="54.2" transform="rotate(-90 9.917109 54.2)">ms</text>
    </g>
   </g>
   <g id="line2d_15">
    <path d="M 43.916364 74.944235 
L 44.494523 67.738266 
L 45.427166 80.361735 
L 46.359808 56.011317 
L 47.292453 59.771489 
L 48.22509 72.591443 
L 49.157727 80.839696 
L 50.090359 49.452834 
L 51.023007 90.416735 
L 51.95565 80.585179 
L 52.88829 67.613978 
L 53.82093 76.553584 
L 54.753566 64.995246 
L 55.686208 63.749166 
L 56.618849 70.014292 
L 57.551483 70.892077 
L 58.484126 63.907725 
L 59.416765 81.055829 
L 60.349406 72.948771 
L 61.282045 65.207723 
L 62.214684 50.491919 
L 63.147327 49.581234 
L 64.07996 81.692349 
L 65.012598 69.732816 
L 65.945245 68.16048 
L 66.877884 70.068211 
L 67.810526 64.535562 
L 68.743162 48.171112 
L 69.675784 54.651458 
L 70.608443 73.665256 
L 71.541078 48.846472 
L 72.473724 56.853003 
L 73.406361 73.77218 
L 74.339003 91.105803 
L 75.271637 58.939398 
L 76.204286 97.156624 
L 77.136912 45.381941 
L 78.069558 73.591688 
L 79.002199 77.431825 
L 79.934841 57.962 
L 80.867465 84.4966 
L 81.800118 47.32577 
L 82.732742 55.903935 
L 83.665398 81.109748 
L 84.598038 68.670884 
L 85.53068 36.994321 
L 86.463316 66.489902 
L 87.395962 63.759675 
L 96.913595 33.73587 
L 97.655282 54.043726 
L 98.587939 36.888767 
L 99.520578 62.976478 
L 100.453222 63.057813 
L 101.385859 49.803308 
L 102.318497 72.116224 
L 103.251135 82.197726 
L 104.183773 68.33229 
L 105.116412 65.239252 
L 106.049054 75.097768 
L 106.981691 71.682586 
L 107.914333 54.910544 
L 108.846974 42.968375 
L 109.779613 79.453792 
L 110.71225 61.014827 
L 111.644893 44.516493 
L 112.57753 48.119021 
L 113.510173 63.754192 
L 114.442814 79.259592 
L 115.37545 44.125351 
L 116.308095 54.882214 
L 117.240726 27.446069 
L 118.173367 93.240634 
L 119.106014 45.74658 
L 120.038653 27.776437 
L 120.971293 60.682174 
L 121.903926 51.418139 
L 122.836569 71.006312 
L 123.769209 52.830089 
L 124.701847 42.305353 
L 125.634489 9.472727 
L 129.365046 49.659828 
L 130.297692 62.793701 
L 131.230328 46.929145 
L 132.162968 39.07112 
L 133.095609 42.294843 
L 134.028248 55.123936 
L 134.960891 72.086522 
L 135.893512 74.343814 
L 136.826165 69.545927 
L 137.75881 54.385061 
L 138.691446 79.194706 
L 139.624089 57.858275 
L 140.556726 41.983666 
L 141.489366 51.994343 
L 142.422003 19.601295 
L 143.354646 69.524451 
L 144.287298 51.494906 
L 145.219926 38.269645 
L 146.152567 28.017246 
L 147.085204 27.936824 
L 148.017844 68.523292 
L 148.950485 74.915448 
L 149.883123 47.530023 
L 150.815765 40.779168 
L 151.7484 49.851744 
L 179.727656 49.851744 
L 188.43171 61.486391 
L 189.054038 73.030564 
L 189.986678 51.191953 
L 190.919315 29.758193 
L 191.851955 38.016956 
L 192.7846 39.326551 
L 193.717237 18.430154 
L 194.649875 54.264429 
L 195.582513 48.758739 
L 196.515156 48.391358 
L 197.447798 43.798181 
L 198.380437 41.653297 
L 199.313081 51.177331 
L 200.245713 43.357689 
L 201.178356 23.388427 
L 202.110995 34.641528 
L 203.043636 13.705377 
" clip-path="url(#p3e0cd919cd)" style="fill: none; stroke: #339af0; stroke-width: 1.2; stroke-linecap: square"/>
   </g>
   <g id="line2d_16">
    <path d="M 43.916364 81.287499 
L 44.494523 88.442291 
L 45.427166 79.751718 
L 46.359808 84.044227 
L 47.292453 83.637549 
L 48.22509 90.157192 
L 49.157727 85.429218 
L 50.090359 77.047538 
L 51.023007 88.804645 
L 51.95565 81.236321 
L 52.88829 87.048162 
L 53.82093 85.774208 
L 54.753566 88.365524 
L 55.686208 82.837445 
L 56.618849 84.828796 
L 57.551483 86.457793 
L 58.484126 86.862643 
L 59.416765 95.166643 
L 60.349406 79.670382 
L 61.282045 83.5882 
L 62.214684 82.268095 
L 63.147327 89.01164 
L 64.07996 88.3244 
L 65.012598 91.59336 
L 65.945245 88.510832 
L 66.877884 83.742646 
L 67.810526 83.667708 
L 68.743162 98.738556 
L 69.675784 83.975686 
L 70.608443 87.182046 
L 71.541078 89.867491 
L 72.473724 85.615193 
L 73.406361 86.403417 
L 74.339003 94.89522 
L 75.271637 82.507076 
L 76.204286 91.079301 
L 77.136912 86.535473 
L 78.069558 89.587386 
L 79.002199 83.257831 
L 79.934841 89.778388 
L 80.867465 93.450828 
L 81.800118 83.918112 
L 82.732742 85.494103 
L 83.665398 91.762428 
L 84.598038 86.484296 
L 85.53068 88.200568 
L 86.463316 93.777541 
L 87.395962 89.697052 
L 96.913595 82.417972 
L 97.655282 85.413682 
L 98.587939 89.79895 
L 99.520578 82.378675 
L 100.453222 90.690443 
L 101.385859 91.928755 
L 102.318497 89.982184 
L 103.251135 93.287699 
L 104.183773 87.209005 
L 105.116412 91.292692 
L 106.049054 90.550619 
L 106.981691 91.920987 
L 107.914333 83.69878 
L 108.846974 83.082822 
L 109.779613 94.143551 
L 110.71225 89.757825 
L 111.644893 90.505839 
L 112.57753 87.20078 
L 113.510173 81.488096 
L 114.442814 91.307771 
L 115.37545 84.068445 
L 116.308095 77.567537 
L 117.240726 89.635822 
L 118.173367 98.927273 
L 119.106014 86.369146 
L 120.038653 80.258466 
L 120.971293 86.471044 
L 121.903926 78.606622 
L 122.836569 88.538705 
L 123.769209 80.65829 
L 124.701847 83.388516 
L 125.634489 80.888132 
L 129.365046 81.223984 
L 130.297692 90.23076 
L 131.230328 87.669602 
L 132.162968 74.404587 
L 133.095609 88.660709 
L 134.028248 95.567381 
L 134.960891 84.386934 
L 135.893512 83.372066 
L 136.826165 86.418953 
L 137.75881 85.205316 
L 138.691446 87.272063 
L 139.624089 86.375087 
L 140.556726 95.925166 
L 141.489366 84.697197 
L 142.422003 85.623418 
L 143.354646 81.058114 
L 144.287298 88.343591 
L 145.219926 85.369815 
L 146.152567 87.436562 
L 147.085204 79.852245 
L 148.017844 81.960574 
L 148.950485 84.471925 
L 149.883123 83.507778 
L 150.815765 83.431012 
L 151.7484 80.402403 
L 179.727656 80.402403 
L 188.43171 83.986196 
L 189.054038 83.664052 
L 189.986678 79.409926 
L 190.919315 86.520851 
L 191.851955 82.404264 
L 192.7846 83.388516 
L 193.717237 81.229924 
L 194.649875 86.58071 
L 195.582513 88.582115 
L 196.515156 86.313856 
L 197.447798 83.446548 
L 198.380437 82.089431 
L 199.313081 91.62763 
L 200.245713 87.648126 
L 201.178356 82.814141 
L 202.110995 86.773083 
L 203.043636 83.493613 
" clip-path="url(#p3e0cd919cd)" style="fill: none; stroke: #ff6b6b; stroke-width: 1.2; stroke-linecap: square"/>
   </g>
   <g id="patch_3">
    <path d="M 35.96 103.4 
L 35.96 5 
" style="fill: none; stroke: var(--fg-color); stroke-width: 0.8; stroke-linejoin: miter; stroke-linecap: square"/>
   </g>
   <g id="patch_4">
    <path d="M 35.96 103.4 
L 211 103.4 
" style="fill: none; stroke: var(--fg-color); stroke-width: 0.8; stroke-linejoin: miter; stroke-linecap: square"/>
   </g>
  </g>
 </g>
 <defs>
  <clipPath id="p3e0cd919cd">
   <rect x="35.96" y="5" width="175.04" height="98.4"/>
  </clipPath>
 </defs>
</svg>
