<?xml version="1.0" encoding="utf-8" standalone="no"?>
<!DOCTYPE svg PUBLIC "-//W3C//DTD SVG 1.1//EN"
  "http://www.w3.org/Graphics/SVG/1.1/DTD/svg11.dtd">
<svg xmlns:xlink="http://www.w3.org/1999/xlink" width="216pt" height="122.4pt" viewBox="0 0 216 122.4" xmlns="http://www.w3.org/2000/svg" version="1.1">
  <style>
    :root {
      --fg-color: #212529;
      --grid-color: rgba(33, 37, 41, 0.1);
    }
    @media (prefers-color-scheme: dark) {
      :root {
        --fg-color: #dee2e6;
        --grid-color: rgba(248, 249, 250, 0.15);
      }
    }
  </style>

 <metadata>
  <rdf:RDF xmlns:dc="http://purl.org/dc/elements/1.1/" xmlns:cc="http://creativecommons.org/ns#" xmlns:rdf="http://www.w3.org/1999/02/22-rdf-syntax-ns#">
   <cc:Work>
    <dc:type rdf:resource="http://purl.org/dc/dcmitype/StillImage"/>
    <dc:date>2026-06-30T15:36:43.612003</dc:date>
    <dc:format>image/svg+xml</dc:format>
    <dc:creator>
     <cc:Agent>
      <dc:title>Matplotlib v3.11.0, https://matplotlib.org/</dc:title>
     </cc:Agent>
    </dc:creator>
   </cc:Work>
  </rdf:RDF>
 </metadata>
 <defs>
  <style type="text/css">*{stroke-linejoin: round; stroke-linecap: butt}</style>
 </defs>
 <g id="figure_1">
  <g id="patch_1">
   <path d="M 0 122.4 
L 216 122.4 
L 216 0 
L 0 0 
L 0 122.4 
z
" style="fill: none; opacity: 0"/>
  </g>
  <g id="axes_1">
   <g id="patch_2">
    <path d="M 35.96 103.4 
L 211 103.4 
L 211 5 
L 35.96 5 
L 35.96 103.4 
z
" style="fill: none; opacity: 0"/>
   </g>
   <g id="matplotlib.axis_1">
    <g id="xtick_1">
     <g id="line2d_1">
      <path d="M 69.784035 103.4 
L 69.784035 5 
" clip-path="url(#pee07b0183e)" style="fill: none; stroke-dasharray: 2.96,1.28; stroke-dashoffset: 0; stroke: var(--grid-color); stroke-width: 0.8"/>
     </g>
     <g id="line2d_2">
      <defs>
       <path id="md35b08954e" d="M 0 0 
L 0 3.5 
" style="stroke: var(--fg-color); stroke-width: 0.8"/>
      </defs>
      <g>
       <use xlink:href="#md35b08954e" x="69.784035" y="103.4" style="fill: var(--fg-color); stroke: var(--fg-color); stroke-width: 0.8"/>
      </g>
     </g>
     <g id="text_1">
      <text style="font-size: 7px; font-family: 'DejaVu Sans', 'Bitstream Vera Sans', 'Computer Modern Sans Serif', 'Lucida Grande', 'Verdana', 'Geneva', 'Lucid', 'Arial', 'Helvetica', 'Avant Garde', sans-serif; text-anchor: middle; fill: var(--fg-color)" x="69.784035" y="115.718359" transform="rotate(-0 69.784035 115.718359)">02/2026</text>
     </g>
    </g>
    <g id="xtick_2">
     <g id="line2d_3">
      <path d="M 122.345302 103.4 
L 122.345302 5 
" clip-path="url(#pee07b0183e)" style="fill: none; stroke-dasharray: 2.96,1.28; stroke-dashoffset: 0; stroke: var(--grid-color); stroke-width: 0.8"/>
     </g>
     <g id="line2d_4">
      <g>
       <use xlink:href="#md35b08954e" x="122.345302" y="103.4" style="fill: var(--fg-color); stroke: var(--fg-color); stroke-width: 0.8"/>
      </g>
     </g>
     <g id="text_2">
      <text style="font-size: 7px; font-family: 'DejaVu Sans', 'Bitstream Vera Sans', 'Computer Modern Sans Serif', 'Lucida Grande', 'Verdana', 'Geneva', 'Lucid', 'Arial', 'Helvetica', 'Avant Garde', sans-serif; text-anchor: middle; fill: var(--fg-color)" x="122.345302" y="115.718359" transform="rotate(-0 122.345302 115.718359)">04/2026</text>
     </g>
    </g>
    <g id="xtick_3">
     <g id="line2d_5">
      <path d="M 176.688307 103.4 
L 176.688307 5 
" clip-path="url(#pee07b0183e)" style="fill: none; stroke-dasharray: 2.96,1.28; stroke-dashoffset: 0; stroke: var(--grid-color); stroke-width: 0.8"/>
     </g>
     <g id="line2d_6">
      <g>
       <use xlink:href="#md35b08954e" x="176.688307" y="103.4" style="fill: var(--fg-color); stroke: var(--fg-color); stroke-width: 0.8"/>
      </g>
     </g>
     <g id="text_3">
      <text style="font-size: 7px; font-family: 'DejaVu Sans', 'Bitstream Vera Sans', 'Computer Modern Sans Serif', 'Lucida Grande', 'Verdana', 'Geneva', 'Lucid', 'Arial', 'Helvetica', 'Avant Garde', sans-serif; text-anchor: middle; fill: var(--fg-color)" x="176.688307" y="115.718359" transform="rotate(-0 176.688307 115.718359)">06/2026</text>
     </g>
    </g>
   </g>
   <g id="matplotlib.axis_2">
    <g id="ytick_1">
     <g id="line2d_7">
      <path d="M 35.96 100.323248 
L 211 100.323248 
" clip-path="url(#pee07b0183e)" style="fill: none; stroke-dasharray: 2.96,1.28; stroke-dashoffset: 0; stroke: var(--grid-color); stroke-width: 0.8"/>
     </g>
     <g id="line2d_8">
      <defs>
       <path id="mb9a50f678f" d="M 0 0 
L -3.5 0 
" style="stroke: var(--fg-color); stroke-width: 0.8"/>
      </defs>
      <g>
       <use xlink:href="#mb9a50f678f" x="35.96" y="100.323248" style="fill: var(--fg-color); stroke: var(--fg-color); stroke-width: 0.8"/>
      </g>
     </g>
     <g id="text_4">
      <text style="font-size: 7px; font-family: 'DejaVu Sans', 'Bitstream Vera Sans', 'Computer Modern Sans Serif', 'Lucida Grande', 'Verdana', 'Geneva', 'Lucid', 'Arial', 'Helvetica', 'Avant Garde', sans-serif; text-anchor: end; fill: var(--fg-color)" x="28.96" y="102.982428" transform="rotate(-0 28.96 102.982428)">0</text>
     </g>
    </g>
    <g id="ytick_2">
     <g id="line2d_9">
      <path d="M 35.96 84.003685 
L 211 84.003685 
" clip-path="url(#pee07b0183e)" style="fill: none; stroke-dasharray: 2.96,1.28; stroke-dashoffset: 0; stroke: var(--grid-color); stroke-width: 0.8"/>
     </g>
     <g id="line2d_10">
      <g>
       <use xlink:href="#mb9a50f678f" x="35.96" y="84.003685" style="fill: var(--fg-color); stroke: var(--fg-color); stroke-width: 0.8"/>
      </g>
     </g>
     <g id="text_5">
      <text style="font-size: 7px; font-family: 'DejaVu Sans', 'Bitstream Vera Sans', 'Computer Modern Sans Serif', 'Lucida Grande', 'Verdana', 'Geneva', 'Lucid', 'Arial', 'Helvetica', 'Avant Garde', sans-serif; text-anchor: end; fill: var(--fg-color)" x="28.96" y="86.662864" transform="rotate(-0 28.96 86.662864)">100</text>
     </g>
    </g>
    <g id="ytick_3">
     <g id="line2d_11">
      <path d="M 35.96 67.684121 
L 211 67.684121 
" clip-path="url(#pee07b0183e)" style="fill: none; stroke-dasharray: 2.96,1.28; stroke-dashoffset: 0; stroke: var(--grid-color); stroke-width: 0.8"/>
     </g>
     <g id="line2d_12">
      <g>
       <use xlink:href="#mb9a50f678f" x="35.96" y="67.684121" style="fill: var(--fg-color); stroke: var(--fg-color); stroke-width: 0.8"/>
      </g>
     </g>
     <g id="text_6">
      <text style="font-size: 7px; font-family: 'DejaVu Sans', 'Bitstream Vera Sans', 'Computer Modern Sans Serif', 'Lucida Grande', 'Verdana', 'Geneva', 'Lucid', 'Arial', 'Helvetica', 'Avant Garde', sans-serif; text-anchor: end; fill: var(--fg-color)" x="28.96" y="70.343301" transform="rotate(-0 28.96 70.343301)">200</text>
     </g>
    </g>
    <g id="ytick_4">
     <g id="line2d_13">
      <path d="M 35.96 51.364557 
L 211 51.364557 
" clip-path="url(#pee07b0183e)" style="fill: none; stroke-dasharray: 2.96,1.28; stroke-dashoffset: 0; stroke: var(--grid-color); stroke-width: 0.8"/>
     </g>
     <g id="line2d_14">
      <g>
       <use xlink:href="#mb9a50f678f" x="35.96" y="51.364557" style="fill: var(--fg-color); stroke: var(--fg-color); stroke-width: 0.8"/>
      </g>
     </g>
     <g id="text_7">
      <text style="font-size: 7px; font-family: 'DejaVu Sans', 'Bitstream Vera Sans', 'Computer Modern Sans Serif', 'Lucida Grande', 'Verdana', 'Geneva', 'Lucid', 'Arial', 'Helvetica', 'Avant Garde', sans-serif; text-anchor: end; fill: var(--fg-color)" x="28.96" y="54.023737" transform="rotate(-0 28.96 54.023737)">300</text>
     </g>
    </g>
    <g id="ytick_5">
     <g id="line2d_15">
      <path d="M 35.96 35.044994 
L 211 35.044994 
" clip-path="url(#pee07b0183e)" style="fill: none; stroke-dasharray: 2.96,1.28; stroke-dashoffset: 0; stroke: var(--grid-color); stroke-width: 0.8"/>
     </g>
     <g id="line2d_16">
      <g>
       <use xlink:href="#mb9a50f678f" x="35.96" y="35.044994" style="fill: var(--fg-color); stroke: var(--fg-color); stroke-width: 0.8"/>
      </g>
     </g>
     <g id="text_8">
      <text style="font-size: 7px; font-family: 'DejaVu Sans', 'Bitstream Vera Sans', 'Computer Modern Sans Serif', 'Lucida Grande', 'Verdana', 'Geneva', 'Lucid', 'Arial', 'Helvetica', 'Avant Garde', sans-serif; text-anchor: end; fill: var(--fg-color)" x="28.96" y="37.704174" transform="rotate(-0 28.96 37.704174)">400</text>
     </g>
    </g>
    <g id="ytick_6">
     <g id="line2d_17">
      <path d="M 35.96 18.72543 
L 211 18.72543 
" clip-path="url(#pee07b0183e)" style="fill: none; stroke-dasharray: 2.96,1.28; stroke-dashoffset: 0; stroke: var(--grid-color); stroke-width: 0.8"/>
     </g>
     <g id="line2d_18">
      <g>
       <use xlink:href="#mb9a50f678f" x="35.96" y="18.72543" style="fill: var(--fg-color); stroke: var(--fg-color); stroke-width: 0.8"/>
      </g>
     </g>
     <g id="text_9">
      <text style="font-size: 7px; font-family: 'DejaVu Sans', 'Bitstream Vera Sans', 'Computer Modern Sans Serif', 'Lucida Grande', 'Verdana', 'Geneva', 'Lucid', 'Arial', 'Helvetica', 'Avant Garde', sans-serif; text-anchor: end; fill: var(--fg-color)" x="28.96" y="21.38461" transform="rotate(-0 28.96 21.38461)">500</text>
     </g>
    </g>
    <g id="text_10">
     <text style="font-size: 7px; font-family: 'DejaVu Sans', 'Bitstream Vera Sans', 'Computer Modern Sans Serif', 'Lucida Grande', 'Verdana', 'Geneva', 'Lucid', 'Arial', 'Helvetica', 'Avant Garde', sans-serif; text-anchor: middle; fill: var(--fg-color)" x="9.917109" y="54.2" transform="rotate(-90 9.917109 54.2)">ms</text>
    </g>
   </g>
   <g id="line2d_19">
    <path d="M 43.916364 65.100081 
L 44.468628 67.792157 
L 45.3595 64.878135 
L 46.250371 65.21187 
L 48.032112 68.925061 
L 48.922979 69.508322 
L 49.81384 64.765204 
L 50.704717 70.870353 
L 51.595589 65.455032 
L 52.486458 64.158116 
L 53.377327 64.839131 
L 54.268192 69.308734 
L 56.049934 65.49681 
L 56.940797 62.074434 
L 57.831669 70.659667 
L 58.722538 63.880031 
L 59.613407 66.393244 
L 60.504275 63.984639 
L 61.395144 67.997293 
L 62.286016 63.095223 
L 63.176879 70.239275 
L 64.067746 60.890939 
L 64.958622 68.293167 
L 65.84949 68.865331 
L 66.740361 66.856556 
L 67.631226 62.181164 
L 68.522078 69.416116 
L 69.412965 63.890965 
L 70.30383 66.567536 
L 71.194705 65.18837 
L 72.085571 67.496446 
L 72.976442 71.216001 
L 73.867306 68.905967 
L 74.758184 65.5239 
L 75.649039 62.906242 
L 76.539914 68.985933 
L 77.430784 73.217595 
L 78.321655 64.154199 
L 79.212509 65.825323 
L 80.103391 66.684058 
L 80.994245 68.331029 
L 81.885129 70.365099 
L 82.775998 70.414384 
L 83.666869 67.723614 
L 84.557735 69.144396 
L 85.44861 48.694187 
L 94.53997 66.832566 
L 95.248438 69.889384 
L 96.139324 67.331945 
L 97.030192 67.892195 
L 97.921065 67.011592 
L 98.811931 64.478143 
L 99.702798 65.681058 
L 100.593666 69.958905 
L 101.484533 65.923893 
L 102.375401 62.586216 
L 103.266272 68.4358 
L 104.157138 65.304076 
L 105.048009 65.955226 
L 105.93888 64.812857 
L 106.829748 67.24692 
L 107.720614 70.544125 
L 108.611487 66.960675 
L 109.502352 68.491287 
L 110.393224 60.304741 
L 111.284094 70.628823 
L 112.17496 67.165159 
L 113.065834 69.280501 
L 113.956695 68.81882 
L 114.847564 65.202405 
L 115.738441 66.870591 
L 116.629309 65.699499 
L 117.520178 65.083272 
L 118.41104 59.508672 
L 119.301913 64.862305 
L 120.192782 66.342979 
L 121.083649 66.392428 
L 121.97452 63.111869 
L 125.537994 68.095048 
L 126.428869 67.542304 
L 127.319734 66.169666 
L 128.210603 65.180047 
L 129.101474 63.731849 
L 129.992342 9.472727 
L 130.883214 56.495755 
L 131.774065 64.341874 
L 132.664946 70.398554 
L 133.55582 63.854409 
L 134.446686 64.224863 
L 135.337558 68.588062 
L 136.228424 65.278454 
L 137.119294 60.21074 
L 138.010159 69.881713 
L 138.901032 66.494425 
L 139.791912 64.704169 
L 140.68277 67.571353 
L 142.464507 58.590371 
L 143.355376 64.963976 
L 144.246246 67.896439 
L 145.137113 64.563657 
L 146.027984 64.173946 
L 146.918849 62.945409 
L 173.644977 62.945409 
L 181.959197 67.737976 
L 182.553652 66.908126 
L 183.444521 62.776828 
L 184.335387 69.697955 
L 185.226256 65.221662 
L 187.007996 60.294133 
L 187.898864 68.490797 
L 188.789731 67.603666 
L 189.680603 65.994883 
L 190.571474 54.575595 
L 191.462343 63.404805 
L 192.353215 66.119075 
L 193.244077 66.169502 
L 194.134949 69.766661 
L 195.025817 68.461095 
L 195.916688 62.799349 
L 196.807557 66.209975 
L 197.698426 67.30567 
L 198.589295 68.137642 
L 199.480162 66.857535 
L 200.371032 67.285108 
L 201.261898 69.005842 
L 202.152766 67.135947 
L 203.043636 67.515214 
L 203.043636 67.515214 
" clip-path="url(#pee07b0183e)" style="fill: none; stroke: #339af0; stroke-width: 1.2; stroke-linecap: square"/>
   </g>
   <g id="line2d_20">
    <path d="M 43.916364 98.635316 
L 44.468628 97.911054 
L 45.3595 98.786272 
L 47.141245 98.057277 
L 48.032112 98.003259 
L 48.922979 98.441276 
L 49.81384 97.925252 
L 51.595589 97.625788 
L 52.486458 98.279876 
L 53.377327 97.836636 
L 54.268192 98.526791 
L 55.159063 98.859383 
L 56.049934 98.509329 
L 56.940797 98.371592 
L 57.831669 98.532176 
L 59.613407 97.463081 
L 60.504275 98.596802 
L 61.395144 98.322143 
L 62.286016 98.186854 
L 63.176879 98.35005 
L 64.067746 97.467814 
L 65.84949 98.753469 
L 66.740361 98.097423 
L 67.631226 98.084204 
L 69.412965 98.65343 
L 70.30383 97.971109 
L 71.194705 97.939939 
L 72.085571 98.462981 
L 72.976442 98.158132 
L 74.758184 98.230101 
L 75.649039 97.681927 
L 76.539914 98.386769 
L 77.430784 98.743841 
L 78.321655 98.289015 
L 79.212509 98.307782 
L 80.103391 98.475874 
L 80.994245 98.51553 
L 81.885129 98.243483 
L 82.775998 98.437196 
L 84.557735 98.628298 
L 85.44861 98.732744 
L 94.53997 97.964418 
L 95.248438 98.057277 
L 96.139324 97.849855 
L 97.030192 98.630093 
L 98.811931 98.053034 
L 99.702798 98.584725 
L 100.593666 97.995099 
L 101.484533 98.575586 
L 103.266272 98.927273 
L 104.157138 98.276612 
L 105.048009 98.142302 
L 105.93888 98.295379 
L 106.829748 97.987755 
L 107.720614 98.639069 
L 108.611487 98.548822 
L 109.502352 98.788883 
L 110.393224 98.245115 
L 111.284094 98.303865 
L 112.17496 98.617364 
L 113.065834 98.174614 
L 113.956695 98.656694 
L 114.847564 98.447641 
L 115.738441 98.481585 
L 116.629309 98.687375 
L 118.41104 98.672524 
L 119.301913 98.375671 
L 120.192782 98.671708 
L 121.083649 98.315779 
L 121.97452 97.811667 
L 125.537994 98.199257 
L 126.428869 98.4762 
L 127.319734 98.089753 
L 128.210603 98.213618 
L 129.992342 98.011256 
L 130.883214 98.262087 
L 131.774065 98.281671 
L 132.664946 97.961807 
L 133.55582 98.048301 
L 134.446686 98.278244 
L 136.228424 97.964092 
L 137.119294 98.28624 
L 138.901032 98.184733 
L 139.791912 97.992651 
L 140.68277 98.556003 
L 141.57364 98.12027 
L 142.464507 98.740087 
L 143.355376 97.856057 
L 144.246246 97.611753 
L 145.137113 98.017131 
L 146.027984 98.720993 
L 146.918849 98.338136 
L 173.644977 98.338136 
L 181.959197 98.529075 
L 183.444521 97.885432 
L 184.335387 98.438012 
L 185.226256 98.478974 
L 187.898864 97.914154 
L 188.789731 98.180816 
L 189.680603 97.955116 
L 190.571474 98.434422 
L 191.462343 98.663875 
L 192.353215 97.845938 
L 193.244077 97.89147 
L 194.134949 98.289504 
L 195.025817 98.041447 
L 195.916688 98.320838 
L 197.698426 98.384974 
L 198.589295 98.121902 
L 199.480162 98.498231 
L 200.371032 98.604961 
L 201.261898 98.344828 
L 202.152766 98.727521 
L 203.043636 98.803734 
L 203.043636 98.803734 
" clip-path="url(#pee07b0183e)" style="fill: none; stroke: #ff6b6b; stroke-width: 1.2; stroke-linecap: square"/>
   </g>
   <g id="patch_3">
    <path d="M 35.96 103.4 
L 35.96 5 
" style="fill: none; stroke: var(--fg-color); stroke-width: 0.8; stroke-linejoin: miter; stroke-linecap: square"/>
   </g>
   <g id="patch_4">
    <path d="M 35.96 103.4 
L 211 103.4 
" style="fill: none; stroke: var(--fg-color); stroke-width: 0.8; stroke-linejoin: miter; stroke-linecap: square"/>
   </g>
  </g>
 </g>
 <defs>
  <clipPath id="pee07b0183e">
   <rect x="35.96" y="5" width="175.04" height="98.4"/>
  </clipPath>
 </defs>
</svg>
