<?xml version="1.0" encoding="utf-8" standalone="no"?>
<!DOCTYPE svg PUBLIC "-//W3C//DTD SVG 1.1//EN"
  "http://www.w3.org/Graphics/SVG/1.1/DTD/svg11.dtd">
<svg xmlns:xlink="http://www.w3.org/1999/xlink" width="216pt" height="122.4pt" viewBox="0 0 216 122.4" xmlns="http://www.w3.org/2000/svg" version="1.1">
  <style>
    :root {
      --fg-color: #212529;
      --grid-color: rgba(33, 37, 41, 0.1);
    }
    @media (prefers-color-scheme: dark) {
      :root {
        --fg-color: #dee2e6;
        --grid-color: rgba(248, 249, 250, 0.15);
      }
    }
  </style>

 <metadata>
  <rdf:RDF xmlns:dc="http://purl.org/dc/elements/1.1/" xmlns:cc="http://creativecommons.org/ns#" xmlns:rdf="http://www.w3.org/1999/02/22-rdf-syntax-ns#">
   <cc:Work>
    <dc:type rdf:resource="http://purl.org/dc/dcmitype/StillImage"/>
    <dc:date>2026-06-30T04:48:22.797469</dc:date>
    <dc:format>image/svg+xml</dc:format>
    <dc:creator>
     <cc:Agent>
      <dc:title>Matplotlib v3.11.0, https://matplotlib.org/</dc:title>
     </cc:Agent>
    </dc:creator>
   </cc:Work>
  </rdf:RDF>
 </metadata>
 <defs>
  <style type="text/css">*{stroke-linejoin: round; stroke-linecap: butt}</style>
 </defs>
 <g id="figure_1">
  <g id="patch_1">
   <path d="M 0 122.4 
L 216 122.4 
L 216 0 
L 0 0 
L 0 122.4 
z
" style="fill: none; opacity: 0"/>
  </g>
  <g id="axes_1">
   <g id="patch_2">
    <path d="M 35.96 103.4 
L 211 103.4 
L 211 5 
L 35.96 5 
L 35.96 103.4 
z
" style="fill: none; opacity: 0"/>
   </g>
   <g id="matplotlib.axis_1">
    <g id="xtick_1">
     <g id="line2d_1">
      <path d="M 70.996911 103.4 
L 70.996911 5 
" clip-path="url(#p50b0d5922b)" style="fill: none; stroke-dasharray: 2.96,1.28; stroke-dashoffset: 0; stroke: var(--grid-color); stroke-width: 0.8"/>
     </g>
     <g id="line2d_2">
      <defs>
       <path id="m675626d530" d="M 0 0 
L 0 3.5 
" style="stroke: var(--fg-color); stroke-width: 0.8"/>
      </defs>
      <g>
       <use xlink:href="#m675626d530" x="70.996911" y="103.4" style="fill: var(--fg-color); stroke: var(--fg-color); stroke-width: 0.8"/>
      </g>
     </g>
     <g id="text_1">
      <text style="font-size: 7px; font-family: 'DejaVu Sans', 'Bitstream Vera Sans', 'Computer Modern Sans Serif', 'Lucida Grande', 'Verdana', 'Geneva', 'Lucid', 'Arial', 'Helvetica', 'Avant Garde', sans-serif; text-anchor: middle; fill: var(--fg-color)" x="70.996911" y="115.718359" transform="rotate(-0 70.996911 115.718359)">02/2026</text>
     </g>
    </g>
    <g id="xtick_2">
     <g id="line2d_3">
      <path d="M 126.022656 103.4 
L 126.022656 5 
" clip-path="url(#p50b0d5922b)" style="fill: none; stroke-dasharray: 2.96,1.28; stroke-dashoffset: 0; stroke: var(--grid-color); stroke-width: 0.8"/>
     </g>
     <g id="line2d_4">
      <g>
       <use xlink:href="#m675626d530" x="126.022656" y="103.4" style="fill: var(--fg-color); stroke: var(--fg-color); stroke-width: 0.8"/>
      </g>
     </g>
     <g id="text_2">
      <text style="font-size: 7px; font-family: 'DejaVu Sans', 'Bitstream Vera Sans', 'Computer Modern Sans Serif', 'Lucida Grande', 'Verdana', 'Geneva', 'Lucid', 'Arial', 'Helvetica', 'Avant Garde', sans-serif; text-anchor: middle; fill: var(--fg-color)" x="126.022656" y="115.718359" transform="rotate(-0 126.022656 115.718359)">04/2026</text>
     </g>
    </g>
    <g id="xtick_3">
     <g id="line2d_5">
      <path d="M 182.913681 103.4 
L 182.913681 5 
" clip-path="url(#p50b0d5922b)" style="fill: none; stroke-dasharray: 2.96,1.28; stroke-dashoffset: 0; stroke: var(--grid-color); stroke-width: 0.8"/>
     </g>
     <g id="line2d_6">
      <g>
       <use xlink:href="#m675626d530" x="182.913681" y="103.4" style="fill: var(--fg-color); stroke: var(--fg-color); stroke-width: 0.8"/>
      </g>
     </g>
     <g id="text_3">
      <text style="font-size: 7px; font-family: 'DejaVu Sans', 'Bitstream Vera Sans', 'Computer Modern Sans Serif', 'Lucida Grande', 'Verdana', 'Geneva', 'Lucid', 'Arial', 'Helvetica', 'Avant Garde', sans-serif; text-anchor: middle; fill: var(--fg-color)" x="182.913681" y="115.718359" transform="rotate(-0 182.913681 115.718359)">06/2026</text>
     </g>
    </g>
   </g>
   <g id="matplotlib.axis_2">
    <g id="ytick_1">
     <g id="line2d_7">
      <path d="M 35.96 88.616827 
L 211 88.616827 
" clip-path="url(#p50b0d5922b)" style="fill: none; stroke-dasharray: 2.96,1.28; stroke-dashoffset: 0; stroke: var(--grid-color); stroke-width: 0.8"/>
     </g>
     <g id="line2d_8">
      <defs>
       <path id="m0525c847be" d="M 0 0 
L -3.5 0 
" style="stroke: var(--fg-color); stroke-width: 0.8"/>
      </defs>
      <g>
       <use xlink:href="#m0525c847be" x="35.96" y="88.616827" style="fill: var(--fg-color); stroke: var(--fg-color); stroke-width: 0.8"/>
      </g>
     </g>
     <g id="text_4">
      <text style="font-size: 7px; font-family: 'DejaVu Sans', 'Bitstream Vera Sans', 'Computer Modern Sans Serif', 'Lucida Grande', 'Verdana', 'Geneva', 'Lucid', 'Arial', 'Helvetica', 'Avant Garde', sans-serif; text-anchor: end; fill: var(--fg-color)" x="28.96" y="91.276007" transform="rotate(-0 28.96 91.276007)">400</text>
     </g>
    </g>
    <g id="ytick_2">
     <g id="line2d_9">
      <path d="M 35.96 67.666598 
L 211 67.666598 
" clip-path="url(#p50b0d5922b)" style="fill: none; stroke-dasharray: 2.96,1.28; stroke-dashoffset: 0; stroke: var(--grid-color); stroke-width: 0.8"/>
     </g>
     <g id="line2d_10">
      <g>
       <use xlink:href="#m0525c847be" x="35.96" y="67.666598" style="fill: var(--fg-color); stroke: var(--fg-color); stroke-width: 0.8"/>
      </g>
     </g>
     <g id="text_5">
      <text style="font-size: 7px; font-family: 'DejaVu Sans', 'Bitstream Vera Sans', 'Computer Modern Sans Serif', 'Lucida Grande', 'Verdana', 'Geneva', 'Lucid', 'Arial', 'Helvetica', 'Avant Garde', sans-serif; text-anchor: end; fill: var(--fg-color)" x="28.96" y="70.325777" transform="rotate(-0 28.96 70.325777)">500</text>
     </g>
    </g>
    <g id="ytick_3">
     <g id="line2d_11">
      <path d="M 35.96 46.716369 
L 211 46.716369 
" clip-path="url(#p50b0d5922b)" style="fill: none; stroke-dasharray: 2.96,1.28; stroke-dashoffset: 0; stroke: var(--grid-color); stroke-width: 0.8"/>
     </g>
     <g id="line2d_12">
      <g>
       <use xlink:href="#m0525c847be" x="35.96" y="46.716369" style="fill: var(--fg-color); stroke: var(--fg-color); stroke-width: 0.8"/>
      </g>
     </g>
     <g id="text_6">
      <text style="font-size: 7px; font-family: 'DejaVu Sans', 'Bitstream Vera Sans', 'Computer Modern Sans Serif', 'Lucida Grande', 'Verdana', 'Geneva', 'Lucid', 'Arial', 'Helvetica', 'Avant Garde', sans-serif; text-anchor: end; fill: var(--fg-color)" x="28.96" y="49.375548" transform="rotate(-0 28.96 49.375548)">600</text>
     </g>
    </g>
    <g id="ytick_4">
     <g id="line2d_13">
      <path d="M 35.96 25.766139 
L 211 25.766139 
" clip-path="url(#p50b0d5922b)" style="fill: none; stroke-dasharray: 2.96,1.28; stroke-dashoffset: 0; stroke: var(--grid-color); stroke-width: 0.8"/>
     </g>
     <g id="line2d_14">
      <g>
       <use xlink:href="#m0525c847be" x="35.96" y="25.766139" style="fill: var(--fg-color); stroke: var(--fg-color); stroke-width: 0.8"/>
      </g>
     </g>
     <g id="text_7">
      <text style="font-size: 7px; font-family: 'DejaVu Sans', 'Bitstream Vera Sans', 'Computer Modern Sans Serif', 'Lucida Grande', 'Verdana', 'Geneva', 'Lucid', 'Arial', 'Helvetica', 'Avant Garde', sans-serif; text-anchor: end; fill: var(--fg-color)" x="28.96" y="28.425319" transform="rotate(-0 28.96 28.425319)">700</text>
     </g>
    </g>
    <g id="text_8">
     <text style="font-size: 7px; font-family: 'DejaVu Sans', 'Bitstream Vera Sans', 'Computer Modern Sans Serif', 'Lucida Grande', 'Verdana', 'Geneva', 'Lucid', 'Arial', 'Helvetica', 'Avant Garde', sans-serif; text-anchor: middle; fill: var(--fg-color)" x="9.917109" y="54.2" transform="rotate(-90 9.917109 54.2)">ms</text>
    </g>
   </g>
   <g id="line2d_15">
    <path d="M 43.916364 82.937639 
L 44.494523 92.24834 
L 45.427166 84.474967 
L 46.359808 90.512194 
L 47.292453 78.675734 
L 48.22509 85.121491 
L 49.157727 87.926307 
L 50.090359 69.382212 
L 51.023007 96.070918 
L 51.95565 95.197294 
L 52.88829 85.834427 
L 53.82093 86.32131 
L 54.753566 93.727426 
L 55.686208 84.455273 
L 56.618849 88.596715 
L 57.551483 95.688158 
L 58.484126 91.783873 
L 59.416765 95.620698 
L 60.349406 81.918201 
L 61.282045 93.478537 
L 62.214684 91.218636 
L 63.147327 88.323733 
L 64.07996 96.078251 
L 65.012598 91.527023 
L 65.945245 94.685899 
L 66.877884 83.689333 
L 67.810526 84.99977 
L 68.743162 83.491772 
L 69.675784 88.529674 
L 70.608443 91.829964 
L 71.541078 78.497657 
L 72.473724 69.828871 
L 73.406361 84.968554 
L 74.339003 86.538983 
L 75.271637 80.376054 
L 76.204286 73.36506 
L 77.136912 96.713253 
L 78.069558 91.383724 
L 79.002199 95.335984 
L 79.934841 76.343135 
L 80.867465 83.584791 
L 81.800118 92.524045 
L 82.732742 80.011101 
L 83.665398 98.927273 
L 84.598038 85.086504 
L 85.53068 80.54219 
L 86.463316 90.336422 
L 87.395962 69.018307 
L 96.913595 90.651723 
L 97.655282 91.175897 
L 98.587939 86.790176 
L 99.520578 79.166388 
L 100.453222 83.940107 
L 101.385859 92.370689 
L 102.318497 66.127384 
L 103.251135 91.404883 
L 104.183773 94.995334 
L 105.116412 77.068223 
L 106.049054 83.296935 
L 106.981691 88.140628 
L 107.914333 77.93242 
L 108.846974 89.378577 
L 109.779613 73.953133 
L 110.71225 88.202012 
L 111.644893 86.317958 
L 112.57753 85.215138 
L 113.510173 87.264699 
L 114.442814 93.071893 
L 115.37545 80.517049 
L 116.308095 75.136612 
L 117.240726 82.17505 
L 118.173367 83.595895 
L 119.106014 84.440818 
L 120.038653 81.490607 
L 120.971293 68.787645 
L 121.903926 92.634662 
L 122.836569 78.608483 
L 123.769209 79.066874 
L 124.701847 62.301663 
L 125.634489 88.842461 
L 129.365046 78.337807 
L 130.297692 78.954372 
L 131.230328 80.380454 
L 132.162968 81.619241 
L 133.095609 78.507503 
L 134.028248 70.394946 
L 134.960891 66.613849 
L 135.893512 73.374907 
L 136.826165 84.478528 
L 137.75881 75.892077 
L 138.691446 70.533846 
L 139.624089 70.991399 
L 140.556726 84.488794 
L 141.489366 73.711786 
L 142.422003 83.379689 
L 143.354646 67.524555 
L 144.287298 66.982782 
L 145.219926 78.552965 
L 146.152567 78.764353 
L 147.085204 76.01715 
L 148.017844 75.893334 
L 148.950485 83.536606 
L 149.883123 81.717288 
L 150.815765 59.421426 
L 151.7484 72.499397 
L 179.727656 72.499397 
L 188.43171 80.703925 
L 189.054038 84.109804 
L 189.986678 86.496873 
L 190.919315 77.203142 
L 191.851955 59.935754 
L 192.7846 70.534056 
L 193.717237 76.065964 
L 194.649875 91.354184 
L 195.582513 75.388852 
L 196.515156 80.025557 
L 197.447798 81.432784 
L 198.380437 77.514882 
L 199.313081 70.458216 
L 200.245713 74.086796 
L 201.178356 67.897469 
L 202.110995 64.191164 
L 203.043636 87.614149 
" clip-path="url(#p50b0d5922b)" style="fill: none; stroke: #339af0; stroke-width: 1.2; stroke-linecap: square"/>
   </g>
   <g id="line2d_16">
    <path d="M 43.916364 15.826303 
L 44.494523 16.175544 
L 45.427166 13.143417 
L 46.359808 15.167419 
L 47.292453 17.56622 
L 48.22509 17.070118 
L 49.157727 18.430417 
L 50.090359 10.865289 
L 51.023007 19.287491 
L 51.95565 19.038602 
L 52.88829 17.868741 
L 53.82093 14.757842 
L 54.753566 16.155222 
L 55.686208 19.078617 
L 56.618849 23.334027 
L 57.551483 20.447505 
L 58.484126 13.99651 
L 59.416765 17.379344 
L 60.349406 17.451413 
L 61.282045 11.704974 
L 62.214684 14.942832 
L 63.147327 14.713218 
L 64.07996 26.474676 
L 65.012598 17.780122 
L 65.945245 23.423066 
L 66.877884 19.893371 
L 67.810526 14.934033 
L 68.743162 15.482929 
L 69.675784 15.941949 
L 70.608443 18.826167 
L 71.541078 17.653163 
L 72.473724 23.7876 
L 73.406361 19.925425 
L 74.339003 28.32081 
L 75.271637 17.40218 
L 76.204286 23.48005 
L 77.136912 20.007341 
L 78.069558 24.108767 
L 79.002199 18.073215 
L 79.934841 14.070884 
L 80.867465 17.814899 
L 81.800118 21.025941 
L 82.732742 15.478529 
L 83.665398 25.136585 
L 84.598038 18.042838 
L 85.53068 18.500181 
L 86.463316 21.724212 
L 87.395962 22.428977 
L 96.913595 24.10311 
L 97.655282 21.464429 
L 98.587939 24.182512 
L 99.520578 18.351225 
L 100.453222 20.716925 
L 101.385859 24.725123 
L 102.318497 20.420479 
L 103.251135 22.124361 
L 104.183773 20.745208 
L 105.116412 14.780468 
L 106.049054 27.738604 
L 106.981691 23.786552 
L 107.914333 14.061246 
L 108.846974 21.128806 
L 109.779613 17.800862 
L 110.71225 20.312376 
L 111.644893 21.247385 
L 112.57753 22.947077 
L 113.510173 21.551163 
L 114.442814 17.631375 
L 115.37545 16.442869 
L 116.308095 26.063423 
L 117.240726 25.929551 
L 118.173367 13.164786 
L 119.106014 19.956012 
L 120.038653 21.629307 
L 120.971293 17.18325 
L 121.903926 27.399419 
L 122.836569 20.407909 
L 123.769209 26.289895 
L 124.701847 12.681674 
L 125.634489 19.721579 
L 129.365046 20.849959 
L 130.297692 27.358147 
L 131.230328 22.478001 
L 132.162968 17.41035 
L 133.095609 17.847162 
L 134.028248 16.873815 
L 134.960891 19.169331 
L 135.893512 18.092909 
L 136.826165 19.173312 
L 137.75881 17.601626 
L 138.691446 13.269118 
L 139.624089 18.880847 
L 140.556726 17.980825 
L 141.489366 20.389263 
L 142.422003 14.507277 
L 143.354646 13.795388 
L 144.287298 14.213555 
L 145.219926 18.158273 
L 146.152567 16.334556 
L 147.085204 14.065646 
L 148.017844 18.275595 
L 148.950485 19.130783 
L 149.883123 13.385811 
L 150.815765 11.329546 
L 151.7484 9.472727 
L 179.727656 9.472727 
L 188.43171 17.247357 
L 189.054038 20.290378 
L 189.986678 18.714083 
L 190.919315 20.153154 
L 191.851955 17.866227 
L 192.7846 10.394956 
L 193.717237 18.406743 
L 194.649875 20.697441 
L 195.582513 19.518153 
L 196.515156 20.333745 
L 197.447798 18.300316 
L 198.380437 19.401669 
L 199.313081 17.193515 
L 200.245713 21.537964 
L 201.178356 18.685381 
L 202.110995 18.586915 
L 203.043636 14.247494 
" clip-path="url(#p50b0d5922b)" style="fill: none; stroke: #ff6b6b; stroke-width: 1.2; stroke-linecap: square"/>
   </g>
   <g id="patch_3">
    <path d="M 35.96 103.4 
L 35.96 5 
" style="fill: none; stroke: var(--fg-color); stroke-width: 0.8; stroke-linejoin: miter; stroke-linecap: square"/>
   </g>
   <g id="patch_4">
    <path d="M 35.96 103.4 
L 211 103.4 
" style="fill: none; stroke: var(--fg-color); stroke-width: 0.8; stroke-linejoin: miter; stroke-linecap: square"/>
   </g>
  </g>
 </g>
 <defs>
  <clipPath id="p50b0d5922b">
   <rect x="35.96" y="5" width="175.04" height="98.4"/>
  </clipPath>
 </defs>
</svg>
