<?xml version="1.0" encoding="utf-8" standalone="no"?>
<!DOCTYPE svg PUBLIC "-//W3C//DTD SVG 1.1//EN"
  "http://www.w3.org/Graphics/SVG/1.1/DTD/svg11.dtd">
<svg xmlns:xlink="http://www.w3.org/1999/xlink" width="216pt" height="122.4pt" viewBox="0 0 216 122.4" xmlns="http://www.w3.org/2000/svg" version="1.1">
  <style>
    :root {
      --fg-color: #212529;
      --grid-color: rgba(33, 37, 41, 0.1);
    }
    @media (prefers-color-scheme: dark) {
      :root {
        --fg-color: #dee2e6;
        --grid-color: rgba(248, 249, 250, 0.15);
      }
    }
  </style>

 <metadata>
  <rdf:RDF xmlns:dc="http://purl.org/dc/elements/1.1/" xmlns:cc="http://creativecommons.org/ns#" xmlns:rdf="http://www.w3.org/1999/02/22-rdf-syntax-ns#">
   <cc:Work>
    <dc:type rdf:resource="http://purl.org/dc/dcmitype/StillImage"/>
    <dc:date>2026-06-30T15:36:44.151736</dc:date>
    <dc:format>image/svg+xml</dc:format>
    <dc:creator>
     <cc:Agent>
      <dc:title>Matplotlib v3.11.0, https://matplotlib.org/</dc:title>
     </cc:Agent>
    </dc:creator>
   </cc:Work>
  </rdf:RDF>
 </metadata>
 <defs>
  <style type="text/css">*{stroke-linejoin: round; stroke-linecap: butt}</style>
 </defs>
 <g id="figure_1">
  <g id="patch_1">
   <path d="M 0 122.4 
L 216 122.4 
L 216 0 
L 0 0 
L 0 122.4 
z
" style="fill: none; opacity: 0"/>
  </g>
  <g id="axes_1">
   <g id="patch_2">
    <path d="M 35.96 103.4 
L 211 103.4 
L 211 5 
L 35.96 5 
L 35.96 103.4 
z
" style="fill: none; opacity: 0"/>
   </g>
   <g id="matplotlib.axis_1">
    <g id="xtick_1">
     <g id="line2d_1">
      <path d="M 69.784035 103.4 
L 69.784035 5 
" clip-path="url(#pf5b344ad9e)" style="fill: none; stroke-dasharray: 2.96,1.28; stroke-dashoffset: 0; stroke: var(--grid-color); stroke-width: 0.8"/>
     </g>
     <g id="line2d_2">
      <defs>
       <path id="m660dfc209d" d="M 0 0 
L 0 3.5 
" style="stroke: var(--fg-color); stroke-width: 0.8"/>
      </defs>
      <g>
       <use xlink:href="#m660dfc209d" x="69.784035" y="103.4" style="fill: var(--fg-color); stroke: var(--fg-color); stroke-width: 0.8"/>
      </g>
     </g>
     <g id="text_1">
      <text style="font-size: 7px; font-family: 'DejaVu Sans', 'Bitstream Vera Sans', 'Computer Modern Sans Serif', 'Lucida Grande', 'Verdana', 'Geneva', 'Lucid', 'Arial', 'Helvetica', 'Avant Garde', sans-serif; text-anchor: middle; fill: var(--fg-color)" x="69.784035" y="115.718359" transform="rotate(-0 69.784035 115.718359)">02/2026</text>
     </g>
    </g>
    <g id="xtick_2">
     <g id="line2d_3">
      <path d="M 122.345302 103.4 
L 122.345302 5 
" clip-path="url(#pf5b344ad9e)" style="fill: none; stroke-dasharray: 2.96,1.28; stroke-dashoffset: 0; stroke: var(--grid-color); stroke-width: 0.8"/>
     </g>
     <g id="line2d_4">
      <g>
       <use xlink:href="#m660dfc209d" x="122.345302" y="103.4" style="fill: var(--fg-color); stroke: var(--fg-color); stroke-width: 0.8"/>
      </g>
     </g>
     <g id="text_2">
      <text style="font-size: 7px; font-family: 'DejaVu Sans', 'Bitstream Vera Sans', 'Computer Modern Sans Serif', 'Lucida Grande', 'Verdana', 'Geneva', 'Lucid', 'Arial', 'Helvetica', 'Avant Garde', sans-serif; text-anchor: middle; fill: var(--fg-color)" x="122.345302" y="115.718359" transform="rotate(-0 122.345302 115.718359)">04/2026</text>
     </g>
    </g>
    <g id="xtick_3">
     <g id="line2d_5">
      <path d="M 176.688307 103.4 
L 176.688307 5 
" clip-path="url(#pf5b344ad9e)" style="fill: none; stroke-dasharray: 2.96,1.28; stroke-dashoffset: 0; stroke: var(--grid-color); stroke-width: 0.8"/>
     </g>
     <g id="line2d_6">
      <g>
       <use xlink:href="#m660dfc209d" x="176.688307" y="103.4" style="fill: var(--fg-color); stroke: var(--fg-color); stroke-width: 0.8"/>
      </g>
     </g>
     <g id="text_3">
      <text style="font-size: 7px; font-family: 'DejaVu Sans', 'Bitstream Vera Sans', 'Computer Modern Sans Serif', 'Lucida Grande', 'Verdana', 'Geneva', 'Lucid', 'Arial', 'Helvetica', 'Avant Garde', sans-serif; text-anchor: middle; fill: var(--fg-color)" x="176.688307" y="115.718359" transform="rotate(-0 176.688307 115.718359)">06/2026</text>
     </g>
    </g>
   </g>
   <g id="matplotlib.axis_2">
    <g id="ytick_1">
     <g id="line2d_7">
      <path d="M 35.96 102.028894 
L 211 102.028894 
" clip-path="url(#pf5b344ad9e)" style="fill: none; stroke-dasharray: 2.96,1.28; stroke-dashoffset: 0; stroke: var(--grid-color); stroke-width: 0.8"/>
     </g>
     <g id="line2d_8">
      <defs>
       <path id="m438875dc00" d="M 0 0 
L -3.5 0 
" style="stroke: var(--fg-color); stroke-width: 0.8"/>
      </defs>
      <g>
       <use xlink:href="#m438875dc00" x="35.96" y="102.028894" style="fill: var(--fg-color); stroke: var(--fg-color); stroke-width: 0.8"/>
      </g>
     </g>
     <g id="text_4">
      <text style="font-size: 7px; font-family: 'DejaVu Sans', 'Bitstream Vera Sans', 'Computer Modern Sans Serif', 'Lucida Grande', 'Verdana', 'Geneva', 'Lucid', 'Arial', 'Helvetica', 'Avant Garde', sans-serif; text-anchor: end; fill: var(--fg-color)" x="28.96" y="104.688074" transform="rotate(-0 28.96 104.688074)">0</text>
     </g>
    </g>
    <g id="ytick_2">
     <g id="line2d_9">
      <path d="M 35.96 79.016421 
L 211 79.016421 
" clip-path="url(#pf5b344ad9e)" style="fill: none; stroke-dasharray: 2.96,1.28; stroke-dashoffset: 0; stroke: var(--grid-color); stroke-width: 0.8"/>
     </g>
     <g id="line2d_10">
      <g>
       <use xlink:href="#m438875dc00" x="35.96" y="79.016421" style="fill: var(--fg-color); stroke: var(--fg-color); stroke-width: 0.8"/>
      </g>
     </g>
     <g id="text_5">
      <text style="font-size: 7px; font-family: 'DejaVu Sans', 'Bitstream Vera Sans', 'Computer Modern Sans Serif', 'Lucida Grande', 'Verdana', 'Geneva', 'Lucid', 'Arial', 'Helvetica', 'Avant Garde', sans-serif; text-anchor: end; fill: var(--fg-color)" x="28.96" y="81.6756" transform="rotate(-0 28.96 81.6756)">100</text>
     </g>
    </g>
    <g id="ytick_3">
     <g id="line2d_11">
      <path d="M 35.96 56.003948 
L 211 56.003948 
" clip-path="url(#pf5b344ad9e)" style="fill: none; stroke-dasharray: 2.96,1.28; stroke-dashoffset: 0; stroke: var(--grid-color); stroke-width: 0.8"/>
     </g>
     <g id="line2d_12">
      <g>
       <use xlink:href="#m438875dc00" x="35.96" y="56.003948" style="fill: var(--fg-color); stroke: var(--fg-color); stroke-width: 0.8"/>
      </g>
     </g>
     <g id="text_6">
      <text style="font-size: 7px; font-family: 'DejaVu Sans', 'Bitstream Vera Sans', 'Computer Modern Sans Serif', 'Lucida Grande', 'Verdana', 'Geneva', 'Lucid', 'Arial', 'Helvetica', 'Avant Garde', sans-serif; text-anchor: end; fill: var(--fg-color)" x="28.96" y="58.663127" transform="rotate(-0 28.96 58.663127)">200</text>
     </g>
    </g>
    <g id="ytick_4">
     <g id="line2d_13">
      <path d="M 35.96 32.991475 
L 211 32.991475 
" clip-path="url(#pf5b344ad9e)" style="fill: none; stroke-dasharray: 2.96,1.28; stroke-dashoffset: 0; stroke: var(--grid-color); stroke-width: 0.8"/>
     </g>
     <g id="line2d_14">
      <g>
       <use xlink:href="#m438875dc00" x="35.96" y="32.991475" style="fill: var(--fg-color); stroke: var(--fg-color); stroke-width: 0.8"/>
      </g>
     </g>
     <g id="text_7">
      <text style="font-size: 7px; font-family: 'DejaVu Sans', 'Bitstream Vera Sans', 'Computer Modern Sans Serif', 'Lucida Grande', 'Verdana', 'Geneva', 'Lucid', 'Arial', 'Helvetica', 'Avant Garde', sans-serif; text-anchor: end; fill: var(--fg-color)" x="28.96" y="35.650654" transform="rotate(-0 28.96 35.650654)">300</text>
     </g>
    </g>
    <g id="ytick_5">
     <g id="line2d_15">
      <path d="M 35.96 9.979002 
L 211 9.979002 
" clip-path="url(#pf5b344ad9e)" style="fill: none; stroke-dasharray: 2.96,1.28; stroke-dashoffset: 0; stroke: var(--grid-color); stroke-width: 0.8"/>
     </g>
     <g id="line2d_16">
      <g>
       <use xlink:href="#m438875dc00" x="35.96" y="9.979002" style="fill: var(--fg-color); stroke: var(--fg-color); stroke-width: 0.8"/>
      </g>
     </g>
     <g id="text_8">
      <text style="font-size: 7px; font-family: 'DejaVu Sans', 'Bitstream Vera Sans', 'Computer Modern Sans Serif', 'Lucida Grande', 'Verdana', 'Geneva', 'Lucid', 'Arial', 'Helvetica', 'Avant Garde', sans-serif; text-anchor: end; fill: var(--fg-color)" x="28.96" y="12.638181" transform="rotate(-0 28.96 12.638181)">400</text>
     </g>
    </g>
    <g id="text_9">
     <text style="font-size: 7px; font-family: 'DejaVu Sans', 'Bitstream Vera Sans', 'Computer Modern Sans Serif', 'Lucida Grande', 'Verdana', 'Geneva', 'Lucid', 'Arial', 'Helvetica', 'Avant Garde', sans-serif; text-anchor: middle; fill: var(--fg-color)" x="9.917109" y="54.2" transform="rotate(-90 9.917109 54.2)">ms</text>
    </g>
   </g>
   <g id="line2d_17">
    <path d="M 43.916364 21.500657 
L 44.468628 20.149594 
L 45.3595 21.865404 
L 46.250371 22.237746 
L 47.141245 16.83879 
L 48.032112 21.909588 
L 48.922979 21.681995 
L 49.81384 18.558512 
L 50.704717 22.781071 
L 51.595589 22.168018 
L 52.486458 20.97114 
L 53.377327 20.837667 
L 54.268192 20.549781 
L 55.159063 18.75734 
L 56.049934 21.937203 
L 56.940797 20.779676 
L 57.831669 21.505489 
L 58.722538 22.753686 
L 59.613407 20.21587 
L 60.504275 19.233468 
L 61.395144 22.922367 
L 62.286016 20.664613 
L 63.176879 26.640723 
L 64.067746 23.381236 
L 64.958622 19.289388 
L 65.84949 21.269841 
L 66.740361 27.331787 
L 67.631226 21.311954 
L 68.522078 22.133269 
L 69.412965 21.749882 
L 71.194705 18.305145 
L 72.085571 19.485224 
L 72.976442 27.826555 
L 73.867306 26.419803 
L 74.758184 30.522006 
L 75.649039 21.053984 
L 76.539914 21.153168 
L 77.430784 21.920174 
L 78.321655 23.613662 
L 79.212509 21.094026 
L 80.103391 21.219904 
L 80.994245 25.373886 
L 81.885129 24.849892 
L 82.775998 23.709854 
L 83.666869 20.796935 
L 84.557735 22.037998 
L 85.44861 22.249252 
L 94.53997 25.648885 
L 95.248438 24.77303 
L 96.139324 27.353649 
L 97.030192 18.922109 
L 97.921065 23.583976 
L 98.811931 21.741597 
L 99.702798 21.893019 
L 100.593666 22.305633 
L 101.484533 22.546804 
L 102.375401 22.666468 
L 103.266272 22.196093 
L 104.157138 25.246627 
L 105.048009 19.2742 
L 105.93888 22.81674 
L 106.829748 26.880743 
L 107.720614 23.282512 
L 108.611487 21.934902 
L 109.502352 19.575893 
L 110.393224 21.82076 
L 111.284094 21.21254 
L 112.17496 20.938232 
L 113.065834 23.377554 
L 113.956695 23.53657 
L 114.847564 22.502159 
L 115.738441 20.582229 
L 116.629309 21.547372 
L 117.520178 23.341654 
L 118.41104 17.94684 
L 119.301913 20.029009 
L 120.192782 24.23776 
L 121.083649 24.309099 
L 121.97452 21.550363 
L 125.537994 20.251079 
L 126.428869 20.795324 
L 127.319734 22.404126 
L 128.210603 23.226132 
L 129.101474 20.628024 
L 129.992342 21.957914 
L 130.883214 21.858961 
L 131.774065 22.980359 
L 132.664946 22.4108 
L 133.55582 20.956181 
L 134.446686 21.493753 
L 135.337558 19.596835 
L 136.228424 14.099615 
L 137.119294 22.159734 
L 138.010159 24.504014 
L 138.901032 18.899327 
L 139.791912 21.900383 
L 140.68277 17.710502 
L 141.57364 18.356232 
L 142.464507 17.163726 
L 143.355376 20.390765 
L 144.246246 19.678529 
L 145.137113 18.471064 
L 146.027984 20.316665 
L 146.918849 21.235783 
L 173.644977 21.235783 
L 181.959197 18.991607 
L 182.553652 20.205515 
L 183.444521 17.073057 
L 184.335387 20.69522 
L 185.226256 16.758246 
L 186.117131 14.541224 
L 187.007996 19.211146 
L 187.898864 18.759411 
L 188.789731 20.390765 
L 189.680603 15.477832 
L 190.571474 9.472727 
L 191.462343 16.343331 
L 192.353215 14.60727 
L 193.244077 19.631814 
L 194.134949 11.560879 
L 195.025817 19.176397 
L 195.916688 16.904605 
L 196.807557 17.418244 
L 197.698426 19.832713 
L 198.589295 18.785645 
L 199.480162 13.96039 
L 200.371032 19.400308 
L 201.261898 22.713184 
L 202.152766 19.444032 
L 203.043636 17.790125 
L 203.043636 17.790125 
" clip-path="url(#pf5b344ad9e)" style="fill: none; stroke: #339af0; stroke-width: 1.2; stroke-linecap: square"/>
   </g>
   <g id="line2d_18">
    <path d="M 43.916364 97.199726 
L 44.468628 97.849829 
L 45.3595 96.753975 
L 46.250371 97.307195 
L 47.141245 96.93048 
L 48.032112 97.908971 
L 48.922979 97.841084 
L 49.81384 95.745338 
L 50.704717 97.886188 
L 51.595589 97.098702 
L 52.486458 97.94395 
L 53.377327 97.904829 
L 54.268192 97.274977 
L 55.159063 97.273366 
L 56.049934 98.68219 
L 56.940797 97.4646 
L 57.831669 97.905519 
L 58.722538 98.173384 
L 59.613407 97.121024 
L 60.504275 96.555377 
L 61.395144 97.819682 
L 62.286016 97.24322 
L 63.176879 97.606587 
L 64.067746 97.806335 
L 64.958622 97.380374 
L 65.84949 97.131149 
L 66.740361 97.198116 
L 68.522078 98.080874 
L 69.412965 96.902405 
L 70.30383 97.610729 
L 71.194705 97.748344 
L 72.085571 98.372902 
L 72.976442 98.214807 
L 73.867306 98.241961 
L 74.758184 97.592319 
L 75.649039 97.751796 
L 76.539914 97.065334 
L 77.430784 97.643407 
L 78.321655 96.588515 
L 79.212509 98.328488 
L 80.103391 97.764913 
L 80.994245 96.888828 
L 81.885129 97.51914 
L 82.775998 97.223889 
L 83.666869 97.978008 
L 84.557735 97.636963 
L 85.44861 98.020121 
L 94.53997 97.063723 
L 95.248438 97.508554 
L 96.139324 97.553658 
L 97.030192 97.956607 
L 97.921065 97.27935 
L 98.811931 98.096522 
L 99.702798 96.730732 
L 100.593666 98.556542 
L 101.484533 97.498889 
L 102.375401 96.849707 
L 103.266272 97.693114 
L 104.157138 97.233325 
L 105.048009 97.436064 
L 105.93888 95.717953 
L 106.829748 98.284304 
L 108.611487 97.59393 
L 109.502352 97.887569 
L 111.284094 96.930711 
L 112.17496 96.895041 
L 113.065834 97.222739 
L 113.956695 97.764222 
L 114.847564 96.701506 
L 115.738441 97.42801 
L 116.629309 97.123555 
L 117.520178 96.399813 
L 118.41104 97.291546 
L 119.301913 97.682988 
L 120.192782 98.372442 
L 121.083649 98.205371 
L 121.97452 97.717277 
L 125.537994 96.759958 
L 126.428869 98.01851 
L 127.319734 98.363007 
L 128.210603 97.565855 
L 129.101474 97.613491 
L 130.883214 98.081794 
L 131.774065 97.880896 
L 132.664946 97.959138 
L 133.55582 97.062342 
L 134.446686 98.012987 
L 135.337558 97.614411 
L 136.228424 97.50165 
L 137.119294 98.051188 
L 138.010159 98.927273 
L 138.901032 97.359893 
L 139.791912 96.048642 
L 140.68277 96.685167 
L 141.57364 96.762029 
L 143.355376 97.59393 
L 144.246246 97.85236 
L 145.137113 97.322843 
L 146.027984 96.92933 
L 146.918849 97.053597 
L 173.644977 97.053597 
L 181.959197 97.909891 
L 182.553652 97.579892 
L 183.444521 96.718536 
L 184.335387 98.015058 
L 185.226256 97.430772 
L 186.117131 96.598871 
L 187.007996 96.407177 
L 187.898864 97.404077 
L 188.789731 97.800812 
L 190.571474 97.215835 
L 191.462343 96.567804 
L 192.353215 97.886649 
L 193.244077 97.361274 
L 194.134949 96.995836 
L 195.025817 95.966718 
L 195.916688 96.704038 
L 196.807557 96.214102 
L 197.698426 96.840502 
L 198.589295 97.139204 
L 199.480162 96.953263 
L 200.371032 97.544913 
L 201.261898 97.22435 
L 202.152766 97.128158 
L 203.043636 98.057631 
L 203.043636 98.057631 
" clip-path="url(#pf5b344ad9e)" style="fill: none; stroke: #ff6b6b; stroke-width: 1.2; stroke-linecap: square"/>
   </g>
   <g id="patch_3">
    <path d="M 35.96 103.4 
L 35.96 5 
" style="fill: none; stroke: var(--fg-color); stroke-width: 0.8; stroke-linejoin: miter; stroke-linecap: square"/>
   </g>
   <g id="patch_4">
    <path d="M 35.96 103.4 
L 211 103.4 
" style="fill: none; stroke: var(--fg-color); stroke-width: 0.8; stroke-linejoin: miter; stroke-linecap: square"/>
   </g>
  </g>
 </g>
 <defs>
  <clipPath id="pf5b344ad9e">
   <rect x="35.96" y="5" width="175.04" height="98.4"/>
  </clipPath>
 </defs>
</svg>
