<?xml version="1.0" encoding="utf-8" standalone="no"?>
<!DOCTYPE svg PUBLIC "-//W3C//DTD SVG 1.1//EN"
  "http://www.w3.org/Graphics/SVG/1.1/DTD/svg11.dtd">
<svg xmlns:xlink="http://www.w3.org/1999/xlink" width="216pt" height="122.4pt" viewBox="0 0 216 122.4" xmlns="http://www.w3.org/2000/svg" version="1.1">
  <style>
    :root {
      --fg-color: #212529;
      --grid-color: rgba(33, 37, 41, 0.1);
    }
    @media (prefers-color-scheme: dark) {
      :root {
        --fg-color: #dee2e6;
        --grid-color: rgba(248, 249, 250, 0.15);
      }
    }
  </style>

 <metadata>
  <rdf:RDF xmlns:dc="http://purl.org/dc/elements/1.1/" xmlns:cc="http://creativecommons.org/ns#" xmlns:rdf="http://www.w3.org/1999/02/22-rdf-syntax-ns#">
   <cc:Work>
    <dc:type rdf:resource="http://purl.org/dc/dcmitype/StillImage"/>
    <dc:date>2026-06-30T04:49:27.556171</dc:date>
    <dc:format>image/svg+xml</dc:format>
    <dc:creator>
     <cc:Agent>
      <dc:title>Matplotlib v3.11.0, https://matplotlib.org/</dc:title>
     </cc:Agent>
    </dc:creator>
   </cc:Work>
  </rdf:RDF>
 </metadata>
 <defs>
  <style type="text/css">*{stroke-linejoin: round; stroke-linecap: butt}</style>
 </defs>
 <g id="figure_1">
  <g id="patch_1">
   <path d="M 0 122.4 
L 216 122.4 
L 216 0 
L 0 0 
L 0 122.4 
z
" style="fill: none; opacity: 0"/>
  </g>
  <g id="axes_1">
   <g id="patch_2">
    <path d="M 35.96 103.4 
L 211 103.4 
L 211 5 
L 35.96 5 
L 35.96 103.4 
z
" style="fill: none; opacity: 0"/>
   </g>
   <g id="matplotlib.axis_1">
    <g id="xtick_1">
     <g id="line2d_1">
      <path d="M 72.056377 103.4 
L 72.056377 5 
" clip-path="url(#peebeab894b)" style="fill: none; stroke-dasharray: 2.96,1.28; stroke-dashoffset: 0; stroke: var(--grid-color); stroke-width: 0.8"/>
     </g>
     <g id="line2d_2">
      <defs>
       <path id="m3bd9c01eae" d="M 0 0 
L 0 3.5 
" style="stroke: var(--fg-color); stroke-width: 0.8"/>
      </defs>
      <g>
       <use xlink:href="#m3bd9c01eae" x="72.056377" y="103.4" style="fill: var(--fg-color); stroke: var(--fg-color); stroke-width: 0.8"/>
      </g>
     </g>
     <g id="text_1">
      <text style="font-size: 7px; font-family: 'DejaVu Sans', 'Bitstream Vera Sans', 'Computer Modern Sans Serif', 'Lucida Grande', 'Verdana', 'Geneva', 'Lucid', 'Arial', 'Helvetica', 'Avant Garde', sans-serif; text-anchor: middle; fill: var(--fg-color)" x="72.056377" y="115.718359" transform="rotate(-0 72.056377 115.718359)">02/2026</text>
     </g>
    </g>
    <g id="xtick_2">
     <g id="line2d_3">
      <path d="M 126.640628 103.4 
L 126.640628 5 
" clip-path="url(#peebeab894b)" style="fill: none; stroke-dasharray: 2.96,1.28; stroke-dashoffset: 0; stroke: var(--grid-color); stroke-width: 0.8"/>
     </g>
     <g id="line2d_4">
      <g>
       <use xlink:href="#m3bd9c01eae" x="126.640628" y="103.4" style="fill: var(--fg-color); stroke: var(--fg-color); stroke-width: 0.8"/>
      </g>
     </g>
     <g id="text_2">
      <text style="font-size: 7px; font-family: 'DejaVu Sans', 'Bitstream Vera Sans', 'Computer Modern Sans Serif', 'Lucida Grande', 'Verdana', 'Geneva', 'Lucid', 'Arial', 'Helvetica', 'Avant Garde', sans-serif; text-anchor: middle; fill: var(--fg-color)" x="126.640628" y="115.718359" transform="rotate(-0 126.640628 115.718359)">04/2026</text>
     </g>
    </g>
    <g id="xtick_3">
     <g id="line2d_5">
      <path d="M 183.075192 103.4 
L 183.075192 5 
" clip-path="url(#peebeab894b)" style="fill: none; stroke-dasharray: 2.96,1.28; stroke-dashoffset: 0; stroke: var(--grid-color); stroke-width: 0.8"/>
     </g>
     <g id="line2d_6">
      <g>
       <use xlink:href="#m3bd9c01eae" x="183.075192" y="103.4" style="fill: var(--fg-color); stroke: var(--fg-color); stroke-width: 0.8"/>
      </g>
     </g>
     <g id="text_3">
      <text style="font-size: 7px; font-family: 'DejaVu Sans', 'Bitstream Vera Sans', 'Computer Modern Sans Serif', 'Lucida Grande', 'Verdana', 'Geneva', 'Lucid', 'Arial', 'Helvetica', 'Avant Garde', sans-serif; text-anchor: middle; fill: var(--fg-color)" x="183.075192" y="115.718359" transform="rotate(-0 183.075192 115.718359)">06/2026</text>
     </g>
    </g>
   </g>
   <g id="matplotlib.axis_2">
    <g id="ytick_1">
     <g id="line2d_7">
      <path d="M 35.96 100.147356 
L 211 100.147356 
" clip-path="url(#peebeab894b)" style="fill: none; stroke-dasharray: 2.96,1.28; stroke-dashoffset: 0; stroke: var(--grid-color); stroke-width: 0.8"/>
     </g>
     <g id="line2d_8">
      <defs>
       <path id="m765d071d57" d="M 0 0 
L -3.5 0 
" style="stroke: var(--fg-color); stroke-width: 0.8"/>
      </defs>
      <g>
       <use xlink:href="#m765d071d57" x="35.96" y="100.147356" style="fill: var(--fg-color); stroke: var(--fg-color); stroke-width: 0.8"/>
      </g>
     </g>
     <g id="text_4">
      <text style="font-size: 7px; font-family: 'DejaVu Sans', 'Bitstream Vera Sans', 'Computer Modern Sans Serif', 'Lucida Grande', 'Verdana', 'Geneva', 'Lucid', 'Arial', 'Helvetica', 'Avant Garde', sans-serif; text-anchor: end; fill: var(--fg-color)" x="28.96" y="102.806536" transform="rotate(-0 28.96 102.806536)">0</text>
     </g>
    </g>
    <g id="ytick_2">
     <g id="line2d_9">
      <path d="M 35.96 85.376374 
L 211 85.376374 
" clip-path="url(#peebeab894b)" style="fill: none; stroke-dasharray: 2.96,1.28; stroke-dashoffset: 0; stroke: var(--grid-color); stroke-width: 0.8"/>
     </g>
     <g id="line2d_10">
      <g>
       <use xlink:href="#m765d071d57" x="35.96" y="85.376374" style="fill: var(--fg-color); stroke: var(--fg-color); stroke-width: 0.8"/>
      </g>
     </g>
     <g id="text_5">
      <text style="font-size: 7px; font-family: 'DejaVu Sans', 'Bitstream Vera Sans', 'Computer Modern Sans Serif', 'Lucida Grande', 'Verdana', 'Geneva', 'Lucid', 'Arial', 'Helvetica', 'Avant Garde', sans-serif; text-anchor: end; fill: var(--fg-color)" x="28.96" y="88.035553" transform="rotate(-0 28.96 88.035553)">20</text>
     </g>
    </g>
    <g id="ytick_3">
     <g id="line2d_11">
      <path d="M 35.96 70.605391 
L 211 70.605391 
" clip-path="url(#peebeab894b)" style="fill: none; stroke-dasharray: 2.96,1.28; stroke-dashoffset: 0; stroke: var(--grid-color); stroke-width: 0.8"/>
     </g>
     <g id="line2d_12">
      <g>
       <use xlink:href="#m765d071d57" x="35.96" y="70.605391" style="fill: var(--fg-color); stroke: var(--fg-color); stroke-width: 0.8"/>
      </g>
     </g>
     <g id="text_6">
      <text style="font-size: 7px; font-family: 'DejaVu Sans', 'Bitstream Vera Sans', 'Computer Modern Sans Serif', 'Lucida Grande', 'Verdana', 'Geneva', 'Lucid', 'Arial', 'Helvetica', 'Avant Garde', sans-serif; text-anchor: end; fill: var(--fg-color)" x="28.96" y="73.264571" transform="rotate(-0 28.96 73.264571)">40</text>
     </g>
    </g>
    <g id="ytick_4">
     <g id="line2d_13">
      <path d="M 35.96 55.834409 
L 211 55.834409 
" clip-path="url(#peebeab894b)" style="fill: none; stroke-dasharray: 2.96,1.28; stroke-dashoffset: 0; stroke: var(--grid-color); stroke-width: 0.8"/>
     </g>
     <g id="line2d_14">
      <g>
       <use xlink:href="#m765d071d57" x="35.96" y="55.834409" style="fill: var(--fg-color); stroke: var(--fg-color); stroke-width: 0.8"/>
      </g>
     </g>
     <g id="text_7">
      <text style="font-size: 7px; font-family: 'DejaVu Sans', 'Bitstream Vera Sans', 'Computer Modern Sans Serif', 'Lucida Grande', 'Verdana', 'Geneva', 'Lucid', 'Arial', 'Helvetica', 'Avant Garde', sans-serif; text-anchor: end; fill: var(--fg-color)" x="28.96" y="58.493589" transform="rotate(-0 28.96 58.493589)">60</text>
     </g>
    </g>
    <g id="ytick_5">
     <g id="line2d_15">
      <path d="M 35.96 41.063427 
L 211 41.063427 
" clip-path="url(#peebeab894b)" style="fill: none; stroke-dasharray: 2.96,1.28; stroke-dashoffset: 0; stroke: var(--grid-color); stroke-width: 0.8"/>
     </g>
     <g id="line2d_16">
      <g>
       <use xlink:href="#m765d071d57" x="35.96" y="41.063427" style="fill: var(--fg-color); stroke: var(--fg-color); stroke-width: 0.8"/>
      </g>
     </g>
     <g id="text_8">
      <text style="font-size: 7px; font-family: 'DejaVu Sans', 'Bitstream Vera Sans', 'Computer Modern Sans Serif', 'Lucida Grande', 'Verdana', 'Geneva', 'Lucid', 'Arial', 'Helvetica', 'Avant Garde', sans-serif; text-anchor: end; fill: var(--fg-color)" x="28.96" y="43.722607" transform="rotate(-0 28.96 43.722607)">80</text>
     </g>
    </g>
    <g id="ytick_6">
     <g id="line2d_17">
      <path d="M 35.96 26.292445 
L 211 26.292445 
" clip-path="url(#peebeab894b)" style="fill: none; stroke-dasharray: 2.96,1.28; stroke-dashoffset: 0; stroke: var(--grid-color); stroke-width: 0.8"/>
     </g>
     <g id="line2d_18">
      <g>
       <use xlink:href="#m765d071d57" x="35.96" y="26.292445" style="fill: var(--fg-color); stroke: var(--fg-color); stroke-width: 0.8"/>
      </g>
     </g>
     <g id="text_9">
      <text style="font-size: 7px; font-family: 'DejaVu Sans', 'Bitstream Vera Sans', 'Computer Modern Sans Serif', 'Lucida Grande', 'Verdana', 'Geneva', 'Lucid', 'Arial', 'Helvetica', 'Avant Garde', sans-serif; text-anchor: end; fill: var(--fg-color)" x="28.96" y="28.951624" transform="rotate(-0 28.96 28.951624)">100</text>
     </g>
    </g>
    <g id="ytick_7">
     <g id="line2d_19">
      <path d="M 35.96 11.521463 
L 211 11.521463 
" clip-path="url(#peebeab894b)" style="fill: none; stroke-dasharray: 2.96,1.28; stroke-dashoffset: 0; stroke: var(--grid-color); stroke-width: 0.8"/>
     </g>
     <g id="line2d_20">
      <g>
       <use xlink:href="#m765d071d57" x="35.96" y="11.521463" style="fill: var(--fg-color); stroke: var(--fg-color); stroke-width: 0.8"/>
      </g>
     </g>
     <g id="text_10">
      <text style="font-size: 7px; font-family: 'DejaVu Sans', 'Bitstream Vera Sans', 'Computer Modern Sans Serif', 'Lucida Grande', 'Verdana', 'Geneva', 'Lucid', 'Arial', 'Helvetica', 'Avant Garde', sans-serif; text-anchor: end; fill: var(--fg-color)" x="28.96" y="14.180642" transform="rotate(-0 28.96 14.180642)">120</text>
     </g>
    </g>
    <g id="text_11">
     <text style="font-size: 7px; font-family: 'DejaVu Sans', 'Bitstream Vera Sans', 'Computer Modern Sans Serif', 'Lucida Grande', 'Verdana', 'Geneva', 'Lucid', 'Arial', 'Helvetica', 'Avant Garde', sans-serif; text-anchor: middle; fill: var(--fg-color)" x="9.917109" y="54.2" transform="rotate(-90 9.917109 54.2)">ms</text>
    </g>
   </g>
   <g id="line2d_21">
    <path d="M 43.916364 30.482234 
L 45.193108 31.849288 
L 45.766628 28.988888 
L 46.691788 28.873674 
L 47.616947 30.98297 
L 48.542109 31.724473 
L 49.467263 30.574552 
L 50.392418 30.543533 
L 51.317566 30.141024 
L 52.242732 32.785769 
L 53.167891 31.062733 
L 54.093049 27.139561 
L 55.018206 29.768795 
L 55.943359 29.471899 
L 56.868517 30.343387 
L 57.793676 34.197136 
L 58.718827 31.56347 
L 59.643987 34.564933 
L 60.569143 31.04427 
L 61.494301 31.519157 
L 62.419457 28.445315 
L 63.344613 23.534702 
L 64.269773 30.095234 
L 65.194924 30.775438 
L 66.120079 25.770291 
L 67.045243 27.019916 
L 67.970398 28.007356 
L 68.895557 29.533198 
L 69.82071 32.227425 
L 70.74585 29.52729 
L 71.671025 29.090807 
L 72.596178 31.046485 
L 73.521341 26.957877 
L 74.446495 27.430549 
L 75.371653 27.50145 
L 76.296805 29.666137 
L 77.221971 29.703803 
L 78.147114 30.37219 
L 79.072277 30.446045 
L 79.997435 32.994778 
L 80.922594 29.417246 
L 81.847735 26.816076 
L 82.772905 20.533239 
L 83.698046 27.146946 
L 84.623219 26.875899 
L 85.548376 27.305734 
L 86.473535 25.98447 
L 87.398688 25.151386 
L 88.323852 27.540593 
L 97.76512 29.917982 
L 98.500856 33.711171 
L 99.426031 29.920937 
L 100.351186 28.938666 
L 101.276348 27.061274 
L 102.201502 29.009567 
L 103.126656 28.643985 
L 104.051812 31.377355 
L 104.976967 29.924629 
L 105.902123 34.960057 
L 106.827282 28.625521 
L 107.752435 31.687546 
L 108.677594 25.971176 
L 109.602753 29.204544 
L 110.527909 34.825641 
L 111.453063 33.095959 
L 112.378223 27.417255 
L 113.303377 26.602635 
L 114.228537 31.488876 
L 115.153695 29.747377 
L 116.078848 30.562736 
L 117.004011 29.239994 
L 117.929158 26.399534 
L 118.854316 30.645453 
L 119.779481 29.726698 
L 120.704637 29.70528 
L 121.629794 30.081202 
L 122.554943 32.77986 
L 123.480104 26.873683 
L 124.405261 27.85743 
L 125.330416 23.244453 
L 126.255574 31.440132 
L 129.9562 24.303532 
L 130.881363 24.774726 
L 131.806516 26.08639 
L 132.731673 24.28433 
L 133.656831 20.916546 
L 134.581987 29.982975 
L 135.507147 27.615186 
L 136.432285 25.485211 
L 137.357455 24.299839 
L 138.282617 27.189782 
L 139.20777 25.267339 
L 140.13293 24.316087 
L 141.058084 28.400264 
L 141.983242 24.45715 
L 142.908395 24.646957 
L 143.833556 20.380359 
L 144.758724 28.451224 
L 145.683869 18.757767 
L 146.609028 19.239301 
L 147.534182 18.977854 
L 148.459339 22.229686 
L 149.384497 21.886261 
L 150.309651 18.443883 
L 151.234811 19.516257 
L 152.159963 17.101201 
L 179.91473 17.101201 
L 188.548948 30.113698 
L 189.166282 25.169112 
L 190.091439 22.850067 
L 191.016594 17.378157 
L 191.94175 19.885531 
L 192.866913 23.65287 
L 193.792066 25.488903 
L 194.717222 23.213433 
L 195.642377 24.929822 
L 196.567536 23.937212 
L 197.492695 9.472727 
L 198.417852 14.464581 
L 199.343013 25.203823 
L 200.268162 22.963065 
L 201.193322 18.865595 
L 202.118478 21.176515 
L 203.043636 19.858943 
" clip-path="url(#peebeab894b)" style="fill: none; stroke: #339af0; stroke-width: 1.2; stroke-linecap: square"/>
   </g>
   <g id="line2d_22">
    <path d="M 43.916364 97.673955 
L 45.193108 97.332745 
L 45.766628 97.563173 
L 46.691788 96.618568 
L 47.616947 96.643679 
L 48.542109 98.105268 
L 49.467263 98.145888 
L 50.392418 97.488579 
L 51.317566 97.015908 
L 52.242732 96.588288 
L 53.167891 98.757406 
L 54.093049 95.928025 
L 55.018206 95.815765 
L 55.943359 95.403655 
L 56.868517 96.861551 
L 57.793676 98.145888 
L 58.718827 96.465689 
L 59.643987 97.504827 
L 60.569143 96.585333 
L 61.494301 97.620041 
L 62.419457 95.778099 
L 63.344613 97.368934 
L 64.269773 94.221976 
L 65.194924 96.064656 
L 66.120079 98.261101 
L 67.045243 98.111176 
L 67.970398 97.969375 
L 68.895557 96.964209 
L 69.82071 97.059482 
L 70.74585 95.767021 
L 71.671025 98.600095 
L 72.596178 93.401448 
L 73.521341 96.106015 
L 74.446495 98.539534 
L 75.371653 95.801733 
L 76.296805 96.635555 
L 77.221971 97.296556 
L 78.147114 96.748553 
L 79.072277 96.975287 
L 79.997435 96.253725 
L 80.922594 96.969379 
L 81.847735 97.712359 
L 82.772905 98.451647 
L 83.698046 98.62299 
L 84.623219 98.77587 
L 85.548376 98.809105 
L 86.473535 95.851216 
L 87.398688 91.837201 
L 88.323852 97.532153 
L 97.76512 89.535144 
L 98.500856 96.963471 
L 99.426031 94.823155 
L 100.351186 94.860821 
L 101.276348 98.264056 
L 102.201502 95.727878 
L 103.126656 95.967906 
L 104.051812 98.43466 
L 104.976967 97.746333 
L 105.902123 98.507777 
L 106.827282 97.977499 
L 107.752435 96.438362 
L 108.677594 96.508524 
L 109.602753 94.219761 
L 110.527909 87.665876 
L 111.453063 98.675427 
L 112.378223 90.414017 
L 113.303377 91.3084 
L 114.228537 92.57575 
L 115.153695 95.383714 
L 116.078848 96.340135 
L 117.004011 96.939099 
L 117.929158 97.63555 
L 118.854316 93.905139 
L 119.779481 94.797306 
L 120.704637 96.702024 
L 121.629794 97.103056 
L 122.554943 94.034385 
L 123.480104 91.172507 
L 124.405261 94.158461 
L 125.330416 92.964966 
L 126.255574 89.833518 
L 129.9562 95.97603 
L 130.881363 94.278106 
L 131.806516 92.956842 
L 132.731673 94.991545 
L 133.656831 95.427288 
L 134.581987 95.563182 
L 135.507147 96.010004 
L 136.432285 94.969388 
L 137.357455 91.972356 
L 138.282617 96.458303 
L 139.20777 94.784751 
L 140.13293 95.678395 
L 141.058084 96.974549 
L 141.983242 96.730828 
L 142.908395 88.830568 
L 143.833556 93.750043 
L 144.758724 97.820188 
L 145.683869 98.125208 
L 146.609028 98.804674 
L 147.534182 98.771439 
L 148.459339 98.752975 
L 149.384497 98.760361 
L 150.309651 98.702015 
L 151.234811 98.746328 
L 152.159963 98.620775 
L 179.91473 98.620775 
L 188.548948 98.894038 
L 189.166282 98.828307 
L 190.091439 98.782517 
L 191.016594 98.894038 
L 191.94175 98.800981 
L 192.866913 98.874836 
L 193.792066 98.906593 
L 194.717222 98.851202 
L 195.642377 98.776609 
L 196.567536 98.927273 
L 197.492695 98.832738 
L 198.417852 98.876313 
L 199.343013 98.866712 
L 200.268162 98.899946 
L 201.193322 98.868189 
L 202.118478 98.817229 
L 203.043636 98.056523 
" clip-path="url(#peebeab894b)" style="fill: none; stroke: #ff6b6b; stroke-width: 1.2; stroke-linecap: square"/>
   </g>
   <g id="patch_3">
    <path d="M 35.96 103.4 
L 35.96 5 
" style="fill: none; stroke: var(--fg-color); stroke-width: 0.8; stroke-linejoin: miter; stroke-linecap: square"/>
   </g>
   <g id="patch_4">
    <path d="M 35.96 103.4 
L 211 103.4 
" style="fill: none; stroke: var(--fg-color); stroke-width: 0.8; stroke-linejoin: miter; stroke-linecap: square"/>
   </g>
  </g>
 </g>
 <defs>
  <clipPath id="peebeab894b">
   <rect x="35.96" y="5" width="175.04" height="98.4"/>
  </clipPath>
 </defs>
</svg>
