<?xml version="1.0" encoding="utf-8" standalone="no"?>
<!DOCTYPE svg PUBLIC "-//W3C//DTD SVG 1.1//EN"
  "http://www.w3.org/Graphics/SVG/1.1/DTD/svg11.dtd">
<svg xmlns:xlink="http://www.w3.org/1999/xlink" width="216pt" height="122.4pt" viewBox="0 0 216 122.4" xmlns="http://www.w3.org/2000/svg" version="1.1">
  <style>
    :root {
      --fg-color: #212529;
      --grid-color: rgba(33, 37, 41, 0.1);
    }
    @media (prefers-color-scheme: dark) {
      :root {
        --fg-color: #dee2e6;
        --grid-color: rgba(248, 249, 250, 0.15);
      }
    }
  </style>

 <metadata>
  <rdf:RDF xmlns:dc="http://purl.org/dc/elements/1.1/" xmlns:cc="http://creativecommons.org/ns#" xmlns:rdf="http://www.w3.org/1999/02/22-rdf-syntax-ns#">
   <cc:Work>
    <dc:type rdf:resource="http://purl.org/dc/dcmitype/StillImage"/>
    <dc:date>2026-06-30T15:37:50.382817</dc:date>
    <dc:format>image/svg+xml</dc:format>
    <dc:creator>
     <cc:Agent>
      <dc:title>Matplotlib v3.11.0, https://matplotlib.org/</dc:title>
     </cc:Agent>
    </dc:creator>
   </cc:Work>
  </rdf:RDF>
 </metadata>
 <defs>
  <style type="text/css">*{stroke-linejoin: round; stroke-linecap: butt}</style>
 </defs>
 <g id="figure_1">
  <g id="patch_1">
   <path d="M 0 122.4 
L 216 122.4 
L 216 0 
L 0 0 
L 0 122.4 
z
" style="fill: none; opacity: 0"/>
  </g>
  <g id="axes_1">
   <g id="patch_2">
    <path d="M 40.28 103.4 
L 211 103.4 
L 211 5 
L 40.28 5 
L 40.28 103.4 
z
" style="fill: none; opacity: 0"/>
   </g>
   <g id="matplotlib.axis_1">
    <g id="xtick_1">
     <g id="line2d_1">
      <path d="M 73.269255 103.4 
L 73.269255 5 
" clip-path="url(#p0d9bbb293b)" style="fill: none; stroke-dasharray: 2.96,1.28; stroke-dashoffset: 0; stroke: var(--grid-color); stroke-width: 0.8"/>
     </g>
     <g id="line2d_2">
      <defs>
       <path id="mdbbd02cca1" d="M 0 0 
L 0 3.5 
" style="stroke: var(--fg-color); stroke-width: 0.8"/>
      </defs>
      <g>
       <use xlink:href="#mdbbd02cca1" x="73.269255" y="103.4" style="fill: var(--fg-color); stroke: var(--fg-color); stroke-width: 0.8"/>
      </g>
     </g>
     <g id="text_1">
      <text style="font-size: 7px; font-family: 'DejaVu Sans', 'Bitstream Vera Sans', 'Computer Modern Sans Serif', 'Lucida Grande', 'Verdana', 'Geneva', 'Lucid', 'Arial', 'Helvetica', 'Avant Garde', sans-serif; text-anchor: middle; fill: var(--fg-color)" x="73.269255" y="115.718359" transform="rotate(-0 73.269255 115.718359)">02/2026</text>
     </g>
    </g>
    <g id="xtick_2">
     <g id="line2d_3">
      <path d="M 124.533307 103.4 
L 124.533307 5 
" clip-path="url(#p0d9bbb293b)" style="fill: none; stroke-dasharray: 2.96,1.28; stroke-dashoffset: 0; stroke: var(--grid-color); stroke-width: 0.8"/>
     </g>
     <g id="line2d_4">
      <g>
       <use xlink:href="#mdbbd02cca1" x="124.533307" y="103.4" style="fill: var(--fg-color); stroke: var(--fg-color); stroke-width: 0.8"/>
      </g>
     </g>
     <g id="text_2">
      <text style="font-size: 7px; font-family: 'DejaVu Sans', 'Bitstream Vera Sans', 'Computer Modern Sans Serif', 'Lucida Grande', 'Verdana', 'Geneva', 'Lucid', 'Arial', 'Helvetica', 'Avant Garde', sans-serif; text-anchor: middle; fill: var(--fg-color)" x="124.533307" y="115.718359" transform="rotate(-0 124.533307 115.718359)">04/2026</text>
     </g>
    </g>
    <g id="xtick_3">
     <g id="line2d_5">
      <path d="M 177.535122 103.4 
L 177.535122 5 
" clip-path="url(#p0d9bbb293b)" style="fill: none; stroke-dasharray: 2.96,1.28; stroke-dashoffset: 0; stroke: var(--grid-color); stroke-width: 0.8"/>
     </g>
     <g id="line2d_6">
      <g>
       <use xlink:href="#mdbbd02cca1" x="177.535122" y="103.4" style="fill: var(--fg-color); stroke: var(--fg-color); stroke-width: 0.8"/>
      </g>
     </g>
     <g id="text_3">
      <text style="font-size: 7px; font-family: 'DejaVu Sans', 'Bitstream Vera Sans', 'Computer Modern Sans Serif', 'Lucida Grande', 'Verdana', 'Geneva', 'Lucid', 'Arial', 'Helvetica', 'Avant Garde', sans-serif; text-anchor: middle; fill: var(--fg-color)" x="177.535122" y="115.718359" transform="rotate(-0 177.535122 115.718359)">06/2026</text>
     </g>
    </g>
   </g>
   <g id="matplotlib.axis_2">
    <g id="ytick_1">
     <g id="line2d_7">
      <path d="M 40.28 99.426172 
L 211 99.426172 
" clip-path="url(#p0d9bbb293b)" style="fill: none; stroke-dasharray: 2.96,1.28; stroke-dashoffset: 0; stroke: var(--grid-color); stroke-width: 0.8"/>
     </g>
     <g id="line2d_8">
      <defs>
       <path id="m52e12ae016" d="M 0 0 
L -3.5 0 
" style="stroke: var(--fg-color); stroke-width: 0.8"/>
      </defs>
      <g>
       <use xlink:href="#m52e12ae016" x="40.28" y="99.426172" style="fill: var(--fg-color); stroke: var(--fg-color); stroke-width: 0.8"/>
      </g>
     </g>
     <g id="text_4">
      <text style="font-size: 7px; font-family: 'DejaVu Sans', 'Bitstream Vera Sans', 'Computer Modern Sans Serif', 'Lucida Grande', 'Verdana', 'Geneva', 'Lucid', 'Arial', 'Helvetica', 'Avant Garde', sans-serif; text-anchor: end; fill: var(--fg-color)" x="33.28" y="102.085352" transform="rotate(-0 33.28 102.085352)">0</text>
     </g>
    </g>
    <g id="ytick_2">
     <g id="line2d_9">
      <path d="M 40.28 82.821109 
L 211 82.821109 
" clip-path="url(#p0d9bbb293b)" style="fill: none; stroke-dasharray: 2.96,1.28; stroke-dashoffset: 0; stroke: var(--grid-color); stroke-width: 0.8"/>
     </g>
     <g id="line2d_10">
      <g>
       <use xlink:href="#m52e12ae016" x="40.28" y="82.821109" style="fill: var(--fg-color); stroke: var(--fg-color); stroke-width: 0.8"/>
      </g>
     </g>
     <g id="text_5">
      <text style="font-size: 7px; font-family: 'DejaVu Sans', 'Bitstream Vera Sans', 'Computer Modern Sans Serif', 'Lucida Grande', 'Verdana', 'Geneva', 'Lucid', 'Arial', 'Helvetica', 'Avant Garde', sans-serif; text-anchor: end; fill: var(--fg-color)" x="33.28" y="85.480289" transform="rotate(-0 33.28 85.480289)">200</text>
     </g>
    </g>
    <g id="ytick_3">
     <g id="line2d_11">
      <path d="M 40.28 66.216046 
L 211 66.216046 
" clip-path="url(#p0d9bbb293b)" style="fill: none; stroke-dasharray: 2.96,1.28; stroke-dashoffset: 0; stroke: var(--grid-color); stroke-width: 0.8"/>
     </g>
     <g id="line2d_12">
      <g>
       <use xlink:href="#m52e12ae016" x="40.28" y="66.216046" style="fill: var(--fg-color); stroke: var(--fg-color); stroke-width: 0.8"/>
      </g>
     </g>
     <g id="text_6">
      <text style="font-size: 7px; font-family: 'DejaVu Sans', 'Bitstream Vera Sans', 'Computer Modern Sans Serif', 'Lucida Grande', 'Verdana', 'Geneva', 'Lucid', 'Arial', 'Helvetica', 'Avant Garde', sans-serif; text-anchor: end; fill: var(--fg-color)" x="33.28" y="68.875226" transform="rotate(-0 33.28 68.875226)">400</text>
     </g>
    </g>
    <g id="ytick_4">
     <g id="line2d_13">
      <path d="M 40.28 49.610983 
L 211 49.610983 
" clip-path="url(#p0d9bbb293b)" style="fill: none; stroke-dasharray: 2.96,1.28; stroke-dashoffset: 0; stroke: var(--grid-color); stroke-width: 0.8"/>
     </g>
     <g id="line2d_14">
      <g>
       <use xlink:href="#m52e12ae016" x="40.28" y="49.610983" style="fill: var(--fg-color); stroke: var(--fg-color); stroke-width: 0.8"/>
      </g>
     </g>
     <g id="text_7">
      <text style="font-size: 7px; font-family: 'DejaVu Sans', 'Bitstream Vera Sans', 'Computer Modern Sans Serif', 'Lucida Grande', 'Verdana', 'Geneva', 'Lucid', 'Arial', 'Helvetica', 'Avant Garde', sans-serif; text-anchor: end; fill: var(--fg-color)" x="33.28" y="52.270163" transform="rotate(-0 33.28 52.270163)">600</text>
     </g>
    </g>
    <g id="ytick_5">
     <g id="line2d_15">
      <path d="M 40.28 33.00592 
L 211 33.00592 
" clip-path="url(#p0d9bbb293b)" style="fill: none; stroke-dasharray: 2.96,1.28; stroke-dashoffset: 0; stroke: var(--grid-color); stroke-width: 0.8"/>
     </g>
     <g id="line2d_16">
      <g>
       <use xlink:href="#m52e12ae016" x="40.28" y="33.00592" style="fill: var(--fg-color); stroke: var(--fg-color); stroke-width: 0.8"/>
      </g>
     </g>
     <g id="text_8">
      <text style="font-size: 7px; font-family: 'DejaVu Sans', 'Bitstream Vera Sans', 'Computer Modern Sans Serif', 'Lucida Grande', 'Verdana', 'Geneva', 'Lucid', 'Arial', 'Helvetica', 'Avant Garde', sans-serif; text-anchor: end; fill: var(--fg-color)" x="33.28" y="35.6651" transform="rotate(-0 33.28 35.6651)">800</text>
     </g>
    </g>
    <g id="ytick_6">
     <g id="line2d_17">
      <path d="M 40.28 16.400858 
L 211 16.400858 
" clip-path="url(#p0d9bbb293b)" style="fill: none; stroke-dasharray: 2.96,1.28; stroke-dashoffset: 0; stroke: var(--grid-color); stroke-width: 0.8"/>
     </g>
     <g id="line2d_18">
      <g>
       <use xlink:href="#m52e12ae016" x="40.28" y="16.400858" style="fill: var(--fg-color); stroke: var(--fg-color); stroke-width: 0.8"/>
      </g>
     </g>
     <g id="text_9">
      <text style="font-size: 7px; font-family: 'DejaVu Sans', 'Bitstream Vera Sans', 'Computer Modern Sans Serif', 'Lucida Grande', 'Verdana', 'Geneva', 'Lucid', 'Arial', 'Helvetica', 'Avant Garde', sans-serif; text-anchor: end; fill: var(--fg-color)" x="33.28" y="19.060037" transform="rotate(-0 33.28 19.060037)">1000</text>
     </g>
    </g>
    <g id="text_10">
     <text style="font-size: 7px; font-family: 'DejaVu Sans', 'Bitstream Vera Sans', 'Computer Modern Sans Serif', 'Lucida Grande', 'Verdana', 'Geneva', 'Lucid', 'Arial', 'Helvetica', 'Avant Garde', sans-serif; text-anchor: middle; fill: var(--fg-color)" x="9.783359" y="54.2" transform="rotate(-90 9.783359 54.2)">ms</text>
    </g>
   </g>
   <g id="line2d_19">
    <path d="M 48.04 85.823636 
L 48.578635 85.897944 
L 49.44752 87.402944 
L 50.316404 81.994758 
L 51.185291 87.017624 
L 52.054171 87.222862 
L 52.923051 85.497347 
L 53.791926 85.682327 
L 54.660816 87.808191 
L 55.529701 86.75161 
L 56.398584 87.994084 
L 57.267466 87.295177 
L 58.136345 87.109117 
L 59.005229 86.104677 
L 59.874113 86.008451 
L 60.742989 87.164412 
L 61.611875 87.695193 
L 62.480757 85.404857 
L 63.349639 86.561233 
L 64.218521 80.855402 
L 65.087403 85.638158 
L 65.956288 84.891677 
L 66.825164 86.478125 
L 67.694045 87.264541 
L 68.562934 85.313612 
L 69.431815 86.108828 
L 70.300699 84.113066 
L 71.169578 87.102392 
L 72.038444 84.527528 
L 72.907344 82.891764 
L 73.776222 87.191229 
L 74.64511 83.796822 
L 76.382873 87.244034 
L 78.120642 87.487381 
L 78.989511 88.253787 
L 79.858399 86.05976 
L 80.727282 86.878971 
L 81.596167 84.029459 
L 82.465034 83.831693 
L 83.333929 86.733179 
L 84.202796 86.005794 
L 85.071693 87.807111 
L 85.940576 84.785986 
L 86.80946 86.72388 
L 87.678339 87.280482 
L 88.547228 84.93236 
L 97.414212 85.263299 
L 98.105195 87.985699 
L 98.974094 86.351096 
L 99.842975 87.131949 
L 100.711861 86.904792 
L 101.580741 86.263172 
L 102.449621 87.034312 
L 103.318502 87.332622 
L 104.187383 87.099819 
L 105.056264 86.339805 
L 105.925149 86.692662 
L 106.794028 84.463433 
L 107.662912 84.262345 
L 108.531796 84.501956 
L 109.400677 85.794246 
L 110.269557 87.671365 
L 111.138443 87.080889 
L 112.007322 84.788062 
L 112.876207 86.133819 
L 113.74509 88.004213 
L 114.61397 85.144074 
L 115.482857 85.558869 
L 116.35173 85.355457 
L 117.220613 87.638653 
L 118.089503 87.282142 
L 118.958385 86.040333 
L 119.827267 79.870971 
L 120.696142 87.389494 
L 121.565028 86.14536 
L 122.433911 86.914257 
L 123.302792 85.454174 
L 124.171675 85.311785 
L 127.647202 82.419682 
L 128.516091 86.405395 
L 129.384969 83.57473 
L 130.253852 86.325691 
L 131.122735 84.789141 
L 131.991617 84.367123 
L 132.860502 85.440724 
L 133.729367 84.401081 
L 134.598261 86.552267 
L 135.467148 84.995708 
L 136.336027 86.258855 
L 137.204912 86.217343 
L 138.073792 84.895746 
L 138.942675 82.824181 
L 139.811554 86.644093 
L 140.680439 83.083386 
L 141.549333 84.007624 
L 142.418204 86.177158 
L 143.287088 85.146233 
L 144.155968 84.841447 
L 145.02485 86.254787 
L 145.893733 85.20269 
L 146.762613 85.37447 
L 147.631498 86.520883 
L 148.500376 84.175833 
L 174.566902 84.175833 
L 182.675926 28.589721 
L 183.25571 68.619463 
L 184.124592 68.050407 
L 184.993472 83.852782 
L 185.862354 84.947719 
L 186.731242 84.358406 
L 187.600121 26.511348 
L 188.469002 73.094527 
L 189.337882 40.399823 
L 190.206767 85.088613 
L 191.075651 11.50884 
L 191.944534 83.660246 
L 192.813419 84.751531 
L 193.682295 9.978684 
L 194.55118 81.314532 
L 195.420061 83.575477 
L 196.288945 22.382001 
L 197.157827 85.809522 
L 198.026709 87.002015 
L 198.895592 86.196171 
L 199.764473 9.472727 
L 200.633356 87.810349 
L 201.502235 84.280362 
L 202.371116 85.947759 
L 203.24 19.650053 
L 203.24 19.650053 
" clip-path="url(#p0d9bbb293b)" style="fill: none; stroke: #339af0; stroke-width: 1.2; stroke-linecap: square"/>
   </g>
   <g id="line2d_20">
    <path d="M 48.04 98.825982 
L 48.578635 98.707007 
L 49.44752 98.856701 
L 50.316404 98.658935 
L 51.185291 98.791941 
L 52.054171 98.668898 
L 53.791926 98.614018 
L 54.660816 98.875133 
L 59.005229 98.688658 
L 61.611875 98.769026 
L 65.087403 98.671721 
L 66.825164 98.80232 
L 67.694045 98.835447 
L 68.562934 98.702025 
L 69.431815 98.830382 
L 70.300699 98.661177 
L 71.169578 98.850225 
L 72.907344 98.755161 
L 73.776222 98.85255 
L 75.513989 98.684424 
L 76.382873 98.656776 
L 77.251751 98.826646 
L 78.120642 98.688575 
L 78.989511 98.853463 
L 80.727282 98.82017 
L 81.596167 98.66126 
L 84.202796 98.778657 
L 85.940576 98.722947 
L 86.80946 98.862596 
L 87.678339 98.855456 
L 88.547228 98.688492 
L 102.449621 98.866415 
L 103.318502 98.726933 
L 112.876207 98.824819 
L 113.74509 98.927273 
L 114.61397 98.775585 
L 115.482857 98.834866 
L 116.35173 98.740881 
L 117.220613 98.896138 
L 118.089503 98.684009 
L 118.958385 98.796508 
L 119.827267 98.500523 
L 120.696142 98.788205 
L 128.516091 98.808962 
L 129.384969 98.680272 
L 130.253852 98.817762 
L 131.122735 98.544111 
L 131.991617 98.828473 
L 132.860502 98.567358 
L 133.729367 98.774838 
L 135.467148 98.872891 
L 136.336027 98.741462 
L 137.204912 98.443899 
L 138.073792 98.634692 
L 138.942675 98.668317 
L 139.811554 98.857614 
L 141.549333 98.607542 
L 142.418204 98.828224 
L 143.287088 98.629378 
L 145.02485 98.811785 
L 145.893733 98.824819 
L 146.762613 98.699783 
L 148.500376 98.71863 
L 174.566902 98.71863 
L 182.675926 96.659519 
L 183.25571 98.064225 
L 184.124592 97.384828 
L 184.993472 98.612939 
L 185.862354 98.694387 
L 186.731242 98.53174 
L 187.600121 96.250537 
L 188.469002 98.287065 
L 189.337882 96.589031 
L 190.206767 98.775253 
L 191.075651 95.403014 
L 191.944534 98.647145 
L 192.813419 98.689654 
L 193.682295 95.249666 
L 194.55118 98.716222 
L 195.420061 98.638843 
L 196.288945 95.247093 
L 197.157827 98.780982 
L 198.026709 98.832873 
L 198.895592 98.722366 
L 199.764473 94.214175 
L 200.633356 98.756158 
L 202.371116 98.863841 
L 203.24 95.380182 
L 203.24 95.380182 
" clip-path="url(#p0d9bbb293b)" style="fill: none; stroke: #ff6b6b; stroke-width: 1.2; stroke-linecap: square"/>
   </g>
   <g id="patch_3">
    <path d="M 40.28 103.4 
L 40.28 5 
" style="fill: none; stroke: var(--fg-color); stroke-width: 0.8; stroke-linejoin: miter; stroke-linecap: square"/>
   </g>
   <g id="patch_4">
    <path d="M 40.28 103.4 
L 211 103.4 
" style="fill: none; stroke: var(--fg-color); stroke-width: 0.8; stroke-linejoin: miter; stroke-linecap: square"/>
   </g>
  </g>
 </g>
 <defs>
  <clipPath id="p0d9bbb293b">
   <rect x="40.28" y="5" width="170.72" height="98.4"/>
  </clipPath>
 </defs>
</svg>
