<?xml version="1.0" encoding="utf-8" standalone="no"?>
<!DOCTYPE svg PUBLIC "-//W3C//DTD SVG 1.1//EN"
  "http://www.w3.org/Graphics/SVG/1.1/DTD/svg11.dtd">
<svg xmlns:xlink="http://www.w3.org/1999/xlink" width="216pt" height="122.4pt" viewBox="0 0 216 122.4" xmlns="http://www.w3.org/2000/svg" version="1.1">
  <style>
    :root {
      --fg-color: #212529;
      --grid-color: rgba(33, 37, 41, 0.1);
    }
    @media (prefers-color-scheme: dark) {
      :root {
        --fg-color: #dee2e6;
        --grid-color: rgba(248, 249, 250, 0.15);
      }
    }
  </style>

 <metadata>
  <rdf:RDF xmlns:dc="http://purl.org/dc/elements/1.1/" xmlns:cc="http://creativecommons.org/ns#" xmlns:rdf="http://www.w3.org/1999/02/22-rdf-syntax-ns#">
   <cc:Work>
    <dc:type rdf:resource="http://purl.org/dc/dcmitype/StillImage"/>
    <dc:date>2026-06-30T15:36:54.604472</dc:date>
    <dc:format>image/svg+xml</dc:format>
    <dc:creator>
     <cc:Agent>
      <dc:title>Matplotlib v3.11.0, https://matplotlib.org/</dc:title>
     </cc:Agent>
    </dc:creator>
   </cc:Work>
  </rdf:RDF>
 </metadata>
 <defs>
  <style type="text/css">*{stroke-linejoin: round; stroke-linecap: butt}</style>
 </defs>
 <g id="figure_1">
  <g id="patch_1">
   <path d="M 0 122.4 
L 216 122.4 
L 216 0 
L 0 0 
L 0 122.4 
z
" style="fill: none; opacity: 0"/>
  </g>
  <g id="axes_1">
   <g id="patch_2">
    <path d="M 35.96 103.4 
L 211 103.4 
L 211 5 
L 35.96 5 
L 35.96 103.4 
z
" style="fill: none; opacity: 0"/>
   </g>
   <g id="matplotlib.axis_1">
    <g id="xtick_1">
     <g id="line2d_1">
      <path d="M 69.784035 103.4 
L 69.784035 5 
" clip-path="url(#pda52fe9b39)" style="fill: none; stroke-dasharray: 2.96,1.28; stroke-dashoffset: 0; stroke: var(--grid-color); stroke-width: 0.8"/>
     </g>
     <g id="line2d_2">
      <defs>
       <path id="mb70b2d5c9b" d="M 0 0 
L 0 3.5 
" style="stroke: var(--fg-color); stroke-width: 0.8"/>
      </defs>
      <g>
       <use xlink:href="#mb70b2d5c9b" x="69.784035" y="103.4" style="fill: var(--fg-color); stroke: var(--fg-color); stroke-width: 0.8"/>
      </g>
     </g>
     <g id="text_1">
      <text style="font-size: 7px; font-family: 'DejaVu Sans', 'Bitstream Vera Sans', 'Computer Modern Sans Serif', 'Lucida Grande', 'Verdana', 'Geneva', 'Lucid', 'Arial', 'Helvetica', 'Avant Garde', sans-serif; text-anchor: middle; fill: var(--fg-color)" x="69.784035" y="115.718359" transform="rotate(-0 69.784035 115.718359)">02/2026</text>
     </g>
    </g>
    <g id="xtick_2">
     <g id="line2d_3">
      <path d="M 122.345302 103.4 
L 122.345302 5 
" clip-path="url(#pda52fe9b39)" style="fill: none; stroke-dasharray: 2.96,1.28; stroke-dashoffset: 0; stroke: var(--grid-color); stroke-width: 0.8"/>
     </g>
     <g id="line2d_4">
      <g>
       <use xlink:href="#mb70b2d5c9b" x="122.345302" y="103.4" style="fill: var(--fg-color); stroke: var(--fg-color); stroke-width: 0.8"/>
      </g>
     </g>
     <g id="text_2">
      <text style="font-size: 7px; font-family: 'DejaVu Sans', 'Bitstream Vera Sans', 'Computer Modern Sans Serif', 'Lucida Grande', 'Verdana', 'Geneva', 'Lucid', 'Arial', 'Helvetica', 'Avant Garde', sans-serif; text-anchor: middle; fill: var(--fg-color)" x="122.345302" y="115.718359" transform="rotate(-0 122.345302 115.718359)">04/2026</text>
     </g>
    </g>
    <g id="xtick_3">
     <g id="line2d_5">
      <path d="M 176.688307 103.4 
L 176.688307 5 
" clip-path="url(#pda52fe9b39)" style="fill: none; stroke-dasharray: 2.96,1.28; stroke-dashoffset: 0; stroke: var(--grid-color); stroke-width: 0.8"/>
     </g>
     <g id="line2d_6">
      <g>
       <use xlink:href="#mb70b2d5c9b" x="176.688307" y="103.4" style="fill: var(--fg-color); stroke: var(--fg-color); stroke-width: 0.8"/>
      </g>
     </g>
     <g id="text_3">
      <text style="font-size: 7px; font-family: 'DejaVu Sans', 'Bitstream Vera Sans', 'Computer Modern Sans Serif', 'Lucida Grande', 'Verdana', 'Geneva', 'Lucid', 'Arial', 'Helvetica', 'Avant Garde', sans-serif; text-anchor: middle; fill: var(--fg-color)" x="176.688307" y="115.718359" transform="rotate(-0 176.688307 115.718359)">06/2026</text>
     </g>
    </g>
   </g>
   <g id="matplotlib.axis_2">
    <g id="ytick_1">
     <g id="line2d_7">
      <path d="M 35.96 93.150461 
L 211 93.150461 
" clip-path="url(#pda52fe9b39)" style="fill: none; stroke-dasharray: 2.96,1.28; stroke-dashoffset: 0; stroke: var(--grid-color); stroke-width: 0.8"/>
     </g>
     <g id="line2d_8">
      <defs>
       <path id="m28ddc8ca74" d="M 0 0 
L -3.5 0 
" style="stroke: var(--fg-color); stroke-width: 0.8"/>
      </defs>
      <g>
       <use xlink:href="#m28ddc8ca74" x="35.96" y="93.150461" style="fill: var(--fg-color); stroke: var(--fg-color); stroke-width: 0.8"/>
      </g>
     </g>
     <g id="text_4">
      <text style="font-size: 7px; font-family: 'DejaVu Sans', 'Bitstream Vera Sans', 'Computer Modern Sans Serif', 'Lucida Grande', 'Verdana', 'Geneva', 'Lucid', 'Arial', 'Helvetica', 'Avant Garde', sans-serif; text-anchor: end; fill: var(--fg-color)" x="28.96" y="95.809641" transform="rotate(-0 28.96 95.809641)">130</text>
     </g>
    </g>
    <g id="ytick_2">
     <g id="line2d_9">
      <path d="M 35.96 76.762342 
L 211 76.762342 
" clip-path="url(#pda52fe9b39)" style="fill: none; stroke-dasharray: 2.96,1.28; stroke-dashoffset: 0; stroke: var(--grid-color); stroke-width: 0.8"/>
     </g>
     <g id="line2d_10">
      <g>
       <use xlink:href="#m28ddc8ca74" x="35.96" y="76.762342" style="fill: var(--fg-color); stroke: var(--fg-color); stroke-width: 0.8"/>
      </g>
     </g>
     <g id="text_5">
      <text style="font-size: 7px; font-family: 'DejaVu Sans', 'Bitstream Vera Sans', 'Computer Modern Sans Serif', 'Lucida Grande', 'Verdana', 'Geneva', 'Lucid', 'Arial', 'Helvetica', 'Avant Garde', sans-serif; text-anchor: end; fill: var(--fg-color)" x="28.96" y="79.421522" transform="rotate(-0 28.96 79.421522)">140</text>
     </g>
    </g>
    <g id="ytick_3">
     <g id="line2d_11">
      <path d="M 35.96 60.374224 
L 211 60.374224 
" clip-path="url(#pda52fe9b39)" style="fill: none; stroke-dasharray: 2.96,1.28; stroke-dashoffset: 0; stroke: var(--grid-color); stroke-width: 0.8"/>
     </g>
     <g id="line2d_12">
      <g>
       <use xlink:href="#m28ddc8ca74" x="35.96" y="60.374224" style="fill: var(--fg-color); stroke: var(--fg-color); stroke-width: 0.8"/>
      </g>
     </g>
     <g id="text_6">
      <text style="font-size: 7px; font-family: 'DejaVu Sans', 'Bitstream Vera Sans', 'Computer Modern Sans Serif', 'Lucida Grande', 'Verdana', 'Geneva', 'Lucid', 'Arial', 'Helvetica', 'Avant Garde', sans-serif; text-anchor: end; fill: var(--fg-color)" x="28.96" y="63.033403" transform="rotate(-0 28.96 63.033403)">150</text>
     </g>
    </g>
    <g id="ytick_4">
     <g id="line2d_13">
      <path d="M 35.96 43.986105 
L 211 43.986105 
" clip-path="url(#pda52fe9b39)" style="fill: none; stroke-dasharray: 2.96,1.28; stroke-dashoffset: 0; stroke: var(--grid-color); stroke-width: 0.8"/>
     </g>
     <g id="line2d_14">
      <g>
       <use xlink:href="#m28ddc8ca74" x="35.96" y="43.986105" style="fill: var(--fg-color); stroke: var(--fg-color); stroke-width: 0.8"/>
      </g>
     </g>
     <g id="text_7">
      <text style="font-size: 7px; font-family: 'DejaVu Sans', 'Bitstream Vera Sans', 'Computer Modern Sans Serif', 'Lucida Grande', 'Verdana', 'Geneva', 'Lucid', 'Arial', 'Helvetica', 'Avant Garde', sans-serif; text-anchor: end; fill: var(--fg-color)" x="28.96" y="46.645285" transform="rotate(-0 28.96 46.645285)">160</text>
     </g>
    </g>
    <g id="ytick_5">
     <g id="line2d_15">
      <path d="M 35.96 27.597986 
L 211 27.597986 
" clip-path="url(#pda52fe9b39)" style="fill: none; stroke-dasharray: 2.96,1.28; stroke-dashoffset: 0; stroke: var(--grid-color); stroke-width: 0.8"/>
     </g>
     <g id="line2d_16">
      <g>
       <use xlink:href="#m28ddc8ca74" x="35.96" y="27.597986" style="fill: var(--fg-color); stroke: var(--fg-color); stroke-width: 0.8"/>
      </g>
     </g>
     <g id="text_8">
      <text style="font-size: 7px; font-family: 'DejaVu Sans', 'Bitstream Vera Sans', 'Computer Modern Sans Serif', 'Lucida Grande', 'Verdana', 'Geneva', 'Lucid', 'Arial', 'Helvetica', 'Avant Garde', sans-serif; text-anchor: end; fill: var(--fg-color)" x="28.96" y="30.257166" transform="rotate(-0 28.96 30.257166)">170</text>
     </g>
    </g>
    <g id="ytick_6">
     <g id="line2d_17">
      <path d="M 35.96 11.209868 
L 211 11.209868 
" clip-path="url(#pda52fe9b39)" style="fill: none; stroke-dasharray: 2.96,1.28; stroke-dashoffset: 0; stroke: var(--grid-color); stroke-width: 0.8"/>
     </g>
     <g id="line2d_18">
      <g>
       <use xlink:href="#m28ddc8ca74" x="35.96" y="11.209868" style="fill: var(--fg-color); stroke: var(--fg-color); stroke-width: 0.8"/>
      </g>
     </g>
     <g id="text_9">
      <text style="font-size: 7px; font-family: 'DejaVu Sans', 'Bitstream Vera Sans', 'Computer Modern Sans Serif', 'Lucida Grande', 'Verdana', 'Geneva', 'Lucid', 'Arial', 'Helvetica', 'Avant Garde', sans-serif; text-anchor: end; fill: var(--fg-color)" x="28.96" y="13.869048" transform="rotate(-0 28.96 13.869048)">180</text>
     </g>
    </g>
    <g id="text_10">
     <text style="font-size: 7px; font-family: 'DejaVu Sans', 'Bitstream Vera Sans', 'Computer Modern Sans Serif', 'Lucida Grande', 'Verdana', 'Geneva', 'Lucid', 'Arial', 'Helvetica', 'Avant Garde', sans-serif; text-anchor: middle; fill: var(--fg-color)" x="9.917109" y="54.2" transform="rotate(-90 9.917109 54.2)">ms</text>
    </g>
   </g>
   <g id="line2d_19">
    <path d="M 43.916364 87.549002 
L 44.468628 94.640141 
L 45.3595 87.416258 
L 46.250371 98.927273 
L 47.141245 92.265503 
L 48.032112 78.804302 
L 48.922979 95.723396 
L 49.81384 87.514587 
L 50.704717 85.274331 
L 51.595589 78.720722 
L 52.486458 85.836444 
L 53.377327 79.774479 
L 54.268192 86.13143 
L 55.159063 81.904934 
L 56.049934 85.426741 
L 56.940797 87.955427 
L 57.831669 82.02129 
L 58.722538 82.029484 
L 59.613407 91.768943 
L 60.504275 95.071148 
L 61.395144 48.855015 
L 62.286016 70.023548 
L 63.176879 83.735487 
L 64.067746 78.338879 
L 64.958622 83.594549 
L 65.84949 70.66924 
L 66.740361 81.006865 
L 67.631226 87.431008 
L 68.522078 91.357601 
L 69.412965 83.876425 
L 70.30383 82.660426 
L 71.194705 88.027535 
L 72.085571 80.952784 
L 72.976442 89.415609 
L 73.867306 90.274346 
L 74.758184 94.908906 
L 76.539914 77.724325 
L 77.430784 80.439836 
L 78.321655 82.311359 
L 79.212509 67.770182 
L 80.103391 69.161533 
L 80.994245 79.471298 
L 81.885129 79.15173 
L 82.775998 81.780384 
L 83.666869 63.904224 
L 84.557735 81.439511 
L 85.44861 74.454895 
L 94.53997 91.814829 
L 95.248438 77.727602 
L 96.139324 75.015369 
L 97.030192 83.337255 
L 97.921065 85.208779 
L 98.811931 76.680402 
L 99.702798 85.117005 
L 100.593666 79.354943 
L 101.484533 91.891853 
L 102.375401 83.442139 
L 103.266272 76.993415 
L 104.157138 94.0895 
L 105.048009 87.853821 
L 105.93888 90.441505 
L 106.829748 84.874461 
L 107.720614 92.085233 
L 108.611487 96.4625 
L 109.502352 84.386095 
L 110.393224 93.163571 
L 111.284094 91.111779 
L 112.17496 80.082575 
L 113.065834 80.769237 
L 113.956695 86.742707 
L 114.847564 94.345155 
L 115.738441 80.679103 
L 116.629309 91.985266 
L 117.520178 73.178261 
L 118.41104 87.701411 
L 119.301913 83.515886 
L 120.192782 70.40703 
L 121.083649 81.067501 
L 121.97452 76.554213 
L 125.537994 74.633526 
L 126.428869 82.784976 
L 127.319734 70.94456 
L 128.210603 77.709576 
L 129.992342 66.251003 
L 130.883214 72.639092 
L 131.774065 73.355252 
L 132.664946 67.422754 
L 133.55582 78.533898 
L 134.446686 66.917999 
L 135.337558 75.423433 
L 136.228424 78.899353 
L 137.119294 64.009108 
L 138.010159 78.21433 
L 138.901032 73.66171 
L 139.791912 71.898349 
L 140.68277 42.955292 
L 141.57364 71.93768 
L 142.464507 61.146104 
L 143.355376 52.086752 
L 144.246246 53.24867 
L 145.137113 66.291973 
L 146.027984 50.428275 
L 146.918849 66.608264 
L 173.644977 66.608264 
L 181.959197 78.756776 
L 182.553652 66.164146 
L 183.444521 78.697779 
L 184.335387 70.644658 
L 185.226256 74.236933 
L 186.117131 73.846896 
L 187.007996 71.781993 
L 187.898864 68.401124 
L 188.789731 92.081956 
L 189.680603 70.949477 
L 190.571474 66.690205 
L 191.462343 64.913733 
L 192.353215 59.77278 
L 193.244077 55.921572 
L 194.134949 75.892133 
L 195.025817 61.681996 
L 195.916688 61.619721 
L 196.807557 77.784961 
L 197.698426 76.744315 
L 198.589295 74.571251 
L 199.480162 66.418162 
L 200.371032 75.949492 
L 201.261898 61.034665 
L 202.152766 60.839646 
L 203.043636 53.686232 
L 203.043636 53.686232 
" clip-path="url(#pda52fe9b39)" style="fill: none; stroke: #339af0; stroke-width: 1.2; stroke-linecap: square"/>
   </g>
   <g id="line2d_20">
    <path d="M 43.916364 24.698928 
L 44.468628 33.264998 
L 45.3595 24.970971 
L 46.250371 27.175173 
L 47.141245 29.880851 
L 48.032112 31.422973 
L 48.922979 31.942477 
L 49.81384 29.692388 
L 50.704717 32.266961 
L 51.595589 28.892648 
L 53.377327 31.12471 
L 54.268192 39.956267 
L 55.159063 33.002788 
L 56.049934 41.539359 
L 56.940797 31.7999 
L 57.831669 30.305304 
L 58.722538 36.657338 
L 59.613407 25.152879 
L 60.504275 37.094901 
L 61.395144 34.502301 
L 62.286016 34.249924 
L 63.176879 24.012266 
L 64.067746 42.98643 
L 64.958622 30.991966 
L 65.84949 27.41444 
L 66.740361 40.511824 
L 67.631226 40.074261 
L 68.522078 40.324999 
L 69.412965 33.24861 
L 70.30383 38.045412 
L 71.194705 31.672073 
L 72.085571 28.669769 
L 72.976442 37.598016 
L 73.867306 28.245317 
L 74.758184 37.407914 
L 75.649039 38.384646 
L 76.539914 19.893932 
L 77.430784 32.407899 
L 78.321655 29.495731 
L 79.212509 33.687811 
L 80.103391 40.816643 
L 80.994245 36.695031 
L 81.885129 35.723216 
L 82.775998 26.290215 
L 83.666869 28.104379 
L 84.557735 36.699948 
L 85.44861 37.063764 
L 94.53997 22.437368 
L 95.248438 27.470159 
L 96.139324 27.683205 
L 97.030192 25.644523 
L 97.921065 34.538355 
L 98.811931 37.116206 
L 99.702798 35.254515 
L 100.593666 28.789403 
L 101.484533 37.945445 
L 102.375401 31.940838 
L 103.266272 33.053591 
L 104.157138 25.044718 
L 105.048009 9.472727 
L 105.93888 24.857893 
L 106.829748 33.628814 
L 107.720614 34.035239 
L 108.611487 21.450803 
L 109.502352 21.989972 
L 110.393224 26.953933 
L 111.284094 23.456709 
L 112.17496 31.760569 
L 113.065834 24.233506 
L 113.956695 36.82122 
L 114.847564 26.831023 
L 115.738441 31.685183 
L 116.629309 23.666477 
L 117.520178 27.604542 
L 118.41104 24.961138 
L 119.301913 26.824467 
L 120.192782 24.017183 
L 121.083649 23.845107 
L 121.97452 30.6134 
L 125.537994 31.001799 
L 126.428869 27.088316 
L 127.319734 27.107982 
L 128.210603 42.040835 
L 129.101474 26.683529 
L 129.992342 26.349212 
L 130.883214 35.911679 
L 131.774065 29.495731 
L 132.664946 40.025097 
L 133.55582 23.517345 
L 134.446686 36.224692 
L 135.337558 32.629139 
L 136.228424 31.806455 
L 137.119294 28.727128 
L 138.010159 31.716321 
L 138.901032 37.481661 
L 139.791912 13.120722 
L 140.68277 28.014245 
L 141.57364 29.992291 
L 142.464507 30.521627 
L 143.355376 23.872967 
L 144.246246 24.146649 
L 145.137113 25.492113 
L 146.027984 30.128312 
L 146.918849 30.816613 
L 173.644977 30.816613 
L 181.959197 41.572135 
L 183.444521 38.374813 
L 184.335387 32.83399 
L 185.226256 32.080137 
L 186.117131 37.683235 
L 187.007996 30.528182 
L 187.898864 32.878238 
L 188.789731 34.84809 
L 189.680603 33.360049 
L 190.571474 40.734702 
L 191.462343 32.416093 
L 192.353215 36.028035 
L 193.244077 41.498389 
L 194.134949 39.697334 
L 195.025817 38.702576 
L 195.916688 26.894936 
L 196.807557 30.192226 
L 197.698426 34.854645 
L 198.589295 25.911649 
L 200.371032 48.478088 
L 201.261898 35.760908 
L 202.152766 26.847411 
L 203.043636 25.270874 
L 203.043636 25.270874 
" clip-path="url(#pda52fe9b39)" style="fill: none; stroke: #ff6b6b; stroke-width: 1.2; stroke-linecap: square"/>
   </g>
   <g id="patch_3">
    <path d="M 35.96 103.4 
L 35.96 5 
" style="fill: none; stroke: var(--fg-color); stroke-width: 0.8; stroke-linejoin: miter; stroke-linecap: square"/>
   </g>
   <g id="patch_4">
    <path d="M 35.96 103.4 
L 211 103.4 
" style="fill: none; stroke: var(--fg-color); stroke-width: 0.8; stroke-linejoin: miter; stroke-linecap: square"/>
   </g>
  </g>
 </g>
 <defs>
  <clipPath id="pda52fe9b39">
   <rect x="35.96" y="5" width="175.04" height="98.4"/>
  </clipPath>
 </defs>
</svg>
