<?xml version="1.0" encoding="utf-8" standalone="no"?>
<!DOCTYPE svg PUBLIC "-//W3C//DTD SVG 1.1//EN"
  "http://www.w3.org/Graphics/SVG/1.1/DTD/svg11.dtd">
<svg xmlns:xlink="http://www.w3.org/1999/xlink" width="216pt" height="122.4pt" viewBox="0 0 216 122.4" xmlns="http://www.w3.org/2000/svg" version="1.1">
  <style>
    :root {
      --fg-color: #212529;
      --grid-color: rgba(33, 37, 41, 0.1);
    }
    @media (prefers-color-scheme: dark) {
      :root {
        --fg-color: #dee2e6;
        --grid-color: rgba(248, 249, 250, 0.15);
      }
    }
  </style>

 <metadata>
  <rdf:RDF xmlns:dc="http://purl.org/dc/elements/1.1/" xmlns:cc="http://creativecommons.org/ns#" xmlns:rdf="http://www.w3.org/1999/02/22-rdf-syntax-ns#">
   <cc:Work>
    <dc:type rdf:resource="http://purl.org/dc/dcmitype/StillImage"/>
    <dc:date>2026-06-30T04:48:50.408237</dc:date>
    <dc:format>image/svg+xml</dc:format>
    <dc:creator>
     <cc:Agent>
      <dc:title>Matplotlib v3.11.0, https://matplotlib.org/</dc:title>
     </cc:Agent>
    </dc:creator>
   </cc:Work>
  </rdf:RDF>
 </metadata>
 <defs>
  <style type="text/css">*{stroke-linejoin: round; stroke-linecap: butt}</style>
 </defs>
 <g id="figure_1">
  <g id="patch_1">
   <path d="M 0 122.4 
L 216 122.4 
L 216 0 
L 0 0 
L 0 122.4 
z
" style="fill: none; opacity: 0"/>
  </g>
  <g id="axes_1">
   <g id="patch_2">
    <path d="M 31.64 103.4 
L 211 103.4 
L 211 5 
L 31.64 5 
L 31.64 103.4 
z
" style="fill: none; opacity: 0"/>
   </g>
   <g id="matplotlib.axis_1">
    <g id="xtick_1">
     <g id="line2d_1">
      <path d="M 68.627238 103.4 
L 68.627238 5 
" clip-path="url(#pfa2a8d7e4d)" style="fill: none; stroke-dasharray: 2.96,1.28; stroke-dashoffset: 0; stroke: var(--grid-color); stroke-width: 0.8"/>
     </g>
     <g id="line2d_2">
      <defs>
       <path id="me9bc05565c" d="M 0 0 
L 0 3.5 
" style="stroke: var(--fg-color); stroke-width: 0.8"/>
      </defs>
      <g>
       <use xlink:href="#me9bc05565c" x="68.627238" y="103.4" style="fill: var(--fg-color); stroke: var(--fg-color); stroke-width: 0.8"/>
      </g>
     </g>
     <g id="text_1">
      <text style="font-size: 7px; font-family: 'DejaVu Sans', 'Bitstream Vera Sans', 'Computer Modern Sans Serif', 'Lucida Grande', 'Verdana', 'Geneva', 'Lucid', 'Arial', 'Helvetica', 'Avant Garde', sans-serif; text-anchor: middle; fill: var(--fg-color)" x="68.627238" y="115.718359" transform="rotate(-0 68.627238 115.718359)">02/2026</text>
     </g>
    </g>
    <g id="xtick_2">
     <g id="line2d_3">
      <path d="M 124.558632 103.4 
L 124.558632 5 
" clip-path="url(#pfa2a8d7e4d)" style="fill: none; stroke-dasharray: 2.96,1.28; stroke-dashoffset: 0; stroke: var(--grid-color); stroke-width: 0.8"/>
     </g>
     <g id="line2d_4">
      <g>
       <use xlink:href="#me9bc05565c" x="124.558632" y="103.4" style="fill: var(--fg-color); stroke: var(--fg-color); stroke-width: 0.8"/>
      </g>
     </g>
     <g id="text_2">
      <text style="font-size: 7px; font-family: 'DejaVu Sans', 'Bitstream Vera Sans', 'Computer Modern Sans Serif', 'Lucida Grande', 'Verdana', 'Geneva', 'Lucid', 'Arial', 'Helvetica', 'Avant Garde', sans-serif; text-anchor: middle; fill: var(--fg-color)" x="124.558632" y="115.718359" transform="rotate(-0 124.558632 115.718359)">04/2026</text>
     </g>
    </g>
    <g id="xtick_3">
     <g id="line2d_5">
      <path d="M 182.386006 103.4 
L 182.386006 5 
" clip-path="url(#pfa2a8d7e4d)" style="fill: none; stroke-dasharray: 2.96,1.28; stroke-dashoffset: 0; stroke: var(--grid-color); stroke-width: 0.8"/>
     </g>
     <g id="line2d_6">
      <g>
       <use xlink:href="#me9bc05565c" x="182.386006" y="103.4" style="fill: var(--fg-color); stroke: var(--fg-color); stroke-width: 0.8"/>
      </g>
     </g>
     <g id="text_3">
      <text style="font-size: 7px; font-family: 'DejaVu Sans', 'Bitstream Vera Sans', 'Computer Modern Sans Serif', 'Lucida Grande', 'Verdana', 'Geneva', 'Lucid', 'Arial', 'Helvetica', 'Avant Garde', sans-serif; text-anchor: middle; fill: var(--fg-color)" x="182.386006" y="115.718359" transform="rotate(-0 182.386006 115.718359)">06/2026</text>
     </g>
    </g>
   </g>
   <g id="matplotlib.axis_2">
    <g id="ytick_1">
     <g id="line2d_7">
      <path d="M 31.64 100.898317 
L 211 100.898317 
" clip-path="url(#pfa2a8d7e4d)" style="fill: none; stroke-dasharray: 2.96,1.28; stroke-dashoffset: 0; stroke: var(--grid-color); stroke-width: 0.8"/>
     </g>
     <g id="line2d_8">
      <defs>
       <path id="m82da3d5775" d="M 0 0 
L -3.5 0 
" style="stroke: var(--fg-color); stroke-width: 0.8"/>
      </defs>
      <g>
       <use xlink:href="#m82da3d5775" x="31.64" y="100.898317" style="fill: var(--fg-color); stroke: var(--fg-color); stroke-width: 0.8"/>
      </g>
     </g>
     <g id="text_4">
      <text style="font-size: 7px; font-family: 'DejaVu Sans', 'Bitstream Vera Sans', 'Computer Modern Sans Serif', 'Lucida Grande', 'Verdana', 'Geneva', 'Lucid', 'Arial', 'Helvetica', 'Avant Garde', sans-serif; text-anchor: end; fill: var(--fg-color)" x="24.64" y="103.557496" transform="rotate(-0 24.64 103.557496)">0</text>
     </g>
    </g>
    <g id="ytick_2">
     <g id="line2d_9">
      <path d="M 31.64 73.598539 
L 211 73.598539 
" clip-path="url(#pfa2a8d7e4d)" style="fill: none; stroke-dasharray: 2.96,1.28; stroke-dashoffset: 0; stroke: var(--grid-color); stroke-width: 0.8"/>
     </g>
     <g id="line2d_10">
      <g>
       <use xlink:href="#m82da3d5775" x="31.64" y="73.598539" style="fill: var(--fg-color); stroke: var(--fg-color); stroke-width: 0.8"/>
      </g>
     </g>
     <g id="text_5">
      <text style="font-size: 7px; font-family: 'DejaVu Sans', 'Bitstream Vera Sans', 'Computer Modern Sans Serif', 'Lucida Grande', 'Verdana', 'Geneva', 'Lucid', 'Arial', 'Helvetica', 'Avant Garde', sans-serif; text-anchor: end; fill: var(--fg-color)" x="24.64" y="76.257719" transform="rotate(-0 24.64 76.257719)">20</text>
     </g>
    </g>
    <g id="ytick_3">
     <g id="line2d_11">
      <path d="M 31.64 46.298762 
L 211 46.298762 
" clip-path="url(#pfa2a8d7e4d)" style="fill: none; stroke-dasharray: 2.96,1.28; stroke-dashoffset: 0; stroke: var(--grid-color); stroke-width: 0.8"/>
     </g>
     <g id="line2d_12">
      <g>
       <use xlink:href="#m82da3d5775" x="31.64" y="46.298762" style="fill: var(--fg-color); stroke: var(--fg-color); stroke-width: 0.8"/>
      </g>
     </g>
     <g id="text_6">
      <text style="font-size: 7px; font-family: 'DejaVu Sans', 'Bitstream Vera Sans', 'Computer Modern Sans Serif', 'Lucida Grande', 'Verdana', 'Geneva', 'Lucid', 'Arial', 'Helvetica', 'Avant Garde', sans-serif; text-anchor: end; fill: var(--fg-color)" x="24.64" y="48.957942" transform="rotate(-0 24.64 48.957942)">40</text>
     </g>
    </g>
    <g id="ytick_4">
     <g id="line2d_13">
      <path d="M 31.64 18.998985 
L 211 18.998985 
" clip-path="url(#pfa2a8d7e4d)" style="fill: none; stroke-dasharray: 2.96,1.28; stroke-dashoffset: 0; stroke: var(--grid-color); stroke-width: 0.8"/>
     </g>
     <g id="line2d_14">
      <g>
       <use xlink:href="#m82da3d5775" x="31.64" y="18.998985" style="fill: var(--fg-color); stroke: var(--fg-color); stroke-width: 0.8"/>
      </g>
     </g>
     <g id="text_7">
      <text style="font-size: 7px; font-family: 'DejaVu Sans', 'Bitstream Vera Sans', 'Computer Modern Sans Serif', 'Lucida Grande', 'Verdana', 'Geneva', 'Lucid', 'Arial', 'Helvetica', 'Avant Garde', sans-serif; text-anchor: end; fill: var(--fg-color)" x="24.64" y="21.658164" transform="rotate(-0 24.64 21.658164)">60</text>
     </g>
    </g>
    <g id="text_8">
     <text style="font-size: 7px; font-family: 'DejaVu Sans', 'Bitstream Vera Sans', 'Computer Modern Sans Serif', 'Lucida Grande', 'Verdana', 'Geneva', 'Lucid', 'Arial', 'Helvetica', 'Avant Garde', sans-serif; text-anchor: middle; fill: var(--fg-color)" x="10.050859" y="54.2" transform="rotate(-90 10.050859 54.2)">ms</text>
    </g>
   </g>
   <g id="line2d_15">
    <path d="M 39.792727 41.761539 
L 41.100981 39.80005 
L 41.688656 40.489369 
L 42.636649 36.959508 
L 43.584641 37.605148 
L 44.532636 42.28706 
L 45.480623 43.871812 
L 46.428611 39.22539 
L 47.376592 35.088108 
L 48.324591 42.068661 
L 49.272583 33.579796 
L 50.220574 39.861474 
L 51.168564 40.806047 
L 52.116549 35.440275 
L 53.064541 36.551376 
L 54.012533 45.664042 
L 54.960516 42.134181 
L 55.908509 34.969354 
L 56.856499 36.498142 
L 57.804489 44.647125 
L 58.752478 39.577557 
L 59.700467 34.428819 
L 60.64846 30.445781 
L 61.596444 40.515304 
L 62.544432 38.076069 
L 63.492429 38.981057 
L 64.440417 30.081329 
L 65.388409 45.014307 
L 66.336395 38.878682 
L 67.284367 34.483418 
L 68.232376 38.875952 
L 69.180361 36.794344 
L 70.128357 37.325325 
L 71.076344 38.473281 
L 72.024336 41.139104 
L 72.97232 41.810679 
L 73.920319 37.553278 
L 74.868295 42.566882 
L 75.816291 42.603737 
L 76.764282 36.685145 
L 77.712274 39.995243 
L 78.660247 32.549229 
L 79.608251 41.184149 
L 80.556225 34.164011 
L 81.504231 31.7862 
L 82.452221 43.970091 
L 83.400212 38.725804 
L 84.348199 38.106099 
L 85.296195 23.134901 
L 94.970475 28.250879 
L 95.724369 28.376458 
L 96.672377 27.101559 
L 97.620366 26.738471 
L 98.56836 27.291292 
L 99.516347 16.688058 
L 100.464334 27.614794 
L 101.412323 17.67358 
L 102.360311 22.07021 
L 103.308299 27.921917 
L 104.256292 26.839481 
L 105.204278 18.210021 
L 106.15227 29.458894 
L 107.100261 27.268087 
L 108.04825 27.021024 
L 108.996237 26.817641 
L 109.944231 19.140943 
L 110.892217 23.405169 
L 111.84021 26.29758 
L 112.788201 23.040717 
L 113.736187 17.960228 
L 114.684183 18.865216 
L 115.632163 26.723457 
L 116.580154 26.851766 
L 117.528151 15.751676 
L 118.47614 32.324006 
L 119.42413 25.559121 
L 120.372113 20.855369 
L 121.320106 28.634441 
L 122.268096 22.416917 
L 123.216085 21.045103 
L 124.164076 20.458158 
L 127.956033 28.312304 
L 128.904029 25.69835 
L 129.852015 19.389371 
L 130.800005 29.629518 
L 131.747996 10.694392 
L 132.695985 22.461961 
L 133.643978 18.347885 
L 134.591949 27.659839 
L 135.539952 17.632631 
L 136.487947 20.086881 
L 137.435933 25.011761 
L 138.383926 20.843085 
L 139.331913 14.378497 
L 140.279903 19.027649 
L 141.22789 18.219576 
L 142.175883 9.472727 
L 143.123885 20.301184 
L 144.071862 21.606113 
L 145.019854 11.976117 
L 145.967841 20.320294 
L 146.915831 20.650621 
L 147.863822 23.20315 
L 148.811809 13.491254 
L 149.759801 16.50242 
L 150.707787 13.741047 
L 179.147543 13.741047 
L 187.994854 25.978173 
L 188.627425 19.293822 
L 189.575414 16.211677 
L 190.523402 17.537082 
L 191.471391 26.853131 
L 192.419387 18.440704 
L 193.367373 22.842793 
L 194.315361 25.567311 
L 195.263349 15.561943 
L 196.211342 23.511638 
L 197.159334 15.571498 
L 198.107324 29.9694 
L 199.055317 25.529091 
L 200.0033 27.132953 
L 200.951292 28.992068 
L 201.899281 22.04837 
L 202.847273 18.448894 
" clip-path="url(#pfa2a8d7e4d)" style="fill: none; stroke: #339af0; stroke-width: 1.2; stroke-linecap: square"/>
   </g>
   <g id="line2d_16">
    <path d="M 39.792727 98.695225 
L 41.100981 98.68294 
L 41.688656 98.687035 
L 42.636649 98.470001 
L 43.584641 98.580566 
L 44.532636 98.65837 
L 45.480623 98.792139 
L 46.428611 98.747094 
L 47.376592 98.736174 
L 48.324591 98.730714 
L 49.272583 98.657005 
L 50.220574 98.715699 
L 51.168564 98.635165 
L 52.116549 98.61469 
L 53.064541 98.63653 
L 54.012533 98.889053 
L 54.960516 98.737539 
L 55.908509 98.635165 
L 56.856499 98.64199 
L 57.804489 98.771664 
L 58.752478 98.588755 
L 59.700467 98.678845 
L 60.64846 98.62561 
L 61.596444 98.768934 
L 62.544432 98.789409 
L 63.492429 98.748459 
L 64.440417 98.591485 
L 65.388409 98.820804 
L 66.336395 98.654275 
L 67.284367 98.786679 
L 68.232376 98.719794 
L 69.180361 98.676115 
L 70.128357 98.697955 
L 71.076344 98.783949 
L 72.024336 98.62288 
L 72.97232 98.733444 
L 73.920319 98.635165 
L 74.868295 98.596945 
L 75.816291 98.808519 
L 76.764282 98.725254 
L 77.712274 98.719794 
L 78.660247 98.758014 
L 79.608251 98.790774 
L 80.556225 98.566916 
L 81.504231 98.433147 
L 82.452221 98.794869 
L 83.400212 98.811249 
L 84.348199 98.726619 
L 85.296195 98.788044 
L 94.970475 98.711604 
L 95.724369 98.886323 
L 96.672377 98.863118 
L 97.620366 98.803059 
L 98.56836 98.800329 
L 99.516347 98.790774 
L 100.464334 98.867213 
L 101.412323 98.844008 
L 102.360311 98.815344 
L 103.308299 98.890418 
L 104.256292 98.747094 
L 105.204278 98.651545 
L 106.15227 98.744364 
L 107.100261 98.861753 
L 108.04825 98.864483 
L 108.996237 98.875403 
L 109.944231 98.764839 
L 110.892217 98.841278 
L 111.84021 98.749824 
L 112.788201 98.880863 
L 113.736187 98.823534 
L 114.684183 98.722524 
L 115.632163 98.828994 
L 116.580154 98.842643 
L 117.528151 98.555996 
L 118.47614 98.872673 
L 119.42413 98.927273 
L 120.372113 98.64745 
L 121.320106 98.659735 
L 122.268096 98.637895 
L 123.216085 98.224303 
L 124.164076 98.547806 
L 127.956033 98.6884 
L 128.904029 98.463177 
L 129.852015 98.618785 
L 130.800005 98.665195 
L 131.747996 98.480921 
L 132.695985 98.444067 
L 133.643978 98.575106 
L 134.591949 98.416767 
L 135.539952 98.61742 
L 136.487947 98.60377 
L 137.435933 98.392197 
L 138.383926 98.528696 
L 139.331913 98.307568 
L 140.279903 98.561456 
L 141.22789 98.345787 
L 142.175883 98.454987 
L 143.123885 98.470001 
L 144.071862 97.966321 
L 145.019854 98.467271 
L 145.967841 98.180624 
L 146.915831 98.502761 
L 147.863822 98.512316 
L 148.811809 98.109644 
L 149.759801 98.475461 
L 150.707787 98.340328 
L 179.147543 98.340328 
L 187.994854 98.66929 
L 188.627425 98.418132 
L 189.575414 98.049585 
L 190.523402 98.730714 
L 191.471391 98.65018 
L 192.419387 98.6065 
L 193.367373 98.890418 
L 194.315361 98.745729 
L 195.263349 98.224303 
L 196.211342 98.726619 
L 197.159334 98.64199 
L 198.107324 98.714334 
L 199.055317 98.816709 
L 200.0033 98.62834 
L 200.951292 98.744364 
L 201.899281 98.711604 
L 202.847273 98.67475 
" clip-path="url(#pfa2a8d7e4d)" style="fill: none; stroke: #ff6b6b; stroke-width: 1.2; stroke-linecap: square"/>
   </g>
   <g id="patch_3">
    <path d="M 31.64 103.4 
L 31.64 5 
" style="fill: none; stroke: var(--fg-color); stroke-width: 0.8; stroke-linejoin: miter; stroke-linecap: square"/>
   </g>
   <g id="patch_4">
    <path d="M 31.64 103.4 
L 211 103.4 
" style="fill: none; stroke: var(--fg-color); stroke-width: 0.8; stroke-linejoin: miter; stroke-linecap: square"/>
   </g>
  </g>
 </g>
 <defs>
  <clipPath id="pfa2a8d7e4d">
   <rect x="31.64" y="5" width="179.36" height="98.4"/>
  </clipPath>
 </defs>
</svg>
