<?xml version="1.0" encoding="utf-8" standalone="no"?>
<!DOCTYPE svg PUBLIC "-//W3C//DTD SVG 1.1//EN"
  "http://www.w3.org/Graphics/SVG/1.1/DTD/svg11.dtd">
<svg xmlns:xlink="http://www.w3.org/1999/xlink" width="216pt" height="122.4pt" viewBox="0 0 216 122.4" xmlns="http://www.w3.org/2000/svg" version="1.1">
  <style>
    :root {
      --fg-color: #212529;
      --grid-color: rgba(33, 37, 41, 0.1);
    }
    @media (prefers-color-scheme: dark) {
      :root {
        --fg-color: #dee2e6;
        --grid-color: rgba(248, 249, 250, 0.15);
      }
    }
  </style>

 <metadata>
  <rdf:RDF xmlns:dc="http://purl.org/dc/elements/1.1/" xmlns:cc="http://creativecommons.org/ns#" xmlns:rdf="http://www.w3.org/1999/02/22-rdf-syntax-ns#">
   <cc:Work>
    <dc:type rdf:resource="http://purl.org/dc/dcmitype/StillImage"/>
    <dc:date>2026-06-30T04:48:26.705238</dc:date>
    <dc:format>image/svg+xml</dc:format>
    <dc:creator>
     <cc:Agent>
      <dc:title>Matplotlib v3.11.0, https://matplotlib.org/</dc:title>
     </cc:Agent>
    </dc:creator>
   </cc:Work>
  </rdf:RDF>
 </metadata>
 <defs>
  <style type="text/css">*{stroke-linejoin: round; stroke-linecap: butt}</style>
 </defs>
 <g id="figure_1">
  <g id="patch_1">
   <path d="M 0 122.4 
L 216 122.4 
L 216 0 
L 0 0 
L 0 122.4 
z
" style="fill: none; opacity: 0"/>
  </g>
  <g id="axes_1">
   <g id="patch_2">
    <path d="M 35.96 103.4 
L 211 103.4 
L 211 5 
L 35.96 5 
L 35.96 103.4 
z
" style="fill: none; opacity: 0"/>
   </g>
   <g id="matplotlib.axis_1">
    <g id="xtick_1">
     <g id="line2d_1">
      <path d="M 70.996911 103.4 
L 70.996911 5 
" clip-path="url(#p86553bc956)" style="fill: none; stroke-dasharray: 2.96,1.28; stroke-dashoffset: 0; stroke: var(--grid-color); stroke-width: 0.8"/>
     </g>
     <g id="line2d_2">
      <defs>
       <path id="mc7e483f06a" d="M 0 0 
L 0 3.5 
" style="stroke: var(--fg-color); stroke-width: 0.8"/>
      </defs>
      <g>
       <use xlink:href="#mc7e483f06a" x="70.996911" y="103.4" style="fill: var(--fg-color); stroke: var(--fg-color); stroke-width: 0.8"/>
      </g>
     </g>
     <g id="text_1">
      <text style="font-size: 7px; font-family: 'DejaVu Sans', 'Bitstream Vera Sans', 'Computer Modern Sans Serif', 'Lucida Grande', 'Verdana', 'Geneva', 'Lucid', 'Arial', 'Helvetica', 'Avant Garde', sans-serif; text-anchor: middle; fill: var(--fg-color)" x="70.996911" y="115.718359" transform="rotate(-0 70.996911 115.718359)">02/2026</text>
     </g>
    </g>
    <g id="xtick_2">
     <g id="line2d_3">
      <path d="M 126.022656 103.4 
L 126.022656 5 
" clip-path="url(#p86553bc956)" style="fill: none; stroke-dasharray: 2.96,1.28; stroke-dashoffset: 0; stroke: var(--grid-color); stroke-width: 0.8"/>
     </g>
     <g id="line2d_4">
      <g>
       <use xlink:href="#mc7e483f06a" x="126.022656" y="103.4" style="fill: var(--fg-color); stroke: var(--fg-color); stroke-width: 0.8"/>
      </g>
     </g>
     <g id="text_2">
      <text style="font-size: 7px; font-family: 'DejaVu Sans', 'Bitstream Vera Sans', 'Computer Modern Sans Serif', 'Lucida Grande', 'Verdana', 'Geneva', 'Lucid', 'Arial', 'Helvetica', 'Avant Garde', sans-serif; text-anchor: middle; fill: var(--fg-color)" x="126.022656" y="115.718359" transform="rotate(-0 126.022656 115.718359)">04/2026</text>
     </g>
    </g>
    <g id="xtick_3">
     <g id="line2d_5">
      <path d="M 182.913681 103.4 
L 182.913681 5 
" clip-path="url(#p86553bc956)" style="fill: none; stroke-dasharray: 2.96,1.28; stroke-dashoffset: 0; stroke: var(--grid-color); stroke-width: 0.8"/>
     </g>
     <g id="line2d_6">
      <g>
       <use xlink:href="#mc7e483f06a" x="182.913681" y="103.4" style="fill: var(--fg-color); stroke: var(--fg-color); stroke-width: 0.8"/>
      </g>
     </g>
     <g id="text_3">
      <text style="font-size: 7px; font-family: 'DejaVu Sans', 'Bitstream Vera Sans', 'Computer Modern Sans Serif', 'Lucida Grande', 'Verdana', 'Geneva', 'Lucid', 'Arial', 'Helvetica', 'Avant Garde', sans-serif; text-anchor: middle; fill: var(--fg-color)" x="182.913681" y="115.718359" transform="rotate(-0 182.913681 115.718359)">06/2026</text>
     </g>
    </g>
   </g>
   <g id="matplotlib.axis_2">
    <g id="ytick_1">
     <g id="line2d_7">
      <path d="M 35.96 100.447899 
L 211 100.447899 
" clip-path="url(#p86553bc956)" style="fill: none; stroke-dasharray: 2.96,1.28; stroke-dashoffset: 0; stroke: var(--grid-color); stroke-width: 0.8"/>
     </g>
     <g id="line2d_8">
      <defs>
       <path id="m2a34b5c4ba" d="M 0 0 
L -3.5 0 
" style="stroke: var(--fg-color); stroke-width: 0.8"/>
      </defs>
      <g>
       <use xlink:href="#m2a34b5c4ba" x="35.96" y="100.447899" style="fill: var(--fg-color); stroke: var(--fg-color); stroke-width: 0.8"/>
      </g>
     </g>
     <g id="text_4">
      <text style="font-size: 7px; font-family: 'DejaVu Sans', 'Bitstream Vera Sans', 'Computer Modern Sans Serif', 'Lucida Grande', 'Verdana', 'Geneva', 'Lucid', 'Arial', 'Helvetica', 'Avant Garde', sans-serif; text-anchor: end; fill: var(--fg-color)" x="28.96" y="103.107078" transform="rotate(-0 28.96 103.107078)">0</text>
     </g>
    </g>
    <g id="ytick_2">
     <g id="line2d_9">
      <path d="M 35.96 83.946262 
L 211 83.946262 
" clip-path="url(#p86553bc956)" style="fill: none; stroke-dasharray: 2.96,1.28; stroke-dashoffset: 0; stroke: var(--grid-color); stroke-width: 0.8"/>
     </g>
     <g id="line2d_10">
      <g>
       <use xlink:href="#m2a34b5c4ba" x="35.96" y="83.946262" style="fill: var(--fg-color); stroke: var(--fg-color); stroke-width: 0.8"/>
      </g>
     </g>
     <g id="text_5">
      <text style="font-size: 7px; font-family: 'DejaVu Sans', 'Bitstream Vera Sans', 'Computer Modern Sans Serif', 'Lucida Grande', 'Verdana', 'Geneva', 'Lucid', 'Arial', 'Helvetica', 'Avant Garde', sans-serif; text-anchor: end; fill: var(--fg-color)" x="28.96" y="86.605442" transform="rotate(-0 28.96 86.605442)">20</text>
     </g>
    </g>
    <g id="ytick_3">
     <g id="line2d_11">
      <path d="M 35.96 67.444626 
L 211 67.444626 
" clip-path="url(#p86553bc956)" style="fill: none; stroke-dasharray: 2.96,1.28; stroke-dashoffset: 0; stroke: var(--grid-color); stroke-width: 0.8"/>
     </g>
     <g id="line2d_12">
      <g>
       <use xlink:href="#m2a34b5c4ba" x="35.96" y="67.444626" style="fill: var(--fg-color); stroke: var(--fg-color); stroke-width: 0.8"/>
      </g>
     </g>
     <g id="text_6">
      <text style="font-size: 7px; font-family: 'DejaVu Sans', 'Bitstream Vera Sans', 'Computer Modern Sans Serif', 'Lucida Grande', 'Verdana', 'Geneva', 'Lucid', 'Arial', 'Helvetica', 'Avant Garde', sans-serif; text-anchor: end; fill: var(--fg-color)" x="28.96" y="70.103806" transform="rotate(-0 28.96 70.103806)">40</text>
     </g>
    </g>
    <g id="ytick_4">
     <g id="line2d_13">
      <path d="M 35.96 50.94299 
L 211 50.94299 
" clip-path="url(#p86553bc956)" style="fill: none; stroke-dasharray: 2.96,1.28; stroke-dashoffset: 0; stroke: var(--grid-color); stroke-width: 0.8"/>
     </g>
     <g id="line2d_14">
      <g>
       <use xlink:href="#m2a34b5c4ba" x="35.96" y="50.94299" style="fill: var(--fg-color); stroke: var(--fg-color); stroke-width: 0.8"/>
      </g>
     </g>
     <g id="text_7">
      <text style="font-size: 7px; font-family: 'DejaVu Sans', 'Bitstream Vera Sans', 'Computer Modern Sans Serif', 'Lucida Grande', 'Verdana', 'Geneva', 'Lucid', 'Arial', 'Helvetica', 'Avant Garde', sans-serif; text-anchor: end; fill: var(--fg-color)" x="28.96" y="53.602169" transform="rotate(-0 28.96 53.602169)">60</text>
     </g>
    </g>
    <g id="ytick_5">
     <g id="line2d_15">
      <path d="M 35.96 34.441353 
L 211 34.441353 
" clip-path="url(#p86553bc956)" style="fill: none; stroke-dasharray: 2.96,1.28; stroke-dashoffset: 0; stroke: var(--grid-color); stroke-width: 0.8"/>
     </g>
     <g id="line2d_16">
      <g>
       <use xlink:href="#m2a34b5c4ba" x="35.96" y="34.441353" style="fill: var(--fg-color); stroke: var(--fg-color); stroke-width: 0.8"/>
      </g>
     </g>
     <g id="text_8">
      <text style="font-size: 7px; font-family: 'DejaVu Sans', 'Bitstream Vera Sans', 'Computer Modern Sans Serif', 'Lucida Grande', 'Verdana', 'Geneva', 'Lucid', 'Arial', 'Helvetica', 'Avant Garde', sans-serif; text-anchor: end; fill: var(--fg-color)" x="28.96" y="37.100533" transform="rotate(-0 28.96 37.100533)">80</text>
     </g>
    </g>
    <g id="ytick_6">
     <g id="line2d_17">
      <path d="M 35.96 17.939717 
L 211 17.939717 
" clip-path="url(#p86553bc956)" style="fill: none; stroke-dasharray: 2.96,1.28; stroke-dashoffset: 0; stroke: var(--grid-color); stroke-width: 0.8"/>
     </g>
     <g id="line2d_18">
      <g>
       <use xlink:href="#m2a34b5c4ba" x="35.96" y="17.939717" style="fill: var(--fg-color); stroke: var(--fg-color); stroke-width: 0.8"/>
      </g>
     </g>
     <g id="text_9">
      <text style="font-size: 7px; font-family: 'DejaVu Sans', 'Bitstream Vera Sans', 'Computer Modern Sans Serif', 'Lucida Grande', 'Verdana', 'Geneva', 'Lucid', 'Arial', 'Helvetica', 'Avant Garde', sans-serif; text-anchor: end; fill: var(--fg-color)" x="28.96" y="20.598897" transform="rotate(-0 28.96 20.598897)">100</text>
     </g>
    </g>
    <g id="text_10">
     <text style="font-size: 7px; font-family: 'DejaVu Sans', 'Bitstream Vera Sans', 'Computer Modern Sans Serif', 'Lucida Grande', 'Verdana', 'Geneva', 'Lucid', 'Arial', 'Helvetica', 'Avant Garde', sans-serif; text-anchor: middle; fill: var(--fg-color)" x="9.917109" y="54.2" transform="rotate(-90 9.917109 54.2)">ms</text>
    </g>
   </g>
   <g id="line2d_19">
    <path d="M 43.916364 23.435587 
L 44.494523 28.46281 
L 45.427166 28.348949 
L 46.359808 26.457862 
L 47.292453 30.305218 
L 48.22509 26.881129 
L 49.157727 25.325024 
L 50.090359 27.112151 
L 51.023007 25.825849 
L 51.95565 26.408357 
L 52.88829 24.597302 
L 53.82093 23.851428 
L 54.753566 26.114628 
L 55.686208 26.419083 
L 56.618849 29.421555 
L 57.551483 28.325847 
L 58.484126 27.708686 
L 59.416765 28.197134 
L 60.349406 29.01314 
L 61.282045 27.155881 
L 62.214684 19.718593 
L 63.147327 27.570897 
L 64.07996 26.490865 
L 65.012598 31.858022 
L 65.945245 25.88278 
L 66.877884 23.744993 
L 67.810526 28.428982 
L 68.743162 23.634432 
L 69.675784 30.085746 
L 70.608443 26.770568 
L 71.541078 27.355551 
L 72.473724 22.572551 
L 73.406361 22.693838 
L 74.339003 28.683932 
L 75.271637 28.321721 
L 76.204286 29.637727 
L 77.136912 31.166603 
L 78.069558 29.985086 
L 79.002199 29.66908 
L 79.934841 24.505718 
L 80.867465 29.222711 
L 81.800118 18.57173 
L 82.732742 23.131132 
L 83.665398 29.479311 
L 84.598038 28.837398 
L 85.53068 26.980138 
L 86.463316 27.957035 
L 87.395962 29.303569 
L 96.913595 28.468586 
L 97.655282 29.883601 
L 98.587939 28.236738 
L 99.520578 24.493342 
L 100.453222 27.445484 
L 101.385859 32.625348 
L 102.318497 29.844822 
L 103.251135 25.875354 
L 104.183773 26.94466 
L 105.116412 29.952908 
L 106.049054 33.812641 
L 106.981691 25.693011 
L 107.914333 33.171552 
L 108.846974 25.53872 
L 109.779613 31.74086 
L 110.71225 32.296966 
L 111.644893 33.80604 
L 112.57753 24.353078 
L 113.510173 23.058524 
L 114.442814 27.358851 
L 115.37545 29.429806 
L 116.308095 29.703733 
L 117.240726 26.598951 
L 118.173367 24.116279 
L 119.106014 27.264792 
L 120.038653 27.127828 
L 120.971293 28.139378 
L 121.903926 23.862154 
L 122.836569 27.290369 
L 123.769209 26.216113 
L 124.701847 25.622879 
L 125.634489 20.400936 
L 129.365046 24.144332 
L 130.297692 27.928157 
L 131.230328 30.393502 
L 132.162968 29.358024 
L 133.095609 30.388551 
L 134.028248 26.101426 
L 134.960891 20.803576 
L 135.893512 25.197137 
L 136.826165 29.146803 
L 137.75881 26.419083 
L 138.691446 27.323372 
L 139.624089 24.754893 
L 140.556726 20.347306 
L 141.489366 21.968591 
L 142.422003 29.207034 
L 143.354646 25.457037 
L 144.287298 24.721064 
L 145.219926 16.614635 
L 146.152567 29.542842 
L 147.085204 21.641859 
L 148.017844 23.611329 
L 148.950485 27.252415 
L 149.883123 24.996642 
L 150.815765 26.584924 
L 151.7484 26.103901 
L 179.727656 26.103901 
L 188.43171 20.033775 
L 189.054038 28.20291 
L 189.986678 21.215292 
L 190.919315 26.621228 
L 191.851955 22.987567 
L 192.7846 24.3275 
L 193.717237 22.518096 
L 194.649875 21.994994 
L 195.582513 26.782119 
L 196.515156 23.394333 
L 197.447798 9.472727 
L 198.380437 25.18311 
L 199.313081 25.867928 
L 200.245713 24.779645 
L 201.178356 27.192184 
L 202.110995 27.183108 
L 203.043636 19.329155 
" clip-path="url(#p86553bc956)" style="fill: none; stroke: #339af0; stroke-width: 1.2; stroke-linecap: square"/>
   </g>
   <g id="line2d_20">
    <path d="M 43.916364 95.515559 
L 44.494523 94.46358 
L 45.427166 96.573314 
L 46.359808 94.038663 
L 47.292453 96.724304 
L 48.22509 96.140971 
L 49.157727 96.88272 
L 50.090359 95.9215 
L 51.023007 98.538659 
L 51.95565 96.603017 
L 52.88829 98.487504 
L 53.82093 97.182225 
L 54.753566 96.489156 
L 55.686208 97.320013 
L 56.618849 94.976781 
L 57.551483 95.233381 
L 58.484126 96.068364 
L 59.416765 98.29361 
L 60.349406 97.980079 
L 61.282045 98.331564 
L 62.214684 97.428099 
L 63.147327 96.050212 
L 64.07996 96.866218 
L 65.012598 96.725954 
L 65.945245 96.713578 
L 66.877884 94.874471 
L 67.810526 96.902522 
L 68.743162 97.273809 
L 69.675784 95.156649 
L 70.608443 94.328267 
L 71.541078 96.987505 
L 72.473724 97.507307 
L 73.406361 94.282062 
L 74.339003 96.724304 
L 75.271637 95.174801 
L 76.204286 95.655823 
L 77.136912 98.530408 
L 78.069558 98.048561 
L 79.002199 96.797737 
L 79.934841 98.130244 
L 80.867465 96.032886 
L 81.800118 95.646747 
L 82.732742 94.939652 
L 83.665398 97.683049 
L 84.598038 96.933875 
L 85.53068 94.500709 
L 86.463316 96.352192 
L 87.395962 94.606319 
L 96.913595 95.301863 
L 97.655282 98.927273 
L 98.587939 95.093118 
L 99.520578 93.820016 
L 100.453222 96.416549 
L 101.385859 97.933874 
L 102.318497 95.966054 
L 103.251135 95.611269 
L 104.183773 95.385196 
L 105.116412 97.64262 
L 106.049054 94.781237 
L 106.981691 96.034536 
L 107.914333 94.204504 
L 108.846974 97.933874 
L 109.779613 97.393446 
L 110.71225 98.64262 
L 111.644893 95.360444 
L 112.57753 97.786185 
L 113.510173 96.347242 
L 114.442814 96.329915 
L 115.37545 96.862918 
L 116.308095 96.23008 
L 117.240726 95.814239 
L 118.173367 95.704503 
L 119.106014 96.42975 
L 120.038653 97.124469 
L 120.971293 95.548563 
L 121.903926 97.199551 
L 122.836569 97.560112 
L 123.769209 96.419849 
L 124.701847 96.183876 
L 125.634489 88.324146 
L 129.365046 97.327439 
L 130.297692 98.282059 
L 131.230328 96.403347 
L 132.162968 96.120344 
L 133.095609 96.914898 
L 134.028248 95.065065 
L 134.960891 94.699553 
L 135.893512 98.04031 
L 136.826165 96.417374 
L 137.75881 96.338166 
L 138.691446 97.202027 
L 139.624089 97.282885 
L 140.556726 94.501534 
L 141.489366 96.674799 
L 142.422003 97.260607 
L 143.354646 96.217704 
L 144.287298 97.514733 
L 145.219926 97.848066 
L 146.152567 92.005661 
L 147.085204 95.131896 
L 148.017844 97.086515 
L 148.950485 98.49823 
L 149.883123 97.617868 
L 150.815765 94.324966 
L 151.7484 95.729256 
L 179.727656 95.729256 
L 188.43171 94.834042 
L 189.054038 95.537837 
L 189.986678 94.495758 
L 190.919315 95.339817 
L 191.851955 97.291135 
L 192.7846 96.799387 
L 193.717237 94.351369 
L 194.649875 95.233381 
L 195.582513 97.38767 
L 196.515156 95.97183 
L 197.447798 97.549386 
L 198.380437 95.616219 
L 199.313081 94.946253 
L 200.245713 97.107967 
L 201.178356 95.302688 
L 202.110995 98.473478 
L 203.043636 94.654999 
" clip-path="url(#p86553bc956)" style="fill: none; stroke: #ff6b6b; stroke-width: 1.2; stroke-linecap: square"/>
   </g>
   <g id="patch_3">
    <path d="M 35.96 103.4 
L 35.96 5 
" style="fill: none; stroke: var(--fg-color); stroke-width: 0.8; stroke-linejoin: miter; stroke-linecap: square"/>
   </g>
   <g id="patch_4">
    <path d="M 35.96 103.4 
L 211 103.4 
" style="fill: none; stroke: var(--fg-color); stroke-width: 0.8; stroke-linejoin: miter; stroke-linecap: square"/>
   </g>
  </g>
 </g>
 <defs>
  <clipPath id="p86553bc956">
   <rect x="35.96" y="5" width="175.04" height="98.4"/>
  </clipPath>
 </defs>
</svg>
