<?xml version="1.0" encoding="utf-8" standalone="no"?>
<!DOCTYPE svg PUBLIC "-//W3C//DTD SVG 1.1//EN"
  "http://www.w3.org/Graphics/SVG/1.1/DTD/svg11.dtd">
<svg xmlns:xlink="http://www.w3.org/1999/xlink" width="216pt" height="122.4pt" viewBox="0 0 216 122.4" xmlns="http://www.w3.org/2000/svg" version="1.1">
  <style>
    :root {
      --fg-color: #212529;
      --grid-color: rgba(33, 37, 41, 0.1);
    }
    @media (prefers-color-scheme: dark) {
      :root {
        --fg-color: #dee2e6;
        --grid-color: rgba(248, 249, 250, 0.15);
      }
    }
  </style>

 <metadata>
  <rdf:RDF xmlns:dc="http://purl.org/dc/elements/1.1/" xmlns:cc="http://creativecommons.org/ns#" xmlns:rdf="http://www.w3.org/1999/02/22-rdf-syntax-ns#">
   <cc:Work>
    <dc:type rdf:resource="http://purl.org/dc/dcmitype/StillImage"/>
    <dc:date>2026-06-30T15:37:11.901778</dc:date>
    <dc:format>image/svg+xml</dc:format>
    <dc:creator>
     <cc:Agent>
      <dc:title>Matplotlib v3.11.0, https://matplotlib.org/</dc:title>
     </cc:Agent>
    </dc:creator>
   </cc:Work>
  </rdf:RDF>
 </metadata>
 <defs>
  <style type="text/css">*{stroke-linejoin: round; stroke-linecap: butt}</style>
 </defs>
 <g id="figure_1">
  <g id="patch_1">
   <path d="M 0 122.4 
L 216 122.4 
L 216 0 
L 0 0 
L 0 122.4 
z
" style="fill: none; opacity: 0"/>
  </g>
  <g id="axes_1">
   <g id="patch_2">
    <path d="M 35.96 103.4 
L 211 103.4 
L 211 5 
L 35.96 5 
L 35.96 103.4 
z
" style="fill: none; opacity: 0"/>
   </g>
   <g id="matplotlib.axis_1">
    <g id="xtick_1">
     <g id="line2d_1">
      <path d="M 69.784035 103.4 
L 69.784035 5 
" clip-path="url(#p137bf2d87a)" style="fill: none; stroke-dasharray: 2.96,1.28; stroke-dashoffset: 0; stroke: var(--grid-color); stroke-width: 0.8"/>
     </g>
     <g id="line2d_2">
      <defs>
       <path id="m5f1f936f05" d="M 0 0 
L 0 3.5 
" style="stroke: var(--fg-color); stroke-width: 0.8"/>
      </defs>
      <g>
       <use xlink:href="#m5f1f936f05" x="69.784035" y="103.4" style="fill: var(--fg-color); stroke: var(--fg-color); stroke-width: 0.8"/>
      </g>
     </g>
     <g id="text_1">
      <text style="font-size: 7px; font-family: 'DejaVu Sans', 'Bitstream Vera Sans', 'Computer Modern Sans Serif', 'Lucida Grande', 'Verdana', 'Geneva', 'Lucid', 'Arial', 'Helvetica', 'Avant Garde', sans-serif; text-anchor: middle; fill: var(--fg-color)" x="69.784035" y="115.718359" transform="rotate(-0 69.784035 115.718359)">02/2026</text>
     </g>
    </g>
    <g id="xtick_2">
     <g id="line2d_3">
      <path d="M 122.345302 103.4 
L 122.345302 5 
" clip-path="url(#p137bf2d87a)" style="fill: none; stroke-dasharray: 2.96,1.28; stroke-dashoffset: 0; stroke: var(--grid-color); stroke-width: 0.8"/>
     </g>
     <g id="line2d_4">
      <g>
       <use xlink:href="#m5f1f936f05" x="122.345302" y="103.4" style="fill: var(--fg-color); stroke: var(--fg-color); stroke-width: 0.8"/>
      </g>
     </g>
     <g id="text_2">
      <text style="font-size: 7px; font-family: 'DejaVu Sans', 'Bitstream Vera Sans', 'Computer Modern Sans Serif', 'Lucida Grande', 'Verdana', 'Geneva', 'Lucid', 'Arial', 'Helvetica', 'Avant Garde', sans-serif; text-anchor: middle; fill: var(--fg-color)" x="122.345302" y="115.718359" transform="rotate(-0 122.345302 115.718359)">04/2026</text>
     </g>
    </g>
    <g id="xtick_3">
     <g id="line2d_5">
      <path d="M 176.688307 103.4 
L 176.688307 5 
" clip-path="url(#p137bf2d87a)" style="fill: none; stroke-dasharray: 2.96,1.28; stroke-dashoffset: 0; stroke: var(--grid-color); stroke-width: 0.8"/>
     </g>
     <g id="line2d_6">
      <g>
       <use xlink:href="#m5f1f936f05" x="176.688307" y="103.4" style="fill: var(--fg-color); stroke: var(--fg-color); stroke-width: 0.8"/>
      </g>
     </g>
     <g id="text_3">
      <text style="font-size: 7px; font-family: 'DejaVu Sans', 'Bitstream Vera Sans', 'Computer Modern Sans Serif', 'Lucida Grande', 'Verdana', 'Geneva', 'Lucid', 'Arial', 'Helvetica', 'Avant Garde', sans-serif; text-anchor: middle; fill: var(--fg-color)" x="176.688307" y="115.718359" transform="rotate(-0 176.688307 115.718359)">06/2026</text>
     </g>
    </g>
   </g>
   <g id="matplotlib.axis_2">
    <g id="ytick_1">
     <g id="line2d_7">
      <path d="M 35.96 91.174075 
L 211 91.174075 
" clip-path="url(#p137bf2d87a)" style="fill: none; stroke-dasharray: 2.96,1.28; stroke-dashoffset: 0; stroke: var(--grid-color); stroke-width: 0.8"/>
     </g>
     <g id="line2d_8">
      <defs>
       <path id="mbe134faf18" d="M 0 0 
L -3.5 0 
" style="stroke: var(--fg-color); stroke-width: 0.8"/>
      </defs>
      <g>
       <use xlink:href="#mbe134faf18" x="35.96" y="91.174075" style="fill: var(--fg-color); stroke: var(--fg-color); stroke-width: 0.8"/>
      </g>
     </g>
     <g id="text_4">
      <text style="font-size: 7px; font-family: 'DejaVu Sans', 'Bitstream Vera Sans', 'Computer Modern Sans Serif', 'Lucida Grande', 'Verdana', 'Geneva', 'Lucid', 'Arial', 'Helvetica', 'Avant Garde', sans-serif; text-anchor: end; fill: var(--fg-color)" x="28.96" y="93.833255" transform="rotate(-0 28.96 93.833255)">140</text>
     </g>
    </g>
    <g id="ytick_2">
     <g id="line2d_9">
      <path d="M 35.96 76.160137 
L 211 76.160137 
" clip-path="url(#p137bf2d87a)" style="fill: none; stroke-dasharray: 2.96,1.28; stroke-dashoffset: 0; stroke: var(--grid-color); stroke-width: 0.8"/>
     </g>
     <g id="line2d_10">
      <g>
       <use xlink:href="#mbe134faf18" x="35.96" y="76.160137" style="fill: var(--fg-color); stroke: var(--fg-color); stroke-width: 0.8"/>
      </g>
     </g>
     <g id="text_5">
      <text style="font-size: 7px; font-family: 'DejaVu Sans', 'Bitstream Vera Sans', 'Computer Modern Sans Serif', 'Lucida Grande', 'Verdana', 'Geneva', 'Lucid', 'Arial', 'Helvetica', 'Avant Garde', sans-serif; text-anchor: end; fill: var(--fg-color)" x="28.96" y="78.819316" transform="rotate(-0 28.96 78.819316)">150</text>
     </g>
    </g>
    <g id="ytick_3">
     <g id="line2d_11">
      <path d="M 35.96 61.146199 
L 211 61.146199 
" clip-path="url(#p137bf2d87a)" style="fill: none; stroke-dasharray: 2.96,1.28; stroke-dashoffset: 0; stroke: var(--grid-color); stroke-width: 0.8"/>
     </g>
     <g id="line2d_12">
      <g>
       <use xlink:href="#mbe134faf18" x="35.96" y="61.146199" style="fill: var(--fg-color); stroke: var(--fg-color); stroke-width: 0.8"/>
      </g>
     </g>
     <g id="text_6">
      <text style="font-size: 7px; font-family: 'DejaVu Sans', 'Bitstream Vera Sans', 'Computer Modern Sans Serif', 'Lucida Grande', 'Verdana', 'Geneva', 'Lucid', 'Arial', 'Helvetica', 'Avant Garde', sans-serif; text-anchor: end; fill: var(--fg-color)" x="28.96" y="63.805378" transform="rotate(-0 28.96 63.805378)">160</text>
     </g>
    </g>
    <g id="ytick_4">
     <g id="line2d_13">
      <path d="M 35.96 46.13226 
L 211 46.13226 
" clip-path="url(#p137bf2d87a)" style="fill: none; stroke-dasharray: 2.96,1.28; stroke-dashoffset: 0; stroke: var(--grid-color); stroke-width: 0.8"/>
     </g>
     <g id="line2d_14">
      <g>
       <use xlink:href="#mbe134faf18" x="35.96" y="46.13226" style="fill: var(--fg-color); stroke: var(--fg-color); stroke-width: 0.8"/>
      </g>
     </g>
     <g id="text_7">
      <text style="font-size: 7px; font-family: 'DejaVu Sans', 'Bitstream Vera Sans', 'Computer Modern Sans Serif', 'Lucida Grande', 'Verdana', 'Geneva', 'Lucid', 'Arial', 'Helvetica', 'Avant Garde', sans-serif; text-anchor: end; fill: var(--fg-color)" x="28.96" y="48.79144" transform="rotate(-0 28.96 48.79144)">170</text>
     </g>
    </g>
    <g id="ytick_5">
     <g id="line2d_15">
      <path d="M 35.96 31.118322 
L 211 31.118322 
" clip-path="url(#p137bf2d87a)" style="fill: none; stroke-dasharray: 2.96,1.28; stroke-dashoffset: 0; stroke: var(--grid-color); stroke-width: 0.8"/>
     </g>
     <g id="line2d_16">
      <g>
       <use xlink:href="#mbe134faf18" x="35.96" y="31.118322" style="fill: var(--fg-color); stroke: var(--fg-color); stroke-width: 0.8"/>
      </g>
     </g>
     <g id="text_8">
      <text style="font-size: 7px; font-family: 'DejaVu Sans', 'Bitstream Vera Sans', 'Computer Modern Sans Serif', 'Lucida Grande', 'Verdana', 'Geneva', 'Lucid', 'Arial', 'Helvetica', 'Avant Garde', sans-serif; text-anchor: end; fill: var(--fg-color)" x="28.96" y="33.777502" transform="rotate(-0 28.96 33.777502)">180</text>
     </g>
    </g>
    <g id="ytick_6">
     <g id="line2d_17">
      <path d="M 35.96 16.104384 
L 211 16.104384 
" clip-path="url(#p137bf2d87a)" style="fill: none; stroke-dasharray: 2.96,1.28; stroke-dashoffset: 0; stroke: var(--grid-color); stroke-width: 0.8"/>
     </g>
     <g id="line2d_18">
      <g>
       <use xlink:href="#mbe134faf18" x="35.96" y="16.104384" style="fill: var(--fg-color); stroke: var(--fg-color); stroke-width: 0.8"/>
      </g>
     </g>
     <g id="text_9">
      <text style="font-size: 7px; font-family: 'DejaVu Sans', 'Bitstream Vera Sans', 'Computer Modern Sans Serif', 'Lucida Grande', 'Verdana', 'Geneva', 'Lucid', 'Arial', 'Helvetica', 'Avant Garde', sans-serif; text-anchor: end; fill: var(--fg-color)" x="28.96" y="18.763563" transform="rotate(-0 28.96 18.763563)">190</text>
     </g>
    </g>
    <g id="text_10">
     <text style="font-size: 7px; font-family: 'DejaVu Sans', 'Bitstream Vera Sans', 'Computer Modern Sans Serif', 'Lucida Grande', 'Verdana', 'Geneva', 'Lucid', 'Arial', 'Helvetica', 'Avant Garde', sans-serif; text-anchor: middle; fill: var(--fg-color)" x="9.917109" y="54.2" transform="rotate(-90 9.917109 54.2)">ms</text>
    </g>
   </g>
   <g id="line2d_19">
    <path d="M 43.916364 76.837265 
L 44.468628 75.922917 
L 45.3595 78.044386 
L 46.250371 71.630432 
L 47.141245 80.722873 
L 48.032112 76.395856 
L 48.922979 68.92492 
L 49.81384 67.372479 
L 50.704717 78.245573 
L 51.595589 60.88946 
L 52.486458 69.719157 
L 53.377327 71.761053 
L 54.268192 73.378054 
L 55.159063 71.192025 
L 56.049934 64.887672 
L 56.940797 66.147341 
L 57.831669 75.445473 
L 58.722538 67.084211 
L 59.613407 74.513108 
L 60.504275 76.006995 
L 61.395144 66.708863 
L 62.286016 69.381344 
L 63.176879 76.693132 
L 64.067746 86.049818 
L 64.958622 66.169862 
L 65.84949 69.923347 
L 66.740361 71.457771 
L 67.631226 76.699137 
L 68.522078 69.460918 
L 69.412965 86.768986 
L 70.30383 73.082279 
L 71.194705 79.409153 
L 72.085571 69.160639 
L 72.976442 84.200101 
L 73.867306 81.647731 
L 74.758184 75.08664 
L 75.649039 81.179296 
L 76.539914 91.471351 
L 77.430784 86.32157 
L 78.321655 80.182371 
L 79.212509 93.079344 
L 80.103391 46.53013 
L 80.994245 87.241925 
L 81.885129 70.133542 
L 82.775998 76.407867 
L 83.666869 76.25022 
L 84.557735 83.089069 
L 85.44861 82.517038 
L 94.53997 71.077919 
L 95.248438 88.138257 
L 96.139324 93.238492 
L 97.030192 79.356604 
L 97.921065 68.390424 
L 98.811931 74.579169 
L 99.702798 74.798373 
L 100.593666 77.182586 
L 101.484533 73.164856 
L 102.375401 75.320858 
L 103.266272 55.624072 
L 104.157138 78.530838 
L 105.048009 51.223487 
L 105.93888 59.505175 
L 106.829748 77.428815 
L 107.720614 73.555218 
L 108.611487 73.732383 
L 109.502352 79.571304 
L 110.393224 57.626931 
L 111.284094 79.095362 
L 112.17496 67.953518 
L 113.065834 82.962952 
L 113.956695 77.05797 
L 114.847564 56.161571 
L 115.738441 70.915768 
L 116.629309 64.687987 
L 117.520178 63.763128 
L 118.41104 66.78093 
L 119.301913 54.274319 
L 120.192782 69.85128 
L 121.083649 69.442901 
L 121.97452 65.90862 
L 125.537994 60.461563 
L 126.428869 69.3348 
L 127.319734 52.992129 
L 128.210603 55.221698 
L 129.101474 79.40615 
L 129.992342 47.034598 
L 130.883214 56.469357 
L 131.774065 69.297266 
L 132.664946 60.369978 
L 133.55582 63.180587 
L 134.446686 63.43132 
L 135.337558 66.905545 
L 136.228424 55.014506 
L 137.119294 53.070201 
L 138.010159 64.311137 
L 138.901032 67.240356 
L 139.791912 50.363188 
L 140.68277 45.33502 
L 141.57364 57.622427 
L 142.464507 52.363045 
L 143.355376 60.646234 
L 144.246246 65.494235 
L 145.137113 63.730097 
L 146.027984 56.448337 
L 146.918849 60.568162 
L 173.644977 60.568162 
L 181.959197 64.112953 
L 182.553652 57.832622 
L 183.444521 39.075709 
L 184.335387 52.513184 
L 185.226256 45.006215 
L 186.117131 40.635657 
L 187.007996 56.651025 
L 187.898864 69.046533 
L 188.789731 67.468568 
L 189.680603 46.085717 
L 190.571474 9.472727 
L 191.462343 37.724455 
L 192.353215 55.062551 
L 193.244077 64.03488 
L 194.134949 56.693064 
L 195.025817 45.853001 
L 195.916688 52.073276 
L 196.807557 64.736031 
L 197.698426 59.012718 
L 198.589295 64.058903 
L 199.480162 62.191169 
L 200.371032 64.08893 
L 201.261898 77.087998 
L 202.152766 58.5623 
L 203.043636 68.355892 
L 203.043636 68.355892 
" clip-path="url(#p137bf2d87a)" style="fill: none; stroke: #339af0; stroke-width: 1.2; stroke-linecap: square"/>
   </g>
   <g id="line2d_20">
    <path d="M 43.916364 33.101663 
L 44.468628 44.064841 
L 45.3595 49.441332 
L 46.250371 35.466359 
L 47.141245 43.338166 
L 48.032112 40.17473 
L 48.922979 55.838771 
L 49.81384 41.464427 
L 50.704717 41.863798 
L 51.595589 40.386426 
L 52.486458 44.069345 
L 53.377327 51.256517 
L 54.268192 42.459851 
L 55.159063 46.806386 
L 56.049934 42.844208 
L 56.940797 51.495239 
L 57.831669 46.036171 
L 58.722538 53.925996 
L 59.613407 41.899831 
L 60.504275 53.130257 
L 61.395144 44.308067 
L 62.286016 36.63144 
L 63.176879 46.618712 
L 64.067746 53.268385 
L 64.958622 42.467358 
L 65.84949 58.822041 
L 66.740361 55.332802 
L 67.631226 55.607557 
L 68.522078 44.315574 
L 69.412965 79.736457 
L 70.30383 38.361046 
L 71.194705 51.975685 
L 72.085571 40.69271 
L 72.976442 40.008075 
L 73.867306 50.261093 
L 74.758184 46.025661 
L 75.649039 43.437258 
L 76.539914 66.009213 
L 77.430784 47.141197 
L 78.321655 55.777214 
L 79.212509 59.5322 
L 80.103391 40.508039 
L 80.994245 55.70815 
L 81.885129 50.58089 
L 82.775998 51.663395 
L 83.666869 51.424674 
L 84.557735 53.281898 
L 85.44861 61.027588 
L 94.53997 38.909055 
L 95.248438 59.221412 
L 96.139324 72.258014 
L 97.030192 47.325868 
L 97.921065 37.401655 
L 98.811931 41.194176 
L 99.702798 82.716724 
L 100.593666 76.461917 
L 101.484533 78.083422 
L 102.375401 85.907185 
L 103.266272 73.224912 
L 104.157138 98.927273 
L 105.048009 74.172291 
L 105.93888 75.987476 
L 106.829748 82.099651 
L 107.720614 92.222048 
L 108.611487 76.739675 
L 109.502352 93.489224 
L 110.393224 91.390276 
L 111.284094 90.924844 
L 112.17496 79.846059 
L 113.065834 84.578452 
L 113.956695 92.788073 
L 114.847564 82.269308 
L 115.738441 80.686839 
L 116.629309 80.218404 
L 117.520178 81.652235 
L 118.41104 85.630929 
L 119.301913 72.908118 
L 120.192782 77.602976 
L 121.083649 74.271383 
L 121.97452 74.723303 
L 125.537994 66.819966 
L 126.428869 83.974892 
L 127.319734 69.270241 
L 128.210603 71.75805 
L 129.101474 96.262299 
L 129.992342 71.247576 
L 130.883214 76.406365 
L 131.774065 90.884306 
L 132.664946 72.068839 
L 133.55582 81.071196 
L 134.446686 75.07613 
L 135.337558 72.243 
L 136.228424 76.484438 
L 137.119294 72.785003 
L 138.010159 64.979257 
L 138.901032 61.829333 
L 139.791912 64.730026 
L 140.68277 70.040456 
L 141.57364 56.793658 
L 142.464507 70.145553 
L 143.355376 77.307202 
L 144.246246 82.808309 
L 145.137113 80.508173 
L 146.027984 76.278747 
L 146.918849 77.763625 
L 173.644977 77.763625 
L 181.959197 62.98991 
L 182.553652 72.019293 
L 183.444521 67.151774 
L 184.335387 66.728381 
L 185.226256 72.676903 
L 186.117131 62.054542 
L 187.007996 64.428245 
L 187.898864 47.797306 
L 188.789731 35.440835 
L 189.680603 65.190953 
L 190.571474 71.516326 
L 191.462343 65.387636 
L 192.353215 61.39543 
L 193.244077 73.387062 
L 194.134949 57.023371 
L 195.025817 64.710507 
L 195.916688 64.823112 
L 196.807557 70.873729 
L 197.698426 68.42946 
L 198.589295 53.73682 
L 199.480162 66.347027 
L 200.371032 71.110949 
L 201.261898 64.419237 
L 202.152766 65.635366 
L 203.043636 69.189165 
L 203.043636 69.189165 
" clip-path="url(#p137bf2d87a)" style="fill: none; stroke: #ff6b6b; stroke-width: 1.2; stroke-linecap: square"/>
   </g>
   <g id="patch_3">
    <path d="M 35.96 103.4 
L 35.96 5 
" style="fill: none; stroke: var(--fg-color); stroke-width: 0.8; stroke-linejoin: miter; stroke-linecap: square"/>
   </g>
   <g id="patch_4">
    <path d="M 35.96 103.4 
L 211 103.4 
" style="fill: none; stroke: var(--fg-color); stroke-width: 0.8; stroke-linejoin: miter; stroke-linecap: square"/>
   </g>
  </g>
 </g>
 <defs>
  <clipPath id="p137bf2d87a">
   <rect x="35.96" y="5" width="175.04" height="98.4"/>
  </clipPath>
 </defs>
</svg>
