<?xml version="1.0" encoding="utf-8" standalone="no"?>
<!DOCTYPE svg PUBLIC "-//W3C//DTD SVG 1.1//EN"
  "http://www.w3.org/Graphics/SVG/1.1/DTD/svg11.dtd">
<svg xmlns:xlink="http://www.w3.org/1999/xlink" width="216pt" height="122.4pt" viewBox="0 0 216 122.4" xmlns="http://www.w3.org/2000/svg" version="1.1">
  <style>
    :root {
      --fg-color: #212529;
      --grid-color: rgba(33, 37, 41, 0.1);
    }
    @media (prefers-color-scheme: dark) {
      :root {
        --fg-color: #dee2e6;
        --grid-color: rgba(248, 249, 250, 0.15);
      }
    }
  </style>

 <metadata>
  <rdf:RDF xmlns:dc="http://purl.org/dc/elements/1.1/" xmlns:cc="http://creativecommons.org/ns#" xmlns:rdf="http://www.w3.org/1999/02/22-rdf-syntax-ns#">
   <cc:Work>
    <dc:type rdf:resource="http://purl.org/dc/dcmitype/StillImage"/>
    <dc:date>2026-06-30T15:38:00.802720</dc:date>
    <dc:format>image/svg+xml</dc:format>
    <dc:creator>
     <cc:Agent>
      <dc:title>Matplotlib v3.11.0, https://matplotlib.org/</dc:title>
     </cc:Agent>
    </dc:creator>
   </cc:Work>
  </rdf:RDF>
 </metadata>
 <defs>
  <style type="text/css">*{stroke-linejoin: round; stroke-linecap: butt}</style>
 </defs>
 <g id="figure_1">
  <g id="patch_1">
   <path d="M 0 122.4 
L 216 122.4 
L 216 0 
L 0 0 
L 0 122.4 
z
" style="fill: none; opacity: 0"/>
  </g>
  <g id="axes_1">
   <g id="patch_2">
    <path d="M 31.64 103.4 
L 211 103.4 
L 211 5 
L 31.64 5 
L 31.64 103.4 
z
" style="fill: none; opacity: 0"/>
   </g>
   <g id="matplotlib.axis_1">
    <g id="xtick_1">
     <g id="line2d_1">
      <path d="M 66.298815 103.4 
L 66.298815 5 
" clip-path="url(#p1e20fcfd86)" style="fill: none; stroke-dasharray: 2.96,1.28; stroke-dashoffset: 0; stroke: var(--grid-color); stroke-width: 0.8"/>
     </g>
     <g id="line2d_2">
      <defs>
       <path id="m3184c2fe04" d="M 0 0 
L 0 3.5 
" style="stroke: var(--fg-color); stroke-width: 0.8"/>
      </defs>
      <g>
       <use xlink:href="#m3184c2fe04" x="66.298815" y="103.4" style="fill: var(--fg-color); stroke: var(--fg-color); stroke-width: 0.8"/>
      </g>
     </g>
     <g id="text_1">
      <text style="font-size: 7px; font-family: 'DejaVu Sans', 'Bitstream Vera Sans', 'Computer Modern Sans Serif', 'Lucida Grande', 'Verdana', 'Geneva', 'Lucid', 'Arial', 'Helvetica', 'Avant Garde', sans-serif; text-anchor: middle; fill: var(--fg-color)" x="66.298815" y="115.718359" transform="rotate(-0 66.298815 115.718359)">02/2026</text>
     </g>
    </g>
    <g id="xtick_2">
     <g id="line2d_3">
      <path d="M 120.157298 103.4 
L 120.157298 5 
" clip-path="url(#p1e20fcfd86)" style="fill: none; stroke-dasharray: 2.96,1.28; stroke-dashoffset: 0; stroke: var(--grid-color); stroke-width: 0.8"/>
     </g>
     <g id="line2d_4">
      <g>
       <use xlink:href="#m3184c2fe04" x="120.157298" y="103.4" style="fill: var(--fg-color); stroke: var(--fg-color); stroke-width: 0.8"/>
      </g>
     </g>
     <g id="text_2">
      <text style="font-size: 7px; font-family: 'DejaVu Sans', 'Bitstream Vera Sans', 'Computer Modern Sans Serif', 'Lucida Grande', 'Verdana', 'Geneva', 'Lucid', 'Arial', 'Helvetica', 'Avant Garde', sans-serif; text-anchor: middle; fill: var(--fg-color)" x="120.157298" y="115.718359" transform="rotate(-0 120.157298 115.718359)">04/2026</text>
     </g>
    </g>
    <g id="xtick_3">
     <g id="line2d_5">
      <path d="M 175.841492 103.4 
L 175.841492 5 
" clip-path="url(#p1e20fcfd86)" style="fill: none; stroke-dasharray: 2.96,1.28; stroke-dashoffset: 0; stroke: var(--grid-color); stroke-width: 0.8"/>
     </g>
     <g id="line2d_6">
      <g>
       <use xlink:href="#m3184c2fe04" x="175.841492" y="103.4" style="fill: var(--fg-color); stroke: var(--fg-color); stroke-width: 0.8"/>
      </g>
     </g>
     <g id="text_3">
      <text style="font-size: 7px; font-family: 'DejaVu Sans', 'Bitstream Vera Sans', 'Computer Modern Sans Serif', 'Lucida Grande', 'Verdana', 'Geneva', 'Lucid', 'Arial', 'Helvetica', 'Avant Garde', sans-serif; text-anchor: middle; fill: var(--fg-color)" x="175.841492" y="115.718359" transform="rotate(-0 175.841492 115.718359)">06/2026</text>
     </g>
    </g>
   </g>
   <g id="matplotlib.axis_2">
    <g id="ytick_1">
     <g id="line2d_7">
      <path d="M 31.64 100.594959 
L 211 100.594959 
" clip-path="url(#p1e20fcfd86)" style="fill: none; stroke-dasharray: 2.96,1.28; stroke-dashoffset: 0; stroke: var(--grid-color); stroke-width: 0.8"/>
     </g>
     <g id="line2d_8">
      <defs>
       <path id="m74a92486e5" d="M 0 0 
L -3.5 0 
" style="stroke: var(--fg-color); stroke-width: 0.8"/>
      </defs>
      <g>
       <use xlink:href="#m74a92486e5" x="31.64" y="100.594959" style="fill: var(--fg-color); stroke: var(--fg-color); stroke-width: 0.8"/>
      </g>
     </g>
     <g id="text_4">
      <text style="font-size: 7px; font-family: 'DejaVu Sans', 'Bitstream Vera Sans', 'Computer Modern Sans Serif', 'Lucida Grande', 'Verdana', 'Geneva', 'Lucid', 'Arial', 'Helvetica', 'Avant Garde', sans-serif; text-anchor: end; fill: var(--fg-color)" x="24.64" y="103.254139" transform="rotate(-0 24.64 103.254139)">0</text>
     </g>
    </g>
    <g id="ytick_2">
     <g id="line2d_9">
      <path d="M 31.64 86.193519 
L 211 86.193519 
" clip-path="url(#p1e20fcfd86)" style="fill: none; stroke-dasharray: 2.96,1.28; stroke-dashoffset: 0; stroke: var(--grid-color); stroke-width: 0.8"/>
     </g>
     <g id="line2d_10">
      <g>
       <use xlink:href="#m74a92486e5" x="31.64" y="86.193519" style="fill: var(--fg-color); stroke: var(--fg-color); stroke-width: 0.8"/>
      </g>
     </g>
     <g id="text_5">
      <text style="font-size: 7px; font-family: 'DejaVu Sans', 'Bitstream Vera Sans', 'Computer Modern Sans Serif', 'Lucida Grande', 'Verdana', 'Geneva', 'Lucid', 'Arial', 'Helvetica', 'Avant Garde', sans-serif; text-anchor: end; fill: var(--fg-color)" x="24.64" y="88.852699" transform="rotate(-0 24.64 88.852699)">10</text>
     </g>
    </g>
    <g id="ytick_3">
     <g id="line2d_11">
      <path d="M 31.64 71.792079 
L 211 71.792079 
" clip-path="url(#p1e20fcfd86)" style="fill: none; stroke-dasharray: 2.96,1.28; stroke-dashoffset: 0; stroke: var(--grid-color); stroke-width: 0.8"/>
     </g>
     <g id="line2d_12">
      <g>
       <use xlink:href="#m74a92486e5" x="31.64" y="71.792079" style="fill: var(--fg-color); stroke: var(--fg-color); stroke-width: 0.8"/>
      </g>
     </g>
     <g id="text_6">
      <text style="font-size: 7px; font-family: 'DejaVu Sans', 'Bitstream Vera Sans', 'Computer Modern Sans Serif', 'Lucida Grande', 'Verdana', 'Geneva', 'Lucid', 'Arial', 'Helvetica', 'Avant Garde', sans-serif; text-anchor: end; fill: var(--fg-color)" x="24.64" y="74.451259" transform="rotate(-0 24.64 74.451259)">20</text>
     </g>
    </g>
    <g id="ytick_4">
     <g id="line2d_13">
      <path d="M 31.64 57.390639 
L 211 57.390639 
" clip-path="url(#p1e20fcfd86)" style="fill: none; stroke-dasharray: 2.96,1.28; stroke-dashoffset: 0; stroke: var(--grid-color); stroke-width: 0.8"/>
     </g>
     <g id="line2d_14">
      <g>
       <use xlink:href="#m74a92486e5" x="31.64" y="57.390639" style="fill: var(--fg-color); stroke: var(--fg-color); stroke-width: 0.8"/>
      </g>
     </g>
     <g id="text_7">
      <text style="font-size: 7px; font-family: 'DejaVu Sans', 'Bitstream Vera Sans', 'Computer Modern Sans Serif', 'Lucida Grande', 'Verdana', 'Geneva', 'Lucid', 'Arial', 'Helvetica', 'Avant Garde', sans-serif; text-anchor: end; fill: var(--fg-color)" x="24.64" y="60.049819" transform="rotate(-0 24.64 60.049819)">30</text>
     </g>
    </g>
    <g id="ytick_5">
     <g id="line2d_15">
      <path d="M 31.64 42.989199 
L 211 42.989199 
" clip-path="url(#p1e20fcfd86)" style="fill: none; stroke-dasharray: 2.96,1.28; stroke-dashoffset: 0; stroke: var(--grid-color); stroke-width: 0.8"/>
     </g>
     <g id="line2d_16">
      <g>
       <use xlink:href="#m74a92486e5" x="31.64" y="42.989199" style="fill: var(--fg-color); stroke: var(--fg-color); stroke-width: 0.8"/>
      </g>
     </g>
     <g id="text_8">
      <text style="font-size: 7px; font-family: 'DejaVu Sans', 'Bitstream Vera Sans', 'Computer Modern Sans Serif', 'Lucida Grande', 'Verdana', 'Geneva', 'Lucid', 'Arial', 'Helvetica', 'Avant Garde', sans-serif; text-anchor: end; fill: var(--fg-color)" x="24.64" y="45.648379" transform="rotate(-0 24.64 45.648379)">40</text>
     </g>
    </g>
    <g id="ytick_6">
     <g id="line2d_17">
      <path d="M 31.64 28.587759 
L 211 28.587759 
" clip-path="url(#p1e20fcfd86)" style="fill: none; stroke-dasharray: 2.96,1.28; stroke-dashoffset: 0; stroke: var(--grid-color); stroke-width: 0.8"/>
     </g>
     <g id="line2d_18">
      <g>
       <use xlink:href="#m74a92486e5" x="31.64" y="28.587759" style="fill: var(--fg-color); stroke: var(--fg-color); stroke-width: 0.8"/>
      </g>
     </g>
     <g id="text_9">
      <text style="font-size: 7px; font-family: 'DejaVu Sans', 'Bitstream Vera Sans', 'Computer Modern Sans Serif', 'Lucida Grande', 'Verdana', 'Geneva', 'Lucid', 'Arial', 'Helvetica', 'Avant Garde', sans-serif; text-anchor: end; fill: var(--fg-color)" x="24.64" y="31.246938" transform="rotate(-0 24.64 31.246938)">50</text>
     </g>
    </g>
    <g id="ytick_7">
     <g id="line2d_19">
      <path d="M 31.64 14.186319 
L 211 14.186319 
" clip-path="url(#p1e20fcfd86)" style="fill: none; stroke-dasharray: 2.96,1.28; stroke-dashoffset: 0; stroke: var(--grid-color); stroke-width: 0.8"/>
     </g>
     <g id="line2d_20">
      <g>
       <use xlink:href="#m74a92486e5" x="31.64" y="14.186319" style="fill: var(--fg-color); stroke: var(--fg-color); stroke-width: 0.8"/>
      </g>
     </g>
     <g id="text_10">
      <text style="font-size: 7px; font-family: 'DejaVu Sans', 'Bitstream Vera Sans', 'Computer Modern Sans Serif', 'Lucida Grande', 'Verdana', 'Geneva', 'Lucid', 'Arial', 'Helvetica', 'Avant Garde', sans-serif; text-anchor: end; fill: var(--fg-color)" x="24.64" y="16.845498" transform="rotate(-0 24.64 16.845498)">60</text>
     </g>
    </g>
    <g id="text_11">
     <text style="font-size: 7px; font-family: 'DejaVu Sans', 'Bitstream Vera Sans', 'Computer Modern Sans Serif', 'Lucida Grande', 'Verdana', 'Geneva', 'Lucid', 'Arial', 'Helvetica', 'Avant Garde', sans-serif; text-anchor: middle; fill: var(--fg-color)" x="10.050859" y="54.2" transform="rotate(-90 10.050859 54.2)">ms</text>
    </g>
   </g>
   <g id="line2d_21">
    <path d="M 39.792727 31.036004 
L 40.358622 57.60234 
L 41.271481 58.871107 
L 42.184338 56.405581 
L 44.010052 58.081908 
L 44.922906 53.30495 
L 45.835753 54.014941 
L 46.748617 42.410261 
L 47.661476 55.568857 
L 48.574332 60.478308 
L 49.487188 46.248245 
L 50.40004 54.19784 
L 51.312897 58.626283 
L 52.225755 50.911431 
L 53.138604 57.785239 
L 54.051463 58.954635 
L 54.964319 49.929253 
L 55.877175 58.126553 
L 56.79003 51.630063 
L 57.702885 52.270927 
L 59.528593 59.461566 
L 60.441447 60.623762 
L 61.35431 59.592619 
L 62.267165 56.219802 
L 63.180022 54.857426 
L 64.092874 59.028083 
L 65.005713 50.248965 
L 65.918587 38.726373 
L 66.831438 56.466067 
L 67.7443 52.50279 
L 68.657153 55.079208 
L 69.57001 59.60126 
L 70.482861 49.524572 
L 71.395726 50.485149 
L 72.308567 60.959316 
L 73.221429 55.649505 
L 74.134286 56.180918 
L 75.047144 55.580378 
L 75.959984 53.189739 
L 76.872853 44.625203 
L 77.785693 56.490549 
L 78.698564 58.761656 
L 79.61142 54.919352 
L 80.524278 50.332493 
L 81.43713 57.347435 
L 82.349993 53.981818 
L 91.665728 9.472727 
L 92.391681 55.037444 
L 93.304554 52.414941 
L 94.217409 57.835644 
L 95.130269 57.337354 
L 96.043122 45.879568 
L 96.955975 43.719352 
L 97.868829 55.093609 
L 98.781684 49.883168 
L 99.694538 48.232763 
L 100.607396 51.609901 
L 101.520248 48.49919 
L 102.433106 47.266427 
L 103.345963 31.39892 
L 104.258819 47.023042 
L 105.171671 46.645725 
L 106.084531 45.215662 
L 106.997383 38.881908 
L 107.910242 46.288569 
L 108.823098 50.437624 
L 109.735951 41.452565 
L 112.474515 54.075428 
L 113.387379 45.065887 
L 114.300233 43.218182 
L 115.213089 41.860126 
L 116.125938 41.007561 
L 117.038797 37.613141 
L 117.951653 51.866247 
L 118.864507 40.163636 
L 119.777364 49.20342 
L 123.428785 44.838344 
L 124.341647 50.218722 
L 125.254499 43.758236 
L 126.167355 23.430603 
L 127.080212 48.419982 
L 127.993067 33.737714 
L 128.905926 54.792619 
L 129.818763 40.026823 
L 130.731631 40.473267 
L 132.557344 47.40324 
L 133.470203 41.582178 
L 134.383056 43.779838 
L 135.295912 41.70171 
L 136.208765 50.463546 
L 137.121624 37.340954 
L 138.034491 46.389379 
L 138.947335 46.926553 
L 139.860192 34.089109 
L 140.773046 39.99514 
L 142.598758 45.140774 
L 143.511612 54.230963 
L 144.42447 13.175338 
L 145.337321 34.49955 
L 172.723053 34.49955 
L 181.242468 38.480108 
L 181.851594 45.640504 
L 182.764449 29.257426 
L 183.677303 43.559496 
L 184.590158 35.10441 
L 185.503019 43.19658 
L 186.415872 42.711251 
L 187.328726 39.891449 
L 188.24158 44.587759 
L 189.154439 39.519892 
L 190.980152 36.472547 
L 191.893011 38.894869 
L 192.80586 42.653645 
L 193.718718 42.253285 
L 194.631573 40.432943 
L 195.544431 41.225023 
L 196.457286 46.235284 
L 197.370142 44.530153 
L 198.282997 40.281728 
L 199.195852 39.607741 
L 200.108708 47.542934 
L 201.021561 43.445725 
L 201.934415 27.331953 
L 202.847273 32.880828 
L 202.847273 32.880828 
" clip-path="url(#p1e20fcfd86)" style="fill: none; stroke: #339af0; stroke-width: 1.2; stroke-linecap: square"/>
   </g>
   <g id="line2d_22">
    <path d="M 39.792727 98.237444 
L 40.358622 98.742934 
L 42.184338 98.692529 
L 43.097199 98.551395 
L 44.010052 98.819262 
L 44.922906 98.712691 
L 45.835753 98.727093 
L 46.748617 98.572997 
L 49.487188 98.626283 
L 50.40004 98.567237 
L 51.312897 98.827903 
L 52.225755 98.524032 
L 53.138604 98.722772 
L 54.051463 98.609001 
L 55.877175 98.754455 
L 56.79003 98.093429 
L 57.702885 98.662286 
L 58.615744 98.637804 
L 59.528593 98.770297 
L 61.35431 98.753015 
L 62.267165 98.420342 
L 63.180022 98.49955 
L 64.092874 98.846625 
L 65.005713 97.550495 
L 65.918587 98.477948 
L 66.831438 98.464986 
L 67.7443 98.60468 
L 68.657153 98.512511 
L 69.57001 98.774617 
L 70.482861 98.359856 
L 71.395726 98.718452 
L 77.785693 98.721332 
L 79.61142 98.80198 
L 80.524278 98.581638 
L 82.349993 98.571557 
L 91.665728 98.765977 
L 92.391681 98.927273 
L 95.130269 98.676688 
L 97.868829 98.911431 
L 98.781684 98.891269 
L 99.694538 98.633483 
L 100.607396 98.846625 
L 101.520248 98.653645 
L 102.433106 98.839424 
L 103.345963 98.256166 
L 104.258819 98.712691 
L 105.171671 98.852385 
L 106.084531 97.386319 
L 106.997383 98.344014 
L 107.910242 98.69829 
L 108.823098 98.868227 
L 109.735951 98.50243 
L 110.648812 97.917732 
L 111.561659 98.850945 
L 112.474515 98.869667 
L 113.387379 97.652745 
L 114.300233 98.750135 
L 116.125938 98.019982 
L 117.038797 98.014221 
L 117.951653 98.740054 
L 119.777364 98.531233 
L 124.341647 98.669487 
L 125.254499 97.553375 
L 126.167355 98.29649 
L 127.080212 98.155356 
L 129.818763 98.79622 
L 130.731631 98.519712 
L 131.644492 98.475068 
L 132.557344 98.590279 
L 133.470203 97.886049 
L 135.295912 98.616202 
L 136.208765 98.705491 
L 137.121624 98.4045 
L 138.034491 98.336814 
L 138.947335 98.017102 
L 139.860192 98.632043 
L 140.773046 98.691089 
L 142.598758 98.585959 
L 143.511612 98.660846 
L 144.42447 98.554275 
L 145.337321 98.329613 
L 172.723053 98.329613 
L 181.242468 98.449145 
L 181.851594 98.659406 
L 182.764449 98.50243 
L 184.590158 98.505311 
L 185.503019 98.378578 
L 186.415872 98.584518 
L 187.328726 98.342574 
L 188.24158 98.410261 
L 189.154439 98.10351 
L 190.980152 98.506751 
L 191.893011 98.09919 
L 192.80586 98.410261 
L 193.718718 98.578758 
L 195.544431 97.962376 
L 196.457286 98.549955 
L 197.370142 98.587399 
L 198.282997 98.223042 
L 199.195852 98.59748 
L 200.108708 98.593159 
L 201.021561 98.706931 
L 201.934415 98.482268 
L 202.847273 98.678128 
L 202.847273 98.678128 
" clip-path="url(#p1e20fcfd86)" style="fill: none; stroke: #ff6b6b; stroke-width: 1.2; stroke-linecap: square"/>
   </g>
   <g id="patch_3">
    <path d="M 31.64 103.4 
L 31.64 5 
" style="fill: none; stroke: var(--fg-color); stroke-width: 0.8; stroke-linejoin: miter; stroke-linecap: square"/>
   </g>
   <g id="patch_4">
    <path d="M 31.64 103.4 
L 211 103.4 
" style="fill: none; stroke: var(--fg-color); stroke-width: 0.8; stroke-linejoin: miter; stroke-linecap: square"/>
   </g>
  </g>
 </g>
 <defs>
  <clipPath id="p1e20fcfd86">
   <rect x="31.64" y="5" width="179.36" height="98.4"/>
  </clipPath>
 </defs>
</svg>
