<?xml version="1.0" encoding="utf-8" standalone="no"?>
<!DOCTYPE svg PUBLIC "-//W3C//DTD SVG 1.1//EN"
  "http://www.w3.org/Graphics/SVG/1.1/DTD/svg11.dtd">
<svg xmlns:xlink="http://www.w3.org/1999/xlink" width="216pt" height="122.4pt" viewBox="0 0 216 122.4" xmlns="http://www.w3.org/2000/svg" version="1.1">
  <style>
    :root {
      --fg-color: #212529;
      --grid-color: rgba(33, 37, 41, 0.1);
    }
    @media (prefers-color-scheme: dark) {
      :root {
        --fg-color: #dee2e6;
        --grid-color: rgba(248, 249, 250, 0.15);
      }
    }
  </style>

 <metadata>
  <rdf:RDF xmlns:dc="http://purl.org/dc/elements/1.1/" xmlns:cc="http://creativecommons.org/ns#" xmlns:rdf="http://www.w3.org/1999/02/22-rdf-syntax-ns#">
   <cc:Work>
    <dc:type rdf:resource="http://purl.org/dc/dcmitype/StillImage"/>
    <dc:date>2026-06-30T15:36:49.690305</dc:date>
    <dc:format>image/svg+xml</dc:format>
    <dc:creator>
     <cc:Agent>
      <dc:title>Matplotlib v3.11.0, https://matplotlib.org/</dc:title>
     </cc:Agent>
    </dc:creator>
   </cc:Work>
  </rdf:RDF>
 </metadata>
 <defs>
  <style type="text/css">*{stroke-linejoin: round; stroke-linecap: butt}</style>
 </defs>
 <g id="figure_1">
  <g id="patch_1">
   <path d="M 0 122.4 
L 216 122.4 
L 216 0 
L 0 0 
L 0 122.4 
z
" style="fill: none; opacity: 0"/>
  </g>
  <g id="axes_1">
   <g id="patch_2">
    <path d="M 40.28 103.4 
L 211 103.4 
L 211 5.449517 
L 40.28 5.449517 
L 40.28 103.4 
z
" style="fill: none; opacity: 0"/>
   </g>
   <g id="matplotlib.axis_1">
    <g id="xtick_1">
     <g id="line2d_1">
      <path d="M 82.045111 103.4 
L 82.045111 5.449517 
" clip-path="url(#p8433240383)" style="fill: none; stroke-dasharray: 2.96,1.28; stroke-dashoffset: 0; stroke: var(--grid-color); stroke-width: 0.8"/>
     </g>
     <g id="line2d_2">
      <defs>
       <path id="m82420fa68f" d="M 0 0 
L 0 3.5 
" style="stroke: var(--fg-color); stroke-width: 0.8"/>
      </defs>
      <g>
       <use xlink:href="#m82420fa68f" x="82.045111" y="103.4" style="fill: var(--fg-color); stroke: var(--fg-color); stroke-width: 0.8"/>
      </g>
     </g>
     <g id="text_1">
      <text style="font-size: 7px; font-family: 'DejaVu Sans', 'Bitstream Vera Sans', 'Computer Modern Sans Serif', 'Lucida Grande', 'Verdana', 'Geneva', 'Lucid', 'Arial', 'Helvetica', 'Avant Garde', sans-serif; text-anchor: middle; fill: var(--fg-color)" x="82.045111" y="115.718359" transform="rotate(-0 82.045111 115.718359)">04/2026</text>
     </g>
    </g>
    <g id="xtick_2">
     <g id="line2d_3">
      <path d="M 163.658871 103.4 
L 163.658871 5.449517 
" clip-path="url(#p8433240383)" style="fill: none; stroke-dasharray: 2.96,1.28; stroke-dashoffset: 0; stroke: var(--grid-color); stroke-width: 0.8"/>
     </g>
     <g id="line2d_4">
      <g>
       <use xlink:href="#m82420fa68f" x="163.658871" y="103.4" style="fill: var(--fg-color); stroke: var(--fg-color); stroke-width: 0.8"/>
      </g>
     </g>
     <g id="text_2">
      <text style="font-size: 7px; font-family: 'DejaVu Sans', 'Bitstream Vera Sans', 'Computer Modern Sans Serif', 'Lucida Grande', 'Verdana', 'Geneva', 'Lucid', 'Arial', 'Helvetica', 'Avant Garde', sans-serif; text-anchor: middle; fill: var(--fg-color)" x="163.658871" y="115.718359" transform="rotate(-0 163.658871 115.718359)">06/2026</text>
     </g>
    </g>
   </g>
   <g id="matplotlib.axis_2">
    <g id="ytick_1">
     <g id="line2d_5">
      <path d="M 40.28 100.855163 
L 211 100.855163 
" clip-path="url(#p8433240383)" style="fill: none; stroke-dasharray: 2.96,1.28; stroke-dashoffset: 0; stroke: var(--grid-color); stroke-width: 0.8"/>
     </g>
     <g id="line2d_6">
      <defs>
       <path id="m78838b51b3" d="M 0 0 
L -3.5 0 
" style="stroke: var(--fg-color); stroke-width: 0.8"/>
      </defs>
      <g>
       <use xlink:href="#m78838b51b3" x="40.28" y="100.855163" style="fill: var(--fg-color); stroke: var(--fg-color); stroke-width: 0.8"/>
      </g>
     </g>
     <g id="text_3">
      <text style="font-size: 7px; font-family: 'DejaVu Sans', 'Bitstream Vera Sans', 'Computer Modern Sans Serif', 'Lucida Grande', 'Verdana', 'Geneva', 'Lucid', 'Arial', 'Helvetica', 'Avant Garde', sans-serif; text-anchor: end; fill: var(--fg-color)" x="33.28" y="103.514343" transform="rotate(-0 33.28 103.514343)">200</text>
     </g>
    </g>
    <g id="ytick_2">
     <g id="line2d_7">
      <path d="M 40.28 77.577869 
L 211 77.577869 
" clip-path="url(#p8433240383)" style="fill: none; stroke-dasharray: 2.96,1.28; stroke-dashoffset: 0; stroke: var(--grid-color); stroke-width: 0.8"/>
     </g>
     <g id="line2d_8">
      <g>
       <use xlink:href="#m78838b51b3" x="40.28" y="77.577869" style="fill: var(--fg-color); stroke: var(--fg-color); stroke-width: 0.8"/>
      </g>
     </g>
     <g id="text_4">
      <text style="font-size: 7px; font-family: 'DejaVu Sans', 'Bitstream Vera Sans', 'Computer Modern Sans Serif', 'Lucida Grande', 'Verdana', 'Geneva', 'Lucid', 'Arial', 'Helvetica', 'Avant Garde', sans-serif; text-anchor: end; fill: var(--fg-color)" x="33.28" y="80.237048" transform="rotate(-0 33.28 80.237048)">400</text>
     </g>
    </g>
    <g id="ytick_3">
     <g id="line2d_9">
      <path d="M 40.28 54.300574 
L 211 54.300574 
" clip-path="url(#p8433240383)" style="fill: none; stroke-dasharray: 2.96,1.28; stroke-dashoffset: 0; stroke: var(--grid-color); stroke-width: 0.8"/>
     </g>
     <g id="line2d_10">
      <g>
       <use xlink:href="#m78838b51b3" x="40.28" y="54.300574" style="fill: var(--fg-color); stroke: var(--fg-color); stroke-width: 0.8"/>
      </g>
     </g>
     <g id="text_5">
      <text style="font-size: 7px; font-family: 'DejaVu Sans', 'Bitstream Vera Sans', 'Computer Modern Sans Serif', 'Lucida Grande', 'Verdana', 'Geneva', 'Lucid', 'Arial', 'Helvetica', 'Avant Garde', sans-serif; text-anchor: end; fill: var(--fg-color)" x="33.28" y="56.959754" transform="rotate(-0 33.28 56.959754)">600</text>
     </g>
    </g>
    <g id="ytick_4">
     <g id="line2d_11">
      <path d="M 40.28 31.02328 
L 211 31.02328 
" clip-path="url(#p8433240383)" style="fill: none; stroke-dasharray: 2.96,1.28; stroke-dashoffset: 0; stroke: var(--grid-color); stroke-width: 0.8"/>
     </g>
     <g id="line2d_12">
      <g>
       <use xlink:href="#m78838b51b3" x="40.28" y="31.02328" style="fill: var(--fg-color); stroke: var(--fg-color); stroke-width: 0.8"/>
      </g>
     </g>
     <g id="text_6">
      <text style="font-size: 7px; font-family: 'DejaVu Sans', 'Bitstream Vera Sans', 'Computer Modern Sans Serif', 'Lucida Grande', 'Verdana', 'Geneva', 'Lucid', 'Arial', 'Helvetica', 'Avant Garde', sans-serif; text-anchor: end; fill: var(--fg-color)" x="33.28" y="33.682459" transform="rotate(-0 33.28 33.682459)">800</text>
     </g>
    </g>
    <g id="ytick_5">
     <g id="line2d_13">
      <path d="M 40.28 7.745985 
L 211 7.745985 
" clip-path="url(#p8433240383)" style="fill: none; stroke-dasharray: 2.96,1.28; stroke-dashoffset: 0; stroke: var(--grid-color); stroke-width: 0.8"/>
     </g>
     <g id="line2d_14">
      <g>
       <use xlink:href="#m78838b51b3" x="40.28" y="7.745985" style="fill: var(--fg-color); stroke: var(--fg-color); stroke-width: 0.8"/>
      </g>
     </g>
     <g id="text_7">
      <text style="font-size: 7px; font-family: 'DejaVu Sans', 'Bitstream Vera Sans', 'Computer Modern Sans Serif', 'Lucida Grande', 'Verdana', 'Geneva', 'Lucid', 'Arial', 'Helvetica', 'Avant Garde', sans-serif; text-anchor: end; fill: var(--fg-color)" x="33.28" y="10.405165" transform="rotate(-0 33.28 10.405165)">1000</text>
     </g>
    </g>
    <g id="text_8">
     <text style="font-size: 7px; font-family: 'DejaVu Sans', 'Bitstream Vera Sans', 'Computer Modern Sans Serif', 'Lucida Grande', 'Verdana', 'Geneva', 'Lucid', 'Arial', 'Helvetica', 'Avant Garde', sans-serif; text-anchor: middle; fill: var(--fg-color)" x="9.783359" y="54.424759" transform="rotate(-90 9.783359 54.424759)">ms</text>
    </g>
   </g>
   <g id="line2d_15">
    <path d="M 48.04 69.517756 
L 49.377928 82.862862 
L 50.715857 81.737056 
L 52.053786 85.542893 
L 53.39172 85.421851 
L 54.729645 76.795053 
L 56.067579 79.07425 
L 57.405512 83.905801 
L 58.743441 83.744606 
L 60.081367 81.884168 
L 61.419303 80.176313 
L 62.757229 74.507826 
L 64.095164 88.296132 
L 65.433096 85.103767 
L 66.771023 79.201926 
L 68.108961 90.440785 
L 69.446878 90.229195 
L 70.78481 66.869382 
L 72.122752 89.624101 
L 73.460681 94.347763 
L 74.798612 59.84767 
L 76.136532 88.090477 
L 77.474468 95.115564 
L 78.812399 89.933224 
L 80.150327 94.858467 
L 81.48826 95.028973 
L 86.839979 78.130123 
L 88.177919 84.700488 
L 89.515844 83.326546 
L 90.853775 82.849943 
L 92.191707 87.61853 
L 93.529637 95.924101 
L 94.867572 86.068029 
L 96.205475 91.190896 
L 97.543424 96.567951 
L 98.881362 87.089786 
L 100.219288 85.522758 
L 101.557223 94.467408 
L 102.895149 88.628997 
L 104.233081 92.498498 
L 105.571007 89.699985 
L 106.908942 91.098485 
L 108.24689 89.838369 
L 109.584803 69.063384 
L 110.922736 81.798042 
L 112.260663 78.748367 
L 113.598594 89.822308 
L 114.936526 88.524133 
L 116.274453 81.225421 
L 117.612387 83.665347 
L 118.950311 92.590443 
L 159.088318 92.590443 
L 171.574832 97.829813 
L 172.4676 97.234962 
L 173.80553 97.523368 
L 175.143458 97.341223 
L 176.481388 97.440151 
L 177.819326 96.356593 
L 179.157252 95.308068 
L 180.495181 98.66477 
L 181.833109 98.947705 
L 183.171043 95.912346 
L 184.508977 96.838201 
L 185.846908 74.854309 
L 187.184843 82.040359 
L 188.522763 83.069797 
L 189.860698 78.138968 
L 191.198627 80.895116 
L 192.53656 89.106996 
L 193.874491 82.227974 
L 195.212421 74.075218 
L 196.550352 82.759976 
L 197.888281 92.116285 
L 199.226212 88.220481 
L 200.564138 95.675267 
L 201.902067 90.307872 
L 203.24 96.651284 
" clip-path="url(#p8433240383)" style="fill: none; stroke: #339af0; stroke-width: 1.2; stroke-linecap: square"/>
   </g>
   <g id="line2d_16">
    <path d="M 48.04 16.286541 
L 49.377928 16.699247 
L 50.715857 9.901812 
L 52.053786 17.698891 
L 53.39172 19.321667 
L 54.729645 11.242118 
L 56.067579 16.663284 
L 57.405512 20.000084 
L 58.743441 18.947601 
L 60.081367 19.241244 
L 61.419303 12.403772 
L 62.757229 15.027006 
L 64.095164 15.547138 
L 65.433096 14.3167 
L 66.771023 17.415257 
L 68.108961 18.963895 
L 69.446878 19.548039 
L 70.78481 13.058678 
L 72.122752 14.981849 
L 73.460681 21.583871 
L 74.798612 16.736607 
L 76.136532 16.754065 
L 77.474468 21.336783 
L 78.812399 14.108368 
L 80.150327 17.262441 
L 81.48826 18.781401 
L 86.839979 20.594121 
L 88.177919 18.553051 
L 89.515844 15.014204 
L 90.853775 20.629618 
L 92.191707 23.250525 
L 93.529637 21.115183 
L 94.867572 18.421883 
L 96.205475 20.164073 
L 97.543424 19.81212 
L 98.881362 21.075379 
L 100.219288 19.354139 
L 101.557223 16.873827 
L 102.895149 16.87406 
L 104.233081 18.452493 
L 105.571007 16.396061 
L 106.908942 21.118209 
L 108.24689 14.659109 
L 109.584803 19.345992 
L 110.922736 25.895059 
L 112.260663 24.102824 
L 113.598594 25.285659 
L 114.936526 21.901373 
L 116.274453 23.798473 
L 117.612387 18.962499 
L 118.950311 24.608988 
L 159.088318 24.608988 
L 171.574832 28.613032 
L 172.4676 25.435216 
L 173.80553 28.989892 
L 175.143458 27.3457 
L 176.481388 24.04079 
L 177.819326 24.77449 
L 179.157252 24.988408 
L 180.495181 27.955798 
L 181.833109 26.944283 
L 183.171043 26.129578 
L 184.508977 23.941861 
L 185.846908 28.615244 
L 187.184843 25.665312 
L 188.522763 27.214881 
L 189.860698 28.195787 
L 191.198627 26.024364 
L 192.53656 24.586875 
L 193.874491 27.203359 
L 195.212421 24.560921 
L 196.550352 24.456289 
L 197.888281 24.969204 
L 199.226212 22.330258 
L 200.564138 23.537767 
L 201.902067 25.262964 
L 203.24 26.786463 
" clip-path="url(#p8433240383)" style="fill: none; stroke: #ff6b6b; stroke-width: 1.2; stroke-linecap: square"/>
   </g>
   <g id="patch_3">
    <path d="M 40.28 103.4 
L 40.28 5.449517 
" style="fill: none; stroke: var(--fg-color); stroke-width: 0.8; stroke-linejoin: miter; stroke-linecap: square"/>
   </g>
   <g id="patch_4">
    <path d="M 40.28 103.4 
L 211 103.4 
" style="fill: none; stroke: var(--fg-color); stroke-width: 0.8; stroke-linejoin: miter; stroke-linecap: square"/>
   </g>
  </g>
 </g>
 <defs>
  <clipPath id="p8433240383">
   <rect x="40.28" y="5.449517" width="170.72" height="97.950483"/>
  </clipPath>
 </defs>
</svg>
