<?xml version="1.0" encoding="utf-8" standalone="no"?>
<!DOCTYPE svg PUBLIC "-//W3C//DTD SVG 1.1//EN"
  "http://www.w3.org/Graphics/SVG/1.1/DTD/svg11.dtd">
<svg xmlns:xlink="http://www.w3.org/1999/xlink" width="216pt" height="122.4pt" viewBox="0 0 216 122.4" xmlns="http://www.w3.org/2000/svg" version="1.1">
  <style>
    :root {
      --fg-color: #212529;
      --grid-color: rgba(33, 37, 41, 0.1);
    }
    @media (prefers-color-scheme: dark) {
      :root {
        --fg-color: #dee2e6;
        --grid-color: rgba(248, 249, 250, 0.15);
      }
    }
  </style>

 <metadata>
  <rdf:RDF xmlns:dc="http://purl.org/dc/elements/1.1/" xmlns:cc="http://creativecommons.org/ns#" xmlns:rdf="http://www.w3.org/1999/02/22-rdf-syntax-ns#">
   <cc:Work>
    <dc:type rdf:resource="http://purl.org/dc/dcmitype/StillImage"/>
    <dc:date>2026-06-30T04:49:08.466310</dc:date>
    <dc:format>image/svg+xml</dc:format>
    <dc:creator>
     <cc:Agent>
      <dc:title>Matplotlib v3.11.0, https://matplotlib.org/</dc:title>
     </cc:Agent>
    </dc:creator>
   </cc:Work>
  </rdf:RDF>
 </metadata>
 <defs>
  <style type="text/css">*{stroke-linejoin: round; stroke-linecap: butt}</style>
 </defs>
 <g id="figure_1">
  <g id="patch_1">
   <path d="M 0 122.4 
L 216 122.4 
L 216 0 
L 0 0 
L 0 122.4 
z
" style="fill: none; opacity: 0"/>
  </g>
  <g id="axes_1">
   <g id="patch_2">
    <path d="M 35.96 103.4 
L 211 103.4 
L 211 5 
L 35.96 5 
L 35.96 103.4 
z
" style="fill: none; opacity: 0"/>
   </g>
   <g id="matplotlib.axis_1">
    <g id="xtick_1">
     <g id="line2d_1">
      <path d="M 72.056377 103.4 
L 72.056377 5 
" clip-path="url(#p8d5458a5c1)" style="fill: none; stroke-dasharray: 2.96,1.28; stroke-dashoffset: 0; stroke: var(--grid-color); stroke-width: 0.8"/>
     </g>
     <g id="line2d_2">
      <defs>
       <path id="med5fb7007a" d="M 0 0 
L 0 3.5 
" style="stroke: var(--fg-color); stroke-width: 0.8"/>
      </defs>
      <g>
       <use xlink:href="#med5fb7007a" x="72.056377" y="103.4" style="fill: var(--fg-color); stroke: var(--fg-color); stroke-width: 0.8"/>
      </g>
     </g>
     <g id="text_1">
      <text style="font-size: 7px; font-family: 'DejaVu Sans', 'Bitstream Vera Sans', 'Computer Modern Sans Serif', 'Lucida Grande', 'Verdana', 'Geneva', 'Lucid', 'Arial', 'Helvetica', 'Avant Garde', sans-serif; text-anchor: middle; fill: var(--fg-color)" x="72.056377" y="115.718359" transform="rotate(-0 72.056377 115.718359)">02/2026</text>
     </g>
    </g>
    <g id="xtick_2">
     <g id="line2d_3">
      <path d="M 126.640628 103.4 
L 126.640628 5 
" clip-path="url(#p8d5458a5c1)" style="fill: none; stroke-dasharray: 2.96,1.28; stroke-dashoffset: 0; stroke: var(--grid-color); stroke-width: 0.8"/>
     </g>
     <g id="line2d_4">
      <g>
       <use xlink:href="#med5fb7007a" x="126.640628" y="103.4" style="fill: var(--fg-color); stroke: var(--fg-color); stroke-width: 0.8"/>
      </g>
     </g>
     <g id="text_2">
      <text style="font-size: 7px; font-family: 'DejaVu Sans', 'Bitstream Vera Sans', 'Computer Modern Sans Serif', 'Lucida Grande', 'Verdana', 'Geneva', 'Lucid', 'Arial', 'Helvetica', 'Avant Garde', sans-serif; text-anchor: middle; fill: var(--fg-color)" x="126.640628" y="115.718359" transform="rotate(-0 126.640628 115.718359)">04/2026</text>
     </g>
    </g>
    <g id="xtick_3">
     <g id="line2d_5">
      <path d="M 183.075192 103.4 
L 183.075192 5 
" clip-path="url(#p8d5458a5c1)" style="fill: none; stroke-dasharray: 2.96,1.28; stroke-dashoffset: 0; stroke: var(--grid-color); stroke-width: 0.8"/>
     </g>
     <g id="line2d_6">
      <g>
       <use xlink:href="#med5fb7007a" x="183.075192" y="103.4" style="fill: var(--fg-color); stroke: var(--fg-color); stroke-width: 0.8"/>
      </g>
     </g>
     <g id="text_3">
      <text style="font-size: 7px; font-family: 'DejaVu Sans', 'Bitstream Vera Sans', 'Computer Modern Sans Serif', 'Lucida Grande', 'Verdana', 'Geneva', 'Lucid', 'Arial', 'Helvetica', 'Avant Garde', sans-serif; text-anchor: middle; fill: var(--fg-color)" x="183.075192" y="115.718359" transform="rotate(-0 183.075192 115.718359)">06/2026</text>
     </g>
    </g>
   </g>
   <g id="matplotlib.axis_2">
    <g id="ytick_1">
     <g id="line2d_7">
      <path d="M 35.96 100.050544 
L 211 100.050544 
" clip-path="url(#p8d5458a5c1)" style="fill: none; stroke-dasharray: 2.96,1.28; stroke-dashoffset: 0; stroke: var(--grid-color); stroke-width: 0.8"/>
     </g>
     <g id="line2d_8">
      <defs>
       <path id="m9ab2835249" d="M 0 0 
L -3.5 0 
" style="stroke: var(--fg-color); stroke-width: 0.8"/>
      </defs>
      <g>
       <use xlink:href="#m9ab2835249" x="35.96" y="100.050544" style="fill: var(--fg-color); stroke: var(--fg-color); stroke-width: 0.8"/>
      </g>
     </g>
     <g id="text_4">
      <text style="font-size: 7px; font-family: 'DejaVu Sans', 'Bitstream Vera Sans', 'Computer Modern Sans Serif', 'Lucida Grande', 'Verdana', 'Geneva', 'Lucid', 'Arial', 'Helvetica', 'Avant Garde', sans-serif; text-anchor: end; fill: var(--fg-color)" x="28.96" y="102.709724" transform="rotate(-0 28.96 102.709724)">0</text>
     </g>
    </g>
    <g id="ytick_2">
     <g id="line2d_9">
      <path d="M 35.96 85.507927 
L 211 85.507927 
" clip-path="url(#p8d5458a5c1)" style="fill: none; stroke-dasharray: 2.96,1.28; stroke-dashoffset: 0; stroke: var(--grid-color); stroke-width: 0.8"/>
     </g>
     <g id="line2d_10">
      <g>
       <use xlink:href="#m9ab2835249" x="35.96" y="85.507927" style="fill: var(--fg-color); stroke: var(--fg-color); stroke-width: 0.8"/>
      </g>
     </g>
     <g id="text_5">
      <text style="font-size: 7px; font-family: 'DejaVu Sans', 'Bitstream Vera Sans', 'Computer Modern Sans Serif', 'Lucida Grande', 'Verdana', 'Geneva', 'Lucid', 'Arial', 'Helvetica', 'Avant Garde', sans-serif; text-anchor: end; fill: var(--fg-color)" x="28.96" y="88.167107" transform="rotate(-0 28.96 88.167107)">25</text>
     </g>
    </g>
    <g id="ytick_3">
     <g id="line2d_11">
      <path d="M 35.96 70.965311 
L 211 70.965311 
" clip-path="url(#p8d5458a5c1)" style="fill: none; stroke-dasharray: 2.96,1.28; stroke-dashoffset: 0; stroke: var(--grid-color); stroke-width: 0.8"/>
     </g>
     <g id="line2d_12">
      <g>
       <use xlink:href="#m9ab2835249" x="35.96" y="70.965311" style="fill: var(--fg-color); stroke: var(--fg-color); stroke-width: 0.8"/>
      </g>
     </g>
     <g id="text_6">
      <text style="font-size: 7px; font-family: 'DejaVu Sans', 'Bitstream Vera Sans', 'Computer Modern Sans Serif', 'Lucida Grande', 'Verdana', 'Geneva', 'Lucid', 'Arial', 'Helvetica', 'Avant Garde', sans-serif; text-anchor: end; fill: var(--fg-color)" x="28.96" y="73.62449" transform="rotate(-0 28.96 73.62449)">50</text>
     </g>
    </g>
    <g id="ytick_4">
     <g id="line2d_13">
      <path d="M 35.96 56.422694 
L 211 56.422694 
" clip-path="url(#p8d5458a5c1)" style="fill: none; stroke-dasharray: 2.96,1.28; stroke-dashoffset: 0; stroke: var(--grid-color); stroke-width: 0.8"/>
     </g>
     <g id="line2d_14">
      <g>
       <use xlink:href="#m9ab2835249" x="35.96" y="56.422694" style="fill: var(--fg-color); stroke: var(--fg-color); stroke-width: 0.8"/>
      </g>
     </g>
     <g id="text_7">
      <text style="font-size: 7px; font-family: 'DejaVu Sans', 'Bitstream Vera Sans', 'Computer Modern Sans Serif', 'Lucida Grande', 'Verdana', 'Geneva', 'Lucid', 'Arial', 'Helvetica', 'Avant Garde', sans-serif; text-anchor: end; fill: var(--fg-color)" x="28.96" y="59.081873" transform="rotate(-0 28.96 59.081873)">75</text>
     </g>
    </g>
    <g id="ytick_5">
     <g id="line2d_15">
      <path d="M 35.96 41.880077 
L 211 41.880077 
" clip-path="url(#p8d5458a5c1)" style="fill: none; stroke-dasharray: 2.96,1.28; stroke-dashoffset: 0; stroke: var(--grid-color); stroke-width: 0.8"/>
     </g>
     <g id="line2d_16">
      <g>
       <use xlink:href="#m9ab2835249" x="35.96" y="41.880077" style="fill: var(--fg-color); stroke: var(--fg-color); stroke-width: 0.8"/>
      </g>
     </g>
     <g id="text_8">
      <text style="font-size: 7px; font-family: 'DejaVu Sans', 'Bitstream Vera Sans', 'Computer Modern Sans Serif', 'Lucida Grande', 'Verdana', 'Geneva', 'Lucid', 'Arial', 'Helvetica', 'Avant Garde', sans-serif; text-anchor: end; fill: var(--fg-color)" x="28.96" y="44.539256" transform="rotate(-0 28.96 44.539256)">100</text>
     </g>
    </g>
    <g id="ytick_6">
     <g id="line2d_17">
      <path d="M 35.96 27.33746 
L 211 27.33746 
" clip-path="url(#p8d5458a5c1)" style="fill: none; stroke-dasharray: 2.96,1.28; stroke-dashoffset: 0; stroke: var(--grid-color); stroke-width: 0.8"/>
     </g>
     <g id="line2d_18">
      <g>
       <use xlink:href="#m9ab2835249" x="35.96" y="27.33746" style="fill: var(--fg-color); stroke: var(--fg-color); stroke-width: 0.8"/>
      </g>
     </g>
     <g id="text_9">
      <text style="font-size: 7px; font-family: 'DejaVu Sans', 'Bitstream Vera Sans', 'Computer Modern Sans Serif', 'Lucida Grande', 'Verdana', 'Geneva', 'Lucid', 'Arial', 'Helvetica', 'Avant Garde', sans-serif; text-anchor: end; fill: var(--fg-color)" x="28.96" y="29.996639" transform="rotate(-0 28.96 29.996639)">125</text>
     </g>
    </g>
    <g id="ytick_7">
     <g id="line2d_19">
      <path d="M 35.96 12.794843 
L 211 12.794843 
" clip-path="url(#p8d5458a5c1)" style="fill: none; stroke-dasharray: 2.96,1.28; stroke-dashoffset: 0; stroke: var(--grid-color); stroke-width: 0.8"/>
     </g>
     <g id="line2d_20">
      <g>
       <use xlink:href="#m9ab2835249" x="35.96" y="12.794843" style="fill: var(--fg-color); stroke: var(--fg-color); stroke-width: 0.8"/>
      </g>
     </g>
     <g id="text_10">
      <text style="font-size: 7px; font-family: 'DejaVu Sans', 'Bitstream Vera Sans', 'Computer Modern Sans Serif', 'Lucida Grande', 'Verdana', 'Geneva', 'Lucid', 'Arial', 'Helvetica', 'Avant Garde', sans-serif; text-anchor: end; fill: var(--fg-color)" x="28.96" y="15.454022" transform="rotate(-0 28.96 15.454022)">150</text>
     </g>
    </g>
    <g id="text_11">
     <text style="font-size: 7px; font-family: 'DejaVu Sans', 'Bitstream Vera Sans', 'Computer Modern Sans Serif', 'Lucida Grande', 'Verdana', 'Geneva', 'Lucid', 'Arial', 'Helvetica', 'Avant Garde', sans-serif; text-anchor: middle; fill: var(--fg-color)" x="9.917109" y="54.2" transform="rotate(-90 9.917109 54.2)">ms</text>
    </g>
   </g>
   <g id="line2d_21">
    <path d="M 43.916364 36.709885 
L 45.193108 33.751335 
L 45.766628 34.282432 
L 46.691788 33.965403 
L 47.616947 20.210996 
L 48.542109 42.713078 
L 49.467263 23.163729 
L 50.392418 21.932841 
L 51.317566 40.42756 
L 52.242732 31.840436 
L 53.167891 33.247579 
L 54.093049 40.088426 
L 55.018206 39.072188 
L 55.943359 38.457908 
L 56.868517 42.603136 
L 57.793676 39.967432 
L 58.718827 42.764268 
L 59.643987 37.729032 
L 60.569143 39.461349 
L 61.494301 40.870819 
L 62.419457 41.2943 
L 63.344613 42.775902 
L 64.269773 39.783031 
L 65.194924 41.972568 
L 66.120079 44.212712 
L 67.045243 36.65346 
L 67.970398 41.839939 
L 68.895557 43.269769 
L 69.82071 38.872663 
L 70.74585 26.619636 
L 71.671025 35.272493 
L 72.596178 36.52374 
L 73.521341 34.857738 
L 74.446495 25.785472 
L 75.371653 41.967914 
L 76.296805 36.934423 
L 77.221971 37.930302 
L 78.147114 42.303558 
L 79.072277 39.204235 
L 79.997435 41.051147 
L 80.922594 37.729032 
L 81.847735 40.194878 
L 82.772905 11.129422 
L 83.698046 40.098315 
L 84.623219 38.730146 
L 85.548376 32.176661 
L 86.473535 39.121051 
L 87.398688 29.914993 
L 88.323852 36.629028 
L 97.76512 9.472727 
L 98.500856 19.066201 
L 99.426031 13.39807 
L 100.351186 13.413195 
L 101.276348 40.677111 
L 102.201502 47.334721 
L 103.126656 32.207491 
L 104.051812 44.113823 
L 104.976967 40.359501 
L 105.902123 42.111013 
L 106.827282 27.078601 
L 107.752435 43.745604 
L 108.677594 37.583024 
L 109.602753 35.681432 
L 110.527909 41.984202 
L 111.453063 40.559607 
L 112.378223 35.253297 
L 113.303377 30.558358 
L 114.228537 40.813812 
L 115.153695 39.58816 
L 116.078848 38.087362 
L 117.004011 36.943731 
L 117.929158 38.20603 
L 118.854316 38.890696 
L 119.779481 43.322123 
L 120.704637 43.590288 
L 121.629794 43.756656 
L 122.554943 39.390381 
L 123.480104 41.759082 
L 124.405261 41.673571 
L 125.330416 36.886724 
L 126.255574 37.378264 
L 129.9562 40.928408 
L 130.881363 38.273508 
L 131.806516 35.215486 
L 132.731673 40.086681 
L 133.656831 40.218728 
L 134.581987 37.54405 
L 135.507147 34.275451 
L 136.432285 31.013252 
L 137.357455 37.182811 
L 138.282617 34.30221 
L 139.20777 38.993658 
L 140.13293 38.283397 
L 141.058084 38.887206 
L 141.983242 27.151314 
L 142.908395 37.749973 
L 143.833556 33.765878 
L 144.758724 33.775767 
L 145.683869 27.606789 
L 146.609028 37.567318 
L 147.534182 40.460135 
L 148.459339 33.689093 
L 149.384497 39.704501 
L 150.309651 35.982755 
L 151.234811 36.129926 
L 152.159963 35.004909 
L 179.91473 35.004909 
L 188.548948 33.946207 
L 189.166282 37.69762 
L 190.091439 36.508616 
L 191.016594 33.875239 
L 191.94175 37.72147 
L 192.866913 36.683127 
L 193.792066 38.146114 
L 194.717222 35.335899 
L 195.642377 38.042571 
L 196.567536 34.842613 
L 197.492695 43.866016 
L 198.417852 38.976207 
L 199.343013 36.871599 
L 200.268162 34.882751 
L 201.193322 40.673039 
L 202.118478 36.271862 
L 203.043636 38.020466 
" clip-path="url(#p8d5458a5c1)" style="fill: none; stroke: #339af0; stroke-width: 1.2; stroke-linecap: square"/>
   </g>
   <g id="line2d_22">
    <path d="M 43.916364 98.838272 
L 45.193108 98.888299 
L 45.766628 98.766722 
L 46.691788 98.276345 
L 47.616947 98.842344 
L 48.542109 98.847579 
L 49.467263 98.817331 
L 50.392418 98.927273 
L 51.317566 98.882481 
L 52.242732 98.712624 
L 53.167891 98.819657 
L 54.093049 98.852815 
L 55.018206 98.887717 
L 55.943359 98.867357 
L 56.868517 98.898769 
L 57.793676 98.865612 
L 58.718827 98.834782 
L 59.643987 98.887135 
L 60.569143 98.855723 
L 61.494301 98.884227 
L 62.419457 98.895279 
L 63.344613 98.306594 
L 64.269773 98.869684 
L 65.194924 98.893534 
L 66.120079 98.91273 
L 67.045243 98.876083 
L 67.970398 98.850488 
L 68.895557 98.883063 
L 69.82071 98.314738 
L 70.74585 98.85805 
L 71.671025 98.733565 
L 72.596178 98.859795 
L 73.521341 98.751016 
L 74.446495 98.866775 
L 75.371653 98.915639 
L 76.296805 98.792317 
L 77.221971 98.825474 
L 78.147114 98.53404 
L 79.072277 98.817331 
L 79.997435 98.829546 
L 80.922594 98.800461 
L 81.847735 98.820239 
L 82.772905 98.86503 
L 83.698046 98.860958 
L 84.623219 98.75916 
L 85.548376 98.773703 
L 86.473535 98.87841 
L 87.398688 98.806278 
L 88.323852 98.835945 
L 97.76512 98.877246 
L 98.500856 98.867939 
L 99.426031 98.847579 
L 100.351186 98.837109 
L 101.276348 98.853396 
L 102.201502 98.917965 
L 103.126656 98.780683 
L 104.051812 98.870266 
L 104.976967 98.815585 
L 105.902123 98.813259 
L 106.827282 98.774284 
L 107.752435 98.864449 
L 108.677594 98.781847 
L 109.602753 98.756833 
L 110.527909 98.862704 
L 111.453063 98.860958 
L 112.378223 98.824893 
L 113.303377 98.848161 
L 114.228537 98.876083 
L 115.153695 98.833037 
L 116.078848 98.312411 
L 117.004011 98.907495 
L 117.929158 98.7865 
L 118.854316 98.766141 
L 119.779481 98.890625 
L 120.704637 98.874338 
L 121.629794 98.898769 
L 122.554943 98.808605 
L 123.480104 98.696918 
L 124.405261 98.683538 
L 125.330416 98.516589 
L 126.255574 98.148952 
L 129.9562 98.800461 
L 130.881363 98.790572 
L 131.806516 98.750435 
L 132.731673 98.83071 
L 133.656831 98.744617 
L 134.581987 98.807442 
L 135.507147 98.361856 
L 136.432285 98.470635 
L 137.357455 98.701571 
L 138.282617 98.797553 
L 139.20777 98.6498 
L 140.13293 98.749853 
L 141.058084 98.751016 
L 141.983242 98.684702 
L 142.908395 98.674231 
L 143.833556 98.756833 
L 144.758724 98.566616 
L 145.683869 98.422935 
L 146.609028 98.584067 
L 147.534182 97.61611 
L 148.459339 98.75218 
L 149.384497 97.292101 
L 150.309651 97.500933 
L 151.234811 98.441549 
L 152.159963 97.940702 
L 179.91473 97.940702 
L 188.548948 98.638166 
L 189.166282 98.727748 
L 190.091439 98.655617 
L 191.016594 98.869102 
L 191.94175 98.759742 
L 192.866913 98.879573 
L 193.792066 98.813259 
L 194.717222 98.758578 
L 195.642377 98.868521 
L 196.567536 98.816749 
L 197.492695 98.853396 
L 198.417852 98.563707 
L 199.343013 98.885972 
L 200.268162 98.883645 
L 201.193322 98.885972 
L 202.118478 98.795807 
L 203.043636 98.77952 
" clip-path="url(#p8d5458a5c1)" style="fill: none; stroke: #ff6b6b; stroke-width: 1.2; stroke-linecap: square"/>
   </g>
   <g id="patch_3">
    <path d="M 35.96 103.4 
L 35.96 5 
" style="fill: none; stroke: var(--fg-color); stroke-width: 0.8; stroke-linejoin: miter; stroke-linecap: square"/>
   </g>
   <g id="patch_4">
    <path d="M 35.96 103.4 
L 211 103.4 
" style="fill: none; stroke: var(--fg-color); stroke-width: 0.8; stroke-linejoin: miter; stroke-linecap: square"/>
   </g>
  </g>
 </g>
 <defs>
  <clipPath id="p8d5458a5c1">
   <rect x="35.96" y="5" width="175.04" height="98.4"/>
  </clipPath>
 </defs>
</svg>
