<?xml version="1.0" encoding="utf-8" standalone="no"?>
<!DOCTYPE svg PUBLIC "-//W3C//DTD SVG 1.1//EN"
  "http://www.w3.org/Graphics/SVG/1.1/DTD/svg11.dtd">
<svg xmlns:xlink="http://www.w3.org/1999/xlink" width="216pt" height="122.4pt" viewBox="0 0 216 122.4" xmlns="http://www.w3.org/2000/svg" version="1.1">
  <style>
    :root {
      --fg-color: #212529;
      --grid-color: rgba(33, 37, 41, 0.1);
    }
    @media (prefers-color-scheme: dark) {
      :root {
        --fg-color: #dee2e6;
        --grid-color: rgba(248, 249, 250, 0.15);
      }
    }
  </style>

 <metadata>
  <rdf:RDF xmlns:dc="http://purl.org/dc/elements/1.1/" xmlns:cc="http://creativecommons.org/ns#" xmlns:rdf="http://www.w3.org/1999/02/22-rdf-syntax-ns#">
   <cc:Work>
    <dc:type rdf:resource="http://purl.org/dc/dcmitype/StillImage"/>
    <dc:date>2026-06-30T04:49:08.545992</dc:date>
    <dc:format>image/svg+xml</dc:format>
    <dc:creator>
     <cc:Agent>
      <dc:title>Matplotlib v3.11.0, https://matplotlib.org/</dc:title>
     </cc:Agent>
    </dc:creator>
   </cc:Work>
  </rdf:RDF>
 </metadata>
 <defs>
  <style type="text/css">*{stroke-linejoin: round; stroke-linecap: butt}</style>
 </defs>
 <g id="figure_1">
  <g id="patch_1">
   <path d="M 0 122.4 
L 216 122.4 
L 216 0 
L 0 0 
L 0 122.4 
z
" style="fill: none; opacity: 0"/>
  </g>
  <g id="axes_1">
   <g id="patch_2">
    <path d="M 35.96 103.4 
L 211 103.4 
L 211 5 
L 35.96 5 
L 35.96 103.4 
z
" style="fill: none; opacity: 0"/>
   </g>
   <g id="matplotlib.axis_1">
    <g id="xtick_1">
     <g id="line2d_1">
      <path d="M 72.056377 103.4 
L 72.056377 5 
" clip-path="url(#pedaa046e9e)" style="fill: none; stroke-dasharray: 2.96,1.28; stroke-dashoffset: 0; stroke: var(--grid-color); stroke-width: 0.8"/>
     </g>
     <g id="line2d_2">
      <defs>
       <path id="md26de91ac6" d="M 0 0 
L 0 3.5 
" style="stroke: var(--fg-color); stroke-width: 0.8"/>
      </defs>
      <g>
       <use xlink:href="#md26de91ac6" x="72.056377" y="103.4" style="fill: var(--fg-color); stroke: var(--fg-color); stroke-width: 0.8"/>
      </g>
     </g>
     <g id="text_1">
      <text style="font-size: 7px; font-family: 'DejaVu Sans', 'Bitstream Vera Sans', 'Computer Modern Sans Serif', 'Lucida Grande', 'Verdana', 'Geneva', 'Lucid', 'Arial', 'Helvetica', 'Avant Garde', sans-serif; text-anchor: middle; fill: var(--fg-color)" x="72.056377" y="115.718359" transform="rotate(-0 72.056377 115.718359)">02/2026</text>
     </g>
    </g>
    <g id="xtick_2">
     <g id="line2d_3">
      <path d="M 126.640628 103.4 
L 126.640628 5 
" clip-path="url(#pedaa046e9e)" style="fill: none; stroke-dasharray: 2.96,1.28; stroke-dashoffset: 0; stroke: var(--grid-color); stroke-width: 0.8"/>
     </g>
     <g id="line2d_4">
      <g>
       <use xlink:href="#md26de91ac6" x="126.640628" y="103.4" style="fill: var(--fg-color); stroke: var(--fg-color); stroke-width: 0.8"/>
      </g>
     </g>
     <g id="text_2">
      <text style="font-size: 7px; font-family: 'DejaVu Sans', 'Bitstream Vera Sans', 'Computer Modern Sans Serif', 'Lucida Grande', 'Verdana', 'Geneva', 'Lucid', 'Arial', 'Helvetica', 'Avant Garde', sans-serif; text-anchor: middle; fill: var(--fg-color)" x="126.640628" y="115.718359" transform="rotate(-0 126.640628 115.718359)">04/2026</text>
     </g>
    </g>
    <g id="xtick_3">
     <g id="line2d_5">
      <path d="M 183.075192 103.4 
L 183.075192 5 
" clip-path="url(#pedaa046e9e)" style="fill: none; stroke-dasharray: 2.96,1.28; stroke-dashoffset: 0; stroke: var(--grid-color); stroke-width: 0.8"/>
     </g>
     <g id="line2d_6">
      <g>
       <use xlink:href="#md26de91ac6" x="183.075192" y="103.4" style="fill: var(--fg-color); stroke: var(--fg-color); stroke-width: 0.8"/>
      </g>
     </g>
     <g id="text_3">
      <text style="font-size: 7px; font-family: 'DejaVu Sans', 'Bitstream Vera Sans', 'Computer Modern Sans Serif', 'Lucida Grande', 'Verdana', 'Geneva', 'Lucid', 'Arial', 'Helvetica', 'Avant Garde', sans-serif; text-anchor: middle; fill: var(--fg-color)" x="183.075192" y="115.718359" transform="rotate(-0 183.075192 115.718359)">06/2026</text>
     </g>
    </g>
   </g>
   <g id="matplotlib.axis_2">
    <g id="ytick_1">
     <g id="line2d_7">
      <path d="M 35.96 100.085015 
L 211 100.085015 
" clip-path="url(#pedaa046e9e)" style="fill: none; stroke-dasharray: 2.96,1.28; stroke-dashoffset: 0; stroke: var(--grid-color); stroke-width: 0.8"/>
     </g>
     <g id="line2d_8">
      <defs>
       <path id="m027933122b" d="M 0 0 
L -3.5 0 
" style="stroke: var(--fg-color); stroke-width: 0.8"/>
      </defs>
      <g>
       <use xlink:href="#m027933122b" x="35.96" y="100.085015" style="fill: var(--fg-color); stroke: var(--fg-color); stroke-width: 0.8"/>
      </g>
     </g>
     <g id="text_4">
      <text style="font-size: 7px; font-family: 'DejaVu Sans', 'Bitstream Vera Sans', 'Computer Modern Sans Serif', 'Lucida Grande', 'Verdana', 'Geneva', 'Lucid', 'Arial', 'Helvetica', 'Avant Garde', sans-serif; text-anchor: end; fill: var(--fg-color)" x="28.96" y="102.744194" transform="rotate(-0 28.96 102.744194)">0</text>
     </g>
    </g>
    <g id="ytick_2">
     <g id="line2d_9">
      <path d="M 35.96 84.907484 
L 211 84.907484 
" clip-path="url(#pedaa046e9e)" style="fill: none; stroke-dasharray: 2.96,1.28; stroke-dashoffset: 0; stroke: var(--grid-color); stroke-width: 0.8"/>
     </g>
     <g id="line2d_10">
      <g>
       <use xlink:href="#m027933122b" x="35.96" y="84.907484" style="fill: var(--fg-color); stroke: var(--fg-color); stroke-width: 0.8"/>
      </g>
     </g>
     <g id="text_5">
      <text style="font-size: 7px; font-family: 'DejaVu Sans', 'Bitstream Vera Sans', 'Computer Modern Sans Serif', 'Lucida Grande', 'Verdana', 'Geneva', 'Lucid', 'Arial', 'Helvetica', 'Avant Garde', sans-serif; text-anchor: end; fill: var(--fg-color)" x="28.96" y="87.566664" transform="rotate(-0 28.96 87.566664)">25</text>
     </g>
    </g>
    <g id="ytick_3">
     <g id="line2d_11">
      <path d="M 35.96 69.729953 
L 211 69.729953 
" clip-path="url(#pedaa046e9e)" style="fill: none; stroke-dasharray: 2.96,1.28; stroke-dashoffset: 0; stroke: var(--grid-color); stroke-width: 0.8"/>
     </g>
     <g id="line2d_12">
      <g>
       <use xlink:href="#m027933122b" x="35.96" y="69.729953" style="fill: var(--fg-color); stroke: var(--fg-color); stroke-width: 0.8"/>
      </g>
     </g>
     <g id="text_6">
      <text style="font-size: 7px; font-family: 'DejaVu Sans', 'Bitstream Vera Sans', 'Computer Modern Sans Serif', 'Lucida Grande', 'Verdana', 'Geneva', 'Lucid', 'Arial', 'Helvetica', 'Avant Garde', sans-serif; text-anchor: end; fill: var(--fg-color)" x="28.96" y="72.389133" transform="rotate(-0 28.96 72.389133)">50</text>
     </g>
    </g>
    <g id="ytick_4">
     <g id="line2d_13">
      <path d="M 35.96 54.552422 
L 211 54.552422 
" clip-path="url(#pedaa046e9e)" style="fill: none; stroke-dasharray: 2.96,1.28; stroke-dashoffset: 0; stroke: var(--grid-color); stroke-width: 0.8"/>
     </g>
     <g id="line2d_14">
      <g>
       <use xlink:href="#m027933122b" x="35.96" y="54.552422" style="fill: var(--fg-color); stroke: var(--fg-color); stroke-width: 0.8"/>
      </g>
     </g>
     <g id="text_7">
      <text style="font-size: 7px; font-family: 'DejaVu Sans', 'Bitstream Vera Sans', 'Computer Modern Sans Serif', 'Lucida Grande', 'Verdana', 'Geneva', 'Lucid', 'Arial', 'Helvetica', 'Avant Garde', sans-serif; text-anchor: end; fill: var(--fg-color)" x="28.96" y="57.211602" transform="rotate(-0 28.96 57.211602)">75</text>
     </g>
    </g>
    <g id="ytick_5">
     <g id="line2d_15">
      <path d="M 35.96 39.374891 
L 211 39.374891 
" clip-path="url(#pedaa046e9e)" style="fill: none; stroke-dasharray: 2.96,1.28; stroke-dashoffset: 0; stroke: var(--grid-color); stroke-width: 0.8"/>
     </g>
     <g id="line2d_16">
      <g>
       <use xlink:href="#m027933122b" x="35.96" y="39.374891" style="fill: var(--fg-color); stroke: var(--fg-color); stroke-width: 0.8"/>
      </g>
     </g>
     <g id="text_8">
      <text style="font-size: 7px; font-family: 'DejaVu Sans', 'Bitstream Vera Sans', 'Computer Modern Sans Serif', 'Lucida Grande', 'Verdana', 'Geneva', 'Lucid', 'Arial', 'Helvetica', 'Avant Garde', sans-serif; text-anchor: end; fill: var(--fg-color)" x="28.96" y="42.034071" transform="rotate(-0 28.96 42.034071)">100</text>
     </g>
    </g>
    <g id="ytick_6">
     <g id="line2d_17">
      <path d="M 35.96 24.197361 
L 211 24.197361 
" clip-path="url(#pedaa046e9e)" style="fill: none; stroke-dasharray: 2.96,1.28; stroke-dashoffset: 0; stroke: var(--grid-color); stroke-width: 0.8"/>
     </g>
     <g id="line2d_18">
      <g>
       <use xlink:href="#m027933122b" x="35.96" y="24.197361" style="fill: var(--fg-color); stroke: var(--fg-color); stroke-width: 0.8"/>
      </g>
     </g>
     <g id="text_9">
      <text style="font-size: 7px; font-family: 'DejaVu Sans', 'Bitstream Vera Sans', 'Computer Modern Sans Serif', 'Lucida Grande', 'Verdana', 'Geneva', 'Lucid', 'Arial', 'Helvetica', 'Avant Garde', sans-serif; text-anchor: end; fill: var(--fg-color)" x="28.96" y="26.85654" transform="rotate(-0 28.96 26.85654)">125</text>
     </g>
    </g>
    <g id="ytick_7">
     <g id="line2d_19">
      <path d="M 35.96 9.01983 
L 211 9.01983 
" clip-path="url(#pedaa046e9e)" style="fill: none; stroke-dasharray: 2.96,1.28; stroke-dashoffset: 0; stroke: var(--grid-color); stroke-width: 0.8"/>
     </g>
     <g id="line2d_20">
      <g>
       <use xlink:href="#m027933122b" x="35.96" y="9.01983" style="fill: var(--fg-color); stroke: var(--fg-color); stroke-width: 0.8"/>
      </g>
     </g>
     <g id="text_10">
      <text style="font-size: 7px; font-family: 'DejaVu Sans', 'Bitstream Vera Sans', 'Computer Modern Sans Serif', 'Lucida Grande', 'Verdana', 'Geneva', 'Lucid', 'Arial', 'Helvetica', 'Avant Garde', sans-serif; text-anchor: end; fill: var(--fg-color)" x="28.96" y="11.679009" transform="rotate(-0 28.96 11.679009)">150</text>
     </g>
    </g>
    <g id="text_11">
     <text style="font-size: 7px; font-family: 'DejaVu Sans', 'Bitstream Vera Sans', 'Computer Modern Sans Serif', 'Lucida Grande', 'Verdana', 'Geneva', 'Lucid', 'Arial', 'Helvetica', 'Avant Garde', sans-serif; text-anchor: middle; fill: var(--fg-color)" x="9.917109" y="54.2" transform="rotate(-90 9.917109 54.2)">ms</text>
    </g>
   </g>
   <g id="line2d_21">
    <path d="M 43.916364 29.882257 
L 45.193108 14.07759 
L 45.766628 32.218382 
L 46.691788 23.463982 
L 47.616947 35.110005 
L 48.542109 32.534075 
L 49.467263 21.472083 
L 50.392418 28.288009 
L 51.317566 39.529095 
L 52.242732 15.036203 
L 53.167891 36.907632 
L 54.093049 30.336368 
L 55.018206 30.74859 
L 55.943359 37.880208 
L 56.868517 37.499556 
L 57.793676 36.135399 
L 58.718827 32.240845 
L 59.643987 35.523441 
L 60.569143 35.930806 
L 61.494301 34.894484 
L 62.419457 34.227887 
L 63.344613 37.552981 
L 64.269773 35.701322 
L 65.194924 38.791467 
L 66.120079 37.987665 
L 67.045243 37.855317 
L 67.970398 39.383998 
L 68.895557 36.756464 
L 69.82071 39.853287 
L 70.74585 9.472727 
L 71.671025 19.757022 
L 72.596178 30.022497 
L 73.521341 37.266429 
L 74.446495 40.87261 
L 75.371653 36.196109 
L 76.296805 36.177289 
L 77.221971 36.319958 
L 78.147114 38.87464 
L 79.072277 37.285856 
L 79.997435 37.158972 
L 80.922594 37.034516 
L 81.847735 36.638079 
L 82.772905 12.945346 
L 83.698046 39.889106 
L 84.623219 38.796931 
L 85.548376 29.278191 
L 86.473535 30.182772 
L 87.398688 25.185721 
L 88.323852 34.077933 
L 97.76512 14.997348 
L 98.500856 12.635725 
L 99.426031 17.127667 
L 100.351186 12.339459 
L 101.276348 37.271286 
L 102.201502 33.674211 
L 103.126656 39.152692 
L 104.051812 40.408178 
L 104.976967 35.474873 
L 105.902123 35.878595 
L 106.827282 36.85785 
L 107.752435 32.61664 
L 108.677594 35.657611 
L 109.602753 40.331076 
L 110.527909 38.362854 
L 111.453063 39.249829 
L 112.378223 30.499678 
L 113.303377 34.549044 
L 114.228537 42.151772 
L 115.153695 38.268146 
L 116.078848 37.026017 
L 117.004011 34.107074 
L 117.929158 39.320859 
L 118.854316 35.735927 
L 119.779481 37.972488 
L 120.704637 36.00123 
L 121.629794 34.502904 
L 122.554943 35.223533 
L 123.480104 35.564117 
L 124.405261 33.728243 
L 125.330416 28.490173 
L 126.255574 31.013286 
L 129.9562 33.286273 
L 130.881363 37.483164 
L 131.806516 37.484985 
L 132.731673 36.299924 
L 133.656831 31.537215 
L 134.581987 31.186917 
L 135.507147 38.446027 
L 136.432285 37.228789 
L 137.357455 34.119216 
L 138.282617 32.008325 
L 139.20777 40.399678 
L 140.13293 36.961664 
L 141.058084 36.140256 
L 141.983242 31.145634 
L 142.908395 36.740679 
L 143.833556 35.374094 
L 144.758724 33.257132 
L 145.683869 27.649338 
L 146.609028 27.055593 
L 147.534182 39.210367 
L 148.459339 33.914016 
L 149.384497 31.786126 
L 150.309651 30.919185 
L 151.234811 32.674922 
L 152.159963 33.562504 
L 179.91473 33.562504 
L 188.548948 31.995576 
L 189.166282 35.439661 
L 190.091439 31.101923 
L 191.016594 31.617959 
L 191.94175 34.244279 
L 192.866913 34.598826 
L 193.792066 31.903297 
L 194.717222 33.751313 
L 195.642377 28.508994 
L 196.567536 36.935559 
L 197.492695 36.591939 
L 198.417852 34.067612 
L 199.343013 32.0575 
L 200.268162 37.542053 
L 201.193322 35.105148 
L 202.118478 32.948118 
L 203.043636 31.378761 
" clip-path="url(#pedaa046e9e)" style="fill: none; stroke: #339af0; stroke-width: 1.2; stroke-linecap: square"/>
   </g>
   <g id="line2d_22">
    <path d="M 43.916364 98.841064 
L 45.193108 98.63465 
L 45.766628 98.833779 
L 46.691788 98.790068 
L 47.616947 98.834386 
L 48.542109 98.803424 
L 49.467263 98.834993 
L 50.392418 98.873848 
L 51.317566 98.927273 
L 52.242732 98.800996 
L 53.167891 98.89024 
L 54.093049 98.794925 
L 55.018206 98.768212 
L 55.943359 98.843493 
L 56.868517 98.768819 
L 57.793676 98.833779 
L 58.718827 98.761534 
L 59.643987 98.850171 
L 60.569143 98.834386 
L 61.494301 98.870812 
L 62.419457 98.874455 
L 63.344613 98.796746 
L 64.269773 98.757891 
L 65.194924 98.834993 
L 66.120079 98.758499 
L 67.045243 98.148362 
L 67.970398 98.799174 
L 68.895557 98.836208 
L 69.82071 98.81678 
L 70.74585 98.716001 
L 71.671025 98.794925 
L 72.596178 98.817995 
L 73.521341 98.879312 
L 74.446495 98.876276 
L 75.371653 98.844707 
L 76.296805 98.798567 
L 77.221971 98.824673 
L 78.147114 98.832565 
L 79.072277 98.827708 
L 79.997435 98.811316 
L 80.922594 98.813138 
L 81.847735 98.870812 
L 82.772905 98.872027 
L 83.698046 98.792496 
L 84.623219 98.906631 
L 85.548376 98.802817 
L 86.473535 98.875062 
L 87.398688 98.828315 
L 88.323852 98.807674 
L 97.76512 98.746357 
L 98.500856 98.725715 
L 99.426031 98.804638 
L 100.351186 98.893882 
L 101.276348 98.801603 
L 102.201502 98.795532 
L 103.126656 98.901167 
L 104.051812 98.813138 
L 104.976967 98.836815 
L 105.902123 98.801603 
L 106.827282 98.787639 
L 107.752435 98.856242 
L 108.677594 98.763962 
L 109.602753 98.846528 
L 110.527909 98.791282 
L 111.453063 98.802817 
L 112.378223 98.781568 
L 113.303377 98.688682 
L 114.228537 98.890847 
L 115.153695 98.733 
L 116.078848 98.81678 
L 117.004011 98.762141 
L 117.929158 98.799781 
L 118.854316 98.833779 
L 119.779481 98.824673 
L 120.704637 98.765784 
L 121.629794 98.873848 
L 122.554943 98.757891 
L 123.480104 98.697788 
L 124.405261 98.702645 
L 125.330416 98.638293 
L 126.255574 98.605509 
L 129.9562 98.661362 
L 130.881363 98.734822 
L 131.806516 98.788247 
L 132.731673 98.794318 
L 133.656831 98.667433 
L 134.581987 98.614616 
L 135.507147 98.777926 
L 136.432285 98.819209 
L 137.357455 98.740286 
L 138.282617 98.729965 
L 139.20777 98.67654 
L 140.13293 98.688075 
L 141.058084 98.592153 
L 141.983242 98.656506 
L 142.908395 98.595188 
L 143.833556 98.725108 
L 144.758724 98.781568 
L 145.683869 98.400309 
L 146.609028 98.510801 
L 147.534182 98.262497 
L 148.459339 98.596403 
L 149.384497 98.679575 
L 150.309651 98.399095 
L 151.234811 98.488339 
L 152.159963 98.245498 
L 179.91473 98.245498 
L 188.548948 98.720251 
L 189.166282 98.687468 
L 190.091439 98.813138 
L 191.016594 98.694753 
L 191.94175 98.705074 
L 192.866913 98.859884 
L 193.792066 98.740893 
L 194.717222 98.808888 
L 195.642377 98.579404 
L 196.567536 98.754249 
L 197.492695 98.805852 
L 198.417852 98.76032 
L 199.343013 98.775497 
L 200.268162 98.874455 
L 201.193322 98.842279 
L 202.118478 98.742107 
L 203.043636 98.802817 
" clip-path="url(#pedaa046e9e)" style="fill: none; stroke: #ff6b6b; stroke-width: 1.2; stroke-linecap: square"/>
   </g>
   <g id="patch_3">
    <path d="M 35.96 103.4 
L 35.96 5 
" style="fill: none; stroke: var(--fg-color); stroke-width: 0.8; stroke-linejoin: miter; stroke-linecap: square"/>
   </g>
   <g id="patch_4">
    <path d="M 35.96 103.4 
L 211 103.4 
" style="fill: none; stroke: var(--fg-color); stroke-width: 0.8; stroke-linejoin: miter; stroke-linecap: square"/>
   </g>
  </g>
 </g>
 <defs>
  <clipPath id="pedaa046e9e">
   <rect x="35.96" y="5" width="175.04" height="98.4"/>
  </clipPath>
 </defs>
</svg>
