<?xml version="1.0" encoding="utf-8" standalone="no"?>
<!DOCTYPE svg PUBLIC "-//W3C//DTD SVG 1.1//EN"
  "http://www.w3.org/Graphics/SVG/1.1/DTD/svg11.dtd">
<svg xmlns:xlink="http://www.w3.org/1999/xlink" width="216pt" height="122.4pt" viewBox="0 0 216 122.4" xmlns="http://www.w3.org/2000/svg" version="1.1">
  <style>
    :root {
      --fg-color: #212529;
      --grid-color: rgba(33, 37, 41, 0.1);
    }
    @media (prefers-color-scheme: dark) {
      :root {
        --fg-color: #dee2e6;
        --grid-color: rgba(248, 249, 250, 0.15);
      }
    }
  </style>

 <metadata>
  <rdf:RDF xmlns:dc="http://purl.org/dc/elements/1.1/" xmlns:cc="http://creativecommons.org/ns#" xmlns:rdf="http://www.w3.org/1999/02/22-rdf-syntax-ns#">
   <cc:Work>
    <dc:type rdf:resource="http://purl.org/dc/dcmitype/StillImage"/>
    <dc:date>2026-06-30T04:49:04.105808</dc:date>
    <dc:format>image/svg+xml</dc:format>
    <dc:creator>
     <cc:Agent>
      <dc:title>Matplotlib v3.11.0, https://matplotlib.org/</dc:title>
     </cc:Agent>
    </dc:creator>
   </cc:Work>
  </rdf:RDF>
 </metadata>
 <defs>
  <style type="text/css">*{stroke-linejoin: round; stroke-linecap: butt}</style>
 </defs>
 <g id="figure_1">
  <g id="patch_1">
   <path d="M 0 122.4 
L 216 122.4 
L 216 0 
L 0 0 
L 0 122.4 
z
" style="fill: none; opacity: 0"/>
  </g>
  <g id="axes_1">
   <g id="patch_2">
    <path d="M 35.96 103.4 
L 211 103.4 
L 211 5 
L 35.96 5 
L 35.96 103.4 
z
" style="fill: none; opacity: 0"/>
   </g>
   <g id="matplotlib.axis_1">
    <g id="xtick_1">
     <g id="line2d_1">
      <path d="M 70.996911 103.4 
L 70.996911 5 
" clip-path="url(#pe7a12dedde)" style="fill: none; stroke-dasharray: 2.96,1.28; stroke-dashoffset: 0; stroke: var(--grid-color); stroke-width: 0.8"/>
     </g>
     <g id="line2d_2">
      <defs>
       <path id="mf3c7fd0698" d="M 0 0 
L 0 3.5 
" style="stroke: var(--fg-color); stroke-width: 0.8"/>
      </defs>
      <g>
       <use xlink:href="#mf3c7fd0698" x="70.996911" y="103.4" style="fill: var(--fg-color); stroke: var(--fg-color); stroke-width: 0.8"/>
      </g>
     </g>
     <g id="text_1">
      <text style="font-size: 7px; font-family: 'DejaVu Sans', 'Bitstream Vera Sans', 'Computer Modern Sans Serif', 'Lucida Grande', 'Verdana', 'Geneva', 'Lucid', 'Arial', 'Helvetica', 'Avant Garde', sans-serif; text-anchor: middle; fill: var(--fg-color)" x="70.996911" y="115.718359" transform="rotate(-0 70.996911 115.718359)">02/2026</text>
     </g>
    </g>
    <g id="xtick_2">
     <g id="line2d_3">
      <path d="M 126.022656 103.4 
L 126.022656 5 
" clip-path="url(#pe7a12dedde)" style="fill: none; stroke-dasharray: 2.96,1.28; stroke-dashoffset: 0; stroke: var(--grid-color); stroke-width: 0.8"/>
     </g>
     <g id="line2d_4">
      <g>
       <use xlink:href="#mf3c7fd0698" x="126.022656" y="103.4" style="fill: var(--fg-color); stroke: var(--fg-color); stroke-width: 0.8"/>
      </g>
     </g>
     <g id="text_2">
      <text style="font-size: 7px; font-family: 'DejaVu Sans', 'Bitstream Vera Sans', 'Computer Modern Sans Serif', 'Lucida Grande', 'Verdana', 'Geneva', 'Lucid', 'Arial', 'Helvetica', 'Avant Garde', sans-serif; text-anchor: middle; fill: var(--fg-color)" x="126.022656" y="115.718359" transform="rotate(-0 126.022656 115.718359)">04/2026</text>
     </g>
    </g>
    <g id="xtick_3">
     <g id="line2d_5">
      <path d="M 182.913681 103.4 
L 182.913681 5 
" clip-path="url(#pe7a12dedde)" style="fill: none; stroke-dasharray: 2.96,1.28; stroke-dashoffset: 0; stroke: var(--grid-color); stroke-width: 0.8"/>
     </g>
     <g id="line2d_6">
      <g>
       <use xlink:href="#mf3c7fd0698" x="182.913681" y="103.4" style="fill: var(--fg-color); stroke: var(--fg-color); stroke-width: 0.8"/>
      </g>
     </g>
     <g id="text_3">
      <text style="font-size: 7px; font-family: 'DejaVu Sans', 'Bitstream Vera Sans', 'Computer Modern Sans Serif', 'Lucida Grande', 'Verdana', 'Geneva', 'Lucid', 'Arial', 'Helvetica', 'Avant Garde', sans-serif; text-anchor: middle; fill: var(--fg-color)" x="182.913681" y="115.718359" transform="rotate(-0 182.913681 115.718359)">06/2026</text>
     </g>
    </g>
   </g>
   <g id="matplotlib.axis_2">
    <g id="ytick_1">
     <g id="line2d_7">
      <path d="M 35.96 99.739987 
L 211 99.739987 
" clip-path="url(#pe7a12dedde)" style="fill: none; stroke-dasharray: 2.96,1.28; stroke-dashoffset: 0; stroke: var(--grid-color); stroke-width: 0.8"/>
     </g>
     <g id="line2d_8">
      <defs>
       <path id="m82eaa86353" d="M 0 0 
L -3.5 0 
" style="stroke: var(--fg-color); stroke-width: 0.8"/>
      </defs>
      <g>
       <use xlink:href="#m82eaa86353" x="35.96" y="99.739987" style="fill: var(--fg-color); stroke: var(--fg-color); stroke-width: 0.8"/>
      </g>
     </g>
     <g id="text_4">
      <text style="font-size: 7px; font-family: 'DejaVu Sans', 'Bitstream Vera Sans', 'Computer Modern Sans Serif', 'Lucida Grande', 'Verdana', 'Geneva', 'Lucid', 'Arial', 'Helvetica', 'Avant Garde', sans-serif; text-anchor: end; fill: var(--fg-color)" x="28.96" y="102.399167" transform="rotate(-0 28.96 102.399167)">0</text>
     </g>
    </g>
    <g id="ytick_2">
     <g id="line2d_9">
      <path d="M 35.96 77.546795 
L 211 77.546795 
" clip-path="url(#pe7a12dedde)" style="fill: none; stroke-dasharray: 2.96,1.28; stroke-dashoffset: 0; stroke: var(--grid-color); stroke-width: 0.8"/>
     </g>
     <g id="line2d_10">
      <g>
       <use xlink:href="#m82eaa86353" x="35.96" y="77.546795" style="fill: var(--fg-color); stroke: var(--fg-color); stroke-width: 0.8"/>
      </g>
     </g>
     <g id="text_5">
      <text style="font-size: 7px; font-family: 'DejaVu Sans', 'Bitstream Vera Sans', 'Computer Modern Sans Serif', 'Lucida Grande', 'Verdana', 'Geneva', 'Lucid', 'Arial', 'Helvetica', 'Avant Garde', sans-serif; text-anchor: end; fill: var(--fg-color)" x="28.96" y="80.205974" transform="rotate(-0 28.96 80.205974)">50</text>
     </g>
    </g>
    <g id="ytick_3">
     <g id="line2d_11">
      <path d="M 35.96 55.353602 
L 211 55.353602 
" clip-path="url(#pe7a12dedde)" style="fill: none; stroke-dasharray: 2.96,1.28; stroke-dashoffset: 0; stroke: var(--grid-color); stroke-width: 0.8"/>
     </g>
     <g id="line2d_12">
      <g>
       <use xlink:href="#m82eaa86353" x="35.96" y="55.353602" style="fill: var(--fg-color); stroke: var(--fg-color); stroke-width: 0.8"/>
      </g>
     </g>
     <g id="text_6">
      <text style="font-size: 7px; font-family: 'DejaVu Sans', 'Bitstream Vera Sans', 'Computer Modern Sans Serif', 'Lucida Grande', 'Verdana', 'Geneva', 'Lucid', 'Arial', 'Helvetica', 'Avant Garde', sans-serif; text-anchor: end; fill: var(--fg-color)" x="28.96" y="58.012782" transform="rotate(-0 28.96 58.012782)">100</text>
     </g>
    </g>
    <g id="ytick_4">
     <g id="line2d_13">
      <path d="M 35.96 33.16041 
L 211 33.16041 
" clip-path="url(#pe7a12dedde)" style="fill: none; stroke-dasharray: 2.96,1.28; stroke-dashoffset: 0; stroke: var(--grid-color); stroke-width: 0.8"/>
     </g>
     <g id="line2d_14">
      <g>
       <use xlink:href="#m82eaa86353" x="35.96" y="33.16041" style="fill: var(--fg-color); stroke: var(--fg-color); stroke-width: 0.8"/>
      </g>
     </g>
     <g id="text_7">
      <text style="font-size: 7px; font-family: 'DejaVu Sans', 'Bitstream Vera Sans', 'Computer Modern Sans Serif', 'Lucida Grande', 'Verdana', 'Geneva', 'Lucid', 'Arial', 'Helvetica', 'Avant Garde', sans-serif; text-anchor: end; fill: var(--fg-color)" x="28.96" y="35.819589" transform="rotate(-0 28.96 35.819589)">150</text>
     </g>
    </g>
    <g id="ytick_5">
     <g id="line2d_15">
      <path d="M 35.96 10.967217 
L 211 10.967217 
" clip-path="url(#pe7a12dedde)" style="fill: none; stroke-dasharray: 2.96,1.28; stroke-dashoffset: 0; stroke: var(--grid-color); stroke-width: 0.8"/>
     </g>
     <g id="line2d_16">
      <g>
       <use xlink:href="#m82eaa86353" x="35.96" y="10.967217" style="fill: var(--fg-color); stroke: var(--fg-color); stroke-width: 0.8"/>
      </g>
     </g>
     <g id="text_8">
      <text style="font-size: 7px; font-family: 'DejaVu Sans', 'Bitstream Vera Sans', 'Computer Modern Sans Serif', 'Lucida Grande', 'Verdana', 'Geneva', 'Lucid', 'Arial', 'Helvetica', 'Avant Garde', sans-serif; text-anchor: end; fill: var(--fg-color)" x="28.96" y="13.626397" transform="rotate(-0 28.96 13.626397)">200</text>
     </g>
    </g>
    <g id="text_9">
     <text style="font-size: 7px; font-family: 'DejaVu Sans', 'Bitstream Vera Sans', 'Computer Modern Sans Serif', 'Lucida Grande', 'Verdana', 'Geneva', 'Lucid', 'Arial', 'Helvetica', 'Avant Garde', sans-serif; text-anchor: middle; fill: var(--fg-color)" x="9.917109" y="54.2" transform="rotate(-90 9.917109 54.2)">ms</text>
    </g>
   </g>
   <g id="line2d_17">
    <path d="M 43.916364 47.363609 
L 44.494523 52.970941 
L 45.427166 47.252643 
L 46.359808 44.168233 
L 47.292453 49.036976 
L 48.22509 49.425357 
L 49.157727 49.4258 
L 50.090359 40.36432 
L 51.023007 39.906252 
L 51.95565 52.952743 
L 52.88829 45.262801 
L 53.82093 38.719804 
L 54.753566 44.153586 
L 55.686208 51.442718 
L 56.618849 44.272097 
L 57.551483 47.918439 
L 58.484126 44.19664 
L 59.416765 47.925097 
L 60.349406 46.244184 
L 61.282045 37.828526 
L 62.214684 46.975228 
L 63.147327 47.087526 
L 64.07996 32.263361 
L 65.012598 46.161182 
L 65.945245 51.213684 
L 66.877884 40.163693 
L 67.810526 50.876791 
L 68.743162 39.385156 
L 69.675784 36.156491 
L 70.608443 38.964817 
L 71.541078 34.100069 
L 72.473724 40.153041 
L 73.406361 42.146877 
L 74.339003 36.960328 
L 75.271637 39.953302 
L 76.204286 36.316282 
L 77.136912 17.812485 
L 78.069558 43.490453 
L 79.002199 41.912073 
L 79.934841 9.472727 
L 80.867465 38.210692 
L 81.800118 47.368935 
L 82.732742 46.914419 
L 83.665398 31.782212 
L 84.598038 44.227711 
L 85.53068 37.931058 
L 86.463316 40.44821 
L 87.395962 36.433018 
L 96.913595 37.605262 
L 97.655282 21.563135 
L 98.587939 34.231897 
L 99.520578 35.659807 
L 100.453222 30.573571 
L 101.385859 41.403405 
L 102.318497 40.462858 
L 103.251135 40.396722 
L 104.183773 51.428514 
L 105.116412 45.943688 
L 106.049054 46.720894 
L 106.981691 45.608127 
L 107.914333 45.067057 
L 108.846974 47.787943 
L 109.779613 48.970396 
L 110.71225 45.18335 
L 111.644893 47.724026 
L 112.57753 45.130086 
L 113.510173 42.454031 
L 114.442814 45.458545 
L 115.37545 36.216412 
L 116.308095 45.4763 
L 117.240726 50.840394 
L 118.173367 42.030585 
L 119.106014 47.142121 
L 120.038653 49.380526 
L 120.971293 41.027896 
L 121.903926 46.597056 
L 122.836569 42.331081 
L 123.769209 46.045777 
L 124.701847 47.56823 
L 125.634489 49.909168 
L 129.365046 45.898858 
L 130.297692 46.375568 
L 131.230328 39.453511 
L 132.162968 43.197059 
L 133.095609 43.207268 
L 134.028248 42.245859 
L 134.960891 46.542017 
L 135.893512 45.420373 
L 136.826165 46.752852 
L 137.75881 43.76698 
L 138.691446 38.035366 
L 139.624089 42.330637 
L 140.556726 52.378383 
L 141.489366 43.364396 
L 142.422003 43.346641 
L 143.354646 41.960898 
L 144.287298 35.309598 
L 145.219926 34.057458 
L 146.152567 37.946593 
L 147.085204 41.935154 
L 148.017844 27.776341 
L 148.950485 44.77677 
L 149.883123 36.441007 
L 150.815765 38.753538 
L 151.7484 41.391421 
L 179.727656 41.391421 
L 188.43171 43.315571 
L 189.054038 41.381212 
L 189.986678 37.770379 
L 190.919315 17.555488 
L 191.851955 38.982572 
L 192.7846 34.158659 
L 193.717237 35.58435 
L 194.649875 42.203692 
L 195.582513 38.927089 
L 196.515156 42.005285 
L 197.447798 38.359387 
L 198.380437 41.188131 
L 199.313081 36.813853 
L 200.245713 42.355493 
L 201.178356 36.281216 
L 202.110995 37.535132 
L 203.043636 35.403697 
" clip-path="url(#pe7a12dedde)" style="fill: none; stroke: #339af0; stroke-width: 1.2; stroke-linecap: square"/>
   </g>
   <g id="line2d_18">
    <path d="M 43.916364 98.787012 
L 44.494523 98.860693 
L 45.427166 98.814087 
L 46.359808 98.877116 
L 47.292453 98.83051 
L 48.22509 98.834505 
L 49.157727 98.841163 
L 50.090359 98.838056 
L 51.023007 98.839832 
L 51.95565 98.887769 
L 52.88829 98.826959 
L 53.82093 98.801215 
L 54.753566 98.822965 
L 55.686208 98.8638 
L 56.618849 98.815419 
L 57.551483 98.835393 
L 58.484126 98.843826 
L 59.416765 98.854479 
L 60.349406 98.797664 
L 61.282045 98.817194 
L 62.214684 98.826959 
L 63.147327 98.81897 
L 64.07996 98.794557 
L 65.012598 98.840275 
L 65.945245 98.927273 
L 66.877884 98.821633 
L 67.810526 98.826959 
L 68.743162 98.826516 
L 69.675784 98.873565 
L 70.608443 98.814975 
L 71.541078 98.830067 
L 72.473724 98.85004 
L 73.406361 98.857142 
L 74.339003 98.847821 
L 75.271637 98.793226 
L 76.204286 98.741738 
L 77.136912 98.848709 
L 78.069558 98.870902 
L 79.002199 98.816307 
L 79.934841 98.803879 
L 80.867465 98.811424 
L 81.800118 98.831842 
L 82.732742 98.859805 
L 83.665398 98.819858 
L 84.598038 98.855811 
L 85.53068 98.865576 
L 86.463316 98.846933 
L 87.395962 98.812312 
L 96.913595 98.433252 
L 97.655282 98.854479 
L 98.587939 98.894427 
L 99.520578 98.880223 
L 100.453222 98.863356 
L 101.385859 98.859362 
L 102.318497 98.825628 
L 103.251135 98.843382 
L 104.183773 98.87179 
L 105.116412 98.81897 
L 106.049054 98.865576 
L 106.981691 98.846046 
L 107.914333 98.81897 
L 108.846974 98.828735 
L 109.779613 98.755497 
L 110.71225 98.880223 
L 111.644893 98.867351 
L 112.57753 98.842051 
L 113.510173 98.829623 
L 114.442814 98.812312 
L 115.37545 98.82474 
L 116.308095 98.482521 
L 117.240726 98.851372 
L 118.173367 98.810537 
L 119.106014 98.589048 
L 120.038653 98.83273 
L 120.971293 98.810537 
L 121.903926 98.826516 
L 122.836569 98.660954 
L 123.769209 98.66273 
L 124.701847 98.732416 
L 125.634489 98.806098 
L 129.365046 98.608135 
L 130.297692 98.729309 
L 131.230328 98.636098 
L 132.162968 98.735967 
L 133.095609 98.717325 
L 134.028248 98.755497 
L 134.960891 98.825184 
L 135.893512 98.728866 
L 136.826165 98.751503 
L 137.75881 98.767926 
L 138.691446 98.83051 
L 139.624089 98.732416 
L 140.556726 98.862025 
L 141.489366 98.711111 
L 142.422003 98.644088 
L 143.354646 98.759936 
L 144.287298 98.731529 
L 145.219926 98.692469 
L 146.152567 98.74662 
L 147.085204 98.661842 
L 148.017844 98.666725 
L 148.950485 98.745289 
L 149.883123 98.571738 
L 150.815765 98.692469 
L 151.7484 98.755497 
L 179.727656 98.755497 
L 188.43171 98.767038 
L 189.054038 98.749283 
L 189.986678 98.725759 
L 190.919315 98.751059 
L 191.851955 98.855367 
L 192.7846 98.806098 
L 193.717237 98.77414 
L 194.649875 98.763043 
L 195.582513 98.411503 
L 196.515156 98.855367 
L 197.447798 98.844714 
L 198.380437 98.821189 
L 199.313081 98.857586 
L 200.245713 98.833617 
L 201.178356 98.81897 
L 202.110995 98.787899 
L 203.043636 98.762155 
" clip-path="url(#pe7a12dedde)" style="fill: none; stroke: #ff6b6b; stroke-width: 1.2; stroke-linecap: square"/>
   </g>
   <g id="patch_3">
    <path d="M 35.96 103.4 
L 35.96 5 
" style="fill: none; stroke: var(--fg-color); stroke-width: 0.8; stroke-linejoin: miter; stroke-linecap: square"/>
   </g>
   <g id="patch_4">
    <path d="M 35.96 103.4 
L 211 103.4 
" style="fill: none; stroke: var(--fg-color); stroke-width: 0.8; stroke-linejoin: miter; stroke-linecap: square"/>
   </g>
  </g>
 </g>
 <defs>
  <clipPath id="pe7a12dedde">
   <rect x="35.96" y="5" width="175.04" height="98.4"/>
  </clipPath>
 </defs>
</svg>
