<?xml version="1.0" encoding="utf-8" standalone="no"?>
<!DOCTYPE svg PUBLIC "-//W3C//DTD SVG 1.1//EN"
  "http://www.w3.org/Graphics/SVG/1.1/DTD/svg11.dtd">
<svg xmlns:xlink="http://www.w3.org/1999/xlink" width="216pt" height="122.4pt" viewBox="0 0 216 122.4" xmlns="http://www.w3.org/2000/svg" version="1.1">
  <style>
    :root {
      --fg-color: #212529;
      --grid-color: rgba(33, 37, 41, 0.1);
    }
    @media (prefers-color-scheme: dark) {
      :root {
        --fg-color: #dee2e6;
        --grid-color: rgba(248, 249, 250, 0.15);
      }
    }
  </style>

 <metadata>
  <rdf:RDF xmlns:dc="http://purl.org/dc/elements/1.1/" xmlns:cc="http://creativecommons.org/ns#" xmlns:rdf="http://www.w3.org/1999/02/22-rdf-syntax-ns#">
   <cc:Work>
    <dc:type rdf:resource="http://purl.org/dc/dcmitype/StillImage"/>
    <dc:date>2026-06-30T04:48:46.335196</dc:date>
    <dc:format>image/svg+xml</dc:format>
    <dc:creator>
     <cc:Agent>
      <dc:title>Matplotlib v3.11.0, https://matplotlib.org/</dc:title>
     </cc:Agent>
    </dc:creator>
   </cc:Work>
  </rdf:RDF>
 </metadata>
 <defs>
  <style type="text/css">*{stroke-linejoin: round; stroke-linecap: butt}</style>
 </defs>
 <g id="figure_1">
  <g id="patch_1">
   <path d="M 0 122.4 
L 216 122.4 
L 216 0 
L 0 0 
L 0 122.4 
z
" style="fill: none; opacity: 0"/>
  </g>
  <g id="axes_1">
   <g id="patch_2">
    <path d="M 35.96 103.4 
L 211 103.4 
L 211 5 
L 35.96 5 
L 35.96 103.4 
z
" style="fill: none; opacity: 0"/>
   </g>
   <g id="matplotlib.axis_1">
    <g id="xtick_1">
     <g id="line2d_1">
      <path d="M 72.056377 103.4 
L 72.056377 5 
" clip-path="url(#p85fbfceadd)" style="fill: none; stroke-dasharray: 2.96,1.28; stroke-dashoffset: 0; stroke: var(--grid-color); stroke-width: 0.8"/>
     </g>
     <g id="line2d_2">
      <defs>
       <path id="m005348145f" d="M 0 0 
L 0 3.5 
" style="stroke: var(--fg-color); stroke-width: 0.8"/>
      </defs>
      <g>
       <use xlink:href="#m005348145f" x="72.056377" y="103.4" style="fill: var(--fg-color); stroke: var(--fg-color); stroke-width: 0.8"/>
      </g>
     </g>
     <g id="text_1">
      <text style="font-size: 7px; font-family: 'DejaVu Sans', 'Bitstream Vera Sans', 'Computer Modern Sans Serif', 'Lucida Grande', 'Verdana', 'Geneva', 'Lucid', 'Arial', 'Helvetica', 'Avant Garde', sans-serif; text-anchor: middle; fill: var(--fg-color)" x="72.056377" y="115.718359" transform="rotate(-0 72.056377 115.718359)">02/2026</text>
     </g>
    </g>
    <g id="xtick_2">
     <g id="line2d_3">
      <path d="M 126.640628 103.4 
L 126.640628 5 
" clip-path="url(#p85fbfceadd)" style="fill: none; stroke-dasharray: 2.96,1.28; stroke-dashoffset: 0; stroke: var(--grid-color); stroke-width: 0.8"/>
     </g>
     <g id="line2d_4">
      <g>
       <use xlink:href="#m005348145f" x="126.640628" y="103.4" style="fill: var(--fg-color); stroke: var(--fg-color); stroke-width: 0.8"/>
      </g>
     </g>
     <g id="text_2">
      <text style="font-size: 7px; font-family: 'DejaVu Sans', 'Bitstream Vera Sans', 'Computer Modern Sans Serif', 'Lucida Grande', 'Verdana', 'Geneva', 'Lucid', 'Arial', 'Helvetica', 'Avant Garde', sans-serif; text-anchor: middle; fill: var(--fg-color)" x="126.640628" y="115.718359" transform="rotate(-0 126.640628 115.718359)">04/2026</text>
     </g>
    </g>
    <g id="xtick_3">
     <g id="line2d_5">
      <path d="M 183.075192 103.4 
L 183.075192 5 
" clip-path="url(#p85fbfceadd)" style="fill: none; stroke-dasharray: 2.96,1.28; stroke-dashoffset: 0; stroke: var(--grid-color); stroke-width: 0.8"/>
     </g>
     <g id="line2d_6">
      <g>
       <use xlink:href="#m005348145f" x="183.075192" y="103.4" style="fill: var(--fg-color); stroke: var(--fg-color); stroke-width: 0.8"/>
      </g>
     </g>
     <g id="text_3">
      <text style="font-size: 7px; font-family: 'DejaVu Sans', 'Bitstream Vera Sans', 'Computer Modern Sans Serif', 'Lucida Grande', 'Verdana', 'Geneva', 'Lucid', 'Arial', 'Helvetica', 'Avant Garde', sans-serif; text-anchor: middle; fill: var(--fg-color)" x="183.075192" y="115.718359" transform="rotate(-0 183.075192 115.718359)">06/2026</text>
     </g>
    </g>
   </g>
   <g id="matplotlib.axis_2">
    <g id="ytick_1">
     <g id="line2d_7">
      <path d="M 35.96 99.107649 
L 211 99.107649 
" clip-path="url(#p85fbfceadd)" style="fill: none; stroke-dasharray: 2.96,1.28; stroke-dashoffset: 0; stroke: var(--grid-color); stroke-width: 0.8"/>
     </g>
     <g id="line2d_8">
      <defs>
       <path id="mb95ec5d488" d="M 0 0 
L -3.5 0 
" style="stroke: var(--fg-color); stroke-width: 0.8"/>
      </defs>
      <g>
       <use xlink:href="#mb95ec5d488" x="35.96" y="99.107649" style="fill: var(--fg-color); stroke: var(--fg-color); stroke-width: 0.8"/>
      </g>
     </g>
     <g id="text_4">
      <text style="font-size: 7px; font-family: 'DejaVu Sans', 'Bitstream Vera Sans', 'Computer Modern Sans Serif', 'Lucida Grande', 'Verdana', 'Geneva', 'Lucid', 'Arial', 'Helvetica', 'Avant Garde', sans-serif; text-anchor: end; fill: var(--fg-color)" x="28.96" y="101.766829" transform="rotate(-0 28.96 101.766829)">150</text>
     </g>
    </g>
    <g id="ytick_2">
     <g id="line2d_9">
      <path d="M 35.96 81.730344 
L 211 81.730344 
" clip-path="url(#p85fbfceadd)" style="fill: none; stroke-dasharray: 2.96,1.28; stroke-dashoffset: 0; stroke: var(--grid-color); stroke-width: 0.8"/>
     </g>
     <g id="line2d_10">
      <g>
       <use xlink:href="#mb95ec5d488" x="35.96" y="81.730344" style="fill: var(--fg-color); stroke: var(--fg-color); stroke-width: 0.8"/>
      </g>
     </g>
     <g id="text_5">
      <text style="font-size: 7px; font-family: 'DejaVu Sans', 'Bitstream Vera Sans', 'Computer Modern Sans Serif', 'Lucida Grande', 'Verdana', 'Geneva', 'Lucid', 'Arial', 'Helvetica', 'Avant Garde', sans-serif; text-anchor: end; fill: var(--fg-color)" x="28.96" y="84.389523" transform="rotate(-0 28.96 84.389523)">200</text>
     </g>
    </g>
    <g id="ytick_3">
     <g id="line2d_11">
      <path d="M 35.96 64.353038 
L 211 64.353038 
" clip-path="url(#p85fbfceadd)" style="fill: none; stroke-dasharray: 2.96,1.28; stroke-dashoffset: 0; stroke: var(--grid-color); stroke-width: 0.8"/>
     </g>
     <g id="line2d_12">
      <g>
       <use xlink:href="#mb95ec5d488" x="35.96" y="64.353038" style="fill: var(--fg-color); stroke: var(--fg-color); stroke-width: 0.8"/>
      </g>
     </g>
     <g id="text_6">
      <text style="font-size: 7px; font-family: 'DejaVu Sans', 'Bitstream Vera Sans', 'Computer Modern Sans Serif', 'Lucida Grande', 'Verdana', 'Geneva', 'Lucid', 'Arial', 'Helvetica', 'Avant Garde', sans-serif; text-anchor: end; fill: var(--fg-color)" x="28.96" y="67.012218" transform="rotate(-0 28.96 67.012218)">250</text>
     </g>
    </g>
    <g id="ytick_4">
     <g id="line2d_13">
      <path d="M 35.96 46.975733 
L 211 46.975733 
" clip-path="url(#p85fbfceadd)" style="fill: none; stroke-dasharray: 2.96,1.28; stroke-dashoffset: 0; stroke: var(--grid-color); stroke-width: 0.8"/>
     </g>
     <g id="line2d_14">
      <g>
       <use xlink:href="#mb95ec5d488" x="35.96" y="46.975733" style="fill: var(--fg-color); stroke: var(--fg-color); stroke-width: 0.8"/>
      </g>
     </g>
     <g id="text_7">
      <text style="font-size: 7px; font-family: 'DejaVu Sans', 'Bitstream Vera Sans', 'Computer Modern Sans Serif', 'Lucida Grande', 'Verdana', 'Geneva', 'Lucid', 'Arial', 'Helvetica', 'Avant Garde', sans-serif; text-anchor: end; fill: var(--fg-color)" x="28.96" y="49.634912" transform="rotate(-0 28.96 49.634912)">300</text>
     </g>
    </g>
    <g id="ytick_5">
     <g id="line2d_15">
      <path d="M 35.96 29.598427 
L 211 29.598427 
" clip-path="url(#p85fbfceadd)" style="fill: none; stroke-dasharray: 2.96,1.28; stroke-dashoffset: 0; stroke: var(--grid-color); stroke-width: 0.8"/>
     </g>
     <g id="line2d_16">
      <g>
       <use xlink:href="#mb95ec5d488" x="35.96" y="29.598427" style="fill: var(--fg-color); stroke: var(--fg-color); stroke-width: 0.8"/>
      </g>
     </g>
     <g id="text_8">
      <text style="font-size: 7px; font-family: 'DejaVu Sans', 'Bitstream Vera Sans', 'Computer Modern Sans Serif', 'Lucida Grande', 'Verdana', 'Geneva', 'Lucid', 'Arial', 'Helvetica', 'Avant Garde', sans-serif; text-anchor: end; fill: var(--fg-color)" x="28.96" y="32.257607" transform="rotate(-0 28.96 32.257607)">350</text>
     </g>
    </g>
    <g id="ytick_6">
     <g id="line2d_17">
      <path d="M 35.96 12.221122 
L 211 12.221122 
" clip-path="url(#p85fbfceadd)" style="fill: none; stroke-dasharray: 2.96,1.28; stroke-dashoffset: 0; stroke: var(--grid-color); stroke-width: 0.8"/>
     </g>
     <g id="line2d_18">
      <g>
       <use xlink:href="#mb95ec5d488" x="35.96" y="12.221122" style="fill: var(--fg-color); stroke: var(--fg-color); stroke-width: 0.8"/>
      </g>
     </g>
     <g id="text_9">
      <text style="font-size: 7px; font-family: 'DejaVu Sans', 'Bitstream Vera Sans', 'Computer Modern Sans Serif', 'Lucida Grande', 'Verdana', 'Geneva', 'Lucid', 'Arial', 'Helvetica', 'Avant Garde', sans-serif; text-anchor: end; fill: var(--fg-color)" x="28.96" y="14.880302" transform="rotate(-0 28.96 14.880302)">400</text>
     </g>
    </g>
    <g id="text_10">
     <text style="font-size: 7px; font-family: 'DejaVu Sans', 'Bitstream Vera Sans', 'Computer Modern Sans Serif', 'Lucida Grande', 'Verdana', 'Geneva', 'Lucid', 'Arial', 'Helvetica', 'Avant Garde', sans-serif; text-anchor: middle; fill: var(--fg-color)" x="9.917109" y="54.2" transform="rotate(-90 9.917109 54.2)">ms</text>
    </g>
   </g>
   <g id="line2d_19">
    <path d="M 43.916364 64.810061 
L 45.193108 85.517206 
L 45.766628 57.746882 
L 46.691788 48.044785 
L 47.616947 72.594399 
L 48.542109 65.490904 
L 49.467263 79.595368 
L 50.392418 78.496427 
L 51.317566 62.970152 
L 52.242732 54.286018 
L 53.167891 68.377622 
L 54.093049 80.468056 
L 55.018206 79.598496 
L 55.943359 73.673877 
L 56.868517 82.914781 
L 57.793676 69.333722 
L 58.718827 80.486476 
L 59.643987 72.338258 
L 60.569143 87.397778 
L 61.494301 87.004008 
L 62.419457 77.415906 
L 63.344613 70.07469 
L 64.269773 77.795774 
L 65.194924 62.380019 
L 66.120079 72.286473 
L 67.045243 78.996198 
L 67.970398 87.247638 
L 68.895557 80.879898 
L 69.82071 50.286805 
L 70.74585 44.883853 
L 71.671025 60.041034 
L 72.596178 80.168471 
L 73.521341 63.317003 
L 74.446495 74.350897 
L 75.371653 75.667402 
L 76.296805 79.977669 
L 77.221971 76.029892 
L 78.147114 83.325928 
L 79.072277 56.94127 
L 79.997435 64.70406 
L 80.922594 68.797805 
L 81.847735 61.426005 
L 82.772905 31.602031 
L 83.698046 76.978346 
L 84.623219 80.754087 
L 85.548376 84.916646 
L 86.473535 69.198526 
L 87.398688 50.487686 
L 88.323852 80.146924 
L 97.76512 49.646277 
L 98.500856 56.78835 
L 99.426031 62.226404 
L 100.351186 58.801684 
L 101.276348 76.785805 
L 102.201502 66.206502 
L 103.126656 79.748983 
L 104.051812 75.559315 
L 104.976967 88.581173 
L 105.902123 82.841796 
L 106.827282 80.929945 
L 107.752435 87.259802 
L 108.677594 80.896928 
L 109.602753 77.774574 
L 110.527909 82.420223 
L 111.453063 85.401821 
L 112.378223 85.672212 
L 113.303377 75.255212 
L 114.228537 88.423387 
L 115.153695 89.43127 
L 116.078848 82.258266 
L 117.004011 81.602447 
L 117.929158 95.939071 
L 118.854316 81.299039 
L 119.779481 71.255652 
L 120.704637 90.929542 
L 121.629794 84.052994 
L 122.554943 84.963913 
L 123.480104 87.879825 
L 124.405261 84.669889 
L 125.330416 88.995795 
L 126.255574 65.49855 
L 129.9562 72.839767 
L 130.881363 82.394157 
L 131.806516 76.33469 
L 132.731673 84.429039 
L 133.656831 86.358268 
L 134.581987 79.713881 
L 135.507147 82.699302 
L 136.432285 76.757306 
L 137.357455 80.494122 
L 138.282617 85.584283 
L 139.20777 84.472483 
L 140.13293 82.349323 
L 141.058084 84.389767 
L 141.983242 86.936237 
L 142.908395 81.088078 
L 143.833556 77.249779 
L 144.758724 83.896599 
L 145.683869 46.4989 
L 146.609028 82.132455 
L 147.534182 86.18658 
L 148.459339 86.752037 
L 149.384497 62.213197 
L 150.309651 82.918604 
L 151.234811 83.687028 
L 152.159963 80.210525 
L 179.91473 80.210525 
L 188.548948 91.21592 
L 189.166282 90.401619 
L 190.091439 88.649292 
L 191.016594 83.064226 
L 191.94175 88.646859 
L 192.866913 90.73005 
L 193.792066 94.8516 
L 194.717222 90.097169 
L 195.642377 87.44852 
L 196.567536 89.749275 
L 197.492695 90.703637 
L 198.417852 88.222505 
L 199.343013 98.165799 
L 200.268162 89.613037 
L 201.193322 77.458654 
L 202.118478 94.349743 
L 203.043636 92.806986 
" clip-path="url(#p85fbfceadd)" style="fill: none; stroke: #339af0; stroke-width: 1.2; stroke-linecap: square"/>
   </g>
   <g id="line2d_20">
    <path d="M 43.916364 77.995961 
L 45.193108 65.742528 
L 45.766628 72.143632 
L 46.691788 90.181622 
L 47.616947 72.882515 
L 48.542109 73.07158 
L 49.467263 74.67203 
L 50.392418 72.815786 
L 51.317566 90.870806 
L 52.242732 73.916117 
L 53.167891 70.81392 
L 54.093049 84.705338 
L 55.018206 77.352653 
L 55.943359 85.509908 
L 56.868517 79.736472 
L 57.793676 82.165819 
L 58.718827 74.899325 
L 59.643987 75.123492 
L 60.569143 77.355781 
L 61.494301 69.22772 
L 62.419457 88.538077 
L 63.344613 64.34991 
L 64.269773 83.247035 
L 65.194924 86.563667 
L 66.120079 76.06708 
L 67.045243 75.639946 
L 67.970398 98.927273 
L 68.895557 82.186672 
L 69.82071 79.079262 
L 70.74585 61.0656 
L 71.671025 50.199571 
L 72.596178 45.84308 
L 73.521341 68.097152 
L 74.446495 67.802433 
L 75.371653 65.550682 
L 76.296805 60.655843 
L 77.221971 61.972 
L 78.147114 58.810025 
L 79.072277 70.136553 
L 79.997435 56.808507 
L 80.922594 53.859579 
L 81.847735 62.757802 
L 82.772905 51.877523 
L 83.698046 50.314261 
L 84.623219 63.543256 
L 85.548376 61.911179 
L 86.473535 52.195875 
L 87.398688 69.378903 
L 88.323852 80.798573 
L 97.76512 48.167468 
L 98.500856 38.160226 
L 99.426031 49.314023 
L 100.351186 55.184077 
L 101.276348 70.278004 
L 102.201502 47.471334 
L 103.126656 49.644539 
L 104.051812 38.5533 
L 104.976967 52.201784 
L 105.902123 54.441371 
L 106.827282 47.572469 
L 107.752435 51.837555 
L 108.677594 70.958152 
L 109.602753 68.146504 
L 110.527909 45.965764 
L 111.453063 58.687689 
L 112.378223 45.01731 
L 113.303377 46.220863 
L 114.228537 47.80602 
L 115.153695 49.902766 
L 116.078848 58.728004 
L 117.004011 33.226114 
L 117.929158 61.06838 
L 118.854316 58.95947 
L 119.779481 49.018956 
L 120.704637 71.045039 
L 121.629794 61.105915 
L 122.554943 25.472707 
L 123.480104 55.991774 
L 124.405261 44.474096 
L 125.330416 50.753559 
L 126.255574 72.674335 
L 129.9562 45.047199 
L 130.881363 55.693927 
L 131.806516 53.864792 
L 132.731673 25.306928 
L 133.656831 45.768358 
L 134.581987 66.483148 
L 135.507147 46.070375 
L 136.432285 46.664679 
L 137.357455 59.670897 
L 138.282617 40.654912 
L 139.20777 63.369483 
L 140.13293 54.017712 
L 141.058084 44.295457 
L 141.983242 71.853778 
L 142.908395 66.155412 
L 143.833556 48.3117 
L 144.758724 46.283421 
L 145.683869 58.759979 
L 146.609028 60.163022 
L 147.534182 22.952998 
L 148.459339 35.919944 
L 149.384497 55.335954 
L 150.309651 70.558474 
L 151.234811 43.784217 
L 152.159963 58.704024 
L 179.91473 58.704024 
L 188.548948 41.329151 
L 189.166282 25.170342 
L 190.091439 53.275701 
L 191.016594 48.009335 
L 191.94175 53.638192 
L 192.866913 54.360045 
L 193.792066 56.250001 
L 194.717222 37.788351 
L 195.642377 40.181554 
L 196.567536 9.472727 
L 197.492695 51.109794 
L 198.417852 53.386916 
L 199.343013 62.262548 
L 200.268162 50.365698 
L 201.193322 29.452806 
L 202.118478 30.963588 
L 203.043636 44.819209 
" clip-path="url(#p85fbfceadd)" style="fill: none; stroke: #ff6b6b; stroke-width: 1.2; stroke-linecap: square"/>
   </g>
   <g id="patch_3">
    <path d="M 35.96 103.4 
L 35.96 5 
" style="fill: none; stroke: var(--fg-color); stroke-width: 0.8; stroke-linejoin: miter; stroke-linecap: square"/>
   </g>
   <g id="patch_4">
    <path d="M 35.96 103.4 
L 211 103.4 
" style="fill: none; stroke: var(--fg-color); stroke-width: 0.8; stroke-linejoin: miter; stroke-linecap: square"/>
   </g>
  </g>
 </g>
 <defs>
  <clipPath id="p85fbfceadd">
   <rect x="35.96" y="5" width="175.04" height="98.4"/>
  </clipPath>
 </defs>
</svg>
