<?xml version="1.0" encoding="utf-8" standalone="no"?>
<!DOCTYPE svg PUBLIC "-//W3C//DTD SVG 1.1//EN"
  "http://www.w3.org/Graphics/SVG/1.1/DTD/svg11.dtd">
<svg xmlns:xlink="http://www.w3.org/1999/xlink" width="216pt" height="122.4pt" viewBox="0 0 216 122.4" xmlns="http://www.w3.org/2000/svg" version="1.1">
  <style>
    :root {
      --fg-color: #212529;
      --grid-color: rgba(33, 37, 41, 0.1);
    }
    @media (prefers-color-scheme: dark) {
      :root {
        --fg-color: #dee2e6;
        --grid-color: rgba(248, 249, 250, 0.15);
      }
    }
  </style>

 <metadata>
  <rdf:RDF xmlns:dc="http://purl.org/dc/elements/1.1/" xmlns:cc="http://creativecommons.org/ns#" xmlns:rdf="http://www.w3.org/1999/02/22-rdf-syntax-ns#">
   <cc:Work>
    <dc:type rdf:resource="http://purl.org/dc/dcmitype/StillImage"/>
    <dc:date>2026-06-30T15:37:57.164425</dc:date>
    <dc:format>image/svg+xml</dc:format>
    <dc:creator>
     <cc:Agent>
      <dc:title>Matplotlib v3.11.0, https://matplotlib.org/</dc:title>
     </cc:Agent>
    </dc:creator>
   </cc:Work>
  </rdf:RDF>
 </metadata>
 <defs>
  <style type="text/css">*{stroke-linejoin: round; stroke-linecap: butt}</style>
 </defs>
 <g id="figure_1">
  <g id="patch_1">
   <path d="M 0 122.4 
L 216 122.4 
L 216 0 
L 0 0 
L 0 122.4 
z
" style="fill: none; opacity: 0"/>
  </g>
  <g id="axes_1">
   <g id="patch_2">
    <path d="M 35.96 103.4 
L 211 103.4 
L 211 5 
L 35.96 5 
L 35.96 103.4 
z
" style="fill: none; opacity: 0"/>
   </g>
   <g id="matplotlib.axis_1">
    <g id="xtick_1">
     <g id="line2d_1">
      <path d="M 69.784035 103.4 
L 69.784035 5 
" clip-path="url(#p1aa4611fb7)" style="fill: none; stroke-dasharray: 2.96,1.28; stroke-dashoffset: 0; stroke: var(--grid-color); stroke-width: 0.8"/>
     </g>
     <g id="line2d_2">
      <defs>
       <path id="mdd03c66f34" d="M 0 0 
L 0 3.5 
" style="stroke: var(--fg-color); stroke-width: 0.8"/>
      </defs>
      <g>
       <use xlink:href="#mdd03c66f34" x="69.784035" y="103.4" style="fill: var(--fg-color); stroke: var(--fg-color); stroke-width: 0.8"/>
      </g>
     </g>
     <g id="text_1">
      <text style="font-size: 7px; font-family: 'DejaVu Sans', 'Bitstream Vera Sans', 'Computer Modern Sans Serif', 'Lucida Grande', 'Verdana', 'Geneva', 'Lucid', 'Arial', 'Helvetica', 'Avant Garde', sans-serif; text-anchor: middle; fill: var(--fg-color)" x="69.784035" y="115.718359" transform="rotate(-0 69.784035 115.718359)">02/2026</text>
     </g>
    </g>
    <g id="xtick_2">
     <g id="line2d_3">
      <path d="M 122.345302 103.4 
L 122.345302 5 
" clip-path="url(#p1aa4611fb7)" style="fill: none; stroke-dasharray: 2.96,1.28; stroke-dashoffset: 0; stroke: var(--grid-color); stroke-width: 0.8"/>
     </g>
     <g id="line2d_4">
      <g>
       <use xlink:href="#mdd03c66f34" x="122.345302" y="103.4" style="fill: var(--fg-color); stroke: var(--fg-color); stroke-width: 0.8"/>
      </g>
     </g>
     <g id="text_2">
      <text style="font-size: 7px; font-family: 'DejaVu Sans', 'Bitstream Vera Sans', 'Computer Modern Sans Serif', 'Lucida Grande', 'Verdana', 'Geneva', 'Lucid', 'Arial', 'Helvetica', 'Avant Garde', sans-serif; text-anchor: middle; fill: var(--fg-color)" x="122.345302" y="115.718359" transform="rotate(-0 122.345302 115.718359)">04/2026</text>
     </g>
    </g>
    <g id="xtick_3">
     <g id="line2d_5">
      <path d="M 176.688307 103.4 
L 176.688307 5 
" clip-path="url(#p1aa4611fb7)" style="fill: none; stroke-dasharray: 2.96,1.28; stroke-dashoffset: 0; stroke: var(--grid-color); stroke-width: 0.8"/>
     </g>
     <g id="line2d_6">
      <g>
       <use xlink:href="#mdd03c66f34" x="176.688307" y="103.4" style="fill: var(--fg-color); stroke: var(--fg-color); stroke-width: 0.8"/>
      </g>
     </g>
     <g id="text_3">
      <text style="font-size: 7px; font-family: 'DejaVu Sans', 'Bitstream Vera Sans', 'Computer Modern Sans Serif', 'Lucida Grande', 'Verdana', 'Geneva', 'Lucid', 'Arial', 'Helvetica', 'Avant Garde', sans-serif; text-anchor: middle; fill: var(--fg-color)" x="176.688307" y="115.718359" transform="rotate(-0 176.688307 115.718359)">06/2026</text>
     </g>
    </g>
   </g>
   <g id="matplotlib.axis_2">
    <g id="ytick_1">
     <g id="line2d_7">
      <path d="M 35.96 99.50638 
L 211 99.50638 
" clip-path="url(#p1aa4611fb7)" style="fill: none; stroke-dasharray: 2.96,1.28; stroke-dashoffset: 0; stroke: var(--grid-color); stroke-width: 0.8"/>
     </g>
     <g id="line2d_8">
      <defs>
       <path id="mc43873c902" d="M 0 0 
L -3.5 0 
" style="stroke: var(--fg-color); stroke-width: 0.8"/>
      </defs>
      <g>
       <use xlink:href="#mc43873c902" x="35.96" y="99.50638" style="fill: var(--fg-color); stroke: var(--fg-color); stroke-width: 0.8"/>
      </g>
     </g>
     <g id="text_4">
      <text style="font-size: 7px; font-family: 'DejaVu Sans', 'Bitstream Vera Sans', 'Computer Modern Sans Serif', 'Lucida Grande', 'Verdana', 'Geneva', 'Lucid', 'Arial', 'Helvetica', 'Avant Garde', sans-serif; text-anchor: end; fill: var(--fg-color)" x="28.96" y="102.16556" transform="rotate(-0 28.96 102.16556)">0</text>
     </g>
    </g>
    <g id="ytick_2">
     <g id="line2d_9">
      <path d="M 35.96 75.245481 
L 211 75.245481 
" clip-path="url(#p1aa4611fb7)" style="fill: none; stroke-dasharray: 2.96,1.28; stroke-dashoffset: 0; stroke: var(--grid-color); stroke-width: 0.8"/>
     </g>
     <g id="line2d_10">
      <g>
       <use xlink:href="#mc43873c902" x="35.96" y="75.245481" style="fill: var(--fg-color); stroke: var(--fg-color); stroke-width: 0.8"/>
      </g>
     </g>
     <g id="text_5">
      <text style="font-size: 7px; font-family: 'DejaVu Sans', 'Bitstream Vera Sans', 'Computer Modern Sans Serif', 'Lucida Grande', 'Verdana', 'Geneva', 'Lucid', 'Arial', 'Helvetica', 'Avant Garde', sans-serif; text-anchor: end; fill: var(--fg-color)" x="28.96" y="77.904661" transform="rotate(-0 28.96 77.904661)">100</text>
     </g>
    </g>
    <g id="ytick_3">
     <g id="line2d_11">
      <path d="M 35.96 50.984582 
L 211 50.984582 
" clip-path="url(#p1aa4611fb7)" style="fill: none; stroke-dasharray: 2.96,1.28; stroke-dashoffset: 0; stroke: var(--grid-color); stroke-width: 0.8"/>
     </g>
     <g id="line2d_12">
      <g>
       <use xlink:href="#mc43873c902" x="35.96" y="50.984582" style="fill: var(--fg-color); stroke: var(--fg-color); stroke-width: 0.8"/>
      </g>
     </g>
     <g id="text_6">
      <text style="font-size: 7px; font-family: 'DejaVu Sans', 'Bitstream Vera Sans', 'Computer Modern Sans Serif', 'Lucida Grande', 'Verdana', 'Geneva', 'Lucid', 'Arial', 'Helvetica', 'Avant Garde', sans-serif; text-anchor: end; fill: var(--fg-color)" x="28.96" y="53.643761" transform="rotate(-0 28.96 53.643761)">200</text>
     </g>
    </g>
    <g id="ytick_4">
     <g id="line2d_13">
      <path d="M 35.96 26.723682 
L 211 26.723682 
" clip-path="url(#p1aa4611fb7)" style="fill: none; stroke-dasharray: 2.96,1.28; stroke-dashoffset: 0; stroke: var(--grid-color); stroke-width: 0.8"/>
     </g>
     <g id="line2d_14">
      <g>
       <use xlink:href="#mc43873c902" x="35.96" y="26.723682" style="fill: var(--fg-color); stroke: var(--fg-color); stroke-width: 0.8"/>
      </g>
     </g>
     <g id="text_7">
      <text style="font-size: 7px; font-family: 'DejaVu Sans', 'Bitstream Vera Sans', 'Computer Modern Sans Serif', 'Lucida Grande', 'Verdana', 'Geneva', 'Lucid', 'Arial', 'Helvetica', 'Avant Garde', sans-serif; text-anchor: end; fill: var(--fg-color)" x="28.96" y="29.382862" transform="rotate(-0 28.96 29.382862)">300</text>
     </g>
    </g>
    <g id="text_8">
     <text style="font-size: 7px; font-family: 'DejaVu Sans', 'Bitstream Vera Sans', 'Computer Modern Sans Serif', 'Lucida Grande', 'Verdana', 'Geneva', 'Lucid', 'Arial', 'Helvetica', 'Avant Garde', sans-serif; text-anchor: middle; fill: var(--fg-color)" x="9.917109" y="54.2" transform="rotate(-90 9.917109 54.2)">ms</text>
    </g>
   </g>
   <g id="line2d_15">
    <path d="M 43.916364 32.490498 
L 44.468628 38.469354 
L 45.3595 49.633735 
L 46.250371 42.282925 
L 47.141245 40.433031 
L 48.032112 44.325207 
L 48.922979 38.452614 
L 49.81384 46.534405 
L 50.704717 48.303025 
L 51.595589 44.061491 
L 52.486458 44.110013 
L 54.268192 38.925216 
L 55.159063 49.317615 
L 56.049934 45.963303 
L 56.940797 47.542688 
L 57.831669 33.0895 
L 58.722538 39.002609 
L 59.613407 43.256757 
L 60.504275 40.890592 
L 61.395144 40.318277 
L 62.286016 36.641295 
L 63.176879 47.850801 
L 64.067746 43.860126 
L 64.958622 34.601682 
L 65.84949 37.069258 
L 66.740361 40.379657 
L 67.631226 45.77237 
L 68.522078 43.37879 
L 69.412965 46.707628 
L 70.30383 47.277759 
L 71.194705 42.519226 
L 72.085571 40.559916 
L 72.976442 43.261852 
L 73.867306 49.880953 
L 75.649039 38.160028 
L 76.539914 46.143804 
L 77.430784 47.313665 
L 78.321655 42.031582 
L 79.212509 46.505534 
L 80.103391 36.86765 
L 80.994245 46.620531 
L 81.885129 49.464879 
L 82.775998 39.865569 
L 83.666869 42.101453 
L 84.557735 46.350265 
L 85.44861 32.174864 
L 94.53997 40.225358 
L 95.248438 42.896968 
L 96.139324 36.25579 
L 97.921065 48.685376 
L 98.811931 39.068598 
L 99.702798 39.98008 
L 100.593666 49.242164 
L 101.484533 38.011308 
L 102.375401 38.791539 
L 103.266272 45.945593 
L 104.157138 43.048842 
L 105.048009 49.168653 
L 105.93888 31.230387 
L 106.829748 45.778435 
L 107.720614 44.581888 
L 108.611487 39.861202 
L 109.502352 37.843423 
L 110.393224 33.772444 
L 112.17496 46.412615 
L 113.065834 40.271454 
L 113.956695 46.014251 
L 114.847564 39.43882 
L 115.738441 49.043467 
L 116.629309 42.250415 
L 117.520178 46.143804 
L 118.41104 42.763776 
L 119.301913 48.950791 
L 120.192782 46.523488 
L 121.083649 32.197184 
L 121.97452 42.615542 
L 125.537994 39.895167 
L 126.428869 47.890347 
L 127.319734 47.673454 
L 128.210603 43.285871 
L 129.101474 25.429363 
L 129.992342 26.136811 
L 130.883214 36.985072 
L 131.774065 43.384855 
L 132.664946 38.333736 
L 133.55582 27.955651 
L 134.446686 29.224981 
L 135.337558 34.094144 
L 136.228424 40.616929 
L 137.119294 29.232259 
L 138.010159 35.618698 
L 138.901032 37.732065 
L 139.791912 39.498016 
L 140.68277 41.561406 
L 141.57364 36.281991 
L 142.464507 32.536836 
L 143.355376 48.369985 
L 144.246246 46.991966 
L 145.137113 38.389051 
L 146.027984 45.459162 
L 146.918849 43.961294 
L 173.644977 43.961294 
L 181.959197 35.018484 
L 182.553652 42.835588 
L 183.444521 9.472727 
L 184.335387 14.478964 
L 185.226256 38.761941 
L 186.117131 33.36292 
L 187.007996 31.522246 
L 187.898864 24.477366 
L 188.789731 31.907266 
L 189.680603 34.420453 
L 190.571474 40.290135 
L 191.462343 15.736891 
L 192.353215 21.126208 
L 193.244077 36.774003 
L 194.134949 35.369782 
L 195.025817 33.122737 
L 195.916688 40.109391 
L 196.807557 35.968055 
L 197.698426 35.621367 
L 198.589295 35.482352 
L 199.480162 35.932877 
L 200.371032 43.257243 
L 201.261898 42.703609 
L 202.152766 40.259566 
L 203.043636 34.998347 
L 203.043636 34.998347 
" clip-path="url(#p1aa4611fb7)" style="fill: none; stroke: #339af0; stroke-width: 1.2; stroke-linecap: square"/>
   </g>
   <g id="line2d_16">
    <path d="M 43.916364 98.829987 
L 45.3595 98.873899 
L 47.141245 98.822951 
L 48.032112 98.900343 
L 48.922979 98.536187 
L 49.81384 98.878751 
L 54.268192 98.853277 
L 56.940797 98.897189 
L 61.395144 98.845513 
L 62.286016 98.465345 
L 63.176879 98.893793 
L 66.740361 98.892337 
L 67.631226 98.673989 
L 68.522078 98.897432 
L 69.412965 98.794323 
L 70.30383 98.876082 
L 71.194705 98.840176 
L 72.085571 98.366846 
L 72.976442 98.883603 
L 74.758184 98.900828 
L 75.649039 97.818792 
L 76.539914 98.870745 
L 77.430784 98.896947 
L 78.321655 97.298396 
L 79.212509 98.918054 
L 85.44861 98.882875 
L 97.921065 98.925089 
L 99.702798 98.46025 
L 100.593666 98.912231 
L 102.375401 98.824164 
L 104.157138 98.870987 
L 106.829748 98.892822 
L 108.611487 98.800388 
L 109.502352 98.912474 
L 110.393224 98.458067 
L 112.17496 98.889183 
L 113.065834 98.836052 
L 113.956695 98.52527 
L 114.847564 98.843573 
L 116.629309 98.888941 
L 120.192782 98.894278 
L 121.083649 98.668652 
L 121.97452 98.84794 
L 129.101474 98.861526 
L 129.992342 98.466801 
L 130.883214 98.858614 
L 132.664946 98.856188 
L 134.446686 98.825134 
L 135.337558 98.409788 
L 137.119294 98.845028 
L 138.010159 98.397172 
L 138.901032 98.835081 
L 140.68277 98.858129 
L 144.246246 98.544436 
L 145.137113 98.768849 
L 146.027984 98.791169 
L 146.918849 98.395231 
L 173.644977 98.395231 
L 182.553652 98.888698 
L 184.335387 98.400083 
L 185.226256 98.792625 
L 187.007996 98.85449 
L 203.043636 98.853762 
L 203.043636 98.853762 
" clip-path="url(#p1aa4611fb7)" style="fill: none; stroke: #ff6b6b; stroke-width: 1.2; stroke-linecap: square"/>
   </g>
   <g id="patch_3">
    <path d="M 35.96 103.4 
L 35.96 5 
" style="fill: none; stroke: var(--fg-color); stroke-width: 0.8; stroke-linejoin: miter; stroke-linecap: square"/>
   </g>
   <g id="patch_4">
    <path d="M 35.96 103.4 
L 211 103.4 
" style="fill: none; stroke: var(--fg-color); stroke-width: 0.8; stroke-linejoin: miter; stroke-linecap: square"/>
   </g>
  </g>
 </g>
 <defs>
  <clipPath id="p1aa4611fb7">
   <rect x="35.96" y="5" width="175.04" height="98.4"/>
  </clipPath>
 </defs>
</svg>
