<?xml version="1.0" encoding="utf-8" standalone="no"?>
<!DOCTYPE svg PUBLIC "-//W3C//DTD SVG 1.1//EN"
  "http://www.w3.org/Graphics/SVG/1.1/DTD/svg11.dtd">
<svg xmlns:xlink="http://www.w3.org/1999/xlink" width="216pt" height="122.4pt" viewBox="0 0 216 122.4" xmlns="http://www.w3.org/2000/svg" version="1.1">
  <style>
    :root {
      --fg-color: #212529;
      --grid-color: rgba(33, 37, 41, 0.1);
    }
    @media (prefers-color-scheme: dark) {
      :root {
        --fg-color: #dee2e6;
        --grid-color: rgba(248, 249, 250, 0.15);
      }
    }
  </style>

 <metadata>
  <rdf:RDF xmlns:dc="http://purl.org/dc/elements/1.1/" xmlns:cc="http://creativecommons.org/ns#" xmlns:rdf="http://www.w3.org/1999/02/22-rdf-syntax-ns#">
   <cc:Work>
    <dc:type rdf:resource="http://purl.org/dc/dcmitype/StillImage"/>
    <dc:date>2026-06-30T04:48:12.632427</dc:date>
    <dc:format>image/svg+xml</dc:format>
    <dc:creator>
     <cc:Agent>
      <dc:title>Matplotlib v3.11.0, https://matplotlib.org/</dc:title>
     </cc:Agent>
    </dc:creator>
   </cc:Work>
  </rdf:RDF>
 </metadata>
 <defs>
  <style type="text/css">*{stroke-linejoin: round; stroke-linecap: butt}</style>
 </defs>
 <g id="figure_1">
  <g id="patch_1">
   <path d="M 0 122.4 
L 216 122.4 
L 216 0 
L 0 0 
L 0 122.4 
z
" style="fill: none; opacity: 0"/>
  </g>
  <g id="axes_1">
   <g id="patch_2">
    <path d="M 31.64 103.4 
L 211 103.4 
L 211 5 
L 31.64 5 
L 31.64 103.4 
z
" style="fill: none; opacity: 0"/>
   </g>
   <g id="matplotlib.axis_1">
    <g id="xtick_1">
     <g id="line2d_1">
      <path d="M 67.541625 103.4 
L 67.541625 5 
" clip-path="url(#p8cad3156af)" style="fill: none; stroke-dasharray: 2.96,1.28; stroke-dashoffset: 0; stroke: var(--grid-color); stroke-width: 0.8"/>
     </g>
     <g id="line2d_2">
      <defs>
       <path id="m926dca17e1" d="M 0 0 
L 0 3.5 
" style="stroke: var(--fg-color); stroke-width: 0.8"/>
      </defs>
      <g>
       <use xlink:href="#m926dca17e1" x="67.541625" y="103.4" style="fill: var(--fg-color); stroke: var(--fg-color); stroke-width: 0.8"/>
      </g>
     </g>
     <g id="text_1">
      <text style="font-size: 7px; font-family: 'DejaVu Sans', 'Bitstream Vera Sans', 'Computer Modern Sans Serif', 'Lucida Grande', 'Verdana', 'Geneva', 'Lucid', 'Arial', 'Helvetica', 'Avant Garde', sans-serif; text-anchor: middle; fill: var(--fg-color)" x="67.541625" y="115.718359" transform="rotate(-0 67.541625 115.718359)">02/2026</text>
     </g>
    </g>
    <g id="xtick_2">
     <g id="line2d_3">
      <path d="M 123.925409 103.4 
L 123.925409 5 
" clip-path="url(#p8cad3156af)" style="fill: none; stroke-dasharray: 2.96,1.28; stroke-dashoffset: 0; stroke: var(--grid-color); stroke-width: 0.8"/>
     </g>
     <g id="line2d_4">
      <g>
       <use xlink:href="#m926dca17e1" x="123.925409" y="103.4" style="fill: var(--fg-color); stroke: var(--fg-color); stroke-width: 0.8"/>
      </g>
     </g>
     <g id="text_2">
      <text style="font-size: 7px; font-family: 'DejaVu Sans', 'Bitstream Vera Sans', 'Computer Modern Sans Serif', 'Lucida Grande', 'Verdana', 'Geneva', 'Lucid', 'Arial', 'Helvetica', 'Avant Garde', sans-serif; text-anchor: middle; fill: var(--fg-color)" x="123.925409" y="115.718359" transform="rotate(-0 123.925409 115.718359)">04/2026</text>
     </g>
    </g>
    <g id="xtick_3">
     <g id="line2d_5">
      <path d="M 182.220509 103.4 
L 182.220509 5 
" clip-path="url(#p8cad3156af)" style="fill: none; stroke-dasharray: 2.96,1.28; stroke-dashoffset: 0; stroke: var(--grid-color); stroke-width: 0.8"/>
     </g>
     <g id="line2d_6">
      <g>
       <use xlink:href="#m926dca17e1" x="182.220509" y="103.4" style="fill: var(--fg-color); stroke: var(--fg-color); stroke-width: 0.8"/>
      </g>
     </g>
     <g id="text_3">
      <text style="font-size: 7px; font-family: 'DejaVu Sans', 'Bitstream Vera Sans', 'Computer Modern Sans Serif', 'Lucida Grande', 'Verdana', 'Geneva', 'Lucid', 'Arial', 'Helvetica', 'Avant Garde', sans-serif; text-anchor: middle; fill: var(--fg-color)" x="182.220509" y="115.718359" transform="rotate(-0 182.220509 115.718359)">06/2026</text>
     </g>
    </g>
   </g>
   <g id="matplotlib.axis_2">
    <g id="ytick_1">
     <g id="line2d_7">
      <path d="M 31.64 101.205117 
L 211 101.205117 
" clip-path="url(#p8cad3156af)" style="fill: none; stroke-dasharray: 2.96,1.28; stroke-dashoffset: 0; stroke: var(--grid-color); stroke-width: 0.8"/>
     </g>
     <g id="line2d_8">
      <defs>
       <path id="m12a0b2353c" d="M 0 0 
L -3.5 0 
" style="stroke: var(--fg-color); stroke-width: 0.8"/>
      </defs>
      <g>
       <use xlink:href="#m12a0b2353c" x="31.64" y="101.205117" style="fill: var(--fg-color); stroke: var(--fg-color); stroke-width: 0.8"/>
      </g>
     </g>
     <g id="text_4">
      <text style="font-size: 7px; font-family: 'DejaVu Sans', 'Bitstream Vera Sans', 'Computer Modern Sans Serif', 'Lucida Grande', 'Verdana', 'Geneva', 'Lucid', 'Arial', 'Helvetica', 'Avant Garde', sans-serif; text-anchor: end; fill: var(--fg-color)" x="24.64" y="103.864297" transform="rotate(-0 24.64 103.864297)">0</text>
     </g>
    </g>
    <g id="ytick_2">
     <g id="line2d_9">
      <path d="M 31.64 83.169927 
L 211 83.169927 
" clip-path="url(#p8cad3156af)" style="fill: none; stroke-dasharray: 2.96,1.28; stroke-dashoffset: 0; stroke: var(--grid-color); stroke-width: 0.8"/>
     </g>
     <g id="line2d_10">
      <g>
       <use xlink:href="#m12a0b2353c" x="31.64" y="83.169927" style="fill: var(--fg-color); stroke: var(--fg-color); stroke-width: 0.8"/>
      </g>
     </g>
     <g id="text_5">
      <text style="font-size: 7px; font-family: 'DejaVu Sans', 'Bitstream Vera Sans', 'Computer Modern Sans Serif', 'Lucida Grande', 'Verdana', 'Geneva', 'Lucid', 'Arial', 'Helvetica', 'Avant Garde', sans-serif; text-anchor: end; fill: var(--fg-color)" x="24.64" y="85.829106" transform="rotate(-0 24.64 85.829106)">10</text>
     </g>
    </g>
    <g id="ytick_3">
     <g id="line2d_11">
      <path d="M 31.64 65.134736 
L 211 65.134736 
" clip-path="url(#p8cad3156af)" style="fill: none; stroke-dasharray: 2.96,1.28; stroke-dashoffset: 0; stroke: var(--grid-color); stroke-width: 0.8"/>
     </g>
     <g id="line2d_12">
      <g>
       <use xlink:href="#m12a0b2353c" x="31.64" y="65.134736" style="fill: var(--fg-color); stroke: var(--fg-color); stroke-width: 0.8"/>
      </g>
     </g>
     <g id="text_6">
      <text style="font-size: 7px; font-family: 'DejaVu Sans', 'Bitstream Vera Sans', 'Computer Modern Sans Serif', 'Lucida Grande', 'Verdana', 'Geneva', 'Lucid', 'Arial', 'Helvetica', 'Avant Garde', sans-serif; text-anchor: end; fill: var(--fg-color)" x="24.64" y="67.793916" transform="rotate(-0 24.64 67.793916)">20</text>
     </g>
    </g>
    <g id="ytick_4">
     <g id="line2d_13">
      <path d="M 31.64 47.099545 
L 211 47.099545 
" clip-path="url(#p8cad3156af)" style="fill: none; stroke-dasharray: 2.96,1.28; stroke-dashoffset: 0; stroke: var(--grid-color); stroke-width: 0.8"/>
     </g>
     <g id="line2d_14">
      <g>
       <use xlink:href="#m12a0b2353c" x="31.64" y="47.099545" style="fill: var(--fg-color); stroke: var(--fg-color); stroke-width: 0.8"/>
      </g>
     </g>
     <g id="text_7">
      <text style="font-size: 7px; font-family: 'DejaVu Sans', 'Bitstream Vera Sans', 'Computer Modern Sans Serif', 'Lucida Grande', 'Verdana', 'Geneva', 'Lucid', 'Arial', 'Helvetica', 'Avant Garde', sans-serif; text-anchor: end; fill: var(--fg-color)" x="24.64" y="49.758725" transform="rotate(-0 24.64 49.758725)">30</text>
     </g>
    </g>
    <g id="ytick_5">
     <g id="line2d_15">
      <path d="M 31.64 29.064355 
L 211 29.064355 
" clip-path="url(#p8cad3156af)" style="fill: none; stroke-dasharray: 2.96,1.28; stroke-dashoffset: 0; stroke: var(--grid-color); stroke-width: 0.8"/>
     </g>
     <g id="line2d_16">
      <g>
       <use xlink:href="#m12a0b2353c" x="31.64" y="29.064355" style="fill: var(--fg-color); stroke: var(--fg-color); stroke-width: 0.8"/>
      </g>
     </g>
     <g id="text_8">
      <text style="font-size: 7px; font-family: 'DejaVu Sans', 'Bitstream Vera Sans', 'Computer Modern Sans Serif', 'Lucida Grande', 'Verdana', 'Geneva', 'Lucid', 'Arial', 'Helvetica', 'Avant Garde', sans-serif; text-anchor: end; fill: var(--fg-color)" x="24.64" y="31.723535" transform="rotate(-0 24.64 31.723535)">40</text>
     </g>
    </g>
    <g id="ytick_6">
     <g id="line2d_17">
      <path d="M 31.64 11.029164 
L 211 11.029164 
" clip-path="url(#p8cad3156af)" style="fill: none; stroke-dasharray: 2.96,1.28; stroke-dashoffset: 0; stroke: var(--grid-color); stroke-width: 0.8"/>
     </g>
     <g id="line2d_18">
      <g>
       <use xlink:href="#m12a0b2353c" x="31.64" y="11.029164" style="fill: var(--fg-color); stroke: var(--fg-color); stroke-width: 0.8"/>
      </g>
     </g>
     <g id="text_9">
      <text style="font-size: 7px; font-family: 'DejaVu Sans', 'Bitstream Vera Sans', 'Computer Modern Sans Serif', 'Lucida Grande', 'Verdana', 'Geneva', 'Lucid', 'Arial', 'Helvetica', 'Avant Garde', sans-serif; text-anchor: end; fill: var(--fg-color)" x="24.64" y="13.688344" transform="rotate(-0 24.64 13.688344)">50</text>
     </g>
    </g>
    <g id="text_10">
     <text style="font-size: 7px; font-family: 'DejaVu Sans', 'Bitstream Vera Sans', 'Computer Modern Sans Serif', 'Lucida Grande', 'Verdana', 'Geneva', 'Lucid', 'Arial', 'Helvetica', 'Avant Garde', sans-serif; text-anchor: middle; fill: var(--fg-color)" x="10.050859" y="54.2" transform="rotate(-90 10.050859 54.2)">ms</text>
    </g>
   </g>
   <g id="line2d_19">
    <path d="M 39.792727 18.061085 
L 40.385155 37.627463 
L 41.340816 37.681569 
L 42.296476 29.235689 
L 43.252138 40.01893 
L 44.207793 33.77154 
L 45.163448 35.423563 
L 46.119097 16.513666 
L 47.074763 35.212551 
L 48.030424 32.557771 
L 48.986082 35.84739 
L 49.941739 29.960704 
L 50.897393 24.883798 
L 51.853052 23.473446 
L 52.808711 28.480015 
L 53.764362 18.676085 
L 54.720023 41.441906 
L 55.67568 34.19717 
L 56.631338 38.561686 
L 57.586995 28.608065 
L 58.542651 34.471305 
L 59.498312 25.397801 
L 60.453963 31.295308 
L 61.409619 40.291261 
L 62.365283 32.35217 
L 63.32094 18.228812 
L 64.276599 36.738328 
L 65.232253 37.463343 
L 66.187892 36.211701 
L 67.143569 32.326921 
L 68.099222 34.034853 
L 69.054886 23.792669 
L 70.01054 36.141364 
L 70.966199 34.559677 
L 71.921851 29.944472 
L 72.877518 34.110601 
L 73.833161 34.087155 
L 74.788825 38.967478 
L 75.744484 38.931408 
L 76.700143 26.880293 
L 77.655784 37.641891 
L 78.611456 20.064795 
L 79.567097 23.514927 
L 80.52277 34.171921 
L 81.478428 29.030088 
L 82.434088 33.962713 
L 83.389742 28.543138 
L 84.345406 10.60173 
L 94.097934 31.643387 
L 94.857926 39.856613 
L 95.813602 41.427478 
L 96.769258 23.904487 
L 97.72492 36.85195 
L 98.680574 34.911364 
L 99.636229 31.21415 
L 100.591885 41.420264 
L 101.547541 35.259443 
L 102.503197 29.300616 
L 103.458857 19.76 
L 104.414511 28.332126 
L 105.370171 39.063065 
L 106.32583 32.359384 
L 107.281487 37.782566 
L 108.237141 36.828504 
L 109.192802 31.354824 
L 110.148456 35.475865 
L 111.104116 29.897581 
L 112.059775 36.271217 
L 113.015429 32.308886 
L 113.971092 35.111554 
L 114.92674 44.650367 
L 115.882398 29.318651 
L 116.838064 18.2739 
L 117.79372 37.196422 
L 118.749378 24.032537 
L 119.705028 28.173416 
L 120.660689 34.734619 
L 121.616347 26.851437 
L 122.572003 26.478109 
L 123.527662 33.353123 
L 127.350289 36.503871 
L 128.305953 26.407771 
L 129.261607 35.436188 
L 130.217264 18.584106 
L 131.172923 32.70566 
L 132.12858 9.472727 
L 133.084241 17.152111 
L 134.039879 33.472155 
L 134.995549 31.531569 
L 135.951212 30.552258 
L 136.906866 25.020865 
L 137.862526 26.478109 
L 138.818181 15.465821 
L 139.773839 26.295953 
L 140.729493 27.834355 
L 141.685154 22.623988 
L 142.640823 20.912449 
L 143.596469 26.425806 
L 144.552128 28.707258 
L 145.507782 24.636716 
L 146.46344 32.364795 
L 147.419098 31.661422 
L 148.374754 24.698035 
L 149.330413 29.976935 
L 150.286066 31.683065 
L 178.955853 31.683065 
L 187.874723 26.245455 
L 188.51241 31.666833 
L 189.468067 24.288636 
L 190.423722 21.783548 
L 191.37938 19.767214 
L 192.335043 25.120059 
L 193.290697 32.301672 
L 194.246353 29.919223 
L 195.202008 30.765073 
L 196.157669 23.846774 
L 197.113328 25.235484 
L 198.068986 30.779501 
L 199.024647 28.351965 
L 199.980297 23.628548 
L 200.935957 37.535484 
L 201.891613 25.827038 
L 202.847273 24.707053 
" clip-path="url(#p8cad3156af)" style="fill: none; stroke: #339af0; stroke-width: 1.2; stroke-linecap: square"/>
   </g>
   <g id="line2d_20">
    <path d="M 39.792727 98.454751 
L 40.385155 98.622478 
L 41.340816 98.631496 
L 42.296476 98.64412 
L 43.252138 98.050762 
L 44.207793 98.31588 
L 45.163448 98.507053 
L 46.119097 97.556598 
L 47.074763 98.667566 
L 48.030424 98.734296 
L 48.986082 98.663959 
L 49.941739 98.283416 
L 50.897393 98.568372 
L 51.853052 97.15261 
L 52.808711 97.53676 
L 53.764362 98.369985 
L 54.720023 98.696422 
L 55.67568 98.617067 
L 56.631338 96.44563 
L 57.586995 98.420484 
L 58.542651 98.813651 
L 59.498312 98.451144 
L 60.453963 98.626085 
L 61.409619 98.544927 
L 62.365283 98.739707 
L 63.32094 98.649531 
L 64.276599 98.534106 
L 65.232253 98.779384 
L 66.187892 98.694619 
L 67.143569 98.586408 
L 68.099222 98.620674 
L 69.054886 98.404252 
L 70.01054 98.763152 
L 70.966199 98.896613 
L 71.921851 98.528695 
L 72.877518 98.420484 
L 73.833161 98.70544 
L 74.788825 98.582801 
L 75.744484 98.562962 
L 76.700143 98.483607 
L 77.655784 98.393431 
L 78.611456 98.12651 
L 79.567097 98.60805 
L 80.52277 98.678387 
L 81.478428 98.359164 
L 82.434088 98.110279 
L 83.389742 98.047155 
L 84.345406 97.782038 
L 94.097934 98.568372 
L 94.857926 98.635103 
L 95.813602 98.775777 
L 96.769258 98.835293 
L 97.72492 98.828079 
L 98.680574 98.792009 
L 99.636229 98.579194 
L 100.591885 98.927273 
L 101.547541 98.856935 
L 102.503197 98.844311 
L 103.458857 98.169795 
L 104.414511 98.801026 
L 105.370171 98.775777 
L 106.32583 98.83349 
L 107.281487 98.743314 
L 108.237141 98.653138 
L 109.192802 98.573783 
L 110.148456 98.83349 
L 111.104116 98.615264 
L 112.059775 98.757742 
L 113.015429 98.826276 
L 113.971092 98.694619 
L 114.92674 98.840704 
L 115.882398 95.289575 
L 116.838064 98.552141 
L 117.79372 98.797419 
L 118.749378 98.691012 
L 119.705028 97.257214 
L 120.660689 98.499839 
L 121.616347 98.339326 
L 122.572003 98.369985 
L 123.527662 98.636906 
L 127.350289 98.456554 
L 128.305953 98.537713 
L 129.261607 98.786598 
L 130.217264 98.395235 
L 131.172923 98.357361 
L 132.12858 98.339326 
L 133.084241 98.195044 
L 134.039879 98.620674 
L 134.995549 98.472786 
L 135.951212 98.615264 
L 136.906866 98.216686 
L 137.862526 98.483607 
L 138.818181 98.402449 
L 139.773839 97.810894 
L 140.729493 98.296041 
L 141.685154 98.496232 
L 142.640823 98.097654 
L 143.596469 98.416877 
L 144.552128 98.104868 
L 145.507782 98.294238 
L 146.46344 96.433006 
L 147.419098 98.629692 
L 148.374754 97.143592 
L 149.330413 98.537713 
L 150.286066 98.525088 
L 178.955853 98.525088 
L 187.874723 98.564765 
L 188.51241 98.433109 
L 189.468067 98.456554 
L 190.423722 98.357361 
L 191.37938 96.676481 
L 192.335043 98.521481 
L 193.290697 98.202258 
L 194.246353 98.438519 
L 195.202008 98.649531 
L 196.157669 98.225704 
L 197.113328 98.252757 
L 198.068986 98.483607 
L 199.024647 98.620674 
L 199.980297 98.525088 
L 200.935957 98.514267 
L 201.891613 98.360968 
L 202.847273 98.002067 
" clip-path="url(#p8cad3156af)" style="fill: none; stroke: #ff6b6b; stroke-width: 1.2; stroke-linecap: square"/>
   </g>
   <g id="patch_3">
    <path d="M 31.64 103.4 
L 31.64 5 
" style="fill: none; stroke: var(--fg-color); stroke-width: 0.8; stroke-linejoin: miter; stroke-linecap: square"/>
   </g>
   <g id="patch_4">
    <path d="M 31.64 103.4 
L 211 103.4 
" style="fill: none; stroke: var(--fg-color); stroke-width: 0.8; stroke-linejoin: miter; stroke-linecap: square"/>
   </g>
  </g>
 </g>
 <defs>
  <clipPath id="p8cad3156af">
   <rect x="31.64" y="5" width="179.36" height="98.4"/>
  </clipPath>
 </defs>
</svg>
