<?xml version="1.0" encoding="utf-8" standalone="no"?>
<!DOCTYPE svg PUBLIC "-//W3C//DTD SVG 1.1//EN"
  "http://www.w3.org/Graphics/SVG/1.1/DTD/svg11.dtd">
<svg xmlns:xlink="http://www.w3.org/1999/xlink" width="216pt" height="122.4pt" viewBox="0 0 216 122.4" xmlns="http://www.w3.org/2000/svg" version="1.1">
  <style>
    :root {
      --fg-color: #212529;
      --grid-color: rgba(33, 37, 41, 0.1);
    }
    @media (prefers-color-scheme: dark) {
      :root {
        --fg-color: #dee2e6;
        --grid-color: rgba(248, 249, 250, 0.15);
      }
    }
  </style>

 <metadata>
  <rdf:RDF xmlns:dc="http://purl.org/dc/elements/1.1/" xmlns:cc="http://creativecommons.org/ns#" xmlns:rdf="http://www.w3.org/1999/02/22-rdf-syntax-ns#">
   <cc:Work>
    <dc:type rdf:resource="http://purl.org/dc/dcmitype/StillImage"/>
    <dc:date>2026-06-30T04:49:02.406447</dc:date>
    <dc:format>image/svg+xml</dc:format>
    <dc:creator>
     <cc:Agent>
      <dc:title>Matplotlib v3.11.0, https://matplotlib.org/</dc:title>
     </cc:Agent>
    </dc:creator>
   </cc:Work>
  </rdf:RDF>
 </metadata>
 <defs>
  <style type="text/css">*{stroke-linejoin: round; stroke-linecap: butt}</style>
 </defs>
 <g id="figure_1">
  <g id="patch_1">
   <path d="M 0 122.4 
L 216 122.4 
L 216 0 
L 0 0 
L 0 122.4 
z
" style="fill: none; opacity: 0"/>
  </g>
  <g id="axes_1">
   <g id="patch_2">
    <path d="M 35.96 103.4 
L 211 103.4 
L 211 5 
L 35.96 5 
L 35.96 103.4 
z
" style="fill: none; opacity: 0"/>
   </g>
   <g id="matplotlib.axis_1">
    <g id="xtick_1">
     <g id="line2d_1">
      <path d="M 72.056377 103.4 
L 72.056377 5 
" clip-path="url(#pe7621388ec)" style="fill: none; stroke-dasharray: 2.96,1.28; stroke-dashoffset: 0; stroke: var(--grid-color); stroke-width: 0.8"/>
     </g>
     <g id="line2d_2">
      <defs>
       <path id="me5e984eef4" d="M 0 0 
L 0 3.5 
" style="stroke: var(--fg-color); stroke-width: 0.8"/>
      </defs>
      <g>
       <use xlink:href="#me5e984eef4" x="72.056377" y="103.4" style="fill: var(--fg-color); stroke: var(--fg-color); stroke-width: 0.8"/>
      </g>
     </g>
     <g id="text_1">
      <text style="font-size: 7px; font-family: 'DejaVu Sans', 'Bitstream Vera Sans', 'Computer Modern Sans Serif', 'Lucida Grande', 'Verdana', 'Geneva', 'Lucid', 'Arial', 'Helvetica', 'Avant Garde', sans-serif; text-anchor: middle; fill: var(--fg-color)" x="72.056377" y="115.718359" transform="rotate(-0 72.056377 115.718359)">02/2026</text>
     </g>
    </g>
    <g id="xtick_2">
     <g id="line2d_3">
      <path d="M 126.640628 103.4 
L 126.640628 5 
" clip-path="url(#pe7621388ec)" style="fill: none; stroke-dasharray: 2.96,1.28; stroke-dashoffset: 0; stroke: var(--grid-color); stroke-width: 0.8"/>
     </g>
     <g id="line2d_4">
      <g>
       <use xlink:href="#me5e984eef4" x="126.640628" y="103.4" style="fill: var(--fg-color); stroke: var(--fg-color); stroke-width: 0.8"/>
      </g>
     </g>
     <g id="text_2">
      <text style="font-size: 7px; font-family: 'DejaVu Sans', 'Bitstream Vera Sans', 'Computer Modern Sans Serif', 'Lucida Grande', 'Verdana', 'Geneva', 'Lucid', 'Arial', 'Helvetica', 'Avant Garde', sans-serif; text-anchor: middle; fill: var(--fg-color)" x="126.640628" y="115.718359" transform="rotate(-0 126.640628 115.718359)">04/2026</text>
     </g>
    </g>
    <g id="xtick_3">
     <g id="line2d_5">
      <path d="M 183.075192 103.4 
L 183.075192 5 
" clip-path="url(#pe7621388ec)" style="fill: none; stroke-dasharray: 2.96,1.28; stroke-dashoffset: 0; stroke: var(--grid-color); stroke-width: 0.8"/>
     </g>
     <g id="line2d_6">
      <g>
       <use xlink:href="#me5e984eef4" x="183.075192" y="103.4" style="fill: var(--fg-color); stroke: var(--fg-color); stroke-width: 0.8"/>
      </g>
     </g>
     <g id="text_3">
      <text style="font-size: 7px; font-family: 'DejaVu Sans', 'Bitstream Vera Sans', 'Computer Modern Sans Serif', 'Lucida Grande', 'Verdana', 'Geneva', 'Lucid', 'Arial', 'Helvetica', 'Avant Garde', sans-serif; text-anchor: middle; fill: var(--fg-color)" x="183.075192" y="115.718359" transform="rotate(-0 183.075192 115.718359)">06/2026</text>
     </g>
    </g>
   </g>
   <g id="matplotlib.axis_2">
    <g id="ytick_1">
     <g id="line2d_7">
      <path d="M 35.96 100.098439 
L 211 100.098439 
" clip-path="url(#pe7621388ec)" style="fill: none; stroke-dasharray: 2.96,1.28; stroke-dashoffset: 0; stroke: var(--grid-color); stroke-width: 0.8"/>
     </g>
     <g id="line2d_8">
      <defs>
       <path id="m1cc7490fa3" d="M 0 0 
L -3.5 0 
" style="stroke: var(--fg-color); stroke-width: 0.8"/>
      </defs>
      <g>
       <use xlink:href="#m1cc7490fa3" x="35.96" y="100.098439" style="fill: var(--fg-color); stroke: var(--fg-color); stroke-width: 0.8"/>
      </g>
     </g>
     <g id="text_4">
      <text style="font-size: 7px; font-family: 'DejaVu Sans', 'Bitstream Vera Sans', 'Computer Modern Sans Serif', 'Lucida Grande', 'Verdana', 'Geneva', 'Lucid', 'Arial', 'Helvetica', 'Avant Garde', sans-serif; text-anchor: end; fill: var(--fg-color)" x="28.96" y="102.757619" transform="rotate(-0 28.96 102.757619)">0</text>
     </g>
    </g>
    <g id="ytick_2">
     <g id="line2d_9">
      <path d="M 35.96 84.087961 
L 211 84.087961 
" clip-path="url(#pe7621388ec)" style="fill: none; stroke-dasharray: 2.96,1.28; stroke-dashoffset: 0; stroke: var(--grid-color); stroke-width: 0.8"/>
     </g>
     <g id="line2d_10">
      <g>
       <use xlink:href="#m1cc7490fa3" x="35.96" y="84.087961" style="fill: var(--fg-color); stroke: var(--fg-color); stroke-width: 0.8"/>
      </g>
     </g>
     <g id="text_5">
      <text style="font-size: 7px; font-family: 'DejaVu Sans', 'Bitstream Vera Sans', 'Computer Modern Sans Serif', 'Lucida Grande', 'Verdana', 'Geneva', 'Lucid', 'Arial', 'Helvetica', 'Avant Garde', sans-serif; text-anchor: end; fill: var(--fg-color)" x="28.96" y="86.747141" transform="rotate(-0 28.96 86.747141)">20</text>
     </g>
    </g>
    <g id="ytick_3">
     <g id="line2d_11">
      <path d="M 35.96 68.077482 
L 211 68.077482 
" clip-path="url(#pe7621388ec)" style="fill: none; stroke-dasharray: 2.96,1.28; stroke-dashoffset: 0; stroke: var(--grid-color); stroke-width: 0.8"/>
     </g>
     <g id="line2d_12">
      <g>
       <use xlink:href="#m1cc7490fa3" x="35.96" y="68.077482" style="fill: var(--fg-color); stroke: var(--fg-color); stroke-width: 0.8"/>
      </g>
     </g>
     <g id="text_6">
      <text style="font-size: 7px; font-family: 'DejaVu Sans', 'Bitstream Vera Sans', 'Computer Modern Sans Serif', 'Lucida Grande', 'Verdana', 'Geneva', 'Lucid', 'Arial', 'Helvetica', 'Avant Garde', sans-serif; text-anchor: end; fill: var(--fg-color)" x="28.96" y="70.736662" transform="rotate(-0 28.96 70.736662)">40</text>
     </g>
    </g>
    <g id="ytick_4">
     <g id="line2d_13">
      <path d="M 35.96 52.067004 
L 211 52.067004 
" clip-path="url(#pe7621388ec)" style="fill: none; stroke-dasharray: 2.96,1.28; stroke-dashoffset: 0; stroke: var(--grid-color); stroke-width: 0.8"/>
     </g>
     <g id="line2d_14">
      <g>
       <use xlink:href="#m1cc7490fa3" x="35.96" y="52.067004" style="fill: var(--fg-color); stroke: var(--fg-color); stroke-width: 0.8"/>
      </g>
     </g>
     <g id="text_7">
      <text style="font-size: 7px; font-family: 'DejaVu Sans', 'Bitstream Vera Sans', 'Computer Modern Sans Serif', 'Lucida Grande', 'Verdana', 'Geneva', 'Lucid', 'Arial', 'Helvetica', 'Avant Garde', sans-serif; text-anchor: end; fill: var(--fg-color)" x="28.96" y="54.726184" transform="rotate(-0 28.96 54.726184)">60</text>
     </g>
    </g>
    <g id="ytick_5">
     <g id="line2d_15">
      <path d="M 35.96 36.056526 
L 211 36.056526 
" clip-path="url(#pe7621388ec)" style="fill: none; stroke-dasharray: 2.96,1.28; stroke-dashoffset: 0; stroke: var(--grid-color); stroke-width: 0.8"/>
     </g>
     <g id="line2d_16">
      <g>
       <use xlink:href="#m1cc7490fa3" x="35.96" y="36.056526" style="fill: var(--fg-color); stroke: var(--fg-color); stroke-width: 0.8"/>
      </g>
     </g>
     <g id="text_8">
      <text style="font-size: 7px; font-family: 'DejaVu Sans', 'Bitstream Vera Sans', 'Computer Modern Sans Serif', 'Lucida Grande', 'Verdana', 'Geneva', 'Lucid', 'Arial', 'Helvetica', 'Avant Garde', sans-serif; text-anchor: end; fill: var(--fg-color)" x="28.96" y="38.715705" transform="rotate(-0 28.96 38.715705)">80</text>
     </g>
    </g>
    <g id="ytick_6">
     <g id="line2d_17">
      <path d="M 35.96 20.046047 
L 211 20.046047 
" clip-path="url(#pe7621388ec)" style="fill: none; stroke-dasharray: 2.96,1.28; stroke-dashoffset: 0; stroke: var(--grid-color); stroke-width: 0.8"/>
     </g>
     <g id="line2d_18">
      <g>
       <use xlink:href="#m1cc7490fa3" x="35.96" y="20.046047" style="fill: var(--fg-color); stroke: var(--fg-color); stroke-width: 0.8"/>
      </g>
     </g>
     <g id="text_9">
      <text style="font-size: 7px; font-family: 'DejaVu Sans', 'Bitstream Vera Sans', 'Computer Modern Sans Serif', 'Lucida Grande', 'Verdana', 'Geneva', 'Lucid', 'Arial', 'Helvetica', 'Avant Garde', sans-serif; text-anchor: end; fill: var(--fg-color)" x="28.96" y="22.705227" transform="rotate(-0 28.96 22.705227)">100</text>
     </g>
    </g>
    <g id="text_10">
     <text style="font-size: 7px; font-family: 'DejaVu Sans', 'Bitstream Vera Sans', 'Computer Modern Sans Serif', 'Lucida Grande', 'Verdana', 'Geneva', 'Lucid', 'Arial', 'Helvetica', 'Avant Garde', sans-serif; text-anchor: middle; fill: var(--fg-color)" x="9.917109" y="54.2" transform="rotate(-90 9.917109 54.2)">ms</text>
    </g>
   </g>
   <g id="line2d_19">
    <path d="M 43.916364 46.63625 
L 45.193108 40.640326 
L 45.766628 46.288822 
L 46.691788 44.856685 
L 47.616947 42.192541 
L 48.542109 43.289259 
L 49.467263 40.401769 
L 50.392418 47.398349 
L 51.317566 44.822263 
L 52.242732 47.225435 
L 53.167891 48.413413 
L 54.093049 41.985206 
L 55.018206 43.761568 
L 55.943359 38.955223 
L 56.868517 42.752108 
L 57.793676 40.456205 
L 58.718827 42.882593 
L 59.643987 45.589965 
L 60.569143 44.137014 
L 61.494301 44.717394 
L 62.419457 44.263497 
L 63.344613 44.241082 
L 64.269773 46.645856 
L 65.194924 44.866291 
L 66.120079 45.607577 
L 67.045243 47.264661 
L 67.970398 48.209279 
L 68.895557 46.535384 
L 69.82071 43.206005 
L 70.74585 43.747159 
L 71.671025 42.090875 
L 72.596178 47.485606 
L 73.521341 43.295663 
L 74.446495 39.048084 
L 75.371653 47.09495 
L 76.296805 43.555033 
L 77.221971 47.786603 
L 78.147114 42.704877 
L 79.072277 47.204622 
L 79.997435 43.603865 
L 80.922594 43.406136 
L 81.847735 42.423092 
L 82.772905 31.002018 
L 83.698046 42.835362 
L 84.623219 44.177841 
L 85.548376 44.219468 
L 86.473535 45.229729 
L 87.398688 43.53502 
L 88.323852 41.234314 
L 97.76512 20.821755 
L 98.500856 14.829833 
L 99.426031 18.600301 
L 100.351186 9.472727 
L 101.276348 47.250252 
L 102.201502 43.486989 
L 103.126656 46.198363 
L 104.051812 46.601827 
L 104.976967 48.601536 
L 105.902123 48.318951 
L 106.827282 44.137014 
L 107.752435 43.293262 
L 108.677594 45.184099 
L 109.602753 46.060673 
L 110.527909 43.844823 
L 111.453063 49.779907 
L 112.378223 44.81906 
L 113.303377 42.978656 
L 114.228537 44.416397 
L 115.153695 46.231985 
L 116.078848 47.52243 
L 117.004011 49.253963 
L 117.929158 48.084398 
L 118.854316 39.169763 
L 119.779481 47.168598 
L 120.704637 45.757274 
L 121.629794 33.245886 
L 122.554943 48.555906 
L 123.480104 44.661357 
L 124.405261 35.48255 
L 125.330416 41.186283 
L 126.255574 36.086145 
L 129.9562 46.982076 
L 130.881363 45.52112 
L 131.806516 39.277834 
L 132.731673 43.822408 
L 133.656831 43.831214 
L 134.581987 38.952821 
L 135.507147 45.023995 
L 136.432285 40.615509 
L 137.357455 37.002745 
L 138.282617 42.088473 
L 139.20777 43.530217 
L 140.13293 39.377099 
L 141.058084 42.125297 
L 141.983242 40.635522 
L 142.908395 43.467776 
L 143.833556 37.906536 
L 144.758724 39.889434 
L 145.683869 29.35534 
L 146.609028 37.406209 
L 147.534182 40.364145 
L 148.459339 41.198291 
L 149.384497 36.970724 
L 150.309651 43.037895 
L 151.234811 40.729984 
L 152.159963 38.000998 
L 179.91473 38.000998 
L 188.548948 43.622277 
L 189.166282 44.171437 
L 190.091439 39.192178 
L 191.016594 43.132357 
L 191.94175 37.525487 
L 192.866913 43.545427 
L 193.792066 46.839583 
L 194.717222 46.039859 
L 195.642377 43.055506 
L 196.567536 46.675475 
L 197.492695 46.970869 
L 198.417852 39.978292 
L 199.343013 44.798247 
L 200.268162 46.817168 
L 201.193322 42.153316 
L 202.118478 45.209716 
L 203.043636 41.297556 
" clip-path="url(#pe7621388ec)" style="fill: none; stroke: #339af0; stroke-width: 1.2; stroke-linecap: square"/>
   </g>
   <g id="line2d_20">
    <path d="M 43.916364 98.87684 
L 45.193108 98.742352 
L 45.766628 98.891249 
L 46.691788 98.858428 
L 47.616947 97.468718 
L 48.542109 98.699123 
L 49.467263 98.820003 
L 50.392418 98.864031 
L 51.317566 98.899254 
L 52.242732 98.90726 
L 53.167891 98.879241 
L 54.093049 98.793585 
L 55.018206 98.80079 
L 55.943359 98.896853 
L 56.868517 98.84642 
L 57.793676 98.849622 
L 58.718827 98.830409 
L 59.643987 98.880842 
L 60.569143 98.83201 
L 61.494301 98.849622 
L 62.419457 98.816 
L 63.344613 98.86243 
L 64.269773 98.845619 
L 65.194924 98.868834 
L 66.120079 98.913664 
L 67.045243 98.882443 
L 67.970398 98.89205 
L 68.895557 98.390121 
L 69.82071 98.837614 
L 70.74585 98.821604 
L 71.671025 98.840816 
L 72.596178 98.90726 
L 73.521341 98.842417 
L 74.446495 98.820803 
L 75.371653 98.828008 
L 76.296805 98.783979 
L 77.221971 98.855226 
L 78.147114 98.890449 
L 79.072277 98.893651 
L 79.997435 98.850422 
L 80.922594 98.789583 
L 81.847735 98.885645 
L 82.772905 98.789583 
L 83.698046 98.827207 
L 84.623219 98.874438 
L 85.548376 98.8168 
L 86.473535 96.796278 
L 87.398688 98.900055 
L 88.323852 98.887247 
L 97.76512 98.910462 
L 98.500856 98.75436 
L 99.426031 98.790383 
L 100.351186 98.845619 
L 101.276348 98.86243 
L 102.201502 98.868034 
L 103.126656 98.804793 
L 104.051812 98.838415 
L 104.976967 98.820003 
L 105.902123 98.916866 
L 106.827282 98.833611 
L 107.752435 98.891249 
L 108.677594 98.031486 
L 109.602753 98.841617 
L 110.527909 98.866433 
L 111.453063 98.916866 
L 112.378223 98.795186 
L 113.303377 97.420687 
L 114.228537 98.821604 
L 115.153695 98.823205 
L 116.078848 98.890449 
L 117.004011 98.913664 
L 117.929158 98.828008 
L 118.854316 98.73995 
L 119.779481 98.927273 
L 120.704637 98.815199 
L 121.629794 98.857627 
L 122.554943 98.833611 
L 123.480104 98.782378 
L 124.405261 98.746354 
L 125.330416 98.712732 
L 126.255574 98.591053 
L 129.9562 98.755961 
L 130.881363 98.712732 
L 131.806516 98.734346 
L 132.731673 98.778375 
L 133.656831 98.780777 
L 134.581987 98.623874 
L 135.507147 98.70953 
L 136.432285 98.692719 
L 137.357455 98.647089 
L 138.282617 98.720738 
L 139.20777 98.697522 
L 140.13293 98.651092 
L 141.058084 98.711932 
L 141.983242 98.604662 
L 142.908395 98.727942 
L 143.833556 98.646289 
L 144.758724 98.646289 
L 145.683869 98.703126 
L 146.609028 98.717535 
L 147.534182 98.658297 
L 148.459339 98.701525 
L 149.384497 98.6639 
L 150.309651 98.69432 
L 151.234811 97.114887 
L 152.159963 98.631879 
L 179.91473 98.631879 
L 188.548948 98.742352 
L 189.166282 98.731945 
L 190.091439 98.67831 
L 191.016594 98.810396 
L 191.94175 98.76957 
L 192.866913 98.89285 
L 193.792066 98.888047 
L 194.717222 98.901656 
L 195.642377 98.791984 
L 196.567536 98.926472 
L 197.492695 98.92327 
L 198.417852 98.710331 
L 199.343013 98.775173 
L 200.268162 98.819202 
L 201.193322 98.842417 
L 202.118478 98.834412 
L 203.043636 98.763165 
" clip-path="url(#pe7621388ec)" style="fill: none; stroke: #ff6b6b; stroke-width: 1.2; stroke-linecap: square"/>
   </g>
   <g id="patch_3">
    <path d="M 35.96 103.4 
L 35.96 5 
" style="fill: none; stroke: var(--fg-color); stroke-width: 0.8; stroke-linejoin: miter; stroke-linecap: square"/>
   </g>
   <g id="patch_4">
    <path d="M 35.96 103.4 
L 211 103.4 
" style="fill: none; stroke: var(--fg-color); stroke-width: 0.8; stroke-linejoin: miter; stroke-linecap: square"/>
   </g>
  </g>
 </g>
 <defs>
  <clipPath id="pe7621388ec">
   <rect x="35.96" y="5" width="175.04" height="98.4"/>
  </clipPath>
 </defs>
</svg>
