<?xml version="1.0" encoding="utf-8" standalone="no"?>
<!DOCTYPE svg PUBLIC "-//W3C//DTD SVG 1.1//EN"
  "http://www.w3.org/Graphics/SVG/1.1/DTD/svg11.dtd">
<svg xmlns:xlink="http://www.w3.org/1999/xlink" width="216pt" height="122.4pt" viewBox="0 0 216 122.4" xmlns="http://www.w3.org/2000/svg" version="1.1">
  <style>
    :root {
      --fg-color: #212529;
      --grid-color: rgba(33, 37, 41, 0.1);
    }
    @media (prefers-color-scheme: dark) {
      :root {
        --fg-color: #dee2e6;
        --grid-color: rgba(248, 249, 250, 0.15);
      }
    }
  </style>

 <metadata>
  <rdf:RDF xmlns:dc="http://purl.org/dc/elements/1.1/" xmlns:cc="http://creativecommons.org/ns#" xmlns:rdf="http://www.w3.org/1999/02/22-rdf-syntax-ns#">
   <cc:Work>
    <dc:type rdf:resource="http://purl.org/dc/dcmitype/StillImage"/>
    <dc:date>2026-06-30T15:37:35.316061</dc:date>
    <dc:format>image/svg+xml</dc:format>
    <dc:creator>
     <cc:Agent>
      <dc:title>Matplotlib v3.11.0, https://matplotlib.org/</dc:title>
     </cc:Agent>
    </dc:creator>
   </cc:Work>
  </rdf:RDF>
 </metadata>
 <defs>
  <style type="text/css">*{stroke-linejoin: round; stroke-linecap: butt}</style>
 </defs>
 <g id="figure_1">
  <g id="patch_1">
   <path d="M 0 122.4 
L 216 122.4 
L 216 0 
L 0 0 
L 0 122.4 
z
" style="fill: none; opacity: 0"/>
  </g>
  <g id="axes_1">
   <g id="patch_2">
    <path d="M 35.96 103.4 
L 211 103.4 
L 211 5 
L 35.96 5 
L 35.96 103.4 
z
" style="fill: none; opacity: 0"/>
   </g>
   <g id="matplotlib.axis_1">
    <g id="xtick_1">
     <g id="line2d_1">
      <path d="M 69.784035 103.4 
L 69.784035 5 
" clip-path="url(#p9cf0cd37e3)" style="fill: none; stroke-dasharray: 2.96,1.28; stroke-dashoffset: 0; stroke: var(--grid-color); stroke-width: 0.8"/>
     </g>
     <g id="line2d_2">
      <defs>
       <path id="ma7ac05119b" d="M 0 0 
L 0 3.5 
" style="stroke: var(--fg-color); stroke-width: 0.8"/>
      </defs>
      <g>
       <use xlink:href="#ma7ac05119b" x="69.784035" y="103.4" style="fill: var(--fg-color); stroke: var(--fg-color); stroke-width: 0.8"/>
      </g>
     </g>
     <g id="text_1">
      <text style="font-size: 7px; font-family: 'DejaVu Sans', 'Bitstream Vera Sans', 'Computer Modern Sans Serif', 'Lucida Grande', 'Verdana', 'Geneva', 'Lucid', 'Arial', 'Helvetica', 'Avant Garde', sans-serif; text-anchor: middle; fill: var(--fg-color)" x="69.784035" y="115.718359" transform="rotate(-0 69.784035 115.718359)">02/2026</text>
     </g>
    </g>
    <g id="xtick_2">
     <g id="line2d_3">
      <path d="M 122.345302 103.4 
L 122.345302 5 
" clip-path="url(#p9cf0cd37e3)" style="fill: none; stroke-dasharray: 2.96,1.28; stroke-dashoffset: 0; stroke: var(--grid-color); stroke-width: 0.8"/>
     </g>
     <g id="line2d_4">
      <g>
       <use xlink:href="#ma7ac05119b" x="122.345302" y="103.4" style="fill: var(--fg-color); stroke: var(--fg-color); stroke-width: 0.8"/>
      </g>
     </g>
     <g id="text_2">
      <text style="font-size: 7px; font-family: 'DejaVu Sans', 'Bitstream Vera Sans', 'Computer Modern Sans Serif', 'Lucida Grande', 'Verdana', 'Geneva', 'Lucid', 'Arial', 'Helvetica', 'Avant Garde', sans-serif; text-anchor: middle; fill: var(--fg-color)" x="122.345302" y="115.718359" transform="rotate(-0 122.345302 115.718359)">04/2026</text>
     </g>
    </g>
    <g id="xtick_3">
     <g id="line2d_5">
      <path d="M 176.688307 103.4 
L 176.688307 5 
" clip-path="url(#p9cf0cd37e3)" style="fill: none; stroke-dasharray: 2.96,1.28; stroke-dashoffset: 0; stroke: var(--grid-color); stroke-width: 0.8"/>
     </g>
     <g id="line2d_6">
      <g>
       <use xlink:href="#ma7ac05119b" x="176.688307" y="103.4" style="fill: var(--fg-color); stroke: var(--fg-color); stroke-width: 0.8"/>
      </g>
     </g>
     <g id="text_3">
      <text style="font-size: 7px; font-family: 'DejaVu Sans', 'Bitstream Vera Sans', 'Computer Modern Sans Serif', 'Lucida Grande', 'Verdana', 'Geneva', 'Lucid', 'Arial', 'Helvetica', 'Avant Garde', sans-serif; text-anchor: middle; fill: var(--fg-color)" x="176.688307" y="115.718359" transform="rotate(-0 176.688307 115.718359)">06/2026</text>
     </g>
    </g>
   </g>
   <g id="matplotlib.axis_2">
    <g id="ytick_1">
     <g id="line2d_7">
      <path d="M 35.96 101.85909 
L 211 101.85909 
" clip-path="url(#p9cf0cd37e3)" style="fill: none; stroke-dasharray: 2.96,1.28; stroke-dashoffset: 0; stroke: var(--grid-color); stroke-width: 0.8"/>
     </g>
     <g id="line2d_8">
      <defs>
       <path id="m4a6a8ab9c0" d="M 0 0 
L -3.5 0 
" style="stroke: var(--fg-color); stroke-width: 0.8"/>
      </defs>
      <g>
       <use xlink:href="#m4a6a8ab9c0" x="35.96" y="101.85909" style="fill: var(--fg-color); stroke: var(--fg-color); stroke-width: 0.8"/>
      </g>
     </g>
     <g id="text_4">
      <text style="font-size: 7px; font-family: 'DejaVu Sans', 'Bitstream Vera Sans', 'Computer Modern Sans Serif', 'Lucida Grande', 'Verdana', 'Geneva', 'Lucid', 'Arial', 'Helvetica', 'Avant Garde', sans-serif; text-anchor: end; fill: var(--fg-color)" x="28.96" y="104.51827" transform="rotate(-0 28.96 104.51827)">0</text>
     </g>
    </g>
    <g id="ytick_2">
     <g id="line2d_9">
      <path d="M 35.96 79.992909 
L 211 79.992909 
" clip-path="url(#p9cf0cd37e3)" style="fill: none; stroke-dasharray: 2.96,1.28; stroke-dashoffset: 0; stroke: var(--grid-color); stroke-width: 0.8"/>
     </g>
     <g id="line2d_10">
      <g>
       <use xlink:href="#m4a6a8ab9c0" x="35.96" y="79.992909" style="fill: var(--fg-color); stroke: var(--fg-color); stroke-width: 0.8"/>
      </g>
     </g>
     <g id="text_5">
      <text style="font-size: 7px; font-family: 'DejaVu Sans', 'Bitstream Vera Sans', 'Computer Modern Sans Serif', 'Lucida Grande', 'Verdana', 'Geneva', 'Lucid', 'Arial', 'Helvetica', 'Avant Garde', sans-serif; text-anchor: end; fill: var(--fg-color)" x="28.96" y="82.652089" transform="rotate(-0 28.96 82.652089)">50</text>
     </g>
    </g>
    <g id="ytick_3">
     <g id="line2d_11">
      <path d="M 35.96 58.126729 
L 211 58.126729 
" clip-path="url(#p9cf0cd37e3)" style="fill: none; stroke-dasharray: 2.96,1.28; stroke-dashoffset: 0; stroke: var(--grid-color); stroke-width: 0.8"/>
     </g>
     <g id="line2d_12">
      <g>
       <use xlink:href="#m4a6a8ab9c0" x="35.96" y="58.126729" style="fill: var(--fg-color); stroke: var(--fg-color); stroke-width: 0.8"/>
      </g>
     </g>
     <g id="text_6">
      <text style="font-size: 7px; font-family: 'DejaVu Sans', 'Bitstream Vera Sans', 'Computer Modern Sans Serif', 'Lucida Grande', 'Verdana', 'Geneva', 'Lucid', 'Arial', 'Helvetica', 'Avant Garde', sans-serif; text-anchor: end; fill: var(--fg-color)" x="28.96" y="60.785908" transform="rotate(-0 28.96 60.785908)">100</text>
     </g>
    </g>
    <g id="ytick_4">
     <g id="line2d_13">
      <path d="M 35.96 36.260548 
L 211 36.260548 
" clip-path="url(#p9cf0cd37e3)" style="fill: none; stroke-dasharray: 2.96,1.28; stroke-dashoffset: 0; stroke: var(--grid-color); stroke-width: 0.8"/>
     </g>
     <g id="line2d_14">
      <g>
       <use xlink:href="#m4a6a8ab9c0" x="35.96" y="36.260548" style="fill: var(--fg-color); stroke: var(--fg-color); stroke-width: 0.8"/>
      </g>
     </g>
     <g id="text_7">
      <text style="font-size: 7px; font-family: 'DejaVu Sans', 'Bitstream Vera Sans', 'Computer Modern Sans Serif', 'Lucida Grande', 'Verdana', 'Geneva', 'Lucid', 'Arial', 'Helvetica', 'Avant Garde', sans-serif; text-anchor: end; fill: var(--fg-color)" x="28.96" y="38.919728" transform="rotate(-0 28.96 38.919728)">150</text>
     </g>
    </g>
    <g id="ytick_5">
     <g id="line2d_15">
      <path d="M 35.96 14.394367 
L 211 14.394367 
" clip-path="url(#p9cf0cd37e3)" style="fill: none; stroke-dasharray: 2.96,1.28; stroke-dashoffset: 0; stroke: var(--grid-color); stroke-width: 0.8"/>
     </g>
     <g id="line2d_16">
      <g>
       <use xlink:href="#m4a6a8ab9c0" x="35.96" y="14.394367" style="fill: var(--fg-color); stroke: var(--fg-color); stroke-width: 0.8"/>
      </g>
     </g>
     <g id="text_8">
      <text style="font-size: 7px; font-family: 'DejaVu Sans', 'Bitstream Vera Sans', 'Computer Modern Sans Serif', 'Lucida Grande', 'Verdana', 'Geneva', 'Lucid', 'Arial', 'Helvetica', 'Avant Garde', sans-serif; text-anchor: end; fill: var(--fg-color)" x="28.96" y="17.053547" transform="rotate(-0 28.96 17.053547)">200</text>
     </g>
    </g>
    <g id="text_9">
     <text style="font-size: 7px; font-family: 'DejaVu Sans', 'Bitstream Vera Sans', 'Computer Modern Sans Serif', 'Lucida Grande', 'Verdana', 'Geneva', 'Lucid', 'Arial', 'Helvetica', 'Avant Garde', sans-serif; text-anchor: middle; fill: var(--fg-color)" x="9.917109" y="54.2" transform="rotate(-90 9.917109 54.2)">ms</text>
    </g>
   </g>
   <g id="line2d_17">
    <path d="M 43.916364 47.521194 
L 44.468628 45.225245 
L 45.3595 52.20493 
L 46.250371 46.10995 
L 47.141245 42.369084 
L 48.032112 47.210257 
L 49.81384 43.689364 
L 50.704717 49.521512 
L 51.595589 49.603729 
L 52.486458 47.08387 
L 53.377327 47.173521 
L 54.268192 50.52998 
L 55.159063 48.127324 
L 56.049934 48.105895 
L 56.940797 49.431861 
L 57.831669 45.47758 
L 58.722538 48.393654 
L 59.613407 45.833999 
L 60.504275 47.522506 
L 61.395144 49.687695 
L 62.286016 47.425857 
L 63.176879 48.414646 
L 64.067746 47.65414 
L 64.958622 49.402997 
L 65.84949 9.472727 
L 66.740361 50.008253 
L 67.631226 40.189901 
L 68.522078 50.962493 
L 69.412965 51.419496 
L 70.30383 50.133765 
L 71.194705 47.309529 
L 72.085571 49.34702 
L 72.976442 46.830222 
L 73.867306 52.999984 
L 74.758184 52.026502 
L 75.649039 48.227034 
L 76.539914 50.169626 
L 77.430784 48.111581 
L 78.321655 50.20811 
L 79.212509 47.332707 
L 80.103391 52.133646 
L 80.994245 47.808515 
L 81.885129 48.289134 
L 82.775998 50.710595 
L 83.666869 48.917131 
L 84.557735 48.00881 
L 94.53997 33.914307 
L 95.248438 30.530734 
L 96.139324 40.13611 
L 97.030192 32.28134 
L 97.921065 49.890176 
L 98.811931 49.224132 
L 99.702798 54.608023 
L 100.593666 48.174993 
L 101.484533 49.04789 
L 102.375401 47.767844 
L 103.266272 51.035964 
L 104.157138 50.122832 
L 105.048009 52.334377 
L 105.93888 44.573633 
L 106.829748 51.494716 
L 107.720614 51.642969 
L 108.611487 47.824696 
L 109.502352 51.369642 
L 110.393224 51.318912 
L 111.284094 48.519604 
L 112.17496 50.246157 
L 113.065834 50.247469 
L 113.956695 51.011474 
L 114.847564 48.495988 
L 115.738441 49.289293 
L 117.520178 50.386538 
L 118.41104 49.356641 
L 119.301913 48.133447 
L 120.192782 49.29629 
L 121.083649 49.271363 
L 121.97452 48.036798 
L 125.537994 49.144102 
L 126.428869 47.954144 
L 127.319734 46.518411 
L 128.210603 48.663483 
L 129.101474 44.935737 
L 129.992342 47.253114 
L 130.883214 49.908543 
L 131.774065 46.672786 
L 132.664946 49.741048 
L 133.55582 46.761125 
L 134.446686 45.173203 
L 136.228424 52.094724 
L 137.119294 45.470146 
L 138.010159 47.090867 
L 138.901032 47.626589 
L 139.791912 47.686939 
L 140.68277 46.814479 
L 141.57364 45.718546 
L 142.464507 44.004237 
L 143.355376 45.429912 
L 144.246246 44.844773 
L 145.137113 50.109712 
L 146.027984 44.377274 
L 146.918849 44.752935 
L 173.644977 44.752935 
L 182.553652 47.23912 
L 183.444521 48.585202 
L 184.335387 51.827957 
L 185.226256 24.223653 
L 186.117131 46.125694 
L 187.007996 46.714769 
L 187.898864 48.458816 
L 188.789731 47.994815 
L 189.680603 45.715922 
L 190.571474 48.488116 
L 191.462343 45.182824 
L 192.353215 49.946153 
L 193.244077 48.954741 
L 194.134949 48.653862 
L 195.025817 45.232679 
L 195.916688 47.032703 
L 196.807557 50.761762 
L 197.698426 44.872325 
L 198.589295 48.205605 
L 199.480162 49.137979 
L 200.371032 46.070154 
L 201.261898 50.568027 
L 202.152766 50.645871 
L 203.043636 47.105299 
L 203.043636 47.105299 
" clip-path="url(#p9cf0cd37e3)" style="fill: none; stroke: #339af0; stroke-width: 1.2; stroke-linecap: square"/>
   </g>
   <g id="line2d_18">
    <path d="M 43.916364 97.987902 
L 44.468628 98.817067 
L 45.3595 97.366902 
L 46.250371 97.636731 
L 47.141245 97.459177 
L 48.032112 96.703045 
L 49.81384 96.967626 
L 50.704717 98.000584 
L 51.595589 98.643012 
L 52.486458 97.371275 
L 53.377327 98.417353 
L 54.268192 98.456713 
L 55.159063 98.067932 
L 56.940797 97.633232 
L 57.831669 96.66631 
L 58.722538 97.407573 
L 59.613407 95.547199 
L 60.504275 97.848395 
L 61.395144 98.072742 
L 62.286016 96.755524 
L 63.176879 98.120411 
L 64.067746 97.05684 
L 64.958622 97.826529 
L 65.84949 96.496191 
L 66.740361 97.020542 
L 68.522078 96.874038 
L 69.412965 96.197936 
L 70.30383 98.201316 
L 71.194705 97.313549 
L 72.085571 97.037597 
L 72.976442 97.270254 
L 73.867306 98.136592 
L 74.758184 95.345155 
L 75.649039 97.719822 
L 76.539914 96.680741 
L 77.430784 97.913557 
L 78.321655 97.788045 
L 79.212509 95.861197 
L 80.103391 97.983966 
L 80.994245 97.115441 
L 81.885129 98.119973 
L 82.775998 96.756836 
L 83.666869 97.413258 
L 84.557735 97.791106 
L 85.44861 95.711195 
L 94.53997 98.927273 
L 95.248438 97.405387 
L 96.139324 97.580753 
L 97.921065 97.603931 
L 98.811931 97.239641 
L 99.702798 98.182073 
L 100.593666 97.754808 
L 102.375401 97.134683 
L 103.266272 97.754371 
L 104.157138 96.566163 
L 105.048009 98.03557 
L 105.93888 97.505534 
L 106.829748 98.601467 
L 107.720614 97.35422 
L 109.502352 97.339788 
L 110.393224 95.850264 
L 111.284094 97.660784 
L 112.17496 96.008575 
L 113.065834 95.427809 
L 113.956695 97.345036 
L 114.847564 97.814284 
L 115.738441 96.078547 
L 116.629309 97.662096 
L 117.520178 97.261944 
L 118.41104 97.970846 
L 119.301913 96.894155 
L 120.192782 98.091547 
L 121.083649 97.676527 
L 121.97452 96.290211 
L 125.537994 96.805379 
L 126.428869 96.764707 
L 127.319734 97.572444 
L 128.210603 96.957567 
L 129.101474 97.146054 
L 129.992342 97.02404 
L 130.883214 95.717755 
L 131.774065 97.39008 
L 132.664946 96.879286 
L 133.55582 97.944169 
L 134.446686 97.893877 
L 135.337558 97.266755 
L 136.228424 96.502313 
L 137.119294 97.071271 
L 138.010159 95.366147 
L 138.901032 96.893281 
L 139.791912 97.58775 
L 140.68277 96.047059 
L 141.57364 95.928545 
L 142.464507 95.59268 
L 143.355376 97.42769 
L 144.246246 95.564254 
L 146.027984 96.42928 
L 146.918849 95.967029 
L 173.644977 95.967029 
L 181.959197 95.424748 
L 182.553652 96.862668 
L 184.335387 96.414849 
L 185.226256 94.479692 
L 187.007996 96.263972 
L 187.898864 96.163825 
L 188.789731 97.790669 
L 189.680603 97.041971 
L 190.571474 96.544296 
L 191.462343 95.076201 
L 192.353215 94.993547 
L 193.244077 95.344718 
L 194.134949 97.578567 
L 195.025817 95.986709 
L 195.916688 95.060895 
L 196.807557 96.630449 
L 197.698426 95.435681 
L 198.589295 95.278244 
L 199.480162 94.778384 
L 200.371032 95.500405 
L 201.261898 97.299554 
L 202.152766 95.501717 
L 203.043636 95.771546 
L 203.043636 95.771546 
" clip-path="url(#p9cf0cd37e3)" style="fill: none; stroke: #ff6b6b; stroke-width: 1.2; stroke-linecap: square"/>
   </g>
   <g id="patch_3">
    <path d="M 35.96 103.4 
L 35.96 5 
" style="fill: none; stroke: var(--fg-color); stroke-width: 0.8; stroke-linejoin: miter; stroke-linecap: square"/>
   </g>
   <g id="patch_4">
    <path d="M 35.96 103.4 
L 211 103.4 
" style="fill: none; stroke: var(--fg-color); stroke-width: 0.8; stroke-linejoin: miter; stroke-linecap: square"/>
   </g>
  </g>
 </g>
 <defs>
  <clipPath id="p9cf0cd37e3">
   <rect x="35.96" y="5" width="175.04" height="98.4"/>
  </clipPath>
 </defs>
</svg>
