<?xml version="1.0" encoding="utf-8" standalone="no"?>
<!DOCTYPE svg PUBLIC "-//W3C//DTD SVG 1.1//EN"
  "http://www.w3.org/Graphics/SVG/1.1/DTD/svg11.dtd">
<svg xmlns:xlink="http://www.w3.org/1999/xlink" width="216pt" height="122.4pt" viewBox="0 0 216 122.4" xmlns="http://www.w3.org/2000/svg" version="1.1">
  <style>
    :root {
      --fg-color: #212529;
      --grid-color: rgba(33, 37, 41, 0.1);
    }
    @media (prefers-color-scheme: dark) {
      :root {
        --fg-color: #dee2e6;
        --grid-color: rgba(248, 249, 250, 0.15);
      }
    }
  </style>

 <metadata>
  <rdf:RDF xmlns:dc="http://purl.org/dc/elements/1.1/" xmlns:cc="http://creativecommons.org/ns#" xmlns:rdf="http://www.w3.org/1999/02/22-rdf-syntax-ns#">
   <cc:Work>
    <dc:type rdf:resource="http://purl.org/dc/dcmitype/StillImage"/>
    <dc:date>2026-06-30T15:36:49.072064</dc:date>
    <dc:format>image/svg+xml</dc:format>
    <dc:creator>
     <cc:Agent>
      <dc:title>Matplotlib v3.11.0, https://matplotlib.org/</dc:title>
     </cc:Agent>
    </dc:creator>
   </cc:Work>
  </rdf:RDF>
 </metadata>
 <defs>
  <style type="text/css">*{stroke-linejoin: round; stroke-linecap: butt}</style>
 </defs>
 <g id="figure_1">
  <g id="patch_1">
   <path d="M 0 122.4 
L 216 122.4 
L 216 0 
L 0 0 
L 0 122.4 
z
" style="fill: none; opacity: 0"/>
  </g>
  <g id="axes_1">
   <g id="patch_2">
    <path d="M 35.96 103.4 
L 211 103.4 
L 211 5 
L 35.96 5 
L 35.96 103.4 
z
" style="fill: none; opacity: 0"/>
   </g>
   <g id="matplotlib.axis_1">
    <g id="xtick_1">
     <g id="line2d_1">
      <path d="M 69.784035 103.4 
L 69.784035 5 
" clip-path="url(#p104a98bcfd)" style="fill: none; stroke-dasharray: 2.96,1.28; stroke-dashoffset: 0; stroke: var(--grid-color); stroke-width: 0.8"/>
     </g>
     <g id="line2d_2">
      <defs>
       <path id="mf69a6a26bc" d="M 0 0 
L 0 3.5 
" style="stroke: var(--fg-color); stroke-width: 0.8"/>
      </defs>
      <g>
       <use xlink:href="#mf69a6a26bc" x="69.784035" y="103.4" style="fill: var(--fg-color); stroke: var(--fg-color); stroke-width: 0.8"/>
      </g>
     </g>
     <g id="text_1">
      <text style="font-size: 7px; font-family: 'DejaVu Sans', 'Bitstream Vera Sans', 'Computer Modern Sans Serif', 'Lucida Grande', 'Verdana', 'Geneva', 'Lucid', 'Arial', 'Helvetica', 'Avant Garde', sans-serif; text-anchor: middle; fill: var(--fg-color)" x="69.784035" y="115.718359" transform="rotate(-0 69.784035 115.718359)">02/2026</text>
     </g>
    </g>
    <g id="xtick_2">
     <g id="line2d_3">
      <path d="M 122.345302 103.4 
L 122.345302 5 
" clip-path="url(#p104a98bcfd)" style="fill: none; stroke-dasharray: 2.96,1.28; stroke-dashoffset: 0; stroke: var(--grid-color); stroke-width: 0.8"/>
     </g>
     <g id="line2d_4">
      <g>
       <use xlink:href="#mf69a6a26bc" x="122.345302" y="103.4" style="fill: var(--fg-color); stroke: var(--fg-color); stroke-width: 0.8"/>
      </g>
     </g>
     <g id="text_2">
      <text style="font-size: 7px; font-family: 'DejaVu Sans', 'Bitstream Vera Sans', 'Computer Modern Sans Serif', 'Lucida Grande', 'Verdana', 'Geneva', 'Lucid', 'Arial', 'Helvetica', 'Avant Garde', sans-serif; text-anchor: middle; fill: var(--fg-color)" x="122.345302" y="115.718359" transform="rotate(-0 122.345302 115.718359)">04/2026</text>
     </g>
    </g>
    <g id="xtick_3">
     <g id="line2d_5">
      <path d="M 176.688307 103.4 
L 176.688307 5 
" clip-path="url(#p104a98bcfd)" style="fill: none; stroke-dasharray: 2.96,1.28; stroke-dashoffset: 0; stroke: var(--grid-color); stroke-width: 0.8"/>
     </g>
     <g id="line2d_6">
      <g>
       <use xlink:href="#mf69a6a26bc" x="176.688307" y="103.4" style="fill: var(--fg-color); stroke: var(--fg-color); stroke-width: 0.8"/>
      </g>
     </g>
     <g id="text_3">
      <text style="font-size: 7px; font-family: 'DejaVu Sans', 'Bitstream Vera Sans', 'Computer Modern Sans Serif', 'Lucida Grande', 'Verdana', 'Geneva', 'Lucid', 'Arial', 'Helvetica', 'Avant Garde', sans-serif; text-anchor: middle; fill: var(--fg-color)" x="176.688307" y="115.718359" transform="rotate(-0 176.688307 115.718359)">06/2026</text>
     </g>
    </g>
   </g>
   <g id="matplotlib.axis_2">
    <g id="ytick_1">
     <g id="line2d_7">
      <path d="M 35.96 99.823917 
L 211 99.823917 
" clip-path="url(#p104a98bcfd)" style="fill: none; stroke-dasharray: 2.96,1.28; stroke-dashoffset: 0; stroke: var(--grid-color); stroke-width: 0.8"/>
     </g>
     <g id="line2d_8">
      <defs>
       <path id="m9b0d0663cf" d="M 0 0 
L -3.5 0 
" style="stroke: var(--fg-color); stroke-width: 0.8"/>
      </defs>
      <g>
       <use xlink:href="#m9b0d0663cf" x="35.96" y="99.823917" style="fill: var(--fg-color); stroke: var(--fg-color); stroke-width: 0.8"/>
      </g>
     </g>
     <g id="text_4">
      <text style="font-size: 7px; font-family: 'DejaVu Sans', 'Bitstream Vera Sans', 'Computer Modern Sans Serif', 'Lucida Grande', 'Verdana', 'Geneva', 'Lucid', 'Arial', 'Helvetica', 'Avant Garde', sans-serif; text-anchor: end; fill: var(--fg-color)" x="28.96" y="102.483097" transform="rotate(-0 28.96 102.483097)">0</text>
     </g>
    </g>
    <g id="ytick_2">
     <g id="line2d_9">
      <path d="M 35.96 83.491601 
L 211 83.491601 
" clip-path="url(#p104a98bcfd)" style="fill: none; stroke-dasharray: 2.96,1.28; stroke-dashoffset: 0; stroke: var(--grid-color); stroke-width: 0.8"/>
     </g>
     <g id="line2d_10">
      <g>
       <use xlink:href="#m9b0d0663cf" x="35.96" y="83.491601" style="fill: var(--fg-color); stroke: var(--fg-color); stroke-width: 0.8"/>
      </g>
     </g>
     <g id="text_5">
      <text style="font-size: 7px; font-family: 'DejaVu Sans', 'Bitstream Vera Sans', 'Computer Modern Sans Serif', 'Lucida Grande', 'Verdana', 'Geneva', 'Lucid', 'Arial', 'Helvetica', 'Avant Garde', sans-serif; text-anchor: end; fill: var(--fg-color)" x="28.96" y="86.15078" transform="rotate(-0 28.96 86.15078)">20</text>
     </g>
    </g>
    <g id="ytick_3">
     <g id="line2d_11">
      <path d="M 35.96 67.159285 
L 211 67.159285 
" clip-path="url(#p104a98bcfd)" style="fill: none; stroke-dasharray: 2.96,1.28; stroke-dashoffset: 0; stroke: var(--grid-color); stroke-width: 0.8"/>
     </g>
     <g id="line2d_12">
      <g>
       <use xlink:href="#m9b0d0663cf" x="35.96" y="67.159285" style="fill: var(--fg-color); stroke: var(--fg-color); stroke-width: 0.8"/>
      </g>
     </g>
     <g id="text_6">
      <text style="font-size: 7px; font-family: 'DejaVu Sans', 'Bitstream Vera Sans', 'Computer Modern Sans Serif', 'Lucida Grande', 'Verdana', 'Geneva', 'Lucid', 'Arial', 'Helvetica', 'Avant Garde', sans-serif; text-anchor: end; fill: var(--fg-color)" x="28.96" y="69.818464" transform="rotate(-0 28.96 69.818464)">40</text>
     </g>
    </g>
    <g id="ytick_4">
     <g id="line2d_13">
      <path d="M 35.96 50.826968 
L 211 50.826968 
" clip-path="url(#p104a98bcfd)" style="fill: none; stroke-dasharray: 2.96,1.28; stroke-dashoffset: 0; stroke: var(--grid-color); stroke-width: 0.8"/>
     </g>
     <g id="line2d_14">
      <g>
       <use xlink:href="#m9b0d0663cf" x="35.96" y="50.826968" style="fill: var(--fg-color); stroke: var(--fg-color); stroke-width: 0.8"/>
      </g>
     </g>
     <g id="text_7">
      <text style="font-size: 7px; font-family: 'DejaVu Sans', 'Bitstream Vera Sans', 'Computer Modern Sans Serif', 'Lucida Grande', 'Verdana', 'Geneva', 'Lucid', 'Arial', 'Helvetica', 'Avant Garde', sans-serif; text-anchor: end; fill: var(--fg-color)" x="28.96" y="53.486148" transform="rotate(-0 28.96 53.486148)">60</text>
     </g>
    </g>
    <g id="ytick_5">
     <g id="line2d_15">
      <path d="M 35.96 34.494652 
L 211 34.494652 
" clip-path="url(#p104a98bcfd)" style="fill: none; stroke-dasharray: 2.96,1.28; stroke-dashoffset: 0; stroke: var(--grid-color); stroke-width: 0.8"/>
     </g>
     <g id="line2d_16">
      <g>
       <use xlink:href="#m9b0d0663cf" x="35.96" y="34.494652" style="fill: var(--fg-color); stroke: var(--fg-color); stroke-width: 0.8"/>
      </g>
     </g>
     <g id="text_8">
      <text style="font-size: 7px; font-family: 'DejaVu Sans', 'Bitstream Vera Sans', 'Computer Modern Sans Serif', 'Lucida Grande', 'Verdana', 'Geneva', 'Lucid', 'Arial', 'Helvetica', 'Avant Garde', sans-serif; text-anchor: end; fill: var(--fg-color)" x="28.96" y="37.153832" transform="rotate(-0 28.96 37.153832)">80</text>
     </g>
    </g>
    <g id="ytick_6">
     <g id="line2d_17">
      <path d="M 35.96 18.162336 
L 211 18.162336 
" clip-path="url(#p104a98bcfd)" style="fill: none; stroke-dasharray: 2.96,1.28; stroke-dashoffset: 0; stroke: var(--grid-color); stroke-width: 0.8"/>
     </g>
     <g id="line2d_18">
      <g>
       <use xlink:href="#m9b0d0663cf" x="35.96" y="18.162336" style="fill: var(--fg-color); stroke: var(--fg-color); stroke-width: 0.8"/>
      </g>
     </g>
     <g id="text_9">
      <text style="font-size: 7px; font-family: 'DejaVu Sans', 'Bitstream Vera Sans', 'Computer Modern Sans Serif', 'Lucida Grande', 'Verdana', 'Geneva', 'Lucid', 'Arial', 'Helvetica', 'Avant Garde', sans-serif; text-anchor: end; fill: var(--fg-color)" x="28.96" y="20.821516" transform="rotate(-0 28.96 20.821516)">100</text>
     </g>
    </g>
    <g id="text_10">
     <text style="font-size: 7px; font-family: 'DejaVu Sans', 'Bitstream Vera Sans', 'Computer Modern Sans Serif', 'Lucida Grande', 'Verdana', 'Geneva', 'Lucid', 'Arial', 'Helvetica', 'Avant Garde', sans-serif; text-anchor: middle; fill: var(--fg-color)" x="9.917109" y="54.2" transform="rotate(-90 9.917109 54.2)">ms</text>
    </g>
   </g>
   <g id="line2d_19">
    <path d="M 43.916364 46.756955 
L 44.468628 47.359618 
L 45.3595 47.230592 
L 46.250371 48.217881 
L 47.141245 45.852145 
L 48.032112 46.680193 
L 48.922979 46.168992 
L 49.81384 45.49855 
L 50.704717 47.293472 
L 51.595589 42.727773 
L 52.486458 46.151026 
L 53.377327 39.902282 
L 54.268192 46.995407 
L 56.049934 43.934731 
L 56.940797 46.392745 
L 57.831669 46.564234 
L 58.722538 45.595728 
L 59.613407 46.668761 
L 60.504275 47.018272 
L 61.395144 31.304951 
L 62.286016 45.322161 
L 63.176879 44.263011 
L 64.067746 46.545452 
L 64.958622 41.418738 
L 65.84949 46.204106 
L 66.740361 47.049304 
L 67.631226 47.438829 
L 68.522078 45.501817 
L 69.412965 42.325998 
L 70.30383 45.994236 
L 71.194705 45.894609 
L 72.085571 42.230454 
L 72.976442 48.751131 
L 73.867306 40.606205 
L 74.758184 44.209931 
L 75.649039 46.877814 
L 76.539914 45.968921 
L 77.430784 48.132953 
L 78.321655 47.692797 
L 79.212509 49.971155 
L 80.103391 27.329665 
L 80.994245 41.579611 
L 81.885129 38.859464 
L 82.775998 46.498088 
L 83.666869 47.356351 
L 84.557735 45.01593 
L 85.44861 44.392852 
L 94.53997 50.453775 
L 95.248438 48.199915 
L 96.139324 50.195724 
L 97.030192 47.148931 
L 97.921065 49.108809 
L 98.811931 48.76093 
L 99.702798 48.277494 
L 100.593666 48.663753 
L 101.484533 49.495068 
L 102.375401 48.92997 
L 103.266272 47.870003 
L 104.157138 42.589765 
L 105.048009 47.087685 
L 105.93888 46.128161 
L 106.829748 48.581275 
L 107.720614 48.748681 
L 108.611487 45.962388 
L 109.502352 48.334657 
L 110.393224 44.412451 
L 111.284094 51.245076 
L 112.17496 50.215323 
L 113.956695 44.993065 
L 114.847564 39.626266 
L 115.738441 48.395903 
L 117.520178 45.132706 
L 118.41104 34.601629 
L 119.301913 45.708421 
L 120.192782 46.534836 
L 121.083649 42.630596 
L 121.97452 44.765229 
L 125.537994 41.16722 
L 126.428869 41.387706 
L 127.319734 41.122306 
L 128.210603 45.82683 
L 129.101474 47.413514 
L 129.992342 40.250977 
L 130.883214 44.618238 
L 131.774065 45.537748 
L 132.664946 45.18497 
L 133.55582 47.280406 
L 134.446686 45.998319 
L 135.337558 45.163738 
L 137.119294 40.647036 
L 138.010159 44.201764 
L 138.901032 44.525144 
L 139.791912 44.024559 
L 140.68277 33.885457 
L 141.57364 45.564696 
L 142.464507 42.836383 
L 143.355376 49.161072 
L 144.246246 46.986424 
L 145.137113 45.39729 
L 146.027984 41.511015 
L 146.918849 46.386212 
L 173.644977 46.386212 
L 181.959197 39.903099 
L 182.553652 44.091521 
L 183.444521 37.95547 
L 184.335387 38.743504 
L 185.226256 33.183167 
L 187.007996 43.26184 
L 187.898864 44.91467 
L 188.789731 38.117977 
L 189.680603 39.873701 
L 190.571474 9.472727 
L 191.462343 42.259852 
L 192.353215 41.641674 
L 193.244077 37.077608 
L 194.134949 34.493836 
L 195.025817 37.016362 
L 195.916688 38.678992 
L 196.807557 41.836028 
L 197.698426 43.019305 
L 198.589295 42.147159 
L 199.480162 39.886766 
L 200.371032 45.414439 
L 201.261898 44.962034 
L 202.152766 45.790082 
L 203.043636 45.87746 
L 203.043636 45.87746 
" clip-path="url(#p104a98bcfd)" style="fill: none; stroke: #339af0; stroke-width: 1.2; stroke-linecap: square"/>
   </g>
   <g id="line2d_20">
    <path d="M 43.916364 98.744351 
L 44.468628 98.81458 
L 55.159063 98.800697 
L 57.831669 98.818663 
L 58.722538 98.74925 
L 60.504275 98.784365 
L 64.067746 98.879092 
L 64.958622 98.737818 
L 68.522078 98.840711 
L 71.194705 98.759866 
L 72.976442 98.830912 
L 74.758184 98.838262 
L 76.539914 98.848878 
L 79.212509 98.903591 
L 80.103391 98.776199 
L 81.885129 98.834179 
L 84.557735 98.806414 
L 85.44861 98.927273 
L 97.030192 98.843978 
L 97.921065 98.706786 
L 98.811931 98.907674 
L 99.702798 98.507532 
L 100.593666 98.802331 
L 101.484533 98.863577 
L 102.375401 98.786815 
L 103.266272 98.574495 
L 105.048009 98.838262 
L 105.93888 98.76395 
L 107.720614 98.883175 
L 110.393224 98.847244 
L 111.284094 98.893791 
L 112.17496 98.81458 
L 113.065834 98.879909 
L 114.847564 98.805597 
L 120.192782 98.739451 
L 121.97452 98.782732 
L 125.537994 98.811313 
L 126.428869 98.679838 
L 127.319734 98.167003 
L 128.210603 98.812947 
L 129.101474 98.808863 
L 129.992342 96.77794 
L 130.883214 98.840711 
L 131.774065 98.75415 
L 132.664946 98.833362 
L 134.446686 98.786815 
L 140.68277 98.710053 
L 141.57364 98.790898 
L 142.464507 98.723935 
L 143.355376 98.802331 
L 144.246246 98.456085 
L 145.137113 98.754967 
L 146.918849 98.784365 
L 183.444521 98.714953 
L 186.117131 98.587561 
L 187.007996 98.769666 
L 187.898864 98.678205 
L 188.789731 98.447919 
L 189.680603 98.509165 
L 191.462343 98.815396 
L 195.916688 98.721486 
L 197.698426 98.76395 
L 199.480162 98.788448 
L 203.043636 98.794981 
L 203.043636 98.794981 
" clip-path="url(#p104a98bcfd)" style="fill: none; stroke: #ff6b6b; stroke-width: 1.2; stroke-linecap: square"/>
   </g>
   <g id="patch_3">
    <path d="M 35.96 103.4 
L 35.96 5 
" style="fill: none; stroke: var(--fg-color); stroke-width: 0.8; stroke-linejoin: miter; stroke-linecap: square"/>
   </g>
   <g id="patch_4">
    <path d="M 35.96 103.4 
L 211 103.4 
" style="fill: none; stroke: var(--fg-color); stroke-width: 0.8; stroke-linejoin: miter; stroke-linecap: square"/>
   </g>
  </g>
 </g>
 <defs>
  <clipPath id="p104a98bcfd">
   <rect x="35.96" y="5" width="175.04" height="98.4"/>
  </clipPath>
 </defs>
</svg>
