<?xml version="1.0" encoding="utf-8" standalone="no"?>
<!DOCTYPE svg PUBLIC "-//W3C//DTD SVG 1.1//EN"
  "http://www.w3.org/Graphics/SVG/1.1/DTD/svg11.dtd">
<svg xmlns:xlink="http://www.w3.org/1999/xlink" width="216pt" height="122.4pt" viewBox="0 0 216 122.4" xmlns="http://www.w3.org/2000/svg" version="1.1">
  <style>
    :root {
      --fg-color: #212529;
      --grid-color: rgba(33, 37, 41, 0.1);
    }
    @media (prefers-color-scheme: dark) {
      :root {
        --fg-color: #dee2e6;
        --grid-color: rgba(248, 249, 250, 0.15);
      }
    }
  </style>

 <metadata>
  <rdf:RDF xmlns:dc="http://purl.org/dc/elements/1.1/" xmlns:cc="http://creativecommons.org/ns#" xmlns:rdf="http://www.w3.org/1999/02/22-rdf-syntax-ns#">
   <cc:Work>
    <dc:type rdf:resource="http://purl.org/dc/dcmitype/StillImage"/>
    <dc:date>2026-06-30T04:48:37.599466</dc:date>
    <dc:format>image/svg+xml</dc:format>
    <dc:creator>
     <cc:Agent>
      <dc:title>Matplotlib v3.11.0, https://matplotlib.org/</dc:title>
     </cc:Agent>
    </dc:creator>
   </cc:Work>
  </rdf:RDF>
 </metadata>
 <defs>
  <style type="text/css">*{stroke-linejoin: round; stroke-linecap: butt}</style>
 </defs>
 <g id="figure_1">
  <g id="patch_1">
   <path d="M 0 122.4 
L 216 122.4 
L 216 0 
L 0 0 
L 0 122.4 
z
" style="fill: none; opacity: 0"/>
  </g>
  <g id="axes_1">
   <g id="patch_2">
    <path d="M 35.96 103.4 
L 211 103.4 
L 211 5 
L 35.96 5 
L 35.96 103.4 
z
" style="fill: none; opacity: 0"/>
   </g>
   <g id="matplotlib.axis_1">
    <g id="xtick_1">
     <g id="line2d_1">
      <path d="M 72.056377 103.4 
L 72.056377 5 
" clip-path="url(#peff4c1644c)" style="fill: none; stroke-dasharray: 2.96,1.28; stroke-dashoffset: 0; stroke: var(--grid-color); stroke-width: 0.8"/>
     </g>
     <g id="line2d_2">
      <defs>
       <path id="m8be4b9ed70" d="M 0 0 
L 0 3.5 
" style="stroke: var(--fg-color); stroke-width: 0.8"/>
      </defs>
      <g>
       <use xlink:href="#m8be4b9ed70" x="72.056377" y="103.4" style="fill: var(--fg-color); stroke: var(--fg-color); stroke-width: 0.8"/>
      </g>
     </g>
     <g id="text_1">
      <text style="font-size: 7px; font-family: 'DejaVu Sans', 'Bitstream Vera Sans', 'Computer Modern Sans Serif', 'Lucida Grande', 'Verdana', 'Geneva', 'Lucid', 'Arial', 'Helvetica', 'Avant Garde', sans-serif; text-anchor: middle; fill: var(--fg-color)" x="72.056377" y="115.718359" transform="rotate(-0 72.056377 115.718359)">02/2026</text>
     </g>
    </g>
    <g id="xtick_2">
     <g id="line2d_3">
      <path d="M 126.640628 103.4 
L 126.640628 5 
" clip-path="url(#peff4c1644c)" style="fill: none; stroke-dasharray: 2.96,1.28; stroke-dashoffset: 0; stroke: var(--grid-color); stroke-width: 0.8"/>
     </g>
     <g id="line2d_4">
      <g>
       <use xlink:href="#m8be4b9ed70" x="126.640628" y="103.4" style="fill: var(--fg-color); stroke: var(--fg-color); stroke-width: 0.8"/>
      </g>
     </g>
     <g id="text_2">
      <text style="font-size: 7px; font-family: 'DejaVu Sans', 'Bitstream Vera Sans', 'Computer Modern Sans Serif', 'Lucida Grande', 'Verdana', 'Geneva', 'Lucid', 'Arial', 'Helvetica', 'Avant Garde', sans-serif; text-anchor: middle; fill: var(--fg-color)" x="126.640628" y="115.718359" transform="rotate(-0 126.640628 115.718359)">04/2026</text>
     </g>
    </g>
    <g id="xtick_3">
     <g id="line2d_5">
      <path d="M 183.075192 103.4 
L 183.075192 5 
" clip-path="url(#peff4c1644c)" style="fill: none; stroke-dasharray: 2.96,1.28; stroke-dashoffset: 0; stroke: var(--grid-color); stroke-width: 0.8"/>
     </g>
     <g id="line2d_6">
      <g>
       <use xlink:href="#m8be4b9ed70" x="183.075192" y="103.4" style="fill: var(--fg-color); stroke: var(--fg-color); stroke-width: 0.8"/>
      </g>
     </g>
     <g id="text_3">
      <text style="font-size: 7px; font-family: 'DejaVu Sans', 'Bitstream Vera Sans', 'Computer Modern Sans Serif', 'Lucida Grande', 'Verdana', 'Geneva', 'Lucid', 'Arial', 'Helvetica', 'Avant Garde', sans-serif; text-anchor: middle; fill: var(--fg-color)" x="183.075192" y="115.718359" transform="rotate(-0 183.075192 115.718359)">06/2026</text>
     </g>
    </g>
   </g>
   <g id="matplotlib.axis_2">
    <g id="ytick_1">
     <g id="line2d_7">
      <path d="M 35.96 99.012877 
L 211 99.012877 
" clip-path="url(#peff4c1644c)" style="fill: none; stroke-dasharray: 2.96,1.28; stroke-dashoffset: 0; stroke: var(--grid-color); stroke-width: 0.8"/>
     </g>
     <g id="line2d_8">
      <defs>
       <path id="m42a8315c46" d="M 0 0 
L -3.5 0 
" style="stroke: var(--fg-color); stroke-width: 0.8"/>
      </defs>
      <g>
       <use xlink:href="#m42a8315c46" x="35.96" y="99.012877" style="fill: var(--fg-color); stroke: var(--fg-color); stroke-width: 0.8"/>
      </g>
     </g>
     <g id="text_4">
      <text style="font-size: 7px; font-family: 'DejaVu Sans', 'Bitstream Vera Sans', 'Computer Modern Sans Serif', 'Lucida Grande', 'Verdana', 'Geneva', 'Lucid', 'Arial', 'Helvetica', 'Avant Garde', sans-serif; text-anchor: end; fill: var(--fg-color)" x="28.96" y="101.672057" transform="rotate(-0 28.96 101.672057)">60</text>
     </g>
    </g>
    <g id="ytick_2">
     <g id="line2d_9">
      <path d="M 35.96 77.875974 
L 211 77.875974 
" clip-path="url(#peff4c1644c)" style="fill: none; stroke-dasharray: 2.96,1.28; stroke-dashoffset: 0; stroke: var(--grid-color); stroke-width: 0.8"/>
     </g>
     <g id="line2d_10">
      <g>
       <use xlink:href="#m42a8315c46" x="35.96" y="77.875974" style="fill: var(--fg-color); stroke: var(--fg-color); stroke-width: 0.8"/>
      </g>
     </g>
     <g id="text_5">
      <text style="font-size: 7px; font-family: 'DejaVu Sans', 'Bitstream Vera Sans', 'Computer Modern Sans Serif', 'Lucida Grande', 'Verdana', 'Geneva', 'Lucid', 'Arial', 'Helvetica', 'Avant Garde', sans-serif; text-anchor: end; fill: var(--fg-color)" x="28.96" y="80.535154" transform="rotate(-0 28.96 80.535154)">80</text>
     </g>
    </g>
    <g id="ytick_3">
     <g id="line2d_11">
      <path d="M 35.96 56.739071 
L 211 56.739071 
" clip-path="url(#peff4c1644c)" style="fill: none; stroke-dasharray: 2.96,1.28; stroke-dashoffset: 0; stroke: var(--grid-color); stroke-width: 0.8"/>
     </g>
     <g id="line2d_12">
      <g>
       <use xlink:href="#m42a8315c46" x="35.96" y="56.739071" style="fill: var(--fg-color); stroke: var(--fg-color); stroke-width: 0.8"/>
      </g>
     </g>
     <g id="text_6">
      <text style="font-size: 7px; font-family: 'DejaVu Sans', 'Bitstream Vera Sans', 'Computer Modern Sans Serif', 'Lucida Grande', 'Verdana', 'Geneva', 'Lucid', 'Arial', 'Helvetica', 'Avant Garde', sans-serif; text-anchor: end; fill: var(--fg-color)" x="28.96" y="59.39825" transform="rotate(-0 28.96 59.39825)">100</text>
     </g>
    </g>
    <g id="ytick_4">
     <g id="line2d_13">
      <path d="M 35.96 35.602167 
L 211 35.602167 
" clip-path="url(#peff4c1644c)" style="fill: none; stroke-dasharray: 2.96,1.28; stroke-dashoffset: 0; stroke: var(--grid-color); stroke-width: 0.8"/>
     </g>
     <g id="line2d_14">
      <g>
       <use xlink:href="#m42a8315c46" x="35.96" y="35.602167" style="fill: var(--fg-color); stroke: var(--fg-color); stroke-width: 0.8"/>
      </g>
     </g>
     <g id="text_7">
      <text style="font-size: 7px; font-family: 'DejaVu Sans', 'Bitstream Vera Sans', 'Computer Modern Sans Serif', 'Lucida Grande', 'Verdana', 'Geneva', 'Lucid', 'Arial', 'Helvetica', 'Avant Garde', sans-serif; text-anchor: end; fill: var(--fg-color)" x="28.96" y="38.261347" transform="rotate(-0 28.96 38.261347)">120</text>
     </g>
    </g>
    <g id="ytick_5">
     <g id="line2d_15">
      <path d="M 35.96 14.465264 
L 211 14.465264 
" clip-path="url(#peff4c1644c)" style="fill: none; stroke-dasharray: 2.96,1.28; stroke-dashoffset: 0; stroke: var(--grid-color); stroke-width: 0.8"/>
     </g>
     <g id="line2d_16">
      <g>
       <use xlink:href="#m42a8315c46" x="35.96" y="14.465264" style="fill: var(--fg-color); stroke: var(--fg-color); stroke-width: 0.8"/>
      </g>
     </g>
     <g id="text_8">
      <text style="font-size: 7px; font-family: 'DejaVu Sans', 'Bitstream Vera Sans', 'Computer Modern Sans Serif', 'Lucida Grande', 'Verdana', 'Geneva', 'Lucid', 'Arial', 'Helvetica', 'Avant Garde', sans-serif; text-anchor: end; fill: var(--fg-color)" x="28.96" y="17.124444" transform="rotate(-0 28.96 17.124444)">140</text>
     </g>
    </g>
    <g id="text_9">
     <text style="font-size: 7px; font-family: 'DejaVu Sans', 'Bitstream Vera Sans', 'Computer Modern Sans Serif', 'Lucida Grande', 'Verdana', 'Geneva', 'Lucid', 'Arial', 'Helvetica', 'Avant Garde', sans-serif; text-anchor: middle; fill: var(--fg-color)" x="9.917109" y="54.2" transform="rotate(-90 9.917109 54.2)">ms</text>
    </g>
   </g>
   <g id="line2d_17">
    <path d="M 43.916364 38.740997 
L 45.193108 32.229774 
L 45.766628 32.460166 
L 46.691788 31.781672 
L 47.616947 31.513233 
L 48.542109 33.306699 
L 49.467263 24.494724 
L 50.392418 34.366715 
L 51.317566 33.335234 
L 52.242732 26.157142 
L 53.167891 32.485531 
L 54.093049 31.301864 
L 55.018206 27.519415 
L 55.943359 36.203512 
L 56.868517 30.056901 
L 57.793676 26.471025 
L 58.718827 31.427629 
L 59.643987 36.935906 
L 60.569143 33.614241 
L 61.494301 35.594769 
L 62.419457 33.666027 
L 63.344613 24.847711 
L 64.269773 26.333635 
L 65.194924 33.286619 
L 66.120079 37.950477 
L 67.045243 22.874581 
L 67.970398 31.987757 
L 68.895557 26.617926 
L 69.82071 24.933315 
L 70.74585 33.853088 
L 71.671025 22.569153 
L 72.596178 25.390929 
L 73.521341 27.396821 
L 74.446495 28.98843 
L 75.371653 27.873458 
L 76.296805 35.626475 
L 77.221971 29.71871 
L 78.147114 26.145517 
L 79.072277 29.452385 
L 79.997435 27.210817 
L 80.922594 27.833298 
L 81.847735 33.64489 
L 82.772905 29.624651 
L 83.698046 33.27288 
L 84.623219 34.27477 
L 85.548376 31.089438 
L 86.473535 34.920502 
L 87.398688 27.896709 
L 88.323852 34.749293 
L 97.76512 23.507631 
L 98.500856 34.655234 
L 99.426031 24.394324 
L 100.351186 31.254306 
L 101.276348 23.332195 
L 102.201502 22.86824 
L 103.126656 22.312339 
L 104.051812 26.533379 
L 104.976967 21.956182 
L 105.902123 33.111183 
L 106.827282 26.638006 
L 107.752435 29.156469 
L 108.677594 23.356502 
L 109.602753 23.489665 
L 110.527909 21.491171 
L 111.453063 25.51458 
L 112.378223 26.425581 
L 113.303377 31.977188 
L 114.228537 22.079833 
L 115.153695 27.549007 
L 116.078848 23.703147 
L 117.004011 23.559417 
L 117.929158 27.952722 
L 118.854316 25.738631 
L 119.779481 32.647228 
L 120.704637 30.036821 
L 121.629794 25.401498 
L 122.554943 26.801817 
L 123.480104 27.52787 
L 124.405261 22.57655 
L 125.330416 21.403452 
L 126.255574 32.170591 
L 129.9562 26.222666 
L 130.881363 23.030994 
L 131.806516 16.785039 
L 132.731673 21.460522 
L 133.656831 20.232468 
L 134.581987 22.817511 
L 135.507147 22.939048 
L 136.432285 17.233141 
L 137.357455 21.436215 
L 138.282617 22.228848 
L 139.20777 19.091075 
L 140.13293 25.399384 
L 141.058084 26.150801 
L 141.983242 18.893445 
L 142.908395 21.067376 
L 143.833556 9.472727 
L 144.758724 24.434484 
L 145.683869 19.908016 
L 146.609028 18.259338 
L 147.534182 21.497512 
L 148.459339 16.793494 
L 149.384497 23.278296 
L 150.309651 14.316249 
L 151.234811 10.236826 
L 152.159963 17.727745 
L 179.91473 17.727745 
L 188.548948 24.68707 
L 189.166282 27.299592 
L 190.091439 25.552626 
L 191.016594 19.005471 
L 191.94175 23.539336 
L 192.866913 23.061642 
L 193.792066 25.468079 
L 194.717222 18.757112 
L 195.642377 25.735461 
L 196.567536 22.597687 
L 197.492695 10.171302 
L 198.417852 26.890592 
L 199.343013 26.741577 
L 200.268162 27.360889 
L 201.193322 21.72262 
L 202.118478 27.576485 
L 203.043636 22.824909 
" clip-path="url(#peff4c1644c)" style="fill: none; stroke: #339af0; stroke-width: 1.2; stroke-linecap: square"/>
   </g>
   <g id="line2d_18">
    <path d="M 43.916364 49.277744 
L 45.193108 47.02772 
L 45.766628 48.181795 
L 46.691788 56.251865 
L 47.616947 50.683348 
L 48.542109 48.933212 
L 49.467263 40.423495 
L 50.392418 60.603953 
L 51.317566 49.249209 
L 52.242732 56.339583 
L 53.167891 52.603635 
L 54.093049 42.162005 
L 55.018206 60.09244 
L 55.943359 48.094077 
L 56.868517 44.133021 
L 57.793676 43.907913 
L 58.718827 55.338751 
L 59.643987 52.677615 
L 60.569143 51.658816 
L 61.494301 51.004629 
L 62.419457 61.19473 
L 63.344613 48.822243 
L 64.269773 53.272618 
L 65.194924 56.71582 
L 66.120079 50.308168 
L 67.045243 52.877358 
L 67.970398 54.321009 
L 68.895557 46.051195 
L 69.82071 43.286488 
L 70.74585 51.905061 
L 71.671025 49.509193 
L 72.596178 55.225668 
L 73.521341 50.367351 
L 74.446495 44.487064 
L 75.371653 50.484661 
L 76.296805 50.475149 
L 77.221971 49.489113 
L 78.147114 46.577504 
L 79.072277 49.825189 
L 79.997435 48.1131 
L 80.922594 52.497951 
L 81.847735 45.112717 
L 82.772905 47.018209 
L 83.698046 55.357774 
L 84.623219 53.337086 
L 85.548376 44.843221 
L 86.473535 48.78314 
L 87.398688 56.036268 
L 88.323852 46.752941 
L 97.76512 51.674668 
L 98.500856 54.279792 
L 99.426031 47.85206 
L 100.351186 42.32793 
L 101.276348 52.210489 
L 102.201502 50.932763 
L 103.126656 88.076643 
L 104.051812 86.471296 
L 104.976967 90.235778 
L 105.902123 85.15658 
L 106.827282 88.204522 
L 107.752435 89.534033 
L 108.677594 85.781176 
L 109.602753 86.489262 
L 110.527909 84.672545 
L 111.453063 90.000102 
L 112.378223 85.1365 
L 113.303377 93.508828 
L 114.228537 88.560678 
L 115.153695 81.119432 
L 116.078848 86.394146 
L 117.004011 88.155907 
L 117.929158 90.346747 
L 118.854316 95.041253 
L 119.779481 89.699958 
L 120.704637 89.706299 
L 121.629794 88.816435 
L 122.554943 87.457332 
L 123.480104 94.583639 
L 124.405261 90.997763 
L 125.330416 91.432127 
L 126.255574 89.331119 
L 129.9562 87.723657 
L 130.881363 81.863451 
L 131.806516 91.31376 
L 132.731673 85.586716 
L 133.656831 88.182328 
L 134.581987 89.896531 
L 135.507147 98.927273 
L 136.432285 90.36577 
L 137.357455 85.839302 
L 138.282617 87.606347 
L 139.20777 83.015412 
L 140.13293 88.746683 
L 141.058084 86.755587 
L 141.983242 86.799974 
L 142.908395 89.564681 
L 143.833556 87.621143 
L 144.758724 91.425786 
L 145.683869 89.489645 
L 146.609028 83.445548 
L 147.534182 93.090317 
L 148.459339 85.696628 
L 149.384497 88.638885 
L 150.309651 92.57669 
L 151.234811 84.198022 
L 152.159963 91.371887 
L 179.91473 91.371887 
L 188.548948 88.460278 
L 189.166282 53.951113 
L 190.091439 66.086866 
L 191.016594 70.109219 
L 191.94175 43.368922 
L 192.866913 84.335412 
L 193.792066 71.71668 
L 194.717222 67.754568 
L 195.642377 60.666307 
L 196.567536 64.477291 
L 197.492695 48.415358 
L 198.417852 65.189604 
L 199.343013 65.796234 
L 200.268162 71.331989 
L 201.193322 70.394567 
L 202.118478 89.59533 
L 203.043636 70.902909 
" clip-path="url(#peff4c1644c)" style="fill: none; stroke: #ff6b6b; stroke-width: 1.2; stroke-linecap: square"/>
   </g>
   <g id="patch_3">
    <path d="M 35.96 103.4 
L 35.96 5 
" style="fill: none; stroke: var(--fg-color); stroke-width: 0.8; stroke-linejoin: miter; stroke-linecap: square"/>
   </g>
   <g id="patch_4">
    <path d="M 35.96 103.4 
L 211 103.4 
" style="fill: none; stroke: var(--fg-color); stroke-width: 0.8; stroke-linejoin: miter; stroke-linecap: square"/>
   </g>
  </g>
 </g>
 <defs>
  <clipPath id="peff4c1644c">
   <rect x="35.96" y="5" width="175.04" height="98.4"/>
  </clipPath>
 </defs>
</svg>
