<?xml version="1.0" encoding="utf-8" standalone="no"?>
<!DOCTYPE svg PUBLIC "-//W3C//DTD SVG 1.1//EN"
  "http://www.w3.org/Graphics/SVG/1.1/DTD/svg11.dtd">
<svg xmlns:xlink="http://www.w3.org/1999/xlink" width="216pt" height="122.4pt" viewBox="0 0 216 122.4" xmlns="http://www.w3.org/2000/svg" version="1.1">
  <style>
    :root {
      --fg-color: #212529;
      --grid-color: rgba(33, 37, 41, 0.1);
    }
    @media (prefers-color-scheme: dark) {
      :root {
        --fg-color: #dee2e6;
        --grid-color: rgba(248, 249, 250, 0.15);
      }
    }
  </style>

 <metadata>
  <rdf:RDF xmlns:dc="http://purl.org/dc/elements/1.1/" xmlns:cc="http://creativecommons.org/ns#" xmlns:rdf="http://www.w3.org/1999/02/22-rdf-syntax-ns#">
   <cc:Work>
    <dc:type rdf:resource="http://purl.org/dc/dcmitype/StillImage"/>
    <dc:date>2026-06-30T15:37:52.783445</dc:date>
    <dc:format>image/svg+xml</dc:format>
    <dc:creator>
     <cc:Agent>
      <dc:title>Matplotlib v3.11.0, https://matplotlib.org/</dc:title>
     </cc:Agent>
    </dc:creator>
   </cc:Work>
  </rdf:RDF>
 </metadata>
 <defs>
  <style type="text/css">*{stroke-linejoin: round; stroke-linecap: butt}</style>
 </defs>
 <g id="figure_1">
  <g id="patch_1">
   <path d="M 0 122.4 
L 216 122.4 
L 216 0 
L 0 0 
L 0 122.4 
z
" style="fill: none; opacity: 0"/>
  </g>
  <g id="axes_1">
   <g id="patch_2">
    <path d="M 35.96 103.4 
L 211 103.4 
L 211 5 
L 35.96 5 
L 35.96 103.4 
z
" style="fill: none; opacity: 0"/>
   </g>
   <g id="matplotlib.axis_1">
    <g id="xtick_1">
     <g id="line2d_1">
      <path d="M 69.784035 103.4 
L 69.784035 5 
" clip-path="url(#pb18bcaf671)" style="fill: none; stroke-dasharray: 2.96,1.28; stroke-dashoffset: 0; stroke: var(--grid-color); stroke-width: 0.8"/>
     </g>
     <g id="line2d_2">
      <defs>
       <path id="m3af6713cf7" d="M 0 0 
L 0 3.5 
" style="stroke: var(--fg-color); stroke-width: 0.8"/>
      </defs>
      <g>
       <use xlink:href="#m3af6713cf7" x="69.784035" y="103.4" style="fill: var(--fg-color); stroke: var(--fg-color); stroke-width: 0.8"/>
      </g>
     </g>
     <g id="text_1">
      <text style="font-size: 7px; font-family: 'DejaVu Sans', 'Bitstream Vera Sans', 'Computer Modern Sans Serif', 'Lucida Grande', 'Verdana', 'Geneva', 'Lucid', 'Arial', 'Helvetica', 'Avant Garde', sans-serif; text-anchor: middle; fill: var(--fg-color)" x="69.784035" y="115.718359" transform="rotate(-0 69.784035 115.718359)">02/2026</text>
     </g>
    </g>
    <g id="xtick_2">
     <g id="line2d_3">
      <path d="M 122.345302 103.4 
L 122.345302 5 
" clip-path="url(#pb18bcaf671)" style="fill: none; stroke-dasharray: 2.96,1.28; stroke-dashoffset: 0; stroke: var(--grid-color); stroke-width: 0.8"/>
     </g>
     <g id="line2d_4">
      <g>
       <use xlink:href="#m3af6713cf7" x="122.345302" y="103.4" style="fill: var(--fg-color); stroke: var(--fg-color); stroke-width: 0.8"/>
      </g>
     </g>
     <g id="text_2">
      <text style="font-size: 7px; font-family: 'DejaVu Sans', 'Bitstream Vera Sans', 'Computer Modern Sans Serif', 'Lucida Grande', 'Verdana', 'Geneva', 'Lucid', 'Arial', 'Helvetica', 'Avant Garde', sans-serif; text-anchor: middle; fill: var(--fg-color)" x="122.345302" y="115.718359" transform="rotate(-0 122.345302 115.718359)">04/2026</text>
     </g>
    </g>
    <g id="xtick_3">
     <g id="line2d_5">
      <path d="M 176.688307 103.4 
L 176.688307 5 
" clip-path="url(#pb18bcaf671)" style="fill: none; stroke-dasharray: 2.96,1.28; stroke-dashoffset: 0; stroke: var(--grid-color); stroke-width: 0.8"/>
     </g>
     <g id="line2d_6">
      <g>
       <use xlink:href="#m3af6713cf7" x="176.688307" y="103.4" style="fill: var(--fg-color); stroke: var(--fg-color); stroke-width: 0.8"/>
      </g>
     </g>
     <g id="text_3">
      <text style="font-size: 7px; font-family: 'DejaVu Sans', 'Bitstream Vera Sans', 'Computer Modern Sans Serif', 'Lucida Grande', 'Verdana', 'Geneva', 'Lucid', 'Arial', 'Helvetica', 'Avant Garde', sans-serif; text-anchor: middle; fill: var(--fg-color)" x="176.688307" y="115.718359" transform="rotate(-0 176.688307 115.718359)">06/2026</text>
     </g>
    </g>
   </g>
   <g id="matplotlib.axis_2">
    <g id="ytick_1">
     <g id="line2d_7">
      <path d="M 35.96 99.491487 
L 211 99.491487 
" clip-path="url(#pb18bcaf671)" style="fill: none; stroke-dasharray: 2.96,1.28; stroke-dashoffset: 0; stroke: var(--grid-color); stroke-width: 0.8"/>
     </g>
     <g id="line2d_8">
      <defs>
       <path id="m114b7cd284" d="M 0 0 
L -3.5 0 
" style="stroke: var(--fg-color); stroke-width: 0.8"/>
      </defs>
      <g>
       <use xlink:href="#m114b7cd284" x="35.96" y="99.491487" style="fill: var(--fg-color); stroke: var(--fg-color); stroke-width: 0.8"/>
      </g>
     </g>
     <g id="text_4">
      <text style="font-size: 7px; font-family: 'DejaVu Sans', 'Bitstream Vera Sans', 'Computer Modern Sans Serif', 'Lucida Grande', 'Verdana', 'Geneva', 'Lucid', 'Arial', 'Helvetica', 'Avant Garde', sans-serif; text-anchor: end; fill: var(--fg-color)" x="28.96" y="102.150667" transform="rotate(-0 28.96 102.150667)">0</text>
     </g>
    </g>
    <g id="ytick_2">
     <g id="line2d_9">
      <path d="M 35.96 75.563819 
L 211 75.563819 
" clip-path="url(#pb18bcaf671)" style="fill: none; stroke-dasharray: 2.96,1.28; stroke-dashoffset: 0; stroke: var(--grid-color); stroke-width: 0.8"/>
     </g>
     <g id="line2d_10">
      <g>
       <use xlink:href="#m114b7cd284" x="35.96" y="75.563819" style="fill: var(--fg-color); stroke: var(--fg-color); stroke-width: 0.8"/>
      </g>
     </g>
     <g id="text_5">
      <text style="font-size: 7px; font-family: 'DejaVu Sans', 'Bitstream Vera Sans', 'Computer Modern Sans Serif', 'Lucida Grande', 'Verdana', 'Geneva', 'Lucid', 'Arial', 'Helvetica', 'Avant Garde', sans-serif; text-anchor: end; fill: var(--fg-color)" x="28.96" y="78.222998" transform="rotate(-0 28.96 78.222998)">100</text>
     </g>
    </g>
    <g id="ytick_3">
     <g id="line2d_11">
      <path d="M 35.96 51.63615 
L 211 51.63615 
" clip-path="url(#pb18bcaf671)" style="fill: none; stroke-dasharray: 2.96,1.28; stroke-dashoffset: 0; stroke: var(--grid-color); stroke-width: 0.8"/>
     </g>
     <g id="line2d_12">
      <g>
       <use xlink:href="#m114b7cd284" x="35.96" y="51.63615" style="fill: var(--fg-color); stroke: var(--fg-color); stroke-width: 0.8"/>
      </g>
     </g>
     <g id="text_6">
      <text style="font-size: 7px; font-family: 'DejaVu Sans', 'Bitstream Vera Sans', 'Computer Modern Sans Serif', 'Lucida Grande', 'Verdana', 'Geneva', 'Lucid', 'Arial', 'Helvetica', 'Avant Garde', sans-serif; text-anchor: end; fill: var(--fg-color)" x="28.96" y="54.29533" transform="rotate(-0 28.96 54.29533)">200</text>
     </g>
    </g>
    <g id="ytick_4">
     <g id="line2d_13">
      <path d="M 35.96 27.708482 
L 211 27.708482 
" clip-path="url(#pb18bcaf671)" style="fill: none; stroke-dasharray: 2.96,1.28; stroke-dashoffset: 0; stroke: var(--grid-color); stroke-width: 0.8"/>
     </g>
     <g id="line2d_14">
      <g>
       <use xlink:href="#m114b7cd284" x="35.96" y="27.708482" style="fill: var(--fg-color); stroke: var(--fg-color); stroke-width: 0.8"/>
      </g>
     </g>
     <g id="text_7">
      <text style="font-size: 7px; font-family: 'DejaVu Sans', 'Bitstream Vera Sans', 'Computer Modern Sans Serif', 'Lucida Grande', 'Verdana', 'Geneva', 'Lucid', 'Arial', 'Helvetica', 'Avant Garde', sans-serif; text-anchor: end; fill: var(--fg-color)" x="28.96" y="30.367662" transform="rotate(-0 28.96 30.367662)">300</text>
     </g>
    </g>
    <g id="text_8">
     <text style="font-size: 7px; font-family: 'DejaVu Sans', 'Bitstream Vera Sans', 'Computer Modern Sans Serif', 'Lucida Grande', 'Verdana', 'Geneva', 'Lucid', 'Arial', 'Helvetica', 'Avant Garde', sans-serif; text-anchor: middle; fill: var(--fg-color)" x="9.917109" y="54.2" transform="rotate(-90 9.917109 54.2)">ms</text>
    </g>
   </g>
   <g id="line2d_15">
    <path d="M 43.916364 18.204651 
L 44.468628 29.289622 
L 45.3595 32.443528 
L 46.250371 23.366806 
L 47.141245 23.025359 
L 48.032112 32.38347 
L 48.922979 29.966536 
L 49.81384 26.917433 
L 50.704717 29.159216 
L 52.486458 34.633867 
L 53.377327 29.022589 
L 54.268192 32.245886 
L 55.159063 30.994469 
L 56.049934 25.430807 
L 56.940797 21.953638 
L 57.831669 36.126236 
L 58.722538 18.007727 
L 59.613407 32.392084 
L 60.504275 34.971965 
L 61.395144 31.676168 
L 62.286016 23.155047 
L 63.176879 36.012101 
L 64.067746 37.670767 
L 64.958622 30.673838 
L 65.84949 30.87172 
L 66.740361 22.292454 
L 67.631226 35.680224 
L 68.522078 30.306548 
L 69.412965 31.576629 
L 70.30383 35.069829 
L 71.194705 25.533457 
L 72.976442 37.273567 
L 73.867306 29.851444 
L 74.758184 32.954145 
L 75.649039 33.830137 
L 76.539914 33.165665 
L 77.430784 30.446764 
L 78.321655 22.415921 
L 79.212509 36.375801 
L 80.103391 31.339984 
L 80.994245 29.766501 
L 81.885129 34.749677 
L 82.775998 33.145805 
L 83.666869 30.332629 
L 84.557735 31.537387 
L 85.44861 35.403142 
L 94.53997 34.143828 
L 95.248438 29.964622 
L 96.139324 32.46626 
L 97.030192 28.130805 
L 98.811931 27.985325 
L 99.702798 35.238758 
L 100.593666 36.005162 
L 101.484533 32.555031 
L 102.375401 31.754651 
L 103.266272 25.50259 
L 104.157138 30.239551 
L 105.048009 26.78607 
L 105.93888 26.7631 
L 106.829748 34.214894 
L 107.720614 32.265746 
L 108.611487 34.180198 
L 109.502352 24.098515 
L 110.393224 25.356631 
L 111.284094 34.428568 
L 112.17496 31.709188 
L 113.065834 35.708698 
L 113.956695 22.319732 
L 114.847564 32.594273 
L 115.738441 23.766159 
L 116.629309 31.044477 
L 117.520178 21.369325 
L 118.41104 20.756298 
L 119.301913 24.200686 
L 120.192782 28.630894 
L 121.083649 29.912459 
L 121.97452 25.398744 
L 125.537994 33.429348 
L 126.428869 28.783074 
L 127.319734 31.77786 
L 128.210603 25.508572 
L 129.101474 18.325247 
L 129.992342 21.8474 
L 130.883214 35.327052 
L 131.774065 31.068884 
L 132.664946 29.200611 
L 133.55582 28.143726 
L 134.446686 25.173824 
L 135.337558 24.826155 
L 136.228424 25.425782 
L 137.119294 27.714942 
L 138.010159 33.162076 
L 138.901032 36.204479 
L 139.791912 26.886806 
L 140.68277 30.556592 
L 141.57364 27.370623 
L 142.464507 19.941321 
L 143.355376 29.916527 
L 144.246246 36.006837 
L 145.137113 27.230168 
L 146.027984 28.012124 
L 146.918849 16.729511 
L 173.644977 16.729511 
L 181.959197 34.464698 
L 182.553652 27.602961 
L 183.444521 24.445944 
L 184.335387 22.94568 
L 185.226256 20.433753 
L 186.117131 23.447443 
L 187.007996 27.456763 
L 187.898864 32.182717 
L 188.789731 32.839053 
L 189.680603 20.744095 
L 190.571474 28.736175 
L 191.462343 27.75227 
L 192.353215 28.876391 
L 193.244077 26.835122 
L 194.134949 9.472727 
L 195.025817 25.642088 
L 195.916688 25.867009 
L 196.807557 26.709023 
L 197.698426 31.326106 
L 198.589295 23.503194 
L 199.480162 26.387196 
L 200.371032 31.621852 
L 201.261898 26.165387 
L 202.152766 29.165198 
L 203.043636 28.634483 
L 203.043636 28.634483 
" clip-path="url(#pb18bcaf671)" style="fill: none; stroke: #339af0; stroke-width: 1.2; stroke-linecap: square"/>
   </g>
   <g id="line2d_16">
    <path d="M 43.916364 98.855011 
L 45.3595 98.888271 
L 47.141245 98.817205 
L 48.032112 98.91483 
L 49.81384 98.865779 
L 53.377327 98.862907 
L 56.049934 98.819359 
L 58.722538 98.812659 
L 60.504275 98.910763 
L 64.958622 98.878221 
L 65.84949 98.758343 
L 68.522078 98.897124 
L 73.867306 98.872718 
L 76.539914 98.926555 
L 79.212509 98.881571 
L 81.885129 98.892578 
L 85.44861 98.912677 
L 97.030192 98.852618 
L 97.921065 98.701396 
L 99.702798 98.907652 
L 105.048009 98.839219 
L 105.93888 98.494182 
L 106.829748 98.907652 
L 108.611487 98.909327 
L 109.502352 98.793996 
L 110.393224 98.833476 
L 111.284094 98.595875 
L 112.17496 98.843047 
L 113.065834 98.88851 
L 113.956695 98.743987 
L 114.847564 98.87535 
L 115.738441 98.88851 
L 116.629309 98.709052 
L 117.520178 98.654258 
L 118.41104 98.830844 
L 119.301913 98.738962 
L 120.192782 98.891381 
L 121.083649 98.897363 
L 121.97452 98.593482 
L 127.319734 98.905499 
L 128.210603 98.765522 
L 138.901032 98.879896 
L 139.791912 98.740158 
L 140.68277 98.849029 
L 142.464507 98.800456 
L 144.246246 98.910045 
L 146.918849 98.797345 
L 187.007996 98.809549 
L 187.898864 98.643491 
L 188.789731 98.835151 
L 189.680603 98.782989 
L 190.571474 98.601856 
L 191.462343 98.828691 
L 193.244077 98.783467 
L 195.916688 98.723409 
L 201.261898 98.861472 
L 202.152766 98.735134 
L 203.043636 98.776768 
L 203.043636 98.776768 
" clip-path="url(#pb18bcaf671)" style="fill: none; stroke: #ff6b6b; stroke-width: 1.2; stroke-linecap: square"/>
   </g>
   <g id="patch_3">
    <path d="M 35.96 103.4 
L 35.96 5 
" style="fill: none; stroke: var(--fg-color); stroke-width: 0.8; stroke-linejoin: miter; stroke-linecap: square"/>
   </g>
   <g id="patch_4">
    <path d="M 35.96 103.4 
L 211 103.4 
" style="fill: none; stroke: var(--fg-color); stroke-width: 0.8; stroke-linejoin: miter; stroke-linecap: square"/>
   </g>
  </g>
 </g>
 <defs>
  <clipPath id="pb18bcaf671">
   <rect x="35.96" y="5" width="175.04" height="98.4"/>
  </clipPath>
 </defs>
</svg>
