<?xml version="1.0" encoding="utf-8" standalone="no"?>
<!DOCTYPE svg PUBLIC "-//W3C//DTD SVG 1.1//EN"
  "http://www.w3.org/Graphics/SVG/1.1/DTD/svg11.dtd">
<svg xmlns:xlink="http://www.w3.org/1999/xlink" width="216pt" height="122.4pt" viewBox="0 0 216 122.4" xmlns="http://www.w3.org/2000/svg" version="1.1">
  <style>
    :root {
      --fg-color: #212529;
      --grid-color: rgba(33, 37, 41, 0.1);
    }
    @media (prefers-color-scheme: dark) {
      :root {
        --fg-color: #dee2e6;
        --grid-color: rgba(248, 249, 250, 0.15);
      }
    }
  </style>

 <metadata>
  <rdf:RDF xmlns:dc="http://purl.org/dc/elements/1.1/" xmlns:cc="http://creativecommons.org/ns#" xmlns:rdf="http://www.w3.org/1999/02/22-rdf-syntax-ns#">
   <cc:Work>
    <dc:type rdf:resource="http://purl.org/dc/dcmitype/StillImage"/>
    <dc:date>2026-06-30T15:36:53.964094</dc:date>
    <dc:format>image/svg+xml</dc:format>
    <dc:creator>
     <cc:Agent>
      <dc:title>Matplotlib v3.11.0, https://matplotlib.org/</dc:title>
     </cc:Agent>
    </dc:creator>
   </cc:Work>
  </rdf:RDF>
 </metadata>
 <defs>
  <style type="text/css">*{stroke-linejoin: round; stroke-linecap: butt}</style>
 </defs>
 <g id="figure_1">
  <g id="patch_1">
   <path d="M 0 122.4 
L 216 122.4 
L 216 0 
L 0 0 
L 0 122.4 
z
" style="fill: none; opacity: 0"/>
  </g>
  <g id="axes_1">
   <g id="patch_2">
    <path d="M 35.96 103.4 
L 211 103.4 
L 211 5 
L 35.96 5 
L 35.96 103.4 
z
" style="fill: none; opacity: 0"/>
   </g>
   <g id="matplotlib.axis_1">
    <g id="xtick_1">
     <g id="line2d_1">
      <path d="M 69.784035 103.4 
L 69.784035 5 
" clip-path="url(#p03508e4e39)" style="fill: none; stroke-dasharray: 2.96,1.28; stroke-dashoffset: 0; stroke: var(--grid-color); stroke-width: 0.8"/>
     </g>
     <g id="line2d_2">
      <defs>
       <path id="mfd3b5515d5" d="M 0 0 
L 0 3.5 
" style="stroke: var(--fg-color); stroke-width: 0.8"/>
      </defs>
      <g>
       <use xlink:href="#mfd3b5515d5" x="69.784035" y="103.4" style="fill: var(--fg-color); stroke: var(--fg-color); stroke-width: 0.8"/>
      </g>
     </g>
     <g id="text_1">
      <text style="font-size: 7px; font-family: 'DejaVu Sans', 'Bitstream Vera Sans', 'Computer Modern Sans Serif', 'Lucida Grande', 'Verdana', 'Geneva', 'Lucid', 'Arial', 'Helvetica', 'Avant Garde', sans-serif; text-anchor: middle; fill: var(--fg-color)" x="69.784035" y="115.718359" transform="rotate(-0 69.784035 115.718359)">02/2026</text>
     </g>
    </g>
    <g id="xtick_2">
     <g id="line2d_3">
      <path d="M 122.345302 103.4 
L 122.345302 5 
" clip-path="url(#p03508e4e39)" style="fill: none; stroke-dasharray: 2.96,1.28; stroke-dashoffset: 0; stroke: var(--grid-color); stroke-width: 0.8"/>
     </g>
     <g id="line2d_4">
      <g>
       <use xlink:href="#mfd3b5515d5" x="122.345302" y="103.4" style="fill: var(--fg-color); stroke: var(--fg-color); stroke-width: 0.8"/>
      </g>
     </g>
     <g id="text_2">
      <text style="font-size: 7px; font-family: 'DejaVu Sans', 'Bitstream Vera Sans', 'Computer Modern Sans Serif', 'Lucida Grande', 'Verdana', 'Geneva', 'Lucid', 'Arial', 'Helvetica', 'Avant Garde', sans-serif; text-anchor: middle; fill: var(--fg-color)" x="122.345302" y="115.718359" transform="rotate(-0 122.345302 115.718359)">04/2026</text>
     </g>
    </g>
    <g id="xtick_3">
     <g id="line2d_5">
      <path d="M 176.688307 103.4 
L 176.688307 5 
" clip-path="url(#p03508e4e39)" style="fill: none; stroke-dasharray: 2.96,1.28; stroke-dashoffset: 0; stroke: var(--grid-color); stroke-width: 0.8"/>
     </g>
     <g id="line2d_6">
      <g>
       <use xlink:href="#mfd3b5515d5" x="176.688307" y="103.4" style="fill: var(--fg-color); stroke: var(--fg-color); stroke-width: 0.8"/>
      </g>
     </g>
     <g id="text_3">
      <text style="font-size: 7px; font-family: 'DejaVu Sans', 'Bitstream Vera Sans', 'Computer Modern Sans Serif', 'Lucida Grande', 'Verdana', 'Geneva', 'Lucid', 'Arial', 'Helvetica', 'Avant Garde', sans-serif; text-anchor: middle; fill: var(--fg-color)" x="176.688307" y="115.718359" transform="rotate(-0 176.688307 115.718359)">06/2026</text>
     </g>
    </g>
   </g>
   <g id="matplotlib.axis_2">
    <g id="ytick_1">
     <g id="line2d_7">
      <path d="M 35.96 99.855984 
L 211 99.855984 
" clip-path="url(#p03508e4e39)" style="fill: none; stroke-dasharray: 2.96,1.28; stroke-dashoffset: 0; stroke: var(--grid-color); stroke-width: 0.8"/>
     </g>
     <g id="line2d_8">
      <defs>
       <path id="ma49a4d70e0" d="M 0 0 
L -3.5 0 
" style="stroke: var(--fg-color); stroke-width: 0.8"/>
      </defs>
      <g>
       <use xlink:href="#ma49a4d70e0" x="35.96" y="99.855984" style="fill: var(--fg-color); stroke: var(--fg-color); stroke-width: 0.8"/>
      </g>
     </g>
     <g id="text_4">
      <text style="font-size: 7px; font-family: 'DejaVu Sans', 'Bitstream Vera Sans', 'Computer Modern Sans Serif', 'Lucida Grande', 'Verdana', 'Geneva', 'Lucid', 'Arial', 'Helvetica', 'Avant Garde', sans-serif; text-anchor: end; fill: var(--fg-color)" x="28.96" y="102.515164" transform="rotate(-0 28.96 102.515164)">60</text>
     </g>
    </g>
    <g id="ytick_2">
     <g id="line2d_9">
      <path d="M 35.96 84.754985 
L 211 84.754985 
" clip-path="url(#p03508e4e39)" style="fill: none; stroke-dasharray: 2.96,1.28; stroke-dashoffset: 0; stroke: var(--grid-color); stroke-width: 0.8"/>
     </g>
     <g id="line2d_10">
      <g>
       <use xlink:href="#ma49a4d70e0" x="35.96" y="84.754985" style="fill: var(--fg-color); stroke: var(--fg-color); stroke-width: 0.8"/>
      </g>
     </g>
     <g id="text_5">
      <text style="font-size: 7px; font-family: 'DejaVu Sans', 'Bitstream Vera Sans', 'Computer Modern Sans Serif', 'Lucida Grande', 'Verdana', 'Geneva', 'Lucid', 'Arial', 'Helvetica', 'Avant Garde', sans-serif; text-anchor: end; fill: var(--fg-color)" x="28.96" y="87.414164" transform="rotate(-0 28.96 87.414164)">80</text>
     </g>
    </g>
    <g id="ytick_3">
     <g id="line2d_11">
      <path d="M 35.96 69.653985 
L 211 69.653985 
" clip-path="url(#p03508e4e39)" style="fill: none; stroke-dasharray: 2.96,1.28; stroke-dashoffset: 0; stroke: var(--grid-color); stroke-width: 0.8"/>
     </g>
     <g id="line2d_12">
      <g>
       <use xlink:href="#ma49a4d70e0" x="35.96" y="69.653985" style="fill: var(--fg-color); stroke: var(--fg-color); stroke-width: 0.8"/>
      </g>
     </g>
     <g id="text_6">
      <text style="font-size: 7px; font-family: 'DejaVu Sans', 'Bitstream Vera Sans', 'Computer Modern Sans Serif', 'Lucida Grande', 'Verdana', 'Geneva', 'Lucid', 'Arial', 'Helvetica', 'Avant Garde', sans-serif; text-anchor: end; fill: var(--fg-color)" x="28.96" y="72.313165" transform="rotate(-0 28.96 72.313165)">100</text>
     </g>
    </g>
    <g id="ytick_4">
     <g id="line2d_13">
      <path d="M 35.96 54.552986 
L 211 54.552986 
" clip-path="url(#p03508e4e39)" style="fill: none; stroke-dasharray: 2.96,1.28; stroke-dashoffset: 0; stroke: var(--grid-color); stroke-width: 0.8"/>
     </g>
     <g id="line2d_14">
      <g>
       <use xlink:href="#ma49a4d70e0" x="35.96" y="54.552986" style="fill: var(--fg-color); stroke: var(--fg-color); stroke-width: 0.8"/>
      </g>
     </g>
     <g id="text_7">
      <text style="font-size: 7px; font-family: 'DejaVu Sans', 'Bitstream Vera Sans', 'Computer Modern Sans Serif', 'Lucida Grande', 'Verdana', 'Geneva', 'Lucid', 'Arial', 'Helvetica', 'Avant Garde', sans-serif; text-anchor: end; fill: var(--fg-color)" x="28.96" y="57.212166" transform="rotate(-0 28.96 57.212166)">120</text>
     </g>
    </g>
    <g id="ytick_5">
     <g id="line2d_15">
      <path d="M 35.96 39.451986 
L 211 39.451986 
" clip-path="url(#p03508e4e39)" style="fill: none; stroke-dasharray: 2.96,1.28; stroke-dashoffset: 0; stroke: var(--grid-color); stroke-width: 0.8"/>
     </g>
     <g id="line2d_16">
      <g>
       <use xlink:href="#ma49a4d70e0" x="35.96" y="39.451986" style="fill: var(--fg-color); stroke: var(--fg-color); stroke-width: 0.8"/>
      </g>
     </g>
     <g id="text_8">
      <text style="font-size: 7px; font-family: 'DejaVu Sans', 'Bitstream Vera Sans', 'Computer Modern Sans Serif', 'Lucida Grande', 'Verdana', 'Geneva', 'Lucid', 'Arial', 'Helvetica', 'Avant Garde', sans-serif; text-anchor: end; fill: var(--fg-color)" x="28.96" y="42.111166" transform="rotate(-0 28.96 42.111166)">140</text>
     </g>
    </g>
    <g id="ytick_6">
     <g id="line2d_17">
      <path d="M 35.96 24.350987 
L 211 24.350987 
" clip-path="url(#p03508e4e39)" style="fill: none; stroke-dasharray: 2.96,1.28; stroke-dashoffset: 0; stroke: var(--grid-color); stroke-width: 0.8"/>
     </g>
     <g id="line2d_18">
      <g>
       <use xlink:href="#ma49a4d70e0" x="35.96" y="24.350987" style="fill: var(--fg-color); stroke: var(--fg-color); stroke-width: 0.8"/>
      </g>
     </g>
     <g id="text_9">
      <text style="font-size: 7px; font-family: 'DejaVu Sans', 'Bitstream Vera Sans', 'Computer Modern Sans Serif', 'Lucida Grande', 'Verdana', 'Geneva', 'Lucid', 'Arial', 'Helvetica', 'Avant Garde', sans-serif; text-anchor: end; fill: var(--fg-color)" x="28.96" y="27.010167" transform="rotate(-0 28.96 27.010167)">160</text>
     </g>
    </g>
    <g id="ytick_7">
     <g id="line2d_19">
      <path d="M 35.96 9.249988 
L 211 9.249988 
" clip-path="url(#p03508e4e39)" style="fill: none; stroke-dasharray: 2.96,1.28; stroke-dashoffset: 0; stroke: var(--grid-color); stroke-width: 0.8"/>
     </g>
     <g id="line2d_20">
      <g>
       <use xlink:href="#ma49a4d70e0" x="35.96" y="9.249988" style="fill: var(--fg-color); stroke: var(--fg-color); stroke-width: 0.8"/>
      </g>
     </g>
     <g id="text_10">
      <text style="font-size: 7px; font-family: 'DejaVu Sans', 'Bitstream Vera Sans', 'Computer Modern Sans Serif', 'Lucida Grande', 'Verdana', 'Geneva', 'Lucid', 'Arial', 'Helvetica', 'Avant Garde', sans-serif; text-anchor: end; fill: var(--fg-color)" x="28.96" y="11.909167" transform="rotate(-0 28.96 11.909167)">180</text>
     </g>
    </g>
    <g id="text_11">
     <text style="font-size: 7px; font-family: 'DejaVu Sans', 'Bitstream Vera Sans', 'Computer Modern Sans Serif', 'Lucida Grande', 'Verdana', 'Geneva', 'Lucid', 'Arial', 'Helvetica', 'Avant Garde', sans-serif; text-anchor: middle; fill: var(--fg-color)" x="9.917109" y="54.2" transform="rotate(-90 9.917109 54.2)">ms</text>
    </g>
   </g>
   <g id="line2d_21">
    <path d="M 43.916364 75.540355 
L 44.468628 78.025979 
L 45.3595 77.916497 
L 46.250371 84.924871 
L 47.141245 70.668017 
L 48.032112 83.878372 
L 48.922979 75.296474 
L 49.81384 72.288355 
L 50.704717 64.258398 
L 51.595589 84.025606 
L 52.486458 75.945817 
L 53.377327 83.843639 
L 54.268192 62.039306 
L 55.159063 73.988727 
L 56.049934 68.330383 
L 56.940797 83.537844 
L 57.831669 84.775371 
L 58.722538 70.32598 
L 59.613407 74.228078 
L 60.504275 80.269233 
L 61.395144 75.766115 
L 62.286016 72.409918 
L 63.176879 69.57093 
L 64.067746 79.768635 
L 64.958622 80.752465 
L 65.84949 80.565968 
L 66.740361 83.47593 
L 67.631226 73.149112 
L 68.522078 69.179059 
L 69.412965 76.935687 
L 70.30383 65.982177 
L 71.194705 74.730186 
L 72.085571 78.648141 
L 72.976442 81.406338 
L 73.867306 78.064487 
L 74.758184 73.155907 
L 75.649039 81.979421 
L 76.539914 64.488688 
L 77.430784 74.402495 
L 78.321655 74.581441 
L 79.212509 73.341649 
L 80.103391 58.893768 
L 80.994245 72.938453 
L 81.885129 70.153828 
L 82.775998 66.080334 
L 83.666869 68.860428 
L 84.557735 68.953299 
L 85.44861 76.574018 
L 94.53997 62.527069 
L 95.248438 81.36179 
L 96.139324 57.55733 
L 97.030192 63.540346 
L 97.921065 63.15829 
L 98.811931 71.515939 
L 99.702798 74.408535 
L 100.593666 76.36638 
L 101.484533 82.258034 
L 102.375401 83.318125 
L 103.266272 77.875724 
L 104.157138 80.624861 
L 105.048009 76.419233 
L 105.93888 76.882079 
L 106.829748 83.746993 
L 107.720614 70.292758 
L 108.611487 81.233432 
L 109.502352 76.481147 
L 110.393224 79.142698 
L 111.284094 73.438296 
L 112.17496 85.730509 
L 113.065834 51.701917 
L 113.956695 77.992757 
L 114.847564 71.98709 
L 115.738441 84.579813 
L 116.629309 70.356182 
L 117.520178 75.307799 
L 118.41104 65.256574 
L 119.301913 73.026038 
L 120.192782 32.443613 
L 121.083649 41.993485 
L 121.97452 79.746738 
L 125.537994 75.497317 
L 126.428869 79.422067 
L 127.319734 80.167301 
L 128.210603 75.188502 
L 129.101474 76.472087 
L 129.992342 72.625107 
L 130.883214 79.955887 
L 131.774065 64.105123 
L 132.664946 53.418146 
L 133.55582 79.32391 
L 134.446686 71.220714 
L 135.337558 78.981873 
L 136.228424 58.951907 
L 137.119294 62.403995 
L 138.010159 72.925617 
L 138.901032 74.082353 
L 139.791912 73.775048 
L 140.68277 79.992885 
L 141.57364 69.948455 
L 142.464507 9.472727 
L 143.355376 71.671479 
L 144.246246 62.819273 
L 145.137113 55.928687 
L 146.027984 66.210202 
L 146.918849 68.089522 
L 173.644977 68.089522 
L 181.959197 60.013507 
L 182.553652 65.446092 
L 183.444521 78.049386 
L 184.335387 75.128853 
L 185.226256 67.68708 
L 186.117131 82.135716 
L 187.007996 66.115066 
L 187.898864 78.970547 
L 188.789731 74.284707 
L 189.680603 85.806014 
L 190.571474 83.756809 
L 191.462343 78.972812 
L 192.353215 76.028872 
L 193.244077 76.829225 
L 194.134949 78.636815 
L 195.025817 81.111114 
L 195.916688 81.268919 
L 196.807557 75.92543 
L 197.698426 73.998543 
L 198.589295 71.499327 
L 199.480162 80.442139 
L 200.371032 64.249338 
L 201.261898 80.496503 
L 202.152766 80.052534 
L 203.043636 73.543248 
L 203.043636 73.543248 
" clip-path="url(#p03508e4e39)" style="fill: none; stroke: #339af0; stroke-width: 1.2; stroke-linecap: square"/>
   </g>
   <g id="line2d_22">
    <path d="M 43.916364 89.850817 
L 44.468628 91.425851 
L 45.3595 87.715536 
L 46.250371 94.42642 
L 47.141245 83.531804 
L 48.032112 95.393639 
L 48.922979 89.861388 
L 49.81384 89.659034 
L 50.704717 88.792237 
L 51.595589 90.026744 
L 52.486458 87.25118 
L 53.377327 92.358338 
L 54.268192 88.625371 
L 55.159063 86.619203 
L 56.940797 91.378283 
L 57.831669 89.515575 
L 58.722538 90.851258 
L 59.613407 95.482735 
L 61.395144 88.629901 
L 62.286016 87.421821 
L 63.176879 91.460584 
L 64.067746 90.568114 
L 64.958622 91.798091 
L 65.84949 94.843207 
L 66.740361 92.993335 
L 67.631226 94.990442 
L 68.522078 90.964516 
L 69.412965 89.168252 
L 70.30383 89.574469 
L 71.194705 88.010005 
L 72.085571 87.957152 
L 72.976442 89.048954 
L 73.867306 93.613231 
L 74.758184 88.628391 
L 75.649039 89.288305 
L 76.539914 90.549238 
L 77.430784 91.396404 
L 78.321655 90.79916 
L 79.212509 89.8259 
L 80.103391 90.628518 
L 80.994245 87.945071 
L 81.885129 92.863466 
L 82.775998 92.69207 
L 83.666869 92.357583 
L 84.557735 94.039834 
L 85.44861 90.234382 
L 94.53997 92.753229 
L 95.248438 91.049081 
L 96.139324 92.818918 
L 97.030192 92.373439 
L 97.921065 90.837667 
L 98.811931 90.567359 
L 99.702798 92.496512 
L 100.593666 92.84912 
L 101.484533 90.436736 
L 102.375401 91.222743 
L 103.266272 90.167938 
L 104.157138 88.373184 
L 105.048009 93.006926 
L 105.93888 90.824076 
L 106.829748 91.881901 
L 107.720614 91.295228 
L 108.611487 89.988236 
L 109.502352 90.257789 
L 110.393224 91.611594 
L 111.284094 91.028695 
L 112.17496 89.961809 
L 113.065834 91.640285 
L 113.956695 95.877626 
L 114.847564 86.137481 
L 115.738441 92.935951 
L 116.629309 95.312849 
L 117.520178 96.01278 
L 118.41104 92.898199 
L 119.301913 90.848238 
L 120.192782 76.643483 
L 121.083649 89.536716 
L 121.97452 92.918585 
L 125.537994 95.760593 
L 126.428869 94.436991 
L 127.319734 92.044992 
L 128.210603 79.570812 
L 129.101474 90.309132 
L 129.992342 88.206318 
L 130.883214 90.883725 
L 131.774065 87.513182 
L 132.664946 92.496512 
L 133.55582 85.593845 
L 134.446686 90.177754 
L 135.337558 88.353553 
L 136.228424 92.543325 
L 137.119294 88.570252 
L 138.010159 88.111182 
L 138.901032 94.57592 
L 139.791912 94.343364 
L 140.68277 93.707612 
L 141.57364 92.122762 
L 142.464507 91.431892 
L 143.355376 86.897817 
L 144.246246 95.032725 
L 145.137113 92.594669 
L 146.027984 92.529734 
L 146.918849 85.282765 
L 173.644977 85.282765 
L 181.959197 90.756877 
L 182.553652 98.086902 
L 183.444521 93.811054 
L 184.335387 91.63651 
L 185.226256 91.18499 
L 186.117131 97.359789 
L 187.007996 98.927273 
L 187.898864 95.918399 
L 188.789731 89.59108 
L 189.680603 96.986039 
L 190.571474 92.189962 
L 191.462343 95.741717 
L 192.353215 91.093629 
L 193.244077 94.973076 
L 194.134949 93.459201 
L 195.025817 93.798973 
L 195.916688 93.632862 
L 196.807557 94.19764 
L 197.698426 93.914496 
L 198.589295 89.338138 
L 199.480162 93.344433 
L 200.371032 93.393511 
L 201.261898 94.264839 
L 202.152766 89.404582 
L 203.043636 90.880705 
L 203.043636 90.880705 
" clip-path="url(#p03508e4e39)" style="fill: none; stroke: #ff6b6b; stroke-width: 1.2; stroke-linecap: square"/>
   </g>
   <g id="patch_3">
    <path d="M 35.96 103.4 
L 35.96 5 
" style="fill: none; stroke: var(--fg-color); stroke-width: 0.8; stroke-linejoin: miter; stroke-linecap: square"/>
   </g>
   <g id="patch_4">
    <path d="M 35.96 103.4 
L 211 103.4 
" style="fill: none; stroke: var(--fg-color); stroke-width: 0.8; stroke-linejoin: miter; stroke-linecap: square"/>
   </g>
  </g>
 </g>
 <defs>
  <clipPath id="p03508e4e39">
   <rect x="35.96" y="5" width="175.04" height="98.4"/>
  </clipPath>
 </defs>
</svg>
