<?xml version="1.0" encoding="utf-8" standalone="no"?>
<!DOCTYPE svg PUBLIC "-//W3C//DTD SVG 1.1//EN"
  "http://www.w3.org/Graphics/SVG/1.1/DTD/svg11.dtd">
<svg xmlns:xlink="http://www.w3.org/1999/xlink" width="216pt" height="122.4pt" viewBox="0 0 216 122.4" xmlns="http://www.w3.org/2000/svg" version="1.1">
  <style>
    :root {
      --fg-color: #212529;
      --grid-color: rgba(33, 37, 41, 0.1);
    }
    @media (prefers-color-scheme: dark) {
      :root {
        --fg-color: #dee2e6;
        --grid-color: rgba(248, 249, 250, 0.15);
      }
    }
  </style>

 <metadata>
  <rdf:RDF xmlns:dc="http://purl.org/dc/elements/1.1/" xmlns:cc="http://creativecommons.org/ns#" xmlns:rdf="http://www.w3.org/1999/02/22-rdf-syntax-ns#">
   <cc:Work>
    <dc:type rdf:resource="http://purl.org/dc/dcmitype/StillImage"/>
    <dc:date>2026-06-30T15:36:49.524573</dc:date>
    <dc:format>image/svg+xml</dc:format>
    <dc:creator>
     <cc:Agent>
      <dc:title>Matplotlib v3.11.0, https://matplotlib.org/</dc:title>
     </cc:Agent>
    </dc:creator>
   </cc:Work>
  </rdf:RDF>
 </metadata>
 <defs>
  <style type="text/css">*{stroke-linejoin: round; stroke-linecap: butt}</style>
 </defs>
 <g id="figure_1">
  <g id="patch_1">
   <path d="M 0 122.4 
L 216 122.4 
L 216 0 
L 0 0 
L 0 122.4 
z
" style="fill: none; opacity: 0"/>
  </g>
  <g id="axes_1">
   <g id="patch_2">
    <path d="M 35.96 103.4 
L 211 103.4 
L 211 5 
L 35.96 5 
L 35.96 103.4 
z
" style="fill: none; opacity: 0"/>
   </g>
   <g id="matplotlib.axis_1">
    <g id="xtick_1">
     <g id="line2d_1">
      <path d="M 78.78196 103.4 
L 78.78196 5 
" clip-path="url(#p9be72209d2)" style="fill: none; stroke-dasharray: 2.96,1.28; stroke-dashoffset: 0; stroke: var(--grid-color); stroke-width: 0.8"/>
     </g>
     <g id="line2d_2">
      <defs>
       <path id="mdf84ac5d25" d="M 0 0 
L 0 3.5 
" style="stroke: var(--fg-color); stroke-width: 0.8"/>
      </defs>
      <g>
       <use xlink:href="#mdf84ac5d25" x="78.78196" y="103.4" style="fill: var(--fg-color); stroke: var(--fg-color); stroke-width: 0.8"/>
      </g>
     </g>
     <g id="text_1">
      <text style="font-size: 7px; font-family: 'DejaVu Sans', 'Bitstream Vera Sans', 'Computer Modern Sans Serif', 'Lucida Grande', 'Verdana', 'Geneva', 'Lucid', 'Arial', 'Helvetica', 'Avant Garde', sans-serif; text-anchor: middle; fill: var(--fg-color)" x="78.78196" y="115.718359" transform="rotate(-0 78.78196 115.718359)">04/2026</text>
     </g>
    </g>
    <g id="xtick_2">
     <g id="line2d_3">
      <path d="M 162.460923 103.4 
L 162.460923 5 
" clip-path="url(#p9be72209d2)" style="fill: none; stroke-dasharray: 2.96,1.28; stroke-dashoffset: 0; stroke: var(--grid-color); stroke-width: 0.8"/>
     </g>
     <g id="line2d_4">
      <g>
       <use xlink:href="#mdf84ac5d25" x="162.460923" y="103.4" style="fill: var(--fg-color); stroke: var(--fg-color); stroke-width: 0.8"/>
      </g>
     </g>
     <g id="text_2">
      <text style="font-size: 7px; font-family: 'DejaVu Sans', 'Bitstream Vera Sans', 'Computer Modern Sans Serif', 'Lucida Grande', 'Verdana', 'Geneva', 'Lucid', 'Arial', 'Helvetica', 'Avant Garde', sans-serif; text-anchor: middle; fill: var(--fg-color)" x="162.460923" y="115.718359" transform="rotate(-0 162.460923 115.718359)">06/2026</text>
     </g>
    </g>
   </g>
   <g id="matplotlib.axis_2">
    <g id="ytick_1">
     <g id="line2d_5">
      <path d="M 35.96 91.831269 
L 211 91.831269 
" clip-path="url(#p9be72209d2)" style="fill: none; stroke-dasharray: 2.96,1.28; stroke-dashoffset: 0; stroke: var(--grid-color); stroke-width: 0.8"/>
     </g>
     <g id="line2d_6">
      <defs>
       <path id="md9e6e5593b" d="M 0 0 
L -3.5 0 
" style="stroke: var(--fg-color); stroke-width: 0.8"/>
      </defs>
      <g>
       <use xlink:href="#md9e6e5593b" x="35.96" y="91.831269" style="fill: var(--fg-color); stroke: var(--fg-color); stroke-width: 0.8"/>
      </g>
     </g>
     <g id="text_3">
      <text style="font-size: 7px; font-family: 'DejaVu Sans', 'Bitstream Vera Sans', 'Computer Modern Sans Serif', 'Lucida Grande', 'Verdana', 'Geneva', 'Lucid', 'Arial', 'Helvetica', 'Avant Garde', sans-serif; text-anchor: end; fill: var(--fg-color)" x="28.96" y="94.490448" transform="rotate(-0 28.96 94.490448)">200</text>
     </g>
    </g>
    <g id="ytick_2">
     <g id="line2d_7">
      <path d="M 35.96 77.06331 
L 211 77.06331 
" clip-path="url(#p9be72209d2)" style="fill: none; stroke-dasharray: 2.96,1.28; stroke-dashoffset: 0; stroke: var(--grid-color); stroke-width: 0.8"/>
     </g>
     <g id="line2d_8">
      <g>
       <use xlink:href="#md9e6e5593b" x="35.96" y="77.06331" style="fill: var(--fg-color); stroke: var(--fg-color); stroke-width: 0.8"/>
      </g>
     </g>
     <g id="text_4">
      <text style="font-size: 7px; font-family: 'DejaVu Sans', 'Bitstream Vera Sans', 'Computer Modern Sans Serif', 'Lucida Grande', 'Verdana', 'Geneva', 'Lucid', 'Arial', 'Helvetica', 'Avant Garde', sans-serif; text-anchor: end; fill: var(--fg-color)" x="28.96" y="79.72249" transform="rotate(-0 28.96 79.72249)">250</text>
     </g>
    </g>
    <g id="ytick_3">
     <g id="line2d_9">
      <path d="M 35.96 62.295352 
L 211 62.295352 
" clip-path="url(#p9be72209d2)" style="fill: none; stroke-dasharray: 2.96,1.28; stroke-dashoffset: 0; stroke: var(--grid-color); stroke-width: 0.8"/>
     </g>
     <g id="line2d_10">
      <g>
       <use xlink:href="#md9e6e5593b" x="35.96" y="62.295352" style="fill: var(--fg-color); stroke: var(--fg-color); stroke-width: 0.8"/>
      </g>
     </g>
     <g id="text_5">
      <text style="font-size: 7px; font-family: 'DejaVu Sans', 'Bitstream Vera Sans', 'Computer Modern Sans Serif', 'Lucida Grande', 'Verdana', 'Geneva', 'Lucid', 'Arial', 'Helvetica', 'Avant Garde', sans-serif; text-anchor: end; fill: var(--fg-color)" x="28.96" y="64.954531" transform="rotate(-0 28.96 64.954531)">300</text>
     </g>
    </g>
    <g id="ytick_4">
     <g id="line2d_11">
      <path d="M 35.96 47.527393 
L 211 47.527393 
" clip-path="url(#p9be72209d2)" style="fill: none; stroke-dasharray: 2.96,1.28; stroke-dashoffset: 0; stroke: var(--grid-color); stroke-width: 0.8"/>
     </g>
     <g id="line2d_12">
      <g>
       <use xlink:href="#md9e6e5593b" x="35.96" y="47.527393" style="fill: var(--fg-color); stroke: var(--fg-color); stroke-width: 0.8"/>
      </g>
     </g>
     <g id="text_6">
      <text style="font-size: 7px; font-family: 'DejaVu Sans', 'Bitstream Vera Sans', 'Computer Modern Sans Serif', 'Lucida Grande', 'Verdana', 'Geneva', 'Lucid', 'Arial', 'Helvetica', 'Avant Garde', sans-serif; text-anchor: end; fill: var(--fg-color)" x="28.96" y="50.186573" transform="rotate(-0 28.96 50.186573)">350</text>
     </g>
    </g>
    <g id="ytick_5">
     <g id="line2d_13">
      <path d="M 35.96 32.759435 
L 211 32.759435 
" clip-path="url(#p9be72209d2)" style="fill: none; stroke-dasharray: 2.96,1.28; stroke-dashoffset: 0; stroke: var(--grid-color); stroke-width: 0.8"/>
     </g>
     <g id="line2d_14">
      <g>
       <use xlink:href="#md9e6e5593b" x="35.96" y="32.759435" style="fill: var(--fg-color); stroke: var(--fg-color); stroke-width: 0.8"/>
      </g>
     </g>
     <g id="text_7">
      <text style="font-size: 7px; font-family: 'DejaVu Sans', 'Bitstream Vera Sans', 'Computer Modern Sans Serif', 'Lucida Grande', 'Verdana', 'Geneva', 'Lucid', 'Arial', 'Helvetica', 'Avant Garde', sans-serif; text-anchor: end; fill: var(--fg-color)" x="28.96" y="35.418615" transform="rotate(-0 28.96 35.418615)">400</text>
     </g>
    </g>
    <g id="ytick_6">
     <g id="line2d_15">
      <path d="M 35.96 17.991476 
L 211 17.991476 
" clip-path="url(#p9be72209d2)" style="fill: none; stroke-dasharray: 2.96,1.28; stroke-dashoffset: 0; stroke: var(--grid-color); stroke-width: 0.8"/>
     </g>
     <g id="line2d_16">
      <g>
       <use xlink:href="#md9e6e5593b" x="35.96" y="17.991476" style="fill: var(--fg-color); stroke: var(--fg-color); stroke-width: 0.8"/>
      </g>
     </g>
     <g id="text_8">
      <text style="font-size: 7px; font-family: 'DejaVu Sans', 'Bitstream Vera Sans', 'Computer Modern Sans Serif', 'Lucida Grande', 'Verdana', 'Geneva', 'Lucid', 'Arial', 'Helvetica', 'Avant Garde', sans-serif; text-anchor: end; fill: var(--fg-color)" x="28.96" y="20.650656" transform="rotate(-0 28.96 20.650656)">450</text>
     </g>
    </g>
    <g id="text_9">
     <text style="font-size: 7px; font-family: 'DejaVu Sans', 'Bitstream Vera Sans', 'Computer Modern Sans Serif', 'Lucida Grande', 'Verdana', 'Geneva', 'Lucid', 'Arial', 'Helvetica', 'Avant Garde', sans-serif; text-anchor: middle; fill: var(--fg-color)" x="9.917109" y="54.2" transform="rotate(-90 9.917109 54.2)">ms</text>
    </g>
   </g>
   <g id="line2d_17">
    <path d="M 43.916364 9.472727 
L 45.288148 41.58713 
L 46.659932 46.89119 
L 48.031717 33.134541 
L 49.403506 35.394629 
L 50.775288 34.167707 
L 52.147077 31.19728 
L 53.518866 24.003512 
L 54.890651 37.696363 
L 56.262433 34.157074 
L 57.634225 24.844695 
L 59.006006 42.900592 
L 60.377797 33.382938 
L 61.749585 27.787654 
L 63.121367 37.146405 
L 64.493161 36.132437 
L 65.864934 41.176876 
L 67.236722 39.715439 
L 68.608519 42.262025 
L 69.980304 26.172335 
L 71.352091 41.794767 
L 72.723867 42.269705 
L 74.095658 38.852399 
L 75.467446 36.421593 
L 76.839229 16.065144 
L 78.211018 39.228391 
L 83.69816 41.05312 
L 85.069956 33.506103 
L 86.441737 27.535417 
L 87.813523 33.343951 
L 89.185312 20.966925 
L 90.557097 43.429876 
L 91.928888 28.66428 
L 93.300647 37.358473 
L 94.672452 34.780282 
L 96.044246 44.830469 
L 97.416027 34.99235 
L 98.787818 31.692007 
L 100.1596 36.048259 
L 101.531388 36.236108 
L 102.903169 21.518065 
L 104.27496 33.679774 
L 105.646764 38.09244 
L 107.018533 25.269126 
L 108.390322 22.441062 
L 109.762104 30.973103 
L 111.133891 26.077229 
L 112.505679 33.426061 
L 113.877462 23.488406 
L 115.249252 28.572128 
L 116.621032 37.828684 
L 157.774714 37.828684 
L 170.577194 29.964746 
L 171.492553 31.151204 
L 172.864339 30.126603 
L 174.236122 48.941868 
L 175.607908 39.914511 
L 176.979703 37.401595 
L 178.351485 62.174255 
L 179.723269 48.546678 
L 181.095052 47.267182 
L 182.466843 48.943936 
L 183.838633 45.910302 
L 185.210419 45.53874 
L 186.58221 32.710996 
L 187.953986 52.829386 
L 189.325777 43.539454 
L 190.697561 51.351408 
L 192.069351 51.73065 
L 193.441137 31.738969 
L 194.812923 45.787137 
L 196.184709 38.483496 
L 197.556494 16.839871 
L 198.928281 52.225967 
L 200.300063 43.211014 
L 201.671848 53.511665 
L 203.043636 27.191028 
" clip-path="url(#p9be72209d2)" style="fill: none; stroke: #339af0; stroke-width: 1.2; stroke-linecap: square"/>
   </g>
   <g id="line2d_18">
    <path d="M 43.916364 89.195188 
L 45.288148 95.903681 
L 46.659932 93.044604 
L 48.031717 92.488147 
L 49.403506 90.452827 
L 50.775288 87.482696 
L 52.147077 89.555231 
L 53.518866 89.64502 
L 54.890651 92.737135 
L 56.262433 94.154269 
L 57.634225 88.417507 
L 59.006006 94.709839 
L 60.377797 93.14798 
L 61.749585 90.379578 
L 63.121367 90.216835 
L 64.493161 90.638904 
L 65.864934 93.027473 
L 67.236722 90.84979 
L 68.608519 92.877136 
L 69.980304 94.52524 
L 71.352091 92.851735 
L 72.723867 92.798865 
L 74.095658 91.472703 
L 75.467446 90.73903 
L 76.839229 87.238729 
L 78.211018 92.520637 
L 83.69816 90.980634 
L 85.069956 91.834813 
L 86.441737 89.917637 
L 87.813523 91.02671 
L 89.185312 91.211014 
L 90.557097 92.415194 
L 91.928888 89.175104 
L 93.300647 90.821436 
L 94.672452 92.339877 
L 96.044246 93.012705 
L 97.416027 91.438736 
L 98.787818 90.421519 
L 100.1596 91.924307 
L 101.531388 92.813338 
L 102.903169 85.992018 
L 104.27496 91.477428 
L 105.646764 91.146921 
L 107.018533 88.939998 
L 108.390322 91.0592 
L 109.762104 89.914978 
L 111.133891 92.30916 
L 112.505679 91.466205 
L 113.877462 90.702701 
L 115.249252 89.194597 
L 116.621032 95.076085 
L 157.774714 95.076085 
L 170.577194 92.02591 
L 171.492553 95.674187 
L 172.864339 94.880557 
L 174.236122 96.386002 
L 175.607908 93.974099 
L 176.979703 97.429506 
L 178.351485 98.844868 
L 179.723269 97.094274 
L 181.095052 97.137396 
L 182.466843 97.768579 
L 183.838633 95.934398 
L 185.210419 98.927273 
L 186.58221 98.813559 
L 187.953986 95.788491 
L 189.325777 95.183595 
L 190.697561 96.447437 
L 192.069351 96.748113 
L 193.441137 96.616087 
L 194.812923 96.325158 
L 196.184709 95.022329 
L 197.556494 96.901404 
L 198.928281 97.11997 
L 200.300063 96.009419 
L 201.671848 98.525584 
L 203.043636 93.190807 
" clip-path="url(#p9be72209d2)" style="fill: none; stroke: #ff6b6b; stroke-width: 1.2; stroke-linecap: square"/>
   </g>
   <g id="patch_3">
    <path d="M 35.96 103.4 
L 35.96 5 
" style="fill: none; stroke: var(--fg-color); stroke-width: 0.8; stroke-linejoin: miter; stroke-linecap: square"/>
   </g>
   <g id="patch_4">
    <path d="M 35.96 103.4 
L 211 103.4 
" style="fill: none; stroke: var(--fg-color); stroke-width: 0.8; stroke-linejoin: miter; stroke-linecap: square"/>
   </g>
  </g>
 </g>
 <defs>
  <clipPath id="p9be72209d2">
   <rect x="35.96" y="5" width="175.04" height="98.4"/>
  </clipPath>
 </defs>
</svg>
