<?xml version="1.0" encoding="utf-8" standalone="no"?>
<!DOCTYPE svg PUBLIC "-//W3C//DTD SVG 1.1//EN"
  "http://www.w3.org/Graphics/SVG/1.1/DTD/svg11.dtd">
<svg xmlns:xlink="http://www.w3.org/1999/xlink" width="216pt" height="122.4pt" viewBox="0 0 216 122.4" xmlns="http://www.w3.org/2000/svg" version="1.1">
  <style>
    :root {
      --fg-color: #212529;
      --grid-color: rgba(33, 37, 41, 0.1);
    }
    @media (prefers-color-scheme: dark) {
      :root {
        --fg-color: #dee2e6;
        --grid-color: rgba(248, 249, 250, 0.15);
      }
    }
  </style>

 <metadata>
  <rdf:RDF xmlns:dc="http://purl.org/dc/elements/1.1/" xmlns:cc="http://creativecommons.org/ns#" xmlns:rdf="http://www.w3.org/1999/02/22-rdf-syntax-ns#">
   <cc:Work>
    <dc:type rdf:resource="http://purl.org/dc/dcmitype/StillImage"/>
    <dc:date>2026-06-30T15:37:04.417075</dc:date>
    <dc:format>image/svg+xml</dc:format>
    <dc:creator>
     <cc:Agent>
      <dc:title>Matplotlib v3.11.0, https://matplotlib.org/</dc:title>
     </cc:Agent>
    </dc:creator>
   </cc:Work>
  </rdf:RDF>
 </metadata>
 <defs>
  <style type="text/css">*{stroke-linejoin: round; stroke-linecap: butt}</style>
 </defs>
 <g id="figure_1">
  <g id="patch_1">
   <path d="M 0 122.4 
L 216 122.4 
L 216 0 
L 0 0 
L 0 122.4 
z
" style="fill: none; opacity: 0"/>
  </g>
  <g id="axes_1">
   <g id="patch_2">
    <path d="M 31.64 103.4 
L 211 103.4 
L 211 5 
L 31.64 5 
L 31.64 103.4 
z
" style="fill: none; opacity: 0"/>
   </g>
   <g id="matplotlib.axis_1">
    <g id="xtick_1">
     <g id="line2d_1">
      <path d="M 66.298815 103.4 
L 66.298815 5 
" clip-path="url(#p7e52b28b91)" style="fill: none; stroke-dasharray: 2.96,1.28; stroke-dashoffset: 0; stroke: var(--grid-color); stroke-width: 0.8"/>
     </g>
     <g id="line2d_2">
      <defs>
       <path id="m86e42be4d7" d="M 0 0 
L 0 3.5 
" style="stroke: var(--fg-color); stroke-width: 0.8"/>
      </defs>
      <g>
       <use xlink:href="#m86e42be4d7" x="66.298815" y="103.4" style="fill: var(--fg-color); stroke: var(--fg-color); stroke-width: 0.8"/>
      </g>
     </g>
     <g id="text_1">
      <text style="font-size: 7px; font-family: 'DejaVu Sans', 'Bitstream Vera Sans', 'Computer Modern Sans Serif', 'Lucida Grande', 'Verdana', 'Geneva', 'Lucid', 'Arial', 'Helvetica', 'Avant Garde', sans-serif; text-anchor: middle; fill: var(--fg-color)" x="66.298815" y="115.718359" transform="rotate(-0 66.298815 115.718359)">02/2026</text>
     </g>
    </g>
    <g id="xtick_2">
     <g id="line2d_3">
      <path d="M 120.157298 103.4 
L 120.157298 5 
" clip-path="url(#p7e52b28b91)" style="fill: none; stroke-dasharray: 2.96,1.28; stroke-dashoffset: 0; stroke: var(--grid-color); stroke-width: 0.8"/>
     </g>
     <g id="line2d_4">
      <g>
       <use xlink:href="#m86e42be4d7" x="120.157298" y="103.4" style="fill: var(--fg-color); stroke: var(--fg-color); stroke-width: 0.8"/>
      </g>
     </g>
     <g id="text_2">
      <text style="font-size: 7px; font-family: 'DejaVu Sans', 'Bitstream Vera Sans', 'Computer Modern Sans Serif', 'Lucida Grande', 'Verdana', 'Geneva', 'Lucid', 'Arial', 'Helvetica', 'Avant Garde', sans-serif; text-anchor: middle; fill: var(--fg-color)" x="120.157298" y="115.718359" transform="rotate(-0 120.157298 115.718359)">04/2026</text>
     </g>
    </g>
    <g id="xtick_3">
     <g id="line2d_5">
      <path d="M 175.841492 103.4 
L 175.841492 5 
" clip-path="url(#p7e52b28b91)" style="fill: none; stroke-dasharray: 2.96,1.28; stroke-dashoffset: 0; stroke: var(--grid-color); stroke-width: 0.8"/>
     </g>
     <g id="line2d_6">
      <g>
       <use xlink:href="#m86e42be4d7" x="175.841492" y="103.4" style="fill: var(--fg-color); stroke: var(--fg-color); stroke-width: 0.8"/>
      </g>
     </g>
     <g id="text_3">
      <text style="font-size: 7px; font-family: 'DejaVu Sans', 'Bitstream Vera Sans', 'Computer Modern Sans Serif', 'Lucida Grande', 'Verdana', 'Geneva', 'Lucid', 'Arial', 'Helvetica', 'Avant Garde', sans-serif; text-anchor: middle; fill: var(--fg-color)" x="175.841492" y="115.718359" transform="rotate(-0 175.841492 115.718359)">06/2026</text>
     </g>
    </g>
   </g>
   <g id="matplotlib.axis_2">
    <g id="ytick_1">
     <g id="line2d_7">
      <path d="M 31.64 102.175302 
L 211 102.175302 
" clip-path="url(#p7e52b28b91)" style="fill: none; stroke-dasharray: 2.96,1.28; stroke-dashoffset: 0; stroke: var(--grid-color); stroke-width: 0.8"/>
     </g>
     <g id="line2d_8">
      <defs>
       <path id="m335424b9eb" d="M 0 0 
L -3.5 0 
" style="stroke: var(--fg-color); stroke-width: 0.8"/>
      </defs>
      <g>
       <use xlink:href="#m335424b9eb" x="31.64" y="102.175302" style="fill: var(--fg-color); stroke: var(--fg-color); stroke-width: 0.8"/>
      </g>
     </g>
     <g id="text_4">
      <text style="font-size: 7px; font-family: 'DejaVu Sans', 'Bitstream Vera Sans', 'Computer Modern Sans Serif', 'Lucida Grande', 'Verdana', 'Geneva', 'Lucid', 'Arial', 'Helvetica', 'Avant Garde', sans-serif; text-anchor: end; fill: var(--fg-color)" x="24.64" y="104.834482" transform="rotate(-0 24.64 104.834482)">0</text>
     </g>
    </g>
    <g id="ytick_2">
     <g id="line2d_9">
      <path d="M 31.64 80.946353 
L 211 80.946353 
" clip-path="url(#p7e52b28b91)" style="fill: none; stroke-dasharray: 2.96,1.28; stroke-dashoffset: 0; stroke: var(--grid-color); stroke-width: 0.8"/>
     </g>
     <g id="line2d_10">
      <g>
       <use xlink:href="#m335424b9eb" x="31.64" y="80.946353" style="fill: var(--fg-color); stroke: var(--fg-color); stroke-width: 0.8"/>
      </g>
     </g>
     <g id="text_5">
      <text style="font-size: 7px; font-family: 'DejaVu Sans', 'Bitstream Vera Sans', 'Computer Modern Sans Serif', 'Lucida Grande', 'Verdana', 'Geneva', 'Lucid', 'Arial', 'Helvetica', 'Avant Garde', sans-serif; text-anchor: end; fill: var(--fg-color)" x="24.64" y="83.605533" transform="rotate(-0 24.64 83.605533)">10</text>
     </g>
    </g>
    <g id="ytick_3">
     <g id="line2d_11">
      <path d="M 31.64 59.717404 
L 211 59.717404 
" clip-path="url(#p7e52b28b91)" style="fill: none; stroke-dasharray: 2.96,1.28; stroke-dashoffset: 0; stroke: var(--grid-color); stroke-width: 0.8"/>
     </g>
     <g id="line2d_12">
      <g>
       <use xlink:href="#m335424b9eb" x="31.64" y="59.717404" style="fill: var(--fg-color); stroke: var(--fg-color); stroke-width: 0.8"/>
      </g>
     </g>
     <g id="text_6">
      <text style="font-size: 7px; font-family: 'DejaVu Sans', 'Bitstream Vera Sans', 'Computer Modern Sans Serif', 'Lucida Grande', 'Verdana', 'Geneva', 'Lucid', 'Arial', 'Helvetica', 'Avant Garde', sans-serif; text-anchor: end; fill: var(--fg-color)" x="24.64" y="62.376584" transform="rotate(-0 24.64 62.376584)">20</text>
     </g>
    </g>
    <g id="ytick_4">
     <g id="line2d_13">
      <path d="M 31.64 38.488455 
L 211 38.488455 
" clip-path="url(#p7e52b28b91)" style="fill: none; stroke-dasharray: 2.96,1.28; stroke-dashoffset: 0; stroke: var(--grid-color); stroke-width: 0.8"/>
     </g>
     <g id="line2d_14">
      <g>
       <use xlink:href="#m335424b9eb" x="31.64" y="38.488455" style="fill: var(--fg-color); stroke: var(--fg-color); stroke-width: 0.8"/>
      </g>
     </g>
     <g id="text_7">
      <text style="font-size: 7px; font-family: 'DejaVu Sans', 'Bitstream Vera Sans', 'Computer Modern Sans Serif', 'Lucida Grande', 'Verdana', 'Geneva', 'Lucid', 'Arial', 'Helvetica', 'Avant Garde', sans-serif; text-anchor: end; fill: var(--fg-color)" x="24.64" y="41.147635" transform="rotate(-0 24.64 41.147635)">30</text>
     </g>
    </g>
    <g id="ytick_5">
     <g id="line2d_15">
      <path d="M 31.64 17.259506 
L 211 17.259506 
" clip-path="url(#p7e52b28b91)" style="fill: none; stroke-dasharray: 2.96,1.28; stroke-dashoffset: 0; stroke: var(--grid-color); stroke-width: 0.8"/>
     </g>
     <g id="line2d_16">
      <g>
       <use xlink:href="#m335424b9eb" x="31.64" y="17.259506" style="fill: var(--fg-color); stroke: var(--fg-color); stroke-width: 0.8"/>
      </g>
     </g>
     <g id="text_8">
      <text style="font-size: 7px; font-family: 'DejaVu Sans', 'Bitstream Vera Sans', 'Computer Modern Sans Serif', 'Lucida Grande', 'Verdana', 'Geneva', 'Lucid', 'Arial', 'Helvetica', 'Avant Garde', sans-serif; text-anchor: end; fill: var(--fg-color)" x="24.64" y="19.918685" transform="rotate(-0 24.64 19.918685)">40</text>
     </g>
    </g>
    <g id="text_9">
     <text style="font-size: 7px; font-family: 'DejaVu Sans', 'Bitstream Vera Sans', 'Computer Modern Sans Serif', 'Lucida Grande', 'Verdana', 'Geneva', 'Lucid', 'Arial', 'Helvetica', 'Avant Garde', sans-serif; text-anchor: middle; fill: var(--fg-color)" x="10.050859" y="54.2" transform="rotate(-90 10.050859 54.2)">ms</text>
    </g>
   </g>
   <g id="line2d_17">
    <path d="M 39.792727 22.993445 
L 40.358622 26.052536 
L 41.271481 28.695541 
L 42.184338 22.365068 
L 43.097199 26.621472 
L 44.010052 20.743176 
L 44.922906 23.991206 
L 45.835753 24.415785 
L 46.748617 25.139692 
L 47.661476 23.339477 
L 48.574332 21.961718 
L 49.487188 19.637148 
L 50.40004 23.876569 
L 51.312897 25.869968 
L 52.225755 21.225073 
L 53.138604 24.579247 
L 54.051463 27.111861 
L 54.964319 22.333225 
L 55.877175 26.135329 
L 56.79003 25.296786 
L 57.702885 25.598237 
L 58.615744 23.061378 
L 59.528593 25.048407 
L 60.441447 21.755797 
L 61.35431 25.112094 
L 62.267165 22.305627 
L 63.180022 26.220245 
L 64.092874 26.748846 
L 65.005713 19.097933 
L 65.918587 26.046168 
L 66.831438 26.519573 
L 67.7443 24.568633 
L 68.657153 24.379695 
L 69.57001 27.171302 
L 70.482861 20.426865 
L 71.395726 23.640928 
L 72.308567 26.398568 
L 73.221429 21.885294 
L 74.134286 22.190991 
L 75.047144 24.122825 
L 75.959984 24.71299 
L 76.872853 22.430878 
L 77.785693 28.706155 
L 78.698564 20.354687 
L 79.61142 23.84048 
L 81.43713 20.123291 
L 82.349993 23.29065 
L 91.665728 22.335347 
L 92.391681 23.046517 
L 93.304554 21.675127 
L 94.217409 21.129543 
L 95.130269 22.341716 
L 96.043122 19.288993 
L 96.955975 23.403164 
L 97.868829 25.676784 
L 98.781684 21.157141 
L 99.694538 23.810759 
L 100.607396 21.991439 
L 101.520248 23.055009 
L 102.433106 22.925512 
L 103.345963 28.141465 
L 104.258819 24.763939 
L 105.171671 29.404588 
L 106.084531 21.554122 
L 106.997383 21.318481 
L 107.910242 20.62854 
L 108.823098 24.337237 
L 109.735951 20.053235 
L 110.648812 23.725844 
L 111.561659 20.161503 
L 112.474515 23.008305 
L 113.387379 19.91737 
L 114.300233 15.686441 
L 115.213089 21.656021 
L 116.125938 20.755914 
L 117.038797 20.779266 
L 117.951653 21.28876 
L 118.864507 17.783861 
L 119.777364 19.28687 
L 123.428785 21.912891 
L 125.254499 18.15749 
L 126.167355 24.207741 
L 127.080212 16.452806 
L 127.993067 17.890006 
L 128.905926 16.518615 
L 129.818763 16.599285 
L 130.731631 22.543391 
L 131.644492 17.034479 
L 132.557344 19.641394 
L 133.470203 18.535366 
L 134.383056 16.450683 
L 135.295912 20.898148 
L 136.208765 18.620281 
L 137.121624 19.248658 
L 138.034491 18.486539 
L 138.947335 11.423668 
L 140.773046 18.165982 
L 141.685902 11.627466 
L 142.598758 13.211145 
L 143.511612 13.020085 
L 144.42447 13.546563 
L 145.337321 11.149814 
L 172.723053 11.149814 
L 181.242468 14.624993 
L 181.851594 17.251014 
L 182.764449 14.881863 
L 183.677303 18.030117 
L 184.590158 9.472727 
L 185.503019 16.282974 
L 186.415872 19.656254 
L 187.328726 16.488895 
L 188.24158 16.27236 
L 189.154439 16.605654 
L 190.067296 17.195819 
L 190.980152 20.180609 
L 191.893011 22.273784 
L 192.80586 17.011127 
L 193.718718 15.478397 
L 194.631573 22.585849 
L 195.544431 12.947906 
L 196.457286 16.278728 
L 197.370142 16.673587 
L 198.282997 18.038608 
L 199.195852 18.081066 
L 200.108708 15.338286 
L 201.021561 19.503406 
L 201.934415 17.100289 
L 202.847273 13.213268 
L 202.847273 13.213268 
" clip-path="url(#p7e52b28b91)" style="fill: none; stroke: #339af0; stroke-width: 1.2; stroke-linecap: square"/>
   </g>
   <g id="line2d_18">
    <path d="M 39.792727 97.587726 
L 40.358622 98.591855 
L 41.271481 96.258794 
L 42.184338 97.967724 
L 43.097199 98.487833 
L 44.010052 97.640798 
L 44.922906 94.467071 
L 45.835753 97.628061 
L 46.748617 98.568503 
L 47.661476 97.371191 
L 48.574332 97.880686 
L 50.40004 98.209734 
L 52.225755 97.838228 
L 53.138604 92.894005 
L 54.051463 95.103939 
L 54.964319 97.829736 
L 55.877175 95.8236 
L 56.79003 97.753312 
L 57.702885 96.184493 
L 58.615744 97.307504 
L 59.528593 96.717339 
L 60.441447 95.976449 
L 61.35431 98.069623 
L 62.267165 97.700239 
L 63.180022 98.349845 
L 64.092874 97.925266 
L 65.005713 97.670519 
L 65.918587 95.923376 
L 66.831438 93.265512 
L 67.7443 97.267169 
L 68.657153 97.768172 
L 69.57001 98.598224 
L 70.482861 97.961356 
L 71.395726 97.74482 
L 72.308567 90.382621 
L 73.221429 94.923493 
L 74.134286 98.008059 
L 75.047144 98.487833 
L 75.959984 97.72996 
L 76.872853 98.296773 
L 77.785693 97.56862 
L 78.698564 97.940127 
L 79.61142 93.473556 
L 80.524278 95.991309 
L 81.43713 97.867948 
L 82.349993 98.207611 
L 91.665728 91.949317 
L 92.391681 79.759655 
L 93.304554 95.069973 
L 94.217409 90.476028 
L 95.130269 98.082361 
L 96.043122 97.965601 
L 96.955975 93.048977 
L 97.868829 97.50281 
L 98.781684 97.787278 
L 99.694538 87.875482 
L 100.607396 97.742697 
L 101.520248 86.119848 
L 102.433106 93.617913 
L 103.345963 88.193916 
L 104.258819 91.191444 
L 105.171671 97.651413 
L 106.084531 95.541255 
L 106.997383 98.027165 
L 107.910242 94.121039 
L 108.823098 97.343593 
L 109.735951 96.587843 
L 110.648812 93.617913 
L 111.561659 93.465064 
L 112.474515 97.284152 
L 113.387379 89.382737 
L 114.300233 90.155471 
L 115.213089 94.838577 
L 116.125938 96.220582 
L 117.038797 95.154888 
L 117.951653 96.812869 
L 118.864507 94.898018 
L 119.777364 96.861696 
L 123.428785 97.831859 
L 124.341647 94.01914 
L 125.254499 93.811096 
L 126.167355 97.137672 
L 127.080212 95.131537 
L 127.993067 98.250069 
L 128.905926 93.571209 
L 129.818763 94.271764 
L 130.731631 96.606949 
L 131.644492 97.79577 
L 132.557344 97.944372 
L 133.470203 97.509179 
L 134.383056 97.916775 
L 135.295912 95.116676 
L 136.208765 93.4035 
L 137.121624 95.392653 
L 138.034491 95.594328 
L 138.947335 98.177891 
L 139.860192 98.209734 
L 140.773046 98.477219 
L 141.685902 98.354091 
L 142.598758 97.901914 
L 143.511612 98.027165 
L 144.42447 98.301019 
L 145.337321 98.156662 
L 172.723053 98.156662 
L 181.242468 98.351968 
L 181.851594 98.230963 
L 182.764449 98.366828 
L 183.677303 98.731966 
L 184.590158 98.615207 
L 185.503019 98.706492 
L 186.415872 98.91029 
L 188.24158 98.515431 
L 189.154439 98.768056 
L 190.067296 98.534537 
L 190.980152 98.698 
L 191.893011 98.674648 
L 192.80586 98.500571 
L 193.718718 98.676771 
L 194.631573 98.687386 
L 195.544431 98.566381 
L 196.457286 98.927273 
L 197.370142 98.651296 
L 201.021561 98.736212 
L 202.847273 98.651296 
L 202.847273 98.651296 
" clip-path="url(#p7e52b28b91)" style="fill: none; stroke: #ff6b6b; stroke-width: 1.2; stroke-linecap: square"/>
   </g>
   <g id="patch_3">
    <path d="M 31.64 103.4 
L 31.64 5 
" style="fill: none; stroke: var(--fg-color); stroke-width: 0.8; stroke-linejoin: miter; stroke-linecap: square"/>
   </g>
   <g id="patch_4">
    <path d="M 31.64 103.4 
L 211 103.4 
" style="fill: none; stroke: var(--fg-color); stroke-width: 0.8; stroke-linejoin: miter; stroke-linecap: square"/>
   </g>
  </g>
 </g>
 <defs>
  <clipPath id="p7e52b28b91">
   <rect x="31.64" y="5" width="179.36" height="98.4"/>
  </clipPath>
 </defs>
</svg>
