<?xml version="1.0" encoding="utf-8" standalone="no"?>
<!DOCTYPE svg PUBLIC "-//W3C//DTD SVG 1.1//EN"
  "http://www.w3.org/Graphics/SVG/1.1/DTD/svg11.dtd">
<svg xmlns:xlink="http://www.w3.org/1999/xlink" width="216pt" height="122.4pt" viewBox="0 0 216 122.4" xmlns="http://www.w3.org/2000/svg" version="1.1">
  <style>
    :root {
      --fg-color: #212529;
      --grid-color: rgba(33, 37, 41, 0.1);
    }
    @media (prefers-color-scheme: dark) {
      :root {
        --fg-color: #dee2e6;
        --grid-color: rgba(248, 249, 250, 0.15);
      }
    }
  </style>

 <metadata>
  <rdf:RDF xmlns:dc="http://purl.org/dc/elements/1.1/" xmlns:cc="http://creativecommons.org/ns#" xmlns:rdf="http://www.w3.org/1999/02/22-rdf-syntax-ns#">
   <cc:Work>
    <dc:type rdf:resource="http://purl.org/dc/dcmitype/StillImage"/>
    <dc:date>2026-06-30T15:37:07.213865</dc:date>
    <dc:format>image/svg+xml</dc:format>
    <dc:creator>
     <cc:Agent>
      <dc:title>Matplotlib v3.11.0, https://matplotlib.org/</dc:title>
     </cc:Agent>
    </dc:creator>
   </cc:Work>
  </rdf:RDF>
 </metadata>
 <defs>
  <style type="text/css">*{stroke-linejoin: round; stroke-linecap: butt}</style>
 </defs>
 <g id="figure_1">
  <g id="patch_1">
   <path d="M 0 122.4 
L 216 122.4 
L 216 0 
L 0 0 
L 0 122.4 
z
" style="fill: none; opacity: 0"/>
  </g>
  <g id="axes_1">
   <g id="patch_2">
    <path d="M 35.96 103.4 
L 211 103.4 
L 211 5 
L 35.96 5 
L 35.96 103.4 
z
" style="fill: none; opacity: 0"/>
   </g>
   <g id="matplotlib.axis_1">
    <g id="xtick_1">
     <g id="line2d_1">
      <path d="M 69.784035 103.4 
L 69.784035 5 
" clip-path="url(#pfb8872af01)" style="fill: none; stroke-dasharray: 2.96,1.28; stroke-dashoffset: 0; stroke: var(--grid-color); stroke-width: 0.8"/>
     </g>
     <g id="line2d_2">
      <defs>
       <path id="mb9d8acdef2" d="M 0 0 
L 0 3.5 
" style="stroke: var(--fg-color); stroke-width: 0.8"/>
      </defs>
      <g>
       <use xlink:href="#mb9d8acdef2" x="69.784035" y="103.4" style="fill: var(--fg-color); stroke: var(--fg-color); stroke-width: 0.8"/>
      </g>
     </g>
     <g id="text_1">
      <text style="font-size: 7px; font-family: 'DejaVu Sans', 'Bitstream Vera Sans', 'Computer Modern Sans Serif', 'Lucida Grande', 'Verdana', 'Geneva', 'Lucid', 'Arial', 'Helvetica', 'Avant Garde', sans-serif; text-anchor: middle; fill: var(--fg-color)" x="69.784035" y="115.718359" transform="rotate(-0 69.784035 115.718359)">02/2026</text>
     </g>
    </g>
    <g id="xtick_2">
     <g id="line2d_3">
      <path d="M 122.345302 103.4 
L 122.345302 5 
" clip-path="url(#pfb8872af01)" style="fill: none; stroke-dasharray: 2.96,1.28; stroke-dashoffset: 0; stroke: var(--grid-color); stroke-width: 0.8"/>
     </g>
     <g id="line2d_4">
      <g>
       <use xlink:href="#mb9d8acdef2" x="122.345302" y="103.4" style="fill: var(--fg-color); stroke: var(--fg-color); stroke-width: 0.8"/>
      </g>
     </g>
     <g id="text_2">
      <text style="font-size: 7px; font-family: 'DejaVu Sans', 'Bitstream Vera Sans', 'Computer Modern Sans Serif', 'Lucida Grande', 'Verdana', 'Geneva', 'Lucid', 'Arial', 'Helvetica', 'Avant Garde', sans-serif; text-anchor: middle; fill: var(--fg-color)" x="122.345302" y="115.718359" transform="rotate(-0 122.345302 115.718359)">04/2026</text>
     </g>
    </g>
    <g id="xtick_3">
     <g id="line2d_5">
      <path d="M 176.688307 103.4 
L 176.688307 5 
" clip-path="url(#pfb8872af01)" style="fill: none; stroke-dasharray: 2.96,1.28; stroke-dashoffset: 0; stroke: var(--grid-color); stroke-width: 0.8"/>
     </g>
     <g id="line2d_6">
      <g>
       <use xlink:href="#mb9d8acdef2" x="176.688307" y="103.4" style="fill: var(--fg-color); stroke: var(--fg-color); stroke-width: 0.8"/>
      </g>
     </g>
     <g id="text_3">
      <text style="font-size: 7px; font-family: 'DejaVu Sans', 'Bitstream Vera Sans', 'Computer Modern Sans Serif', 'Lucida Grande', 'Verdana', 'Geneva', 'Lucid', 'Arial', 'Helvetica', 'Avant Garde', sans-serif; text-anchor: middle; fill: var(--fg-color)" x="176.688307" y="115.718359" transform="rotate(-0 176.688307 115.718359)">06/2026</text>
     </g>
    </g>
   </g>
   <g id="matplotlib.axis_2">
    <g id="ytick_1">
     <g id="line2d_7">
      <path d="M 35.96 100.093711 
L 211 100.093711 
" clip-path="url(#pfb8872af01)" style="fill: none; stroke-dasharray: 2.96,1.28; stroke-dashoffset: 0; stroke: var(--grid-color); stroke-width: 0.8"/>
     </g>
     <g id="line2d_8">
      <defs>
       <path id="m0cf604fa19" d="M 0 0 
L -3.5 0 
" style="stroke: var(--fg-color); stroke-width: 0.8"/>
      </defs>
      <g>
       <use xlink:href="#m0cf604fa19" x="35.96" y="100.093711" style="fill: var(--fg-color); stroke: var(--fg-color); stroke-width: 0.8"/>
      </g>
     </g>
     <g id="text_4">
      <text style="font-size: 7px; font-family: 'DejaVu Sans', 'Bitstream Vera Sans', 'Computer Modern Sans Serif', 'Lucida Grande', 'Verdana', 'Geneva', 'Lucid', 'Arial', 'Helvetica', 'Avant Garde', sans-serif; text-anchor: end; fill: var(--fg-color)" x="28.96" y="102.75289" transform="rotate(-0 28.96 102.75289)">0</text>
     </g>
    </g>
    <g id="ytick_2">
     <g id="line2d_9">
      <path d="M 35.96 84.147875 
L 211 84.147875 
" clip-path="url(#pfb8872af01)" style="fill: none; stroke-dasharray: 2.96,1.28; stroke-dashoffset: 0; stroke: var(--grid-color); stroke-width: 0.8"/>
     </g>
     <g id="line2d_10">
      <g>
       <use xlink:href="#m0cf604fa19" x="35.96" y="84.147875" style="fill: var(--fg-color); stroke: var(--fg-color); stroke-width: 0.8"/>
      </g>
     </g>
     <g id="text_5">
      <text style="font-size: 7px; font-family: 'DejaVu Sans', 'Bitstream Vera Sans', 'Computer Modern Sans Serif', 'Lucida Grande', 'Verdana', 'Geneva', 'Lucid', 'Arial', 'Helvetica', 'Avant Garde', sans-serif; text-anchor: end; fill: var(--fg-color)" x="28.96" y="86.807054" transform="rotate(-0 28.96 86.807054)">20</text>
     </g>
    </g>
    <g id="ytick_3">
     <g id="line2d_11">
      <path d="M 35.96 68.202039 
L 211 68.202039 
" clip-path="url(#pfb8872af01)" style="fill: none; stroke-dasharray: 2.96,1.28; stroke-dashoffset: 0; stroke: var(--grid-color); stroke-width: 0.8"/>
     </g>
     <g id="line2d_12">
      <g>
       <use xlink:href="#m0cf604fa19" x="35.96" y="68.202039" style="fill: var(--fg-color); stroke: var(--fg-color); stroke-width: 0.8"/>
      </g>
     </g>
     <g id="text_6">
      <text style="font-size: 7px; font-family: 'DejaVu Sans', 'Bitstream Vera Sans', 'Computer Modern Sans Serif', 'Lucida Grande', 'Verdana', 'Geneva', 'Lucid', 'Arial', 'Helvetica', 'Avant Garde', sans-serif; text-anchor: end; fill: var(--fg-color)" x="28.96" y="70.861218" transform="rotate(-0 28.96 70.861218)">40</text>
     </g>
    </g>
    <g id="ytick_4">
     <g id="line2d_13">
      <path d="M 35.96 52.256203 
L 211 52.256203 
" clip-path="url(#pfb8872af01)" style="fill: none; stroke-dasharray: 2.96,1.28; stroke-dashoffset: 0; stroke: var(--grid-color); stroke-width: 0.8"/>
     </g>
     <g id="line2d_14">
      <g>
       <use xlink:href="#m0cf604fa19" x="35.96" y="52.256203" style="fill: var(--fg-color); stroke: var(--fg-color); stroke-width: 0.8"/>
      </g>
     </g>
     <g id="text_7">
      <text style="font-size: 7px; font-family: 'DejaVu Sans', 'Bitstream Vera Sans', 'Computer Modern Sans Serif', 'Lucida Grande', 'Verdana', 'Geneva', 'Lucid', 'Arial', 'Helvetica', 'Avant Garde', sans-serif; text-anchor: end; fill: var(--fg-color)" x="28.96" y="54.915382" transform="rotate(-0 28.96 54.915382)">60</text>
     </g>
    </g>
    <g id="ytick_5">
     <g id="line2d_15">
      <path d="M 35.96 36.310367 
L 211 36.310367 
" clip-path="url(#pfb8872af01)" style="fill: none; stroke-dasharray: 2.96,1.28; stroke-dashoffset: 0; stroke: var(--grid-color); stroke-width: 0.8"/>
     </g>
     <g id="line2d_16">
      <g>
       <use xlink:href="#m0cf604fa19" x="35.96" y="36.310367" style="fill: var(--fg-color); stroke: var(--fg-color); stroke-width: 0.8"/>
      </g>
     </g>
     <g id="text_8">
      <text style="font-size: 7px; font-family: 'DejaVu Sans', 'Bitstream Vera Sans', 'Computer Modern Sans Serif', 'Lucida Grande', 'Verdana', 'Geneva', 'Lucid', 'Arial', 'Helvetica', 'Avant Garde', sans-serif; text-anchor: end; fill: var(--fg-color)" x="28.96" y="38.969546" transform="rotate(-0 28.96 38.969546)">80</text>
     </g>
    </g>
    <g id="ytick_6">
     <g id="line2d_17">
      <path d="M 35.96 20.364531 
L 211 20.364531 
" clip-path="url(#pfb8872af01)" style="fill: none; stroke-dasharray: 2.96,1.28; stroke-dashoffset: 0; stroke: var(--grid-color); stroke-width: 0.8"/>
     </g>
     <g id="line2d_18">
      <g>
       <use xlink:href="#m0cf604fa19" x="35.96" y="20.364531" style="fill: var(--fg-color); stroke: var(--fg-color); stroke-width: 0.8"/>
      </g>
     </g>
     <g id="text_9">
      <text style="font-size: 7px; font-family: 'DejaVu Sans', 'Bitstream Vera Sans', 'Computer Modern Sans Serif', 'Lucida Grande', 'Verdana', 'Geneva', 'Lucid', 'Arial', 'Helvetica', 'Avant Garde', sans-serif; text-anchor: end; fill: var(--fg-color)" x="28.96" y="23.02371" transform="rotate(-0 28.96 23.02371)">100</text>
     </g>
    </g>
    <g id="text_10">
     <text style="font-size: 7px; font-family: 'DejaVu Sans', 'Bitstream Vera Sans', 'Computer Modern Sans Serif', 'Lucida Grande', 'Verdana', 'Geneva', 'Lucid', 'Arial', 'Helvetica', 'Avant Garde', sans-serif; text-anchor: middle; fill: var(--fg-color)" x="9.917109" y="54.2" transform="rotate(-90 9.917109 54.2)">ms</text>
    </g>
   </g>
   <g id="line2d_19">
    <path d="M 43.916364 59.015642 
L 44.468628 66.451186 
L 45.3595 64.583131 
L 46.250371 57.284722 
L 47.141245 57.704895 
L 48.032112 61.817326 
L 48.922979 64.218769 
L 50.704717 52.721821 
L 51.595589 64.775278 
L 52.486458 63.393572 
L 53.377327 55.671801 
L 54.268192 64.192458 
L 55.159063 68.018661 
L 56.940797 63.190262 
L 57.831669 68.15739 
L 58.722538 61.661057 
L 59.613407 62.928751 
L 60.504275 64.963439 
L 61.395144 62.983764 
L 62.286016 57.547031 
L 63.176879 68.626995 
L 64.067746 66.710306 
L 64.958622 62.912805 
L 65.84949 60.913197 
L 66.740361 65.148411 
L 67.631226 64.816738 
L 68.522078 64.061702 
L 69.412965 45.058252 
L 70.30383 63.750758 
L 71.194705 56.610213 
L 72.085571 63.807366 
L 72.976442 68.90525 
L 73.867306 63.258032 
L 74.758184 59.753935 
L 75.649039 67.38322 
L 76.539914 64.128675 
L 77.430784 67.298707 
L 78.321655 61.478477 
L 79.212509 66.754954 
L 80.103391 50.13142 
L 80.994245 66.097188 
L 81.885129 66.137053 
L 82.775998 63.07306 
L 83.666869 63.032399 
L 84.557735 65.518354 
L 85.44861 62.157769 
L 94.53997 65.429855 
L 95.248438 68.256254 
L 96.139324 67.964446 
L 97.030192 63.504395 
L 97.921065 54.652064 
L 98.811931 60.818319 
L 99.702798 64.698738 
L 100.593666 57.499193 
L 101.484533 53.533464 
L 102.375401 48.841402 
L 103.266272 60.8829 
L 104.157138 51.67418 
L 105.93888 61.222546 
L 106.829748 57.227317 
L 107.720614 57.54145 
L 108.611487 57.040751 
L 109.502352 58.659253 
L 110.393224 62.8554 
L 111.284094 60.61501 
L 112.17496 64.239498 
L 113.065834 54.086785 
L 113.956695 56.256216 
L 114.847564 60.169324 
L 115.738441 58.062081 
L 116.629309 62.159364 
L 117.520178 60.664442 
L 118.41104 9.472727 
L 119.301913 54.997292 
L 120.192782 61.434626 
L 121.083649 61.216965 
L 121.97452 54.13223 
L 125.537994 55.183061 
L 126.428869 60.999304 
L 127.319734 54.40012 
L 128.210603 58.394552 
L 129.101474 54.309229 
L 129.992342 48.658822 
L 130.883214 57.657855 
L 131.774065 57.458532 
L 132.664946 61.433829 
L 133.55582 49.176264 
L 134.446686 59.563382 
L 135.337558 55.873515 
L 136.228424 55.658247 
L 137.119294 58.390566 
L 138.010159 58.057298 
L 138.901032 59.700516 
L 139.791912 57.620382 
L 140.68277 57.351694 
L 141.57364 60.509767 
L 142.464507 50.713443 
L 143.355376 52.626943 
L 144.246246 58.09796 
L 145.137113 57.471288 
L 146.027984 53.456924 
L 146.918849 53.653058 
L 173.644977 53.653058 
L 181.959197 55.146385 
L 182.553652 63.640732 
L 183.444521 57.217749 
L 184.335387 54.614592 
L 185.226256 45.009617 
L 187.007996 56.407701 
L 187.898864 56.367039 
L 188.789731 57.513545 
L 189.680603 52.001069 
L 190.571474 51.067441 
L 191.462343 56.961022 
L 192.353215 49.617964 
L 193.244077 58.005474 
L 194.134949 58.384985 
L 195.025817 57.864353 
L 195.916688 53.463302 
L 196.807557 55.931718 
L 197.698426 60.441998 
L 198.589295 51.495586 
L 199.480162 54.262189 
L 200.371032 54.947062 
L 201.261898 53.39633 
L 202.152766 59.243668 
L 203.043636 55.317803 
L 203.043636 55.317803 
" clip-path="url(#pfb8872af01)" style="fill: none; stroke: #339af0; stroke-width: 1.2; stroke-linecap: square"/>
   </g>
   <g id="line2d_20">
    <path d="M 43.916364 98.637856 
L 44.468628 98.765422 
L 45.3595 98.756652 
L 46.250371 98.588424 
L 48.922979 98.791733 
L 54.268192 98.599586 
L 55.159063 98.789341 
L 56.940797 98.699247 
L 57.831669 97.996833 
L 58.722538 98.782166 
L 68.522078 98.785355 
L 69.412965 96.961948 
L 70.30383 98.796517 
L 72.085571 98.760639 
L 72.976442 98.802895 
L 73.867306 98.109251 
L 74.758184 98.844354 
L 78.321655 98.764625 
L 79.212509 98.833192 
L 80.103391 98.570883 
L 80.994245 98.873057 
L 82.775998 98.755058 
L 85.44861 98.746287 
L 95.248438 98.870665 
L 97.030192 98.684099 
L 97.921065 98.808476 
L 98.811931 98.668153 
L 99.702798 98.83399 
L 101.484533 98.791733 
L 102.375401 98.723166 
L 103.266272 98.436141 
L 104.157138 98.716788 
L 105.048009 98.053441 
L 105.93888 98.908935 
L 106.829748 98.148319 
L 107.720614 98.695261 
L 108.611487 98.818841 
L 110.393224 98.839571 
L 111.284094 98.259939 
L 112.17496 98.875449 
L 113.065834 98.627491 
L 113.956695 98.79253 
L 114.847564 98.470425 
L 115.738441 98.755058 
L 116.629309 98.849935 
L 117.520178 98.802098 
L 118.41104 98.63945 
L 120.192782 98.818841 
L 121.083649 98.527032 
L 121.97452 98.645031 
L 129.992342 98.709612 
L 130.883214 98.457668 
L 131.774065 98.735923 
L 132.664946 98.774193 
L 133.55582 98.644234 
L 135.337558 98.802895 
L 136.228424 98.711207 
L 140.68277 98.763031 
L 141.57364 98.739909 
L 142.464507 98.578856 
L 144.246246 98.726355 
L 145.137113 98.555735 
L 146.027984 98.703234 
L 146.918849 98.203332 
L 173.644977 98.203332 
L 183.444521 98.762233 
L 186.117131 98.625099 
L 187.007996 97.989658 
L 187.898864 98.723963 
L 189.680603 98.741504 
L 190.571474 98.366777 
L 191.462343 98.732734 
L 192.353215 98.600383 
L 193.244077 98.751071 
L 194.134949 98.522248 
L 195.916688 98.640248 
L 196.807557 98.57487 
L 197.698426 98.723166 
L 202.152766 98.727152 
L 203.043636 98.74549 
L 203.043636 98.74549 
" clip-path="url(#pfb8872af01)" style="fill: none; stroke: #ff6b6b; stroke-width: 1.2; stroke-linecap: square"/>
   </g>
   <g id="patch_3">
    <path d="M 35.96 103.4 
L 35.96 5 
" style="fill: none; stroke: var(--fg-color); stroke-width: 0.8; stroke-linejoin: miter; stroke-linecap: square"/>
   </g>
   <g id="patch_4">
    <path d="M 35.96 103.4 
L 211 103.4 
" style="fill: none; stroke: var(--fg-color); stroke-width: 0.8; stroke-linejoin: miter; stroke-linecap: square"/>
   </g>
  </g>
 </g>
 <defs>
  <clipPath id="pfb8872af01">
   <rect x="35.96" y="5" width="175.04" height="98.4"/>
  </clipPath>
 </defs>
</svg>
