<?xml version="1.0" encoding="utf-8" standalone="no"?>
<!DOCTYPE svg PUBLIC "-//W3C//DTD SVG 1.1//EN"
  "http://www.w3.org/Graphics/SVG/1.1/DTD/svg11.dtd">
<svg xmlns:xlink="http://www.w3.org/1999/xlink" width="216pt" height="122.4pt" viewBox="0 0 216 122.4" xmlns="http://www.w3.org/2000/svg" version="1.1">
  <style>
    :root {
      --fg-color: #212529;
      --grid-color: rgba(33, 37, 41, 0.1);
    }
    @media (prefers-color-scheme: dark) {
      :root {
        --fg-color: #dee2e6;
        --grid-color: rgba(248, 249, 250, 0.15);
      }
    }
  </style>

 <metadata>
  <rdf:RDF xmlns:dc="http://purl.org/dc/elements/1.1/" xmlns:cc="http://creativecommons.org/ns#" xmlns:rdf="http://www.w3.org/1999/02/22-rdf-syntax-ns#">
   <cc:Work>
    <dc:type rdf:resource="http://purl.org/dc/dcmitype/StillImage"/>
    <dc:date>2026-06-30T04:49:15.997793</dc:date>
    <dc:format>image/svg+xml</dc:format>
    <dc:creator>
     <cc:Agent>
      <dc:title>Matplotlib v3.11.0, https://matplotlib.org/</dc:title>
     </cc:Agent>
    </dc:creator>
   </cc:Work>
  </rdf:RDF>
 </metadata>
 <defs>
  <style type="text/css">*{stroke-linejoin: round; stroke-linecap: butt}</style>
 </defs>
 <g id="figure_1">
  <g id="patch_1">
   <path d="M 0 122.4 
L 216 122.4 
L 216 0 
L 0 0 
L 0 122.4 
z
" style="fill: none; opacity: 0"/>
  </g>
  <g id="axes_1">
   <g id="patch_2">
    <path d="M 35.96 103.4 
L 211 103.4 
L 211 5 
L 35.96 5 
L 35.96 103.4 
z
" style="fill: none; opacity: 0"/>
   </g>
   <g id="matplotlib.axis_1">
    <g id="xtick_1">
     <g id="line2d_1">
      <path d="M 70.996911 103.4 
L 70.996911 5 
" clip-path="url(#p79a721c0c7)" style="fill: none; stroke-dasharray: 2.96,1.28; stroke-dashoffset: 0; stroke: var(--grid-color); stroke-width: 0.8"/>
     </g>
     <g id="line2d_2">
      <defs>
       <path id="ma24727a08f" d="M 0 0 
L 0 3.5 
" style="stroke: var(--fg-color); stroke-width: 0.8"/>
      </defs>
      <g>
       <use xlink:href="#ma24727a08f" x="70.996911" y="103.4" style="fill: var(--fg-color); stroke: var(--fg-color); stroke-width: 0.8"/>
      </g>
     </g>
     <g id="text_1">
      <text style="font-size: 7px; font-family: 'DejaVu Sans', 'Bitstream Vera Sans', 'Computer Modern Sans Serif', 'Lucida Grande', 'Verdana', 'Geneva', 'Lucid', 'Arial', 'Helvetica', 'Avant Garde', sans-serif; text-anchor: middle; fill: var(--fg-color)" x="70.996911" y="115.718359" transform="rotate(-0 70.996911 115.718359)">02/2026</text>
     </g>
    </g>
    <g id="xtick_2">
     <g id="line2d_3">
      <path d="M 126.022656 103.4 
L 126.022656 5 
" clip-path="url(#p79a721c0c7)" style="fill: none; stroke-dasharray: 2.96,1.28; stroke-dashoffset: 0; stroke: var(--grid-color); stroke-width: 0.8"/>
     </g>
     <g id="line2d_4">
      <g>
       <use xlink:href="#ma24727a08f" x="126.022656" y="103.4" style="fill: var(--fg-color); stroke: var(--fg-color); stroke-width: 0.8"/>
      </g>
     </g>
     <g id="text_2">
      <text style="font-size: 7px; font-family: 'DejaVu Sans', 'Bitstream Vera Sans', 'Computer Modern Sans Serif', 'Lucida Grande', 'Verdana', 'Geneva', 'Lucid', 'Arial', 'Helvetica', 'Avant Garde', sans-serif; text-anchor: middle; fill: var(--fg-color)" x="126.022656" y="115.718359" transform="rotate(-0 126.022656 115.718359)">04/2026</text>
     </g>
    </g>
    <g id="xtick_3">
     <g id="line2d_5">
      <path d="M 182.913681 103.4 
L 182.913681 5 
" clip-path="url(#p79a721c0c7)" style="fill: none; stroke-dasharray: 2.96,1.28; stroke-dashoffset: 0; stroke: var(--grid-color); stroke-width: 0.8"/>
     </g>
     <g id="line2d_6">
      <g>
       <use xlink:href="#ma24727a08f" x="182.913681" y="103.4" style="fill: var(--fg-color); stroke: var(--fg-color); stroke-width: 0.8"/>
      </g>
     </g>
     <g id="text_3">
      <text style="font-size: 7px; font-family: 'DejaVu Sans', 'Bitstream Vera Sans', 'Computer Modern Sans Serif', 'Lucida Grande', 'Verdana', 'Geneva', 'Lucid', 'Arial', 'Helvetica', 'Avant Garde', sans-serif; text-anchor: middle; fill: var(--fg-color)" x="182.913681" y="115.718359" transform="rotate(-0 182.913681 115.718359)">06/2026</text>
     </g>
    </g>
   </g>
   <g id="matplotlib.axis_2">
    <g id="ytick_1">
     <g id="line2d_7">
      <path d="M 35.96 101.333318 
L 211 101.333318 
" clip-path="url(#p79a721c0c7)" style="fill: none; stroke-dasharray: 2.96,1.28; stroke-dashoffset: 0; stroke: var(--grid-color); stroke-width: 0.8"/>
     </g>
     <g id="line2d_8">
      <defs>
       <path id="mcdcc1ebced" d="M 0 0 
L -3.5 0 
" style="stroke: var(--fg-color); stroke-width: 0.8"/>
      </defs>
      <g>
       <use xlink:href="#mcdcc1ebced" x="35.96" y="101.333318" style="fill: var(--fg-color); stroke: var(--fg-color); stroke-width: 0.8"/>
      </g>
     </g>
     <g id="text_4">
      <text style="font-size: 7px; font-family: 'DejaVu Sans', 'Bitstream Vera Sans', 'Computer Modern Sans Serif', 'Lucida Grande', 'Verdana', 'Geneva', 'Lucid', 'Arial', 'Helvetica', 'Avant Garde', sans-serif; text-anchor: end; fill: var(--fg-color)" x="28.96" y="103.992498" transform="rotate(-0 28.96 103.992498)">0</text>
     </g>
    </g>
    <g id="ytick_2">
     <g id="line2d_9">
      <path d="M 35.96 85.778332 
L 211 85.778332 
" clip-path="url(#p79a721c0c7)" style="fill: none; stroke-dasharray: 2.96,1.28; stroke-dashoffset: 0; stroke: var(--grid-color); stroke-width: 0.8"/>
     </g>
     <g id="line2d_10">
      <g>
       <use xlink:href="#mcdcc1ebced" x="35.96" y="85.778332" style="fill: var(--fg-color); stroke: var(--fg-color); stroke-width: 0.8"/>
      </g>
     </g>
     <g id="text_5">
      <text style="font-size: 7px; font-family: 'DejaVu Sans', 'Bitstream Vera Sans', 'Computer Modern Sans Serif', 'Lucida Grande', 'Verdana', 'Geneva', 'Lucid', 'Arial', 'Helvetica', 'Avant Garde', sans-serif; text-anchor: end; fill: var(--fg-color)" x="28.96" y="88.437512" transform="rotate(-0 28.96 88.437512)">50</text>
     </g>
    </g>
    <g id="ytick_3">
     <g id="line2d_11">
      <path d="M 35.96 70.223346 
L 211 70.223346 
" clip-path="url(#p79a721c0c7)" style="fill: none; stroke-dasharray: 2.96,1.28; stroke-dashoffset: 0; stroke: var(--grid-color); stroke-width: 0.8"/>
     </g>
     <g id="line2d_12">
      <g>
       <use xlink:href="#mcdcc1ebced" x="35.96" y="70.223346" style="fill: var(--fg-color); stroke: var(--fg-color); stroke-width: 0.8"/>
      </g>
     </g>
     <g id="text_6">
      <text style="font-size: 7px; font-family: 'DejaVu Sans', 'Bitstream Vera Sans', 'Computer Modern Sans Serif', 'Lucida Grande', 'Verdana', 'Geneva', 'Lucid', 'Arial', 'Helvetica', 'Avant Garde', sans-serif; text-anchor: end; fill: var(--fg-color)" x="28.96" y="72.882526" transform="rotate(-0 28.96 72.882526)">100</text>
     </g>
    </g>
    <g id="ytick_4">
     <g id="line2d_13">
      <path d="M 35.96 54.668361 
L 211 54.668361 
" clip-path="url(#p79a721c0c7)" style="fill: none; stroke-dasharray: 2.96,1.28; stroke-dashoffset: 0; stroke: var(--grid-color); stroke-width: 0.8"/>
     </g>
     <g id="line2d_14">
      <g>
       <use xlink:href="#mcdcc1ebced" x="35.96" y="54.668361" style="fill: var(--fg-color); stroke: var(--fg-color); stroke-width: 0.8"/>
      </g>
     </g>
     <g id="text_7">
      <text style="font-size: 7px; font-family: 'DejaVu Sans', 'Bitstream Vera Sans', 'Computer Modern Sans Serif', 'Lucida Grande', 'Verdana', 'Geneva', 'Lucid', 'Arial', 'Helvetica', 'Avant Garde', sans-serif; text-anchor: end; fill: var(--fg-color)" x="28.96" y="57.32754" transform="rotate(-0 28.96 57.32754)">150</text>
     </g>
    </g>
    <g id="ytick_5">
     <g id="line2d_15">
      <path d="M 35.96 39.113375 
L 211 39.113375 
" clip-path="url(#p79a721c0c7)" style="fill: none; stroke-dasharray: 2.96,1.28; stroke-dashoffset: 0; stroke: var(--grid-color); stroke-width: 0.8"/>
     </g>
     <g id="line2d_16">
      <g>
       <use xlink:href="#mcdcc1ebced" x="35.96" y="39.113375" style="fill: var(--fg-color); stroke: var(--fg-color); stroke-width: 0.8"/>
      </g>
     </g>
     <g id="text_8">
      <text style="font-size: 7px; font-family: 'DejaVu Sans', 'Bitstream Vera Sans', 'Computer Modern Sans Serif', 'Lucida Grande', 'Verdana', 'Geneva', 'Lucid', 'Arial', 'Helvetica', 'Avant Garde', sans-serif; text-anchor: end; fill: var(--fg-color)" x="28.96" y="41.772555" transform="rotate(-0 28.96 41.772555)">200</text>
     </g>
    </g>
    <g id="ytick_6">
     <g id="line2d_17">
      <path d="M 35.96 23.558389 
L 211 23.558389 
" clip-path="url(#p79a721c0c7)" style="fill: none; stroke-dasharray: 2.96,1.28; stroke-dashoffset: 0; stroke: var(--grid-color); stroke-width: 0.8"/>
     </g>
     <g id="line2d_18">
      <g>
       <use xlink:href="#mcdcc1ebced" x="35.96" y="23.558389" style="fill: var(--fg-color); stroke: var(--fg-color); stroke-width: 0.8"/>
      </g>
     </g>
     <g id="text_9">
      <text style="font-size: 7px; font-family: 'DejaVu Sans', 'Bitstream Vera Sans', 'Computer Modern Sans Serif', 'Lucida Grande', 'Verdana', 'Geneva', 'Lucid', 'Arial', 'Helvetica', 'Avant Garde', sans-serif; text-anchor: end; fill: var(--fg-color)" x="28.96" y="26.217569" transform="rotate(-0 28.96 26.217569)">250</text>
     </g>
    </g>
    <g id="ytick_7">
     <g id="line2d_19">
      <path d="M 35.96 8.003403 
L 211 8.003403 
" clip-path="url(#p79a721c0c7)" style="fill: none; stroke-dasharray: 2.96,1.28; stroke-dashoffset: 0; stroke: var(--grid-color); stroke-width: 0.8"/>
     </g>
     <g id="line2d_20">
      <g>
       <use xlink:href="#mcdcc1ebced" x="35.96" y="8.003403" style="fill: var(--fg-color); stroke: var(--fg-color); stroke-width: 0.8"/>
      </g>
     </g>
     <g id="text_10">
      <text style="font-size: 7px; font-family: 'DejaVu Sans', 'Bitstream Vera Sans', 'Computer Modern Sans Serif', 'Lucida Grande', 'Verdana', 'Geneva', 'Lucid', 'Arial', 'Helvetica', 'Avant Garde', sans-serif; text-anchor: end; fill: var(--fg-color)" x="28.96" y="10.662583" transform="rotate(-0 28.96 10.662583)">300</text>
     </g>
    </g>
    <g id="text_11">
     <text style="font-size: 7px; font-family: 'DejaVu Sans', 'Bitstream Vera Sans', 'Computer Modern Sans Serif', 'Lucida Grande', 'Verdana', 'Geneva', 'Lucid', 'Arial', 'Helvetica', 'Avant Garde', sans-serif; text-anchor: middle; fill: var(--fg-color)" x="9.917109" y="54.2" transform="rotate(-90 9.917109 54.2)">ms</text>
    </g>
   </g>
   <g id="line2d_21">
    <path d="M 43.916364 22.891702 
L 44.494523 34.631672 
L 45.427166 24.570708 
L 46.359808 22.748285 
L 47.292453 26.819025 
L 48.22509 28.24044 
L 49.157727 27.246787 
L 50.090359 23.993929 
L 51.023007 23.270622 
L 51.95565 26.378819 
L 52.88829 19.791594 
L 53.82093 21.228874 
L 54.753566 17.521499 
L 55.686208 23.388529 
L 56.618849 17.842554 
L 57.551483 25.689111 
L 58.484126 28.494919 
L 59.416765 22.155018 
L 60.349406 29.645055 
L 61.282045 23.421194 
L 62.214684 21.49362 
L 63.147327 28.060935 
L 64.07996 25.279393 
L 65.012598 27.025284 
L 65.945245 25.446453 
L 66.877884 23.050363 
L 67.810526 25.593915 
L 68.743162 21.175676 
L 69.675784 19.748973 
L 70.608443 25.175485 
L 71.541078 30.57151 
L 72.473724 25.695644 
L 73.406361 22.238704 
L 74.339003 21.095413 
L 75.271637 17.563809 
L 76.204286 26.897111 
L 77.136912 31.009227 
L 78.069558 22.285058 
L 79.002199 20.334774 
L 79.934841 27.92654 
L 80.867465 23.06063 
L 81.800118 23.536301 
L 82.732742 20.103938 
L 83.665398 20.827867 
L 84.598038 22.922501 
L 85.53068 24.981048 
L 86.463316 19.786616 
L 87.395962 28.725755 
L 96.913595 28.337503 
L 97.655282 29.472395 
L 98.587939 19.739951 
L 99.520578 13.96874 
L 100.453222 12.580302 
L 101.385859 20.174869 
L 102.318497 24.116813 
L 103.251135 24.875585 
L 104.183773 26.597211 
L 105.116412 25.886037 
L 106.049054 14.962082 
L 106.981691 23.381373 
L 107.914333 23.022053 
L 108.846974 24.963315 
L 109.779613 21.954359 
L 110.71225 28.63647 
L 111.644893 24.858786 
L 112.57753 13.824079 
L 113.510173 22.330167 
L 114.442814 22.462696 
L 115.37545 27.239943 
L 116.308095 24.19801 
L 117.240726 20.630941 
L 118.173367 20.595475 
L 119.106014 15.410065 
L 120.038653 20.565299 
L 120.971293 28.321637 
L 121.903926 22.192039 
L 122.836569 18.159565 
L 123.769209 24.481111 
L 124.701847 18.876649 
L 125.634489 23.246356 
L 129.365046 18.128144 
L 130.297692 26.993552 
L 131.230328 12.273247 
L 132.162968 17.114581 
L 133.095609 21.03817 
L 134.028248 14.53712 
L 134.960891 22.775351 
L 135.893512 26.099452 
L 136.826165 23.864511 
L 137.75881 20.18669 
L 138.691446 18.037302 
L 139.624089 19.9319 
L 140.556726 28.916459 
L 141.489366 9.472727 
L 142.422003 9.887734 
L 143.354646 19.055221 
L 144.287298 21.508864 
L 145.219926 20.005941 
L 146.152567 21.136789 
L 147.085204 16.061508 
L 148.017844 17.389593 
L 148.950485 10.094616 
L 149.883123 24.026594 
L 150.815765 16.152971 
L 151.7484 16.633621 
L 179.727656 16.633621 
L 188.43171 16.699574 
L 189.054038 20.586454 
L 189.986678 14.620805 
L 190.919315 14.111535 
L 191.851955 21.407446 
L 192.7846 24.821454 
L 193.717237 19.854436 
L 194.649875 19.502893 
L 195.582513 22.779706 
L 196.515156 19.016644 
L 197.447798 23.43426 
L 198.380437 22.303413 
L 199.313081 22.453052 
L 200.245713 14.125224 
L 201.178356 24.669948 
L 202.110995 19.856925 
L 203.043636 22.82326 
" clip-path="url(#p79a721c0c7)" style="fill: none; stroke: #339af0; stroke-width: 1.2; stroke-linecap: square"/>
   </g>
   <g id="line2d_22">
    <path d="M 43.916364 98.305384 
L 44.494523 98.013884 
L 45.427166 96.79624 
L 46.359808 97.103606 
L 47.292453 97.5827 
L 48.22509 97.671363 
L 49.157727 97.522969 
L 50.090359 97.316087 
L 51.023007 97.765004 
L 51.95565 97.124139 
L 52.88829 96.99721 
L 53.82093 97.210624 
L 54.753566 96.958012 
L 55.686208 97.729539 
L 56.618849 97.316398 
L 57.551483 97.492481 
L 58.484126 98.131791 
L 59.416765 98.927273 
L 60.349406 97.764382 
L 61.282045 97.389507 
L 62.214684 97.374574 
L 63.147327 98.076104 
L 64.07996 96.143552 
L 65.012598 97.002188 
L 65.945245 96.822061 
L 66.877884 97.776204 
L 67.810526 98.455334 
L 68.743162 96.590603 
L 69.675784 96.391499 
L 70.608443 96.963611 
L 71.541078 97.692829 
L 72.473724 97.5659 
L 73.406361 97.119783 
L 74.339003 97.045431 
L 75.271637 96.958634 
L 76.204286 98.374449 
L 77.136912 97.833757 
L 78.069558 97.327598 
L 79.002199 97.533235 
L 79.934841 96.438786 
L 80.867465 97.572745 
L 81.800118 97.898777 
L 82.732742 97.614743 
L 83.665398 97.269733 
L 84.598038 96.785662 
L 85.53068 97.896599 
L 86.463316 98.187789 
L 87.395962 98.508221 
L 96.913595 96.952101 
L 97.655282 96.826727 
L 98.587939 96.680511 
L 99.520578 96.497584 
L 100.453222 96.832327 
L 101.385859 97.474126 
L 102.318497 98.037216 
L 103.251135 97.757538 
L 104.183773 96.592469 
L 105.116412 98.102858 
L 106.049054 97.048853 
L 106.981691 97.99584 
L 107.914333 96.503184 
L 108.846974 97.336309 
L 109.779613 97.877311 
L 110.71225 96.742731 
L 111.644893 98.073304 
L 112.57753 96.913524 
L 113.510173 97.795492 
L 114.442814 97.301466 
L 115.37545 97.22929 
L 116.308095 97.39324 
L 117.240726 97.338486 
L 118.173367 96.409543 
L 119.106014 97.437105 
L 120.038653 96.967345 
L 120.971293 97.491859 
L 121.903926 97.900333 
L 122.836569 97.211869 
L 123.769209 97.175781 
L 124.701847 96.457452 
L 125.634489 96.64349 
L 129.365046 95.715479 
L 130.297692 96.814906 
L 131.230328 96.231594 
L 132.162968 98.218276 
L 133.095609 97.553145 
L 134.028248 95.924538 
L 134.960891 98.472756 
L 135.893512 96.945256 
L 136.826165 97.389196 
L 137.75881 97.170182 
L 138.691446 97.260089 
L 139.624089 95.657926 
L 140.556726 96.758286 
L 141.489366 97.562167 
L 142.422003 97.259467 
L 143.354646 96.818639 
L 144.287298 97.027387 
L 145.219926 96.39741 
L 146.152567 98.631728 
L 147.085204 96.324613 
L 148.017844 97.180448 
L 148.950485 96.026268 
L 149.883123 98.050905 
L 150.815765 97.238935 
L 151.7484 96.718154 
L 179.727656 96.718154 
L 188.43171 96.891125 
L 189.054038 96.392432 
L 189.986678 96.533049 
L 190.919315 95.834319 
L 191.851955 97.76376 
L 192.7846 96.660289 
L 193.717237 97.012765 
L 194.649875 97.140316 
L 195.582513 97.416884 
L 196.515156 95.879429 
L 197.447798 98.01855 
L 198.380437 96.473629 
L 199.313081 97.359952 
L 200.245713 97.442705 
L 201.178356 97.298044 
L 202.110995 98.171923 
L 203.043636 97.244534 
" clip-path="url(#p79a721c0c7)" style="fill: none; stroke: #ff6b6b; stroke-width: 1.2; stroke-linecap: square"/>
   </g>
   <g id="patch_3">
    <path d="M 35.96 103.4 
L 35.96 5 
" style="fill: none; stroke: var(--fg-color); stroke-width: 0.8; stroke-linejoin: miter; stroke-linecap: square"/>
   </g>
   <g id="patch_4">
    <path d="M 35.96 103.4 
L 211 103.4 
" style="fill: none; stroke: var(--fg-color); stroke-width: 0.8; stroke-linejoin: miter; stroke-linecap: square"/>
   </g>
  </g>
 </g>
 <defs>
  <clipPath id="p79a721c0c7">
   <rect x="35.96" y="5" width="175.04" height="98.4"/>
  </clipPath>
 </defs>
</svg>
