<?xml version="1.0" encoding="utf-8" standalone="no"?>
<!DOCTYPE svg PUBLIC "-//W3C//DTD SVG 1.1//EN"
  "http://www.w3.org/Graphics/SVG/1.1/DTD/svg11.dtd">
<svg xmlns:xlink="http://www.w3.org/1999/xlink" width="216pt" height="122.4pt" viewBox="0 0 216 122.4" xmlns="http://www.w3.org/2000/svg" version="1.1">
  <style>
    :root {
      --fg-color: #212529;
      --grid-color: rgba(33, 37, 41, 0.1);
    }
    @media (prefers-color-scheme: dark) {
      :root {
        --fg-color: #dee2e6;
        --grid-color: rgba(248, 249, 250, 0.15);
      }
    }
  </style>

 <metadata>
  <rdf:RDF xmlns:dc="http://purl.org/dc/elements/1.1/" xmlns:cc="http://creativecommons.org/ns#" xmlns:rdf="http://www.w3.org/1999/02/22-rdf-syntax-ns#">
   <cc:Work>
    <dc:type rdf:resource="http://purl.org/dc/dcmitype/StillImage"/>
    <dc:date>2026-06-30T04:49:02.302553</dc:date>
    <dc:format>image/svg+xml</dc:format>
    <dc:creator>
     <cc:Agent>
      <dc:title>Matplotlib v3.11.0, https://matplotlib.org/</dc:title>
     </cc:Agent>
    </dc:creator>
   </cc:Work>
  </rdf:RDF>
 </metadata>
 <defs>
  <style type="text/css">*{stroke-linejoin: round; stroke-linecap: butt}</style>
 </defs>
 <g id="figure_1">
  <g id="patch_1">
   <path d="M 0 122.4 
L 216 122.4 
L 216 0 
L 0 0 
L 0 122.4 
z
" style="fill: none; opacity: 0"/>
  </g>
  <g id="axes_1">
   <g id="patch_2">
    <path d="M 35.96 103.4 
L 211 103.4 
L 211 5 
L 35.96 5 
L 35.96 103.4 
z
" style="fill: none; opacity: 0"/>
   </g>
   <g id="matplotlib.axis_1">
    <g id="xtick_1">
     <g id="line2d_1">
      <path d="M 70.996911 103.4 
L 70.996911 5 
" clip-path="url(#p8e3495515b)" style="fill: none; stroke-dasharray: 2.96,1.28; stroke-dashoffset: 0; stroke: var(--grid-color); stroke-width: 0.8"/>
     </g>
     <g id="line2d_2">
      <defs>
       <path id="mf7bb8406b6" d="M 0 0 
L 0 3.5 
" style="stroke: var(--fg-color); stroke-width: 0.8"/>
      </defs>
      <g>
       <use xlink:href="#mf7bb8406b6" x="70.996911" y="103.4" style="fill: var(--fg-color); stroke: var(--fg-color); stroke-width: 0.8"/>
      </g>
     </g>
     <g id="text_1">
      <text style="font-size: 7px; font-family: 'DejaVu Sans', 'Bitstream Vera Sans', 'Computer Modern Sans Serif', 'Lucida Grande', 'Verdana', 'Geneva', 'Lucid', 'Arial', 'Helvetica', 'Avant Garde', sans-serif; text-anchor: middle; fill: var(--fg-color)" x="70.996911" y="115.718359" transform="rotate(-0 70.996911 115.718359)">02/2026</text>
     </g>
    </g>
    <g id="xtick_2">
     <g id="line2d_3">
      <path d="M 126.022656 103.4 
L 126.022656 5 
" clip-path="url(#p8e3495515b)" style="fill: none; stroke-dasharray: 2.96,1.28; stroke-dashoffset: 0; stroke: var(--grid-color); stroke-width: 0.8"/>
     </g>
     <g id="line2d_4">
      <g>
       <use xlink:href="#mf7bb8406b6" x="126.022656" y="103.4" style="fill: var(--fg-color); stroke: var(--fg-color); stroke-width: 0.8"/>
      </g>
     </g>
     <g id="text_2">
      <text style="font-size: 7px; font-family: 'DejaVu Sans', 'Bitstream Vera Sans', 'Computer Modern Sans Serif', 'Lucida Grande', 'Verdana', 'Geneva', 'Lucid', 'Arial', 'Helvetica', 'Avant Garde', sans-serif; text-anchor: middle; fill: var(--fg-color)" x="126.022656" y="115.718359" transform="rotate(-0 126.022656 115.718359)">04/2026</text>
     </g>
    </g>
    <g id="xtick_3">
     <g id="line2d_5">
      <path d="M 182.913681 103.4 
L 182.913681 5 
" clip-path="url(#p8e3495515b)" style="fill: none; stroke-dasharray: 2.96,1.28; stroke-dashoffset: 0; stroke: var(--grid-color); stroke-width: 0.8"/>
     </g>
     <g id="line2d_6">
      <g>
       <use xlink:href="#mf7bb8406b6" x="182.913681" y="103.4" style="fill: var(--fg-color); stroke: var(--fg-color); stroke-width: 0.8"/>
      </g>
     </g>
     <g id="text_3">
      <text style="font-size: 7px; font-family: 'DejaVu Sans', 'Bitstream Vera Sans', 'Computer Modern Sans Serif', 'Lucida Grande', 'Verdana', 'Geneva', 'Lucid', 'Arial', 'Helvetica', 'Avant Garde', sans-serif; text-anchor: middle; fill: var(--fg-color)" x="182.913681" y="115.718359" transform="rotate(-0 182.913681 115.718359)">06/2026</text>
     </g>
    </g>
   </g>
   <g id="matplotlib.axis_2">
    <g id="ytick_1">
     <g id="line2d_7">
      <path d="M 35.96 99.588189 
L 211 99.588189 
" clip-path="url(#p8e3495515b)" style="fill: none; stroke-dasharray: 2.96,1.28; stroke-dashoffset: 0; stroke: var(--grid-color); stroke-width: 0.8"/>
     </g>
     <g id="line2d_8">
      <defs>
       <path id="mea87b32274" d="M 0 0 
L -3.5 0 
" style="stroke: var(--fg-color); stroke-width: 0.8"/>
      </defs>
      <g>
       <use xlink:href="#mea87b32274" x="35.96" y="99.588189" style="fill: var(--fg-color); stroke: var(--fg-color); stroke-width: 0.8"/>
      </g>
     </g>
     <g id="text_4">
      <text style="font-size: 7px; font-family: 'DejaVu Sans', 'Bitstream Vera Sans', 'Computer Modern Sans Serif', 'Lucida Grande', 'Verdana', 'Geneva', 'Lucid', 'Arial', 'Helvetica', 'Avant Garde', sans-serif; text-anchor: end; fill: var(--fg-color)" x="28.96" y="102.247369" transform="rotate(-0 28.96 102.247369)">0</text>
     </g>
    </g>
    <g id="ytick_2">
     <g id="line2d_9">
      <path d="M 35.96 75.343268 
L 211 75.343268 
" clip-path="url(#p8e3495515b)" style="fill: none; stroke-dasharray: 2.96,1.28; stroke-dashoffset: 0; stroke: var(--grid-color); stroke-width: 0.8"/>
     </g>
     <g id="line2d_10">
      <g>
       <use xlink:href="#mea87b32274" x="35.96" y="75.343268" style="fill: var(--fg-color); stroke: var(--fg-color); stroke-width: 0.8"/>
      </g>
     </g>
     <g id="text_5">
      <text style="font-size: 7px; font-family: 'DejaVu Sans', 'Bitstream Vera Sans', 'Computer Modern Sans Serif', 'Lucida Grande', 'Verdana', 'Geneva', 'Lucid', 'Arial', 'Helvetica', 'Avant Garde', sans-serif; text-anchor: end; fill: var(--fg-color)" x="28.96" y="78.002448" transform="rotate(-0 28.96 78.002448)">50</text>
     </g>
    </g>
    <g id="ytick_3">
     <g id="line2d_11">
      <path d="M 35.96 51.098347 
L 211 51.098347 
" clip-path="url(#p8e3495515b)" style="fill: none; stroke-dasharray: 2.96,1.28; stroke-dashoffset: 0; stroke: var(--grid-color); stroke-width: 0.8"/>
     </g>
     <g id="line2d_12">
      <g>
       <use xlink:href="#mea87b32274" x="35.96" y="51.098347" style="fill: var(--fg-color); stroke: var(--fg-color); stroke-width: 0.8"/>
      </g>
     </g>
     <g id="text_6">
      <text style="font-size: 7px; font-family: 'DejaVu Sans', 'Bitstream Vera Sans', 'Computer Modern Sans Serif', 'Lucida Grande', 'Verdana', 'Geneva', 'Lucid', 'Arial', 'Helvetica', 'Avant Garde', sans-serif; text-anchor: end; fill: var(--fg-color)" x="28.96" y="53.757527" transform="rotate(-0 28.96 53.757527)">100</text>
     </g>
    </g>
    <g id="ytick_4">
     <g id="line2d_13">
      <path d="M 35.96 26.853426 
L 211 26.853426 
" clip-path="url(#p8e3495515b)" style="fill: none; stroke-dasharray: 2.96,1.28; stroke-dashoffset: 0; stroke: var(--grid-color); stroke-width: 0.8"/>
     </g>
     <g id="line2d_14">
      <g>
       <use xlink:href="#mea87b32274" x="35.96" y="26.853426" style="fill: var(--fg-color); stroke: var(--fg-color); stroke-width: 0.8"/>
      </g>
     </g>
     <g id="text_7">
      <text style="font-size: 7px; font-family: 'DejaVu Sans', 'Bitstream Vera Sans', 'Computer Modern Sans Serif', 'Lucida Grande', 'Verdana', 'Geneva', 'Lucid', 'Arial', 'Helvetica', 'Avant Garde', sans-serif; text-anchor: end; fill: var(--fg-color)" x="28.96" y="29.512606" transform="rotate(-0 28.96 29.512606)">150</text>
     </g>
    </g>
    <g id="text_8">
     <text style="font-size: 7px; font-family: 'DejaVu Sans', 'Bitstream Vera Sans', 'Computer Modern Sans Serif', 'Lucida Grande', 'Verdana', 'Geneva', 'Lucid', 'Arial', 'Helvetica', 'Avant Garde', sans-serif; text-anchor: middle; fill: var(--fg-color)" x="9.917109" y="54.2" transform="rotate(-90 9.917109 54.2)">ms</text>
    </g>
   </g>
   <g id="line2d_15">
    <path d="M 43.916364 44.659381 
L 44.494523 41.880913 
L 45.427166 49.238762 
L 46.359808 44.539611 
L 47.292453 44.590041 
L 48.22509 49.524852 
L 49.157727 24.162725 
L 50.090359 36.349192 
L 51.023007 50.827289 
L 51.95565 42.944295 
L 52.88829 37.357296 
L 53.82093 45.452675 
L 54.753566 22.671177 
L 55.686208 30.183224 
L 56.618849 32.664934 
L 57.551483 34.899346 
L 58.484126 29.529581 
L 59.416765 45.64518 
L 60.349406 43.897121 
L 61.282045 41.478447 
L 62.214684 27.756792 
L 63.147327 21.813877 
L 64.07996 31.021128 
L 65.012598 21.747931 
L 65.945245 27.685512 
L 66.877884 9.472727 
L 67.810526 37.393178 
L 68.743162 35.468132 
L 69.675784 40.446584 
L 70.608443 19.117842 
L 71.541078 38.089977 
L 72.473724 32.527223 
L 73.406361 24.926925 
L 74.339003 39.469998 
L 75.271637 23.061036 
L 76.204286 34.555553 
L 77.136912 37.531859 
L 78.069558 30.310267 
L 79.002199 34.179272 
L 79.934841 29.07911 
L 80.867465 36.098015 
L 81.800118 41.25394 
L 82.732742 36.805966 
L 83.665398 23.275361 
L 84.598038 41.554577 
L 85.53068 36.876277 
L 86.463316 19.807367 
L 87.395962 18.591727 
L 96.913595 33.35349 
L 97.655282 36.607158 
L 98.587939 53.757045 
L 99.520578 37.17158 
L 100.453222 17.031809 
L 101.385859 22.468005 
L 102.318497 47.21722 
L 103.251135 45.806166 
L 104.183773 44.816973 
L 105.116412 42.021049 
L 106.049054 49.03365 
L 106.981691 46.342948 
L 107.914333 39.290101 
L 108.846974 44.21279 
L 109.779613 49.162633 
L 110.71225 42.927809 
L 111.644893 43.410768 
L 112.57753 45.426975 
L 113.510173 43.528598 
L 114.442814 41.073557 
L 115.37545 51.983287 
L 116.308095 45.557413 
L 117.240726 49.358532 
L 118.173367 43.724982 
L 119.106014 39.359926 
L 120.038653 37.959055 
L 120.971293 41.247151 
L 121.903926 38.233022 
L 122.836569 32.961692 
L 123.769209 38.107919 
L 124.701847 48.455166 
L 125.634489 36.635282 
L 129.365046 38.683008 
L 130.297692 29.38896 
L 131.230328 44.858189 
L 132.162968 34.728661 
L 133.095609 37.070236 
L 134.028248 45.750887 
L 134.960891 40.486345 
L 135.893512 44.003314 
L 136.826165 25.144644 
L 137.75881 44.795153 
L 138.691446 31.669922 
L 139.624089 41.798965 
L 140.556726 36.048555 
L 141.489366 32.802645 
L 142.422003 33.373855 
L 143.354646 41.877034 
L 144.287298 39.122811 
L 145.219926 36.2173 
L 146.152567 22.740033 
L 147.085204 40.898024 
L 148.017844 32.783734 
L 148.950485 29.105295 
L 149.883123 26.856336 
L 150.815765 32.116029 
L 151.7484 17.802797 
L 179.727656 17.802797 
L 188.43171 40.890751 
L 189.054038 41.031856 
L 189.986678 36.255122 
L 190.919315 41.540999 
L 191.851955 39.74833 
L 192.7846 41.673862 
L 193.717237 33.422345 
L 194.649875 36.688621 
L 195.582513 25.928725 
L 196.515156 39.250339 
L 197.447798 37.089632 
L 198.380437 38.723255 
L 199.313081 42.564135 
L 200.245713 44.608467 
L 201.178356 42.728031 
L 202.110995 42.907443 
L 203.043636 34.890133 
" clip-path="url(#p8e3495515b)" style="fill: none; stroke: #339af0; stroke-width: 1.2; stroke-linecap: square"/>
   </g>
   <g id="line2d_16">
    <path d="M 43.916364 98.828838 
L 44.494523 98.800229 
L 45.427166 98.862781 
L 46.359808 98.852598 
L 47.292453 98.826414 
L 48.22509 98.854538 
L 49.157727 98.84678 
L 50.090359 98.865691 
L 51.023007 98.875873 
L 51.95565 98.762407 
L 52.88829 98.84678 
L 53.82093 98.865691 
L 54.753566 98.809927 
L 55.686208 98.884602 
L 56.618849 98.856962 
L 57.551483 98.84581 
L 58.484126 98.856478 
L 59.416765 98.861811 
L 60.349406 98.812352 
L 61.282045 98.835142 
L 62.214684 98.858417 
L 63.147327 98.878783 
L 64.07996 98.848234 
L 65.012598 98.833687 
L 65.945245 98.871994 
L 66.877884 98.850174 
L 67.810526 98.843385 
L 68.743162 98.842416 
L 69.675784 98.838051 
L 70.608443 98.89139 
L 71.541078 98.831748 
L 72.473724 98.879753 
L 73.406361 98.841931 
L 74.339003 98.91709 
L 75.271637 98.837082 
L 76.204286 98.860357 
L 77.136912 98.867145 
L 78.069558 98.871994 
L 79.002199 98.842416 
L 79.934841 98.830778 
L 80.867465 98.857932 
L 81.800118 98.872479 
L 82.732742 98.876843 
L 83.665398 98.812352 
L 84.598038 98.876843 
L 85.53068 98.848234 
L 86.463316 98.896239 
L 87.395962 98.862296 
L 96.913595 98.853083 
L 97.655282 98.826414 
L 98.587939 98.927273 
L 99.520578 98.89139 
L 100.453222 98.77356 
L 101.385859 98.838536 
L 102.318497 98.840961 
L 103.251135 98.828353 
L 104.183773 98.830778 
L 105.116412 98.839991 
L 106.049054 98.86666 
L 106.981691 98.841931 
L 107.914333 98.792956 
L 108.846974 98.859387 
L 109.779613 98.824959 
L 110.71225 98.839021 
L 111.644893 98.848719 
L 112.57753 98.849689 
L 113.510173 98.82205 
L 114.442814 98.826899 
L 115.37545 98.872479 
L 116.308095 98.845325 
L 117.240726 98.869085 
L 118.173367 98.353638 
L 119.106014 98.777439 
L 120.038653 98.814776 
L 120.971293 98.870055 
L 121.903926 98.77259 
L 122.836569 98.753194 
L 123.769209 98.801684 
L 124.701847 98.798775 
L 125.634489 98.687733 
L 129.365046 98.757073 
L 130.297692 98.726525 
L 131.230328 98.783258 
L 132.162968 98.794411 
L 133.095609 98.774045 
L 134.028248 98.761437 
L 134.960891 98.269266 
L 135.893512 98.805563 
L 136.826165 98.745436 
L 137.75881 98.757073 
L 138.691446 98.802169 
L 139.624089 98.749315 
L 140.556726 98.692582 
L 141.489366 98.48844 
L 142.422003 98.698886 
L 143.354646 98.793926 
L 144.287298 98.666882 
L 145.219926 98.650396 
L 146.152567 98.691612 
L 147.085204 98.769681 
L 148.017844 98.733798 
L 148.950485 98.780349 
L 149.883123 98.751255 
L 150.815765 98.694521 
L 151.7484 98.730404 
L 179.727656 98.730404 
L 188.43171 98.740587 
L 189.054038 98.687733 
L 189.986678 98.77356 
L 190.919315 98.855993 
L 191.851955 98.79732 
L 192.7846 98.782288 
L 193.717237 98.81914 
L 194.649875 98.833202 
L 195.582513 98.787137 
L 196.515156 98.773075 
L 197.447798 98.789077 
L 198.380437 98.79538 
L 199.313081 98.859872 
L 200.245713 98.887996 
L 201.178356 98.859387 
L 202.110995 98.72604 
L 203.043636 98.231928 
" clip-path="url(#p8e3495515b)" style="fill: none; stroke: #ff6b6b; stroke-width: 1.2; stroke-linecap: square"/>
   </g>
   <g id="patch_3">
    <path d="M 35.96 103.4 
L 35.96 5 
" style="fill: none; stroke: var(--fg-color); stroke-width: 0.8; stroke-linejoin: miter; stroke-linecap: square"/>
   </g>
   <g id="patch_4">
    <path d="M 35.96 103.4 
L 211 103.4 
" style="fill: none; stroke: var(--fg-color); stroke-width: 0.8; stroke-linejoin: miter; stroke-linecap: square"/>
   </g>
  </g>
 </g>
 <defs>
  <clipPath id="p8e3495515b">
   <rect x="35.96" y="5" width="175.04" height="98.4"/>
  </clipPath>
 </defs>
</svg>
