<?xml version="1.0" encoding="utf-8" standalone="no"?>
<!DOCTYPE svg PUBLIC "-//W3C//DTD SVG 1.1//EN"
  "http://www.w3.org/Graphics/SVG/1.1/DTD/svg11.dtd">
<svg xmlns:xlink="http://www.w3.org/1999/xlink" width="216pt" height="122.4pt" viewBox="0 0 216 122.4" xmlns="http://www.w3.org/2000/svg" version="1.1">
  <style>
    :root {
      --fg-color: #212529;
      --grid-color: rgba(33, 37, 41, 0.1);
    }
    @media (prefers-color-scheme: dark) {
      :root {
        --fg-color: #dee2e6;
        --grid-color: rgba(248, 249, 250, 0.15);
      }
    }
  </style>

 <metadata>
  <rdf:RDF xmlns:dc="http://purl.org/dc/elements/1.1/" xmlns:cc="http://creativecommons.org/ns#" xmlns:rdf="http://www.w3.org/1999/02/22-rdf-syntax-ns#">
   <cc:Work>
    <dc:type rdf:resource="http://purl.org/dc/dcmitype/StillImage"/>
    <dc:date>2026-06-30T04:48:48.865394</dc:date>
    <dc:format>image/svg+xml</dc:format>
    <dc:creator>
     <cc:Agent>
      <dc:title>Matplotlib v3.11.0, https://matplotlib.org/</dc:title>
     </cc:Agent>
    </dc:creator>
   </cc:Work>
  </rdf:RDF>
 </metadata>
 <defs>
  <style type="text/css">*{stroke-linejoin: round; stroke-linecap: butt}</style>
 </defs>
 <g id="figure_1">
  <g id="patch_1">
   <path d="M 0 122.4 
L 216 122.4 
L 216 0 
L 0 0 
L 0 122.4 
z
" style="fill: none; opacity: 0"/>
  </g>
  <g id="axes_1">
   <g id="patch_2">
    <path d="M 35.96 103.4 
L 211 103.4 
L 211 5 
L 35.96 5 
L 35.96 103.4 
z
" style="fill: none; opacity: 0"/>
   </g>
   <g id="matplotlib.axis_1">
    <g id="xtick_1">
     <g id="line2d_1">
      <path d="M 70.996911 103.4 
L 70.996911 5 
" clip-path="url(#pc1e9fbcce2)" style="fill: none; stroke-dasharray: 2.96,1.28; stroke-dashoffset: 0; stroke: var(--grid-color); stroke-width: 0.8"/>
     </g>
     <g id="line2d_2">
      <defs>
       <path id="md02d1577dc" d="M 0 0 
L 0 3.5 
" style="stroke: var(--fg-color); stroke-width: 0.8"/>
      </defs>
      <g>
       <use xlink:href="#md02d1577dc" x="70.996911" y="103.4" style="fill: var(--fg-color); stroke: var(--fg-color); stroke-width: 0.8"/>
      </g>
     </g>
     <g id="text_1">
      <text style="font-size: 7px; font-family: 'DejaVu Sans', 'Bitstream Vera Sans', 'Computer Modern Sans Serif', 'Lucida Grande', 'Verdana', 'Geneva', 'Lucid', 'Arial', 'Helvetica', 'Avant Garde', sans-serif; text-anchor: middle; fill: var(--fg-color)" x="70.996911" y="115.718359" transform="rotate(-0 70.996911 115.718359)">02/2026</text>
     </g>
    </g>
    <g id="xtick_2">
     <g id="line2d_3">
      <path d="M 126.022656 103.4 
L 126.022656 5 
" clip-path="url(#pc1e9fbcce2)" style="fill: none; stroke-dasharray: 2.96,1.28; stroke-dashoffset: 0; stroke: var(--grid-color); stroke-width: 0.8"/>
     </g>
     <g id="line2d_4">
      <g>
       <use xlink:href="#md02d1577dc" x="126.022656" y="103.4" style="fill: var(--fg-color); stroke: var(--fg-color); stroke-width: 0.8"/>
      </g>
     </g>
     <g id="text_2">
      <text style="font-size: 7px; font-family: 'DejaVu Sans', 'Bitstream Vera Sans', 'Computer Modern Sans Serif', 'Lucida Grande', 'Verdana', 'Geneva', 'Lucid', 'Arial', 'Helvetica', 'Avant Garde', sans-serif; text-anchor: middle; fill: var(--fg-color)" x="126.022656" y="115.718359" transform="rotate(-0 126.022656 115.718359)">04/2026</text>
     </g>
    </g>
    <g id="xtick_3">
     <g id="line2d_5">
      <path d="M 182.913681 103.4 
L 182.913681 5 
" clip-path="url(#pc1e9fbcce2)" style="fill: none; stroke-dasharray: 2.96,1.28; stroke-dashoffset: 0; stroke: var(--grid-color); stroke-width: 0.8"/>
     </g>
     <g id="line2d_6">
      <g>
       <use xlink:href="#md02d1577dc" x="182.913681" y="103.4" style="fill: var(--fg-color); stroke: var(--fg-color); stroke-width: 0.8"/>
      </g>
     </g>
     <g id="text_3">
      <text style="font-size: 7px; font-family: 'DejaVu Sans', 'Bitstream Vera Sans', 'Computer Modern Sans Serif', 'Lucida Grande', 'Verdana', 'Geneva', 'Lucid', 'Arial', 'Helvetica', 'Avant Garde', sans-serif; text-anchor: middle; fill: var(--fg-color)" x="182.913681" y="115.718359" transform="rotate(-0 182.913681 115.718359)">06/2026</text>
     </g>
    </g>
   </g>
   <g id="matplotlib.axis_2">
    <g id="ytick_1">
     <g id="line2d_7">
      <path d="M 35.96 99.631804 
L 211 99.631804 
" clip-path="url(#pc1e9fbcce2)" style="fill: none; stroke-dasharray: 2.96,1.28; stroke-dashoffset: 0; stroke: var(--grid-color); stroke-width: 0.8"/>
     </g>
     <g id="line2d_8">
      <defs>
       <path id="mffd0a4f47d" d="M 0 0 
L -3.5 0 
" style="stroke: var(--fg-color); stroke-width: 0.8"/>
      </defs>
      <g>
       <use xlink:href="#mffd0a4f47d" x="35.96" y="99.631804" style="fill: var(--fg-color); stroke: var(--fg-color); stroke-width: 0.8"/>
      </g>
     </g>
     <g id="text_4">
      <text style="font-size: 7px; font-family: 'DejaVu Sans', 'Bitstream Vera Sans', 'Computer Modern Sans Serif', 'Lucida Grande', 'Verdana', 'Geneva', 'Lucid', 'Arial', 'Helvetica', 'Avant Garde', sans-serif; text-anchor: end; fill: var(--fg-color)" x="28.96" y="102.290984" transform="rotate(-0 28.96 102.290984)">0</text>
     </g>
    </g>
    <g id="ytick_2">
     <g id="line2d_9">
      <path d="M 35.96 80.554314 
L 211 80.554314 
" clip-path="url(#pc1e9fbcce2)" style="fill: none; stroke-dasharray: 2.96,1.28; stroke-dashoffset: 0; stroke: var(--grid-color); stroke-width: 0.8"/>
     </g>
     <g id="line2d_10">
      <g>
       <use xlink:href="#mffd0a4f47d" x="35.96" y="80.554314" style="fill: var(--fg-color); stroke: var(--fg-color); stroke-width: 0.8"/>
      </g>
     </g>
     <g id="text_5">
      <text style="font-size: 7px; font-family: 'DejaVu Sans', 'Bitstream Vera Sans', 'Computer Modern Sans Serif', 'Lucida Grande', 'Verdana', 'Geneva', 'Lucid', 'Arial', 'Helvetica', 'Avant Garde', sans-serif; text-anchor: end; fill: var(--fg-color)" x="28.96" y="83.213493" transform="rotate(-0 28.96 83.213493)">100</text>
     </g>
    </g>
    <g id="ytick_3">
     <g id="line2d_11">
      <path d="M 35.96 61.476823 
L 211 61.476823 
" clip-path="url(#pc1e9fbcce2)" style="fill: none; stroke-dasharray: 2.96,1.28; stroke-dashoffset: 0; stroke: var(--grid-color); stroke-width: 0.8"/>
     </g>
     <g id="line2d_12">
      <g>
       <use xlink:href="#mffd0a4f47d" x="35.96" y="61.476823" style="fill: var(--fg-color); stroke: var(--fg-color); stroke-width: 0.8"/>
      </g>
     </g>
     <g id="text_6">
      <text style="font-size: 7px; font-family: 'DejaVu Sans', 'Bitstream Vera Sans', 'Computer Modern Sans Serif', 'Lucida Grande', 'Verdana', 'Geneva', 'Lucid', 'Arial', 'Helvetica', 'Avant Garde', sans-serif; text-anchor: end; fill: var(--fg-color)" x="28.96" y="64.136002" transform="rotate(-0 28.96 64.136002)">200</text>
     </g>
    </g>
    <g id="ytick_4">
     <g id="line2d_13">
      <path d="M 35.96 42.399332 
L 211 42.399332 
" clip-path="url(#pc1e9fbcce2)" style="fill: none; stroke-dasharray: 2.96,1.28; stroke-dashoffset: 0; stroke: var(--grid-color); stroke-width: 0.8"/>
     </g>
     <g id="line2d_14">
      <g>
       <use xlink:href="#mffd0a4f47d" x="35.96" y="42.399332" style="fill: var(--fg-color); stroke: var(--fg-color); stroke-width: 0.8"/>
      </g>
     </g>
     <g id="text_7">
      <text style="font-size: 7px; font-family: 'DejaVu Sans', 'Bitstream Vera Sans', 'Computer Modern Sans Serif', 'Lucida Grande', 'Verdana', 'Geneva', 'Lucid', 'Arial', 'Helvetica', 'Avant Garde', sans-serif; text-anchor: end; fill: var(--fg-color)" x="28.96" y="45.058512" transform="rotate(-0 28.96 45.058512)">300</text>
     </g>
    </g>
    <g id="ytick_5">
     <g id="line2d_15">
      <path d="M 35.96 23.321841 
L 211 23.321841 
" clip-path="url(#pc1e9fbcce2)" style="fill: none; stroke-dasharray: 2.96,1.28; stroke-dashoffset: 0; stroke: var(--grid-color); stroke-width: 0.8"/>
     </g>
     <g id="line2d_16">
      <g>
       <use xlink:href="#mffd0a4f47d" x="35.96" y="23.321841" style="fill: var(--fg-color); stroke: var(--fg-color); stroke-width: 0.8"/>
      </g>
     </g>
     <g id="text_8">
      <text style="font-size: 7px; font-family: 'DejaVu Sans', 'Bitstream Vera Sans', 'Computer Modern Sans Serif', 'Lucida Grande', 'Verdana', 'Geneva', 'Lucid', 'Arial', 'Helvetica', 'Avant Garde', sans-serif; text-anchor: end; fill: var(--fg-color)" x="28.96" y="25.981021" transform="rotate(-0 28.96 25.981021)">400</text>
     </g>
    </g>
    <g id="text_9">
     <text style="font-size: 7px; font-family: 'DejaVu Sans', 'Bitstream Vera Sans', 'Computer Modern Sans Serif', 'Lucida Grande', 'Verdana', 'Geneva', 'Lucid', 'Arial', 'Helvetica', 'Avant Garde', sans-serif; text-anchor: middle; fill: var(--fg-color)" x="9.917109" y="54.2" transform="rotate(-90 9.917109 54.2)">ms</text>
    </g>
   </g>
   <g id="line2d_17">
    <path d="M 43.916364 18.52099 
L 44.494523 32.79496 
L 45.427166 31.160973 
L 46.359808 19.819595 
L 47.292453 26.898107 
L 48.22509 23.929841 
L 49.157727 31.946775 
L 50.090359 28.411906 
L 51.023007 32.47484 
L 51.95565 27.646327 
L 52.88829 27.355586 
L 53.82093 23.549245 
L 54.753566 27.107578 
L 55.686208 27.66693 
L 56.618849 28.839814 
L 57.551483 31.210383 
L 58.484126 34.261828 
L 59.416765 20.735506 
L 60.349406 21.758631 
L 61.282045 17.468104 
L 62.214684 34.320587 
L 63.147327 25.394801 
L 64.07996 31.631614 
L 65.012598 31.717463 
L 65.945245 27.422357 
L 66.877884 22.994662 
L 67.810526 26.079492 
L 68.743162 36.060836 
L 69.675784 30.181153 
L 70.608443 19.732602 
L 71.541078 32.999089 
L 72.473724 22.669009 
L 73.406361 30.504135 
L 74.339003 25.866778 
L 75.271637 28.507103 
L 76.204286 29.936007 
L 77.136912 30.617264 
L 78.069558 27.4897 
L 79.002199 23.610483 
L 79.934841 28.359252 
L 80.867465 30.270054 
L 81.800118 23.173418 
L 82.732742 29.89003 
L 83.665398 27.497141 
L 84.598038 26.360504 
L 85.53068 27.803716 
L 86.463316 27.531099 
L 87.395962 30.77122 
L 96.913595 24.387891 
L 97.655282 37.426212 
L 98.587939 27.10319 
L 99.520578 32.444506 
L 100.453222 31.904041 
L 101.385859 31.210002 
L 102.318497 32.254685 
L 103.251135 35.217038 
L 104.183773 32.035676 
L 105.116412 26.818173 
L 106.049054 22.476327 
L 106.981691 21.429926 
L 107.914333 22.832313 
L 108.846974 21.860124 
L 109.779613 31.060434 
L 110.71225 30.610206 
L 111.644893 12.766647 
L 112.57753 23.393382 
L 113.510173 22.947731 
L 114.442814 30.749281 
L 115.37545 24.443788 
L 116.308095 24.194445 
L 117.240726 25.023553 
L 118.173367 31.526879 
L 119.106014 24.918245 
L 120.038653 21.993857 
L 120.971293 27.688869 
L 121.903926 9.472727 
L 122.836569 26.962589 
L 123.769209 28.84859 
L 124.701847 22.495786 
L 125.634489 21.948071 
L 129.365046 23.361904 
L 130.297692 17.803868 
L 131.230328 18.923335 
L 132.162968 22.183678 
L 133.095609 28.952753 
L 134.028248 34.757271 
L 134.960891 34.581376 
L 135.893512 19.329876 
L 136.826165 25.610568 
L 137.75881 21.975352 
L 138.691446 29.893846 
L 139.624089 26.682723 
L 140.556726 19.252612 
L 141.489366 23.491821 
L 142.422003 20.230334 
L 143.354646 30.513292 
L 144.287298 21.481817 
L 145.219926 30.177528 
L 146.152567 31.307869 
L 147.085204 22.547104 
L 148.017844 27.599587 
L 148.950485 31.909955 
L 149.883123 26.540404 
L 150.815765 26.072624 
L 151.7484 26.840875 
L 179.727656 26.840875 
L 188.43171 31.738067 
L 189.054038 34.128476 
L 189.986678 22.554926 
L 190.919315 32.893972 
L 191.851955 32.955974 
L 192.7846 21.39158 
L 193.717237 25.064188 
L 194.649875 28.358299 
L 195.582513 22.289558 
L 196.515156 29.661673 
L 197.447798 22.838227 
L 198.380437 19.937303 
L 199.313081 30.362961 
L 200.245713 25.611903 
L 201.178356 24.585152 
L 202.110995 15.479275 
L 203.043636 21.061731 
" clip-path="url(#pc1e9fbcce2)" style="fill: none; stroke: #339af0; stroke-width: 1.2; stroke-linecap: square"/>
   </g>
   <g id="line2d_18">
    <path d="M 43.916364 98.393675 
L 44.494523 98.835128 
L 45.427166 98.810328 
L 46.359808 98.568044 
L 47.292453 98.590937 
L 48.22509 98.618217 
L 49.157727 98.644354 
L 50.090359 98.448809 
L 51.023007 98.84543 
L 51.95565 98.733636 
L 52.88829 98.641683 
L 53.82093 98.675259 
L 54.753566 98.881105 
L 55.686208 98.725051 
L 56.618849 98.748898 
L 57.551483 98.60658 
L 58.484126 98.825208 
L 59.416765 98.852871 
L 60.349406 98.583496 
L 61.282045 98.212058 
L 62.214684 98.588456 
L 63.147327 98.718947 
L 64.07996 98.772936 
L 65.012598 98.801361 
L 65.945245 98.38509 
L 66.877884 98.095685 
L 67.810526 98.703303 
L 68.743162 98.602383 
L 69.675784 98.821393 
L 70.608443 98.490207 
L 71.541078 98.793921 
L 72.473724 98.62871 
L 73.406361 98.088435 
L 74.339003 98.719137 
L 75.271637 98.2939 
L 76.204286 98.419621 
L 77.136912 98.782665 
L 78.069558 98.859548 
L 79.002199 98.474755 
L 79.934841 98.803269 
L 80.867465 98.590555 
L 81.800118 98.631953 
L 82.732742 98.441751 
L 83.665398 98.763969 
L 84.598038 98.886828 
L 85.53068 98.630809 
L 86.463316 98.560985 
L 87.395962 98.876717 
L 96.913595 98.682509 
L 97.655282 98.424199 
L 98.587939 98.828642 
L 99.520578 98.656754 
L 100.453222 98.477235 
L 101.385859 98.755194 
L 102.318497 98.628138 
L 103.251135 98.897512 
L 104.183773 98.713605 
L 105.116412 98.632716 
L 106.049054 98.728867 
L 106.981691 97.784149 
L 107.914333 98.300386 
L 108.846974 98.714749 
L 109.779613 98.415233 
L 110.71225 98.755385 
L 111.644893 98.789342 
L 112.57753 98.927273 
L 113.510173 98.783238 
L 114.442814 98.391386 
L 115.37545 98.580635 
L 116.308095 98.850772 
L 117.240726 98.689376 
L 118.173367 98.447092 
L 119.106014 98.504134 
L 120.038653 98.561557 
L 120.971293 98.773127 
L 121.903926 98.349034 
L 122.836569 98.413516 
L 123.769209 98.840661 
L 124.701847 98.719519 
L 125.634489 98.688232 
L 129.365046 98.615547 
L 130.297692 98.793158 
L 131.230328 98.853824 
L 132.162968 98.715322 
L 133.095609 98.694527 
L 134.028248 98.683653 
L 134.960891 98.682318 
L 135.893512 98.518824 
L 136.826165 98.331673 
L 137.75881 98.762634 
L 138.691446 98.392721 
L 139.624089 98.579681 
L 140.556726 98.561939 
L 141.489366 98.71742 
L 142.422003 98.699869 
L 143.354646 98.767022 
L 144.287298 98.578345 
L 145.219926 98.78877 
L 146.152567 98.83551 
L 147.085204 98.203473 
L 148.017844 98.4366 
L 148.950485 98.883204 
L 149.883123 98.828451 
L 150.815765 98.366394 
L 151.7484 98.673924 
L 179.727656 98.673924 
L 188.43171 98.520731 
L 189.054038 98.81586 
L 189.986678 98.623178 
L 190.919315 98.709026 
L 191.851955 98.657135 
L 192.7846 98.302866 
L 193.717237 98.738215 
L 194.649875 98.639966 
L 195.582513 98.250022 
L 196.515156 98.579681 
L 197.447798 98.655991 
L 198.380437 98.665339 
L 199.313081 97.971109 
L 200.245713 98.792013 
L 201.178356 98.181152 
L 202.110995 98.760345 
L 203.043636 98.494977 
" clip-path="url(#pc1e9fbcce2)" style="fill: none; stroke: #ff6b6b; stroke-width: 1.2; stroke-linecap: square"/>
   </g>
   <g id="patch_3">
    <path d="M 35.96 103.4 
L 35.96 5 
" style="fill: none; stroke: var(--fg-color); stroke-width: 0.8; stroke-linejoin: miter; stroke-linecap: square"/>
   </g>
   <g id="patch_4">
    <path d="M 35.96 103.4 
L 211 103.4 
" style="fill: none; stroke: var(--fg-color); stroke-width: 0.8; stroke-linejoin: miter; stroke-linecap: square"/>
   </g>
  </g>
 </g>
 <defs>
  <clipPath id="pc1e9fbcce2">
   <rect x="35.96" y="5" width="175.04" height="98.4"/>
  </clipPath>
 </defs>
</svg>
