<?xml version="1.0" encoding="utf-8" standalone="no"?>
<!DOCTYPE svg PUBLIC "-//W3C//DTD SVG 1.1//EN"
  "http://www.w3.org/Graphics/SVG/1.1/DTD/svg11.dtd">
<svg xmlns:xlink="http://www.w3.org/1999/xlink" width="216pt" height="122.4pt" viewBox="0 0 216 122.4" xmlns="http://www.w3.org/2000/svg" version="1.1">
  <style>
    :root {
      --fg-color: #212529;
      --grid-color: rgba(33, 37, 41, 0.1);
    }
    @media (prefers-color-scheme: dark) {
      :root {
        --fg-color: #dee2e6;
        --grid-color: rgba(248, 249, 250, 0.15);
      }
    }
  </style>

 <metadata>
  <rdf:RDF xmlns:dc="http://purl.org/dc/elements/1.1/" xmlns:cc="http://creativecommons.org/ns#" xmlns:rdf="http://www.w3.org/1999/02/22-rdf-syntax-ns#">
   <cc:Work>
    <dc:type rdf:resource="http://purl.org/dc/dcmitype/StillImage"/>
    <dc:date>2026-06-30T15:36:45.938635</dc:date>
    <dc:format>image/svg+xml</dc:format>
    <dc:creator>
     <cc:Agent>
      <dc:title>Matplotlib v3.11.0, https://matplotlib.org/</dc:title>
     </cc:Agent>
    </dc:creator>
   </cc:Work>
  </rdf:RDF>
 </metadata>
 <defs>
  <style type="text/css">*{stroke-linejoin: round; stroke-linecap: butt}</style>
 </defs>
 <g id="figure_1">
  <g id="patch_1">
   <path d="M 0 122.4 
L 216 122.4 
L 216 0 
L 0 0 
L 0 122.4 
z
" style="fill: none; opacity: 0"/>
  </g>
  <g id="axes_1">
   <g id="patch_2">
    <path d="M 31.64 103.4 
L 211 103.4 
L 211 5 
L 31.64 5 
L 31.64 103.4 
z
" style="fill: none; opacity: 0"/>
   </g>
   <g id="matplotlib.axis_1">
    <g id="xtick_1">
     <g id="line2d_1">
      <path d="M 66.298815 103.4 
L 66.298815 5 
" clip-path="url(#p36dc2567c3)" style="fill: none; stroke-dasharray: 2.96,1.28; stroke-dashoffset: 0; stroke: var(--grid-color); stroke-width: 0.8"/>
     </g>
     <g id="line2d_2">
      <defs>
       <path id="md4478c8e61" d="M 0 0 
L 0 3.5 
" style="stroke: var(--fg-color); stroke-width: 0.8"/>
      </defs>
      <g>
       <use xlink:href="#md4478c8e61" x="66.298815" y="103.4" style="fill: var(--fg-color); stroke: var(--fg-color); stroke-width: 0.8"/>
      </g>
     </g>
     <g id="text_1">
      <text style="font-size: 7px; font-family: 'DejaVu Sans', 'Bitstream Vera Sans', 'Computer Modern Sans Serif', 'Lucida Grande', 'Verdana', 'Geneva', 'Lucid', 'Arial', 'Helvetica', 'Avant Garde', sans-serif; text-anchor: middle; fill: var(--fg-color)" x="66.298815" y="115.718359" transform="rotate(-0 66.298815 115.718359)">02/2026</text>
     </g>
    </g>
    <g id="xtick_2">
     <g id="line2d_3">
      <path d="M 120.157298 103.4 
L 120.157298 5 
" clip-path="url(#p36dc2567c3)" style="fill: none; stroke-dasharray: 2.96,1.28; stroke-dashoffset: 0; stroke: var(--grid-color); stroke-width: 0.8"/>
     </g>
     <g id="line2d_4">
      <g>
       <use xlink:href="#md4478c8e61" x="120.157298" y="103.4" style="fill: var(--fg-color); stroke: var(--fg-color); stroke-width: 0.8"/>
      </g>
     </g>
     <g id="text_2">
      <text style="font-size: 7px; font-family: 'DejaVu Sans', 'Bitstream Vera Sans', 'Computer Modern Sans Serif', 'Lucida Grande', 'Verdana', 'Geneva', 'Lucid', 'Arial', 'Helvetica', 'Avant Garde', sans-serif; text-anchor: middle; fill: var(--fg-color)" x="120.157298" y="115.718359" transform="rotate(-0 120.157298 115.718359)">04/2026</text>
     </g>
    </g>
    <g id="xtick_3">
     <g id="line2d_5">
      <path d="M 175.841492 103.4 
L 175.841492 5 
" clip-path="url(#p36dc2567c3)" style="fill: none; stroke-dasharray: 2.96,1.28; stroke-dashoffset: 0; stroke: var(--grid-color); stroke-width: 0.8"/>
     </g>
     <g id="line2d_6">
      <g>
       <use xlink:href="#md4478c8e61" x="175.841492" y="103.4" style="fill: var(--fg-color); stroke: var(--fg-color); stroke-width: 0.8"/>
      </g>
     </g>
     <g id="text_3">
      <text style="font-size: 7px; font-family: 'DejaVu Sans', 'Bitstream Vera Sans', 'Computer Modern Sans Serif', 'Lucida Grande', 'Verdana', 'Geneva', 'Lucid', 'Arial', 'Helvetica', 'Avant Garde', sans-serif; text-anchor: middle; fill: var(--fg-color)" x="175.841492" y="115.718359" transform="rotate(-0 175.841492 115.718359)">06/2026</text>
     </g>
    </g>
   </g>
   <g id="matplotlib.axis_2">
    <g id="ytick_1">
     <g id="line2d_7">
      <path d="M 31.64 100.801634 
L 211 100.801634 
" clip-path="url(#p36dc2567c3)" style="fill: none; stroke-dasharray: 2.96,1.28; stroke-dashoffset: 0; stroke: var(--grid-color); stroke-width: 0.8"/>
     </g>
     <g id="line2d_8">
      <defs>
       <path id="m211ee93ffc" d="M 0 0 
L -3.5 0 
" style="stroke: var(--fg-color); stroke-width: 0.8"/>
      </defs>
      <g>
       <use xlink:href="#m211ee93ffc" x="31.64" y="100.801634" style="fill: var(--fg-color); stroke: var(--fg-color); stroke-width: 0.8"/>
      </g>
     </g>
     <g id="text_4">
      <text style="font-size: 7px; font-family: 'DejaVu Sans', 'Bitstream Vera Sans', 'Computer Modern Sans Serif', 'Lucida Grande', 'Verdana', 'Geneva', 'Lucid', 'Arial', 'Helvetica', 'Avant Garde', sans-serif; text-anchor: end; fill: var(--fg-color)" x="24.64" y="103.460814" transform="rotate(-0 24.64 103.460814)">0</text>
     </g>
    </g>
    <g id="ytick_2">
     <g id="line2d_9">
      <path d="M 31.64 85.525665 
L 211 85.525665 
" clip-path="url(#p36dc2567c3)" style="fill: none; stroke-dasharray: 2.96,1.28; stroke-dashoffset: 0; stroke: var(--grid-color); stroke-width: 0.8"/>
     </g>
     <g id="line2d_10">
      <g>
       <use xlink:href="#m211ee93ffc" x="31.64" y="85.525665" style="fill: var(--fg-color); stroke: var(--fg-color); stroke-width: 0.8"/>
      </g>
     </g>
     <g id="text_5">
      <text style="font-size: 7px; font-family: 'DejaVu Sans', 'Bitstream Vera Sans', 'Computer Modern Sans Serif', 'Lucida Grande', 'Verdana', 'Geneva', 'Lucid', 'Arial', 'Helvetica', 'Avant Garde', sans-serif; text-anchor: end; fill: var(--fg-color)" x="24.64" y="88.184845" transform="rotate(-0 24.64 88.184845)">10</text>
     </g>
    </g>
    <g id="ytick_3">
     <g id="line2d_11">
      <path d="M 31.64 70.249697 
L 211 70.249697 
" clip-path="url(#p36dc2567c3)" style="fill: none; stroke-dasharray: 2.96,1.28; stroke-dashoffset: 0; stroke: var(--grid-color); stroke-width: 0.8"/>
     </g>
     <g id="line2d_12">
      <g>
       <use xlink:href="#m211ee93ffc" x="31.64" y="70.249697" style="fill: var(--fg-color); stroke: var(--fg-color); stroke-width: 0.8"/>
      </g>
     </g>
     <g id="text_6">
      <text style="font-size: 7px; font-family: 'DejaVu Sans', 'Bitstream Vera Sans', 'Computer Modern Sans Serif', 'Lucida Grande', 'Verdana', 'Geneva', 'Lucid', 'Arial', 'Helvetica', 'Avant Garde', sans-serif; text-anchor: end; fill: var(--fg-color)" x="24.64" y="72.908876" transform="rotate(-0 24.64 72.908876)">20</text>
     </g>
    </g>
    <g id="ytick_4">
     <g id="line2d_13">
      <path d="M 31.64 54.973728 
L 211 54.973728 
" clip-path="url(#p36dc2567c3)" style="fill: none; stroke-dasharray: 2.96,1.28; stroke-dashoffset: 0; stroke: var(--grid-color); stroke-width: 0.8"/>
     </g>
     <g id="line2d_14">
      <g>
       <use xlink:href="#m211ee93ffc" x="31.64" y="54.973728" style="fill: var(--fg-color); stroke: var(--fg-color); stroke-width: 0.8"/>
      </g>
     </g>
     <g id="text_7">
      <text style="font-size: 7px; font-family: 'DejaVu Sans', 'Bitstream Vera Sans', 'Computer Modern Sans Serif', 'Lucida Grande', 'Verdana', 'Geneva', 'Lucid', 'Arial', 'Helvetica', 'Avant Garde', sans-serif; text-anchor: end; fill: var(--fg-color)" x="24.64" y="57.632908" transform="rotate(-0 24.64 57.632908)">30</text>
     </g>
    </g>
    <g id="ytick_5">
     <g id="line2d_15">
      <path d="M 31.64 39.697759 
L 211 39.697759 
" clip-path="url(#p36dc2567c3)" style="fill: none; stroke-dasharray: 2.96,1.28; stroke-dashoffset: 0; stroke: var(--grid-color); stroke-width: 0.8"/>
     </g>
     <g id="line2d_16">
      <g>
       <use xlink:href="#m211ee93ffc" x="31.64" y="39.697759" style="fill: var(--fg-color); stroke: var(--fg-color); stroke-width: 0.8"/>
      </g>
     </g>
     <g id="text_8">
      <text style="font-size: 7px; font-family: 'DejaVu Sans', 'Bitstream Vera Sans', 'Computer Modern Sans Serif', 'Lucida Grande', 'Verdana', 'Geneva', 'Lucid', 'Arial', 'Helvetica', 'Avant Garde', sans-serif; text-anchor: end; fill: var(--fg-color)" x="24.64" y="42.356939" transform="rotate(-0 24.64 42.356939)">40</text>
     </g>
    </g>
    <g id="ytick_6">
     <g id="line2d_17">
      <path d="M 31.64 24.42179 
L 211 24.42179 
" clip-path="url(#p36dc2567c3)" style="fill: none; stroke-dasharray: 2.96,1.28; stroke-dashoffset: 0; stroke: var(--grid-color); stroke-width: 0.8"/>
     </g>
     <g id="line2d_18">
      <g>
       <use xlink:href="#m211ee93ffc" x="31.64" y="24.42179" style="fill: var(--fg-color); stroke: var(--fg-color); stroke-width: 0.8"/>
      </g>
     </g>
     <g id="text_9">
      <text style="font-size: 7px; font-family: 'DejaVu Sans', 'Bitstream Vera Sans', 'Computer Modern Sans Serif', 'Lucida Grande', 'Verdana', 'Geneva', 'Lucid', 'Arial', 'Helvetica', 'Avant Garde', sans-serif; text-anchor: end; fill: var(--fg-color)" x="24.64" y="27.08097" transform="rotate(-0 24.64 27.08097)">50</text>
     </g>
    </g>
    <g id="ytick_7">
     <g id="line2d_19">
      <path d="M 31.64 9.145822 
L 211 9.145822 
" clip-path="url(#p36dc2567c3)" style="fill: none; stroke-dasharray: 2.96,1.28; stroke-dashoffset: 0; stroke: var(--grid-color); stroke-width: 0.8"/>
     </g>
     <g id="line2d_20">
      <g>
       <use xlink:href="#m211ee93ffc" x="31.64" y="9.145822" style="fill: var(--fg-color); stroke: var(--fg-color); stroke-width: 0.8"/>
      </g>
     </g>
     <g id="text_10">
      <text style="font-size: 7px; font-family: 'DejaVu Sans', 'Bitstream Vera Sans', 'Computer Modern Sans Serif', 'Lucida Grande', 'Verdana', 'Geneva', 'Lucid', 'Arial', 'Helvetica', 'Avant Garde', sans-serif; text-anchor: end; fill: var(--fg-color)" x="24.64" y="11.805001" transform="rotate(-0 24.64 11.805001)">60</text>
     </g>
    </g>
    <g id="text_11">
     <text style="font-size: 7px; font-family: 'DejaVu Sans', 'Bitstream Vera Sans', 'Computer Modern Sans Serif', 'Lucida Grande', 'Verdana', 'Geneva', 'Lucid', 'Arial', 'Helvetica', 'Avant Garde', sans-serif; text-anchor: middle; fill: var(--fg-color)" x="10.050859" y="54.2" transform="rotate(-90 10.050859 54.2)">ms</text>
    </g>
   </g>
   <g id="line2d_21">
    <path d="M 39.792727 42.012068 
L 40.358622 39.844408 
L 41.271481 44.984772 
L 42.184338 43.234146 
L 43.097199 28.747945 
L 44.010052 52.636505 
L 44.922906 37.06571 
L 45.835753 42.183159 
L 46.748617 52.631922 
L 47.661476 43.432733 
L 48.574332 43.38385 
L 49.487188 29.931832 
L 50.40004 46.260315 
L 51.312897 42.908768 
L 52.225755 41.132173 
L 53.138604 42.462709 
L 54.051463 49.660746 
L 54.964319 34.044123 
L 55.877175 46.597914 
L 56.79003 41.882223 
L 57.702885 48.89542 
L 58.615744 19.117974 
L 59.528593 49.56298 
L 60.441447 41.355202 
L 61.35431 41.850143 
L 62.267165 40.571544 
L 63.180022 39.929954 
L 64.092874 36.712835 
L 65.005713 37.285684 
L 65.918587 37.285684 
L 66.831438 38.732318 
L 67.7443 41.049682 
L 68.657153 31.551085 
L 69.57001 50.196932 
L 70.482861 42.917933 
L 71.395726 44.219446 
L 72.308567 50.893517 
L 73.221429 44.815209 
L 74.134286 35.428126 
L 75.047144 43.503003 
L 75.959984 43.591603 
L 76.872853 13.80652 
L 77.785693 42.569641 
L 78.698564 42.777394 
L 79.61142 38.840777 
L 80.524278 30.043347 
L 81.43713 43.043196 
L 82.349993 31.00115 
L 91.665728 36.905312 
L 92.391681 37.780625 
L 93.304554 43.551886 
L 94.217409 42.293146 
L 95.130269 30.203744 
L 96.043122 28.816687 
L 96.955975 46.322947 
L 97.868829 45.887582 
L 98.781684 41.665304 
L 99.694538 44.387481 
L 100.607396 32.058247 
L 101.520248 44.109459 
L 102.433106 29.054992 
L 103.345963 33.084792 
L 104.258819 44.430254 
L 105.171671 41.573648 
L 106.084531 39.713035 
L 106.997383 48.46922 
L 107.910242 34.148 
L 108.823098 28.495891 
L 109.735951 41.320067 
L 110.648812 42.858357 
L 111.561659 30.911022 
L 112.474515 45.010741 
L 113.387379 44.080434 
L 114.300233 45.757736 
L 115.213089 45.840226 
L 116.125938 35.761142 
L 117.038797 41.979989 
L 117.951653 38.65441 
L 118.864507 45.055041 
L 119.777364 40.414202 
L 123.428785 37.553013 
L 124.341647 43.46023 
L 125.254499 46.784281 
L 126.167355 33.138258 
L 127.080212 33.811928 
L 127.993067 31.90396 
L 128.905926 38.938543 
L 129.818763 40.971775 
L 130.731631 43.730615 
L 131.644492 38.284732 
L 132.557344 43.14249 
L 133.470203 36.393567 
L 134.383056 40.195756 
L 135.295912 31.372356 
L 136.208765 38.747594 
L 137.121624 40.632648 
L 138.034491 40.835819 
L 138.947335 28.772386 
L 139.860192 42.885854 
L 140.773046 21.780575 
L 141.685902 34.038013 
L 142.598758 37.357481 
L 143.511612 36.295801 
L 144.42447 36.112489 
L 145.337321 37.476633 
L 172.723053 37.476633 
L 181.242468 15.066787 
L 181.851594 17.688143 
L 182.764449 33.133675 
L 183.677303 35.307446 
L 184.590158 18.841479 
L 185.503019 34.807921 
L 186.415872 36.439395 
L 187.328726 46.435989 
L 188.24158 43.855878 
L 189.154439 31.923819 
L 190.067296 41.040517 
L 190.980152 35.939871 
L 191.893011 25.156564 
L 192.80586 40.599041 
L 193.718718 41.964713 
L 194.631573 36.634927 
L 195.544431 9.472727 
L 196.457286 35.619075 
L 197.370142 40.026192 
L 198.282997 38.411522 
L 199.195852 38.878967 
L 200.108708 42.184687 
L 201.021561 19.318089 
L 201.934415 31.47776 
L 202.847273 45.921189 
L 202.847273 45.921189 
" clip-path="url(#p36dc2567c3)" style="fill: none; stroke: #339af0; stroke-width: 1.2; stroke-linecap: square"/>
   </g>
   <g id="line2d_22">
    <path d="M 39.792727 98.504128 
L 42.184338 98.603422 
L 43.097199 98.229161 
L 44.010052 98.711882 
L 44.922906 98.661471 
L 45.835753 98.439969 
L 46.748617 98.617171 
L 47.661476 98.606477 
L 49.487188 98.279572 
L 50.40004 98.626336 
L 51.312897 96.881821 
L 52.225755 98.429276 
L 54.051463 98.669109 
L 54.964319 98.525515 
L 57.702885 98.676747 
L 58.615744 98.456773 
L 59.528593 98.8845 
L 60.441447 98.279572 
L 61.35431 98.737851 
L 62.267165 98.461356 
L 63.180022 98.488852 
L 64.092874 98.721047 
L 67.7443 97.917531 
L 68.657153 98.362062 
L 69.57001 98.624809 
L 71.395726 98.701188 
L 73.221429 98.580508 
L 74.134286 98.52857 
L 75.047144 97.73422 
L 75.959984 98.588146 
L 77.785693 98.597312 
L 78.698564 98.716464 
L 79.61142 98.49038 
L 80.524278 95.632246 
L 81.43713 98.568287 
L 92.391681 98.675219 
L 94.217409 98.860058 
L 95.130269 98.346786 
L 96.043122 98.53468 
L 99.694538 98.716464 
L 100.607396 97.526466 
L 101.520248 98.621753 
L 102.433106 98.441497 
L 104.258819 98.695078 
L 105.171671 98.658416 
L 106.084531 98.736323 
L 106.997383 98.632447 
L 107.910242 98.119174 
L 108.823098 97.268303 
L 109.735951 98.48427 
L 110.648812 98.692023 
L 111.561659 98.44608 
L 113.387379 98.795899 
L 114.300233 98.780623 
L 115.213089 98.927273 
L 116.125938 98.122229 
L 117.038797 98.578981 
L 117.951653 97.402731 
L 118.864507 98.465938 
L 119.777364 98.410945 
L 123.428785 97.682281 
L 124.341647 98.476632 
L 125.254499 95.37561 
L 126.167355 98.097788 
L 127.080212 98.372755 
L 128.905926 98.397197 
L 129.818763 98.438442 
L 130.731631 97.909893 
L 131.644492 98.482742 
L 132.557344 97.896145 
L 133.470203 98.539263 
L 134.383056 98.432331 
L 135.295912 96.267727 
L 136.208765 98.617171 
L 138.034491 98.468994 
L 138.947335 98.371227 
L 139.860192 96.444928 
L 140.773046 98.143616 
L 141.685902 98.491908 
L 142.598758 97.524939 
L 143.511612 98.284154 
L 144.42447 98.426221 
L 145.337321 97.239278 
L 172.723053 97.239278 
L 181.242468 98.656888 
L 182.764449 98.229161 
L 185.503019 98.430804 
L 186.415872 98.236799 
L 187.328726 98.468994 
L 188.24158 98.374283 
L 189.154439 96.411321 
L 190.067296 98.462883 
L 191.893011 98.174167 
L 193.718718 98.491908 
L 194.631573 98.417055 
L 195.544431 97.332462 
L 196.457286 98.142088 
L 197.370142 98.404835 
L 198.282997 98.392614 
L 200.108708 98.501073 
L 202.847273 98.695078 
L 202.847273 98.695078 
" clip-path="url(#p36dc2567c3)" style="fill: none; stroke: #ff6b6b; stroke-width: 1.2; stroke-linecap: square"/>
   </g>
   <g id="patch_3">
    <path d="M 31.64 103.4 
L 31.64 5 
" style="fill: none; stroke: var(--fg-color); stroke-width: 0.8; stroke-linejoin: miter; stroke-linecap: square"/>
   </g>
   <g id="patch_4">
    <path d="M 31.64 103.4 
L 211 103.4 
" style="fill: none; stroke: var(--fg-color); stroke-width: 0.8; stroke-linejoin: miter; stroke-linecap: square"/>
   </g>
  </g>
 </g>
 <defs>
  <clipPath id="p36dc2567c3">
   <rect x="31.64" y="5" width="179.36" height="98.4"/>
  </clipPath>
 </defs>
</svg>
