<?xml version="1.0" encoding="utf-8" standalone="no"?>
<!DOCTYPE svg PUBLIC "-//W3C//DTD SVG 1.1//EN"
  "http://www.w3.org/Graphics/SVG/1.1/DTD/svg11.dtd">
<svg xmlns:xlink="http://www.w3.org/1999/xlink" width="216pt" height="122.4pt" viewBox="0 0 216 122.4" xmlns="http://www.w3.org/2000/svg" version="1.1">
  <style>
    :root {
      --fg-color: #212529;
      --grid-color: rgba(33, 37, 41, 0.1);
    }
    @media (prefers-color-scheme: dark) {
      :root {
        --fg-color: #dee2e6;
        --grid-color: rgba(248, 249, 250, 0.15);
      }
    }
  </style>

 <metadata>
  <rdf:RDF xmlns:dc="http://purl.org/dc/elements/1.1/" xmlns:cc="http://creativecommons.org/ns#" xmlns:rdf="http://www.w3.org/1999/02/22-rdf-syntax-ns#">
   <cc:Work>
    <dc:type rdf:resource="http://purl.org/dc/dcmitype/StillImage"/>
    <dc:date>2026-06-30T15:37:49.883785</dc:date>
    <dc:format>image/svg+xml</dc:format>
    <dc:creator>
     <cc:Agent>
      <dc:title>Matplotlib v3.11.0, https://matplotlib.org/</dc:title>
     </cc:Agent>
    </dc:creator>
   </cc:Work>
  </rdf:RDF>
 </metadata>
 <defs>
  <style type="text/css">*{stroke-linejoin: round; stroke-linecap: butt}</style>
 </defs>
 <g id="figure_1">
  <g id="patch_1">
   <path d="M 0 122.4 
L 216 122.4 
L 216 0 
L 0 0 
L 0 122.4 
z
" style="fill: none; opacity: 0"/>
  </g>
  <g id="axes_1">
   <g id="patch_2">
    <path d="M 35.96 103.4 
L 211 103.4 
L 211 5 
L 35.96 5 
L 35.96 103.4 
z
" style="fill: none; opacity: 0"/>
   </g>
   <g id="matplotlib.axis_1">
    <g id="xtick_1">
     <g id="line2d_1">
      <path d="M 69.784035 103.4 
L 69.784035 5 
" clip-path="url(#p314e0a0eaf)" style="fill: none; stroke-dasharray: 2.96,1.28; stroke-dashoffset: 0; stroke: var(--grid-color); stroke-width: 0.8"/>
     </g>
     <g id="line2d_2">
      <defs>
       <path id="m214e6d8f72" d="M 0 0 
L 0 3.5 
" style="stroke: var(--fg-color); stroke-width: 0.8"/>
      </defs>
      <g>
       <use xlink:href="#m214e6d8f72" x="69.784035" y="103.4" style="fill: var(--fg-color); stroke: var(--fg-color); stroke-width: 0.8"/>
      </g>
     </g>
     <g id="text_1">
      <text style="font-size: 7px; font-family: 'DejaVu Sans', 'Bitstream Vera Sans', 'Computer Modern Sans Serif', 'Lucida Grande', 'Verdana', 'Geneva', 'Lucid', 'Arial', 'Helvetica', 'Avant Garde', sans-serif; text-anchor: middle; fill: var(--fg-color)" x="69.784035" y="115.718359" transform="rotate(-0 69.784035 115.718359)">02/2026</text>
     </g>
    </g>
    <g id="xtick_2">
     <g id="line2d_3">
      <path d="M 122.345302 103.4 
L 122.345302 5 
" clip-path="url(#p314e0a0eaf)" style="fill: none; stroke-dasharray: 2.96,1.28; stroke-dashoffset: 0; stroke: var(--grid-color); stroke-width: 0.8"/>
     </g>
     <g id="line2d_4">
      <g>
       <use xlink:href="#m214e6d8f72" x="122.345302" y="103.4" style="fill: var(--fg-color); stroke: var(--fg-color); stroke-width: 0.8"/>
      </g>
     </g>
     <g id="text_2">
      <text style="font-size: 7px; font-family: 'DejaVu Sans', 'Bitstream Vera Sans', 'Computer Modern Sans Serif', 'Lucida Grande', 'Verdana', 'Geneva', 'Lucid', 'Arial', 'Helvetica', 'Avant Garde', sans-serif; text-anchor: middle; fill: var(--fg-color)" x="122.345302" y="115.718359" transform="rotate(-0 122.345302 115.718359)">04/2026</text>
     </g>
    </g>
    <g id="xtick_3">
     <g id="line2d_5">
      <path d="M 176.688307 103.4 
L 176.688307 5 
" clip-path="url(#p314e0a0eaf)" style="fill: none; stroke-dasharray: 2.96,1.28; stroke-dashoffset: 0; stroke: var(--grid-color); stroke-width: 0.8"/>
     </g>
     <g id="line2d_6">
      <g>
       <use xlink:href="#m214e6d8f72" x="176.688307" y="103.4" style="fill: var(--fg-color); stroke: var(--fg-color); stroke-width: 0.8"/>
      </g>
     </g>
     <g id="text_3">
      <text style="font-size: 7px; font-family: 'DejaVu Sans', 'Bitstream Vera Sans', 'Computer Modern Sans Serif', 'Lucida Grande', 'Verdana', 'Geneva', 'Lucid', 'Arial', 'Helvetica', 'Avant Garde', sans-serif; text-anchor: middle; fill: var(--fg-color)" x="176.688307" y="115.718359" transform="rotate(-0 176.688307 115.718359)">06/2026</text>
     </g>
    </g>
   </g>
   <g id="matplotlib.axis_2">
    <g id="ytick_1">
     <g id="line2d_7">
      <path d="M 35.96 100.034086 
L 211 100.034086 
" clip-path="url(#p314e0a0eaf)" style="fill: none; stroke-dasharray: 2.96,1.28; stroke-dashoffset: 0; stroke: var(--grid-color); stroke-width: 0.8"/>
     </g>
     <g id="line2d_8">
      <defs>
       <path id="m1789a5871b" d="M 0 0 
L -3.5 0 
" style="stroke: var(--fg-color); stroke-width: 0.8"/>
      </defs>
      <g>
       <use xlink:href="#m1789a5871b" x="35.96" y="100.034086" style="fill: var(--fg-color); stroke: var(--fg-color); stroke-width: 0.8"/>
      </g>
     </g>
     <g id="text_4">
      <text style="font-size: 7px; font-family: 'DejaVu Sans', 'Bitstream Vera Sans', 'Computer Modern Sans Serif', 'Lucida Grande', 'Verdana', 'Geneva', 'Lucid', 'Arial', 'Helvetica', 'Avant Garde', sans-serif; text-anchor: end; fill: var(--fg-color)" x="28.96" y="102.693266" transform="rotate(-0 28.96 102.693266)">0</text>
     </g>
    </g>
    <g id="ytick_2">
     <g id="line2d_9">
      <path d="M 35.96 82.253948 
L 211 82.253948 
" clip-path="url(#p314e0a0eaf)" style="fill: none; stroke-dasharray: 2.96,1.28; stroke-dashoffset: 0; stroke: var(--grid-color); stroke-width: 0.8"/>
     </g>
     <g id="line2d_10">
      <g>
       <use xlink:href="#m1789a5871b" x="35.96" y="82.253948" style="fill: var(--fg-color); stroke: var(--fg-color); stroke-width: 0.8"/>
      </g>
     </g>
     <g id="text_5">
      <text style="font-size: 7px; font-family: 'DejaVu Sans', 'Bitstream Vera Sans', 'Computer Modern Sans Serif', 'Lucida Grande', 'Verdana', 'Geneva', 'Lucid', 'Arial', 'Helvetica', 'Avant Garde', sans-serif; text-anchor: end; fill: var(--fg-color)" x="28.96" y="84.913127" transform="rotate(-0 28.96 84.913127)">20</text>
     </g>
    </g>
    <g id="ytick_3">
     <g id="line2d_11">
      <path d="M 35.96 64.473809 
L 211 64.473809 
" clip-path="url(#p314e0a0eaf)" style="fill: none; stroke-dasharray: 2.96,1.28; stroke-dashoffset: 0; stroke: var(--grid-color); stroke-width: 0.8"/>
     </g>
     <g id="line2d_12">
      <g>
       <use xlink:href="#m1789a5871b" x="35.96" y="64.473809" style="fill: var(--fg-color); stroke: var(--fg-color); stroke-width: 0.8"/>
      </g>
     </g>
     <g id="text_6">
      <text style="font-size: 7px; font-family: 'DejaVu Sans', 'Bitstream Vera Sans', 'Computer Modern Sans Serif', 'Lucida Grande', 'Verdana', 'Geneva', 'Lucid', 'Arial', 'Helvetica', 'Avant Garde', sans-serif; text-anchor: end; fill: var(--fg-color)" x="28.96" y="67.132988" transform="rotate(-0 28.96 67.132988)">40</text>
     </g>
    </g>
    <g id="ytick_4">
     <g id="line2d_13">
      <path d="M 35.96 46.69367 
L 211 46.69367 
" clip-path="url(#p314e0a0eaf)" style="fill: none; stroke-dasharray: 2.96,1.28; stroke-dashoffset: 0; stroke: var(--grid-color); stroke-width: 0.8"/>
     </g>
     <g id="line2d_14">
      <g>
       <use xlink:href="#m1789a5871b" x="35.96" y="46.69367" style="fill: var(--fg-color); stroke: var(--fg-color); stroke-width: 0.8"/>
      </g>
     </g>
     <g id="text_7">
      <text style="font-size: 7px; font-family: 'DejaVu Sans', 'Bitstream Vera Sans', 'Computer Modern Sans Serif', 'Lucida Grande', 'Verdana', 'Geneva', 'Lucid', 'Arial', 'Helvetica', 'Avant Garde', sans-serif; text-anchor: end; fill: var(--fg-color)" x="28.96" y="49.35285" transform="rotate(-0 28.96 49.35285)">60</text>
     </g>
    </g>
    <g id="ytick_5">
     <g id="line2d_15">
      <path d="M 35.96 28.913531 
L 211 28.913531 
" clip-path="url(#p314e0a0eaf)" style="fill: none; stroke-dasharray: 2.96,1.28; stroke-dashoffset: 0; stroke: var(--grid-color); stroke-width: 0.8"/>
     </g>
     <g id="line2d_16">
      <g>
       <use xlink:href="#m1789a5871b" x="35.96" y="28.913531" style="fill: var(--fg-color); stroke: var(--fg-color); stroke-width: 0.8"/>
      </g>
     </g>
     <g id="text_8">
      <text style="font-size: 7px; font-family: 'DejaVu Sans', 'Bitstream Vera Sans', 'Computer Modern Sans Serif', 'Lucida Grande', 'Verdana', 'Geneva', 'Lucid', 'Arial', 'Helvetica', 'Avant Garde', sans-serif; text-anchor: end; fill: var(--fg-color)" x="28.96" y="31.572711" transform="rotate(-0 28.96 31.572711)">80</text>
     </g>
    </g>
    <g id="ytick_6">
     <g id="line2d_17">
      <path d="M 35.96 11.133392 
L 211 11.133392 
" clip-path="url(#p314e0a0eaf)" style="fill: none; stroke-dasharray: 2.96,1.28; stroke-dashoffset: 0; stroke: var(--grid-color); stroke-width: 0.8"/>
     </g>
     <g id="line2d_18">
      <g>
       <use xlink:href="#m1789a5871b" x="35.96" y="11.133392" style="fill: var(--fg-color); stroke: var(--fg-color); stroke-width: 0.8"/>
      </g>
     </g>
     <g id="text_9">
      <text style="font-size: 7px; font-family: 'DejaVu Sans', 'Bitstream Vera Sans', 'Computer Modern Sans Serif', 'Lucida Grande', 'Verdana', 'Geneva', 'Lucid', 'Arial', 'Helvetica', 'Avant Garde', sans-serif; text-anchor: end; fill: var(--fg-color)" x="28.96" y="13.792572" transform="rotate(-0 28.96 13.792572)">100</text>
     </g>
    </g>
    <g id="text_10">
     <text style="font-size: 7px; font-family: 'DejaVu Sans', 'Bitstream Vera Sans', 'Computer Modern Sans Serif', 'Lucida Grande', 'Verdana', 'Geneva', 'Lucid', 'Arial', 'Helvetica', 'Avant Garde', sans-serif; text-anchor: middle; fill: var(--fg-color)" x="9.917109" y="54.2" transform="rotate(-90 9.917109 54.2)">ms</text>
    </g>
   </g>
   <g id="line2d_19">
    <path d="M 43.916364 19.989679 
L 44.468628 31.7788 
L 45.3595 26.786137 
L 46.250371 20.759559 
L 47.141245 21.800587 
L 48.032112 24.282694 
L 48.922979 27.207527 
L 49.81384 14.035111 
L 50.704717 28.161431 
L 51.595589 24.17868 
L 52.486458 27.3391 
L 53.377327 27.005722 
L 54.268192 27.280425 
L 55.159063 26.970162 
L 56.049934 26.261623 
L 56.940797 27.735597 
L 57.831669 29.951002 
L 58.722538 21.229844 
L 59.613407 26.907931 
L 61.395144 29.166009 
L 62.286016 22.441561 
L 63.176879 28.621937 
L 64.067746 28.86997 
L 64.958622 21.415647 
L 65.84949 26.696348 
L 66.740361 25.842012 
L 67.631226 25.658877 
L 68.522078 25.194815 
L 69.412965 21.604116 
L 70.30383 30.578641 
L 71.194705 16.519885 
L 72.085571 21.875263 
L 72.976442 32.949623 
L 73.867306 26.328299 
L 74.758184 24.640075 
L 75.649039 26.12116 
L 76.539914 32.333541 
L 77.430784 27.604913 
L 78.321655 9.472727 
L 79.212509 27.931178 
L 80.103391 24.398265 
L 80.994245 19.954119 
L 81.885129 31.746796 
L 82.775998 26.984386 
L 84.557735 25.081022 
L 85.44861 24.683636 
L 94.53997 16.134056 
L 95.248438 21.637898 
L 96.139324 15.267275 
L 97.030192 13.358577 
L 97.921065 28.91442 
L 98.811931 34.496495 
L 99.702798 29.041548 
L 100.593666 31.084486 
L 101.484533 29.438045 
L 102.375401 28.789959 
L 103.266272 27.181746 
L 104.157138 19.775429 
L 105.048009 30.495074 
L 105.93888 29.217571 
L 106.829748 27.164854 
L 107.720614 31.308516 
L 108.611487 27.359547 
L 109.502352 32.172631 
L 110.393224 23.957317 
L 111.284094 30.950246 
L 112.17496 28.647718 
L 113.065834 28.596156 
L 113.956695 26.416311 
L 114.847564 28.633494 
L 115.738441 25.518414 
L 116.629309 32.169963 
L 117.520178 31.757464 
L 118.41104 24.487166 
L 119.301913 24.595624 
L 120.192782 26.22873 
L 121.97452 19.856328 
L 125.537994 28.747287 
L 127.319734 17.342217 
L 128.210603 24.037328 
L 129.101474 19.358484 
L 129.992342 18.702397 
L 130.883214 15.670884 
L 131.774065 25.256157 
L 132.664946 25.313942 
L 133.55582 12.660706 
L 134.446686 23.751068 
L 135.337558 25.288161 
L 136.228424 13.255452 
L 137.119294 18.372576 
L 138.010159 20.852905 
L 138.901032 28.075198 
L 139.791912 17.418671 
L 140.68277 25.240154 
L 141.57364 22.102849 
L 142.464507 23.971541 
L 143.355376 20.977366 
L 144.246246 25.580644 
L 145.137113 19.321146 
L 146.027984 23.637275 
L 146.918849 18.313901 
L 173.644977 18.313901 
L 181.959197 20.032352 
L 183.444521 25.940692 
L 184.335387 15.043245 
L 185.226256 25.204594 
L 186.117131 19.359373 
L 187.007996 16.438097 
L 187.898864 20.576424 
L 188.789731 25.850902 
L 189.680603 17.344884 
L 190.571474 20.70533 
L 191.462343 16.070937 
L 192.353215 16.246071 
L 193.244077 23.252335 
L 194.134949 20.905357 
L 195.025817 19.578069 
L 195.916688 15.515307 
L 197.698426 29.27269 
L 198.589295 18.163659 
L 199.480162 19.663414 
L 200.371032 25.348613 
L 201.261898 28.400574 
L 202.152766 30.634649 
L 203.043636 26.108714 
L 203.043636 26.108714 
" clip-path="url(#p314e0a0eaf)" style="fill: none; stroke: #339af0; stroke-width: 1.2; stroke-linecap: square"/>
   </g>
   <g id="line2d_20">
    <path d="M 43.916364 98.637456 
L 44.468628 98.734358 
L 45.3595 98.708577 
L 46.250371 98.290744 
L 48.032112 98.697909 
L 48.922979 98.742359 
L 49.81384 98.653459 
L 50.704717 98.794811 
L 52.486458 98.594784 
L 54.268192 98.761917 
L 57.831669 98.769029 
L 58.722538 98.628566 
L 59.613407 98.772586 
L 61.395144 98.673906 
L 62.286016 98.640123 
L 64.067746 98.774364 
L 65.84949 98.68813 
L 66.740361 98.459655 
L 67.631226 98.684574 
L 68.522078 98.464989 
L 69.412965 98.561891 
L 70.30383 98.785032 
L 71.194705 98.593895 
L 72.085571 98.520108 
L 72.976442 98.882822 
L 74.758184 98.597451 
L 75.649039 98.785921 
L 78.321655 98.625899 
L 79.212509 98.758361 
L 80.103391 98.676573 
L 80.994245 96.758985 
L 81.885129 98.817036 
L 82.775998 98.668572 
L 83.666869 98.646347 
L 84.557735 98.791255 
L 85.44861 98.433874 
L 94.53997 98.709466 
L 95.248438 98.927273 
L 97.921065 98.705021 
L 98.811931 98.824148 
L 101.484533 98.678351 
L 102.375401 98.774364 
L 103.266272 98.609008 
L 105.048009 98.646347 
L 105.93888 98.785032 
L 107.720614 98.729913 
L 108.611487 98.17784 
L 109.502352 98.798367 
L 110.393224 98.664127 
L 112.17496 98.753027 
L 113.065834 98.632122 
L 115.738441 98.780587 
L 116.629309 98.17784 
L 117.520178 98.744137 
L 118.41104 98.440097 
L 119.301913 98.690797 
L 121.97452 98.687241 
L 128.210603 98.694353 
L 129.101474 98.67035 
L 129.992342 98.433874 
L 130.883214 98.063158 
L 131.774065 98.72369 
L 132.664946 98.599229 
L 133.55582 97.972479 
L 134.446686 98.629455 
L 135.337558 98.702354 
L 136.228424 98.534332 
L 138.901032 98.798367 
L 139.791912 97.912027 
L 140.68277 98.707688 
L 141.57364 98.671239 
L 142.464507 98.202732 
L 143.355376 98.618787 
L 144.246246 98.7148 
L 145.137113 98.633011 
L 146.027984 98.692575 
L 146.918849 98.52722 
L 173.644977 98.52722 
L 181.959197 98.685463 
L 182.553652 97.133257 
L 183.444521 98.673906 
L 186.117131 98.436541 
L 187.007996 98.556557 
L 187.898864 98.547667 
L 188.789731 98.665016 
L 190.571474 98.592117 
L 191.462343 98.328082 
L 192.353215 98.736136 
L 193.244077 98.473879 
L 194.134949 95.67084 
L 195.025817 98.532554 
L 195.916688 98.469434 
L 198.589295 98.674795 
L 199.480162 98.523664 
L 200.371032 98.709466 
L 203.043636 98.577893 
L 203.043636 98.577893 
" clip-path="url(#p314e0a0eaf)" style="fill: none; stroke: #ff6b6b; stroke-width: 1.2; stroke-linecap: square"/>
   </g>
   <g id="patch_3">
    <path d="M 35.96 103.4 
L 35.96 5 
" style="fill: none; stroke: var(--fg-color); stroke-width: 0.8; stroke-linejoin: miter; stroke-linecap: square"/>
   </g>
   <g id="patch_4">
    <path d="M 35.96 103.4 
L 211 103.4 
" style="fill: none; stroke: var(--fg-color); stroke-width: 0.8; stroke-linejoin: miter; stroke-linecap: square"/>
   </g>
  </g>
 </g>
 <defs>
  <clipPath id="p314e0a0eaf">
   <rect x="35.96" y="5" width="175.04" height="98.4"/>
  </clipPath>
 </defs>
</svg>
