<?xml version="1.0" encoding="utf-8" standalone="no"?>
<!DOCTYPE svg PUBLIC "-//W3C//DTD SVG 1.1//EN"
  "http://www.w3.org/Graphics/SVG/1.1/DTD/svg11.dtd">
<svg xmlns:xlink="http://www.w3.org/1999/xlink" width="216pt" height="122.4pt" viewBox="0 0 216 122.4" xmlns="http://www.w3.org/2000/svg" version="1.1">
  <style>
    :root {
      --fg-color: #212529;
      --grid-color: rgba(33, 37, 41, 0.1);
    }
    @media (prefers-color-scheme: dark) {
      :root {
        --fg-color: #dee2e6;
        --grid-color: rgba(248, 249, 250, 0.15);
      }
    }
  </style>

 <metadata>
  <rdf:RDF xmlns:dc="http://purl.org/dc/elements/1.1/" xmlns:cc="http://creativecommons.org/ns#" xmlns:rdf="http://www.w3.org/1999/02/22-rdf-syntax-ns#">
   <cc:Work>
    <dc:type rdf:resource="http://purl.org/dc/dcmitype/StillImage"/>
    <dc:date>2026-06-30T15:37:34.336801</dc:date>
    <dc:format>image/svg+xml</dc:format>
    <dc:creator>
     <cc:Agent>
      <dc:title>Matplotlib v3.11.0, https://matplotlib.org/</dc:title>
     </cc:Agent>
    </dc:creator>
   </cc:Work>
  </rdf:RDF>
 </metadata>
 <defs>
  <style type="text/css">*{stroke-linejoin: round; stroke-linecap: butt}</style>
 </defs>
 <g id="figure_1">
  <g id="patch_1">
   <path d="M 0 122.4 
L 216 122.4 
L 216 0 
L 0 0 
L 0 122.4 
z
" style="fill: none; opacity: 0"/>
  </g>
  <g id="axes_1">
   <g id="patch_2">
    <path d="M 35.96 103.4 
L 211 103.4 
L 211 6.735925 
L 35.96 6.735925 
L 35.96 103.4 
z
" style="fill: none; opacity: 0"/>
   </g>
   <g id="matplotlib.axis_1">
    <g id="xtick_1">
     <g id="line2d_1">
      <path d="M 69.784035 103.4 
L 69.784035 6.735925 
" clip-path="url(#p98319ae3c7)" style="fill: none; stroke-dasharray: 2.96,1.28; stroke-dashoffset: 0; stroke: var(--grid-color); stroke-width: 0.8"/>
     </g>
     <g id="line2d_2">
      <defs>
       <path id="m1e1f609197" d="M 0 0 
L 0 3.5 
" style="stroke: var(--fg-color); stroke-width: 0.8"/>
      </defs>
      <g>
       <use xlink:href="#m1e1f609197" x="69.784035" y="103.4" style="fill: var(--fg-color); stroke: var(--fg-color); stroke-width: 0.8"/>
      </g>
     </g>
     <g id="text_1">
      <text style="font-size: 7px; font-family: 'DejaVu Sans', 'Bitstream Vera Sans', 'Computer Modern Sans Serif', 'Lucida Grande', 'Verdana', 'Geneva', 'Lucid', 'Arial', 'Helvetica', 'Avant Garde', sans-serif; text-anchor: middle; fill: var(--fg-color)" x="69.784035" y="115.718359" transform="rotate(-0 69.784035 115.718359)">02/2026</text>
     </g>
    </g>
    <g id="xtick_2">
     <g id="line2d_3">
      <path d="M 122.345302 103.4 
L 122.345302 6.735925 
" clip-path="url(#p98319ae3c7)" style="fill: none; stroke-dasharray: 2.96,1.28; stroke-dashoffset: 0; stroke: var(--grid-color); stroke-width: 0.8"/>
     </g>
     <g id="line2d_4">
      <g>
       <use xlink:href="#m1e1f609197" x="122.345302" y="103.4" style="fill: var(--fg-color); stroke: var(--fg-color); stroke-width: 0.8"/>
      </g>
     </g>
     <g id="text_2">
      <text style="font-size: 7px; font-family: 'DejaVu Sans', 'Bitstream Vera Sans', 'Computer Modern Sans Serif', 'Lucida Grande', 'Verdana', 'Geneva', 'Lucid', 'Arial', 'Helvetica', 'Avant Garde', sans-serif; text-anchor: middle; fill: var(--fg-color)" x="122.345302" y="115.718359" transform="rotate(-0 122.345302 115.718359)">04/2026</text>
     </g>
    </g>
    <g id="xtick_3">
     <g id="line2d_5">
      <path d="M 176.688307 103.4 
L 176.688307 6.735925 
" clip-path="url(#p98319ae3c7)" style="fill: none; stroke-dasharray: 2.96,1.28; stroke-dashoffset: 0; stroke: var(--grid-color); stroke-width: 0.8"/>
     </g>
     <g id="line2d_6">
      <g>
       <use xlink:href="#m1e1f609197" x="176.688307" y="103.4" style="fill: var(--fg-color); stroke: var(--fg-color); stroke-width: 0.8"/>
      </g>
     </g>
     <g id="text_3">
      <text style="font-size: 7px; font-family: 'DejaVu Sans', 'Bitstream Vera Sans', 'Computer Modern Sans Serif', 'Lucida Grande', 'Verdana', 'Geneva', 'Lucid', 'Arial', 'Helvetica', 'Avant Garde', sans-serif; text-anchor: middle; fill: var(--fg-color)" x="176.688307" y="115.718359" transform="rotate(-0 176.688307 115.718359)">06/2026</text>
     </g>
    </g>
   </g>
   <g id="matplotlib.axis_2">
    <g id="ytick_1">
     <g id="line2d_7">
      <path d="M 35.96 102.743487 
L 211 102.743487 
" clip-path="url(#p98319ae3c7)" style="fill: none; stroke-dasharray: 2.96,1.28; stroke-dashoffset: 0; stroke: var(--grid-color); stroke-width: 0.8"/>
     </g>
     <g id="line2d_8">
      <defs>
       <path id="m0f6bbbde34" d="M 0 0 
L -3.5 0 
" style="stroke: var(--fg-color); stroke-width: 0.8"/>
      </defs>
      <g>
       <use xlink:href="#m0f6bbbde34" x="35.96" y="102.743487" style="fill: var(--fg-color); stroke: var(--fg-color); stroke-width: 0.8"/>
      </g>
     </g>
     <g id="text_4">
      <text style="font-size: 7px; font-family: 'DejaVu Sans', 'Bitstream Vera Sans', 'Computer Modern Sans Serif', 'Lucida Grande', 'Verdana', 'Geneva', 'Lucid', 'Arial', 'Helvetica', 'Avant Garde', sans-serif; text-anchor: end; fill: var(--fg-color)" x="28.96" y="105.402667" transform="rotate(-0 28.96 105.402667)">0</text>
     </g>
    </g>
    <g id="ytick_2">
     <g id="line2d_9">
      <path d="M 35.96 78.978327 
L 211 78.978327 
" clip-path="url(#p98319ae3c7)" style="fill: none; stroke-dasharray: 2.96,1.28; stroke-dashoffset: 0; stroke: var(--grid-color); stroke-width: 0.8"/>
     </g>
     <g id="line2d_10">
      <g>
       <use xlink:href="#m0f6bbbde34" x="35.96" y="78.978327" style="fill: var(--fg-color); stroke: var(--fg-color); stroke-width: 0.8"/>
      </g>
     </g>
     <g id="text_5">
      <text style="font-size: 7px; font-family: 'DejaVu Sans', 'Bitstream Vera Sans', 'Computer Modern Sans Serif', 'Lucida Grande', 'Verdana', 'Geneva', 'Lucid', 'Arial', 'Helvetica', 'Avant Garde', sans-serif; text-anchor: end; fill: var(--fg-color)" x="28.96" y="81.637507" transform="rotate(-0 28.96 81.637507)">50</text>
     </g>
    </g>
    <g id="ytick_3">
     <g id="line2d_11">
      <path d="M 35.96 55.213168 
L 211 55.213168 
" clip-path="url(#p98319ae3c7)" style="fill: none; stroke-dasharray: 2.96,1.28; stroke-dashoffset: 0; stroke: var(--grid-color); stroke-width: 0.8"/>
     </g>
     <g id="line2d_12">
      <g>
       <use xlink:href="#m0f6bbbde34" x="35.96" y="55.213168" style="fill: var(--fg-color); stroke: var(--fg-color); stroke-width: 0.8"/>
      </g>
     </g>
     <g id="text_6">
      <text style="font-size: 7px; font-family: 'DejaVu Sans', 'Bitstream Vera Sans', 'Computer Modern Sans Serif', 'Lucida Grande', 'Verdana', 'Geneva', 'Lucid', 'Arial', 'Helvetica', 'Avant Garde', sans-serif; text-anchor: end; fill: var(--fg-color)" x="28.96" y="57.872347" transform="rotate(-0 28.96 57.872347)">100</text>
     </g>
    </g>
    <g id="ytick_4">
     <g id="line2d_13">
      <path d="M 35.96 31.448008 
L 211 31.448008 
" clip-path="url(#p98319ae3c7)" style="fill: none; stroke-dasharray: 2.96,1.28; stroke-dashoffset: 0; stroke: var(--grid-color); stroke-width: 0.8"/>
     </g>
     <g id="line2d_14">
      <g>
       <use xlink:href="#m0f6bbbde34" x="35.96" y="31.448008" style="fill: var(--fg-color); stroke: var(--fg-color); stroke-width: 0.8"/>
      </g>
     </g>
     <g id="text_7">
      <text style="font-size: 7px; font-family: 'DejaVu Sans', 'Bitstream Vera Sans', 'Computer Modern Sans Serif', 'Lucida Grande', 'Verdana', 'Geneva', 'Lucid', 'Arial', 'Helvetica', 'Avant Garde', sans-serif; text-anchor: end; fill: var(--fg-color)" x="28.96" y="34.107187" transform="rotate(-0 28.96 34.107187)">150</text>
     </g>
    </g>
    <g id="ytick_5">
     <g id="line2d_15">
      <path d="M 35.96 7.682848 
L 211 7.682848 
" clip-path="url(#p98319ae3c7)" style="fill: none; stroke-dasharray: 2.96,1.28; stroke-dashoffset: 0; stroke: var(--grid-color); stroke-width: 0.8"/>
     </g>
     <g id="line2d_16">
      <g>
       <use xlink:href="#m0f6bbbde34" x="35.96" y="7.682848" style="fill: var(--fg-color); stroke: var(--fg-color); stroke-width: 0.8"/>
      </g>
     </g>
     <g id="text_8">
      <text style="font-size: 7px; font-family: 'DejaVu Sans', 'Bitstream Vera Sans', 'Computer Modern Sans Serif', 'Lucida Grande', 'Verdana', 'Geneva', 'Lucid', 'Arial', 'Helvetica', 'Avant Garde', sans-serif; text-anchor: end; fill: var(--fg-color)" x="28.96" y="10.342027" transform="rotate(-0 28.96 10.342027)">200</text>
     </g>
    </g>
    <g id="text_9">
     <text style="font-size: 7px; font-family: 'DejaVu Sans', 'Bitstream Vera Sans', 'Computer Modern Sans Serif', 'Lucida Grande', 'Verdana', 'Geneva', 'Lucid', 'Arial', 'Helvetica', 'Avant Garde', sans-serif; text-anchor: middle; fill: var(--fg-color)" x="9.917109" y="55.067962" transform="rotate(-90 9.917109 55.067962)">ms</text>
    </g>
   </g>
   <g id="line2d_17">
    <path d="M 43.916364 36.000462 
L 44.468628 36.98529 
L 45.3595 28.452171 
L 46.250371 36.684423 
L 47.141245 32.223227 
L 48.032112 35.137786 
L 48.922979 32.648623 
L 49.81384 35.871654 
L 50.704717 33.540768 
L 51.595589 36.344106 
L 52.486458 32.089192 
L 53.377327 36.418728 
L 54.268192 36.403994 
L 55.159063 29.927513 
L 56.049934 32.715166 
L 56.940797 38.263855 
L 57.831669 37.224367 
L 58.722538 33.23895 
L 59.613407 35.194347 
L 60.504275 30.60482 
L 61.395144 33.973769 
L 62.286016 29.44508 
L 63.176879 39.547174 
L 64.067746 36.495728 
L 64.958622 30.99742 
L 65.84949 34.996621 
L 66.740361 35.568886 
L 67.631226 37.50242 
L 68.522078 40.411275 
L 69.412965 37.569913 
L 70.30383 36.691552 
L 71.194705 34.04554 
L 72.085571 28.746859 
L 72.976442 35.428197 
L 73.867306 31.61579 
L 74.758184 32.285492 
L 75.649039 38.837071 
L 76.539914 37.469624 
L 77.430784 37.491488 
L 78.321655 29.721231 
L 79.212509 29.154194 
L 80.103391 35.944376 
L 80.994245 36.026128 
L 81.885129 38.878422 
L 82.775998 39.150771 
L 83.666869 36.504283 
L 84.557735 35.821272 
L 85.44861 30.364792 
L 94.53997 28.638966 
L 95.248438 31.644308 
L 96.139324 32.648623 
L 97.030192 30.148529 
L 97.921065 36.761422 
L 98.811931 34.036033 
L 99.702798 32.654802 
L 100.593666 41.255414 
L 101.484533 36.763799 
L 102.375401 36.614553 
L 103.266272 38.20777 
L 104.157138 30.964624 
L 105.048009 27.667921 
L 105.93888 33.291709 
L 106.829748 39.874183 
L 107.720614 41.730717 
L 108.611487 32.464681 
L 109.502352 38.154536 
L 110.393224 34.732828 
L 111.284094 39.852319 
L 112.17496 39.049532 
L 113.065834 38.770529 
L 113.956695 37.83228 
L 114.847564 37.213435 
L 115.738441 39.308572 
L 116.629309 36.748114 
L 117.520178 36.264255 
L 118.41104 26.85943 
L 119.301913 31.652863 
L 120.192782 33.636779 
L 121.083649 29.064362 
L 121.97452 35.005652 
L 125.537994 32.175697 
L 126.428869 35.849315 
L 127.319734 33.595427 
L 128.210603 35.948178 
L 129.101474 32.769826 
L 129.992342 24.134517 
L 130.883214 32.968502 
L 131.774065 33.598279 
L 132.664946 36.691077 
L 133.55582 28.264427 
L 134.446686 34.081663 
L 135.337558 30.113831 
L 136.228424 35.773742 
L 137.119294 32.944737 
L 138.010159 33.933368 
L 138.901032 29.399926 
L 139.791912 25.607957 
L 140.68277 28.353308 
L 141.57364 32.978484 
L 142.464507 26.530521 
L 143.355376 33.594952 
L 144.246246 32.428083 
L 145.137113 26.834715 
L 146.027984 30.943236 
L 146.918849 22.659176 
L 173.644977 22.659176 
L 181.959197 33.445232 
L 182.553652 32.76935 
L 183.444521 29.40563 
L 184.335387 28.91179 
L 185.226256 21.358271 
L 186.117131 27.440726 
L 187.007996 26.692599 
L 187.898864 27.719254 
L 188.789731 30.468408 
L 189.680603 23.995729 
L 190.571474 18.724141 
L 191.462343 30.28399 
L 192.353215 24.490044 
L 193.244077 21.255606 
L 194.134949 20.289314 
L 195.025817 24.185375 
L 195.916688 11.129746 
L 196.807557 27.11657 
L 197.698426 30.585332 
L 198.589295 21.031263 
L 199.480162 15.878976 
L 200.371032 33.523657 
L 201.261898 34.262278 
L 202.152766 33.229919 
L 203.043636 31.957533 
L 203.043636 31.957533 
" clip-path="url(#p98319ae3c7)" style="fill: none; stroke: #339af0; stroke-width: 1.2; stroke-linecap: square"/>
   </g>
   <g id="line2d_18">
    <path d="M 43.916364 95.906726 
L 44.468628 97.219038 
L 45.3595 95.393874 
L 46.250371 97.802235 
L 47.141245 95.624871 
L 48.032112 97.446709 
L 48.922979 97.071694 
L 49.81384 95.52791 
L 50.704717 97.261816 
L 51.595589 95.215635 
L 52.486458 97.311722 
L 54.268192 97.866877 
L 55.159063 98.458629 
L 56.049934 97.972394 
L 56.940797 98.133046 
L 57.831669 97.51943 
L 58.722538 96.574052 
L 59.613407 95.84256 
L 60.504275 96.924826 
L 61.395144 95.896745 
L 62.286016 96.228507 
L 63.176879 97.365907 
L 64.067746 96.79792 
L 64.958622 98.04464 
L 65.84949 98.385432 
L 66.740361 97.478079 
L 67.631226 97.415339 
L 68.522078 96.865413 
L 69.412965 97.302692 
L 70.30383 99.006178 
L 71.194705 97.400604 
L 72.085571 96.677193 
L 72.976442 96.18763 
L 73.867306 97.234723 
L 74.758184 97.315525 
L 75.649039 95.616791 
L 76.539914 95.507472 
L 77.430784 96.688125 
L 78.321655 94.457527 
L 79.212509 96.90011 
L 80.103391 96.333073 
L 80.994245 96.075934 
L 81.885129 96.098749 
L 82.775998 98.400167 
L 83.666869 97.554127 
L 84.557735 97.694817 
L 85.44861 96.172421 
L 94.53997 98.673941 
L 96.139324 97.979523 
L 97.030192 95.986102 
L 97.921065 97.687212 
L 98.811931 94.857257 
L 100.593666 98.298927 
L 101.484533 96.78984 
L 102.375401 97.384444 
L 103.266272 97.638731 
L 104.157138 94.986539 
L 105.048009 97.412011 
L 105.93888 97.287007 
L 106.829748 97.670101 
L 107.720614 94.962774 
L 108.611487 96.392961 
L 109.502352 97.37779 
L 111.284094 96.326894 
L 112.17496 97.894444 
L 113.956695 96.64915 
L 114.847564 97.861648 
L 115.738441 96.618255 
L 116.629309 96.766074 
L 117.520178 97.105441 
L 118.41104 95.902449 
L 119.301913 97.790828 
L 120.192782 95.636754 
L 121.083649 95.115822 
L 121.97452 96.444769 
L 125.537994 98.069831 
L 126.428869 97.051732 
L 127.319734 97.723335 
L 128.210603 96.803148 
L 129.101474 96.088292 
L 129.992342 96.551713 
L 130.883214 95.441404 
L 131.774065 95.807388 
L 132.664946 97.308395 
L 133.55582 97.90395 
L 134.446686 98.179151 
L 135.337558 96.708087 
L 136.228424 97.089756 
L 137.119294 97.714304 
L 138.010159 96.13202 
L 138.901032 96.053595 
L 139.791912 97.138712 
L 140.68277 98.014696 
L 141.57364 96.215673 
L 142.464507 96.501331 
L 143.355376 96.189532 
L 144.246246 96.775105 
L 145.137113 98.120213 
L 146.027984 98.31889 
L 146.918849 96.816457 
L 173.644977 96.816457 
L 181.959197 98.477166 
L 182.553652 96.811228 
L 183.444521 97.485683 
L 184.335387 94.953743 
L 185.226256 97.745674 
L 186.117131 94.912867 
L 187.007996 97.343093 
L 187.898864 98.322217 
L 188.789731 96.537929 
L 189.680603 96.661032 
L 190.571474 94.884824 
L 191.462343 95.7475 
L 192.353215 93.585345 
L 193.244077 96.410072 
L 194.134949 96.380128 
L 195.025817 96.232784 
L 195.916688 96.791741 
L 196.807557 97.001825 
L 197.698426 96.205217 
L 199.480162 95.792178 
L 200.371032 95.788851 
L 201.261898 97.914407 
L 202.152766 97.591201 
L 203.043636 96.143903 
L 203.043636 96.143903 
" clip-path="url(#p98319ae3c7)" style="fill: none; stroke: #ff6b6b; stroke-width: 1.2; stroke-linecap: square"/>
   </g>
   <g id="patch_3">
    <path d="M 35.96 103.4 
L 35.96 6.735925 
" style="fill: none; stroke: var(--fg-color); stroke-width: 0.8; stroke-linejoin: miter; stroke-linecap: square"/>
   </g>
   <g id="patch_4">
    <path d="M 35.96 103.4 
L 211 103.4 
" style="fill: none; stroke: var(--fg-color); stroke-width: 0.8; stroke-linejoin: miter; stroke-linecap: square"/>
   </g>
  </g>
 </g>
 <defs>
  <clipPath id="p98319ae3c7">
   <rect x="35.96" y="6.735925" width="175.04" height="96.664075"/>
  </clipPath>
 </defs>
</svg>
