<?xml version="1.0" encoding="utf-8" standalone="no"?>
<!DOCTYPE svg PUBLIC "-//W3C//DTD SVG 1.1//EN"
  "http://www.w3.org/Graphics/SVG/1.1/DTD/svg11.dtd">
<svg xmlns:xlink="http://www.w3.org/1999/xlink" width="216pt" height="122.4pt" viewBox="0 0 216 122.4" xmlns="http://www.w3.org/2000/svg" version="1.1">
  <style>
    :root {
      --fg-color: #212529;
      --grid-color: rgba(33, 37, 41, 0.1);
    }
    @media (prefers-color-scheme: dark) {
      :root {
        --fg-color: #dee2e6;
        --grid-color: rgba(248, 249, 250, 0.15);
      }
    }
  </style>

 <metadata>
  <rdf:RDF xmlns:dc="http://purl.org/dc/elements/1.1/" xmlns:cc="http://creativecommons.org/ns#" xmlns:rdf="http://www.w3.org/1999/02/22-rdf-syntax-ns#">
   <cc:Work>
    <dc:type rdf:resource="http://purl.org/dc/dcmitype/StillImage"/>
    <dc:date>2026-06-30T15:36:45.378863</dc:date>
    <dc:format>image/svg+xml</dc:format>
    <dc:creator>
     <cc:Agent>
      <dc:title>Matplotlib v3.11.0, https://matplotlib.org/</dc:title>
     </cc:Agent>
    </dc:creator>
   </cc:Work>
  </rdf:RDF>
 </metadata>
 <defs>
  <style type="text/css">*{stroke-linejoin: round; stroke-linecap: butt}</style>
 </defs>
 <g id="figure_1">
  <g id="patch_1">
   <path d="M 0 122.4 
L 216 122.4 
L 216 0 
L 0 0 
L 0 122.4 
z
" style="fill: none; opacity: 0"/>
  </g>
  <g id="axes_1">
   <g id="patch_2">
    <path d="M 31.64 103.4 
L 211 103.4 
L 211 5 
L 31.64 5 
L 31.64 103.4 
z
" style="fill: none; opacity: 0"/>
   </g>
   <g id="matplotlib.axis_1">
    <g id="xtick_1">
     <g id="line2d_1">
      <path d="M 66.298815 103.4 
L 66.298815 5 
" clip-path="url(#p0fba2dfc36)" style="fill: none; stroke-dasharray: 2.96,1.28; stroke-dashoffset: 0; stroke: var(--grid-color); stroke-width: 0.8"/>
     </g>
     <g id="line2d_2">
      <defs>
       <path id="ma18de60ec1" d="M 0 0 
L 0 3.5 
" style="stroke: var(--fg-color); stroke-width: 0.8"/>
      </defs>
      <g>
       <use xlink:href="#ma18de60ec1" x="66.298815" y="103.4" style="fill: var(--fg-color); stroke: var(--fg-color); stroke-width: 0.8"/>
      </g>
     </g>
     <g id="text_1">
      <text style="font-size: 7px; font-family: 'DejaVu Sans', 'Bitstream Vera Sans', 'Computer Modern Sans Serif', 'Lucida Grande', 'Verdana', 'Geneva', 'Lucid', 'Arial', 'Helvetica', 'Avant Garde', sans-serif; text-anchor: middle; fill: var(--fg-color)" x="66.298815" y="115.718359" transform="rotate(-0 66.298815 115.718359)">02/2026</text>
     </g>
    </g>
    <g id="xtick_2">
     <g id="line2d_3">
      <path d="M 120.157298 103.4 
L 120.157298 5 
" clip-path="url(#p0fba2dfc36)" style="fill: none; stroke-dasharray: 2.96,1.28; stroke-dashoffset: 0; stroke: var(--grid-color); stroke-width: 0.8"/>
     </g>
     <g id="line2d_4">
      <g>
       <use xlink:href="#ma18de60ec1" x="120.157298" y="103.4" style="fill: var(--fg-color); stroke: var(--fg-color); stroke-width: 0.8"/>
      </g>
     </g>
     <g id="text_2">
      <text style="font-size: 7px; font-family: 'DejaVu Sans', 'Bitstream Vera Sans', 'Computer Modern Sans Serif', 'Lucida Grande', 'Verdana', 'Geneva', 'Lucid', 'Arial', 'Helvetica', 'Avant Garde', sans-serif; text-anchor: middle; fill: var(--fg-color)" x="120.157298" y="115.718359" transform="rotate(-0 120.157298 115.718359)">04/2026</text>
     </g>
    </g>
    <g id="xtick_3">
     <g id="line2d_5">
      <path d="M 175.841492 103.4 
L 175.841492 5 
" clip-path="url(#p0fba2dfc36)" style="fill: none; stroke-dasharray: 2.96,1.28; stroke-dashoffset: 0; stroke: var(--grid-color); stroke-width: 0.8"/>
     </g>
     <g id="line2d_6">
      <g>
       <use xlink:href="#ma18de60ec1" x="175.841492" y="103.4" style="fill: var(--fg-color); stroke: var(--fg-color); stroke-width: 0.8"/>
      </g>
     </g>
     <g id="text_3">
      <text style="font-size: 7px; font-family: 'DejaVu Sans', 'Bitstream Vera Sans', 'Computer Modern Sans Serif', 'Lucida Grande', 'Verdana', 'Geneva', 'Lucid', 'Arial', 'Helvetica', 'Avant Garde', sans-serif; text-anchor: middle; fill: var(--fg-color)" x="175.841492" y="115.718359" transform="rotate(-0 175.841492 115.718359)">06/2026</text>
     </g>
    </g>
   </g>
   <g id="matplotlib.axis_2">
    <g id="ytick_1">
     <g id="line2d_7">
      <path d="M 31.64 102.404499 
L 211 102.404499 
" clip-path="url(#p0fba2dfc36)" style="fill: none; stroke-dasharray: 2.96,1.28; stroke-dashoffset: 0; stroke: var(--grid-color); stroke-width: 0.8"/>
     </g>
     <g id="line2d_8">
      <defs>
       <path id="m0676cb01c4" d="M 0 0 
L -3.5 0 
" style="stroke: var(--fg-color); stroke-width: 0.8"/>
      </defs>
      <g>
       <use xlink:href="#m0676cb01c4" x="31.64" y="102.404499" style="fill: var(--fg-color); stroke: var(--fg-color); stroke-width: 0.8"/>
      </g>
     </g>
     <g id="text_4">
      <text style="font-size: 7px; font-family: 'DejaVu Sans', 'Bitstream Vera Sans', 'Computer Modern Sans Serif', 'Lucida Grande', 'Verdana', 'Geneva', 'Lucid', 'Arial', 'Helvetica', 'Avant Garde', sans-serif; text-anchor: end; fill: var(--fg-color)" x="24.64" y="105.063679" transform="rotate(-0 24.64 105.063679)">0</text>
     </g>
    </g>
    <g id="ytick_2">
     <g id="line2d_9">
      <path d="M 31.64 76.141458 
L 211 76.141458 
" clip-path="url(#p0fba2dfc36)" style="fill: none; stroke-dasharray: 2.96,1.28; stroke-dashoffset: 0; stroke: var(--grid-color); stroke-width: 0.8"/>
     </g>
     <g id="line2d_10">
      <g>
       <use xlink:href="#m0676cb01c4" x="31.64" y="76.141458" style="fill: var(--fg-color); stroke: var(--fg-color); stroke-width: 0.8"/>
      </g>
     </g>
     <g id="text_5">
      <text style="font-size: 7px; font-family: 'DejaVu Sans', 'Bitstream Vera Sans', 'Computer Modern Sans Serif', 'Lucida Grande', 'Verdana', 'Geneva', 'Lucid', 'Arial', 'Helvetica', 'Avant Garde', sans-serif; text-anchor: end; fill: var(--fg-color)" x="24.64" y="78.800638" transform="rotate(-0 24.64 78.800638)">10</text>
     </g>
    </g>
    <g id="ytick_3">
     <g id="line2d_11">
      <path d="M 31.64 49.878417 
L 211 49.878417 
" clip-path="url(#p0fba2dfc36)" style="fill: none; stroke-dasharray: 2.96,1.28; stroke-dashoffset: 0; stroke: var(--grid-color); stroke-width: 0.8"/>
     </g>
     <g id="line2d_12">
      <g>
       <use xlink:href="#m0676cb01c4" x="31.64" y="49.878417" style="fill: var(--fg-color); stroke: var(--fg-color); stroke-width: 0.8"/>
      </g>
     </g>
     <g id="text_6">
      <text style="font-size: 7px; font-family: 'DejaVu Sans', 'Bitstream Vera Sans', 'Computer Modern Sans Serif', 'Lucida Grande', 'Verdana', 'Geneva', 'Lucid', 'Arial', 'Helvetica', 'Avant Garde', sans-serif; text-anchor: end; fill: var(--fg-color)" x="24.64" y="52.537596" transform="rotate(-0 24.64 52.537596)">20</text>
     </g>
    </g>
    <g id="ytick_4">
     <g id="line2d_13">
      <path d="M 31.64 23.615375 
L 211 23.615375 
" clip-path="url(#p0fba2dfc36)" style="fill: none; stroke-dasharray: 2.96,1.28; stroke-dashoffset: 0; stroke: var(--grid-color); stroke-width: 0.8"/>
     </g>
     <g id="line2d_14">
      <g>
       <use xlink:href="#m0676cb01c4" x="31.64" y="23.615375" style="fill: var(--fg-color); stroke: var(--fg-color); stroke-width: 0.8"/>
      </g>
     </g>
     <g id="text_7">
      <text style="font-size: 7px; font-family: 'DejaVu Sans', 'Bitstream Vera Sans', 'Computer Modern Sans Serif', 'Lucida Grande', 'Verdana', 'Geneva', 'Lucid', 'Arial', 'Helvetica', 'Avant Garde', sans-serif; text-anchor: end; fill: var(--fg-color)" x="24.64" y="26.274555" transform="rotate(-0 24.64 26.274555)">30</text>
     </g>
    </g>
    <g id="text_8">
     <text style="font-size: 7px; font-family: 'DejaVu Sans', 'Bitstream Vera Sans', 'Computer Modern Sans Serif', 'Lucida Grande', 'Verdana', 'Geneva', 'Lucid', 'Arial', 'Helvetica', 'Avant Garde', sans-serif; text-anchor: middle; fill: var(--fg-color)" x="10.050859" y="54.2" transform="rotate(-90 10.050859 54.2)">ms</text>
    </g>
   </g>
   <g id="line2d_15">
    <path d="M 39.792727 74.48426 
L 40.358622 72.853325 
L 41.271481 76.782276 
L 42.184338 75.715997 
L 43.097199 77.462489 
L 44.010052 74.841437 
L 44.922906 75.0673 
L 45.835753 73.843442 
L 46.748617 76.120448 
L 47.661476 74.741638 
L 48.574332 76.091558 
L 49.487188 74.479007 
L 50.40004 75.71337 
L 52.225755 74.41335 
L 53.138604 76.291157 
L 54.051463 74.421229 
L 54.964319 74.176982 
L 55.877175 75.432356 
L 56.79003 76.280652 
L 57.702885 9.472727 
L 58.615744 64.942897 
L 59.528593 63.511561 
L 60.441447 71.550678 
L 61.35431 73.412728 
L 62.267165 63.78995 
L 63.180022 68.971648 
L 64.092874 64.604104 
L 65.005713 63.501056 
L 65.918587 68.832454 
L 66.831438 71.963008 
L 67.7443 68.701138 
L 68.657153 74.271529 
L 69.57001 58.500573 
L 70.482861 67.209398 
L 71.395726 69.80156 
L 72.308567 74.027283 
L 73.221429 75.077805 
L 74.134286 69.725397 
L 75.047144 71.800177 
L 75.959984 72.112707 
L 76.872853 28.061708 
L 77.785693 61.027078 
L 78.698564 65.397248 
L 79.61142 64.36511 
L 80.524278 71.366837 
L 81.43713 54.815868 
L 82.349993 74.573554 
L 91.665728 73.932736 
L 92.391681 72.346448 
L 93.304554 74.373955 
L 94.217409 75.130331 
L 95.130269 70.694503 
L 96.043122 77.641078 
L 96.955975 73.297171 
L 97.868829 75.687107 
L 98.781684 72.869083 
L 99.694538 76.771771 
L 101.520248 74.284661 
L 102.433106 74.07193 
L 103.345963 72.711505 
L 104.258819 74.282035 
L 105.171671 71.280169 
L 106.084531 74.460623 
L 106.997383 74.978005 
L 107.910242 72.574937 
L 108.823098 75.597813 
L 109.735951 72.682615 
L 110.648812 74.539412 
L 111.561659 74.920227 
L 112.474515 73.147471 
L 113.387379 73.386465 
L 114.300233 73.449496 
L 115.213089 72.890093 
L 116.125938 71.629467 
L 117.038797 71.913108 
L 117.951653 74.085062 
L 118.864507 73.670106 
L 119.777364 74.224256 
L 123.428785 66.153623 
L 124.341647 50.156805 
L 125.254499 67.566575 
L 126.167355 63.495804 
L 127.080212 69.250036 
L 127.993067 63.629745 
L 128.905926 61.13213 
L 129.818763 74.352945 
L 130.731631 72.853325 
L 131.644492 66.894241 
L 132.557344 69.294683 
L 133.470203 72.220386 
L 134.383056 68.64336 
L 135.295912 67.083335 
L 136.208765 69.092458 
L 137.121624 68.412245 
L 138.034491 70.891476 
L 138.947335 11.416192 
L 139.860192 50.301251 
L 140.773046 63.529945 
L 141.685902 62.728923 
L 142.598758 61.73618 
L 143.511612 60.488685 
L 144.42447 60.774952 
L 145.337321 61.933153 
L 172.723053 61.933153 
L 181.242468 57.872886 
L 181.851594 58.21168 
L 182.764449 58.156527 
L 183.677303 68.538307 
L 184.590158 61.99881 
L 185.503019 68.821948 
L 186.415872 68.640733 
L 187.328726 66.6106 
L 188.24158 64.990171 
L 189.154439 67.303945 
L 190.067296 13.554004 
L 190.980152 61.126877 
L 191.893011 51.454199 
L 192.80586 54.737079 
L 193.718718 60.711921 
L 194.631573 59.700794 
L 195.544431 61.662643 
L 196.457286 61.168898 
L 197.370142 66.27706 
L 198.282997 66.098471 
L 200.108708 53.01685 
L 201.021561 61.46567 
L 201.934415 57.712682 
L 202.847273 31.762171 
L 202.847273 31.762171 
" clip-path="url(#p0fba2dfc36)" style="fill: none; stroke: #339af0; stroke-width: 1.2; stroke-linecap: square"/>
   </g>
   <g id="line2d_16">
    <path d="M 39.792727 94.872259 
L 40.358622 95.066606 
L 41.271481 98.365244 
L 42.184338 95.63914 
L 43.097199 96.224806 
L 44.010052 88.246094 
L 44.922906 96.957545 
L 45.835753 93.572239 
L 46.748617 95.473683 
L 47.661476 94.021337 
L 48.574332 94.995695 
L 49.487188 97.908267 
L 50.40004 88.34852 
L 51.312897 98.034329 
L 52.225755 95.752071 
L 53.138604 89.916423 
L 54.051463 98.029077 
L 54.964319 98.457164 
L 55.877175 97.264822 
L 56.79003 95.074485 
L 57.702885 89.643288 
L 58.615744 92.264339 
L 59.528593 94.294472 
L 60.441447 98.304839 
L 61.35431 87.747096 
L 62.267165 97.514321 
L 63.180022 91.80211 
L 64.092874 81.317903 
L 65.005713 98.399386 
L 65.918587 92.004335 
L 66.831438 98.378375 
L 67.7443 93.178293 
L 68.657153 98.336354 
L 69.57001 92.613638 
L 70.482861 97.811093 
L 71.395726 88.317004 
L 72.308567 90.152791 
L 73.221429 98.102613 
L 74.134286 98.015945 
L 75.047144 94.72256 
L 75.959984 97.698162 
L 76.872853 98.220797 
L 77.785693 89.795613 
L 78.698564 97.120375 
L 79.61142 97.574726 
L 80.524278 97.480179 
L 81.43713 97.096739 
L 82.349993 97.622 
L 91.665728 82.386809 
L 92.391681 87.944069 
L 93.304554 89.546114 
L 94.217409 93.280719 
L 95.130269 97.86362 
L 96.043122 97.808467 
L 96.955975 93.834869 
L 97.868829 93.175667 
L 98.781684 97.942409 
L 99.694538 97.438158 
L 100.607396 94.922159 
L 101.520248 86.205455 
L 102.433106 89.485709 
L 103.345963 84.705836 
L 104.258819 76.656214 
L 105.171671 84.212091 
L 106.084531 79.453227 
L 106.997383 83.158943 
L 107.910242 91.904535 
L 108.823098 84.217343 
L 109.735951 84.022997 
L 110.648812 81.02901 
L 111.561659 80.829411 
L 112.474515 53.915046 
L 113.387379 89.958444 
L 114.300233 65.515431 
L 115.213089 81.724981 
L 116.125938 93.882142 
L 117.038797 97.214922 
L 117.951653 88.309125 
L 118.864507 91.907162 
L 119.777364 92.892026 
L 123.428785 83.429452 
L 124.341647 92.681921 
L 125.254499 93.879516 
L 126.167355 96.006823 
L 127.080212 89.771976 
L 127.993067 71.689872 
L 128.905926 91.815241 
L 129.818763 96.043591 
L 130.731631 88.837012 
L 131.644492 93.664159 
L 132.557344 90.326127 
L 133.470203 82.100542 
L 134.383056 90.163296 
L 135.295912 91.111392 
L 136.208765 95.602372 
L 137.121624 86.714958 
L 138.034491 98.228676 
L 138.947335 98.294333 
L 139.860192 97.758567 
L 140.773046 93.180919 
L 141.685902 98.034329 
L 142.598758 97.950288 
L 143.511612 98.165645 
L 144.42447 97.958166 
L 145.337321 98.118371 
L 172.723053 98.118371 
L 181.242468 98.370496 
L 182.764449 98.14726 
L 183.677303 98.525448 
L 185.503019 98.648884 
L 186.415872 98.625248 
L 187.328726 98.43878 
L 188.24158 98.898383 
L 189.154439 98.470296 
L 190.980152 98.6804 
L 191.893011 98.556964 
L 192.80586 98.656763 
L 193.718718 98.475548 
L 195.544431 98.6804 
L 200.108708 98.6305 
L 201.934415 98.927273 
L 202.847273 98.725047 
L 202.847273 98.725047 
" clip-path="url(#p0fba2dfc36)" style="fill: none; stroke: #ff6b6b; stroke-width: 1.2; stroke-linecap: square"/>
   </g>
   <g id="patch_3">
    <path d="M 31.64 103.4 
L 31.64 5 
" style="fill: none; stroke: var(--fg-color); stroke-width: 0.8; stroke-linejoin: miter; stroke-linecap: square"/>
   </g>
   <g id="patch_4">
    <path d="M 31.64 103.4 
L 211 103.4 
" style="fill: none; stroke: var(--fg-color); stroke-width: 0.8; stroke-linejoin: miter; stroke-linecap: square"/>
   </g>
  </g>
 </g>
 <defs>
  <clipPath id="p0fba2dfc36">
   <rect x="31.64" y="5" width="179.36" height="98.4"/>
  </clipPath>
 </defs>
</svg>
