<?xml version="1.0" encoding="utf-8" standalone="no"?>
<!DOCTYPE svg PUBLIC "-//W3C//DTD SVG 1.1//EN"
  "http://www.w3.org/Graphics/SVG/1.1/DTD/svg11.dtd">
<svg xmlns:xlink="http://www.w3.org/1999/xlink" width="216pt" height="122.4pt" viewBox="0 0 216 122.4" xmlns="http://www.w3.org/2000/svg" version="1.1">
  <style>
    :root {
      --fg-color: #212529;
      --grid-color: rgba(33, 37, 41, 0.1);
    }
    @media (prefers-color-scheme: dark) {
      :root {
        --fg-color: #dee2e6;
        --grid-color: rgba(248, 249, 250, 0.15);
      }
    }
  </style>

 <metadata>
  <rdf:RDF xmlns:dc="http://purl.org/dc/elements/1.1/" xmlns:cc="http://creativecommons.org/ns#" xmlns:rdf="http://www.w3.org/1999/02/22-rdf-syntax-ns#">
   <cc:Work>
    <dc:type rdf:resource="http://purl.org/dc/dcmitype/StillImage"/>
    <dc:date>2026-06-30T04:48:56.135885</dc:date>
    <dc:format>image/svg+xml</dc:format>
    <dc:creator>
     <cc:Agent>
      <dc:title>Matplotlib v3.11.0, https://matplotlib.org/</dc:title>
     </cc:Agent>
    </dc:creator>
   </cc:Work>
  </rdf:RDF>
 </metadata>
 <defs>
  <style type="text/css">*{stroke-linejoin: round; stroke-linecap: butt}</style>
 </defs>
 <g id="figure_1">
  <g id="patch_1">
   <path d="M 0 122.4 
L 216 122.4 
L 216 0 
L 0 0 
L 0 122.4 
z
" style="fill: none; opacity: 0"/>
  </g>
  <g id="axes_1">
   <g id="patch_2">
    <path d="M 35.96 103.4 
L 211 103.4 
L 211 5 
L 35.96 5 
L 35.96 103.4 
z
" style="fill: none; opacity: 0"/>
   </g>
   <g id="matplotlib.axis_1">
    <g id="xtick_1">
     <g id="line2d_1">
      <path d="M 72.056377 103.4 
L 72.056377 5 
" clip-path="url(#p5b4b9e3f7a)" style="fill: none; stroke-dasharray: 2.96,1.28; stroke-dashoffset: 0; stroke: var(--grid-color); stroke-width: 0.8"/>
     </g>
     <g id="line2d_2">
      <defs>
       <path id="m9f64634bb5" d="M 0 0 
L 0 3.5 
" style="stroke: var(--fg-color); stroke-width: 0.8"/>
      </defs>
      <g>
       <use xlink:href="#m9f64634bb5" x="72.056377" y="103.4" style="fill: var(--fg-color); stroke: var(--fg-color); stroke-width: 0.8"/>
      </g>
     </g>
     <g id="text_1">
      <text style="font-size: 7px; font-family: 'DejaVu Sans', 'Bitstream Vera Sans', 'Computer Modern Sans Serif', 'Lucida Grande', 'Verdana', 'Geneva', 'Lucid', 'Arial', 'Helvetica', 'Avant Garde', sans-serif; text-anchor: middle; fill: var(--fg-color)" x="72.056377" y="115.718359" transform="rotate(-0 72.056377 115.718359)">02/2026</text>
     </g>
    </g>
    <g id="xtick_2">
     <g id="line2d_3">
      <path d="M 126.640628 103.4 
L 126.640628 5 
" clip-path="url(#p5b4b9e3f7a)" style="fill: none; stroke-dasharray: 2.96,1.28; stroke-dashoffset: 0; stroke: var(--grid-color); stroke-width: 0.8"/>
     </g>
     <g id="line2d_4">
      <g>
       <use xlink:href="#m9f64634bb5" x="126.640628" y="103.4" style="fill: var(--fg-color); stroke: var(--fg-color); stroke-width: 0.8"/>
      </g>
     </g>
     <g id="text_2">
      <text style="font-size: 7px; font-family: 'DejaVu Sans', 'Bitstream Vera Sans', 'Computer Modern Sans Serif', 'Lucida Grande', 'Verdana', 'Geneva', 'Lucid', 'Arial', 'Helvetica', 'Avant Garde', sans-serif; text-anchor: middle; fill: var(--fg-color)" x="126.640628" y="115.718359" transform="rotate(-0 126.640628 115.718359)">04/2026</text>
     </g>
    </g>
    <g id="xtick_3">
     <g id="line2d_5">
      <path d="M 183.075192 103.4 
L 183.075192 5 
" clip-path="url(#p5b4b9e3f7a)" style="fill: none; stroke-dasharray: 2.96,1.28; stroke-dashoffset: 0; stroke: var(--grid-color); stroke-width: 0.8"/>
     </g>
     <g id="line2d_6">
      <g>
       <use xlink:href="#m9f64634bb5" x="183.075192" y="103.4" style="fill: var(--fg-color); stroke: var(--fg-color); stroke-width: 0.8"/>
      </g>
     </g>
     <g id="text_3">
      <text style="font-size: 7px; font-family: 'DejaVu Sans', 'Bitstream Vera Sans', 'Computer Modern Sans Serif', 'Lucida Grande', 'Verdana', 'Geneva', 'Lucid', 'Arial', 'Helvetica', 'Avant Garde', sans-serif; text-anchor: middle; fill: var(--fg-color)" x="183.075192" y="115.718359" transform="rotate(-0 183.075192 115.718359)">06/2026</text>
     </g>
    </g>
   </g>
   <g id="matplotlib.axis_2">
    <g id="ytick_1">
     <g id="line2d_7">
      <path d="M 35.96 100.307827 
L 211 100.307827 
" clip-path="url(#p5b4b9e3f7a)" style="fill: none; stroke-dasharray: 2.96,1.28; stroke-dashoffset: 0; stroke: var(--grid-color); stroke-width: 0.8"/>
     </g>
     <g id="line2d_8">
      <defs>
       <path id="m42dfdfb33a" d="M 0 0 
L -3.5 0 
" style="stroke: var(--fg-color); stroke-width: 0.8"/>
      </defs>
      <g>
       <use xlink:href="#m42dfdfb33a" x="35.96" y="100.307827" style="fill: var(--fg-color); stroke: var(--fg-color); stroke-width: 0.8"/>
      </g>
     </g>
     <g id="text_4">
      <text style="font-size: 7px; font-family: 'DejaVu Sans', 'Bitstream Vera Sans', 'Computer Modern Sans Serif', 'Lucida Grande', 'Verdana', 'Geneva', 'Lucid', 'Arial', 'Helvetica', 'Avant Garde', sans-serif; text-anchor: end; fill: var(--fg-color)" x="28.96" y="102.967007" transform="rotate(-0 28.96 102.967007)">0</text>
     </g>
    </g>
    <g id="ytick_2">
     <g id="line2d_9">
      <path d="M 35.96 75.486645 
L 211 75.486645 
" clip-path="url(#p5b4b9e3f7a)" style="fill: none; stroke-dasharray: 2.96,1.28; stroke-dashoffset: 0; stroke: var(--grid-color); stroke-width: 0.8"/>
     </g>
     <g id="line2d_10">
      <g>
       <use xlink:href="#m42dfdfb33a" x="35.96" y="75.486645" style="fill: var(--fg-color); stroke: var(--fg-color); stroke-width: 0.8"/>
      </g>
     </g>
     <g id="text_5">
      <text style="font-size: 7px; font-family: 'DejaVu Sans', 'Bitstream Vera Sans', 'Computer Modern Sans Serif', 'Lucida Grande', 'Verdana', 'Geneva', 'Lucid', 'Arial', 'Helvetica', 'Avant Garde', sans-serif; text-anchor: end; fill: var(--fg-color)" x="28.96" y="78.145825" transform="rotate(-0 28.96 78.145825)">50</text>
     </g>
    </g>
    <g id="ytick_3">
     <g id="line2d_11">
      <path d="M 35.96 50.665464 
L 211 50.665464 
" clip-path="url(#p5b4b9e3f7a)" style="fill: none; stroke-dasharray: 2.96,1.28; stroke-dashoffset: 0; stroke: var(--grid-color); stroke-width: 0.8"/>
     </g>
     <g id="line2d_12">
      <g>
       <use xlink:href="#m42dfdfb33a" x="35.96" y="50.665464" style="fill: var(--fg-color); stroke: var(--fg-color); stroke-width: 0.8"/>
      </g>
     </g>
     <g id="text_6">
      <text style="font-size: 7px; font-family: 'DejaVu Sans', 'Bitstream Vera Sans', 'Computer Modern Sans Serif', 'Lucida Grande', 'Verdana', 'Geneva', 'Lucid', 'Arial', 'Helvetica', 'Avant Garde', sans-serif; text-anchor: end; fill: var(--fg-color)" x="28.96" y="53.324643" transform="rotate(-0 28.96 53.324643)">100</text>
     </g>
    </g>
    <g id="ytick_4">
     <g id="line2d_13">
      <path d="M 35.96 25.844282 
L 211 25.844282 
" clip-path="url(#p5b4b9e3f7a)" style="fill: none; stroke-dasharray: 2.96,1.28; stroke-dashoffset: 0; stroke: var(--grid-color); stroke-width: 0.8"/>
     </g>
     <g id="line2d_14">
      <g>
       <use xlink:href="#m42dfdfb33a" x="35.96" y="25.844282" style="fill: var(--fg-color); stroke: var(--fg-color); stroke-width: 0.8"/>
      </g>
     </g>
     <g id="text_7">
      <text style="font-size: 7px; font-family: 'DejaVu Sans', 'Bitstream Vera Sans', 'Computer Modern Sans Serif', 'Lucida Grande', 'Verdana', 'Geneva', 'Lucid', 'Arial', 'Helvetica', 'Avant Garde', sans-serif; text-anchor: end; fill: var(--fg-color)" x="28.96" y="28.503462" transform="rotate(-0 28.96 28.503462)">150</text>
     </g>
    </g>
    <g id="text_8">
     <text style="font-size: 7px; font-family: 'DejaVu Sans', 'Bitstream Vera Sans', 'Computer Modern Sans Serif', 'Lucida Grande', 'Verdana', 'Geneva', 'Lucid', 'Arial', 'Helvetica', 'Avant Garde', sans-serif; text-anchor: middle; fill: var(--fg-color)" x="9.917109" y="54.2" transform="rotate(-90 9.917109 54.2)">ms</text>
    </g>
   </g>
   <g id="line2d_15">
    <path d="M 43.916364 24.746193 
L 45.193108 24.605209 
L 45.766628 28.205769 
L 46.691788 31.013045 
L 47.616947 20.143353 
L 48.542109 22.760002 
L 49.467263 26.473251 
L 50.392418 27.701899 
L 51.317566 24.287994 
L 52.242732 31.193743 
L 53.167891 26.068169 
L 54.093049 28.160595 
L 55.018206 23.693279 
L 55.943359 29.3952 
L 56.868517 32.304243 
L 57.793676 16.090054 
L 58.718827 27.797213 
L 59.643987 30.206853 
L 60.569143 23.662997 
L 61.494301 34.03279 
L 62.419457 23.585058 
L 63.344613 29.160888 
L 64.269773 25.31857 
L 65.194924 32.378706 
L 66.120079 31.526844 
L 67.045243 24.90207 
L 67.970398 29.589302 
L 68.895557 29.982966 
L 69.82071 32.84038 
L 70.74585 30.478397 
L 71.671025 23.904755 
L 72.596178 28.464903 
L 73.521341 26.471762 
L 74.446495 26.26376 
L 75.371653 30.356277 
L 76.296805 29.028343 
L 77.221971 32.555433 
L 78.147114 32.008374 
L 79.072277 29.092382 
L 79.997435 27.46858 
L 80.922594 29.085929 
L 81.847735 30.455561 
L 82.772905 28.489227 
L 83.698046 26.85649 
L 84.623219 30.84724 
L 85.548376 31.366002 
L 86.473535 28.130313 
L 87.398688 30.519104 
L 88.323852 27.282421 
L 97.76512 23.45152 
L 98.500856 27.305257 
L 99.426031 27.890044 
L 100.351186 23.597469 
L 101.276348 32.33651 
L 102.201502 27.778349 
L 103.126656 27.604104 
L 104.051812 36.627596 
L 104.976967 25.624367 
L 105.902123 24.58138 
L 106.827282 30.222242 
L 107.752435 32.572312 
L 108.677594 32.812084 
L 109.602753 27.132005 
L 110.527909 30.841282 
L 111.453063 30.197917 
L 112.378223 28.336825 
L 113.303377 33.694229 
L 114.228537 33.19582 
L 115.153695 27.559922 
L 116.078848 29.318751 
L 117.004011 32.765917 
L 117.929158 29.45775 
L 118.854316 26.311417 
L 119.779481 29.623555 
L 120.704637 30.079769 
L 121.629794 33.278226 
L 122.554943 25.249567 
L 123.480104 23.557755 
L 124.405261 26.921521 
L 125.330416 19.894645 
L 126.255574 25.934135 
L 129.9562 22.454702 
L 130.881363 27.78927 
L 131.806516 18.469909 
L 132.731673 21.901686 
L 133.656831 17.524222 
L 134.581987 27.849834 
L 135.507147 25.711241 
L 136.432285 28.311011 
L 137.357455 27.974932 
L 138.282617 26.292056 
L 139.20777 24.353522 
L 140.13293 28.710136 
L 141.058084 25.846268 
L 141.983242 24.839024 
L 142.908395 26.440487 
L 143.833556 26.213621 
L 144.758724 18.904776 
L 145.683869 21.901686 
L 146.609028 20.620913 
L 147.534182 15.074868 
L 148.459339 25.884989 
L 149.384497 22.812127 
L 150.309651 23.195366 
L 151.234811 25.637274 
L 152.159963 23.020128 
L 179.91473 23.020128 
L 188.548948 21.617731 
L 189.166282 24.792361 
L 190.091439 22.735677 
L 191.016594 13.058395 
L 191.94175 17.393166 
L 192.866913 18.78911 
L 193.792066 20.028183 
L 194.717222 24.830089 
L 195.642377 23.22664 
L 196.567536 24.931856 
L 197.492695 9.472727 
L 198.417852 25.483879 
L 199.343013 21.300517 
L 200.268162 23.080195 
L 201.193322 21.877857 
L 202.118478 24.197645 
L 203.043636 18.441117 
" clip-path="url(#p5b4b9e3f7a)" style="fill: none; stroke: #339af0; stroke-width: 1.2; stroke-linecap: square"/>
   </g>
   <g id="line2d_16">
    <path d="M 43.916364 98.674097 
L 45.193108 98.70835 
L 45.766628 98.778842 
L 46.691788 98.829974 
L 47.616947 98.520205 
L 48.542109 98.775367 
L 49.467263 98.772885 
L 50.392418 98.797706 
L 51.317566 98.731185 
L 52.242732 98.885573 
L 53.167891 98.587223 
L 54.093049 98.778842 
L 55.018206 98.718278 
L 55.943359 98.73466 
L 56.868517 98.752035 
L 57.793676 98.707853 
L 58.718827 98.78331 
L 59.643987 98.856781 
L 60.569143 98.689982 
L 61.494301 98.815081 
L 62.419457 98.627929 
L 63.344613 98.693457 
L 64.269773 98.749057 
L 65.194924 98.927273 
L 66.120079 98.839902 
L 67.045243 98.713811 
L 67.970398 98.748064 
L 68.895557 98.304757 
L 69.82071 98.834442 
L 70.74585 98.83047 
L 71.671025 98.695443 
L 72.596178 98.781324 
L 73.521341 97.32581 
L 74.446495 98.496873 
L 75.371653 98.745085 
L 76.296805 98.795224 
L 77.221971 98.726718 
L 78.147114 98.73466 
L 79.072277 98.791253 
L 79.997435 98.780331 
L 80.922594 98.78331 
L 81.847735 98.838413 
L 82.772905 98.798699 
L 83.698046 98.66665 
L 84.623219 98.255612 
L 85.548376 98.792245 
L 86.473535 98.758489 
L 87.398688 98.758985 
L 88.323852 98.648283 
L 97.76512 98.834938 
L 98.500856 98.846852 
L 99.426031 98.86522 
L 100.351186 98.75551 
L 101.276348 98.78331 
L 102.201502 98.470067 
L 103.126656 98.651261 
L 104.051812 98.91933 
L 104.976967 98.114131 
L 105.902123 98.754021 
L 106.827282 98.636865 
L 107.752435 98.828484 
L 108.677594 98.915855 
L 109.602753 98.634383 
L 110.527909 98.698421 
L 111.453063 98.693457 
L 112.378223 98.785296 
L 113.303377 98.834442 
L 114.228537 98.723243 
L 115.153695 98.50432 
L 116.078848 98.258094 
L 117.004011 98.760474 
L 117.929158 98.810117 
L 118.854316 98.732675 
L 119.779481 98.834442 
L 120.704637 98.699414 
L 121.629794 98.849334 
L 122.554943 98.581265 
L 123.480104 98.51127 
L 124.405261 98.737142 
L 125.330416 98.584244 
L 126.255574 97.58395 
L 129.9562 98.668636 
L 130.881363 98.784303 
L 131.806516 98.719768 
L 132.731673 98.733668 
L 133.656831 98.011371 
L 134.581987 98.697429 
L 135.507147 98.672111 
L 136.432285 98.694946 
L 137.357455 98.766928 
L 138.282617 98.759978 
L 139.20777 98.691968 
L 140.13293 98.742107 
L 141.058084 98.749057 
L 141.983242 97.954282 
L 142.908395 98.777849 
L 143.833556 98.72076 
L 144.758724 98.530134 
L 145.683869 98.690975 
L 146.609028 98.765439 
L 147.534182 98.676579 
L 148.459339 98.73615 
L 149.384497 98.807138 
L 150.309651 98.757992 
L 151.234811 98.74161 
L 152.159963 98.663672 
L 179.91473 98.663672 
L 188.548948 98.744092 
L 189.166282 98.72225 
L 190.091439 98.630908 
L 191.016594 98.429856 
L 191.94175 98.717782 
L 192.866913 98.66814 
L 193.792066 98.684025 
L 194.717222 98.748064 
L 195.642377 98.680054 
L 196.567536 98.759482 
L 197.492695 98.444749 
L 198.417852 98.765935 
L 199.343013 98.613533 
L 200.268162 98.334543 
L 201.193322 98.549494 
L 202.118478 98.750049 
L 203.043636 98.695939 
" clip-path="url(#p5b4b9e3f7a)" style="fill: none; stroke: #ff6b6b; stroke-width: 1.2; stroke-linecap: square"/>
   </g>
   <g id="patch_3">
    <path d="M 35.96 103.4 
L 35.96 5 
" style="fill: none; stroke: var(--fg-color); stroke-width: 0.8; stroke-linejoin: miter; stroke-linecap: square"/>
   </g>
   <g id="patch_4">
    <path d="M 35.96 103.4 
L 211 103.4 
" style="fill: none; stroke: var(--fg-color); stroke-width: 0.8; stroke-linejoin: miter; stroke-linecap: square"/>
   </g>
  </g>
 </g>
 <defs>
  <clipPath id="p5b4b9e3f7a">
   <rect x="35.96" y="5" width="175.04" height="98.4"/>
  </clipPath>
 </defs>
</svg>
