<?xml version="1.0" encoding="utf-8" standalone="no"?>
<!DOCTYPE svg PUBLIC "-//W3C//DTD SVG 1.1//EN"
  "http://www.w3.org/Graphics/SVG/1.1/DTD/svg11.dtd">
<svg xmlns:xlink="http://www.w3.org/1999/xlink" width="216pt" height="122.4pt" viewBox="0 0 216 122.4" xmlns="http://www.w3.org/2000/svg" version="1.1">
  <style>
    :root {
      --fg-color: #212529;
      --grid-color: rgba(33, 37, 41, 0.1);
    }
    @media (prefers-color-scheme: dark) {
      :root {
        --fg-color: #dee2e6;
        --grid-color: rgba(248, 249, 250, 0.15);
      }
    }
  </style>

 <metadata>
  <rdf:RDF xmlns:dc="http://purl.org/dc/elements/1.1/" xmlns:cc="http://creativecommons.org/ns#" xmlns:rdf="http://www.w3.org/1999/02/22-rdf-syntax-ns#">
   <cc:Work>
    <dc:type rdf:resource="http://purl.org/dc/dcmitype/StillImage"/>
    <dc:date>2026-06-30T04:49:26.345408</dc:date>
    <dc:format>image/svg+xml</dc:format>
    <dc:creator>
     <cc:Agent>
      <dc:title>Matplotlib v3.11.0, https://matplotlib.org/</dc:title>
     </cc:Agent>
    </dc:creator>
   </cc:Work>
  </rdf:RDF>
 </metadata>
 <defs>
  <style type="text/css">*{stroke-linejoin: round; stroke-linecap: butt}</style>
 </defs>
 <g id="figure_1">
  <g id="patch_1">
   <path d="M 0 122.4 
L 216 122.4 
L 216 0 
L 0 0 
L 0 122.4 
z
" style="fill: none; opacity: 0"/>
  </g>
  <g id="axes_1">
   <g id="patch_2">
    <path d="M 35.96 103.4 
L 211 103.4 
L 211 5 
L 35.96 5 
L 35.96 103.4 
z
" style="fill: none; opacity: 0"/>
   </g>
   <g id="matplotlib.axis_1">
    <g id="xtick_1">
     <g id="line2d_1">
      <path d="M 70.996911 103.4 
L 70.996911 5 
" clip-path="url(#p52311bcc62)" style="fill: none; stroke-dasharray: 2.96,1.28; stroke-dashoffset: 0; stroke: var(--grid-color); stroke-width: 0.8"/>
     </g>
     <g id="line2d_2">
      <defs>
       <path id="mab5344efa5" d="M 0 0 
L 0 3.5 
" style="stroke: var(--fg-color); stroke-width: 0.8"/>
      </defs>
      <g>
       <use xlink:href="#mab5344efa5" x="70.996911" y="103.4" style="fill: var(--fg-color); stroke: var(--fg-color); stroke-width: 0.8"/>
      </g>
     </g>
     <g id="text_1">
      <text style="font-size: 7px; font-family: 'DejaVu Sans', 'Bitstream Vera Sans', 'Computer Modern Sans Serif', 'Lucida Grande', 'Verdana', 'Geneva', 'Lucid', 'Arial', 'Helvetica', 'Avant Garde', sans-serif; text-anchor: middle; fill: var(--fg-color)" x="70.996911" y="115.718359" transform="rotate(-0 70.996911 115.718359)">02/2026</text>
     </g>
    </g>
    <g id="xtick_2">
     <g id="line2d_3">
      <path d="M 126.022656 103.4 
L 126.022656 5 
" clip-path="url(#p52311bcc62)" style="fill: none; stroke-dasharray: 2.96,1.28; stroke-dashoffset: 0; stroke: var(--grid-color); stroke-width: 0.8"/>
     </g>
     <g id="line2d_4">
      <g>
       <use xlink:href="#mab5344efa5" x="126.022656" y="103.4" style="fill: var(--fg-color); stroke: var(--fg-color); stroke-width: 0.8"/>
      </g>
     </g>
     <g id="text_2">
      <text style="font-size: 7px; font-family: 'DejaVu Sans', 'Bitstream Vera Sans', 'Computer Modern Sans Serif', 'Lucida Grande', 'Verdana', 'Geneva', 'Lucid', 'Arial', 'Helvetica', 'Avant Garde', sans-serif; text-anchor: middle; fill: var(--fg-color)" x="126.022656" y="115.718359" transform="rotate(-0 126.022656 115.718359)">04/2026</text>
     </g>
    </g>
    <g id="xtick_3">
     <g id="line2d_5">
      <path d="M 182.913681 103.4 
L 182.913681 5 
" clip-path="url(#p52311bcc62)" style="fill: none; stroke-dasharray: 2.96,1.28; stroke-dashoffset: 0; stroke: var(--grid-color); stroke-width: 0.8"/>
     </g>
     <g id="line2d_6">
      <g>
       <use xlink:href="#mab5344efa5" x="182.913681" y="103.4" style="fill: var(--fg-color); stroke: var(--fg-color); stroke-width: 0.8"/>
      </g>
     </g>
     <g id="text_3">
      <text style="font-size: 7px; font-family: 'DejaVu Sans', 'Bitstream Vera Sans', 'Computer Modern Sans Serif', 'Lucida Grande', 'Verdana', 'Geneva', 'Lucid', 'Arial', 'Helvetica', 'Avant Garde', sans-serif; text-anchor: middle; fill: var(--fg-color)" x="182.913681" y="115.718359" transform="rotate(-0 182.913681 115.718359)">06/2026</text>
     </g>
    </g>
   </g>
   <g id="matplotlib.axis_2">
    <g id="ytick_1">
     <g id="line2d_7">
      <path d="M 35.96 102.520367 
L 211 102.520367 
" clip-path="url(#p52311bcc62)" style="fill: none; stroke-dasharray: 2.96,1.28; stroke-dashoffset: 0; stroke: var(--grid-color); stroke-width: 0.8"/>
     </g>
     <g id="line2d_8">
      <defs>
       <path id="m413cdf6b7c" d="M 0 0 
L -3.5 0 
" style="stroke: var(--fg-color); stroke-width: 0.8"/>
      </defs>
      <g>
       <use xlink:href="#m413cdf6b7c" x="35.96" y="102.520367" style="fill: var(--fg-color); stroke: var(--fg-color); stroke-width: 0.8"/>
      </g>
     </g>
     <g id="text_4">
      <text style="font-size: 7px; font-family: 'DejaVu Sans', 'Bitstream Vera Sans', 'Computer Modern Sans Serif', 'Lucida Grande', 'Verdana', 'Geneva', 'Lucid', 'Arial', 'Helvetica', 'Avant Garde', sans-serif; text-anchor: end; fill: var(--fg-color)" x="28.96" y="105.179546" transform="rotate(-0 28.96 105.179546)">60</text>
     </g>
    </g>
    <g id="ytick_2">
     <g id="line2d_9">
      <path d="M 35.96 85.220925 
L 211 85.220925 
" clip-path="url(#p52311bcc62)" style="fill: none; stroke-dasharray: 2.96,1.28; stroke-dashoffset: 0; stroke: var(--grid-color); stroke-width: 0.8"/>
     </g>
     <g id="line2d_10">
      <g>
       <use xlink:href="#m413cdf6b7c" x="35.96" y="85.220925" style="fill: var(--fg-color); stroke: var(--fg-color); stroke-width: 0.8"/>
      </g>
     </g>
     <g id="text_5">
      <text style="font-size: 7px; font-family: 'DejaVu Sans', 'Bitstream Vera Sans', 'Computer Modern Sans Serif', 'Lucida Grande', 'Verdana', 'Geneva', 'Lucid', 'Arial', 'Helvetica', 'Avant Garde', sans-serif; text-anchor: end; fill: var(--fg-color)" x="28.96" y="87.880105" transform="rotate(-0 28.96 87.880105)">80</text>
     </g>
    </g>
    <g id="ytick_3">
     <g id="line2d_11">
      <path d="M 35.96 67.921484 
L 211 67.921484 
" clip-path="url(#p52311bcc62)" style="fill: none; stroke-dasharray: 2.96,1.28; stroke-dashoffset: 0; stroke: var(--grid-color); stroke-width: 0.8"/>
     </g>
     <g id="line2d_12">
      <g>
       <use xlink:href="#m413cdf6b7c" x="35.96" y="67.921484" style="fill: var(--fg-color); stroke: var(--fg-color); stroke-width: 0.8"/>
      </g>
     </g>
     <g id="text_6">
      <text style="font-size: 7px; font-family: 'DejaVu Sans', 'Bitstream Vera Sans', 'Computer Modern Sans Serif', 'Lucida Grande', 'Verdana', 'Geneva', 'Lucid', 'Arial', 'Helvetica', 'Avant Garde', sans-serif; text-anchor: end; fill: var(--fg-color)" x="28.96" y="70.580664" transform="rotate(-0 28.96 70.580664)">100</text>
     </g>
    </g>
    <g id="ytick_4">
     <g id="line2d_13">
      <path d="M 35.96 50.622043 
L 211 50.622043 
" clip-path="url(#p52311bcc62)" style="fill: none; stroke-dasharray: 2.96,1.28; stroke-dashoffset: 0; stroke: var(--grid-color); stroke-width: 0.8"/>
     </g>
     <g id="line2d_14">
      <g>
       <use xlink:href="#m413cdf6b7c" x="35.96" y="50.622043" style="fill: var(--fg-color); stroke: var(--fg-color); stroke-width: 0.8"/>
      </g>
     </g>
     <g id="text_7">
      <text style="font-size: 7px; font-family: 'DejaVu Sans', 'Bitstream Vera Sans', 'Computer Modern Sans Serif', 'Lucida Grande', 'Verdana', 'Geneva', 'Lucid', 'Arial', 'Helvetica', 'Avant Garde', sans-serif; text-anchor: end; fill: var(--fg-color)" x="28.96" y="53.281223" transform="rotate(-0 28.96 53.281223)">120</text>
     </g>
    </g>
    <g id="ytick_5">
     <g id="line2d_15">
      <path d="M 35.96 33.322602 
L 211 33.322602 
" clip-path="url(#p52311bcc62)" style="fill: none; stroke-dasharray: 2.96,1.28; stroke-dashoffset: 0; stroke: var(--grid-color); stroke-width: 0.8"/>
     </g>
     <g id="line2d_16">
      <g>
       <use xlink:href="#m413cdf6b7c" x="35.96" y="33.322602" style="fill: var(--fg-color); stroke: var(--fg-color); stroke-width: 0.8"/>
      </g>
     </g>
     <g id="text_8">
      <text style="font-size: 7px; font-family: 'DejaVu Sans', 'Bitstream Vera Sans', 'Computer Modern Sans Serif', 'Lucida Grande', 'Verdana', 'Geneva', 'Lucid', 'Arial', 'Helvetica', 'Avant Garde', sans-serif; text-anchor: end; fill: var(--fg-color)" x="28.96" y="35.981782" transform="rotate(-0 28.96 35.981782)">140</text>
     </g>
    </g>
    <g id="ytick_6">
     <g id="line2d_17">
      <path d="M 35.96 16.023161 
L 211 16.023161 
" clip-path="url(#p52311bcc62)" style="fill: none; stroke-dasharray: 2.96,1.28; stroke-dashoffset: 0; stroke: var(--grid-color); stroke-width: 0.8"/>
     </g>
     <g id="line2d_18">
      <g>
       <use xlink:href="#m413cdf6b7c" x="35.96" y="16.023161" style="fill: var(--fg-color); stroke: var(--fg-color); stroke-width: 0.8"/>
      </g>
     </g>
     <g id="text_9">
      <text style="font-size: 7px; font-family: 'DejaVu Sans', 'Bitstream Vera Sans', 'Computer Modern Sans Serif', 'Lucida Grande', 'Verdana', 'Geneva', 'Lucid', 'Arial', 'Helvetica', 'Avant Garde', sans-serif; text-anchor: end; fill: var(--fg-color)" x="28.96" y="18.68234" transform="rotate(-0 28.96 18.68234)">160</text>
     </g>
    </g>
    <g id="text_10">
     <text style="font-size: 7px; font-family: 'DejaVu Sans', 'Bitstream Vera Sans', 'Computer Modern Sans Serif', 'Lucida Grande', 'Verdana', 'Geneva', 'Lucid', 'Arial', 'Helvetica', 'Avant Garde', sans-serif; text-anchor: middle; fill: var(--fg-color)" x="9.917109" y="54.2" transform="rotate(-90 9.917109 54.2)">ms</text>
    </g>
   </g>
   <g id="line2d_19">
    <path d="M 43.916364 76.254625 
L 44.494523 87.829681 
L 45.427166 92.504855 
L 46.359808 84.489159 
L 47.292453 72.986761 
L 48.22509 91.053432 
L 49.157727 81.715194 
L 50.090359 87.113484 
L 51.023007 95.108421 
L 51.95565 89.371061 
L 52.88829 88.612481 
L 53.82093 85.130103 
L 54.753566 82.671853 
L 55.686208 95.323799 
L 56.618849 80.496448 
L 57.551483 81.020621 
L 58.484126 86.821989 
L 59.416765 83.304147 
L 60.349406 78.226761 
L 61.282045 84.847258 
L 62.214684 90.436707 
L 63.147327 79.122007 
L 64.07996 93.721871 
L 65.012598 94.292752 
L 65.945245 76.922384 
L 66.877884 82.166709 
L 67.810526 76.929303 
L 68.743162 84.938945 
L 69.675784 90.457466 
L 70.608443 80.994672 
L 71.541078 86.259757 
L 72.473724 84.259942 
L 73.406361 84.966624 
L 74.339003 92.36646 
L 75.271637 73.138131 
L 76.204286 88.802775 
L 77.136912 90.50331 
L 78.069558 90.18327 
L 79.002199 85.669846 
L 79.934841 71.787909 
L 80.867465 82.882906 
L 81.800118 61.122804 
L 82.732742 82.077617 
L 83.665398 89.430744 
L 84.598038 90.416813 
L 85.53068 82.374302 
L 86.463316 74.112954 
L 87.395962 72.53957 
L 96.913595 85.210546 
L 97.655282 98.927273 
L 98.587939 86.781335 
L 99.520578 88.338285 
L 100.453222 69.826153 
L 101.385859 78.721525 
L 102.318497 87.383356 
L 103.251135 91.894185 
L 104.183773 81.496356 
L 105.116412 78.051172 
L 106.049054 81.693569 
L 106.981691 70.158302 
L 107.914333 83.606023 
L 108.846974 90.607106 
L 109.779613 86.527033 
L 110.71225 88.565772 
L 111.644893 84.610255 
L 112.57753 92.622491 
L 113.510173 71.829428 
L 114.442814 76.168128 
L 115.37545 81.328551 
L 116.308095 77.728537 
L 117.240726 84.375848 
L 118.173367 88.706763 
L 119.106014 83.562774 
L 120.038653 91.004129 
L 120.971293 84.950189 
L 121.903926 83.324907 
L 122.836569 68.270933 
L 123.769209 73.672683 
L 124.701847 74.163123 
L 125.634489 82.471179 
L 129.365046 87.757024 
L 130.297692 78.403216 
L 131.230328 86.271002 
L 132.162968 84.275511 
L 133.095609 78.844351 
L 134.028248 64.593937 
L 134.960891 65.476208 
L 135.893512 77.325461 
L 136.826165 83.846485 
L 137.75881 75.568702 
L 138.691446 78.841757 
L 139.624089 64.793745 
L 140.556726 74.380231 
L 141.489366 66.868813 
L 142.422003 88.081388 
L 143.354646 77.65761 
L 144.287298 74.324007 
L 145.219926 70.83644 
L 146.152567 67.699186 
L 147.085204 51.557943 
L 148.017844 75.79619 
L 148.950485 89.204122 
L 149.883123 78.628973 
L 150.815765 76.349772 
L 151.7484 75.742562 
L 179.727656 75.742562 
L 188.43171 61.135778 
L 189.054038 79.218019 
L 189.986678 74.996956 
L 190.919315 77.181875 
L 191.851955 78.721525 
L 192.7846 66.146562 
L 193.717237 84.332599 
L 194.649875 79.763817 
L 195.582513 86.62218 
L 196.515156 79.685969 
L 197.447798 73.901036 
L 198.380437 78.204272 
L 199.313081 85.284068 
L 200.245713 87.019202 
L 201.178356 69.334849 
L 202.110995 82.008419 
L 203.043636 71.380508 
" clip-path="url(#p52311bcc62)" style="fill: none; stroke: #339af0; stroke-width: 1.2; stroke-linecap: square"/>
   </g>
   <g id="line2d_20">
    <path d="M 43.916364 37.71666 
L 44.494523 42.294092 
L 45.427166 42.453247 
L 46.359808 37.888789 
L 47.292453 40.078034 
L 48.22509 39.10321 
L 49.157727 38.367119 
L 50.090359 35.861295 
L 51.023007 44.773102 
L 51.95565 39.432765 
L 52.88829 40.613451 
L 53.82093 36.62593 
L 54.753566 38.834204 
L 55.686208 39.508882 
L 56.618849 36.151061 
L 57.551483 37.070526 
L 58.484126 45.574066 
L 59.416765 36.237558 
L 60.349406 41.880635 
L 61.282045 44.242874 
L 62.214684 37.413055 
L 63.147327 39.867845 
L 64.07996 40.696489 
L 65.012598 43.389147 
L 65.945245 36.900991 
L 66.877884 43.925429 
L 67.810526 38.19153 
L 68.743162 44.883818 
L 69.675784 41.973187 
L 70.608443 36.198634 
L 71.541078 48.018477 
L 72.473724 30.548636 
L 73.406361 41.882365 
L 74.339003 43.405581 
L 75.271637 35.802477 
L 76.204286 42.988665 
L 77.136912 44.637301 
L 78.069558 44.98848 
L 79.002199 45.997037 
L 79.934841 37.656977 
L 80.867465 40.745792 
L 81.800118 39.917149 
L 82.732742 40.02873 
L 83.665398 39.988942 
L 84.598038 42.480061 
L 85.53068 42.443732 
L 86.463316 48.653367 
L 87.395962 45.010104 
L 96.913595 44.992805 
L 97.655282 39.279664 
L 98.587939 50.961977 
L 99.520578 40.701679 
L 100.453222 40.911002 
L 101.385859 42.254303 
L 102.318497 24.357166 
L 103.251135 33.506841 
L 104.183773 22.259609 
L 105.116412 31.085784 
L 106.049054 24.580329 
L 106.981691 22.987916 
L 107.914333 23.422997 
L 108.846974 29.118838 
L 109.779613 32.179974 
L 110.71225 34.415927 
L 111.644893 30.896355 
L 112.57753 30.161129 
L 113.510173 17.400196 
L 114.442814 20.23644 
L 115.37545 34.726452 
L 116.308095 26.894995 
L 117.240726 30.659353 
L 118.173367 26.58274 
L 119.106014 26.894995 
L 120.038653 32.61938 
L 120.971293 29.098078 
L 121.903926 34.530968 
L 122.836569 37.351642 
L 123.769209 30.187943 
L 124.701847 28.908649 
L 125.634489 29.915477 
L 129.365046 29.810815 
L 130.297692 29.501155 
L 131.230328 32.30453 
L 132.162968 28.864536 
L 133.095609 25.281822 
L 134.028248 32.436006 
L 134.960891 27.830029 
L 135.893512 33.135768 
L 136.826165 35.152883 
L 137.75881 25.116612 
L 138.691446 23.271627 
L 139.624089 18.869784 
L 140.556726 22.090075 
L 141.489366 25.063849 
L 142.422003 35.043031 
L 143.354646 29.911152 
L 144.287298 24.807817 
L 145.219926 26.016183 
L 146.152567 24.143518 
L 147.085204 20.193191 
L 148.017844 25.865678 
L 148.950485 31.83485 
L 149.883123 26.969382 
L 150.815765 27.908742 
L 151.7484 28.521142 
L 179.727656 28.521142 
L 188.43171 25.802535 
L 189.054038 27.265203 
L 189.986678 24.489507 
L 190.919315 30.368722 
L 191.851955 20.466522 
L 192.7846 27.669144 
L 193.717237 24.478263 
L 194.649875 27.205519 
L 195.582513 28.456269 
L 196.515156 9.472727 
L 197.447798 26.219451 
L 198.380437 23.93333 
L 199.313081 24.218771 
L 200.245713 29.254638 
L 201.178356 19.861042 
L 202.110995 26.42964 
L 203.043636 17.302454 
" clip-path="url(#p52311bcc62)" style="fill: none; stroke: #ff6b6b; stroke-width: 1.2; stroke-linecap: square"/>
   </g>
   <g id="patch_3">
    <path d="M 35.96 103.4 
L 35.96 5 
" style="fill: none; stroke: var(--fg-color); stroke-width: 0.8; stroke-linejoin: miter; stroke-linecap: square"/>
   </g>
   <g id="patch_4">
    <path d="M 35.96 103.4 
L 211 103.4 
" style="fill: none; stroke: var(--fg-color); stroke-width: 0.8; stroke-linejoin: miter; stroke-linecap: square"/>
   </g>
  </g>
 </g>
 <defs>
  <clipPath id="p52311bcc62">
   <rect x="35.96" y="5" width="175.04" height="98.4"/>
  </clipPath>
 </defs>
</svg>
