<?xml version="1.0" encoding="utf-8" standalone="no"?>
<!DOCTYPE svg PUBLIC "-//W3C//DTD SVG 1.1//EN"
  "http://www.w3.org/Graphics/SVG/1.1/DTD/svg11.dtd">
<svg xmlns:xlink="http://www.w3.org/1999/xlink" width="216pt" height="122.4pt" viewBox="0 0 216 122.4" xmlns="http://www.w3.org/2000/svg" version="1.1">
  <style>
    :root {
      --fg-color: #212529;
      --grid-color: rgba(33, 37, 41, 0.1);
    }
    @media (prefers-color-scheme: dark) {
      :root {
        --fg-color: #dee2e6;
        --grid-color: rgba(248, 249, 250, 0.15);
      }
    }
  </style>

 <metadata>
  <rdf:RDF xmlns:dc="http://purl.org/dc/elements/1.1/" xmlns:cc="http://creativecommons.org/ns#" xmlns:rdf="http://www.w3.org/1999/02/22-rdf-syntax-ns#">
   <cc:Work>
    <dc:type rdf:resource="http://purl.org/dc/dcmitype/StillImage"/>
    <dc:date>2026-06-30T04:48:27.345669</dc:date>
    <dc:format>image/svg+xml</dc:format>
    <dc:creator>
     <cc:Agent>
      <dc:title>Matplotlib v3.11.0, https://matplotlib.org/</dc:title>
     </cc:Agent>
    </dc:creator>
   </cc:Work>
  </rdf:RDF>
 </metadata>
 <defs>
  <style type="text/css">*{stroke-linejoin: round; stroke-linecap: butt}</style>
 </defs>
 <g id="figure_1">
  <g id="patch_1">
   <path d="M 0 122.4 
L 216 122.4 
L 216 0 
L 0 0 
L 0 122.4 
z
" style="fill: none; opacity: 0"/>
  </g>
  <g id="axes_1">
   <g id="patch_2">
    <path d="M 35.96 103.4 
L 211 103.4 
L 211 5 
L 35.96 5 
L 35.96 103.4 
z
" style="fill: none; opacity: 0"/>
   </g>
   <g id="matplotlib.axis_1">
    <g id="xtick_1">
     <g id="line2d_1">
      <path d="M 70.996911 103.4 
L 70.996911 5 
" clip-path="url(#p8c3285614f)" style="fill: none; stroke-dasharray: 2.96,1.28; stroke-dashoffset: 0; stroke: var(--grid-color); stroke-width: 0.8"/>
     </g>
     <g id="line2d_2">
      <defs>
       <path id="m5749ace74d" d="M 0 0 
L 0 3.5 
" style="stroke: var(--fg-color); stroke-width: 0.8"/>
      </defs>
      <g>
       <use xlink:href="#m5749ace74d" x="70.996911" y="103.4" style="fill: var(--fg-color); stroke: var(--fg-color); stroke-width: 0.8"/>
      </g>
     </g>
     <g id="text_1">
      <text style="font-size: 7px; font-family: 'DejaVu Sans', 'Bitstream Vera Sans', 'Computer Modern Sans Serif', 'Lucida Grande', 'Verdana', 'Geneva', 'Lucid', 'Arial', 'Helvetica', 'Avant Garde', sans-serif; text-anchor: middle; fill: var(--fg-color)" x="70.996911" y="115.718359" transform="rotate(-0 70.996911 115.718359)">02/2026</text>
     </g>
    </g>
    <g id="xtick_2">
     <g id="line2d_3">
      <path d="M 126.022656 103.4 
L 126.022656 5 
" clip-path="url(#p8c3285614f)" style="fill: none; stroke-dasharray: 2.96,1.28; stroke-dashoffset: 0; stroke: var(--grid-color); stroke-width: 0.8"/>
     </g>
     <g id="line2d_4">
      <g>
       <use xlink:href="#m5749ace74d" x="126.022656" y="103.4" style="fill: var(--fg-color); stroke: var(--fg-color); stroke-width: 0.8"/>
      </g>
     </g>
     <g id="text_2">
      <text style="font-size: 7px; font-family: 'DejaVu Sans', 'Bitstream Vera Sans', 'Computer Modern Sans Serif', 'Lucida Grande', 'Verdana', 'Geneva', 'Lucid', 'Arial', 'Helvetica', 'Avant Garde', sans-serif; text-anchor: middle; fill: var(--fg-color)" x="126.022656" y="115.718359" transform="rotate(-0 126.022656 115.718359)">04/2026</text>
     </g>
    </g>
    <g id="xtick_3">
     <g id="line2d_5">
      <path d="M 182.913681 103.4 
L 182.913681 5 
" clip-path="url(#p8c3285614f)" style="fill: none; stroke-dasharray: 2.96,1.28; stroke-dashoffset: 0; stroke: var(--grid-color); stroke-width: 0.8"/>
     </g>
     <g id="line2d_6">
      <g>
       <use xlink:href="#m5749ace74d" x="182.913681" y="103.4" style="fill: var(--fg-color); stroke: var(--fg-color); stroke-width: 0.8"/>
      </g>
     </g>
     <g id="text_3">
      <text style="font-size: 7px; font-family: 'DejaVu Sans', 'Bitstream Vera Sans', 'Computer Modern Sans Serif', 'Lucida Grande', 'Verdana', 'Geneva', 'Lucid', 'Arial', 'Helvetica', 'Avant Garde', sans-serif; text-anchor: middle; fill: var(--fg-color)" x="182.913681" y="115.718359" transform="rotate(-0 182.913681 115.718359)">06/2026</text>
     </g>
    </g>
   </g>
   <g id="matplotlib.axis_2">
    <g id="ytick_1">
     <g id="line2d_7">
      <path d="M 35.96 99.994445 
L 211 99.994445 
" clip-path="url(#p8c3285614f)" style="fill: none; stroke-dasharray: 2.96,1.28; stroke-dashoffset: 0; stroke: var(--grid-color); stroke-width: 0.8"/>
     </g>
     <g id="line2d_8">
      <defs>
       <path id="m405ad96975" d="M 0 0 
L -3.5 0 
" style="stroke: var(--fg-color); stroke-width: 0.8"/>
      </defs>
      <g>
       <use xlink:href="#m405ad96975" x="35.96" y="99.994445" style="fill: var(--fg-color); stroke: var(--fg-color); stroke-width: 0.8"/>
      </g>
     </g>
     <g id="text_4">
      <text style="font-size: 7px; font-family: 'DejaVu Sans', 'Bitstream Vera Sans', 'Computer Modern Sans Serif', 'Lucida Grande', 'Verdana', 'Geneva', 'Lucid', 'Arial', 'Helvetica', 'Avant Garde', sans-serif; text-anchor: end; fill: var(--fg-color)" x="28.96" y="102.653625" transform="rotate(-0 28.96 102.653625)">0</text>
     </g>
    </g>
    <g id="ytick_2">
     <g id="line2d_9">
      <path d="M 35.96 78.036159 
L 211 78.036159 
" clip-path="url(#p8c3285614f)" style="fill: none; stroke-dasharray: 2.96,1.28; stroke-dashoffset: 0; stroke: var(--grid-color); stroke-width: 0.8"/>
     </g>
     <g id="line2d_10">
      <g>
       <use xlink:href="#m405ad96975" x="35.96" y="78.036159" style="fill: var(--fg-color); stroke: var(--fg-color); stroke-width: 0.8"/>
      </g>
     </g>
     <g id="text_5">
      <text style="font-size: 7px; font-family: 'DejaVu Sans', 'Bitstream Vera Sans', 'Computer Modern Sans Serif', 'Lucida Grande', 'Verdana', 'Geneva', 'Lucid', 'Arial', 'Helvetica', 'Avant Garde', sans-serif; text-anchor: end; fill: var(--fg-color)" x="28.96" y="80.695339" transform="rotate(-0 28.96 80.695339)">50</text>
     </g>
    </g>
    <g id="ytick_3">
     <g id="line2d_11">
      <path d="M 35.96 56.077873 
L 211 56.077873 
" clip-path="url(#p8c3285614f)" style="fill: none; stroke-dasharray: 2.96,1.28; stroke-dashoffset: 0; stroke: var(--grid-color); stroke-width: 0.8"/>
     </g>
     <g id="line2d_12">
      <g>
       <use xlink:href="#m405ad96975" x="35.96" y="56.077873" style="fill: var(--fg-color); stroke: var(--fg-color); stroke-width: 0.8"/>
      </g>
     </g>
     <g id="text_6">
      <text style="font-size: 7px; font-family: 'DejaVu Sans', 'Bitstream Vera Sans', 'Computer Modern Sans Serif', 'Lucida Grande', 'Verdana', 'Geneva', 'Lucid', 'Arial', 'Helvetica', 'Avant Garde', sans-serif; text-anchor: end; fill: var(--fg-color)" x="28.96" y="58.737052" transform="rotate(-0 28.96 58.737052)">100</text>
     </g>
    </g>
    <g id="ytick_4">
     <g id="line2d_13">
      <path d="M 35.96 34.119586 
L 211 34.119586 
" clip-path="url(#p8c3285614f)" style="fill: none; stroke-dasharray: 2.96,1.28; stroke-dashoffset: 0; stroke: var(--grid-color); stroke-width: 0.8"/>
     </g>
     <g id="line2d_14">
      <g>
       <use xlink:href="#m405ad96975" x="35.96" y="34.119586" style="fill: var(--fg-color); stroke: var(--fg-color); stroke-width: 0.8"/>
      </g>
     </g>
     <g id="text_7">
      <text style="font-size: 7px; font-family: 'DejaVu Sans', 'Bitstream Vera Sans', 'Computer Modern Sans Serif', 'Lucida Grande', 'Verdana', 'Geneva', 'Lucid', 'Arial', 'Helvetica', 'Avant Garde', sans-serif; text-anchor: end; fill: var(--fg-color)" x="28.96" y="36.778766" transform="rotate(-0 28.96 36.778766)">150</text>
     </g>
    </g>
    <g id="ytick_5">
     <g id="line2d_15">
      <path d="M 35.96 12.1613 
L 211 12.1613 
" clip-path="url(#p8c3285614f)" style="fill: none; stroke-dasharray: 2.96,1.28; stroke-dashoffset: 0; stroke: var(--grid-color); stroke-width: 0.8"/>
     </g>
     <g id="line2d_16">
      <g>
       <use xlink:href="#m405ad96975" x="35.96" y="12.1613" style="fill: var(--fg-color); stroke: var(--fg-color); stroke-width: 0.8"/>
      </g>
     </g>
     <g id="text_8">
      <text style="font-size: 7px; font-family: 'DejaVu Sans', 'Bitstream Vera Sans', 'Computer Modern Sans Serif', 'Lucida Grande', 'Verdana', 'Geneva', 'Lucid', 'Arial', 'Helvetica', 'Avant Garde', sans-serif; text-anchor: end; fill: var(--fg-color)" x="28.96" y="14.82048" transform="rotate(-0 28.96 14.82048)">200</text>
     </g>
    </g>
    <g id="text_9">
     <text style="font-size: 7px; font-family: 'DejaVu Sans', 'Bitstream Vera Sans', 'Computer Modern Sans Serif', 'Lucida Grande', 'Verdana', 'Geneva', 'Lucid', 'Arial', 'Helvetica', 'Avant Garde', sans-serif; text-anchor: middle; fill: var(--fg-color)" x="9.917109" y="54.2" transform="rotate(-90 9.917109 54.2)">ms</text>
    </g>
   </g>
   <g id="line2d_17">
    <path d="M 43.916364 81.619312 
L 44.494523 81.72032 
L 45.427166 81.727786 
L 46.359808 79.713333 
L 47.292453 81.158627 
L 48.22509 80.987353 
L 49.157727 82.25742 
L 50.090359 79.845961 
L 51.023007 81.681674 
L 51.95565 83.258279 
L 52.88829 78.812165 
L 53.82093 80.025141 
L 54.753566 80.500757 
L 55.686208 81.223185 
L 56.618849 79.400208 
L 57.551483 82.591625 
L 58.484126 81.663229 
L 59.416765 79.282951 
L 60.349406 80.86263 
L 61.282045 68.572138 
L 62.214684 81.073868 
L 63.147327 81.892034 
L 64.07996 81.529722 
L 65.012598 79.860014 
L 65.945245 80.234184 
L 66.877884 82.428255 
L 67.810526 79.519222 
L 68.743162 79.609251 
L 69.675784 80.507345 
L 70.608443 78.980805 
L 71.541078 73.214119 
L 72.473724 80.937288 
L 73.406361 79.580266 
L 74.339003 79.795457 
L 75.271637 81.828355 
L 76.204286 79.905248 
L 77.136912 77.505208 
L 78.069558 81.123494 
L 79.002199 81.228016 
L 79.934841 79.582901 
L 80.867465 80.7625 
L 81.800118 78.562719 
L 82.732742 80.590347 
L 83.665398 77.597872 
L 84.598038 80.829253 
L 85.53068 81.257879 
L 86.463316 81.805958 
L 87.395962 81.033026 
L 96.913595 79.281194 
L 97.655282 80.048416 
L 98.587939 79.094548 
L 99.520578 78.644843 
L 100.453222 62.053162 
L 101.385859 82.84195 
L 102.318497 77.428354 
L 103.251135 74.106943 
L 104.183773 77.117864 
L 105.116412 78.644404 
L 106.049054 77.434063 
L 106.981691 77.608851 
L 107.914333 77.583379 
L 108.846974 73.439411 
L 109.779613 74.994936 
L 110.71225 75.225938 
L 111.644893 76.957129 
L 112.57753 78.641329 
L 113.510173 73.997591 
L 114.442814 75.355931 
L 115.37545 75.009429 
L 116.308095 66.50191 
L 117.240726 78.936449 
L 118.173367 77.178468 
L 119.106014 78.19338 
L 120.038653 77.0353 
L 120.971293 75.763037 
L 121.903926 75.38272 
L 122.836569 77.973358 
L 123.769209 75.882929 
L 124.701847 76.020828 
L 125.634489 78.712035 
L 129.365046 77.130599 
L 130.297692 75.997113 
L 131.230328 75.580344 
L 132.162968 75.140739 
L 133.095609 77.90397 
L 134.028248 76.591743 
L 134.960891 62.819945 
L 135.893512 74.496922 
L 136.826165 76.634342 
L 137.75881 77.225459 
L 138.691446 78.097203 
L 139.624089 76.861391 
L 140.556726 75.944852 
L 141.489366 76.436717 
L 142.422003 77.547368 
L 143.354646 75.605377 
L 144.287298 76.183319 
L 145.219926 76.071771 
L 146.152567 76.295306 
L 147.085204 74.622524 
L 148.017844 77.418253 
L 148.950485 76.667279 
L 149.883123 77.00368 
L 150.815765 74.197851 
L 151.7484 74.989666 
L 179.727656 74.989666 
L 188.43171 9.472727 
L 189.054038 57.866595 
L 189.986678 72.416155 
L 190.919315 76.131058 
L 191.851955 76.222405 
L 192.7846 77.902653 
L 193.717237 75.976472 
L 194.649875 77.403321 
L 195.582513 75.343195 
L 196.515156 76.489857 
L 197.447798 76.55134 
L 198.380437 78.321617 
L 199.313081 75.687501 
L 200.245713 73.686223 
L 201.178356 67.94457 
L 202.110995 76.150381 
L 203.043636 75.21408 
" clip-path="url(#p8c3285614f)" style="fill: none; stroke: #339af0; stroke-width: 1.2; stroke-linecap: square"/>
   </g>
   <g id="line2d_18">
    <path d="M 43.916364 98.850419 
L 44.494523 98.797719 
L 45.427166 98.859202 
L 46.359808 98.841635 
L 47.292453 98.829778 
L 48.22509 98.853493 
L 49.157727 98.80255 
L 50.090359 98.753802 
L 51.023007 98.87633 
L 51.95565 98.899166 
L 52.88829 98.811333 
L 53.82093 98.759511 
L 54.753566 98.767416 
L 55.686208 98.825825 
L 56.618849 98.803867 
L 57.551483 98.87106 
L 58.484126 98.265889 
L 59.416765 98.833291 
L 60.349406 98.811333 
L 61.282045 98.84471 
L 62.214684 98.848223 
L 63.147327 98.815725 
L 64.07996 98.835487 
L 65.012598 98.785422 
L 65.945245 98.813968 
L 66.877884 98.814846 
L 67.810526 98.635228 
L 68.743162 98.784105 
L 69.675784 98.511822 
L 70.608443 98.820995 
L 71.541078 98.719987 
L 72.473724 98.845588 
L 73.406361 98.822312 
L 74.339003 98.86579 
L 75.271637 98.862715 
L 76.204286 98.782348 
L 77.136912 98.838561 
L 78.069558 98.825825 
L 79.002199 98.856567 
L 79.934841 98.815285 
L 80.867465 98.877208 
L 81.800118 98.80738 
L 82.732742 98.780152 
L 83.665398 98.861398 
L 84.598038 98.761268 
L 85.53068 98.785422 
L 86.463316 98.888187 
L 87.395962 98.82846 
L 96.913595 98.808698 
L 97.655282 98.83417 
L 98.587939 98.73931 
L 99.520578 98.441995 
L 100.453222 98.80255 
L 101.385859 98.927273 
L 102.318497 98.766099 
L 103.251135 98.785861 
L 104.183773 98.167516 
L 105.116412 98.468345 
L 106.049054 98.819238 
L 106.981691 98.800793 
L 107.914333 98.851736 
L 108.846974 98.568474 
L 109.779613 98.731405 
L 110.71225 98.80782 
L 111.644893 98.789375 
L 112.57753 98.862276 
L 113.510173 98.462196 
L 114.442814 98.736675 
L 115.37545 98.822312 
L 116.308095 98.735357 
L 117.240726 98.853932 
L 118.173367 98.836805 
L 119.106014 98.812211 
L 120.038653 98.788936 
L 120.971293 98.733601 
L 121.903926 98.019078 
L 122.836569 98.805185 
L 123.769209 98.729209 
L 124.701847 98.031375 
L 125.634489 98.783226 
L 129.365046 98.335716 
L 130.297692 98.057725 
L 131.230328 98.674313 
L 132.162968 98.709886 
L 133.095609 98.790253 
L 134.028248 98.803428 
L 134.960891 98.719547 
L 135.893512 98.691002 
L 136.826165 98.745458 
L 137.75881 98.484155 
L 138.691446 98.755998 
L 139.624089 98.447265 
L 140.556726 97.967696 
L 141.489366 98.682218 
L 142.422003 98.705933 
L 143.354646 98.062995 
L 144.287298 98.724378 
L 145.219926 98.276868 
L 146.152567 98.027861 
L 147.085204 98.696711 
L 148.017844 98.255349 
L 148.950485 98.759511 
L 149.883123 98.146436 
L 150.815765 98.671678 
L 151.7484 98.701542 
L 179.727656 98.701542 
L 188.43171 98.748971 
L 189.054038 97.904895 
L 189.986678 98.507869 
L 190.919315 98.652355 
L 191.851955 98.568035 
L 192.7846 98.681779 
L 193.717237 98.575501 
L 194.649875 98.638741 
L 195.582513 98.584723 
L 196.515156 98.64445 
L 197.447798 98.693637 
L 198.380437 98.721304 
L 199.313081 98.660699 
L 200.245713 98.673435 
L 201.178356 98.582967 
L 202.110995 98.683097 
L 203.043636 97.924218 
" clip-path="url(#p8c3285614f)" style="fill: none; stroke: #ff6b6b; stroke-width: 1.2; stroke-linecap: square"/>
   </g>
   <g id="patch_3">
    <path d="M 35.96 103.4 
L 35.96 5 
" style="fill: none; stroke: var(--fg-color); stroke-width: 0.8; stroke-linejoin: miter; stroke-linecap: square"/>
   </g>
   <g id="patch_4">
    <path d="M 35.96 103.4 
L 211 103.4 
" style="fill: none; stroke: var(--fg-color); stroke-width: 0.8; stroke-linejoin: miter; stroke-linecap: square"/>
   </g>
  </g>
 </g>
 <defs>
  <clipPath id="p8c3285614f">
   <rect x="35.96" y="5" width="175.04" height="98.4"/>
  </clipPath>
 </defs>
</svg>
