<?xml version="1.0" encoding="utf-8" standalone="no"?>
<!DOCTYPE svg PUBLIC "-//W3C//DTD SVG 1.1//EN"
  "http://www.w3.org/Graphics/SVG/1.1/DTD/svg11.dtd">
<svg xmlns:xlink="http://www.w3.org/1999/xlink" width="216pt" height="122.4pt" viewBox="0 0 216 122.4" xmlns="http://www.w3.org/2000/svg" version="1.1">
  <style>
    :root {
      --fg-color: #212529;
      --grid-color: rgba(33, 37, 41, 0.1);
    }
    @media (prefers-color-scheme: dark) {
      :root {
        --fg-color: #dee2e6;
        --grid-color: rgba(248, 249, 250, 0.15);
      }
    }
  </style>

 <metadata>
  <rdf:RDF xmlns:dc="http://purl.org/dc/elements/1.1/" xmlns:cc="http://creativecommons.org/ns#" xmlns:rdf="http://www.w3.org/1999/02/22-rdf-syntax-ns#">
   <cc:Work>
    <dc:type rdf:resource="http://purl.org/dc/dcmitype/StillImage"/>
    <dc:date>2026-06-30T04:49:05.659277</dc:date>
    <dc:format>image/svg+xml</dc:format>
    <dc:creator>
     <cc:Agent>
      <dc:title>Matplotlib v3.11.0, https://matplotlib.org/</dc:title>
     </cc:Agent>
    </dc:creator>
   </cc:Work>
  </rdf:RDF>
 </metadata>
 <defs>
  <style type="text/css">*{stroke-linejoin: round; stroke-linecap: butt}</style>
 </defs>
 <g id="figure_1">
  <g id="patch_1">
   <path d="M 0 122.4 
L 216 122.4 
L 216 0 
L 0 0 
L 0 122.4 
z
" style="fill: none; opacity: 0"/>
  </g>
  <g id="axes_1">
   <g id="patch_2">
    <path d="M 35.96 103.4 
L 211 103.4 
L 211 5 
L 35.96 5 
L 35.96 103.4 
z
" style="fill: none; opacity: 0"/>
   </g>
   <g id="matplotlib.axis_1">
    <g id="xtick_1">
     <g id="line2d_1">
      <path d="M 72.056377 103.4 
L 72.056377 5 
" clip-path="url(#p453a654d50)" style="fill: none; stroke-dasharray: 2.96,1.28; stroke-dashoffset: 0; stroke: var(--grid-color); stroke-width: 0.8"/>
     </g>
     <g id="line2d_2">
      <defs>
       <path id="m2c0b1d6bb2" d="M 0 0 
L 0 3.5 
" style="stroke: var(--fg-color); stroke-width: 0.8"/>
      </defs>
      <g>
       <use xlink:href="#m2c0b1d6bb2" x="72.056377" y="103.4" style="fill: var(--fg-color); stroke: var(--fg-color); stroke-width: 0.8"/>
      </g>
     </g>
     <g id="text_1">
      <text style="font-size: 7px; font-family: 'DejaVu Sans', 'Bitstream Vera Sans', 'Computer Modern Sans Serif', 'Lucida Grande', 'Verdana', 'Geneva', 'Lucid', 'Arial', 'Helvetica', 'Avant Garde', sans-serif; text-anchor: middle; fill: var(--fg-color)" x="72.056377" y="115.718359" transform="rotate(-0 72.056377 115.718359)">02/2026</text>
     </g>
    </g>
    <g id="xtick_2">
     <g id="line2d_3">
      <path d="M 126.640628 103.4 
L 126.640628 5 
" clip-path="url(#p453a654d50)" style="fill: none; stroke-dasharray: 2.96,1.28; stroke-dashoffset: 0; stroke: var(--grid-color); stroke-width: 0.8"/>
     </g>
     <g id="line2d_4">
      <g>
       <use xlink:href="#m2c0b1d6bb2" x="126.640628" y="103.4" style="fill: var(--fg-color); stroke: var(--fg-color); stroke-width: 0.8"/>
      </g>
     </g>
     <g id="text_2">
      <text style="font-size: 7px; font-family: 'DejaVu Sans', 'Bitstream Vera Sans', 'Computer Modern Sans Serif', 'Lucida Grande', 'Verdana', 'Geneva', 'Lucid', 'Arial', 'Helvetica', 'Avant Garde', sans-serif; text-anchor: middle; fill: var(--fg-color)" x="126.640628" y="115.718359" transform="rotate(-0 126.640628 115.718359)">04/2026</text>
     </g>
    </g>
    <g id="xtick_3">
     <g id="line2d_5">
      <path d="M 183.075192 103.4 
L 183.075192 5 
" clip-path="url(#p453a654d50)" style="fill: none; stroke-dasharray: 2.96,1.28; stroke-dashoffset: 0; stroke: var(--grid-color); stroke-width: 0.8"/>
     </g>
     <g id="line2d_6">
      <g>
       <use xlink:href="#m2c0b1d6bb2" x="183.075192" y="103.4" style="fill: var(--fg-color); stroke: var(--fg-color); stroke-width: 0.8"/>
      </g>
     </g>
     <g id="text_3">
      <text style="font-size: 7px; font-family: 'DejaVu Sans', 'Bitstream Vera Sans', 'Computer Modern Sans Serif', 'Lucida Grande', 'Verdana', 'Geneva', 'Lucid', 'Arial', 'Helvetica', 'Avant Garde', sans-serif; text-anchor: middle; fill: var(--fg-color)" x="183.075192" y="115.718359" transform="rotate(-0 183.075192 115.718359)">06/2026</text>
     </g>
    </g>
   </g>
   <g id="matplotlib.axis_2">
    <g id="ytick_1">
     <g id="line2d_7">
      <path d="M 35.96 100.199256 
L 211 100.199256 
" clip-path="url(#p453a654d50)" style="fill: none; stroke-dasharray: 2.96,1.28; stroke-dashoffset: 0; stroke: var(--grid-color); stroke-width: 0.8"/>
     </g>
     <g id="line2d_8">
      <defs>
       <path id="mdf1a5d0de3" d="M 0 0 
L -3.5 0 
" style="stroke: var(--fg-color); stroke-width: 0.8"/>
      </defs>
      <g>
       <use xlink:href="#mdf1a5d0de3" x="35.96" y="100.199256" style="fill: var(--fg-color); stroke: var(--fg-color); stroke-width: 0.8"/>
      </g>
     </g>
     <g id="text_4">
      <text style="font-size: 7px; font-family: 'DejaVu Sans', 'Bitstream Vera Sans', 'Computer Modern Sans Serif', 'Lucida Grande', 'Verdana', 'Geneva', 'Lucid', 'Arial', 'Helvetica', 'Avant Garde', sans-serif; text-anchor: end; fill: var(--fg-color)" x="28.96" y="102.858435" transform="rotate(-0 28.96 102.858435)">0</text>
     </g>
    </g>
    <g id="ytick_2">
     <g id="line2d_9">
      <path d="M 35.96 82.991693 
L 211 82.991693 
" clip-path="url(#p453a654d50)" style="fill: none; stroke-dasharray: 2.96,1.28; stroke-dashoffset: 0; stroke: var(--grid-color); stroke-width: 0.8"/>
     </g>
     <g id="line2d_10">
      <g>
       <use xlink:href="#mdf1a5d0de3" x="35.96" y="82.991693" style="fill: var(--fg-color); stroke: var(--fg-color); stroke-width: 0.8"/>
      </g>
     </g>
     <g id="text_5">
      <text style="font-size: 7px; font-family: 'DejaVu Sans', 'Bitstream Vera Sans', 'Computer Modern Sans Serif', 'Lucida Grande', 'Verdana', 'Geneva', 'Lucid', 'Arial', 'Helvetica', 'Avant Garde', sans-serif; text-anchor: end; fill: var(--fg-color)" x="28.96" y="85.650873" transform="rotate(-0 28.96 85.650873)">25</text>
     </g>
    </g>
    <g id="ytick_3">
     <g id="line2d_11">
      <path d="M 35.96 65.784131 
L 211 65.784131 
" clip-path="url(#p453a654d50)" style="fill: none; stroke-dasharray: 2.96,1.28; stroke-dashoffset: 0; stroke: var(--grid-color); stroke-width: 0.8"/>
     </g>
     <g id="line2d_12">
      <g>
       <use xlink:href="#mdf1a5d0de3" x="35.96" y="65.784131" style="fill: var(--fg-color); stroke: var(--fg-color); stroke-width: 0.8"/>
      </g>
     </g>
     <g id="text_6">
      <text style="font-size: 7px; font-family: 'DejaVu Sans', 'Bitstream Vera Sans', 'Computer Modern Sans Serif', 'Lucida Grande', 'Verdana', 'Geneva', 'Lucid', 'Arial', 'Helvetica', 'Avant Garde', sans-serif; text-anchor: end; fill: var(--fg-color)" x="28.96" y="68.443311" transform="rotate(-0 28.96 68.443311)">50</text>
     </g>
    </g>
    <g id="ytick_4">
     <g id="line2d_13">
      <path d="M 35.96 48.576569 
L 211 48.576569 
" clip-path="url(#p453a654d50)" style="fill: none; stroke-dasharray: 2.96,1.28; stroke-dashoffset: 0; stroke: var(--grid-color); stroke-width: 0.8"/>
     </g>
     <g id="line2d_14">
      <g>
       <use xlink:href="#mdf1a5d0de3" x="35.96" y="48.576569" style="fill: var(--fg-color); stroke: var(--fg-color); stroke-width: 0.8"/>
      </g>
     </g>
     <g id="text_7">
      <text style="font-size: 7px; font-family: 'DejaVu Sans', 'Bitstream Vera Sans', 'Computer Modern Sans Serif', 'Lucida Grande', 'Verdana', 'Geneva', 'Lucid', 'Arial', 'Helvetica', 'Avant Garde', sans-serif; text-anchor: end; fill: var(--fg-color)" x="28.96" y="51.235748" transform="rotate(-0 28.96 51.235748)">75</text>
     </g>
    </g>
    <g id="ytick_5">
     <g id="line2d_15">
      <path d="M 35.96 31.369006 
L 211 31.369006 
" clip-path="url(#p453a654d50)" style="fill: none; stroke-dasharray: 2.96,1.28; stroke-dashoffset: 0; stroke: var(--grid-color); stroke-width: 0.8"/>
     </g>
     <g id="line2d_16">
      <g>
       <use xlink:href="#mdf1a5d0de3" x="35.96" y="31.369006" style="fill: var(--fg-color); stroke: var(--fg-color); stroke-width: 0.8"/>
      </g>
     </g>
     <g id="text_8">
      <text style="font-size: 7px; font-family: 'DejaVu Sans', 'Bitstream Vera Sans', 'Computer Modern Sans Serif', 'Lucida Grande', 'Verdana', 'Geneva', 'Lucid', 'Arial', 'Helvetica', 'Avant Garde', sans-serif; text-anchor: end; fill: var(--fg-color)" x="28.96" y="34.028186" transform="rotate(-0 28.96 34.028186)">100</text>
     </g>
    </g>
    <g id="ytick_6">
     <g id="line2d_17">
      <path d="M 35.96 14.161444 
L 211 14.161444 
" clip-path="url(#p453a654d50)" style="fill: none; stroke-dasharray: 2.96,1.28; stroke-dashoffset: 0; stroke: var(--grid-color); stroke-width: 0.8"/>
     </g>
     <g id="line2d_18">
      <g>
       <use xlink:href="#mdf1a5d0de3" x="35.96" y="14.161444" style="fill: var(--fg-color); stroke: var(--fg-color); stroke-width: 0.8"/>
      </g>
     </g>
     <g id="text_9">
      <text style="font-size: 7px; font-family: 'DejaVu Sans', 'Bitstream Vera Sans', 'Computer Modern Sans Serif', 'Lucida Grande', 'Verdana', 'Geneva', 'Lucid', 'Arial', 'Helvetica', 'Avant Garde', sans-serif; text-anchor: end; fill: var(--fg-color)" x="28.96" y="16.820624" transform="rotate(-0 28.96 16.820624)">125</text>
     </g>
    </g>
    <g id="text_10">
     <text style="font-size: 7px; font-family: 'DejaVu Sans', 'Bitstream Vera Sans', 'Computer Modern Sans Serif', 'Lucida Grande', 'Verdana', 'Geneva', 'Lucid', 'Arial', 'Helvetica', 'Avant Garde', sans-serif; text-anchor: middle; fill: var(--fg-color)" x="9.917109" y="54.2" transform="rotate(-90 9.917109 54.2)">ms</text>
    </g>
   </g>
   <g id="line2d_19">
    <path d="M 43.916364 31.710404 
L 45.193108 33.123489 
L 45.766628 40.007891 
L 46.691788 37.914075 
L 47.616947 37.34829 
L 48.542109 31.276774 
L 49.467263 36.081813 
L 50.392418 30.377162 
L 51.317566 35.521535 
L 52.242732 41.233758 
L 53.167891 37.28359 
L 54.093049 35.014256 
L 55.018206 36.019178 
L 55.943359 38.442003 
L 56.868517 38.130202 
L 57.793676 30.894078 
L 58.718827 36.949763 
L 59.643987 40.082228 
L 60.569143 37.706207 
L 61.494301 39.321653 
L 62.419457 38.136396 
L 63.344613 34.367252 
L 64.269773 35.976503 
L 65.194924 39.212213 
L 66.120079 41.556571 
L 67.045243 36.644845 
L 67.970398 36.572573 
L 68.895557 39.24594 
L 69.82071 39.534339 
L 70.74585 29.46172 
L 71.671025 26.243906 
L 72.596178 38.473665 
L 73.521341 34.670793 
L 74.446495 31.324267 
L 75.371653 40.425002 
L 76.296805 33.525458 
L 77.221971 39.336796 
L 78.147114 38.450951 
L 79.072277 37.306992 
L 79.997435 34.294292 
L 80.922594 37.188604 
L 81.847735 41.156668 
L 82.772905 31.989167 
L 83.698046 39.791764 
L 84.623219 38.668454 
L 85.548376 40.42982 
L 86.473535 34.497341 
L 87.398688 40.014774 
L 88.323852 37.107384 
L 97.76512 30.354448 
L 98.500856 29.358475 
L 99.426031 31.827416 
L 100.351186 25.29336 
L 101.276348 38.100605 
L 102.201502 38.417224 
L 103.126656 37.295979 
L 104.051812 43.102499 
L 104.976967 38.27681 
L 105.902123 35.262733 
L 106.827282 41.496689 
L 107.752435 40.884788 
L 108.677594 42.346743 
L 109.602753 37.580936 
L 110.527909 38.737973 
L 111.453063 41.56139 
L 112.378223 36.755662 
L 113.303377 36.9711 
L 114.228537 37.37651 
L 115.153695 35.843661 
L 116.078848 37.360679 
L 117.004011 37.028229 
L 117.929158 39.346432 
L 118.854316 38.216928 
L 119.779481 42.306821 
L 120.704637 34.998425 
L 121.629794 9.472727 
L 122.554943 38.211421 
L 123.480104 34.988101 
L 124.405261 38.963048 
L 125.330416 36.020555 
L 126.255574 35.699806 
L 129.9562 34.620547 
L 130.881363 41.261978 
L 131.806516 34.674923 
L 132.731673 35.830583 
L 133.656831 29.800365 
L 134.581987 37.332459 
L 135.507147 37.770219 
L 136.432285 37.302862 
L 137.357455 38.766881 
L 138.282617 30.30902 
L 139.20777 36.251824 
L 140.13293 33.240501 
L 141.058084 27.169673 
L 141.983242 28.76034 
L 142.908395 34.415433 
L 143.833556 34.63156 
L 144.758724 31.632626 
L 145.683869 29.38463 
L 146.609028 38.338069 
L 147.534182 31.145996 
L 148.459339 35.233825 
L 149.384497 35.4589 
L 150.309651 35.463029 
L 151.234811 29.288956 
L 152.159963 36.292434 
L 179.91473 36.292434 
L 188.548948 37.16589 
L 189.166282 31.611977 
L 190.091439 35.513276 
L 191.016594 31.362812 
L 191.94175 25.972026 
L 192.866913 32.384252 
L 193.792066 35.639923 
L 194.717222 33.618379 
L 195.642377 34.300487 
L 196.567536 32.680222 
L 197.492695 28.266827 
L 198.417852 34.862141 
L 199.343013 30.343436 
L 200.268162 34.433329 
L 201.193322 33.986621 
L 202.118478 30.991128 
L 203.043636 31.849441 
" clip-path="url(#p453a654d50)" style="fill: none; stroke: #339af0; stroke-width: 1.2; stroke-linecap: square"/>
   </g>
   <g id="line2d_20">
    <path d="M 43.916364 98.817144 
L 45.193108 98.76208 
L 45.766628 98.901117 
L 46.691788 98.804067 
L 47.616947 98.758639 
L 48.542109 98.687055 
L 49.467263 98.601706 
L 50.392418 98.80682 
L 51.317566 98.812326 
L 52.242732 98.893546 
L 53.167891 98.897676 
L 54.093049 98.904559 
L 55.018206 98.700821 
L 55.943359 98.879092 
L 56.868517 98.902494 
L 57.793676 98.819209 
L 58.718827 98.882533 
L 59.643987 98.840547 
L 60.569143 98.278203 
L 61.494301 98.821962 
L 62.419457 98.79856 
L 63.344613 98.784106 
L 64.269773 98.76621 
L 65.194924 98.914883 
L 66.120079 98.91626 
L 67.045243 98.804755 
L 67.970398 98.890793 
L 68.895557 98.828157 
L 69.82071 98.872209 
L 70.74585 98.505343 
L 71.671025 98.829534 
L 72.596178 98.909377 
L 73.521341 98.724223 
L 74.446495 98.625796 
L 75.371653 98.890793 
L 76.296805 98.84743 
L 77.221971 98.8433 
L 78.147114 98.889416 
L 79.072277 98.870144 
L 79.997435 98.807508 
L 80.922594 98.826781 
L 81.847735 98.888039 
L 82.772905 98.515668 
L 83.698046 98.87152 
L 84.623219 98.899052 
L 85.548376 98.881845 
L 86.473535 98.874962 
L 87.398688 98.923143 
L 88.323852 98.857066 
L 97.76512 98.813703 
L 98.500856 98.908 
L 99.426031 98.904559 
L 100.351186 98.689808 
L 101.276348 98.812326 
L 102.201502 98.905935 
L 103.126656 97.772989 
L 104.051812 98.927273 
L 104.976967 98.894923 
L 105.902123 98.841235 
L 106.827282 98.831599 
L 107.752435 98.919013 
L 108.677594 98.834352 
L 109.602753 98.799937 
L 110.527909 98.901117 
L 111.453063 98.872897 
L 112.378223 98.667783 
L 113.303377 98.855001 
L 114.228537 98.839858 
L 115.153695 98.746937 
L 116.078848 98.708393 
L 117.004011 98.892169 
L 117.929158 98.862572 
L 118.854316 98.888728 
L 119.779481 98.915572 
L 120.704637 98.853624 
L 121.629794 98.306424 
L 122.554943 98.762768 
L 123.480104 98.788924 
L 124.405261 98.795807 
L 125.330416 98.876338 
L 126.255574 98.855001 
L 129.9562 98.654017 
L 130.881363 98.843988 
L 131.806516 98.819209 
L 132.731673 98.773093 
L 133.656831 98.681549 
L 134.581987 98.69325 
L 135.507147 98.73386 
L 136.432285 98.810261 
L 137.357455 98.828845 
L 138.282617 98.754509 
L 139.20777 98.815768 
L 140.13293 98.475058 
L 141.058084 98.508785 
L 141.983242 98.718717 
L 142.908395 98.816456 
L 143.833556 98.83917 
L 144.758724 98.789612 
L 145.683869 98.813703 
L 146.609028 98.80269 
L 147.534182 98.812326 
L 148.459339 98.828845 
L 149.384497 98.850183 
L 150.309651 98.80269 
L 151.234811 98.764145 
L 152.159963 98.552836 
L 179.91473 98.552836 
L 188.548948 98.821962 
L 189.166282 98.79443 
L 190.091439 98.791677 
L 191.016594 98.741431 
L 191.94175 98.466798 
L 192.866913 98.746249 
L 193.792066 98.80682 
L 194.717222 98.556278 
L 195.642377 98.821962 
L 196.567536 98.537005 
L 197.492695 98.754509 
L 198.417852 98.803378 
L 199.343013 96.797665 
L 200.268162 98.768275 
L 201.193322 98.775158 
L 202.118478 98.585875 
L 203.043636 98.411734 
" clip-path="url(#p453a654d50)" style="fill: none; stroke: #ff6b6b; stroke-width: 1.2; stroke-linecap: square"/>
   </g>
   <g id="patch_3">
    <path d="M 35.96 103.4 
L 35.96 5 
" style="fill: none; stroke: var(--fg-color); stroke-width: 0.8; stroke-linejoin: miter; stroke-linecap: square"/>
   </g>
   <g id="patch_4">
    <path d="M 35.96 103.4 
L 211 103.4 
" style="fill: none; stroke: var(--fg-color); stroke-width: 0.8; stroke-linejoin: miter; stroke-linecap: square"/>
   </g>
  </g>
 </g>
 <defs>
  <clipPath id="p453a654d50">
   <rect x="35.96" y="5" width="175.04" height="98.4"/>
  </clipPath>
 </defs>
</svg>
