<?xml version="1.0" encoding="utf-8" standalone="no"?>
<!DOCTYPE svg PUBLIC "-//W3C//DTD SVG 1.1//EN"
  "http://www.w3.org/Graphics/SVG/1.1/DTD/svg11.dtd">
<svg xmlns:xlink="http://www.w3.org/1999/xlink" width="216pt" height="122.4pt" viewBox="0 0 216 122.4" xmlns="http://www.w3.org/2000/svg" version="1.1">
  <style>
    :root {
      --fg-color: #212529;
      --grid-color: rgba(33, 37, 41, 0.1);
    }
    @media (prefers-color-scheme: dark) {
      :root {
        --fg-color: #dee2e6;
        --grid-color: rgba(248, 249, 250, 0.15);
      }
    }
  </style>

 <metadata>
  <rdf:RDF xmlns:dc="http://purl.org/dc/elements/1.1/" xmlns:cc="http://creativecommons.org/ns#" xmlns:rdf="http://www.w3.org/1999/02/22-rdf-syntax-ns#">
   <cc:Work>
    <dc:type rdf:resource="http://purl.org/dc/dcmitype/StillImage"/>
    <dc:date>2026-06-30T15:37:45.728296</dc:date>
    <dc:format>image/svg+xml</dc:format>
    <dc:creator>
     <cc:Agent>
      <dc:title>Matplotlib v3.11.0, https://matplotlib.org/</dc:title>
     </cc:Agent>
    </dc:creator>
   </cc:Work>
  </rdf:RDF>
 </metadata>
 <defs>
  <style type="text/css">*{stroke-linejoin: round; stroke-linecap: butt}</style>
 </defs>
 <g id="figure_1">
  <g id="patch_1">
   <path d="M 0 122.4 
L 216 122.4 
L 216 0 
L 0 0 
L 0 122.4 
z
" style="fill: none; opacity: 0"/>
  </g>
  <g id="axes_1">
   <g id="patch_2">
    <path d="M 35.96 103.4 
L 211 103.4 
L 211 5 
L 35.96 5 
L 35.96 103.4 
z
" style="fill: none; opacity: 0"/>
   </g>
   <g id="matplotlib.axis_1">
    <g id="xtick_1">
     <g id="line2d_1">
      <path d="M 69.784035 103.4 
L 69.784035 5 
" clip-path="url(#p623d29a13e)" style="fill: none; stroke-dasharray: 2.96,1.28; stroke-dashoffset: 0; stroke: var(--grid-color); stroke-width: 0.8"/>
     </g>
     <g id="line2d_2">
      <defs>
       <path id="m57820f5a6f" d="M 0 0 
L 0 3.5 
" style="stroke: var(--fg-color); stroke-width: 0.8"/>
      </defs>
      <g>
       <use xlink:href="#m57820f5a6f" x="69.784035" y="103.4" style="fill: var(--fg-color); stroke: var(--fg-color); stroke-width: 0.8"/>
      </g>
     </g>
     <g id="text_1">
      <text style="font-size: 7px; font-family: 'DejaVu Sans', 'Bitstream Vera Sans', 'Computer Modern Sans Serif', 'Lucida Grande', 'Verdana', 'Geneva', 'Lucid', 'Arial', 'Helvetica', 'Avant Garde', sans-serif; text-anchor: middle; fill: var(--fg-color)" x="69.784035" y="115.718359" transform="rotate(-0 69.784035 115.718359)">02/2026</text>
     </g>
    </g>
    <g id="xtick_2">
     <g id="line2d_3">
      <path d="M 122.345302 103.4 
L 122.345302 5 
" clip-path="url(#p623d29a13e)" style="fill: none; stroke-dasharray: 2.96,1.28; stroke-dashoffset: 0; stroke: var(--grid-color); stroke-width: 0.8"/>
     </g>
     <g id="line2d_4">
      <g>
       <use xlink:href="#m57820f5a6f" x="122.345302" y="103.4" style="fill: var(--fg-color); stroke: var(--fg-color); stroke-width: 0.8"/>
      </g>
     </g>
     <g id="text_2">
      <text style="font-size: 7px; font-family: 'DejaVu Sans', 'Bitstream Vera Sans', 'Computer Modern Sans Serif', 'Lucida Grande', 'Verdana', 'Geneva', 'Lucid', 'Arial', 'Helvetica', 'Avant Garde', sans-serif; text-anchor: middle; fill: var(--fg-color)" x="122.345302" y="115.718359" transform="rotate(-0 122.345302 115.718359)">04/2026</text>
     </g>
    </g>
    <g id="xtick_3">
     <g id="line2d_5">
      <path d="M 176.688307 103.4 
L 176.688307 5 
" clip-path="url(#p623d29a13e)" style="fill: none; stroke-dasharray: 2.96,1.28; stroke-dashoffset: 0; stroke: var(--grid-color); stroke-width: 0.8"/>
     </g>
     <g id="line2d_6">
      <g>
       <use xlink:href="#m57820f5a6f" x="176.688307" y="103.4" style="fill: var(--fg-color); stroke: var(--fg-color); stroke-width: 0.8"/>
      </g>
     </g>
     <g id="text_3">
      <text style="font-size: 7px; font-family: 'DejaVu Sans', 'Bitstream Vera Sans', 'Computer Modern Sans Serif', 'Lucida Grande', 'Verdana', 'Geneva', 'Lucid', 'Arial', 'Helvetica', 'Avant Garde', sans-serif; text-anchor: middle; fill: var(--fg-color)" x="176.688307" y="115.718359" transform="rotate(-0 176.688307 115.718359)">06/2026</text>
     </g>
    </g>
   </g>
   <g id="matplotlib.axis_2">
    <g id="ytick_1">
     <g id="line2d_7">
      <path d="M 35.96 99.469537 
L 211 99.469537 
" clip-path="url(#p623d29a13e)" style="fill: none; stroke-dasharray: 2.96,1.28; stroke-dashoffset: 0; stroke: var(--grid-color); stroke-width: 0.8"/>
     </g>
     <g id="line2d_8">
      <defs>
       <path id="mfef717b12d" d="M 0 0 
L -3.5 0 
" style="stroke: var(--fg-color); stroke-width: 0.8"/>
      </defs>
      <g>
       <use xlink:href="#mfef717b12d" x="35.96" y="99.469537" style="fill: var(--fg-color); stroke: var(--fg-color); stroke-width: 0.8"/>
      </g>
     </g>
     <g id="text_4">
      <text style="font-size: 7px; font-family: 'DejaVu Sans', 'Bitstream Vera Sans', 'Computer Modern Sans Serif', 'Lucida Grande', 'Verdana', 'Geneva', 'Lucid', 'Arial', 'Helvetica', 'Avant Garde', sans-serif; text-anchor: end; fill: var(--fg-color)" x="28.96" y="102.128716" transform="rotate(-0 28.96 102.128716)">0</text>
     </g>
    </g>
    <g id="ytick_2">
     <g id="line2d_9">
      <path d="M 35.96 84.406654 
L 211 84.406654 
" clip-path="url(#p623d29a13e)" style="fill: none; stroke-dasharray: 2.96,1.28; stroke-dashoffset: 0; stroke: var(--grid-color); stroke-width: 0.8"/>
     </g>
     <g id="line2d_10">
      <g>
       <use xlink:href="#mfef717b12d" x="35.96" y="84.406654" style="fill: var(--fg-color); stroke: var(--fg-color); stroke-width: 0.8"/>
      </g>
     </g>
     <g id="text_5">
      <text style="font-size: 7px; font-family: 'DejaVu Sans', 'Bitstream Vera Sans', 'Computer Modern Sans Serif', 'Lucida Grande', 'Verdana', 'Geneva', 'Lucid', 'Arial', 'Helvetica', 'Avant Garde', sans-serif; text-anchor: end; fill: var(--fg-color)" x="28.96" y="87.065833" transform="rotate(-0 28.96 87.065833)">50</text>
     </g>
    </g>
    <g id="ytick_3">
     <g id="line2d_11">
      <path d="M 35.96 69.343771 
L 211 69.343771 
" clip-path="url(#p623d29a13e)" style="fill: none; stroke-dasharray: 2.96,1.28; stroke-dashoffset: 0; stroke: var(--grid-color); stroke-width: 0.8"/>
     </g>
     <g id="line2d_12">
      <g>
       <use xlink:href="#mfef717b12d" x="35.96" y="69.343771" style="fill: var(--fg-color); stroke: var(--fg-color); stroke-width: 0.8"/>
      </g>
     </g>
     <g id="text_6">
      <text style="font-size: 7px; font-family: 'DejaVu Sans', 'Bitstream Vera Sans', 'Computer Modern Sans Serif', 'Lucida Grande', 'Verdana', 'Geneva', 'Lucid', 'Arial', 'Helvetica', 'Avant Garde', sans-serif; text-anchor: end; fill: var(--fg-color)" x="28.96" y="72.00295" transform="rotate(-0 28.96 72.00295)">100</text>
     </g>
    </g>
    <g id="ytick_4">
     <g id="line2d_13">
      <path d="M 35.96 54.280888 
L 211 54.280888 
" clip-path="url(#p623d29a13e)" style="fill: none; stroke-dasharray: 2.96,1.28; stroke-dashoffset: 0; stroke: var(--grid-color); stroke-width: 0.8"/>
     </g>
     <g id="line2d_14">
      <g>
       <use xlink:href="#mfef717b12d" x="35.96" y="54.280888" style="fill: var(--fg-color); stroke: var(--fg-color); stroke-width: 0.8"/>
      </g>
     </g>
     <g id="text_7">
      <text style="font-size: 7px; font-family: 'DejaVu Sans', 'Bitstream Vera Sans', 'Computer Modern Sans Serif', 'Lucida Grande', 'Verdana', 'Geneva', 'Lucid', 'Arial', 'Helvetica', 'Avant Garde', sans-serif; text-anchor: end; fill: var(--fg-color)" x="28.96" y="56.940067" transform="rotate(-0 28.96 56.940067)">150</text>
     </g>
    </g>
    <g id="ytick_5">
     <g id="line2d_15">
      <path d="M 35.96 39.218005 
L 211 39.218005 
" clip-path="url(#p623d29a13e)" style="fill: none; stroke-dasharray: 2.96,1.28; stroke-dashoffset: 0; stroke: var(--grid-color); stroke-width: 0.8"/>
     </g>
     <g id="line2d_16">
      <g>
       <use xlink:href="#mfef717b12d" x="35.96" y="39.218005" style="fill: var(--fg-color); stroke: var(--fg-color); stroke-width: 0.8"/>
      </g>
     </g>
     <g id="text_8">
      <text style="font-size: 7px; font-family: 'DejaVu Sans', 'Bitstream Vera Sans', 'Computer Modern Sans Serif', 'Lucida Grande', 'Verdana', 'Geneva', 'Lucid', 'Arial', 'Helvetica', 'Avant Garde', sans-serif; text-anchor: end; fill: var(--fg-color)" x="28.96" y="41.877184" transform="rotate(-0 28.96 41.877184)">200</text>
     </g>
    </g>
    <g id="ytick_6">
     <g id="line2d_17">
      <path d="M 35.96 24.155122 
L 211 24.155122 
" clip-path="url(#p623d29a13e)" style="fill: none; stroke-dasharray: 2.96,1.28; stroke-dashoffset: 0; stroke: var(--grid-color); stroke-width: 0.8"/>
     </g>
     <g id="line2d_18">
      <g>
       <use xlink:href="#mfef717b12d" x="35.96" y="24.155122" style="fill: var(--fg-color); stroke: var(--fg-color); stroke-width: 0.8"/>
      </g>
     </g>
     <g id="text_9">
      <text style="font-size: 7px; font-family: 'DejaVu Sans', 'Bitstream Vera Sans', 'Computer Modern Sans Serif', 'Lucida Grande', 'Verdana', 'Geneva', 'Lucid', 'Arial', 'Helvetica', 'Avant Garde', sans-serif; text-anchor: end; fill: var(--fg-color)" x="28.96" y="26.814301" transform="rotate(-0 28.96 26.814301)">250</text>
     </g>
    </g>
    <g id="ytick_7">
     <g id="line2d_19">
      <path d="M 35.96 9.092239 
L 211 9.092239 
" clip-path="url(#p623d29a13e)" style="fill: none; stroke-dasharray: 2.96,1.28; stroke-dashoffset: 0; stroke: var(--grid-color); stroke-width: 0.8"/>
     </g>
     <g id="line2d_20">
      <g>
       <use xlink:href="#mfef717b12d" x="35.96" y="9.092239" style="fill: var(--fg-color); stroke: var(--fg-color); stroke-width: 0.8"/>
      </g>
     </g>
     <g id="text_10">
      <text style="font-size: 7px; font-family: 'DejaVu Sans', 'Bitstream Vera Sans', 'Computer Modern Sans Serif', 'Lucida Grande', 'Verdana', 'Geneva', 'Lucid', 'Arial', 'Helvetica', 'Avant Garde', sans-serif; text-anchor: end; fill: var(--fg-color)" x="28.96" y="11.751419" transform="rotate(-0 28.96 11.751419)">300</text>
     </g>
    </g>
    <g id="text_11">
     <text style="font-size: 7px; font-family: 'DejaVu Sans', 'Bitstream Vera Sans', 'Computer Modern Sans Serif', 'Lucida Grande', 'Verdana', 'Geneva', 'Lucid', 'Arial', 'Helvetica', 'Avant Garde', sans-serif; text-anchor: middle; fill: var(--fg-color)" x="9.917109" y="54.2" transform="rotate(-90 9.917109 54.2)">ms</text>
    </g>
   </g>
   <g id="line2d_21">
    <path d="M 43.916364 21.357342 
L 44.468628 32.693366 
L 45.3595 40.060622 
L 46.250371 37.470108 
L 47.141245 29.251498 
L 48.032112 38.492275 
L 48.922979 30.289632 
L 49.81384 30.874975 
L 50.704717 35.352568 
L 51.595589 33.652571 
L 52.486458 29.115329 
L 53.377327 34.468376 
L 54.268192 36.479573 
L 55.159063 33.992088 
L 56.049934 19.425678 
L 56.940797 29.894683 
L 57.831669 38.978806 
L 58.722538 36.452158 
L 59.613407 34.676847 
L 60.504275 34.059269 
L 61.395144 34.10265 
L 62.286016 21.700776 
L 63.176879 42.259803 
L 64.067746 41.541906 
L 64.958622 36.181629 
L 65.84949 36.862772 
L 66.740361 33.907435 
L 67.631226 38.347069 
L 68.522078 39.127929 
L 69.412965 21.873999 
L 70.30383 25.593928 
L 71.194705 25.715034 
L 72.085571 33.052465 
L 72.976442 38.811307 
L 73.867306 38.838119 
L 74.758184 31.137672 
L 75.649039 28.983378 
L 76.539914 37.658093 
L 77.430784 33.802597 
L 78.321655 38.010564 
L 79.212509 35.37938 
L 80.103391 20.48972 
L 80.994245 34.406619 
L 81.885129 35.116683 
L 82.775998 39.970848 
L 83.666869 32.55298 
L 84.557735 40.405562 
L 85.44861 35.037151 
L 94.53997 24.061732 
L 95.248438 24.007506 
L 96.139324 32.132425 
L 97.030192 32.910573 
L 97.921065 32.006499 
L 98.811931 37.493305 
L 99.702798 30.595709 
L 100.593666 36.300626 
L 101.484533 39.511128 
L 102.375401 30.524311 
L 103.266272 26.836917 
L 105.048009 34.489163 
L 105.93888 31.253355 
L 106.829748 23.317626 
L 107.720614 35.073904 
L 108.611487 40.577882 
L 109.502352 26.430521 
L 110.393224 27.307783 
L 111.284094 29.396403 
L 112.17496 28.240778 
L 113.065834 33.874899 
L 113.956695 32.102901 
L 114.847564 33.164533 
L 115.738441 22.370773 
L 116.629309 22.31504 
L 118.41104 39.781055 
L 119.301913 25.93435 
L 120.192782 30.594806 
L 121.083649 23.996058 
L 121.97452 30.542989 
L 125.537994 19.290112 
L 126.428869 29.590412 
L 127.319734 21.202495 
L 128.210603 30.432126 
L 129.101474 22.545201 
L 129.992342 27.604221 
L 130.883214 18.356213 
L 131.774065 25.571033 
L 132.664946 20.178219 
L 133.55582 26.471793 
L 134.446686 31.850146 
L 135.337558 21.03831 
L 138.010159 30.886122 
L 138.901032 20.681621 
L 139.791912 27.297239 
L 140.68277 24.092159 
L 141.57364 21.315166 
L 142.464507 21.547435 
L 143.355376 16.890293 
L 144.246246 21.660106 
L 145.137113 28.708631 
L 146.027984 25.853914 
L 146.918849 24.851328 
L 173.644977 24.851328 
L 181.959197 38.03346 
L 182.553652 35.289906 
L 184.335387 10.95612 
L 186.117131 38.752562 
L 187.007996 9.472727 
L 187.898864 21.54623 
L 188.789731 27.363516 
L 189.680603 21.285643 
L 190.571474 19.479603 
L 191.462343 27.642179 
L 192.353215 25.354429 
L 193.244077 30.578236 
L 194.134949 25.764139 
L 195.025817 33.275095 
L 195.916688 16.545353 
L 196.807557 32.921418 
L 197.698426 20.492431 
L 198.589295 24.3895 
L 199.480162 27.564153 
L 200.371032 30.273966 
L 201.261898 38.651339 
L 202.152766 39.568367 
L 203.043636 32.274317 
L 203.043636 32.274317 
" clip-path="url(#p623d29a13e)" style="fill: none; stroke: #339af0; stroke-width: 1.2; stroke-linecap: square"/>
   </g>
   <g id="line2d_22">
    <path d="M 43.916364 98.11448 
L 45.3595 98.749531 
L 46.250371 98.87395 
L 47.141245 98.813699 
L 48.032112 98.218413 
L 48.922979 98.880277 
L 50.704717 98.684158 
L 51.595589 98.860695 
L 52.486458 96.243368 
L 53.377327 98.329879 
L 55.159063 98.808577 
L 56.049934 98.81159 
L 56.940797 98.597396 
L 57.831669 98.860394 
L 58.722538 98.401578 
L 59.613407 98.810083 
L 60.504275 98.855875 
L 62.286016 98.519972 
L 63.176879 98.91462 
L 66.740361 98.855573 
L 68.522078 98.886904 
L 69.412965 97.817138 
L 70.30383 98.869733 
L 71.194705 98.847741 
L 72.085571 98.316925 
L 72.976442 98.877565 
L 79.212509 98.847439 
L 80.103391 98.551002 
L 80.994245 98.634149 
L 81.885129 98.331988 
L 82.775998 98.886302 
L 84.557735 98.877264 
L 85.44861 98.179551 
L 94.53997 98.637162 
L 95.248438 98.873348 
L 106.829748 98.923055 
L 107.720614 98.457612 
L 108.611487 98.9098 
L 109.502352 98.107249 
L 111.284094 98.897749 
L 112.17496 98.378683 
L 113.065834 98.858887 
L 113.956695 98.503102 
L 114.847564 98.396155 
L 115.738441 98.895339 
L 116.629309 98.266012 
L 117.520178 98.57691 
L 119.301913 98.886 
L 120.192782 98.842318 
L 121.083649 97.288431 
L 121.97452 98.844126 
L 125.537994 98.746217 
L 126.428869 98.88841 
L 129.992342 98.831172 
L 130.883214 98.491052 
L 131.774065 98.85949 
L 136.228424 98.782368 
L 137.119294 98.516357 
L 138.010159 98.850452 
L 140.68277 98.846234 
L 141.57364 98.385009 
L 142.464507 98.755857 
L 143.355376 98.849548 
L 144.246246 98.797431 
L 145.137113 98.280473 
L 146.027984 98.875758 
L 146.918849 98.1434 
L 173.644977 98.1434 
L 181.959197 98.3829 
L 182.553652 98.862201 
L 183.444521 98.394348 
L 184.335387 98.842017 
L 185.226256 98.862804 
L 187.007996 98.629931 
L 187.898864 98.842921 
L 188.789731 98.537747 
L 190.571474 98.834485 
L 191.462343 98.864912 
L 192.353215 98.738083 
L 193.244077 98.360306 
L 194.134949 98.764292 
L 195.025817 98.817314 
L 195.916688 98.437729 
L 196.807557 98.671505 
L 197.698426 98.592274 
L 198.589295 98.785983 
L 199.480162 98.733564 
L 201.261898 98.889616 
L 202.152766 98.776041 
L 203.043636 98.886904 
L 203.043636 98.886904 
" clip-path="url(#p623d29a13e)" style="fill: none; stroke: #ff6b6b; stroke-width: 1.2; stroke-linecap: square"/>
   </g>
   <g id="patch_3">
    <path d="M 35.96 103.4 
L 35.96 5 
" style="fill: none; stroke: var(--fg-color); stroke-width: 0.8; stroke-linejoin: miter; stroke-linecap: square"/>
   </g>
   <g id="patch_4">
    <path d="M 35.96 103.4 
L 211 103.4 
" style="fill: none; stroke: var(--fg-color); stroke-width: 0.8; stroke-linejoin: miter; stroke-linecap: square"/>
   </g>
  </g>
 </g>
 <defs>
  <clipPath id="p623d29a13e">
   <rect x="35.96" y="5" width="175.04" height="98.4"/>
  </clipPath>
 </defs>
</svg>
