<?xml version="1.0" encoding="utf-8" standalone="no"?>
<!DOCTYPE svg PUBLIC "-//W3C//DTD SVG 1.1//EN"
  "http://www.w3.org/Graphics/SVG/1.1/DTD/svg11.dtd">
<svg xmlns:xlink="http://www.w3.org/1999/xlink" width="216pt" height="122.4pt" viewBox="0 0 216 122.4" xmlns="http://www.w3.org/2000/svg" version="1.1">
  <style>
    :root {
      --fg-color: #212529;
      --grid-color: rgba(33, 37, 41, 0.1);
    }
    @media (prefers-color-scheme: dark) {
      :root {
        --fg-color: #dee2e6;
        --grid-color: rgba(248, 249, 250, 0.15);
      }
    }
  </style>

 <metadata>
  <rdf:RDF xmlns:dc="http://purl.org/dc/elements/1.1/" xmlns:cc="http://creativecommons.org/ns#" xmlns:rdf="http://www.w3.org/1999/02/22-rdf-syntax-ns#">
   <cc:Work>
    <dc:type rdf:resource="http://purl.org/dc/dcmitype/StillImage"/>
    <dc:date>2026-06-30T04:49:13.194202</dc:date>
    <dc:format>image/svg+xml</dc:format>
    <dc:creator>
     <cc:Agent>
      <dc:title>Matplotlib v3.11.0, https://matplotlib.org/</dc:title>
     </cc:Agent>
    </dc:creator>
   </cc:Work>
  </rdf:RDF>
 </metadata>
 <defs>
  <style type="text/css">*{stroke-linejoin: round; stroke-linecap: butt}</style>
 </defs>
 <g id="figure_1">
  <g id="patch_1">
   <path d="M 0 122.4 
L 216 122.4 
L 216 0 
L 0 0 
L 0 122.4 
z
" style="fill: none; opacity: 0"/>
  </g>
  <g id="axes_1">
   <g id="patch_2">
    <path d="M 40.28 103.4 
L 211 103.4 
L 211 5 
L 40.28 5 
L 40.28 103.4 
z
" style="fill: none; opacity: 0"/>
   </g>
   <g id="matplotlib.axis_1">
    <g id="xtick_1">
     <g id="line2d_1">
      <path d="M 74.452198 103.4 
L 74.452198 5 
" clip-path="url(#p8be256e592)" style="fill: none; stroke-dasharray: 2.96,1.28; stroke-dashoffset: 0; stroke: var(--grid-color); stroke-width: 0.8"/>
     </g>
     <g id="line2d_2">
      <defs>
       <path id="mdb9e67dfa7" d="M 0 0 
L 0 3.5 
" style="stroke: var(--fg-color); stroke-width: 0.8"/>
      </defs>
      <g>
       <use xlink:href="#mdb9e67dfa7" x="74.452198" y="103.4" style="fill: var(--fg-color); stroke: var(--fg-color); stroke-width: 0.8"/>
      </g>
     </g>
     <g id="text_1">
      <text style="font-size: 7px; font-family: 'DejaVu Sans', 'Bitstream Vera Sans', 'Computer Modern Sans Serif', 'Lucida Grande', 'Verdana', 'Geneva', 'Lucid', 'Arial', 'Helvetica', 'Avant Garde', sans-serif; text-anchor: middle; fill: var(--fg-color)" x="74.452198" y="115.718359" transform="rotate(-0 74.452198 115.718359)">02/2026</text>
     </g>
    </g>
    <g id="xtick_2">
     <g id="line2d_3">
      <path d="M 128.119903 103.4 
L 128.119903 5 
" clip-path="url(#p8be256e592)" style="fill: none; stroke-dasharray: 2.96,1.28; stroke-dashoffset: 0; stroke: var(--grid-color); stroke-width: 0.8"/>
     </g>
     <g id="line2d_4">
      <g>
       <use xlink:href="#mdb9e67dfa7" x="128.119903" y="103.4" style="fill: var(--fg-color); stroke: var(--fg-color); stroke-width: 0.8"/>
      </g>
     </g>
     <g id="text_2">
      <text style="font-size: 7px; font-family: 'DejaVu Sans', 'Bitstream Vera Sans', 'Computer Modern Sans Serif', 'Lucida Grande', 'Verdana', 'Geneva', 'Lucid', 'Arial', 'Helvetica', 'Avant Garde', sans-serif; text-anchor: middle; fill: var(--fg-color)" x="128.119903" y="115.718359" transform="rotate(-0 128.119903 115.718359)">04/2026</text>
     </g>
    </g>
    <g id="xtick_3">
     <g id="line2d_5">
      <path d="M 183.606853 103.4 
L 183.606853 5 
" clip-path="url(#p8be256e592)" style="fill: none; stroke-dasharray: 2.96,1.28; stroke-dashoffset: 0; stroke: var(--grid-color); stroke-width: 0.8"/>
     </g>
     <g id="line2d_6">
      <g>
       <use xlink:href="#mdb9e67dfa7" x="183.606853" y="103.4" style="fill: var(--fg-color); stroke: var(--fg-color); stroke-width: 0.8"/>
      </g>
     </g>
     <g id="text_3">
      <text style="font-size: 7px; font-family: 'DejaVu Sans', 'Bitstream Vera Sans', 'Computer Modern Sans Serif', 'Lucida Grande', 'Verdana', 'Geneva', 'Lucid', 'Arial', 'Helvetica', 'Avant Garde', sans-serif; text-anchor: middle; fill: var(--fg-color)" x="183.606853" y="115.718359" transform="rotate(-0 183.606853 115.718359)">06/2026</text>
     </g>
    </g>
   </g>
   <g id="matplotlib.axis_2">
    <g id="ytick_1">
     <g id="line2d_7">
      <path d="M 40.28 99.45786 
L 211 99.45786 
" clip-path="url(#p8be256e592)" style="fill: none; stroke-dasharray: 2.96,1.28; stroke-dashoffset: 0; stroke: var(--grid-color); stroke-width: 0.8"/>
     </g>
     <g id="line2d_8">
      <defs>
       <path id="m1b06348114" d="M 0 0 
L -3.5 0 
" style="stroke: var(--fg-color); stroke-width: 0.8"/>
      </defs>
      <g>
       <use xlink:href="#m1b06348114" x="40.28" y="99.45786" style="fill: var(--fg-color); stroke: var(--fg-color); stroke-width: 0.8"/>
      </g>
     </g>
     <g id="text_4">
      <text style="font-size: 7px; font-family: 'DejaVu Sans', 'Bitstream Vera Sans', 'Computer Modern Sans Serif', 'Lucida Grande', 'Verdana', 'Geneva', 'Lucid', 'Arial', 'Helvetica', 'Avant Garde', sans-serif; text-anchor: end; fill: var(--fg-color)" x="33.28" y="102.11704" transform="rotate(-0 33.28 102.11704)">0</text>
     </g>
    </g>
    <g id="ytick_2">
     <g id="line2d_9">
      <path d="M 40.28 83.089293 
L 211 83.089293 
" clip-path="url(#p8be256e592)" style="fill: none; stroke-dasharray: 2.96,1.28; stroke-dashoffset: 0; stroke: var(--grid-color); stroke-width: 0.8"/>
     </g>
     <g id="line2d_10">
      <g>
       <use xlink:href="#m1b06348114" x="40.28" y="83.089293" style="fill: var(--fg-color); stroke: var(--fg-color); stroke-width: 0.8"/>
      </g>
     </g>
     <g id="text_5">
      <text style="font-size: 7px; font-family: 'DejaVu Sans', 'Bitstream Vera Sans', 'Computer Modern Sans Serif', 'Lucida Grande', 'Verdana', 'Geneva', 'Lucid', 'Arial', 'Helvetica', 'Avant Garde', sans-serif; text-anchor: end; fill: var(--fg-color)" x="33.28" y="85.748473" transform="rotate(-0 33.28 85.748473)">200</text>
     </g>
    </g>
    <g id="ytick_3">
     <g id="line2d_11">
      <path d="M 40.28 66.720726 
L 211 66.720726 
" clip-path="url(#p8be256e592)" style="fill: none; stroke-dasharray: 2.96,1.28; stroke-dashoffset: 0; stroke: var(--grid-color); stroke-width: 0.8"/>
     </g>
     <g id="line2d_12">
      <g>
       <use xlink:href="#m1b06348114" x="40.28" y="66.720726" style="fill: var(--fg-color); stroke: var(--fg-color); stroke-width: 0.8"/>
      </g>
     </g>
     <g id="text_6">
      <text style="font-size: 7px; font-family: 'DejaVu Sans', 'Bitstream Vera Sans', 'Computer Modern Sans Serif', 'Lucida Grande', 'Verdana', 'Geneva', 'Lucid', 'Arial', 'Helvetica', 'Avant Garde', sans-serif; text-anchor: end; fill: var(--fg-color)" x="33.28" y="69.379906" transform="rotate(-0 33.28 69.379906)">400</text>
     </g>
    </g>
    <g id="ytick_4">
     <g id="line2d_13">
      <path d="M 40.28 50.352159 
L 211 50.352159 
" clip-path="url(#p8be256e592)" style="fill: none; stroke-dasharray: 2.96,1.28; stroke-dashoffset: 0; stroke: var(--grid-color); stroke-width: 0.8"/>
     </g>
     <g id="line2d_14">
      <g>
       <use xlink:href="#m1b06348114" x="40.28" y="50.352159" style="fill: var(--fg-color); stroke: var(--fg-color); stroke-width: 0.8"/>
      </g>
     </g>
     <g id="text_7">
      <text style="font-size: 7px; font-family: 'DejaVu Sans', 'Bitstream Vera Sans', 'Computer Modern Sans Serif', 'Lucida Grande', 'Verdana', 'Geneva', 'Lucid', 'Arial', 'Helvetica', 'Avant Garde', sans-serif; text-anchor: end; fill: var(--fg-color)" x="33.28" y="53.011339" transform="rotate(-0 33.28 53.011339)">600</text>
     </g>
    </g>
    <g id="ytick_5">
     <g id="line2d_15">
      <path d="M 40.28 33.983592 
L 211 33.983592 
" clip-path="url(#p8be256e592)" style="fill: none; stroke-dasharray: 2.96,1.28; stroke-dashoffset: 0; stroke: var(--grid-color); stroke-width: 0.8"/>
     </g>
     <g id="line2d_16">
      <g>
       <use xlink:href="#m1b06348114" x="40.28" y="33.983592" style="fill: var(--fg-color); stroke: var(--fg-color); stroke-width: 0.8"/>
      </g>
     </g>
     <g id="text_8">
      <text style="font-size: 7px; font-family: 'DejaVu Sans', 'Bitstream Vera Sans', 'Computer Modern Sans Serif', 'Lucida Grande', 'Verdana', 'Geneva', 'Lucid', 'Arial', 'Helvetica', 'Avant Garde', sans-serif; text-anchor: end; fill: var(--fg-color)" x="33.28" y="36.642772" transform="rotate(-0 33.28 36.642772)">800</text>
     </g>
    </g>
    <g id="ytick_6">
     <g id="line2d_17">
      <path d="M 40.28 17.615025 
L 211 17.615025 
" clip-path="url(#p8be256e592)" style="fill: none; stroke-dasharray: 2.96,1.28; stroke-dashoffset: 0; stroke: var(--grid-color); stroke-width: 0.8"/>
     </g>
     <g id="line2d_18">
      <g>
       <use xlink:href="#m1b06348114" x="40.28" y="17.615025" style="fill: var(--fg-color); stroke: var(--fg-color); stroke-width: 0.8"/>
      </g>
     </g>
     <g id="text_9">
      <text style="font-size: 7px; font-family: 'DejaVu Sans', 'Bitstream Vera Sans', 'Computer Modern Sans Serif', 'Lucida Grande', 'Verdana', 'Geneva', 'Lucid', 'Arial', 'Helvetica', 'Avant Garde', sans-serif; text-anchor: end; fill: var(--fg-color)" x="33.28" y="20.274205" transform="rotate(-0 33.28 20.274205)">1000</text>
     </g>
    </g>
    <g id="text_10">
     <text style="font-size: 7px; font-family: 'DejaVu Sans', 'Bitstream Vera Sans', 'Computer Modern Sans Serif', 'Lucida Grande', 'Verdana', 'Geneva', 'Lucid', 'Arial', 'Helvetica', 'Avant Garde', sans-serif; text-anchor: middle; fill: var(--fg-color)" x="9.783359" y="54.2" transform="rotate(-90 9.783359 54.2)">ms</text>
    </g>
   </g>
   <g id="line2d_19">
    <path d="M 48.04 41.018229 
L 48.60389 86.850544 
L 49.513516 86.324295 
L 50.42314 86.331088 
L 51.332767 85.501038 
L 52.242387 85.362723 
L 53.152007 83.9565 
L 54.061621 85.442111 
L 54.971251 87.448897 
L 55.880876 85.558655 
L 56.790499 85.361741 
L 57.700121 84.476038 
L 58.609739 87.536387 
L 59.519363 84.680481 
L 60.428988 85.108274 
L 61.338603 84.213977 
L 62.248229 85.92662 
L 63.157851 86.877552 
L 64.067474 85.798045 
L 64.977095 86.281573 
L 65.886716 85.303469 
L 66.796341 85.069398 
L 67.705958 88.159948 
L 68.615578 87.819563 
L 69.525207 85.726515 
L 70.434828 86.366935 
L 71.344453 86.481924 
L 72.254071 87.02978 
L 73.163676 86.270606 
L 74.073317 82.96481 
L 74.982935 86.174522 
L 75.892563 85.727742 
L 76.802182 87.290286 
L 77.711806 87.82742 
L 78.621423 87.390707 
L 79.531054 86.262503 
L 80.440663 86.713375 
L 81.350291 77.567766 
L 82.259914 86.537332 
L 83.169539 84.714037 
L 84.079145 87.371474 
L 84.988781 85.63616 
L 85.898387 86.885491 
L 86.808025 86.738501 
L 87.717647 87.551119 
L 88.627272 86.462282 
L 89.53689 84.879687 
L 90.446519 83.693129 
L 99.729256 87.387515 
L 100.452638 87.470422 
L 101.362277 86.954239 
L 102.271898 85.207549 
L 103.181525 86.830493 
L 104.091144 86.630796 
L 105.000764 87.501031 
L 105.910385 86.574652 
L 106.820006 86.437401 
L 107.729627 85.710964 
L 108.639251 86.26815 
L 109.54887 85.809503 
L 110.458494 85.546542 
L 111.368118 85.984892 
L 112.27774 86.086459 
L 113.187359 86.664433 
L 114.096985 87.762273 
L 115.006603 87.670937 
L 115.916229 86.957022 
L 116.825852 85.951173 
L 117.735471 86.600678 
L 118.645099 79.636753 
L 119.554712 85.957393 
L 120.464335 86.970689 
L 121.373964 85.828163 
L 122.283586 86.455243 
L 123.193208 86.670572 
L 124.102823 78.807276 
L 125.012449 85.785687 
L 125.922072 86.44845 
L 126.831692 85.766863 
L 127.741316 84.88026 
L 131.379802 86.176568 
L 132.289431 86.936561 
L 133.199049 85.209677 
L 134.108672 86.576289 
L 135.018295 81.949959 
L 135.927917 70.665796 
L 136.837542 86.331661 
L 137.747146 85.910415 
L 138.65678 86.87166 
L 139.566408 84.465971 
L 140.476026 84.731797 
L 141.385652 84.564837 
L 142.295271 86.459253 
L 143.204894 84.268648 
L 144.114513 84.247451 
L 145.024138 86.001507 
L 145.933772 86.300724 
L 146.843383 86.300397 
L 147.753006 86.146941 
L 148.662626 73.513927 
L 149.572249 85.743129 
L 150.481872 83.285798 
L 151.391492 85.274169 
L 152.301116 86.014028 
L 153.210734 83.92589 
L 180.49946 83.92589 
L 188.988697 85.83201 
L 189.595666 87.28382 
L 190.505288 84.660184 
L 191.414908 9.472727 
L 192.32453 84.73949 
L 193.234158 39.21916 
L 194.143777 86.48798 
L 195.053397 86.769274 
L 195.963018 86.874524 
L 196.872643 21.687034 
L 197.782267 85.730852 
L 198.691889 17.959256 
L 199.601515 83.822687 
L 200.51113 36.623924 
L 201.420755 29.894724 
L 202.330376 84.931166 
L 203.24 84.374716 
" clip-path="url(#p8be256e592)" style="fill: none; stroke: #339af0; stroke-width: 1.2; stroke-linecap: square"/>
   </g>
   <g id="line2d_20">
    <path d="M 48.04 96.620123 
L 48.60389 98.793951 
L 49.513516 98.82055 
L 50.42314 98.6842 
L 51.332767 98.803854 
L 52.242387 98.516667 
L 53.152007 98.755321 
L 54.061621 98.758758 
L 54.971251 98.902965 
L 55.880876 98.788304 
L 56.790499 98.755321 
L 57.700121 98.640414 
L 58.609739 98.884714 
L 59.519363 98.668568 
L 60.428988 98.596218 
L 61.338603 98.766288 
L 62.248229 98.834545 
L 63.157851 98.848458 
L 64.067474 98.719965 
L 64.977095 98.682317 
L 65.886716 98.790841 
L 66.796341 98.831844 
L 67.705958 98.88185 
L 68.615578 98.828816 
L 69.525207 98.828488 
L 70.434828 98.874811 
L 71.344453 98.873748 
L 72.254071 98.780037 
L 73.163676 98.86499 
L 74.073317 98.490478 
L 74.982935 98.706952 
L 75.892563 98.837164 
L 76.802182 98.862944 
L 77.711806 98.927273 
L 78.621423 98.869655 
L 79.531054 98.811383 
L 80.440663 98.777664 
L 81.350291 98.859752 
L 82.259914 98.690829 
L 83.169539 98.780774 
L 84.079145 98.906976 
L 84.988781 98.82767 
L 85.898387 98.871538 
L 86.808025 98.778237 
L 87.717647 98.741735 
L 88.627272 98.729295 
L 89.53689 98.841992 
L 90.446519 98.795833 
L 99.729256 98.831762 
L 100.452638 98.921053 
L 101.362277 98.826688 
L 102.271898 98.591144 
L 103.181525 98.831435 
L 104.091144 98.842893 
L 105.000764 98.909758 
L 105.910385 98.885206 
L 106.820006 98.814002 
L 107.729627 98.702123 
L 108.639251 98.73617 
L 109.54887 98.784948 
L 110.458494 98.392757 
L 111.368118 98.829225 
L 112.27774 98.801235 
L 113.187359 98.830125 
L 114.096985 98.797879 
L 115.006603 98.904684 
L 115.916229 98.823005 
L 116.825852 98.905748 
L 117.735471 98.910086 
L 118.645099 98.811383 
L 119.554712 98.623472 
L 120.464335 98.853696 
L 121.373964 98.851323 
L 122.283586 98.877349 
L 123.193208 98.698276 
L 124.102823 97.796041 
L 125.012449 98.883078 
L 125.922072 98.841911 
L 126.831692 98.886679 
L 127.741316 98.785275 
L 131.379802 98.837737 
L 132.289431 98.891917 
L 133.199049 98.892326 
L 134.108672 98.857133 
L 135.018295 98.849031 
L 135.927917 98.694839 
L 136.837542 98.854351 
L 137.747146 98.866382 
L 138.65678 98.885778 
L 139.566408 98.583778 
L 140.476026 98.71399 
L 141.385652 98.848213 
L 142.295271 98.891344 
L 143.204894 98.773572 
L 144.114513 98.822759 
L 145.024138 98.835036 
L 145.933772 98.857461 
L 146.843383 98.726021 
L 147.753006 98.835036 
L 148.662626 98.674788 
L 149.572249 98.846903 
L 150.481872 98.760232 
L 151.391492 98.774227 
L 152.301116 98.886761 
L 153.210734 98.81302 
L 180.49946 98.81302 
L 188.988697 98.880049 
L 189.595666 98.832826 
L 190.505288 98.527798 
L 191.414908 95.683596 
L 192.32453 98.7775 
L 193.234158 96.322133 
L 194.143777 98.794605 
L 195.053397 98.856233 
L 195.963018 98.764651 
L 196.872643 95.695627 
L 197.782267 98.642623 
L 198.691889 95.282566 
L 199.601515 98.698195 
L 200.51113 95.389534 
L 201.420755 96.320169 
L 202.330376 98.633539 
L 203.24 98.768007 
" clip-path="url(#p8be256e592)" style="fill: none; stroke: #ff6b6b; stroke-width: 1.2; stroke-linecap: square"/>
   </g>
   <g id="patch_3">
    <path d="M 40.28 103.4 
L 40.28 5 
" style="fill: none; stroke: var(--fg-color); stroke-width: 0.8; stroke-linejoin: miter; stroke-linecap: square"/>
   </g>
   <g id="patch_4">
    <path d="M 40.28 103.4 
L 211 103.4 
" style="fill: none; stroke: var(--fg-color); stroke-width: 0.8; stroke-linejoin: miter; stroke-linecap: square"/>
   </g>
  </g>
 </g>
 <defs>
  <clipPath id="p8be256e592">
   <rect x="40.28" y="5" width="170.72" height="98.4"/>
  </clipPath>
 </defs>
</svg>
