<?xml version="1.0" encoding="utf-8" standalone="no"?>
<!DOCTYPE svg PUBLIC "-//W3C//DTD SVG 1.1//EN"
  "http://www.w3.org/Graphics/SVG/1.1/DTD/svg11.dtd">
<svg xmlns:xlink="http://www.w3.org/1999/xlink" width="216pt" height="122.4pt" viewBox="0 0 216 122.4" xmlns="http://www.w3.org/2000/svg" version="1.1">
  <style>
    :root {
      --fg-color: #212529;
      --grid-color: rgba(33, 37, 41, 0.1);
    }
    @media (prefers-color-scheme: dark) {
      :root {
        --fg-color: #dee2e6;
        --grid-color: rgba(248, 249, 250, 0.15);
      }
    }
  </style>

 <metadata>
  <rdf:RDF xmlns:dc="http://purl.org/dc/elements/1.1/" xmlns:cc="http://creativecommons.org/ns#" xmlns:rdf="http://www.w3.org/1999/02/22-rdf-syntax-ns#">
   <cc:Work>
    <dc:type rdf:resource="http://purl.org/dc/dcmitype/StillImage"/>
    <dc:date>2026-06-30T04:48:40.726305</dc:date>
    <dc:format>image/svg+xml</dc:format>
    <dc:creator>
     <cc:Agent>
      <dc:title>Matplotlib v3.11.0, https://matplotlib.org/</dc:title>
     </cc:Agent>
    </dc:creator>
   </cc:Work>
  </rdf:RDF>
 </metadata>
 <defs>
  <style type="text/css">*{stroke-linejoin: round; stroke-linecap: butt}</style>
 </defs>
 <g id="figure_1">
  <g id="patch_1">
   <path d="M 0 122.4 
L 216 122.4 
L 216 0 
L 0 0 
L 0 122.4 
z
" style="fill: none; opacity: 0"/>
  </g>
  <g id="axes_1">
   <g id="patch_2">
    <path d="M 35.96 103.4 
L 211 103.4 
L 211 5 
L 35.96 5 
L 35.96 103.4 
z
" style="fill: none; opacity: 0"/>
   </g>
   <g id="matplotlib.axis_1">
    <g id="xtick_1">
     <g id="line2d_1">
      <path d="M 72.056377 103.4 
L 72.056377 5 
" clip-path="url(#p7fb6b69c01)" style="fill: none; stroke-dasharray: 2.96,1.28; stroke-dashoffset: 0; stroke: var(--grid-color); stroke-width: 0.8"/>
     </g>
     <g id="line2d_2">
      <defs>
       <path id="md5b114cc8b" d="M 0 0 
L 0 3.5 
" style="stroke: var(--fg-color); stroke-width: 0.8"/>
      </defs>
      <g>
       <use xlink:href="#md5b114cc8b" x="72.056377" y="103.4" style="fill: var(--fg-color); stroke: var(--fg-color); stroke-width: 0.8"/>
      </g>
     </g>
     <g id="text_1">
      <text style="font-size: 7px; font-family: 'DejaVu Sans', 'Bitstream Vera Sans', 'Computer Modern Sans Serif', 'Lucida Grande', 'Verdana', 'Geneva', 'Lucid', 'Arial', 'Helvetica', 'Avant Garde', sans-serif; text-anchor: middle; fill: var(--fg-color)" x="72.056377" y="115.718359" transform="rotate(-0 72.056377 115.718359)">02/2026</text>
     </g>
    </g>
    <g id="xtick_2">
     <g id="line2d_3">
      <path d="M 126.640628 103.4 
L 126.640628 5 
" clip-path="url(#p7fb6b69c01)" style="fill: none; stroke-dasharray: 2.96,1.28; stroke-dashoffset: 0; stroke: var(--grid-color); stroke-width: 0.8"/>
     </g>
     <g id="line2d_4">
      <g>
       <use xlink:href="#md5b114cc8b" x="126.640628" y="103.4" style="fill: var(--fg-color); stroke: var(--fg-color); stroke-width: 0.8"/>
      </g>
     </g>
     <g id="text_2">
      <text style="font-size: 7px; font-family: 'DejaVu Sans', 'Bitstream Vera Sans', 'Computer Modern Sans Serif', 'Lucida Grande', 'Verdana', 'Geneva', 'Lucid', 'Arial', 'Helvetica', 'Avant Garde', sans-serif; text-anchor: middle; fill: var(--fg-color)" x="126.640628" y="115.718359" transform="rotate(-0 126.640628 115.718359)">04/2026</text>
     </g>
    </g>
    <g id="xtick_3">
     <g id="line2d_5">
      <path d="M 183.075192 103.4 
L 183.075192 5 
" clip-path="url(#p7fb6b69c01)" style="fill: none; stroke-dasharray: 2.96,1.28; stroke-dashoffset: 0; stroke: var(--grid-color); stroke-width: 0.8"/>
     </g>
     <g id="line2d_6">
      <g>
       <use xlink:href="#md5b114cc8b" x="183.075192" y="103.4" style="fill: var(--fg-color); stroke: var(--fg-color); stroke-width: 0.8"/>
      </g>
     </g>
     <g id="text_3">
      <text style="font-size: 7px; font-family: 'DejaVu Sans', 'Bitstream Vera Sans', 'Computer Modern Sans Serif', 'Lucida Grande', 'Verdana', 'Geneva', 'Lucid', 'Arial', 'Helvetica', 'Avant Garde', sans-serif; text-anchor: middle; fill: var(--fg-color)" x="183.075192" y="115.718359" transform="rotate(-0 183.075192 115.718359)">06/2026</text>
     </g>
    </g>
   </g>
   <g id="matplotlib.axis_2">
    <g id="ytick_1">
     <g id="line2d_7">
      <path d="M 35.96 99.55781 
L 211 99.55781 
" clip-path="url(#p7fb6b69c01)" style="fill: none; stroke-dasharray: 2.96,1.28; stroke-dashoffset: 0; stroke: var(--grid-color); stroke-width: 0.8"/>
     </g>
     <g id="line2d_8">
      <defs>
       <path id="m9d702ad572" d="M 0 0 
L -3.5 0 
" style="stroke: var(--fg-color); stroke-width: 0.8"/>
      </defs>
      <g>
       <use xlink:href="#m9d702ad572" x="35.96" y="99.55781" style="fill: var(--fg-color); stroke: var(--fg-color); stroke-width: 0.8"/>
      </g>
     </g>
     <g id="text_4">
      <text style="font-size: 7px; font-family: 'DejaVu Sans', 'Bitstream Vera Sans', 'Computer Modern Sans Serif', 'Lucida Grande', 'Verdana', 'Geneva', 'Lucid', 'Arial', 'Helvetica', 'Avant Garde', sans-serif; text-anchor: end; fill: var(--fg-color)" x="28.96" y="102.216989" transform="rotate(-0 28.96 102.216989)">0</text>
     </g>
    </g>
    <g id="ytick_2">
     <g id="line2d_9">
      <path d="M 35.96 75.023298 
L 211 75.023298 
" clip-path="url(#p7fb6b69c01)" style="fill: none; stroke-dasharray: 2.96,1.28; stroke-dashoffset: 0; stroke: var(--grid-color); stroke-width: 0.8"/>
     </g>
     <g id="line2d_10">
      <g>
       <use xlink:href="#m9d702ad572" x="35.96" y="75.023298" style="fill: var(--fg-color); stroke: var(--fg-color); stroke-width: 0.8"/>
      </g>
     </g>
     <g id="text_5">
      <text style="font-size: 7px; font-family: 'DejaVu Sans', 'Bitstream Vera Sans', 'Computer Modern Sans Serif', 'Lucida Grande', 'Verdana', 'Geneva', 'Lucid', 'Arial', 'Helvetica', 'Avant Garde', sans-serif; text-anchor: end; fill: var(--fg-color)" x="28.96" y="77.682478" transform="rotate(-0 28.96 77.682478)">100</text>
     </g>
    </g>
    <g id="ytick_3">
     <g id="line2d_11">
      <path d="M 35.96 50.488787 
L 211 50.488787 
" clip-path="url(#p7fb6b69c01)" style="fill: none; stroke-dasharray: 2.96,1.28; stroke-dashoffset: 0; stroke: var(--grid-color); stroke-width: 0.8"/>
     </g>
     <g id="line2d_12">
      <g>
       <use xlink:href="#m9d702ad572" x="35.96" y="50.488787" style="fill: var(--fg-color); stroke: var(--fg-color); stroke-width: 0.8"/>
      </g>
     </g>
     <g id="text_6">
      <text style="font-size: 7px; font-family: 'DejaVu Sans', 'Bitstream Vera Sans', 'Computer Modern Sans Serif', 'Lucida Grande', 'Verdana', 'Geneva', 'Lucid', 'Arial', 'Helvetica', 'Avant Garde', sans-serif; text-anchor: end; fill: var(--fg-color)" x="28.96" y="53.147967" transform="rotate(-0 28.96 53.147967)">200</text>
     </g>
    </g>
    <g id="ytick_4">
     <g id="line2d_13">
      <path d="M 35.96 25.954276 
L 211 25.954276 
" clip-path="url(#p7fb6b69c01)" style="fill: none; stroke-dasharray: 2.96,1.28; stroke-dashoffset: 0; stroke: var(--grid-color); stroke-width: 0.8"/>
     </g>
     <g id="line2d_14">
      <g>
       <use xlink:href="#m9d702ad572" x="35.96" y="25.954276" style="fill: var(--fg-color); stroke: var(--fg-color); stroke-width: 0.8"/>
      </g>
     </g>
     <g id="text_7">
      <text style="font-size: 7px; font-family: 'DejaVu Sans', 'Bitstream Vera Sans', 'Computer Modern Sans Serif', 'Lucida Grande', 'Verdana', 'Geneva', 'Lucid', 'Arial', 'Helvetica', 'Avant Garde', sans-serif; text-anchor: end; fill: var(--fg-color)" x="28.96" y="28.613456" transform="rotate(-0 28.96 28.613456)">300</text>
     </g>
    </g>
    <g id="text_8">
     <text style="font-size: 7px; font-family: 'DejaVu Sans', 'Bitstream Vera Sans', 'Computer Modern Sans Serif', 'Lucida Grande', 'Verdana', 'Geneva', 'Lucid', 'Arial', 'Helvetica', 'Avant Garde', sans-serif; text-anchor: middle; fill: var(--fg-color)" x="9.917109" y="54.2" transform="rotate(-90 9.917109 54.2)">ms</text>
    </g>
   </g>
   <g id="line2d_15">
    <path d="M 43.916364 30.175439 
L 45.193108 28.097365 
L 45.766628 31.51306 
L 46.691788 30.819715 
L 47.616947 29.420021 
L 48.542109 28.342711 
L 49.467263 28.891302 
L 50.392418 28.485256 
L 51.317566 27.842452 
L 52.242732 31.593043 
L 53.167891 32.263816 
L 54.093049 28.754645 
L 55.018206 26.183428 
L 55.943359 29.717134 
L 56.868517 30.829774 
L 57.793676 29.176148 
L 58.718827 32.817805 
L 59.643987 32.821976 
L 60.569143 27.823806 
L 61.494301 28.63737 
L 62.419457 29.549563 
L 63.344613 34.688807 
L 64.269773 28.385891 
L 65.194924 32.231921 
L 66.120079 31.008876 
L 67.045243 31.619785 
L 67.970398 30.156792 
L 68.895557 29.270851 
L 69.82071 30.605529 
L 70.74585 12.831993 
L 71.671025 28.438395 
L 72.596178 32.516522 
L 73.521341 28.246045 
L 74.446495 34.004049 
L 75.371653 33.872053 
L 76.296805 30.371224 
L 77.221971 31.060398 
L 78.147114 33.127676 
L 79.072277 31.420565 
L 79.997435 28.806658 
L 80.922594 29.752464 
L 81.847735 31.793244 
L 82.772905 16.854671 
L 83.698046 31.712035 
L 84.623219 27.911639 
L 85.548376 35.522245 
L 86.473535 29.883478 
L 87.398688 32.32368 
L 88.323852 32.86025 
L 97.76512 24.903217 
L 98.500856 26.56126 
L 99.426031 28.035538 
L 100.351186 28.540213 
L 101.276348 32.228486 
L 102.201502 28.745813 
L 103.126656 31.212758 
L 104.051812 34.963103 
L 104.976967 29.606974 
L 105.902123 27.694509 
L 106.827282 29.790001 
L 107.752435 29.428363 
L 108.677594 32.904658 
L 109.602753 30.003942 
L 110.527909 34.314656 
L 111.453063 31.333467 
L 112.378223 30.710782 
L 113.303377 34.828899 
L 114.228537 30.203408 
L 115.153695 30.708573 
L 116.078848 28.421221 
L 117.004011 31.101862 
L 117.929158 29.482584 
L 118.854316 32.378392 
L 119.779481 32.857551 
L 120.704637 28.603512 
L 121.629794 32.242716 
L 122.554943 30.395758 
L 123.480104 27.810066 
L 124.405261 31.55575 
L 125.330416 25.420896 
L 126.255574 27.644213 
L 129.9562 27.632927 
L 130.881363 30.591789 
L 131.806516 26.920936 
L 132.731673 31.628127 
L 133.656831 18.993344 
L 134.581987 24.520479 
L 135.507147 25.911095 
L 136.432285 30.323136 
L 137.357455 28.889094 
L 138.282617 23.090117 
L 139.20777 30.89479 
L 140.13293 27.607166 
L 141.058084 26.695954 
L 141.983242 29.543184 
L 142.908395 28.461212 
L 143.833556 29.649173 
L 144.758724 26.555371 
L 145.683869 9.472727 
L 146.609028 27.865024 
L 147.534182 25.113478 
L 148.459339 27.270798 
L 149.384497 30.877371 
L 150.309651 29.676161 
L 151.234811 28.837081 
L 152.159963 27.274723 
L 179.91473 27.274723 
L 188.548948 27.040173 
L 189.166282 32.010129 
L 190.091439 25.886315 
L 191.016594 30.483347 
L 191.94175 24.949833 
L 192.866913 24.075668 
L 193.792066 23.547931 
L 194.717222 27.009751 
L 195.642377 30.304981 
L 196.567536 27.297295 
L 197.492695 28.877808 
L 198.417852 22.88599 
L 199.343013 25.833811 
L 200.268162 29.392542 
L 201.193322 28.851556 
L 202.118478 29.798098 
L 203.043636 22.333963 
" clip-path="url(#p7fb6b69c01)" style="fill: none; stroke: #339af0; stroke-width: 1.2; stroke-linecap: square"/>
   </g>
   <g id="line2d_16">
    <path d="M 43.916364 98.837967 
L 45.193108 98.837722 
L 45.766628 98.869617 
L 46.691788 98.869126 
L 47.616947 98.780066 
L 48.542109 98.816377 
L 49.467263 98.859803 
L 50.392418 98.824964 
L 51.317566 98.813923 
L 52.242732 98.86839 
L 53.167891 98.886545 
L 54.093049 98.839194 
L 55.018206 98.639728 
L 55.943359 98.848517 
L 56.868517 98.858576 
L 57.793676 98.780802 
L 58.718827 98.897095 
L 59.643987 98.852933 
L 60.569143 98.81883 
L 61.494301 98.84729 
L 62.419457 98.819812 
L 63.344613 98.924329 
L 64.269773 98.81883 
L 65.194924 98.876732 
L 66.120079 98.858331 
L 67.045243 98.742773 
L 67.970398 98.843119 
L 68.895557 98.840666 
L 69.82071 98.87207 
L 70.74585 98.853915 
L 71.671025 98.838948 
L 72.596178 98.887281 
L 73.521341 98.865691 
L 74.446495 98.911325 
L 75.371653 98.888263 
L 76.296805 98.845082 
L 77.221971 98.917214 
L 78.147114 98.88262 
L 79.072277 98.87575 
L 79.997435 98.84361 
L 80.922594 98.876486 
L 81.847735 98.844591 
L 82.772905 98.884337 
L 83.698046 98.889244 
L 84.623219 98.897586 
L 85.548376 98.927273 
L 86.473535 98.852688 
L 87.398688 98.869371 
L 88.323852 98.840175 
L 97.76512 98.746944 
L 98.500856 98.801656 
L 99.426031 98.89317 
L 100.351186 98.902984 
L 101.276348 98.841157 
L 102.201502 98.769761 
L 103.126656 98.860539 
L 104.051812 98.905192 
L 104.976967 98.844591 
L 105.902123 98.723636 
L 106.827282 98.849498 
L 107.752435 98.817603 
L 108.677594 98.899549 
L 109.602753 98.860294 
L 110.527909 98.892434 
L 111.453063 98.779084 
L 112.378223 98.889735 
L 113.303377 98.863728 
L 114.228537 98.828644 
L 115.153695 98.884092 
L 116.078848 98.838948 
L 117.004011 98.867409 
L 117.929158 98.859067 
L 118.854316 98.863974 
L 119.779481 98.840666 
L 120.704637 98.830116 
L 121.629794 98.898322 
L 122.554943 98.813433 
L 123.480104 98.816867 
L 124.405261 98.862011 
L 125.330416 98.783255 
L 126.255574 98.79037 
L 129.9562 98.83993 
L 130.881363 98.897341 
L 131.806516 98.817603 
L 132.731673 98.85784 
L 133.656831 98.848517 
L 134.581987 98.796504 
L 135.507147 98.826681 
L 136.432285 98.867409 
L 137.357455 98.858331 
L 138.282617 98.828889 
L 139.20777 98.833306 
L 140.13293 98.846063 
L 141.058084 98.809262 
L 141.983242 98.848272 
L 142.908395 98.808771 
L 143.833556 98.695912 
L 144.758724 98.779575 
L 145.683869 98.846309 
L 146.609028 98.83257 
L 147.534182 98.824473 
L 148.459339 98.845327 
L 149.384497 98.868635 
L 150.309651 98.855141 
L 151.234811 98.834042 
L 152.159963 98.825945 
L 179.91473 98.825945 
L 188.548948 98.83993 
L 189.166282 98.867409 
L 190.091439 98.611268 
L 191.016594 98.868881 
L 191.94175 98.819812 
L 192.866913 98.7229 
L 193.792066 98.755531 
L 194.717222 98.818094 
L 195.642377 98.856123 
L 196.567536 98.821529 
L 197.492695 98.83625 
L 198.417852 98.730015 
L 199.343013 98.819812 
L 200.268162 98.855387 
L 201.193322 98.86103 
L 202.118478 98.717257 
L 203.043636 98.785709 
" clip-path="url(#p7fb6b69c01)" style="fill: none; stroke: #ff6b6b; stroke-width: 1.2; stroke-linecap: square"/>
   </g>
   <g id="patch_3">
    <path d="M 35.96 103.4 
L 35.96 5 
" style="fill: none; stroke: var(--fg-color); stroke-width: 0.8; stroke-linejoin: miter; stroke-linecap: square"/>
   </g>
   <g id="patch_4">
    <path d="M 35.96 103.4 
L 211 103.4 
" style="fill: none; stroke: var(--fg-color); stroke-width: 0.8; stroke-linejoin: miter; stroke-linecap: square"/>
   </g>
  </g>
 </g>
 <defs>
  <clipPath id="p7fb6b69c01">
   <rect x="35.96" y="5" width="175.04" height="98.4"/>
  </clipPath>
 </defs>
</svg>
