<?xml version="1.0" encoding="utf-8" standalone="no"?>
<!DOCTYPE svg PUBLIC "-//W3C//DTD SVG 1.1//EN"
  "http://www.w3.org/Graphics/SVG/1.1/DTD/svg11.dtd">
<svg xmlns:xlink="http://www.w3.org/1999/xlink" width="737.28pt" height="552.96pt" viewBox="0 0 737.28 552.96" xmlns="http://www.w3.org/2000/svg" version="1.1">
 <metadata>
  <rdf:RDF xmlns:dc="http://purl.org/dc/elements/1.1/" xmlns:cc="http://creativecommons.org/ns#" xmlns:rdf="http://www.w3.org/1999/02/22-rdf-syntax-ns#">
   <cc:Work>
    <dc:type rdf:resource="http://purl.org/dc/dcmitype/StillImage"/>
    <dc:date>2026-06-30T15:36:50.226532</dc:date>
    <dc:format>image/svg+xml</dc:format>
    <dc:creator>
     <cc:Agent>
      <dc:title>Matplotlib v3.11.0, https://matplotlib.org/</dc:title>
     </cc:Agent>
    </dc:creator>
   </cc:Work>
  </rdf:RDF>
 </metadata>
 <defs>
  <style type="text/css">*{stroke-linejoin: round; stroke-linecap: butt}</style>
 </defs>
 <g id="figure_1">
  <g id="patch_1">
   <path d="M 0 552.96 
L 737.28 552.96 
L 737.28 0 
L 0 0 
z
" style="fill: #ffffff"/>
  </g>
  <g id="axes_1">
   <g id="patch_2">
    <path d="M 51.562344 510.837656 
L 676.357656 510.837656 
L 676.357656 26.16 
L 51.562344 26.16 
z
" style="fill: #ffffff"/>
   </g>
   <g id="matplotlib.axis_1">
    <g id="xtick_1">
     <g id="line2d_1">
      <path d="M 204.41289 510.837656 
L 204.41289 26.16 
" clip-path="url(#pc0a71496ec)" style="fill: none; stroke-dasharray: 2.96,1.28; stroke-dashoffset: 0; stroke: #dee2e6; stroke-width: 0.8"/>
     </g>
     <g id="line2d_2">
      <defs>
       <path id="m895ffe88f2" d="M 0 0 
L 0 3.5 
" style="stroke: #212529; stroke-width: 0.8"/>
      </defs>
      <g>
       <use xlink:href="#m895ffe88f2" x="204.41289" y="510.837656" style="fill: #212529; stroke: #212529; stroke-width: 0.8"/>
      </g>
     </g>
     <g id="text_1">
      <text style="font-size: 10px; font-family: 'DejaVu Sans', 'Bitstream Vera Sans', 'Computer Modern Sans Serif', 'Lucida Grande', 'Verdana', 'Geneva', 'Lucid', 'Arial', 'Helvetica', 'Avant Garde', sans-serif; text-anchor: middle; fill: #212529" x="204.41289" y="525.435313" transform="rotate(-0 204.41289 525.435313)">04/2026</text>
     </g>
    </g>
    <g id="xtick_2">
     <g id="line2d_3">
      <path d="M 649.995575 510.837656 
L 649.995575 26.16 
" clip-path="url(#pc0a71496ec)" style="fill: none; stroke-dasharray: 2.96,1.28; stroke-dashoffset: 0; stroke: #dee2e6; stroke-width: 0.8"/>
     </g>
     <g id="line2d_4">
      <g>
       <use xlink:href="#m895ffe88f2" x="649.995575" y="510.837656" style="fill: #212529; stroke: #212529; stroke-width: 0.8"/>
      </g>
     </g>
     <g id="text_2">
      <text style="font-size: 10px; font-family: 'DejaVu Sans', 'Bitstream Vera Sans', 'Computer Modern Sans Serif', 'Lucida Grande', 'Verdana', 'Geneva', 'Lucid', 'Arial', 'Helvetica', 'Avant Garde', sans-serif; text-anchor: middle; fill: #212529" x="649.995575" y="525.435313" transform="rotate(-0 649.995575 525.435313)">07/2026</text>
     </g>
    </g>
    <g id="text_3">
     <text style="font-size: 10px; font-family: 'DejaVu Sans', 'Bitstream Vera Sans', 'Computer Modern Sans Serif', 'Lucida Grande', 'Verdana', 'Geneva', 'Lucid', 'Arial', 'Helvetica', 'Avant Garde', sans-serif; text-anchor: middle; fill: #212529" x="363.96" y="539.436094" transform="rotate(-0 363.96 539.436094)">Time</text>
    </g>
   </g>
   <g id="matplotlib.axis_2">
    <g id="ytick_1">
     <g id="line2d_5">
      <path d="M 51.562344 440.125925 
L 676.357656 440.125925 
" clip-path="url(#pc0a71496ec)" style="fill: none; stroke-dasharray: 2.96,1.28; stroke-dashoffset: 0; stroke: #dee2e6; stroke-width: 0.8"/>
     </g>
     <g id="line2d_6">
      <defs>
       <path id="m7960634785" d="M 0 0 
L -3.5 0 
" style="stroke: #212529; stroke-width: 0.8"/>
      </defs>
      <g>
       <use xlink:href="#m7960634785" x="51.562344" y="440.125925" style="fill: #212529; stroke: #212529; stroke-width: 0.8"/>
      </g>
     </g>
     <g id="text_4">
      <text style="font-size: 10px; font-family: 'DejaVu Sans', 'Bitstream Vera Sans', 'Computer Modern Sans Serif', 'Lucida Grande', 'Verdana', 'Geneva', 'Lucid', 'Arial', 'Helvetica', 'Avant Garde', sans-serif; text-anchor: end; fill: #212529" x="44.562344" y="443.924753" transform="rotate(-0 44.562344 443.924753)">400</text>
     </g>
    </g>
    <g id="ytick_2">
     <g id="line2d_7">
      <path d="M 51.562344 346.179942 
L 676.357656 346.179942 
" clip-path="url(#pc0a71496ec)" style="fill: none; stroke-dasharray: 2.96,1.28; stroke-dashoffset: 0; stroke: #dee2e6; stroke-width: 0.8"/>
     </g>
     <g id="line2d_8">
      <g>
       <use xlink:href="#m7960634785" x="51.562344" y="346.179942" style="fill: #212529; stroke: #212529; stroke-width: 0.8"/>
      </g>
     </g>
     <g id="text_5">
      <text style="font-size: 10px; font-family: 'DejaVu Sans', 'Bitstream Vera Sans', 'Computer Modern Sans Serif', 'Lucida Grande', 'Verdana', 'Geneva', 'Lucid', 'Arial', 'Helvetica', 'Avant Garde', sans-serif; text-anchor: end; fill: #212529" x="44.562344" y="349.978771" transform="rotate(-0 44.562344 349.978771)">450</text>
     </g>
    </g>
    <g id="ytick_3">
     <g id="line2d_9">
      <path d="M 51.562344 252.23396 
L 676.357656 252.23396 
" clip-path="url(#pc0a71496ec)" style="fill: none; stroke-dasharray: 2.96,1.28; stroke-dashoffset: 0; stroke: #dee2e6; stroke-width: 0.8"/>
     </g>
     <g id="line2d_10">
      <g>
       <use xlink:href="#m7960634785" x="51.562344" y="252.23396" style="fill: #212529; stroke: #212529; stroke-width: 0.8"/>
      </g>
     </g>
     <g id="text_6">
      <text style="font-size: 10px; font-family: 'DejaVu Sans', 'Bitstream Vera Sans', 'Computer Modern Sans Serif', 'Lucida Grande', 'Verdana', 'Geneva', 'Lucid', 'Arial', 'Helvetica', 'Avant Garde', sans-serif; text-anchor: end; fill: #212529" x="44.562344" y="256.032788" transform="rotate(-0 44.562344 256.032788)">500</text>
     </g>
    </g>
    <g id="ytick_4">
     <g id="line2d_11">
      <path d="M 51.562344 158.287978 
L 676.357656 158.287978 
" clip-path="url(#pc0a71496ec)" style="fill: none; stroke-dasharray: 2.96,1.28; stroke-dashoffset: 0; stroke: #dee2e6; stroke-width: 0.8"/>
     </g>
     <g id="line2d_12">
      <g>
       <use xlink:href="#m7960634785" x="51.562344" y="158.287978" style="fill: #212529; stroke: #212529; stroke-width: 0.8"/>
      </g>
     </g>
     <g id="text_7">
      <text style="font-size: 10px; font-family: 'DejaVu Sans', 'Bitstream Vera Sans', 'Computer Modern Sans Serif', 'Lucida Grande', 'Verdana', 'Geneva', 'Lucid', 'Arial', 'Helvetica', 'Avant Garde', sans-serif; text-anchor: end; fill: #212529" x="44.562344" y="162.086806" transform="rotate(-0 44.562344 162.086806)">550</text>
     </g>
    </g>
    <g id="ytick_5">
     <g id="line2d_13">
      <path d="M 51.562344 64.341996 
L 676.357656 64.341996 
" clip-path="url(#pc0a71496ec)" style="fill: none; stroke-dasharray: 2.96,1.28; stroke-dashoffset: 0; stroke: #dee2e6; stroke-width: 0.8"/>
     </g>
     <g id="line2d_14">
      <g>
       <use xlink:href="#m7960634785" x="51.562344" y="64.341996" style="fill: #212529; stroke: #212529; stroke-width: 0.8"/>
      </g>
     </g>
     <g id="text_8">
      <text style="font-size: 10px; font-family: 'DejaVu Sans', 'Bitstream Vera Sans', 'Computer Modern Sans Serif', 'Lucida Grande', 'Verdana', 'Geneva', 'Lucid', 'Arial', 'Helvetica', 'Avant Garde', sans-serif; text-anchor: end; fill: #212529" x="44.562344" y="68.140824" transform="rotate(-0 44.562344 68.140824)">600</text>
     </g>
    </g>
    <g id="text_9">
     <text style="font-size: 10px; font-family: 'DejaVu Sans', 'Bitstream Vera Sans', 'Computer Modern Sans Serif', 'Lucida Grande', 'Verdana', 'Geneva', 'Lucid', 'Arial', 'Helvetica', 'Avant Garde', sans-serif; text-anchor: middle; fill: #212529" x="19.0725" y="268.498828" transform="rotate(-90 19.0725 268.498828)">Duration [ms]</text>
    </g>
   </g>
   <g id="line2d_15">
    <path d="M 79.962131 313.830583 
L 84.858636 343.684737 
L 89.755141 311.728072 
L 94.651649 461.731622 
L 99.548174 352.865139 
L 104.444669 407.241073 
L 109.341194 382.96731 
L 114.237716 120.050084 
L 119.134225 352.989147 
L 124.030722 351.424007 
L 128.927255 259.860495 
L 133.823751 253.586782 
L 138.72028 333.254854 
L 143.616799 228.024081 
L 148.513297 285.932384 
L 153.409838 434.502318 
L 158.306303 331.66153 
L 163.20282 292.596912 
L 168.099375 48.190803 
L 172.995883 290.381666 
L 177.892397 280.402724 
L 182.788873 282.326737 
L 187.685405 421.381822 
L 192.581921 370.56644 
L 197.478425 342.940685 
L 202.374946 316.355851 
L 221.960988 327.950664 
L 226.857537 439.949306 
L 231.754029 282.020473 
L 236.650543 307.045804 
L 241.547064 296.60089 
L 246.443574 407.836691 
L 251.340104 372.176675 
L 256.236517 314.37547 
L 261.133097 343.696011 
L 266.029638 249.32915 
L 270.926133 363.501703 
L 275.822663 287.202534 
L 280.719161 325.468611 
L 285.615678 338.998712 
L 290.512174 327.319347 
L 295.408705 281.112955 
L 300.30528 273.632976 
L 305.201731 337.040877 
L 310.098253 289.252435 
L 314.994752 169.129344 
L 319.891267 335.026675 
L 324.787785 282.441351 
L 329.684287 358.161813 
L 334.580813 322.762967 
L 339.477303 488.806854 
L 486.373027 488.806854 
L 532.070751 348.543623 
L 535.338075 115.454247 
L 540.234587 197.1384 
L 545.131088 323.266517 
L 550.0276 196.28537 
L 554.924144 228.084206 
L 559.82064 326.547111 
L 564.717145 377.546627 
L 569.613648 376.049128 
L 574.510177 300.546621 
L 579.406702 293.54013 
L 584.303215 335.338576 
L 589.199747 368.6894 
L 594.096222 263.958419 
L 598.99275 283.929456 
L 603.889258 274.371391 
L 608.785781 169.247716 
L 613.682295 196.172635 
L 618.578807 348.727757 
L 623.47532 216.143672 
L 628.371828 203.288103 
L 633.268344 310.65333 
L 638.164841 436.219651 
L 643.061348 297.519681 
L 647.957869 310.480469 
" clip-path="url(#pc0a71496ec)" style="fill: none; stroke: #007bff; stroke-width: 1.5; stroke-linecap: square"/>
    <defs>
     <path id="m79416d272f" d="M 0 2 
C 0.530406 2 1.03916 1.789267 1.414214 1.414214 
C 1.789267 1.03916 2 0.530406 2 0 
C 2 -0.530406 1.789267 -1.03916 1.414214 -1.414214 
C 1.03916 -1.789267 0.530406 -2 0 -2 
C -0.530406 -2 -1.03916 -1.789267 -1.414214 -1.414214 
C -1.789267 -1.03916 -2 -0.530406 -2 0 
C -2 0.530406 -1.789267 1.03916 -1.414214 1.414214 
C -1.03916 1.789267 -0.530406 2 0 2 
z
" style="stroke: #007bff"/>
    </defs>
    <g clip-path="url(#pc0a71496ec)">
     <use xlink:href="#m79416d272f" x="79.962131" y="313.830583" style="fill: #007bff; stroke: #007bff"/>
     <use xlink:href="#m79416d272f" x="84.858636" y="343.684737" style="fill: #007bff; stroke: #007bff"/>
     <use xlink:href="#m79416d272f" x="89.755141" y="311.728072" style="fill: #007bff; stroke: #007bff"/>
     <use xlink:href="#m79416d272f" x="94.651649" y="461.731622" style="fill: #007bff; stroke: #007bff"/>
     <use xlink:href="#m79416d272f" x="99.548174" y="352.865139" style="fill: #007bff; stroke: #007bff"/>
     <use xlink:href="#m79416d272f" x="104.444669" y="407.241073" style="fill: #007bff; stroke: #007bff"/>
     <use xlink:href="#m79416d272f" x="109.341194" y="382.96731" style="fill: #007bff; stroke: #007bff"/>
     <use xlink:href="#m79416d272f" x="114.237716" y="120.050084" style="fill: #007bff; stroke: #007bff"/>
     <use xlink:href="#m79416d272f" x="119.134225" y="352.989147" style="fill: #007bff; stroke: #007bff"/>
     <use xlink:href="#m79416d272f" x="124.030722" y="351.424007" style="fill: #007bff; stroke: #007bff"/>
     <use xlink:href="#m79416d272f" x="128.927255" y="259.860495" style="fill: #007bff; stroke: #007bff"/>
     <use xlink:href="#m79416d272f" x="133.823751" y="253.586782" style="fill: #007bff; stroke: #007bff"/>
     <use xlink:href="#m79416d272f" x="138.72028" y="333.254854" style="fill: #007bff; stroke: #007bff"/>
     <use xlink:href="#m79416d272f" x="143.616799" y="228.024081" style="fill: #007bff; stroke: #007bff"/>
     <use xlink:href="#m79416d272f" x="148.513297" y="285.932384" style="fill: #007bff; stroke: #007bff"/>
     <use xlink:href="#m79416d272f" x="153.409838" y="434.502318" style="fill: #007bff; stroke: #007bff"/>
     <use xlink:href="#m79416d272f" x="158.306303" y="331.66153" style="fill: #007bff; stroke: #007bff"/>
     <use xlink:href="#m79416d272f" x="163.20282" y="292.596912" style="fill: #007bff; stroke: #007bff"/>
     <use xlink:href="#m79416d272f" x="168.099375" y="48.190803" style="fill: #007bff; stroke: #007bff"/>
     <use xlink:href="#m79416d272f" x="172.995883" y="290.381666" style="fill: #007bff; stroke: #007bff"/>
     <use xlink:href="#m79416d272f" x="177.892397" y="280.402724" style="fill: #007bff; stroke: #007bff"/>
     <use xlink:href="#m79416d272f" x="182.788873" y="282.326737" style="fill: #007bff; stroke: #007bff"/>
     <use xlink:href="#m79416d272f" x="187.685405" y="421.381822" style="fill: #007bff; stroke: #007bff"/>
     <use xlink:href="#m79416d272f" x="192.581921" y="370.56644" style="fill: #007bff; stroke: #007bff"/>
     <use xlink:href="#m79416d272f" x="197.478425" y="342.940685" style="fill: #007bff; stroke: #007bff"/>
     <use xlink:href="#m79416d272f" x="202.374946" y="316.355851" style="fill: #007bff; stroke: #007bff"/>
     <use xlink:href="#m79416d272f" x="221.960988" y="327.950664" style="fill: #007bff; stroke: #007bff"/>
     <use xlink:href="#m79416d272f" x="226.857537" y="439.949306" style="fill: #007bff; stroke: #007bff"/>
     <use xlink:href="#m79416d272f" x="231.754029" y="282.020473" style="fill: #007bff; stroke: #007bff"/>
     <use xlink:href="#m79416d272f" x="236.650543" y="307.045804" style="fill: #007bff; stroke: #007bff"/>
     <use xlink:href="#m79416d272f" x="241.547064" y="296.60089" style="fill: #007bff; stroke: #007bff"/>
     <use xlink:href="#m79416d272f" x="246.443574" y="407.836691" style="fill: #007bff; stroke: #007bff"/>
     <use xlink:href="#m79416d272f" x="251.340104" y="372.176675" style="fill: #007bff; stroke: #007bff"/>
     <use xlink:href="#m79416d272f" x="256.236517" y="314.37547" style="fill: #007bff; stroke: #007bff"/>
     <use xlink:href="#m79416d272f" x="261.133097" y="343.696011" style="fill: #007bff; stroke: #007bff"/>
     <use xlink:href="#m79416d272f" x="266.029638" y="249.32915" style="fill: #007bff; stroke: #007bff"/>
     <use xlink:href="#m79416d272f" x="270.926133" y="363.501703" style="fill: #007bff; stroke: #007bff"/>
     <use xlink:href="#m79416d272f" x="275.822663" y="287.202534" style="fill: #007bff; stroke: #007bff"/>
     <use xlink:href="#m79416d272f" x="280.719161" y="325.468611" style="fill: #007bff; stroke: #007bff"/>
     <use xlink:href="#m79416d272f" x="285.615678" y="338.998712" style="fill: #007bff; stroke: #007bff"/>
     <use xlink:href="#m79416d272f" x="290.512174" y="327.319347" style="fill: #007bff; stroke: #007bff"/>
     <use xlink:href="#m79416d272f" x="295.408705" y="281.112955" style="fill: #007bff; stroke: #007bff"/>
     <use xlink:href="#m79416d272f" x="300.30528" y="273.632976" style="fill: #007bff; stroke: #007bff"/>
     <use xlink:href="#m79416d272f" x="305.201731" y="337.040877" style="fill: #007bff; stroke: #007bff"/>
     <use xlink:href="#m79416d272f" x="310.098253" y="289.252435" style="fill: #007bff; stroke: #007bff"/>
     <use xlink:href="#m79416d272f" x="314.994752" y="169.129344" style="fill: #007bff; stroke: #007bff"/>
     <use xlink:href="#m79416d272f" x="319.891267" y="335.026675" style="fill: #007bff; stroke: #007bff"/>
     <use xlink:href="#m79416d272f" x="324.787785" y="282.441351" style="fill: #007bff; stroke: #007bff"/>
     <use xlink:href="#m79416d272f" x="329.684287" y="358.161813" style="fill: #007bff; stroke: #007bff"/>
     <use xlink:href="#m79416d272f" x="334.580813" y="322.762967" style="fill: #007bff; stroke: #007bff"/>
     <use xlink:href="#m79416d272f" x="339.477303" y="488.806854" style="fill: #007bff; stroke: #007bff"/>
     <use xlink:href="#m79416d272f" x="486.373027" y="488.806854" style="fill: #007bff; stroke: #007bff"/>
     <use xlink:href="#m79416d272f" x="532.070751" y="348.543623" style="fill: #007bff; stroke: #007bff"/>
     <use xlink:href="#m79416d272f" x="535.338075" y="115.454247" style="fill: #007bff; stroke: #007bff"/>
     <use xlink:href="#m79416d272f" x="540.234587" y="197.1384" style="fill: #007bff; stroke: #007bff"/>
     <use xlink:href="#m79416d272f" x="545.131088" y="323.266517" style="fill: #007bff; stroke: #007bff"/>
     <use xlink:href="#m79416d272f" x="550.0276" y="196.28537" style="fill: #007bff; stroke: #007bff"/>
     <use xlink:href="#m79416d272f" x="554.924144" y="228.084206" style="fill: #007bff; stroke: #007bff"/>
     <use xlink:href="#m79416d272f" x="559.82064" y="326.547111" style="fill: #007bff; stroke: #007bff"/>
     <use xlink:href="#m79416d272f" x="564.717145" y="377.546627" style="fill: #007bff; stroke: #007bff"/>
     <use xlink:href="#m79416d272f" x="569.613648" y="376.049128" style="fill: #007bff; stroke: #007bff"/>
     <use xlink:href="#m79416d272f" x="574.510177" y="300.546621" style="fill: #007bff; stroke: #007bff"/>
     <use xlink:href="#m79416d272f" x="579.406702" y="293.54013" style="fill: #007bff; stroke: #007bff"/>
     <use xlink:href="#m79416d272f" x="584.303215" y="335.338576" style="fill: #007bff; stroke: #007bff"/>
     <use xlink:href="#m79416d272f" x="589.199747" y="368.6894" style="fill: #007bff; stroke: #007bff"/>
     <use xlink:href="#m79416d272f" x="594.096222" y="263.958419" style="fill: #007bff; stroke: #007bff"/>
     <use xlink:href="#m79416d272f" x="598.99275" y="283.929456" style="fill: #007bff; stroke: #007bff"/>
     <use xlink:href="#m79416d272f" x="603.889258" y="274.371391" style="fill: #007bff; stroke: #007bff"/>
     <use xlink:href="#m79416d272f" x="608.785781" y="169.247716" style="fill: #007bff; stroke: #007bff"/>
     <use xlink:href="#m79416d272f" x="613.682295" y="196.172635" style="fill: #007bff; stroke: #007bff"/>
     <use xlink:href="#m79416d272f" x="618.578807" y="348.727757" style="fill: #007bff; stroke: #007bff"/>
     <use xlink:href="#m79416d272f" x="623.47532" y="216.143672" style="fill: #007bff; stroke: #007bff"/>
     <use xlink:href="#m79416d272f" x="628.371828" y="203.288103" style="fill: #007bff; stroke: #007bff"/>
     <use xlink:href="#m79416d272f" x="633.268344" y="310.65333" style="fill: #007bff; stroke: #007bff"/>
     <use xlink:href="#m79416d272f" x="638.164841" y="436.219651" style="fill: #007bff; stroke: #007bff"/>
     <use xlink:href="#m79416d272f" x="643.061348" y="297.519681" style="fill: #007bff; stroke: #007bff"/>
     <use xlink:href="#m79416d272f" x="647.957869" y="310.480469" style="fill: #007bff; stroke: #007bff"/>
    </g>
   </g>
   <g id="line2d_16">
    <path d="M 79.962131 414.309569 
L 84.858636 424.508345 
L 89.755141 427.242173 
L 94.651649 450.583991 
L 99.548174 390.197393 
L 104.444669 387.822439 
L 109.341194 407.748381 
L 114.237716 411.630229 
L 119.134225 410.018116 
L 124.030722 405.040858 
L 128.927255 424.002915 
L 133.823751 421.817732 
L 138.72028 393.077777 
L 143.616799 391.723076 
L 148.513297 412.785765 
L 153.409838 436.011091 
L 158.306303 438.166211 
L 163.20282 459.36982 
L 168.099375 386.638719 
L 172.995883 414.662806 
L 177.892397 404.807872 
L 182.788873 400.713706 
L 187.685405 415.410616 
L 192.581921 395.356906 
L 197.478425 429.851992 
L 202.374946 403.88908 
L 221.960988 437.362034 
L 226.857537 433.036761 
L 231.754029 393.070261 
L 236.650543 381.815532 
L 241.547064 431.747822 
L 246.443574 402.818096 
L 251.340104 408.490555 
L 256.236517 442.756412 
L 261.133097 445.12573 
L 266.029638 375.793595 
L 270.926133 382.146222 
L 275.822663 389.321816 
L 280.719161 404.20286 
L 285.615678 430.894792 
L 290.512174 417.323356 
L 295.408705 392.457733 
L 300.30528 402.35964 
L 305.201731 392.570468 
L 310.098253 391.349171 
L 314.994752 405.608292 
L 319.891267 422.189758 
L 324.787785 412.180753 
L 329.684287 396.097201 
L 334.580813 426.91712 
L 339.477303 407.714561 
L 486.373027 407.714561 
L 532.070751 414.895792 
L 535.338075 457.76898 
L 540.234587 414.818756 
L 545.131088 455.931397 
L 550.0276 425.881835 
L 554.924144 451.639944 
L 559.82064 449.905701 
L 564.717145 427.546558 
L 569.613648 456.145594 
L 574.510177 425.447804 
L 579.406702 435.503782 
L 584.303215 441.392316 
L 589.199747 456.463131 
L 594.096222 432.963483 
L 598.99275 425.459078 
L 603.889258 411.718539 
L 608.785781 434.91568 
L 613.682295 434.964532 
L 618.578807 430.633623 
L 623.47532 447.156842 
L 628.371828 412.332945 
L 633.268344 474.352325 
L 638.164841 474.79575 
L 643.061348 440.428431 
L 647.957869 415.040468 
" clip-path="url(#pc0a71496ec)" style="fill: none; stroke: #dc3545; stroke-width: 1.5; stroke-linecap: square"/>
    <defs>
     <path id="m439be92867" d="M 0 2 
C 0.530406 2 1.03916 1.789267 1.414214 1.414214 
C 1.789267 1.03916 2 0.530406 2 0 
C 2 -0.530406 1.789267 -1.03916 1.414214 -1.414214 
C 1.03916 -1.789267 0.530406 -2 0 -2 
C -0.530406 -2 -1.03916 -1.789267 -1.414214 -1.414214 
C -1.789267 -1.03916 -2 -0.530406 -2 0 
C -2 0.530406 -1.789267 1.03916 -1.414214 1.414214 
C -1.03916 1.789267 -0.530406 2 0 2 
z
" style="stroke: #dc3545"/>
    </defs>
    <g clip-path="url(#pc0a71496ec)">
     <use xlink:href="#m439be92867" x="79.962131" y="414.309569" style="fill: #dc3545; stroke: #dc3545"/>
     <use xlink:href="#m439be92867" x="84.858636" y="424.508345" style="fill: #dc3545; stroke: #dc3545"/>
     <use xlink:href="#m439be92867" x="89.755141" y="427.242173" style="fill: #dc3545; stroke: #dc3545"/>
     <use xlink:href="#m439be92867" x="94.651649" y="450.583991" style="fill: #dc3545; stroke: #dc3545"/>
     <use xlink:href="#m439be92867" x="99.548174" y="390.197393" style="fill: #dc3545; stroke: #dc3545"/>
     <use xlink:href="#m439be92867" x="104.444669" y="387.822439" style="fill: #dc3545; stroke: #dc3545"/>
     <use xlink:href="#m439be92867" x="109.341194" y="407.748381" style="fill: #dc3545; stroke: #dc3545"/>
     <use xlink:href="#m439be92867" x="114.237716" y="411.630229" style="fill: #dc3545; stroke: #dc3545"/>
     <use xlink:href="#m439be92867" x="119.134225" y="410.018116" style="fill: #dc3545; stroke: #dc3545"/>
     <use xlink:href="#m439be92867" x="124.030722" y="405.040858" style="fill: #dc3545; stroke: #dc3545"/>
     <use xlink:href="#m439be92867" x="128.927255" y="424.002915" style="fill: #dc3545; stroke: #dc3545"/>
     <use xlink:href="#m439be92867" x="133.823751" y="421.817732" style="fill: #dc3545; stroke: #dc3545"/>
     <use xlink:href="#m439be92867" x="138.72028" y="393.077777" style="fill: #dc3545; stroke: #dc3545"/>
     <use xlink:href="#m439be92867" x="143.616799" y="391.723076" style="fill: #dc3545; stroke: #dc3545"/>
     <use xlink:href="#m439be92867" x="148.513297" y="412.785765" style="fill: #dc3545; stroke: #dc3545"/>
     <use xlink:href="#m439be92867" x="153.409838" y="436.011091" style="fill: #dc3545; stroke: #dc3545"/>
     <use xlink:href="#m439be92867" x="158.306303" y="438.166211" style="fill: #dc3545; stroke: #dc3545"/>
     <use xlink:href="#m439be92867" x="163.20282" y="459.36982" style="fill: #dc3545; stroke: #dc3545"/>
     <use xlink:href="#m439be92867" x="168.099375" y="386.638719" style="fill: #dc3545; stroke: #dc3545"/>
     <use xlink:href="#m439be92867" x="172.995883" y="414.662806" style="fill: #dc3545; stroke: #dc3545"/>
     <use xlink:href="#m439be92867" x="177.892397" y="404.807872" style="fill: #dc3545; stroke: #dc3545"/>
     <use xlink:href="#m439be92867" x="182.788873" y="400.713706" style="fill: #dc3545; stroke: #dc3545"/>
     <use xlink:href="#m439be92867" x="187.685405" y="415.410616" style="fill: #dc3545; stroke: #dc3545"/>
     <use xlink:href="#m439be92867" x="192.581921" y="395.356906" style="fill: #dc3545; stroke: #dc3545"/>
     <use xlink:href="#m439be92867" x="197.478425" y="429.851992" style="fill: #dc3545; stroke: #dc3545"/>
     <use xlink:href="#m439be92867" x="202.374946" y="403.88908" style="fill: #dc3545; stroke: #dc3545"/>
     <use xlink:href="#m439be92867" x="221.960988" y="437.362034" style="fill: #dc3545; stroke: #dc3545"/>
     <use xlink:href="#m439be92867" x="226.857537" y="433.036761" style="fill: #dc3545; stroke: #dc3545"/>
     <use xlink:href="#m439be92867" x="231.754029" y="393.070261" style="fill: #dc3545; stroke: #dc3545"/>
     <use xlink:href="#m439be92867" x="236.650543" y="381.815532" style="fill: #dc3545; stroke: #dc3545"/>
     <use xlink:href="#m439be92867" x="241.547064" y="431.747822" style="fill: #dc3545; stroke: #dc3545"/>
     <use xlink:href="#m439be92867" x="246.443574" y="402.818096" style="fill: #dc3545; stroke: #dc3545"/>
     <use xlink:href="#m439be92867" x="251.340104" y="408.490555" style="fill: #dc3545; stroke: #dc3545"/>
     <use xlink:href="#m439be92867" x="256.236517" y="442.756412" style="fill: #dc3545; stroke: #dc3545"/>
     <use xlink:href="#m439be92867" x="261.133097" y="445.12573" style="fill: #dc3545; stroke: #dc3545"/>
     <use xlink:href="#m439be92867" x="266.029638" y="375.793595" style="fill: #dc3545; stroke: #dc3545"/>
     <use xlink:href="#m439be92867" x="270.926133" y="382.146222" style="fill: #dc3545; stroke: #dc3545"/>
     <use xlink:href="#m439be92867" x="275.822663" y="389.321816" style="fill: #dc3545; stroke: #dc3545"/>
     <use xlink:href="#m439be92867" x="280.719161" y="404.20286" style="fill: #dc3545; stroke: #dc3545"/>
     <use xlink:href="#m439be92867" x="285.615678" y="430.894792" style="fill: #dc3545; stroke: #dc3545"/>
     <use xlink:href="#m439be92867" x="290.512174" y="417.323356" style="fill: #dc3545; stroke: #dc3545"/>
     <use xlink:href="#m439be92867" x="295.408705" y="392.457733" style="fill: #dc3545; stroke: #dc3545"/>
     <use xlink:href="#m439be92867" x="300.30528" y="402.35964" style="fill: #dc3545; stroke: #dc3545"/>
     <use xlink:href="#m439be92867" x="305.201731" y="392.570468" style="fill: #dc3545; stroke: #dc3545"/>
     <use xlink:href="#m439be92867" x="310.098253" y="391.349171" style="fill: #dc3545; stroke: #dc3545"/>
     <use xlink:href="#m439be92867" x="314.994752" y="405.608292" style="fill: #dc3545; stroke: #dc3545"/>
     <use xlink:href="#m439be92867" x="319.891267" y="422.189758" style="fill: #dc3545; stroke: #dc3545"/>
     <use xlink:href="#m439be92867" x="324.787785" y="412.180753" style="fill: #dc3545; stroke: #dc3545"/>
     <use xlink:href="#m439be92867" x="329.684287" y="396.097201" style="fill: #dc3545; stroke: #dc3545"/>
     <use xlink:href="#m439be92867" x="334.580813" y="426.91712" style="fill: #dc3545; stroke: #dc3545"/>
     <use xlink:href="#m439be92867" x="339.477303" y="407.714561" style="fill: #dc3545; stroke: #dc3545"/>
     <use xlink:href="#m439be92867" x="486.373027" y="407.714561" style="fill: #dc3545; stroke: #dc3545"/>
     <use xlink:href="#m439be92867" x="532.070751" y="414.895792" style="fill: #dc3545; stroke: #dc3545"/>
     <use xlink:href="#m439be92867" x="535.338075" y="457.76898" style="fill: #dc3545; stroke: #dc3545"/>
     <use xlink:href="#m439be92867" x="540.234587" y="414.818756" style="fill: #dc3545; stroke: #dc3545"/>
     <use xlink:href="#m439be92867" x="545.131088" y="455.931397" style="fill: #dc3545; stroke: #dc3545"/>
     <use xlink:href="#m439be92867" x="550.0276" y="425.881835" style="fill: #dc3545; stroke: #dc3545"/>
     <use xlink:href="#m439be92867" x="554.924144" y="451.639944" style="fill: #dc3545; stroke: #dc3545"/>
     <use xlink:href="#m439be92867" x="559.82064" y="449.905701" style="fill: #dc3545; stroke: #dc3545"/>
     <use xlink:href="#m439be92867" x="564.717145" y="427.546558" style="fill: #dc3545; stroke: #dc3545"/>
     <use xlink:href="#m439be92867" x="569.613648" y="456.145594" style="fill: #dc3545; stroke: #dc3545"/>
     <use xlink:href="#m439be92867" x="574.510177" y="425.447804" style="fill: #dc3545; stroke: #dc3545"/>
     <use xlink:href="#m439be92867" x="579.406702" y="435.503782" style="fill: #dc3545; stroke: #dc3545"/>
     <use xlink:href="#m439be92867" x="584.303215" y="441.392316" style="fill: #dc3545; stroke: #dc3545"/>
     <use xlink:href="#m439be92867" x="589.199747" y="456.463131" style="fill: #dc3545; stroke: #dc3545"/>
     <use xlink:href="#m439be92867" x="594.096222" y="432.963483" style="fill: #dc3545; stroke: #dc3545"/>
     <use xlink:href="#m439be92867" x="598.99275" y="425.459078" style="fill: #dc3545; stroke: #dc3545"/>
     <use xlink:href="#m439be92867" x="603.889258" y="411.718539" style="fill: #dc3545; stroke: #dc3545"/>
     <use xlink:href="#m439be92867" x="608.785781" y="434.91568" style="fill: #dc3545; stroke: #dc3545"/>
     <use xlink:href="#m439be92867" x="613.682295" y="434.964532" style="fill: #dc3545; stroke: #dc3545"/>
     <use xlink:href="#m439be92867" x="618.578807" y="430.633623" style="fill: #dc3545; stroke: #dc3545"/>
     <use xlink:href="#m439be92867" x="623.47532" y="447.156842" style="fill: #dc3545; stroke: #dc3545"/>
     <use xlink:href="#m439be92867" x="628.371828" y="412.332945" style="fill: #dc3545; stroke: #dc3545"/>
     <use xlink:href="#m439be92867" x="633.268344" y="474.352325" style="fill: #dc3545; stroke: #dc3545"/>
     <use xlink:href="#m439be92867" x="638.164841" y="474.79575" style="fill: #dc3545; stroke: #dc3545"/>
     <use xlink:href="#m439be92867" x="643.061348" y="440.428431" style="fill: #dc3545; stroke: #dc3545"/>
     <use xlink:href="#m439be92867" x="647.957869" y="415.040468" style="fill: #dc3545; stroke: #dc3545"/>
    </g>
   </g>
   <g id="patch_3">
    <path d="M 51.562344 510.837656 
L 51.562344 26.16 
" style="fill: none; stroke: #212529; stroke-width: 0.8; stroke-linejoin: miter; stroke-linecap: square"/>
   </g>
   <g id="patch_4">
    <path d="M 51.562344 510.837656 
L 676.357656 510.837656 
" style="fill: none; stroke: #212529; stroke-width: 0.8; stroke-linejoin: miter; stroke-linecap: square"/>
   </g>
   <g id="patch_5">
    <path d="M 51.562344 26.16 
L 676.357656 26.16 
" style="fill: none; stroke: #212529; stroke-width: 0.8; stroke-linejoin: miter; stroke-linecap: square"/>
   </g>
   <g id="legend_1">
    <g id="patch_6">
     <path d="M 57.393344 70.310952 
L 131.246603 70.310952 
Q 132.912603 70.310952 132.912603 68.644952 
L 132.912603 31.991 
Q 132.912603 30.325 131.246603 30.325 
L 57.393344 30.325 
Q 55.727344 30.325 55.727344 31.991 
L 55.727344 68.644952 
Q 55.727344 70.310952 57.393344 70.310952 
L 57.393344 70.310952 
z
" style="fill: none; opacity: 0.8; stroke: #212529; stroke-linejoin: miter"/>
    </g>
    <g id="line2d_17">
     <path d="M 59.059344 37.070998 
L 67.389344 37.070998 
L 75.719344 37.070998 
" style="fill: none; stroke: #007bff; stroke-width: 1.5; stroke-linecap: square"/>
     <g>
      <use xlink:href="#m79416d272f" x="67.389344" y="37.070998" style="fill: #007bff; stroke: #007bff"/>
     </g>
    </g>
    <g id="text_10">
     <text style="font-size: 8.33px; font-family: 'DejaVu Sans', 'Bitstream Vera Sans', 'Computer Modern Sans Serif', 'Lucida Grande', 'Verdana', 'Geneva', 'Lucid', 'Arial', 'Helvetica', 'Avant Garde', sans-serif; text-anchor: start; fill: #212529" x="82.383344" y="39.986498" transform="rotate(-0 82.383344 39.986498)">Cold Start</text>
    </g>
    <g id="line2d_18">
     <path d="M 59.059344 49.566649 
L 67.389344 49.566649 
L 75.719344 49.566649 
" style="fill: none; stroke: #dc3545; stroke-width: 1.5; stroke-linecap: square"/>
     <g>
      <use xlink:href="#m439be92867" x="67.389344" y="49.566649" style="fill: #dc3545; stroke: #dc3545"/>
     </g>
    </g>
    <g id="text_11">
     <text style="font-size: 8.33px; font-family: 'DejaVu Sans', 'Bitstream Vera Sans', 'Computer Modern Sans Serif', 'Lucida Grande', 'Verdana', 'Geneva', 'Lucid', 'Arial', 'Helvetica', 'Avant Garde', sans-serif; text-anchor: start; fill: #212529" x="82.383344" y="52.482149" transform="rotate(-0 82.383344 52.482149)">Warm Start</text>
    </g>
    <g id="line2d_19">
     <path d="M 59.059344 62.0623 
L 67.389344 62.0623 
L 75.719344 62.0623 
" style="fill: none; stroke-dasharray: 5.55,2.4; stroke-dashoffset: 0; stroke: #ff7f0e; stroke-width: 1.5"/>
    </g>
    <g id="text_12">
     <text style="font-size: 8.33px; font-family: 'DejaVu Sans', 'Bitstream Vera Sans', 'Computer Modern Sans Serif', 'Lucida Grande', 'Verdana', 'Geneva', 'Lucid', 'Arial', 'Helvetica', 'Avant Garde', sans-serif; text-anchor: start; fill: #212529" x="82.383344" y="64.9778" transform="rotate(-0 82.383344 64.9778)">Memory</text>
    </g>
   </g>
  </g>
  <g id="axes_2">
   <g id="matplotlib.axis_3">
    <g id="ytick_6">
     <g id="line2d_20">
      <defs>
       <path id="m08c9b18114" d="M 0 0 
L 3.5 0 
" style="stroke: #212529; stroke-width: 0.8"/>
      </defs>
      <g>
       <use xlink:href="#m08c9b18114" x="676.357656" y="488.806854" style="fill: #212529; stroke: #212529; stroke-width: 0.8"/>
      </g>
     </g>
     <g id="text_13">
      <text style="font-size: 10px; font-family: 'DejaVu Sans', 'Bitstream Vera Sans', 'Computer Modern Sans Serif', 'Lucida Grande', 'Verdana', 'Geneva', 'Lucid', 'Arial', 'Helvetica', 'Avant Garde', sans-serif; text-anchor: start; fill: #ff7f0e" x="683.357656" y="492.605682" transform="rotate(-0 683.357656 492.605682)">71.90</text>
     </g>
    </g>
    <g id="ytick_7">
     <g id="line2d_21">
      <g>
       <use xlink:href="#m08c9b18114" x="676.357656" y="400.683643" style="fill: #212529; stroke: #212529; stroke-width: 0.8"/>
      </g>
     </g>
     <g id="text_14">
      <text style="font-size: 10px; font-family: 'DejaVu Sans', 'Bitstream Vera Sans', 'Computer Modern Sans Serif', 'Lucida Grande', 'Verdana', 'Geneva', 'Lucid', 'Arial', 'Helvetica', 'Avant Garde', sans-serif; text-anchor: start; fill: #ff7f0e" x="683.357656" y="404.482472" transform="rotate(-0 683.357656 404.482472)">71.92</text>
     </g>
    </g>
    <g id="ytick_8">
     <g id="line2d_22">
      <g>
       <use xlink:href="#m08c9b18114" x="676.357656" y="312.560433" style="fill: #212529; stroke: #212529; stroke-width: 0.8"/>
      </g>
     </g>
     <g id="text_15">
      <text style="font-size: 10px; font-family: 'DejaVu Sans', 'Bitstream Vera Sans', 'Computer Modern Sans Serif', 'Lucida Grande', 'Verdana', 'Geneva', 'Lucid', 'Arial', 'Helvetica', 'Avant Garde', sans-serif; text-anchor: start; fill: #ff7f0e" x="683.357656" y="316.359261" transform="rotate(-0 683.357656 316.359261)">71.94</text>
     </g>
    </g>
    <g id="ytick_9">
     <g id="line2d_23">
      <g>
       <use xlink:href="#m08c9b18114" x="676.357656" y="224.437223" style="fill: #212529; stroke: #212529; stroke-width: 0.8"/>
      </g>
     </g>
     <g id="text_16">
      <text style="font-size: 10px; font-family: 'DejaVu Sans', 'Bitstream Vera Sans', 'Computer Modern Sans Serif', 'Lucida Grande', 'Verdana', 'Geneva', 'Lucid', 'Arial', 'Helvetica', 'Avant Garde', sans-serif; text-anchor: start; fill: #ff7f0e" x="683.357656" y="228.236051" transform="rotate(-0 683.357656 228.236051)">71.96</text>
     </g>
    </g>
    <g id="ytick_10">
     <g id="line2d_24">
      <g>
       <use xlink:href="#m08c9b18114" x="676.357656" y="136.314013" style="fill: #212529; stroke: #212529; stroke-width: 0.8"/>
      </g>
     </g>
     <g id="text_17">
      <text style="font-size: 10px; font-family: 'DejaVu Sans', 'Bitstream Vera Sans', 'Computer Modern Sans Serif', 'Lucida Grande', 'Verdana', 'Geneva', 'Lucid', 'Arial', 'Helvetica', 'Avant Garde', sans-serif; text-anchor: start; fill: #ff7f0e" x="683.357656" y="140.112841" transform="rotate(-0 683.357656 140.112841)">71.98</text>
     </g>
    </g>
    <g id="ytick_11">
     <g id="line2d_25">
      <g>
       <use xlink:href="#m08c9b18114" x="676.357656" y="48.190803" style="fill: #212529; stroke: #212529; stroke-width: 0.8"/>
      </g>
     </g>
     <g id="text_18">
      <text style="font-size: 10px; font-family: 'DejaVu Sans', 'Bitstream Vera Sans', 'Computer Modern Sans Serif', 'Lucida Grande', 'Verdana', 'Geneva', 'Lucid', 'Arial', 'Helvetica', 'Avant Garde', sans-serif; text-anchor: start; fill: #ff7f0e" x="683.357656" y="51.989631" transform="rotate(-0 683.357656 51.989631)">72.00</text>
     </g>
    </g>
    <g id="text_19">
     <text style="font-size: 10px; font-family: 'DejaVu Sans', 'Bitstream Vera Sans', 'Computer Modern Sans Serif', 'Lucida Grande', 'Verdana', 'Geneva', 'Lucid', 'Arial', 'Helvetica', 'Avant Garde', sans-serif; text-anchor: middle; fill: #ff7f0e" x="723.584219" y="268.498828" transform="rotate(-90 723.584219 268.498828)">Memory Usage [MB]</text>
    </g>
   </g>
   <g id="line2d_26">
    <path d="M 79.962131 48.190803 
L 84.858636 48.190803 
L 89.755141 48.190803 
L 94.651649 48.190803 
L 99.548174 48.190803 
L 104.444669 48.190803 
L 109.341194 48.190803 
L 114.237716 48.190803 
L 119.134225 48.190803 
L 124.030722 48.190803 
L 128.927255 48.190803 
L 133.823751 48.190803 
L 138.72028 48.190803 
L 143.616799 48.190803 
L 148.513297 48.190803 
L 153.409838 488.806854 
L 158.306303 48.190803 
L 163.20282 48.190803 
L 168.099375 48.190803 
L 172.995883 48.190803 
L 177.892397 48.190803 
L 182.788873 48.190803 
L 187.685405 48.190803 
L 192.581921 48.190803 
L 197.478425 48.190803 
L 202.374946 48.190803 
L 221.960988 48.190803 
L 226.857537 48.190803 
L 231.754029 48.190803 
L 236.650543 48.190803 
L 241.547064 48.190803 
L 246.443574 48.190803 
L 251.340104 48.190803 
L 256.236517 48.190803 
L 261.133097 48.190803 
L 266.029638 48.190803 
L 270.926133 48.190803 
L 275.822663 48.190803 
L 280.719161 48.190803 
L 285.615678 48.190803 
L 290.512174 48.190803 
L 295.408705 48.190803 
L 300.30528 48.190803 
L 305.201731 48.190803 
L 310.098253 48.190803 
L 314.994752 48.190803 
L 319.891267 48.190803 
L 324.787785 48.190803 
L 329.684287 48.190803 
L 334.580813 48.190803 
L 339.477303 48.190803 
L 486.373027 48.190803 
L 532.070751 48.190803 
L 535.338075 48.190803 
L 540.234587 48.190803 
L 545.131088 48.190803 
L 550.0276 48.190803 
L 554.924144 48.190803 
L 559.82064 48.190803 
L 564.717145 48.190803 
L 569.613648 48.190803 
L 574.510177 48.190803 
L 579.406702 48.190803 
L 584.303215 48.190803 
L 589.199747 48.190803 
L 594.096222 48.190803 
L 598.99275 48.190803 
L 603.889258 48.190803 
L 608.785781 48.190803 
L 613.682295 48.190803 
L 618.578807 48.190803 
L 623.47532 48.190803 
L 628.371828 48.190803 
L 633.268344 48.190803 
L 638.164841 48.190803 
L 643.061348 48.190803 
L 647.957869 48.190803 
" clip-path="url(#pc0a71496ec)" style="fill: none; stroke-dasharray: 5.55,2.4; stroke-dashoffset: 0; stroke: #ff7f0e; stroke-width: 1.5"/>
   </g>
   <g id="patch_7">
    <path d="M 676.357656 510.837656 
L 676.357656 26.16 
" style="fill: none; stroke: #ff7f0e; stroke-width: 0.8; stroke-linejoin: miter; stroke-linecap: square"/>
   </g>
   <g id="text_20">
    <text style="font-size: 12px; font-family: 'DejaVu Sans', 'Bitstream Vera Sans', 'Computer Modern Sans Serif', 'Lucida Grande', 'Verdana', 'Geneva', 'Lucid', 'Arial', 'Helvetica', 'Avant Garde', sans-serif; text-anchor: middle; fill: #212529" x="363.96" y="20.16" transform="rotate(-0 363.96 20.16)">dotnet10 (x86_64, image, 256MB, us-east-1)</text>
   </g>
  </g>
 </g>
 <defs>
  <clipPath id="pc0a71496ec">
   <rect x="51.562344" y="26.16" width="624.795313" height="484.677656"/>
  </clipPath>
 </defs>
</svg>
