<?xml version="1.0" encoding="utf-8" standalone="no"?>
<!DOCTYPE svg PUBLIC "-//W3C//DTD SVG 1.1//EN"
  "http://www.w3.org/Graphics/SVG/1.1/DTD/svg11.dtd">
<svg xmlns:xlink="http://www.w3.org/1999/xlink" width="216pt" height="122.4pt" viewBox="0 0 216 122.4" xmlns="http://www.w3.org/2000/svg" version="1.1">
  <style>
    :root {
      --fg-color: #212529;
      --grid-color: rgba(33, 37, 41, 0.1);
    }
    @media (prefers-color-scheme: dark) {
      :root {
        --fg-color: #dee2e6;
        --grid-color: rgba(248, 249, 250, 0.15);
      }
    }
  </style>

 <metadata>
  <rdf:RDF xmlns:dc="http://purl.org/dc/elements/1.1/" xmlns:cc="http://creativecommons.org/ns#" xmlns:rdf="http://www.w3.org/1999/02/22-rdf-syntax-ns#">
   <cc:Work>
    <dc:type rdf:resource="http://purl.org/dc/dcmitype/StillImage"/>
    <dc:date>2026-06-30T04:48:32.750516</dc:date>
    <dc:format>image/svg+xml</dc:format>
    <dc:creator>
     <cc:Agent>
      <dc:title>Matplotlib v3.11.0, https://matplotlib.org/</dc:title>
     </cc:Agent>
    </dc:creator>
   </cc:Work>
  </rdf:RDF>
 </metadata>
 <defs>
  <style type="text/css">*{stroke-linejoin: round; stroke-linecap: butt}</style>
 </defs>
 <g id="figure_1">
  <g id="patch_1">
   <path d="M 0 122.4 
L 216 122.4 
L 216 0 
L 0 0 
L 0 122.4 
z
" style="fill: none; opacity: 0"/>
  </g>
  <g id="axes_1">
   <g id="patch_2">
    <path d="M 31.64 103.4 
L 211 103.4 
L 211 5.968803 
L 31.64 5.968803 
L 31.64 103.4 
z
" style="fill: none; opacity: 0"/>
   </g>
   <g id="matplotlib.axis_1">
    <g id="xtick_1">
     <g id="line2d_1">
      <path d="M 68.627238 103.4 
L 68.627238 5.968803 
" clip-path="url(#p6c015e0c74)" style="fill: none; stroke-dasharray: 2.96,1.28; stroke-dashoffset: 0; stroke: var(--grid-color); stroke-width: 0.8"/>
     </g>
     <g id="line2d_2">
      <defs>
       <path id="m9aaf9f9ad2" d="M 0 0 
L 0 3.5 
" style="stroke: var(--fg-color); stroke-width: 0.8"/>
      </defs>
      <g>
       <use xlink:href="#m9aaf9f9ad2" x="68.627238" y="103.4" style="fill: var(--fg-color); stroke: var(--fg-color); stroke-width: 0.8"/>
      </g>
     </g>
     <g id="text_1">
      <text style="font-size: 7px; font-family: 'DejaVu Sans', 'Bitstream Vera Sans', 'Computer Modern Sans Serif', 'Lucida Grande', 'Verdana', 'Geneva', 'Lucid', 'Arial', 'Helvetica', 'Avant Garde', sans-serif; text-anchor: middle; fill: var(--fg-color)" x="68.627238" y="115.718359" transform="rotate(-0 68.627238 115.718359)">02/2026</text>
     </g>
    </g>
    <g id="xtick_2">
     <g id="line2d_3">
      <path d="M 124.558632 103.4 
L 124.558632 5.968803 
" clip-path="url(#p6c015e0c74)" style="fill: none; stroke-dasharray: 2.96,1.28; stroke-dashoffset: 0; stroke: var(--grid-color); stroke-width: 0.8"/>
     </g>
     <g id="line2d_4">
      <g>
       <use xlink:href="#m9aaf9f9ad2" x="124.558632" y="103.4" style="fill: var(--fg-color); stroke: var(--fg-color); stroke-width: 0.8"/>
      </g>
     </g>
     <g id="text_2">
      <text style="font-size: 7px; font-family: 'DejaVu Sans', 'Bitstream Vera Sans', 'Computer Modern Sans Serif', 'Lucida Grande', 'Verdana', 'Geneva', 'Lucid', 'Arial', 'Helvetica', 'Avant Garde', sans-serif; text-anchor: middle; fill: var(--fg-color)" x="124.558632" y="115.718359" transform="rotate(-0 124.558632 115.718359)">04/2026</text>
     </g>
    </g>
    <g id="xtick_3">
     <g id="line2d_5">
      <path d="M 182.386006 103.4 
L 182.386006 5.968803 
" clip-path="url(#p6c015e0c74)" style="fill: none; stroke-dasharray: 2.96,1.28; stroke-dashoffset: 0; stroke: var(--grid-color); stroke-width: 0.8"/>
     </g>
     <g id="line2d_6">
      <g>
       <use xlink:href="#m9aaf9f9ad2" x="182.386006" y="103.4" style="fill: var(--fg-color); stroke: var(--fg-color); stroke-width: 0.8"/>
      </g>
     </g>
     <g id="text_3">
      <text style="font-size: 7px; font-family: 'DejaVu Sans', 'Bitstream Vera Sans', 'Computer Modern Sans Serif', 'Lucida Grande', 'Verdana', 'Geneva', 'Lucid', 'Arial', 'Helvetica', 'Avant Garde', sans-serif; text-anchor: middle; fill: var(--fg-color)" x="182.386006" y="115.718359" transform="rotate(-0 182.386006 115.718359)">06/2026</text>
     </g>
    </g>
   </g>
   <g id="matplotlib.axis_2">
    <g id="ytick_1">
     <g id="line2d_7">
      <path d="M 31.64 101.192938 
L 211 101.192938 
" clip-path="url(#p6c015e0c74)" style="fill: none; stroke-dasharray: 2.96,1.28; stroke-dashoffset: 0; stroke: var(--grid-color); stroke-width: 0.8"/>
     </g>
     <g id="line2d_8">
      <defs>
       <path id="ma592ca4322" d="M 0 0 
L -3.5 0 
" style="stroke: var(--fg-color); stroke-width: 0.8"/>
      </defs>
      <g>
       <use xlink:href="#ma592ca4322" x="31.64" y="101.192938" style="fill: var(--fg-color); stroke: var(--fg-color); stroke-width: 0.8"/>
      </g>
     </g>
     <g id="text_4">
      <text style="font-size: 7px; font-family: 'DejaVu Sans', 'Bitstream Vera Sans', 'Computer Modern Sans Serif', 'Lucida Grande', 'Verdana', 'Geneva', 'Lucid', 'Arial', 'Helvetica', 'Avant Garde', sans-serif; text-anchor: end; fill: var(--fg-color)" x="24.64" y="103.852118" transform="rotate(-0 24.64 103.852118)">0</text>
     </g>
    </g>
    <g id="ytick_2">
     <g id="line2d_9">
      <path d="M 31.64 70.034049 
L 211 70.034049 
" clip-path="url(#p6c015e0c74)" style="fill: none; stroke-dasharray: 2.96,1.28; stroke-dashoffset: 0; stroke: var(--grid-color); stroke-width: 0.8"/>
     </g>
     <g id="line2d_10">
      <g>
       <use xlink:href="#ma592ca4322" x="31.64" y="70.034049" style="fill: var(--fg-color); stroke: var(--fg-color); stroke-width: 0.8"/>
      </g>
     </g>
     <g id="text_5">
      <text style="font-size: 7px; font-family: 'DejaVu Sans', 'Bitstream Vera Sans', 'Computer Modern Sans Serif', 'Lucida Grande', 'Verdana', 'Geneva', 'Lucid', 'Arial', 'Helvetica', 'Avant Garde', sans-serif; text-anchor: end; fill: var(--fg-color)" x="24.64" y="72.693229" transform="rotate(-0 24.64 72.693229)">20</text>
     </g>
    </g>
    <g id="ytick_3">
     <g id="line2d_11">
      <path d="M 31.64 38.87516 
L 211 38.87516 
" clip-path="url(#p6c015e0c74)" style="fill: none; stroke-dasharray: 2.96,1.28; stroke-dashoffset: 0; stroke: var(--grid-color); stroke-width: 0.8"/>
     </g>
     <g id="line2d_12">
      <g>
       <use xlink:href="#ma592ca4322" x="31.64" y="38.87516" style="fill: var(--fg-color); stroke: var(--fg-color); stroke-width: 0.8"/>
      </g>
     </g>
     <g id="text_6">
      <text style="font-size: 7px; font-family: 'DejaVu Sans', 'Bitstream Vera Sans', 'Computer Modern Sans Serif', 'Lucida Grande', 'Verdana', 'Geneva', 'Lucid', 'Arial', 'Helvetica', 'Avant Garde', sans-serif; text-anchor: end; fill: var(--fg-color)" x="24.64" y="41.53434" transform="rotate(-0 24.64 41.53434)">40</text>
     </g>
    </g>
    <g id="ytick_4">
     <g id="line2d_13">
      <path d="M 31.64 7.716272 
L 211 7.716272 
" clip-path="url(#p6c015e0c74)" style="fill: none; stroke-dasharray: 2.96,1.28; stroke-dashoffset: 0; stroke: var(--grid-color); stroke-width: 0.8"/>
     </g>
     <g id="line2d_14">
      <g>
       <use xlink:href="#ma592ca4322" x="31.64" y="7.716272" style="fill: var(--fg-color); stroke: var(--fg-color); stroke-width: 0.8"/>
      </g>
     </g>
     <g id="text_7">
      <text style="font-size: 7px; font-family: 'DejaVu Sans', 'Bitstream Vera Sans', 'Computer Modern Sans Serif', 'Lucida Grande', 'Verdana', 'Geneva', 'Lucid', 'Arial', 'Helvetica', 'Avant Garde', sans-serif; text-anchor: end; fill: var(--fg-color)" x="24.64" y="10.375451" transform="rotate(-0 24.64 10.375451)">60</text>
     </g>
    </g>
    <g id="text_8">
     <text style="font-size: 7px; font-family: 'DejaVu Sans', 'Bitstream Vera Sans', 'Computer Modern Sans Serif', 'Lucida Grande', 'Verdana', 'Geneva', 'Lucid', 'Arial', 'Helvetica', 'Avant Garde', sans-serif; text-anchor: middle; fill: var(--fg-color)" x="10.050859" y="54.684402" transform="rotate(-90 10.050859 54.684402)">ms</text>
    </g>
   </g>
   <g id="line2d_15">
    <path d="M 39.792727 20.960357 
L 41.100981 18.505037 
L 41.688656 19.748277 
L 42.636649 19.126657 
L 43.584641 18.771445 
L 44.532636 11.156213 
L 45.480623 21.525891 
L 46.428611 20.591124 
L 47.376592 23.100973 
L 48.324591 20.33718 
L 49.272583 18.667063 
L 50.220574 20.734455 
L 51.168564 24.839639 
L 52.116549 20.742245 
L 53.064541 19.100172 
L 54.012533 20.371454 
L 54.960516 20.077003 
L 55.908509 23.305064 
L 56.856499 18.19968 
L 57.804489 23.325317 
L 58.752478 25.860093 
L 59.700467 21.965231 
L 60.64846 15.239585 
L 61.596444 25.690277 
L 62.544432 26.082879 
L 63.492429 21.136405 
L 64.440417 21.695707 
L 65.388409 20.731339 
L 66.336395 22.685002 
L 67.284367 20.721992 
L 68.232376 19.209228 
L 69.180361 25.574989 
L 70.128357 19.858891 
L 71.076344 19.961715 
L 72.024336 27.399342 
L 72.97232 22.755109 
L 73.920319 24.130774 
L 74.868295 22.650727 
L 75.816291 22.917136 
L 76.764282 19.293357 
L 77.712274 15.78954 
L 78.660247 16.002978 
L 79.608251 23.724151 
L 80.556225 21.491616 
L 81.504231 24.587252 
L 82.452221 23.242746 
L 83.400212 21.306221 
L 84.348199 25.335065 
L 85.296195 24.41432 
L 94.970475 21.684801 
L 95.724369 23.805164 
L 96.672377 22.596199 
L 97.620366 26.215304 
L 98.56836 21.058508 
L 99.516347 22.722392 
L 100.464334 20.37457 
L 101.412323 25.445679 
L 102.360311 25.078004 
L 103.308299 24.574788 
L 104.256292 20.165806 
L 105.204278 29.560211 
L 106.15227 17.900554 
L 107.100261 25.159018 
L 108.04825 21.728424 
L 108.996237 22.45131 
L 109.944231 25.713646 
L 110.892217 24.942463 
L 111.84021 24.652686 
L 112.788201 22.907788 
L 113.736187 27.474123 
L 114.684183 23.97498 
L 115.632163 23.56524 
L 116.580154 18.568913 
L 117.528151 19.227923 
L 118.47614 24.317728 
L 119.42413 23.082278 
L 120.372113 17.874069 
L 121.320106 24.25541 
L 122.268096 22.22385 
L 123.216085 17.109119 
L 124.164076 26.547146 
L 127.956033 22.17867 
L 128.904029 18.37417 
L 129.852015 22.963874 
L 130.800005 21.61002 
L 131.747996 20.918293 
L 132.695985 18.430256 
L 133.643978 14.130329 
L 134.591949 21.73154 
L 135.539952 23.34557 
L 136.487947 21.267272 
L 137.435933 20.695507 
L 138.383926 23.281695 
L 139.331913 15.647767 
L 140.279903 20.075445 
L 141.22789 21.666106 
L 142.175883 18.667063 
L 143.123885 21.074087 
L 144.071862 15.133645 
L 145.019854 20.474279 
L 145.967841 16.394022 
L 146.915831 18.945935 
L 147.863822 19.198322 
L 148.811809 20.225008 
L 149.759801 15.945334 
L 150.707787 16.143193 
L 179.147543 16.143193 
L 187.994854 20.429098 
L 188.627425 21.642737 
L 189.575414 13.024188 
L 190.523402 17.274261 
L 191.471391 19.07836 
L 192.419387 11.313565 
L 193.367373 16.362863 
L 194.315361 17.366179 
L 195.263349 19.391507 
L 196.211342 10.397494 
L 197.159334 15.102486 
L 198.107324 16.513984 
L 199.055317 16.629272 
L 200.0033 19.757624 
L 200.951292 17.810194 
L 201.899281 19.274661 
L 202.847273 17.484583 
" clip-path="url(#p6c015e0c74)" style="fill: none; stroke: #339af0; stroke-width: 1.2; stroke-linecap: square"/>
   </g>
   <g id="line2d_16">
    <path d="M 39.792727 98.661278 
L 41.100981 98.377732 
L 41.688656 98.754755 
L 42.636649 98.787472 
L 43.584641 98.676858 
L 44.532636 98.693995 
L 45.480623 98.711133 
L 46.428611 98.68309 
L 47.376592 98.700227 
L 48.324591 98.838884 
L 49.272583 98.740733 
L 50.220574 98.722038 
L 51.168564 98.832652 
L 52.116549 98.673742 
L 53.064541 98.701785 
L 54.012533 98.623888 
L 54.960516 98.631677 
L 55.908509 98.787472 
L 56.856499 98.5086 
L 57.804489 98.644141 
L 58.752478 98.78903 
L 59.700467 98.689321 
L 60.64846 98.625446 
L 61.596444 98.898086 
L 62.544432 98.845116 
L 63.492429 98.722038 
L 64.440417 98.560012 
L 65.388409 98.745407 
L 66.336395 98.866927 
L 67.284367 98.679974 
L 68.232376 98.669068 
L 69.180361 98.73606 
L 70.128357 98.792146 
L 71.076344 98.937034 
L 72.024336 98.958846 
L 72.97232 98.919897 
L 73.920319 98.898086 
L 74.868295 98.729828 
L 75.816291 98.924571 
L 76.764282 98.820189 
L 77.712274 98.464977 
L 78.660247 98.648815 
L 79.608251 98.732944 
L 80.556225 98.803051 
L 81.504231 98.862253 
L 82.452221 98.768776 
L 83.400212 98.924571 
L 84.348199 98.717364 
L 85.296195 98.709575 
L 94.970475 98.718922 
L 95.724369 98.827978 
L 96.672377 98.627004 
L 97.620366 98.859137 
L 98.56836 98.639467 
L 99.516347 98.893412 
L 100.464334 98.740733 
L 101.412323 98.863811 
L 102.360311 98.913665 
L 103.308299 98.739176 
L 104.256292 98.584939 
L 105.204278 98.971309 
L 106.15227 98.519505 
L 107.100261 98.827978 
L 108.04825 98.843558 
L 108.996237 98.799935 
L 109.944231 98.838884 
L 110.892217 98.608308 
L 111.84021 98.870043 
L 112.788201 98.785914 
L 113.736187 98.838884 
L 114.684183 98.820189 
L 115.632163 98.754755 
L 116.580154 98.725154 
L 117.528151 98.544432 
L 118.47614 98.82642 
L 119.42413 98.893412 
L 120.372113 98.689321 
L 121.320106 98.698669 
L 122.268096 98.655047 
L 123.216085 98.678416 
L 124.164076 98.863811 
L 127.956033 98.611424 
L 128.904029 98.768776 
L 129.852015 98.693995 
L 130.800005 98.681532 
L 131.747996 98.469651 
L 132.695985 98.309183 
L 133.643978 98.634793 
L 134.591949 98.757871 
L 135.539952 98.630119 
L 136.487947 98.413565 
L 137.435933 98.271792 
L 138.383926 98.762545 
L 139.331913 98.45563 
L 140.279903 98.66751 
L 141.22789 98.765661 
L 142.175883 98.633235 
L 143.123885 98.670626 
L 144.071862 97.042574 
L 145.019854 98.679974 
L 145.967841 98.385522 
L 146.915831 98.608308 
L 147.863822 98.760987 
L 148.811809 98.718922 
L 149.759801 98.539759 
L 150.707787 98.295161 
L 179.147543 98.295161 
L 187.994854 98.676858 
L 188.627425 98.750081 
L 189.575414 98.26556 
L 190.523402 98.625446 
L 191.471391 98.692437 
L 192.419387 98.287372 
L 193.367373 98.681532 
L 194.315361 98.636351 
L 195.263349 98.256213 
L 196.211342 98.218822 
L 197.159334 98.217264 
L 198.107324 98.496136 
L 199.055317 98.43226 
L 200.0033 98.584939 
L 200.951292 98.673742 
L 201.899281 98.295161 
L 202.847273 96.989604 
" clip-path="url(#p6c015e0c74)" style="fill: none; stroke: #ff6b6b; stroke-width: 1.2; stroke-linecap: square"/>
   </g>
   <g id="patch_3">
    <path d="M 31.64 103.4 
L 31.64 5.968803 
" style="fill: none; stroke: var(--fg-color); stroke-width: 0.8; stroke-linejoin: miter; stroke-linecap: square"/>
   </g>
   <g id="patch_4">
    <path d="M 31.64 103.4 
L 211 103.4 
" style="fill: none; stroke: var(--fg-color); stroke-width: 0.8; stroke-linejoin: miter; stroke-linecap: square"/>
   </g>
  </g>
 </g>
 <defs>
  <clipPath id="p6c015e0c74">
   <rect x="31.64" y="5.968803" width="179.36" height="97.431197"/>
  </clipPath>
 </defs>
</svg>
