<?xml version="1.0" encoding="utf-8" standalone="no"?>
<!DOCTYPE svg PUBLIC "-//W3C//DTD SVG 1.1//EN"
  "http://www.w3.org/Graphics/SVG/1.1/DTD/svg11.dtd">
<svg xmlns:xlink="http://www.w3.org/1999/xlink" width="737.28pt" height="552.96pt" viewBox="0 0 737.28 552.96" xmlns="http://www.w3.org/2000/svg" version="1.1">
 <metadata>
  <rdf:RDF xmlns:dc="http://purl.org/dc/elements/1.1/" xmlns:cc="http://creativecommons.org/ns#" xmlns:rdf="http://www.w3.org/1999/02/22-rdf-syntax-ns#">
   <cc:Work>
    <dc:type rdf:resource="http://purl.org/dc/dcmitype/StillImage"/>
    <dc:date>2026-06-30T15:36:51.119448</dc:date>
    <dc:format>image/svg+xml</dc:format>
    <dc:creator>
     <cc:Agent>
      <dc:title>Matplotlib v3.11.0, https://matplotlib.org/</dc:title>
     </cc:Agent>
    </dc:creator>
   </cc:Work>
  </rdf:RDF>
 </metadata>
 <defs>
  <style type="text/css">*{stroke-linejoin: round; stroke-linecap: butt}</style>
 </defs>
 <g id="figure_1">
  <g id="patch_1">
   <path d="M 0 552.96 
L 737.28 552.96 
L 737.28 0 
L 0 0 
z
" style="fill: #ffffff"/>
  </g>
  <g id="axes_1">
   <g id="patch_2">
    <path d="M 51.562344 510.837656 
L 682.837656 510.837656 
L 682.837656 26.16 
L 51.562344 26.16 
z
" style="fill: #ffffff"/>
   </g>
   <g id="matplotlib.axis_1">
    <g id="xtick_1">
     <g id="line2d_1">
      <path d="M 205.998164 510.837656 
L 205.998164 26.16 
" clip-path="url(#p0dce85591a)" style="fill: none; stroke-dasharray: 2.96,1.28; stroke-dashoffset: 0; stroke: #dee2e6; stroke-width: 0.8"/>
     </g>
     <g id="line2d_2">
      <defs>
       <path id="m7bb1756745" d="M 0 0 
L 0 3.5 
" style="stroke: #212529; stroke-width: 0.8"/>
      </defs>
      <g>
       <use xlink:href="#m7bb1756745" x="205.998164" y="510.837656" style="fill: #212529; stroke: #212529; stroke-width: 0.8"/>
      </g>
     </g>
     <g id="text_1">
      <text style="font-size: 10px; font-family: 'DejaVu Sans', 'Bitstream Vera Sans', 'Computer Modern Sans Serif', 'Lucida Grande', 'Verdana', 'Geneva', 'Lucid', 'Arial', 'Helvetica', 'Avant Garde', sans-serif; text-anchor: middle; fill: #212529" x="205.998164" y="525.435313" transform="rotate(-0 205.998164 525.435313)">04/2026</text>
     </g>
    </g>
    <g id="xtick_2">
     <g id="line2d_3">
      <path d="M 656.202163 510.837656 
L 656.202163 26.16 
" clip-path="url(#p0dce85591a)" style="fill: none; stroke-dasharray: 2.96,1.28; stroke-dashoffset: 0; stroke: #dee2e6; stroke-width: 0.8"/>
     </g>
     <g id="line2d_4">
      <g>
       <use xlink:href="#m7bb1756745" x="656.202163" y="510.837656" style="fill: #212529; stroke: #212529; stroke-width: 0.8"/>
      </g>
     </g>
     <g id="text_2">
      <text style="font-size: 10px; font-family: 'DejaVu Sans', 'Bitstream Vera Sans', 'Computer Modern Sans Serif', 'Lucida Grande', 'Verdana', 'Geneva', 'Lucid', 'Arial', 'Helvetica', 'Avant Garde', sans-serif; text-anchor: middle; fill: #212529" x="656.202163" y="525.435313" transform="rotate(-0 656.202163 525.435313)">07/2026</text>
     </g>
    </g>
    <g id="text_3">
     <text style="font-size: 10px; font-family: 'DejaVu Sans', 'Bitstream Vera Sans', 'Computer Modern Sans Serif', 'Lucida Grande', 'Verdana', 'Geneva', 'Lucid', 'Arial', 'Helvetica', 'Avant Garde', sans-serif; text-anchor: middle; fill: #212529" x="367.2" y="539.436094" transform="rotate(-0 367.2 539.436094)">Time</text>
    </g>
   </g>
   <g id="matplotlib.axis_2">
    <g id="ytick_1">
     <g id="line2d_5">
      <path d="M 51.562344 494.018499 
L 682.837656 494.018499 
" clip-path="url(#p0dce85591a)" style="fill: none; stroke-dasharray: 2.96,1.28; stroke-dashoffset: 0; stroke: #dee2e6; stroke-width: 0.8"/>
     </g>
     <g id="line2d_6">
      <defs>
       <path id="ma2466ae479" d="M 0 0 
L -3.5 0 
" style="stroke: #212529; stroke-width: 0.8"/>
      </defs>
      <g>
       <use xlink:href="#ma2466ae479" x="51.562344" y="494.018499" style="fill: #212529; stroke: #212529; stroke-width: 0.8"/>
      </g>
     </g>
     <g id="text_4">
      <text style="font-size: 10px; font-family: 'DejaVu Sans', 'Bitstream Vera Sans', 'Computer Modern Sans Serif', 'Lucida Grande', 'Verdana', 'Geneva', 'Lucid', 'Arial', 'Helvetica', 'Avant Garde', sans-serif; text-anchor: end; fill: #212529" x="44.562344" y="497.817327" transform="rotate(-0 44.562344 497.817327)">0</text>
     </g>
    </g>
    <g id="ytick_2">
     <g id="line2d_7">
      <path d="M 51.562344 437.9793 
L 682.837656 437.9793 
" clip-path="url(#p0dce85591a)" style="fill: none; stroke-dasharray: 2.96,1.28; stroke-dashoffset: 0; stroke: #dee2e6; stroke-width: 0.8"/>
     </g>
     <g id="line2d_8">
      <g>
       <use xlink:href="#ma2466ae479" x="51.562344" y="437.9793" style="fill: #212529; stroke: #212529; stroke-width: 0.8"/>
      </g>
     </g>
     <g id="text_5">
      <text style="font-size: 10px; font-family: 'DejaVu Sans', 'Bitstream Vera Sans', 'Computer Modern Sans Serif', 'Lucida Grande', 'Verdana', 'Geneva', 'Lucid', 'Arial', 'Helvetica', 'Avant Garde', sans-serif; text-anchor: end; fill: #212529" x="44.562344" y="441.778128" transform="rotate(-0 44.562344 441.778128)">25</text>
     </g>
    </g>
    <g id="ytick_3">
     <g id="line2d_9">
      <path d="M 51.562344 381.9401 
L 682.837656 381.9401 
" clip-path="url(#p0dce85591a)" style="fill: none; stroke-dasharray: 2.96,1.28; stroke-dashoffset: 0; stroke: #dee2e6; stroke-width: 0.8"/>
     </g>
     <g id="line2d_10">
      <g>
       <use xlink:href="#ma2466ae479" x="51.562344" y="381.9401" style="fill: #212529; stroke: #212529; stroke-width: 0.8"/>
      </g>
     </g>
     <g id="text_6">
      <text style="font-size: 10px; font-family: 'DejaVu Sans', 'Bitstream Vera Sans', 'Computer Modern Sans Serif', 'Lucida Grande', 'Verdana', 'Geneva', 'Lucid', 'Arial', 'Helvetica', 'Avant Garde', sans-serif; text-anchor: end; fill: #212529" x="44.562344" y="385.738928" transform="rotate(-0 44.562344 385.738928)">50</text>
     </g>
    </g>
    <g id="ytick_4">
     <g id="line2d_11">
      <path d="M 51.562344 325.900901 
L 682.837656 325.900901 
" clip-path="url(#p0dce85591a)" style="fill: none; stroke-dasharray: 2.96,1.28; stroke-dashoffset: 0; stroke: #dee2e6; stroke-width: 0.8"/>
     </g>
     <g id="line2d_12">
      <g>
       <use xlink:href="#ma2466ae479" x="51.562344" y="325.900901" style="fill: #212529; stroke: #212529; stroke-width: 0.8"/>
      </g>
     </g>
     <g id="text_7">
      <text style="font-size: 10px; font-family: 'DejaVu Sans', 'Bitstream Vera Sans', 'Computer Modern Sans Serif', 'Lucida Grande', 'Verdana', 'Geneva', 'Lucid', 'Arial', 'Helvetica', 'Avant Garde', sans-serif; text-anchor: end; fill: #212529" x="44.562344" y="329.699729" transform="rotate(-0 44.562344 329.699729)">75</text>
     </g>
    </g>
    <g id="ytick_5">
     <g id="line2d_13">
      <path d="M 51.562344 269.861701 
L 682.837656 269.861701 
" clip-path="url(#p0dce85591a)" style="fill: none; stroke-dasharray: 2.96,1.28; stroke-dashoffset: 0; stroke: #dee2e6; stroke-width: 0.8"/>
     </g>
     <g id="line2d_14">
      <g>
       <use xlink:href="#ma2466ae479" x="51.562344" y="269.861701" style="fill: #212529; stroke: #212529; stroke-width: 0.8"/>
      </g>
     </g>
     <g id="text_8">
      <text style="font-size: 10px; font-family: 'DejaVu Sans', 'Bitstream Vera Sans', 'Computer Modern Sans Serif', 'Lucida Grande', 'Verdana', 'Geneva', 'Lucid', 'Arial', 'Helvetica', 'Avant Garde', sans-serif; text-anchor: end; fill: #212529" x="44.562344" y="273.66053" transform="rotate(-0 44.562344 273.66053)">100</text>
     </g>
    </g>
    <g id="ytick_6">
     <g id="line2d_15">
      <path d="M 51.562344 213.822502 
L 682.837656 213.822502 
" clip-path="url(#p0dce85591a)" style="fill: none; stroke-dasharray: 2.96,1.28; stroke-dashoffset: 0; stroke: #dee2e6; stroke-width: 0.8"/>
     </g>
     <g id="line2d_16">
      <g>
       <use xlink:href="#ma2466ae479" x="51.562344" y="213.822502" style="fill: #212529; stroke: #212529; stroke-width: 0.8"/>
      </g>
     </g>
     <g id="text_9">
      <text style="font-size: 10px; font-family: 'DejaVu Sans', 'Bitstream Vera Sans', 'Computer Modern Sans Serif', 'Lucida Grande', 'Verdana', 'Geneva', 'Lucid', 'Arial', 'Helvetica', 'Avant Garde', sans-serif; text-anchor: end; fill: #212529" x="44.562344" y="217.62133" transform="rotate(-0 44.562344 217.62133)">125</text>
     </g>
    </g>
    <g id="ytick_7">
     <g id="line2d_17">
      <path d="M 51.562344 157.783303 
L 682.837656 157.783303 
" clip-path="url(#p0dce85591a)" style="fill: none; stroke-dasharray: 2.96,1.28; stroke-dashoffset: 0; stroke: #dee2e6; stroke-width: 0.8"/>
     </g>
     <g id="line2d_18">
      <g>
       <use xlink:href="#ma2466ae479" x="51.562344" y="157.783303" style="fill: #212529; stroke: #212529; stroke-width: 0.8"/>
      </g>
     </g>
     <g id="text_10">
      <text style="font-size: 10px; font-family: 'DejaVu Sans', 'Bitstream Vera Sans', 'Computer Modern Sans Serif', 'Lucida Grande', 'Verdana', 'Geneva', 'Lucid', 'Arial', 'Helvetica', 'Avant Garde', sans-serif; text-anchor: end; fill: #212529" x="44.562344" y="161.582131" transform="rotate(-0 44.562344 161.582131)">150</text>
     </g>
    </g>
    <g id="ytick_8">
     <g id="line2d_19">
      <path d="M 51.562344 101.744103 
L 682.837656 101.744103 
" clip-path="url(#p0dce85591a)" style="fill: none; stroke-dasharray: 2.96,1.28; stroke-dashoffset: 0; stroke: #dee2e6; stroke-width: 0.8"/>
     </g>
     <g id="line2d_20">
      <g>
       <use xlink:href="#ma2466ae479" x="51.562344" y="101.744103" style="fill: #212529; stroke: #212529; stroke-width: 0.8"/>
      </g>
     </g>
     <g id="text_11">
      <text style="font-size: 10px; font-family: 'DejaVu Sans', 'Bitstream Vera Sans', 'Computer Modern Sans Serif', 'Lucida Grande', 'Verdana', 'Geneva', 'Lucid', 'Arial', 'Helvetica', 'Avant Garde', sans-serif; text-anchor: end; fill: #212529" x="44.562344" y="105.542931" transform="rotate(-0 44.562344 105.542931)">175</text>
     </g>
    </g>
    <g id="ytick_9">
     <g id="line2d_21">
      <path d="M 51.562344 45.704904 
L 682.837656 45.704904 
" clip-path="url(#p0dce85591a)" style="fill: none; stroke-dasharray: 2.96,1.28; stroke-dashoffset: 0; stroke: #dee2e6; stroke-width: 0.8"/>
     </g>
     <g id="line2d_22">
      <g>
       <use xlink:href="#ma2466ae479" x="51.562344" y="45.704904" style="fill: #212529; stroke: #212529; stroke-width: 0.8"/>
      </g>
     </g>
     <g id="text_12">
      <text style="font-size: 10px; font-family: 'DejaVu Sans', 'Bitstream Vera Sans', 'Computer Modern Sans Serif', 'Lucida Grande', 'Verdana', 'Geneva', 'Lucid', 'Arial', 'Helvetica', 'Avant Garde', sans-serif; text-anchor: end; fill: #212529" x="44.562344" y="49.503732" transform="rotate(-0 44.562344 49.503732)">200</text>
     </g>
    </g>
    <g id="text_13">
     <text style="font-size: 10px; font-family: 'DejaVu Sans', 'Bitstream Vera Sans', 'Computer Modern Sans Serif', 'Lucida Grande', 'Verdana', 'Geneva', 'Lucid', 'Arial', 'Helvetica', 'Avant Garde', sans-serif; text-anchor: middle; fill: #212529" x="19.0725" y="268.498828" transform="rotate(-90 19.0725 268.498828)">Duration [ms]</text>
    </g>
   </g>
   <g id="line2d_23">
    <path d="M 80.256676 372.725014 
L 85.203965 372.1041 
L 90.151254 390.171138 
L 95.098545 372.541206 
L 100.045854 379.398162 
L 104.993133 379.416095 
L 109.940441 373.020901 
L 114.887747 368.109626 
L 119.83504 361.118175 
L 124.78232 384.078556 
L 129.729637 377.439032 
L 134.676916 368.407754 
L 139.62423 376.755354 
L 144.571533 374.300837 
L 149.518813 386.889482 
L 154.466139 381.437989 
L 159.413386 357.527184 
L 164.360688 378.671894 
L 169.308026 371.749932 
L 174.255319 377.959076 
L 179.202617 368.84486 
L 184.149875 384.035966 
L 189.097191 379.570763 
L 194.044491 386.620494 
L 198.991779 381.485062 
L 203.939083 371.144709 
L 223.72826 375.876659 
L 228.675593 382.345824 
L 233.622868 381.050198 
L 238.570166 371.942707 
L 243.517471 378.976747 
L 248.464764 389.543499 
L 253.412078 376.959336 
L 258.359274 372.505341 
L 263.306639 367.699419 
L 268.253963 370.750193 
L 273.201241 381.848196 
L 278.148556 383.092266 
L 283.095837 378.35135 
L 288.043138 379.963037 
L 292.990417 374.370325 
L 297.937732 379.274876 
L 302.885091 367.553717 
L 307.832326 368.253086 
L 312.779631 371.373349 
L 317.726914 358.186204 
L 322.674213 368.694675 
L 327.621515 374.256005 
L 332.5688 377.82234 
L 337.516109 368.344991 
L 342.463383 371.133501 
L 490.882621 371.133501 
L 537.054295 48.190803 
L 540.355505 380.283582 
L 545.302801 369.741487 
L 550.250086 371.855286 
L 555.197381 374.971066 
L 560.144708 369.770628 
L 565.091988 375.979771 
L 570.039277 330.978052 
L 574.986564 375.677159 
L 579.933876 387.14278 
L 584.881185 386.844651 
L 589.828481 384.479797 
L 594.775798 388.727568 
L 599.723056 383.688523 
L 604.670368 384.930352 
L 609.617659 387.978884 
L 614.564967 380.413593 
L 619.512264 374.23359 
L 624.45956 365.493716 
L 629.406856 372.285667 
L 634.354147 382.056662 
L 639.301447 373.865972 
L 644.248728 383.91268 
L 649.196018 201.852529 
L 654.143324 367.217482 
" clip-path="url(#p0dce85591a)" style="fill: none; stroke: #007bff; stroke-width: 1.5; stroke-linecap: square"/>
    <defs>
     <path id="mbc17444204" d="M 0 2 
C 0.530406 2 1.03916 1.789267 1.414214 1.414214 
C 1.789267 1.03916 2 0.530406 2 0 
C 2 -0.530406 1.789267 -1.03916 1.414214 -1.414214 
C 1.03916 -1.789267 0.530406 -2 0 -2 
C -0.530406 -2 -1.03916 -1.789267 -1.414214 -1.414214 
C -1.789267 -1.03916 -2 -0.530406 -2 0 
C -2 0.530406 -1.789267 1.03916 -1.414214 1.414214 
C -1.03916 1.789267 -0.530406 2 0 2 
z
" style="stroke: #007bff"/>
    </defs>
    <g clip-path="url(#p0dce85591a)">
     <use xlink:href="#mbc17444204" x="80.256676" y="372.725014" style="fill: #007bff; stroke: #007bff"/>
     <use xlink:href="#mbc17444204" x="85.203965" y="372.1041" style="fill: #007bff; stroke: #007bff"/>
     <use xlink:href="#mbc17444204" x="90.151254" y="390.171138" style="fill: #007bff; stroke: #007bff"/>
     <use xlink:href="#mbc17444204" x="95.098545" y="372.541206" style="fill: #007bff; stroke: #007bff"/>
     <use xlink:href="#mbc17444204" x="100.045854" y="379.398162" style="fill: #007bff; stroke: #007bff"/>
     <use xlink:href="#mbc17444204" x="104.993133" y="379.416095" style="fill: #007bff; stroke: #007bff"/>
     <use xlink:href="#mbc17444204" x="109.940441" y="373.020901" style="fill: #007bff; stroke: #007bff"/>
     <use xlink:href="#mbc17444204" x="114.887747" y="368.109626" style="fill: #007bff; stroke: #007bff"/>
     <use xlink:href="#mbc17444204" x="119.83504" y="361.118175" style="fill: #007bff; stroke: #007bff"/>
     <use xlink:href="#mbc17444204" x="124.78232" y="384.078556" style="fill: #007bff; stroke: #007bff"/>
     <use xlink:href="#mbc17444204" x="129.729637" y="377.439032" style="fill: #007bff; stroke: #007bff"/>
     <use xlink:href="#mbc17444204" x="134.676916" y="368.407754" style="fill: #007bff; stroke: #007bff"/>
     <use xlink:href="#mbc17444204" x="139.62423" y="376.755354" style="fill: #007bff; stroke: #007bff"/>
     <use xlink:href="#mbc17444204" x="144.571533" y="374.300837" style="fill: #007bff; stroke: #007bff"/>
     <use xlink:href="#mbc17444204" x="149.518813" y="386.889482" style="fill: #007bff; stroke: #007bff"/>
     <use xlink:href="#mbc17444204" x="154.466139" y="381.437989" style="fill: #007bff; stroke: #007bff"/>
     <use xlink:href="#mbc17444204" x="159.413386" y="357.527184" style="fill: #007bff; stroke: #007bff"/>
     <use xlink:href="#mbc17444204" x="164.360688" y="378.671894" style="fill: #007bff; stroke: #007bff"/>
     <use xlink:href="#mbc17444204" x="169.308026" y="371.749932" style="fill: #007bff; stroke: #007bff"/>
     <use xlink:href="#mbc17444204" x="174.255319" y="377.959076" style="fill: #007bff; stroke: #007bff"/>
     <use xlink:href="#mbc17444204" x="179.202617" y="368.84486" style="fill: #007bff; stroke: #007bff"/>
     <use xlink:href="#mbc17444204" x="184.149875" y="384.035966" style="fill: #007bff; stroke: #007bff"/>
     <use xlink:href="#mbc17444204" x="189.097191" y="379.570763" style="fill: #007bff; stroke: #007bff"/>
     <use xlink:href="#mbc17444204" x="194.044491" y="386.620494" style="fill: #007bff; stroke: #007bff"/>
     <use xlink:href="#mbc17444204" x="198.991779" y="381.485062" style="fill: #007bff; stroke: #007bff"/>
     <use xlink:href="#mbc17444204" x="203.939083" y="371.144709" style="fill: #007bff; stroke: #007bff"/>
     <use xlink:href="#mbc17444204" x="223.72826" y="375.876659" style="fill: #007bff; stroke: #007bff"/>
     <use xlink:href="#mbc17444204" x="228.675593" y="382.345824" style="fill: #007bff; stroke: #007bff"/>
     <use xlink:href="#mbc17444204" x="233.622868" y="381.050198" style="fill: #007bff; stroke: #007bff"/>
     <use xlink:href="#mbc17444204" x="238.570166" y="371.942707" style="fill: #007bff; stroke: #007bff"/>
     <use xlink:href="#mbc17444204" x="243.517471" y="378.976747" style="fill: #007bff; stroke: #007bff"/>
     <use xlink:href="#mbc17444204" x="248.464764" y="389.543499" style="fill: #007bff; stroke: #007bff"/>
     <use xlink:href="#mbc17444204" x="253.412078" y="376.959336" style="fill: #007bff; stroke: #007bff"/>
     <use xlink:href="#mbc17444204" x="258.359274" y="372.505341" style="fill: #007bff; stroke: #007bff"/>
     <use xlink:href="#mbc17444204" x="263.306639" y="367.699419" style="fill: #007bff; stroke: #007bff"/>
     <use xlink:href="#mbc17444204" x="268.253963" y="370.750193" style="fill: #007bff; stroke: #007bff"/>
     <use xlink:href="#mbc17444204" x="273.201241" y="381.848196" style="fill: #007bff; stroke: #007bff"/>
     <use xlink:href="#mbc17444204" x="278.148556" y="383.092266" style="fill: #007bff; stroke: #007bff"/>
     <use xlink:href="#mbc17444204" x="283.095837" y="378.35135" style="fill: #007bff; stroke: #007bff"/>
     <use xlink:href="#mbc17444204" x="288.043138" y="379.963037" style="fill: #007bff; stroke: #007bff"/>
     <use xlink:href="#mbc17444204" x="292.990417" y="374.370325" style="fill: #007bff; stroke: #007bff"/>
     <use xlink:href="#mbc17444204" x="297.937732" y="379.274876" style="fill: #007bff; stroke: #007bff"/>
     <use xlink:href="#mbc17444204" x="302.885091" y="367.553717" style="fill: #007bff; stroke: #007bff"/>
     <use xlink:href="#mbc17444204" x="307.832326" y="368.253086" style="fill: #007bff; stroke: #007bff"/>
     <use xlink:href="#mbc17444204" x="312.779631" y="371.373349" style="fill: #007bff; stroke: #007bff"/>
     <use xlink:href="#mbc17444204" x="317.726914" y="358.186204" style="fill: #007bff; stroke: #007bff"/>
     <use xlink:href="#mbc17444204" x="322.674213" y="368.694675" style="fill: #007bff; stroke: #007bff"/>
     <use xlink:href="#mbc17444204" x="327.621515" y="374.256005" style="fill: #007bff; stroke: #007bff"/>
     <use xlink:href="#mbc17444204" x="332.5688" y="377.82234" style="fill: #007bff; stroke: #007bff"/>
     <use xlink:href="#mbc17444204" x="337.516109" y="368.344991" style="fill: #007bff; stroke: #007bff"/>
     <use xlink:href="#mbc17444204" x="342.463383" y="371.133501" style="fill: #007bff; stroke: #007bff"/>
     <use xlink:href="#mbc17444204" x="490.882621" y="371.133501" style="fill: #007bff; stroke: #007bff"/>
     <use xlink:href="#mbc17444204" x="537.054295" y="48.190803" style="fill: #007bff; stroke: #007bff"/>
     <use xlink:href="#mbc17444204" x="540.355505" y="380.283582" style="fill: #007bff; stroke: #007bff"/>
     <use xlink:href="#mbc17444204" x="545.302801" y="369.741487" style="fill: #007bff; stroke: #007bff"/>
     <use xlink:href="#mbc17444204" x="550.250086" y="371.855286" style="fill: #007bff; stroke: #007bff"/>
     <use xlink:href="#mbc17444204" x="555.197381" y="374.971066" style="fill: #007bff; stroke: #007bff"/>
     <use xlink:href="#mbc17444204" x="560.144708" y="369.770628" style="fill: #007bff; stroke: #007bff"/>
     <use xlink:href="#mbc17444204" x="565.091988" y="375.979771" style="fill: #007bff; stroke: #007bff"/>
     <use xlink:href="#mbc17444204" x="570.039277" y="330.978052" style="fill: #007bff; stroke: #007bff"/>
     <use xlink:href="#mbc17444204" x="574.986564" y="375.677159" style="fill: #007bff; stroke: #007bff"/>
     <use xlink:href="#mbc17444204" x="579.933876" y="387.14278" style="fill: #007bff; stroke: #007bff"/>
     <use xlink:href="#mbc17444204" x="584.881185" y="386.844651" style="fill: #007bff; stroke: #007bff"/>
     <use xlink:href="#mbc17444204" x="589.828481" y="384.479797" style="fill: #007bff; stroke: #007bff"/>
     <use xlink:href="#mbc17444204" x="594.775798" y="388.727568" style="fill: #007bff; stroke: #007bff"/>
     <use xlink:href="#mbc17444204" x="599.723056" y="383.688523" style="fill: #007bff; stroke: #007bff"/>
     <use xlink:href="#mbc17444204" x="604.670368" y="384.930352" style="fill: #007bff; stroke: #007bff"/>
     <use xlink:href="#mbc17444204" x="609.617659" y="387.978884" style="fill: #007bff; stroke: #007bff"/>
     <use xlink:href="#mbc17444204" x="614.564967" y="380.413593" style="fill: #007bff; stroke: #007bff"/>
     <use xlink:href="#mbc17444204" x="619.512264" y="374.23359" style="fill: #007bff; stroke: #007bff"/>
     <use xlink:href="#mbc17444204" x="624.45956" y="365.493716" style="fill: #007bff; stroke: #007bff"/>
     <use xlink:href="#mbc17444204" x="629.406856" y="372.285667" style="fill: #007bff; stroke: #007bff"/>
     <use xlink:href="#mbc17444204" x="634.354147" y="382.056662" style="fill: #007bff; stroke: #007bff"/>
     <use xlink:href="#mbc17444204" x="639.301447" y="373.865972" style="fill: #007bff; stroke: #007bff"/>
     <use xlink:href="#mbc17444204" x="644.248728" y="383.91268" style="fill: #007bff; stroke: #007bff"/>
     <use xlink:href="#mbc17444204" x="649.196018" y="201.852529" style="fill: #007bff; stroke: #007bff"/>
     <use xlink:href="#mbc17444204" x="654.143324" y="367.217482" style="fill: #007bff; stroke: #007bff"/>
    </g>
   </g>
   <g id="line2d_24">
    <path d="M 80.256676 488.210597 
L 85.203965 488.333883 
L 90.151254 488.540107 
L 95.098545 487.896777 
L 100.045854 488.042479 
L 104.993133 488.369748 
L 109.940441 488.006614 
L 114.887747 488.414579 
L 119.83504 487.874361 
L 124.78232 488.35854 
L 129.729637 484.388723 
L 134.676916 485.895057 
L 139.62423 488.125417 
L 144.571533 488.107484 
L 149.518813 488.421304 
L 154.466139 487.878845 
L 159.413386 488.365265 
L 164.360688 488.295776 
L 169.308026 488.21508 
L 174.255319 488.40113 
L 179.202617 488.419062 
L 184.149875 488.179215 
L 189.097191 487.912468 
L 194.044491 487.894536 
L 198.991779 487.634514 
L 203.939083 487.361042 
L 223.72826 487.387941 
L 228.675593 487.98644 
L 233.622868 487.921434 
L 238.570166 487.728659 
L 243.517471 487.688311 
L 248.464764 487.955058 
L 253.412078 487.533643 
L 258.359274 487.937125 
L 263.306639 484.868419 
L 268.253963 487.266896 
L 273.201241 487.959541 
L 278.148556 487.977474 
L 283.095837 487.838496 
L 288.043138 486.854448 
L 292.990417 487.632272 
L 297.937732 487.479845 
L 302.885091 487.755558 
L 307.832326 487.062914 
L 312.779631 487.44398 
L 317.726914 487.80039 
L 322.674213 487.641238 
L 327.621515 487.515711 
L 332.5688 487.674862 
L 337.516109 487.340868 
L 342.463383 487.134644 
L 490.882621 487.134644 
L 537.054295 487.784699 
L 540.355505 487.997648 
L 545.302801 487.706244 
L 550.250086 488.224046 
L 555.197381 487.632272 
L 560.144708 488.360782 
L 565.091988 488.591663 
L 570.039277 488.107484 
L 574.986564 488.445961 
L 579.933876 488.277844 
L 584.881185 488.78668 
L 589.828481 488.806854 
L 594.775798 488.748573 
L 599.723056 488.340608 
L 604.670368 488.569247 
L 609.617659 488.306984 
L 614.564967 488.060412 
L 619.512264 488.486309 
L 624.45956 488.080586 
L 629.406856 486.139388 
L 634.354147 488.226288 
L 639.301447 488.47286 
L 644.248728 488.432512 
L 649.196018 488.481826 
L 654.143324 488.676843 
" clip-path="url(#p0dce85591a)" style="fill: none; stroke: #dc3545; stroke-width: 1.5; stroke-linecap: square"/>
    <defs>
     <path id="m57284bcf10" d="M 0 2 
C 0.530406 2 1.03916 1.789267 1.414214 1.414214 
C 1.789267 1.03916 2 0.530406 2 0 
C 2 -0.530406 1.789267 -1.03916 1.414214 -1.414214 
C 1.03916 -1.789267 0.530406 -2 0 -2 
C -0.530406 -2 -1.03916 -1.789267 -1.414214 -1.414214 
C -1.789267 -1.03916 -2 -0.530406 -2 0 
C -2 0.530406 -1.789267 1.03916 -1.414214 1.414214 
C -1.03916 1.789267 -0.530406 2 0 2 
z
" style="stroke: #dc3545"/>
    </defs>
    <g clip-path="url(#p0dce85591a)">
     <use xlink:href="#m57284bcf10" x="80.256676" y="488.210597" style="fill: #dc3545; stroke: #dc3545"/>
     <use xlink:href="#m57284bcf10" x="85.203965" y="488.333883" style="fill: #dc3545; stroke: #dc3545"/>
     <use xlink:href="#m57284bcf10" x="90.151254" y="488.540107" style="fill: #dc3545; stroke: #dc3545"/>
     <use xlink:href="#m57284bcf10" x="95.098545" y="487.896777" style="fill: #dc3545; stroke: #dc3545"/>
     <use xlink:href="#m57284bcf10" x="100.045854" y="488.042479" style="fill: #dc3545; stroke: #dc3545"/>
     <use xlink:href="#m57284bcf10" x="104.993133" y="488.369748" style="fill: #dc3545; stroke: #dc3545"/>
     <use xlink:href="#m57284bcf10" x="109.940441" y="488.006614" style="fill: #dc3545; stroke: #dc3545"/>
     <use xlink:href="#m57284bcf10" x="114.887747" y="488.414579" style="fill: #dc3545; stroke: #dc3545"/>
     <use xlink:href="#m57284bcf10" x="119.83504" y="487.874361" style="fill: #dc3545; stroke: #dc3545"/>
     <use xlink:href="#m57284bcf10" x="124.78232" y="488.35854" style="fill: #dc3545; stroke: #dc3545"/>
     <use xlink:href="#m57284bcf10" x="129.729637" y="484.388723" style="fill: #dc3545; stroke: #dc3545"/>
     <use xlink:href="#m57284bcf10" x="134.676916" y="485.895057" style="fill: #dc3545; stroke: #dc3545"/>
     <use xlink:href="#m57284bcf10" x="139.62423" y="488.125417" style="fill: #dc3545; stroke: #dc3545"/>
     <use xlink:href="#m57284bcf10" x="144.571533" y="488.107484" style="fill: #dc3545; stroke: #dc3545"/>
     <use xlink:href="#m57284bcf10" x="149.518813" y="488.421304" style="fill: #dc3545; stroke: #dc3545"/>
     <use xlink:href="#m57284bcf10" x="154.466139" y="487.878845" style="fill: #dc3545; stroke: #dc3545"/>
     <use xlink:href="#m57284bcf10" x="159.413386" y="488.365265" style="fill: #dc3545; stroke: #dc3545"/>
     <use xlink:href="#m57284bcf10" x="164.360688" y="488.295776" style="fill: #dc3545; stroke: #dc3545"/>
     <use xlink:href="#m57284bcf10" x="169.308026" y="488.21508" style="fill: #dc3545; stroke: #dc3545"/>
     <use xlink:href="#m57284bcf10" x="174.255319" y="488.40113" style="fill: #dc3545; stroke: #dc3545"/>
     <use xlink:href="#m57284bcf10" x="179.202617" y="488.419062" style="fill: #dc3545; stroke: #dc3545"/>
     <use xlink:href="#m57284bcf10" x="184.149875" y="488.179215" style="fill: #dc3545; stroke: #dc3545"/>
     <use xlink:href="#m57284bcf10" x="189.097191" y="487.912468" style="fill: #dc3545; stroke: #dc3545"/>
     <use xlink:href="#m57284bcf10" x="194.044491" y="487.894536" style="fill: #dc3545; stroke: #dc3545"/>
     <use xlink:href="#m57284bcf10" x="198.991779" y="487.634514" style="fill: #dc3545; stroke: #dc3545"/>
     <use xlink:href="#m57284bcf10" x="203.939083" y="487.361042" style="fill: #dc3545; stroke: #dc3545"/>
     <use xlink:href="#m57284bcf10" x="223.72826" y="487.387941" style="fill: #dc3545; stroke: #dc3545"/>
     <use xlink:href="#m57284bcf10" x="228.675593" y="487.98644" style="fill: #dc3545; stroke: #dc3545"/>
     <use xlink:href="#m57284bcf10" x="233.622868" y="487.921434" style="fill: #dc3545; stroke: #dc3545"/>
     <use xlink:href="#m57284bcf10" x="238.570166" y="487.728659" style="fill: #dc3545; stroke: #dc3545"/>
     <use xlink:href="#m57284bcf10" x="243.517471" y="487.688311" style="fill: #dc3545; stroke: #dc3545"/>
     <use xlink:href="#m57284bcf10" x="248.464764" y="487.955058" style="fill: #dc3545; stroke: #dc3545"/>
     <use xlink:href="#m57284bcf10" x="253.412078" y="487.533643" style="fill: #dc3545; stroke: #dc3545"/>
     <use xlink:href="#m57284bcf10" x="258.359274" y="487.937125" style="fill: #dc3545; stroke: #dc3545"/>
     <use xlink:href="#m57284bcf10" x="263.306639" y="484.868419" style="fill: #dc3545; stroke: #dc3545"/>
     <use xlink:href="#m57284bcf10" x="268.253963" y="487.266896" style="fill: #dc3545; stroke: #dc3545"/>
     <use xlink:href="#m57284bcf10" x="273.201241" y="487.959541" style="fill: #dc3545; stroke: #dc3545"/>
     <use xlink:href="#m57284bcf10" x="278.148556" y="487.977474" style="fill: #dc3545; stroke: #dc3545"/>
     <use xlink:href="#m57284bcf10" x="283.095837" y="487.838496" style="fill: #dc3545; stroke: #dc3545"/>
     <use xlink:href="#m57284bcf10" x="288.043138" y="486.854448" style="fill: #dc3545; stroke: #dc3545"/>
     <use xlink:href="#m57284bcf10" x="292.990417" y="487.632272" style="fill: #dc3545; stroke: #dc3545"/>
     <use xlink:href="#m57284bcf10" x="297.937732" y="487.479845" style="fill: #dc3545; stroke: #dc3545"/>
     <use xlink:href="#m57284bcf10" x="302.885091" y="487.755558" style="fill: #dc3545; stroke: #dc3545"/>
     <use xlink:href="#m57284bcf10" x="307.832326" y="487.062914" style="fill: #dc3545; stroke: #dc3545"/>
     <use xlink:href="#m57284bcf10" x="312.779631" y="487.44398" style="fill: #dc3545; stroke: #dc3545"/>
     <use xlink:href="#m57284bcf10" x="317.726914" y="487.80039" style="fill: #dc3545; stroke: #dc3545"/>
     <use xlink:href="#m57284bcf10" x="322.674213" y="487.641238" style="fill: #dc3545; stroke: #dc3545"/>
     <use xlink:href="#m57284bcf10" x="327.621515" y="487.515711" style="fill: #dc3545; stroke: #dc3545"/>
     <use xlink:href="#m57284bcf10" x="332.5688" y="487.674862" style="fill: #dc3545; stroke: #dc3545"/>
     <use xlink:href="#m57284bcf10" x="337.516109" y="487.340868" style="fill: #dc3545; stroke: #dc3545"/>
     <use xlink:href="#m57284bcf10" x="342.463383" y="487.134644" style="fill: #dc3545; stroke: #dc3545"/>
     <use xlink:href="#m57284bcf10" x="490.882621" y="487.134644" style="fill: #dc3545; stroke: #dc3545"/>
     <use xlink:href="#m57284bcf10" x="537.054295" y="487.784699" style="fill: #dc3545; stroke: #dc3545"/>
     <use xlink:href="#m57284bcf10" x="540.355505" y="487.997648" style="fill: #dc3545; stroke: #dc3545"/>
     <use xlink:href="#m57284bcf10" x="545.302801" y="487.706244" style="fill: #dc3545; stroke: #dc3545"/>
     <use xlink:href="#m57284bcf10" x="550.250086" y="488.224046" style="fill: #dc3545; stroke: #dc3545"/>
     <use xlink:href="#m57284bcf10" x="555.197381" y="487.632272" style="fill: #dc3545; stroke: #dc3545"/>
     <use xlink:href="#m57284bcf10" x="560.144708" y="488.360782" style="fill: #dc3545; stroke: #dc3545"/>
     <use xlink:href="#m57284bcf10" x="565.091988" y="488.591663" style="fill: #dc3545; stroke: #dc3545"/>
     <use xlink:href="#m57284bcf10" x="570.039277" y="488.107484" style="fill: #dc3545; stroke: #dc3545"/>
     <use xlink:href="#m57284bcf10" x="574.986564" y="488.445961" style="fill: #dc3545; stroke: #dc3545"/>
     <use xlink:href="#m57284bcf10" x="579.933876" y="488.277844" style="fill: #dc3545; stroke: #dc3545"/>
     <use xlink:href="#m57284bcf10" x="584.881185" y="488.78668" style="fill: #dc3545; stroke: #dc3545"/>
     <use xlink:href="#m57284bcf10" x="589.828481" y="488.806854" style="fill: #dc3545; stroke: #dc3545"/>
     <use xlink:href="#m57284bcf10" x="594.775798" y="488.748573" style="fill: #dc3545; stroke: #dc3545"/>
     <use xlink:href="#m57284bcf10" x="599.723056" y="488.340608" style="fill: #dc3545; stroke: #dc3545"/>
     <use xlink:href="#m57284bcf10" x="604.670368" y="488.569247" style="fill: #dc3545; stroke: #dc3545"/>
     <use xlink:href="#m57284bcf10" x="609.617659" y="488.306984" style="fill: #dc3545; stroke: #dc3545"/>
     <use xlink:href="#m57284bcf10" x="614.564967" y="488.060412" style="fill: #dc3545; stroke: #dc3545"/>
     <use xlink:href="#m57284bcf10" x="619.512264" y="488.486309" style="fill: #dc3545; stroke: #dc3545"/>
     <use xlink:href="#m57284bcf10" x="624.45956" y="488.080586" style="fill: #dc3545; stroke: #dc3545"/>
     <use xlink:href="#m57284bcf10" x="629.406856" y="486.139388" style="fill: #dc3545; stroke: #dc3545"/>
     <use xlink:href="#m57284bcf10" x="634.354147" y="488.226288" style="fill: #dc3545; stroke: #dc3545"/>
     <use xlink:href="#m57284bcf10" x="639.301447" y="488.47286" style="fill: #dc3545; stroke: #dc3545"/>
     <use xlink:href="#m57284bcf10" x="644.248728" y="488.432512" style="fill: #dc3545; stroke: #dc3545"/>
     <use xlink:href="#m57284bcf10" x="649.196018" y="488.481826" style="fill: #dc3545; stroke: #dc3545"/>
     <use xlink:href="#m57284bcf10" x="654.143324" y="488.676843" style="fill: #dc3545; stroke: #dc3545"/>
    </g>
   </g>
   <g id="patch_3">
    <path d="M 51.562344 510.837656 
L 51.562344 26.16 
" style="fill: none; stroke: #212529; stroke-width: 0.8; stroke-linejoin: miter; stroke-linecap: square"/>
   </g>
   <g id="patch_4">
    <path d="M 51.562344 510.837656 
L 682.837656 510.837656 
" style="fill: none; stroke: #212529; stroke-width: 0.8; stroke-linejoin: miter; stroke-linecap: square"/>
   </g>
   <g id="patch_5">
    <path d="M 51.562344 26.16 
L 682.837656 26.16 
" style="fill: none; stroke: #212529; stroke-width: 0.8; stroke-linejoin: miter; stroke-linecap: square"/>
   </g>
   <g id="legend_1">
    <g id="patch_6">
     <path d="M 57.393344 70.310952 
L 131.246603 70.310952 
Q 132.912603 70.310952 132.912603 68.644952 
L 132.912603 31.991 
Q 132.912603 30.325 131.246603 30.325 
L 57.393344 30.325 
Q 55.727344 30.325 55.727344 31.991 
L 55.727344 68.644952 
Q 55.727344 70.310952 57.393344 70.310952 
L 57.393344 70.310952 
z
" style="fill: none; opacity: 0.8; stroke: #212529; stroke-linejoin: miter"/>
    </g>
    <g id="line2d_25">
     <path d="M 59.059344 37.070998 
L 67.389344 37.070998 
L 75.719344 37.070998 
" style="fill: none; stroke: #007bff; stroke-width: 1.5; stroke-linecap: square"/>
     <g>
      <use xlink:href="#mbc17444204" x="67.389344" y="37.070998" style="fill: #007bff; stroke: #007bff"/>
     </g>
    </g>
    <g id="text_14">
     <text style="font-size: 8.33px; font-family: 'DejaVu Sans', 'Bitstream Vera Sans', 'Computer Modern Sans Serif', 'Lucida Grande', 'Verdana', 'Geneva', 'Lucid', 'Arial', 'Helvetica', 'Avant Garde', sans-serif; text-anchor: start; fill: #212529" x="82.383344" y="39.986498" transform="rotate(-0 82.383344 39.986498)">Cold Start</text>
    </g>
    <g id="line2d_26">
     <path d="M 59.059344 49.566649 
L 67.389344 49.566649 
L 75.719344 49.566649 
" style="fill: none; stroke: #dc3545; stroke-width: 1.5; stroke-linecap: square"/>
     <g>
      <use xlink:href="#m57284bcf10" x="67.389344" y="49.566649" style="fill: #dc3545; stroke: #dc3545"/>
     </g>
    </g>
    <g id="text_15">
     <text style="font-size: 8.33px; font-family: 'DejaVu Sans', 'Bitstream Vera Sans', 'Computer Modern Sans Serif', 'Lucida Grande', 'Verdana', 'Geneva', 'Lucid', 'Arial', 'Helvetica', 'Avant Garde', sans-serif; text-anchor: start; fill: #212529" x="82.383344" y="52.482149" transform="rotate(-0 82.383344 52.482149)">Warm Start</text>
    </g>
    <g id="line2d_27">
     <path d="M 59.059344 62.0623 
L 67.389344 62.0623 
L 75.719344 62.0623 
" style="fill: none; stroke-dasharray: 5.55,2.4; stroke-dashoffset: 0; stroke: #ff7f0e; stroke-width: 1.5"/>
    </g>
    <g id="text_16">
     <text style="font-size: 8.33px; font-family: 'DejaVu Sans', 'Bitstream Vera Sans', 'Computer Modern Sans Serif', 'Lucida Grande', 'Verdana', 'Geneva', 'Lucid', 'Arial', 'Helvetica', 'Avant Garde', sans-serif; text-anchor: start; fill: #212529" x="82.383344" y="64.9778" transform="rotate(-0 82.383344 64.9778)">Memory</text>
    </g>
   </g>
  </g>
  <g id="axes_2">
   <g id="matplotlib.axis_3">
    <g id="ytick_10">
     <g id="line2d_28">
      <defs>
       <path id="mab46463764" d="M 0 0 
L 3.5 0 
" style="stroke: #212529; stroke-width: 0.8"/>
      </defs>
      <g>
       <use xlink:href="#mab46463764" x="682.837656" y="488.806854" style="fill: #212529; stroke: #212529; stroke-width: 0.8"/>
      </g>
     </g>
     <g id="text_17">
      <text style="font-size: 10px; font-family: 'DejaVu Sans', 'Bitstream Vera Sans', 'Computer Modern Sans Serif', 'Lucida Grande', 'Verdana', 'Geneva', 'Lucid', 'Arial', 'Helvetica', 'Avant Garde', sans-serif; text-anchor: start; fill: #ff7f0e" x="689.837656" y="492.605682" transform="rotate(-0 689.837656 492.605682)">23.0</text>
     </g>
    </g>
    <g id="ytick_11">
     <g id="line2d_29">
      <g>
       <use xlink:href="#mab46463764" x="682.837656" y="430.058047" style="fill: #212529; stroke: #212529; stroke-width: 0.8"/>
      </g>
     </g>
     <g id="text_18">
      <text style="font-size: 10px; font-family: 'DejaVu Sans', 'Bitstream Vera Sans', 'Computer Modern Sans Serif', 'Lucida Grande', 'Verdana', 'Geneva', 'Lucid', 'Arial', 'Helvetica', 'Avant Garde', sans-serif; text-anchor: start; fill: #ff7f0e" x="689.837656" y="433.856875" transform="rotate(-0 689.837656 433.856875)">23.2</text>
     </g>
    </g>
    <g id="ytick_12">
     <g id="line2d_30">
      <g>
       <use xlink:href="#mab46463764" x="682.837656" y="371.30924" style="fill: #212529; stroke: #212529; stroke-width: 0.8"/>
      </g>
     </g>
     <g id="text_19">
      <text style="font-size: 10px; font-family: 'DejaVu Sans', 'Bitstream Vera Sans', 'Computer Modern Sans Serif', 'Lucida Grande', 'Verdana', 'Geneva', 'Lucid', 'Arial', 'Helvetica', 'Avant Garde', sans-serif; text-anchor: start; fill: #ff7f0e" x="689.837656" y="375.108068" transform="rotate(-0 689.837656 375.108068)">23.4</text>
     </g>
    </g>
    <g id="ytick_13">
     <g id="line2d_31">
      <g>
       <use xlink:href="#mab46463764" x="682.837656" y="312.560433" style="fill: #212529; stroke: #212529; stroke-width: 0.8"/>
      </g>
     </g>
     <g id="text_20">
      <text style="font-size: 10px; font-family: 'DejaVu Sans', 'Bitstream Vera Sans', 'Computer Modern Sans Serif', 'Lucida Grande', 'Verdana', 'Geneva', 'Lucid', 'Arial', 'Helvetica', 'Avant Garde', sans-serif; text-anchor: start; fill: #ff7f0e" x="689.837656" y="316.359261" transform="rotate(-0 689.837656 316.359261)">23.6</text>
     </g>
    </g>
    <g id="ytick_14">
     <g id="line2d_32">
      <g>
       <use xlink:href="#mab46463764" x="682.837656" y="253.811626" style="fill: #212529; stroke: #212529; stroke-width: 0.8"/>
      </g>
     </g>
     <g id="text_21">
      <text style="font-size: 10px; font-family: 'DejaVu Sans', 'Bitstream Vera Sans', 'Computer Modern Sans Serif', 'Lucida Grande', 'Verdana', 'Geneva', 'Lucid', 'Arial', 'Helvetica', 'Avant Garde', sans-serif; text-anchor: start; fill: #ff7f0e" x="689.837656" y="257.610455" transform="rotate(-0 689.837656 257.610455)">23.8</text>
     </g>
    </g>
    <g id="ytick_15">
     <g id="line2d_33">
      <g>
       <use xlink:href="#mab46463764" x="682.837656" y="195.06282" style="fill: #212529; stroke: #212529; stroke-width: 0.8"/>
      </g>
     </g>
     <g id="text_22">
      <text style="font-size: 10px; font-family: 'DejaVu Sans', 'Bitstream Vera Sans', 'Computer Modern Sans Serif', 'Lucida Grande', 'Verdana', 'Geneva', 'Lucid', 'Arial', 'Helvetica', 'Avant Garde', sans-serif; text-anchor: start; fill: #ff7f0e" x="689.837656" y="198.861648" transform="rotate(-0 689.837656 198.861648)">24.0</text>
     </g>
    </g>
    <g id="ytick_16">
     <g id="line2d_34">
      <g>
       <use xlink:href="#mab46463764" x="682.837656" y="136.314013" style="fill: #212529; stroke: #212529; stroke-width: 0.8"/>
      </g>
     </g>
     <g id="text_23">
      <text style="font-size: 10px; font-family: 'DejaVu Sans', 'Bitstream Vera Sans', 'Computer Modern Sans Serif', 'Lucida Grande', 'Verdana', 'Geneva', 'Lucid', 'Arial', 'Helvetica', 'Avant Garde', sans-serif; text-anchor: start; fill: #ff7f0e" x="689.837656" y="140.112841" transform="rotate(-0 689.837656 140.112841)">24.2</text>
     </g>
    </g>
    <g id="ytick_17">
     <g id="line2d_35">
      <g>
       <use xlink:href="#mab46463764" x="682.837656" y="77.565206" style="fill: #212529; stroke: #212529; stroke-width: 0.8"/>
      </g>
     </g>
     <g id="text_24">
      <text style="font-size: 10px; font-family: 'DejaVu Sans', 'Bitstream Vera Sans', 'Computer Modern Sans Serif', 'Lucida Grande', 'Verdana', 'Geneva', 'Lucid', 'Arial', 'Helvetica', 'Avant Garde', sans-serif; text-anchor: start; fill: #ff7f0e" x="689.837656" y="81.364034" transform="rotate(-0 689.837656 81.364034)">24.4</text>
     </g>
    </g>
    <g id="text_25">
     <text style="font-size: 10px; font-family: 'DejaVu Sans', 'Bitstream Vera Sans', 'Computer Modern Sans Serif', 'Lucida Grande', 'Verdana', 'Geneva', 'Lucid', 'Arial', 'Helvetica', 'Avant Garde', sans-serif; text-anchor: middle; fill: #ff7f0e" x="723.701719" y="268.498828" transform="rotate(-90 723.701719 268.498828)">Memory Usage [MB]</text>
    </g>
   </g>
   <g id="line2d_36">
    <path d="M 80.256676 341.934837 
L 85.203965 459.43245 
L 90.151254 371.30924 
L 95.098545 400.683643 
L 100.045854 371.30924 
L 104.993133 400.683643 
L 109.940441 430.058047 
L 114.887747 400.683643 
L 119.83504 430.058047 
L 124.78232 400.683643 
L 129.729637 459.43245 
L 134.676916 488.806854 
L 139.62423 312.560433 
L 144.571533 312.560433 
L 149.518813 430.058047 
L 154.466139 459.43245 
L 159.413386 400.683643 
L 164.360688 430.058047 
L 169.308026 341.934837 
L 174.255319 283.18603 
L 179.202617 371.30924 
L 184.149875 459.43245 
L 189.097191 371.30924 
L 194.044491 371.30924 
L 198.991779 341.934837 
L 203.939083 283.18603 
L 223.72826 48.190803 
L 228.675593 253.811626 
L 233.622868 341.934837 
L 238.570166 224.437223 
L 243.517471 341.934837 
L 248.464764 312.560433 
L 253.412078 430.058047 
L 258.359274 312.560433 
L 263.306639 283.18603 
L 268.253963 341.934837 
L 273.201241 195.06282 
L 278.148556 371.30924 
L 283.095837 312.560433 
L 288.043138 165.688416 
L 292.990417 195.06282 
L 297.937732 253.811626 
L 302.885091 430.058047 
L 307.832326 312.560433 
L 312.779631 312.560433 
L 317.726914 224.437223 
L 322.674213 341.934837 
L 327.621515 430.058047 
L 332.5688 312.560433 
L 337.516109 459.43245 
L 342.463383 341.934837 
L 490.882621 341.934837 
L 537.054295 253.811626 
L 540.355505 165.688416 
L 545.302801 253.811626 
L 550.250086 253.811626 
L 555.197381 162.457232 
L 560.144708 253.811626 
L 565.091988 253.811626 
L 570.039277 400.683643 
L 574.986564 488.806854 
L 579.933876 488.806854 
L 584.881185 430.058047 
L 589.828481 341.934837 
L 594.775798 430.058047 
L 599.723056 430.058047 
L 604.670368 312.560433 
L 609.617659 312.560433 
L 614.564967 371.30924 
L 619.512264 371.30924 
L 624.45956 341.934837 
L 629.406856 312.560433 
L 634.354147 430.058047 
L 639.301447 312.560433 
L 644.248728 253.811626 
L 649.196018 341.934837 
L 654.143324 195.06282 
" clip-path="url(#p0dce85591a)" style="fill: none; stroke-dasharray: 5.55,2.4; stroke-dashoffset: 0; stroke: #ff7f0e; stroke-width: 1.5"/>
   </g>
   <g id="patch_7">
    <path d="M 682.837656 510.837656 
L 682.837656 26.16 
" style="fill: none; stroke: #ff7f0e; stroke-width: 0.8; stroke-linejoin: miter; stroke-linecap: square"/>
   </g>
   <g id="text_26">
    <text style="font-size: 12px; font-family: 'DejaVu Sans', 'Bitstream Vera Sans', 'Computer Modern Sans Serif', 'Lucida Grande', 'Verdana', 'Geneva', 'Lucid', 'Arial', 'Helvetica', 'Avant Garde', sans-serif; text-anchor: middle; fill: #212529" x="367.2" y="20.16" transform="rotate(-0 367.2 20.16)">dotnet10_aot_on_provided_al2023 (arm64, image, 512MB, us-east-1)</text>
   </g>
  </g>
 </g>
 <defs>
  <clipPath id="p0dce85591a">
   <rect x="51.562344" y="26.16" width="631.275313" height="484.677656"/>
  </clipPath>
 </defs>
</svg>
