<?xml version="1.0" encoding="utf-8" standalone="no"?>
<!DOCTYPE svg PUBLIC "-//W3C//DTD SVG 1.1//EN"
  "http://www.w3.org/Graphics/SVG/1.1/DTD/svg11.dtd">
<svg xmlns:xlink="http://www.w3.org/1999/xlink" width="216pt" height="122.4pt" viewBox="0 0 216 122.4" xmlns="http://www.w3.org/2000/svg" version="1.1">
  <style>
    :root {
      --fg-color: #212529;
      --grid-color: rgba(33, 37, 41, 0.1);
    }
    @media (prefers-color-scheme: dark) {
      :root {
        --fg-color: #dee2e6;
        --grid-color: rgba(248, 249, 250, 0.15);
      }
    }
  </style>

 <metadata>
  <rdf:RDF xmlns:dc="http://purl.org/dc/elements/1.1/" xmlns:cc="http://creativecommons.org/ns#" xmlns:rdf="http://www.w3.org/1999/02/22-rdf-syntax-ns#">
   <cc:Work>
    <dc:type rdf:resource="http://purl.org/dc/dcmitype/StillImage"/>
    <dc:date>2026-06-30T15:37:49.058913</dc:date>
    <dc:format>image/svg+xml</dc:format>
    <dc:creator>
     <cc:Agent>
      <dc:title>Matplotlib v3.11.0, https://matplotlib.org/</dc:title>
     </cc:Agent>
    </dc:creator>
   </cc:Work>
  </rdf:RDF>
 </metadata>
 <defs>
  <style type="text/css">*{stroke-linejoin: round; stroke-linecap: butt}</style>
 </defs>
 <g id="figure_1">
  <g id="patch_1">
   <path d="M 0 122.4 
L 216 122.4 
L 216 0 
L 0 0 
L 0 122.4 
z
" style="fill: none; opacity: 0"/>
  </g>
  <g id="axes_1">
   <g id="patch_2">
    <path d="M 35.96 103.4 
L 211 103.4 
L 211 5 
L 35.96 5 
L 35.96 103.4 
z
" style="fill: none; opacity: 0"/>
   </g>
   <g id="matplotlib.axis_1">
    <g id="xtick_1">
     <g id="line2d_1">
      <path d="M 69.784035 103.4 
L 69.784035 5 
" clip-path="url(#pf19cbec249)" style="fill: none; stroke-dasharray: 2.96,1.28; stroke-dashoffset: 0; stroke: var(--grid-color); stroke-width: 0.8"/>
     </g>
     <g id="line2d_2">
      <defs>
       <path id="mab44275451" d="M 0 0 
L 0 3.5 
" style="stroke: var(--fg-color); stroke-width: 0.8"/>
      </defs>
      <g>
       <use xlink:href="#mab44275451" x="69.784035" y="103.4" style="fill: var(--fg-color); stroke: var(--fg-color); stroke-width: 0.8"/>
      </g>
     </g>
     <g id="text_1">
      <text style="font-size: 7px; font-family: 'DejaVu Sans', 'Bitstream Vera Sans', 'Computer Modern Sans Serif', 'Lucida Grande', 'Verdana', 'Geneva', 'Lucid', 'Arial', 'Helvetica', 'Avant Garde', sans-serif; text-anchor: middle; fill: var(--fg-color)" x="69.784035" y="115.718359" transform="rotate(-0 69.784035 115.718359)">02/2026</text>
     </g>
    </g>
    <g id="xtick_2">
     <g id="line2d_3">
      <path d="M 122.345302 103.4 
L 122.345302 5 
" clip-path="url(#pf19cbec249)" style="fill: none; stroke-dasharray: 2.96,1.28; stroke-dashoffset: 0; stroke: var(--grid-color); stroke-width: 0.8"/>
     </g>
     <g id="line2d_4">
      <g>
       <use xlink:href="#mab44275451" x="122.345302" y="103.4" style="fill: var(--fg-color); stroke: var(--fg-color); stroke-width: 0.8"/>
      </g>
     </g>
     <g id="text_2">
      <text style="font-size: 7px; font-family: 'DejaVu Sans', 'Bitstream Vera Sans', 'Computer Modern Sans Serif', 'Lucida Grande', 'Verdana', 'Geneva', 'Lucid', 'Arial', 'Helvetica', 'Avant Garde', sans-serif; text-anchor: middle; fill: var(--fg-color)" x="122.345302" y="115.718359" transform="rotate(-0 122.345302 115.718359)">04/2026</text>
     </g>
    </g>
    <g id="xtick_3">
     <g id="line2d_5">
      <path d="M 176.688307 103.4 
L 176.688307 5 
" clip-path="url(#pf19cbec249)" style="fill: none; stroke-dasharray: 2.96,1.28; stroke-dashoffset: 0; stroke: var(--grid-color); stroke-width: 0.8"/>
     </g>
     <g id="line2d_6">
      <g>
       <use xlink:href="#mab44275451" x="176.688307" y="103.4" style="fill: var(--fg-color); stroke: var(--fg-color); stroke-width: 0.8"/>
      </g>
     </g>
     <g id="text_3">
      <text style="font-size: 7px; font-family: 'DejaVu Sans', 'Bitstream Vera Sans', 'Computer Modern Sans Serif', 'Lucida Grande', 'Verdana', 'Geneva', 'Lucid', 'Arial', 'Helvetica', 'Avant Garde', sans-serif; text-anchor: middle; fill: var(--fg-color)" x="176.688307" y="115.718359" transform="rotate(-0 176.688307 115.718359)">06/2026</text>
     </g>
    </g>
   </g>
   <g id="matplotlib.axis_2">
    <g id="ytick_1">
     <g id="line2d_7">
      <path d="M 35.96 99.980165 
L 211 99.980165 
" clip-path="url(#pf19cbec249)" style="fill: none; stroke-dasharray: 2.96,1.28; stroke-dashoffset: 0; stroke: var(--grid-color); stroke-width: 0.8"/>
     </g>
     <g id="line2d_8">
      <defs>
       <path id="m4c6944e1c7" d="M 0 0 
L -3.5 0 
" style="stroke: var(--fg-color); stroke-width: 0.8"/>
      </defs>
      <g>
       <use xlink:href="#m4c6944e1c7" x="35.96" y="99.980165" style="fill: var(--fg-color); stroke: var(--fg-color); stroke-width: 0.8"/>
      </g>
     </g>
     <g id="text_4">
      <text style="font-size: 7px; font-family: 'DejaVu Sans', 'Bitstream Vera Sans', 'Computer Modern Sans Serif', 'Lucida Grande', 'Verdana', 'Geneva', 'Lucid', 'Arial', 'Helvetica', 'Avant Garde', sans-serif; text-anchor: end; fill: var(--fg-color)" x="28.96" y="102.639345" transform="rotate(-0 28.96 102.639345)">0</text>
     </g>
    </g>
    <g id="ytick_2">
     <g id="line2d_9">
      <path d="M 35.96 84.687613 
L 211 84.687613 
" clip-path="url(#pf19cbec249)" style="fill: none; stroke-dasharray: 2.96,1.28; stroke-dashoffset: 0; stroke: var(--grid-color); stroke-width: 0.8"/>
     </g>
     <g id="line2d_10">
      <g>
       <use xlink:href="#m4c6944e1c7" x="35.96" y="84.687613" style="fill: var(--fg-color); stroke: var(--fg-color); stroke-width: 0.8"/>
      </g>
     </g>
     <g id="text_5">
      <text style="font-size: 7px; font-family: 'DejaVu Sans', 'Bitstream Vera Sans', 'Computer Modern Sans Serif', 'Lucida Grande', 'Verdana', 'Geneva', 'Lucid', 'Arial', 'Helvetica', 'Avant Garde', sans-serif; text-anchor: end; fill: var(--fg-color)" x="28.96" y="87.346793" transform="rotate(-0 28.96 87.346793)">20</text>
     </g>
    </g>
    <g id="ytick_3">
     <g id="line2d_11">
      <path d="M 35.96 69.395062 
L 211 69.395062 
" clip-path="url(#pf19cbec249)" style="fill: none; stroke-dasharray: 2.96,1.28; stroke-dashoffset: 0; stroke: var(--grid-color); stroke-width: 0.8"/>
     </g>
     <g id="line2d_12">
      <g>
       <use xlink:href="#m4c6944e1c7" x="35.96" y="69.395062" style="fill: var(--fg-color); stroke: var(--fg-color); stroke-width: 0.8"/>
      </g>
     </g>
     <g id="text_6">
      <text style="font-size: 7px; font-family: 'DejaVu Sans', 'Bitstream Vera Sans', 'Computer Modern Sans Serif', 'Lucida Grande', 'Verdana', 'Geneva', 'Lucid', 'Arial', 'Helvetica', 'Avant Garde', sans-serif; text-anchor: end; fill: var(--fg-color)" x="28.96" y="72.054241" transform="rotate(-0 28.96 72.054241)">40</text>
     </g>
    </g>
    <g id="ytick_4">
     <g id="line2d_13">
      <path d="M 35.96 54.10251 
L 211 54.10251 
" clip-path="url(#pf19cbec249)" style="fill: none; stroke-dasharray: 2.96,1.28; stroke-dashoffset: 0; stroke: var(--grid-color); stroke-width: 0.8"/>
     </g>
     <g id="line2d_14">
      <g>
       <use xlink:href="#m4c6944e1c7" x="35.96" y="54.10251" style="fill: var(--fg-color); stroke: var(--fg-color); stroke-width: 0.8"/>
      </g>
     </g>
     <g id="text_7">
      <text style="font-size: 7px; font-family: 'DejaVu Sans', 'Bitstream Vera Sans', 'Computer Modern Sans Serif', 'Lucida Grande', 'Verdana', 'Geneva', 'Lucid', 'Arial', 'Helvetica', 'Avant Garde', sans-serif; text-anchor: end; fill: var(--fg-color)" x="28.96" y="56.76169" transform="rotate(-0 28.96 56.76169)">60</text>
     </g>
    </g>
    <g id="ytick_5">
     <g id="line2d_15">
      <path d="M 35.96 38.809958 
L 211 38.809958 
" clip-path="url(#pf19cbec249)" style="fill: none; stroke-dasharray: 2.96,1.28; stroke-dashoffset: 0; stroke: var(--grid-color); stroke-width: 0.8"/>
     </g>
     <g id="line2d_16">
      <g>
       <use xlink:href="#m4c6944e1c7" x="35.96" y="38.809958" style="fill: var(--fg-color); stroke: var(--fg-color); stroke-width: 0.8"/>
      </g>
     </g>
     <g id="text_8">
      <text style="font-size: 7px; font-family: 'DejaVu Sans', 'Bitstream Vera Sans', 'Computer Modern Sans Serif', 'Lucida Grande', 'Verdana', 'Geneva', 'Lucid', 'Arial', 'Helvetica', 'Avant Garde', sans-serif; text-anchor: end; fill: var(--fg-color)" x="28.96" y="41.469138" transform="rotate(-0 28.96 41.469138)">80</text>
     </g>
    </g>
    <g id="ytick_6">
     <g id="line2d_17">
      <path d="M 35.96 23.517407 
L 211 23.517407 
" clip-path="url(#pf19cbec249)" style="fill: none; stroke-dasharray: 2.96,1.28; stroke-dashoffset: 0; stroke: var(--grid-color); stroke-width: 0.8"/>
     </g>
     <g id="line2d_18">
      <g>
       <use xlink:href="#m4c6944e1c7" x="35.96" y="23.517407" style="fill: var(--fg-color); stroke: var(--fg-color); stroke-width: 0.8"/>
      </g>
     </g>
     <g id="text_9">
      <text style="font-size: 7px; font-family: 'DejaVu Sans', 'Bitstream Vera Sans', 'Computer Modern Sans Serif', 'Lucida Grande', 'Verdana', 'Geneva', 'Lucid', 'Arial', 'Helvetica', 'Avant Garde', sans-serif; text-anchor: end; fill: var(--fg-color)" x="28.96" y="26.176586" transform="rotate(-0 28.96 26.176586)">100</text>
     </g>
    </g>
    <g id="ytick_7">
     <g id="line2d_19">
      <path d="M 35.96 8.224855 
L 211 8.224855 
" clip-path="url(#pf19cbec249)" style="fill: none; stroke-dasharray: 2.96,1.28; stroke-dashoffset: 0; stroke: var(--grid-color); stroke-width: 0.8"/>
     </g>
     <g id="line2d_20">
      <g>
       <use xlink:href="#m4c6944e1c7" x="35.96" y="8.224855" style="fill: var(--fg-color); stroke: var(--fg-color); stroke-width: 0.8"/>
      </g>
     </g>
     <g id="text_10">
      <text style="font-size: 7px; font-family: 'DejaVu Sans', 'Bitstream Vera Sans', 'Computer Modern Sans Serif', 'Lucida Grande', 'Verdana', 'Geneva', 'Lucid', 'Arial', 'Helvetica', 'Avant Garde', sans-serif; text-anchor: end; fill: var(--fg-color)" x="28.96" y="10.884035" transform="rotate(-0 28.96 10.884035)">120</text>
     </g>
    </g>
    <g id="text_11">
     <text style="font-size: 7px; font-family: 'DejaVu Sans', 'Bitstream Vera Sans', 'Computer Modern Sans Serif', 'Lucida Grande', 'Verdana', 'Geneva', 'Lucid', 'Arial', 'Helvetica', 'Avant Garde', sans-serif; text-anchor: middle; fill: var(--fg-color)" x="9.917109" y="54.2" transform="rotate(-90 9.917109 54.2)">ms</text>
    </g>
   </g>
   <g id="line2d_21">
    <path d="M 43.916364 47.995429 
L 44.468628 47.587118 
L 45.3595 49.045263 
L 46.250371 46.473821 
L 47.141245 48.955802 
L 48.032112 44.946859 
L 48.922979 47.75763 
L 49.81384 45.30394 
L 50.704717 47.422723 
L 51.595589 48.649186 
L 52.486458 49.063614 
L 54.268192 46.609924 
L 55.159063 47.796626 
L 56.049934 41.327112 
L 56.940797 48.30281 
L 57.831669 48.971859 
L 58.722538 44.460556 
L 59.613407 44.417737 
L 60.504275 45.351347 
L 61.395144 45.509625 
L 62.286016 44.353508 
L 63.176879 46.688681 
L 64.067746 47.092404 
L 64.958622 48.664479 
L 65.84949 47.371493 
L 66.740361 49.053674 
L 67.631226 46.963947 
L 68.522078 29.624487 
L 69.412965 45.472158 
L 70.30383 43.096461 
L 71.194705 46.063216 
L 72.085571 32.546129 
L 72.976442 45.194599 
L 73.867306 45.244299 
L 74.758184 46.487584 
L 75.649039 47.188747 
L 76.539914 43.841972 
L 77.430784 32.916209 
L 78.321655 47.743867 
L 79.212509 44.020131 
L 80.103391 40.816341 
L 80.994245 32.039181 
L 81.885129 40.019599 
L 82.775998 40.039479 
L 83.666869 38.98047 
L 84.557735 44.624951 
L 85.44861 44.227345 
L 95.248438 17.313983 
L 96.139324 9.472727 
L 97.030192 20.794568 
L 97.921065 49.174485 
L 98.811931 46.027278 
L 99.702798 48.167471 
L 100.593666 45.914113 
L 101.484533 46.596926 
L 102.375401 49.65773 
L 103.266272 50.699917 
L 105.048009 44.787817 
L 105.93888 51.911087 
L 106.829748 51.479837 
L 108.611487 45.190776 
L 109.502352 49.721194 
L 110.393224 44.329805 
L 111.284094 47.771394 
L 112.17496 45.783362 
L 113.065834 50.02628 
L 113.956695 49.388581 
L 114.847564 51.364379 
L 115.738441 48.675948 
L 116.629309 49.629439 
L 117.520178 41.279705 
L 119.301913 41.666607 
L 120.192782 42.976414 
L 121.083649 45.788714 
L 121.97452 43.400018 
L 125.537994 42.123854 
L 126.428869 38.59051 
L 127.319734 31.196562 
L 128.210603 35.447891 
L 129.101474 44.981268 
L 129.992342 40.92186 
L 130.883214 47.285855 
L 131.774065 30.106967 
L 132.664946 36.332565 
L 133.55582 51.71993 
L 134.446686 44.562252 
L 135.337558 42.188083 
L 136.228424 44.439911 
L 138.010159 34.066209 
L 138.901032 43.7441 
L 139.791912 41.434925 
L 140.68277 44.458262 
L 141.57364 35.606169 
L 142.464507 39.701514 
L 143.355376 32.246395 
L 144.246246 37.611022 
L 145.137113 36.849453 
L 146.027984 39.621228 
L 146.918849 43.802976 
L 173.644977 43.802976 
L 181.959197 42.729439 
L 182.553652 43.831268 
L 183.444521 42.29666 
L 184.335387 43.325084 
L 185.226256 40.883628 
L 186.117131 40.38662 
L 187.007996 40.842338 
L 187.898864 46.206201 
L 188.789731 45.01797 
L 189.680603 41.393635 
L 190.571474 39.519533 
L 191.462343 43.054406 
L 192.353215 47.45025 
L 193.244077 46.315543 
L 194.134949 42.109326 
L 195.025817 40.218402 
L 195.916688 40.837751 
L 196.807557 45.873588 
L 197.698426 45.090609 
L 198.589295 40.16182 
L 199.480162 47.38908 
L 200.371032 43.762451 
L 201.261898 43.017704 
L 202.152766 40.62289 
L 203.043636 48.016074 
L 203.043636 48.016074 
" clip-path="url(#pf19cbec249)" style="fill: none; stroke: #339af0; stroke-width: 1.2; stroke-linecap: square"/>
   </g>
   <g id="line2d_22">
    <path d="M 43.916364 98.717765 
L 45.3595 98.815637 
L 48.032112 98.773583 
L 48.922979 98.867632 
L 50.704717 98.759055 
L 52.486458 98.849281 
L 55.159063 98.884454 
L 56.049934 98.804932 
L 58.722538 98.87069 
L 61.395144 98.746056 
L 63.176879 98.848516 
L 64.958622 98.830165 
L 65.84949 98.089241 
L 66.740361 98.862279 
L 68.522078 98.833224 
L 76.539914 98.780464 
L 77.430784 98.108357 
L 78.321655 98.808755 
L 80.994245 98.791169 
L 83.666869 98.801109 
L 84.557735 98.894394 
L 85.44861 98.820225 
L 98.811931 98.815637 
L 99.702798 98.915803 
L 101.484533 98.817931 
L 102.375401 98.908157 
L 107.720614 98.830165 
L 110.393224 98.88063 
L 112.17496 98.820225 
L 115.738441 98.859986 
L 116.629309 98.626009 
L 117.520178 98.855398 
L 118.41104 98.843164 
L 119.301913 98.708589 
L 120.192782 98.366036 
L 121.083649 98.691767 
L 121.97452 98.59313 
L 129.101474 98.681827 
L 129.992342 98.644361 
L 130.883214 98.794992 
L 132.664946 98.482259 
L 133.55582 98.752938 
L 135.337558 98.623716 
L 136.228424 98.67724 
L 137.119294 98.558722 
L 139.791912 98.629833 
L 140.68277 98.542665 
L 141.57364 98.682592 
L 144.246246 98.566369 
L 145.137113 98.290338 
L 146.027984 98.639773 
L 146.918849 98.57325 
L 173.644977 98.57325 
L 192.353215 98.737645 
L 193.244077 98.715471 
L 194.134949 98.504434 
L 195.025817 98.836282 
L 196.807557 98.660418 
L 197.698426 98.851575 
L 198.589295 98.520491 
L 199.480162 98.851575 
L 200.371032 98.649713 
L 201.261898 98.806462 
L 203.043636 98.806462 
L 203.043636 98.806462 
" clip-path="url(#pf19cbec249)" style="fill: none; stroke: #ff6b6b; stroke-width: 1.2; stroke-linecap: square"/>
   </g>
   <g id="patch_3">
    <path d="M 35.96 103.4 
L 35.96 5 
" style="fill: none; stroke: var(--fg-color); stroke-width: 0.8; stroke-linejoin: miter; stroke-linecap: square"/>
   </g>
   <g id="patch_4">
    <path d="M 35.96 103.4 
L 211 103.4 
" style="fill: none; stroke: var(--fg-color); stroke-width: 0.8; stroke-linejoin: miter; stroke-linecap: square"/>
   </g>
  </g>
 </g>
 <defs>
  <clipPath id="pf19cbec249">
   <rect x="35.96" y="5" width="175.04" height="98.4"/>
  </clipPath>
 </defs>
</svg>
