<?xml version="1.0" encoding="utf-8" standalone="no"?>
<!DOCTYPE svg PUBLIC "-//W3C//DTD SVG 1.1//EN"
  "http://www.w3.org/Graphics/SVG/1.1/DTD/svg11.dtd">
<svg xmlns:xlink="http://www.w3.org/1999/xlink" width="216pt" height="122.4pt" viewBox="0 0 216 122.4" xmlns="http://www.w3.org/2000/svg" version="1.1">
  <style>
    :root {
      --fg-color: #212529;
      --grid-color: rgba(33, 37, 41, 0.1);
    }
    @media (prefers-color-scheme: dark) {
      :root {
        --fg-color: #dee2e6;
        --grid-color: rgba(248, 249, 250, 0.15);
      }
    }
  </style>

 <metadata>
  <rdf:RDF xmlns:dc="http://purl.org/dc/elements/1.1/" xmlns:cc="http://creativecommons.org/ns#" xmlns:rdf="http://www.w3.org/1999/02/22-rdf-syntax-ns#">
   <cc:Work>
    <dc:type rdf:resource="http://purl.org/dc/dcmitype/StillImage"/>
    <dc:date>2026-06-30T15:37:36.137073</dc:date>
    <dc:format>image/svg+xml</dc:format>
    <dc:creator>
     <cc:Agent>
      <dc:title>Matplotlib v3.11.0, https://matplotlib.org/</dc:title>
     </cc:Agent>
    </dc:creator>
   </cc:Work>
  </rdf:RDF>
 </metadata>
 <defs>
  <style type="text/css">*{stroke-linejoin: round; stroke-linecap: butt}</style>
 </defs>
 <g id="figure_1">
  <g id="patch_1">
   <path d="M 0 122.4 
L 216 122.4 
L 216 0 
L 0 0 
L 0 122.4 
z
" style="fill: none; opacity: 0"/>
  </g>
  <g id="axes_1">
   <g id="patch_2">
    <path d="M 35.96 103.4 
L 211 103.4 
L 211 5 
L 35.96 5 
L 35.96 103.4 
z
" style="fill: none; opacity: 0"/>
   </g>
   <g id="matplotlib.axis_1">
    <g id="xtick_1">
     <g id="line2d_1">
      <path d="M 69.784035 103.4 
L 69.784035 5 
" clip-path="url(#pf7b36cb5b1)" style="fill: none; stroke-dasharray: 2.96,1.28; stroke-dashoffset: 0; stroke: var(--grid-color); stroke-width: 0.8"/>
     </g>
     <g id="line2d_2">
      <defs>
       <path id="m281f5ec7d4" d="M 0 0 
L 0 3.5 
" style="stroke: var(--fg-color); stroke-width: 0.8"/>
      </defs>
      <g>
       <use xlink:href="#m281f5ec7d4" x="69.784035" y="103.4" style="fill: var(--fg-color); stroke: var(--fg-color); stroke-width: 0.8"/>
      </g>
     </g>
     <g id="text_1">
      <text style="font-size: 7px; font-family: 'DejaVu Sans', 'Bitstream Vera Sans', 'Computer Modern Sans Serif', 'Lucida Grande', 'Verdana', 'Geneva', 'Lucid', 'Arial', 'Helvetica', 'Avant Garde', sans-serif; text-anchor: middle; fill: var(--fg-color)" x="69.784035" y="115.718359" transform="rotate(-0 69.784035 115.718359)">02/2026</text>
     </g>
    </g>
    <g id="xtick_2">
     <g id="line2d_3">
      <path d="M 122.345302 103.4 
L 122.345302 5 
" clip-path="url(#pf7b36cb5b1)" style="fill: none; stroke-dasharray: 2.96,1.28; stroke-dashoffset: 0; stroke: var(--grid-color); stroke-width: 0.8"/>
     </g>
     <g id="line2d_4">
      <g>
       <use xlink:href="#m281f5ec7d4" x="122.345302" y="103.4" style="fill: var(--fg-color); stroke: var(--fg-color); stroke-width: 0.8"/>
      </g>
     </g>
     <g id="text_2">
      <text style="font-size: 7px; font-family: 'DejaVu Sans', 'Bitstream Vera Sans', 'Computer Modern Sans Serif', 'Lucida Grande', 'Verdana', 'Geneva', 'Lucid', 'Arial', 'Helvetica', 'Avant Garde', sans-serif; text-anchor: middle; fill: var(--fg-color)" x="122.345302" y="115.718359" transform="rotate(-0 122.345302 115.718359)">04/2026</text>
     </g>
    </g>
    <g id="xtick_3">
     <g id="line2d_5">
      <path d="M 176.688307 103.4 
L 176.688307 5 
" clip-path="url(#pf7b36cb5b1)" style="fill: none; stroke-dasharray: 2.96,1.28; stroke-dashoffset: 0; stroke: var(--grid-color); stroke-width: 0.8"/>
     </g>
     <g id="line2d_6">
      <g>
       <use xlink:href="#m281f5ec7d4" x="176.688307" y="103.4" style="fill: var(--fg-color); stroke: var(--fg-color); stroke-width: 0.8"/>
      </g>
     </g>
     <g id="text_3">
      <text style="font-size: 7px; font-family: 'DejaVu Sans', 'Bitstream Vera Sans', 'Computer Modern Sans Serif', 'Lucida Grande', 'Verdana', 'Geneva', 'Lucid', 'Arial', 'Helvetica', 'Avant Garde', sans-serif; text-anchor: middle; fill: var(--fg-color)" x="176.688307" y="115.718359" transform="rotate(-0 176.688307 115.718359)">06/2026</text>
     </g>
    </g>
   </g>
   <g id="matplotlib.axis_2">
    <g id="ytick_1">
     <g id="line2d_7">
      <path d="M 35.96 96.154794 
L 211 96.154794 
" clip-path="url(#pf7b36cb5b1)" style="fill: none; stroke-dasharray: 2.96,1.28; stroke-dashoffset: 0; stroke: var(--grid-color); stroke-width: 0.8"/>
     </g>
     <g id="line2d_8">
      <defs>
       <path id="m5a21224999" d="M 0 0 
L -3.5 0 
" style="stroke: var(--fg-color); stroke-width: 0.8"/>
      </defs>
      <g>
       <use xlink:href="#m5a21224999" x="35.96" y="96.154794" style="fill: var(--fg-color); stroke: var(--fg-color); stroke-width: 0.8"/>
      </g>
     </g>
     <g id="text_4">
      <text style="font-size: 7px; font-family: 'DejaVu Sans', 'Bitstream Vera Sans', 'Computer Modern Sans Serif', 'Lucida Grande', 'Verdana', 'Geneva', 'Lucid', 'Arial', 'Helvetica', 'Avant Garde', sans-serif; text-anchor: end; fill: var(--fg-color)" x="28.96" y="98.813974" transform="rotate(-0 28.96 98.813974)">25</text>
     </g>
    </g>
    <g id="ytick_2">
     <g id="line2d_9">
      <path d="M 35.96 81.9282 
L 211 81.9282 
" clip-path="url(#pf7b36cb5b1)" style="fill: none; stroke-dasharray: 2.96,1.28; stroke-dashoffset: 0; stroke: var(--grid-color); stroke-width: 0.8"/>
     </g>
     <g id="line2d_10">
      <g>
       <use xlink:href="#m5a21224999" x="35.96" y="81.9282" style="fill: var(--fg-color); stroke: var(--fg-color); stroke-width: 0.8"/>
      </g>
     </g>
     <g id="text_5">
      <text style="font-size: 7px; font-family: 'DejaVu Sans', 'Bitstream Vera Sans', 'Computer Modern Sans Serif', 'Lucida Grande', 'Verdana', 'Geneva', 'Lucid', 'Arial', 'Helvetica', 'Avant Garde', sans-serif; text-anchor: end; fill: var(--fg-color)" x="28.96" y="84.58738" transform="rotate(-0 28.96 84.58738)">50</text>
     </g>
    </g>
    <g id="ytick_3">
     <g id="line2d_11">
      <path d="M 35.96 67.701607 
L 211 67.701607 
" clip-path="url(#pf7b36cb5b1)" style="fill: none; stroke-dasharray: 2.96,1.28; stroke-dashoffset: 0; stroke: var(--grid-color); stroke-width: 0.8"/>
     </g>
     <g id="line2d_12">
      <g>
       <use xlink:href="#m5a21224999" x="35.96" y="67.701607" style="fill: var(--fg-color); stroke: var(--fg-color); stroke-width: 0.8"/>
      </g>
     </g>
     <g id="text_6">
      <text style="font-size: 7px; font-family: 'DejaVu Sans', 'Bitstream Vera Sans', 'Computer Modern Sans Serif', 'Lucida Grande', 'Verdana', 'Geneva', 'Lucid', 'Arial', 'Helvetica', 'Avant Garde', sans-serif; text-anchor: end; fill: var(--fg-color)" x="28.96" y="70.360786" transform="rotate(-0 28.96 70.360786)">75</text>
     </g>
    </g>
    <g id="ytick_4">
     <g id="line2d_13">
      <path d="M 35.96 53.475013 
L 211 53.475013 
" clip-path="url(#pf7b36cb5b1)" style="fill: none; stroke-dasharray: 2.96,1.28; stroke-dashoffset: 0; stroke: var(--grid-color); stroke-width: 0.8"/>
     </g>
     <g id="line2d_14">
      <g>
       <use xlink:href="#m5a21224999" x="35.96" y="53.475013" style="fill: var(--fg-color); stroke: var(--fg-color); stroke-width: 0.8"/>
      </g>
     </g>
     <g id="text_7">
      <text style="font-size: 7px; font-family: 'DejaVu Sans', 'Bitstream Vera Sans', 'Computer Modern Sans Serif', 'Lucida Grande', 'Verdana', 'Geneva', 'Lucid', 'Arial', 'Helvetica', 'Avant Garde', sans-serif; text-anchor: end; fill: var(--fg-color)" x="28.96" y="56.134192" transform="rotate(-0 28.96 56.134192)">100</text>
     </g>
    </g>
    <g id="ytick_5">
     <g id="line2d_15">
      <path d="M 35.96 39.248419 
L 211 39.248419 
" clip-path="url(#pf7b36cb5b1)" style="fill: none; stroke-dasharray: 2.96,1.28; stroke-dashoffset: 0; stroke: var(--grid-color); stroke-width: 0.8"/>
     </g>
     <g id="line2d_16">
      <g>
       <use xlink:href="#m5a21224999" x="35.96" y="39.248419" style="fill: var(--fg-color); stroke: var(--fg-color); stroke-width: 0.8"/>
      </g>
     </g>
     <g id="text_8">
      <text style="font-size: 7px; font-family: 'DejaVu Sans', 'Bitstream Vera Sans', 'Computer Modern Sans Serif', 'Lucida Grande', 'Verdana', 'Geneva', 'Lucid', 'Arial', 'Helvetica', 'Avant Garde', sans-serif; text-anchor: end; fill: var(--fg-color)" x="28.96" y="41.907599" transform="rotate(-0 28.96 41.907599)">125</text>
     </g>
    </g>
    <g id="ytick_6">
     <g id="line2d_17">
      <path d="M 35.96 25.021825 
L 211 25.021825 
" clip-path="url(#pf7b36cb5b1)" style="fill: none; stroke-dasharray: 2.96,1.28; stroke-dashoffset: 0; stroke: var(--grid-color); stroke-width: 0.8"/>
     </g>
     <g id="line2d_18">
      <g>
       <use xlink:href="#m5a21224999" x="35.96" y="25.021825" style="fill: var(--fg-color); stroke: var(--fg-color); stroke-width: 0.8"/>
      </g>
     </g>
     <g id="text_9">
      <text style="font-size: 7px; font-family: 'DejaVu Sans', 'Bitstream Vera Sans', 'Computer Modern Sans Serif', 'Lucida Grande', 'Verdana', 'Geneva', 'Lucid', 'Arial', 'Helvetica', 'Avant Garde', sans-serif; text-anchor: end; fill: var(--fg-color)" x="28.96" y="27.681005" transform="rotate(-0 28.96 27.681005)">150</text>
     </g>
    </g>
    <g id="ytick_7">
     <g id="line2d_19">
      <path d="M 35.96 10.795231 
L 211 10.795231 
" clip-path="url(#pf7b36cb5b1)" style="fill: none; stroke-dasharray: 2.96,1.28; stroke-dashoffset: 0; stroke: var(--grid-color); stroke-width: 0.8"/>
     </g>
     <g id="line2d_20">
      <g>
       <use xlink:href="#m5a21224999" x="35.96" y="10.795231" style="fill: var(--fg-color); stroke: var(--fg-color); stroke-width: 0.8"/>
      </g>
     </g>
     <g id="text_10">
      <text style="font-size: 7px; font-family: 'DejaVu Sans', 'Bitstream Vera Sans', 'Computer Modern Sans Serif', 'Lucida Grande', 'Verdana', 'Geneva', 'Lucid', 'Arial', 'Helvetica', 'Avant Garde', sans-serif; text-anchor: end; fill: var(--fg-color)" x="28.96" y="13.454411" transform="rotate(-0 28.96 13.454411)">175</text>
     </g>
    </g>
    <g id="text_11">
     <text style="font-size: 7px; font-family: 'DejaVu Sans', 'Bitstream Vera Sans', 'Computer Modern Sans Serif', 'Lucida Grande', 'Verdana', 'Geneva', 'Lucid', 'Arial', 'Helvetica', 'Avant Garde', sans-serif; text-anchor: middle; fill: var(--fg-color)" x="9.917109" y="54.2" transform="rotate(-90 9.917109 54.2)">ms</text>
    </g>
   </g>
   <g id="line2d_21">
    <path d="M 43.916364 27.612772 
L 44.468628 29.577181 
L 45.3595 21.145932 
L 46.250371 20.957003 
L 47.141245 14.252863 
L 48.032112 26.663574 
L 48.922979 23.630464 
L 49.81384 13.59218 
L 50.704717 26.90315 
L 51.595589 23.826222 
L 52.486458 25.494148 
L 53.377327 21.678007 
L 54.268192 23.698183 
L 55.159063 16.024927 
L 56.049934 25.28644 
L 56.940797 25.842984 
L 57.831669 21.679145 
L 58.722538 27.226378 
L 59.613407 20.905787 
L 60.504275 17.693991 
L 61.395144 27.904133 
L 62.286016 12.84443 
L 63.176879 30.042106 
L 64.067746 26.154831 
L 64.958622 19.371591 
L 65.84949 28.345158 
L 66.740361 27.262229 
L 67.631226 29.980078 
L 68.522078 23.691923 
L 69.412965 20.159745 
L 70.30383 30.823999 
L 71.194705 32.003668 
L 72.085571 21.330309 
L 72.976442 33.057005 
L 73.867306 24.515358 
L 74.758184 32.288769 
L 76.539914 34.077906 
L 77.430784 26.729016 
L 78.321655 21.017893 
L 79.212509 29.141847 
L 80.103391 28.06404 
L 80.994245 25.897045 
L 81.885129 29.488976 
L 82.775998 26.434811 
L 83.666869 31.646865 
L 84.557735 30.674905 
L 85.44861 31.159747 
L 94.53997 19.74945 
L 95.248438 25.495855 
L 96.139324 23.107495 
L 97.030192 22.771178 
L 97.921065 32.164144 
L 98.811931 29.047382 
L 99.702798 32.084475 
L 100.593666 39.820897 
L 101.484533 28.301909 
L 102.375401 31.999116 
L 103.266272 32.82312 
L 104.157138 28.446451 
L 105.048009 27.045416 
L 105.93888 31.811894 
L 106.829748 30.003409 
L 107.720614 27.464816 
L 108.611487 32.014481 
L 109.502352 24.461866 
L 110.393224 22.851416 
L 111.284094 29.43776 
L 112.17496 26.965747 
L 113.065834 32.087321 
L 113.956695 36.374647 
L 114.847564 15.080851 
L 115.738441 30.145675 
L 116.629309 28.944951 
L 117.520178 29.186234 
L 118.41104 33.536726 
L 119.301913 25.775266 
L 120.192782 28.749762 
L 121.083649 22.840604 
L 121.97452 31.513704 
L 125.537994 23.518359 
L 126.428869 28.050382 
L 127.319734 21.834499 
L 128.210603 25.585767 
L 129.101474 25.251727 
L 129.992342 18.095181 
L 130.883214 22.93393 
L 131.774065 23.537138 
L 132.664946 29.465075 
L 133.55582 23.451209 
L 134.446686 29.764403 
L 135.337558 25.309202 
L 136.228424 25.419032 
L 137.119294 24.836879 
L 138.010159 29.980647 
L 138.901032 24.807857 
L 139.791912 16.679351 
L 140.68277 18.721151 
L 141.57364 15.856484 
L 142.464507 12.127979 
L 143.355376 20.753847 
L 144.246246 24.168799 
L 145.137113 20.789129 
L 146.027984 15.981109 
L 146.918849 15.653898 
L 173.644977 15.653898 
L 181.959197 21.856693 
L 182.553652 28.55002 
L 183.444521 19.246966 
L 184.335387 18.708632 
L 185.226256 13.351466 
L 186.117131 22.0405 
L 187.007996 18.241431 
L 187.898864 22.934499 
L 188.789731 18.763262 
L 189.680603 11.010338 
L 190.571474 11.234549 
L 191.462343 16.410183 
L 192.353215 20.555244 
L 193.244077 18.55783 
L 194.134949 21.720117 
L 195.025817 23.880852 
L 195.916688 13.382764 
L 196.807557 10.66264 
L 197.698426 22.667039 
L 198.589295 19.771643 
L 199.480162 9.472727 
L 200.371032 27.148986 
L 201.261898 23.295286 
L 202.152766 19.981628 
L 203.043636 23.550795 
L 203.043636 23.550795 
" clip-path="url(#pf7b36cb5b1)" style="fill: none; stroke: #339af0; stroke-width: 1.2; stroke-linecap: square"/>
   </g>
   <g id="line2d_22">
    <path d="M 43.916364 91.136221 
L 44.468628 90.013458 
L 45.3595 91.085005 
L 46.250371 91.895921 
L 47.141245 89.944601 
L 48.032112 90.173365 
L 48.922979 91.588058 
L 49.81384 91.995507 
L 50.704717 93.248586 
L 51.595589 93.47678 
L 52.486458 93.236635 
L 53.377327 93.609372 
L 54.268192 90.267261 
L 55.159063 88.805905 
L 56.049934 91.189713 
L 56.940797 91.877142 
L 57.831669 91.247757 
L 58.722538 93.348172 
L 59.613407 90.781125 
L 60.504275 91.154431 
L 61.395144 87.648429 
L 62.286016 95.257381 
L 63.176879 92.705699 
L 64.067746 93.369796 
L 64.958622 93.274762 
L 65.84949 94.797577 
L 67.631226 91.812838 
L 69.412965 96.444448 
L 70.30383 93.092093 
L 72.085571 95.643775 
L 72.976442 95.784334 
L 73.867306 92.571969 
L 74.758184 98.848173 
L 75.649039 93.546206 
L 76.539914 93.562709 
L 77.430784 92.813252 
L 78.321655 96.528669 
L 79.212509 95.038291 
L 80.103391 98.034981 
L 80.994245 98.183506 
L 81.885129 94.736687 
L 82.775998 93.666847 
L 83.666869 95.463951 
L 84.557735 95.256812 
L 85.44861 93.92634 
L 94.53997 92.882108 
L 95.248438 98.927273 
L 96.139324 96.056346 
L 97.030192 94.991628 
L 97.921065 94.225099 
L 98.811931 93.27021 
L 99.702798 95.066175 
L 100.593666 95.142999 
L 101.484533 92.288575 
L 102.375401 97.426652 
L 103.266272 94.517029 
L 104.157138 94.551172 
L 105.048009 94.819202 
L 105.93888 96.877505 
L 106.829748 95.008131 
L 107.720614 91.091265 
L 108.611487 93.846102 
L 109.502352 88.967519 
L 110.393224 91.619356 
L 111.284094 96.471194 
L 112.17496 95.052518 
L 113.065834 95.47647 
L 114.847564 95.362657 
L 115.738441 95.957329 
L 116.629309 93.533686 
L 117.520178 97.114805 
L 118.41104 94.253552 
L 119.301913 94.233635 
L 120.192782 94.637101 
L 121.083649 92.507095 
L 121.97452 97.266176 
L 125.537994 95.846362 
L 126.428869 95.62272 
L 128.210603 92.162812 
L 129.101474 94.553449 
L 129.992342 95.362088 
L 130.883214 93.238342 
L 131.774065 91.804302 
L 132.664946 93.350448 
L 133.55582 96.492249 
L 134.446686 90.860794 
L 135.337558 94.377039 
L 136.228424 91.667726 
L 137.119294 95.195353 
L 138.010159 96.236739 
L 138.901032 93.552466 
L 139.791912 90.352051 
L 140.68277 89.267985 
L 141.57364 86.818734 
L 142.464507 89.040928 
L 143.355376 86.38397 
L 144.246246 88.598197 
L 145.137113 88.775175 
L 146.027984 92.029082 
L 146.918849 91.588627 
L 173.644977 91.588627 
L 181.959197 92.08485 
L 182.553652 89.316924 
L 183.444521 84.187953 
L 184.335387 86.405594 
L 185.226256 87.211957 
L 187.007996 88.243101 
L 187.898864 82.744807 
L 188.789731 86.894989 
L 189.680603 88.58397 
L 190.571474 84.524269 
L 191.462343 90.07947 
L 192.353215 87.111233 
L 193.244077 88.12189 
L 194.134949 88.285212 
L 195.025817 91.941446 
L 195.916688 83.395816 
L 196.807557 90.497731 
L 197.698426 89.796645 
L 198.589295 87.932392 
L 199.480162 80.668862 
L 200.371032 88.953292 
L 201.261898 89.316924 
L 202.152766 91.014441 
L 203.043636 87.880038 
L 203.043636 87.880038 
" clip-path="url(#pf7b36cb5b1)" style="fill: none; stroke: #ff6b6b; stroke-width: 1.2; stroke-linecap: square"/>
   </g>
   <g id="patch_3">
    <path d="M 35.96 103.4 
L 35.96 5 
" style="fill: none; stroke: var(--fg-color); stroke-width: 0.8; stroke-linejoin: miter; stroke-linecap: square"/>
   </g>
   <g id="patch_4">
    <path d="M 35.96 103.4 
L 211 103.4 
" style="fill: none; stroke: var(--fg-color); stroke-width: 0.8; stroke-linejoin: miter; stroke-linecap: square"/>
   </g>
  </g>
 </g>
 <defs>
  <clipPath id="pf7b36cb5b1">
   <rect x="35.96" y="5" width="175.04" height="98.4"/>
  </clipPath>
 </defs>
</svg>
