<?xml version="1.0" encoding="utf-8" standalone="no"?>
<!DOCTYPE svg PUBLIC "-//W3C//DTD SVG 1.1//EN"
  "http://www.w3.org/Graphics/SVG/1.1/DTD/svg11.dtd">
<svg xmlns:xlink="http://www.w3.org/1999/xlink" width="216pt" height="122.4pt" viewBox="0 0 216 122.4" xmlns="http://www.w3.org/2000/svg" version="1.1">
  <style>
    :root {
      --fg-color: #212529;
      --grid-color: rgba(33, 37, 41, 0.1);
    }
    @media (prefers-color-scheme: dark) {
      :root {
        --fg-color: #dee2e6;
        --grid-color: rgba(248, 249, 250, 0.15);
      }
    }
  </style>

 <metadata>
  <rdf:RDF xmlns:dc="http://purl.org/dc/elements/1.1/" xmlns:cc="http://creativecommons.org/ns#" xmlns:rdf="http://www.w3.org/1999/02/22-rdf-syntax-ns#">
   <cc:Work>
    <dc:type rdf:resource="http://purl.org/dc/dcmitype/StillImage"/>
    <dc:date>2026-06-30T04:49:26.952071</dc:date>
    <dc:format>image/svg+xml</dc:format>
    <dc:creator>
     <cc:Agent>
      <dc:title>Matplotlib v3.11.0, https://matplotlib.org/</dc:title>
     </cc:Agent>
    </dc:creator>
   </cc:Work>
  </rdf:RDF>
 </metadata>
 <defs>
  <style type="text/css">*{stroke-linejoin: round; stroke-linecap: butt}</style>
 </defs>
 <g id="figure_1">
  <g id="patch_1">
   <path d="M 0 122.4 
L 216 122.4 
L 216 0 
L 0 0 
L 0 122.4 
z
" style="fill: none; opacity: 0"/>
  </g>
  <g id="axes_1">
   <g id="patch_2">
    <path d="M 35.96 103.4 
L 211 103.4 
L 211 6.537988 
L 35.96 6.537988 
L 35.96 103.4 
z
" style="fill: none; opacity: 0"/>
   </g>
   <g id="matplotlib.axis_1">
    <g id="xtick_1">
     <g id="line2d_1">
      <path d="M 72.056377 103.4 
L 72.056377 6.537988 
" clip-path="url(#p361b7a75f3)" style="fill: none; stroke-dasharray: 2.96,1.28; stroke-dashoffset: 0; stroke: var(--grid-color); stroke-width: 0.8"/>
     </g>
     <g id="line2d_2">
      <defs>
       <path id="ma7032c5aa8" d="M 0 0 
L 0 3.5 
" style="stroke: var(--fg-color); stroke-width: 0.8"/>
      </defs>
      <g>
       <use xlink:href="#ma7032c5aa8" x="72.056377" y="103.4" style="fill: var(--fg-color); stroke: var(--fg-color); stroke-width: 0.8"/>
      </g>
     </g>
     <g id="text_1">
      <text style="font-size: 7px; font-family: 'DejaVu Sans', 'Bitstream Vera Sans', 'Computer Modern Sans Serif', 'Lucida Grande', 'Verdana', 'Geneva', 'Lucid', 'Arial', 'Helvetica', 'Avant Garde', sans-serif; text-anchor: middle; fill: var(--fg-color)" x="72.056377" y="115.718359" transform="rotate(-0 72.056377 115.718359)">02/2026</text>
     </g>
    </g>
    <g id="xtick_2">
     <g id="line2d_3">
      <path d="M 126.640628 103.4 
L 126.640628 6.537988 
" clip-path="url(#p361b7a75f3)" style="fill: none; stroke-dasharray: 2.96,1.28; stroke-dashoffset: 0; stroke: var(--grid-color); stroke-width: 0.8"/>
     </g>
     <g id="line2d_4">
      <g>
       <use xlink:href="#ma7032c5aa8" x="126.640628" y="103.4" style="fill: var(--fg-color); stroke: var(--fg-color); stroke-width: 0.8"/>
      </g>
     </g>
     <g id="text_2">
      <text style="font-size: 7px; font-family: 'DejaVu Sans', 'Bitstream Vera Sans', 'Computer Modern Sans Serif', 'Lucida Grande', 'Verdana', 'Geneva', 'Lucid', 'Arial', 'Helvetica', 'Avant Garde', sans-serif; text-anchor: middle; fill: var(--fg-color)" x="126.640628" y="115.718359" transform="rotate(-0 126.640628 115.718359)">04/2026</text>
     </g>
    </g>
    <g id="xtick_3">
     <g id="line2d_5">
      <path d="M 183.075192 103.4 
L 183.075192 6.537988 
" clip-path="url(#p361b7a75f3)" style="fill: none; stroke-dasharray: 2.96,1.28; stroke-dashoffset: 0; stroke: var(--grid-color); stroke-width: 0.8"/>
     </g>
     <g id="line2d_6">
      <g>
       <use xlink:href="#ma7032c5aa8" x="183.075192" y="103.4" style="fill: var(--fg-color); stroke: var(--fg-color); stroke-width: 0.8"/>
      </g>
     </g>
     <g id="text_3">
      <text style="font-size: 7px; font-family: 'DejaVu Sans', 'Bitstream Vera Sans', 'Computer Modern Sans Serif', 'Lucida Grande', 'Verdana', 'Geneva', 'Lucid', 'Arial', 'Helvetica', 'Avant Garde', sans-serif; text-anchor: middle; fill: var(--fg-color)" x="183.075192" y="115.718359" transform="rotate(-0 183.075192 115.718359)">06/2026</text>
     </g>
    </g>
   </g>
   <g id="matplotlib.axis_2">
    <g id="ytick_1">
     <g id="line2d_7">
      <path d="M 35.96 102.209903 
L 211 102.209903 
" clip-path="url(#p361b7a75f3)" style="fill: none; stroke-dasharray: 2.96,1.28; stroke-dashoffset: 0; stroke: var(--grid-color); stroke-width: 0.8"/>
     </g>
     <g id="line2d_8">
      <defs>
       <path id="m14feb7ba0e" d="M 0 0 
L -3.5 0 
" style="stroke: var(--fg-color); stroke-width: 0.8"/>
      </defs>
      <g>
       <use xlink:href="#m14feb7ba0e" x="35.96" y="102.209903" style="fill: var(--fg-color); stroke: var(--fg-color); stroke-width: 0.8"/>
      </g>
     </g>
     <g id="text_4">
      <text style="font-size: 7px; font-family: 'DejaVu Sans', 'Bitstream Vera Sans', 'Computer Modern Sans Serif', 'Lucida Grande', 'Verdana', 'Geneva', 'Lucid', 'Arial', 'Helvetica', 'Avant Garde', sans-serif; text-anchor: end; fill: var(--fg-color)" x="28.96" y="104.869083" transform="rotate(-0 28.96 104.869083)">20</text>
     </g>
    </g>
    <g id="ytick_2">
     <g id="line2d_9">
      <path d="M 35.96 83.305978 
L 211 83.305978 
" clip-path="url(#p361b7a75f3)" style="fill: none; stroke-dasharray: 2.96,1.28; stroke-dashoffset: 0; stroke: var(--grid-color); stroke-width: 0.8"/>
     </g>
     <g id="line2d_10">
      <g>
       <use xlink:href="#m14feb7ba0e" x="35.96" y="83.305978" style="fill: var(--fg-color); stroke: var(--fg-color); stroke-width: 0.8"/>
      </g>
     </g>
     <g id="text_5">
      <text style="font-size: 7px; font-family: 'DejaVu Sans', 'Bitstream Vera Sans', 'Computer Modern Sans Serif', 'Lucida Grande', 'Verdana', 'Geneva', 'Lucid', 'Arial', 'Helvetica', 'Avant Garde', sans-serif; text-anchor: end; fill: var(--fg-color)" x="28.96" y="85.965158" transform="rotate(-0 28.96 85.965158)">40</text>
     </g>
    </g>
    <g id="ytick_3">
     <g id="line2d_11">
      <path d="M 35.96 64.402053 
L 211 64.402053 
" clip-path="url(#p361b7a75f3)" style="fill: none; stroke-dasharray: 2.96,1.28; stroke-dashoffset: 0; stroke: var(--grid-color); stroke-width: 0.8"/>
     </g>
     <g id="line2d_12">
      <g>
       <use xlink:href="#m14feb7ba0e" x="35.96" y="64.402053" style="fill: var(--fg-color); stroke: var(--fg-color); stroke-width: 0.8"/>
      </g>
     </g>
     <g id="text_6">
      <text style="font-size: 7px; font-family: 'DejaVu Sans', 'Bitstream Vera Sans', 'Computer Modern Sans Serif', 'Lucida Grande', 'Verdana', 'Geneva', 'Lucid', 'Arial', 'Helvetica', 'Avant Garde', sans-serif; text-anchor: end; fill: var(--fg-color)" x="28.96" y="67.061232" transform="rotate(-0 28.96 67.061232)">60</text>
     </g>
    </g>
    <g id="ytick_4">
     <g id="line2d_13">
      <path d="M 35.96 45.498127 
L 211 45.498127 
" clip-path="url(#p361b7a75f3)" style="fill: none; stroke-dasharray: 2.96,1.28; stroke-dashoffset: 0; stroke: var(--grid-color); stroke-width: 0.8"/>
     </g>
     <g id="line2d_14">
      <g>
       <use xlink:href="#m14feb7ba0e" x="35.96" y="45.498127" style="fill: var(--fg-color); stroke: var(--fg-color); stroke-width: 0.8"/>
      </g>
     </g>
     <g id="text_7">
      <text style="font-size: 7px; font-family: 'DejaVu Sans', 'Bitstream Vera Sans', 'Computer Modern Sans Serif', 'Lucida Grande', 'Verdana', 'Geneva', 'Lucid', 'Arial', 'Helvetica', 'Avant Garde', sans-serif; text-anchor: end; fill: var(--fg-color)" x="28.96" y="48.157307" transform="rotate(-0 28.96 48.157307)">80</text>
     </g>
    </g>
    <g id="ytick_5">
     <g id="line2d_15">
      <path d="M 35.96 26.594202 
L 211 26.594202 
" clip-path="url(#p361b7a75f3)" style="fill: none; stroke-dasharray: 2.96,1.28; stroke-dashoffset: 0; stroke: var(--grid-color); stroke-width: 0.8"/>
     </g>
     <g id="line2d_16">
      <g>
       <use xlink:href="#m14feb7ba0e" x="35.96" y="26.594202" style="fill: var(--fg-color); stroke: var(--fg-color); stroke-width: 0.8"/>
      </g>
     </g>
     <g id="text_8">
      <text style="font-size: 7px; font-family: 'DejaVu Sans', 'Bitstream Vera Sans', 'Computer Modern Sans Serif', 'Lucida Grande', 'Verdana', 'Geneva', 'Lucid', 'Arial', 'Helvetica', 'Avant Garde', sans-serif; text-anchor: end; fill: var(--fg-color)" x="28.96" y="29.253382" transform="rotate(-0 28.96 29.253382)">100</text>
     </g>
    </g>
    <g id="ytick_6">
     <g id="line2d_17">
      <path d="M 35.96 7.690276 
L 211 7.690276 
" clip-path="url(#p361b7a75f3)" style="fill: none; stroke-dasharray: 2.96,1.28; stroke-dashoffset: 0; stroke: var(--grid-color); stroke-width: 0.8"/>
     </g>
     <g id="line2d_18">
      <g>
       <use xlink:href="#m14feb7ba0e" x="35.96" y="7.690276" style="fill: var(--fg-color); stroke: var(--fg-color); stroke-width: 0.8"/>
      </g>
     </g>
     <g id="text_9">
      <text style="font-size: 7px; font-family: 'DejaVu Sans', 'Bitstream Vera Sans', 'Computer Modern Sans Serif', 'Lucida Grande', 'Verdana', 'Geneva', 'Lucid', 'Arial', 'Helvetica', 'Avant Garde', sans-serif; text-anchor: end; fill: var(--fg-color)" x="28.96" y="10.349456" transform="rotate(-0 28.96 10.349456)">120</text>
     </g>
    </g>
    <g id="text_10">
     <text style="font-size: 7px; font-family: 'DejaVu Sans', 'Bitstream Vera Sans', 'Computer Modern Sans Serif', 'Lucida Grande', 'Verdana', 'Geneva', 'Lucid', 'Arial', 'Helvetica', 'Avant Garde', sans-serif; text-anchor: middle; fill: var(--fg-color)" x="9.917109" y="54.968994" transform="rotate(-90 9.917109 54.968994)">ms</text>
    </g>
   </g>
   <g id="line2d_19">
    <path d="M 43.916364 76.465593 
L 45.193108 73.724523 
L 45.766628 76.704727 
L 46.691788 80.751112 
L 47.616947 77.154641 
L 48.542109 70.130887 
L 49.467263 80.445814 
L 50.392418 80.230309 
L 51.317566 71.355862 
L 52.242732 80.597045 
L 53.167891 65.756519 
L 54.093049 74.482571 
L 55.018206 66.549539 
L 55.943359 77.094148 
L 56.868517 78.314396 
L 57.793676 74.161204 
L 58.718827 72.340756 
L 59.643987 74.066684 
L 60.569143 74.724541 
L 61.494301 65.20736 
L 62.419457 75.888078 
L 63.344613 49.648484 
L 64.269773 64.094864 
L 65.194924 65.761245 
L 66.120079 64.850076 
L 67.045243 70.924852 
L 67.970398 66.737633 
L 68.895557 73.694277 
L 69.82071 49.061517 
L 70.74585 57.232739 
L 71.671025 75.309618 
L 72.596178 66.502279 
L 73.521341 66.536306 
L 74.446495 70.718799 
L 75.371653 75.617752 
L 76.296805 57.969047 
L 77.221971 83.680276 
L 78.147114 73.196159 
L 79.072277 65.758409 
L 79.997435 66.823645 
L 80.922594 73.314308 
L 81.847735 64.181822 
L 82.772905 56.389624 
L 83.698046 60.569282 
L 84.623219 68.952227 
L 85.548376 67.47394 
L 86.473535 81.771924 
L 87.398688 72.513727 
L 88.323852 68.094934 
L 97.76512 80.250158 
L 98.500856 87.237049 
L 99.426031 75.58845 
L 100.351186 85.189754 
L 101.276348 71.415409 
L 102.201502 77.300201 
L 103.126656 78.416478 
L 104.051812 83.154747 
L 104.976967 71.243383 
L 105.902123 71.121453 
L 106.827282 80.595155 
L 107.752435 78.878679 
L 108.677594 71.089316 
L 109.602753 66.745194 
L 110.527909 85.64912 
L 111.453063 82.61504 
L 112.378223 86.37314 
L 113.303377 77.913633 
L 114.228537 69.019336 
L 115.153695 65.952174 
L 116.078848 64.688447 
L 117.004011 82.696326 
L 117.929158 81.736007 
L 118.854316 57.853733 
L 119.779481 81.171725 
L 120.704637 77.077135 
L 121.629794 87.304158 
L 122.554943 65.509823 
L 123.480104 77.99303 
L 124.405261 81.059246 
L 125.330416 86.749328 
L 126.255574 73.492005 
L 129.9562 76.265211 
L 130.881363 62.471962 
L 131.806516 85.545148 
L 132.731673 59.582497 
L 133.656831 69.579838 
L 134.581987 47.991555 
L 135.507147 67.92669 
L 136.432285 57.344272 
L 137.357455 83.668933 
L 138.282617 74.544009 
L 139.20777 72.722615 
L 140.13293 52.546456 
L 141.058084 55.193005 
L 141.983242 56.011545 
L 142.908395 68.672449 
L 143.833556 82.420329 
L 144.758724 66.378458 
L 145.683869 50.415983 
L 146.609028 54.85557 
L 147.534182 46.811005 
L 148.459339 57.394367 
L 149.384497 80.455266 
L 150.309651 61.985186 
L 151.234811 57.788514 
L 152.159963 54.10981 
L 179.91473 54.10981 
L 188.548948 51.318646 
L 189.166282 51.370632 
L 190.091439 34.191689 
L 191.016594 27.839025 
L 191.94175 43.987704 
L 192.866913 46.556747 
L 193.792066 44.867681 
L 194.717222 67.54294 
L 195.642377 68.139359 
L 196.567536 70.359625 
L 197.492695 10.940806 
L 198.417852 31.753083 
L 199.343013 37.668121 
L 200.268162 41.706945 
L 201.193322 47.678695 
L 202.118478 47.656956 
L 203.043636 32.293735 
" clip-path="url(#p361b7a75f3)" style="fill: none; stroke: #339af0; stroke-width: 1.2; stroke-linecap: square"/>
   </g>
   <g id="line2d_20">
    <path d="M 43.916364 94.327912 
L 45.193108 91.710663 
L 45.766628 94.126585 
L 46.691788 98.515131 
L 47.616947 97.7637 
L 48.542109 91.916716 
L 49.467263 98.228737 
L 50.392418 94.690867 
L 51.317566 96.423412 
L 52.242732 96.981078 
L 53.167891 94.161557 
L 54.093049 92.75416 
L 55.018206 92.274 
L 55.943359 96.43759 
L 56.868517 96.689957 
L 57.793676 92.292904 
L 58.718827 93.131293 
L 59.643987 98.116258 
L 60.569143 93.870437 
L 61.494301 94.328857 
L 62.419457 94.448897 
L 63.344613 93.993312 
L 64.269773 95.841171 
L 65.194924 96.005635 
L 66.120079 95.102027 
L 67.045243 96.359138 
L 67.970398 93.506536 
L 68.895557 97.009434 
L 69.82071 93.449824 
L 70.74585 94.327912 
L 71.671025 96.251386 
L 72.596178 96.470672 
L 73.521341 96.479178 
L 74.446495 92.995185 
L 75.371653 95.834555 
L 76.296805 93.921477 
L 77.221971 97.949904 
L 78.147114 95.520749 
L 79.072277 95.206944 
L 79.997435 97.400745 
L 80.922594 94.654004 
L 81.847735 93.011253 
L 82.772905 96.521712 
L 83.698046 94.309953 
L 84.623219 97.821357 
L 85.548376 93.135074 
L 86.473535 97.624756 
L 87.398688 92.85057 
L 88.323852 97.100172 
L 97.76512 95.746651 
L 98.500856 97.846877 
L 99.426031 94.134146 
L 100.351186 94.963084 
L 101.276348 93.980079 
L 102.201502 95.562338 
L 103.126656 95.725857 
L 104.051812 97.230609 
L 104.976967 96.12662 
L 105.902123 92.447916 
L 106.827282 95.501845 
L 107.752435 95.106753 
L 108.677594 94.736236 
L 109.602753 93.032993 
L 110.527909 94.478198 
L 111.453063 98.997181 
L 112.378223 93.899738 
L 113.303377 96.720203 
L 114.228537 95.261766 
L 115.153695 91.707828 
L 116.078848 94.288213 
L 117.004011 96.876161 
L 117.929158 95.624721 
L 118.854316 92.63601 
L 119.779481 97.769371 
L 120.704637 96.200345 
L 121.629794 97.079378 
L 122.554943 93.969682 
L 123.480104 94.508444 
L 124.405261 96.328892 
L 125.330416 94.757976 
L 126.255574 93.010308 
L 129.9562 93.619014 
L 130.881363 92.676654 
L 131.806516 93.804273 
L 132.731673 94.583115 
L 133.656831 93.707863 
L 134.581987 96.309988 
L 135.507147 93.757958 
L 136.432285 94.289159 
L 137.357455 97.512278 
L 138.282617 95.142671 
L 139.20777 94.217324 
L 140.13293 93.785369 
L 141.058084 95.464983 
L 141.983242 93.322223 
L 142.908395 96.68145 
L 143.833556 95.192766 
L 144.758724 95.953649 
L 145.683869 96.758011 
L 146.609028 93.64548 
L 147.534182 90.356197 
L 148.459339 94.171009 
L 149.384497 96.747614 
L 150.309651 93.366647 
L 151.234811 97.280705 
L 152.159963 92.618997 
L 179.91473 92.618997 
L 188.548948 87.011147 
L 189.166282 91.962085 
L 190.091439 86.122663 
L 191.016594 88.326861 
L 191.94175 87.281474 
L 192.866913 86.804149 
L 193.792066 87.972412 
L 194.717222 87.895851 
L 195.642377 89.168085 
L 196.567536 88.700213 
L 197.492695 87.290925 
L 198.417852 88.604748 
L 199.343013 85.980883 
L 200.268162 89.946927 
L 201.193322 86.307921 
L 202.118478 87.112283 
L 203.043636 86.837231 
" clip-path="url(#p361b7a75f3)" style="fill: none; stroke: #ff6b6b; stroke-width: 1.2; stroke-linecap: square"/>
   </g>
   <g id="patch_3">
    <path d="M 35.96 103.4 
L 35.96 6.537988 
" style="fill: none; stroke: var(--fg-color); stroke-width: 0.8; stroke-linejoin: miter; stroke-linecap: square"/>
   </g>
   <g id="patch_4">
    <path d="M 35.96 103.4 
L 211 103.4 
" style="fill: none; stroke: var(--fg-color); stroke-width: 0.8; stroke-linejoin: miter; stroke-linecap: square"/>
   </g>
  </g>
 </g>
 <defs>
  <clipPath id="p361b7a75f3">
   <rect x="35.96" y="6.537988" width="175.04" height="96.862012"/>
  </clipPath>
 </defs>
</svg>
