<?xml version="1.0" encoding="utf-8" standalone="no"?>
<!DOCTYPE svg PUBLIC "-//W3C//DTD SVG 1.1//EN"
  "http://www.w3.org/Graphics/SVG/1.1/DTD/svg11.dtd">
<svg xmlns:xlink="http://www.w3.org/1999/xlink" width="216pt" height="122.4pt" viewBox="0 0 216 122.4" xmlns="http://www.w3.org/2000/svg" version="1.1">
  <style>
    :root {
      --fg-color: #212529;
      --grid-color: rgba(33, 37, 41, 0.1);
    }
    @media (prefers-color-scheme: dark) {
      :root {
        --fg-color: #dee2e6;
        --grid-color: rgba(248, 249, 250, 0.15);
      }
    }
  </style>

 <metadata>
  <rdf:RDF xmlns:dc="http://purl.org/dc/elements/1.1/" xmlns:cc="http://creativecommons.org/ns#" xmlns:rdf="http://www.w3.org/1999/02/22-rdf-syntax-ns#">
   <cc:Work>
    <dc:type rdf:resource="http://purl.org/dc/dcmitype/StillImage"/>
    <dc:date>2026-06-30T04:48:55.876278</dc:date>
    <dc:format>image/svg+xml</dc:format>
    <dc:creator>
     <cc:Agent>
      <dc:title>Matplotlib v3.11.0, https://matplotlib.org/</dc:title>
     </cc:Agent>
    </dc:creator>
   </cc:Work>
  </rdf:RDF>
 </metadata>
 <defs>
  <style type="text/css">*{stroke-linejoin: round; stroke-linecap: butt}</style>
 </defs>
 <g id="figure_1">
  <g id="patch_1">
   <path d="M 0 122.4 
L 216 122.4 
L 216 0 
L 0 0 
L 0 122.4 
z
" style="fill: none; opacity: 0"/>
  </g>
  <g id="axes_1">
   <g id="patch_2">
    <path d="M 35.96 103.4 
L 211 103.4 
L 211 5 
L 35.96 5 
L 35.96 103.4 
z
" style="fill: none; opacity: 0"/>
   </g>
   <g id="matplotlib.axis_1">
    <g id="xtick_1">
     <g id="line2d_1">
      <path d="M 72.056377 103.4 
L 72.056377 5 
" clip-path="url(#p923a540889)" style="fill: none; stroke-dasharray: 2.96,1.28; stroke-dashoffset: 0; stroke: var(--grid-color); stroke-width: 0.8"/>
     </g>
     <g id="line2d_2">
      <defs>
       <path id="mc3ec07ca0a" d="M 0 0 
L 0 3.5 
" style="stroke: var(--fg-color); stroke-width: 0.8"/>
      </defs>
      <g>
       <use xlink:href="#mc3ec07ca0a" x="72.056377" y="103.4" style="fill: var(--fg-color); stroke: var(--fg-color); stroke-width: 0.8"/>
      </g>
     </g>
     <g id="text_1">
      <text style="font-size: 7px; font-family: 'DejaVu Sans', 'Bitstream Vera Sans', 'Computer Modern Sans Serif', 'Lucida Grande', 'Verdana', 'Geneva', 'Lucid', 'Arial', 'Helvetica', 'Avant Garde', sans-serif; text-anchor: middle; fill: var(--fg-color)" x="72.056377" y="115.718359" transform="rotate(-0 72.056377 115.718359)">02/2026</text>
     </g>
    </g>
    <g id="xtick_2">
     <g id="line2d_3">
      <path d="M 126.640628 103.4 
L 126.640628 5 
" clip-path="url(#p923a540889)" style="fill: none; stroke-dasharray: 2.96,1.28; stroke-dashoffset: 0; stroke: var(--grid-color); stroke-width: 0.8"/>
     </g>
     <g id="line2d_4">
      <g>
       <use xlink:href="#mc3ec07ca0a" x="126.640628" y="103.4" style="fill: var(--fg-color); stroke: var(--fg-color); stroke-width: 0.8"/>
      </g>
     </g>
     <g id="text_2">
      <text style="font-size: 7px; font-family: 'DejaVu Sans', 'Bitstream Vera Sans', 'Computer Modern Sans Serif', 'Lucida Grande', 'Verdana', 'Geneva', 'Lucid', 'Arial', 'Helvetica', 'Avant Garde', sans-serif; text-anchor: middle; fill: var(--fg-color)" x="126.640628" y="115.718359" transform="rotate(-0 126.640628 115.718359)">04/2026</text>
     </g>
    </g>
    <g id="xtick_3">
     <g id="line2d_5">
      <path d="M 183.075192 103.4 
L 183.075192 5 
" clip-path="url(#p923a540889)" style="fill: none; stroke-dasharray: 2.96,1.28; stroke-dashoffset: 0; stroke: var(--grid-color); stroke-width: 0.8"/>
     </g>
     <g id="line2d_6">
      <g>
       <use xlink:href="#mc3ec07ca0a" x="183.075192" y="103.4" style="fill: var(--fg-color); stroke: var(--fg-color); stroke-width: 0.8"/>
      </g>
     </g>
     <g id="text_3">
      <text style="font-size: 7px; font-family: 'DejaVu Sans', 'Bitstream Vera Sans', 'Computer Modern Sans Serif', 'Lucida Grande', 'Verdana', 'Geneva', 'Lucid', 'Arial', 'Helvetica', 'Avant Garde', sans-serif; text-anchor: middle; fill: var(--fg-color)" x="183.075192" y="115.718359" transform="rotate(-0 183.075192 115.718359)">06/2026</text>
     </g>
    </g>
   </g>
   <g id="matplotlib.axis_2">
    <g id="ytick_1">
     <g id="line2d_7">
      <path d="M 35.96 102.009685 
L 211 102.009685 
" clip-path="url(#p923a540889)" style="fill: none; stroke-dasharray: 2.96,1.28; stroke-dashoffset: 0; stroke: var(--grid-color); stroke-width: 0.8"/>
     </g>
     <g id="line2d_8">
      <defs>
       <path id="m82c9891382" d="M 0 0 
L -3.5 0 
" style="stroke: var(--fg-color); stroke-width: 0.8"/>
      </defs>
      <g>
       <use xlink:href="#m82c9891382" x="35.96" y="102.009685" style="fill: var(--fg-color); stroke: var(--fg-color); stroke-width: 0.8"/>
      </g>
     </g>
     <g id="text_4">
      <text style="font-size: 7px; font-family: 'DejaVu Sans', 'Bitstream Vera Sans', 'Computer Modern Sans Serif', 'Lucida Grande', 'Verdana', 'Geneva', 'Lucid', 'Arial', 'Helvetica', 'Avant Garde', sans-serif; text-anchor: end; fill: var(--fg-color)" x="28.96" y="104.668865" transform="rotate(-0 28.96 104.668865)">0</text>
     </g>
    </g>
    <g id="ytick_2">
     <g id="line2d_9">
      <path d="M 35.96 78.608437 
L 211 78.608437 
" clip-path="url(#p923a540889)" style="fill: none; stroke-dasharray: 2.96,1.28; stroke-dashoffset: 0; stroke: var(--grid-color); stroke-width: 0.8"/>
     </g>
     <g id="line2d_10">
      <g>
       <use xlink:href="#m82c9891382" x="35.96" y="78.608437" style="fill: var(--fg-color); stroke: var(--fg-color); stroke-width: 0.8"/>
      </g>
     </g>
     <g id="text_5">
      <text style="font-size: 7px; font-family: 'DejaVu Sans', 'Bitstream Vera Sans', 'Computer Modern Sans Serif', 'Lucida Grande', 'Verdana', 'Geneva', 'Lucid', 'Arial', 'Helvetica', 'Avant Garde', sans-serif; text-anchor: end; fill: var(--fg-color)" x="28.96" y="81.267617" transform="rotate(-0 28.96 81.267617)">50</text>
     </g>
    </g>
    <g id="ytick_3">
     <g id="line2d_11">
      <path d="M 35.96 55.20719 
L 211 55.20719 
" clip-path="url(#p923a540889)" style="fill: none; stroke-dasharray: 2.96,1.28; stroke-dashoffset: 0; stroke: var(--grid-color); stroke-width: 0.8"/>
     </g>
     <g id="line2d_12">
      <g>
       <use xlink:href="#m82c9891382" x="35.96" y="55.20719" style="fill: var(--fg-color); stroke: var(--fg-color); stroke-width: 0.8"/>
      </g>
     </g>
     <g id="text_6">
      <text style="font-size: 7px; font-family: 'DejaVu Sans', 'Bitstream Vera Sans', 'Computer Modern Sans Serif', 'Lucida Grande', 'Verdana', 'Geneva', 'Lucid', 'Arial', 'Helvetica', 'Avant Garde', sans-serif; text-anchor: end; fill: var(--fg-color)" x="28.96" y="57.866369" transform="rotate(-0 28.96 57.866369)">100</text>
     </g>
    </g>
    <g id="ytick_4">
     <g id="line2d_13">
      <path d="M 35.96 31.805942 
L 211 31.805942 
" clip-path="url(#p923a540889)" style="fill: none; stroke-dasharray: 2.96,1.28; stroke-dashoffset: 0; stroke: var(--grid-color); stroke-width: 0.8"/>
     </g>
     <g id="line2d_14">
      <g>
       <use xlink:href="#m82c9891382" x="35.96" y="31.805942" style="fill: var(--fg-color); stroke: var(--fg-color); stroke-width: 0.8"/>
      </g>
     </g>
     <g id="text_7">
      <text style="font-size: 7px; font-family: 'DejaVu Sans', 'Bitstream Vera Sans', 'Computer Modern Sans Serif', 'Lucida Grande', 'Verdana', 'Geneva', 'Lucid', 'Arial', 'Helvetica', 'Avant Garde', sans-serif; text-anchor: end; fill: var(--fg-color)" x="28.96" y="34.465122" transform="rotate(-0 28.96 34.465122)">150</text>
     </g>
    </g>
    <g id="ytick_5">
     <g id="line2d_15">
      <path d="M 35.96 8.404694 
L 211 8.404694 
" clip-path="url(#p923a540889)" style="fill: none; stroke-dasharray: 2.96,1.28; stroke-dashoffset: 0; stroke: var(--grid-color); stroke-width: 0.8"/>
     </g>
     <g id="line2d_16">
      <g>
       <use xlink:href="#m82c9891382" x="35.96" y="8.404694" style="fill: var(--fg-color); stroke: var(--fg-color); stroke-width: 0.8"/>
      </g>
     </g>
     <g id="text_8">
      <text style="font-size: 7px; font-family: 'DejaVu Sans', 'Bitstream Vera Sans', 'Computer Modern Sans Serif', 'Lucida Grande', 'Verdana', 'Geneva', 'Lucid', 'Arial', 'Helvetica', 'Avant Garde', sans-serif; text-anchor: end; fill: var(--fg-color)" x="28.96" y="11.063874" transform="rotate(-0 28.96 11.063874)">200</text>
     </g>
    </g>
    <g id="text_9">
     <text style="font-size: 7px; font-family: 'DejaVu Sans', 'Bitstream Vera Sans', 'Computer Modern Sans Serif', 'Lucida Grande', 'Verdana', 'Geneva', 'Lucid', 'Arial', 'Helvetica', 'Avant Garde', sans-serif; text-anchor: middle; fill: var(--fg-color)" x="9.917109" y="54.2" transform="rotate(-90 9.917109 54.2)">ms</text>
    </g>
   </g>
   <g id="line2d_17">
    <path d="M 43.916364 34.833127 
L 45.193108 33.630771 
L 45.766628 33.056037 
L 46.691788 34.591627 
L 47.616947 32.67132 
L 48.542109 28.187641 
L 49.467263 31.792369 
L 50.392418 32.63809 
L 51.317566 33.093011 
L 52.242732 34.014552 
L 53.167891 33.089734 
L 54.093049 34.077735 
L 55.018206 31.46054 
L 55.943359 37.235031 
L 56.868517 27.894657 
L 57.793676 35.290856 
L 58.718827 31.043997 
L 59.643987 36.108963 
L 60.569143 31.819047 
L 61.494301 33.226398 
L 62.419457 34.552312 
L 63.344613 36.354209 
L 64.269773 24.189772 
L 65.194924 35.67838 
L 66.120079 34.622984 
L 67.045243 25.470756 
L 67.970398 37.6146 
L 68.895557 31.681915 
L 69.82071 38.423815 
L 70.74585 35.238905 
L 71.671025 34.563077 
L 72.596178 34.714717 
L 73.521341 28.836324 
L 74.446495 27.846919 
L 75.371653 38.880607 
L 76.296805 30.685022 
L 77.221971 38.991997 
L 78.147114 35.796323 
L 79.072277 36.357485 
L 79.997435 35.389609 
L 80.922594 26.972648 
L 81.847735 36.95094 
L 82.772905 32.43684 
L 83.698046 35.646555 
L 84.623219 34.914096 
L 85.548376 35.577755 
L 86.473535 33.206741 
L 87.398688 34.533591 
L 88.323852 26.372172 
L 97.76512 31.294859 
L 98.500856 31.615456 
L 99.426031 32.193935 
L 100.351186 23.620654 
L 101.276348 37.681527 
L 102.201502 27.631627 
L 103.126656 36.846571 
L 104.051812 39.97485 
L 104.976967 37.806958 
L 105.902123 34.530315 
L 106.827282 37.593539 
L 107.752435 36.848443 
L 108.677594 35.422371 
L 109.602753 26.3703 
L 110.527909 38.759389 
L 111.453063 37.442835 
L 112.378223 35.799131 
L 113.303377 37.894947 
L 114.228537 29.542573 
L 115.153695 34.502702 
L 116.078848 37.855165 
L 117.004011 38.347527 
L 117.929158 32.052591 
L 118.854316 33.015318 
L 119.779481 33.740289 
L 120.704637 33.356977 
L 121.629794 36.044844 
L 122.554943 25.197898 
L 123.480104 37.122237 
L 124.405261 31.751651 
L 125.330416 29.381573 
L 126.255574 30.22823 
L 129.9562 27.598866 
L 130.881363 34.567289 
L 131.806516 35.541249 
L 132.731673 35.276815 
L 133.656831 27.184664 
L 134.581987 23.218152 
L 135.507147 26.943631 
L 136.432285 33.649492 
L 137.357455 33.817045 
L 138.282617 32.710634 
L 139.20777 27.883893 
L 140.13293 31.529807 
L 141.058084 28.564869 
L 141.983242 31.619668 
L 142.908395 33.689742 
L 143.833556 32.880059 
L 144.758724 29.893592 
L 145.683869 28.814327 
L 146.609028 29.21402 
L 147.534182 19.151015 
L 148.459339 28.16424 
L 149.384497 28.933205 
L 150.309651 28.27095 
L 151.234811 26.302905 
L 152.159963 20.493779 
L 179.91473 20.493779 
L 188.548948 31.431522 
L 189.166282 32.051187 
L 190.091439 21.209857 
L 191.016594 28.506834 
L 191.94175 18.160674 
L 192.866913 32.758373 
L 193.792066 24.974182 
L 194.717222 32.395653 
L 195.642377 28.755823 
L 196.567536 23.994606 
L 197.492695 9.472727 
L 198.417852 27.238018 
L 199.343013 22.094424 
L 200.268162 24.023155 
L 201.193322 24.53611 
L 202.118478 30.121052 
L 203.043636 32.030126 
" clip-path="url(#p923a540889)" style="fill: none; stroke: #339af0; stroke-width: 1.2; stroke-linecap: square"/>
   </g>
   <g id="line2d_18">
    <path d="M 43.916364 96.400874 
L 45.193108 97.488096 
L 45.766628 96.790271 
L 46.691788 96.736916 
L 47.616947 96.762189 
L 48.542109 95.819119 
L 49.467263 97.162351 
L 50.392418 95.864517 
L 51.317566 96.463589 
L 52.242732 98.024921 
L 53.167891 96.242214 
L 54.093049 96.448145 
L 55.018206 97.288717 
L 55.943359 96.484182 
L 56.868517 95.836436 
L 57.793676 97.496988 
L 58.718827 96.840817 
L 59.643987 97.26438 
L 60.569143 96.448613 
L 61.494301 96.406022 
L 62.419457 96.689645 
L 63.344613 96.026454 
L 64.269773 97.68373 
L 65.194924 95.632845 
L 66.120079 96.139716 
L 67.045243 96.967652 
L 67.970398 95.297739 
L 68.895557 96.502435 
L 69.82071 97.183412 
L 70.74585 96.805248 
L 71.671025 96.322714 
L 72.596178 95.822863 
L 73.521341 96.57966 
L 74.446495 97.000882 
L 75.371653 95.375899 
L 76.296805 95.163884 
L 77.221971 96.438784 
L 78.147114 95.368879 
L 79.072277 94.96825 
L 79.997435 96.623186 
L 80.922594 95.636589 
L 81.847735 96.601657 
L 82.772905 96.841286 
L 83.698046 95.850009 
L 84.623219 96.700878 
L 85.548376 98.927273 
L 86.473535 95.57013 
L 87.398688 98.068447 
L 88.323852 95.103509 
L 97.76512 95.284635 
L 98.500856 95.04875 
L 99.426031 98.179369 
L 100.351186 96.793079 
L 101.276348 97.52975 
L 102.201502 94.974334 
L 103.126656 97.462355 
L 104.051812 96.865155 
L 104.976967 97.862984 
L 105.902123 97.858304 
L 106.827282 94.961697 
L 107.752435 97.513837 
L 108.677594 96.143928 
L 109.602753 97.438017 
L 110.527909 96.367644 
L 111.453063 96.298845 
L 112.378223 96.852986 
L 113.303377 98.498562 
L 114.228537 95.251405 
L 115.153695 95.975439 
L 116.078848 95.846732 
L 117.004011 97.385131 
L 117.929158 96.740192 
L 118.854316 97.04628 
L 119.779481 97.178732 
L 120.704637 96.77623 
L 121.629794 96.721471 
L 122.554943 95.406789 
L 123.480104 96.55345 
L 124.405261 96.914297 
L 125.330416 96.981693 
L 126.255574 97.144098 
L 129.9562 97.629908 
L 130.881363 96.983097 
L 131.806516 97.693091 
L 132.731673 96.05594 
L 133.656831 96.357348 
L 134.581987 94.659821 
L 135.507147 94.425809 
L 136.432285 96.940507 
L 137.357455 97.474991 
L 138.282617 96.801971 
L 139.20777 96.446272 
L 140.13293 97.823202 
L 141.058084 95.981056 
L 141.983242 96.624122 
L 142.908395 98.492478 
L 143.833556 95.834564 
L 144.758724 96.518816 
L 145.683869 97.0299 
L 146.609028 95.299611 
L 147.534182 94.66965 
L 148.459339 96.532857 
L 149.384497 97.490904 
L 150.309651 98.535068 
L 151.234811 98.554725 
L 152.159963 94.806313 
L 179.91473 94.806313 
L 188.548948 97.213833 
L 189.166282 96.492607 
L 190.091439 96.415851 
L 191.016594 96.690581 
L 191.94175 95.176521 
L 192.866913 96.210856 
L 193.792066 95.901959 
L 194.717222 97.905106 
L 195.642377 95.198518 
L 196.567536 97.479672 
L 197.492695 93.950763 
L 198.417852 98.009944 
L 199.343013 94.964973 
L 200.268162 96.376069 
L 201.193322 97.024283 
L 202.118478 95.326289 
L 203.043636 96.069512 
" clip-path="url(#p923a540889)" style="fill: none; stroke: #ff6b6b; stroke-width: 1.2; stroke-linecap: square"/>
   </g>
   <g id="patch_3">
    <path d="M 35.96 103.4 
L 35.96 5 
" style="fill: none; stroke: var(--fg-color); stroke-width: 0.8; stroke-linejoin: miter; stroke-linecap: square"/>
   </g>
   <g id="patch_4">
    <path d="M 35.96 103.4 
L 211 103.4 
" style="fill: none; stroke: var(--fg-color); stroke-width: 0.8; stroke-linejoin: miter; stroke-linecap: square"/>
   </g>
  </g>
 </g>
 <defs>
  <clipPath id="p923a540889">
   <rect x="35.96" y="5" width="175.04" height="98.4"/>
  </clipPath>
 </defs>
</svg>
