<?xml version="1.0" encoding="utf-8" standalone="no"?>
<!DOCTYPE svg PUBLIC "-//W3C//DTD SVG 1.1//EN"
  "http://www.w3.org/Graphics/SVG/1.1/DTD/svg11.dtd">
<svg xmlns:xlink="http://www.w3.org/1999/xlink" width="216pt" height="122.4pt" viewBox="0 0 216 122.4" xmlns="http://www.w3.org/2000/svg" version="1.1">
  <style>
    :root {
      --fg-color: #212529;
      --grid-color: rgba(33, 37, 41, 0.1);
    }
    @media (prefers-color-scheme: dark) {
      :root {
        --fg-color: #dee2e6;
        --grid-color: rgba(248, 249, 250, 0.15);
      }
    }
  </style>

 <metadata>
  <rdf:RDF xmlns:dc="http://purl.org/dc/elements/1.1/" xmlns:cc="http://creativecommons.org/ns#" xmlns:rdf="http://www.w3.org/1999/02/22-rdf-syntax-ns#">
   <cc:Work>
    <dc:type rdf:resource="http://purl.org/dc/dcmitype/StillImage"/>
    <dc:date>2026-06-30T04:49:10.900739</dc:date>
    <dc:format>image/svg+xml</dc:format>
    <dc:creator>
     <cc:Agent>
      <dc:title>Matplotlib v3.11.0, https://matplotlib.org/</dc:title>
     </cc:Agent>
    </dc:creator>
   </cc:Work>
  </rdf:RDF>
 </metadata>
 <defs>
  <style type="text/css">*{stroke-linejoin: round; stroke-linecap: butt}</style>
 </defs>
 <g id="figure_1">
  <g id="patch_1">
   <path d="M 0 122.4 
L 216 122.4 
L 216 0 
L 0 0 
L 0 122.4 
z
" style="fill: none; opacity: 0"/>
  </g>
  <g id="axes_1">
   <g id="patch_2">
    <path d="M 35.96 103.4 
L 211 103.4 
L 211 5 
L 35.96 5 
L 35.96 103.4 
z
" style="fill: none; opacity: 0"/>
   </g>
   <g id="matplotlib.axis_1">
    <g id="xtick_1">
     <g id="line2d_1">
      <path d="M 70.996911 103.4 
L 70.996911 5 
" clip-path="url(#pf6707ebeb1)" style="fill: none; stroke-dasharray: 2.96,1.28; stroke-dashoffset: 0; stroke: var(--grid-color); stroke-width: 0.8"/>
     </g>
     <g id="line2d_2">
      <defs>
       <path id="me0cca47977" d="M 0 0 
L 0 3.5 
" style="stroke: var(--fg-color); stroke-width: 0.8"/>
      </defs>
      <g>
       <use xlink:href="#me0cca47977" x="70.996911" y="103.4" style="fill: var(--fg-color); stroke: var(--fg-color); stroke-width: 0.8"/>
      </g>
     </g>
     <g id="text_1">
      <text style="font-size: 7px; font-family: 'DejaVu Sans', 'Bitstream Vera Sans', 'Computer Modern Sans Serif', 'Lucida Grande', 'Verdana', 'Geneva', 'Lucid', 'Arial', 'Helvetica', 'Avant Garde', sans-serif; text-anchor: middle; fill: var(--fg-color)" x="70.996911" y="115.718359" transform="rotate(-0 70.996911 115.718359)">02/2026</text>
     </g>
    </g>
    <g id="xtick_2">
     <g id="line2d_3">
      <path d="M 126.022656 103.4 
L 126.022656 5 
" clip-path="url(#pf6707ebeb1)" style="fill: none; stroke-dasharray: 2.96,1.28; stroke-dashoffset: 0; stroke: var(--grid-color); stroke-width: 0.8"/>
     </g>
     <g id="line2d_4">
      <g>
       <use xlink:href="#me0cca47977" x="126.022656" y="103.4" style="fill: var(--fg-color); stroke: var(--fg-color); stroke-width: 0.8"/>
      </g>
     </g>
     <g id="text_2">
      <text style="font-size: 7px; font-family: 'DejaVu Sans', 'Bitstream Vera Sans', 'Computer Modern Sans Serif', 'Lucida Grande', 'Verdana', 'Geneva', 'Lucid', 'Arial', 'Helvetica', 'Avant Garde', sans-serif; text-anchor: middle; fill: var(--fg-color)" x="126.022656" y="115.718359" transform="rotate(-0 126.022656 115.718359)">04/2026</text>
     </g>
    </g>
    <g id="xtick_3">
     <g id="line2d_5">
      <path d="M 182.913681 103.4 
L 182.913681 5 
" clip-path="url(#pf6707ebeb1)" style="fill: none; stroke-dasharray: 2.96,1.28; stroke-dashoffset: 0; stroke: var(--grid-color); stroke-width: 0.8"/>
     </g>
     <g id="line2d_6">
      <g>
       <use xlink:href="#me0cca47977" x="182.913681" y="103.4" style="fill: var(--fg-color); stroke: var(--fg-color); stroke-width: 0.8"/>
      </g>
     </g>
     <g id="text_3">
      <text style="font-size: 7px; font-family: 'DejaVu Sans', 'Bitstream Vera Sans', 'Computer Modern Sans Serif', 'Lucida Grande', 'Verdana', 'Geneva', 'Lucid', 'Arial', 'Helvetica', 'Avant Garde', sans-serif; text-anchor: middle; fill: var(--fg-color)" x="182.913681" y="115.718359" transform="rotate(-0 182.913681 115.718359)">06/2026</text>
     </g>
    </g>
   </g>
   <g id="matplotlib.axis_2">
    <g id="ytick_1">
     <g id="line2d_7">
      <path d="M 35.96 99.656604 
L 211 99.656604 
" clip-path="url(#pf6707ebeb1)" style="fill: none; stroke-dasharray: 2.96,1.28; stroke-dashoffset: 0; stroke: var(--grid-color); stroke-width: 0.8"/>
     </g>
     <g id="line2d_8">
      <defs>
       <path id="md86ef5b429" d="M 0 0 
L -3.5 0 
" style="stroke: var(--fg-color); stroke-width: 0.8"/>
      </defs>
      <g>
       <use xlink:href="#md86ef5b429" x="35.96" y="99.656604" style="fill: var(--fg-color); stroke: var(--fg-color); stroke-width: 0.8"/>
      </g>
     </g>
     <g id="text_4">
      <text style="font-size: 7px; font-family: 'DejaVu Sans', 'Bitstream Vera Sans', 'Computer Modern Sans Serif', 'Lucida Grande', 'Verdana', 'Geneva', 'Lucid', 'Arial', 'Helvetica', 'Avant Garde', sans-serif; text-anchor: end; fill: var(--fg-color)" x="28.96" y="102.315784" transform="rotate(-0 28.96 102.315784)">0</text>
     </g>
    </g>
    <g id="ytick_2">
     <g id="line2d_9">
      <path d="M 35.96 74.730711 
L 211 74.730711 
" clip-path="url(#pf6707ebeb1)" style="fill: none; stroke-dasharray: 2.96,1.28; stroke-dashoffset: 0; stroke: var(--grid-color); stroke-width: 0.8"/>
     </g>
     <g id="line2d_10">
      <g>
       <use xlink:href="#md86ef5b429" x="35.96" y="74.730711" style="fill: var(--fg-color); stroke: var(--fg-color); stroke-width: 0.8"/>
      </g>
     </g>
     <g id="text_5">
      <text style="font-size: 7px; font-family: 'DejaVu Sans', 'Bitstream Vera Sans', 'Computer Modern Sans Serif', 'Lucida Grande', 'Verdana', 'Geneva', 'Lucid', 'Arial', 'Helvetica', 'Avant Garde', sans-serif; text-anchor: end; fill: var(--fg-color)" x="28.96" y="77.38989" transform="rotate(-0 28.96 77.38989)">50</text>
     </g>
    </g>
    <g id="ytick_3">
     <g id="line2d_11">
      <path d="M 35.96 49.804817 
L 211 49.804817 
" clip-path="url(#pf6707ebeb1)" style="fill: none; stroke-dasharray: 2.96,1.28; stroke-dashoffset: 0; stroke: var(--grid-color); stroke-width: 0.8"/>
     </g>
     <g id="line2d_12">
      <g>
       <use xlink:href="#md86ef5b429" x="35.96" y="49.804817" style="fill: var(--fg-color); stroke: var(--fg-color); stroke-width: 0.8"/>
      </g>
     </g>
     <g id="text_6">
      <text style="font-size: 7px; font-family: 'DejaVu Sans', 'Bitstream Vera Sans', 'Computer Modern Sans Serif', 'Lucida Grande', 'Verdana', 'Geneva', 'Lucid', 'Arial', 'Helvetica', 'Avant Garde', sans-serif; text-anchor: end; fill: var(--fg-color)" x="28.96" y="52.463997" transform="rotate(-0 28.96 52.463997)">100</text>
     </g>
    </g>
    <g id="ytick_4">
     <g id="line2d_13">
      <path d="M 35.96 24.878924 
L 211 24.878924 
" clip-path="url(#pf6707ebeb1)" style="fill: none; stroke-dasharray: 2.96,1.28; stroke-dashoffset: 0; stroke: var(--grid-color); stroke-width: 0.8"/>
     </g>
     <g id="line2d_14">
      <g>
       <use xlink:href="#md86ef5b429" x="35.96" y="24.878924" style="fill: var(--fg-color); stroke: var(--fg-color); stroke-width: 0.8"/>
      </g>
     </g>
     <g id="text_7">
      <text style="font-size: 7px; font-family: 'DejaVu Sans', 'Bitstream Vera Sans', 'Computer Modern Sans Serif', 'Lucida Grande', 'Verdana', 'Geneva', 'Lucid', 'Arial', 'Helvetica', 'Avant Garde', sans-serif; text-anchor: end; fill: var(--fg-color)" x="28.96" y="27.538103" transform="rotate(-0 28.96 27.538103)">150</text>
     </g>
    </g>
    <g id="text_8">
     <text style="font-size: 7px; font-family: 'DejaVu Sans', 'Bitstream Vera Sans', 'Computer Modern Sans Serif', 'Lucida Grande', 'Verdana', 'Geneva', 'Lucid', 'Arial', 'Helvetica', 'Avant Garde', sans-serif; text-anchor: middle; fill: var(--fg-color)" x="9.917109" y="54.2" transform="rotate(-90 9.917109 54.2)">ms</text>
    </g>
   </g>
   <g id="line2d_15">
    <path d="M 43.916364 12.322754 
L 44.494523 44.020016 
L 45.427166 36.636468 
L 46.359808 33.546155 
L 47.292453 33.04016 
L 48.22509 33.988341 
L 49.157727 43.465165 
L 50.090359 29.878559 
L 51.023007 34.24757 
L 51.95565 45.226429 
L 52.88829 39.064748 
L 53.82093 35.652393 
L 54.753566 39.652501 
L 55.686208 33.344256 
L 56.618849 23.929746 
L 57.551483 32.147813 
L 58.484126 41.331509 
L 59.416765 41.42523 
L 60.349406 34.34179 
L 61.282045 40.170959 
L 62.214684 33.733598 
L 63.147327 45.027022 
L 64.07996 27.923372 
L 65.012598 33.408066 
L 65.945245 44.452729 
L 66.877884 41.858941 
L 67.810526 17.604551 
L 68.743162 23.042882 
L 69.675784 29.712054 
L 70.608443 38.987478 
L 71.541078 35.264546 
L 72.473724 35.756584 
L 73.406361 27.441305 
L 74.339003 27.208996 
L 75.271637 30.875595 
L 76.204286 27.880001 
L 77.136912 40.984042 
L 78.069558 35.566648 
L 79.002199 30.053539 
L 79.934841 46.728962 
L 80.867465 33.617942 
L 81.800118 33.996815 
L 82.732742 33.775972 
L 83.665398 20.752691 
L 84.598038 28.112311 
L 85.53068 26.287735 
L 86.463316 36.45401 
L 87.395962 31.536131 
L 96.913595 33.289917 
L 97.655282 17.819911 
L 98.587939 36.963994 
L 99.520578 37.205775 
L 100.453222 32.353701 
L 101.385859 20.276607 
L 102.318497 25.039945 
L 103.251135 42.530444 
L 104.183773 33.983355 
L 105.116412 39.288084 
L 106.049054 16.55866 
L 106.981691 36.243137 
L 107.914333 36.001356 
L 108.846974 28.690093 
L 109.779613 36.57166 
L 110.71225 32.866675 
L 111.644893 42.337019 
L 112.57753 30.794337 
L 113.510173 30.721055 
L 114.442814 35.746115 
L 115.37545 40.297084 
L 116.308095 29.880553 
L 117.240726 26.84458 
L 118.173367 36.36328 
L 119.106014 30.595927 
L 120.038653 42.082277 
L 120.971293 47.368062 
L 121.903926 40.765193 
L 122.836569 34.255048 
L 123.769209 28.867067 
L 124.701847 42.191951 
L 125.634489 34.111475 
L 129.365046 26.276269 
L 130.297692 32.79788 
L 131.230328 33.812364 
L 132.162968 36.604064 
L 133.095609 42.13512 
L 134.028248 38.642005 
L 134.960891 29.843663 
L 135.893512 17.580622 
L 136.826165 37.548755 
L 137.75881 36.436562 
L 138.691446 29.784339 
L 139.624089 23.599727 
L 140.556726 33.064587 
L 141.489366 26.164103 
L 142.422003 25.323103 
L 143.354646 36.358295 
L 144.287298 24.257272 
L 145.219926 42.927763 
L 146.152567 21.374343 
L 147.085204 29.593906 
L 148.017844 18.520328 
L 148.950485 22.931214 
L 149.883123 31.078492 
L 150.815765 24.412311 
L 151.7484 31.298338 
L 179.727656 31.298338 
L 188.43171 36.725204 
L 189.054038 34.951976 
L 189.986678 27.369519 
L 190.919315 31.207109 
L 191.851955 25.261785 
L 192.7846 32.150804 
L 193.717237 12.996252 
L 194.649875 26.516056 
L 195.582513 31.048581 
L 196.515156 9.472727 
L 197.447798 42.580795 
L 198.380437 16.117971 
L 199.313081 22.372376 
L 200.245713 25.330082 
L 201.178356 43.857 
L 202.110995 40.650534 
L 203.043636 45.077871 
" clip-path="url(#pf6707ebeb1)" style="fill: none; stroke: #339af0; stroke-width: 1.2; stroke-linecap: square"/>
   </g>
   <g id="line2d_16">
    <path d="M 43.916364 98.80364 
L 44.494523 98.863462 
L 45.427166 98.819593 
L 46.359808 98.872934 
L 47.292453 98.844519 
L 48.22509 98.841528 
L 49.157727 98.898857 
L 50.090359 98.85748 
L 51.023007 98.872436 
L 51.95565 98.868448 
L 52.88829 98.861967 
L 53.82093 98.847011 
L 54.753566 98.8171 
L 55.686208 98.890881 
L 56.618849 98.870442 
L 57.551483 98.779213 
L 58.484126 98.851997 
L 59.416765 98.861967 
L 60.349406 98.836044 
L 61.282045 98.881409 
L 62.214684 98.821587 
L 63.147327 98.875427 
L 64.07996 98.825077 
L 65.012598 98.858477 
L 65.945245 98.852994 
L 66.877884 98.862964 
L 67.810526 98.844519 
L 68.743162 98.802145 
L 69.675784 98.863462 
L 70.608443 98.864958 
L 71.541078 98.79716 
L 72.473724 98.883403 
L 73.406361 98.848507 
L 74.339003 98.821088 
L 75.271637 98.853991 
L 76.204286 98.856982 
L 77.136912 98.843023 
L 78.069558 98.896365 
L 79.002199 98.865457 
L 79.934841 98.879415 
L 80.867465 98.866952 
L 81.800118 98.838038 
L 82.732742 98.866454 
L 83.665398 98.891379 
L 84.598038 98.897362 
L 85.53068 98.837041 
L 86.463316 98.898359 
L 87.395962 98.840531 
L 96.913595 98.868946 
L 97.655282 98.893872 
L 98.587939 98.867451 
L 99.520578 98.870442 
L 100.453222 98.873433 
L 101.385859 98.86097 
L 102.318497 98.899854 
L 103.251135 98.876424 
L 104.183773 98.884899 
L 105.116412 98.899854 
L 106.049054 98.315591 
L 106.981691 98.927273 
L 107.914333 98.8844 
L 108.846974 98.882406 
L 109.779613 98.871439 
L 110.71225 98.846513 
L 111.644893 98.813112 
L 112.57753 98.893374 
L 113.510173 98.828566 
L 114.442814 98.863462 
L 115.37545 98.860471 
L 116.308095 98.868448 
L 117.240726 98.8844 
L 118.173367 98.835545 
L 119.106014 98.854489 
L 120.038653 98.852495 
L 120.971293 98.907831 
L 121.903926 98.855985 
L 122.836569 98.779711 
L 123.769209 98.777219 
L 124.701847 98.75329 
L 125.634489 98.771735 
L 129.365046 98.759272 
L 130.297692 98.823082 
L 131.230328 98.714406 
L 132.162968 98.768246 
L 133.095609 98.768744 
L 134.028248 98.75329 
L 134.960891 98.794168 
L 135.893512 98.778216 
L 136.826165 98.805136 
L 137.75881 98.777717 
L 138.691446 98.764257 
L 139.624089 98.772234 
L 140.556726 98.754786 
L 141.489366 98.747806 
L 142.422003 98.788186 
L 143.354646 98.784697 
L 144.287298 98.755783 
L 145.219926 98.809124 
L 146.152567 98.781207 
L 147.085204 98.762263 
L 148.017844 98.730358 
L 148.950485 98.73634 
L 149.883123 98.752791 
L 150.815765 98.736839 
L 151.7484 98.779213 
L 179.727656 98.779213 
L 188.43171 98.740329 
L 189.054038 98.733349 
L 189.986678 98.795165 
L 190.919315 98.829563 
L 191.851955 98.872436 
L 192.7846 98.811118 
L 193.717237 98.853991 
L 194.649875 98.842525 
L 195.582513 98.848008 
L 196.515156 98.876922 
L 197.447798 98.864459 
L 198.380437 98.841029 
L 199.313081 98.850002 
L 200.245713 98.828068 
L 201.178356 98.843522 
L 202.110995 98.803142 
L 203.043636 98.862964 
" clip-path="url(#pf6707ebeb1)" style="fill: none; stroke: #ff6b6b; stroke-width: 1.2; stroke-linecap: square"/>
   </g>
   <g id="patch_3">
    <path d="M 35.96 103.4 
L 35.96 5 
" style="fill: none; stroke: var(--fg-color); stroke-width: 0.8; stroke-linejoin: miter; stroke-linecap: square"/>
   </g>
   <g id="patch_4">
    <path d="M 35.96 103.4 
L 211 103.4 
" style="fill: none; stroke: var(--fg-color); stroke-width: 0.8; stroke-linejoin: miter; stroke-linecap: square"/>
   </g>
  </g>
 </g>
 <defs>
  <clipPath id="pf6707ebeb1">
   <rect x="35.96" y="5" width="175.04" height="98.4"/>
  </clipPath>
 </defs>
</svg>
