<?xml version="1.0" encoding="utf-8" standalone="no"?>
<!DOCTYPE svg PUBLIC "-//W3C//DTD SVG 1.1//EN"
  "http://www.w3.org/Graphics/SVG/1.1/DTD/svg11.dtd">
<svg xmlns:xlink="http://www.w3.org/1999/xlink" width="216pt" height="122.4pt" viewBox="0 0 216 122.4" xmlns="http://www.w3.org/2000/svg" version="1.1">
  <style>
    :root {
      --fg-color: #212529;
      --grid-color: rgba(33, 37, 41, 0.1);
    }
    @media (prefers-color-scheme: dark) {
      :root {
        --fg-color: #dee2e6;
        --grid-color: rgba(248, 249, 250, 0.15);
      }
    }
  </style>

 <metadata>
  <rdf:RDF xmlns:dc="http://purl.org/dc/elements/1.1/" xmlns:cc="http://creativecommons.org/ns#" xmlns:rdf="http://www.w3.org/1999/02/22-rdf-syntax-ns#">
   <cc:Work>
    <dc:type rdf:resource="http://purl.org/dc/dcmitype/StillImage"/>
    <dc:date>2026-06-30T04:48:48.034585</dc:date>
    <dc:format>image/svg+xml</dc:format>
    <dc:creator>
     <cc:Agent>
      <dc:title>Matplotlib v3.11.0, https://matplotlib.org/</dc:title>
     </cc:Agent>
    </dc:creator>
   </cc:Work>
  </rdf:RDF>
 </metadata>
 <defs>
  <style type="text/css">*{stroke-linejoin: round; stroke-linecap: butt}</style>
 </defs>
 <g id="figure_1">
  <g id="patch_1">
   <path d="M 0 122.4 
L 216 122.4 
L 216 0 
L 0 0 
L 0 122.4 
z
" style="fill: none; opacity: 0"/>
  </g>
  <g id="axes_1">
   <g id="patch_2">
    <path d="M 35.96 103.4 
L 211 103.4 
L 211 5 
L 35.96 5 
L 35.96 103.4 
z
" style="fill: none; opacity: 0"/>
   </g>
   <g id="matplotlib.axis_1">
    <g id="xtick_1">
     <g id="line2d_1">
      <path d="M 72.056377 103.4 
L 72.056377 5 
" clip-path="url(#p1c7502df69)" style="fill: none; stroke-dasharray: 2.96,1.28; stroke-dashoffset: 0; stroke: var(--grid-color); stroke-width: 0.8"/>
     </g>
     <g id="line2d_2">
      <defs>
       <path id="m40afd2dbd6" d="M 0 0 
L 0 3.5 
" style="stroke: var(--fg-color); stroke-width: 0.8"/>
      </defs>
      <g>
       <use xlink:href="#m40afd2dbd6" x="72.056377" y="103.4" style="fill: var(--fg-color); stroke: var(--fg-color); stroke-width: 0.8"/>
      </g>
     </g>
     <g id="text_1">
      <text style="font-size: 7px; font-family: 'DejaVu Sans', 'Bitstream Vera Sans', 'Computer Modern Sans Serif', 'Lucida Grande', 'Verdana', 'Geneva', 'Lucid', 'Arial', 'Helvetica', 'Avant Garde', sans-serif; text-anchor: middle; fill: var(--fg-color)" x="72.056377" y="115.718359" transform="rotate(-0 72.056377 115.718359)">02/2026</text>
     </g>
    </g>
    <g id="xtick_2">
     <g id="line2d_3">
      <path d="M 126.640628 103.4 
L 126.640628 5 
" clip-path="url(#p1c7502df69)" style="fill: none; stroke-dasharray: 2.96,1.28; stroke-dashoffset: 0; stroke: var(--grid-color); stroke-width: 0.8"/>
     </g>
     <g id="line2d_4">
      <g>
       <use xlink:href="#m40afd2dbd6" x="126.640628" y="103.4" style="fill: var(--fg-color); stroke: var(--fg-color); stroke-width: 0.8"/>
      </g>
     </g>
     <g id="text_2">
      <text style="font-size: 7px; font-family: 'DejaVu Sans', 'Bitstream Vera Sans', 'Computer Modern Sans Serif', 'Lucida Grande', 'Verdana', 'Geneva', 'Lucid', 'Arial', 'Helvetica', 'Avant Garde', sans-serif; text-anchor: middle; fill: var(--fg-color)" x="126.640628" y="115.718359" transform="rotate(-0 126.640628 115.718359)">04/2026</text>
     </g>
    </g>
    <g id="xtick_3">
     <g id="line2d_5">
      <path d="M 183.075192 103.4 
L 183.075192 5 
" clip-path="url(#p1c7502df69)" style="fill: none; stroke-dasharray: 2.96,1.28; stroke-dashoffset: 0; stroke: var(--grid-color); stroke-width: 0.8"/>
     </g>
     <g id="line2d_6">
      <g>
       <use xlink:href="#m40afd2dbd6" x="183.075192" y="103.4" style="fill: var(--fg-color); stroke: var(--fg-color); stroke-width: 0.8"/>
      </g>
     </g>
     <g id="text_3">
      <text style="font-size: 7px; font-family: 'DejaVu Sans', 'Bitstream Vera Sans', 'Computer Modern Sans Serif', 'Lucida Grande', 'Verdana', 'Geneva', 'Lucid', 'Arial', 'Helvetica', 'Avant Garde', sans-serif; text-anchor: middle; fill: var(--fg-color)" x="183.075192" y="115.718359" transform="rotate(-0 183.075192 115.718359)">06/2026</text>
     </g>
    </g>
   </g>
   <g id="matplotlib.axis_2">
    <g id="ytick_1">
     <g id="line2d_7">
      <path d="M 35.96 97.288569 
L 211 97.288569 
" clip-path="url(#p1c7502df69)" style="fill: none; stroke-dasharray: 2.96,1.28; stroke-dashoffset: 0; stroke: var(--grid-color); stroke-width: 0.8"/>
     </g>
     <g id="line2d_8">
      <defs>
       <path id="m5d03af170f" d="M 0 0 
L -3.5 0 
" style="stroke: var(--fg-color); stroke-width: 0.8"/>
      </defs>
      <g>
       <use xlink:href="#m5d03af170f" x="35.96" y="97.288569" style="fill: var(--fg-color); stroke: var(--fg-color); stroke-width: 0.8"/>
      </g>
     </g>
     <g id="text_4">
      <text style="font-size: 7px; font-family: 'DejaVu Sans', 'Bitstream Vera Sans', 'Computer Modern Sans Serif', 'Lucida Grande', 'Verdana', 'Geneva', 'Lucid', 'Arial', 'Helvetica', 'Avant Garde', sans-serif; text-anchor: end; fill: var(--fg-color)" x="28.96" y="99.947749" transform="rotate(-0 28.96 99.947749)">50</text>
     </g>
    </g>
    <g id="ytick_2">
     <g id="line2d_9">
      <path d="M 35.96 81.92476 
L 211 81.92476 
" clip-path="url(#p1c7502df69)" style="fill: none; stroke-dasharray: 2.96,1.28; stroke-dashoffset: 0; stroke: var(--grid-color); stroke-width: 0.8"/>
     </g>
     <g id="line2d_10">
      <g>
       <use xlink:href="#m5d03af170f" x="35.96" y="81.92476" style="fill: var(--fg-color); stroke: var(--fg-color); stroke-width: 0.8"/>
      </g>
     </g>
     <g id="text_5">
      <text style="font-size: 7px; font-family: 'DejaVu Sans', 'Bitstream Vera Sans', 'Computer Modern Sans Serif', 'Lucida Grande', 'Verdana', 'Geneva', 'Lucid', 'Arial', 'Helvetica', 'Avant Garde', sans-serif; text-anchor: end; fill: var(--fg-color)" x="28.96" y="84.58394" transform="rotate(-0 28.96 84.58394)">100</text>
     </g>
    </g>
    <g id="ytick_3">
     <g id="line2d_11">
      <path d="M 35.96 66.560952 
L 211 66.560952 
" clip-path="url(#p1c7502df69)" style="fill: none; stroke-dasharray: 2.96,1.28; stroke-dashoffset: 0; stroke: var(--grid-color); stroke-width: 0.8"/>
     </g>
     <g id="line2d_12">
      <g>
       <use xlink:href="#m5d03af170f" x="35.96" y="66.560952" style="fill: var(--fg-color); stroke: var(--fg-color); stroke-width: 0.8"/>
      </g>
     </g>
     <g id="text_6">
      <text style="font-size: 7px; font-family: 'DejaVu Sans', 'Bitstream Vera Sans', 'Computer Modern Sans Serif', 'Lucida Grande', 'Verdana', 'Geneva', 'Lucid', 'Arial', 'Helvetica', 'Avant Garde', sans-serif; text-anchor: end; fill: var(--fg-color)" x="28.96" y="69.220132" transform="rotate(-0 28.96 69.220132)">150</text>
     </g>
    </g>
    <g id="ytick_4">
     <g id="line2d_13">
      <path d="M 35.96 51.197144 
L 211 51.197144 
" clip-path="url(#p1c7502df69)" style="fill: none; stroke-dasharray: 2.96,1.28; stroke-dashoffset: 0; stroke: var(--grid-color); stroke-width: 0.8"/>
     </g>
     <g id="line2d_14">
      <g>
       <use xlink:href="#m5d03af170f" x="35.96" y="51.197144" style="fill: var(--fg-color); stroke: var(--fg-color); stroke-width: 0.8"/>
      </g>
     </g>
     <g id="text_7">
      <text style="font-size: 7px; font-family: 'DejaVu Sans', 'Bitstream Vera Sans', 'Computer Modern Sans Serif', 'Lucida Grande', 'Verdana', 'Geneva', 'Lucid', 'Arial', 'Helvetica', 'Avant Garde', sans-serif; text-anchor: end; fill: var(--fg-color)" x="28.96" y="53.856323" transform="rotate(-0 28.96 53.856323)">200</text>
     </g>
    </g>
    <g id="ytick_5">
     <g id="line2d_15">
      <path d="M 35.96 35.833335 
L 211 35.833335 
" clip-path="url(#p1c7502df69)" style="fill: none; stroke-dasharray: 2.96,1.28; stroke-dashoffset: 0; stroke: var(--grid-color); stroke-width: 0.8"/>
     </g>
     <g id="line2d_16">
      <g>
       <use xlink:href="#m5d03af170f" x="35.96" y="35.833335" style="fill: var(--fg-color); stroke: var(--fg-color); stroke-width: 0.8"/>
      </g>
     </g>
     <g id="text_8">
      <text style="font-size: 7px; font-family: 'DejaVu Sans', 'Bitstream Vera Sans', 'Computer Modern Sans Serif', 'Lucida Grande', 'Verdana', 'Geneva', 'Lucid', 'Arial', 'Helvetica', 'Avant Garde', sans-serif; text-anchor: end; fill: var(--fg-color)" x="28.96" y="38.492515" transform="rotate(-0 28.96 38.492515)">250</text>
     </g>
    </g>
    <g id="ytick_6">
     <g id="line2d_17">
      <path d="M 35.96 20.469527 
L 211 20.469527 
" clip-path="url(#p1c7502df69)" style="fill: none; stroke-dasharray: 2.96,1.28; stroke-dashoffset: 0; stroke: var(--grid-color); stroke-width: 0.8"/>
     </g>
     <g id="line2d_18">
      <g>
       <use xlink:href="#m5d03af170f" x="35.96" y="20.469527" style="fill: var(--fg-color); stroke: var(--fg-color); stroke-width: 0.8"/>
      </g>
     </g>
     <g id="text_9">
      <text style="font-size: 7px; font-family: 'DejaVu Sans', 'Bitstream Vera Sans', 'Computer Modern Sans Serif', 'Lucida Grande', 'Verdana', 'Geneva', 'Lucid', 'Arial', 'Helvetica', 'Avant Garde', sans-serif; text-anchor: end; fill: var(--fg-color)" x="28.96" y="23.128706" transform="rotate(-0 28.96 23.128706)">300</text>
     </g>
    </g>
    <g id="ytick_7">
     <g id="line2d_19">
      <path d="M 35.96 5.105718 
L 211 5.105718 
" clip-path="url(#p1c7502df69)" style="fill: none; stroke-dasharray: 2.96,1.28; stroke-dashoffset: 0; stroke: var(--grid-color); stroke-width: 0.8"/>
     </g>
     <g id="line2d_20">
      <g>
       <use xlink:href="#m5d03af170f" x="35.96" y="5.105718" style="fill: var(--fg-color); stroke: var(--fg-color); stroke-width: 0.8"/>
      </g>
     </g>
     <g id="text_10">
      <text style="font-size: 7px; font-family: 'DejaVu Sans', 'Bitstream Vera Sans', 'Computer Modern Sans Serif', 'Lucida Grande', 'Verdana', 'Geneva', 'Lucid', 'Arial', 'Helvetica', 'Avant Garde', sans-serif; text-anchor: end; fill: var(--fg-color)" x="28.96" y="7.764898" transform="rotate(-0 28.96 7.764898)">350</text>
     </g>
    </g>
    <g id="text_11">
     <text style="font-size: 7px; font-family: 'DejaVu Sans', 'Bitstream Vera Sans', 'Computer Modern Sans Serif', 'Lucida Grande', 'Verdana', 'Geneva', 'Lucid', 'Arial', 'Helvetica', 'Avant Garde', sans-serif; text-anchor: middle; fill: var(--fg-color)" x="9.917109" y="54.2" transform="rotate(-90 9.917109 54.2)">ms</text>
    </g>
   </g>
   <g id="line2d_21">
    <path d="M 43.916364 40.244592 
L 45.193108 37.155545 
L 45.766628 51.174712 
L 46.691788 36.026612 
L 47.616947 44.481623 
L 48.542109 47.011735 
L 49.467263 49.875856 
L 50.392418 46.636243 
L 51.317566 41.190695 
L 52.242732 47.145707 
L 53.167891 31.949979 
L 54.093049 37.903455 
L 55.018206 45.695978 
L 55.943359 43.885814 
L 56.868517 48.099493 
L 57.793676 40.654191 
L 58.718827 48.198128 
L 59.643987 43.391714 
L 60.569143 46.6175 
L 61.494301 42.007128 
L 62.419457 46.564341 
L 63.344613 42.219763 
L 64.269773 41.064712 
L 65.194924 46.732421 
L 66.120079 52.656705 
L 67.045243 46.910641 
L 67.970398 44.696716 
L 68.895557 44.901362 
L 69.82071 30.752216 
L 70.74585 12.500319 
L 71.671025 31.329588 
L 72.596178 37.189038 
L 73.521341 25.328178 
L 74.446495 23.463933 
L 75.371653 29.376848 
L 76.296805 36.179021 
L 77.221971 27.97444 
L 78.147114 33.401244 
L 79.072277 39.185104 
L 79.997435 39.369777 
L 80.922594 34.035155 
L 81.847735 27.959383 
L 82.772905 9.472727 
L 83.698046 27.437628 
L 84.623219 44.558442 
L 85.548376 32.265552 
L 86.473535 37.127582 
L 87.398688 26.428841 
L 88.323852 27.936952 
L 97.76512 23.303842 
L 98.500856 31.291486 
L 99.426031 26.564042 
L 100.351186 25.286695 
L 101.276348 28.681175 
L 102.201502 46.431598 
L 103.126656 41.15628 
L 104.051812 38.655974 
L 104.976967 47.348817 
L 105.902123 43.294308 
L 106.827282 39.166974 
L 107.752435 40.755285 
L 108.677594 45.872355 
L 109.602753 37.657634 
L 110.527909 38.721424 
L 111.453063 41.074852 
L 112.378223 45.158245 
L 113.303377 38.313054 
L 114.228537 40.005838 
L 115.153695 38.353307 
L 116.078848 38.283863 
L 117.004011 42.803588 
L 117.929158 31.534849 
L 118.854316 39.196166 
L 119.779481 42.217612 
L 120.704637 35.677239 
L 121.629794 42.995635 
L 122.554943 45.181905 
L 123.480104 50.150561 
L 124.405261 34.694262 
L 125.330416 37.464664 
L 126.255574 32.231137 
L 129.9562 41.71921 
L 130.881363 36.908802 
L 131.806516 26.75609 
L 132.731673 40.541113 
L 133.656831 21.124947 
L 134.581987 20.141356 
L 135.507147 17.358663 
L 136.432285 24.250867 
L 137.357455 37.205323 
L 138.282617 36.405791 
L 139.20777 21.920178 
L 140.13293 40.783554 
L 141.058084 37.668081 
L 141.983242 37.340218 
L 142.908395 41.747787 
L 143.833556 32.597103 
L 144.758724 30.641597 
L 145.683869 9.531417 
L 146.609028 33.001478 
L 147.534182 28.418147 
L 148.459339 28.32074 
L 149.384497 30.275017 
L 150.309651 32.362036 
L 151.234811 21.671898 
L 152.159963 32.607857 
L 179.91473 32.607857 
L 188.548948 35.883114 
L 189.166282 29.396821 
L 190.091439 34.690268 
L 191.016594 41.959193 
L 191.94175 37.708027 
L 192.866913 29.404196 
L 193.792066 21.431916 
L 194.717222 41.856255 
L 195.642377 36.644237 
L 196.567536 39.103368 
L 197.492695 35.072212 
L 198.417852 40.776794 
L 199.343013 40.475971 
L 200.268162 43.304448 
L 201.193322 46.598756 
L 202.118478 41.025995 
L 203.043636 42.117133 
" clip-path="url(#p1c7502df69)" style="fill: none; stroke: #339af0; stroke-width: 1.2; stroke-linecap: square"/>
   </g>
   <g id="line2d_22">
    <path d="M 43.916364 89.781505 
L 45.193108 92.67789 
L 45.766628 87.314692 
L 46.691788 92.438522 
L 47.616947 90.774007 
L 48.542109 90.665231 
L 49.467263 98.128047 
L 50.392418 92.965193 
L 51.317566 87.276897 
L 52.242732 92.916336 
L 53.167891 89.18754 
L 54.093049 95.081404 
L 55.018206 92.735965 
L 55.943359 95.074951 
L 56.868517 91.778185 
L 57.793676 91.927522 
L 58.718827 93.31303 
L 59.643987 92.715685 
L 60.569143 91.976993 
L 61.494301 95.9934 
L 62.419457 90.989715 
L 63.344613 89.359 
L 64.269773 91.234614 
L 65.194924 89.100274 
L 66.120079 95.135178 
L 67.045243 82.918492 
L 67.970398 90.147471 
L 68.895557 84.307687 
L 69.82071 89.596525 
L 70.74585 93.89286 
L 71.671025 91.137207 
L 72.596178 94.368523 
L 73.521341 92.993463 
L 74.446495 98.032177 
L 75.371653 92.129402 
L 76.296805 88.163081 
L 77.221971 94.526771 
L 78.147114 98.806513 
L 79.072277 88.516756 
L 79.997435 92.716914 
L 80.922594 86.508399 
L 81.847735 87.596771 
L 82.772905 97.134009 
L 83.698046 92.816779 
L 84.623219 91.796007 
L 85.548376 96.910312 
L 86.473535 90.764789 
L 87.398688 87.433608 
L 88.323852 97.63702 
L 97.76512 90.469189 
L 98.500856 89.946819 
L 99.426031 92.389972 
L 100.351186 88.753666 
L 101.276348 91.22939 
L 102.201502 89.578395 
L 103.126656 87.761471 
L 104.051812 92.354328 
L 104.976967 89.393722 
L 105.902123 87.059345 
L 106.827282 78.66794 
L 107.752435 81.692152 
L 108.677594 93.816963 
L 109.602753 90.067579 
L 110.527909 92.773146 
L 111.453063 93.327779 
L 112.378223 93.399989 
L 113.303377 93.098551 
L 114.228537 93.820036 
L 115.153695 87.963044 
L 116.078848 94.841729 
L 117.004011 95.27929 
L 117.929158 90.1487 
L 118.854316 93.990267 
L 119.779481 88.087184 
L 120.704637 86.721956 
L 121.629794 90.573048 
L 122.554943 93.327779 
L 123.480104 88.863056 
L 124.405261 94.805163 
L 125.330416 90.530644 
L 126.255574 87.535009 
L 129.9562 91.740698 
L 130.881363 88.928199 
L 131.806516 91.860843 
L 132.731673 88.621537 
L 133.656831 88.952166 
L 134.581987 90.053137 
L 135.507147 87.681887 
L 136.432285 86.550496 
L 137.357455 87.431764 
L 138.282617 91.939813 
L 139.20777 89.986458 
L 140.13293 98.927273 
L 141.058084 85.341671 
L 141.983242 90.120123 
L 142.908395 93.500468 
L 143.833556 90.206161 
L 144.758724 93.28476 
L 145.683869 96.803994 
L 146.609028 94.111333 
L 147.534182 86.243527 
L 148.459339 87.918489 
L 149.384497 87.562049 
L 150.309651 88.527511 
L 151.234811 89.862626 
L 152.159963 86.841179 
L 179.91473 86.841179 
L 188.548948 88.983509 
L 189.166282 91.383643 
L 190.091439 89.392493 
L 191.016594 84.116869 
L 191.94175 89.79226 
L 192.866913 90.274069 
L 193.792066 94.987685 
L 194.717222 88.930964 
L 195.642377 88.73861 
L 196.567536 90.840993 
L 197.492695 85.069118 
L 198.417852 90.88309 
L 199.343013 89.122397 
L 200.268162 83.263563 
L 201.193322 91.69307 
L 202.118478 94.704991 
L 203.043636 86.775422 
" clip-path="url(#p1c7502df69)" style="fill: none; stroke: #ff6b6b; stroke-width: 1.2; stroke-linecap: square"/>
   </g>
   <g id="patch_3">
    <path d="M 35.96 103.4 
L 35.96 5 
" style="fill: none; stroke: var(--fg-color); stroke-width: 0.8; stroke-linejoin: miter; stroke-linecap: square"/>
   </g>
   <g id="patch_4">
    <path d="M 35.96 103.4 
L 211 103.4 
" style="fill: none; stroke: var(--fg-color); stroke-width: 0.8; stroke-linejoin: miter; stroke-linecap: square"/>
   </g>
  </g>
 </g>
 <defs>
  <clipPath id="p1c7502df69">
   <rect x="35.96" y="5" width="175.04" height="98.4"/>
  </clipPath>
 </defs>
</svg>
