<?xml version="1.0" encoding="utf-8" standalone="no"?>
<!DOCTYPE svg PUBLIC "-//W3C//DTD SVG 1.1//EN"
  "http://www.w3.org/Graphics/SVG/1.1/DTD/svg11.dtd">
<svg xmlns:xlink="http://www.w3.org/1999/xlink" width="216pt" height="122.4pt" viewBox="0 0 216 122.4" xmlns="http://www.w3.org/2000/svg" version="1.1">
  <style>
    :root {
      --fg-color: #212529;
      --grid-color: rgba(33, 37, 41, 0.1);
    }
    @media (prefers-color-scheme: dark) {
      :root {
        --fg-color: #dee2e6;
        --grid-color: rgba(248, 249, 250, 0.15);
      }
    }
  </style>

 <metadata>
  <rdf:RDF xmlns:dc="http://purl.org/dc/elements/1.1/" xmlns:cc="http://creativecommons.org/ns#" xmlns:rdf="http://www.w3.org/1999/02/22-rdf-syntax-ns#">
   <cc:Work>
    <dc:type rdf:resource="http://purl.org/dc/dcmitype/StillImage"/>
    <dc:date>2026-06-30T15:37:45.934121</dc:date>
    <dc:format>image/svg+xml</dc:format>
    <dc:creator>
     <cc:Agent>
      <dc:title>Matplotlib v3.11.0, https://matplotlib.org/</dc:title>
     </cc:Agent>
    </dc:creator>
   </cc:Work>
  </rdf:RDF>
 </metadata>
 <defs>
  <style type="text/css">*{stroke-linejoin: round; stroke-linecap: butt}</style>
 </defs>
 <g id="figure_1">
  <g id="patch_1">
   <path d="M 0 122.4 
L 216 122.4 
L 216 0 
L 0 0 
L 0 122.4 
z
" style="fill: none; opacity: 0"/>
  </g>
  <g id="axes_1">
   <g id="patch_2">
    <path d="M 35.96 103.4 
L 211 103.4 
L 211 5 
L 35.96 5 
L 35.96 103.4 
z
" style="fill: none; opacity: 0"/>
   </g>
   <g id="matplotlib.axis_1">
    <g id="xtick_1">
     <g id="line2d_1">
      <path d="M 69.784035 103.4 
L 69.784035 5 
" clip-path="url(#p55a7650110)" style="fill: none; stroke-dasharray: 2.96,1.28; stroke-dashoffset: 0; stroke: var(--grid-color); stroke-width: 0.8"/>
     </g>
     <g id="line2d_2">
      <defs>
       <path id="m780db8d6e2" d="M 0 0 
L 0 3.5 
" style="stroke: var(--fg-color); stroke-width: 0.8"/>
      </defs>
      <g>
       <use xlink:href="#m780db8d6e2" x="69.784035" y="103.4" style="fill: var(--fg-color); stroke: var(--fg-color); stroke-width: 0.8"/>
      </g>
     </g>
     <g id="text_1">
      <text style="font-size: 7px; font-family: 'DejaVu Sans', 'Bitstream Vera Sans', 'Computer Modern Sans Serif', 'Lucida Grande', 'Verdana', 'Geneva', 'Lucid', 'Arial', 'Helvetica', 'Avant Garde', sans-serif; text-anchor: middle; fill: var(--fg-color)" x="69.784035" y="115.718359" transform="rotate(-0 69.784035 115.718359)">02/2026</text>
     </g>
    </g>
    <g id="xtick_2">
     <g id="line2d_3">
      <path d="M 122.345302 103.4 
L 122.345302 5 
" clip-path="url(#p55a7650110)" style="fill: none; stroke-dasharray: 2.96,1.28; stroke-dashoffset: 0; stroke: var(--grid-color); stroke-width: 0.8"/>
     </g>
     <g id="line2d_4">
      <g>
       <use xlink:href="#m780db8d6e2" x="122.345302" y="103.4" style="fill: var(--fg-color); stroke: var(--fg-color); stroke-width: 0.8"/>
      </g>
     </g>
     <g id="text_2">
      <text style="font-size: 7px; font-family: 'DejaVu Sans', 'Bitstream Vera Sans', 'Computer Modern Sans Serif', 'Lucida Grande', 'Verdana', 'Geneva', 'Lucid', 'Arial', 'Helvetica', 'Avant Garde', sans-serif; text-anchor: middle; fill: var(--fg-color)" x="122.345302" y="115.718359" transform="rotate(-0 122.345302 115.718359)">04/2026</text>
     </g>
    </g>
    <g id="xtick_3">
     <g id="line2d_5">
      <path d="M 176.688307 103.4 
L 176.688307 5 
" clip-path="url(#p55a7650110)" style="fill: none; stroke-dasharray: 2.96,1.28; stroke-dashoffset: 0; stroke: var(--grid-color); stroke-width: 0.8"/>
     </g>
     <g id="line2d_6">
      <g>
       <use xlink:href="#m780db8d6e2" x="176.688307" y="103.4" style="fill: var(--fg-color); stroke: var(--fg-color); stroke-width: 0.8"/>
      </g>
     </g>
     <g id="text_3">
      <text style="font-size: 7px; font-family: 'DejaVu Sans', 'Bitstream Vera Sans', 'Computer Modern Sans Serif', 'Lucida Grande', 'Verdana', 'Geneva', 'Lucid', 'Arial', 'Helvetica', 'Avant Garde', sans-serif; text-anchor: middle; fill: var(--fg-color)" x="176.688307" y="115.718359" transform="rotate(-0 176.688307 115.718359)">06/2026</text>
     </g>
    </g>
   </g>
   <g id="matplotlib.axis_2">
    <g id="ytick_1">
     <g id="line2d_7">
      <path d="M 35.96 99.425124 
L 211 99.425124 
" clip-path="url(#p55a7650110)" style="fill: none; stroke-dasharray: 2.96,1.28; stroke-dashoffset: 0; stroke: var(--grid-color); stroke-width: 0.8"/>
     </g>
     <g id="line2d_8">
      <defs>
       <path id="mba1eec7b5c" d="M 0 0 
L -3.5 0 
" style="stroke: var(--fg-color); stroke-width: 0.8"/>
      </defs>
      <g>
       <use xlink:href="#mba1eec7b5c" x="35.96" y="99.425124" style="fill: var(--fg-color); stroke: var(--fg-color); stroke-width: 0.8"/>
      </g>
     </g>
     <g id="text_4">
      <text style="font-size: 7px; font-family: 'DejaVu Sans', 'Bitstream Vera Sans', 'Computer Modern Sans Serif', 'Lucida Grande', 'Verdana', 'Geneva', 'Lucid', 'Arial', 'Helvetica', 'Avant Garde', sans-serif; text-anchor: end; fill: var(--fg-color)" x="28.96" y="102.084303" transform="rotate(-0 28.96 102.084303)">0</text>
     </g>
    </g>
    <g id="ytick_2">
     <g id="line2d_9">
      <path d="M 35.96 85.184534 
L 211 85.184534 
" clip-path="url(#p55a7650110)" style="fill: none; stroke-dasharray: 2.96,1.28; stroke-dashoffset: 0; stroke: var(--grid-color); stroke-width: 0.8"/>
     </g>
     <g id="line2d_10">
      <g>
       <use xlink:href="#mba1eec7b5c" x="35.96" y="85.184534" style="fill: var(--fg-color); stroke: var(--fg-color); stroke-width: 0.8"/>
      </g>
     </g>
     <g id="text_5">
      <text style="font-size: 7px; font-family: 'DejaVu Sans', 'Bitstream Vera Sans', 'Computer Modern Sans Serif', 'Lucida Grande', 'Verdana', 'Geneva', 'Lucid', 'Arial', 'Helvetica', 'Avant Garde', sans-serif; text-anchor: end; fill: var(--fg-color)" x="28.96" y="87.843713" transform="rotate(-0 28.96 87.843713)">50</text>
     </g>
    </g>
    <g id="ytick_3">
     <g id="line2d_11">
      <path d="M 35.96 70.943943 
L 211 70.943943 
" clip-path="url(#p55a7650110)" style="fill: none; stroke-dasharray: 2.96,1.28; stroke-dashoffset: 0; stroke: var(--grid-color); stroke-width: 0.8"/>
     </g>
     <g id="line2d_12">
      <g>
       <use xlink:href="#mba1eec7b5c" x="35.96" y="70.943943" style="fill: var(--fg-color); stroke: var(--fg-color); stroke-width: 0.8"/>
      </g>
     </g>
     <g id="text_6">
      <text style="font-size: 7px; font-family: 'DejaVu Sans', 'Bitstream Vera Sans', 'Computer Modern Sans Serif', 'Lucida Grande', 'Verdana', 'Geneva', 'Lucid', 'Arial', 'Helvetica', 'Avant Garde', sans-serif; text-anchor: end; fill: var(--fg-color)" x="28.96" y="73.603123" transform="rotate(-0 28.96 73.603123)">100</text>
     </g>
    </g>
    <g id="ytick_4">
     <g id="line2d_13">
      <path d="M 35.96 56.703353 
L 211 56.703353 
" clip-path="url(#p55a7650110)" style="fill: none; stroke-dasharray: 2.96,1.28; stroke-dashoffset: 0; stroke: var(--grid-color); stroke-width: 0.8"/>
     </g>
     <g id="line2d_14">
      <g>
       <use xlink:href="#mba1eec7b5c" x="35.96" y="56.703353" style="fill: var(--fg-color); stroke: var(--fg-color); stroke-width: 0.8"/>
      </g>
     </g>
     <g id="text_7">
      <text style="font-size: 7px; font-family: 'DejaVu Sans', 'Bitstream Vera Sans', 'Computer Modern Sans Serif', 'Lucida Grande', 'Verdana', 'Geneva', 'Lucid', 'Arial', 'Helvetica', 'Avant Garde', sans-serif; text-anchor: end; fill: var(--fg-color)" x="28.96" y="59.362533" transform="rotate(-0 28.96 59.362533)">150</text>
     </g>
    </g>
    <g id="ytick_5">
     <g id="line2d_15">
      <path d="M 35.96 42.462763 
L 211 42.462763 
" clip-path="url(#p55a7650110)" style="fill: none; stroke-dasharray: 2.96,1.28; stroke-dashoffset: 0; stroke: var(--grid-color); stroke-width: 0.8"/>
     </g>
     <g id="line2d_16">
      <g>
       <use xlink:href="#mba1eec7b5c" x="35.96" y="42.462763" style="fill: var(--fg-color); stroke: var(--fg-color); stroke-width: 0.8"/>
      </g>
     </g>
     <g id="text_8">
      <text style="font-size: 7px; font-family: 'DejaVu Sans', 'Bitstream Vera Sans', 'Computer Modern Sans Serif', 'Lucida Grande', 'Verdana', 'Geneva', 'Lucid', 'Arial', 'Helvetica', 'Avant Garde', sans-serif; text-anchor: end; fill: var(--fg-color)" x="28.96" y="45.121943" transform="rotate(-0 28.96 45.121943)">200</text>
     </g>
    </g>
    <g id="ytick_6">
     <g id="line2d_17">
      <path d="M 35.96 28.222173 
L 211 28.222173 
" clip-path="url(#p55a7650110)" style="fill: none; stroke-dasharray: 2.96,1.28; stroke-dashoffset: 0; stroke: var(--grid-color); stroke-width: 0.8"/>
     </g>
     <g id="line2d_18">
      <g>
       <use xlink:href="#mba1eec7b5c" x="35.96" y="28.222173" style="fill: var(--fg-color); stroke: var(--fg-color); stroke-width: 0.8"/>
      </g>
     </g>
     <g id="text_9">
      <text style="font-size: 7px; font-family: 'DejaVu Sans', 'Bitstream Vera Sans', 'Computer Modern Sans Serif', 'Lucida Grande', 'Verdana', 'Geneva', 'Lucid', 'Arial', 'Helvetica', 'Avant Garde', sans-serif; text-anchor: end; fill: var(--fg-color)" x="28.96" y="30.881353" transform="rotate(-0 28.96 30.881353)">250</text>
     </g>
    </g>
    <g id="ytick_7">
     <g id="line2d_19">
      <path d="M 35.96 13.981583 
L 211 13.981583 
" clip-path="url(#p55a7650110)" style="fill: none; stroke-dasharray: 2.96,1.28; stroke-dashoffset: 0; stroke: var(--grid-color); stroke-width: 0.8"/>
     </g>
     <g id="line2d_20">
      <g>
       <use xlink:href="#mba1eec7b5c" x="35.96" y="13.981583" style="fill: var(--fg-color); stroke: var(--fg-color); stroke-width: 0.8"/>
      </g>
     </g>
     <g id="text_10">
      <text style="font-size: 7px; font-family: 'DejaVu Sans', 'Bitstream Vera Sans', 'Computer Modern Sans Serif', 'Lucida Grande', 'Verdana', 'Geneva', 'Lucid', 'Arial', 'Helvetica', 'Avant Garde', sans-serif; text-anchor: end; fill: var(--fg-color)" x="28.96" y="16.640763" transform="rotate(-0 28.96 16.640763)">300</text>
     </g>
    </g>
    <g id="text_11">
     <text style="font-size: 7px; font-family: 'DejaVu Sans', 'Bitstream Vera Sans', 'Computer Modern Sans Serif', 'Lucida Grande', 'Verdana', 'Geneva', 'Lucid', 'Arial', 'Helvetica', 'Avant Garde', sans-serif; text-anchor: middle; fill: var(--fg-color)" x="9.917109" y="54.2" transform="rotate(-90 9.917109 54.2)">ms</text>
    </g>
   </g>
   <g id="line2d_21">
    <path d="M 43.916364 37.109156 
L 44.468628 36.1032 
L 45.3595 44.864866 
L 47.141245 30.719688 
L 48.032112 37.595045 
L 48.922979 41.046394 
L 49.81384 23.321701 
L 50.704717 36.411652 
L 51.595589 37.413904 
L 52.486458 42.296433 
L 53.377327 31.609725 
L 54.268192 43.527959 
L 55.159063 38.139605 
L 56.049934 40.554524 
L 56.940797 26.601594 
L 57.831669 41.297883 
L 58.722538 39.218757 
L 59.613407 34.372114 
L 60.504275 41.57472 
L 61.395144 32.906758 
L 62.286016 32.474128 
L 63.176879 39.088028 
L 64.067746 44.646985 
L 64.958622 30.535699 
L 65.84949 37.761944 
L 66.740361 35.643229 
L 67.631226 43.756663 
L 68.522078 41.440289 
L 69.412965 23.160213 
L 70.30383 39.169769 
L 71.194705 35.991554 
L 72.085571 36.84542 
L 72.976442 43.819037 
L 73.867306 39.942748 
L 74.758184 40.181705 
L 75.649039 42.640771 
L 76.539914 35.069334 
L 77.430784 40.80345 
L 78.321655 32.261659 
L 79.212509 28.176318 
L 80.103391 36.029719 
L 80.994245 35.272689 
L 81.885129 40.239807 
L 82.775998 34.061954 
L 83.666869 39.870976 
L 84.557735 32.893941 
L 85.44861 40.578733 
L 94.53997 39.845343 
L 95.248438 42.510327 
L 96.139324 42.948652 
L 97.030192 26.815488 
L 97.921065 31.173963 
L 98.811931 32.647579 
L 99.702798 28.656226 
L 100.593666 37.150453 
L 101.484533 38.027389 
L 102.375401 18.688098 
L 103.266272 33.026663 
L 104.157138 32.809637 
L 105.048009 34.408285 
L 105.93888 27.3572 
L 106.829748 37.473145 
L 107.720614 28.722872 
L 109.502352 32.341976 
L 110.393224 35.020916 
L 111.284094 34.048283 
L 112.17496 37.130517 
L 113.065834 45.605661 
L 113.956695 39.5161 
L 114.847564 29.771834 
L 115.738441 39.78952 
L 116.629309 44.799929 
L 117.520178 29.201641 
L 119.301913 37.457481 
L 120.192782 29.643099 
L 121.083649 30.688643 
L 121.97452 27.519827 
L 125.537994 28.720309 
L 126.428869 26.353523 
L 127.319734 28.644834 
L 128.210603 18.646231 
L 129.101474 39.738253 
L 129.992342 34.237968 
L 130.883214 39.604392 
L 131.774065 29.968354 
L 132.664946 29.214173 
L 133.55582 33.001885 
L 134.446686 41.267693 
L 135.337558 26.540644 
L 136.228424 35.421646 
L 137.119294 38.568247 
L 138.010159 34.507115 
L 138.901032 39.498442 
L 139.791912 24.878198 
L 140.68277 35.889876 
L 141.57364 32.723339 
L 142.464507 11.635588 
L 143.355376 31.055196 
L 144.246246 26.246434 
L 145.137113 34.576609 
L 146.027984 26.551467 
L 146.918849 28.546859 
L 173.644977 28.546859 
L 181.959197 34.320279 
L 182.553652 37.60245 
L 183.444521 33.582616 
L 184.335387 25.949375 
L 185.226256 19.309842 
L 186.117131 18.213886 
L 187.007996 37.470582 
L 187.898864 31.256843 
L 188.789731 31.959474 
L 189.680603 9.472727 
L 190.571474 22.950591 
L 191.462343 24.434746 
L 192.353215 35.585413 
L 193.244077 30.839309 
L 194.134949 32.85065 
L 195.025817 23.36129 
L 195.916688 23.605659 
L 196.807557 24.641234 
L 197.698426 37.664539 
L 198.589295 26.702132 
L 199.480162 26.44153 
L 200.371032 30.218134 
L 201.261898 37.210549 
L 202.152766 42.915614 
L 203.043636 39.808032 
L 203.043636 39.808032 
" clip-path="url(#p55a7650110)" style="fill: none; stroke: #339af0; stroke-width: 1.2; stroke-linecap: square"/>
   </g>
   <g id="line2d_22">
    <path d="M 43.916364 98.568979 
L 44.468628 98.834424 
L 46.250371 98.845817 
L 47.141245 98.70398 
L 48.032112 98.834994 
L 51.595589 98.809076 
L 56.049934 98.859203 
L 66.740361 98.829582 
L 67.631226 98.880848 
L 69.412965 98.831291 
L 70.30383 98.878 
L 71.194705 98.758095 
L 72.976442 98.87145 
L 73.867306 98.786291 
L 76.539914 98.871165 
L 80.103391 98.831861 
L 83.666869 98.873158 
L 84.557735 98.780025 
L 85.44861 98.883697 
L 97.030192 98.839836 
L 97.921065 98.664391 
L 98.811931 98.888538 
L 103.266272 98.870595 
L 104.157138 98.469865 
L 105.048009 98.856355 
L 105.93888 98.72648 
L 109.502352 98.83243 
L 112.17496 98.801671 
L 113.065834 98.892241 
L 115.738441 98.862905 
L 117.520178 98.827873 
L 118.41104 98.787145 
L 119.301913 98.867177 
L 120.192782 98.755531 
L 121.97452 98.87145 
L 125.537994 98.738443 
L 126.428869 98.853222 
L 127.319734 98.673505 
L 128.210603 98.851513 
L 131.774065 98.849234 
L 132.664946 98.289864 
L 133.55582 98.827019 
L 141.57364 98.831861 
L 142.464507 98.675784 
L 146.027984 98.840975 
L 146.918849 98.76493 
L 192.353215 98.736449 
L 193.244077 98.613125 
L 194.134949 98.795405 
L 196.807557 98.786291 
L 197.698426 98.785152 
L 198.589295 98.573536 
L 199.480162 98.756101 
L 203.043636 98.790278 
L 203.043636 98.790278 
" clip-path="url(#p55a7650110)" style="fill: none; stroke: #ff6b6b; stroke-width: 1.2; stroke-linecap: square"/>
   </g>
   <g id="patch_3">
    <path d="M 35.96 103.4 
L 35.96 5 
" style="fill: none; stroke: var(--fg-color); stroke-width: 0.8; stroke-linejoin: miter; stroke-linecap: square"/>
   </g>
   <g id="patch_4">
    <path d="M 35.96 103.4 
L 211 103.4 
" style="fill: none; stroke: var(--fg-color); stroke-width: 0.8; stroke-linejoin: miter; stroke-linecap: square"/>
   </g>
  </g>
 </g>
 <defs>
  <clipPath id="p55a7650110">
   <rect x="35.96" y="5" width="175.04" height="98.4"/>
  </clipPath>
 </defs>
</svg>
