<?xml version="1.0" encoding="utf-8" standalone="no"?>
<!DOCTYPE svg PUBLIC "-//W3C//DTD SVG 1.1//EN"
  "http://www.w3.org/Graphics/SVG/1.1/DTD/svg11.dtd">
<svg xmlns:xlink="http://www.w3.org/1999/xlink" width="216pt" height="122.4pt" viewBox="0 0 216 122.4" xmlns="http://www.w3.org/2000/svg" version="1.1">
  <style>
    :root {
      --fg-color: #212529;
      --grid-color: rgba(33, 37, 41, 0.1);
    }
    @media (prefers-color-scheme: dark) {
      :root {
        --fg-color: #dee2e6;
        --grid-color: rgba(248, 249, 250, 0.15);
      }
    }
  </style>

 <metadata>
  <rdf:RDF xmlns:dc="http://purl.org/dc/elements/1.1/" xmlns:cc="http://creativecommons.org/ns#" xmlns:rdf="http://www.w3.org/1999/02/22-rdf-syntax-ns#">
   <cc:Work>
    <dc:type rdf:resource="http://purl.org/dc/dcmitype/StillImage"/>
    <dc:date>2026-06-30T04:49:19.202541</dc:date>
    <dc:format>image/svg+xml</dc:format>
    <dc:creator>
     <cc:Agent>
      <dc:title>Matplotlib v3.11.0, https://matplotlib.org/</dc:title>
     </cc:Agent>
    </dc:creator>
   </cc:Work>
  </rdf:RDF>
 </metadata>
 <defs>
  <style type="text/css">*{stroke-linejoin: round; stroke-linecap: butt}</style>
 </defs>
 <g id="figure_1">
  <g id="patch_1">
   <path d="M 0 122.4 
L 216 122.4 
L 216 0 
L 0 0 
L 0 122.4 
z
" style="fill: none; opacity: 0"/>
  </g>
  <g id="axes_1">
   <g id="patch_2">
    <path d="M 35.96 103.4 
L 211 103.4 
L 211 5 
L 35.96 5 
L 35.96 103.4 
z
" style="fill: none; opacity: 0"/>
   </g>
   <g id="matplotlib.axis_1">
    <g id="xtick_1">
     <g id="line2d_1">
      <path d="M 70.996911 103.4 
L 70.996911 5 
" clip-path="url(#pf6ab468091)" style="fill: none; stroke-dasharray: 2.96,1.28; stroke-dashoffset: 0; stroke: var(--grid-color); stroke-width: 0.8"/>
     </g>
     <g id="line2d_2">
      <defs>
       <path id="m38b421d0f0" d="M 0 0 
L 0 3.5 
" style="stroke: var(--fg-color); stroke-width: 0.8"/>
      </defs>
      <g>
       <use xlink:href="#m38b421d0f0" x="70.996911" y="103.4" style="fill: var(--fg-color); stroke: var(--fg-color); stroke-width: 0.8"/>
      </g>
     </g>
     <g id="text_1">
      <text style="font-size: 7px; font-family: 'DejaVu Sans', 'Bitstream Vera Sans', 'Computer Modern Sans Serif', 'Lucida Grande', 'Verdana', 'Geneva', 'Lucid', 'Arial', 'Helvetica', 'Avant Garde', sans-serif; text-anchor: middle; fill: var(--fg-color)" x="70.996911" y="115.718359" transform="rotate(-0 70.996911 115.718359)">02/2026</text>
     </g>
    </g>
    <g id="xtick_2">
     <g id="line2d_3">
      <path d="M 126.022656 103.4 
L 126.022656 5 
" clip-path="url(#pf6ab468091)" style="fill: none; stroke-dasharray: 2.96,1.28; stroke-dashoffset: 0; stroke: var(--grid-color); stroke-width: 0.8"/>
     </g>
     <g id="line2d_4">
      <g>
       <use xlink:href="#m38b421d0f0" x="126.022656" y="103.4" style="fill: var(--fg-color); stroke: var(--fg-color); stroke-width: 0.8"/>
      </g>
     </g>
     <g id="text_2">
      <text style="font-size: 7px; font-family: 'DejaVu Sans', 'Bitstream Vera Sans', 'Computer Modern Sans Serif', 'Lucida Grande', 'Verdana', 'Geneva', 'Lucid', 'Arial', 'Helvetica', 'Avant Garde', sans-serif; text-anchor: middle; fill: var(--fg-color)" x="126.022656" y="115.718359" transform="rotate(-0 126.022656 115.718359)">04/2026</text>
     </g>
    </g>
    <g id="xtick_3">
     <g id="line2d_5">
      <path d="M 182.913681 103.4 
L 182.913681 5 
" clip-path="url(#pf6ab468091)" style="fill: none; stroke-dasharray: 2.96,1.28; stroke-dashoffset: 0; stroke: var(--grid-color); stroke-width: 0.8"/>
     </g>
     <g id="line2d_6">
      <g>
       <use xlink:href="#m38b421d0f0" x="182.913681" y="103.4" style="fill: var(--fg-color); stroke: var(--fg-color); stroke-width: 0.8"/>
      </g>
     </g>
     <g id="text_3">
      <text style="font-size: 7px; font-family: 'DejaVu Sans', 'Bitstream Vera Sans', 'Computer Modern Sans Serif', 'Lucida Grande', 'Verdana', 'Geneva', 'Lucid', 'Arial', 'Helvetica', 'Avant Garde', sans-serif; text-anchor: middle; fill: var(--fg-color)" x="182.913681" y="115.718359" transform="rotate(-0 182.913681 115.718359)">06/2026</text>
     </g>
    </g>
   </g>
   <g id="matplotlib.axis_2">
    <g id="ytick_1">
     <g id="line2d_7">
      <path d="M 35.96 99.542531 
L 211 99.542531 
" clip-path="url(#pf6ab468091)" style="fill: none; stroke-dasharray: 2.96,1.28; stroke-dashoffset: 0; stroke: var(--grid-color); stroke-width: 0.8"/>
     </g>
     <g id="line2d_8">
      <defs>
       <path id="mce09be3b6e" d="M 0 0 
L -3.5 0 
" style="stroke: var(--fg-color); stroke-width: 0.8"/>
      </defs>
      <g>
       <use xlink:href="#mce09be3b6e" x="35.96" y="99.542531" style="fill: var(--fg-color); stroke: var(--fg-color); stroke-width: 0.8"/>
      </g>
     </g>
     <g id="text_4">
      <text style="font-size: 7px; font-family: 'DejaVu Sans', 'Bitstream Vera Sans', 'Computer Modern Sans Serif', 'Lucida Grande', 'Verdana', 'Geneva', 'Lucid', 'Arial', 'Helvetica', 'Avant Garde', sans-serif; text-anchor: end; fill: var(--fg-color)" x="28.96" y="102.201711" transform="rotate(-0 28.96 102.201711)">0</text>
     </g>
    </g>
    <g id="ytick_2">
     <g id="line2d_9">
      <path d="M 35.96 73.571296 
L 211 73.571296 
" clip-path="url(#pf6ab468091)" style="fill: none; stroke-dasharray: 2.96,1.28; stroke-dashoffset: 0; stroke: var(--grid-color); stroke-width: 0.8"/>
     </g>
     <g id="line2d_10">
      <g>
       <use xlink:href="#mce09be3b6e" x="35.96" y="73.571296" style="fill: var(--fg-color); stroke: var(--fg-color); stroke-width: 0.8"/>
      </g>
     </g>
     <g id="text_5">
      <text style="font-size: 7px; font-family: 'DejaVu Sans', 'Bitstream Vera Sans', 'Computer Modern Sans Serif', 'Lucida Grande', 'Verdana', 'Geneva', 'Lucid', 'Arial', 'Helvetica', 'Avant Garde', sans-serif; text-anchor: end; fill: var(--fg-color)" x="28.96" y="76.230475" transform="rotate(-0 28.96 76.230475)">100</text>
     </g>
    </g>
    <g id="ytick_3">
     <g id="line2d_11">
      <path d="M 35.96 47.60006 
L 211 47.60006 
" clip-path="url(#pf6ab468091)" style="fill: none; stroke-dasharray: 2.96,1.28; stroke-dashoffset: 0; stroke: var(--grid-color); stroke-width: 0.8"/>
     </g>
     <g id="line2d_12">
      <g>
       <use xlink:href="#mce09be3b6e" x="35.96" y="47.60006" style="fill: var(--fg-color); stroke: var(--fg-color); stroke-width: 0.8"/>
      </g>
     </g>
     <g id="text_6">
      <text style="font-size: 7px; font-family: 'DejaVu Sans', 'Bitstream Vera Sans', 'Computer Modern Sans Serif', 'Lucida Grande', 'Verdana', 'Geneva', 'Lucid', 'Arial', 'Helvetica', 'Avant Garde', sans-serif; text-anchor: end; fill: var(--fg-color)" x="28.96" y="50.259239" transform="rotate(-0 28.96 50.259239)">200</text>
     </g>
    </g>
    <g id="ytick_4">
     <g id="line2d_13">
      <path d="M 35.96 21.628824 
L 211 21.628824 
" clip-path="url(#pf6ab468091)" style="fill: none; stroke-dasharray: 2.96,1.28; stroke-dashoffset: 0; stroke: var(--grid-color); stroke-width: 0.8"/>
     </g>
     <g id="line2d_14">
      <g>
       <use xlink:href="#mce09be3b6e" x="35.96" y="21.628824" style="fill: var(--fg-color); stroke: var(--fg-color); stroke-width: 0.8"/>
      </g>
     </g>
     <g id="text_7">
      <text style="font-size: 7px; font-family: 'DejaVu Sans', 'Bitstream Vera Sans', 'Computer Modern Sans Serif', 'Lucida Grande', 'Verdana', 'Geneva', 'Lucid', 'Arial', 'Helvetica', 'Avant Garde', sans-serif; text-anchor: end; fill: var(--fg-color)" x="28.96" y="24.288004" transform="rotate(-0 28.96 24.288004)">300</text>
     </g>
    </g>
    <g id="text_8">
     <text style="font-size: 7px; font-family: 'DejaVu Sans', 'Bitstream Vera Sans', 'Computer Modern Sans Serif', 'Lucida Grande', 'Verdana', 'Geneva', 'Lucid', 'Arial', 'Helvetica', 'Avant Garde', sans-serif; text-anchor: middle; fill: var(--fg-color)" x="9.917109" y="54.2" transform="rotate(-90 9.917109 54.2)">ms</text>
    </g>
   </g>
   <g id="line2d_15">
    <path d="M 43.916364 26.058997 
L 44.494523 30.971197 
L 45.427166 28.113841 
L 46.359808 25.083258 
L 47.292453 27.936718 
L 48.22509 23.7273 
L 49.157727 24.374503 
L 50.090359 23.417463 
L 51.023007 30.322695 
L 51.95565 28.805196 
L 52.88829 26.794762 
L 53.82093 24.681743 
L 54.753566 30.093369 
L 55.686208 28.556651 
L 56.618849 25.039367 
L 57.551483 23.04088 
L 58.484126 30.05649 
L 59.416765 29.784571 
L 60.349406 25.227658 
L 61.282045 26.457396 
L 62.214684 26.264949 
L 63.147327 22.674945 
L 64.07996 31.396865 
L 65.012598 30.352822 
L 65.945245 27.7718 
L 66.877884 28.236945 
L 67.810526 30.657724 
L 68.743162 28.248372 
L 69.675784 23.379545 
L 70.608443 27.334704 
L 71.541078 28.37745 
L 72.473724 24.028047 
L 73.406361 26.524921 
L 74.339003 30.748623 
L 75.271637 26.258976 
L 76.204286 30.459563 
L 77.136912 32.679844 
L 78.069558 32.686597 
L 79.002199 31.333496 
L 79.934841 24.709272 
L 80.867465 34.727676 
L 81.800118 32.157303 
L 82.732742 29.104125 
L 83.665398 34.153972 
L 84.598038 29.863264 
L 85.53068 25.812011 
L 86.463316 26.564657 
L 87.395962 30.40892 
L 96.913595 37.326099 
L 97.655282 29.216061 
L 98.587939 31.587754 
L 99.520578 18.156729 
L 100.453222 19.147532 
L 101.385859 23.359547 
L 102.318497 29.699385 
L 103.251135 31.299993 
L 104.183773 26.963056 
L 105.116412 9.472727 
L 106.049054 22.908167 
L 106.981691 24.056355 
L 107.914333 28.176692 
L 108.846974 24.149073 
L 109.779613 24.209586 
L 110.71225 30.856923 
L 111.644893 28.161888 
L 112.57753 27.412618 
L 113.510173 23.738987 
L 114.442814 34.111119 
L 115.37545 18.009213 
L 116.308095 26.864885 
L 117.240726 30.071294 
L 118.173367 29.413962 
L 119.106014 24.011685 
L 120.038653 23.62783 
L 120.971293 24.496048 
L 121.903926 21.009929 
L 122.836569 26.836836 
L 123.769209 26.857613 
L 124.701847 20.951234 
L 125.634489 27.855947 
L 129.365046 13.558003 
L 130.297692 27.129532 
L 131.230328 20.22404 
L 132.162968 26.02939 
L 133.095609 24.469817 
L 134.028248 19.441007 
L 134.960891 18.302947 
L 135.893512 29.005174 
L 136.826165 24.823546 
L 137.75881 14.528028 
L 138.691446 22.927386 
L 139.624089 22.90531 
L 140.556726 16.253298 
L 141.489366 11.938436 
L 142.422003 24.977295 
L 143.354646 23.497714 
L 144.287298 17.066457 
L 145.219926 24.767188 
L 146.152567 22.31836 
L 147.085204 14.414534 
L 148.017844 24.199717 
L 148.950485 28.606516 
L 149.883123 24.752125 
L 150.815765 23.269687 
L 151.7484 20.932535 
L 179.727656 20.932535 
L 188.43171 19.294789 
L 189.054038 22.131887 
L 189.986678 15.223798 
L 190.919315 15.980859 
L 191.851955 19.538659 
L 192.7846 23.323187 
L 193.717237 20.020945 
L 194.649875 11.916361 
L 195.582513 29.469021 
L 196.515156 16.036178 
L 197.447798 17.411095 
L 198.380437 23.088927 
L 199.313081 21.667002 
L 200.245713 20.578287 
L 201.178356 15.729198 
L 202.110995 12.990271 
L 203.043636 22.304336 
" clip-path="url(#pf6ab468091)" style="fill: none; stroke: #339af0; stroke-width: 1.2; stroke-linecap: square"/>
   </g>
   <g id="line2d_16">
    <path d="M 43.916364 98.845463 
L 44.494523 98.876109 
L 45.427166 98.855332 
L 46.359808 98.777938 
L 47.292453 98.777678 
L 48.22509 98.82183 
L 49.157727 98.815337 
L 50.090359 98.841308 
L 51.023007 98.889874 
L 51.95565 98.890394 
L 52.88829 98.819232 
L 53.82093 98.837932 
L 54.753566 98.823647 
L 55.686208 98.834815 
L 56.618849 98.827283 
L 57.551483 98.852995 
L 58.484126 98.858709 
L 59.416765 98.84884 
L 60.349406 98.83949 
L 61.282045 98.809363 
L 62.214684 98.853255 
L 63.147327 98.762875 
L 64.07996 98.912729 
L 65.012598 98.86676 
L 65.945245 98.828063 
L 66.877884 98.802611 
L 67.810526 98.771965 
L 68.743162 98.8304 
L 69.675784 98.756901 
L 70.608443 98.867279 
L 71.541078 98.83014 
L 72.473724 98.844424 
L 73.406361 98.828842 
L 74.339003 98.882083 
L 75.271637 98.873512 
L 76.204286 98.864422 
L 77.136912 98.886238 
L 78.069558 98.922598 
L 79.002199 98.869617 
L 79.934841 98.746773 
L 80.867465 98.865981 
L 81.800118 98.76729 
L 82.732742 98.83923 
L 83.665398 98.896886 
L 84.598038 98.852216 
L 85.53068 98.85741 
L 86.463316 98.818453 
L 87.395962 98.84858 
L 96.913595 98.828582 
L 97.655282 98.784431 
L 98.587939 98.888835 
L 99.520578 98.354347 
L 100.453222 98.836373 
L 101.385859 98.831179 
L 102.318497 98.815077 
L 103.251135 98.927273 
L 104.183773 98.892731 
L 105.116412 98.663405 
L 106.049054 98.859748 
L 106.981691 98.877927 
L 107.914333 98.90234 
L 108.846974 98.807805 
L 109.779613 98.897146 
L 110.71225 98.908833 
L 111.644893 98.842866 
L 112.57753 98.82157 
L 113.510173 98.793001 
L 114.442814 98.903639 
L 115.37545 98.365515 
L 116.308095 98.876369 
L 117.240726 98.899743 
L 118.173367 98.889095 
L 119.106014 98.887537 
L 120.038653 98.66834 
L 120.971293 98.873772 
L 121.903926 98.83066 
L 122.836569 98.889095 
L 123.769209 98.778717 
L 124.701847 98.83923 
L 125.634489 98.8665 
L 129.365046 98.779756 
L 130.297692 98.852995 
L 131.230328 98.817155 
L 132.162968 98.781834 
L 133.095609 98.82157 
L 134.028248 98.80365 
L 134.960891 98.864163 
L 135.893512 98.858709 
L 136.826165 98.855073 
L 137.75881 98.855592 
L 138.691446 98.732488 
L 139.624089 98.836633 
L 140.556726 98.601334 
L 141.489366 98.752486 
L 142.422003 98.865461 
L 143.354646 98.868318 
L 144.287298 98.699765 
L 145.219926 98.837412 
L 146.152567 98.834036 
L 147.085204 98.809883 
L 148.017844 98.752227 
L 148.950485 98.845983 
L 149.883123 98.80365 
L 150.815765 98.755083 
L 151.7484 98.817155 
L 179.727656 98.817155 
L 188.43171 98.844684 
L 189.054038 98.722619 
L 189.986678 98.852995 
L 190.919315 98.495891 
L 191.851955 98.849619 
L 192.7846 98.83923 
L 193.717237 98.789106 
L 194.649875 98.832218 
L 195.582513 98.847022 
L 196.515156 98.736904 
L 197.447798 98.82157 
L 198.380437 98.862345 
L 199.313081 98.795079 
L 200.245713 98.838971 
L 201.178356 98.824946 
L 202.110995 98.807026 
L 203.043636 98.843645 
" clip-path="url(#pf6ab468091)" style="fill: none; stroke: #ff6b6b; stroke-width: 1.2; stroke-linecap: square"/>
   </g>
   <g id="patch_3">
    <path d="M 35.96 103.4 
L 35.96 5 
" style="fill: none; stroke: var(--fg-color); stroke-width: 0.8; stroke-linejoin: miter; stroke-linecap: square"/>
   </g>
   <g id="patch_4">
    <path d="M 35.96 103.4 
L 211 103.4 
" style="fill: none; stroke: var(--fg-color); stroke-width: 0.8; stroke-linejoin: miter; stroke-linecap: square"/>
   </g>
  </g>
 </g>
 <defs>
  <clipPath id="pf6ab468091">
   <rect x="35.96" y="5" width="175.04" height="98.4"/>
  </clipPath>
 </defs>
</svg>
