<?xml version="1.0" encoding="utf-8" standalone="no"?>
<!DOCTYPE svg PUBLIC "-//W3C//DTD SVG 1.1//EN"
  "http://www.w3.org/Graphics/SVG/1.1/DTD/svg11.dtd">
<svg xmlns:xlink="http://www.w3.org/1999/xlink" width="216pt" height="122.4pt" viewBox="0 0 216 122.4" xmlns="http://www.w3.org/2000/svg" version="1.1">
  <style>
    :root {
      --fg-color: #212529;
      --grid-color: rgba(33, 37, 41, 0.1);
    }
    @media (prefers-color-scheme: dark) {
      :root {
        --fg-color: #dee2e6;
        --grid-color: rgba(248, 249, 250, 0.15);
      }
    }
  </style>

 <metadata>
  <rdf:RDF xmlns:dc="http://purl.org/dc/elements/1.1/" xmlns:cc="http://creativecommons.org/ns#" xmlns:rdf="http://www.w3.org/1999/02/22-rdf-syntax-ns#">
   <cc:Work>
    <dc:type rdf:resource="http://purl.org/dc/dcmitype/StillImage"/>
    <dc:date>2026-06-30T15:37:24.335918</dc:date>
    <dc:format>image/svg+xml</dc:format>
    <dc:creator>
     <cc:Agent>
      <dc:title>Matplotlib v3.11.0, https://matplotlib.org/</dc:title>
     </cc:Agent>
    </dc:creator>
   </cc:Work>
  </rdf:RDF>
 </metadata>
 <defs>
  <style type="text/css">*{stroke-linejoin: round; stroke-linecap: butt}</style>
 </defs>
 <g id="figure_1">
  <g id="patch_1">
   <path d="M 0 122.4 
L 216 122.4 
L 216 0 
L 0 0 
L 0 122.4 
z
" style="fill: none; opacity: 0"/>
  </g>
  <g id="axes_1">
   <g id="patch_2">
    <path d="M 35.96 103.4 
L 211 103.4 
L 211 5 
L 35.96 5 
L 35.96 103.4 
z
" style="fill: none; opacity: 0"/>
   </g>
   <g id="matplotlib.axis_1">
    <g id="xtick_1">
     <g id="line2d_1">
      <path d="M 69.784035 103.4 
L 69.784035 5 
" clip-path="url(#pae07e6ca57)" style="fill: none; stroke-dasharray: 2.96,1.28; stroke-dashoffset: 0; stroke: var(--grid-color); stroke-width: 0.8"/>
     </g>
     <g id="line2d_2">
      <defs>
       <path id="m6672645648" d="M 0 0 
L 0 3.5 
" style="stroke: var(--fg-color); stroke-width: 0.8"/>
      </defs>
      <g>
       <use xlink:href="#m6672645648" x="69.784035" y="103.4" style="fill: var(--fg-color); stroke: var(--fg-color); stroke-width: 0.8"/>
      </g>
     </g>
     <g id="text_1">
      <text style="font-size: 7px; font-family: 'DejaVu Sans', 'Bitstream Vera Sans', 'Computer Modern Sans Serif', 'Lucida Grande', 'Verdana', 'Geneva', 'Lucid', 'Arial', 'Helvetica', 'Avant Garde', sans-serif; text-anchor: middle; fill: var(--fg-color)" x="69.784035" y="115.718359" transform="rotate(-0 69.784035 115.718359)">02/2026</text>
     </g>
    </g>
    <g id="xtick_2">
     <g id="line2d_3">
      <path d="M 122.345302 103.4 
L 122.345302 5 
" clip-path="url(#pae07e6ca57)" style="fill: none; stroke-dasharray: 2.96,1.28; stroke-dashoffset: 0; stroke: var(--grid-color); stroke-width: 0.8"/>
     </g>
     <g id="line2d_4">
      <g>
       <use xlink:href="#m6672645648" x="122.345302" y="103.4" style="fill: var(--fg-color); stroke: var(--fg-color); stroke-width: 0.8"/>
      </g>
     </g>
     <g id="text_2">
      <text style="font-size: 7px; font-family: 'DejaVu Sans', 'Bitstream Vera Sans', 'Computer Modern Sans Serif', 'Lucida Grande', 'Verdana', 'Geneva', 'Lucid', 'Arial', 'Helvetica', 'Avant Garde', sans-serif; text-anchor: middle; fill: var(--fg-color)" x="122.345302" y="115.718359" transform="rotate(-0 122.345302 115.718359)">04/2026</text>
     </g>
    </g>
    <g id="xtick_3">
     <g id="line2d_5">
      <path d="M 176.688307 103.4 
L 176.688307 5 
" clip-path="url(#pae07e6ca57)" style="fill: none; stroke-dasharray: 2.96,1.28; stroke-dashoffset: 0; stroke: var(--grid-color); stroke-width: 0.8"/>
     </g>
     <g id="line2d_6">
      <g>
       <use xlink:href="#m6672645648" x="176.688307" y="103.4" style="fill: var(--fg-color); stroke: var(--fg-color); stroke-width: 0.8"/>
      </g>
     </g>
     <g id="text_3">
      <text style="font-size: 7px; font-family: 'DejaVu Sans', 'Bitstream Vera Sans', 'Computer Modern Sans Serif', 'Lucida Grande', 'Verdana', 'Geneva', 'Lucid', 'Arial', 'Helvetica', 'Avant Garde', sans-serif; text-anchor: middle; fill: var(--fg-color)" x="176.688307" y="115.718359" transform="rotate(-0 176.688307 115.718359)">06/2026</text>
     </g>
    </g>
   </g>
   <g id="matplotlib.axis_2">
    <g id="ytick_1">
     <g id="line2d_7">
      <path d="M 35.96 99.907101 
L 211 99.907101 
" clip-path="url(#pae07e6ca57)" style="fill: none; stroke-dasharray: 2.96,1.28; stroke-dashoffset: 0; stroke: var(--grid-color); stroke-width: 0.8"/>
     </g>
     <g id="line2d_8">
      <defs>
       <path id="m0e9a9de4a3" d="M 0 0 
L -3.5 0 
" style="stroke: var(--fg-color); stroke-width: 0.8"/>
      </defs>
      <g>
       <use xlink:href="#m0e9a9de4a3" x="35.96" y="99.907101" style="fill: var(--fg-color); stroke: var(--fg-color); stroke-width: 0.8"/>
      </g>
     </g>
     <g id="text_4">
      <text style="font-size: 7px; font-family: 'DejaVu Sans', 'Bitstream Vera Sans', 'Computer Modern Sans Serif', 'Lucida Grande', 'Verdana', 'Geneva', 'Lucid', 'Arial', 'Helvetica', 'Avant Garde', sans-serif; text-anchor: end; fill: var(--fg-color)" x="28.96" y="102.56628" transform="rotate(-0 28.96 102.56628)">0</text>
     </g>
    </g>
    <g id="ytick_2">
     <g id="line2d_9">
      <path d="M 35.96 73.208794 
L 211 73.208794 
" clip-path="url(#pae07e6ca57)" style="fill: none; stroke-dasharray: 2.96,1.28; stroke-dashoffset: 0; stroke: var(--grid-color); stroke-width: 0.8"/>
     </g>
     <g id="line2d_10">
      <g>
       <use xlink:href="#m0e9a9de4a3" x="35.96" y="73.208794" style="fill: var(--fg-color); stroke: var(--fg-color); stroke-width: 0.8"/>
      </g>
     </g>
     <g id="text_5">
      <text style="font-size: 7px; font-family: 'DejaVu Sans', 'Bitstream Vera Sans', 'Computer Modern Sans Serif', 'Lucida Grande', 'Verdana', 'Geneva', 'Lucid', 'Arial', 'Helvetica', 'Avant Garde', sans-serif; text-anchor: end; fill: var(--fg-color)" x="28.96" y="75.867974" transform="rotate(-0 28.96 75.867974)">100</text>
     </g>
    </g>
    <g id="ytick_3">
     <g id="line2d_11">
      <path d="M 35.96 46.510487 
L 211 46.510487 
" clip-path="url(#pae07e6ca57)" style="fill: none; stroke-dasharray: 2.96,1.28; stroke-dashoffset: 0; stroke: var(--grid-color); stroke-width: 0.8"/>
     </g>
     <g id="line2d_12">
      <g>
       <use xlink:href="#m0e9a9de4a3" x="35.96" y="46.510487" style="fill: var(--fg-color); stroke: var(--fg-color); stroke-width: 0.8"/>
      </g>
     </g>
     <g id="text_6">
      <text style="font-size: 7px; font-family: 'DejaVu Sans', 'Bitstream Vera Sans', 'Computer Modern Sans Serif', 'Lucida Grande', 'Verdana', 'Geneva', 'Lucid', 'Arial', 'Helvetica', 'Avant Garde', sans-serif; text-anchor: end; fill: var(--fg-color)" x="28.96" y="49.169667" transform="rotate(-0 28.96 49.169667)">200</text>
     </g>
    </g>
    <g id="ytick_4">
     <g id="line2d_13">
      <path d="M 35.96 19.812181 
L 211 19.812181 
" clip-path="url(#pae07e6ca57)" style="fill: none; stroke-dasharray: 2.96,1.28; stroke-dashoffset: 0; stroke: var(--grid-color); stroke-width: 0.8"/>
     </g>
     <g id="line2d_14">
      <g>
       <use xlink:href="#m0e9a9de4a3" x="35.96" y="19.812181" style="fill: var(--fg-color); stroke: var(--fg-color); stroke-width: 0.8"/>
      </g>
     </g>
     <g id="text_7">
      <text style="font-size: 7px; font-family: 'DejaVu Sans', 'Bitstream Vera Sans', 'Computer Modern Sans Serif', 'Lucida Grande', 'Verdana', 'Geneva', 'Lucid', 'Arial', 'Helvetica', 'Avant Garde', sans-serif; text-anchor: end; fill: var(--fg-color)" x="28.96" y="22.47136" transform="rotate(-0 28.96 22.47136)">300</text>
     </g>
    </g>
    <g id="text_8">
     <text style="font-size: 7px; font-family: 'DejaVu Sans', 'Bitstream Vera Sans', 'Computer Modern Sans Serif', 'Lucida Grande', 'Verdana', 'Geneva', 'Lucid', 'Arial', 'Helvetica', 'Avant Garde', sans-serif; text-anchor: middle; fill: var(--fg-color)" x="9.917109" y="54.2" transform="rotate(-90 9.917109 54.2)">ms</text>
    </g>
   </g>
   <g id="line2d_15">
    <path d="M 43.916364 38.385125 
L 44.468628 42.806097 
L 45.3595 43.962134 
L 46.250371 36.602212 
L 47.141245 35.514523 
L 48.032112 39.100906 
L 48.922979 44.379161 
L 49.81384 35.422413 
L 50.704717 40.666495 
L 51.595589 37.993193 
L 52.486458 42.544187 
L 53.377327 40.793312 
L 54.268192 39.692541 
L 55.159063 39.698147 
L 56.049934 40.900372 
L 56.940797 39.954451 
L 57.831669 44.375958 
L 58.722538 41.530185 
L 59.613407 36.424134 
L 60.504275 42.664062 
L 61.395144 39.333715 
L 62.286016 39.979547 
L 63.176879 43.780585 
L 64.067746 43.148636 
L 64.958622 37.763321 
L 65.84949 38.554926 
L 66.740361 36.936741 
L 67.631226 38.870233 
L 68.522078 19.566289 
L 69.412965 30.670649 
L 70.30383 16.786461 
L 71.194705 31.838433 
L 72.085571 39.266436 
L 72.976442 41.471983 
L 73.867306 42.243831 
L 74.758184 24.916096 
L 75.649039 40.404851 
L 76.539914 31.048163 
L 77.430784 30.278718 
L 78.321655 38.584294 
L 79.212509 26.035823 
L 80.103391 9.472727 
L 80.994245 27.802717 
L 81.885129 34.435644 
L 82.775998 36.185985 
L 83.666869 27.38382 
L 84.557735 34.835852 
L 85.44861 39.142822 
L 94.53997 32.026923 
L 95.248438 28.380468 
L 96.139324 28.45282 
L 97.030192 23.821732 
L 97.921065 31.797584 
L 98.811931 45.817666 
L 99.702798 33.792482 
L 100.593666 40.769016 
L 101.484533 43.270915 
L 102.375401 33.031046 
L 103.266272 30.39886 
L 104.157138 30.667979 
L 105.048009 39.586281 
L 105.93888 37.92538 
L 106.829748 37.100936 
L 107.720614 38.966347 
L 108.611487 39.990227 
L 109.502352 43.335525 
L 110.393224 36.224431 
L 111.284094 43.653768 
L 112.17496 41.881268 
L 113.065834 42.894469 
L 113.956695 31.23692 
L 114.847564 37.951811 
L 115.738441 40.941754 
L 116.629309 35.410399 
L 117.520178 35.387172 
L 118.41104 37.923244 
L 119.301913 33.207255 
L 120.192782 30.963796 
L 121.083649 36.540005 
L 121.97452 26.518795 
L 125.537994 34.532025 
L 126.428869 33.243565 
L 127.319734 15.648046 
L 128.210603 42.903546 
L 129.101474 17.242202 
L 129.992342 32.596131 
L 130.883214 31.626982 
L 131.774065 33.355164 
L 132.664946 37.036326 
L 133.55582 26.805001 
L 134.446686 33.60773 
L 135.337558 34.424965 
L 136.228424 26.313485 
L 137.119294 33.800224 
L 138.010159 37.150061 
L 138.901032 33.526834 
L 139.791912 34.615057 
L 140.68277 21.350003 
L 141.57364 29.458279 
L 142.464507 29.910281 
L 143.355376 29.058872 
L 144.246246 25.7069 
L 145.137113 29.606721 
L 146.027984 27.877472 
L 146.918849 24.215532 
L 173.644977 24.215532 
L 181.959197 35.873882 
L 182.553652 34.007403 
L 183.444521 19.931789 
L 184.335387 32.389486 
L 185.226256 29.969284 
L 186.117131 36.569373 
L 187.007996 28.550536 
L 187.898864 30.195152 
L 188.789731 32.794499 
L 189.680603 41.186578 
L 190.571474 37.316124 
L 191.462343 40.518853 
L 192.353215 41.44395 
L 193.244077 39.896249 
L 194.134949 38.623006 
L 195.025817 33.315383 
L 195.916688 36.086934 
L 196.807557 41.355311 
L 197.698426 44.400253 
L 198.589295 38.318913 
L 199.480162 38.078361 
L 200.371032 32.937068 
L 201.261898 42.659523 
L 202.152766 36.176374 
L 203.043636 33.13597 
L 203.043636 33.13597 
" clip-path="url(#pae07e6ca57)" style="fill: none; stroke: #339af0; stroke-width: 1.2; stroke-linecap: square"/>
   </g>
   <g id="line2d_16">
    <path d="M 43.916364 98.862129 
L 48.032112 98.712084 
L 48.922979 98.159696 
L 49.81384 98.810601 
L 50.704717 98.792179 
L 51.595589 98.894701 
L 52.486458 98.741453 
L 53.377327 98.786039 
L 54.268192 98.650678 
L 55.159063 98.800189 
L 56.940797 98.786306 
L 57.831669 98.901375 
L 59.613407 98.509711 
L 60.504275 98.840503 
L 61.395144 98.758806 
L 62.286016 98.808732 
L 63.176879 98.738516 
L 65.84949 98.862396 
L 66.740361 98.594612 
L 67.631226 98.775626 
L 70.30383 98.880284 
L 71.194705 98.75934 
L 72.976442 98.876813 
L 73.867306 98.741186 
L 74.758184 98.815941 
L 75.649039 98.654149 
L 76.539914 98.884288 
L 77.430784 98.504105 
L 78.321655 98.898973 
L 80.994245 98.761743 
L 81.885129 98.558836 
L 82.775998 98.718492 
L 83.666869 98.763345 
L 84.557735 98.377288 
L 85.44861 98.927273 
L 95.248438 98.84878 
L 96.139324 98.599685 
L 97.921065 98.709949 
L 99.702798 98.796985 
L 102.375401 98.714487 
L 103.266272 98.488353 
L 104.157138 98.819679 
L 105.048009 98.733443 
L 105.93888 98.869604 
L 107.720614 98.876813 
L 108.611487 97.966134 
L 109.502352 98.880818 
L 115.738441 98.585801 
L 116.629309 98.803126 
L 117.520178 98.727569 
L 118.41104 98.489687 
L 119.301913 98.686721 
L 120.192782 98.752399 
L 121.97452 98.501435 
L 126.428869 98.777495 
L 128.210603 98.696599 
L 129.101474 98.541482 
L 129.992342 98.580996 
L 130.883214 98.140474 
L 131.774065 98.71155 
L 132.664946 98.759073 
L 133.55582 98.571651 
L 134.446686 98.818878 
L 135.337558 98.865867 
L 136.228424 98.743054 
L 137.119294 98.496362 
L 138.010159 98.779097 
L 138.901032 98.670435 
L 139.791912 98.825018 
L 141.57364 98.784971 
L 142.464507 98.468062 
L 144.246246 98.603689 
L 145.137113 98.592476 
L 146.027984 98.420005 
L 146.918849 98.684585 
L 173.644977 98.684585 
L 181.959197 98.556166 
L 183.444521 98.765214 
L 184.335387 98.842639 
L 185.226256 98.718492 
L 186.117131 98.210957 
L 187.007996 98.664294 
L 187.898864 98.846644 
L 188.789731 98.651479 
L 190.571474 98.504372 
L 191.462343 98.283043 
L 192.353215 98.78684 
L 193.244077 98.652013 
L 196.807557 98.572185 
L 197.698426 98.77616 
L 199.480162 98.80366 
L 200.371032 98.264087 
L 201.261898 98.75934 
L 202.152766 98.70541 
L 203.043636 98.806329 
L 203.043636 98.806329 
" clip-path="url(#pae07e6ca57)" style="fill: none; stroke: #ff6b6b; stroke-width: 1.2; stroke-linecap: square"/>
   </g>
   <g id="patch_3">
    <path d="M 35.96 103.4 
L 35.96 5 
" style="fill: none; stroke: var(--fg-color); stroke-width: 0.8; stroke-linejoin: miter; stroke-linecap: square"/>
   </g>
   <g id="patch_4">
    <path d="M 35.96 103.4 
L 211 103.4 
" style="fill: none; stroke: var(--fg-color); stroke-width: 0.8; stroke-linejoin: miter; stroke-linecap: square"/>
   </g>
  </g>
 </g>
 <defs>
  <clipPath id="pae07e6ca57">
   <rect x="35.96" y="5" width="175.04" height="98.4"/>
  </clipPath>
 </defs>
</svg>
