<?xml version="1.0" encoding="utf-8" standalone="no"?>
<!DOCTYPE svg PUBLIC "-//W3C//DTD SVG 1.1//EN"
  "http://www.w3.org/Graphics/SVG/1.1/DTD/svg11.dtd">
<svg xmlns:xlink="http://www.w3.org/1999/xlink" width="737.28pt" height="552.96pt" viewBox="0 0 737.28 552.96" xmlns="http://www.w3.org/2000/svg" version="1.1">
 <metadata>
  <rdf:RDF xmlns:dc="http://purl.org/dc/elements/1.1/" xmlns:cc="http://creativecommons.org/ns#" xmlns:rdf="http://www.w3.org/1999/02/22-rdf-syntax-ns#">
   <cc:Work>
    <dc:type rdf:resource="http://purl.org/dc/dcmitype/StillImage"/>
    <dc:date>2026-06-30T04:48:17.870859</dc:date>
    <dc:format>image/svg+xml</dc:format>
    <dc:creator>
     <cc:Agent>
      <dc:title>Matplotlib v3.11.0, https://matplotlib.org/</dc:title>
     </cc:Agent>
    </dc:creator>
   </cc:Work>
  </rdf:RDF>
 </metadata>
 <defs>
  <style type="text/css">*{stroke-linejoin: round; stroke-linecap: butt}</style>
 </defs>
 <g id="figure_1">
  <g id="patch_1">
   <path d="M 0 552.96 
L 737.28 552.96 
L 737.28 0 
L 0 0 
z
" style="fill: #ffffff"/>
  </g>
  <g id="axes_1">
   <g id="patch_2">
    <path d="M 51.562344 510.837656 
L 682.837656 510.837656 
L 682.837656 26.16 
L 51.562344 26.16 
z
" style="fill: #ffffff"/>
   </g>
   <g id="matplotlib.axis_1">
    <g id="xtick_1">
     <g id="line2d_1">
      <path d="M 374.725224 510.837656 
L 374.725224 26.16 
" clip-path="url(#p2c921ba4f4)" style="fill: none; stroke-dasharray: 2.96,1.28; stroke-dashoffset: 0; stroke: #dee2e6; stroke-width: 0.8"/>
     </g>
     <g id="line2d_2">
      <defs>
       <path id="mcb3a863ec9" d="M 0 0 
L 0 3.5 
" style="stroke: #212529; stroke-width: 0.8"/>
      </defs>
      <g>
       <use xlink:href="#mcb3a863ec9" x="374.725224" y="510.837656" style="fill: #212529; stroke: #212529; stroke-width: 0.8"/>
      </g>
     </g>
     <g id="text_1">
      <text style="font-size: 10px; font-family: 'DejaVu Sans', 'Bitstream Vera Sans', 'Computer Modern Sans Serif', 'Lucida Grande', 'Verdana', 'Geneva', 'Lucid', 'Arial', 'Helvetica', 'Avant Garde', sans-serif; text-anchor: middle; fill: #212529" x="374.725224" y="525.435313" transform="rotate(-0 374.725224 525.435313)">05/2026</text>
     </g>
    </g>
    <g id="text_2">
     <text style="font-size: 10px; font-family: 'DejaVu Sans', 'Bitstream Vera Sans', 'Computer Modern Sans Serif', 'Lucida Grande', 'Verdana', 'Geneva', 'Lucid', 'Arial', 'Helvetica', 'Avant Garde', sans-serif; text-anchor: middle; fill: #212529" x="367.2" y="539.436094" transform="rotate(-0 367.2 539.436094)">Time</text>
    </g>
   </g>
   <g id="matplotlib.axis_2">
    <g id="ytick_1">
     <g id="line2d_3">
      <path d="M 51.562344 498.025491 
L 682.837656 498.025491 
" clip-path="url(#p2c921ba4f4)" style="fill: none; stroke-dasharray: 2.96,1.28; stroke-dashoffset: 0; stroke: #dee2e6; stroke-width: 0.8"/>
     </g>
     <g id="line2d_4">
      <defs>
       <path id="m0aafcb9079" d="M 0 0 
L -3.5 0 
" style="stroke: #212529; stroke-width: 0.8"/>
      </defs>
      <g>
       <use xlink:href="#m0aafcb9079" x="51.562344" y="498.025491" style="fill: #212529; stroke: #212529; stroke-width: 0.8"/>
      </g>
     </g>
     <g id="text_3">
      <text style="font-size: 10px; font-family: 'DejaVu Sans', 'Bitstream Vera Sans', 'Computer Modern Sans Serif', 'Lucida Grande', 'Verdana', 'Geneva', 'Lucid', 'Arial', 'Helvetica', 'Avant Garde', sans-serif; text-anchor: end; fill: #212529" x="44.562344" y="501.824319" transform="rotate(-0 44.562344 501.824319)">0</text>
     </g>
    </g>
    <g id="ytick_2">
     <g id="line2d_5">
      <path d="M 51.562344 408.784086 
L 682.837656 408.784086 
" clip-path="url(#p2c921ba4f4)" style="fill: none; stroke-dasharray: 2.96,1.28; stroke-dashoffset: 0; stroke: #dee2e6; stroke-width: 0.8"/>
     </g>
     <g id="line2d_6">
      <g>
       <use xlink:href="#m0aafcb9079" x="51.562344" y="408.784086" style="fill: #212529; stroke: #212529; stroke-width: 0.8"/>
      </g>
     </g>
     <g id="text_4">
      <text style="font-size: 10px; font-family: 'DejaVu Sans', 'Bitstream Vera Sans', 'Computer Modern Sans Serif', 'Lucida Grande', 'Verdana', 'Geneva', 'Lucid', 'Arial', 'Helvetica', 'Avant Garde', sans-serif; text-anchor: end; fill: #212529" x="44.562344" y="412.582914" transform="rotate(-0 44.562344 412.582914)">20</text>
     </g>
    </g>
    <g id="ytick_3">
     <g id="line2d_7">
      <path d="M 51.562344 319.542681 
L 682.837656 319.542681 
" clip-path="url(#p2c921ba4f4)" style="fill: none; stroke-dasharray: 2.96,1.28; stroke-dashoffset: 0; stroke: #dee2e6; stroke-width: 0.8"/>
     </g>
     <g id="line2d_8">
      <g>
       <use xlink:href="#m0aafcb9079" x="51.562344" y="319.542681" style="fill: #212529; stroke: #212529; stroke-width: 0.8"/>
      </g>
     </g>
     <g id="text_5">
      <text style="font-size: 10px; font-family: 'DejaVu Sans', 'Bitstream Vera Sans', 'Computer Modern Sans Serif', 'Lucida Grande', 'Verdana', 'Geneva', 'Lucid', 'Arial', 'Helvetica', 'Avant Garde', sans-serif; text-anchor: end; fill: #212529" x="44.562344" y="323.341509" transform="rotate(-0 44.562344 323.341509)">40</text>
     </g>
    </g>
    <g id="ytick_4">
     <g id="line2d_9">
      <path d="M 51.562344 230.301276 
L 682.837656 230.301276 
" clip-path="url(#p2c921ba4f4)" style="fill: none; stroke-dasharray: 2.96,1.28; stroke-dashoffset: 0; stroke: #dee2e6; stroke-width: 0.8"/>
     </g>
     <g id="line2d_10">
      <g>
       <use xlink:href="#m0aafcb9079" x="51.562344" y="230.301276" style="fill: #212529; stroke: #212529; stroke-width: 0.8"/>
      </g>
     </g>
     <g id="text_6">
      <text style="font-size: 10px; font-family: 'DejaVu Sans', 'Bitstream Vera Sans', 'Computer Modern Sans Serif', 'Lucida Grande', 'Verdana', 'Geneva', 'Lucid', 'Arial', 'Helvetica', 'Avant Garde', sans-serif; text-anchor: end; fill: #212529" x="44.562344" y="234.100104" transform="rotate(-0 44.562344 234.100104)">60</text>
     </g>
    </g>
    <g id="ytick_5">
     <g id="line2d_11">
      <path d="M 51.562344 141.059871 
L 682.837656 141.059871 
" clip-path="url(#p2c921ba4f4)" style="fill: none; stroke-dasharray: 2.96,1.28; stroke-dashoffset: 0; stroke: #dee2e6; stroke-width: 0.8"/>
     </g>
     <g id="line2d_12">
      <g>
       <use xlink:href="#m0aafcb9079" x="51.562344" y="141.059871" style="fill: #212529; stroke: #212529; stroke-width: 0.8"/>
      </g>
     </g>
     <g id="text_7">
      <text style="font-size: 10px; font-family: 'DejaVu Sans', 'Bitstream Vera Sans', 'Computer Modern Sans Serif', 'Lucida Grande', 'Verdana', 'Geneva', 'Lucid', 'Arial', 'Helvetica', 'Avant Garde', sans-serif; text-anchor: end; fill: #212529" x="44.562344" y="144.858699" transform="rotate(-0 44.562344 144.858699)">80</text>
     </g>
    </g>
    <g id="ytick_6">
     <g id="line2d_13">
      <path d="M 51.562344 51.818466 
L 682.837656 51.818466 
" clip-path="url(#p2c921ba4f4)" style="fill: none; stroke-dasharray: 2.96,1.28; stroke-dashoffset: 0; stroke: #dee2e6; stroke-width: 0.8"/>
     </g>
     <g id="line2d_14">
      <g>
       <use xlink:href="#m0aafcb9079" x="51.562344" y="51.818466" style="fill: #212529; stroke: #212529; stroke-width: 0.8"/>
      </g>
     </g>
     <g id="text_8">
      <text style="font-size: 10px; font-family: 'DejaVu Sans', 'Bitstream Vera Sans', 'Computer Modern Sans Serif', 'Lucida Grande', 'Verdana', 'Geneva', 'Lucid', 'Arial', 'Helvetica', 'Avant Garde', sans-serif; text-anchor: end; fill: #212529" x="44.562344" y="55.617294" transform="rotate(-0 44.562344 55.617294)">100</text>
     </g>
    </g>
    <g id="text_9">
     <text style="font-size: 10px; font-family: 'DejaVu Sans', 'Bitstream Vera Sans', 'Computer Modern Sans Serif', 'Lucida Grande', 'Verdana', 'Geneva', 'Lucid', 'Arial', 'Helvetica', 'Avant Garde', sans-serif; text-anchor: middle; fill: #212529" x="19.0725" y="268.498828" transform="rotate(-90 19.0725 268.498828)">Duration [ms]</text>
    </g>
   </g>
   <g id="line2d_15">
    <path d="M 80.256676 152.754957 
L 85.57043 243.620555 
L 90.884185 190.013243 
L 96.197942 223.06826 
L 101.511718 199.691474 
L 106.825461 186.889794 
L 112.139237 190.981513 
L 117.453009 191.588354 
L 122.766768 216.656265 
L 128.080513 225.839205 
L 133.394298 201.976054 
L 138.708042 184.542745 
L 144.021822 200.914081 
L 149.335592 206.107931 
L 154.649338 219.266576 
L 159.963131 141.907664 
L 165.276841 236.494629 
L 170.590609 197.081163 
L 175.904417 211.756912 
L 181.218175 186.706849 
L 186.531939 170.71479 
L 191.845661 161.638939 
L 197.159444 232.398449 
L 202.47321 151.951784 
L 207.786964 160.947318 
L 213.100735 187.550181 
L 234.355776 215.683534 
L 239.669577 121.270589 
L 244.983317 201.061329 
L 250.297081 216.174361 
L 255.610853 163.945829 
L 260.924612 193.243782 
L 266.238393 182.534814 
L 271.552048 227.757896 
L 276.865883 225.915061 
L 282.179676 219.217493 
L 287.493419 175.225943 
L 292.807201 142.719761 
L 298.120947 152.888819 
L 303.434714 198.732129 
L 308.748458 195.564059 
L 314.062241 185.850132 
L 319.376071 203.118344 
L 324.689767 196.139666 
L 330.003539 201.391523 
L 335.317287 48.190803 
L 340.631052 171.410873 
L 345.94482 228.842179 
L 351.25857 174.155046 
L 356.572347 211.703367 
L 361.886085 214.742037 
L 521.299331 214.742037 
L 570.891126 174.538784 
L 574.43687 237.436126 
L 579.750632 182.093069 
L 585.064382 172.338983 
L 590.378143 197.692466 
L 595.691939 206.487207 
L 601.005684 207.67858 
L 606.319438 189.308236 
L 611.63319 224.098998 
L 616.94697 121.600782 
L 622.260745 180.330551 
L 627.574508 175.645377 
L 632.888292 153.727688 
L 638.202013 162.098532 
L 643.515793 53.790701 
L 648.82955 194.528859 
L 654.143324 118.347933 
" clip-path="url(#p2c921ba4f4)" style="fill: none; stroke: #007bff; stroke-width: 1.5; stroke-linecap: square"/>
    <defs>
     <path id="m2d48d718e1" d="M 0 2 
C 0.530406 2 1.03916 1.789267 1.414214 1.414214 
C 1.789267 1.03916 2 0.530406 2 0 
C 2 -0.530406 1.789267 -1.03916 1.414214 -1.414214 
C 1.03916 -1.789267 0.530406 -2 0 -2 
C -0.530406 -2 -1.03916 -1.789267 -1.414214 -1.414214 
C -1.789267 -1.03916 -2 -0.530406 -2 0 
C -2 0.530406 -1.789267 1.03916 -1.414214 1.414214 
C -1.03916 1.789267 -0.530406 2 0 2 
z
" style="stroke: #007bff"/>
    </defs>
    <g clip-path="url(#p2c921ba4f4)">
     <use xlink:href="#m2d48d718e1" x="80.256676" y="152.754957" style="fill: #007bff; stroke: #007bff"/>
     <use xlink:href="#m2d48d718e1" x="85.57043" y="243.620555" style="fill: #007bff; stroke: #007bff"/>
     <use xlink:href="#m2d48d718e1" x="90.884185" y="190.013243" style="fill: #007bff; stroke: #007bff"/>
     <use xlink:href="#m2d48d718e1" x="96.197942" y="223.06826" style="fill: #007bff; stroke: #007bff"/>
     <use xlink:href="#m2d48d718e1" x="101.511718" y="199.691474" style="fill: #007bff; stroke: #007bff"/>
     <use xlink:href="#m2d48d718e1" x="106.825461" y="186.889794" style="fill: #007bff; stroke: #007bff"/>
     <use xlink:href="#m2d48d718e1" x="112.139237" y="190.981513" style="fill: #007bff; stroke: #007bff"/>
     <use xlink:href="#m2d48d718e1" x="117.453009" y="191.588354" style="fill: #007bff; stroke: #007bff"/>
     <use xlink:href="#m2d48d718e1" x="122.766768" y="216.656265" style="fill: #007bff; stroke: #007bff"/>
     <use xlink:href="#m2d48d718e1" x="128.080513" y="225.839205" style="fill: #007bff; stroke: #007bff"/>
     <use xlink:href="#m2d48d718e1" x="133.394298" y="201.976054" style="fill: #007bff; stroke: #007bff"/>
     <use xlink:href="#m2d48d718e1" x="138.708042" y="184.542745" style="fill: #007bff; stroke: #007bff"/>
     <use xlink:href="#m2d48d718e1" x="144.021822" y="200.914081" style="fill: #007bff; stroke: #007bff"/>
     <use xlink:href="#m2d48d718e1" x="149.335592" y="206.107931" style="fill: #007bff; stroke: #007bff"/>
     <use xlink:href="#m2d48d718e1" x="154.649338" y="219.266576" style="fill: #007bff; stroke: #007bff"/>
     <use xlink:href="#m2d48d718e1" x="159.963131" y="141.907664" style="fill: #007bff; stroke: #007bff"/>
     <use xlink:href="#m2d48d718e1" x="165.276841" y="236.494629" style="fill: #007bff; stroke: #007bff"/>
     <use xlink:href="#m2d48d718e1" x="170.590609" y="197.081163" style="fill: #007bff; stroke: #007bff"/>
     <use xlink:href="#m2d48d718e1" x="175.904417" y="211.756912" style="fill: #007bff; stroke: #007bff"/>
     <use xlink:href="#m2d48d718e1" x="181.218175" y="186.706849" style="fill: #007bff; stroke: #007bff"/>
     <use xlink:href="#m2d48d718e1" x="186.531939" y="170.71479" style="fill: #007bff; stroke: #007bff"/>
     <use xlink:href="#m2d48d718e1" x="191.845661" y="161.638939" style="fill: #007bff; stroke: #007bff"/>
     <use xlink:href="#m2d48d718e1" x="197.159444" y="232.398449" style="fill: #007bff; stroke: #007bff"/>
     <use xlink:href="#m2d48d718e1" x="202.47321" y="151.951784" style="fill: #007bff; stroke: #007bff"/>
     <use xlink:href="#m2d48d718e1" x="207.786964" y="160.947318" style="fill: #007bff; stroke: #007bff"/>
     <use xlink:href="#m2d48d718e1" x="213.100735" y="187.550181" style="fill: #007bff; stroke: #007bff"/>
     <use xlink:href="#m2d48d718e1" x="234.355776" y="215.683534" style="fill: #007bff; stroke: #007bff"/>
     <use xlink:href="#m2d48d718e1" x="239.669577" y="121.270589" style="fill: #007bff; stroke: #007bff"/>
     <use xlink:href="#m2d48d718e1" x="244.983317" y="201.061329" style="fill: #007bff; stroke: #007bff"/>
     <use xlink:href="#m2d48d718e1" x="250.297081" y="216.174361" style="fill: #007bff; stroke: #007bff"/>
     <use xlink:href="#m2d48d718e1" x="255.610853" y="163.945829" style="fill: #007bff; stroke: #007bff"/>
     <use xlink:href="#m2d48d718e1" x="260.924612" y="193.243782" style="fill: #007bff; stroke: #007bff"/>
     <use xlink:href="#m2d48d718e1" x="266.238393" y="182.534814" style="fill: #007bff; stroke: #007bff"/>
     <use xlink:href="#m2d48d718e1" x="271.552048" y="227.757896" style="fill: #007bff; stroke: #007bff"/>
     <use xlink:href="#m2d48d718e1" x="276.865883" y="225.915061" style="fill: #007bff; stroke: #007bff"/>
     <use xlink:href="#m2d48d718e1" x="282.179676" y="219.217493" style="fill: #007bff; stroke: #007bff"/>
     <use xlink:href="#m2d48d718e1" x="287.493419" y="175.225943" style="fill: #007bff; stroke: #007bff"/>
     <use xlink:href="#m2d48d718e1" x="292.807201" y="142.719761" style="fill: #007bff; stroke: #007bff"/>
     <use xlink:href="#m2d48d718e1" x="298.120947" y="152.888819" style="fill: #007bff; stroke: #007bff"/>
     <use xlink:href="#m2d48d718e1" x="303.434714" y="198.732129" style="fill: #007bff; stroke: #007bff"/>
     <use xlink:href="#m2d48d718e1" x="308.748458" y="195.564059" style="fill: #007bff; stroke: #007bff"/>
     <use xlink:href="#m2d48d718e1" x="314.062241" y="185.850132" style="fill: #007bff; stroke: #007bff"/>
     <use xlink:href="#m2d48d718e1" x="319.376071" y="203.118344" style="fill: #007bff; stroke: #007bff"/>
     <use xlink:href="#m2d48d718e1" x="324.689767" y="196.139666" style="fill: #007bff; stroke: #007bff"/>
     <use xlink:href="#m2d48d718e1" x="330.003539" y="201.391523" style="fill: #007bff; stroke: #007bff"/>
     <use xlink:href="#m2d48d718e1" x="335.317287" y="48.190803" style="fill: #007bff; stroke: #007bff"/>
     <use xlink:href="#m2d48d718e1" x="340.631052" y="171.410873" style="fill: #007bff; stroke: #007bff"/>
     <use xlink:href="#m2d48d718e1" x="345.94482" y="228.842179" style="fill: #007bff; stroke: #007bff"/>
     <use xlink:href="#m2d48d718e1" x="351.25857" y="174.155046" style="fill: #007bff; stroke: #007bff"/>
     <use xlink:href="#m2d48d718e1" x="356.572347" y="211.703367" style="fill: #007bff; stroke: #007bff"/>
     <use xlink:href="#m2d48d718e1" x="361.886085" y="214.742037" style="fill: #007bff; stroke: #007bff"/>
     <use xlink:href="#m2d48d718e1" x="521.299331" y="214.742037" style="fill: #007bff; stroke: #007bff"/>
     <use xlink:href="#m2d48d718e1" x="570.891126" y="174.538784" style="fill: #007bff; stroke: #007bff"/>
     <use xlink:href="#m2d48d718e1" x="574.43687" y="237.436126" style="fill: #007bff; stroke: #007bff"/>
     <use xlink:href="#m2d48d718e1" x="579.750632" y="182.093069" style="fill: #007bff; stroke: #007bff"/>
     <use xlink:href="#m2d48d718e1" x="585.064382" y="172.338983" style="fill: #007bff; stroke: #007bff"/>
     <use xlink:href="#m2d48d718e1" x="590.378143" y="197.692466" style="fill: #007bff; stroke: #007bff"/>
     <use xlink:href="#m2d48d718e1" x="595.691939" y="206.487207" style="fill: #007bff; stroke: #007bff"/>
     <use xlink:href="#m2d48d718e1" x="601.005684" y="207.67858" style="fill: #007bff; stroke: #007bff"/>
     <use xlink:href="#m2d48d718e1" x="606.319438" y="189.308236" style="fill: #007bff; stroke: #007bff"/>
     <use xlink:href="#m2d48d718e1" x="611.63319" y="224.098998" style="fill: #007bff; stroke: #007bff"/>
     <use xlink:href="#m2d48d718e1" x="616.94697" y="121.600782" style="fill: #007bff; stroke: #007bff"/>
     <use xlink:href="#m2d48d718e1" x="622.260745" y="180.330551" style="fill: #007bff; stroke: #007bff"/>
     <use xlink:href="#m2d48d718e1" x="627.574508" y="175.645377" style="fill: #007bff; stroke: #007bff"/>
     <use xlink:href="#m2d48d718e1" x="632.888292" y="153.727688" style="fill: #007bff; stroke: #007bff"/>
     <use xlink:href="#m2d48d718e1" x="638.202013" y="162.098532" style="fill: #007bff; stroke: #007bff"/>
     <use xlink:href="#m2d48d718e1" x="643.515793" y="53.790701" style="fill: #007bff; stroke: #007bff"/>
     <use xlink:href="#m2d48d718e1" x="648.82955" y="194.528859" style="fill: #007bff; stroke: #007bff"/>
     <use xlink:href="#m2d48d718e1" x="654.143324" y="118.347933" style="fill: #007bff; stroke: #007bff"/>
    </g>
   </g>
   <g id="line2d_16">
    <path d="M 80.256676 487.387915 
L 85.57043 487.869819 
L 90.884185 488.142005 
L 96.197942 488.04384 
L 101.511718 485.513846 
L 106.825461 486.767688 
L 112.139237 488.030453 
L 117.453009 487.865357 
L 122.766768 488.333874 
L 128.080513 488.806854 
L 133.394298 487.976909 
L 138.708042 487.709184 
L 144.021822 487.240667 
L 149.335592 487.793964 
L 154.649338 487.022026 
L 159.963131 488.235709 
L 165.276841 488.744385 
L 170.590609 488.06615 
L 175.904417 487.713646 
L 181.218175 483.028473 
L 186.531939 487.673488 
L 191.845661 484.237694 
L 197.159444 487.80735 
L 202.47321 487.432536 
L 207.786964 486.25455 
L 213.100735 488.017067 
L 234.355776 487.066646 
L 239.669577 487.503929 
L 244.983317 487.169274 
L 250.297081 488.124157 
L 255.610853 483.059707 
L 260.924612 487.173736 
L 266.238393 485.549542 
L 271.552048 487.575322 
L 276.865883 486.919398 
L 282.179676 487.164812 
L 287.493419 487.084495 
L 292.807201 486.861391 
L 298.120947 486.999715 
L 303.434714 487.142501 
L 308.748458 486.758763 
L 314.062241 485.732487 
L 319.376071 487.352219 
L 324.689767 487.111267 
L 330.003539 487.356681 
L 335.317287 484.447411 
L 340.631052 487.146964 
L 345.94482 488.034916 
L 351.25857 487.151426 
L 356.572347 487.361143 
L 361.886085 486.999715 
L 521.299331 486.999715 
L 570.891126 486.325943 
L 574.43687 487.624405 
L 579.750632 486.910474 
L 585.064382 485.018556 
L 590.378143 486.727529 
L 595.691939 487.316522 
L 601.005684 487.396839 
L 606.319438 487.927826 
L 611.63319 487.490543 
L 616.94697 486.571356 
L 622.260745 487.106805 
L 627.574508 486.856929 
L 632.888292 487.249591 
L 638.202013 480.538638 
L 643.515793 484.777604 
L 648.82955 487.490543 
L 654.143324 486.187618 
" clip-path="url(#p2c921ba4f4)" style="fill: none; stroke: #dc3545; stroke-width: 1.5; stroke-linecap: square"/>
    <defs>
     <path id="m8ac6a8d898" d="M 0 2 
C 0.530406 2 1.03916 1.789267 1.414214 1.414214 
C 1.789267 1.03916 2 0.530406 2 0 
C 2 -0.530406 1.789267 -1.03916 1.414214 -1.414214 
C 1.03916 -1.789267 0.530406 -2 0 -2 
C -0.530406 -2 -1.03916 -1.789267 -1.414214 -1.414214 
C -1.789267 -1.03916 -2 -0.530406 -2 0 
C -2 0.530406 -1.789267 1.03916 -1.414214 1.414214 
C -1.03916 1.789267 -0.530406 2 0 2 
z
" style="stroke: #dc3545"/>
    </defs>
    <g clip-path="url(#p2c921ba4f4)">
     <use xlink:href="#m8ac6a8d898" x="80.256676" y="487.387915" style="fill: #dc3545; stroke: #dc3545"/>
     <use xlink:href="#m8ac6a8d898" x="85.57043" y="487.869819" style="fill: #dc3545; stroke: #dc3545"/>
     <use xlink:href="#m8ac6a8d898" x="90.884185" y="488.142005" style="fill: #dc3545; stroke: #dc3545"/>
     <use xlink:href="#m8ac6a8d898" x="96.197942" y="488.04384" style="fill: #dc3545; stroke: #dc3545"/>
     <use xlink:href="#m8ac6a8d898" x="101.511718" y="485.513846" style="fill: #dc3545; stroke: #dc3545"/>
     <use xlink:href="#m8ac6a8d898" x="106.825461" y="486.767688" style="fill: #dc3545; stroke: #dc3545"/>
     <use xlink:href="#m8ac6a8d898" x="112.139237" y="488.030453" style="fill: #dc3545; stroke: #dc3545"/>
     <use xlink:href="#m8ac6a8d898" x="117.453009" y="487.865357" style="fill: #dc3545; stroke: #dc3545"/>
     <use xlink:href="#m8ac6a8d898" x="122.766768" y="488.333874" style="fill: #dc3545; stroke: #dc3545"/>
     <use xlink:href="#m8ac6a8d898" x="128.080513" y="488.806854" style="fill: #dc3545; stroke: #dc3545"/>
     <use xlink:href="#m8ac6a8d898" x="133.394298" y="487.976909" style="fill: #dc3545; stroke: #dc3545"/>
     <use xlink:href="#m8ac6a8d898" x="138.708042" y="487.709184" style="fill: #dc3545; stroke: #dc3545"/>
     <use xlink:href="#m8ac6a8d898" x="144.021822" y="487.240667" style="fill: #dc3545; stroke: #dc3545"/>
     <use xlink:href="#m8ac6a8d898" x="149.335592" y="487.793964" style="fill: #dc3545; stroke: #dc3545"/>
     <use xlink:href="#m8ac6a8d898" x="154.649338" y="487.022026" style="fill: #dc3545; stroke: #dc3545"/>
     <use xlink:href="#m8ac6a8d898" x="159.963131" y="488.235709" style="fill: #dc3545; stroke: #dc3545"/>
     <use xlink:href="#m8ac6a8d898" x="165.276841" y="488.744385" style="fill: #dc3545; stroke: #dc3545"/>
     <use xlink:href="#m8ac6a8d898" x="170.590609" y="488.06615" style="fill: #dc3545; stroke: #dc3545"/>
     <use xlink:href="#m8ac6a8d898" x="175.904417" y="487.713646" style="fill: #dc3545; stroke: #dc3545"/>
     <use xlink:href="#m8ac6a8d898" x="181.218175" y="483.028473" style="fill: #dc3545; stroke: #dc3545"/>
     <use xlink:href="#m8ac6a8d898" x="186.531939" y="487.673488" style="fill: #dc3545; stroke: #dc3545"/>
     <use xlink:href="#m8ac6a8d898" x="191.845661" y="484.237694" style="fill: #dc3545; stroke: #dc3545"/>
     <use xlink:href="#m8ac6a8d898" x="197.159444" y="487.80735" style="fill: #dc3545; stroke: #dc3545"/>
     <use xlink:href="#m8ac6a8d898" x="202.47321" y="487.432536" style="fill: #dc3545; stroke: #dc3545"/>
     <use xlink:href="#m8ac6a8d898" x="207.786964" y="486.25455" style="fill: #dc3545; stroke: #dc3545"/>
     <use xlink:href="#m8ac6a8d898" x="213.100735" y="488.017067" style="fill: #dc3545; stroke: #dc3545"/>
     <use xlink:href="#m8ac6a8d898" x="234.355776" y="487.066646" style="fill: #dc3545; stroke: #dc3545"/>
     <use xlink:href="#m8ac6a8d898" x="239.669577" y="487.503929" style="fill: #dc3545; stroke: #dc3545"/>
     <use xlink:href="#m8ac6a8d898" x="244.983317" y="487.169274" style="fill: #dc3545; stroke: #dc3545"/>
     <use xlink:href="#m8ac6a8d898" x="250.297081" y="488.124157" style="fill: #dc3545; stroke: #dc3545"/>
     <use xlink:href="#m8ac6a8d898" x="255.610853" y="483.059707" style="fill: #dc3545; stroke: #dc3545"/>
     <use xlink:href="#m8ac6a8d898" x="260.924612" y="487.173736" style="fill: #dc3545; stroke: #dc3545"/>
     <use xlink:href="#m8ac6a8d898" x="266.238393" y="485.549542" style="fill: #dc3545; stroke: #dc3545"/>
     <use xlink:href="#m8ac6a8d898" x="271.552048" y="487.575322" style="fill: #dc3545; stroke: #dc3545"/>
     <use xlink:href="#m8ac6a8d898" x="276.865883" y="486.919398" style="fill: #dc3545; stroke: #dc3545"/>
     <use xlink:href="#m8ac6a8d898" x="282.179676" y="487.164812" style="fill: #dc3545; stroke: #dc3545"/>
     <use xlink:href="#m8ac6a8d898" x="287.493419" y="487.084495" style="fill: #dc3545; stroke: #dc3545"/>
     <use xlink:href="#m8ac6a8d898" x="292.807201" y="486.861391" style="fill: #dc3545; stroke: #dc3545"/>
     <use xlink:href="#m8ac6a8d898" x="298.120947" y="486.999715" style="fill: #dc3545; stroke: #dc3545"/>
     <use xlink:href="#m8ac6a8d898" x="303.434714" y="487.142501" style="fill: #dc3545; stroke: #dc3545"/>
     <use xlink:href="#m8ac6a8d898" x="308.748458" y="486.758763" style="fill: #dc3545; stroke: #dc3545"/>
     <use xlink:href="#m8ac6a8d898" x="314.062241" y="485.732487" style="fill: #dc3545; stroke: #dc3545"/>
     <use xlink:href="#m8ac6a8d898" x="319.376071" y="487.352219" style="fill: #dc3545; stroke: #dc3545"/>
     <use xlink:href="#m8ac6a8d898" x="324.689767" y="487.111267" style="fill: #dc3545; stroke: #dc3545"/>
     <use xlink:href="#m8ac6a8d898" x="330.003539" y="487.356681" style="fill: #dc3545; stroke: #dc3545"/>
     <use xlink:href="#m8ac6a8d898" x="335.317287" y="484.447411" style="fill: #dc3545; stroke: #dc3545"/>
     <use xlink:href="#m8ac6a8d898" x="340.631052" y="487.146964" style="fill: #dc3545; stroke: #dc3545"/>
     <use xlink:href="#m8ac6a8d898" x="345.94482" y="488.034916" style="fill: #dc3545; stroke: #dc3545"/>
     <use xlink:href="#m8ac6a8d898" x="351.25857" y="487.151426" style="fill: #dc3545; stroke: #dc3545"/>
     <use xlink:href="#m8ac6a8d898" x="356.572347" y="487.361143" style="fill: #dc3545; stroke: #dc3545"/>
     <use xlink:href="#m8ac6a8d898" x="361.886085" y="486.999715" style="fill: #dc3545; stroke: #dc3545"/>
     <use xlink:href="#m8ac6a8d898" x="521.299331" y="486.999715" style="fill: #dc3545; stroke: #dc3545"/>
     <use xlink:href="#m8ac6a8d898" x="570.891126" y="486.325943" style="fill: #dc3545; stroke: #dc3545"/>
     <use xlink:href="#m8ac6a8d898" x="574.43687" y="487.624405" style="fill: #dc3545; stroke: #dc3545"/>
     <use xlink:href="#m8ac6a8d898" x="579.750632" y="486.910474" style="fill: #dc3545; stroke: #dc3545"/>
     <use xlink:href="#m8ac6a8d898" x="585.064382" y="485.018556" style="fill: #dc3545; stroke: #dc3545"/>
     <use xlink:href="#m8ac6a8d898" x="590.378143" y="486.727529" style="fill: #dc3545; stroke: #dc3545"/>
     <use xlink:href="#m8ac6a8d898" x="595.691939" y="487.316522" style="fill: #dc3545; stroke: #dc3545"/>
     <use xlink:href="#m8ac6a8d898" x="601.005684" y="487.396839" style="fill: #dc3545; stroke: #dc3545"/>
     <use xlink:href="#m8ac6a8d898" x="606.319438" y="487.927826" style="fill: #dc3545; stroke: #dc3545"/>
     <use xlink:href="#m8ac6a8d898" x="611.63319" y="487.490543" style="fill: #dc3545; stroke: #dc3545"/>
     <use xlink:href="#m8ac6a8d898" x="616.94697" y="486.571356" style="fill: #dc3545; stroke: #dc3545"/>
     <use xlink:href="#m8ac6a8d898" x="622.260745" y="487.106805" style="fill: #dc3545; stroke: #dc3545"/>
     <use xlink:href="#m8ac6a8d898" x="627.574508" y="486.856929" style="fill: #dc3545; stroke: #dc3545"/>
     <use xlink:href="#m8ac6a8d898" x="632.888292" y="487.249591" style="fill: #dc3545; stroke: #dc3545"/>
     <use xlink:href="#m8ac6a8d898" x="638.202013" y="480.538638" style="fill: #dc3545; stroke: #dc3545"/>
     <use xlink:href="#m8ac6a8d898" x="643.515793" y="484.777604" style="fill: #dc3545; stroke: #dc3545"/>
     <use xlink:href="#m8ac6a8d898" x="648.82955" y="487.490543" style="fill: #dc3545; stroke: #dc3545"/>
     <use xlink:href="#m8ac6a8d898" x="654.143324" y="486.187618" style="fill: #dc3545; stroke: #dc3545"/>
    </g>
   </g>
   <g id="patch_3">
    <path d="M 51.562344 510.837656 
L 51.562344 26.16 
" style="fill: none; stroke: #212529; stroke-width: 0.8; stroke-linejoin: miter; stroke-linecap: square"/>
   </g>
   <g id="patch_4">
    <path d="M 51.562344 510.837656 
L 682.837656 510.837656 
" style="fill: none; stroke: #212529; stroke-width: 0.8; stroke-linejoin: miter; stroke-linecap: square"/>
   </g>
   <g id="patch_5">
    <path d="M 51.562344 26.16 
L 682.837656 26.16 
" style="fill: none; stroke: #212529; stroke-width: 0.8; stroke-linejoin: miter; stroke-linecap: square"/>
   </g>
   <g id="legend_1">
    <g id="patch_6">
     <path d="M 57.393344 70.310952 
L 131.246603 70.310952 
Q 132.912603 70.310952 132.912603 68.644952 
L 132.912603 31.991 
Q 132.912603 30.325 131.246603 30.325 
L 57.393344 30.325 
Q 55.727344 30.325 55.727344 31.991 
L 55.727344 68.644952 
Q 55.727344 70.310952 57.393344 70.310952 
L 57.393344 70.310952 
z
" style="fill: none; opacity: 0.8; stroke: #212529; stroke-linejoin: miter"/>
    </g>
    <g id="line2d_17">
     <path d="M 59.059344 37.070998 
L 67.389344 37.070998 
L 75.719344 37.070998 
" style="fill: none; stroke: #007bff; stroke-width: 1.5; stroke-linecap: square"/>
     <g>
      <use xlink:href="#m2d48d718e1" x="67.389344" y="37.070998" style="fill: #007bff; stroke: #007bff"/>
     </g>
    </g>
    <g id="text_10">
     <text style="font-size: 8.33px; font-family: 'DejaVu Sans', 'Bitstream Vera Sans', 'Computer Modern Sans Serif', 'Lucida Grande', 'Verdana', 'Geneva', 'Lucid', 'Arial', 'Helvetica', 'Avant Garde', sans-serif; text-anchor: start; fill: #212529" x="82.383344" y="39.986498" transform="rotate(-0 82.383344 39.986498)">Cold Start</text>
    </g>
    <g id="line2d_18">
     <path d="M 59.059344 49.566649 
L 67.389344 49.566649 
L 75.719344 49.566649 
" style="fill: none; stroke: #dc3545; stroke-width: 1.5; stroke-linecap: square"/>
     <g>
      <use xlink:href="#m8ac6a8d898" x="67.389344" y="49.566649" style="fill: #dc3545; stroke: #dc3545"/>
     </g>
    </g>
    <g id="text_11">
     <text style="font-size: 8.33px; font-family: 'DejaVu Sans', 'Bitstream Vera Sans', 'Computer Modern Sans Serif', 'Lucida Grande', 'Verdana', 'Geneva', 'Lucid', 'Arial', 'Helvetica', 'Avant Garde', sans-serif; text-anchor: start; fill: #212529" x="82.383344" y="52.482149" transform="rotate(-0 82.383344 52.482149)">Warm Start</text>
    </g>
    <g id="line2d_19">
     <path d="M 59.059344 62.0623 
L 67.389344 62.0623 
L 75.719344 62.0623 
" style="fill: none; stroke-dasharray: 5.55,2.4; stroke-dashoffset: 0; stroke: #ff7f0e; stroke-width: 1.5"/>
    </g>
    <g id="text_12">
     <text style="font-size: 8.33px; font-family: 'DejaVu Sans', 'Bitstream Vera Sans', 'Computer Modern Sans Serif', 'Lucida Grande', 'Verdana', 'Geneva', 'Lucid', 'Arial', 'Helvetica', 'Avant Garde', sans-serif; text-anchor: start; fill: #212529" x="82.383344" y="64.9778" transform="rotate(-0 82.383344 64.9778)">Memory</text>
    </g>
   </g>
  </g>
  <g id="axes_2">
   <g id="matplotlib.axis_3">
    <g id="ytick_7">
     <g id="line2d_20">
      <defs>
       <path id="m168235c969" d="M 0 0 
L 3.5 0 
" style="stroke: #212529; stroke-width: 0.8"/>
      </defs>
      <g>
       <use xlink:href="#m168235c969" x="682.837656" y="488.806854" style="fill: #212529; stroke: #212529; stroke-width: 0.8"/>
      </g>
     </g>
     <g id="text_13">
      <text style="font-size: 10px; font-family: 'DejaVu Sans', 'Bitstream Vera Sans', 'Computer Modern Sans Serif', 'Lucida Grande', 'Verdana', 'Geneva', 'Lucid', 'Arial', 'Helvetica', 'Avant Garde', sans-serif; text-anchor: start; fill: #ff7f0e" x="689.837656" y="492.605682" transform="rotate(-0 689.837656 492.605682)">24.0</text>
     </g>
    </g>
    <g id="ytick_8">
     <g id="line2d_21">
      <g>
       <use xlink:href="#m168235c969" x="682.837656" y="400.683643" style="fill: #212529; stroke: #212529; stroke-width: 0.8"/>
      </g>
     </g>
     <g id="text_14">
      <text style="font-size: 10px; font-family: 'DejaVu Sans', 'Bitstream Vera Sans', 'Computer Modern Sans Serif', 'Lucida Grande', 'Verdana', 'Geneva', 'Lucid', 'Arial', 'Helvetica', 'Avant Garde', sans-serif; text-anchor: start; fill: #ff7f0e" x="689.837656" y="404.482472" transform="rotate(-0 689.837656 404.482472)">24.1</text>
     </g>
    </g>
    <g id="ytick_9">
     <g id="line2d_22">
      <g>
       <use xlink:href="#m168235c969" x="682.837656" y="312.560433" style="fill: #212529; stroke: #212529; stroke-width: 0.8"/>
      </g>
     </g>
     <g id="text_15">
      <text style="font-size: 10px; font-family: 'DejaVu Sans', 'Bitstream Vera Sans', 'Computer Modern Sans Serif', 'Lucida Grande', 'Verdana', 'Geneva', 'Lucid', 'Arial', 'Helvetica', 'Avant Garde', sans-serif; text-anchor: start; fill: #ff7f0e" x="689.837656" y="316.359261" transform="rotate(-0 689.837656 316.359261)">24.2</text>
     </g>
    </g>
    <g id="ytick_10">
     <g id="line2d_23">
      <g>
       <use xlink:href="#m168235c969" x="682.837656" y="224.437223" style="fill: #212529; stroke: #212529; stroke-width: 0.8"/>
      </g>
     </g>
     <g id="text_16">
      <text style="font-size: 10px; font-family: 'DejaVu Sans', 'Bitstream Vera Sans', 'Computer Modern Sans Serif', 'Lucida Grande', 'Verdana', 'Geneva', 'Lucid', 'Arial', 'Helvetica', 'Avant Garde', sans-serif; text-anchor: start; fill: #ff7f0e" x="689.837656" y="228.236051" transform="rotate(-0 689.837656 228.236051)">24.3</text>
     </g>
    </g>
    <g id="ytick_11">
     <g id="line2d_24">
      <g>
       <use xlink:href="#m168235c969" x="682.837656" y="136.314013" style="fill: #212529; stroke: #212529; stroke-width: 0.8"/>
      </g>
     </g>
     <g id="text_17">
      <text style="font-size: 10px; font-family: 'DejaVu Sans', 'Bitstream Vera Sans', 'Computer Modern Sans Serif', 'Lucida Grande', 'Verdana', 'Geneva', 'Lucid', 'Arial', 'Helvetica', 'Avant Garde', sans-serif; text-anchor: start; fill: #ff7f0e" x="689.837656" y="140.112841" transform="rotate(-0 689.837656 140.112841)">24.4</text>
     </g>
    </g>
    <g id="ytick_12">
     <g id="line2d_25">
      <g>
       <use xlink:href="#m168235c969" x="682.837656" y="48.190803" style="fill: #212529; stroke: #212529; stroke-width: 0.8"/>
      </g>
     </g>
     <g id="text_18">
      <text style="font-size: 10px; font-family: 'DejaVu Sans', 'Bitstream Vera Sans', 'Computer Modern Sans Serif', 'Lucida Grande', 'Verdana', 'Geneva', 'Lucid', 'Arial', 'Helvetica', 'Avant Garde', sans-serif; text-anchor: start; fill: #ff7f0e" x="689.837656" y="51.989631" transform="rotate(-0 689.837656 51.989631)">24.5</text>
     </g>
    </g>
    <g id="text_19">
     <text style="font-size: 10px; font-family: 'DejaVu Sans', 'Bitstream Vera Sans', 'Computer Modern Sans Serif', 'Lucida Grande', 'Verdana', 'Geneva', 'Lucid', 'Arial', 'Helvetica', 'Avant Garde', sans-serif; text-anchor: middle; fill: #ff7f0e" x="723.701719" y="268.498828" transform="rotate(-90 723.701719 268.498828)">Memory Usage [MB]</text>
    </g>
   </g>
   <g id="line2d_26">
    <path d="M 80.256676 136.314013 
L 85.57043 400.683643 
L 90.884185 136.314013 
L 96.197942 136.314013 
L 101.511718 224.437223 
L 106.825461 400.683643 
L 112.139237 488.806854 
L 117.453009 400.683643 
L 122.766768 488.806854 
L 128.080513 488.806854 
L 133.394298 488.806854 
L 138.708042 488.806854 
L 144.021822 488.806854 
L 149.335592 488.806854 
L 154.649338 400.683643 
L 159.963131 488.806854 
L 165.276841 400.683643 
L 170.590609 400.683643 
L 175.904417 488.806854 
L 181.218175 400.683643 
L 186.531939 488.806854 
L 191.845661 400.683643 
L 197.159444 312.560433 
L 202.47321 312.560433 
L 207.786964 488.806854 
L 213.100735 224.437223 
L 234.355776 312.560433 
L 239.669577 400.683643 
L 244.983317 400.683643 
L 250.297081 312.560433 
L 255.610853 312.560433 
L 260.924612 400.683643 
L 266.238393 224.437223 
L 271.552048 400.683643 
L 276.865883 312.560433 
L 282.179676 400.683643 
L 287.493419 400.683643 
L 292.807201 224.437223 
L 298.120947 48.190803 
L 303.434714 224.437223 
L 308.748458 224.437223 
L 314.062241 224.437223 
L 319.376071 136.314013 
L 324.689767 224.437223 
L 330.003539 48.190803 
L 335.317287 312.560433 
L 340.631052 224.437223 
L 345.94482 400.683643 
L 351.25857 312.560433 
L 356.572347 224.437223 
L 361.886085 400.683643 
L 521.299331 400.683643 
L 570.891126 488.806854 
L 574.43687 488.806854 
L 579.750632 488.806854 
L 585.064382 488.806854 
L 590.378143 400.683643 
L 595.691939 488.806854 
L 601.005684 488.806854 
L 606.319438 488.806854 
L 611.63319 400.683643 
L 616.94697 488.806854 
L 622.260745 488.806854 
L 627.574508 488.806854 
L 632.888292 488.806854 
L 638.202013 488.806854 
L 643.515793 488.806854 
L 648.82955 488.806854 
L 654.143324 488.806854 
" clip-path="url(#p2c921ba4f4)" style="fill: none; stroke-dasharray: 5.55,2.4; stroke-dashoffset: 0; stroke: #ff7f0e; stroke-width: 1.5"/>
   </g>
   <g id="patch_7">
    <path d="M 682.837656 510.837656 
L 682.837656 26.16 
" style="fill: none; stroke: #ff7f0e; stroke-width: 0.8; stroke-linejoin: miter; stroke-linecap: square"/>
   </g>
   <g id="text_20">
    <text style="font-size: 12px; font-family: 'DejaVu Sans', 'Bitstream Vera Sans', 'Computer Modern Sans Serif', 'Lucida Grande', 'Verdana', 'Geneva', 'Lucid', 'Arial', 'Helvetica', 'Avant Garde', sans-serif; text-anchor: middle; fill: #212529" x="367.2" y="20.16" transform="rotate(-0 367.2 20.16)">dotnet10_aot_on_provided_al2023 (x86_64, image, 512MB, us-east-1)</text>
   </g>
  </g>
 </g>
 <defs>
  <clipPath id="p2c921ba4f4">
   <rect x="51.562344" y="26.16" width="631.275313" height="484.677656"/>
  </clipPath>
 </defs>
</svg>
