<?xml version="1.0" encoding="utf-8" standalone="no"?>
<!DOCTYPE svg PUBLIC "-//W3C//DTD SVG 1.1//EN"
  "http://www.w3.org/Graphics/SVG/1.1/DTD/svg11.dtd">
<svg xmlns:xlink="http://www.w3.org/1999/xlink" width="216pt" height="122.4pt" viewBox="0 0 216 122.4" xmlns="http://www.w3.org/2000/svg" version="1.1">
  <style>
    :root {
      --fg-color: #212529;
      --grid-color: rgba(33, 37, 41, 0.1);
    }
    @media (prefers-color-scheme: dark) {
      :root {
        --fg-color: #dee2e6;
        --grid-color: rgba(248, 249, 250, 0.15);
      }
    }
  </style>

 <metadata>
  <rdf:RDF xmlns:dc="http://purl.org/dc/elements/1.1/" xmlns:cc="http://creativecommons.org/ns#" xmlns:rdf="http://www.w3.org/1999/02/22-rdf-syntax-ns#">
   <cc:Work>
    <dc:type rdf:resource="http://purl.org/dc/dcmitype/StillImage"/>
    <dc:date>2026-06-30T15:37:23.653000</dc:date>
    <dc:format>image/svg+xml</dc:format>
    <dc:creator>
     <cc:Agent>
      <dc:title>Matplotlib v3.11.0, https://matplotlib.org/</dc:title>
     </cc:Agent>
    </dc:creator>
   </cc:Work>
  </rdf:RDF>
 </metadata>
 <defs>
  <style type="text/css">*{stroke-linejoin: round; stroke-linecap: butt}</style>
 </defs>
 <g id="figure_1">
  <g id="patch_1">
   <path d="M 0 122.4 
L 216 122.4 
L 216 0 
L 0 0 
L 0 122.4 
z
" style="fill: none; opacity: 0"/>
  </g>
  <g id="axes_1">
   <g id="patch_2">
    <path d="M 35.96 103.4 
L 211 103.4 
L 211 5 
L 35.96 5 
L 35.96 103.4 
z
" style="fill: none; opacity: 0"/>
   </g>
   <g id="matplotlib.axis_1">
    <g id="xtick_1">
     <g id="line2d_1">
      <path d="M 69.784035 103.4 
L 69.784035 5 
" clip-path="url(#p2880a79d19)" style="fill: none; stroke-dasharray: 2.96,1.28; stroke-dashoffset: 0; stroke: var(--grid-color); stroke-width: 0.8"/>
     </g>
     <g id="line2d_2">
      <defs>
       <path id="m4f242b2209" d="M 0 0 
L 0 3.5 
" style="stroke: var(--fg-color); stroke-width: 0.8"/>
      </defs>
      <g>
       <use xlink:href="#m4f242b2209" x="69.784035" y="103.4" style="fill: var(--fg-color); stroke: var(--fg-color); stroke-width: 0.8"/>
      </g>
     </g>
     <g id="text_1">
      <text style="font-size: 7px; font-family: 'DejaVu Sans', 'Bitstream Vera Sans', 'Computer Modern Sans Serif', 'Lucida Grande', 'Verdana', 'Geneva', 'Lucid', 'Arial', 'Helvetica', 'Avant Garde', sans-serif; text-anchor: middle; fill: var(--fg-color)" x="69.784035" y="115.718359" transform="rotate(-0 69.784035 115.718359)">02/2026</text>
     </g>
    </g>
    <g id="xtick_2">
     <g id="line2d_3">
      <path d="M 122.345302 103.4 
L 122.345302 5 
" clip-path="url(#p2880a79d19)" style="fill: none; stroke-dasharray: 2.96,1.28; stroke-dashoffset: 0; stroke: var(--grid-color); stroke-width: 0.8"/>
     </g>
     <g id="line2d_4">
      <g>
       <use xlink:href="#m4f242b2209" x="122.345302" y="103.4" style="fill: var(--fg-color); stroke: var(--fg-color); stroke-width: 0.8"/>
      </g>
     </g>
     <g id="text_2">
      <text style="font-size: 7px; font-family: 'DejaVu Sans', 'Bitstream Vera Sans', 'Computer Modern Sans Serif', 'Lucida Grande', 'Verdana', 'Geneva', 'Lucid', 'Arial', 'Helvetica', 'Avant Garde', sans-serif; text-anchor: middle; fill: var(--fg-color)" x="122.345302" y="115.718359" transform="rotate(-0 122.345302 115.718359)">04/2026</text>
     </g>
    </g>
    <g id="xtick_3">
     <g id="line2d_5">
      <path d="M 176.688307 103.4 
L 176.688307 5 
" clip-path="url(#p2880a79d19)" style="fill: none; stroke-dasharray: 2.96,1.28; stroke-dashoffset: 0; stroke: var(--grid-color); stroke-width: 0.8"/>
     </g>
     <g id="line2d_6">
      <g>
       <use xlink:href="#m4f242b2209" x="176.688307" y="103.4" style="fill: var(--fg-color); stroke: var(--fg-color); stroke-width: 0.8"/>
      </g>
     </g>
     <g id="text_3">
      <text style="font-size: 7px; font-family: 'DejaVu Sans', 'Bitstream Vera Sans', 'Computer Modern Sans Serif', 'Lucida Grande', 'Verdana', 'Geneva', 'Lucid', 'Arial', 'Helvetica', 'Avant Garde', sans-serif; text-anchor: middle; fill: var(--fg-color)" x="176.688307" y="115.718359" transform="rotate(-0 176.688307 115.718359)">06/2026</text>
     </g>
    </g>
   </g>
   <g id="matplotlib.axis_2">
    <g id="ytick_1">
     <g id="line2d_7">
      <path d="M 35.96 99.723431 
L 211 99.723431 
" clip-path="url(#p2880a79d19)" style="fill: none; stroke-dasharray: 2.96,1.28; stroke-dashoffset: 0; stroke: var(--grid-color); stroke-width: 0.8"/>
     </g>
     <g id="line2d_8">
      <defs>
       <path id="m595a684f5b" d="M 0 0 
L -3.5 0 
" style="stroke: var(--fg-color); stroke-width: 0.8"/>
      </defs>
      <g>
       <use xlink:href="#m595a684f5b" x="35.96" y="99.723431" style="fill: var(--fg-color); stroke: var(--fg-color); stroke-width: 0.8"/>
      </g>
     </g>
     <g id="text_4">
      <text style="font-size: 7px; font-family: 'DejaVu Sans', 'Bitstream Vera Sans', 'Computer Modern Sans Serif', 'Lucida Grande', 'Verdana', 'Geneva', 'Lucid', 'Arial', 'Helvetica', 'Avant Garde', sans-serif; text-anchor: end; fill: var(--fg-color)" x="28.96" y="102.382611" transform="rotate(-0 28.96 102.382611)">0</text>
     </g>
    </g>
    <g id="ytick_2">
     <g id="line2d_9">
      <path d="M 35.96 77.982351 
L 211 77.982351 
" clip-path="url(#p2880a79d19)" style="fill: none; stroke-dasharray: 2.96,1.28; stroke-dashoffset: 0; stroke: var(--grid-color); stroke-width: 0.8"/>
     </g>
     <g id="line2d_10">
      <g>
       <use xlink:href="#m595a684f5b" x="35.96" y="77.982351" style="fill: var(--fg-color); stroke: var(--fg-color); stroke-width: 0.8"/>
      </g>
     </g>
     <g id="text_5">
      <text style="font-size: 7px; font-family: 'DejaVu Sans', 'Bitstream Vera Sans', 'Computer Modern Sans Serif', 'Lucida Grande', 'Verdana', 'Geneva', 'Lucid', 'Arial', 'Helvetica', 'Avant Garde', sans-serif; text-anchor: end; fill: var(--fg-color)" x="28.96" y="80.64153" transform="rotate(-0 28.96 80.64153)">100</text>
     </g>
    </g>
    <g id="ytick_3">
     <g id="line2d_11">
      <path d="M 35.96 56.24127 
L 211 56.24127 
" clip-path="url(#p2880a79d19)" style="fill: none; stroke-dasharray: 2.96,1.28; stroke-dashoffset: 0; stroke: var(--grid-color); stroke-width: 0.8"/>
     </g>
     <g id="line2d_12">
      <g>
       <use xlink:href="#m595a684f5b" x="35.96" y="56.24127" style="fill: var(--fg-color); stroke: var(--fg-color); stroke-width: 0.8"/>
      </g>
     </g>
     <g id="text_6">
      <text style="font-size: 7px; font-family: 'DejaVu Sans', 'Bitstream Vera Sans', 'Computer Modern Sans Serif', 'Lucida Grande', 'Verdana', 'Geneva', 'Lucid', 'Arial', 'Helvetica', 'Avant Garde', sans-serif; text-anchor: end; fill: var(--fg-color)" x="28.96" y="58.90045" transform="rotate(-0 28.96 58.90045)">200</text>
     </g>
    </g>
    <g id="ytick_4">
     <g id="line2d_13">
      <path d="M 35.96 34.50019 
L 211 34.50019 
" clip-path="url(#p2880a79d19)" style="fill: none; stroke-dasharray: 2.96,1.28; stroke-dashoffset: 0; stroke: var(--grid-color); stroke-width: 0.8"/>
     </g>
     <g id="line2d_14">
      <g>
       <use xlink:href="#m595a684f5b" x="35.96" y="34.50019" style="fill: var(--fg-color); stroke: var(--fg-color); stroke-width: 0.8"/>
      </g>
     </g>
     <g id="text_7">
      <text style="font-size: 7px; font-family: 'DejaVu Sans', 'Bitstream Vera Sans', 'Computer Modern Sans Serif', 'Lucida Grande', 'Verdana', 'Geneva', 'Lucid', 'Arial', 'Helvetica', 'Avant Garde', sans-serif; text-anchor: end; fill: var(--fg-color)" x="28.96" y="37.159369" transform="rotate(-0 28.96 37.159369)">300</text>
     </g>
    </g>
    <g id="ytick_5">
     <g id="line2d_15">
      <path d="M 35.96 12.759109 
L 211 12.759109 
" clip-path="url(#p2880a79d19)" style="fill: none; stroke-dasharray: 2.96,1.28; stroke-dashoffset: 0; stroke: var(--grid-color); stroke-width: 0.8"/>
     </g>
     <g id="line2d_16">
      <g>
       <use xlink:href="#m595a684f5b" x="35.96" y="12.759109" style="fill: var(--fg-color); stroke: var(--fg-color); stroke-width: 0.8"/>
      </g>
     </g>
     <g id="text_8">
      <text style="font-size: 7px; font-family: 'DejaVu Sans', 'Bitstream Vera Sans', 'Computer Modern Sans Serif', 'Lucida Grande', 'Verdana', 'Geneva', 'Lucid', 'Arial', 'Helvetica', 'Avant Garde', sans-serif; text-anchor: end; fill: var(--fg-color)" x="28.96" y="15.418289" transform="rotate(-0 28.96 15.418289)">400</text>
     </g>
    </g>
    <g id="text_9">
     <text style="font-size: 7px; font-family: 'DejaVu Sans', 'Bitstream Vera Sans', 'Computer Modern Sans Serif', 'Lucida Grande', 'Verdana', 'Geneva', 'Lucid', 'Arial', 'Helvetica', 'Avant Garde', sans-serif; text-anchor: middle; fill: var(--fg-color)" x="9.917109" y="54.2" transform="rotate(-90 9.917109 54.2)">ms</text>
    </g>
   </g>
   <g id="line2d_17">
    <path d="M 43.916364 39.592603 
L 44.468628 26.288583 
L 45.3595 27.733496 
L 47.141245 35.501366 
L 48.032112 37.542854 
L 48.922979 36.703865 
L 49.81384 30.230241 
L 50.704717 31.621236 
L 51.595589 37.967674 
L 52.486458 30.00196 
L 53.377327 25.195224 
L 54.268192 33.095933 
L 55.159063 31.533402 
L 56.049934 31.170978 
L 56.940797 27.788283 
L 57.831669 36.577985 
L 58.722538 38.933196 
L 59.613407 31.613626 
L 60.504275 32.521316 
L 61.395144 35.568546 
L 62.286016 41.038602 
L 63.176879 28.377466 
L 64.067746 34.100371 
L 64.958622 37.523504 
L 65.84949 34.326696 
L 66.740361 27.817416 
L 67.631226 34.439967 
L 68.522078 29.908908 
L 69.412965 32.214985 
L 70.30383 34.014059 
L 71.194705 29.352119 
L 72.085571 33.308343 
L 72.976442 32.066276 
L 73.867306 36.269044 
L 75.649039 30.23872 
L 76.539914 31.417739 
L 77.430784 22.619124 
L 78.321655 35.512889 
L 79.212509 23.401151 
L 80.103391 33.406613 
L 80.994245 32.778513 
L 81.885129 35.15177 
L 82.775998 33.699248 
L 83.666869 27.858942 
L 84.557735 29.475608 
L 85.44861 32.262815 
L 94.53997 33.100934 
L 95.248438 34.863048 
L 96.139324 29.682583 
L 97.030192 31.96518 
L 97.921065 29.863034 
L 99.702798 37.490023 
L 101.484533 33.620545 
L 102.375401 35.450927 
L 103.266272 33.319649 
L 104.157138 39.825885 
L 105.048009 33.283776 
L 105.93888 29.930214 
L 106.829748 33.137676 
L 107.720614 37.133687 
L 108.611487 31.669283 
L 109.502352 29.863687 
L 110.393224 32.835692 
L 111.284094 25.33915 
L 112.17496 35.37592 
L 113.065834 31.662544 
L 113.956695 32.291948 
L 114.847564 33.405309 
L 115.738441 25.296103 
L 116.629309 28.453343 
L 117.520178 27.608702 
L 118.41104 27.461297 
L 119.301913 29.913474 
L 120.192782 32.866347 
L 121.083649 30.736591 
L 121.97452 29.776288 
L 125.537994 29.538005 
L 126.428869 33.253991 
L 127.319734 27.586309 
L 128.210603 28.265282 
L 129.101474 37.176082 
L 129.992342 26.677314 
L 130.883214 28.348986 
L 131.774065 29.510394 
L 132.664946 23.01916 
L 133.55582 34.855221 
L 134.446686 31.086622 
L 135.337558 32.012793 
L 136.228424 30.484177 
L 137.119294 27.961994 
L 138.010159 29.683453 
L 138.901032 26.43164 
L 139.791912 19.980409 
L 140.68277 28.93556 
L 141.57364 30.364601 
L 142.464507 29.88608 
L 143.355376 29.641928 
L 144.246246 28.385945 
L 145.137113 22.039941 
L 146.027984 17.426049 
L 146.918849 9.472727 
L 173.644977 9.472727 
L 182.553652 31.485354 
L 183.444521 30.488091 
L 184.335387 29.962174 
L 185.226256 30.143494 
L 186.117131 39.849148 
L 187.007996 34.47497 
L 187.898864 33.101803 
L 188.789731 33.744687 
L 189.680603 35.864442 
L 190.571474 30.808337 
L 191.462343 29.455172 
L 192.353215 35.580069 
L 193.244077 27.876335 
L 194.134949 37.717652 
L 195.025817 33.331824 
L 195.916688 34.714339 
L 196.807557 28.992087 
L 197.698426 29.098183 
L 198.589295 28.118313 
L 199.480162 37.091074 
L 200.371032 35.090677 
L 201.261898 18.628114 
L 202.152766 30.63593 
L 203.043636 32.537187 
L 203.043636 32.537187 
" clip-path="url(#p2880a79d19)" style="fill: none; stroke: #339af0; stroke-width: 1.2; stroke-linecap: square"/>
   </g>
   <g id="line2d_18">
    <path d="M 43.916364 97.726513 
L 44.468628 98.552674 
L 45.3595 98.100242 
L 46.250371 98.527237 
L 48.032112 98.726603 
L 48.922979 97.585413 
L 50.704717 98.221557 
L 51.595589 98.927273 
L 52.486458 98.006103 
L 53.377327 98.705514 
L 54.268192 97.905659 
L 55.159063 98.404182 
L 56.049934 98.120244 
L 56.940797 98.851396 
L 57.831669 98.381354 
L 58.722538 97.234295 
L 60.504275 98.628985 
L 61.395144 97.865438 
L 62.286016 98.827699 
L 63.176879 98.363961 
L 64.958622 97.840219 
L 65.84949 98.28178 
L 66.740361 97.917182 
L 67.631226 98.14155 
L 68.522078 98.006973 
L 69.412965 98.726603 
L 70.30383 98.686816 
L 71.194705 98.760519 
L 72.085571 98.334176 
L 72.976442 98.593547 
L 73.867306 98.155899 
L 74.758184 98.323088 
L 75.649039 98.189815 
L 76.539914 98.696817 
L 77.430784 98.281997 
L 78.321655 97.999798 
L 79.212509 97.871743 
L 80.103391 98.62355 
L 80.994245 98.709645 
L 81.885129 97.255384 
L 82.775998 98.488973 
L 83.666869 98.45223 
L 84.557735 98.630724 
L 85.44861 98.375484 
L 94.53997 97.743471 
L 95.248438 98.655509 
L 96.139324 98.368962 
L 97.030192 98.383963 
L 97.921065 98.713993 
L 98.811931 98.510714 
L 100.593666 98.472884 
L 101.484533 98.128505 
L 102.375401 98.825524 
L 103.266272 98.157421 
L 105.048009 98.377223 
L 105.93888 98.593765 
L 106.829748 97.744993 
L 107.720614 98.331567 
L 108.611487 98.711601 
L 109.502352 97.754559 
L 110.393224 98.518975 
L 111.284094 97.079281 
L 112.17496 98.151334 
L 113.065834 98.304391 
L 113.956695 98.576589 
L 114.847564 98.318957 
L 116.629309 98.205251 
L 117.520178 97.345392 
L 118.41104 98.120244 
L 119.301913 97.886745 
L 120.192782 98.486364 
L 121.083649 98.766389 
L 121.97452 97.368437 
L 125.537994 97.321694 
L 127.319734 98.416575 
L 128.210603 97.761299 
L 129.101474 98.040671 
L 129.992342 98.474841 
L 130.883214 98.193729 
L 132.664946 98.307217 
L 133.55582 98.356787 
L 134.446686 98.795522 
L 135.337558 97.977405 
L 136.228424 97.934358 
L 137.119294 98.731168 
L 138.010159 97.958925 
L 138.901032 98.491581 
L 139.791912 98.109591 
L 140.68277 97.900224 
L 141.57364 98.635942 
L 142.464507 97.974144 
L 143.355376 98.116113 
L 144.246246 98.098068 
L 145.137113 97.84435 
L 146.027984 98.038715 
L 146.918849 97.940228 
L 173.644977 97.940228 
L 181.959197 98.118939 
L 182.553652 97.691075 
L 183.444521 98.417227 
L 184.335387 98.630072 
L 186.117131 98.426793 
L 187.898864 97.661942 
L 188.789731 98.095459 
L 189.680603 98.009364 
L 190.571474 98.390703 
L 191.462343 98.327871 
L 192.353215 98.131332 
L 193.244077 98.314609 
L 194.134949 98.662466 
L 195.025817 98.631377 
L 195.916688 98.129158 
L 196.807557 98.722472 
L 197.698426 97.490187 
L 198.589295 98.202208 
L 199.480162 97.979144 
L 200.371032 97.924357 
L 202.152766 98.27678 
L 203.043636 97.567151 
L 203.043636 97.567151 
" clip-path="url(#p2880a79d19)" style="fill: none; stroke: #ff6b6b; stroke-width: 1.2; stroke-linecap: square"/>
   </g>
   <g id="patch_3">
    <path d="M 35.96 103.4 
L 35.96 5 
" style="fill: none; stroke: var(--fg-color); stroke-width: 0.8; stroke-linejoin: miter; stroke-linecap: square"/>
   </g>
   <g id="patch_4">
    <path d="M 35.96 103.4 
L 211 103.4 
" style="fill: none; stroke: var(--fg-color); stroke-width: 0.8; stroke-linejoin: miter; stroke-linecap: square"/>
   </g>
  </g>
 </g>
 <defs>
  <clipPath id="p2880a79d19">
   <rect x="35.96" y="5" width="175.04" height="98.4"/>
  </clipPath>
 </defs>
</svg>
