<?xml version="1.0" encoding="utf-8" standalone="no"?>
<!DOCTYPE svg PUBLIC "-//W3C//DTD SVG 1.1//EN"
  "http://www.w3.org/Graphics/SVG/1.1/DTD/svg11.dtd">
<svg xmlns:xlink="http://www.w3.org/1999/xlink" width="216pt" height="122.4pt" viewBox="0 0 216 122.4" xmlns="http://www.w3.org/2000/svg" version="1.1">
  <style>
    :root {
      --fg-color: #212529;
      --grid-color: rgba(33, 37, 41, 0.1);
    }
    @media (prefers-color-scheme: dark) {
      :root {
        --fg-color: #dee2e6;
        --grid-color: rgba(248, 249, 250, 0.15);
      }
    }
  </style>

 <metadata>
  <rdf:RDF xmlns:dc="http://purl.org/dc/elements/1.1/" xmlns:cc="http://creativecommons.org/ns#" xmlns:rdf="http://www.w3.org/1999/02/22-rdf-syntax-ns#">
   <cc:Work>
    <dc:type rdf:resource="http://purl.org/dc/dcmitype/StillImage"/>
    <dc:date>2026-06-30T04:48:33.754539</dc:date>
    <dc:format>image/svg+xml</dc:format>
    <dc:creator>
     <cc:Agent>
      <dc:title>Matplotlib v3.11.0, https://matplotlib.org/</dc:title>
     </cc:Agent>
    </dc:creator>
   </cc:Work>
  </rdf:RDF>
 </metadata>
 <defs>
  <style type="text/css">*{stroke-linejoin: round; stroke-linecap: butt}</style>
 </defs>
 <g id="figure_1">
  <g id="patch_1">
   <path d="M 0 122.4 
L 216 122.4 
L 216 0 
L 0 0 
L 0 122.4 
z
" style="fill: none; opacity: 0"/>
  </g>
  <g id="axes_1">
   <g id="patch_2">
    <path d="M 35.96 103.4 
L 211 103.4 
L 211 7.523069 
L 35.96 7.523069 
L 35.96 103.4 
z
" style="fill: none; opacity: 0"/>
   </g>
   <g id="matplotlib.axis_1">
    <g id="xtick_1">
     <g id="line2d_1">
      <path d="M 72.056377 103.4 
L 72.056377 7.523069 
" clip-path="url(#pc116742a18)" style="fill: none; stroke-dasharray: 2.96,1.28; stroke-dashoffset: 0; stroke: var(--grid-color); stroke-width: 0.8"/>
     </g>
     <g id="line2d_2">
      <defs>
       <path id="m2a0fed4c98" d="M 0 0 
L 0 3.5 
" style="stroke: var(--fg-color); stroke-width: 0.8"/>
      </defs>
      <g>
       <use xlink:href="#m2a0fed4c98" x="72.056377" y="103.4" style="fill: var(--fg-color); stroke: var(--fg-color); stroke-width: 0.8"/>
      </g>
     </g>
     <g id="text_1">
      <text style="font-size: 7px; font-family: 'DejaVu Sans', 'Bitstream Vera Sans', 'Computer Modern Sans Serif', 'Lucida Grande', 'Verdana', 'Geneva', 'Lucid', 'Arial', 'Helvetica', 'Avant Garde', sans-serif; text-anchor: middle; fill: var(--fg-color)" x="72.056377" y="115.718359" transform="rotate(-0 72.056377 115.718359)">02/2026</text>
     </g>
    </g>
    <g id="xtick_2">
     <g id="line2d_3">
      <path d="M 126.640628 103.4 
L 126.640628 7.523069 
" clip-path="url(#pc116742a18)" style="fill: none; stroke-dasharray: 2.96,1.28; stroke-dashoffset: 0; stroke: var(--grid-color); stroke-width: 0.8"/>
     </g>
     <g id="line2d_4">
      <g>
       <use xlink:href="#m2a0fed4c98" x="126.640628" y="103.4" style="fill: var(--fg-color); stroke: var(--fg-color); stroke-width: 0.8"/>
      </g>
     </g>
     <g id="text_2">
      <text style="font-size: 7px; font-family: 'DejaVu Sans', 'Bitstream Vera Sans', 'Computer Modern Sans Serif', 'Lucida Grande', 'Verdana', 'Geneva', 'Lucid', 'Arial', 'Helvetica', 'Avant Garde', sans-serif; text-anchor: middle; fill: var(--fg-color)" x="126.640628" y="115.718359" transform="rotate(-0 126.640628 115.718359)">04/2026</text>
     </g>
    </g>
    <g id="xtick_3">
     <g id="line2d_5">
      <path d="M 183.075192 103.4 
L 183.075192 7.523069 
" clip-path="url(#pc116742a18)" style="fill: none; stroke-dasharray: 2.96,1.28; stroke-dashoffset: 0; stroke: var(--grid-color); stroke-width: 0.8"/>
     </g>
     <g id="line2d_6">
      <g>
       <use xlink:href="#m2a0fed4c98" x="183.075192" y="103.4" style="fill: var(--fg-color); stroke: var(--fg-color); stroke-width: 0.8"/>
      </g>
     </g>
     <g id="text_3">
      <text style="font-size: 7px; font-family: 'DejaVu Sans', 'Bitstream Vera Sans', 'Computer Modern Sans Serif', 'Lucida Grande', 'Verdana', 'Geneva', 'Lucid', 'Arial', 'Helvetica', 'Avant Garde', sans-serif; text-anchor: middle; fill: var(--fg-color)" x="183.075192" y="115.718359" transform="rotate(-0 183.075192 115.718359)">06/2026</text>
     </g>
    </g>
   </g>
   <g id="matplotlib.axis_2">
    <g id="ytick_1">
     <g id="line2d_7">
      <path d="M 35.96 99.51131 
L 211 99.51131 
" clip-path="url(#pc116742a18)" style="fill: none; stroke-dasharray: 2.96,1.28; stroke-dashoffset: 0; stroke: var(--grid-color); stroke-width: 0.8"/>
     </g>
     <g id="line2d_8">
      <defs>
       <path id="md545d223b0" d="M 0 0 
L -3.5 0 
" style="stroke: var(--fg-color); stroke-width: 0.8"/>
      </defs>
      <g>
       <use xlink:href="#md545d223b0" x="35.96" y="99.51131" style="fill: var(--fg-color); stroke: var(--fg-color); stroke-width: 0.8"/>
      </g>
     </g>
     <g id="text_4">
      <text style="font-size: 7px; font-family: 'DejaVu Sans', 'Bitstream Vera Sans', 'Computer Modern Sans Serif', 'Lucida Grande', 'Verdana', 'Geneva', 'Lucid', 'Arial', 'Helvetica', 'Avant Garde', sans-serif; text-anchor: end; fill: var(--fg-color)" x="28.96" y="102.17049" transform="rotate(-0 28.96 102.17049)">40</text>
     </g>
    </g>
    <g id="ytick_2">
     <g id="line2d_9">
      <path d="M 35.96 81.141354 
L 211 81.141354 
" clip-path="url(#pc116742a18)" style="fill: none; stroke-dasharray: 2.96,1.28; stroke-dashoffset: 0; stroke: var(--grid-color); stroke-width: 0.8"/>
     </g>
     <g id="line2d_10">
      <g>
       <use xlink:href="#md545d223b0" x="35.96" y="81.141354" style="fill: var(--fg-color); stroke: var(--fg-color); stroke-width: 0.8"/>
      </g>
     </g>
     <g id="text_5">
      <text style="font-size: 7px; font-family: 'DejaVu Sans', 'Bitstream Vera Sans', 'Computer Modern Sans Serif', 'Lucida Grande', 'Verdana', 'Geneva', 'Lucid', 'Arial', 'Helvetica', 'Avant Garde', sans-serif; text-anchor: end; fill: var(--fg-color)" x="28.96" y="83.800534" transform="rotate(-0 28.96 83.800534)">60</text>
     </g>
    </g>
    <g id="ytick_3">
     <g id="line2d_11">
      <path d="M 35.96 62.771399 
L 211 62.771399 
" clip-path="url(#pc116742a18)" style="fill: none; stroke-dasharray: 2.96,1.28; stroke-dashoffset: 0; stroke: var(--grid-color); stroke-width: 0.8"/>
     </g>
     <g id="line2d_12">
      <g>
       <use xlink:href="#md545d223b0" x="35.96" y="62.771399" style="fill: var(--fg-color); stroke: var(--fg-color); stroke-width: 0.8"/>
      </g>
     </g>
     <g id="text_6">
      <text style="font-size: 7px; font-family: 'DejaVu Sans', 'Bitstream Vera Sans', 'Computer Modern Sans Serif', 'Lucida Grande', 'Verdana', 'Geneva', 'Lucid', 'Arial', 'Helvetica', 'Avant Garde', sans-serif; text-anchor: end; fill: var(--fg-color)" x="28.96" y="65.430579" transform="rotate(-0 28.96 65.430579)">80</text>
     </g>
    </g>
    <g id="ytick_4">
     <g id="line2d_13">
      <path d="M 35.96 44.401443 
L 211 44.401443 
" clip-path="url(#pc116742a18)" style="fill: none; stroke-dasharray: 2.96,1.28; stroke-dashoffset: 0; stroke: var(--grid-color); stroke-width: 0.8"/>
     </g>
     <g id="line2d_14">
      <g>
       <use xlink:href="#md545d223b0" x="35.96" y="44.401443" style="fill: var(--fg-color); stroke: var(--fg-color); stroke-width: 0.8"/>
      </g>
     </g>
     <g id="text_7">
      <text style="font-size: 7px; font-family: 'DejaVu Sans', 'Bitstream Vera Sans', 'Computer Modern Sans Serif', 'Lucida Grande', 'Verdana', 'Geneva', 'Lucid', 'Arial', 'Helvetica', 'Avant Garde', sans-serif; text-anchor: end; fill: var(--fg-color)" x="28.96" y="47.060623" transform="rotate(-0 28.96 47.060623)">100</text>
     </g>
    </g>
    <g id="ytick_5">
     <g id="line2d_15">
      <path d="M 35.96 26.031488 
L 211 26.031488 
" clip-path="url(#pc116742a18)" style="fill: none; stroke-dasharray: 2.96,1.28; stroke-dashoffset: 0; stroke: var(--grid-color); stroke-width: 0.8"/>
     </g>
     <g id="line2d_16">
      <g>
       <use xlink:href="#md545d223b0" x="35.96" y="26.031488" style="fill: var(--fg-color); stroke: var(--fg-color); stroke-width: 0.8"/>
      </g>
     </g>
     <g id="text_8">
      <text style="font-size: 7px; font-family: 'DejaVu Sans', 'Bitstream Vera Sans', 'Computer Modern Sans Serif', 'Lucida Grande', 'Verdana', 'Geneva', 'Lucid', 'Arial', 'Helvetica', 'Avant Garde', sans-serif; text-anchor: end; fill: var(--fg-color)" x="28.96" y="28.690667" transform="rotate(-0 28.96 28.690667)">120</text>
     </g>
    </g>
    <g id="ytick_6">
     <g id="line2d_17">
      <path d="M 35.96 7.661532 
L 211 7.661532 
" clip-path="url(#pc116742a18)" style="fill: none; stroke-dasharray: 2.96,1.28; stroke-dashoffset: 0; stroke: var(--grid-color); stroke-width: 0.8"/>
     </g>
     <g id="line2d_18">
      <g>
       <use xlink:href="#md545d223b0" x="35.96" y="7.661532" style="fill: var(--fg-color); stroke: var(--fg-color); stroke-width: 0.8"/>
      </g>
     </g>
     <g id="text_9">
      <text style="font-size: 7px; font-family: 'DejaVu Sans', 'Bitstream Vera Sans', 'Computer Modern Sans Serif', 'Lucida Grande', 'Verdana', 'Geneva', 'Lucid', 'Arial', 'Helvetica', 'Avant Garde', sans-serif; text-anchor: end; fill: var(--fg-color)" x="28.96" y="10.320712" transform="rotate(-0 28.96 10.320712)">140</text>
     </g>
    </g>
    <g id="text_10">
     <text style="font-size: 7px; font-family: 'DejaVu Sans', 'Bitstream Vera Sans', 'Computer Modern Sans Serif', 'Lucida Grande', 'Verdana', 'Geneva', 'Lucid', 'Arial', 'Helvetica', 'Avant Garde', sans-serif; text-anchor: middle; fill: var(--fg-color)" x="9.917109" y="55.461534" transform="rotate(-90 9.917109 55.461534)">ms</text>
    </g>
   </g>
   <g id="line2d_19">
    <path d="M 43.916364 33.344567 
L 45.193108 32.106432 
L 45.766628 35.9779 
L 46.691788 37.418105 
L 47.616947 37.741416 
L 48.542109 38.973121 
L 49.467263 37.943485 
L 50.392418 38.103304 
L 51.317566 39.229382 
L 52.242732 37.646811 
L 53.167891 33.680737 
L 54.093049 35.726232 
L 55.018206 29.712827 
L 55.943359 36.587783 
L 56.868517 36.657589 
L 57.793676 33.832289 
L 58.718827 32.763158 
L 59.643987 35.369855 
L 60.569143 34.913361 
L 61.494301 35.347811 
L 62.419457 38.076668 
L 63.344613 23.09505 
L 64.269773 32.363611 
L 65.194924 34.062832 
L 66.120079 34.590969 
L 67.045243 32.857763 
L 67.970398 38.048194 
L 68.895557 33.581539 
L 69.82071 35.331278 
L 70.74585 32.311257 
L 71.671025 38.086771 
L 72.596178 33.278435 
L 73.521341 35.808897 
L 74.446495 29.921326 
L 75.371653 30.822372 
L 76.296805 37.137044 
L 77.221971 34.76732 
L 78.147114 36.861495 
L 79.072277 32.974412 
L 79.997435 37.700084 
L 80.922594 34.6819 
L 81.847735 33.635731 
L 82.772905 25.146974 
L 83.698046 33.549392 
L 84.623219 36.929464 
L 85.548376 28.731871 
L 86.473535 36.901909 
L 87.398688 31.779447 
L 88.323852 38.985062 
L 97.76512 36.662181 
L 98.500856 35.88605 
L 99.426031 38.47254 
L 100.351186 33.921384 
L 101.276348 33.937917 
L 102.201502 40.648461 
L 103.126656 37.91042 
L 104.051812 37.371261 
L 104.976967 39.367157 
L 105.902123 37.655996 
L 106.827282 32.716315 
L 107.752435 32.928488 
L 108.677594 33.515408 
L 109.602753 34.66353 
L 110.527909 31.066693 
L 111.453063 34.872947 
L 112.378223 35.844718 
L 113.303377 36.134963 
L 114.228537 36.419698 
L 115.153695 38.296189 
L 116.078848 34.92622 
L 117.004011 33.818512 
L 117.929158 38.046357 
L 118.854316 34.619442 
L 119.779481 32.134905 
L 120.704637 33.343649 
L 121.629794 36.854147 
L 122.554943 36.506036 
L 123.480104 36.62636 
L 124.405261 34.095898 
L 125.330416 26.363984 
L 126.255574 33.121372 
L 129.9562 29.735789 
L 130.881363 32.843067 
L 131.806516 28.401212 
L 132.731673 32.338812 
L 133.656831 34.520244 
L 134.581987 30.227186 
L 135.507147 32.238696 
L 136.432285 29.163565 
L 137.357455 31.553496 
L 138.282617 27.421175 
L 139.20777 35.610501 
L 140.13293 30.758996 
L 141.058084 29.538312 
L 141.983242 29.440951 
L 142.908395 24.976134 
L 143.833556 26.015873 
L 144.758724 25.499678 
L 145.683869 15.381506 
L 146.609028 23.749021 
L 147.534182 26.562379 
L 148.459339 30.042568 
L 149.384497 24.224803 
L 150.309651 29.991132 
L 151.234811 16.66281 
L 152.159963 24.579343 
L 179.91473 24.579343 
L 188.548948 28.462751 
L 189.166282 28.815454 
L 190.091439 24.671193 
L 191.016594 33.282109 
L 191.94175 29.02579 
L 192.866913 27.352288 
L 193.792066 28.536231 
L 194.717222 24.819071 
L 195.642377 28.783307 
L 196.567536 26.487981 
L 197.492695 11.881111 
L 198.417852 24.570158 
L 199.343013 27.351369 
L 200.268162 27.099701 
L 201.193322 28.300177 
L 202.118478 33.154438 
L 203.043636 28.43887 
" clip-path="url(#pc116742a18)" style="fill: none; stroke: #339af0; stroke-width: 1.2; stroke-linecap: square"/>
   </g>
   <g id="line2d_20">
    <path d="M 43.916364 91.717856 
L 45.193108 89.271897 
L 45.766628 91.366072 
L 46.691788 90.294185 
L 47.616947 98.776512 
L 48.542109 93.70273 
L 49.467263 92.493069 
L 50.392418 90.431041 
L 51.317566 89.903823 
L 52.242732 94.053596 
L 53.167891 94.601939 
L 54.093049 96.218495 
L 55.018206 91.315554 
L 55.943359 90.58443 
L 56.868517 83.310846 
L 57.793676 95.493801 
L 58.718827 89.185558 
L 59.643987 93.428099 
L 60.569143 92.512357 
L 61.494301 97.222414 
L 62.419457 89.879024 
L 63.344613 93.270118 
L 64.269773 92.944051 
L 65.194924 92.527053 
L 66.120079 91.264118 
L 67.045243 92.458166 
L 67.970398 92.242319 
L 68.895557 90.782826 
L 69.82071 93.720182 
L 70.74585 93.659561 
L 71.671025 90.352969 
L 72.596178 88.911846 
L 73.521341 89.472129 
L 74.446495 90.56606 
L 75.371653 94.180349 
L 76.296805 93.716508 
L 77.221971 90.818647 
L 78.147114 91.345865 
L 79.072277 90.115078 
L 79.997435 89.749516 
L 80.922594 95.496556 
L 81.847735 90.234482 
L 82.772905 94.025123 
L 83.698046 91.239319 
L 84.623219 92.429692 
L 85.548376 92.685035 
L 86.473535 92.696975 
L 87.398688 92.355294 
L 88.323852 89.726553 
L 97.76512 89.346295 
L 98.500856 91.143795 
L 99.426031 93.149794 
L 100.351186 90.915089 
L 101.276348 90.265711 
L 102.201502 88.921031 
L 103.126656 92.899045 
L 104.051812 95.841911 
L 104.976967 90.850794 
L 105.902123 91.204416 
L 106.827282 92.456329 
L 107.752435 90.422775 
L 108.677594 88.893476 
L 109.602753 91.362398 
L 110.527909 88.473722 
L 111.453063 91.579163 
L 112.378223 93.471269 
L 113.303377 91.606718 
L 114.228537 93.545667 
L 115.153695 93.321553 
L 116.078848 87.939157 
L 117.004011 89.093708 
L 117.929158 94.292406 
L 118.854316 92.99365 
L 119.779481 89.338947 
L 120.704637 92.685953 
L 121.629794 99.041958 
L 122.554943 94.005834 
L 123.480104 91.17135 
L 124.405261 89.194743 
L 125.330416 88.847551 
L 126.255574 89.779826 
L 129.9562 90.806707 
L 130.881363 90.789255 
L 131.806516 92.616147 
L 132.731673 92.782395 
L 133.656831 90.543098 
L 134.581987 95.277035 
L 135.507147 88.831936 
L 136.432285 88.496685 
L 137.357455 91.588348 
L 138.282617 44.415221 
L 139.20777 92.157817 
L 140.13293 87.724228 
L 141.058084 92.607881 
L 141.983242 86.233506 
L 142.908395 85.151516 
L 143.833556 92.294673 
L 144.758724 88.865002 
L 145.683869 89.045946 
L 146.609028 89.070746 
L 147.534182 92.859549 
L 148.459339 91.010613 
L 149.384497 91.437715 
L 150.309651 89.708183 
L 151.234811 91.358724 
L 152.159963 90.110485 
L 179.91473 90.110485 
L 188.548948 91.133692 
L 189.166282 88.37728 
L 190.091439 92.243237 
L 191.016594 92.295591 
L 191.94175 93.632924 
L 192.866913 92.980791 
L 193.792066 89.426204 
L 194.717222 91.231971 
L 195.642377 88.439738 
L 196.567536 88.300126 
L 197.492695 86.705614 
L 198.417852 88.89715 
L 199.343013 88.342377 
L 200.268162 91.286162 
L 201.193322 96.48486 
L 202.118478 87.929053 
L 203.043636 90.845283 
" clip-path="url(#pc116742a18)" style="fill: none; stroke: #ff6b6b; stroke-width: 1.2; stroke-linecap: square"/>
   </g>
   <g id="patch_3">
    <path d="M 35.96 103.4 
L 35.96 7.523069 
" style="fill: none; stroke: var(--fg-color); stroke-width: 0.8; stroke-linejoin: miter; stroke-linecap: square"/>
   </g>
   <g id="patch_4">
    <path d="M 35.96 103.4 
L 211 103.4 
" style="fill: none; stroke: var(--fg-color); stroke-width: 0.8; stroke-linejoin: miter; stroke-linecap: square"/>
   </g>
  </g>
 </g>
 <defs>
  <clipPath id="pc116742a18">
   <rect x="35.96" y="7.523069" width="175.04" height="95.876931"/>
  </clipPath>
 </defs>
</svg>
