<?xml version="1.0" encoding="utf-8" standalone="no"?>
<!DOCTYPE svg PUBLIC "-//W3C//DTD SVG 1.1//EN"
  "http://www.w3.org/Graphics/SVG/1.1/DTD/svg11.dtd">
<svg xmlns:xlink="http://www.w3.org/1999/xlink" width="216pt" height="122.4pt" viewBox="0 0 216 122.4" xmlns="http://www.w3.org/2000/svg" version="1.1">
  <style>
    :root {
      --fg-color: #212529;
      --grid-color: rgba(33, 37, 41, 0.1);
    }
    @media (prefers-color-scheme: dark) {
      :root {
        --fg-color: #dee2e6;
        --grid-color: rgba(248, 249, 250, 0.15);
      }
    }
  </style>

 <metadata>
  <rdf:RDF xmlns:dc="http://purl.org/dc/elements/1.1/" xmlns:cc="http://creativecommons.org/ns#" xmlns:rdf="http://www.w3.org/1999/02/22-rdf-syntax-ns#">
   <cc:Work>
    <dc:type rdf:resource="http://purl.org/dc/dcmitype/StillImage"/>
    <dc:date>2026-06-30T04:49:14.590146</dc:date>
    <dc:format>image/svg+xml</dc:format>
    <dc:creator>
     <cc:Agent>
      <dc:title>Matplotlib v3.11.0, https://matplotlib.org/</dc:title>
     </cc:Agent>
    </dc:creator>
   </cc:Work>
  </rdf:RDF>
 </metadata>
 <defs>
  <style type="text/css">*{stroke-linejoin: round; stroke-linecap: butt}</style>
 </defs>
 <g id="figure_1">
  <g id="patch_1">
   <path d="M 0 122.4 
L 216 122.4 
L 216 0 
L 0 0 
L 0 122.4 
z
" style="fill: none; opacity: 0"/>
  </g>
  <g id="axes_1">
   <g id="patch_2">
    <path d="M 35.96 103.4 
L 211 103.4 
L 211 5 
L 35.96 5 
L 35.96 103.4 
z
" style="fill: none; opacity: 0"/>
   </g>
   <g id="matplotlib.axis_1">
    <g id="xtick_1">
     <g id="line2d_1">
      <path d="M 72.056377 103.4 
L 72.056377 5 
" clip-path="url(#pfd817e24b7)" style="fill: none; stroke-dasharray: 2.96,1.28; stroke-dashoffset: 0; stroke: var(--grid-color); stroke-width: 0.8"/>
     </g>
     <g id="line2d_2">
      <defs>
       <path id="m8d8d918381" d="M 0 0 
L 0 3.5 
" style="stroke: var(--fg-color); stroke-width: 0.8"/>
      </defs>
      <g>
       <use xlink:href="#m8d8d918381" x="72.056377" y="103.4" style="fill: var(--fg-color); stroke: var(--fg-color); stroke-width: 0.8"/>
      </g>
     </g>
     <g id="text_1">
      <text style="font-size: 7px; font-family: 'DejaVu Sans', 'Bitstream Vera Sans', 'Computer Modern Sans Serif', 'Lucida Grande', 'Verdana', 'Geneva', 'Lucid', 'Arial', 'Helvetica', 'Avant Garde', sans-serif; text-anchor: middle; fill: var(--fg-color)" x="72.056377" y="115.718359" transform="rotate(-0 72.056377 115.718359)">02/2026</text>
     </g>
    </g>
    <g id="xtick_2">
     <g id="line2d_3">
      <path d="M 126.640628 103.4 
L 126.640628 5 
" clip-path="url(#pfd817e24b7)" style="fill: none; stroke-dasharray: 2.96,1.28; stroke-dashoffset: 0; stroke: var(--grid-color); stroke-width: 0.8"/>
     </g>
     <g id="line2d_4">
      <g>
       <use xlink:href="#m8d8d918381" x="126.640628" y="103.4" style="fill: var(--fg-color); stroke: var(--fg-color); stroke-width: 0.8"/>
      </g>
     </g>
     <g id="text_2">
      <text style="font-size: 7px; font-family: 'DejaVu Sans', 'Bitstream Vera Sans', 'Computer Modern Sans Serif', 'Lucida Grande', 'Verdana', 'Geneva', 'Lucid', 'Arial', 'Helvetica', 'Avant Garde', sans-serif; text-anchor: middle; fill: var(--fg-color)" x="126.640628" y="115.718359" transform="rotate(-0 126.640628 115.718359)">04/2026</text>
     </g>
    </g>
    <g id="xtick_3">
     <g id="line2d_5">
      <path d="M 183.075192 103.4 
L 183.075192 5 
" clip-path="url(#pfd817e24b7)" style="fill: none; stroke-dasharray: 2.96,1.28; stroke-dashoffset: 0; stroke: var(--grid-color); stroke-width: 0.8"/>
     </g>
     <g id="line2d_6">
      <g>
       <use xlink:href="#m8d8d918381" x="183.075192" y="103.4" style="fill: var(--fg-color); stroke: var(--fg-color); stroke-width: 0.8"/>
      </g>
     </g>
     <g id="text_3">
      <text style="font-size: 7px; font-family: 'DejaVu Sans', 'Bitstream Vera Sans', 'Computer Modern Sans Serif', 'Lucida Grande', 'Verdana', 'Geneva', 'Lucid', 'Arial', 'Helvetica', 'Avant Garde', sans-serif; text-anchor: middle; fill: var(--fg-color)" x="183.075192" y="115.718359" transform="rotate(-0 183.075192 115.718359)">06/2026</text>
     </g>
    </g>
   </g>
   <g id="matplotlib.axis_2">
    <g id="ytick_1">
     <g id="line2d_7">
      <path d="M 35.96 99.61913 
L 211 99.61913 
" clip-path="url(#pfd817e24b7)" style="fill: none; stroke-dasharray: 2.96,1.28; stroke-dashoffset: 0; stroke: var(--grid-color); stroke-width: 0.8"/>
     </g>
     <g id="line2d_8">
      <defs>
       <path id="m79f094e145" d="M 0 0 
L -3.5 0 
" style="stroke: var(--fg-color); stroke-width: 0.8"/>
      </defs>
      <g>
       <use xlink:href="#m79f094e145" x="35.96" y="99.61913" style="fill: var(--fg-color); stroke: var(--fg-color); stroke-width: 0.8"/>
      </g>
     </g>
     <g id="text_4">
      <text style="font-size: 7px; font-family: 'DejaVu Sans', 'Bitstream Vera Sans', 'Computer Modern Sans Serif', 'Lucida Grande', 'Verdana', 'Geneva', 'Lucid', 'Arial', 'Helvetica', 'Avant Garde', sans-serif; text-anchor: end; fill: var(--fg-color)" x="28.96" y="102.27831" transform="rotate(-0 28.96 102.27831)">0</text>
     </g>
    </g>
    <g id="ytick_2">
     <g id="line2d_9">
      <path d="M 35.96 71.966944 
L 211 71.966944 
" clip-path="url(#pfd817e24b7)" style="fill: none; stroke-dasharray: 2.96,1.28; stroke-dashoffset: 0; stroke: var(--grid-color); stroke-width: 0.8"/>
     </g>
     <g id="line2d_10">
      <g>
       <use xlink:href="#m79f094e145" x="35.96" y="71.966944" style="fill: var(--fg-color); stroke: var(--fg-color); stroke-width: 0.8"/>
      </g>
     </g>
     <g id="text_5">
      <text style="font-size: 7px; font-family: 'DejaVu Sans', 'Bitstream Vera Sans', 'Computer Modern Sans Serif', 'Lucida Grande', 'Verdana', 'Geneva', 'Lucid', 'Arial', 'Helvetica', 'Avant Garde', sans-serif; text-anchor: end; fill: var(--fg-color)" x="28.96" y="74.626124" transform="rotate(-0 28.96 74.626124)">100</text>
     </g>
    </g>
    <g id="ytick_3">
     <g id="line2d_11">
      <path d="M 35.96 44.314758 
L 211 44.314758 
" clip-path="url(#pfd817e24b7)" style="fill: none; stroke-dasharray: 2.96,1.28; stroke-dashoffset: 0; stroke: var(--grid-color); stroke-width: 0.8"/>
     </g>
     <g id="line2d_12">
      <g>
       <use xlink:href="#m79f094e145" x="35.96" y="44.314758" style="fill: var(--fg-color); stroke: var(--fg-color); stroke-width: 0.8"/>
      </g>
     </g>
     <g id="text_6">
      <text style="font-size: 7px; font-family: 'DejaVu Sans', 'Bitstream Vera Sans', 'Computer Modern Sans Serif', 'Lucida Grande', 'Verdana', 'Geneva', 'Lucid', 'Arial', 'Helvetica', 'Avant Garde', sans-serif; text-anchor: end; fill: var(--fg-color)" x="28.96" y="46.973938" transform="rotate(-0 28.96 46.973938)">200</text>
     </g>
    </g>
    <g id="ytick_4">
     <g id="line2d_13">
      <path d="M 35.96 16.662572 
L 211 16.662572 
" clip-path="url(#pfd817e24b7)" style="fill: none; stroke-dasharray: 2.96,1.28; stroke-dashoffset: 0; stroke: var(--grid-color); stroke-width: 0.8"/>
     </g>
     <g id="line2d_14">
      <g>
       <use xlink:href="#m79f094e145" x="35.96" y="16.662572" style="fill: var(--fg-color); stroke: var(--fg-color); stroke-width: 0.8"/>
      </g>
     </g>
     <g id="text_7">
      <text style="font-size: 7px; font-family: 'DejaVu Sans', 'Bitstream Vera Sans', 'Computer Modern Sans Serif', 'Lucida Grande', 'Verdana', 'Geneva', 'Lucid', 'Arial', 'Helvetica', 'Avant Garde', sans-serif; text-anchor: end; fill: var(--fg-color)" x="28.96" y="19.321752" transform="rotate(-0 28.96 19.321752)">300</text>
     </g>
    </g>
    <g id="text_8">
     <text style="font-size: 7px; font-family: 'DejaVu Sans', 'Bitstream Vera Sans', 'Computer Modern Sans Serif', 'Lucida Grande', 'Verdana', 'Geneva', 'Lucid', 'Arial', 'Helvetica', 'Avant Garde', sans-serif; text-anchor: middle; fill: var(--fg-color)" x="9.917109" y="54.2" transform="rotate(-90 9.917109 54.2)">ms</text>
    </g>
   </g>
   <g id="line2d_15">
    <path d="M 43.916364 42.330714 
L 45.193108 39.30114 
L 45.766628 41.749741 
L 46.691788 48.103384 
L 47.616947 37.642009 
L 48.542109 37.080393 
L 49.467263 41.959069 
L 50.392418 47.148001 
L 51.317566 44.616167 
L 52.242732 46.292719 
L 53.167891 48.779204 
L 54.093049 42.423625 
L 55.018206 39.184448 
L 55.943359 44.095753 
L 56.868517 39.705415 
L 57.793676 46.824194 
L 58.718827 42.882928 
L 59.643987 49.472444 
L 60.569143 42.296149 
L 61.494301 37.239946 
L 62.419457 49.290769 
L 63.344613 34.6105 
L 64.269773 33.378872 
L 65.194924 34.185486 
L 66.120079 41.203887 
L 67.045243 34.328448 
L 67.970398 46.919594 
L 68.895557 44.980899 
L 69.82071 40.319017 
L 70.74585 43.9998 
L 71.671025 42.304168 
L 72.596178 47.804188 
L 73.521341 45.682435 
L 74.446495 37.984067 
L 75.371653 41.308689 
L 76.296805 37.64671 
L 77.221971 44.073631 
L 78.147114 48.34064 
L 79.072277 42.657839 
L 79.997435 45.114736 
L 80.922594 30.729239 
L 81.847735 43.701709 
L 82.772905 39.020747 
L 83.698046 39.558306 
L 84.623219 43.250426 
L 85.548376 29.587757 
L 86.473535 33.923896 
L 87.398688 39.637114 
L 88.323852 45.971677 
L 97.76512 25.726682 
L 98.500856 32.954134 
L 99.426031 21.72071 
L 100.351186 25.670825 
L 101.276348 47.118413 
L 102.201502 40.131536 
L 103.126656 41.54235 
L 104.051812 46.70529 
L 104.976967 33.35675 
L 105.902123 45.270418 
L 106.827282 32.111849 
L 107.752435 34.027315 
L 108.677594 48.725282 
L 109.602753 40.999261 
L 110.527909 30.356488 
L 111.453063 36.864706 
L 112.378223 38.673436 
L 113.303377 28.865758 
L 114.228537 31.55438 
L 115.153695 38.560891 
L 116.078848 37.065185 
L 117.004011 49.266712 
L 117.929158 40.176332 
L 118.854316 33.086035 
L 119.779481 36.264101 
L 120.704637 26.800417 
L 121.629794 36.788386 
L 122.554943 40.949487 
L 123.480104 36.945727 
L 124.405261 37.300228 
L 125.330416 39.712605 
L 126.255574 30.276849 
L 129.9562 24.596814 
L 130.881363 40.371833 
L 131.806516 27.803085 
L 132.731673 36.206308 
L 133.656831 33.55391 
L 134.581987 34.599992 
L 135.507147 24.585477 
L 136.432285 28.72888 
L 137.357455 34.491319 
L 138.282617 31.234998 
L 139.20777 32.811725 
L 140.13293 34.051096 
L 141.058084 30.100982 
L 141.983242 31.304958 
L 142.908395 36.16317 
L 143.833556 34.850245 
L 144.758724 29.138409 
L 145.683869 27.482596 
L 146.609028 24.897393 
L 147.534182 28.790544 
L 148.459339 29.920689 
L 149.384497 34.695669 
L 150.309651 37.550757 
L 151.234811 29.798467 
L 152.159963 22.574333 
L 179.91473 22.574333 
L 188.548948 33.625806 
L 189.166282 26.975731 
L 190.091439 35.849318 
L 191.016594 25.878493 
L 191.94175 15.5139 
L 192.866913 20.088125 
L 193.792066 39.143246 
L 194.717222 32.952198 
L 195.642377 38.138919 
L 196.567536 15.586073 
L 197.492695 9.472727 
L 198.417852 39.59536 
L 199.343013 35.937252 
L 200.268162 38.361243 
L 201.193322 22.559954 
L 202.118478 24.19641 
L 203.043636 30.553924 
" clip-path="url(#pfd817e24b7)" style="fill: none; stroke: #339af0; stroke-width: 1.2; stroke-linecap: square"/>
   </g>
   <g id="line2d_16">
    <path d="M 43.916364 98.765784 
L 45.193108 98.839615 
L 45.766628 98.841551 
L 46.691788 85.84613 
L 47.616947 98.890495 
L 48.542109 98.835467 
L 49.467263 98.8822 
L 50.392418 98.487603 
L 51.317566 98.903492 
L 52.242732 98.855654 
L 53.167891 98.907916 
L 54.093049 98.89492 
L 55.018206 98.927273 
L 55.943359 98.853994 
L 56.868517 98.873904 
L 57.793676 98.882476 
L 58.718827 98.86312 
L 59.643987 98.923954 
L 60.569143 98.91317 
L 61.494301 98.924231 
L 62.419457 98.471841 
L 63.344613 98.865885 
L 64.269773 98.832702 
L 65.194924 98.852612 
L 66.120079 98.889942 
L 67.045243 98.836574 
L 67.970398 98.922295 
L 68.895557 98.867267 
L 69.82071 98.887454 
L 70.74585 98.865055 
L 71.671025 98.884965 
L 72.596178 98.910681 
L 73.521341 98.882753 
L 74.446495 98.877775 
L 75.371653 98.891878 
L 76.296805 98.840998 
L 77.221971 98.877222 
L 78.147114 98.90764 
L 79.072277 98.876946 
L 79.997435 98.923401 
L 80.922594 98.5371 
L 81.847735 98.864226 
L 82.772905 98.905981 
L 83.698046 98.881647 
L 84.623219 98.867267 
L 85.548376 98.852888 
L 86.473535 97.967465 
L 87.398688 98.872798 
L 88.323852 98.55618 
L 97.76512 98.901556 
L 98.500856 98.876669 
L 99.426031 98.485391 
L 100.351186 98.904321 
L 101.276348 98.863949 
L 102.201502 98.866714 
L 103.126656 98.863673 
L 104.051812 98.891325 
L 104.976967 98.83685 
L 105.902123 98.905151 
L 106.827282 98.918148 
L 107.752435 98.871415 
L 108.677594 98.883582 
L 109.602753 98.873904 
L 110.527909 98.900727 
L 111.453063 98.85676 
L 112.378223 98.898238 
L 113.303377 98.872521 
L 114.228537 98.547055 
L 115.153695 98.839615 
L 116.078848 98.864226 
L 117.004011 98.902386 
L 117.929158 98.884965 
L 118.854316 98.905151 
L 119.779481 98.849017 
L 120.704637 98.865885 
L 121.629794 98.524104 
L 122.554943 98.620057 
L 123.480104 98.824407 
L 124.405261 98.793989 
L 125.330416 98.744492 
L 126.255574 98.625587 
L 129.9562 98.820535 
L 130.881363 98.802561 
L 131.806516 98.590469 
L 132.731673 98.768273 
L 133.656831 98.803944 
L 134.581987 98.807815 
L 135.507147 98.444742 
L 136.432285 97.867364 
L 137.357455 98.788182 
L 138.282617 98.592958 
L 139.20777 98.475989 
L 140.13293 98.860078 
L 141.058084 98.814175 
L 141.983242 98.77408 
L 142.908395 98.839339 
L 143.833556 98.79952 
L 144.758724 98.522168 
L 145.683869 98.564753 
L 146.609028 98.774356 
L 147.534182 98.789565 
L 148.459339 98.292379 
L 149.384497 98.046274 
L 150.309651 98.743662 
L 151.234811 98.767167 
L 152.159963 98.803667 
L 179.91473 98.803667 
L 188.548948 98.333857 
L 189.166282 98.784587 
L 190.091439 98.806156 
L 191.016594 98.835191 
L 191.94175 98.83685 
L 192.866913 98.865055 
L 193.792066 98.891601 
L 194.717222 98.866438 
L 195.642377 98.853165 
L 196.567536 98.854271 
L 197.492695 98.792054 
L 198.417852 98.860354 
L 199.343013 98.870033 
L 200.268162 98.659047 
L 201.193322 98.887177 
L 202.118478 98.886901 
L 203.043636 98.846805 
" clip-path="url(#pfd817e24b7)" style="fill: none; stroke: #ff6b6b; stroke-width: 1.2; stroke-linecap: square"/>
   </g>
   <g id="patch_3">
    <path d="M 35.96 103.4 
L 35.96 5 
" style="fill: none; stroke: var(--fg-color); stroke-width: 0.8; stroke-linejoin: miter; stroke-linecap: square"/>
   </g>
   <g id="patch_4">
    <path d="M 35.96 103.4 
L 211 103.4 
" style="fill: none; stroke: var(--fg-color); stroke-width: 0.8; stroke-linejoin: miter; stroke-linecap: square"/>
   </g>
  </g>
 </g>
 <defs>
  <clipPath id="pfd817e24b7">
   <rect x="35.96" y="5" width="175.04" height="98.4"/>
  </clipPath>
 </defs>
</svg>
